<?xml version="1.0" encoding="utf-8"?>
<!-- Generator: Adobe Illustrator 26.2.1, SVG Export Plug-In . SVG Version: 6.00 Build 0)  -->
<svg version="1.1" id="Layer_1" xmlns="http://www.w3.org/2000/svg" xmlns:xlink="http://www.w3.org/1999/xlink" x="0px" y="0px"
	 viewBox="0 0 417.4 219" style="enable-background:new 0 0 417.4 219;" xml:space="preserve">
<style type="text/css">
	.st0{opacity:0.5;}
	.st1{fill:#FFFFFF;}
	.st2{fill:#FEDD3A;}
	.st3{fill:#F78100;}
	.st4{fill:#AD0909;}
	.st5{fill:#64BF30;}
	.st6{fill:none;stroke:#FFFFFF;stroke-width:1.75;stroke-linejoin:round;}
	.st7{fill-rule:evenodd;clip-rule:evenodd;}
	.st8{fill-rule:evenodd;clip-rule:evenodd;fill:#FFFFFF;}
</style>
<g id="BG">
</g>
<g id="Art" class="st0">
	<path d="M208.7,0C98.5,0,7,86.1,0.4,195.9L0.3,196l0.1,0.2L0.3,197c-0.2,4-0.3,8-0.3,11.7v0.7h186.6v-1.3c0-0.4,0-0.9,0-0.9
		c0-0.9,0.1-1.7,0.2-2.6c0.2-1.1,0.3-2,0.6-3c0.3-1.1,0.6-1.9,1.1-2.9c0.2-0.4,0.3-0.7,0.5-1c0.3-0.6,0.6-1.1,0.9-1.7
		c0.6-0.9,1.1-1.7,1.8-2.5c0.3-0.3,0.6-0.7,0.9-1c0.5-0.5,1-1,1.5-1.4c0.8-0.7,1.5-1.3,2.5-1.9c0.9-0.6,1.7-1,2.7-1.5
		s1.8-0.8,2.9-1.1c1-0.3,1.9-0.5,3-0.7s2.4-0.3,3.5-0.3s2,0.1,3.1,0.2c1.1,0.2,2,0.3,3,0.6c1.1,0.3,1.9,0.6,2.9,1.1
		c1,0.4,1.8,0.9,2.7,1.4c0.9,0.6,1.6,1.1,2.5,1.8c0.6,0.5,1.2,1.1,1.8,1.7c0.2,0.2,0.5,0.5,0.7,0.7c0.7,0.8,1.3,1.5,1.9,2.5
		c0.6,0.9,1,1.7,1.5,2.7s0.8,1.8,1.1,2.9c0.3,1,0.5,1.9,0.7,3c0.1,0.9,0.2,2,0.3,3c0,0.1,0,0.5,0,0.9v1h163.5l23.1,0.3v-0.7
		C417.4,93.6,323.8,0,208.7,0z"/>
	<g>
		<path class="st1" d="M1.5,207.9c0-3.2,0.1-6.6,0.3-10l185.4,0.1c-0.5,1-0.8,1.9-1.1,3s-0.5,2.1-0.7,3.2c-0.1,1-0.2,1.8-0.2,2.8
			c0,0.1,0,0.4,0,0.8L1.5,207.9L1.5,207.9z"/>
		<path d="M1.9,198l185.1,0.1c-0.4,1-0.7,1.8-1,2.9c-0.3,1.1-0.5,2.1-0.7,3.2c-0.1,1-0.2,1.9-0.2,2.8c0,0.1,0,0.4,0,0.7H1.6
			C1.6,204.6,1.7,201.4,1.9,198 M1.7,197.8c-0.2,3.5-0.3,6.9-0.3,10.2h183.9c0-0.4,0-0.8,0-0.9c0-0.9,0.1-1.8,0.2-2.8
			c0.2-1.2,0.4-2.1,0.7-3.2c0.3-1.1,0.6-2,1.1-3.1c0,0,0-0.1,0.1-0.1L1.7,197.8L1.7,197.8z"/>
	</g>
	<g>
		<path class="st2" d="M78.6,77.1c4.1-4.1,6.7-6.4,11.3-10.3c4.9-4.1,10.2-8.1,15.4-11.6c5.3-3.5,8.2-5.4,13.7-8.4
			c5.5-3.1,11.6-6,17.4-8.5c5.8-2.5,12.1-4.8,18.2-6.6c6.1-1.9,9.4-2.7,15.6-4c6.2-1.3,12.8-2.4,19.1-3c6-0.6,12.4-1,18.5-1V184
			c-1,0-2,0.1-2.9,0.3c-1.2,0.2-2.1,0.4-3.2,0.7c-1.1,0.3-2,0.7-3.1,1.2s-1.9,1-2.9,1.6s-1.7,1.2-2.6,2c-0.3,0.3-0.7,0.6-1,0.9
			L78.6,77.1z"/>
		<path d="M207.8,23.7v160.2c-0.9,0-1.9,0.1-2.8,0.3c-1.2,0.2-2.1,0.4-3.2,0.7c-1.1,0.3-2,0.7-3.1,1.2s-1.9,1-2.9,1.6
			s-1.8,1.2-2.6,2c-0.3,0.3-0.6,0.5-0.9,0.9L78.8,77.1c4-4,6.6-6.3,11.2-10.2c4.8-4.1,10.2-8.1,15.4-11.6c5.2-3.5,8.2-5.3,13.7-8.4
			c5.5-3.1,11.5-6,17.4-8.5c5.8-2.5,12.1-4.8,18.2-6.6c6.1-1.9,9.4-2.7,15.6-4c6.2-1.3,12.8-2.4,19.1-3
			C195.4,24.1,201.7,23.7,207.8,23.7 M208,23.5c-6.1,0-12.6,0.4-18.6,1c-6.3,0.7-12.9,1.7-19.1,3c-6.2,1.3-9.6,2.2-15.6,4
			c-6.1,1.9-12.4,4.1-18.2,6.6s-11.9,5.4-17.4,8.5s-8.5,4.9-13.8,8.4s-10.6,7.6-15.5,11.6c-4.7,3.9-7.2,6.2-11.4,10.4l113.8,113.8
			c0.4-0.4,0.7-0.7,1.1-1l0,0c0.9-0.8,1.6-1.3,2.6-2c1-0.6,1.8-1.1,2.9-1.6c1.1-0.5,1.9-0.8,3.1-1.2c1.1-0.3,2-0.6,3.2-0.7
			c0.9-0.1,2-0.2,3-0.3L208,23.5L208,23.5z"/>
	</g>
	<g>
		<path class="st3" d="M225.2,190.7c-0.4-0.4-0.9-0.8-1.3-1.2c-0.9-0.8-1.7-1.3-2.7-1.9c-1-0.6-1.8-1.1-2.9-1.5
			c-1.1-0.5-2-0.8-3.1-1.1s-2.1-0.5-3.2-0.7c-0.9-0.1-1.6-0.2-2.5-0.2V23.6c5.8,0,9.2,0.2,15.3,0.7c6.3,0.6,12.9,1.5,19.2,2.7
			c6.2,1.2,9.6,2,15.7,3.8c6.1,1.7,12.4,3.9,18.3,6.3s11.9,5.2,17.5,8.2s8.6,4.7,13.9,8.2c5.3,3.4,10.7,7.4,15.6,11.4
			c4.7,3.8,9.5,8.1,13.8,12.4L225.2,190.7z"/>
		<path d="M209.6,23.7c5.7,0,9.1,0.2,15.2,0.7c6.3,0.6,12.9,1.5,19.1,2.7c6.2,1.2,9.6,2,15.7,3.8c6.1,1.7,12.4,3.9,18.3,6.3
			c5.9,2.4,11.9,5.2,17.5,8.2s8.6,4.7,13.9,8.2C314.6,57,320,61,324.9,65c4.7,3.8,9.4,8,13.7,12.3L225.2,190.6
			c-0.4-0.4-0.8-0.8-1.2-1.1c-0.9-0.8-1.7-1.3-2.7-1.9c-1-0.6-1.8-1.1-2.9-1.6c-1.1-0.5-2-0.8-3.1-1.1s-2.1-0.5-3.2-0.7
			c-0.8-0.1-1.6-0.2-2.4-0.2V23.7 M209.4,23.5v160.7c0.9,0,1.7,0.1,2.6,0.2c1.2,0.2,2.1,0.4,3.2,0.7c1.1,0.3,2,0.6,3.1,1.1
			s1.9,0.9,2.9,1.5s1.8,1.2,2.6,1.9c0.5,0.4,0.9,0.8,1.4,1.3L339,77.1c-4.4-4.3-9.2-8.6-13.9-12.5c-4.9-4-10.3-7.9-15.7-11.4
			c-5.3-3.5-8.3-5.2-13.9-8.2s-11.7-5.8-17.5-8.2c-5.9-2.4-12.2-4.6-18.3-6.3c-6.1-1.7-9.5-2.6-15.7-3.8c-6.2-1.2-12.9-2.1-19.2-2.7
			C218.7,23.6,215.3,23.5,209.4,23.5L209.4,23.5z"/>
	</g>
	<g>
		<path class="st4" d="M232.3,207.6v-0.4c0-1.1-0.1-2.2-0.3-3.2c-0.2-1.2-0.4-2.1-0.7-3.2c-0.3-1.1-0.7-2-1.2-3.1s-1-1.9-1.6-2.9
			s-1.2-1.7-2-2.6l-0.2-0.2L339.9,78.3c4.1,4.1,6.4,6.6,10.3,11.3c4.1,4.9,8.1,10.2,11.6,15.4c3.5,5.2,5.4,8.2,8.4,13.7
			c3.1,5.5,6,11.6,8.5,17.4s4.8,12.1,6.6,18.2c1.9,6.1,2.7,9.4,4,15.6c1.3,6.2,2.4,12.8,3,19.1c0.6,6,1,12.4,1,18.5L232.3,207.6
			L232.3,207.6z"/>
		<path d="M339.9,78.5c4,4,6.3,6.6,10.2,11.2c4.1,4.8,8.1,10.2,11.6,15.4c3.5,5.2,5.3,8.2,8.4,13.7s6,11.5,8.5,17.4
			c2.5,5.8,4.8,12.1,6.6,18.2c1.9,6.1,2.7,9.4,4,15.6c1.3,6.2,2.4,12.8,3,19.1c0.6,6,1,12.3,1,18.4h-161c0-0.1,0-0.3,0-0.3
			c0-1.1-0.1-2.2-0.3-3.3c-0.2-1.2-0.4-2.1-0.7-3.2c-0.3-1.1-0.7-2-1.2-3.1s-1-1.9-1.6-2.9s-1.2-1.7-2-2.6l-0.1-0.1L339.9,78.5
			 M339.9,78.1L226.1,191.9c0.1,0.1,0.2,0.2,0.3,0.3l0,0c0.8,0.9,1.3,1.6,2,2.6c0.6,1,1.1,1.8,1.6,2.9c0.5,1.1,0.8,1.9,1.2,3.1
			c0.3,1.1,0.6,2,0.7,3.2c0.2,1,0.3,2.2,0.3,3.2c0,0.1,0,0.3,0,0.5h161.5c0-6.1-0.4-12.6-1-18.6c-0.7-6.3-1.7-12.9-3-19.1
			c-1.3-6.2-2.2-9.6-4-15.6c-1.9-6.1-4.1-12.3-6.6-18.2c-2.5-5.8-5.4-11.8-8.5-17.4c-3.1-5.5-4.9-8.5-8.4-13.8s-7.6-10.6-11.6-15.5
			C346.4,84.8,344.1,82.3,339.9,78.1L339.9,78.1z"/>
	</g>
	<g>
		<path class="st5" d="M30.3,196.3h-5.8l0.1-2.3c0.1-1.2,0.1-2.3,0.1-2.4c0.6-6.1,1.5-12.5,2.6-18.5c1.2-6.2,2-9.6,3.8-15.7
			c1.7-6.1,3.9-12.4,6.3-18.3c2.4-5.9,5.2-11.9,8.2-17.5s4.7-8.6,8.2-13.9c3.4-5.3,7.4-10.7,11.4-15.6c3.8-4.7,8.1-9.5,12.4-13.8
			l113.6,113.6c-0.2,0.2-0.3,0.3-0.5,0.5c-0.8,0.9-1.3,1.7-1.9,2.7c-0.3,0.5-0.5,0.9-0.8,1.3L30.3,196.3z"/>
		<path d="M77.5,78.5L191,192c-0.1,0.1-0.3,0.3-0.4,0.4c-0.8,0.9-1.3,1.7-1.9,2.7c-0.3,0.4-0.5,0.9-0.7,1.3l-157.6-0.1h-5.7
			c0-0.5,0.1-1.2,0.1-1.9v-0.3c0.1-1.1,0.1-2.3,0.1-2.4c0.6-6.1,1.5-12.5,2.6-18.5c1.2-6.2,2-9.6,3.8-15.7
			c1.7-6.1,3.9-12.4,6.3-18.3c2.4-5.9,5.2-11.9,8.2-17.5s4.7-8.6,8.2-13.9c3.4-5.3,7.4-10.7,11.4-15.6C69,87.5,73.2,82.8,77.5,78.5
			 M77.5,78.1C73.2,82.5,68.9,87.3,65,92c-4,4.9-7.9,10.3-11.4,15.7c-3.5,5.3-5.2,8.3-8.2,13.9s-5.8,11.7-8.2,17.5
			c-2.4,5.9-4.6,12.2-6.3,18.3s-2.6,9.5-3.8,15.7c-1.2,6-2.1,12.4-2.6,18.5c0,0.1-0.1,1.4-0.1,2.7c0,0.9-0.1,1.7-0.1,2.2h6
			l157.8,0.1c0.2-0.5,0.5-0.9,0.8-1.4c0.6-1,1.2-1.8,1.9-2.6c0.2-0.2,0.3-0.4,0.5-0.6L77.5,78.1L77.5,78.1z"/>
	</g>
	<g>
		<path class="st1" d="M22.4,163.8l-0.4,1.9l-5.7-1.2l4.9,4.7l-6.4,2.3l5.7,1.2l-0.4,1.8l-9.6-2l0.4-1.7l6.8-2.4l-5.3-4.8l0.4-1.8
			L22.4,163.8z"/>
		<path class="st1" d="M20.9,150.4c1.4,0.4,2.4,1.2,3.1,2.5s0.8,2.6,0.4,4s-1.2,2.4-2.5,3.2s-2.5,0.9-3.9,0.5s-2.4-1.2-3-2.4
			c-0.7-1.2-0.8-2.6-0.4-4c0.4-1.4,1.2-2.4,2.4-3.2C18.4,150.3,19.6,150.1,20.9,150.4z M20.4,152.3c-0.8-0.2-1.6-0.1-2.4,0.4
			s-1.3,1.2-1.5,2s-0.2,1.7,0.2,2.5c0.4,0.8,1,1.3,1.9,1.6c0.9,0.2,1.7,0.1,2.5-0.3c0.8-0.5,1.3-1.1,1.6-2c0.3-0.9,0.2-1.7-0.3-2.5
			S21.3,152.5,20.4,152.3z"/>
		<path class="st1" d="M24.7,139.6c1.3,0.4,2.2,1.3,2.8,2.5c0.6,1.3,0.6,2.5,0.2,3.9l-1.5,4.2L17,147l1.5-4.2
			c0.5-1.3,1.3-2.3,2.5-2.9C22.2,139.2,23.5,139.1,24.7,139.6z M24.1,141.4c-0.8-0.3-1.6-0.2-2.3,0.2c-0.8,0.4-1.3,1-1.6,1.8
			l-0.8,2.4l5.7,2l0.8-2.4c0.3-0.8,0.2-1.6-0.1-2.4S24.9,141.7,24.1,141.4z"/>
		<path class="st1" d="M33.3,131.7l-3.1,7.6l-9-3.8l3.1-7.4l1.7,0.7l-2.4,5.7l1.6,0.7l1.4-3.3l1.8,0.7l-1.4,3.3l2.2,0.9l2.4-5.8
			L33.3,131.7z"/>
		<path class="st1" d="M38.2,121.2l-1,2l-4.3,0.4l-1.4,2.8l3.3,1.6l-0.8,1.7l-8.8-4.3L28,120c0.4-0.8,1-1.3,1.8-1.6
			c0.8-0.3,1.6-0.3,2.3,0.1c0.6,0.3,1,0.7,1.3,1.3c0.3,0.6,0.4,1.2,0.3,1.9L38.2,121.2z M31.3,120.2c-0.3-0.1-0.6-0.2-0.9,0
			c-0.3,0.1-0.6,0.3-0.7,0.7l-1.9,3.8l2.2,1l1.9-3.8c0.2-0.3,0.2-0.6,0.1-1C31.8,120.5,31.6,120.3,31.3,120.2z"/>
		<path class="st1" d="M44.4,110.1l-1,1.9l-2.4-0.1l-2.5,4.5l1.3,2l-1,1.9l-6.2-9l0.9-1.7L44.4,110.1z M38.9,111.7l-3.8-0.2l2.1,3.1
			L38.9,111.7z"/>
		<path class="st1" d="M43,97.6l-1.8,2.9l6.7,4.3l-1,1.6l-6.7-4.3l-1.8,2.9l-1.6-1l4.7-7.3L43,97.6z"/>
		<path class="st1" d="M55.5,93.7l-4.8,6.7l-7.9-5.7l4.7-6.5l1.5,1.1l-3.6,5l1.4,1l2.1-2.9l1.5,1.1l-2.1,2.9l1.9,1.4l3.7-5.1
			L55.5,93.7z"/>
		<path class="st1" d="M127.1,35.4l-1.7,0.8l-1.9-3.8l-5.1,2.6l1.9,3.8l-1.7,0.9l-4.4-8.7l1.8-1l1.6,3.3l5.1-2.6l-1.6-3.3l1.7-0.8
			L127.1,35.4z"/>
		<path class="st1" d="M129.5,34.3l-4-8.9l1.8-0.8l4,8.9L129.5,34.3z"/>
		<path class="st1" d="M140.3,25.2c0.5,1.1,0.4,2.3-0.1,3.4s-1.4,1.9-2.6,2.4c-1.3,0.5-2.6,0.5-3.9-0.1c-1.1-0.5-2-1.5-2.5-2.8
			c-0.6-1.4-0.6-2.7,0-3.9c0.5-1.2,1.5-2.1,2.9-2.7c1-0.4,1.9-0.5,2.8-0.3c0.5,0.1,1.2,0.4,1.9,0.8l-1.1,1.6
			c-0.9-0.6-1.9-0.7-2.9-0.3c-0.9,0.4-1.5,0.9-1.8,1.7c-0.3,0.8-0.3,1.6,0.1,2.5c0.3,0.9,0.9,1.5,1.6,1.8c0.7,0.3,1.5,0.3,2.3,0
			s1.4-0.9,1.6-1.6c0.1-0.3,0.2-0.6,0.1-1l-2.1,0.8l-0.7-1.8l4-1.6L140.3,25.2z"/>
		<path class="st1" d="M152.7,25.5l-1.8,0.6l-1.3-4l-5.4,1.8l1.3,4l-1.8,0.6l-3.1-9.3l1.8-0.6l1.2,3.5l5.4-1.8l-1.2-3.5l1.8-0.6
			L152.7,25.5z"/>
		<path class="st1" d="M256.3,23.1l-8-1.9l2.2-9.5l7.8,1.8l-0.4,1.8l-6-1.4l-0.4,1.7l3.5,0.8l-0.4,1.9l-3.5-0.8l-0.5,2.3l6.1,1.4
			L256.3,23.1z"/>
		<path class="st1" d="M267.4,26.3l-2.3-0.7l-1.7-4.2l-3.7,2.6l-2.3-0.7l5.2-3.8l-2.2-5.5l2.3,0.7l1.5,3.7l3.2-2.3l2.3,0.7l-4.8,3.5
			L267.4,26.3z"/>
		<path class="st1" d="M279.3,22.1l-3.2-1.1l-2.7,7.5l-1.8-0.6l2.7-7.5l-3.2-1.1l0.6-1.7l8.2,2.9L279.3,22.1z"/>
		<path class="st1" d="M287.1,33.9L285,33l-0.6-4.2l-2.9-1.2l-1.4,3.4l-1.8-0.7l3.8-9l5.7,2.4c0.8,0.3,1.4,0.9,1.7,1.7
			c0.3,0.8,0.3,1.6,0,2.3c-0.3,0.6-0.7,1.1-1.2,1.4c-0.6,0.3-1.2,0.5-1.9,0.4L287.1,33.9z M287.8,26.9c0.1-0.3,0.1-0.6,0-0.9
			s-0.4-0.5-0.7-0.7l-3.9-1.7l-0.9,2.2l3.9,1.7c0.3,0.1,0.6,0.1,1,0C287.5,27.4,287.7,27.2,287.8,26.9z"/>
		<path class="st1" d="M296.4,38.4l-7.4-3.6l4.3-8.8l7.2,3.5l-0.8,1.7l-5.5-2.7l-0.8,1.6l3.2,1.6l-0.8,1.7l-3.2-1.6l-1.1,2.2
			l5.6,2.8L296.4,38.4z"/>
		<path class="st1" d="M307.9,44.8l-1.7-0.9l2.9-5l-6,3.3l-0.2-6.8l-2.9,5l-1.6-0.9l4.8-8.5l1.5,0.9l0.2,7.2l6.2-3.6l1.6,0.9
			L307.9,44.8z"/>
		<path class="st1" d="M316.6,50.5l-6.9-4.5l5.4-8.2l6.7,4.4l-1,1.6l-5.1-3.4l-1,1.5l3,1.9l-1,1.6l-3-1.9l-1.3,2l5.3,3.4L316.6,50.5
			z"/>
		<path class="st1" d="M359.1,86.9c-1.9,0.1-3.4-0.5-4.5-1.9c-0.9-1.1-1.4-2.4-1.3-3.8s0.7-2.6,1.7-3.5c1.1-0.9,2.3-1.3,3.7-1.2
			c1.4,0.1,2.6,0.8,3.6,1.9c1.1,1.4,1.5,2.9,1.1,4.6l-1.8-0.5c0.2-1.1-0.1-2.1-0.8-2.9c-0.6-0.7-1.3-1.1-2.2-1.2
			c-0.9-0.1-1.7,0.2-2.3,0.7c-0.7,0.6-1.1,1.3-1.1,2.2c-0.1,0.9,0.2,1.7,0.8,2.4c0.7,0.8,1.6,1.2,2.8,1.2L359.1,86.9z"/>
		<path class="st1" d="M365.1,98.1l-1.3-1.7l1.1-2.1l-3.1-4.1l-2.3,0.4l-1.3-1.7l10.7-2.1l1.2,1.5L365.1,98.1z M365.9,92.4l1.7-3.4
			l-3.7,0.7L365.9,92.4z"/>
		<path class="st1" d="M377.1,101.8l-1.9-2.8l-6.6,4.4l-1.1-1.6l6.6-4.4l-1.9-2.8l1.5-1l4.8,7.2L377.1,101.8z"/>
		<path class="st1" d="M376.9,117l-1.1-1.8l1.3-2l-2.6-4.4l-2.4,0.2l-1.1-1.8l10.9-0.8l1,1.7L376.9,117z M378.3,111.4l2.1-3.2
			l-3.8,0.3L378.3,111.4z"/>
		<path class="st1" d="M384.3,125c-0.9,0.4-1.7,0.4-2.5,0s-1.6-1.3-2.2-2.5c-0.9-1.7-1.2-3.5-1-5.2l1.9,0.3c-0.2,1.3,0.1,2.7,0.8,4
			c0.4,0.8,0.8,1.3,1.2,1.6c0.4,0.3,0.7,0.3,1.1,0.2c0.3-0.1,0.5-0.5,0.5-1s-0.2-1.2-0.5-2.1c-0.6-1.6-0.8-2.8-0.7-3.5
			c0.2-0.7,0.6-1.3,1.3-1.6c0.8-0.4,1.5-0.3,2.3,0.2s1.5,1.3,2,2.3c0.6,1.2,0.9,2.6,0.8,4.1l-1.8-0.3c0-1-0.2-2.1-0.7-3.1
			c-0.2-0.5-0.5-0.9-0.8-1.2c-0.3-0.4-0.6-0.4-0.9-0.3s-0.4,0.4-0.4,0.8s0.2,1.1,0.6,2.1c0.6,1.5,0.7,2.6,0.5,3.5
			C385.4,124.1,385,124.7,384.3,125z"/>
		<path class="st1" d="M393.1,132.6l-1.4-3.1l-7.3,3.2l-0.8-1.8l7.3-3.2l-1.4-3.1l1.7-0.7l3.5,8L393.1,132.6z"/>
		<path class="st1" d="M389.9,146.4l-0.8-2.1l2.7-3.4l-1.1-2.9l-3.4,1.3l-0.7-1.8l9.2-3.4l2.2,5.8c0.3,0.8,0.3,1.6-0.1,2.4
			c-0.3,0.8-0.9,1.3-1.7,1.6c-0.6,0.2-1.2,0.3-1.9,0.1c-0.6-0.2-1.2-0.5-1.6-1.1L389.9,146.4z M395.5,142.1c0.3-0.1,0.5-0.3,0.7-0.6
			c0.1-0.3,0.1-0.6,0-1l-1.5-4l-2.3,0.8l1.5,4c0.1,0.3,0.3,0.6,0.7,0.7C394.9,142.2,395.2,142.2,395.5,142.1z"/>
		<path class="st1" d="M398.3,156.6c-1.3,0.4-2.6,0.3-3.9-0.4s-2.1-1.7-2.5-3.1c-0.4-1.4-0.3-2.7,0.4-4c0.7-1.3,1.6-2.1,3-2.5
			s2.7-0.3,3.9,0.4c1.2,0.7,2.1,1.8,2.5,3.2c0.4,1.3,0.3,2.7-0.3,4C400.5,155.4,399.6,156.2,398.3,156.6z M397.7,154.8
			c0.8-0.2,1.4-0.8,1.8-1.6s0.5-1.7,0.2-2.5c-0.3-0.9-0.8-1.6-1.6-2c-0.8-0.5-1.6-0.6-2.4-0.3s-1.5,0.8-1.9,1.6s-0.5,1.7-0.2,2.6
			c0.3,0.9,0.8,1.6,1.6,2C396,155,396.9,155.1,397.7,154.8z"/>
		<path class="st1" d="M399,164.9l-1-4.1l-3.6,0.9l-0.4-1.9l9.5-2.3l1.4,6c0.2,0.9,0.1,1.7-0.3,2.4s-1.1,1.2-1.9,1.4
			s-1.6,0.1-2.3-0.4C399.7,166.4,399.2,165.7,399,164.9z M402.3,165.4c0.3-0.1,0.6-0.3,0.7-0.6c0.2-0.3,0.2-0.6,0.1-1l-1-4.1
			l-2.3,0.6l1,4.1c0.1,0.3,0.3,0.6,0.6,0.8C401.6,165.4,401.9,165.5,402.3,165.4z"/>
		<path class="st1" d="M398.2,180.4l-0.3-1.8l4.2-0.7l-1-5.6l-4.2,0.7l-0.3-1.9l9.6-1.7l0.3,1.9l-3.6,0.6l1,5.6l3.6-0.6l0.3,1.8
			L398.2,180.4z"/>
		<path class="st1" d="M398.5,182.9l9.7-1.3l0.2,1.9l-9.7,1.3L398.5,182.9z"/>
		<path class="st1" d="M402,196.2c-1.6-1-2.4-2.4-2.6-4.1c-0.1-1.4,0.3-2.7,1.2-3.8c0.9-1.1,2-1.7,3.4-1.8s2.7,0.3,3.7,1.2
			c1.1,0.9,1.7,2.1,1.8,3.6c0.1,1.8-0.5,3.3-1.8,4.4l-1.2-1.5c0.8-0.8,1.2-1.8,1.1-2.8c-0.1-0.9-0.5-1.7-1.1-2.2
			c-0.7-0.6-1.4-0.8-2.3-0.8c-0.9,0.1-1.6,0.5-2.2,1.2s-0.8,1.5-0.7,2.4c0.1,1,0.6,1.9,1.6,2.6L402,196.2z"/>
	</g>
	<g>
		<line class="st6" x1="77.9" y1="77.6" x2="61.3" y2="61"/>
		<line class="st6" x1="208.7" y1="23.5" x2="208.7" y2="0"/>
		<line class="st6" x1="339.5" y1="77.5" x2="356" y2="61"/>
	</g>
	<path class="st1" d="M209.4-2.6"/>
</g>
<g>
	<g>
		<polygon class="st7" points="57.3,208.6 72.4,215.1 210.8,215.7 210.9,202.9 72.4,202.3 		"/>
	</g>
	<g>
		<polygon class="st8" points="207.8,212.6 73,212.1 65,208.7 73,205.3 207.8,205.8 		"/>
	</g>
</g>
</svg>
