<svg xmlns="http://www.w3.org/2000/svg" viewBox="0 0 24 24" width="24" height="24"><path fill="currentColor" d="M5 19V5v4.475V9zm2-6h5.525q.05-.55.25-1.05t.5-.95H7zm0 4h3.925q.425-.5.975-.812t1.15-.513q-.1-.15-.175-.325T12.75 15H7zm-4 4V3h18v8.45q-.35-.65-.85-1.15T19 9.475V5H5v14h5.05q-.025.15-.038.3t-.012.3V21zm14-5q-1.05 0-1.775-.725T14.5 13.5t.725-1.775T17 11t1.775.725t.725 1.775t-.725 1.775T17 16m-5 5v-1.4q0-.6.313-1.112t.887-.738q.9-.375 1.863-.562T17 17t1.938.188t1.862.562q.575.225.888.738T22 19.6V21zM7 9h10V7H7z"/></svg>