<svg xmlns="http://www.w3.org/2000/svg" viewBox="0 0 24 24" width="24" height="24"><path fill="currentColor" d="M3 21V3h6.2q.35-.9 1.1-1.45T12 1t1.7.55T14.8 3H21v18zm9-16.75q.325 0 .538-.213t.212-.537t-.213-.537T12 2.75t-.537.213t-.213.537t.213.538t.537.212m-7 13.6q1.35-1.325 3.138-2.087T12 15t3.863.763T19 17.85V5H5zM12 13q1.45 0 2.475-1.025T15.5 9.5t-1.025-2.475T12 6T9.525 7.025T8.5 9.5t1.025 2.475T12 13m-5 6h10v-.25q-1.05-.875-2.325-1.312T12 17t-2.675.438T7 18.75zm5-8q-.625 0-1.062-.437T10.5 9.5t.438-1.062T12 8t1.063.438T13.5 9.5t-.437 1.063T12 11m0 .425"/></svg>