<svg xmlns="http://www.w3.org/2000/svg" viewBox="0 0 24 24" width="24" height="24"><path fill="currentColor" d="M10.325 12q.425 0 .713-.288t.287-.712t-.287-.712t-.713-.288t-.712.288t-.288.712t.288.713t.712.287M7 12q.425 0 .713-.288T8 11t-.288-.712T7 10t-.712.288T6 11t.288.713T7 12m6.675 0q.425 0 .713-.288t.287-.712t-.288-.712t-.712-.288t-.712.288t-.288.712t.288.713t.712.287M17 12q.425 0 .713-.288T18 11t-.288-.712T17 10t-.712.288T16 11t.288.713T17 12M4 16h16V6H4zm8 4q-2.475 0-4.237-.337T6 18.85V18H2V4h20v14h-4v.85q0 .475-1.763.813T12 20m-8-4V6z"/></svg>