<svg xmlns="http://www.w3.org/2000/svg" viewBox="0 0 24 24" width="24" height="24"><path fill="currentColor" d="m20.55 23.35l-5.1-5.1q-.95.25-1.812.688T12 20q-1.2-.95-2.6-1.475T6.5 18q-1.475 0-2.85.463T1 19.675V5.55q.275-.2.55-.362T2.1 4.9L.65 3.45l1.4-1.4l19.9 19.9zm2.45-3.2l-4.05-4.05q.525.075 1.038.2t1.012.3v-12l2 .825zM12 17.6q.45-.275.913-.5t.962-.425L12 14.8zm-9-.975q.85-.325 1.725-.475T6.5 16t1.763.15t1.737.475V12.8L3.65 6.45q-.175.05-.325.113T3 6.7zm13.025-3.45L14 11.15V5.5l5-5v10zM12 9.15L6.85 4q1.35.05 2.65.413T12 5.5zm-2 7.475V12.8z"/></svg>