<svg xmlns="http://www.w3.org/2000/svg" viewBox="0 0 24 24" width="24" height="24"><path fill="currentColor" d="M0 19v-2h4.1q.275-1.7 1.413-2.975T8.3 12.25L6.85 6H3V4h5.45l2.3 10H10q-1.65 0-2.825 1.175T6 18v1zm10 2q-1.25 0-2.125-.875T7 18t.875-2.125T10 15t2.125.875T13 18t-.875 2.125T10 21m0-2q.425 0 .713-.288T11 18t-.288-.712T10 17t-.712.288T9 18t.288.713T10 19m9-1q-1.8 0-3.162-1.112T14.1 14h-2.35l-.45-2h2.8q.125-.575.338-1.075T15 10h-4.15l-.45-2h5.65l-1.1-3h-2.6V3h4.025L18.2 7.95h.8q2.075 0 3.538 1.463T24 12.95q0 2.125-1.463 3.588T19 18m0-2q1.275 0 2.138-.875T22 13q0-1.275-.862-2.137T19 10h-.1l1 2.65l-1.9.7l-.95-2.65q-.5.425-.775 1T16 13q0 1.25.863 2.125T19 16m0-3"/></svg>