<svg xmlns="http://www.w3.org/2000/svg" viewBox="0 0 24 24" width="24" height="24"><path fill="currentColor" d="M15.5 14V3l3-1v11zm-9 2q1.175 0 2.313.275T11 17.05V7.2q-1.025-.6-2.162-.9T6.5 6q-.9 0-1.787.175T3 6.7v9.9q.85-.3 1.725-.45T6.5 16m14.5.6V4.575q.525.2 1.025.425t.975.55v14.5q-1.175-.975-2.575-1.513T17.5 18q-1.5 0-2.9.525T12 20q-1.2-.95-2.6-1.475T6.5 18q-1.525 0-2.925.538T1 20.05V5.55q1.2-.825 2.613-1.187T6.5 4q1.75 0 3.388.575T13 6.1v10.95q1.05-.5 2.188-.775T17.5 16q.9 0 1.775.15T21 16.6M7 11.525"/></svg>