<svg xmlns="http://www.w3.org/2000/svg" viewBox="0 0 24 24" width="24" height="24"><path fill="currentColor" d="M4 18v-5zm-2 4v-9l2.45-7h5.625Q10 6.5 10 7t.075 1H5.85L4.8 11h6.475q.425.6.95 1.113T13.4 13H4v5h14v-4.075q.525-.075 1.025-.225t.975-.375V22h-3v-2H5v2zm13.5-5q.625 0 1.063-.437T17 15.5t-.437-1.062T15.5 14t-1.062.438T14 15.5t.438 1.063T15.5 17m-9 0q.625 0 1.063-.437T8 15.5t-.437-1.062T6.5 14t-1.062.438T5 15.5t.438 1.063T6.5 17M17 12q-2.075 0-3.537-1.463T12 7q0-2.05 1.45-3.525T17 2q2.075 0 3.538 1.462T22 7t-1.463 3.538T17 12m-.5-4h1V4h-1zm.5 2q.2 0 .35-.15t.15-.35t-.15-.35T17 9t-.35.15t-.15.35t.15.35t.35.15"/></svg>