<svg xmlns="http://www.w3.org/2000/svg" viewBox="0 0 24 24" width="24" height="24"><path fill="currentColor" d="M3 21v-9l2.45-7h6.625q-.05.25-.062.488T12 6t.013.513t.062.487H6.85L5.8 10h7.725q.825.925 1.975 1.463T18 12H5v5h14v-5.1q.55-.1 1.05-.275t.95-.45V21h-3v-2H6v2zm14.325-11l-.275-1.175q-.275-.1-.537-.25t-.488-.35l-1.15.375l-.675-1.15l.875-.85q-.05-.3-.05-.6t.05-.6l-.875-.8l.675-1.15L16 3.775q.225-.2.488-.35t.562-.25L17.325 2h1.325l.3 1.15q.3.125.563.275t.487.35l1.125-.325l.675 1.15l-.85.8q.05.3.063.613t-.063.612l.85.8l-.65 1.15l-1.15-.35q-.225.2-.5.35t-.55.25L18.65 10zM18 7.5q.625 0 1.063-.437T19.5 6t-.437-1.062T18 4.5t-1.062.438T16.5 6t.438 1.063T18 7.5M5 12v5zm2.5 4q.625 0 1.063-.437T9 14.5t-.437-1.062T7.5 13t-1.062.438T6 14.5t.438 1.063T7.5 16m9 0q.625 0 1.063-.437T18 14.5t-.437-1.062T16.5 13t-1.062.438T15 14.5t.438 1.063T16.5 16"/></svg>