<svg xmlns="http://www.w3.org/2000/svg" viewBox="0 0 24 24" width="24" height="24"><path fill="currentColor" d="M7.5 18q.625 0 1.063-.437T9 16.5t-.437-1.062T7.5 15t-1.062.438T6 16.5t.438 1.063T7.5 18m0-9q.625 0 1.063-.437T9 7.5t-.437-1.062T7.5 6t-1.062.438T6 7.5t.438 1.063T7.5 9m4.5 4.5q.625 0 1.063-.437T13.5 12t-.437-1.062T12 10.5t-1.062.438T10.5 12t.438 1.063T12 13.5m4.5 4.5q.625 0 1.063-.437T18 16.5t-.437-1.062T16.5 15t-1.062.438T15 16.5t.438 1.063T16.5 18m0-9q.625 0 1.063-.437T18 7.5t-.437-1.062T16.5 6t-1.062.438T15 7.5t.438 1.063T16.5 9M3 21V3h18v18zm2-2h14V5H5zm0 0V5z"/></svg>