<svg xmlns="http://www.w3.org/2000/svg" viewBox="0 0 24 24" width="24" height="24"><path fill="currentColor" d="M14.45 20q-.425 0-.712-.288T13.45 19t.288-.712t.712-.288h2.825l-2.3-1.625q-.35-.25-.412-.638t.162-.737t.625-.413t.75.163l2.325 1.6l-.975-2.65q-.15-.375.025-.75t.575-.525t.775.025t.525.575l.95 2.65l.75-2.725q.125-.4.462-.612t.738-.088t.613.463t.087.737L21.2 20zM3 20V3h16v7.075q-.25-.05-.5-.062T18 10t-.5.013t-.5.062V5H5v10h7.075q-.05.25-.062.5T12 16t.013.5t.062.5H6zM7 9h8V7H7zm0 4h5v-2H7zm-2 2V5z"/></svg>