<svg xmlns="http://www.w3.org/2000/svg" viewBox="0 0 24 24" width="24" height="24"><path fill="currentColor" d="M17 16q-1.25 0-2.125-.875T14 13t.875-2.125T17 10t2.125.875T20 13t-.875 2.125T17 16m0-2q.425 0 .713-.288T18 13t-.288-.712T17 12t-.712.288T16 13t.288.713T17 14m-6 9v-4.275q1.05-.6 2.15-1t2.3-.6L17 19l1.55-1.875q1.2.15 2.3.575t2.15 1V23zm1.975-2h3.075l-1.35-1.65q-.45.125-.875.325t-.85.425zm4.975 0H21v-.9q-.4-.25-.825-.437t-.875-.313zM9 21H3V3h18v7q-.4-.5-.875-.95T19 8.45V5H5v14h4zM7 9h7q.65-.5 1.425-.75T17 8V7H7zm0 4h5q0-.525.112-1.025t.313-.975H7zm0 4h3.15l1.525-.675V15H7zm2 2H5V5h14v3.425q-.45-.2-.962-.312T17 8q-2.075 0-3.537 1.463T12 13q0 .775.213 1.488t.637 1.312L9 17.525zm8-6"/></svg>