<svg xmlns="http://www.w3.org/2000/svg" viewBox="0 0 24 24" width="24" height="24"><path fill="currentColor" d="M12 11q-1.7-1.55-2.775-2.613T7.55 6.55t-.825-1.362T6.5 4q0-1.25.875-2.125T9.525 1q.7 0 1.35.313T12 2.15q.475-.525 1.125-.837T14.475 1q1.275 0 2.15.875T17.5 4q0 .6-.225 1.188T16.45 6.55t-1.675 1.838T12 11m0-2.7q1.8-1.65 2.65-2.687T15.5 4q0-.425-.3-.712T14.475 3q-.3 0-.587.175T13.3 3.7l-1.275 1.475L10.75 3.75q-.35-.4-.638-.575T9.526 3Q9.1 3 8.8 3.288T8.5 4q0 .575.85 1.613T12 8.3M3 22v-3h-.975L1 8h2l.725 8H10v3H9v3H7.5v-3h-3v3zm8 0v-8H5v-2h14v2h-6v8zm4 0v-3h-1v-3h6.3l.725-8H23l-1 11h-1v3h-1.5v-3h-3v3z"/></svg>