<svg xmlns="http://www.w3.org/2000/svg" viewBox="0 0 24 24" width="24" height="24"><path fill="currentColor" d="m3.95 19l-2.175-7.625L4 10.6V4h5V1h6v3h5v6.6l2.225.775L20.05 19q-1.25 0-2.275-.587T16 17q-.75.825-1.775 1.413T12 19t-2.225-.587T8 17q-.75.825-1.775 1.413T3.95 19M2 23v-2h2q1.05 0 2.075-.325T8 19.7q.9.65 1.925.95t2.075.3t2.075-.3T16 19.7q.9.65 1.925.975T20 21h2v2h-2q-1.05 0-2.05-.25T16 22q-.95.5-1.963.75T12 23t-2.037-.25T8 22q-.95.5-1.95.75T4 23zM6 9.95L12 8l6 1.95V6H6zM12 17q1.175 0 1.988-.825T16 13.95q1.2 1.35 1.625 1.85t1.025.85l1.1-4L12 10.1l-7.8 2.55l1.15 3.95q.6-.35 1.025-.8T8 13.95q1.25 1.425 2.038 2.238T12 17"/></svg>