<svg xmlns="http://www.w3.org/2000/svg" viewBox="0 0 24 24" width="24" height="24"><path fill="currentColor" d="M5 21v-3.05q-.45-.5-.725-1.112T4 15.5V6q0-2.075 1.925-3.037T12 2q4.3 0 6.15.925T20 6v9.5q0 .725-.275 1.338T19 17.95V21h-3v-2H8v2zm7.05-16h5.6h-11.2zM16 12H6h12zM6 10h12V7H6zm2.5 6q.625 0 1.063-.437T10 14.5t-.437-1.062T8.5 13t-1.062.438T7 14.5t.438 1.063T8.5 16m7 0q.625 0 1.063-.437T17 14.5t-.437-1.062T15.5 13t-1.062.438T14 14.5t.438 1.063T15.5 16M6.45 5h11.2q-.375-.425-1.612-.712T12.05 4q-2.675 0-3.912.313T6.45 5M8 17h8q.825 0 1.413-.587T18 15v-3H6v3q0 .825.588 1.413T8 17"/></svg>