<svg xmlns="http://www.w3.org/2000/svg" viewBox="0 0 24 24" width="24" height="24"><path fill="currentColor" d="m20.65 9.375l-1.4-1.4L20 7.2L16.8 4l-.775.75L14.6 3.325l2.15-2.2l6.1 6.1zM1.2 16.75l2.15-2.15l1.425 1.425l-.775.75L7.225 20l.75-.775L9.4 20.65L7.25 22.8zM18.575 13L20 11.575L12.425 4L11 5.425zm-7 7L13 18.55L5.45 11L4 12.425zm-.15-5.85l2.75-2.725l-1.6-1.6l-2.725 2.75zm4.425 4.4l-4.275 4.275l-10.4-10.4L5.45 8.15l2.975 3l2.75-2.75l-3-2.975l4.25-4.25l10.4 10.4l-4.25 4.25l-2.975-3l-2.75 2.75z"/></svg>