<svg xmlns="http://www.w3.org/2000/svg" viewBox="0 0 24 24" width="24" height="24"><path fill="currentColor" d="M8.8 21H3v-5.8q1.2 0 2.1-.762T6 12.5t-.9-1.937T3 9.8V4h6q0-1.05.725-1.775T11.5 1.5t1.775.725T14 4h6v6q1.05 0 1.775.725T22.5 12.5t-.725 1.775T20 15v6h-5.8q0-1.25-.787-2.125T11.5 18t-1.912.875T8.8 21M5 19h2.125q.6-1.65 1.925-2.325T11.5 16t2.45.675T15.875 19H18v-6h2q.2 0 .35-.15t.15-.35t-.15-.35T20 12h-2V6h-6V4q0-.2-.15-.35t-.35-.15t-.35.15T11 4v2H5v2.2q1.35.5 2.175 1.675T8 12.5q0 1.425-.825 2.6T5 16.8zm6.5-6.5"/></svg>