<svg xmlns="http://www.w3.org/2000/svg" viewBox="0 0 24 24" width="24" height="24"><path fill="currentColor" d="M12 18q3.35 0 5.675-2.337T20 10q0-.775-.125-1.487t-.4-1.388q-.675.425-1.425.65T16.5 8q-1.35 0-2.537-.612T12 5.65q-.775 1.125-1.963 1.738T7.5 8q-.8 0-1.55-.225t-1.425-.65q-.275.675-.4 1.388T4 10q0 3.325 2.338 5.663T12 18m-3-5.75q.525 0 .888-.363T10.25 11t-.363-.888T9 9.75t-.888.363T7.75 11t.363.888t.887.362m6 0q.525 0 .888-.363T16.25 11t-.363-.888T15 9.75t-.888.363t-.362.887t.363.888t.887.362M7.5 6q1.45 0 2.475-1.025T11 2.5v-.45q-1.7.2-3.125 1.075T5.5 5.35q.45.3.95.475T7.5 6m9 0q.55 0 1.05-.163t.95-.487Q17.55 4 16.137 3.125T13 2.05v.45q0 1.45 1.025 2.475T16.5 6M0 22L1.1 9.95q.2-2.1 1.138-3.925t2.4-3.163t3.35-2.1T12 0t4.013.763t3.35 2.1t2.4 3.162T22.9 9.95L24 22zm12-2q-3.125 0-5.625-1.737T2.75 13.8L2.2 20h19.6l-.55-6.2q-1.125 2.725-3.613 4.463T12 20m0 0h9.8H2.2z"/></svg>