<svg xmlns="http://www.w3.org/2000/svg" viewBox="0 0 24 24" width="24" height="24"><path fill="currentColor" d="M12 16q1.2 0 2.138-.712T15.5 13.45h-7q.425 1.125 1.363 1.838T12 16m-2.5-4q.625 0 1.063-.437T11 10.5t-.437-1.062T9.5 9t-1.062.438T8 10.5t.438 1.063T9.5 12m5 0q.625 0 1.063-.437T16 10.5t-.437-1.062T14.5 9t-1.062.438T13 10.5t.438 1.063T14.5 12M7.625 6.4L12 .725L16.375 6.4l6.85 2.3l-4.325 6.125l.175 6.825L12 19.675L4.925 21.65L5.1 14.8L.8 8.7zM8.85 8.125L4 9.725L7.1 14.2L7 18.975l5-1.375l5 1.4l-.1-4.8L20 9.775l-4.85-1.65L12 4zM12 11.5"/></svg>