<svg xmlns="http://www.w3.org/2000/svg" viewBox="0 0 24 24" width="24" height="24"><path fill="currentColor" d="M9.5 14h4q.425 0 .713-.288q.287-.287.287-.712v-.75l2 1.25v-5l-2 1.25V9q0-.425-.287-.713Q13.925 8 13.5 8h-4q-.425 0-.712.287Q8.5 8.575 8.5 9v4q0 .425.288.712q.287.288.712.288Zm2.5 9v-3.5q-1.825 0-3.462-.688q-1.638-.687-2.863-1.85q-1.225-1.162-1.95-2.7Q3 12.725 3 11q0-1.875.712-3.513q.713-1.637 1.926-2.862Q6.85 3.4 8.488 2.7Q10.125 2 12 2t3.513.7q1.637.7 2.862 1.925T20.3 7.487Q21 9.125 21 11q0 3.525-2.35 6.663Q16.3 20.8 12 23Zm2-3.6q2.4-1.8 3.7-3.987Q19 13.225 19 11q0-2.9-2.05-4.95Q14.9 4 12 4Q9.1 4 7.05 6.05Q5 8.1 5 11q0 2.6 2.1 4.55Q9.2 17.5 12 17.5h2Zm-2-7.7Z"/></svg>