<svg xmlns="http://www.w3.org/2000/svg" viewBox="0 0 24 24" width="24" height="24"><path fill="currentColor" d="M3 21V3h18v7.65q-.475-.225-.975-.363T19 10.076V5H5v9h4.2q.225.675.75 1.175t1.175.7q-.075.5-.1 1.013t.05 1.012q-.9-.175-1.687-.663T8 16H5v3h6.325q.175.55.4 1.05t.55.95zm2-2h6.325zM7 8.75h10v-2H7zm0 3.5h5.925q.675-.725 1.513-1.225t1.812-.775H7zM20 22q-.825 0-1.412-.587T18 19.975l-2.025-1.225q-.225.125-.462.188T15 19q-.825 0-1.412-.587T13 17t.588-1.412T15 15q.275 0 .513.063t.462.187L18 14.05q0-.85.588-1.437T20 12.025t1.413.588t.587 1.412t-.587 1.413t-1.413.587q-.275 0-.513-.062t-.462-.188L17 16.975v.075l2.025 1.2q.225-.125.463-.187T20 18q.825 0 1.413.588T22 20t-.587 1.413T20 22"/></svg>