<svg xmlns="http://www.w3.org/2000/svg" viewBox="0 0 24 24" width="24" height="24"><path fill="currentColor" d="m7 8.5l2-2l-2-2l-2 2zM2 14V1h20v13h-5.225q.15-.5.2-1t0-1H20V3H4v9h3.025q-.05.5 0 1t.2 1zm14.5-7q.625 0 1.063-.437T18 5.5t-.437-1.062T16.5 4t-1.062.438T15 5.5t.438 1.063T16.5 7M5 23v-2.1q0-.875.488-1.625t1.287-1.125q1.225-.575 2.55-.862T12 17t2.675.288t2.55.862q.8.375 1.288 1.125T19 20.9V23zm2-2h10v-.1q0-.3-.175-.55t-.45-.375q-1.05-.475-2.15-.725T12 19t-2.225.25t-2.15.725q-.275.125-.45.375T7 20.9zm5-5q-1.45 0-2.475-1.025T8.5 12.5t1.025-2.475T12 9t2.475 1.025T15.5 12.5t-1.025 2.475T12 16m0-2q.625 0 1.063-.437T13.5 12.5t-.437-1.062T12 11t-1.062.438T10.5 12.5t.438 1.063T12 14m0 7"/></svg>