<svg xmlns="http://www.w3.org/2000/svg" viewBox="0 0 24 24" width="24" height="24"><path fill="currentColor" d="m12 23l-3-3H3V2h18v18h-6zm-7-5h4.8l2.2 2.2l2.2-2.2H19V4H5zm6.9-1q.525 0 .888-.363t.362-.887t-.363-.888t-.887-.362t-.888.363t-.362.887t.363.888t.887.362m-.9-3.85h1.85q0-.425.038-.725t.162-.575t.312-.512t.538-.588q.875-.875 1.238-1.463T15.5 7.95q0-1.325-.9-2.137T12.175 5q-1.375 0-2.337.675T8.5 7.55l1.65.65q.175-.675.7-1.087t1.225-.413q.675 0 1.125.363t.45.962q0 .425-.275.9t-.925 1.05q-.425.35-.688.688t-.437.712t-.25.788t-.075.987"/></svg>