<svg xmlns="http://www.w3.org/2000/svg" viewBox="0 0 24 24" width="24" height="24"><path fill="currentColor" d="M16 10V6.85zM3 21.225V5.05L9 3l6 2.1l6-2.325v9.9q-.375-.575-.888-1.05T19 10.8V5.7l-3 1.15V10q-.525 0-1.025.088T14 10.35v-3.5l-4-1.4v13.075zM5 18.3l3-1.15V5.45l-3 1zm11-.3q.85 0 1.413-.5T18 16q.025-.85-.562-1.425T16 14t-1.425.575T14 16t.575 1.425T16 18m0 2q-1.65 0-2.825-1.175T12 16t1.175-2.825T16 12t2.825 1.175T20 16q0 .575-.137 1.088t-.413.962L22 20.6L20.6 22l-2.55-2.55q-.45.275-.962.413T16 20M8 5.45v11.7z"/></svg>