<svg xmlns="http://www.w3.org/2000/svg" viewBox="0 0 24 24" width="24" height="24"><path fill="currentColor" d="M11 16h2l.15-1.25q.2-.075.35-.162t.3-.238l1.15.5l1-1.75l-1-.75q.05-.2.05-.375t-.05-.375l1-.75l-1.05-1.7l-1.1.45q-.15-.125-.3-.2t-.35-.15L13 8h-2l-.15 1.25q-.2.075-.35.15t-.3.2l-1.1-.45l-1.05 1.7l1 .75q-.05.2-.05.375t.05.375l-1 .75l1 1.75l1.15-.5q.15.15.3.237t.35.163zm1-2.5q-.65 0-1.075-.425T10.5 12t.425-1.075T12 10.5t1.075.425T13.5 12t-.425 1.075T12 13.5M5 23V1h14v5.1h1v4.8h-1V23zm2-2h10V3H7zm0 0V3z"/></svg>