<svg xmlns="http://www.w3.org/2000/svg" viewBox="0 0 24 24" width="24" height="24"><path fill="currentColor" d="m21.825 10.5l-6.375 6.375l-1.425-1.4L20.4 9.1q.3-.3.45-.663t.15-.762q0-.375-.15-.75t-.45-.675l-3.225-3.225H13.1l2.225 1.225L8.4 11.225L6.975 9.8l5.075-5.075L9.5 3.3V1h8.475l3.85 3.85q.575.575.863 1.313t.287 1.512Q23 8.45 22.7 9.188t-.875 1.312M14.75 9.075l-5.675 5.65L7.65 13.35l5.675-5.675zm2.125 2.125l-4.95 4.95l-1.4-1.425l4.925-4.95zm-4.55 6.9l1.975.275l-.725 4.925L.7 21.375L3.65 1.6l3.675.55l-.3 1.975l-1.7-.25L3 19.7l8.9 1.3zM17.55 23l-1.05-1.05L19.425 19H17v-1.5h5v5h-1.5v-2.425z"/></svg>