<svg xmlns="http://www.w3.org/2000/svg" viewBox="0 0 24 24" width="24" height="24"><path fill="currentColor" d="M16.95 14.125L15.4 12.6q.05-.15.075-.3t.025-.3q0-.4-.163-.763t-.462-.637l1.45-1.45q.575.575.875 1.313T17.5 12q0 .55-.137 1.075t-.413 1.05m2.475 2.45L18 15.15q.5-.675.75-1.475T19 12q0-1.125-.425-2.125t-1.2-1.775l1.4-1.4q1.075 1.05 1.65 2.425T21 12q0 1.275-.4 2.437t-1.175 2.138M20.5 23.3L.7 3.5l1.4-1.4l19.8 19.8zM5 1h14v4h-2V3H5zm7 5q.425 0 .713-.288T13 5t-.288-.712T12 4t-.712.288T11 5t.288.713T12 6M5 23V5l2 2v14h10v-4l2 2v4zm7.75-13.1"/></svg>