<svg xmlns="http://www.w3.org/2000/svg" viewBox="0 0 24 24" width="24" height="24"><path fill="currentColor" d="M4.4 16.1q0 .975.5 1.888t1.625 2.037L5.075 21.4Q3.65 20 3.025 18.75T2.4 16.125q0-1.025.288-2.137T3.6 11.4q.575-1.35.8-2.162T4.625 7.7q0-.9-.537-1.737T2.35 4.075L3.7 2.6q1.525 1.3 2.225 2.525t.7 2.575q0 .95-.275 2.013t-.875 2.462q-.575 1.35-.825 2.238T4.4 16.1m4-.025q0 .975.5 1.9t1.625 2.05L9.075 21.4Q7.65 20 7.025 18.75T6.4 16.125q0-1.025.287-2.137T7.6 11.4q.575-1.35.8-2.162T8.625 7.7q0-.9-.537-1.737T6.35 4.075L7.7 2.6q1.525 1.3 2.225 2.525t.7 2.575q0 .95-.275 2t-.875 2.45Q8.9 13.5 8.65 14.387t-.25 1.688M12 22V2h2v4.15l3.25-3.225l1.4 1.425L14 9v2h2l4.65-4.65l1.4 1.4l-3.2 3.25H23v2h-4.15l3.225 3.225l-1.425 1.425L16 13h-2v2l4.65 4.65l-1.4 1.4l-3.25-3.2V22z"/></svg>