<svg xmlns="http://www.w3.org/2000/svg" viewBox="0 0 24 24" width="24" height="24"><path fill="currentColor" d="M1 21V8.725Q.55 8.45.275 8.013T0 7t.6-1.4T2 4q.8.775 1.4 1.6T4 7t-.275 1.013T3 8.724V13h2V9.05h1.55q-.275-.425-.413-.925T6 7.1q0-1 .475-1.85t1.275-1.4L12 1l4.25 2.85q.8.55 1.275 1.4T18 7.1q0 .525-.137 1.025t-.413.925H19V13h2V8.725q-.45-.275-.725-.712T20 7t.6-1.4T22 4q.8.775 1.4 1.6T24 7t-.275 1.013t-.725.712V21H13v-5h-2v5zM9.9 9h4.2q.8 0 1.35-.55T16 7.1q0-.5-.225-.913T15.15 5.5L12 3.4L8.85 5.5q-.4.275-.625.688T8 7.1q0 .8.55 1.35T9.9 9M3 19h6v-5h6v5h6v-4h-4v-4H7v4H3zm9-9.95"/></svg>