<svg xmlns="http://www.w3.org/2000/svg" viewBox="0 0 24 24" width="24" height="24"><path fill="currentColor" d="M4.5 11q-.65 0-1.075-.425T3 9.5t.425-1.075T4.5 8t1.075.425T6 9.5t-.425 1.075T4.5 11M3 22v-5H2v-5h5v5H6v3h8v-5h-1.75q-1.775 0-3.012-1.237T8 10.75q0-1.325.713-2.363T10.55 6.85q.275-1.625 1.513-2.737T15 3t2.938 1.113T19.45 6.85q1.125.5 1.838 1.538T22 10.75q0 1.775-1.237 3.013T17.75 15H16v5h5v2zm9.25-9h5.5q.95 0 1.6-.65t.65-1.6q0-.675-.363-1.225T18.65 8.7l-1.05-.45l-.15-1.1q-.15-.925-.837-1.537T15 5t-1.612.613t-.838 1.537l-.15 1.1l-1.05.45q-.625.275-.987.825T10 10.75q0 .95.65 1.6t1.6.65M15 9"/></svg>