<svg xmlns="http://www.w3.org/2000/svg" viewBox="0 0 24 24" width="24" height="24"><path fill="currentColor" d="M12.8 20.025q-.35 0-.65-.125q-.3-.125-.575-.35L7.35 16.025q-.65-.55-1.125-1.225t-.775-1.425q-.275.275-.65.45T4 14H2V6h2q.725 0 1.288.463q.562.462.687 1.162Q7.05 6 8.575 5.25Q10.1 4.5 11.65 4.5q1.175 0 2.15.4q.975.4 1.85 1.125L19.9 9.55q.325.275.525.675t.2.825q0 .325-.1.65t-.375.65l-5.75 6.925q-.3.35-.75.55q-.45.2-.85.2ZM7 10.975q-.025.975.4 1.9q.425.925 1.225 1.6L12.85 18l5.75-6.925l-4.225-3.525q-.6-.5-1.325-.763q-.725-.262-1.5-.262q-1.875-.025-3.2 1.287Q7.025 9.125 7 10.975Zm5.8 1.275Z"/></svg>