<svg xmlns="http://www.w3.org/2000/svg" viewBox="0 0 24 24" width="24" height="24"><path fill="currentColor" d="M20.45 18h-4.9l.5 2h3.9zM9.5 8q-1.25 0-2.125-.875T6.5 5t.875-2.125T9.5 2t2.125.875T12.5 5t-.875 2.125T9.5 8m0-2q.425 0 .713-.288T10.5 5t-.288-.712T9.5 4t-.712.288T8.5 5t.288.713T9.5 6M5 12.65v6.575q.5-.5 1.85-.862T9.5 18q1.175 0 2.4.3t1.85.725L13 16h10l-1 4h1v2H1v-2h2v-7.375q0-.875.713-1.625t2.062-1.25q.8-.325 1.825-.537T9.5 9q.85 0 1.913.225t1.937.575q1.275.5 1.963 1.237T16 12.625V14h-2v-1.375q-.05-.2-.437-.462t-.938-.513q-.725-.3-1.525-.475T9.5 11t-1.6.175t-1.525.475q-.55.25-.937.525T5 12.65M9.5 17q1.05 0 1.775-.725T12 14.5t-.725-1.775T9.5 12t-1.775.725T7 14.5t.725 1.775T9.5 17m8.5 3"/></svg>