<svg xmlns="http://www.w3.org/2000/svg" viewBox="0 0 24 24" width="24" height="24"><path fill="currentColor" d="M4 20v-2.8q0-.85.438-1.562T5.6 14.55q1.55-.775 3.15-1.162T12 13q.925 0 1.825.113t1.8.362l-1.675 1.7q-.5-.075-.975-.125T12 15q-1.4 0-2.775.338T6.5 16.35q-.225.125-.363.35T6 17.2v.8h6v2zm10 1v-3.075l6.575-6.55l3.075 3.05L17.075 21zm7.5-6.575l-.925-.925zm-6 5.075h.95l3.025-3.05l-.45-.475l-.475-.45l-3.05 3.025zm3.525-3.525l-.475-.45l.925.925zM12 12q-1.65 0-2.825-1.175T8 8t1.175-2.825T12 4t2.825 1.175T16 8t-1.175 2.825T12 12m0-2q.825 0 1.413-.587T14 8t-.587-1.412T12 6t-1.412.588T10 8t.588 1.413T12 10m0-2"/></svg>