<svg xmlns="http://www.w3.org/2000/svg" viewBox="0 0 24 24" width="24" height="24"><path fill="currentColor" d="M14.525 14q1.7 0 2.888-1.175T18.725 10q-1.7 0-2.912 1.175T14.525 14m0 0q-.075-1.65-1.287-2.825T10.325 10q.125 1.65 1.313 2.825T14.525 14m0-3q.425 0 .713-.288t.287-.712v-.25l.25.1q.375.15.763.075t.587-.425q.225-.375.15-.8t-.5-.6l-.25-.1l.25-.1q.425-.175.488-.613t-.138-.787q-.225-.375-.6-.437t-.75.087l-.25.1V6q0-.425-.288-.712T14.526 5t-.712.288t-.288.712v.25l-.25-.1q-.375-.15-.75-.088t-.6.438q-.2.35-.137.788t.487.612l.25.1l-.25.1q-.425.175-.5.6t.15.8q.2.35.588.425t.762-.075l.25-.1V10q0 .425.288.713t.712.287m0-2q-.425 0-.712-.288T13.525 8t.288-.712t.712-.288t.713.288t.287.712t-.288.713t-.712.287m-1.7 10h5.425l.175 1.325l-14.725 1.8L1.85 7.2L5 6.85v2l-.9.125L5.45 19.9zM7 17V2h15v15zm2-2h11V4H9zm5.5-5.5"/></svg>