<svg xmlns="http://www.w3.org/2000/svg" viewBox="0 0 24 24" width="24" height="24"><path fill="currentColor" d="M4 16V1h9v4.5q0 .675.413 1.225t1.062.725L20 8.975V16zm2-2h12v-3.475l-4.1-1.15q-.9-.25-1.575-.888T11.3 7H9V6h2.1q-.05-.3-.062-.5T11 5H9V4h2V3H6zm-1 9q-1.25 0-2.125-.875T2 20t.875-2.125T5 17t2.125.875T8 20t-.875 2.125T5 23m0-2q.425 0 .713-.288T6 20t-.288-.712T5 19t-.712.288T4 20t.288.713T5 21m14 2q-1.25 0-2.125-.875T16 20t.875-2.125T19 17t2.125.875T22 20t-.875 2.125T19 23m0-2q.425 0 .713-.288T20 20t-.288-.712T19 19t-.712.288T18 20t.288.713T19 21m-7 2q-1.25 0-2.125-.875T9 20t.875-2.125T12 17t2.125.875T15 20t-.875 2.125T12 23m0-2q.425 0 .713-.288T13 20t-.288-.712T12 19t-.712.288T11 20t.288.713T12 21m7-1"/></svg>