<svg xmlns="http://www.w3.org/2000/svg" viewBox="0 0 24 24" width="24" height="24"><path fill="currentColor" d="M14.25 8.25L12.8 6.8q.65-.6 1.45-.95T16 5.5t1.75.35t1.45.95l-1.45 1.45q-.35-.35-.788-.55T16 7.5t-.963.2t-.787.55m-2.5-2.5l-1.4-1.4q1.1-1.1 2.55-1.725T16 2t3.1.625t2.55 1.725l-1.4 1.4q-.825-.825-1.912-1.287T16 4t-2.337.463T11.75 5.75M21 18.15l-6-6V9h2v4h4zM5 19h11.15l-4-4H5zm14.775 3.625L18.15 21H3v-8h7.15L1.375 4.225L2.8 2.8l18.4 18.4zM5 19v-4zm1-1v-2h2v2zm3.5 0v-2h2v2zm3.5 0v-2h2v2z"/></svg>