<svg xmlns="http://www.w3.org/2000/svg" viewBox="0 0 24 24" width="24" height="24"><path fill="currentColor" d="M13 22.95q-2.475 0-4.663-.95t-3.812-2.575t-2.575-3.812T1 10.95h2q0 1.8.613 3.425T5.3 17.3t2.55 2.213t3.175 1.262L8.4 18.15l1.4-1.4l5.9 5.9q-.675.15-1.325.225T13 22.95M15 9V4h1V3q0-.825.588-1.412T18 1t1.413.588T20 3v1h1v5zm2-5h2V3q0-.425-.288-.712T18 2t-.712.288T17 3zm.95 7.65l1.4-1.4l2.45 2.45l-7.05 7.05L4.2 9.2l7.05-7.05L13.7 4.6l-1.35 1.45l-1.1-1.1L7 9.2l7.75 7.75L19 12.7zm-4.95-.7"/></svg>