<svg xmlns="http://www.w3.org/2000/svg" viewBox="0 0 24 24" width="24" height="24"><path fill="currentColor" d="M5 20h5.675zm-2 2V2h13v8.075q-.5.075-1 .225t-1 .375V4H5v6h9v.675q-.55.275-1.025.6T12.1 12H5v8h5.675q.275.6.638 1.1t.787.9zM9.5 9q-.825 0-1.412-.587T7.5 7t.588-1.412T9.5 5t1.413.588T11.5 7t-.587 1.413T9.5 9m-1 10h1.775q-.125-.5-.2-1T10 17q0-.65.125-1.3t.375-1.3V13h-2v2h-2v2h2zm8.5 3q-2.075 0-3.537-1.463T12 17t1.463-3.537T17 12t3.538 1.463T22 17t-1.463 3.538T17 22m1.675-2.625l.7-.7L17.5 16.8V14h-1v3.2z"/></svg>