<svg xmlns="http://www.w3.org/2000/svg" viewBox="0 0 24 24" width="24" height="24"><path fill="currentColor" d="M15.125 5.775L13.6 1.4l1.9-.65l2.55 7.2l2.9-2.525l2.125 1.45l-2.3 7.1q-.15.5-.5.875t-.775.65v-3.2q0-.175-.012-.337t-.038-.338l1-3.125l-1.625 1.425q-.125-.175-.25-.337t-.25-.313zM9.85 4.3L8.625 2.175L10.35 1.15l1.375 2.375zM9 7.95L7.325 7.6l-1.7-2.45L7.275 4L8.75 6.175zm6.5 13.35L4.15 23.175L3.825 21.2l11.325-1.875q.35-.05.6-.337t.25-.663v-6.4L12.4 7.95l.85 4.325l-10.425-1.95l.35-1.975l7.55 1.4l-.625-3.8l2.35-.925l4.775 5.275q.375.425.575.925T18 12.3v6.05q0 1.125-.7 1.938T15.5 21.3M9 18.5l-6.925.575l-.15-2L9 16.5zm0-3.525l-8.025-.25l.05-2l7.975.25zm3.5.15"/></svg>