<svg xmlns="http://www.w3.org/2000/svg" viewBox="0 0 24 24" width="24" height="24"><path fill="currentColor" d="M18 23q-2.075 0-3.537-1.463T13 18t1.463-3.537T18 13t3.538 1.463T23 18t-1.463 3.538T18 23m0-2q.275 0 .45-.175t.175-.45t-.175-.45t-.45-.175t-.45.175t-.175.45t.175.45T18 21m-.45-1.9h.925v-.25q0-.275.138-.488t.337-.412q.35-.3.55-.575t.2-.775q0-.725-.475-1.162T18 15q-.575 0-1.037.338t-.663.912l.8.35q.075-.3.313-.525T18 15.85q.375 0 .588.188t.212.562q0 .275-.15.463t-.35.387q-.15.15-.312.3t-.288.35q-.075.15-.112.3t-.038.35zM8 13h2v-3q0-.825.588-1.412T12 8V6q-1.65 0-2.825 1.175T8 10zm-6 8v-6h3v-5q0-2.925 2.038-4.962T12 3t4.963 2.038T19 10v1.075q-.25-.05-.488-.062T18 11t-.513.013t-.487.062V10q0-2.075-1.463-3.537T12 5T8.463 6.463T7 10v5h4.675q-.225.475-.375.975T11.075 17H4v2h7.075q.075.525.225 1.025t.375.975z"/></svg>