<svg xmlns="http://www.w3.org/2000/svg" viewBox="0 0 24 24" width="24" height="24"><path fill="currentColor" d="M4 18V6zm4-6v-2H6v2zm2.7 0q.275-.575.638-1.075T12.15 10H10v2zm-.6 4q-.05-.25-.062-.488T10.025 15t.013-.513T10.1 14H6v2zm2.025 4H2V4h20v6.15q-.425-.45-.925-.812T20 8.7V6H4v12h6.7q.275.575.625 1.075t.8.925M18 20h-2l-.3-1.5q-.3-.125-.562-.262T14.6 17.9l-1.45.45l-1-1.7l1.15-1q-.05-.325-.05-.65t.05-.65l-1.15-1l1-1.7l1.45.45q.275-.2.538-.337t.562-.263L16 10h2l.3 1.5q.3.125.575.288t.525.362l1.45-.5l1 1.75l-1.15 1q.05.325.05.625t-.05.625l1.15 1l-1 1.7l-1.45-.45q-.275.2-.537.338t-.563.262zm-1-3q.825 0 1.413-.587T19 15t-.587-1.412T17 13t-1.412.588T15 15t.588 1.413T17 17"/></svg>