<svg xmlns="http://www.w3.org/2000/svg" viewBox="0 0 24 24" width="24" height="24"><path fill="currentColor" d="M5 4v16zv5zm2 10h3.675q.275-.55.638-1.062T12.1 12H7zm0 4h3.05q-.05-.5-.05-1t.05-1H7zm-4 4V2h10l6 6v2.3q-.5-.125-1-.213T17 10V9h-5V4H5v16h5.675q.275.575.638 1.075T12.1 22zm14-10q2.075 0 3.538 1.463T22 17t-1.463 3.538T17 22t-3.537-1.463T12 17t1.463-3.537T17 12m0 8q.275 0 .463-.187t.187-.463t-.187-.462T17 18.7t-.462.188t-.188.462t.188.463T17 20m-.45-1.9h.9v-.25q0-.275.15-.488t.35-.412q.35-.3.55-.575t.2-.775q0-.725-.475-1.162T17 14q-.575 0-1.037.338t-.663.912l.8.35q.075-.3.313-.525T17 14.85q.375 0 .588.188t.212.562q0 .275-.15.463t-.35.387q-.15.15-.312.3t-.288.35q-.075.15-.112.3t-.038.35z"/></svg>