<svg xmlns="http://www.w3.org/2000/svg" viewBox="0 0 24 24" width="24" height="24"><path fill="currentColor" d="M8.75 18q1.15 0 1.95-.8t.8-1.95t-.8-1.95t-1.95-.8t-1.95.8t-.8 1.95t.8 1.95t1.95.8m6.5 0q1.15 0 1.95-.8t.8-1.95t-.8-1.95t-1.95-.8t-1.95.8t-.8 1.95t.8 1.95t1.95.8m-6.5-2q-.3 0-.525-.225T8 15.25t.225-.525t.525-.225t.525.225t.225.525t-.225.525T8.75 16m6.5 0q-.3 0-.525-.225t-.225-.525t.225-.525t.525-.225t.525.225t.225.525t-.225.525t-.525.225M8.5 11h7q1.05 0 1.775-.725T18 8.5t-.725-1.775T15.5 6h-7q-1.05 0-1.775.725T6 8.5t.725 1.775T8.5 11m0-2q-.2 0-.35-.15T8 8.5t.15-.35T8.5 8h7q.2 0 .35.15t.15.35t-.15.35t-.35.15zM3 21V3h18v18zm2-2h14V5H5zm0 0V5z"/></svg>