<svg xmlns="http://www.w3.org/2000/svg" viewBox="0 0 24 24" width="24" height="24"><path fill="currentColor" d="M10 23v-2h2v-5.2q-.3-.125-.562-.288t-.488-.362L8.05 17L1 15v-4h9.8q.25-.275.55-.475T12 10.2V5.9L17.325.925l3.4 2.125l-5.125 8.475q.175.3.263.65t.112.725l3.525.85l3.55 6.35l-2.825 2.825l-6.225-6.2V21h2v2zM4 5V3h6v2zm10 1.775V10.2q.025 0 .038.013t.037.012l3.95-6.55l-.45-.25zM1 9V7h5v2zm12 5q.425 0 .713-.288T14 13t-.288-.712T13 12t-.712.288T12 13t.288.713T13 14m-5.275.85l2.325-1.4q-.025-.125-.025-.225V13H3v.5zm10.475.625l-2.85-.65q-.05.05-.1.125t-.1.125l5.075 5.05l.375-.375zM3 21v-2h5v2zm12.15-5.925"/></svg>