<?xml version="1.0" encoding="UTF-8" standalone="no"?>
<svg
   height="24"
   viewBox="0 0 24 24"
   width="24"
   version="1.1"
   id="svg4"
   sodipodi:docname="ar-on-you-sharp-filled.svg"
   inkscape:version="1.2.1 (9c6d41e410, 2022-07-14)"
   xmlns:inkscape="http://www.inkscape.org/namespaces/inkscape"
   xmlns:sodipodi="http://sodipodi.sourceforge.net/DTD/sodipodi-0.dtd"
   xmlns="http://www.w3.org/2000/svg"
   xmlns:svg="http://www.w3.org/2000/svg">
  <defs
     id="defs8" />
  <sodipodi:namedview
     id="namedview6"
     pagecolor="#ffffff"
     bordercolor="#000000"
     borderopacity="0.25"
     inkscape:showpageshadow="2"
     inkscape:pageopacity="0.0"
     inkscape:pagecheckerboard="0"
     inkscape:deskcolor="#d1d1d1"
     showgrid="false"
     inkscape:zoom="9.8333333"
     inkscape:cx="12"
     inkscape:cy="12"
     inkscape:window-width="3840"
     inkscape:window-height="2454"
     inkscape:window-x="-11"
     inkscape:window-y="-11"
     inkscape:window-maximized="1"
     inkscape:current-layer="svg4" />
  <path
     d="M 12,4 Q 15.35,4 17.675,6.325 20,8.65 20,12 20,15.35 17.675,17.675 15.35,20 12,20 8.65,20 6.325,17.675 4,15.35 4,12 4,8.65 6.325,6.325 8.65,4 12,4 Z m 0,11.5 q 1.2,0 2.15,-0.6875 Q 15.1,14.125 15.5,13 h -7 Q 8.9,14.125 9.85,14.8125 10.8,15.5 12,15.5 Z M 8.5,10 q 0,0.425 0.2875,0.7125 Q 9.075,11 9.5,11 9.925,11 10.2125,10.7125 10.5,10.425 10.5,10 10.5,9.575 10.2125,9.2875 9.925,9 9.5,9 9.075,9 8.7875,9.2875 8.5,9.575 8.5,10 Z m 5,0 q 0,0.425 0.2875,0.7125 Q 14.075,11 14.5,11 14.925,11 15.2125,10.7125 15.5,10.425 15.5,10 15.5,9.575 15.2125,9.2875 14.925,9 14.5,9 14.075,9 13.7875,9.2875 13.5,9.575 13.5,10 Z M 1,6 V 1 H 6 V 3 H 3 v 3 z m 0,17 v -5 h 2 v 3 h 3 v 2 z m 17,0 v -2 h 3 v -3 h 2 v 5 z M 21,6 V 3 H 18 V 1 h 5 v 5 z"
     id="path2"
     style="stroke-width:0.025" />
</svg>
