<svg height="24" viewBox="0 0 24 24" width="24" xmlns="http://www.w3.org/2000/svg"><path d="M 3,14.5 Q 2.8,14.5 2.65,14.35 2.5,14.2 2.5,14 2.5,13.8 2.65,13.65 2.8,13.5 3,13.5 3.2,13.5 3.35,13.65 3.5,13.8 3.5,14 3.5,14.2 3.35,14.35 3.2,14.5 3,14.5 Z m 0,-4 Q 2.8,10.5 2.65,10.35 2.5,10.2 2.5,10 2.5,9.8 2.65,9.65 2.8,9.5 3,9.5 3.2,9.5 3.35,9.65 3.5,9.8 3.5,10 3.5,10.2 3.35,10.35 3.2,10.5 3,10.5 Z m 3,8.25 Q 5.675,18.75 5.4625,18.5375 5.25,18.325 5.25,18 5.25,17.675 5.4625,17.4625 5.675,17.25 6,17.25 q 0.325,0 0.5375,0.2125 Q 6.75,17.675 6.75,18 6.75,18.325 6.5375,18.5375 6.325,18.75 6,18.75 Z m 0,-4 Q 5.675,14.75 5.4625,14.5375 5.25,14.325 5.25,14 5.25,13.675 5.4625,13.4625 5.675,13.25 6,13.25 q 0.325,0 0.5375,0.2125 Q 6.75,13.675 6.75,14 6.75,14.325 6.5375,14.5375 6.325,14.75 6,14.75 Z m 0,-4 Q 5.675,10.75 5.4625,10.5375 5.25,10.325 5.25,10 5.25,9.675 5.4625,9.4625 5.675,9.25 6,9.25 6.325,9.25 6.5375,9.4625 6.75,9.675 6.75,10 6.75,10.325 6.5375,10.5375 6.325,10.75 6,10.75 Z m 0,-4 Q 5.675,6.75 5.4625,6.5375 5.25,6.325 5.25,6 5.25,5.675 5.4625,5.4625 5.675,5.25 6,5.25 6.325,5.25 6.5375,5.4625 6.75,5.675 6.75,6 6.75,6.325 6.5375,6.5375 6.325,6.75 6,6.75 Z m 4,12 Q 9.675,18.75 9.4625,18.5375 9.25,18.325 9.25,18 9.25,17.675 9.4625,17.4625 9.675,17.25 10,17.25 q 0.325,0 0.5375,0.2125 Q 10.75,17.675 10.75,18 q 0,0.325 -0.2125,0.5375 Q 10.325,18.75 10,18.75 Z m 0,-12 Q 9.675,6.75 9.4625,6.5375 9.25,6.325 9.25,6 9.25,5.675 9.4625,5.4625 9.675,5.25 10,5.25 q 0.325,0 0.5375,0.2125 Q 10.75,5.675 10.75,6 10.75,6.325 10.5375,6.5375 10.325,6.75 10,6.75 Z M 10,21.5 Q 9.8,21.5 9.65,21.35 9.5,21.2 9.5,21 9.5,20.8 9.65,20.65 9.8,20.5 10,20.5 q 0.2,0 0.35,0.15 0.15,0.15 0.15,0.35 0,0.2 -0.15,0.35 Q 10.2,21.5 10,21.5 Z m 0,-18 Q 9.8,3.5 9.65,3.35 9.5,3.2 9.5,3 9.5,2.8 9.65,2.65 9.8,2.5 10,2.5 10.2,2.5 10.35,2.65 10.5,2.8 10.5,3 10.5,3.2 10.35,3.35 10.2,3.5 10,3.5 Z m 4,15.25 q -0.325,0 -0.5375,-0.2125 Q 13.25,18.325 13.25,18 q 0,-0.325 0.2125,-0.5375 Q 13.675,17.25 14,17.25 q 0.325,0 0.5375,0.2125 Q 14.75,17.675 14.75,18 q 0,0.325 -0.2125,0.5375 Q 14.325,18.75 14,18.75 Z m 0,-12 Q 13.675,6.75 13.4625,6.5375 13.25,6.325 13.25,6 13.25,5.675 13.4625,5.4625 13.675,5.25 14,5.25 q 0.325,0 0.5375,0.2125 Q 14.75,5.675 14.75,6 14.75,6.325 14.5375,6.5375 14.325,6.75 14,6.75 Z m 0,14.75 q -0.2,0 -0.35,-0.15 Q 13.5,21.2 13.5,21 q 0,-0.2 0.15,-0.35 0.15,-0.15 0.35,-0.15 0.2,0 0.35,0.15 0.15,0.15 0.15,0.35 0,0.2 -0.15,0.35 Q 14.2,21.5 14,21.5 Z m 0,-18 Q 13.8,3.5 13.65,3.35 13.5,3.2 13.5,3 13.5,2.8 13.65,2.65 13.8,2.5 14,2.5 14.2,2.5 14.35,2.65 14.5,2.8 14.5,3 14.5,3.2 14.35,3.35 14.2,3.5 14,3.5 Z m 4,15.25 q -0.325,0 -0.5375,-0.2125 Q 17.25,18.325 17.25,18 q 0,-0.325 0.2125,-0.5375 Q 17.675,17.25 18,17.25 q 0.325,0 0.5375,0.2125 Q 18.75,17.675 18.75,18 q 0,0.325 -0.2125,0.5375 Q 18.325,18.75 18,18.75 Z m 0,-4 q -0.325,0 -0.5375,-0.2125 Q 17.25,14.325 17.25,14 q 0,-0.325 0.2125,-0.5375 Q 17.675,13.25 18,13.25 q 0.325,0 0.5375,0.2125 Q 18.75,13.675 18.75,14 q 0,0.325 -0.2125,0.5375 Q 18.325,14.75 18,14.75 Z m 0,-4 q -0.325,0 -0.5375,-0.2125 Q 17.25,10.325 17.25,10 17.25,9.675 17.4625,9.4625 17.675,9.25 18,9.25 q 0.325,0 0.5375,0.2125 Q 18.75,9.675 18.75,10 q 0,0.325 -0.2125,0.5375 Q 18.325,10.75 18,10.75 Z m 0,-4 Q 17.675,6.75 17.4625,6.5375 17.25,6.325 17.25,6 17.25,5.675 17.4625,5.4625 17.675,5.25 18,5.25 q 0.325,0 0.5375,0.2125 Q 18.75,5.675 18.75,6 18.75,6.325 18.5375,6.5375 18.325,6.75 18,6.75 Z m 3,7.75 q -0.2,0 -0.35,-0.15 Q 20.5,14.2 20.5,14 q 0,-0.2 0.15,-0.35 0.15,-0.15 0.35,-0.15 0.2,0 0.35,0.15 0.15,0.15 0.15,0.35 0,0.2 -0.15,0.35 Q 21.2,14.5 21,14.5 Z m 0,-4 q -0.2,0 -0.35,-0.15 Q 20.5,10.2 20.5,10 20.5,9.8 20.65,9.65 20.8,9.5 21,9.5 q 0.2,0 0.35,0.15 0.15,0.15 0.15,0.35 0,0.2 -0.15,0.35 Q 21.2,10.5 21,10.5 Z M 8,16 V 15.45 Q 8,14.15 9.25,13.575 10.5,13 12,13 13.5,13 14.75,13.575 16,14.15 16,15.45 V 16 Z m 4,-4 Q 11.175,12 10.5875,11.4125 10,10.825 10,10 10,9.175 10.5875,8.5875 11.175,8 12,8 12.825,8 13.4125,8.5875 14,9.175 14,10 14,10.825 13.4125,11.4125 12.825,12 12,12 Z"/></svg>