<svg xmlns="http://www.w3.org/2000/svg" width="24" height="24" viewBox="0 0 24 24"><path fill="currentColor" d="M18.75 8h1V4h-1v4Zm-2.5 0h1V4h-1v4ZM2 17q1.25 0 2.125.875T5 20H2v-3Zm0-4q2.925 0 4.963 2.038T9 20H7q0-2.075-1.463-3.538T2 15v-2Zm0-4q2.275 0 4.275.863t3.5 2.362q1.5 1.5 2.363 3.5T13 20h-2q0-1.875-.713-3.513t-1.925-2.85q-1.212-1.212-2.85-1.924T2 11V9Zm16 2q-2.075 0-3.538-1.463T13 6q0-2.075 1.463-3.538T18 1q2.075 0 3.538 1.463T23 6q0 2.075-1.463 3.538T18 11Zm-3 9q0-2.725-1.025-5.088t-2.788-4.125Q9.425 9.025 7.064 8.012T2 7V4h9.3q-.15.475-.225.975T11 6q0 2.9 2.05 4.95T18 13q1.075 0 2.1-.325t1.9-.95V20h-7Z"/></svg>