<svg xmlns="http://www.w3.org/2000/svg" width="24" height="24" viewBox="0 0 24 24"><path d="M17 21q.2 0 .35-.15t.15-.35q0-.2-.15-.35T17 20q-.2 0-.35.15t-.15.35q0 .2.15.35T17 21Zm-.5-2h1v-4h-1v4ZM3 17.125V6.875L12 1.7l9 5.175v5.375q-.85-.6-1.863-.925T17 11q-.425 0-.813.038t-.787.137L19 9.1V8.05l-1.075-.625L12 10.85L6.075 7.425L5 8.05V9.1l6 3.475V14.4q-.475.8-.738 1.7T10 18q0 1.05.288 2t.812 1.775L3 17.125ZM17 23q-2.075 0-3.538-1.463T12 18q0-2.075 1.463-3.538T17 13q2.075 0 3.538 1.463T22 18q0 2.075-1.463 3.538T17 23Z"/></svg>