<svg xmlns="http://www.w3.org/2000/svg" width="24" height="24" viewBox="0 0 24 24"><path d="M10.6 16.275q-.425.425-1.05.563t-1.45.012q-.2-.05-.375-.088t-.3.088q-.15.15-.1.363t.05.412q.175.825.05 1.425t-.55 1.025q-.45.475-1.087.613t-1.413.012q-.525-.1-.775.05t-.675.625l-1.4-1.325q.8-.825 1.2-1.112T3.8 18.65q.7 0 1.05.125t.55-.05q.15-.125.1-.35t-.1-.425q-.075-.875.05-1.488t.525-1.012q.4-.425 1.038-.563t1.437-.012q.2.05.388.1t.312-.075q.15-.15.1-.375t-.1-.425q-.125-.875 0-1.488t.525-1.012q.4-.425 1.038-.563t1.437-.012q.2.05.388.1t.312-.075q.15-.15.1-.375t-.1-.425q-.125-.85.013-1.463T13.4 7.75q.4-.425 1.012-.575T15.7 7.15q.325.05.537.112t.338-.062q.15-.15.1-.375t-.1-.425q-.175-.825-.05-1.425t.55-1.025q.45-.475 1.075-.613t1.4-.012q.525.1.787-.05t.688-.625L22.4 3.975q-.8.825-1.2 1.113t-1.075.287q-.7 0-1.05-.125t-.55.05q-.15.125-.088.35t.113.425q.125.85-.013 1.462T18 8.575q-.4.425-1.012.588t-1.263.037q-.35-.075-.55-.137t-.325.062q-.15.15-.112.375t.087.425q.125.875 0 1.488t-.525 1.012q-.425.425-1.05.575t-1.3.025q-.275-.05-.475-.1T11.15 13q-.15.15-.113.363t.088.412q.125.875-.013 1.488t-.512 1.012ZM6 11q-2.075 0-3.538-1.463T1 6q0-2.1 1.463-3.55T6 1q2.1 0 3.55 1.45T11 6q0 2.075-1.45 3.538T6 11Zm8 12v-9h9v9h-9Z"/></svg>