<svg xmlns="http://www.w3.org/2000/svg" width="24" height="24" viewBox="0 0 24 24"><path d="m11.8 20.025l.15-4.225l3.05-3h1.95v1.85l2.275.35q.275-.7.438-1.45t.162-1.55q0-2.225-1.112-4.063T15.8 5.05V8h-3v3h-2v3H8.775L6.8 11h-1v1l-1.775 1.975q.65 2.6 2.813 4.325t4.962 1.725Zm4-6.025h-3v-2h3v2Zm0-6h2.025l-1 3h-2.05L15.8 8Zm-4 14q-2.075 0-3.9-.788t-3.175-2.137q-1.35-1.35-2.137-3.175T1.8 12q0-2.075.788-3.9t2.137-3.175q1.35-1.35 3.175-2.137T11.8 2q2.075 0 3.9.788t3.175 2.137q1.35 1.35 2.138 3.175T21.8 12q0 2.075-.788 3.9t-2.137 3.175q-1.35 1.35-3.175 2.138T11.8 22Z"/></svg>