<svg xmlns="http://www.w3.org/2000/svg" width="24" height="24" viewBox="0 0 24 24"><path d="M13 23q-1.825 0-2.913-1.525T9 18q0-1.95 1.088-3.475T13 13q1.825 0 2.913 1.525T17 18q0 1.95-1.088 3.475T13 23Zm-8.55-.7l-1.9-.6q.775-2.35 1.112-4.788T4 12q0-2.475-.338-4.913T2.55 2.3l1.9-.6q.825 2.5 1.188 5.075T6 12q0 2.65-.363 5.225T4.45 22.3Zm15.1 0q-.825-2.5-1.188-5.075T18 12q0-2.65.363-5.225T19.55 1.7l1.9.6q-.775 2.35-1.113 4.788T20 12q0 2.475.338 4.913T21.45 21.7l-1.9.6Zm-7.325-2.5q.225.2.525.2t.525-.225q.35-.35.538-.813T14 18q0-.5-.175-.963t-.525-.812Q13.1 16 12.787 16t-.537.2q-.225.2-.237.525t.187.55l.15.213q.15.212.15.512t-.15.512l-.15.213q-.225.225-.212.55t.237.525ZM11 11q-1.825 0-2.912-1.525T7 6q0-1.95 1.088-3.475T11 1q1.825 0 2.913 1.525T15 6q0 1.95-1.088 3.475T11 11Zm.75-3.2q.225-.2.238-.525t-.188-.55q-.125-.15-.212-.338T11.5 6q0-.2.088-.388t.212-.337q.2-.225.2-.537t-.225-.538Q11.55 4 11.25 4t-.525.225q-.35.35-.537.813T10 6q0 .5.175.963t.525.812q.225.225.525.225t.525-.2Z"/></svg>