<?xml version="1.0" encoding="UTF-8"?>
<svg xmlns="http://www.w3.org/2000/svg" xmlns:xlink="http://www.w3.org/1999/xlink" width="24px" height="24px" viewBox="0 0 24 24" version="1.1">
<g id="surface1">
<path style=" stroke:none;fill-rule:nonzero;fill:rgb(0%,0%,0%);fill-opacity:1;" d="M 11 21 L 11 3 L 13 3 L 13 21 Z M 6.324219 18.375 L 4.925781 16.976562 C 5.589844 16.308594 6.105469 15.550781 6.460938 14.699219 C 6.820312 13.851562 7 12.949219 7 12 C 7 11.050781 6.820312 10.148438 6.460938 9.300781 C 6.105469 8.449219 5.589844 7.691406 4.925781 7.023438 L 6.324219 5.601562 C 7.175781 6.449219 7.828125 7.425781 8.289062 8.523438 C 8.746094 9.625 8.976562 10.773438 8.976562 11.976562 C 8.976562 13.175781 8.746094 14.328125 8.289062 15.4375 C 7.828125 16.546875 7.175781 17.523438 6.324219 18.375 Z M 3.523438 15.550781 L 2.101562 14.125 C 2.382812 13.839844 2.605469 13.511719 2.761719 13.136719 C 2.921875 12.761719 3 12.375 3 11.976562 C 3 11.574219 2.921875 11.191406 2.761719 10.824219 C 2.605469 10.457031 2.382812 10.132812 2.101562 9.851562 L 3.523438 8.425781 C 4.007812 8.890625 4.378906 9.433594 4.636719 10.050781 C 4.894531 10.667969 5.023438 11.308594 5.023438 11.976562 C 5.023438 12.640625 4.894531 13.289062 4.636719 13.914062 C 4.378906 14.539062 4.007812 15.082031 3.523438 15.550781 Z M 15 13 L 15 11 L 21 11 L 21 13 Z M 15 13 "/>
</g>
</svg>
