<?xml version="1.0" encoding="UTF-8"?>
<svg xmlns="http://www.w3.org/2000/svg" xmlns:xlink="http://www.w3.org/1999/xlink" width="24px" height="24px" viewBox="0 0 24 24" version="1.1">
<g id="surface1">
<path style=" stroke:none;fill-rule:nonzero;fill:rgb(0%,0%,0%);fill-opacity:1;" d="M 19.625 21 L 18.226562 19.601562 L 19.800781 18 L 15.625 18 L 15.625 16 L 19.800781 16 L 18.226562 14.398438 L 19.625 13 L 23.625 17 Z M 8.375 15 C 9.308594 15 10.148438 14.769531 10.898438 14.3125 C 11.648438 13.855469 12.242188 13.25 12.675781 12.5 C 12.089844 12.015625 11.433594 11.644531 10.699219 11.386719 C 9.964844 11.128906 9.191406 11 8.375 11 C 7.558594 11 6.785156 11.128906 6.050781 11.386719 C 5.316406 11.644531 4.660156 12.015625 4.074219 12.5 C 4.507812 13.25 5.101562 13.855469 5.851562 14.3125 C 6.601562 14.769531 7.441406 15 8.375 15 Z M 8.375 10 C 8.925781 10 9.394531 9.804688 9.789062 9.414062 C 10.179688 9.019531 10.375 8.550781 10.375 8 C 10.375 7.449219 10.179688 6.980469 9.789062 6.585938 C 9.394531 6.195312 8.925781 6 8.375 6 C 7.824219 6 7.355469 6.195312 6.960938 6.585938 C 6.570312 6.980469 6.375 7.449219 6.375 8 C 6.375 8.550781 6.570312 9.019531 6.960938 9.414062 C 7.355469 9.804688 7.824219 10 8.375 10 Z M 8.375 22 C 5.691406 19.714844 3.6875 17.597656 2.363281 15.636719 C 1.039062 13.679688 0.375 11.867188 0.375 10.199219 C 0.375 7.699219 1.179688 5.707031 2.789062 4.226562 C 4.394531 2.742188 6.257812 2 8.375 2 C 10.492188 2 12.355469 2.742188 13.960938 4.226562 C 15.570312 5.707031 16.375 7.699219 16.375 10.199219 C 16.375 11.867188 15.710938 13.679688 14.386719 15.636719 C 13.0625 17.597656 11.058594 19.714844 8.375 22 Z M 8.375 22 "/>
</g>
</svg>
