<?xml version="1.0" encoding="UTF-8"?>
<svg xmlns="http://www.w3.org/2000/svg" xmlns:xlink="http://www.w3.org/1999/xlink" width="24px" height="24px" viewBox="0 0 24 24" version="1.1">
<g id="surface1">
<path style=" stroke:none;fill-rule:nonzero;fill:rgb(0%,0%,0%);fill-opacity:1;" d="M 11 17 C 10.882812 17 10.785156 16.964844 10.699219 16.898438 C 10.617188 16.832031 10.558594 16.75 10.523438 16.648438 C 10.292969 15.949219 10.007812 15.367188 9.675781 14.898438 C 9.339844 14.433594 9.007812 13.984375 8.675781 13.550781 C 8.339844 13.117188 8.0625 12.667969 7.835938 12.199219 C 7.613281 11.734375 7.5 11.167969 7.5 10.5 C 7.5 9.535156 7.839844 8.707031 8.523438 8.023438 C 9.207031 7.339844 10.035156 7 11 7 C 11.964844 7 12.792969 7.339844 13.476562 8.023438 C 14.160156 8.707031 14.5 9.535156 14.5 10.5 C 14.5 11.167969 14.386719 11.734375 14.164062 12.199219 C 13.9375 12.667969 13.660156 13.117188 13.324219 13.550781 C 12.992188 13.984375 12.660156 14.433594 12.324219 14.898438 C 11.992188 15.367188 11.707031 15.949219 11.476562 16.648438 C 11.441406 16.75 11.382812 16.832031 11.300781 16.898438 C 11.214844 16.964844 11.117188 17 11 17 Z M 11 11.75 C 11.351562 11.75 11.644531 11.628906 11.886719 11.386719 C 12.128906 11.144531 12.25 10.851562 12.25 10.5 C 12.25 10.148438 12.128906 9.855469 11.886719 9.613281 C 11.644531 9.371094 11.351562 9.25 11 9.25 C 10.648438 9.25 10.355469 9.371094 10.113281 9.613281 C 9.871094 9.855469 9.75 10.148438 9.75 10.5 C 9.75 10.851562 9.871094 11.144531 10.113281 11.386719 C 10.355469 11.628906 10.648438 11.75 11 11.75 Z M 11 21 C 8.5 21 6.375 20.125 4.625 18.375 C 2.875 16.625 2 14.5 2 12 C 2 10.75 2.238281 9.578125 2.710938 8.488281 C 3.1875 7.394531 3.828125 6.445312 4.636719 5.636719 C 5.445312 4.828125 6.394531 4.1875 7.488281 3.710938 C 8.578125 3.238281 9.75 3 11 3 C 12.25 3 13.421875 3.238281 14.511719 3.710938 C 15.605469 4.1875 16.554688 4.828125 17.363281 5.636719 C 18.171875 6.445312 18.8125 7.394531 19.289062 8.488281 C 19.761719 9.578125 20 10.75 20 12 L 20 12.199219 L 21.324219 10.851562 L 22.75 12.25 L 19 16 L 15.25 12.25 L 16.675781 10.851562 L 18 12.175781 L 18 12 C 18 10.066406 17.316406 8.417969 15.949219 7.050781 C 14.582031 5.683594 12.933594 5 11 5 C 9.066406 5 7.417969 5.683594 6.050781 7.050781 C 4.683594 8.417969 4 10.066406 4 12 C 4.015625 13.933594 4.703125 15.582031 6.0625 16.949219 C 7.421875 18.316406 9.066406 19 11 19 C 11.949219 19 12.839844 18.820312 13.675781 18.460938 C 14.507812 18.105469 15.242188 17.617188 15.875 17 L 17.300781 18.425781 C 16.484375 19.226562 15.539062 19.855469 14.460938 20.3125 C 13.386719 20.769531 12.234375 21 11 21 Z M 11 21 "/>
</g>
</svg>
