<?xml version="1.0" encoding="UTF-8"?>
<svg xmlns="http://www.w3.org/2000/svg" xmlns:xlink="http://www.w3.org/1999/xlink" width="24px" height="24px" viewBox="0 0 24 24" version="1.1">
<g id="surface1">
<path style=" stroke:none;fill-rule:nonzero;fill:rgb(0%,0%,0%);fill-opacity:1;" d="M 12.5 13.675781 L 12.5 10 L 15 10 L 14 9 L 12.5 9 L 12.5 4 L 16.5 4 L 18.75 8 L 17.300781 8 L 16.300781 6 L 14 6 L 14 7 L 15.699219 7 L 16.699219 9 L 19.300781 9 L 20.773438 11.574219 C 20.339844 11.390625 19.890625 11.25 19.425781 11.148438 C 18.957031 11.050781 18.484375 11 18 11 C 16.882812 11 15.847656 11.242188 14.886719 11.726562 C 13.929688 12.207031 13.132812 12.859375 12.5 13.675781 Z M 7.199219 19.476562 L 5.25 16 L 6.699219 16 L 7.699219 18 L 10 18 L 10 17 L 8.300781 17 L 7.300781 15 L 4.699219 15 L 3 12 L 4.699219 9 L 7.300781 9 L 8.300781 7 L 10 7 L 10 6 L 7.699219 6 L 6.699219 8 L 5.25 8 L 7.5 4 L 11.5 4 L 11.5 9 L 10 9 L 9 10 L 11.5 10 L 11.5 13 L 9.300781 13 L 8.300781 11 L 6 11 L 5 12 L 7.699219 12 L 8.699219 14 L 11.5 14 L 11.5 15.398438 C 11.332031 15.800781 11.207031 16.214844 11.125 16.648438 C 11.042969 17.082031 11 17.535156 11 18 C 11 18.285156 11.011719 18.566406 11.039062 18.851562 C 11.0625 19.132812 11.117188 19.417969 11.199219 19.699219 L 11.199219 20 L 8.074219 20 C 7.890625 20 7.722656 19.953125 7.5625 19.863281 C 7.402344 19.769531 7.285156 19.640625 7.199219 19.476562 Z M 18 21 L 21 18 L 20.300781 17.300781 L 18.5 19.101562 L 18.5 15 L 17.5 15 L 17.5 19.101562 L 15.699219 17.300781 L 15 18 Z M 18 23 C 16.617188 23 15.4375 22.511719 14.460938 21.539062 C 13.488281 20.5625 13 19.382812 13 18 C 13 16.617188 13.488281 15.4375 14.460938 14.460938 C 15.4375 13.488281 16.617188 13 18 13 C 19.382812 13 20.5625 13.488281 21.539062 14.460938 C 22.511719 15.4375 23 16.617188 23 18 C 23 19.382812 22.511719 20.5625 21.539062 21.539062 C 20.5625 22.511719 19.382812 23 18 23 Z M 18 23 "/>
</g>
</svg>
