<?xml version="1.0" encoding="UTF-8"?>
<svg xmlns="http://www.w3.org/2000/svg" xmlns:xlink="http://www.w3.org/1999/xlink" width="24px" height="24px" viewBox="0 0 24 24" version="1.1">
<g id="surface1">
<path style=" stroke:none;fill-rule:nonzero;fill:rgb(0%,0%,0%);fill-opacity:1;" d="M 7 11.5 L 7 10.5 L 8 10.5 L 8 11.5 Z M 5.5 15 L 7 15 L 7 13 L 9.5 13 L 9.5 10 L 8.5 9 L 5.5 9 Z M 10.398438 15 L 13.398438 15 L 13.5 13.5 L 11.898438 13.5 L 11.898438 11.898438 L 10.398438 10.398438 Z M 3 21 L 3 3.648438 L 2.800781 2.800781 L 21 21 Z M 19.601562 22.398438 L 1.398438 4.199219 L 2.800781 2.800781 L 21 21 Z M 5.824219 3 L 21 3 L 21 18.175781 L 17 14.175781 L 17 13 L 18.5 13 L 18.5 11.5 L 17 11.5 L 17 10.5 L 18.5 10.5 L 18.5 9 L 15.5 9 L 15.5 12.675781 L 14.398438 11.574219 L 14.398438 10 L 13.398438 9 L 11.824219 9 Z M 5.824219 3 "/>
</g>
</svg>
