<?xml version="1.0" encoding="UTF-8"?>
<svg xmlns="http://www.w3.org/2000/svg" xmlns:xlink="http://www.w3.org/1999/xlink" width="24px" height="24px" viewBox="0 0 24 24" version="1.1">
<g id="surface1">
<path style=" stroke:none;fill-rule:nonzero;fill:rgb(0%,0%,0%);fill-opacity:1;" d="M 12 11 C 12.550781 11 13.019531 10.804688 13.414062 10.414062 C 13.804688 10.019531 14 9.550781 14 9 C 14 8.449219 13.804688 7.980469 13.414062 7.585938 C 13.019531 7.195312 12.550781 7 12 7 C 11.449219 7 10.980469 7.195312 10.585938 7.585938 C 10.195312 7.980469 10 8.449219 10 9 C 10 9.550781 10.195312 10.019531 10.585938 10.414062 C 10.980469 10.804688 11.449219 11 12 11 Z M 7 21 L 7 19 L 11 19 L 11 15.898438 C 10.183594 15.714844 9.453125 15.371094 8.8125 14.863281 C 8.171875 14.355469 7.699219 13.714844 7.398438 12.949219 C 6.148438 12.800781 5.105469 12.253906 4.261719 11.3125 C 3.421875 10.371094 3 9.265625 3 8 L 3 5 L 7 5 L 7 3 L 17 3 L 17 5 L 21 5 L 21 8 C 21 9.265625 20.578125 10.371094 19.738281 11.3125 C 18.894531 12.253906 17.851562 12.800781 16.601562 12.949219 C 16.300781 13.714844 15.828125 14.355469 15.1875 14.863281 C 14.546875 15.371094 13.816406 15.714844 13 15.898438 L 13 19 L 17 19 L 17 21 Z M 7 10.800781 L 7 7 L 5 7 L 5 8 C 5 8.632812 5.183594 9.203125 5.550781 9.710938 C 5.917969 10.222656 6.398438 10.582031 7 10.800781 Z M 17 10.800781 C 17.601562 10.582031 18.082031 10.222656 18.449219 9.710938 C 18.816406 9.203125 19 8.632812 19 8 L 19 7 L 17 7 Z M 17 10.800781 "/>
</g>
</svg>
