<?xml version="1.0" encoding="UTF-8"?>
<svg xmlns="http://www.w3.org/2000/svg" xmlns:xlink="http://www.w3.org/1999/xlink" width="24px" height="24px" viewBox="0 0 24 24" version="1.1">
<g id="surface1">
<path style=" stroke:none;fill-rule:nonzero;fill:rgb(0%,0%,0%);fill-opacity:1;" d="M 12 12 Z M 12 16 C 13.101562 16 14.042969 15.609375 14.824219 14.824219 C 15.609375 14.042969 16 13.101562 16 12 C 16 10.898438 15.609375 9.957031 14.824219 9.175781 C 14.042969 8.390625 13.101562 8 12 8 C 10.898438 8 9.957031 8.390625 9.175781 9.175781 C 8.390625 9.957031 8 10.898438 8 12 C 8 13.101562 8.390625 14.042969 9.175781 14.824219 C 9.957031 15.609375 10.898438 16 12 16 Z M 2 20 L 2 4 L 22 4 L 22 20 Z M 2 20 "/>
</g>
</svg>
