<?xml version="1.0" encoding="UTF-8"?>
<svg xmlns="http://www.w3.org/2000/svg" xmlns:xlink="http://www.w3.org/1999/xlink" width="24px" height="24px" viewBox="0 0 24 24" version="1.1">
<g id="surface1">
<path style=" stroke:none;fill-rule:nonzero;fill:rgb(0%,0%,0%);fill-opacity:1;" d="M 9.773438 18 C 10.058594 18 10.328125 17.949219 10.585938 17.851562 C 10.847656 17.75 11.101562 17.632812 11.351562 17.5 C 11.449219 17.433594 11.554688 17.375 11.664062 17.324219 C 11.769531 17.273438 11.882812 17.25 12 17.25 C 12.132812 17.25 12.351562 17.332031 12.648438 17.5 C 12.898438 17.632812 13.152344 17.75 13.414062 17.851562 C 13.671875 17.949219 13.941406 18 14.226562 18 C 15.058594 18 15.730469 17.703125 16.238281 17.113281 C 16.746094 16.519531 17 15.734375 17 14.75 C 17 13.550781 16.585938 12.625 15.761719 11.976562 C 14.9375 11.324219 13.75 11 12.199219 11 L 11.800781 11 C 10.25 11 9.0625 11.324219 8.238281 11.976562 C 7.414062 12.625 7 13.550781 7 14.75 C 7 15.734375 7.253906 16.519531 7.761719 17.113281 C 8.269531 17.703125 8.941406 18 9.773438 18 Z M 9.75 16.5 C 9.351562 16.5 9.039062 16.347656 8.8125 16.039062 C 8.585938 15.730469 8.476562 15.300781 8.476562 14.75 C 8.476562 13.984375 8.746094 13.417969 9.289062 13.050781 C 9.828125 12.683594 10.667969 12.5 11.800781 12.5 L 12.175781 12.5 C 13.308594 12.5 14.140625 12.683594 14.675781 13.050781 C 15.207031 13.417969 15.476562 13.984375 15.476562 14.75 C 15.476562 15.300781 15.367188 15.730469 15.148438 16.039062 C 14.933594 16.347656 14.625 16.5 14.226562 16.5 C 14.023438 16.5 13.742188 16.398438 13.375 16.199219 C 13.160156 16.066406 12.9375 15.957031 12.710938 15.875 C 12.488281 15.792969 12.25 15.75 12 15.75 C 11.75 15.75 11.507812 15.792969 11.273438 15.875 C 11.042969 15.957031 10.816406 16.066406 10.601562 16.199219 C 10.464844 16.285156 10.328125 16.355469 10.1875 16.414062 C 10.046875 16.472656 9.898438 16.5 9.75 16.5 Z M 6.273438 10.699219 C 7.273438 10.300781 8.074219 9.859375 8.675781 9.375 C 9.273438 8.890625 9.839844 8.234375 10.375 7.398438 L 9.125 6.601562 C 8.691406 7.285156 8.238281 7.808594 7.761719 8.175781 C 7.289062 8.542969 6.601562 8.917969 5.699219 9.300781 Z M 17.699219 10.699219 L 18.273438 9.300781 C 17.390625 8.933594 16.714844 8.566406 16.25 8.199219 C 15.785156 7.832031 15.324219 7.300781 14.875 6.601562 L 13.625 7.398438 C 14.160156 8.234375 14.726562 8.886719 15.324219 9.363281 C 15.925781 9.835938 16.714844 10.285156 17.699219 10.699219 Z M 12 22 C 10.617188 22 9.316406 21.738281 8.101562 21.210938 C 6.882812 20.6875 5.824219 19.976562 4.925781 19.074219 C 4.023438 18.175781 3.3125 17.117188 2.789062 15.898438 C 2.261719 14.683594 2 13.382812 2 12 C 2 10.617188 2.261719 9.316406 2.789062 8.101562 C 3.3125 6.882812 4.023438 5.824219 4.925781 4.925781 C 5.824219 4.023438 6.882812 3.3125 8.101562 2.789062 C 9.316406 2.261719 10.617188 2 12 2 C 13.382812 2 14.683594 2.261719 15.898438 2.789062 C 17.117188 3.3125 18.175781 4.023438 19.074219 4.925781 C 19.976562 5.824219 20.6875 6.882812 21.210938 8.101562 C 21.738281 9.316406 22 10.617188 22 12 C 22 13.382812 21.738281 14.683594 21.210938 15.898438 C 20.6875 17.117188 19.976562 18.175781 19.074219 19.074219 C 18.175781 19.976562 17.117188 20.6875 15.898438 21.210938 C 14.683594 21.738281 13.382812 22 12 22 Z M 12 22 "/>
</g>
</svg>
