<?xml version="1.0" encoding="UTF-8"?>
<svg xmlns="http://www.w3.org/2000/svg" xmlns:xlink="http://www.w3.org/1999/xlink" width="24px" height="24px" viewBox="0 0 24 24" version="1.1">
<g id="surface1">
<path style=" stroke:none;fill-rule:nonzero;fill:rgb(0%,0%,0%);fill-opacity:1;" d="M 13 22 L 13 14 L 21 14 L 21 17 L 23 15 L 23 21 L 21 19 L 21 22 Z M 9.25 22 L 8.851562 18.800781 C 8.632812 18.714844 8.429688 18.617188 8.238281 18.5 C 8.046875 18.382812 7.859375 18.257812 7.675781 18.125 L 4.699219 19.375 L 1.949219 14.625 L 4.523438 12.675781 C 4.507812 12.558594 4.5 12.445312 4.5 12.335938 L 4.5 11.664062 C 4.5 11.554688 4.507812 11.441406 4.523438 11.324219 L 1.949219 9.375 L 4.699219 4.625 L 7.675781 5.875 C 7.859375 5.742188 8.050781 5.617188 8.25 5.5 C 8.449219 5.382812 8.648438 5.285156 8.851562 5.199219 L 9.25 2 L 14.75 2 L 15.148438 5.199219 C 15.367188 5.285156 15.570312 5.382812 15.761719 5.5 C 15.953125 5.617188 16.140625 5.742188 16.324219 5.875 L 19.300781 4.625 L 22.050781 9.375 L 19.476562 11.324219 C 19.492188 11.441406 19.5 11.554688 19.5 11.664062 L 19.5 12 L 15.550781 12 C 15.550781 11.035156 15.207031 10.207031 14.523438 9.523438 C 13.839844 8.839844 13.015625 8.5 12.050781 8.5 C 11.082031 8.5 10.257812 8.839844 9.574219 9.523438 C 8.890625 10.207031 8.550781 11.035156 8.550781 12 C 8.550781 12.800781 8.773438 13.5 9.226562 14.101562 C 9.675781 14.699219 10.265625 15.117188 11 15.351562 L 11 22 Z M 9.25 22 "/>
</g>
</svg>
