<?xml version="1.0" encoding="UTF-8"?>
<svg xmlns="http://www.w3.org/2000/svg" xmlns:xlink="http://www.w3.org/1999/xlink" width="24px" height="24px" viewBox="0 0 24 24" version="1.1">
<g id="surface1">
<path style=" stroke:none;fill-rule:nonzero;fill:rgb(0%,0%,0%);fill-opacity:1;" d="M 12 17 C 12.285156 17 12.519531 16.902344 12.710938 16.710938 C 12.902344 16.519531 13 16.285156 13 16 C 13 15.714844 12.902344 15.480469 12.710938 15.289062 C 12.519531 15.097656 12.285156 15 12 15 C 11.714844 15 11.480469 15.097656 11.289062 15.289062 C 11.097656 15.480469 11 15.714844 11 16 C 11 16.285156 11.097656 16.519531 11.289062 16.710938 C 11.480469 16.902344 11.714844 17 12 17 Z M 8 17 C 8.285156 17 8.519531 16.902344 8.710938 16.710938 C 8.902344 16.519531 9 16.285156 9 16 C 9 15.714844 8.902344 15.480469 8.710938 15.289062 C 8.519531 15.097656 8.285156 15 8 15 C 7.714844 15 7.480469 15.097656 7.289062 15.289062 C 7.097656 15.480469 7 15.714844 7 16 C 7 16.285156 7.097656 16.519531 7.289062 16.710938 C 7.480469 16.902344 7.714844 17 8 17 Z M 16 17 C 16.285156 17 16.519531 16.902344 16.710938 16.710938 C 16.902344 16.519531 17 16.285156 17 16 C 17 15.714844 16.902344 15.480469 16.710938 15.289062 C 16.519531 15.097656 16.285156 15 16 15 C 15.714844 15 15.480469 15.097656 15.289062 15.289062 C 15.097656 15.480469 15 15.714844 15 16 C 15 16.285156 15.097656 16.519531 15.289062 16.710938 C 15.480469 16.902344 15.714844 17 16 17 Z M 3 21 L 3 3 L 21 3 L 21 21 Z M 3 21 "/>
</g>
</svg>
