<?xml version="1.0" encoding="UTF-8"?>
<svg xmlns="http://www.w3.org/2000/svg" xmlns:xlink="http://www.w3.org/1999/xlink" width="24px" height="24px" viewBox="0 0 24 24" version="1.1">
<g id="surface1">
<path style=" stroke:none;fill-rule:nonzero;fill:rgb(0%,0%,0%);fill-opacity:1;" d="M 11 20 L 11 14 L 15.5 14 L 15.5 20 Z M 12.5 18.5 L 14 18.5 L 14 15.5 L 12.5 15.5 Z M 17 22 L 17 18.25 L 20 18.25 L 20 17.5 L 17 17.5 L 17 16 L 21.5 16 L 21.5 19.75 L 18.5 19.75 L 18.5 20.5 L 21.5 20.5 L 21.5 22 Z M 9 21.949219 C 6.949219 21.714844 5.269531 20.835938 3.960938 19.3125 C 2.652344 17.789062 2 15.949219 2 13.800781 C 2 12.132812 2.664062 10.320312 3.988281 8.363281 C 5.3125 6.402344 7.316406 4.285156 10 2 C 12.199219 3.867188 13.945312 5.632812 15.238281 7.300781 C 16.527344 8.964844 17.367188 10.535156 17.75 12 L 9 12 Z M 9 21.949219 "/>
</g>
</svg>
