<?xml version="1.0" encoding="UTF-8"?>
<svg xmlns="http://www.w3.org/2000/svg" xmlns:xlink="http://www.w3.org/1999/xlink" width="24px" height="24px" viewBox="0 0 24 24" version="1.1">
<g id="surface1">
<path style=" stroke:none;fill-rule:nonzero;fill:rgb(0%,0%,0%);fill-opacity:1;" d="M 12 22 C 11.167969 22 10.457031 21.707031 9.875 21.125 C 9.292969 20.542969 9 19.832031 9 19 C 9 18.167969 9.292969 17.457031 9.875 16.875 C 10.457031 16.292969 11.167969 16 12 16 C 12.832031 16 13.542969 16.292969 14.125 16.875 C 14.707031 17.457031 15 18.167969 15 19 C 15 19.832031 14.707031 20.542969 14.125 21.125 C 13.542969 21.707031 12.832031 22 12 22 Z M 12 14 L 7 9 L 8.398438 7.601562 L 11 10.175781 L 11 2 L 13 2 L 13 10.175781 L 15.574219 7.601562 L 17 9 Z M 12 14 "/>
</g>
</svg>
