<?xml version="1.0" encoding="UTF-8"?>
<svg xmlns="http://www.w3.org/2000/svg" xmlns:xlink="http://www.w3.org/1999/xlink" width="24px" height="24px" viewBox="0 0 24 24" version="1.1">
<g id="surface1">
<path style=" stroke:none;fill-rule:nonzero;fill:rgb(0%,0%,0%);fill-opacity:1;" d="M 12 16 C 13.132812 16 14.390625 15.773438 15.773438 15.324219 C 17.160156 14.875 19.234375 14.082031 22 12.949219 L 22 12.574219 C 22 11.726562 21.660156 11.042969 20.976562 10.523438 C 20.292969 10.007812 19.542969 9.867188 18.726562 10.101562 C 18.441406 10.183594 18.152344 10.285156 17.863281 10.398438 C 17.570312 10.515625 17.183594 10.667969 16.699219 10.851562 C 15.683594 11.285156 14.824219 11.582031 14.125 11.75 C 13.425781 11.917969 12.714844 12 12 12 C 11.25 12 10.523438 11.914062 9.824219 11.738281 C 9.125 11.5625 8.242188 11.257812 7.175781 10.824219 C 6.773438 10.660156 6.429688 10.519531 6.136719 10.414062 C 5.847656 10.304688 5.566406 10.207031 5.300781 10.125 C 4.484375 9.859375 3.730469 9.984375 3.039062 10.5 C 2.347656 11.015625 2 11.707031 2 12.574219 L 2 12.898438 C 4.183594 13.898438 6.101562 14.667969 7.75 15.199219 C 9.398438 15.734375 10.816406 16 12 16 Z M 12 22 C 14.300781 22 16.320312 21.371094 18.0625 20.113281 C 19.804688 18.855469 20.984375 17.242188 21.601562 15.273438 C 19.417969 16.207031 17.582031 16.894531 16.101562 17.335938 C 14.617188 17.777344 13.25 18 12 18 C 10.734375 18 9.289062 17.761719 7.664062 17.289062 C 6.039062 16.8125 4.265625 16.132812 2.351562 15.25 C 2.917969 17.300781 4.058594 18.9375 5.773438 20.164062 C 7.492188 21.386719 9.566406 22 12 22 Z M 12 10 C 10.898438 10 9.957031 9.609375 9.175781 8.824219 C 8.390625 8.042969 8 7.101562 8 6 C 8 4.898438 8.390625 3.957031 9.175781 3.175781 C 9.957031 2.390625 10.898438 2 12 2 C 13.101562 2 14.042969 2.390625 14.824219 3.175781 C 15.609375 3.957031 16 4.898438 16 6 C 16 7.101562 15.609375 8.042969 14.824219 8.824219 C 14.042969 9.609375 13.101562 10 12 10 Z M 12 10 "/>
</g>
</svg>
