<?xml version="1.0" encoding="UTF-8"?>
<svg xmlns="http://www.w3.org/2000/svg" xmlns:xlink="http://www.w3.org/1999/xlink" width="24px" height="24px" viewBox="0 0 24 24" version="1.1">
<g id="surface1">
<path style=" stroke:none;fill-rule:nonzero;fill:rgb(0%,0%,0%);fill-opacity:1;" d="M 19.773438 22.625 L 17.5 20.351562 C 16.699219 20.882812 15.835938 21.292969 14.914062 21.574219 C 13.988281 21.859375 13.015625 22 12 22 C 10.617188 22 9.316406 21.738281 8.101562 21.210938 C 6.882812 20.6875 5.824219 19.976562 4.925781 19.074219 C 4.023438 18.175781 3.3125 17.117188 2.789062 15.898438 C 2.261719 14.683594 2 13.382812 2 12 C 2 10.984375 2.140625 10.011719 2.425781 9.085938 C 2.707031 8.164062 3.117188 7.300781 3.648438 6.5 L 1.375 4.226562 L 2.800781 2.800781 L 21.199219 21.199219 Z M 11.925781 19.976562 C 12.675781 19.976562 13.390625 19.878906 14.074219 19.6875 C 14.757812 19.496094 15.398438 19.214844 16 18.851562 L 13.726562 16.574219 C 13.089844 16.859375 12.472656 17.253906 11.863281 17.761719 C 11.253906 18.269531 10.734375 18.949219 10.300781 19.800781 C 10.566406 19.851562 10.832031 19.890625 11.101562 19.925781 C 11.367188 19.957031 11.640625 19.976562 11.925781 19.976562 Z M 8.824219 19.351562 C 9.410156 18.148438 10.070312 17.257812 10.8125 16.675781 C 11.554688 16.089844 12.117188 15.699219 12.5 15.5 C 12.015625 15.351562 11.527344 15.230469 11.039062 15.136719 C 10.546875 15.046875 10.035156 15 9.5 15 C 8.75 15 8.007812 15.089844 7.273438 15.273438 C 6.542969 15.457031 5.832031 15.714844 5.148438 16.050781 C 5.582031 16.765625 6.113281 17.414062 6.738281 17.988281 C 7.363281 18.5625 8.058594 19.015625 8.824219 19.351562 Z M 20.351562 17.5 L 17.25 14.398438 C 17.765625 14.234375 18.1875 13.933594 18.511719 13.5 C 18.835938 13.066406 19 12.566406 19 12 C 19 11.300781 18.757812 10.707031 18.273438 10.226562 C 17.792969 9.742188 17.199219 9.5 16.5 9.5 C 15.933594 9.5 15.433594 9.664062 15 9.988281 C 14.566406 10.3125 14.265625 10.734375 14.101562 11.25 L 13 10.148438 C 13.035156 9.132812 12.691406 8.261719 11.976562 7.539062 C 11.257812 6.8125 10.382812 6.464844 9.351562 6.5 L 6.5 3.648438 C 7.300781 3.117188 8.164062 2.707031 9.085938 2.425781 C 10.011719 2.140625 10.984375 2 12 2 C 13.382812 2 14.683594 2.261719 15.898438 2.789062 C 17.117188 3.3125 18.175781 4.023438 19.074219 4.925781 C 19.976562 5.824219 20.6875 6.882812 21.210938 8.101562 C 21.738281 9.316406 22 10.617188 22 12 C 22 13.015625 21.859375 13.988281 21.574219 14.914062 C 21.292969 15.835938 20.882812 16.699219 20.351562 17.5 Z M 9.5 13.5 C 9.683594 13.5 9.855469 13.488281 10.011719 13.460938 C 10.171875 13.4375 10.332031 13.398438 10.5 13.351562 L 6.148438 9 C 6.101562 9.167969 6.0625 9.328125 6.039062 9.488281 C 6.011719 9.644531 6 9.816406 6 10 C 6 10.964844 6.339844 11.792969 7.023438 12.476562 C 7.707031 13.160156 8.535156 13.5 9.5 13.5 Z M 9.5 13.5 "/>
</g>
</svg>
