<svg xmlns="http://www.w3.org/2000/svg" width="24" height="24" viewBox="0 0 24 24"><path fill="currentColor" d="m20.45 23.3l-1.3-1.3H17v-2h.35v.2L3.65 6.5H4V7H2V4.85L.65 3.5l1.425-1.425l19.8 19.8L20.45 23.3ZM22 19.15l-2-2V17h2v2.15ZM6.85 4l-2-2H7v2h-.15ZM2 22v-5h2v3h3v2H2ZM20 7V4h-3V2h5v5h-2Zm-1 9.15l-4.475-4.475L17 10.25V9.125l-1.05-.6l-2.875 1.7L8.7 5.85l3.3-1.9l7 4.025v8.175Zm-7 3.9l-7-4.025v-8.05L6.9 6.9l2.3 2.3l-1.15-.675l-1.05.6v1.125l4 2.325v4.6l1 .575l1-.575V13l4.1 4.1l-5.1 2.95Z"/></svg>