<?xml version="1.0" encoding="UTF-8"?>
<!--Generator: Apple Native CoreSVG 326-->
<!DOCTYPE svg
PUBLIC "-//W3C//DTD SVG 1.1//EN"
       "http://www.w3.org/Graphics/SVG/1.1/DTD/svg11.dtd">
<svg version="1.1" xmlns="http://www.w3.org/2000/svg" xmlns:xlink="http://www.w3.org/1999/xlink" viewBox="0 0 23.3203 22.959">
 <g>
  <rect height="22.959" opacity="0" width="23.3203" x="0" y="0"/>
  <path d="M22.959 3.76953L22.959 19.1992C22.959 21.6797 21.6797 22.959 19.1504 22.959L3.79883 22.959C1.2793 22.959 0 21.6992 0 19.1992L0 3.76953C0 1.26953 1.2793 0 3.79883 0L19.1504 0C21.6797 0 22.959 1.2793 22.959 3.76953ZM7.04102 11.4746C7.04102 15.1074 8.82812 17.5586 11.4844 17.5586C14.1406 17.5586 15.9277 15.1074 15.9277 11.4746C15.9277 7.83203 14.1406 5.39062 11.4844 5.39062C8.82812 5.39062 7.04102 7.83203 7.04102 11.4746ZM14.209 11.4746C14.209 14.2383 13.1055 16.1035 11.4844 16.1035C9.86328 16.1035 8.75977 14.2383 8.75977 11.4746C8.75977 8.70117 9.86328 6.83594 11.4844 6.83594C13.1055 6.83594 14.209 8.70117 14.209 11.4746Z" fill="black" fill-opacity="0.85"/>
 </g>
</svg>
