<?xml version="1.0" encoding="UTF-8"?>
<!--Generator: Apple Native CoreSVG 326-->
<!DOCTYPE svg
PUBLIC "-//W3C//DTD SVG 1.1//EN"
       "http://www.w3.org/Graphics/SVG/1.1/DTD/svg11.dtd">
<svg version="1.1" xmlns="http://www.w3.org/2000/svg" xmlns:xlink="http://www.w3.org/1999/xlink" viewBox="0 0 23.3203 22.959">
 <g>
  <rect height="22.959" opacity="0" width="23.3203" x="0" y="0"/>
  <path d="M3.79883 22.959L19.1504 22.959C21.6797 22.959 22.959 21.6797 22.959 19.1992L22.959 3.76953C22.959 1.2793 21.6797 0 19.1504 0L3.79883 0C1.2793 0 0 1.26953 0 3.76953L0 19.1992C0 21.6992 1.2793 22.959 3.79883 22.959ZM3.83789 21.2305C2.4707 21.2305 1.72852 20.5078 1.72852 19.1016L1.72852 3.85742C1.72852 2.46094 2.4707 1.72852 3.83789 1.72852L19.1211 1.72852C20.459 1.72852 21.2305 2.46094 21.2305 3.85742L21.2305 19.1016C21.2305 20.5078 20.459 21.2305 19.1211 21.2305Z" fill="black" fill-opacity="0.85"/>
  <path d="M7.58789 16.8164C10.0488 16.8164 10.7422 13.9258 10.7422 11.4746C10.7422 9.02344 10.0488 6.13281 7.58789 6.13281C5.12695 6.13281 4.42383 9.02344 4.42383 11.4746C4.42383 13.9258 5.12695 16.8164 7.58789 16.8164ZM7.58789 15.498C6.39648 15.498 6.03516 13.5645 6.03516 11.4746C6.03516 9.375 6.39648 7.45117 7.58789 7.45117C8.76953 7.45117 9.14062 9.375 9.14062 11.4746C9.14062 13.5645 8.76953 15.498 7.58789 15.498ZM15.3809 16.8164C17.8516 16.8164 18.5449 13.9258 18.5449 11.4746C18.5449 9.02344 17.8516 6.13281 15.3809 6.13281C12.9199 6.13281 12.2266 9.02344 12.2266 11.4746C12.2266 13.9258 12.9199 16.8164 15.3809 16.8164ZM15.3809 15.498C14.1992 15.498 13.8379 13.5645 13.8379 11.4746C13.8379 9.375 14.1992 7.45117 15.3809 7.45117C16.5723 7.45117 16.9336 9.375 16.9336 11.4746C16.9336 13.5645 16.5723 15.498 15.3809 15.498Z" fill="black" fill-opacity="0.85"/>
 </g>
</svg>
