<?xml version="1.0" ?><!-- Generator: Adobe Illustrator 25.0.0, SVG Export Plug-In . SVG Version: 6.00 Build 0)  --><svg xmlns="http://www.w3.org/2000/svg" xmlns:xlink="http://www.w3.org/1999/xlink" version="1.1" id="Layer_1" x="0px" y="0px" viewBox="0 0 512 512" style="enable-background:new 0 0 512 512;" xml:space="preserve">
<path d="M87.3,512h337.3c58.4,0,87.3-28.9,87.3-86.2V86.2C512,28.9,483.1,0,424.7,0H87.3C29.2,0,0,28.6,0,86.2v339.6  C0,483.4,29.2,512,87.3,512z M156.3,379.3c-49.2,0-82-47.3-82-123.8s32.8-123.8,82-123.8c49.8,0,82,47.3,82,123.8  S206.1,379.3,156.3,379.3z M355.7,379.3c-49.5,0-82-47.3-82-123.8s32.5-123.8,82-123.8c49.5,0,82,47.3,82,123.8  S405.2,379.3,355.7,379.3z M156.3,344.3c27.8,0,44.2-33.7,44.2-88.7s-16.7-88.7-44.2-88.7c-27.3,0-43.9,33.7-43.9,88.7  S129,344.3,156.3,344.3z M355.7,344.3c27.8,0,44.2-33.7,44.2-88.7s-16.7-88.7-44.2-88.7c-27.3,0-43.9,33.7-43.9,88.7  S328.4,344.3,355.7,344.3z"/>
</svg>