<?xml version="1.0" encoding="UTF-8"?>
<!--Generator: Apple Native CoreSVG 326-->
<!DOCTYPE svg
PUBLIC "-//W3C//DTD SVG 1.1//EN"
       "http://www.w3.org/Graphics/SVG/1.1/DTD/svg11.dtd">
<svg version="1.1" xmlns="http://www.w3.org/2000/svg" xmlns:xlink="http://www.w3.org/1999/xlink" viewBox="0 0 25.8008 25.459">
 <g>
  <rect height="25.459" opacity="0" width="25.8008" x="0" y="0"/>
  <path d="M12.7148 25.4395C19.7363 25.4395 25.4395 19.7461 25.4395 12.7246C25.4395 5.70312 19.7363 0 12.7148 0C5.69336 0 0 5.70312 0 12.7246C0 19.7461 5.69336 25.4395 12.7148 25.4395ZM12.7148 23.623C6.68945 23.623 1.81641 18.75 1.81641 12.7246C1.81641 6.69922 6.68945 1.82617 12.7148 1.82617C18.7402 1.82617 23.6133 6.69922 23.6133 12.7246C23.6133 18.75 18.7402 23.623 12.7148 23.623Z" fill="black" fill-opacity="0.85"/>
  <path d="M8.94531 18.0664C11.4062 18.0664 12.0996 15.1758 12.0996 12.7246C12.0996 10.2734 11.4062 7.38281 8.94531 7.38281C6.47461 7.38281 5.78125 10.2734 5.78125 12.7246C5.78125 15.1758 6.47461 18.0664 8.94531 18.0664ZM8.94531 16.748C7.75391 16.748 7.39258 14.8145 7.39258 12.7246C7.39258 10.625 7.75391 8.70117 8.94531 8.70117C10.127 8.70117 10.498 10.625 10.498 12.7246C10.498 14.8145 10.127 16.748 8.94531 16.748ZM14.2383 17.8223L18.5938 17.8223C18.9844 17.8223 19.2285 17.5586 19.2285 17.168C19.2285 16.7578 18.9746 16.5137 18.5938 16.5137L15.459 16.5137L15.459 16.4258L17.4414 13.8379C18.6328 12.3145 19.0332 11.3867 19.0332 10.293C19.0332 8.62305 17.9492 7.38281 16.2402 7.38281C14.668 7.38281 13.5059 8.7207 13.5059 10.0391C13.5059 10.4395 13.7402 10.7324 14.1699 10.7324C14.541 10.7324 14.7656 10.5664 14.873 10.2051C15.0879 9.27734 15.4492 8.67188 16.2402 8.67188C17.0996 8.67188 17.5391 9.45312 17.5391 10.3613C17.5391 11.3574 16.9141 12.334 16.2109 13.252L13.8867 16.2988C13.6816 16.5625 13.4961 16.8359 13.4961 17.168C13.4961 17.5488 13.7402 17.8223 14.2383 17.8223Z" fill="black" fill-opacity="0.85"/>
 </g>
</svg>
