<?xml version="1.0" ?><!-- Generator: Adobe Illustrator 25.0.0, SVG Export Plug-In . SVG Version: 6.00 Build 0)  --><svg xmlns="http://www.w3.org/2000/svg" xmlns:xlink="http://www.w3.org/1999/xlink" version="1.1" id="Layer_1" x="0px" y="0px" viewBox="0 0 512 512" style="enable-background:new 0 0 512 512;" xml:space="preserve">
<path d="M256,512c140,0,256-116.2,256-256C512,116,395.8,0,255.7,0C116,0,0,116,0,256C0,395.8,116.2,512,256,512z M171.4,367.7  c-44.7,0-74-42.7-74-111.7s29.4-111.7,74-111.7c44.4,0,74,42.7,74,111.7S215.8,367.7,171.4,367.7z M291.6,361.7  c-9.3,0-15.1-6-15.1-15.3c0-5.3,1.5-9.8,5.8-14.1l68-80.3c12.3-14.3,25.9-28.9,25.9-45.7c0-19.1-13.3-31.9-34.1-31.9  c-18.6,0-31.6,9.3-38.1,28.9c-3.3,7.8-7.3,12-14.8,12c-9,0-14.6-6.3-14.6-15.6c0-3,0.5-6,1.3-9.3c6.8-26.4,34.1-46.2,65-46.2  c40.7,0,66.8,23.1,66.8,59.2c0,25.9-14.1,44.4-33.4,66.8L323.8,329v2h75c8.3,0,14.6,5.3,14.6,15.1c0,9.3-6.3,15.6-14.6,15.6H291.6z   M171.4,336.1c24.8,0,39.9-30.4,39.9-80.1s-15.3-80.1-39.9-80.1c-24.6,0-39.9,30.4-39.9,80.1S146.8,336.1,171.4,336.1z"/>
</svg>