<?xml version="1.0" encoding="UTF-8"?>
<!--Generator: Apple Native CoreSVG 326-->
<!DOCTYPE svg
PUBLIC "-//W3C//DTD SVG 1.1//EN"
       "http://www.w3.org/Graphics/SVG/1.1/DTD/svg11.dtd">
<svg version="1.1" xmlns="http://www.w3.org/2000/svg" xmlns:xlink="http://www.w3.org/1999/xlink" viewBox="0 0 25.8008 25.498">
 <g>
  <rect height="25.498" opacity="0" width="25.8008" x="0" y="0"/>
  <path d="M25.4395 12.7148C25.4395 19.7266 19.7266 25.4297 12.7148 25.4297C5.71289 25.4297 0 19.7266 0 12.7148C0 5.70312 5.71289 0 12.7148 0C19.7266 0 25.4395 5.70312 25.4395 12.7148ZM5.41016 12.7148C5.41016 15.2344 6.12305 18.1836 8.65234 18.1836C11.1816 18.1836 11.8945 15.2344 11.8945 12.7148C11.8945 10.1953 11.1816 7.24609 8.65234 7.24609C6.12305 7.24609 5.41016 10.1953 5.41016 12.7148ZM13.6523 9.18945C13.5742 9.44336 13.5449 9.67773 13.5449 9.87305C13.5449 10.2539 13.7988 10.5566 14.248 10.5566C14.6484 10.5566 14.8633 10.3906 14.9805 9.99023C15.166 9.17969 15.6152 8.62305 16.416 8.62305C17.3242 8.62305 17.7832 9.33594 17.7832 10.2441C17.7832 11.2305 17.1973 11.9727 16.1914 11.9727L15.8301 11.9727C15.4297 11.9727 15.1953 12.2266 15.1953 12.5879C15.1953 12.9688 15.4492 13.2031 15.8301 13.2031L16.2012 13.2031C17.3633 13.2031 18.0078 13.8281 18.0078 15.0391C18.0078 15.9863 17.5098 16.8164 16.4648 16.8164C15.4688 16.8164 14.9902 16.123 14.8438 15.4688C14.7363 15.0879 14.502 14.8828 14.1113 14.8828C13.6719 14.8828 13.3789 15.1562 13.3789 15.6055C13.3789 15.8203 13.418 16.0645 13.4766 16.2793C13.8477 17.4609 15.0879 18.1543 16.4648 18.1543C18.2617 18.1543 19.6289 16.9824 19.6289 15.0781C19.6289 13.5254 18.7305 12.666 17.5879 12.5586L17.5879 12.5098C18.7598 12.207 19.3262 11.1523 19.3262 10.0684C19.3262 8.33008 18.0664 7.29492 16.416 7.29492C15.0977 7.29492 14.0234 8.04688 13.6523 9.18945ZM10.2344 12.7148C10.2344 14.873 9.85352 16.8262 8.65234 16.8262C7.44141 16.8262 7.07031 14.873 7.07031 12.7148C7.07031 10.5664 7.44141 8.60352 8.65234 8.60352C9.85352 8.60352 10.2344 10.5664 10.2344 12.7148Z" fill="black" fill-opacity="0.85"/>
 </g>
</svg>
