<?xml version="1.0" ?><!-- Generator: Adobe Illustrator 25.0.0, SVG Export Plug-In . SVG Version: 6.00 Build 0)  --><svg xmlns="http://www.w3.org/2000/svg" xmlns:xlink="http://www.w3.org/1999/xlink" version="1.1" id="Layer_1" x="0px" y="0px" viewBox="0 0 512 512" style="enable-background:new 0 0 512 512;" xml:space="preserve">
<path d="M256,512c140,0,256-116.2,256-256C512,116,395.8,0,255.7,0C116,0,0,116,0,256C0,395.8,116.2,512,256,512z M168.7,367.7  c-44.4,0-74-42.7-74-111.7c0-69.3,29.6-111.7,74-111.7c44.7,0,74,42.4,74,111.7C242.7,325,213.3,367.7,168.7,367.7z M342.8,367.7  c-35.1,0-62.5-21.6-69.5-45.7c-0.8-3-1.3-5.8-1.3-9.3c0-9,6.3-15.6,15.1-15.6c7.3,0,11.5,4,14.8,12c7,18.3,20.8,28.4,41.2,28.4  c24.8,0,42.2-15.1,42.2-35.1c0-21.1-15.8-34.9-40.2-34.9h-15.3c-8.5,0-14.1-6.5-14.1-14.8c0-9.5,5.8-15.6,14.1-15.6h13.8  c20.8,0,35.1-13.6,35.1-32.4c0-18.1-14.3-30.4-34.6-30.4c-20.3,0-32.6,9.8-38.4,28.1c-2.5,8.3-6.8,12.3-14.6,12.3  c-8.8,0-14.8-6.5-14.8-15.8c0-3.3,0-6,0.8-9.3c6.8-25.3,32.6-45.4,67.8-45.4c38.4,0,66,23.1,66,56.2c0,24.3-16.8,45.9-38.4,49.4v1.5  c26.1,2.8,45.4,24.6,45.4,52.5C417.9,341.1,387,367.7,342.8,367.7z M168.7,336.1c24.8,0,40.2-30.6,40.2-80.1  c0-49.7-15.6-80.1-40.2-80.1c-24.3,0-39.9,30.4-39.9,80.1C128.8,305.4,144.3,336.1,168.7,336.1z"/>
</svg>