<?xml version="1.0" encoding="UTF-8"?>
<!--Generator: Apple Native CoreSVG 326-->
<!DOCTYPE svg
PUBLIC "-//W3C//DTD SVG 1.1//EN"
       "http://www.w3.org/Graphics/SVG/1.1/DTD/svg11.dtd">
<svg version="1.1" xmlns="http://www.w3.org/2000/svg" xmlns:xlink="http://www.w3.org/1999/xlink" viewBox="0 0 25.8008 25.459">
 <g>
  <rect height="25.459" opacity="0" width="25.8008" x="0" y="0"/>
  <path d="M12.7148 25.4395C19.7363 25.4395 25.4395 19.7461 25.4395 12.7246C25.4395 5.70312 19.7363 0 12.7148 0C5.69336 0 0 5.70312 0 12.7246C0 19.7461 5.69336 25.4395 12.7148 25.4395ZM12.7148 23.623C6.68945 23.623 1.81641 18.75 1.81641 12.7246C1.81641 6.69922 6.68945 1.82617 12.7148 1.82617C18.7402 1.82617 23.6133 6.69922 23.6133 12.7246C23.6133 18.75 18.7402 23.623 12.7148 23.623Z" fill="black" fill-opacity="0.85"/>
  <path d="M8.74023 18.0664C11.2012 18.0664 11.8945 15.1758 11.8945 12.7246C11.8945 10.2734 11.2012 7.38281 8.74023 7.38281C6.2793 7.38281 5.57617 10.2734 5.57617 12.7246C5.57617 15.1758 6.2793 18.0664 8.74023 18.0664ZM8.74023 16.748C7.54883 16.748 7.1875 14.8145 7.1875 12.7246C7.1875 10.625 7.54883 8.70117 8.74023 8.70117C9.92188 8.70117 10.293 10.625 10.293 12.7246C10.293 14.8145 9.92188 16.748 8.74023 16.748ZM16.3574 18.0273C18.1055 18.0273 19.4434 16.8945 19.4434 15.0195C19.4434 13.5059 18.5645 12.6758 17.4512 12.5586L17.4512 12.5195C18.5938 12.2168 19.1406 11.2012 19.1406 10.127C19.1406 8.4375 17.9102 7.43164 16.3086 7.43164C15.0195 7.43164 13.9746 8.16406 13.6133 9.27734C13.5449 9.52148 13.5156 9.74609 13.5156 9.95117C13.5156 10.3125 13.7598 10.6055 14.1895 10.6055C14.5801 10.6055 14.7852 10.4492 14.8926 10.0586C15.0879 9.26758 15.5176 8.71094 16.3086 8.71094C17.1973 8.71094 17.6465 9.41406 17.6465 10.3125C17.6465 11.2793 17.0801 12.002 16.0938 12.002L15.7324 12.002C15.3418 12.002 15.1172 12.2363 15.1172 12.5977C15.1172 12.959 15.3613 13.1836 15.7324 13.1836L16.1035 13.1836C17.2363 13.1836 17.8711 13.8086 17.8711 14.9805C17.8711 15.918 17.373 16.7285 16.3574 16.7285C15.3809 16.7285 14.9121 16.0449 14.7656 15.4102C14.668 15.0391 14.4336 14.8438 14.0625 14.8438C13.6328 14.8438 13.3496 15.1074 13.3496 15.5371C13.3496 15.752 13.3887 15.9961 13.4473 16.1914C13.8086 17.3438 15.0098 18.0273 16.3574 18.0273Z" fill="black" fill-opacity="0.85"/>
 </g>
</svg>
