<?xml version="1.0" ?><!-- Generator: Adobe Illustrator 25.0.0, SVG Export Plug-In . SVG Version: 6.00 Build 0)  --><svg xmlns="http://www.w3.org/2000/svg" xmlns:xlink="http://www.w3.org/1999/xlink" version="1.1" id="Layer_1" x="0px" y="0px" viewBox="0 0 512 512" style="enable-background:new 0 0 512 512;" xml:space="preserve">
<path d="M87.3,512h337.3c58.4,0,87.3-28.9,87.3-86.2V86.2C512,28.9,483.1,0,424.7,0H87.3C29.2,0,0,28.6,0,86.2v339.6  C0,483.4,29.2,512,87.3,512z M87.9,467.2c-27.8,0-43.1-14.7-43.1-43.7V88.4c0-28.9,15.3-43.7,43.1-43.7h336.2  c27.5,0,43.1,14.7,43.1,43.7v335.1c0,28.9-15.6,43.7-43.1,43.7H87.9z M162.7,375.4c47.8,0,79.5-45.9,79.5-119.9  s-31.7-119.9-79.5-119.9c-47.8,0-79.5,45.9-79.5,119.9S114.9,375.4,162.7,375.4z M349.9,375.4c47.3,0,80.4-28.4,80.4-68.4  c0-29.5-20.6-53.4-48.7-56.2v-1.7c23.1-3.9,41.2-27,41.2-53.1c0-35.6-29.2-60.3-70.9-60.3c-37.5,0-65.4,21.4-72.6,48.7  c-0.8,3.6-0.8,6.4-0.8,10c0,10,6.4,17,15.9,17c8.3,0,12.8-4.4,15.6-13.3c6.1-19.5,19.5-30.3,41.2-30.3c22.2,0,37.5,13.3,37.5,32.8  c0,20.3-15.6,35-37.8,35h-15c-8.9,0-15,6.4-15,16.4c0,8.9,6.1,15.9,15,15.9h16.4c26.4,0,43.4,15,43.4,37.5  c0,21.7-18.6,38.1-45.3,38.1c-22,0-37-10.8-44.5-30.3c-3.3-8.9-8.1-13.3-15.9-13.3c-9.2,0-16.1,7-16.1,16.7c0,3.9,0.6,6.7,1.7,10.3  C282.6,352.4,312,375.4,349.9,375.4z M162.7,341.8c-26.4,0-43.1-32.8-43.1-86.2s16.7-86.2,43.1-86.2c26.4,0,43.1,32.8,43.1,86.2  S189.4,341.8,162.7,341.8z"/>
</svg>