<?xml version="1.0" ?><!-- Generator: Adobe Illustrator 25.0.0, SVG Export Plug-In . SVG Version: 6.00 Build 0)  --><svg xmlns="http://www.w3.org/2000/svg" xmlns:xlink="http://www.w3.org/1999/xlink" version="1.1" id="Layer_1" x="0px" y="0px" viewBox="0 0 512 512" style="enable-background:new 0 0 512 512;" xml:space="preserve">
<path d="M87.3,512h337.3c58.4,0,87.3-28.9,87.3-86.2V86.2C512,28.9,483.1,0,424.7,0H87.3C29.2,0,0,28.6,0,86.2v339.6  C0,483.4,29.2,512,87.3,512z M157.4,379.3c-49.5,0-82-47.3-82-123.8s32.5-123.8,82-123.8c49.2,0,82,47.3,82,123.8  S206.6,379.3,157.4,379.3z M394.4,378.8c-11.4,0-17.5-8.3-17.5-19.5v-33.7h-83.4c-14.7,0-24.5-9.2-24.5-24.5  c0-7.8,1.4-14.2,6.4-23.1c19.2-34.8,47.8-83.7,71.8-124c9.5-15.9,19.5-22.2,36.2-22.2c17,0,28.6,10.8,28.6,27.5v134h15.3  c9.7,0,16.4,6.1,16.4,16.4c0,10-6.4,15.9-16.4,15.9h-15.3v33.7C411.9,370.7,405.8,378.8,394.4,378.8z M157.4,344.3  c27.5,0,44.2-33.7,44.2-88.7s-17-88.7-44.2-88.7c-27.3,0-44.2,33.7-44.2,88.7S130.2,344.3,157.4,344.3z M376.8,293.4V170.8h-1.4  c-22.8,38.9-52.3,89-69,121.5v1.1H376.8z"/>
</svg>