<?xml version="1.0" encoding="UTF-8"?>
<!--Generator: Apple Native CoreSVG 326-->
<!DOCTYPE svg
PUBLIC "-//W3C//DTD SVG 1.1//EN"
       "http://www.w3.org/Graphics/SVG/1.1/DTD/svg11.dtd">
<svg version="1.1" xmlns="http://www.w3.org/2000/svg" xmlns:xlink="http://www.w3.org/1999/xlink" viewBox="0 0 23.3203 22.959">
 <g>
  <rect height="22.959" opacity="0" width="23.3203" x="0" y="0"/>
  <path d="M22.959 3.76953L22.959 19.1992C22.959 21.6797 21.6797 22.959 19.1504 22.959L3.79883 22.959C1.2793 22.959 0 21.6992 0 19.1992L0 3.76953C0 1.26953 1.2793 0 3.79883 0L19.1504 0C21.6797 0 22.959 1.2793 22.959 3.76953ZM4.17969 11.4746C4.17969 13.9941 4.90234 16.9434 7.43164 16.9434C9.95117 16.9434 10.6641 13.9941 10.6641 11.4746C10.6641 8.95508 9.95117 6.00586 7.43164 6.00586C4.90234 6.00586 4.17969 8.95508 4.17969 11.4746ZM14.873 7.2168L12.3633 12.5195C12.1777 12.959 12.0996 13.252 12.0996 13.6133C12.0996 14.1699 12.4902 14.5508 13.0566 14.5508L16.0645 14.5508L16.0645 16.0352C16.0645 16.6211 16.4746 16.8555 16.8457 16.8555C17.2754 16.8555 17.627 16.5723 17.627 16.0352L17.627 14.5508L18.1738 14.5508C18.6133 14.5508 18.8281 14.2676 18.8281 13.877C18.8281 13.5059 18.6133 13.2227 18.1738 13.2227L17.627 13.2227L17.627 7.32422C17.627 6.50391 17.0996 6.09375 16.377 6.09375C15.5664 6.09375 15.1953 6.50391 14.873 7.2168ZM9.01367 11.4746C9.01367 13.623 8.63281 15.5859 7.43164 15.5859C6.23047 15.5859 5.84961 13.623 5.84961 11.4746C5.84961 9.31641 6.23047 7.36328 7.43164 7.36328C8.63281 7.36328 9.01367 9.31641 9.01367 11.4746ZM16.0938 13.252L13.5254 13.252L13.5254 13.1836L16.0449 7.57812L16.0938 7.57812Z" fill="black" fill-opacity="0.85"/>
 </g>
</svg>
