<?xml version="1.0" ?><!-- Generator: Adobe Illustrator 25.0.0, SVG Export Plug-In . SVG Version: 6.00 Build 0)  --><svg xmlns="http://www.w3.org/2000/svg" xmlns:xlink="http://www.w3.org/1999/xlink" version="1.1" id="Layer_1" x="0px" y="0px" viewBox="0 0 512 512" style="enable-background:new 0 0 512 512;" xml:space="preserve">
<path d="M256,512c140,0,256-116.2,256-256C512,116,395.8,0,255.7,0C116,0,0,116,0,256C0,395.8,116.2,512,256,512z M168.2,367.7  c-44.4,0-74-42.7-74-111.7s29.6-111.7,74-111.7c44.7,0,74,42.7,74,111.7S212.8,367.7,168.2,367.7z M343.6,367.7  c-32.4,0-58.2-17.1-65.8-38.7c-1.5-3.5-2.3-7.5-2.3-11.8c0-8.5,6-15.1,14.6-15.1c6,0,11.3,3.8,15.1,11.3  c7.3,15.6,22.6,24.8,40.2,24.8c24.8,0,41.9-16.3,41.9-43.4c0-23.8-15.3-41.9-38.1-41.9c-11.3,0-19.6,3.8-30.1,13.1  c-8.3,6.8-13.3,9-21.1,9c-12,0-19.3-9-18.3-22.6l6.3-80.6c0.8-13.8,10-22.1,23.8-22.1h88.6c7.5,0,13.1,6.3,13.1,14.6  c0,8.5-5.8,14.6-13.1,14.6h-85.6l-4.8,66.5h1.3c7.5-11.8,26.1-20.3,43.4-20.3c40.2,0,67,29.1,67,69  C419.6,339.6,389.3,367.7,343.6,367.7z M168.2,336.1c24.8,0,39.9-30.4,39.9-80.1s-15.3-80.1-39.9-80.1c-24.3,0-39.9,30.4-39.9,80.1  S143.8,336.1,168.2,336.1z"/>
</svg>