<?xml version="1.0" ?><!-- Generator: Adobe Illustrator 25.0.0, SVG Export Plug-In . SVG Version: 6.00 Build 0)  --><svg xmlns="http://www.w3.org/2000/svg" xmlns:xlink="http://www.w3.org/1999/xlink" version="1.1" id="Layer_1" x="0px" y="0px" viewBox="0 0 512 512" style="enable-background:new 0 0 512 512;" xml:space="preserve">
<path d="M87.3,512h337.3c58.4,0,87.3-28.9,87.3-86.2V86.2C512,28.9,483.1,0,424.7,0H87.3C29.2,0,0,28.6,0,86.2v339.6  C0,483.4,29.2,512,87.3,512z M159.1,379.3c-49.2,0-82-47.3-82-123.8s32.8-123.8,82-123.8c49.5,0,82,47.3,82,123.8  S208.6,379.3,159.1,379.3z M353.5,379.3c-35.9,0-64.2-18.9-72.9-42.8c-1.7-3.9-2.5-8.3-2.5-13.1c0-9.5,6.7-16.7,16.1-16.7  c6.7,0,12.5,4.2,16.7,12.5c8.3,17.2,25,27.5,44.5,27.5c27.5,0,46.4-18.1,46.4-48.1c0-26.4-17-46.4-42.3-46.4  c-12.5,0-21.7,4.2-33.4,14.5c-9.2,7.5-14.5,10-23.4,10c-13.3,0-21.4-10-20.3-25l7-89.3c0.8-15.3,11.1-24.5,26.4-24.5h98.2  c8.6,0,14.5,7,14.5,16.1c0,9.5-6.1,16.1-14.5,16.1h-94.6l-5.6,73.7h1.4c8.3-13.1,29.2-22.5,48.1-22.5c44.5,0,74.3,32.3,74.3,76.5  C437.7,348.2,404.1,379.3,353.5,379.3z M159.1,344.3c27.8,0,44.2-33.7,44.2-88.7s-16.7-88.7-44.2-88.7c-27,0-44.2,33.7-44.2,88.7  S132.1,344.3,159.1,344.3z"/>
</svg>