<?xml version="1.0" ?><!-- Generator: Adobe Illustrator 25.0.0, SVG Export Plug-In . SVG Version: 6.00 Build 0)  --><svg xmlns="http://www.w3.org/2000/svg" xmlns:xlink="http://www.w3.org/1999/xlink" version="1.1" id="Layer_1" x="0px" y="0px" viewBox="0 0 512 512" style="enable-background:new 0 0 512 512;" xml:space="preserve">
<path d="M256,512c140,0,256-116.2,256-256C512,116,395.8,0,255.7,0C116,0,0,116,0,256C0,395.8,116.2,512,256,512z M256,469.3  c-118.5,0-213.1-94.9-213.1-213.3S137.3,42.7,255.7,42.7S469.1,137.5,469.3,256S374.5,469.3,256,469.3z M170.7,364.2  c43.4,0,72-41.2,72-108.2c0-66.8-28.6-107.9-72-107.9c-43.2,0-71.8,41.2-71.8,107.9C98.9,323,127.5,364.2,170.7,364.2z M345.6,364.4  c40.9,0,69.8-26.6,69.8-72.8c0-43.2-29.4-66.8-62-66.8c-26.6,0-43.7,15.1-49.7,31.6h-2v-2.3c0-47.7,19.3-77.3,47.4-77.3  c14.6,0,24.6,7,30.9,16.6c4.5,6.5,8.3,9.3,15.1,9.3c7,0,12.5-5.3,12.5-13.6c0-3.3-0.8-6.3-2-9.5c-6.5-17.1-26.6-31.6-55.2-31.6  c-48.2,0-78.1,37.4-78.1,113.7c0,30.6,5,53.2,13.6,69C298.7,354.9,320.2,364.4,345.6,364.4z M170.7,333.8  c-23.8,0-38.7-29.6-38.7-77.8c0-47.9,14.8-77.6,38.7-77.6c24.1,0,38.9,29.6,38.9,77.6C209.6,304.2,195,333.8,170.7,333.8z   M344.3,336.8c-23.3,0-39.7-18.1-39.7-43.9c0-24.8,16.1-42.2,39.7-42.2c23.6,0,39.4,17.3,39.4,42.4  C383.7,319.7,368.4,336.8,344.3,336.8z"/>
</svg>