<?xml version="1.0" encoding="UTF-8"?>
<!--Generator: Apple Native CoreSVG 326-->
<!DOCTYPE svg
PUBLIC "-//W3C//DTD SVG 1.1//EN"
       "http://www.w3.org/Graphics/SVG/1.1/DTD/svg11.dtd">
<svg version="1.1" xmlns="http://www.w3.org/2000/svg" xmlns:xlink="http://www.w3.org/1999/xlink" viewBox="0 0 25.8008 25.459">
 <g>
  <rect height="25.459" opacity="0" width="25.8008" x="0" y="0"/>
  <path d="M12.7148 25.4395C19.7363 25.4395 25.4395 19.7461 25.4395 12.7246C25.4395 5.70312 19.7363 0 12.7148 0C5.69336 0 0 5.70312 0 12.7246C0 19.7461 5.69336 25.4395 12.7148 25.4395ZM12.7148 23.623C6.68945 23.623 1.81641 18.75 1.81641 12.7246C1.81641 6.69922 6.68945 1.82617 12.7148 1.82617C18.7402 1.82617 23.6133 6.69922 23.6133 12.7246C23.6133 18.75 18.7402 23.623 12.7148 23.623Z" fill="black" fill-opacity="0.85"/>
  <path d="M8.64258 18.0664C11.1035 18.0664 11.7969 15.1758 11.7969 12.7246C11.7969 10.2734 11.1035 7.38281 8.64258 7.38281C6.18164 7.38281 5.48828 10.2734 5.48828 12.7246C5.48828 15.1758 6.18164 18.0664 8.64258 18.0664ZM8.64258 16.748C7.46094 16.748 7.08984 14.8145 7.08984 12.7246C7.08984 10.625 7.46094 8.70117 8.64258 8.70117C9.82422 8.70117 10.1953 10.625 10.1953 12.7246C10.1953 14.8145 9.82422 16.748 8.64258 16.748ZM16.5137 18.0664C18.3887 18.0664 19.4531 16.4453 19.4531 14.4922C19.4531 12.793 18.6328 11.1621 16.9531 11.1621C15.8887 11.1621 15.1172 11.9043 14.8438 13.0078L14.7949 13.0078C14.7949 12.959 14.7949 12.9004 14.7949 12.8516C14.7949 11.377 14.9902 8.70117 16.4941 8.70117C17.1387 8.70117 17.5488 9.16992 17.7832 9.77539C17.9297 10.1172 18.1348 10.3027 18.5059 10.3027C18.9453 10.3027 19.1406 10.0098 19.1406 9.63867C19.1406 9.50195 19.1211 9.3457 19.082 9.17969C18.7988 8.08594 17.7637 7.40234 16.5332 7.40234C14.0039 7.40234 13.291 10.3809 13.291 12.8711C13.291 15.2441 14.0332 18.0664 16.5137 18.0664ZM16.4941 16.7676C15.4688 16.7676 15.0195 15.5078 15.0195 14.502C15.0195 13.5059 15.5078 12.3828 16.4844 12.3828C17.4902 12.3828 17.9297 13.5449 17.9102 14.5605C17.9102 15.5664 17.4512 16.7676 16.4941 16.7676Z" fill="black" fill-opacity="0.85"/>
 </g>
</svg>
