<?xml version="1.0" ?><!-- Generator: Adobe Illustrator 25.0.0, SVG Export Plug-In . SVG Version: 6.00 Build 0)  --><svg xmlns="http://www.w3.org/2000/svg" xmlns:xlink="http://www.w3.org/1999/xlink" version="1.1" id="Layer_1" x="0px" y="0px" viewBox="0 0 512 512" style="enable-background:new 0 0 512 512;" xml:space="preserve">
<path d="M87.3,512h337.3c58.4,0,87.3-28.9,87.3-86.2V86.2C512,28.9,483.1,0,424.7,0H87.3C29.2,0,0,28.6,0,86.2v339.6  C0,483.4,29.2,512,87.3,512z M159.1,379.3c-49.5,0-82-47.6-82-123.8c0-76.5,32.5-123.8,82-123.8s82,47.3,82,123.8  C241.1,331.8,208.6,379.3,159.1,379.3z M358.8,379.6c-28.9,0-53.7-11.1-68.1-38.9c-10-17.8-15.6-43.4-15.6-78.4  c0-87.3,34.2-130.4,89.3-130.4c32.5,0,55.6,17,62.9,36.2c1.7,3.9,2.5,7.2,2.5,11.1c0,9.5-6.4,15.9-14.2,15.9  c-8.1,0-12.5-3.6-17.2-10.8c-7.5-11.1-18.9-18.9-35.6-18.9c-32,0-53.7,33.9-53.7,87.9v2.8h1.9c7-18.9,26.4-36.2,56.7-36.2  c37.3,0,71.2,27.3,71.2,76.5C438.9,348.7,405.5,379.6,358.8,379.6z M159.1,344.3c27.5,0,43.9-33.7,43.9-88.7s-16.7-88.7-43.9-88.7  c-27.3,0-44.2,33.7-44.2,88.7S131.8,344.3,159.1,344.3z M357.4,347.9c27.5,0,45.1-19.5,45.1-50.1c0-28.6-18.4-48.4-45.1-48.4  c-27,0-45.3,20-45.3,48.1C312,327.1,330.7,347.9,357.4,347.9z"/>
</svg>