<?xml version="1.0" ?><!-- Generator: Adobe Illustrator 25.0.0, SVG Export Plug-In . SVG Version: 6.00 Build 0)  --><svg xmlns="http://www.w3.org/2000/svg" xmlns:xlink="http://www.w3.org/1999/xlink" version="1.1" id="Layer_1" x="0px" y="0px" viewBox="0 0 512 512" style="enable-background:new 0 0 512 512;" xml:space="preserve">
<path d="M87.3,512h337.3c58.4,0,87.3-28.9,87.3-86.2V86.2C512,28.9,483.1,0,424.7,0H87.3C29.2,0,0,28.6,0,86.2v339.6  C0,483.4,29.2,512,87.3,512z M87.9,467.2c-27.8,0-43.1-14.7-43.1-43.7V88.4c0-28.9,15.3-43.7,43.1-43.7h336.2  c27.5,0,43.1,14.7,43.1,43.7v335.1c0,28.9-15.6,43.7-43.1,43.7H87.9z M162.1,375.4c47.8,0,79.5-45.9,79.5-119.9  S210,135.7,162.1,135.7c-48.1,0-79.5,45.9-79.5,119.9S114,375.4,162.1,375.4z M355.7,375.7c45.3,0,77.6-29.8,77.6-80.7  c0-47.8-32.8-74.3-69-74.3c-29.5,0-48.4,16.7-55.1,35h-1.9v-2.5c0-52.6,21.1-85.7,52.3-85.7c16.1,0,27.3,7.8,34.5,18.6  c4.7,7,8.9,10.3,16.7,10.3c7.5,0,13.6-6.1,13.6-15.3c0-3.6-0.8-7-2.2-10.6c-7.2-18.6-29.5-35-61.2-35c-53.4,0-86.5,41.7-86.5,126.3  c0,33.9,5.6,58.7,15,76.2C303.7,364.9,327.6,375.7,355.7,375.7z M162.1,341.8c-26.7,0-43.1-32.8-43.1-86.2s16.4-86.2,43.1-86.2  c26.4,0,42.8,32.8,42.8,86.2S188.8,341.8,162.1,341.8z M354.3,345.1c-25.9,0-43.9-20.3-43.9-48.9c0-27.3,17.8-46.7,43.9-46.7  c26.1,0,43.9,19.2,43.9,47C398.3,326.2,381,345.1,354.3,345.1z"/>
</svg>