<?xml version="1.0" encoding="UTF-8"?>
<!--Generator: Apple Native CoreSVG 326-->
<!DOCTYPE svg
PUBLIC "-//W3C//DTD SVG 1.1//EN"
       "http://www.w3.org/Graphics/SVG/1.1/DTD/svg11.dtd">
<svg version="1.1" xmlns="http://www.w3.org/2000/svg" xmlns:xlink="http://www.w3.org/1999/xlink" viewBox="0 0 23.3203 22.959">
 <g>
  <rect height="22.959" opacity="0" width="23.3203" x="0" y="0"/>
  <path d="M3.79883 22.959L19.1504 22.959C21.6797 22.959 22.959 21.6797 22.959 19.1992L22.959 3.76953C22.959 1.2793 21.6797 0 19.1504 0L3.79883 0C1.2793 0 0 1.26953 0 3.76953L0 19.1992C0 21.6992 1.2793 22.959 3.79883 22.959ZM3.83789 21.2305C2.4707 21.2305 1.72852 20.5078 1.72852 19.1016L1.72852 3.85742C1.72852 2.46094 2.4707 1.72852 3.83789 1.72852L19.1211 1.72852C20.459 1.72852 21.2305 2.46094 21.2305 3.85742L21.2305 19.1016C21.2305 20.5078 20.459 21.2305 19.1211 21.2305Z" fill="black" fill-opacity="0.85"/>
  <path d="M7.42188 16.8164C9.88281 16.8164 10.5762 13.9258 10.5762 11.4746C10.5762 9.02344 9.88281 6.13281 7.42188 6.13281C4.96094 6.13281 4.26758 9.02344 4.26758 11.4746C4.26758 13.9258 4.96094 16.8164 7.42188 16.8164ZM7.42188 15.498C6.24023 15.498 5.86914 13.5645 5.86914 11.4746C5.86914 9.375 6.24023 7.45117 7.42188 7.45117C8.60352 7.45117 8.97461 9.375 8.97461 11.4746C8.97461 13.5645 8.60352 15.498 7.42188 15.498ZM15.293 16.8164C17.168 16.8164 18.2227 15.1953 18.2227 13.2422C18.2227 11.543 17.4023 9.91211 15.7324 9.91211C14.668 9.91211 13.8965 10.6543 13.623 11.7578L13.5742 11.7578C13.5742 11.709 13.5742 11.6504 13.5742 11.6016C13.5742 10.127 13.7695 7.45117 15.2734 7.45117C15.918 7.45117 16.3281 7.91992 16.5625 8.52539C16.709 8.86719 16.9141 9.05273 17.2852 9.05273C17.7246 9.05273 17.9199 8.75977 17.9199 8.38867C17.9199 8.25195 17.9004 8.0957 17.8516 7.92969C17.5781 6.83594 16.543 6.15234 15.3125 6.15234C12.7832 6.15234 12.0703 9.13086 12.0703 11.6211C12.0703 13.9941 12.8125 16.8164 15.293 16.8164ZM15.2734 15.5176C14.2383 15.5176 13.7988 14.2578 13.7988 13.252C13.7988 12.2559 14.2871 11.1328 15.2637 11.1328C16.2695 11.1328 16.709 12.2949 16.6895 13.3105C16.6895 14.3164 16.2305 15.5176 15.2734 15.5176Z" fill="black" fill-opacity="0.85"/>
 </g>
</svg>
