<?xml version="1.0" encoding="UTF-8"?>
<!--Generator: Apple Native CoreSVG 326-->
<!DOCTYPE svg
PUBLIC "-//W3C//DTD SVG 1.1//EN"
       "http://www.w3.org/Graphics/SVG/1.1/DTD/svg11.dtd">
<svg version="1.1" xmlns="http://www.w3.org/2000/svg" xmlns:xlink="http://www.w3.org/1999/xlink" viewBox="0 0 25.8008 25.459">
 <g>
  <rect height="25.459" opacity="0" width="25.8008" x="0" y="0"/>
  <path d="M25.4395 12.7246C25.4395 19.7266 19.7266 25.4395 12.7148 25.4395C5.71289 25.4395 0 19.7266 0 12.7246C0 5.71289 5.71289 0 12.7148 0C19.7266 0 25.4395 5.71289 25.4395 12.7246ZM5.92773 12.7246C5.92773 15.2441 6.65039 18.1934 9.16992 18.1934C11.6992 18.1934 12.4121 15.2441 12.4121 12.7246C12.4121 10.2051 11.6992 7.25586 9.16992 7.25586C6.65039 7.25586 5.92773 10.2051 5.92773 12.7246ZM14.1406 7.5C13.75 7.5 13.4766 7.7832 13.4766 8.17383C13.4766 8.57422 13.75 8.85742 14.1406 8.85742L17.6172 8.85742L17.6172 8.96484L14.6289 16.7188C14.5312 16.9824 14.4922 17.1289 14.4922 17.3926C14.4922 17.7441 14.707 18.1055 15.2441 18.1055C15.6641 18.1055 15.8496 17.9395 16.0156 17.5195L19.0527 9.35547C19.1797 9.01367 19.2676 8.73047 19.2676 8.38867C19.2676 7.85156 18.8672 7.5 18.3398 7.5ZM10.752 12.7246C10.752 14.873 10.3711 16.8359 9.16992 16.8359C7.96875 16.8359 7.58789 14.873 7.58789 12.7246C7.58789 10.5664 7.96875 8.61328 9.16992 8.61328C10.3711 8.61328 10.752 10.5664 10.752 12.7246Z" fill="black" fill-opacity="0.85"/>
 </g>
</svg>
