<?xml version="1.0" encoding="UTF-8"?>
<!--Generator: Apple Native CoreSVG 326-->
<!DOCTYPE svg
PUBLIC "-//W3C//DTD SVG 1.1//EN"
       "http://www.w3.org/Graphics/SVG/1.1/DTD/svg11.dtd">
<svg version="1.1" xmlns="http://www.w3.org/2000/svg" xmlns:xlink="http://www.w3.org/1999/xlink" viewBox="0 0 23.3203 22.959">
 <g>
  <rect height="22.959" opacity="0" width="23.3203" x="0" y="0"/>
  <path d="M22.959 3.76953L22.959 19.1992C22.959 21.6797 21.6797 22.959 19.1504 22.959L3.79883 22.959C1.2793 22.959 0 21.6992 0 19.1992L0 3.76953C0 1.26953 1.2793 0 3.79883 0L19.1504 0C21.6797 0 22.959 1.2793 22.959 3.76953ZM4.69727 11.4746C4.69727 13.9941 5.41992 16.9434 7.93945 16.9434C10.4688 16.9434 11.1816 13.9941 11.1816 11.4746C11.1816 8.95508 10.4688 6.00586 7.93945 6.00586C5.41992 6.00586 4.69727 8.95508 4.69727 11.4746ZM12.9102 6.25C12.5195 6.25 12.2461 6.5332 12.2461 6.92383C12.2461 7.32422 12.5195 7.60742 12.9102 7.60742L16.377 7.60742L16.377 7.71484L13.3984 15.4688C13.3008 15.7324 13.2617 15.8789 13.2617 16.1426C13.2617 16.4941 13.4766 16.8555 14.0137 16.8555C14.4336 16.8555 14.6191 16.6895 14.7852 16.2695L17.8223 8.10547C17.9492 7.76367 18.0371 7.48047 18.0371 7.13867C18.0371 6.60156 17.6367 6.25 17.1094 6.25ZM9.52148 11.4746C9.52148 13.623 9.14062 15.5859 7.93945 15.5859C6.73828 15.5859 6.35742 13.623 6.35742 11.4746C6.35742 9.31641 6.73828 7.36328 7.93945 7.36328C9.14062 7.36328 9.52148 9.31641 9.52148 11.4746Z" fill="black" fill-opacity="0.85"/>
 </g>
</svg>
