<?xml version="1.0" ?><!-- Generator: Adobe Illustrator 25.0.0, SVG Export Plug-In . SVG Version: 6.00 Build 0)  --><svg xmlns="http://www.w3.org/2000/svg" xmlns:xlink="http://www.w3.org/1999/xlink" version="1.1" id="Layer_1" x="0px" y="0px" viewBox="0 0 512 512" style="enable-background:new 0 0 512 512;" xml:space="preserve">
<path d="M256,512c140,0,256-116.2,256-256C512,116,395.8,0,255.7,0C116,0,0,116,0,256C0,395.8,116.2,512,256,512z M256,469.3  c-118.5,0-213.1-94.9-213.1-213.3S137.3,42.7,255.7,42.7S469.1,137.5,469.3,256S374.5,469.3,256,469.3z M171.9,364.2  c43.2,0,71.8-41.2,71.8-108.2c0-66.8-28.6-107.9-71.8-107.9s-71.8,41.2-71.8,107.9C100.1,323,128.8,364.2,171.9,364.2z M342.6,364.2  c43.7,0,73.5-24.8,73.5-61.5c0-25.6-15.6-46.4-42.7-51.7v-1.5c23.1-6.3,35.4-24.3,35.4-46.4c0-32.6-27.1-55-65.8-55  c-38.4,0-65.5,22.3-65.5,55c0,22.1,12,39.4,35.4,46.4v1.5c-27.4,5.3-42.7,26.4-42.7,52C270.3,339.6,299.2,364.2,342.6,364.2z   M343.1,239.2c-19.6,0-33.4-13.8-33.4-32.9c0-19.3,13.8-32.4,33.4-32.4c19.8,0,33.6,13.1,33.6,32.4  C376.7,225.4,362.9,239.2,343.1,239.2z M171.9,333.8c-23.8,0-38.9-29.6-38.9-77.8c0-47.9,15.1-77.6,38.9-77.6s38.9,29.6,38.9,77.6  C210.8,304.2,196,333.8,171.9,333.8z M343.3,338.3c-23.8,0-41.2-15.3-41.2-37.4c0-21.8,17.3-37.4,41.2-37.4  c24.3,0,41.2,15.3,41.2,37.4C384.5,323,367.2,338.3,343.3,338.3z"/>
</svg>