<?xml version="1.0" encoding="UTF-8"?>
<!--Generator: Apple Native CoreSVG 326-->
<!DOCTYPE svg
PUBLIC "-//W3C//DTD SVG 1.1//EN"
       "http://www.w3.org/Graphics/SVG/1.1/DTD/svg11.dtd">
<svg version="1.1" xmlns="http://www.w3.org/2000/svg" xmlns:xlink="http://www.w3.org/1999/xlink" viewBox="0 0 25.8008 25.459">
 <g>
  <rect height="25.459" opacity="0" width="25.8008" x="0" y="0"/>
  <path d="M25.4395 12.7246C25.4395 19.7266 19.7266 25.4395 12.7148 25.4395C5.71289 25.4395 0 19.7266 0 12.7246C0 5.71289 5.71289 0 12.7148 0C19.7266 0 25.4395 5.71289 25.4395 12.7246ZM5.46875 12.7246C5.46875 15.2441 6.18164 18.1934 8.71094 18.1934C11.2305 18.1934 11.9531 15.2441 11.9531 12.7246C11.9531 10.2051 11.2305 7.25586 8.71094 7.25586C6.18164 7.25586 5.46875 10.2051 5.46875 12.7246ZM13.7598 10.0781C13.7598 11.3477 14.5312 12.1484 15.3906 12.4121L15.3906 12.4512C14.2969 12.7051 13.4668 13.75 13.4668 15.127C13.4668 16.9824 14.8438 18.1543 16.6992 18.1543C18.6816 18.1543 19.9609 16.875 19.9609 15.127C19.9609 13.7402 19.0918 12.6953 18.0469 12.4512L18.0469 12.4121C18.9453 12.1387 19.668 11.2695 19.668 10.0879C19.668 8.45703 18.4863 7.30469 16.6992 7.30469C15.1172 7.30469 13.7598 8.32031 13.7598 10.0781ZM18.252 15C18.252 16.0254 17.7246 16.9043 16.709 16.9043C15.7031 16.9043 15.166 16.0254 15.166 15C15.166 13.9844 15.7031 13.1445 16.709 13.1445C17.666 13.1445 18.252 13.9258 18.252 15ZM10.293 12.7246C10.293 14.873 9.91211 16.8359 8.71094 16.8359C7.50977 16.8359 7.12891 14.873 7.12891 12.7246C7.12891 10.5664 7.50977 8.61328 8.71094 8.61328C9.91211 8.61328 10.293 10.5664 10.293 12.7246ZM18.0762 10.2441C18.0762 11.1523 17.5684 11.8848 16.709 11.8848C15.8594 11.8848 15.3516 11.1133 15.3516 10.2441C15.3516 9.33594 15.8496 8.54492 16.709 8.54492C17.6172 8.54492 18.0762 9.36523 18.0762 10.2441Z" fill="black" fill-opacity="0.85"/>
 </g>
</svg>
