<?xml version="1.0" encoding="UTF-8"?>
<!--Generator: Apple Native CoreSVG 326-->
<!DOCTYPE svg
PUBLIC "-//W3C//DTD SVG 1.1//EN"
       "http://www.w3.org/Graphics/SVG/1.1/DTD/svg11.dtd">
<svg version="1.1" xmlns="http://www.w3.org/2000/svg" xmlns:xlink="http://www.w3.org/1999/xlink" viewBox="0 0 25.8008 25.459">
 <g>
  <rect height="25.459" opacity="0" width="25.8008" x="0" y="0"/>
  <path d="M12.7148 25.4395C19.7363 25.4395 25.4395 19.7461 25.4395 12.7246C25.4395 5.70312 19.7363 0 12.7148 0C5.69336 0 0 5.70312 0 12.7246C0 19.7461 5.69336 25.4395 12.7148 25.4395ZM12.7148 23.623C6.68945 23.623 1.81641 18.75 1.81641 12.7246C1.81641 6.69922 6.68945 1.82617 12.7148 1.82617C18.7402 1.82617 23.6133 6.69922 23.6133 12.7246C23.6133 18.75 18.7402 23.623 12.7148 23.623Z" fill="black" fill-opacity="0.85"/>
  <path d="M8.79883 18.0664C11.2598 18.0664 11.9629 15.1758 11.9629 12.7246C11.9629 10.2734 11.2598 7.38281 8.79883 7.38281C6.33789 7.38281 5.64453 10.2734 5.64453 12.7246C5.64453 15.1758 6.33789 18.0664 8.79883 18.0664ZM8.79883 16.748C7.61719 16.748 7.24609 14.8145 7.24609 12.7246C7.24609 10.625 7.61719 8.70117 8.79883 8.70117C9.98047 8.70117 10.3516 10.625 10.3516 12.7246C10.3516 14.8145 9.98047 16.748 8.79883 16.748ZM16.5918 18.0273C18.5254 18.0273 19.7656 16.7773 19.7656 15.0684C19.7656 13.7207 18.916 12.6953 17.9004 12.4609L17.9004 12.4219C18.7695 12.1484 19.4824 11.2988 19.4824 10.1562C19.4824 8.56445 18.3301 7.43164 16.5918 7.43164C15.0488 7.43164 13.7305 8.42773 13.7305 10.1465C13.7305 11.377 14.4629 12.1582 15.3125 12.4219L15.3125 12.4609C14.248 12.7051 13.4375 13.7305 13.4375 15.0684C13.4375 16.8652 14.7754 18.0273 16.5918 18.0273ZM16.6016 11.9043C15.7715 11.9043 15.2637 11.1523 15.2637 10.3027C15.2637 9.41406 15.7617 8.63281 16.6016 8.63281C17.4902 8.63281 17.9297 9.44336 17.9297 10.3027C17.9297 11.1914 17.4414 11.9043 16.6016 11.9043ZM16.6016 16.8164C15.6152 16.8164 15.0879 15.9473 15.0879 14.9512C15.0879 13.9551 15.6152 13.125 16.6016 13.125C17.5391 13.125 18.1152 13.8965 18.1152 14.9512C18.1152 15.9473 17.5977 16.8164 16.6016 16.8164Z" fill="black" fill-opacity="0.85"/>
 </g>
</svg>
