<?xml version="1.0" ?><!-- Generator: Adobe Illustrator 25.0.0, SVG Export Plug-In . SVG Version: 6.00 Build 0)  --><svg xmlns="http://www.w3.org/2000/svg" xmlns:xlink="http://www.w3.org/1999/xlink" version="1.1" id="Layer_1" x="0px" y="0px" viewBox="0 0 512 512" style="enable-background:new 0 0 512 512;" xml:space="preserve">
<path d="M87.3,512h337.3c58.4,0,87.3-28.9,87.3-86.2V86.2C512,28.9,483.1,0,424.7,0H87.3C29.2,0,0,28.6,0,86.2v339.6  C0,483.4,29.2,512,87.3,512z M160.2,379.3c-49.2,0-82-47.3-82-123.8s32.8-123.8,82-123.8c49.5,0,82,47.3,82,123.8  S209.7,379.3,160.2,379.3z M355.7,379.3c-50.1,0-83.2-28.1-83.2-70.1c0-29.2,17.8-53.4,48.9-59.8v-1.7  c-26.7-7.8-40.6-27.8-40.6-52.8c0-37.3,31.1-63.1,75.4-63.1c43.7,0,74.8,25.9,74.8,63.1c0,25-14.2,45.6-40.6,52.8v1.7  c31.1,6.4,48.9,30.3,48.9,59.5C439.4,350.7,405.2,379.3,355.7,379.3z M356.3,236.4c22.2,0,37.8-16.1,37.8-37.8  c0-21.7-15.6-36.7-37.8-36.7c-22.8,0-38.4,15-38.4,36.7C317.9,220.3,333.5,236.4,356.3,236.4z M160.2,344.3  c27.5,0,44.2-33.7,44.2-88.7s-17-88.7-44.2-88.7c-27,0-44.2,33.7-44.2,88.7S133.2,344.3,160.2,344.3z M356.5,349.3  c26.7,0,46.4-17.5,46.4-42.6c0-25-19.2-42.8-46.4-42.8c-27.5,0-47.3,18.1-47.3,42.8C309.3,331.8,329,349.3,356.5,349.3z"/>
</svg>