<?xml version="1.0" encoding="UTF-8"?>
<!--Generator: Apple Native CoreSVG 326-->
<!DOCTYPE svg
PUBLIC "-//W3C//DTD SVG 1.1//EN"
       "http://www.w3.org/Graphics/SVG/1.1/DTD/svg11.dtd">
<svg version="1.1" xmlns="http://www.w3.org/2000/svg" xmlns:xlink="http://www.w3.org/1999/xlink" viewBox="0 0 23.3203 22.959">
 <g>
  <rect height="22.959" opacity="0" width="23.3203" x="0" y="0"/>
  <path d="M3.79883 22.959L19.1504 22.959C21.6797 22.959 22.959 21.6797 22.959 19.1992L22.959 3.76953C22.959 1.2793 21.6797 0 19.1504 0L3.79883 0C1.2793 0 0 1.26953 0 3.76953L0 19.1992C0 21.6992 1.2793 22.959 3.79883 22.959ZM3.83789 21.2305C2.4707 21.2305 1.72852 20.5078 1.72852 19.1016L1.72852 3.85742C1.72852 2.46094 2.4707 1.72852 3.83789 1.72852L19.1211 1.72852C20.459 1.72852 21.2305 2.46094 21.2305 3.85742L21.2305 19.1016C21.2305 20.5078 20.459 21.2305 19.1211 21.2305Z" fill="black" fill-opacity="0.85"/>
  <path d="M7.57812 16.8164C10.0391 16.8164 10.7324 13.9258 10.7324 11.4746C10.7324 9.02344 10.0391 6.13281 7.57812 6.13281C5.11719 6.13281 4.42383 9.02344 4.42383 11.4746C4.42383 13.9258 5.11719 16.8164 7.57812 16.8164ZM7.57812 15.498C6.39648 15.498 6.02539 13.5645 6.02539 11.4746C6.02539 9.375 6.39648 7.45117 7.57812 7.45117C8.75977 7.45117 9.13086 9.375 9.13086 11.4746C9.13086 13.5645 8.75977 15.498 7.57812 15.498ZM15.3711 16.7773C17.3047 16.7773 18.5352 15.5273 18.5352 13.8184C18.5352 12.4707 17.6953 11.4453 16.6797 11.2109L16.6797 11.1719C17.5488 10.8984 18.252 10.0488 18.252 8.90625C18.252 7.31445 17.1094 6.18164 15.3711 6.18164C13.8281 6.18164 12.5098 7.17773 12.5098 8.89648C12.5098 10.127 13.2422 10.9082 14.0918 11.1719L14.0918 11.2109C13.0273 11.4551 12.2168 12.4805 12.2168 13.8184C12.2168 15.6152 13.5547 16.7773 15.3711 16.7773ZM15.3809 10.6543C14.5508 10.6543 14.043 9.90234 14.043 9.05273C14.043 8.16406 14.541 7.38281 15.3809 7.38281C16.2695 7.38281 16.709 8.19336 16.709 9.05273C16.709 9.94141 16.2207 10.6543 15.3809 10.6543ZM15.3809 15.5664C14.3945 15.5664 13.8672 14.6973 13.8672 13.7012C13.8672 12.7051 14.3945 11.875 15.3809 11.875C16.3184 11.875 16.8945 12.6465 16.8945 13.7012C16.8945 14.6973 16.377 15.5664 15.3809 15.5664Z" fill="black" fill-opacity="0.85"/>
 </g>
</svg>
