<?xml version="1.0" encoding="UTF-8"?>
<!--Generator: Apple Native CoreSVG 326-->
<!DOCTYPE svg
PUBLIC "-//W3C//DTD SVG 1.1//EN"
       "http://www.w3.org/Graphics/SVG/1.1/DTD/svg11.dtd">
<svg version="1.1" xmlns="http://www.w3.org/2000/svg" xmlns:xlink="http://www.w3.org/1999/xlink" viewBox="0 0 23.3203 22.959">
 <g>
  <rect height="22.959" opacity="0" width="23.3203" x="0" y="0"/>
  <path d="M22.959 3.76953L22.959 19.1992C22.959 21.6797 21.6797 22.959 19.1504 22.959L3.79883 22.959C1.2793 22.959 0 21.6992 0 19.1992L0 3.76953C0 1.26953 1.2793 0 3.79883 0L19.1504 0C21.6797 0 22.959 1.2793 22.959 3.76953ZM4.22852 11.4746C4.22852 13.9941 4.95117 16.9434 7.48047 16.9434C10 16.9434 10.7129 13.9941 10.7129 11.4746C10.7129 8.95508 10 6.00586 7.48047 6.00586C4.95117 6.00586 4.22852 8.95508 4.22852 11.4746ZM12.5293 8.82812C12.5293 10.0977 13.291 10.8984 14.1602 11.1621L14.1602 11.2012C13.0664 11.4551 12.2363 12.5 12.2363 13.877C12.2363 15.7324 13.6133 16.9043 15.4688 16.9043C17.4512 16.9043 18.7305 15.625 18.7305 13.877C18.7305 12.4902 17.8516 11.4453 16.8164 11.2012L16.8164 11.1621C17.7051 10.8887 18.4375 10.0195 18.4375 8.83789C18.4375 7.20703 17.2559 6.05469 15.4688 6.05469C13.8867 6.05469 12.5293 7.07031 12.5293 8.82812ZM17.0215 13.75C17.0215 14.7754 16.4941 15.6543 15.4785 15.6543C14.4727 15.6543 13.9355 14.7754 13.9355 13.75C13.9355 12.7344 14.4727 11.8945 15.4785 11.8945C16.4355 11.8945 17.0215 12.6758 17.0215 13.75ZM9.0625 11.4746C9.0625 13.623 8.68164 15.5859 7.48047 15.5859C6.2793 15.5859 5.89844 13.623 5.89844 11.4746C5.89844 9.31641 6.2793 7.36328 7.48047 7.36328C8.68164 7.36328 9.0625 9.31641 9.0625 11.4746ZM16.8457 8.99414C16.8457 9.90234 16.3379 10.6348 15.4785 10.6348C14.6289 10.6348 14.1211 9.86328 14.1211 8.99414C14.1211 8.08594 14.6191 7.29492 15.4785 7.29492C16.3867 7.29492 16.8457 8.11523 16.8457 8.99414Z" fill="black" fill-opacity="0.85"/>
 </g>
</svg>
