<?xml version="1.0" ?><!-- Generator: Adobe Illustrator 25.0.0, SVG Export Plug-In . SVG Version: 6.00 Build 0)  --><svg xmlns="http://www.w3.org/2000/svg" xmlns:xlink="http://www.w3.org/1999/xlink" version="1.1" id="Layer_1" x="0px" y="0px" viewBox="0 0 512 512" style="enable-background:new 0 0 512 512;" xml:space="preserve">
<path d="M87.3,512h337.3c58.4,0,87.3-28.9,87.3-86.2V86.2C512,28.9,483.1,0,424.7,0H87.3C29.2,0,0,28.6,0,86.2v339.6  C0,483.4,29.2,512,87.3,512z M87.9,467.2c-27.8,0-43.1-14.7-43.1-43.7V88.4c0-28.9,15.3-43.7,43.1-43.7h336.2  c27.5,0,43.1,14.7,43.1,43.7v335.1c0,28.9-15.6,43.7-43.1,43.7H87.9z M163.2,375.4c47.8,0,79.5-45.9,79.5-119.9  s-31.7-119.9-79.5-119.9c-47.8,0-79.5,45.9-79.5,119.9S115.4,375.4,163.2,375.4z M352.6,375.4c48.1,0,81.2-27.8,81.2-68.1  c0-28.4-17.2-51.5-47.3-57.6v-1.7c25.6-7,39.2-27,39.2-51.2c0-36.2-30-61.2-72.6-61.2c-42.8,0-72.9,25-72.9,61.2  c0,24.2,13.3,43.7,39.2,51.2v1.7c-30,6.1-47.3,29.5-47.3,57.8C272.3,348.2,304.5,375.4,352.6,375.4z M353.2,236.9  c-22,0-37.3-15.6-37.3-36.7s15.3-35.6,37.3-35.6c21.7,0,37,14.5,37,35.6S374.9,236.9,353.2,236.9z M163.2,341.8  c-26.4,0-43.1-32.8-43.1-86.2s16.7-86.2,43.1-86.2s43.1,32.8,43.1,86.2S189.9,341.8,163.2,341.8z M353.5,346.5  c-26.7,0-45.9-17-45.9-41.4c0-23.9,19.2-41.4,45.9-41.4c26.7,0,45.3,17.2,45.3,41.4C398.8,329.6,379.6,346.5,353.5,346.5z"/>
</svg>