<?xml version="1.0" encoding="UTF-8"?>
<!--Generator: Apple Native CoreSVG 326-->
<!DOCTYPE svg
PUBLIC "-//W3C//DTD SVG 1.1//EN"
       "http://www.w3.org/Graphics/SVG/1.1/DTD/svg11.dtd">
<svg version="1.1" xmlns="http://www.w3.org/2000/svg" xmlns:xlink="http://www.w3.org/1999/xlink" viewBox="0 0 25.8008 25.459">
 <g>
  <rect height="25.459" opacity="0" width="25.8008" x="0" y="0"/>
  <path d="M12.7148 25.4395C19.7363 25.4395 25.4395 19.7461 25.4395 12.7246C25.4395 5.70312 19.7363 0 12.7148 0C5.69336 0 0 5.70312 0 12.7246C0 19.7461 5.69336 25.4395 12.7148 25.4395ZM12.7148 23.623C6.68945 23.623 1.81641 18.75 1.81641 12.7246C1.81641 6.69922 6.68945 1.82617 12.7148 1.82617C18.7402 1.82617 23.6133 6.69922 23.6133 12.7246C23.6133 18.75 18.7402 23.623 12.7148 23.623Z" fill="black" fill-opacity="0.85"/>
  <path d="M8.83789 18.0664C11.3086 18.0664 12.002 15.1758 12.002 12.7246C12.002 10.2734 11.3086 7.38281 8.83789 7.38281C6.37695 7.38281 5.68359 10.2734 5.68359 12.7246C5.68359 15.1758 6.37695 18.0664 8.83789 18.0664ZM8.83789 16.748C7.65625 16.748 7.28516 14.8145 7.28516 12.7246C7.28516 10.625 7.65625 8.70117 8.83789 8.70117C10.0293 8.70117 10.3906 10.625 10.3906 12.7246C10.3906 14.8145 10.0293 16.748 8.83789 16.748ZM15.918 14.2969C16.9824 14.2969 17.7539 13.5645 18.0273 12.4609L18.0762 12.4609C18.0762 12.5098 18.0762 12.5684 18.0762 12.6172C18.0762 14.0918 17.8809 16.7383 16.3672 16.7383C15.7324 16.7383 15.3223 16.2988 15.0879 15.6738C14.9219 15.2832 14.6973 15.127 14.375 15.127C13.9062 15.127 13.7109 15.4395 13.7109 15.8105C13.7109 15.9473 13.7402 16.1133 13.7891 16.2695C14.0723 17.3828 15.1172 18.0469 16.3379 18.0469C18.877 18.0469 19.5801 15.1172 19.5801 12.5977C19.5801 10.2246 18.8477 7.40234 16.3672 7.40234C14.502 7.40234 13.4277 9.02344 13.4277 10.9863C13.4277 12.6758 14.248 14.2969 15.918 14.2969ZM16.3867 13.0664C15.3809 13.0664 14.9512 11.9238 14.9512 10.918C14.9512 9.88281 15.4199 8.70117 16.3867 8.70117C17.4121 8.70117 17.8516 9.89258 17.8516 10.918C17.8516 11.9629 17.3633 13.0664 16.3867 13.0664Z" fill="black" fill-opacity="0.85"/>
 </g>
</svg>
