<?xml version="1.0" encoding="UTF-8"?>
<!--Generator: Apple Native CoreSVG 326-->
<!DOCTYPE svg
PUBLIC "-//W3C//DTD SVG 1.1//EN"
       "http://www.w3.org/Graphics/SVG/1.1/DTD/svg11.dtd">
<svg version="1.1" xmlns="http://www.w3.org/2000/svg" xmlns:xlink="http://www.w3.org/1999/xlink" viewBox="0 0 23.3203 22.959">
 <g>
  <rect height="22.959" opacity="0" width="23.3203" x="0" y="0"/>
  <path d="M3.79883 22.959L19.1504 22.959C21.6797 22.959 22.959 21.6797 22.959 19.1992L22.959 3.76953C22.959 1.2793 21.6797 0 19.1504 0L3.79883 0C1.2793 0 0 1.26953 0 3.76953L0 19.1992C0 21.6992 1.2793 22.959 3.79883 22.959ZM3.83789 21.2305C2.4707 21.2305 1.72852 20.5078 1.72852 19.1016L1.72852 3.85742C1.72852 2.46094 2.4707 1.72852 3.83789 1.72852L19.1211 1.72852C20.459 1.72852 21.2305 2.46094 21.2305 3.85742L21.2305 19.1016C21.2305 20.5078 20.459 21.2305 19.1211 21.2305Z" fill="black" fill-opacity="0.85"/>
  <path d="M7.61719 16.8164C10.0781 16.8164 10.7812 13.9258 10.7812 11.4746C10.7812 9.02344 10.0781 6.13281 7.61719 6.13281C5.15625 6.13281 4.46289 9.02344 4.46289 11.4746C4.46289 13.9258 5.15625 16.8164 7.61719 16.8164ZM7.61719 15.498C6.43555 15.498 6.06445 13.5645 6.06445 11.4746C6.06445 9.375 6.43555 7.45117 7.61719 7.45117C8.80859 7.45117 9.16992 9.375 9.16992 11.4746C9.16992 13.5645 8.80859 15.498 7.61719 15.498ZM14.6875 13.0469C15.7617 13.0469 16.5332 12.3145 16.8066 11.2109L16.8555 11.2109C16.8555 11.2598 16.8555 11.3184 16.8555 11.3672C16.8555 12.8418 16.6602 15.4883 15.1465 15.4883C14.5117 15.4883 14.1016 15.0488 13.8672 14.4238C13.7012 14.0332 13.4766 13.877 13.1543 13.877C12.6855 13.877 12.4902 14.1895 12.4902 14.5605C12.4902 14.6973 12.5195 14.8633 12.5684 15.0195C12.8418 16.1328 13.8965 16.7969 15.1172 16.7969C17.6465 16.7969 18.3594 13.8672 18.3594 11.3477C18.3594 8.97461 17.627 6.15234 15.1465 6.15234C13.2715 6.15234 12.207 7.77344 12.207 9.73633C12.207 11.4258 13.0273 13.0469 14.6875 13.0469ZM15.166 11.8164C14.1602 11.8164 13.7305 10.6738 13.7305 9.66797C13.7305 8.63281 14.1992 7.45117 15.166 7.45117C16.1914 7.45117 16.6309 8.64258 16.6309 9.66797C16.6309 10.7129 16.1426 11.8164 15.166 11.8164Z" fill="black" fill-opacity="0.85"/>
 </g>
</svg>
