<?xml version="1.0" ?><!-- Generator: Adobe Illustrator 25.0.0, SVG Export Plug-In . SVG Version: 6.00 Build 0)  --><svg xmlns="http://www.w3.org/2000/svg" xmlns:xlink="http://www.w3.org/1999/xlink" version="1.1" id="Layer_1" x="0px" y="0px" viewBox="0 0 512 512" style="enable-background:new 0 0 512 512;" xml:space="preserve">
<path d="M87.3,512h337.3c58.4,0,87.3-28.9,87.3-86.2V86.2C512,28.9,483.1,0,424.7,0H87.3C29.2,0,0,28.6,0,86.2v339.6  C0,483.4,29.2,512,87.3,512z M87.9,467.2c-27.8,0-43.1-14.7-43.1-43.7V88.4c0-28.9,15.3-43.7,43.1-43.7h336.2  c27.5,0,43.1,14.7,43.1,43.7v335.1c0,28.9-15.6,43.7-43.1,43.7H87.9z M163.5,375.4c47.8,0,79.5-45.9,79.5-119.9  s-31.7-119.9-79.5-119.9S84,181.6,84,255.6S115.7,375.4,163.5,375.4z M347.6,375.4c55.3,0,85.4-43.9,85.4-127.7  c0-72.9-30-112.1-82.3-112.1c-46.7,0-77.3,31.4-77.3,80.4c0,47.8,32.5,74.5,69,74.5c30.6,0,48.7-16.4,55.9-35.3h1.7  c0.6,55.3-20.6,88.2-52.8,88.2c-15.9,0-28.6-8.3-35.3-20.6c-4.5-7.8-9.7-10.8-17-10.8c-8.6,0-14.7,6.7-14.7,16.4  c0,2.8,0.8,6.7,1.9,10C286.7,353.8,309.3,375.4,347.6,375.4z M352.9,262c-26.4,0-44.2-19.7-44.2-47.6c0-29.2,17.2-48.4,44.2-48.4  c25.6,0,43.9,20.3,43.9,48.9C396.9,242.2,378.8,262,352.9,262z M163.5,341.8c-26.4,0-43.1-32.8-43.1-86.2s16.7-86.2,43.1-86.2  c26.7,0,43.1,32.8,43.1,86.2S190.5,341.8,163.5,341.8z"/>
</svg>