<?xml version="1.0" encoding="UTF-8"?>
<!--Generator: Apple Native CoreSVG 326-->
<!DOCTYPE svg
PUBLIC "-//W3C//DTD SVG 1.1//EN"
       "http://www.w3.org/Graphics/SVG/1.1/DTD/svg11.dtd">
<svg version="1.1" xmlns="http://www.w3.org/2000/svg" xmlns:xlink="http://www.w3.org/1999/xlink" viewBox="0 0 23.3203 22.959">
 <g>
  <rect height="22.959" opacity="0" width="23.3203" x="0" y="0"/>
  <path d="M22.959 3.76953L22.959 19.1992C22.959 21.6797 21.6797 22.959 19.1504 22.959L3.79883 22.959C1.2793 22.959 0 21.6992 0 19.1992L0 3.76953C0 1.26953 1.2793 0 3.79883 0L19.1504 0C21.6797 0 22.959 1.2793 22.959 3.76953ZM4.28711 11.4746C4.28711 13.9941 5 16.9434 7.51953 16.9434C10.0488 16.9434 10.7715 13.9941 10.7715 11.4746C10.7715 8.95508 10.0488 6.00586 7.51953 6.00586C5 6.00586 4.28711 8.95508 4.28711 11.4746ZM12.2266 9.6875C12.2266 11.4258 13.0664 13.0859 14.7754 13.0859C15.8691 13.0859 16.6602 12.334 16.9336 11.2109L16.9824 11.2109C16.9824 11.2598 16.9824 11.3184 16.9824 11.3672C16.9824 12.8711 16.7871 15.5859 15.2441 15.5859C14.5996 15.5859 14.1797 15.127 13.9355 14.4922C13.7695 14.0918 13.5352 13.9355 13.2031 13.9355C12.7148 13.9355 12.5195 14.2578 12.5195 14.6387C12.5195 14.7852 12.5488 14.9512 12.5977 15.1074C12.8809 16.25 13.9648 16.9238 15.2148 16.9238C17.8125 16.9238 18.5352 13.9258 18.5352 11.3477C18.5352 8.91602 17.7832 6.02539 15.2441 6.02539C13.3301 6.02539 12.2266 7.68555 12.2266 9.6875ZM9.10156 11.4746C9.10156 13.623 8.7207 15.5859 7.51953 15.5859C6.31836 15.5859 5.9375 13.623 5.9375 11.4746C5.9375 9.31641 6.31836 7.36328 7.51953 7.36328C8.7207 7.36328 9.10156 9.31641 9.10156 11.4746ZM16.7578 9.61914C16.7578 10.6934 16.2598 11.8164 15.2637 11.8164C14.2383 11.8164 13.7988 10.6543 13.7988 9.61914C13.7988 8.56445 14.2773 7.36328 15.2637 7.36328C16.3086 7.36328 16.7578 8.57422 16.7578 9.61914Z" fill="black" fill-opacity="0.85"/>
 </g>
</svg>
