<?xml version="1.0" encoding="UTF-8"?>
<!--Generator: Apple Native CoreSVG 326-->
<!DOCTYPE svg
PUBLIC "-//W3C//DTD SVG 1.1//EN"
       "http://www.w3.org/Graphics/SVG/1.1/DTD/svg11.dtd">
<svg version="1.1" xmlns="http://www.w3.org/2000/svg" xmlns:xlink="http://www.w3.org/1999/xlink" viewBox="0 0 23.3203 22.959">
 <g>
  <rect height="22.959" opacity="0" width="23.3203" x="0" y="0"/>
  <path d="M22.959 3.76953L22.959 19.1992C22.959 21.6797 21.6797 22.959 19.1504 22.959L3.79883 22.959C1.2793 22.959 0 21.6992 0 19.1992L0 3.76953C0 1.26953 1.2793 0 3.79883 0L19.1504 0C21.6797 0 22.959 1.2793 22.959 3.76953ZM10.8984 5.83008L8.47656 7.45117C8.23242 7.62695 8.125 7.80273 8.125 8.0957C8.125 8.44727 8.4082 8.76953 8.76953 8.76953C8.94531 8.76953 9.0625 8.74023 9.30664 8.58398L11.1719 7.35352L11.2598 7.35352L11.2598 16.5625C11.2598 17.1875 11.5918 17.5586 12.1387 17.5586C12.7148 17.5586 13.0469 17.1875 13.0469 16.5625L13.0469 6.38672C13.0469 5.75195 12.6855 5.39062 12.0898 5.39062C11.6699 5.39062 11.377 5.49805 10.8984 5.83008Z" fill="black" fill-opacity="0.85"/>
 </g>
</svg>
