<?xml version="1.0" ?><!-- Generator: Adobe Illustrator 25.0.0, SVG Export Plug-In . SVG Version: 6.00 Build 0)  --><svg xmlns="http://www.w3.org/2000/svg" xmlns:xlink="http://www.w3.org/1999/xlink" version="1.1" id="Layer_1" x="0px" y="0px" viewBox="0 0 512 512" style="enable-background:new 0 0 512 512;" xml:space="preserve">
<path d="M87.3,512h337.3c58.4,0,87.3-28.9,87.3-86.2V86.2C512,28.9,483.1,0,424.7,0H87.3C29.2,0,0,28.6,0,86.2v339.6  C0,483.4,29.2,512,87.3,512z M270.9,386c-14.2,0-22.5-9.7-22.5-25.9V174.9h-1.9l-37.3,24.2c-6.7,4.7-9.5,5.3-13.9,5.3  c-9.2,0-16.4-8.3-16.4-17.2c0-7.2,2.8-11.7,8.9-16.1l51.7-35c12-8.3,19.7-11.1,30.3-11.1c15.6,0,24.5,9.2,24.5,25.9v209.4  C294.2,376.3,285.9,386,270.9,386z"/>
</svg>