<?xml version="1.0" encoding="UTF-8"?>
<!--Generator: Apple Native CoreSVG 326-->
<!DOCTYPE svg
PUBLIC "-//W3C//DTD SVG 1.1//EN"
       "http://www.w3.org/Graphics/SVG/1.1/DTD/svg11.dtd">
<svg version="1.1" xmlns="http://www.w3.org/2000/svg" xmlns:xlink="http://www.w3.org/1999/xlink" viewBox="0 0 25.8008 30.311">
 <g>
  <rect height="30.311" opacity="0" width="25.8008" x="0" y="0"/>
  <path d="M12.7148 27.8655C19.7363 27.8655 25.4395 22.1721 25.4395 15.1506C25.4395 10.7854 23.252 6.98657 19.9121 4.69165C19.4434 4.34008 18.8281 4.46704 18.5645 4.89672C18.3008 5.34594 18.4375 5.85376 18.877 6.18579C21.7285 8.11938 23.6133 11.4104 23.6133 15.1506C23.6133 21.176 18.7402 26.0491 12.7148 26.0491C6.68945 26.0491 1.81641 21.176 1.81641 15.1506C1.81641 9.91626 5.48828 5.58032 10.3613 4.5061L10.3613 6.48852C10.3613 7.27954 10.9082 7.49438 11.5332 7.05493L15.4883 4.28149C16.0059 3.92016 16.0156 3.38305 15.4883 3.00219L11.543 0.228756C10.9082-0.220463 10.3613 0.00414614 10.3613 0.795162L10.3613 2.6604C4.49219 3.74438 0 8.92016 0 15.1506C0 22.1721 5.69336 27.8655 12.7148 27.8655Z" fill="black" fill-opacity="0.85"/>
  <path d="M9.4043 20.2873C9.88281 20.2873 10.166 19.9553 10.166 19.4768L10.166 11.2639C10.166 10.7268 9.83398 10.4143 9.29688 10.4143C8.85742 10.4143 8.54492 10.5998 8.20312 10.8635L6.63086 12.0159C6.41602 12.1819 6.2793 12.3674 6.2793 12.6409C6.2793 12.9631 6.51367 13.2073 6.83594 13.2073C6.99219 13.2073 7.10938 13.1584 7.23633 13.0706L8.62305 12.0354L8.63281 12.0354L8.63281 19.4768C8.63281 19.9553 8.92578 20.2873 9.4043 20.2873ZM15.6543 20.3655C18.1152 20.3655 18.9551 17.7873 18.9551 15.3362C18.9551 12.885 18.0957 10.3264 15.6543 10.3264C13.1738 10.3264 12.3438 12.9143 12.3438 15.3362C12.3438 17.8069 13.2031 20.3655 15.6543 20.3655ZM15.6543 19.1155C14.4238 19.1155 13.8867 17.3674 13.8867 15.3362C13.8867 13.3245 14.4238 11.5959 15.6543 11.5959C16.875 11.5959 17.4121 13.3342 17.4121 15.3362C17.4121 17.3577 16.8848 19.1155 15.6543 19.1155Z" fill="black" fill-opacity="0.85"/>
 </g>
</svg>
