<?xml version="1.0" ?><!-- Generator: Adobe Illustrator 25.0.0, SVG Export Plug-In . SVG Version: 6.00 Build 0)  --><svg xmlns="http://www.w3.org/2000/svg" xmlns:xlink="http://www.w3.org/1999/xlink" version="1.1" id="Layer_1" x="0px" y="0px" viewBox="0 0 512 512" style="enable-background:new 0 0 512 512;" xml:space="preserve">
<path d="M256,512c140,0,256-116.2,256-256C512,116,395.8,0,255.7,0C116,0,0,116,0,256C0,395.8,116.2,512,256,512z M323,367.7  c-44.4,0-74-42.7-74-111.7s29.6-111.7,74-111.7c44.7,0,74,42.7,74,111.7S367.7,367.7,323,367.7z M186,364.4  c-9.8,0-16.1-6.5-16.1-16.6V187.2h-1.5l-27.4,20.3c-6,4.8-8.8,5-12.8,5c-7.5,0-14.8-6.8-14.8-15.6c0-6.8,3.3-11.5,8.8-15.3  l39.2-26.9c9.3-6.3,14.3-8.8,22.6-8.8c11,0,18.6,7.8,18.6,18.6v183.2C202.5,357.9,196,364.4,186,364.4z M323,336.1  c24.8,0,40.2-30.4,40.2-80.1s-15.6-80.1-40.2-80.1c-24.3,0-39.9,30.4-39.9,80.1S298.7,336.1,323,336.1z"/>
</svg>