<?xml version="1.0" encoding="UTF-8"?>
<!--Generator: Apple Native CoreSVG 326-->
<!DOCTYPE svg
PUBLIC "-//W3C//DTD SVG 1.1//EN"
       "http://www.w3.org/Graphics/SVG/1.1/DTD/svg11.dtd">
<svg version="1.1" xmlns="http://www.w3.org/2000/svg" xmlns:xlink="http://www.w3.org/1999/xlink" viewBox="0 0 25.8008 25.459">
 <g>
  <rect height="25.459" opacity="0" width="25.8008" x="0" y="0"/>
  <path d="M12.7148 25.4395C19.7363 25.4395 25.4395 19.7461 25.4395 12.7246C25.4395 5.70312 19.7363 0 12.7148 0C5.69336 0 0 5.70312 0 12.7246C0 19.7461 5.69336 25.4395 12.7148 25.4395ZM12.7148 23.623C6.68945 23.623 1.81641 18.75 1.81641 12.7246C1.81641 6.69922 6.68945 1.82617 12.7148 1.82617C18.7402 1.82617 23.6133 6.69922 23.6133 12.7246C23.6133 18.75 18.7402 23.623 12.7148 23.623Z" fill="black" fill-opacity="0.85"/>
  <path d="M9.38477 17.9492C9.81445 17.9492 10.1758 17.5879 10.1758 17.1387L10.1758 8.36914C10.1758 7.8125 9.82422 7.48047 9.25781 7.48047C8.79883 7.48047 8.42773 7.72461 8.16406 7.93945L6.68945 9.10156C6.49414 9.25781 6.34766 9.46289 6.34766 9.74609C6.34766 10.0977 6.57227 10.3418 6.91406 10.3418C7.08984 10.3418 7.19727 10.2832 7.31445 10.1953L8.57422 9.18945L8.57422 17.1387C8.57422 17.5879 8.93555 17.9492 9.38477 17.9492ZM15.3418 18.0664C17.8027 18.0664 18.4961 15.1758 18.4961 12.7246C18.4961 10.2734 17.8027 7.38281 15.3418 7.38281C12.8711 7.38281 12.1777 10.2734 12.1777 12.7246C12.1777 15.1758 12.8711 18.0664 15.3418 18.0664ZM15.3418 16.748C14.1504 16.748 13.7891 14.8145 13.7891 12.7246C13.7891 10.625 14.1504 8.70117 15.3418 8.70117C16.5234 8.70117 16.8848 10.625 16.8848 12.7246C16.8848 14.8145 16.5234 16.748 15.3418 16.748Z" fill="black" fill-opacity="0.85"/>
 </g>
</svg>
