<?xml version="1.0" encoding="UTF-8"?>
<!--Generator: Apple Native CoreSVG 326-->
<!DOCTYPE svg
PUBLIC "-//W3C//DTD SVG 1.1//EN"
       "http://www.w3.org/Graphics/SVG/1.1/DTD/svg11.dtd">
<svg version="1.1" xmlns="http://www.w3.org/2000/svg" xmlns:xlink="http://www.w3.org/1999/xlink" viewBox="0 0 25.8008 25.459">
 <g>
  <rect height="25.459" opacity="0" width="25.8008" x="0" y="0"/>
  <path d="M12.7148 25.4395C19.7363 25.4395 25.4395 19.7461 25.4395 12.7246C25.4395 5.70312 19.7363 0 12.7148 0C5.69336 0 0 5.70312 0 12.7246C0 19.7461 5.69336 25.4395 12.7148 25.4395ZM12.7148 23.623C6.68945 23.623 1.81641 18.75 1.81641 12.7246C1.81641 6.69922 6.68945 1.82617 12.7148 1.82617C18.7402 1.82617 23.6133 6.69922 23.6133 12.7246C23.6133 18.75 18.7402 23.623 12.7148 23.623Z" fill="black" fill-opacity="0.85"/>
  <path d="M10.2734 17.9492C10.7031 17.9492 11.0645 17.5879 11.0645 17.1387L11.0645 8.36914C11.0645 7.8125 10.7129 7.48047 10.1465 7.48047C9.6875 7.48047 9.30664 7.72461 9.04297 7.93945L7.56836 9.10156C7.37305 9.25781 7.22656 9.46289 7.22656 9.74609C7.22656 10.0977 7.46094 10.3418 7.80273 10.3418C7.97852 10.3418 8.08594 10.2832 8.20312 10.1953L9.45312 9.18945L9.45312 17.1387C9.45312 17.5879 9.82422 17.9492 10.2734 17.9492ZM15.8496 17.9492C16.2793 17.9492 16.6406 17.5879 16.6406 17.1387L16.6406 8.36914C16.6406 7.8125 16.2891 7.48047 15.7324 7.48047C15.2637 7.48047 14.8926 7.72461 14.6289 7.93945L13.1543 9.10156C12.959 9.25781 12.8125 9.46289 12.8125 9.74609C12.8125 10.0977 13.0371 10.3418 13.3789 10.3418C13.5547 10.3418 13.6621 10.2832 13.7793 10.1953L15.0391 9.18945L15.0391 17.1387C15.0391 17.5879 15.4004 17.9492 15.8496 17.9492Z" fill="black" fill-opacity="0.85"/>
 </g>
</svg>
