<?xml version="1.0" ?><!-- Generator: Adobe Illustrator 25.0.0, SVG Export Plug-In . SVG Version: 6.00 Build 0)  --><svg xmlns="http://www.w3.org/2000/svg" xmlns:xlink="http://www.w3.org/1999/xlink" version="1.1" id="Layer_1" x="0px" y="0px" viewBox="0 0 512 512" style="enable-background:new 0 0 512 512;" xml:space="preserve">
<path d="M256,512c140,0,256-116.2,256-256C512,116,395.8,0,255.7,0C116,0,0,116,0,256C0,395.8,116.2,512,256,512z M256,469.3  c-118.5,0-213.1-94.9-213.1-213.3S137.3,42.7,255.7,42.7S469.1,137.5,469.3,256S374.5,469.3,256,469.3z M203.3,361.4  c9.5,0,15.8-6.3,15.8-16.3V167.7c0-10.8-7.3-18.1-17.6-18.1c-8.3,0-13.3,2.5-22.1,8.5L141.3,184c-5.3,4-8.5,8.3-8.5,14.8  c0,8.5,7.3,15.3,14.6,15.3c4,0,6.3-0.3,12-4.8l26.9-19.8h1.5v155.6C187.7,355.1,194,361.4,203.3,361.4z M334.8,361.4  c9.5,0,15.8-6.3,15.8-16.3V167.7c0-10.8-7-18.1-17.6-18.1c-8.3,0-13.1,2.5-22.1,8.5L272.8,184c-5.3,4-8.3,8.3-8.3,14.8  c0,8.5,7,15.3,14.3,15.3c4,0,6.5-0.3,12.3-4.8l26.6-19.8h1.5v155.6C319.2,355.1,325.5,361.4,334.8,361.4z"/>
</svg>