<?xml version="1.0" encoding="UTF-8"?>
<!--Generator: Apple Native CoreSVG 326-->
<!DOCTYPE svg
PUBLIC "-//W3C//DTD SVG 1.1//EN"
       "http://www.w3.org/Graphics/SVG/1.1/DTD/svg11.dtd">
<svg version="1.1" xmlns="http://www.w3.org/2000/svg" xmlns:xlink="http://www.w3.org/1999/xlink" viewBox="0 0 25.8008 25.459">
 <g>
  <rect height="25.459" opacity="0" width="25.8008" x="0" y="0"/>
  <path d="M12.7148 25.4395C19.7363 25.4395 25.4395 19.7461 25.4395 12.7246C25.4395 5.70312 19.7363 0 12.7148 0C5.69336 0 0 5.70312 0 12.7246C0 19.7461 5.69336 25.4395 12.7148 25.4395ZM12.7148 23.623C6.68945 23.623 1.81641 18.75 1.81641 12.7246C1.81641 6.69922 6.68945 1.82617 12.7148 1.82617C18.7402 1.82617 23.6133 6.69922 23.6133 12.7246C23.6133 18.75 18.7402 23.623 12.7148 23.623Z" fill="black" fill-opacity="0.85"/>
  <path d="M9.46289 17.9492C9.89258 17.9492 10.2637 17.5879 10.2637 17.1387L10.2637 8.36914C10.2637 7.8125 9.90234 7.48047 9.3457 7.48047C8.88672 7.48047 8.50586 7.72461 8.24219 7.93945L6.76758 9.10156C6.57227 9.25781 6.42578 9.46289 6.42578 9.74609C6.42578 10.0977 6.66016 10.3418 7.00195 10.3418C7.17773 10.3418 7.28516 10.2832 7.39258 10.1953L8.65234 9.18945L8.65234 17.1387C8.65234 17.5879 9.02344 17.9492 9.46289 17.9492ZM12.9297 17.8223L17.2949 17.8223C17.6855 17.8223 17.9297 17.5586 17.9297 17.168C17.9297 16.7578 17.6758 16.5137 17.2949 16.5137L14.1504 16.5137L14.1504 16.4258L16.1328 13.8379C17.3242 12.3145 17.7246 11.3867 17.7246 10.293C17.7246 8.62305 16.6406 7.38281 14.9414 7.38281C13.3594 7.38281 12.207 8.7207 12.207 10.0391C12.207 10.4395 12.4414 10.7324 12.8711 10.7324C13.2324 10.7324 13.457 10.5664 13.5645 10.2051C13.7891 9.27734 14.1406 8.67188 14.9414 8.67188C15.791 8.67188 16.2305 9.45312 16.2305 10.3613C16.2305 11.3574 15.6152 12.334 14.9121 13.252L12.5879 16.2988C12.3828 16.5625 12.1875 16.8359 12.1875 17.168C12.1875 17.5488 12.4414 17.8223 12.9297 17.8223Z" fill="black" fill-opacity="0.85"/>
 </g>
</svg>
