<?xml version="1.0" encoding="UTF-8"?>
<!--Generator: Apple Native CoreSVG 326-->
<!DOCTYPE svg
PUBLIC "-//W3C//DTD SVG 1.1//EN"
       "http://www.w3.org/Graphics/SVG/1.1/DTD/svg11.dtd">
<svg version="1.1" xmlns="http://www.w3.org/2000/svg" xmlns:xlink="http://www.w3.org/1999/xlink" viewBox="0 0 25.8008 25.459">
 <g>
  <rect height="25.459" opacity="0" width="25.8008" x="0" y="0"/>
  <path d="M25.4395 12.7246C25.4395 19.7266 19.7266 25.4395 12.7148 25.4395C5.71289 25.4395 0 19.7266 0 12.7246C0 5.71289 5.71289 0 12.7148 0C19.7266 0 25.4395 5.71289 25.4395 12.7246ZM8.14453 7.82227L6.64062 9.01367C6.43555 9.16992 6.2793 9.38477 6.2793 9.67773C6.2793 10.0391 6.52344 10.293 6.875 10.293C7.06055 10.293 7.16797 10.2344 7.28516 10.1465L8.56445 9.11133L8.56445 17.2461C8.56445 17.7051 8.94531 18.0762 9.4043 18.0762C9.84375 18.0762 10.2246 17.7051 10.2246 17.2461L10.2246 8.27148C10.2246 7.69531 9.85352 7.34375 9.27734 7.34375C8.80859 7.34375 8.41797 7.60742 8.14453 7.82227ZM12.2168 9.9707C12.2168 10.3809 12.4609 10.6934 12.9004 10.6934C13.2812 10.6934 13.5059 10.5176 13.623 10.1465C13.8477 9.19922 14.209 8.58398 15.0293 8.58398C15.8887 8.58398 16.3379 9.375 16.3379 10.3027C16.3379 11.3281 15.7031 12.334 14.9902 13.2715L12.6172 16.377C12.4023 16.6504 12.1973 16.9336 12.1973 17.2852C12.1973 17.666 12.4609 17.9492 12.9688 17.9492L17.4414 17.9492C17.8418 17.9492 18.0957 17.6758 18.0957 17.2754C18.0957 16.8457 17.832 16.6016 17.4414 16.6016L14.2285 16.6016L14.2285 16.5039L16.25 13.8672C17.4805 12.3047 17.8809 11.3574 17.8809 10.2344C17.8809 8.52539 16.7773 7.25586 15.0293 7.25586C13.4082 7.25586 12.2168 8.62305 12.2168 9.9707Z" fill="black" fill-opacity="0.85"/>
 </g>
</svg>
