<?xml version="1.0" ?><!-- Generator: Adobe Illustrator 25.0.0, SVG Export Plug-In . SVG Version: 6.00 Build 0)  --><svg xmlns="http://www.w3.org/2000/svg" xmlns:xlink="http://www.w3.org/1999/xlink" version="1.1" id="Layer_1" x="0px" y="0px" viewBox="0 0 512 512" style="enable-background:new 0 0 512 512;" xml:space="preserve">
<path d="M256,512c140,0,256-116.2,256-256C512,116,395.8,0,255.7,0C116,0,0,116,0,256C0,395.8,116.2,512,256,512z M269.8,361.7  c-9,0-15.1-6-15.1-15.3c0-5.3,1.5-9.5,5.8-14.1l68.3-80.1c12-14.6,25.9-29.1,25.9-45.9c0-19.1-13.6-31.9-34.4-31.9  c-18.6,0-31.4,9.5-38.1,28.9c-3.3,7.8-7.3,12-14.8,12c-8.8,0-14.6-6-14.6-15.6c0-3,0.8-6,1.3-9.3c6.8-26.4,34.1-45.9,65-45.9  c40.7,0,66.8,22.8,66.8,59c0,25.9-14.1,44.4-33.1,66.8l-50.7,59v1.8h75c8.3,0,14.6,5.5,14.6,15.1c0,9.3-6.3,15.6-14.6,15.6H269.8z   M185.7,364.4c-9.5,0-16.1-6.3-16.1-16.6V187.5h-1.5l-27.6,20.3c-6,4.5-8.3,4.8-12.5,4.8c-7.5,0-15.1-6.8-15.1-15.6  c0-6.8,3.3-11.3,8.8-15.3l39.4-26.9c9-6.3,14.3-8.8,22.8-8.8c10.5,0,18.1,7.8,18.1,18.6v183.2C202,358.1,195.5,364.4,185.7,364.4z"/>
</svg>