<?xml version="1.0" encoding="UTF-8"?>
<!--Generator: Apple Native CoreSVG 326-->
<!DOCTYPE svg
PUBLIC "-//W3C//DTD SVG 1.1//EN"
       "http://www.w3.org/Graphics/SVG/1.1/DTD/svg11.dtd">
<svg version="1.1" xmlns="http://www.w3.org/2000/svg" xmlns:xlink="http://www.w3.org/1999/xlink" viewBox="0 0 23.3203 18.9746">
 <g>
  <rect height="18.9746" opacity="0" width="23.3203" x="0" y="0"/>
  <path d="M0 18.1055C0 18.584 0.390625 18.9746 0.869141 18.9746C1.33789 18.9746 1.72852 18.584 1.72852 18.1055L1.72852 0.898438C1.72852 0.419922 1.33789 0.0292969 0.869141 0.0292969C0.390625 0.0292969 0 0.419922 0 0.898438ZM21.2305 18.1055C21.2305 18.584 21.6211 18.9746 22.0898 18.9746C22.5684 18.9746 22.959 18.584 22.959 18.1055L22.959 0.898438C22.959 0.419922 22.5684 0.0292969 22.0898 0.0292969C21.6211 0.0292969 21.2305 0.419922 21.2305 0.898438Z" fill="black" fill-opacity="0.85"/>
  <path d="M8.30078 14.9707C8.80859 14.9707 9.12109 14.6094 9.12109 14.1113L9.12109 5.32227C9.12109 4.74609 8.75977 4.41406 8.18359 4.41406C7.71484 4.41406 7.39258 4.61914 7.02148 4.89258L5.3418 6.13281C5.10742 6.30859 4.96094 6.50391 4.96094 6.79688C4.96094 7.13867 5.20508 7.40234 5.55664 7.40234C5.72266 7.40234 5.84961 7.35352 5.98633 7.25586L7.46094 6.15234L7.48047 6.15234L7.48047 14.1113C7.48047 14.6191 7.79297 14.9707 8.30078 14.9707ZM12.1777 14.9316L17.2266 14.9316C17.6367 14.9316 17.9004 14.6777 17.9004 14.2578C17.9004 13.8477 17.6367 13.5938 17.2266 13.5938L13.4863 13.5938L13.4863 13.5156L15.6445 11.084C16.1328 10.5371 16.5234 10.0488 16.8164 9.64844C17.3242 8.93555 17.6367 8.24219 17.6367 7.36328C17.6367 5.56641 16.3086 4.42383 14.502 4.42383C12.9199 4.42383 11.6797 5.52734 11.4551 6.75781C11.4355 6.88477 11.4258 7.00195 11.4258 7.11914C11.4258 7.53906 11.6895 7.82227 12.1094 7.82227C12.4805 7.82227 12.7148 7.62695 12.8418 7.27539C13.0566 6.37695 13.5938 5.74219 14.502 5.74219C15.4688 5.74219 16.0449 6.48438 16.0449 7.43164C16.0449 8.10547 15.8105 8.60352 15.4297 9.16016C15.2051 9.49219 14.873 9.91211 14.4531 10.4004L11.8359 13.3691C11.6016 13.623 11.3965 13.877 11.3965 14.248C11.3965 14.5898 11.5918 14.9316 12.1777 14.9316Z" fill="black" fill-opacity="0.85"/>
 </g>
</svg>
