<?xml version="1.0" encoding="UTF-8"?>
<!--Generator: Apple Native CoreSVG 326-->
<!DOCTYPE svg
PUBLIC "-//W3C//DTD SVG 1.1//EN"
       "http://www.w3.org/Graphics/SVG/1.1/DTD/svg11.dtd">
<svg version="1.1" xmlns="http://www.w3.org/2000/svg" xmlns:xlink="http://www.w3.org/1999/xlink" viewBox="0 0 23.3203 22.959">
 <g>
  <rect height="22.959" opacity="0" width="23.3203" x="0" y="0"/>
  <path d="M22.959 3.76953L22.959 19.1992C22.959 21.6797 21.6797 22.959 19.1504 22.959L3.79883 22.959C1.2793 22.959 0 21.6992 0 19.1992L0 3.76953C0 1.26953 1.2793 0 3.79883 0L19.1504 0C21.6797 0 22.959 1.2793 22.959 3.76953ZM6.91406 6.57227L5.41016 7.76367C5.20508 7.91992 5.04883 8.13477 5.04883 8.42773C5.04883 8.78906 5.29297 9.04297 5.64453 9.04297C5.83008 9.04297 5.9375 8.98438 6.05469 8.89648L7.33398 7.86133L7.33398 15.9961C7.33398 16.4551 7.70508 16.8262 8.17383 16.8262C8.61328 16.8262 8.99414 16.4551 8.99414 15.9961L8.99414 7.02148C8.99414 6.44531 8.62305 6.09375 8.04688 6.09375C7.56836 6.09375 7.1875 6.35742 6.91406 6.57227ZM10.9863 8.7207C10.9863 9.13086 11.2305 9.44336 11.6699 9.44336C12.0508 9.44336 12.2754 9.26758 12.3926 8.89648C12.6172 7.94922 12.9785 7.33398 13.7891 7.33398C14.6582 7.33398 15.1074 8.125 15.1074 9.05273C15.1074 10.0781 14.4727 11.084 13.7598 12.0215L11.377 15.127C11.1621 15.4004 10.9668 15.6836 10.9668 16.0352C10.9668 16.416 11.2305 16.6992 11.7383 16.6992L16.2109 16.6992C16.6113 16.6992 16.8652 16.4258 16.8652 16.0254C16.8652 15.5957 16.6016 15.3516 16.2109 15.3516L12.998 15.3516L12.998 15.2539L15.0195 12.6172C16.25 11.0547 16.6504 10.1074 16.6504 8.98438C16.6504 7.27539 15.5371 6.00586 13.7988 6.00586C12.168 6.00586 10.9863 7.37305 10.9863 8.7207Z" fill="black" fill-opacity="0.85"/>
 </g>
</svg>
