<?xml version="1.0" encoding="UTF-8"?>
<!--Generator: Apple Native CoreSVG 326-->
<!DOCTYPE svg
PUBLIC "-//W3C//DTD SVG 1.1//EN"
       "http://www.w3.org/Graphics/SVG/1.1/DTD/svg11.dtd">
<svg version="1.1" xmlns="http://www.w3.org/2000/svg" xmlns:xlink="http://www.w3.org/1999/xlink" viewBox="0 0 23.3203 22.959">
 <g>
  <rect height="22.959" opacity="0" width="23.3203" x="0" y="0"/>
  <path d="M3.79883 22.959L19.1504 22.959C21.6797 22.959 22.959 21.6797 22.959 19.1992L22.959 3.76953C22.959 1.2793 21.6797 0 19.1504 0L3.79883 0C1.2793 0 0 1.26953 0 3.76953L0 19.1992C0 21.6992 1.2793 22.959 3.79883 22.959ZM3.83789 21.2305C2.4707 21.2305 1.72852 20.5078 1.72852 19.1016L1.72852 3.85742C1.72852 2.46094 2.4707 1.72852 3.83789 1.72852L19.1211 1.72852C20.459 1.72852 21.2305 2.46094 21.2305 3.85742L21.2305 19.1016C21.2305 20.5078 20.459 21.2305 19.1211 21.2305Z" fill="black" fill-opacity="0.85"/>
  <path d="M8.24219 16.6992C8.67188 16.6992 9.04297 16.3379 9.04297 15.8887L9.04297 7.11914C9.04297 6.5625 8.68164 6.23047 8.125 6.23047C7.66602 6.23047 7.28516 6.47461 7.02148 6.68945L5.54688 7.85156C5.35156 8.00781 5.20508 8.21289 5.20508 8.49609C5.20508 8.84766 5.43945 9.0918 5.78125 9.0918C5.95703 9.0918 6.06445 9.0332 6.17188 8.94531L7.43164 7.93945L7.43164 15.8887C7.43164 16.3379 7.80273 16.6992 8.24219 16.6992ZM11.709 16.5723L16.0742 16.5723C16.4648 16.5723 16.709 16.3086 16.709 15.918C16.709 15.5078 16.4551 15.2637 16.0742 15.2637L12.9297 15.2637L12.9297 15.1758L14.9121 12.5879C16.1035 11.0645 16.5039 10.1367 16.5039 9.04297C16.5039 7.37305 15.4199 6.13281 13.7207 6.13281C12.1387 6.13281 10.9863 7.4707 10.9863 8.78906C10.9863 9.18945 11.2207 9.48242 11.6504 9.48242C12.0117 9.48242 12.2363 9.31641 12.3438 8.95508C12.5586 8.02734 12.9199 7.42188 13.7109 7.42188C14.5703 7.42188 15.0098 8.20312 15.0098 9.11133C15.0098 10.1074 14.3945 11.084 13.6914 12.002L11.3574 15.0488C11.1523 15.3125 10.9668 15.5859 10.9668 15.918C10.9668 16.2988 11.2207 16.5723 11.709 16.5723Z" fill="black" fill-opacity="0.85"/>
 </g>
</svg>
