<?xml version="1.0" encoding="UTF-8"?>
<!--Generator: Apple Native CoreSVG 326-->
<!DOCTYPE svg
PUBLIC "-//W3C//DTD SVG 1.1//EN"
       "http://www.w3.org/Graphics/SVG/1.1/DTD/svg11.dtd">
<svg version="1.1" xmlns="http://www.w3.org/2000/svg" xmlns:xlink="http://www.w3.org/1999/xlink" viewBox="0 0 25.8008 25.459">
 <g>
  <rect height="25.459" opacity="0" width="25.8008" x="0" y="0"/>
  <path d="M12.7148 25.4395C19.7363 25.4395 25.4395 19.7461 25.4395 12.7246C25.4395 5.70312 19.7363 0 12.7148 0C5.69336 0 0 5.70312 0 12.7246C0 19.7461 5.69336 25.4395 12.7148 25.4395ZM12.7148 23.623C6.68945 23.623 1.81641 18.75 1.81641 12.7246C1.81641 6.69922 6.68945 1.82617 12.7148 1.82617C18.7402 1.82617 23.6133 6.69922 23.6133 12.7246C23.6133 18.75 18.7402 23.623 12.7148 23.623Z" fill="black" fill-opacity="0.85"/>
  <path d="M9.35547 17.9492C9.78516 17.9492 10.1465 17.5879 10.1465 17.1387L10.1465 8.36914C10.1465 7.8125 9.79492 7.48047 9.22852 7.48047C8.76953 7.48047 8.39844 7.72461 8.13477 7.93945L6.65039 9.10156C6.45508 9.25781 6.30859 9.46289 6.30859 9.74609C6.30859 10.0977 6.54297 10.3418 6.88477 10.3418C7.06055 10.3418 7.16797 10.2832 7.28516 10.1953L8.54492 9.18945L8.54492 17.1387C8.54492 17.5879 8.90625 17.9492 9.35547 17.9492ZM15.1465 18.0273C16.9043 18.0273 18.2324 16.8945 18.2324 15.0195C18.2324 13.5059 17.3535 12.6758 16.2402 12.5586L16.2402 12.5195C17.3828 12.2168 17.9395 11.2012 17.9395 10.127C17.9395 8.4375 16.709 7.43164 15.0977 7.43164C13.8086 7.43164 12.7637 8.16406 12.4023 9.27734C12.334 9.52148 12.3145 9.74609 12.3145 9.95117C12.3145 10.3125 12.5488 10.6055 12.9883 10.6055C13.3789 10.6055 13.584 10.4492 13.6914 10.0586C13.877 9.26758 14.3164 8.71094 15.0977 8.71094C15.9961 8.71094 16.4355 9.41406 16.4355 10.3125C16.4355 11.2793 15.8789 12.002 14.8828 12.002L14.5215 12.002C14.1406 12.002 13.9062 12.2363 13.9062 12.5977C13.9062 12.959 14.1602 13.1836 14.5215 13.1836L14.9023 13.1836C16.0254 13.1836 16.6602 13.8086 16.6602 14.9805C16.6602 15.918 16.1719 16.7285 15.1562 16.7285C14.1797 16.7285 13.7109 16.0449 13.5645 15.4102C13.457 15.0391 13.2324 14.8438 12.8613 14.8438C12.4316 14.8438 12.1387 15.1074 12.1387 15.5371C12.1387 15.752 12.1777 15.9961 12.2461 16.1914C12.6074 17.3438 13.8086 18.0273 15.1465 18.0273Z" fill="black" fill-opacity="0.85"/>
 </g>
</svg>
