<?xml version="1.0" encoding="UTF-8"?>
<!--Generator: Apple Native CoreSVG 326-->
<!DOCTYPE svg
PUBLIC "-//W3C//DTD SVG 1.1//EN"
       "http://www.w3.org/Graphics/SVG/1.1/DTD/svg11.dtd">
<svg version="1.1" xmlns="http://www.w3.org/2000/svg" xmlns:xlink="http://www.w3.org/1999/xlink" viewBox="0 0 25.8008 25.459">
 <g>
  <rect height="25.459" opacity="0" width="25.8008" x="0" y="0"/>
  <path d="M25.4395 12.7246C25.4395 19.7266 19.7266 25.4395 12.7148 25.4395C5.71289 25.4395 0 19.7266 0 12.7246C0 5.71289 5.71289 0 12.7148 0C19.7266 0 25.4395 5.71289 25.4395 12.7246ZM12.4121 9.18945C12.3438 9.44336 12.3242 9.66797 12.3242 9.88281C12.3242 10.2539 12.5684 10.5566 13.0176 10.5566C13.4277 10.5566 13.6328 10.3906 13.75 10C13.9453 9.18945 14.3848 8.62305 15.1855 8.62305C16.1035 8.62305 16.543 9.33594 16.543 10.2539C16.543 11.2402 15.9766 11.9824 14.9609 11.9824L14.5996 11.9824C14.1992 11.9824 13.9746 12.2266 13.9746 12.5977C13.9746 12.9688 14.2188 13.2031 14.5996 13.2031L14.9805 13.2031C16.1328 13.2031 16.7871 13.8379 16.7871 15.0293C16.7871 15.9863 16.2793 16.8164 15.2441 16.8164C14.248 16.8164 13.7695 16.123 13.6133 15.4785C13.5059 15.0879 13.2715 14.8926 12.8906 14.8926C12.4512 14.8926 12.1484 15.166 12.1484 15.6055C12.1484 15.8301 12.1875 16.0742 12.2559 16.2793C12.627 17.4609 13.8574 18.1543 15.2344 18.1543C17.0312 18.1543 18.3984 16.9922 18.3984 15.0781C18.3984 13.5254 17.5098 12.6758 16.3574 12.5586L16.3574 12.5195C17.5293 12.207 18.0957 11.1621 18.0957 10.0684C18.0957 8.33008 16.8359 7.30469 15.1855 7.30469C13.8672 7.30469 12.7832 8.05664 12.4121 9.18945ZM8.01758 7.8125L6.51367 9.01367C6.30859 9.16992 6.16211 9.38477 6.16211 9.67773C6.16211 10.0391 6.40625 10.293 6.75781 10.293C6.93359 10.293 7.05078 10.2344 7.16797 10.1367L8.44727 9.11133L8.44727 17.2363C8.44727 17.7051 8.82812 18.0762 9.28711 18.0762C9.73633 18.0762 10.1074 17.7051 10.1074 17.2363L10.1074 8.27148C10.1074 7.69531 9.74609 7.34375 9.16016 7.34375C8.68164 7.34375 8.29102 7.60742 8.01758 7.8125Z" fill="black" fill-opacity="0.85"/>
 </g>
</svg>
