<?xml version="1.0" encoding="UTF-8"?>
<!--Generator: Apple Native CoreSVG 326-->
<!DOCTYPE svg
PUBLIC "-//W3C//DTD SVG 1.1//EN"
       "http://www.w3.org/Graphics/SVG/1.1/DTD/svg11.dtd">
<svg version="1.1" xmlns="http://www.w3.org/2000/svg" xmlns:xlink="http://www.w3.org/1999/xlink" viewBox="0 0 23.3203 22.959">
 <g>
  <rect height="22.959" opacity="0" width="23.3203" x="0" y="0"/>
  <path d="M22.959 3.76953L22.959 19.1992C22.959 21.6797 21.6797 22.959 19.1504 22.959L3.79883 22.959C1.2793 22.959 0 21.6992 0 19.1992L0 3.76953C0 1.26953 1.2793 0 3.79883 0L19.1504 0C21.6797 0 22.959 1.2793 22.959 3.76953ZM11.1816 7.93945C11.1133 8.19336 11.084 8.41797 11.084 8.63281C11.084 9.00391 11.3379 9.30664 11.7871 9.30664C12.1973 9.30664 12.4023 9.14062 12.5195 8.75C12.7051 7.93945 13.1543 7.37305 13.9551 7.37305C14.873 7.37305 15.3125 8.08594 15.3125 9.00391C15.3125 9.99023 14.7461 10.7324 13.7305 10.7324L13.3691 10.7324C12.9688 10.7324 12.7344 10.9766 12.7344 11.3477C12.7344 11.7188 12.9883 11.9531 13.3691 11.9531L13.75 11.9531C14.9023 11.9531 15.5469 12.5879 15.5469 13.7793C15.5469 14.7363 15.0488 15.5664 14.0137 15.5664C13.0176 15.5664 12.5391 14.873 12.373 14.2285C12.2754 13.8379 12.041 13.6426 11.6602 13.6426C11.2207 13.6426 10.918 13.916 10.918 14.3555C10.918 14.5801 10.957 14.8242 11.0254 15.0293C11.3965 16.2109 12.627 16.9043 14.0039 16.9043C15.8008 16.9043 17.168 15.7422 17.168 13.8281C17.168 12.2754 16.2695 11.4258 15.127 11.3086L15.127 11.2695C16.2988 10.957 16.8652 9.91211 16.8652 8.81836C16.8652 7.08008 15.6055 6.05469 13.9551 6.05469C12.627 6.05469 11.5527 6.80664 11.1816 7.93945ZM6.78711 6.5625L5.2832 7.76367C5.07812 7.91992 4.93164 8.13477 4.93164 8.42773C4.93164 8.78906 5.17578 9.04297 5.52734 9.04297C5.70312 9.04297 5.82031 8.98438 5.92773 8.88672L7.2168 7.86133L7.2168 15.9863C7.2168 16.4551 7.59766 16.8262 8.04688 16.8262C8.49609 16.8262 8.87695 16.4551 8.87695 15.9863L8.87695 7.02148C8.87695 6.44531 8.50586 6.09375 7.92969 6.09375C7.45117 6.09375 7.06055 6.35742 6.78711 6.5625Z" fill="black" fill-opacity="0.85"/>
 </g>
</svg>
