<?xml version="1.0" encoding="UTF-8"?>
<!--Generator: Apple Native CoreSVG 326-->
<!DOCTYPE svg
PUBLIC "-//W3C//DTD SVG 1.1//EN"
       "http://www.w3.org/Graphics/SVG/1.1/DTD/svg11.dtd">
<svg version="1.1" xmlns="http://www.w3.org/2000/svg" xmlns:xlink="http://www.w3.org/1999/xlink" viewBox="0 0 25.8008 25.459">
 <g>
  <rect height="25.459" opacity="0" width="25.8008" x="0" y="0"/>
  <path d="M12.7148 25.4395C19.7363 25.4395 25.4395 19.7461 25.4395 12.7246C25.4395 5.70312 19.7363 0 12.7148 0C5.69336 0 0 5.70312 0 12.7246C0 19.7461 5.69336 25.4395 12.7148 25.4395ZM12.7148 23.623C6.68945 23.623 1.81641 18.75 1.81641 12.7246C1.81641 6.69922 6.68945 1.82617 12.7148 1.82617C18.7402 1.82617 23.6133 6.69922 23.6133 12.7246C23.6133 18.75 18.7402 23.623 12.7148 23.623Z" fill="black" fill-opacity="0.85"/>
  <path d="M9.13086 17.9492C9.56055 17.9492 9.92188 17.5879 9.92188 17.1387L9.92188 8.36914C9.92188 7.8125 9.57031 7.48047 9.00391 7.48047C8.54492 7.48047 8.17383 7.72461 7.91016 7.93945L6.42578 9.10156C6.23047 9.25781 6.08398 9.46289 6.08398 9.74609C6.08398 10.0977 6.31836 10.3418 6.66016 10.3418C6.83594 10.3418 6.94336 10.2832 7.06055 10.1953L8.32031 9.18945L8.32031 17.1387C8.32031 17.5879 8.68164 17.9492 9.13086 17.9492ZM16.4258 17.9688C16.8359 17.9688 17.168 17.6953 17.168 17.1777L17.168 15.7227L17.7051 15.7227C18.1348 15.7227 18.3398 15.4492 18.3398 15.0684C18.3398 14.707 18.1445 14.4336 17.7051 14.4336L17.168 14.4336L17.168 8.66211C17.168 7.88086 16.6602 7.4707 15.957 7.4707C15.1855 7.4707 14.8145 7.87109 14.502 8.56445L12.0508 13.75C11.8652 14.1797 11.7969 14.4629 11.7969 14.8145C11.7969 15.3516 12.168 15.7227 12.7246 15.7227L15.6543 15.7227L15.6543 17.1777C15.6543 17.7539 16.0547 17.9688 16.4258 17.9688ZM15.6836 14.4629L13.1641 14.4629L13.1641 14.3945L15.6348 8.91602L15.6836 8.91602Z" fill="black" fill-opacity="0.85"/>
 </g>
</svg>
