<?xml version="1.0" ?><!-- Generator: Adobe Illustrator 25.0.0, SVG Export Plug-In . SVG Version: 6.00 Build 0)  --><svg xmlns="http://www.w3.org/2000/svg" xmlns:xlink="http://www.w3.org/1999/xlink" version="1.1" id="Layer_1" x="0px" y="0px" viewBox="0 0 512 512" style="enable-background:new 0 0 512 512;" xml:space="preserve">
<path d="M87.3,512h337.3c58.4,0,87.3-28.9,87.3-86.2V86.2C512,28.9,483.1,0,424.7,0H87.3C29.2,0,0,28.6,0,86.2v339.6  C0,483.4,29.2,512,87.3,512z M365.2,378.8c-11.1,0-17.2-8.3-17.2-19.5v-33.7h-83.7c-14.2,0-24.5-9.2-24.5-24.5  c0-7.8,1.7-14.2,6.4-23.1c19.2-34.8,48.1-83.7,72-124c9.2-15.9,19.5-22.2,36.2-22.2c17,0,28.4,10.8,28.4,27.5v134h15.9  c9.7,0,16.1,6.1,16.1,16.4c0,10-6.4,15.9-16.1,15.9h-15.9v33.7C382.7,370.7,376.8,378.8,365.2,378.8z M176.9,375.7  c-10.6,0-17.5-7.2-17.5-18.4v-178h-1.7l-30.6,22.5c-6.7,5.3-9.2,5.6-13.9,5.6c-8.6,0-16.7-7.5-16.7-17.2c0-7.5,3.9-12.8,10-17  l43.4-29.8c10-7,15.9-9.7,25.3-9.7c12,0,20.3,8.6,20.3,20.6v203C195.5,368.5,188.3,375.7,176.9,375.7z M347.9,293.4V170.8h-1.4  c-23.1,38.9-52.3,89-69.2,121.5v1.1H347.9z"/>
</svg>