<?xml version="1.0" ?><!-- Generator: Adobe Illustrator 25.0.0, SVG Export Plug-In . SVG Version: 6.00 Build 0)  --><svg xmlns="http://www.w3.org/2000/svg" xmlns:xlink="http://www.w3.org/1999/xlink" version="1.1" id="Layer_1" x="0px" y="0px" viewBox="0 0 512 512" style="enable-background:new 0 0 512 512;" xml:space="preserve">
<path d="M256,512c140,0,256-116.2,256-256C512,116,395.8,0,255.7,0C116,0,0,116,0,256C0,395.8,116.2,512,256,512z M256,469.3  c-118.5,0-213.1-94.9-213.1-213.3S137.3,42.7,255.7,42.7S469.1,137.5,469.3,256S374.5,469.3,256,469.3z M184.5,361.4  c9.5,0,15.8-6.3,15.8-16.3V167.7c0-10.8-7-18.1-17.6-18.1c-8.3,0-13.1,2.5-22.1,8.5L122.5,184c-5.3,4-8.3,8.3-8.3,14.8  c0,8.5,7,15.3,14.3,15.3c4,0,6.5-0.3,12.3-4.8l26.6-19.8h1.5v155.6C168.9,355.1,175.2,361.4,184.5,361.4z M315.5,364.2  c44.2,0,73.5-26.9,73.5-71c0-38.7-26.1-66.8-65-66.8c-16.6,0-34.6,8-42.2,19.6h-1l4.8-64.8h82.8c7.3,0,12.5-5.8,12.5-14.1  c0-8-5-13.8-12.5-13.8h-86.1c-13.3,0-22.1,8-22.8,21.3l-6.3,78.3c-0.8,13.1,6.3,21.6,17.8,21.6c7.8,0,12.3-2,20.3-8.5  c10.3-9,18.3-12.8,29.4-12.8c22.1,0,37.1,17.3,37.1,40.4c0,26.4-16.6,42.2-40.9,42.2c-17.1,0-31.6-9-38.9-24.1  c-3.8-7.3-8.8-10.8-14.6-10.8c-8.3,0-14.1,6.3-14.1,14.6c0,4.3,0.8,8,2.3,11.5C259.3,347.6,283.9,364.2,315.5,364.2z"/>
</svg>