<?xml version="1.0" ?><!-- Generator: Adobe Illustrator 25.0.0, SVG Export Plug-In . SVG Version: 6.00 Build 0)  --><svg xmlns="http://www.w3.org/2000/svg" xmlns:xlink="http://www.w3.org/1999/xlink" version="1.1" id="Layer_1" x="0px" y="0px" viewBox="0 0 512 512" style="enable-background:new 0 0 512 512;" xml:space="preserve">
<path d="M256,512c140,0,256-116.2,256-256C512,116,395.8,0,255.7,0C116,0,0,116,0,256C0,395.8,116.2,512,256,512z M185.7,364.4  c-9.8,0-16.3-6.5-16.3-16.6V187.2h-1.5l-27.1,20.3c-6,4.8-8.8,5-12.8,5c-7.5,0-14.8-6.8-14.8-15.6c0-6.8,3-11.5,8.5-15.3l39.2-26.9  c9.5-6.3,14.3-9,22.8-9c11,0,18.3,8,18.3,18.8v183.2C202,357.9,195.5,364.4,185.7,364.4z M320.8,367.7c-32.6,0-58-17.1-65.8-38.7  c-1.5-3.5-2.3-7.5-2.3-11.8c0-8.5,5.8-15.1,14.6-15.1c6,0,11,3.8,15.1,11.3c7.5,15.3,22.3,24.6,39.9,24.6  c25.1,0,42.2-16.1,42.2-43.2c0-23.8-15.6-41.9-38.1-41.9c-11.3,0-19.6,3.8-30.1,13.1c-8.3,6.8-13.1,8.8-21.1,8.8  c-12,0-19.3-8.8-18.6-22.3l6.5-80.6c0.8-13.8,9.8-22.1,23.6-22.1h88.8c7.5,0,12.8,6.3,12.8,14.6c0,8.5-5.5,14.6-12.8,14.6h-85.3  l-5,66.3h1c7.8-11.5,26.4-20.1,43.4-20.1c40.2,0,67,29.1,67,69C396.5,339.6,366.4,367.7,320.8,367.7z"/>
</svg>