<?xml version="1.0" encoding="UTF-8"?>
<!--Generator: Apple Native CoreSVG 326-->
<!DOCTYPE svg
PUBLIC "-//W3C//DTD SVG 1.1//EN"
       "http://www.w3.org/Graphics/SVG/1.1/DTD/svg11.dtd">
<svg version="1.1" xmlns="http://www.w3.org/2000/svg" xmlns:xlink="http://www.w3.org/1999/xlink" viewBox="0 0 23.3203 22.959">
 <g>
  <rect height="22.959" opacity="0" width="23.3203" x="0" y="0"/>
  <path d="M3.79883 22.959L19.1504 22.959C21.6797 22.959 22.959 21.6797 22.959 19.1992L22.959 3.76953C22.959 1.2793 21.6797 0 19.1504 0L3.79883 0C1.2793 0 0 1.26953 0 3.76953L0 19.1992C0 21.6992 1.2793 22.959 3.79883 22.959ZM3.83789 21.2305C2.4707 21.2305 1.72852 20.5078 1.72852 19.1016L1.72852 3.85742C1.72852 2.46094 2.4707 1.72852 3.83789 1.72852L19.1211 1.72852C20.459 1.72852 21.2305 2.46094 21.2305 3.85742L21.2305 19.1016C21.2305 20.5078 20.459 21.2305 19.1211 21.2305Z" fill="black" fill-opacity="0.85"/>
  <path d="M8.14453 16.6992C8.57422 16.6992 8.93555 16.3379 8.93555 15.8887L8.93555 7.11914C8.93555 6.5625 8.58398 6.23047 8.02734 6.23047C7.55859 6.23047 7.1875 6.47461 6.92383 6.68945L5.44922 7.85156C5.25391 8.00781 5.10742 8.21289 5.10742 8.49609C5.10742 8.84766 5.3418 9.0918 5.67383 9.0918C5.84961 9.0918 5.95703 9.0332 6.07422 8.94531L7.33398 7.93945L7.33398 15.8887C7.33398 16.3379 7.69531 16.6992 8.14453 16.6992ZM13.916 16.8164C15.8301 16.8164 16.8652 15.1562 16.8652 13.2129C16.8652 11.4844 16.0352 9.87305 14.4141 9.87305C13.6914 9.87305 12.9785 10.2148 12.6465 10.9863L12.5879 10.9863L12.8223 7.69531L15.8398 7.69531C16.2305 7.69531 16.4648 7.42188 16.4648 7.04102C16.4648 6.66992 16.2109 6.38672 15.8398 6.38672L12.4023 6.38672C11.8066 6.38672 11.543 6.76758 11.4941 7.35352L11.2695 10.957C11.25 11.1523 11.25 11.3574 11.25 11.5137C11.25 11.9434 11.4746 12.3145 11.9824 12.3145C12.3047 12.3145 12.4805 12.168 12.7051 11.8555C13.0078 11.3867 13.3691 11.0547 13.9258 11.0547C14.9219 11.0547 15.332 12.2559 15.332 13.252C15.332 14.375 14.9023 15.5176 13.8965 15.5176C13.1348 15.5176 12.666 14.9316 12.4512 14.1797C12.3242 13.7988 12.0801 13.6328 11.7773 13.6328C11.3672 13.6328 11.1133 13.8965 11.1133 14.3066C11.1133 14.5508 11.1816 14.8145 11.2695 15.0391C11.6797 16.0938 12.7539 16.8164 13.916 16.8164Z" fill="black" fill-opacity="0.85"/>
 </g>
</svg>
