<?xml version="1.0" ?><!-- Generator: Adobe Illustrator 25.0.0, SVG Export Plug-In . SVG Version: 6.00 Build 0)  --><svg xmlns="http://www.w3.org/2000/svg" xmlns:xlink="http://www.w3.org/1999/xlink" version="1.1" id="Layer_1" x="0px" y="0px" viewBox="0 0 512 512" style="enable-background:new 0 0 512 512;" xml:space="preserve">
<path d="M87.3,512h337.3c58.4,0,87.3-28.9,87.3-86.2V86.2C512,28.9,483.1,0,424.7,0H87.3C29.2,0,0,28.6,0,86.2v339.6  C0,483.4,29.2,512,87.3,512z M178.5,375.7c-10.8,0-18.1-7.2-18.1-18.4v-178h-1.4l-30.3,22.5c-6.7,5.3-9.7,5.6-14.2,5.6  c-8.3,0-16.4-7.5-16.4-17.2c0-7.5,3.3-12.8,9.7-17l43.4-29.8c10.3-7,15.6-10,25-10c12.2,0,20.3,8.9,20.3,20.9v203  C196.6,368.5,189.7,375.7,178.5,375.7z M328.2,379.3c-35.9,0-64.2-18.9-72.9-42.8c-1.4-3.9-2.5-8.3-2.5-13.1  c0-9.5,6.4-16.7,16.1-16.7c7,0,12.2,4.2,16.7,12.5c8.3,17,24.8,27.3,44.2,27.3c27.8,0,46.7-17.8,46.7-47.8  c0-26.4-17.2-46.4-42.3-46.4c-12.5,0-21.4,4.2-33.4,14.5c-9.2,7.5-14.5,9.7-23.4,9.7c-13.3,0-21.4-9.7-20.3-24.8l7-89.3  c0.8-15.3,10.8-24.5,26.1-24.5h98.7c8.3,0,13.9,7,13.9,16.1c0,9.5-5.8,16.1-13.9,16.1h-94.8l-5.6,73.4h1.1  c8.6-12.8,29.2-22.2,48.4-22.2c44.2,0,74,32.3,74,76.5C412.2,348.2,378.8,379.3,328.2,379.3z"/>
</svg>