<?xml version="1.0" ?><!-- Generator: Adobe Illustrator 25.0.0, SVG Export Plug-In . SVG Version: 6.00 Build 0)  --><svg xmlns="http://www.w3.org/2000/svg" xmlns:xlink="http://www.w3.org/1999/xlink" version="1.1" id="Layer_1" x="0px" y="0px" viewBox="0 0 512 512" style="enable-background:new 0 0 512 512;" xml:space="preserve">
<path d="M87.3,512h337.3c58.4,0,87.3-28.9,87.3-86.2V86.2C512,28.9,483.1,0,424.7,0H87.3C29.2,0,0,28.6,0,86.2v339.6  C0,483.4,29.2,512,87.3,512z M87.9,467.2c-27.8,0-43.1-14.7-43.1-43.7V88.4c0-28.9,15.3-43.7,43.1-43.7h336.2  c27.5,0,43.1,14.7,43.1,43.7v335.1c0,28.9-15.6,43.7-43.1,43.7H87.9z M177.2,372.1c10.8,0,17.5-7,17.5-17.8V157.4  c0-11.7-7.8-20-19.5-20c-9.2,0-14.5,2.8-24.2,9.5l-42.3,28.9c-6.1,4.2-9.5,9.2-9.5,16.4c0,9.5,7.8,16.7,15.9,16.7  c4.5,0,7.2-0.3,13.6-5.3l29.8-22h1.4v172.7C159.9,365.2,166.9,372.1,177.2,372.1z M322.3,375.4c48.9,0,81.5-30,81.5-79  c0-42.8-28.9-74-71.8-74c-18.6,0-38.7,9.2-47,21.7h-1.1l5.3-71.5h92.1c7.8,0,13.6-6.4,13.6-15.6c0-8.9-5.6-15.6-13.6-15.6h-95.7  c-14.7,0-24.2,8.9-25.3,23.6l-6.7,86.8c-1.1,14.5,6.7,23.9,19.5,23.9c8.6,0,13.6-2.2,22.5-9.5c11.7-10,20.3-14.2,32.5-14.2  c24.5,0,41.2,19.5,41.2,45.1c0,29.2-18.4,46.7-45.3,46.7c-18.9,0-35-10-43.1-26.7c-4.2-8.1-9.5-12-15.9-12c-9.5,0-15.9,7-15.9,16.1  c0,4.4,1.1,8.6,2.5,12.5C260,357.1,287.6,375.4,322.3,375.4z"/>
</svg>