<?xml version="1.0" ?><!-- Generator: Adobe Illustrator 25.0.0, SVG Export Plug-In . SVG Version: 6.00 Build 0)  --><svg xmlns="http://www.w3.org/2000/svg" xmlns:xlink="http://www.w3.org/1999/xlink" version="1.1" id="Layer_1" x="0px" y="0px" viewBox="0 0 512 512" style="enable-background:new 0 0 512 512;" xml:space="preserve">
<path d="M256,512c140,0,256-116.2,256-256C512,116,395.8,0,255.7,0C116,0,0,116,0,256C0,395.8,116.2,512,256,512z M256,469.3  c-118.5,0-213.1-94.9-213.1-213.3S137.3,42.7,255.7,42.7S469.1,137.5,469.3,256S374.5,469.3,256,469.3z M318,364.4  c40.7,0,69.8-26.6,69.8-72.8c0-43.2-29.4-66.8-62.2-66.8c-26.6,0-43.4,15.1-49.7,31.6h-1.8v-2.3c0-47.7,19.1-77.3,47.4-77.3  c14.6,0,24.6,7,30.9,16.6c4.3,6.5,8.3,9.3,15.1,9.3c7,0,12.3-5.3,12.3-13.6c0-3.3-0.5-6.3-1.8-9.5c-6.5-17.1-26.6-31.6-55.2-31.6  c-48.4,0-78.1,37.4-78.1,113.7c0,30.6,4.8,53.2,13.3,69C270.8,354.9,292.4,364.4,318,364.4z M180.7,361.4c9.8,0,16.1-6.3,16.1-16.3  V167.7c0-10.8-7.3-18.1-17.8-18.1c-8,0-13.1,2.5-21.8,8.5L119,184c-5.3,4-8.5,8.3-8.5,14.8c0,8.5,7,15.3,14.3,15.3  c4,0,6.5-0.3,12.3-4.8l26.9-19.8h1.5v155.6C165.4,355.1,171.4,361.4,180.7,361.4z M316.5,336.8c-23.3,0-39.7-18.1-39.7-43.9  c0-24.8,16.3-42.2,39.7-42.2c23.6,0,39.7,17.3,39.7,42.4C356.1,319.7,340.8,336.8,316.5,336.8z"/>
</svg>