<?xml version="1.0" encoding="UTF-8"?>
<!--Generator: Apple Native CoreSVG 326-->
<!DOCTYPE svg
PUBLIC "-//W3C//DTD SVG 1.1//EN"
       "http://www.w3.org/Graphics/SVG/1.1/DTD/svg11.dtd">
<svg version="1.1" xmlns="http://www.w3.org/2000/svg" xmlns:xlink="http://www.w3.org/1999/xlink" viewBox="0 0 25.8008 25.459">
 <g>
  <rect height="25.459" opacity="0" width="25.8008" x="0" y="0"/>
  <path d="M12.7148 25.4395C19.7363 25.4395 25.4395 19.7461 25.4395 12.7246C25.4395 5.70312 19.7363 0 12.7148 0C5.69336 0 0 5.70312 0 12.7246C0 19.7461 5.69336 25.4395 12.7148 25.4395ZM12.7148 23.623C6.68945 23.623 1.81641 18.75 1.81641 12.7246C1.81641 6.69922 6.68945 1.82617 12.7148 1.82617C18.7402 1.82617 23.6133 6.69922 23.6133 12.7246C23.6133 18.75 18.7402 23.623 12.7148 23.623Z" fill="black" fill-opacity="0.85"/>
  <path d="M9.17969 17.9492C9.60938 17.9492 9.98047 17.5879 9.98047 17.1387L9.98047 8.36914C9.98047 7.8125 9.61914 7.48047 9.0625 7.48047C8.60352 7.48047 8.22266 7.72461 7.95898 7.93945L6.48438 9.10156C6.28906 9.25781 6.14258 9.46289 6.14258 9.74609C6.14258 10.0977 6.37695 10.3418 6.71875 10.3418C6.89453 10.3418 7.00195 10.2832 7.10938 10.1953L8.36914 9.18945L8.36914 17.1387C8.36914 17.5879 8.74023 17.9492 9.17969 17.9492ZM15.2246 18.0664C17.0996 18.0664 18.1641 16.4453 18.1641 14.4922C18.1641 12.793 17.3438 11.1621 15.6641 11.1621C14.5996 11.1621 13.8281 11.9043 13.5547 13.0078L13.5059 13.0078C13.5059 12.959 13.5059 12.9004 13.5059 12.8516C13.5059 11.377 13.7012 8.70117 15.2051 8.70117C15.8496 8.70117 16.2695 9.16992 16.4941 9.77539C16.6504 10.1172 16.8457 10.3027 17.2168 10.3027C17.6562 10.3027 17.8516 10.0098 17.8516 9.63867C17.8516 9.50195 17.832 9.3457 17.793 9.17969C17.5098 8.08594 16.4746 7.40234 15.2441 7.40234C12.7148 7.40234 12.002 10.3809 12.002 12.8711C12.002 15.2441 12.7441 18.0664 15.2246 18.0664ZM15.2051 16.7676C14.1797 16.7676 13.7305 15.5078 13.7305 14.502C13.7305 13.5059 14.2188 12.3828 15.1953 12.3828C16.2109 12.3828 16.6504 13.5449 16.6309 14.5605C16.6309 15.5664 16.1621 16.7676 15.2051 16.7676Z" fill="black" fill-opacity="0.85"/>
 </g>
</svg>
