<?xml version="1.0" ?><!-- Generator: Adobe Illustrator 25.0.0, SVG Export Plug-In . SVG Version: 6.00 Build 0)  --><svg xmlns="http://www.w3.org/2000/svg" xmlns:xlink="http://www.w3.org/1999/xlink" version="1.1" id="Layer_1" x="0px" y="0px" viewBox="0 0 512 512" style="enable-background:new 0 0 512 512;" xml:space="preserve">
<path d="M87.3,512h337.3c58.4,0,87.3-28.9,87.3-86.2V86.2C512,28.9,483.1,0,424.7,0H87.3C29.2,0,0,28.6,0,86.2v339.6  C0,483.4,29.2,512,87.3,512z M182.7,375.7c-10.6,0-17.8-7.2-17.8-18.4v-178h-1.7l-30.3,22.8c-6.7,5-9.5,5.3-14.2,5.3  c-8.3,0-16.4-7.5-16.4-17.2c0-7.5,3.6-12.8,9.5-17l43.7-29.8c10.3-7,15.9-9.7,25.3-9.7c12.2,0,20.3,8.6,20.3,20.6v203  C201.1,368.5,193.8,375.7,182.7,375.7z M292.8,376c-10.8,0-19.2-7.8-19.2-18.6c0-5.6,0.6-8.9,3.1-13.3l89-171.6v-2.5H265  c-10,0-16.7-6.4-16.7-15.9c0-9.7,6.7-16.4,16.7-16.4h115.7c15.6,0,25.6,11.1,25.6,25c0,6.1-1.1,11.4-5.6,20.6l-89.3,178.8  C306.2,371.8,300.6,376,292.8,376z"/>
</svg>