<?xml version="1.0" ?><!-- Generator: Adobe Illustrator 25.0.0, SVG Export Plug-In . SVG Version: 6.00 Build 0)  --><svg xmlns="http://www.w3.org/2000/svg" xmlns:xlink="http://www.w3.org/1999/xlink" version="1.1" id="Layer_1" x="0px" y="0px" viewBox="0 0 512 512" style="enable-background:new 0 0 512 512;" xml:space="preserve">
<path d="M87.3,512h337.3c58.4,0,87.3-28.9,87.3-86.2V86.2C512,28.9,483.1,0,424.7,0H87.3C29.2,0,0,28.6,0,86.2v339.6  C0,483.4,29.2,512,87.3,512z M87.9,467.2c-27.8,0-43.1-14.7-43.1-43.7V88.4c0-28.9,15.3-43.7,43.1-43.7h336.2  c27.5,0,43.1,14.7,43.1,43.7v335.1c0,28.9-15.6,43.7-43.1,43.7H87.9z M184.9,372.1c10.6,0,17.5-7,17.5-17.8V157.4  c0-11.7-7.8-20-19.5-20c-9.2,0-14.5,2.8-24.5,9.5l-42.3,28.9c-5.8,4.2-9.2,9.2-9.2,16.4c0,9.5,7.8,16.7,15.9,16.7  c4.5,0,7.2-0.3,13.6-5.3l29.5-22h1.7v172.7C167.7,365.2,174.7,372.1,184.9,372.1z M291.7,372.4c7.5,0,12.8-4.2,17.8-13.6l86.8-173.5  c4.2-8.9,5.3-13.9,5.3-19.7c0-13.6-9.7-24.2-24.8-24.2H264.8c-9.7,0-16.1,6.4-16.1,15.9c0,9.2,6.4,15.3,16.1,15.3h97.6v2.2  l-86.2,166.9c-2.5,4.2-3.1,7.5-3.1,12.8C273.1,364.9,281.2,372.4,291.7,372.4z"/>
</svg>