<?xml version="1.0" ?><!-- Generator: Adobe Illustrator 25.0.0, SVG Export Plug-In . SVG Version: 6.00 Build 0)  --><svg xmlns="http://www.w3.org/2000/svg" xmlns:xlink="http://www.w3.org/1999/xlink" version="1.1" id="Layer_1" x="0px" y="0px" viewBox="0 0 512 512" style="enable-background:new 0 0 512 512;" xml:space="preserve">
<path d="M256,512c140,0,256-116.2,256-256C512,116,395.8,0,255.7,0C116,0,0,116,0,256C0,395.8,116.2,512,256,512z M256,469.3  c-118.5,0-213.1-94.9-213.1-213.3S137.3,42.7,255.7,42.7S469.1,137.5,469.3,256S374.5,469.3,256,469.3z M320.2,364.2  c43.7,0,73.5-24.8,73.5-61.5c0-25.6-15.8-46.4-42.7-51.7v-1.5c23.1-6.3,35.1-24.3,35.1-46.4c0-32.6-27.1-55-65.5-55  s-65.5,22.3-65.5,55c0,22.1,11.8,39.4,35.1,46.4v1.5c-27.1,5.3-42.7,26.4-42.7,52C247.7,339.6,276.8,364.2,320.2,364.2z M184,361.4  c9.5,0,15.8-6.3,15.8-16.3V167.7c0-10.8-7-18.1-17.6-18.1c-8.3,0-13.1,2.5-22.1,8.5L122,184c-5.3,4-8.3,8.3-8.3,14.8  c0,8.5,7,15.3,14.3,15.3c4,0,6.5-0.3,12.3-4.8l26.6-19.8h1.5v155.6C168.4,355.1,174.7,361.4,184,361.4z M320.8,239.2  c-19.6,0-33.6-13.8-33.6-32.9c0-19.3,14.1-32.4,33.6-32.4c19.8,0,33.6,13.1,33.6,32.4C354.4,225.4,340.3,239.2,320.8,239.2z   M321,338.3c-23.8,0-41.2-15.3-41.2-37.4c0-21.8,17.3-37.4,41.2-37.4c24.1,0,40.9,15.3,40.9,37.4C361.9,323,344.6,338.3,321,338.3z"/>
</svg>