<?xml version="1.0" encoding="UTF-8"?>
<!--Generator: Apple Native CoreSVG 326-->
<!DOCTYPE svg
PUBLIC "-//W3C//DTD SVG 1.1//EN"
       "http://www.w3.org/Graphics/SVG/1.1/DTD/svg11.dtd">
<svg version="1.1" xmlns="http://www.w3.org/2000/svg" xmlns:xlink="http://www.w3.org/1999/xlink" viewBox="0 0 25.8008 25.459">
 <g>
  <rect height="25.459" opacity="0" width="25.8008" x="0" y="0"/>
  <path d="M25.4395 12.7246C25.4395 19.7266 19.7266 25.4395 12.7148 25.4395C5.71289 25.4395 0 19.7266 0 12.7246C0 5.71289 5.71289 0 12.7148 0C19.7266 0 25.4395 5.71289 25.4395 12.7246ZM12.4414 10.0781C12.4414 11.3477 13.1934 12.1484 14.0625 12.4121L14.0625 12.4512C12.9688 12.7051 12.1387 13.75 12.1387 15.127C12.1387 16.9824 13.5059 18.1543 15.3809 18.1543C17.3535 18.1543 18.623 16.875 18.623 15.127C18.623 13.7402 17.7637 12.6953 16.7285 12.4512L16.7285 12.4121C17.6172 12.1387 18.3398 11.2695 18.3398 10.0879C18.3398 8.45703 17.1484 7.30469 15.3809 7.30469C13.7891 7.30469 12.4414 8.32031 12.4414 10.0781ZM8.02734 7.8125L6.52344 9.01367C6.31836 9.16992 6.17188 9.38477 6.17188 9.67773C6.17188 10.0391 6.40625 10.293 6.75781 10.293C6.94336 10.293 7.05078 10.2344 7.17773 10.1367L8.44727 9.11133L8.44727 17.2363C8.44727 17.7051 8.82812 18.0762 9.29688 18.0762C9.73633 18.0762 10.1172 17.7051 10.1172 17.2363L10.1172 8.27148C10.1172 7.69531 9.74609 7.34375 9.16992 7.34375C8.69141 7.34375 8.30078 7.60742 8.02734 7.8125ZM16.9336 15C16.9336 16.0156 16.4062 16.9043 15.3809 16.9043C14.375 16.9043 13.8379 16.0156 13.8379 15C13.8379 13.9844 14.3848 13.1348 15.3809 13.1348C16.3477 13.1348 16.9336 13.9258 16.9336 15ZM16.748 10.2441C16.748 11.1523 16.2402 11.8848 15.3809 11.8848C14.541 11.8848 14.0234 11.1133 14.0234 10.2441C14.0234 9.33594 14.5312 8.54492 15.3809 8.54492C16.2988 8.54492 16.748 9.36523 16.748 10.2441Z" fill="black" fill-opacity="0.85"/>
 </g>
</svg>
