<?xml version="1.0" ?><!-- Generator: Adobe Illustrator 25.0.0, SVG Export Plug-In . SVG Version: 6.00 Build 0)  --><svg xmlns="http://www.w3.org/2000/svg" xmlns:xlink="http://www.w3.org/1999/xlink" version="1.1" id="Layer_1" x="0px" y="0px" viewBox="0 0 512 512" style="enable-background:new 0 0 512 512;" xml:space="preserve">
<path d="M87.3,512h337.3c58.4,0,87.3-28.9,87.3-86.2V86.2C512,28.9,483.1,0,424.7,0H87.3C29.2,0,0,28.6,0,86.2v339.6  C0,483.4,29.2,512,87.3,512z M329.8,379.3c-49.5,0-82.9-28.1-82.9-70.1c0-29.2,17.8-53.4,48.9-59.8v-1.7  c-26.7-7.8-40.3-27.8-40.3-52.8c0-37.3,31.1-63.1,74.8-63.1c43.9,0,75.1,25.9,75.1,63.1c0,25-13.9,45.6-40.3,52.8v1.7  c30.9,6.4,48.9,30.3,48.9,59.5C414.1,350.7,379.9,379.3,329.8,379.3z M174.1,375.7c-10.6,0-17.8-7.2-17.8-18.4v-178h-1.4l-30.6,22.5  c-6.7,5.3-9.5,5.6-14.2,5.6c-8.3,0-16.4-7.5-16.4-17.2c0-7.5,3.6-12.8,10-17l43.4-29.8c10-7,15.6-9.7,25-9.7  c12.2,0,20.3,8.6,20.3,20.6v203C192.5,368.5,185.5,375.7,174.1,375.7z M330.4,236.4c22.5,0,38.4-16.1,38.4-37.8  c0-21.7-15.6-36.7-38.4-36.7c-22.2,0-37.8,15-37.8,36.7C292.6,220.3,308.1,236.4,330.4,236.4z M330.7,349.3c27.3,0,47-17.5,47-42.6  c0-25-19.2-42.8-47-42.8c-27,0-46.7,18.1-46.7,42.8C283.9,331.8,303.7,349.3,330.7,349.3z"/>
</svg>