<?xml version="1.0" encoding="UTF-8"?>
<!--Generator: Apple Native CoreSVG 326-->
<!DOCTYPE svg
PUBLIC "-//W3C//DTD SVG 1.1//EN"
       "http://www.w3.org/Graphics/SVG/1.1/DTD/svg11.dtd">
<svg version="1.1" xmlns="http://www.w3.org/2000/svg" xmlns:xlink="http://www.w3.org/1999/xlink" viewBox="0 0 23.3203 22.959">
 <g>
  <rect height="22.959" opacity="0" width="23.3203" x="0" y="0"/>
  <path d="M22.959 3.76953L22.959 19.1992C22.959 21.6797 21.6797 22.959 19.1504 22.959L3.79883 22.959C1.2793 22.959 0 21.6992 0 19.1992L0 3.76953C0 1.26953 1.2793 0 3.79883 0L19.1504 0C21.6797 0 22.959 1.2793 22.959 3.76953ZM11.2012 8.82812C11.2012 10.0977 11.9629 10.8984 12.832 11.1621L12.832 11.2012C11.7383 11.4551 10.9082 12.5 10.9082 13.877C10.9082 15.7324 12.2754 16.9043 14.1504 16.9043C16.123 16.9043 17.3926 15.625 17.3926 13.877C17.3926 12.4902 16.5332 11.4453 15.498 11.2012L15.498 11.1621C16.3867 10.8887 17.1094 10.0195 17.1094 8.83789C17.1094 7.20703 15.918 6.05469 14.1504 6.05469C12.5586 6.05469 11.2012 7.07031 11.2012 8.82812ZM6.79688 6.5625L5.29297 7.76367C5.08789 7.91992 4.94141 8.13477 4.94141 8.42773C4.94141 8.78906 5.17578 9.04297 5.52734 9.04297C5.71289 9.04297 5.82031 8.98438 5.9375 8.88672L7.2168 7.86133L7.2168 15.9863C7.2168 16.4551 7.59766 16.8262 8.05664 16.8262C8.50586 16.8262 8.88672 16.4551 8.88672 15.9863L8.88672 7.02148C8.88672 6.44531 8.51562 6.09375 7.93945 6.09375C7.46094 6.09375 7.07031 6.35742 6.79688 6.5625ZM15.7031 13.75C15.7031 14.7656 15.166 15.6543 14.1504 15.6543C13.1445 15.6543 12.6074 14.7656 12.6074 13.75C12.6074 12.7344 13.1543 11.8848 14.1504 11.8848C15.1172 11.8848 15.7031 12.6758 15.7031 13.75ZM15.5176 8.99414C15.5176 9.90234 15.0098 10.6348 14.1504 10.6348C13.3008 10.6348 12.793 9.86328 12.793 8.99414C12.793 8.08594 13.291 7.29492 14.1504 7.29492C15.0684 7.29492 15.5176 8.11523 15.5176 8.99414Z" fill="black" fill-opacity="0.85"/>
 </g>
</svg>
