<?xml version="1.0" encoding="UTF-8"?>
<!--Generator: Apple Native CoreSVG 326-->
<!DOCTYPE svg
PUBLIC "-//W3C//DTD SVG 1.1//EN"
       "http://www.w3.org/Graphics/SVG/1.1/DTD/svg11.dtd">
<svg version="1.1" xmlns="http://www.w3.org/2000/svg" xmlns:xlink="http://www.w3.org/1999/xlink" viewBox="0 0 23.3203 22.959">
 <g>
  <rect height="22.959" opacity="0" width="23.3203" x="0" y="0"/>
  <path d="M3.79883 22.959L19.1504 22.959C21.6797 22.959 22.959 21.6797 22.959 19.1992L22.959 3.76953C22.959 1.2793 21.6797 0 19.1504 0L3.79883 0C1.2793 0 0 1.26953 0 3.76953L0 19.1992C0 21.6992 1.2793 22.959 3.79883 22.959ZM3.83789 21.2305C2.4707 21.2305 1.72852 20.5078 1.72852 19.1016L1.72852 3.85742C1.72852 2.46094 2.4707 1.72852 3.83789 1.72852L19.1211 1.72852C20.459 1.72852 21.2305 2.46094 21.2305 3.85742L21.2305 19.1016C21.2305 20.5078 20.459 21.2305 19.1211 21.2305Z" fill="black" fill-opacity="0.85"/>
  <path d="M8.14453 16.6992C8.57422 16.6992 8.93555 16.3379 8.93555 15.8887L8.93555 7.11914C8.93555 6.5625 8.58398 6.23047 8.01758 6.23047C7.55859 6.23047 7.17773 6.47461 6.91406 6.68945L5.43945 7.85156C5.24414 8.00781 5.09766 8.21289 5.09766 8.49609C5.09766 8.84766 5.33203 9.0918 5.67383 9.0918C5.84961 9.0918 5.95703 9.0332 6.07422 8.94531L7.33398 7.93945L7.33398 15.8887C7.33398 16.3379 7.69531 16.6992 8.14453 16.6992ZM14.0723 16.7773C15.9961 16.7773 17.2363 15.5273 17.2363 13.8184C17.2363 12.4707 16.3965 11.4453 15.3809 11.2109L15.3809 11.1719C16.25 10.8984 16.9531 10.0488 16.9531 8.90625C16.9531 7.31445 15.8008 6.18164 14.0723 6.18164C12.5195 6.18164 11.2012 7.17773 11.2012 8.89648C11.2012 10.127 11.9434 10.9082 12.793 11.1719L12.793 11.2109C11.7188 11.4551 10.918 12.4805 10.918 13.8184C10.918 15.6152 12.2461 16.7773 14.0723 16.7773ZM14.0723 10.6543C13.2422 10.6543 12.7344 9.90234 12.7344 9.05273C12.7344 8.16406 13.2324 7.38281 14.0723 7.38281C14.9609 7.38281 15.4102 8.19336 15.4102 9.05273C15.4102 9.94141 14.9121 10.6543 14.0723 10.6543ZM14.0723 15.5664C13.0859 15.5664 12.5586 14.6973 12.5586 13.7012C12.5586 12.7051 13.0957 11.875 14.0723 11.875C15.0195 11.875 15.5859 12.6465 15.5859 13.7012C15.5859 14.6973 15.0684 15.5664 14.0723 15.5664Z" fill="black" fill-opacity="0.85"/>
 </g>
</svg>
