<?xml version="1.0" ?><!-- Generator: Adobe Illustrator 25.0.0, SVG Export Plug-In . SVG Version: 6.00 Build 0)  --><svg xmlns="http://www.w3.org/2000/svg" xmlns:xlink="http://www.w3.org/1999/xlink" version="1.1" id="Layer_1" x="0px" y="0px" viewBox="0 0 512 512" style="enable-background:new 0 0 512 512;" xml:space="preserve">
<path d="M87.3,512h337.3c58.4,0,87.3-28.9,87.3-86.2V86.2C512,28.9,483.1,0,424.7,0H87.3C29.2,0,0,28.6,0,86.2v339.6  C0,483.4,29.2,512,87.3,512z M87.9,467.2c-27.8,0-43.1-14.7-43.1-43.7V88.4c0-28.9,15.3-43.7,43.1-43.7h336.2  c27.5,0,43.1,14.7,43.1,43.7v335.1c0,28.9-15.6,43.7-43.1,43.7H87.9z M327.6,375.4c48.4,0,81.5-27.8,81.5-68.1  c0-28.4-17.5-51.5-47.3-57.6v-1.7c25.6-7,38.9-27,38.9-51.2c0-36.2-30-61.2-72.6-61.2s-72.6,25-72.6,61.2  c0,24.2,13.1,43.7,38.9,51.2v1.7c-30,6.1-47.3,29.5-47.3,57.8C247.2,348.2,279.5,375.4,327.6,375.4z M176.6,372.1  c10.8,0,17.5-7,17.5-17.8V157.4c0-11.7-7.8-20-19.5-20c-9.2,0-14.5,2.8-24.2,9.5l-42.3,28.9c-6.1,4.2-9.5,9.2-9.5,16.4  c0,9.5,7.8,16.7,15.9,16.7c4.4,0,7.2-0.3,13.6-5.3l29.8-22h1.4v172.7C159.4,365.2,166.3,372.1,176.6,372.1z M328.2,236.9  c-21.7,0-37-15.6-37-36.7s15.3-35.6,37-35.6c22,0,37.3,14.5,37.3,35.6S349.9,236.9,328.2,236.9z M328.4,346.5  c-26.4,0-45.6-17-45.6-41.4c0-23.9,19.2-41.4,45.6-41.4c27,0,45.6,17.2,45.6,41.4C374.1,329.6,354.9,346.5,328.4,346.5z"/>
</svg>