<?xml version="1.0" ?><!-- Generator: Adobe Illustrator 25.0.0, SVG Export Plug-In . SVG Version: 6.00 Build 0)  --><svg xmlns="http://www.w3.org/2000/svg" xmlns:xlink="http://www.w3.org/1999/xlink" version="1.1" id="Layer_1" x="0px" y="0px" viewBox="0 0 512 512" style="enable-background:new 0 0 512 512;" xml:space="preserve">
<path d="M256,512c140,0,256-116.2,256-256C512,116,395.8,0,255.7,0C116,0,0,116,0,256C0,395.8,116.2,512,256,512z M319.5,367.7  c-35.6,0-57-20.3-61-34.6c-1-3-1.8-6.5-1.8-9.3c0-9,5.3-15.3,13.6-15.3c6.8,0,11.8,2.8,16.1,10c6,11.5,17.8,19.1,32.6,19.1  c29.6,0,49.7-30.4,49.2-81.8h-1.8c-6.8,17.6-23.6,32.9-52,32.9c-33.6,0-64-24.8-64-69.3c0-45.7,28.4-75,72-75  c48.4,0,76.5,36.6,76.5,104.4C399.1,326.8,371.2,367.7,319.5,367.7z M177.7,364.4c-9.5,0-16.1-6.5-16.1-16.6V187.2h-1.5l-27.4,20.3  c-6.3,4.8-8.5,5-12.8,5c-7.5,0-14.8-6.8-14.8-15.6c0-6.8,3.3-11.5,8.5-15.3l39.4-26.9c9.3-6.3,14.3-8.8,22.8-8.8  c10.5,0,18.1,7.8,18.1,18.6v183.2C194,357.9,187.7,364.4,177.7,364.4z M324.3,261.8c24.3,0,40.9-18.3,40.9-43.7  c0-26.6-17.1-45.4-40.7-45.4c-25.1,0-41.2,17.8-41.2,44.9C283.4,243.5,299.7,261.8,324.3,261.8z"/>
</svg>