<?xml version="1.0" encoding="UTF-8"?>
<!--Generator: Apple Native CoreSVG 326-->
<!DOCTYPE svg
PUBLIC "-//W3C//DTD SVG 1.1//EN"
       "http://www.w3.org/Graphics/SVG/1.1/DTD/svg11.dtd">
<svg version="1.1" xmlns="http://www.w3.org/2000/svg" xmlns:xlink="http://www.w3.org/1999/xlink" viewBox="0 0 25.8008 25.459">
 <g>
  <rect height="25.459" opacity="0" width="25.8008" x="0" y="0"/>
  <path d="M12.7148 25.4395C19.7363 25.4395 25.4395 19.7461 25.4395 12.7246C25.4395 5.70312 19.7363 0 12.7148 0C5.69336 0 0 5.70312 0 12.7246C0 19.7461 5.69336 25.4395 12.7148 25.4395ZM12.7148 23.623C6.68945 23.623 1.81641 18.75 1.81641 12.7246C1.81641 6.69922 6.68945 1.82617 12.7148 1.82617C18.7402 1.82617 23.6133 6.69922 23.6133 12.7246C23.6133 18.75 18.7402 23.623 12.7148 23.623Z" fill="black" fill-opacity="0.85"/>
  <path d="M9.35547 17.9492C9.78516 17.9492 10.1562 17.5879 10.1562 17.1387L10.1562 8.36914C10.1562 7.8125 9.79492 7.48047 9.23828 7.48047C8.7793 7.48047 8.39844 7.72461 8.13477 7.93945L6.66016 9.10156C6.46484 9.25781 6.31836 9.46289 6.31836 9.74609C6.31836 10.0977 6.55273 10.3418 6.89453 10.3418C7.07031 10.3418 7.17773 10.2832 7.28516 10.1953L8.54492 9.18945L8.54492 17.1387C8.54492 17.5879 8.91602 17.9492 9.35547 17.9492ZM14.5801 14.2969C15.6445 14.2969 16.416 13.5645 16.6895 12.4609L16.7383 12.4609C16.7383 12.5098 16.7383 12.5684 16.7383 12.6172C16.7383 14.0918 16.5527 16.7383 15.0293 16.7383C14.3945 16.7383 13.9844 16.2988 13.75 15.6738C13.584 15.2832 13.3691 15.127 13.0371 15.127C12.5781 15.127 12.373 15.4395 12.373 15.8105C12.373 15.9473 12.4023 16.1133 12.4512 16.2695C12.7344 17.3828 13.7793 18.0469 15.0098 18.0469C17.5391 18.0469 18.2422 15.1172 18.2422 12.5977C18.2422 10.2246 17.5098 7.40234 15.0293 7.40234C13.1641 7.40234 12.0898 9.02344 12.0898 10.9863C12.0898 12.6758 12.9102 14.2969 14.5801 14.2969ZM15.0488 13.0664C14.043 13.0664 13.6133 11.9238 13.6133 10.918C13.6133 9.88281 14.082 8.70117 15.0488 8.70117C16.0742 8.70117 16.5137 9.89258 16.5137 10.918C16.5137 11.9629 16.0254 13.0664 15.0488 13.0664Z" fill="black" fill-opacity="0.85"/>
 </g>
</svg>
