<?xml version="1.0" ?><!-- Generator: Adobe Illustrator 25.0.0, SVG Export Plug-In . SVG Version: 6.00 Build 0)  --><svg xmlns="http://www.w3.org/2000/svg" xmlns:xlink="http://www.w3.org/1999/xlink" version="1.1" id="Layer_1" x="0px" y="0px" viewBox="0 0 512 512" style="enable-background:new 0 0 512 512;" xml:space="preserve">
<path d="M87.3,512h337.3c58.4,0,87.3-28.9,87.3-86.2V86.2C512,28.9,483.1,0,424.7,0H87.3C29.2,0,0,28.6,0,86.2v339.6  C0,483.4,29.2,512,87.3,512z M87.9,467.2c-27.8,0-43.1-14.7-43.1-43.7V88.4c0-28.9,15.3-43.7,43.1-43.7h336.2  c27.5,0,43.1,14.7,43.1,43.7v335.1c0,28.9-15.6,43.7-43.1,43.7H87.9z M193,381.6H336c10.6,0,18.6-7,18.6-18.1  c0-11.7-8.1-18.4-18.6-18.4H234.4v-1.9l65.9-70.4c24.8-26.4,42-48.4,42-79.3c0-42.3-33.9-70.4-85.4-70.4  c-39.5,0-74.5,23.9-83.4,55.1c-1.1,4.2-1.4,7.5-1.4,11.1c0,10.8,7.2,17.8,17.8,17.8c10,0,15-6.1,19.7-13.9c7.5-17,22-34.8,49.2-34.8  c26.4,0,43.9,15.3,43.9,38.4c0,20.3-17,37.3-33.4,54.5l-89,95.4c-4.7,5.3-7.2,10.8-7.2,16.7C173.3,374.6,180.5,381.6,193,381.6z"/>
</svg>