<?xml version="1.0" encoding="UTF-8"?>
<!--Generator: Apple Native CoreSVG 326-->
<!DOCTYPE svg
PUBLIC "-//W3C//DTD SVG 1.1//EN"
       "http://www.w3.org/Graphics/SVG/1.1/DTD/svg11.dtd">
<svg version="1.1" xmlns="http://www.w3.org/2000/svg" xmlns:xlink="http://www.w3.org/1999/xlink" viewBox="0 0 23.3203 22.959">
 <g>
  <rect height="22.959" opacity="0" width="23.3203" x="0" y="0"/>
  <path d="M3.79883 22.959L19.1504 22.959C21.6797 22.959 22.959 21.6797 22.959 19.1992L22.959 3.76953C22.959 1.2793 21.6797 0 19.1504 0L3.79883 0C1.2793 0 0 1.26953 0 3.76953L0 19.1992C0 21.6992 1.2793 22.959 3.79883 22.959ZM3.83789 21.2305C2.4707 21.2305 1.72852 20.5078 1.72852 19.1016L1.72852 3.85742C1.72852 2.46094 2.4707 1.72852 3.83789 1.72852L19.1211 1.72852C20.459 1.72852 21.2305 2.46094 21.2305 3.85742L21.2305 19.1016C21.2305 20.5078 20.459 21.2305 19.1211 21.2305Z" fill="black" fill-opacity="0.85"/>
  <path d="M8.64258 17.1484L15.1074 17.1484C15.5273 17.1484 15.8301 16.8652 15.8301 16.4355C15.8301 15.9863 15.5273 15.7129 15.1074 15.7129L10.2441 15.7129L10.2441 15.6348L13.418 12.2168C14.5801 10.9668 15.293 9.99023 15.293 8.67188C15.293 6.77734 13.8086 5.53711 11.5527 5.53711C9.77539 5.53711 8.21289 6.61133 7.85156 8.04688C7.80273 8.21289 7.79297 8.35938 7.79297 8.51562C7.79297 8.93555 8.07617 9.21875 8.50586 9.21875C8.90625 9.21875 9.11133 8.98438 9.27734 8.65234C9.56055 7.77344 10.3223 6.92383 11.6211 6.92383C12.9004 6.92383 13.7402 7.66602 13.7402 8.7793C13.7402 9.69727 13.0469 10.4785 12.2656 11.3184L8.1543 15.7617C7.95898 15.9766 7.86133 16.1816 7.86133 16.4258C7.86133 16.8652 8.1543 17.1484 8.64258 17.1484Z" fill="black" fill-opacity="0.85"/>
 </g>
</svg>
