<?xml version="1.0" ?><!-- Generator: Adobe Illustrator 25.0.0, SVG Export Plug-In . SVG Version: 6.00 Build 0)  --><svg xmlns="http://www.w3.org/2000/svg" xmlns:xlink="http://www.w3.org/1999/xlink" version="1.1" id="Layer_1" x="0px" y="0px" viewBox="0 0 512 512" style="enable-background:new 0 0 512 512;" xml:space="preserve">
<path d="M87.3,512h337.3c58.4,0,87.3-28.9,87.3-86.2V86.2C512,28.9,483.1,0,424.7,0H87.3C29.2,0,0,28.6,0,86.2v339.6  C0,483.4,29.2,512,87.3,512z M191.1,385.7c-13.1,0-20.6-7.2-20.6-18.9c0-5.8,2.8-11.7,7.5-17.2l91.8-98.2  c17-17.8,34.5-35.3,34.5-56.2c0-23.6-18.1-39.5-45.3-39.5c-27.8,0-42.8,18.4-50.6,35.6c-4.7,8.1-10,14.5-20.3,14.5  c-11.1,0-18.6-7.2-18.6-18.4c0-3.9,0.3-7.2,1.7-11.7c9.2-32,45.3-56.7,85.9-56.7c53.1,0,88.2,29.2,88.2,72.6  c0,32-17.8,54.8-43.4,81.8L234.2,346v1.9h104.3c11.1,0,19.5,7,19.5,18.9c0,11.7-8.3,18.9-19.5,18.9H191.1z"/>
</svg>