<?xml version="1.0" ?><!-- Generator: Adobe Illustrator 25.0.0, SVG Export Plug-In . SVG Version: 6.00 Build 0)  --><svg xmlns="http://www.w3.org/2000/svg" xmlns:xlink="http://www.w3.org/1999/xlink" version="1.1" id="Layer_1" x="0px" y="0px" viewBox="0 0 512 512" style="enable-background:new 0 0 512 512;" xml:space="preserve">
<path d="M256,512c140,0,256-116.2,256-256C512,116,395.8,0,255.7,0C116,0,0,116,0,256C0,395.8,116.2,512,256,512z M256,469.3  c-118.5,0-213.1-94.9-213.1-213.3S137.3,42.7,255.7,42.7S469.1,137.5,469.3,256S374.5,469.3,256,469.3z M127,358.4h103.7  c8,0,14.1-5.8,14.1-14.8c0-9.3-6-14.8-14.1-14.8h-72.8v-1.5l49.2-57.2c18.6-21.6,32.4-39.9,32.4-64.8c0-34.9-25.6-57.2-65-57.2  c-29.9,0-56.5,18.8-63,44.7c-0.5,3-1.3,6-1.3,8.8c0,9.3,5.5,15.3,14.1,15.3c7.3,0,11-4.5,14.3-11.8c6.5-18.8,19.1-28.1,37.1-28.1  c20.3,0,33.4,12.3,33.4,31.1c0,16.3-13.3,30.1-25.1,44.4l-66.3,77.8c-3.8,4-5.5,8.5-5.5,13.3C112.2,352.6,118,358.4,127,358.4z   M339.3,364.2c43.2,0,71.8-41.2,71.8-108.2c0-66.8-28.6-107.9-71.8-107.9c-43.2,0-71.8,41.2-71.8,107.9  C267.5,323,296.2,364.2,339.3,364.2z M339.3,333.8c-23.8,0-38.9-29.6-38.9-77.8c0-47.9,15.1-77.6,38.9-77.6  c24.1,0,38.9,29.6,38.9,77.6C378.2,304.2,363.7,333.8,339.3,333.8z"/>
</svg>