<?xml version="1.0" encoding="UTF-8"?>
<!--Generator: Apple Native CoreSVG 326-->
<!DOCTYPE svg
PUBLIC "-//W3C//DTD SVG 1.1//EN"
       "http://www.w3.org/Graphics/SVG/1.1/DTD/svg11.dtd">
<svg version="1.1" xmlns="http://www.w3.org/2000/svg" xmlns:xlink="http://www.w3.org/1999/xlink" viewBox="0 0 23.3203 22.959">
 <g>
  <rect height="22.959" opacity="0" width="23.3203" x="0" y="0"/>
  <path d="M3.79883 22.959L19.1504 22.959C21.6797 22.959 22.959 21.6797 22.959 19.1992L22.959 3.76953C22.959 1.2793 21.6797 0 19.1504 0L3.79883 0C1.2793 0 0 1.26953 0 3.76953L0 19.1992C0 21.6992 1.2793 22.959 3.79883 22.959ZM3.83789 21.2305C2.4707 21.2305 1.72852 20.5078 1.72852 19.1016L1.72852 3.85742C1.72852 2.46094 2.4707 1.72852 3.83789 1.72852L19.1211 1.72852C20.459 1.72852 21.2305 2.46094 21.2305 3.85742L21.2305 19.1016C21.2305 20.5078 20.459 21.2305 19.1211 21.2305Z" fill="black" fill-opacity="0.85"/>
  <path d="M5.68359 16.5723L10.0391 16.5723C10.4297 16.5723 10.6738 16.3086 10.6738 15.918C10.6738 15.5078 10.4199 15.2637 10.0391 15.2637L6.9043 15.2637L6.9043 15.1758L8.87695 12.5879C10.0781 11.0645 10.4688 10.1367 10.4688 9.04297C10.4688 7.37305 9.39453 6.13281 7.68555 6.13281C6.11328 6.13281 4.95117 7.4707 4.95117 8.78906C4.95117 9.18945 5.18555 9.48242 5.61523 9.48242C5.97656 9.48242 6.21094 9.31641 6.30859 8.95508C6.5332 8.02734 6.88477 7.42188 7.68555 7.42188C8.53516 7.42188 8.97461 8.20312 8.97461 9.11133C8.97461 10.1074 8.35938 11.084 7.65625 12.002L5.33203 15.0488C5.12695 15.3125 4.93164 15.5859 4.93164 15.918C4.93164 16.2988 5.18555 16.5723 5.68359 16.5723ZM15.1855 16.8164C17.6562 16.8164 18.3496 13.9258 18.3496 11.4746C18.3496 9.02344 17.6562 6.13281 15.1855 6.13281C12.7246 6.13281 12.0312 9.02344 12.0312 11.4746C12.0312 13.9258 12.7246 16.8164 15.1855 16.8164ZM15.1855 15.498C14.0039 15.498 13.6426 13.5645 13.6426 11.4746C13.6426 9.375 14.0039 7.45117 15.1855 7.45117C16.377 7.45117 16.7383 9.375 16.7383 11.4746C16.7383 13.5645 16.377 15.498 15.1855 15.498Z" fill="black" fill-opacity="0.85"/>
 </g>
</svg>
