<?xml version="1.0" encoding="UTF-8"?>
<!--Generator: Apple Native CoreSVG 326-->
<!DOCTYPE svg
PUBLIC "-//W3C//DTD SVG 1.1//EN"
       "http://www.w3.org/Graphics/SVG/1.1/DTD/svg11.dtd">
<svg version="1.1" xmlns="http://www.w3.org/2000/svg" xmlns:xlink="http://www.w3.org/1999/xlink" viewBox="0 0 23.3203 22.959">
 <g>
  <rect height="22.959" opacity="0" width="23.3203" x="0" y="0"/>
  <path d="M22.959 3.76953L22.959 19.1992C22.959 21.6797 21.6797 22.959 19.1504 22.959L3.79883 22.959C1.2793 22.959 0 21.6992 0 19.1992L0 3.76953C0 1.26953 1.2793 0 3.79883 0L19.1504 0C21.6797 0 22.959 1.2793 22.959 3.76953ZM12.041 11.4746C12.041 13.9941 12.7539 16.9434 15.2832 16.9434C17.8125 16.9434 18.5254 13.9941 18.5254 11.4746C18.5254 8.95508 17.8125 6.00586 15.2832 6.00586C12.7539 6.00586 12.041 8.95508 12.041 11.4746ZM4.77539 8.7207C4.77539 9.13086 5.01953 9.43359 5.45898 9.43359C5.83984 9.43359 6.06445 9.26758 6.18164 8.89648C6.40625 7.94922 6.76758 7.33398 7.58789 7.33398C8.44727 7.33398 8.89648 8.125 8.89648 9.05273C8.89648 10.0781 8.26172 11.084 7.54883 12.0117L5.17578 15.127C4.96094 15.3906 4.75586 15.6738 4.75586 16.0352C4.75586 16.416 5.01953 16.6992 5.53711 16.6992L10 16.6992C10.4004 16.6992 10.6543 16.4258 10.6543 16.0254C10.6543 15.5957 10.3906 15.3418 10 15.3418L6.79688 15.3418L6.79688 15.2539L8.80859 12.6172C10.0391 11.0547 10.4395 10.1074 10.4395 8.98438C10.4395 7.27539 9.33594 6.00586 7.58789 6.00586C5.97656 6.00586 4.77539 7.37305 4.77539 8.7207ZM16.8652 11.4746C16.8652 13.623 16.4844 15.5859 15.2832 15.5859C14.0723 15.5859 13.7012 13.623 13.7012 11.4746C13.7012 9.31641 14.0723 7.36328 15.2832 7.36328C16.4844 7.36328 16.8652 9.31641 16.8652 11.4746Z" fill="black" fill-opacity="0.85"/>
 </g>
</svg>
