<?xml version="1.0" encoding="UTF-8"?>
<!--Generator: Apple Native CoreSVG 326-->
<!DOCTYPE svg
PUBLIC "-//W3C//DTD SVG 1.1//EN"
       "http://www.w3.org/Graphics/SVG/1.1/DTD/svg11.dtd">
<svg version="1.1" xmlns="http://www.w3.org/2000/svg" xmlns:xlink="http://www.w3.org/1999/xlink" viewBox="0 0 25.8008 25.459">
 <g>
  <rect height="25.459" opacity="0" width="25.8008" x="0" y="0"/>
  <path d="M12.7148 25.4395C19.7363 25.4395 25.4395 19.7461 25.4395 12.7246C25.4395 5.70312 19.7363 0 12.7148 0C5.69336 0 0 5.70312 0 12.7246C0 19.7461 5.69336 25.4395 12.7148 25.4395ZM12.7148 23.623C6.68945 23.623 1.81641 18.75 1.81641 12.7246C1.81641 6.69922 6.68945 1.82617 12.7148 1.82617C18.7402 1.82617 23.6133 6.69922 23.6133 12.7246C23.6133 18.75 18.7402 23.623 12.7148 23.623Z" fill="black" fill-opacity="0.85"/>
  <path d="M7.7832 17.8223L12.1484 17.8223C12.5391 17.8223 12.7832 17.5586 12.7832 17.168C12.7832 16.7578 12.5293 16.5137 12.1484 16.5137L9.00391 16.5137L9.00391 16.4258L10.9863 13.8379C12.1777 12.3145 12.5781 11.3867 12.5781 10.293C12.5781 8.62305 11.4941 7.38281 9.79492 7.38281C8.21289 7.38281 7.06055 8.7207 7.06055 10.0391C7.06055 10.4395 7.29492 10.7324 7.72461 10.7324C8.08594 10.7324 8.31055 10.5664 8.41797 10.2051C8.64258 9.27734 8.99414 8.67188 9.78516 8.67188C10.6445 8.67188 11.084 9.45312 11.084 10.3613C11.084 11.3574 10.4688 12.334 9.76562 13.252L7.44141 16.2988C7.23633 16.5625 7.04102 16.8359 7.04102 17.168C7.04102 17.5488 7.29492 17.8223 7.7832 17.8223ZM16.9141 17.9492C17.3438 17.9492 17.7148 17.5879 17.7148 17.1387L17.7148 8.36914C17.7148 7.8125 17.3535 7.48047 16.7969 7.48047C16.3379 7.48047 15.957 7.72461 15.6934 7.93945L14.2188 9.10156C14.0234 9.25781 13.877 9.46289 13.877 9.74609C13.877 10.0977 14.1113 10.3418 14.4531 10.3418C14.6289 10.3418 14.7363 10.2832 14.8438 10.1953L16.1035 9.18945L16.1035 17.1387C16.1035 17.5879 16.4746 17.9492 16.9141 17.9492Z" fill="black" fill-opacity="0.85"/>
 </g>
</svg>
