<?xml version="1.0" ?><!-- Generator: Adobe Illustrator 25.0.0, SVG Export Plug-In . SVG Version: 6.00 Build 0)  --><svg xmlns="http://www.w3.org/2000/svg" xmlns:xlink="http://www.w3.org/1999/xlink" version="1.1" id="Layer_1" x="0px" y="0px" viewBox="0 0 512 512" style="enable-background:new 0 0 512 512;" xml:space="preserve">
<path d="M256,512c140,0,256-116.2,256-256C512,116,395.8,0,255.7,0C116,0,0,116,0,256C0,395.8,116.2,512,256,512z M256,469.3  c-118.5,0-213.1-94.9-213.1-213.3S137.3,42.7,255.7,42.7S469.1,137.5,469.3,256S374.5,469.3,256,469.3z M142.8,358.4h103.7  c8,0,14.1-5.8,14.1-14.8c0-9.3-6-14.8-14.1-14.8h-72.8v-1.5l49.2-57.2c18.6-21.6,32.4-39.9,32.4-64.8c0-34.9-25.6-57.2-65-57.2  c-29.9,0-56.5,18.8-63,44.7c-0.5,3-1,6-1,8.8c0,9.3,5.3,15.3,13.8,15.3c7.3,0,11-4.5,14.3-11.8c6.5-18.8,19.1-28.1,37.1-28.1  c20.3,0,33.4,12.3,33.4,31.1c0,16.3-13.1,30.1-25.1,44.4l-66.3,77.8c-3.8,4-5.5,8.5-5.5,13.3C128,352.6,133.8,358.4,142.8,358.4z   M361.2,361.4c9.8,0,16.1-6.3,16.1-16.3V167.7c0-10.8-7.3-18.1-17.8-18.1c-8,0-13.1,2.5-21.8,8.5L299.4,184c-5.3,4-8.5,8.3-8.5,14.8  c0,8.5,7,15.3,14.3,15.3c4,0,6.5-0.3,12.3-4.8l26.9-19.8h1.5v155.6C345.8,355.1,351.9,361.4,361.2,361.4z"/>
</svg>