<?xml version="1.0" encoding="UTF-8"?>
<!--Generator: Apple Native CoreSVG 326-->
<!DOCTYPE svg
PUBLIC "-//W3C//DTD SVG 1.1//EN"
       "http://www.w3.org/Graphics/SVG/1.1/DTD/svg11.dtd">
<svg version="1.1" xmlns="http://www.w3.org/2000/svg" xmlns:xlink="http://www.w3.org/1999/xlink" viewBox="0 0 23.3203 22.959">
 <g>
  <rect height="22.959" opacity="0" width="23.3203" x="0" y="0"/>
  <path d="M22.959 3.76953L22.959 19.1992C22.959 21.6797 21.6797 22.959 19.1504 22.959L3.79883 22.959C1.2793 22.959 0 21.6992 0 19.1992L0 3.76953C0 1.26953 1.2793 0 3.79883 0L19.1504 0C21.6797 0 22.959 1.2793 22.959 3.76953ZM14.5508 6.57227L13.0469 7.76367C12.8418 7.91992 12.6855 8.13477 12.6855 8.42773C12.6855 8.78906 12.9297 9.04297 13.2812 9.04297C13.4668 9.04297 13.5742 8.98438 13.6914 8.89648L14.9707 7.86133L14.9707 15.9961C14.9707 16.4551 15.3516 16.8262 15.8105 16.8262C16.25 16.8262 16.6309 16.4551 16.6309 15.9961L16.6309 7.02148C16.6309 6.44531 16.2598 6.09375 15.6836 6.09375C15.2148 6.09375 14.8242 6.35742 14.5508 6.57227ZM5.69336 8.7207C5.69336 9.13086 5.92773 9.44336 6.37695 9.44336C6.75781 9.44336 6.99219 9.26758 7.09961 8.89648C7.32422 7.94922 7.68555 7.33398 8.49609 7.33398C9.375 7.33398 9.82422 8.125 9.82422 9.05273C9.82422 10.0781 9.17969 11.084 8.4668 12.0215L6.08398 15.127C5.86914 15.4004 5.68359 15.6836 5.68359 16.0352C5.68359 16.416 5.92773 16.6992 6.44531 16.6992L10.918 16.6992C11.3184 16.6992 11.5723 16.4258 11.5723 16.0254C11.5723 15.5957 11.3086 15.3516 10.918 15.3516L7.70508 15.3516L7.70508 15.2539L9.72656 12.6172C10.957 11.0547 11.3672 10.1074 11.3672 8.98438C11.3672 7.27539 10.2441 6.00586 8.50586 6.00586C6.88477 6.00586 5.69336 7.37305 5.69336 8.7207Z" fill="black" fill-opacity="0.85"/>
 </g>
</svg>
