<?xml version="1.0" ?><!-- Generator: Adobe Illustrator 25.0.0, SVG Export Plug-In . SVG Version: 6.00 Build 0)  --><svg xmlns="http://www.w3.org/2000/svg" xmlns:xlink="http://www.w3.org/1999/xlink" version="1.1" id="Layer_1" x="0px" y="0px" viewBox="0 0 512 512" style="enable-background:new 0 0 512 512;" xml:space="preserve">
<path d="M87.3,512h337.3c58.4,0,87.3-28.9,87.3-86.2V86.2C512,28.9,483.1,0,424.7,0H87.3C29.2,0,0,28.6,0,86.2v339.6  C0,483.4,29.2,512,87.3,512z M127.1,372.7c-10.3,0-17-6.7-17-17c0-5.8,1.9-10.6,6.4-15.6l75.6-88.7c13.6-16.1,28.6-32.3,28.6-50.9  c0-21.1-14.7-35.3-38.1-35.3c-20.6,0-34.8,10.6-42,32c-3.9,8.6-8.3,13.3-16.4,13.3c-10,0-16.1-6.7-16.1-17.2c0-3.3,0.6-6.7,1.1-10.3  c7.5-29.2,37.8-50.9,72-50.9c45.1,0,74.3,25.3,74.3,65.4c0,28.6-15.6,49.2-37,74l-55.9,65.4v1.9h83.2c8.9,0,15.9,6.1,15.9,16.7  c0,10.3-7,17.2-15.9,17.2H127.1z M376.8,375.7c-10.8,0-17.8-7-17.8-18.4V179.7h-1.7l-30.6,22.5c-6.4,5-9.2,5.3-13.9,5.3  c-8.3,0-16.4-7.5-16.4-17.2c0-7.5,3.6-12.5,9.7-17l43.4-29.8c10-7,15.9-9.7,25.3-9.7c12,0,20.3,8.6,20.3,20.6v203  C395.2,368.8,388,375.7,376.8,375.7z"/>
</svg>