<?xml version="1.0" encoding="UTF-8"?>
<!--Generator: Apple Native CoreSVG 326-->
<!DOCTYPE svg
PUBLIC "-//W3C//DTD SVG 1.1//EN"
       "http://www.w3.org/Graphics/SVG/1.1/DTD/svg11.dtd">
<svg version="1.1" xmlns="http://www.w3.org/2000/svg" xmlns:xlink="http://www.w3.org/1999/xlink" viewBox="0 0 25.8008 25.459">
 <g>
  <rect height="25.459" opacity="0" width="25.8008" x="0" y="0"/>
  <path d="M12.7148 25.4395C19.7363 25.4395 25.4395 19.7461 25.4395 12.7246C25.4395 5.70312 19.7363 0 12.7148 0C5.69336 0 0 5.70312 0 12.7246C0 19.7461 5.69336 25.4395 12.7148 25.4395ZM12.7148 23.623C6.68945 23.623 1.81641 18.75 1.81641 12.7246C1.81641 6.69922 6.68945 1.82617 12.7148 1.82617C18.7402 1.82617 23.6133 6.69922 23.6133 12.7246C23.6133 18.75 18.7402 23.623 12.7148 23.623Z" fill="black" fill-opacity="0.85"/>
  <path d="M7.09961 17.8223L11.4551 17.8223C11.8457 17.8223 12.0898 17.5586 12.0898 17.168C12.0898 16.7578 11.8359 16.5137 11.4551 16.5137L8.32031 16.5137L8.32031 16.4258L10.293 13.8379C11.4941 12.3145 11.8848 11.3867 11.8848 10.293C11.8848 8.62305 10.8105 7.38281 9.10156 7.38281C7.5293 7.38281 6.36719 8.7207 6.36719 10.0391C6.36719 10.4395 6.60156 10.7324 7.03125 10.7324C7.39258 10.7324 7.62695 10.5664 7.72461 10.2051C7.94922 9.27734 8.30078 8.67188 9.10156 8.67188C9.95117 8.67188 10.3906 9.45312 10.3906 10.3613C10.3906 11.3574 9.77539 12.334 9.07227 13.252L6.74805 16.2988C6.54297 16.5625 6.34766 16.8359 6.34766 17.168C6.34766 17.5488 6.60156 17.8223 7.09961 17.8223ZM14.1699 17.8223L18.5254 17.8223C18.916 17.8223 19.1602 17.5586 19.1602 17.168C19.1602 16.7578 18.9062 16.5137 18.5254 16.5137L15.3906 16.5137L15.3906 16.4258L17.373 13.8379C18.5645 12.3145 18.9648 11.3867 18.9648 10.293C18.9648 8.62305 17.8809 7.38281 16.1719 7.38281C14.5996 7.38281 13.4375 8.7207 13.4375 10.0391C13.4375 10.4395 13.6719 10.7324 14.1016 10.7324C14.4727 10.7324 14.6973 10.5664 14.8047 10.2051C15.0195 9.27734 15.3809 8.67188 16.1719 8.67188C17.0312 8.67188 17.4707 9.45312 17.4707 10.3613C17.4707 11.3574 16.8457 12.334 16.1426 13.252L13.8184 16.2988C13.6133 16.5625 13.4277 16.8359 13.4277 17.168C13.4277 17.5488 13.6719 17.8223 14.1699 17.8223Z" fill="black" fill-opacity="0.85"/>
 </g>
</svg>
