<?xml version="1.0" encoding="UTF-8"?>
<!--Generator: Apple Native CoreSVG 326-->
<!DOCTYPE svg
PUBLIC "-//W3C//DTD SVG 1.1//EN"
       "http://www.w3.org/Graphics/SVG/1.1/DTD/svg11.dtd">
<svg version="1.1" xmlns="http://www.w3.org/2000/svg" xmlns:xlink="http://www.w3.org/1999/xlink" viewBox="0 0 23.3203 22.959">
 <g>
  <rect height="22.959" opacity="0" width="23.3203" x="0" y="0"/>
  <path d="M3.79883 22.959L19.1504 22.959C21.6797 22.959 22.959 21.6797 22.959 19.1992L22.959 3.76953C22.959 1.2793 21.6797 0 19.1504 0L3.79883 0C1.2793 0 0 1.26953 0 3.76953L0 19.1992C0 21.6992 1.2793 22.959 3.79883 22.959ZM3.83789 21.2305C2.4707 21.2305 1.72852 20.5078 1.72852 19.1016L1.72852 3.85742C1.72852 2.46094 2.4707 1.72852 3.83789 1.72852L19.1211 1.72852C20.459 1.72852 21.2305 2.46094 21.2305 3.85742L21.2305 19.1016C21.2305 20.5078 20.459 21.2305 19.1211 21.2305Z" fill="black" fill-opacity="0.85"/>
  <path d="M5.87891 16.5723L10.2344 16.5723C10.625 16.5723 10.8691 16.3086 10.8691 15.918C10.8691 15.5078 10.6152 15.2637 10.2344 15.2637L7.08984 15.2637L7.08984 15.1758L9.07227 12.5879C10.2734 11.0645 10.6641 10.1367 10.6641 9.04297C10.6641 7.37305 9.58984 6.13281 7.88086 6.13281C6.30859 6.13281 5.14648 7.4707 5.14648 8.78906C5.14648 9.18945 5.38086 9.48242 5.81055 9.48242C6.17188 9.48242 6.39648 9.31641 6.50391 8.95508C6.72852 8.02734 7.08008 7.42188 7.88086 7.42188C8.73047 7.42188 9.16992 8.20312 9.16992 9.11133C9.16992 10.1074 8.55469 11.084 7.85156 12.002L5.52734 15.0488C5.32227 15.3125 5.12695 15.5859 5.12695 15.918C5.12695 16.2988 5.38086 16.5723 5.87891 16.5723ZM12.9492 16.5723L17.3047 16.5723C17.6953 16.5723 17.9395 16.3086 17.9395 15.918C17.9395 15.5078 17.6855 15.2637 17.3047 15.2637L14.1699 15.2637L14.1699 15.1758L16.1426 12.5879C17.3438 11.0645 17.7441 10.1367 17.7441 9.04297C17.7441 7.37305 16.6602 6.13281 14.9512 6.13281C13.3789 6.13281 12.2168 7.4707 12.2168 8.78906C12.2168 9.18945 12.4512 9.48242 12.8809 9.48242C13.252 9.48242 13.4766 9.31641 13.584 8.95508C13.7988 8.02734 14.1602 7.42188 14.9512 7.42188C15.8008 7.42188 16.2402 8.20312 16.2402 9.11133C16.2402 10.1074 15.625 11.084 14.9219 12.002L12.5977 15.0488C12.3926 15.3125 12.207 15.5859 12.207 15.918C12.207 16.2988 12.4512 16.5723 12.9492 16.5723Z" fill="black" fill-opacity="0.85"/>
 </g>
</svg>
