<?xml version="1.0" ?><!-- Generator: Adobe Illustrator 25.0.0, SVG Export Plug-In . SVG Version: 6.00 Build 0)  --><svg xmlns="http://www.w3.org/2000/svg" xmlns:xlink="http://www.w3.org/1999/xlink" version="1.1" id="Layer_1" x="0px" y="0px" viewBox="0 0 512 512" style="enable-background:new 0 0 512 512;" xml:space="preserve">
<path d="M87.3,512h337.3c58.4,0,87.3-28.9,87.3-86.2V86.2C512,28.9,483.1,0,424.7,0H87.3C29.2,0,0,28.6,0,86.2v339.6  C0,483.4,29.2,512,87.3,512z M109,372.7c-10.3,0-16.7-6.7-16.7-17c0-5.8,1.7-10.6,6.1-15.6l75.6-88.7c13.6-16.1,28.6-32,28.6-50.9  c0-21.1-14.7-35.3-38.1-35.3c-20.3,0-34.8,10.6-42,32c-3.6,8.6-8.1,13.6-16.4,13.6c-10,0-16.1-7-16.1-17.5c0-3.3,0.6-6.4,1.4-10.3  c7.2-29.2,37.5-50.9,71.8-50.9c45.1,0,74.3,25.6,74.3,65.4c0,28.6-15.6,49.5-37,74l-55.9,65.4v1.9h83.2c8.9,0,15.9,6.1,15.9,16.7  c0,10.3-7,17.2-15.9,17.2H109z M299.5,372.7c-10.3,0-17-6.7-17-17c0-5.8,1.9-10.6,6.4-15.6l75.6-88.7c13.6-16.1,28.6-32,28.6-50.9  c0-21.1-15-35.3-38.1-35.3c-20.6,0-34.8,10.6-42,32c-4.2,8.6-8.3,13.6-16.7,13.6c-9.7,0-15.9-7-15.9-17.5c0-3.3,0.6-6.4,1.1-10.3  c7.5-29.2,37.8-50.9,72-50.9c45.1,0,74.3,25.6,74.3,65.4c0,28.6-15.9,49.5-37,74l-55.9,65.4v1.9h83.2c8.9,0,15.9,6.1,15.9,16.7  c0,10.3-7,17.2-15.9,17.2H299.5z"/>
</svg>