<?xml version="1.0" ?><!-- Generator: Adobe Illustrator 25.0.0, SVG Export Plug-In . SVG Version: 6.00 Build 0)  --><svg xmlns="http://www.w3.org/2000/svg" xmlns:xlink="http://www.w3.org/1999/xlink" version="1.1" id="Layer_1" x="0px" y="0px" viewBox="0 0 512 512" style="enable-background:new 0 0 512 512;" xml:space="preserve">
<path d="M256,512c140,0,256-116.2,256-256C512,116,395.8,0,255.7,0C116,0,0,116,0,256C0,395.8,116.2,512,256,512z M122.5,361.7  c-9.3,0-15.3-6-15.3-15.3c0-5.3,1.8-9.8,5.8-14.1l68.3-80.3c12.3-14.3,25.9-28.9,25.9-45.7c0-19.1-13.6-31.9-34.4-31.9  c-18.3,0-31.4,9.3-37.9,28.9c-3.8,7.8-7.3,12-14.8,12c-9,0-14.6-6.3-14.6-15.6c0-3,0.5-6,1-9.3c6.8-26.4,34.1-46.2,65-46.2  c40.7,0,67,23.1,67,59.2c0,25.9-14.3,44.4-33.4,66.8L154.6,329v2h75c8,0,14.3,5.3,14.3,15.1c0,9.3-6.3,15.6-14.3,15.6H122.5z   M345.8,367.7c-35.1,0-63-21.6-69.8-45.4c-1-3.3-1.3-6-1.3-9.5c0-9,6.3-15.6,15.1-15.6c7.3,0,11.8,4,14.8,12.3  c7,18.1,21.1,28.1,41.4,28.1c24.8,0,41.9-15.1,41.9-35.1c0-21.1-15.6-34.9-40.4-34.9h-14.8c-8.8,0-14.3-6.5-14.3-14.8  c0-9.5,5.5-15.6,14.3-15.6h13.8c20.3,0,34.9-13.6,34.9-32.4c0-18.1-14.3-30.4-34.6-30.4c-20.1,0-32.6,10-38.4,28.1  c-2.8,8.3-6.5,12.3-14.3,12.3c-9,0-15.1-6.5-15.1-15.8c0-3.3,0.3-6,0.8-9.3c6.8-25.3,32.6-45.4,67.8-45.4  c38.7,0,65.8,23.1,65.8,56.2c0,24.3-16.8,45.9-37.9,49.4v1.5c26.1,2.8,44.9,24.8,44.9,52.5C420.4,341.1,389.8,367.7,345.8,367.7z"/>
</svg>