<?xml version="1.0" encoding="UTF-8"?>
<!--Generator: Apple Native CoreSVG 326-->
<!DOCTYPE svg
PUBLIC "-//W3C//DTD SVG 1.1//EN"
       "http://www.w3.org/Graphics/SVG/1.1/DTD/svg11.dtd">
<svg version="1.1" xmlns="http://www.w3.org/2000/svg" xmlns:xlink="http://www.w3.org/1999/xlink" viewBox="0 0 25.8008 25.459">
 <g>
  <rect height="25.459" opacity="0" width="25.8008" x="0" y="0"/>
  <path d="M12.7148 25.4395C19.7363 25.4395 25.4395 19.7461 25.4395 12.7246C25.4395 5.70312 19.7363 0 12.7148 0C5.69336 0 0 5.70312 0 12.7246C0 19.7461 5.69336 25.4395 12.7148 25.4395ZM12.7148 23.623C6.68945 23.623 1.81641 18.75 1.81641 12.7246C1.81641 6.69922 6.68945 1.82617 12.7148 1.82617C18.7402 1.82617 23.6133 6.69922 23.6133 12.7246C23.6133 18.75 18.7402 23.623 12.7148 23.623Z" fill="black" fill-opacity="0.85"/>
  <path d="M6.94336 17.8223L11.2988 17.8223C11.6895 17.8223 11.9336 17.5586 11.9336 17.168C11.9336 16.7578 11.6797 16.5137 11.2988 16.5137L8.16406 16.5137L8.16406 16.4258L10.1367 13.8379C11.3379 12.3145 11.7383 11.3867 11.7383 10.293C11.7383 8.62305 10.6543 7.38281 8.94531 7.38281C7.37305 7.38281 6.21094 8.7207 6.21094 10.0391C6.21094 10.4395 6.44531 10.7324 6.875 10.7324C7.24609 10.7324 7.4707 10.5664 7.57812 10.2051C7.79297 9.27734 8.1543 8.67188 8.94531 8.67188C9.79492 8.67188 10.2344 9.45312 10.2344 10.3613C10.2344 11.3574 9.61914 12.334 8.91602 13.252L6.5918 16.2988C6.38672 16.5625 6.20117 16.8359 6.20117 17.168C6.20117 17.5488 6.44531 17.8223 6.94336 17.8223ZM16.3086 18.0273C18.0664 18.0273 19.3945 16.8945 19.3945 15.0195C19.3945 13.5059 18.5156 12.6758 17.4023 12.5586L17.4023 12.5195C18.5449 12.2168 19.1016 11.2012 19.1016 10.127C19.1016 8.4375 17.8711 7.43164 16.2598 7.43164C14.9805 7.43164 13.9258 8.16406 13.5742 9.27734C13.4961 9.52148 13.4766 9.74609 13.4766 9.95117C13.4766 10.3125 13.7109 10.6055 14.1504 10.6055C14.541 10.6055 14.7461 10.4492 14.8535 10.0586C15.0488 9.26758 15.4785 8.71094 16.2598 8.71094C17.1582 8.71094 17.5977 9.41406 17.5977 10.3125C17.5977 11.2793 17.041 12.002 16.0449 12.002L15.6836 12.002C15.3027 12.002 15.0781 12.2363 15.0781 12.5977C15.0781 12.959 15.3223 13.1836 15.6836 13.1836L16.0645 13.1836C17.1875 13.1836 17.8223 13.8086 17.8223 14.9805C17.8223 15.918 17.334 16.7285 16.3184 16.7285C15.3418 16.7285 14.873 16.0449 14.7266 15.4102C14.6191 15.0391 14.3945 14.8438 14.0234 14.8438C13.5938 14.8438 13.3105 15.1074 13.3105 15.5371C13.3105 15.752 13.3398 15.9961 13.4082 16.1914C13.7695 17.3438 14.9707 18.0273 16.3086 18.0273Z" fill="black" fill-opacity="0.85"/>
 </g>
</svg>
