<?xml version="1.0" ?><!-- Generator: Adobe Illustrator 25.0.0, SVG Export Plug-In . SVG Version: 6.00 Build 0)  --><svg xmlns="http://www.w3.org/2000/svg" xmlns:xlink="http://www.w3.org/1999/xlink" version="1.1" id="Layer_1" x="0px" y="0px" viewBox="0 0 512 512" style="enable-background:new 0 0 512 512;" xml:space="preserve">
<path d="M256,512c140,0,256-116.2,256-256C512,116,395.8,0,255.7,0C116,0,0,116,0,256C0,395.8,116.2,512,256,512z M256,469.3  c-118.5,0-213.1-94.9-213.1-213.3S137.3,42.7,255.7,42.7S469.1,137.5,469.3,256S374.5,469.3,256,469.3z M126.5,358.4h103.9  c7.8,0,13.8-5.8,13.8-14.8c0-9.3-6-14.8-13.8-14.8h-73v-1.5l49.2-57.2c18.6-21.6,32.4-39.9,32.4-64.8c0-34.9-25.6-57.2-65-57.2  c-29.9,0-56.5,18.8-63,44.7c-0.5,3-1,6-1,8.8c0,9.3,5.3,15.3,14.1,15.3c7,0,10.8-4.5,14.3-11.8c6.3-18.8,19.1-28.1,36.9-28.1  c20.3,0,33.4,12.3,33.4,31.1c0,16.3-13.1,30.1-25.1,44.4l-66.3,77.8c-3.8,4-5.5,8.5-5.5,13.3C111.7,352.6,117.5,358.4,126.5,358.4z   M343.1,364.2c42.7,0,72.3-25.6,72.3-61.7c0-26.6-18.3-48.2-43.7-50.4v-1.5c20.6-3.5,36.9-24.6,36.9-47.9  c0-32.1-26.4-54.5-63.7-54.5c-34.1,0-59.2,19.3-65.8,43.7c-0.5,3.3-0.8,5.8-0.8,9.3c0,9,5.8,15.3,14.6,15.3c7.5,0,11.3-4,13.8-12  c5.5-17.8,17.8-27.4,37.4-27.4c19.8,0,33.6,11.8,33.6,29.6c0,18.3-14.1,31.6-33.9,31.6h-13.6c-8.3,0-13.8,5.8-13.8,14.6  c0,8.3,5.5,14.6,13.8,14.6h14.6c24.1,0,39.2,13.3,39.2,33.6c0,19.6-16.6,34.4-40.7,34.4c-19.8,0-33.4-9.5-40.2-27.4  c-3-8-7.3-11.8-14.3-11.8c-8.5,0-14.6,6-14.6,15.1c0,3.5,0.3,5.8,1.3,9C282.1,343.3,309,364.2,343.1,364.2z"/>
</svg>