<?xml version="1.0" encoding="UTF-8"?>
<!--Generator: Apple Native CoreSVG 326-->
<!DOCTYPE svg
PUBLIC "-//W3C//DTD SVG 1.1//EN"
       "http://www.w3.org/Graphics/SVG/1.1/DTD/svg11.dtd">
<svg version="1.1" xmlns="http://www.w3.org/2000/svg" xmlns:xlink="http://www.w3.org/1999/xlink" viewBox="0 0 23.3203 22.959">
 <g>
  <rect height="22.959" opacity="0" width="23.3203" x="0" y="0"/>
  <path d="M22.959 3.76953L22.959 19.1992C22.959 21.6797 21.6797 22.959 19.1504 22.959L3.79883 22.959C1.2793 22.959 0 21.6992 0 19.1992L0 3.76953C0 1.26953 1.2793 0 3.79883 0L19.1504 0C21.6797 0 22.959 1.2793 22.959 3.76953ZM12.3633 7.93945C12.2949 8.19336 12.2754 8.42773 12.2754 8.63281C12.2754 9.00391 12.5098 9.30664 12.9688 9.30664C13.3691 9.30664 13.584 9.14062 13.6914 8.75C13.8965 7.93945 14.3262 7.37305 15.127 7.37305C16.0449 7.37305 16.4941 8.08594 16.4941 9.00391C16.4941 9.99023 15.9277 10.7324 14.9023 10.7324L14.541 10.7324C14.1504 10.7324 13.916 10.9766 13.916 11.3477C13.916 11.7188 14.1699 11.9531 14.541 11.9531L14.9219 11.9531C16.0742 11.9531 16.7285 12.5879 16.7285 13.7891C16.7285 14.7461 16.2207 15.5664 15.1855 15.5664C14.1895 15.5664 13.7109 14.873 13.5645 14.2285C13.4473 13.8379 13.2227 13.6426 12.8418 13.6426C12.3926 13.6426 12.0898 13.916 12.0898 14.3555C12.0898 14.5801 12.1289 14.8242 12.1973 15.0293C12.5684 16.2109 13.8086 16.9043 15.1758 16.9043C16.9824 16.9043 18.3398 15.752 18.3398 13.8281C18.3398 12.2754 17.4512 11.4258 16.2988 11.3086L16.2988 11.2695C17.4707 10.957 18.0469 9.91211 18.0469 8.81836C18.0469 7.08008 16.7773 6.05469 15.127 6.05469C13.8086 6.05469 12.7344 6.80664 12.3633 7.93945ZM4.82422 8.7207C4.82422 9.13086 5.05859 9.44336 5.50781 9.44336C5.87891 9.44336 6.12305 9.26758 6.2207 8.89648C6.45508 7.94922 6.80664 7.33398 7.62695 7.33398C8.49609 7.33398 8.94531 8.125 8.94531 9.05273C8.94531 10.0781 8.31055 11.084 7.58789 12.0117L5.21484 15.127C5 15.4004 4.80469 15.6738 4.80469 16.0352C4.80469 16.416 5.05859 16.6992 5.57617 16.6992L10.0391 16.6992C10.4395 16.6992 10.6934 16.4258 10.6934 16.0254C10.6934 15.5957 10.4297 15.3418 10.0391 15.3418L6.83594 15.3418L6.83594 15.2539L8.84766 12.6172C10.0781 11.0547 10.4883 10.1074 10.4883 8.98438C10.4883 7.27539 9.375 6.00586 7.62695 6.00586C6.01562 6.00586 4.82422 7.37305 4.82422 8.7207Z" fill="black" fill-opacity="0.85"/>
 </g>
</svg>
