<?xml version="1.0" ?><!-- Generator: Adobe Illustrator 25.0.0, SVG Export Plug-In . SVG Version: 6.00 Build 0)  --><svg xmlns="http://www.w3.org/2000/svg" xmlns:xlink="http://www.w3.org/1999/xlink" version="1.1" id="Layer_1" x="0px" y="0px" viewBox="0 0 512 512" style="enable-background:new 0 0 512 512;" xml:space="preserve">
<path d="M87.3,512h337.3c58.4,0,87.3-28.9,87.3-86.2V86.2C512,28.9,483.1,0,424.7,0H87.3C29.2,0,0,28.6,0,86.2v339.6  C0,483.4,29.2,512,87.3,512z M87.9,467.2c-27.8,0-43.1-14.7-43.1-43.7V88.4c0-28.9,15.3-43.7,43.1-43.7h336.2  c27.5,0,43.1,14.7,43.1,43.7v335.1c0,28.9-15.6,43.7-43.1,43.7H87.9z M112.9,369.1H228c8.6,0,15.3-6.7,15.3-16.7  c0-10.3-6.7-16.1-15.3-16.1h-80.9v-1.9l54.5-63.4c20.6-23.9,35.9-43.9,35.9-71.8c0-38.7-28.4-63.4-72-63.4  c-33.1,0-62.6,21.1-69.5,49.5c-0.8,3.6-1.4,6.7-1.4,10c0,10,5.8,16.7,15.6,16.7c8.1,0,12.2-4.7,15.9-13.1  c7-20.9,21.1-31.1,40.9-31.1c22.5,0,37,13.9,37,34.5c0,18.1-14.5,33.7-27.8,49.2l-73.4,86.2c-4.2,4.7-5.8,9.5-5.8,15  C96.8,362.7,102.9,369.1,112.9,369.1z M352.9,375.4c47.3,0,80.1-28.4,80.1-68.4c0-29.5-20.3-53.4-48.4-56.2v-1.7  c22.8-3.9,40.9-27,40.9-53.1c0-35.6-29.2-60.3-70.6-60.3c-37.5,0-65.6,21.4-72.9,48.7c-0.6,3.6-0.6,6.4-0.6,10c0,10,6.1,17,15.9,17  c8.3,0,12.8-4.4,15.3-13.3c6.1-19.5,19.7-30.3,41.4-30.3c22,0,37.3,13.3,37.3,32.8c0,20.3-15.3,35-37.5,35h-15  c-9.2,0-15.3,6.4-15.3,16.4c0,8.9,6.1,15.9,15.3,15.9h16.4c26.4,0,43.4,15,43.4,37.5c0,21.7-18.6,38.1-45.3,38.1  c-22,0-37-10.8-44.5-30.3c-3.3-8.9-8.1-13.3-15.9-13.3c-9.5,0-16.1,7-16.1,16.7c0,3.9,0.6,6.7,1.4,10.3  C285.3,352.4,315.1,375.4,352.9,375.4z"/>
</svg>