<?xml version="1.0" encoding="UTF-8"?>
<!--Generator: Apple Native CoreSVG 326-->
<!DOCTYPE svg
PUBLIC "-//W3C//DTD SVG 1.1//EN"
       "http://www.w3.org/Graphics/SVG/1.1/DTD/svg11.dtd">
<svg version="1.1" xmlns="http://www.w3.org/2000/svg" xmlns:xlink="http://www.w3.org/1999/xlink" viewBox="0 0 25.8008 25.459">
 <g>
  <rect height="25.459" opacity="0" width="25.8008" x="0" y="0"/>
  <path d="M25.4395 12.7246C25.4395 19.7266 19.7266 25.4395 12.7148 25.4395C5.71289 25.4395 0 19.7266 0 12.7246C0 5.71289 5.71289 0 12.7148 0C19.7266 0 25.4395 5.71289 25.4395 12.7246ZM15.7617 8.47656L13.252 13.7695C13.0664 14.209 12.9883 14.502 12.9883 14.8633C12.9883 15.4199 13.3789 15.8008 13.9453 15.8008L16.9531 15.8008L16.9531 17.2852C16.9531 17.8809 17.3633 18.1055 17.7344 18.1055C18.1738 18.1055 18.5156 17.8223 18.5156 17.2852L18.5156 15.8008L19.0625 15.8008C19.502 15.8008 19.7168 15.5176 19.7168 15.127C19.7168 14.7559 19.5117 14.4727 19.0625 14.4727L18.5156 14.4727L18.5156 8.57422C18.5156 7.76367 17.9883 7.34375 17.2656 7.34375C16.4551 7.34375 16.084 7.75391 15.7617 8.47656ZM6.00586 9.9707C6.00586 10.3809 6.25 10.6934 6.68945 10.6934C7.07031 10.6934 7.29492 10.5176 7.41211 10.1465C7.63672 9.19922 7.99805 8.58398 8.80859 8.58398C9.67773 8.58398 10.127 9.375 10.127 10.3027C10.127 11.3281 9.49219 12.334 8.7793 13.2715L6.39648 16.377C6.18164 16.6504 5.98633 16.9336 5.98633 17.2852C5.98633 17.666 6.24023 17.9492 6.75781 17.9492L11.2305 17.9492C11.6309 17.9492 11.8848 17.6758 11.8848 17.2754C11.8848 16.8457 11.6211 16.6016 11.2305 16.6016L8.01758 16.6016L8.01758 16.5039L10.0391 13.8672C11.2598 12.3047 11.6699 11.3574 11.6699 10.2344C11.6699 8.52539 10.5566 7.25586 8.81836 7.25586C7.19727 7.25586 6.00586 8.62305 6.00586 9.9707ZM16.9824 14.502L14.4141 14.502L14.4141 14.4336L16.9336 8.82812L16.9824 8.82812Z" fill="black" fill-opacity="0.85"/>
 </g>
</svg>
