<?xml version="1.0" encoding="UTF-8"?>
<!--Generator: Apple Native CoreSVG 326-->
<!DOCTYPE svg
PUBLIC "-//W3C//DTD SVG 1.1//EN"
       "http://www.w3.org/Graphics/SVG/1.1/DTD/svg11.dtd">
<svg version="1.1" xmlns="http://www.w3.org/2000/svg" xmlns:xlink="http://www.w3.org/1999/xlink" viewBox="0 0 25.8008 25.459">
 <g>
  <rect height="25.459" opacity="0" width="25.8008" x="0" y="0"/>
  <path d="M12.7148 25.4395C19.7363 25.4395 25.4395 19.7461 25.4395 12.7246C25.4395 5.70312 19.7363 0 12.7148 0C5.69336 0 0 5.70312 0 12.7246C0 19.7461 5.69336 25.4395 12.7148 25.4395ZM12.7148 23.623C6.68945 23.623 1.81641 18.75 1.81641 12.7246C1.81641 6.69922 6.68945 1.82617 12.7148 1.82617C18.7402 1.82617 23.6133 6.69922 23.6133 12.7246C23.6133 18.75 18.7402 23.623 12.7148 23.623Z" fill="black" fill-opacity="0.85"/>
  <path d="M6.81641 17.8223L11.1719 17.8223C11.5625 17.8223 11.8066 17.5586 11.8066 17.168C11.8066 16.7578 11.5527 16.5137 11.1719 16.5137L8.03711 16.5137L8.03711 16.4258L10.0195 13.8379C11.2109 12.3145 11.6113 11.3867 11.6113 10.293C11.6113 8.62305 10.5273 7.38281 8.81836 7.38281C7.24609 7.38281 6.08398 8.7207 6.08398 10.0391C6.08398 10.4395 6.31836 10.7324 6.74805 10.7324C7.11914 10.7324 7.34375 10.5664 7.45117 10.2051C7.66602 9.27734 8.02734 8.67188 8.81836 8.67188C9.67773 8.67188 10.1074 9.45312 10.1074 10.3613C10.1074 11.3574 9.49219 12.334 8.78906 13.252L6.46484 16.2988C6.25977 16.5625 6.07422 16.8359 6.07422 17.168C6.07422 17.5488 6.31836 17.8223 6.81641 17.8223ZM16.1621 18.0664C18.0762 18.0664 19.1113 16.4062 19.1113 14.4629C19.1113 12.7344 18.2812 11.123 16.6602 11.123C15.9375 11.123 15.2246 11.4648 14.8926 12.2363L14.834 12.2363L15.0586 8.94531L18.0859 8.94531C18.4668 8.94531 18.7109 8.67188 18.7109 8.29102C18.7109 7.91992 18.457 7.63672 18.0859 7.63672L14.6484 7.63672C14.043 7.63672 13.7793 8.01758 13.7402 8.60352L13.5156 12.207C13.4961 12.4023 13.4961 12.6074 13.4961 12.7637C13.4961 13.1934 13.7207 13.5645 14.2285 13.5645C14.541 13.5645 14.7168 13.418 14.9512 13.1055C15.2539 12.6367 15.6152 12.3047 16.1719 12.3047C17.168 12.3047 17.5684 13.5059 17.5684 14.502C17.5684 15.625 17.1484 16.7676 16.1426 16.7676C15.3711 16.7676 14.9121 16.1816 14.6973 15.4297C14.5703 15.0488 14.3164 14.8828 14.0234 14.8828C13.6133 14.8828 13.3594 15.1465 13.3594 15.5566C13.3594 15.8008 13.4277 16.0645 13.5156 16.2891C13.9258 17.3438 14.9902 18.0664 16.1621 18.0664Z" fill="black" fill-opacity="0.85"/>
 </g>
</svg>
