<?xml version="1.0" ?><!-- Generator: Adobe Illustrator 25.0.0, SVG Export Plug-In . SVG Version: 6.00 Build 0)  --><svg xmlns="http://www.w3.org/2000/svg" xmlns:xlink="http://www.w3.org/1999/xlink" version="1.1" id="Layer_1" x="0px" y="0px" viewBox="0 0 512 512" style="enable-background:new 0 0 512 512;" xml:space="preserve">
<path d="M256,512c140,0,256-116.2,256-256C512,116,395.8,0,255.7,0C116,0,0,116,0,256C0,395.8,116.2,512,256,512z M120.5,361.7  c-9.3,0-15.3-6-15.3-15.3c0-5.3,1.8-9.8,5.8-14.1l68.3-80.3c12.3-14.3,25.9-28.9,25.9-45.7c0-19.1-13.6-31.9-34.4-31.9  c-18.6,0-31.4,9.3-37.9,28.9c-3.5,7.8-7.5,12-14.8,12c-9,0-14.6-6.3-14.6-15.6c0-3,0.5-6,1-9.3c6.8-26.4,34.1-46.2,65-46.2  c40.7,0,67,23.1,67,59.2c0,25.9-14.3,44.4-33.4,66.8L152.6,329v2h75c8,0,14.3,5.3,14.3,15.1c0,9.3-6.3,15.6-14.3,15.6H120.5z   M341.3,367.7c-32.4,0-58-17.1-65.8-38.7c-1.5-3.5-2.5-7.5-2.5-11.8c0-8.5,6-15.1,14.8-15.1c6,0,11,3.8,14.8,11.3  c7.5,15.6,22.6,24.8,40.2,24.8c25.1,0,41.9-16.3,41.9-43.4c0-23.8-15.3-41.9-37.9-41.9c-11.5,0-19.6,3.8-30.4,13.1  c-8.3,6.8-13.1,9-21.1,9c-11.8,0-19.1-9-18.1-22.6l6.3-80.6c1-13.8,9.8-22.1,23.6-22.1H396c7.5,0,12.8,6.3,12.8,14.6  c0,8.5-5.5,14.6-12.8,14.6h-85.6l-4.8,66.5h1c7.8-11.8,26.4-20.3,43.7-20.3c39.9,0,66.8,29.1,66.8,69  C417.1,339.6,386.8,367.7,341.3,367.7z"/>
</svg>