<?xml version="1.0" encoding="UTF-8"?>
<!--Generator: Apple Native CoreSVG 326-->
<!DOCTYPE svg
PUBLIC "-//W3C//DTD SVG 1.1//EN"
       "http://www.w3.org/Graphics/SVG/1.1/DTD/svg11.dtd">
<svg version="1.1" xmlns="http://www.w3.org/2000/svg" xmlns:xlink="http://www.w3.org/1999/xlink" viewBox="0 0 25.8008 25.459">
 <g>
  <rect height="25.459" opacity="0" width="25.8008" x="0" y="0"/>
  <path d="M25.4395 12.7246C25.4395 19.7266 19.7266 25.4395 12.7148 25.4395C5.71289 25.4395 0 19.7266 0 12.7246C0 5.71289 5.71289 0 12.7148 0C19.7266 0 25.4395 5.71289 25.4395 12.7246ZM14.7168 7.5C14.0918 7.5 13.8184 7.91016 13.7793 8.50586L13.5449 12.1875C13.5254 12.3926 13.5254 12.5977 13.5254 12.7637C13.5254 13.2031 13.7598 13.584 14.2871 13.584C14.6094 13.584 14.7852 13.4375 15.0293 13.1152C15.3418 12.6367 15.7031 12.3047 16.2695 12.3047C17.2852 12.3047 17.7051 13.5254 17.7051 14.541C17.7051 15.6934 17.2656 16.8555 16.2402 16.8555C15.4688 16.8555 14.9902 16.2598 14.7656 15.498C14.6387 15.1074 14.375 14.9316 14.0723 14.9316C13.6523 14.9316 13.3887 15.2051 13.3887 15.625C13.3887 15.8789 13.457 16.1523 13.5547 16.377C13.9746 17.4609 15.0684 18.1934 16.2598 18.1934C18.2227 18.1934 19.2871 16.4941 19.2871 14.502C19.2871 12.7344 18.4375 11.084 16.7773 11.084C16.0352 11.084 15.3125 11.4355 14.9707 12.2266L14.9121 12.2266L15.1367 8.86719L18.2324 8.86719C18.6426 8.86719 18.877 8.58398 18.877 8.17383C18.877 7.79297 18.623 7.5 18.2324 7.5ZM5.92773 9.9707C5.92773 10.3809 6.17188 10.6836 6.61133 10.6836C6.98242 10.6836 7.22656 10.5176 7.32422 10.1465C7.55859 9.19922 7.92969 8.58398 8.73047 8.58398C9.59961 8.58398 10.0488 9.375 10.0488 10.3027C10.0488 11.3281 9.41406 12.334 8.69141 13.2617L6.31836 16.377C6.10352 16.6406 5.9082 16.9238 5.9082 17.2852C5.9082 17.666 6.17188 17.9492 6.67969 17.9492L11.1426 17.9492C11.543 17.9492 11.7969 17.6758 11.7969 17.2754C11.7969 16.8457 11.5332 16.5918 11.1426 16.5918L7.93945 16.5918L7.93945 16.5039L9.95117 13.8672C11.1914 12.3047 11.6016 11.3574 11.6016 10.2344C11.6016 8.52539 10.4883 7.25586 8.73047 7.25586C7.11914 7.25586 5.92773 8.62305 5.92773 9.9707Z" fill="black" fill-opacity="0.85"/>
 </g>
</svg>
