<?xml version="1.0" encoding="UTF-8"?>
<!--Generator: Apple Native CoreSVG 326-->
<!DOCTYPE svg
PUBLIC "-//W3C//DTD SVG 1.1//EN"
       "http://www.w3.org/Graphics/SVG/1.1/DTD/svg11.dtd">
<svg version="1.1" xmlns="http://www.w3.org/2000/svg" xmlns:xlink="http://www.w3.org/1999/xlink" viewBox="0 0 23.3203 22.959">
 <g>
  <rect height="22.959" opacity="0" width="23.3203" x="0" y="0"/>
  <path d="M22.959 3.76953L22.959 19.1992C22.959 21.6797 21.6797 22.959 19.1504 22.959L3.79883 22.959C1.2793 22.959 0 21.6992 0 19.1992L0 3.76953C0 1.26953 1.2793 0 3.79883 0L19.1504 0C21.6797 0 22.959 1.2793 22.959 3.76953ZM13.4766 6.25C12.8613 6.25 12.5879 6.66016 12.5488 7.25586L12.3145 10.9375C12.2949 11.1426 12.2949 11.3477 12.2949 11.5137C12.2949 11.9531 12.5195 12.334 13.0469 12.334C13.3789 12.334 13.5547 12.1875 13.7988 11.8652C14.1113 11.3867 14.4727 11.0547 15.0391 11.0547C16.0547 11.0547 16.4746 12.2754 16.4746 13.291C16.4746 14.4434 16.0352 15.6055 15.0098 15.6055C14.2285 15.6055 13.7598 15.0098 13.5352 14.248C13.4082 13.8574 13.1445 13.6816 12.8418 13.6816C12.4219 13.6816 12.1582 13.9551 12.1582 14.375C12.1582 14.6289 12.2266 14.9023 12.3242 15.127C12.7441 16.2109 13.8379 16.9434 15.0293 16.9434C16.9922 16.9434 18.0566 15.2441 18.0566 13.252C18.0566 11.4844 17.207 9.83398 15.5469 9.83398C14.8047 9.83398 14.082 10.1855 13.7305 10.9766L13.6816 10.9766L13.9062 7.61719L17.002 7.61719C17.4121 7.61719 17.6465 7.33398 17.6465 6.92383C17.6465 6.54297 17.3926 6.25 17.002 6.25ZM4.69727 8.7207C4.69727 9.13086 4.94141 9.43359 5.38086 9.43359C5.75195 9.43359 5.99609 9.26758 6.09375 8.89648C6.32812 7.94922 6.68945 7.33398 7.5 7.33398C8.36914 7.33398 8.81836 8.125 8.81836 9.05273C8.81836 10.0781 8.18359 11.084 7.46094 12.0117L5.08789 15.127C4.87305 15.3906 4.67773 15.6738 4.67773 16.0352C4.67773 16.416 4.94141 16.6992 5.44922 16.6992L9.91211 16.6992C10.3125 16.6992 10.5664 16.4258 10.5664 16.0254C10.5664 15.5957 10.3027 15.3418 9.91211 15.3418L6.70898 15.3418L6.70898 15.2539L8.7207 12.6172C9.96094 11.0547 10.3711 10.1074 10.3711 8.98438C10.3711 7.27539 9.25781 6.00586 7.5 6.00586C5.88867 6.00586 4.69727 7.37305 4.69727 8.7207Z" fill="black" fill-opacity="0.85"/>
 </g>
</svg>
