<?xml version="1.0" ?><!-- Generator: Adobe Illustrator 25.0.0, SVG Export Plug-In . SVG Version: 6.00 Build 0)  --><svg xmlns="http://www.w3.org/2000/svg" xmlns:xlink="http://www.w3.org/1999/xlink" version="1.1" id="Layer_1" x="0px" y="0px" viewBox="0 0 512 512" style="enable-background:new 0 0 512 512;" xml:space="preserve">
<path d="M87.3,512h337.3c58.4,0,87.3-28.9,87.3-86.2V86.2C512,28.9,483.1,0,424.7,0H87.3C29.2,0,0,28.6,0,86.2v339.6  C0,483.4,29.2,512,87.3,512z M87.9,467.2c-27.8,0-43.1-14.7-43.1-43.7V88.4c0-28.9,15.3-43.7,43.1-43.7h336.2  c27.5,0,43.1,14.7,43.1,43.7v335.1c0,28.9-15.6,43.7-43.1,43.7H87.9z M110.7,369.1h115.1c8.6,0,15.3-6.7,15.3-16.7  c0-10.3-6.7-16.1-15.3-16.1h-80.9v-1.9l54.5-63.4c20.6-23.9,35.9-43.9,35.9-71.8c0-38.7-28.4-63.4-72-63.4  c-33.1,0-62.6,21.1-69.8,49.5c-0.6,3.6-1.1,6.7-1.1,10c0,10,5.8,16.7,15.6,16.7c7.8,0,12-4.7,15.9-13.1c7-20.9,20.9-31.1,40.9-31.1  c22.5,0,37,13.9,37,34.5c0,18.1-14.5,33.7-27.8,49.2l-73.4,86.2c-4.2,4.7-6.1,9.5-6.1,15C94.3,362.7,100.7,369.1,110.7,369.1z   M347.9,375.4c48.9,0,81.8-30,81.8-79c0-42.8-29.2-74-72-74c-18.6,0-38.7,9.2-47,21.7h-1.1l5.3-71.5h92.1c7.8,0,13.6-6.4,13.6-15.6  c0-8.9-5.6-15.6-13.6-15.6h-95.7c-14.7,0-24.2,8.9-25.3,23.6l-6.7,86.8c-1.1,14.5,6.7,23.9,19.5,23.9c8.6,0,13.9-2.2,22.5-9.5  c11.7-10,20.3-14.2,32.8-14.2c24.2,0,41.2,19.5,41.2,45.1c0,29.2-18.6,46.7-45.3,46.7c-19.2,0-35.3-10-43.4-26.7  c-4.2-8.1-9.5-12-15.9-12c-9.5,0-15.9,7-15.9,16.1c0,4.4,1.1,8.6,2.5,12.5C285.6,357.1,313.2,375.4,347.9,375.4z"/>
</svg>