<?xml version="1.0" ?><!-- Generator: Adobe Illustrator 25.0.0, SVG Export Plug-In . SVG Version: 6.00 Build 0)  --><svg xmlns="http://www.w3.org/2000/svg" xmlns:xlink="http://www.w3.org/1999/xlink" version="1.1" id="Layer_1" x="0px" y="0px" viewBox="0 0 512 512" style="enable-background:new 0 0 512 512;" xml:space="preserve">
<path d="M87.3,512h337.3c58.4,0,87.3-28.9,87.3-86.2V86.2C512,28.9,483.1,0,424.7,0H87.3C29.2,0,0,28.6,0,86.2v339.6  C0,483.4,29.2,512,87.3,512z M87.9,467.2c-27.8,0-43.1-14.7-43.1-43.7V88.4c0-28.9,15.3-43.7,43.1-43.7h336.2  c27.5,0,43.1,14.7,43.1,43.7v335.1c0,28.9-15.6,43.7-43.1,43.7H87.9z M116.5,369.1h115.1c8.6,0,15.3-6.7,15.3-16.7  c0-10.3-6.7-16.1-15.3-16.1h-80.9v-1.9l54.5-63.4c20.6-23.9,35.9-43.9,35.9-71.8c0-38.7-28.4-63.4-72-63.4  c-33.1,0-62.6,21.1-69.8,49.5c-0.6,3.6-1.1,6.7-1.1,10c0,10,5.8,16.7,15.6,16.7c7.8,0,12-4.7,15.9-13.1c7-20.9,20.9-31.1,40.9-31.1  c22.5,0,37,13.9,37,34.5c0,18.1-14.5,33.7-27.8,49.2l-73.4,86.2c-4.2,4.7-6.1,9.5-6.1,15C100.1,362.7,106.5,369.1,116.5,369.1z   M318.7,372.4c7.5,0,12.8-4.2,17.8-13.6l86.8-173.5c4.2-8.9,5.3-13.9,5.3-19.7c0-13.6-9.7-24.2-24.8-24.2H291.5  c-9.5,0-15.9,6.4-15.9,15.9c0,9.2,6.4,15.3,15.9,15.3h97.9v2.2l-86.2,166.9c-2.5,4.2-3.1,7.5-3.1,12.8  C300.1,364.9,308.1,372.4,318.7,372.4z"/>
</svg>