<?xml version="1.0" ?><!-- Generator: Adobe Illustrator 25.0.0, SVG Export Plug-In . SVG Version: 6.00 Build 0)  --><svg xmlns="http://www.w3.org/2000/svg" xmlns:xlink="http://www.w3.org/1999/xlink" version="1.1" id="Layer_1" x="0px" y="0px" viewBox="0 0 512 512" style="enable-background:new 0 0 512 512;" xml:space="preserve">
<path d="M87.3,512h337.3c58.4,0,87.3-28.9,87.3-86.2V86.2C512,28.9,483.1,0,424.7,0H87.3C29.2,0,0,28.6,0,86.2v339.6  C0,483.4,29.2,512,87.3,512z M112.1,372.7c-10.3,0-17-6.7-17-17c0-5.8,2.2-10.6,6.4-15.6l75.6-88.7c13.6-16.1,28.6-32.3,28.6-50.9  c0-21.1-14.7-35.3-38.1-35.3c-20.3,0-34.8,10.6-42,32c-3.9,8.6-8.3,13.3-16.4,13.3c-10,0-16.1-6.7-16.1-17.2c0-3.3,0.6-6.7,1.1-10.3  c7.5-29.2,38.1-50.9,72-50.9c45.1,0,74.5,25.3,74.5,65.4c0,28.6-15.9,49.2-37,74l-56.2,65.1v2.2h83.2c8.9,0,15.9,5.8,15.9,16.7  c0,10.3-7,17.2-15.9,17.2H112.1z M320.7,376c-10.8,0-19.2-7.8-19.2-18.6c0-5.6,0.6-8.9,3.1-13.3l89-171.6v-2.5h-101  c-9.7,0-16.4-6.1-16.4-15.9s6.7-16.4,16.4-16.4h116c15.6,0,25.6,11.1,25.6,25c0,6.1-1.1,11.4-5.6,20.6l-89.3,178.8  C334,371.8,328.4,376,320.7,376z"/>
</svg>