<?xml version="1.0" encoding="UTF-8"?>
<!--Generator: Apple Native CoreSVG 326-->
<!DOCTYPE svg
PUBLIC "-//W3C//DTD SVG 1.1//EN"
       "http://www.w3.org/Graphics/SVG/1.1/DTD/svg11.dtd">
<svg version="1.1" xmlns="http://www.w3.org/2000/svg" xmlns:xlink="http://www.w3.org/1999/xlink" viewBox="0 0 25.8008 25.459">
 <g>
  <rect height="25.459" opacity="0" width="25.8008" x="0" y="0"/>
  <path d="M12.7148 25.4395C19.7363 25.4395 25.4395 19.7461 25.4395 12.7246C25.4395 5.70312 19.7363 0 12.7148 0C5.69336 0 0 5.70312 0 12.7246C0 19.7461 5.69336 25.4395 12.7148 25.4395ZM12.7148 23.623C6.68945 23.623 1.81641 18.75 1.81641 12.7246C1.81641 6.69922 6.68945 1.82617 12.7148 1.82617C18.7402 1.82617 23.6133 6.69922 23.6133 12.7246C23.6133 18.75 18.7402 23.623 12.7148 23.623Z" fill="black" fill-opacity="0.85"/>
  <path d="M6.73828 17.8223L11.1035 17.8223C11.4941 17.8223 11.7383 17.5586 11.7383 17.168C11.7383 16.7578 11.4844 16.5137 11.1035 16.5137L7.95898 16.5137L7.95898 16.4258L9.94141 13.8379C11.1328 12.3145 11.5332 11.3867 11.5332 10.293C11.5332 8.62305 10.4492 7.38281 8.75 7.38281C7.16797 7.38281 6.00586 8.7207 6.00586 10.0391C6.00586 10.4395 6.25 10.7324 6.66992 10.7324C7.04102 10.7324 7.26562 10.5664 7.37305 10.2051C7.58789 9.27734 7.94922 8.67188 8.74023 8.67188C9.59961 8.67188 10.0391 9.45312 10.0391 10.3613C10.0391 11.3574 9.41406 12.334 8.7207 13.252L6.38672 16.2988C6.18164 16.5625 5.99609 16.8359 5.99609 17.168C5.99609 17.5488 6.24023 17.8223 6.73828 17.8223ZM16.2402 18.0273C18.1738 18.0273 19.4043 16.7773 19.4043 15.0684C19.4043 13.7207 18.5645 12.6953 17.5488 12.4609L17.5488 12.4219C18.418 12.1484 19.1211 11.2988 19.1211 10.1562C19.1211 8.56445 17.9785 7.43164 16.2402 7.43164C14.6973 7.43164 13.3789 8.42773 13.3789 10.1465C13.3789 11.377 14.1113 12.1582 14.9609 12.4219L14.9609 12.4609C13.8867 12.7051 13.0859 13.7305 13.0859 15.0684C13.0859 16.8652 14.4238 18.0273 16.2402 18.0273ZM16.25 11.9043C15.4199 11.9043 14.9121 11.1523 14.9121 10.3027C14.9121 9.41406 15.4102 8.63281 16.25 8.63281C17.1387 8.63281 17.5781 9.44336 17.5781 10.3027C17.5781 11.1914 17.0801 11.9043 16.25 11.9043ZM16.25 16.8164C15.2539 16.8164 14.7363 15.9473 14.7363 14.9512C14.7363 13.9551 15.2637 13.125 16.25 13.125C17.1875 13.125 17.7637 13.8965 17.7637 14.9512C17.7637 15.9473 17.2461 16.8164 16.25 16.8164Z" fill="black" fill-opacity="0.85"/>
 </g>
</svg>
