<?xml version="1.0" ?><!-- Generator: Adobe Illustrator 25.0.0, SVG Export Plug-In . SVG Version: 6.00 Build 0)  --><svg xmlns="http://www.w3.org/2000/svg" xmlns:xlink="http://www.w3.org/1999/xlink" version="1.1" id="Layer_1" x="0px" y="0px" viewBox="0 0 512 512" style="enable-background:new 0 0 512 512;" xml:space="preserve">
<path d="M256,512c140,0,256-116.2,256-256C512,116,395.8,0,255.7,0C116,0,0,116,0,256C0,395.8,116.2,512,256,512z M119,361.7  c-9.3,0-15.3-6-15.3-15.3c0-5.3,1.8-9.8,5.8-14.1l68.3-80.3c12.3-14.3,25.9-28.9,25.9-45.7c0-19.1-13.6-31.9-34.4-31.9  c-18.6,0-31.4,9.3-38.1,28.9c-3.5,7.8-7.3,12-14.8,12c-8.8,0-14.3-6.3-14.3-15.6c0-3,0.5-6,1-9.3c6.8-26.4,34.1-46.2,65-46.2  c40.7,0,67,23.1,67,59.2c0,25.9-14.3,44.4-33.4,66.8L150.8,329v2h75c8.3,0,14.6,5.3,14.6,15.1c0,9.3-6.3,15.6-14.6,15.6H119z   M342.3,367.7c-44.9,0-74.5-25.3-74.5-63.2c0-26.4,15.8-48.2,43.9-54V249c-24.1-7-36.4-25.1-36.4-47.7c0-33.6,27.9-57,67.5-57  c39.9,0,67.5,23.3,67.5,57c0,22.6-12.3,41.2-36.1,47.7v1.5c27.6,5.8,43.9,27.4,43.9,53.7C418.1,341.8,387.5,367.7,342.3,367.7z   M342.8,238.7c20.1,0,34.6-14.6,34.6-34.1s-14.3-33.1-34.6-33.1c-20.1,0-34.4,13.6-34.4,33.1S322.8,238.7,342.8,238.7z M343.1,340.6  c24.6,0,42.4-15.8,42.4-38.4c0-22.6-17.3-38.7-42.4-38.7c-24.6,0-42.2,16.3-42.2,38.7C300.9,324.8,318.5,340.6,343.1,340.6z"/>
</svg>