<?xml version="1.0" encoding="UTF-8"?>
<!--Generator: Apple Native CoreSVG 326-->
<!DOCTYPE svg
PUBLIC "-//W3C//DTD SVG 1.1//EN"
       "http://www.w3.org/Graphics/SVG/1.1/DTD/svg11.dtd">
<svg version="1.1" xmlns="http://www.w3.org/2000/svg" xmlns:xlink="http://www.w3.org/1999/xlink" viewBox="0 0 25.8008 25.459">
 <g>
  <rect height="25.459" opacity="0" width="25.8008" x="0" y="0"/>
  <path d="M25.4395 12.7246C25.4395 19.7266 19.7266 25.4395 12.7148 25.4395C5.71289 25.4395 0 19.7266 0 12.7246C0 5.71289 5.71289 0 12.7148 0C19.7266 0 25.4395 5.71289 25.4395 12.7246ZM13.4082 10.0781C13.4082 11.3477 14.1602 12.1484 15.0293 12.4121L15.0293 12.4512C13.9258 12.7051 13.1055 13.75 13.1055 15.127C13.1055 16.9824 14.4824 18.1543 16.3379 18.1543C18.3203 18.1543 19.5996 16.875 19.5996 15.127C19.5996 13.7402 18.7207 12.6953 17.6855 12.4512L17.6855 12.4121C18.5742 12.1387 19.3066 11.2695 19.3066 10.0879C19.3066 8.4668 18.125 7.30469 16.3379 7.30469C14.7559 7.30469 13.4082 8.32031 13.4082 10.0781ZM5.83984 9.9707C5.83984 10.3809 6.08398 10.6934 6.52344 10.6934C6.91406 10.6934 7.13867 10.5176 7.25586 10.1465C7.4707 9.19922 7.8418 8.58398 8.65234 8.58398C9.52148 8.58398 9.9707 9.375 9.9707 10.3027C9.9707 11.3281 9.32617 12.334 8.61328 13.2617L6.24023 16.377C6.02539 16.6504 5.83008 16.9238 5.83008 17.2852C5.83008 17.666 6.08398 17.9492 6.60156 17.9492L11.0742 17.9492C11.4746 17.9492 11.7285 17.6758 11.7285 17.2754C11.7285 16.8457 11.4648 16.5918 11.0742 16.5918L7.86133 16.5918L7.86133 16.5039L9.88281 13.8672C11.1035 12.3047 11.5137 11.3574 11.5137 10.2344C11.5137 8.52539 10.4004 7.25586 8.66211 7.25586C7.04102 7.25586 5.83984 8.62305 5.83984 9.9707ZM17.8906 15C17.8906 16.0254 17.3633 16.9043 16.3477 16.9043C15.3418 16.9043 14.8047 16.0254 14.8047 15C14.8047 13.9844 15.3418 13.1445 16.3477 13.1445C17.3047 13.1445 17.8906 13.9258 17.8906 15ZM17.7051 10.2441C17.7051 11.1523 17.207 11.8848 16.3477 11.8848C15.498 11.8848 14.9902 11.1133 14.9902 10.2441C14.9902 9.33594 15.4883 8.54492 16.3477 8.54492C17.2559 8.54492 17.7051 9.36523 17.7051 10.2441Z" fill="black" fill-opacity="0.85"/>
 </g>
</svg>
