<?xml version="1.0" encoding="UTF-8"?>
<!--Generator: Apple Native CoreSVG 326-->
<!DOCTYPE svg
PUBLIC "-//W3C//DTD SVG 1.1//EN"
       "http://www.w3.org/Graphics/SVG/1.1/DTD/svg11.dtd">
<svg version="1.1" xmlns="http://www.w3.org/2000/svg" xmlns:xlink="http://www.w3.org/1999/xlink" viewBox="0 0 23.3203 22.959">
 <g>
  <rect height="22.959" opacity="0" width="23.3203" x="0" y="0"/>
  <path d="M3.79883 22.959L19.1504 22.959C21.6797 22.959 22.959 21.6797 22.959 19.1992L22.959 3.76953C22.959 1.2793 21.6797 0 19.1504 0L3.79883 0C1.2793 0 0 1.26953 0 3.76953L0 19.1992C0 21.6992 1.2793 22.959 3.79883 22.959ZM3.83789 21.2305C2.4707 21.2305 1.72852 20.5078 1.72852 19.1016L1.72852 3.85742C1.72852 2.46094 2.4707 1.72852 3.83789 1.72852L19.1211 1.72852C20.459 1.72852 21.2305 2.46094 21.2305 3.85742L21.2305 19.1016C21.2305 20.5078 20.459 21.2305 19.1211 21.2305Z" fill="black" fill-opacity="0.85"/>
  <path d="M5.51758 16.5723L9.88281 16.5723C10.2734 16.5723 10.5078 16.3086 10.5078 15.918C10.5078 15.5078 10.2637 15.2637 9.88281 15.2637L6.73828 15.2637L6.73828 15.1758L8.7207 12.5879C9.91211 11.0645 10.3125 10.1367 10.3125 9.04297C10.3125 7.37305 9.22852 6.13281 7.5293 6.13281C5.94727 6.13281 4.78516 7.4707 4.78516 8.78906C4.78516 9.18945 5.01953 9.48242 5.44922 9.48242C5.82031 9.48242 6.04492 9.31641 6.15234 8.95508C6.36719 8.02734 6.72852 7.42188 7.51953 7.42188C8.37891 7.42188 8.81836 8.20312 8.81836 9.11133C8.81836 10.1074 8.19336 11.084 7.49023 12.002L5.16602 15.0488C4.96094 15.3125 4.77539 15.5859 4.77539 15.918C4.77539 16.2988 5.01953 16.5723 5.51758 16.5723ZM15.0195 16.7773C16.9434 16.7773 18.1836 15.5273 18.1836 13.8184C18.1836 12.4707 17.3438 11.4453 16.3281 11.2109L16.3281 11.1719C17.1973 10.8984 17.9004 10.0488 17.9004 8.90625C17.9004 7.31445 16.748 6.18164 15.0195 6.18164C13.4766 6.18164 12.1582 7.17773 12.1582 8.89648C12.1582 10.127 12.8906 10.9082 13.7402 11.1719L13.7402 11.2109C12.666 11.4551 11.8652 12.4805 11.8652 13.8184C11.8652 15.6152 13.1934 16.7773 15.0195 16.7773ZM15.0195 10.6543C14.1992 10.6543 13.6914 9.90234 13.6914 9.05273C13.6914 8.16406 14.1895 7.38281 15.0195 7.38281C15.918 7.38281 16.3574 8.19336 16.3574 9.05273C16.3574 9.94141 15.8594 10.6543 15.0195 10.6543ZM15.0195 15.5664C14.0332 15.5664 13.5156 14.6973 13.5156 13.7012C13.5156 12.7051 14.043 11.875 15.0195 11.875C15.9668 11.875 16.543 12.6465 16.543 13.7012C16.543 14.6973 16.0254 15.5664 15.0195 15.5664Z" fill="black" fill-opacity="0.85"/>
 </g>
</svg>
