<?xml version="1.0" ?><!-- Generator: Adobe Illustrator 25.0.0, SVG Export Plug-In . SVG Version: 6.00 Build 0)  --><svg xmlns="http://www.w3.org/2000/svg" xmlns:xlink="http://www.w3.org/1999/xlink" version="1.1" id="Layer_1" x="0px" y="0px" viewBox="0 0 512 512" style="enable-background:new 0 0 512 512;" xml:space="preserve">
<path d="M256,512c140,0,256-116.2,256-256C512,116,395.8,0,255.7,0C116,0,0,116,0,256C0,395.8,116.2,512,256,512z M121.2,361.7  c-9.3,0-15.1-6-15.1-15.3c0-5.3,1.5-9.8,5.8-14.1l68-80.3c12.3-14.3,25.9-28.9,25.9-45.7c0-19.1-13.6-31.9-34.1-31.9  c-18.6,0-31.6,9.3-38.1,28.9c-3.5,7.8-7.3,12-14.8,12c-9,0-14.6-6.3-14.6-15.6c0-3,0.5-6,1.3-9.3c6.8-26.4,34.1-46.2,65-46.2  c40.7,0,66.8,23.1,66.8,59.2c0,25.9-14.3,44.4-33.4,66.8L153.3,329v2h75c8.3,0,14.6,5.3,14.6,15.1c0,9.3-6.3,15.6-14.6,15.6H121.2z   M340.3,367.7c-35.6,0-57-20.3-61-34.6c-1-3-1.8-6.5-1.8-9.3c0-9,5.8-15.3,13.8-15.3c6.8,0,11.5,2.8,15.8,10  c6.3,11.5,18.1,19.1,32.6,19.1c30.1,0,49.7-30.4,49.2-81.8h-1.5c-7,17.6-23.8,32.9-52,32.9c-33.9,0-64.3-24.8-64.3-69.3  c0-45.7,28.4-75,72-75c48.4,0,76.5,36.6,76.5,104.4C419.9,326.8,392,367.7,340.3,367.7z M345.1,261.8c24.3,0,41.2-18.3,41.2-43.7  c0-26.6-17.1-45.4-40.9-45.4c-25.1,0-40.9,17.8-40.9,44.9C304.4,243.5,320.5,261.8,345.1,261.8z"/>
</svg>