<?xml version="1.0" ?><!-- Generator: Adobe Illustrator 25.0.0, SVG Export Plug-In . SVG Version: 6.00 Build 0)  --><svg xmlns="http://www.w3.org/2000/svg" xmlns:xlink="http://www.w3.org/1999/xlink" version="1.1" id="Layer_1" x="0px" y="0px" viewBox="0 0 512 512" style="enable-background:new 0 0 512 512;" xml:space="preserve">
<path d="M87.3,512h337.3c58.4,0,87.3-28.9,87.3-86.2V86.2C512,28.9,483.1,0,424.7,0H87.3C29.2,0,0,28.6,0,86.2v339.6  C0,483.4,29.2,512,87.3,512z M107.1,372.7c-10,0-16.7-6.7-16.7-17c0-5.8,1.7-10.8,6.4-15.6l75.6-89c13.3-15.9,28.6-32,28.6-50.6  c0-21.1-15.3-35.3-38.1-35.3c-20.6,0-34.8,10.3-42.3,32c-3.9,8.6-8.1,13.3-16.4,13.3c-10,0-16.1-7-16.1-17.2c0-3.3,0.8-6.7,1.4-10.3  c7.5-29.2,37.8-51.2,72-51.2c45.1,0,74,25.6,74,65.6c0,28.6-15.9,49.2-37,74l-55.9,65.1v2.2h83.2c9.2,0,16.1,5.8,16.1,16.7  c0,10.3-7,17.2-16.1,17.2H107.1z M349.9,379.3c-39.5,0-62.9-22.5-67.6-38.4c-1.1-3.3-1.9-7.2-1.9-10.3c0-10,6.4-17,15.3-17  c7.5,0,12.8,3.1,17.5,11.1c7,12.8,20,21.1,36.2,21.1c33.4,0,55.1-33.7,54.5-90.7h-1.7c-7.5,19.5-26.1,36.4-57.6,36.4  c-37.5,0-71.2-27.5-71.2-76.8c0-50.6,31.4-83.2,79.8-83.2c54,0,84.8,40.6,84.8,115.7C438,334,407.2,379.3,349.9,379.3z M355.4,262  c26.7,0,45.3-20.3,45.3-48.4c0-29.5-18.9-50.3-45.3-50.3c-27.8,0-45.3,19.7-45.3,49.8C310.1,241.7,328.2,262,355.4,262z"/>
</svg>