<?xml version="1.0" encoding="UTF-8"?>
<!--Generator: Apple Native CoreSVG 326-->
<!DOCTYPE svg
PUBLIC "-//W3C//DTD SVG 1.1//EN"
       "http://www.w3.org/Graphics/SVG/1.1/DTD/svg11.dtd">
<svg version="1.1" xmlns="http://www.w3.org/2000/svg" xmlns:xlink="http://www.w3.org/1999/xlink" viewBox="0 0 23.3203 22.959">
 <g>
  <rect height="22.959" opacity="0" width="23.3203" x="0" y="0"/>
  <path d="M22.959 3.76953L22.959 19.1992C22.959 21.6797 21.6797 22.959 19.1504 22.959L3.79883 22.959C1.2793 22.959 0 21.6992 0 19.1992L0 3.76953C0 1.26953 1.2793 0 3.79883 0L19.1504 0C21.6797 0 22.959 1.2793 22.959 3.76953ZM11.9727 9.6875C11.9727 11.4258 12.8125 13.0859 14.5215 13.0859C15.625 13.0859 16.416 12.334 16.6895 11.2109L16.7383 11.2109C16.7383 11.2598 16.7383 11.3184 16.7383 11.3672C16.7383 12.8711 16.543 15.5859 14.9902 15.5859C14.3555 15.5859 13.9258 15.127 13.6816 14.4922C13.5156 14.0918 13.291 13.9355 12.9492 13.9355C12.4805 13.9355 12.2656 14.2578 12.2656 14.6387C12.2656 14.7852 12.2949 14.9512 12.3438 15.1074C12.6367 16.25 13.7109 16.9238 14.9707 16.9238C17.5586 16.9238 18.291 13.9258 18.291 11.3477C18.291 8.91602 17.5293 6.02539 14.9902 6.02539C13.0762 6.02539 11.9727 7.68555 11.9727 9.6875ZM4.75586 8.7207C4.75586 9.13086 4.99023 9.43359 5.43945 9.43359C5.81055 9.43359 6.05469 9.26758 6.16211 8.89648C6.38672 7.94922 6.74805 7.33398 7.55859 7.33398C8.4375 7.33398 8.88672 8.125 8.88672 9.05273C8.88672 10.0781 8.24219 11.084 7.51953 12.0117L5.14648 15.127C4.93164 15.3906 4.73633 15.6738 4.73633 16.0352C4.73633 16.416 4.99023 16.6992 5.50781 16.6992L9.9707 16.6992C10.3711 16.6992 10.625 16.4258 10.625 16.0254C10.625 15.5957 10.3613 15.3418 9.9707 15.3418L6.76758 15.3418L6.76758 15.2539L8.78906 12.6172C10.0098 11.0547 10.4297 10.1074 10.4297 8.98438C10.4297 7.27539 9.30664 6.00586 7.55859 6.00586C5.94727 6.00586 4.75586 7.37305 4.75586 8.7207ZM16.5137 9.61914C16.5137 10.6934 16.0156 11.8164 15.0098 11.8164C13.9844 11.8164 13.5449 10.6543 13.5449 9.61914C13.5449 8.56445 14.0234 7.36328 15.0098 7.36328C16.0547 7.36328 16.5137 8.57422 16.5137 9.61914Z" fill="black" fill-opacity="0.85"/>
 </g>
</svg>
