<?xml version="1.0" ?><!-- Generator: Adobe Illustrator 25.0.0, SVG Export Plug-In . SVG Version: 6.00 Build 0)  --><svg xmlns="http://www.w3.org/2000/svg" xmlns:xlink="http://www.w3.org/1999/xlink" version="1.1" id="Layer_1" x="0px" y="0px" viewBox="0 0 512 512" style="enable-background:new 0 0 512 512;" xml:space="preserve">
<path d="M87.3,512h337.3c58.4,0,87.3-28.9,87.3-86.2V86.2C512,28.9,483.1,0,424.7,0H87.3C29.2,0,0,28.6,0,86.2v339.6  C0,483.4,29.2,512,87.3,512z M87.9,467.2c-27.8,0-43.1-14.7-43.1-43.7V88.4c0-28.9,15.3-43.7,43.1-43.7h336.2  c27.5,0,43.1,14.7,43.1,43.7v335.1c0,28.9-15.6,43.7-43.1,43.7H87.9z M111.5,369.1h115.1c8.9,0,15.6-6.7,15.6-16.7  c0-10.3-6.7-16.1-15.6-16.1h-80.9v-1.9l54.5-63.4c20.6-23.9,35.9-43.9,35.9-71.8c0-38.7-28.1-63.4-71.8-63.4  c-33.1,0-62.6,21.1-69.8,49.5c-0.6,3.6-1.4,6.7-1.4,10c0,10,5.8,16.7,15.6,16.7c8.1,0,12.2-4.7,15.9-13.1  c7-20.9,21.1-31.1,41.2-31.1c22.2,0,37,13.9,37,34.5c0,18.1-14.7,33.7-27.8,49.2l-73.4,86.2c-4.4,4.7-6.1,9.5-6.1,15  C95.4,362.7,101.8,369.1,111.5,369.1z M347.1,375.4c55.3,0,85.4-43.9,85.4-127.7c0-72.9-30-112.1-82.3-112.1  c-46.7,0-77.3,31.4-77.3,80.4c0,47.8,32.5,74.5,69,74.5c30.6,0,48.7-16.4,55.9-35.3h1.7c0.6,55.3-20.6,88.2-52.8,88.2  c-15.9,0-28.6-8.3-35.3-20.6c-4.4-7.8-9.7-10.8-17-10.8c-8.6,0-14.7,6.7-14.7,16.4c0,2.8,0.8,6.7,1.9,10  C286.2,353.8,308.7,375.4,347.1,375.4z M352.4,262c-26.4,0-44.2-19.7-44.2-47.6c0-29.2,17.2-48.4,44.2-48.4  c25.6,0,43.9,20.3,43.9,48.9C396.3,242.2,378.2,262,352.4,262z"/>
</svg>