<?xml version="1.0" encoding="UTF-8"?>
<!--Generator: Apple Native CoreSVG 326-->
<!DOCTYPE svg
PUBLIC "-//W3C//DTD SVG 1.1//EN"
       "http://www.w3.org/Graphics/SVG/1.1/DTD/svg11.dtd">
<svg version="1.1" xmlns="http://www.w3.org/2000/svg" xmlns:xlink="http://www.w3.org/1999/xlink" viewBox="0 0 23.3203 22.959">
 <g>
  <rect height="22.959" opacity="0" width="23.3203" x="0" y="0"/>
  <path d="M3.79883 22.959L19.1504 22.959C21.6797 22.959 22.959 21.6797 22.959 19.1992L22.959 3.76953C22.959 1.2793 21.6797 0 19.1504 0L3.79883 0C1.2793 0 0 1.26953 0 3.76953L0 19.1992C0 21.6992 1.2793 22.959 3.79883 22.959ZM3.83789 21.2305C2.4707 21.2305 1.72852 20.5078 1.72852 19.1016L1.72852 3.85742C1.72852 2.46094 2.4707 1.72852 3.83789 1.72852L19.1211 1.72852C20.459 1.72852 21.2305 2.46094 21.2305 3.85742L21.2305 19.1016C21.2305 20.5078 20.459 21.2305 19.1211 21.2305Z" fill="black" fill-opacity="0.85"/>
  <path d="M5.6543 16.5723L10.0098 16.5723C10.4004 16.5723 10.6445 16.3086 10.6445 15.918C10.6445 15.5078 10.3906 15.2637 10.0098 15.2637L6.875 15.2637L6.875 15.1758L8.85742 12.5879C10.0488 11.0645 10.4492 10.1367 10.4492 9.04297C10.4492 7.37305 9.36523 6.13281 7.66602 6.13281C6.08398 6.13281 4.92188 7.4707 4.92188 8.78906C4.92188 9.18945 5.15625 9.48242 5.58594 9.48242C5.95703 9.48242 6.18164 9.31641 6.28906 8.95508C6.50391 8.02734 6.86523 7.42188 7.65625 7.42188C8.51562 7.42188 8.95508 8.20312 8.95508 9.11133C8.95508 10.1074 8.33008 11.084 7.62695 12.002L5.30273 15.0488C5.09766 15.3125 4.91211 15.5859 4.91211 15.918C4.91211 16.2988 5.15625 16.5723 5.6543 16.5723ZM14.4531 13.0469C15.5176 13.0469 16.2988 12.3145 16.5723 11.2109L16.6211 11.2109C16.6211 11.2598 16.6211 11.3184 16.6211 11.3672C16.6211 12.8418 16.4258 15.4883 14.9023 15.4883C14.2773 15.4883 13.8574 15.0488 13.623 14.4238C13.457 14.0332 13.2422 13.877 12.9102 13.877C12.4512 13.877 12.2461 14.1895 12.2461 14.5605C12.2461 14.6973 12.2754 14.8633 12.3242 15.0195C12.6074 16.1328 13.6523 16.7969 14.8828 16.7969C17.4121 16.7969 18.125 13.8672 18.125 11.3477C18.125 8.97461 17.3828 6.15234 14.9023 6.15234C13.0371 6.15234 11.9629 7.77344 11.9629 9.73633C11.9629 11.4258 12.7832 13.0469 14.4531 13.0469ZM14.9219 11.8164C13.916 11.8164 13.4863 10.6738 13.4863 9.66797C13.4863 8.63281 13.9551 7.45117 14.9219 7.45117C15.9473 7.45117 16.3867 8.64258 16.3867 9.66797C16.3867 10.7129 15.9082 11.8164 14.9219 11.8164Z" fill="black" fill-opacity="0.85"/>
 </g>
</svg>
