<?xml version="1.0" ?><!-- Generator: Adobe Illustrator 25.0.0, SVG Export Plug-In . SVG Version: 6.00 Build 0)  --><svg xmlns="http://www.w3.org/2000/svg" xmlns:xlink="http://www.w3.org/1999/xlink" version="1.1" id="Layer_1" x="0px" y="0px" viewBox="0 0 512 512" style="enable-background:new 0 0 512 512;" xml:space="preserve">
<path d="M256,512c140,0,256-116.2,256-256C512,116,395.8,0,255.7,0C116,0,0,116,0,256C0,395.8,116.2,512,256,512z M254,379.2  c-42.4,0-76-20.3-83.8-50.2c-1-3.8-1.3-6-1.3-9.8c0-10.5,7.5-17.8,18.1-17.8c8.8,0,14.3,4.3,17.8,13.3c6.3,17.8,21.8,31.4,49.9,31.4  c30.1,0,50.4-15.1,50.4-38.4s-20.1-39.4-49.2-39.4h-17.8c-9.3,0-16.1-6.8-16.1-15.8c0-9.8,6.8-16.3,16.1-16.3h16.3  c24.8,0,42.7-15.6,42.7-36.9c0-20.8-15.8-33.6-41.7-33.6c-24.1,0-40.2,12-45.9,31.4c-3,9-8.5,13.6-17.8,13.6  c-10.3,0-17.8-7-17.8-17.3c0-3.8,0.5-6.5,1.3-10.3c7-30.6,38.9-50.2,81.1-50.2c46.4,0,79.3,25.9,79.3,62c0,27.1-20.1,50.9-46.2,54.7  v2c31.6,3,54.5,27.4,54.5,57.7C343.8,350.1,309.5,379.2,254,379.2z"/>
</svg>