<?xml version="1.0" ?><!-- Generator: Adobe Illustrator 25.0.0, SVG Export Plug-In . SVG Version: 6.00 Build 0)  --><svg xmlns="http://www.w3.org/2000/svg" xmlns:xlink="http://www.w3.org/1999/xlink" version="1.1" id="Layer_1" x="0px" y="0px" viewBox="0 0 512 512" style="enable-background:new 0 0 512 512;" xml:space="preserve">
<path d="M256,512c140,0,256-116.2,256-256C512,116,395.8,0,255.7,0C116,0,0,116,0,256C0,395.8,116.2,512,256,512z M256,469.3  c-118.5,0-213.1-94.9-213.1-213.3S137.3,42.7,255.7,42.7S469.1,137.5,469.3,256S374.5,469.3,256,469.3z M254,375.7  c53.7,0,87.1-28.4,87.1-68c0-29.4-22.1-53-52.7-56V250c25.1-3.8,44.7-27.1,44.7-53.2c0-35.1-31.9-60.2-76.8-60.2  c-40.9,0-71.8,19.1-78.6,48.7c-0.8,3.8-1.3,6.3-1.3,10c0,10,7.3,16.6,17.3,16.6c9,0,14.3-4.3,17.1-12.8  c5.8-18.8,21.3-30.6,44.7-30.6c25.1,0,40.4,12.5,40.4,32.6c0,20.8-17.3,36.1-41.4,36.1h-15.8c-9,0-15.6,6.3-15.6,15.3  c0,8.8,6.5,15.6,15.6,15.6H256c28.4,0,47.7,15.6,47.7,38.1c0,22.6-19.6,37.6-48.9,37.6c-27.1,0-42.4-13.3-48.4-30.6  c-3.5-9-8.8-12.8-17.3-12.8c-10,0-17.3,7-17.3,17.1c0,3.8,0.3,5.8,1.3,9.3C180.5,355.9,213.1,375.7,254,375.7z"/>
</svg>