<?xml version="1.0" encoding="UTF-8"?>
<!--Generator: Apple Native CoreSVG 326-->
<!DOCTYPE svg
PUBLIC "-//W3C//DTD SVG 1.1//EN"
       "http://www.w3.org/Graphics/SVG/1.1/DTD/svg11.dtd">
<svg version="1.1" xmlns="http://www.w3.org/2000/svg" xmlns:xlink="http://www.w3.org/1999/xlink" viewBox="0 0 23.3203 22.959">
 <g>
  <rect height="22.959" opacity="0" width="23.3203" x="0" y="0"/>
  <path d="M3.79883 22.959L19.1504 22.959C21.6797 22.959 22.959 21.6797 22.959 19.1992L22.959 3.76953C22.959 1.2793 21.6797 0 19.1504 0L3.79883 0C1.2793 0 0 1.26953 0 3.76953L0 19.1992C0 21.6992 1.2793 22.959 3.79883 22.959ZM3.83789 21.2305C2.4707 21.2305 1.72852 20.5078 1.72852 19.1016L1.72852 3.85742C1.72852 2.46094 2.4707 1.72852 3.83789 1.72852L19.1211 1.72852C20.459 1.72852 21.2305 2.46094 21.2305 3.85742L21.2305 19.1016C21.2305 20.5078 20.459 21.2305 19.1211 21.2305Z" fill="black" fill-opacity="0.85"/>
  <path d="M11.5332 17.4121C14.1211 17.4121 15.7715 16.0059 15.7715 14.0527C15.7715 12.5977 14.6484 11.4062 13.125 11.2598L13.125 11.1719C14.3945 10.9766 15.3711 9.81445 15.3711 8.49609C15.3711 6.76758 13.8086 5.53711 11.6211 5.53711C9.64844 5.53711 8.125 6.48438 7.82227 7.92969C7.79297 8.0957 7.77344 8.22266 7.77344 8.39844C7.77344 8.83789 8.07617 9.13086 8.52539 9.13086C8.91602 9.13086 9.15039 8.93555 9.26758 8.54492C9.52148 7.55859 10.3711 6.92383 11.5918 6.92383C12.9199 6.92383 13.75 7.60742 13.75 8.69141C13.75 9.78516 12.8223 10.6152 11.5723 10.6152L10.7129 10.6152C10.3125 10.6152 10.0293 10.8887 10.0293 11.2891C10.0293 11.6797 10.3125 11.9629 10.7129 11.9629L11.6504 11.9629C13.1152 11.9629 14.1406 12.8027 14.1406 13.9941C14.1406 15.2051 13.1055 16.0156 11.5625 16.0156C10.1855 16.0156 9.32617 15.3223 9.04297 14.3945C8.88672 13.9941 8.66211 13.8184 8.28125 13.8184C7.8418 13.8184 7.5293 14.1309 7.5293 14.5605C7.5293 14.7363 7.53906 14.8438 7.58789 15.0098C7.95898 16.4355 9.55078 17.4121 11.5332 17.4121Z" fill="black" fill-opacity="0.85"/>
 </g>
</svg>
