<?xml version="1.0" encoding="UTF-8"?>
<!--Generator: Apple Native CoreSVG 326-->
<!DOCTYPE svg
PUBLIC "-//W3C//DTD SVG 1.1//EN"
       "http://www.w3.org/Graphics/SVG/1.1/DTD/svg11.dtd">
<svg version="1.1" xmlns="http://www.w3.org/2000/svg" xmlns:xlink="http://www.w3.org/1999/xlink" viewBox="0 0 23.3203 22.959">
 <g>
  <rect height="22.959" opacity="0" width="23.3203" x="0" y="0"/>
  <path d="M22.959 3.76953L22.959 19.1992C22.959 21.6797 21.6797 22.959 19.1504 22.959L3.79883 22.959C1.2793 22.959 0 21.6992 0 19.1992L0 3.76953C0 1.26953 1.2793 0 3.79883 0L19.1504 0C21.6797 0 22.959 1.2793 22.959 3.76953ZM7.72461 7.8418C7.69531 8.01758 7.67578 8.14453 7.67578 8.32031C7.67578 8.7793 7.98828 9.08203 8.4375 9.08203C8.84766 9.08203 9.0918 8.87695 9.21875 8.47656C9.47266 7.4707 10.3418 6.82617 11.5918 6.82617C12.9492 6.82617 13.7988 7.51953 13.7988 8.62305C13.7988 9.74609 12.8516 10.5859 11.5723 10.5859L10.6934 10.5859C10.2832 10.5859 9.99023 10.8691 9.99023 11.2891C9.99023 11.6895 10.2832 11.9824 10.6934 11.9824L11.6504 11.9824C13.1445 11.9824 14.1992 12.8418 14.1992 14.0527C14.1992 15.293 13.1445 16.123 11.5625 16.123C10.1465 16.123 9.27734 15.4102 8.97461 14.4629C8.82812 14.0527 8.59375 13.8672 8.20312 13.8672C7.74414 13.8672 7.42188 14.1895 7.42188 14.6484C7.42188 14.8145 7.43164 14.9219 7.48047 15.0977C7.86133 16.5625 9.49219 17.5586 11.5332 17.5586C14.1895 17.5586 15.8789 16.123 15.8789 14.1113C15.8789 12.627 14.7266 11.4062 13.1738 11.25L13.1738 11.1621C14.4727 10.9668 15.4688 9.77539 15.4688 8.42773C15.4688 6.65039 13.8672 5.39062 11.6211 5.39062C9.59961 5.39062 8.03711 6.34766 7.72461 7.8418Z" fill="black" fill-opacity="0.85"/>
 </g>
</svg>
