<?xml version="1.0" ?><!-- Generator: Adobe Illustrator 25.0.0, SVG Export Plug-In . SVG Version: 6.00 Build 0)  --><svg xmlns="http://www.w3.org/2000/svg" xmlns:xlink="http://www.w3.org/1999/xlink" version="1.1" id="Layer_1" x="0px" y="0px" viewBox="0 0 512 512" style="enable-background:new 0 0 512 512;" xml:space="preserve">
<path d="M256,512c140,0,256-116.2,256-256C512,116,395.8,0,255.7,0C116,0,0,116,0,256C0,395.8,116.2,512,256,512z M342.1,367.2  c-44.4,0-74-42.4-74-111.4c0-69.3,29.6-111.7,74-111.7c44.7,0,74,42.4,74,111.7C416.1,324.8,386.8,367.2,342.1,367.2z M167.9,367.2  c-35.1,0-62.5-21.6-69.5-45.4c-0.8-3-1.3-5.8-1.3-9.3c0-9.3,6-15.6,15.1-15.6c7.3,0,11.5,4,14.8,12c7,18.3,20.8,28.1,41.2,28.1  c24.8,0,42.2-15.1,42.2-35.1c0-21.1-15.8-34.6-40.2-34.6h-15.3c-8.5,0-14.3-6.5-14.3-14.8c0-9.5,6-15.6,14.3-15.6h13.8  c20.8,0,35.1-13.6,35.1-32.4c0-18.1-14.3-30.4-34.9-30.4c-20.1,0-32.4,9.8-38.1,28.1c-2.5,8.3-6.8,12.3-14.6,12.3  c-9,0-14.8-6.5-14.8-15.8c0-3.5,0-6,0.5-9.3c6.8-25.3,32.9-45.4,68-45.4c38.4,0,65.8,23.1,65.8,56.2c0,24.3-16.8,45.9-38.1,49.4v1.5  c26.1,2.5,45.2,24.6,45.2,52.2C242.7,340.6,212.1,367.2,167.9,367.2z M342.1,335.6c24.8,0,40.2-30.4,40.2-79.8  c0-49.7-15.6-80.1-40.2-80.1c-24.3,0-39.9,30.4-39.9,80.1C302.2,305.2,317.7,335.6,342.1,335.6z"/>
</svg>