<?xml version="1.0" encoding="UTF-8"?>
<!--Generator: Apple Native CoreSVG 326-->
<!DOCTYPE svg
PUBLIC "-//W3C//DTD SVG 1.1//EN"
       "http://www.w3.org/Graphics/SVG/1.1/DTD/svg11.dtd">
<svg version="1.1" xmlns="http://www.w3.org/2000/svg" xmlns:xlink="http://www.w3.org/1999/xlink" viewBox="0 0 25.8008 25.459">
 <g>
  <rect height="25.459" opacity="0" width="25.8008" x="0" y="0"/>
  <path d="M12.7148 25.4395C19.7363 25.4395 25.4395 19.7461 25.4395 12.7246C25.4395 5.70312 19.7363 0 12.7148 0C5.69336 0 0 5.70312 0 12.7246C0 19.7461 5.69336 25.4395 12.7148 25.4395ZM12.7148 23.623C6.68945 23.623 1.81641 18.75 1.81641 12.7246C1.81641 6.69922 6.68945 1.82617 12.7148 1.82617C18.7402 1.82617 23.6133 6.69922 23.6133 12.7246C23.6133 18.75 18.7402 23.623 12.7148 23.623Z" fill="black" fill-opacity="0.85"/>
  <path d="M8.88672 18.0176C10.6348 18.0176 11.9727 16.875 11.9727 15.0098C11.9727 13.4961 11.0938 12.6562 9.98047 12.5488L9.98047 12.5C11.123 12.207 11.6699 11.1816 11.6699 10.1172C11.6699 8.42773 10.4395 7.41211 8.83789 7.41211C7.54883 7.41211 6.50391 8.14453 6.14258 9.26758C6.07422 9.51172 6.04492 9.73633 6.04492 9.93164C6.04492 10.3027 6.28906 10.5957 6.71875 10.5957C7.10938 10.5957 7.31445 10.4297 7.42188 10.0391C7.61719 9.24805 8.04688 8.70117 8.83789 8.70117C9.72656 8.70117 10.1758 9.4043 10.1758 10.293C10.1758 11.2598 9.60938 11.9824 8.62305 11.9824L8.26172 11.9824C7.87109 11.9824 7.64648 12.2266 7.64648 12.5781C7.64648 12.9492 7.89062 13.1738 8.26172 13.1738L8.63281 13.1738C9.76562 13.1738 10.4004 13.7891 10.4004 14.9707C10.4004 15.9082 9.90234 16.7188 8.88672 16.7188C7.91016 16.7188 7.44141 16.0352 7.29492 15.3906C7.19727 15.0195 6.96289 14.8242 6.5918 14.8242C6.16211 14.8242 5.87891 15.0879 5.87891 15.5273C5.87891 15.7324 5.91797 15.9766 5.97656 16.1816C6.33789 17.334 7.53906 18.0176 8.88672 18.0176ZM16.4941 18.0469C18.9551 18.0469 19.6484 15.1562 19.6484 12.7051C19.6484 10.2539 18.9551 7.36328 16.4941 7.36328C14.0332 7.36328 13.3301 10.2539 13.3301 12.7051C13.3301 15.1562 14.0332 18.0469 16.4941 18.0469ZM16.4941 16.7285C15.3027 16.7285 14.9414 14.8047 14.9414 12.7051C14.9414 10.6055 15.3027 8.68164 16.4941 8.68164C17.6758 8.68164 18.0469 10.6055 18.0469 12.7051C18.0469 14.8047 17.6758 16.7285 16.4941 16.7285Z" fill="black" fill-opacity="0.85"/>
 </g>
</svg>
