<?xml version="1.0" encoding="UTF-8"?>
<!--Generator: Apple Native CoreSVG 326-->
<!DOCTYPE svg
PUBLIC "-//W3C//DTD SVG 1.1//EN"
       "http://www.w3.org/Graphics/SVG/1.1/DTD/svg11.dtd">
<svg version="1.1" xmlns="http://www.w3.org/2000/svg" xmlns:xlink="http://www.w3.org/1999/xlink" viewBox="0 0 25.8008 25.459">
 <g>
  <rect height="25.459" opacity="0" width="25.8008" x="0" y="0"/>
  <path d="M25.4395 12.7246C25.4395 19.7266 19.7266 25.4395 12.7148 25.4395C5.71289 25.4395 0 19.7266 0 12.7246C0 5.71289 5.71289 0 12.7148 0C19.7266 0 25.4395 5.71289 25.4395 12.7246ZM6.92383 9.18945C6.85547 9.44336 6.82617 9.66797 6.82617 9.88281C6.82617 10.2539 7.07031 10.5566 7.5293 10.5566C7.92969 10.5566 8.14453 10.3906 8.25195 10C8.44727 9.18945 8.88672 8.62305 9.6875 8.62305C10.6055 8.62305 11.0547 9.33594 11.0547 10.2539C11.0547 11.2402 10.4785 11.9824 9.46289 11.9824L9.10156 11.9824C8.71094 11.9824 8.4668 12.2266 8.4668 12.5977C8.4668 12.9688 8.73047 13.2031 9.10156 13.2031L9.48242 13.2031C10.6348 13.2031 11.2793 13.8379 11.2793 15.0293C11.2793 15.9863 10.7812 16.8164 9.74609 16.8164C8.75 16.8164 8.27148 16.123 8.11523 15.4785C8.00781 15.0879 7.7832 14.8926 7.40234 14.8926C6.95312 14.8926 6.65039 15.166 6.65039 15.6055C6.65039 15.8301 6.68945 16.0742 6.75781 16.2793C7.11914 17.4609 8.36914 18.1543 9.73633 18.1543C11.543 18.1543 12.9004 16.9922 12.9004 15.0781C12.9004 13.5254 12.002 12.6758 10.8594 12.5586L10.8594 12.5195C12.0312 12.207 12.5977 11.1621 12.5977 10.0684C12.5977 8.33008 11.3379 7.30469 9.6875 7.30469C8.36914 7.30469 7.29492 8.05664 6.92383 9.18945ZM15.8984 7.8125L14.3945 9.01367C14.1895 9.16992 14.043 9.38477 14.043 9.67773C14.043 10.0391 14.2871 10.293 14.6387 10.293C14.8145 10.293 14.9316 10.2344 15.0391 10.1367L16.3281 9.11133L16.3281 17.2363C16.3281 17.7051 16.709 18.0762 17.1582 18.0762C17.6074 18.0762 17.9883 17.7051 17.9883 17.2363L17.9883 8.27148C17.9883 7.69531 17.6172 7.34375 17.041 7.34375C16.5625 7.34375 16.1719 7.60742 15.8984 7.8125Z" fill="black" fill-opacity="0.85"/>
 </g>
</svg>
