<?xml version="1.0" encoding="UTF-8"?>
<!--Generator: Apple Native CoreSVG 326-->
<!DOCTYPE svg
PUBLIC "-//W3C//DTD SVG 1.1//EN"
       "http://www.w3.org/Graphics/SVG/1.1/DTD/svg11.dtd">
<svg version="1.1" xmlns="http://www.w3.org/2000/svg" xmlns:xlink="http://www.w3.org/1999/xlink" viewBox="0 0 25.8008 25.459">
 <g>
  <rect height="25.459" opacity="0" width="25.8008" x="0" y="0"/>
  <path d="M12.7148 25.4395C19.7363 25.4395 25.4395 19.7461 25.4395 12.7246C25.4395 5.70312 19.7363 0 12.7148 0C5.69336 0 0 5.70312 0 12.7246C0 19.7461 5.69336 25.4395 12.7148 25.4395ZM12.7148 23.623C6.68945 23.623 1.81641 18.75 1.81641 12.7246C1.81641 6.69922 6.68945 1.82617 12.7148 1.82617C18.7402 1.82617 23.6133 6.69922 23.6133 12.7246C23.6133 18.75 18.7402 23.623 12.7148 23.623Z" fill="black" fill-opacity="0.85"/>
  <path d="M9.79492 18.0273C11.5527 18.0273 12.8809 16.8945 12.8809 15.0195C12.8809 13.5059 12.002 12.6758 10.8887 12.5586L10.8887 12.5195C12.0312 12.2168 12.5781 11.2012 12.5781 10.127C12.5781 8.4375 11.3574 7.43164 9.74609 7.43164C8.45703 7.43164 7.41211 8.16406 7.05078 9.27734C6.98242 9.52148 6.96289 9.74609 6.96289 9.95117C6.96289 10.3125 7.19727 10.6055 7.63672 10.6055C8.02734 10.6055 8.23242 10.4492 8.33984 10.0586C8.52539 9.26758 8.96484 8.71094 9.74609 8.71094C10.6445 8.71094 11.084 9.41406 11.084 10.3125C11.084 11.2793 10.5273 12.002 9.53125 12.002L9.16992 12.002C8.78906 12.002 8.55469 12.2363 8.55469 12.5977C8.55469 12.959 8.80859 13.1836 9.16992 13.1836L9.55078 13.1836C10.6738 13.1836 11.3086 13.8086 11.3086 14.9805C11.3086 15.918 10.8203 16.7285 9.80469 16.7285C8.82812 16.7285 8.35938 16.0449 8.20312 15.4102C8.10547 15.0391 7.88086 14.8438 7.50977 14.8438C7.08008 14.8438 6.78711 15.1074 6.78711 15.5371C6.78711 15.752 6.82617 15.9961 6.89453 16.1914C7.25586 17.3438 8.45703 18.0273 9.79492 18.0273ZM17.0312 17.9492C17.4609 17.9492 17.832 17.5879 17.832 17.1387L17.832 8.36914C17.832 7.8125 17.4707 7.48047 16.9141 7.48047C16.4453 7.48047 16.0742 7.72461 15.8105 7.93945L14.3359 9.10156C14.1406 9.25781 13.9941 9.46289 13.9941 9.74609C13.9941 10.0977 14.2285 10.3418 14.5703 10.3418C14.7461 10.3418 14.8535 10.2832 14.9609 10.1953L16.2207 9.18945L16.2207 17.1387C16.2207 17.5879 16.582 17.9492 17.0312 17.9492Z" fill="black" fill-opacity="0.85"/>
 </g>
</svg>
