<?xml version="1.0" ?><!-- Generator: Adobe Illustrator 25.0.0, SVG Export Plug-In . SVG Version: 6.00 Build 0)  --><svg xmlns="http://www.w3.org/2000/svg" xmlns:xlink="http://www.w3.org/1999/xlink" version="1.1" id="Layer_1" x="0px" y="0px" viewBox="0 0 512 512" style="enable-background:new 0 0 512 512;" xml:space="preserve">
<path d="M256,512c140,0,256-116.2,256-256C512,116,395.8,0,255.7,0C116,0,0,116,0,256C0,395.8,116.2,512,256,512z M188.2,367.7  c-35.1,0-62.7-21.6-69.5-45.4c-0.8-3.3-1.3-6-1.3-9.5c0-9,6.3-15.6,15.1-15.6c7.3,0,11.5,4,14.8,12.3c6.8,18.1,20.8,28.1,41.2,28.1  c24.8,0,42.2-15.1,42.2-35.1c0-21.1-15.8-34.9-40.4-34.9h-15.1c-8.3,0-14.1-6.5-14.1-14.8c0-9.5,5.8-15.6,14.1-15.6H189  c20.8,0,35.1-13.6,35.1-32.4c0-18.1-14.1-30.4-34.9-30.4c-20.1,0-32.4,10-38.1,28.1c-2.5,8.3-6.8,12.3-14.6,12.3  c-8.8,0-14.8-6.5-14.8-15.8c0-3.3,0-6,0.8-9.3c6.8-25.3,32.6-45.4,67.8-45.4c38.7,0,66,23.1,66,56.2c0,24.3-16.8,45.9-38.4,49.4v1.5  c26.1,2.8,45.2,24.8,45.2,52.5C263,341.1,232.4,367.7,188.2,367.7z M368.4,364.4c-9.5,0-16.1-6.5-16.1-16.6V187.2h-1.5l-27.4,20.3  c-6.3,4.8-8.5,5-12.8,5c-7.5,0-14.8-6.8-14.8-15.6c0-6.8,3.3-11.5,8.5-15.3l39.4-26.9c9.3-6.3,14.3-8.8,22.8-8.8  c10.8,0,18.1,7.8,18.1,18.6v183.2C384.8,357.9,378.5,364.4,368.4,364.4z"/>
</svg>