<?xml version="1.0" encoding="UTF-8"?>
<!--Generator: Apple Native CoreSVG 326-->
<!DOCTYPE svg
PUBLIC "-//W3C//DTD SVG 1.1//EN"
       "http://www.w3.org/Graphics/SVG/1.1/DTD/svg11.dtd">
<svg version="1.1" xmlns="http://www.w3.org/2000/svg" xmlns:xlink="http://www.w3.org/1999/xlink" viewBox="0 0 25.8008 25.459">
 <g>
  <rect height="25.459" opacity="0" width="25.8008" x="0" y="0"/>
  <path d="M25.4395 12.7246C25.4395 19.7266 19.7266 25.4395 12.7148 25.4395C5.71289 25.4395 0 19.7266 0 12.7246C0 5.71289 5.71289 0 12.7148 0C19.7266 0 25.4395 5.71289 25.4395 12.7246ZM6.13281 9.18945C6.06445 9.44336 6.03516 9.67773 6.03516 9.88281C6.03516 10.2539 6.28906 10.5566 6.73828 10.5566C7.13867 10.5566 7.35352 10.3906 7.4707 10C7.65625 9.18945 8.10547 8.62305 8.89648 8.62305C9.81445 8.62305 10.2637 9.33594 10.2637 10.2539C10.2637 11.2402 9.6875 11.9824 8.68164 11.9824L8.31055 11.9824C7.91992 11.9824 7.67578 12.2266 7.67578 12.5977C7.67578 12.9688 7.93945 13.2031 8.31055 13.2031L8.70117 13.2031C9.84375 13.2031 10.498 13.8379 10.498 15.0391C10.498 15.9961 10 16.8164 8.96484 16.8164C7.95898 16.8164 7.49023 16.123 7.32422 15.4785C7.22656 15.0879 6.99219 14.8926 6.61133 14.8926C6.17188 14.8926 5.86914 15.166 5.86914 15.6055C5.86914 15.8301 5.9082 16.0742 5.97656 16.2793C6.33789 17.4609 7.57812 18.1543 8.95508 18.1543C10.752 18.1543 12.1191 17.002 12.1191 15.0781C12.1191 13.5254 11.2109 12.6758 10.0781 12.5586L10.0781 12.5195C11.25 12.207 11.8066 11.1621 11.8066 10.0684C11.8066 8.33008 10.5566 7.30469 8.89648 7.30469C7.57812 7.30469 6.50391 8.05664 6.13281 9.18945ZM13.5254 9.9707C13.5254 10.3809 13.7695 10.6934 14.209 10.6934C14.5801 10.6934 14.8145 10.5176 14.9316 10.1465C15.1562 9.19922 15.5176 8.58398 16.3281 8.58398C17.1973 8.58398 17.6465 9.375 17.6465 10.3027C17.6465 11.3281 17.0117 12.334 16.2891 13.2617L13.916 16.377C13.7109 16.6504 13.5059 16.9238 13.5059 17.2852C13.5059 17.666 13.7695 17.9492 14.2676 17.9492L18.7402 17.9492C19.1504 17.9492 19.3945 17.6758 19.3945 17.2754C19.3945 16.8457 19.1406 16.5918 18.7402 16.5918L15.5273 16.5918L15.5273 16.5039L17.5586 13.8672C18.7891 12.3047 19.1895 11.3574 19.1895 10.2344C19.1895 8.52539 18.0859 7.25586 16.3281 7.25586C14.7168 7.25586 13.5254 8.62305 13.5254 9.9707Z" fill="black" fill-opacity="0.85"/>
 </g>
</svg>
