<?xml version="1.0" ?><!-- Generator: Adobe Illustrator 25.0.0, SVG Export Plug-In . SVG Version: 6.00 Build 0)  --><svg xmlns="http://www.w3.org/2000/svg" xmlns:xlink="http://www.w3.org/1999/xlink" version="1.1" id="Layer_1" x="0px" y="0px" viewBox="0 0 512 512" style="enable-background:new 0 0 512 512;" xml:space="preserve">
<path d="M256,512c140,0,256-116.2,256-256C512,116,395.8,0,255.7,0C116,0,0,116,0,256C0,395.8,116.2,512,256,512z M169.4,367.7  c-35.1,0-62.5-21.6-69.5-45.4c-0.8-3.3-1.3-6-1.3-9.5c0-9,6.3-15.6,15.1-15.6c7.3,0,11.5,4,14.8,12.3c7,18.1,20.8,28.1,41.2,28.1  c24.8,0,42.2-15.1,42.2-35.1c0-21.1-15.8-34.9-40.2-34.9h-15.3c-8.5,0-14.3-6.5-14.3-14.8c0-9.5,6-15.6,14.3-15.6h14.1  c20.6,0,34.9-13.6,34.9-32.4c0-18.1-14.3-30.4-34.6-30.4c-20.3,0-32.6,10-38.4,28.1c-2.5,8.3-6.8,12.3-14.6,12.3  c-9,0-14.8-6.5-14.8-15.8c0-3.3,0-6,0.8-9.3c6.8-25.3,32.6-45.4,67.8-45.4c38.4,0,65.8,23.1,65.8,56.2c0,24.3-16.6,45.9-38.1,49.4  v1.5c26.1,2.8,45.4,24.8,45.4,52.5C244.5,341.1,213.6,367.7,169.4,367.7z M293.9,361.7c-9.3,0-15.1-6-15.1-15.3  c0-5.3,1.8-9.8,5.8-14.1l68-80.3c12.3-14.3,25.9-28.9,25.9-45.7c0-19.1-13.3-31.9-33.9-31.9c-18.6,0-31.9,9.3-38.4,28.9  c-3.3,7.8-7.3,12-14.8,12c-9,0-14.6-6.3-14.6-15.6c0-3,0.5-6,1.3-9.3c6.5-26.4,34.1-46.2,65-46.2c40.4,0,67,23.1,67,59.2  c0,25.9-14.3,44.4-33.4,66.8L326,329v2h75c8.3,0,14.3,5.3,14.3,15.1c0,9.3-6,15.6-14.3,15.6H293.9z"/>
</svg>