<?xml version="1.0" encoding="UTF-8"?>
<!--Generator: Apple Native CoreSVG 326-->
<!DOCTYPE svg
PUBLIC "-//W3C//DTD SVG 1.1//EN"
       "http://www.w3.org/Graphics/SVG/1.1/DTD/svg11.dtd">
<svg version="1.1" xmlns="http://www.w3.org/2000/svg" xmlns:xlink="http://www.w3.org/1999/xlink" viewBox="0 0 23.3203 22.959">
 <g>
  <rect height="22.959" opacity="0" width="23.3203" x="0" y="0"/>
  <path d="M22.959 3.76953L22.959 19.1992C22.959 21.6797 21.6797 22.959 19.1504 22.959L3.79883 22.959C1.2793 22.959 0 21.6992 0 19.1992L0 3.76953C0 1.26953 1.2793 0 3.79883 0L19.1504 0C21.6797 0 22.959 1.2793 22.959 3.76953ZM4.90234 7.93945C4.83398 8.19336 4.80469 8.42773 4.80469 8.63281C4.80469 9.00391 5.05859 9.30664 5.50781 9.30664C5.89844 9.30664 6.12305 9.14062 6.24023 8.75C6.42578 7.93945 6.875 7.37305 7.66602 7.37305C8.57422 7.37305 9.0332 8.08594 9.0332 9.00391C9.0332 9.99023 8.45703 10.7324 7.45117 10.7324L7.08008 10.7324C6.68945 10.7324 6.44531 10.9766 6.44531 11.3477C6.44531 11.7188 6.69922 11.9531 7.08008 11.9531L7.4707 11.9531C8.61328 11.9531 9.26758 12.5879 9.26758 13.7891C9.26758 14.7461 8.76953 15.5664 7.73438 15.5664C6.72852 15.5664 6.25 14.873 6.09375 14.2285C5.99609 13.8379 5.75195 13.6426 5.38086 13.6426C4.93164 13.6426 4.63867 13.916 4.63867 14.3555C4.63867 14.5801 4.67773 14.8242 4.74609 15.0293C5.10742 16.2109 6.34766 16.9043 7.72461 16.9043C9.51172 16.9043 10.8887 15.752 10.8887 13.8281C10.8887 12.2754 9.98047 11.4258 8.84766 11.3086L8.84766 11.2695C10.0195 10.957 10.5762 9.91211 10.5762 8.81836C10.5762 7.08008 9.32617 6.05469 7.66602 6.05469C6.34766 6.05469 5.27344 6.80664 4.90234 7.93945ZM12.2949 8.7207C12.2949 9.13086 12.5391 9.44336 12.9785 9.44336C13.3496 9.44336 13.584 9.26758 13.7012 8.89648C13.9258 7.94922 14.2871 7.33398 15.0879 7.33398C15.9668 7.33398 16.416 8.125 16.416 9.05273C16.416 10.0781 15.7812 11.084 15.0586 12.0117L12.6758 15.127C12.4707 15.4004 12.2754 15.6738 12.2754 16.0352C12.2754 16.416 12.5391 16.6992 13.0371 16.6992L17.5098 16.6992C17.9199 16.6992 18.1641 16.4258 18.1641 16.0254C18.1641 15.5957 17.9102 15.3418 17.5098 15.3418L14.2969 15.3418L14.2969 15.2539L16.3281 12.6172C17.5488 11.0547 17.959 10.1074 17.959 8.98438C17.959 7.27539 16.8457 6.00586 15.0977 6.00586C13.4766 6.00586 12.2949 7.37305 12.2949 8.7207Z" fill="black" fill-opacity="0.85"/>
 </g>
</svg>
