<?xml version="1.0" ?><!-- Generator: Adobe Illustrator 25.0.0, SVG Export Plug-In . SVG Version: 6.00 Build 0)  --><svg xmlns="http://www.w3.org/2000/svg" xmlns:xlink="http://www.w3.org/1999/xlink" version="1.1" id="Layer_1" x="0px" y="0px" viewBox="0 0 512 512" style="enable-background:new 0 0 512 512;" xml:space="preserve">
<path d="M87.3,512h337.3c58.4,0,87.3-28.9,87.3-86.2V86.2C512,28.9,483.1,0,424.7,0H87.3C29.2,0,0,28.6,0,86.2v339.6  C0,483.4,29.2,512,87.3,512z M160.5,379.3c-38.9,0-69.2-23.9-77-50.3c-0.8-3.6-1.4-6.7-1.4-10.6c0-10,7-17.2,16.7-17.2  c8.1,0,12.8,4.5,16.4,13.6c7.8,20,23.1,31.1,45.6,31.1c27.5,0,46.7-16.7,46.7-38.9c0-23.4-17.5-38.7-44.5-38.7h-17  c-9.5,0-15.6-7.2-15.6-16.4c0-10.6,6.4-17.2,15.6-17.2h15.6c22.8,0,38.7-15,38.7-35.9c0-20-15.9-33.7-38.4-33.7  c-22.5,0-36.2,11.1-42.6,31.1c-2.8,9.2-7.5,13.6-16.1,13.6c-10,0-16.4-7.2-16.4-17.5c0-3.6,0-6.7,0.8-10.3  c7.5-28.1,36.2-50.3,75.1-50.3c42.6,0,73.1,25.6,73.1,62.3c0,27-18.6,50.9-42.6,54.8v1.7c28.9,3.1,50.3,27.5,50.3,58.1  C243.6,349.9,209.4,379.3,160.5,379.3z M298.4,372.7c-10,0-16.7-6.7-16.7-17c0-5.8,1.9-10.8,6.4-15.6l75.4-89  c13.6-15.9,28.6-32,28.6-50.6c0-21.1-14.7-35.3-37.5-35.3c-20.6,0-35.3,10.3-42.6,32c-3.6,8.6-8.1,13.3-16.4,13.3  c-10,0-16.1-7-16.1-17.2c0-3.3,0.6-6.7,1.4-10.3c7.5-29.2,38.1-51.2,72-51.2c45.1,0,74.3,25.6,74.3,65.6c0,28.6-15.9,49.2-37,74  L334,336.5v2.2h83.2c9.2,0,16.1,5.8,16.1,16.7c0,10.3-7,17.2-16.1,17.2H298.4z"/>
</svg>