<?xml version="1.0" encoding="UTF-8"?>
<!--Generator: Apple Native CoreSVG 326-->
<!DOCTYPE svg
PUBLIC "-//W3C//DTD SVG 1.1//EN"
       "http://www.w3.org/Graphics/SVG/1.1/DTD/svg11.dtd">
<svg version="1.1" xmlns="http://www.w3.org/2000/svg" xmlns:xlink="http://www.w3.org/1999/xlink" viewBox="0 0 23.3203 22.959">
 <g>
  <rect height="22.959" opacity="0" width="23.3203" x="0" y="0"/>
  <path d="M3.79883 22.959L19.1504 22.959C21.6797 22.959 22.959 21.6797 22.959 19.1992L22.959 3.76953C22.959 1.2793 21.6797 0 19.1504 0L3.79883 0C1.2793 0 0 1.26953 0 3.76953L0 19.1992C0 21.6992 1.2793 22.959 3.79883 22.959ZM3.83789 21.2305C2.4707 21.2305 1.72852 20.5078 1.72852 19.1016L1.72852 3.85742C1.72852 2.46094 2.4707 1.72852 3.83789 1.72852L19.1211 1.72852C20.459 1.72852 21.2305 2.46094 21.2305 3.85742L21.2305 19.1016C21.2305 20.5078 20.459 21.2305 19.1211 21.2305Z" fill="black" fill-opacity="0.85"/>
  <path d="M7.8125 16.7773C9.56055 16.7773 10.8984 15.6445 10.8984 13.7695C10.8984 12.2559 10.0195 11.4258 8.90625 11.3086L8.90625 11.2695C10.0488 10.9668 10.5957 9.95117 10.5957 8.87695C10.5957 7.1875 9.375 6.18164 7.76367 6.18164C6.47461 6.18164 5.42969 6.91406 5.06836 8.02734C5 8.27148 4.9707 8.49609 4.9707 8.70117C4.9707 9.0625 5.21484 9.35547 5.6543 9.35547C6.04492 9.35547 6.25 9.19922 6.35742 8.80859C6.54297 8.01758 6.98242 7.46094 7.76367 7.46094C8.66211 7.46094 9.10156 8.16406 9.10156 9.0625C9.10156 10.0293 8.53516 10.752 7.54883 10.752L7.1875 10.752C6.80664 10.752 6.57227 10.9863 6.57227 11.3477C6.57227 11.709 6.82617 11.9336 7.1875 11.9336L7.56836 11.9336C8.69141 11.9336 9.32617 12.5586 9.32617 13.7305C9.32617 14.668 8.83789 15.4785 7.82227 15.4785C6.83594 15.4785 6.37695 14.7949 6.2207 14.1602C6.12305 13.7891 5.89844 13.5938 5.52734 13.5938C5.09766 13.5938 4.80469 13.8574 4.80469 14.2871C4.80469 14.502 4.84375 14.7461 4.91211 14.9414C5.26367 16.0938 6.47461 16.7773 7.8125 16.7773ZM12.998 16.5723L17.3633 16.5723C17.7539 16.5723 17.998 16.3086 17.998 15.918C17.998 15.5078 17.7441 15.2637 17.3633 15.2637L14.2188 15.2637L14.2188 15.1758L16.2012 12.5879C17.3926 11.0645 17.793 10.1367 17.793 9.04297C17.793 7.37305 16.709 6.13281 15.0098 6.13281C13.4277 6.13281 12.2754 7.4707 12.2754 8.78906C12.2754 9.18945 12.5098 9.48242 12.9395 9.48242C13.3008 9.48242 13.5254 9.31641 13.6328 8.95508C13.8477 8.02734 14.209 7.42188 15 7.42188C15.8594 7.42188 16.2988 8.20312 16.2988 9.11133C16.2988 10.1074 15.6836 11.084 14.9805 12.002L12.6465 15.0488C12.4414 15.3125 12.2559 15.5859 12.2559 15.918C12.2559 16.2988 12.5 16.5723 12.998 16.5723Z" fill="black" fill-opacity="0.85"/>
 </g>
</svg>
