<?xml version="1.0" ?><!-- Generator: Adobe Illustrator 25.0.0, SVG Export Plug-In . SVG Version: 6.00 Build 0)  --><svg xmlns="http://www.w3.org/2000/svg" xmlns:xlink="http://www.w3.org/1999/xlink" version="1.1" id="Layer_1" x="0px" y="0px" viewBox="0 0 512 512" style="enable-background:new 0 0 512 512;" xml:space="preserve">
<path d="M256,512c140,0,256-116.2,256-256C512,116,395.8,0,255.7,0C116,0,0,116,0,256C0,395.8,116.2,512,256,512z M256,469.3  c-118.5,0-213.1-94.9-213.1-213.3S137.3,42.7,255.7,42.7S469.1,137.5,469.3,256S374.5,469.3,256,469.3z M170.2,364.2  c42.4,0,72.3-25.6,72.3-61.7c0-26.6-18.6-48.2-43.9-50.4v-1.5c20.8-3.5,37.1-24.6,37.1-47.9c0-32.1-26.4-54.5-64-54.5  c-33.9,0-59,19.3-65.5,43.7c-0.8,3.3-0.8,5.8-0.8,9.3c0,9,5.8,15.3,14.3,15.3c7.5,0,11.5-4,14.1-12c5.5-17.8,17.6-27.4,37.1-27.4  c20.1,0,33.9,11.8,33.9,29.6c0,18.3-14.1,31.6-34.1,31.6h-13.6c-8,0-13.6,5.8-13.6,14.6c0,8.3,5.5,14.6,13.6,14.6h14.8  c23.8,0,39.2,13.3,39.2,33.6c0,19.6-16.8,34.4-40.7,34.4c-20.1,0-33.6-9.5-40.4-27.4c-3-8-7-11.8-14.3-11.8c-8.3,0-14.6,6-14.6,15.1  c0,3.5,0.5,5.8,1.5,9C109.2,343.3,135.8,364.2,170.2,364.2z M343.8,364.2c42.4,0,72.3-25.6,72.3-61.7c0-26.6-18.6-48.2-43.9-50.4  v-1.5c20.8-3.5,37.1-24.6,37.1-47.9c0-32.1-26.4-54.5-64-54.5c-33.9,0-59,19.3-65.5,43.7c-0.8,3.3-0.8,5.8-0.8,9.3  c0,9,5.8,15.3,14.3,15.3c7.5,0,11.5-4,14.1-12c5.5-17.8,17.6-27.4,37.1-27.4c20.1,0,33.9,11.8,33.9,29.6c0,18.3-14.1,31.6-34.1,31.6  h-13.6c-8,0-13.6,5.8-13.6,14.6c0,8.3,5.5,14.6,13.6,14.6h14.8c23.8,0,39.2,13.3,39.2,33.6c0,19.6-16.6,34.4-40.7,34.4  c-20.1,0-33.6-9.5-40.4-27.4c-3-8-7-11.8-14.3-11.8c-8.3,0-14.6,6-14.6,15.1c0,3.5,0.5,5.8,1.5,9  C282.9,343.3,309.5,364.2,343.8,364.2z"/>
</svg>