<?xml version="1.0" encoding="UTF-8"?>
<!--Generator: Apple Native CoreSVG 326-->
<!DOCTYPE svg
PUBLIC "-//W3C//DTD SVG 1.1//EN"
       "http://www.w3.org/Graphics/SVG/1.1/DTD/svg11.dtd">
<svg version="1.1" xmlns="http://www.w3.org/2000/svg" xmlns:xlink="http://www.w3.org/1999/xlink" viewBox="0 0 23.3203 22.959">
 <g>
  <rect height="22.959" opacity="0" width="23.3203" x="0" y="0"/>
  <path d="M22.959 3.76953L22.959 19.1992C22.959 21.6797 21.6797 22.959 19.1504 22.959L3.79883 22.959C1.2793 22.959 0 21.6992 0 19.1992L0 3.76953C0 1.26953 1.2793 0 3.79883 0L19.1504 0C21.6797 0 22.959 1.2793 22.959 3.76953ZM4.85352 7.93945C4.77539 8.19336 4.75586 8.41797 4.75586 8.63281C4.75586 9.00391 4.99023 9.30664 5.44922 9.30664C5.84961 9.30664 6.06445 9.14062 6.17188 8.75C6.37695 7.93945 6.80664 7.37305 7.61719 7.37305C8.52539 7.37305 8.97461 8.08594 8.97461 9.00391C8.97461 9.99023 8.4082 10.7324 7.38281 10.7324L7.02148 10.7324C6.63086 10.7324 6.39648 10.9766 6.39648 11.3477C6.39648 11.7188 6.65039 11.9531 7.02148 11.9531L7.40234 11.9531C8.56445 11.9531 9.20898 12.5879 9.20898 13.7793C9.20898 14.7363 8.70117 15.5664 7.66602 15.5664C6.66992 15.5664 6.19141 14.873 6.04492 14.2285C5.92773 13.8379 5.70312 13.6426 5.32227 13.6426C4.87305 13.6426 4.58008 13.916 4.58008 14.3555C4.58008 14.5801 4.61914 14.8242 4.67773 15.0293C5.04883 16.2109 6.28906 16.9043 7.66602 16.9043C9.46289 16.9043 10.8301 15.7422 10.8301 13.8281C10.8301 12.2754 9.93164 11.4258 8.7793 11.3086L8.7793 11.2695C9.95117 10.957 10.5273 9.91211 10.5273 8.81836C10.5273 7.08008 9.25781 6.05469 7.61719 6.05469C6.29883 6.05469 5.21484 6.80664 4.85352 7.93945ZM12.5098 7.93945C12.4414 8.19336 12.4121 8.41797 12.4121 8.63281C12.4121 9.00391 12.666 9.30664 13.1152 9.30664C13.5156 9.30664 13.7305 9.14062 13.8477 8.75C14.0332 7.93945 14.4824 7.37305 15.2734 7.37305C16.1816 7.37305 16.6406 8.08594 16.6406 9.00391C16.6406 9.99023 16.0645 10.7324 15.0586 10.7324L14.6875 10.7324C14.2969 10.7324 14.0527 10.9766 14.0527 11.3477C14.0527 11.7188 14.3066 11.9531 14.6875 11.9531L15.0781 11.9531C16.2207 11.9531 16.875 12.5879 16.875 13.7793C16.875 14.7363 16.377 15.5664 15.3418 15.5664C14.3359 15.5664 13.8574 14.873 13.7012 14.2285C13.6035 13.8379 13.3594 13.6426 12.9883 13.6426C12.5391 13.6426 12.2461 13.916 12.2461 14.3555C12.2461 14.5801 12.2852 14.8242 12.3535 15.0293C12.7148 16.2109 13.9551 16.9043 15.332 16.9043C17.1191 16.9043 18.4961 15.7422 18.4961 13.8281C18.4961 12.2754 17.5879 11.4258 16.4551 11.3086L16.4551 11.2695C17.627 10.957 18.1836 9.91211 18.1836 8.81836C18.1836 7.08008 16.9336 6.05469 15.2734 6.05469C13.9551 6.05469 12.8809 6.80664 12.5098 7.93945Z" fill="black" fill-opacity="0.85"/>
 </g>
</svg>
