<?xml version="1.0" ?><!-- Generator: Adobe Illustrator 25.0.0, SVG Export Plug-In . SVG Version: 6.00 Build 0)  --><svg xmlns="http://www.w3.org/2000/svg" xmlns:xlink="http://www.w3.org/1999/xlink" version="1.1" id="Layer_1" x="0px" y="0px" viewBox="0 0 512 512" style="enable-background:new 0 0 512 512;" xml:space="preserve">
<path d="M256,512c140,0,256-116.2,256-256C512,116,395.8,0,255.7,0C116,0,0,116,0,256C0,395.8,116.2,512,256,512z M166.9,367.7  c-35.4,0-63-21.6-69.8-45.4c-1-3.3-1.3-6-1.3-9.5c0-9,6.3-15.6,15.1-15.6c7.3,0,11.8,4,14.8,12.3c6.8,18.1,20.8,28.1,41.4,28.1  c24.6,0,41.7-15.1,41.7-35.1c0-21.1-15.3-34.9-40.2-34.9h-15.1c-8.5,0-14.3-6.5-14.3-14.8c0-9.5,5.8-15.6,14.3-15.6h14.1  c20.3,0,34.9-13.6,34.9-32.4c0-18.1-14.3-30.4-34.6-30.4c-20.1,0-32.9,10-38.4,28.1c-2.8,8.3-6.5,12.3-14.6,12.3  c-9,0-15.1-6.5-15.1-15.8c0-3.3,0.3-6,1-9.3c6.5-25.3,32.6-45.4,67.8-45.4c38.7,0,65.8,23.1,65.8,56.2c0,24.3-16.8,45.9-37.9,49.4  v1.5c26.1,2.8,44.9,24.8,44.9,52.5C241.4,341.1,210.8,367.7,166.9,367.7z M380.2,367.2c-10.3,0-15.8-7.5-15.8-17.6v-30.4h-75.3  c-13.1,0-22.1-8.3-22.1-22.1c0-7,1.5-12.8,5.8-20.8c17.3-31.4,43.2-75.5,65-111.9c8.3-14.3,17.6-20.1,32.6-20.1  c15.1,0,25.6,9.8,25.6,24.8v121h14.1c8.8,0,14.6,5.5,14.6,14.8c0,9-5.8,14.3-14.6,14.3H396v30.4C396,359.9,390.5,367.2,380.2,367.2z   M364.4,290.1V179.5h-1.3c-20.6,35.1-47.2,80.3-62.5,109.7v1H364.4z"/>
</svg>