<?xml version="1.0" encoding="UTF-8"?>
<!--Generator: Apple Native CoreSVG 326-->
<!DOCTYPE svg
PUBLIC "-//W3C//DTD SVG 1.1//EN"
       "http://www.w3.org/Graphics/SVG/1.1/DTD/svg11.dtd">
<svg version="1.1" xmlns="http://www.w3.org/2000/svg" xmlns:xlink="http://www.w3.org/1999/xlink" viewBox="0 0 25.8008 25.459">
 <g>
  <rect height="25.459" opacity="0" width="25.8008" x="0" y="0"/>
  <path d="M25.4395 12.7246C25.4395 19.7266 19.7266 25.4395 12.7148 25.4395C5.71289 25.4395 0 19.7266 0 12.7246C0 5.71289 5.71289 0 12.7148 0C19.7266 0 25.4395 5.71289 25.4395 12.7246ZM5.80078 9.18945C5.73242 9.44336 5.70312 9.66797 5.70312 9.88281C5.70312 10.2539 5.95703 10.5566 6.40625 10.5566C6.80664 10.5566 7.02148 10.3906 7.13867 10C7.32422 9.18945 7.77344 8.62305 8.57422 8.62305C9.48242 8.62305 9.93164 9.33594 9.93164 10.2539C9.93164 11.2402 9.35547 11.9824 8.34961 11.9824L7.97852 11.9824C7.58789 11.9824 7.34375 12.2266 7.34375 12.5977C7.34375 12.9688 7.60742 13.2031 7.97852 13.2031L8.36914 13.2031C9.51172 13.2031 10.166 13.8379 10.166 15.0293C10.166 15.9863 9.66797 16.8164 8.63281 16.8164C7.63672 16.8164 7.1582 16.123 6.99219 15.4785C6.89453 15.0879 6.66016 14.8926 6.2793 14.8926C5.83984 14.8926 5.53711 15.166 5.53711 15.6055C5.53711 15.8301 5.57617 16.0742 5.64453 16.2793C6.00586 17.4609 7.24609 18.1543 8.62305 18.1543C10.4199 18.1543 11.7871 16.9922 11.7871 15.0781C11.7871 13.5254 10.8789 12.6758 9.74609 12.5586L9.74609 12.5195C10.918 12.207 11.4746 11.1621 11.4746 10.0684C11.4746 8.33008 10.2246 7.30469 8.57422 7.30469C7.24609 7.30469 6.17188 8.05664 5.80078 9.18945ZM15.8984 8.4668L13.3984 13.7695C13.2031 14.209 13.1348 14.502 13.1348 14.8633C13.1348 15.4199 13.5156 15.8008 14.0918 15.8008L17.0996 15.8008L17.0996 17.2754C17.0996 17.8711 17.5098 18.1055 17.8809 18.1055C18.3008 18.1055 18.6621 17.8223 18.6621 17.2754L18.6621 15.8008L19.1992 15.8008C19.6484 15.8008 19.8535 15.5176 19.8535 15.127C19.8535 14.7559 19.6484 14.4727 19.1992 14.4727L18.6621 14.4727L18.6621 8.57422C18.6621 7.75391 18.125 7.34375 17.3926 7.34375C16.6016 7.34375 16.2305 7.75391 15.8984 8.4668ZM17.1289 14.502L14.541 14.502L14.541 14.4336L17.0801 8.82812L17.1289 8.82812Z" fill="black" fill-opacity="0.85"/>
 </g>
</svg>
