<?xml version="1.0" ?><!-- Generator: Adobe Illustrator 25.0.0, SVG Export Plug-In . SVG Version: 6.00 Build 0)  --><svg xmlns="http://www.w3.org/2000/svg" xmlns:xlink="http://www.w3.org/1999/xlink" version="1.1" id="Layer_1" x="0px" y="0px" viewBox="0 0 512 512" style="enable-background:new 0 0 512 512;" xml:space="preserve">
<path d="M256,512c140,0,256-116.2,256-256C512,116,395.8,0,255.7,0C116,0,0,116,0,256C0,395.8,116.2,512,256,512z M256,469.3  c-118.5,0-213.1-94.9-213.1-213.3S137.3,42.7,255.7,42.7S469.1,137.5,469.3,256S374.5,469.3,256,469.3z M169.7,364.2  c42.7,0,72.3-25.6,72.3-61.7c0-26.6-18.3-48.2-43.7-50.4v-1.5c20.6-3.5,36.9-24.6,36.9-47.9c0-32.1-26.4-54.5-63.7-54.5  c-34.1,0-59.2,19.3-65.8,43.7c-0.5,3.3-0.8,5.8-0.8,9.3c0,9,5.8,15.3,14.3,15.3c7.8,0,11.5-4,14.1-12c5.5-17.8,17.8-27.4,37.4-27.4  c19.8,0,33.6,11.8,33.6,29.6c0,18.3-14.1,31.6-33.9,31.6h-13.6c-8.3,0-13.8,5.8-13.8,14.6c0,8.3,5.5,14.6,13.8,14.6h14.6  c24.1,0,39.2,13.3,39.2,33.6c0,19.6-16.6,34.4-40.7,34.4c-19.8,0-33.6-9.5-40.2-27.4c-3-8-7.3-11.8-14.3-11.8  c-8.5,0-14.6,6-14.6,15.1c0,3.5,0.3,5.8,1.3,9C108.7,343.3,135.5,364.2,169.7,364.2z M376.5,363.9c10,0,15.3-7,15.3-17.1v-29.4h13.8  c8.5,0,14.1-5.3,14.1-14.1c0-9-5.5-14.1-14.1-14.1h-13.8V171.7c0-14.3-10-23.6-24.6-23.6c-14.6,0-23.6,5.3-31.6,19.1  c-21.1,35.4-46.4,78.6-63.2,108.9c-4,7.5-5.5,13.1-5.5,19.8c0,13.6,8.8,21.6,21.3,21.6h73.3v29.4  C361.4,356.6,366.7,363.9,376.5,363.9z M361.4,289.4h-62v-1.3c14.8-28.1,40.7-72.3,60.7-106.2h1.3V289.4z"/>
</svg>