<?xml version="1.0" encoding="UTF-8"?>
<!--Generator: Apple Native CoreSVG 326-->
<!DOCTYPE svg
PUBLIC "-//W3C//DTD SVG 1.1//EN"
       "http://www.w3.org/Graphics/SVG/1.1/DTD/svg11.dtd">
<svg version="1.1" xmlns="http://www.w3.org/2000/svg" xmlns:xlink="http://www.w3.org/1999/xlink" viewBox="0 0 23.3203 22.959">
 <g>
  <rect height="22.959" opacity="0" width="23.3203" x="0" y="0"/>
  <path d="M3.79883 22.959L19.1504 22.959C21.6797 22.959 22.959 21.6797 22.959 19.1992L22.959 3.76953C22.959 1.2793 21.6797 0 19.1504 0L3.79883 0C1.2793 0 0 1.26953 0 3.76953L0 19.1992C0 21.6992 1.2793 22.959 3.79883 22.959ZM3.83789 21.2305C2.4707 21.2305 1.72852 20.5078 1.72852 19.1016L1.72852 3.85742C1.72852 2.46094 2.4707 1.72852 3.83789 1.72852L19.1211 1.72852C20.459 1.72852 21.2305 2.46094 21.2305 3.85742L21.2305 19.1016C21.2305 20.5078 20.459 21.2305 19.1211 21.2305Z" fill="black" fill-opacity="0.85"/>
  <path d="M7.49023 16.7773C9.24805 16.7773 10.5762 15.6445 10.5762 13.7695C10.5762 12.2559 9.69727 11.4258 8.58398 11.3086L8.58398 11.2695C9.72656 10.9668 10.2734 9.95117 10.2734 8.87695C10.2734 7.1875 9.05273 6.18164 7.44141 6.18164C6.15234 6.18164 5.10742 6.91406 4.74609 8.02734C4.67773 8.27148 4.64844 8.49609 4.64844 8.70117C4.64844 9.0625 4.89258 9.35547 5.33203 9.35547C5.72266 9.35547 5.92773 9.19922 6.03516 8.80859C6.2207 8.01758 6.66016 7.46094 7.44141 7.46094C8.33984 7.46094 8.7793 8.16406 8.7793 9.0625C8.7793 10.0293 8.21289 10.752 7.22656 10.752L6.86523 10.752C6.48438 10.752 6.25 10.9863 6.25 11.3477C6.25 11.709 6.50391 11.9336 6.86523 11.9336L7.24609 11.9336C8.36914 11.9336 9.00391 12.5586 9.00391 13.7305C9.00391 14.668 8.51562 15.4785 7.5 15.4785C6.52344 15.4785 6.05469 14.7949 5.89844 14.1602C5.80078 13.7891 5.57617 13.5938 5.20508 13.5938C4.77539 13.5938 4.48242 13.8574 4.48242 14.2871C4.48242 14.502 4.52148 14.7461 4.58984 14.9414C4.94141 16.0938 6.15234 16.7773 7.49023 16.7773ZM16.5234 16.7188C16.9336 16.7188 17.2754 16.4453 17.2754 15.9277L17.2754 14.4727L17.8125 14.4727C18.2324 14.4727 18.4375 14.1992 18.4375 13.8184C18.4375 13.457 18.2422 13.1836 17.8125 13.1836L17.2754 13.1836L17.2754 7.41211C17.2754 6.63086 16.7578 6.2207 16.0547 6.2207C15.2832 6.2207 14.9121 6.62109 14.5996 7.31445L12.1484 12.5C11.9629 12.9297 11.8945 13.2129 11.8945 13.5645C11.8945 14.1016 12.2656 14.4727 12.8223 14.4727L15.7617 14.4727L15.7617 15.9277C15.7617 16.5039 16.1621 16.7188 16.5234 16.7188ZM15.791 13.2129L13.2617 13.2129L13.2617 13.1445L15.7422 7.66602L15.791 7.66602Z" fill="black" fill-opacity="0.85"/>
 </g>
</svg>
