<?xml version="1.0" ?><!-- Generator: Adobe Illustrator 25.0.0, SVG Export Plug-In . SVG Version: 6.00 Build 0)  --><svg xmlns="http://www.w3.org/2000/svg" xmlns:xlink="http://www.w3.org/1999/xlink" version="1.1" id="Layer_1" x="0px" y="0px" viewBox="0 0 512 512" style="enable-background:new 0 0 512 512;" xml:space="preserve">
<path d="M87.3,512h337.3c58.4,0,87.3-28.9,87.3-86.2V86.2C512,28.9,483.1,0,424.7,0H87.3C29.2,0,0,28.6,0,86.2v339.6  C0,483.4,29.2,512,87.3,512z M157.7,379.3c-39.2,0-69.8-23.9-77.3-50.3c-0.8-3.6-1.4-6.7-1.4-10.6c0-10,7-17.2,16.7-17.2  c8.1,0,13.1,4.5,16.4,13.6c7.8,20,23.1,31.1,45.9,31.1c27.3,0,46.4-16.7,46.4-38.9c0-23.4-17.2-38.7-44.5-38.7h-17  c-9.5,0-15.9-7.2-15.9-16.4c0-10.6,6.4-17.2,15.9-17.2h15.6c22.8,0,38.7-15,38.7-35.9c0-20-15.9-33.7-38.4-33.7  c-22.2,0-36.4,11.1-42.6,31.1c-2.8,9.2-7.2,13.6-15.9,13.6c-10.3,0-16.7-7.2-16.7-17.5c0-3.6,0-6.7,0.8-10.3  c7.2-28.1,36.2-50.3,75.1-50.3c42.8,0,72.9,25.6,72.9,62.3c0,27-18.6,50.9-42,54.8v1.7c28.9,3.1,49.8,27.5,49.8,58.1  C240.3,349.9,206.4,379.3,157.7,379.3z M394.1,378.8c-11.4,0-17.5-8.3-17.5-19.5v-33.7h-83.2c-14.7,0-24.8-9.2-24.8-24.5  c0-7.8,1.7-14.2,6.4-23.1c19.2-34.8,47.8-83.7,72-124c9.2-15.9,19.5-22.2,36.2-22.2c16.7,0,28.4,10.8,28.4,27.5v134h15.6  c9.7,0,16.1,6.1,16.1,16.4c0,10-6.4,15.9-16.1,15.9h-15.6v33.7C411.6,370.7,405.8,378.8,394.1,378.8z M376.6,293.4V170.8h-1.4  c-22.8,38.9-52.3,89-69,121.5v1.1H376.6z"/>
</svg>