<?xml version="1.0" encoding="UTF-8"?>
<!--Generator: Apple Native CoreSVG 326-->
<!DOCTYPE svg
PUBLIC "-//W3C//DTD SVG 1.1//EN"
       "http://www.w3.org/Graphics/SVG/1.1/DTD/svg11.dtd">
<svg version="1.1" xmlns="http://www.w3.org/2000/svg" xmlns:xlink="http://www.w3.org/1999/xlink" viewBox="0 0 23.3203 22.959">
 <g>
  <rect height="22.959" opacity="0" width="23.3203" x="0" y="0"/>
  <path d="M22.959 3.76953L22.959 19.1992C22.959 21.6797 21.6797 22.959 19.1504 22.959L3.79883 22.959C1.2793 22.959 0 21.6992 0 19.1992L0 3.76953C0 1.26953 1.2793 0 3.79883 0L19.1504 0C21.6797 0 22.959 1.2793 22.959 3.76953ZM13.7402 6.25C13.125 6.25 12.8516 6.65039 12.8125 7.25586L12.5879 10.9375C12.5684 11.1426 12.5586 11.3477 12.5586 11.5137C12.5586 11.9531 12.7832 12.334 13.3105 12.334C13.6426 12.334 13.8281 12.1875 14.0625 11.8652C14.3652 11.3867 14.7461 11.0547 15.3027 11.0547C16.3281 11.0547 16.7383 12.2754 16.7383 13.291C16.7383 14.4434 16.3086 15.6055 15.2832 15.6055C14.4922 15.6055 14.0234 15.0098 13.8086 14.248C13.6719 13.8477 13.418 13.6816 13.1152 13.6816C12.6855 13.6816 12.4219 13.9551 12.4219 14.375C12.4219 14.6289 12.5 14.9023 12.5879 15.127C13.0078 16.2109 14.1016 16.9434 15.3027 16.9434C17.2656 16.9434 18.3301 15.2441 18.3301 13.252C18.3301 11.4844 17.4805 9.83398 15.8203 9.83398C15.0684 9.83398 14.3457 10.1855 13.9941 10.9668L13.9453 10.9668L14.1797 7.61719L17.2754 7.61719C17.666 7.61719 17.9199 7.33398 17.9199 6.92383C17.9199 6.54297 17.6562 6.25 17.2754 6.25ZM4.81445 7.93945C4.74609 8.19336 4.7168 8.41797 4.7168 8.63281C4.7168 9.00391 4.96094 9.30664 5.41992 9.30664C5.82031 9.30664 6.03516 9.14062 6.14258 8.75C6.33789 7.93945 6.78711 7.37305 7.57812 7.37305C8.49609 7.37305 8.94531 8.08594 8.94531 9.00391C8.94531 9.99023 8.37891 10.7324 7.36328 10.7324L6.99219 10.7324C6.60156 10.7324 6.35742 10.9766 6.35742 11.3477C6.35742 11.7188 6.62109 11.9531 6.99219 11.9531L7.38281 11.9531C8.52539 11.9531 9.16992 12.5879 9.16992 13.7793C9.16992 14.7363 8.67188 15.5664 7.63672 15.5664C6.64062 15.5664 6.16211 14.873 6.00586 14.2188C5.9082 13.8379 5.67383 13.6426 5.29297 13.6426C4.84375 13.6426 4.54102 13.916 4.54102 14.3555C4.54102 14.5801 4.58008 14.8242 4.6582 15.0293C5.00977 16.2109 6.25977 16.9043 7.62695 16.9043C9.43359 16.9043 10.8008 15.7422 10.8008 13.8281C10.8008 12.2754 9.89258 11.4258 8.75977 11.3086L8.75977 11.2598C9.92188 10.957 10.498 9.91211 10.498 8.81836C10.498 7.08008 9.22852 6.05469 7.57812 6.05469C6.25977 6.05469 5.18555 6.80664 4.81445 7.93945Z" fill="black" fill-opacity="0.85"/>
 </g>
</svg>
