<?xml version="1.0" encoding="UTF-8"?>
<!--Generator: Apple Native CoreSVG 326-->
<!DOCTYPE svg
PUBLIC "-//W3C//DTD SVG 1.1//EN"
       "http://www.w3.org/Graphics/SVG/1.1/DTD/svg11.dtd">
<svg version="1.1" xmlns="http://www.w3.org/2000/svg" xmlns:xlink="http://www.w3.org/1999/xlink" viewBox="0 0 23.3203 22.959">
 <g>
  <rect height="22.959" opacity="0" width="23.3203" x="0" y="0"/>
  <path d="M3.79883 22.959L19.1504 22.959C21.6797 22.959 22.959 21.6797 22.959 19.1992L22.959 3.76953C22.959 1.2793 21.6797 0 19.1504 0L3.79883 0C1.2793 0 0 1.26953 0 3.76953L0 19.1992C0 21.6992 1.2793 22.959 3.79883 22.959ZM3.83789 21.2305C2.4707 21.2305 1.72852 20.5078 1.72852 19.1016L1.72852 3.85742C1.72852 2.46094 2.4707 1.72852 3.83789 1.72852L19.1211 1.72852C20.459 1.72852 21.2305 2.46094 21.2305 3.85742L21.2305 19.1016C21.2305 20.5078 20.459 21.2305 19.1211 21.2305Z" fill="black" fill-opacity="0.85"/>
  <path d="M7.72461 16.7773C9.48242 16.7773 10.8105 15.6445 10.8105 13.7695C10.8105 12.2559 9.93164 11.4258 8.81836 11.3086L8.81836 11.2695C9.96094 10.9668 10.5176 9.95117 10.5176 8.87695C10.5176 7.1875 9.28711 6.18164 7.67578 6.18164C6.39648 6.18164 5.3418 6.91406 4.99023 8.02734C4.91211 8.27148 4.89258 8.49609 4.89258 8.70117C4.89258 9.0625 5.12695 9.35547 5.56641 9.35547C5.95703 9.35547 6.16211 9.19922 6.26953 8.80859C6.46484 8.01758 6.89453 7.46094 7.67578 7.46094C8.57422 7.46094 9.01367 8.16406 9.01367 9.0625C9.01367 10.0293 8.45703 10.752 7.46094 10.752L7.09961 10.752C6.71875 10.752 6.49414 10.9863 6.49414 11.3477C6.49414 11.709 6.73828 11.9336 7.09961 11.9336L7.48047 11.9336C8.60352 11.9336 9.24805 12.5586 9.24805 13.7305C9.24805 14.668 8.75 15.4785 7.73438 15.4785C6.75781 15.4785 6.28906 14.7949 6.14258 14.1602C6.03516 13.7891 5.81055 13.5938 5.43945 13.5938C5.00977 13.5938 4.72656 13.8574 4.72656 14.2871C4.72656 14.502 4.75586 14.7461 4.82422 14.9414C5.18555 16.0938 6.38672 16.7773 7.72461 16.7773ZM15.1953 16.8164C17.1191 16.8164 18.1543 15.1562 18.1543 13.2129C18.1543 11.4844 17.3242 9.87305 15.7031 9.87305C14.9707 9.87305 14.2676 10.2148 13.9258 10.9863L13.877 10.9863L14.1016 7.69531L17.1289 7.69531C17.5098 7.69531 17.7539 7.42188 17.7539 7.04102C17.7539 6.66992 17.5 6.38672 17.1289 6.38672L13.6816 6.38672C13.0859 6.38672 12.8223 6.76758 12.7832 7.35352L12.5586 10.957C12.5391 11.1523 12.5293 11.3574 12.5293 11.5137C12.5293 11.9434 12.7539 12.3145 13.2617 12.3145C13.584 12.3145 13.7598 12.168 13.9941 11.8555C14.2871 11.3867 14.6484 11.0547 15.2051 11.0547C16.2109 11.0547 16.6113 12.2559 16.6113 13.252C16.6113 14.375 16.1914 15.5176 15.1758 15.5176C14.4141 15.5176 13.9551 14.9316 13.7402 14.1797C13.6035 13.7988 13.3594 13.6328 13.0664 13.6328C12.6562 13.6328 12.4023 13.8965 12.4023 14.3066C12.4023 14.5508 12.4707 14.8145 12.5586 15.0391C12.9688 16.0938 14.0332 16.8164 15.1953 16.8164Z" fill="black" fill-opacity="0.85"/>
 </g>
</svg>
