<?xml version="1.0" ?><!-- Generator: Adobe Illustrator 25.0.0, SVG Export Plug-In . SVG Version: 6.00 Build 0)  --><svg xmlns="http://www.w3.org/2000/svg" xmlns:xlink="http://www.w3.org/1999/xlink" version="1.1" id="Layer_1" x="0px" y="0px" viewBox="0 0 512 512" style="enable-background:new 0 0 512 512;" xml:space="preserve">
<path d="M256,512c140,0,256-116.2,256-256C512,116,395.8,0,255.7,0C116,0,0,116,0,256C0,395.8,116.2,512,256,512z M165.6,367.7  c-35.1,0-63-21.6-69.8-45.4c-1-3.3-1.3-6-1.3-9.5c0-9.3,6.3-15.6,15.1-15.6c7.3,0,11.8,4,14.8,12.3c6.8,18.1,21.1,28.1,41.4,28.1  c24.8,0,41.9-15.1,41.9-35.1c0-21.1-15.6-34.9-40.4-34.9h-14.8c-8.8,0-14.3-6.5-14.3-14.8c0-9.5,5.5-15.6,14.3-15.6h13.8  c20.3,0,34.9-13.6,34.9-32.4c0-18.1-14.3-30.4-34.6-30.4c-20.1,0-32.6,10-38.4,28.1c-2.5,8.3-6.8,12.3-14.6,12.3  c-8.8,0-14.8-6.5-14.8-15.8c0-3.3,0.3-6,0.8-9.3c6.8-25.3,32.6-45.4,67.8-45.4c38.7,0,65.8,23.1,65.8,56.2  c0,24.3-16.8,45.9-37.9,49.4v1.5c26.1,2.8,44.9,24.8,44.9,52.5C240.2,341.1,209.6,367.7,165.6,367.7z M346.9,367.9  c-26.4,0-48.7-10-62-35.1c-8.8-16.1-13.8-39.2-13.8-70.8c0-78.8,30.6-117.7,80.8-117.7c29.4,0,49.9,15.3,56.7,32.6  c1.5,3.5,2,6.5,2,10c0,8.5-5.8,14.3-12.8,14.3c-7.3,0-11.3-3.3-15.6-9.8c-6.5-10-17.1-17.1-31.9-17.1c-29.1,0-48.7,30.6-48.7,79.3  v2.5h1.8c6.3-17.1,23.8-32.6,51.2-32.6c33.6,0,64.3,24.6,64.3,69C418.9,340.1,388.8,367.9,346.9,367.9z M345.3,339.3  c24.8,0,40.7-17.6,40.7-45.2c0-25.9-16.6-43.7-40.7-43.7c-24.3,0-40.9,18.1-40.9,43.4C304.4,320.5,321.3,339.3,345.3,339.3z"/>
</svg>