<?xml version="1.0" encoding="UTF-8"?>
<!--Generator: Apple Native CoreSVG 326-->
<!DOCTYPE svg
PUBLIC "-//W3C//DTD SVG 1.1//EN"
       "http://www.w3.org/Graphics/SVG/1.1/DTD/svg11.dtd">
<svg version="1.1" xmlns="http://www.w3.org/2000/svg" xmlns:xlink="http://www.w3.org/1999/xlink" viewBox="0 0 25.8008 25.459">
 <g>
  <rect height="25.459" opacity="0" width="25.8008" x="0" y="0"/>
  <path d="M12.7148 25.4395C19.7363 25.4395 25.4395 19.7461 25.4395 12.7246C25.4395 5.70312 19.7363 0 12.7148 0C5.69336 0 0 5.70312 0 12.7246C0 19.7461 5.69336 25.4395 12.7148 25.4395ZM12.7148 23.623C6.68945 23.623 1.81641 18.75 1.81641 12.7246C1.81641 6.69922 6.68945 1.82617 12.7148 1.82617C18.7402 1.82617 23.6133 6.69922 23.6133 12.7246C23.6133 18.75 18.7402 23.623 12.7148 23.623Z" fill="black" fill-opacity="0.85"/>
  <path d="M8.81836 18.0273C10.5664 18.0273 11.9043 16.8945 11.9043 15.0195C11.9043 13.5059 11.0254 12.6758 9.91211 12.5586L9.91211 12.5195C11.0547 12.2168 11.6016 11.2012 11.6016 10.127C11.6016 8.4375 10.3809 7.43164 8.76953 7.43164C7.48047 7.43164 6.43555 8.16406 6.07422 9.27734C6.00586 9.52148 5.97656 9.74609 5.97656 9.95117C5.97656 10.3125 6.2207 10.6055 6.66016 10.6055C7.05078 10.6055 7.25586 10.4492 7.36328 10.0586C7.54883 9.26758 7.98828 8.71094 8.76953 8.71094C9.6582 8.71094 10.1074 9.41406 10.1074 10.3125C10.1074 11.2793 9.54102 12.002 8.55469 12.002L8.19336 12.002C7.8125 12.002 7.57812 12.2363 7.57812 12.5977C7.57812 12.959 7.83203 13.1836 8.19336 13.1836L8.57422 13.1836C9.69727 13.1836 10.332 13.8086 10.332 14.9805C10.332 15.918 9.84375 16.7285 8.82812 16.7285C7.8418 16.7285 7.37305 16.0449 7.22656 15.4102C7.12891 15.0391 6.89453 14.8438 6.5332 14.8438C6.10352 14.8438 5.81055 15.1074 5.81055 15.5371C5.81055 15.752 5.84961 15.9961 5.91797 16.1914C6.26953 17.3438 7.48047 18.0273 8.81836 18.0273ZM16.5039 18.0664C18.3887 18.0664 19.4434 16.4453 19.4434 14.4922C19.4434 12.793 18.623 11.1621 16.9531 11.1621C15.8887 11.1621 15.1172 11.9043 14.8438 13.0078L14.7949 13.0078C14.7949 12.959 14.7949 12.9004 14.7949 12.8516C14.7949 11.377 14.9902 8.70117 16.4941 8.70117C17.1387 8.70117 17.5488 9.16992 17.7734 9.77539C17.9297 10.1172 18.1348 10.3027 18.5059 10.3027C18.9453 10.3027 19.1406 10.0098 19.1406 9.63867C19.1406 9.50195 19.1211 9.3457 19.0723 9.17969C18.7988 8.08594 17.7539 7.40234 16.5234 7.40234C13.9941 7.40234 13.291 10.3809 13.291 12.8711C13.291 15.2441 14.0234 18.0664 16.5039 18.0664ZM16.4844 16.7676C15.459 16.7676 15.0195 15.5078 15.0195 14.502C15.0195 13.5059 15.5078 12.3828 16.4844 12.3828C17.4902 12.3828 17.9297 13.5449 17.9102 14.5605C17.9102 15.5664 17.4512 16.7676 16.4844 16.7676Z" fill="black" fill-opacity="0.85"/>
 </g>
</svg>
