<?xml version="1.0" encoding="UTF-8"?>
<!--Generator: Apple Native CoreSVG 326-->
<!DOCTYPE svg
PUBLIC "-//W3C//DTD SVG 1.1//EN"
       "http://www.w3.org/Graphics/SVG/1.1/DTD/svg11.dtd">
<svg version="1.1" xmlns="http://www.w3.org/2000/svg" xmlns:xlink="http://www.w3.org/1999/xlink" viewBox="0 0 23.3203 22.959">
 <g>
  <rect height="22.959" opacity="0" width="23.3203" x="0" y="0"/>
  <path d="M3.79883 22.959L19.1504 22.959C21.6797 22.959 22.959 21.6797 22.959 19.1992L22.959 3.76953C22.959 1.2793 21.6797 0 19.1504 0L3.79883 0C1.2793 0 0 1.26953 0 3.76953L0 19.1992C0 21.6992 1.2793 22.959 3.79883 22.959ZM3.83789 21.2305C2.4707 21.2305 1.72852 20.5078 1.72852 19.1016L1.72852 3.85742C1.72852 2.46094 2.4707 1.72852 3.83789 1.72852L19.1211 1.72852C20.459 1.72852 21.2305 2.46094 21.2305 3.85742L21.2305 19.1016C21.2305 20.5078 20.459 21.2305 19.1211 21.2305Z" fill="black" fill-opacity="0.85"/>
  <path d="M7.59766 16.7773C9.3457 16.7773 10.6836 15.6445 10.6836 13.7695C10.6836 12.2559 9.80469 11.4258 8.69141 11.3086L8.69141 11.2695C9.83398 10.9668 10.3809 9.95117 10.3809 8.87695C10.3809 7.1875 9.16016 6.18164 7.54883 6.18164C6.25977 6.18164 5.21484 6.91406 4.85352 8.02734C4.78516 8.27148 4.75586 8.49609 4.75586 8.70117C4.75586 9.0625 5 9.35547 5.43945 9.35547C5.82031 9.35547 6.03516 9.19922 6.14258 8.80859C6.32812 8.01758 6.76758 7.46094 7.54883 7.46094C8.4375 7.46094 8.88672 8.16406 8.88672 9.0625C8.88672 10.0293 8.32031 10.752 7.33398 10.752L6.97266 10.752C6.5918 10.752 6.35742 10.9863 6.35742 11.3477C6.35742 11.709 6.60156 11.9336 6.97266 11.9336L7.34375 11.9336C8.47656 11.9336 9.11133 12.5586 9.11133 13.7305C9.11133 14.668 8.62305 15.4785 7.60742 15.4785C6.62109 15.4785 6.15234 14.7949 6.00586 14.1602C5.9082 13.7891 5.67383 13.5938 5.3125 13.5938C4.87305 13.5938 4.58984 13.8574 4.58984 14.2871C4.58984 14.502 4.62891 14.7461 4.69727 14.9414C5.04883 16.0938 6.25 16.7773 7.59766 16.7773ZM15.2832 16.8164C17.1582 16.8164 18.2227 15.1953 18.2227 13.2422C18.2227 11.543 17.4023 9.91211 15.7324 9.91211C14.668 9.91211 13.8965 10.6543 13.6133 11.7578L13.5742 11.7578C13.5742 11.709 13.5742 11.6504 13.5742 11.6016C13.5742 10.127 13.7598 7.45117 15.2734 7.45117C15.918 7.45117 16.3281 7.91992 16.5527 8.52539C16.709 8.86719 16.9141 9.05273 17.2754 9.05273C17.7246 9.05273 17.9199 8.75977 17.9199 8.38867C17.9199 8.25195 17.8906 8.0957 17.8516 7.92969C17.5781 6.83594 16.5332 6.15234 15.3027 6.15234C12.7734 6.15234 12.0605 9.13086 12.0605 11.6211C12.0605 13.9941 12.8027 16.8164 15.2832 16.8164ZM15.2637 15.5176C14.2383 15.5176 13.7988 14.2578 13.7988 13.252C13.7988 12.2559 14.2871 11.1328 15.2539 11.1328C16.2695 11.1328 16.709 12.2949 16.6895 13.3105C16.6895 14.3164 16.2305 15.5176 15.2637 15.5176Z" fill="black" fill-opacity="0.85"/>
 </g>
</svg>
