<?xml version="1.0" ?><!-- Generator: Adobe Illustrator 25.0.0, SVG Export Plug-In . SVG Version: 6.00 Build 0)  --><svg xmlns="http://www.w3.org/2000/svg" xmlns:xlink="http://www.w3.org/1999/xlink" version="1.1" id="Layer_1" x="0px" y="0px" viewBox="0 0 512 512" style="enable-background:new 0 0 512 512;" xml:space="preserve">
<path d="M87.3,512h337.3c58.4,0,87.3-28.9,87.3-86.2V86.2C512,28.9,483.1,0,424.7,0H87.3C29.2,0,0,28.6,0,86.2v339.6  C0,483.4,29.2,512,87.3,512z M87.9,467.2c-27.8,0-43.1-14.7-43.1-43.7V88.4c0-28.9,15.3-43.7,43.1-43.7h336.2  c27.5,0,43.1,14.7,43.1,43.7v335.1c0,28.9-15.6,43.7-43.1,43.7H87.9z M159.4,375.4c47.3,0,80.1-28.4,80.1-68.4  c0-29.5-20.3-53.4-48.4-56.2v-1.7c22.8-3.9,40.9-27,40.9-53.1c0-35.6-29.2-60.3-70.6-60.3c-37.8,0-65.6,21.4-72.9,48.7  c-0.6,3.6-0.6,6.4-0.6,10c0,10,6.1,17,15.9,17c8.3,0,12.8-4.4,15.3-13.3c6.1-19.5,19.7-30.3,41.4-30.3c22,0,37.3,13.3,37.3,32.8  c0,20.3-15.3,35-37.5,35h-15c-9.2,0-15.3,6.4-15.3,16.4c0,8.9,6.1,15.9,15.3,15.9h16.4c26.4,0,43.1,15,43.1,37.5  c0,21.7-18.4,38.1-45.1,38.1c-22,0-37-10.8-44.5-30.3c-3.3-8.9-8.1-13.3-15.9-13.3c-9.5,0-16.1,7-16.1,16.7c0,3.9,0.3,6.7,1.4,10.3  C91.8,352.4,121.5,375.4,159.4,375.4z M354,375.7c45.1,0,77.3-29.8,77.3-80.7c0-47.8-32.5-74.3-69-74.3c-29.5,0-48.1,16.7-55.1,35  h-1.9v-2.5c0-52.6,21.1-85.7,52.6-85.7c16.1,0,27.3,7.8,34.2,18.6c4.7,7,9.2,10.3,16.7,10.3c7.8,0,13.6-6.1,13.6-15.3  c0-3.6-0.6-7-1.9-10.6c-7.2-18.6-29.5-35-61.2-35c-53.7,0-86.5,41.7-86.5,126.3c0,33.9,5.3,58.7,14.7,76.2  C301.7,364.9,325.7,375.7,354,375.7z M352.4,345.1c-25.9,0-43.9-20.3-43.9-48.9c0-27.3,17.8-46.7,43.9-46.7  c26.1,0,43.9,19.2,43.9,47C396.3,326.2,379.3,345.1,352.4,345.1z"/>
</svg>