<?xml version="1.0" ?><!-- Generator: Adobe Illustrator 25.0.0, SVG Export Plug-In . SVG Version: 6.00 Build 0)  --><svg xmlns="http://www.w3.org/2000/svg" xmlns:xlink="http://www.w3.org/1999/xlink" version="1.1" id="Layer_1" x="0px" y="0px" viewBox="0 0 512 512" style="enable-background:new 0 0 512 512;" xml:space="preserve">
<path d="M256,512c140,0,256-116.2,256-256C512,116,395.8,0,255.7,0C116,0,0,116,0,256C0,395.8,116.2,512,256,512z M172.7,367.7  c-35.1,0-62.5-21.6-69.5-45.4c-0.8-3.3-1.3-6-1.3-9.5c0-9,6.3-15.6,15.1-15.6c7.3,0,11.5,4,14.8,12.3c7,18.1,20.8,28.1,41.4,28.1  c24.6,0,41.9-15.1,41.9-35.1c0-21.1-15.8-34.9-40.2-34.9h-15.3c-8.5,0-14.3-6.5-14.3-14.8c0-9.5,6-15.6,14.3-15.6h14.1  c20.6,0,34.9-13.6,34.9-32.4c0-18.1-14.3-30.4-34.6-30.4c-20.3,0-32.6,10-38.4,28.1c-2.5,8.3-6.8,12.3-14.6,12.3  c-9,0-14.8-6.5-14.8-15.8c0-3.3,0-6,0.8-9.3c6.8-25.3,32.6-45.4,67.8-45.4c38.7,0,66,23.1,66,56.2c0,24.3-16.8,45.9-38.4,49.4v1.5  c26.1,2.8,45.4,24.8,45.4,52.5C247.7,341.1,216.8,367.7,172.7,367.7z M314,364.7c-9.8,0-17.6-7-17.6-16.8c0-5,0.8-8,3-12l80.1-155.1  v-2h-90.9c-8.8,0-15.1-5.8-15.1-14.3c0-8.8,6.3-14.8,15.1-14.8H393c14.1,0,23.1,10,23.1,22.6c0,5.5-1,10.3-4.8,18.6l-81.1,161.1  C326,360.9,320.8,364.7,314,364.7z"/>
</svg>