<?xml version="1.0" ?><!-- Generator: Adobe Illustrator 25.0.0, SVG Export Plug-In . SVG Version: 6.00 Build 0)  --><svg xmlns="http://www.w3.org/2000/svg" xmlns:xlink="http://www.w3.org/1999/xlink" version="1.1" id="Layer_1" x="0px" y="0px" viewBox="0 0 512 512" style="enable-background:new 0 0 512 512;" xml:space="preserve">
<path d="M256,512c140,0,256-116.2,256-256C512,116,395.8,0,255.7,0C116,0,0,116,0,256C0,395.8,116.2,512,256,512z M256,469.3  c-118.5,0-213.1-94.9-213.1-213.3S137.3,42.7,255.7,42.7S469.1,137.5,469.3,256S374.5,469.3,256,469.3z M175.4,364.2  c42.7,0,72.5-25.6,72.5-61.7c0-26.6-18.6-48.2-43.9-50.4v-1.5c20.8-3.5,37.1-24.6,37.1-47.9c0-32.1-26.6-54.5-64-54.5  c-33.9,0-59,19.3-65.5,43.7c-0.8,3.3-0.8,5.8-0.8,9.3c0,9,5.5,15.3,14.3,15.3c7.5,0,11.5-4,14.1-12c5.5-17.8,17.6-27.4,37.1-27.4  c19.8,0,33.9,11.8,33.9,29.6c0,18.3-14.1,31.6-34.1,31.6h-13.6c-8,0-13.8,5.8-13.8,14.6c0,8.3,5.5,14.6,13.8,14.6h14.8  c23.8,0,39.2,13.3,39.2,33.6c0,19.6-16.8,34.4-40.9,34.4c-19.8,0-33.4-9.5-40.2-27.4c-3-8-7.3-11.8-14.3-11.8  c-8.5,0-14.6,6-14.6,15.1c0,3.5,0.5,5.8,1.3,9C114.7,343.3,141.3,364.2,175.4,364.2z M312.2,361.7c6.5,0,11.5-3.8,15.8-12.3  l78.6-156.6c3.8-8,4.8-12.8,4.8-17.8c0-12.3-8.8-21.8-22.3-21.8H287.6c-8.5,0-14.6,5.5-14.6,14.1c0,8.5,6,14.1,14.6,14.1H376v2  l-77.8,150.6c-2.3,3.8-2.8,6.8-2.8,11.3C295.4,354.6,302.7,361.7,312.2,361.7z"/>
</svg>