<?xml version="1.0" ?><!-- Generator: Adobe Illustrator 25.0.0, SVG Export Plug-In . SVG Version: 6.00 Build 0)  --><svg xmlns="http://www.w3.org/2000/svg" xmlns:xlink="http://www.w3.org/1999/xlink" version="1.1" id="Layer_1" x="0px" y="0px" viewBox="0 0 512 512" style="enable-background:new 0 0 512 512;" xml:space="preserve">
<path d="M256,512c140,0,256-116.2,256-256C512,116,395.8,0,255.7,0C116,0,0,116,0,256C0,395.8,116.2,512,256,512z M171.4,364.2  c-34.4,0-61-20.8-67.5-43.9c-1-3.3-1.3-5.8-1.3-9.3c0-8.8,6-15.1,14.3-15.1c7.3,0,11.3,4,14.6,12c6.5,17.6,20.3,27.4,40.2,27.4  c24.1,0,40.7-14.8,40.7-34.4c0-20.3-15.3-33.9-39.2-33.9h-14.8c-8,0-13.6-6.3-13.6-14.3c0-9,5.5-14.8,13.6-14.8h13.8  c19.8,0,33.9-13.3,33.9-31.6c0-17.6-13.8-29.6-33.9-29.6c-19.3,0-31.6,9.8-37.1,27.4c-2.5,8-6.5,12-14.1,12  c-8.5,0-14.3-6.3-14.3-15.3c0-3.3,0.3-5.8,0.8-9c6.5-24.6,31.6-43.9,65.5-43.9c37.6,0,64,22.3,64,54.5c0,23.6-16.3,44.4-37.1,47.9  v1.5c25.3,2.5,43.9,24.1,43.9,50.7C243.7,338.6,213.8,364.2,171.4,364.2z M344.3,364.2c-43.4,0-72.5-24.6-72.5-61.2  c0-25.6,15.6-46.7,42.9-52.2v-1.5c-23.3-6.8-35.4-24.3-35.4-46.2c0-32.6,27.1-55.2,65.5-55.2c38.7,0,65.5,22.6,65.5,55.2  c0,21.8-12,39.9-35.1,46.2v1.5c26.9,5.5,42.7,26.4,42.7,52C417.9,339.1,388,364.2,344.3,364.2z M344.8,239.2  c19.6,0,33.6-14.1,33.6-33.1s-13.8-32.1-33.6-32.1c-19.6,0-33.4,13.1-33.4,32.1S325.3,239.2,344.8,239.2z M345.1,338.1  c23.8,0,41.2-15.3,41.2-37.4c0-21.8-16.8-37.4-41.2-37.4c-23.8,0-41.2,15.8-41.2,37.4C303.9,322.8,321.3,338.1,345.1,338.1z"/>
</svg>