<?xml version="1.0" ?><!-- Generator: Adobe Illustrator 25.0.0, SVG Export Plug-In . SVG Version: 6.00 Build 0)  --><svg xmlns="http://www.w3.org/2000/svg" xmlns:xlink="http://www.w3.org/1999/xlink" version="1.1" id="Layer_1" x="0px" y="0px" viewBox="0 0 512 512" style="enable-background:new 0 0 512 512;" xml:space="preserve">
<path d="M87.3,512h337.3c58.4,0,87.3-28.9,87.3-86.2V86.2C512,28.9,483.1,0,424.7,0H87.3C29.2,0,0,28.6,0,86.2v339.6  C0,483.4,29.2,512,87.3,512z M162.7,375.4c-37.8,0-67.6-23.1-74.8-48.7c-1.1-3.6-1.4-6.4-1.4-10.3c0-9.7,6.7-16.7,16.1-16.7  c7.8,0,12.5,4.4,15.9,13.3c7.2,19.5,22.5,30.3,44.5,30.3c26.7,0,45.1-16.4,45.1-38.1c0-22.5-16.7-37.5-43.4-37.5h-16.1  c-9.2,0-15.3-7-15.3-15.9c0-10,6.1-16.4,15.3-16.4h15c22,0,37.5-14.7,37.5-35c0-19.5-15.3-32.8-37.3-32.8  c-21.7,0-35.3,10.8-41.4,30.3c-2.8,8.9-7.2,13.3-15.6,13.3c-9.5,0-15.9-7-15.9-17c0-3.6,0.3-6.4,0.8-10c7.2-27.3,35-48.7,72.9-48.7  c41.4,0,70.6,24.8,70.6,60.3c0,26.1-18.1,49.2-40.9,53.1v1.7c28.1,2.8,48.4,26.7,48.4,56.2C242.8,347.1,210,375.4,162.7,375.4z   M354.3,375.4c-48.1,0-80.1-27.3-80.1-67.9c0-28.4,17-51.7,47.3-57.8v-1.7c-25.9-7.5-39.2-27-39.2-51.2c0-36.2,30-61.2,72.6-61.2  c42.8,0,72.9,25,72.9,61.2c0,24.2-13.6,44.2-39.2,51.2v1.7c29.8,6.1,47.3,29.2,47.3,57.6C435.8,347.6,402.7,375.4,354.3,375.4z   M354.9,236.9c22,0,37.3-15.6,37.3-36.7s-15.3-35.6-37.3-35.6c-21.7,0-37,14.5-37,35.6S333.2,236.9,354.9,236.9z M355.1,346.5  c26.4,0,45.6-17,45.6-41.4c0-24.2-18.6-41.4-45.6-41.4c-26.4,0-45.6,17.5-45.6,41.4C309.5,329.6,328.7,346.5,355.1,346.5z"/>
</svg>