<?xml version="1.0" ?><!-- Generator: Adobe Illustrator 25.0.0, SVG Export Plug-In . SVG Version: 6.00 Build 0)  --><svg xmlns="http://www.w3.org/2000/svg" xmlns:xlink="http://www.w3.org/1999/xlink" version="1.1" id="Layer_1" x="0px" y="0px" viewBox="0 0 512 512" style="enable-background:new 0 0 512 512;" xml:space="preserve">
<path d="M256,512c140,0,256-116.2,256-256C512,116,395.8,0,255.7,0C116,0,0,116,0,256C0,395.8,116.2,512,256,512z M256,469.3  c-118.5,0-213.1-94.9-213.1-213.3S137.3,42.7,255.7,42.7S469.1,137.5,469.3,256S374.5,469.3,256,469.3z M170.4,364.2  c42.7,0,72.3-25.6,72.3-61.7c0-26.6-18.6-48.2-43.9-50.4v-1.5c20.8-3.5,37.1-24.6,37.1-47.9c0-32.1-26.4-54.5-63.7-54.5  c-34.1,0-59.2,19.3-65.8,43.7c-0.5,3.3-0.8,5.8-0.8,9.3c0,9,5.8,15.3,14.3,15.3c7.5,0,11.5-4,14.1-12c5.5-17.8,17.8-27.4,37.4-27.4  c19.8,0,33.6,11.8,33.6,29.6c0,18.3-14.1,31.6-33.9,31.6h-13.6c-8.3,0-13.8,5.8-13.8,14.6c0,8.3,5.5,14.6,13.8,14.6h14.6  c23.8,0,39.2,13.3,39.2,33.6c0,19.6-16.6,34.4-40.7,34.4c-19.8,0-33.6-9.5-40.2-27.4c-3.3-8-7.3-11.8-14.3-11.8  c-8.5,0-14.6,6-14.6,15.1c0,3.5,0.3,5.8,1.3,9C109.4,343.3,136,364.2,170.4,364.2z M337.3,364.2c49.9,0,76.8-39.4,76.8-115.2  c0-65.8-27.1-100.9-74-100.9c-42.2,0-69.8,28.4-69.8,72.3c0,43.2,29.4,67.3,62,67.3c27.6,0,43.9-14.8,50.7-31.9h1.5  c0.5,49.9-18.8,79.6-47.7,79.6c-14.6,0-25.9-7.5-32.1-18.3c-3.8-7.3-8.8-10-15.3-10c-7.8,0-13.3,6-13.3,15.1c0,2.5,1,5.8,2,8.8  C282.1,344.8,302.7,364.2,337.3,364.2z M341.8,262c-23.8,0-39.7-17.8-39.7-42.9c0-26.4,15.6-43.9,39.9-43.9  c23.1,0,39.7,18.3,39.7,44.2C381.7,244.2,365.4,262,341.8,262z"/>
</svg>