<?xml version="1.0" encoding="UTF-8"?>
<!--Generator: Apple Native CoreSVG 326-->
<!DOCTYPE svg
PUBLIC "-//W3C//DTD SVG 1.1//EN"
       "http://www.w3.org/Graphics/SVG/1.1/DTD/svg11.dtd">
<svg version="1.1" xmlns="http://www.w3.org/2000/svg" xmlns:xlink="http://www.w3.org/1999/xlink" viewBox="0 0 23.3203 22.959">
 <g>
  <rect height="22.959" opacity="0" width="23.3203" x="0" y="0"/>
  <path d="M3.79883 22.959L19.1504 22.959C21.6797 22.959 22.959 21.6797 22.959 19.1992L22.959 3.76953C22.959 1.2793 21.6797 0 19.1504 0L3.79883 0C1.2793 0 0 1.26953 0 3.76953L0 19.1992C0 21.6992 1.2793 22.959 3.79883 22.959ZM3.83789 21.2305C2.4707 21.2305 1.72852 20.5078 1.72852 19.1016L1.72852 3.85742C1.72852 2.46094 2.4707 1.72852 3.83789 1.72852L19.1211 1.72852C20.459 1.72852 21.2305 2.46094 21.2305 3.85742L21.2305 19.1016C21.2305 20.5078 20.459 21.2305 19.1211 21.2305Z" fill="black" fill-opacity="0.85"/>
  <path d="M7.62695 16.7773C9.375 16.7773 10.7129 15.6445 10.7129 13.7695C10.7129 12.2559 9.83398 11.4258 8.7207 11.3086L8.7207 11.2695C9.86328 10.9668 10.4102 9.95117 10.4102 8.87695C10.4102 7.1875 9.18945 6.18164 7.57812 6.18164C6.28906 6.18164 5.24414 6.91406 4.88281 8.02734C4.81445 8.27148 4.78516 8.49609 4.78516 8.70117C4.78516 9.0625 5.0293 9.35547 5.46875 9.35547C5.85938 9.35547 6.06445 9.19922 6.17188 8.80859C6.35742 8.01758 6.79688 7.46094 7.57812 7.46094C8.4668 7.46094 8.91602 8.16406 8.91602 9.0625C8.91602 10.0293 8.34961 10.752 7.36328 10.752L7.00195 10.752C6.62109 10.752 6.38672 10.9863 6.38672 11.3477C6.38672 11.709 6.63086 11.9336 7.00195 11.9336L7.38281 11.9336C8.50586 11.9336 9.14062 12.5586 9.14062 13.7305C9.14062 14.668 8.65234 15.4785 7.63672 15.4785C6.65039 15.4785 6.18164 14.7949 6.03516 14.1602C5.9375 13.7891 5.70312 13.5938 5.3418 13.5938C4.91211 13.5938 4.61914 13.8574 4.61914 14.2871C4.61914 14.502 4.6582 14.7461 4.72656 14.9414C5.07812 16.0938 6.28906 16.7773 7.62695 16.7773ZM14.5215 13.0469C15.5957 13.0469 16.3672 12.3145 16.6406 11.2109L16.6895 11.2109C16.6895 11.2598 16.6895 11.3184 16.6895 11.3672C16.6895 12.8418 16.4941 15.4883 14.9707 15.4883C14.3457 15.4883 13.9258 15.0488 13.6914 14.4238C13.5352 14.0332 13.3105 13.877 12.9785 13.877C12.5195 13.877 12.3145 14.1895 12.3145 14.5605C12.3145 14.6973 12.3438 14.8633 12.3926 15.0195C12.6758 16.1328 13.7207 16.7969 14.9512 16.7969C17.4805 16.7969 18.1934 13.8672 18.1934 11.3477C18.1934 8.97461 17.4512 6.15234 14.9707 6.15234C13.1055 6.15234 12.0312 7.77344 12.0312 9.73633C12.0312 11.4258 12.8516 13.0469 14.5215 13.0469ZM14.9902 11.8164C13.9844 11.8164 13.5547 10.6738 13.5547 9.66797C13.5547 8.63281 14.0234 7.45117 14.9902 7.45117C16.0156 7.45117 16.4648 8.64258 16.4648 9.66797C16.4648 10.7129 15.9766 11.8164 14.9902 11.8164Z" fill="black" fill-opacity="0.85"/>
 </g>
</svg>
