<?xml version="1.0" encoding="UTF-8"?>
<!--Generator: Apple Native CoreSVG 326-->
<!DOCTYPE svg
PUBLIC "-//W3C//DTD SVG 1.1//EN"
       "http://www.w3.org/Graphics/SVG/1.1/DTD/svg11.dtd">
<svg version="1.1" xmlns="http://www.w3.org/2000/svg" xmlns:xlink="http://www.w3.org/1999/xlink" viewBox="0 0 23.3203 22.959">
 <g>
  <rect height="22.959" opacity="0" width="23.3203" x="0" y="0"/>
  <path d="M22.959 3.76953L22.959 19.1992C22.959 21.6797 21.6797 22.959 19.1504 22.959L3.79883 22.959C1.2793 22.959 0 21.6992 0 19.1992L0 3.76953C0 1.26953 1.2793 0 3.79883 0L19.1504 0C21.6797 0 22.959 1.2793 22.959 3.76953ZM12.0508 9.6875C12.0508 11.4258 12.8906 13.0859 14.5996 13.0859C15.6934 13.0859 16.4844 12.334 16.7676 11.2109L16.8164 11.2109C16.8164 11.2598 16.8164 11.3184 16.8164 11.3672C16.8164 12.8711 16.6211 15.5859 15.0586 15.5859C14.4238 15.5859 14.0039 15.127 13.7695 14.4922C13.5938 14.0918 13.3691 13.9355 13.0273 13.9355C12.5488 13.9355 12.334 14.2578 12.334 14.6387C12.334 14.7852 12.373 14.9512 12.4219 15.1074C12.7051 16.25 13.7793 16.9238 15.0391 16.9238C17.6367 16.9238 18.3691 13.9258 18.3691 11.3477C18.3691 8.91602 17.6074 6.02539 15.0586 6.02539C13.1445 6.02539 12.0508 7.68555 12.0508 9.6875ZM4.7168 7.93945C4.64844 8.19336 4.61914 8.41797 4.61914 8.63281C4.61914 9.00391 4.86328 9.30664 5.3125 9.30664C5.71289 9.30664 5.9375 9.14062 6.04492 8.75C6.24023 7.93945 6.67969 7.37305 7.48047 7.37305C8.38867 7.37305 8.84766 8.08594 8.84766 9.00391C8.84766 9.99023 8.27148 10.7324 7.25586 10.7324L6.89453 10.7324C6.49414 10.7324 6.25977 10.9766 6.25977 11.3477C6.25977 11.7188 6.51367 11.9531 6.89453 11.9531L7.26562 11.9531C8.42773 11.9531 9.07227 12.5879 9.07227 13.7793C9.07227 14.7363 8.57422 15.5664 7.5293 15.5664C6.5332 15.5664 6.05469 14.873 5.9082 14.2285C5.80078 13.8379 5.56641 13.6426 5.18555 13.6426C4.73633 13.6426 4.44336 13.916 4.44336 14.3555C4.44336 14.5801 4.48242 14.8242 4.54102 15.0293C4.91211 16.2109 6.15234 16.9043 7.5293 16.9043C9.32617 16.9043 10.6934 15.7422 10.6934 13.8281C10.6934 12.2754 9.79492 11.4258 8.65234 11.3086L8.65234 11.2695C9.82422 10.957 10.3906 9.91211 10.3906 8.81836C10.3906 7.08008 9.13086 6.05469 7.48047 6.05469C6.16211 6.05469 5.08789 6.80664 4.7168 7.93945ZM16.582 9.61914C16.582 10.6934 16.084 11.8164 15.0781 11.8164C14.0527 11.8164 13.623 10.6445 13.623 9.61914C13.623 8.56445 14.1113 7.36328 15.0781 7.36328C16.1328 7.36328 16.582 8.57422 16.582 9.61914Z" fill="black" fill-opacity="0.85"/>
 </g>
</svg>
