<?xml version="1.0" ?><!-- Generator: Adobe Illustrator 25.0.0, SVG Export Plug-In . SVG Version: 6.00 Build 0)  --><svg xmlns="http://www.w3.org/2000/svg" xmlns:xlink="http://www.w3.org/1999/xlink" version="1.1" id="Layer_1" x="0px" y="0px" viewBox="0 0 512 512" style="enable-background:new 0 0 512 512;" xml:space="preserve">
<path d="M87.3,512h337.3c58.4,0,87.3-28.9,87.3-86.2V86.2C512,28.9,483.1,0,424.7,0H87.3C29.2,0,0,28.6,0,86.2v339.6  C0,483.4,29.2,512,87.3,512z M146.8,308.7c0-6.1,1.4-12.2,4.7-18.1c30.9-54,58.7-103.2,89.3-156.9c5.3-9.5,11.4-13.9,20.6-13.9  c13.1,0,20.3,9.7,20.3,21.1c0,4.5-1.7,8.9-3.9,13.6c-26.7,48.9-51.5,91.8-77.3,139.9h79.5v-61.7c0-15.3,7.8-24.2,20.6-24.2  c13.9,0,21.7,8.6,21.7,24.2v61.7h19.2c12.8,0,20.6,7.2,20.6,18.4c0,12-7.8,19.7-20.6,19.7h-19.2v29.5c0,15.6-7.8,24.2-21.7,24.2  c-12.8,0-20.6-8.9-20.6-24.2v-29.5H172.1C156.3,332.6,146.8,323.2,146.8,308.7z"/>
</svg>