<?xml version="1.0" ?><!-- Generator: Adobe Illustrator 25.0.0, SVG Export Plug-In . SVG Version: 6.00 Build 0)  --><svg xmlns="http://www.w3.org/2000/svg" xmlns:xlink="http://www.w3.org/1999/xlink" version="1.1" id="Layer_1" x="0px" y="0px" viewBox="0 0 512 512" style="enable-background:new 0 0 512 512;" xml:space="preserve">
<path d="M256,512c140,0,256-116.2,256-256C512,116,395.8,0,255.7,0C116,0,0,116,0,256C0,395.8,116.2,512,256,512z M289.4,374  c-11.8,0-18.8-8.3-18.8-21.8v-26.4h-92.9c-16.6,0-27.1-10-27.1-25.3c0-7.8,2-14.1,7.3-22.8c21.3-34.9,53.2-82.1,80.1-122.7  c10.3-15.6,21.6-22.1,39.7-22.1c18.8,0,31.4,11,31.4,27.4v131.5h19.6c10.5,0,17.3,7,17.3,17.3c0,10-7,16.8-17.3,16.8H309v26.4  C309,365.9,301.9,374,289.4,374z M270.6,291.6V166.4h-2c-26.9,40.9-59.7,89.9-79.6,123.7v1.5H270.6z"/>
</svg>