<?xml version="1.0" ?><!-- Generator: Adobe Illustrator 25.0.0, SVG Export Plug-In . SVG Version: 6.00 Build 0)  --><svg xmlns="http://www.w3.org/2000/svg" xmlns:xlink="http://www.w3.org/1999/xlink" version="1.1" id="Layer_1" x="0px" y="0px" viewBox="0 0 512 512" style="enable-background:new 0 0 512 512;" xml:space="preserve">
<path d="M87.3,512h337.3c58.4,0,87.3-28.9,87.3-86.2V86.2C512,28.9,483.1,0,424.7,0H87.3C29.2,0,0,28.6,0,86.2v339.6  C0,483.4,29.2,512,87.3,512z M293.4,386.3c-13.1,0-20.9-9.2-20.9-24.2v-29.2H169.6c-18.4,0-29.8-11.1-29.8-28.1  c0-8.6,1.9-15.6,7.8-25.3c23.6-38.7,59-90.9,88.7-136c11.4-17.2,23.9-24.5,43.9-24.5c20.9,0,34.8,12.2,34.8,30.3v145.7h21.7  c11.7,0,19.2,7.8,19.2,19.2c0,11.1-7.8,18.6-19.2,18.6h-21.7v29.2C315.1,377.4,307.3,386.3,293.4,386.3z M272.5,295.1V156.3h-1.9  c-30,45.3-66.5,99.6-88.4,137.1v1.7H272.5z"/>
</svg>