<?xml version="1.0" encoding="UTF-8"?>
<!--Generator: Apple Native CoreSVG 326-->
<!DOCTYPE svg
PUBLIC "-//W3C//DTD SVG 1.1//EN"
       "http://www.w3.org/Graphics/SVG/1.1/DTD/svg11.dtd">
<svg version="1.1" xmlns="http://www.w3.org/2000/svg" xmlns:xlink="http://www.w3.org/1999/xlink" viewBox="0 0 25.8008 25.459">
 <g>
  <rect height="25.459" opacity="0" width="25.8008" x="0" y="0"/>
  <path d="M25.4395 12.7246C25.4395 19.7266 19.7266 25.4395 12.7148 25.4395C5.71289 25.4395 0 19.7266 0 12.7246C0 5.71289 5.71289 0 12.7148 0C19.7266 0 25.4395 5.71289 25.4395 12.7246ZM13.1934 12.7246C13.1934 15.2441 13.9062 18.1934 16.4258 18.1934C18.9648 18.1934 19.6777 15.2441 19.6777 12.7246C19.6777 10.2051 18.9648 7.25586 16.4258 7.25586C13.9062 7.25586 13.1934 10.2051 13.1934 12.7246ZM7.87109 8.4668L5.37109 13.7695C5.18555 14.209 5.10742 14.502 5.10742 14.8633C5.10742 15.4199 5.49805 15.8008 6.06445 15.8008L9.07227 15.8008L9.07227 17.2852C9.07227 17.8711 9.48242 18.1055 9.85352 18.1055C10.2832 18.1055 10.6348 17.8223 10.6348 17.2852L10.6348 15.8008L11.1816 15.8008C11.6113 15.8008 11.8359 15.5176 11.8359 15.127C11.8359 14.7559 11.6211 14.4727 11.1816 14.4727L10.6348 14.4727L10.6348 8.57422C10.6348 7.75391 10.0977 7.34375 9.375 7.34375C8.57422 7.34375 8.19336 7.75391 7.87109 8.4668ZM18.0078 12.7246C18.0078 14.873 17.6367 16.8359 16.4258 16.8359C15.2246 16.8359 14.8438 14.873 14.8438 12.7246C14.8438 10.5664 15.2246 8.61328 16.4258 8.61328C17.6367 8.61328 18.0078 10.5664 18.0078 12.7246ZM9.10156 14.502L6.52344 14.502L6.52344 14.4336L9.05273 8.82812L9.10156 8.82812Z" fill="black" fill-opacity="0.85"/>
 </g>
</svg>
