<?xml version="1.0" ?><!-- Generator: Adobe Illustrator 25.0.0, SVG Export Plug-In . SVG Version: 6.00 Build 0)  --><svg xmlns="http://www.w3.org/2000/svg" xmlns:xlink="http://www.w3.org/1999/xlink" version="1.1" id="Layer_1" x="0px" y="0px" viewBox="0 0 512 512" style="enable-background:new 0 0 512 512;" xml:space="preserve">
<path d="M256,512c140,0,256-116.2,256-256C512,116,395.8,0,255.7,0C116,0,0,116,0,256C0,395.8,116.2,512,256,512z M203.8,367.2  c-10.3,0-15.6-7.5-15.6-17.6v-30.4h-75.5c-13.1,0-22.1-8.3-22.1-22.1c0-7,1.5-12.8,5.8-20.8c17.3-31.4,43.2-75.5,65-111.9  c8.3-14.3,17.6-20.1,32.6-20.1c15.1,0,25.6,9.8,25.6,24.8v121h14.1c8.8,0,14.6,5.5,14.6,14.8c0,9-5.8,14.3-14.6,14.3h-14.1v30.4  C219.6,359.9,214.1,367.2,203.8,367.2z M347.6,367.7c-44.4,0-74-42.7-74-111.7s29.6-111.7,74-111.7c44.7,0,74,42.7,74,111.7  S392.3,367.7,347.6,367.7z M347.6,336.1c24.8,0,39.9-30.4,39.9-80.1s-15.3-80.1-39.9-80.1c-24.6,0-39.9,30.4-39.9,80.1  S323,336.1,347.6,336.1z M188.2,290.1V179.5h-1.5c-20.6,35.1-46.9,80.3-62.2,109.7v1H188.2z"/>
</svg>