<?xml version="1.0" encoding="UTF-8"?>
<!--Generator: Apple Native CoreSVG 326-->
<!DOCTYPE svg
PUBLIC "-//W3C//DTD SVG 1.1//EN"
       "http://www.w3.org/Graphics/SVG/1.1/DTD/svg11.dtd">
<svg version="1.1" xmlns="http://www.w3.org/2000/svg" xmlns:xlink="http://www.w3.org/1999/xlink" viewBox="0 0 25.8008 25.459">
 <g>
  <rect height="25.459" opacity="0" width="25.8008" x="0" y="0"/>
  <path d="M12.7148 25.4395C19.7363 25.4395 25.4395 19.7461 25.4395 12.7246C25.4395 5.70312 19.7363 0 12.7148 0C5.69336 0 0 5.70312 0 12.7246C0 19.7461 5.69336 25.4395 12.7148 25.4395ZM12.7148 23.623C6.68945 23.623 1.81641 18.75 1.81641 12.7246C1.81641 6.69922 6.68945 1.82617 12.7148 1.82617C18.7402 1.82617 23.6133 6.69922 23.6133 12.7246C23.6133 18.75 18.7402 23.623 12.7148 23.623Z" fill="black" fill-opacity="0.85"/>
  <path d="M9.91211 17.9688C10.3223 17.9688 10.6641 17.6953 10.6641 17.1777L10.6641 15.7227L11.2012 15.7227C11.6211 15.7227 11.8359 15.4492 11.8359 15.0684C11.8359 14.707 11.6309 14.4336 11.2012 14.4336L10.6641 14.4336L10.6641 8.66211C10.6641 7.88086 10.1465 7.4707 9.44336 7.4707C8.67188 7.4707 8.31055 7.87109 7.98828 8.56445L5.53711 13.75C5.35156 14.1797 5.2832 14.4629 5.2832 14.8145C5.2832 15.3516 5.6543 15.7227 6.21094 15.7227L9.15039 15.7227L9.15039 17.1777C9.15039 17.7539 9.55078 17.9688 9.91211 17.9688ZM9.17969 14.4629L6.65039 14.4629L6.65039 14.3945L9.13086 8.91602L9.17969 8.91602ZM16.3184 18.0664C18.7793 18.0664 19.4824 15.1758 19.4824 12.7246C19.4824 10.2734 18.7793 7.38281 16.3184 7.38281C13.8574 7.38281 13.1641 10.2734 13.1641 12.7246C13.1641 15.1758 13.8574 18.0664 16.3184 18.0664ZM16.3184 16.748C15.1367 16.748 14.7656 14.8145 14.7656 12.7246C14.7656 10.625 15.1367 8.70117 16.3184 8.70117C17.5098 8.70117 17.8711 10.625 17.8711 12.7246C17.8711 14.8145 17.5098 16.748 16.3184 16.748Z" fill="black" fill-opacity="0.85"/>
 </g>
</svg>
