<?xml version="1.0" ?><!-- Generator: Adobe Illustrator 25.0.0, SVG Export Plug-In . SVG Version: 6.00 Build 0)  --><svg xmlns="http://www.w3.org/2000/svg" xmlns:xlink="http://www.w3.org/1999/xlink" version="1.1" id="Layer_1" x="0px" y="0px" viewBox="0 0 512 512" style="enable-background:new 0 0 512 512;" xml:space="preserve">
<path d="M87.3,512h337.3c58.4,0,87.3-28.9,87.3-86.2V86.2C512,28.9,483.1,0,424.7,0H87.3C29.2,0,0,28.6,0,86.2v339.6  C0,483.4,29.2,512,87.3,512z M198.6,378.8c-11.4,0-17.2-8.3-17.2-19.5v-33.7H97.9c-14.7,0-24.8-9.2-24.8-24.5  c0-7.8,1.7-14.2,6.4-23.1c19.2-34.8,47.8-83.7,72-124c9.2-15.9,19.5-22.2,36.2-22.2c16.7,0,28.4,10.8,28.4,27.5v134h15.6  c9.7,0,16.1,6.1,16.1,16.4c0,10-6.4,15.9-16.1,15.9h-15.6v33.7C216.1,370.7,210.3,378.8,198.6,378.8z M357.9,379.3  c-49.2,0-82-47.3-82-123.8s32.8-123.8,82-123.8c49.5,0,82,47.3,82,123.8S407.4,379.3,357.9,379.3z M357.9,344.3  c27.5,0,44.2-33.7,44.2-88.7s-17-88.7-44.2-88.7c-27.3,0-44.2,33.7-44.2,88.7S330.7,344.3,357.9,344.3z M181.3,293.4V170.8h-1.7  c-22.8,38.9-51.7,89-68.7,121.5v1.1H181.3z"/>
</svg>