<?xml version="1.0" ?><!-- Generator: Adobe Illustrator 25.0.0, SVG Export Plug-In . SVG Version: 6.00 Build 0)  --><svg xmlns="http://www.w3.org/2000/svg" xmlns:xlink="http://www.w3.org/1999/xlink" version="1.1" id="Layer_1" x="0px" y="0px" viewBox="0 0 512 512" style="enable-background:new 0 0 512 512;" xml:space="preserve">
<path d="M256,512c140,0,256-116.2,256-256C512,116,395.8,0,255.7,0C116,0,0,116,0,256C0,395.8,116.2,512,256,512z M256,469.3  c-118.5,0-213.1-94.9-213.1-213.3S137.3,42.7,255.7,42.7S469.1,137.5,469.3,256S374.5,469.3,256,469.3z M218.6,363.9  c10.3,0,15.6-7,15.6-17.1v-29.4h13.6c8.8,0,14.3-5.3,14.3-14.1c0-9-5.8-14.1-14.3-14.1h-13.6V171.7c0-14.3-10.3-23.6-24.8-23.6  c-14.6,0-23.3,5.3-31.6,19.1c-20.8,35.4-46.2,78.6-63.2,108.9c-4,7.5-5.5,13.1-5.5,19.8c0,13.6,8.8,21.6,21.6,21.6h73.3v29.4  C203.8,356.6,208.8,363.9,218.6,363.9z M356.9,361.4c9.5,0,15.8-6.3,15.8-16.3V167.7c0-10.8-7.3-18.1-17.6-18.1  c-8.3,0-13.1,2.5-22.1,8.5L294.9,184c-5.3,4-8.3,8.3-8.3,14.8c0,8.5,7,15.3,14.3,15.3c4,0,6.3-0.3,12.3-4.8l26.6-19.8h1.5v155.6  C341.3,355.1,347.6,361.4,356.9,361.4z M203.8,289.4h-62v-1.3c14.8-28.1,40.7-72.3,60.5-106.2h1.5V289.4z"/>
</svg>