<?xml version="1.0" ?><!-- Generator: Adobe Illustrator 25.0.0, SVG Export Plug-In . SVG Version: 6.00 Build 0)  --><svg xmlns="http://www.w3.org/2000/svg" xmlns:xlink="http://www.w3.org/1999/xlink" version="1.1" id="Layer_1" x="0px" y="0px" viewBox="0 0 512 512" style="enable-background:new 0 0 512 512;" xml:space="preserve">
<path d="M87.3,512h337.3c58.4,0,87.3-28.9,87.3-86.2V86.2C512,28.9,483.1,0,424.7,0H87.3C29.2,0,0,28.6,0,86.2v339.6  C0,483.4,29.2,512,87.3,512z M213.9,378.8c-11.1,0-17.2-8.3-17.2-19.5v-33.7h-83.7c-14.7,0-24.5-9.2-24.5-24.5  c0-7.8,1.4-14.2,6.4-23.1c19.2-34.8,47.8-83.7,71.8-124c9.5-15.9,19.7-22.2,36.4-22.2c17,0,28.4,10.8,28.4,27.5v134h15.3  c10.3,0,16.7,6.1,16.7,16.4c0,10-6.4,15.9-16.7,15.9h-15.3v33.7C231.4,370.7,225.5,378.8,213.9,378.8z M371.6,375.7  c-10.6,0-17.8-7.2-17.8-18.4v-178h-1.4l-30.6,22.5c-6.7,5.3-9.5,5.6-14.2,5.6c-8.3,0-16.4-7.5-16.4-17.2c0-7.5,3.6-12.8,9.7-17  l43.4-29.8c10.3-7,15.9-9.7,25.3-9.7c12.2,0,20.3,8.6,20.3,20.6v203C389.9,368.5,382.7,375.7,371.6,375.7z M196.6,293.4V170.8h-1.4  c-23.1,38.9-52.3,89-69.2,121.5v1.1H196.6z"/>
</svg>