<?xml version="1.0" ?><!-- Generator: Adobe Illustrator 25.0.0, SVG Export Plug-In . SVG Version: 6.00 Build 0)  --><svg xmlns="http://www.w3.org/2000/svg" xmlns:xlink="http://www.w3.org/1999/xlink" version="1.1" id="Layer_1" x="0px" y="0px" viewBox="0 0 512 512" style="enable-background:new 0 0 512 512;" xml:space="preserve">
<path d="M87.3,512h337.3c58.4,0,87.3-28.9,87.3-86.2V86.2C512,28.9,483.1,0,424.7,0H87.3C29.2,0,0,28.6,0,86.2v339.6  C0,483.4,29.2,512,87.3,512z M87.9,467.2c-27.8,0-43.1-14.7-43.1-43.7V88.4c0-28.9,15.3-43.7,43.1-43.7h336.2  c27.5,0,43.1,14.7,43.1,43.7v335.1c0,28.9-15.6,43.7-43.1,43.7H87.9z M201.4,374.9c11.4,0,17.2-7.8,17.2-18.6v-32.8h15  c9.5,0,15.6-5.6,15.6-15.3c0-10-6.1-15.9-15.6-15.9h-15V162.1c0-16.1-11.4-26.4-27.5-26.4c-16.1,0-25.9,6.1-35,21.4  c-23.1,38.9-51.2,86.8-70.1,120.4c-4.5,8.6-6.1,14.7-6.1,22.2c0,14.7,9.7,23.6,23.9,23.6h81.2v32.8  C184.9,366.8,190.5,374.9,201.4,374.9z M294.8,369.1h115.1c8.9,0,15.6-6.7,15.6-16.7c0-10.3-6.7-16.1-15.6-16.1H329v-1.9l54.8-63.4  c20.3-23.9,35.6-43.9,35.6-71.8c0-38.7-28.1-63.4-71.8-63.4c-33.1,0-62.6,21.1-69.8,49.5c-0.6,3.6-1.4,6.7-1.4,10  c0,10,6.1,16.7,15.6,16.7c8.1,0,12.2-4.7,15.9-13.1c7.2-20.9,21.1-31.1,41.2-31.1c22.2,0,37,13.9,37,34.5  c0,18.1-14.7,33.7-27.8,49.2l-73.4,86.2c-4.5,4.7-6.1,9.5-6.1,15C278.7,362.7,285.1,369.1,294.8,369.1z M184.9,292.3h-68.7v-1.1  c16.4-31.4,45.1-80.4,67-117.9h1.7V292.3z"/>
</svg>