<?xml version="1.0" ?><!-- Generator: Adobe Illustrator 25.0.0, SVG Export Plug-In . SVG Version: 6.00 Build 0)  --><svg xmlns="http://www.w3.org/2000/svg" xmlns:xlink="http://www.w3.org/1999/xlink" version="1.1" id="Layer_1" x="0px" y="0px" viewBox="0 0 512 512" style="enable-background:new 0 0 512 512;" xml:space="preserve">
<path d="M256,512c140,0,256-116.2,256-256C512,116,395.8,0,255.7,0C116,0,0,116,0,256C0,395.8,116.2,512,256,512z M205.6,367.2  c-10.3,0-15.3-7.5-15.3-17.6v-30.4h-75.5c-13.3,0-22.3-8.3-22.3-22.1c0-7,1.5-12.8,5.8-20.8c17.6-31.4,43.4-75.5,65-111.9  c8.5-14.3,17.6-20.1,32.9-20.1c15.1,0,25.6,9.8,25.6,24.8v121h13.8c9,0,14.6,5.5,14.6,14.8c0,9-5.5,14.3-14.6,14.3h-13.8v30.4  C221.6,359.9,216.1,367.2,205.6,367.2z M344.6,367.7c-35.6,0-63-21.6-69.8-45.4c-1-3.3-1.3-6-1.3-9.5c0-9,6.3-15.6,14.8-15.6  c7.5,0,11.8,4,14.8,12.3c7,18.1,21.1,28.1,41.7,28.1c24.6,0,41.7-15.1,41.7-35.1c0-21.1-15.6-34.9-40.2-34.9H331  c-8.3,0-14.1-6.5-14.1-14.8c0-9.5,5.8-15.6,14.1-15.6h14.3c20.3,0,34.9-13.6,34.9-32.4c0-18.1-14.3-30.4-34.9-30.4  c-19.8,0-32.6,10-38.1,28.1c-2.8,8.3-6.8,12.3-14.6,12.3c-9,0-14.8-6.5-14.8-15.8c0-3.3,0-6,0.8-9.3c6.5-25.3,32.6-45.4,67.5-45.4  c38.9,0,66,23.1,66,56.2c0,24.3-16.8,45.9-38.1,49.4v1.5c26.1,2.8,45.2,24.8,45.2,52.5C419.1,341.1,388.3,367.7,344.6,367.7z   M190.2,290.1V179.5h-1.5c-20.6,35.1-46.9,80.3-62.2,109.7v1H190.2z"/>
</svg>