<?xml version="1.0" encoding="UTF-8"?>
<!--Generator: Apple Native CoreSVG 326-->
<!DOCTYPE svg
PUBLIC "-//W3C//DTD SVG 1.1//EN"
       "http://www.w3.org/Graphics/SVG/1.1/DTD/svg11.dtd">
<svg version="1.1" xmlns="http://www.w3.org/2000/svg" xmlns:xlink="http://www.w3.org/1999/xlink" viewBox="0 0 23.3203 22.959">
 <g>
  <rect height="22.959" opacity="0" width="23.3203" x="0" y="0"/>
  <path d="M3.79883 22.959L19.1504 22.959C21.6797 22.959 22.959 21.6797 22.959 19.1992L22.959 3.76953C22.959 1.2793 21.6797 0 19.1504 0L3.79883 0C1.2793 0 0 1.26953 0 3.76953L0 19.1992C0 21.6992 1.2793 22.959 3.79883 22.959ZM3.83789 21.2305C2.4707 21.2305 1.72852 20.5078 1.72852 19.1016L1.72852 3.85742C1.72852 2.46094 2.4707 1.72852 3.83789 1.72852L19.1211 1.72852C20.459 1.72852 21.2305 2.46094 21.2305 3.85742L21.2305 19.1016C21.2305 20.5078 20.459 21.2305 19.1211 21.2305Z" fill="black" fill-opacity="0.85"/>
  <path d="M8.81836 16.7188C9.22852 16.7188 9.57031 16.4453 9.57031 15.9277L9.57031 14.4727L10.1074 14.4727C10.5273 14.4727 10.7422 14.1992 10.7422 13.8184C10.7422 13.457 10.5371 13.1836 10.1074 13.1836L9.57031 13.1836L9.57031 7.41211C9.57031 6.63086 9.05273 6.2207 8.34961 6.2207C7.57812 6.2207 7.2168 6.62109 6.89453 7.31445L4.44336 12.5C4.25781 12.9297 4.18945 13.2129 4.18945 13.5645C4.18945 14.1016 4.56055 14.4727 5.11719 14.4727L8.05664 14.4727L8.05664 15.9277C8.05664 16.5039 8.45703 16.7188 8.81836 16.7188ZM8.08594 13.2129L5.55664 13.2129L5.55664 13.1445L8.03711 7.66602L8.08594 7.66602ZM15.0781 16.7773C16.8262 16.7773 18.1641 15.6445 18.1641 13.7695C18.1641 12.2559 17.2852 11.4258 16.1719 11.3086L16.1719 11.2695C17.3145 10.9668 17.8613 9.95117 17.8613 8.87695C17.8613 7.1875 16.6406 6.18164 15.0293 6.18164C13.7402 6.18164 12.6953 6.91406 12.334 8.02734C12.2656 8.27148 12.2363 8.49609 12.2363 8.70117C12.2363 9.0625 12.4805 9.35547 12.9199 9.35547C13.3008 9.35547 13.5156 9.19922 13.623 8.80859C13.8086 8.01758 14.248 7.46094 15.0293 7.46094C15.918 7.46094 16.3672 8.16406 16.3672 9.0625C16.3672 10.0293 15.8008 10.752 14.8145 10.752L14.4531 10.752C14.0723 10.752 13.8379 10.9863 13.8379 11.3477C13.8379 11.709 14.082 11.9336 14.4531 11.9336L14.8242 11.9336C15.957 11.9336 16.5918 12.5586 16.5918 13.7305C16.5918 14.668 16.1035 15.4785 15.0879 15.4785C14.1016 15.4785 13.6328 14.7949 13.4863 14.1602C13.3887 13.7891 13.1543 13.5938 12.793 13.5938C12.3535 13.5938 12.0703 13.8574 12.0703 14.2871C12.0703 14.502 12.1094 14.7461 12.1777 14.9414C12.5293 16.0938 13.7305 16.7773 15.0781 16.7773Z" fill="black" fill-opacity="0.85"/>
 </g>
</svg>
