<?xml version="1.0" ?><!-- Generator: Adobe Illustrator 25.0.0, SVG Export Plug-In . SVG Version: 6.00 Build 0)  --><svg xmlns="http://www.w3.org/2000/svg" xmlns:xlink="http://www.w3.org/1999/xlink" version="1.1" id="Layer_1" x="0px" y="0px" viewBox="0 0 512 512" style="enable-background:new 0 0 512 512;" xml:space="preserve">
<path d="M87.3,512h337.3c58.4,0,87.3-28.9,87.3-86.2V86.2C512,28.9,483.1,0,424.7,0H87.3C29.2,0,0,28.6,0,86.2v339.6  C0,483.4,29.2,512,87.3,512z M87.9,467.2c-27.8,0-43.1-14.7-43.1-43.7V88.4c0-28.9,15.3-43.7,43.1-43.7h336.2  c27.5,0,43.1,14.7,43.1,43.7v335.1c0,28.9-15.6,43.7-43.1,43.7H87.9z M202.2,374.9c11.4,0,17.2-7.8,17.2-18.6v-32.8h15  c9.5,0,15.6-5.6,15.6-15.3c0-10-6.1-15.9-15.6-15.9h-15V162.1c0-16.1-11.4-26.4-27.5-26.4c-16.1,0-25.9,6.1-35,21.4  c-23.1,38.9-51.2,86.8-70.1,120.4c-4.4,8.6-6.1,14.7-6.1,22.2c0,14.7,9.7,23.6,23.9,23.6h81.2v32.8  C185.8,366.8,191.3,374.9,202.2,374.9z M351.5,375.4c47.3,0,80.1-28.4,80.1-68.4c0-29.5-20.6-53.4-48.4-56.2v-1.7  c22.8-3.9,40.9-27,40.9-53.1c0-35.6-29.2-60.3-70.6-60.3c-37.8,0-65.6,21.4-72.9,48.7c-0.6,3.6-0.8,6.4-0.8,10c0,10,6.4,17,15.9,17  c8.3,0,12.8-4.4,15.6-13.3c6.1-19.5,19.7-30.3,41.4-30.3c22,0,37.3,13.3,37.3,32.8c0,20.3-15.6,35-37.5,35h-15  c-9.2,0-15.3,6.4-15.3,16.4c0,8.9,6.1,15.9,15.3,15.9h16.1c26.4,0,43.4,15,43.4,37.5c0,21.7-18.4,38.1-45.1,38.1  c-22,0-37.3-10.8-44.5-30.3c-3.6-8.9-8.1-13.3-15.9-13.3c-9.5,0-16.1,7-16.1,16.7c0,3.9,0.3,6.7,1.4,10.3  C283.9,352.4,313.4,375.4,351.5,375.4z M185.8,292.3h-68.7v-1.1c16.4-31.4,45.1-80.4,67-117.9h1.7V292.3z"/>
</svg>