<?xml version="1.0" encoding="UTF-8"?>
<!--Generator: Apple Native CoreSVG 326-->
<!DOCTYPE svg
PUBLIC "-//W3C//DTD SVG 1.1//EN"
       "http://www.w3.org/Graphics/SVG/1.1/DTD/svg11.dtd">
<svg version="1.1" xmlns="http://www.w3.org/2000/svg" xmlns:xlink="http://www.w3.org/1999/xlink" viewBox="0 0 25.8008 25.459">
 <g>
  <rect height="25.459" opacity="0" width="25.8008" x="0" y="0"/>
  <path d="M25.4395 12.7246C25.4395 19.7266 19.7266 25.4395 12.7148 25.4395C5.71289 25.4395 0 19.7266 0 12.7246C0 5.71289 5.71289 0 12.7148 0C19.7266 0 25.4395 5.71289 25.4395 12.7246ZM7.85156 8.4668L5.35156 13.7695C5.15625 14.209 5.08789 14.502 5.08789 14.8633C5.08789 15.4199 5.46875 15.8008 6.04492 15.8008L9.04297 15.8008L9.04297 17.2754C9.04297 17.8711 9.46289 18.1055 9.83398 18.1055C10.2637 18.1055 10.6152 17.8223 10.6152 17.2754L10.6152 15.8008L11.1523 15.8008C11.5918 15.8008 11.8066 15.5176 11.8066 15.127C11.8066 14.7559 11.6016 14.4727 11.1523 14.4727L10.6152 14.4727L10.6152 8.57422C10.6152 7.75391 10.0781 7.34375 9.35547 7.34375C8.55469 7.34375 8.17383 7.75391 7.85156 8.4668ZM15.8398 8.4668L13.3398 13.7695C13.1543 14.209 13.0762 14.502 13.0762 14.8633C13.0762 15.4199 13.4668 15.8008 14.0332 15.8008L17.041 15.8008L17.041 17.2754C17.041 17.8711 17.4512 18.1055 17.832 18.1055C18.252 18.1055 18.6035 17.8223 18.6035 17.2754L18.6035 15.8008L19.1504 15.8008C19.5898 15.8008 19.8047 15.5176 19.8047 15.127C19.8047 14.7559 19.5898 14.4727 19.1504 14.4727L18.6035 14.4727L18.6035 8.57422C18.6035 7.75391 18.0664 7.34375 17.3438 7.34375C16.543 7.34375 16.1719 7.75391 15.8398 8.4668ZM9.07227 14.502L6.50391 14.502L6.50391 14.4336L9.0332 8.82812L9.07227 8.82812ZM17.0703 14.502L14.4922 14.502L14.4922 14.4336L17.0215 8.82812L17.0703 8.82812Z" fill="black" fill-opacity="0.85"/>
 </g>
</svg>
