<?xml version="1.0" ?><!-- Generator: Adobe Illustrator 25.0.0, SVG Export Plug-In . SVG Version: 6.00 Build 0)  --><svg xmlns="http://www.w3.org/2000/svg" xmlns:xlink="http://www.w3.org/1999/xlink" version="1.1" id="Layer_1" x="0px" y="0px" viewBox="0 0 512 512" style="enable-background:new 0 0 512 512;" xml:space="preserve">
<path d="M87.3,512h337.3c58.4,0,87.3-28.9,87.3-86.2V86.2C512,28.9,483.1,0,424.7,0H87.3C29.2,0,0,28.6,0,86.2v339.6  C0,483.4,29.2,512,87.3,512z M87.9,467.2c-27.8,0-43.1-14.7-43.1-43.7V88.4c0-28.9,15.3-43.7,43.1-43.7h336.2  c27.5,0,43.1,14.7,43.1,43.7v335.1c0,28.9-15.6,43.7-43.1,43.7H87.9z M195,374.9c11.1,0,17-7.8,17-18.6v-32.8h15  c9.7,0,15.9-5.6,15.9-15.3c0-10-6.4-15.9-15.9-15.9h-15V162.1c0-16.1-11.4-26.4-27.5-26.4s-25.9,6.1-35,21.4  c-23.1,38.9-51.2,86.8-70.1,120.4c-4.5,8.6-5.8,14.7-5.8,22.2c0,14.7,9.5,23.6,23.6,23.6h81.2v32.8  C178.3,366.8,184.1,374.9,195,374.9z M386.6,374.9c11.1,0,17-7.8,17-18.6v-32.8h15.3c9.5,0,15.6-5.6,15.6-15.3  c0-10-6.1-15.9-15.6-15.9h-15.3V162.1c0-16.1-11.1-26.4-27.5-26.4c-15.9,0-25.9,6.1-34.8,21.4c-23.4,38.9-51.5,86.8-70.1,120.4  c-4.5,8.6-6.1,14.7-6.1,22.2c0,14.7,9.7,23.6,23.6,23.6h81.2v32.8C369.9,366.8,375.7,374.9,386.6,374.9z M178.3,292.3h-68.7v-1.1  c16.4-31.4,45.1-80.4,67-117.9h1.7V292.3z M369.9,292.3h-68.7v-1.1c16.4-31.4,45.1-80.4,67.3-117.9h1.4V292.3z"/>
</svg>