<?xml version="1.0" ?><!-- Generator: Adobe Illustrator 25.0.0, SVG Export Plug-In . SVG Version: 6.00 Build 0)  --><svg xmlns="http://www.w3.org/2000/svg" xmlns:xlink="http://www.w3.org/1999/xlink" version="1.1" id="Layer_1" x="0px" y="0px" viewBox="0 0 512 512" style="enable-background:new 0 0 512 512;" xml:space="preserve">
<path d="M87.3,512h337.3c58.4,0,87.3-28.9,87.3-86.2V86.2C512,28.9,483.1,0,424.7,0H87.3C29.2,0,0,28.6,0,86.2v339.6  C0,483.4,29.2,512,87.3,512z M193,378.8c-11.1,0-17.2-8.3-17.2-19.5v-33.7H92.3c-14.7,0-24.5-9.2-24.5-24.5c0-7.8,1.4-14.2,5.8-23.1  c19.5-34.8,48.4-83.7,72-124c9.7-15.9,19.7-22.2,36.4-22.2c16.7,0,28.6,10.8,28.6,27.5v134h15.3c9.7,0,16.4,6.1,16.4,16.4  c0,10-6.4,15.9-16.4,15.9h-15.3v33.7C210.8,370.7,204.7,378.8,193,378.8z M390.7,378.8c-11.1,0-17.2-8.3-17.2-19.5v-33.7h-83.7  c-14.5,0-24.5-9.2-24.5-24.5c0-7.8,1.7-14.2,6.4-23.1c19.2-34.8,47.8-83.7,72-124c9.2-15.9,19.5-22.2,36.2-22.2  c17,0,28.4,10.8,28.4,27.5v134h15.6c10,0,16.1,6.1,16.1,16.4c0,10-6.1,15.9-16.1,15.9h-15.6v33.7  C408.3,370.7,402.1,378.8,390.7,378.8z M175.8,293.4V170.8h-1.7c-22.8,38.9-52,89-69,121.5v1.1H175.8z M373.5,293.4V170.8h-1.4  c-23.1,38.9-52.3,89-69.2,121.5v1.1H373.5z"/>
</svg>