<?xml version="1.0" ?><!-- Generator: Adobe Illustrator 25.0.0, SVG Export Plug-In . SVG Version: 6.00 Build 0)  --><svg xmlns="http://www.w3.org/2000/svg" xmlns:xlink="http://www.w3.org/1999/xlink" version="1.1" id="Layer_1" x="0px" y="0px" viewBox="0 0 512 512" style="enable-background:new 0 0 512 512;" xml:space="preserve">
<path d="M87.3,512h337.3c58.4,0,87.3-28.9,87.3-86.2V86.2C512,28.9,483.1,0,424.7,0H87.3C29.2,0,0,28.6,0,86.2v339.6  C0,483.4,29.2,512,87.3,512z M87.9,467.2c-27.8,0-43.1-14.7-43.1-43.7V88.4c0-28.9,15.3-43.7,43.1-43.7h336.2  c27.5,0,43.1,14.7,43.1,43.7v335.1c0,28.9-15.6,43.7-43.1,43.7H87.9z M198,374.9c11.4,0,17.2-7.8,17.2-18.6v-32.8h15  c9.7,0,15.9-5.6,15.9-15.3c0-10-6.4-15.9-15.9-15.9h-15V162.1c0-16.1-11.4-26.4-27.5-26.4c-16.1,0-25.9,6.1-35,21.4  c-23.1,38.9-51.2,86.8-70.1,120.4c-4.4,8.6-6.1,14.7-6.1,22.2c0,14.7,9.7,23.6,23.9,23.6h81.2v32.8  C181.6,366.8,187.2,374.9,198,374.9z M346.8,375.4c48.9,0,81.8-30,81.8-79c0-42.8-29.2-74-72-74c-18.6,0-38.7,9.2-47,21.7h-1.1  l5.3-71.5h92.1c7.8,0,13.6-6.4,13.6-15.6c0-8.9-5.6-15.6-13.6-15.6h-95.7c-14.7,0-24.2,8.9-25.3,23.6l-6.7,86.8  c-1.1,14.5,6.7,23.9,19.5,23.9c8.6,0,13.6-2.2,22.5-9.5c11.7-10,20.3-14.2,32.8-14.2c24.2,0,41.2,19.5,41.2,45.1  c0,29.2-18.6,46.7-45.6,46.7c-18.9,0-35-10-43.1-26.7c-4.2-8.1-9.5-12-15.9-12c-9.5,0-15.9,7-15.9,16.1c0,4.4,1.1,8.6,2.5,12.5  C284.5,357.1,312,375.4,346.8,375.4z M181.6,292.3h-68.7v-1.1c16.4-31.4,45.1-80.4,67-117.9h1.7V292.3z"/>
</svg>