<?xml version="1.0" encoding="UTF-8"?>
<!--Generator: Apple Native CoreSVG 326-->
<!DOCTYPE svg
PUBLIC "-//W3C//DTD SVG 1.1//EN"
       "http://www.w3.org/Graphics/SVG/1.1/DTD/svg11.dtd">
<svg version="1.1" xmlns="http://www.w3.org/2000/svg" xmlns:xlink="http://www.w3.org/1999/xlink" viewBox="0 0 25.8008 25.459">
 <g>
  <rect height="25.459" opacity="0" width="25.8008" x="0" y="0"/>
  <path d="M25.4395 12.7246C25.4395 19.7266 19.7266 25.4395 12.7148 25.4395C5.71289 25.4395 0 19.7266 0 12.7246C0 5.71289 5.71289 0 12.7148 0C19.7266 0 25.4395 5.71289 25.4395 12.7246ZM13.1836 12.8711C13.1836 15.3027 13.9355 18.1934 16.4941 18.1934C18.418 18.1934 19.4922 16.5332 19.4922 14.5312C19.4922 12.793 18.6523 11.123 16.9434 11.123C15.8594 11.123 15.0684 11.8848 14.7852 13.0078L14.7363 13.0078C14.7363 12.959 14.7363 12.9004 14.7363 12.8516C14.7363 11.3477 14.9316 8.61328 16.4746 8.61328C17.1289 8.61328 17.5488 9.0918 17.7832 9.70703C17.9395 10.0586 18.1445 10.2344 18.5352 10.2344C18.9844 10.2344 19.1895 9.94141 19.1895 9.56055C19.1895 9.42383 19.1699 9.25781 19.1113 9.0918C18.8379 7.96875 17.7734 7.27539 16.5137 7.27539C13.916 7.27539 13.1836 10.3223 13.1836 12.8711ZM7.8418 8.4668L5.3418 13.7695C5.15625 14.209 5.08789 14.502 5.08789 14.8633C5.08789 15.4199 5.46875 15.8008 6.03516 15.8008L9.04297 15.8008L9.04297 17.2754C9.04297 17.8711 9.46289 18.1055 9.83398 18.1055C10.2539 18.1055 10.6055 17.8223 10.6055 17.2754L10.6055 15.8008L11.1523 15.8008C11.5918 15.8008 11.8066 15.5176 11.8066 15.127C11.8066 14.7559 11.5918 14.4727 11.1523 14.4727L10.6055 14.4727L10.6055 8.57422C10.6055 7.75391 10.0781 7.34375 9.3457 7.34375C8.55469 7.34375 8.17383 7.75391 7.8418 8.4668ZM17.9102 14.6094C17.9102 15.6348 17.4512 16.8555 16.4648 16.8555C15.4102 16.8555 14.9707 15.5664 14.9707 14.541C14.9707 13.5254 15.4688 12.3828 16.4648 12.3828C17.4902 12.3828 17.9297 13.5742 17.9102 14.6094ZM9.07227 14.502L6.49414 14.502L6.49414 14.4336L9.02344 8.82812L9.07227 8.82812Z" fill="black" fill-opacity="0.85"/>
 </g>
</svg>
