<?xml version="1.0" encoding="UTF-8"?>
<!--Generator: Apple Native CoreSVG 326-->
<!DOCTYPE svg
PUBLIC "-//W3C//DTD SVG 1.1//EN"
       "http://www.w3.org/Graphics/SVG/1.1/DTD/svg11.dtd">
<svg version="1.1" xmlns="http://www.w3.org/2000/svg" xmlns:xlink="http://www.w3.org/1999/xlink" viewBox="0 0 23.3203 22.959">
 <g>
  <rect height="22.959" opacity="0" width="23.3203" x="0" y="0"/>
  <path d="M22.959 3.76953L22.959 19.1992C22.959 21.6797 21.6797 22.959 19.1504 22.959L3.79883 22.959C1.2793 22.959 0 21.6992 0 19.1992L0 3.76953C0 1.26953 1.2793 0 3.79883 0L19.1504 0C21.6797 0 22.959 1.2793 22.959 3.76953ZM11.9531 11.6211C11.9531 14.0527 12.7051 16.9434 15.2539 16.9434C17.1875 16.9434 18.2617 15.2832 18.2617 13.2812C18.2617 11.543 17.4219 9.87305 15.7129 9.87305C14.6289 9.87305 13.8379 10.6348 13.5547 11.7578L13.5059 11.7578C13.5059 11.709 13.5059 11.6504 13.5059 11.6016C13.5059 10.0977 13.7012 7.36328 15.2441 7.36328C15.8984 7.36328 16.3184 7.8418 16.543 8.45703C16.709 8.80859 16.9141 8.98438 17.3047 8.98438C17.7539 8.98438 17.959 8.69141 17.959 8.31055C17.959 8.17383 17.9395 8.00781 17.8809 7.8418C17.6074 6.71875 16.5332 6.02539 15.2832 6.02539C12.6855 6.02539 11.9531 9.07227 11.9531 11.6211ZM6.61133 7.2168L4.11133 12.5195C3.92578 12.959 3.85742 13.252 3.85742 13.6133C3.85742 14.1699 4.23828 14.5508 4.80469 14.5508L7.8125 14.5508L7.8125 16.0254C7.8125 16.6211 8.23242 16.8555 8.60352 16.8555C9.02344 16.8555 9.375 16.5723 9.375 16.0254L9.375 14.5508L9.92188 14.5508C10.3516 14.5508 10.5762 14.2676 10.5762 13.877C10.5762 13.5059 10.3613 13.2227 9.92188 13.2227L9.375 13.2227L9.375 7.32422C9.375 6.50391 8.84766 6.09375 8.11523 6.09375C7.32422 6.09375 6.94336 6.50391 6.61133 7.2168ZM16.6797 13.3594C16.6797 14.3848 16.2207 15.6055 15.2344 15.6055C14.1797 15.6055 13.7402 14.3164 13.7402 13.291C13.7402 12.2754 14.2383 11.1328 15.2344 11.1328C16.2598 11.1328 16.6992 12.3242 16.6797 13.3594ZM7.8418 13.252L5.26367 13.252L5.26367 13.1836L7.79297 7.57812L7.8418 7.57812Z" fill="black" fill-opacity="0.85"/>
 </g>
</svg>
