<?xml version="1.0" encoding="UTF-8"?>
<!--Generator: Apple Native CoreSVG 326-->
<!DOCTYPE svg
PUBLIC "-//W3C//DTD SVG 1.1//EN"
       "http://www.w3.org/Graphics/SVG/1.1/DTD/svg11.dtd">
<svg version="1.1" xmlns="http://www.w3.org/2000/svg" xmlns:xlink="http://www.w3.org/1999/xlink" viewBox="0 0 23.3203 22.959">
 <g>
  <rect height="22.959" opacity="0" width="23.3203" x="0" y="0"/>
  <path d="M3.79883 22.959L19.1504 22.959C21.6797 22.959 22.959 21.6797 22.959 19.1992L22.959 3.76953C22.959 1.2793 21.6797 0 19.1504 0L3.79883 0C1.2793 0 0 1.26953 0 3.76953L0 19.1992C0 21.6992 1.2793 22.959 3.79883 22.959ZM3.83789 21.2305C2.4707 21.2305 1.72852 20.5078 1.72852 19.1016L1.72852 3.85742C1.72852 2.46094 2.4707 1.72852 3.83789 1.72852L19.1211 1.72852C20.459 1.72852 21.2305 2.46094 21.2305 3.85742L21.2305 19.1016C21.2305 20.5078 20.459 21.2305 19.1211 21.2305Z" fill="black" fill-opacity="0.85"/>
  <path d="M8.66211 16.7188C9.07227 16.7188 9.41406 16.4453 9.41406 15.9277L9.41406 14.4727L9.95117 14.4727C10.3711 14.4727 10.5859 14.1992 10.5859 13.8184C10.5859 13.457 10.3809 13.1836 9.95117 13.1836L9.41406 13.1836L9.41406 7.41211C9.41406 6.63086 8.89648 6.2207 8.19336 6.2207C7.42188 6.2207 7.06055 6.62109 6.73828 7.31445L4.28711 12.5C4.10156 12.9297 4.0332 13.2129 4.0332 13.5645C4.0332 14.1016 4.4043 14.4727 4.96094 14.4727L7.90039 14.4727L7.90039 15.9277C7.90039 16.5039 8.30078 16.7188 8.66211 16.7188ZM7.92969 13.2129L5.40039 13.2129L5.40039 13.1445L7.88086 7.66602L7.92969 7.66602ZM15.1465 16.8164C17.0312 16.8164 18.0859 15.1953 18.0859 13.2422C18.0859 11.543 17.2656 9.91211 15.5957 9.91211C14.5312 9.91211 13.7598 10.6543 13.4863 11.7578L13.4375 11.7578C13.4375 11.709 13.4375 11.6504 13.4375 11.6016C13.4375 10.127 13.6328 7.45117 15.1367 7.45117C15.7812 7.45117 16.1914 7.91992 16.416 8.52539C16.5723 8.86719 16.7773 9.05273 17.1484 9.05273C17.5879 9.05273 17.7832 8.75977 17.7832 8.38867C17.7832 8.25195 17.7637 8.0957 17.7148 7.92969C17.4414 6.83594 16.3965 6.15234 15.1758 6.15234C12.6367 6.15234 11.9336 9.13086 11.9336 11.6211C11.9336 13.9941 12.666 16.8164 15.1465 16.8164ZM15.127 15.5176C14.1016 15.5176 13.6621 14.2578 13.6621 13.252C13.6621 12.2559 14.1504 11.1328 15.127 11.1328C16.1328 11.1328 16.5723 12.2949 16.5527 13.3105C16.5527 14.3164 16.0938 15.5176 15.127 15.5176Z" fill="black" fill-opacity="0.85"/>
 </g>
</svg>
