<?xml version="1.0" ?><!-- Generator: Adobe Illustrator 25.0.0, SVG Export Plug-In . SVG Version: 6.00 Build 0)  --><svg xmlns="http://www.w3.org/2000/svg" xmlns:xlink="http://www.w3.org/1999/xlink" version="1.1" id="Layer_1" x="0px" y="0px" viewBox="0 0 512 512" style="enable-background:new 0 0 512 512;" xml:space="preserve">
<path d="M256,512c140,0,256-116.2,256-256C512,116,395.8,0,255.7,0C116,0,0,116,0,256C0,395.8,116.2,512,256,512z M256,469.3  c-118.5,0-213.1-94.9-213.1-213.3S137.3,42.7,255.7,42.7S469.1,137.5,469.3,256S374.5,469.3,256,469.3z M204.5,363.9  c10,0,15.3-7,15.3-17.1v-29.4h13.8c8.5,0,14.1-5.3,14.1-14.1c0-9-5.5-14.1-14.1-14.1h-13.8V171.7c0-14.3-10-23.6-24.6-23.6  c-14.6,0-23.6,5.3-31.6,19.1c-21.1,35.4-46.4,78.6-63.2,108.9c-4,7.5-5.5,13.1-5.5,19.8c0,13.6,8.8,21.6,21.3,21.6h73.3v29.4  C189.5,356.6,194.8,363.9,204.5,363.9z M310,361.7c6.8,0,11.5-3.8,16.1-12.3l78.3-156.6c3.8-8,4.8-12.8,4.8-17.8  c0-12.3-8.8-21.8-22.3-21.8H285.6c-8.8,0-14.6,5.5-14.6,14.1c0,8.5,5.8,14.1,14.6,14.1h88.1v2l-77.8,150.6c-2,3.8-2.8,6.8-2.8,11.3  C293.1,354.6,300.4,361.7,310,361.7z M189.5,289.4h-62v-1.3c14.8-28.1,40.7-72.3,60.7-106.2h1.3V289.4z"/>
</svg>