<?xml version="1.0" encoding="UTF-8"?>
<!--Generator: Apple Native CoreSVG 326-->
<!DOCTYPE svg
PUBLIC "-//W3C//DTD SVG 1.1//EN"
       "http://www.w3.org/Graphics/SVG/1.1/DTD/svg11.dtd">
<svg version="1.1" xmlns="http://www.w3.org/2000/svg" xmlns:xlink="http://www.w3.org/1999/xlink" viewBox="0 0 25.8008 25.459">
 <g>
  <rect height="25.459" opacity="0" width="25.8008" x="0" y="0"/>
  <path d="M12.7148 25.4395C19.7363 25.4395 25.4395 19.7461 25.4395 12.7246C25.4395 5.70312 19.7363 0 12.7148 0C5.69336 0 0 5.70312 0 12.7246C0 19.7461 5.69336 25.4395 12.7148 25.4395ZM12.7148 23.623C6.68945 23.623 1.81641 18.75 1.81641 12.7246C1.81641 6.69922 6.68945 1.82617 12.7148 1.82617C18.7402 1.82617 23.6133 6.69922 23.6133 12.7246C23.6133 18.75 18.7402 23.623 12.7148 23.623Z" fill="black" fill-opacity="0.85"/>
  <path d="M10.4883 17.9688C10.8984 17.9688 11.2402 17.6953 11.2402 17.1777L11.2402 15.7227L11.7773 15.7227C12.207 15.7227 12.4121 15.4492 12.4121 15.0684C12.4121 14.707 12.207 14.4336 11.7773 14.4336L11.2402 14.4336L11.2402 8.66211C11.2402 7.88086 10.7324 7.4707 10.0293 7.4707C9.24805 7.4707 8.88672 7.87109 8.57422 8.56445L6.11328 13.75C5.92773 14.1797 5.86914 14.4629 5.86914 14.8145C5.86914 15.3516 6.23047 15.7227 6.78711 15.7227L9.72656 15.7227L9.72656 17.1777C9.72656 17.7539 10.127 17.9688 10.4883 17.9688ZM9.75586 14.4629L7.23633 14.4629L7.23633 14.3945L9.70703 8.91602L9.75586 8.91602ZM15.127 17.9785C15.5371 17.9785 15.7227 17.8027 15.8691 17.4121L18.8477 9.42383C18.9746 9.0918 19.0527 8.81836 19.0527 8.48633C19.0527 7.97852 18.6621 7.63672 18.1543 7.63672L14.0625 7.63672C13.6816 7.63672 13.418 7.91016 13.418 8.29102C13.418 8.67188 13.6816 8.94531 14.0625 8.94531L17.4512 8.94531L17.4512 9.04297L14.541 16.6309C14.4434 16.875 14.4043 17.0312 14.4043 17.2852C14.4043 17.627 14.6191 17.9785 15.127 17.9785Z" fill="black" fill-opacity="0.85"/>
 </g>
</svg>
