<?xml version="1.0" ?><!-- Generator: Adobe Illustrator 25.0.0, SVG Export Plug-In . SVG Version: 6.00 Build 0)  --><svg xmlns="http://www.w3.org/2000/svg" xmlns:xlink="http://www.w3.org/1999/xlink" version="1.1" id="Layer_1" x="0px" y="0px" viewBox="0 0 512 512" style="enable-background:new 0 0 512 512;" xml:space="preserve">
<path d="M87.3,512h337.3c58.4,0,87.3-28.9,87.3-86.2V86.2C512,28.9,483.1,0,424.7,0H87.3C29.2,0,0,28.6,0,86.2v339.6  C0,483.4,29.2,512,87.3,512z M197.7,378.8c-11.1,0-17.2-8.3-17.2-19.5v-33.7H97.1c-14.7,0-24.8-9.2-24.8-24.5  c0-7.8,1.7-14.2,6.4-23.1c19.2-34.8,47.8-83.7,72-124c9.2-15.9,19.7-22.2,36.4-22.2s28.1,10.8,28.1,27.5v134h15.6  c10,0,16.4,6.1,16.4,16.4c0,10-6.4,15.9-16.4,15.9h-15.6v33.7C215.3,370.7,209.7,378.8,197.7,378.8z M318.2,376  c-10.8,0-19.2-7.8-19.2-18.6c0-5.6,0.8-8.9,3.1-13.3l89-171.9v-2.2H290.3c-10,0-16.7-6.4-16.7-15.9c0-9.7,6.7-16.4,16.7-16.4H406  c15.6,0,25.6,11.1,25.6,25c0,6.1-0.8,11.4-5.6,20.6l-89.3,178.5C331.8,371.8,325.9,376,318.2,376z M180.5,293.4V170.8h-1.4  c-23.1,38.9-52,89-69,121.5v1.1H180.5z"/>
</svg>