<?xml version="1.0" encoding="UTF-8"?>
<!--Generator: Apple Native CoreSVG 326-->
<!DOCTYPE svg
PUBLIC "-//W3C//DTD SVG 1.1//EN"
       "http://www.w3.org/Graphics/SVG/1.1/DTD/svg11.dtd">
<svg version="1.1" xmlns="http://www.w3.org/2000/svg" xmlns:xlink="http://www.w3.org/1999/xlink" viewBox="0 0 23.3203 22.959">
 <g>
  <rect height="22.959" opacity="0" width="23.3203" x="0" y="0"/>
  <path d="M22.959 3.76953L22.959 19.1992C22.959 21.6797 21.6797 22.959 19.1504 22.959L3.79883 22.959C1.2793 22.959 0 21.6992 0 19.1992L0 3.76953C0 1.26953 1.2793 0 3.79883 0L19.1504 0C21.6797 0 22.959 1.2793 22.959 3.76953ZM7.22656 7.2168L4.73633 12.5195C4.54102 12.959 4.47266 13.252 4.47266 13.6133C4.47266 14.1699 4.85352 14.5508 5.42969 14.5508L8.42773 14.5508L8.42773 16.0254C8.42773 16.6211 8.84766 16.8555 9.21875 16.8555C9.63867 16.8555 9.99023 16.5723 9.99023 16.0254L9.99023 14.5508L10.5371 14.5508C10.9863 14.5508 11.1914 14.2676 11.1914 13.877C11.1914 13.5059 10.9863 13.2227 10.5371 13.2227L9.99023 13.2227L9.99023 7.32422C9.99023 6.50391 9.46289 6.09375 8.74023 6.09375C7.93945 6.09375 7.55859 6.50391 7.22656 7.2168ZM12.8809 6.25C12.4902 6.25 12.2168 6.5332 12.2168 6.92383C12.2168 7.32422 12.4902 7.60742 12.8809 7.60742L16.3477 7.60742L16.3477 7.71484L13.3691 15.4688C13.2715 15.7324 13.2324 15.8789 13.2324 16.1426C13.2324 16.4941 13.457 16.8555 13.9746 16.8555C14.4043 16.8555 14.5898 16.6895 14.7461 16.2695L17.8027 8.10547C17.9199 7.76367 18.0078 7.48047 18.0078 7.13867C18.0078 6.60156 17.6074 6.25 17.0703 6.25ZM8.45703 13.252L5.88867 13.252L5.88867 13.1836L8.4082 7.57812L8.45703 7.57812Z" fill="black" fill-opacity="0.85"/>
 </g>
</svg>
