<?xml version="1.0" encoding="UTF-8"?>
<!--Generator: Apple Native CoreSVG 326-->
<!DOCTYPE svg
PUBLIC "-//W3C//DTD SVG 1.1//EN"
       "http://www.w3.org/Graphics/SVG/1.1/DTD/svg11.dtd">
<svg version="1.1" xmlns="http://www.w3.org/2000/svg" xmlns:xlink="http://www.w3.org/1999/xlink" viewBox="0 0 25.8008 25.459">
 <g>
  <rect height="25.459" opacity="0" width="25.8008" x="0" y="0"/>
  <path d="M25.4395 12.7246C25.4395 19.7266 19.7266 25.4395 12.7148 25.4395C5.71289 25.4395 0 19.7266 0 12.7246C0 5.71289 5.71289 0 12.7148 0C19.7266 0 25.4395 5.71289 25.4395 12.7246ZM13.4277 10.0781C13.4277 11.3477 14.1895 12.1484 15.0586 12.4121L15.0586 12.4512C13.9551 12.7051 13.1348 13.75 13.1348 15.127C13.1348 16.9824 14.502 18.1543 16.3672 18.1543C18.3398 18.1543 19.6191 16.875 19.6191 15.127C19.6191 13.7402 18.75 12.6953 17.7148 12.4512L17.7148 12.4121C18.6035 12.1387 19.3262 11.2695 19.3262 10.0879C19.3262 8.45703 18.1445 7.30469 16.3672 7.30469C14.7852 7.30469 13.4277 8.32031 13.4277 10.0781ZM7.83203 8.4668L5.32227 13.7695C5.13672 14.209 5.05859 14.502 5.05859 14.8633C5.05859 15.4199 5.44922 15.8008 6.01562 15.8008L9.02344 15.8008L9.02344 17.2754C9.02344 17.8711 9.43359 18.1055 9.80469 18.1055C10.2344 18.1055 10.5859 17.8223 10.5859 17.2754L10.5859 15.8008L11.1328 15.8008C11.5723 15.8008 11.7871 15.5176 11.7871 15.127C11.7871 14.7559 11.5723 14.4727 11.1328 14.4727L10.5859 14.4727L10.5859 8.57422C10.5859 7.75391 10.0586 7.34375 9.33594 7.34375C8.52539 7.34375 8.1543 7.75391 7.83203 8.4668ZM17.9199 15C17.9199 16.0156 17.3926 16.9043 16.3672 16.9043C15.3613 16.9043 14.834 16.0156 14.834 15C14.834 13.9844 15.3711 13.1348 16.3672 13.1348C17.334 13.1348 17.9199 13.9258 17.9199 15ZM9.05273 14.502L6.48438 14.502L6.48438 14.4336L9.00391 8.82812L9.05273 8.82812ZM17.7344 10.2441C17.7344 11.1523 17.2266 11.8848 16.3672 11.8848C15.5273 11.8848 15.0195 11.1133 15.0195 10.2441C15.0195 9.33594 15.5176 8.54492 16.3672 8.54492C17.2852 8.54492 17.7344 9.36523 17.7344 10.2441Z" fill="black" fill-opacity="0.85"/>
 </g>
</svg>
