<?xml version="1.0" ?><!-- Generator: Adobe Illustrator 25.0.0, SVG Export Plug-In . SVG Version: 6.00 Build 0)  --><svg xmlns="http://www.w3.org/2000/svg" xmlns:xlink="http://www.w3.org/1999/xlink" version="1.1" id="Layer_1" x="0px" y="0px" viewBox="0 0 512 512" style="enable-background:new 0 0 512 512;" xml:space="preserve">
<path d="M87.3,512h337.3c58.4,0,87.3-28.9,87.3-86.2V86.2C512,28.9,483.1,0,424.7,0H87.3C29.2,0,0,28.6,0,86.2v339.6  C0,483.4,29.2,512,87.3,512z M196.1,378.8c-11.1,0-17.2-8.3-17.2-19.5v-33.7H95.4c-14.5,0-24.5-9.2-24.5-24.5  c0-7.8,1.7-14.2,6.1-23.1c19.2-34.8,48.1-83.7,72-124c9.5-15.9,19.7-22.2,36.4-22.2s28.4,10.8,28.4,27.5v134h15.6  c9.7,0,16.1,6.1,16.1,16.4c0,10-6.4,15.9-16.1,15.9h-15.6v33.7C213.9,370.7,207.7,378.8,196.1,378.8z M357.9,379.3  c-49.5,0-82.9-28.1-82.9-70.1c0-29.2,17.8-53.4,48.7-59.8v-1.7c-26.7-7.8-40-27.8-40-52.8c0-37.3,30.9-63.1,74.8-63.1  c43.9,0,74.8,25.9,74.8,63.1c0,25-13.9,45.6-40,52.8v1.7c30.9,6.4,48.7,30.3,48.7,59.5C441.9,350.7,408,379.3,357.9,379.3z   M358.5,236.4c22.2,0,38.1-16.1,38.1-37.8c0-21.7-15.9-36.7-38.1-36.7c-22.5,0-38.1,15-38.1,36.7  C320.4,220.3,336.2,236.4,358.5,236.4z M178.8,293.4V170.8h-1.4c-23.1,38.9-52.3,89-69.2,121.5v1.1H178.8z M358.8,349.3  c27,0,46.7-17.5,46.7-42.6c0-25-19.2-42.8-46.7-42.8c-27,0-46.7,18.1-46.7,42.8C312,331.8,331.8,349.3,358.8,349.3z"/>
</svg>