<?xml version="1.0" encoding="UTF-8"?>
<!--Generator: Apple Native CoreSVG 326-->
<!DOCTYPE svg
PUBLIC "-//W3C//DTD SVG 1.1//EN"
       "http://www.w3.org/Graphics/SVG/1.1/DTD/svg11.dtd">
<svg version="1.1" xmlns="http://www.w3.org/2000/svg" xmlns:xlink="http://www.w3.org/1999/xlink" viewBox="0 0 25.8008 25.459">
 <g>
  <rect height="25.459" opacity="0" width="25.8008" x="0" y="0"/>
  <path d="M12.7148 25.4395C19.7363 25.4395 25.4395 19.7461 25.4395 12.7246C25.4395 5.70312 19.7363 0 12.7148 0C5.69336 0 0 5.70312 0 12.7246C0 19.7461 5.69336 25.4395 12.7148 25.4395ZM12.7148 23.623C6.68945 23.623 1.81641 18.75 1.81641 12.7246C1.81641 6.69922 6.68945 1.82617 12.7148 1.82617C18.7402 1.82617 23.6133 6.69922 23.6133 12.7246C23.6133 18.75 18.7402 23.623 12.7148 23.623Z" fill="black" fill-opacity="0.85"/>
  <path d="M10.0879 17.9688C10.498 17.9688 10.8398 17.6953 10.8398 17.1777L10.8398 15.7227L11.377 15.7227C11.8066 15.7227 12.0117 15.4492 12.0117 15.0684C12.0117 14.707 11.8066 14.4336 11.377 14.4336L10.8398 14.4336L10.8398 8.66211C10.8398 7.88086 10.3223 7.4707 9.62891 7.4707C8.84766 7.4707 8.48633 7.87109 8.17383 8.56445L5.71289 13.75C5.52734 14.1797 5.45898 14.4629 5.45898 14.8145C5.45898 15.3516 5.83008 15.7227 6.38672 15.7227L9.32617 15.7227L9.32617 17.1777C9.32617 17.7539 9.72656 17.9688 10.0879 17.9688ZM9.35547 14.4629L6.83594 14.4629L6.83594 14.3945L9.30664 8.91602L9.35547 8.91602ZM15.7812 14.2969C16.8457 14.2969 17.6172 13.5645 17.8906 12.4609L17.9395 12.4609C17.9395 12.5098 17.9395 12.5684 17.9395 12.6172C17.9395 14.0918 17.7441 16.7383 16.2305 16.7383C15.5957 16.7383 15.1855 16.2988 14.9512 15.6738C14.7852 15.2832 14.5605 15.127 14.2383 15.127C13.7695 15.127 13.5742 15.4395 13.5742 15.8105C13.5742 15.9473 13.6035 16.1133 13.6523 16.2695C13.9355 17.3828 14.9805 18.0469 16.2109 18.0469C18.7402 18.0469 19.4434 15.1172 19.4434 12.5977C19.4434 10.2246 18.7109 7.40234 16.2305 7.40234C14.3652 7.40234 13.291 9.02344 13.291 10.9863C13.291 12.6758 14.1113 14.2969 15.7812 14.2969ZM16.25 13.0664C15.2441 13.0664 14.8145 11.9238 14.8145 10.918C14.8145 9.88281 15.2832 8.70117 16.25 8.70117C17.2754 8.70117 17.7148 9.89258 17.7148 10.918C17.7148 11.9629 17.2266 13.0664 16.25 13.0664Z" fill="black" fill-opacity="0.85"/>
 </g>
</svg>
