<?xml version="1.0" encoding="UTF-8"?>
<!--Generator: Apple Native CoreSVG 326-->
<!DOCTYPE svg
PUBLIC "-//W3C//DTD SVG 1.1//EN"
       "http://www.w3.org/Graphics/SVG/1.1/DTD/svg11.dtd">
<svg version="1.1" xmlns="http://www.w3.org/2000/svg" xmlns:xlink="http://www.w3.org/1999/xlink" viewBox="0 0 23.3203 22.959">
 <g>
  <rect height="22.959" opacity="0" width="23.3203" x="0" y="0"/>
  <path d="M22.959 3.76953L22.959 19.1992C22.959 21.6797 21.6797 22.959 19.1504 22.959L3.79883 22.959C1.2793 22.959 0 21.6992 0 19.1992L0 3.76953C0 1.26953 1.2793 0 3.79883 0L19.1504 0C21.6797 0 22.959 1.2793 22.959 3.76953ZM12.0898 9.6875C12.0898 11.4258 12.9297 13.0859 14.6387 13.0859C15.7324 13.0859 16.5234 12.334 16.7969 11.2109L16.8457 11.2109C16.8457 11.2598 16.8457 11.3184 16.8457 11.3672C16.8457 12.8711 16.6504 15.5859 15.1074 15.5859C14.4629 15.5859 14.043 15.127 13.7988 14.4922C13.6328 14.0918 13.3984 13.9355 13.0664 13.9355C12.5879 13.9355 12.3828 14.2578 12.3828 14.6387C12.3828 14.7852 12.4121 14.9512 12.4609 15.1074C12.7539 16.25 13.8281 16.9238 15.0879 16.9238C17.6758 16.9238 18.3984 13.9258 18.3984 11.3477C18.3984 8.91602 17.6465 6.02539 15.1074 6.02539C13.1934 6.02539 12.0898 7.68555 12.0898 9.6875ZM6.81641 7.2168L4.31641 12.5195C4.13086 12.959 4.0625 13.252 4.0625 13.6133C4.0625 14.1699 4.44336 14.5508 5.01953 14.5508L8.01758 14.5508L8.01758 16.0254C8.01758 16.6211 8.4375 16.8555 8.80859 16.8555C9.22852 16.8555 9.58008 16.5723 9.58008 16.0254L9.58008 14.5508L10.127 14.5508C10.5566 14.5508 10.7812 14.2676 10.7812 13.877C10.7812 13.5059 10.5664 13.2227 10.127 13.2227L9.58008 13.2227L9.58008 7.32422C9.58008 6.50391 9.05273 6.09375 8.32031 6.09375C7.5293 6.09375 7.14844 6.50391 6.81641 7.2168ZM8.04688 13.252L5.46875 13.252L5.46875 13.1836L7.99805 7.57812L8.04688 7.57812ZM16.6211 9.61914C16.6211 10.6934 16.123 11.8164 15.127 11.8164C14.1016 11.8164 13.6621 10.6445 13.6621 9.61914C13.6621 8.56445 14.1406 7.36328 15.127 7.36328C16.1719 7.36328 16.6211 8.57422 16.6211 9.61914Z" fill="black" fill-opacity="0.85"/>
 </g>
</svg>
