<?xml version="1.0" ?><!-- Generator: Adobe Illustrator 25.0.0, SVG Export Plug-In . SVG Version: 6.00 Build 0)  --><svg xmlns="http://www.w3.org/2000/svg" xmlns:xlink="http://www.w3.org/1999/xlink" version="1.1" id="Layer_1" x="0px" y="0px" viewBox="0 0 512 512" style="enable-background:new 0 0 512 512;" xml:space="preserve">
<path d="M87.3,512h337.3c58.4,0,87.3-28.9,87.3-86.2V86.2C512,28.9,483.1,0,424.7,0H87.3C29.2,0,0,28.6,0,86.2v339.6  C0,483.4,29.2,512,87.3,512z M87.9,467.2c-27.8,0-43.1-14.7-43.1-43.7V88.4c0-28.9,15.3-43.7,43.1-43.7h336.2  c27.5,0,43.1,14.7,43.1,43.7v335.1c0,28.9-15.6,43.7-43.1,43.7H87.9z M197.5,374.9c11.4,0,17.2-7.8,17.2-18.6v-32.8h15  c9.5,0,15.6-5.6,15.6-15.3c0-10-6.1-15.9-15.6-15.9h-15V162.1c0-16.1-11.4-26.4-27.5-26.4s-25.9,6.1-35,21.4  C129,196.1,101,243.9,82,277.6c-4.5,8.6-6.1,14.7-6.1,22.2c0,14.7,9.7,23.6,23.9,23.6H181v32.8C181,366.8,186.6,374.9,197.5,374.9z   M349.3,375.4c55.3,0,85.4-43.9,85.4-127.7c0-72.9-30-112.1-82.3-112.1c-46.7,0-77.3,31.4-77.3,80.4c0,47.8,32.8,74.5,69,74.5  c30.6,0,48.7-16.4,55.9-35.3h1.7c0.6,55.3-20.6,88.2-52.8,88.2c-15.9,0-28.6-8.3-35.3-20.6c-4.5-7.8-9.7-10.8-17-10.8  c-8.6,0-14.7,6.7-14.7,16.4c0,2.8,1.1,6.7,2.2,10C288.4,353.8,310.9,375.4,349.3,375.4z M354.6,262c-26.4,0-44.2-19.7-44.2-47.6  c0-29.2,17.5-48.4,44.2-48.4c25.6,0,43.9,20.3,43.9,48.9C398.5,242.2,380.5,262,354.6,262z M181,292.3h-68.7v-1.1  c16.4-31.4,44.8-80.4,67-117.9h1.7V292.3z"/>
</svg>