<?xml version="1.0" encoding="UTF-8"?>
<!--Generator: Apple Native CoreSVG 326-->
<!DOCTYPE svg
PUBLIC "-//W3C//DTD SVG 1.1//EN"
       "http://www.w3.org/Graphics/SVG/1.1/DTD/svg11.dtd">
<svg version="1.1" xmlns="http://www.w3.org/2000/svg" xmlns:xlink="http://www.w3.org/1999/xlink" viewBox="0 0 25.8008 25.459">
 <g>
  <rect height="25.459" opacity="0" width="25.8008" x="0" y="0"/>
  <path d="M12.7148 25.4395C19.7363 25.4395 25.4395 19.7461 25.4395 12.7246C25.4395 5.70312 19.7363 0 12.7148 0C5.69336 0 0 5.70312 0 12.7246C0 19.7461 5.69336 25.4395 12.7148 25.4395ZM12.7148 23.623C6.68945 23.623 1.81641 18.75 1.81641 12.7246C1.81641 6.69922 6.68945 1.82617 12.7148 1.82617C18.7402 1.82617 23.6133 6.69922 23.6133 12.7246C23.6133 18.75 18.7402 23.623 12.7148 23.623Z" fill="black" fill-opacity="0.85"/>
  <path d="M9.57031 17.9688C9.98047 17.9688 10.3223 17.6953 10.3223 17.1777L10.3223 15.7227L10.8594 15.7227C11.2793 15.7227 11.4941 15.4492 11.4941 15.0684C11.4941 14.707 11.2891 14.4336 10.8594 14.4336L10.3223 14.4336L10.3223 8.66211C10.3223 7.88086 9.80469 7.4707 9.10156 7.4707C8.33008 7.4707 7.96875 7.87109 7.64648 8.56445L5.19531 13.75C5.00977 14.1797 4.94141 14.4629 4.94141 14.8145C4.94141 15.3516 5.3125 15.7227 5.86914 15.7227L8.80859 15.7227L8.80859 17.1777C8.80859 17.7539 9.20898 17.9688 9.57031 17.9688ZM8.83789 14.4629L6.30859 14.4629L6.30859 14.3945L8.78906 8.91602L8.83789 8.91602ZM13.418 17.9785C13.8379 17.9785 14.1113 17.7637 14.209 17.2656L14.6875 15.293L17.6367 15.293L18.125 17.2754C18.2324 17.8125 18.5547 17.9785 18.9453 17.9785C19.375 17.9785 19.6777 17.666 19.6777 17.2266C19.6777 17.0312 19.6582 16.8945 19.6094 16.7285L17.3926 8.47656C17.2168 7.7832 16.7773 7.48047 16.1523 7.48047C15.5078 7.48047 15.1172 7.82227 14.9512 8.47656L12.7344 16.7383C12.6953 16.8652 12.6465 17.0996 12.6465 17.2266C12.6465 17.6855 12.9492 17.9785 13.418 17.9785ZM14.9805 14.0723L16.1035 9.3457L16.1914 9.3457L17.3438 14.0723Z" fill="black" fill-opacity="0.85"/>
 </g>
</svg>
