<?xml version="1.0" encoding="UTF-8"?>
<!--Generator: Apple Native CoreSVG 326-->
<!DOCTYPE svg
PUBLIC "-//W3C//DTD SVG 1.1//EN"
       "http://www.w3.org/Graphics/SVG/1.1/DTD/svg11.dtd">
<svg version="1.1" xmlns="http://www.w3.org/2000/svg" xmlns:xlink="http://www.w3.org/1999/xlink" viewBox="0 0 25.8008 25.459">
 <g>
  <rect height="25.459" opacity="0" width="25.8008" x="0" y="0"/>
  <path d="M25.4395 12.7246C25.4395 19.7266 19.7266 25.4395 12.7148 25.4395C5.71289 25.4395 0 19.7266 0 12.7246C0 5.71289 5.71289 0 12.7148 0C19.7266 0 25.4395 5.71289 25.4395 12.7246ZM7.33398 8.4668L4.83398 13.7695C4.64844 14.209 4.58008 14.502 4.58008 14.8633C4.58008 15.4199 4.96094 15.8008 5.53711 15.8008L8.53516 15.8008L8.53516 17.2852C8.53516 17.8711 8.95508 18.1055 9.32617 18.1055C9.74609 18.1055 10.0977 17.8223 10.0977 17.2852L10.0977 15.8008L10.6445 15.8008C11.084 15.8008 11.2988 15.5176 11.2988 15.127C11.2988 14.7559 11.0938 14.4727 10.6445 14.4727L10.0977 14.4727L10.0977 8.57422C10.0977 7.75391 9.57031 7.34375 8.83789 7.34375C8.04688 7.34375 7.66602 7.75391 7.33398 8.4668ZM18.0273 8.16406L18.0273 11.9336L14.6094 11.9336L14.6094 8.16406C14.6094 7.71484 14.2285 7.34375 13.7793 7.34375C13.3203 7.34375 12.9492 7.71484 12.9492 8.16406L12.9492 17.2559C12.9492 17.7246 13.3203 18.0957 13.7793 18.0957C14.2285 18.0957 14.6094 17.7246 14.6094 17.2559L14.6094 13.3203L18.0273 13.3203L18.0273 17.2559C18.0273 17.7246 18.4082 18.0957 18.8672 18.0957C19.3066 18.0957 19.6875 17.7246 19.6875 17.2559L19.6875 8.16406C19.6875 7.71484 19.3066 7.34375 18.8672 7.34375C18.4082 7.34375 18.0273 7.71484 18.0273 8.16406ZM8.56445 14.502L5.99609 14.502L5.99609 14.4336L8.51562 8.82812L8.56445 8.82812Z" fill="black" fill-opacity="0.85"/>
 </g>
</svg>
