<?xml version="1.0" encoding="UTF-8"?>
<!--Generator: Apple Native CoreSVG 326-->
<!DOCTYPE svg
PUBLIC "-//W3C//DTD SVG 1.1//EN"
       "http://www.w3.org/Graphics/SVG/1.1/DTD/svg11.dtd">
<svg version="1.1" xmlns="http://www.w3.org/2000/svg" xmlns:xlink="http://www.w3.org/1999/xlink" viewBox="0 0 31.3477 24.6191">
 <g>
  <rect height="24.6191" opacity="0" width="31.3477" x="0" y="0"/>
  <path d="M3.05664 20.6055L27.9395 20.6055C29.8438 20.6055 30.9863 19.4629 30.9863 17.5586L30.9863 3.04688C30.9863 1.14258 29.8438 0 27.9395 0L3.05664 0C1.15234 0 0 1.14258 0 3.04688L0 17.5586C0 19.4629 1.15234 20.6055 3.05664 20.6055ZM3.08594 18.877C2.23633 18.877 1.72852 18.3789 1.72852 17.5293L1.72852 3.08594C1.72852 2.22656 2.23633 1.72852 3.08594 1.72852L27.9004 1.72852C28.75 1.72852 29.2578 2.22656 29.2578 3.08594L29.2578 17.5293C29.2578 18.3789 28.75 18.877 27.9004 18.877ZM9.24805 24.6094L21.748 24.6094C22.2266 24.6094 22.6172 24.2188 22.6172 23.7402C22.6172 23.252 22.2266 22.8613 21.748 22.8613L9.24805 22.8613C8.75977 22.8613 8.36914 23.252 8.36914 23.7402C8.36914 24.2188 8.75977 24.6094 9.24805 24.6094Z" fill="black" fill-opacity="0.85"/>
  <path d="M12.207 15.5664C12.6172 15.5664 12.9492 15.293 12.9492 14.7754L12.9492 13.3105L13.4863 13.3105C13.916 13.3105 14.1211 13.0371 14.1211 12.6562C14.1211 12.3047 13.9258 12.0215 13.4863 12.0215L12.9492 12.0215L12.9492 6.25C12.9492 5.46875 12.4414 5.05859 11.7383 5.05859C10.957 5.05859 10.5957 5.46875 10.2832 6.15234L7.83203 11.3379C7.64648 11.7676 7.57812 12.0605 7.57812 12.4023C7.57812 12.9395 7.94922 13.3105 8.49609 13.3105L11.4355 13.3105L11.4355 14.7754C11.4355 15.3418 11.8359 15.5664 12.207 15.5664ZM11.4648 12.0508L8.94531 12.0508L8.94531 11.9824L11.416 6.50391L11.4648 6.50391ZM16.5332 15.5859C17.0801 15.5859 17.3535 15.2051 17.3535 14.7461L17.3535 12.2852L18.2227 10.9473L20.625 14.9805C20.8398 15.3613 21.0547 15.5566 21.4746 15.5566C21.9141 15.5566 22.1973 15.2344 22.1973 14.8145C22.1973 14.5703 22.1387 14.4238 22.002 14.1699L19.375 9.82422L21.6797 6.45508C21.8066 6.26953 21.8848 6.10352 21.8848 5.83984C21.8848 5.46875 21.6309 5.11719 21.1621 5.11719C20.7617 5.11719 20.5957 5.32227 20.4492 5.55664L17.4121 10.1562L17.334 10.1562L17.334 5.91797C17.334 5.44922 17.0508 5.08789 16.5332 5.08789C16.0254 5.08789 15.7324 5.41992 15.7324 5.91797L15.7324 14.7461C15.7324 15.2441 16.0352 15.5859 16.5332 15.5859Z" fill="black" fill-opacity="0.85"/>
 </g>
</svg>
