<?xml version="1.0" encoding="UTF-8"?>
<!--Generator: Apple Native CoreSVG 326-->
<!DOCTYPE svg
PUBLIC "-//W3C//DTD SVG 1.1//EN"
       "http://www.w3.org/Graphics/SVG/1.1/DTD/svg11.dtd">
<svg version="1.1" xmlns="http://www.w3.org/2000/svg" xmlns:xlink="http://www.w3.org/1999/xlink" viewBox="0 0 25.8008 25.459">
 <g>
  <rect height="25.459" opacity="0" width="25.8008" x="0" y="0"/>
  <path d="M25.4395 12.7246C25.4395 19.7266 19.7266 25.4395 12.7148 25.4395C5.71289 25.4395 0 19.7266 0 12.7246C0 5.71289 5.71289 0 12.7148 0C19.7266 0 25.4395 5.71289 25.4395 12.7246ZM8.30078 8.4668L5.80078 13.7695C5.61523 14.209 5.54688 14.502 5.54688 14.8633C5.54688 15.4199 5.92773 15.8008 6.50391 15.8008L9.50195 15.8008L9.50195 17.2754C9.50195 17.8711 9.92188 18.1055 10.293 18.1055C10.7129 18.1055 11.0645 17.8223 11.0645 17.2754L11.0645 15.8008L11.6113 15.8008C12.0508 15.8008 12.2656 15.5176 12.2656 15.127C12.2656 14.7559 12.0605 14.4727 11.6113 14.4727L11.0645 14.4727L11.0645 8.57422C11.0645 7.75391 10.5371 7.34375 9.80469 7.34375C9.01367 7.34375 8.63281 7.75391 8.30078 8.4668ZM13.9062 8.22266L13.9062 17.0898C13.9062 17.6172 14.1895 17.9492 14.6973 17.9492L18.4375 17.9492C18.8477 17.9492 19.1602 17.6855 19.1602 17.2363C19.1602 16.8066 18.8477 16.543 18.4375 16.543L15.5566 16.543L15.5566 8.22266C15.5566 7.73438 15.293 7.35352 14.7168 7.35352C14.1895 7.35352 13.9062 7.69531 13.9062 8.22266ZM9.53125 14.502L6.95312 14.502L6.95312 14.4336L9.48242 8.82812L9.53125 8.82812Z" fill="black" fill-opacity="0.85"/>
 </g>
</svg>
