<?xml version="1.0" encoding="UTF-8"?>
<!--Generator: Apple Native CoreSVG 326-->
<!DOCTYPE svg
PUBLIC "-//W3C//DTD SVG 1.1//EN"
       "http://www.w3.org/Graphics/SVG/1.1/DTD/svg11.dtd">
<svg version="1.1" xmlns="http://www.w3.org/2000/svg" xmlns:xlink="http://www.w3.org/1999/xlink" viewBox="0 0 25.8008 30.311">
 <g>
  <rect height="30.311" opacity="0" width="25.8008" x="0" y="0"/>
  <path d="M12.7148 27.8655C19.7363 27.8655 25.4395 22.1721 25.4395 15.1506C25.4395 10.7854 23.252 6.98657 19.9121 4.69165C19.4434 4.34008 18.8281 4.46704 18.5645 4.89672C18.3008 5.34594 18.4375 5.85376 18.877 6.18579C21.7285 8.11938 23.6133 11.4104 23.6133 15.1506C23.6133 21.176 18.7402 26.0491 12.7148 26.0491C6.68945 26.0491 1.81641 21.176 1.81641 15.1506C1.81641 9.91626 5.48828 5.58032 10.3613 4.5061L10.3613 6.48852C10.3613 7.27954 10.9082 7.49438 11.5332 7.05493L15.4883 4.28149C16.0059 3.92016 16.0156 3.38305 15.4883 3.00219L11.543 0.228756C10.9082-0.220463 10.3613 0.00414614 10.3613 0.795162L10.3613 2.6604C4.49219 3.74438 0 8.92016 0 15.1506C0 22.1721 5.69336 27.8655 12.7148 27.8655Z" fill="black" fill-opacity="0.85"/>
  <path d="M12.7344 20.385C14.6875 20.385 15.8984 18.9397 15.8984 16.9963C15.8984 15.2873 14.9023 13.8518 13.2227 13.8518C12.373 13.8518 11.6406 14.2424 11.2695 14.9065L11.2305 14.9065L11.4844 11.8206L14.834 11.8206C15.2051 11.8206 15.4492 11.5666 15.4492 11.1956C15.4492 10.8147 15.2051 10.5706 14.834 10.5706L11.123 10.5706C10.5273 10.5706 10.2441 10.8831 10.2148 11.4788L9.91211 15.3069C9.87305 15.8049 10.1367 16.176 10.6152 16.176C10.9863 16.176 11.1523 16.01 11.377 15.7366C11.709 15.2776 12.1973 14.9944 12.7637 14.9944C13.8379 14.9944 14.4238 15.9514 14.4238 17.0354C14.4238 18.1682 13.8184 19.1448 12.7344 19.1448C11.9043 19.1448 11.3281 18.5979 11.084 17.8752C10.9375 17.5432 10.7129 17.3772 10.4102 17.3772C10.0195 17.3772 9.77539 17.6311 9.77539 18.0217C9.77539 18.1584 9.79492 18.3147 9.83398 18.4514C10.166 19.6623 11.4941 20.385 12.7344 20.385Z" fill="black" fill-opacity="0.85"/>
 </g>
</svg>
