<?xml version="1.0" ?><!-- Generator: Adobe Illustrator 25.0.0, SVG Export Plug-In . SVG Version: 6.00 Build 0)  --><svg xmlns="http://www.w3.org/2000/svg" xmlns:xlink="http://www.w3.org/1999/xlink" version="1.1" id="Layer_1" x="0px" y="0px" viewBox="0 0 512 512" style="enable-background:new 0 0 512 512;" xml:space="preserve">
<path d="M256,512c140,0,256-116.2,256-256C512,116,395.8,0,255.7,0C116,0,0,116,0,256C0,395.8,116.2,512,256,512z M254,379.2  c-41.2,0-71.3-16.6-81.6-42.9c-1.8-4-2.8-8-2.8-12.5c0-10,7-17.3,17.6-17.3c7.5,0,13.8,4.3,18.3,12.5c8.5,17.1,26.6,27.6,47.9,27.6  c28.4,0,49.9-21.1,49.9-49.4c0-28.6-18.3-47.7-45.7-47.7c-13.3,0-23.1,4-35.4,14.6c-10.3,7.8-16.1,9.8-25.6,9.8  c-14.6,0-23.1-9.8-22.1-24.8l7-85.8c1.3-15.1,12.3-24.6,29.4-24.6H318c9.3,0,15.6,6.5,15.6,16.1c0,9.3-6.5,16.1-15.6,16.1H214.6  l-5.8,70h1.8c9.3-12.8,30.9-22.1,52-22.1c47.4,0,80.3,31.9,80.3,77.6C342.8,346.4,306.7,379.2,254,379.2z"/>
</svg>