<?xml version="1.0" ?><!-- Generator: Adobe Illustrator 25.0.0, SVG Export Plug-In . SVG Version: 6.00 Build 0)  --><svg xmlns="http://www.w3.org/2000/svg" xmlns:xlink="http://www.w3.org/1999/xlink" version="1.1" id="Layer_1" x="0px" y="0px" viewBox="0 0 512 512" style="enable-background:new 0 0 512 512;" xml:space="preserve">
<path d="M256,512c140,0,256-116.2,256-256C512,116,395.8,0,255.7,0C116,0,0,116,0,256C0,395.8,116.2,512,256,512z M256,469.3  c-118.5,0-213.1-94.9-213.1-213.3S137.3,42.7,255.7,42.7S469.1,137.5,469.3,256S374.5,469.3,256,469.3z M254,375.7  c51.2,0,86.1-31.9,86.1-80.3c0-44.7-31.9-75.3-77.8-75.3c-20.3,0-41.4,8.8-50.4,21.6h-1.8l5.8-68.5H316c8.8,0,15.1-6.3,15.1-15.3  c0-9-6-15.6-15.1-15.6H212.3c-16.3,0-27.1,9-28.4,23.6l-6.8,83.8c-1,14.3,7.3,23.8,21.3,23.8c9.3,0,14.8-2.3,24.6-9.5  c12-10.3,21.6-14.1,34.6-14.1c26.6,0,44.4,18.3,44.4,45.9c0,27.6-21.1,48.4-48.7,48.4c-20.6,0-38.1-10.3-46.4-27.1  c-4.5-7.8-10.5-11.8-17.8-11.8c-10,0-16.8,6.8-16.8,16.3c0,4.5,1,8.5,2.5,12.3C185,359.7,214.1,375.7,254,375.7z"/>
</svg>