<?xml version="1.0" encoding="UTF-8"?>
<!--Generator: Apple Native CoreSVG 326-->
<!DOCTYPE svg
PUBLIC "-//W3C//DTD SVG 1.1//EN"
       "http://www.w3.org/Graphics/SVG/1.1/DTD/svg11.dtd">
<svg version="1.1" xmlns="http://www.w3.org/2000/svg" xmlns:xlink="http://www.w3.org/1999/xlink" viewBox="0 0 23.3203 18.9746">
 <g>
  <rect height="18.9746" opacity="0" width="23.3203" x="0" y="0"/>
  <path d="M0 18.1055C0 18.584 0.390625 18.9746 0.869141 18.9746C1.33789 18.9746 1.72852 18.584 1.72852 18.1055L1.72852 0.898438C1.72852 0.419922 1.33789 0.0292969 0.869141 0.0292969C0.390625 0.0292969 0 0.419922 0 0.898438ZM21.2305 18.1055C21.2305 18.584 21.6211 18.9746 22.0898 18.9746C22.5684 18.9746 22.959 18.584 22.959 18.1055L22.959 0.898438C22.959 0.419922 22.5684 0.0292969 22.0898 0.0292969C21.6211 0.0292969 21.2305 0.419922 21.2305 0.898438Z" fill="black" fill-opacity="0.85"/>
  <path d="M11.5039 15.4004C13.7012 15.4004 15.0781 13.7598 15.0781 11.5723C15.0781 9.63867 13.9551 8.00781 12.0508 8.00781C11.0938 8.00781 10.2637 8.44727 9.84375 9.20898L9.79492 9.20898L10.0879 5.71289L13.877 5.71289C14.2969 5.71289 14.5801 5.42969 14.5801 5.00977C14.5801 4.58008 14.2969 4.29688 13.877 4.29688L9.67773 4.29688C9.00391 4.29688 8.69141 4.64844 8.65234 5.32227L8.31055 9.6582C8.26172 10.2246 8.56445 10.6348 9.10156 10.6348C9.52148 10.6348 9.7168 10.4492 9.9707 10.1465C10.3418 9.61914 10.8887 9.29688 11.5332 9.29688C12.7441 9.29688 13.4082 10.3809 13.4082 11.6113C13.4082 12.9004 12.7246 13.9941 11.5039 13.9941C10.5566 13.9941 9.90234 13.3691 9.62891 12.5586C9.46289 12.1875 9.20898 11.9922 8.87695 11.9922C8.42773 11.9922 8.1543 12.2754 8.1543 12.7246C8.1543 12.8809 8.18359 13.0566 8.22266 13.2031C8.59375 14.5801 10.0977 15.4004 11.5039 15.4004Z" fill="black" fill-opacity="0.85"/>
 </g>
</svg>
