<?xml version="1.0" encoding="UTF-8"?>
<!--Generator: Apple Native CoreSVG 326-->
<!DOCTYPE svg
PUBLIC "-//W3C//DTD SVG 1.1//EN"
       "http://www.w3.org/Graphics/SVG/1.1/DTD/svg11.dtd">
<svg version="1.1" xmlns="http://www.w3.org/2000/svg" xmlns:xlink="http://www.w3.org/1999/xlink" viewBox="0 0 23.3203 22.959">
 <g>
  <rect height="22.959" opacity="0" width="23.3203" x="0" y="0"/>
  <path d="M3.79883 22.959L19.1504 22.959C21.6797 22.959 22.959 21.6797 22.959 19.1992L22.959 3.76953C22.959 1.2793 21.6797 0 19.1504 0L3.79883 0C1.2793 0 0 1.26953 0 3.76953L0 19.1992C0 21.6992 1.2793 22.959 3.79883 22.959ZM3.83789 21.2305C2.4707 21.2305 1.72852 20.5078 1.72852 19.1016L1.72852 3.85742C1.72852 2.46094 2.4707 1.72852 3.83789 1.72852L19.1211 1.72852C20.459 1.72852 21.2305 2.46094 21.2305 3.85742L21.2305 19.1016C21.2305 20.5078 20.459 21.2305 19.1211 21.2305Z" fill="black" fill-opacity="0.85"/>
  <path d="M11.416 17.4121C13.916 17.4121 15.6152 15.8301 15.6152 13.457C15.6152 11.25 14.043 9.7168 11.7871 9.7168C10.752 9.7168 9.69727 10.1758 9.20898 10.8594L9.12109 10.8594L9.43359 7.14844L14.5215 7.14844C14.9023 7.14844 15.1758 6.86523 15.1758 6.47461C15.1758 6.07422 14.9121 5.79102 14.5215 5.79102L9.25781 5.79102C8.55469 5.79102 8.0957 6.19141 8.04688 6.82617L7.68555 11.2598C7.63672 11.875 7.99805 12.2949 8.60352 12.2949C9.00391 12.2949 9.24805 12.1973 9.6582 11.8652C10.3223 11.25 10.8594 11.0254 11.5918 11.0254C13.0176 11.0254 13.9746 12.0215 13.9746 13.4766C13.9746 14.9414 12.8711 16.0352 11.4062 16.0352C10.293 16.0352 9.33594 15.459 8.94531 14.5703C8.75977 14.209 8.49609 14.0332 8.17383 14.0332C7.74414 14.0332 7.44141 14.3262 7.44141 14.7461C7.44141 14.9316 7.49023 15.1074 7.55859 15.2734C8.02734 16.5625 9.44336 17.4121 11.416 17.4121Z" fill="black" fill-opacity="0.85"/>
 </g>
</svg>
