<?xml version="1.0" encoding="UTF-8"?>
<!--Generator: Apple Native CoreSVG 326-->
<!DOCTYPE svg
PUBLIC "-//W3C//DTD SVG 1.1//EN"
       "http://www.w3.org/Graphics/SVG/1.1/DTD/svg11.dtd">
<svg version="1.1" xmlns="http://www.w3.org/2000/svg" xmlns:xlink="http://www.w3.org/1999/xlink" viewBox="0 0 25.8008 25.459">
 <g>
  <rect height="25.459" opacity="0" width="25.8008" x="0" y="0"/>
  <path d="M25.4395 12.7246C25.4395 19.7266 19.7266 25.4395 12.7148 25.4395C5.71289 25.4395 0 19.7266 0 12.7246C0 5.71289 5.71289 0 12.7148 0C19.7266 0 25.4395 5.71289 25.4395 12.7246ZM7.35352 7.51953C6.73828 7.51953 6.46484 7.92969 6.42578 8.52539L6.20117 12.1973C6.18164 12.4121 6.17188 12.6172 6.17188 12.7832C6.17188 13.2227 6.39648 13.6035 6.92383 13.6035C7.25586 13.6035 7.43164 13.457 7.67578 13.1348C7.97852 12.6562 8.33984 12.3242 8.91602 12.3242C9.94141 12.3242 10.3418 13.5449 10.3418 14.5605C10.3418 15.7031 9.92188 16.8652 8.88672 16.8652C8.10547 16.8652 7.63672 16.2695 7.41211 15.5176C7.27539 15.127 7.02148 14.9512 6.70898 14.9512C6.29883 14.9512 6.02539 15.2246 6.02539 15.6348C6.02539 15.8984 6.09375 16.1719 6.20117 16.3965C6.62109 17.4805 7.71484 18.2031 8.90625 18.2031C10.8789 18.2031 11.9336 16.5137 11.9336 14.5215C11.9336 12.7539 11.084 11.1035 9.42383 11.1035C8.67188 11.1035 7.95898 11.4551 7.60742 12.2363L7.55859 12.2363L7.7832 8.88672L10.8887 8.88672C11.2793 8.88672 11.5332 8.60352 11.5332 8.19336C11.5332 7.8125 11.2695 7.51953 10.8887 7.51953ZM13.4082 12.7344C13.4082 15.2539 14.1211 18.2031 16.6406 18.2031C19.1699 18.2031 19.8926 15.2539 19.8926 12.7344C19.8926 10.2148 19.1699 7.26562 16.6406 7.26562C14.1211 7.26562 13.4082 10.2148 13.4082 12.7344ZM18.2227 12.7344C18.2227 14.8926 17.8418 16.8457 16.6406 16.8457C15.4395 16.8457 15.0586 14.8926 15.0586 12.7344C15.0586 10.5859 15.4395 8.62305 16.6406 8.62305C17.8418 8.62305 18.2227 10.5859 18.2227 12.7344Z" fill="black" fill-opacity="0.85"/>
 </g>
</svg>
