<?xml version="1.0" ?><!-- Generator: Adobe Illustrator 25.0.0, SVG Export Plug-In . SVG Version: 6.00 Build 0)  --><svg xmlns="http://www.w3.org/2000/svg" xmlns:xlink="http://www.w3.org/1999/xlink" version="1.1" id="Layer_1" x="0px" y="0px" viewBox="0 0 512 512" style="enable-background:new 0 0 512 512;" xml:space="preserve">
<path d="M87.3,512h337.3c58.4,0,87.3-28.9,87.3-86.2V86.2C512,28.9,483.1,0,424.7,0H87.3C29.2,0,0,28.6,0,86.2v339.6  C0,483.4,29.2,512,87.3,512z M358.2,379.6c-49.5,0-82-47.3-82-123.8c0-76.5,32.5-123.8,82-123.8s82,47.3,82,123.8  C440.2,332.3,407.7,379.6,358.2,379.6z M161,379.6c-35.9,0-64.2-18.9-72.9-42.8c-1.4-3.6-2.2-8.1-2.2-13.1c0-9.5,6.1-16.7,16.1-16.7  c6.4,0,12.2,4.2,16.4,12.5c8.3,17.2,25,27.5,44.5,27.5c27.8,0,46.7-18.1,46.7-48.1c0-26.4-17.2-46.2-42.3-46.2  c-12.5,0-21.7,4.2-33.4,14.2c-9.5,7.8-14.7,10.3-23.6,10.3c-13.3,0-21.1-10-20.3-25.3l7.2-89.3c0.8-15,10.8-24.2,25.9-24.2h98.7  c8.3,0,13.9,6.7,13.9,15.9c0,9.5-5.8,16.1-13.9,16.1h-94.8l-5.6,73.7h1.4c8.3-13.1,28.9-22.5,48.1-22.5c44.5,0,74.3,32.3,74.3,76.8  C245.3,348.5,211.6,379.6,161,379.6z M358.2,344.6c27.5,0,44.2-33.7,44.2-88.7c0-55.1-17-88.7-44.2-88.7  c-27.3,0-44.2,33.7-44.2,88.7C314,310.9,330.9,344.6,358.2,344.6z"/>
</svg>