<?xml version="1.0" ?><!-- Generator: Adobe Illustrator 25.0.0, SVG Export Plug-In . SVG Version: 6.00 Build 0)  --><svg xmlns="http://www.w3.org/2000/svg" xmlns:xlink="http://www.w3.org/1999/xlink" version="1.1" id="Layer_1" x="0px" y="0px" viewBox="0 0 512 512" style="enable-background:new 0 0 512 512;" xml:space="preserve">
<path d="M87.3,512h337.3c58.4,0,87.3-28.9,87.3-86.2V86.2C512,28.9,483.1,0,424.7,0H87.3C29.2,0,0,28.6,0,86.2v339.6  C0,483.4,29.2,512,87.3,512z M356.5,300.9c0,53.4-40.6,91.2-99.8,91.2c-59.5,0-100.1-37.8-100.1-92.9c0-31.1,12.8-62.6,42.3-101.8  c14.7-19.7,32.3-41.7,51.2-66.5c4.2-5.6,10-11.7,19.2-11.7c13.9,0,19.5,8.9,19.5,17.5c0,5.6-2.5,10-6.7,15.9  c-14.2,18.1-32.8,41.4-47.6,60.3c-8.9,11.7-12.5,16.7-15.6,21.7l3.1,0.8c9.5-9.7,29.5-17.2,48.7-17.2  C320.7,218.3,356.5,253.6,356.5,300.9z M197.2,302.6c0,30.3,25.9,53.4,59.5,53.4c34.2,0,59.5-23.1,59.5-52.8  c0-30.3-25.3-52.3-59.5-52.3C222.8,250.9,197.2,272.8,197.2,302.6z"/>
</svg>