<?xml version="1.0" encoding="UTF-8"?>
<!--Generator: Apple Native CoreSVG 326-->
<!DOCTYPE svg
PUBLIC "-//W3C//DTD SVG 1.1//EN"
       "http://www.w3.org/Graphics/SVG/1.1/DTD/svg11.dtd">
<svg version="1.1" xmlns="http://www.w3.org/2000/svg" xmlns:xlink="http://www.w3.org/1999/xlink" viewBox="0 0 25.8008 25.459">
 <g>
  <rect height="25.459" opacity="0" width="25.8008" x="0" y="0"/>
  <path d="M25.4395 12.7246C25.4395 19.7266 19.7266 25.4395 12.7148 25.4395C5.71289 25.4395 0 19.7266 0 12.7246C0 5.71289 5.71289 0 12.7148 0C19.7266 0 25.4395 5.71289 25.4395 12.7246ZM12.5781 7.16797C11.7578 8.23242 10.791 9.44336 10.2148 10.2148C8.89648 11.9531 8.33984 13.3301 8.33984 14.707C8.33984 17.1289 10.127 18.8086 12.7441 18.8086C15.3418 18.8086 17.1289 17.1387 17.1289 14.7754C17.1289 12.6465 15.5273 11.084 13.2617 11.084C12.373 11.084 11.4746 11.4062 11.0059 11.8652L10.8789 11.8359C11.0254 11.5918 11.1914 11.3574 11.5918 10.8398C12.168 10.0879 13.1836 8.83789 13.8574 7.96875C14.0234 7.75391 14.1211 7.56836 14.1211 7.34375C14.1211 7.01172 13.8965 6.66992 13.3594 6.66992C12.998 6.66992 12.7734 6.91406 12.5781 7.16797ZM15.5566 14.8535C15.5566 16.2988 14.3652 17.3926 12.7441 17.3926C11.1426 17.3926 9.92188 16.2793 9.92188 14.834C9.92188 13.3984 11.123 12.3535 12.7344 12.3535C14.3652 12.3535 15.5566 13.4082 15.5566 14.8535Z" fill="black" fill-opacity="0.85"/>
 </g>
</svg>
