<?xml version="1.0" ?><!-- Generator: Adobe Illustrator 25.0.0, SVG Export Plug-In . SVG Version: 6.00 Build 0)  --><svg xmlns="http://www.w3.org/2000/svg" xmlns:xlink="http://www.w3.org/1999/xlink" version="1.1" id="Layer_1" x="0px" y="0px" viewBox="0 0 512 512" style="enable-background:new 0 0 512 512;" xml:space="preserve">
<path d="M256,512c140,0,256-116.2,256-256C512,116,395.8,0,255.7,0C116,0,0,116,0,256C0,395.8,116.2,512,256,512z M256,469.3  c-118.5,0-213.1-94.9-213.1-213.3S137.3,42.7,255.7,42.7S469.1,137.5,469.3,256S374.5,469.3,256,469.3z M257.8,375.7  c50.4,0,86.1-29.6,86.1-81.1c0-47.7-36.1-74-75.8-74c-33.9,0-53.2,16.8-61.2,35.1h-2V253c0-51.5,23.3-84.6,57.7-84.6  c17.6,0,27.4,7.8,34.6,16.8c8,7.8,12.8,12,21.6,12c8.3,0,15.1-5.8,15.1-14.8c0-3.8-0.8-7.3-2.3-10.8c-8-18.6-35.1-35.1-67.8-35.1  c-59,0-95.9,41.7-95.9,125.2c0,34.6,6.3,59.5,16.6,76.5C200.8,364.9,228.1,375.7,257.8,375.7z M256,345.3  c-28.1,0-48.2-20.6-48.2-49.2c0-27.4,20.1-47.2,48.4-47.2c28.6,0,48.2,19.6,48.2,47.4C304.4,326.3,285.6,345.3,256,345.3z"/>
</svg>