<?xml version="1.0" encoding="UTF-8"?>
<!--Generator: Apple Native CoreSVG 326-->
<!DOCTYPE svg
PUBLIC "-//W3C//DTD SVG 1.1//EN"
       "http://www.w3.org/Graphics/SVG/1.1/DTD/svg11.dtd">
<svg version="1.1" xmlns="http://www.w3.org/2000/svg" xmlns:xlink="http://www.w3.org/1999/xlink" viewBox="0 0 25.8008 25.459">
 <g>
  <rect height="25.459" opacity="0" width="25.8008" x="0" y="0"/>
  <path d="M12.7148 25.4395C19.7363 25.4395 25.4395 19.7461 25.4395 12.7246C25.4395 5.70312 19.7363 0 12.7148 0C5.69336 0 0 5.70312 0 12.7246C0 19.7461 5.69336 25.4395 12.7148 25.4395ZM12.7148 23.623C6.68945 23.623 1.81641 18.75 1.81641 12.7246C1.81641 6.69922 6.68945 1.82617 12.7148 1.82617C18.7402 1.82617 23.6133 6.69922 23.6133 12.7246C23.6133 18.75 18.7402 23.623 12.7148 23.623Z" fill="black" fill-opacity="0.85"/>
  <path d="M12.8027 18.6621C15.2734 18.6621 17.002 17.1777 17.002 14.6777C17.002 12.3633 15.2539 10.9961 13.252 10.9961C11.5625 10.9961 10.5469 11.8457 10.0977 12.832C10.0684 12.832 10.0391 12.832 10.0098 12.832C10.0098 12.7832 10.0098 12.7441 10.0098 12.6953C10.0098 9.92188 11.2109 8.17383 13.0371 8.17383C13.9648 8.17383 14.5801 8.61328 14.9512 9.15039C15.2832 9.50195 15.4883 9.69727 15.8691 9.69727C16.2402 9.69727 16.5332 9.43359 16.5332 9.04297C16.5332 8.87695 16.4941 8.73047 16.4258 8.57422C16.0742 7.67578 14.7559 6.78711 13.0859 6.78711C10.2051 6.78711 8.41797 8.90625 8.41797 13.0176C8.41797 14.6973 8.71094 15.9473 9.20898 16.7773C9.98047 18.0859 11.3281 18.6621 12.8027 18.6621ZM12.7344 17.334C11.25 17.334 10.1758 16.25 10.1758 14.7461C10.1758 13.3008 11.25 12.2559 12.7539 12.2559C14.2676 12.2559 15.3027 13.2812 15.3027 14.7656C15.3027 16.3281 14.2969 17.334 12.7344 17.334Z" fill="black" fill-opacity="0.85"/>
 </g>
</svg>
