<?xml version="1.0" encoding="UTF-8"?>
<!--Generator: Apple Native CoreSVG 326-->
<!DOCTYPE svg
PUBLIC "-//W3C//DTD SVG 1.1//EN"
       "http://www.w3.org/Graphics/SVG/1.1/DTD/svg11.dtd">
<svg version="1.1" xmlns="http://www.w3.org/2000/svg" xmlns:xlink="http://www.w3.org/1999/xlink" viewBox="0 0 25.8008 30.311">
 <g>
  <rect height="30.311" opacity="0" width="25.8008" x="0" y="0"/>
  <path d="M12.7148 27.8655C19.7363 27.8655 25.4395 22.1721 25.4395 15.1506C25.4395 10.7854 23.252 6.98657 19.9121 4.69165C19.4434 4.34008 18.8281 4.46704 18.5645 4.89672C18.3008 5.34594 18.4375 5.85376 18.877 6.18579C21.7285 8.11938 23.6133 11.4104 23.6133 15.1506C23.6133 21.176 18.7402 26.0491 12.7148 26.0491C6.68945 26.0491 1.81641 21.176 1.81641 15.1506C1.81641 9.91626 5.48828 5.58032 10.3613 4.5061L10.3613 6.48852C10.3613 7.27954 10.9082 7.49438 11.5332 7.05493L15.4883 4.28149C16.0059 3.92016 16.0156 3.38305 15.4883 3.00219L11.543 0.228756C10.9082-0.220463 10.3613 0.00414614 10.3613 0.795162L10.3613 2.6604C4.49219 3.74438 0 8.92016 0 15.1506C0 22.1721 5.69336 27.8655 12.7148 27.8655Z" fill="black" fill-opacity="0.85"/>
  <path d="M8.91602 20.385C10.7812 20.385 12.0508 18.9592 12.0508 17.0061C12.0508 15.2385 11.0059 13.8713 9.33594 13.8713C8.17383 13.8713 7.31445 14.5745 7.01172 15.6096L6.97266 15.6096C6.97266 14.6623 7.04102 13.969 7.19727 13.4026C7.44141 12.4456 7.93945 11.5862 8.92578 11.5862C9.61914 11.5862 10.1074 11.967 10.3906 12.592C10.5664 12.885 10.7617 13.0998 11.1035 13.0998C11.5527 13.0998 11.7383 12.7873 11.7383 12.4651C11.7383 12.2502 11.6992 12.0354 11.6016 11.8498C11.2012 10.9221 10.1562 10.3459 8.94531 10.3459C6.74805 10.3459 5.85938 12.3284 5.66406 14.4182C5.48828 15.5315 5.55664 16.8498 5.84961 17.7971C6.29883 19.2815 7.32422 20.385 8.91602 20.385ZM8.89648 19.1252C7.83203 19.1252 7.20703 18.0803 7.20703 17.0061C7.20703 15.9319 7.89062 15.0432 8.89648 15.0432C9.96094 15.0432 10.5664 15.9709 10.5664 17.0647C10.5664 18.1487 9.93164 19.1252 8.89648 19.1252ZM16.8262 20.3655C19.2871 20.3655 20.127 17.7776 20.127 15.3362C20.127 12.885 19.2676 10.3264 16.8262 10.3264C14.3457 10.3264 13.5156 12.9143 13.5156 15.3362C13.5156 17.8166 14.375 20.3655 16.8262 20.3655ZM16.8262 19.1057C15.5957 19.1057 15.0586 17.3674 15.0586 15.3362C15.0586 13.3147 15.5957 11.5959 16.8262 11.5959C18.0469 11.5959 18.584 13.3245 18.584 15.3362C18.584 17.3674 18.0566 19.1057 16.8262 19.1057Z" fill="black" fill-opacity="0.85"/>
 </g>
</svg>
