<?xml version="1.0" ?><!-- Generator: Adobe Illustrator 25.0.0, SVG Export Plug-In . SVG Version: 6.00 Build 0)  --><svg xmlns="http://www.w3.org/2000/svg" xmlns:xlink="http://www.w3.org/1999/xlink" version="1.1" id="Layer_1" x="0px" y="0px" viewBox="0 0 512 512" style="enable-background:new 0 0 512 512;" xml:space="preserve">
<path d="M256,512c140,0,256-116.2,256-256C512,116,395.8,0,255.7,0C116,0,0,116,0,256C0,395.8,116.2,512,256,512z M220.9,379  c-11.5,0-20.6-7.8-20.6-18.8c0-5.3,1-8.8,3.5-13.3l95.1-174.2v-2H189c-8.8,0-15.3-6.8-15.3-16.1c0-9.5,6.3-16.1,15.3-16.1h126.7  c16.8,0,28.1,10.8,28.1,25.1c0,5.5-1,10.8-6.3,20.3l-96.4,180.7C235.9,374.7,229.9,379,220.9,379z"/>
</svg>