<?xml version="1.0" ?><!-- Generator: Adobe Illustrator 25.0.0, SVG Export Plug-In . SVG Version: 6.00 Build 0)  --><svg xmlns="http://www.w3.org/2000/svg" xmlns:xlink="http://www.w3.org/1999/xlink" version="1.1" id="Layer_1" x="0px" y="0px" viewBox="0 0 512 512" style="enable-background:new 0 0 512 512;" xml:space="preserve">
<path d="M87.3,512h337.3c58.4,0,87.3-28.9,87.3-86.2V86.2C512,28.9,483.1,0,424.7,0H87.3C29.2,0,0,28.6,0,86.2v339.6  C0,483.4,29.2,512,87.3,512z M87.9,467.2c-27.8,0-43.1-14.7-43.1-43.7V88.4c0-28.9,15.3-43.7,43.1-43.7h336.2  c27.5,0,43.1,14.7,43.1,43.7v335.1c0,28.9-15.6,43.7-43.1,43.7H87.9z M218.9,387.7c9.5,0,16.1-4.5,21.7-15.3L344,178  c5.6-10,6.7-15.9,6.7-21.7c0-15.3-12-26.7-30-26.7h-136c-9.7,0-16.4,7-16.4,17c0,10,7,17.2,16.4,17.2h118.2v2.2L200.5,353.5  c-2.8,4.7-3.9,8.6-3.9,14.2C196.6,379.3,206.6,387.7,218.9,387.7z"/>
</svg>