<?xml version="1.0" encoding="UTF-8"?>
<!--Generator: Apple Native CoreSVG 326-->
<!DOCTYPE svg
PUBLIC "-//W3C//DTD SVG 1.1//EN"
       "http://www.w3.org/Graphics/SVG/1.1/DTD/svg11.dtd">
<svg version="1.1" xmlns="http://www.w3.org/2000/svg" xmlns:xlink="http://www.w3.org/1999/xlink" viewBox="0 0 25.8008 25.459">
 <g>
  <rect height="25.459" opacity="0" width="25.8008" x="0" y="0"/>
  <path d="M12.7148 25.4395C19.7363 25.4395 25.4395 19.7461 25.4395 12.7246C25.4395 5.70312 19.7363 0 12.7148 0C5.69336 0 0 5.70312 0 12.7246C0 19.7461 5.69336 25.4395 12.7148 25.4395ZM12.7148 23.623C6.68945 23.623 1.81641 18.75 1.81641 12.7246C1.81641 6.69922 6.68945 1.82617 12.7148 1.82617C18.7402 1.82617 23.6133 6.69922 23.6133 12.7246C23.6133 18.75 18.7402 23.623 12.7148 23.623Z" fill="black" fill-opacity="0.85"/>
  <path d="M12.6855 18.6621C15.2734 18.6621 17.0605 17.2852 17.0605 15.2832C17.0605 13.8965 16.0352 12.7344 14.5605 12.4414L14.5605 12.3633C15.791 12.0117 16.582 11.0059 16.582 9.80469C16.582 8.02734 14.9805 6.78711 12.7051 6.78711C10.4395 6.78711 8.82812 8.02734 8.82812 9.80469C8.82812 11.0059 9.60938 11.9922 10.8594 12.3633L10.8594 12.4414C9.36523 12.7344 8.35938 13.9062 8.35938 15.293C8.35938 17.2949 10.1074 18.6621 12.6855 18.6621ZM12.7148 17.4414C11.1426 17.4414 10 16.5137 10 15.2148C10 13.9648 11.1523 13.0371 12.7148 13.0371C14.3066 13.0371 15.4297 13.9551 15.4297 15.2148C15.4297 16.5137 14.2871 17.4414 12.7148 17.4414ZM12.7051 11.8652C11.377 11.8652 10.4297 11.0547 10.4297 9.93164C10.4297 8.80859 11.3672 8.01758 12.7051 8.01758C14.043 8.01758 14.9805 8.80859 14.9805 9.93164C14.9805 11.0547 14.0332 11.8652 12.7051 11.8652Z" fill="black" fill-opacity="0.85"/>
 </g>
</svg>
