<?xml version="1.0" ?><!-- Generator: Adobe Illustrator 25.0.0, SVG Export Plug-In . SVG Version: 6.00 Build 0)  --><svg xmlns="http://www.w3.org/2000/svg" xmlns:xlink="http://www.w3.org/1999/xlink" version="1.1" id="Layer_1" x="0px" y="0px" viewBox="0 0 512 512" style="enable-background:new 0 0 512 512;" xml:space="preserve">
<path d="M87.3,512h337.3c58.4,0,87.3-28.9,87.3-86.2V86.2C512,28.9,483.1,0,424.7,0H87.3C29.2,0,0,28.6,0,86.2v339.6  C0,483.4,29.2,512,87.3,512z M87.9,467.2c-27.8,0-43.1-14.7-43.1-43.7V88.4c0-28.9,15.3-43.7,43.1-43.7h336.2  c27.5,0,43.1,14.7,43.1,43.7v335.1c0,28.9-15.6,43.7-43.1,43.7H87.9z M255.6,388c59.2,0,99.3-30.6,99.3-75.4  c0-30.9-22.5-56.5-55.6-63.1v-1.7c27.5-8.1,45.1-30.3,45.1-57.3c0-39.8-36.4-67.3-88.2-67.3c-51.7,0-88.2,27.5-88.2,67.3  c0,27,17,48.7,45.1,57.3v1.7c-33.4,6.7-55.9,32.5-55.9,63.4C157.1,357.9,196.6,388,255.6,388z M256.1,235.3  c-27.8,0-47.3-17.2-47.3-41.2c0-23.4,19.5-40.3,47.3-40.3s47.3,17,47.3,40.3C303.4,218,283.7,235.3,256.1,235.3z M256.4,357.4  c-32.8,0-57-19.5-57-46.7c0-26.4,24.5-46.2,57-46.2c33.1,0,56.5,19.5,56.5,46.2C312.9,337.9,289,357.4,256.4,357.4z"/>
</svg>