<?xml version="1.0" ?><!-- Generator: Adobe Illustrator 25.0.0, SVG Export Plug-In . SVG Version: 6.00 Build 0)  --><svg xmlns="http://www.w3.org/2000/svg" xmlns:xlink="http://www.w3.org/1999/xlink" version="1.1" id="Layer_1" x="0px" y="0px" viewBox="0 0 512 512" style="enable-background:new 0 0 512 512;" xml:space="preserve">
<path d="M87.3,512h337.3c58.4,0,87.3-28.9,87.3-86.2V86.2C512,28.9,483.1,0,424.7,0H87.3C29.2,0,0,28.6,0,86.2v339.6  C0,483.4,29.2,512,87.3,512z M156.6,210.3c0-53.7,40.9-91.2,100.4-91.2c59.5,0,100.4,37.8,100.4,93.4c0,31.1-12.5,60.3-39.2,95.7  c-15.3,20.3-36.7,48.1-51.7,66.7c-8.3,10.3-12.5,17-23.6,17c-11.7,0-19.2-8.3-19.2-17c0-5.6,2.2-10.8,7-16.4  c17-20.9,35.9-43.7,51.7-64c6.4-7.5,10.8-13.6,13.1-17.8h-3.9c-9.5,10-29.8,16.7-48.9,16.7C193,293.4,156.6,258.4,156.6,210.3z   M197.2,208.6c0,30.3,25.6,52.6,59.8,52.6c33.9,0,59.5-22,59.5-52.6c0-30-25.9-52.8-59.8-52.8C222.8,155.7,197.2,178.3,197.2,208.6z  "/>
</svg>