<?xml version="1.0" ?><!-- Generator: Adobe Illustrator 25.0.0, SVG Export Plug-In . SVG Version: 6.00 Build 0)  --><svg xmlns="http://www.w3.org/2000/svg" xmlns:xlink="http://www.w3.org/1999/xlink" version="1.1" id="Layer_1" x="0px" y="0px" viewBox="0 0 512 512" style="enable-background:new 0 0 512 512;" xml:space="preserve">
<path d="M256,512c140,0,256-116.2,256-256C512,116,395.8,0,255.7,0C116,0,0,116,0,256C0,395.8,116.2,512,256,512z M249.2,379.2  c-43.7,0-68-21.6-74-39.7c-1-3-1.8-6-1.8-8.8c0-10,7.3-16.8,17.3-16.8c8,0,13.3,4.3,17.8,10.3c10.5,14.6,22.6,21.8,40.2,21.8  c35.9,0,60-33.9,59.5-90.6h-2c-8.3,19.1-28.6,36.1-63,36.1c-40.4,0-77.3-27.6-77.3-76.3c0-50.2,34.4-82.6,88.1-82.6  c58,0,91.9,40.4,91.9,114.9C345.8,334.6,312,379.2,249.2,379.2z M255.5,262.3c28.9,0,49.4-20.3,49.4-48.2  c0-29.1-21.1-50.4-49.4-50.4c-29.6,0-49.7,19.8-49.7,49.9C205.8,241.9,226.4,262.3,255.5,262.3z"/>
</svg>