<?xml version="1.0" encoding="UTF-8"?>
<!--Generator: Apple Native CoreSVG 326-->
<!DOCTYPE svg
PUBLIC "-//W3C//DTD SVG 1.1//EN"
       "http://www.w3.org/Graphics/SVG/1.1/DTD/svg11.dtd">
<svg version="1.1" xmlns="http://www.w3.org/2000/svg" xmlns:xlink="http://www.w3.org/1999/xlink" viewBox="0 0 23.3203 22.959">
 <g>
  <rect height="22.959" opacity="0" width="23.3203" x="0" y="0"/>
  <path d="M3.79883 22.959L19.1504 22.959C21.6797 22.959 22.959 21.6797 22.959 19.1992L22.959 3.76953C22.959 1.2793 21.6797 0 19.1504 0L3.79883 0C1.2793 0 0 1.26953 0 3.76953L0 19.1992C0 21.6992 1.2793 22.959 3.79883 22.959ZM3.83789 21.2305C2.4707 21.2305 1.72852 20.5078 1.72852 19.1016L1.72852 3.85742C1.72852 2.46094 2.4707 1.72852 3.83789 1.72852L19.1211 1.72852C20.459 1.72852 21.2305 2.46094 21.2305 3.85742L21.2305 19.1016C21.2305 20.5078 20.459 21.2305 19.1211 21.2305Z" fill="black" fill-opacity="0.85"/>
  <path d="M11.1816 17.4121C14.1309 17.4121 15.7617 15.2539 15.7617 10.9961C15.7617 7.42188 14.1211 5.53711 11.3965 5.53711C8.89648 5.53711 7.22656 7.09961 7.22656 9.48242C7.22656 11.7773 8.96484 13.1836 10.9473 13.1836C12.6172 13.1836 13.6621 12.3633 14.1016 11.3281L14.1895 11.3281C14.209 14.2969 13.0078 16.0156 11.1719 16.0156C10.2539 16.0156 9.58008 15.5957 9.07227 14.8535C8.87695 14.5801 8.67188 14.3945 8.32031 14.3945C7.90039 14.3945 7.59766 14.6875 7.59766 15.1074C7.59766 15.2441 7.62695 15.3613 7.67578 15.4883C7.94922 16.3379 9.16992 17.4121 11.1816 17.4121ZM11.4551 11.9238C9.95117 11.9238 8.89648 10.8594 8.89648 9.4043C8.89648 7.88086 9.94141 6.8457 11.4648 6.8457C12.9199 6.8457 14.0137 7.93945 14.0137 9.43359C14.0137 10.8594 12.9492 11.9238 11.4551 11.9238Z" fill="black" fill-opacity="0.85"/>
 </g>
</svg>
