<?xml version="1.0" ?><!-- Generator: Adobe Illustrator 25.0.0, SVG Export Plug-In . SVG Version: 6.00 Build 0)  --><svg xmlns="http://www.w3.org/2000/svg" xmlns:xlink="http://www.w3.org/1999/xlink" version="1.1" id="Layer_1" x="0px" y="0px" viewBox="0 0 512 512" style="enable-background:new 0 0 512 512;" xml:space="preserve">
<path d="M87.3,512h337.3c58.4,0,87.3-28.9,87.3-86.2V86.2C512,28.9,483.1,0,424.7,0H87.3C29.2,0,0,28.6,0,86.2v339.6  C0,483.4,29.2,512,87.3,512z M87.9,467.2c-27.8,0-43.1-14.7-43.1-43.7V88.4c0-28.9,15.3-43.7,43.1-43.7h336.2  c27.5,0,43.1,14.7,43.1,43.7v335.1c0,28.9-15.6,43.7-43.1,43.7H87.9z M249.2,388c67.3,0,103.7-48.1,103.7-141.3  c0-80.1-36.2-123.5-98.7-123.5c-57.6,0-94.6,34.8-94.6,88.7c0,52.3,39.8,82,83.2,82c37,0,58.7-18.4,67.6-38.9h2.2  c0.6,61.2-25.3,97.6-64,97.6c-18.9,0-32-8.1-43.4-23.6c-4.7-6.4-10.3-11.1-18.9-11.1c-10.8,0-18.6,7.2-18.6,18.1  c0,3.1,0.8,6.1,1.9,9.5C176,364.6,202.5,388,249.2,388z M255.9,262.5c-31.4,0-53.4-22-53.4-52.6c0-32.3,21.4-53.7,53.4-53.7  c30.6,0,53.4,22.8,53.4,54.2C309.3,240.6,287,262.5,255.9,262.5z"/>
</svg>