<?xml version="1.0" ?><!-- Generator: Adobe Illustrator 25.0.0, SVG Export Plug-In . SVG Version: 6.00 Build 0)  --><svg xmlns="http://www.w3.org/2000/svg" xmlns:xlink="http://www.w3.org/1999/xlink" version="1.1" id="Layer_1" x="0px" y="0px" viewBox="0 0 512 512" style="enable-background:new 0 0 512 512;" xml:space="preserve">
<path d="M306.1,461.9C418.5,461.9,512,368.4,512,256c0-112.4-93.7-205.9-206.2-205.9c-64.2,0-122.2,30.4-160,77.6  c-8.1-1.5-16.8-2.1-25.9-2.1c-47.2,0-86.7,21.9-101.8,54.2c-3.2,6.4-5.1,13-5.1,18.3c0,10.8,7.2,17.9,17.4,17.9  c7.7,0,13-3.2,16.4-10.2c14.5-31.9,38-45.5,72.3-45.5c1.9,0,3.6,0,5.3,0c-14.7,27.2-23.2,57.8-24,90.3C35.9,254.5,0,284.1,0,331.7  c0,49.3,37.6,82.5,92.7,82.5c22.7,0,44.4-7.2,62.1-19.6C192.6,435.8,246.5,461.9,306.1,461.9z M363.9,198.4  c0-57.4-33.2-98-89.7-110.9c10.2-1.9,20.8-3,31.7-3c95.4,0,171.3,76.1,171.7,171.5c0.2,75-47.2,138.1-113.7,161.7V198.4z M135,256  c0-50.8,21.3-96.1,55.7-127.3c11.7-3.2,24.4-4.7,39.5-4.7c53.8,0,85.7,29.5,85.7,79.3v31.2l-109.2,6.6c-28.5,1.9-52.7,7.7-71.6,17.4  C135,257.7,135,256.9,135,256z M212.5,278.3l103.3-6.8v37.4c0,50.4-39.7,90.8-92.9,97.3c-38.7-21.5-68-57.2-80.8-100.5  C156.2,290,180.2,280.4,212.5,278.3z M40,331.2c0-28.1,22.1-46.3,61.8-49.9c4.3,33.8,17,65.2,35.7,92c-11.1,4.7-23.2,7.2-36.3,7.2  C64.8,380.5,40,361,40,331.2z M306.1,427.3c-9.8,0-19.3-0.6-28.7-2.3c16.8-10.4,30.2-24.2,38.3-40.2h2.8v42.1  C314.3,427.3,310.3,427.3,306.1,427.3z"/>
</svg>