<?xml version="1.0" ?><!-- Generator: Adobe Illustrator 25.0.0, SVG Export Plug-In . SVG Version: 6.00 Build 0)  --><svg xmlns="http://www.w3.org/2000/svg" xmlns:xlink="http://www.w3.org/1999/xlink" version="1.1" id="Layer_1" x="0px" y="0px" viewBox="0 0 512 512" style="enable-background:new 0 0 512 512;" xml:space="preserve">
<path d="M74.6,512c18.4,0,27.4-6.9,34-26l44.7-122.8H358L402.7,486c6.6,19.1,15.6,26,33.6,26c18.4,0,30.2-11.1,30.2-28.4  c0-5.9-1-11.1-3.8-18.7L300.1,31.9C292.1,10.4,277.9,0,255.7,0c-21.5,0-36.1,10.4-43.7,31.6L49.3,465.2c-2.8,7.6-3.8,12.8-3.8,18.7  C45.4,501.2,56.5,512,74.6,512z M170.3,310.8l84.3-233.5h1.7l84.3,233.5H170.3z"/>
</svg>