<?xml version="1.0" ?><!-- Generator: Adobe Illustrator 25.0.0, SVG Export Plug-In . SVG Version: 6.00 Build 0)  --><svg xmlns="http://www.w3.org/2000/svg" xmlns:xlink="http://www.w3.org/1999/xlink" version="1.1" id="Layer_1" x="0px" y="0px" viewBox="0 0 512 512" style="enable-background:new 0 0 512 512;" xml:space="preserve">
<path d="M434.6,353c33.6,0,59.9-14.5,72.8-39.6c2.6-5,4.2-10.3,4.2-15c0-6.4-4.6-10.8-11.1-10.8c-5.3,0-8.2,2.1-11.2,8.7  c-8.9,22.4-27.9,34.7-54.7,34.7c-38.3,0-62.8-28.9-62.8-75.8c0-46.1,24.5-74.9,62.8-74.9c25.3,0,45.7,14.7,54.2,37.5  c3,6.6,6.6,9.3,12.2,9.3c6.6,0,10.9-4.3,10.9-10.8c0-3.4-0.7-7.2-2.2-11.3c-10.4-28.9-40.5-46.7-75.1-46.7  c-53.6,0-87.6,37.2-87.6,97C347,315.6,380.8,353,434.6,353z M11.1,353.6c7,0,10.4-3,12.9-10.3l17-46.6h77.6l17,46.6  c2.5,7.2,5.9,10.3,12.8,10.3c7,0,11.4-4.6,11.4-11.2c0-2.2-0.4-4.2-1.4-7.1L96.6,171.1c-3-8.2-8.4-12.6-16.8-12.6  c-8.2,0-13.7,4.5-16.6,12.5L1.4,335.5c-1.1,2.9-1.4,4.9-1.4,7.1C0,349.2,4.2,353.6,11.1,353.6z M195.4,349.8h63.9  c41.7,0,66.8-20.5,66.8-51.7c0-26.2-18.9-44.5-45.9-47.5v-0.9c20.8-3.4,36.1-21.6,36.1-42.8c0-26.4-23-45.4-57.6-45.4h-63.3  c-7.4,0-12.1,4.7-12.1,12.4v163.6C183.3,345,188,349.8,195.4,349.8z M208.2,243v-60.4H253c24.1,0,38.6,11.2,38.6,27.9  c0,20.5-16.2,32.5-43.9,32.5H208.2z M47.4,276.9l32-88.6H80l32,88.6H47.4z M208.2,328.9v-66.3h44.3c31.3,0,48.3,12,48.3,34.1  c0,20-16.4,32.2-46.1,32.2H208.2z"/>
</svg>