<?xml version="1.0" encoding="UTF-8"?>
<!--Generator: Apple Native CoreSVG 326-->
<!DOCTYPE svg
PUBLIC "-//W3C//DTD SVG 1.1//EN"
       "http://www.w3.org/Graphics/SVG/1.1/DTD/svg11.dtd">
<svg version="1.1" xmlns="http://www.w3.org/2000/svg" xmlns:xlink="http://www.w3.org/1999/xlink" viewBox="0 0 35.4102 24.3262">
 <g>
  <rect height="24.3262" opacity="0" width="35.4102" x="0" y="0"/>
  <path d="M0 12.1582C0 16.0938 1.29883 19.7266 3.48633 22.6562C3.82812 23.1055 4.38477 23.1543 4.81445 22.8125C5.20508 22.4805 5.25391 21.9629 4.95117 21.5332C2.98828 18.9258 1.82617 15.6641 1.82617 12.1582C1.82617 8.63281 2.98828 5.39062 4.95117 2.76367C5.25391 2.35352 5.21484 1.83594 4.81445 1.49414C4.39453 1.15234 3.81836 1.21094 3.48633 1.66016C1.29883 4.58008 0 8.21289 0 12.1582ZM35.0488 12.1582C35.0488 8.21289 33.75 4.58008 31.5527 1.66016C31.2207 1.21094 30.6543 1.15234 30.2246 1.49414C29.834 1.83594 29.7949 2.35352 30.0977 2.76367C32.0605 5.39062 33.2129 8.63281 33.2129 12.1582C33.2129 15.6641 32.0605 18.9258 30.0977 21.5332C29.7949 21.9629 29.834 22.4805 30.2246 22.8125C30.6543 23.1543 31.2207 23.1055 31.5527 22.6562C33.75 19.7266 35.0488 16.0938 35.0488 12.1582Z" fill="black" fill-opacity="0.85"/>
  <path d="M17.5195 24.3066C24.2285 24.3066 29.6777 18.8672 29.6777 12.1582C29.6777 5.44922 24.2285 0 17.5195 0C10.8105 0 5.37109 5.44922 5.37109 12.1582C5.37109 18.8672 10.8105 24.3066 17.5195 24.3066ZM17.5195 22.4902C11.8164 22.4902 7.1875 17.8613 7.1875 12.1582C7.1875 6.45508 11.8164 1.81641 17.5195 1.81641C23.2227 1.81641 27.8613 6.45508 27.8613 12.1582C27.8613 17.8613 23.2227 22.4902 17.5195 22.4902Z" fill="black" fill-opacity="0.85"/>
  <path d="M10.1074 16.2793C10.4688 16.2793 10.6738 16.0645 10.7422 15.7129L11.0449 14.248L13.0176 14.248L13.3398 15.7227C13.4277 16.123 13.6523 16.2793 13.9844 16.2793C14.3164 16.2793 14.5801 16.0059 14.5801 15.6836C14.5801 15.6055 14.541 15.3711 14.5117 15.2832L13.0078 8.84766C12.8906 8.30078 12.5684 8.02734 12.0215 8.02734C11.5137 8.02734 11.2012 8.28125 11.0645 8.84766L9.57031 15.2832C9.54102 15.4102 9.51172 15.5469 9.51172 15.6836C9.51172 16.084 9.77539 16.2793 10.1074 16.2793ZM11.2402 13.2617L11.9922 9.56055L12.041 9.56055L12.8223 13.2617ZM16.2988 16.1621L18.1445 16.1621C19.4824 16.1621 20.1465 15.1465 20.1465 13.916C20.1465 12.998 19.6289 12.0215 18.7598 11.9531L18.7598 11.9043C19.5605 11.709 19.9121 10.8301 19.9121 10.127C19.9121 8.96484 19.2773 8.13477 18.0859 8.13477L16.2988 8.13477C15.918 8.13477 15.6641 8.34961 15.6641 8.80859L15.6641 15.4883C15.6641 15.9082 15.8789 16.1621 16.2988 16.1621ZM16.9238 15.1758L16.9238 12.4707L17.7148 12.4707C18.5059 12.4707 18.8672 13.0273 18.8672 13.8184C18.8672 14.5898 18.5547 15.1758 17.7441 15.1758ZM16.9238 11.582L16.9238 9.13086L17.7246 9.13086C18.4277 9.13086 18.7012 9.61914 18.7012 10.3125C18.7012 11.0547 18.3691 11.582 17.627 11.582ZM23.2715 16.3281C24.707 16.3281 25.4688 15.3613 25.4688 14.0137C25.4688 12.7246 24.8047 12.168 23.8672 11.6992L23.4277 11.4746C22.793 11.1523 22.3828 10.8203 22.3828 10.0977C22.3828 9.51172 22.6758 9.02344 23.2324 9.02344C23.8184 9.02344 24.0625 9.49219 24.1895 10.0684C24.248 10.332 24.4824 10.498 24.7754 10.498C25.1172 10.498 25.3027 10.2539 25.3027 9.96094C25.3027 9.80469 25.2637 9.63867 25.2148 9.47266C24.9512 8.62305 24.2676 7.95898 23.2324 7.95898C22.0508 7.95898 21.1523 8.78906 21.1523 10.1953C21.1523 11.4453 21.8359 12.0215 22.7344 12.4902L23.1641 12.7148C23.8184 13.0566 24.2188 13.3789 24.2188 14.1211C24.2188 14.7754 23.8965 15.2832 23.2715 15.2832C22.6855 15.2832 22.3828 14.8145 22.2461 14.1992C22.1777 13.8965 21.9824 13.7402 21.6602 13.7402C21.3184 13.7402 21.1133 13.9844 21.1133 14.3262C21.1133 14.4531 21.1426 14.5801 21.1719 14.6973C21.4258 15.6836 22.1387 16.3281 23.2715 16.3281Z" fill="black" fill-opacity="0.85"/>
 </g>
</svg>
