<?xml version="1.0" encoding="UTF-8"?>
<!--Generator: Apple Native CoreSVG 326-->
<!DOCTYPE svg
PUBLIC "-//W3C//DTD SVG 1.1//EN"
       "http://www.w3.org/Graphics/SVG/1.1/DTD/svg11.dtd">
<svg version="1.1" xmlns="http://www.w3.org/2000/svg" xmlns:xlink="http://www.w3.org/1999/xlink" viewBox="0 0 35.5273 19.7754">
 <g>
  <rect height="19.7754" opacity="0" width="35.5273" x="0" y="0"/>
  <path d="M0.927734 19.707C1.46484 19.707 1.79688 19.4141 1.91406 18.877L2.94922 14.2676L8.07617 14.2676L9.12109 18.8867C9.23828 19.4238 9.58008 19.707 10.1074 19.707C10.6348 19.707 11.0645 19.3262 11.0645 18.7988C11.0645 18.7012 11.0352 18.5742 11.0156 18.4766L7.02148 1.48438C6.81641 0.693359 6.34766 0.146484 5.51758 0.146484C4.64844 0.146484 4.22852 0.664062 4.04297 1.49414L0.078125 18.3008C0.0488281 18.457 0 18.6719 0 18.8086C0 19.375 0.380859 19.707 0.927734 19.707ZM3.29102 12.5879L5.48828 2.72461L5.49805 2.72461L7.72461 12.5879ZM14.6777 19.4434L18.7012 19.4434C21.709 19.4434 23.3398 17.3145 23.3398 14.2188C23.3398 11.9922 22.3047 9.78516 20.1953 9.46289L20.1953 9.45312C21.8848 9.01367 22.7051 6.86523 22.7051 5.11719C22.7051 2.46094 21.2109 0.400391 18.6133 0.400391L14.6777 0.400391C14.0527 0.400391 13.7305 0.839844 13.7305 1.43555L13.7305 18.418C13.7305 18.9941 14.0234 19.4434 14.6777 19.4434ZM15.6445 17.7344L15.6445 10.4688L18.125 10.4688C20.3223 10.4688 21.3574 11.9238 21.3574 14.1113C21.3574 16.2012 20.4199 17.7344 18.2715 17.7344ZM15.6445 8.81836L15.6445 2.11914L18.1543 2.11914C19.9902 2.11914 20.7812 3.48633 20.7812 5.3418C20.7812 7.34375 19.8926 8.81836 17.9102 8.81836ZM30.4785 19.7754C33.6426 19.7754 35.166 17.4609 35.166 14.502C35.166 11.6895 33.9258 10.3711 31.4453 9.07227L30.498 8.58398C28.916 7.74414 27.8711 6.78711 27.8711 4.91211C27.8711 3.22266 28.6816 1.82617 30.3516 1.82617C31.9922 1.82617 32.8418 3.17383 33.0859 4.85352C33.1641 5.39062 33.5547 5.625 33.9941 5.625C34.5215 5.625 34.8438 5.22461 34.8438 4.70703C34.8438 2.92969 33.4473 0.0683594 30.3516 0.0683594C27.6172 0.0683594 25.957 2.22656 25.957 5.0293C25.957 7.75391 27.334 9.14062 29.668 10.3516L30.6152 10.8496C32.3242 11.748 33.252 12.7148 33.252 14.6289C33.252 16.4844 32.3926 18.0176 30.5176 18.0176C28.7207 18.0176 27.7734 16.5332 27.5488 14.7559C27.4414 14.1797 27.0312 13.9648 26.6309 13.9648C26.0938 13.9648 25.7812 14.3945 25.7812 14.9609C25.7812 16.748 27.1094 19.7754 30.4785 19.7754Z" fill="black" fill-opacity="0.85"/>
 </g>
</svg>
