<?xml version="1.0" encoding="UTF-8"?>
<!--Generator: Apple Native CoreSVG 326-->
<!DOCTYPE svg
PUBLIC "-//W3C//DTD SVG 1.1//EN"
       "http://www.w3.org/Graphics/SVG/1.1/DTD/svg11.dtd">
<svg version="1.1" xmlns="http://www.w3.org/2000/svg" xmlns:xlink="http://www.w3.org/1999/xlink" viewBox="0 0 44.7461 20.0293">
 <g>
  <rect height="20.0293" opacity="0" width="44.7461" x="0" y="0"/>
  <path d="M13.4277 16.1426C13.4277 18.252 11.7773 19.9121 9.66797 19.9121C7.54883 19.9121 5.89844 18.252 5.89844 16.1426C5.89844 14.0332 7.54883 12.3828 9.66797 12.3828C11.7773 12.3828 13.4277 14.0332 13.4277 16.1426ZM38.4863 16.1426C38.4863 18.252 36.8359 19.9121 34.7168 19.9121C32.6074 19.9121 30.9473 18.252 30.9473 16.1426C30.9473 14.0332 32.6074 12.3828 34.7168 12.3828C36.8359 12.3828 38.4863 14.0332 38.4863 16.1426ZM38.9551 4.66797L40.9668 5.3418C43.3105 6.11328 44.3848 7.49023 44.3848 9.75586L44.3848 13.2422C44.3848 16.0254 43.1738 17.3047 40.5371 17.3047L39.7168 17.3047C39.8047 16.9238 39.8535 16.543 39.8535 16.1426C39.8535 13.2812 37.5879 11.0254 34.7168 11.0254C31.8457 11.0254 29.5898 13.2812 29.5898 16.1426C29.5898 16.543 29.6387 16.9238 29.7168 17.3047L14.6582 17.3047C14.7461 16.9238 14.7949 16.543 14.7949 16.1426C14.7949 13.2812 12.5391 11.0254 9.66797 11.0254C6.78711 11.0254 4.53125 13.2812 4.53125 16.1426C4.53125 16.543 4.58008 16.9238 4.6582 17.3047L3.83789 17.3047C1.23047 17.3047 0 16.0449 0 13.3008L0 11.6602C0 8.78906 2.03125 6.72852 5.38086 6.30859L11.0254 5.61523L16.1328 2.42188C19.1602 0.517578 21.3672 0 26.4062 0L28.2227 0C32.9297 0 36.25 2.42188 38.9551 4.66797ZM17.3242 5.99609L16.0156 11.3965C15.9668 11.5723 15.9375 11.709 15.9375 11.8555C15.9375 12.3242 16.25 12.5293 16.6016 12.5293C17.0215 12.5293 17.2266 12.3145 17.3145 11.8848L17.5488 10.8594L19.2676 10.8594L19.5215 11.9043C19.6191 12.3242 19.834 12.5293 20.2148 12.5293C20.6348 12.5293 20.9082 12.2461 20.9082 11.8555C20.9082 11.6992 20.8691 11.5723 20.8398 11.3965L19.502 5.99609C19.3652 5.40039 18.9941 5.12695 18.3984 5.12695C17.832 5.12695 17.4512 5.41016 17.3242 5.99609ZM21.8652 5.86914L21.8652 11.7871C21.8652 12.2461 22.1484 12.5293 22.5879 12.5293C23.0371 12.5293 23.3105 12.2461 23.3105 11.7871L23.3105 5.86914C23.3105 5.41992 23.0371 5.12695 22.5879 5.12695C22.1484 5.12695 21.8652 5.41992 21.8652 5.86914ZM25.2637 5.22461C24.8047 5.22461 24.5508 5.50781 24.5508 5.97656L24.5508 11.7871C24.5508 12.2363 24.8145 12.5293 25.2637 12.5293C25.6934 12.5293 25.9766 12.2461 25.9766 11.7871L25.9766 9.7168L26.6602 9.7168L27.4707 11.9531C27.5977 12.3145 27.8027 12.5293 28.1738 12.5293C28.5938 12.5293 28.877 12.2656 28.877 11.8945C28.877 11.7676 28.8184 11.582 28.7598 11.4062L27.9785 9.41406C28.6523 9.0332 28.916 8.24219 28.916 7.49023C28.916 6.14258 28.1934 5.22461 26.6699 5.22461ZM19.082 9.79492L17.7344 9.79492L18.3594 6.76758L18.418 6.76758ZM27.4609 7.50977C27.4609 8.14453 27.168 8.69141 26.5527 8.70117L25.9766 8.71094L25.9766 6.32812L26.543 6.32812C27.1484 6.32812 27.4609 6.89453 27.4609 7.50977Z" fill="black" fill-opacity="0.85"/>
 </g>
</svg>
