<?xml version="1.0" encoding="UTF-8"?>
<!--Generator: Apple Native CoreSVG 326-->
<!DOCTYPE svg
PUBLIC "-//W3C//DTD SVG 1.1//EN"
       "http://www.w3.org/Graphics/SVG/1.1/DTD/svg11.dtd">
<svg version="1.1" xmlns="http://www.w3.org/2000/svg" xmlns:xlink="http://www.w3.org/1999/xlink" viewBox="0 0 44.7461 20.0293">
 <g>
  <rect height="20.0293" opacity="0" width="44.7461" x="0" y="0"/>
  <path d="M3.83789 17.3047L5.63477 17.3047L5.63477 15.5664L3.83789 15.5664C2.40234 15.5664 1.72852 14.834 1.72852 13.2422L1.72852 11.6602C1.72852 9.73633 3.1543 8.31055 5.60547 8.01758L10.6738 7.40234C11.4453 7.30469 11.8945 7.13867 12.4023 6.82617L17.0605 3.89648C19.834 2.1582 21.6992 1.73828 26.4062 1.73828L28.2227 1.73828C31.6309 1.73828 34.2676 2.95898 37.5488 5.83008C38.0957 6.30859 38.3887 6.42578 39.0527 6.64062L40.459 7.08984C41.9824 7.58789 42.6562 8.34961 42.6562 9.75586L42.6562 13.2422C42.6562 14.834 41.9824 15.5664 40.5371 15.5664L38.7207 15.5664L38.7207 17.3047L40.5371 17.3047C43.1738 17.3047 44.3848 16.0254 44.3848 13.2422L44.3848 9.75586C44.3848 7.49023 43.3105 6.11328 40.9668 5.3418L38.9551 4.66797C36.25 2.36328 32.9297 0 28.2227 0L26.4062 0C21.3672 0 19.1602 0.517578 16.1328 2.42188L11.0254 5.61523L5.38086 6.30859C2.03125 6.72852 0 8.78906 0 11.6602L0 13.3008C0 16.0449 1.23047 17.3047 3.83789 17.3047ZM12.2852 17.3047L32.2363 17.3047L32.2363 15.5664L12.2852 15.5664ZM9.07227 20.0098C11.4941 20.0098 13.3887 18.1152 13.3887 15.6934C13.3887 13.2715 11.4941 11.3867 9.07227 11.3867C6.65039 11.3867 4.76562 13.2715 4.76562 15.6934C4.76562 18.1152 6.65039 20.0098 9.07227 20.0098ZM9.07227 18.3789C7.57812 18.3789 6.39648 17.1973 6.39648 15.6934C6.39648 14.1992 7.57812 13.0176 9.07227 13.0176C10.5762 13.0176 11.7578 14.1992 11.7578 15.6934C11.7578 17.1973 10.5762 18.3789 9.07227 18.3789ZM35.3125 20.0098C37.7246 20.0098 39.6191 18.1152 39.6191 15.6934C39.6191 13.2715 37.7246 11.3867 35.3125 11.3867C32.8906 11.3867 30.9961 13.2715 30.9961 15.6934C30.9961 18.1152 32.8906 20.0098 35.3125 20.0098ZM35.3125 18.3789C33.8086 18.3789 32.627 17.1973 32.627 15.6934C32.627 14.1992 33.8086 13.0176 35.3125 13.0176C36.8066 13.0176 37.9883 14.1992 37.9883 15.6934C37.9883 17.1973 36.8066 18.3789 35.3125 18.3789Z" fill="black" fill-opacity="0.85"/>
  <path d="M17.041 12.8418C17.4512 12.8418 17.6465 12.627 17.7246 12.207L17.959 11.1914L19.6484 11.1914L19.9023 12.2266C19.9902 12.6367 20.2148 12.8418 20.5762 12.8418C20.9766 12.8418 21.2402 12.5586 21.2402 12.1875C21.2402 12.041 21.2109 11.9043 21.1719 11.7383L19.873 6.45508C19.7266 5.86914 19.3848 5.60547 18.7988 5.60547C18.2422 5.60547 17.8906 5.87891 17.7539 6.45508L16.4648 11.7383C16.4258 11.9043 16.4062 12.041 16.4062 12.1875C16.4062 12.6367 16.6992 12.8418 17.041 12.8418ZM18.1445 10.166L18.7695 7.19727L18.8184 7.19727L19.4629 10.166ZM22.8809 12.8418C23.3105 12.8418 23.584 12.5586 23.584 12.1191L23.584 6.32812C23.584 5.88867 23.3105 5.60547 22.8809 5.60547C22.4512 5.60547 22.1875 5.88867 22.1875 6.32812L22.1875 12.1191C22.1875 12.5586 22.4512 12.8418 22.8809 12.8418ZM25.4883 12.832C25.9082 12.832 26.1719 12.5586 26.1719 12.1191L26.1719 10.0879L26.8457 10.0879L27.6465 12.2754C27.7734 12.627 27.9688 12.832 28.3301 12.832C28.7305 12.832 29.0137 12.5781 29.0137 12.2168C29.0137 12.0898 28.9648 11.9238 28.8965 11.748L28.125 9.79492C28.7891 9.42383 29.043 8.65234 29.043 7.91016C29.043 6.60156 28.3496 5.71289 26.8555 5.71289L25.4883 5.71289C25.0488 5.71289 24.7949 5.98633 24.7949 6.43555L24.7949 12.1191C24.7949 12.5586 25.0586 12.832 25.4883 12.832ZM26.1719 9.10156L26.1719 6.77734L26.7285 6.77734C27.334 6.77734 27.6465 7.33398 27.6465 7.93945C27.6465 8.56445 27.3438 9.0918 26.7383 9.0918Z" fill="black" fill-opacity="0.85"/>
 </g>
</svg>
