<?xml version="1.0" encoding="UTF-8"?>
<!--Generator: Apple Native CoreSVG 326-->
<!DOCTYPE svg
PUBLIC "-//W3C//DTD SVG 1.1//EN"
       "http://www.w3.org/Graphics/SVG/1.1/DTD/svg11.dtd">
<svg version="1.1" xmlns="http://www.w3.org/2000/svg" xmlns:xlink="http://www.w3.org/1999/xlink" viewBox="0 0 31.7047 29.4434">
 <g>
  <rect height="29.4434" opacity="0" width="31.7047" x="0" y="0"/>
  <path d="M5.59842 29.4434L13.1668 29.4434C14.8465 29.4434 15.9012 28.3984 15.9012 26.748L15.9012 2.70508C15.9012 1.05469 14.8465 0.00976562 13.1668 0.00976562L5.59842 0.00976562C3.90897 0.00976562 2.85428 1.05469 2.85428 2.70508L2.85428 26.748C2.85428 28.3984 3.90897 29.4434 5.59842 29.4434ZM5.62772 27.7148C4.97342 27.7148 4.58279 27.3145 4.58279 26.6602L4.58279 2.79297C4.58279 2.12891 4.97342 1.73828 5.62772 1.73828L13.1375 1.73828C13.7918 1.73828 14.1726 2.12891 14.1726 2.79297L14.1726 26.6602C14.1726 27.3145 13.7918 27.7148 13.1375 27.7148ZM12.2 9.64844C12.532 9.64844 12.8055 9.38477 12.8055 9.04297L12.8055 4.0918C12.8055 3.75977 12.532 3.49609 12.2 3.49609C11.8582 3.49609 11.5847 3.75977 11.5847 4.0918L11.5847 9.04297C11.5847 9.38477 11.8582 9.64844 12.2 9.64844ZM9.64139 9.64844C9.97342 9.64844 10.2371 9.38477 10.2371 9.04297L10.2371 4.0918C10.2371 3.75977 9.97342 3.49609 9.64139 3.49609C9.29959 3.49609 9.02615 3.75977 9.02615 4.0918L9.02615 9.04297C9.02615 9.38477 9.29959 9.64844 9.64139 9.64844ZM12.2 17.7344C12.532 17.7344 12.8055 17.4707 12.8055 17.1289L12.8055 12.1777C12.8055 11.8457 12.532 11.582 12.2 11.582C11.8582 11.582 11.5847 11.8457 11.5847 12.1777L11.5847 17.1289C11.5847 17.4707 11.8582 17.7344 12.2 17.7344ZM9.64139 17.7344C9.97342 17.7344 10.2371 17.4707 10.2371 17.1289L10.2371 12.1777C10.2371 11.8457 9.97342 11.582 9.64139 11.582C9.29959 11.582 9.02615 11.8457 9.02615 12.1777L9.02615 17.1289C9.02615 17.4707 9.29959 17.7344 9.64139 17.7344ZM12.2 25.8301C12.532 25.8301 12.8055 25.5664 12.8055 25.2344L12.8055 20.293C12.8055 19.9414 12.532 19.6777 12.2 19.6777C11.8582 19.6777 11.5847 19.9414 11.5847 20.293L11.5847 25.2344C11.5847 25.5664 11.8582 25.8301 12.2 25.8301ZM9.64139 25.8301C9.97342 25.8301 10.2371 25.5664 10.2371 25.2344L10.2371 20.293C10.2371 19.9414 9.97342 19.6777 9.64139 19.6777C9.29959 19.6777 9.02615 19.9414 9.02615 20.293L9.02615 25.2344C9.02615 25.5664 9.29959 25.8301 9.64139 25.8301Z" fill="black" fill-opacity="0.85"/>
  <path d="M21.243 9.35547C21.5066 9.35547 21.6922 9.13086 21.6726 8.85742L21.614 7.75391L22.5418 8.36914C22.7469 8.49609 23.0496 8.45703 23.1863 8.23242C23.3328 8.00781 23.2351 7.70508 22.9715 7.59766L21.9851 7.08984L22.991 6.57227C23.2156 6.46484 23.323 6.18164 23.1961 5.9375C23.0789 5.72266 22.7566 5.66406 22.532 5.82031L21.614 6.43555L21.6824 5.33203C21.7019 5.06836 21.5164 4.82422 21.243 4.82422C20.9695 4.82422 20.784 5.04883 20.8035 5.32227L20.8621 6.44531L19.9246 5.82031C19.7 5.67383 19.407 5.71289 19.2801 5.9375C19.1433 6.18164 19.241 6.45508 19.4851 6.57227L20.4812 7.08984L19.4949 7.58789C19.241 7.70508 19.1336 7.98828 19.2703 8.23242C19.3972 8.44727 19.7 8.49609 19.9246 8.35938L20.8621 7.74414L20.8133 8.85742C20.8035 9.14062 20.9793 9.35547 21.243 9.35547ZM28.157 24.4629C28.4402 24.4629 28.6258 24.248 28.5965 23.9746L28.5379 22.8418L29.4851 23.4766C29.7097 23.6133 29.993 23.5742 30.1101 23.3496C30.2566 23.1055 30.1492 22.832 29.9148 22.7148L28.9187 22.1973L29.9051 21.6992C30.159 21.582 30.2664 21.3086 30.1297 21.0547C30.0125 20.8398 29.7097 20.791 29.4851 20.9277L28.5379 21.543L28.5867 20.4297C28.5965 20.1562 28.4305 19.9414 28.157 19.9414C27.9031 19.9414 27.7176 20.166 27.7371 20.4297L27.7957 21.543L26.8582 20.9375C26.6531 20.8008 26.3601 20.8398 26.2137 21.0547C26.0574 21.2891 26.1746 21.5918 26.4383 21.6992L27.4148 22.1973L26.4187 22.7148C26.1844 22.8418 26.0769 23.1055 26.2039 23.3496C26.3211 23.5742 26.6433 23.623 26.868 23.4766L27.7957 22.8516L27.7273 23.9551C27.7078 24.2285 27.8933 24.4629 28.157 24.4629ZM20.7547 13.1738C23.9969 13.1738 25.7547 10.4785 28.6355 10.4785C29.3484 10.4785 29.9246 10.625 30.6375 11.0254C31.0379 11.25 31.3894 11.0938 31.575 10.8301C31.7801 10.5176 31.7605 10.0391 31.282 9.76562C30.4617 9.28711 29.5828 9.05273 28.6355 9.05273C25.2957 9.05273 23.5574 11.7578 20.7547 11.7578C20.0515 11.7578 19.4656 11.5918 18.7527 11.1914C18.3719 10.9766 18.0008 11.1133 17.825 11.4062C17.6297 11.7188 17.6492 12.207 18.1082 12.4609C18.9187 12.9688 19.8172 13.1738 20.7547 13.1738ZM20.7644 16.7773C23.9969 16.7773 25.7644 14.0918 28.6355 14.0918C29.3582 14.0918 29.9344 14.2383 30.6472 14.6387C31.0379 14.8633 31.3992 14.707 31.5847 14.4434C31.7801 14.1309 31.7703 13.6426 31.3015 13.3789C30.4715 12.9004 29.5828 12.666 28.6355 12.666C25.3055 12.666 23.5672 15.3613 20.7644 15.3613C20.0515 15.3613 19.4656 15.2051 18.7625 14.8047C18.3816 14.5898 18.0008 14.7266 17.825 15.0195C17.6297 15.332 17.6492 15.8105 18.118 16.0742C18.9285 16.5723 19.8269 16.7773 20.7644 16.7773ZM20.7547 20.3906C23.9969 20.3906 25.7547 17.6953 28.6355 17.6953C29.3484 17.6953 29.9246 17.8516 30.6375 18.252C31.0379 18.4766 31.3894 18.3203 31.575 18.0566C31.7801 17.7441 31.7605 17.2559 31.282 16.9824C30.4617 16.5039 29.5828 16.2695 28.6355 16.2695C25.2957 16.2695 23.5574 18.9746 20.7547 18.9746C20.0515 18.9746 19.4656 18.8184 18.7527 18.418C18.3719 18.2031 18.0008 18.3398 17.825 18.6328C17.6297 18.9453 17.6492 19.4238 18.1082 19.6875C18.9187 20.1855 19.8172 20.3906 20.7547 20.3906Z" fill="black" fill-opacity="0.85"/>
 </g>
</svg>
