<?xml version="1.0" encoding="UTF-8"?>
<!--Generator: Apple Native CoreSVG 326-->
<!DOCTYPE svg
PUBLIC "-//W3C//DTD SVG 1.1//EN"
       "http://www.w3.org/Graphics/SVG/1.1/DTD/svg11.dtd">
<svg version="1.1" xmlns="http://www.w3.org/2000/svg" xmlns:xlink="http://www.w3.org/1999/xlink" viewBox="0 0 44.3945 20.0488">
 <g>
  <rect height="20.0488" opacity="0" width="44.3945" x="0" y="0"/>
  <path d="M3.03711 17.1777L6.81641 17.1777L6.81641 15.4492L3.13477 15.4492C2.23633 15.4492 1.72852 14.873 1.72852 13.8574L1.72852 11.9141C1.72852 9.57031 3.23242 8.27148 6.46484 7.87109L11.5332 7.23633L16.9238 3.86719C19.6973 2.13867 21.3574 1.72852 26.2012 1.72852L35.957 1.72852C38.1543 1.72852 39.4727 2.35352 40.5078 3.84766L41.0742 4.66797C41.8555 5.81055 42.3047 7.13867 42.3047 8.37891L42.3047 13.916C42.3047 14.9512 41.875 15.4492 40.9082 15.4492L37.959 15.4492L37.959 17.1777L41.0059 17.1777C43.0762 17.1777 44.0332 16.1035 44.0332 13.8086L44.0332 8.37891C44.0332 6.82617 43.4766 5.10742 42.5 3.68164L41.9336 2.86133C40.5566 0.849609 38.7793 0 35.957 0L26.2012 0C21.0645 0 19.043 0.488281 16.0059 2.39258L10.9473 5.57617L6.25 6.15234C2.07031 6.66992 0 8.57422 0 11.9141L0 14.0527C0 16.0254 1.12305 17.1777 3.03711 17.1777ZM12.8711 17.1777L31.9922 17.1777L31.9922 15.4492L12.8711 15.4492ZM9.79492 20.0195C12.1387 20.0195 13.9844 18.1836 13.9844 15.8398C13.9844 13.4863 12.1387 11.6504 9.79492 11.6504C7.45117 11.6504 5.60547 13.4863 5.60547 15.8398C5.60547 18.1836 7.45117 20.0195 9.79492 20.0195ZM9.79492 18.291C8.41797 18.291 7.34375 17.2168 7.34375 15.8398C7.34375 14.4531 8.41797 13.3789 9.79492 13.3789C11.1719 13.3789 12.2461 14.4531 12.2461 15.8398C12.2461 17.2168 11.1719 18.291 9.79492 18.291ZM35.0293 20.0195C37.3828 20.0195 39.2188 18.1836 39.2188 15.8398C39.2188 13.4863 37.3828 11.6504 35.0293 11.6504C32.6855 11.6504 30.8496 13.4863 30.8496 15.8398C30.8496 18.1836 32.6855 20.0195 35.0293 20.0195ZM35.0293 18.291C33.6523 18.291 32.5781 17.2168 32.5781 15.8398C32.5781 14.4531 33.6523 13.3789 35.0293 13.3789C36.416 13.3789 37.4902 14.4531 37.4902 15.8398C37.4902 17.2168 36.416 18.291 35.0293 18.291Z" fill="black" fill-opacity="0.85"/>
  <path d="M17.3047 12.5488C17.7148 12.5488 17.9102 12.334 17.9883 11.9141L18.2227 10.8984L19.9121 10.8984L20.166 11.9336C20.2539 12.3438 20.4688 12.5488 20.8301 12.5488C21.2402 12.5488 21.5039 12.2656 21.5039 11.8945C21.5039 11.7383 21.4648 11.6113 21.4355 11.4453L20.127 6.15234C19.9902 5.57617 19.6387 5.3125 19.0527 5.3125C18.5059 5.3125 18.1445 5.58594 18.0176 6.15234L16.7285 11.4453C16.6895 11.6113 16.6602 11.748 16.6602 11.8945C16.6602 12.3438 16.9629 12.5488 17.3047 12.5488ZM18.4082 9.87305L19.0234 6.9043L19.0723 6.9043L19.7266 9.87305ZM23.1445 12.5488C23.5742 12.5488 23.8379 12.2656 23.8379 11.8262L23.8379 6.03516C23.8379 5.5957 23.5742 5.3125 23.1445 5.3125C22.7148 5.3125 22.4414 5.5957 22.4414 6.03516L22.4414 11.8262C22.4414 12.2656 22.7148 12.5488 23.1445 12.5488ZM25.7422 12.5391C26.1621 12.5391 26.4355 12.2656 26.4355 11.8262L26.4355 9.78516L27.0996 9.78516L27.9102 11.9824C28.0371 12.334 28.2324 12.5391 28.5938 12.5391C28.9941 12.5391 29.2676 12.2852 29.2676 11.9238C29.2676 11.7969 29.2188 11.6309 29.1602 11.4551L28.3887 9.49219C29.043 9.12109 29.3066 8.34961 29.3066 7.61719C29.3066 6.30859 28.6035 5.41016 27.1191 5.41016L25.7422 5.41016C25.3027 5.41016 25.0488 5.68359 25.0488 6.13281L25.0488 11.8262C25.0488 12.2656 25.3125 12.5391 25.7422 12.5391ZM26.4355 8.80859L26.4355 6.48438L26.9922 6.48438C27.5879 6.48438 27.9004 7.03125 27.9004 7.64648C27.9004 8.27148 27.6074 8.79883 27.002 8.79883Z" fill="black" fill-opacity="0.85"/>
 </g>
</svg>
