<?xml version="1.0" encoding="UTF-8"?>
<!--Generator: Apple Native CoreSVG 326-->
<!DOCTYPE svg
PUBLIC "-//W3C//DTD SVG 1.1//EN"
       "http://www.w3.org/Graphics/SVG/1.1/DTD/svg11.dtd">
<svg version="1.1" xmlns="http://www.w3.org/2000/svg" xmlns:xlink="http://www.w3.org/1999/xlink" viewBox="0 0 47.8516 20.0488">
 <g>
  <rect height="20.0488" opacity="0" width="47.8516" x="0" y="0"/>
  <path d="M3.03711 17.1777L6.39648 17.1777L6.39648 15.4492L3.13477 15.4492C2.23633 15.4492 1.72852 14.873 1.72852 13.8574L1.72852 11.416C1.72852 9.43359 2.94922 8.38867 5.78125 7.97852L10.8398 7.23633L16.3672 3.78906C18.8281 2.25586 20.8984 1.72852 24.6094 1.72852L29.6094 1.72852C30.9766 1.72852 31.7676 2.45117 31.9141 3.80859L32.3242 7.55859L44.3555 7.55859C45.2539 7.55859 45.7617 8.125 45.7617 9.14062L45.7617 13.8574C45.7617 14.873 45.2539 15.4492 44.3555 15.4492L39.1699 15.4492L39.1699 17.1777L44.4434 17.1777C46.3672 17.1777 47.4902 16.0254 47.4902 14.0527L47.4902 8.94531C47.4902 6.97266 46.3672 5.82031 44.4434 5.82031L33.9062 5.82031L33.6523 3.56445C33.3789 1.21094 32.0312 0 29.6973 0L24.6094 0C20.5273 0 18.1836 0.585938 15.4395 2.30469L10.2539 5.57617L5.55664 6.25977C1.74805 6.81641 0 8.4668 0 11.416L0 14.0527C0 16.0254 1.12305 17.1777 3.03711 17.1777ZM12.4512 17.1777L32.832 17.1777L32.832 15.4492L12.4512 15.4492ZM9.36523 20.0195C11.7188 20.0195 13.5547 18.1836 13.5547 15.8398C13.5547 13.4863 11.7188 11.6504 9.36523 11.6504C7.02148 11.6504 5.18555 13.4863 5.18555 15.8398C5.18555 18.1836 7.02148 20.0195 9.36523 20.0195ZM9.36523 18.291C7.98828 18.291 6.91406 17.2168 6.91406 15.8398C6.91406 14.4531 7.98828 13.3789 9.36523 13.3789C10.752 13.3789 11.8262 14.4531 11.8262 15.8398C11.8262 17.2168 10.752 18.291 9.36523 18.291ZM35.8496 20.0195C38.2031 20.0195 40.0391 18.1836 40.0391 15.8398C40.0391 13.4863 38.2031 11.6504 35.8496 11.6504C33.5059 11.6504 31.6602 13.4863 31.6602 15.8398C31.6602 18.1836 33.5059 20.0195 35.8496 20.0195ZM35.8496 18.291C34.4727 18.291 33.3984 17.2168 33.3984 15.8398C33.3984 14.4531 34.4727 13.3789 35.8496 13.3789C37.2363 13.3789 38.3105 14.4531 38.3105 15.8398C38.3105 17.2168 37.2363 18.291 35.8496 18.291Z" fill="black" fill-opacity="0.85"/>
  <path d="M17.0117 12.5488C17.4121 12.5488 17.6074 12.334 17.6855 11.9141L17.9297 10.8984L19.6094 10.8984L19.8633 11.9336C19.9512 12.3438 20.1758 12.5488 20.5371 12.5488C20.9375 12.5488 21.2012 12.2656 21.2012 11.8945C21.2012 11.7383 21.1719 11.6113 21.1328 11.4453L19.834 6.15234C19.6973 5.57617 19.3457 5.3125 18.7598 5.3125C18.2031 5.3125 17.8516 5.58594 17.7246 6.15234L16.4258 11.4453C16.3965 11.6113 16.3672 11.748 16.3672 11.8945C16.3672 12.3438 16.6602 12.5488 17.0117 12.5488ZM18.1055 9.87305L18.7305 6.9043L18.7793 6.9043L19.4238 9.87305ZM22.8418 12.5488C23.2812 12.5488 23.5449 12.2656 23.5449 11.8262L23.5449 6.03516C23.5449 5.5957 23.2812 5.3125 22.8418 5.3125C22.4121 5.3125 22.1484 5.5957 22.1484 6.03516L22.1484 11.8262C22.1484 12.2656 22.4121 12.5488 22.8418 12.5488ZM25.4492 12.5391C25.8691 12.5391 26.1328 12.2656 26.1328 11.8262L26.1328 9.78516L26.8066 9.78516L27.6172 11.9824C27.7344 12.334 27.9395 12.5391 28.291 12.5391C28.6914 12.5391 28.9746 12.2852 28.9746 11.9238C28.9746 11.7969 28.9258 11.6309 28.8672 11.4551L28.0859 9.49219C28.75 9.12109 29.0137 8.34961 29.0137 7.61719C29.0137 6.30859 28.3105 5.41016 26.8164 5.41016L25.4492 5.41016C25.0098 5.41016 24.7559 5.68359 24.7559 6.13281L24.7559 11.8262C24.7559 12.2656 25.0195 12.5391 25.4492 12.5391ZM26.1328 8.80859L26.1328 6.48438L26.6992 6.48438C27.2949 6.48438 27.6074 7.03125 27.6074 7.64648C27.6074 8.27148 27.3047 8.79883 26.6992 8.79883Z" fill="black" fill-opacity="0.85"/>
 </g>
</svg>
