<?xml version="1.0" encoding="UTF-8"?>
<!--Generator: Apple Native CoreSVG 326-->
<!DOCTYPE svg
PUBLIC "-//W3C//DTD SVG 1.1//EN"
       "http://www.w3.org/Graphics/SVG/1.1/DTD/svg11.dtd">
<svg version="1.1" xmlns="http://www.w3.org/2000/svg" xmlns:xlink="http://www.w3.org/1999/xlink" viewBox="0 0 26.6406 21.8066">
 <g>
  <rect height="21.8066" opacity="0" width="26.6406" x="0" y="0"/>
  <path d="M7.48047 21.7969L18.7988 21.7969C23.8184 21.7969 26.2793 19.3555 26.2793 14.375L26.2793 7.41211C26.2793 2.44141 23.8184 0 18.7988 0L7.48047 0C2.46094 0 0 2.44141 0 7.41211L0 14.375C0 19.3555 2.46094 21.7969 7.48047 21.7969ZM7.48047 20.0586C3.55469 20.0586 1.72852 18.2617 1.72852 14.375L1.72852 7.41211C1.72852 3.53516 3.55469 1.72852 7.48047 1.72852L18.7988 1.72852C22.7246 1.72852 24.5508 3.53516 24.5508 7.41211L24.5508 14.375C24.5508 18.2617 22.7246 20.0586 18.7988 20.0586ZM0.878906 8.28125L25.4004 8.28125L25.4004 7.13867L0.878906 7.13867ZM8.1543 9.13086L18.125 9.13086C18.9551 9.13086 19.5508 8.54492 19.5508 7.71484C19.5508 6.875 18.9551 6.28906 18.125 6.28906L8.1543 6.28906C7.35352 6.28906 6.72852 6.875 6.72852 7.71484C6.72852 8.54492 7.35352 9.13086 8.1543 9.13086ZM13.1348 13.3594C13.7793 13.3398 14.2969 12.8223 14.2969 12.207C14.2969 11.5723 13.7793 11.0449 13.1348 11.0449C12.5 11.0449 11.9727 11.5723 11.9727 12.207C11.9727 12.832 12.5 13.3691 13.1348 13.3594Z" fill="black" fill-opacity="0.85"/>
 </g>
</svg>
