<?xml version="1.0" ?><!-- Generator: Adobe Illustrator 25.0.0, SVG Export Plug-In . SVG Version: 6.00 Build 0)  --><svg xmlns="http://www.w3.org/2000/svg" xmlns:xlink="http://www.w3.org/1999/xlink" version="1.1" id="Layer_1" x="0px" y="0px" viewBox="0 0 512 512" style="enable-background:new 0 0 512 512;" xml:space="preserve">
<path d="M512,256c-0.2-26.6-36.3-45.9-79.7-45.9h-91.5c-12.7,0-17.5-2-25-10.7L163.1,32.9c-4.8-5.5-10.7-8.2-17.5-8.2h-26.3  c-5.9,0-9.3,5.2-6.4,11.6l78.6,173.8L76.1,223.3L35,147.9c-3-5.7-8-8.2-15.4-8.2H9.8c-5.9,0-9.8,3.9-9.8,9.8v213.1  c0,5.9,3.9,9.5,9.8,9.5h9.8c7.5,0,12.5-2.5,15.4-8l41.1-75.4l115.4,13.2l-78.6,173.8c-3,6.1,0.5,11.6,6.4,11.6h26.3  c6.8,0,12.7-3,17.5-8.2l152.6-166.7c7.5-8.4,12.3-10.4,25-10.4h91.5C475.7,301.9,511.8,282.3,512,256z"/>
</svg>