<?xml version="1.0" ?><!-- Generator: Adobe Illustrator 25.0.0, SVG Export Plug-In . SVG Version: 6.00 Build 0)  --><svg xmlns="http://www.w3.org/2000/svg" xmlns:xlink="http://www.w3.org/1999/xlink" version="1.1" id="Layer_1" x="0px" y="0px" viewBox="0 0 512 512" style="enable-background:new 0 0 512 512;" xml:space="preserve">
<path d="M111.8,299.7l341.4-91c12.7-3.5,24-8.6,33.8-15.5c9.8-6.9,16.9-14.8,21.3-23.8c4.4-9,4.8-18.1,1.4-27.6  c-3.2-8.6-9.1-15.1-17.8-19.4c-8.7-4.3-18.7-6.6-30.2-6.8c-11.4-0.2-22.8,1.6-34.2,5.5l-119.6,41c-4.1,1.3-7.9,1.9-11.4,1.7  c-3.5-0.2-7.7-1.4-12.4-3.7L117.2,81.3c-5.6-2.5-11.1-3-16.7-1.4l-13.7,4.2c-2.4,0.8-3.8,2.4-4.4,4.8c-0.5,2.4,0.3,4.7,2.4,7  l114.1,121l3.8-18.9l-100.7,34.6l39,1.2L24.2,192.4c-2.7-0.9-5.2-1.1-7.7-0.6c-2.5,0.5-5,2-7.7,4.4l-5.8,5.4c-2,1.7-3,3.7-3.1,6  c-0.1,2.3,0.7,4.2,2.3,6l69.9,78.4c4.6,5.2,10.3,8.3,17,9.5C95.9,302.5,103.4,301.9,111.8,299.7z" class="hierarchical-0:primary SFSymbolsPreview212121" style="fill: #212121;"/>
<path d="M38.9,433h429.6c4.4,0,8.2-1.6,11.3-4.8c3.2-3.2,4.8-7,4.8-11.3c0-4.4-1.6-8.1-4.8-11.2c-3.2-3.1-7-4.7-11.3-4.7H38.9  c-4.4,0-8.1,1.6-11.2,4.7c-3.1,3.1-4.7,6.9-4.7,11.2c0,4.4,1.6,8.2,4.7,11.3C30.8,431.4,34.5,433,38.9,433z" class="hierarchical-1:secondary SFSymbolsPreview4D4D4D" style="fill: #4D4D4D;"/>
</svg>