<?xml version="1.0" encoding="UTF-8"?>
<!--Generator: Apple Native CoreSVG 326-->
<!DOCTYPE svg
PUBLIC "-//W3C//DTD SVG 1.1//EN"
       "http://www.w3.org/Graphics/SVG/1.1/DTD/svg11.dtd">
<svg version="1.1" xmlns="http://www.w3.org/2000/svg" xmlns:xlink="http://www.w3.org/1999/xlink" viewBox="0 0 30.5078 21.6699">
 <g>
  <rect height="21.6699" opacity="0" width="30.5078" x="0" y="0"/>
  <path d="M8.32031 0.0878906C4.51172 0.0585938 0 3.87695 0 7.50977C0 10.5176 2.98828 12.9199 5.47852 12.9004C8.90625 12.8809 13.6035 8.89648 13.6035 5.61523C13.6035 2.45117 11.1719 0.107422 8.32031 0.0878906ZM4.30664 11.2109C3.61328 11.2109 2.54883 10.3516 1.89453 9.27734C1.23047 8.18359 1.25977 7.33398 1.95312 7.33398C2.62695 7.33398 3.70117 8.18359 4.35547 9.27734C5.00977 10.3516 4.98047 11.2109 4.30664 11.2109ZM7.75391 5.68359C7.38281 5.16602 7.50977 4.43359 8.02734 4.0625L9.76562 2.80273C10.2832 2.42188 11.0156 2.54883 11.377 3.08594C11.7871 3.62305 11.6699 4.32617 11.1328 4.7168L9.39453 5.94727C8.84766 6.33789 8.11523 6.23047 7.75391 5.68359ZM8.95508 21.6699L10.498 21.6699C11.2402 21.6699 11.6895 21.2891 11.6895 20.5859L11.6895 11.2695C10.5273 12.3242 9.15039 13.1738 7.75391 13.6328L7.75391 20.5859C7.75391 21.2891 8.21289 21.6699 8.95508 21.6699ZM21.8262 0.0878906C18.9648 0.107422 16.543 2.45117 16.543 5.61523C16.543 8.89648 21.2305 12.8809 24.668 12.9004C27.1484 12.9199 30.1465 10.5176 30.1465 7.50977C30.1465 3.87695 25.625 0.0585938 21.8262 0.0878906ZM25.8301 11.2109C25.166 11.2109 25.127 10.3516 25.791 9.27734C26.4453 8.18359 27.5195 7.33398 28.1934 7.33398C28.877 7.33398 28.9062 8.18359 28.252 9.27734C27.5977 10.3516 26.5234 11.2109 25.8301 11.2109ZM22.3926 5.68359C22.0215 6.23047 21.2988 6.33789 20.752 5.94727L19.0137 4.7168C18.4668 4.32617 18.3594 3.62305 18.7695 3.08594C19.1211 2.54883 19.8535 2.42188 20.3809 2.80273L22.1094 4.0625C22.6367 4.43359 22.7637 5.16602 22.3926 5.68359ZM21.1816 21.6699C21.9238 21.6699 22.3828 21.2891 22.3828 20.5859L22.3828 13.6328C20.9863 13.1738 19.6094 12.3242 18.4473 11.2695L18.4473 20.5859C18.4473 21.2891 18.9062 21.6699 19.6387 21.6699Z" fill="black" fill-opacity="0.85"/>
 </g>
</svg>
