<?xml version="1.0" encoding="UTF-8"?>
<!--Generator: Apple Native CoreSVG 326-->
<!DOCTYPE svg
PUBLIC "-//W3C//DTD SVG 1.1//EN"
       "http://www.w3.org/Graphics/SVG/1.1/DTD/svg11.dtd">
<svg version="1.1" xmlns="http://www.w3.org/2000/svg" xmlns:xlink="http://www.w3.org/1999/xlink" viewBox="0 0 18.7012 24.3077">
 <g>
  <rect height="24.3077" opacity="0" width="18.7012" x="0" y="0"/>
  <path d="M12.6465 22.0122C12.6465 22.7154 12.1875 23.0962 11.4551 23.0962L10.459 23.0962C9.72656 23.0962 9.25781 22.7154 9.25781 22.0122L9.25781 14.3493C10.6954 14.2392 11.758 13.9969 12.6465 13.6635Z" fill="black" fill-opacity="0.85"/>
  <path d="M17.168 6.12355C17.168 8.85793 15.5273 10.8111 13.4082 11.9829C12.5152 12.4798 11.5373 12.8546 9.99076 13.0439C10.2347 12.4656 10.3711 11.7978 10.3711 11.0454C10.3711 8.54163 8.32716 6.03782 5.50733 5.59643C5.74149 5.13446 5.98916 4.75111 6.16211 4.53176C7.68555 2.26613 10.0977 1.18215 12.2656 1.21144C15.0098 1.24074 17.168 3.05715 17.168 6.12355ZM13.8574 4.00441L12.0703 5.50832C11.8262 5.7134 11.7871 6.06496 11.9922 6.29934C12.1875 6.55324 12.5488 6.57277 12.7832 6.37746L14.5898 4.87355C14.834 4.66848 14.8438 4.31691 14.6387 4.08254C14.4531 3.82863 14.1016 3.79934 13.8574 4.00441Z" fill="black" fill-opacity="0.85"/>
  <path d="M5.63477 14.5904C7.57812 14.5904 9.20898 13.3794 9.20898 11.0454C9.20898 8.89699 7.2168 6.68996 4.60938 6.68996C2.45117 6.68996 1.16211 8.36965 1.16211 10.1861C1.16211 12.8032 3.38867 14.5904 5.63477 14.5904ZM5.03906 12.7837C4.6875 13.0864 4.0918 12.7739 3.36914 11.895C2.66602 11.0357 2.4707 10.4204 2.8125 10.1177C3.17383 9.81496 3.75 10.1177 4.48242 10.9966C5.18555 11.8853 5.38086 12.4907 5.03906 12.7837Z" fill="black" fill-opacity="0.425"/>
 </g>
</svg>
