<?xml version="1.0" encoding="UTF-8"?>
<!--Generator: Apple Native CoreSVG 326-->
<!DOCTYPE svg
PUBLIC "-//W3C//DTD SVG 1.1//EN"
       "http://www.w3.org/Graphics/SVG/1.1/DTD/svg11.dtd">
<svg version="1.1" xmlns="http://www.w3.org/2000/svg" xmlns:xlink="http://www.w3.org/1999/xlink" viewBox="0 0 25.9961 22.2363">
 <g>
  <rect height="22.2363" opacity="0" width="25.9961" x="0" y="0"/>
  <path d="M7.48047 22.2266L18.1543 22.2266C23.1738 22.2266 25.6348 19.7852 25.6348 14.8047L25.6348 8.23242L19.1406 8.23242C18.9453 8.7793 18.4375 9.13086 17.8027 9.13086L7.83203 9.13086C7.20703 9.13086 6.68945 8.7793 6.50391 8.23242L0 8.23242L0 14.8047C0 19.7852 2.46094 22.2266 7.48047 22.2266ZM12.8125 13.75C12.207 13.7598 11.6992 13.2422 11.6992 12.6465C11.6992 12.041 12.207 11.5332 12.8125 11.5332C13.4277 11.5332 13.9258 12.041 13.9258 12.6465C13.9258 13.2324 13.4277 13.7305 12.8125 13.75ZM0 7.1875L6.48438 7.1875C6.66992 6.64062 7.1875 6.28906 7.8125 6.28906L17.793 6.28906C18.418 6.28906 18.9355 6.64062 19.1211 7.1875L25.6055 7.1875L25.6055 6.81641C25.6055 2.25586 22.9492 0 18.125 0L7.48047 0C2.64648 0 0 2.25586 0 6.81641Z" fill="black" fill-opacity="0.85"/>
 </g>
</svg>
