<?xml version="1.0" ?><!-- Generator: Adobe Illustrator 25.0.0, SVG Export Plug-In . SVG Version: 6.00 Build 0)  --><svg xmlns="http://www.w3.org/2000/svg" xmlns:xlink="http://www.w3.org/1999/xlink" version="1.1" id="Layer_1" x="0px" y="0px" viewBox="0 0 512 512" style="enable-background:new 0 0 512 512;" xml:space="preserve">
<path d="M256,512c140,0,256-116,256-256C512,116.2,395.8,0,255.7,0C116,0,0,116.2,0,256C0,396,116.2,512,256,512z M423.9,256.3  c0,17.3-22.8,30.4-50.9,30.4h-55.5c-6.8,0-8.8,1-13.1,5.5l-92.4,100.6c-3.3,3.5-7.5,5.8-12,5.8H184c-5.5,0-8.5-5.3-6.3-10.8  l46.2-101.6l-64.5-7.3l-24.1,43.9c-2.3,4.3-6,6.3-11.5,6.3h-6c-5,0-8.3-3.5-8.3-8.5V191.7c0-5,3.3-8.3,8.3-8.3h6  c5.5,0,9.3,2,11.5,6.3l24.1,43.9l64.5-7.3l-46.2-101.6c-2.3-5.5,0.8-10.8,6.3-10.8H200c4.5,0,8.8,2,12,5.8l92.4,100.6  c4.3,4.5,6.3,5.5,13.1,5.5H373C401.1,225.9,423.9,238.9,423.9,256.3z"/>
</svg>