<?xml version="1.0" encoding="UTF-8"?>
<!--Generator: Apple Native CoreSVG 326-->
<!DOCTYPE svg
PUBLIC "-//W3C//DTD SVG 1.1//EN"
       "http://www.w3.org/Graphics/SVG/1.1/DTD/svg11.dtd">
<svg version="1.1" xmlns="http://www.w3.org/2000/svg" xmlns:xlink="http://www.w3.org/1999/xlink" viewBox="0 0 26.2174 27.7441">
 <g>
  <rect height="27.7441" opacity="0" width="26.2174" x="0" y="0"/>
  <path d="M0.828403 15.9766L1.86356 15.9766L1.86356 13.3984L0.828403 13.3984ZM6.70731 27.7441C8.17215 27.7441 8.87528 26.3867 8.06473 24.9512L3.26981 16.4453C2.89872 15.7812 2.32254 15.4785 1.61942 15.4785C0.418247 15.4785-0.157925 16.4453 0.0373872 17.6074C0.47684 19.3652 1.69754 22.0117 2.97684 24.0234C4.62723 26.7773 5.62332 27.7441 6.70731 27.7441ZM25.0276 15.9766L25.0276 13.3984L23.9925 13.3984L23.9925 15.9766ZM19.1487 27.7441C20.2327 27.7441 21.2288 26.7773 22.8792 24.0234C24.1585 22.0117 25.3792 19.3652 25.8186 17.6074C26.0139 16.4453 25.4378 15.4785 24.2366 15.4785C23.5335 15.4785 22.9573 15.7812 22.5862 16.4453L17.7913 24.9512C16.9807 26.3867 17.6839 27.7441 19.1487 27.7441ZM0.418247 13.2617C0.418247 13.7988 0.769809 14.1504 1.31668 14.1504C1.85379 14.1504 2.19559 13.7988 2.19559 13.2617C2.24442 6.45508 6.35575 2.08984 12.928 2.08984C19.5003 2.08984 23.6116 6.45508 23.6604 13.2617C23.6604 13.7988 24.0022 14.1504 24.5393 14.1504C25.0862 14.1504 25.4378 13.7988 25.4378 13.2617C25.4378 5.55664 20.6624 0.302734 12.928 0.302734C5.2034 0.302734 0.418247 5.55664 0.418247 13.2617Z" fill="black" fill-opacity="0.85"/>
  <path d="M10.2034 25.2734C11.0139 24.8145 11.2288 23.8086 10.721 22.9102L6.56082 15.5566C6.04325 14.6484 5.08622 14.3359 4.27567 14.7949C3.79715 15.0684 3.68973 15.498 3.94364 15.9473L9.04129 24.9707C9.2952 25.4297 9.73465 25.5469 10.2034 25.2734ZM15.6526 25.2734C16.1214 25.5469 16.5608 25.4297 16.8147 24.9707L21.9124 15.9473C22.1663 15.498 22.0589 15.0684 21.5804 14.7949C20.7698 14.3359 19.8128 14.6484 19.2952 15.5566L15.135 22.9102C14.6272 23.8086 14.8421 24.8145 15.6526 25.2734ZM5.58426 6.35742C7.61551 5.24414 10.0667 4.6582 12.928 4.6582C15.7893 4.6582 18.2405 5.24414 20.2718 6.35742C18.6409 4.3457 16.2581 3.25195 12.928 3.25195C9.59793 3.25195 7.21512 4.3457 5.58426 6.35742Z" fill="black" fill-opacity="0.425"/>
 </g>
</svg>
