<?xml version="1.0" encoding="UTF-8"?>
<!--Generator: Apple Native CoreSVG 326-->
<!DOCTYPE svg
PUBLIC "-//W3C//DTD SVG 1.1//EN"
       "http://www.w3.org/Graphics/SVG/1.1/DTD/svg11.dtd">
<svg version="1.1" xmlns="http://www.w3.org/2000/svg" xmlns:xlink="http://www.w3.org/1999/xlink" viewBox="0 0 33.1934 21.6699">
 <g>
  <rect height="21.6699" opacity="0" width="33.1934" x="0" y="0"/>
  <path d="M28.1934 19.2969C28.5352 19.6973 29.1406 19.6875 29.5508 19.2383C31.6309 17.0215 32.832 14.0527 32.832 10.8301C32.832 7.59766 31.6309 4.63867 29.5508 2.41211C29.1406 1.96289 28.5352 1.96289 28.1934 2.36328C27.8516 2.74414 27.959 3.25195 28.3496 3.68164C30.0879 5.57617 31.0742 8.06641 31.0742 10.8301C31.0742 13.584 30.0879 16.0742 28.3496 17.9688C27.959 18.3984 27.8516 18.9062 28.1934 19.2969Z" fill="black" fill-opacity="0.85"/>
  <path d="M24.707 15.7422C25.0586 16.1426 25.7031 16.1426 26.084 15.6641C27.1875 14.3457 27.832 12.6562 27.832 10.8301C27.832 9.00391 27.1875 7.30469 26.084 5.98633C25.7031 5.50781 25.0586 5.51758 24.707 5.91797C24.3652 6.29883 24.502 6.78711 24.8535 7.23633C25.6738 8.18359 26.084 9.46289 26.084 10.8301C26.084 12.1973 25.6738 13.4668 24.8535 14.4141C24.502 14.8633 24.3652 15.3516 24.707 15.7422Z" fill="black" fill-opacity="0.85"/>
  <path d="M10.8301 21.6504C16.8066 21.6504 21.6602 16.8066 21.6602 10.8301C21.6602 4.84375 16.8066 0 10.8301 0C4.84375 0 0 4.84375 0 10.8301C0 16.8066 4.84375 21.6504 10.8301 21.6504ZM10.8301 19.9219C5.80078 19.9219 1.72852 15.8496 1.72852 10.8301C1.72852 5.80078 5.80078 1.72852 10.8301 1.72852C15.8496 1.72852 19.9219 5.80078 19.9219 10.8301C19.9219 15.8496 15.8496 19.9219 10.8301 19.9219ZM10.8105 14.4922C11.5723 14.4922 11.7285 14.873 12.373 14.873C13.0273 14.873 13.4668 14.2773 13.877 13.6914C14.3457 13.0273 14.5312 12.3633 14.5312 12.3438C14.4922 12.3242 13.252 11.8262 13.252 10.4004C13.252 9.16992 14.2188 8.62305 14.2773 8.57422C13.6426 7.63672 12.6562 7.62695 12.373 7.62695C11.6602 7.62695 11.0742 8.06641 10.6934 8.06641C10.293 8.06641 9.77539 7.63672 9.14062 7.63672C7.93945 7.63672 6.73828 8.63281 6.73828 10.498C6.73828 11.6602 7.1875 12.8809 7.73438 13.6719C8.21289 14.3457 8.62305 14.8926 9.22852 14.8926C9.81445 14.8926 10.0781 14.4922 10.8105 14.4922ZM12.041 6.82617C12.334 6.47461 12.5488 5.99609 12.5488 5.48828C12.5488 5.41992 12.5488 5.36133 12.5391 5.30273C12.041 5.3125 11.4746 5.625 11.1328 6.03516C10.8594 6.35742 10.5957 6.82617 10.5957 7.33398C10.5957 7.40234 10.6152 7.48047 10.6152 7.50977C10.6543 7.50977 10.6934 7.51953 10.7422 7.51953C11.1816 7.51953 11.7285 7.22656 12.041 6.82617Z" fill="black" fill-opacity="0.85"/>
 </g>
</svg>
