<?xml version="1.0" encoding="UTF-8"?>
<!--Generator: Apple Native CoreSVG 326-->
<!DOCTYPE svg
PUBLIC "-//W3C//DTD SVG 1.1//EN"
       "http://www.w3.org/Graphics/SVG/1.1/DTD/svg11.dtd">
<svg version="1.1" xmlns="http://www.w3.org/2000/svg" xmlns:xlink="http://www.w3.org/1999/xlink" viewBox="0 0 24.2871 28.0566">
 <g>
  <rect height="28.0566" opacity="0" width="24.2871" x="0" y="0"/>
  <path d="M11.9629 25.9375C18.5645 25.9375 23.9258 20.5762 23.9258 13.9746C23.9258 7.37305 18.5645 2.01172 11.9629 2.01172C5.36133 2.01172 0 7.37305 0 13.9746C0 20.5762 5.36133 25.9375 11.9629 25.9375ZM11.9629 24.1016C6.36719 24.1016 1.83594 19.5703 1.83594 13.9746C1.83594 8.38867 6.36719 3.85742 11.9629 3.85742C17.5488 3.85742 22.0801 8.38867 22.0801 13.9746C22.0801 19.5703 17.5488 24.1016 11.9629 24.1016ZM1.875 5.08789C2.07031 5.08789 2.19727 5.05859 2.37305 4.92188L6.50391 1.875C6.70898 1.71875 6.81641 1.52344 6.81641 1.31836C6.81641 1.05469 6.68945 0.839844 6.47461 0.644531C5.99609 0.214844 5.17578 0 4.43359 0C2.49023 0 0.976562 1.51367 0.976562 3.41797C0.976562 3.85742 1.04492 4.30664 1.17188 4.58984C1.30859 4.89258 1.5625 5.08789 1.875 5.08789ZM22.041 5.08789C22.3633 5.08789 22.6074 4.88281 22.7441 4.58984C22.8809 4.31641 22.9492 3.85742 22.9492 3.41797C22.9492 1.51367 21.4258 0 19.4922 0C18.75 0 17.9297 0.214844 17.4512 0.644531C17.2266 0.839844 17.1094 1.05469 17.1094 1.31836C17.1094 1.52344 17.2168 1.71875 17.4219 1.875L21.543 4.92188C21.7188 5.05859 21.8555 5.08789 22.041 5.08789ZM1.61133 25.5859C1.93359 25.918 2.45117 25.918 2.79297 25.5762L5.13672 23.2324L3.98438 22.0801L1.62109 24.4336C1.28906 24.7559 1.28906 25.2734 1.61133 25.5859ZM22.3145 25.5859C22.6367 25.2734 22.6367 24.7559 22.3047 24.4336L19.9414 22.0801L18.7891 23.2324L21.1328 25.5762C21.4648 25.918 21.9922 25.918 22.3145 25.5859Z" fill="black" fill-opacity="0.85"/>
  <path d="M5.98633 15.2637L11.9531 15.2637C12.3828 15.2637 12.7148 14.9316 12.7148 14.502L12.7148 6.57227C12.7148 6.15234 12.3828 5.82031 11.9531 5.82031C11.5332 5.82031 11.2012 6.15234 11.2012 6.57227L11.2012 13.75L5.98633 13.75C5.55664 13.75 5.22461 14.082 5.22461 14.502C5.22461 14.9316 5.55664 15.2637 5.98633 15.2637Z" fill="black" fill-opacity="0.85"/>
 </g>
</svg>
