<?xml version="1.0" ?><!-- Generator: Adobe Illustrator 25.0.0, SVG Export Plug-In . SVG Version: 6.00 Build 0)  --><svg xmlns="http://www.w3.org/2000/svg" xmlns:xlink="http://www.w3.org/1999/xlink" version="1.1" id="Layer_1" x="0px" y="0px" viewBox="0 0 512 512" style="enable-background:new 0 0 512 512;" xml:space="preserve">
<path d="M53.3,103.2c3.7,0,6.4-0.5,9.9-3.2l82.7-62.5c3.9-3,6.2-6.9,6.2-11.1c0-5.2-2.5-9.4-6.7-13.3C136,4.7,119.2,0,104.4,0  C65.9,0,35.1,30.9,35.1,69.4c0,9.1,1.5,18.3,4.2,23.9C42,99.5,47.2,103.2,53.3,103.2z M458.7,103.2c6.2,0,11.4-4,14.3-9.9  c2.5-5.4,4-14.8,4-23.9c0-38.5-30.6-69.4-69.4-69.4c-14.8,0-31.6,4.7-41,13.1c-4.2,4-6.7,8.1-6.7,13.3c0,4.2,2.2,8.1,6.4,11.1  l82.5,62.5C452.5,102.7,455,103.2,458.7,103.2z M49.6,504.8c7.4,7.7,19.5,7.7,27.2-0.2l39-38.8C155,494.7,203.4,512,256,512  s101-17.3,140.2-46.2l39,38.8c7.7,7.9,19.7,7.9,27.2,0.2c7.4-7.2,7.4-19.3-0.2-26.7l-37.5-37.3C466.3,398.4,492,340.2,492,276  c0-130.3-105.7-236.3-236-236.3C125.7,39.7,20,145.7,20,276c0,64.2,25.7,122.4,67.4,164.9l-37.5,37.3  C42.2,485.6,42.5,497.7,49.6,504.8z M143.7,303.2c-9.6,0-17-7.4-17-17c0-9.6,7.4-17.3,17-17.3h95V136.5c0-9.6,7.4-17.3,17-17.3  s17.3,7.7,17.3,17.3v149.6c0,9.6-7.7,17-17.3,17H143.7z"/>
</svg>