<?xml version="1.0" ?><!-- Generator: Adobe Illustrator 25.0.0, SVG Export Plug-In . SVG Version: 6.00 Build 0)  --><svg xmlns="http://www.w3.org/2000/svg" xmlns:xlink="http://www.w3.org/1999/xlink" version="1.1" id="Layer_1" x="0px" y="0px" viewBox="0 0 512 512" style="enable-background:new 0 0 512 512;" xml:space="preserve">
<path d="M130.9,454.8H454c16.5,0,29.1-4.3,37.8-12.8s13-20.8,13-36.9V326c0-16.2-4.3-28.5-13-37c-8.7-8.5-21.3-12.7-37.8-12.7H130.9  c-16.3,0-28.9,4.2-37.5,12.7c-8.7,8.5-13,20.8-13,37v79.1c0,16.1,4.3,28.3,13,36.9C102,450.5,114.5,454.8,130.9,454.8z M130.9,235.9  h166.8c16.5,0,29-4.2,37.7-12.7c8.6-8.5,12.9-20.8,12.9-37v-79.1c0-16.1-4.3-28.3-12.9-36.9c-8.6-8.5-21.2-12.8-37.7-12.8H130.9  c-16.3,0-28.9,4.3-37.5,12.8c-8.7,8.5-13,20.8-13,36.9v79.1c0,16.2,4.3,28.5,13,37C102,231.7,114.5,235.9,130.9,235.9z M131.5,421.4  c-5.7,0-10.2-1.6-13.3-4.7c-3.1-3.2-4.6-7.7-4.6-13.6v-75.3c0-5.9,1.5-10.4,4.6-13.5s7.5-4.6,13.3-4.6h322c5.7,0,10.2,1.5,13.2,4.6  c3.1,3.1,4.6,7.6,4.6,13.5v75.3c0,5.9-1.5,10.4-4.6,13.6c-3.1,3.2-7.5,4.7-13.2,4.7H131.5z M131.5,202.5c-5.7,0-10.2-1.5-13.3-4.6  c-3.1-3.1-4.6-7.6-4.6-13.5v-75.3c0-5.9,1.5-10.4,4.6-13.6c3.1-3.2,7.5-4.7,13.3-4.7h165.7c5.6,0,9.9,1.6,13,4.7  c3.1,3.2,4.6,7.7,4.6,13.6v75.3c0,5.9-1.5,10.4-4.6,13.5c-3.1,3.1-7.4,4.6-13,4.6H131.5z" class="hierarchical-0:secondary SFSymbolsPreview4D4D4D" style="fill: #4D4D4D;"/>
<path d="M23.3,512c4.4,0,8.2-1.5,11.5-4.4c3.2-2.9,4.9-6.6,4.9-10.8V15.2c0-4.3-1.6-7.9-4.9-10.8C31.5,1.5,27.7,0,23.3,0  C19,0,15.3,1.5,12,4.4C8.8,7.4,7.2,11,7.2,15.2v481.5c0,4.3,1.6,7.9,4.9,10.8C15.3,510.5,19,512,23.3,512z" class="hierarchical-1:primary SFSymbolsPreview212121" style="fill: #212121;"/>
</svg>