<?xml version="1.0" ?><!-- Generator: Adobe Illustrator 25.0.0, SVG Export Plug-In . SVG Version: 6.00 Build 0)  --><svg xmlns="http://www.w3.org/2000/svg" xmlns:xlink="http://www.w3.org/1999/xlink" version="1.1" id="Layer_1" x="0px" y="0px" viewBox="0 0 512 512" style="enable-background:new 0 0 512 512;" xml:space="preserve">
<path d="M380.9,454.8c16.5,0,29-4.3,37.7-12.8c8.6-8.5,12.9-20.8,12.9-36.9V326c0-16.2-4.3-28.5-12.9-37  c-8.6-8.5-21.2-12.7-37.7-12.7H57.8c-16.3,0-28.9,4.2-37.5,12.7c-8.7,8.5-13,20.8-13,37v79.1c0,16.1,4.3,28.3,13,36.9  c8.7,8.5,21.2,12.8,37.5,12.8H380.9z M380.9,235.9c16.5,0,29-4.2,37.7-12.7c8.6-8.5,12.9-20.8,12.9-37v-79.1  c0-16.1-4.3-28.3-12.9-36.9c-8.6-8.5-21.2-12.8-37.7-12.8H214.1c-16.3,0-28.9,4.3-37.5,12.8c-8.7,8.5-13,20.8-13,36.9v79.1  c0,16.2,4.3,28.5,13,37c8.7,8.5,21.2,12.7,37.5,12.7H380.9z" class="hierarchical-0:secondary SFSymbolsPreview4D4D4D" style="fill: #4D4D4D;"/>
<path d="M488.5,512c4.3,0,8.1-1.5,11.4-4.4c3.3-2.9,5-6.6,5-10.8V15.2c0-4.3-1.7-7.9-5-10.8c-3.3-2.9-7.1-4.4-11.4-4.4  c-4.3,0-8,1.5-11.3,4.4c-3.2,2.9-4.9,6.6-4.9,10.8v481.5c0,4.3,1.6,7.9,4.9,10.8C480.5,510.5,484.2,512,488.5,512z" class="hierarchical-1:primary SFSymbolsPreview212121" style="fill: #212121;"/>
</svg>