<?xml version="1.0" ?><!-- Generator: Adobe Illustrator 25.0.0, SVG Export Plug-In . SVG Version: 6.00 Build 0)  --><svg xmlns="http://www.w3.org/2000/svg" xmlns:xlink="http://www.w3.org/1999/xlink" version="1.1" id="Layer_1" x="0px" y="0px" viewBox="0 0 512 512" style="enable-background:new 0 0 512 512;" xml:space="preserve">
<path d="M217.8,272H294v-32.5h-76.2V272z M15.5,272h56.3v-32.5H15.5c-4.4,0-8.1,1.7-11,5c-2.9,3.3-4.4,7.1-4.4,11.4  c0,4.3,1.5,8,4.4,11.3C7.4,270.4,11,272,15.5,272z M441.8,272h55c4.3,0,7.9-1.6,10.8-4.9c2.9-3.2,4.4-7,4.4-11.3  c0-4.3-1.5-8.1-4.4-11.4c-2.9-3.3-6.6-5-10.8-5h-55V272z" class="hierarchical-0:primary SFSymbolsPreview212121" style="fill: #212121;"/>
<path d="M107.3,468.4h79.1c16.1,0,28.3-4.4,36.9-13.1c8.5-8.8,12.8-21.4,12.8-37.9V94.2c0-16.3-4.3-28.9-12.8-37.5  c-8.5-8.7-20.8-13-36.9-13h-79.1c-16.2,0-28.5,4.3-37,13c-8.5,8.7-12.7,21.2-12.7,37.5v323.1c0,16.5,4.2,29.1,12.7,37.9  C78.8,464,91.1,468.4,107.3,468.4z M109.1,434.8c-5.9,0-10.4-1.6-13.5-4.7c-3.1-3.2-4.6-7.5-4.6-13.1v-322c0-5.7,1.5-10.2,4.6-13.3  c3.1-3.1,7.6-4.6,13.5-4.6h75.3c5.9,0,10.4,1.5,13.6,4.6c3.2,3.1,4.7,7.5,4.7,13.3v322c0,5.6-1.6,10-4.7,13.1  c-3.2,3.2-7.7,4.7-13.6,4.7H109.1z M326,389.7h79.1c16,0,28.3-4.3,36.9-12.9c8.5-8.6,12.8-21.2,12.8-37.7V172.4  c0-16.3-4.3-28.9-12.8-37.5c-8.5-8.7-20.8-13-36.9-13H326c-16.1,0-28.3,4.3-36.9,13c-8.5,8.7-12.8,21.2-12.8,37.5v166.8  c0,16.5,4.3,29,12.8,37.7C297.7,385.4,310,389.7,326,389.7z M328,356.4c-6,0-10.6-1.5-13.7-4.6c-3.1-3.1-4.6-7.4-4.6-13V173.1  c0-5.7,1.5-10.2,4.6-13.3c3.1-3.1,7.7-4.6,13.7-4.6h75.1c6,0,10.6,1.5,13.7,4.6c3.1,3.1,4.6,7.5,4.6,13.3v165.7  c0,5.6-1.5,9.9-4.6,13c-3.1,3.1-7.7,4.6-13.7,4.6H328z" class="hierarchical-1:secondary SFSymbolsPreview4D4D4D" style="fill: #4D4D4D;"/>
</svg>