<?xml version="1.0" encoding="UTF-8"?>
<!--Generator: Apple Native CoreSVG 326-->
<!DOCTYPE svg
PUBLIC "-//W3C//DTD SVG 1.1//EN"
       "http://www.w3.org/Graphics/SVG/1.1/DTD/svg11.dtd">
<svg version="1.1" xmlns="http://www.w3.org/2000/svg" xmlns:xlink="http://www.w3.org/1999/xlink" viewBox="0 0 29.6387 29.541">
 <g>
  <rect height="29.541" opacity="0" width="29.6387" x="0" y="0"/>
  <path d="M8.31055 28.3496C8.31055 29.0137 7.77344 29.541 7.10938 29.541C6.43555 29.541 5.9082 29.0137 5.9082 28.3496C5.9082 27.6758 6.43555 27.1484 7.10938 27.1484C7.77344 27.1484 8.31055 27.6758 8.31055 28.3496ZM14.9707 27.4609C14.9707 28.125 14.4336 28.6621 13.7695 28.6621C13.0957 28.6621 12.5684 28.125 12.5684 27.4609C12.5684 26.7969 13.0957 26.2598 13.7695 26.2598C14.4336 26.2598 14.9707 26.7969 14.9707 27.4609ZM3.16406 24.1309C3.16406 24.7949 2.62695 25.332 1.96289 25.332C1.28906 25.332 0.761719 24.7949 0.761719 24.1309C0.761719 23.4668 1.28906 22.9297 1.96289 22.9297C2.62695 22.9297 3.16406 23.4668 3.16406 24.1309ZM19.3164 22.2949C19.3164 22.959 18.7891 23.4961 18.1152 23.4961C17.4512 23.4961 16.9238 22.959 16.9238 22.2949C16.9238 21.6211 17.4512 21.0938 18.1152 21.0938C18.7891 21.0938 19.3164 21.6211 19.3164 22.2949ZM24.7656 18.418C24.7656 19.082 24.2285 19.6094 23.5645 19.6094C22.9004 19.6094 22.3633 19.082 22.3633 18.418C22.3633 17.7441 22.9004 17.2168 23.5645 17.2168C24.2285 17.2168 24.7656 17.7441 24.7656 18.418ZM2.40234 17.3926C2.40234 18.0566 1.86523 18.584 1.20117 18.584C0.527344 18.584 0 18.0566 0 17.3926C0 16.7188 0.527344 16.1914 1.20117 16.1914C1.86523 16.1914 2.40234 16.7188 2.40234 17.3926ZM29.2773 12.9492C29.2773 13.6133 28.7402 14.1504 28.0762 14.1504C27.4023 14.1504 26.875 13.6133 26.875 12.9492C26.875 12.2852 27.4023 11.748 28.0762 11.748C28.7402 11.748 29.2773 12.2852 29.2773 12.9492ZM6.69922 12.041C6.69922 12.7051 6.16211 13.2324 5.49805 13.2324C4.83398 13.2324 4.29688 12.7051 4.29688 12.041C4.29688 11.3672 4.83398 10.8398 5.49805 10.8398C6.16211 10.8398 6.69922 11.3672 6.69922 12.041ZM11.7188 7.42188C11.7188 8.08594 11.1914 8.61328 10.5176 8.61328C9.85352 8.61328 9.31641 8.08594 9.31641 7.42188C9.31641 6.74805 9.85352 6.2207 10.5176 6.2207C11.1914 6.2207 11.7188 6.74805 11.7188 7.42188ZM28.7402 5.81055C28.7402 6.47461 28.2031 7.01172 27.5391 7.01172C26.875 7.01172 26.3379 6.47461 26.3379 5.81055C26.3379 5.14648 26.875 4.60938 27.5391 4.60938C28.2031 4.60938 28.7402 5.14648 28.7402 5.81055ZM16.0352 1.83594C16.0352 2.5 15.498 3.03711 14.834 3.03711C14.1602 3.03711 13.6328 2.5 13.6328 1.83594C13.6328 1.16211 14.1602 0.634766 14.834 0.634766C15.498 0.634766 16.0352 1.16211 16.0352 1.83594ZM23.1445 1.28906C23.1445 1.96289 22.6172 2.49023 21.9434 2.49023C21.2793 2.49023 20.7422 1.96289 20.7422 1.28906C20.7422 0.625 21.2793 0.0976562 21.9434 0.0976562C22.6172 0.0976562 23.1445 0.625 23.1445 1.28906Z" fill="black" fill-opacity="0.85"/>
  <path d="M14.8145 19.8828C14.8145 22.8418 12.4414 25.2051 9.51172 25.2051C6.5918 25.2051 4.21875 22.832 4.21875 19.8828C4.21875 16.9824 6.5918 14.6191 9.51172 14.6191C12.4316 14.6191 14.8145 16.9824 14.8145 19.8828ZM6.07422 19.8828C6.07422 21.8066 7.60742 23.3594 9.51172 23.3594C11.416 23.3594 12.959 21.8164 12.959 19.8828C12.959 18.0078 11.4062 16.4746 9.51172 16.4746C7.61719 16.4746 6.07422 18.0078 6.07422 19.8828ZM25.3223 10.1562C25.3223 13.5352 22.5684 16.2988 19.209 16.2988C15.8398 16.2988 13.0762 13.5352 13.0762 10.1562C13.0762 6.80664 15.8398 4.0625 19.209 4.0625C22.5684 4.0625 25.3223 6.80664 25.3223 10.1562ZM14.9316 10.1562C14.9316 12.5098 16.8652 14.4434 19.209 14.4434C21.543 14.4434 23.4668 12.5098 23.4668 10.1562C23.4668 7.82227 21.5527 5.91797 19.209 5.91797C16.8555 5.91797 14.9316 7.82227 14.9316 10.1562Z" fill="black" fill-opacity="0.85"/>
 </g>
</svg>
