<?xml version="1.0" encoding="UTF-8"?>
<!--Generator: Apple Native CoreSVG 326-->
<!DOCTYPE svg
PUBLIC "-//W3C//DTD SVG 1.1//EN"
       "http://www.w3.org/Graphics/SVG/1.1/DTD/svg11.dtd">
<svg version="1.1" xmlns="http://www.w3.org/2000/svg" xmlns:xlink="http://www.w3.org/1999/xlink" viewBox="0 0 25.8008 25.459">
 <g>
  <rect height="25.459" opacity="0" width="25.8008" x="0" y="0"/>
  <path d="M12.7148 25.4395C19.7363 25.4395 25.4395 19.7461 25.4395 12.7246C25.4395 5.70312 19.7363 0 12.7148 0C5.69336 0 0 5.70312 0 12.7246C0 19.7461 5.69336 25.4395 12.7148 25.4395ZM12.7148 23.623C6.68945 23.623 1.81641 18.75 1.81641 12.7246C1.81641 6.69922 6.68945 1.82617 12.7148 1.82617C18.7402 1.82617 23.6133 6.69922 23.6133 12.7246C23.6133 18.75 18.7402 23.623 12.7148 23.623Z" fill="black" fill-opacity="0.85"/>
  <path d="M9.08203 9.0918C6.80664 11.3574 5.6543 14.9316 6.52344 17.832C6.72852 18.5156 6.93359 18.7109 7.60742 18.9062C10.5078 19.7754 14.082 18.6426 16.3574 16.3672C18.6328 14.0918 19.7656 10.5176 18.8965 7.61719C18.7012 6.94336 18.5059 6.73828 17.8223 6.5332C14.9219 5.66406 11.3477 6.81641 9.08203 9.0918ZM14.0723 9.98047L15.4492 11.3477C15.5664 11.4648 15.5566 11.6602 15.4492 11.7871C15.3418 11.8848 15.1465 11.8848 15.0293 11.7773L14.5508 11.2988L14.0527 11.7969L14.5312 12.2852C14.6387 12.3828 14.6484 12.5684 14.5312 12.6953C14.4238 12.8027 14.2383 12.7832 14.1211 12.6855L13.6328 12.207L13.1445 12.7051L13.6133 13.1836C13.7207 13.3008 13.7402 13.4961 13.6133 13.5938C13.5156 13.7207 13.3203 13.7012 13.2129 13.5938L12.7344 13.1348L12.2266 13.623L12.7051 14.0918C12.8223 14.209 12.832 14.3945 12.7051 14.5117C12.5977 14.6191 12.4219 14.6191 12.2949 14.502L11.8262 14.0332L11.3281 14.5312L11.7969 15.0098C11.9043 15.127 11.9043 15.3027 11.7969 15.4297C11.6797 15.5371 11.4941 15.5371 11.3867 15.4199L10 14.0527C9.88281 13.9453 9.89258 13.7598 10 13.6328C10.127 13.5254 10.3027 13.5254 10.4199 13.6328L10.8984 14.1113L11.4062 13.6133L10.918 13.1445C10.791 13.0273 10.8008 12.832 10.918 12.7246C11.0352 12.5977 11.2305 12.5977 11.3379 12.7148L11.8164 13.2031L12.3145 12.7051L11.8359 12.2168C11.7188 12.0996 11.709 11.9238 11.8359 11.8164C11.9336 11.6992 12.1191 11.709 12.2461 11.8164L12.7246 12.2949L13.2324 11.7969L12.7441 11.3086C12.627 11.2012 12.627 11.0156 12.7441 10.9082C12.8711 10.791 13.0371 10.791 13.1445 10.9082L13.6328 11.377L14.1504 10.8887L13.6523 10.4004C13.5352 10.293 13.5449 10.0977 13.6523 9.98047C13.7793 9.88281 13.9551 9.87305 14.0723 9.98047Z" fill="black" fill-opacity="0.85"/>
 </g>
</svg>
