<?xml version="1.0" encoding="UTF-8"?>
<!--Generator: Apple Native CoreSVG 326-->
<!DOCTYPE svg
PUBLIC "-//W3C//DTD SVG 1.1//EN"
       "http://www.w3.org/Graphics/SVG/1.1/DTD/svg11.dtd">
<svg version="1.1" xmlns="http://www.w3.org/2000/svg" xmlns:xlink="http://www.w3.org/1999/xlink" viewBox="0 0 25.6718 25.32">
 <g>
  <rect height="25.32" opacity="0" width="25.6718" x="0" y="0"/>
  <path d="M19.7744 19.7743C24.6279 14.9207 26.3369 8.07504 24.7158 2.72348C24.3057 1.39535 23.915 1.00473 22.5869 0.594569C17.2451-1.02652 10.3896 0.682459 5.52635 5.53598C0.682603 10.3895-1.02638 17.245 0.594713 22.5868C0.995103 23.9149 1.39549 24.3153 2.72362 24.7157C8.07518 26.3368 14.9111 24.6278 19.7744 19.7743ZM18.5146 18.5145C14.1885 22.8602 8.4951 24.452 3.30956 23.0164C2.59667 22.8309 2.47948 22.7137 2.2744 21.9618C0.877916 16.8055 2.45995 11.1121 6.78612 6.79574C11.1123 2.45004 16.7959 0.868006 21.9521 2.27426C22.7139 2.47933 22.831 2.60629 23.0264 3.31918C24.4521 8.49496 22.8506 14.1981 18.5146 18.5145ZM7.2451 15.3114L9.98924 18.0555C10.2139 18.2704 10.5459 18.2704 10.7705 18.0555C10.9756 17.8309 10.9756 17.4891 10.7705 17.2743L8.03612 14.5301C7.81151 14.325 7.45995 14.325 7.2451 14.5301C7.04003 14.7547 7.04003 15.0868 7.2451 15.3114ZM9.08104 13.4657L11.8252 16.2196C12.04 16.4344 12.3916 16.4344 12.5967 16.2196C12.8213 16.0047 12.8213 15.6532 12.5967 15.4481L9.86229 12.7039C9.64745 12.4891 9.29588 12.4891 9.08104 12.7039C8.87596 12.9188 8.87596 13.2606 9.08104 13.4657ZM10.917 11.6395L13.6611 14.3934C13.8662 14.6082 14.2178 14.6082 14.4326 14.3934C14.6474 14.1786 14.6474 13.827 14.4326 13.6219L11.6787 10.8778C11.4834 10.6629 11.1221 10.6629 10.917 10.8778C10.7021 11.0926 10.7021 11.4246 10.917 11.6395ZM12.7432 9.82308L15.4775 12.5672C15.6924 12.7625 16.0439 12.7625 16.2588 12.5672C16.4736 12.3426 16.4736 12.0106 16.2588 11.7957L13.5146 9.0516C13.2998 8.82699 12.9678 8.82699 12.7432 9.0516C12.5381 9.25668 12.5381 9.60824 12.7432 9.82308ZM14.5693 7.99691L17.3135 10.7313C17.5283 10.9364 17.8799 10.9364 18.0947 10.7313C18.2998 10.5164 18.2998 10.1746 18.0947 9.9598L15.3506 7.2059C15.126 7.00082 14.7939 7.00082 14.5693 7.2059C14.3642 7.43051 14.3642 7.7723 14.5693 7.99691ZM9.27635 16.8055L16.7959 9.27621L16.0342 8.51449L8.50487 16.034Z" fill="black" fill-opacity="0.85"/>
 </g>
</svg>
