<?xml version="1.0" encoding="UTF-8"?>
<!--Generator: Apple Native CoreSVG 326-->
<!DOCTYPE svg
PUBLIC "-//W3C//DTD SVG 1.1//EN"
       "http://www.w3.org/Graphics/SVG/1.1/DTD/svg11.dtd">
<svg version="1.1" xmlns="http://www.w3.org/2000/svg" xmlns:xlink="http://www.w3.org/1999/xlink" viewBox="0 0 25.5611 25.2048">
 <g>
  <rect height="25.2048" opacity="0" width="25.5611" x="0" y="0"/>
  <path d="M2.678 24.6092C5.04129 25.3124 7.678 25.3807 10.2952 24.8241L0.373317 14.9022C-0.183323 17.5292-0.124729 20.1659 0.597927 22.5194C0.988552 23.828 1.37918 24.2089 2.678 24.6092ZM19.68 19.6776C21.7796 17.578 23.2932 15.1073 24.1917 12.5487L12.6487 1.01549C10.0803 1.90416 7.61941 3.41784 5.5198 5.51745C3.42019 7.61705 1.91629 10.0878 1.00808 12.6366L12.5511 24.1796C15.1194 23.2909 17.5803 21.7772 19.68 19.6776ZM10.7737 17.8026C10.5686 18.0077 10.2464 18.0077 10.0413 17.7928L7.38504 15.1464C7.18972 14.951 7.18972 14.6288 7.38504 14.4237C7.59011 14.2186 7.92215 14.2186 8.12722 14.4139L9.08425 15.3807L10.1292 14.3358L9.15261 13.3788C8.96707 13.1835 8.96707 12.8612 9.15261 12.6561C9.35769 12.451 9.68972 12.451 9.8948 12.6464L10.8518 13.6131L11.8968 12.5682L10.93 11.6112C10.7346 11.4159 10.7151 11.0936 10.93 10.8788C11.1253 10.6835 11.4671 10.6835 11.6526 10.869L12.6194 11.8456L13.6643 10.8006L12.6975 9.84362C12.5022 9.6483 12.4925 9.31627 12.6975 9.1112C12.9026 8.90612 13.2249 8.90612 13.4202 9.10143L14.3968 10.078L15.4319 9.03307L14.4651 8.06627C14.2698 7.87096 14.26 7.5487 14.4651 7.34362C14.6702 7.1483 14.9925 7.1483 15.1878 7.33385L17.844 9.99987C18.0491 10.1952 18.0491 10.5272 17.844 10.7225C17.6487 10.9374 17.3167 10.9276 17.1116 10.7128L16.1643 9.76549L15.1096 10.8006L16.0764 11.7674C16.2913 11.9725 16.2913 12.2948 16.0764 12.4999C15.8714 12.7049 15.5491 12.6952 15.3538 12.4901L14.3968 11.5331L13.3518 12.5682L14.3089 13.535C14.5139 13.7303 14.5139 14.0624 14.3089 14.2674C14.1038 14.4725 13.7815 14.4628 13.5862 14.2577L12.6194 13.3104L11.5843 14.3358L12.5413 15.3026C12.7464 15.4979 12.7464 15.8299 12.5413 16.0448C12.3362 16.2303 12.0139 16.2303 11.8089 16.035L10.8518 15.078L9.81668 16.1131L10.7737 17.0702C10.9788 17.2655 10.9788 17.5975 10.7737 17.8026ZM24.6116 2.67565C24.2112 1.36705 23.8303 0.986195 22.5218 0.585804C20.1682-0.117321 17.5315-0.18568 14.9046 0.370961L24.8264 10.2928C25.3928 7.67565 25.3245 5.02916 24.6116 2.67565Z" fill="black" fill-opacity="0.85"/>
 </g>
</svg>
