<?xml version="1.0" encoding="UTF-8"?>
<!--Generator: Apple Native CoreSVG 326-->
<!DOCTYPE svg
PUBLIC "-//W3C//DTD SVG 1.1//EN"
       "http://www.w3.org/Graphics/SVG/1.1/DTD/svg11.dtd">
<svg version="1.1" xmlns="http://www.w3.org/2000/svg" xmlns:xlink="http://www.w3.org/1999/xlink" viewBox="0 0 27.9395 23.9941">
 <g>
  <rect height="23.9941" opacity="0" width="27.9395" x="0" y="0"/>
  <path d="M0 20.3418C0 22.793 1.23047 23.9941 3.70117 23.9941L23.877 23.9941C26.3574 23.9941 27.5781 22.793 27.5781 20.3418L27.5781 7.96875C27.5781 5.51758 26.3574 4.31641 23.877 4.31641L3.70117 4.31641C1.23047 4.31641 0 5.51758 0 7.96875ZM4.67773 11.4844C3.56445 11.4844 2.66602 10.5957 2.66602 9.47266C2.66602 8.35938 3.56445 7.46094 4.67773 7.46094C5.80078 7.46094 6.68945 8.35938 6.68945 9.47266C6.68945 10.5957 5.80078 11.4844 4.67773 11.4844ZM10.752 11.4844C9.63867 11.4844 8.74023 10.5957 8.74023 9.47266C8.74023 8.35938 9.63867 7.46094 10.752 7.46094C11.8652 7.46094 12.7539 8.35938 12.7539 9.47266C12.7539 10.5957 11.8652 11.4844 10.752 11.4844ZM16.8262 11.4844C15.7129 11.4844 14.8145 10.5957 14.8145 9.47266C14.8145 8.35938 15.7129 7.46094 16.8262 7.46094C17.9395 7.46094 18.8379 8.35938 18.8379 9.47266C18.8379 10.5957 17.9395 11.4844 16.8262 11.4844ZM22.9004 11.4844C21.7773 11.4844 20.8887 10.5957 20.8887 9.47266C20.8887 8.35938 21.7773 7.46094 22.9004 7.46094C24.0137 7.46094 24.9121 8.35938 24.9121 9.47266C24.9121 10.5957 24.0137 11.4844 22.9004 11.4844ZM1.72852 20.2637L1.72852 13.9844L25.8496 13.9844L25.8496 20.2637C25.8496 21.6211 25.1758 22.2754 23.8574 22.2754L3.7207 22.2754C2.40234 22.2754 1.72852 21.6211 1.72852 20.2637ZM6.70898 5.625L8.41797 5.625L8.41797 2.93945C8.41797 2.14844 8.95508 1.65039 9.78516 1.65039L17.793 1.65039C18.6328 1.65039 19.1699 2.14844 19.1699 2.93945L19.1699 5.625L20.8789 5.625L20.8789 2.8418C20.8789 1.09375 19.7461 0.0390625 17.8906 0.0390625L9.69727 0.0390625C7.83203 0.0390625 6.70898 1.09375 6.70898 2.8418Z" fill="black" fill-opacity="0.85"/>
 </g>
</svg>
