<?xml version="1.0" ?><!-- Generator: Adobe Illustrator 25.0.0, SVG Export Plug-In . SVG Version: 6.00 Build 0)  --><svg xmlns="http://www.w3.org/2000/svg" xmlns:xlink="http://www.w3.org/1999/xlink" version="1.1" id="Layer_1" x="0px" y="0px" viewBox="0 0 512 512" style="enable-background:new 0 0 512 512;" xml:space="preserve">
<path d="M255.9,512c60.7,0,113.6-65.2,113.6-135.2c0-10.9-1.9-20.1-5.8-27.6c6.2,1.7,12.4,3.2,18.4,4.9c14.8,4.1,19.1,9.9,17.1,22.7  l-15.6,102.7c-1.9,12.2,5.6,19.5,15.6,19.5c10.5,0,15.2-6.4,16.9-17.1l17.6-111.2c4.1-25.1-6.2-38.8-33.6-45.2l-96.7-22.5l-0.2-2.1  c9.2-4.5,15.4-13.3,18.2-22.9l65.8-9.4c26.8-3.6,38.8-18.6,38.8-45v-74.2c0-10.5-6-16.5-16.3-16.5c-10.3,0-16.3,6.2-16.3,16.5v67.5  c0,15.2-8.1,20.1-22.1,22.1l-49.1,6.6c-2.4-6.6-6.6-12.6-12.4-16.5v-2.1c36.6-6.4,57-28.7,57-61.3c0-27.4-10.3-52.5-27-71.8l1.9-1.5  c20.8-15,24.6-37.1,11.1-60.9l-12.6-20.8C336.3,3.2,331.6,0,324.9,0c-9,0-15.4,6.4-15.4,14.8c0,3.9,0.6,6,3,10.3L323.6,42  c6.9,11.1,6.9,20.8-1.9,28.5c-1.3,1.1-2.4,1.9-3.6,2.8c-17.8-12-39.2-19.1-62.2-19.1c-22.5,0-43.7,7.1-61.3,18.9  c-1.3-0.6-2.6-1.7-3.6-2.8c-8.6-7.5-8.8-17.1-1.7-28.3l11.1-16.9c2.4-4.3,3-6.4,3-10.3C203.4,6.4,196.7,0,188,0  c-6.6,0-11.4,3.2-15.4,10.5l-12.6,20.8c-13.5,23.8-9.6,45.9,11.1,60.9l1.5,1.1c-16.9,19.3-27.6,44.6-27.6,72.2  c0,32.6,20.6,54.9,57.2,61.3v2.1c-6,3.9-10.1,9.9-12.4,16.5l-49.1-6.6c-14.1-1.9-22.1-6.9-22.1-22.1v-67.5c0-10.3-6-16.5-16.3-16.5  c-10.3,0-16.3,6-16.3,16.5v74.2c0,26.4,12,41.4,38.8,45l65.8,9.4c2.8,9.6,8.8,18.4,18.2,22.9v2.1l-96.9,22.5  c-27.6,6.4-37.7,20.1-33.6,45.2l17.6,111.2c1.5,10.7,6.4,17.1,16.9,17.1c10.1,0,17.6-7.3,15.6-19.5l-15.6-102.7  c-2.1-12.9,2.4-18.6,17.1-22.7c6-1.7,12.2-3.2,18.2-4.9c-3.6,7.5-5.6,16.7-5.6,27.6C142.5,446.8,195.5,512,255.9,512z"/>
</svg>