<?xml version="1.0" ?><!-- Generator: Adobe Illustrator 25.0.0, SVG Export Plug-In . SVG Version: 6.00 Build 0)  --><svg xmlns="http://www.w3.org/2000/svg" xmlns:xlink="http://www.w3.org/1999/xlink" version="1.1" id="Layer_1" x="0px" y="0px" viewBox="0 0 512 512" style="enable-background:new 0 0 512 512;" xml:space="preserve">
<path d="M256,512c140,0,256-116,256-256C512,116.2,395.8,0,255.7,0C116,0,0,116.2,0,256C0,396,116.2,512,256,512z M138.8,325.3  c-2.8-16.6,4-25.9,22.3-30.4l61.2-14.1c-4.8-2.5-10-8-12.3-16.1l-40.4-5.8c-17.8-2.5-25.9-12.3-25.9-29.9v-48.7  c0-7.3,4.3-11.5,11.5-11.5c6.8,0,11,4.3,11,11.5v44.2c0,9.5,5.3,12.5,14.1,13.8l30.1,4.3c1.3-4.8,4.3-8.8,7-11.3  c-23.1-4.5-34.9-18.8-34.9-40.4c0-17.3,6.3-33.9,17.1-46.7l-0.8-0.8c-13.8-9.8-16.1-24.6-7.3-40.7l7.8-13.3c2.8-5.3,6.3-7.3,11-7.3  c6.3,0,10.5,4.5,10.5,10.3c0,2.5-0.3,4.5-2,7l-6.8,11c-4,6.5-5.5,12.3-0.8,16.3l3.5,2.8c12-7.8,27.4-12.3,40.9-12.3  c13.3,0,28.6,4.5,40.7,12.3l3.5-2.8c5-4,3.5-9.8-0.5-16.3l-7-11c-1.5-2.5-2-4.5-2-7c0-6,4.5-10.3,10.5-10.3c5,0,8,2.3,11,7.3  l7.8,13.3c9.3,15.8,6.5,30.9-7.3,40.7l-0.8,0.8c10.8,12.8,17.1,29.4,17.1,46.7c0,21.6-11.5,36.1-34.6,40.4c2.8,2.5,5.5,6.8,6.8,11.3  l30.1-4.3c8.8-1.5,14.1-4.3,14.1-13.8v-44.2c0-7.3,4.3-11.5,11-11.5c7.5,0,11.8,4.3,11.8,11.5v48.7c0,17.6-8.3,27.4-25.9,29.9  l-40.4,5.8c-2.5,8-7.8,13.8-12.3,16.1l61.2,14.1c18.1,4.8,25.1,13.8,22.3,30.4l-11.5,73c-1,7.3-4.5,12-11.5,12  c-7.3,0-12.5-5.5-11.3-13.8l10.3-67c1.3-8-1.3-11.8-10.5-14.3c-3.5-1-7-1.8-10.3-2.8c1.8,4.8,2.5,10.5,2.5,17.1  c0,45.9-34.6,88.8-74.8,88.8c-40.4,0-74.8-42.9-74.8-88.8c0-6.5,0.8-12.3,2.5-17.1c-3.5,1-7,1.8-10.3,2.8c-9.3,2.5-12,6.3-10.5,14.3  l10,67c1.3,8.3-4,13.8-11,13.8c-7,0-10.5-4.8-11.8-12L138.8,325.3z"/>
</svg>