<?xml version="1.0" ?><!-- Generator: Adobe Illustrator 25.0.0, SVG Export Plug-In . SVG Version: 6.00 Build 0)  --><svg xmlns="http://www.w3.org/2000/svg" xmlns:xlink="http://www.w3.org/1999/xlink" version="1.1" id="Layer_1" x="0px" y="0px" viewBox="0 0 512 512" style="enable-background:new 0 0 512 512;" xml:space="preserve">
<path d="M112.7,498.9c10.1,0,17.6-7.3,15.6-19.5l-15.6-102.7c-2.1-12.9,2.4-18.6,17.1-22.7l16.5-4.5c-2.6,7.9-3.9,16.9-3.9,27.2  c0,70.1,52.9,135.2,113.4,135.2c60.7,0,113.6-65.2,113.6-135.2c0-10.3-1.3-19.3-3.9-27.2l16.5,4.5c14.8,4.1,19.1,9.9,17.1,22.7  l-15.6,102.7c-1.9,12.2,5.6,19.5,15.6,19.5c10.5,0,15.2-6.4,16.9-17.1l17.6-111.2c4.1-25.1-6.2-38.6-33.6-45.2l-94.7-22.5v-2.1  c9.2-4.5,15.6-13.1,19.1-23.1l62.8-9.2c26.8-3.6,38.8-18.6,38.8-45v-74.2c0-10.5-6-16.5-16.3-16.5c-10.3,0-16.3,6.2-16.3,16.5v67.5  c0,15.2-8.1,19.9-22.1,22.1l-46.9,6.6c-2.4-6.6-6.6-12.4-12.4-16.5v-2.1c36.6-6.4,54.9-28.7,54.9-61.3c0-27.4-10.1-52.5-26.8-72  l1.7-1.3c20.8-15,24.6-37.1,11.1-60.9l-12.6-20.8C336.3,3.2,331.6,0,324.9,0c-9,0-15.4,6.4-15.4,14.8c0,3.9,0.6,6,3,10.3L323.6,42  c7.5,12.2,6.6,22.5-4.1,30.2l-1.7,1.1c-17.8-12-39-19.1-61.9-19.1c-22.5,0-43.7,6.9-61.3,18.9l-1.3-0.9c-10.7-7.7-11.6-18-4.1-30.2  l11.1-16.9c2.4-4.3,3-6.4,3-10.3C203.4,6.4,196.7,0,188,0c-6.6,0-11.4,3.2-15.4,10.5l-12.6,20.8c-13.5,23.8-9.6,45.9,11.1,60.9  l1.1,0.9c-16.9,19.5-27.2,45-27.2,72.4c0,32.6,18.4,54.9,55.1,61.3v2.1c-6,4.1-10.1,9.9-12.4,16.5l-46.9-6.6  c-14.1-2.1-22.1-6.9-22.1-22.1v-67.5c0-10.3-6-16.5-16.3-16.5c-10.3,0-16.3,6-16.3,16.5v74.2c0,26.4,12,41.4,38.8,45l62.8,9.2  c3.2,10.1,9.6,18.6,19.1,23.1v2.1l-94.7,22.5c-27.6,6.6-37.7,20.1-33.6,45.2l17.6,111.2C97.3,492.5,102.2,498.9,112.7,498.9z   M217.3,195.2c-23.6,0-37.1-11.4-37.1-31.1c0-39.9,35.4-74.4,75.7-74.4s75.9,34.5,75.9,74.4c0,19.7-13.7,31.1-37.1,31.1H217.3z   M217.1,259.8c0-19.7,12-31.1,32.8-31.1h12.4c20.6,0,32.4,11.4,32.4,31.1c0,24.2-16.5,44.8-36.2,44.8h-4.9  C233.8,304.5,217.1,284,217.1,259.8z M255.9,476.2c-44.1,0-78.4-51.9-78.4-94.9c0-28.7,16.7-46.1,48.9-46.1h59.4  c32.1,0,48.6,17.4,48.6,46.1C334.3,424.3,300.3,476.2,255.9,476.2z"/>
</svg>