<?xml version="1.0" encoding="UTF-8"?>
<!--Generator: Apple Native CoreSVG 326-->
<!DOCTYPE svg
PUBLIC "-//W3C//DTD SVG 1.1//EN"
       "http://www.w3.org/Graphics/SVG/1.1/DTD/svg11.dtd">
<svg version="1.1" xmlns="http://www.w3.org/2000/svg" xmlns:xlink="http://www.w3.org/1999/xlink" viewBox="0 0 25.8008 25.459">
 <g>
  <rect height="25.459" opacity="0" width="25.8008" x="0" y="0"/>
  <path d="M12.7148 25.4395C19.7363 25.4395 25.4395 19.7461 25.4395 12.7246C25.4395 5.70312 19.7363 0 12.7148 0C5.69336 0 0 5.70312 0 12.7246C0 19.7461 5.69336 25.4395 12.7148 25.4395ZM12.7148 23.623C6.68945 23.623 1.81641 18.75 1.81641 12.7246C1.81641 6.69922 6.68945 1.82617 12.7148 1.82617C18.7402 1.82617 23.6133 6.69922 23.6133 12.7246C23.6133 18.75 18.7402 23.623 12.7148 23.623Z" fill="black" fill-opacity="0.85"/>
  <path d="M4.82422 12.2949C4.82422 14.2285 5.52734 16.0254 6.82617 17.4121C7.10938 17.7148 7.53906 17.7344 7.80273 17.4316C8.03711 17.168 8.00781 16.8066 7.72461 16.4746C6.67969 15.3613 6.11328 13.8965 6.11328 12.2949C6.11328 10.7031 6.67969 9.23828 7.72461 8.13477C8.00781 7.80273 8.03711 7.43164 7.8125 7.1582C7.54883 6.85547 7.10938 6.86523 6.82617 7.1875C5.53711 8.57422 4.82422 10.3809 4.82422 12.2949ZM19.2969 12.2949C19.2969 13.8965 18.7305 15.3613 17.6855 16.4746C17.4023 16.8066 17.373 17.168 17.6172 17.4316C17.8711 17.7344 18.3105 17.7148 18.5938 17.4121C19.8926 16.0254 20.5957 14.2285 20.5957 12.2949C20.5957 10.3809 19.8828 8.57422 18.5938 7.1875C18.3105 6.86523 17.8613 6.85547 17.6074 7.1582C17.373 7.43164 17.4121 7.80273 17.6855 8.13477C18.7305 9.23828 19.2969 10.7031 19.2969 12.2949Z" fill="black" fill-opacity="0.85"/>
  <path d="M7.91016 12.2949C7.91016 13.3887 8.29102 14.4531 8.98438 15.2734C9.24805 15.6055 9.73633 15.6152 10 15.3223C10.2246 15.0488 10.1953 14.7168 9.91211 14.3555C9.44336 13.8184 9.20898 13.1152 9.20898 12.2949C9.20898 11.5332 9.45312 10.8398 9.92188 10.2344C10.1855 9.88281 10.2246 9.54102 10 9.28711C9.7168 8.97461 9.24805 8.99414 8.98438 9.33594C8.29102 10.1465 7.91016 11.2012 7.91016 12.2949ZM16.2109 12.2949C16.2109 13.1152 15.9668 13.8184 15.5078 14.3555C15.2148 14.7168 15.1855 15.0488 15.4102 15.3223C15.6836 15.6152 16.1621 15.6055 16.4258 15.2734C17.1191 14.4531 17.5 13.3887 17.5 12.2949C17.5 11.2012 17.1191 10.1465 16.4258 9.33594C16.1621 8.99414 15.6934 8.97461 15.4102 9.28711C15.1953 9.54102 15.2344 9.88281 15.4883 10.2344C15.957 10.8398 16.2109 11.5332 16.2109 12.2949Z" fill="black" fill-opacity="0.85"/>
  <path d="M11.3281 12.2949C11.3281 12.8418 11.6406 13.291 12.0898 13.5156L12.0898 20.3418C12.0898 20.7324 12.3438 21.0156 12.7051 21.0156C13.0762 21.0156 13.3203 20.7422 13.3203 20.3418L13.3203 13.5156C13.7793 13.291 14.0918 12.832 14.0918 12.2949C14.0918 11.5234 13.4766 10.918 12.7051 10.918C11.9336 10.918 11.3281 11.5234 11.3281 12.2949Z" fill="black" fill-opacity="0.85"/>
 </g>
</svg>
