<?xml version="1.0" ?><!-- Generator: Adobe Illustrator 25.0.0, SVG Export Plug-In . SVG Version: 6.00 Build 0)  --><svg xmlns="http://www.w3.org/2000/svg" xmlns:xlink="http://www.w3.org/1999/xlink" version="1.1" id="Layer_1" x="0px" y="0px" viewBox="0 0 512 512" style="enable-background:new 0 0 512 512;" xml:space="preserve">
<path d="M256,512c35,0,67.9-6.7,98.8-20.1c30.9-13.4,58.1-31.9,81.7-55.5c23.6-23.6,42.1-50.8,55.5-81.7  C505.3,323.9,512,291,512,256s-6.7-67.9-20.1-98.8c-13.4-30.9-31.9-58.1-55.5-81.7c-23.6-23.6-50.9-42.1-81.8-55.5  C323.7,6.7,290.7,0,255.7,0S187.9,6.7,157,20.1C126.1,33.5,98.9,52,75.4,75.5c-23.5,23.6-42,50.8-55.3,81.7C6.7,188.1,0,221,0,256  s6.7,67.9,20.1,98.8c13.4,30.9,31.9,58.1,55.5,81.7s50.8,42.1,81.7,55.5C188.1,505.3,221,512,256,512z" class="multicolor-0:systemGreenColor hierarchical-0:tertiary SFSymbolsPreview28CD41" style="fill: #28CD41;"/>
<path d="M93.4,247.5c0-19.4,3.5-38.1,10.4-56c6.9-17.9,16.9-33.9,29.7-47.9c3.3-3.8,7.3-5.9,11.8-6c4.5-0.2,8.4,1.6,11.5,5.3  c2.7,3,3.8,6.6,3.5,10.7c-0.3,4.1-2.2,8.2-5.5,12.2c-10,10.9-17.7,23.3-23.1,37.4c-5.4,14.1-8,28.9-8,44.4  c0,32.3,10.4,59.8,31.1,82.6c7.2,8.5,7.8,16.1,1.8,22.8c-3.2,3.5-7,5.1-11.4,4.9c-4.4-0.3-8.3-2.1-11.7-5.6  c-13.1-14.2-23-30.3-29.9-48.2C96.8,286,93.4,267.2,93.4,247.5z M388.5,247.5c0-15.6-2.7-30.4-8-44.4c-5.4-14.1-13.1-26.5-23.1-37.4  c-3.3-4-5.2-8.1-5.5-12.2c-0.3-4.1,0.8-7.7,3.5-10.7c3.2-3.7,7-5.4,11.5-5.3c4.5,0.2,8.4,2.2,11.8,6c12.9,14.1,22.8,30,29.7,47.9  c6.9,17.9,10.4,36.6,10.4,56c0,19.7-3.4,38.6-10.3,56.5c-6.9,17.9-16.8,34-29.9,48.2c-3.3,3.5-7.2,5.4-11.7,5.6  c-4.4,0.3-8.2-1.4-11.4-4.9c-6-6.7-5.4-14.3,1.8-22.8C378.1,307.3,388.5,279.8,388.5,247.5z M226.1,247.5c0-8.4,2.9-15.4,8.8-21.2  c5.9-5.8,12.9-8.7,21.1-8.7c8.4,0,15.5,2.9,21.3,8.7c5.9,5.8,8.8,12.8,8.8,21.2c0,5.7-1.4,10.8-4.3,15.4s-6.6,8.2-11.3,10.7v134.3  c0,4.7-1.3,8.5-4,11.4c-2.7,2.9-6.2,4.4-10.5,4.4c-4,0-7.4-1.5-10.2-4.5c-2.8-3-4.1-6.8-4.1-11.3v-134c-4.7-2.5-8.4-6.1-11.3-10.8  C227.6,258.3,226.1,253.2,226.1,247.5z M325,247.5c0-7.2-1.1-14.1-3.4-20.8c-2.3-6.7-5.4-12.9-9.4-18.6c-3.2-4.4-4.9-8.4-5.3-12.2  c-0.3-3.8,0.8-7.2,3.3-10.2c3.3-3.7,7.4-5.4,12.2-5.3c4.8,0.2,8.7,2.3,11.9,6.5c14.1,17.6,21.1,37.7,21.1,60.5  c0,23.1-7,43.5-21.1,61.2c-3.2,3.8-7.2,5.9-12,6.1c-4.9,0.3-8.9-1.4-12-4.9c-5.2-6.4-4.5-13.9,2-22.6c4.2-5.4,7.4-11.4,9.5-18.1  C323.9,262.6,325,255.3,325,247.5z M156.9,247.5c0-22.8,7-42.9,21.1-60.5c3.2-4.2,7.2-6.4,11.9-6.5c4.8-0.2,8.8,1.6,12.2,5.3  c2.5,3,3.6,6.4,3.3,10.2c-0.3,3.8-2.1,7.8-5.3,12.2c-4,5.7-7.2,11.9-9.4,18.6c-2.3,6.7-3.4,13.6-3.4,20.8c0,15.6,4.3,28.9,12.8,39.9  c3.2,4.4,4.9,8.4,5.3,12.2c0.3,3.8-0.8,7.2-3.3,10.4c-3.2,3.5-7.2,5.1-12,4.9c-4.9-0.3-8.9-2.3-12-6.1  C163.9,291,156.9,270.6,156.9,247.5z" class="multicolor-1:white hierarchical-1:primary SFSymbolsPreviewFFFFFF" style="fill: #FFFFFF;"/>
</svg>