<?xml version="1.0" encoding="UTF-8"?>
<!--Generator: Apple Native CoreSVG 326-->
<!DOCTYPE svg
PUBLIC "-//W3C//DTD SVG 1.1//EN"
       "http://www.w3.org/Graphics/SVG/1.1/DTD/svg11.dtd">
<svg version="1.1" xmlns="http://www.w3.org/2000/svg" xmlns:xlink="http://www.w3.org/1999/xlink" viewBox="0 0 27.6196 32.2241">
 <g>
  <rect height="32.2241" opacity="0" width="27.6196" x="0" y="0"/>
  <path d="M14.4544 17.0252L14.4544 26.6736C14.4544 27.2302 14.1321 27.6013 13.6243 27.6013C13.136 27.6013 12.804 27.2205 12.804 26.6736L12.804 15.3748ZM4.38261 6.95341C3.06983 8.7084 2.34498 10.8767 2.34498 13.2459C2.34498 15.9998 3.3313 18.49 5.07935 20.3845C5.46021 20.8142 5.56763 21.322 5.22584 21.7127C4.88404 22.113 4.27857 22.113 3.86841 21.6638C1.78834 19.4373 0.596929 16.4685 0.596929 13.2459C0.596929 10.4195 1.50779 7.79477 3.12736 5.69816ZM23.3801 4.82789C25.47 7.04468 26.6614 10.0134 26.6614 13.2459C26.6614 15.9859 25.8001 18.5424 24.2505 20.6104L22.996 19.3558C24.2289 17.6303 24.9133 15.5287 24.9133 13.2459C24.9133 10.4822 23.9172 7.99195 22.179 6.10718C21.7981 5.66773 21.6907 5.15992 22.0227 4.77906C22.3743 4.37867 22.97 4.37867 23.3801 4.82789ZM8.12454 10.6953C7.74572 11.4593 7.54029 12.3213 7.54029 13.2459C7.54029 14.613 7.94068 15.8826 8.77076 16.8298C9.11255 17.2888 9.24927 17.7673 8.91724 18.158C8.55591 18.5584 7.92115 18.5681 7.54029 18.0896C6.42701 16.7712 5.78248 15.072 5.78248 13.2459C5.78248 11.8528 6.15751 10.5337 6.83174 9.40254ZM19.718 8.4021C20.8313 9.72046 21.4661 11.4197 21.4661 13.2459C21.4661 14.5599 21.1374 15.8082 20.5337 16.8936L19.2494 15.6092C19.5622 14.8941 19.718 14.0885 19.718 13.2459C19.718 11.8787 19.259 10.6482 18.4876 9.66187C18.1458 9.19312 17.9993 8.7146 18.3411 8.33375C18.6926 7.93335 19.3372 7.92359 19.718 8.4021Z" fill="black" fill-opacity="0.85"/>
  <path d="M24.8352 25.4724C25.1575 25.8044 25.6946 25.8044 26.0169 25.4724C26.3391 25.1404 26.3391 24.6228 26.0169 24.3005L3.32154 1.60523C2.99927 1.28296 2.46216 1.2732 2.13013 1.60523C1.81763 1.91773 1.81763 2.4646 2.13013 2.78687Z" fill="black" fill-opacity="0.85"/>
 </g>
</svg>
