<?xml version="1.0" encoding="UTF-8"?>
<!--Generator: Apple Native CoreSVG 326-->
<!DOCTYPE svg
PUBLIC "-//W3C//DTD SVG 1.1//EN"
       "http://www.w3.org/Graphics/SVG/1.1/DTD/svg11.dtd">
<svg version="1.1" xmlns="http://www.w3.org/2000/svg" xmlns:xlink="http://www.w3.org/1999/xlink" viewBox="0 0 25.8008 25.459">
 <g>
  <rect height="25.459" opacity="0" width="25.8008" x="0" y="0"/>
  <path d="M25.4395 12.7344C25.4395 19.7461 19.7266 25.459 12.7148 25.459C5.71289 25.459 0 19.7461 0 12.7344C0 5.73242 5.71289 0.0195312 12.7148 0.0195312C19.7266 0.0195312 25.4395 5.73242 25.4395 12.7344ZM11.2988 12.2852C11.2988 12.8418 11.6211 13.3105 12.0801 13.5352L12.0801 20.5176C12.0801 20.918 12.3438 21.2109 12.7148 21.2109C13.0957 21.2109 13.3594 20.9277 13.3594 20.5176L13.3594 13.5254C13.8184 13.3008 14.1406 12.832 14.1406 12.2852C14.1406 11.4941 13.5059 10.8691 12.7148 10.8691C11.9238 10.8691 11.2988 11.4941 11.2988 12.2852ZM6.68945 7.06055C5.36133 8.4668 4.62891 10.332 4.62891 12.2852C4.62891 14.2676 5.35156 16.1035 6.68945 17.5293C6.98242 17.8418 7.42188 17.8613 7.69531 17.5586C7.93945 17.2754 7.91016 16.9043 7.61719 16.5625C6.55273 15.4199 5.9668 13.9258 5.9668 12.2852C5.9668 10.6641 6.55273 9.16016 7.61719 8.03711C7.91016 7.69531 7.93945 7.29492 7.70508 7.03125C7.43164 6.71875 6.98242 6.72852 6.68945 7.06055ZM17.7344 7.03125C17.4902 7.29492 17.5293 7.69531 17.8125 8.03711C18.8867 9.16016 19.4629 10.6641 19.4629 12.2852C19.4629 13.9258 18.8867 15.4199 17.8125 16.5625C17.5195 16.9043 17.4902 17.2754 17.7441 17.5586C18.0078 17.8613 18.457 17.8418 18.75 17.5293C20.0781 16.1035 20.8008 14.2676 20.8008 12.2852C20.8008 10.332 20.0684 8.4668 18.75 7.06055C18.457 6.72852 18.0078 6.71875 17.7344 7.03125ZM8.89648 9.24805C8.19336 10.0879 7.80273 11.1719 7.80273 12.2852C7.80273 13.4082 8.19336 14.4922 8.89648 15.3418C9.16992 15.6836 9.67773 15.6934 9.95117 15.3906C10.1758 15.1074 10.1465 14.7656 9.85352 14.3945C9.38477 13.8379 9.14062 13.125 9.14062 12.2852C9.14062 11.5137 9.39453 10.8008 9.86328 10.1855C10.1367 9.82422 10.1758 9.47266 9.95117 9.20898C9.6582 8.87695 9.16992 8.89648 8.89648 9.24805ZM15.4785 9.20898C15.2637 9.47266 15.3027 9.82422 15.5664 10.1855C16.0352 10.8008 16.2988 11.5137 16.2988 12.2852C16.2988 13.125 16.0449 13.8379 15.5859 14.3945C15.2832 14.7656 15.2539 15.1074 15.4785 15.3906C15.7617 15.6934 16.2598 15.6836 16.5332 15.3418C17.2363 14.4922 17.627 13.4082 17.627 12.2852C17.627 11.1719 17.2363 10.0879 16.5332 9.24805C16.2598 8.89648 15.7715 8.87695 15.4785 9.20898Z" fill="black" fill-opacity="0.85"/>
 </g>
</svg>
