<?xml version="1.0" encoding="UTF-8"?>
<!--Generator: Apple Native CoreSVG 326-->
<!DOCTYPE svg
PUBLIC "-//W3C//DTD SVG 1.1//EN"
       "http://www.w3.org/Graphics/SVG/1.1/DTD/svg11.dtd">
<svg version="1.1" xmlns="http://www.w3.org/2000/svg" xmlns:xlink="http://www.w3.org/1999/xlink" viewBox="0 0 25.8008 25.459">
 <g>
  <rect height="25.459" opacity="0" width="25.8008" x="0" y="0"/>
  <path d="M25.4395 12.7344C25.4395 19.7461 19.7266 25.459 12.7148 25.459C5.71289 25.459 0 19.7461 0 12.7344C0 5.73242 5.71289 0.0195312 12.7148 0.0195312C19.7266 0.0195312 25.4395 5.73242 25.4395 12.7344ZM12.0801 20.5176C12.0801 20.918 12.3438 21.2109 12.7148 21.2109C13.0957 21.2109 13.3594 20.9277 13.3594 20.5176L13.3594 15.3418L12.0801 14.0625ZM6.2793 6.29883C6.07422 6.51367 6.08398 6.85547 6.2793 7.05078L18.4082 19.1699C18.6035 19.375 18.9551 19.375 19.1602 19.1699C19.3652 18.9453 19.3652 18.623 19.1602 18.418L7.04102 6.29883C6.83594 6.08398 6.50391 6.08398 6.2793 6.29883ZM4.62891 12.2852C4.62891 14.2676 5.35156 16.1035 6.68945 17.5293C6.98242 17.8418 7.42188 17.8613 7.69531 17.5586C7.93945 17.2754 7.91016 16.9043 7.61719 16.5625C6.55273 15.4199 5.9668 13.9258 5.9668 12.2852C5.9668 11.0557 6.30383 9.89361 6.93252 8.91494L5.97471 7.95713C5.09856 9.21349 4.62891 10.7211 4.62891 12.2852ZM17.7344 7.03125C17.4902 7.29492 17.5293 7.69531 17.8125 8.03711C18.8867 9.16016 19.4629 10.6641 19.4629 12.2852C19.4629 13.7504 19.0033 15.0989 18.1368 16.1824L19.0864 17.1327C20.2018 15.7734 20.8008 14.09 20.8008 12.2852C20.8008 10.332 20.0684 8.4668 18.75 7.06055C18.457 6.72852 18.0078 6.71875 17.7344 7.03125ZM7.80273 12.2852C7.80273 13.4082 8.19336 14.4922 8.89648 15.3418C9.16992 15.6836 9.67773 15.6934 9.95117 15.3906C10.1758 15.1074 10.1465 14.7656 9.85352 14.3945C9.38477 13.8379 9.14062 13.125 9.14062 12.2852C9.14062 11.936 9.19264 11.5988 9.29566 11.2781L8.26205 10.2445C7.96211 10.8749 7.80273 11.574 7.80273 12.2852ZM15.4785 9.20898C15.2637 9.47266 15.3027 9.82422 15.5664 10.1855C16.0352 10.8008 16.2988 11.5137 16.2988 12.2852C16.2988 12.9112 16.1578 13.4667 15.8955 13.9392L16.8537 14.8983C17.3552 14.1313 17.627 13.2218 17.627 12.2852C17.627 11.1719 17.2363 10.0879 16.5332 9.24805C16.2598 8.89648 15.7715 8.87695 15.4785 9.20898Z" fill="black" fill-opacity="0.85"/>
 </g>
</svg>
