<?xml version="1.0" ?><!-- Generator: Adobe Illustrator 25.0.0, SVG Export Plug-In . SVG Version: 6.00 Build 0)  --><svg xmlns="http://www.w3.org/2000/svg" xmlns:xlink="http://www.w3.org/1999/xlink" version="1.1" id="Layer_1" x="0px" y="0px" viewBox="0 0 512 512" style="enable-background:new 0 0 512 512;" xml:space="preserve">
<path d="M256,512c35,0,67.9-6.7,98.8-20.1c30.9-13.4,58.1-31.9,81.7-55.5c23.6-23.6,42.1-50.8,55.5-81.7  C505.3,323.9,512,291,512,256s-6.7-67.9-20.1-98.8c-13.4-30.9-31.9-58.1-55.5-81.7c-23.6-23.6-50.9-42.1-81.8-55.5  C323.7,6.7,290.7,0,255.7,0S187.9,6.7,157,20.1C126.1,33.5,98.9,52,75.4,75.5c-23.5,23.6-42,50.8-55.3,81.7C6.7,188.1,0,221,0,256  s6.7,67.9,20.1,98.8c13.4,30.9,31.9,58.1,55.5,81.7c23.6,23.6,50.8,42.1,81.7,55.5C188.1,505.3,221,512,256,512z M256,469.3  c-29.6,0-57.3-5.5-83.1-16.6c-25.8-11-48.4-26.3-67.9-45.8c-19.5-19.5-34.7-42.1-45.7-67.9c-11-25.8-16.4-53.5-16.4-83.1  c0-29.6,5.5-57.3,16.4-83.1c11-25.8,26.1-48.4,45.6-68s42-34.8,67.8-45.8c25.8-11,53.5-16.4,83.1-16.4c29.6,0,57.3,5.5,83.1,16.4  c25.8,11,48.4,26.2,68,45.8c19.6,19.6,34.9,42.2,45.9,68c11,25.8,16.6,53.5,16.6,83.1c0,29.6-5.5,57.3-16.4,83.1  c-11,25.8-26.2,48.4-45.7,67.9c-19.5,19.5-42.2,34.8-68,45.8C313.3,463.8,285.6,469.3,256,469.3z" class="multicolor-0:systemGreenColor hierarchical-0:secondary SFSymbolsPreview28CD41" style="fill: #28CD41;"/>
<path d="M384.2,248.2c0,31.6-10,58.3-30.1,80.1c-6.9,8.2-7.4,15.6-1.8,22.1c3,3.3,6.7,4.9,11,4.8c4.4-0.2,8.1-2,11.3-5.5  c25.9-28.1,38.9-61.9,38.9-101.4c0-18.9-3.3-37.1-10-54.5c-6.7-17.4-16.3-32.9-28.9-46.4c-3.2-3.7-7-5.6-11.4-5.8  c-4.4-0.2-8.2,1.5-11.2,5c-2.5,3-3.6,6.5-3.3,10.4c0.3,3.9,2.1,7.8,5.3,11.7C374.2,190.4,384.2,216.9,384.2,248.2z M98.1,248.2  c0,39.5,13,73.3,38.9,101.4c3.2,3.5,6.9,5.4,11.3,5.5c4.4,0.2,8-1.4,11-4.8c5.7-6.5,5.1-13.9-1.8-22.1  c-20.1-21.8-30.1-48.4-30.1-80.1c0-31.3,10-57.8,30.1-79.6c3.2-3.8,4.9-7.7,5.3-11.7c0.3-3.9-0.8-7.4-3.3-10.4  c-3-3.5-6.7-5.2-11.2-5c-4.4,0.2-8.2,2.1-11.4,5.8c-12.5,13.6-22.2,29-28.9,46.4C101.5,211.2,98.1,229.3,98.1,248.2z M226.9,248.2  c0,5.7,1.4,10.7,4.1,15.1c2.8,4.4,6.4,7.8,10.9,10.3v130.3c0,4.5,1.3,8.2,3.9,11c2.6,2.8,5.9,4.3,9.9,4.3c4.2,0,7.6-1.4,10.2-4.3  c2.6-2.8,3.9-6.5,3.9-11V273.6c4.5-2.5,8.2-6,10.9-10.4c2.8-4.4,4.1-9.4,4.1-14.9c0-8-2.8-14.8-8.4-20.5c-5.6-5.6-12.5-8.4-20.7-8.4  c-8,0-14.8,2.8-20.5,8.4C229.7,233.4,226.9,240.2,226.9,248.2z M322.8,248.2c0,7.5-1,14.6-3.1,21.1c-2.1,6.5-5.2,12.4-9.4,17.6  c-3,4.2-4.7,8.1-5,11.8c-0.3,3.7,0.8,7,3.3,10c3,3.3,6.9,4.9,11.5,4.8c4.7-0.2,8.5-2.2,11.5-6c13.7-17.1,20.6-36.8,20.6-59.2  c0-22.1-6.9-41.7-20.6-58.7c-3-4-6.8-6.1-11.4-6.4c-4.6-0.3-8.5,1.5-11.7,5.1c-2.5,2.8-3.6,6.1-3.3,9.8c0.3,3.7,2,7.6,5,11.8  c4,5.5,7.1,11.5,9.3,18.1C321.7,234.4,322.8,241.2,322.8,248.2z M159.6,248.2c0,22.4,6.9,42.2,20.6,59.2c3,3.8,6.9,5.9,11.5,6  c4.7,0.2,8.5-1.4,11.5-4.8c2.5-3,3.6-6.4,3.3-10c-0.3-3.7-2-7.6-5-11.8c-8.4-10.4-12.5-23.3-12.5-38.7c0-7,1.1-13.8,3.3-20.3  c2.2-6.5,5.3-12.5,9.3-18.1c3-4.2,4.7-8.1,5-11.8c0.3-3.7-0.8-6.9-3.3-9.8c-3.2-3.7-7.1-5.4-11.7-5.1c-4.6,0.3-8.4,2.4-11.4,6.4  C166.5,206.6,159.6,226.1,159.6,248.2z" class="multicolor-0:systemGreenColor hierarchical-1:primary SFSymbolsPreview28CD41" style="fill: #28CD41;"/>
</svg>