<?xml version="1.0" encoding="UTF-8"?>
<!--Generator: Apple Native CoreSVG 326-->
<!DOCTYPE svg
PUBLIC "-//W3C//DTD SVG 1.1//EN"
       "http://www.w3.org/Graphics/SVG/1.1/DTD/svg11.dtd">
<svg version="1.1" xmlns="http://www.w3.org/2000/svg" xmlns:xlink="http://www.w3.org/1999/xlink" viewBox="0 0 26.4258 23.2549">
 <g>
  <rect height="23.2549" opacity="0" width="26.4258" x="0" y="0"/>
  <path d="M0 8.76125C0 11.9839 1.19141 14.9527 3.28125 17.1792C3.69141 17.6284 4.28711 17.6284 4.63867 17.228C4.9707 16.8374 4.86328 16.3296 4.48242 15.8999C2.74414 14.0054 1.74805 11.5152 1.74805 8.76125C1.74805 5.99758 2.74414 3.50734 4.48242 1.62258C4.86328 1.18312 4.9707 0.675312 4.63867 0.294453C4.28711-0.105938 3.69141-0.105938 3.28125 0.343281C1.19141 2.56008 0 5.52883 0 8.76125ZM21.4355 17.228C21.7773 17.6284 22.3828 17.6284 22.793 17.1792C24.873 14.9527 26.0645 11.9839 26.0645 8.76125C26.0645 5.52883 24.873 2.56008 22.793 0.343281C22.3828-0.105938 21.7773-0.105938 21.4355 0.294453C21.0938 0.675312 21.2012 1.18312 21.582 1.62258C23.3301 3.50734 24.3164 5.99758 24.3164 8.76125C24.3164 11.5152 23.3301 14.0054 21.582 15.8999C21.2012 16.3296 21.0938 16.8374 21.4355 17.228Z" fill="black" fill-opacity="0.85"/>
  <path d="M5.19531 8.76125C5.19531 10.5874 5.83008 12.2866 6.94336 13.605C7.32422 14.0835 7.96875 14.0737 8.32031 13.6734C8.66211 13.2827 8.51562 12.8042 8.17383 12.3452C7.35352 11.398 6.94336 10.1284 6.94336 8.76125C6.94336 7.39406 7.40234 6.16359 8.17383 5.17727C8.51562 4.70852 8.66211 4.23 8.32031 3.84914C7.96875 3.44875 7.32422 3.43898 6.94336 3.9175C5.83008 5.23586 5.19531 6.93508 5.19531 8.76125ZM17.7441 13.6734C18.1055 14.0737 18.7402 14.0835 19.1309 13.605C20.2344 12.2866 20.8789 10.5874 20.8789 8.76125C20.8789 6.93508 20.2344 5.23586 19.1309 3.9175C18.7402 3.43898 18.1055 3.44875 17.7441 3.84914C17.4121 4.23 17.5586 4.70852 17.8906 5.17727C18.6719 6.16359 19.1211 7.39406 19.1211 8.76125C19.1211 10.1284 18.7207 11.398 17.8906 12.3452C17.5488 12.8042 17.4121 13.2827 17.7441 13.6734Z" fill="black" fill-opacity="0.85"/>
  <path d="M10.9375 8.76125C10.9375 9.63039 11.4551 10.3628 12.207 10.6753L12.207 22.189C12.207 22.7359 12.5488 23.1167 13.0371 23.1167C13.5449 23.1167 13.8574 22.7456 13.8574 22.189L13.8574 10.6753C14.6094 10.3628 15.1367 9.62062 15.1367 8.76125C15.1367 7.58937 14.209 6.65187 13.0371 6.65187C11.8652 6.65187 10.9375 7.58937 10.9375 8.76125Z" fill="black" fill-opacity="0.85"/>
 </g>
</svg>
