<?xml version="1.0" encoding="UTF-8"?>
<!--Generator: Apple Native CoreSVG 326-->
<!DOCTYPE svg
PUBLIC "-//W3C//DTD SVG 1.1//EN"
       "http://www.w3.org/Graphics/SVG/1.1/DTD/svg11.dtd">
<svg version="1.1" xmlns="http://www.w3.org/2000/svg" xmlns:xlink="http://www.w3.org/1999/xlink" viewBox="0 0 23.2715 22.9199">
 <g>
  <rect height="22.9199" opacity="0" width="23.2715" x="0" y="0"/>
  <path d="M0 11.0645L6.44531 11.0645C4.66797 10.3125 3.34961 8.86719 3.34961 7.14844C3.34961 5.23438 4.70703 3.87695 6.5625 3.87695C8.28125 3.87695 9.88281 5.05859 10.752 6.9043L10.752 0L12.1777 0L12.1777 6.9043C13.0469 5.05859 14.6484 3.87695 16.3672 3.87695C18.2227 3.87695 19.5801 5.23438 19.5801 7.14844C19.5801 8.86719 18.2617 10.3125 16.4844 11.0645L22.9102 11.0645L22.9102 12.373L13.291 12.373C14.2285 14.2871 16.9629 16.748 18.7793 16.9727C19.4141 17.0312 19.7363 17.4023 19.7363 17.9785C19.7363 18.4863 19.3359 18.9746 18.6719 18.877C16.6797 18.5547 13.3691 16.2207 12.2559 13.2422L12.1777 13.2422L12.1777 22.9102L10.752 22.9102L10.752 13.2422L10.6738 13.2422C9.56055 16.2207 6.25 18.5547 4.25781 18.877C3.59375 18.9746 3.19336 18.4863 3.19336 17.9785C3.19336 17.4023 3.51562 17.041 4.15039 16.9727C5.9668 16.7285 8.70117 14.2871 9.63867 12.373L0 12.373ZM10.1367 10.918L10.5273 10.918L10.5273 10.5469C10.5273 7.88086 8.69141 5.54688 6.64062 5.54688C5.64453 5.54688 4.99023 6.21094 4.99023 7.27539C4.99023 9.05273 7.39258 10.918 10.1367 10.918ZM12.793 10.918C15.5371 10.918 17.9395 9.05273 17.9395 7.27539C17.9395 6.21094 17.2852 5.54688 16.2891 5.54688C14.2383 5.54688 12.4023 7.88086 12.4023 10.5469L12.4023 10.918ZM21.4844 1.44531C20.2637 0.234375 18.5742 0 16.3379 0L6.50391 0C4.3457 0 2.64648 0.234375 1.43555 1.44531C0.224609 2.65625 0 4.33594 0 6.50391L0 16.3379C0 18.584 0.214844 20.2637 1.42578 21.4648C2.64648 22.6758 4.33594 22.9102 6.57227 22.9102L16.3379 22.9102C18.5742 22.9102 20.2734 22.6758 21.4844 21.4648C22.6953 20.2539 22.9102 18.584 22.9102 16.3379L22.9102 6.5625C22.9102 4.32617 22.6953 2.64648 21.4844 1.44531Z" fill="black" fill-opacity="0.85"/>
 </g>
</svg>
