<?xml version="1.0" ?><!-- Generator: Adobe Illustrator 25.0.0, SVG Export Plug-In . SVG Version: 6.00 Build 0)  --><svg xmlns="http://www.w3.org/2000/svg" xmlns:xlink="http://www.w3.org/1999/xlink" version="1.1" id="Layer_1" x="0px" y="0px" viewBox="0 0 512 512" style="enable-background:new 0 0 512 512;" xml:space="preserve">
<path d="M479.5,34C451.2,5.7,411.2,1.2,363.7,1.2H147.4c-46.6,0-86.6,4.4-115,32.8C4.2,62.3,0,102,0,148.4v214.4  c0,47.5,4.2,86.9,32.5,115.2c28.3,28.3,68.3,32.8,115.5,32.8h215.7c47.5,0,87.5-4.4,115.8-32.8c28.3-28.3,32.5-67.7,32.5-115.2  V149.2C512,101.8,507.8,62.1,479.5,34z M65,66.5C81.9,49.6,112.2,46,141.3,46h94.4v110c-18.3-35.5-49.7-57.5-84.4-57.5  c-40,0-69.7,29.7-69.7,70.2c0,35,24.7,63.9,59.7,79.7H44.7V142.3C44.7,113.1,48.3,83.2,65,66.5z M467.3,141.5v106.9H363.7  c35.3-15.8,59.7-44.7,59.7-79.7c0-40.5-29.7-70.2-69.7-70.2c-34.7,0-66.1,21.9-84.4,57.5V46h102.2c28.6,0,58.6,3.9,75.2,20.5  C463.7,83.4,467.3,112.9,467.3,141.5z M222.4,244.2c-54.7,0-101.6-37.5-101.6-72.5c0-21.1,12.8-33.9,32.8-33.9  c41.1,0,77.2,45.8,77.2,98.6v7.8H222.4z M282.7,244.2h-8.3v-7.8c0-52.8,36.1-98.6,77.2-98.6c20.3,0,32.8,12.8,32.8,33.9  C384.3,206.7,337.6,244.2,282.7,244.2z M371.5,466H269.3V298.3h2.2c18.3,57.2,86.9,106.9,129.7,113.6c15.8,2.2,25.5-9.2,25.5-21.4  c0-13.3-8.1-22.2-22.5-23.6c-38.3-4.2-91.9-54.1-108-88h171v91.3c0,28.9-3.6,58.3-20.5,75.2C430.1,462.2,400.1,466,371.5,466z   M140.5,466c-28.6,0-58.6-3.9-75.5-20.5c-16.7-16.9-20.3-46.4-20.3-75.2v-91.3h164.4c-16.4,33.9-69.7,83.9-108.3,88  c-14.2,1.4-22.2,10.3-22.2,23.6c0,12.2,9.7,23.6,25.3,21.4c43-6.7,111.3-56.4,129.9-113.6h1.9V466H140.5z"/>
</svg>