<?xml version="1.0" ?><!-- Generator: Adobe Illustrator 25.0.0, SVG Export Plug-In . SVG Version: 6.00 Build 0)  --><svg xmlns="http://www.w3.org/2000/svg" xmlns:xlink="http://www.w3.org/1999/xlink" version="1.1" id="Layer_1" x="0px" y="0px" viewBox="0 0 512 512" style="enable-background:new 0 0 512 512;" xml:space="preserve">
<path d="M106,162.1c0,47.8,28.4,79.7,85.2,95.5l118.4,33.4c39.2,11.1,58.8,30.9,58.8,59.3v16.5h37.9v-16.5  c0-47.8-28.4-79.6-85.2-95.3l-118.4-33.4c-39.2-11-58.8-30.8-58.8-59.5v-16.2H106V162.1z" class="hierarchical-0:secondary SFSymbolsPreview4D4D4D" style="fill: #4D4D4D;"/>
<path d="M192.1,10.1c-4.4-4.4-9.6-7.2-15.5-8.4C170.6,0.6,164,0,156.8,0H93.3c-7.1,0-13.6,0.6-19.5,1.8s-11.1,4-15.5,8.4  c-4.4,4.4-7.1,9.5-8.2,15.4c-1.1,5.9-1.6,12.4-1.6,19.4v63.5c0,7.2,0.5,13.8,1.6,19.8c1.1,6,3.8,11.1,8.2,15.3  c4.4,4.4,9.6,7.2,15.5,8.4s12.5,1.8,19.8,1.8h63.3c7.2,0,13.8-0.6,19.8-1.8c6-1.2,11.1-4,15.5-8.4c4.2-4.2,6.9-9.3,8.1-15.3  c1.2-6,1.8-12.5,1.8-19.8V45.2c0-7.2-0.6-13.8-1.8-19.6C199.1,19.6,196.4,14.5,192.1,10.1z M454,368.7c-4.4-4.4-9.6-7.2-15.5-8.4  c-6-1.2-12.5-1.8-19.8-1.8h-63.5c-7.1,0-13.6,0.6-19.5,1.8c-6,1.2-11.1,4-15.5,8.4c-4.4,4.4-7.1,9.5-8.2,15.4  c-1.1,5.9-1.6,12.4-1.6,19.4v63.5c0,7.1,0.5,13.6,1.6,19.6s3.8,11.2,8.2,15.4c4.4,4.2,9.6,6.9,15.5,8.1c6,1.2,12.5,1.8,19.5,1.8  h63.5c7.2,0,13.8-0.6,19.8-1.8c6-1.2,11.1-3.9,15.5-8.1c4.2-4.2,6.9-9.4,8-15.4s1.6-12.6,1.6-19.6v-63.5c0-7.1-0.5-13.6-1.6-19.5  C460.9,378,458.2,372.9,454,368.7z" class="hierarchical-1:primary SFSymbolsPreview212121" style="fill: #212121;"/>
</svg>