<?xml version="1.0" encoding="UTF-8"?>
<!--Generator: Apple Native CoreSVG 326-->
<!DOCTYPE svg
PUBLIC "-//W3C//DTD SVG 1.1//EN"
       "http://www.w3.org/Graphics/SVG/1.1/DTD/svg11.dtd">
<svg version="1.1" xmlns="http://www.w3.org/2000/svg" xmlns:xlink="http://www.w3.org/1999/xlink" viewBox="0 0 21.3281 26.9238">
 <g>
  <rect height="26.9238" opacity="0" width="21.3281" x="0" y="0"/>
  <path d="M7.38281 12.7441C8.89648 12.7441 9.98047 11.6699 9.98047 10.1562C9.98047 8.66211 9.0332 7.67578 7.66602 7.67578C6.98242 7.67578 6.38672 7.90039 5.9668 8.42773L5.73242 8.42773C5.83984 7.92969 6.15234 7.44141 6.61133 7.04102C7.06055 6.66016 7.56836 6.41602 8.1543 6.29883C8.56445 6.21094 8.71094 6.07422 8.71094 5.82031C8.71094 5.58594 8.54492 5.41016 8.22266 5.41016C7.40234 5.41016 6.35742 5.91797 5.64453 6.68945C4.93164 7.46094 4.55078 8.45703 4.55078 9.54102C4.55078 11.5723 5.81055 12.7441 7.38281 12.7441ZM13.8379 12.7344C15.3418 12.7344 16.4258 11.6602 16.4258 10.1465C16.4258 8.65234 15.4883 7.66602 14.1113 7.66602C13.4277 7.66602 12.832 7.89062 12.4121 8.41797L12.1777 8.41797C12.2852 7.92969 12.5879 7.45117 13.0371 7.05078C13.4863 6.65039 14.0039 6.41602 14.6094 6.28906C15.0098 6.20117 15.166 6.06445 15.166 5.81055C15.166 5.57617 14.9902 5.40039 14.668 5.40039C13.8477 5.40039 12.7832 5.92773 12.0898 6.67969C11.377 7.45117 10.9961 8.44727 10.9961 9.53125C10.9961 11.5625 12.2559 12.7344 13.8379 12.7344ZM5.54688 17.3438L15.459 17.3438C15.8496 17.3438 16.1426 17.041 16.1426 16.6602C16.1426 16.2793 15.8496 15.9863 15.459 15.9863L5.54688 15.9863C5.14648 15.9863 4.85352 16.2793 4.85352 16.6602C4.85352 17.041 5.14648 17.3438 5.54688 17.3438ZM5.54688 21.1719L10.2832 21.1719C10.6738 21.1719 10.9668 20.8789 10.9668 20.5078C10.9668 20.127 10.6738 19.8242 10.2832 19.8242L5.54688 19.8242C5.14648 19.8242 4.85352 20.127 4.85352 20.5078C4.85352 20.8789 5.14648 21.1719 5.54688 21.1719ZM0 23.125C0 25.6445 1.25977 26.9238 3.75977 26.9238L17.207 26.9238C19.707 26.9238 20.9668 25.6445 20.9668 23.125L20.9668 3.80859C20.9668 1.28906 19.707 0.00976562 17.207 0.00976562L3.75977 0.00976562C1.25977 0.00976562 0 1.28906 0 3.80859ZM1.72852 23.0859L1.72852 3.84766C1.72852 2.48047 2.45117 1.73828 3.85742 1.73828L17.1094 1.73828C18.5156 1.73828 19.2383 2.48047 19.2383 3.84766L19.2383 23.0859C19.2383 24.4531 18.5156 25.1953 17.1094 25.1953L3.85742 25.1953C2.45117 25.1953 1.72852 24.4531 1.72852 23.0859Z" fill="black" fill-opacity="0.85"/>
 </g>
</svg>
