<?xml version="1.0" encoding="UTF-8"?>
<!--Generator: Apple Native CoreSVG 326-->
<!DOCTYPE svg
PUBLIC "-//W3C//DTD SVG 1.1//EN"
       "http://www.w3.org/Graphics/SVG/1.1/DTD/svg11.dtd">
<svg version="1.1" xmlns="http://www.w3.org/2000/svg" xmlns:xlink="http://www.w3.org/1999/xlink" viewBox="0 0 26.3379 32.8418">
 <g>
  <rect height="32.8418" opacity="0" width="26.3379" x="0" y="0"/>
  <path d="M18.6363 3.53516L7.34027 3.53516C7.40282 2.64931 7.97728 2.12891 8.91602 2.12891L17.0605 2.12891C17.9993 2.12891 18.5737 2.64931 18.6363 3.53516Z" fill="black" fill-opacity="0.85"/>
  <path d="M21.1564 6.942C20.8094 6.88925 20.4418 6.86523 20.0586 6.86523L5.91797 6.86523C5.53117 6.86523 5.16046 6.88947 4.81065 6.94255C4.9444 5.91296 5.65963 5.33203 6.80664 5.33203L19.1699 5.33203C20.3167 5.33203 21.0241 5.91275 21.1564 6.942Z" fill="black" fill-opacity="0.85"/>
  <path d="M5.91797 30.7324L20.0586 30.7324C22.5781 30.7324 23.8574 29.4531 23.8574 26.9629L23.8574 12.7441C23.8574 10.2637 22.5781 8.98438 20.0586 8.98438L5.91797 8.98438C3.38867 8.98438 2.11914 10.2539 2.11914 12.7441L2.11914 26.9629C2.11914 29.4629 3.38867 30.7324 5.91797 30.7324ZM5.94727 29.0039C4.58984 29.0039 3.84766 28.2715 3.84766 26.875L3.84766 12.8418C3.84766 11.4355 4.58984 10.7129 5.94727 10.7129L20.0293 10.7129C21.3574 10.7129 22.1289 11.4355 22.1289 12.8418L22.1289 26.875C22.1289 28.2715 21.3574 29.0039 20.0293 29.0039Z" fill="black" fill-opacity="0.85"/>
  <path d="M12.7051 24.3262C13.0469 24.3262 13.3105 24.0332 13.3105 23.7109L13.3105 20.8203C17.2656 20.5859 19.8145 17.8809 19.7656 13.9258C19.7656 13.5645 19.5215 13.291 19.1016 13.291C16.0547 13.2324 13.6914 14.9609 12.6367 17.8516C11.6504 15.7324 9.50195 14.8242 7.57812 14.8242C7.25586 14.8242 7.07031 15.0293 7.07031 15.3613C7.1582 17.1973 8.24219 20.5078 12.0898 20.8203L12.0898 23.7109C12.0898 24.043 12.3828 24.3262 12.7051 24.3262ZM12.0117 19.5996C9.75586 19.3652 8.67188 17.7051 8.35938 16.123C9.84375 16.3379 11.6016 17.3047 12.0117 19.5996ZM13.4277 19.6094C13.9746 16.5723 15.8887 14.668 18.5352 14.5215C18.3789 17.373 16.416 19.3262 13.4277 19.6094ZM7.09961 26.3867C7.43164 26.3867 7.73438 26.084 7.73438 25.752C7.73438 25.4297 7.43164 25.1367 7.09961 25.1367C6.75781 25.1367 6.47461 25.4297 6.47461 25.752C6.47461 26.084 6.75781 26.3867 7.09961 26.3867ZM8.7793 25.2539C9.12109 25.2539 9.42383 24.9707 9.42383 24.6387C9.42383 24.2969 9.12109 23.9941 8.7793 23.9941C8.4375 23.9941 8.16406 24.2969 8.16406 24.6387C8.16406 24.9609 8.44727 25.2539 8.7793 25.2539ZM10.7129 24.5996C11.0547 24.5996 11.3379 24.2871 11.3379 23.9746C11.3379 23.6328 11.0449 23.3496 10.7129 23.3496C10.3809 23.3496 10.0781 23.6328 10.0781 23.9746C10.0781 24.2871 10.3809 24.5996 10.7129 24.5996ZM14.707 24.5996C15.0293 24.5996 15.332 24.2871 15.332 23.9746C15.332 23.6328 15.0293 23.3496 14.707 23.3496C14.3652 23.3496 14.0723 23.6328 14.0723 23.9746C14.0723 24.2871 14.3652 24.5996 14.707 24.5996ZM16.6211 25.2539C16.9531 25.2539 17.2461 24.9609 17.2461 24.6387C17.2461 24.2969 16.9531 23.9941 16.6211 23.9941C16.2891 23.9941 15.9863 24.2969 15.9863 24.6387C15.9863 24.9707 16.2891 25.2539 16.6211 25.2539ZM18.3203 26.3867C18.6523 26.3867 18.9355 26.084 18.9355 25.752C18.9355 25.4297 18.6523 25.1367 18.3203 25.1367C17.9883 25.1367 17.6953 25.4297 17.6953 25.752C17.6953 26.084 17.9883 26.3867 18.3203 26.3867Z" fill="black" fill-opacity="0.85"/>
 </g>
</svg>
