<?xml version="1.0" encoding="UTF-8"?>
<!--Generator: Apple Native CoreSVG 326-->
<!DOCTYPE svg
PUBLIC "-//W3C//DTD SVG 1.1//EN"
       "http://www.w3.org/Graphics/SVG/1.1/DTD/svg11.dtd">
<svg version="1.1" xmlns="http://www.w3.org/2000/svg" xmlns:xlink="http://www.w3.org/1999/xlink" viewBox="0 0 30.9375 29.541">
 <g>
  <rect height="29.541" opacity="0" width="30.9375" x="0" y="0"/>
  <path d="M24.9376 7.36107L23.4475 7.68672C22.5412 5.8443 20.8904 4.44095 18.8869 3.85915C20.2836 4.89691 21.3589 6.33928 21.9415 8.01584L21.9336 8.01758C21.414 8.13069 20.9532 8.33848 20.578 8.62778C19.8149 6.32353 17.9556 4.52903 15.6118 3.85481C17.7888 5.47586 19.1895 8.06989 19.1895 10.9961C19.1895 13.9248 17.7864 16.5242 15.6062 18.1478C17.2076 17.6892 18.5822 16.7043 19.5323 15.3881L19.5422 17.5949C19.3377 17.7957 19.117 17.979 18.8814 18.1434C19.1089 18.0821 19.3301 18.0056 19.5436 17.914L19.5508 19.4995L19.5339 19.5057L18.2227 19.7949C18.1535 19.8105 18.085 19.8266 18.0209 19.8462C17.6199 19.9124 17.2069 19.9414 16.7871 19.9414C16.2289 19.9414 15.6825 19.8903 15.1546 19.7858C14.6278 19.8903 14.0825 19.9414 13.5254 19.9414C12.964 19.9414 12.4149 19.8899 11.8848 19.7849C11.3546 19.8899 10.8055 19.9414 10.2441 19.9414C5.3125 19.9414 1.31836 15.9375 1.31836 10.9961C1.31836 6.05469 5.3125 2.06055 10.2441 2.06055C10.8055 2.06055 11.3546 2.1119 11.8848 2.2167C12.4149 2.1119 12.964 2.06055 13.5254 2.06055C14.0825 2.06055 14.6278 2.11152 15.1546 2.2158C15.6825 2.11152 16.2289 2.06055 16.7871 2.06055C20.425 2.06055 23.5528 4.23396 24.9376 7.36107ZM2.80273 10.9961C2.80273 14.3917 5.06357 17.2503 8.16152 18.1464C5.98235 16.5227 4.58008 13.924 4.58008 10.9961C4.58008 8.0707 5.97996 5.47731 8.15595 3.85616C5.06089 4.75189 2.80273 7.60248 2.80273 10.9961ZM6.08398 10.9961C6.08398 14.3852 8.32288 17.2393 11.4176 18.1417C9.23847 16.5178 7.83203 13.9212 7.83203 10.9961C7.83203 8.0735 9.23607 5.48227 11.412 3.86082C8.32023 4.76291 6.08398 7.60904 6.08398 10.9961ZM9.33594 10.9961C9.33594 13.9428 11.0286 16.4851 13.5114 17.6872C15.9927 16.4851 17.6953 13.9428 17.6953 10.9961C17.6953 8.04935 15.9927 5.51203 13.5114 4.31278C11.0286 5.51203 9.33594 8.04935 9.33594 10.9961Z" fill="black" fill-opacity="0.85"/>
  <path d="M29.2578 13.6035L29.2578 9.23828C29.2578 8.64258 28.7695 8.24219 28.1934 8.36914L22.2949 9.6582C21.5918 9.80469 21.2012 10.2051 21.2012 10.8203L21.2305 19.9316C21.2305 20.5469 20.9766 20.918 20.4492 21.0352L18.5742 21.4355C16.25 21.9336 15.1562 23.0859 15.1562 24.8535C15.1562 26.6113 16.5137 27.8613 18.4375 27.8613C20.1562 27.8613 22.6953 26.6016 22.6953 23.2129L22.6953 16.4355C22.6953 15.7812 22.8125 15.6445 23.418 15.5078L28.6426 14.3555C29.0234 14.2676 29.2578 13.9844 29.2578 13.6035Z" fill="black" fill-opacity="0.85"/>
 </g>
</svg>
