<?xml version="1.0" encoding="UTF-8"?>
<!--Generator: Apple Native CoreSVG 326-->
<!DOCTYPE svg
PUBLIC "-//W3C//DTD SVG 1.1//EN"
       "http://www.w3.org/Graphics/SVG/1.1/DTD/svg11.dtd">
<svg version="1.1" xmlns="http://www.w3.org/2000/svg" xmlns:xlink="http://www.w3.org/1999/xlink" viewBox="0 0 21.031 19.9897">
 <g>
  <rect height="19.9897" opacity="0" width="21.031" x="0" y="0"/>
  <path d="M0.364136 19.4821C0.188355 19.8044 0.539917 20.0974 0.813355 19.9509L2.63953 18.9646L1.37976 17.7048ZM1.91687 16.7478L3.61609 18.447L4.30945 18.0661L19.9442 2.50949C20.5009 1.95285 20.5009 1.05441 19.9442 0.507534C19.3876-0.0491068 18.4794-0.0491068 17.9423 0.497768L2.3075 16.0642Z" fill="black" fill-opacity="0.85"/>
  <path d="M5.32507 7.91964C6.49695 6.738 7.32703 5.32199 7.76648 3.77902C7.9032 3.3005 7.61023 2.86105 7.17078 2.78292C6.71179 2.71457 6.36023 2.97824 6.22351 3.41769C5.87195 4.66769 5.19812 5.82003 4.21179 6.7966C3.1864 7.82199 1.98523 8.50558 0.696167 8.83761C0.227417 8.9548-0.0655516 9.31613 0.0125734 9.77511C0.0906984 10.2146 0.500855 10.5271 0.97937 10.4099C2.5907 9.99972 4.08484 9.15011 5.32507 7.91964ZM12.9423 14.8435C11.7704 16.0251 10.9403 17.4314 10.5009 18.9841C10.3739 19.4626 10.6571 19.9021 11.1063 19.9704C11.5555 20.0388 11.9169 19.7751 12.0438 19.3357C12.3954 18.0857 13.0692 16.9431 14.0555 15.9568C15.0809 14.9411 16.2821 14.2575 17.5712 13.9157C18.0399 13.7985 18.3329 13.4372 18.2548 12.988C18.1766 12.5388 17.7762 12.2263 17.288 12.3532C15.6766 12.7536 14.1825 13.6032 12.9423 14.8435Z" fill="black" fill-opacity="0.85"/>
 </g>
</svg>
