<?xml version="1.0" encoding="UTF-8"?>
<!--Generator: Apple Native CoreSVG 326-->
<!DOCTYPE svg
PUBLIC "-//W3C//DTD SVG 1.1//EN"
       "http://www.w3.org/Graphics/SVG/1.1/DTD/svg11.dtd">
<svg version="1.1" xmlns="http://www.w3.org/2000/svg" xmlns:xlink="http://www.w3.org/1999/xlink" viewBox="0 0 21.8773 31.0254">
 <g>
  <rect height="31.0254" opacity="0" width="21.8773" x="0" y="0"/>
  <path d="M0.0011577 13.3398C-0.0281392 14.6289 0.499205 15.8008 1.51483 16.7969L7.0617 22.373C4.79608 23.9453 3.966 25.2441 3.966 26.9434C3.966 29.3848 5.92889 30.9473 8.0871 30.9766C9.3371 31.0059 10.4504 30.5273 11.2023 29.7559L20.1086 20.8301C22.1203 18.8184 21.964 16.4453 19.6984 14.1797L14.5715 9.05273L16.4074 7.20703C17.2375 6.38672 17.716 5.3125 17.7062 4.25781C17.7551 1.86523 15.9094 0.00976562 13.4973 0C12.1398 0 11.0949 0.488281 9.91327 1.67969L1.24139 10.3418C0.450376 11.1328 0.020689 12.1875 0.0011577 13.3398ZM4.70819 9.32617L11.134 2.89062C11.9836 2.04102 12.5988 1.73828 13.4973 1.73828C14.9523 1.73828 15.9973 2.7832 15.9973 4.22852C15.9973 4.83398 15.7043 5.47852 15.1965 5.99609L8.26288 12.9102C8.22381 10.8984 6.81756 9.46289 4.70819 9.32617ZM1.81756 13.5059C1.81756 11.9629 2.7746 10.9277 4.18085 10.9277C5.65545 10.9277 6.67108 12.002 6.67108 13.6035C6.67108 13.7793 6.67108 14.3066 6.48553 14.8438C6.1828 15.7812 7.32538 16.3184 7.96991 15.6543L13.3508 10.2734L18.4875 15.4004C20.0988 17.002 20.1965 18.3008 18.8879 19.6191L12.1691 26.3379C12.0422 25.1172 11.4367 24.3262 10.1086 22.9883L3.18475 16.0254C2.1496 14.9805 1.81756 14.3457 1.81756 13.5059ZM5.69452 27.041C5.69452 25.7715 6.44647 24.8438 8.33124 23.6328L8.89764 24.1992C10.1867 25.498 10.5676 26.1133 10.5676 27.041C10.5773 28.252 9.47381 29.248 8.0871 29.248C6.82733 29.248 5.69452 28.3203 5.69452 27.041Z" fill="black" fill-opacity="0.85"/>
 </g>
</svg>
