<?xml version="1.0" encoding="UTF-8"?>
<!--Generator: Apple Native CoreSVG 326-->
<!DOCTYPE svg
PUBLIC "-//W3C//DTD SVG 1.1//EN"
       "http://www.w3.org/Graphics/SVG/1.1/DTD/svg11.dtd">
<svg version="1.1" xmlns="http://www.w3.org/2000/svg" xmlns:xlink="http://www.w3.org/1999/xlink" viewBox="0 0 32.2583 31.9629">
 <g>
  <rect height="31.9629" opacity="0" width="32.2583" x="0" y="0"/>
  <path d="M6.07699 6.55213C4.47839 7.91003 3.46802 9.93706 3.46802 12.2071C3.46802 15.6027 5.72886 18.4613 8.82681 19.3574C6.64764 17.7337 5.24537 15.1349 5.24537 12.2071C5.24537 10.3634 5.80135 8.65168 6.75809 7.2327L7.84324 8.31701C7.14726 9.44555 6.74927 10.7782 6.74927 12.2071C6.74927 15.5961 8.98817 18.4502 12.0829 19.3527C9.90376 17.7287 8.49732 15.1321 8.49732 12.2071C8.49732 11.2323 8.65351 10.2944 8.94554 9.41846L10.1666 10.6386C10.0578 11.1436 10.0012 11.6685 10.0012 12.2071C10.0012 15.1538 11.6938 17.6961 14.1767 18.8982C15.1011 18.4503 15.9175 17.8165 16.5775 17.0445L17.6334 18.0996C17.2265 18.5665 16.7692 18.988 16.2715 19.3587C16.9191 19.1733 17.5297 18.9018 18.0874 18.5533L20.2159 20.6801L20.2161 20.7105L20.1992 20.7166L18.8879 21.0059C18.8188 21.0214 18.7503 21.0376 18.6862 21.0571C18.2852 21.1234 17.8722 21.1524 17.4524 21.1524C16.8942 21.1524 16.3478 21.1013 15.8199 20.9968C15.2931 21.1013 14.7478 21.1524 14.1907 21.1524C13.6293 21.1524 13.0802 21.1009 12.5501 20.9959C12.0199 21.1009 11.4708 21.1524 10.9094 21.1524C5.97779 21.1524 1.98365 17.1485 1.98365 12.2071C1.98365 9.52884 3.15696 7.12889 5.02301 5.49897ZM25.6029 8.57203L24.1128 8.89768C23.2065 7.05526 21.5557 5.65191 19.5522 5.0701C20.9489 6.10787 22.0242 7.55024 22.6068 9.2268L22.5989 9.22854C22.0793 9.34165 21.6185 9.54944 21.2433 9.83874C20.4802 7.53449 18.6209 5.73999 16.2771 5.06576C18.4541 6.68682 19.8547 9.28084 19.8547 12.2071C19.8547 12.7992 19.7974 13.3778 19.6852 13.9367L18.3465 12.5985C18.3572 12.4696 18.3606 12.3387 18.3606 12.2071C18.3606 9.26031 16.658 6.72299 14.1767 5.52374C13.5406 5.83099 12.9563 6.22607 12.4402 6.6945L11.3891 5.64382C11.6074 5.44066 11.8377 5.25034 12.0773 5.07178C11.7607 5.16414 11.4531 5.27689 11.1587 5.41341L9.18571 3.44123C9.7426 3.3287 10.3193 3.27151 10.9094 3.27151C11.4708 3.27151 12.0199 3.32286 12.5501 3.42766C13.0802 3.32286 13.6293 3.27151 14.1907 3.27151C14.7478 3.27151 15.2931 3.32248 15.8199 3.42676C16.3478 3.32248 16.8942 3.27151 17.4524 3.27151C21.0903 3.27151 24.2181 5.44492 25.6029 8.57203Z" fill="black" fill-opacity="0.85"/>
  <path d="M23.3606 23.8224L23.3606 24.4238C23.3606 27.8125 20.8215 29.0723 19.1028 29.0723C17.179 29.0723 15.8215 27.8223 15.8215 26.0645C15.8215 24.2969 16.9153 23.1446 19.2395 22.6465L21.1145 22.2461C21.2987 22.2052 21.4495 22.1333 21.567 22.0302ZM29.9231 10.4492L29.9231 14.8145C29.9231 15.1953 29.6887 15.4785 29.3079 15.5664L24.0833 16.7188C23.4893 16.8529 23.3652 16.987 23.361 17.6111L21.8796 16.1303L21.8665 12.0313C21.8665 11.416 22.2571 11.0156 22.9602 10.8692L28.8586 9.5801C29.4348 9.45315 29.9231 9.85354 29.9231 10.4492Z" fill="black" fill-opacity="0.85"/>
  <path d="M29.4739 27.9981C29.7961 28.3301 30.3333 28.3301 30.6555 27.9981C30.9778 27.666 30.9778 27.1485 30.6555 26.8262L5.43091 1.61135C5.10865 1.28908 4.57154 1.27932 4.23951 1.61135C3.92701 1.92385 3.92701 2.47072 4.23951 2.78322Z" fill="black" fill-opacity="0.85"/>
 </g>
</svg>
