<?xml version="1.0" encoding="UTF-8"?>
<!--Generator: Apple Native CoreSVG 326-->
<!DOCTYPE svg
PUBLIC "-//W3C//DTD SVG 1.1//EN"
       "http://www.w3.org/Graphics/SVG/1.1/DTD/svg11.dtd">
<svg version="1.1" xmlns="http://www.w3.org/2000/svg" xmlns:xlink="http://www.w3.org/1999/xlink" viewBox="0 0 24.4824 26.0449">
 <g>
  <rect height="26.0449" opacity="0" width="24.4824" x="0" y="0"/>
  <path d="M12.2754 26.0254C18.8281 26.0254 24.1211 20.2051 24.1211 13.0176C24.1211 5.82031 18.8281 0 12.2754 0C8.75977 0 5.52734 1.69922 3.33008 4.49219C3.13477 4.72656 3.06641 4.96094 3.06641 5.15625C3.06641 5.625 3.48633 5.95703 3.93555 5.95703C4.19922 5.95703 4.47266 5.84961 4.66797 5.5957C6.5332 3.18359 9.29688 1.73828 12.2754 1.73828C17.8613 1.73828 22.3828 6.77734 22.3828 13.0176C22.3828 19.248 17.8613 24.2969 12.2754 24.2969C9.29688 24.2969 6.5332 22.8418 4.66797 20.4395C4.47266 20.1758 4.19922 20.0684 3.93555 20.0684C3.48633 20.0684 3.06641 20.4004 3.06641 20.8594C3.06641 21.0742 3.13477 21.2988 3.33008 21.5332C5.52734 24.3262 8.75977 26.0254 12.2754 26.0254Z" fill="black" fill-opacity="0.425"/>
  <path d="M0 19.5312C0 21.123 1.35742 22.3438 2.8418 22.2754C2.44141 21.7773 2.20703 21.3281 2.20703 20.8789C2.20703 19.9414 3.06641 19.2188 3.96484 19.2188C4.7168 19.2188 5.04883 19.5898 5.56641 20.2051C5.61523 19.9902 5.6543 19.7656 5.6543 19.5312L5.6543 6.49414C5.6543 6.25977 5.61523 6.03516 5.56641 5.82031C5.07812 6.39648 4.73633 6.81641 3.97461 6.81641C3.06641 6.81641 2.20703 6.08398 2.20703 5.14648C2.20703 4.7168 2.42188 4.26758 2.8418 3.75C1.36719 3.69141 0 4.89258 0 6.49414ZM2.82227 11.9238C1.80664 11.9238 0.966797 11.084 0.966797 10.0684C0.966797 9.04297 1.80664 8.21289 2.82227 8.21289C3.84766 8.21289 4.67773 9.04297 4.67773 10.0684C4.67773 11.084 3.84766 11.9238 2.82227 11.9238ZM2.82227 11.084C3.38867 11.084 3.84766 10.625 3.84766 10.0684C3.84766 9.50195 3.38867 9.04297 2.82227 9.04297C2.26562 9.04297 1.79688 9.50195 1.79688 10.0684C1.79688 10.625 2.26562 11.084 2.82227 11.084Z" fill="black" fill-opacity="0.85"/>
 </g>
</svg>
