<?xml version="1.0" encoding="UTF-8"?>
<!--Generator: Apple Native CoreSVG 326-->
<!DOCTYPE svg
PUBLIC "-//W3C//DTD SVG 1.1//EN"
       "http://www.w3.org/Graphics/SVG/1.1/DTD/svg11.dtd">
<svg version="1.1" xmlns="http://www.w3.org/2000/svg" xmlns:xlink="http://www.w3.org/1999/xlink" viewBox="0 0 26.5332 25.4395">
 <g>
  <rect height="25.4395" opacity="0" width="26.5332" x="0" y="0"/>
  <path d="M26.1719 11.2598C26.1719 19.3359 19.7559 25.4199 12.168 25.4199C5.01953 25.4199 0 20.7129 0 14.043C0 6.2207 7.39258 0 14.7754 0C21.2793 0 26.1719 4.92188 26.1719 11.2598ZM14.4043 8.55469C13.8672 12.5781 13.1836 13.2617 9.16016 13.7891C8.88672 13.8379 8.7207 14.0039 8.7207 14.2676C8.7207 14.5312 8.88672 14.707 9.16016 14.7461C13.1836 15.2734 13.8672 15.957 14.4043 20C14.4434 20.2637 14.6094 20.4297 14.873 20.4297C15.1465 20.4297 15.3125 20.2637 15.3613 20C15.8887 15.957 16.5723 15.2734 20.6055 14.7461C20.8691 14.707 21.0352 14.5312 21.0352 14.2676C21.0352 14.0039 20.8691 13.8379 20.6055 13.7891C16.5723 13.2617 15.8887 12.5781 15.3613 8.55469C15.3125 8.28125 15.1465 8.11523 14.873 8.11523C14.6094 8.11523 14.4434 8.28125 14.4043 8.55469ZM8.84766 5.77148C8.60352 7.67578 8.29102 7.99805 6.38672 8.25195C6.20117 8.27148 6.09375 8.38867 6.09375 8.56445C6.09375 8.7207 6.20117 8.84766 6.38672 8.87695C8.29102 9.13086 8.60352 9.44336 8.84766 11.3672C8.87695 11.543 9.00391 11.6406 9.17969 11.6406C9.33594 11.6406 9.46289 11.543 9.49219 11.3672C9.74609 9.44336 10.0488 9.13086 11.9531 8.87695C12.1484 8.84766 12.2461 8.7207 12.2461 8.56445C12.2461 8.38867 12.1484 8.27148 11.9531 8.25195C10.0488 7.99805 9.74609 7.67578 9.49219 5.77148C9.46289 5.58594 9.33594 5.47852 9.17969 5.47852C9.00391 5.47852 8.87695 5.58594 8.84766 5.77148Z" fill="black" fill-opacity="0.85"/>
 </g>
</svg>
