<?xml version="1.0" encoding="UTF-8"?>
<!--Generator: Apple Native CoreSVG 326-->
<!DOCTYPE svg
PUBLIC "-//W3C//DTD SVG 1.1//EN"
       "http://www.w3.org/Graphics/SVG/1.1/DTD/svg11.dtd">
<svg version="1.1" xmlns="http://www.w3.org/2000/svg" xmlns:xlink="http://www.w3.org/1999/xlink" viewBox="0 0 24.668 24.541">
 <g>
  <rect height="24.541" opacity="0" width="24.668" x="0" y="0"/>
  <path d="M11.2793 20.4297C11.7285 20.4297 12.0996 20.0586 12.0996 19.6191L12.0996 13.7109C19.5996 13.3691 24.4043 8.4082 24.3066 0.957031C24.3066 0.429688 24.0039 0.0878906 23.4277 0.0878906C17.4805-0.00976562 12.998 3.48633 11.2305 9.29688C9.56055 4.92188 5.41992 2.99805 1.58203 3.01758C1.16211 3.01758 0.966797 3.23242 0.996094 3.67188C1.30859 7.10938 3.13477 13.2812 10.4688 13.7109L10.4688 19.6191C10.4688 20.0586 10.8398 20.4297 11.2793 20.4297ZM10.4102 12.0605C5.625 11.7285 3.20312 8.24219 2.69531 4.74609C5.9375 5.07812 9.61914 7.23633 10.4102 12.0605ZM12.2852 12.0605C13.291 5.9082 17.2559 1.92383 22.6172 1.76758C22.5 7.56836 18.3691 11.6504 12.2852 12.0605Z" fill="black" fill-opacity="0.85"/>
  <path d="M0.986328 24.541C1.5332 24.541 1.98242 24.0918 1.98242 23.5449C1.98242 23.0078 1.5332 22.5586 0.986328 22.5586C0.449219 22.5586 0 23.0078 0 23.5449C0 24.0918 0.449219 24.541 0.986328 24.541ZM4.10156 22.3242C4.63867 22.3242 5.08789 21.875 5.08789 21.3379C5.08789 20.791 4.63867 20.3418 4.10156 20.3418C3.56445 20.3418 3.11523 20.791 3.11523 21.3379C3.11523 21.875 3.56445 22.3242 4.10156 22.3242ZM7.65625 21.0449C8.19336 21.0449 8.64258 20.5957 8.64258 20.0586C8.64258 19.5117 8.19336 19.0625 7.65625 19.0625C7.10938 19.0625 6.66016 19.5117 6.66016 20.0586C6.66016 20.5957 7.10938 21.0449 7.65625 21.0449ZM14.9121 21.0449C15.459 21.0449 15.9082 20.5957 15.9082 20.0586C15.9082 19.5117 15.459 19.0625 14.9121 19.0625C14.375 19.0625 13.9258 19.5117 13.9258 20.0586C13.9258 20.5957 14.375 21.0449 14.9121 21.0449ZM18.4668 22.3242C19.0039 22.3242 19.4531 21.875 19.4531 21.3379C19.4531 20.791 19.0039 20.3418 18.4668 20.3418C17.9199 20.3418 17.4805 20.791 17.4805 21.3379C17.4805 21.875 17.9199 22.3242 18.4668 22.3242ZM21.582 24.541C22.1191 24.541 22.5684 24.0918 22.5684 23.5449C22.5684 23.0078 22.1191 22.5586 21.582 22.5586C21.0352 22.5586 20.5859 23.0078 20.5859 23.5449C20.5859 24.0918 21.0352 24.541 21.582 24.541Z" fill="black" fill-opacity="0.85"/>
 </g>
</svg>
