<?xml version="1.0" encoding="UTF-8"?>
<!--Generator: Apple Native CoreSVG 326-->
<!DOCTYPE svg
PUBLIC "-//W3C//DTD SVG 1.1//EN"
       "http://www.w3.org/Graphics/SVG/1.1/DTD/svg11.dtd">
<svg version="1.1" xmlns="http://www.w3.org/2000/svg" xmlns:xlink="http://www.w3.org/1999/xlink" viewBox="0 0 12.7637 27.8027">
 <g>
  <rect height="27.8027" opacity="0" width="12.7637" x="0" y="0"/>
  <path d="M0 25.0879C0 26.7285 1.05469 27.7441 2.7832 27.7441L9.61914 27.7441C11.3477 27.7441 12.4023 26.7285 12.4023 25.0879L12.4023 2.66602C12.4023 1.01562 11.3477 0 9.61914 0L2.7832 0C1.05469 0 0 1.01562 0 2.66602ZM1.60156 24.8828L1.60156 2.87109C1.60156 2.06055 2.08984 1.58203 2.94922 1.58203L9.45312 1.58203C10.3027 1.58203 10.8008 2.06055 10.8008 2.87109L10.8008 24.8828C10.8008 25.6934 10.3027 26.1621 9.45312 26.1621L2.94922 26.1621C2.08984 26.1621 1.60156 25.6934 1.60156 24.8828ZM4.13086 15.1367C4.95117 15.1367 5.625 14.4629 5.625 13.6426C5.625 12.8027 4.95117 12.1289 4.13086 12.1289C3.29102 12.1289 2.61719 12.8027 2.61719 13.6426C2.61719 14.4629 3.29102 15.1367 4.13086 15.1367ZM8.29102 15.1367C9.11133 15.1367 9.78516 14.4629 9.78516 13.6426C9.78516 12.8027 9.11133 12.1289 8.29102 12.1289C7.45117 12.1289 6.77734 12.8027 6.77734 13.6426C6.77734 14.4629 7.45117 15.1367 8.29102 15.1367ZM6.20117 10.5078C8.19336 10.5078 9.79492 8.89648 9.79492 6.91406C9.79492 4.92188 8.19336 3.32031 6.20117 3.32031C4.21875 3.32031 2.61719 4.92188 2.61719 6.91406C2.61719 8.89648 4.21875 10.5078 6.20117 10.5078ZM6.21094 8.35938C5.41016 8.35938 4.76562 7.71484 4.76562 6.91406C4.76562 6.11328 5.41016 5.46875 6.21094 5.46875C7.01172 5.46875 7.65625 6.11328 7.65625 6.91406C7.65625 7.71484 7.01172 8.35938 6.21094 8.35938Z" fill="black" fill-opacity="0.85"/>
 </g>
</svg>
