<?xml version="1.0" encoding="UTF-8"?>
<!--Generator: Apple Native CoreSVG 326-->
<!DOCTYPE svg
PUBLIC "-//W3C//DTD SVG 1.1//EN"
       "http://www.w3.org/Graphics/SVG/1.1/DTD/svg11.dtd">
<svg version="1.1" xmlns="http://www.w3.org/2000/svg" xmlns:xlink="http://www.w3.org/1999/xlink" viewBox="0 0 13.584 27.8027">
 <g>
  <rect height="27.8027" opacity="0" width="13.584" x="0" y="0"/>
  <path d="M0 25.0879C0 26.7285 1.05469 27.7441 2.7832 27.7441L10.4395 27.7441C12.168 27.7441 13.2227 26.7285 13.2227 25.0879L13.2227 2.66602C13.2227 1.01562 12.168 0 10.4395 0L2.7832 0C1.05469 0 0 1.01562 0 2.66602ZM1.60156 24.8828L1.60156 2.87109C1.60156 2.06055 2.08984 1.58203 2.94922 1.58203L10.2734 1.58203C11.123 1.58203 11.6211 2.06055 11.6211 2.87109L11.6211 24.8828C11.6211 25.6934 11.123 26.1621 10.2734 26.1621L2.94922 26.1621C2.08984 26.1621 1.60156 25.6934 1.60156 24.8828ZM6.61133 11.8652C8.81836 11.8652 10.6152 10.0684 10.6152 7.86133C10.6152 5.6543 8.81836 3.85742 6.61133 3.85742C4.41406 3.85742 2.61719 5.6543 2.61719 7.86133C2.61719 10.0684 4.41406 11.8652 6.61133 11.8652ZM6.62109 9.48242C5.72266 9.48242 5 8.75977 5 7.86133C5 6.96289 5.72266 6.25 6.62109 6.25C7.51953 6.25 8.23242 6.96289 8.23242 7.86133C8.23242 8.75977 7.51953 9.48242 6.62109 9.48242ZM6.61133 16.2793C7.44141 16.2793 8.11523 15.6055 8.11523 14.7852C8.11523 13.9551 7.44141 13.2812 6.61133 13.2812C5.77148 13.2812 5.09766 13.9551 5.09766 14.7852C5.09766 15.6055 5.77148 16.2793 6.61133 16.2793Z" fill="black" fill-opacity="0.85"/>
 </g>
</svg>
