<?xml version="1.0" encoding="UTF-8"?>
<!--Generator: Apple Native CoreSVG 326-->
<!DOCTYPE svg
PUBLIC "-//W3C//DTD SVG 1.1//EN"
       "http://www.w3.org/Graphics/SVG/1.1/DTD/svg11.dtd">
<svg version="1.1" xmlns="http://www.w3.org/2000/svg" xmlns:xlink="http://www.w3.org/1999/xlink" viewBox="0 0 25.8008 25.459">
 <g>
  <rect height="25.459" opacity="0" width="25.8008" x="0" y="0"/>
  <path d="M12.7148 25.4395C19.7363 25.4395 25.4395 19.7461 25.4395 12.7246C25.4395 5.70312 19.7363 0 12.7148 0C5.69336 0 0 5.70312 0 12.7246C0 19.7461 5.69336 25.4395 12.7148 25.4395ZM12.7148 23.623C6.68945 23.623 1.81641 18.75 1.81641 12.7246C1.81641 6.69922 6.68945 1.82617 12.7148 1.82617C18.7402 1.82617 23.6133 6.69922 23.6133 12.7246C23.6133 18.75 18.7402 23.623 12.7148 23.623Z" fill="black" fill-opacity="0.85"/>
  <path d="M7.11914 18.5449L18.291 18.5449C19.5801 18.5449 20.2148 17.9102 20.2148 16.6504L20.2148 8.80859C20.2148 7.54883 19.5801 6.91406 18.291 6.91406L7.11914 6.91406C5.84961 6.91406 5.19531 7.53906 5.19531 8.80859L5.19531 16.6504C5.19531 17.9199 5.84961 18.5449 7.11914 18.5449ZM7.77344 11.7285L9.36523 10.791L7.77344 9.84375C7.26562 9.53125 7.70508 8.75977 8.25195 9.10156L10.166 10.293C10.5176 10.5078 10.5078 11.0547 10.166 11.2695L8.25195 12.4707C7.70508 12.8125 7.26562 12.041 7.77344 11.7285ZM10.4688 12.4707C10.4688 12.2266 10.6445 12.0508 10.8789 12.0508L13.3691 12.0508C13.6133 12.0508 13.7988 12.2266 13.7988 12.4707C13.7988 12.6953 13.6133 12.8906 13.3691 12.8906L10.8789 12.8906C10.6445 12.8906 10.4688 12.6953 10.4688 12.4707Z" fill="black" fill-opacity="0.85"/>
 </g>
</svg>
