<?xml version="1.0" encoding="UTF-8"?>
<!--Generator: Apple Native CoreSVG 326-->
<!DOCTYPE svg
PUBLIC "-//W3C//DTD SVG 1.1//EN"
       "http://www.w3.org/Graphics/SVG/1.1/DTD/svg11.dtd">
<svg version="1.1" xmlns="http://www.w3.org/2000/svg" xmlns:xlink="http://www.w3.org/1999/xlink" viewBox="0 0 23.7451 26.1816">
 <g>
  <rect height="26.1816" opacity="0" width="23.7451" x="0" y="0"/>
  <path d="M5.01221 9.51924L5.01221 17.7246C5.01221 19.7168 6.18408 20.918 8.14697 20.918L15.1782 20.918C15.5765 20.918 15.9419 20.8685 16.2693 20.7706L17.6175 22.1181C17.0287 22.463 16.6964 22.8618 16.4673 23.6133L16.0181 25.0781C15.7935 25.8301 15.2954 26.1816 14.4946 26.1816L8.8208 26.1816C8.03955 26.1816 7.52197 25.8203 7.29736 25.0781L6.85791 23.6133C6.604 22.8125 6.24268 22.4121 5.58838 22.0508C4.17236 21.2695 3.43018 19.8926 3.43018 17.9492L3.43018 8.24219C3.43018 8.14138 3.43216 8.04206 3.4374 7.94524ZM16.0181 1.11328L16.4673 2.57812C16.7114 3.37891 17.0728 3.7793 17.7368 4.13086C19.1528 4.91211 19.8853 6.29883 19.8853 8.24219L19.8853 8.30078L20.061 8.30078C20.6763 8.30078 21.0864 8.73047 21.0864 9.41406L21.0864 11.1426C21.0864 11.8164 20.6763 12.2461 20.061 12.2461L19.8853 12.2461L19.8853 17.9492C19.8853 18.0242 19.8842 18.0983 19.88 18.17L18.3032 16.5941L18.3032 8.4668C18.3032 6.46484 17.1411 5.26367 15.1782 5.26367L8.14697 5.26367C7.76722 5.26367 7.41707 5.30863 7.10016 5.39678L5.74655 4.04387C6.3115 3.71694 6.634 3.30361 6.85791 2.57812L7.29736 1.11328C7.52197 0.371094 8.03955 0.00976562 8.8208 0.00976562L14.4946 0.00976562C15.2856 0.00976562 15.813 0.380859 16.0181 1.11328Z" fill="black" fill-opacity="0.85"/>
  <path d="M20.6079 23.1738C20.9302 23.5059 21.4575 23.5059 21.7798 23.1738C22.0923 22.8613 22.1118 22.3242 21.7798 22.002L2.78564 3.00781C2.47314 2.68555 1.9458 2.67578 1.604 3.00781C1.28174 3.33008 1.28174 3.86719 1.604 4.18945Z" fill="black" fill-opacity="0.85"/>
 </g>
</svg>
