<?xml version="1.0" encoding="UTF-8"?>
<!--Generator: Apple Native CoreSVG 326-->
<!DOCTYPE svg
PUBLIC "-//W3C//DTD SVG 1.1//EN"
       "http://www.w3.org/Graphics/SVG/1.1/DTD/svg11.dtd">
<svg version="1.1" xmlns="http://www.w3.org/2000/svg" xmlns:xlink="http://www.w3.org/1999/xlink" viewBox="0 0 21.084 27.998">
 <g>
  <rect height="27.998" opacity="0" width="21.084" x="0" y="0"/>
  <path d="M0 24.6777C0 26.6992 1.34766 27.998 3.4375 27.998L17.2852 27.998C19.375 27.998 20.7227 26.6992 20.7227 24.6777L20.7227 3.32031C20.7227 1.29883 19.375 0 17.2852 0L3.4375 0C1.34766 0 0 1.29883 0 3.32031ZM1.72852 24.4043L1.72852 3.59375C1.72852 2.40234 2.42188 1.72852 3.64258 1.72852L17.0703 1.72852C18.291 1.72852 18.9844 2.40234 18.9844 3.59375L18.9844 24.4043C18.9844 25.5859 18.291 26.2598 17.0703 26.2598L3.64258 26.2598C2.42188 26.2598 1.72852 25.5859 1.72852 24.4043Z" fill="black" fill-opacity="0.85"/>
  <path d="M4.47266 6.2793L5.60547 6.2793C5.92773 6.2793 6.17188 6.05469 6.17188 5.75195L6.17188 4.58008C6.17188 4.26758 5.92773 4.0625 5.60547 4.0625L4.47266 4.0625C4.17969 4.0625 3.95508 4.27734 3.95508 4.58008L3.95508 5.75195C3.95508 6.04492 4.17969 6.2793 4.47266 6.2793ZM8.01758 6.2793L9.16016 6.2793C9.47266 6.2793 9.70703 6.05469 9.70703 5.75195L9.70703 4.58008C9.70703 4.26758 9.47266 4.0625 9.16016 4.0625L8.01758 4.0625C7.72461 4.0625 7.5 4.27734 7.5 4.58008L7.5 5.75195C7.5 6.04492 7.72461 6.2793 8.01758 6.2793ZM11.5625 6.2793L12.6953 6.2793C13.0176 6.2793 13.2617 6.05469 13.2617 5.75195L13.2617 4.58008C13.2617 4.26758 13.0176 4.0625 12.6953 4.0625L11.5625 4.0625C11.2695 4.0625 11.0449 4.27734 11.0449 4.58008L11.0449 5.75195C11.0449 6.04492 11.2695 6.2793 11.5625 6.2793ZM15.1172 6.2793L16.25 6.2793C16.5723 6.2793 16.7969 6.05469 16.7969 5.75195L16.7969 4.58008C16.7969 4.26758 16.5723 4.0625 16.25 4.0625L15.1172 4.0625C14.8047 4.0625 14.5801 4.27734 14.5801 4.58008L14.5801 5.75195C14.5801 6.04492 14.8047 6.2793 15.1172 6.2793ZM4.47266 9.7168L5.60547 9.7168C5.92773 9.7168 6.17188 9.48242 6.17188 9.17969L6.17188 8.01758C6.17188 7.71484 5.92773 7.49023 5.60547 7.49023L4.47266 7.49023C4.17969 7.49023 3.95508 7.72461 3.95508 8.01758L3.95508 9.17969C3.95508 9.48242 4.17969 9.7168 4.47266 9.7168ZM8.01758 9.7168L9.16016 9.7168C9.47266 9.7168 9.70703 9.48242 9.70703 9.17969L9.70703 8.01758C9.70703 7.71484 9.47266 7.49023 9.16016 7.49023L8.01758 7.49023C7.72461 7.49023 7.49023 7.72461 7.49023 8.01758L7.49023 9.17969C7.49023 9.48242 7.72461 9.7168 8.01758 9.7168ZM11.5625 9.7168L12.6953 9.7168C13.0176 9.7168 13.2617 9.48242 13.2617 9.18945L13.2617 8.01758C13.2617 7.71484 13.0176 7.49023 12.6953 7.49023L11.5625 7.49023C11.2695 7.49023 11.0449 7.72461 11.0449 8.01758L11.0449 9.18945C11.0449 9.48242 11.2695 9.7168 11.5625 9.7168ZM15.1172 9.7168L16.25 9.7168C16.5723 9.7168 16.7969 9.48242 16.7969 9.18945L16.7969 8.01758C16.7969 7.71484 16.5723 7.49023 16.25 7.49023L15.1172 7.49023C14.8047 7.49023 14.5801 7.72461 14.5801 8.01758L14.5801 9.18945C14.5801 9.48242 14.8047 9.7168 15.1172 9.7168ZM4.47266 13.1543L5.60547 13.1543C5.92773 13.1543 6.17188 12.9297 6.17188 12.627L6.17188 11.4648C6.17188 11.1523 5.92773 10.9277 5.60547 10.9277L4.47266 10.9277C4.17969 10.9277 3.95508 11.1523 3.95508 11.4648L3.95508 12.627C3.95508 12.9199 4.17969 13.1543 4.47266 13.1543ZM8.01758 13.1543L9.16016 13.1543C9.47266 13.1543 9.70703 12.9297 9.70703 12.627L9.70703 11.4648C9.70703 11.1523 9.47266 10.9277 9.16016 10.9277L8.01758 10.9277C7.72461 10.9277 7.49023 11.1523 7.49023 11.4648L7.49023 12.627C7.49023 12.9199 7.72461 13.1543 8.01758 13.1543ZM4.47266 23.9355L5.60547 23.9355C5.92773 23.9355 6.17188 23.7207 6.17188 23.418L6.17188 22.2461C6.17188 21.9336 5.92773 21.7188 5.60547 21.7188L4.47266 21.7188C4.17969 21.7188 3.95508 21.9434 3.95508 22.2461L3.95508 23.418C3.95508 23.7109 4.17969 23.9355 4.47266 23.9355ZM8.01758 23.9355L9.16016 23.9355C9.47266 23.9355 9.70703 23.7207 9.70703 23.418L9.70703 22.2461C9.70703 21.9336 9.47266 21.7188 9.16016 21.7188L8.01758 21.7188C7.72461 21.7188 7.49023 21.9434 7.49023 22.2461L7.49023 23.418C7.49023 23.7109 7.72461 23.9355 8.01758 23.9355ZM11.5625 23.9355L12.7051 23.9355C13.0176 23.9355 13.2617 23.7207 13.2617 23.418L13.2617 22.2461C13.2617 21.9336 13.0176 21.7188 12.7051 21.7188L11.5625 21.7188C11.2695 21.7188 11.0449 21.9434 11.0449 22.2461L11.0449 23.418C11.0449 23.7109 11.2695 23.9355 11.5625 23.9355ZM15.1172 23.9355L16.25 23.9355C16.5723 23.9355 16.7969 23.7207 16.7969 23.418L16.7969 22.2461C16.7969 21.9336 16.5723 21.7188 16.25 21.7188L15.1172 21.7188C14.8047 21.7188 14.5898 21.9434 14.5898 22.2461L14.5898 23.418C14.5898 23.7109 14.8047 23.9355 15.1172 23.9355Z" fill="black" fill-opacity="0.85"/>
 </g>
</svg>
