<?xml version="1.0" ?><!-- Generator: Adobe Illustrator 25.0.0, SVG Export Plug-In . SVG Version: 6.00 Build 0)  --><svg xmlns="http://www.w3.org/2000/svg" xmlns:xlink="http://www.w3.org/1999/xlink" version="1.1" id="Layer_1" x="0px" y="0px" viewBox="0 0 512 512" style="enable-background:new 0 0 512 512;" xml:space="preserve">
<path d="M166.3,512h179.5c39.4,0,65.8-25.2,65.8-62.9V62.9c0-37.7-26.4-62.9-65.8-62.9H166.3c-39.4,0-65.8,25.2-65.8,62.9v386.2  C100.5,486.8,126.9,512,166.3,512z M171.4,473.1c-20.6,0-31.9-10.9-31.9-30.2V69.2c0-19.3,11.4-30.2,31.9-30.2h169.5  c20.3,0,31.7,10.9,31.7,30.2v373.7c0,19.3-11.4,30.2-31.7,30.2H171.4z M183,114.4h22.7c5.3,0,9.4-3.6,9.4-8.9V82.2  c0-5.3-4.1-8.9-9.4-8.9H183c-5.3,0-8.9,3.6-8.9,8.9v23.2C174,110.8,177.6,114.4,183,114.4z M244.1,114.4h23c5.3,0,9.4-3.6,9.4-8.9  V82.2c0-5.3-4.1-8.9-9.4-8.9h-23c-5.1,0-8.7,3.6-8.7,8.9v23.2C235.4,110.8,239.1,114.4,244.1,114.4z M305.6,114.4h22.7  c5.6,0,9.4-3.6,9.4-8.9V82.2c0-5.3-3.9-8.9-9.4-8.9h-22.7c-5.1,0-8.7,3.6-8.7,8.9v23.2C296.9,110.8,300.5,114.4,305.6,114.4z   M183,179.9h22.7c5.3,0,9.4-3.6,9.4-8.7v-23.5c0-5.3-4.1-8.9-9.4-8.9H183c-5.3,0-8.9,3.6-8.9,8.9v23.5  C174,176.3,177.6,179.9,183,179.9z M244.1,179.9h23c5.3,0,9.4-3.6,9.4-8.7v-23.5c0-5.3-4.1-8.9-9.4-8.9h-23c-5.1,0-8.7,3.6-8.7,8.9  v23.5C235.4,176.3,239.1,179.9,244.1,179.9z M305.6,179.9h22.7c5.6,0,9.4-3.6,9.4-8.7v-23.5c0-5.3-3.9-8.9-9.4-8.9h-22.7  c-5.1,0-8.7,3.6-8.7,8.9v23.5C296.9,176.3,300.5,179.9,305.6,179.9z M183,245.7h22.7c5.3,0,9.4-3.6,9.4-8.9v-23.2  c0-5.3-4.1-8.9-9.4-8.9H183c-5.3,0-8.9,3.6-8.9,8.9v23.2C174,242.1,177.6,245.7,183,245.7z M244.1,245.7h23c5.3,0,9.4-3.6,9.4-8.9  v-23.2c0-5.3-4.1-8.9-9.4-8.9h-23c-5.1,0-8.7,3.6-8.7,8.9v23.2C235.4,242.1,239.1,245.7,244.1,245.7z M183,440.2h22.7  c5.3,0,9.4-3.6,9.4-8.7V408c0-5.1-4.1-8.7-9.4-8.7H183c-5.3,0-8.9,3.6-8.9,8.7v23.5C174,436.5,177.6,440.2,183,440.2z M244.1,440.2  h23c5.3,0,9.4-3.6,9.4-8.7V408c0-5.1-4.1-8.7-9.4-8.7h-23c-5.1,0-8.7,3.6-8.7,8.7v23.5C235.4,436.5,239.1,440.2,244.1,440.2z   M305.6,440.2h22.7c5.6,0,9.4-3.6,9.4-8.7V408c0-5.1-3.9-8.7-9.4-8.7h-22.7c-5.1,0-8.7,3.6-8.7,8.7v23.5  C296.9,436.5,300.5,440.2,305.6,440.2z"/>
</svg>