<?xml version="1.0" encoding="UTF-8"?>
<!--Generator: Apple Native CoreSVG 326-->
<!DOCTYPE svg
PUBLIC "-//W3C//DTD SVG 1.1//EN"
       "http://www.w3.org/Graphics/SVG/1.1/DTD/svg11.dtd">
<svg version="1.1" xmlns="http://www.w3.org/2000/svg" xmlns:xlink="http://www.w3.org/1999/xlink" viewBox="0 0 29.9512 22.9785">
 <g>
  <rect height="22.9785" opacity="0" width="29.9512" x="0" y="0"/>
  <path d="M3.79883 22.9785L25.7812 22.9785C28.3105 22.9785 29.5898 21.709 29.5898 19.2188L29.5898 3.78906C29.5898 1.29883 28.3105 0.0292969 25.7812 0.0292969L3.79883 0.0292969C1.2793 0.0292969 0 1.28906 0 3.78906L0 19.2188C0 21.7188 1.2793 22.9785 3.79883 22.9785ZM3.83789 21.25C2.4707 21.25 1.72852 20.5273 1.72852 19.1309L1.72852 3.87695C1.72852 2.48047 2.4707 1.75781 3.83789 1.75781L25.752 1.75781C27.0898 1.75781 27.8516 2.48047 27.8516 3.87695L27.8516 19.1309C27.8516 20.5273 27.0898 21.25 25.752 21.25Z" fill="black" fill-opacity="0.85"/>
  <path d="M5.0293 6.74805L6.29883 6.74805C6.65039 6.74805 6.93359 6.49414 6.93359 6.15234L6.93359 4.84375C6.93359 4.49219 6.65039 4.25781 6.29883 4.25781L5.0293 4.25781C4.6875 4.25781 4.44336 4.50195 4.44336 4.84375L4.44336 6.15234C4.44336 6.48438 4.6875 6.74805 5.0293 6.74805ZM9.58008 6.74805L10.8594 6.74805C11.2207 6.74805 11.4844 6.49414 11.4844 6.15234L11.4844 4.84375C11.4844 4.49219 11.2207 4.25781 10.8594 4.25781L9.58008 4.25781C9.24805 4.25781 9.00391 4.50195 9.00391 4.84375L9.00391 6.15234C9.00391 6.48438 9.24805 6.74805 9.58008 6.74805ZM14.1406 6.74805L15.4102 6.74805C15.7715 6.74805 16.0449 6.49414 16.0449 6.15234L16.0449 4.84375C16.0449 4.49219 15.7715 4.25781 15.4102 4.25781L14.1406 4.25781C13.7988 4.25781 13.5547 4.50195 13.5547 4.84375L13.5547 6.15234C13.5547 6.48438 13.7988 6.74805 14.1406 6.74805ZM18.7012 6.74805L19.9609 6.74805C20.3223 6.74805 20.5859 6.49414 20.5859 6.15234L20.5859 4.84375C20.5859 4.49219 20.3223 4.25781 19.9609 4.25781L18.7012 4.25781C18.3594 4.25781 18.1055 4.50195 18.1055 4.84375L18.1055 6.15234C18.1055 6.48438 18.3594 6.74805 18.7012 6.74805ZM23.252 6.74805L24.5117 6.74805C24.873 6.74805 25.1367 6.49414 25.1367 6.15234L25.1367 4.84375C25.1367 4.49219 24.873 4.25781 24.5117 4.25781L23.252 4.25781C22.9102 4.25781 22.6562 4.50195 22.6562 4.84375L22.6562 6.15234C22.6562 6.48438 22.9102 6.74805 23.252 6.74805ZM5.0293 10.9473L6.29883 10.9473C6.65039 10.9473 6.93359 10.7031 6.93359 10.3516L6.93359 9.04297C6.93359 8.69141 6.65039 8.45703 6.29883 8.45703L5.0293 8.45703C4.6875 8.45703 4.44336 8.70117 4.44336 9.04297L4.44336 10.3516C4.44336 10.6934 4.6875 10.9473 5.0293 10.9473ZM9.58008 10.9473L10.8594 10.9473C11.2207 10.9473 11.4844 10.7031 11.4844 10.3516L11.4844 9.04297C11.4844 8.69141 11.2207 8.45703 10.8594 8.45703L9.58008 8.45703C9.24805 8.45703 9.00391 8.70117 9.00391 9.04297L9.00391 10.3516C9.00391 10.6934 9.24805 10.9473 9.58008 10.9473ZM14.1406 10.9473L15.4102 10.9473C15.7715 10.9473 16.0449 10.7031 16.0449 10.3516L16.0449 9.04297C16.0449 8.69141 15.7715 8.45703 15.4102 8.45703L14.1406 8.45703C13.7988 8.45703 13.5547 8.70117 13.5547 9.04297L13.5547 10.3516C13.5547 10.6934 13.7988 10.9473 14.1406 10.9473ZM18.7012 10.9473L19.9609 10.9473C20.3223 10.9473 20.5859 10.7031 20.5859 10.3516L20.5859 9.04297C20.5859 8.69141 20.3223 8.45703 19.9609 8.45703L18.7012 8.45703C18.3594 8.45703 18.1055 8.70117 18.1055 9.04297L18.1055 10.3516C18.1055 10.6934 18.3594 10.9473 18.7012 10.9473ZM5.0293 18.75L6.29883 18.75C6.65039 18.75 6.93359 18.5059 6.93359 18.1641L6.93359 16.8555C6.93359 16.5039 6.65039 16.2598 6.29883 16.2598L5.0293 16.2598C4.6875 16.2598 4.44336 16.5137 4.44336 16.8555L4.44336 18.1641C4.44336 18.4961 4.6875 18.75 5.0293 18.75ZM9.58008 18.75L10.8594 18.75C11.2207 18.75 11.4844 18.5059 11.4844 18.1641L11.4844 16.8555C11.4844 16.5039 11.2207 16.2598 10.8594 16.2598L9.58008 16.2598C9.24805 16.2598 9.00391 16.5137 9.00391 16.8555L9.00391 18.1641C9.00391 18.4961 9.24805 18.75 9.58008 18.75ZM14.1406 18.75L15.4102 18.75C15.7715 18.75 16.0449 18.5059 16.0449 18.1641L16.0449 16.8555C16.0449 16.5039 15.7715 16.2598 15.4102 16.2598L14.1406 16.2598C13.7988 16.2598 13.5547 16.5137 13.5547 16.8555L13.5547 18.1641C13.5547 18.4961 13.7988 18.75 14.1406 18.75ZM18.7012 18.75L19.9609 18.75C20.3223 18.75 20.5859 18.5059 20.5859 18.1641L20.5859 16.8555C20.5859 16.5039 20.3223 16.2598 19.9609 16.2598L18.7012 16.2598C18.3594 16.2598 18.1055 16.5137 18.1055 16.8555L18.1055 18.1641C18.1055 18.4961 18.3594 18.75 18.7012 18.75ZM23.252 18.75L24.5117 18.75C24.873 18.75 25.1367 18.5059 25.1367 18.1641L25.1367 16.8555C25.1367 16.5039 24.873 16.2598 24.5117 16.2598L23.252 16.2598C22.9102 16.2598 22.6562 16.5137 22.6562 16.8555L22.6562 18.1641C22.6562 18.4961 22.9102 18.75 23.252 18.75Z" fill="black" fill-opacity="0.85"/>
 </g>
</svg>
