<?xml version="1.0" ?><!-- Generator: Adobe Illustrator 25.0.0, SVG Export Plug-In . SVG Version: 6.00 Build 0)  --><svg xmlns="http://www.w3.org/2000/svg" xmlns:xlink="http://www.w3.org/1999/xlink" version="1.1" id="Layer_1" x="0px" y="0px" viewBox="0 0 512 512" style="enable-background:new 0 0 512 512;" xml:space="preserve">
<path d="M213.4,293.8c7.1,0,13.5-1.7,19.2-5c5.7-3.3,10.2-7.9,13.7-13.7c3.4-5.8,5.1-12.1,5.1-19.1c0-6.9-1.7-13.3-5.1-19  c-3.4-5.7-8-10.2-13.8-13.7c-5.8-3.4-12.1-5.1-19.1-5.1c-6.8,0-13.1,1.7-18.8,5.1c-5.7,3.4-10.3,8-13.8,13.8  c-3.5,5.8-5.2,12.1-5.2,18.9c0,6.9,1.7,13.3,5.1,19c3.4,5.7,8,10.2,13.8,13.7C200.3,292.1,206.6,293.8,213.4,293.8z M213.4,180.3  c9.3,0,17.2-3.2,23.6-9.6c6.4-6.4,9.6-14.3,9.6-23.6c0-9-3.2-16.8-9.7-23.3c-6.5-6.5-14.3-9.7-23.5-9.7c-5.9,0-11.4,1.5-16.4,4.5  c-5,3-9.1,7-12.1,12.1c-3,5-4.5,10.5-4.5,16.4c0,9.2,3.2,17,9.7,23.5C196.6,177,204.3,180.3,213.4,180.3z M213.4,398.1  c9.3,0,17.2-3.2,23.6-9.6s9.6-14.3,9.6-23.6c0-9-3.2-16.8-9.7-23.3c-6.5-6.5-14.3-9.7-23.5-9.7c-5.9,0-11.4,1.5-16.4,4.5  c-5,3-9.1,7-12.1,12.1c-3,5-4.5,10.5-4.5,16.4c0,9.2,3.2,17,9.7,23.5C196.6,394.9,204.3,398.1,213.4,398.1z M119.6,343.7  c9.2,0,17-3.2,23.4-9.6c6.4-6.4,9.6-14.2,9.6-23.4c0-9.2-3.2-17-9.7-23.5c-6.5-6.5-14.2-9.7-23.3-9.7c-6,0-11.5,1.5-16.5,4.6  c-5,3.1-9,7.1-12,12.1c-3,5-4.5,10.5-4.5,16.5c0,9,3.2,16.8,9.7,23.3C102.9,340.5,110.6,343.7,119.6,343.7z M119.6,234.5  c9.3,0,17.1-3.2,23.5-9.6c6.4-6.4,9.5-14.2,9.5-23.4c0-9.2-3.2-17-9.7-23.4c-6.5-6.4-14.2-9.6-23.3-9.6c-6,0-11.5,1.5-16.5,4.5  c-5,3-9,7-12,12c-3,5-4.5,10.5-4.5,16.5c0,9,3.2,16.8,9.6,23.3C102.7,231.2,110.5,234.5,119.6,234.5z M307.3,234.5  c9.3,0,17.1-3.2,23.5-9.6s9.5-14.2,9.5-23.4c0-9.2-3.2-17-9.7-23.4c-6.5-6.4-14.2-9.6-23.3-9.6c-6,0-11.5,1.5-16.5,4.5  c-5,3-9,7-12,12c-3,5-4.5,10.5-4.5,16.5c0,9,3.2,16.8,9.6,23.3C290.3,231.2,298.1,234.5,307.3,234.5z M307.3,343.7  c5.2,0,10.1-1.2,14.5-3.5l18.1-32.6v-1c-0.9-8.1-4.5-15-10.7-20.6c-6.2-5.6-13.5-8.4-21.9-8.4c-9,0-16.8,3.3-23.3,9.8  c-6.5,6.5-9.7,14.3-9.7,23.4c0,9,3.2,16.8,9.7,23.3C290.5,340.5,298.2,343.7,307.3,343.7z M400.4,173c7.2,0,13.3-2.5,18.3-7.5  c5-5,7.5-11.1,7.5-18.5c0-7.2-2.5-13.3-7.5-18.3c-5-5-11.1-7.5-18.3-7.5c-7.1,0-13.2,2.6-18.3,7.7c-5.1,5.1-7.7,11.1-7.7,18.1  c0,7.2,2.5,13.3,7.6,18.4C387.1,170.5,393.2,173,400.4,173z M25.9,173c7.2,0,13.3-2.5,18.3-7.5c5-5,7.5-11.1,7.5-18.5  c0-7.1-2.5-13.1-7.6-18.2c-5-5-11.1-7.6-18.2-7.6s-13.2,2.5-18.3,7.6C2.6,133.9,0,140,0,147.1c0,7.2,2.5,13.3,7.6,18.4  C12.6,170.5,18.7,173,25.9,173z M213.4,64c7.3,0,13.5-2.5,18.5-7.5c5-5,7.5-11.1,7.5-18.3c0-7.2-2.5-13.3-7.6-18.4  c-5-5-11.2-7.6-18.4-7.6c-6.9,0-13,2.6-18.1,7.7c-5.1,5.1-7.7,11.2-7.7,18.3c0,7.1,2.5,13.1,7.6,18.2C200.2,61.4,206.3,64,213.4,64z   M25.9,390.9c7.2,0,13.3-2.5,18.3-7.5c5-5,7.5-11.1,7.5-18.5c0-7.1-2.5-13.1-7.6-18.2c-5-5-11.1-7.6-18.2-7.6s-13.2,2.6-18.3,7.7  S0,358,0,364.9c0,7.2,2.5,13.3,7.6,18.4C12.6,388.4,18.7,390.9,25.9,390.9z M119.6,118.2c7.3,0,13.5-2.5,18.4-7.5  c4.9-5,7.4-11.1,7.4-18.5c0-7.2-2.5-13.3-7.5-18.3c-5-5-11.1-7.5-18.3-7.5c-7.1,0-13.1,2.5-18.2,7.6c-5,5-7.6,11.1-7.6,18.2  c0,7.2,2.5,13.3,7.5,18.4C106.4,115.7,112.4,118.2,119.6,118.2z M307.3,118.2c7.3,0,13.5-2.5,18.4-7.5c4.9-5,7.4-11.1,7.4-18.5  c0-7.2-2.5-13.3-7.5-18.3c-5-5-11.1-7.5-18.3-7.5c-7.1,0-13.1,2.5-18.2,7.6c-5,5-7.6,11.1-7.6,18.2c0,7.2,2.5,13.3,7.5,18.4  C294,115.7,300.1,118.2,307.3,118.2z M213.4,499.7c7.3,0,13.5-2.5,18.5-7.4c5-4.9,7.5-11,7.5-18.4c0-7.2-2.5-13.3-7.6-18.3  c-5-5-11.2-7.5-18.4-7.5c-6.9,0-13,2.5-18.1,7.6c-5.1,5-7.7,11.1-7.7,18.2c0,7.2,2.5,13.3,7.6,18.3  C200.2,497.2,206.3,499.7,213.4,499.7z M119.6,445.7c7.3,0,13.5-2.5,18.4-7.5c4.9-5,7.4-11.1,7.4-18.3c0-7.2-2.5-13.3-7.5-18.4  c-5-5-11.1-7.6-18.3-7.6c-7.1,0-13.1,2.6-18.2,7.7c-5,5.1-7.6,11.2-7.6,18.3s2.5,13.1,7.5,18.2C106.4,443.2,112.4,445.7,119.6,445.7  z M25.9,281.8c7.2,0,13.3-2.5,18.3-7.5c5-5,7.5-11.1,7.5-18.3c0-7.2-2.5-13.3-7.6-18.3c-5-5-11.1-7.5-18.2-7.5s-13.2,2.5-18.3,7.6  C2.6,243,0,249,0,256.1c0,7.2,2.5,13.3,7.6,18.3C12.6,279.3,18.7,281.8,25.9,281.8z M424,266.3c1.4-3.5,2.2-6.9,2.2-10.2  c0-7.2-2.5-13.3-7.5-18.3c-5-5-11.1-7.5-18.3-7.5c-7.1,0-13.2,2.5-18.3,7.6c-5.1,5-7.7,11.1-7.7,18.2c0,3.3,0.7,6.6,2.2,10  c7.6-3.7,15.5-5.5,23.8-5.5C408.7,260.6,416.5,262.5,424,266.3z" class="multicolor-0:tintColor hierarchical-0:secondary SFSymbolsPreview007AFF" style="fill: #007AFF;"/>
<path d="M315.1,492.5h170.1c8.1,0,14.6-2.5,19.5-7.6c4.8-5,7.3-11.3,7.3-18.8c0-4.6-1.2-9-3.7-13.2L423,300.9  c-2.5-4.5-5.8-7.8-9.9-10c-4.1-2.2-8.4-3.3-12.7-3.3c-4.6,0-9,1.1-13.2,3.3c-4.2,2.2-7.5,5.6-9.8,10l-85.1,152.3  c-2.5,4.1-3.7,8.4-3.7,13c0,7.5,2.4,13.7,7.2,18.8C300.6,489.9,307,492.5,315.1,492.5z" class="multicolor-1:systemYellowColor hierarchical-1:primary SFSymbolsPreviewFFCC00" style="fill: #FFCC00;"/>
<path d="M400.4,415.6c-3.5,0-6.4-1-8.5-3.1c-2.2-2.1-3.3-4.8-3.4-8.3l-1.6-56c-0.1-4.1,1.1-7.3,3.5-9.8c2.5-2.5,5.8-3.7,10-3.7  c4.1,0,7.3,1.2,9.8,3.7c2.5,2.5,3.7,5.8,3.5,9.8l-1.6,56c-0.1,3.4-1.3,6.2-3.4,8.3C406.6,414.6,403.8,415.6,400.4,415.6z   M400.2,462.6c-4.5,0-8.3-1.6-11.6-4.9c-3.3-3.3-4.9-7.2-4.9-11.8c0-4.5,1.6-8.3,4.9-11.6c3.3-3.3,7.1-4.9,11.6-4.9  c4.7,0,8.7,1.6,11.9,4.9c3.2,3.3,4.8,7.1,4.8,11.6c0,4.6-1.6,8.5-4.9,11.8C408.7,461,404.8,462.6,400.2,462.6z" class="multicolor-2:white hierarchical-1:primary SFSymbolsPreviewFFFFFF" style="fill: #FFFFFF;"/>
</svg>