<?xml version="1.0" encoding="UTF-8"?>
<!--Generator: Apple Native CoreSVG 326-->
<!DOCTYPE svg
PUBLIC "-//W3C//DTD SVG 1.1//EN"
       "http://www.w3.org/Graphics/SVG/1.1/DTD/svg11.dtd">
<svg version="1.1" xmlns="http://www.w3.org/2000/svg" xmlns:xlink="http://www.w3.org/1999/xlink" viewBox="0 0 24.1309 25.6348">
 <g>
  <rect height="25.6348" opacity="0" width="24.1309" x="0" y="0"/>
  <path d="M13.7598 19.9121C13.7598 23.1445 10.7812 25.6152 6.88477 25.6152C2.97852 25.6152 0 23.1445 0 19.9121C0 17.4553 1.73105 15.4299 4.28711 14.6098L4.28711 16.4537C2.73906 17.1232 1.73828 18.3964 1.73828 19.9121C1.73828 22.168 3.95508 23.8867 6.88477 23.8867C9.81445 23.8867 12.0215 22.168 12.0215 19.9121C12.0215 18.381 11.0047 17.0972 9.43359 16.4323L9.43359 14.597C12.0093 15.4072 13.7598 17.4416 13.7598 19.9121Z" fill="black" fill-opacity="0.85"/>
  <path d="M6.8457 20.9375C7.5293 20.9375 8.07617 20.6152 8.07617 20.1562L8.07617 7.46094L5.64453 7.46094L5.64453 20.1562C5.64453 20.6152 6.17188 20.9375 6.8457 20.9375ZM6.8457 10.4004C9.7168 10.4004 12.0312 8.06641 12.0312 5.18555C12.0312 2.31445 9.69727 0 6.8457 0C3.97461 0 1.64062 2.33398 1.64062 5.18555C1.64062 8.08594 3.97461 10.4004 6.8457 10.4004Z" fill="black" fill-opacity="0.85"/>
  <path d="M20.2441 14.6094C19.7754 14.6094 19.4043 14.9805 19.4043 15.459L19.4043 19.1699L17.5195 19.1699C16.748 19.1699 16.4551 19.9414 16.9336 20.5664L19.6094 24.0625C19.9414 24.502 20.5371 24.4824 20.8594 24.0625L23.5352 20.5664C23.9941 19.9609 23.75 19.1699 22.9492 19.1699L21.084 19.1699L21.084 15.459C21.084 14.9805 20.7129 14.6094 20.2441 14.6094Z" fill="black" fill-opacity="0.85"/>
 </g>
</svg>
