<?xml version="1.0" ?><!-- Generator: Adobe Illustrator 25.0.0, SVG Export Plug-In . SVG Version: 6.00 Build 0)  --><svg xmlns="http://www.w3.org/2000/svg" xmlns:xlink="http://www.w3.org/1999/xlink" version="1.1" id="Layer_1" x="0px" y="0px" viewBox="0 0 512 512" style="enable-background:new 0 0 512 512;" xml:space="preserve">
<path d="M115.5,491.8h281c50.5,0,77.3-26.1,77.3-76.3V160.3c24.8-4.1,38.2-22.8,38.2-50.2V71.2c0-31.2-17.2-51-48.7-51H48.7  C18.7,20.2,0,40,0,71.2v38.9c0,27.4,13.3,46.1,38.2,50.2v255.1C38.2,465.9,65.1,491.8,115.5,491.8z M59.2,122.4  c-12.8,0-17.9-5.4-17.9-18.2V77.1c0-12.8,5.1-18.2,17.9-18.2h393.9c12.8,0,17.7,5.4,17.7,18.2v27.1c0,12.8-4.9,18.2-17.7,18.2H59.2z   M115,453.1c-23.1,0-35.6-12.6-35.6-35.6V161.1h353.2v256.4c0,23.1-12.8,35.6-35.6,35.6H115z M171.6,264.3h169  c10.8,0,18.4-7.4,18.4-18.7v-8.2c0-11.3-7.7-18.4-18.4-18.4h-169c-10.8,0-18.2,7.2-18.2,18.4v8.2  C153.4,256.9,160.8,264.3,171.6,264.3z"/>
</svg>