<?xml version="1.0" encoding="UTF-8"?>
<!--Generator: Apple Native CoreSVG 326-->
<!DOCTYPE svg
PUBLIC "-//W3C//DTD SVG 1.1//EN"
       "http://www.w3.org/Graphics/SVG/1.1/DTD/svg11.dtd">
<svg version="1.1" xmlns="http://www.w3.org/2000/svg" xmlns:xlink="http://www.w3.org/1999/xlink" viewBox="0 0 25.7324 27.7148">
 <g>
  <rect height="27.7148" opacity="0" width="25.7324" x="0" y="0"/>
  <path d="M11.6602 27.2803C12.373 27.6709 12.998 27.6709 13.7109 27.2803L17.0605 25.376C17.5879 25.0732 17.7148 24.5459 17.4707 24.0967C17.2266 23.6475 16.6602 23.5303 16.1523 23.8135L13.584 25.2686L13.584 22.4951C13.584 21.9092 13.2031 21.4795 12.6855 21.4795C12.168 21.4795 11.7871 21.9092 11.7871 22.4951L11.7871 25.2686L9.21875 23.8135C8.7207 23.5303 8.14453 23.6475 7.90039 24.0967C7.65625 24.5459 7.7832 25.0732 8.31055 25.376ZM3.45703 22.6514C3.96484 22.9346 4.54102 22.8369 4.78516 22.3682C5.0293 21.9092 4.83398 21.3623 4.36523 21.0986L2.68555 20.1611L4.82422 18.9502C5.3418 18.6572 5.54688 18.0811 5.26367 17.6611C4.9707 17.2119 4.44336 17.085 3.95508 17.3584L1.75781 18.5791L1.75781 16.6455C1.75781 16.0693 1.37695 15.6396 0.878906 15.6396C0.361328 15.6396 0 16.0693 0 16.6455L0 18.7549C0 20.4541 0.527344 21.0107 1.66016 21.6553ZM0.878906 12.6709C1.39648 12.6709 1.75781 12.2412 1.75781 11.665L1.75781 8.95996L4.18945 10.3369C4.6582 10.6006 5.20508 10.4736 5.49805 10.0342C5.78125 9.60449 5.56641 9.02832 5.03906 8.73535L2.68555 7.41699L5.10742 6.05957C5.66406 5.74707 5.83008 5.16113 5.54688 4.72168C5.27344 4.30176 4.73633 4.19434 4.27734 4.46777L1.40625 6.08887C0.507812 6.60645 0 7.2998 0 8.50098L0 11.665C0 12.2412 0.380859 12.6709 0.878906 12.6709ZM12.6855 5.85449C13.2031 5.85449 13.584 5.4248 13.584 4.84863L13.584 2.28027L15.6152 3.42285C16.1035 3.70605 16.6992 3.58887 16.9336 3.14941C17.168 2.70996 17.0508 2.17285 16.5234 1.87988L13.8672 0.366211C12.9883-0.12207 12.3828-0.12207 11.5137 0.366211L8.84766 1.87988C8.32031 2.17285 8.20312 2.70996 8.4375 3.14941C8.67188 3.58887 9.26758 3.70605 9.75586 3.42285L11.7871 2.28027L11.7871 4.84863C11.7871 5.4248 12.168 5.85449 12.6855 5.85449ZM24.4922 12.6709C24.9902 12.6709 25.3711 12.2412 25.3711 11.665L25.3711 8.50098C25.3711 7.20215 24.9902 6.66504 23.9746 6.08887L21.0938 4.46777C20.6348 4.19434 20.1074 4.30176 19.8242 4.72168C19.5508 5.16113 19.707 5.74707 20.2637 6.05957L22.6855 7.41699L20.332 8.73535C19.8047 9.02832 19.5898 9.60449 19.873 10.0342C20.166 10.4736 20.7129 10.6006 21.1816 10.3369L23.6133 8.95996L23.6133 11.665C23.6133 12.2412 23.9746 12.6709 24.4922 12.6709ZM21.9141 22.6514L23.7109 21.6553C24.8438 21.0107 25.3711 20.4541 25.3711 18.7549L25.3711 16.6455C25.3711 16.0693 25.0098 15.6396 24.4922 15.6396C23.9941 15.6396 23.6133 16.0693 23.6133 16.6455L23.6133 18.5889L21.416 17.3584C20.9277 17.085 20.4004 17.2119 20.1074 17.6611C19.8242 18.0811 20.0293 18.6572 20.5566 18.9502L22.6758 20.1611L21.0059 21.0986C20.5371 21.3623 20.3418 21.9092 20.5859 22.3682C20.8301 22.8369 21.4062 22.9346 21.9141 22.6514ZM12.6855 18.6084C13.2031 18.6084 13.584 18.1885 13.584 17.6025L13.584 14.6143L16.3379 13.0518C16.8555 12.7588 17.041 12.1826 16.7578 11.7529C16.4746 11.3135 15.957 11.1865 15.4688 11.46L12.6855 13.0127L9.91211 11.46C9.41406 11.1865 8.89648 11.3135 8.61328 11.7529C8.33008 12.1826 8.51562 12.7588 9.04297 13.0518L11.7871 14.6143L11.7871 17.6025C11.7871 18.1885 12.168 18.6084 12.6855 18.6084Z" fill="black" fill-opacity="0.85"/>
 </g>
</svg>
