<?xml version="1.0" encoding="UTF-8"?>
<!--Generator: Apple Native CoreSVG 326-->
<!DOCTYPE svg
PUBLIC "-//W3C//DTD SVG 1.1//EN"
       "http://www.w3.org/Graphics/SVG/1.1/DTD/svg11.dtd">
<svg version="1.1" xmlns="http://www.w3.org/2000/svg" xmlns:xlink="http://www.w3.org/1999/xlink" viewBox="0 0 25.8008 25.459">
 <g>
  <rect height="25.459" opacity="0" width="25.8008" x="0" y="0"/>
  <path d="M12.7148 25.4395C19.7363 25.4395 25.4395 19.7461 25.4395 12.7246C25.4395 5.70312 19.7363 0 12.7148 0C5.69336 0 0 5.70312 0 12.7246C0 19.7461 5.69336 25.4395 12.7148 25.4395ZM12.7148 23.623C6.68945 23.623 1.81641 18.75 1.81641 12.7246C1.81641 6.69922 6.68945 1.82617 12.7148 1.82617C18.7402 1.82617 23.6133 6.69922 23.6133 12.7246C23.6133 18.75 18.7402 23.623 12.7148 23.623Z" fill="black" fill-opacity="0.85"/>
  <path d="M7.26562 12.4707L11.582 12.4707C12.1289 12.4707 12.4609 12.207 12.4609 11.582L12.4609 7.26562C12.4609 6.83594 12.1191 6.49414 11.6992 6.49414C11.2695 6.49414 10.9277 6.83594 10.9277 7.26562L10.9277 7.96875L11.0352 10.0391L7.57812 6.45508C7.25586 6.12305 6.73828 6.12305 6.42578 6.44531C6.10352 6.75781 6.11328 7.28516 6.43555 7.58789L10 11.0449L8.01758 10.9375L7.26562 10.9375C6.8457 10.9375 6.50391 11.2793 6.50391 11.6992C6.50391 12.1289 6.8457 12.4707 7.26562 12.4707ZM13.7109 18.9258C14.1309 18.9258 14.4824 18.584 14.4824 18.1641L14.4824 17.4609L14.375 15.3906L17.832 18.9746C18.1543 19.3066 18.6719 19.3066 18.9844 18.9844C19.3066 18.6621 19.2969 18.1348 18.9746 17.832L15.4102 14.3848L17.3926 14.4824L18.1348 14.4922C18.5645 14.4922 18.9062 14.1504 18.9062 13.7207C18.9062 13.3008 18.5645 12.959 18.1348 12.959L13.8281 12.959C13.2812 12.959 12.9492 13.2129 12.9492 13.8379L12.9492 18.1641C12.9492 18.584 13.291 18.9258 13.7109 18.9258Z" fill="black" fill-opacity="0.85"/>
 </g>
</svg>
