<?xml version="1.0" encoding="UTF-8"?>
<!--Generator: Apple Native CoreSVG 326-->
<!DOCTYPE svg
PUBLIC "-//W3C//DTD SVG 1.1//EN"
       "http://www.w3.org/Graphics/SVG/1.1/DTD/svg11.dtd">
<svg version="1.1" xmlns="http://www.w3.org/2000/svg" xmlns:xlink="http://www.w3.org/1999/xlink" viewBox="0 0 25.8008 25.459">
 <g>
  <rect height="25.459" opacity="0" width="25.8008" x="0" y="0"/>
  <path d="M12.7148 25.4395C19.7363 25.4395 25.4395 19.7461 25.4395 12.7246C25.4395 5.70312 19.7363 0 12.7148 0C5.69336 0 0 5.70312 0 12.7246C0 19.7461 5.69336 25.4395 12.7148 25.4395ZM12.7148 23.623C6.68945 23.623 1.81641 18.75 1.81641 12.7246C1.81641 6.69922 6.68945 1.82617 12.7148 1.82617C18.7402 1.82617 23.6133 6.69922 23.6133 12.7246C23.6133 18.75 18.7402 23.623 12.7148 23.623Z" fill="black" fill-opacity="0.85"/>
  <path d="M13.9551 6.39648C11.0352 6.39648 9.23828 8.50586 9.23828 11.3965L9.23828 15.4492L9.27734 16.9141L8.55469 15.9961L7.02148 14.4336C6.88477 14.2871 6.68945 14.1797 6.45508 14.1797C6.00586 14.1797 5.66406 14.5117 5.66406 14.9609C5.66406 15.1953 5.74219 15.3711 5.9082 15.5273L9.30664 18.8672C9.49219 19.0527 9.72656 19.1699 9.99023 19.1699C10.2539 19.1699 10.4785 19.0527 10.6641 18.8672L14.0918 15.5176C14.248 15.3613 14.3262 15.1855 14.3262 14.9512C14.3262 14.5117 13.9844 14.1797 13.5352 14.1797C13.3203 14.1797 13.1152 14.2676 12.9688 14.4238L11.2402 16.2109L10.7031 16.9141L10.752 15.4492L10.752 11.3965C10.752 9.44336 11.8945 7.98828 13.877 7.98828C15.8984 7.98828 17.168 9.41406 17.168 11.4062C17.168 11.6113 17.168 13.1836 17.168 13.2324C17.168 13.6914 17.4414 14.0527 17.9395 14.0527C18.4375 14.0527 18.7207 13.6914 18.7207 13.2129C18.7207 13.1543 18.7207 11.6113 18.7207 11.4062C18.7207 8.51562 16.875 6.39648 13.9551 6.39648Z" fill="black" fill-opacity="0.85"/>
 </g>
</svg>
