<?xml version="1.0" encoding="UTF-8"?>
<!--Generator: Apple Native CoreSVG 326-->
<!DOCTYPE svg
PUBLIC "-//W3C//DTD SVG 1.1//EN"
       "http://www.w3.org/Graphics/SVG/1.1/DTD/svg11.dtd">
<svg version="1.1" xmlns="http://www.w3.org/2000/svg" xmlns:xlink="http://www.w3.org/1999/xlink" viewBox="0 0 21.3281 26.9238">
 <g>
  <rect height="26.9238" opacity="0" width="21.3281" x="0" y="0"/>
  <path d="M9.66797 9.15039C9.66797 10.6738 10.3906 11.4062 11.9141 11.4062L20.9668 11.4062L20.9668 23.125C20.9668 25.6348 19.707 26.9238 17.207 26.9238L3.75977 26.9238C1.25977 26.9238 0 25.6445 0 23.125L0 3.80859C0 1.28906 1.2793 0.00976562 3.75977 0.00976562L9.66797 0.00976562ZM9.6875 14.4141L9.6875 19.3848L9.75586 21.5332L8.33984 20.0879L7.25586 18.9844C7.10938 18.8379 6.89453 18.75 6.69922 18.75C6.26953 18.75 5.95703 19.0527 5.95703 19.4727C5.95703 19.7363 6.07422 19.9219 6.24023 20.0684L9.89258 23.5059C10.1074 23.7012 10.2832 23.7793 10.4883 23.7793C10.6836 23.7793 10.8594 23.7012 11.0742 23.5059L14.7266 20.0684C14.8926 19.9219 15.0098 19.7363 15.0098 19.4727C15.0098 19.0527 14.6875 18.75 14.2676 18.75C14.0625 18.75 13.8574 18.8379 13.7109 18.9844L12.627 20.0879L11.2109 21.5332L11.2793 19.3848L11.2793 14.4141C11.2793 13.9844 10.918 13.6328 10.4883 13.6328C10.0488 13.6328 9.6875 13.9844 9.6875 14.4141ZM12.6465 1.09375L19.8828 8.42773C20.4004 8.94531 20.7324 9.38477 20.8105 9.84375L11.9727 9.84375C11.4746 9.84375 11.2305 9.59961 11.2305 9.10156L11.2305 0.15625C11.6797 0.234375 12.1484 0.576172 12.6465 1.09375Z" fill="black" fill-opacity="0.85"/>
 </g>
</svg>
