<?xml version="1.0" encoding="UTF-8"?>
<!--Generator: Apple Native CoreSVG 326-->
<!DOCTYPE svg
PUBLIC "-//W3C//DTD SVG 1.1//EN"
       "http://www.w3.org/Graphics/SVG/1.1/DTD/svg11.dtd">
<svg version="1.1" xmlns="http://www.w3.org/2000/svg" xmlns:xlink="http://www.w3.org/1999/xlink" viewBox="0 0 25.8008 25.459">
 <g>
  <rect height="25.459" opacity="0" width="25.8008" x="0" y="0"/>
  <path d="M12.7148 25.4395C19.7363 25.4395 25.4395 19.7461 25.4395 12.7246C25.4395 5.70312 19.7363 0 12.7148 0C5.69336 0 0 5.70312 0 12.7246C0 19.7461 5.69336 25.4395 12.7148 25.4395ZM12.7148 23.623C6.68945 23.623 1.81641 18.75 1.81641 12.7246C1.81641 6.69922 6.68945 1.82617 12.7148 1.82617C18.7402 1.82617 23.6133 6.69922 23.6133 12.7246C23.6133 18.75 18.7402 23.623 12.7148 23.623Z" fill="black" fill-opacity="0.85"/>
  <path d="M5.43945 13.916C5.43945 14.3164 5.79102 14.668 6.19141 14.6582L10.7812 14.6289C10.9766 14.6191 11.1719 14.541 11.2891 14.4043C11.582 14.1309 11.582 13.7109 11.2988 13.4277C11.1621 13.2812 10.9863 13.2129 10.791 13.2129L8.75 13.2422L7.80273 13.2617L8.33984 12.7734L14.4238 6.68945C14.707 6.40625 14.7168 5.97656 14.4238 5.68359C14.1406 5.40039 13.7109 5.39062 13.418 5.68359L7.34375 11.7578L6.85547 12.2852L6.875 11.3672L6.89453 9.32617C6.9043 9.13086 6.81641 8.93555 6.68945 8.80859C6.39648 8.51562 5.97656 8.51562 5.69336 8.80859C5.56641 8.94531 5.48828 9.15039 5.48828 9.3457ZM19.9805 11.5527C19.9805 11.1328 19.6484 10.8301 19.248 10.8301L14.6582 10.8496C14.4727 10.8496 14.2676 10.9375 14.1406 11.0742C13.8477 11.3672 13.8477 11.7676 14.1309 12.0605C14.2773 12.1875 14.4531 12.2656 14.6387 12.2656L16.6895 12.2363L17.6367 12.2168L17.0996 12.7051L11.0059 18.7891C10.7227 19.0723 10.7227 19.4922 11.0156 19.7949C11.2988 20.0684 11.7285 20.0879 12.0117 19.7949L18.0957 13.7109L18.6035 13.1836L18.5645 14.1113L18.5449 16.1523C18.5449 16.3477 18.6133 16.5332 18.75 16.6797C19.0332 16.9531 19.4531 16.9531 19.7461 16.6797C19.8633 16.543 19.9316 16.3477 19.9414 16.1426Z" fill="black" fill-opacity="0.85"/>
 </g>
</svg>
