<?xml version="1.0" ?><!-- Generator: Adobe Illustrator 25.0.0, SVG Export Plug-In . SVG Version: 6.00 Build 0)  --><svg xmlns="http://www.w3.org/2000/svg" xmlns:xlink="http://www.w3.org/1999/xlink" version="1.1" id="Layer_1" x="0px" y="0px" viewBox="0 0 512 512" style="enable-background:new 0 0 512 512;" xml:space="preserve">
<path d="M256,512c140,0,256-116.2,256-256C512,116,395.8,0,255.7,0C116,0,0,116,0,256C0,395.8,116.2,512,256,512z M256,469.3  c-118.5,0-213.1-94.9-213.1-213.3S137.3,42.7,255.7,42.7S469.1,137.5,469.3,256S374.5,469.3,256,469.3z M138,169.2  c-6.5,6.3-6.3,17.8,0,24.3l63.2,61.7c3.3,2.8,7.8,4.5,11.8,4.5c9.3,0,16.1-6.3,16.1-15.8c0-4.3-1.8-8.3-4.8-11.5l-26.6-25.9  l-10.5-9.5l11.8,0.5h162.9c9.3,0,16.3-7,16.3-16.3c0-9.3-6.8-16.3-16.3-16.3H199.3l-11.8,0.5l10.3-9.5l26.6-25.9  c3-2.8,4.8-7,4.8-11.5c0-9.3-6.8-16.1-16.1-16.1c-4,0-8.8,2.3-11.8,5.3L138,169.2z M373.2,343.6c6.8-6.8,6.3-17.1,0-23.8L310,258  c-2.8-2.8-7.5-4.8-11.8-4.8c-9.5,0-16.1,6.5-16.1,15.8c0,4.5,1.8,8.3,4.8,11.5l26.9,25.9l10.5,9.5l-12-0.5H149.3  c-9,0-16.1,6.8-16.1,16.3c0,9.3,6.8,16.3,16.1,16.3H312l12.3-0.5l-10.5,9.5L287.1,383c-3,3-5,7-5,11.5c0,9,7,16.1,16.1,16.1  c3.8,0,8.5-2.3,11.8-5L373.2,343.6z"/>
</svg>