<?xml version="1.0" ?><!-- Generator: Adobe Illustrator 25.0.0, SVG Export Plug-In . SVG Version: 6.00 Build 0)  --><svg xmlns="http://www.w3.org/2000/svg" xmlns:xlink="http://www.w3.org/1999/xlink" version="1.1" id="Layer_1" x="0px" y="0px" viewBox="0 0 512 512" style="enable-background:new 0 0 512 512;" xml:space="preserve">
<path d="M256,512c140,0,256-116.2,256-256C512,116,395.8,0,255.7,0C116,0,0,116,0,256C0,395.8,116.2,512,256,512z M256,469.3  c-118.5,0-213.1-94.9-213.1-213.3S137.3,42.7,255.7,42.7S469.1,137.5,469.3,256S374.5,469.3,256,469.3z M334.3,194  c-11,0-18.3,7.5-18.3,19.6V257l3.8,38.9l-36.1-38.4l-92.4-92.6c-3.8-3.5-8.3-5.8-14.3-5.8c-11,0-18.6,7.5-18.6,18.8  c0,5,2.5,9.8,6,13.3l92.6,92.6l39.2,36.4l-37.1-4h-45.7c-12,0-19.8,7.3-19.8,18.6c0,11,7.5,18.3,19.3,18.3h119  c12.8,0,21.1-6,21.1-20.8V214.1C352.9,202.3,345.3,194,334.3,194z"/>
</svg>