<?xml version="1.0" ?><!-- Generator: Adobe Illustrator 25.0.0, SVG Export Plug-In . SVG Version: 6.00 Build 0)  --><svg xmlns="http://www.w3.org/2000/svg" xmlns:xlink="http://www.w3.org/1999/xlink" version="1.1" id="Layer_1" x="0px" y="0px" viewBox="0 0 512 512" style="enable-background:new 0 0 512 512;" xml:space="preserve">
<path d="M256,435.6c6.7,0,12.7-5.3,12.7-12V88.2c0-6.7-6-11.9-12.7-11.9c-6.7,0-12.5,5.2-12.5,11.9v335.3  C243.4,430.3,249.3,435.6,256,435.6z M12.9,276.2l130.1,79.7c16.3,10,34.7,2.9,34.7-18V174c0-20.4-18-28-34.7-17.9L12.9,235.8  C-4.5,246.3-4.1,265.7,12.9,276.2z M369,355.9l130.2-79.7c16.8-10.5,17.2-29.9,0-40.4L369,156.1c-16.7-10.1-34.7-2.6-34.7,17.9  v163.9C334.3,358.8,352.7,365.9,369,355.9z M365.4,331c-2.1,1.2-6,1.4-6-2.9V183.9c0-4.6,4.3-4.1,6-2.9l115.3,71.3  c4.1,2.7,2.7,5.7,0,7.2L365.4,331z M31.3,259.5c-2.6-1.7-4.1-4.5,0-7.2L146.5,181c1.7-1.2,6-1.7,6,2.9v144.1c0,4.3-4,4.3-6,2.9  L31.3,259.5z"/>
</svg>