<?xml version="1.0" encoding="UTF-8"?>
<!--Generator: Apple Native CoreSVG 326-->
<!DOCTYPE svg
PUBLIC "-//W3C//DTD SVG 1.1//EN"
       "http://www.w3.org/Graphics/SVG/1.1/DTD/svg11.dtd">
<svg version="1.1" xmlns="http://www.w3.org/2000/svg" xmlns:xlink="http://www.w3.org/1999/xlink" viewBox="0 0 23.1738 26.8652">
 <g>
  <rect height="26.8652" opacity="0" width="23.1738" x="0" y="0"/>
  <path d="M11.4062 0C11.0059 0 10.5566 0.146484 10.0781 0.664062L0.732422 10.5859C0.244141 11.1133 0 11.5723 0 12.1387C0 12.9199 0.576172 13.457 1.34766 13.457L6.55273 13.457L6.55273 24.0625C6.55273 25.8203 7.5293 26.8262 9.24805 26.8262L13.5156 26.8262C15.2441 26.8262 16.2109 25.8203 16.2109 24.0625L16.2109 13.457L21.4062 13.457C22.1777 13.457 22.8125 12.9199 22.8125 12.1191C22.8125 11.5527 22.5586 11.1621 22.0117 10.5859L12.7441 0.664062C12.2559 0.136719 11.8066 0 11.4062 0Z" fill="black" fill-opacity="0.85"/>
 </g>
</svg>
