<?xml version="1.0" encoding="UTF-8"?>
<!--Generator: Apple Native CoreSVG 326-->
<!DOCTYPE svg
PUBLIC "-//W3C//DTD SVG 1.1//EN"
       "http://www.w3.org/Graphics/SVG/1.1/DTD/svg11.dtd">
<svg version="1.1" xmlns="http://www.w3.org/2000/svg" xmlns:xlink="http://www.w3.org/1999/xlink" viewBox="0 0 15.7324 24.4824">
 <g>
  <rect height="24.4824" opacity="0" width="15.7324" x="0" y="0"/>
  <path d="M7.68555 24.4824C7.94922 24.4824 8.19336 24.375 8.38867 24.1602L15.0781 17.3926C15.2539 17.207 15.3711 16.9336 15.3711 16.6992C15.3711 16.1328 14.9805 15.752 14.4336 15.752C14.1602 15.752 13.9355 15.8496 13.7695 16.0156L10.6934 19.1602L8.53516 21.582L8.63281 18.7207L8.63281 5.76172L8.53516 2.90039L10.6934 5.32227L13.7695 8.4668C13.9355 8.63281 14.1602 8.73047 14.4336 8.73047C14.9805 8.73047 15.3711 8.34961 15.3711 7.7832C15.3711 7.54883 15.2539 7.27539 15.0781 7.08984L8.38867 0.322266C8.19336 0.107422 7.94922 0 7.68555 0C7.42188 0 7.17773 0.107422 6.97266 0.322266L0.292969 7.08984C0.107422 7.27539 0 7.54883 0 7.7832C0 8.34961 0.390625 8.73047 0.9375 8.73047C1.21094 8.73047 1.42578 8.63281 1.5918 8.4668L4.67773 5.32227L6.83594 2.90039L6.73828 5.76172L6.73828 18.7207L6.83594 21.582L4.67773 19.1602L1.5918 16.0156C1.42578 15.8496 1.21094 15.752 0.9375 15.752C0.390625 15.752 0 16.1328 0 16.6992C0 16.9336 0.107422 17.207 0.292969 17.3926L6.97266 24.1602C7.17773 24.375 7.42188 24.4824 7.68555 24.4824Z" fill="black" fill-opacity="0.85"/>
 </g>
</svg>
