<?xml version="1.0" ?><!-- Generator: Adobe Illustrator 25.0.0, SVG Export Plug-In . SVG Version: 6.00 Build 0)  --><svg xmlns="http://www.w3.org/2000/svg" xmlns:xlink="http://www.w3.org/1999/xlink" version="1.1" id="Layer_1" x="0px" y="0px" viewBox="0 0 512 512" style="enable-background:new 0 0 512 512;" xml:space="preserve">
<path d="M307.7,447.9c10.2,0,18.6-4.2,28.7-13.6l165-155.8c8.2-7.5,10.7-15.5,10.7-22.4c0-7.1-2.5-15.1-10.7-22.6l-165-154.4  c-11.1-10.5-18-15.1-28.2-15.1c-14.6,0-24.9,11.7-24.9,25.7V171H147.5c-36.2,0-51.7,15.1-51.7,50.6v43.7H51.7  C15.5,265.3,0,280.2,0,315.7V396c0,35.6,15.5,50.6,51.7,50.6h126.1c36.2,0,51.7-15.1,51.7-50.6v-47.7h53.8v75.1  C283.2,437.4,293.4,447.9,307.7,447.9z M205.6,397.9l-84.5-35.3c-20.5-8.6-28-17.6-29.1-34.1c-0.2-4.2,4.2-5,6.1-1  c6.3,13.8,20.5,20.9,41.4,20.9h68.8v48.3C208.3,397.9,206.9,398.5,205.6,397.9z"/>
</svg>