<?xml version="1.0" ?><!-- Generator: Adobe Illustrator 25.0.0, SVG Export Plug-In . SVG Version: 6.00 Build 0)  --><svg xmlns="http://www.w3.org/2000/svg" xmlns:xlink="http://www.w3.org/1999/xlink" version="1.1" id="Layer_1" x="0px" y="0px" viewBox="0 0 512 512" style="enable-background:new 0 0 512 512;" xml:space="preserve">
<path d="M87.3,512h337.3c58.4,0,87.3-28.9,87.3-86.2V86.2C512,28.9,483.1,0,424.7,0H87.3C29.2,0,0,28.6,0,86.2v339.6  C0,483.4,29.2,512,87.3,512z M256.4,399.1c-12.5,0-21.7-8.9-21.7-21.7V234.7l2.5-60.9l-28.6,34.5l-33.9,34.2  c-3.9,3.9-9.2,6.4-15.3,6.4c-12,0-20.9-9.2-20.9-20.9c0-6.1,1.7-11.1,5.6-15l95.7-95.4c5.8-5.8,10.6-8.1,16.7-8.1  c6.7,0,11.4,2.5,17,8.1l95.4,95.4c4.2,3.9,6.1,8.9,6.1,15c0,11.7-9.2,20.9-21.1,20.9c-6.1,0-11.4-2.2-15.3-6.4l-33.7-34.2  l-29.2-34.8l2.5,61.2v142.7C278.1,390.2,269.2,399.1,256.4,399.1z"/>
</svg>