<?xml version="1.0" encoding="UTF-8"?>
<!--Generator: Apple Native CoreSVG 326-->
<!DOCTYPE svg
PUBLIC "-//W3C//DTD SVG 1.1//EN"
       "http://www.w3.org/Graphics/SVG/1.1/DTD/svg11.dtd">
<svg version="1.1" xmlns="http://www.w3.org/2000/svg" xmlns:xlink="http://www.w3.org/1999/xlink" viewBox="0 0 23.3203 22.959">
 <g>
  <rect height="22.959" opacity="0" width="23.3203" x="0" y="0"/>
  <path d="M3.79883 22.959L19.1504 22.959C21.6797 22.959 22.959 21.6797 22.959 19.1992L22.959 3.76953C22.959 1.2793 21.6797 0 19.1504 0L3.79883 0C1.2793 0 0 1.26953 0 3.76953L0 19.1992C0 21.6992 1.2793 22.959 3.79883 22.959ZM3.83789 21.2305C2.4707 21.2305 1.72852 20.5078 1.72852 19.1016L1.72852 3.85742C1.72852 2.46094 2.4707 1.72852 3.83789 1.72852L19.1211 1.72852C20.459 1.72852 21.2305 2.46094 21.2305 3.85742L21.2305 19.1016C21.2305 20.5078 20.459 21.2305 19.1211 21.2305Z" fill="black" fill-opacity="0.85"/>
  <path d="M6.07422 11.2695C6.49414 11.2695 6.8457 10.9277 6.8457 10.5078L6.8457 9.80469L6.73828 7.73438L9.6582 10.7715C9.98047 11.1133 10.4883 11.1035 10.8105 10.7812C11.123 10.4688 11.1133 9.94141 10.8008 9.62891L7.77344 6.72852L9.75586 6.82617L10.498 6.83594C10.9277 6.83594 11.2695 6.48438 11.2695 6.06445C11.2695 5.64453 10.9277 5.30273 10.498 5.30273L6.19141 5.30273C5.64453 5.30273 5.3125 5.55664 5.3125 6.18164L5.3125 10.5078C5.3125 10.9277 5.6543 11.2695 6.07422 11.2695ZM12.4707 17.6562L16.7773 17.6562C17.334 17.6562 17.666 17.4023 17.666 16.7676L17.666 12.4512C17.666 12.0215 17.3145 11.6797 16.8945 11.6797C16.4746 11.6797 16.1328 12.0215 16.1328 12.4512L16.1328 13.1543L16.2305 15.2246L13.3203 12.1777C12.998 11.8359 12.4805 11.8457 12.1582 12.168C11.8457 12.4902 11.8555 13.0176 12.168 13.3203L15.1953 16.2305L13.2129 16.1328L12.4707 16.123C12.041 16.123 11.6992 16.4648 11.6992 16.8848C11.6992 17.3145 12.041 17.6562 12.4707 17.6562Z" fill="black" fill-opacity="0.85"/>
 </g>
</svg>
