<?xml version="1.0" encoding="UTF-8"?>
<!--Generator: Apple Native CoreSVG 326-->
<!DOCTYPE svg
PUBLIC "-//W3C//DTD SVG 1.1//EN"
       "http://www.w3.org/Graphics/SVG/1.1/DTD/svg11.dtd">
<svg version="1.1" xmlns="http://www.w3.org/2000/svg" xmlns:xlink="http://www.w3.org/1999/xlink" viewBox="0 0 23.2715 22.8613">
 <g>
  <rect height="22.8613" opacity="0" width="23.2715" x="0" y="0"/>
  <path d="M1.43555 1.48438C0.263672 2.64648 0 4.25781 0 6.37695L0 6.58203L1.72852 6.58203L1.72852 6.31836C1.72852 4.84375 1.93359 3.50586 2.69531 2.73438C3.45703 1.96289 4.82422 1.75781 6.28906 1.75781L6.62109 1.75781L6.62109 0.0292969L6.34766 0.0292969C4.24805 0.0292969 2.61719 0.302734 1.43555 1.48438ZM8.17383 1.75781L14.7363 1.75781L14.7363 0.0292969L8.17383 0.0292969ZM21.4844 1.47461C20.293 0.292969 18.6719 0.0292969 16.5039 0.0292969L16.2891 0.0292969L16.2891 1.75781L16.6797 1.75781C18.0957 1.75781 19.4434 1.97266 20.2148 2.74414C20.9863 3.51562 21.1816 4.83398 21.1816 6.25977L21.1816 6.58203L22.9102 6.58203L22.9102 6.43555C22.9102 4.24805 22.6562 2.63672 21.4844 1.47461ZM21.1816 14.7461L22.9102 14.7461L22.9102 8.14453L21.1816 8.14453ZM21.4844 21.416C22.6562 20.2441 22.9102 18.6426 22.9102 16.4551L22.9102 16.3086L21.1816 16.3086L21.1816 16.6309C21.1816 18.0566 20.9766 19.375 20.2148 20.1465C19.4434 20.918 18.0957 21.1328 16.6797 21.1328L16.2891 21.1328L16.2891 22.8613L16.5039 22.8613C18.6719 22.8613 20.3027 22.5977 21.4844 21.416ZM8.17383 22.8613L14.7363 22.8613L14.7363 21.1328L8.17383 21.1328ZM1.42578 21.416C2.61719 22.5977 4.23828 22.8613 6.40625 22.8613L6.62109 22.8613L6.62109 21.1328L6.23047 21.1328C4.81445 21.1328 3.4668 20.918 2.69531 20.1465C1.93359 19.375 1.72852 18.0566 1.72852 16.6309L1.72852 16.3086L0 16.3086L0 16.4551C0 18.6426 0.253906 20.2539 1.42578 21.416ZM0 14.7461L1.72852 14.7461L1.72852 8.14453L0 8.14453Z" fill="black" fill-opacity="0.85"/>
  <path d="M11.4746 17.7246C11.6895 17.7246 11.8848 17.6562 12.0898 17.4414L16.2695 13.3789C16.4355 13.2129 16.5234 13.0371 16.5234 12.8125C16.5234 12.373 16.1816 12.0508 15.7422 12.0508C15.5371 12.0508 15.3125 12.1387 15.1562 12.3145L13.0859 14.4922L12.2656 15.3418L12.3242 13.4961L12.3242 5.95703C12.3242 5.49805 11.9336 5.11719 11.4746 5.11719C11.0059 5.11719 10.6152 5.49805 10.6152 5.95703L10.6152 13.4961L10.6836 15.3516L9.85352 14.4922L7.7832 12.3145C7.62695 12.1387 7.39258 12.0508 7.1875 12.0508C6.73828 12.0508 6.41602 12.373 6.41602 12.8125C6.41602 13.0371 6.50391 13.2129 6.66992 13.3789L10.8496 17.4414C11.0645 17.6562 11.25 17.7246 11.4746 17.7246Z" fill="black" fill-opacity="0.85"/>
 </g>
</svg>
