<?xml version="1.0" encoding="UTF-8"?>
<!--Generator: Apple Native CoreSVG 326-->
<!DOCTYPE svg
PUBLIC "-//W3C//DTD SVG 1.1//EN"
       "http://www.w3.org/Graphics/SVG/1.1/DTD/svg11.dtd">
<svg version="1.1" xmlns="http://www.w3.org/2000/svg" xmlns:xlink="http://www.w3.org/1999/xlink" viewBox="0 0 18.418 26.1816">
 <g>
  <rect height="26.1816" opacity="0" width="18.418" x="0" y="0"/>
  <path d="M0.761719 17.9492C0.761719 19.8926 1.50391 21.2695 2.91992 22.0508C3.58398 22.4121 3.93555 22.8125 4.18945 23.6133L4.62891 25.0781C4.85352 25.8203 5.38086 26.1816 6.15234 26.1816L11.8262 26.1816C12.6367 26.1816 13.125 25.8301 13.3496 25.0781L13.7988 23.6133C14.043 22.8125 14.4043 22.4121 15.0684 22.0508C16.4844 21.2695 17.2168 19.8926 17.2168 17.9492L17.2168 8.24219C17.2168 6.29883 16.4844 4.91211 15.0684 4.13086C14.4043 3.7793 14.043 3.37891 13.7988 2.57812L13.3496 1.11328C13.1445 0.380859 12.627 0.00976562 11.8262 0.00976562L6.15234 0.00976562C5.38086 0.00976562 4.85352 0.371094 4.62891 1.11328L4.18945 2.57812C3.94531 3.36914 3.59375 3.78906 2.91992 4.13086C1.51367 4.88281 0.761719 6.2793 0.761719 8.24219ZM2.34375 17.7246L2.34375 8.4668C2.34375 6.46484 3.51562 5.26367 5.48828 5.26367L12.5098 5.26367C14.4727 5.26367 15.6348 6.46484 15.6348 8.4668L15.6348 17.7246C15.6348 19.7168 14.4727 20.918 12.5098 20.918L5.48828 20.918C3.51562 20.918 2.34375 19.7168 2.34375 17.7246ZM16.9141 12.2461L17.3926 12.2461C18.0078 12.2461 18.418 11.8164 18.418 11.1426L18.418 9.41406C18.418 8.73047 18.0078 8.30078 17.3926 8.30078L16.9141 8.30078Z" fill="black" fill-opacity="0.85"/>
  <path d="M9.04297 8.05664C8.65234 8.05664 8.36914 8.33984 8.36914 8.74023L8.36914 14.1113L8.41797 15.9863L7.44141 14.834L6.13281 13.5059C6.00586 13.3984 5.83984 13.3008 5.64453 13.3008C5.26367 13.3008 4.99023 13.5938 4.99023 13.9551C4.99023 14.1406 5.04883 14.3066 5.17578 14.4336L8.52539 17.7734C8.70117 17.9492 8.85742 18.0176 9.04297 18.0176C9.24805 18.0176 9.4043 17.9492 9.58008 17.7734L12.9199 14.4336C13.0469 14.3066 13.125 14.1406 13.125 13.9551C13.125 13.5938 12.832 13.3008 12.4707 13.3008C12.2559 13.3008 12.0898 13.3887 11.9727 13.5059L10.6738 14.834L9.6582 15.9961L9.72656 14.1113L9.72656 8.74023C9.72656 8.33984 9.43359 8.05664 9.04297 8.05664Z" fill="black" fill-opacity="0.85"/>
 </g>
</svg>
