<?xml version="1.0" ?><!-- Generator: Adobe Illustrator 25.0.0, SVG Export Plug-In . SVG Version: 6.00 Build 0)  --><svg xmlns="http://www.w3.org/2000/svg" xmlns:xlink="http://www.w3.org/1999/xlink" version="1.1" id="Layer_1" x="0px" y="0px" viewBox="0 0 512 512" style="enable-background:new 0 0 512 512;" xml:space="preserve">
<path d="M256,512c140,0,256-116.2,256-256C512,116,395.8,0,255.7,0C116,0,0,116,0,256C0,395.8,116.2,512,256,512z M256,469.3  c-118.5,0-213.1-94.9-213.1-213.3S137.3,42.7,255.7,42.7S469.1,137.5,469.3,256S374.5,469.3,256,469.3z M276.1,363.9  c6.8,0,12-3,18.3-8.8l106.7-100.4c5.3-4.8,7-9.8,7-14.3c0-4.8-1.8-9.8-7-14.6l-106.7-99.6c-7-6.5-11.3-9.5-18.1-9.5  c-9.3,0-15.8,7.5-15.8,16.3v51.5h-4c-96.6,0-139.3,61.5-139.3,161.6c0,11.5,6.8,17.8,13.8,17.8c5.8,0,12-1.5,16.6-10  c23.6-44.2,56.5-57.2,108.9-57.2h4v51.7C260.5,357.4,267,363.9,276.1,363.9z"/>
</svg>