<?xml version="1.0" encoding="UTF-8"?>
<!--Generator: Apple Native CoreSVG 326-->
<!DOCTYPE svg
PUBLIC "-//W3C//DTD SVG 1.1//EN"
       "http://www.w3.org/Graphics/SVG/1.1/DTD/svg11.dtd">
<svg version="1.1" xmlns="http://www.w3.org/2000/svg" xmlns:xlink="http://www.w3.org/1999/xlink" viewBox="0 0 23.3203 22.959">
 <g>
  <rect height="22.959" opacity="0" width="23.3203" x="0" y="0"/>
  <path d="M3.79883 22.959L19.1504 22.959C21.6797 22.959 22.959 21.6797 22.959 19.1992L22.959 3.76953C22.959 1.2793 21.6797 0 19.1504 0L3.79883 0C1.2793 0 0 1.26953 0 3.76953L0 19.1992C0 21.6992 1.2793 22.959 3.79883 22.959ZM3.83789 21.2305C2.4707 21.2305 1.72852 20.5078 1.72852 19.1016L1.72852 3.85742C1.72852 2.46094 2.4707 1.72852 3.83789 1.72852L19.1211 1.72852C20.459 1.72852 21.2305 2.46094 21.2305 3.85742L21.2305 19.1016C21.2305 20.5078 20.459 21.2305 19.1211 21.2305Z" fill="black" fill-opacity="0.85"/>
  <path d="M11.4746 15.6152C11.6699 15.6152 11.8652 15.5176 12.0215 15.3613L16.3477 10.9961C16.5234 10.8203 16.6016 10.6348 16.6016 10.4199C16.6016 10.0195 16.3184 9.70703 15.8984 9.70703C15.6934 9.70703 15.498 9.77539 15.3516 9.93164L14.3555 10.9375L12.0898 13.4375L12.1973 11.123L12.1973 5.0293C12.1973 4.60938 11.8945 4.29688 11.4746 4.29688C11.0352 4.29688 10.7422 4.60938 10.7422 5.0293L10.7422 11.123L10.8594 13.4473L8.54492 10.918L7.62695 9.93164C7.48047 9.77539 7.30469 9.70703 7.08008 9.70703C6.65039 9.70703 6.36719 10 6.36719 10.4199C6.36719 10.6055 6.47461 10.8398 6.60156 10.9766L10.9277 15.3613C11.084 15.5273 11.2793 15.6152 11.4746 15.6152ZM6.76758 18.1152L16.2012 18.1152C16.6309 18.1152 16.9238 17.8027 16.9238 17.373C16.9238 16.9629 16.6309 16.6602 16.2012 16.6602L6.76758 16.6602C6.33789 16.6602 6.04492 16.9629 6.04492 17.373C6.04492 17.8027 6.33789 18.1152 6.76758 18.1152Z" fill="black" fill-opacity="0.85"/>
 </g>
</svg>
