<?xml version="1.0" encoding="UTF-8"?>
<!--Generator: Apple Native CoreSVG 326-->
<!DOCTYPE svg
PUBLIC "-//W3C//DTD SVG 1.1//EN"
       "http://www.w3.org/Graphics/SVG/1.1/DTD/svg11.dtd">
<svg version="1.1" xmlns="http://www.w3.org/2000/svg" xmlns:xlink="http://www.w3.org/1999/xlink" viewBox="0 0 31.5625 23.3496">
 <g>
  <rect height="23.3496" opacity="0" width="31.5625" x="0" y="0"/>
  <path d="M27.2559 9.58008C29.7363 10.5566 31.2012 12.8223 31.2012 15.4102C31.2012 18.7891 28.3008 21.4746 24.5801 21.4746L7.37305 21.4648C3.16406 21.4648 0 18.4668 0 14.8242C0 11.7871 1.78711 9.33594 4.58984 8.94531C4.62891 5.44922 7.98828 3.10547 11.0352 4.0918C12.4805 1.85547 14.873 0 18.3008 0C23.3594 0 27.3242 4.0332 27.2559 9.58008ZM15.4004 5.94727L15.4004 7.35352C13.0859 7.70508 11.1816 9.76562 11.1816 12.3242C11.1816 15.2051 13.457 17.4902 16.3086 17.4902C19.1504 17.4902 21.4258 15.2051 21.4258 12.3535C21.4258 11.9727 21.1035 11.6699 20.7227 11.6699C20.332 11.6699 20.0195 11.9727 20.0195 12.3535C20.0195 14.4238 18.3691 16.0938 16.3086 16.0938C14.2285 16.0938 12.5879 14.4336 12.5879 12.3535C12.5879 10.5957 13.7793 9.16992 15.4004 8.75977L15.4004 10.4004C15.4004 10.8887 15.9277 11.084 16.3086 10.7617L18.75 8.69141C19.1113 8.37891 19.1016 7.91016 18.75 7.61719L16.3086 5.56641C15.9277 5.26367 15.4004 5.43945 15.4004 5.94727Z" fill="black" fill-opacity="0.85"/>
 </g>
</svg>
