<?xml version="1.0" encoding="UTF-8"?>
<!--Generator: Apple Native CoreSVG 326-->
<!DOCTYPE svg
PUBLIC "-//W3C//DTD SVG 1.1//EN"
       "http://www.w3.org/Graphics/SVG/1.1/DTD/svg11.dtd">
<svg version="1.1" xmlns="http://www.w3.org/2000/svg" xmlns:xlink="http://www.w3.org/1999/xlink" viewBox="0 0 23.3203 22.959">
 <g>
  <rect height="22.959" opacity="0" width="23.3203" x="0" y="0"/>
  <path d="M3.79883 22.959L19.1504 22.959C21.6797 22.959 22.959 21.6797 22.959 19.1992L22.959 3.76953C22.959 1.2793 21.6797 0 19.1504 0L3.79883 0C1.2793 0 0 1.26953 0 3.76953L0 19.1992C0 21.6992 1.2793 22.959 3.79883 22.959ZM3.83789 21.2305C2.4707 21.2305 1.72852 20.5078 1.72852 19.1016L1.72852 3.85742C1.72852 2.46094 2.4707 1.72852 3.83789 1.72852L19.1211 1.72852C20.459 1.72852 21.2305 2.46094 21.2305 3.85742L21.2305 19.1016C21.2305 20.5078 20.459 21.2305 19.1211 21.2305Z" fill="black" fill-opacity="0.85"/>
  <path d="M7.43164 14.541C7.91016 14.541 8.22266 14.2188 8.22266 13.7012L8.22266 11.1523L8.07617 9.11133L9.74609 10.8984L14.9023 16.0449C15.0488 16.1914 15.2539 16.2891 15.5176 16.2891C15.9961 16.2891 16.3184 15.9766 16.3184 15.4883C16.3184 15.2637 16.2109 15.0586 16.0547 14.9023L10.8984 9.74609L9.10156 8.06641L10.9375 8.22266L13.7012 8.22266C14.2188 8.22266 14.5508 7.90039 14.5508 7.42188C14.5508 6.95312 14.2285 6.64062 13.7207 6.64062L7.5293 6.64062C6.98242 6.64062 6.64062 6.89453 6.64062 7.5293L6.64062 13.6816C6.64062 14.1895 6.95312 14.541 7.43164 14.541Z" fill="black" fill-opacity="0.85"/>
 </g>
</svg>
