<?xml version="1.0" ?><!-- Generator: Adobe Illustrator 25.0.0, SVG Export Plug-In . SVG Version: 6.00 Build 0)  --><svg xmlns="http://www.w3.org/2000/svg" xmlns:xlink="http://www.w3.org/1999/xlink" version="1.1" id="Layer_1" x="0px" y="0px" viewBox="0 0 512 512" style="enable-background:new 0 0 512 512;" xml:space="preserve">
<path d="M256,492.7c5.4,0,13.1-3.6,18.8-7C420,392.9,512,284.9,512,175c0-91.3-62.6-155.7-143.6-155.7c-50.3,0-88.9,27.8-112.4,70.4  c-22.9-42.3-62.1-70.4-112.4-70.4C62.6,19.3,0,83.8,0,175c0,109.8,92,217.8,237.4,310.7C242.9,489.1,250.6,492.7,256,492.7z   M164.2,280.2c0-44.6,33.5-83,75.3-89.2v-21.7c0-10.1,10.8-13.7,18.3-7.2l43.1,36.6c7.2,6.2,7.2,14.7,0,21.1L257.8,257  c-7.5,6.4-18.3,2.6-18.3-7.2v-25.5c-24.5,7.2-42.5,29.6-42.5,56.5c0,32.7,26.3,59,59,59c32.7,0,59-26.3,59-59  c0-9,7.5-16.5,16.5-16.5c8.8,0,16.2,7.5,16.2,16.5c0,51-40.7,92.3-91.8,92.3C205,373,164.2,331.8,164.2,280.2z"/>
</svg>