<?xml version="1.0" ?><!-- Generator: Adobe Illustrator 25.0.0, SVG Export Plug-In . SVG Version: 6.00 Build 0)  --><svg xmlns="http://www.w3.org/2000/svg" xmlns:xlink="http://www.w3.org/1999/xlink" version="1.1" id="Layer_1" x="0px" y="0px" viewBox="0 0 512 512" style="enable-background:new 0 0 512 512;" xml:space="preserve">
<path d="M256,512c140,0,256-116.2,256-256C512,116,395.8,0,255.7,0C116,0,0,116,0,256C0,395.8,116.2,512,256,512z M256,469.3  c-118.5,0-213.1-94.9-213.1-213.3S137.3,42.7,255.7,42.7S469.1,137.5,469.3,256S374.5,469.3,256,469.3z M165.6,175.7  c8.8,9.5,20.3,8,30.1,0.5c18.1-14.1,36.1-21.6,60.5-21.6c49.9,0,91.4,33.6,102.7,78.1H331c-11.8,0-14.3,11-8,20.1l40.9,56.7  c6.8,9.3,18.3,10,25.3,0l40.2-56.7c6.5-9,4-20.1-7.8-20.1h-25.1c-12-69.8-68.5-117.7-140.3-117.7c-31.1,0-62.7,11-84.3,29.1  C159.9,153.3,157.1,166.4,165.6,175.7z M82.3,258.3c-6.5,9-4,20.1,7.5,20.1h26.6C128.8,348.1,185.2,396,256.8,396  c31.4,0,62.7-10.8,84.6-28.9c12-9.5,14.8-22.6,6.3-31.9c-8.8-9.5-20.3-7.8-30.4-0.5c-18.1,14.1-36.1,21.8-60.5,21.8  c-49.9,0-91.4-33.6-102.4-78.3h26.4c11.5,0,14.3-11,7.8-20.1l-40.7-56.5c-6.8-9.5-18.3-10-25.3,0L82.3,258.3z"/>
</svg>