<?xml version="1.0" encoding="UTF-8"?>
<!--Generator: Apple Native CoreSVG 326-->
<!DOCTYPE svg
PUBLIC "-//W3C//DTD SVG 1.1//EN"
       "http://www.w3.org/Graphics/SVG/1.1/DTD/svg11.dtd">
<svg version="1.1" xmlns="http://www.w3.org/2000/svg" xmlns:xlink="http://www.w3.org/1999/xlink" viewBox="0 0 25.8008 25.459">
 <g>
  <rect height="25.459" opacity="0" width="25.8008" x="0" y="0"/>
  <path d="M12.7148 25.4395C19.7363 25.4395 25.4395 19.7461 25.4395 12.7246C25.4395 5.70312 19.7363 0 12.7148 0C5.69336 0 0 5.70312 0 12.7246C0 19.7461 5.69336 25.4395 12.7148 25.4395ZM12.7148 23.623C6.68945 23.623 1.81641 18.75 1.81641 12.7246C1.81641 6.69922 6.68945 1.82617 12.7148 1.82617C18.7402 1.82617 23.6133 6.69922 23.6133 12.7246C23.6133 18.75 18.7402 23.623 12.7148 23.623Z" fill="black" fill-opacity="0.85"/>
  <path d="M20.332 12.7246C20.332 12.4902 20.2344 12.2949 20.0293 12.0996L16.3574 8.41797C16.2109 8.27148 16.0156 8.18359 15.791 8.18359C15.3418 8.18359 15.0098 8.53516 15.0098 8.97461C15.0098 9.20898 15.0977 9.4043 15.2637 9.55078L16.3574 10.6348L17.9102 12.002L15.4492 11.9141L9.94141 11.9141L7.48047 12.002L9.0332 10.6348L10.1367 9.55078C10.293 9.4043 10.3809 9.20898 10.3809 8.97461C10.3809 8.53516 10.0586 8.18359 9.60938 8.18359C9.375 8.18359 9.18945 8.27148 9.04297 8.41797L5.37109 12.0996C5.16602 12.2949 5.06836 12.4902 5.06836 12.7246C5.06836 12.9492 5.16602 13.1348 5.37109 13.3496L9.04297 17.0312C9.18945 17.1777 9.375 17.2559 9.60938 17.2559C10.0586 17.2559 10.3809 16.9141 10.3809 16.4844C10.3809 16.2402 10.2832 16.0449 10.1367 15.8984L9.0332 14.8047L7.49023 13.4473L9.94141 13.5352L15.4492 13.5352L17.9004 13.4473L16.3574 14.8047L15.2637 15.8984C15.1074 16.0449 15.0098 16.2402 15.0098 16.4844C15.0098 16.9141 15.3418 17.2559 15.791 17.2559C16.0156 17.2559 16.2109 17.1777 16.3574 17.0312L20.0293 13.3496C20.2344 13.1348 20.332 12.9492 20.332 12.7246Z" fill="black" fill-opacity="0.85"/>
 </g>
</svg>
