<?xml version="1.0" encoding="UTF-8"?>
<!--Generator: Apple Native CoreSVG 326-->
<!DOCTYPE svg
PUBLIC "-//W3C//DTD SVG 1.1//EN"
       "http://www.w3.org/Graphics/SVG/1.1/DTD/svg11.dtd">
<svg version="1.1" xmlns="http://www.w3.org/2000/svg" xmlns:xlink="http://www.w3.org/1999/xlink" viewBox="0 0 31.4266 22.9785">
 <g>
  <rect height="22.9785" opacity="0" width="31.4266" x="0" y="0"/>
  <path d="M0.264105 8.76953C0.635199 9.14062 1.14301 9.10156 1.51411 8.74023L2.84223 7.42188L4.89301 5.25391L4.89301 19.2188C4.89301 21.7188 6.18207 22.9785 8.70161 22.9785L19.395 22.9785C20.0004 22.9785 20.3618 22.6562 20.352 22.1191C20.3422 21.5723 20.0004 21.25 19.395 21.25L8.7309 21.25C7.36371 21.25 6.62153 20.5273 6.62153 19.1309L6.62153 5.23438L8.69184 7.42188L10.0297 8.74023C10.3911 9.0918 10.8989 9.14062 11.27 8.76953C11.6411 8.39844 11.6215 7.88086 11.2504 7.51953L6.86567 3.14453C6.16254 2.46094 5.37153 2.46094 4.6684 3.14453L0.293402 7.51953C-0.0776918 7.88086-0.106989 8.39844 0.264105 8.76953ZM10.7133 0.888672C10.7231 1.43555 11.0649 1.75781 11.6606 1.75781L22.3344 1.75781C23.6918 1.75781 24.434 2.48047 24.434 3.87695L24.434 17.7734L22.3637 15.5859L21.0356 14.2676C20.6743 13.916 20.1664 13.8672 19.7856 14.2383C19.4243 14.5996 19.4438 15.127 19.8149 15.4883L24.1997 19.8633C24.893 20.5469 25.6938 20.5469 26.3872 19.8633L30.7719 15.4883C31.143 15.127 31.1625 14.5996 30.8012 14.2383C30.4301 13.8672 29.9223 13.9062 29.5512 14.2676L28.2231 15.5859L26.1625 17.7539L26.1625 3.78906C26.1625 1.28906 24.8832 0.0292969 22.3637 0.0292969L11.6606 0.0292969C11.0649 0.0292969 10.7036 0.351562 10.7133 0.888672Z" fill="black" fill-opacity="0.85"/>
 </g>
</svg>
