<?xml version="1.0" encoding="UTF-8"?>
<!--Generator: Apple Native CoreSVG 326-->
<!DOCTYPE svg
PUBLIC "-//W3C//DTD SVG 1.1//EN"
       "http://www.w3.org/Graphics/SVG/1.1/DTD/svg11.dtd">
<svg version="1.1" xmlns="http://www.w3.org/2000/svg" xmlns:xlink="http://www.w3.org/1999/xlink" viewBox="0 0 19.2676 25.6348">
 <g>
  <rect height="25.6348" opacity="0" width="19.2676" x="0" y="0"/>
  <path d="M18.9062 14.2773C18.9062 13.75 18.5156 13.3496 17.9883 13.3496C17.7344 13.3496 17.4805 13.4375 17.3145 13.6035L13.8477 17.0312L9.72656 21.5137L10.293 21.7188L10.4004 18.1641L10.4004 0.976562C10.4004 0.429688 10.0098 0.0390625 9.45312 0.0390625C8.89648 0.0390625 8.50586 0.429688 8.50586 0.976562L8.50586 18.1641L8.61328 21.7188L9.18945 21.5137L5.05859 17.0312L1.5918 13.6035C1.42578 13.4375 1.17188 13.3496 0.917969 13.3496C0.390625 13.3496 0 13.75 0 14.2773C0 14.5312 0.0878906 14.7559 0.292969 14.9707L8.74023 23.418C8.94531 23.623 9.18945 23.7402 9.45312 23.7402C9.7168 23.7402 9.96094 23.623 10.166 23.418L18.6133 14.9707C18.8184 14.7559 18.9062 14.5312 18.9062 14.2773ZM18.9062 24.6777C18.9062 24.1309 18.5254 23.7207 17.9785 23.7207L0.947266 23.7207C0.390625 23.7207 0 24.1309 0 24.6777C0 25.2344 0.390625 25.6348 0.947266 25.6348L17.9785 25.6348C18.5254 25.6348 18.9062 25.2344 18.9062 24.6777Z" fill="black" fill-opacity="0.85"/>
 </g>
</svg>
