<?xml version="1.0" encoding="UTF-8"?>
<!--Generator: Apple Native CoreSVG 326-->
<!DOCTYPE svg
PUBLIC "-//W3C//DTD SVG 1.1//EN"
       "http://www.w3.org/Graphics/SVG/1.1/DTD/svg11.dtd">
<svg version="1.1" xmlns="http://www.w3.org/2000/svg" xmlns:xlink="http://www.w3.org/1999/xlink" viewBox="0 0 23.3203 23.2715">
 <g>
  <rect height="23.2715" opacity="0" width="23.3203" x="0" y="0"/>
  <path d="M3.79883 22.959L19.1504 22.959C21.6797 22.959 22.959 21.6797 22.959 19.1895L22.959 3.75977C22.959 1.2793 21.6797 0 19.1504 0L3.79883 0C1.2793 0 0 1.25977 0 3.75977L0 19.1895C0 21.6895 1.2793 22.959 3.79883 22.959ZM3.83789 21.2207C2.4707 21.2207 1.72852 20.498 1.72852 19.1016L1.72852 3.85742C1.72852 2.45117 2.4707 1.72852 3.83789 1.72852L19.1211 1.72852C20.459 1.72852 21.2305 2.45117 21.2305 3.85742L21.2305 19.1016C21.2305 20.498 20.459 21.2207 19.1211 21.2207Z" fill="black" fill-opacity="0.85"/>
  <path d="M12.7344 5.14648C9.81445 5.14648 8.00781 7.24609 8.00781 10.1465L8.00781 14.1992L8.05664 15.6543L7.33398 14.7461L5.80078 13.1738C5.66406 13.0273 5.46875 12.9297 5.23438 12.9297C4.78516 12.9297 4.44336 13.2617 4.44336 13.7109C4.44336 13.9355 4.52148 14.1211 4.6875 14.2676L8.08594 17.6172C8.27148 17.8027 8.50586 17.9199 8.76953 17.9199C9.0332 17.9199 9.25781 17.8027 9.44336 17.6172L12.8711 14.2578C13.0273 14.1113 13.1055 13.9258 13.1055 13.7012C13.1055 13.2617 12.7637 12.9297 12.3145 12.9297C12.0996 12.9297 11.8945 13.0078 11.748 13.1641L10.0195 14.9512L9.48242 15.6543L9.53125 14.1992L9.53125 10.1465C9.53125 8.19336 10.6738 6.73828 12.6562 6.73828C14.6777 6.73828 15.9473 8.16406 15.9473 10.1562C15.9473 10.3516 15.9473 11.9238 15.9473 11.9824C15.9473 12.4414 16.2207 12.793 16.7188 12.793C17.2168 12.793 17.4902 12.4414 17.4902 11.9629C17.4902 11.8945 17.4902 10.3516 17.4902 10.1562C17.4902 7.25586 15.6543 5.14648 12.7344 5.14648Z" fill="black" fill-opacity="0.85"/>
 </g>
</svg>
