<?xml version="1.0" encoding="UTF-8"?>
<!--Generator: Apple Native CoreSVG 326-->
<!DOCTYPE svg
PUBLIC "-//W3C//DTD SVG 1.1//EN"
       "http://www.w3.org/Graphics/SVG/1.1/DTD/svg11.dtd">
<svg version="1.1" xmlns="http://www.w3.org/2000/svg" xmlns:xlink="http://www.w3.org/1999/xlink" viewBox="0 0 25.8008 25.459">
 <g>
  <rect height="25.459" opacity="0" width="25.8008" x="0" y="0"/>
  <path d="M25.4395 12.7246C25.4395 19.7266 19.7266 25.4395 12.7148 25.4395C5.71289 25.4395 0 19.7266 0 12.7246C0 5.71289 5.71289 0 12.7148 0C19.7266 0 25.4395 5.71289 25.4395 12.7246ZM10.752 7.79297L6.58203 12.0703C6.35742 12.2949 6.28906 12.4805 6.28906 12.7148C6.28906 12.9395 6.35742 13.125 6.58203 13.3496L10.752 17.6367C10.9082 17.8125 11.0938 17.9004 11.3379 17.9004C11.7773 17.9004 12.1094 17.5684 12.1094 17.1094C12.1094 16.8848 12.0215 16.6406 11.8457 16.4941L9.61914 14.3652L8.75 13.5352L10.6543 13.5938L18.3496 13.5938C18.8281 13.5938 19.2188 13.1934 19.2188 12.7148C19.2188 12.2266 18.8281 11.8262 18.3496 11.8262L10.6543 11.8262L8.75 11.8945L9.61914 11.0645L11.8457 8.93555C12.0215 8.78906 12.1094 8.55469 12.1094 8.33008C12.1094 7.88086 11.7773 7.5293 11.3379 7.5293C11.0938 7.5293 10.9082 7.61719 10.752 7.79297Z" fill="black" fill-opacity="0.85"/>
 </g>
</svg>
