<?xml version="1.0" encoding="UTF-8"?>
<!--Generator: Apple Native CoreSVG 326-->
<!DOCTYPE svg
PUBLIC "-//W3C//DTD SVG 1.1//EN"
       "http://www.w3.org/Graphics/SVG/1.1/DTD/svg11.dtd">
<svg version="1.1" xmlns="http://www.w3.org/2000/svg" xmlns:xlink="http://www.w3.org/1999/xlink" viewBox="0 0 23.4766 29.873">
 <g>
  <rect height="29.873" opacity="0" width="23.4766" x="0" y="0"/>
  <path d="M0 14.6777C0 15.2344 0.390625 15.6348 0.947266 15.6348L22.1973 15.6348C22.7344 15.6348 23.1152 15.2344 23.1152 14.6777C23.1152 14.1309 22.7344 13.7305 22.1973 13.7305L0.947266 13.7305C0.390625 13.7305 0 14.1309 0 14.6777Z" fill="black" fill-opacity="0.85"/>
  <path d="M11.5625 0C11.0059 0 10.6152 0.380859 10.6152 0.9375L10.6152 6.66016L10.6836 9.28711L7.17773 5.5957C6.99219 5.39062 6.73828 5.3125 6.47461 5.3125C5.9375 5.3125 5.54688 5.72266 5.54688 6.25C5.54688 6.5332 5.66406 6.76758 5.87891 6.99219L10.8496 11.9629C11.0547 12.1777 11.2988 12.2949 11.5625 12.2949C11.8262 12.2949 12.0801 12.1777 12.2754 11.9629L17.2559 6.99219C17.4707 6.76758 17.5879 6.5332 17.5879 6.25C17.5879 5.72266 17.1973 5.3125 16.6602 5.3125C16.3965 5.3125 16.1426 5.39062 15.957 5.5957L12.4512 9.28711L12.5195 6.66016L12.5195 0.9375C12.5195 0.380859 12.1191 0 11.5625 0ZM11.5625 29.3652C12.1191 29.3652 12.5195 28.9844 12.5195 28.4277L12.5195 22.7051L12.4512 20.0781L15.957 23.7695C16.1426 23.9746 16.3965 24.0527 16.6602 24.0527C17.1973 24.0527 17.5879 23.6426 17.5879 23.1152C17.5879 22.832 17.4707 22.5977 17.2559 22.373L12.2754 17.4023C12.0801 17.1875 11.8262 17.0703 11.5625 17.0703C11.2988 17.0703 11.0547 17.1875 10.8496 17.4023L5.87891 22.373C5.66406 22.5977 5.54688 22.832 5.54688 23.1152C5.54688 23.6426 5.9375 24.0527 6.47461 24.0527C6.73828 24.0527 6.99219 23.9746 7.17773 23.7695L10.6836 20.0781L10.6152 22.7051L10.6152 28.4277C10.6152 28.9844 11.0059 29.3652 11.5625 29.3652Z" fill="black" fill-opacity="0.85"/>
 </g>
</svg>
