<?xml version="1.0" ?><!-- Generator: Adobe Illustrator 25.0.0, SVG Export Plug-In . SVG Version: 6.00 Build 0)  --><svg xmlns="http://www.w3.org/2000/svg" xmlns:xlink="http://www.w3.org/1999/xlink" version="1.1" id="Layer_1" x="0px" y="0px" viewBox="0 0 512 512" style="enable-background:new 0 0 512 512;" xml:space="preserve">
<path d="M0.2,387.3c0,19.9,15.4,34.5,33.3,34.5c18,0,33-15.7,33-33V269.3L59.7,98.9l59.9,67.8l334.8,335.2  c6.7,6.7,15,10.1,23.2,10.1c18.4,0,34.1-16.9,34.1-34.5c0-7.9-3.4-16.1-10.1-22.8L166.9,119.5L99.1,59.6l178.3,6.7H389  c17.2,0,32.6-15,32.6-32.6s-13.5-33-34.1-33L35.4,0C13.7,0,0.2,14.2,0.2,35.6V387.3z"/>
</svg>