<?xml version="1.0" encoding="UTF-8"?>
<!--Generator: Apple Native CoreSVG 326-->
<!DOCTYPE svg
PUBLIC "-//W3C//DTD SVG 1.1//EN"
       "http://www.w3.org/Graphics/SVG/1.1/DTD/svg11.dtd">
<svg version="1.1" xmlns="http://www.w3.org/2000/svg" xmlns:xlink="http://www.w3.org/1999/xlink" viewBox="0 0 24.043 25.4395">
 <g>
  <rect height="25.4395" opacity="0" width="24.043" x="0" y="0"/>
  <path d="M23.6816 17.6172C23.6816 12.9199 20.4883 9.70703 15.0098 9.70703L5.76172 9.70703L2.08984 9.85352L2.27539 10.332L5.3125 7.64648L9.16992 3.86719C9.33594 3.70117 9.42383 3.48633 9.42383 3.20312C9.42383 2.66602 9.05273 2.26562 8.48633 2.26562C8.25195 2.26562 7.97852 2.38281 7.79297 2.56836L0.3125 9.95117C0.0976562 10.1562 0 10.3906 0 10.6543C0 10.9277 0.0976562 11.1621 0.3125 11.3672L7.79297 18.75C7.97852 18.9355 8.25195 19.0527 8.48633 19.0527C9.05273 19.0527 9.42383 18.6523 9.42383 18.1055C9.42383 17.832 9.33594 17.6172 9.16992 17.4512L5.3125 13.6719L2.27539 10.9863L2.08984 11.4648L5.76172 11.6113L15.1465 11.6113C19.4141 11.6113 21.7871 14.0234 21.7871 17.5195C21.7871 21.0156 19.4141 23.5449 15.1465 23.5449L11.8945 23.5449C11.3086 23.5449 10.9277 23.9746 10.9277 24.4922C10.9277 25.0195 11.3184 25.4395 11.9043 25.4395L15.166 25.4395C20.5566 25.4395 23.6816 22.3145 23.6816 17.6172Z" fill="black" fill-opacity="0.85"/>
 </g>
</svg>
