<?xml version="1.0" encoding="UTF-8"?>
<!--Generator: Apple Native CoreSVG 326-->
<!DOCTYPE svg
PUBLIC "-//W3C//DTD SVG 1.1//EN"
       "http://www.w3.org/Graphics/SVG/1.1/DTD/svg11.dtd">
<svg version="1.1" xmlns="http://www.w3.org/2000/svg" xmlns:xlink="http://www.w3.org/1999/xlink" viewBox="0 0 23.3203 22.959">
 <g>
  <rect height="22.959" opacity="0" width="23.3203" x="0" y="0"/>
  <path d="M3.79883 22.959L19.1504 22.959C21.6797 22.959 22.959 21.6797 22.959 19.1992L22.959 3.76953C22.959 1.2793 21.6797 0 19.1504 0L3.79883 0C1.2793 0 0 1.26953 0 3.76953L0 19.1992C0 21.6992 1.2793 22.959 3.79883 22.959ZM3.83789 21.2305C2.4707 21.2305 1.72852 20.5078 1.72852 19.1016L1.72852 3.85742C1.72852 2.46094 2.4707 1.72852 3.83789 1.72852L19.1211 1.72852C20.459 1.72852 21.2305 2.46094 21.2305 3.85742L21.2305 19.1016C21.2305 20.5078 20.459 21.2305 19.1211 21.2305Z" fill="black" fill-opacity="0.85"/>
  <path d="M17.8223 11.4648C17.8223 11.2402 17.7539 11.0547 17.5391 10.8398L13.4766 6.66016C13.3105 6.49414 13.1348 6.40625 12.9102 6.40625C12.4707 6.40625 12.1484 6.74805 12.1484 7.1875C12.1484 7.40234 12.2363 7.62695 12.4121 7.77344L14.5898 9.85352L15.4395 10.6738L13.5938 10.6055L6.05469 10.6055C5.5957 10.6055 5.21484 10.9961 5.21484 11.4648C5.21484 11.9238 5.5957 12.3145 6.05469 12.3145L13.5938 12.3145L15.4492 12.2559L14.5898 13.0762L12.4121 15.1562C12.2363 15.3027 12.1484 15.5371 12.1484 15.752C12.1484 16.1914 12.4707 16.5234 12.9102 16.5234C13.1348 16.5234 13.3105 16.4355 13.4766 16.2695L17.5391 12.0801C17.7539 11.8652 17.8223 11.6797 17.8223 11.4648Z" fill="black" fill-opacity="0.85"/>
 </g>
</svg>
