<?xml version="1.0" encoding="UTF-8"?>
<!--Generator: Apple Native CoreSVG 326-->
<!DOCTYPE svg
PUBLIC "-//W3C//DTD SVG 1.1//EN"
       "http://www.w3.org/Graphics/SVG/1.1/DTD/svg11.dtd">
<svg version="1.1" xmlns="http://www.w3.org/2000/svg" xmlns:xlink="http://www.w3.org/1999/xlink" viewBox="0 0 23.3203 22.959">
 <g>
  <rect height="22.959" opacity="0" width="23.3203" x="0" y="0"/>
  <path d="M22.959 3.76953L22.959 19.1992C22.959 21.6797 21.6797 22.959 19.1504 22.959L3.79883 22.959C1.2793 22.959 0 21.6992 0 19.1992L0 3.76953C0 1.26953 1.2793 0 3.79883 0L19.1504 0C21.6797 0 22.959 1.2793 22.959 3.76953ZM6.97266 5.37109L3.67188 8.71094C3.54492 8.86719 3.44727 9.07227 3.44727 9.24805C3.44727 9.6582 3.75977 9.9707 4.16992 9.9707C4.36523 9.9707 4.55078 9.88281 4.69727 9.73633L6.14258 8.26172L6.79688 7.56836L6.77734 8.32031L6.77734 17.0996C6.77734 17.5098 7.08984 17.8125 7.50977 17.8125C7.93945 17.8125 8.25195 17.5 8.25195 17.0996L8.25195 8.31055L8.21289 7.56836L8.86719 8.26172L10.3223 9.75586C10.459 9.89258 10.6543 9.9707 10.8496 9.9707C11.2598 9.9707 11.5625 9.66797 11.5625 9.24805C11.5625 9.05273 11.4746 8.84766 11.3379 8.71094L8.04688 5.37109C7.74414 5.07812 7.28516 5.05859 6.97266 5.37109ZM14.7266 5.86914L14.7266 14.6582L14.7559 15.3906L14.1016 14.6875L12.6562 13.2129C12.5098 13.0664 12.3242 12.998 12.1191 12.998C11.6992 12.998 11.4062 13.291 11.4062 13.7109C11.4062 13.9062 11.4844 14.0918 11.6211 14.2578L14.9219 17.5977C15.2051 17.8809 15.7129 17.8809 16.0059 17.5977L19.2871 14.2578C19.4238 14.1016 19.5312 13.9062 19.5312 13.7109C19.5312 13.3008 19.2285 12.998 18.7988 12.998C18.6035 12.998 18.418 13.0859 18.2715 13.2129L16.8262 14.6875L16.1719 15.3809L16.1914 14.6484L16.1914 5.86914C16.1914 5.44922 15.8789 5.14648 15.459 5.14648C15.0391 5.14648 14.7266 5.45898 14.7266 5.86914Z" fill="black" fill-opacity="0.85"/>
 </g>
</svg>
