<?xml version="1.0" ?><!-- Generator: Adobe Illustrator 25.0.0, SVG Export Plug-In . SVG Version: 6.00 Build 0)  --><svg xmlns="http://www.w3.org/2000/svg" xmlns:xlink="http://www.w3.org/1999/xlink" version="1.1" id="Layer_1" x="0px" y="0px" viewBox="0 0 512 512" style="enable-background:new 0 0 512 512;" xml:space="preserve">
<path d="M0,412.5c0,44.9,22.8,67.3,68.2,67.3h375.6c45.6,0,68.2-22.6,68.2-67.3V147.4c0-44.7-22.6-67.3-68.2-67.3h-152  c-9.6,0-17.6,7.8-17.6,17.4s8,17.6,17.6,17.6h151.6c21.5,0,33.7,11.5,33.7,34.1v261.6c0,22.6-12.2,34.1-33.7,34.1H68.6  c-21.7,0-33.7-11.5-33.7-34.1V149.1c0-22.6,11.9-34.1,33.7-34.1h55.2v32.1c0,15.4,10.6,19.5,22.6,11.1l69.3-48.6  c9.8-6.9,10-17.4,0-24.3l-69-48.6c-12.2-8.7-22.8-4.6-22.8,11.1v32.4H68.2C22.8,80.1,0,102.4,0,147.4V412.5z"/>
</svg>