<?xml version="1.0" encoding="UTF-8"?>
<!--Generator: Apple Native CoreSVG 326-->
<!DOCTYPE svg
PUBLIC "-//W3C//DTD SVG 1.1//EN"
       "http://www.w3.org/Graphics/SVG/1.1/DTD/svg11.dtd">
<svg version="1.1" xmlns="http://www.w3.org/2000/svg" xmlns:xlink="http://www.w3.org/1999/xlink" viewBox="0 0 25.8008 25.459">
 <g>
  <rect height="25.459" opacity="0" width="25.8008" x="0" y="0"/>
  <path d="M25.4395 12.7344C25.4395 19.7461 19.7266 25.459 12.7148 25.459C5.71289 25.459 0 19.7461 0 12.7344C0 5.73242 5.71289 0.0195312 12.7148 0.0195312C19.7266 0.0195312 25.4395 5.73242 25.4395 12.7344ZM11.9629 5.18555L6.66016 10.8301C6.39648 11.123 6.25 11.3672 6.25 11.6895C6.25 12.1289 6.5625 12.4414 7.01172 12.4414L9.9707 12.4414L9.9707 18.457C9.9707 19.4531 10.5273 20.0195 11.4941 20.0195L13.916 20.0195C14.8828 20.0195 15.4395 19.4531 15.4395 18.457L15.4395 12.4414L18.3887 12.4414C18.8184 12.4414 19.1797 12.1289 19.1797 11.6699C19.1797 11.3574 19.043 11.1523 18.7305 10.8301L13.4863 5.18555C13.1934 4.89258 12.9492 4.81445 12.7148 4.81445C12.4902 4.81445 12.2461 4.89258 11.9629 5.18555Z" fill="black" fill-opacity="0.85"/>
 </g>
</svg>
