<?xml version="1.0" encoding="UTF-8"?>
<!--Generator: Apple Native CoreSVG 326-->
<!DOCTYPE svg
PUBLIC "-//W3C//DTD SVG 1.1//EN"
       "http://www.w3.org/Graphics/SVG/1.1/DTD/svg11.dtd">
<svg version="1.1" xmlns="http://www.w3.org/2000/svg" xmlns:xlink="http://www.w3.org/1999/xlink" viewBox="0 0 23.2715 22.9199">
 <g>
  <rect height="22.9199" opacity="0" width="23.2715" x="0" y="0"/>
  <path d="M21.4844 1.44531C20.2637 0.234375 18.5742 0 16.3379 0L6.50391 0C4.3457 0 2.64648 0.234375 1.43555 1.44531C0.224609 2.65625 0 4.33594 0 6.50391L0 16.3379C0 18.584 0.214844 20.2637 1.42578 21.4648C2.64648 22.6758 4.33594 22.9102 6.57227 22.9102L16.3379 22.9102C18.5742 22.9102 20.2734 22.6758 21.4844 21.4648C22.6953 20.2539 22.9102 18.584 22.9102 16.3379L22.9102 6.5625C22.9102 4.32617 22.6953 2.64648 21.4844 1.44531ZM21.1816 6.2207L21.1816 16.6797C21.1816 18.1055 20.9766 19.4238 20.2148 20.1953C19.4434 20.9668 18.0957 21.1816 16.6797 21.1816L6.23047 21.1816C4.81445 21.1816 3.4668 20.957 2.69531 20.1953C1.93359 19.4238 1.72852 18.1055 1.72852 16.6797L1.72852 6.28906C1.72852 4.81445 1.93359 3.47656 2.69531 2.70508C3.45703 1.93359 4.82422 1.72852 6.28906 1.72852L16.6797 1.72852C18.0957 1.72852 19.4434 1.94336 20.2148 2.71484C20.9863 3.47656 21.1816 4.80469 21.1816 6.2207Z" fill="black" fill-opacity="0.85"/>
  <path d="M11.4746 17.7539C11.6895 17.7539 11.8848 17.6855 12.0898 17.4707L16.2695 13.4082C16.4355 13.2422 16.5234 13.0664 16.5234 12.8418C16.5234 12.4023 16.1816 12.0801 15.7422 12.0801C15.5371 12.0801 15.3125 12.168 15.1562 12.3438L13.0859 14.5215L12.2656 15.3711L12.3242 13.5254L12.3242 5.98633C12.3242 5.52734 11.9336 5.14648 11.4746 5.14648C11.0059 5.14648 10.6152 5.52734 10.6152 5.98633L10.6152 13.5254L10.6836 15.3809L9.85352 14.5215L7.7832 12.3438C7.62695 12.168 7.39258 12.0801 7.1875 12.0801C6.73828 12.0801 6.41602 12.4023 6.41602 12.8418C6.41602 13.0664 6.50391 13.2422 6.66992 13.4082L10.8496 17.4707C11.0645 17.6855 11.25 17.7539 11.4746 17.7539Z" fill="black" fill-opacity="0.85"/>
 </g>
</svg>
