<?xml version="1.0" encoding="UTF-8"?>
<!--Generator: Apple Native CoreSVG 326-->
<!DOCTYPE svg
PUBLIC "-//W3C//DTD SVG 1.1//EN"
       "http://www.w3.org/Graphics/SVG/1.1/DTD/svg11.dtd">
<svg version="1.1" xmlns="http://www.w3.org/2000/svg" xmlns:xlink="http://www.w3.org/1999/xlink" viewBox="0 0 32.3242 20.4199">
 <g>
  <rect height="20.4199" opacity="0" width="32.3242" x="0" y="0"/>
  <path d="M23.3008 4.00391L23.3008 16.3965C23.3008 18.9551 21.8066 20.4102 19.2383 20.4102L5.57617 20.4102C3.00781 20.4102 1.51367 18.9551 1.51367 16.3965L1.51367 4.00391C1.51367 1.45508 3.0957 0 5.57617 0L19.3359 0C21.9043 0 23.3008 1.45508 23.3008 4.00391ZM32.3242 3.66211L32.3242 16.7383C32.3242 17.7441 31.7188 18.4082 30.8008 18.4082C30.332 18.4082 29.8633 18.1738 29.4238 17.8027L24.8535 13.916L24.8535 6.47461L29.4238 2.60742C29.8633 2.23633 30.332 2.00195 30.8008 2.00195C31.7188 2.00195 32.3242 2.66602 32.3242 3.66211ZM16.1914 5.36133L10.6152 10.9473L8.60352 13.0957L8.79883 9.43359L8.79883 7.29492C8.79883 6.86523 8.48633 6.50391 8.04688 6.50391C7.57812 6.50391 7.2168 6.8457 7.2168 7.29492L7.2168 14.6094C7.2168 15.1953 7.5 15.4883 8.0957 15.4883L15.4492 15.4883C15.8984 15.4883 16.25 15.1172 16.25 14.6582C16.25 14.2188 15.8887 13.8965 15.4492 13.8965L13.2617 13.8965L9.58984 14.1016L11.7676 12.0898L17.334 6.51367C17.5195 6.31836 17.6074 6.12305 17.6074 5.88867C17.6074 5.43945 17.2559 5.10742 16.7773 5.10742C16.5234 5.10742 16.3574 5.19531 16.1914 5.36133Z" fill="black" fill-opacity="0.85"/>
 </g>
</svg>
