<?xml version="1.0" encoding="UTF-8"?>
<!--Generator: Apple Native CoreSVG 326-->
<!DOCTYPE svg
PUBLIC "-//W3C//DTD SVG 1.1//EN"
       "http://www.w3.org/Graphics/SVG/1.1/DTD/svg11.dtd">
<svg version="1.1" xmlns="http://www.w3.org/2000/svg" xmlns:xlink="http://www.w3.org/1999/xlink" viewBox="0 0 23.3203 22.959">
 <g>
  <rect height="22.959" opacity="0" width="23.3203" x="0" y="0"/>
  <path d="M22.959 3.76953L22.959 19.1992C22.959 21.6797 21.6797 22.959 19.1504 22.959L3.79883 22.959C1.2793 22.959 0 21.6992 0 19.1992L0 3.76953C0 1.26953 1.2793 0 3.79883 0L19.1504 0C21.6797 0 22.959 1.2793 22.959 3.76953ZM14.9707 6.78711L9.72656 12.0312L8.00781 13.8574L8.1543 11.7773L8.1543 9.17969C8.1543 8.64258 7.83203 8.31055 7.33398 8.31055C6.8457 8.31055 6.52344 8.67188 6.52344 9.19922L6.52344 15.498C6.52344 16.1426 6.875 16.416 7.44141 16.416L13.7695 16.416C14.2969 16.416 14.6289 16.0938 14.6289 15.5957C14.6289 15.1074 14.2871 14.7852 13.75 14.7852L10.9473 14.7852L9.0625 14.9414L10.9082 13.2031L16.1621 7.95898C16.3281 7.79297 16.4355 7.57812 16.4355 7.35352C16.4355 6.8457 16.1035 6.52344 15.6152 6.52344C15.3418 6.52344 15.127 6.62109 14.9707 6.78711Z" fill="black" fill-opacity="0.85"/>
 </g>
</svg>
