<?xml version="1.0" ?><!-- Generator: Adobe Illustrator 25.0.0, SVG Export Plug-In . SVG Version: 6.00 Build 0)  --><svg xmlns="http://www.w3.org/2000/svg" xmlns:xlink="http://www.w3.org/1999/xlink" version="1.1" id="Layer_1" x="0px" y="0px" viewBox="0 0 512 512" style="enable-background:new 0 0 512 512;" xml:space="preserve">
<path d="M232,473.8c16.1,0,27.8-11.9,27.8-27.8v-90.7h6.9c92.1,0,150.1,23.3,191.6,100.9c8.3,15.2,19.2,17.6,29.2,17.6  c12.6,0,24.5-11.4,24.5-31.8c0-175.5-74.3-285-245.3-285h-6.9V67.2c0-15.9-11.6-29-28.3-29c-11.6,0-19.5,5-32.1,16.9L12.1,230.4  C2.8,239.1,0,247.9,0,256c0,7.8,3.1,16.9,12.1,25.4l187.4,176.9C210.9,469,220.4,473.8,232,473.8z M218.5,422.7  c-1.4,0-2.9-0.7-4-2.1L45.1,260.5c-1.9-1.9-2.6-3.1-2.6-4.5c0-1.4,0.7-2.8,2.6-4.5L214.2,89.3c1.2-1,2.6-1.9,4-1.9  c2.1,0,3.3,1.4,3.3,3.3V185c0,5.5,2.6,7.8,8.1,7.8h31.8c162.9,0,212.1,113,216.8,225.1c0,1.9-0.7,2.6-1.9,2.6  c-0.9,0-1.4-0.7-2.1-2.4c-28-59.6-100-98.8-212.8-98.8h-31.8c-5.5,0-8.1,2.4-8.1,7.8v91.9C221.6,421.3,220.4,422.7,218.5,422.7z"/>
</svg>