<?xml version="1.0" encoding="UTF-8"?>
<!--Generator: Apple Native CoreSVG 326-->
<!DOCTYPE svg
PUBLIC "-//W3C//DTD SVG 1.1//EN"
       "http://www.w3.org/Graphics/SVG/1.1/DTD/svg11.dtd">
<svg version="1.1" xmlns="http://www.w3.org/2000/svg" xmlns:xlink="http://www.w3.org/1999/xlink" viewBox="0 0 23.3203 22.959">
 <g>
  <rect height="22.959" opacity="0" width="23.3203" x="0" y="0"/>
  <path d="M3.79883 22.959L19.1504 22.959C21.6797 22.959 22.959 21.6797 22.959 19.1992L22.959 3.76953C22.959 1.2793 21.6797 0 19.1504 0L3.79883 0C1.2793 0 0 1.26953 0 3.76953L0 19.1992C0 21.6992 1.2793 22.959 3.79883 22.959ZM3.83789 21.2305C2.4707 21.2305 1.72852 20.5078 1.72852 19.1016L1.72852 3.85742C1.72852 2.46094 2.4707 1.72852 3.83789 1.72852L19.1211 1.72852C20.459 1.72852 21.2305 2.46094 21.2305 3.85742L21.2305 19.1016C21.2305 20.5078 20.459 21.2305 19.1211 21.2305Z" fill="black" fill-opacity="0.85"/>
  <path d="M11.4746 18.7402C11.8945 18.7402 12.1973 18.4375 12.1973 18.0078L12.1973 11.9141L12.0898 9.59961L14.2969 12.0508L15.3516 13.1055C15.5078 13.2617 15.6934 13.3301 15.8984 13.3301C16.3184 13.3301 16.6016 13.0176 16.6016 12.6172C16.6016 12.4023 16.5234 12.2168 16.3477 12.041L12.0215 7.67578C11.8652 7.51953 11.6699 7.42188 11.4746 7.42188C11.2793 7.42188 11.084 7.50977 10.9277 7.67578L6.60156 12.0605C6.46484 12.207 6.36719 12.4316 6.36719 12.6172C6.36719 13.0371 6.65039 13.3301 7.08008 13.3301C7.30469 13.3301 7.48047 13.2617 7.62695 13.1055L8.54492 12.1191L10.8594 9.58984L10.7422 11.9141L10.7422 18.0078C10.7422 18.4375 11.0352 18.7402 11.4746 18.7402ZM6.76758 6.38672L16.2012 6.38672C16.6309 6.38672 16.9238 6.07422 16.9238 5.66406C16.9238 5.23438 16.6309 4.93164 16.2012 4.93164L6.76758 4.93164C6.33789 4.93164 6.04492 5.23438 6.04492 5.66406C6.04492 6.07422 6.33789 6.38672 6.76758 6.38672Z" fill="black" fill-opacity="0.85"/>
 </g>
</svg>
