<?xml version="1.0" encoding="UTF-8"?>
<!--Generator: Apple Native CoreSVG 326-->
<!DOCTYPE svg
PUBLIC "-//W3C//DTD SVG 1.1//EN"
       "http://www.w3.org/Graphics/SVG/1.1/DTD/svg11.dtd">
<svg version="1.1" xmlns="http://www.w3.org/2000/svg" xmlns:xlink="http://www.w3.org/1999/xlink" viewBox="0 0 25.8008 25.459">
 <g>
  <rect height="25.459" opacity="0" width="25.8008" x="0" y="0"/>
  <path d="M25.4395 12.7344C25.4395 19.7461 19.7266 25.459 12.7148 25.459C5.71289 25.459 0 19.7461 0 12.7344C0 5.73242 5.71289 0.0195312 12.7148 0.0195312C19.7266 0.0195312 25.4395 5.73242 25.4395 12.7344ZM8.93555 6.09375L3.50586 11.1719C3.21289 11.4453 3.14453 11.6699 3.14453 11.9043C3.14453 12.1191 3.21289 12.3535 3.50586 12.627L8.93555 17.7148C9.23828 17.9883 9.45312 18.1348 9.76562 18.1348C10.1953 18.1348 10.4785 17.8516 10.4785 17.5586L10.4785 17.002L6.37695 13.2227C5.9375 12.8223 5.72266 12.373 5.72266 11.9043C5.72266 11.4258 5.9375 10.9766 6.37695 10.5762L10.4785 6.79688L10.4785 6.25977C10.4785 5.94727 10.1953 5.66406 9.75586 5.66406C9.44336 5.66406 9.24805 5.81055 8.93555 6.09375ZM12.3828 6.09375L6.95312 11.1719C6.66016 11.4551 6.5918 11.6699 6.5918 11.9043C6.5918 12.1191 6.66016 12.3438 6.95312 12.627L12.3828 17.7148C12.6758 17.9883 12.9199 18.1348 13.2129 18.1348C13.623 18.1348 13.9258 17.8223 13.9258 17.3828L13.9258 14.6777L14.1504 14.6777C16.9727 14.6777 18.7402 15.4004 19.8438 17.6562C20.0391 18.0371 20.3223 18.1348 20.6055 18.1348C20.957 18.1348 21.2305 17.832 21.2305 17.3047C21.2305 12.0996 18.916 9.15039 14.1504 9.15039L13.9258 9.15039L13.9258 6.43555C13.9258 6.01562 13.623 5.66406 13.2031 5.66406C12.9004 5.66406 12.6953 5.81055 12.3828 6.09375Z" fill="black" fill-opacity="0.85"/>
 </g>
</svg>
