<?xml version="1.0" ?><!-- Generator: Adobe Illustrator 25.0.0, SVG Export Plug-In . SVG Version: 6.00 Build 0)  --><svg xmlns="http://www.w3.org/2000/svg" xmlns:xlink="http://www.w3.org/1999/xlink" version="1.1" id="Layer_1" x="0px" y="0px" viewBox="0 0 512 512" style="enable-background:new 0 0 512 512;" xml:space="preserve">
<path d="M256,512c140,0,256-116.2,256-256C512,116,395.8,0,255.7,0C116,0,0,116,0,256C0,395.8,116.2,512,256,512z M256,469.3  c-118.5,0-213.1-94.9-213.1-213.3S137.3,42.7,255.7,42.7S469.1,137.5,469.3,256S374.5,469.3,256,469.3z M144.8,252.7h87.1  c13.1,0,20.6-5.8,20.6-20.6v-87.3c0-9.8-7.8-17.8-17.6-17.8c-9.8,0-17.8,8-17.8,17.8v12l2.8,39.9l-65.5-68.3  c-7.3-7.5-19.3-7.5-26.6-0.3c-7.3,7.3-7,19.6,0.3,26.6l67.8,65.3l-38.4-2.5l-12.5-0.3c-9.8,0-17.6,8-17.6,17.8  C127.2,245,135,252.7,144.8,252.7z M276.6,385c9.8,0,17.6-8,17.6-17.8v-12l-2.5-39.9l65.5,68.3c7.3,7.5,19.3,7.5,26.6,0.3  c7.3-7.3,7-19.6-0.3-26.6l-67.8-65.3l38.4,2.5l12.3,0.3c9.8,0,17.8-8,17.8-17.8s-8-17.6-17.8-17.6h-86.8c-13.1,0-20.8,5.8-20.8,20.6  v87.3C258.8,377,266.8,385,276.6,385z"/>
</svg>