<?xml version="1.0" encoding="UTF-8"?>
<!--Generator: Apple Native CoreSVG 326-->
<!DOCTYPE svg
PUBLIC "-//W3C//DTD SVG 1.1//EN"
       "http://www.w3.org/Graphics/SVG/1.1/DTD/svg11.dtd">
<svg version="1.1" xmlns="http://www.w3.org/2000/svg" xmlns:xlink="http://www.w3.org/1999/xlink" viewBox="0 0 13.7422 25.105">
 <g>
  <rect height="25.105" opacity="0" width="13.7422" x="0" y="0"/>
  <path d="M3.64357 24.1492C4.23927 24.1492 4.5713 23.8074 4.5713 23.1921L4.5713 13.1531L3.77052 13.1531C4.79591 16.3757 8.01857 18.9734 12.0518 20.2234C12.6572 20.4382 13.1455 20.1257 13.3115 19.7058C13.4873 19.2859 13.3506 18.7586 12.7354 18.4949C8.18458 16.8152 4.5713 13.6218 4.5713 9.12965L4.5713 4.01246L2.71583 4.01246L2.71583 23.1921C2.71583 23.8074 3.04787 24.1492 3.64357 24.1492ZM0.801772 5.52613L6.48537 5.52613C7.27638 5.52613 7.49123 4.97926 7.05177 4.35426L4.27833 0.399178C3.91701-0.128165 3.3799-0.137931 3.0088 0.399178L0.235366 4.34449C-0.223619 4.97926 0.000990731 5.52613 0.801772 5.52613Z" fill="black" fill-opacity="0.85"/>
 </g>
</svg>
