<?xml version="1.0" encoding="UTF-8"?>
<!--Generator: Apple Native CoreSVG 326-->
<!DOCTYPE svg
PUBLIC "-//W3C//DTD SVG 1.1//EN"
       "http://www.w3.org/Graphics/SVG/1.1/DTD/svg11.dtd">
<svg version="1.1" xmlns="http://www.w3.org/2000/svg" xmlns:xlink="http://www.w3.org/1999/xlink" viewBox="0 0 25.8008 25.459">
 <g>
  <rect height="25.459" opacity="0" width="25.8008" x="0" y="0"/>
  <path d="M12.7148 25.4395C19.7363 25.4395 25.4395 19.7461 25.4395 12.7246C25.4395 5.70312 19.7363 0 12.7148 0C5.69336 0 0 5.70312 0 12.7246C0 19.7461 5.69336 25.4395 12.7148 25.4395ZM12.7148 23.623C6.68945 23.623 1.81641 18.75 1.81641 12.7246C1.81641 6.69922 6.68945 1.82617 12.7148 1.82617C18.7402 1.82617 23.6133 6.69922 23.6133 12.7246C23.6133 18.75 18.7402 23.623 12.7148 23.623Z" fill="black" fill-opacity="0.85"/>
  <path d="M19.0527 12.7148C19.0527 12.4902 18.9746 12.3047 18.7598 12.0898L14.6973 7.91016C14.5312 7.74414 14.3652 7.65625 14.1309 7.65625C13.6914 7.65625 13.3691 7.99805 13.3691 8.4375C13.3691 8.65234 13.457 8.87695 13.6328 9.02344L15.8105 11.1035L16.6602 11.9238L14.8145 11.8555L7.27539 11.8555C6.81641 11.8555 6.43555 12.2461 6.43555 12.7148C6.43555 13.1738 6.81641 13.5645 7.27539 13.5645L14.8145 13.5645L16.6699 13.5059L15.8105 14.3262L13.6328 16.4062C13.457 16.5527 13.3691 16.7871 13.3691 17.002C13.3691 17.4414 13.6914 17.7734 14.1309 17.7734C14.3652 17.7734 14.5312 17.6855 14.6973 17.5195L18.7598 13.3301C18.9746 13.1152 19.0527 12.9297 19.0527 12.7148Z" fill="black" fill-opacity="0.85"/>
 </g>
</svg>
