<?xml version="1.0" encoding="UTF-8"?>
<!--Generator: Apple Native CoreSVG 326-->
<!DOCTYPE svg
PUBLIC "-//W3C//DTD SVG 1.1//EN"
       "http://www.w3.org/Graphics/SVG/1.1/DTD/svg11.dtd">
<svg version="1.1" xmlns="http://www.w3.org/2000/svg" xmlns:xlink="http://www.w3.org/1999/xlink" viewBox="0 0 23.5352 23.916">
 <g>
  <rect height="23.916" opacity="0" width="23.5352" x="0" y="0"/>
  <path d="M15.3418 0C10.6543 0 7.44141 3.19336 7.44141 8.67188L7.44141 18.0371L7.57812 21.709L8.05664 21.5234L5.38086 18.4863L1.5918 14.6289C1.42578 14.4629 1.21094 14.375 0.9375 14.375C0.390625 14.375 0 14.7461 0 15.3125C0 15.5469 0.107422 15.8203 0.292969 16.0059L7.67578 23.4863C7.88086 23.7012 8.125 23.7988 8.38867 23.7988C8.65234 23.7988 8.89648 23.7012 9.10156 23.4863L16.4844 16.0059C16.6699 15.8203 16.7773 15.5469 16.7773 15.3125C16.7773 14.7461 16.3867 14.375 15.8398 14.375C15.5664 14.375 15.3516 14.4629 15.1855 14.6289L11.3965 18.4863L8.7207 21.5234L9.19922 21.709L9.33594 18.0371L9.33594 8.53516C9.33594 4.26758 11.748 1.89453 15.2441 1.89453C18.7402 1.89453 21.2793 4.26758 21.2793 8.53516L21.2793 11.7871C21.2793 12.373 21.6992 12.7539 22.2266 12.7539C22.7441 12.7539 23.1738 12.3633 23.1738 11.7773L23.1738 8.51562C23.1738 3.125 20.0391 0 15.3418 0Z" fill="black" fill-opacity="0.85"/>
 </g>
</svg>
