<?xml version="1.0" encoding="UTF-8"?>
<!--Generator: Apple Native CoreSVG 326-->
<!DOCTYPE svg
PUBLIC "-//W3C//DTD SVG 1.1//EN"
       "http://www.w3.org/Graphics/SVG/1.1/DTD/svg11.dtd">
<svg version="1.1" xmlns="http://www.w3.org/2000/svg" xmlns:xlink="http://www.w3.org/1999/xlink" viewBox="0 0 33.3594 26.2402">
 <g>
  <rect height="26.2402" opacity="0" width="33.3594" x="0" y="0"/>
  <path d="M17.3438 22.998C17.3438 24.9707 18.6328 26.2207 20.6738 26.2207L29.668 26.2207C31.709 26.2207 32.998 24.9707 32.998 22.998L32.998 3.22266C32.998 1.25 31.709 0 29.668 0L20.6738 0C18.6328 0 17.3438 1.25 17.3438 3.22266ZM19.0723 22.7441L19.0723 3.47656C19.0723 2.33398 19.6973 1.72852 20.8789 1.72852L29.4629 1.72852C30.6445 1.72852 31.2695 2.33398 31.2695 3.47656L31.2695 22.7441C31.2695 23.8867 30.6445 24.4922 29.4629 24.4922L20.8789 24.4922C19.6973 24.4922 19.0723 23.8867 19.0723 22.7441Z" fill="black" fill-opacity="0.85"/>
  <path d="M0.947266 23.0566C1.50391 23.0566 1.89453 22.666 1.89453 22.1191L1.89453 20.1758C1.89453 15.7031 4.61914 14.0527 8.31055 14.0527L9.45312 14.0527L12.793 13.9453L12.793 13.3887L9.50195 16.416L8.07617 17.6953C7.83203 17.8906 7.76367 18.1641 7.76367 18.418C7.76367 18.9453 8.17383 19.3359 8.70117 19.3359C8.95508 19.3359 9.18945 19.2383 9.44336 18.9941L14.6094 13.8184C14.8145 13.623 14.9316 13.3789 14.9316 13.1152C14.9316 12.8516 14.8145 12.6074 14.6094 12.4023L9.39453 7.1875C9.17969 6.98242 8.95508 6.88477 8.70117 6.88477C8.17383 6.88477 7.76367 7.28516 7.76367 7.8125C7.76367 8.06641 7.8418 8.33984 8.07617 8.53516L9.50195 9.80469L12.793 12.8418L12.793 12.2754L9.45312 12.1777L8.31055 12.1777C3.90625 12.1777 0 14.3066 0 20.1758L0 22.1191C0 22.666 0.390625 23.0566 0.947266 23.0566Z" fill="black" fill-opacity="0.85"/>
 </g>
</svg>
