<?xml version="1.0" encoding="UTF-8"?>
<!--Generator: Apple Native CoreSVG 326-->
<!DOCTYPE svg
PUBLIC "-//W3C//DTD SVG 1.1//EN"
       "http://www.w3.org/Graphics/SVG/1.1/DTD/svg11.dtd">
<svg version="1.1" xmlns="http://www.w3.org/2000/svg" xmlns:xlink="http://www.w3.org/1999/xlink" viewBox="0 0 23.3203 22.959">
 <g>
  <rect height="22.959" opacity="0" width="23.3203" x="0" y="0"/>
  <path d="M22.959 3.76953L22.959 19.1992C22.959 21.6797 21.6797 22.959 19.1504 22.959L3.79883 22.959C1.2793 22.959 0 21.6992 0 19.1992L0 3.76953C0 1.26953 1.2793 0 3.79883 0L19.1504 0C21.6797 0 22.959 1.2793 22.959 3.76953ZM9.52148 6.54297L5.35156 10.8203C5.12695 11.0449 5.05859 11.2305 5.05859 11.4648C5.05859 11.6895 5.12695 11.875 5.35156 12.0996L9.52148 16.3867C9.67773 16.5625 9.86328 16.6504 10.0977 16.6504C10.5469 16.6504 10.8789 16.3184 10.8789 15.8594C10.8789 15.6348 10.791 15.3906 10.6152 15.2441L8.38867 13.1152L7.51953 12.2852L9.42383 12.3438L17.1191 12.3438C17.5977 12.3438 17.9883 11.9434 17.9883 11.4648C17.9883 10.9766 17.5977 10.5762 17.1191 10.5762L9.42383 10.5762L7.51953 10.6445L8.38867 9.81445L10.6152 7.68555C10.791 7.53906 10.8789 7.30469 10.8789 7.08008C10.8789 6.63086 10.5469 6.2793 10.0977 6.2793C9.86328 6.2793 9.67773 6.36719 9.52148 6.54297Z" fill="black" fill-opacity="0.85"/>
 </g>
</svg>
