<?xml version="1.0" ?><!-- Generator: Adobe Illustrator 25.0.0, SVG Export Plug-In . SVG Version: 6.00 Build 0)  --><svg xmlns="http://www.w3.org/2000/svg" xmlns:xlink="http://www.w3.org/1999/xlink" version="1.1" id="Layer_1" x="0px" y="0px" viewBox="0 0 512 512" style="enable-background:new 0 0 512 512;" xml:space="preserve">
<path d="M256,512c140,0,256-116.2,256-256C512,116,395.8,0,255.7,0C116,0,0,116,0,256C0,395.8,116.2,512,256,512z M256,469.3  c-118.5,0-213.1-94.9-213.1-213.3S137.3,42.7,255.7,42.7S469.1,137.5,469.3,256S374.5,469.3,256,469.3z M384.8,255.7  c0-5.3-2-9.5-7-14.6l-84.8-85.1c-3.3-3.3-7.8-5-13.1-5c-10.3,0-18.1,7.8-18.1,18.1c0,5.5,2.3,10,5.5,13.3l31.4,31.1l30.4,25.3l-53-2  h-131c-10.8,0-18.8,8-18.8,18.8s8,18.8,18.8,18.8h131l53-2l-30.4,25.6L267.3,329c-3.5,3.5-5.5,8-5.5,13.6c0,10,7.8,18.3,18.1,18.3  c5.3,0,9.8-2,13.1-5.3l84.8-85.1C382.5,265.8,384.8,261.5,384.8,255.7z"/>
</svg>