<?xml version="1.0" ?><!-- Generator: Adobe Illustrator 25.0.0, SVG Export Plug-In . SVG Version: 6.00 Build 0)  --><svg xmlns="http://www.w3.org/2000/svg" xmlns:xlink="http://www.w3.org/1999/xlink" version="1.1" id="Layer_1" x="0px" y="0px" viewBox="0 0 512 512" style="enable-background:new 0 0 512 512;" xml:space="preserve">
<path d="M192.7,512c14.8,0,23.1-8.7,23.1-23.8V322.5c30.2,45.8,83.5,82.9,149.7,104.9c15.1,5.6,27.3-2.1,31.5-12.5  c4.8-10.3,1.3-23.3-13.8-30.2C285,344.5,215.8,282,215.8,185.8v-64.7h37.6c18.8,0,23.6-13,13.5-27.6L207.6,9  c-8.5-11.9-21.2-12.2-29.9,0l-59.4,84.3c-10.3,14.8-5.6,27.8,13.5,27.8h37.6v367C169.4,503.3,177.6,512,192.7,512z"/>
</svg>