<?xml version="1.0" ?><!-- Generator: Adobe Illustrator 25.0.0, SVG Export Plug-In . SVG Version: 6.00 Build 0)  --><svg xmlns="http://www.w3.org/2000/svg" xmlns:xlink="http://www.w3.org/1999/xlink" version="1.1" id="Layer_1" x="0px" y="0px" viewBox="0 0 512 512" style="enable-background:new 0 0 512 512;" xml:space="preserve">
<path d="M256,512c140,0,256-116.2,256-256C512,116,395.8,0,255.7,0C116,0,0,116,0,256C0,395.8,116.2,512,256,512z M256,469.3  c-118.5,0-213.1-94.9-213.1-213.3S137.3,42.7,255.7,42.7S469.1,137.5,469.3,256S374.5,469.3,256,469.3z M265,359.4  c8.5,0,15.1-6.5,15.1-15.8v-49.9h4c50.9,0,83.8,13.1,105.9,56c4.3,8,10.3,9.8,16.1,9.8c7.3,0,13.3-6.5,13.3-17.6  c0-97.1-41.7-156.9-135.3-156.9h-4v-49.7c0-8.8-6.5-16.3-15.3-16.3c-6.3,0-10.5,3-17.3,9.3l-103.4,96.9c-5.3,5-7,9.5-7,14.1  c0,4.3,1.8,9,7,14.1l103.4,97.1C253.7,356.6,259,359.4,265,359.4z M198.8,359.4c9,0,15.3-5.8,15.3-11.5v-6.3l-82.6-76  c-8-7.5-12.3-16.6-12.3-26.4c0-9.8,4-18.8,12.3-26.6l82.6-75.5v-6c0-6.3-6.3-12-15.6-12c-6.3,0-10.5,2.8-17.3,9.3L77.6,225.1  c-5,4.8-6.5,9.5-6.5,14.1c0,4.3,1.5,9.3,6.5,14.1l103.7,97.1C187.7,356.4,192.5,359.4,198.8,359.4z"/>
</svg>