<?xml version="1.0" encoding="UTF-8"?>
<!--Generator: Apple Native CoreSVG 326-->
<!DOCTYPE svg
PUBLIC "-//W3C//DTD SVG 1.1//EN"
       "http://www.w3.org/Graphics/SVG/1.1/DTD/svg11.dtd">
<svg version="1.1" xmlns="http://www.w3.org/2000/svg" xmlns:xlink="http://www.w3.org/1999/xlink" viewBox="0 0 34.1309 22.8223">
 <g>
  <rect height="22.8223" opacity="0" width="34.1309" x="0" y="0"/>
  <path d="M13.4668 1.40625L13.4668 3.83464L11.7383 5.44759L11.7383 2.39258C11.7383 2.28516 11.6602 2.20703 11.543 2.20703C11.4453 2.20703 11.3672 2.26562 11.2988 2.32422L2.12891 11.0547C1.98242 11.1914 1.92383 11.2988 1.92383 11.4062C1.92383 11.5137 1.97266 11.6113 2.12891 11.7578L11.3086 20.4004C11.3965 20.4883 11.4746 20.5176 11.5527 20.5176C11.6602 20.5176 11.7383 20.4395 11.7383 20.3223L11.7383 17.3794L13.4668 19.0042L13.4668 21.4648C13.4668 22.2363 12.9199 22.8027 12.1387 22.8027C11.582 22.8027 11.123 22.5684 10.5957 22.0703L0.664062 12.7344C0.146484 12.2461 0 11.7969 0 11.4062C0 10.9961 0.146484 10.5566 0.664062 10.0586L10.5957 0.791016C11.1719 0.253906 11.5625 0 12.1191 0C12.9199 0 13.4668 0.634766 13.4668 1.40625Z" fill="black" fill-opacity="0.85"/>
  <path d="M18.2715 22.8027C19.0527 22.8027 19.5996 22.2363 19.5996 21.4648L19.5996 16.5137L20.0098 16.5137C25.127 16.5137 28.3105 17.832 30.4004 21.9238C30.7812 22.666 31.2891 22.8027 31.7871 22.8027C32.4023 22.8027 32.9688 22.2656 32.9688 21.2988C32.9688 11.7871 28.75 6.33789 20.0098 6.33789L19.5996 6.33789L19.5996 1.40625C19.5996 0.634766 19.0527 0 18.252 0C17.6855 0 17.3047 0.253906 16.7285 0.791016L6.79688 10.0586C6.2793 10.5566 6.13281 10.9961 6.13281 11.4062C6.13281 11.7969 6.2793 12.2461 6.79688 12.7344L16.7285 22.0703C17.2559 22.5684 17.7051 22.8027 18.2715 22.8027ZM17.6758 20.5176C17.6074 20.5176 17.5293 20.4883 17.4316 20.4004L8.26172 11.7578C8.10547 11.6113 8.05664 11.5137 8.05664 11.4062C8.05664 11.2988 8.10547 11.1914 8.26172 11.0547L17.4316 2.32422C17.5 2.26562 17.5781 2.20703 17.6758 2.20703C17.793 2.20703 17.8613 2.28516 17.8613 2.39258L17.8613 7.56836C17.8613 7.8418 17.9883 7.96875 18.2715 7.96875L19.7754 7.96875C28.1738 7.96875 31.2305 13.5742 31.4355 20.3027C31.4355 20.4004 31.3965 20.459 31.3184 20.459C31.25 20.459 31.2109 20.3906 31.1719 20.2832C29.6387 16.8945 25.8203 14.8828 19.7754 14.8828L18.2715 14.8828C17.9883 14.8828 17.8613 15 17.8613 15.2832L17.8613 20.3223C17.8613 20.4395 17.793 20.5176 17.6758 20.5176Z" fill="black" fill-opacity="0.85"/>
 </g>
</svg>
