<?xml version="1.0" ?><!-- Generator: Adobe Illustrator 25.0.0, SVG Export Plug-In . SVG Version: 6.00 Build 0)  --><svg xmlns="http://www.w3.org/2000/svg" xmlns:xlink="http://www.w3.org/1999/xlink" version="1.1" id="Layer_1" x="0px" y="0px" viewBox="0 0 512 512" style="enable-background:new 0 0 512 512;" xml:space="preserve">
<path d="M256,512c140,0,256-116,256-256C512,116.2,395.8,0,255.7,0C116,0,0,116.2,0,256C0,396,116.2,512,256,512z M219.6,389.8  c-62.2,0-101.1-45.2-101.1-105.9v-35.4c0-11.3,6.8-20.1,18.8-20.1c11.8,0,18.3,8.8,18.3,19.6v35.9c0,39.2,25.3,67.5,66,67.5  c39.9,0,61.7-29.1,61.7-67.3v-76.8l1-30.9l-11,15.1l-30.9,32.4c-3.8,3.8-8.5,5.5-13.6,5.5c-10.8,0-19.1-8-19.1-18.3  c0-5.5,1.8-9.8,5.5-13.3l70.5-69.3c4.3-4,9.8-6.8,15.8-6.8c5.8,0,11.5,2.8,15.8,6.8l69.8,69c4,3.5,5.8,7.8,5.8,13.3  c0,10.5-8.3,18.6-19.1,18.6c-5.3,0-10-2.3-13.3-5.8L334.8,197l-16.1-20.6l1,30.9v76.8C319.7,344.8,282.1,389.8,219.6,389.8z"/>
</svg>