<?xml version="1.0" encoding="UTF-8"?>
<!--Generator: Apple Native CoreSVG 326-->
<!DOCTYPE svg
PUBLIC "-//W3C//DTD SVG 1.1//EN"
       "http://www.w3.org/Graphics/SVG/1.1/DTD/svg11.dtd">
<svg version="1.1" xmlns="http://www.w3.org/2000/svg" xmlns:xlink="http://www.w3.org/1999/xlink" viewBox="0 0 23.3203 22.959">
 <g>
  <rect height="22.959" opacity="0" width="23.3203" x="0" y="0"/>
  <path d="M22.959 3.76953L22.959 19.1992C22.959 21.6797 21.6797 22.959 19.1504 22.959L3.79883 22.959C1.2793 22.959 0 21.6992 0 19.1992L0 3.76953C0 1.26953 1.2793 0 3.79883 0L19.1504 0C21.6797 0 22.959 1.2793 22.959 3.76953ZM4.98047 12.4902L4.98047 17.041C4.98047 17.7051 5.33203 17.9785 5.92773 17.9785L10.459 17.9785C10.918 17.9785 11.2793 17.6172 11.2793 17.168C11.2793 16.709 10.918 16.3477 10.459 16.3477L9.6875 16.3574L7.61719 16.4551L10.7715 13.4277C11.1035 13.1055 11.1133 12.5391 10.7812 12.1973C10.4395 11.8555 9.88281 11.8457 9.54102 12.207L6.51367 15.3809L6.61133 13.2227L6.61133 12.4902C6.61133 12.0312 6.25 11.6699 5.80078 11.6699C5.3418 11.6699 4.98047 12.0312 4.98047 12.4902ZM12.5098 4.9707C12.0508 4.9707 11.6895 5.33203 11.6895 5.79102C11.6895 6.24023 12.0508 6.60156 12.5098 6.60156L13.2812 6.60156L15.3516 6.49414L12.1973 9.52148C11.8652 9.85352 11.8555 10.4199 12.1875 10.752C12.5293 11.0938 13.0859 11.1035 13.4277 10.7422L16.4648 7.56836L16.3574 9.73633L16.3574 10.4688C16.3574 10.918 16.7188 11.2793 17.168 11.2793C17.627 11.2793 17.9883 10.918 17.9883 10.4688L17.9883 5.91797C17.9883 5.25391 17.6367 4.9707 17.041 4.9707Z" fill="black" fill-opacity="0.85"/>
 </g>
</svg>
