<?xml version="1.0" ?><!-- Generator: Adobe Illustrator 25.0.0, SVG Export Plug-In . SVG Version: 6.00 Build 0)  --><svg xmlns="http://www.w3.org/2000/svg" xmlns:xlink="http://www.w3.org/1999/xlink" version="1.1" id="Layer_1" x="0px" y="0px" viewBox="0 0 512 512" style="enable-background:new 0 0 512 512;" xml:space="preserve">
<path d="M87.3,512h337.3c58.4,0,87.3-28.9,87.3-86.2V86.2C512,28.9,483.1,0,424.7,0H87.3C29.2,0,0,28.6,0,86.2v339.6  C0,483.4,29.2,512,87.3,512z M346,326.8c-12.8,0-21.1-8.9-21.1-22.5V255l4.2-44.8l-41.4,44.2L182.7,359.6c-4.2,4.2-9.7,6.7-16.7,6.7  c-12.5,0-20.9-8.3-20.9-21.4c0-5.6,2.5-11.4,6.7-15.6l105.4-105.1l44.8-41.7l-42.6,4.4h-51.7c-13.9,0-22.8-8.3-22.8-20.9  c0-12.8,8.6-21.1,22.2-21.1h135.7c14.7,0,24.2,6.7,24.2,23.6v135.2C367.1,317,358.5,326.8,346,326.8z"/>
</svg>