<?xml version="1.0" encoding="UTF-8"?>
<!--Generator: Apple Native CoreSVG 326-->
<!DOCTYPE svg
PUBLIC "-//W3C//DTD SVG 1.1//EN"
       "http://www.w3.org/Graphics/SVG/1.1/DTD/svg11.dtd">
<svg version="1.1" xmlns="http://www.w3.org/2000/svg" xmlns:xlink="http://www.w3.org/1999/xlink" viewBox="0 0 28.136 27.8296">
 <g>
  <rect height="27.8296" opacity="0" width="28.136" x="0" y="0"/>
  <path d="M27.7741 11.3123C27.7936 10.7068 27.3346 10.2869 26.7682 10.3064L17.6764 10.3748C17.403 10.3748 17.1295 10.4822 16.9537 10.658C16.5533 11.0486 16.5631 11.6052 16.9537 11.9959C17.1491 12.1814 17.3541 12.2693 17.6276 12.2693L21.6119 12.2205L24.8346 12.0447L22.7448 13.988L10.567 26.156C10.1764 26.5466 10.1666 27.113 10.567 27.5134C10.9674 27.9138 11.5241 27.9041 11.9147 27.5134L24.0924 15.3357L26.0358 13.2556L25.86 16.4685L25.8112 20.4431C25.8112 20.7166 25.8991 20.9412 26.0944 21.1267C26.4752 21.5173 27.0221 21.5271 27.4225 21.1267C27.5983 20.9509 27.7057 20.6775 27.7057 20.3943Z" fill="black" fill-opacity="0.85"/>
  <path d="M0.000613478 16.488C-0.0189178 17.0838 0.430301 17.533 1.00647 17.5134L10.0983 17.4451C10.3815 17.4451 10.6451 17.3279 10.8307 17.1521C11.2311 16.7517 11.2213 16.2048 10.8307 15.8142C10.6354 15.6189 10.4108 15.531 10.1471 15.531L6.17249 15.5798L2.94983 15.7654L5.03968 13.822L17.2076 1.6443C17.5983 1.25367 17.608 0.687267 17.2076 0.296642C16.817-0.103748 16.2408-0.0939828 15.86 0.296642L3.68225 12.4744L1.73889 14.5545L1.91468 11.3318L1.97327 7.35719C1.97327 7.09352 1.88538 6.86891 1.69007 6.6736C1.29944 6.29274 0.742801 6.28297 0.352176 6.6736C0.176395 6.84938 0.0592072 7.13258 0.0592072 7.40602Z" fill="black" fill-opacity="0.85"/>
 </g>
</svg>
