<?xml version="1.0" encoding="UTF-8"?>
<!--Generator: Apple Native CoreSVG 326-->
<!DOCTYPE svg
PUBLIC "-//W3C//DTD SVG 1.1//EN"
       "http://www.w3.org/Graphics/SVG/1.1/DTD/svg11.dtd">
<svg version="1.1" xmlns="http://www.w3.org/2000/svg" xmlns:xlink="http://www.w3.org/1999/xlink" viewBox="0 0 26.3477 22.7441">
 <g>
  <rect height="22.7441" opacity="0" width="26.3477" x="0" y="0"/>
  <path d="M25.9863 3.61328L25.9863 18.9941C25.9863 21.543 24.7754 22.7441 22.1777 22.7441L3.80859 22.7441C1.23047 22.7441 0 21.543 0 18.9941L0 12.5586C0 10.8691 0.478516 9.9707 1.79688 8.96484L11.4258 1.66016C13.0078 0.46875 14.2578 0.0292969 16.1816 0.0292969L22.373 0.0292969C24.7559 0.0292969 25.9863 1.25977 25.9863 3.61328ZM14.9121 13.457C14.2871 13.457 14.0332 13.9648 14.3555 14.4922L17.0898 18.9844C17.4023 19.502 18.0273 19.4922 18.3398 18.9844L21.0938 14.4922C21.416 13.9648 21.1426 13.457 20.5273 13.457ZM16.1816 1.75781C14.6289 1.75781 13.7109 2.03125 12.5879 2.91992L3.25195 10.0586C2.71484 10.4688 2.87109 11.2402 3.59375 11.2402L22.3438 11.2402C23.5352 11.2402 24.2578 10.5273 24.2578 9.30664L24.2578 3.70117C24.2578 2.45117 23.5547 1.75781 22.3438 1.75781Z" fill="black" fill-opacity="0.85"/>
  <path d="M18.3398 3.82812L21.0938 8.32031C21.416 8.84766 21.1426 9.35547 20.5273 9.35547L14.9121 9.35547C14.2871 9.35547 14.0332 8.84766 14.3555 8.32031L17.0898 3.82812C17.4023 3.31055 18.0273 3.32031 18.3398 3.82812Z" fill="black" fill-opacity="0.85"/>
 </g>
</svg>
