<?xml version="1.0" encoding="UTF-8"?>
<!--Generator: Apple Native CoreSVG 326-->
<!DOCTYPE svg
PUBLIC "-//W3C//DTD SVG 1.1//EN"
       "http://www.w3.org/Graphics/SVG/1.1/DTD/svg11.dtd">
<svg version="1.1" xmlns="http://www.w3.org/2000/svg" xmlns:xlink="http://www.w3.org/1999/xlink" viewBox="0 0 23.3203 22.959">
 <g>
  <rect height="22.959" opacity="0" width="23.3203" x="0" y="0"/>
  <path d="M22.959 3.76953L22.959 19.1992C22.959 21.6797 21.6797 22.959 19.1504 22.959L3.79883 22.959C1.2793 22.959 0 21.6992 0 19.1992L0 3.76953C0 1.26953 1.2793 0 3.79883 0L19.1504 0C21.6797 0 22.959 1.2793 22.959 3.76953ZM10.8594 3.95508L7.08984 7.71484C6.93359 7.85156 6.8457 8.05664 6.8457 8.30078C6.8457 8.75 7.20703 9.0918 7.65625 9.0918C7.91016 9.0918 8.10547 9.00391 8.26172 8.84766L9.36523 7.72461L10.7617 6.13281L10.6641 8.66211L10.6641 14.2676L10.7617 16.7969L9.36523 15.2051L8.26172 14.0918C8.10547 13.9258 7.91016 13.8379 7.65625 13.8379C7.20703 13.8379 6.8457 14.1797 6.8457 14.6387C6.8457 14.873 6.93359 15.0781 7.08984 15.2246L10.8594 18.9844C11.0645 19.1992 11.2598 19.2969 11.5039 19.2969C11.7383 19.2969 11.9238 19.1992 12.1484 18.9844L15.918 15.2246C16.0742 15.0781 16.1523 14.873 16.1523 14.6387C16.1523 14.1797 15.8105 13.8379 15.3516 13.8379C15.0977 13.8379 14.9023 13.9355 14.7461 14.0918L13.6328 15.2051L12.2461 16.7871L12.3438 14.2676L12.3438 8.66211L12.2461 6.14258L13.6328 7.72461L14.7461 8.84766C14.9023 8.99414 15.0977 9.0918 15.3516 9.0918C15.8105 9.0918 16.1523 8.75 16.1523 8.30078C16.1523 8.05664 16.0742 7.85156 15.918 7.71484L12.1484 3.95508C11.9238 3.74023 11.7383 3.63281 11.5039 3.63281C11.2598 3.63281 11.0645 3.74023 10.8594 3.95508Z" fill="black" fill-opacity="0.85"/>
 </g>
</svg>
