<?xml version="1.0" ?><!-- Generator: Adobe Illustrator 25.0.0, SVG Export Plug-In . SVG Version: 6.00 Build 0)  --><svg xmlns="http://www.w3.org/2000/svg" xmlns:xlink="http://www.w3.org/1999/xlink" version="1.1" id="Layer_1" x="0px" y="0px" viewBox="0 0 512 512" style="enable-background:new 0 0 512 512;" xml:space="preserve">
<path d="M256.1,512c7.6,0,13.7-2.4,18.6-7.3s7.3-11,7.3-18.6V192.8l-2-62.1l87.4,95.5l65.1,64.2c2.3,2.3,5.1,4.1,8.4,5.4  c3.3,1.3,6.7,1.9,10.2,1.9c7.4,0,13.4-2.5,18.2-7.4c4.7-4.9,7.1-11,7.1-18.2c0-3.5-0.7-6.8-2.2-10c-1.5-3.2-3.6-6.3-6.5-9.4  l-192-192.3c-2.7-2.9-5.8-5.1-9.1-6.7c-3.4-1.5-6.8-2.3-10.3-2.3c-3.7,0-7.2,0.8-10.5,2.3c-3.3,1.5-6.3,3.8-9,6.7L44.4,252.7  c-2.7,3.1-4.8,6.2-6.2,9.4c-1.5,3.2-2.2,6.5-2.2,10c0,7.2,2.4,13.2,7.1,18.2c4.7,4.9,10.8,7.4,18.2,7.4c3.5,0,6.9-0.6,10.2-1.9  c3.3-1.3,6.1-3,8.4-5.4l65.1-64.2l87.4-95.8l-2.3,62.4v293.3c0,7.6,2.5,13.7,7.4,18.6C242.4,509.6,248.6,512,256.1,512z M59.8,52  h391.8c7.6,0,13.7-2.4,18.4-7.3c4.7-4.8,7.1-11,7.1-18.6c0-7.6-2.4-13.8-7.1-18.7C465.3,2.5,459.1,0,451.6,0H59.8  c-7.4,0-13.4,2.5-18,7.4c-4.6,4.9-7,11.2-7,18.7c0,7.6,2.3,13.7,7,18.6C46.5,49.6,52.5,52,59.8,52z"/>
</svg>