<?xml version="1.0" ?><!-- Generator: Adobe Illustrator 25.0.0, SVG Export Plug-In . SVG Version: 6.00 Build 0)  --><svg xmlns="http://www.w3.org/2000/svg" xmlns:xlink="http://www.w3.org/1999/xlink" version="1.1" id="Layer_1" x="0px" y="0px" viewBox="0 0 512 512" style="enable-background:new 0 0 512 512;" xml:space="preserve">
<path d="M410.1,0C284.9,0,225.8,49.9,225.8,175.9v187.8l1.9,73.5l-53.9-59.4l-88.9-88.9c-4.1-4.3-10.6-6.5-17.1-6.5  c-13.6,0-23.3,10.3-23.3,23.6c0,6.5,2.4,12.2,7.6,17.6l179.7,180.2c5.1,5.4,11.4,8.1,18.2,8.1c6.8,0,13-2.7,18.2-8.1l180-180.2  c5.2-5.4,7.3-11.1,7.3-17.6c0-13.3-9.8-23.6-23.3-23.6c-6.5,0-12.7,2.2-17.1,6.5l-88.9,88.9l-54.2,59.6l2.2-73.7l-0.3-185.4  c-0.3-98.1,42.6-130.9,138.8-130.9c12.7,0,21.4,0.5,30.9,0.5c13.8,0,24.1-8.9,24.1-23c0-13.8-9.8-20.9-20.3-23  C438.8,0.5,425.8,0,410.1,0z"/>
</svg>