<?xml version="1.0" encoding="UTF-8"?>
<!--Generator: Apple Native CoreSVG 326-->
<!DOCTYPE svg
PUBLIC "-//W3C//DTD SVG 1.1//EN"
       "http://www.w3.org/Graphics/SVG/1.1/DTD/svg11.dtd">
<svg version="1.1" xmlns="http://www.w3.org/2000/svg" xmlns:xlink="http://www.w3.org/1999/xlink" viewBox="0 0 23.3203 22.959">
 <g>
  <rect height="22.959" opacity="0" width="23.3203" x="0" y="0"/>
  <path d="M3.79883 22.959L19.1504 22.959C21.6797 22.959 22.959 21.6797 22.959 19.1992L22.959 3.76953C22.959 1.2793 21.6797 0 19.1504 0L3.79883 0C1.2793 0 0 1.26953 0 3.76953L0 19.1992C0 21.6992 1.2793 22.959 3.79883 22.959ZM3.83789 21.2305C2.4707 21.2305 1.72852 20.5078 1.72852 19.1016L1.72852 3.85742C1.72852 2.46094 2.4707 1.72852 3.83789 1.72852L19.1211 1.72852C20.459 1.72852 21.2305 2.46094 21.2305 3.85742L21.2305 19.1016C21.2305 20.5078 20.459 21.2305 19.1211 21.2305Z" fill="black" fill-opacity="0.85"/>
  <path d="M18.7598 12.666L18.7207 8.0957C18.7207 7.90039 18.6328 7.69531 18.5059 7.55859C18.2227 7.26562 17.8125 7.26562 17.5195 7.55859C17.3828 7.68555 17.2949 7.88086 17.3047 8.07617L17.3242 10.1172L17.3535 11.0352L16.8652 10.5078L10.791 4.43359C10.498 4.14062 10.0586 4.15039 9.77539 4.43359C9.49219 4.72656 9.50195 5.15625 9.77539 5.43945L15.8594 11.5234L16.3965 12.0117L15.4492 11.9922L13.418 11.9629C13.2227 11.9629 13.0371 12.0312 12.9004 12.1777C12.6172 12.4609 12.6172 12.8809 12.9102 13.1543C13.0371 13.291 13.2227 13.3691 13.4277 13.3789L18.0176 13.4082C18.4082 13.418 18.7598 13.0664 18.7598 12.666ZM4.21875 10.3027L4.25781 14.8926C4.26758 15.0977 4.3457 15.293 4.46289 15.4297C4.75586 15.7031 5.17578 15.7031 5.44922 15.4297C5.5957 15.2832 5.6543 15.0977 5.66406 14.9023L5.63477 12.8613L5.5957 11.9336L6.10352 12.4609L12.1875 18.5449C12.4805 18.8379 12.9004 18.8184 13.1934 18.5449C13.4766 18.2422 13.4766 17.8223 13.1934 17.5391L7.10938 11.4551L6.57227 10.9668L7.51953 10.9863L9.56055 11.0156C9.75586 11.0156 9.93164 10.9375 10.0684 10.8105C10.3613 10.5176 10.3613 10.1172 10.0586 9.82422C9.93164 9.6875 9.72656 9.59961 9.55078 9.59961L4.96094 9.58008C4.55078 9.58008 4.21875 9.88281 4.21875 10.3027Z" fill="black" fill-opacity="0.85"/>
 </g>
</svg>
