<?xml version="1.0" encoding="UTF-8"?>
<!--Generator: Apple Native CoreSVG 326-->
<!DOCTYPE svg
PUBLIC "-//W3C//DTD SVG 1.1//EN"
       "http://www.w3.org/Graphics/SVG/1.1/DTD/svg11.dtd">
<svg version="1.1" xmlns="http://www.w3.org/2000/svg" xmlns:xlink="http://www.w3.org/1999/xlink" viewBox="0 0 25.8008 25.459">
 <g>
  <rect height="25.459" opacity="0" width="25.8008" x="0" y="0"/>
  <path d="M25.4395 12.7246C25.4395 19.7266 19.7266 25.4395 12.7148 25.4395C5.71289 25.4395 0 19.7266 0 12.7246C0 5.71289 5.71289 0 12.7148 0C19.7266 0 25.4395 5.71289 25.4395 12.7246ZM10.4102 7.77344C9.89258 7.77344 9.55078 8.0957 9.55078 8.58398C9.55078 9.07227 9.90234 9.4043 10.4297 9.4043L13.2422 9.4043L15.127 9.23828L13.2812 10.9766L8.02734 16.2207C7.86133 16.3867 7.75391 16.6016 7.75391 16.8262C7.75391 17.334 8.07617 17.666 8.56445 17.666C8.84766 17.666 9.05273 17.5684 9.21875 17.4023L14.4531 12.1582L16.1816 10.3223L16.0254 12.4121L16.0254 15C16.0254 15.5371 16.3574 15.8691 16.8555 15.8691C17.334 15.8691 17.666 15.5078 17.666 14.9805L17.666 8.68164C17.666 8.03711 17.3047 7.77344 16.748 7.77344Z" fill="black" fill-opacity="0.85"/>
 </g>
</svg>
