<?xml version="1.0" encoding="UTF-8"?>
<!--Generator: Apple Native CoreSVG 326-->
<!DOCTYPE svg
PUBLIC "-//W3C//DTD SVG 1.1//EN"
       "http://www.w3.org/Graphics/SVG/1.1/DTD/svg11.dtd">
<svg version="1.1" xmlns="http://www.w3.org/2000/svg" xmlns:xlink="http://www.w3.org/1999/xlink" viewBox="0 0 29.9512 22.959">
 <g>
  <rect height="22.959" opacity="0" width="29.9512" x="0" y="0"/>
  <path d="M3.79883 22.959L25.7812 22.959C28.3105 22.959 29.5898 21.6797 29.5898 19.1992L29.5898 3.76953C29.5898 1.2793 28.3105 0 25.7812 0L3.79883 0C1.2793 0 0 1.26953 0 3.76953L0 19.1992C0 21.6992 1.2793 22.959 3.79883 22.959ZM3.83789 21.2305C2.4707 21.2305 1.72852 20.5078 1.72852 19.1016L1.72852 3.85742C1.72852 2.46094 2.4707 1.72852 3.83789 1.72852L25.752 1.72852C27.0898 1.72852 27.8516 2.46094 27.8516 3.85742L27.8516 19.1016C27.8516 20.5078 27.0898 21.2305 25.752 21.2305Z" fill="black" fill-opacity="0.85"/>
  <path d="M22.1387 10.4102C22.5977 10.4102 22.9102 10.0586 22.9102 9.58984L22.9102 4.47266C22.9102 3.87695 22.5684 3.62305 22.0605 3.62305L16.9043 3.62305C16.4453 3.62305 16.1133 3.93555 16.1133 4.39453C16.1133 4.84375 16.4453 5.15625 16.9238 5.15625L18.8965 5.15625L20.498 5.0293L18.916 6.49414L15.8105 9.60938C15.6738 9.75586 15.5664 9.96094 15.5664 10.1758C15.5664 10.6445 15.8789 10.9473 16.3281 10.9473C16.582 10.9473 16.7773 10.8594 16.9238 10.7129L20.0293 7.60742L21.5039 6.04492L21.377 7.8418L21.377 9.60938C21.377 10.0781 21.6895 10.4102 22.1387 10.4102ZM7.44141 12.5488C6.99219 12.5488 6.67969 12.9004 6.67969 13.3789L6.67969 18.4961C6.67969 19.082 7.01172 19.3359 7.5293 19.3359L12.6855 19.3359C13.1445 19.3359 13.4766 19.0234 13.4766 18.5742C13.4766 18.1152 13.1445 17.8027 12.666 17.8027L10.6836 17.8027L9.0918 17.9395L10.6738 16.4648L13.7695 13.3496C13.916 13.2129 14.0234 12.998 14.0234 12.793C14.0234 12.3242 13.7109 12.0117 13.2617 12.0117C12.998 12.0117 12.8125 12.0996 12.6562 12.2559L9.56055 15.3516L8.08594 16.9141L8.21289 15.1172L8.21289 13.3594C8.21289 12.8809 7.90039 12.5488 7.44141 12.5488Z" fill="black" fill-opacity="0.85"/>
 </g>
</svg>
