<?xml version="1.0" encoding="UTF-8"?>
<!--Generator: Apple Native CoreSVG 326-->
<!DOCTYPE svg
PUBLIC "-//W3C//DTD SVG 1.1//EN"
       "http://www.w3.org/Graphics/SVG/1.1/DTD/svg11.dtd">
<svg version="1.1" xmlns="http://www.w3.org/2000/svg" xmlns:xlink="http://www.w3.org/1999/xlink" viewBox="0 0 24.7461 23.1543">
 <g>
  <rect height="23.1543" opacity="0" width="24.7461" x="0" y="0"/>
  <path d="M24.7461 7.85156C24.7461 13.1543 20.1953 18.3496 13.2031 22.8516C12.959 23.0078 12.6172 23.1543 12.3828 23.1543C12.1387 23.1543 11.7969 23.0078 11.5527 22.8516C4.57031 18.3496 0.00976562 13.1543 0.00976562 7.85156C0.00976562 3.49609 3.01758 0.390625 6.93359 0.390625C9.32617 0.390625 11.2891 1.74805 12.3828 3.80859C13.4863 1.73828 15.4297 0.390625 17.832 0.390625C21.748 0.390625 24.7461 3.49609 24.7461 7.85156ZM11.3574 7.2168L11.3574 8.37891C9.36523 8.70117 7.79297 10.5176 7.79297 12.6465C7.79297 15.127 9.73633 17.0898 12.1973 17.0898C14.6387 17.0898 16.5918 15.127 16.5918 12.666C16.5918 12.2852 16.2695 11.9727 15.8984 11.9727C15.5176 11.9727 15.1953 12.2852 15.1953 12.666C15.1953 14.3359 13.8672 15.6836 12.1973 15.6836C10.5176 15.6836 9.18945 14.3457 9.18945 12.666C9.18945 11.2988 10.0977 10.1465 11.3574 9.79492L11.3574 11.1523C11.3574 11.5918 11.8262 11.748 12.1484 11.4746L14.3262 9.63867C14.6387 9.36523 14.6484 8.97461 14.3262 8.70117L12.1484 6.89453C11.8262 6.62109 11.3574 6.76758 11.3574 7.2168Z" fill="black" fill-opacity="0.85"/>
 </g>
</svg>
