<?xml version="1.0" encoding="UTF-8"?>
<!--Generator: Apple Native CoreSVG 326-->
<!DOCTYPE svg
PUBLIC "-//W3C//DTD SVG 1.1//EN"
       "http://www.w3.org/Graphics/SVG/1.1/DTD/svg11.dtd">
<svg version="1.1" xmlns="http://www.w3.org/2000/svg" xmlns:xlink="http://www.w3.org/1999/xlink" viewBox="0 0 22.4219 30.2441">
 <g>
  <rect height="30.2441" opacity="0" width="22.4219" x="0" y="0"/>
  <path d="M0 16.0254C0 22.1191 4.93164 27.0605 11.0254 27.0605C17.1191 27.0605 22.0605 22.1191 22.0605 16.0254C22.0605 15.498 21.6895 15.127 21.1621 15.127C20.6543 15.127 20.332 15.498 20.332 16.0156C20.332 21.1523 16.1621 25.3223 11.0254 25.3223C5.88867 25.3223 1.72852 21.1523 1.72852 16.0156C1.72852 10.8789 5.88867 6.71875 11.0254 6.71875C12.1094 6.71875 13.1445 6.81641 13.9648 7.02148L9.82422 11.1523C9.64844 11.3184 9.58008 11.543 9.58008 11.7676C9.58008 12.2559 9.94141 12.627 10.4297 12.627C10.6934 12.627 10.8887 12.5391 11.0547 12.3828L16.3574 7.03125C16.5723 6.80664 16.6602 6.5918 16.6602 6.34766C16.6602 6.10352 16.5527 5.85938 16.3574 5.66406L11.0547 0.263672C10.8984 0.0878906 10.6934 0 10.4199 0C9.94141 0 9.58008 0.390625 9.58008 0.878906C9.58008 1.10352 9.6582 1.32812 9.81445 1.50391L13.5742 5.27344C12.8516 5.11719 11.9629 5 11.0254 5C4.93164 5 0 9.93164 0 16.0254Z" fill="black" fill-opacity="0.85"/>
 </g>
</svg>
