<?xml version="1.0" encoding="UTF-8"?>
<!--Generator: Apple Native CoreSVG 326-->
<!DOCTYPE svg
PUBLIC "-//W3C//DTD SVG 1.1//EN"
       "http://www.w3.org/Graphics/SVG/1.1/DTD/svg11.dtd">
<svg version="1.1" xmlns="http://www.w3.org/2000/svg" xmlns:xlink="http://www.w3.org/1999/xlink" viewBox="0 0 23.1738 26.8652">
 <g>
  <rect height="26.8652" opacity="0" width="23.1738" x="0" y="0"/>
  <path d="M11.4062 26.8262C11.8066 26.8262 12.2559 26.6895 12.7441 26.1719L22.0117 16.2402C22.5586 15.6641 22.8125 15.2734 22.8125 14.7168C22.8125 13.916 22.1777 13.3691 21.4062 13.3691L16.2109 13.3691L16.2109 2.76367C16.2109 1.00586 15.2441 0 13.5156 0L9.24805 0C7.5293 0 6.55273 1.00586 6.55273 2.76367L6.55273 13.3691L1.34766 13.3691C0.576172 13.3691 0 13.916 0 14.6973C0 15.2539 0.244141 15.7129 0.732422 16.2402L10.0781 26.1719C10.5566 26.6797 11.0059 26.8262 11.4062 26.8262Z" fill="black" fill-opacity="0.85"/>
 </g>
</svg>
