<?xml version="1.0" ?><!-- Generator: Adobe Illustrator 25.0.0, SVG Export Plug-In . SVG Version: 6.00 Build 0)  --><svg xmlns="http://www.w3.org/2000/svg" xmlns:xlink="http://www.w3.org/1999/xlink" version="1.1" id="Layer_1" x="0px" y="0px" viewBox="0 0 512 512" style="enable-background:new 0 0 512 512;" xml:space="preserve">
<path d="M25,217.1c14.2,0,24.4-10.7,24.4-25v-22.5L44,75.9l70.6,74.3l82.6,83.2c4.6,4.8,10.5,7,16.9,7c15.3,0,26.6-9.9,26.6-25  c0-7.2-2.4-13.7-7.2-18.5l-82.9-82.7L76.2,43.7l93.9,5.4h22.3c14.2,0,25.2-9.9,25.2-24.4c0-14.5-10.7-24.7-25.2-24.7H43.5  C16.1,0,0.3,15.8,0.3,43.2v148.9C0.3,206.1,10.7,217.1,25,217.1z M319.3,512h148.9c27.4,0,43.5-15.8,43.5-43.2V319.9  c0-14-10.5-25-25-25c-14,0-24.4,10.7-24.4,25v22.5l5.6,93.7l-70.8-74.3l-82.4-83.2c-4.6-4.8-10.7-7-17.2-7c-15,0-26.6,9.9-26.6,25  c0,7.2,2.7,13.7,7.5,18.5l82.7,82.6l74.6,70.6l-93.9-5.4h-22.5c-14.2,0-25.2,9.9-25.2,24.4C294.1,501.8,305.1,512,319.3,512z"/>
</svg>