<?xml version="1.0" encoding="UTF-8"?>
<!--Generator: Apple Native CoreSVG 326-->
<!DOCTYPE svg
PUBLIC "-//W3C//DTD SVG 1.1//EN"
       "http://www.w3.org/Graphics/SVG/1.1/DTD/svg11.dtd">
<svg version="1.1" xmlns="http://www.w3.org/2000/svg" xmlns:xlink="http://www.w3.org/1999/xlink" viewBox="0 0 23.2715 22.9199">
 <g>
  <rect height="22.9199" opacity="0" width="23.2715" x="0" y="0"/>
  <path d="M21.4844 1.44531C22.6953 2.64648 22.9102 4.32617 22.9102 6.5625L22.9102 16.3379C22.9102 18.584 22.6953 20.2539 21.4844 21.4648C20.2734 22.6758 18.5742 22.9102 16.3379 22.9102L6.57227 22.9102C4.33594 22.9102 2.64648 22.6758 1.42578 21.4648C0.214844 20.2637 0 18.584 0 16.3379L0 6.50391C0 4.33594 0.224609 2.65625 1.43555 1.44531C2.64648 0.234375 4.3457 0 6.50391 0L16.3379 0C18.5742 0 20.2637 0.234375 21.4844 1.44531ZM10.5664 5.84961L10.5664 13.5547L10.6348 15.459L9.79492 14.5801L7.67578 12.3633C7.51953 12.1777 7.27539 12.0898 7.06055 12.0898C6.60156 12.0898 6.25977 12.4219 6.25977 12.8711C6.25977 13.1055 6.35742 13.291 6.52344 13.457L10.8105 17.6172C11.0352 17.8418 11.2207 17.9199 11.4551 17.9199C11.6797 17.9199 11.875 17.8418 12.0898 17.6172L16.3672 13.457C16.543 13.291 16.6309 13.1055 16.6309 12.8711C16.6309 12.4219 16.2793 12.0898 15.8301 12.0898C15.6152 12.0898 15.3809 12.1777 15.2246 12.3633L13.1055 14.5801L12.2754 15.4492L12.334 13.5547L12.334 5.84961C12.334 5.38086 11.9336 4.99023 11.4551 4.99023C10.9668 4.99023 10.5664 5.38086 10.5664 5.84961Z" fill="black" fill-opacity="0.85"/>
 </g>
</svg>
