<?xml version="1.0" ?><!-- Generator: Adobe Illustrator 25.0.0, SVG Export Plug-In . SVG Version: 6.00 Build 0)  --><svg xmlns="http://www.w3.org/2000/svg" xmlns:xlink="http://www.w3.org/1999/xlink" version="1.1" id="Layer_1" x="0px" y="0px" viewBox="0 0 512 512" style="enable-background:new 0 0 512 512;" xml:space="preserve">
<path d="M279.6,443.6c5.9,0,11.1-2,16.1-6.7l164.6-164.3c4.2-4,6.7-8.9,7.4-14.1v163.8c0,12.6,9.2,21.3,22,21.3  c12.9,0,22.3-8.7,22.3-21.3V90.4c0-12.9-9.4-22-22.3-22c-12.9,0-22,9.2-22,22v163.3c-0.7-5.2-3.2-10.1-7.4-14.4L295.7,75.4  c-4.9-4.7-10.1-6.9-16.1-6.9c-12.1,0-21.5,9.2-21.5,21.3c0,5.9,2,11.9,5.9,15.8l55.4,56.2l81.2,74.2l-52.7-2H21.8  C8.9,234,0,243.1,0,256c0,12.9,8.9,22.3,21.8,22.3h326.2l53-2l-81.4,74L264,406.7c-4,4-5.9,9.9-5.9,15.6  C258.1,434.7,267.5,443.6,279.6,443.6z"/>
</svg>