<?xml version="1.0" ?><!-- Generator: Adobe Illustrator 25.0.0, SVG Export Plug-In . SVG Version: 6.00 Build 0)  --><svg xmlns="http://www.w3.org/2000/svg" xmlns:xlink="http://www.w3.org/1999/xlink" version="1.1" id="Layer_1" x="0px" y="0px" viewBox="0 0 512 512" style="enable-background:new 0 0 512 512;" xml:space="preserve">
<path d="M280,473.8c11.6,0,21.1-4.7,32.5-15.4l187.4-176.9c9-8.5,12.1-17.6,12.1-25.4c0-8.1-2.9-16.9-12.1-25.6L312.5,55.1  c-12.6-11.9-20.4-16.9-32.1-16.9c-16.6,0-28.5,13.1-28.5,29V157h-6.9C74.3,157,0,266.4,0,441.9c0,20.4,11.6,31.8,24.5,31.8  c10,0,20.9-2.4,29.2-17.6c41.3-77.7,99.5-100.9,191.4-100.9h6.9V446C252,461.9,263.8,473.8,280,473.8z"/>
</svg>