<?xml version="1.0" ?><!-- Generator: Adobe Illustrator 25.0.0, SVG Export Plug-In . SVG Version: 6.00 Build 0)  --><svg xmlns="http://www.w3.org/2000/svg" xmlns:xlink="http://www.w3.org/1999/xlink" version="1.1" id="Layer_1" x="0px" y="0px" viewBox="0 0 512 512" style="enable-background:new 0 0 512 512;" xml:space="preserve">
<path d="M256,512c140,0,256-116.2,256-256C512,116,395.8,0,255.7,0C116,0,0,116,0,256C0,395.8,116.2,512,256,512z M256,469.3  c-118.5,0-213.1-94.9-213.1-213.3S137.3,42.7,255.7,42.7S469.1,137.5,469.3,256S374.5,469.3,256,469.3z M334.3,318.2  c11,0,18.6-8.3,18.6-20.1V180c0-14.8-8.3-20.8-21.1-20.8h-119c-11.8,0-19.3,7.3-19.3,18.3c0,11.3,7.8,18.6,19.8,18.6H259l37.1-4  L257,228.4L164.4,321c-3.5,3.5-6,8.3-6,13.3c0,11.3,7.5,18.8,18.6,18.8c6,0,10.5-2.3,14.3-5.8l92.4-92.6l36.1-38.4l-3.8,38.9v43.4  C316,310.7,323.3,318.2,334.3,318.2z"/>
</svg>