<?xml version="1.0" encoding="UTF-8"?>
<!--Generator: Apple Native CoreSVG 326-->
<!DOCTYPE svg
PUBLIC "-//W3C//DTD SVG 1.1//EN"
       "http://www.w3.org/Graphics/SVG/1.1/DTD/svg11.dtd">
<svg version="1.1" xmlns="http://www.w3.org/2000/svg" xmlns:xlink="http://www.w3.org/1999/xlink" viewBox="0 0 25.8008 25.459">
 <g>
  <rect height="25.459" opacity="0" width="25.8008" x="0" y="0"/>
  <path d="M12.7148 25.4395C19.7363 25.4395 25.4395 19.7461 25.4395 12.7246C25.4395 5.70312 19.7363 0 12.7148 0C5.69336 0 0 5.70312 0 12.7246C0 19.7461 5.69336 25.4395 12.7148 25.4395ZM12.7148 23.623C6.68945 23.623 1.81641 18.75 1.81641 12.7246C1.81641 6.69922 6.68945 1.82617 12.7148 1.82617C18.7402 1.82617 23.6133 6.69922 23.6133 12.7246C23.6133 18.75 18.7402 23.623 12.7148 23.623Z" fill="black" fill-opacity="0.85"/>
  <path d="M6.43555 12.7148C6.43555 12.9297 6.50391 13.1152 6.71875 13.3301L10.7812 17.5195C10.9473 17.6855 11.123 17.7734 11.3477 17.7734C11.7871 17.7734 12.1094 17.4414 12.1094 17.002C12.1094 16.7871 12.0215 16.5527 11.8457 16.4062L9.66797 14.3262L8.81836 13.5059L10.6738 13.5645L18.2129 13.5645C18.6621 13.5645 19.043 13.1738 19.043 12.7148C19.043 12.2461 18.6621 11.8555 18.2129 11.8555L10.6738 11.8555L8.81836 11.9238L9.66797 11.1035L11.8457 9.02344C12.0215 8.87695 12.1094 8.65234 12.1094 8.4375C12.1094 7.99805 11.7871 7.65625 11.3477 7.65625C11.123 7.65625 10.9473 7.74414 10.7812 7.91016L6.71875 12.0898C6.50391 12.3047 6.43555 12.4902 6.43555 12.7148Z" fill="black" fill-opacity="0.85"/>
 </g>
</svg>
