<?xml version="1.0" ?><!-- Generator: Adobe Illustrator 25.0.0, SVG Export Plug-In . SVG Version: 6.00 Build 0)  --><svg xmlns="http://www.w3.org/2000/svg" xmlns:xlink="http://www.w3.org/1999/xlink" version="1.1" id="Layer_1" x="0px" y="0px" viewBox="0 0 512 512" style="enable-background:new 0 0 512 512;" xml:space="preserve">
<path d="M87.3,512h337.3c58.4,0,87.3-28.9,87.3-86.2V86.2C512,28.9,483.1,0,424.7,0H87.3C29.2,0,0,28.6,0,86.2v339.6  C0,483.4,29.2,512,87.3,512z M87.9,467.2c-27.8,0-43.1-14.7-43.1-43.7V88.4c0-28.9,15.3-43.7,43.1-43.7h336.2  c27.5,0,43.1,14.7,43.1,43.7v335.1c0,28.9-15.6,43.7-43.1,43.7H87.9z M355.7,386l68.1-69.8c3.3-3.6,5.8-8.6,5.8-13.1  c0-10.6-7.2-17.8-17.8-17.8c-5,0-9.7,1.9-12.8,5.3l-28.6,29.5l-10.6,11.4l0.6-13.1V137.9c0-10.3-7.8-17.8-18.1-17.8  c-10.3,0-18.1,7.5-18.1,17.8v180.8l0.6,13.1l-10.6-11.7l-28.6-29.5c-3.6-3.6-7.8-5.3-12.8-5.3c-10.6,0-17.5,7.2-17.5,17.8  c0,4.2,1.9,9.2,5.3,13.1L329,386C335.4,392.7,348.2,393.8,355.7,386z M156.9,125.7l-68.7,70.1c-3.1,3.6-5.6,8.9-5.6,12.8  c0,10.3,7.8,18.1,18.1,18.1c4.7,0,9.2-2.2,12.5-5.6l28.6-29.8l10.6-11.4l-0.6,13.6v180.2c0,10,7.8,17.5,18.1,17.5  c10.6,0,18.4-7.5,18.4-17.5V193.3l-0.8-13.3l10.8,11.4l28.6,30c3.3,3.3,7.8,5.3,12.5,5.3c10.3,0,17.8-7.5,17.8-18.1  c0-4.4-2.5-9.7-5.6-12.8l-68.4-70.1C176.6,118.8,164.9,117.6,156.9,125.7z"/>
</svg>