<?xml version="1.0" ?><!-- Generator: Adobe Illustrator 25.0.0, SVG Export Plug-In . SVG Version: 6.00 Build 0)  --><svg xmlns="http://www.w3.org/2000/svg" xmlns:xlink="http://www.w3.org/1999/xlink" version="1.1" id="Layer_1" x="0px" y="0px" viewBox="0 0 512 512" style="enable-background:new 0 0 512 512;" xml:space="preserve">
<path d="M22,443.6c13.1,0,22.3-8.7,22.3-21.3V258.5c0.5,5.2,3.2,10.1,7.4,14.1l164.6,164.3c4.9,4.7,10.1,6.7,15.8,6.7  c12.4,0,21.8-8.9,21.8-21.3c0-5.7-2.2-11.6-5.9-15.6l-55.4-56.4l-81.4-74l53,2h326.2c12.6,0,21.8-9.4,21.8-22.3  c0-12.9-9.2-22-21.8-22H164.1l-52.7,2l81.2-74.2l55.4-56.2c3.7-4,5.9-9.9,5.9-15.8c0-12.1-9.4-21.3-21.8-21.3  c-5.7,0-10.9,2.2-15.8,6.9L51.7,239.4c-4.2,4.2-6.9,9.2-7.4,14.4V90.4c0-12.9-9.2-22-22.3-22c-12.9,0-22,9.2-22,22v331.8  C0,434.9,9.2,443.6,22,443.6z"/>
</svg>