<?xml version="1.0" encoding="UTF-8"?>
<!--Generator: Apple Native CoreSVG 326-->
<!DOCTYPE svg
PUBLIC "-//W3C//DTD SVG 1.1//EN"
       "http://www.w3.org/Graphics/SVG/1.1/DTD/svg11.dtd">
<svg version="1.1" xmlns="http://www.w3.org/2000/svg" xmlns:xlink="http://www.w3.org/1999/xlink" viewBox="0 0 29.2285 23.3155">
 <g>
  <rect height="23.3155" opacity="0" width="29.2285" x="0" y="0"/>
  <path d="M22.1777 23.0005L28.5547 16.5064C28.75 16.3111 28.8672 16.0474 28.8672 15.7935C28.8672 15.2271 28.4668 14.8462 27.9199 14.8462C27.6465 14.8462 27.4316 14.9341 27.2363 15.1294L24.4629 17.9712L22.3145 20.3833L22.4121 17.5318L22.4121 0.959515C22.4121 0.41264 22.0117 0.00248398 21.4551 0.00248398C20.8984 0.00248398 20.5078 0.41264 20.5078 0.959515L20.5078 17.5318L20.6055 20.3833L18.457 17.9712L15.6738 15.1294C15.4883 14.9341 15.2734 14.8462 15 14.8462C14.4434 14.8462 14.0527 15.2271 14.0527 15.7935C14.0527 16.0474 14.1699 16.3111 14.3652 16.5064L20.7422 23.0005C21.1426 23.4107 21.7578 23.4302 22.1777 23.0005Z" fill="black" fill-opacity="0.85"/>
  <path d="M6.68945 0.314984L0.3125 6.78959C0.117188 6.98491 0 7.25834 0 7.51225C0 8.07866 0.390625 8.45952 0.947266 8.45952C1.2207 8.45952 1.43555 8.36186 1.62109 8.17631L4.4043 5.32475L6.55273 2.92241L6.45508 5.7642L6.45508 22.3462C6.45508 22.9029 6.8457 23.313 7.40234 23.313C7.95898 23.313 8.35938 22.9029 8.35938 22.3462L8.35938 5.7642L8.26172 2.92241L10.4102 5.32475L13.1836 8.17631C13.3789 8.36186 13.5938 8.45952 13.8672 8.45952C14.4141 8.45952 14.8145 8.07866 14.8145 7.51225C14.8145 7.25834 14.6973 6.98491 14.502 6.78959L8.125 0.314984C7.72461-0.0951723 7.09961-0.114704 6.68945 0.314984Z" fill="black" fill-opacity="0.85"/>
 </g>
</svg>
