<?xml version="1.0" ?><!-- Generator: Adobe Illustrator 25.0.0, SVG Export Plug-In . SVG Version: 6.00 Build 0)  --><svg xmlns="http://www.w3.org/2000/svg" xmlns:xlink="http://www.w3.org/1999/xlink" version="1.1" id="Layer_1" x="0px" y="0px" viewBox="0 0 512 512" style="enable-background:new 0 0 512 512;" xml:space="preserve">
<path d="M368,208.5c8,2.1,14,2.1,20.1-1.6c6.1-3.7,9.4-8.7,11.5-16.6l19.4-77.9c2.8-9.8-2.6-19.2-12.4-21.5  c-9.6-2.6-19.7,2.8-21.8,12.9l-10.1,41.9l-63.2-113C299.6,11,277.9,0,256.1,0c-22,0-43.5,11.2-55.7,32.5l-64.6,115.4  c-6.1,10.5-2.8,20.6,6.3,26c9.4,5.1,20.4,1.9,25.7-7.5l64.6-115.8c5.4-9.4,14.5-13.3,23.6-13.3c9.1,0,18,4,23.2,13.3l64.3,114.9  l-43.5-12.9c-9.6-3-19.2,2.6-22,12.4c-2.6,9.4,2.6,19,12.6,21.8L368,208.5z M76,450.9h125.4c11,0,19.2-7.7,19.2-18.3  c0-10.5-8.2-18.5-19.2-18.5H76.2c-16.1,0-26.9-13.3-26.9-27.8c0-4.2,0.7-9.4,3.3-13.8l59.9-107.2l9.8,41.9  c2.1,10.1,12.2,15.4,21.8,12.9c9.8-2.3,15.4-11.7,12.6-21.5L137,220.6c-2.1-7.7-5.4-13.1-11.5-16.6c-6.1-3.7-12.2-4-20.1-1.6  l-77,21.8C18.2,227,13,236.5,15.8,245.9c2.6,9.8,12.2,15.7,22,12.4l43.3-12.9L20,354.5c-5.6,10.3-8.7,21.3-8.7,31.8  C11.4,422.6,36.2,450.9,76,450.9z M320.9,506.6c7.3,7.5,18.3,7,25,0c7.3-6.8,7.3-18-0.2-25.3l-32.1-30.4H436  c39.8,0,64.6-28.3,64.6-64.6c0-10.5-2.8-21.3-8.7-31.8l-62-110.7c-5.4-10.1-16.4-12.4-25.3-7c-9.1,5.4-12.2,16.4-7,25.7l61.5,110  c2.6,4.4,3.7,9.6,3.7,13.8c0,14.5-11.2,27.8-27.4,27.8H313.7l32.1-30.2c7.5-7.3,7.5-18.5,0.2-25.3c-6.8-7.3-17.8-7.5-25,0  l-57.6,55.7c-5.8,5.6-8.4,11.2-8.4,18.3c0,7,2.6,12.4,8.4,18L320.9,506.6z"/>
</svg>