<?xml version="1.0" encoding="UTF-8"?>
<!--Generator: Apple Native CoreSVG 326-->
<!DOCTYPE svg
PUBLIC "-//W3C//DTD SVG 1.1//EN"
       "http://www.w3.org/Graphics/SVG/1.1/DTD/svg11.dtd">
<svg version="1.1" xmlns="http://www.w3.org/2000/svg" xmlns:xlink="http://www.w3.org/1999/xlink" viewBox="0 0 23.3203 22.959">
 <g>
  <rect height="22.959" opacity="0" width="23.3203" x="0" y="0"/>
  <path d="M22.959 3.76953L22.959 19.1992C22.959 21.6797 21.6797 22.959 19.1504 22.959L3.79883 22.959C1.2793 22.959 0 21.6992 0 19.1992L0 3.76953C0 1.26953 1.2793 0 3.79883 0L19.1504 0C21.6797 0 22.959 1.2793 22.959 3.76953ZM11.2402 4.32617L8.70117 6.9043C8.42773 7.19727 8.41797 7.71484 8.70117 7.98828L11.2695 10.5762C11.3867 10.6934 11.582 10.791 11.7578 10.791C12.1777 10.791 12.4902 10.4785 12.4902 10.0684C12.4902 9.86328 12.4121 9.67773 12.2656 9.53125L10.7715 8.04688C10.9668 7.99805 11.2207 7.97852 11.4844 7.97852C13.7891 7.97852 15.6152 9.81445 15.6152 12.1094C15.6152 14.4238 13.7891 16.2598 11.4844 16.2598C9.18945 16.2598 7.36328 14.4141 7.36328 12.1094C7.36328 11.6895 7.01172 11.3379 6.57227 11.3379C6.16211 11.3379 5.80078 11.6895 5.80078 12.1094C5.80078 15.2637 8.32031 17.8125 11.4844 17.8125C14.6387 17.8125 17.168 15.2637 17.168 12.0703C17.168 8.93555 14.6094 6.47461 11.6797 6.47461C11.4941 6.47461 11.2891 6.50391 11.1328 6.52344L12.2949 5.3418C12.4219 5.20508 12.5 5.00977 12.5 4.80469C12.5 4.4043 12.1875 4.08203 11.7676 4.08203C11.5625 4.08203 11.3672 4.16992 11.2402 4.32617Z" fill="black" fill-opacity="0.85"/>
 </g>
</svg>
