<?xml version="1.0" ?><!-- Generator: Adobe Illustrator 25.0.0, SVG Export Plug-In . SVG Version: 6.00 Build 0)  --><svg xmlns="http://www.w3.org/2000/svg" xmlns:xlink="http://www.w3.org/1999/xlink" version="1.1" id="Layer_1" x="0px" y="0px" viewBox="0 0 512 512" style="enable-background:new 0 0 512 512;" xml:space="preserve">
<path d="M284.5,432.9c13.1,0,22.6-9.6,22.6-22.6v-73.7h5.6c74.9,0,122,18.9,155.7,82c6.8,12.4,15.6,14.3,23.7,14.3  c10.2,0,19.9-9.3,19.9-25.9c0-142.6-60.6-231.6-199.4-231.6H307v-72.9c0-12.9-9.5-23.5-23-23.5c-9.5,0-15.8,4.1-26.1,13.7  L105.8,235.1c-7.1,6.6-9.8,13.9-9.8,20.8c0,6.6,2.7,14.1,9.8,20.6L258,420.3C267.3,429,275,432.9,284.5,432.9z M188.6,433.1  c13.1,0,22.6-7.9,22.6-16.8v-6.6L87.2,295.3c-11.8-10.8-18.7-24.5-18.7-39.2c0-14.7,6.6-28.4,18.7-39.4l123.9-113.5v-6.6  c0-9.3-9.5-17.6-23-17.6c-9.5,0-15.8,4.1-26.1,13.7L9.6,235.3C2.3,242.4,0,249.5,0,256.1c0,6.4,2.3,13.7,9.6,20.6l152.5,143.8  C171.2,429.2,179.1,433.1,188.6,433.1z"/>
</svg>