<?xml version="1.0" encoding="UTF-8"?>
<!--Generator: Apple Native CoreSVG 326-->
<!DOCTYPE svg
PUBLIC "-//W3C//DTD SVG 1.1//EN"
       "http://www.w3.org/Graphics/SVG/1.1/DTD/svg11.dtd">
<svg version="1.1" xmlns="http://www.w3.org/2000/svg" xmlns:xlink="http://www.w3.org/1999/xlink" viewBox="0 0 19.4238 22.0801">
 <g>
  <rect height="22.0801" opacity="0" width="19.4238" x="0" y="0"/>
  <path d="M9.53125 0C8.97461 0 8.58398 0.390625 8.58398 0.947266L8.58398 14.5703L8.66211 17.2852L5.09766 13.4277L1.71875 10.0781C1.54297 9.89258 1.2793 9.79492 1.01562 9.79492C0.478516 9.79492 0.0878906 10.2051 0.0878906 10.7324C0.0878906 11.0156 0.205078 11.25 0.419922 11.4746L8.81836 19.873C9.02344 20.0879 9.26758 20.2051 9.53125 20.2051C9.79492 20.2051 10.0488 20.0879 10.2539 19.873L18.6523 11.4746C18.8672 11.25 18.9844 11.0156 18.9844 10.7324C18.9844 10.2051 18.5938 9.79492 18.0566 9.79492C17.793 9.79492 17.5391 9.89258 17.3535 10.0781L13.9746 13.4277L10.4102 17.2754L10.4883 14.5703L10.4883 0.947266C10.4883 0.390625 10.0879 0 9.53125 0ZM0.927734 20.166C0.371094 20.166 0 20.5664 0 21.123C0 21.6797 0.371094 22.0801 0.927734 22.0801L18.125 22.0801C18.6816 22.0801 19.0625 21.6797 19.0625 21.123C19.0625 20.5664 18.6816 20.166 18.125 20.166Z" fill="black" fill-opacity="0.85"/>
 </g>
</svg>
