<?xml version="1.0" ?><!-- Generator: Adobe Illustrator 25.0.0, SVG Export Plug-In . SVG Version: 6.00 Build 0)  --><svg xmlns="http://www.w3.org/2000/svg" xmlns:xlink="http://www.w3.org/1999/xlink" version="1.1" id="Layer_1" x="0px" y="0px" viewBox="0 0 512 512" style="enable-background:new 0 0 512 512;" xml:space="preserve">
<path d="M256,512c140,0,256-116.2,256-256C512,116,395.8,0,255.7,0C116,0,0,116,0,256C0,395.8,116.2,512,256,512z M174.4,320.3  c-11.3,0-19.1-8.8-19.1-20.8v-122c0-15.3,8.5-21.3,21.8-21.3h122.5c12.3,0,20.1,7.5,20.1,19.1c0,11.3-8,18.8-20.6,18.8h-46.7  l-38.4-4l40.4,37.6l95.1,94.9c3.8,3.8,6.3,9,6.3,14.1c0,11.8-7.8,19.3-19.1,19.3c-6.3,0-11.3-2.3-15.1-6L227.1,255l-37.4-39.9  l3.8,40.4v44.4C193.5,312.2,186,320.3,174.4,320.3z"/>
</svg>