<?xml version="1.0" encoding="UTF-8"?>
<!--Generator: Apple Native CoreSVG 326-->
<!DOCTYPE svg
PUBLIC "-//W3C//DTD SVG 1.1//EN"
       "http://www.w3.org/Graphics/SVG/1.1/DTD/svg11.dtd">
<svg version="1.1" xmlns="http://www.w3.org/2000/svg" xmlns:xlink="http://www.w3.org/1999/xlink" viewBox="0 0 23.3203 22.959">
 <g>
  <rect height="22.959" opacity="0" width="23.3203" x="0" y="0"/>
  <path d="M22.959 3.76953L22.959 19.1992C22.959 21.6797 21.6797 22.959 19.1504 22.959L3.79883 22.959C1.2793 22.959 0 21.6992 0 19.1992L0 3.76953C0 1.26953 1.2793 0 3.79883 0L19.1504 0C21.6797 0 22.959 1.2793 22.959 3.76953ZM13.4863 9.55078C13.3008 9.55078 13.0859 9.64844 12.9492 9.78516C12.6465 10.0879 12.6465 10.498 12.9395 10.8008C13.0957 10.9375 13.2715 11.0156 13.4668 11.0156L15.5566 10.9863L16.5137 10.9668L15.9668 11.4648L9.74609 17.6758C9.45312 17.9785 9.45312 18.4082 9.75586 18.7109C10.0488 19.0039 10.4883 19.0137 10.7812 18.7109L17.002 12.5098L17.5098 11.9629L17.4805 12.9004L17.4512 14.9805C17.4512 15.1953 17.5195 15.3711 17.666 15.5273C17.959 15.8203 18.3887 15.8203 18.6914 15.5273C18.8184 15.4004 18.8867 15.1855 18.8965 14.9707L18.9355 10.2832C18.9355 9.84375 18.5938 9.53125 18.1836 9.53125ZM12.207 4.25781L5.98633 10.4688L5.49805 11.0059L5.52734 10.0684L5.54688 7.99805C5.55664 7.79297 5.46875 7.59766 5.32227 7.46094C5.0293 7.1582 4.59961 7.1582 4.30664 7.46094C4.16992 7.58789 4.08203 7.8125 4.08203 8.00781L4.04297 12.6855C4.04297 13.1055 4.4043 13.4668 4.81445 13.457L9.51172 13.4277C9.7168 13.418 9.90234 13.3301 10.0391 13.1934C10.3418 12.9102 10.3418 12.4805 10.0488 12.1875C9.90234 12.0312 9.72656 11.9629 9.51172 11.9629L7.44141 11.9922L6.48438 12.0117L7.03125 11.5137L13.2422 5.30273C13.5352 5 13.5352 4.56055 13.2422 4.26758C12.9492 3.97461 12.5098 3.96484 12.207 4.25781Z" fill="black" fill-opacity="0.85"/>
 </g>
</svg>
