<?xml version="1.0" ?><!-- Generator: Adobe Illustrator 25.0.0, SVG Export Plug-In . SVG Version: 6.00 Build 0)  --><svg xmlns="http://www.w3.org/2000/svg" xmlns:xlink="http://www.w3.org/1999/xlink" version="1.1" id="Layer_1" x="0px" y="0px" viewBox="0 0 512 512" style="enable-background:new 0 0 512 512;" xml:space="preserve">
<path d="M87.3,512h337.3c58.4,0,87.3-28.9,87.3-86.2V86.2C512,28.9,483.1,0,424.7,0H87.3C29.2,0,0,28.6,0,86.2v339.6  C0,483.4,29.2,512,87.3,512z M359,389.9c-7.5,7.5-20.6,7.5-27.8,0l-70.4-71.8c-3.6-4.2-5.6-9.2-5.6-13.6c0-10.8,7.2-18.4,18.1-18.4  c5.3,0,9.7,1.7,13.3,5.6l29.5,30l10.6,12l-0.6-13.3V134.3c0-10.6,8.1-18.4,18.9-18.4c10.6,0,18.6,7.8,18.6,18.4v185.8l-0.6,13.3  l10.8-11.7l29.5-30c3.3-3.3,8.1-5.6,13.1-5.6c11.1,0,18.6,7.5,18.6,18.4c0,4.7-2.8,9.7-6.1,13.6L359,389.9z M153.5,121.8  c8.1-8.1,20-7.5,27.5,0l70.4,72c3.3,3.3,5.8,8.6,5.8,13.3c0,10.8-7.8,18.6-18.4,18.6c-5,0-9.7-1.9-13.1-5.3l-29.5-30.9L185.5,178  l0.8,13.6v185.8c0,10.3-8.1,18.1-19.2,18.1c-10.6,0-18.4-7.8-18.4-18.1V191.9l0.3-13.9l-10.8,11.7L108.7,220  c-3.3,3.6-8.1,5.8-12.8,5.8c-10.8,0-18.9-8.1-18.9-18.6c0-4.2,2.8-9.5,5.8-13.3L153.5,121.8z"/>
</svg>