<?xml version="1.0" encoding="UTF-8"?>
<!--Generator: Apple Native CoreSVG 326-->
<!DOCTYPE svg
PUBLIC "-//W3C//DTD SVG 1.1//EN"
       "http://www.w3.org/Graphics/SVG/1.1/DTD/svg11.dtd">
<svg version="1.1" xmlns="http://www.w3.org/2000/svg" xmlns:xlink="http://www.w3.org/1999/xlink" viewBox="0 0 28.6523 25.8887">
 <g>
  <rect height="25.8887" opacity="0" width="28.6523" x="0" y="0"/>
  <path d="M28.291 11.377C28.291 17.627 22.2656 22.7539 13.5059 22.7539C13.2324 22.7539 12.9688 22.7344 12.6953 22.7051C12.5195 22.7051 12.3438 22.7539 12.1289 22.9102C9.94141 24.375 6.46484 25.8789 5.00977 25.8789C4.07227 25.8789 3.83789 25.1367 4.32617 24.5117C4.81445 23.8965 5.94727 22.6074 6.5918 21.5234C6.69922 21.3184 6.64062 21.1328 6.43555 21.0254C2.4707 18.9355 0 15.3906 0 11.377C0 5.08789 6.2793 0 14.1504 0C22.0117 0 28.291 5.08789 28.291 11.377ZM13.5156 5.30273L9.22852 9.47266C9.05273 9.62891 8.96484 9.81445 8.96484 10.0586C8.96484 10.498 9.29688 10.8398 9.75586 10.8398C9.98047 10.8398 10.2246 10.752 10.3711 10.5664L12.5 8.34961L13.3301 7.4707L13.2715 9.375L13.2715 17.0703C13.2715 17.5488 13.6719 17.9395 14.1504 17.9395C14.6387 17.9395 15.0391 17.5488 15.0391 17.0703L15.0391 9.375L14.9707 7.48047L15.8008 8.34961L17.9297 10.5664C18.0762 10.752 18.3105 10.8398 18.5352 10.8398C18.9844 10.8398 19.3359 10.498 19.3359 10.0586C19.3359 9.81445 19.248 9.62891 19.0723 9.47266L14.7949 5.30273C14.5703 5.07812 14.3848 5.00977 14.1504 5.00977C13.9258 5.00977 13.7305 5.07812 13.5156 5.30273Z" fill="black" fill-opacity="0.85"/>
 </g>
</svg>
