<?xml version="1.0" encoding="UTF-8"?>
<!--Generator: Apple Native CoreSVG 326-->
<!DOCTYPE svg
PUBLIC "-//W3C//DTD SVG 1.1//EN"
       "http://www.w3.org/Graphics/SVG/1.1/DTD/svg11.dtd">
<svg version="1.1" xmlns="http://www.w3.org/2000/svg" xmlns:xlink="http://www.w3.org/1999/xlink" viewBox="0 0 25.9473 31.5137">
 <g>
  <rect height="31.5137" opacity="0" width="25.9473" x="0" y="0"/>
  <path d="M25.5859 3.79883L25.5859 21.5039C25.5859 24.0332 24.3262 25.3027 21.8262 25.3027L19.4824 25.3027L19.4824 9.9707C19.4824 7.46094 18.2227 6.17188 15.7227 6.17188L6.10352 6.17187L6.10352 3.79883C6.10352 1.26953 7.37305 0 9.87305 0L21.8262 0C24.3262 0 25.5859 1.2793 25.5859 3.79883ZM12.8613 2.50977C12.3438 2.50977 12.0996 2.8418 12.0996 3.20312L12.0996 3.44727C12.0996 3.80859 12.3438 4.14062 12.8613 4.14062L18.8379 4.14062C19.3457 4.14062 19.5898 3.80859 19.5898 3.44727L19.5898 3.20312C19.5898 2.8418 19.3457 2.50977 18.8379 2.50977Z" fill="black" fill-opacity="0.85"/>
  <path d="M0 27.6758C0 30.2051 1.25977 31.4746 3.75977 31.4746L15.7227 31.4746C18.2227 31.4746 19.4824 30.1953 19.4824 27.6758L19.4824 9.9707C19.4824 7.46094 18.2227 6.17188 15.7227 6.17188L3.75977 6.17188C1.25977 6.17188 0 7.45117 0 9.9707ZM1.72852 27.6465L1.72852 10.0098C1.72852 8.64258 2.45117 7.90039 3.84766 7.90039L15.625 7.90039C17.0312 7.90039 17.7539 8.64258 17.7539 10.0098L17.7539 27.6465C17.7539 29.0039 17.0312 29.7461 15.625 29.7461L3.84766 29.7461C2.45117 29.7461 1.72852 29.0039 1.72852 27.6465Z" fill="black" fill-opacity="0.85"/>
  <path d="M9.67773 13.4277C9.48242 13.4277 9.30664 13.4961 9.11133 13.6719L5.57617 17.1289C5.42969 17.2559 5.3418 17.4316 5.3418 17.627C5.3418 18.0273 5.6543 18.3398 6.05469 18.3398C6.23047 18.3398 6.45508 18.252 6.60156 18.0859L8.35938 16.2305L8.94531 15.6445L8.89648 17.0215L8.89648 23.4473C8.89648 23.8574 9.25781 24.209 9.67773 24.209C10.0879 24.209 10.4492 23.8574 10.4492 23.4473L10.4492 17.0215L10.4102 15.6543L10.9863 16.2305L12.7441 18.0859C12.8906 18.252 13.1055 18.3398 13.2812 18.3398C13.6719 18.3398 14.0039 18.0273 14.0039 17.627C14.0039 17.4316 13.916 17.2559 13.7598 17.1289L10.2344 13.6719C10.0391 13.4961 9.85352 13.4277 9.67773 13.4277Z" fill="black" fill-opacity="0.85"/>
 </g>
</svg>
