<?xml version="1.0" ?><!-- Generator: Adobe Illustrator 25.0.0, SVG Export Plug-In . SVG Version: 6.00 Build 0)  --><svg xmlns="http://www.w3.org/2000/svg" xmlns:xlink="http://www.w3.org/1999/xlink" version="1.1" id="Layer_1" x="0px" y="0px" viewBox="0 0 512 512" style="enable-background:new 0 0 512 512;" xml:space="preserve">
<path d="M87.3,512h337.3c58.4,0,87.3-28.9,87.3-86.2V86.2C512,28.9,483.1,0,424.7,0H87.3C29.2,0,0,28.6,0,86.2v339.6  C0,483.4,29.2,512,87.3,512z M87.9,467.2c-27.8,0-43.1-14.7-43.1-43.7V88.4c0-28.9,15.3-43.7,43.1-43.7h336.2  c27.5,0,43.1,14.7,43.1,43.7v335.1c0,28.9-15.6,43.7-43.1,43.7H87.9z M126,159.1c-7.5,7.2-7.2,20,0,27l69.8,68.4  c3.6,3.1,8.9,5.3,13.1,5.3c10.6,0,17.8-7.2,17.8-17.5c0-5-1.9-9.5-5.3-12.8l-29.5-28.6l-11.7-10.8l13.1,0.8h180.8  c10.3,0,17.8-8.1,17.8-18.4c0-10.3-7.5-17.8-17.8-17.8H193.6l-13.1,0.3l11.4-10.3l29.5-28.6c3.3-3.3,5.3-8.1,5.3-12.8  c0-10.6-7.2-17.8-17.8-17.8c-4.5,0-9.7,2.2-13.1,5.8L126,159.1z M386.3,352.4c7.5-7.5,7.2-18.9,0-26.1l-70.1-68.4  c-3.1-3.3-8.3-5.6-13.1-5.6c-10.6,0-17.8,7.2-17.8,17.5c0,5,1.9,9.5,5.3,12.8l30,28.6l11.4,10.8l-13.3-0.8H138.2  c-10,0-17.8,7.5-17.8,18.1c0,10.3,7.5,18.1,17.8,18.1h180.2l13.6-0.3l-11.4,10.3L290.9,396c-3.3,3.6-5.6,7.8-5.6,12.8  c0,10.3,7.8,17.8,17.8,17.8c4.2,0,9.5-2.2,13.1-5.6L386.3,352.4z"/>
</svg>