<?xml version="1.0" encoding="UTF-8"?>
<!--Generator: Apple Native CoreSVG 326-->
<!DOCTYPE svg
PUBLIC "-//W3C//DTD SVG 1.1//EN"
       "http://www.w3.org/Graphics/SVG/1.1/DTD/svg11.dtd">
<svg version="1.1" xmlns="http://www.w3.org/2000/svg" xmlns:xlink="http://www.w3.org/1999/xlink" viewBox="0 0 32.5 20.6348">
 <g>
  <rect height="20.6348" opacity="0" width="32.5" x="0" y="0"/>
  <path d="M6.24023 20.6152L19.6289 20.6152C22.6172 20.6152 24.3652 18.8965 24.3652 15.918L24.3652 4.69727C24.3652 1.71875 22.6172 0 19.6289 0L6.24023 0C3.36914 0 1.50391 1.71875 1.50391 4.69727L1.50391 15.918C1.50391 18.8965 3.26172 20.6152 6.24023 20.6152ZM6.55273 18.9941C4.41406 18.9941 3.23242 17.8906 3.23242 15.6543L3.23242 4.9707C3.23242 2.72461 4.41406 1.62109 6.55273 1.62109L19.3164 1.62109C21.4551 1.62109 22.6367 2.72461 22.6367 4.9707L22.6367 15.6543C22.6367 17.8906 21.4551 18.9941 19.3164 18.9941ZM24.1016 6.95312L24.1016 8.98438L30.1172 4.07227C30.2734 3.94531 30.4004 3.85742 30.5371 3.85742C30.7324 3.85742 30.8301 4.01367 30.8301 4.25781L30.8301 16.3574C30.8301 16.6113 30.7324 16.7578 30.5371 16.7578C30.4004 16.7578 30.2734 16.6602 30.1172 16.543L24.1016 11.6309L24.1016 13.6719L29.2773 17.998C29.7754 18.3984 30.293 18.6719 30.8105 18.6719C31.8262 18.6719 32.5 17.9297 32.5 16.8164L32.5 3.80859C32.5 2.69531 31.8262 1.94336 30.8105 1.94336C30.293 1.94336 29.7754 2.2168 29.2773 2.62695Z" fill="black" fill-opacity="0.85"/>
  <path d="M17.207 5.3418C16.9629 5.3418 16.7871 5.42969 16.6309 5.58594L11.1816 11.0547L9.20898 13.1543L9.4043 9.58008L9.4043 7.4707C9.4043 7.06055 9.0918 6.70898 8.66211 6.70898C8.22266 6.70898 7.86133 7.03125 7.86133 7.4707L7.86133 14.6191C7.86133 15.1855 8.14453 15.4688 8.7207 15.4688L15.8984 15.4688C16.3477 15.4688 16.6797 15.1074 16.6797 14.668C16.6797 14.2383 16.3281 13.9258 15.8984 13.9258L13.7402 13.9258L10.166 14.1309L12.2852 12.1582L17.7344 6.69922C17.9199 6.51367 18.0078 6.32812 18.0078 6.09375C18.0078 5.66406 17.6562 5.3418 17.207 5.3418Z" fill="black" fill-opacity="0.85"/>
 </g>
</svg>
