<?xml version="1.0" ?><!-- Generator: Adobe Illustrator 25.0.0, SVG Export Plug-In . SVG Version: 6.00 Build 0)  --><svg xmlns="http://www.w3.org/2000/svg" xmlns:xlink="http://www.w3.org/1999/xlink" version="1.1" id="Layer_1" x="0px" y="0px" viewBox="0 0 512 512" style="enable-background:new 0 0 512 512;" xml:space="preserve">
<path d="M410.1,512c15.7,0,28.7-0.3,37.1-1.9c10.6-2.4,20.3-9.2,20.3-23c0-14.1-10.3-23-24.1-23c-9.5,0-18.2,0.5-30.9,0.5  c-96.2,0-139-32.8-138.8-130.9l0.3-185.4l-2.2-73.7l54.2,59.6l88.9,88.9c4.3,4.3,10.6,6.5,17.1,6.5c13.6,0,23.3-10.3,23.3-23.6  c0-6.5-2.2-12.2-7.3-17.6L268.1,8.1C262.9,2.7,256.7,0,249.9,0c-6.8,0-13,2.7-18.2,8.1L52,188.4c-5.2,5.4-7.6,11.1-7.6,17.6  c0,13.3,9.8,23.6,23.3,23.6c6.5,0,13-2.2,17.1-6.5l88.9-88.9l53.9-59.4l-1.9,73.5v187.8C225.8,462.1,284.9,512,410.1,512z"/>
</svg>