<?xml version="1.0" ?><!-- Generator: Adobe Illustrator 25.0.0, SVG Export Plug-In . SVG Version: 6.00 Build 0)  --><svg xmlns="http://www.w3.org/2000/svg" xmlns:xlink="http://www.w3.org/1999/xlink" version="1.1" id="Layer_1" x="0px" y="0px" viewBox="0 0 512 512" style="enable-background:new 0 0 512 512;" xml:space="preserve">
<path d="M256,512c140,0,256-116.2,256-256C512,116,395.8,0,255.7,0C116,0,0,116,0,256C0,395.8,116.2,512,256,512z M416.6,256.3  c0,5.5-2.3,9.5-7.3,15.1l-74.8,75c-3.3,3.5-8,5.3-13.6,5.3c-10.5,0-18.6-8.3-18.6-18.8c0-5.8,2.3-10.3,5.5-14.1l19.6-19.3l31.1-25.9  l-54.7,2h-96.9l-54.7-2l31.4,25.9l19.6,19.3c3.3,3.8,5.5,8.3,5.5,14.1c0,10.5-8,18.8-18.6,18.8c-5.5,0-10.3-1.8-13.6-5.3l-74.8-75  c-5-5.5-7.3-9.5-7.3-15.1c0-5.8,2.3-10.3,7.3-15.3l74.8-74.8c3.3-3.8,8-5.5,13.6-5.5c10.5,0,18.6,8.3,18.6,19.1  c0,5.8-2,10.3-5.5,13.8l-19.6,19.1l-31.6,26.4l55-2.3h96.9l55,2.3l-31.4-26.4L308,193.5c-3.5-3.5-5.5-8-5.5-13.8  c0-10.8,8-19.1,18.6-19.1c5.5,0,10.3,1.8,13.6,5.5l74.8,74.8C414.4,246,416.6,250.5,416.6,256.3z"/>
</svg>