<?xml version="1.0" ?><!-- Generator: Adobe Illustrator 25.0.0, SVG Export Plug-In . SVG Version: 6.00 Build 0)  --><svg xmlns="http://www.w3.org/2000/svg" xmlns:xlink="http://www.w3.org/1999/xlink" version="1.1" id="Layer_1" x="0px" y="0px" viewBox="0 0 512 512" style="enable-background:new 0 0 512 512;" xml:space="preserve">
<path d="M256,512c140,0,256-116.2,256-256C512,116,395.8,0,255.7,0C116,0,0,116,0,256C0,395.8,116.2,512,256,512z M134.5,166.1  l65-63c3.3-3.5,8-5.5,12-5.5c9.8,0,16.8,6.8,16.8,16.6c0,4.5-1.8,8.8-5.3,12L196,152.8l-10.3,9.3l12-0.3h167.4  c9.8,0,16.8,7,16.8,16.8c0,9.5-7.3,17.1-16.8,17.1H197.5l-12-0.8l10.5,10l27.1,26.4c3.5,3.3,5.3,7.3,5.3,12c0,9.5-7,16.3-16.8,16.3  c-4,0-8.5-2-12-4.8l-65-63.7C127.7,184.7,127.7,172.9,134.5,166.1z M376.5,346.1l-64.8,63.7c-3.8,3.3-8.3,5.3-12.3,5.3  c-9.5,0-16.6-7-16.6-16.6c0-4.8,2-8.5,5.3-12l27.1-26.6l10.8-9.3l-12.5,0.3H145.8c-9.3,0-16.3-7.3-16.3-17.1s7-16.8,16.3-16.8h167.9  l12.3,0.8l-10.8-10l-27.6-26.4c-3.3-3.3-4.8-7.3-4.8-12c0-9.5,6.8-16.3,16.6-16.3c4.3,0,9,2,12.3,5l64.8,63.7  C383.2,328.5,383.7,339.1,376.5,346.1z"/>
</svg>