<?xml version="1.0" encoding="UTF-8"?>
<!--Generator: Apple Native CoreSVG 326-->
<!DOCTYPE svg
PUBLIC "-//W3C//DTD SVG 1.1//EN"
       "http://www.w3.org/Graphics/SVG/1.1/DTD/svg11.dtd">
<svg version="1.1" xmlns="http://www.w3.org/2000/svg" xmlns:xlink="http://www.w3.org/1999/xlink" viewBox="0 0 25.8008 25.459">
 <g>
  <rect height="25.459" opacity="0" width="25.8008" x="0" y="0"/>
  <path d="M12.7148 25.4395C19.7363 25.4395 25.4395 19.7461 25.4395 12.7246C25.4395 5.70312 19.7363 0 12.7148 0C5.69336 0 0 5.70312 0 12.7246C0 19.7461 5.69336 25.4395 12.7148 25.4395ZM12.7148 23.623C6.68945 23.623 1.81641 18.75 1.81641 12.7246C1.81641 6.69922 6.68945 1.82617 12.7148 1.82617C18.7402 1.82617 23.6133 6.69922 23.6133 12.7246C23.6133 18.75 18.7402 23.623 12.7148 23.623Z" fill="black" fill-opacity="0.85"/>
  <path d="M12.7148 20.1465C12.9395 20.1465 13.1836 20.0684 13.4668 19.7852L18.5938 14.2676C18.8965 13.9551 19.0234 13.75 19.0234 13.4473C19.0234 13.0078 18.6816 12.7051 18.2617 12.7051L15.3711 12.7051L15.3711 6.82617C15.3711 5.84961 14.834 5.29297 13.8867 5.29297L11.5234 5.29297C10.5762 5.29297 10.0391 5.84961 10.0391 6.82617L10.0391 12.7051L7.13867 12.7051C6.70898 12.7051 6.40625 13.0078 6.40625 13.4277C6.40625 13.7402 6.54297 13.9844 6.79688 14.2676L11.9824 19.7852C12.2559 20.0684 12.5 20.1465 12.7148 20.1465Z" fill="black" fill-opacity="0.85"/>
 </g>
</svg>
