<?xml version="1.0" encoding="UTF-8"?>
<!--Generator: Apple Native CoreSVG 326-->
<!DOCTYPE svg
PUBLIC "-//W3C//DTD SVG 1.1//EN"
       "http://www.w3.org/Graphics/SVG/1.1/DTD/svg11.dtd">
<svg version="1.1" xmlns="http://www.w3.org/2000/svg" xmlns:xlink="http://www.w3.org/1999/xlink" viewBox="0 0 23.3203 23.3105">
 <g>
  <rect height="23.3105" opacity="0" width="23.3203" x="0" y="0"/>
  <path d="M22.959 3.76953L22.959 19.1992C22.959 21.6797 21.6797 22.959 19.1504 22.959L3.79883 22.959C1.2793 22.959 0 21.6895 0 19.1992L0 3.76953C0 1.26953 1.2793 0 3.79883 0L19.1504 0C21.6797 0 22.959 1.2793 22.959 3.76953ZM8.22266 9.99023L8.22266 13.9258L8.27148 15.2148L7.65625 14.4238L6.17188 12.9004C6.02539 12.7441 5.81055 12.6465 5.58594 12.6465C5.12695 12.6465 4.74609 12.998 4.74609 13.457C4.74609 13.7012 4.82422 13.8965 4.99023 14.0527L8.31055 17.3242C8.51562 17.5195 8.76953 17.627 9.01367 17.627C9.26758 17.627 9.51172 17.5293 9.72656 17.3242L13.0762 14.043C13.2324 13.8965 13.3105 13.6914 13.3105 13.4473C13.3105 12.998 12.9492 12.6465 12.4805 12.6465C12.2363 12.6465 12.0312 12.7441 11.875 12.9004L10.2051 14.6289L9.78516 15.2051L9.83398 13.9258L9.83398 9.99023C9.83398 8.00781 11.0254 6.68945 12.8125 6.68945C14.707 6.68945 15.9668 8.02734 15.9668 10L15.9668 11.7773C15.9668 12.2754 16.2988 12.6172 16.7773 12.6172C17.2656 12.6172 17.5781 12.2656 17.5781 11.7578L17.5781 10C17.5781 7.05078 15.6934 5.07812 12.8125 5.07812C10.0488 5.07812 8.22266 7.04102 8.22266 9.99023Z" fill="black" fill-opacity="0.85"/>
 </g>
</svg>
