<?xml version="1.0" encoding="UTF-8"?>
<!--Generator: Apple Native CoreSVG 326-->
<!DOCTYPE svg
PUBLIC "-//W3C//DTD SVG 1.1//EN"
       "http://www.w3.org/Graphics/SVG/1.1/DTD/svg11.dtd">
<svg version="1.1" xmlns="http://www.w3.org/2000/svg" xmlns:xlink="http://www.w3.org/1999/xlink" viewBox="0 0 18.8477 18.5059">
 <g>
  <rect height="18.5059" opacity="0" width="18.8477" x="0" y="0"/>
  <path d="M0 4.6582L0.0195312 17.4707C0.0195312 18.0859 0.419922 18.5059 1.04492 18.5059L13.8672 18.5059C14.4629 18.5059 14.8633 18.0469 14.8633 17.5391C14.8633 17.0215 14.4141 16.6016 13.9062 16.6016L8.83789 16.6016L2.91016 16.7676L5.17578 14.7266L18.1934 1.69922C18.3789 1.50391 18.4863 1.25977 18.4863 1.02539C18.4863 0.517578 18.0273 0.0390625 17.4902 0.0390625C17.2559 0.0390625 17.0215 0.126953 16.8164 0.322266L3.78906 13.3496L1.74805 15.6152L1.93359 10.1758L1.93359 4.61914C1.93359 4.11133 1.50391 3.65234 0.966797 3.65234C0.449219 3.65234 0 4.08203 0 4.6582Z" fill="black" fill-opacity="0.85"/>
 </g>
</svg>
