<?xml version="1.0" encoding="UTF-8"?>
<!--Generator: Apple Native CoreSVG 326-->
<!DOCTYPE svg
PUBLIC "-//W3C//DTD SVG 1.1//EN"
       "http://www.w3.org/Graphics/SVG/1.1/DTD/svg11.dtd">
<svg version="1.1" xmlns="http://www.w3.org/2000/svg" xmlns:xlink="http://www.w3.org/1999/xlink" viewBox="0 0 33.916 26.084">
 <g>
  <rect height="26.084" opacity="0" width="33.916" x="0" y="0"/>
  <path d="M16.7773 26.084C17.207 26.084 17.5781 25.752 17.5781 25.3223L17.5781 0.791016C17.5781 0.361328 17.207 0.0292969 16.7773 0.0292969C16.3574 0.0292969 15.9863 0.361328 15.9863 0.791016L15.9863 25.3223C15.9863 25.752 16.3574 26.084 16.7773 26.084ZM1.68945 20.2344L12.2656 14.043C12.9688 13.623 12.959 12.5586 12.2656 12.1484L1.68945 5.87891C0.9375 5.43945 0 5.89844 0 6.71875L0 19.4336C0 20.2441 0.927734 20.6836 1.68945 20.2344ZM31.875 20.2344C32.627 20.6836 33.5547 20.2441 33.5547 19.4336L33.5547 6.71875C33.5547 5.89844 32.6172 5.43945 31.875 5.87891L21.2891 12.1484C20.5957 12.5586 20.5762 13.623 21.2891 14.043Z" fill="black" fill-opacity="0.85"/>
 </g>
</svg>
