<?xml version="1.0" encoding="UTF-8"?>
<!--Generator: Apple Native CoreSVG 326-->
<!DOCTYPE svg
PUBLIC "-//W3C//DTD SVG 1.1//EN"
       "http://www.w3.org/Graphics/SVG/1.1/DTD/svg11.dtd">
<svg version="1.1" xmlns="http://www.w3.org/2000/svg" xmlns:xlink="http://www.w3.org/1999/xlink" viewBox="0 0 23.3203 22.959">
 <g>
  <rect height="22.959" opacity="0" width="23.3203" x="0" y="0"/>
  <path d="M22.959 3.76953L22.959 19.1992C22.959 21.6797 21.6797 22.959 19.1504 22.959L3.79883 22.959C1.2793 22.959 0 21.6992 0 19.1992L0 3.76953C0 1.26953 1.2793 0 3.79883 0L19.1504 0C21.6797 0 22.959 1.2793 22.959 3.76953ZM9.17969 6.52344C8.65234 6.52344 8.32031 6.8457 8.32031 7.33398C8.32031 7.82227 8.66211 8.1543 9.19922 8.1543L12.0117 8.1543L13.8965 7.98828L12.0508 9.72656L6.79688 14.9707C6.63086 15.1367 6.52344 15.3516 6.52344 15.5762C6.52344 16.084 6.8457 16.416 7.33398 16.416C7.61719 16.416 7.82227 16.3184 7.98828 16.1523L13.2227 10.9082L14.9414 9.07227L14.7949 11.1621L14.7949 13.75C14.7949 14.2871 15.127 14.6191 15.625 14.6191C16.1035 14.6191 16.4355 14.2578 16.4355 13.7305L16.4355 7.43164C16.4355 6.78711 16.0742 6.52344 15.5176 6.52344Z" fill="black" fill-opacity="0.85"/>
 </g>
</svg>
