<?xml version="1.0" ?><!-- Generator: Adobe Illustrator 25.0.0, SVG Export Plug-In . SVG Version: 6.00 Build 0)  --><svg xmlns="http://www.w3.org/2000/svg" xmlns:xlink="http://www.w3.org/1999/xlink" version="1.1" id="Layer_1" x="0px" y="0px" viewBox="0 0 512 512" style="enable-background:new 0 0 512 512;" xml:space="preserve">
<path d="M367.7,65.7H199.3c-11.8,0-18.6,6-18.4,16.5c0.2,10.5,6.6,16.7,18.4,16.7h167.9c20.7,0,32.1,11,32.1,32.5V356l-30.8-33.1  l-19.9-19.4c-7-6.8-16.7-7.7-24-0.6c-7,7-6.6,17.2,0.4,24.2l69.7,69.3c13.6,13.4,28.5,13.4,42.2,0l69.5-69.3  c7.2-7,7.4-17.2,0.6-24.2c-7-7-17-6.4-24,0.6l-19.8,19.4l-30.6,32.9v-226C432.6,87,410.9,65.7,367.7,65.7z M144.3,446.3h168.3  c11.8,0,18.6-6,18.4-16.5c-0.2-10.8-6.6-16.7-18.4-16.7H145c-20.7,0-32.3-11-32.3-32.5V156l30.8,32.9l19.9,19.6c7,6.8,17,7.7,24,0.4  c7-6.8,6.6-17-0.4-24l-69.7-69.5c-13.4-13.2-28.5-13.2-42,0L5.6,185c-7.2,7-7.4,17.2-0.6,24c7.2,7.2,17,6.4,24-0.4l19.9-19.6  l30.6-32.7v226C79.4,425,101.3,446.3,144.3,446.3z"/>
</svg>