<?xml version="1.0" ?><!-- Generator: Adobe Illustrator 25.0.0, SVG Export Plug-In . SVG Version: 6.00 Build 0)  --><svg xmlns="http://www.w3.org/2000/svg" xmlns:xlink="http://www.w3.org/1999/xlink" version="1.1" id="Layer_1" x="0px" y="0px" viewBox="0 0 512 512" style="enable-background:new 0 0 512 512;" xml:space="preserve">
<path d="M87.3,512h337.3c58.4,0,87.3-28.9,87.3-86.2V86.2C512,28.9,483.1,0,424.7,0H87.3C29.2,0,0,28.6,0,86.2v339.6  C0,483.4,29.2,512,87.3,512z M87.9,467.2c-27.8,0-43.1-14.7-43.1-43.7V88.4c0-28.9,15.3-43.7,43.1-43.7h336.2  c27.5,0,43.1,14.7,43.1,43.7v335.1c0,28.9-15.6,43.7-43.1,43.7H87.9z M343.2,324.6c12.2,0,20.6-9.5,20.6-22.2V171  c0-16.4-9.2-22.8-23.4-22.8H208.6c-13.1,0-21.4,8.1-21.4,20.3c0,12.2,8.6,20.3,22,20.3h50.6l41.2-4.4l-43.4,40.3L154.9,327.3  c-3.9,3.9-6.4,9.5-6.4,15c0,12.5,8.1,20.6,20.3,20.6c6.7,0,12-2.5,15.9-6.4L287,254.2l40-42.8l-4.2,43.4v48.1  C322.9,315.9,330.9,324.6,343.2,324.6z"/>
</svg>