<?xml version="1.0" ?><!-- Generator: Adobe Illustrator 25.0.0, SVG Export Plug-In . SVG Version: 6.00 Build 0)  --><svg xmlns="http://www.w3.org/2000/svg" xmlns:xlink="http://www.w3.org/1999/xlink" version="1.1" id="Layer_1" x="0px" y="0px" viewBox="0 0 512 512" style="enable-background:new 0 0 512 512;" xml:space="preserve">
<path d="M479.5,34C451.2,5.7,411.2,1.2,363.7,1.2H147.4c-46.6,0-86.6,4.4-115,32.8C4.2,62.3,0,102,0,148.4v214.4  c0,47.5,4.2,86.9,32.5,115.2c28.3,28.3,68.3,32.8,115.5,32.8h215.7c47.5,0,87.5-4.4,115.8-32.8c28.3-28.3,32.5-67.7,32.5-115.2  V149.2C512,101.8,507.8,62.1,479.5,34z M467.3,141.5v228.8c0,28.9-3.6,58.3-20.5,75.2c-16.7,16.7-46.6,20.5-75.2,20.5h-231  c-28.6,0-58.6-3.9-75.5-20.5c-16.7-16.9-20.3-46.4-20.3-75.2v-228c0-29.2,3.6-59.1,20.3-75.8C81.9,49.6,112.2,46,141.3,46h230.2  c28.6,0,58.6,3.9,75.2,20.5C463.7,83.4,467.3,112.9,467.3,141.5z M256.3,114.3c-11.9,0-20.5,8.6-20.5,20.8v138.8l1.9,58.6  l-27.8-33.3l-33-33.3c-3.6-3.9-8.6-6.1-14.7-6.1c-11.4,0-20,8.6-20,20c0,5.8,1.7,10.8,5.6,14.4l92.7,92.2c5.6,5.6,10,8.1,15.8,8.1  c6.4,0,11.1-2.8,16.4-8.1l92.7-92.2c3.6-3.6,5.6-8.6,5.6-14.4c0-11.4-8.9-20-20.3-20c-6.1,0-11.1,1.9-14.7,6.1l-32.8,33.3l-28,33.6  l1.9-58.9V135.1C277.1,122.9,268.5,114.3,256.3,114.3z"/>
</svg>