<?xml version="1.0" encoding="UTF-8"?>
<!--Generator: Apple Native CoreSVG 326-->
<!DOCTYPE svg
PUBLIC "-//W3C//DTD SVG 1.1//EN"
       "http://www.w3.org/Graphics/SVG/1.1/DTD/svg11.dtd">
<svg version="1.1" xmlns="http://www.w3.org/2000/svg" xmlns:xlink="http://www.w3.org/1999/xlink" viewBox="0 0 28.8626 28.6768">
 <g>
  <rect height="28.6768" opacity="0" width="28.8626" x="0" y="0"/>
  <path d="M0.398082 15.1831L4.44105 18.8452C5.21254 19.5679 6.24769 19.0113 6.24769 18.0152L6.24769 15.2808L13.3082 15.2808L13.3082 22.3804L10.5543 22.3804C9.55824 22.3804 9.0016 23.4156 9.73402 24.187L13.3961 28.23C13.8942 28.7769 14.6461 28.7476 15.1246 28.2202L18.777 24.187C19.4996 23.4156 18.943 22.3804 17.9469 22.3804L15.2125 22.3804L15.2125 15.2808L22.2536 15.2808L22.2536 18.0152C22.2536 19.0113 23.2887 19.5679 24.0602 18.8452L28.0934 15.1929C28.6305 14.6949 28.6403 13.9527 28.1032 13.4546L24.0602 9.79251C23.2887 9.06986 22.2536 9.6265 22.2536 10.6226L22.2536 13.3667L15.2125 13.3667L15.2125 6.25736L17.9469 6.25736C18.943 6.25736 19.4996 5.2222 18.777 4.44095L15.1149 0.397983C14.6266-0.139127 13.8746-0.129361 13.3864 0.407748L9.73402 4.44095C9.0016 5.2222 9.55824 6.25736 10.5543 6.25736L13.3082 6.25736L13.3082 13.3667L6.24769 13.3667L6.24769 10.6226C6.24769 9.6265 5.21254 9.06986 4.44105 9.79251L0.407848 13.4449C-0.119496 13.9331-0.148793 14.6753 0.398082 15.1831Z" fill="black" fill-opacity="0.85"/>
 </g>
</svg>
