<?xml version="1.0" ?><!-- Generator: Adobe Illustrator 25.0.0, SVG Export Plug-In . SVG Version: 6.00 Build 0)  --><svg xmlns="http://www.w3.org/2000/svg" xmlns:xlink="http://www.w3.org/1999/xlink" version="1.1" id="Layer_1" x="0px" y="0px" viewBox="0 0 512 512" style="enable-background:new 0 0 512 512;" xml:space="preserve">
<path d="M68.2,455.9h375.6c45.6,0,68.2-22.6,68.2-67.3V123.4c0-44.7-22.6-67.3-68.2-67.3H68.2C22.8,56.1,0,78.5,0,123.4v265.1  C0,433.5,22.8,455.9,68.2,455.9z M73.2,289.3c0-3.9,1.7-7.8,6.1-12.2l94.5-94.5l17.2-15.6l-54.9,2H114c-9.3,0-16.5-6.3-16.5-15.6  c0-9.8,6.7-16.1,16.5-16.1h111c10,0,16.7,6.5,16.7,16.5v107.9c0,9.8-6.5,16.5-15.9,16.5c-9.6,0-15.9-6.7-15.9-16.5V240l2-52.3  l-15.6,17.4l-94.7,94.5c-4.3,4.3-8.3,6.1-11.9,6.1C80.8,305.6,73.2,297.8,73.2,289.3z M441.9,222.9c0,3.9-1.5,8-5.9,12.2l-94.7,94.5  l-16.9,15.9l54.9-2.2h21.9c9.1,0,16.5,6.3,16.5,15.9c0,9.6-6.9,15.9-16.5,15.9h-111c-10,0-16.7-6.5-16.7-16.3V250.5  c0-9.8,6.5-16.3,15.9-16.3c9.6,0,15.9,6.5,15.9,16.3v21.7l-2,52.5l15.6-17.4l94.5-94.7c4.6-4.3,8.5-5.9,12.2-5.9  C434.5,206.8,441.9,214.4,441.9,222.9z"/>
</svg>