<?xml version="1.0" encoding="UTF-8"?>
<!--Generator: Apple Native CoreSVG 326-->
<!DOCTYPE svg
PUBLIC "-//W3C//DTD SVG 1.1//EN"
       "http://www.w3.org/Graphics/SVG/1.1/DTD/svg11.dtd">
<svg version="1.1" xmlns="http://www.w3.org/2000/svg" xmlns:xlink="http://www.w3.org/1999/xlink" viewBox="0 0 23.3203 22.959">
 <g>
  <rect height="22.959" opacity="0" width="23.3203" x="0" y="0"/>
  <path d="M3.79883 22.959L19.1504 22.959C21.6797 22.959 22.959 21.6797 22.959 19.1992L22.959 3.76953C22.959 1.2793 21.6797 0 19.1504 0L3.79883 0C1.2793 0 0 1.26953 0 3.76953L0 19.1992C0 21.6992 1.2793 22.959 3.79883 22.959ZM3.83789 21.2305C2.4707 21.2305 1.72852 20.5078 1.72852 19.1016L1.72852 3.85742C1.72852 2.46094 2.4707 1.72852 3.83789 1.72852L19.1211 1.72852C20.459 1.72852 21.2305 2.46094 21.2305 3.85742L21.2305 19.1016C21.2305 20.5078 20.459 21.2305 19.1211 21.2305Z" fill="black" fill-opacity="0.85"/>
  <path d="M5.49805 7.1875C5.21484 7.46094 5.22461 7.95898 5.49805 8.24219L8.76953 11.4648C8.92578 11.5918 9.11133 11.6699 9.29688 11.6699C9.69727 11.6699 9.99023 11.3867 9.99023 10.9766C9.99023 10.791 9.91211 10.6055 9.77539 10.4688L8.32031 9.04297L7.63672 8.38867L8.35938 8.42773L16.9629 8.42773C17.373 8.42773 17.6758 8.11523 17.6758 7.71484C17.6758 7.31445 17.373 7.00195 16.9629 7.00195L8.36914 7.00195L7.64648 7.02148L8.32031 6.37695L9.77539 4.96094C9.91211 4.83398 9.99023 4.63867 9.99023 4.45312C9.99023 4.04297 9.69727 3.75 9.29688 3.75C9.11133 3.75 8.91602 3.83789 8.76953 3.98438ZM17.4512 15.791C17.7539 15.498 17.7344 15.0488 17.4512 14.7559L14.1797 11.5332C14.0527 11.4062 13.8477 11.3184 13.6621 11.3184C13.252 11.3184 12.959 11.6113 12.959 12.0117C12.959 12.207 13.0371 12.3828 13.1738 12.5195L14.6387 13.9453L15.332 14.5996L14.5996 14.5605L5.98633 14.5605C5.5957 14.5605 5.29297 14.8633 5.29297 15.2734C5.29297 15.6738 5.58594 15.9863 5.98633 15.9863L14.5898 15.9863L15.332 15.9668L14.6387 16.6016L13.1836 18.0273C13.0469 18.1641 12.959 18.3398 12.959 18.5352C12.959 18.9355 13.2617 19.2383 13.6621 19.2383C13.8379 19.2383 14.0332 19.1504 14.1797 19.0137Z" fill="black" fill-opacity="0.85"/>
 </g>
</svg>
