<?xml version="1.0" ?><!-- Generator: Adobe Illustrator 25.0.0, SVG Export Plug-In . SVG Version: 6.00 Build 0)  --><svg xmlns="http://www.w3.org/2000/svg" xmlns:xlink="http://www.w3.org/1999/xlink" version="1.1" id="Layer_1" x="0px" y="0px" viewBox="0 0 512 512" style="enable-background:new 0 0 512 512;" xml:space="preserve">
<path d="M511.8,387.3V35.6c0-21.3-13.5-35.6-35.2-35.6L124.9,0.7c-21,0-34.5,15.4-34.5,33s15.4,32.6,33,32.6h111.2l178.3-6.7  l-67.8,59.9L10.7,454.7c-6.7,6.7-10.5,15-10.5,22.8c0,17.6,15.7,34.5,34.1,34.5c8.6,0,16.5-3.4,23.2-10.1l334.8-335.2l60.3-67.8  l-7.1,170.4v119.5c0,17.2,15,33,33.3,33C496.5,421.7,511.8,407.1,511.8,387.3z"/>
</svg>