<?xml version="1.0" encoding="UTF-8"?>
<!--Generator: Apple Native CoreSVG 326-->
<!DOCTYPE svg
PUBLIC "-//W3C//DTD SVG 1.1//EN"
       "http://www.w3.org/Graphics/SVG/1.1/DTD/svg11.dtd">
<svg version="1.1" xmlns="http://www.w3.org/2000/svg" xmlns:xlink="http://www.w3.org/1999/xlink" viewBox="0 0 25.9473 31.5137">
 <g>
  <rect height="31.5137" opacity="0" width="25.9473" x="0" y="0"/>
  <path d="M25.5859 3.79883L25.5859 21.5039C25.5859 24.0332 24.3262 25.3027 21.8262 25.3027L19.4824 25.3027L19.4824 9.9707C19.4824 7.46094 18.2227 6.17188 15.7227 6.17188L6.10352 6.17187L6.10352 3.79883C6.10352 1.26953 7.37305 0 9.87305 0L21.8262 0C24.3262 0 25.5859 1.2793 25.5859 3.79883ZM12.8613 2.50977C12.3438 2.50977 12.0996 2.8418 12.0996 3.20312L12.0996 3.44727C12.0996 3.80859 12.3438 4.14062 12.8613 4.14062L18.8379 4.14062C19.3457 4.14062 19.5898 3.80859 19.5898 3.44727L19.5898 3.20312C19.5898 2.8418 19.3457 2.50977 18.8379 2.50977Z" fill="black" fill-opacity="0.85"/>
  <path d="M0 27.6758C0 30.2051 1.25977 31.4746 3.75977 31.4746L15.7227 31.4746C18.2227 31.4746 19.4824 30.1953 19.4824 27.6758L19.4824 9.9707C19.4824 7.46094 18.2227 6.17188 15.7227 6.17188L3.75977 6.17188C1.25977 6.17188 0 7.45117 0 9.9707ZM1.72852 27.6465L1.72852 10.0098C1.72852 8.64258 2.45117 7.90039 3.84766 7.90039L15.625 7.90039C17.0312 7.90039 17.7539 8.64258 17.7539 10.0098L17.7539 27.6465C17.7539 29.0039 17.0312 29.7461 15.625 29.7461L3.84766 29.7461C2.45117 29.7461 1.72852 29.0039 1.72852 27.6465Z" fill="black" fill-opacity="0.85"/>
  <path d="M3.06641 19.6484L6.57227 19.6484C6.97266 19.6484 7.07031 19.2676 6.8457 18.9648L5.2832 16.7383C5.0293 16.3672 4.60938 16.3477 4.33594 16.7383L2.80273 18.9648C2.57812 19.2676 2.67578 19.6484 3.06641 19.6484ZM9.76562 24.4043C11.1523 24.4043 12.4121 23.8867 13.3105 23.1055C13.7207 22.793 13.7207 22.3633 13.5156 22.0996C13.3203 21.8555 12.9395 21.7578 12.5195 22.0703C11.7871 22.6953 10.8398 23.0957 9.76562 23.0957C7.39258 23.0957 5.46875 21.1719 5.46875 18.8086L4.16016 18.8086C4.16016 21.9043 6.66992 24.4043 9.76562 24.4043ZM16.4648 17.9688L12.9492 17.9688C12.5488 17.9688 12.4609 18.3496 12.6758 18.6523L14.2383 20.8789C14.4922 21.25 14.9219 21.2695 15.1855 20.8789L16.7285 18.6523C16.9434 18.3496 16.8457 17.9688 16.4648 17.9688ZM9.76562 13.2129C8.37891 13.2129 7.10938 13.7305 6.21094 14.5117C5.80078 14.8242 5.80078 15.2539 6.00586 15.5176C6.20117 15.7617 6.58203 15.8594 7.00195 15.5469C7.73438 14.9219 8.68164 14.5215 9.76562 14.5215C12.1289 14.5215 14.0527 16.4453 14.0527 18.8086L15.3613 18.8086C15.3613 15.7129 12.8516 13.2129 9.76562 13.2129Z" fill="black" fill-opacity="0.85"/>
 </g>
</svg>
