<?xml version="1.0" encoding="UTF-8"?>
<!--Generator: Apple Native CoreSVG 326-->
<!DOCTYPE svg
PUBLIC "-//W3C//DTD SVG 1.1//EN"
       "http://www.w3.org/Graphics/SVG/1.1/DTD/svg11.dtd">
<svg version="1.1" xmlns="http://www.w3.org/2000/svg" xmlns:xlink="http://www.w3.org/1999/xlink" viewBox="0 0 29.9512 22.959">
 <g>
  <rect height="22.959" opacity="0" width="29.9512" x="0" y="0"/>
  <path d="M3.79883 22.959L25.7812 22.959C28.3105 22.959 29.5898 21.6797 29.5898 19.1992L29.5898 3.76953C29.5898 1.2793 28.3105 0 25.7812 0L3.79883 0C1.2793 0 0 1.26953 0 3.76953L0 19.1992C0 21.6992 1.2793 22.959 3.79883 22.959ZM3.83789 21.2305C2.4707 21.2305 1.72852 20.5078 1.72852 19.1016L1.72852 3.85742C1.72852 2.46094 2.4707 1.72852 3.83789 1.72852L25.752 1.72852C27.0898 1.72852 27.8516 2.46094 27.8516 3.85742L27.8516 19.1016C27.8516 20.5078 27.0898 21.2305 25.752 21.2305Z" fill="black" fill-opacity="0.85"/>
  <path d="M16.3281 4.16016C15.8789 4.16016 15.5664 4.51172 15.5664 4.99023L15.5664 10.1074C15.5664 10.6934 15.8984 10.9473 16.416 10.9473L21.5625 10.9473C22.0312 10.9473 22.3633 10.6348 22.3633 10.1855C22.3633 9.72656 22.0312 9.41406 21.543 9.41406L19.5703 9.41406L17.9688 9.55078L19.5508 8.07617L22.6562 4.96094C22.8027 4.82422 22.9102 4.60938 22.9102 4.4043C22.9102 3.92578 22.5879 3.62305 22.1387 3.62305C21.8848 3.62305 21.6992 3.71094 21.543 3.86719L18.4473 6.96289L16.9727 8.52539L17.0996 6.72852L17.0996 4.9707C17.0996 4.49219 16.7773 4.16016 16.3281 4.16016ZM13.2617 18.7988C13.7109 18.7988 14.0234 18.4473 14.0234 17.9785L14.0234 12.8613C14.0234 12.2656 13.6914 12.0117 13.1738 12.0117L8.01758 12.0117C7.55859 12.0117 7.22656 12.3242 7.22656 12.7832C7.22656 13.2324 7.55859 13.5449 8.03711 13.5449L10.0195 13.5449L11.6113 13.418L10.0293 14.8828L6.93359 17.998C6.78711 18.1445 6.67969 18.3496 6.67969 18.5645C6.67969 19.0332 6.99219 19.3359 7.44141 19.3359C7.70508 19.3359 7.89062 19.248 8.04688 19.1016L11.1426 15.9961L12.6172 14.4336L12.4902 16.2305L12.4902 17.998C12.4902 18.4668 12.8027 18.7988 13.2617 18.7988Z" fill="black" fill-opacity="0.85"/>
 </g>
</svg>
