<?xml version="1.0" encoding="UTF-8"?>
<!--Generator: Apple Native CoreSVG 326-->
<!DOCTYPE svg
PUBLIC "-//W3C//DTD SVG 1.1//EN"
       "http://www.w3.org/Graphics/SVG/1.1/DTD/svg11.dtd">
<svg version="1.1" xmlns="http://www.w3.org/2000/svg" xmlns:xlink="http://www.w3.org/1999/xlink" viewBox="0 0 29.9512 22.959">
 <g>
  <rect height="22.959" opacity="0" width="29.9512" x="0" y="0"/>
  <path d="M29.5898 3.76953L29.5898 19.1992C29.5898 21.6797 28.3105 22.959 25.7812 22.959L3.79883 22.959C1.2793 22.959 0 21.6992 0 19.1992L0 3.76953C0 1.26953 1.2793 0 3.79883 0L25.7812 0C28.3105 0 29.5898 1.2793 29.5898 3.76953ZM7.86133 12.0117C7.38281 12.0117 7.04102 12.334 7.04102 12.8125C7.04102 13.2715 7.38281 13.6035 7.88086 13.6035L9.89258 13.6035L11.5234 13.4668L9.89258 14.9707L6.73828 18.1348C6.60156 18.291 6.48438 18.4961 6.48438 18.7207C6.48438 19.209 6.80664 19.5312 7.27539 19.5312C7.54883 19.5312 7.73438 19.4336 7.90039 19.2773L11.0449 16.1328L12.5586 14.5215L12.4316 16.3574L12.4316 18.1445C12.4316 18.6426 12.7539 18.9844 13.2227 18.9844C13.6914 18.9844 14.0137 18.6133 14.0137 18.125L14.0137 12.8906C14.0137 12.2754 13.6719 12.0117 13.1348 12.0117ZM21.6895 3.69141L18.5449 6.83594L17.0312 8.44727L17.1582 6.61133L17.1582 4.81445C17.1582 4.32617 16.8359 3.98438 16.3672 3.98438C15.8984 3.98438 15.5762 4.3457 15.5762 4.83398L15.5762 10.0781C15.5762 10.6836 15.918 10.9473 16.4551 10.9473L21.7188 10.9473C22.207 10.9473 22.5488 10.625 22.5488 10.1562C22.5488 9.6875 22.207 9.35547 21.6992 9.35547L19.6973 9.35547L18.0566 9.50195L19.6875 7.98828L22.8418 4.82422C22.9883 4.66797 23.1055 4.46289 23.1055 4.23828C23.1055 3.75 22.7832 3.4375 22.3047 3.4375C22.041 3.4375 21.8555 3.53516 21.6895 3.69141Z" fill="black" fill-opacity="0.85"/>
 </g>
</svg>
