<?xml version="1.0" ?><!-- Generator: Adobe Illustrator 25.0.0, SVG Export Plug-In . SVG Version: 6.00 Build 0)  --><svg xmlns="http://www.w3.org/2000/svg" xmlns:xlink="http://www.w3.org/1999/xlink" version="1.1" id="Layer_1" x="0px" y="0px" viewBox="0 0 512 512" style="enable-background:new 0 0 512 512;" xml:space="preserve">
<path d="M25.3,305.9l180.8,180.8c33.4,33.4,66.4,33.6,99.6,0.7l181.7-182c33-33,32.7-66.1-0.7-99.6L306.2,25.3  c-33.4-33.4-66.4-33.9-99.6-0.7l-182,181.7C-8.5,239.6-8.1,272.5,25.3,305.9z M154.9,322.2v-59.4c0-45.2,21.4-66.8,66.8-66.8h64.1  v-29.8c0-15.1,15.6-21.7,27.5-12.4l55.1,42.7c14.4,11.5,14.4,25.3,0,36.8l-55.1,42.9c-12,9.3-27.5,2.7-27.5-12.4v-30h-63.7  c-19.9,0-29.8,9.9-29.8,30.9v57.6c0,13.3-7,20.8-18.7,21C161.4,343.4,154.9,335.5,154.9,322.2z"/>
</svg>