<?xml version="1.0" encoding="UTF-8"?>
<!--Generator: Apple Native CoreSVG 326-->
<!DOCTYPE svg
PUBLIC "-//W3C//DTD SVG 1.1//EN"
       "http://www.w3.org/Graphics/SVG/1.1/DTD/svg11.dtd">
<svg version="1.1" xmlns="http://www.w3.org/2000/svg" xmlns:xlink="http://www.w3.org/1999/xlink" viewBox="0 0 32.0787 26.9238">
 <g>
  <rect height="26.9238" opacity="0" width="32.0787" x="0" y="0"/>
  <path d="M10.7513 23.125C10.7513 25.6445 12.011 26.9238 14.511 26.9238L27.9583 26.9238C30.4485 26.9238 31.7181 25.6445 31.7181 23.125L31.7181 3.80859C31.7181 1.28906 30.4485 0.00976562 27.9583 0.00976562L14.511 0.00976562C12.011 0.00976562 10.7513 1.28906 10.7513 3.80859ZM12.4798 23.0859L12.4798 3.84766C12.4798 2.48047 13.2024 1.73828 14.6087 1.73828L27.8606 1.73828C29.2669 1.73828 29.9895 2.48047 29.9895 3.84766L29.9895 23.0859C29.9895 24.4531 29.2669 25.1953 27.8606 25.1953L14.6087 25.1953C13.2024 25.1953 12.4798 24.4531 12.4798 23.0859Z" fill="black" fill-opacity="0.85"/>
  <path d="M15.0774 19.4922C16.4641 19.4922 20.1067 17.4219 20.1067 13.0176C20.1067 8.60352 16.4641 6.5332 15.0774 6.5332C14.6575 6.5332 14.3645 6.74805 14.3645 7.19727L14.3645 18.8379C14.3645 19.2871 14.6575 19.4922 15.0774 19.4922ZM24.6477 16.2402C26.5325 16.2402 28.095 14.8047 28.095 13.0176C28.095 11.2305 26.5325 9.79492 24.6477 9.79492C22.636 9.79492 21.1321 11.2305 21.1224 13.0176C21.1126 14.8047 22.636 16.2402 24.6477 16.2402Z" fill="black" fill-opacity="0.85"/>
  <path d="M0.262978 11.3672C-0.283897 12.002 0.0676651 12.8613 0.897743 12.8613L3.13407 12.8613L3.13407 18.5059C3.13407 18.9941 3.50517 19.3555 3.98368 19.3555C4.4622 19.3555 4.82352 18.9941 4.82352 18.5059L4.82352 12.8613L7.04032 12.8613C7.90946 12.8613 8.22196 11.9727 7.68485 11.3672L4.63798 7.85156C4.25712 7.42188 3.70048 7.41211 3.30009 7.85156Z" fill="black" fill-opacity="0.85"/>
 </g>
</svg>
