<?xml version="1.0" encoding="UTF-8"?>
<!--Generator: Apple Native CoreSVG 326-->
<!DOCTYPE svg
PUBLIC "-//W3C//DTD SVG 1.1//EN"
       "http://www.w3.org/Graphics/SVG/1.1/DTD/svg11.dtd">
<svg version="1.1" xmlns="http://www.w3.org/2000/svg" xmlns:xlink="http://www.w3.org/1999/xlink" viewBox="0 0 34.7656 25.9668">
 <g>
  <rect height="25.9668" opacity="0" width="34.7656" x="0" y="0"/>
  <path d="M13.7988 2.97852L13.7988 3.17941L5.9668 10.4883C5.16602 11.25 4.82422 12.1094 4.82422 12.9688C4.82422 13.8086 5.16602 14.6875 5.97656 15.4297L13.7988 22.7828L13.7988 23.0371C13.7988 23.8086 13.252 24.375 12.4707 24.375C11.9141 24.375 11.4551 24.1406 10.9277 23.6426L0.996094 14.3066C0.527344 13.877 0.332031 13.4082 0.332031 12.9785C0.332031 12.5293 0.527344 12.0801 0.996094 11.6309L10.9277 2.36328C11.5039 1.82617 11.8945 1.57227 12.4512 1.57227C13.252 1.57227 13.7988 2.20703 13.7988 2.97852Z" fill="black" fill-opacity="0.85"/>
  <path d="M18.5156 24.3652C19.2969 24.3652 19.8438 23.7988 19.8438 23.0273L19.8438 18.0762L20.2539 18.0762C25.3711 18.0762 28.5547 19.3945 30.6445 23.4863C31.0254 24.2285 31.5332 24.3652 32.041 24.3652C32.6562 24.3652 33.2129 23.8281 33.2129 22.8613C33.2129 13.3496 28.9941 7.90039 20.2539 7.90039L19.8438 7.90039L19.8438 2.95898C19.8438 2.19727 19.2969 1.5625 18.4961 1.5625C17.9395 1.5625 17.5488 1.81641 16.9727 2.35352L7.04102 11.6211C6.57227 12.0703 6.37695 12.5195 6.37695 12.9688C6.37695 13.3984 6.57227 13.8574 7.04102 14.2969L16.9727 23.6328C17.5 24.1309 17.959 24.3652 18.5156 24.3652Z" fill="black" fill-opacity="0.85"/>
 </g>
</svg>
