<?xml version="1.0" ?><!-- Generator: Adobe Illustrator 25.0.0, SVG Export Plug-In . SVG Version: 6.00 Build 0)  --><svg xmlns="http://www.w3.org/2000/svg" xmlns:xlink="http://www.w3.org/1999/xlink" version="1.1" id="Layer_1" x="0px" y="0px" viewBox="0 0 512 512" style="enable-background:new 0 0 512 512;" xml:space="preserve">
<path d="M256,512c140,0,256-116.2,256-256C512,116,395.8,0,255.7,0C116,0,0,116,0,256C0,395.8,116.2,512,256,512z M256,469.3  c-118.5,0-213.1-94.9-213.1-213.3S137.3,42.7,255.7,42.7S469.1,137.5,469.3,256S374.5,469.3,256,469.3z M345.6,374l61.5-63.2  c3-3,5.3-7.8,5.3-11.5c0-9.5-6.8-16.3-16.1-16.3c-4.5,0-8.8,1.8-11.5,4.8l-25.9,26.9l-9.5,10l0.5-11.8V150.1c0-9.3-7-16.1-16.3-16.1  c-9.3,0-16.3,6.8-16.3,16.1V313l0.5,11.8l-9.5-10.3l-25.9-26.9c-3.3-3-7-4.8-11.5-4.8c-9.5,0-15.8,6.5-15.8,16.3  c0,3.8,1.8,8.3,4.5,11.5l61.7,63.2C327.3,380,338.8,381,345.6,374z M166.1,139l-62,63c-2.8,3.5-5,8-5,11.8c0,9.3,7,16.1,16.3,16.1  c4.3,0,8.3-2,11.3-5l25.9-26.6l9.5-10.5l-0.5,12.3v162.9c0,9,7,15.8,16.3,15.8c9.5,0,16.3-6.8,16.3-15.8V199.8l-0.5-12l9.5,10.5  l26.1,26.9c3,3,7,4.8,11.3,4.8c9.3,0,15.8-6.5,15.8-16.1c0-4-2-8.8-4.8-11.8L190,139C184,132.8,173.4,131.8,166.1,139z"/>
</svg>