<?xml version="1.0" encoding="UTF-8"?>
<!--Generator: Apple Native CoreSVG 326-->
<!DOCTYPE svg
PUBLIC "-//W3C//DTD SVG 1.1//EN"
       "http://www.w3.org/Graphics/SVG/1.1/DTD/svg11.dtd">
<svg version="1.1" xmlns="http://www.w3.org/2000/svg" xmlns:xlink="http://www.w3.org/1999/xlink" viewBox="0 0 44.8828 29.0527">
 <g>
  <rect height="29.0527" opacity="0" width="44.8828" x="0" y="0"/>
  <path d="M13.5449 17.793L13.5449 26.7285C13.5449 28.0469 12.5488 29.0332 11.25 29.0332L2.28516 29.0332C0.976562 29.0332 0 28.0469 0 26.7285L0 17.793C0 16.4844 0.976562 15.4785 2.28516 15.4785L11.25 15.4785C12.5488 15.4785 13.5449 16.4844 13.5449 17.793ZM44.5215 17.793L44.5215 26.7285C44.5215 28.0469 43.5254 29.0332 42.2266 29.0332L33.2617 29.0332C31.9629 29.0332 30.9668 28.0469 30.9668 26.7285L30.9668 17.793C30.9668 16.4844 31.9629 15.4785 33.2617 15.4785L42.2266 15.4785C43.5254 15.4785 44.5215 16.4844 44.5215 17.793ZM2.28516 17.0117C1.85547 17.0117 1.5332 17.3438 1.5332 17.793L1.5332 26.7285C1.5332 27.1777 1.85547 27.5 2.28516 27.5L11.25 27.5C11.6895 27.5 12.0117 27.1777 12.0117 26.7285L12.0117 17.793C12.0117 17.3438 11.6895 17.0117 11.25 17.0117ZM33.2617 17.0117C32.832 17.0117 32.5 17.3438 32.5 17.793L32.5 26.7285C32.5 27.1777 32.832 27.5 33.2617 27.5L42.2266 27.5C42.666 27.5 42.9883 27.1777 42.9883 26.7285L42.9883 17.793C42.9883 17.3438 42.666 17.0117 42.2266 17.0117ZM29.0234 2.31445L29.0234 11.25C29.0234 12.5586 28.0273 13.5547 26.7285 13.5547L17.7637 13.5547C16.4648 13.5547 15.4785 12.5586 15.4785 11.25L15.4785 2.31445C15.4785 1.00586 16.4648 0 17.7637 0L26.7285 0C28.0273 0 29.0234 1.00586 29.0234 2.31445ZM17.7637 1.5332C17.334 1.5332 17.0117 1.86523 17.0117 2.31445L17.0117 11.25C17.0117 11.6895 17.334 12.0215 17.7637 12.0215L26.7285 12.0215C27.168 12.0215 27.5 11.6895 27.5 11.25L27.5 2.31445C27.5 1.86523 27.168 1.5332 26.7285 1.5332Z" fill="black" fill-opacity="0.85"/>
  <path d="M29.0234 17.793L29.0234 26.7285C29.0234 28.0469 28.0273 29.0332 26.7285 29.0332L17.7637 29.0332C16.4648 29.0332 15.4785 28.0469 15.4785 26.7285L15.4785 17.793C15.4785 16.4844 16.4648 15.4785 17.7637 15.4785L26.7285 15.4785C28.0273 15.4785 29.0234 16.4844 29.0234 17.793ZM19.248 19.1113C18.75 19.1113 18.4473 19.6875 18.7305 20.166L21.6504 25.1074C21.9141 25.5469 22.5586 25.5566 22.832 25.1172L25.7812 20.166C26.0742 19.6973 25.7617 19.1113 25.2832 19.1113Z" fill="black" fill-opacity="0.85"/>
 </g>
</svg>
