<?xml version="1.0" ?><!-- Generator: Adobe Illustrator 25.0.0, SVG Export Plug-In . SVG Version: 6.00 Build 0)  --><svg xmlns="http://www.w3.org/2000/svg" xmlns:xlink="http://www.w3.org/1999/xlink" version="1.1" id="Layer_1" x="0px" y="0px" viewBox="0 0 512 512" style="enable-background:new 0 0 512 512;" xml:space="preserve">
<path d="M279.6,443.6c5.9,0,11.3-2.2,16.1-6.7l164.6-164.3c2.5-2.3,4.3-4.9,5.6-7.7c1.2-2.8,1.9-5.8,1.9-8.9c0-3-0.6-5.9-1.9-8.7  c-1.2-2.8-3.1-5.4-5.6-7.9L295.7,75.4c-4.8-4.6-10.1-6.9-16.1-6.9c-6.1,0-11.2,2-15.3,6.1c-4.1,4-6.2,9.1-6.2,15.2  c0,3,0.5,5.9,1.5,8.7c1,2.8,2.5,5.2,4.5,7.2l55.4,56.2l97.3,88.8l4.9-13.9l-73.7-2.7H21.8c-6.4,0-11.7,2.1-15.7,6.2S0,249.6,0,256  s2,11.8,6.1,16c4,4.2,9.3,6.3,15.7,6.3h326.2l73.7-2.7l-4.9-13.6l-97.3,88.3L264,406.7c-2,2-3.5,4.4-4.5,7.2c-1,2.8-1.5,5.6-1.5,8.4  c0,6.3,2.1,11.4,6.2,15.3C268.4,441.6,273.5,443.6,279.6,443.6z M489.7,443.6c6.4,0,11.8-2,16-5.9c4.2-4,6.3-9.1,6.3-15.3V90.4  c0-6.4-2.1-11.7-6.3-15.8c-4.2-4.1-9.5-6.2-16-6.2s-11.7,2.1-15.8,6.2c-4.1,4.1-6.2,9.4-6.2,15.8v331.8c0,6.3,2.1,11.4,6.2,15.3  C478,441.6,483.3,443.6,489.7,443.6z"/>
</svg>