<?xml version="1.0" ?><!-- Generator: Adobe Illustrator 25.0.0, SVG Export Plug-In . SVG Version: 6.00 Build 0)  --><svg xmlns="http://www.w3.org/2000/svg" xmlns:xlink="http://www.w3.org/1999/xlink" version="1.1" id="Layer_1" x="0px" y="0px" viewBox="0 0 512 512" style="enable-background:new 0 0 512 512;" xml:space="preserve">
<path d="M230.3,512c88.1,0,146.8-58.7,146.8-147.2v-46.9c0-11.1-9-20.1-20.1-20.1c-11.1,0-20.4,9-20.4,20.1v46.9  c0,63.9-42.8,106.8-106.3,106.8c-63.9,0-106.8-42.8-106.8-106.8v-218c0-63.4,42.8-106.5,106.8-106.5c63.4,0,106.3,43.1,106.3,106.5  v0.9h-33.4c-16.6,0-21.1,11.6-12.1,24.6l53,75.5c7.6,10.7,18.9,10.9,26.7,0l53.3-75.3c9.2-13.3,5-24.9-12.1-24.9h-35v-0.9  C377.1,58.5,318.4,0,230.3,0C141.8,0,83.1,58.5,83.1,146.8v218C83.1,453.3,141.8,512,230.3,512z"/>
</svg>