<?xml version="1.0" encoding="UTF-8"?>
<!--Generator: Apple Native CoreSVG 326-->
<!DOCTYPE svg
PUBLIC "-//W3C//DTD SVG 1.1//EN"
       "http://www.w3.org/Graphics/SVG/1.1/DTD/svg11.dtd">
<svg version="1.1" xmlns="http://www.w3.org/2000/svg" xmlns:xlink="http://www.w3.org/1999/xlink" viewBox="0 0 29.9512 22.959">
 <g>
  <rect height="22.959" opacity="0" width="29.9512" x="0" y="0"/>
  <path d="M29.5898 3.76953L29.5898 19.1992C29.5898 21.6797 28.3105 22.959 25.7812 22.959L3.79883 22.959C1.2793 22.959 0 21.6992 0 19.1992L0 3.76953C0 1.26953 1.2793 0 3.79883 0L25.7812 0C28.3105 0 29.5898 1.2793 29.5898 3.76953ZM3.55469 4.39453C3.55469 4.60938 3.66211 4.83398 3.81836 4.98047L8.19336 9.35547L10.0391 11.084L8.1543 10.9277L5.6543 10.9277C5.11719 10.9277 4.77539 11.2598 4.77539 11.748C4.77539 12.2363 5.10742 12.5586 5.63477 12.5586L11.6602 12.5586C12.2168 12.5586 12.5781 12.2949 12.5781 11.6406L12.5781 5.6543C12.5781 5.13672 12.2461 4.76562 11.7676 4.76562C11.2695 4.76562 10.9375 5.10742 10.9375 5.63477L10.9375 7.91992L11.0938 10.0098L9.36523 8.17383L5.01953 3.81836C4.85352 3.65234 4.64844 3.55469 4.36523 3.55469C3.87695 3.55469 3.55469 3.87695 3.55469 4.39453Z" fill="black" fill-opacity="0.85"/>
 </g>
</svg>
