<?xml version="1.0" encoding="UTF-8"?>
<!--Generator: Apple Native CoreSVG 326-->
<!DOCTYPE svg
PUBLIC "-//W3C//DTD SVG 1.1//EN"
       "http://www.w3.org/Graphics/SVG/1.1/DTD/svg11.dtd">
<svg version="1.1" xmlns="http://www.w3.org/2000/svg" xmlns:xlink="http://www.w3.org/1999/xlink" viewBox="0 0 32.959 23.3692">
 <g>
  <rect height="23.3692" opacity="0" width="32.959" x="0" y="0"/>
  <path d="M11.5625 2.64653L31.7188 2.64653C32.207 2.64653 32.5977 2.27543 32.5977 1.78715C32.5977 1.29887 32.207 0.91801 31.7188 0.91801L11.5625 0.91801C11.0742 0.91801 10.7031 1.29887 10.7031 1.78715C10.7031 2.27543 11.0742 2.64653 11.5625 2.64653ZM11.5625 9.24809L31.7188 9.24809C32.207 9.24809 32.5977 8.86723 32.5977 8.37895C32.5977 7.89067 32.207 7.50981 31.7188 7.50981L11.5625 7.50981C11.0742 7.50981 10.7031 7.89067 10.7031 8.37895C10.7031 8.86723 11.0742 9.24809 11.5625 9.24809ZM11.5625 15.8399L31.7188 15.8399C32.207 15.8399 32.5977 15.459 32.5977 14.9707C32.5977 14.4825 32.207 14.1114 31.7188 14.1114L11.5625 14.1114C11.0742 14.1114 10.7031 14.4825 10.7031 14.9707C10.7031 15.459 11.0742 15.8399 11.5625 15.8399ZM11.5625 22.4317L22.6953 22.4317C23.1836 22.4317 23.5645 22.0606 23.5645 21.5723C23.5645 21.0743 23.1836 20.7032 22.6953 20.7032L11.5625 20.7032C11.0742 20.7032 10.7031 21.0743 10.7031 21.5723C10.7031 22.0606 11.0742 22.4317 11.5625 22.4317Z" fill="black" fill-opacity="0.85"/>
  <path d="M3.90625 23.0274L6.33789 19.7852C6.79688 19.1797 6.55273 18.3887 5.74219 18.3887L3.93555 18.3887L3.93555 4.96098L5.74219 4.96098C6.5332 4.96098 6.81641 4.19926 6.33789 3.56449L3.90625 0.322307C3.58398-0.117146 2.96875-0.0976146 2.65625 0.322307L0.234375 3.56449C-0.244141 4.19926 0.0390625 4.96098 0.820312 4.96098L2.64648 4.96098L2.64648 18.3887L0.820312 18.3887C0.0390625 18.3887-0.244141 19.1602 0.234375 19.7852L2.65625 23.0274C2.97852 23.4571 3.58398 23.4668 3.90625 23.0274Z" fill="black" fill-opacity="0.85"/>
 </g>
</svg>
