<?xml version="1.0" encoding="UTF-8"?>
<!--Generator: Apple Native CoreSVG 326-->
<!DOCTYPE svg
PUBLIC "-//W3C//DTD SVG 1.1//EN"
       "http://www.w3.org/Graphics/SVG/1.1/DTD/svg11.dtd">
<svg version="1.1" xmlns="http://www.w3.org/2000/svg" xmlns:xlink="http://www.w3.org/1999/xlink" viewBox="0 0 23.3203 22.959">
 <g>
  <rect height="22.959" opacity="0" width="23.3203" x="0" y="0"/>
  <path d="M22.959 3.76953L22.959 19.1992C22.959 21.6797 21.6797 22.959 19.1504 22.959L3.79883 22.959C1.2793 22.959 0 21.6992 0 19.1992L0 3.76953C0 1.26953 1.2793 0 3.79883 0L19.1504 0C21.6797 0 22.959 1.2793 22.959 3.76953ZM5.9082 11.709C5.46875 11.709 5.11719 12.0605 5.11719 12.5C5.11719 12.9395 5.46875 13.291 5.9082 13.291L6.66992 13.2812L8.69141 13.1836L5.05859 16.6992C4.72656 17.0312 4.70703 17.5586 5.04883 17.8906C5.37109 18.2227 5.89844 18.2227 6.23047 17.8809L9.76562 14.2188L9.6582 16.3379L9.6582 17.0508C9.6582 17.5 10.0098 17.8516 10.4492 17.8516C10.8887 17.8516 11.2402 17.5 11.2402 17.0508L11.2402 12.6172C11.2402 11.9727 10.8984 11.709 10.332 11.709ZM16.7383 5.04883L13.2031 8.71094L13.3105 6.58203L13.3105 5.86914C13.3105 5.42969 12.959 5.07812 12.5195 5.07812C12.0801 5.07812 11.7285 5.42969 11.7285 5.86914L11.7285 10.3027C11.7285 10.9473 12.0703 11.2207 12.6367 11.2207L17.0605 11.2207C17.5 11.2207 17.8516 10.8691 17.8516 10.4199C17.8516 9.99023 17.5 9.63867 17.0605 9.63867L16.2988 9.63867L14.2676 9.74609L17.9102 6.2207C18.2422 5.89844 18.2617 5.36133 17.9199 5.03906C17.5977 4.70703 17.0703 4.70703 16.7383 5.04883Z" fill="black" fill-opacity="0.85"/>
 </g>
</svg>
