<?xml version="1.0" encoding="UTF-8"?>
<!--Generator: Apple Native CoreSVG 326-->
<!DOCTYPE svg
PUBLIC "-//W3C//DTD SVG 1.1//EN"
       "http://www.w3.org/Graphics/SVG/1.1/DTD/svg11.dtd">
<svg version="1.1" xmlns="http://www.w3.org/2000/svg" xmlns:xlink="http://www.w3.org/1999/xlink" viewBox="0 0 24.7461 23.4668">
 <g>
  <rect height="23.4668" opacity="0" width="24.7461" x="0" y="0"/>
  <path d="M0.00976562 8.1543C0.00976562 13.457 4.57031 18.6523 11.5527 23.1543C11.7969 23.3105 12.1387 23.4668 12.3828 23.4668C12.6172 23.4668 12.959 23.3105 13.2031 23.1543C20.1953 18.6523 24.7461 13.457 24.7461 8.1543C24.7461 3.79883 21.748 0.693359 17.7344 0.693359C15.4297 0.693359 13.4863 1.8457 12.3828 3.61328C11.2891 1.85547 9.32617 0.693359 7.03125 0.693359C3.01758 0.693359 0.00976562 3.79883 0.00976562 8.1543ZM1.74805 8.1543C1.74805 4.73633 3.98438 2.42188 7.01172 2.42188C9.36523 2.42188 10.7715 3.88672 11.6211 5.26367C11.9141 5.71289 12.1094 5.84961 12.3828 5.84961C12.6465 5.84961 12.8223 5.70312 13.1348 5.26367C14.0234 3.90625 15.4102 2.42188 17.7539 2.42188C20.7812 2.42188 23.0176 4.73633 23.0176 8.1543C23.0176 12.8711 18.0762 17.8906 12.6172 21.5234C12.5098 21.5918 12.4316 21.6504 12.3828 21.6504C12.334 21.6504 12.2559 21.5918 12.1484 21.5234C6.67969 17.8906 1.74805 12.8711 1.74805 8.1543Z" fill="black" fill-opacity="0.85"/>
  <path d="M13.0176 17.1191L13.0176 12.1191L12.9492 9.92188L14.375 11.377L15.4297 12.4512C15.5762 12.6074 15.791 12.6953 16.0059 12.6953C16.4355 12.6953 16.7676 12.3828 16.7676 11.9434C16.7676 11.6797 16.6504 11.4941 16.4648 11.3281L12.8027 7.88086C12.5781 7.68555 12.4023 7.60742 12.1973 7.60742C11.9824 7.60742 11.8066 7.68555 11.582 7.88086L7.91992 11.3281C7.73438 11.4941 7.61719 11.6797 7.61719 11.9434C7.61719 12.3828 7.93945 12.6953 8.37891 12.6953C8.58398 12.6953 8.80859 12.6074 8.95508 12.4512L10.0098 11.377L11.4355 9.92188L11.3672 12.1191L11.3672 17.1191C11.3672 17.5586 11.748 17.9199 12.1973 17.9199C12.6367 17.9199 13.0176 17.5586 13.0176 17.1191Z" fill="black" fill-opacity="0.85"/>
 </g>
</svg>
