<?xml version="1.0" encoding="UTF-8"?>
<!--Generator: Apple Native CoreSVG 326-->
<!DOCTYPE svg
PUBLIC "-//W3C//DTD SVG 1.1//EN"
       "http://www.w3.org/Graphics/SVG/1.1/DTD/svg11.dtd">
<svg version="1.1" xmlns="http://www.w3.org/2000/svg" xmlns:xlink="http://www.w3.org/1999/xlink" viewBox="0 0 28.136 27.8296">
 <g>
  <rect height="27.8296" opacity="0" width="28.136" x="0" y="0"/>
  <path d="M27.774 16.488L27.7154 7.40602C27.7154 7.13258 27.5983 6.84938 27.4225 6.6736C27.0319 6.28297 26.4752 6.29274 26.0944 6.6736C25.899 6.86891 25.8111 7.09352 25.8111 7.35719L25.86 11.3318L26.0358 14.5545L24.0924 12.4744L11.9244 0.296642C11.5338-0.0939828 10.9576-0.103748 10.5768 0.296642C10.1666 0.687267 10.1861 1.25367 10.5768 1.6443L22.7447 13.822L24.8346 15.7654L21.6022 15.5798L17.6373 15.531C17.3639 15.531 17.1393 15.6189 16.944 15.8142C16.5631 16.2048 16.5533 16.7517 16.944 17.1521C17.1295 17.3279 17.4029 17.4451 17.6861 17.4451L26.7682 17.5134C27.3444 17.533 27.7936 17.0838 27.774 16.488Z" fill="black" fill-opacity="0.85"/>
  <path d="M0.000601088 11.3123L0.0689605 20.3943C0.0689605 20.6775 0.186148 20.9509 0.361929 21.1267C0.752554 21.5271 1.29943 21.5173 1.69005 21.1267C1.88537 20.9412 1.97326 20.7166 1.97326 20.4431L1.91466 16.4685L1.74865 13.2556L3.69201 15.3357L15.86 27.5134C16.2506 27.9041 16.8072 27.9138 17.2076 27.5134C17.608 27.113 17.5983 26.5466 17.2076 26.156L5.03966 13.988L2.94982 12.0447L6.17248 12.2205L10.1471 12.2693C10.4205 12.2693 10.6256 12.1814 10.8209 11.9959C11.2213 11.6052 11.2311 11.0486 10.8209 10.658C10.6451 10.4822 10.3815 10.3748 10.0983 10.3748L1.00646 10.3064C0.440054 10.2869-0.0189302 10.7068 0.000601088 11.3123Z" fill="black" fill-opacity="0.85"/>
 </g>
</svg>
