<?xml version="1.0" encoding="UTF-8"?>
<!--Generator: Apple Native CoreSVG 326-->
<!DOCTYPE svg
PUBLIC "-//W3C//DTD SVG 1.1//EN"
       "http://www.w3.org/Graphics/SVG/1.1/DTD/svg11.dtd">
<svg version="1.1" xmlns="http://www.w3.org/2000/svg" xmlns:xlink="http://www.w3.org/1999/xlink" viewBox="0 0 24.7461 23.4668">
 <g>
  <rect height="23.4668" opacity="0" width="24.7461" x="0" y="0"/>
  <path d="M24.7461 8.1543C24.7461 13.457 20.1953 18.6523 13.2031 23.1543C12.959 23.3105 12.6172 23.4668 12.3828 23.4668C12.1387 23.4668 11.7969 23.3105 11.5527 23.1543C4.57031 18.6523 0.00976562 13.457 0.00976562 8.1543C0.00976562 3.79883 3.01758 0.693359 6.93359 0.693359C9.32617 0.693359 11.2891 2.05078 12.3828 4.11133C13.4863 2.04102 15.4297 0.693359 17.832 0.693359C21.748 0.693359 24.7461 3.79883 24.7461 8.1543ZM11.5625 7.57812L7.80273 11.0938C7.62695 11.2695 7.5 11.4453 7.5 11.7285C7.5 12.1875 7.83203 12.5098 8.29102 12.5098C8.50586 12.5098 8.73047 12.4121 8.88672 12.2559L9.9707 11.1523L11.4062 9.66797L11.3379 11.9238L11.3379 17.0215C11.3379 17.4707 11.7285 17.8418 12.1973 17.8418C12.6562 17.8418 13.0469 17.4707 13.0469 17.0215L13.0469 11.9238L12.9785 9.66797L14.4141 11.1523L15.498 12.2559C15.6543 12.4121 15.8691 12.5098 16.0938 12.5098C16.5332 12.5098 16.8848 12.1875 16.8848 11.7285C16.8848 11.4453 16.7578 11.2695 16.582 11.0938L12.8223 7.57812C12.5879 7.36328 12.4121 7.28516 12.1973 7.28516C11.9727 7.28516 11.7969 7.36328 11.5625 7.57812Z" fill="black" fill-opacity="0.85"/>
 </g>
</svg>
