<?xml version="1.0" encoding="UTF-8"?>
<!--Generator: Apple Native CoreSVG 326-->
<!DOCTYPE svg
PUBLIC "-//W3C//DTD SVG 1.1//EN"
       "http://www.w3.org/Graphics/SVG/1.1/DTD/svg11.dtd">
<svg version="1.1" xmlns="http://www.w3.org/2000/svg" xmlns:xlink="http://www.w3.org/1999/xlink" viewBox="0 0 24.7656 24.6387">
 <g>
  <rect height="24.6387" opacity="0" width="24.7656" x="0" y="0"/>
  <path d="M0 9.88281C0 15.3223 4.43359 19.7559 9.88281 19.7559C12.0801 19.7559 14.1016 19.0332 15.7422 17.8125L22.1777 24.2578C22.4219 24.5117 22.7637 24.6387 23.1152 24.6387C23.8867 24.6387 24.4043 24.0527 24.4043 23.3203C24.4043 22.959 24.2773 22.6465 24.043 22.4023L17.6367 15.9668C18.9648 14.2969 19.7656 12.1777 19.7656 9.88281C19.7656 4.43359 15.332 0 9.88281 0C4.43359 0 0 4.43359 0 9.88281ZM1.82617 9.88281C1.82617 5.43945 5.43945 1.82617 9.88281 1.82617C14.3262 1.82617 17.9297 5.43945 17.9297 9.88281C17.9297 14.3164 14.3262 17.9297 9.88281 17.9297C5.43945 17.9297 1.82617 14.3164 1.82617 9.88281ZM5.38086 9.38477C5.38086 10.0293 6.08398 10.1172 6.43555 9.78516L7.60742 8.60352L11.1133 12.1094L9.91211 13.3008C9.53125 13.6719 9.66797 14.3457 10.3125 14.3457L13.6426 14.3457C14.0723 14.3457 14.3359 14.0527 14.3359 13.5449L14.3359 10.3516C14.3359 9.70703 13.6328 9.61914 13.2812 9.95117L12.1191 11.123L8.61328 7.61719L9.80469 6.43555C10.1855 6.06445 10.0488 5.40039 9.4043 5.40039L6.07422 5.40039C5.64453 5.40039 5.38086 5.68359 5.38086 6.19141Z" fill="black" fill-opacity="0.85"/>
 </g>
</svg>
