<?xml version="1.0" encoding="UTF-8"?>
<!--Generator: Apple Native CoreSVG 326-->
<!DOCTYPE svg
PUBLIC "-//W3C//DTD SVG 1.1//EN"
       "http://www.w3.org/Graphics/SVG/1.1/DTD/svg11.dtd">
<svg version="1.1" xmlns="http://www.w3.org/2000/svg" xmlns:xlink="http://www.w3.org/1999/xlink" viewBox="0 0 23.3203 22.959">
 <g>
  <rect height="22.959" opacity="0" width="23.3203" x="0" y="0"/>
  <path d="M3.79883 22.959L19.1504 22.959C21.6797 22.959 22.959 21.6797 22.959 19.1992L22.959 3.76953C22.959 1.2793 21.6797 0 19.1504 0L3.79883 0C1.2793 0 0 1.26953 0 3.76953L0 19.1992C0 21.6992 1.2793 22.959 3.79883 22.959ZM3.83789 21.2305C2.4707 21.2305 1.72852 20.5078 1.72852 19.1016L1.72852 3.85742C1.72852 2.46094 2.4707 1.72852 3.83789 1.72852L19.1211 1.72852C20.459 1.72852 21.2305 2.46094 21.2305 3.85742L21.2305 19.1016C21.2305 20.5078 20.459 21.2305 19.1211 21.2305Z" fill="black" fill-opacity="0.85"/>
  <path d="M11.5039 3.83789C11.2695 3.83789 11.0742 3.93555 10.8789 4.14062L7.19727 7.8125C7.05078 7.95898 6.96289 8.14453 6.96289 8.37891C6.96289 8.81836 7.31445 9.15039 7.75391 9.15039C7.98828 9.15039 8.18359 9.0625 8.33008 8.90625L9.41406 7.80273L10.7812 6.25L10.6934 8.71094L10.6934 14.2188L10.7812 16.6797L9.41406 15.127L8.33008 14.0332C8.18359 13.8672 7.98828 13.7793 7.75391 13.7793C7.31445 13.7793 6.96289 14.1113 6.96289 14.5508C6.96289 14.7852 7.05078 14.9805 7.19727 15.127L10.8789 18.7988C11.0742 18.9941 11.2695 19.1016 11.5039 19.1016C11.7285 19.1016 11.9141 18.9941 12.1289 18.7988L15.8105 15.127C15.957 14.9805 16.0352 14.7852 16.0352 14.5508C16.0352 14.1113 15.6934 13.7793 15.2637 13.7793C15.0195 13.7793 14.8242 13.877 14.6777 14.0332L13.584 15.127L12.2266 16.6699L12.3145 14.2188L12.3145 8.71094L12.2266 6.25977L13.584 7.80273L14.6777 8.90625C14.8242 9.05273 15.0195 9.15039 15.2637 9.15039C15.6934 9.15039 16.0352 8.81836 16.0352 8.37891C16.0352 8.14453 15.957 7.95898 15.8105 7.8125L12.1289 4.14062C11.9141 3.93555 11.7285 3.83789 11.5039 3.83789Z" fill="black" fill-opacity="0.85"/>
 </g>
</svg>
