<?xml version="1.0" ?><!-- Generator: Adobe Illustrator 25.0.0, SVG Export Plug-In . SVG Version: 6.00 Build 0)  --><svg xmlns="http://www.w3.org/2000/svg" xmlns:xlink="http://www.w3.org/1999/xlink" version="1.1" id="Layer_1" x="0px" y="0px" viewBox="0 0 512 512" style="enable-background:new 0 0 512 512;" xml:space="preserve">
<path d="M0,335.9c0,103.8,68,172.8,189.4,172.8h62.6c14.9,0,24.7-10.8,24.7-24.1c0-13.3-9.8-24.1-24.7-24.1h-62.3  c-92.4,0-141.4-54.2-141.4-127.3c0-72.9,49-123.8,141.4-123.8h185.8l63.7-2.7l-51.5,43.9l-78,76.1c-4.3,4.3-6.5,9.5-6.5,16.5  c0,14.1,9.5,23.8,23.8,23.8c6,0,13-2.7,17.6-7.6l159.3-156.3c5.4-5.1,8.1-11.4,8.1-17.9c0-6.8-2.7-13-8.1-18.2L344.6,10.8  C340,6.2,332.9,3.2,327,3.2c-14.4,0-23.8,9.8-23.8,23.8c0,7,2.2,12.2,6.5,16.5l78,76.4l51.5,43.9l-63.7-3H193.7  C69.9,160.9,0,232.4,0,335.9z"/>
</svg>