<?xml version="1.0" encoding="UTF-8"?>
<!--Generator: Apple Native CoreSVG 326-->
<!DOCTYPE svg
PUBLIC "-//W3C//DTD SVG 1.1//EN"
       "http://www.w3.org/Graphics/SVG/1.1/DTD/svg11.dtd">
<svg version="1.1" xmlns="http://www.w3.org/2000/svg" xmlns:xlink="http://www.w3.org/1999/xlink" viewBox="0 0 29.1211 31.1142">
 <g>
  <rect height="31.1142" opacity="0" width="29.1211" x="0" y="0"/>
  <path d="M1.68945 26.9389L11.6406 26.9389C13.0664 26.9389 13.7012 26.3139 13.7012 24.8784L13.7012 9.79048C13.7012 8.84322 12.998 8.31587 12.207 8.31587C11.6797 8.31587 11.1816 8.55025 10.8203 9.07759L0.351562 24.2631C0.107422 24.6245 0 25.0346 0 25.4252C0 26.2358 0.537109 26.9389 1.68945 26.9389ZM27.0703 26.9389C28.2227 26.9389 28.7598 26.2358 28.7598 25.4252C28.7598 25.0346 28.6523 24.6245 28.4082 24.2631L17.9395 9.07759C17.5781 8.55025 17.0801 8.31587 16.5527 8.31587C15.7617 8.31587 15.0586 8.84322 15.0586 9.79048L15.0586 24.8784C15.0586 26.3139 15.6836 26.9389 17.1191 26.9389Z" fill="black" fill-opacity="0.85"/>
  <path d="M6.72852 5.44478L6.72852 3.75532L22.0312 3.75532L22.0312 5.43501C22.0312 6.24556 22.6953 6.44087 23.3203 5.98189L26.4844 3.7065C27.0117 3.3354 27.002 2.90572 26.4844 2.53462L23.3203 0.249465C22.6953-0.219285 22.0312-0.0239724 22.0312 0.806106L22.0312 2.46626L6.72852 2.46626L6.72852 0.806106C6.72852-0.0142068 6.06445-0.219285 5.42969 0.249465L2.26562 2.53462C1.75781 2.91548 1.74805 3.3354 2.26562 3.71626L5.42969 5.98189C6.06445 6.45064 6.72852 6.24556 6.72852 5.44478Z" fill="black" fill-opacity="0.85"/>
 </g>
</svg>
