<?xml version="1.0" ?><!-- Generator: Adobe Illustrator 25.0.0, SVG Export Plug-In . SVG Version: 6.00 Build 0)  --><svg xmlns="http://www.w3.org/2000/svg" xmlns:xlink="http://www.w3.org/1999/xlink" version="1.1" id="Layer_1" x="0px" y="0px" viewBox="0 0 512 512" style="enable-background:new 0 0 512 512;" xml:space="preserve">
<path d="M188.5,432.9c13.1,0,22.6-9.6,22.6-22.6V376l47.1,44.4c9.3,8.7,17,12.5,26.4,12.5c13.1,0,22.6-9.6,22.6-22.6v-73.7h5.6  c74.9,0,121.9,18.9,155.7,82c6.8,12.3,15.6,14.3,23.7,14.3c10.2,0,19.9-9.3,19.9-25.9c0-142.6-60.6-231.5-199.3-231.5h-5.6v-72.9  c0-12.9-9.5-23.5-23-23.5c-9.5,0-15.8,4.1-26,13.7l-47.1,44v-34.1c0-12.9-9.5-23.5-23-23.5c-9.5,0-15.8,4.1-26,13.7L9.6,235.2  C2.1,242.3,0,249.4,0,256c0,6.4,2.3,13.7,9.6,20.6L162,420.4C171.1,429,179,432.9,188.5,432.9z M174,389.7l-137.4-130  c-1.5-1.5-2.1-2.5-2.1-3.7s0.6-2.3,2.1-3.7L174,120.6c1-0.8,2.1-1.5,3.3-1.5c1.7,0,2.7,1.2,2.7,2.7v44l-74.1,69.4  c-7.5,7.1-9.8,14.3-9.8,20.8c0,6.4,2.5,13.7,9.8,20.6l74.1,70v41.9c0,1.7-1,2.9-2.7,2.9C176.3,391.4,175.2,390.8,174,389.7z   M273.6,391.4c-1.2,0-2.3-0.6-3.5-1.7l-137.4-130c-1.5-1.5-2.1-2.5-2.1-3.7s0.6-2.3,2.1-3.7l137.4-131.8c1-0.8,2.1-1.5,3.3-1.5  c1.7,0,2.7,1.2,2.7,2.7v76.6c0,4.4,2.1,6.4,6.6,6.4h25.9c132.3,0,172.3,91.8,176.1,182.9c0,1.5-0.6,2.1-1.5,2.1  c-0.8,0-1.2-0.6-1.7-1.9c-22.8-48.4-81.2-80.3-172.9-80.3h-25.9c-4.4,0-6.6,1.9-6.6,6.4v74.7C276.1,390.3,275.1,391.4,273.6,391.4z"/>
</svg>