<?xml version="1.0" encoding="UTF-8"?>
<!--Generator: Apple Native CoreSVG 326-->
<!DOCTYPE svg
PUBLIC "-//W3C//DTD SVG 1.1//EN"
       "http://www.w3.org/Graphics/SVG/1.1/DTD/svg11.dtd">
<svg version="1.1" xmlns="http://www.w3.org/2000/svg" xmlns:xlink="http://www.w3.org/1999/xlink" viewBox="0 0 25.8008 25.459">
 <g>
  <rect height="25.459" opacity="0" width="25.8008" x="0" y="0"/>
  <path d="M12.7148 25.4395C19.7363 25.4395 25.4395 19.7461 25.4395 12.7246C25.4395 5.70312 19.7363 0 12.7148 0C5.69336 0 0 5.70312 0 12.7246C0 19.7461 5.69336 25.4395 12.7148 25.4395ZM12.7148 23.623C6.68945 23.623 1.81641 18.75 1.81641 12.7246C1.81641 6.69922 6.68945 1.82617 12.7148 1.82617C18.7402 1.82617 23.6133 6.69922 23.6133 12.7246C23.6133 18.75 18.7402 23.623 12.7148 23.623Z" fill="black" fill-opacity="0.85"/>
  <path d="M4.42383 13.7793L8.78906 13.7793C9.30664 13.7793 9.42383 13.291 9.14062 12.8906L7.19727 10.127C6.875 9.66797 6.33789 9.64844 6.00586 10.127L4.08203 12.8906C3.80859 13.2812 3.92578 13.7793 4.42383 13.7793ZM12.6953 19.6484C14.3945 19.6484 15.9473 19.0234 17.0508 18.0762C17.5781 17.6758 17.5879 17.1191 17.3145 16.7773C17.0703 16.4551 16.582 16.3379 16.0352 16.7285C15.1465 17.4805 14.0039 17.959 12.6953 17.959C9.80469 17.959 7.46094 15.6152 7.46094 12.7246L5.77148 12.7246C5.77148 16.5527 8.86719 19.6484 12.6953 19.6484ZM20.9766 11.6699L16.6113 11.6699C16.0938 11.6699 15.9766 12.1484 16.2598 12.5488L18.2031 15.3125C18.5254 15.7715 19.0625 15.791 19.3945 15.3125L21.3184 12.5488C21.5918 12.1582 21.4746 11.6699 20.9766 11.6699ZM12.6953 5.79102C10.9961 5.79102 9.45312 6.41602 8.33984 7.36328C7.82227 7.77344 7.8125 8.33008 8.07617 8.67188C8.33008 8.98438 8.81836 9.10156 9.36523 8.71094C10.2539 7.95898 11.3965 7.48047 12.6953 7.48047C15.5859 7.48047 17.9395 9.83398 17.9395 12.7246L19.6289 12.7246C19.6289 8.89648 16.5234 5.79102 12.6953 5.79102Z" fill="black" fill-opacity="0.85"/>
 </g>
</svg>
