<?xml version="1.0" ?><!-- Generator: Adobe Illustrator 25.0.0, SVG Export Plug-In . SVG Version: 6.00 Build 0)  --><svg xmlns="http://www.w3.org/2000/svg" xmlns:xlink="http://www.w3.org/1999/xlink" version="1.1" id="Layer_1" x="0px" y="0px" viewBox="0 0 512 512" style="enable-background:new 0 0 512 512;" xml:space="preserve">
<path d="M255.9,452c7.3,0,13.9-5.8,13.9-13.1v-366c0-7.3-6.6-12.9-13.9-12.9c-7.3,0-13.7,5.6-13.7,12.9v366  C242.2,446.2,248.6,452,255.9,452z M474.1,365c17.8,10.9,37.9,3.2,37.9-19.7V166.5c0-22.3-19.7-30.6-37.9-19.5L332,234  c-18.7,11.4-18.4,32.6,0,44.1L474.1,365z M179.8,278c18.4-11.4,18.9-32.6,0-44.1L37.7,147C19.7,135.9,0,144.2,0,166.5v178.9  c0,22.9,20.1,30.6,37.7,19.7L179.8,278z M159.7,259.8l-125.8,78c-2.2,1.3-6.7,1.5-6.7-3.2V177.4c0-5.1,4.9-4.5,6.7-3.2L159.5,252  C164.2,255,162.5,258.2,159.7,259.8z M477.9,337.8l-125.6-78c-3-1.7-4.5-4.9,0-7.9l125.6-77.8c2.1-1.3,6.7-1.9,6.7,3.2v157.3  C484.6,339.3,480.3,339.1,477.9,337.8z"/>
</svg>