<?xml version="1.0" encoding="UTF-8"?>
<!--Generator: Apple Native CoreSVG 326-->
<!DOCTYPE svg
PUBLIC "-//W3C//DTD SVG 1.1//EN"
       "http://www.w3.org/Graphics/SVG/1.1/DTD/svg11.dtd">
<svg version="1.1" xmlns="http://www.w3.org/2000/svg" xmlns:xlink="http://www.w3.org/1999/xlink" viewBox="0 0 23.7598 18.916">
 <g>
  <rect height="18.916" opacity="0" width="23.7598" x="0" y="0"/>
  <path d="M0 9.45312C0 9.7168 0.107422 9.96094 0.322266 10.1562L8.76953 18.6133C8.98438 18.8086 9.19922 18.9062 9.45312 18.9062C9.99023 18.9062 10.3906 18.5156 10.3906 17.9883C10.3906 17.7344 10.3027 17.4805 10.1367 17.3047L6.70898 13.8477L2.14844 9.63867L1.92383 10.1855L5.77148 10.4004L22.4609 10.4004C23.0078 10.4004 23.3984 10 23.3984 9.45312C23.3984 8.89648 23.0078 8.50586 22.4609 8.50586L5.77148 8.50586L1.92383 8.71094L2.14844 9.26758L6.70898 5.05859L10.1367 1.5918C10.3027 1.41602 10.3906 1.17188 10.3906 0.917969C10.3906 0.390625 9.99023 0 9.45312 0C9.19922 0 8.96484 0.0878906 8.71094 0.341797L0.322266 8.74023C0.107422 8.94531 0 9.18945 0 9.45312Z" fill="black" fill-opacity="0.85"/>
 </g>
</svg>
