<?xml version="1.0" encoding="UTF-8"?>
<!--Generator: Apple Native CoreSVG 326-->
<!DOCTYPE svg
PUBLIC "-//W3C//DTD SVG 1.1//EN"
       "http://www.w3.org/Graphics/SVG/1.1/DTD/svg11.dtd">
<svg version="1.1" xmlns="http://www.w3.org/2000/svg" xmlns:xlink="http://www.w3.org/1999/xlink" viewBox="0 0 18.8477 18.5059">
 <g>
  <rect height="18.5059" opacity="0" width="18.8477" x="0" y="0"/>
  <path d="M0 13.877C0 14.4531 0.449219 14.8926 0.966797 14.8926C1.50391 14.8926 1.93359 14.4238 1.93359 13.916L1.93359 8.36914L1.74805 2.91992L3.78906 5.18555L16.8164 18.2129C17.0215 18.4082 17.2559 18.5059 17.4902 18.5059C18.0273 18.5059 18.4863 18.0176 18.4863 17.5098C18.4863 17.2852 18.3789 17.0312 18.1934 16.8359L5.17578 3.80859L2.91016 1.77734L8.83789 1.94336L13.9062 1.94336C14.4141 1.94336 14.8633 1.51367 14.8633 0.996094C14.8633 0.488281 14.4629 0.0390625 13.8672 0.0390625L1.04492 0.0390625C0.419922 0.0390625 0.0195312 0.458984 0.0195312 1.06445Z" fill="black" fill-opacity="0.85"/>
 </g>
</svg>
