<?xml version="1.0" ?><!-- Generator: Adobe Illustrator 25.0.0, SVG Export Plug-In . SVG Version: 6.00 Build 0)  --><svg xmlns="http://www.w3.org/2000/svg" xmlns:xlink="http://www.w3.org/1999/xlink" version="1.1" id="Layer_1" x="0px" y="0px" viewBox="0 0 512 512" style="enable-background:new 0 0 512 512;" xml:space="preserve">
<path d="M87.3,512h337.3c58.4,0,87.3-28.9,87.3-86.2V86.2C512,28.9,483.1,0,424.7,0H87.3C29.2,0,0,28.6,0,86.2v339.6  C0,483.4,29.2,512,87.3,512z M166,326.8c-12.5,0-20.9-9.7-20.9-23.1V168.5c0-17,9.2-23.6,23.9-23.6h135.7c13.6,0,22.2,8.3,22.2,21.1  c0,12.5-8.9,20.9-22.8,20.9h-51.7l-42.6-4.4l44.8,41.7l105.4,105.1c4.2,4.2,7,10,7,15.6c0,13.1-8.6,21.4-21.1,21.4  c-7,0-12.2-2.5-16.7-6.7L224.4,254.5L183,210.3l4.2,44.8v49.2C187.2,317.9,178.8,326.8,166,326.8z"/>
</svg>