<?xml version="1.0" ?><!-- Generator: Adobe Illustrator 25.0.0, SVG Export Plug-In . SVG Version: 6.00 Build 0)  --><svg xmlns="http://www.w3.org/2000/svg" xmlns:xlink="http://www.w3.org/1999/xlink" version="1.1" id="Layer_1" x="0px" y="0px" viewBox="0 0 512 512" style="enable-background:new 0 0 512 512;" xml:space="preserve">
<path d="M459.6,243.4c12.9,0,22.4-3,28.5-9.1c6.1-6.1,9.1-15.6,9.1-28.5V33.1c0-11.3-2.9-19.6-8.8-25c-5.9-5.4-12.8-8-20.8-8  c-3.6,0-7.4,0.5-11.3,1.6c-3.9,1.1-7.6,2.8-11.1,5.1L185.1,186.2c-5.1,3.5-8.8,7.6-11.2,12.4c-2.4,4.8-3.6,9.8-3.6,15  s1.1,10.1,3.4,14.6c2.2,4.5,5.5,8.2,9.9,11c4.3,2.8,9.7,4.2,16.1,4.2H459.6z M467.7,512c8,0,14.9-2.7,20.8-8  c5.9-5.4,8.8-13.7,8.8-25V306.2c0-12.9-3-22.4-9.1-28.5c-6.1-6.1-15.6-9.1-28.5-9.1H199.7c-6.4,0-11.7,1.4-16.1,4.2  c-4.3,2.8-7.6,6.5-9.9,11c-2.2,4.5-3.4,9.4-3.4,14.6c0,5.2,1.2,10.2,3.6,15c2.4,4.8,6.1,8.9,11.2,12.4L445.3,505  c3.5,2.5,7.2,4.2,11.1,5.3C460.3,511.5,464.1,512,467.7,512z" class="hierarchical-0:secondary SFSymbolsPreview4D4D4D" style="fill: #4D4D4D;"/>
<path d="M85.7,478.3L129,420c4.6-5.9,5.8-11.9,3.5-17.7c-2.3-5.9-7.2-8.8-14.6-8.8H86.6V118.5h31.3c7.4,0,12.3-2.9,14.6-8.8  c2.3-5.9,1.2-11.8-3.5-17.7L85.7,33.7c-2.9-4.1-6.7-6.1-11.4-6c-4.7,0.1-8.5,2.1-11.4,6L19.2,92c-4.3,5.8-5.5,11.7-3.4,17.6  c2.1,5.9,7.1,8.9,14.9,8.9h30.7v274.9H30.7c-7.5,0-12.5,2.9-14.8,8.8c-2.3,5.9-1.2,11.8,3.3,17.7l43.7,58.3  c2.9,3.9,6.7,5.9,11.4,5.9C79,484.2,82.8,482.2,85.7,478.3z" class="hierarchical-1:primary SFSymbolsPreview212121" style="fill: #212121;"/>
</svg>