<?xml version="1.0" encoding="UTF-8"?>
<!--Generator: Apple Native CoreSVG 326-->
<!DOCTYPE svg
PUBLIC "-//W3C//DTD SVG 1.1//EN"
       "http://www.w3.org/Graphics/SVG/1.1/DTD/svg11.dtd">
<svg version="1.1" xmlns="http://www.w3.org/2000/svg" xmlns:xlink="http://www.w3.org/1999/xlink" viewBox="0 0 21.4941 19.9707">
 <g>
  <rect height="19.9707" opacity="0" width="21.4941" x="0" y="0"/>
  <path d="M19.1309 0.0195312C18.6719 0.0195312 18.3203 0.214844 17.832 0.458984L1.25977 8.47656C0.3125 8.94531 0 9.38477 0 9.99023C0 10.6055 0.3125 11.0449 1.25977 11.5039L17.832 19.5312C18.3301 19.7754 18.6816 19.9707 19.1406 19.9707C19.9805 19.9707 20.498 19.3262 20.498 18.3301L20.498 1.66016C20.498 0.654297 19.9707 0.0195312 19.1309 0.0195312ZM18.6035 2.05078C18.7012 2.05078 18.7598 2.11914 18.7598 2.24609L18.7695 17.7344C18.7695 17.8711 18.7109 17.9395 18.623 17.9395C18.5449 17.9395 18.4863 17.9004 18.418 17.8711L2.44141 10.1953C2.36328 10.1562 2.27539 10.0879 2.27539 9.99023C2.27539 9.90234 2.36328 9.83398 2.44141 9.79492L18.4082 2.11914C18.4766 2.08008 18.5352 2.05078 18.6035 2.05078Z" fill="black" fill-opacity="0.85"/>
 </g>
</svg>
