<?xml version="1.0" encoding="UTF-8"?>
<!--Generator: Apple Native CoreSVG 326-->
<!DOCTYPE svg
PUBLIC "-//W3C//DTD SVG 1.1//EN"
       "http://www.w3.org/Graphics/SVG/1.1/DTD/svg11.dtd">
<svg version="1.1" xmlns="http://www.w3.org/2000/svg" xmlns:xlink="http://www.w3.org/1999/xlink" viewBox="0 0 25.8008 25.459">
 <g>
  <rect height="25.459" opacity="0" width="25.8008" x="0" y="0"/>
  <path d="M12.7148 25.4395C19.7363 25.4395 25.4395 19.7461 25.4395 12.7246C25.4395 5.70312 19.7363 0 12.7148 0C5.69336 0 0 5.70312 0 12.7246C0 19.7461 5.69336 25.4395 12.7148 25.4395ZM12.7148 23.623C6.68945 23.623 1.81641 18.75 1.81641 12.7246C1.81641 6.69922 6.68945 1.82617 12.7148 1.82617C18.7402 1.82617 23.6133 6.69922 23.6133 12.7246C23.6133 18.75 18.7402 23.623 12.7148 23.623Z" fill="black" fill-opacity="0.85"/>
  <path d="M7.1582 13.3008C7.1582 16.416 9.62891 18.8965 12.7051 18.8965C15.791 18.8965 18.252 16.416 18.252 13.3301C18.252 12.9297 17.9004 12.5879 17.5 12.5879C17.0898 12.5879 16.748 12.9297 16.748 13.3301C16.748 15.5859 14.9512 17.3926 12.7051 17.3926C10.4492 17.3926 8.66211 15.5859 8.66211 13.3301C8.66211 11.084 10.4492 9.29688 12.7051 9.29688C12.9688 9.29688 13.2227 9.31641 13.4277 9.36523L11.9531 10.8203C11.7969 10.9668 11.7285 11.1426 11.7285 11.3477C11.7285 11.7285 12.0312 12.041 12.4316 12.041C12.6074 12.041 12.793 11.9531 12.9102 11.8359L15.4199 9.30664C15.6934 9.0332 15.6836 8.53516 15.4199 8.25195L12.9492 5.73242C12.8125 5.58594 12.627 5.49805 12.4219 5.49805C12.0215 5.49805 11.7188 5.81055 11.7188 6.20117C11.7188 6.39648 11.7969 6.58203 11.9141 6.71875L13.0664 7.88086C12.9102 7.86133 12.7051 7.83203 12.5195 7.83203C9.6582 7.83203 7.1582 10.2344 7.1582 13.3008Z" fill="black" fill-opacity="0.85"/>
 </g>
</svg>
