<?xml version="1.0" encoding="UTF-8"?>
<!--Generator: Apple Native CoreSVG 326-->
<!DOCTYPE svg
PUBLIC "-//W3C//DTD SVG 1.1//EN"
       "http://www.w3.org/Graphics/SVG/1.1/DTD/svg11.dtd">
<svg version="1.1" xmlns="http://www.w3.org/2000/svg" xmlns:xlink="http://www.w3.org/1999/xlink" viewBox="0 0 23.3203 22.959">
 <g>
  <rect height="22.959" opacity="0" width="23.3203" x="0" y="0"/>
  <path d="M3.79883 22.959L19.1504 22.959C21.6797 22.959 22.959 21.6797 22.959 19.1992L22.959 3.76953C22.959 1.2793 21.6797 0 19.1504 0L3.79883 0C1.2793 0 0 1.26953 0 3.76953L0 19.1992C0 21.6992 1.2793 22.959 3.79883 22.959ZM3.83789 21.2305C2.4707 21.2305 1.72852 20.5078 1.72852 19.1016L1.72852 3.85742C1.72852 2.46094 2.4707 1.72852 3.83789 1.72852L19.1211 1.72852C20.459 1.72852 21.2305 2.46094 21.2305 3.85742L21.2305 19.1016C21.2305 20.5078 20.459 21.2305 19.1211 21.2305Z" fill="black" fill-opacity="0.85"/>
  <path d="M15.5273 8.38867C15.0488 8.38867 14.7266 8.7207 14.7266 9.22852L14.7266 11.7871L14.873 13.8184L13.2031 12.041L8.05664 6.89453C7.90039 6.73828 7.70508 6.64062 7.43164 6.64062C6.95312 6.64062 6.64062 6.95312 6.64062 7.44141C6.64062 7.66602 6.74805 7.88086 6.9043 8.02734L12.0605 13.1836L13.8574 14.873L12.0215 14.7168L9.24805 14.7168C8.74023 14.7168 8.39844 15.0293 8.39844 15.5078C8.39844 15.9863 8.73047 16.2891 9.22852 16.2891L15.4297 16.2891C15.9668 16.2891 16.3184 16.0352 16.3184 15.4102L16.3184 9.24805C16.3184 8.75 15.9961 8.38867 15.5273 8.38867Z" fill="black" fill-opacity="0.85"/>
 </g>
</svg>
