<?xml version="1.0" encoding="UTF-8"?>
<!--Generator: Apple Native CoreSVG 326-->
<!DOCTYPE svg
PUBLIC "-//W3C//DTD SVG 1.1//EN"
       "http://www.w3.org/Graphics/SVG/1.1/DTD/svg11.dtd">
<svg version="1.1" xmlns="http://www.w3.org/2000/svg" xmlns:xlink="http://www.w3.org/1999/xlink" viewBox="0 0 19.707 23.6816">
 <g>
  <rect height="23.6816" opacity="0" width="19.707" x="0" y="0"/>
  <path d="M16.8457 0C11.123 0 8.50586 2.35352 8.50586 8.07617L8.50586 17.4512L8.58398 20.7422L6.04492 17.998L1.5918 13.5449C1.42578 13.3789 1.17188 13.291 0.917969 13.291C0.390625 13.291 0 13.6914 0 14.2285C0 14.4824 0.0878906 14.6973 0.292969 14.9121L8.74023 23.3594C8.94531 23.5742 9.18945 23.6816 9.45312 23.6816C9.7168 23.6816 9.96094 23.5742 10.166 23.3594L18.6133 14.9121C18.8184 14.6973 18.9062 14.4824 18.9062 14.2285C18.9062 13.6914 18.5156 13.291 17.9883 13.291C17.7344 13.291 17.4805 13.3789 17.3145 13.5449L12.8613 17.998L10.3125 20.752L10.4004 17.4512L10.3906 8.16406C10.3809 3.55469 12.3633 1.86523 16.9434 1.86523C17.5879 1.86523 18.0273 1.9043 18.3984 1.9043C18.9453 1.9043 19.3457 1.54297 19.3457 0.986328C19.3457 0.439453 18.9648 0.166016 18.5352 0.078125C18.1934 0.0195312 17.5684 0 16.8457 0Z" fill="black" fill-opacity="0.85"/>
 </g>
</svg>
