<?xml version="1.0" encoding="UTF-8"?>
<!--Generator: Apple Native CoreSVG 326-->
<!DOCTYPE svg
PUBLIC "-//W3C//DTD SVG 1.1//EN"
       "http://www.w3.org/Graphics/SVG/1.1/DTD/svg11.dtd">
<svg version="1.1" xmlns="http://www.w3.org/2000/svg" xmlns:xlink="http://www.w3.org/1999/xlink" viewBox="0 0 25.8008 25.459">
 <g>
  <rect height="25.459" opacity="0" width="25.8008" x="0" y="0"/>
  <path d="M25.4395 12.7246C25.4395 19.7266 19.7266 25.4395 12.7148 25.4395C5.71289 25.4395 0 19.7266 0 12.7246C0 5.71289 5.71289 0 12.7148 0C19.7266 0 25.4395 5.71289 25.4395 12.7246ZM17.5391 7.88086L17.5391 17.5586C17.5391 17.9883 17.8516 18.291 18.2812 18.291C18.7305 18.291 19.043 17.9883 19.043 17.5586L19.043 7.88086C19.043 7.44141 18.7305 7.13867 18.2812 7.13867C17.8516 7.13867 17.5391 7.44141 17.5391 7.88086ZM10.4102 8.19336C10.4102 8.4082 10.4785 8.61328 10.6445 8.75977L11.6406 9.73633L14.2285 12.0898L11.8555 11.9824L5.63477 11.9824C5.19531 11.9824 4.88281 12.2949 4.88281 12.7246C4.88281 13.1836 5.19531 13.4961 5.63477 13.4961L11.8555 13.4961L14.248 13.3594L11.6602 15.7031L10.6445 16.6699C10.4785 16.8066 10.4102 16.9922 10.4102 17.2266C10.4102 17.666 10.7227 17.959 11.1523 17.959C11.3574 17.959 11.5918 17.8516 11.748 17.6953L16.2207 13.291C16.3965 13.125 16.4746 12.9297 16.4746 12.7246C16.4746 12.5195 16.377 12.3242 16.2207 12.1582L11.7188 7.71484C11.5625 7.53906 11.3672 7.4707 11.1621 7.4707C10.7422 7.4707 10.4102 7.76367 10.4102 8.19336Z" fill="black" fill-opacity="0.85"/>
 </g>
</svg>
