<?xml version="1.0" encoding="UTF-8"?>
<!--Generator: Apple Native CoreSVG 326-->
<!DOCTYPE svg
PUBLIC "-//W3C//DTD SVG 1.1//EN"
       "http://www.w3.org/Graphics/SVG/1.1/DTD/svg11.dtd">
<svg version="1.1" xmlns="http://www.w3.org/2000/svg" xmlns:xlink="http://www.w3.org/1999/xlink" viewBox="0 0 25.8008 25.459">
 <g>
  <rect height="25.459" opacity="0" width="25.8008" x="0" y="0"/>
  <path d="M25.4395 12.7344C25.4395 19.7461 19.7266 25.459 12.7148 25.459C5.71289 25.459 0 19.7461 0 12.7344C0 5.73242 5.71289 0.0195312 12.7148 0.0195312C19.7266 0.0195312 25.4395 5.73242 25.4395 12.7344ZM11.4941 5.14648C10.5273 5.14648 9.9707 5.70312 9.9707 6.70898L9.9707 12.7246L7.01172 12.7246C6.5625 12.7246 6.25 13.0371 6.25 13.4766C6.25 13.7988 6.39648 14.043 6.66016 14.3359L11.9629 19.9805C12.2461 20.2734 12.4902 20.3516 12.7148 20.3516C12.9492 20.3516 13.1934 20.2734 13.4863 19.9805L18.7305 14.3359C19.043 14.0137 19.1797 13.8086 19.1797 13.4961C19.1797 13.0371 18.8184 12.7246 18.3887 12.7246L15.4395 12.7246L15.4395 6.70898C15.4395 5.70312 14.8828 5.14648 13.916 5.14648Z" fill="black" fill-opacity="0.85"/>
 </g>
</svg>
