<?xml version="1.0" ?><!-- Generator: Adobe Illustrator 25.0.0, SVG Export Plug-In . SVG Version: 6.00 Build 0)  --><svg xmlns="http://www.w3.org/2000/svg" xmlns:xlink="http://www.w3.org/1999/xlink" version="1.1" id="Layer_1" x="0px" y="0px" viewBox="0 0 512 512" style="enable-background:new 0 0 512 512;" xml:space="preserve">
<path d="M174.8,408.2c0,41.9,20.8,62.7,62.1,62.7h212.9c41.5,0,62.1-20.8,62.1-62.7V104.1c0-41.7-20.6-62.9-62.1-62.9H237  c-41.3,0-62.1,21.2-62.1,62.9V408.2z M207.1,407.5V104.7c0-20,10.8-31.3,31.7-31.3h209.5c20.8,0,31.5,11.2,31.5,31.3v302.9  c0,20-10.6,31.1-31.5,31.1H238.8C217.9,438.6,207.1,427.6,207.1,407.5z M343.4,249.8c28.7,0.2,51.5-24.1,51.5-56.1  c0-30.1-22.9-55.1-51.5-55.1c-28.5,0-51.3,25.1-51.3,55.1C292.1,225.7,314.9,249.6,343.4,249.8z M4.8,222.1  c-10,11.2-3.6,26.5,11.4,26.5h34.1v87.8c0,8.8,6.8,15.6,15.8,15.6c8.6,0,15.4-6.8,15.4-15.6v-87.8h33.7c15.8,0,21.2-15.8,11.6-26.5  L77.2,166c-6.6-7.6-16-7.6-22.9,0L4.8,222.1z M251.8,357.6H435c8,0,11.8-5.2,11.8-12.6c0-21.9-33.1-78.8-103.4-78.8  c-70.4,0-103.4,56.9-103.4,78.8C240,352.4,244,357.6,251.8,357.6z"/>
</svg>