<?xml version="1.0" encoding="UTF-8"?>
<!--Generator: Apple Native CoreSVG 326-->
<!DOCTYPE svg
PUBLIC "-//W3C//DTD SVG 1.1//EN"
       "http://www.w3.org/Graphics/SVG/1.1/DTD/svg11.dtd">
<svg version="1.1" xmlns="http://www.w3.org/2000/svg" xmlns:xlink="http://www.w3.org/1999/xlink" viewBox="0 0 29.9512 22.959">
 <g>
  <rect height="22.959" opacity="0" width="29.9512" x="0" y="0"/>
  <path d="M29.5898 3.76953L29.5898 19.1992C29.5898 21.6797 28.3105 22.959 25.7812 22.959L3.79883 22.959C1.2793 22.959 0 21.6992 0 19.1992L0 3.76953C0 1.26953 1.2793 0 3.79883 0L25.7812 0C28.3105 0 29.5898 1.2793 29.5898 3.76953ZM16.4551 12.0117C15.918 12.0117 15.5762 12.2754 15.5762 12.8906L15.5762 18.125C15.5762 18.6133 15.8984 18.9844 16.3672 18.9844C16.8359 18.9844 17.1582 18.6426 17.1582 18.1445L17.1582 16.3574L17.0312 14.5215L18.5449 16.1328L21.6895 19.2773C21.8555 19.4336 22.041 19.5312 22.3047 19.5312C22.7832 19.5312 23.1055 19.209 23.1055 18.7207C23.1055 18.4961 22.9883 18.291 22.8418 18.1348L19.6875 14.9707L18.0566 13.4668L19.6973 13.6035L21.6992 13.6035C22.207 13.6035 22.5488 13.2715 22.5488 12.8125C22.5488 12.334 22.207 12.0117 21.7188 12.0117ZM6.48438 4.23828C6.48438 4.46289 6.60156 4.66797 6.73828 4.82422L9.89258 7.98828L11.5234 9.50195L9.89258 9.35547L7.88086 9.35547C7.38281 9.35547 7.04102 9.6875 7.04102 10.1562C7.04102 10.625 7.38281 10.9473 7.86133 10.9473L13.1348 10.9473C13.6719 10.9473 14.0137 10.6836 14.0137 10.0781L14.0137 4.83398C14.0137 4.3457 13.6914 3.98438 13.2227 3.98438C12.7539 3.98438 12.4316 4.32617 12.4316 4.81445L12.4316 6.61133L12.5586 8.44727L11.0449 6.83594L7.90039 3.69141C7.73438 3.53516 7.54883 3.4375 7.27539 3.4375C6.80664 3.4375 6.48438 3.75 6.48438 4.23828Z" fill="black" fill-opacity="0.85"/>
 </g>
</svg>
