<?xml version="1.0" encoding="UTF-8"?>
<!--Generator: Apple Native CoreSVG 326-->
<!DOCTYPE svg
PUBLIC "-//W3C//DTD SVG 1.1//EN"
       "http://www.w3.org/Graphics/SVG/1.1/DTD/svg11.dtd">
<svg version="1.1" xmlns="http://www.w3.org/2000/svg" xmlns:xlink="http://www.w3.org/1999/xlink" viewBox="0 0 34.1309 26.084">
 <g>
  <rect height="26.084" opacity="0" width="34.1309" x="0" y="0"/>
  <path d="M11.9531 14.4238C13.0762 13.7305 13.1152 12.3926 11.9531 11.6895L2.37305 5.80078C1.26953 5.12695 0 5.58594 0 7.04102L0 19.0723C0 20.5469 1.28906 20.9766 2.37305 20.3027ZM10.8203 13.3496L2.08984 18.7598C1.91406 18.877 1.57227 18.8965 1.57227 18.4961L1.57227 7.61719C1.57227 7.19727 1.93359 7.24609 2.08984 7.35352L10.8105 12.7441C11.1523 12.959 11.0449 13.2227 10.8203 13.3496ZM16.8848 26.084C17.3145 26.084 17.6855 25.752 17.6855 25.3223L17.6855 0.791016C17.6855 0.361328 17.3145 0.0292969 16.8848 0.0292969C16.4648 0.0292969 16.0938 0.361328 16.0938 0.791016L16.0938 25.3223C16.0938 25.752 16.4648 26.084 16.8848 26.084ZM31.3965 20.3027C32.4902 20.9766 33.7695 20.5469 33.7695 19.0723L33.7695 7.04102C33.7695 5.58594 32.5098 5.12695 31.3965 5.80078L21.8164 11.6895C20.6543 12.3926 20.6934 13.7305 21.8164 14.4238ZM31.6797 18.7598L22.9492 13.3496C22.7246 13.2227 22.627 12.959 22.959 12.7441L31.6797 7.35352C31.8359 7.24609 32.207 7.19727 32.207 7.61719L32.207 18.4961C32.207 18.8965 31.8555 18.877 31.6797 18.7598Z" fill="black" fill-opacity="0.85"/>
 </g>
</svg>
