<?xml version="1.0" ?><!-- Generator: Adobe Illustrator 25.0.0, SVG Export Plug-In . SVG Version: 6.00 Build 0)  --><svg xmlns="http://www.w3.org/2000/svg" xmlns:xlink="http://www.w3.org/1999/xlink" version="1.1" id="Layer_1" x="0px" y="0px" viewBox="0 0 512 512" style="enable-background:new 0 0 512 512;" xml:space="preserve">
<path d="M256,512c140,0,256-116.2,256-256C512,116,395.8,0,255.7,0C116,0,0,116,0,256C0,395.8,116.2,512,256,512z M336.8,320.3  c-11.5,0-19.1-8-19.1-20.3v-44.4l3.8-40.4L284.1,255l-94.6,94.9c-4,3.8-8.8,6-15.1,6c-11.3,0-19.1-7.5-19.1-19.3  c0-5,2.5-10.3,6.3-14.1l95.1-94.9l40.4-37.6l-38.4,4h-46.7c-12.5,0-20.6-7.5-20.6-18.8c0-11.5,7.8-19.1,20.1-19.1h122.5  c13.3,0,21.8,6,21.8,21.3v122C355.9,311.5,348.1,320.3,336.8,320.3z"/>
</svg>