<?xml version="1.0" encoding="UTF-8"?>
<!--Generator: Apple Native CoreSVG 326-->
<!DOCTYPE svg
PUBLIC "-//W3C//DTD SVG 1.1//EN"
       "http://www.w3.org/Graphics/SVG/1.1/DTD/svg11.dtd">
<svg version="1.1" xmlns="http://www.w3.org/2000/svg" xmlns:xlink="http://www.w3.org/1999/xlink" viewBox="0 0 25.8008 25.459">
 <g>
  <rect height="25.459" opacity="0" width="25.8008" x="0" y="0"/>
  <path d="M25.4395 12.7246C25.4395 19.7266 19.7266 25.4395 12.7148 25.4395C5.71289 25.4395 0 19.7266 0 12.7246C0 5.71289 5.71289 0 12.7148 0C19.7266 0 25.4395 5.71289 25.4395 12.7246ZM14.502 7.74414L14.502 9.47266L10.7617 9.47266C8.34961 9.47266 7.2168 10.6055 7.2168 13.0371L7.2168 16.6406C7.2168 17.2656 7.53906 17.6465 8.10547 17.6367C8.66211 17.627 8.99414 17.2656 8.99414 16.6406L8.99414 13.1152C8.99414 11.8262 9.56055 11.2598 10.791 11.2598L14.502 11.25L14.502 12.9883C14.502 13.7695 15.3027 14.0723 15.8984 13.6133L18.877 11.2695C19.5801 10.7129 19.5801 10.0195 18.877 9.45312L15.8984 7.12891C15.3027 6.65039 14.502 6.96289 14.502 7.74414Z" fill="black" fill-opacity="0.85"/>
 </g>
</svg>
