<?xml version="1.0" ?><!-- Generator: Adobe Illustrator 25.0.0, SVG Export Plug-In . SVG Version: 6.00 Build 0)  --><svg xmlns="http://www.w3.org/2000/svg" xmlns:xlink="http://www.w3.org/1999/xlink" version="1.1" id="Layer_1" x="0px" y="0px" viewBox="0 0 512 512" style="enable-background:new 0 0 512 512;" xml:space="preserve">
<path d="M0.4,124.7L0,476.4c0,21,13.9,35.6,35.6,35.6l352.1-0.7c20.6,0,34.1-15.7,34.1-33.3c0-17.6-15.4-32.6-32.6-32.6H277.5  l-178.3,6.7l67.8-59.6L501.9,57.3c6.7-6.7,10.1-15,10.1-23.2C512,16.5,496.3,0,477.9,0c-8.2,0-16.5,3.4-23.2,10.1L119.9,345  l-59.9,68.2l6.7-170.4V123.2c0-17.2-15-33-33.3-33C15.7,90.3,0.4,104.9,0.4,124.7z"/>
</svg>