<?xml version="1.0" ?><!-- Generator: Adobe Illustrator 25.0.0, SVG Export Plug-In . SVG Version: 6.00 Build 0)  --><svg xmlns="http://www.w3.org/2000/svg" xmlns:xlink="http://www.w3.org/1999/xlink" version="1.1" id="Layer_1" x="0px" y="0px" viewBox="0 0 512 512" style="enable-background:new 0 0 512 512;" xml:space="preserve">
<path d="M52,452.3v-392c0-7.6-2.4-13.7-7.3-18.5c-4.8-4.7-11.1-7.1-18.9-7.1c-7.6,0-13.8,2.4-18.6,7.1C2.4,46.6,0,52.7,0,60.3v392  c0,7.4,2.4,13.4,7.3,18s11,7,18.6,7c7.7,0,14-2.3,18.9-7C49.6,465.7,52,459.6,52,452.3z M512,256.1c0-7.7-2.4-14-7.1-18.9  c-4.7-4.8-10.9-7.3-18.5-7.3H192.9l-62.2,2.3l95.3-87.5l64.2-65.4c2.5-2.3,4.4-5.1,5.7-8.4s1.9-6.7,1.9-10.2c0-7.2-2.5-13.2-7.4-18  c-4.9-4.8-11-7.3-18.2-7.3c-3.7,0-7.1,0.7-10.3,2.2c-3.2,1.5-6.2,3.6-9.2,6.5L60.1,236.4c-2.9,2.9-5.1,6-6.7,9.3  c-1.5,3.3-2.3,6.8-2.3,10.5c0,3.5,0.8,6.9,2.3,10.2c1.6,3.3,3.8,6.4,6.7,9.3l192.7,192.1c2.9,2.9,6,5,9.2,6.4c3.2,1.4,6.6,2,10.3,2  c7.2,0,13.2-2.4,18.2-7.1c4.9-4.7,7.4-10.7,7.4-17.9c0-3.5-0.6-6.9-1.9-10.2c-1.3-3.3-3.1-6.2-5.7-8.7l-64.2-65.1L130.5,280l62.5,2  h293.5c7.6,0,13.7-2.4,18.5-7.3C509.6,269.9,512,263.7,512,256.1z"/>
</svg>