<?xml version="1.0" ?><!-- Generator: Adobe Illustrator 25.0.0, SVG Export Plug-In . SVG Version: 6.00 Build 0)  --><svg xmlns="http://www.w3.org/2000/svg" xmlns:xlink="http://www.w3.org/1999/xlink" version="1.1" id="Layer_1" x="0px" y="0px" viewBox="0 0 512 512" style="enable-background:new 0 0 512 512;" xml:space="preserve">
<path d="M0,256.1c0,7.6,2.4,13.8,7.1,18.6c4.7,4.8,10.9,7.3,18.5,7.3h293.8l62.2-2l-95.6,87.2l-64.2,65.1c-2.3,2.5-4.1,5.4-5.4,8.7  c-1.3,3.3-1.9,6.7-1.9,10.2c0,7.2,2.4,13.1,7.3,17.9c4.8,4.7,10.8,7.1,18,7.1c3.7,0,7.1-0.7,10.3-2c3.2-1.4,6.2-3.5,9.2-6.4  l192.7-192.1c2.9-2.9,5.1-6,6.7-9.3c1.5-3.3,2.3-6.7,2.3-10.2c0-3.7-0.8-7.2-2.3-10.5c-1.6-3.3-3.8-6.4-6.7-9.3L259.2,44.3  c-2.9-2.9-6-5.1-9.2-6.5c-3.2-1.5-6.6-2.2-10.3-2.2c-7.2,0-13.2,2.4-18,7.3c-4.8,4.8-7.3,10.8-7.3,18c0,3.5,0.6,6.9,1.9,10.2  c1.3,3.3,3.1,6.1,5.4,8.4l64.2,65.4l95.3,87.5l-61.9-2.3H25.6c-7.6,0-13.7,2.4-18.5,7.3C2.4,242.1,0,248.4,0,256.1z M460,452.3  c0,7.4,2.4,13.4,7.3,18c4.8,4.6,11.1,7,18.9,7c7.6,0,13.8-2.3,18.6-7s7.3-10.7,7.3-18v-392c0-7.6-2.4-13.7-7.3-18.5  c-4.8-4.7-11-7.1-18.6-7.1c-7.7,0-14,2.4-18.9,7.1c-4.8,4.7-7.3,10.9-7.3,18.5V452.3z"/>
</svg>