<?xml version="1.0" encoding="UTF-8"?>
<!--Generator: Apple Native CoreSVG 326-->
<!DOCTYPE svg
PUBLIC "-//W3C//DTD SVG 1.1//EN"
       "http://www.w3.org/Graphics/SVG/1.1/DTD/svg11.dtd">
<svg version="1.1" xmlns="http://www.w3.org/2000/svg" xmlns:xlink="http://www.w3.org/1999/xlink" viewBox="0 0 25.8008 25.459">
 <g>
  <rect height="25.459" opacity="0" width="25.8008" x="0" y="0"/>
  <path d="M25.4395 12.7246C25.4395 19.7266 19.7266 25.4395 12.7148 25.4395C5.71289 25.4395 0 19.7266 0 12.7246C0 5.71289 5.71289 0 12.7148 0C19.7266 0 25.4395 5.71289 25.4395 12.7246ZM12.0898 5.20508L8.32031 8.96484C8.16406 9.10156 8.07617 9.30664 8.07617 9.55078C8.07617 10 8.4375 10.3418 8.89648 10.3418C9.14062 10.3418 9.33594 10.2539 9.49219 10.0977L10.5957 8.97461L11.9922 7.38281L11.8945 9.91211L11.8945 15.5176L11.9922 18.0469L10.5957 16.4551L9.49219 15.3418C9.33594 15.1758 9.14062 15.0879 8.89648 15.0879C8.4375 15.0879 8.07617 15.4297 8.07617 15.8887C8.07617 16.123 8.16406 16.3281 8.32031 16.4746L12.0898 20.2344C12.2949 20.4492 12.4902 20.5469 12.7344 20.5469C12.9688 20.5469 13.1543 20.4492 13.3789 20.2344L17.1484 16.4746C17.3047 16.3281 17.3828 16.123 17.3828 15.8887C17.3828 15.4297 17.041 15.0879 16.582 15.0879C16.3281 15.0879 16.1328 15.1855 15.9766 15.3418L14.8633 16.4551L13.4766 18.0371L13.5742 15.5176L13.5742 9.91211L13.4766 7.39258L14.8633 8.97461L15.9766 10.0977C16.1328 10.2441 16.3281 10.3418 16.582 10.3418C17.041 10.3418 17.3828 10 17.3828 9.55078C17.3828 9.30664 17.3047 9.10156 17.1484 8.96484L13.3789 5.20508C13.1543 4.99023 12.9688 4.88281 12.7344 4.88281C12.4902 4.88281 12.2949 4.99023 12.0898 5.20508Z" fill="black" fill-opacity="0.85"/>
 </g>
</svg>
