<?xml version="1.0" encoding="UTF-8"?>
<!--Generator: Apple Native CoreSVG 326-->
<!DOCTYPE svg
PUBLIC "-//W3C//DTD SVG 1.1//EN"
       "http://www.w3.org/Graphics/SVG/1.1/DTD/svg11.dtd">
<svg version="1.1" xmlns="http://www.w3.org/2000/svg" xmlns:xlink="http://www.w3.org/1999/xlink" viewBox="0 0 23.2715 22.9199">
 <g>
  <rect height="22.9199" opacity="0" width="23.2715" x="0" y="0"/>
  <path d="M21.4844 1.44531C22.6953 2.64648 22.9102 4.32617 22.9102 6.5625L22.9102 16.3379C22.9102 18.584 22.6953 20.2539 21.4844 21.4648C20.2734 22.6758 18.5742 22.9102 16.3379 22.9102L6.57227 22.9102C4.33594 22.9102 2.64648 22.6758 1.42578 21.4648C0.214844 20.2637 0 18.584 0 16.3379L0 6.50391C0 4.33594 0.224609 2.65625 1.43555 1.44531C2.64648 0.234375 4.3457 0 6.50391 0L16.3379 0C18.5742 0 20.2637 0.234375 21.4844 1.44531ZM9.14062 6.50391C8.61328 6.50391 8.28125 6.82617 8.28125 7.31445C8.28125 7.80273 8.62305 8.13477 9.16016 8.13477L11.9629 8.13477L13.8574 7.96875L12.002 9.70703L6.74805 14.9512C6.5918 15.1172 6.48438 15.332 6.48438 15.5566C6.48438 16.0645 6.80664 16.3965 7.29492 16.3965C7.56836 16.3965 7.7832 16.2988 7.93945 16.1328L13.1836 10.8887L14.9023 9.05273L14.7559 11.1426L14.7559 13.7305C14.7559 14.2676 15.0781 14.5996 15.5762 14.5996C16.0645 14.5996 16.3867 14.2383 16.3867 13.7109L16.3867 7.41211C16.3867 6.76758 16.0352 6.50391 15.4688 6.50391Z" fill="black" fill-opacity="0.85"/>
 </g>
</svg>
