<?xml version="1.0" ?><!-- Generator: Adobe Illustrator 25.0.0, SVG Export Plug-In . SVG Version: 6.00 Build 0)  --><svg xmlns="http://www.w3.org/2000/svg" xmlns:xlink="http://www.w3.org/1999/xlink" version="1.1" id="Layer_1" x="0px" y="0px" viewBox="0 0 512 512" style="enable-background:new 0 0 512 512;" xml:space="preserve">
<path d="M256,512c140,0,256-116,256-256C512,116.2,395.8,0,255.7,0C116,0,0,116.2,0,256C0,396,116.2,512,256,512z M231.9,367.7  c-6.8,0-12-3-18.6-9L103.2,255.2c-5.3-5-7-10-7-15.1c0-4.8,1.8-9.8,7-14.8l110.2-102.7c7.3-7,11.5-9.8,18.3-9.8  c9.8,0,16.8,7.5,16.8,16.8v52.7h4c99.6,0,143.6,63.7,143.6,166.9c0,12-7.3,18.3-14.6,18.3c-6,0-12.3-1.5-17.1-10.3  c-24.1-45.4-58.2-59.2-111.9-59.2h-4v53.5C248.5,360.7,241.4,367.7,231.9,367.7z"/>
</svg>