<?xml version="1.0" encoding="UTF-8"?>
<!--Generator: Apple Native CoreSVG 326-->
<!DOCTYPE svg
PUBLIC "-//W3C//DTD SVG 1.1//EN"
       "http://www.w3.org/Graphics/SVG/1.1/DTD/svg11.dtd">
<svg version="1.1" xmlns="http://www.w3.org/2000/svg" xmlns:xlink="http://www.w3.org/1999/xlink" viewBox="0 0 21.3281 26.9238">
 <g>
  <rect height="26.9238" opacity="0" width="21.3281" x="0" y="0"/>
  <path d="M3.75977 26.9238L17.207 26.9238C19.707 26.9238 20.9668 25.6348 20.9668 23.125L20.9668 11.4355C20.9668 9.98047 20.791 9.3457 19.8828 8.42773L12.6465 1.09375C11.7871 0.205078 11.084 0.00976562 9.78516 0.00976562L3.75977 0.00976562C1.2793 0.00976562 0 1.28906 0 3.80859L0 23.125C0 25.6445 1.25977 26.9238 3.75977 26.9238ZM3.84766 25.1953C2.45117 25.1953 1.72852 24.4531 1.72852 23.0859L1.72852 3.84766C1.72852 2.50977 2.45117 1.73828 3.85742 1.73828L9.63867 1.73828L9.63867 9.21875C9.63867 10.7129 10.3906 11.4355 11.8555 11.4355L19.2383 11.4355L19.2383 23.0859C19.2383 24.4531 18.5156 25.1953 17.1094 25.1953ZM12.041 9.80469C11.4941 9.80469 11.2695 9.58984 11.2695 9.0332L11.2695 2.08008L18.8965 9.80469Z" fill="black" fill-opacity="0.85"/>
  <path d="M11.3086 22.5977L11.3086 17.5391L11.2402 15.3418L12.666 16.7969L13.7793 17.9297C13.9258 18.0957 14.1406 18.1836 14.3555 18.1836C14.7949 18.1836 15.127 17.8711 15.127 17.4219C15.127 17.1582 15 16.9727 14.8242 16.8164L11.0938 13.3008C10.8691 13.1055 10.6934 13.0273 10.4883 13.0273C10.2734 13.0273 10.0977 13.1055 9.87305 13.3008L6.14258 16.8164C5.9668 16.9727 5.83984 17.1582 5.83984 17.4219C5.83984 17.8711 6.16211 18.1836 6.61133 18.1836C6.81641 18.1836 7.04102 18.0957 7.1875 17.9297L8.30078 16.7969L9.72656 15.3418L9.6582 17.5391L9.6582 22.5977C9.6582 23.0371 10.0391 23.4082 10.4883 23.4082C10.9277 23.4082 11.3086 23.0371 11.3086 22.5977Z" fill="black" fill-opacity="0.85"/>
 </g>
</svg>
