<?xml version="1.0" encoding="UTF-8"?>
<!--Generator: Apple Native CoreSVG 326-->
<!DOCTYPE svg
PUBLIC "-//W3C//DTD SVG 1.1//EN"
       "http://www.w3.org/Graphics/SVG/1.1/DTD/svg11.dtd">
<svg version="1.1" xmlns="http://www.w3.org/2000/svg" xmlns:xlink="http://www.w3.org/1999/xlink" viewBox="0 0 25.8008 25.459">
 <g>
  <rect height="25.459" opacity="0" width="25.8008" x="0" y="0"/>
  <path d="M25.4395 12.7246C25.4395 19.7266 19.7266 25.4395 12.7148 25.4395C5.71289 25.4395 0 19.7266 0 12.7246C0 5.71289 5.71289 0 12.7148 0C19.7266 0 25.4395 5.71289 25.4395 12.7246ZM7.13867 12.959C6.69922 12.959 6.34766 13.3105 6.34766 13.75C6.34766 14.1895 6.69922 14.541 7.13867 14.541L7.90039 14.5312L9.93164 14.4336L6.28906 17.9492C5.95703 18.2812 5.9375 18.8086 6.2793 19.1406C6.60156 19.4727 7.12891 19.4727 7.46094 19.1309L10.9961 15.4688L10.8887 17.5879L10.8887 18.3008C10.8887 18.75 11.25 19.1016 11.6797 19.1016C12.1191 19.1016 12.4707 18.75 12.4707 18.3008L12.4707 13.8672C12.4707 13.2227 12.1289 12.959 11.5625 12.959ZM17.9688 6.29883L14.4336 9.96094L14.541 7.83203L14.541 7.11914C14.541 6.67969 14.1895 6.32812 13.75 6.32812C13.3105 6.32812 12.959 6.67969 12.959 7.11914L12.959 11.5527C12.959 12.1973 13.3008 12.4707 13.8672 12.4707L18.291 12.4707C18.7305 12.4707 19.082 12.1191 19.082 11.6699C19.082 11.2402 18.7305 10.8887 18.291 10.8887L17.5293 10.8887L15.5078 10.9961L19.1504 7.4707C19.4727 7.14844 19.4922 6.61133 19.1602 6.28906C18.8281 5.95703 18.3008 5.95703 17.9688 6.29883Z" fill="black" fill-opacity="0.85"/>
 </g>
</svg>
