<?xml version="1.0" ?><!-- Generator: Adobe Illustrator 25.0.0, SVG Export Plug-In . SVG Version: 6.00 Build 0)  --><svg xmlns="http://www.w3.org/2000/svg" xmlns:xlink="http://www.w3.org/1999/xlink" version="1.1" id="Layer_1" x="0px" y="0px" viewBox="0 0 512 512" style="enable-background:new 0 0 512 512;" xml:space="preserve">
<path d="M256,512c140,0,256-116.2,256-256C512,116,395.8,0,255.7,0C116,0,0,116,0,256C0,395.8,116.2,512,256,512z M388.8,255.7  c0,5.8-2.3,10.3-7.3,15.1l-87.3,87.6c-3.5,3.5-8,5.5-13.6,5.5c-10.8,0-18.8-8.3-18.8-19.1c0-5.5,2.3-10.3,5.8-13.8l32.1-31.9  l31.4-26.1l-54.7,2H141.8c-11.3,0-19.6-8-19.6-19.3c0-11.5,8.3-19.6,19.6-19.6h134.5l54.7,2.3l-31.4-26.1l-32.1-31.9  c-3.3-3.8-5.8-8.5-5.8-14.1c0-10.8,8-18.8,18.8-18.8c5.5,0,10,1.8,13.6,5.3l87.3,87.8C386.8,246,388.8,250,388.8,255.7z"/>
</svg>