<?xml version="1.0" ?><!-- Generator: Adobe Illustrator 25.0.0, SVG Export Plug-In . SVG Version: 6.00 Build 0)  --><svg xmlns="http://www.w3.org/2000/svg" xmlns:xlink="http://www.w3.org/1999/xlink" version="1.1" id="Layer_1" x="0px" y="0px" viewBox="0 0 512 512" style="enable-background:new 0 0 512 512;" xml:space="preserve">
<path d="M116.6,56.9L6.1,169.6c-3.7,3.9-6.1,9.6-6.1,14.4c0,11.6,7.9,19.5,19.3,19.5c5.7,0,10.1-2,13.8-5.7l45.5-47l35.2-40.7  l-2.2,50.5v281.2c0,11.6,8.1,19.7,19.7,19.7c11.4,0,19.5-8.1,19.5-19.7V160.6l-2-50.5l35,40.7l45.7,47c3.7,3.7,7.9,5.7,13.6,5.7  c11.4,0,19.3-7.9,19.3-19.5c0-4.8-2.2-10.5-6.1-14.4L145.9,56.9C137.8,48.4,124.9,48,116.6,56.9z M395.6,455.2L505.9,342  c3.9-3.7,6.1-9.4,6.1-14.4c0-11.6-7.9-19.3-19.3-19.3c-5.7,0-9.8,1.8-13.6,5.5l-45.5,47l-35.2,40.9l2-50.5V70.1  c0-11.4-8.1-19.7-19.5-19.7c-11.6,0-19.7,8.3-19.7,19.7v281.2l2.2,50.5l-35.2-40.9l-45.5-47c-3.7-3.7-8.1-5.5-13.6-5.5  c-11.4,0-19.5,7.7-19.5,19.3c0,5,2.4,10.7,6.3,14.4l110.3,113.1C374.4,463.7,387.1,463.9,395.6,455.2z"/>
</svg>