<?xml version="1.0" encoding="UTF-8"?>
<!--Generator: Apple Native CoreSVG 326-->
<!DOCTYPE svg
PUBLIC "-//W3C//DTD SVG 1.1//EN"
       "http://www.w3.org/Graphics/SVG/1.1/DTD/svg11.dtd">
<svg version="1.1" xmlns="http://www.w3.org/2000/svg" xmlns:xlink="http://www.w3.org/1999/xlink" viewBox="0 0 25.8008 30.579">
 <g>
  <rect height="30.579" opacity="0" width="25.8008" x="0" y="0"/>
  <path d="M0 15.2846C0 21.7006 4.77539 27.0131 10.957 27.8432L10.957 29.767C10.957 30.5678 11.5039 30.7826 12.1387 30.3334L16.084 27.56C16.6113 27.1889 16.6016 26.6518 16.084 26.2807L12.1289 23.5073C11.5039 23.0678 10.957 23.2924 10.957 24.0737L10.957 25.9877C5.78125 25.1869 1.81641 20.7045 1.81641 15.2846C1.81641 12.0815 3.20312 9.17132 5.44922 7.14983C5.92773 6.72014 5.9082 6.25139 5.6543 5.89983C5.36133 5.49944 4.74609 5.35296 4.25781 5.78264C1.63086 8.12639 0 11.5444 0 15.2846ZM25.4395 15.2846C25.4395 8.85882 20.6641 3.54632 14.4824 2.71624L14.4824 0.792409C14.4824 0.00139356 13.9355-0.223216 13.3008 0.235769L9.35547 3.00921C8.81836 3.3803 8.82812 3.91741 9.35547 4.27874L13.3105 7.05217C13.9355 7.49163 14.4824 7.27678 14.4824 6.48577L14.4824 4.58147C19.6582 5.38225 23.6133 9.85491 23.6133 15.2846C23.6133 18.4877 22.2363 21.3979 19.9805 23.4096C19.5117 23.8393 19.5215 24.3178 19.7852 24.6694C20.0684 25.0698 20.6934 25.2162 21.1719 24.7768C23.8086 22.4428 25.4395 19.0248 25.4395 15.2846Z" fill="black" fill-opacity="0.85"/>
 </g>
</svg>
