<?xml version="1.0" ?><!-- Generator: Adobe Illustrator 25.0.0, SVG Export Plug-In . SVG Version: 6.00 Build 0)  --><svg xmlns="http://www.w3.org/2000/svg" xmlns:xlink="http://www.w3.org/1999/xlink" version="1.1" id="Layer_1" x="0px" y="0px" viewBox="0 0 512 512" style="enable-background:new 0 0 512 512;" xml:space="preserve">
<path d="M129.2,512h253.6c49.4,0,74-25.1,74-74.7V220.4H283.9c-30.6,0-45.1-14.6-45.1-45.1V0H129.2c-49.2,0-74,25.3-74,75v362.3  C55.2,487.2,79.8,512,129.2,512z M284.7,187.7H454c-1.4-9.8-8.4-19.3-19.8-31l-131.6-134c-11.2-11.5-21-18.4-31-20.1v172.2  C271.5,183.4,275.8,187.7,284.7,187.7z M256,264.4c9.6,0,17.7,7.6,17.7,17v84.5l-1.7,37.5l20.1-20.3l20.8-21.3  c3.3-3.3,7.9-5.3,12.4-5.3c9.3,0,16.2,6.7,16.2,15.8c0,5.3-2.1,9.3-5.7,12.4l-66.9,61.6c-4.8,4.3-8.6,6-12.9,6  c-4.3,0-8.1-1.7-12.9-6l-66.9-61.6c-3.6-3.1-5.7-7.2-5.7-12.4c0-9.1,6.7-15.8,16.2-15.8c4.3,0,9.1,1.9,12.4,5.3l20.8,21.3l20.1,20.3  l-1.4-37.5v-84.5C238.6,272,246.4,264.4,256,264.4z"/>
</svg>