<?xml version="1.0" ?><!-- Generator: Adobe Illustrator 25.0.0, SVG Export Plug-In . SVG Version: 6.00 Build 0)  --><svg xmlns="http://www.w3.org/2000/svg" xmlns:xlink="http://www.w3.org/1999/xlink" version="1.1" id="Layer_1" x="0px" y="0px" viewBox="0 0 512 512" style="enable-background:new 0 0 512 512;" xml:space="preserve">
<path d="M176.3,512c103.5,0,174.5-69.7,174.5-193.2V135.9l-2.7-63.2l43.8,51.1l75.9,77.8c4.3,4.3,9.7,6.8,16.5,6.8  c14.1,0,23.8-9.7,23.8-24c0-5.9-2.7-13-7.3-17.6L344.9,7.8C339.8,2.4,333.3,0,326.8,0c-6.8,0-13,2.4-18.1,7.8L152.8,166.7  c-4.6,4.6-7.6,11.6-7.6,17.6c0,14.3,10,24,23.8,24c7,0,12.4-2.4,16.8-6.8l75.9-77.8l43.8-51.1l-2.7,63.2v187  c0,92.1-51.1,141-123.7,141S52,415,52,322.9v-62.1c0-14.9-10.8-24.6-24-24.6s-24,9.7-24,24.6v62.4C3.9,444.2,72.8,512,176.3,512z"/>
</svg>