<?xml version="1.0" ?><!-- Generator: Adobe Illustrator 25.0.0, SVG Export Plug-In . SVG Version: 6.00 Build 0)  --><svg xmlns="http://www.w3.org/2000/svg" xmlns:xlink="http://www.w3.org/1999/xlink" version="1.1" id="Layer_1" x="0px" y="0px" viewBox="0 0 512 512" style="enable-background:new 0 0 512 512;" xml:space="preserve">
<path d="M256,512c35,0,67.9-6.7,98.8-20.1c30.9-13.4,58.1-31.9,81.7-55.5c23.6-23.6,42.1-50.8,55.5-81.7  C505.3,323.9,512,291,512,256s-6.7-67.9-20.1-98.8c-13.4-30.9-31.9-58.1-55.5-81.7c-23.6-23.6-50.9-42.1-81.8-55.5  C323.7,6.7,290.7,0,255.7,0S187.9,6.7,157,20.1C126.1,33.5,98.9,52,75.4,75.5c-23.5,23.6-42,50.8-55.3,81.7C6.7,188.1,0,221,0,256  s6.7,67.9,20.1,98.8c13.4,30.9,31.9,58.1,55.5,81.7s50.8,42.1,81.7,55.5C188.1,505.3,221,512,256,512z" class="multicolor-0:tintColor hierarchical-0:tertiary SFSymbolsPreview007AFF" style="fill: #007AFF;"/>
<path d="M255.7,410.6c-5.4,0-9.7-1.6-12.9-4.9c-3.3-3.3-4.9-7.4-4.9-12.4V274.8l3.3-47.7l-47.2,53l-14.8,16.1  c-1.5,1.8-3.3,3.2-5.4,4c-2.1,0.8-4.5,1.3-7.2,1.3c-5,0-9.1-1.6-12.2-4.9c-3.1-3.3-4.6-7.4-4.6-12.4c0-5,1.8-9.3,5.5-12.8l87.3-89.3  c1.8-2,3.8-3.5,6-4.4c2.2-0.9,4.5-1.4,7-1.4c2.3,0,4.6,0.5,6.8,1.6c2.2,1.1,4.3,2.5,6.3,4.1l87.3,89.1c2.2,2,3.7,4.1,4.5,6.3  c0.8,2.2,1.3,4.4,1.3,6.8c0,4.9-1.5,9-4.6,12.3c-3.1,3.3-7.1,5-11.9,5c-2.3,0-4.6-0.4-6.9-1.3c-2.3-0.8-4.2-2.2-5.9-4l-16.1-16.3  l-46.2-52.5l2.5,47.4v118.5c0,5-1.6,9.2-4.9,12.4C264.7,409,260.6,410.6,255.7,410.6z M158.6,156.4c-5,0-9.1-1.6-12.3-4.9  c-3.2-3.3-4.8-7.3-4.8-12.2c0-5.2,1.6-9.5,4.8-12.8c3.2-3.3,7.3-5,12.3-5h194.5c5,0,9.1,1.7,12.3,5c3.2,3.3,4.8,7.6,4.8,12.8  c0,4.9-1.6,8.9-4.8,12.2c-3.2,3.3-7.3,4.9-12.3,4.9H158.6z" class="multicolor-1:white hierarchical-1:primary SFSymbolsPreviewFFFFFF" style="fill: #FFFFFF;"/>
</svg>