<?xml version="1.0" encoding="UTF-8"?>
<!--Generator: Apple Native CoreSVG 326-->
<!DOCTYPE svg
PUBLIC "-//W3C//DTD SVG 1.1//EN"
       "http://www.w3.org/Graphics/SVG/1.1/DTD/svg11.dtd">
<svg version="1.1" xmlns="http://www.w3.org/2000/svg" xmlns:xlink="http://www.w3.org/1999/xlink" viewBox="0 0 24.043 25.4395">
 <g>
  <rect height="25.4395" opacity="0" width="24.043" x="0" y="0"/>
  <path d="M0 17.6172C0 22.3145 3.13477 25.4395 8.51562 25.4395L11.7871 25.4395C12.3633 25.4395 12.7539 25.0195 12.7539 24.4922C12.7539 23.9746 12.373 23.5449 11.7871 23.5449L8.53516 23.5449C4.26758 23.5449 1.89453 21.0156 1.89453 17.5195C1.89453 14.0234 4.26758 11.6113 8.53516 11.6113L17.9199 11.6113L21.5918 11.4648L21.4062 10.9863L18.3691 13.6719L14.5117 17.4512C14.3457 17.6172 14.2578 17.832 14.2578 18.1055C14.2578 18.6523 14.6289 19.0527 15.2051 19.0527C15.4395 19.0527 15.7031 18.9355 15.8887 18.75L23.3691 11.3672C23.584 11.1621 23.6816 10.9277 23.6816 10.6543C23.6816 10.3906 23.584 10.1562 23.3691 9.95117L15.8887 2.56836C15.7031 2.38281 15.4395 2.26562 15.2051 2.26562C14.6289 2.26562 14.2578 2.66602 14.2578 3.20312C14.2578 3.48633 14.3457 3.70117 14.5117 3.86719L18.3691 7.64648L21.4062 10.332L21.5918 9.85352L17.9199 9.70703L8.68164 9.70703C3.20312 9.70703 0 12.9199 0 17.6172Z" fill="black" fill-opacity="0.85"/>
 </g>
</svg>
