<?xml version="1.0" encoding="UTF-8"?>
<!--Generator: Apple Native CoreSVG 326-->
<!DOCTYPE svg
PUBLIC "-//W3C//DTD SVG 1.1//EN"
       "http://www.w3.org/Graphics/SVG/1.1/DTD/svg11.dtd">
<svg version="1.1" xmlns="http://www.w3.org/2000/svg" xmlns:xlink="http://www.w3.org/1999/xlink" viewBox="0 0 31.5625 23.3496">
 <g>
  <rect height="23.3496" opacity="0" width="31.5625" x="0" y="0"/>
  <path d="M24.5801 21.4746C28.3008 21.4746 31.2012 18.7891 31.2012 15.4102C31.2012 12.8223 29.7363 10.5566 27.2559 9.58008C27.3242 4.0332 23.3594 0 18.3008 0C14.873 0 12.4805 1.85547 11.0352 4.0918C7.98828 3.10547 4.62891 5.44922 4.58984 8.94531C1.78711 9.33594 0 11.7871 0 14.8242C0 18.4668 3.16406 21.4648 7.37305 21.4648ZM24.5703 19.7461L7.36328 19.7363C4.13086 19.7363 1.72852 17.5 1.72852 14.8242C1.72852 12.2852 3.26172 10.293 5.9375 10.293C6.09375 10.293 6.16211 10.2051 6.16211 10.0488C6.16211 6.2793 8.96484 4.96094 11.582 5.87891C11.7285 5.92773 11.8164 5.89844 11.8945 5.76172C13.125 3.57422 15.0195 1.72852 18.3008 1.72852C22.4219 1.72852 25.3418 5 25.5762 8.85742C25.6152 9.39453 25.5762 10.0293 25.5371 10.5957C25.5273 10.7422 25.5859 10.8398 25.7227 10.8691C28.0078 11.4062 29.4727 13.125 29.4727 15.4102C29.4727 17.8418 27.334 19.7461 24.5703 19.7461Z" fill="black" fill-opacity="0.85"/>
  <path d="M9.45312 12.2363C9.22852 12.5684 9.32617 12.959 9.73633 12.959L10.8105 12.959C11.2988 15.7129 13.4961 17.5977 16.2891 17.5977C17.5488 17.5977 18.8281 17.1289 19.7168 16.3477C20.127 16.0156 20.2246 15.5566 19.9219 15.2344C19.6191 14.9219 19.2285 14.9707 18.8672 15.2344C18.0664 15.8984 17.2754 16.2207 16.2891 16.2207C14.2383 16.2207 12.5586 14.834 12.1289 12.959L13.1934 12.959C13.6133 12.959 13.7305 12.5586 13.4863 12.2363L11.9531 10.0488C11.6895 9.6875 11.25 9.66797 10.9766 10.0488ZM12.6367 8.96484C12.9395 9.27734 13.3301 9.22852 13.6816 8.96484C14.4824 8.29102 15.2832 7.97852 16.2793 7.97852C18.3203 7.97852 19.9902 9.36523 20.4199 11.2402L19.3164 11.2402C18.8965 11.2402 18.7793 11.6406 19.0332 11.9629L20.5566 14.1504C20.8203 14.5117 21.2598 14.5215 21.5332 14.1504L23.0566 11.9629C23.2812 11.6309 23.1836 11.2402 22.7734 11.2402L21.748 11.2402C21.2695 8.48633 19.0625 6.60156 16.2793 6.60156C15.0098 6.60156 13.7305 7.07031 12.8418 7.8418C12.4316 8.19336 12.334 8.64258 12.6367 8.96484Z" fill="black" fill-opacity="0.85"/>
 </g>
</svg>
