<?xml version="1.0" encoding="UTF-8"?>
<!--Generator: Apple Native CoreSVG 326-->
<!DOCTYPE svg
PUBLIC "-//W3C//DTD SVG 1.1//EN"
       "http://www.w3.org/Graphics/SVG/1.1/DTD/svg11.dtd">
<svg version="1.1" xmlns="http://www.w3.org/2000/svg" xmlns:xlink="http://www.w3.org/1999/xlink" viewBox="0 0 25.8008 25.459">
 <g>
  <rect height="25.459" opacity="0" width="25.8008" x="0" y="0"/>
  <path d="M12.7148 25.4395C19.7363 25.4395 25.4395 19.7461 25.4395 12.7246C25.4395 5.70312 19.7363 0 12.7148 0C5.69336 0 0 5.70312 0 12.7246C0 19.7461 5.69336 25.4395 12.7148 25.4395ZM12.7148 23.623C6.68945 23.623 1.81641 18.75 1.81641 12.7246C1.81641 6.69922 6.68945 1.82617 12.7148 1.82617C18.7402 1.82617 23.6133 6.69922 23.6133 12.7246C23.6133 18.75 18.7402 23.623 12.7148 23.623Z" fill="black" fill-opacity="0.85"/>
  <path d="M20.2051 12.7246C20.2051 12.5 20.127 12.2559 19.8438 11.9727L14.3262 6.8457C14.0137 6.54297 13.8086 6.41602 13.5059 6.41602C13.0664 6.41602 12.7637 6.75781 12.7637 7.17773L12.7637 10.0684L6.88477 10.0684C5.9082 10.0684 5.35156 10.6055 5.35156 11.5527L5.35156 13.916C5.35156 14.8633 5.9082 15.4004 6.88477 15.4004L12.7637 15.4004L12.7637 18.3008C12.7637 18.7305 13.0664 19.0332 13.4863 19.0332C13.7988 19.0332 14.043 18.8965 14.3262 18.6426L19.8438 13.457C20.127 13.1836 20.2051 12.9297 20.2051 12.7246Z" fill="black" fill-opacity="0.85"/>
 </g>
</svg>
