<?xml version="1.0" ?><!-- Generator: Adobe Illustrator 25.0.0, SVG Export Plug-In . SVG Version: 6.00 Build 0)  --><svg xmlns="http://www.w3.org/2000/svg" xmlns:xlink="http://www.w3.org/1999/xlink" version="1.1" id="Layer_1" x="0px" y="0px" viewBox="0 0 512 512" style="enable-background:new 0 0 512 512;" xml:space="preserve">
<path d="M479.1,33.3C450.4,4.6,409.9,0.1,361.8,0.1H149.4c-47.3,0-87.8,4.5-116.5,33.2C4.2,62,0,102.3,0,149.2v212.7  C0,410,4.2,450,32.9,478.7c28.7,28.7,69.2,33.2,117,33.2h211.8c48.1,0,88.6-4.5,117.3-33.2C507.8,450,512,410,512,361.9V150.1  C512,102,507.8,61.7,479.1,33.3z M256.3,108.4c12.9,0,21.9,9,21.9,21.9v144.3l-2.3,61.9l29.3-35.2l34-34.6c3.9-4.5,9.3-6.5,15.5-6.5  c12.1,0,21.4,9,21.4,21.1c0,6.2-2,11.3-5.9,15.2l-96.8,96.2c-5.6,5.6-10.4,8.4-17.2,8.4c-6.2,0-10.7-2.5-16.6-8.4l-96.8-96.2  c-4.2-3.9-5.9-9-5.9-15.2c0-12.1,9-21.1,21.1-21.1c6.2,0,11.5,2.3,15.5,6.5l34.3,34.6l29,34.9l-2.3-61.6V130.4  C234.6,117.4,243.6,108.4,256.3,108.4z"/>
</svg>