<?xml version="1.0" ?><!-- Generator: Adobe Illustrator 25.0.0, SVG Export Plug-In . SVG Version: 6.00 Build 0)  --><svg xmlns="http://www.w3.org/2000/svg" xmlns:xlink="http://www.w3.org/1999/xlink" version="1.1" id="Layer_1" x="0px" y="0px" viewBox="0 0 512 512" style="enable-background:new 0 0 512 512;" xml:space="preserve">
<path d="M87.3,512h337.3c58.4,0,87.3-28.9,87.3-86.2V86.2C512,28.9,483.1,0,424.7,0H87.3C29.2,0,0,28.6,0,86.2v339.6  C0,483.4,29.2,512,87.3,512z M87.9,467.2c-27.8,0-43.1-14.7-43.1-43.7V88.4c0-28.6,15.3-43.7,43.1-43.7h336.2  c27.5,0,43.1,15,43.1,43.7v335.1c0,28.9-15.6,43.7-43.1,43.7H87.9z M112.4,289.5c0,67,48.4,108.5,113.2,108.5h38.1  c12.5,0,21.7-7,21.7-19.7s-9.2-20-21.1-20h-38.7c-42,0-72.3-27-72.3-70.9c0-42.8,31.1-66.2,72-66.2h83.2l32.8-1.1l-16.1,12  l-34.8,33.4c-4.2,3.6-6.1,9.2-6.1,14.5c0,11.4,8.6,20.3,19.7,20.3c5.8,0,10.3-1.9,14.2-5.8l74.3-75.9c4.7-4.7,7.5-10.3,7.5-16.7  c0-6.7-2.8-12.5-7.5-17.2l-74-74.8c-3.9-4.2-8.3-6.1-14.2-6.1c-11.4,0-20,8.6-20,20.3c0,5.6,2.5,10.8,6.4,14.2l28.6,27.8l22,17.5  l-32.8-1.1h-83.2C160.5,182.2,112.4,222.8,112.4,289.5z"/>
</svg>