<?xml version="1.0" encoding="UTF-8"?>
<!--Generator: Apple Native CoreSVG 326-->
<!DOCTYPE svg
PUBLIC "-//W3C//DTD SVG 1.1//EN"
       "http://www.w3.org/Graphics/SVG/1.1/DTD/svg11.dtd">
<svg version="1.1" xmlns="http://www.w3.org/2000/svg" xmlns:xlink="http://www.w3.org/1999/xlink" viewBox="0 0 23.9648 20.6934">
 <g>
  <rect height="20.6934" opacity="0" width="23.9648" x="0" y="0"/>
  <path d="M1.00586 0C0.439453 0 0.185547 0.371094 0.0878906 0.810547C0.0195312 1.15234 0 1.78711 0 2.51953C0 8.45703 2.45117 10.9766 8.26172 10.9766L17.6953 10.9766L20.7422 10.8398L16.8359 14.4629L13.457 17.8906C13.2812 18.0664 13.1934 18.3105 13.1934 18.5645C13.1934 19.1016 13.6035 19.4922 14.1309 19.4922C14.3848 19.4922 14.6191 19.3945 14.8828 19.1406L23.2617 10.752C23.4863 10.5371 23.6035 10.293 23.6035 10.0293C23.6035 9.76562 23.4863 9.51172 23.2617 9.29688L14.8242 0.859375C14.6094 0.654297 14.3848 0.556641 14.1309 0.556641C13.6035 0.556641 13.1934 0.957031 13.1934 1.48438C13.1934 1.73828 13.291 1.99219 13.457 2.1582L16.8359 5.58594L20.752 9.22852L17.6953 9.07227L8.34961 9.07227C3.68164 9.07227 1.92383 7.14844 1.92383 2.42188C1.92383 1.76758 1.96289 1.32812 1.96289 0.947266C1.96289 0.390625 1.5625 0 1.00586 0Z" fill="black" fill-opacity="0.85"/>
 </g>
</svg>
