<?xml version="1.0" ?><!-- Generator: Adobe Illustrator 25.0.0, SVG Export Plug-In . SVG Version: 6.00 Build 0)  --><svg xmlns="http://www.w3.org/2000/svg" xmlns:xlink="http://www.w3.org/1999/xlink" version="1.1" id="Layer_1" x="0px" y="0px" viewBox="0 0 512 512" style="enable-background:new 0 0 512 512;" xml:space="preserve">
<path d="M256,512c140,0,256-116.2,256-256C512,116,395.8,0,255.7,0C116,0,0,116,0,256C0,395.8,116.2,512,256,512z M256,469.3  c-118.5,0-213.1-94.9-213.1-213.3S137.3,42.7,255.7,42.7S469.1,137.5,469.3,256S374.5,469.3,256,469.3z M146.8,335.1  c0,14.6,7.3,22.8,20.1,22.6c12.8-0.3,20.1-8,20.1-22.6v-69.8c0-22.8,11-33.1,32.6-33.1l65.5-0.3v39.7c0,16.1,18.3,23.8,32.1,11.8  l59.7-52c15.1-12.8,15.1-26.1,0-39.2l-59.7-52c-13.8-12-32.1-4.3-32.1,12v39.4h-66.3c-48.7,0-72,23.1-72,71.5V335.1z"/>
</svg>