<?xml version="1.0" encoding="UTF-8"?>
<!--Generator: Apple Native CoreSVG 326-->
<!DOCTYPE svg
PUBLIC "-//W3C//DTD SVG 1.1//EN"
       "http://www.w3.org/Graphics/SVG/1.1/DTD/svg11.dtd">
<svg version="1.1" xmlns="http://www.w3.org/2000/svg" xmlns:xlink="http://www.w3.org/1999/xlink" viewBox="0 0 23.3203 22.959">
 <g>
  <rect height="22.959" opacity="0" width="23.3203" x="0" y="0"/>
  <path d="M22.959 3.76953L22.959 19.1992C22.959 21.6797 21.6797 22.959 19.1504 22.959L3.79883 22.959C1.2793 22.959 0 21.6992 0 19.1992L0 3.76953C0 1.26953 1.2793 0 3.79883 0L19.1504 0C21.6797 0 22.959 1.2793 22.959 3.76953ZM7.44141 6.52344C6.875 6.52344 6.52344 6.78711 6.52344 7.43164L6.52344 13.7305C6.52344 14.2578 6.8457 14.6191 7.33398 14.6191C7.83203 14.6191 8.1543 14.2871 8.1543 13.75L8.1543 11.1621L8.00781 9.07227L9.72656 10.9082L14.9707 16.1523C15.127 16.3184 15.3418 16.416 15.6152 16.416C16.1035 16.416 16.4355 16.084 16.4355 15.5762C16.4355 15.3516 16.3281 15.1367 16.1621 14.9707L10.9082 9.72656L9.0625 7.98828L10.9473 8.1543L13.75 8.1543C14.2871 8.1543 14.6289 7.82227 14.6289 7.33398C14.6289 6.8457 14.2969 6.52344 13.7695 6.52344Z" fill="black" fill-opacity="0.85"/>
 </g>
</svg>
