<?xml version="1.0" encoding="UTF-8"?>
<!--Generator: Apple Native CoreSVG 326-->
<!DOCTYPE svg
PUBLIC "-//W3C//DTD SVG 1.1//EN"
       "http://www.w3.org/Graphics/SVG/1.1/DTD/svg11.dtd">
<svg version="1.1" xmlns="http://www.w3.org/2000/svg" xmlns:xlink="http://www.w3.org/1999/xlink" viewBox="0 0 23.5352 23.9355">
 <g>
  <rect height="23.9355" opacity="0" width="23.5352" x="0" y="0"/>
  <path d="M7.82227 23.9355C12.5195 23.9355 15.7324 20.7324 15.7324 15.2539L15.7324 5.88867L15.5859 2.2168L15.1172 2.40234L17.793 5.43945L21.5723 9.29688C21.748 9.46289 21.9629 9.55078 22.2363 9.55078C22.7832 9.55078 23.1738 9.17969 23.1738 8.61328C23.1738 8.37891 23.0566 8.10547 22.8809 7.91992L15.4883 0.439453C15.293 0.224609 15.0488 0.126953 14.7852 0.126953C14.5215 0.126953 14.2773 0.224609 14.0723 0.439453L6.68945 7.91992C6.50391 8.10547 6.39648 8.37891 6.39648 8.61328C6.39648 9.17969 6.78711 9.55078 7.33398 9.55078C7.60742 9.55078 7.82227 9.46289 7.98828 9.29688L11.7676 5.43945L14.4531 2.40234L13.9746 2.2168L13.8379 5.88867L13.8379 15.4004C13.8379 19.6582 11.416 22.041 7.91992 22.041C4.43359 22.041 1.89453 19.6582 1.89453 15.4004L1.89453 12.1484C1.89453 11.5625 1.47461 11.1816 0.947266 11.1816C0.429688 11.1816 0 11.5723 0 12.1484L0 15.4102C0 20.8008 3.13477 23.9355 7.82227 23.9355Z" fill="black" fill-opacity="0.85"/>
 </g>
</svg>
