<?xml version="1.0" ?><!-- Generator: Adobe Illustrator 25.0.0, SVG Export Plug-In . SVG Version: 6.00 Build 0)  --><svg xmlns="http://www.w3.org/2000/svg" xmlns:xlink="http://www.w3.org/1999/xlink" version="1.1" id="Layer_1" x="0px" y="0px" viewBox="0 0 512 512" style="enable-background:new 0 0 512 512;" xml:space="preserve">
<path d="M129.2,512h253.6c49.4,0,74-25.1,74-74.7V220.4c0-30.8-3.6-44.2-22.7-63.8l-131.6-134C284.4,4.1,269.4,0,242.6,0H129.2  c-49.2,0-74,25.3-74,75v362.3C55.2,487.2,79.8,512,129.2,512z M130.9,473.6c-24.6,0-37.3-13.1-37.3-37V75.7  c0-23.6,12.7-37.3,37.5-37.3h106.3v138.7c0,30.1,15,44.9,44.9,44.9h136.1v214.4c0,23.9-12.7,37-37.5,37H130.9z M286.6,186  c-9.6,0-13.1-3.8-13.1-13.4V45.9L411,186H286.6z M274.1,267.2c0-9.8-8.4-17.7-18.1-17.7c-9.8,0-18.1,7.9-18.1,17.7v86.7l1.4,38.9  l-20.3-21l-21.5-22c-3.3-3.6-8.4-5.5-12.9-5.5c-9.8,0-16.7,6.9-16.7,16.5c0,5.5,2.1,9.6,6,12.9l68.8,63.3c5,4.5,8.8,6.2,13.4,6.2  c4.5,0,8.4-1.7,13.4-6.2l68.8-63.3c3.8-3.3,6-7.4,6-12.9c0-9.6-7.2-16.5-16.7-16.5c-4.8,0-9.6,1.9-12.9,5.5l-21.5,22l-20.3,21  l1.4-38.9V267.2z"/>
</svg>