<?xml version="1.0" ?><!-- Generator: Adobe Illustrator 25.0.0, SVG Export Plug-In . SVG Version: 6.00 Build 0)  --><svg xmlns="http://www.w3.org/2000/svg" xmlns:xlink="http://www.w3.org/1999/xlink" version="1.1" id="Layer_1" x="0px" y="0px" viewBox="0 0 512 512" style="enable-background:new 0 0 512 512;" xml:space="preserve">
<path d="M47.9,448.1c0,42.5,21,63.9,63.1,63.9h191.3c42.1,0,63.1-21.6,63.1-63.9v-37.6H401c41.9,0,63.1-21.6,63.1-63.9V63.9  C464.1,21.6,442.9,0,401,0H209.7c-41.9,0-63.1,21.4-63.1,63.9v37.6H111c-42.1,0-63.1,21.2-63.1,63.9V448.1z M242.7,57.8v-4.3  c0-6.3,4.1-12,13-12H355c8.8,0,13,5.7,13,12v4.3c0,6.1-4.3,12-13,12h-99.3C246.7,69.8,242.7,63.9,242.7,57.8z M80.7,447.5V165.9  c0-20.1,10.8-31.5,31.7-31.5h188.2c21,0,31.9,11.4,31.9,31.5v281.6c0,20.3-11,31.7-31.9,31.7H112.4  C91.5,479.2,80.7,467.8,80.7,447.5z M117.7,306.5c0,7.5,5.3,13,12.8,13h88.1l36.4-1.4l-21.2,18.1L214,355.7  c-2.4,2.4-3.9,5.5-3.9,9.2c0,6.9,5.3,12.6,12.4,12.6c3.5,0,6.5-1.4,8.8-3.7l57-57.2c3.3-3.3,5.1-6.1,5.1-10.2c0-3.5-1.6-6.3-5.1-9.8  l-57-57.4c-2.2-2.2-5.3-3.5-8.8-3.5c-7.1,0-12.4,5.5-12.4,12.4c0,3.7,1.6,6.7,3.9,9.2l19.9,19.7l21.2,17.9l-36.4-1.2h-88.1  C123.2,293.9,117.7,298.9,117.7,306.5z"/>
</svg>