<?xml version="1.0" encoding="UTF-8"?>
<!--Generator: Apple Native CoreSVG 326-->
<!DOCTYPE svg
PUBLIC "-//W3C//DTD SVG 1.1//EN"
       "http://www.w3.org/Graphics/SVG/1.1/DTD/svg11.dtd">
<svg version="1.1" xmlns="http://www.w3.org/2000/svg" xmlns:xlink="http://www.w3.org/1999/xlink" viewBox="0 0 19.2676 23.6816">
 <g>
  <rect height="23.6816" opacity="0" width="19.2676" x="0" y="0"/>
  <path d="M9.45312 23.6816C10.0098 23.6816 10.4004 23.291 10.4004 22.7441L10.4004 5.56641L10.293 2.02148L9.7168 2.22656L13.8477 6.70898L17.3145 10.1367C17.4805 10.3027 17.7344 10.3906 17.9883 10.3906C18.5156 10.3906 18.9062 9.99023 18.9062 9.45312C18.9062 9.19922 18.8184 8.98438 18.6133 8.76953L10.166 0.322266C9.96094 0.107422 9.7168 0 9.45312 0C9.18945 0 8.94531 0.107422 8.74023 0.322266L0.292969 8.76953C0.0878906 8.98438 0 9.19922 0 9.45312C0 9.99023 0.390625 10.3906 0.917969 10.3906C1.17188 10.3906 1.42578 10.3027 1.5918 10.1367L5.05859 6.70898L9.17969 2.22656L8.61328 2.02148L8.50586 5.56641L8.50586 22.7441C8.50586 23.291 8.89648 23.6816 9.45312 23.6816Z" fill="black" fill-opacity="0.85"/>
 </g>
</svg>
