<?xml version="1.0" encoding="UTF-8"?>
<!--Generator: Apple Native CoreSVG 326-->
<!DOCTYPE svg
PUBLIC "-//W3C//DTD SVG 1.1//EN"
       "http://www.w3.org/Graphics/SVG/1.1/DTD/svg11.dtd">
<svg version="1.1" xmlns="http://www.w3.org/2000/svg" xmlns:xlink="http://www.w3.org/1999/xlink" viewBox="0 0 25.8008 25.5566">
 <g>
  <rect height="25.5566" opacity="0" width="25.8008" x="0" y="0"/>
  <path d="M25.4395 12.7148C25.4395 19.7266 19.7266 25.4297 12.7148 25.4297C5.71289 25.4297 0 19.7266 0 12.7148C0 5.70312 5.71289 0 12.7148 0C19.7266 0 25.4395 5.70312 25.4395 12.7148ZM14.5117 6.62109L11.1621 9.90234C10.9961 10.0488 10.918 10.2539 10.918 10.498C10.918 10.9473 11.2891 11.2988 11.748 11.2988C11.9922 11.2988 12.1973 11.2012 12.3535 11.0352L14.0234 9.31641L14.4531 8.74023L14.3945 10.0098L14.3945 13.9551C14.3945 15.9375 13.2031 17.2559 11.416 17.2559C9.52148 17.2559 8.26172 15.918 8.26172 13.9453L8.26172 12.168C8.26172 11.6602 7.93945 11.3184 7.45117 11.3184C6.97266 11.3184 6.65039 11.6699 6.65039 12.1875L6.65039 13.9453C6.65039 16.8848 8.53516 18.8672 11.416 18.8672C14.1797 18.8672 16.0059 16.9043 16.0059 13.9551L16.0059 10.0098L15.957 8.73047L16.582 9.51172L18.0566 11.0352C18.2129 11.2012 18.4277 11.2988 18.6523 11.2988C19.1113 11.2988 19.4824 10.9473 19.4824 10.4883C19.4824 10.2441 19.4043 10.0488 19.2383 9.89258L15.918 6.62109C15.7129 6.42578 15.459 6.31836 15.2148 6.31836C14.9609 6.31836 14.7168 6.41602 14.5117 6.62109Z" fill="black" fill-opacity="0.85"/>
 </g>
</svg>
