<?xml version="1.0" ?><!-- Generator: Adobe Illustrator 25.0.0, SVG Export Plug-In . SVG Version: 6.00 Build 0)  --><svg xmlns="http://www.w3.org/2000/svg" xmlns:xlink="http://www.w3.org/1999/xlink" version="1.1" id="Layer_1" x="0px" y="0px" viewBox="0 0 512 512" style="enable-background:new 0 0 512 512;" xml:space="preserve">
<path d="M443.6,232.4c0-5.9-2-11.1-6.7-16.1L272.6,51.7c-4.2-4.2-8.9-6.7-14.1-7.4h163.8c12.6,0,21.3-9.2,21.3-22S434.9,0,422.3,0  H90.2C77.3,0,68.4,9.4,68.4,22.3s8.9,22,21.8,22h163.6c-5.2,0.7-10.1,3.2-14.4,7.4L75.4,216.3c-4.7,4.9-6.9,10.1-6.9,16.1  c0,12.1,8.9,21.5,21.3,21.5c5.9,0,11.9-2,15.6-5.9l56.4-55.4l74-81.2l-1.7,52.7v326.2c0,12.9,9.2,21.8,22,21.8  c12.9,0,22-8.9,22-21.8V164.1l-1.7-53l74,81.4l56.4,55.4c4,4,9.7,5.9,15.6,5.9C434.7,253.9,443.6,244.5,443.6,232.4z"/>
</svg>