<?xml version="1.0" ?><!-- Generator: Adobe Illustrator 25.0.0, SVG Export Plug-In . SVG Version: 6.00 Build 0)  --><svg xmlns="http://www.w3.org/2000/svg" xmlns:xlink="http://www.w3.org/1999/xlink" version="1.1" id="Layer_1" x="0px" y="0px" viewBox="0 0 512 512" style="enable-background:new 0 0 512 512;" xml:space="preserve">
<path d="M486.4,470.7c14.5,0,21-9.3,23.5-20.5c1.6-8.2,2.2-21.8,2.2-37.6c0-132-52.6-188.8-182.2-188.8H139.1l-66.8,3.8l91.9-84  L224.8,82c4.4-4.4,6.5-10.6,6.5-17.2c0-13.6-10.4-23.5-23.7-23.5c-6.5,0-12.5,2.2-18.5,8.2L8.5,229.8C3,235,0,241.5,0,248.1  c0,6.8,3,13.1,8.5,18.5l181.1,180.8c5.7,5.2,11.5,7.6,18,7.6c13.4,0,23.7-9.8,23.7-23.5c0-6.5-2.2-13.1-6.5-17.5l-60.6-61.6  l-92.2-84l67.1,4.1h188.2c100.1,0,135.3,41.2,135.3,142.4c0,12.8-0.5,21.8-0.5,31.4C462.1,460.9,472.2,470.7,486.4,470.7z"/>
</svg>