<?xml version="1.0" encoding="UTF-8"?>
<!--Generator: Apple Native CoreSVG 326-->
<!DOCTYPE svg
PUBLIC "-//W3C//DTD SVG 1.1//EN"
       "http://www.w3.org/Graphics/SVG/1.1/DTD/svg11.dtd">
<svg version="1.1" xmlns="http://www.w3.org/2000/svg" xmlns:xlink="http://www.w3.org/1999/xlink" viewBox="0 0 23.3203 22.959">
 <g>
  <rect height="22.959" opacity="0" width="23.3203" x="0" y="0"/>
  <path d="M3.79883 22.959L19.1504 22.959C21.6797 22.959 22.959 21.6797 22.959 19.1992L22.959 3.76953C22.959 1.2793 21.6797 0 19.1504 0L3.79883 0C1.2793 0 0 1.26953 0 3.76953L0 19.1992C0 21.6992 1.2793 22.959 3.79883 22.959ZM3.83789 21.2305C2.4707 21.2305 1.72852 20.5078 1.72852 19.1016L1.72852 3.85742C1.72852 2.46094 2.4707 1.72852 3.83789 1.72852L19.1211 1.72852C20.459 1.72852 21.2305 2.46094 21.2305 3.85742L21.2305 19.1016C21.2305 20.5078 20.459 21.2305 19.1211 21.2305Z" fill="black" fill-opacity="0.85"/>
  <path d="M6.04492 11.2207L10.3613 11.2207C10.9082 11.2207 11.2402 10.957 11.2402 10.332L11.2402 6.01562C11.2402 5.58594 10.8984 5.24414 10.4785 5.24414C10.0488 5.24414 9.70703 5.58594 9.70703 6.01562L9.70703 6.71875L9.81445 8.78906L6.35742 5.20508C6.03516 4.87305 5.51758 4.87305 5.20508 5.19531C4.88281 5.50781 4.89258 6.03516 5.21484 6.33789L8.76953 9.79492L6.79688 9.6875L6.04492 9.6875C5.625 9.6875 5.2832 10.0293 5.2832 10.4492C5.2832 10.8789 5.625 11.2207 6.04492 11.2207ZM12.4902 17.6758C12.9102 17.6758 13.252 17.334 13.252 16.9141L13.252 16.2109L13.1543 14.1406L16.6113 17.7246C16.9336 18.0566 17.4512 18.0566 17.7637 17.7344C18.0762 17.4121 18.0664 16.8848 17.7539 16.582L14.1895 13.1348L16.1719 13.2324L16.9141 13.2422C17.3438 13.2422 17.6855 12.9004 17.6855 12.4707C17.6855 12.0508 17.3438 11.709 16.9141 11.709L12.6074 11.709C12.0605 11.709 11.7188 11.9629 11.7188 12.5879L11.7188 16.9141C11.7188 17.334 12.0703 17.6758 12.4902 17.6758Z" fill="black" fill-opacity="0.85"/>
 </g>
</svg>
