<?xml version="1.0" ?><!-- Generator: Adobe Illustrator 25.0.0, SVG Export Plug-In . SVG Version: 6.00 Build 0)  --><svg xmlns="http://www.w3.org/2000/svg" xmlns:xlink="http://www.w3.org/1999/xlink" version="1.1" id="Layer_1" x="0px" y="0px" viewBox="0 0 512 512" style="enable-background:new 0 0 512 512;" xml:space="preserve">
<path d="M169.4,434.4c8.7,0,13.9-4.2,15.8-12c20.8-64.4,54-87.2,108.8-87.2l6.9,0.2v73.7c0,12.9,9.5,22.6,22.6,22.6  c9.5,0,17.2-3.9,26.4-12.5l152.4-143.7c7.3-6.9,9.6-14.3,9.6-20.6c0-6.6-2.3-13.9-9.6-20.8L349.9,91.5c-10.2-9.6-16.6-13.9-26-13.9  c-13.5,0-23,10.8-23,23.7v72.9h-5.6c-60.6,0-113.2,35.9-125.2,108H168c-13.3-79.9-68.1-108-120-108H37.2c-26.6,0-37.2,10-37.2,38.8  v92.2c0,21.8,10.4,31.1,35.5,31.1h17c52.7,0,87.4,35.1,101.3,85.8C155.5,430.1,160.5,434.4,169.4,434.4z"/>
</svg>