<?xml version="1.0" ?><!-- Generator: Adobe Illustrator 25.0.0, SVG Export Plug-In . SVG Version: 6.00 Build 0)  --><svg xmlns="http://www.w3.org/2000/svg" xmlns:xlink="http://www.w3.org/1999/xlink" version="1.1" id="Layer_1" x="0px" y="0px" viewBox="0 0 512 512" style="enable-background:new 0 0 512 512;" xml:space="preserve">
<path d="M78.7,339.1c14.9,14.4,34.6,3.1,34.6-16.2v-47h123v123.5h-47.2c-19.1,0-30.4,19.5-16.2,34.4l67.2,70.9  c9.5,10,23.1,9.5,32.1-0.2l66.9-70.7c14.4-14.9,3.1-34.4-16.2-34.4h-47V276h122.8v47c0,19.3,19.5,30.6,34.6,16.2l70.7-66.9  c9.5-9.3,10-22.6,0.2-32.1l-70.9-67.2c-15.1-14.2-34.6-2.9-34.6,16.2v47.2H276V112.6h47c19.3,0,30.6-19.5,16.2-34.4L272,7.3  c-9.3-10-22.8-9.5-32.1,0.2l-66.9,70.7c-14.2,14.9-2.9,34.4,16.2,34.4h47.2v123.7h-123v-47.2c0-19.1-19.7-30.4-34.6-16.2L8,239.8  c-9.5,9.3-10,22.6-0.2,32.1L78.7,339.1z"/>
</svg>