<?xml version="1.0" encoding="UTF-8"?>
<!--Generator: Apple Native CoreSVG 326-->
<!DOCTYPE svg
PUBLIC "-//W3C//DTD SVG 1.1//EN"
       "http://www.w3.org/Graphics/SVG/1.1/DTD/svg11.dtd">
<svg version="1.1" xmlns="http://www.w3.org/2000/svg" xmlns:xlink="http://www.w3.org/1999/xlink" viewBox="0 0 30.332 22.9785">
 <g>
  <rect height="22.9785" opacity="0" width="30.332" x="0" y="0"/>
  <path d="M25.2832 19.3359C24.9316 21.6992 23.9355 22.9785 21.543 22.9785L8.42773 22.9785C6.02539 22.9785 5.04883 21.7188 4.6875 19.3359L2.86133 7.25586L27.0996 7.25586ZM14.3652 9.89258L10.6055 13.4082C10.4199 13.5742 10.293 13.7598 10.293 14.0332C10.293 14.4922 10.625 14.8145 11.0938 14.8145C11.3086 14.8145 11.5332 14.7168 11.6895 14.5605L12.7637 13.4668L14.209 11.9824L14.1309 14.2285L14.1309 19.3262C14.1309 19.7852 14.5312 20.1562 14.9902 20.1562C15.459 20.1562 15.8496 19.7852 15.8496 19.3262L15.8496 14.2285L15.7715 11.9824L17.2168 13.4668L18.291 14.5605C18.4473 14.7168 18.6621 14.8145 18.8867 14.8145C19.3359 14.8145 19.6875 14.4922 19.6875 14.0332C19.6875 13.7598 19.5605 13.5742 19.375 13.4082L15.6152 9.89258C15.3809 9.67773 15.2051 9.59961 14.9902 9.59961C14.7754 9.59961 14.5996 9.67773 14.3652 9.89258ZM29.9707 2.17773L29.9707 3.55469C29.9707 4.88281 29.2676 5.70312 27.9199 5.70312L2.04102 5.70312C0.703125 5.70312 0 4.88281 0 3.55469L0 2.17773C0 0.839844 0.761719 0.0292969 2.04102 0.0292969L27.9199 0.0292969C29.2676 0.0292969 29.9707 0.839844 29.9707 2.17773Z" fill="black" fill-opacity="0.85"/>
 </g>
</svg>
