<?xml version="1.0" encoding="UTF-8"?>
<!--Generator: Apple Native CoreSVG 326-->
<!DOCTYPE svg
PUBLIC "-//W3C//DTD SVG 1.1//EN"
       "http://www.w3.org/Graphics/SVG/1.1/DTD/svg11.dtd">
<svg version="1.1" xmlns="http://www.w3.org/2000/svg" xmlns:xlink="http://www.w3.org/1999/xlink" viewBox="0 0 25.8008 25.459">
 <g>
  <rect height="25.459" opacity="0" width="25.8008" x="0" y="0"/>
  <path d="M12.7148 25.4395C19.7363 25.4395 25.4395 19.7461 25.4395 12.7246C25.4395 5.70312 19.7363 0 12.7148 0C5.69336 0 0 5.70312 0 12.7246C0 19.7461 5.69336 25.4395 12.7148 25.4395ZM12.7148 23.623C6.68945 23.623 1.81641 18.75 1.81641 12.7246C1.81641 6.69922 6.68945 1.82617 12.7148 1.82617C18.7402 1.82617 23.6133 6.69922 23.6133 12.7246C23.6133 18.75 18.7402 23.623 12.7148 23.623Z" fill="black" fill-opacity="0.85"/>
  <path d="M8.65234 9.63867C8.17383 9.63867 7.86133 10 7.86133 10.498L7.86133 16.6602C7.86133 17.2852 8.21289 17.5391 8.75 17.5391L14.9414 17.5391C15.4492 17.5391 15.7715 17.2363 15.7715 16.7578C15.7715 16.2793 15.4395 15.9668 14.9219 15.9668L12.1582 15.9668L10.3223 16.123L12.1191 14.4336L17.2754 9.27734C17.4316 9.13086 17.5391 8.91602 17.5391 8.69141C17.5391 8.20312 17.2168 7.89062 16.7383 7.89062C16.4746 7.89062 16.2695 7.98828 16.123 8.14453L10.9668 13.291L9.29688 15.0684L9.44336 13.0371L9.44336 10.4785C9.44336 9.9707 9.13086 9.63867 8.65234 9.63867Z" fill="black" fill-opacity="0.85"/>
 </g>
</svg>
