<?xml version="1.0" encoding="UTF-8"?>
<!--Generator: Apple Native CoreSVG 326-->
<!DOCTYPE svg
PUBLIC "-//W3C//DTD SVG 1.1//EN"
       "http://www.w3.org/Graphics/SVG/1.1/DTD/svg11.dtd">
<svg version="1.1" xmlns="http://www.w3.org/2000/svg" xmlns:xlink="http://www.w3.org/1999/xlink" viewBox="0 0 23.3203 22.959">
 <g>
  <rect height="22.959" opacity="0" width="23.3203" x="0" y="0"/>
  <path d="M3.79883 22.959L19.1504 22.959C21.6797 22.959 22.959 21.6797 22.959 19.1992L22.959 3.76953C22.959 1.2793 21.6797 0 19.1504 0L3.79883 0C1.2793 0 0 1.26953 0 3.76953L0 19.1992C0 21.6992 1.2793 22.959 3.79883 22.959ZM3.83789 21.2305C2.4707 21.2305 1.72852 20.5078 1.72852 19.1016L1.72852 3.85742C1.72852 2.46094 2.4707 1.72852 3.83789 1.72852L19.1211 1.72852C20.459 1.72852 21.2305 2.46094 21.2305 3.85742L21.2305 19.1016C21.2305 20.5078 20.459 21.2305 19.1211 21.2305Z" fill="black" fill-opacity="0.85"/>
  <path d="M17.0312 12.0508C17.0312 8.98438 14.5312 6.58203 11.6699 6.58203C11.4844 6.58203 11.2793 6.61133 11.123 6.63086L12.2754 5.46875C12.4023 5.33203 12.4707 5.14648 12.4707 4.95117C12.4707 4.56055 12.168 4.24805 11.7676 4.24805C11.5625 4.24805 11.3867 4.33594 11.25 4.48242L8.76953 7.00195C8.50586 7.28516 8.49609 7.7832 8.76953 8.05664L11.2793 10.5859C11.3965 10.7031 11.582 10.791 11.7578 10.791C12.1582 10.791 12.4609 10.4785 12.4609 10.0977C12.4609 9.89258 12.3926 9.7168 12.2461 9.57031L10.7715 8.11523C10.9668 8.06641 11.2207 8.04688 11.4844 8.04688C13.7402 8.04688 15.5273 9.83398 15.5273 12.0801C15.5273 14.3359 13.7402 16.1426 11.4844 16.1426C9.23828 16.1426 7.45117 14.3359 7.45117 12.0801C7.45117 11.6797 7.10938 11.3379 6.68945 11.3379C6.28906 11.3379 5.94727 11.6797 5.94727 12.0801C5.94727 15.166 8.39844 17.6465 11.4844 17.6465C14.5605 17.6465 17.0312 15.166 17.0312 12.0508Z" fill="black" fill-opacity="0.85"/>
 </g>
</svg>
