<?xml version="1.0" ?><!-- Generator: Adobe Illustrator 25.0.0, SVG Export Plug-In . SVG Version: 6.00 Build 0)  --><svg xmlns="http://www.w3.org/2000/svg" xmlns:xlink="http://www.w3.org/1999/xlink" version="1.1" id="Layer_1" x="0px" y="0px" viewBox="0 0 512 512" style="enable-background:new 0 0 512 512;" xml:space="preserve">
<path d="M87.3,512h337.3c58.4,0,87.3-28.9,87.3-86.2V86.2C512,28.9,483.1,0,424.7,0H87.3C29.2,0,0,28.6,0,86.2v339.6  C0,483.4,29.2,512,87.3,512z M166,184.4c12.8,0,21.1,8.6,21.1,22.5v49.2l-4.2,44.8l41.4-44.2l104.8-105.1c4.4-4.2,9.7-6.7,16.7-6.7  c12.5,0,21.1,8.3,21.1,21.4c0,5.6-2.8,11.4-7,15.6L254.7,286.7l-44.8,42l42.6-4.5h51.7c13.9,0,22.8,8.3,22.8,20.9  c0,12.8-8.6,21.1-22.2,21.1H169.1c-14.7,0-23.9-6.7-23.9-23.6V207.5C145.2,193.8,153.5,184.4,166,184.4z"/>
</svg>