<?xml version="1.0" encoding="UTF-8"?>
<!--Generator: Apple Native CoreSVG 326-->
<!DOCTYPE svg
PUBLIC "-//W3C//DTD SVG 1.1//EN"
       "http://www.w3.org/Graphics/SVG/1.1/DTD/svg11.dtd">
<svg version="1.1" xmlns="http://www.w3.org/2000/svg" xmlns:xlink="http://www.w3.org/1999/xlink" viewBox="0 0 25.8008 25.459">
 <g>
  <rect height="25.459" opacity="0" width="25.8008" x="0" y="0"/>
  <path d="M25.4395 12.7344C25.4395 19.7461 19.7266 25.459 12.7148 25.459C5.71289 25.459 0 19.7461 0 12.7344C0 5.73242 5.71289 0.0195312 12.7148 0.0195312C19.7266 0.0195312 25.4395 5.73242 25.4395 12.7344ZM10.8105 6.71875L5.16602 11.9727C4.86328 12.2656 4.78516 12.5098 4.78516 12.7344C4.78516 12.959 4.86328 13.2129 5.16602 13.4961L10.8105 18.7988C11.1035 19.0625 11.3477 19.209 11.6699 19.209C12.1094 19.209 12.4219 18.8867 12.4219 18.4473L12.4219 15.4883L18.4277 15.4883C19.4336 15.4883 20 14.9219 20 13.9648L20 11.543C20 10.5664 19.4336 10.0098 18.4277 10.0098L12.4219 10.0098L12.4219 7.06055C12.4219 6.63086 12.1094 6.26953 11.6504 6.26953C11.3379 6.26953 11.1328 6.41602 10.8105 6.71875Z" fill="black" fill-opacity="0.85"/>
 </g>
</svg>
