<?xml version="1.0" ?><!-- Generator: Adobe Illustrator 25.0.0, SVG Export Plug-In . SVG Version: 6.00 Build 0)  --><svg xmlns="http://www.w3.org/2000/svg" xmlns:xlink="http://www.w3.org/1999/xlink" version="1.1" id="Layer_1" x="0px" y="0px" viewBox="0 0 512 512" style="enable-background:new 0 0 512 512;" xml:space="preserve">
<path d="M256,0c-14.1,0-24.1,9.8-24.1,23.9v357l2.2,58l-81.3-89.2l-61.8-60.7c-4.1-4.3-10.6-6.5-17.1-6.5  c-13.6,0-23.3,10.3-23.3,23.6c0,6.5,2.4,12.2,7.6,17.6l179.7,180.2c5.1,5.4,11.4,8.1,18.2,8.1c6.8,0,13-2.7,18.2-8.1l180-180.2  c5.2-5.4,7.3-11.1,7.3-17.6c0-13.3-9.8-23.6-23.3-23.6c-6.5,0-12.7,2.2-17.1,6.5l-61.8,60.7l-81,88.9l1.9-57.7v-357  C280.1,9.8,270.1,0,256,0z"/>
</svg>