<?xml version="1.0" encoding="UTF-8"?>
<!--Generator: Apple Native CoreSVG 326-->
<!DOCTYPE svg
PUBLIC "-//W3C//DTD SVG 1.1//EN"
       "http://www.w3.org/Graphics/SVG/1.1/DTD/svg11.dtd">
<svg version="1.1" xmlns="http://www.w3.org/2000/svg" xmlns:xlink="http://www.w3.org/1999/xlink" viewBox="0 0 23.3203 23.0762">
 <g>
  <rect height="23.0762" opacity="0" width="23.3203" x="0" y="0"/>
  <path d="M22.959 3.75977L22.959 19.1895C22.959 21.6797 21.6797 22.959 19.1504 22.959L3.79883 22.959C1.2793 22.959 0 21.6895 0 19.1895L0 3.75977C0 1.25977 1.2793 0 3.79883 0L19.1504 0C21.6797 0 22.959 1.2793 22.959 3.75977ZM8.75977 5.05859L5.48828 8.37891C5.29297 8.58398 5.19531 8.83789 5.19531 9.08203C5.19531 9.33594 5.2832 9.58008 5.48828 9.79492L8.76953 13.1348C8.92578 13.291 9.12109 13.3789 9.36523 13.3789C9.82422 13.3789 10.166 13.0078 10.166 12.5488C10.166 12.3047 10.0684 12.1094 9.91211 11.9434L8.19336 10.2734L7.60742 9.85352L8.88672 9.90234L12.832 9.90234C14.8145 9.90234 16.123 11.0938 16.123 12.8809C16.123 14.7754 14.7949 16.0352 12.8223 16.0352L11.0449 16.0352C10.5371 16.0352 10.1953 16.3672 10.1953 16.8457C10.1953 17.3242 10.5469 17.6465 11.0645 17.6465L12.8223 17.6465C15.7617 17.6465 17.7441 15.7617 17.7441 12.8809C17.7441 10.1172 15.7715 8.29102 12.832 8.29102L8.88672 8.29102L7.59766 8.33984L8.38867 7.71484L9.91211 6.24023C10.0684 6.08398 10.166 5.86914 10.166 5.64453C10.166 5.17578 9.83398 4.81445 9.35547 4.81445C9.11133 4.81445 8.92578 4.90234 8.75977 5.05859Z" fill="black" fill-opacity="0.85"/>
 </g>
</svg>
