<?xml version="1.0" ?><!-- Generator: Adobe Illustrator 25.0.0, SVG Export Plug-In . SVG Version: 6.00 Build 0)  --><svg xmlns="http://www.w3.org/2000/svg" xmlns:xlink="http://www.w3.org/1999/xlink" version="1.1" id="Layer_1" x="0px" y="0px" viewBox="0 0 512 512" style="enable-background:new 0 0 512 512;" xml:space="preserve">
<path d="M87.3,512h337.3c58.4,0,87.3-28.9,87.3-86.2V86.2C512,28.9,483.1,0,424.7,0H87.3C29.2,0,0,28.6,0,86.2v339.6  C0,483.4,29.2,512,87.3,512z M87.9,467.2c-27.8,0-43.1-14.7-43.1-43.7V88.4c0-28.9,15.3-43.7,43.1-43.7h336.2  c27.5,0,43.1,14.7,43.1,43.7v335.1c0,28.9-15.6,43.7-43.1,43.7H87.9z M428.8,255.9c0-6.1-2.5-11.1-7.8-16.4l-80.4-80.4  c-3.6-3.6-8.6-5.8-14.5-5.8c-11.4,0-20,8.9-20,20.3c0,6.1,2.2,11.1,6.1,14.7l21.1,20.6l33.9,28.4l-59-2.2H203.9l-59,2.2l33.7-28.4  l21.1-20.6c3.9-3.6,6.1-8.6,6.1-14.7c0-11.4-8.6-20.3-20-20.3c-5.8,0-10.8,2.2-14.5,5.8l-80.4,80.4c-5.3,5.3-7.8,10.3-7.8,16.4  c0,5.8,2.5,10.6,7.8,16.1l80.4,80.7c3.6,3.6,8.6,5.6,14.5,5.6c11.4,0,20-8.6,20-20c0-6.1-2.5-11.1-6.1-14.7l-21.1-20.9l-33.4-28.1  l58.7,2.2h104.6l58.7-2.2l-33.7,28.1l-21.1,20.9c-3.6,3.6-6.1,8.6-6.1,14.7c0,11.4,8.6,20,20,20c5.8,0,10.8-1.9,14.5-5.6l80.4-80.7  C426.3,266.4,428.8,261.7,428.8,255.9z"/>
</svg>