<?xml version="1.0" encoding="UTF-8"?>
<!--Generator: Apple Native CoreSVG 326-->
<!DOCTYPE svg
PUBLIC "-//W3C//DTD SVG 1.1//EN"
       "http://www.w3.org/Graphics/SVG/1.1/DTD/svg11.dtd">
<svg version="1.1" xmlns="http://www.w3.org/2000/svg" xmlns:xlink="http://www.w3.org/1999/xlink" viewBox="0 0 23.3203 23.0762">
 <g>
  <rect height="23.0762" opacity="0" width="23.3203" x="0" y="0"/>
  <path d="M3.79883 22.959L19.1504 22.959C21.6797 22.959 22.959 21.6797 22.959 19.1895L22.959 3.75977C22.959 1.2793 21.6797 0 19.1504 0L3.79883 0C1.2793 0 0 1.25977 0 3.75977L0 19.1895C0 21.6895 1.2793 22.959 3.79883 22.959ZM3.83789 21.2305C2.4707 21.2305 1.72852 20.5078 1.72852 19.1016L1.72852 3.85742C1.72852 2.45117 2.4707 1.72852 3.83789 1.72852L19.1211 1.72852C20.459 1.72852 21.2305 2.45117 21.2305 3.85742L21.2305 19.1016C21.2305 20.5078 20.459 21.2305 19.1211 21.2305Z" fill="black" fill-opacity="0.85"/>
  <path d="M9.7168 17.793C12.6367 17.793 14.4434 15.6934 14.4434 12.793L14.4434 8.74023L14.3945 7.28516L15.1172 8.19336L16.6504 9.76562C16.7871 9.91211 16.9922 10.0195 17.2168 10.0195C17.666 10.0195 18.0078 9.67773 18.0078 9.23828C18.0078 9.00391 17.9297 8.82812 17.7734 8.67188L14.375 5.32227C14.1895 5.13672 13.9453 5.0293 13.6816 5.0293C13.418 5.0293 13.1934 5.13672 13.0078 5.32227L9.58008 8.68164C9.42383 8.83789 9.3457 9.01367 9.3457 9.24805C9.3457 9.67773 9.6875 10.0195 10.1367 10.0195C10.3516 10.0195 10.5566 9.93164 10.7129 9.77539L12.4414 7.98828L12.9688 7.28516L12.9199 8.74023L12.9199 12.793C12.9199 14.7559 11.7773 16.2012 9.79492 16.2012C7.77344 16.2012 6.51367 14.7852 6.51367 12.7832C6.51367 12.5879 6.51367 11.0156 6.51367 10.9668C6.51367 10.498 6.23047 10.1465 5.73242 10.1465C5.23438 10.1465 4.96094 10.498 4.96094 10.9863C4.96094 11.0449 4.96094 12.5879 4.96094 12.7832C4.96094 15.6836 6.79688 17.793 9.7168 17.793Z" fill="black" fill-opacity="0.85"/>
 </g>
</svg>
