<?xml version="1.0" encoding="UTF-8"?>
<!--Generator: Apple Native CoreSVG 326-->
<!DOCTYPE svg
PUBLIC "-//W3C//DTD SVG 1.1//EN"
       "http://www.w3.org/Graphics/SVG/1.1/DTD/svg11.dtd">
<svg version="1.1" xmlns="http://www.w3.org/2000/svg" xmlns:xlink="http://www.w3.org/1999/xlink" viewBox="0 0 23.3203 23.0762">
 <g>
  <rect height="23.0762" opacity="0" width="23.3203" x="0" y="0"/>
  <path d="M3.79883 22.959L19.1504 22.959C21.6797 22.959 22.959 21.6797 22.959 19.1895L22.959 3.75977C22.959 1.2793 21.6797 0 19.1504 0L3.79883 0C1.2793 0 0 1.25977 0 3.75977L0 19.1895C0 21.6895 1.2793 22.959 3.79883 22.959ZM3.83789 21.2305C2.4707 21.2305 1.72852 20.5078 1.72852 19.1016L1.72852 3.85742C1.72852 2.45117 2.4707 1.72852 3.83789 1.72852L19.1211 1.72852C20.459 1.72852 21.2305 2.45117 21.2305 3.85742L21.2305 19.1016C21.2305 20.5078 20.459 21.2305 19.1211 21.2305Z" fill="black" fill-opacity="0.85"/>
  <path d="M17.8613 12.9883C17.8613 10.0684 15.7617 8.27148 12.8613 8.27148L8.80859 8.27148L7.35352 8.31055L8.26172 7.58789L9.83398 6.06445C9.98047 5.91797 10.0781 5.72266 10.0781 5.48828C10.0781 5.03906 9.74609 4.69727 9.29688 4.69727C9.07227 4.69727 8.88672 4.77539 8.74023 4.94141L5.39062 8.33984C5.20508 8.52539 5.08789 8.75977 5.08789 9.02344C5.08789 9.28711 5.20508 9.51172 5.39062 9.69727L8.75 13.1348C8.89648 13.2812 9.08203 13.3594 9.30664 13.3594C9.74609 13.3594 10.0781 13.0176 10.0781 12.5684C10.0781 12.3633 10 12.1484 9.84375 12.002L8.05664 10.2734L7.35352 9.73633L8.80859 9.79492L12.8613 9.79492C14.8145 9.79492 16.2695 10.9277 16.2695 12.9102C16.2695 14.9316 14.8438 16.2012 12.8516 16.2012C12.6562 16.2012 11.084 16.2012 11.0254 16.2012C10.5664 16.2012 10.2148 16.4746 10.2148 16.9727C10.2148 17.4707 10.5664 17.7539 11.0449 17.7539C11.1133 17.7539 12.6562 17.7539 12.8516 17.7539C15.752 17.7539 17.8613 15.9082 17.8613 12.9883Z" fill="black" fill-opacity="0.85"/>
 </g>
</svg>
