<?xml version="1.0" encoding="UTF-8"?>
<!--Generator: Apple Native CoreSVG 326-->
<!DOCTYPE svg
PUBLIC "-//W3C//DTD SVG 1.1//EN"
       "http://www.w3.org/Graphics/SVG/1.1/DTD/svg11.dtd">
<svg version="1.1" xmlns="http://www.w3.org/2000/svg" xmlns:xlink="http://www.w3.org/1999/xlink" viewBox="0 0 25.8008 25.7324">
 <g>
  <rect height="25.7324" opacity="0" width="25.8008" x="0" y="0"/>
  <path d="M25.4395 12.7148C25.4395 19.7266 19.7266 25.4297 12.7148 25.4297C5.71289 25.4297 0 19.7266 0 12.7148C0 5.70312 5.71289 0 12.7148 0C19.7266 0 25.4395 5.70312 25.4395 12.7148ZM9.45312 11.2305L9.45312 15.1758L9.50195 16.4551L8.88672 15.6738L7.40234 14.1504C7.25586 13.9844 7.04102 13.8867 6.81641 13.8867C6.35742 13.8867 5.97656 14.2383 5.97656 14.707C5.97656 14.9512 6.05469 15.1367 6.23047 15.293L9.54102 18.5742C9.74609 18.7695 10 18.8672 10.2539 18.8672C10.5078 18.8672 10.7422 18.7793 10.957 18.5742L14.3066 15.2832C14.4629 15.1367 14.541 14.9414 14.541 14.6973C14.541 14.2383 14.1797 13.8867 13.7109 13.8867C13.4668 13.8867 13.2617 13.9844 13.1055 14.1504L11.4355 15.8691L11.0156 16.4453L11.0645 15.1758L11.0645 11.2305C11.0645 9.24805 12.2559 7.93945 14.043 7.93945C15.9375 7.93945 17.1973 9.26758 17.1973 11.2402L17.1973 13.0176C17.1973 13.5254 17.5293 13.8672 18.0078 13.8672C18.4961 13.8672 18.8184 13.5156 18.8184 12.998L18.8184 11.2402C18.8184 8.30078 16.9238 6.31836 14.043 6.31836C11.2793 6.31836 9.45312 8.29102 9.45312 11.2305Z" fill="black" fill-opacity="0.85"/>
 </g>
</svg>
