<?xml version="1.0" ?><!-- Generator: Adobe Illustrator 25.0.0, SVG Export Plug-In . SVG Version: 6.00 Build 0)  --><svg xmlns="http://www.w3.org/2000/svg" xmlns:xlink="http://www.w3.org/1999/xlink" version="1.1" id="Layer_1" x="0px" y="0px" viewBox="0 0 512 512" style="enable-background:new 0 0 512 512;" xml:space="preserve">
<path d="M256,512c140,0,256-116.2,256-256C512,116,395.8,0,255.7,0C116,0,0,116,0,256C0,395.8,116.2,512,256,512z M141.6,252.7  c-10.3,0-18.6-8.3-18.6-18.6c0-10,8.3-18.1,18.6-18.1h12.5l39.7,2.5L124,151.8c-7.5-7.8-8-20.1-0.3-27.6c7.5-7.8,19.8-7.8,27.4,0.3  l67.5,70l-2.5-40.9v-12.5c0-10.3,8-18.3,18.1-18.3c10.3,0,18.6,8,18.6,18.3v90.1c0,15.6-8,21.6-21.6,21.6H141.6z M277.3,389  c-10.3,0-18.6-8-18.6-18.3v-90.4c0-15.3,8-21.3,21.6-21.3h89.6c10.3,0,18.6,8,18.6,18.6c0,10-8.3,18.1-18.6,18.1h-12.5l-39.7-2.5  l69.8,66.8c7.5,7.5,8,20.1,0.3,27.6c-7.5,7.8-19.8,7.8-27.4-0.3l-67.5-70l2.5,40.9v12.5C295.4,381,287.4,389,277.3,389z"/>
</svg>