<?xml version="1.0" ?><!-- Generator: Adobe Illustrator 25.0.0, SVG Export Plug-In . SVG Version: 6.00 Build 0)  --><svg xmlns="http://www.w3.org/2000/svg" xmlns:xlink="http://www.w3.org/1999/xlink" version="1.1" id="Layer_1" x="0px" y="0px" viewBox="0 0 512 512" style="enable-background:new 0 0 512 512;" xml:space="preserve">
<path d="M65.5,454.8h381.1c43.4,0,65.5-21.7,65.5-64.6V171.9c0-42.9-22.1-64.4-65.5-64.4h-59.6c-16.5,0-21.5-3.3-30.9-13.8  l-16.7-18.8c-10.4-11.5-21.1-17.7-42.5-17.7h-83.2c-21.5,0-32.1,6.3-42.5,17.7l-16.7,18.8c-9.4,10.2-14.6,13.8-30.9,13.8H65.5  C21.9,107.5,0,128.9,0,171.9v218.3C0,433.1,21.9,454.8,65.5,454.8z M180.7,202.3c-7.5-7.7-5-18.6,5-26.3  c18.1-15,44.2-24.2,70.3-24.2c59.4,0,106.3,39.8,116.5,97.8h20.8c9.8,0,11.7,9.2,6.5,16.7l-33.4,47.1c-6,8.3-15.6,7.7-21.3,0  l-33.8-47.1c-5.4-7.3-3.1-16.7,6.5-16.7h23.3c-9.4-36.9-43.8-64.8-85.3-64.8c-20.2,0-35.4,6-50.2,18.1  C197.4,209.2,188.2,210.2,180.7,202.3z M111.3,270.9l33.4-46.9c6-8.3,15.6-7.7,21.1,0l34,46.9c5.4,7.5,3.1,16.7-6.7,16.7h-21.9  c9.4,37.1,43.8,65,85.3,65c20.2,0,35.2-6.5,50.2-18.3c8.3-6,17.7-7.3,25,0.6c7.5,7.7,5,18.8-5,26.5c-18.1,15-44.2,24-70.3,24  c-59.4,0-106.3-39.8-116.5-97.8h-22.1C108,287.6,106.1,278.4,111.3,270.9z"/>
</svg>