<?xml version="1.0" ?><!-- Generator: Adobe Illustrator 25.0.0, SVG Export Plug-In . SVG Version: 6.00 Build 0)  --><svg xmlns="http://www.w3.org/2000/svg" xmlns:xlink="http://www.w3.org/1999/xlink" version="1.1" id="Layer_1" x="0px" y="0px" viewBox="0 0 512 512" style="enable-background:new 0 0 512 512;" xml:space="preserve">
<path d="M256,512c35,0,67.9-6.7,98.8-20.1c30.9-13.4,58.1-31.9,81.7-55.5c23.6-23.6,42.1-50.8,55.5-81.7  C505.3,323.9,512,291,512,256s-6.7-67.9-20.1-98.8c-13.4-30.9-31.9-58.1-55.5-81.7c-23.6-23.6-50.9-42.1-81.8-55.5  C323.7,6.7,290.7,0,255.7,0S187.9,6.7,157,20.1C126.1,33.5,98.9,52,75.4,75.5c-23.5,23.6-42,50.8-55.3,81.7C6.7,188.1,0,221,0,256  s6.7,67.9,20.1,98.8c13.4,30.9,31.9,58.1,55.5,81.7c23.6,23.6,50.8,42.1,81.7,55.5C188.1,505.3,221,512,256,512z" class="multicolor-0:tintColor hierarchical-0:tertiary SFSymbolsPreview007AFF" style="fill: #007AFF;"/>
<path d="M418.6,256c0,5.4-1.6,9.7-4.9,12.9c-3.3,3.3-7.4,4.9-12.4,4.9H282.9l-47.7-3.3l52.7,46.9l16.3,15.1c1.8,1.5,3.1,3.3,3.9,5.4  c0.8,2.1,1.1,4.5,1.1,7.2c0,4.9-1.6,8.9-4.8,12c-3.2,3.2-7.3,4.8-12.3,4.8c-2,0-4.3-0.5-6.8-1.6s-4.6-2.5-6.3-4.1L190,269.1  c-2-1.8-3.5-3.8-4.5-6c-1-2.2-1.5-4.5-1.5-7c0-2.3,0.6-4.6,1.8-6.9c1.2-2.3,2.6-4.3,4.3-6.1l89.3-87.8c3.3-3.5,7.6-5.3,12.8-5.3  c4.9,0,8.9,1.5,12.2,4.6c3.3,3.1,4.9,7.1,4.9,11.9c0,2.3-0.4,4.6-1.1,6.9c-0.8,2.3-2.1,4.2-3.9,5.9l-16.1,15.6l-52.7,46.7l47.4-2.5  h118.5c5,0,9.2,1.6,12.4,4.9C417,247.1,418.6,251.1,418.6,256z M147.3,370.2c-5.2,0-9.5-1.6-12.8-4.8c-3.3-3.2-5-7.3-5-12.3V158.6  c0-5,1.7-9.2,5-12.4c3.3-3.3,7.6-4.9,12.8-4.9c4.9,0,8.9,1.6,12.2,4.9c3.3,3.3,4.9,7.4,4.9,12.4v194.5c0,5-1.6,9.1-4.9,12.3  C156.2,368.6,152.2,370.2,147.3,370.2z" class="multicolor-1:white hierarchical-1:primary SFSymbolsPreviewFFFFFF" style="fill: #FFFFFF;"/>
</svg>