<?xml version="1.0" ?><!-- Generator: Adobe Illustrator 25.0.0, SVG Export Plug-In . SVG Version: 6.00 Build 0)  --><svg xmlns="http://www.w3.org/2000/svg" xmlns:xlink="http://www.w3.org/1999/xlink" version="1.1" id="Layer_1" x="0px" y="0px" viewBox="0 0 512 512" style="enable-background:new 0 0 512 512;" xml:space="preserve">
<path d="M87.3,512h337.3c58.4,0,87.3-28.9,87.3-86.2V86.2C512,28.9,483.1,0,424.7,0H87.3C29.2,0,0,28.6,0,86.2v339.6  C0,483.4,29.2,512,87.3,512z M87.9,467.2c-27.8,0-43.1-14.7-43.1-43.7V88.4c0-28.9,15.3-43.7,43.1-43.7h336.2  c27.5,0,43.1,14.7,43.1,43.7v335.1c0,28.9-15.6,43.7-43.1,43.7H87.9z M256.4,114c-12,0-20.9,8.6-20.9,20.9v139.1l2.2,58.7L210,299.2  l-33.1-33.4c-3.6-3.9-8.6-6.1-14.7-6.1c-11.4,0-20,8.6-20,20c0,5.8,1.7,10.8,5.3,14.5l92.9,92.3c5.6,5.6,10.3,8.1,16.1,8.1  c6.4,0,11.1-2.8,16.4-8.1l92.6-92.3c3.9-3.6,5.8-8.6,5.8-14.5c0-11.4-8.9-20-20.3-20c-6.1,0-11.1,1.9-14.7,6.1l-32.8,33.4L275,332.9  l2.2-59V134.9C277.3,122.6,268.7,114,256.4,114z"/>
</svg>