<?xml version="1.0" encoding="UTF-8"?>
<!--Generator: Apple Native CoreSVG 326-->
<!DOCTYPE svg
PUBLIC "-//W3C//DTD SVG 1.1//EN"
       "http://www.w3.org/Graphics/SVG/1.1/DTD/svg11.dtd">
<svg version="1.1" xmlns="http://www.w3.org/2000/svg" xmlns:xlink="http://www.w3.org/1999/xlink" viewBox="0 0 29.9512 22.959">
 <g>
  <rect height="22.959" opacity="0" width="29.9512" x="0" y="0"/>
  <path d="M29.5898 3.76953L29.5898 19.1992C29.5898 21.6797 28.3105 22.959 25.7812 22.959L3.79883 22.959C1.2793 22.959 0 21.6992 0 19.1992L0 3.76953C0 1.26953 1.2793 0 3.79883 0L25.7812 0C28.3105 0 29.5898 1.2793 29.5898 3.76953ZM24.5703 3.81836L20.2148 8.17383L18.4961 10.0098L18.6426 7.91992L18.6426 5.63477C18.6426 5.10742 18.3203 4.76562 17.8223 4.76562C17.334 4.76562 17.0117 5.13672 17.0117 5.6543L17.0117 11.6406C17.0117 12.2949 17.3633 12.5586 17.9297 12.5586L23.9453 12.5586C24.4727 12.5586 24.8145 12.2363 24.8145 11.748C24.8145 11.2598 24.4629 10.9277 23.9258 10.9277L21.4355 10.9277L19.5508 11.084L21.3965 9.35547L25.7617 4.98047C25.9277 4.83398 26.0352 4.60938 26.0352 4.39453C26.0352 3.87695 25.7129 3.55469 25.2148 3.55469C24.9414 3.55469 24.7363 3.65234 24.5703 3.81836Z" fill="black" fill-opacity="0.85"/>
 </g>
</svg>
