<?xml version="1.0" encoding="UTF-8"?>
<!--Generator: Apple Native CoreSVG 326-->
<!DOCTYPE svg
PUBLIC "-//W3C//DTD SVG 1.1//EN"
       "http://www.w3.org/Graphics/SVG/1.1/DTD/svg11.dtd">
<svg version="1.1" xmlns="http://www.w3.org/2000/svg" xmlns:xlink="http://www.w3.org/1999/xlink" viewBox="0 0 22.4316 19.5801">
 <g>
  <rect height="19.5801" opacity="0" width="22.4316" x="0" y="0"/>
  <path d="M1.9043 18.1445L1.9043 0.947266C1.9043 0.390625 1.51367 0 0.957031 0C0.390625 0 0 0.390625 0 0.947266L0 18.1445C0 18.6914 0.390625 19.0723 0.957031 19.0723C1.51367 19.0723 1.9043 18.6914 1.9043 18.1445ZM22.0703 9.53125C22.0703 8.97461 21.6895 8.58398 21.1328 8.58398L7.50977 8.58398L4.80469 8.66211L8.64258 5.09766L12.002 1.71875C12.1875 1.5332 12.2852 1.26953 12.2852 1.01562C12.2852 0.478516 11.875 0.078125 11.3477 0.078125C11.0645 0.078125 10.8301 0.195312 10.6055 0.419922L2.20703 8.81836C1.99219 9.02344 1.875 9.26758 1.875 9.53125C1.875 9.80469 1.99219 10.0488 2.20703 10.2539L10.6055 18.6426C10.8301 18.8672 11.0645 18.9844 11.3477 18.9844C11.875 18.9844 12.2852 18.5938 12.2852 18.0566C12.2852 17.793 12.1875 17.5293 12.002 17.3535L8.64258 13.9746L4.79492 10.4102L7.50977 10.4883L21.1328 10.4883C21.6895 10.4883 22.0703 10.0977 22.0703 9.53125Z" fill="black" fill-opacity="0.85"/>
 </g>
</svg>
