<?xml version="1.0" ?><!-- Generator: Adobe Illustrator 25.0.0, SVG Export Plug-In . SVG Version: 6.00 Build 0)  --><svg xmlns="http://www.w3.org/2000/svg" xmlns:xlink="http://www.w3.org/1999/xlink" version="1.1" id="Layer_1" x="0px" y="0px" viewBox="0 0 512 512" style="enable-background:new 0 0 512 512;" xml:space="preserve">
<path d="M256,512c140,0,256-116,256-256C512,116.2,395.8,0,255.7,0C116,0,0,116.2,0,256C0,396,116.2,512,256,512z M276.6,367.7  c-9.5,0-16.3-7-16.3-16.1v-53.5h-4c-54,0-87.8,13.8-112.2,59.2c-4.5,8.8-11,10.3-17.1,10.3c-7.3,0-14.3-6.3-14.3-18.3  c0-103.2,43.9-166.9,143.6-166.9h4v-52.7c0-9.3,6.8-16.8,16.6-16.8c7,0,11.3,2.8,18.6,9.8l109.9,102.7c5.5,5,7.3,10,7.3,14.8  c0,5-1.8,10-7.3,15.1L295.4,358.7C288.9,364.7,283.6,367.7,276.6,367.7z"/>
</svg>