<?xml version="1.0" encoding="UTF-8"?>
<!--Generator: Apple Native CoreSVG 326-->
<!DOCTYPE svg
PUBLIC "-//W3C//DTD SVG 1.1//EN"
       "http://www.w3.org/Graphics/SVG/1.1/DTD/svg11.dtd">
<svg version="1.1" xmlns="http://www.w3.org/2000/svg" xmlns:xlink="http://www.w3.org/1999/xlink" viewBox="0 0 25.8008 25.459">
 <g>
  <rect height="25.459" opacity="0" width="25.8008" x="0" y="0"/>
  <path d="M12.7148 25.4395C19.7363 25.4395 25.4395 19.7461 25.4395 12.7246C25.4395 5.70312 19.7363 0 12.7148 0C5.69336 0 0 5.70312 0 12.7246C0 19.7461 5.69336 25.4395 12.7148 25.4395ZM12.7148 23.623C6.68945 23.623 1.81641 18.75 1.81641 12.7246C1.81641 6.69922 6.68945 1.82617 12.7148 1.82617C18.7402 1.82617 23.6133 6.69922 23.6133 12.7246C23.6133 18.75 18.7402 23.623 12.7148 23.623Z" fill="black" fill-opacity="0.85"/>
  <path d="M11.5332 18.1543C11.9434 18.1543 12.2363 17.832 12.2363 17.4219L12.2363 14.707L12.4707 14.707C15.2832 14.707 17.0117 15.4395 18.1543 17.666C18.3691 18.0664 18.6328 18.1543 18.9062 18.1543C19.2383 18.1543 19.5508 17.8613 19.5508 17.334C19.5508 12.1289 17.2266 9.16992 12.4707 9.16992L12.2363 9.16992L12.2363 6.45508C12.2363 6.04492 11.9434 5.70312 11.5234 5.70312C11.2109 5.70312 11.0059 5.84961 10.7031 6.13281L5.26367 11.2012C4.98047 11.4648 4.90234 11.709 4.90234 11.9238C4.90234 12.1484 4.98047 12.3926 5.26367 12.6562L10.7031 17.7539C10.9766 18.0078 11.2207 18.1543 11.5332 18.1543Z" fill="black" fill-opacity="0.85"/>
 </g>
</svg>
