<?xml version="1.0" ?><!-- Generator: Adobe Illustrator 25.0.0, SVG Export Plug-In . SVG Version: 6.00 Build 0)  --><svg xmlns="http://www.w3.org/2000/svg" xmlns:xlink="http://www.w3.org/1999/xlink" version="1.1" id="Layer_1" x="0px" y="0px" viewBox="0 0 512 512" style="enable-background:new 0 0 512 512;" xml:space="preserve">
<path d="M256,512c140,0,256-116.2,256-256C512,116,395.8,0,255.7,0C116,0,0,116,0,256C0,395.8,116.2,512,256,512z M140.3,256  c-10.5,0-18.8-8.3-18.8-18.8v-93.1c0-16.1,8-22.3,22.1-22.3h92.9c10.5,0,18.8,8.5,18.8,19.1s-8.3,18.8-18.8,18.8h-13.1l-40.7-2.5  l59.7,57c7.8,7.5,8,20.8,0.3,28.6c-7.8,8-20.8,8.3-28.6-0.3l-57.5-60.2l2.8,41.9v13.1C159.4,247.7,150.8,256,140.3,256z   M275.3,390.8c-10.5,0-19.1-8.5-19.1-19.1c0-10.5,8.5-18.8,19.1-18.8h13.1l40.7,2.5l-60-57c-7.8-7.5-8-20.8-0.3-28.6  c8-8,20.8-8.3,28.9,0.3l57.2,60.2l-2.5-41.9v-13.1c0-10.5,8.3-18.8,18.8-18.8c10.5,0,19.1,8.3,19.1,18.8v93.1  c0,16.1-8.3,22.3-22.3,22.3H275.3z"/>
</svg>