<?xml version="1.0" ?><!-- Generator: Adobe Illustrator 25.0.0, SVG Export Plug-In . SVG Version: 6.00 Build 0)  --><svg xmlns="http://www.w3.org/2000/svg" xmlns:xlink="http://www.w3.org/1999/xlink" version="1.1" id="Layer_1" x="0px" y="0px" viewBox="0 0 512 512" style="enable-background:new 0 0 512 512;" xml:space="preserve">
<path d="M94.3,512c8.3,0,16.8-2.9,24.4-7.9l16.5-11.1c44.1-29.8,109.2-97.1,120.3-130.8h1c10.8,33.3,75.9,100.9,120.3,130.8  l16.5,11.1c7.6,5.1,16.2,7.9,24.1,7.9c16.2,0,27-11.1,27-26.7c0-9.5-5.1-19-13.6-24.4l-25.1-16.2  c-44.1-29.2-121.9-102.8-121.9-180.6v-119h45.1c22.2,0,28.2-15.6,15.9-33L273.9,10.8c-10.2-14.3-25.4-14.6-35.9,0L167,111.8  c-12.4,17.8-6.7,33.3,16.2,33.3h45.1v119c0,77.8-78.1,151.1-121.9,180.6l-25.1,16.2c-8.9,5.4-13.6,15.2-13.6,24.8  C67.6,499.9,78.1,512,94.3,512z"/>
</svg>