<?xml version="1.0" encoding="UTF-8"?>
<!--Generator: Apple Native CoreSVG 326-->
<!DOCTYPE svg
PUBLIC "-//W3C//DTD SVG 1.1//EN"
       "http://www.w3.org/Graphics/SVG/1.1/DTD/svg11.dtd">
<svg version="1.1" xmlns="http://www.w3.org/2000/svg" xmlns:xlink="http://www.w3.org/1999/xlink" viewBox="0 0 23.3203 22.959">
 <g>
  <rect height="22.959" opacity="0" width="23.3203" x="0" y="0"/>
  <path d="M3.79883 22.959L19.1504 22.959C21.6797 22.959 22.959 21.6797 22.959 19.1992L22.959 3.76953C22.959 1.2793 21.6797 0 19.1504 0L3.79883 0C1.2793 0 0 1.26953 0 3.76953L0 19.1992C0 21.6992 1.2793 22.959 3.79883 22.959ZM3.83789 21.2305C2.4707 21.2305 1.72852 20.5078 1.72852 19.1016L1.72852 3.85742C1.72852 2.46094 2.4707 1.72852 3.83789 1.72852L19.1211 1.72852C20.459 1.72852 21.2305 2.46094 21.2305 3.85742L21.2305 19.1016C21.2305 20.5078 20.459 21.2305 19.1211 21.2305Z" fill="black" fill-opacity="0.85"/>
  <path d="M11.4941 5.16602C11.2793 5.16602 11.084 5.23438 10.8789 5.44922L6.68945 9.52148C6.52344 9.67773 6.43555 9.85352 6.43555 10.0781C6.43555 10.5176 6.75781 10.8398 7.20703 10.8398C7.41211 10.8398 7.65625 10.752 7.80273 10.5859L9.88281 8.39844L10.7031 7.54883L10.6445 9.4043L10.6445 16.9434C10.6445 17.3926 11.0352 17.7734 11.4941 17.7734C11.9629 17.7734 12.3535 17.3926 12.3535 16.9434L12.3535 9.4043L12.2852 7.54883L13.1055 8.39844L15.1758 10.5859C15.332 10.752 15.5566 10.8398 15.7617 10.8398C16.2109 10.8398 16.5527 10.5176 16.5527 10.0781C16.5527 9.85352 16.4551 9.67773 16.2988 9.52148L12.1191 5.44922C11.9043 5.23438 11.709 5.16602 11.4941 5.16602Z" fill="black" fill-opacity="0.85"/>
 </g>
</svg>
