<?xml version="1.0" ?><!-- Generator: Adobe Illustrator 25.0.0, SVG Export Plug-In . SVG Version: 6.00 Build 0)  --><svg xmlns="http://www.w3.org/2000/svg" xmlns:xlink="http://www.w3.org/1999/xlink" version="1.1" id="Layer_1" x="0px" y="0px" viewBox="0 0 512 512" style="enable-background:new 0 0 512 512;" xml:space="preserve">
<path d="M68.2,455.9h375.6c45.6,0,68.2-22.6,68.2-67.3V123.4c0-44.7-22.6-67.3-68.2-67.3H68.2C22.8,56.1,0,78.5,0,123.4v265.1  C0,433.5,22.8,455.9,68.2,455.9z M390.4,230.9c0-34.7-18.7-53.2-54.1-53.2H35v-52.5c0-22.6,11.9-34.1,33.7-34.1h374.8  c21.5,0,33.7,11.5,33.7,34.1v261.6c0,22.6-12.2,34.1-33.7,34.1h-53V230.9z M68.6,420.9c-21.7,0-33.7-11.5-33.7-34.1v-178h206.5  v212.1H68.6z M334.2,208.8c15.9,0,25.2,9.6,25.2,25.6v186.5h-86.9V208.8H334.2z"/>
</svg>