<?xml version="1.0" ?><!-- Generator: Adobe Illustrator 25.0.0, SVG Export Plug-In . SVG Version: 6.00 Build 0)  --><svg xmlns="http://www.w3.org/2000/svg" xmlns:xlink="http://www.w3.org/1999/xlink" version="1.1" id="Layer_1" x="0px" y="0px" viewBox="0 0 512 512" style="enable-background:new 0 0 512 512;" xml:space="preserve">
<path d="M256,512c140,0,256-116.2,256-256C512,116,395.8,0,255.7,0C116,0,0,116,0,256C0,395.8,116.2,512,256,512z M256.3,389.5  c-13.8,0-22.1-8.5-21.8-22.3l2.3-77.6l-70,45.4c-3.8,2.5-8.3,4-13.6,4c-10.5,0-20.6-8.3-20.6-21.6c0-8.8,4-14.3,12.5-19.1l73-40.9  l-73-40.4c-8.5-4.8-12.5-10.8-12.5-19.1c0-13.6,10-21.6,20.6-21.6c5.3,0,9.8,1.3,13.6,3.8l70,44.7l-2.3-80.1  c-0.3-13.8,8-22.3,21.8-22.3c13.6,0,21.1,8,20.8,22.3l-2.3,80.1l70-44.9c3.8-2.5,8.3-4,13.6-4c10.5,0,20.6,8.3,20.6,21.6  c0,8.5-4,14.6-12.5,19.3l-73.5,40.4l73.5,41.4c8.5,4.8,12.5,10.3,12.5,19.1c0,13.3-10,21.6-20.6,21.6c-5.3,0-9.8-1.5-13.6-4  l-70-45.7l2.3,77.6C277.3,381.5,269.8,389.5,256.3,389.5z"/>
</svg>