<?xml version="1.0" encoding="UTF-8"?>
<!--Generator: Apple Native CoreSVG 326-->
<!DOCTYPE svg
PUBLIC "-//W3C//DTD SVG 1.1//EN"
       "http://www.w3.org/Graphics/SVG/1.1/DTD/svg11.dtd">
<svg version="1.1" xmlns="http://www.w3.org/2000/svg" xmlns:xlink="http://www.w3.org/1999/xlink" viewBox="0 0 25.8008 25.459">
 <g>
  <rect height="25.459" opacity="0" width="25.8008" x="0" y="0"/>
  <path d="M25.4395 12.7246C25.4395 19.7266 19.7266 25.4395 12.7148 25.4395C5.71289 25.4395 0 19.7266 0 12.7246C0 5.71289 5.71289 0 12.7148 0C19.7266 0 25.4395 5.71289 25.4395 12.7246ZM5.13672 12.7148C5.13672 17.3438 8.25195 20.4785 12.8516 20.4785C14.0918 20.4785 15.2051 20.3418 15.9082 20.0977C16.3672 19.9414 16.6211 19.668 16.6211 19.2871C16.6211 18.916 16.3379 18.6328 15.9668 18.6328C15.8496 18.6328 15.7129 18.6719 15.5566 18.7012C14.7559 18.877 14.0137 19.0137 13.0273 19.0137C9.15039 19.0137 6.68945 16.5723 6.68945 12.7441C6.68945 8.97461 9.18945 6.37695 12.832 6.37695C16.4062 6.37695 18.8379 8.65234 18.8379 12.0117C18.8379 14.1504 18.1445 15.4785 17.0898 15.4785C16.3867 15.4785 16.0059 15.0488 16.0059 14.2871L16.0059 9.48242C16.0059 9.01367 15.7129 8.69141 15.2637 8.69141C14.8438 8.69141 14.5508 9.0332 14.5508 9.32617L14.5508 9.74609C14.0625 9.13086 13.2617 8.69141 12.373 8.69141C10.4102 8.69141 9.02344 10.3809 9.02344 12.7637C9.02344 15.166 10.4004 16.8457 12.4023 16.8457C13.4277 16.8457 14.2578 16.3574 14.7656 15.5078C15.1074 16.3379 15.8984 16.8555 16.9531 16.8555C18.9941 16.8555 20.3027 14.9121 20.3027 11.9727C20.3027 7.80273 17.2559 4.93164 12.8418 4.93164C8.30078 4.93164 5.13672 8.125 5.13672 12.7148ZM14.6094 12.6758C14.6094 14.3164 13.8379 15.3418 12.6367 15.3418C11.4551 15.3418 10.6836 14.3262 10.6836 12.7344C10.6836 11.1426 11.4746 10.1172 12.6465 10.1172C13.8477 10.1172 14.6094 11.0938 14.6094 12.6758Z" fill="black" fill-opacity="0.85"/>
 </g>
</svg>
