<?xml version="1.0" encoding="UTF-8"?>
<!--Generator: Apple Native CoreSVG 326-->
<!DOCTYPE svg
PUBLIC "-//W3C//DTD SVG 1.1//EN"
       "http://www.w3.org/Graphics/SVG/1.1/DTD/svg11.dtd">
<svg version="1.1" xmlns="http://www.w3.org/2000/svg" xmlns:xlink="http://www.w3.org/1999/xlink" viewBox="0 0 26.4551 27.7441">
 <g>
  <rect height="27.7441" opacity="0" width="26.4551" x="0" y="0"/>
  <path d="M0 14.375C0 22.5977 5.56641 27.7441 13.291 27.7441C15.4297 27.7441 17.3926 27.4805 18.5742 27.0996C19.3066 26.8652 19.5508 26.4941 19.5508 26.084C19.5508 25.6836 19.2383 25.3711 18.8281 25.3711C18.6719 25.3711 18.4668 25.4199 18.2129 25.4785C16.7773 25.8105 15.4004 26.0547 13.6035 26.0547C6.62109 26.0547 1.83594 21.6504 1.83594 14.4336C1.83594 7.5293 6.46484 2.63672 13.252 2.63672C19.4238 2.63672 24.3848 6.52344 24.3848 13.125C24.3848 17.1387 23.0371 19.7363 20.8398 19.7363C19.3359 19.7363 18.457 18.7891 18.457 17.1875L18.457 8.62305C18.457 8.04688 18.1348 7.68555 17.5977 7.68555C17.0605 7.68555 16.7188 8.04688 16.7188 8.62305L16.7188 10.3809L16.6113 10.3809C15.9863 8.73047 14.375 7.68555 12.4414 7.68555C9.16992 7.68555 6.89453 10.4688 6.89453 14.4727C6.89453 18.4863 9.16016 21.2793 12.4805 21.2793C14.4824 21.2793 15.9863 20.1855 16.7383 18.291L16.8359 18.291C17.0996 20.1562 18.5742 21.2891 20.5859 21.2891C24.0039 21.2891 26.0938 17.959 26.0938 13.0664C26.0938 5.77148 20.7422 0.957031 13.2715 0.957031C5.49805 0.957031 0 6.35742 0 14.375ZM12.7441 19.5801C10.3613 19.5801 8.81836 17.5586 8.81836 14.4629C8.81836 11.3867 10.3809 9.35547 12.7539 9.35547C15.1758 9.35547 16.6992 11.2891 16.6992 14.3652C16.6992 17.5293 15.1367 19.5801 12.7441 19.5801Z" fill="black" fill-opacity="0.85"/>
 </g>
</svg>
