<?xml version="1.0" encoding="UTF-8"?>
<!--Generator: Apple Native CoreSVG 326-->
<!DOCTYPE svg
PUBLIC "-//W3C//DTD SVG 1.1//EN"
       "http://www.w3.org/Graphics/SVG/1.1/DTD/svg11.dtd">
<svg version="1.1" xmlns="http://www.w3.org/2000/svg" xmlns:xlink="http://www.w3.org/1999/xlink" viewBox="0 0 28.291 27.9395">
 <g>
  <rect height="27.9395" opacity="0" width="28.291" x="0" y="0"/>
  <path d="M13.9648 27.9297C21.6406 27.9297 27.9297 21.6504 27.9297 13.9648C27.9297 6.2793 21.6406 0 13.9648 0C6.28906 0 0 6.2793 0 13.9648C0 21.6504 6.28906 27.9297 13.9648 27.9297ZM13.9648 23.3398C8.7793 23.3398 4.58008 19.1504 4.58008 13.9648C4.58008 8.7793 8.7793 4.58008 13.9648 4.58008C19.1504 4.58008 23.3496 8.7793 23.3496 13.9648C23.3496 19.1504 19.1504 23.3398 13.9648 23.3398Z" fill="black" fill-opacity="0.85"/>
  <path d="M7.79297 18.877C8.0957 18.877 8.29102 18.7109 8.37891 18.3691L8.95508 16.1328L12.0312 16.1328L12.627 18.3691C12.7148 18.7109 12.8906 18.877 13.2324 18.877C13.5352 18.877 13.8086 18.6914 13.8086 18.3203C13.8086 18.2031 13.7891 18.0859 13.75 17.9492L11.3965 9.64844C11.2598 9.16992 11.0059 8.91602 10.498 8.91602C10.0098 8.91602 9.73633 9.18945 9.59961 9.6582L7.26562 17.9492C7.22656 18.0664 7.20703 18.1934 7.20703 18.3203C7.20703 18.6914 7.4707 18.877 7.79297 18.877ZM9.19922 15.166L10.4297 10.3906L10.5273 10.3906L11.7871 15.166ZM17.5879 18.5938C19.1992 18.5938 20.3613 17.7051 20.3613 16.1426C20.3613 14.7168 19.502 14.1504 18.3008 13.5645L17.4707 13.1738C16.709 12.8027 16.0156 12.334 16.0156 11.4941C16.0156 10.6055 16.6992 10.1562 17.5586 10.1562C18.5254 10.1562 18.9355 10.752 19.1113 11.6797C19.1895 11.9531 19.3652 12.1191 19.6484 12.1191C19.9805 12.1191 20.2051 11.9238 20.2051 11.582C20.2051 11.4648 20.1855 11.3184 20.1465 11.1621C19.8633 9.88281 18.8965 9.18945 17.5586 9.18945C16.0547 9.18945 14.873 10.0488 14.873 11.5625C14.873 12.8516 15.625 13.5352 16.8848 14.1309L17.7246 14.5312C18.5449 14.9121 19.2188 15.3418 19.2188 16.2402C19.2188 17.168 18.5742 17.6172 17.5879 17.6172C16.4746 17.6172 16.0156 16.9434 15.8691 16.084C15.7812 15.7227 15.5762 15.5859 15.3125 15.5859C15 15.5859 14.7559 15.7812 14.7559 16.1328C14.7559 16.25 14.7656 16.3672 14.7949 16.5039C15.0098 17.7246 16.0938 18.5938 17.5879 18.5938ZM17.5684 19.873C17.7344 19.873 17.8809 19.7266 17.8809 19.5605L17.8809 8.25195C17.8809 8.08594 17.7344 7.93945 17.5684 7.93945C17.3926 7.93945 17.2559 8.08594 17.2559 8.25195L17.2559 19.5605C17.2559 19.7266 17.3926 19.873 17.5684 19.873Z" fill="black" fill-opacity="0.85"/>
 </g>
</svg>
