<?xml version="1.0" ?><!-- Generator: Adobe Illustrator 25.0.0, SVG Export Plug-In . SVG Version: 6.00 Build 0)  --><svg xmlns="http://www.w3.org/2000/svg" xmlns:xlink="http://www.w3.org/1999/xlink" version="1.1" id="Layer_1" x="0px" y="0px" viewBox="0 0 512 512" style="enable-background:new 0 0 512 512;" xml:space="preserve">
<path d="M87.3,512h337.3c58.4,0,87.3-28.9,87.3-86.2V86.2C512,28.9,483.1,0,424.7,0H87.3C29.2,0,0,28.6,0,86.2v339.6  C0,483.4,29.2,512,87.3,512z M139.3,314.8c0-8.1,5.3-14.5,13.9-14.5H178l8.1-24.2h-32.8c-8.6,0-13.9-6.1-13.9-14.2  c0-8.1,5.3-14.2,13.9-14.2h42.3l37.8-114.9c3.6-10.6,10.6-16.7,22.5-16.7c11.7,0,18.6,6.4,22.2,16.7l38.1,114.9h42.6  c8.6,0,13.9,6.1,13.9,14.2c0,8.1-5.3,14.2-13.9,14.2h-33.1l8.1,24.2h25c8.6,0,13.9,6.4,13.9,14.5c0,8.1-5.3,13.9-13.9,13.9h-15.9  l13.9,42c1.4,4.5,2.2,7.2,2.2,9.7c0,9.7-7.8,17-18.9,17c-9.5,0-15.3-4.2-18.1-13.9l-17.2-54.8h-97.6l-17.2,54.5  c-2.8,9.7-9.2,14.2-18.1,14.2c-11.1,0-18.9-7.2-18.9-17c0-2.5,0.3-5.3,1.9-9.7l13.9-42h-15.6C144.6,328.7,139.3,322.9,139.3,314.8z   M231.9,247.8h47.8L255.9,171L231.9,247.8z M215.8,300.4h80.4l-7.8-24.2h-65.1L215.8,300.4z"/>
</svg>