<?xml version="1.0" encoding="UTF-8"?>
<!--Generator: Apple Native CoreSVG 326-->
<!DOCTYPE svg
PUBLIC "-//W3C//DTD SVG 1.1//EN"
       "http://www.w3.org/Graphics/SVG/1.1/DTD/svg11.dtd">
<svg version="1.1" xmlns="http://www.w3.org/2000/svg" xmlns:xlink="http://www.w3.org/1999/xlink" viewBox="0 0 23.3203 22.959">
 <g>
  <rect height="22.959" opacity="0" width="23.3203" x="0" y="0"/>
  <path d="M3.79883 22.959L19.1504 22.959C21.6797 22.959 22.959 21.6797 22.959 19.1992L22.959 3.76953C22.959 1.2793 21.6797 0 19.1504 0L3.79883 0C1.2793 0 0 1.26953 0 3.76953L0 19.1992C0 21.6992 1.2793 22.959 3.79883 22.959ZM3.83789 21.2305C2.4707 21.2305 1.72852 20.5078 1.72852 19.1016L1.72852 3.85742C1.72852 2.46094 2.4707 1.72852 3.83789 1.72852L19.1211 1.72852C20.459 1.72852 21.2305 2.46094 21.2305 3.85742L21.2305 19.1016C21.2305 20.5078 20.459 21.2305 19.1211 21.2305Z" fill="black" fill-opacity="0.85"/>
  <path d="M4.98047 16.6406C5.30273 16.6406 5.50781 16.4648 5.5957 16.1133L6.20117 13.75L9.44336 13.75L10.0684 16.1133C10.166 16.4648 10.3516 16.6406 10.7129 16.6406C11.0254 16.6406 11.3086 16.4551 11.3086 16.0547C11.3086 15.9375 11.2988 15.8105 11.25 15.6641L8.7793 6.93359C8.62305 6.42578 8.35938 6.16211 7.83203 6.16211C7.31445 6.16211 7.02148 6.44531 6.88477 6.94336L4.42383 15.6641C4.38477 15.791 4.36523 15.9277 4.36523 16.0547C4.36523 16.4551 4.64844 16.6406 4.98047 16.6406ZM6.46484 12.7344L7.76367 7.71484L7.86133 7.71484L9.17969 12.7344ZM15.293 16.3477C16.9824 16.3477 18.2129 15.4102 18.2129 13.7695C18.2129 12.2656 17.3145 11.6699 16.0449 11.0547L15.166 10.6348C14.3652 10.2539 13.6328 9.75586 13.6328 8.86719C13.6328 7.93945 14.3555 7.46094 15.2637 7.46094C16.2793 7.46094 16.709 8.08594 16.8945 9.07227C16.9727 9.35547 17.1582 9.53125 17.4609 9.53125C17.8125 9.53125 18.0469 9.32617 18.0469 8.96484C18.0469 8.83789 18.0273 8.69141 17.9785 8.51562C17.6953 7.17773 16.6699 6.45508 15.2637 6.45508C13.6816 6.45508 12.4414 7.34375 12.4414 8.94531C12.4414 10.3027 13.2227 11.0254 14.5508 11.6504L15.4395 12.0703C16.2988 12.4707 17.0117 12.9297 17.0117 13.877C17.0117 14.8535 16.3281 15.3223 15.293 15.3223C14.1211 15.3223 13.6328 14.6094 13.4766 13.7012C13.3984 13.3301 13.1738 13.1836 12.9004 13.1836C12.5684 13.1836 12.3145 13.3887 12.3145 13.7598C12.3145 13.877 12.3242 14.0039 12.3438 14.1504C12.5781 15.4297 13.7207 16.3477 15.293 16.3477ZM15.2637 17.6855C15.4492 17.6855 15.5957 17.5391 15.5957 17.3633L15.5957 5.46875C15.5957 5.2832 15.4492 5.13672 15.2637 5.13672C15.0879 5.13672 14.9414 5.2832 14.9414 5.46875L14.9414 17.3633C14.9414 17.5391 15.0879 17.6855 15.2637 17.6855Z" fill="black" fill-opacity="0.85"/>
 </g>
</svg>
