<?xml version="1.0" ?><!-- Generator: Adobe Illustrator 25.0.0, SVG Export Plug-In . SVG Version: 6.00 Build 0)  --><svg xmlns="http://www.w3.org/2000/svg" xmlns:xlink="http://www.w3.org/1999/xlink" version="1.1" id="Layer_1" x="0px" y="0px" viewBox="0 0 512 512" style="enable-background:new 0 0 512 512;" xml:space="preserve">
<path d="M256,512c140,0,256-116.2,256-256C512,116,395.8,0,255.7,0C116,0,0,116,0,256C0,395.8,116.2,512,256,512z M150.3,309.5  c0-7.3,4.8-13.1,12.5-13.1h22.3l7.3-21.8h-29.6c-7.8,0-12.5-5.5-12.5-12.8c0-7.3,4.8-12.8,12.5-12.8H201l34.1-103.7  c3.3-9.5,9.3-15.1,20.3-15.1c10.5,0,16.8,5.8,20.1,15.1L310,249h38.4c7.8,0,12.5,5.5,12.5,12.8c0,7.3-4.8,12.8-12.5,12.8h-29.9  l7.3,21.8h22.6c7.8,0,12.5,5.8,12.5,13.1c0,7.3-4.8,12.5-12.5,12.5h-14.6l12.8,37.9c1.3,4,2,6.5,2,8.8c0,8.8-7,15.3-17.1,15.3  c-8.5,0-13.8-3.8-16.3-12.5L299.7,322h-88.1L196,371.2c-2.5,8.8-8.3,12.8-16.6,12.8c-10,0-16.8-6.5-16.8-15.3c0-2.3,0.3-4.8,1.5-8.8  l12.8-37.9h-14.1C155.1,322,150.3,316.7,150.3,309.5z M233.9,249h43.2l-21.6-69.3L233.9,249z M219.1,296.4h72.8l-7-21.8h-58.7  L219.1,296.4z"/>
</svg>