<?xml version="1.0" encoding="UTF-8"?>
<!--Generator: Apple Native CoreSVG 326-->
<!DOCTYPE svg
PUBLIC "-//W3C//DTD SVG 1.1//EN"
       "http://www.w3.org/Graphics/SVG/1.1/DTD/svg11.dtd">
<svg version="1.1" xmlns="http://www.w3.org/2000/svg" xmlns:xlink="http://www.w3.org/1999/xlink" viewBox="0 0 33.623 28.2715">
 <g>
  <rect height="28.2715" opacity="0" width="33.623" x="0" y="0"/>
  <path d="M1.03516 25.8496C1.60156 25.8496 1.91406 25.5762 2.08008 25.0195L4.05273 18.7402L12.5879 18.7402L14.5605 25.0195C14.7266 25.5762 15.0391 25.8496 15.6152 25.8496C16.1914 25.8496 16.6504 25.4883 16.6504 24.9023C16.6504 24.7461 16.582 24.4629 16.5332 24.2871L9.79492 3.48633C9.57031 2.74414 9.12109 2.28516 8.33984 2.28516C7.54883 2.28516 7.09961 2.73438 6.86523 3.50586L0.136719 24.2871C0.0683594 24.4727 0 24.707 0 24.9023C0 25.4883 0.449219 25.8496 1.03516 25.8496ZM4.58008 16.9336L8.26172 5.10742L8.36914 5.10742L12.0605 16.9336ZM26.2891 25.2051C30.166 25.2051 33.2617 23.1543 33.2617 19.375C33.2617 15.9082 30.7227 14.502 27.832 13.418L25.6836 12.6172C23.6523 11.8848 21.6113 10.7129 21.6113 8.4375C21.6113 6.04492 23.7695 4.75586 26.2109 4.75586C28.7305 4.75586 30.4492 6.12305 30.8789 8.61328C30.9863 9.11133 31.2793 9.50195 31.8945 9.50195C32.5293 9.50195 32.9199 9.08203 32.9102 8.48633C32.9102 8.30078 32.8906 8.06641 32.8418 7.8418C32.168 4.54102 29.4727 2.91992 26.2109 2.91992C22.6465 2.91992 19.5508 4.98047 19.5508 8.54492C19.5508 11.748 21.9531 13.3398 24.834 14.4141L26.9824 15.2246C29.2676 16.0449 31.2207 17.0898 31.2207 19.541C31.2207 22.1191 29.043 23.3691 26.2988 23.3691C23.4375 23.3691 21.5723 21.9824 21.1621 19.2773C21.0449 18.7305 20.6934 18.3691 20.1367 18.3691C19.541 18.3691 19.1504 18.7891 19.1504 19.3652C19.1504 19.5996 19.1797 19.8535 19.2188 20.0488C19.8828 23.5254 22.8125 25.2051 26.2891 25.2051ZM26.2012 28.2617C26.582 28.2617 26.9043 27.9395 26.9043 27.5586L26.9043 0.703125C26.9043 0.322266 26.582 0 26.2012 0C25.8105 0 25.4883 0.322266 25.4883 0.703125L25.4883 27.5586C25.4883 27.9395 25.8105 28.2617 26.2012 28.2617Z" fill="black" fill-opacity="0.85"/>
 </g>
</svg>
