<?xml version="1.0" encoding="UTF-8"?>
<!--Generator: Apple Native CoreSVG 326-->
<!DOCTYPE svg
PUBLIC "-//W3C//DTD SVG 1.1//EN"
       "http://www.w3.org/Graphics/SVG/1.1/DTD/svg11.dtd">
<svg version="1.1" xmlns="http://www.w3.org/2000/svg" xmlns:xlink="http://www.w3.org/1999/xlink" viewBox="0 0 25.6918 25.3305">
 <g>
  <rect height="25.3305" opacity="0" width="25.6918" x="0" y="0"/>
  <path d="M5.54122 5.53146C1.52754 9.54513-0.347456 14.9358 0.0529347 19.2033C0.316607 22.9631 2.33809 25.0139 6.0295 25.2678C10.385 25.6682 15.7658 23.7932 19.7893 19.7795C23.8029 15.7658 25.6682 10.3752 25.2678 6.0295C25.0236 2.32833 22.9631 0.306848 19.2131 0.0529414C14.9455-0.347449 9.55489 1.52755 5.54122 5.53146ZM7.12325 15.385C6.89864 15.1604 6.9084 14.8088 7.12325 14.5842C7.35762 14.3596 7.71895 14.3693 7.93379 14.5842L8.93965 15.5901L10.0236 14.5061L9.00801 13.4904C8.79317 13.2756 8.7834 12.9143 9.00801 12.719C9.22286 12.4748 9.60372 12.4846 9.81856 12.7092L10.8244 13.7151L11.8986 12.6408L10.883 11.6252C10.6682 11.4006 10.6584 11.049 10.883 10.8342C11.0881 10.6096 11.469 10.6193 11.6643 10.8342L12.6897 11.8498L13.7736 10.7756L12.758 9.75997C12.5432 9.53536 12.5432 9.17404 12.7482 8.95919C12.9826 8.73458 13.3244 8.74435 13.549 8.96896L14.5647 9.97482L15.6486 8.9006L14.633 7.89474C14.4084 7.67013 14.4182 7.29904 14.6232 7.07443C14.8576 6.86935 15.219 6.85958 15.4338 7.06466L18.2463 9.88693C18.4611 10.1018 18.4514 10.4631 18.2365 10.6877C18.0217 10.9026 17.6506 10.9123 17.426 10.6877L16.4299 9.68185L15.3459 10.7658L16.3615 11.7717C16.5764 11.9963 16.5764 12.3283 16.3615 12.5627C16.1369 12.7678 15.7854 12.7776 15.5607 12.5627L14.5549 11.5568L13.4807 12.6408L14.4865 13.6369C14.7014 13.8518 14.7014 14.2131 14.4768 14.4279C14.2619 14.6526 13.9104 14.6526 13.6955 14.4377L12.6897 13.4318L11.6154 14.5061L12.6115 15.5022C12.8264 15.717 12.8361 16.0881 12.6018 16.3127C12.3967 16.5276 12.0354 16.5276 11.8205 16.3127L10.8147 15.2971L9.73067 16.3811L10.7365 17.3869C10.9416 17.6018 10.9514 17.9533 10.7365 18.1975C10.5119 18.4123 10.1604 18.4221 9.93575 18.1975Z" fill="black" fill-opacity="0.85"/>
 </g>
</svg>
