<?xml version="1.0" ?><!-- Generator: Adobe Illustrator 25.0.0, SVG Export Plug-In . SVG Version: 6.00 Build 0)  --><svg xmlns="http://www.w3.org/2000/svg" xmlns:xlink="http://www.w3.org/1999/xlink" version="1.1" id="Layer_1" x="0px" y="0px" viewBox="0 0 512 512" style="enable-background:new 0 0 512 512;" xml:space="preserve">
<path d="M256,512c140,0,256-116.2,256-256C512,116,395.8,0,255.7,0C116,0,0,116,0,256C0,395.8,116.2,512,256,512z M256,469.3  c-118.5,0-213.1-94.9-213.1-213.3S137.3,42.7,255.7,42.7S469.1,137.5,469.3,256S374.5,469.3,256,469.3z M153.6,307.7  c0,7,4.8,12.5,12.3,12.5h13.6l-12.5,36.9c-1,3.8-1.3,6.3-1.3,8c0,8.5,6.5,15.1,16.1,15.1c8,0,13.6-4,16.1-12.3l15.1-47.7h85.6  l15.1,47.9c2.5,8.3,7.5,12,15.8,12c9.5,0,16.3-6.5,16.3-15.1c0-1.8-0.5-4.3-1.8-8l-12.5-36.9h14.1c7.5,0,12.3-5.5,12.3-12.5  c0-7-4.8-12.3-12.3-12.3h-21.8l-7-21.3h28.9c7.5,0,12.3-5.3,12.3-12.3c0-7-4.8-12.5-12.3-12.5h-37.1l-33.4-100.4  c-3-8.8-9-14.6-19.3-14.6c-10.5,0-16.6,5.5-19.6,14.6l-33.1,100.4h-36.9c-7.5,0-12.3,5.5-12.3,12.5c0,7,4.8,12.3,12.3,12.3h28.6  l-7,21.3h-21.6C158.4,295.4,153.6,300.7,153.6,307.7z M234.4,249.2l21.1-67l21.1,67H234.4z M220.1,295.4l6.8-21.3h57.2l6.8,21.3  H220.1z"/>
</svg>