<?xml version="1.0" encoding="UTF-8"?>
<!--Generator: Apple Native CoreSVG 326-->
<!DOCTYPE svg
PUBLIC "-//W3C//DTD SVG 1.1//EN"
       "http://www.w3.org/Graphics/SVG/1.1/DTD/svg11.dtd">
<svg version="1.1" xmlns="http://www.w3.org/2000/svg" xmlns:xlink="http://www.w3.org/1999/xlink" viewBox="0 0 27.9395 26.5527">
 <g>
  <rect height="26.5527" opacity="0" width="27.9395" x="0" y="0"/>
  <path d="M1.5332 23.8379L26.0449 23.8379L26.0449 23.0859C26.0449 22.666 25.791 22.4121 25.3613 22.4121L24.5605 22.4121L24.5605 8.33984L25.6934 8.33984C26.2891 8.33984 26.6211 7.91992 26.6211 7.48047C26.6211 7.1582 26.4453 6.875 26.0547 6.65039L15.2637 0.419922C14.7852 0.146484 14.2773 0 13.7891 0C13.3008 0 12.7832 0.146484 12.3145 0.419922L1.52344 6.65039C1.12305 6.875 0.957031 7.1582 0.957031 7.48047C0.957031 7.91992 1.28906 8.33984 1.88477 8.33984L3.02734 8.33984L3.02734 22.4121L2.22656 22.4121C1.78711 22.4121 1.5332 22.666 1.5332 23.0859ZM4.6582 22.4121L4.6582 6.85547L13.2227 2.03125C13.3887 1.93359 13.5938 1.875 13.7891 1.875C13.9746 1.875 14.1699 1.93359 14.3555 2.03125L22.9297 6.85547L22.9297 22.4121ZM0.869141 26.5332L26.709 26.5332C27.1875 26.5332 27.5781 26.1426 27.5781 25.6738C27.5781 25.1953 27.1875 24.8047 26.709 24.8047L0.869141 24.8047C0.390625 24.8047 0 25.1953 0 25.6738C0 26.1426 0.390625 26.5332 0.869141 26.5332Z" fill="black" fill-opacity="0.85"/>
  <path d="M7.69531 18.0566C7.99805 18.0566 8.19336 17.8906 8.27148 17.5586L8.83789 15.3418L11.8848 15.3418L12.4707 17.5586C12.5684 17.8906 12.7344 18.0566 13.0762 18.0566C13.3691 18.0566 13.6426 17.8809 13.6426 17.5098C13.6426 17.3926 13.623 17.2754 13.584 17.1484L11.2598 8.94531C11.123 8.4668 10.8691 8.22266 10.3711 8.22266C9.88281 8.22266 9.61914 8.48633 9.48242 8.95508L7.17773 17.1484C7.13867 17.2559 7.11914 17.3828 7.11914 17.5098C7.11914 17.8809 7.38281 18.0566 7.69531 18.0566ZM9.0918 14.3945L10.3027 9.67773L10.4004 9.67773L11.6406 14.3945ZM17.373 17.7734C18.9648 17.7734 20.1172 16.9043 20.1172 15.3613C20.1172 13.9551 19.2676 13.3887 18.0762 12.8125L17.2559 12.4219C16.5039 12.0605 15.8203 11.5918 15.8203 10.7617C15.8203 9.88281 16.5039 9.44336 17.3438 9.44336C18.3008 9.44336 18.7012 10.0293 18.8867 10.9473C18.9551 11.2207 19.1309 11.3867 19.4043 11.3867C19.7363 11.3867 19.9609 11.1914 19.9609 10.8496C19.9609 10.7422 19.9414 10.5957 19.9023 10.4297C19.6289 9.17969 18.6719 8.49609 17.3438 8.49609C15.8594 8.49609 14.6973 9.33594 14.6973 10.8301C14.6973 12.0996 15.4395 12.7832 16.6797 13.3691L17.5098 13.7598C18.3203 14.1406 18.9941 14.5703 18.9941 15.459C18.9941 16.377 18.3496 16.8164 17.373 16.8164C16.2695 16.8164 15.8203 16.1523 15.6738 15.3027C15.5957 14.9512 15.3906 14.8047 15.127 14.8047C14.8242 14.8047 14.5801 15.0098 14.5801 15.3516C14.5801 15.4688 14.5898 15.5762 14.6094 15.7129C14.8242 16.9141 15.9082 17.7734 17.373 17.7734ZM17.3535 19.043C17.5195 19.043 17.666 18.8965 17.666 18.7305L17.666 7.56836C17.666 7.40234 17.5195 7.25586 17.3535 7.25586C17.1875 7.25586 17.041 7.40234 17.041 7.56836L17.041 18.7305C17.041 18.8965 17.1875 19.043 17.3535 19.043Z" fill="black" fill-opacity="0.85"/>
 </g>
</svg>
