<?xml version="1.0" encoding="UTF-8"?>
<!--Generator: Apple Native CoreSVG 326-->
<!DOCTYPE svg
PUBLIC "-//W3C//DTD SVG 1.1//EN"
       "http://www.w3.org/Graphics/SVG/1.1/DTD/svg11.dtd">
<svg version="1.1" xmlns="http://www.w3.org/2000/svg" xmlns:xlink="http://www.w3.org/1999/xlink" viewBox="0 0 28.291 27.9395">
 <g>
  <rect height="27.9395" opacity="0" width="28.291" x="0" y="0"/>
  <path d="M13.9648 27.9297C21.6406 27.9297 27.9297 21.6504 27.9297 13.9648C27.9297 6.2793 21.6406 0 13.9648 0C6.28906 0 0 6.2793 0 13.9648C0 21.6504 6.28906 27.9297 13.9648 27.9297ZM13.9648 23.3398C8.7793 23.3398 4.58008 19.1504 4.58008 13.9648C4.58008 8.7793 8.7793 4.58008 13.9648 4.58008C19.1504 4.58008 23.3496 8.7793 23.3496 13.9648C23.3496 19.1504 19.1504 23.3398 13.9648 23.3398Z" fill="black" fill-opacity="0.85"/>
  <path d="M10.332 19.7168C10.6738 19.7168 10.8594 19.5605 10.957 19.2285L13.9355 9.78516L13.9844 9.78516L16.9629 19.2383C17.0508 19.5312 17.2266 19.7168 17.5977 19.7168C17.9297 19.7168 18.2422 19.5215 18.2422 19.1504C18.2422 19.0332 18.2129 18.9062 18.1738 18.7891L14.8438 8.83789C14.6973 8.4082 14.4336 8.17383 13.9648 8.17383C13.5059 8.17383 13.2031 8.42773 13.0664 8.83789L9.74609 18.8184C9.70703 18.9355 9.67773 19.0527 9.67773 19.1504C9.67773 19.502 9.96094 19.7168 10.332 19.7168ZM9.21875 14.209C9.21875 14.4238 9.38477 14.5898 9.58984 14.5898L18.3301 14.5898C18.5352 14.5898 18.7109 14.4238 18.7109 14.209C18.7109 14.0039 18.5352 13.8281 18.3301 13.8281L9.58984 13.8281C9.38477 13.8281 9.21875 14.0039 9.21875 14.209ZM9.21875 16.4453C9.21875 16.6504 9.38477 16.8262 9.58984 16.8262L18.3301 16.8262C18.5352 16.8262 18.7109 16.6504 18.7109 16.4453C18.7109 16.2402 18.5352 16.0645 18.3301 16.0645L9.58984 16.0645C9.38477 16.0645 9.21875 16.2402 9.21875 16.4453Z" fill="black" fill-opacity="0.85"/>
 </g>
</svg>
