<?xml version="1.0" encoding="UTF-8"?>
<!--Generator: Apple Native CoreSVG 326-->
<!DOCTYPE svg
PUBLIC "-//W3C//DTD SVG 1.1//EN"
       "http://www.w3.org/Graphics/SVG/1.1/DTD/svg11.dtd">
<svg version="1.1" xmlns="http://www.w3.org/2000/svg" xmlns:xlink="http://www.w3.org/1999/xlink" viewBox="0 0 25.8008 25.459">
 <g>
  <rect height="25.459" opacity="0" width="25.8008" x="0" y="0"/>
  <path d="M12.7148 25.4395C19.7363 25.4395 25.4395 19.7461 25.4395 12.7246C25.4395 5.70312 19.7363 0 12.7148 0C5.69336 0 0 5.70312 0 12.7246C0 19.7461 5.69336 25.4395 12.7148 25.4395ZM12.7148 23.623C6.68945 23.623 1.81641 18.75 1.81641 12.7246C1.81641 6.69922 6.68945 1.82617 12.7148 1.82617C18.7402 1.82617 23.6133 6.69922 23.6133 12.7246C23.6133 18.75 18.7402 23.623 12.7148 23.623Z" fill="black" fill-opacity="0.85"/>
  <path d="M9.07227 18.4766C9.41406 18.4766 9.59961 18.3203 9.69727 17.9883L12.6758 8.54492L12.7246 8.54492L15.7129 17.998C15.8008 18.291 15.9766 18.4766 16.3379 18.4766C16.6797 18.4766 16.9824 18.2812 16.9824 17.9102C16.9824 17.793 16.9629 17.666 16.9141 17.5488L13.584 7.59766C13.4375 7.16797 13.1738 6.93359 12.7051 6.93359C12.2461 6.93359 11.9434 7.1875 11.8164 7.59766L8.48633 17.5781C8.44727 17.6953 8.41797 17.8125 8.41797 17.9102C8.41797 18.2617 8.71094 18.4766 9.07227 18.4766ZM7.95898 12.9688C7.95898 13.1836 8.125 13.3496 8.33984 13.3496L17.0703 13.3496C17.2754 13.3496 17.4512 13.1836 17.4512 12.9688C17.4512 12.7637 17.2754 12.5879 17.0703 12.5879L8.33984 12.5879C8.125 12.5879 7.95898 12.7637 7.95898 12.9688ZM7.95898 15.2051C7.95898 15.4102 8.125 15.5859 8.33984 15.5859L17.0703 15.5859C17.2754 15.5859 17.4512 15.4102 17.4512 15.2051C17.4512 15 17.2754 14.8242 17.0703 14.8242L8.33984 14.8242C8.125 14.8242 7.95898 15 7.95898 15.2051Z" fill="black" fill-opacity="0.85"/>
 </g>
</svg>
