<?xml version="1.0" encoding="UTF-8"?>
<!--Generator: Apple Native CoreSVG 326-->
<!DOCTYPE svg
PUBLIC "-//W3C//DTD SVG 1.1//EN"
       "http://www.w3.org/Graphics/SVG/1.1/DTD/svg11.dtd">
<svg version="1.1" xmlns="http://www.w3.org/2000/svg" xmlns:xlink="http://www.w3.org/1999/xlink" viewBox="0 0 23.3203 22.959">
 <g>
  <rect height="22.959" opacity="0" width="23.3203" x="0" y="0"/>
  <path d="M22.959 3.76953L22.959 19.1992C22.959 21.6797 21.6797 22.959 19.1504 22.959L3.79883 22.959C1.2793 22.959 0 21.6992 0 19.1992L0 3.76953C0 1.26953 1.2793 0 3.79883 0L19.1504 0C21.6797 0 22.959 1.2793 22.959 3.76953ZM10.5566 6.2207L8.86719 11.3379L7.01172 11.3379C6.78711 11.3379 6.62109 11.5137 6.62109 11.7285C6.62109 11.9434 6.78711 12.1191 7.01172 12.1191L8.60352 12.1191L8.10547 13.623L7.01172 13.623C6.78711 13.623 6.62109 13.8086 6.62109 14.0234C6.62109 14.2285 6.78711 14.4141 7.01172 14.4141L7.8418 14.4141L7.1582 16.4453C7.11914 16.582 7.08984 16.6895 7.08984 16.7871C7.08984 17.1484 7.39258 17.3828 7.76367 17.3828C8.11523 17.3828 8.31055 17.207 8.4082 16.8652L9.18945 14.4141L13.7793 14.4141L14.5605 16.875C14.6484 17.1777 14.834 17.3828 15.2051 17.3828C15.5566 17.3828 15.8691 17.1777 15.8691 16.7871C15.8691 16.6699 15.8496 16.5332 15.8008 16.416L15.127 14.4141L15.957 14.4141C16.1816 14.4141 16.3574 14.2285 16.3574 14.0234C16.3574 13.8086 16.1816 13.623 15.957 13.623L14.8633 13.623L14.3555 12.1191L15.957 12.1191C16.1816 12.1191 16.3574 11.9434 16.3574 11.7285C16.3574 11.5137 16.1816 11.3379 15.957 11.3379L14.1016 11.3379L12.3926 6.2207C12.2363 5.78125 11.9727 5.53711 11.4844 5.53711C11.0156 5.53711 10.7031 5.80078 10.5566 6.2207ZM13.5352 13.623L9.42383 13.623L9.90234 12.1191L13.0664 12.1191ZM12.8125 11.3379L10.1465 11.3379L11.4551 7.19727L11.5039 7.19727Z" fill="black" fill-opacity="0.85"/>
 </g>
</svg>
