<?xml version="1.0" encoding="UTF-8"?>
<!--Generator: Apple Native CoreSVG 326-->
<!DOCTYPE svg
PUBLIC "-//W3C//DTD SVG 1.1//EN"
       "http://www.w3.org/Graphics/SVG/1.1/DTD/svg11.dtd">
<svg version="1.1" xmlns="http://www.w3.org/2000/svg" xmlns:xlink="http://www.w3.org/1999/xlink" viewBox="0 0 30.6563 25.459">
 <g>
  <rect height="25.459" opacity="0" width="30.6563" x="0" y="0"/>
  <path d="M15.1475 25.4395C22.169 25.4395 27.8623 19.7461 27.8623 12.7246C27.8623 5.70312 22.169 0 15.1475 0C8.12599 0 2.43263 5.70312 2.43263 12.7246L4.24904 12.7246C4.24904 6.69922 9.12208 1.82617 15.1475 1.82617C21.1729 1.82617 26.0459 6.69922 26.0459 12.7246C26.0459 18.75 21.1729 23.623 15.1475 23.623C11.417 23.623 8.08693 21.7285 6.18263 18.877C5.86037 18.4375 5.35255 18.3008 4.90333 18.5742C4.47365 18.8281 4.34669 19.4238 4.69826 19.9023C6.97365 23.252 10.8213 25.4395 15.1475 25.4395ZM0.801772 10.3613C0.000990731 10.3613-0.223619 10.9082 0.235366 11.543L3.0088 15.4883C3.3799 16.0254 3.91701 16.0156 4.27833 15.4883L7.05177 11.5332C7.49123 10.9082 7.27638 10.3613 6.48537 10.3613Z" fill="black" fill-opacity="0.85"/>
  <path d="M8.84865 17.7344C9.16115 17.7344 9.36623 17.5684 9.44435 17.2168L10.0401 14.9316L13.1846 14.9316L13.7803 17.2168C13.8779 17.5684 14.0537 17.7344 14.4053 17.7344C14.7178 17.7344 14.9912 17.5488 14.9912 17.168C14.9912 17.0508 14.9717 16.9336 14.9326 16.7871L12.5303 8.32031C12.3838 7.83203 12.1299 7.56836 11.6221 7.56836C11.1143 7.56836 10.8311 7.85156 10.6944 8.33008L8.31154 16.7871C8.28224 16.9141 8.25294 17.041 8.25294 17.168C8.25294 17.5488 8.52638 17.7344 8.84865 17.7344ZM10.294 13.9453L11.544 9.07227L11.6416 9.07227L12.9209 13.9453ZM18.8486 17.4414C20.4893 17.4414 21.6807 16.543 21.6807 14.9414C21.6807 13.4961 20.8018 12.9102 19.5713 12.3242L18.7217 11.9141C17.9502 11.543 17.2471 11.0547 17.2471 10.1953C17.2471 9.29688 17.9404 8.83789 18.8194 8.83789C19.7959 8.83789 20.2256 9.44336 20.4014 10.3906C20.4795 10.6738 20.6553 10.8398 20.9483 10.8398C21.2901 10.8398 21.5147 10.6445 21.5147 10.293C21.5147 10.1758 21.4951 10.0293 21.4561 9.86328C21.1729 8.56445 20.1865 7.86133 18.8194 7.86133C17.2861 7.86133 16.085 8.7207 16.085 10.2734C16.085 11.582 16.8467 12.2852 18.1358 12.8906L18.9854 13.3008C19.8252 13.6914 20.5186 14.1309 20.5186 15.0488C20.5186 15.9961 19.8545 16.4551 18.8486 16.4551C17.7061 16.4551 17.2471 15.7617 17.0908 14.8828C17.0029 14.5215 16.7979 14.375 16.5244 14.375C16.2119 14.375 15.958 14.5801 15.958 14.9414C15.958 15.0586 15.9678 15.1758 15.9971 15.3125C16.2119 16.5527 17.3252 17.4414 18.8486 17.4414ZM18.8291 18.75C18.9951 18.75 19.1416 18.6035 19.1416 18.4277L19.1416 6.9043C19.1416 6.72852 18.9951 6.58203 18.8291 6.58203C18.6533 6.58203 18.5069 6.72852 18.5069 6.9043L18.5069 18.4277C18.5069 18.6035 18.6533 18.75 18.8291 18.75Z" fill="black" fill-opacity="0.85"/>
 </g>
</svg>
