<?xml version="1.0" encoding="UTF-8"?>
<!--Generator: Apple Native CoreSVG 326-->
<!DOCTYPE svg
PUBLIC "-//W3C//DTD SVG 1.1//EN"
       "http://www.w3.org/Graphics/SVG/1.1/DTD/svg11.dtd">
<svg version="1.1" xmlns="http://www.w3.org/2000/svg" xmlns:xlink="http://www.w3.org/1999/xlink" viewBox="0 0 25.6918 25.3305">
 <g>
  <rect height="25.3305" opacity="0" width="25.6918" x="0" y="0"/>
  <path d="M5.54122 5.53146C1.52754 9.54513-0.347456 14.9358 0.0529347 19.2033C0.316607 22.9631 2.33809 25.0139 6.0295 25.2678C10.385 25.6682 15.7658 23.7932 19.7893 19.7795C23.8029 15.7658 25.6682 10.3752 25.2678 6.0295C25.0236 2.32833 22.9631 0.306848 19.2131 0.0529414C14.9455-0.347449 9.55489 1.52755 5.54122 5.53146ZM6.81075 6.80099C10.5119 3.08029 15.2092 1.39083 19.1643 1.82052C21.801 2.07443 23.2658 3.50021 23.4904 6.0881C23.9201 10.1213 22.2307 14.8088 18.5295 18.5197C14.8088 22.2209 10.1311 23.9201 6.08809 23.4904C3.50997 23.2561 2.07442 21.801 1.83028 19.1545C1.40059 15.2092 3.09004 10.5119 6.81075 6.80099ZM7.25997 15.3166L10.0041 18.0608C10.2287 18.2756 10.5607 18.2756 10.7854 18.0608C10.9904 17.8264 10.9807 17.4943 10.7854 17.2795L8.04122 14.5354C7.82637 14.3303 7.48458 14.3205 7.25997 14.5354C7.04512 14.76 7.04512 15.092 7.25997 15.3166ZM9.0959 13.4709L11.84 16.2248C12.0647 16.4201 12.4065 16.4299 12.6018 16.2248C12.8264 16.01 12.8166 15.6486 12.6115 15.4436L9.87715 12.7092C9.67208 12.4943 9.30098 12.4846 9.0959 12.719C8.88106 12.9045 8.89083 13.2561 9.0959 13.4709ZM10.9318 11.6447L13.676 14.3889C13.8811 14.6037 14.2326 14.6037 14.4377 14.3889C14.6623 14.1838 14.6525 13.8225 14.4475 13.6174L11.6838 10.8733C11.4982 10.6682 11.1272 10.6584 10.9221 10.8733C10.7072 11.0783 10.717 11.4299 10.9318 11.6447ZM12.758 9.82833L15.4924 12.5627C15.7072 12.7678 16.0588 12.758 16.2639 12.5627C16.4885 12.3381 16.4885 12.0061 16.2639 11.7912L13.5295 9.05685C13.3147 8.83224 12.9826 8.83224 12.7482 9.04708C12.5627 9.25216 12.5529 9.61349 12.758 9.82833ZM14.594 8.00216L17.3186 10.7268C17.5334 10.9416 17.8947 10.9416 18.1096 10.7268C18.3147 10.5119 18.3244 10.1701 18.0998 9.95529L15.3654 7.20138C15.1506 6.9963 14.8088 7.00607 14.5842 7.20138C14.3791 7.42599 14.3791 7.78732 14.594 8.00216ZM9.29122 16.801L16.8107 9.28146L16.0393 8.51974L8.51973 16.0393Z" fill="black" fill-opacity="0.85"/>
 </g>
</svg>
