<?xml version="1.0" encoding="UTF-8"?>
<!--Generator: Apple Native CoreSVG 326-->
<!DOCTYPE svg
PUBLIC "-//W3C//DTD SVG 1.1//EN"
       "http://www.w3.org/Graphics/SVG/1.1/DTD/svg11.dtd">
<svg version="1.1" xmlns="http://www.w3.org/2000/svg" xmlns:xlink="http://www.w3.org/1999/xlink" viewBox="0 0 35.4199 24.5801">
 <g>
  <rect height="24.5801" opacity="0" width="35.4199" x="0" y="0"/>
  <path d="M11.6935 18.269C11.7888 18.7491 11.9056 19.2282 12.041 19.707C12.0674 19.7975 12.0947 19.8866 12.1267 19.9686L2.63672 19.9609C2.17773 19.9609 1.77734 19.5801 1.77734 19.1211C1.77734 18.6621 2.17773 18.2617 2.63672 18.2617ZM11.2743 15.4102L2.63672 15.4102C2.17773 15.4102 1.77734 15.0293 1.77734 14.5605C1.77734 14.1016 2.17773 13.7012 2.63672 13.7012L11.1694 13.7012C11.1865 14.2733 11.2202 14.8427 11.2743 15.4102ZM11.1701 10.8467L2.63672 10.8398C2.1875 10.8398 1.77734 10.459 1.77734 9.99023C1.77734 9.53125 2.17773 9.14062 2.63672 9.14062L11.2756 9.14063C11.2213 9.70691 11.1874 10.2752 11.1701 10.8467ZM12.041 4.84375C11.9066 5.3228 11.7905 5.80111 11.6958 6.2793L2.63672 6.2793C2.17773 6.2793 1.77734 5.91797 1.77734 5.42969C1.77734 4.9707 2.17773 4.58008 2.63672 4.58008L12.1284 4.58008Z" fill="black" fill-opacity="0.85"/>
  <path d="M13.2715 12.2852C13.2715 14.6777 13.457 16.8848 14.0918 19.1211C14.7949 21.5332 16.2305 22.4219 19.0625 22.4219L19.707 22.4219C26.7969 22.4219 33.2812 17.7539 33.2812 12.2852C33.2812 6.81641 26.7969 2.13867 19.707 2.13867L19.0625 2.13867C16.2402 2.13867 14.8047 3.02734 14.0918 5.43945C13.457 7.67578 13.2715 9.89258 13.2715 12.2852ZM14.9902 12.2852C14.9902 9.67773 15.1953 7.7832 15.7227 5.91797C16.1816 4.4043 17.1484 3.82812 19.0625 3.82812L19.707 3.82812C25.8105 3.82812 31.5723 7.79297 31.5723 12.2852C31.5723 16.7773 25.8105 20.7227 19.707 20.7227L19.0625 20.7227C17.0996 20.7227 16.1621 20.1367 15.7227 18.6523C15.1953 16.7773 14.9902 14.8926 14.9902 12.2852Z" fill="black" fill-opacity="0.85"/>
  <path d="M18.5645 16.9629C18.9258 16.9629 19.1699 16.7969 19.3262 16.3379L20.2246 13.7891L24.3555 13.7891L25.2344 16.3379C25.4004 16.7969 25.6445 16.9629 26.0156 16.9629C26.4453 16.9629 26.748 16.6895 26.748 16.2793C26.748 16.123 26.7188 15.9863 26.6406 15.7715L23.3789 7.03125C23.1934 6.5332 22.8027 6.26953 22.2754 6.26953C21.748 6.26953 21.3867 6.5332 21.1914 7.03125L17.9297 15.7715C17.8516 15.9863 17.8223 16.123 17.8223 16.2793C17.8223 16.6992 18.1152 16.9629 18.5645 16.9629ZM20.625 12.5684L22.2461 8.01758L22.334 8.01758L23.9355 12.5684Z" fill="black" fill-opacity="0.85"/>
 </g>
</svg>
