<?xml version="1.0" encoding="UTF-8"?>
<!--Generator: Apple Native CoreSVG 326-->
<!DOCTYPE svg
PUBLIC "-//W3C//DTD SVG 1.1//EN"
       "http://www.w3.org/Graphics/SVG/1.1/DTD/svg11.dtd">
<svg version="1.1" xmlns="http://www.w3.org/2000/svg" xmlns:xlink="http://www.w3.org/1999/xlink" viewBox="0 0 25.8008 26.2463">
 <g>
  <rect height="26.2463" opacity="0" width="25.8008" x="0" y="0"/>
  <path d="M0 13.1183C0 17.4151 2.14844 21.253 5.52734 23.5772C6.00586 23.9288 6.61133 23.7921 6.86523 23.3624C7.13867 22.9132 7.00195 22.4054 6.5625 22.0831C3.7207 20.1593 1.81641 16.8585 1.81641 13.1183C1.81641 7.09287 6.68945 2.21982 12.7148 2.21982C18.7402 2.21982 23.6133 7.09287 23.6133 13.1183C23.6133 16.8585 21.7285 20.1495 18.877 22.0831C18.4375 22.4054 18.3008 22.9132 18.5645 23.3624C18.8281 23.7921 19.4141 23.9288 19.8926 23.587C23.2617 21.2921 25.4395 17.4151 25.4395 13.1183C25.4395 6.09677 19.7363 0.39365 12.7148 0.39365C5.69336 0.39365 0 6.09677 0 13.1183ZM22.3535 24.3487L18.4375 20.2374C17.8906 19.6515 17.334 19.9151 17.1875 20.6378L16.2207 25.3058C16.084 25.9503 16.4648 26.3214 17.1191 26.2335L21.8848 25.5694C22.666 25.4522 22.9004 24.9249 22.3535 24.3487Z" fill="black" fill-opacity="0.85"/>
  <path d="M8.57422 18.2745C8.96484 18.2745 9.23828 18.0987 9.4043 17.5811L10.4102 14.7491L15.0098 14.7491L16.0059 17.5811C16.1816 18.089 16.4453 18.2745 16.8555 18.2745C17.3242 18.2745 17.6465 17.9718 17.6465 17.5323C17.6465 17.3663 17.6172 17.2101 17.5293 16.9757L13.9062 7.25888C13.7012 6.70224 13.2812 6.41904 12.7051 6.41904C12.1191 6.41904 11.7188 6.70224 11.5137 7.25888L7.88086 16.9757C7.80273 17.2101 7.76367 17.3663 7.76367 17.5323C7.76367 17.9815 8.08594 18.2745 8.57422 18.2745ZM10.8496 13.421L12.6465 8.3331L12.7637 8.3331L14.5605 13.421Z" fill="black" fill-opacity="0.85"/>
 </g>
</svg>
