<?xml version="1.0" encoding="UTF-8"?>
<!--Generator: Apple Native CoreSVG 326-->
<!DOCTYPE svg
PUBLIC "-//W3C//DTD SVG 1.1//EN"
       "http://www.w3.org/Graphics/SVG/1.1/DTD/svg11.dtd">
<svg version="1.1" xmlns="http://www.w3.org/2000/svg" xmlns:xlink="http://www.w3.org/1999/xlink" viewBox="0 0 35.4492 24.5801">
 <g>
  <rect height="24.5801" opacity="0" width="35.4492" x="0" y="0"/>
  <path d="M12.0703 19.707C12.1647 20.0309 12.2711 20.3369 12.3934 20.6198L2.83203 23.1738C2.19727 23.3398 1.74805 22.9688 1.74805 22.4121C1.74805 21.9824 2.01172 21.6602 2.46094 21.543L11.8939 19.0244ZM11.4199 16.4707L2.83203 18.75C2.1875 18.916 1.74805 18.5547 1.74805 17.9883C1.74805 17.5781 2.01172 17.2363 2.46094 17.1191L11.2533 14.7716C11.2885 15.34 11.3425 15.9062 11.4199 16.4707ZM11.1739 12.0933L2.83203 14.3359C2.20703 14.502 1.74805 14.1211 1.74805 13.5742C1.74805 13.1543 2.01172 12.8223 2.46094 12.6953L11.2183 10.3498C11.1887 10.9279 11.1747 11.5086 11.1739 12.0933ZM11.4845 7.60083L2.83203 9.91211C2.19727 10.0781 1.74805 9.70703 1.74805 9.15039C1.74805 8.73047 2.01172 8.39844 2.46094 8.28125L11.8323 5.77135C11.6899 6.38125 11.5754 6.99063 11.4845 7.60083Z" fill="black" fill-opacity="0.85"/>
  <path d="M13.3008 12.2852C13.3008 14.6777 13.4766 16.8945 14.1113 19.1211C14.8242 21.5527 16.25 22.4512 19.0918 22.4512L19.7461 22.4512C26.8457 22.4512 33.3301 17.7637 33.3301 12.2852C33.3301 6.81641 26.8457 2.12891 19.7461 2.12891L19.0918 2.12891C16.2598 2.12891 14.834 3.01758 14.1113 5.44922C13.4766 7.67578 13.3008 9.90234 13.3008 12.2852ZM15.0391 12.2852C15.0391 9.70703 15.2441 7.80273 15.7715 5.92773C16.2305 4.42383 17.1875 3.85742 19.0918 3.85742L19.7461 3.85742C25.8301 3.85742 31.6016 7.80273 31.6016 12.2852C31.6016 16.7773 25.8301 20.7129 19.7461 20.7129L19.0918 20.7129C17.1387 20.7129 16.2109 20.1172 15.7715 18.6523C15.2441 16.7578 15.0391 14.873 15.0391 12.2852Z" fill="black" fill-opacity="0.85"/>
  <path d="M18.6133 16.9629C18.9746 16.9629 19.2188 16.7969 19.375 16.3379L20.2734 13.7891L24.4043 13.7891L25.293 16.3379C25.4492 16.7969 25.6934 16.9629 26.0645 16.9629C26.4941 16.9629 26.7969 16.6895 26.7969 16.2793C26.7969 16.123 26.7676 15.9863 26.6895 15.7715L23.4277 7.03125C23.2422 6.5332 22.8613 6.26953 22.3242 6.26953C21.7969 6.26953 21.4355 6.5332 21.25 7.03125L17.9785 15.7715C17.9004 15.9863 17.8711 16.123 17.8711 16.2793C17.8711 16.6992 18.1641 16.9629 18.6133 16.9629ZM20.6836 12.5684L22.2949 8.01758L22.3828 8.01758L23.9844 12.5684Z" fill="black" fill-opacity="0.85"/>
 </g>
</svg>
