<?xml version="1.0" encoding="UTF-8"?>
<!--Generator: Apple Native CoreSVG 326-->
<!DOCTYPE svg
PUBLIC "-//W3C//DTD SVG 1.1//EN"
       "http://www.w3.org/Graphics/SVG/1.1/DTD/svg11.dtd">
<svg version="1.1" xmlns="http://www.w3.org/2000/svg" xmlns:xlink="http://www.w3.org/1999/xlink" viewBox="0 0 35.4492 24.5801">
 <g>
  <rect height="24.5801" opacity="0" width="35.4492" x="0" y="0"/>
  <path d="M12.0703 19.707C12.1647 20.0309 12.2711 20.3369 12.3934 20.6198L2.83203 23.1738C2.19727 23.3398 1.74805 22.9688 1.74805 22.4121C1.74805 21.9824 2.01172 21.6602 2.46094 21.543L11.8939 19.0244ZM11.4199 16.4707L2.83203 18.75C2.1875 18.916 1.74805 18.5547 1.74805 17.9883C1.74805 17.5781 2.01172 17.2363 2.46094 17.1191L11.2533 14.7716C11.2885 15.34 11.3425 15.9062 11.4199 16.4707ZM11.1739 12.0933L2.83203 14.3359C2.20703 14.502 1.74805 14.1211 1.74805 13.5742C1.74805 13.1543 2.01172 12.8223 2.46094 12.6953L11.2183 10.3498C11.1887 10.9279 11.1747 11.5086 11.1739 12.0933ZM11.4845 7.60083L2.83203 9.91211C2.19727 10.0781 1.74805 9.70703 1.74805 9.15039C1.74805 8.73047 2.01172 8.39844 2.46094 8.28125L11.8323 5.77135C11.6899 6.38125 11.5754 6.99063 11.4845 7.60083Z" fill="black" fill-opacity="0.85"/>
  <path d="M33.3301 12.2852C33.3301 17.7637 26.8457 22.4512 19.7461 22.4512L19.0918 22.4512C16.25 22.4512 14.8242 21.5527 14.1113 19.1211C13.4766 16.8945 13.3008 14.6777 13.3008 12.2852C13.3008 9.90234 13.4766 7.67578 14.1113 5.44922C14.834 3.01758 16.2598 2.12891 19.0918 2.12891L19.7461 2.12891C26.8457 2.12891 33.3301 6.81641 33.3301 12.2852ZM21.2012 6.92383L17.8711 15.8789C17.7832 16.0938 17.7539 16.2305 17.7539 16.3867C17.7539 16.8262 18.0469 17.0996 18.5254 17.0996C18.8965 17.0996 19.1504 16.9238 19.3066 16.4551L20.2246 13.8477L24.4531 13.8477L25.3613 16.4551C25.5176 16.9238 25.7715 17.0996 26.1523 17.0996C26.6016 17.0996 26.9141 16.8164 26.9141 16.3867C26.9141 16.2305 26.8848 16.0938 26.7969 15.8789L23.4668 6.92383C23.2715 6.39648 22.8809 6.12305 22.3242 6.12305C21.7773 6.12305 21.4062 6.39648 21.2012 6.92383ZM24.0234 12.5879L20.6445 12.5879L22.2949 7.93945L22.3828 7.93945Z" fill="black" fill-opacity="0.85"/>
 </g>
</svg>
