<?xml version="1.0" encoding="UTF-8"?>
<!--Generator: Apple Native CoreSVG 326-->
<!DOCTYPE svg
PUBLIC "-//W3C//DTD SVG 1.1//EN"
       "http://www.w3.org/Graphics/SVG/1.1/DTD/svg11.dtd">
<svg version="1.1" xmlns="http://www.w3.org/2000/svg" xmlns:xlink="http://www.w3.org/1999/xlink" viewBox="0 0 22.5244 26.6539">
 <g>
  <rect height="26.6539" opacity="0" width="22.5244" x="0" y="0"/>
  <path d="M1.07667 8.04861L2.11182 8.42947C3.03956 8.7615 3.86964 8.35134 4.21143 7.40408L5.94971 2.62869C6.30128 1.67166 5.92042 0.831813 5.00245 0.499782L3.96729 0.118922C3.03956-0.222874 2.21924 0.187282 1.86768 1.15408L0.129401 5.9197C-0.222161 6.87673 0.158698 7.71658 1.07667 8.04861ZM17.1607 8.04861L18.1958 8.42947C19.1235 8.7615 19.9536 8.35134 20.2954 7.40408L22.0337 2.62869C22.3853 1.67166 22.0044 0.831813 21.0864 0.499782L20.0513 0.118922C19.1333-0.222874 18.313 0.187282 17.9614 1.15408L16.2232 5.9197C15.8814 6.87673 16.2524 7.71658 17.1607 8.04861ZM2.49268 26.5838L3.5962 26.5838C4.57276 26.5838 5.20753 25.9099 5.20753 24.9041L5.20753 19.826C5.20753 18.8103 4.57276 18.1463 3.5962 18.1463L2.49268 18.1463C1.51612 18.1463 0.871589 18.8103 0.871589 19.826L0.871589 24.9041C0.871589 25.9099 1.51612 26.5838 2.49268 26.5838ZM18.5767 26.5838L19.6802 26.5838C20.6567 26.5838 21.2915 25.9099 21.2915 24.9041L21.2915 19.826C21.2915 18.8103 20.6567 18.1463 19.6802 18.1463L18.5767 18.1463C17.6001 18.1463 16.9653 18.8103 16.9653 19.826L16.9653 24.9041C16.9653 25.9099 17.6001 26.5838 18.5767 26.5838ZM4.36768 5.13845L7.6294 5.13845C7.69776 5.0408 7.77589 4.94314 7.85401 4.85525L8.47901 4.24002L7.9419 3.70291C7.86378 3.61502 7.78565 3.51736 7.72706 3.40994L4.36768 3.40994ZM17.8247 5.13845L17.8247 3.40994L14.5044 3.40994C14.436 3.50759 14.3579 3.60525 14.27 3.69314L13.645 4.29861L14.1724 4.83572C14.2603 4.93338 14.3482 5.03103 14.4067 5.13845ZM10.2173 23.2342L11.9458 23.2342L11.9458 7.62869C11.8384 7.56033 11.731 7.4822 11.6235 7.38455L11.0962 6.8572L10.4907 7.4822C10.4028 7.57986 10.3149 7.63845 10.2173 7.70681ZM4.36768 23.2342L17.8247 23.2342L17.8247 21.4959L4.36768 21.4959Z" fill="black" fill-opacity="0.85"/>
  <path d="M8.44971 6.8865C8.71339 7.14041 9.12354 7.18923 9.39698 6.9158L11.0962 5.21658L12.6685 6.78884C12.9126 7.03298 13.313 7.03298 13.5669 6.78884C13.8208 6.53494 13.8208 6.12478 13.5669 5.87088L12.0044 4.29861L13.7036 2.60916C13.9771 2.34548 13.9282 1.92556 13.6743 1.67166C13.4107 1.40798 13.0005 1.35916 12.7173 1.63259L11.0376 3.33181L9.44581 1.75955C9.20167 1.51541 8.80128 1.52517 8.54737 1.75955C8.30323 2.00369 8.30323 2.40408 8.54737 2.66775L10.1196 4.24002L8.42042 5.93923C8.14698 6.21267 8.18604 6.62283 8.44971 6.8865Z" fill="black" fill-opacity="0.85"/>
 </g>
</svg>
