<?xml version="1.0" encoding="UTF-8"?>
<!--Generator: Apple Native CoreSVG 326-->
<!DOCTYPE svg
PUBLIC "-//W3C//DTD SVG 1.1//EN"
       "http://www.w3.org/Graphics/SVG/1.1/DTD/svg11.dtd">
<svg version="1.1" xmlns="http://www.w3.org/2000/svg" xmlns:xlink="http://www.w3.org/1999/xlink" viewBox="0 0 22.5244 26.6539">
 <g>
  <rect height="26.6539" opacity="0" width="22.5244" x="0" y="0"/>
  <path d="M1.07667 8.04861L2.11182 8.42947C3.03956 8.7615 3.86964 8.35134 4.21143 7.40408L5.94971 2.62869C6.30128 1.67166 5.92042 0.831813 5.00245 0.499782L3.96729 0.118922C3.03956-0.222874 2.21924 0.187282 1.86768 1.15408L0.129401 5.9197C-0.222161 6.87673 0.158698 7.71658 1.07667 8.04861ZM17.1607 8.04861L18.1958 8.42947C19.1235 8.7615 19.9536 8.35134 20.2954 7.40408L22.0337 2.62869C22.3853 1.67166 22.0044 0.831813 21.0864 0.499782L20.0513 0.118922C19.1333-0.222874 18.313 0.187282 17.9614 1.15408L16.2232 5.9197C15.8814 6.87673 16.2524 7.71658 17.1607 8.04861ZM2.49268 26.5838L3.5962 26.5838C4.57276 26.5838 5.20753 25.9099 5.20753 24.9041L5.20753 19.826C5.20753 18.8103 4.57276 18.1463 3.5962 18.1463L2.49268 18.1463C1.51612 18.1463 0.871589 18.8103 0.871589 19.826L0.871589 24.9041C0.871589 25.9099 1.51612 26.5838 2.49268 26.5838ZM18.5767 26.5838L19.6802 26.5838C20.6567 26.5838 21.2915 25.9099 21.2915 24.9041L21.2915 19.826C21.2915 18.8103 20.6567 18.1463 19.6802 18.1463L18.5767 18.1463C17.6001 18.1463 16.9653 18.8103 16.9653 19.826L16.9653 24.9041C16.9653 25.9099 17.6001 26.5838 18.5767 26.5838ZM4.36768 5.13845L17.8247 5.13845L17.8247 3.40994L4.36768 3.40994ZM10.1978 3.40994L10.1978 9.97244C10.3052 10.0506 10.4126 10.1287 10.5103 10.2166L11.0376 10.7342L11.6333 10.1189C11.731 10.031 11.8286 9.94314 11.9263 9.88455L11.9263 3.40994ZM10.1978 23.2342L11.9263 23.2342L11.9263 16.6619C11.8189 16.5935 11.7114 16.5056 11.604 16.408L11.0962 15.9099L10.5005 16.5154C10.4028 16.6033 10.2954 16.6912 10.1978 16.7498ZM4.36768 23.2342L17.8247 23.2342L17.8247 21.4959L4.36768 21.4959Z" fill="black" fill-opacity="0.85"/>
  <path d="M8.47901 15.9002C8.74268 16.1541 9.15284 16.2029 9.41651 15.9295L11.0962 14.2595L12.688 15.8513C12.9419 16.1053 13.3423 16.0955 13.5962 15.8513C13.8501 15.617 13.8501 15.197 13.5962 14.9529L12.0044 13.3513L13.6646 11.6912C13.9478 11.4178 13.8989 11.0076 13.6353 10.7342C13.3716 10.4705 12.9614 10.4314 12.6978 10.7049L11.0376 12.3748L9.42628 10.7732C9.17237 10.5388 8.77198 10.5388 8.51807 10.7732C8.26417 11.0174 8.27393 11.4275 8.51807 11.6814L10.1196 13.2928L8.44971 14.9529C8.17628 15.2361 8.21534 15.6365 8.47901 15.9002Z" fill="black" fill-opacity="0.85"/>
 </g>
</svg>
