<?xml version="1.0" ?><!-- Generator: Adobe Illustrator 25.0.0, SVG Export Plug-In . SVG Version: 6.00 Build 0)  --><svg xmlns="http://www.w3.org/2000/svg" xmlns:xlink="http://www.w3.org/1999/xlink" version="1.1" id="Layer_1" x="0px" y="0px" viewBox="0 0 512 512" style="enable-background:new 0 0 512 512;" xml:space="preserve">
<path d="M256,512c140,0,256-116.2,256-256C512,116,395.8,0,255.7,0C116,0,0,116,0,256C0,395.8,116.2,512,256,512z M194,372  c-14.6,0-23.3-8.8-23.3-23.1V158.6c0-14.8,8.8-23.3,23.3-23.3h76c44.4,0,73.3,22.8,73.3,58.5c0,25.9-15.8,45.9-41.4,52.2v1.5  c34.4,4.3,55.7,26.4,55.7,58c0,40.7-34.6,66.5-88.1,66.5H194z M211.1,235.9H250c34.6,0,53.5-13.1,53.5-35.6  c0-21.3-15.6-34.4-41.7-34.4h-50.7V235.9z M211.1,341.3H253c43.2,0,63-11.8,63-37.6c0-24.8-18.3-39.2-49.9-39.2h-55V341.3z"/>
</svg>