<?xml version="1.0" ?><!-- Generator: Adobe Illustrator 25.0.0, SVG Export Plug-In . SVG Version: 6.00 Build 0)  --><svg xmlns="http://www.w3.org/2000/svg" xmlns:xlink="http://www.w3.org/1999/xlink" version="1.1" id="Layer_1" x="0px" y="0px" viewBox="0 0 512 512" style="enable-background:new 0 0 512 512;" xml:space="preserve">
<path d="M256,512c140,0,256-116.2,256-256C512,116,395.8,0,255.7,0C116,0,0,116,0,256C0,395.8,116.2,512,256,512z M256,469.3  c-118.5,0-213.1-94.9-213.1-213.3S137.3,42.7,255.7,42.7S469.1,137.5,469.3,256S374.5,469.3,256,469.3z M195.8,368.4h73.3  c52,0,85.3-24.8,85.3-64.5c0-30.6-20.6-52-54-56.2v-1.5c24.8-6,40.2-25.6,40.2-50.4c0-34.4-27.9-56.7-71-56.7h-73.8  c-14.1,0-22.3,8-22.3,22.3v184.7C173.4,360.2,181.7,368.4,195.8,368.4z M212.3,236.4v-67.8h49.2c25.3,0,40.7,12.5,40.7,33.4  c0,22.1-18.3,34.4-52,34.4H212.3z M212.3,338.8V264h53.5c30.6,0,48.4,14.1,48.4,38.4c0,24.8-19.3,36.4-61,36.4H212.3z"/>
</svg>