<?xml version="1.0" ?><!-- Generator: Adobe Illustrator 25.0.0, SVG Export Plug-In . SVG Version: 6.00 Build 0)  --><svg xmlns="http://www.w3.org/2000/svg" xmlns:xlink="http://www.w3.org/1999/xlink" version="1.1" id="Layer_1" x="0px" y="0px" viewBox="0 0 512 512" style="enable-background:new 0 0 512 512;" xml:space="preserve">
<path d="M87.3,512h337.3c58.4,0,87.3-28.9,87.3-86.2V86.2C512,28.9,483.1,0,424.7,0H87.3C29.2,0,0,28.6,0,86.2v339.6  C0,483.4,29.2,512,87.3,512z M87.9,467.2c-27.8,0-43.1-14.7-43.1-43.7V88.4c0-28.9,15.3-43.7,43.1-43.7h336.2  c27.5,0,43.1,14.7,43.1,43.7v335.1c0,28.9-15.6,43.7-43.1,43.7H87.9z M189.7,380.2h81.2c57.6,0,94.6-27.8,94.6-71.5  c0-33.9-22.8-57.8-59.8-62.3v-1.7c27.5-6.7,44.5-28.4,44.5-56.2c0-38.1-30.9-62.9-78.7-62.9h-81.8c-15.3,0-24.5,9.2-24.5,25v204.7  C165.2,370.7,174.4,380.2,189.7,380.2z M208,233.9v-75.4h54.5c28.1,0,45.1,14.2,45.1,37c0,24.5-20.3,38.4-57.6,38.4H208z M208,347.4  v-82.9h59.2c33.9,0,53.7,15.6,53.7,42.3c0,27.8-21.4,40.6-67.6,40.6H208z"/>
</svg>