<?xml version="1.0" ?><!-- Generator: Adobe Illustrator 25.0.0, SVG Export Plug-In . SVG Version: 6.00 Build 0)  --><svg xmlns="http://www.w3.org/2000/svg" xmlns:xlink="http://www.w3.org/1999/xlink" version="1.1" id="Layer_1" x="0px" y="0px" viewBox="0 0 512 512" style="enable-background:new 0 0 512 512;" xml:space="preserve">
<path d="M87.3,512h337.3c58.4,0,87.3-28.9,87.3-86.2V86.2C512,28.9,483.1,0,424.7,0H87.3C29.2,0,0,28.6,0,86.2v339.6  C0,483.4,29.2,512,87.3,512z M187.7,384.1c-15.9,0-25.6-9.7-25.6-25.6V147.7c0-16.4,9.7-25.9,25.6-25.9H272  c49.2,0,81.2,25.3,81.2,64.8c0,28.6-17.5,50.9-45.9,57.8v1.7c38.1,4.7,61.7,29.2,61.7,64.2c0,45.1-38.4,73.7-97.6,73.7H187.7z   M206.6,233.3h43.1c38.4,0,59.2-14.5,59.2-39.5c0-23.6-17.2-38.1-46.2-38.1h-56.2V233.3z M206.6,350.1h46.4  c47.8,0,69.8-13.1,69.8-41.7c0-27.5-20.3-43.4-55.3-43.4h-60.9V350.1z"/>
</svg>