<?xml version="1.0" encoding="UTF-8"?>
<!--Generator: Apple Native CoreSVG 326-->
<!DOCTYPE svg
PUBLIC "-//W3C//DTD SVG 1.1//EN"
       "http://www.w3.org/Graphics/SVG/1.1/DTD/svg11.dtd">
<svg version="1.1" xmlns="http://www.w3.org/2000/svg" xmlns:xlink="http://www.w3.org/1999/xlink" viewBox="0 0 35.6055 18.9746">
 <g>
  <rect height="18.9746" opacity="0" width="35.6055" x="0" y="0"/>
  <path d="M35.2441 17.3633L35.2441 1.60156C35.2441 0.507812 34.5996 0 33.8574 0C33.5352 0 33.1934 0.0976562 32.8711 0.283203L19.6387 8.04688C18.8086 8.52539 18.4766 8.90625 18.4766 9.48242C18.4766 10.0586 18.8086 10.4297 19.6387 10.9082L32.8711 18.6719C33.1934 18.8574 33.5352 18.9551 33.8574 18.9551C34.5996 18.9551 35.2441 18.457 35.2441 17.3633ZM33.5156 16.582C33.5156 16.748 33.4082 16.8555 33.2715 16.8555C33.2129 16.8555 33.1543 16.8457 33.0957 16.8066L20.9863 9.67773C20.8887 9.61914 20.8496 9.55078 20.8496 9.48242C20.8496 9.4043 20.8887 9.33594 20.9863 9.27734L33.0957 2.14844C33.1543 2.11914 33.2129 2.09961 33.2715 2.09961C33.4082 2.09961 33.5156 2.20703 33.5156 2.37305ZM18.5352 17.3633L18.5352 1.60156C18.5352 0.507812 17.9004 0 17.1484 0C16.8262 0 16.4844 0.0976562 16.1621 0.283203L2.92969 8.04688C2.09961 8.52539 1.76758 8.90625 1.76758 9.48242C1.76758 10.0586 2.09961 10.4297 2.92969 10.9082L16.1621 18.6719C16.4844 18.8574 16.8262 18.9551 17.1484 18.9551C17.9004 18.9551 18.5352 18.457 18.5352 17.3633ZM16.8066 16.582C16.8066 16.748 16.6992 16.8555 16.5625 16.8555C16.5039 16.8555 16.4453 16.8457 16.3867 16.8066L4.27734 9.67773C4.17969 9.61914 4.14062 9.55078 4.14062 9.48242C4.14062 9.4043 4.17969 9.33594 4.27734 9.27734L16.3867 2.14844C16.4453 2.11914 16.5039 2.09961 16.5625 2.09961C16.6992 2.09961 16.8066 2.20703 16.8066 2.37305ZM0.917969 18.9551C1.42578 18.9551 1.82617 18.5645 1.82617 18.0566L1.82617 0.898438C1.82617 0.390625 1.42578 0 0.917969 0C0.400391 0 0 0.390625 0 0.898438L0 18.0566C0 18.5645 0.400391 18.9551 0.917969 18.9551Z" fill="black" fill-opacity="0.85"/>
 </g>
</svg>
