<?xml version="1.0" encoding="UTF-8"?>
<!--Generator: Apple Native CoreSVG 326-->
<!DOCTYPE svg
PUBLIC "-//W3C//DTD SVG 1.1//EN"
       "http://www.w3.org/Graphics/SVG/1.1/DTD/svg11.dtd">
<svg version="1.1" xmlns="http://www.w3.org/2000/svg" xmlns:xlink="http://www.w3.org/1999/xlink" viewBox="0 0 39.7168 18.9746">
 <g>
  <rect height="18.9746" opacity="0" width="39.7168" x="0" y="0"/>
  <path d="M39.3555 17.3633L39.3555 1.60156C39.3555 0.507812 38.7109 0 37.9688 0C37.6367 0 37.3047 0.0976562 36.9727 0.283203L23.7402 8.04688C22.9102 8.52539 22.5781 8.90625 22.5781 9.48242C22.5781 10.0586 22.9102 10.4297 23.7402 10.9082L36.9727 18.6719C37.3047 18.8574 37.6367 18.9551 37.9688 18.9551C38.7109 18.9551 39.3555 18.457 39.3555 17.3633ZM22.6465 17.3633L22.6465 1.60156C22.6465 0.507812 22.002 0 21.2598 0C20.9277 0 20.5957 0.0976562 20.2637 0.283203L7.04102 8.04688C6.21094 8.52539 5.86914 8.90625 5.86914 9.48242C5.86914 10.0586 6.21094 10.4297 7.04102 10.9082L20.2637 18.6719C20.5957 18.8574 20.9277 18.9551 21.2598 18.9551C22.002 18.9551 22.6465 18.457 22.6465 17.3633ZM4.375 18.8965C5.41992 18.8965 5.9375 18.3789 5.9375 17.334L5.9375 1.61133C5.9375 0.576172 5.41992 0.0488281 4.375 0.0488281L1.5625 0.0488281C0.517578 0.0488281 0 0.527344 0 1.61133L0 17.334C0 18.3789 0.517578 18.8965 1.5625 18.8965Z" fill="black" fill-opacity="0.85"/>
 </g>
</svg>
