<?xml version="1.0" ?><!-- Generator: Adobe Illustrator 25.0.0, SVG Export Plug-In . SVG Version: 6.00 Build 0)  --><svg xmlns="http://www.w3.org/2000/svg" xmlns:xlink="http://www.w3.org/1999/xlink" version="1.1" id="Layer_1" x="0px" y="0px" viewBox="0 0 512 512" style="enable-background:new 0 0 512 512;" xml:space="preserve">
<path d="M14.9,400.9c8.4,0,15.1-6.3,15.1-14.6V262.8c-0.5-2.3-0.9-4.6-0.9-6.8c0-2.5,0.4-4.7,0.9-6.8V125.9  c0-8.2-6.7-14.7-15.1-14.7c-8.2,0-14.9,6.5-14.9,14.7v260.5C0,394.6,6.7,400.9,14.9,400.9z M245.7,393.9c13.9,0,25.3-10.5,25.3-30.2  V262.8c1.9,7.2,7.4,13.7,16.8,19.3l178.7,105.2c7.2,4.2,13,6.5,20.2,6.5c13.9,0,25.3-10.5,25.3-30.2V148.3  c0-19.6-11.4-30.2-25.3-30.2c-7.2,0-13,2.3-20.2,6.5L287.8,229.9c-9.5,5.6-14.9,12.1-16.8,19.3V148.3c0-19.6-11.4-30.2-25.3-30.2  c-7.2,0-13,2.3-20.2,6.5L46.8,229.9c-9.5,5.6-14.9,12.1-16.8,19.3v13.7c1.9,7.2,7.4,13.7,16.8,19.3l178.7,105.2  C232.8,391.6,238.5,393.9,245.7,393.9z M238.2,361.4c-1.2,0-2.6-0.5-4.4-1.6L67.2,260.9c-2.5-1.4-3.9-2.6-3.9-4.9  c0-2.5,1.2-3.5,3.9-4.9l166.6-98.9c1.8-1.1,3.2-1.6,4.4-1.6c2.5,0,4.7,1.8,4.7,5.3v200.3C242.9,359.7,240.7,361.4,238.2,361.4z   M479.2,361.4c-1.2,0-2.6-0.5-4.4-1.6l-166.6-98.9c-2.5-1.4-3.9-2.6-3.9-4.9c0-2.5,1.2-3.5,3.9-4.9l166.6-98.9  c1.8-1.1,3.2-1.6,4.4-1.6c2.5,0,4.7,1.8,4.7,5.3v200.3C483.9,359.7,481.7,361.4,479.2,361.4z"/>
</svg>