<?xml version="1.0" ?><!-- Generator: Adobe Illustrator 25.0.0, SVG Export Plug-In . SVG Version: 6.00 Build 0)  --><svg xmlns="http://www.w3.org/2000/svg" xmlns:xlink="http://www.w3.org/1999/xlink" version="1.1" id="Layer_1" x="0px" y="0px" viewBox="0 0 512 512" style="enable-background:new 0 0 512 512;" xml:space="preserve">
<path d="M488.4,482.8c12.9,0,23.6-9.9,23.6-22.8V52.3c0-12.9-10.7-23.1-23.6-23.1c-12.9,0-23.3,10.2-23.3,23.1V460  C465.1,472.9,475.5,482.8,488.4,482.8z M339,471.8c21.4,0,39.5-16.5,39.5-47.2V87.4c0-30.7-18.1-47.2-39.5-47.2  c-11.3,0-20.3,3.6-31.6,10.2L27.7,215.1C8.2,226.6,0,240.4,0,256s8.2,29.4,27.7,40.9l279.7,164.7C318.7,468.2,327.8,471.8,339,471.8  z M327,421c-1.6,0-3.8-0.8-6.6-2.5L59.3,263.7c-3.8-2.2-5.8-4.1-5.8-7.7c0-3.8,1.9-5.5,5.8-7.7L320.4,93.5c2.7-1.6,4.9-2.5,6.6-2.5  c4.1,0,7.7,2.7,7.7,8.2v313.5C334.7,418.2,331.1,421,327,421z"/>
</svg>