<?xml version="1.0" encoding="UTF-8"?>
<!--Generator: Apple Native CoreSVG 326-->
<!DOCTYPE svg
PUBLIC "-//W3C//DTD SVG 1.1//EN"
       "http://www.w3.org/Graphics/SVG/1.1/DTD/svg11.dtd">
<svg version="1.1" xmlns="http://www.w3.org/2000/svg" xmlns:xlink="http://www.w3.org/1999/xlink" viewBox="0 0 36.4648 18.9746">
 <g>
  <rect height="18.9746" opacity="0" width="36.4648" x="0" y="0"/>
  <path d="M33.4863 17.3633L33.4863 1.60156C33.4863 0.507812 32.8418 0 32.0996 0C31.7676 0 31.4355 0.0976562 31.1035 0.283203L17.8711 8.04688C17.041 8.52539 16.709 8.90625 16.709 9.48242C16.709 10.0586 17.041 10.4297 17.8711 10.9082L31.1035 18.6719C31.4355 18.8574 31.7676 18.9551 32.0996 18.9551C32.8418 18.9551 33.4863 18.457 33.4863 17.3633ZM31.7578 16.582C31.7578 16.748 31.6504 16.8555 31.5137 16.8555C31.4453 16.8555 31.3965 16.8457 31.3379 16.8066L19.2285 9.67773C19.1211 9.61914 19.0918 9.55078 19.0918 9.48242C19.0918 9.4043 19.1211 9.33594 19.2285 9.27734L31.3379 2.14844C31.3965 2.11914 31.4453 2.09961 31.5137 2.09961C31.6504 2.09961 31.7578 2.20703 31.7578 2.37305ZM16.7773 17.3633L16.7773 1.60156C16.7773 0.507812 16.1328 0 15.3906 0C15.0586 0 14.7266 0.0976562 14.3945 0.283203L1.17188 8.04688C0.341797 8.52539 0 8.90625 0 9.48242C0 10.0586 0.341797 10.4297 1.17188 10.9082L14.3945 18.6719C14.7266 18.8574 15.0586 18.9551 15.3906 18.9551C16.1328 18.9551 16.7773 18.457 16.7773 17.3633ZM15.0488 16.582C15.0488 16.748 14.9414 16.8555 14.8047 16.8555C14.7461 16.8555 14.6875 16.8457 14.6289 16.8066L2.51953 9.67773C2.42188 9.61914 2.38281 9.55078 2.38281 9.48242C2.38281 9.4043 2.42188 9.33594 2.51953 9.27734L14.6289 2.14844C14.6875 2.11914 14.7461 2.09961 14.8047 2.09961C14.9414 2.09961 15.0488 2.20703 15.0488 2.37305Z" fill="black" fill-opacity="0.85"/>
 </g>
</svg>
