<?xml version="1.0" encoding="UTF-8"?>
<!--Generator: Apple Native CoreSVG 326-->
<!DOCTYPE svg
PUBLIC "-//W3C//DTD SVG 1.1//EN"
       "http://www.w3.org/Graphics/SVG/1.1/DTD/svg11.dtd">
<svg version="1.1" xmlns="http://www.w3.org/2000/svg" xmlns:xlink="http://www.w3.org/1999/xlink" viewBox="0 0 20.6061 32.1582">
 <g>
  <rect height="32.1582" opacity="0" width="20.6061" x="0" y="0"/>
  <path d="M6.32843 30.8496L13.9163 30.8496C18.1839 30.8496 20.2737 28.7109 20.2444 24.3848C20.1956 19.3848 20.1663 15.752 20.0394 13.0371C19.6878 5.07812 17.4808 2.77344 10.1175 2.77344C2.76398 2.77344 0.556944 5.07812 0.205382 13.0371C0.0784288 15.752 0.0491319 19.3848 0.00030375 24.3848C-0.0289931 28.7109 2.06085 30.8496 6.32843 30.8496ZM6.32843 29.2383C2.96905 29.2383 1.58234 27.832 1.61163 24.4043C1.66046 19.4043 1.68976 15.8008 1.81671 13.1152C2.12921 6.01562 3.68194 4.39453 10.1175 4.39453C16.5628 4.39453 18.1155 6.01562 18.428 13.1152C18.555 15.8008 18.5843 19.4043 18.6331 24.4043C18.6624 27.832 17.2757 29.2383 13.9163 29.2383ZM10.1273 0C7.90069 0 6.28937 1.5332 6.28937 3.60352L7.82257 3.60352C7.82257 2.40234 8.78937 1.5332 10.1273 1.5332C11.4651 1.5332 12.4222 2.40234 12.4222 3.60352L13.9554 3.60352C13.9554 1.5332 12.3441 0 10.1273 0ZM6.09405 25.9668L14.1507 25.9668C15.2542 25.9668 15.9769 25.2441 15.9769 24.1406L15.9769 17.9688C15.9769 16.8652 15.2542 16.1426 14.1507 16.1426L6.09405 16.1426C5.0003 16.1426 4.26788 16.875 4.26788 17.9688L4.26788 24.1406C4.26788 25.2344 5.0003 25.9668 6.09405 25.9668ZM6.32843 24.4434C6.01593 24.4434 5.80109 24.2285 5.80109 23.916L5.80109 18.1836C5.80109 17.8809 6.01593 17.666 6.32843 17.666L13.9163 17.666C14.2288 17.666 14.4437 17.8809 14.4437 18.1836L14.4437 23.916C14.4437 24.2285 14.2288 24.4434 13.9163 24.4434ZM5.14679 20.8691L15.0882 20.8691L15.0882 19.4824L5.14679 19.4824Z" fill="black" fill-opacity="0.85"/>
 </g>
</svg>
