<?xml version="1.0" ?><!-- Generator: Adobe Illustrator 25.0.0, SVG Export Plug-In . SVG Version: 6.00 Build 0)  --><svg xmlns="http://www.w3.org/2000/svg" xmlns:xlink="http://www.w3.org/1999/xlink" version="1.1" id="Layer_1" x="0px" y="0px" viewBox="0 0 512 512" style="enable-background:new 0 0 512 512;" xml:space="preserve">
<path d="M256,512c35,0,67.9-6.7,98.8-20.1c30.9-13.4,58.1-31.9,81.7-55.5c23.6-23.6,42.1-50.8,55.5-81.7  C505.3,323.9,512,291,512,256s-6.7-67.9-20.1-98.8c-13.4-30.9-31.9-58.1-55.5-81.7c-23.6-23.6-50.9-42.1-81.8-55.5  C323.7,6.7,290.7,0,255.7,0S187.9,6.7,157,20.1C126.1,33.5,98.9,52,75.4,75.5c-23.5,23.6-42,50.8-55.3,81.7C6.7,188.1,0,221,0,256  s6.7,67.9,20.1,98.8c13.4,30.9,31.9,58.1,55.5,81.7c23.6,23.6,50.8,42.1,81.7,55.5C188.1,505.3,221,512,256,512z M256,469.3  c-29.6,0-57.3-5.5-83.1-16.6c-25.8-11-48.4-26.3-67.9-45.8c-19.5-19.5-34.7-42.1-45.7-67.9c-11-25.8-16.4-53.5-16.4-83.1  c0-29.6,5.5-57.3,16.4-83.1c11-25.8,26.1-48.4,45.6-68s42-34.8,67.8-45.8c25.8-11,53.5-16.4,83.1-16.4c29.6,0,57.3,5.5,83.1,16.4  c25.8,11,48.4,26.2,68,45.8c19.6,19.6,34.9,42.2,45.9,68c11,25.8,16.6,53.5,16.6,83.1c0,29.6-5.5,57.3-16.4,83.1  c-11,25.8-26.2,48.4-45.7,67.9c-19.5,19.5-42.2,34.8-68,45.8C313.3,463.8,285.6,469.3,256,469.3z" class="hierarchical-0:secondary SFSymbolsPreview4D4D4D" style="fill: #4D4D4D;"/>
<path d="M382.7,348.1c4.7,0,8.7-1.7,11.9-5c3.3-3.3,4.9-8.3,4.9-14.8V184c0-6.5-1.6-11.5-4.9-14.8c-3.3-3.3-7.2-5-11.9-5  c-2.3,0-4.6,0.3-6.8,1c-2.2,0.7-4.4,1.8-6.8,3.3l-119.7,70.3c-4,2.5-6.9,5.2-8.8,8.2c-1.8,2.9-2.8,6-2.8,9.2c0,3.3,0.9,6.5,2.8,9.5  c1.8,3,4.8,5.7,8.8,8l119.7,70.3c2.3,1.5,4.6,2.6,6.8,3.3C378.1,347.8,380.4,348.1,382.7,348.1z M221.6,348.1c4.7,0,8.7-1.7,11.9-5  c3.3-3.3,4.9-8.3,4.9-14.8V184c0-6.5-1.6-11.5-4.9-14.8c-3.3-3.3-7.2-5-11.9-5c-2.3,0-4.6,0.3-6.7,1c-2.1,0.7-4.3,1.8-6.7,3.3  L88.6,238.7c-4.2,2.5-7.2,5.2-9,8.2c-1.8,2.9-2.8,6-2.8,9.2c0,3.3,0.9,6.5,2.8,9.5c1.8,3,4.9,5.7,9,8l119.7,70.3  c2.3,1.5,4.6,2.6,6.7,3.3C217.1,347.8,219.3,348.1,221.6,348.1z" class="hierarchical-1:primary SFSymbolsPreview212121" style="fill: #212121;"/>
</svg>