<?xml version="1.0" ?><!-- Generator: Adobe Illustrator 25.0.0, SVG Export Plug-In . SVG Version: 6.00 Build 0)  --><svg xmlns="http://www.w3.org/2000/svg" xmlns:xlink="http://www.w3.org/1999/xlink" version="1.1" id="Layer_1" x="0px" y="0px" viewBox="0 0 512 512" style="enable-background:new 0 0 512 512;" xml:space="preserve">
<path d="M229.7,402.1c14.5,0,26.8-11.2,26.8-31.8V263.2c2,7.8,7.8,14.5,17.9,20.5l189.5,111.6c7.4,4.5,13.8,6.9,21.4,6.9  c14.5,0,26.8-11.2,26.8-31.8V141.7c0-20.6-12.3-31.8-26.8-31.8c-7.6,0-13.8,2.4-21.4,6.9L274.3,228.4c-10.2,6-15.8,12.6-17.9,20.5  V141.7c0-20.6-12.3-31.8-26.8-31.8c-7.6,0-13.8,2.4-21.4,6.9L18.8,228.4C5.6,236.2,0,245.3,0,255.9c0,10.8,5.6,19.9,18.8,27.7  l189.5,111.6C215.7,399.7,222.1,402.1,229.7,402.1z"/>
</svg>