<?xml version="1.0" encoding="UTF-8"?>
<!--Generator: Apple Native CoreSVG 326-->
<!DOCTYPE svg
PUBLIC "-//W3C//DTD SVG 1.1//EN"
       "http://www.w3.org/Graphics/SVG/1.1/DTD/svg11.dtd">
<svg version="1.1" xmlns="http://www.w3.org/2000/svg" xmlns:xlink="http://www.w3.org/1999/xlink" viewBox="0 0 22.4512 25.0293">
 <g>
  <rect height="25.0293" opacity="0" width="22.4512" x="0" y="0"/>
  <path d="M3.79883 25.0195L18.584 25.0195C20.8203 25.0195 22.0898 23.7402 22.0898 21.25L22.0898 8.10547C22.0898 5.625 20.8105 4.3457 18.291 4.3457L3.79883 4.3457C1.2793 4.3457 0 5.61523 0 8.10547L0 21.25C0 23.75 1.2793 25.0195 3.79883 25.0195ZM6.23047 4.83398L7.95898 4.84375C7.95898 2.98828 9.23828 1.64062 11.0449 1.64062C12.8516 1.64062 14.1309 2.98828 14.1309 4.84375L15.8594 4.83398C15.8594 2.12891 13.7695 0 11.0449 0C8.32031 0 6.23047 2.12891 6.23047 4.83398Z" fill="black" fill-opacity="0.85"/>
 </g>
</svg>
