<?xml version="1.0" ?><!-- Generator: Adobe Illustrator 25.0.0, SVG Export Plug-In . SVG Version: 6.00 Build 0)  --><svg xmlns="http://www.w3.org/2000/svg" xmlns:xlink="http://www.w3.org/1999/xlink" version="1.1" id="Layer_1" x="0px" y="0px" viewBox="0 0 512 512" style="enable-background:new 0 0 512 512;" xml:space="preserve">
<path d="M256,512c140,0,256-116,256-256C512,116.2,395.8,0,255.7,0C116,0,0,116.2,0,256C0,396,116.2,512,256,512z M136,341.8V202  c0-27.9,14.3-41.4,42.7-41.4H200c0.5-28.6,25.1-52.7,55.7-52.7s55.2,24.1,55.7,52.7h21.3c28.4,0,42.7,13.8,42.7,41.4v139.8  c0,27.6-14.1,41.4-38.4,41.4H178.7C150.3,383.2,136,369.4,136,341.8z M225.1,160.6h61.2c-0.8-17.6-12.3-28.9-30.6-28.9  C237.4,131.8,225.9,143.1,225.1,160.6z"/>
</svg>