<?xml version="1.0" ?><!-- Generator: Adobe Illustrator 25.0.0, SVG Export Plug-In . SVG Version: 6.00 Build 0)  --><svg xmlns="http://www.w3.org/2000/svg" xmlns:xlink="http://www.w3.org/1999/xlink" version="1.1" id="Layer_1" x="0px" y="0px" viewBox="0 0 512 512" style="enable-background:new 0 0 512 512;" xml:space="preserve">
<path d="M256,512c140,0,256-116.2,256-256C512,116,395.8,0,255.7,0C116,0,0,116,0,256C0,395.8,116.2,512,256,512z M256,469.3  c-118.5,0-213.1-94.9-213.1-213.3S137.3,42.7,255.7,42.7S469.1,137.5,469.3,256S374.5,469.3,256,469.3z M140,338.8  c0,26.9,13.8,40.4,41.2,40.4h153.6c23.6,0,37.1-13.6,37.1-40.4V203.3c0-26.6-13.8-40.2-41.2-40.2H310c-0.5-27.6-24.3-50.7-54-50.7  s-53.5,23.1-54,50.7h-20.8c-27.4,0-41.2,13.3-41.2,40.2V338.8z M226.1,163.1c0.8-17.1,12-27.9,29.9-27.9s29.1,10.8,29.9,27.9H226.1z  "/>
</svg>