<?xml version="1.0" encoding="UTF-8"?>
<!--Generator: Apple Native CoreSVG 326-->
<!DOCTYPE svg
PUBLIC "-//W3C//DTD SVG 1.1//EN"
       "http://www.w3.org/Graphics/SVG/1.1/DTD/svg11.dtd">
<svg version="1.1" xmlns="http://www.w3.org/2000/svg" xmlns:xlink="http://www.w3.org/1999/xlink" viewBox="0 0 23.3203 22.959">
 <g>
  <rect height="22.959" opacity="0" width="23.3203" x="0" y="0"/>
  <path d="M3.79883 22.959L19.1504 22.959C21.6797 22.959 22.959 21.6797 22.959 19.1992L22.959 3.76953C22.959 1.2793 21.6797 0 19.1504 0L3.79883 0C1.2793 0 0 1.26953 0 3.76953L0 19.1992C0 21.6992 1.2793 22.959 3.79883 22.959ZM3.83789 21.2305C2.4707 21.2305 1.72852 20.5078 1.72852 19.1016L1.72852 3.85742C1.72852 2.46094 2.4707 1.72852 3.83789 1.72852L19.1211 1.72852C20.459 1.72852 21.2305 2.46094 21.2305 3.85742L21.2305 19.1016C21.2305 20.5078 20.459 21.2305 19.1211 21.2305Z" fill="black" fill-opacity="0.85"/>
  <path d="M8.98438 16.9629L12.0996 16.9629C14.1992 16.9629 15.8691 15.9961 15.8691 13.916C15.8691 12.373 14.7754 11.3672 13.2812 11.1914L13.2812 11.1133C14.4434 10.9375 15.3027 9.85352 15.3027 8.67188C15.3027 6.8457 13.7598 5.9375 12.0801 5.9375L8.98438 5.9375C8.4668 5.9375 8.16406 6.28906 8.16406 6.76758L8.16406 16.1426C8.16406 16.6211 8.47656 16.9629 8.98438 16.9629ZM9.46289 10.752L9.46289 7.04102L11.7676 7.04102C13.0273 7.04102 14.0137 7.56836 14.0137 8.82812C14.0137 10.2148 12.8711 10.752 11.4453 10.752ZM9.46289 15.8691L9.46289 11.8262L11.7383 11.8262C13.2617 11.8262 14.541 12.3242 14.541 13.8379C14.541 15.3223 13.3594 15.8691 11.8652 15.8691ZM11.4844 18.4082C11.7188 18.4082 11.8652 18.252 11.8652 18.0176L11.8652 4.80469C11.8652 4.56055 11.709 4.4043 11.4844 4.4043C11.25 4.4043 11.0938 4.56055 11.0938 4.80469L11.0938 18.0176C11.0938 18.252 11.25 18.4082 11.4844 18.4082Z" fill="black" fill-opacity="0.85"/>
 </g>
</svg>
