<?xml version="1.0" encoding="UTF-8"?>
<!--Generator: Apple Native CoreSVG 326-->
<!DOCTYPE svg
PUBLIC "-//W3C//DTD SVG 1.1//EN"
       "http://www.w3.org/Graphics/SVG/1.1/DTD/svg11.dtd">
<svg version="1.1" xmlns="http://www.w3.org/2000/svg" xmlns:xlink="http://www.w3.org/1999/xlink" viewBox="0 0 27.9395 26.5527">
 <g>
  <rect height="26.5527" opacity="0" width="27.9395" x="0" y="0"/>
  <path d="M1.5332 23.8379L26.0449 23.8379L26.0449 23.0859C26.0449 22.666 25.791 22.4121 25.3613 22.4121L24.5605 22.4121L24.5605 8.33984L25.6934 8.33984C26.2891 8.33984 26.6211 7.91992 26.6211 7.48047C26.6211 7.1582 26.4453 6.875 26.0547 6.65039L15.2637 0.419922C14.7852 0.146484 14.2773 0 13.7891 0C13.3008 0 12.7832 0.146484 12.3145 0.419922L1.52344 6.65039C1.12305 6.875 0.957031 7.1582 0.957031 7.48047C0.957031 7.91992 1.28906 8.33984 1.88477 8.33984L3.02734 8.33984L3.02734 22.4121L2.22656 22.4121C1.78711 22.4121 1.5332 22.666 1.5332 23.0859ZM4.6582 22.4121L4.6582 6.85547L13.2227 2.03125C13.3887 1.93359 13.5938 1.875 13.7891 1.875C13.9746 1.875 14.1699 1.93359 14.3555 2.03125L22.9297 6.85547L22.9297 22.4121ZM0.869141 26.5332L26.709 26.5332C27.1875 26.5332 27.5781 26.1426 27.5781 25.6738C27.5781 25.1953 27.1875 24.8047 26.709 24.8047L0.869141 24.8047C0.390625 24.8047 0 25.1953 0 25.6738C0 26.1426 0.390625 26.5332 0.869141 26.5332Z" fill="black" fill-opacity="0.85"/>
  <path d="M11.2988 18.6914L14.4043 18.6914C16.5137 18.6914 18.1738 17.7246 18.1738 15.6445C18.1738 14.1016 17.0801 13.0957 15.5859 12.9297L15.5859 12.8418C16.748 12.666 17.6172 11.582 17.6172 10.4004C17.6172 8.57422 16.0742 7.67578 14.3848 7.67578L11.2988 7.67578C10.7715 7.67578 10.4785 8.01758 10.4785 8.50586L10.4785 17.8809C10.4785 18.3496 10.7812 18.6914 11.2988 18.6914ZM11.7773 12.4805L11.7773 8.7793L14.0723 8.7793C15.3418 8.7793 16.3184 9.29688 16.3184 10.5566C16.3184 11.9434 15.1855 12.4805 13.7598 12.4805ZM11.7773 17.5977L11.7773 13.5547L14.043 13.5547C15.5664 13.5547 16.8555 14.0625 16.8555 15.5762C16.8555 17.0508 15.6641 17.5977 14.1699 17.5977ZM13.7988 20.1465C14.0332 20.1465 14.1797 19.9902 14.1797 19.7461L14.1797 6.5332C14.1797 6.28906 14.0234 6.13281 13.7988 6.13281C13.5645 6.13281 13.4082 6.28906 13.4082 6.5332L13.4082 19.7461C13.4082 19.9902 13.5645 20.1465 13.7988 20.1465Z" fill="black" fill-opacity="0.85"/>
 </g>
</svg>
