<?xml version="1.0" ?><!-- Generator: Adobe Illustrator 25.0.0, SVG Export Plug-In . SVG Version: 6.00 Build 0)  --><svg xmlns="http://www.w3.org/2000/svg" xmlns:xlink="http://www.w3.org/1999/xlink" version="1.1" id="Layer_1" x="0px" y="0px" viewBox="0 0 512 512" style="enable-background:new 0 0 512 512;" xml:space="preserve">
<path d="M256,512c140,0,256-116.2,256-256C512,116,395.8,0,255.7,0C116,0,0,116,0,256C0,395.8,116.2,512,256,512z M260,408.8  c-7,0-12.5-5.3-12.5-12.8v-17.3h-38.9c-12,0-20.3-8.3-20.3-20.3v-200c0-12.3,8.5-20.6,20.3-20.6h38.9v-19.6  c0-7.3,5.5-12.5,12.5-12.5c7.3,0,12.5,5.3,12.5,12.5v19.6h3.5c39.9,0,66.8,25.9,66.8,61.7c0,22.1-13.6,42.4-32.4,51.7  c26.9,8,44.2,29.9,44.2,59.2c0,41.9-30.4,68.3-78.6,68.3h-3.5V396C272.6,403.6,267.3,408.8,260,408.8z M221.4,239.7h26.1v-71.8  h-25.9L221.4,239.7z M272.6,238.2c24.6-3.3,36.9-15.8,36.9-36.1c0-19.8-12.8-31.4-36.9-33.4V238.2z M221.6,348.4l25.9-0.3v-78.3  h-25.9V348.4z M272.6,347.9c32.6-1.3,48.9-14.6,48.9-38.9c0-23.8-16.3-37.1-48.9-38.9V347.9z"/>
</svg>