<?xml version="1.0" encoding="UTF-8"?>
<!--Generator: Apple Native CoreSVG 326-->
<!DOCTYPE svg
PUBLIC "-//W3C//DTD SVG 1.1//EN"
       "http://www.w3.org/Graphics/SVG/1.1/DTD/svg11.dtd">
<svg version="1.1" xmlns="http://www.w3.org/2000/svg" xmlns:xlink="http://www.w3.org/1999/xlink" viewBox="0 0 28.291 27.9395">
 <g>
  <rect height="27.9395" opacity="0" width="28.291" x="0" y="0"/>
  <path d="M13.9648 27.9297C21.6406 27.9297 27.9297 21.6504 27.9297 13.9648C27.9297 6.2793 21.6406 0 13.9648 0C6.28906 0 0 6.2793 0 13.9648C0 21.6504 6.28906 27.9297 13.9648 27.9297ZM13.9648 23.3398C8.7793 23.3398 4.58008 19.1504 4.58008 13.9648C4.58008 8.7793 8.7793 4.58008 13.9648 4.58008C19.1504 4.58008 23.3496 8.7793 23.3496 13.9648C23.3496 19.1504 19.1504 23.3398 13.9648 23.3398Z" fill="black" fill-opacity="0.85"/>
  <path d="M11.4648 19.4531L14.5703 19.4531C16.6797 19.4531 18.3496 18.4863 18.3496 16.4062C18.3496 14.8633 17.2461 13.8574 15.7617 13.6816L15.7617 13.6035C16.9238 13.4277 17.7832 12.3438 17.7832 11.1621C17.7832 9.33594 16.2402 8.42773 14.5605 8.42773L11.4648 8.42773C10.9473 8.42773 10.6445 8.7793 10.6445 9.25781L10.6445 18.6328C10.6445 19.1113 10.957 19.4531 11.4648 19.4531ZM11.9434 13.2422L11.9434 9.53125L14.248 9.53125C15.5078 9.53125 16.4941 10.0586 16.4941 11.3184C16.4941 12.7051 15.3516 13.2422 13.9258 13.2422ZM11.9434 18.3594L11.9434 14.3164L14.2188 14.3164C15.7324 14.3164 17.0215 14.8145 17.0215 16.3281C17.0215 17.8125 15.8398 18.3594 14.3359 18.3594ZM13.9648 20.8984C14.1992 20.8984 14.3457 20.7422 14.3457 20.5078L14.3457 7.29492C14.3457 7.05078 14.1895 6.89453 13.9648 6.89453C13.7305 6.89453 13.5742 7.05078 13.5742 7.29492L13.5742 20.5078C13.5742 20.7422 13.7305 20.8984 13.9648 20.8984Z" fill="black" fill-opacity="0.85"/>
 </g>
</svg>
