<?xml version="1.0" encoding="UTF-8"?>
<!--Generator: Apple Native CoreSVG 326-->
<!DOCTYPE svg
PUBLIC "-//W3C//DTD SVG 1.1//EN"
       "http://www.w3.org/Graphics/SVG/1.1/DTD/svg11.dtd">
<svg version="1.1" xmlns="http://www.w3.org/2000/svg" xmlns:xlink="http://www.w3.org/1999/xlink" viewBox="0 0 23.3203 22.959">
 <g>
  <rect height="22.959" opacity="0" width="23.3203" x="0" y="0"/>
  <path d="M22.959 3.76953L22.959 19.1992C22.959 21.6797 21.6797 22.959 19.1504 22.959L3.79883 22.959C1.2793 22.959 0 21.6992 0 19.1992L0 3.76953C0 1.26953 1.2793 0 3.79883 0L19.1504 0C21.6797 0 22.959 1.2793 22.959 3.76953ZM11.0742 4.62891L11.0742 5.80078L8.91602 5.80078C8.37891 5.80078 8.06641 6.15234 8.06641 6.66016L8.06641 16.2695C8.06641 16.748 8.38867 17.0996 8.91602 17.0996L11.0742 17.0996L11.0742 18.1836C11.0742 18.4277 11.2305 18.5938 11.4746 18.5938C11.7188 18.5938 11.8652 18.4277 11.8652 18.1836L11.8652 17.0996L12.0996 17.0996C14.2578 17.0996 15.9668 16.1133 15.9668 13.9746C15.9668 12.4023 14.8535 11.3672 13.3203 11.1816L13.3203 11.1035C14.5117 10.9277 15.3906 9.81445 15.3906 8.60352C15.3906 6.71875 13.8086 5.80078 12.0801 5.80078L11.8652 5.80078L11.8652 4.62891C11.8652 4.39453 11.709 4.22852 11.4746 4.22852C11.2305 4.22852 11.0742 4.39453 11.0742 4.62891ZM11.0742 15.9766L9.4043 15.9766L9.4043 11.8359L11.0742 11.8359ZM14.5996 13.8965C14.5996 15.3711 13.4668 15.9766 12.0117 15.9766L11.8652 15.9766L11.8652 11.8457L11.9434 11.8457C13.4082 11.8457 14.5996 12.4219 14.5996 13.8965ZM11.0742 10.7324L9.4043 10.7324L9.4043 6.94336L11.0742 6.94336ZM14.0625 8.76953C14.0625 10.0293 13.1152 10.6152 11.8652 10.7031L11.8652 6.94336C13.1348 6.99219 14.0625 7.53906 14.0625 8.76953Z" fill="black" fill-opacity="0.85"/>
 </g>
</svg>
