<?xml version="1.0" encoding="UTF-8"?>
<!--Generator: Apple Native CoreSVG 326-->
<!DOCTYPE svg
PUBLIC "-//W3C//DTD SVG 1.1//EN"
       "http://www.w3.org/Graphics/SVG/1.1/DTD/svg11.dtd">
<svg version="1.1" xmlns="http://www.w3.org/2000/svg" xmlns:xlink="http://www.w3.org/1999/xlink" viewBox="0 0 30.3809 25.0293">
 <g>
  <rect height="25.0293" opacity="0" width="30.3809" x="0" y="0"/>
  <path d="M30.0195 15.0098C30.0195 11.3281 28.6914 7.95898 26.4844 5.3418C26.2305 5.03906 25.8008 5.04883 25.5176 5.33203L22.6953 8.1543C22.4512 8.39844 22.4414 8.74023 22.6562 9.01367C23.9551 10.6738 24.7266 12.7441 24.7266 15.0098C24.7266 17.2754 23.9551 19.3555 22.5977 21.0742C22.4121 21.3086 22.4219 21.6016 22.627 21.8066L25.5176 24.707C25.8008 25 26.2207 24.9902 26.4844 24.6875C28.6914 22.0703 30.0195 18.6816 30.0195 15.0098Z" fill="black" fill-opacity="0.85"/>
  <path d="M15.0098 5.2832C17.2754 5.2832 19.3652 6.06445 21.0254 7.38281C21.2891 7.57812 21.6113 7.55859 21.8555 7.31445L24.6875 4.48242C24.9805 4.19922 24.9707 3.7793 24.668 3.51562C22.0605 1.32812 18.6816 0 15.0098 0C11.3379 0 7.95898 1.32812 5.35156 3.51562C5.04883 3.7793 5.03906 4.19922 5.32227 4.48242L8.16406 7.31445C8.39844 7.55859 8.75 7.56836 9.02344 7.35352C10.6738 6.06445 12.7539 5.2832 15.0098 5.2832Z" fill="black" fill-opacity="0.85"/>
  <path d="M0 15.0098C0 18.6816 1.32812 22.0703 3.53516 24.6875C3.78906 24.9902 4.21875 25 4.50195 24.707L7.39258 21.8066C7.58789 21.6016 7.60742 21.3086 7.42188 21.0742C6.06445 19.3555 5.2832 17.2754 5.2832 15.0098C5.2832 12.7441 6.05469 10.6738 7.36328 9.01367C7.56836 8.74023 7.56836 8.39844 7.32422 8.1543L4.49219 5.33203C4.20898 5.04883 3.78906 5.03906 3.52539 5.3418C1.31836 7.95898 0 11.3281 0 15.0098Z" fill="black" fill-opacity="0.85"/>
  <path d="M12.5 20.6641L15.6055 20.6641C17.7148 20.6641 19.375 19.6875 19.375 17.6172C19.375 16.0645 18.2812 15.0586 16.7871 14.8926L16.7871 14.8145C17.9492 14.6387 18.8184 13.5449 18.8184 12.373C18.8184 10.5371 17.2754 9.63867 15.5859 9.63867L12.5 9.63867C11.9727 9.63867 11.6797 9.98047 11.6797 10.4688L11.6797 19.8438C11.6797 20.3125 11.9824 20.6641 12.5 20.6641ZM12.9785 14.4434L12.9785 10.7422L15.2734 10.7422C16.543 10.7422 17.5195 11.2695 17.5195 12.5293C17.5195 13.9062 16.3867 14.4434 14.9609 14.4434ZM12.9785 19.5703L12.9785 15.5176L15.2441 15.5176C16.7676 15.5176 18.0566 16.0254 18.0566 17.5391C18.0566 19.0137 16.8652 19.5703 15.3711 19.5703ZM15 22.1094C15.2344 22.1094 15.3809 21.9531 15.3809 21.7188L15.3809 8.49609C15.3809 8.26172 15.2246 8.10547 15 8.10547C14.7656 8.10547 14.6094 8.26172 14.6094 8.49609L14.6094 21.7188C14.6094 21.9531 14.7656 22.1094 15 22.1094Z" fill="black" fill-opacity="0.85"/>
 </g>
</svg>
