<?xml version="1.0" ?><!-- Generator: Adobe Illustrator 25.0.0, SVG Export Plug-In . SVG Version: 6.00 Build 0)  --><svg xmlns="http://www.w3.org/2000/svg" xmlns:xlink="http://www.w3.org/1999/xlink" version="1.1" id="Layer_1" x="0px" y="0px" viewBox="0 0 512 512" style="enable-background:new 0 0 512 512;" xml:space="preserve">
<path d="M429.4,261.9l39.7-43.4c56.6-56.6,55.6-128.3,4.5-180C422.5-13.4,350-13.6,293.4,42.7l-43.2,40c21.3-6.2,44.4-1.2,68.8,23.1  l90.4,90.4C433.7,220.2,435.4,240.3,429.4,261.9z M217.2,381.6c24.8,24.8,48.7,25.6,74,0l90.6-90.6c25.6-25.6,25.1-49.2,0.2-74  l-87.1-87.1c-24.8-24.8-48.2-25.3-74,0.5l-90.6,90.4c-25.3,25.6-24.8,49.4,0,74.2L217.2,381.6z M239.8,220.2  c-9.4-9.4-9.4-24.1-0.2-33.3c9.4-9.4,23.8-9.4,33,0c9.2,9.2,9.4,23.6-0.2,33.3C263.6,228.9,248.5,228.9,239.8,220.2z M187.2,272.6  c-9.4-9.4-9.4-23.8,0-33.3c9.4-9.4,23.8-9.2,33.3,0.2c8.7,8.9,8.9,23.6,0,32.5C210.7,282,196.3,281.5,187.2,272.6z M324.9,272.6  c-9.2,8.9-23.8,8.9-33.3-0.5c-8.7-8.7-8.7-23.6,0-32.5c9.7-9.7,24.1-9.4,33.3-0.2C334.4,248.8,334.4,263.2,324.9,272.6z M38.5,473.4  c51.1,51.9,123.6,52.4,180.2-4.2l42.7-40.2c-21.6,6.2-43.4,2-67.5-22.1l-90.6-90.6c-24.3-24.1-26.3-44.2-20.4-65.8l-40,42.9  C-13.9,349.8-12.7,421.8,38.5,473.4z M239.5,324.7c-9.2-8.9-9.4-23.3,0.2-33c9.2-9.2,23.8-8.9,32.5,0c9.4,9.2,9.7,24.1,0.2,33  C262.9,334.2,249,334.2,239.5,324.7z"/>
</svg>