<?xml version="1.0" encoding="UTF-8"?>
<!--Generator: Apple Native CoreSVG 326-->
<!DOCTYPE svg
PUBLIC "-//W3C//DTD SVG 1.1//EN"
       "http://www.w3.org/Graphics/SVG/1.1/DTD/svg11.dtd">
<svg version="1.1" xmlns="http://www.w3.org/2000/svg" xmlns:xlink="http://www.w3.org/1999/xlink" viewBox="0 0 25.9583 25.6169">
 <g>
  <rect height="25.6169" opacity="0" width="25.9583" x="0" y="0"/>
  <path d="M1.85609 23.7411C4.40492 26.329 7.97914 26.2313 10.8698 23.4969L13.1745 21.2997C12.1393 21.7196 11.026 21.5633 9.87367 20.411L5.15687 15.6844C3.99476 14.5321 3.88734 13.4579 4.2975 12.4227L2.11 14.7274C-0.624378 17.6376-0.692737 21.1532 1.85609 23.7411ZM10.8405 19.1317C12.0905 20.3915 13.2916 20.4208 14.5807 19.1317L19.1412 14.5711C20.4303 13.2723 20.401 12.0907 19.151 10.8407L14.7662 6.44615C13.5162 5.19615 12.3248 5.17662 11.0358 6.46568L6.46547 11.0262C5.18617 12.3055 5.21547 13.5165 6.46547 14.7665ZM9.33656 13.6141C8.87758 13.1454 8.87758 12.452 9.33656 11.993C9.79554 11.5243 10.4987 11.5438 10.9577 12.0028C11.3873 12.4325 11.4069 13.1454 10.9577 13.5946C10.4791 14.0731 9.78578 14.0536 9.33656 13.6141ZM12.0123 10.9579C11.5436 10.4989 11.5436 9.78599 11.9928 9.33677C12.4518 8.87779 13.1549 8.87779 13.6139 9.33677C14.0534 9.78599 14.0729 10.4794 13.5944 10.9579C13.1647 11.3876 12.442 11.3876 12.0123 10.9579ZM16.2702 13.6141C15.8209 14.0536 15.108 14.0536 14.6491 13.5946C14.2194 13.1649 14.2194 12.4325 14.6491 12.0028C15.1276 11.5243 15.8209 11.5438 16.2702 11.993C16.7291 12.452 16.7291 13.1454 16.2702 13.6141ZM11.9928 16.2606C11.5436 15.8211 11.5338 15.118 12.0123 14.6395C12.4518 14.2001 13.1647 14.2196 13.5944 14.6395C14.0534 15.1083 14.0729 15.8211 13.6139 16.2606C13.1354 16.7294 12.4518 16.7294 11.9928 16.2606ZM21.319 13.2137L23.4967 10.8797C26.2116 7.94029 26.2897 4.4442 23.7409 1.86607C21.1823-0.712054 17.6373-0.585101 14.7272 2.11021L12.3834 4.27818C13.4088 3.85826 14.6295 4.1024 15.7916 5.25474L20.4987 9.97154C21.6608 11.1239 21.7389 12.1883 21.319 13.2137Z" fill="black" fill-opacity="0.85"/>
 </g>
</svg>
