<?xml version="1.0" ?><!-- Generator: Adobe Illustrator 25.0.0, SVG Export Plug-In . SVG Version: 6.00 Build 0)  --><svg xmlns="http://www.w3.org/2000/svg" xmlns:xlink="http://www.w3.org/1999/xlink" version="1.1" id="Layer_1" x="0px" y="0px" viewBox="0 0 512 512" style="enable-background:new 0 0 512 512;" xml:space="preserve">
<path d="M38.2,473.8c52.3,52,126.3,51.5,183.5-5.4l75.2-75.7l95.9-95.7l75.5-75.5c57.2-57,57.5-130.9,5.4-183.2  c-52.3-52-126.3-51.8-183.2,5.2L215,119.2l-95.7,95.9l-75.7,75.2C-13.3,347.5-13.8,421.5,38.2,473.8z M393.1,210.7l-92-91.7  c-5.4-5.4-10.9-9.9-16.3-13.3l33.5-33.5c39.5-39.7,91.5-45.1,129.2-7.9c38,37.5,32.1,90-7.6,129.5l-33.5,33.5  C402.9,221.8,398.5,216.4,393.1,210.7z M278.4,148.8l84.8,84.8c14.1,14.1,12.6,24.4-2.2,39l-88.5,88.5c-14.5,14.8-24.9,16.3-39,2.2  l-84.8-84.8c-14.1-14.1-12.6-24.7,2.2-39.2l88.5-88.3C254,136.2,264.3,134.7,278.4,148.8z M255.7,228.4c12.1,0,21-9.4,21-20.7  c0.5-11.3-9.1-21-20.7-21c-11.6,0-20.7,9.6-20.7,21.5C235.2,218.8,244.9,228.4,255.7,228.4z M208.4,276.8c11.3,0,20.5-9.9,20.5-20.5  c0-11.8-9.1-21.2-20.7-21.2c-11.8,0-21,9.4-21,21C187.2,267.4,196.3,276.8,208.4,276.8z M303.8,276.8c11.6,0,21.2-9.6,21-21  c0-11.3-9.1-20.7-21.2-20.7c-10.9,0-20.5,9.6-20.5,20.2C283.1,267.2,292.5,276.8,303.8,276.8z M256,324.9c11.6,0,20.7-9.4,20.7-21.2  c0-10.6-9.1-20.5-20.5-20.5c-12.1,0-21.2,9.4-21.2,20.7C235,315.5,244.1,324.9,256,324.9z M64.3,447.7c-38-37.5-32.1-89.8,7.6-129.5  l33.5-33.5c3.5,5.7,7.9,11.1,13.3,16.5l92,92c5.4,5.4,10.9,9.9,16.3,13.3L193.8,440C154.1,479.5,102.1,485.2,64.3,447.7z"/>
</svg>