<?xml version="1.0" ?><!-- Generator: Adobe Illustrator 25.0.0, SVG Export Plug-In . SVG Version: 6.00 Build 0)  --><svg xmlns="http://www.w3.org/2000/svg" xmlns:xlink="http://www.w3.org/1999/xlink" version="1.1" id="Layer_1" x="0px" y="0px" viewBox="0 0 512 512" style="enable-background:new 0 0 512 512;" xml:space="preserve">
<path d="M0,400.8c0,9.3,6.2,15.5,15.5,15.5h481.2c9.3,0,15.3-6.2,15.3-15.5V111c0-9.3-6-15.3-15.3-15.3H15.5C6.2,95.7,0,101.7,0,111  V400.8z M35.5,369V143c0-7.8,4.5-11.8,11.6-11.8h417.7c7.4,0,11.6,4.1,11.6,11.8V369c0,7.6-4.3,11.8-11.6,11.8H47.1  C40,380.8,35.5,376.5,35.5,369z M55.7,356c0,3.1,1.7,4.7,4.7,4.7H212c-20.6-20.9-32.6-58-32.6-104.9c0-46.7,12-83.6,32.2-104.3H60.3  c-2.9,0-4.7,1.6-4.7,4.7V356z M299.6,360.6h152c2.9,0,4.7-1.6,4.7-4.7V156c0-3.1-1.7-4.7-4.7-4.7H299.8c20.8,20.8,33,57.6,33,104.3  C332.8,302.6,320.4,339.7,299.6,360.6z M202.7,255.7c0,60.5,20.9,101,52.6,101c32.6,0,54.5-40.5,54.5-101  c0-60.5-21.9-100.8-54.5-100.8C223.6,154.9,202.7,195.2,202.7,255.7z"/>
</svg>