<?xml version="1.0" ?><!-- Generator: Adobe Illustrator 25.0.0, SVG Export Plug-In . SVG Version: 6.00 Build 0)  --><svg xmlns="http://www.w3.org/2000/svg" xmlns:xlink="http://www.w3.org/1999/xlink" version="1.1" id="Layer_1" x="0px" y="0px" viewBox="0 0 512 512" style="enable-background:new 0 0 512 512;" xml:space="preserve">
<path d="M256,512c140,0,256-116.2,256-256C512,116,395.8,0,255.7,0C116,0,0,116,0,256C0,395.8,116.2,512,256,512z M256,469.3  c-118.5,0-213.1-94.9-213.1-213.3S137.3,42.7,255.7,42.7S469.1,137.5,469.3,256S374.5,469.3,256,469.3z M255.2,311.7  c30.6,0,55.7-25.1,55.7-55.7c0-7.8-1.5-15.3-4.5-22.1l78.8-78.8c8-7.8,8-20.6,0-28.6c-7.8-7.8-20.6-7.8-28.4,0l-78.6,78.8  c-7-3.3-14.8-5-23.1-5c-30.6,0-55.7,24.8-55.7,55.7c0,8,1.8,16.1,5,22.8l-26.1,26.1c-7.8,7.8-7.8,20.8,0,28.6  c7.8,7.8,20.6,7.8,28.6,0l26.4-26.4C239.9,310,247.5,311.7,255.2,311.7z M255.2,280.1c-13.3,0-24.1-10.8-24.1-24.1  c0-13.6,10.8-24.1,24.1-24.1c13.3,0,24.1,10.5,24.1,24.1C279.3,269.3,268.5,280.1,255.2,280.1z"/>
</svg>