<?xml version="1.0" encoding="UTF-8"?>
<!--Generator: Apple Native CoreSVG 326-->
<!DOCTYPE svg
PUBLIC "-//W3C//DTD SVG 1.1//EN"
       "http://www.w3.org/Graphics/SVG/1.1/DTD/svg11.dtd">
<svg version="1.1" xmlns="http://www.w3.org/2000/svg" xmlns:xlink="http://www.w3.org/1999/xlink" viewBox="0 0 25.8008 25.459">
 <g>
  <rect height="25.459" opacity="0" width="25.8008" x="0" y="0"/>
  <path d="M0 12.7246C0 18.6523 4.0625 23.7012 9.7168 25.0781C10.1074 24.0234 10.3613 22.9004 10.4492 21.7773L9.84375 21.7383C9.55078 21.7285 9.32617 21.4746 9.33594 21.1816C9.33594 20.8887 9.58008 20.6543 9.89258 20.6641L10.4785 20.7129C10.4785 19.9805 10.4102 19.248 10.2734 18.5156L9.69727 18.6523C9.39453 18.7305 9.13086 18.5449 9.05273 18.2715C8.98438 17.9785 9.14062 17.6855 9.44336 17.6074L10 17.4707C9.79492 16.7578 9.52148 16.0449 9.16016 15.3613L8.67188 15.6152C8.39844 15.7617 8.10547 15.6641 7.95898 15.4102C7.80273 15.1562 7.88086 14.8242 8.1543 14.668L8.62305 14.4238C8.18359 13.75 7.69531 13.1348 7.1582 12.5879L6.79688 12.959C6.57227 13.1836 6.25977 13.1641 6.04492 12.959C5.83008 12.7539 5.80078 12.4219 6.02539 12.1973L6.36719 11.8359C5.83984 11.3672 5.27344 10.9766 4.66797 10.6348L4.375 11.2402C4.21875 11.5234 3.92578 11.5918 3.65234 11.4551C3.37891 11.3184 3.28125 10.9961 3.42773 10.7129L3.73047 10.1074C2.72461 9.62891 1.63086 9.28711 0.527344 9.11133C0.175781 10.2539 0 11.4648 0 12.7246ZM12.7148 25.4395C18.0371 25.4395 22.666 22.1387 24.5215 17.4414C23.3398 17.2266 22.1875 16.8555 21.1133 16.3477L20.8398 16.8652C20.6836 17.1387 20.3711 17.2168 20.1074 17.0898C19.8633 16.9531 19.7559 16.6309 19.9023 16.3574L20.166 15.8496C19.4336 15.4297 18.7402 14.9512 18.0957 14.3945L17.6758 14.8242C17.4609 15.0391 17.1387 15.0293 16.9336 14.834C16.7188 14.6191 16.6992 14.2969 16.9141 14.082L17.3242 13.6523C16.7188 13.0371 16.1719 12.3535 15.6836 11.5918L15.1074 11.9238C14.834 12.0801 14.5117 11.9629 14.3945 11.7188C14.248 11.4648 14.3262 11.1523 14.5801 10.9961L15.1562 10.6738C14.7363 9.86328 14.4043 9.0332 14.1699 8.18359L13.4668 8.35938C13.1641 8.4375 12.9004 8.26172 12.8418 7.96875C12.7539 7.69531 12.8906 7.39258 13.1934 7.31445L13.9258 7.13867C13.7695 6.33789 13.7012 5.51758 13.7012 4.7168L13.1055 4.67773C12.793 4.6582 12.5781 4.42383 12.6074 4.14062C12.6074 3.83789 12.832 3.58398 13.1445 3.59375L13.7305 3.63281C13.8477 2.44141 14.0723 1.25 14.5117 0.136719C13.916 0.0488281 13.3203 0 12.7148 0C6.30859 0 2.19727 4.55078 0.917969 7.99805C2.08008 8.21289 3.22266 8.55469 4.28711 9.08203L4.55078 8.59375C4.69727 8.31055 5.00977 8.24219 5.2832 8.38867C5.53711 8.51562 5.63477 8.82812 5.48828 9.10156L5.23438 9.58984C5.9375 9.98047 6.5918 10.4395 7.2168 10.9766L7.71484 10.459C7.92969 10.2441 8.25195 10.2734 8.4668 10.4883C8.67188 10.6934 8.71094 10.9961 8.48633 11.2207L7.99805 11.7188C8.62305 12.3535 9.18945 13.0566 9.67773 13.8281L10.2637 13.5059C10.5371 13.3594 10.8496 13.4668 10.9863 13.7207C11.1426 13.9648 11.0742 14.2871 10.791 14.4434L10.2148 14.7559C10.6348 15.5371 10.9473 16.3477 11.1816 17.1582L11.7773 17.0215C12.0801 16.9434 12.3535 17.1289 12.4316 17.4121C12.5098 17.6953 12.3438 17.9883 12.0508 18.0664L11.4355 18.2227C11.6016 19.0625 11.6797 19.9023 11.6699 20.7422L12.2852 20.7812C12.5977 20.791 12.8125 21.0352 12.8125 21.3281C12.8027 21.6211 12.5684 21.8652 12.2559 21.8457L11.6309 21.8066C11.5332 22.998 11.2793 24.1797 10.8594 25.3027C11.4648 25.3906 12.0898 25.4395 12.7148 25.4395ZM25.4395 12.7246C25.4395 6.75781 21.2695 1.65039 15.6348 0.351562C15.2539 1.41602 15 2.54883 14.9121 3.67188L15.5469 3.7207C15.8496 3.73047 16.0742 3.98438 16.0645 4.27734C16.0547 4.58984 15.8301 4.79492 15.5078 4.78516L14.8926 4.74609C14.8926 5.43945 14.9512 6.14258 15.0879 6.83594L15.5469 6.72852C15.8496 6.65039 16.1035 6.83594 16.1816 7.11914C16.2402 7.40234 16.123 7.68555 15.8105 7.76367L15.3418 7.87109C15.5566 8.61328 15.8398 9.3457 16.2207 10.0684L16.6992 9.79492C16.9629 9.63867 17.2852 9.76562 17.4121 10.0098C17.5586 10.293 17.4902 10.5859 17.2168 10.7324L16.748 10.9961C17.168 11.6504 17.6465 12.2461 18.1641 12.793L18.5938 12.334C18.8184 12.1191 19.1504 12.1387 19.3555 12.334C19.5703 12.5293 19.5996 12.8809 19.3652 13.1152L18.9453 13.5449C19.502 14.0332 20.0977 14.4531 20.7422 14.8145L21.0254 14.2188C21.1621 13.9648 21.4746 13.877 21.7383 14.0039C22.002 14.1504 22.1191 14.4727 21.9629 14.7461L21.6699 15.3223C22.6953 15.8105 23.7793 16.1426 24.9121 16.3184C25.2539 15.1758 25.4395 13.9746 25.4395 12.7246Z" fill="black" fill-opacity="0.85"/>
 </g>
</svg>
