<?xml version="1.0" encoding="UTF-8"?>
<!--Generator: Apple Native CoreSVG 326-->
<!DOCTYPE svg
PUBLIC "-//W3C//DTD SVG 1.1//EN"
       "http://www.w3.org/Graphics/SVG/1.1/DTD/svg11.dtd">
<svg version="1.1" xmlns="http://www.w3.org/2000/svg" xmlns:xlink="http://www.w3.org/1999/xlink" viewBox="0 0 23.7598 16.2988">
 <g>
  <rect height="16.2988" opacity="0" width="23.7598" x="0" y="0"/>
  <path d="M0.947266 16.2793C1.50391 16.2793 1.89453 15.8887 1.89453 15.3418L1.89453 9.0918L21.5039 9.0918L21.5039 15.3418C21.5039 15.8887 21.9043 16.2793 22.4512 16.2793C23.0078 16.2793 23.3984 15.8887 23.3984 15.3418L23.3984 0.9375C23.3984 0.390625 23.0078 0 22.4512 0C21.9043 0 21.5039 0.390625 21.5039 0.9375L21.5039 7.19727L1.89453 7.19727L1.89453 0.9375C1.89453 0.390625 1.50391 0 0.947266 0C0.390625 0 0 0.390625 0 0.9375L0 15.3418C0 15.8887 0.390625 16.2793 0.947266 16.2793Z" fill="black" fill-opacity="0.85"/>
 </g>
</svg>
