<?xml version="1.0" encoding="UTF-8"?>
<!--Generator: Apple Native CoreSVG 326-->
<!DOCTYPE svg
PUBLIC "-//W3C//DTD SVG 1.1//EN"
       "http://www.w3.org/Graphics/SVG/1.1/DTD/svg11.dtd">
<svg version="1.1" xmlns="http://www.w3.org/2000/svg" xmlns:xlink="http://www.w3.org/1999/xlink" viewBox="0 0 25.8008 25.459">
 <g>
  <rect height="25.459" opacity="0" width="25.8008" x="0" y="0"/>
  <path d="M25.4395 12.7246C25.4395 19.7266 19.7266 25.4395 12.7148 25.4395C5.71289 25.4395 0 19.7266 0 12.7246C0 5.71289 5.71289 0 12.7148 0C19.7266 0 25.4395 5.71289 25.4395 12.7246ZM8.64258 10.7812C8.65234 13.7207 7.43164 17.041 9.83398 18.8379C10.6836 19.3359 11.6699 19.6289 12.7246 19.6289C13.0371 19.6289 13.3594 19.6094 13.6719 19.5605C11.1133 16.3574 9.82422 12.9785 9.35547 10.332C9.10156 10.4688 8.87695 10.625 8.64258 10.7812ZM10.0684 9.93164C10.498 12.5098 11.8066 16.0352 14.5508 19.3652C16.1523 18.9258 17.5391 17.8906 18.4473 16.5234C17.9785 13.3594 12.5195 12.3047 11.2793 9.42383C10.8789 9.57031 10.4785 9.73633 10.0684 9.93164ZM5.87891 13.6719C6.09375 15.127 6.79688 16.4648 7.79297 17.5C7.2168 15.6348 7.70508 13.3887 7.82227 11.4453C7.08008 12.0996 6.43555 12.832 5.87891 13.6719ZM12.0801 9.18945C13.1445 11.4062 17.7539 12.4414 19.0137 15.498C19.4043 14.6387 19.6289 13.7109 19.6289 12.7246C19.6289 11.7188 19.3848 10.752 18.9746 9.88281C17.5977 9.20898 16.1914 8.86719 14.6191 8.86719C13.7402 8.86719 12.8906 8.97461 12.0801 9.18945ZM5.83008 12.3438C6.41602 11.6211 7.07031 10.9668 7.83203 10.3809C7.80273 9.83398 7.51953 8.99414 7.04102 8.82812C6.33789 9.83398 5.85938 11.1914 5.83008 12.3438ZM7.53906 8.18359C8.10547 8.4375 8.44727 9.24805 8.57422 9.86328C8.79883 9.7168 9.00391 9.58008 9.22852 9.46289C9.10156 8.34961 9.14062 7.42188 9.26758 6.76758C8.61328 7.14844 8.04688 7.62695 7.53906 8.18359ZM10.127 6.33789C9.98047 6.875 9.83398 7.8125 9.98047 9.0918C10.3223 8.92578 10.6934 8.7793 11.0645 8.64258C11.0547 8.51562 11.0547 8.37891 11.0547 8.22266C11.0547 7.25586 11.5039 6.40625 12.2656 5.83008C11.5137 5.87891 10.8008 6.06445 10.127 6.33789ZM11.875 8.41797C12.7441 8.17383 13.6719 8.06641 14.6191 8.06641C15.8984 8.06641 17.1484 8.28125 18.2812 8.69141C17.2266 7.25586 15.6348 6.2207 13.8379 5.91797C12.5293 6.41602 11.8164 7.14844 11.875 8.41797Z" fill="black" fill-opacity="0.85"/>
 </g>
</svg>
