<?xml version="1.0" encoding="UTF-8"?>
<!--Generator: Apple Native CoreSVG 326-->
<!DOCTYPE svg
PUBLIC "-//W3C//DTD SVG 1.1//EN"
       "http://www.w3.org/Graphics/SVG/1.1/DTD/svg11.dtd">
<svg version="1.1" xmlns="http://www.w3.org/2000/svg" xmlns:xlink="http://www.w3.org/1999/xlink" viewBox="0 0 29.9512 28.0664">
 <g>
  <rect height="28.0664" opacity="0" width="29.9512" x="0" y="0"/>
  <path d="M22.0876 24.7119L3.79883 24.7119C1.2793 24.7119 0 23.4522 0 20.9522L0 10.3467C0 7.8467 1.2793 6.58693 3.79883 6.58693L3.94764 6.58693ZM10.9277 4.81936L10.9277 6.58693L18.6523 6.58693L18.6523 4.81936C18.6523 3.91115 19.1797 3.36428 20.1074 3.36428L22.7051 3.36428C23.6426 3.36428 24.1602 3.91115 24.1602 4.81936L24.1602 6.58693L25.7812 6.58693C28.3105 6.58693 29.5898 7.85647 29.5898 10.3467L29.5898 20.9522C29.5898 22.6199 29.0161 23.7401 27.8743 24.2952L6.94336 3.36428L9.47266 3.36428C10.4102 3.36428 10.9277 3.91115 10.9277 4.81936Z" fill="black" fill-opacity="0.85"/>
  <path d="M25.7617 26.46C26.084 26.7822 26.6211 26.792 26.9434 26.46C27.2656 26.128 27.2656 25.6104 26.9434 25.2783L3.28125 1.63576C2.96875 1.3135 2.43164 1.30373 2.09961 1.63576C1.77734 1.94826 1.77734 2.49514 2.09961 2.8174Z" fill="black" fill-opacity="0.85"/>
 </g>
</svg>
