<?xml version="1.0" encoding="UTF-8"?>
<!--Generator: Apple Native CoreSVG 326-->
<!DOCTYPE svg
PUBLIC "-//W3C//DTD SVG 1.1//EN"
       "http://www.w3.org/Graphics/SVG/1.1/DTD/svg11.dtd">
<svg version="1.1" xmlns="http://www.w3.org/2000/svg" xmlns:xlink="http://www.w3.org/1999/xlink" viewBox="0 0 29.9512 21.3574">
 <g>
  <rect height="21.3574" opacity="0" width="29.9512" x="0" y="0"/>
  <path d="M3.79883 21.3574L25.7812 21.3574C28.3105 21.3574 29.5898 20.0879 29.5898 17.5977L29.5898 6.99219C29.5898 4.50195 28.3105 3.23242 25.7812 3.23242L24.1602 3.23242L24.1602 1.46484C24.1602 0.556641 23.6426 0.00976562 22.7051 0.00976562L20.1074 0.00976562C19.1797 0.00976562 18.6523 0.556641 18.6523 1.46484L18.6523 3.23242L10.9277 3.23242L10.9277 1.46484C10.9277 0.556641 10.4102 0.00976562 9.47266 0.00976562L6.875 0.00976562C5.94727 0.00976562 5.41992 0.556641 5.41992 1.46484L5.41992 3.23242L3.79883 3.23242C1.2793 3.23242 0 4.49219 0 6.99219L0 17.5977C0 20.0977 1.2793 21.3574 3.79883 21.3574Z" fill="black" fill-opacity="0.85"/>
 </g>
</svg>
