<?xml version="1.0" encoding="UTF-8"?>
<!--Generator: Apple Native CoreSVG 326-->
<!DOCTYPE svg
PUBLIC "-//W3C//DTD SVG 1.1//EN"
       "http://www.w3.org/Graphics/SVG/1.1/DTD/svg11.dtd">
<svg version="1.1" xmlns="http://www.w3.org/2000/svg" xmlns:xlink="http://www.w3.org/1999/xlink" viewBox="0 0 36.123 27.4512">
 <g>
  <rect height="27.4512" opacity="0" width="36.123" x="0" y="0"/>
  <path d="M35.7617 13.4863L35.7617 25.5273C35.7617 26.6211 35.0781 27.2461 33.916 27.2461L8.88672 27.2461C7.86852 27.2461 7.26899 26.7273 7.23047 25.8203L33.6133 25.8203C34.0723 25.8203 34.3359 25.5762 34.3359 25.0977L34.3359 11.9734C35.2352 12.0499 35.7617 12.601 35.7617 13.4863Z" fill="black" fill-opacity="0.85"/>
  <path d="M32.6465 9.44336L32.6465 22.4219C32.6465 23.5156 31.9629 24.1309 30.8008 24.1309L5.21484 24.1309C4.16016 24.1309 3.55469 23.5742 3.55469 22.6172L3.55469 22.5879L30.3711 22.5879C30.8301 22.5879 31.0938 22.3438 31.0938 21.875L31.0937 7.92327C32.0703 7.95628 32.6465 8.50776 32.6465 9.44336Z" fill="black" fill-opacity="0.85"/>
  <path d="M3.79883 20.5762L25.2832 20.5762C28.1445 20.5762 29.082 19.6484 29.082 16.8164L29.082 6.5625C29.082 4.07227 27.793 2.80273 25.2734 2.80273L24.043 2.80273L24.043 1.29883C24.043 0.478516 23.584 0 22.7441 0L20.0195 0C19.1895 0 18.7305 0.478516 18.7305 1.29883L18.7305 2.80273L10.3613 2.80273L10.3613 1.29883C10.3613 0.478516 9.89258 0 9.0625 0L6.33789 0C5.50781 0 5.03906 0.478516 5.03906 1.29883L5.03906 2.80273L3.79883 2.80273C1.2793 2.80273 0 4.07227 0 6.5625L0 16.8164C0 19.3066 1.2793 20.5762 3.79883 20.5762Z" fill="black" fill-opacity="0.85"/>
 </g>
</svg>
