<?xml version="1.0" encoding="UTF-8"?>
<!--Generator: Apple Native CoreSVG 326-->
<!DOCTYPE svg
PUBLIC "-//W3C//DTD SVG 1.1//EN"
       "http://www.w3.org/Graphics/SVG/1.1/DTD/svg11.dtd">
<svg version="1.1" xmlns="http://www.w3.org/2000/svg" xmlns:xlink="http://www.w3.org/1999/xlink" viewBox="0 0 25.8008 25.459">
 <g>
  <rect height="25.459" opacity="0" width="25.8008" x="0" y="0"/>
  <path d="M25.4395 12.7246C25.4395 19.7266 19.7266 25.4395 12.7148 25.4395C5.71289 25.4395 0 19.7266 0 12.7246C0 5.71289 5.71289 0 12.7148 0C19.7266 0 25.4395 5.71289 25.4395 12.7246ZM7.96875 8.76953C6.96289 8.76953 6.12305 8.88672 5.51758 9.47266C4.94141 10.0781 4.83398 10.8984 4.83398 11.8945L4.83398 13.5449C4.83398 14.541 4.94141 15.3711 5.51758 15.9668C6.12305 16.5527 6.94336 16.6504 7.96875 16.6504L16.6504 16.6504C17.6562 16.6504 18.4863 16.5527 19.0723 15.9668C19.6484 15.3711 19.7754 14.541 19.7754 13.5449L19.7754 11.8945C19.7754 10.9082 19.6484 10.0781 19.0723 9.47266C18.4766 8.88672 17.6465 8.76953 16.6504 8.76953ZM18.1445 10.4199C18.3691 10.6348 18.4961 11.1133 18.4961 11.7383L18.4961 13.7109C18.4961 14.3262 18.3691 14.8047 18.1445 15.0195C17.9004 15.2734 17.4414 15.3809 16.8164 15.3809L7.79297 15.3809C7.1582 15.3809 6.70898 15.2734 6.46484 15.0293C6.23047 14.8145 6.13281 14.3555 6.13281 13.7109L6.13281 11.7383C6.13281 11.084 6.23047 10.6348 6.46484 10.4102C6.71875 10.166 7.16797 10.0488 7.79297 10.0488L16.8164 10.0488C17.4316 10.0488 17.9004 10.1758 18.1445 10.4199ZM7.8418 10.752C7.45117 10.752 7.19727 10.8008 7.04102 10.957C6.9043 11.1035 6.83594 11.3477 6.83594 11.7578L6.83594 13.6719C6.83594 14.082 6.9043 14.3262 7.04102 14.4824C7.1875 14.6191 7.45117 14.6777 7.8418 14.6777L16.7676 14.6777C17.1777 14.6777 17.4219 14.6191 17.5684 14.4824C17.7246 14.3262 17.8027 14.0723 17.8027 13.6719L17.8027 11.7578C17.8027 11.3672 17.7246 11.1133 17.5684 10.957C17.4121 10.8105 17.1777 10.752 16.7676 10.752ZM20.3613 14.2773C20.8301 14.248 21.4648 13.6328 21.4648 12.7246C21.4648 11.8164 20.8301 11.2109 20.3613 11.1621Z" fill="black" fill-opacity="0.85"/>
 </g>
</svg>
