<?xml version="1.0" ?><!-- Generator: Adobe Illustrator 25.0.0, SVG Export Plug-In . SVG Version: 6.00 Build 0)  --><svg xmlns="http://www.w3.org/2000/svg" xmlns:xlink="http://www.w3.org/1999/xlink" version="1.1" id="Layer_1" x="0px" y="0px" viewBox="0 0 512 512" style="enable-background:new 0 0 512 512;" xml:space="preserve">
<path d="M86.8,348.9c-17.7,0-36.2-2.4-46.7-12.9c-10.3-10.3-12.5-28.6-12.5-46.3v-66.9c0-18.2,2.2-36.5,12.5-47  c10.5-10.3,29.2-12.7,47.2-12.7H207l22-27.6H91.1c-28.8,0-53.5,2.7-71,20.4C2.6,173.4,0,197.8,0,226.6v58.3  c0,29.3,2.6,53.9,20.1,71.4c17.5,17.5,42.2,20.2,71.4,20.2H159l10.1-27.6H86.8z M436.7,155.7c-17.5-17.5-42.2-20.2-71.4-20.2h-67.6  l-10.3,27.6H370c17.7,0,36.2,2.4,46.7,12.9c10.3,10.3,12.5,28.6,12.5,46.3v67.4c0,17.7-2.2,36-12.5,46.3  c-10.5,10.5-29,12.9-46.7,12.9H249.7l-22,27.6h137.6c29.2,0,53.9-2.7,71.4-20.2c17.5-17.5,20.1-42,20.1-71.4v-58  C456.8,197.8,454.2,173.2,436.7,155.7z M155.1,268.9c0,4.3,3.6,7.4,8.1,7.4h58l-30.9,83.4c-4.3,11,7.5,17,14.8,8.2l94-118.2  c1.9-2.1,2.9-4.5,2.9-6.7c0-4.3-3.6-7.4-7.9-7.4h-58.1l30.9-83.4c4.3-11-7.4-17-14.6-8.2l-94.2,118  C156.1,264.3,155.1,266.7,155.1,268.9z M79.9,327.1h97.3l10.1-27.3h-25.6c-27.1,0-40.3-30.5-21.8-52.7l49.7-62.3H79.9  c-12,0-18.7,1.4-23.8,6.5c-5,5.1-6.7,11.8-6.7,23.8v81.5c0,12,1.7,18.7,6.7,23.8C61.2,325.7,67.9,327.1,79.9,327.1z M267.2,327.1  H377c12,0,18.7-1.4,23.8-6.5c5.1-5.1,6.7-11.8,6.7-23.8v-81.5c0-12-1.7-18.7-6.7-23.8c-5.1-5.1-11.8-6.5-23.8-6.5h-97.4l-9.9,27.3  h25.7c26.9,0,40.1,30.5,21.6,52.7L267.2,327.1z M480.1,300.3c13.7-0.9,31.9-18.2,31.9-44.4c0-26.1-18.2-43.4-31.9-44.3V300.3z"/>
</svg>