<?xml version="1.0" encoding="UTF-8"?>
<!--Generator: Apple Native CoreSVG 326-->
<!DOCTYPE svg
PUBLIC "-//W3C//DTD SVG 1.1//EN"
       "http://www.w3.org/Graphics/SVG/1.1/DTD/svg11.dtd">
<svg version="1.1" xmlns="http://www.w3.org/2000/svg" xmlns:xlink="http://www.w3.org/1999/xlink" viewBox="0 0 25.4849 29.3401">
 <g>
  <rect height="29.3401" opacity="0" width="25.4849" x="0" y="0"/>
  <path d="M14.3782 5.98352L16.1751 6.63781L18.0892 1.37414C18.2845 0.8175 18.0696 0.299922 17.5325 0.0948441C17.0052-0.100468 16.5071 0.153438 16.302 0.710078ZM14.5735 2.3507C7.22001 0.719844 1.7122 5.61242 0.081339 10.1437C-0.153036 10.7491 0.149698 11.257 0.598917 11.4327C0.970011 11.5695 1.29228 11.4034 1.58525 11.1691C2.80595 10.2706 3.93876 9.92883 5.25712 10.4073C6.23368 10.7589 6.75126 11.4718 7.04423 12.1163C7.22001 12.4679 7.57157 12.4679 7.66923 12.1066C8.88017 7.82922 11.5071 4.30383 14.5735 2.3507ZM16.7708 2.05773C13.3626 4.14758 10.2474 8.3175 9.00712 12.8488C8.90946 13.2491 9.2122 13.5128 9.66142 13.337C10.677 12.878 11.7513 12.712 12.7669 13.0831C13.7825 13.4445 14.4954 14.2648 14.9837 15.2804C15.2181 15.6905 15.5989 15.6905 15.7845 15.3292C17.7474 11.0519 18.0403 5.8468 16.7708 2.05773ZM18.3333 3.71789C19.427 7.17492 19.1536 11.5499 17.3567 15.6417C17.2005 15.9738 17.4642 16.2081 17.8255 16.0421C18.47 15.7296 19.3196 15.5245 20.2962 15.8859C21.6145 16.3546 22.2591 17.3605 22.6106 18.8253C22.6888 19.1964 22.845 19.5284 23.2063 19.6554C23.6556 19.8214 24.222 19.6163 24.4368 19.0011C26.0872 14.4796 25.0325 7.19445 18.3333 3.71789ZM6.3411 28.0636C6.16532 28.5616 6.41923 29.1085 6.90751 29.2941C7.39579 29.4503 7.9622 29.1964 8.13798 28.7179L13.8802 12.9464L12.0833 12.3019Z" fill="black" fill-opacity="0.85"/>
 </g>
</svg>
