<?xml version="1.0" encoding="UTF-8"?>
<!--Generator: Apple Native CoreSVG 326-->
<!DOCTYPE svg
PUBLIC "-//W3C//DTD SVG 1.1//EN"
       "http://www.w3.org/Graphics/SVG/1.1/DTD/svg11.dtd">
<svg version="1.1" xmlns="http://www.w3.org/2000/svg" xmlns:xlink="http://www.w3.org/1999/xlink" viewBox="0 0 21.6162 20.2441">
 <g>
  <rect height="20.2441" opacity="0" width="21.6162" x="0" y="0"/>
  <path d="M12.2437 12.7051C13.9819 11.9531 14.8218 9.96094 14.0698 8.22266L11.5796 2.55859C10.8081 0.800781 8.81593-0.00976562 7.07765 0.712891C5.34913 1.46484 4.51905 3.50586 5.27101 5.21484L7.77101 10.8984C8.52296 12.5977 10.5151 13.4473 12.2437 12.7051ZM10.9741 11.7383C9.75343 11.7383 8.78663 10.7812 8.78663 9.56055C8.78663 8.34961 9.75343 7.38281 10.9741 7.38281C12.1753 7.38281 13.1421 8.34961 13.1421 9.56055C13.1421 10.7812 12.1851 11.7383 10.9741 11.7383ZM10.9741 10.8984C11.7261 10.8984 12.2925 10.3027 12.2925 9.56055C12.2925 8.82812 11.7261 8.22266 10.9741 8.22266C10.2026 8.22266 9.62647 8.82812 9.62647 9.56055C9.62647 10.3027 10.2026 10.8984 10.9741 10.8984ZM0.271006 9.08203C-0.656728 12.2559 0.847178 15.1953 4.02101 16.4551L6.35499 17.373C10.2222 18.8965 14.1675 18.0762 15.7202 13.75C16.5601 11.416 16.2964 9.4043 15.2515 8.10547C16.0327 10.332 14.9292 12.8027 12.7124 13.7793C10.398 14.7559 7.72218 13.6719 6.70655 11.3574L4.20655 5.67383C4.06983 5.37109 3.98194 5.06836 3.91358 4.73633C2.53663 5.87891 0.905772 6.91406 0.271006 9.08203Z" fill="black" fill-opacity="0.85"/>
  <path d="M16.814 14.1406C15.9448 16.5723 14.3042 18.1934 12.2144 18.877C13.1714 19.7266 14.4312 20.2441 15.8081 20.2441C18.8159 20.2441 21.2573 17.793 21.2573 14.7656C21.2573 12.2266 19.5288 10.0977 17.1948 9.47266C17.5171 10.9961 17.3901 12.5586 16.814 14.1406Z" fill="black" fill-opacity="0.425"/>
  <path d="M10.9741 11.7383C9.75343 11.7383 8.78663 10.7812 8.78663 9.56055C8.78663 8.34961 9.75343 7.38281 10.9741 7.38281C12.1753 7.38281 13.1421 8.34961 13.1421 9.56055C13.1421 10.7812 12.1851 11.7383 10.9741 11.7383ZM10.9741 10.8984C11.7261 10.8984 12.2925 10.3027 12.2925 9.56055C12.2925 8.82812 11.7261 8.22266 10.9741 8.22266C10.2026 8.22266 9.62647 8.82812 9.62647 9.56055C9.62647 10.3027 10.2026 10.8984 10.9741 10.8984Z" fill="black" fill-opacity="0.2125"/>
 </g>
</svg>
