<?xml version="1.0" encoding="UTF-8"?>
<!--Generator: Apple Native CoreSVG 326-->
<!DOCTYPE svg
PUBLIC "-//W3C//DTD SVG 1.1//EN"
       "http://www.w3.org/Graphics/SVG/1.1/DTD/svg11.dtd">
<svg version="1.1" xmlns="http://www.w3.org/2000/svg" xmlns:xlink="http://www.w3.org/1999/xlink" viewBox="0 0 39.6973 17.1191">
 <g>
  <rect height="17.1191" opacity="0" width="39.6973" x="0" y="0"/>
  <path d="M17.4316 17.0996L21.9043 17.0996C27.6465 17.0996 30.9473 17.041 33.7695 16.1035C37.334 14.8926 39.3359 12.2168 39.3359 8.55469C39.3359 4.88281 37.334 2.20703 33.7695 1.00586C30.9473 0.0585938 27.6465 0 21.9043 0L17.4316 0C11.6895 0 8.38867 0.0585938 5.55664 1.00586C2.00195 2.20703 0 4.88281 0 8.55469C0 12.2168 2.00195 14.8926 5.55664 16.1035C8.38867 17.041 11.6895 17.0996 17.4316 17.0996ZM19.668 11.6504C18.1934 11.6504 17.0703 10.5273 17.0703 9.10156L17.0703 5.33203L18.2324 4.82422L18.2324 6.9043C18.6816 6.58203 19.1504 6.43555 19.668 6.43555C21.0938 6.43555 22.2852 7.62695 22.2852 9.10156C22.2852 10.498 21.1133 11.6504 19.668 11.6504ZM19.668 10.498C20.4492 10.498 21.0938 9.84375 21.0938 9.10156C21.0938 8.32031 20.4492 7.66602 19.668 7.66602C18.9062 7.66602 18.2324 8.31055 18.2324 9.10156C18.2324 9.84375 18.8867 10.498 19.668 10.498Z" fill="black" fill-opacity="0.85"/>
 </g>
</svg>
