<?xml version="1.0" encoding="UTF-8"?>
<!--Generator: Apple Native CoreSVG 326-->
<!DOCTYPE svg
PUBLIC "-//W3C//DTD SVG 1.1//EN"
       "http://www.w3.org/Graphics/SVG/1.1/DTD/svg11.dtd">
<svg version="1.1" xmlns="http://www.w3.org/2000/svg" xmlns:xlink="http://www.w3.org/1999/xlink" viewBox="0 0 25.2051 24.7363">
 <g>
  <rect height="24.7363" opacity="0" width="25.2051" x="0" y="0"/>
  <path d="M7.59766 24.7168L17.1875 24.7168C22.2168 24.7168 24.8438 22.1191 24.8438 17.1191L24.8438 7.59766C24.8438 2.60742 22.2168 0 17.1875 0L7.59766 0C2.60742 0 0 2.60742 0 7.59766L0 17.1191C0 22.1191 2.60742 24.7168 7.59766 24.7168ZM7.38281 22.9883C3.67188 22.9883 1.72852 21.0449 1.72852 17.3438L1.72852 7.38281C1.72852 3.67188 3.67188 1.72852 7.38281 1.72852L17.5293 1.72852C21.2012 1.72852 23.1152 3.62305 23.1152 7.25586L23.1152 17.4609C23.1152 21.0938 21.2012 22.9883 17.5293 22.9883ZM12.4219 18.3301C15.7227 18.3301 18.3691 15.6055 18.3691 12.3633C18.3691 9.08203 15.6543 6.42578 12.4219 6.42578C11.8457 6.42578 11.3086 6.47461 10.8398 6.62109L10.8398 10C11.3086 9.6582 11.8555 9.46289 12.4219 9.46289C13.9648 9.46289 15.2832 10.8008 15.2832 12.3633C15.2832 13.916 13.9941 15.1953 12.4219 15.1953C10.8105 15.1953 9.56055 13.9551 9.56055 12.3633L9.56055 7.12891C7.65625 8.19336 6.46484 10.1562 6.46484 12.3633C6.46484 15.6738 9.12109 18.3301 12.4219 18.3301ZM12.4219 13.9355C13.2617 13.9355 13.9844 13.1934 13.9844 12.3633C13.9844 11.5527 13.2422 10.8203 12.4219 10.8203C11.6016 10.8203 10.8594 11.5234 10.8594 12.3633C10.8594 13.2324 11.5723 13.9355 12.4219 13.9355Z" fill="black" fill-opacity="0.85"/>
 </g>
</svg>
