<?xml version="1.0" encoding="UTF-8"?>
<!--Generator: Apple Native CoreSVG 326-->
<!DOCTYPE svg
PUBLIC "-//W3C//DTD SVG 1.1//EN"
       "http://www.w3.org/Graphics/SVG/1.1/DTD/svg11.dtd">
<svg version="1.1" xmlns="http://www.w3.org/2000/svg" xmlns:xlink="http://www.w3.org/1999/xlink" viewBox="0 0 15.7129 25.8691">
 <g>
  <rect height="25.8691" opacity="0" width="15.7129" x="0" y="0"/>
  <path d="M5.35156 0C1.80664 0 0 2.60742 0 6.72852L0 9.32617C0 12.2656 0.742188 13.6523 2.82227 14.8047L7.59766 17.4219C8.82812 18.0859 9.42383 18.3105 10.2832 18.3105C12.0508 18.3105 13.5059 16.8555 13.5059 15.0879C13.5059 13.8867 12.8809 12.7441 11.4941 12.0312L2.01172 7.08008C2.01172 3.78906 3.0957 2.00195 5.47852 2.00195C9.45312 2.00195 12.9199 6.71875 13.3105 12.0605C14.1211 12.8906 14.5605 13.9355 14.5605 15.0879C14.5605 17.0312 13.2422 18.6914 11.4453 19.209C11.5234 20.4395 12.2852 21.6895 13.2324 21.6895C14.3848 21.6895 15.3516 17.666 15.3516 14.0332C15.3516 6.29883 10.8398 0 5.35156 0ZM10.3418 17.1387C9.21875 17.1387 8.29102 16.2109 8.29102 15.0879C8.29102 13.9453 9.21875 13.0078 10.3418 13.0078C11.4941 13.0078 12.4219 13.9453 12.4219 15.0879C12.4219 16.2109 11.4941 17.1387 10.3418 17.1387ZM10.3418 16.3867C11.0742 16.3867 11.6504 15.791 11.6504 15.0879C11.6504 14.3652 11.0742 13.7695 10.3418 13.7695C9.63867 13.7695 9.05273 14.3652 9.05273 15.0879C9.05273 15.791 9.63867 16.3867 10.3418 16.3867ZM13.6816 25.8594L13.6816 21.1816L12.6465 21.1816L12.6465 25.8594Z" fill="black" fill-opacity="0.85"/>
  <path d="M10.3418 17.1387C9.21875 17.1387 8.29102 16.2109 8.29102 15.0879C8.29102 13.9453 9.21875 13.0078 10.3418 13.0078C11.4941 13.0078 12.4219 13.9453 12.4219 15.0879C12.4219 16.2109 11.4941 17.1387 10.3418 17.1387ZM10.3418 16.3867C11.0742 16.3867 11.6504 15.791 11.6504 15.0879C11.6504 14.3652 11.0742 13.7695 10.3418 13.7695C9.63867 13.7695 9.05273 14.3652 9.05273 15.0879C9.05273 15.791 9.63867 16.3867 10.3418 16.3867Z" fill="black" fill-opacity="0.2125"/>
 </g>
</svg>
