<?xml version="1.0" encoding="UTF-8"?>
<!--Generator: Apple Native CoreSVG 326-->
<!DOCTYPE svg
PUBLIC "-//W3C//DTD SVG 1.1//EN"
       "http://www.w3.org/Graphics/SVG/1.1/DTD/svg11.dtd">
<svg version="1.1" xmlns="http://www.w3.org/2000/svg" xmlns:xlink="http://www.w3.org/1999/xlink" viewBox="0 0 30.4297 23.9941">
 <g>
  <rect height="23.9941" opacity="0" width="30.4297" x="0" y="0"/>
  <path d="M8.91602 10.9082C11.9336 10.9082 14.375 8.42773 14.375 5.44922C14.375 2.44141 11.875 0 8.91602 0C8.37891 0 7.90039 0.0390625 7.4707 0.185547L7.4707 3.27148C7.90039 2.95898 8.38867 2.79297 8.91602 2.79297C10.3223 2.79297 11.5332 4.00391 11.5332 5.44922C11.5332 6.875 10.3516 8.04688 8.91602 8.04688C7.44141 8.04688 6.28906 6.9043 6.28906 5.44922L6.28906 0.644531C4.55078 1.63086 3.44727 3.41797 3.44727 5.44922C3.44727 8.48633 5.88867 10.9082 8.91602 10.9082ZM8.91602 6.89453C9.67773 6.89453 10.3418 6.2207 10.3418 5.44922C10.3418 4.70703 9.66797 4.02344 8.91602 4.02344C8.1543 4.02344 7.49023 4.6875 7.49023 5.44922C7.49023 6.23047 8.13477 6.89453 8.91602 6.89453ZM6.93359 9.64844L6.93359 12.6465C6.93359 13.3398 7.38281 13.6914 8.08594 13.6914L9.72656 13.6914C10.459 13.6914 10.8887 13.3398 10.8887 12.6465L10.8887 9.64844ZM8.0957 23.9941L9.72656 23.9941L9.72656 12.4219L8.0957 12.4219ZM21.1621 10.9082C24.1797 10.9082 26.6211 8.42773 26.6211 5.44922C26.6211 2.44141 24.1211 0 21.1621 0C20.625 0 20.1465 0.0390625 19.7168 0.185547L19.7168 3.27148C20.1465 2.95898 20.6445 2.79297 21.1621 2.79297C22.5781 2.79297 23.7793 4.00391 23.7793 5.44922C23.7793 6.875 22.5977 8.04688 21.1621 8.04688C19.6875 8.04688 18.5352 6.9043 18.5352 5.44922L18.5352 0.644531C16.7969 1.63086 15.6934 3.41797 15.6934 5.44922C15.6934 8.48633 18.1348 10.9082 21.1621 10.9082ZM21.1621 6.89453C21.9336 6.89453 22.5879 6.2207 22.5879 5.44922C22.5879 4.70703 21.9141 4.02344 21.1621 4.02344C20.4102 4.02344 19.7363 4.6875 19.7363 5.44922C19.7363 6.23047 20.3809 6.89453 21.1621 6.89453ZM23.1348 9.64844L19.1797 9.64844L19.1797 12.6465C19.1797 13.3398 19.6191 13.6914 20.3418 13.6914L21.9824 13.6914C22.6855 13.6914 23.1348 13.3398 23.1348 12.6465ZM21.9727 23.9941L21.9727 12.4219L20.3418 12.4219L20.3418 23.9941Z" fill="black" fill-opacity="0.85"/>
  <path d="M2.48047 5.45898C2.48047 3.32031 3.53516 1.42578 5.13672 0.263672C2.22656 0.361328 0 2.58789 0 5.45898C0 8.32031 2.19727 10.5664 5.13672 10.6641C3.53516 9.50195 2.48047 7.60742 2.48047 5.45898ZM27.5879 5.45898C27.5879 7.60742 26.543 9.50195 24.9316 10.6641C27.8418 10.5664 30.0684 8.33984 30.0684 5.45898C30.0684 2.60742 27.8711 0.361328 24.9316 0.263672C26.543 1.42578 27.5879 3.32031 27.5879 5.45898Z" fill="black" fill-opacity="0.425"/>
 </g>
</svg>
