<?xml version="1.0" encoding="UTF-8"?>
<!--Generator: Apple Native CoreSVG 326-->
<!DOCTYPE svg
PUBLIC "-//W3C//DTD SVG 1.1//EN"
       "http://www.w3.org/Graphics/SVG/1.1/DTD/svg11.dtd">
<svg version="1.1" xmlns="http://www.w3.org/2000/svg" xmlns:xlink="http://www.w3.org/1999/xlink" viewBox="0 0 20.4539 21.709">
 <g>
  <rect height="21.709" opacity="0" width="20.4539" x="0" y="0"/>
  <path d="M4.48475 15.8008C6.96522 15.8008 8.79139 13.6621 8.34217 10.9473L7.55116 6.20117C7.43397 5.47852 7.67811 5.0293 8.3617 4.7168C9.9242 3.96484 11.5355 3.52539 13.6156 3.21289C14.8656 3.02734 15.5394 2.08984 15.5394 0.820312C15.5394 0.283203 15.266 0 14.475 0C11.8773 0 9.28944 0.419922 6.65272 1.33789C2.13123 2.90039-0.564079 5.66406 0.0999839 9.27734L0.754281 12.7832C1.12537 14.834 2.87342 15.8008 4.48475 15.8008ZM4.48475 13.9746C3.31287 13.9746 2.38514 13.0566 2.38514 11.875C2.38514 10.6934 3.31287 9.77539 4.48475 9.77539C5.64686 9.77539 6.57459 10.7031 6.57459 11.875C6.57459 13.0469 5.64686 13.9746 4.48475 13.9746ZM4.48475 13.125C5.18787 13.125 5.73475 12.5781 5.73475 11.875C5.73475 11.1719 5.18787 10.6152 4.48475 10.6152C3.77186 10.6152 3.22498 11.1719 3.22498 11.875C3.22498 12.5781 3.77186 13.125 4.48475 13.125ZM4.48475 16.9629C2.59998 16.9629 0.988656 16.0059 0.148812 14.4922C0.373421 18.5254 3.9867 20.625 8.25428 20.625C9.3578 20.625 10.1586 20.4785 10.9301 20.0879C12.5121 17.334 13.6351 14.4629 14.3383 11.3477C13.5375 9.6582 11.6625 8.52539 9.00623 7.8418L9.48475 10.752C10.0512 14.1211 7.74647 16.9629 4.48475 16.9629Z" fill="black" fill-opacity="0.85"/>
  <path d="M20.0902 16.4844C20.0902 13.7109 17.9418 11.7871 15.5004 11.5039C14.7582 14.7852 13.5668 17.8809 11.8676 20.7715C12.639 21.3086 13.723 21.6797 14.9144 21.6797C18.0199 21.6797 20.0902 19.5996 20.0902 16.4844Z" fill="black" fill-opacity="0.425"/>
  <path d="M4.48475 13.9746C3.31287 13.9746 2.38514 13.0566 2.38514 11.875C2.38514 10.6934 3.31287 9.77539 4.48475 9.77539C5.64686 9.77539 6.57459 10.7031 6.57459 11.875C6.57459 13.0469 5.64686 13.9746 4.48475 13.9746ZM4.48475 13.125C5.18787 13.125 5.73475 12.5781 5.73475 11.875C5.73475 11.1719 5.18787 10.6152 4.48475 10.6152C3.77186 10.6152 3.22498 11.1719 3.22498 11.875C3.22498 12.5781 3.77186 13.125 4.48475 13.125Z" fill="black" fill-opacity="0.2125"/>
 </g>
</svg>
