<?xml version="1.0" encoding="UTF-8"?>
<!--Generator: Apple Native CoreSVG 326-->
<!DOCTYPE svg
PUBLIC "-//W3C//DTD SVG 1.1//EN"
       "http://www.w3.org/Graphics/SVG/1.1/DTD/svg11.dtd">
<svg version="1.1" xmlns="http://www.w3.org/2000/svg" xmlns:xlink="http://www.w3.org/1999/xlink" viewBox="0 0 17.2852 23.9355">
 <g>
  <rect height="23.9355" opacity="0" width="17.2852" x="0" y="0"/>
  <path d="M11.0254 0C4.98047 0 0 6.95312 0 15.4688C0 19.4824 1.07422 23.916 2.34375 23.916C3.38867 23.916 4.21875 22.5293 4.30664 21.1816C2.33398 20.6152 0.869141 18.7891 0.869141 16.6309C0.869141 15.3613 1.36719 14.209 2.26562 13.3105C2.69531 7.40234 6.50391 2.2168 10.8984 2.2168C13.5254 2.2168 14.7168 4.17969 14.7168 7.80273L4.26758 13.2617C2.73438 14.0625 2.04102 15.3027 2.04102 16.6309C2.04102 18.584 3.63281 20.1855 5.5957 20.1855C6.54297 20.1855 7.19727 19.9512 8.55469 19.209L13.8184 16.3281C16.1133 15.0586 16.9238 13.5254 16.9238 10.2832L16.9238 7.42188C16.9238 2.87109 14.9316 0 11.0254 0ZM5.51758 18.8965C4.25781 18.8965 3.24219 17.8809 3.24219 16.6309C3.24219 15.3809 4.25781 14.3457 5.51758 14.3457C6.76758 14.3457 7.79297 15.3809 7.79297 16.6309C7.79297 17.8711 6.76758 18.8965 5.51758 18.8965ZM5.51758 18.0566C6.30859 18.0566 6.95312 17.4121 6.95312 16.6309C6.95312 15.8398 6.30859 15.1953 5.51758 15.1953C4.72656 15.1953 4.08203 15.8398 4.08203 16.6309C4.08203 17.4121 4.72656 18.0566 5.51758 18.0566Z" fill="black" fill-opacity="0.85"/>
  <path d="M5.51758 18.8965C4.25781 18.8965 3.24219 17.8809 3.24219 16.6309C3.24219 15.3809 4.25781 14.3457 5.51758 14.3457C6.76758 14.3457 7.79297 15.3809 7.79297 16.6309C7.79297 17.8711 6.76758 18.8965 5.51758 18.8965ZM5.51758 18.0566C6.30859 18.0566 6.95312 17.4121 6.95312 16.6309C6.95312 15.8398 6.30859 15.1953 5.51758 15.1953C4.72656 15.1953 4.08203 15.8398 4.08203 16.6309C4.08203 17.4121 4.72656 18.0566 5.51758 18.0566Z" fill="black" fill-opacity="0.2125"/>
 </g>
</svg>
