<?xml version="1.0" encoding="UTF-8"?>
<!--Generator: Apple Native CoreSVG 326-->
<!DOCTYPE svg
PUBLIC "-//W3C//DTD SVG 1.1//EN"
       "http://www.w3.org/Graphics/SVG/1.1/DTD/svg11.dtd">
<svg version="1.1" xmlns="http://www.w3.org/2000/svg" xmlns:xlink="http://www.w3.org/1999/xlink" viewBox="0 0 39.6973 17.1191">
 <g>
  <rect height="17.1191" opacity="0" width="39.6973" x="0" y="0"/>
  <path d="M17.4316 17.0996L21.9043 17.0996C27.6465 17.0996 30.9473 17.041 33.7695 16.1035C37.334 14.8926 39.3359 12.2168 39.3359 8.55469C39.3359 4.88281 37.334 2.20703 33.7695 1.00586C30.9473 0.0585938 27.6465 0 21.9043 0L17.4316 0C11.6895 0 8.38867 0.0585938 5.55664 1.00586C2.00195 2.20703 0 4.88281 0 8.55469C0 12.2168 2.00195 14.8926 5.55664 16.1035C8.38867 17.041 11.6895 17.0996 17.4316 17.0996ZM17.4316 15.3711C11.709 15.3711 8.67188 15.3027 6.12305 14.4531C3.33008 13.5156 1.73828 11.3867 1.73828 8.55469C1.73828 5.71289 3.33008 3.58398 6.12305 2.64648C8.67188 1.79688 11.709 1.72852 17.4316 1.72852L21.9043 1.72852C27.6172 1.72852 30.6641 1.79688 33.2129 2.64648C36.0059 3.59375 37.5977 5.72266 37.5977 8.55469C37.5977 11.377 36.0059 13.5059 33.2129 14.4531C30.6641 15.3027 27.6172 15.3711 21.9043 15.3711ZM19.668 11.5723C21.0742 11.5723 22.2266 10.4395 22.2266 9.08203C22.2266 7.64648 21.0547 6.47461 19.668 6.47461C19.1602 6.47461 18.7012 6.62109 18.2715 6.93359L18.2715 4.90234L17.1289 5.40039L17.1289 9.08203C17.1289 10.4688 18.2324 11.5723 19.668 11.5723ZM19.668 10.4395C18.9062 10.4395 18.2715 9.80469 18.2715 9.08203C18.2715 8.31055 18.9258 7.67578 19.668 7.67578C20.4297 7.67578 21.0547 8.32031 21.0547 9.08203C21.0547 9.80469 20.4297 10.4395 19.668 10.4395Z" fill="black" fill-opacity="0.85"/>
 </g>
</svg>
