<?xml version="1.0" encoding="UTF-8"?>
<!--Generator: Apple Native CoreSVG 326-->
<!DOCTYPE svg
PUBLIC "-//W3C//DTD SVG 1.1//EN"
       "http://www.w3.org/Graphics/SVG/1.1/DTD/svg11.dtd">
<svg version="1.1" xmlns="http://www.w3.org/2000/svg" xmlns:xlink="http://www.w3.org/1999/xlink" viewBox="0 0 20.4492 21.709">
 <g>
  <rect height="21.709" opacity="0" width="20.4492" x="0" y="0"/>
  <path d="M15.6055 15.8008C17.2168 15.8008 18.9551 14.834 19.3359 12.7832L19.9805 9.27734C20.6543 5.66406 17.959 2.90039 13.4375 1.33789C10.8008 0.419922 8.21289 0 5.61523 0C4.82422 0 4.55078 0.283203 4.55078 0.820312C4.55078 2.08984 5.22461 3.02734 6.47461 3.21289C8.55469 3.52539 10.166 3.96484 11.7285 4.7168C12.4121 5.0293 12.6562 5.47852 12.5391 6.20117L11.748 10.9473C11.2988 13.6621 13.125 15.8008 15.6055 15.8008ZM15.6055 13.9746C14.4336 13.9746 13.5156 13.0469 13.5156 11.875C13.5156 10.7031 14.4336 9.77539 15.6055 9.77539C16.7773 9.77539 17.7051 10.6934 17.7051 11.875C17.7051 13.0566 16.7773 13.9746 15.6055 13.9746ZM15.6055 13.125C16.3184 13.125 16.8652 12.5781 16.8652 11.875C16.8652 11.1719 16.3184 10.6152 15.6055 10.6152C14.9023 10.6152 14.3555 11.1719 14.3555 11.875C14.3555 12.5781 14.9023 13.125 15.6055 13.125ZM15.6055 16.9629C12.3438 16.9629 10.0391 14.1211 10.5957 10.752L11.084 7.8418C8.42773 8.52539 6.55273 9.6582 5.75195 11.3477C6.45508 14.4629 7.57812 17.334 9.16016 20.0879C9.93164 20.4785 10.7227 20.625 11.8359 20.625C16.1035 20.625 19.7168 18.5254 19.9414 14.4922C19.1016 16.0059 17.4902 16.9629 15.6055 16.9629Z" fill="black" fill-opacity="0.85"/>
  <path d="M0 16.4844C0 19.5996 2.06055 21.6797 5.16602 21.6797C6.36719 21.6797 7.45117 21.3086 8.22266 20.7715C6.52344 17.8809 5.33203 14.7852 4.58008 11.5039C2.13867 11.7871 0 13.7109 0 16.4844Z" fill="black" fill-opacity="0.425"/>
  <path d="M15.6055 13.9746C14.4336 13.9746 13.5156 13.0469 13.5156 11.875C13.5156 10.7031 14.4336 9.77539 15.6055 9.77539C16.7773 9.77539 17.7051 10.6934 17.7051 11.875C17.7051 13.0566 16.7773 13.9746 15.6055 13.9746ZM15.6055 13.125C16.3184 13.125 16.8652 12.5781 16.8652 11.875C16.8652 11.1719 16.3184 10.6152 15.6055 10.6152C14.9023 10.6152 14.3555 11.1719 14.3555 11.875C14.3555 12.5781 14.9023 13.125 15.6055 13.125Z" fill="black" fill-opacity="0.2125"/>
 </g>
</svg>
