<?xml version="1.0" encoding="UTF-8"?>
<!--Generator: Apple Native CoreSVG 326-->
<!DOCTYPE svg
PUBLIC "-//W3C//DTD SVG 1.1//EN"
       "http://www.w3.org/Graphics/SVG/1.1/DTD/svg11.dtd">
<svg version="1.1" xmlns="http://www.w3.org/2000/svg" xmlns:xlink="http://www.w3.org/1999/xlink" viewBox="0 0 17.2852 23.9355">
 <g>
  <rect height="23.9355" opacity="0" width="17.2852" x="0" y="0"/>
  <path d="M5.89844 0C2.00195 0 0 2.87109 0 7.42188L0 10.2832C0 13.5254 0.810547 15.0586 3.11523 16.3281L8.36914 19.209C9.73633 19.9512 10.3809 20.1855 11.3379 20.1855C13.291 20.1855 14.8926 18.584 14.8926 16.6309C14.8926 15.3027 14.1895 14.0625 12.666 13.2617L2.20703 7.80273C2.20703 4.17969 3.4082 2.2168 6.02539 2.2168C10.4297 2.2168 14.2285 7.40234 14.668 13.3105C15.5664 14.209 16.0547 15.3613 16.0547 16.6309C16.0547 18.7891 14.5898 20.6152 12.6172 21.1816C12.7051 22.5293 13.5352 23.916 14.5801 23.916C15.8496 23.916 16.9238 19.4824 16.9238 15.4688C16.9238 6.95312 11.9531 0 5.89844 0ZM11.4062 18.8965C10.1562 18.8965 9.13086 17.8711 9.13086 16.6309C9.13086 15.3809 10.1562 14.3457 11.4062 14.3457C12.666 14.3457 13.6914 15.3809 13.6914 16.6309C13.6914 17.8809 12.666 18.8965 11.4062 18.8965ZM11.4062 18.0566C12.207 18.0566 12.8516 17.4121 12.8516 16.6309C12.8516 15.8398 12.207 15.1953 11.4062 15.1953C10.625 15.1953 9.9707 15.8398 9.9707 16.6309C9.9707 17.4121 10.625 18.0566 11.4062 18.0566Z" fill="black" fill-opacity="0.85"/>
  <path d="M11.4062 18.8965C10.1562 18.8965 9.13086 17.8711 9.13086 16.6309C9.13086 15.3809 10.1562 14.3457 11.4062 14.3457C12.666 14.3457 13.6914 15.3809 13.6914 16.6309C13.6914 17.8809 12.666 18.8965 11.4062 18.8965ZM11.4062 18.0566C12.207 18.0566 12.8516 17.4121 12.8516 16.6309C12.8516 15.8398 12.207 15.1953 11.4062 15.1953C10.625 15.1953 9.9707 15.8398 9.9707 16.6309C9.9707 17.4121 10.625 18.0566 11.4062 18.0566Z" fill="black" fill-opacity="0.2125"/>
 </g>
</svg>
