<?xml version="1.0" encoding="UTF-8"?>
<!--Generator: Apple Native CoreSVG 326-->
<!DOCTYPE svg
PUBLIC "-//W3C//DTD SVG 1.1//EN"
       "http://www.w3.org/Graphics/SVG/1.1/DTD/svg11.dtd">
<svg version="1.1" xmlns="http://www.w3.org/2000/svg" xmlns:xlink="http://www.w3.org/1999/xlink" viewBox="0 0 34.2188 22.7637">
 <g>
  <rect height="22.7637" opacity="0" width="34.2188" x="0" y="0"/>
  <path d="M10.498 0C4.73633 0 0 6.61133 0 14.7266C0 18.5449 1.02539 22.7637 2.23633 22.7637C3.22266 22.7637 4.02344 21.4551 4.10156 20.1562C2.22656 19.6191 0.830078 17.8809 0.830078 15.8301C0.830078 14.6191 1.29883 13.5254 2.1582 12.666C2.56836 7.05078 6.19141 2.10938 10.3809 2.10938C12.8711 2.10938 14.0137 3.97461 14.0137 7.43164L4.0625 12.627C2.60742 13.3887 1.94336 14.5703 1.94336 15.8301C1.94336 17.6855 3.45703 19.2188 5.32227 19.2188C6.23047 19.2188 6.8457 18.9941 8.14453 18.2812L13.1543 15.5371C15.3418 14.3359 16.1133 12.8809 16.1133 9.79492L16.1133 7.07031C16.1133 2.73438 14.209 0 10.498 0ZM5.25391 17.9883C4.05273 17.9883 3.08594 17.0215 3.08594 15.8301C3.08594 14.6387 4.05273 13.6621 5.25391 13.6621C6.44531 13.6621 7.42188 14.6387 7.42188 15.8301C7.42188 17.0117 6.44531 17.9883 5.25391 17.9883ZM5.25391 17.1875C6.00586 17.1875 6.62109 16.5723 6.62109 15.8301C6.62109 15.0781 6.00586 14.4629 5.25391 14.4629C4.49219 14.4629 3.88672 15.0781 3.88672 15.8301C3.88672 16.5723 4.49219 17.1875 5.25391 17.1875ZM23.3496 0C19.6387 0 17.7344 2.73438 17.7344 7.07031L17.7344 9.79492C17.7344 12.8809 18.5156 14.3359 20.7031 15.5371L25.7129 18.2812C27.002 18.9941 27.6172 19.2188 28.5254 19.2188C30.3906 19.2188 31.9141 17.6855 31.9141 15.8301C31.9141 14.5703 31.25 13.3887 29.7949 12.627L19.8438 7.43164C19.8438 3.97461 20.9766 2.10938 23.4766 2.10938C27.666 2.10938 31.2891 7.05078 31.6992 12.666C32.5586 13.5254 33.0176 14.6191 33.0176 15.8301C33.0176 17.8809 31.6309 19.6191 29.7559 20.1562C29.834 21.4551 30.625 22.7637 31.6211 22.7637C32.832 22.7637 33.8574 18.5449 33.8574 14.7266C33.8574 6.61133 29.1113 0 23.3496 0ZM28.5938 17.9883C27.4121 17.9883 26.4355 17.0117 26.4355 15.8301C26.4355 14.6387 27.4121 13.6621 28.5938 13.6621C29.7949 13.6621 30.7715 14.6387 30.7715 15.8301C30.7715 17.0215 29.7949 17.9883 28.5938 17.9883ZM28.5938 17.1875C29.3555 17.1875 29.9707 16.5723 29.9707 15.8301C29.9707 15.0781 29.3555 14.4629 28.5938 14.4629C27.8516 14.4629 27.2363 15.0781 27.2363 15.8301C27.2363 16.5723 27.8516 17.1875 28.5938 17.1875Z" fill="black" fill-opacity="0.85"/>
  <path d="M5.25391 17.9883C4.05273 17.9883 3.08594 17.0215 3.08594 15.8301C3.08594 14.6387 4.05273 13.6621 5.25391 13.6621C6.44531 13.6621 7.42188 14.6387 7.42188 15.8301C7.42188 17.0117 6.44531 17.9883 5.25391 17.9883ZM5.25391 17.1875C6.00586 17.1875 6.62109 16.5723 6.62109 15.8301C6.62109 15.0781 6.00586 14.4629 5.25391 14.4629C4.49219 14.4629 3.88672 15.0781 3.88672 15.8301C3.88672 16.5723 4.49219 17.1875 5.25391 17.1875ZM28.5938 17.9883C27.4121 17.9883 26.4355 17.0117 26.4355 15.8301C26.4355 14.6387 27.4121 13.6621 28.5938 13.6621C29.7949 13.6621 30.7715 14.6387 30.7715 15.8301C30.7715 17.0215 29.7949 17.9883 28.5938 17.9883ZM28.5938 17.1875C29.3555 17.1875 29.9707 16.5723 29.9707 15.8301C29.9707 15.0781 29.3555 14.4629 28.5938 14.4629C27.8516 14.4629 27.2363 15.0781 27.2363 15.8301C27.2363 16.5723 27.8516 17.1875 28.5938 17.1875Z" fill="black" fill-opacity="0.2125"/>
 </g>
</svg>
