<?xml version="1.0" ?><!-- Generator: Adobe Illustrator 25.0.0, SVG Export Plug-In . SVG Version: 6.00 Build 0)  --><svg xmlns="http://www.w3.org/2000/svg" xmlns:xlink="http://www.w3.org/1999/xlink" version="1.1" id="Layer_1" x="0px" y="0px" viewBox="0 0 512 512" style="enable-background:new 0 0 512 512;" xml:space="preserve">
<path d="M256,512c35,0,67.9-6.7,98.8-20.1c30.9-13.4,58.1-31.9,81.7-55.5c23.6-23.6,42.1-50.8,55.5-81.7  C505.3,323.9,512,291,512,256s-6.7-67.9-20.1-98.8c-13.4-30.9-31.9-58.1-55.5-81.7c-23.6-23.6-50.9-42.1-81.8-55.5  C323.7,6.7,290.7,0,255.7,0S187.9,6.7,157,20.1C126.1,33.5,98.9,52,75.4,75.5c-23.5,23.6-42,50.8-55.3,81.7C6.7,188.1,0,221,0,256  s6.7,67.9,20.1,98.8c13.4,30.9,31.9,58.1,55.5,81.7c23.6,23.6,50.8,42.1,81.7,55.5C188.1,505.3,221,512,256,512z M256,469.3  c-29.6,0-57.3-5.5-83.1-16.6c-25.8-11-48.4-26.3-67.9-45.8c-19.5-19.5-34.7-42.1-45.7-67.9c-11-25.8-16.4-53.5-16.4-83.1  c0-29.6,5.5-57.3,16.4-83.1c11-25.8,26.1-48.4,45.6-68s42-34.8,67.8-45.8c25.8-11,53.5-16.4,83.1-16.4c29.6,0,57.3,5.5,83.1,16.4  c25.8,11,48.4,26.2,68,45.8c19.6,19.6,34.9,42.2,45.9,68c11,25.8,16.6,53.5,16.6,83.1c0,29.6-5.5,57.3-16.4,83.1  c-11,25.8-26.2,48.4-45.7,67.9c-19.5,19.5-42.2,34.8-68,45.8C313.3,463.8,285.6,469.3,256,469.3z" class="multicolor-0:systemMintColor hierarchical-0:secondary SFSymbolsPreview00C7BE" style="fill: #00C7BE;"/>
<path d="M104.4,346.4c0,6.7,3.4,10,10.3,10h6.8c6.9,0,10.3-3.3,10.3-10v-17.6c0.7,0.2,1.8,0.3,3.5,0.3c1.7,0,3.3,0,4.8,0H372  c1.5,0,3.1,0,4.6,0c1.6,0,2.7-0.1,3.4-0.3v17.6c0,6.7,3.4,10,10.3,10h7c6.7,0,10-3.3,10-10v-71.3c0-11.4-3.1-20.1-9.2-26.2  c-6.1-6.1-14.8-9.2-26.2-9.2H139.8c-11.4,0-20.1,3.1-26.2,9.2c-6.1,6.1-9.2,14.8-9.2,26.2V346.4z M133,222.6h30.4v-16.8  c0-5.7,1.5-10,4.5-13.1c3-3,7.4-4.5,13.3-4.5h44.4c5.7,0,10,1.5,13.1,4.5c3,3,4.5,7.4,4.5,13.1v16.8h27.1v-16.8  c0-11.7,6-17.6,18.1-17.6H330c12.2,0,18.3,5.9,18.3,17.6v16.8h30.4v-34.1c0-11-2.9-19.3-8.7-24.8c-5.8-5.5-13.9-8.3-24.5-8.3H166.4  c-10.7,0-18.9,2.8-24.7,8.3c-5.8,5.5-8.7,13.8-8.7,24.8V222.6z" class="multicolor-0:systemMintColor hierarchical-1:primary SFSymbolsPreview00C7BE" style="fill: #00C7BE;"/>
</svg>