<?xml version="1.0" ?><!-- Generator: Adobe Illustrator 25.0.0, SVG Export Plug-In . SVG Version: 6.00 Build 0)  --><svg xmlns="http://www.w3.org/2000/svg" xmlns:xlink="http://www.w3.org/1999/xlink" version="1.1" id="Layer_1" x="0px" y="0px" viewBox="0 0 512 512" style="enable-background:new 0 0 512 512;" xml:space="preserve">
<path d="M17.2,426.4h12.1c10.3,0,17.2-6.7,17.2-17.2v-29.9c2.2,0.6,8.9,1,13.7,1h391.6c4.8,0,11.5-0.4,13.7-1v29.9  c0,10.5,6.9,17.2,17.2,17.2h12.1c10.5,0,17.2-6.7,17.2-17.2V270.9c0-36.2-18.4-56.8-52.5-59.2v-69.5c0-37.4-20-56.6-56.4-56.6H108.9  c-36.2,0-56.4,19.2-56.4,56.6v69.5C18.4,214.1,0,234.7,0,270.9v138.4C0,419.8,6.7,426.4,17.2,426.4z M105.7,174.1  c0-18.8,10.5-29.1,29.7-29.1h70.9c19,0,29.5,10.3,29.5,29.1v37.4H105.7V174.1z M276.2,174.1c0-18.8,10.5-29.1,29.5-29.1h70.9  c19.2,0,29.7,10.3,29.7,29.1v37.4H276.2V174.1z M40.4,350.9c-4.2,0-6.9-3-6.9-7.9v-76.8c0-15.4,10.1-25.3,25.9-25.3h393.4  c15.6,0,25.7,9.9,25.7,25.3V343c0,4.8-2.6,7.9-6.9,7.9H40.4z"/>
</svg>