<?xml version="1.0" ?><!-- Generator: Adobe Illustrator 25.0.0, SVG Export Plug-In . SVG Version: 6.00 Build 0)  --><svg xmlns="http://www.w3.org/2000/svg" xmlns:xlink="http://www.w3.org/1999/xlink" version="1.1" id="Layer_1" x="0px" y="0px" viewBox="0 0 512 512" style="enable-background:new 0 0 512 512;" xml:space="preserve">
<path d="M234.1,512c16.4,0,31-3.9,43.8-11.6c12.7-7.8,22.8-18,30.4-30.8c7.5-12.8,11.6-26.7,12.2-41.8h98.2c11,0,19.6-2.6,25.8-7.7  c6.2-5.1,9.3-11.9,9.3-20.5c0-7.8-2.2-15.3-6.7-22.6c-4.5-7.3-10.1-14.4-16.9-21.4c-6.7-7-13.5-14-20.1-20.9  c-7.1-7.3-12.2-17.3-15.2-30c-3-12.7-4.8-25.1-5.2-37c0-2.3,0-4.5-0.1-6.6c-0.1-2.1-0.1-4.2-0.1-6.4c-6.7,1.2-13,1.6-19.1,1.2  c-6.1-0.5-12.1-2.6-18.2-6.3c0.2,3.4,0.3,6.9,0.3,10.4c0.1,3.5,0.2,7.1,0.3,10.8c0.3,14.3,1.5,26.7,3.6,37.4  c2.1,10.6,5,19.8,8.7,27.6c3.7,7.8,8.1,14.5,13,20.2c4.2,4.5,8.3,8.9,12.5,13.3c4.1,4.3,7.8,8.3,10.9,12c3.2,3.6,5.5,6.6,6.9,8.7  v2.8H59.8v-2.8c1.4-2.2,3.7-5.1,7-8.7c3.3-3.6,6.9-7.6,11.1-12c4.1-4.3,8.2-8.8,12.2-13.3c4.2-4.7,7.8-10,10.9-16.2  c3.1-6.1,5.7-13.1,7.9-20.8c2.2-7.8,3.9-16.4,5.1-25.8c1.2-9.5,2.2-19.9,2.8-31.2c0.6-33.8,4.1-60.7,10.5-80.5  c6.4-19.9,14.9-34.6,25.5-44.3c10.6-9.7,22.6-16.4,36-20.1c2.9-0.6,5.2-1.7,6.9-3.4c1.6-1.6,2.4-3.9,2.4-6.9  c0.5-9.5,2.9-17.4,7.2-23.9c4.3-6.4,9.6-10.7,15.8-12.7c2.6-5.6,6.2-10.5,10.6-14.8c4.4-4.3,9.5-7.6,15.2-10.1  c5.7-2.5,11.9-3.7,18.6-3.7c2,0,3.7,0.2,5.1,0.5c0-0.2,0-0.3,0-0.3c0-0.1,0-0.2,0-0.3c-5.1-2.9-10.8-5.4-17-7.2  c-6.2-1.9-12.7-2.8-19.5-2.8c-17.1,0-31.5,5.3-43.4,15.8c-11.9,10.6-19.7,23.4-23.6,38.6c-20.6,7.4-37.3,18.9-49.9,34.4  c-12.6,15.5-21.9,34.9-27.8,58.1s-9.1,50.1-9.5,80.6c-0.6,9-1.6,18.3-3,27.9c-1.4,9.6-3.5,18.7-6.4,27.2c-2.9,8.5-6.9,15.4-12,20.7  c-6.7,7-13.4,14-20.1,20.9c-6.7,7-12.4,14.1-16.9,21.4c-4.5,7.3-6.7,14.8-6.7,22.6c0,8.5,3.1,15.4,9.3,20.5  c6.2,5.1,14.8,7.7,25.8,7.7H148c0.6,15,4.7,28.9,12.2,41.7c7.5,12.7,17.6,23,30.4,30.8C203.3,508.1,217.8,512,234.1,512z   M234.1,479.2c-14,0-25.6-4.6-34.8-13.8c-9.2-9.2-14.2-21.8-15-37.6h99.8c-0.9,15.8-6,28.4-15.1,37.6  C259.9,474.6,248.2,479.2,234.1,479.2z" class="hierarchical-0:secondary SFSymbolsPreview4D4D4D" style="fill: #4D4D4D;"/>
<path d="M374.9,219.9c3.7,0,6.9-1.2,9.4-3.7c2.6-2.5,3.8-5.6,3.8-9.3V13.5c0-3.9-1.3-7.1-3.8-9.7c-2.6-2.6-5.7-3.8-9.4-3.8  c-3.6,0-6.6,1.3-9.2,3.8c-2.6,2.6-3.8,5.8-3.8,9.7v193.4c0,3.7,1.2,6.8,3.7,9.3C368.1,218.7,371.2,219.9,374.9,219.9z M429.4,196.9  c3.7,0,6.9-1.3,9.4-3.8c2.6-2.6,3.8-5.7,3.8-9.4V36.1c0-3.6-1.3-6.6-3.8-9.1c-2.6-2.5-5.7-3.7-9.4-3.7c-3.6,0-6.6,1.2-9.2,3.7  c-2.6,2.5-3.8,5.5-3.8,9.1v147.5c0,3.7,1.3,6.9,3.8,9.4C422.7,195.6,425.8,196.9,429.4,196.9z M320.5,179.7c3.7,0,6.8-1.2,9.3-3.7  c2.5-2.5,3.7-5.7,3.7-9.5V53.3c0-3.6-1.2-6.6-3.7-9.2c-2.5-2.6-5.6-3.8-9.3-3.8s-6.9,1.3-9.4,3.8c-2.6,2.6-3.8,5.6-3.8,9.2v113.1  c0,3.9,1.3,7.1,3.8,9.5C313.6,178.4,316.7,179.7,320.5,179.7z M484.1,152.9c3.9,0,7.1-1.2,9.5-3.7c2.5-2.5,3.7-5.6,3.7-9.3V80.1  c0-3.7-1.2-6.8-3.7-9.3c-2.5-2.5-5.7-3.7-9.5-3.7c-3.6,0-6.6,1.3-9.2,3.8c-2.6,2.6-3.8,5.6-3.8,9.2v59.8c0,3.6,1.3,6.6,3.8,9.2  C477.4,151.6,480.5,152.9,484.1,152.9z M265.5,140.6c3.9,0,7.1-1.2,9.7-3.7c2.6-2.5,3.8-5.5,3.8-9.1V92.4c0-3.7-1.3-6.9-3.8-9.4  c-2.6-2.6-5.8-3.8-9.7-3.8c-3.6,0-6.6,1.3-9.1,3.8c-2.5,2.6-3.7,5.7-3.7,9.4v35.4c0,3.6,1.2,6.6,3.7,9.1  C258.9,139.3,262,140.6,265.5,140.6z" class="hierarchical-1:primary SFSymbolsPreview212121" style="fill: #212121;"/>
</svg>