<?xml version="1.0" ?><!-- Generator: Adobe Illustrator 25.0.0, SVG Export Plug-In . SVG Version: 6.00 Build 0)  --><svg xmlns="http://www.w3.org/2000/svg" xmlns:xlink="http://www.w3.org/1999/xlink" version="1.1" id="Layer_1" x="0px" y="0px" viewBox="0 0 512 512" style="enable-background:new 0 0 512 512;" xml:space="preserve">
<path d="M256,512c140,0,256-116.2,256-256C512,116,395.8,0,255.7,0C116,0,0,116,0,256C0,395.8,116.2,512,256,512z M256,469.3  c-118.5,0-213.1-94.9-213.1-213.3S137.3,42.7,255.7,42.7S469.1,137.5,469.3,256S374.5,469.3,256,469.3z M145.6,346.6h221.1  c12.8,0,20.3-6.5,20.3-16.6c0-13.8-13.8-26.1-26.1-38.7c-9.5-9.8-11.3-29.9-12.3-45.7c-1.3-53.2-15.6-89.9-52.2-103.4  c-5.5-18.1-20.1-32.4-40.4-32.4s-34.6,14.3-40.4,32.4c-36.6,13.6-50.9,50.2-52,103.4c-1.3,15.8-3.3,35.6-12.5,45.7  C139.3,304.2,125,316.2,125,330C125,340.1,132.5,346.6,145.6,346.6z M256,404.8c23.6,0,40.9-16.8,42.4-37.1h-84.8  C215.3,388,232.4,404.8,256,404.8z"/>
</svg>