<?xml version="1.0" ?><!-- Generator: Adobe Illustrator 25.0.0, SVG Export Plug-In . SVG Version: 6.00 Build 0)  --><svg xmlns="http://www.w3.org/2000/svg" xmlns:xlink="http://www.w3.org/1999/xlink" version="1.1" id="Layer_1" x="0px" y="0px" viewBox="0 0 512 512" style="enable-background:new 0 0 512 512;" xml:space="preserve">
<path d="M87.3,512h337.3c29.1,0,50.9-7.2,65.5-21.6c14.6-14.4,21.8-35.9,21.8-64.7V86.2c0-28.7-7.3-50.3-21.8-64.7  C475.6,7.2,453.8,0,424.7,0H87.3C58.2,0,36.4,7.2,21.8,21.6C7.3,35.9,0,57.5,0,86.2v339.6c0,28.7,7.3,50.3,21.8,64.7  C36.4,504.8,58.2,512,87.3,512z" class="multicolor-0:systemRedColor hierarchical-0:tertiary SFSymbolsPreviewFF3B30" style="fill: #FF3B30;"/>
<path d="M130.2,359c-7.2,0-12.9-1.8-17.1-5.3c-4.2-3.5-6.3-8.1-6.3-13.6c0-8.2,3.2-15.8,9.7-22.9c6.5-7.1,13.2-14.3,20-21.6  c3.5-3.7,6.2-8.5,8.1-14.3c1.9-5.8,3.2-12,4-18.5c0.8-6.5,1.4-12.7,1.8-18.6c0.7-30.8,5.7-56.4,14.7-76.8s24.1-34.5,45.1-42.3  c3.3-10.2,8.9-18.9,16.8-26.1c7.9-7.2,17.7-10.8,29.3-10.8c11.7,0,21.5,3.6,29.3,10.8c7.9,7.2,13.5,15.9,16.8,26.1  c21,7.8,36,21.9,45.1,42.3c9.1,20.4,13.9,46,14.5,76.8c0.6,5.9,1.2,12.2,1.9,18.8c0.7,6.6,2,12.7,3.9,18.5  c1.9,5.7,4.6,10.5,8.3,14.2c7,7,13.8,14.2,20.2,21.4c6.4,7.2,9.6,14.9,9.6,23.1c0,5.6-2.1,10.1-6.3,13.6c-4.2,3.5-10,5.3-17.4,5.3  H130.2z M256.4,425.5c-13.5,0-24.8-4.2-33.7-12.7c-8.9-8.4-13.8-18.4-14.7-29.9h96.8c-0.9,11.5-5.8,21.5-14.7,29.9  C281.2,421.3,270,425.5,256.4,425.5z" class="multicolor-1:white hierarchical-1:primary SFSymbolsPreviewFFFFFF" style="fill: #FFFFFF;"/>
</svg>