<?xml version="1.0" ?><!-- Generator: Adobe Illustrator 25.0.0, SVG Export Plug-In . SVG Version: 6.00 Build 0)  --><svg xmlns="http://www.w3.org/2000/svg" xmlns:xlink="http://www.w3.org/1999/xlink" version="1.1" id="Layer_1" x="0px" y="0px" viewBox="0 0 512 512" style="enable-background:new 0 0 512 512;" xml:space="preserve">
<path d="M248.4,0c-36,0-61.1,25.3-70.3,56.9c-12.9,4.4-24.1,10.5-33.6,18.2l327.1,327.6c4.1-4.6,6.1-10.5,6.1-17.5  c0-24.3-24.6-46.2-45.7-67.9c-16.1-16.8-20.4-51.3-22.1-79.3c-1.9-93.4-26.5-157.9-91.2-181.2C309.5,25.3,284.2,0,248.4,0z   M461.3,486c7.3,7.3,19.2,7.3,26.5,0c7.1-7.5,7.3-19.2,0-26.5L50.9,22.9c-7.3-7.3-19.2-7.3-26.8,0c-7.1,7.3-7.1,19.5,0,26.5  L461.3,486z M55.6,414.7h293.6L95.5,160.5c-5.4,23.1-8,48.6-8.5,77.6c-1.9,28-6.1,62.5-22.1,79.3c-21.2,21.6-46,43.5-46,67.9  C18.8,402.8,32.7,414.7,55.6,414.7z M248.4,512c41.1,0,71.3-30.2,74.7-64.2H173.8C176.9,481.8,207.1,512,248.4,512z"/>
</svg>