<?xml version="1.0" encoding="UTF-8"?>
<!--Generator: Apple Native CoreSVG 326-->
<!DOCTYPE svg
PUBLIC "-//W3C//DTD SVG 1.1//EN"
       "http://www.w3.org/Graphics/SVG/1.1/DTD/svg11.dtd">
<svg version="1.1" xmlns="http://www.w3.org/2000/svg" xmlns:xlink="http://www.w3.org/1999/xlink" viewBox="0 0 41.1133 25.2051">
 <g>
  <rect height="25.2051" opacity="0" width="41.1133" x="0" y="0"/>
  <path d="M7.92969 25.2051C12.3047 25.2051 15.8496 21.6504 15.8496 17.2852C15.8496 12.9004 12.3145 9.35547 7.92969 9.35547C3.55469 9.35547 0 12.9004 0 17.2852C0 21.6602 3.55469 25.2051 7.92969 25.2051ZM7.92969 23.5156C4.47266 23.5156 1.69922 20.7422 1.69922 17.2852C1.69922 13.8379 4.48242 11.0547 7.92969 11.0547C11.377 11.0547 14.1602 13.8477 14.1602 17.2852C14.1602 20.7324 11.377 23.5156 7.92969 23.5156ZM32.8418 25.2051C37.2168 25.2051 40.752 21.6602 40.752 17.2852C40.752 12.9102 37.2168 9.36523 32.8418 9.36523C28.457 9.36523 24.9023 12.9102 24.9023 17.2852C24.9023 21.6699 28.457 25.2051 32.8418 25.2051ZM32.8418 23.5156C29.3848 23.5156 26.6016 20.752 26.6016 17.2852C26.6016 13.8477 29.3848 11.0547 32.8418 11.0547C36.2793 11.0547 39.0625 13.8574 39.0625 17.2852C39.0625 20.7324 36.2793 23.5156 32.8418 23.5156ZM21.5625 0.839844C21.5625 1.29883 21.9336 1.66992 22.4023 1.66992L25.7617 1.66992C25.8691 1.66992 25.9082 1.69922 25.9375 1.76758L31.9727 17.4609L33.5449 16.9238L27.2754 0.761719C27.0703 0.224609 26.709 0 26.0449 0L22.4023 0C21.9336 0 21.5625 0.371094 21.5625 0.839844ZM29.2773 8.38867L29.2773 6.82617L15.918 8.81836L15.918 10.3809ZM18.9648 18.2812L18.9648 16.7188L8.08594 16.7188L8.08594 18.2812ZM20.4199 19.834C21.8066 19.834 22.9297 18.7207 22.9297 17.3438C22.9297 15.957 21.8066 14.834 20.4199 14.834C19.0234 14.834 17.9199 15.9473 17.9102 17.3438C17.8906 18.7109 19.0137 19.834 20.4199 19.834ZM20.4297 18.3398C19.8633 18.3398 19.4141 17.9004 19.4141 17.3535C19.4141 16.7871 19.8633 16.3281 20.4297 16.3281C20.9863 16.3281 21.4355 16.7773 21.4355 17.3535C21.4355 17.9004 20.9863 18.3398 20.4297 18.3398ZM7.92969 18.7793C8.75977 18.7793 9.43359 18.1055 9.43359 17.2852C9.43359 16.4453 8.76953 15.7812 7.92969 15.7812C7.08984 15.7812 6.44531 16.4355 6.43555 17.2852C6.42578 18.1055 7.08008 18.7793 7.92969 18.7793ZM32.8418 18.7891C33.6719 18.7891 34.3359 18.1152 34.3359 17.2852C34.3359 16.4551 33.6816 15.791 32.8418 15.791C32.002 15.791 31.3477 16.4453 31.3379 17.2852C31.3281 18.1152 31.9922 18.7891 32.8418 18.7891ZM20.2246 15.3906L21.6016 16.1914L29.3359 7.77344L27.4316 7.63672ZM7.28516 16.6895L8.66211 17.4805L16.2305 9.82422L14.9316 8.84766ZM18.7598 16.416L20.1367 15.4297L14.4336 4.79492L12.8125 5.14648ZM10.5469 4.60938C10.5469 5.07812 10.918 5.44922 11.3867 5.44922L16.1621 5.44922C16.6309 5.44922 17.002 5.07812 17.002 4.60938C17.002 4.16016 16.6211 3.7793 16.1621 3.7793L11.3867 3.7793C10.9277 3.7793 10.5469 4.16016 10.5469 4.60938Z" fill="black" fill-opacity="0.85"/>
 </g>
</svg>
