<?xml version="1.0" ?><!-- Generator: Adobe Illustrator 25.0.0, SVG Export Plug-In . SVG Version: 6.00 Build 0)  --><svg xmlns="http://www.w3.org/2000/svg" xmlns:xlink="http://www.w3.org/1999/xlink" version="1.1" id="Layer_1" x="0px" y="0px" viewBox="0 0 512 512" style="enable-background:new 0 0 512 512;" xml:space="preserve">
<path d="M256,512c140,0,256-116,256-256C512,116.2,395.8,0,255.7,0C116,0,0,116.2,0,256C0,396,116.2,512,256,512z M68,287.4  c0-40.4,32.6-72.5,72.8-72.5c14.8,0,28.4,4.3,39.9,11.8l18.6-21.6l-18.1-32.9h-14.8c-5.8,0-10.5-4.5-10.5-10  c0-6.3,4.8-10.8,10.5-10.8h48.7c6,0,11,4.8,11,10.8c0,5.5-5.3,10-11,10h-10.3l15.3,27.6l98.6-12.8l-15.8-39.2h-28.9  c-6.3,0-10.8-5-10.8-10.8c0-5.8,4.8-10.3,10.8-10.3h31.9c7.5,0,11.3,2.3,14.1,8.5l33.4,81.8c5.5-1.8,11.8-2.3,17.8-2.3  c40.2,0,72.8,32.1,72.8,72.5c0,40.2-32.6,72.8-72.8,72.8s-72.8-32.6-72.8-72.8c0-26.9,14.6-49.9,35.9-62.5l-6.8-16.3L262,285.1  c-5.8,6.3-11,8.8-21.6,8.8h-27.1c-3.5,37.1-34.6,66.3-72.5,66.3C100.6,360.2,68,327.5,68,287.4z M230.9,219.4l24.1,42.9l47.7-55.2  L230.9,219.4z M197,240.9c7.5,9.3,13.1,20.6,15.3,32.9h25.6l-26.9-48.4L197,240.9z M89.3,286.9c0,29.1,23.1,51.7,51.7,51.7  c28.4,0,51.5-22.6,51.5-51.7c0-11.3-3.8-21.8-9.8-30.4l-24.8,27.6c0,0.3,0.3,1.8,0.3,3c0,10-7.5,17.6-17.1,17.6  c-10,0-17.6-7.5-17.6-17.6c0-9.5,7.8-17.8,19.3-17.1l23.8-27.6c-7.5-4.3-16.3-7-25.6-7C112.4,235.4,89.3,258.5,89.3,286.9z   M319.7,286.9c0,29.1,23.1,51.7,52,51.7c28.4,0,51.5-22.6,51.5-51.7c0-28.4-23.1-51.5-51.5-51.5c-3.8,0-7,0.5-10.3,1.3l13.6,33.4  c7.8,1.8,13.8,8.5,13.8,17.1c0,10-7.5,17.6-17.1,17.6c-10,0-17.6-7.5-17.6-17.6c0-2.8,0.8-5.5,2-7.8l-14.1-34.6  C328.8,254,319.7,269.3,319.7,286.9z"/>
</svg>