<?xml version="1.0" ?><!-- Generator: Adobe Illustrator 25.0.0, SVG Export Plug-In . SVG Version: 6.00 Build 0)  --><svg xmlns="http://www.w3.org/2000/svg" xmlns:xlink="http://www.w3.org/1999/xlink" version="1.1" id="Layer_1" x="0px" y="0px" viewBox="0 0 512 512" style="enable-background:new 0 0 512 512;" xml:space="preserve">
<path d="M256,512c140,0,256-116.2,256-256C512,116,395.8,0,255.7,0C116,0,0,116,0,256C0,395.8,116.2,512,256,512z M256,469.3  c-118.5,0-213.1-94.9-213.1-213.3S137.3,42.7,255.7,42.7S469.1,137.5,469.3,256S374.5,469.3,256,469.3z M144.3,356.4  c36.6,0,67-28.1,70.3-64h26.4c10.3,0,15.3-2.5,20.8-8.5l63.5-74.3l6.5,15.8c-20.8,12.3-34.6,34.9-34.6,60.5  c0,38.9,31.6,70.5,70.5,70.5c39.2,0,70.5-31.6,70.5-70.5c0-38.9-31.4-70.5-70.5-70.5c-6,0-11.8,0.8-17.6,2.3L318,138.5  c-2.8-6.3-6.3-8.3-13.6-8.3h-30.9c-5.8,0-10.5,4.5-10.5,10c0,5.5,4.5,10,10.5,10h27.9l15.6,38.4L221.1,201l-14.8-26.6h10  c5.5,0,10.5-4.5,10.5-10c0-5.8-4.8-10.3-10.5-10.3h-47.2c-5.8,0-10.3,4.5-10.3,10.3c0,5.5,4.5,10,10.3,10h14.3l17.8,31.9L183,226.9  c-11-7.3-24.3-11.5-38.7-11.5c-38.9,0-70.5,31.6-70.5,70.5C73.8,324.8,105.4,356.4,144.3,356.4z M231.7,220.1l69.8-12L255,261.5  L231.7,220.1z M238.4,273.1h-24.8c-2.3-12-7.5-23.1-15.1-32.1l13.6-15.1L238.4,273.1z M144.6,335.8c-27.9,0-50.2-22.3-50.2-50.2  c0-27.6,22.3-49.9,50.2-49.9c9,0,17.6,2.5,25.1,6.8l-23.6,26.6c-0.5,0-1,0-1.5,0c-9.8,0-17.1,7.5-17.1,16.8  c0,9.5,7.3,16.8,17.1,16.8c9.3,0,16.6-7.3,16.6-16.8c0-1.3,0-2.3-0.3-3.3L185,256c6,8.3,9.5,18.6,9.5,29.6  C194.5,313.5,172.2,335.8,144.6,335.8z M368.2,335.8c-28.1,0-50.4-22.3-50.4-50.2c0-17.1,8.5-32.1,21.8-41.2l13.6,33.4  c-1.3,2.5-2,5-2,8c0,9.5,7.3,16.8,17.1,16.8c9.3,0,16.6-7.3,16.6-16.8c0-8.3-5.8-15.1-13.6-16.6l-13.3-32.6c3.3-0.8,6.8-1,10.3-1  c27.6,0,49.9,22.3,49.9,49.9C418.1,313.5,395.8,335.8,368.2,335.8z"/>
</svg>