<?xml version="1.0" ?><!-- Generator: Adobe Illustrator 25.0.0, SVG Export Plug-In . SVG Version: 6.00 Build 0)  --><svg xmlns="http://www.w3.org/2000/svg" xmlns:xlink="http://www.w3.org/1999/xlink" version="1.1" id="Layer_1" x="0px" y="0px" viewBox="0 0 512 512" style="enable-background:new 0 0 512 512;" xml:space="preserve">
<path d="M100.6,414.6c50.5,0,92.4-37.4,99.5-86.1h25.4c5.2,11.4,16.7,19.3,30.3,19.3c18.3,0,33.2-14.8,33.2-33  c0-8.8-3.5-16.9-9.2-22.9l77.5-83.1l6.5,16.7c-31.6,17.1-53.1,50.2-53.1,88.6c0,55.6,45.2,100.4,100.8,100.4  c55.4,0,100.4-45,100.4-100.4c0-55.6-45-100.4-100.4-100.4c-8.7,0-17.2,1.1-25.3,3.2l-42.3-109c-2.8-7.6-8.1-10.6-17.2-10.6h-45.2  c-6.8,0-12.3,5.5-12.3,12.3c0,6.8,5.5,12.2,12.3,12.2h40.9c1.3,0,1.6,0.3,2.1,1.1l24,62.7l-138.8,20.5l-20.5-39h16.4  c6.8,0,12.3-5.4,12.3-12.2c0-6.6-5.7-12.3-12.3-12.3h-62.1c-6.6,0-12.3,5.7-12.3,12.3c0,6.8,5.5,12.2,12.3,12.2h19.3l21.8,42.3  l-23.5,24.3c-16.7-12.6-37.7-20.1-60.5-20.1C45,213.8,0,258.6,0,314.2C0,369.8,45,414.6,100.6,414.6z M255.8,281.8  c-2.1,0-3.9,0.2-5.8,0.5l-29.1-55.1L324.7,212l-66.5,69.8C257.4,281.8,256.6,281.8,255.8,281.8z M200.7,305.8  c-1.7-21.2-9.9-40.4-22.7-55.9l18-18.5l33,63.8c-2.2,3.2-3.9,6.8-5.1,10.6H200.7z M100.6,389.8c-42,0-75.6-33.6-75.6-75.6  c0-41.9,33.8-75.6,75.6-75.6c16,0,30.8,4.9,43.1,13.4l-40.3,41.7c-0.9,0-1.9-0.2-2.8-0.2c-11.5,0-20.4,9-20.5,20.7  c-0.2,11.4,8.8,20.5,20.5,20.5c5.8,0,10.9-2.4,14.7-6.2H175C168.2,363.6,137.6,389.8,100.6,389.8z M411.6,389.8  c-42,0-75.8-33.6-75.8-75.6c0-27.6,14.8-52,37.1-65.1l21,54.5c-1.9,3-3,6.6-3,10.6c-0.2,11.4,9,20.7,20.7,20.7  c11.5,0,20.5-9.3,20.5-20.7c0-9.9-6.6-18.2-16-20.1l-20.8-53.9c5.2-1.1,10.7-1.7,16.3-1.7c41.7,0,75.6,34.1,75.6,75.6  C487.2,356,453.3,389.8,411.6,389.8z M123.2,305.8l37.3-38.1c8.4,10.7,13.9,23.8,15.5,38.1H123.2z M256,326.2  c-6.5,0-11.5-5.2-11.5-11.2c0-6.3,5.1-11.5,11.5-11.5c6.3,0,11.2,5.1,11.2,11.5C267.2,321.1,262.3,326.2,256,326.2z"/>
</svg>