<?xml version="1.0" encoding="UTF-8"?>
<!--Generator: Apple Native CoreSVG 326-->
<!DOCTYPE svg
PUBLIC "-//W3C//DTD SVG 1.1//EN"
       "http://www.w3.org/Graphics/SVG/1.1/DTD/svg11.dtd">
<svg version="1.1" xmlns="http://www.w3.org/2000/svg" xmlns:xlink="http://www.w3.org/1999/xlink" viewBox="0 0 25.8008 25.459">
 <g>
  <rect height="25.459" opacity="0" width="25.8008" x="0" y="0"/>
  <path d="M12.7148 25.4395C19.7363 25.4395 25.4395 19.7461 25.4395 12.7246C25.4395 5.70312 19.7363 0 12.7148 0C5.69336 0 0 5.70312 0 12.7246C0 19.7461 5.69336 25.4395 12.7148 25.4395ZM12.7148 23.623C6.68945 23.623 1.81641 18.75 1.81641 12.7246C1.81641 6.69922 6.68945 1.82617 12.7148 1.82617C18.7402 1.82617 23.6133 6.69922 23.6133 12.7246C23.6133 18.75 18.7402 23.623 12.7148 23.623Z" fill="black" fill-opacity="0.85"/>
  <path d="M7.10938 17.7344C9.0625 17.7344 10.6348 16.1621 10.6348 14.209C10.6348 12.2559 9.0625 10.6836 7.10938 10.6836C5.15625 10.6836 3.58398 12.2559 3.58398 14.209C3.58398 16.1621 5.15625 17.7344 7.10938 17.7344ZM7.12891 16.7871C5.68359 16.7871 4.53125 15.6348 4.53125 14.1895C4.53125 12.7539 5.67383 11.6113 7.12891 11.6113C8.55469 11.6113 9.70703 12.7637 9.70703 14.1895C9.70703 15.6348 8.55469 16.7871 7.12891 16.7871ZM7.10938 15.0293C7.56836 15.0293 7.92969 14.668 7.92969 14.209C7.92969 13.75 7.56836 13.3887 7.10938 13.3887C6.65039 13.3887 6.28906 13.75 6.28906 14.209C6.28906 14.668 6.65039 15.0293 7.10938 15.0293ZM18.3008 17.7344C20.2539 17.7344 21.8262 16.1621 21.8262 14.209C21.8262 12.2559 20.2539 10.6836 18.3008 10.6836C16.3477 10.6836 14.7656 12.2559 14.7656 14.209C14.7656 16.1621 16.3477 17.7344 18.3008 17.7344ZM18.3203 16.7871C16.875 16.7871 15.7227 15.6348 15.7227 14.1895C15.7227 12.7539 16.8652 11.6113 18.3203 11.6113C19.7461 11.6113 20.8984 12.7637 20.8984 14.1895C20.8984 15.6348 19.7461 16.7871 18.3203 16.7871ZM18.3203 15.0293C18.7695 15.0293 19.1309 14.668 19.1309 14.209C19.1309 13.75 18.7695 13.3887 18.3203 13.3887C17.8516 13.3887 17.4902 13.75 17.4902 14.209C17.4902 14.668 17.8516 15.0293 18.3203 15.0293ZM8.29102 8.59375L10.6445 8.59375C10.8984 8.59375 11.123 8.37891 11.123 8.13477C11.123 7.87109 10.918 7.65625 10.6445 7.65625L8.29102 7.65625C8.02734 7.65625 7.82227 7.86133 7.82227 8.13477C7.82227 8.37891 8.02734 8.59375 8.29102 8.59375ZM6.97266 13.6914L7.72461 14.2383L10.498 11.1328L11.9043 13.6426L10.293 13.6426L10.293 14.541L11.9727 14.541C12.4805 14.541 12.7246 14.4336 12.998 14.1211L16.2305 10.3613L17.7344 14.1211L18.5938 13.7402L15.791 6.80664C15.6641 6.51367 15.4883 6.40625 15.1562 6.40625L13.584 6.40625C13.3105 6.40625 13.0957 6.62109 13.0957 6.875C13.0957 7.12891 13.3008 7.34375 13.584 7.34375L15.0195 7.34375L15.8301 9.36523L10.9082 9.98047L9.95117 8.26172L8.98438 8.45703L9.98047 10.2246ZM11.3965 10.8594L15.1465 10.2637L12.666 13.125Z" fill="black" fill-opacity="0.85"/>
 </g>
</svg>
