<?xml version="1.0" ?><!-- Generator: Adobe Illustrator 25.0.0, SVG Export Plug-In . SVG Version: 6.00 Build 0)  --><svg xmlns="http://www.w3.org/2000/svg" xmlns:xlink="http://www.w3.org/1999/xlink" version="1.1" id="Layer_1" x="0px" y="0px" viewBox="0 0 512 512" style="enable-background:new 0 0 512 512;" xml:space="preserve">
<path d="M0,348.5c0,56,50.1,97.9,111.5,97.9c61.2,0,111.1-41.9,111.1-97.9v-51.3c9.8-3.8,21.7-6,33.5-6c13,0,24.3,1.4,33.3,4.6v52.7  c0,56,49.9,97.9,111.1,97.9c61.2,0,111.5-41.9,111.5-97.9c0-14.6-2.2-28.3-10.4-47.3L418.3,107C406.9,80.9,383,65.7,353,65.7  c-38.5,0-63.6,24.5-63.6,61.2v19.5c-10-2.6-21.1-4-33.3-4c-11.6,0-22.9,1.8-33.5,5.2v-20.7c0-36.7-25.1-61.2-63.6-61.2  c-30.1,0-54.1,15.2-65.4,41.3L10.2,301.1C2,320.2,0,333.8,0,348.5z M222.6,235.9v-27.3c10.6-3.4,21.9-5,33.5-5  c12.2,0,23.3,1.2,33.3,3.8v26.9c-9-3-20.1-4.4-33.3-4.4C244.3,229.9,232.4,232.1,222.6,235.9z M31.5,348.5c0-40.3,34.7-67.8,80-67.8  c45.1,0,81,27.5,81,67.8c0,40.3-35.9,67.8-81,67.8C66.2,416.2,31.5,388.8,31.5,348.5z M319.5,348.5c0-40.3,35.7-67.8,81-67.8  c45.1,0,79.8,27.5,79.8,67.8c0,40.3-34.7,67.8-79.8,67.8C355.2,416.2,319.5,388.8,319.5,348.5z"/>
</svg>