<?xml version="1.0" ?><!-- Generator: Adobe Illustrator 25.0.0, SVG Export Plug-In . SVG Version: 6.00 Build 0)  --><svg xmlns="http://www.w3.org/2000/svg" xmlns:xlink="http://www.w3.org/1999/xlink" version="1.1" id="Layer_1" x="0px" y="0px" viewBox="0 0 512 512" style="enable-background:new 0 0 512 512;" xml:space="preserve">
<path d="M0,348.5c0,56,50.1,97.9,111.5,97.9c61.2,0,111.1-41.9,111.1-97.9v-51.7c9.8-3.6,21.5-5.6,33.5-5.6  c13.6,0,24.3,1.2,33.3,4.2v53.1c0,56,49.9,97.9,111.1,97.9c61.2,0,111.5-41.9,111.5-97.9c0-14.6-2.2-28.3-10.4-47.3L418.3,107  C406.9,80.9,383,65.7,353,65.7c-38.5,0-63.6,24.5-63.6,61.2v19.1c-10-2.4-20.9-3.6-33.3-3.6c-11.6,0-22.9,1.8-33.5,4.6v-20.1  c0-36.7-25.1-61.2-63.6-61.2c-30.1,0-54.1,15.2-65.4,41.3L10.2,301.1C2,320.2,0,333.8,0,348.5z M59.8,262.6l61.2-142.2  c6.8-16,20.5-25.5,36.9-25.5c21.3,0,34.9,14,34.9,35.1v152.4c-20.1-19.9-49.7-31.9-81.2-31.9C93.7,250.6,75.4,255,59.8,262.6z   M452.2,262.6c-15.6-7.6-33.9-12-51.7-12c-31.5,0-61.4,12-81.4,31.9V130.1c0-21.1,13.8-35.1,35.1-35.1c16.2,0,29.9,9.4,36.7,25.5  L452.2,262.6z M256.1,168.6c13.6,0,24.3,1.4,33.3,4.2v34.3c-10-2.4-20.9-3.4-33.3-3.4c-11.6,0-22.9,1.6-33.5,4.6v-33.9  C232.4,170.8,244.1,168.6,256.1,168.6z M256.1,229.9c13.6,0,24.3,1.2,33.3,4.2v34.1c-10-2.4-20.9-3.4-33.3-3.4  c-11.6,0-22.9,1.6-33.5,4.6v-33.9C232.4,231.9,244.1,229.9,256.1,229.9z M31.5,348.5c0-40.3,34.7-67.8,80-67.8  c45.1,0,81,27.5,81,67.8c0,40.3-35.9,67.8-81,67.8C66.2,416.2,31.5,388.8,31.5,348.5z M480.3,348.5c0,40.3-34.7,67.8-79.8,67.8  c-45.3,0-81-27.5-81-67.8c0-40.3,35.7-67.8,81-67.8C445.6,280.7,480.3,308.1,480.3,348.5z"/>
</svg>