<?xml version="1.0" encoding="UTF-8"?>
<!--Generator: Apple Native CoreSVG 326-->
<!DOCTYPE svg
PUBLIC "-//W3C//DTD SVG 1.1//EN"
       "http://www.w3.org/Graphics/SVG/1.1/DTD/svg11.dtd">
<svg version="1.1" xmlns="http://www.w3.org/2000/svg" xmlns:xlink="http://www.w3.org/1999/xlink" viewBox="0 0 32.2949 24.6777">
 <g>
  <rect height="24.6777" opacity="0" width="32.2949" x="0" y="0"/>
  <path d="M0 18.6719C0 22.0996 3.08594 24.6777 6.89453 24.6777C10.7031 24.6777 13.7695 22.0996 13.7695 18.6719L13.7695 15.2344C14.4141 14.9512 15.2051 14.7949 15.9766 14.7949C16.8262 14.7949 17.5586 14.9121 18.1641 15.1562L18.1641 18.6719C18.1641 22.0996 21.2305 24.6777 25.0391 24.6777C28.8574 24.6777 31.9336 22.0996 31.9336 18.6719C31.9336 17.7832 31.7969 16.9531 31.3184 15.8301L25.9766 3.56445C25.2832 1.98242 23.8281 1.04492 22.0215 1.04492C19.668 1.04492 18.1641 2.54883 18.1641 4.76562L18.1641 6.25C17.5098 6.04492 16.7676 5.9375 15.9766 5.9375C15.2148 5.9375 14.4629 6.06445 13.7695 6.31836L13.7695 4.76562C13.7695 2.54883 12.2656 1.04492 9.92188 1.04492C8.10547 1.04492 6.65039 1.98242 5.95703 3.56445L0.615234 15.8301C0.136719 16.9531 0 17.7832 0 18.6719ZM1.70898 18.6719C1.70898 16.0645 3.94531 14.2773 6.89453 14.2773C9.84375 14.2773 12.1289 16.0645 12.1289 18.6719C12.1289 21.2793 9.85352 23.0566 6.89453 23.0566C3.94531 23.0566 1.70898 21.2695 1.70898 18.6719ZM19.8047 18.6719C19.8047 16.0645 22.0898 14.2773 25.0391 14.2773C27.998 14.2773 30.2246 16.0645 30.2246 18.6719C30.2246 21.2695 27.998 23.0566 25.0391 23.0566C22.0898 23.0566 19.8047 21.2793 19.8047 18.6719ZM13.7695 11.5234L13.7695 10.0293C14.4629 9.77539 15.2148 9.64844 15.9766 9.64844C16.7676 9.64844 17.5098 9.75586 18.1641 9.96094L18.1641 11.4453C17.5586 11.2012 16.8359 11.084 15.9766 11.084C15.2051 11.084 14.4141 11.2402 13.7695 11.5234Z" fill="black" fill-opacity="0.85"/>
 </g>
</svg>
