<?xml version="1.0" encoding="UTF-8"?>
<!--Generator: Apple Native CoreSVG 326-->
<!DOCTYPE svg
PUBLIC "-//W3C//DTD SVG 1.1//EN"
       "http://www.w3.org/Graphics/SVG/1.1/DTD/svg11.dtd">
<svg version="1.1" xmlns="http://www.w3.org/2000/svg" xmlns:xlink="http://www.w3.org/1999/xlink" viewBox="0 0 25.8008 25.459">
 <g>
  <rect height="25.459" opacity="0" width="25.8008" x="0" y="0"/>
  <path d="M25.4395 12.7246C25.4395 19.7266 19.7266 25.4395 12.7148 25.4395C5.71289 25.4395 0 19.7266 0 12.7246C0 5.71289 5.71289 0 12.7148 0C19.7266 0 25.4395 5.71289 25.4395 12.7246ZM13.8477 8.38867L13.8477 9.16992C13.5156 9.0625 13.125 8.99414 12.7051 8.99414C12.3047 8.99414 11.9043 9.07227 11.5625 9.19922L11.5625 8.38867C11.5625 7.23633 10.7715 6.44531 9.53125 6.44531C8.59375 6.44531 7.83203 6.94336 7.4707 7.75391L4.67773 14.1699C4.42383 14.7656 4.36523 15.1953 4.36523 15.6543C4.36523 17.4512 5.95703 18.7988 7.95898 18.7988C9.95117 18.7988 11.5625 17.4512 11.5625 15.6543L11.5625 13.8574C11.8848 13.7109 12.2949 13.623 12.7051 13.623C13.1543 13.623 13.5352 13.6816 13.8477 13.7988L13.8477 15.6543C13.8477 17.4512 15.459 18.7988 17.4414 18.7988C19.4434 18.7988 21.0352 17.4512 21.0352 15.6543C21.0352 15.1953 20.9766 14.7656 20.7324 14.1699L17.9395 7.75391C17.5879 6.94336 16.8066 6.44531 15.8691 6.44531C14.6289 6.44531 13.8477 7.23633 13.8477 8.38867ZM10.3711 15.6543C10.3711 16.8262 9.4043 17.6172 7.95898 17.6172C6.5332 17.6172 5.57617 16.8262 5.57617 15.6543C5.57617 14.4824 6.5332 13.6816 7.95898 13.6816C9.4043 13.6816 10.3711 14.4824 10.3711 15.6543ZM19.8242 15.6543C19.8242 16.8262 18.8672 17.6172 17.4414 17.6172C15.9961 17.6172 15.0293 16.8262 15.0293 15.6543C15.0293 14.4824 16.0059 13.6816 17.4414 13.6816C18.8672 13.6816 19.8242 14.4824 19.8242 15.6543ZM13.8477 11.0547L13.8477 11.9141C13.5352 11.8066 13.1543 11.7383 12.7051 11.7383C12.2949 11.7383 11.875 11.8164 11.5625 11.9922L11.5625 11.0645C11.9043 10.9473 12.3047 10.8789 12.7051 10.8789C13.125 10.8789 13.5156 10.9375 13.8477 11.0547Z" fill="black" fill-opacity="0.85"/>
 </g>
</svg>
