<?xml version="1.0" encoding="UTF-8"?>
<!--Generator: Apple Native CoreSVG 326-->
<!DOCTYPE svg
PUBLIC "-//W3C//DTD SVG 1.1//EN"
       "http://www.w3.org/Graphics/SVG/1.1/DTD/svg11.dtd">
<svg version="1.1" xmlns="http://www.w3.org/2000/svg" xmlns:xlink="http://www.w3.org/1999/xlink" viewBox="0 0 29.4845 33.0689">
 <g>
  <rect height="33.0689" opacity="0" width="29.4845" x="0" y="0"/>
  <path d="M20.7677 8.22876C18.961 8.22876 17.5938 9.1565 16.461 11.7639C12.9942 8.14087 7.15437 4.74243 1.295 4.30298C0.25984 4.24439 0.0547621 4.97681 0.0254652 5.6604C-0.404222 12.0471 4.65437 17.428 11.3731 17.9163C9.59578 22.135 6.68562 25.7092 3.7364 28.4729C3.31648 28.8538 3.40437 29.3616 3.68757 29.8108C5.12312 32.0178 9.62507 33.3362 12.6817 32.2717C13.2872 32.0471 13.4141 31.7737 13.4141 31.2268L13.4141 26.3635C16.9102 26.2561 22.3692 24.1077 21.3927 17.2131L21.2169 16.1096C23.8341 15.5237 25.5528 13.9221 25.5528 12.3303C25.5528 10.3674 23.4141 8.22876 20.7677 8.22876ZM22.0567 12.467C21.6368 12.467 21.3048 12.135 21.3048 11.7249C21.3048 11.3147 21.6368 10.9729 22.0567 10.9729C22.4571 10.9729 22.7989 11.3147 22.7989 11.7249C22.7989 12.135 22.4571 12.467 22.0567 12.467ZM24.0684 14.0784L28.336 14.6741C29.1173 14.7815 29.4786 13.6292 28.6778 13.2971L24.8204 11.6858ZM19.1368 6.89087C17.5255 3.92212 15.4454 1.77368 12.7305 0.230715C11.8516-0.277098 10.9923 0.0842305 10.7481 1.01196C10.3477 2.36939 10.1134 3.80493 10.0645 5.24048C12.3204 6.36353 14.3809 7.76001 16.0704 9.25415C16.9688 7.98462 17.9942 7.23267 19.1368 6.89087Z" fill="black" fill-opacity="0.85"/>
 </g>
</svg>
