<?xml version="1.0" encoding="UTF-8"?>
<!--Generator: Apple Native CoreSVG 326-->
<!DOCTYPE svg
PUBLIC "-//W3C//DTD SVG 1.1//EN"
       "http://www.w3.org/Graphics/SVG/1.1/DTD/svg11.dtd">
<svg version="1.1" xmlns="http://www.w3.org/2000/svg" xmlns:xlink="http://www.w3.org/1999/xlink" viewBox="0 0 28.9648 28.1543">
 <g>
  <rect height="28.1543" opacity="0" width="28.9648" x="0" y="0"/>
  <path d="M14.3066 4.6582C15.1855 4.6582 15.8789 3.87695 15.8789 2.87109C15.8789 1.8457 15.5566 1.17188 14.9414 0.449219C14.5605-0.0195312 14.1016-0.0195312 13.7207 0.390625C13.1055 1.12305 12.7344 1.79688 12.7344 2.87109C12.7344 3.87695 13.4375 4.6582 14.3066 4.6582ZM13.6621 10.4004L14.9023 10.4004L14.9023 3.4668L13.6621 3.4668ZM6.23047 14.5117L22.3828 14.5117L22.3828 13.2715C22.3828 10.9766 21.1523 9.75586 18.8281 9.75586L9.78516 9.75586C7.4707 9.75586 6.23047 10.9766 6.23047 13.2715ZM1.98242 27.3926L26.6309 27.3926L26.6309 19.5898C26.6309 17.2852 25.4102 16.0742 23.0762 16.0742L5.53711 16.0742C3.21289 16.0742 1.98242 17.2852 1.98242 19.5898ZM14.2871 21.9824C13.0664 21.9824 12.1973 23.4375 10.4102 23.4375C8.67188 23.4375 7.85156 21.9824 6.68945 21.9824C5.51758 21.9824 4.6875 23.4375 2.41211 23.4375L1.98242 23.4375L1.98242 21.9922L2.41211 21.9922C4.18945 21.9922 5.00977 20.5469 6.68945 20.5469C8.35938 20.5469 9.02344 21.9922 10.4102 21.9922C11.9824 21.9922 12.6074 20.5469 14.2871 20.5469C15.9766 20.5469 16.582 21.9922 18.1738 21.9922C19.5605 21.9922 20.2148 20.5469 21.8848 20.5469C23.5547 20.5469 24.3848 21.9922 26.1621 21.9922L26.6309 21.9922L26.6309 23.4375L26.1621 23.4375C23.877 23.4375 23.0469 21.9824 21.8848 21.9824C20.7129 21.9824 19.8926 23.4375 18.1738 23.4375C16.377 23.4375 15.5078 21.9824 14.2871 21.9824ZM0.869141 28.1543L27.7441 28.1543C28.2129 28.1543 28.6035 27.7637 28.6035 27.2852C28.6035 26.8164 28.2129 26.4258 27.7441 26.4258L0.869141 26.4258C0.390625 26.4258 0 26.8164 0 27.2852C0 27.7637 0.390625 28.1543 0.869141 28.1543Z" fill="black" fill-opacity="0.85"/>
 </g>
</svg>
