<?xml version="1.0" encoding="UTF-8"?>
<!--Generator: Apple Native CoreSVG 326-->
<!DOCTYPE svg
PUBLIC "-//W3C//DTD SVG 1.1//EN"
       "http://www.w3.org/Graphics/SVG/1.1/DTD/svg11.dtd">
<svg version="1.1" xmlns="http://www.w3.org/2000/svg" xmlns:xlink="http://www.w3.org/1999/xlink" viewBox="0 0 27.9395 26.5527">
 <g>
  <rect height="26.5527" opacity="0" width="27.9395" x="0" y="0"/>
  <path d="M1.5332 23.8379L26.0449 23.8379L26.0449 23.0859C26.0449 22.666 25.791 22.4121 25.3613 22.4121L24.5605 22.4121L24.5605 8.33984L25.6934 8.33984C26.2891 8.33984 26.6211 7.91992 26.6211 7.48047C26.6211 7.1582 26.4453 6.875 26.0547 6.65039L15.2637 0.419922C14.7852 0.146484 14.2773 0 13.7891 0C13.3008 0 12.7832 0.146484 12.3145 0.419922L1.52344 6.65039C1.12305 6.875 0.957031 7.1582 0.957031 7.48047C0.957031 7.91992 1.28906 8.33984 1.88477 8.33984L3.02734 8.33984L3.02734 22.4121L2.22656 22.4121C1.78711 22.4121 1.5332 22.666 1.5332 23.0859ZM4.6582 22.4121L4.6582 6.85547L13.2227 2.03125C13.3887 1.93359 13.5938 1.875 13.7891 1.875C13.9746 1.875 14.1699 1.93359 14.3555 2.03125L22.9297 6.85547L22.9297 22.4121ZM0.869141 26.5332L26.709 26.5332C27.1875 26.5332 27.5781 26.1426 27.5781 25.6738C27.5781 25.1953 27.1875 24.8047 26.709 24.8047L0.869141 24.8047C0.390625 24.8047 0 25.1953 0 25.6738C0 26.1426 0.390625 26.5332 0.869141 26.5332Z" fill="black" fill-opacity="0.85"/>
  <path d="M11.1816 18.6816L14.3066 18.6816C16.4648 18.6816 18.0762 17.6758 18.0762 15.6543C18.0762 14.1699 17.0117 13.1348 15.4688 12.959L15.4688 12.8809C16.6992 12.6855 17.5098 11.6016 17.5098 10.4688C17.5098 8.73047 16.0742 7.77344 14.2676 7.77344L11.1816 7.77344C10.6934 7.77344 10.3711 8.10547 10.3711 8.59375L10.3711 17.8613C10.3711 18.3496 10.6934 18.6816 11.1816 18.6816ZM11.6699 12.5195L11.6699 8.85742L13.9551 8.85742C15.1953 8.85742 16.2012 9.375 16.2012 10.625C16.2012 12.002 15.0293 12.5195 13.6328 12.5195ZM11.6699 17.5781L11.6699 13.5938L13.9355 13.5938C15.4492 13.5938 16.748 14.0918 16.748 15.5859C16.748 17.0508 15.5371 17.5781 14.0723 17.5781ZM11.9629 8.4082L12.7344 8.4082L12.7344 6.55273C12.7344 6.31836 12.5684 6.16211 12.3535 6.16211C12.1289 6.16211 11.9629 6.31836 11.9629 6.55273ZM13.9453 8.4082L14.7168 8.4082L14.7168 6.55273C14.7168 6.31836 14.5508 6.16211 14.3262 6.16211C14.1113 6.16211 13.9453 6.31836 13.9453 6.55273ZM11.9629 18.0176L11.9629 19.9512C11.9629 20.166 12.1289 20.332 12.3535 20.332C12.5684 20.332 12.7344 20.166 12.7344 19.9512L12.7344 18.0176ZM13.9453 18.0176L13.9453 19.9512C13.9453 20.166 14.1113 20.332 14.3262 20.332C14.5508 20.332 14.7168 20.166 14.7168 19.9512L14.7168 18.0176Z" fill="black" fill-opacity="0.85"/>
 </g>
</svg>
