<?xml version="1.0" ?><!-- Generator: Adobe Illustrator 25.0.0, SVG Export Plug-In . SVG Version: 6.00 Build 0)  --><svg xmlns="http://www.w3.org/2000/svg" xmlns:xlink="http://www.w3.org/1999/xlink" version="1.1" id="Layer_1" x="0px" y="0px" viewBox="0 0 512 512" style="enable-background:new 0 0 512 512;" xml:space="preserve">
<path d="M87.3,512h337.3c58.4,0,87.3-28.9,87.3-86.2V86.2C512,28.9,483.1,0,424.7,0H87.3C29.2,0,0,28.6,0,86.2v339.6  C0,483.4,29.2,512,87.3,512z M177.7,367.4v-215c0-13.1,9.2-22,22-22h11.7V109c0-8.1,5.8-13.6,13.3-13.6c7.8,0,13.6,5.6,13.6,13.6  v21.4h17.8V109c0-8.1,5.8-13.6,13.6-13.6c7.5,0,13.3,5.6,13.3,13.6v22.5c37.3,5.6,60.9,30.6,60.9,65.1c0,23.6-14.5,45.6-35,55.6  c28.9,8.6,47.3,32,47.3,63.4c0,40.9-27,67.6-73.1,72.6V411c0,8.1-5.8,13.6-13.3,13.6c-7.8,0-13.6-5.6-13.6-13.6v-22h-17.8v22  c0,8.1-5.8,13.6-13.6,13.6c-7.5,0-13.3-5.6-13.3-13.6v-22h-11.7C186.6,389.1,177.7,380.2,177.7,367.4z M213.6,239.5l39.5,0.3  c35.6,0.3,55.1-14.2,55.1-40.3c0-23.6-17.2-36.7-47-36.7h-47.6V239.5z M213.6,356.5l50.1-0.3c37.3-0.3,57-14.5,57-42  c0-28.1-20.6-42.3-60.3-42.3h-46.7V356.5z"/>
</svg>