<?xml version="1.0" encoding="UTF-8"?>
<!--Generator: Apple Native CoreSVG 326-->
<!DOCTYPE svg
PUBLIC "-//W3C//DTD SVG 1.1//EN"
       "http://www.w3.org/Graphics/SVG/1.1/DTD/svg11.dtd">
<svg version="1.1" xmlns="http://www.w3.org/2000/svg" xmlns:xlink="http://www.w3.org/1999/xlink" viewBox="0 0 27.9395 26.5527">
 <g>
  <rect height="26.5527" opacity="0" width="27.9395" x="0" y="0"/>
  <path d="M15.2637 0.419922L26.0547 6.65039C26.4453 6.875 26.6211 7.1582 26.6211 7.48047C26.6211 7.91992 26.2891 8.33984 25.6934 8.33984L24.5605 8.33984L24.5605 23.252L25.3613 23.252C25.791 23.252 26.0449 23.5059 26.0449 23.9258L26.0449 24.8047L26.709 24.8047C27.1875 24.8047 27.5781 25.1953 27.5781 25.6738C27.5781 26.1426 27.1875 26.5332 26.709 26.5332L0.869141 26.5332C0.390625 26.5332 0 26.1426 0 25.6738C0 25.1953 0.390625 24.8047 0.869141 24.8047L1.5332 24.8047L1.5332 23.9258C1.5332 23.5059 1.78711 23.252 2.22656 23.252L3.02734 23.252L3.02734 8.33984L1.88477 8.33984C1.28906 8.33984 0.957031 7.91992 0.957031 7.48047C0.957031 7.1582 1.12305 6.875 1.52344 6.65039L12.3145 0.419922C12.7832 0.146484 13.3008 0 13.7891 0C14.2773 0 14.7852 0.146484 15.2637 0.419922ZM13.9355 7.50977L13.9355 8.75977L12.6953 8.75977L12.6953 7.50977C12.6953 7.26562 12.5293 7.10938 12.3047 7.10938C12.0703 7.10938 11.9043 7.26562 11.9043 7.50977L11.9043 8.75977L11.1133 8.75977C10.6055 8.75977 10.2637 9.10156 10.2637 9.60938L10.2637 19.0918C10.2637 19.5996 10.6055 19.9414 11.1133 19.9414L11.9043 19.9414L11.9043 21.2402C11.9043 21.4746 12.0703 21.6309 12.3047 21.6309C12.5293 21.6309 12.6953 21.4746 12.6953 21.2402L12.6953 19.9414L13.9355 19.9414L13.9355 21.2402C13.9355 21.4746 14.1113 21.6309 14.3262 21.6309C14.5605 21.6309 14.7363 21.4746 14.7363 21.2402L14.7363 19.9316C16.7383 19.8047 18.1738 18.7793 18.1738 16.8359C18.1738 15.3125 17.0898 14.2578 15.5078 14.082L15.5078 13.9941C16.7676 13.7988 17.5977 12.6855 17.5977 11.5234C17.5977 9.90234 16.3672 8.93555 14.7363 8.7793L14.7363 7.50977C14.7363 7.26562 14.5605 7.10938 14.3262 7.10938C14.1113 7.10938 13.9355 7.26562 13.9355 7.50977ZM16.8066 16.7676C16.8066 18.2617 15.5664 18.8086 14.0723 18.8086L11.6113 18.8086L11.6113 14.7266L13.9258 14.7266C15.4785 14.7266 16.8066 15.2441 16.8066 16.7676ZM16.2402 11.6895C16.2402 13.1055 15.0488 13.623 13.6133 13.623L11.6113 13.623L11.6113 9.87305L13.9453 9.87305C15.2148 9.87305 16.2402 10.4102 16.2402 11.6895Z" fill="black" fill-opacity="0.85"/>
 </g>
</svg>
