<?xml version="1.0" encoding="UTF-8"?>
<!--Generator: Apple Native CoreSVG 326-->
<!DOCTYPE svg
PUBLIC "-//W3C//DTD SVG 1.1//EN"
       "http://www.w3.org/Graphics/SVG/1.1/DTD/svg11.dtd">
<svg version="1.1" xmlns="http://www.w3.org/2000/svg" xmlns:xlink="http://www.w3.org/1999/xlink" viewBox="0 0 25.8008 25.459">
 <g>
  <rect height="25.459" opacity="0" width="25.8008" x="0" y="0"/>
  <path d="M12.7148 25.4395C19.7363 25.4395 25.4395 19.7461 25.4395 12.7246C25.4395 5.70312 19.7363 0 12.7148 0C5.69336 0 0 5.70312 0 12.7246C0 19.7461 5.69336 25.4395 12.7148 25.4395ZM12.7148 23.623C6.68945 23.623 1.81641 18.75 1.81641 12.7246C1.81641 6.69922 6.68945 1.82617 12.7148 1.82617C18.7402 1.82617 23.6133 6.69922 23.6133 12.7246C23.6133 18.75 18.7402 23.623 12.7148 23.623Z" fill="black" fill-opacity="0.85"/>
  <path d="M10.0977 18.1934L13.2129 18.1934C15.3711 18.1934 16.9824 17.1875 16.9824 15.1758C16.9824 13.6816 15.918 12.6465 14.3848 12.4805L14.3848 12.4023C15.6055 12.1973 16.4258 11.123 16.4258 9.98047C16.4258 8.25195 14.9902 7.28516 13.1836 7.28516L10.0977 7.28516C9.60938 7.28516 9.27734 7.61719 9.27734 8.10547L9.27734 17.373C9.27734 17.8613 9.60938 18.1934 10.0977 18.1934ZM10.5859 12.0312L10.5859 8.37891L12.8711 8.37891C14.1113 8.37891 15.1074 8.88672 15.1074 10.1367C15.1074 11.5234 13.9453 12.0312 12.5488 12.0312ZM10.5859 17.0898L10.5859 13.1055L12.8418 13.1055C14.3555 13.1055 15.6543 13.6133 15.6543 15.0977C15.6543 16.5723 14.4434 17.0898 12.9785 17.0898ZM10.8789 7.91992L11.6504 7.91992L11.6504 6.06445C11.6504 5.83984 11.4844 5.67383 11.2695 5.67383C11.0352 5.67383 10.8789 5.83984 10.8789 6.06445ZM12.8613 7.91992L13.623 7.91992L13.623 6.06445C13.623 5.83984 13.4668 5.67383 13.2422 5.67383C13.0176 5.67383 12.8613 5.83984 12.8613 6.06445ZM10.8789 17.5391L10.8789 19.4629C10.8789 19.6875 11.0352 19.8438 11.2695 19.8438C11.4844 19.8438 11.6504 19.6875 11.6504 19.4629L11.6504 17.5391ZM12.8613 17.5391L12.8613 19.4629C12.8613 19.6875 13.0176 19.8438 13.2422 19.8438C13.4668 19.8438 13.623 19.6875 13.623 19.4629L13.623 17.5391Z" fill="black" fill-opacity="0.85"/>
 </g>
</svg>
