<?xml version="1.0" ?><!-- Generator: Adobe Illustrator 25.0.0, SVG Export Plug-In . SVG Version: 6.00 Build 0)  --><svg xmlns="http://www.w3.org/2000/svg" xmlns:xlink="http://www.w3.org/1999/xlink" version="1.1" id="Layer_1" x="0px" y="0px" viewBox="0 0 512 512" style="enable-background:new 0 0 512 512;" xml:space="preserve">
<path d="M256,512c140,0,256-116.2,256-256C512,116,395.8,0,255.7,0C116,0,0,116,0,256C0,395.8,116.2,512,256,512z M256,469.3  c-118.5,0-213.1-94.9-213.1-213.3S137.3,42.7,255.7,42.7S469.1,137.5,469.3,256S374.5,469.3,256,469.3z M185,356.9  c0,11.8,8,19.6,19.8,19.6h10.5v20.1c0,7,5,12.3,12,12.3s12-5.3,12-12.3v-20.1h16.3v20.1c0,7,5.3,12.3,12,12.3  c7,0,12.3-5.3,12.3-12.3v-20.8c41.7-4.3,66-28.4,66-65.5c0-28.1-16.8-49.2-42.7-57.2c18.6-8.8,31.4-28.9,31.4-50.2  c0-31.1-21.3-53.5-54.7-58.7V124c0-7.3-5.3-12.3-12.3-12.3c-6.8,0-12,5-12,12.3v19.1h-16.3V124c0-7.3-5-12.3-12-12.3s-12,5-12,12.3  v19.1h-10.5c-11.5,0-19.8,8.3-19.8,19.8V356.9z M217.1,241.7v-69.5H260c27.1,0,42.7,12,42.7,33.4c0,23.3-17.6,36.6-49.7,36.4  L217.1,241.7z M217.1,347.4v-76.5h42.4c35.9,0,54.5,13.1,54.5,38.1c0,24.8-17.8,37.9-51.7,38.1L217.1,347.4z"/>
</svg>