<?xml version="1.0" encoding="UTF-8"?>
<!--Generator: Apple Native CoreSVG 326-->
<!DOCTYPE svg
PUBLIC "-//W3C//DTD SVG 1.1//EN"
       "http://www.w3.org/Graphics/SVG/1.1/DTD/svg11.dtd">
<svg version="1.1" xmlns="http://www.w3.org/2000/svg" xmlns:xlink="http://www.w3.org/1999/xlink" viewBox="0 0 25.8008 25.459">
 <g>
  <rect height="25.459" opacity="0" width="25.8008" x="0" y="0"/>
  <path d="M25.4395 12.7246C25.4395 19.7266 19.7266 25.4395 12.7148 25.4395C5.71289 25.4395 0 19.7266 0 12.7246C0 5.71289 5.71289 0 12.7148 0C19.7266 0 25.4395 5.71289 25.4395 12.7246ZM12.8613 5.89844L12.8613 7.14844L11.6211 7.14844L11.6211 5.89844C11.6211 5.66406 11.4551 5.49805 11.2305 5.49805C10.9863 5.49805 10.8301 5.66406 10.8301 5.89844L10.8301 7.14844L10.0391 7.14844C9.53125 7.14844 9.18945 7.49023 9.18945 7.99805L9.18945 17.4805C9.18945 17.998 9.53125 18.3398 10.0391 18.3398L10.8301 18.3398L10.8301 19.6387C10.8301 19.8633 10.9863 20.0293 11.2305 20.0293C11.4551 20.0293 11.6211 19.8633 11.6211 19.6387L11.6211 18.3398L12.8613 18.3398L12.8613 19.6387C12.8613 19.8633 13.0273 20.0293 13.252 20.0293C13.4863 20.0293 13.6523 19.8633 13.6523 19.6387L13.6523 18.3301C15.6543 18.1934 17.0996 17.168 17.0996 15.2344C17.0996 13.7012 16.0059 12.6465 14.4336 12.4707L14.4336 12.3926C15.6836 12.1875 16.5234 11.084 16.5234 9.91211C16.5234 8.29102 15.2832 7.32422 13.6523 7.17773L13.6523 5.89844C13.6523 5.66406 13.4863 5.49805 13.252 5.49805C13.0273 5.49805 12.8613 5.66406 12.8613 5.89844ZM15.7227 15.166C15.7227 16.6602 14.4922 17.1973 12.9883 17.1973L10.5371 17.1973L10.5371 13.1152L12.8418 13.1152C14.3945 13.1152 15.7227 13.6328 15.7227 15.166ZM15.1562 10.0781C15.1562 11.4941 13.9746 12.0117 12.5391 12.0117L10.5371 12.0117L10.5371 8.27148L12.8711 8.27148C14.1406 8.27148 15.1562 8.79883 15.1562 10.0781Z" fill="black" fill-opacity="0.85"/>
 </g>
</svg>
