<?xml version="1.0" encoding="UTF-8"?>
<!--Generator: Apple Native CoreSVG 326-->
<!DOCTYPE svg
PUBLIC "-//W3C//DTD SVG 1.1//EN"
       "http://www.w3.org/Graphics/SVG/1.1/DTD/svg11.dtd">
<svg version="1.1" xmlns="http://www.w3.org/2000/svg" xmlns:xlink="http://www.w3.org/1999/xlink" viewBox="0 0 30.3809 25.0293">
 <g>
  <rect height="25.0293" opacity="0" width="30.3809" x="0" y="0"/>
  <path d="M30.0195 15.0098C30.0195 11.3281 28.6914 7.95898 26.4844 5.3418C26.2305 5.03906 25.8008 5.04883 25.5176 5.33203L22.6953 8.1543C22.4512 8.39844 22.4414 8.74023 22.6562 9.01367C23.9551 10.6738 24.7266 12.7441 24.7266 15.0098C24.7266 17.2754 23.9551 19.3555 22.5977 21.0742C22.4121 21.3086 22.4219 21.6016 22.627 21.8066L25.5176 24.707C25.8008 25 26.2207 24.9902 26.4844 24.6875C28.6914 22.0703 30.0195 18.6816 30.0195 15.0098Z" fill="black" fill-opacity="0.85"/>
  <path d="M15.0098 5.2832C17.2754 5.2832 19.3652 6.06445 21.0254 7.38281C21.2891 7.57812 21.6113 7.55859 21.8555 7.31445L24.6875 4.48242C24.9805 4.19922 24.9707 3.7793 24.668 3.51562C22.0605 1.32812 18.6816 0 15.0098 0C11.3379 0 7.95898 1.32812 5.35156 3.51562C5.04883 3.7793 5.03906 4.19922 5.32227 4.48242L8.16406 7.31445C8.39844 7.55859 8.75 7.56836 9.02344 7.35352C10.6738 6.06445 12.7539 5.2832 15.0098 5.2832Z" fill="black" fill-opacity="0.85"/>
  <path d="M0 15.0098C0 18.6816 1.32812 22.0703 3.53516 24.6875C3.78906 24.9902 4.21875 25 4.50195 24.707L7.39258 21.8066C7.58789 21.6016 7.60742 21.3086 7.42188 21.0742C6.06445 19.3555 5.2832 17.2754 5.2832 15.0098C5.2832 12.7441 6.05469 10.6738 7.36328 9.01367C7.56836 8.74023 7.56836 8.39844 7.32422 8.1543L4.49219 5.33203C4.20898 5.04883 3.78906 5.03906 3.52539 5.3418C1.31836 7.95898 0 11.3281 0 15.0098Z" fill="black" fill-opacity="0.85"/>
  <path d="M12.3828 20.6445L15.5078 20.6445C17.666 20.6445 19.2773 19.6387 19.2773 17.627C19.2773 16.1328 18.2129 15.0977 16.6699 14.9316L16.6699 14.8438C17.9004 14.6484 18.7109 13.5742 18.7109 12.4316C18.7109 10.6934 17.2852 9.73633 15.4688 9.73633L12.3828 9.73633C11.8945 9.73633 11.5723 10.0684 11.5723 10.5566L11.5723 19.8242C11.5723 20.3125 11.8945 20.6445 12.3828 20.6445ZM12.8711 14.4824L12.8711 10.8301L15.1562 10.8301C16.3965 10.8301 17.4023 11.3379 17.4023 12.5879C17.4023 13.9746 16.2305 14.4824 14.834 14.4824ZM12.8711 19.541L12.8711 15.5566L15.1367 15.5566C16.6504 15.5566 17.9492 16.0645 17.9492 17.5488C17.9492 19.0137 16.7383 19.541 15.2734 19.541ZM13.1641 10.3711L13.9355 10.3711L13.9355 8.51562C13.9355 8.29102 13.7793 8.125 13.5547 8.125C13.3301 8.125 13.1641 8.29102 13.1641 8.51562ZM15.1465 10.3711L15.918 10.3711L15.918 8.51562C15.918 8.29102 15.752 8.125 15.5273 8.125C15.3125 8.125 15.1465 8.29102 15.1465 8.51562ZM13.1641 19.9902L13.1641 21.9141C13.1641 22.1387 13.3301 22.2949 13.5547 22.2949C13.7793 22.2949 13.9355 22.1387 13.9355 21.9141L13.9355 19.9902ZM15.1465 19.9902L15.1465 21.9141C15.1465 22.1387 15.3125 22.2949 15.5273 22.2949C15.752 22.2949 15.918 22.1387 15.918 21.9141L15.918 19.9902Z" fill="black" fill-opacity="0.85"/>
 </g>
</svg>
