<?xml version="1.0" encoding="UTF-8"?>
<!--Generator: Apple Native CoreSVG 326-->
<!DOCTYPE svg
PUBLIC "-//W3C//DTD SVG 1.1//EN"
       "http://www.w3.org/Graphics/SVG/1.1/DTD/svg11.dtd">
<svg version="1.1" xmlns="http://www.w3.org/2000/svg" xmlns:xlink="http://www.w3.org/1999/xlink" viewBox="0 0 30.3809 24.9191">
 <g>
  <rect height="24.9191" opacity="0" width="30.3809" x="0" y="0"/>
  <path d="M30.0195 14.9547C30.0195 7.09334 23.9746 0.648023 16.2988 0.00349172C15.8984-0.0355708 15.5859 0.257398 15.5859 0.667554L15.5859 4.66169C15.5859 4.99373 15.8301 5.2574 16.1719 5.28669C20.9863 5.87263 24.7266 9.97419 24.7266 14.9547C24.7266 17.2203 23.9551 19.3004 22.5879 21.0191C22.4023 21.2535 22.4121 21.5465 22.6172 21.7515L25.5176 24.6519C25.8105 24.9351 26.2305 24.9351 26.4844 24.6226C28.6914 22.0054 30.0195 18.6265 30.0195 14.9547Z" fill="black" fill-opacity="0.85"/>
  <path d="M0 14.9547C0 18.6363 1.32812 22.025 3.54492 24.6422C3.78906 24.9351 4.19922 24.9351 4.49219 24.6519L7.39258 21.7515C7.59766 21.5465 7.60742 21.2535 7.42188 21.0191C6.05469 19.3004 5.2832 17.2203 5.2832 14.9547C5.2832 9.97419 9.0332 5.87263 13.8379 5.28669C14.1895 5.2574 14.4238 4.99373 14.4238 4.66169L14.4238 0.667554C14.4238 0.257398 14.1211-0.0355708 13.7207 0.00349172C6.03516 0.648023 0 7.09334 0 14.9547Z" fill="black" fill-opacity="0.85"/>
  <path d="M12.3828 20.5894L15.5078 20.5894C17.666 20.5894 19.2773 19.5836 19.2773 17.5719C19.2773 16.0777 18.2129 15.0426 16.6699 14.8765L16.6699 14.7886C17.9004 14.5933 18.7109 13.5191 18.7109 12.3765C18.7109 10.6383 17.2852 9.68123 15.4688 9.68123L12.3828 9.68123C11.8945 9.68123 11.5723 10.0133 11.5723 10.5015L11.5723 19.7691C11.5723 20.2574 11.8945 20.5894 12.3828 20.5894ZM12.8711 14.4273L12.8711 10.775L15.1562 10.775C16.3965 10.775 17.4023 11.2828 17.4023 12.5328C17.4023 13.9195 16.2305 14.4273 14.834 14.4273ZM12.8711 19.4859L12.8711 15.5015L15.1367 15.5015C16.6504 15.5015 17.9492 16.0094 17.9492 17.4937C17.9492 18.9586 16.7383 19.4859 15.2734 19.4859ZM13.1641 10.316L13.9355 10.316L13.9355 8.46052C13.9355 8.23591 13.7793 8.0699 13.5547 8.0699C13.3301 8.0699 13.1641 8.23591 13.1641 8.46052ZM15.1465 10.316L15.918 10.316L15.918 8.46052C15.918 8.23591 15.752 8.0699 15.5273 8.0699C15.3125 8.0699 15.1465 8.23591 15.1465 8.46052ZM13.1641 19.9351L13.1641 21.859C13.1641 22.0836 13.3301 22.2398 13.5547 22.2398C13.7793 22.2398 13.9355 22.0836 13.9355 21.859L13.9355 19.9351ZM15.1465 19.9351L15.1465 21.859C15.1465 22.0836 15.3125 22.2398 15.5273 22.2398C15.752 22.2398 15.918 22.0836 15.918 21.859L15.918 19.9351Z" fill="black" fill-opacity="0.85"/>
 </g>
</svg>
