<?xml version="1.0" encoding="UTF-8"?>
<!--Generator: Apple Native CoreSVG 326-->
<!DOCTYPE svg
PUBLIC "-//W3C//DTD SVG 1.1//EN"
       "http://www.w3.org/Graphics/SVG/1.1/DTD/svg11.dtd">
<svg version="1.1" xmlns="http://www.w3.org/2000/svg" xmlns:xlink="http://www.w3.org/1999/xlink" viewBox="0 0 23.3203 22.959">
 <g>
  <rect height="22.959" opacity="0" width="23.3203" x="0" y="0"/>
  <path d="M3.79883 22.959L19.1504 22.959C21.6797 22.959 22.959 21.6797 22.959 19.1992L22.959 3.76953C22.959 1.2793 21.6797 0 19.1504 0L3.79883 0C1.2793 0 0 1.26953 0 3.76953L0 19.1992C0 21.6992 1.2793 22.959 3.79883 22.959ZM3.83789 21.2305C2.4707 21.2305 1.72852 20.5078 1.72852 19.1016L1.72852 3.85742C1.72852 2.46094 2.4707 1.72852 3.83789 1.72852L19.1211 1.72852C20.459 1.72852 21.2305 2.46094 21.2305 3.85742L21.2305 19.1016C21.2305 20.5078 20.459 21.2305 19.1211 21.2305Z" fill="black" fill-opacity="0.85"/>
  <path d="M8.87695 16.9434L11.9922 16.9434C14.1504 16.9434 15.7617 15.9375 15.7617 13.9258C15.7617 12.4316 14.6973 11.3965 13.1641 11.2305L13.1641 11.1523C14.3848 10.9473 15.2051 9.87305 15.2051 8.73047C15.2051 7.00195 13.7695 6.03516 11.9629 6.03516L8.87695 6.03516C8.38867 6.03516 8.05664 6.36719 8.05664 6.85547L8.05664 16.123C8.05664 16.6113 8.38867 16.9434 8.87695 16.9434ZM9.36523 10.7812L9.36523 7.12891L11.6504 7.12891C12.8809 7.12891 13.8867 7.63672 13.8867 8.88672C13.8867 10.2734 12.7246 10.7812 11.3281 10.7812ZM9.36523 15.8398L9.36523 11.8555L11.6211 11.8555C13.1348 11.8555 14.4336 12.3633 14.4336 13.8477C14.4336 15.3223 13.2227 15.8398 11.7578 15.8398ZM9.6582 6.66992L10.4297 6.66992L10.4297 4.81445C10.4297 4.58984 10.2637 4.42383 10.0488 4.42383C9.81445 4.42383 9.6582 4.58984 9.6582 4.81445ZM11.6406 6.66992L12.4023 6.66992L12.4023 4.81445C12.4023 4.58984 12.2461 4.42383 12.0117 4.42383C11.7969 4.42383 11.6406 4.58984 11.6406 4.81445ZM9.6582 16.2891L9.6582 18.2129C9.6582 18.4375 9.81445 18.5938 10.0488 18.5938C10.2637 18.5938 10.4297 18.4375 10.4297 18.2129L10.4297 16.2891ZM11.6406 16.2891L11.6406 18.2129C11.6406 18.4375 11.7969 18.5938 12.0117 18.5938C12.2461 18.5938 12.4023 18.4375 12.4023 18.2129L12.4023 16.2891Z" fill="black" fill-opacity="0.85"/>
 </g>
</svg>
