<?xml version="1.0" encoding="UTF-8"?>
<!--Generator: Apple Native CoreSVG 326-->
<!DOCTYPE svg
PUBLIC "-//W3C//DTD SVG 1.1//EN"
       "http://www.w3.org/Graphics/SVG/1.1/DTD/svg11.dtd">
<svg version="1.1" xmlns="http://www.w3.org/2000/svg" xmlns:xlink="http://www.w3.org/1999/xlink" viewBox="0 0 26.543 25.6543">
 <g>
  <rect height="25.6543" opacity="0" width="26.543" x="0" y="0"/>
  <path d="M3.17383 3.99414L3.17383 7.09961C3.17383 7.59766 3.52539 7.92969 4.0332 7.92969L24.5215 7.92969C25.0586 7.92969 25.3809 7.58789 25.3809 7.08984L25.3809 3.98438C25.3809 3.48633 25.0488 3.16406 24.5215 3.16406L4.0332 3.16406C3.51562 3.16406 3.17383 3.49609 3.17383 3.99414ZM3.17383 9.89258L3.17383 13.0078C3.17383 13.4961 3.51562 13.8184 4.0332 13.8184L24.5312 13.8184C25.0488 13.8184 25.3809 13.4863 25.3809 13.0078L25.3809 9.88281C25.3809 9.39453 25.0488 9.07227 24.5312 9.07227L4.04297 9.07227C3.52539 9.07227 3.17383 9.39453 3.17383 9.89258ZM3.17383 15.791L3.17383 18.9062C3.17383 19.4043 3.51562 19.7266 4.0332 19.7266L24.5215 19.7266C25.0586 19.7266 25.3809 19.4043 25.3809 18.9062L25.3809 15.7812C25.3809 15.3027 25.0586 14.9805 24.5215 14.9805L4.0332 14.9805C3.52539 14.9805 3.17383 15.3027 3.17383 15.791ZM3.17383 21.6992L3.17383 24.8047C3.17383 25.3027 3.50586 25.625 4.02344 25.625L24.5117 25.625C25.0391 25.625 25.3809 25.3027 25.3809 24.8047L25.3809 21.6992C25.3809 21.1914 25.0488 20.8691 24.5215 20.8691L4.0332 20.8691C3.50586 20.8691 3.17383 21.2012 3.17383 21.6992Z" fill="black" fill-opacity="0.85"/>
  <path d="M0 0.869141C0 1.33789 0.390625 1.72852 0.859375 1.72852L25.3809 1.72852C25.8594 1.72852 26.25 1.33789 26.25 0.869141C26.25 0.390625 25.8594 0 25.3809 0L0.859375 0C0.390625 0 0 0.390625 0 0.869141ZM0.859375 4.6875C1.29883 4.6875 1.64062 4.32617 1.64062 3.90625C1.64062 3.47656 1.29883 3.125 0.859375 3.125C0.429688 3.125 0.0878906 3.47656 0.0878906 3.90625C0.0878906 4.32617 0.429688 4.6875 0.859375 4.6875ZM0.859375 7.61719C1.29883 7.61719 1.64062 7.26562 1.64062 6.83594C1.64062 6.40625 1.29883 6.06445 0.859375 6.06445C0.429688 6.06445 0.0878906 6.40625 0.0878906 6.83594C0.0878906 7.26562 0.429688 7.61719 0.859375 7.61719ZM0.859375 10.5566C1.29883 10.5566 1.64062 10.2051 1.64062 9.77539C1.64062 9.3457 1.29883 9.00391 0.859375 9.00391C0.429688 9.00391 0.0878906 9.3457 0.0878906 9.77539C0.0878906 10.2051 0.429688 10.5566 0.859375 10.5566ZM0.859375 13.4863C1.29883 13.4863 1.64062 13.1348 1.64062 12.7148C1.64062 12.2754 1.29883 11.9336 0.859375 11.9336C0.429688 11.9336 0.0878906 12.2754 0.0878906 12.7148C0.0878906 13.1348 0.429688 13.4863 0.859375 13.4863ZM0.859375 16.4258C1.29883 16.4258 1.64062 16.0742 1.64062 15.6543C1.64062 15.2148 1.29883 14.873 0.859375 14.873C0.429688 14.873 0.0878906 15.2148 0.0878906 15.6543C0.0878906 16.0742 0.429688 16.4258 0.859375 16.4258ZM0.859375 19.3652C1.29883 19.3652 1.64062 19.0039 1.64062 18.584C1.64062 18.1543 1.29883 17.8027 0.859375 17.8027C0.429688 17.8027 0.0878906 18.1543 0.0878906 18.584C0.0878906 19.0039 0.429688 19.3652 0.859375 19.3652ZM0.859375 25.6348C1.32812 25.6348 1.72852 25.2441 1.72852 24.7754L1.72852 21.6113C1.72852 21.1328 1.33789 20.7422 0.859375 20.7422C0.390625 20.7422 0 21.1328 0 21.6113L0 24.7754C0 25.2441 0.400391 25.6348 0.859375 25.6348Z" fill="black" fill-opacity="0.85"/>
 </g>
</svg>
