<?xml version="1.0" encoding="UTF-8"?>
<!--Generator: Apple Native CoreSVG 326-->
<!DOCTYPE svg
PUBLIC "-//W3C//DTD SVG 1.1//EN"
       "http://www.w3.org/Graphics/SVG/1.1/DTD/svg11.dtd">
<svg version="1.1" xmlns="http://www.w3.org/2000/svg" xmlns:xlink="http://www.w3.org/1999/xlink" viewBox="0 0 26.543 25.6543">
 <g>
  <rect height="25.6543" opacity="0" width="26.543" x="0" y="0"/>
  <path d="M4.77539 25.6348L7.61719 25.6348C8.11523 25.6348 8.44727 25.3027 8.44727 24.7852L8.44727 3.85742C8.44727 3.33984 8.11523 3.00781 7.61719 3.00781L4.77539 3.00781C4.28711 3.00781 3.95508 3.33984 3.95508 3.85742L3.95508 24.7852C3.95508 25.3027 4.28711 25.6348 4.77539 25.6348ZM10.4102 25.6348L13.2617 25.6348C13.75 25.6348 14.082 25.3027 14.082 24.7852L14.082 3.85742C14.082 3.33984 13.75 3.00781 13.2617 3.00781L10.4102 3.00781C9.92188 3.00781 9.58984 3.33984 9.58984 3.85742L9.58984 24.7852C9.58984 25.3027 9.92188 25.6348 10.4102 25.6348ZM16.0449 25.6348L18.8965 25.6348C19.3945 25.6348 19.7266 25.3027 19.7266 24.7852L19.7266 3.85742C19.7266 3.33984 19.3945 3.00781 18.8965 3.00781L16.0449 3.00781C15.5664 3.00781 15.2344 3.33984 15.2344 3.85742L15.2344 24.7852C15.2344 25.3027 15.5664 25.6348 16.0449 25.6348ZM21.6895 25.6348L24.5312 25.6348C25.0293 25.6348 25.3613 25.3027 25.3613 24.7852L25.3613 3.85742C25.3613 3.33984 25.0293 3.00781 24.5312 3.00781L21.6895 3.00781C21.2012 3.00781 20.8691 3.33984 20.8691 3.85742L20.8691 24.7852C20.8691 25.3027 21.2012 25.6348 21.6895 25.6348Z" fill="black" fill-opacity="0.85"/>
  <path d="M0 0.869141C0 1.33789 0.390625 1.72852 0.859375 1.72852L25.3809 1.72852C25.8594 1.72852 26.25 1.33789 26.25 0.869141C26.25 0.390625 25.8594 0 25.3809 0L0.859375 0C0.390625 0 0 0.390625 0 0.869141ZM0.859375 4.6875C1.29883 4.6875 1.64062 4.32617 1.64062 3.90625C1.64062 3.47656 1.29883 3.125 0.859375 3.125C0.429688 3.125 0.0878906 3.47656 0.0878906 3.90625C0.0878906 4.32617 0.429688 4.6875 0.859375 4.6875ZM0.859375 7.61719C1.29883 7.61719 1.64062 7.26562 1.64062 6.83594C1.64062 6.40625 1.29883 6.06445 0.859375 6.06445C0.429688 6.06445 0.0878906 6.40625 0.0878906 6.83594C0.0878906 7.26562 0.429688 7.61719 0.859375 7.61719ZM0.859375 10.5566C1.29883 10.5566 1.64062 10.2051 1.64062 9.77539C1.64062 9.3457 1.29883 9.00391 0.859375 9.00391C0.429688 9.00391 0.0878906 9.3457 0.0878906 9.77539C0.0878906 10.2051 0.429688 10.5566 0.859375 10.5566ZM0.859375 13.4863C1.29883 13.4863 1.64062 13.1348 1.64062 12.7148C1.64062 12.2754 1.29883 11.9336 0.859375 11.9336C0.429688 11.9336 0.0878906 12.2754 0.0878906 12.7148C0.0878906 13.1348 0.429688 13.4863 0.859375 13.4863ZM0.859375 16.4258C1.29883 16.4258 1.64062 16.0742 1.64062 15.6543C1.64062 15.2148 1.29883 14.873 0.859375 14.873C0.429688 14.873 0.0878906 15.2148 0.0878906 15.6543C0.0878906 16.0742 0.429688 16.4258 0.859375 16.4258ZM0.859375 19.3652C1.29883 19.3652 1.64062 19.0039 1.64062 18.584C1.64062 18.1543 1.29883 17.8027 0.859375 17.8027C0.429688 17.8027 0.0878906 18.1543 0.0878906 18.584C0.0878906 19.0039 0.429688 19.3652 0.859375 19.3652ZM0.859375 25.6348C1.32812 25.6348 1.72852 25.2441 1.72852 24.7754L1.72852 21.6113C1.72852 21.1328 1.33789 20.7422 0.859375 20.7422C0.390625 20.7422 0 21.1328 0 21.6113L0 24.7754C0 25.2441 0.400391 25.6348 0.859375 25.6348Z" fill="black" fill-opacity="0.85"/>
 </g>
</svg>
