<?xml version="1.0" ?><!-- Generator: Adobe Illustrator 25.0.0, SVG Export Plug-In . SVG Version: 6.00 Build 0)  --><svg xmlns="http://www.w3.org/2000/svg" xmlns:xlink="http://www.w3.org/1999/xlink" version="1.1" id="Layer_1" x="0px" y="0px" viewBox="0 0 512 512" style="enable-background:new 0 0 512 512;" xml:space="preserve">
<path d="M103.7,512h186.5c109.6,0,178.7-57.6,178.7-146.1c0-69.8-50.5-120.3-123.2-124.2v-2.9c59.4-8.2,99.9-53,99.9-109.9  C445.6,49.1,384.4,0,285.2,0H103.7C65.3,0,43.1,22.6,43.1,61.9v388.5C43.1,489.4,65.3,512,103.7,512z M161.3,212.7V84.1h88.1  c50.1,0,79.8,22.9,79.8,62.3c0,41.5-32.9,66.2-88.8,66.2H161.3z M161.3,429.3V287.1h89.9c62.7,0,97.7,24.3,97.7,70.2  c0,46.9-33.7,72-95.2,72H161.3z"/>
</svg>