<?xml version="1.0" encoding="UTF-8"?>
<!--Generator: Apple Native CoreSVG 326-->
<!DOCTYPE svg
PUBLIC "-//W3C//DTD SVG 1.1//EN"
       "http://www.w3.org/Graphics/SVG/1.1/DTD/svg11.dtd">
<svg version="1.1" xmlns="http://www.w3.org/2000/svg" xmlns:xlink="http://www.w3.org/1999/xlink" viewBox="0 0 33.7012 26.1816">
 <g>
  <rect height="26.1816" opacity="0" width="33.7012" x="0" y="0"/>
  <path d="M19.5508 26.1816L32.6758 26.1816C33.0469 26.1816 33.3398 25.8984 33.3398 25.5273C33.3398 25.1562 33.0469 24.873 32.6758 24.873L19.5508 24.873C19.1895 24.873 18.8867 25.1562 18.8867 25.5273C18.8867 25.8984 19.1895 26.1816 19.5508 26.1816Z" fill="black" fill-opacity="0.85"/>
  <path d="M26.1133 22.4316C30.5762 22.4316 33.3398 19.7461 33.3398 15.791L33.3398 4.77539C33.3398 4.16992 32.9395 3.78906 32.3438 3.78906C31.748 3.78906 31.3672 4.16992 31.3672 4.77539L31.3672 15.6348C31.3672 18.6328 29.4043 20.625 26.1133 20.625C22.832 20.625 20.8594 18.6328 20.8594 15.6348L20.8594 4.77539C20.8594 4.16992 20.459 3.78906 19.8633 3.78906C19.2676 3.78906 18.8867 4.16992 18.8867 4.77539L18.8867 15.791C18.8867 19.7461 21.6602 22.4316 26.1133 22.4316Z" fill="black" fill-opacity="0.85"/>
  <path d="M1.92383 22.1191L8.39844 22.1191C12.2656 22.1191 14.6875 20.1074 14.6875 16.9824C14.6875 14.5215 12.9102 12.7539 10.3516 12.5977L10.3516 12.4902C12.4219 12.1973 13.8379 10.5859 13.8379 8.59375C13.8379 5.80078 11.6895 4.0625 8.24219 4.0625L1.92383 4.0625C0.703125 4.0625 0 4.78516 0 6.02539L0 20.1465C0 21.3965 0.703125 22.1191 1.92383 22.1191ZM3.7793 19.3848L3.7793 14.0918L7.17773 14.0918C9.54102 14.0918 10.8398 15.0098 10.8398 16.7188C10.8398 18.457 9.58008 19.3848 7.28516 19.3848ZM3.7793 11.6309L3.7793 6.81641L7.13867 6.81641C9.00391 6.81641 10.1074 7.67578 10.1074 9.15039C10.1074 10.7031 8.87695 11.6309 6.77734 11.6309Z" fill="black" fill-opacity="0.85"/>
 </g>
</svg>
