<?xml version="1.0" encoding="UTF-8"?>
<!--Generator: Apple Native CoreSVG 326-->
<!DOCTYPE svg
PUBLIC "-//W3C//DTD SVG 1.1//EN"
       "http://www.w3.org/Graphics/SVG/1.1/DTD/svg11.dtd">
<svg version="1.1" xmlns="http://www.w3.org/2000/svg" xmlns:xlink="http://www.w3.org/1999/xlink" viewBox="0 0 23.3203 22.959">
 <g>
  <rect height="22.959" opacity="0" width="23.3203" x="0" y="0"/>
  <path d="M3.79883 22.959L19.1504 22.959C21.6797 22.959 22.959 21.6797 22.959 19.1992L22.959 3.76953C22.959 1.2793 21.6797 0 19.1504 0L3.79883 0C1.2793 0 0 1.26953 0 3.76953L0 19.1992C0 21.6992 1.2793 22.959 3.79883 22.959ZM3.83789 21.2305C2.4707 21.2305 1.72852 20.5078 1.72852 19.1016L1.72852 3.85742C1.72852 2.46094 2.4707 1.72852 3.83789 1.72852L19.1211 1.72852C20.459 1.72852 21.2305 2.46094 21.2305 3.85742L21.2305 19.1016C21.2305 20.5078 20.459 21.2305 19.1211 21.2305Z" fill="black" fill-opacity="0.85"/>
  <path d="M5.92773 12.3828C5.92773 12.6758 6.15234 12.8809 6.45508 12.8809L10.8008 12.8809L8.47656 19.1504C8.18359 19.9023 8.97461 20.3027 9.47266 19.707L16.5039 10.8789C16.6309 10.7227 16.6992 10.5566 16.6992 10.4102C16.6992 10.1172 16.4648 9.92188 16.1719 9.92188L11.8262 9.92188L14.1504 3.65234C14.4336 2.90039 13.6426 2.49023 13.1543 3.0957L6.12305 11.9141C5.99609 12.0801 5.92773 12.2461 5.92773 12.3828Z" fill="black" fill-opacity="0.85"/>
 </g>
</svg>
