<?xml version="1.0" ?><!-- Generator: Adobe Illustrator 25.0.0, SVG Export Plug-In . SVG Version: 6.00 Build 0)  --><svg xmlns="http://www.w3.org/2000/svg" xmlns:xlink="http://www.w3.org/1999/xlink" version="1.1" id="Layer_1" x="0px" y="0px" viewBox="0 0 512 512" style="enable-background:new 0 0 512 512;" xml:space="preserve">
<path d="M256,512c35,0,67.9-6.7,98.8-20.1c30.9-13.4,58.1-31.9,81.7-55.5c23.6-23.6,42.1-50.8,55.5-81.7  C505.3,323.9,512,291,512,256s-6.7-67.9-20.1-98.8c-13.4-30.9-31.9-58.1-55.5-81.7c-23.6-23.6-50.9-42.1-81.8-55.5  C323.7,6.7,290.7,0,255.7,0S187.9,6.7,157,20.1C126.1,33.5,98.9,52,75.4,75.5c-23.5,23.6-42,50.8-55.3,81.7C6.7,188.1,0,221,0,256  s6.7,67.9,20.1,98.8c13.4,30.9,31.9,58.1,55.5,81.7c23.6,23.6,50.8,42.1,81.7,55.5C188.1,505.3,221,512,256,512z M256,469.3  c-29.6,0-57.3-5.5-83.1-16.6c-25.8-11-48.4-26.3-67.9-45.8c-19.5-19.5-34.7-42.1-45.7-67.9c-11-25.8-16.4-53.5-16.4-83.1  c0-29.6,5.5-57.3,16.4-83.1c11-25.8,26.1-48.4,45.6-68s42-34.8,67.8-45.8c25.8-11,53.5-16.4,83.1-16.4c29.6,0,57.3,5.5,83.1,16.4  c25.8,11,48.4,26.2,68,45.8c19.6,19.6,34.9,42.2,45.9,68c11,25.8,16.6,53.5,16.6,83.1c0,29.6-5.5,57.3-16.4,83.1  c-11,25.8-26.2,48.4-45.7,67.9c-19.5,19.5-42.2,34.8-68,45.8C313.3,463.8,285.6,469.3,256,469.3z" class="multicolor-0:systemGreenColor hierarchical-0:secondary SFSymbolsPreview28CD41" style="fill: #28CD41;"/>
<path d="M118.2,339.1c0,4.4,1.5,8,4.4,10.9c2.9,2.9,6.6,4.4,10.9,4.4h13.8c4.4,0,8-1.5,11-4.4c3-2.9,4.5-6.6,4.5-10.9v-19.3  c12.9,0.8,27.9,1.5,44.9,2c17.1,0.5,33.1,0.8,48.2,0.8c14.9,0,30.9-0.3,47.9-0.8c17.1-0.5,32-1.2,44.9-2v19.3c0,4.4,1.5,8,4.4,10.9  c2.9,2.9,6.6,4.4,10.9,4.4H378c4.4,0,8-1.5,11-4.4c3-2.9,4.5-6.6,4.5-10.9v-67c0-9.7-1.1-17.8-3.4-24.2c-2.3-6.4-6.1-13.2-11.4-20.2  l-9.8-12.5c-2.3-10.5-5.1-20.7-8.3-30.5c-3.2-9.8-5.8-16.9-7.8-21.2c-3-6.5-7.4-11.7-13.3-15.4c-5.9-3.8-12.6-6.2-20.3-7.4  c-4-0.5-11.8-0.9-23.5-1.1c-11.6-0.3-24.9-0.4-39.8-0.4c-15.1,0-28.4,0.1-40,0.4c-11.6,0.3-19.5,0.6-23.5,1.1  c-7.7,1-14.5,3.4-20.3,7.3c-5.9,3.8-10.3,9-13.3,15.6c-2,4.4-4.6,11.4-7.9,21.2c-3.3,9.8-5.9,20-7.9,30.5l-10,12.5  c-5.4,7-9.2,13.8-11.4,20.2c-2.3,6.4-3.4,14.5-3.4,24.2V339.1z M214.6,239.9c0-1.5,0.6-3,1.8-4.5l50.4-64.5c2.3-3.2,4.9-4.1,7.5-2.6  c2.7,1.4,3.3,4,2,7.7l-15.8,41.9h31.6c3.3,0,5,1.8,5,5.3c0,1.3-0.6,2.8-1.8,4.3l-49.9,64.5c-2.2,3.2-4.7,4-7.7,2.5  c-2.9-1.5-3.6-4.1-2.1-7.8l15.6-42.2h-31.6C216.3,244.5,214.6,242.9,214.6,239.9z" class="multicolor-0:systemGreenColor hierarchical-1:primary SFSymbolsPreview28CD41" style="fill: #28CD41;"/>
</svg>