<?xml version="1.0" ?><!-- Generator: Adobe Illustrator 25.0.0, SVG Export Plug-In . SVG Version: 6.00 Build 0)  --><svg xmlns="http://www.w3.org/2000/svg" xmlns:xlink="http://www.w3.org/1999/xlink" version="1.1" id="Layer_1" x="0px" y="0px" viewBox="0 0 512 512" style="enable-background:new 0 0 512 512;" xml:space="preserve">
<path d="M87.3,512h337.3c29.1,0,50.9-7.2,65.5-21.6c14.6-14.4,21.8-35.9,21.8-64.7V86.2c0-28.7-7.3-50.3-21.8-64.7  C475.6,7.2,453.8,0,424.7,0H87.3C58.2,0,36.4,7.2,21.8,21.6C7.3,35.9,0,57.5,0,86.2v339.6c0,28.7,7.3,50.3,21.8,64.7  C36.4,504.8,58.2,512,87.3,512z" class="multicolor-0:systemYellowColor hierarchical-0:tertiary SFSymbolsPreviewFFCC00" style="fill: #FFCC00;"/>
<path d="M130.7,275.1c0-3.9,1.6-7.6,4.7-11.1L292.6,66.7c4.1-5,8.5-7.5,13.2-7.4c4.7,0.1,8.4,2,11.1,5.8c2.7,3.8,2.8,8.8,0.4,14.9  l-52,139.3h97.3c3.7,0,6.8,1.2,9.3,3.6c2.5,2.4,3.8,5.5,3.8,9.2c0,3.7-1.6,7.4-4.7,11.1L213.9,440.5c-3.9,5-8.3,7.5-13.1,7.4  c-4.8-0.1-8.6-2.1-11.3-6c-2.7-3.9-2.8-8.9-0.4-15l52-139.3h-97.3c-3.7,0-6.8-1.2-9.3-3.5C132,281.8,130.7,278.8,130.7,275.1z" class="multicolor-1:white hierarchical-1:primary SFSymbolsPreviewFFFFFF" style="fill: #FFFFFF;"/>
</svg>