<?xml version="1.0" encoding="UTF-8"?>
<!--Generator: Apple Native CoreSVG 326-->
<!DOCTYPE svg
PUBLIC "-//W3C//DTD SVG 1.1//EN"
       "http://www.w3.org/Graphics/SVG/1.1/DTD/svg11.dtd">
<svg version="1.1" xmlns="http://www.w3.org/2000/svg" xmlns:xlink="http://www.w3.org/1999/xlink" viewBox="0 0 24.7461 23.4668">
 <g>
  <rect height="23.4668" opacity="0" width="24.7461" x="0" y="0"/>
  <path d="M0.00976562 8.1543C0.00976562 13.457 4.57031 18.6523 11.5527 23.1543C11.7969 23.3105 12.1387 23.4668 12.3828 23.4668C12.6172 23.4668 12.959 23.3105 13.2031 23.1543C20.1953 18.6523 24.7461 13.457 24.7461 8.1543C24.7461 3.79883 21.748 0.693359 17.7344 0.693359C15.4297 0.693359 13.4863 1.8457 12.3828 3.61328C11.2891 1.85547 9.32617 0.693359 7.03125 0.693359C3.01758 0.693359 0.00976562 3.79883 0.00976562 8.1543ZM1.74805 8.1543C1.74805 4.73633 3.98438 2.42188 7.01172 2.42188C9.36523 2.42188 10.7715 3.88672 11.6211 5.26367C11.9141 5.71289 12.1094 5.84961 12.3828 5.84961C12.6465 5.84961 12.8223 5.70312 13.1348 5.26367C14.0234 3.90625 15.4102 2.42188 17.7539 2.42188C20.7812 2.42188 23.0176 4.73633 23.0176 8.1543C23.0176 12.8711 18.0762 17.8906 12.6172 21.5234C12.5098 21.5918 12.4316 21.6504 12.3828 21.6504C12.334 21.6504 12.2559 21.5918 12.1484 21.5234C6.67969 17.8906 1.74805 12.8711 1.74805 8.1543Z" fill="black" fill-opacity="0.85"/>
  <path d="M8.21289 13.3789C8.21289 13.5938 8.38867 13.7402 8.59375 13.7402L11.7871 13.7402L10.0781 18.3203C9.86328 18.877 10.4492 19.1699 10.8105 18.7207L15.9375 12.2754C16.0352 12.1582 16.0938 12.041 16.0938 11.9336C16.0938 11.7285 15.9082 11.5723 15.6934 11.5723L12.5195 11.5723L14.2188 6.99219C14.4238 6.44531 13.8477 6.14258 13.4863 6.5918L8.35938 13.0371C8.26172 13.1641 8.21289 13.2715 8.21289 13.3789Z" fill="black" fill-opacity="0.85"/>
 </g>
</svg>
