<?xml version="1.0" ?><!-- Generator: Adobe Illustrator 25.0.0, SVG Export Plug-In . SVG Version: 6.00 Build 0)  --><svg xmlns="http://www.w3.org/2000/svg" xmlns:xlink="http://www.w3.org/1999/xlink" version="1.1" id="Layer_1" x="0px" y="0px" viewBox="0 0 512 512" style="enable-background:new 0 0 512 512;" xml:space="preserve">
<path d="M256,512c2,0,4.6-0.4,7.6-1.3c3-0.8,6.2-2.1,9.4-3.8c36.2-20.3,66.6-38.2,91.4-53.9c24.8-15.6,44.7-30.8,59.7-45.5  c15-14.7,25.9-30.6,32.6-47.8c6.7-17.2,10-37.3,10-60.5V105.4c0-13.3-2.8-22.9-8.4-28.6c-5.6-5.7-13.8-10.9-24.6-15.5  c-5.9-2.5-14.1-5.8-24.6-9.8c-10.5-4-22-8.3-34.6-12.9c-12.6-4.6-25.2-9.3-37.9-13.8c-12.7-4.6-24.2-8.7-34.7-12.4  c-10.5-3.7-18.7-6.6-24.6-8.6c-3.4-1-6.9-1.9-10.5-2.7C263.1,0.4,259.5,0,256,0c-3.5,0-7.1,0.4-10.6,1.3c-3.5,0.8-7,1.7-10.4,2.5  c-6.1,1.7-14.4,4.4-24.8,8c-10.5,3.6-22,7.8-34.6,12.4c-12.6,4.6-25.2,9.3-37.9,14.1c-12.7,4.7-24.2,9.1-34.7,13.2  c-10.5,4.1-18.7,7.4-24.6,9.9c-10.6,4.4-18.8,9.5-24.5,15.3c-5.7,5.8-8.5,15.4-8.5,28.8v193.9c0,23.1,3.4,43.3,10.1,60.3  c6.8,17.1,17.7,33,32.7,47.7c15,14.7,34.9,29.9,59.7,45.6c24.8,15.7,55.1,33.7,91.1,54c3.2,1.7,6.3,3,9.4,3.8  C251.4,511.6,254,512,256,512z M256,466.1c-2,0-4.2-0.5-6.6-1.4c-2.4-0.9-5.4-2.5-9.1-4.7c-29.2-17.7-53.8-33-73.6-45.8  c-19.9-12.8-35.7-24.9-47.5-36.5c-11.8-11.6-20.4-24.2-25.6-37.9c-5.2-13.7-7.9-30.3-7.9-49.9V113.3c0-4.2,0.5-7.4,1.6-9.5  c1.1-2.1,3.4-3.8,7-5.2c7.6-3,16.5-6.4,26.6-10.1c10.1-3.7,20.9-7.6,32.2-11.7c11.3-4.1,22.6-8.1,34-12c11.3-4,22.1-7.8,32.2-11.5  c10.1-3.7,19-7.1,26.6-10.1c2-0.8,3.9-1.4,5.6-1.8c1.7-0.3,3.2-0.5,4.6-0.5c1.4,0,2.9,0.2,4.6,0.5c1.7,0.3,3.5,0.9,5.6,1.8  c7.6,3,16.5,6.5,26.6,10.3c10.1,3.8,20.8,7.8,32.1,11.9c11.2,4.1,22.5,8.2,33.7,12.3c11.2,4.1,22,7.9,32.2,11.5  c10.2,3.6,19.3,6.8,27.2,9.5c3.4,1.2,5.6,2.9,6.7,5.1c1.1,2.2,1.6,5.4,1.6,9.6V290c0,19.6-2.6,36.2-7.7,49.9  c-5.2,13.7-13.7,26.3-25.6,37.8c-11.9,11.5-27.8,23.7-47.7,36.5c-19.9,12.8-44.4,28.1-73.6,45.9c-3.7,2.2-6.8,3.8-9.1,4.7  C260.2,465.7,258,466.1,256,466.1z" class="hierarchical-0:secondary SFSymbolsPreview4D4D4D" style="fill: #4D4D4D;"/>
<path d="M150.3,260.3c0,3.1,1.1,5.6,3.3,7.5c2.2,1.9,4.8,2.9,7.8,2.9h81.8L199.5,388c-1.9,5.1-1.8,9.3,0.4,12.6  c2.2,3.2,5.3,4.9,9.3,5.1c4,0.2,7.7-1.9,11.1-6l132.3-166.1c2.7-3.2,4.1-6.4,4.1-9.4c0-3.1-1.1-5.6-3.3-7.6c-2.2-2-4.8-3-7.8-3  h-81.8l43.7-117.3c1.9-5.1,1.8-9.3-0.4-12.6c-2.2-3.2-5.3-4.9-9.3-4.9c-4-0.1-7.7,2-11.1,6.2L154.4,250.9  C151.6,254,150.3,257.1,150.3,260.3z" class="hierarchical-1:primary SFSymbolsPreview212121" style="fill: #212121;"/>
</svg>