<?xml version="1.0" encoding="UTF-8"?>
<!--Generator: Apple Native CoreSVG 326-->
<!DOCTYPE svg
PUBLIC "-//W3C//DTD SVG 1.1//EN"
       "http://www.w3.org/Graphics/SVG/1.1/DTD/svg11.dtd">
<svg version="1.1" xmlns="http://www.w3.org/2000/svg" xmlns:xlink="http://www.w3.org/1999/xlink" viewBox="0 0 25.8008 25.459">
 <g>
  <rect height="25.459" opacity="0" width="25.8008" x="0" y="0"/>
  <path d="M12.7148 25.4395C19.7363 25.4395 25.4395 19.7461 25.4395 12.7246C25.4395 5.70312 19.7363 0 12.7148 0C5.69336 0 0 5.70312 0 12.7246C0 19.7461 5.69336 25.4395 12.7148 25.4395ZM12.7148 23.623C6.68945 23.623 1.81641 18.75 1.81641 12.7246C1.81641 6.69922 6.68945 1.82617 12.7148 1.82617C18.7402 1.82617 23.6133 6.69922 23.6133 12.7246C23.6133 18.75 18.7402 23.623 12.7148 23.623Z" fill="black" fill-opacity="0.85"/>
  <path d="M5.75195 16.9922C5.75195 17.4219 6.09375 17.7637 6.52344 17.7637L7.22656 17.7637C7.65625 17.7637 7.99805 17.4219 7.99805 16.9922L7.99805 16.0156C9.31641 16.0938 11.2109 16.1523 12.7148 16.1523C14.2285 16.1523 16.1133 16.0938 17.4316 16.0156L17.4316 16.9922C17.4316 17.4219 17.7734 17.7637 18.2031 17.7637L18.8965 17.7637C19.3359 17.7637 19.6777 17.4219 19.6777 16.9922L19.6777 13.6328C19.6777 12.6172 19.4531 12.0703 18.9258 11.3965L18.4277 10.7324C18.1934 9.64844 17.8027 8.52539 17.6074 8.08594C17.2852 7.42188 16.6797 7.05078 15.918 6.95312C15.5176 6.9043 14.1992 6.86523 12.7148 6.86523C11.2305 6.86523 9.91211 6.9043 9.51172 6.95312C8.75 7.04102 8.14453 7.42188 7.82227 8.08594C7.62695 8.52539 7.22656 9.64844 7.01172 10.7324L6.50391 11.3965C5.97656 12.0703 5.75195 12.6172 5.75195 13.6328ZM10.6738 11.9434C10.6738 11.875 10.7031 11.8066 10.7617 11.7383L13.3008 8.4668C13.5156 8.18359 13.877 8.35938 13.7402 8.70117L12.9395 10.8496L14.5215 10.8496C14.6484 10.8496 14.7559 10.9473 14.7559 11.084C14.7559 11.1523 14.7168 11.2305 14.668 11.2891L12.1387 14.5605C11.9238 14.8438 11.5625 14.6484 11.6895 14.3066L12.5 12.1582L10.9082 12.1582C10.7812 12.1582 10.6738 12.0605 10.6738 11.9434Z" fill="black" fill-opacity="0.85"/>
 </g>
</svg>
