<?xml version="1.0" ?><!-- Generator: Adobe Illustrator 25.0.0, SVG Export Plug-In . SVG Version: 6.00 Build 0)  --><svg xmlns="http://www.w3.org/2000/svg" xmlns:xlink="http://www.w3.org/1999/xlink" version="1.1" id="Layer_1" x="0px" y="0px" viewBox="0 0 512 512" style="enable-background:new 0 0 512 512;" xml:space="preserve">
<path d="M68.2,455.9h375.6c45.6,0,68.2-22.6,68.2-67.3V178.8c0-44.7-22.6-67.3-68.2-67.3H416V82.6c0-16.7-9.6-26.5-26.3-26.5h-64.1  c-16.5,0-26.1,9.8-26.1,26.5v28.9h-87.5V82.6c0-16.7-9.6-26.5-26.3-26.5h-64.1c-16.7,0-26.3,9.8-26.3,26.5v28.9H68.2  C22.8,111.5,0,133.9,0,178.8v209.8C0,433.5,22.8,455.9,68.2,455.9z M68.6,420.9c-21.7,0-33.7-11.5-33.7-34.1V180.5  c0-22.4,11.9-34.1,33.7-34.1h374.8c21.5,0,33.7,11.7,33.7,34.1v206.3c0,22.6-12.2,34.1-33.7,34.1H68.6z M187.4,297.8  c0,3.9,3.3,6.9,7.2,6.9h54.1l-28.9,76.9c-3.9,10.4,7.2,15.9,13.9,7.6L320.3,280c2-2,2.8-4.1,2.8-6.3c0-3.9-3.3-6.7-7.4-6.7h-53.6  l28.7-77.1c3.7-10.2-7.2-15.9-13.7-7.6L190,291.5C188.5,293.7,187.4,295.8,187.4,297.8z"/>
</svg>