<?xml version="1.0" encoding="UTF-8"?>
<!--Generator: Apple Native CoreSVG 326-->
<!DOCTYPE svg
PUBLIC "-//W3C//DTD SVG 1.1//EN"
       "http://www.w3.org/Graphics/SVG/1.1/DTD/svg11.dtd">
<svg version="1.1" xmlns="http://www.w3.org/2000/svg" xmlns:xlink="http://www.w3.org/1999/xlink" viewBox="0 0 34.5178 16.3184">
 <g>
  <rect height="16.3184" opacity="0" width="34.5178" x="0" y="0"/>
  <path d="M0.378992 13.5254C-0.66593 14.8633 0.65243 15.9668 1.8829 15.2539L10.9942 10.0195L22.0782 15.9668C22.5079 16.1914 22.879 16.3184 23.2306 16.3184C23.7384 16.3184 24.1974 16.084 24.627 15.5371L33.836 3.88672C34.7247 2.75391 33.6505 1.37695 32.3028 2.12891L23.2208 7.39258L12.1075 1.43555C11.6876 1.20117 11.3067 1.09375 10.9552 1.09375C10.4571 1.09375 10.0177 1.32812 9.58798 1.875ZM2.8204 13.125C2.69345 13.2031 2.62509 13.0859 2.71298 12.9785L10.838 3.04688C10.9845 2.86133 11.1309 2.83203 11.3263 2.93945L22.7716 9.05273C23.2599 9.31641 23.4259 9.24805 23.8263 9.00391L31.4044 4.24805C31.5216 4.16992 31.629 4.29688 31.5411 4.4043L23.3673 14.3652C23.2208 14.5508 23.0743 14.5801 22.879 14.4727L11.4337 8.35938C10.9454 8.0957 10.7794 8.16406 10.3888 8.4082Z" fill="black" fill-opacity="0.85"/>
 </g>
</svg>
