<?xml version="1.0" ?><!-- Generator: Adobe Illustrator 25.0.0, SVG Export Plug-In . SVG Version: 6.00 Build 0)  --><svg xmlns="http://www.w3.org/2000/svg" xmlns:xlink="http://www.w3.org/1999/xlink" version="1.1" id="Layer_1" x="0px" y="0px" viewBox="0 0 512 512" style="enable-background:new 0 0 512 512;" xml:space="preserve">
<path d="M39.8,456.7h25.3c16.2,0,28.8-12.3,28.8-28.3v-35.7c47.2,2.8,110.6,4.5,162.1,4.5c51.5,0,114.9-1.7,162.3-4.5v35.7  c0,16,12.3,28.3,28.6,28.3h25.5c16.2,0,28.6-12.3,28.6-28.3v-54.7c7.4-7.8,11-18.6,11-32v-38.1c0-36.4-7.4-56.9-27.3-82.9L466.3,197  c-7.8-39-22.3-79.9-29.6-95.9c-11.7-24.5-34-39-62.8-42.8c-14.5-1.7-61.9-3-117.9-3c-55.8,0-103.2,1.5-117.7,3  c-28.8,3.5-51.3,18.4-62.8,42.8c-7.6,16-21.9,56.9-29.9,95.9l-18.2,23.6C7.4,246.6,0,267.1,0,303.5v38.1c0,13.4,3.9,24.2,11,32v54.7  C11,444.4,23.6,456.7,39.8,456.7z M256,368.9c-73.6,0-167.9-3.2-202.8-7.6c-18.4-2.4-24.9-11.9-24.9-28.3v-29.4  c0-29.6,4.8-43.5,21.6-65.4l22.1-29c5.8-31.4,19.9-75.3,29.2-95c6.9-15.1,20.6-24.5,40.3-26.8c13.8-1.5,57.8-3.7,114.5-3.7  c56.9,0,101.5,2.2,114,3.7c20.3,2.6,33.8,11.9,40.9,26.8c9.3,19.7,23.4,63.6,29,95l22.3,29c16.7,21.9,21.4,35.7,21.4,65.4v29.4  c0,16.4-6.5,26.2-24.9,28.3C424.1,365.4,329.6,368.9,256,368.9z M187.6,239.2c0,3.9,3.2,6.9,7.4,6.9h53.7l-28.8,76.6  c-3.9,10.4,7.1,16,13.8,7.6l86.3-108.8c1.9-1.9,3-4.1,3-6.1c0-4.1-3.5-6.9-7.6-6.9h-53.5l28.6-76.8c3.7-10.2-7.1-15.8-13.6-7.4  L190.2,233C188.7,235.1,187.6,237.3,187.6,239.2z"/>
</svg>