<?xml version="1.0" ?><!-- Generator: Adobe Illustrator 25.0.0, SVG Export Plug-In . SVG Version: 6.00 Build 0)  --><svg xmlns="http://www.w3.org/2000/svg" xmlns:xlink="http://www.w3.org/1999/xlink" version="1.1" id="Layer_1" x="0px" y="0px" viewBox="0 0 512 512" style="enable-background:new 0 0 512 512;" xml:space="preserve">
<path d="M68.2,455.9h375.6c45.6,0,68.2-22.6,68.2-67.3V178.8c0-44.7-22.6-67.3-68.2-67.3H416V82.6c0-16.7-9.6-26.5-26.3-26.5h-64.1  c-16.5,0-26.1,9.8-26.1,26.5v28.9h-87.5V82.6c0-16.7-9.6-26.5-26.3-26.5h-64.1c-16.7,0-26.3,9.8-26.3,26.5v28.9H68.2  C22.8,111.5,0,133.9,0,178.8v209.8C0,433.5,22.8,455.9,68.2,455.9z M185.2,298.7c0-2.2,1.1-4.3,2.8-6.5l89.7-112.7  c6.7-8.5,18-2.6,14.1,7.8l-29.5,79.5h55.4c4.1,0,7.6,3,7.6,6.9c0,2.4-0.9,4.6-3,6.5L233,392.9c-6.9,8.5-18.5,2.8-14.3-7.8l29.7-79.3  h-55.8C188.7,305.8,185.2,302.6,185.2,298.7z"/>
</svg>