<?xml version="1.0" ?><!-- Generator: Adobe Illustrator 25.0.0, SVG Export Plug-In . SVG Version: 6.00 Build 0)  --><svg xmlns="http://www.w3.org/2000/svg" xmlns:xlink="http://www.w3.org/1999/xlink" version="1.1" id="Layer_1" x="0px" y="0px" viewBox="0 0 512 512" style="enable-background:new 0 0 512 512;" xml:space="preserve">
<path d="M203.2,502.5l208.3-267.8c3.9-4.8,6-9.4,6-14.7c0-8.7-6.9-15.4-16.5-15.4H271.5l68.3-178.2c9.2-23.6-16-36.4-30.9-16.7  L100.5,277.3c-3.9,5-6,9.6-6,14.7c0,8.9,6.9,15.6,16.5,15.6h129.4l-68.3,178C163.1,509.1,188.3,522,203.2,502.5z M293.5,273.4H151.9  l129.2-171.6l-62.5,137h141.4L230.7,410.4L293.5,273.4z"/>
</svg>