<?xml version="1.0" encoding="UTF-8"?>
<!--Generator: Apple Native CoreSVG 326-->
<!DOCTYPE svg
PUBLIC "-//W3C//DTD SVG 1.1//EN"
       "http://www.w3.org/Graphics/SVG/1.1/DTD/svg11.dtd">
<svg version="1.1" xmlns="http://www.w3.org/2000/svg" xmlns:xlink="http://www.w3.org/1999/xlink" viewBox="0 0 24.7461 23.4668">
 <g>
  <rect height="23.4668" opacity="0" width="24.7461" x="0" y="0"/>
  <path d="M24.7461 8.1543C24.7461 13.457 20.1953 18.6523 13.2031 23.1543C12.959 23.3105 12.6172 23.4668 12.3828 23.4668C12.1387 23.4668 11.7969 23.3105 11.5527 23.1543C4.57031 18.6523 0.00976562 13.457 0.00976562 8.1543C0.00976562 3.79883 3.01758 0.693359 6.93359 0.693359C9.32617 0.693359 11.2891 2.05078 12.3828 4.11133C13.4863 2.04102 15.4297 0.693359 17.832 0.693359C21.748 0.693359 24.7461 3.79883 24.7461 8.1543ZM13.5254 6.46484L8.26172 13.0664C8.16406 13.1934 8.11523 13.3008 8.11523 13.418C8.11523 13.6328 8.29102 13.7891 8.50586 13.7891L11.7773 13.7891L10.0195 18.4766C9.80469 19.043 10.4102 19.3457 10.7812 18.8867L16.0254 12.2852C16.1328 12.1777 16.1914 12.0508 16.1914 11.9336C16.1914 11.7285 15.9961 11.5625 15.791 11.5625L12.5293 11.5625L14.2773 6.875C14.4824 6.30859 13.8867 6.00586 13.5254 6.46484Z" fill="black" fill-opacity="0.85"/>
 </g>
</svg>
