<?xml version="1.0" encoding="UTF-8"?>
<!--Generator: Apple Native CoreSVG 326-->
<!DOCTYPE svg
PUBLIC "-//W3C//DTD SVG 1.1//EN"
       "http://www.w3.org/Graphics/SVG/1.1/DTD/svg11.dtd">
<svg version="1.1" xmlns="http://www.w3.org/2000/svg" xmlns:xlink="http://www.w3.org/1999/xlink" viewBox="0 0 29.9512 21.3574">
 <g>
  <rect height="21.3574" opacity="0" width="29.9512" x="0" y="0"/>
  <path d="M10.9277 1.46484L10.9277 3.23242L18.6523 3.23242L18.6523 1.46484C18.6523 0.556641 19.1797 0.00976562 20.1074 0.00976562L22.7051 0.00976562C23.6426 0.00976562 24.1602 0.556641 24.1602 1.46484L24.1602 3.23242L25.7812 3.23242C28.3105 3.23242 29.5898 4.50195 29.5898 6.99219L29.5898 17.5977C29.5898 20.0879 28.3105 21.3574 25.7812 21.3574L3.79883 21.3574C1.2793 21.3574 0 20.0977 0 17.5977L0 6.99219C0 4.49219 1.2793 3.23242 3.79883 3.23242L5.41992 3.23242L5.41992 1.46484C5.41992 0.556641 5.94727 0.00976562 6.875 0.00976562L9.47266 0.00976562C10.4102 0.00976562 10.9277 0.556641 10.9277 1.46484ZM16.123 6.19141L10.8691 12.8027C10.7617 12.9199 10.7129 13.0273 10.7129 13.1543C10.7129 13.3594 10.8984 13.5156 11.1133 13.5156L14.375 13.5156L12.627 18.2129C12.4023 18.7695 13.0176 19.082 13.3789 18.623L18.623 12.0117C18.7305 11.9043 18.7891 11.7871 18.7891 11.6602C18.7891 11.4551 18.6035 11.2891 18.3887 11.2891L15.1367 11.2891L16.875 6.60156C17.0898 6.04492 16.4844 5.73242 16.123 6.19141Z" fill="black" fill-opacity="0.85"/>
 </g>
</svg>
