<?xml version="1.0" ?><!-- Generator: Adobe Illustrator 25.0.0, SVG Export Plug-In . SVG Version: 6.00 Build 0)  --><svg xmlns="http://www.w3.org/2000/svg" xmlns:xlink="http://www.w3.org/1999/xlink" version="1.1" id="Layer_1" x="0px" y="0px" viewBox="0 0 512 512" style="enable-background:new 0 0 512 512;" xml:space="preserve">
<path d="M256,512c140,0,256-116.2,256-256C512,116,395.8,0,255.7,0C116,0,0,116,0,256C0,395.8,116.2,512,256,512z M256,469.3  c-118.5,0-213.1-94.9-213.1-213.3S137.3,42.7,255.7,42.7S469.1,137.5,469.3,256S374.5,469.3,256,469.3z M145.8,273.3  c0,6.5,5,10.8,11.5,10.8h85.1l-45.4,122c-6,16.3,11,24.8,21.6,12l137.5-172.7c2.8-3.3,4.3-6.8,4.3-9.8c0-6.5-5-11-11.5-11h-85.1  l45.4-122c6-16.1-11-24.8-21.6-11.8L150.1,263.5C147.3,266.8,145.8,270.3,145.8,273.3z"/>
</svg>