<?xml version="1.0" ?><!-- Generator: Adobe Illustrator 25.0.0, SVG Export Plug-In . SVG Version: 6.00 Build 0)  --><svg xmlns="http://www.w3.org/2000/svg" xmlns:xlink="http://www.w3.org/1999/xlink" version="1.1" id="Layer_1" x="0px" y="0px" viewBox="0 0 512 512" style="enable-background:new 0 0 512 512;" xml:space="preserve">
<path d="M256,492.7c5.4,0,13.1-3.6,18.8-7C420,392.9,512,284.9,512,175c0-91.3-62.6-155.7-143.6-155.7c-50.3,0-88.9,27.8-112.4,70.4  c-22.9-42.3-62.1-70.4-112.4-70.4C62.6,19.3,0,83.8,0,175c0,109.8,92,217.8,237.4,310.7C242.9,489.1,250.6,492.7,256,492.7z   M172,282.3c0-2.8,1-5.2,3.4-7.7l106.2-133.8c8.2-10.1,21.7-3.4,16.8,9.3l-35.1,94.1h66c4.6,0,9,3.9,9,8.5c0,2.6-1.3,5.4-3.6,7.7  L228.4,394.2c-8,10.1-21.7,3.1-16.8-9.3l35.1-94.4h-66C176.1,290.5,172,286.9,172,282.3z"/>
</svg>