<?xml version="1.0" ?><!-- Generator: Adobe Illustrator 25.0.0, SVG Export Plug-In . SVG Version: 6.00 Build 0)  --><svg xmlns="http://www.w3.org/2000/svg" xmlns:xlink="http://www.w3.org/1999/xlink" version="1.1" id="Layer_1" x="0px" y="0px" viewBox="0 0 512 512" style="enable-background:new 0 0 512 512;" xml:space="preserve">
<path d="M68.2,455.9h375.6c22.9,0,40-5.6,51.2-16.8c11.3-11.2,16.9-28,16.9-50.3v-210c0-22.3-5.6-39-16.9-50.3  c-11.3-11.2-28.4-16.8-51.2-16.8H68.2c-22.7,0-39.8,5.6-51.1,16.8c-11.4,11.2-17,28-17,50.3v210c0,22.3,5.7,39,17,50.3  S45.5,455.9,68.2,455.9z M68.6,420.9c-10.9,0-19.2-2.9-25-8.6c-5.8-5.7-8.7-14.2-8.7-25.5V180.8c0-11.3,2.9-19.8,8.7-25.5  c5.8-5.7,14.1-8.6,25-8.6h374.8c10.7,0,19,2.9,24.9,8.6s8.8,14.2,8.8,25.5v206.1c0,11.3-2.9,19.8-8.8,25.5s-14.2,8.6-24.9,8.6H68.6z   M95.5,128h116.6V82.6c0-8.3-2.3-14.7-6.9-19.4c-4.6-4.7-11.1-7.1-19.3-7.1h-64.1c-8.3,0-14.7,2.4-19.3,7.1  c-4.6,4.7-6.9,11.2-6.9,19.4V128z M299.6,128H416V82.6c0-8.3-2.3-14.7-6.8-19.4c-4.6-4.7-11-7.1-19.4-7.1h-64.1  c-8.3,0-14.7,2.4-19.2,7.1c-4.6,4.7-6.8,11.2-6.8,19.4V128z" class="hierarchical-0:secondary SFSymbolsPreview4D4D4D" style="fill: #4D4D4D;"/>
<path d="M187.2,297.8c0,2,0.7,3.7,2.2,5c1.4,1.3,3.2,2,5.2,2h53.8l-28.9,77.1c-1.3,3.3-1.2,6.1,0.3,8.3c1.5,2.2,3.6,3.3,6.3,3.4  c2.7,0.1,5.1-1.3,7.3-4.2l86.9-109c1.9-2,2.8-4.1,2.8-6.3c0-2-0.8-3.7-2.3-5c-1.5-1.3-3.3-2-5.3-2h-53.6l28.7-76.9  c1.3-3.5,1.2-6.3-0.3-8.5c-1.5-2.2-3.6-3.3-6.2-3.3c-2.6,0-5,1.4-7.2,4.1l-87.1,109.2C188,294,187.2,296.1,187.2,297.8z" class="hierarchical-1:primary SFSymbolsPreview212121" style="fill: #212121;"/>
</svg>