<?xml version="1.0" ?><!-- Generator: Adobe Illustrator 25.0.0, SVG Export Plug-In . SVG Version: 6.00 Build 0)  --><svg xmlns="http://www.w3.org/2000/svg" xmlns:xlink="http://www.w3.org/1999/xlink" version="1.1" id="Layer_1" x="0px" y="0px" viewBox="0 0 512 512" style="enable-background:new 0 0 512 512;" xml:space="preserve">
<path d="M256,512c2.1,0,4.6-0.4,7.6-1.2c3-0.8,6.1-2,9.4-3.7c36.7-19.2,67.5-36.6,92.3-52c24.8-15.5,44.6-30.7,59.5-45.8  c14.9-15.1,25.5-31.4,32.1-48.8c6.5-17.4,9.8-37.7,9.8-60.9V105.3c0-13.2-2.8-22.7-8.4-28.6c-5.6-5.8-13.8-11-24.6-15.5  c-6-2.6-14.3-5.8-24.7-9.8c-10.5-3.9-22-8.2-34.6-12.9c-12.6-4.6-25.2-9.3-37.9-13.9c-12.6-4.6-24.1-8.8-34.5-12.5  c-10.4-3.7-18.6-6.6-24.6-8.6c-3.4-1-7-1.9-10.6-2.6c-3.6-0.7-7.2-1-10.8-1c-3.6,0-7.2,0.3-10.7,1c-3.5,0.7-7,1.5-10.4,2.6  c-6,2.1-14.3,4.9-24.7,8.6c-10.5,3.7-22,7.8-34.6,12.4c-12.6,4.5-25.2,9.2-37.9,13.9c-12.6,4.7-24.2,9.1-34.6,13.1  c-10.5,4-18.7,7.3-24.7,9.7c-10.6,4.3-18.8,9.4-24.5,15.3c-5.7,5.9-8.5,15.5-8.5,28.7v194.2c0,23.2,3.4,43.3,10.2,60.4  c6.8,17.1,17.7,33,32.7,47.6c15,14.7,34.9,29.8,59.8,45.5c24.8,15.6,55.2,33.7,91,54.1c3.3,1.7,6.4,3,9.4,3.7  C251.4,511.6,253.9,512,256,512z" class="hierarchical-0:tertiary SFSymbolsPreview8E8E8E" style="fill: #8E8E8E;"/>
<path d="M139.8,264.5c0-3.6,1.5-7,4.4-10.3L289.7,71.6c3.8-4.6,7.9-6.9,12.2-6.8c4.4,0.1,7.8,1.9,10.3,5.4c2.5,3.5,2.6,8.1,0.4,13.8  l-48.2,129h90.1c3.4,0,6.3,1.1,8.6,3.3c2.3,2.2,3.5,5.1,3.5,8.5c0,3.4-1.5,6.9-4.4,10.3L216.9,417.7c-3.6,4.6-7.6,6.9-12.1,6.8  c-4.5-0.1-7.9-1.9-10.4-5.5c-2.5-3.6-2.6-8.2-0.4-13.9l48.2-129H152c-3.4,0-6.3-1.1-8.6-3.2C141,270.7,139.8,267.9,139.8,264.5z" class="hierarchical-1:primary SFSymbolsPreview212121" style="fill: #212121;"/>
</svg>