<?xml version="1.0" encoding="UTF-8"?>
<!--Generator: Apple Native CoreSVG 326-->
<!DOCTYPE svg
PUBLIC "-//W3C//DTD SVG 1.1//EN"
       "http://www.w3.org/Graphics/SVG/1.1/DTD/svg11.dtd">
<svg version="1.1" xmlns="http://www.w3.org/2000/svg" xmlns:xlink="http://www.w3.org/1999/xlink" viewBox="0 0 30.5078 28.9941">
 <g>
  <rect height="28.9941" opacity="0" width="30.5078" x="0" y="0"/>
  <path d="M28.1495 6.70449C27.67 6.49322 27.1396 6.37695 26.582 6.37695C25.8047 6.37695 25.0808 6.60093 24.4735 6.99069C23.9001 6.06127 22.8037 5.48828 21.2891 5.48828C19.4484 5.48828 17.5997 6.33968 15.9716 7.69468C17.7471 9.61179 19.241 11.897 20.2301 14.1517C21.4772 13.6614 22.4604 13.013 23.1928 12.2968C23.5884 12.975 24.1849 13.5194 24.9025 13.8515C23.8177 14.6619 22.4718 15.348 20.8662 15.8375C21.2939 17.116 21.5234 18.3485 21.5234 19.4629C21.5234 23.584 18.7012 26.5625 14.7363 26.5625C14.6243 26.5625 14.5131 26.5602 14.4065 26.5471C14.8798 25.9025 15.1562 25.1044 15.1562 24.2383C15.1562 23.8673 15.1048 23.5083 15.0051 23.1695C17.359 23.0297 18.9453 20.9891 18.9453 18.2324C18.9453 17.6207 18.8796 16.9889 18.7453 16.3472C17.5365 16.5784 16.202 16.6992 14.7559 16.6992C13.3056 16.6992 11.9546 16.5743 10.7198 16.338C10.5841 16.9828 10.5176 17.6177 10.5176 18.2324C10.5176 18.996 10.64 19.7046 10.8703 20.3306C9.81566 20.4239 8.88305 20.9326 8.23684 21.6922C8.04198 21.0014 7.93945 20.254 7.93945 19.4629C7.93945 18.3437 8.17185 17.1055 8.60398 15.8214C3.86084 14.3656 1.17188 11.2683 1.17188 8.22266C1.17188 6.52939 1.74882 5.12191 2.85423 4.172C2.93385 5.52911 3.70674 6.69861 4.82706 7.33376C4.63794 7.74415 4.54102 8.21186 4.54102 8.7207C4.54102 10.4214 5.90103 12.8423 9.23769 14.1514C10.2304 11.8966 11.7295 9.61131 13.5104 7.69417C12.4852 6.8319 11.3688 6.1788 10.2227 5.81531C10.5294 5.25596 10.7031 4.61222 10.7031 3.92578C10.7031 3.8447 10.7007 3.76422 10.691 3.68573C12.0994 4.31224 13.4732 5.28056 14.7426 6.45686C17.1003 4.28163 19.8121 2.8125 22.4316 2.8125C25.6721 2.8125 27.64 4.5162 28.1495 6.70449ZM11.1507 14.7258C12.2037 14.9571 13.403 15.0879 14.7559 15.0879C16.0806 15.0879 17.2653 14.9577 18.3154 14.7282C17.6098 12.5994 16.3274 10.4902 14.7391 8.82795C13.1455 10.4895 11.8589 12.5978 11.1507 14.7258Z" fill="black" fill-opacity="0.85"/>
  <path d="M6.77734 6.32812C8.10547 6.32812 9.17969 5.26367 9.17969 3.92578C9.17969 2.58789 8.10547 1.51367 6.77734 1.51367C5.43945 1.51367 4.36523 2.58789 4.36523 3.92578C4.36523 5.25391 5.43945 6.32812 6.77734 6.32812ZM26.582 12.7051C27.9102 12.7051 28.9844 11.6406 28.9844 10.3027C28.9844 8.97461 27.9102 7.90039 26.582 7.90039C25.2441 7.90039 24.1699 8.97461 24.1699 10.3027C24.1699 11.6309 25.2441 12.7051 26.582 12.7051ZM11.2305 26.6406C12.5684 26.6406 13.6328 25.5762 13.6328 24.2383C13.6328 22.9102 12.5586 21.8359 11.2305 21.8359C9.89258 21.8359 8.81836 22.9102 8.81836 24.2383C8.81836 25.5664 9.89258 26.6406 11.2305 26.6406Z" fill="black" fill-opacity="0.85"/>
 </g>
</svg>
