<?xml version="1.0" ?><!-- Generator: Adobe Illustrator 25.0.0, SVG Export Plug-In . SVG Version: 6.00 Build 0)  --><svg xmlns="http://www.w3.org/2000/svg" xmlns:xlink="http://www.w3.org/1999/xlink" version="1.1" id="Layer_1" x="0px" y="0px" viewBox="0 0 512 512" style="enable-background:new 0 0 512 512;" xml:space="preserve">
<path d="M256,512c35,0,67.9-6.7,98.8-20.1c30.9-13.4,58.1-31.9,81.7-55.5c23.6-23.6,42.1-50.8,55.5-81.7  C505.3,323.9,512,291,512,256s-6.7-67.9-20.1-98.8c-13.4-30.9-31.9-58.1-55.5-81.7c-23.6-23.6-50.9-42.1-81.8-55.5  C323.7,6.7,290.7,0,255.7,0S187.9,6.7,157,20.1C126.1,33.5,98.9,52,75.4,75.5c-23.5,23.6-42,50.8-55.3,81.7C6.7,188.1,0,221,0,256  s6.7,67.9,20.1,98.8c13.4,30.9,31.9,58.1,55.5,81.7s50.8,42.1,81.7,55.5C188.1,505.3,221,512,256,512z" class="hierarchical-0:tertiary SFSymbolsPreview8E8E8E" style="fill: #8E8E8E;"/>
<path d="M188,392.8c-13.1,0-22.9-3.3-29.5-10c-6.6-6.7-9.9-16.6-9.9-29.9v-193c0-13.6,3.3-23.7,9.9-30.4c6.6-6.7,16.6-10,30-10  h134.8c13.4,0,23.4,3.4,30,10.2c6.6,6.8,9.9,16.9,9.9,30.2v145.6c0,6.2-1.2,11.2-3.5,14.9c-2.3,3.8-4.8,6.9-7.3,9.4  c-7.5,7.5-10.8,15.6-9.8,24.1c1,8.5,5.4,14.4,13.3,17.6c2,0.8,3.7,2.2,5.1,4.1c1.4,1.9,2.1,4.1,2.1,6.4c0,3-1.1,5.6-3.3,7.7  c-2.2,2.1-4.7,3.1-7.5,3.1H188z M189.2,371.2h136c-6-11.7-6.5-24-1.5-36.9c-0.5,0-1,0-1.5,0.1c-0.5,0.1-1.1,0.1-1.8,0.1H190.2  c-6,0-10.9,1.7-14.6,5c-3.7,3.3-5.5,7.7-5.5,13.1c0,5.9,1.6,10.4,4.9,13.7C178.3,369.6,183,371.2,189.2,371.2z M185.2,313.2  c2.3,0,4.3-0.8,5.9-2.3c1.6-1.5,2.4-3.3,2.4-5.5V148.8c0-2-0.8-3.8-2.4-5.4c-1.6-1.6-3.6-2.4-5.9-2.4c-2.2,0-4,0.8-5.4,2.3  c-1.4,1.5-2.1,3.3-2.1,5.5v156.6c0,2.2,0.7,4,2.1,5.5C181.2,312.5,183,313.2,185.2,313.2z" class="hierarchical-1:primary SFSymbolsPreview212121" style="fill: #212121;"/>
</svg>