<?xml version="1.0" ?><!-- Generator: Adobe Illustrator 25.0.0, SVG Export Plug-In . SVG Version: 6.00 Build 0)  --><svg xmlns="http://www.w3.org/2000/svg" xmlns:xlink="http://www.w3.org/1999/xlink" version="1.1" id="Layer_1" x="0px" y="0px" viewBox="0 0 512 512" style="enable-background:new 0 0 512 512;" xml:space="preserve">
<path d="M391.4,433.2c3.7,29.8,19.6,43.8,49.7,39.6l31.4-4.1c30-4.1,42.4-20,39.1-49.9l-33.8-293.4c-3.5-29.8-19.6-44-49.7-39.6  l-31.4,4.1c-9.4,1.2-17.1,3.7-23,7.3V83.8c0-30.2-14.7-45.3-44.6-45.3h-49.7c-30.2,0-44.7,15.1-44.7,45.3v77.7  c-4.5-1-9.4-1.6-14.9-1.6h-90.7c-5.5,0-10.6,0.6-15.1,1.6v-23.4c0-30.2-14.5-45.3-44.6-45.3H44.7C14.5,92.8,0,108,0,138.2v289.5  c0,30.2,14.5,45.1,44.7,45.1h284.4c29.8,0,44.6-14.9,44.6-45.1V279.5L391.4,433.2z M282.6,68.1h43.2c12.4,0,18.3,6.3,18.3,17.9  v339.3c0,11.6-5.9,17.9-18.3,17.9h-61.4V86C264.4,74.4,270.5,68.1,282.6,68.1z M420.4,427.3l-33.2-288.7  c-1.4-11.6,3.9-18.1,16.1-19.8l25.1-3.1c12.2-1.8,18.8,4.3,20.2,15.5l33.2,288.7c1.4,11.8-3.9,18.1-15.9,19.8l-25.5,3.3  C428.5,444.7,421.8,439.1,420.4,427.3z M47.9,443.2c-12.2,0-18.3-6.3-18.3-17.9v-285c0-11.6,6.1-17.9,18.3-17.9h18.4  c12.2,0,18.1,6.3,18.1,17.9v302.8H47.9z M132.3,189.6h84.2c12.4,0,18.3,6.3,18.3,17.9v235.7H114V207.5  C114,195.9,120.1,189.6,132.3,189.6z M144.3,239.8h60.8c6.9,0,12-5.3,12-12.2c0-6.7-5.1-12-12-12h-60.8c-7.3,0-12.4,5.3-12.4,12  C131.9,234.5,137,239.8,144.3,239.8z M144.3,417.3h60.8c6.9,0,12-5.3,12-12.2c0-6.7-5.1-12-12-12h-60.8c-7.3,0-12.4,5.3-12.4,12  C131.9,412,137,417.3,144.3,417.3z"/>
</svg>