<?xml version="1.0" ?><!-- Generator: Adobe Illustrator 25.0.0, SVG Export Plug-In . SVG Version: 6.00 Build 0)  --><svg xmlns="http://www.w3.org/2000/svg" xmlns:xlink="http://www.w3.org/1999/xlink" version="1.1" id="Layer_1" x="0px" y="0px" viewBox="0 0 512 512" style="enable-background:new 0 0 512 512;" xml:space="preserve">
<path d="M256,512c140,0,256-116.2,256-256C512,116,395.8,0,255.7,0C116,0,0,116,0,256C0,395.8,116.2,512,256,512z M256,469.3  c-118.5,0-213.1-94.9-213.1-213.3S137.3,42.7,255.7,42.7S469.1,137.5,469.3,256S374.5,469.3,256,469.3z M181.5,389  c6.5,0,10.3-3.5,21.8-14.8l51.2-50.7c0.8-0.5,1.8-0.5,2.5,0l51.5,50.7c11.3,11.3,15.1,14.8,21.6,14.8c8.3,0,13.6-5.8,13.6-15.8  V161.9c0-24.6-12.5-37.4-36.9-37.4H204.8c-24.3,0-36.9,12.8-36.9,37.4v211.3C167.9,383.2,173.2,389,181.5,389z"/>
</svg>