<?xml version="1.0" ?><!-- Generator: Adobe Illustrator 25.0.0, SVG Export Plug-In . SVG Version: 6.00 Build 0)  --><svg xmlns="http://www.w3.org/2000/svg" xmlns:xlink="http://www.w3.org/1999/xlink" version="1.1" id="Layer_1" x="0px" y="0px" viewBox="0 0 512 512" style="enable-background:new 0 0 512 512;" xml:space="preserve">
<path d="M256,512c35,0,67.9-6.7,98.8-20.1c30.9-13.4,58.1-31.9,81.7-55.5c23.6-23.6,42.1-50.8,55.5-81.7  C505.3,323.9,512,291,512,256s-6.7-67.9-20.1-98.8c-13.4-30.9-31.9-58.1-55.5-81.7c-23.6-23.6-50.9-42.1-81.8-55.5  C323.7,6.7,290.7,0,255.7,0S187.9,6.7,157,20.1C126.1,33.5,98.9,52,75.4,75.5c-23.5,23.6-42,50.8-55.3,81.7C6.7,188.1,0,221,0,256  s6.7,67.9,20.1,98.8c13.4,30.9,31.9,58.1,55.5,81.7s50.8,42.1,81.7,55.5C188.1,505.3,221,512,256,512z" class="hierarchical-0:tertiary SFSymbolsPreview8E8E8E" style="fill: #8E8E8E;"/>
<path d="M273.6,368.2V133c0-9.9,4.9-14.8,14.8-14.8h29.1c9.9,0,14.8,4.9,14.8,14.8v25.6l20.1-5c4.5-1.2,8.2-0.7,11.2,1.5  c2.9,2.2,4.9,5.6,5.9,10.3l40.4,195.3c0.8,4.7,0.3,8.5-1.8,11.5c-2,3-5.3,4.9-9.8,5.8l-18.8,4.8c-4.5,1-8.3,0.5-11.3-1.5  c-3-2-4.9-5.3-5.8-9.8l-30.1-144.6v141.3c0,9.7-4.9,14.6-14.8,14.6h-29.1C278.5,382.7,273.6,377.9,273.6,368.2z M177.9,368.2V206.8  c0-10,4.9-15.1,14.8-15.1h48.7c4.9,0,8.4,1.4,10.8,4.1c2.3,2.8,3.5,6.4,3.5,10.9v161.4c0,4.7-1.2,8.3-3.5,10.8  c-2.3,2.5-5.9,3.8-10.8,3.8h-48.7C182.9,382.7,177.9,377.9,177.9,368.2z M196.5,347.4c0,5.5,2.6,8.3,7.8,8.3h25.9  c5.2,0,7.8-2.8,7.8-8.3c0-5.2-2.6-7.8-7.8-7.8h-25.9C199.1,339.6,196.5,342.2,196.5,347.4z M196.5,227.6c0,2,0.7,3.8,2.1,5.4  c1.4,1.6,3.3,2.4,5.6,2.4h25.9c2.3,0,4.2-0.8,5.6-2.5c1.4-1.7,2.1-3.4,2.1-5.3c0-2.3-0.7-4.2-2.1-5.6c-1.4-1.4-3.3-2.1-5.6-2.1  h-25.9c-2.2,0-4,0.7-5.5,2.1C197.3,223.4,196.5,225.3,196.5,227.6z M108.4,368.2V165.9c0-4.7,1.3-8.3,3.9-10.8  c2.6-2.5,6.3-3.8,11.2-3.8h22.6c4.7,0,8.3,1.3,10.9,3.8c2.6,2.5,3.9,6.1,3.9,10.8v202.3c0,4.7-1.3,8.3-3.9,10.8  c-2.6,2.5-6.2,3.8-10.9,3.8h-22.6c-4.9,0-8.6-1.3-11.2-3.8C109.7,376.5,108.4,372.9,108.4,368.2z" class="hierarchical-1:primary SFSymbolsPreview212121" style="fill: #212121;"/>
</svg>