<?xml version="1.0" encoding="UTF-8"?>
<!--Generator: Apple Native CoreSVG 326-->
<!DOCTYPE svg
PUBLIC "-//W3C//DTD SVG 1.1//EN"
       "http://www.w3.org/Graphics/SVG/1.1/DTD/svg11.dtd">
<svg version="1.1" xmlns="http://www.w3.org/2000/svg" xmlns:xlink="http://www.w3.org/1999/xlink" viewBox="0 0 25.8008 25.459">
 <g>
  <rect height="25.459" opacity="0" width="25.8008" x="0" y="0"/>
  <path d="M25.4395 12.7344C25.4395 19.7461 19.7266 25.459 12.7148 25.459C5.71289 25.459 0 19.7461 0 12.7344C0 5.73242 5.71289 0.0195312 12.7148 0.0195312C19.7266 0.0195312 25.4395 5.73242 25.4395 12.7344ZM5.80078 8.85742C5.73242 8.98438 5.72266 9.04297 5.72266 9.25781L5.72266 17.9102C5.72266 18.1445 5.88867 18.3008 6.13281 18.3008C6.2793 18.3008 6.39648 18.2617 6.51367 18.1641C7.24609 17.5098 8.27148 17.1387 9.375 17.1387C10.293 17.1387 11.1621 17.4512 11.8848 18.0566C11.9531 18.1152 12.0117 18.1445 12.0898 18.1445C12.2266 18.1445 12.3145 18.0469 12.3145 17.9102L12.3145 8.87695C12.3145 8.7207 12.3145 8.68164 12.207 8.53516C11.5527 7.68555 10.4492 7.1875 9.21875 7.1875C7.86133 7.1875 6.42578 7.79297 5.80078 8.85742ZM13.2422 8.53516C13.1348 8.68164 13.125 8.7207 13.125 8.87695L13.125 17.9102C13.125 18.0469 13.2227 18.1445 13.3594 18.1445C13.4375 18.1445 13.4961 18.1152 13.5645 18.0566C14.2871 17.4512 15.166 17.1387 16.0645 17.1387C17.1875 17.1387 18.2129 17.5098 18.9355 18.1641C19.043 18.2617 19.1602 18.3008 19.3066 18.3008C19.5605 18.3008 19.7266 18.1445 19.7266 17.9102L19.7266 9.25781C19.7266 9.04297 19.7168 8.97461 19.6484 8.85742C19.0137 7.79297 17.5781 7.1875 16.2305 7.1875C15 7.1875 13.8965 7.68555 13.2422 8.53516Z" fill="black" fill-opacity="0.85"/>
 </g>
</svg>
