<?xml version="1.0" ?><!-- Generator: Adobe Illustrator 25.0.0, SVG Export Plug-In . SVG Version: 6.00 Build 0)  --><svg xmlns="http://www.w3.org/2000/svg" xmlns:xlink="http://www.w3.org/1999/xlink" version="1.1" id="Layer_1" x="0px" y="0px" viewBox="0 0 512 512" style="enable-background:new 0 0 512 512;" xml:space="preserve">
<path d="M256,512c140,0,256-116,256-256C512,116.2,395.8,0,255.7,0C116,0,0,116.2,0,256C0,396,116.2,512,256,512z M179.2,393.3  c-8.5,0-14.1-6.3-14.1-16.6V158.6c0-25.1,13.1-38.4,38.1-38.4h104.9c25.1,0,38.1,13.3,38.1,38.4v218.1c0,10.3-5.5,16.6-14.1,16.6  c-6.8,0-10.5-4-22.3-15.6l-53-52c-0.8-0.8-1.8-0.8-2.5,0l-52.7,52C189.7,389.3,186,393.3,179.2,393.3z"/>
</svg>