<?xml version="1.0" ?><!-- Generator: Adobe Illustrator 25.0.0, SVG Export Plug-In . SVG Version: 6.00 Build 0)  --><svg xmlns="http://www.w3.org/2000/svg" xmlns:xlink="http://www.w3.org/1999/xlink" version="1.1" id="Layer_1" x="0px" y="0px" viewBox="0 0 512 512" style="enable-background:new 0 0 512 512;" xml:space="preserve">
<path d="M102,26.5l310.3,310.3V68.5c0-45.4-22.7-68.5-67.6-68.5H158.1C130.9,0,112.3,9.1,102,26.5z M454.1,470.9  c7.2,7.2,18.9,7.2,26,0c6.9-7.2,7.2-18.9,0-26L58.1,22.7c-7.2-7.2-19.1-7.2-26.3,0c-6.9,6.9-6.9,19.1,0,26L454.1,470.9z M115.8,512  c11.7,0,18.6-6.7,40.1-27.4l93.3-91.9c1.2-1.2,3.3-1.2,4.5,0l93.1,91.9c21.7,20.8,28.4,27.4,40.1,27.4c16,0,25.3-10.5,25.3-29.1  v-13.1L90.5,147.5v335.4C90.5,501.5,99.8,512,115.8,512z"/>
</svg>