<?xml version="1.0" ?><!-- Generator: Adobe Illustrator 25.0.0, SVG Export Plug-In . SVG Version: 6.00 Build 0)  --><svg xmlns="http://www.w3.org/2000/svg" xmlns:xlink="http://www.w3.org/1999/xlink" version="1.1" id="Layer_1" x="0px" y="0px" viewBox="0 0 512 512" style="enable-background:new 0 0 512 512;" xml:space="preserve">
<path d="M120.4,512c11.7,0,18.6-6.7,40.1-27.4l93.3-91.9c1.2-1.2,3.3-1.2,4.3,0l93.3,91.9c21.5,20.8,28.4,27.4,40.1,27.4  c16,0,25.3-10.5,25.3-29.1V68.5c0-45.4-22.7-68.5-67.6-68.5H162.7c-44.9,0-67.6,23.2-67.6,68.5v414.4  C95.1,501.5,104.4,512,120.4,512z M140,447.6c-3.3,3.3-7.2,2.4-7.2-2.4V69c0-20.5,10.7-31.3,31.7-31.3h183.1  c20.8,0,31.5,10.7,31.5,31.3v376.2c0,4.8-3.6,5.7-7.2,2.4L268.7,347.3c-7.6-7.4-17.7-7.4-25.3,0L140,447.6z"/>
</svg>