<?xml version="1.0" ?><!-- Generator: Adobe Illustrator 25.0.0, SVG Export Plug-In . SVG Version: 6.00 Build 0)  --><svg xmlns="http://www.w3.org/2000/svg" xmlns:xlink="http://www.w3.org/1999/xlink" version="1.1" id="Layer_1" x="0px" y="0px" viewBox="0 0 512 512" style="enable-background:new 0 0 512 512;" xml:space="preserve">
<path d="M256,512c35,0,67.9-6.7,98.8-20.1c30.9-13.4,58.1-31.9,81.7-55.5c23.6-23.6,42.1-50.8,55.5-81.7  C505.3,323.9,512,291,512,256s-6.7-67.9-20.1-98.8c-13.4-30.9-31.9-58.1-55.5-81.7c-23.6-23.6-50.9-42.1-81.8-55.5  C323.7,6.7,290.7,0,255.7,0S187.9,6.7,157,20.1C126.1,33.5,98.9,52,75.4,75.5c-23.5,23.6-42,50.8-55.3,81.7C6.7,188.1,0,221,0,256  s6.7,67.9,20.1,98.8c13.4,30.9,31.9,58.1,55.5,81.7c23.6,23.6,50.8,42.1,81.7,55.5C188.1,505.3,221,512,256,512z M256,469.3  c-29.6,0-57.3-5.5-83.1-16.6c-25.8-11-48.4-26.3-67.9-45.8c-19.5-19.5-34.7-42.1-45.7-67.9c-11-25.8-16.4-53.5-16.4-83.1  c0-29.6,5.5-57.3,16.4-83.1c11-25.8,26.1-48.4,45.6-68s42-34.8,67.8-45.8c25.8-11,53.5-16.4,83.1-16.4c29.6,0,57.3,5.5,83.1,16.4  c25.8,11,48.4,26.2,68,45.8c19.6,19.6,34.9,42.2,45.9,68c11,25.8,16.6,53.5,16.6,83.1c0,29.6-5.5,57.3-16.4,83.1  c-11,25.8-26.2,48.4-45.7,67.9c-19.5,19.5-42.2,34.8-68,45.8C313.3,463.8,285.6,469.3,256,469.3z" class="hierarchical-0:secondary SFSymbolsPreview4D4D4D" style="fill: #4D4D4D;"/>
<path d="M190,388.8h159.6c2.7,0,5.1-1,7.2-3.1c2.1-2.1,3.1-4.6,3.1-7.4c0-2.2-0.7-4.2-2-6.1c-1.3-1.9-2.9-3.2-4.8-3.9  c-7.9-3.2-12.3-8.9-13.3-17.2s2.2-16.1,9.5-23.5c2.5-2.5,4.9-5.5,7.2-9c2.3-3.5,3.4-8.4,3.4-14.6V162.6c0-12.9-3.2-22.6-9.7-29.2  c-6.4-6.6-16.1-9.9-29-9.9H190.5c-12.9,0-22.5,3.3-29,9.8c-6.4,6.5-9.7,16.3-9.7,29.4v187.5c0,12.7,3.2,22.3,9.5,28.9  C167.7,385.5,177.3,388.8,190,388.8z M191.2,367.9c-6,0-10.6-1.6-13.8-4.8c-3.2-3.2-4.8-7.6-4.8-13.3c0-5.4,1.8-9.6,5.4-12.8  c3.6-3.2,8.3-4.8,14.2-4.8h126.2c0.7,0,1.3,0,1.8-0.1s1-0.1,1.5-0.1c-4.9,12.4-4.4,24.3,1.5,35.9H191.2z M187.2,311.5  c-4.9,0-7.3-2.5-7.3-7.5V152.1c0-5,2.4-7.5,7.3-7.5c2.3,0,4.3,0.8,5.8,2.3c1.5,1.5,2.3,3.3,2.3,5.3v151.8c0,2.2-0.8,4-2.3,5.4  C191.5,310.8,189.6,311.5,187.2,311.5z" class="hierarchical-1:primary SFSymbolsPreview212121" style="fill: #212121;"/>
</svg>