<?xml version="1.0" encoding="UTF-8"?>
<!--Generator: Apple Native CoreSVG 326-->
<!DOCTYPE svg
PUBLIC "-//W3C//DTD SVG 1.1//EN"
       "http://www.w3.org/Graphics/SVG/1.1/DTD/svg11.dtd">
<svg version="1.1" xmlns="http://www.w3.org/2000/svg" xmlns:xlink="http://www.w3.org/1999/xlink" viewBox="0 0 32.4414 27.1191">
 <g>
  <rect height="27.1191" opacity="0" width="32.4414" x="0" y="0"/>
  <path d="M6.73828 19.7363C9.83398 19.7363 11.6406 17.6758 11.6406 15.0977C11.6406 14.2285 11.2793 13.2715 10.7422 12.7441C10.2734 12.3047 9.98047 12.1582 9.98047 11.6406C9.98047 11.2012 10.3125 10.8887 10.8203 10.8887C11.1816 10.8887 11.416 10.9961 11.7969 11.3184C12.2168 11.6797 12.5586 12.1875 12.8027 12.7539C14.7363 12.3047 15.5176 11.1035 15.5176 9.15039C15.5176 8.68164 15.9082 8.29102 16.377 8.29102C16.8555 8.29102 17.2461 8.68164 17.2461 9.15039C17.2559 11.8652 16.0059 13.7012 13.3008 14.3848C13.3203 14.6289 13.3398 14.873 13.3398 15.127C13.3398 17.3926 12.334 19.2188 10.6152 20.3418C11.8652 21.2305 13.5059 21.6992 15.2148 21.6992C15.5469 21.6992 15.9277 21.6699 16.6211 21.6406C16.4746 21.0547 16.4062 20.4883 16.4062 19.9414C16.4062 12.7148 26.5527 13.7305 26.5527 6.69922C26.5527 3.84766 23.8574 1.88477 21.1133 1.88477C20.8105 1.875 20.4102 1.93359 20.0098 2.03125C19.0723 0.751953 17.5 0 15.9863 0C13.3301 0 11.5332 1.75781 11.4355 4.19922C11.416 4.74609 11.0547 5.05859 10.5859 5.05859C10.0879 5.05859 9.70703 4.6875 9.72656 4.12109C9.77539 3.19336 9.98047 2.34375 10.3418 1.60156C9.72656 1.41602 9.10156 1.31836 8.48633 1.31836C5.48828 1.31836 3.34961 3.25195 3.34961 5.51758C3.34961 7.08984 4.50195 8.4375 6.32812 8.4375C6.79688 8.4375 7.19727 8.83789 7.19727 9.30664C7.19727 9.77539 6.79688 10.166 6.32812 10.166C4.15039 10.166 2.59766 9.12109 1.91406 7.56836C0.712891 8.90625 0 10.7324 0 12.5879C0 16.7285 2.69531 19.7363 6.73828 19.7363ZM26.4062 27.0996C29.3555 27.0996 30.8203 23.4668 30.8203 19.5996C30.8203 19.0234 30.8008 18.4863 30.7812 17.9883C29.7266 18.5254 28.4375 18.7891 26.9531 18.7109C26.4746 18.6816 26.0938 18.3301 26.0938 17.8516C26.0938 17.373 26.4746 16.9531 26.9531 16.9922C30.0293 17.1777 32.0801 15.4297 32.0801 12.6367C32.0801 10.1074 30.6641 8.08594 28.418 7.14844C27.1484 15.1855 18.2227 14.0527 18.0078 19.668C17.9395 21.5234 19.3457 22.9785 21.4258 22.9785C22.1289 22.9785 22.4609 22.959 22.7832 22.9492C23.0469 25.1367 24.3457 27.0996 26.4062 27.0996Z" fill="black" fill-opacity="0.85"/>
 </g>
</svg>
