<?xml version="1.0" ?><!-- Generator: Adobe Illustrator 25.0.0, SVG Export Plug-In . SVG Version: 6.00 Build 0)  --><svg xmlns="http://www.w3.org/2000/svg" xmlns:xlink="http://www.w3.org/1999/xlink" version="1.1" id="Layer_1" x="0px" y="0px" viewBox="0 0 512 512" style="enable-background:new 0 0 512 512;" xml:space="preserve">
<path d="M0,241.2c0,23.7,5.1,44.4,15.2,62.2c10.1,17.7,24.3,31.4,42.6,41.2s39.6,14.7,63.8,14.7c23.9,0,44.8-4.4,62.8-13.2  c18-8.8,32-21.2,42-37.1c10-15.9,15-34.4,15-55.5c0-13.2-2.2-25.1-6.6-35.6c-4.4-10.5-10.5-19.1-18.3-25.7c-3.6-3-6.7-5.1-9.2-6.2  c-2.5-1.2-5.5-1.8-8.9-1.8c-4.5,0-8.2,1.3-11,3.8c-2.8,2.5-4.2,5.7-4.2,9.6c0,3.2,0.6,5.9,1.8,7.9c1.2,2,2.9,3.9,5.1,5.7  c2.2,1.8,4.8,4.1,7.8,6.8c4.1,4,7.3,9,9.5,14.9c2.2,5.9,3.3,12.5,3.3,19.9c0,15-3.7,28.2-11.1,39.5c-7.4,11.3-17.7,20.1-31,26.4  c-13.3,6.3-28.8,9.4-46.4,9.4c-18.2,0-34-3.6-47.7-10.9c-13.6-7.3-24.2-17.4-31.8-30.5c-7.6-13.1-11.4-28.3-11.4-45.7  c0-15,3.6-29.2,10.7-42.4c7.1-13.2,16.9-23.9,29.4-31.9l-15.6-27c-11.5,7.1-21.5,16-29.9,26.7s-14.8,22.3-19.3,35.1  C2.2,214.2,0,227.5,0,241.2z M52.5,139.9c0,14.5,3.2,27.4,9.5,38.5c6.4,11.2,15.3,19.9,26.9,26.3c11.6,6.4,25.4,9.5,41.3,9.5  c4.1,0,7.8-1.5,10.9-4.6c3.1-3,4.7-6.7,4.7-11c0-4.3-1.6-8-4.7-11.1c-3.1-3.1-6.7-4.7-10.9-4.7c-9.6,0-17.9-1.8-24.8-5.5  c-6.9-3.7-12.3-8.8-16-15.3c-3.8-6.5-5.6-13.9-5.6-22.2c0-9.2,2.3-17.3,7-24.4c4.7-7.1,11-12.6,19-16.6c8-4,17.1-6,27.3-6  c7,0,14.2,1.1,21.7,3.4c7.5,2.3,14.7,5.8,21.7,10.6l18.3-25.5c-9.7-6.7-19.8-11.7-30.3-15c-10.5-3.2-20.9-4.9-31.1-4.9  c-15.7,0-30,3.3-42.8,10c-12.8,6.7-23.1,15.9-30.6,27.6C56.3,110.8,52.5,124.4,52.5,139.9z M156.2,134.6c-0.3,5.1,1.1,9.1,4.2,12.3  c3,3.1,6.8,4.7,11.2,4.7c4.3,0,7.9-1.4,10.8-4.1c2.9-2.7,4.5-6.5,4.8-11.5c0.5-12.3,3.6-23.3,9.3-33c5.7-9.7,13.4-17.2,23.1-22.8  c9.7-5.5,20.9-8.3,33.5-8.3c11.4,0,21.7,2.8,30.9,8.3c9.2,5.5,15.8,12.7,19.6,21.7c0.8,1.4,1.7,2.2,2.8,2.4c1.1,0.2,2.6,0,4.6-0.5  c3.2-0.9,6.6-1.6,10.1-2c3.5-0.5,7-0.7,10.5-0.7c11.7,0.1,22.7,3,33,8.6c10.3,5.6,18.7,13.5,25.2,23.6c6.5,10.2,9.7,22.3,9.7,36.3  c0,15.2-3.1,27.9-9.3,38.1c-6.2,10.2-14.2,19-23.9,26.3c-9.7,7.3-20,14-30.9,20.3c-10.9,6.3-21.2,13-30.9,20.2  c-9.7,7.2-17.7,15.8-23.9,25.7c-6.2,9.9-9.3,22.3-9.3,37.3c0,14.1,3.4,26.4,10.2,36.7c6.8,10.3,16,18.3,27.7,23.8  c11.7,5.6,24.8,8.4,39.3,8.4c2.3,0,4.8,0,7.3-0.1c2.5-0.1,5-0.2,7.5-0.3c1.6,11,4.8,21.5,9.8,31.4c5,9.9,11.6,18,19.8,24.3  c8.2,6.3,18,9.4,29.3,9.4c12.2,0,22.8-3.3,31.9-10c9.1-6.7,16.6-15.6,22.6-26.7c6-11.2,10.4-23.7,13.4-37.5c3-13.9,4.5-28,4.5-42.4  c0-12.6-0.3-23.4-0.9-32.5c-0.6-9.1-1.3-17.6-2.2-25.5l-31.3,8.8c0.9,7.8,1.7,15.5,2.3,23.2c0.6,7.7,1,16.2,1,25.6  c0,15.7-1.8,30-5.4,43c-3.6,13-8.6,23.3-14.8,31.1c-6.2,7.8-13.2,11.7-21,11.7c-8,0-14.6-3-19.5-9.1c-5-6.1-8.6-13.6-10.9-22.5  c-2.3-8.9-3.4-17.6-3.4-26.2c0-0.9-0.3-1.7-0.9-2.3c-0.6-0.6-1.6-0.9-3-0.8c-2.7,0-5.7,0-9,0c-3.3,0-6.2,0-8.7,0  c-19.5,0-35-3.2-46.7-9.7c-11.7-6.5-17.5-17.2-17.5-32.3c0-11.9,3.1-21.8,9.3-29.6c6.2-7.8,14.2-14.7,23.9-20.6  c9.7-6,20-12,30.9-18.1c10.9-6.1,21.2-13.3,30.9-21.5c9.7-8.2,17.7-18.5,23.9-30.9c6.2-12.4,9.3-27.9,9.3-46.6  c0-15-2.6-28.7-7.7-40.9c-5.1-12.2-12.1-22.7-20.9-31.5c-8.8-8.8-18.9-15.6-30.3-20.3c-11.4-4.7-23.5-7.1-36.2-7.1  c-1.9,0-4.2,0.2-6.8,0.5c-2.6,0.3-5.3,0.8-8,1.5c-7.8-9.6-17.6-17.2-29.5-22.7c-11.9-5.5-24.6-8.3-38.2-8.3c-18.4,0-34.8,4-49.1,12  c-14.3,8-25.7,19-34.1,33.1C161.6,100,157,116.2,156.2,134.6z M385,325.4c0,4.3,1.5,7.9,4.6,10.8c3,2.9,6.8,4.5,11.2,4.8  c22.2,1.4,41.6-1.7,58.4-9.4c16.7-7.7,29.7-19.2,39-34.3c9.3-15.2,13.9-33.3,13.9-54.5c0-17.1-3.8-32.7-11.5-46.7  c-7.7-14-18.4-25.5-32.2-34.5c-13.8-9-29.9-14.8-48.3-17.2l-4.9,31.1c19.7,0.3,35.6,6.6,47.6,19c12,12.4,18,28.5,18,48.3  c0,21.9-7.3,39-22,51.4s-34,17.6-58,15.8c-4.4-0.4-8.1,1-11.2,4.3C386.5,317.4,385,321.2,385,325.4z M285,350.7  c-5.7,2.1-11.8,3.6-18.4,4.6c-6.5,1-12.9,1.5-19.2,1.5c-11,0-21.8-1.4-32.2-4.1c-10.4-2.7-19.8-6.5-28.1-11.4  c-8.3-4.9-14.6-10.6-18.9-17.2l-25.9,21c10.2,12.7,24.2,23.1,41.9,31c17.7,8,37.6,12,59.8,12c7.9,0,16.3-0.6,25.1-1.8  c8.8-1.2,17.6-3.1,26.5-5.7L285,350.7z M222.5,213.4L233,243c24.5-4.8,42.5-14.6,53.9-29.4c11.4-14.8,17.1-33.6,17.1-56.4  c0-4.3-1.6-7.9-4.7-11c-3.1-3-6.8-4.6-11.1-4.6s-7.9,1.5-11,4.6c-3,3-4.6,6.7-4.6,11c0,16-3.8,28.7-11.4,38.1  C253.8,204.8,240.8,210.8,222.5,213.4z"/>
</svg>