<?xml version="1.0" encoding="UTF-8"?>
<!--Generator: Apple Native CoreSVG 326-->
<!DOCTYPE svg
PUBLIC "-//W3C//DTD SVG 1.1//EN"
       "http://www.w3.org/Graphics/SVG/1.1/DTD/svg11.dtd">
<svg version="1.1" xmlns="http://www.w3.org/2000/svg" xmlns:xlink="http://www.w3.org/1999/xlink" viewBox="0 0 24.9707 29.5605">
 <g>
  <rect height="29.5605" opacity="0" width="24.9707" x="0" y="0"/>
  <path d="M14.2285 29.4824C18.7207 29.4824 21.5137 27.8809 21.5137 25.166L21.5137 18.9941C23.4668 17.3145 24.6094 14.5898 24.6094 11.5918C24.6094 4.63867 20.0879 0 13.3301 0C6.61133 0 2.10938 4.54102 2.10938 11.3281C2.10938 11.7383 2.11914 12.0703 2.1582 12.3926L0.615234 15.1855C0.195312 15.918 0 16.6211 0 17.2852C0 18.5449 0.791016 19.5898 2.12891 19.8926L2.12891 22.3145C2.12891 24.4531 3.60352 25.5371 5.58594 25.332L8.23242 25.0488L7.01172 23.7012L7.01172 25.166C7.01172 27.8613 9.76562 29.4824 14.2285 29.4824ZM14.2285 27.7539C10.791 27.7539 8.67188 26.6309 8.67188 24.8633L8.67188 23.4863C8.67188 23.3105 8.57422 23.2422 8.41797 23.252L5.36133 23.6035C4.4043 23.7012 3.85742 23.252 3.85742 22.1777L3.85742 18.6133C3.85742 18.4961 3.7793 18.418 3.63281 18.418L3.16406 18.418C2.28516 18.418 1.75781 17.9688 1.75781 17.2461C1.75781 16.9043 1.88477 16.4648 2.11914 16.0449L3.95508 12.7441C3.87695 12.2559 3.83789 11.7773 3.83789 11.2988C3.83789 5.56641 7.63672 1.72852 13.3301 1.72852C19.0527 1.72852 22.8809 5.66406 22.8809 11.5918C22.8809 14.3945 21.7188 16.8652 19.7754 18.1445L19.7754 24.8633C19.7754 26.6309 17.6562 27.7539 14.2285 27.7539Z" fill="black" fill-opacity="0.85"/>
  <path d="M9.07227 13.0176C10.6152 13.0176 11.6992 12.0312 11.6992 10.6445C11.6992 10.1562 11.5332 9.72656 11.25 9.44336C11.0645 9.26758 10.9961 9.08203 10.9961 8.94531C10.9961 8.67188 11.2305 8.45703 11.5234 8.45703C11.6406 8.45703 11.8066 8.48633 11.9336 8.61328C12.0605 8.71094 12.1582 8.93555 12.1973 9.0625C13.1836 8.88672 13.6719 8.29102 13.6719 7.31445C13.6719 7.03125 13.8965 6.78711 14.1797 6.78711C14.4629 6.78711 14.7168 7.04102 14.7168 7.31445C14.7168 8.74023 14.0137 9.63867 12.6562 9.9707C12.7246 10.1855 12.7441 10.4297 12.7441 10.6641C12.7441 11.9043 12.0996 12.8906 11.0547 13.4277C11.6602 13.7793 12.3828 13.9746 13.1738 13.9746C13.4863 13.9746 13.8477 13.9355 14.1895 13.877C14.1113 13.6719 14.082 13.4668 14.082 13.2617C14.082 10.0977 18.877 9.52148 18.877 6.63086C18.877 5.21484 17.7637 4.12109 16.3672 4.12109C15.8887 4.12109 15.7129 4.14062 15.5371 4.17969C15.0391 3.56445 14.2773 3.19336 13.5449 3.19336C12.2559 3.19336 11.3281 3.96484 11.2988 5.20508C11.2988 5.51758 11.084 5.73242 10.7715 5.73242C10.4492 5.73242 10.2344 5.48828 10.2539 5.17578C10.2637 4.64844 10.4199 4.24805 10.5762 3.90625C10.3613 3.85742 10.1367 3.83789 9.91211 3.83789C8.4082 3.83789 7.25586 4.80469 7.25586 6.05469C7.25586 6.88477 7.85156 7.49023 8.63281 7.49023C8.94531 7.49023 9.17969 7.72461 9.17969 8.01758C9.17969 8.30078 8.93555 8.54492 8.63281 8.54492C7.58789 8.54492 6.76758 8.02734 6.42578 7.22656C5.9668 7.85156 5.71289 8.62305 5.71289 9.4043C5.71289 11.4551 7.06055 13.0176 9.07227 13.0176ZM18.584 16.5527C19.9023 16.5527 20.8105 15.0098 20.8105 12.7734C20.8105 12.5781 20.8105 12.373 20.8008 12.168C20.3125 12.4023 19.7266 12.5098 19.0625 12.4805C18.7793 12.4512 18.5547 12.2266 18.5547 11.9434C18.5547 11.6602 18.7988 11.4062 19.082 11.4258C20.498 11.4941 21.4355 10.7031 21.4355 9.43359C21.4355 8.26172 20.8301 7.29492 19.8438 6.79688C19.5508 10.2637 15.0195 10.7324 15.0195 13.2324C15.0195 14.0137 15.5762 14.5605 16.4746 14.5605L16.7188 14.5605C16.9043 15.752 17.6367 16.5527 18.584 16.5527Z" fill="black" fill-opacity="0.85"/>
 </g>
</svg>
