<?xml version="1.0" ?><!-- Generator: Adobe Illustrator 25.0.0, SVG Export Plug-In . SVG Version: 6.00 Build 0)  --><svg xmlns="http://www.w3.org/2000/svg" xmlns:xlink="http://www.w3.org/1999/xlink" version="1.1" id="Layer_1" x="0px" y="0px" viewBox="0 0 512 512" style="enable-background:new 0 0 512 512;" xml:space="preserve">
<path d="M87.3,512h337.3c29.1,0,50.9-7.2,65.5-21.6c14.6-14.4,21.8-35.9,21.8-64.7V86.2c0-28.7-7.3-50.3-21.8-64.7  C475.6,7.2,453.8,0,424.7,0H87.3C58.2,0,36.4,7.2,21.8,21.6C7.3,35.9,0,57.5,0,86.2v339.6c0,28.7,7.3,50.3,21.8,64.7  C36.4,504.8,58.2,512,87.3,512z" class="multicolor-0:tintColor hierarchical-0:tertiary SFSymbolsPreview007AFF" style="fill: #007AFF;"/>
<path d="M135.2,385.2c-5.6,0-10.1-1.7-13.6-5.1c-3.5-3.4-5.3-7.9-5.3-13.5V150.7c0-7.8,1.9-14.1,5.7-18.9c3.8-4.8,9.2-7.2,16.3-7.2  h46.4c24.1,0,42,6.3,53.7,18.9c11.7,12.6,17.5,30.5,17.5,53.7c0,15-3.2,29.2-9.5,42.6c-6.3,13.3-15.5,22.3-27.5,27l37.3,92.6  c3.3,8.3,2.7,14.7-1.9,19.2c-4.6,4.4-10.1,6.7-16.4,6.7c-3.7,0-7.1-0.9-10.3-2.8c-3.2-1.9-5.6-4.8-7.2-8.9l-37.8-99.6  c-1.1,0.2-2.1,0.3-3.1,0.3c-0.9,0-1.9,0-2.8,0h-22.5v92.3c0,5.6-1.8,10.1-5.3,13.5C145.3,383.5,140.7,385.2,135.2,385.2z M154.1,245  h26.4c13,0,22.4-4.4,28.2-13.1c5.8-8.7,8.8-19.8,8.8-33.4c0-13.5-3-24.1-9-31.8c-6-7.7-15.4-11.5-28.2-11.5h-26.1V245z M349.9,404.6  c-3.3,0-6.2-1.2-8.5-3.6c-2.3-2.4-3.5-5.3-3.5-8.6v-19.5c-16.7-2-30-8-40-17.8c-10-9.8-16-22.2-18.1-37c-1.1-7.4,0.2-13.1,3.9-17.1  c3.7-4,8.1-6,13.1-6c3.9,0,7.3,1.3,10.3,3.8c3,2.5,4.7,6.1,5.3,10.7c0.9,8.7,3.4,15.9,7.5,21.4c4.1,5.6,10.1,9.1,18.1,10.6v-73.4  l-10-5c-15-7.8-26.8-16.9-35.3-27.3c-8.5-10.4-12.8-23.4-12.8-38.9c0-16.9,5.4-30.7,16.3-41.6c10.8-10.8,24.8-17.2,41.9-19.1v-18.9  c0-3.2,1.2-5.9,3.5-8.3c2.3-2.4,5.1-3.6,8.5-3.6c3.2,0,5.9,1.2,8.3,3.6c2.4,2.4,3.6,5.2,3.6,8.3v19.2c15.6,2.4,27.9,8.5,37.1,18.4  c9.2,9.8,14.6,21.7,16.3,35.6c1.1,8.2-0.2,14.1-4,17.8c-3.8,3.7-8.2,5.6-13.2,5.6c-3.9,0-7.4-1.3-10.6-3.8c-3.2-2.5-4.9-6.2-5.3-11  c-0.6-7.4-2.5-13.9-6-19.3c-3.4-5.5-8.2-9.2-14.3-11.3V240l9.2,5.3c16.9,9.1,29.2,18.7,37.1,28.9c7.9,10.2,11.8,22.2,11.8,36.2  c0,17.8-5.3,32.2-16,43.2c-10.7,11-24.7,17.6-42.1,19.6v19.2c0,3.3-1.2,6.2-3.6,8.6C355.8,403.4,353,404.6,349.9,404.6z   M361.8,341.5c7.4-1.5,13.1-4.8,17.1-9.9c4-5.1,6-11.4,6-18.8c0-6.7-2.1-12.6-6.4-17.8c-4.3-5.2-9.5-9.7-15.9-13.6l-0.8-0.3V341.5z   M337.9,167.4c-6.9,1.7-12.3,4.9-16.4,9.7c-4.1,4.8-6.1,10.9-6.1,18.4c0,7.6,2.1,13.8,6.3,18.6c4.2,4.8,9.1,8.9,14.9,12.2l1.4,0.8  V167.4z" class="multicolor-1:white hierarchical-1:primary SFSymbolsPreviewFFFFFF" style="fill: #FFFFFF;"/>
</svg>