<?xml version="1.0" ?><!-- Generator: Adobe Illustrator 25.0.0, SVG Export Plug-In . SVG Version: 6.00 Build 0)  --><svg xmlns="http://www.w3.org/2000/svg" xmlns:xlink="http://www.w3.org/1999/xlink" version="1.1" id="Layer_1" x="0px" y="0px" viewBox="0 0 512 512" style="enable-background:new 0 0 512 512;" xml:space="preserve">
<path d="M256,512c35,0,67.9-6.7,98.8-20.1c30.9-13.4,58.1-31.9,81.7-55.5c23.6-23.6,42.1-50.8,55.5-81.7  C505.3,323.9,512,291,512,256s-6.7-67.9-20.1-98.8c-13.4-30.9-31.9-58.1-55.5-81.7c-23.6-23.6-50.9-42.1-81.8-55.5  C323.7,6.7,290.7,0,255.7,0S187.9,6.7,157,20.1C126.1,33.5,98.9,52,75.4,75.5c-23.5,23.6-42,50.8-55.3,81.7C6.7,188.1,0,221,0,256  s6.7,67.9,20.1,98.8c13.4,30.9,31.9,58.1,55.5,81.7c23.6,23.6,50.8,42.1,81.7,55.5C188.1,505.3,221,512,256,512z" class="multicolor-0:tintColor hierarchical-0:tertiary SFSymbolsPreview007AFF" style="fill: #007AFF;"/>
<path d="M146.8,373c-5,0-9.1-1.5-12.3-4.6c-3.2-3.1-4.8-7.2-4.8-12.2V161.4c0-7,1.7-12.7,5.1-17.1c3.4-4.4,8.3-6.5,14.7-6.5h41.9  c21.8,0,37.9,5.7,48.4,17.1c10.5,11.4,15.8,27.5,15.8,48.4c0,13.6-2.8,26.4-8.5,38.4c-5.7,12-14,20.2-24.8,24.3l33.6,83.6  c3,7.5,2.4,13.3-1.8,17.3c-4.2,4-9.1,6-14.8,6c-3.3,0-6.4-0.8-9.3-2.5c-2.8-1.7-5-4.4-6.5-8l-34.1-89.9c-1,0.2-1.9,0.3-2.8,0.3  c-0.8,0-1.7,0-2.5,0h-20.3v83.3c0,5-1.6,9.1-4.8,12.2C155.9,371.4,151.8,373,146.8,373z M163.9,246.5h23.8  c11.7,0,20.2-3.9,25.5-11.8c5.3-7.9,7.9-17.9,7.9-30.1c0-12.2-2.7-21.8-8.2-28.7c-5.4-6.9-13.9-10.4-25.5-10.4h-23.6V246.5z   M340.6,390.5c-3,0-5.6-1.1-7.7-3.3c-2.1-2.2-3.1-4.8-3.1-7.8v-17.6c-15.1-1.8-27.1-7.2-36.1-16.1c-9-8.9-14.5-20-16.3-33.4  c-1-6.7,0.2-11.8,3.5-15.4c3.3-3.6,7.3-5.4,11.8-5.4c3.5,0,6.6,1.1,9.3,3.4c2.7,2.3,4.3,5.5,4.8,9.7c0.8,7.9,3.1,14.3,6.8,19.3  c3.7,5,9.1,8.2,16.3,9.5v-66.3l-9-4.5c-13.6-7-24.2-15.2-31.9-24.6c-7.7-9.4-11.5-21.1-11.5-35.1c0-15.2,4.9-27.7,14.7-37.5  c9.8-9.8,22.4-15.5,37.8-17.2v-17.1c0-2.8,1-5.4,3.1-7.5c2.1-2.2,4.6-3.3,7.7-3.3c2.8,0,5.4,1.1,7.5,3.3c2.2,2.2,3.3,4.7,3.3,7.5  v17.3c14.1,2.2,25.2,7.7,33.5,16.6c8.3,8.9,13.2,19.6,14.7,32.1c1,7.4-0.2,12.7-3.6,16.1c-3.4,3.3-7.4,5-11.9,5  c-3.5,0-6.7-1.1-9.5-3.4c-2.8-2.3-4.4-5.6-4.8-9.9c-0.5-6.7-2.3-12.5-5.4-17.4c-3.1-4.9-7.4-8.3-12.9-10.2v64.5l8.3,4.8  c15.2,8.2,26.4,16.9,33.5,26.1c7.1,9.2,10.7,20.1,10.7,32.6c0,16.1-4.8,29.1-14.4,39c-9.6,10-22.3,15.9-38,17.7v17.3  c0,3-1.1,5.6-3.3,7.8C345.9,389.4,343.4,390.5,340.6,390.5z M351.4,333.6c6.7-1.3,11.8-4.3,15.4-8.9c3.6-4.6,5.4-10.2,5.4-16.9  c0-6-1.9-11.4-5.8-16.1c-3.8-4.7-8.6-8.8-14.3-12.3l-0.8-0.3V333.6z M329.8,176.4c-6.2,1.5-11.1,4.4-14.8,8.8  c-3.7,4.4-5.5,9.9-5.5,16.6c0,6.9,1.9,12.5,5.6,16.8c3.8,4.4,8.2,8,13.4,11l1.3,0.8V176.4z" class="multicolor-1:white hierarchical-1:primary SFSymbolsPreviewFFFFFF" style="fill: #FFFFFF;"/>
</svg>