<?xml version="1.0" encoding="UTF-8"?>
<!--Generator: Apple Native CoreSVG 326-->
<!DOCTYPE svg
PUBLIC "-//W3C//DTD SVG 1.1//EN"
       "http://www.w3.org/Graphics/SVG/1.1/DTD/svg11.dtd">
<svg version="1.1" xmlns="http://www.w3.org/2000/svg" xmlns:xlink="http://www.w3.org/1999/xlink" viewBox="0 0 30.3809 25.0293">
 <g>
  <rect height="25.0293" opacity="0" width="30.3809" x="0" y="0"/>
  <path d="M30.0195 15.0098C30.0195 11.3281 28.6914 7.95898 26.4844 5.3418C26.2305 5.03906 25.8008 5.04883 25.5176 5.33203L22.6953 8.1543C22.4512 8.39844 22.4414 8.74023 22.6562 9.01367C23.9551 10.6738 24.7266 12.7441 24.7266 15.0098C24.7266 17.2754 23.9551 19.3555 22.5977 21.0742C22.4121 21.3086 22.4219 21.6016 22.627 21.8066L25.5176 24.707C25.8008 25 26.2207 24.9902 26.4844 24.6875C28.6914 22.0703 30.0195 18.6816 30.0195 15.0098Z" fill="black" fill-opacity="0.85"/>
  <path d="M15.0098 5.2832C17.2754 5.2832 19.3652 6.06445 21.0254 7.38281C21.2891 7.57812 21.6113 7.55859 21.8555 7.31445L24.6875 4.48242C24.9805 4.19922 24.9707 3.7793 24.668 3.51562C22.0605 1.32812 18.6816 0 15.0098 0C11.3379 0 7.95898 1.32812 5.35156 3.51562C5.04883 3.7793 5.03906 4.19922 5.32227 4.48242L8.16406 7.31445C8.39844 7.55859 8.75 7.56836 9.02344 7.35352C10.6738 6.06445 12.7539 5.2832 15.0098 5.2832Z" fill="black" fill-opacity="0.85"/>
  <path d="M0 15.0098C0 18.6816 1.32812 22.0703 3.53516 24.6875C3.78906 24.9902 4.21875 25 4.50195 24.707L7.39258 21.8066C7.58789 21.6016 7.60742 21.3086 7.42188 21.0742C6.06445 19.3555 5.2832 17.2754 5.2832 15.0098C5.2832 12.7441 6.05469 10.6738 7.36328 9.01367C7.56836 8.74023 7.56836 8.39844 7.32422 8.1543L4.49219 5.33203C4.20898 5.04883 3.78906 5.03906 3.52539 5.3418C1.31836 7.95898 0 11.3281 0 15.0098Z" fill="black" fill-opacity="0.85"/>
  <path d="M9.43359 20.2539C9.83398 20.2539 10.0684 20 10.0684 19.5996L10.0684 15.9766L11.7578 15.9766L13.3887 19.8047C13.5352 20.1172 13.7109 20.2539 14.0332 20.2539C14.4043 20.2539 14.6484 20.0195 14.6484 19.668C14.6484 19.502 14.5801 19.3457 14.5117 19.1992L12.9785 15.7031C14.1309 15.2441 14.6484 14.1211 14.6484 12.9297C14.6484 11.0156 13.457 9.92188 11.6211 9.92188L9.42383 9.92188C9.0332 9.92188 8.80859 10.1758 8.80859 10.5664L8.80859 19.5996C8.80859 19.9805 9.00391 20.2539 9.43359 20.2539ZM10.0684 14.9512L10.0684 10.9863L11.4941 10.9863C12.7246 10.9863 13.3789 11.7676 13.3789 12.9492C13.3789 14.1309 12.7832 14.9512 11.5137 14.9512ZM18.7598 19.9707C20.5371 19.9707 21.6895 18.9746 21.6895 17.3926C21.6895 15.9082 20.7715 15.2734 19.5312 14.6875L18.6523 14.2676C17.7832 13.8574 17.1094 13.3691 17.1094 12.5C17.1094 11.5625 17.8125 11.0938 18.7305 11.0938C19.8145 11.0938 20.2441 11.8066 20.3711 12.6953C20.4199 12.9297 20.6152 13.1641 20.957 13.1641C21.2988 13.1641 21.5234 12.9492 21.5234 12.6074C21.5234 12.5195 21.5039 12.3633 21.4746 12.2461C21.1816 10.6836 20.0586 10.0781 18.7305 10.0781C17.1289 10.0781 15.9082 10.9961 15.9082 12.5684C15.9082 13.9062 16.6797 14.6289 18.0371 15.2734L18.9062 15.6934C19.7754 16.1133 20.4883 16.5527 20.4883 17.5C20.4883 18.4766 19.8242 18.9453 18.7695 18.9453C17.627 18.9453 17.1191 18.3398 16.9531 17.2852C16.8945 16.9531 16.6406 16.8066 16.3867 16.8066C16.0352 16.8066 15.791 17.002 15.791 17.3633C15.791 17.4609 15.8105 17.5977 15.8398 17.7246C16.1523 19.3262 17.334 19.9707 18.7598 19.9707ZM18.7402 21.3184C18.9355 21.3184 19.0625 21.1914 19.0625 20.9961L19.0625 9.0918C19.0625 8.89648 18.9355 8.76953 18.7402 8.76953C18.5449 8.76953 18.418 8.89648 18.418 9.0918L18.418 20.9961C18.418 21.1914 18.5449 21.3184 18.7402 21.3184Z" fill="black" fill-opacity="0.85"/>
 </g>
</svg>
