<?xml version="1.0" encoding="UTF-8"?>
<!--Generator: Apple Native CoreSVG 326-->
<!DOCTYPE svg
PUBLIC "-//W3C//DTD SVG 1.1//EN"
       "http://www.w3.org/Graphics/SVG/1.1/DTD/svg11.dtd">
<svg version="1.1" xmlns="http://www.w3.org/2000/svg" xmlns:xlink="http://www.w3.org/1999/xlink" viewBox="0 0 25.8008 25.459">
 <g>
  <rect height="25.459" opacity="0" width="25.8008" x="0" y="0"/>
  <path d="M12.7148 25.4395C19.7363 25.4395 25.4395 19.7461 25.4395 12.7246C25.4395 5.70312 19.7363 0 12.7148 0C5.69336 0 0 5.70312 0 12.7246C0 19.7461 5.69336 25.4395 12.7148 25.4395ZM12.7148 23.623C6.68945 23.623 1.81641 18.75 1.81641 12.7246C1.81641 6.69922 6.68945 1.82617 12.7148 1.82617C18.7402 1.82617 23.6133 6.69922 23.6133 12.7246C23.6133 18.75 18.7402 23.623 12.7148 23.623Z" fill="black" fill-opacity="0.85"/>
  <path d="M7.49023 18.3984L17.9492 18.3984C19.2285 18.3984 19.8535 17.7832 19.8535 16.5137L19.8535 10.0879C19.8535 8.81836 19.2285 8.20312 17.9492 8.20312L7.49023 8.20312C6.20117 8.20312 5.57617 8.81836 5.57617 10.0879L5.57617 16.5137C5.57617 17.7832 6.20117 18.3984 7.49023 18.3984ZM11.709 14.0918C11.2793 14.0918 11.0254 13.8379 11.0254 13.3984L11.0254 12.8711C9.22852 12.7539 7.46094 12.4316 5.57617 11.7676L5.57617 10.7227C7.93945 11.6797 10.2148 12.002 12.7148 12.002C15.2148 12.002 17.4902 11.6797 19.8535 10.7227L19.8535 11.7676C17.9688 12.4316 16.2012 12.7539 14.4141 12.8711L14.4141 13.3984C14.4141 13.8379 14.1504 14.0918 13.7207 14.0918ZM8.94531 8.71094L10.0488 8.71094L10.0488 7.48047C10.0488 7.11914 10.2637 6.9043 10.6543 6.9043L14.7852 6.9043C15.1758 6.9043 15.4004 7.11914 15.4004 7.48047L15.4004 8.71094L16.4844 8.71094L16.4844 7.43164C16.4844 6.46484 15.8496 5.86914 14.8438 5.86914L10.5957 5.86914C9.58008 5.86914 8.94531 6.46484 8.94531 7.43164Z" fill="black" fill-opacity="0.85"/>
 </g>
</svg>
