<?xml version="1.0" ?><!-- Generator: Adobe Illustrator 25.0.0, SVG Export Plug-In . SVG Version: 6.00 Build 0)  --><svg xmlns="http://www.w3.org/2000/svg" xmlns:xlink="http://www.w3.org/1999/xlink" version="1.1" id="Layer_1" x="0px" y="0px" viewBox="0 0 512 512" style="enable-background:new 0 0 512 512;" xml:space="preserve">
<path d="M256,512c35,0,67.9-6.7,98.8-20.1c30.9-13.4,58.1-31.9,81.7-55.5c23.6-23.6,42.1-50.8,55.5-81.7  C505.3,323.9,512,291,512,256s-6.7-67.9-20.1-98.8c-13.4-30.9-31.9-58.1-55.5-81.7c-23.6-23.6-50.9-42.1-81.8-55.5  C323.7,6.7,290.7,0,255.7,0S187.9,6.7,157,20.1C126.1,33.5,98.9,52,75.4,75.5c-23.5,23.6-42,50.8-55.3,81.7C6.7,188.1,0,221,0,256  s6.7,67.9,20.1,98.8c13.4,30.9,31.9,58.1,55.5,81.7c23.6,23.6,50.8,42.1,81.7,55.5C188.1,505.3,221,512,256,512z M256,469.3  c-29.6,0-57.3-5.5-83.1-16.6c-25.8-11-48.4-26.3-67.9-45.8c-19.5-19.5-34.7-42.1-45.7-67.9c-11-25.8-16.4-53.5-16.4-83.1  c0-29.6,5.5-57.3,16.4-83.1c11-25.8,26.1-48.4,45.6-68s42-34.8,67.8-45.8c25.8-11,53.5-16.4,83.1-16.4c29.6,0,57.3,5.5,83.1,16.4  c25.8,11,48.4,26.2,68,45.8c19.6,19.6,34.9,42.2,45.9,68c11,25.8,16.6,53.5,16.6,83.1c0,29.6-5.5,57.3-16.4,83.1  c-11,25.8-26.2,48.4-45.7,67.9c-19.5,19.5-42.2,34.8-68,45.8C313.3,463.8,285.6,469.3,256,469.3z" class="multicolor-0:systemBrownColor hierarchical-0:secondary SFSymbolsPreviewA2845E" style="fill: #A2845E;"/>
<path d="M152.8,367.4h206.6c13.2,0,23.1-3.2,29.7-9.7c6.6-6.4,9.9-16.3,9.9-29.5v-125c0-13.2-3.3-23-9.9-29.5  c-6.6-6.4-16.5-9.7-29.7-9.7H152.8c-13.2,0-23.1,3.2-29.7,9.7c-6.6,6.4-9.9,16.3-9.9,29.5v125c0,13.2,3.3,23,9.9,29.5  C129.7,364.2,139.6,367.4,152.8,367.4z M235.9,282.6c-9.2,0-13.8-4.7-13.8-14.1V258c-18.1-1.2-36.1-3.5-54-7  c-17.9-3.5-36.2-8.6-55-15.3v-22.3c23.6,9.7,47.1,16.5,70.4,20.3c23.3,3.8,47.6,5.8,72.7,5.8c24.9,0,49.1-1.9,72.4-5.8  c23.3-3.8,46.8-10.6,70.4-20.3v22.3c-18.7,6.7-37.1,11.8-55,15.3c-17.9,3.5-35.9,5.9-54,7v10.5c0,9.4-4.6,14.1-13.8,14.1H235.9z   M179.7,175.2h24.1v-22.8c0-7,3.7-10.5,11-10.5h82.8c7.4,0,11,3.5,11,10.5v22.8h23.8v-24.1c0-9.9-3-17.7-9-23.3  c-6-5.7-14.1-8.5-24.3-8.5h-86.1c-10.2,0-18.3,2.8-24.3,8.5c-6,5.7-9,13.5-9,23.3V175.2z" class="multicolor-0:systemBrownColor hierarchical-1:primary SFSymbolsPreviewA2845E" style="fill: #A2845E;"/>
</svg>