<?xml version="1.0" ?><!-- Generator: Adobe Illustrator 25.0.0, SVG Export Plug-In . SVG Version: 6.00 Build 0)  --><svg xmlns="http://www.w3.org/2000/svg" xmlns:xlink="http://www.w3.org/1999/xlink" version="1.1" id="Layer_1" x="0px" y="0px" viewBox="0 0 512 512" style="enable-background:new 0 0 512 512;" xml:space="preserve">
<path d="M161.4,92.8v20.9h189.7V92.8c0-11.7-8-19.3-20.5-19.3h-149C169.2,73.5,161.4,81,161.4,92.8z M256.1,249.6  c-89.4,0-171.7-12.2-256.1-47.1v-18.6c0-46.9,23.7-70.1,71-70.1h48.7V90.5c0-34.7,22.8-56.1,59.3-56.1h153.8  c36.8,0,59.5,21.4,59.5,56.1v23.2H441c47.6,0,71,23.2,71,70.1v18.6C427.6,237.4,345.3,249.6,256.1,249.6z M71,477.6  c-47.4,0-71-23-71-70.1V240.4c67.1,23.9,130.8,36.3,195,40.7v18.6c0,16.3,9.2,25.3,25.3,25.3h71.5c16.3,0,25.5-9,25.5-25.3v-18.6  c63.9-4.4,127.6-16.8,194.7-40.7v167.1c0,47.1-23.4,70.1-71,70.1H71z"/>
</svg>