<?xml version="1.0" ?><!-- Generator: Adobe Illustrator 25.0.0, SVG Export Plug-In . SVG Version: 6.00 Build 0)  --><svg xmlns="http://www.w3.org/2000/svg" xmlns:xlink="http://www.w3.org/1999/xlink" version="1.1" id="Layer_1" x="0px" y="0px" viewBox="0 0 512 512" style="enable-background:new 0 0 512 512;" xml:space="preserve">
<path d="M255.5,14.5c-10.5,0-20.2,4.4-29.5,20.4l-43,71.8h-76.7C37.2,106.7,0,144.8,0,213.1v177.9c0,68.3,37.2,106.4,106.4,106.4  h299.2c69.2,0,106.4-38.3,106.4-106.4V213.1c0-68.1-37.2-106.4-106.4-106.4H328L285,35C275.7,18.9,266,14.5,255.5,14.5z M255.5,52.6  l38.8,72.7c7.7,15.1,13.2,18.8,29.7,18.8h81.5c46.7,0,69,23.7,69,69v177.7c0,45.3-22.3,69.2-69,69.2H106.4c-46.9,0-69-23.9-69-69.2  V213.1c0-45.3,22.1-69,69-69H187c16.5,0,22.1-3.7,29.7-18.8L255.5,52.6z"/>
</svg>