<?xml version="1.0" encoding="UTF-8"?>
<!--Generator: Apple Native CoreSVG 326-->
<!DOCTYPE svg
PUBLIC "-//W3C//DTD SVG 1.1//EN"
       "http://www.w3.org/Graphics/SVG/1.1/DTD/svg11.dtd">
<svg version="1.1" xmlns="http://www.w3.org/2000/svg" xmlns:xlink="http://www.w3.org/1999/xlink" viewBox="0 0 26.5918 25.6152">
 <g>
  <rect height="25.6152" opacity="0" width="26.5918" x="0" y="0"/>
  <path d="M22.1289 16.8945C22.5488 20.0586 22.5781 20.0586 25.8008 20.5566C26.0547 20.6055 26.2305 20.7812 26.2305 21.0254C26.2305 21.2695 26.0547 21.4453 25.8105 21.4941C22.5488 22.1191 22.5586 22.0703 22.1289 25.1758C22.0898 25.4199 21.8945 25.5859 21.6602 25.5859C21.3965 25.5859 21.2109 25.4102 21.1914 25.1562C20.7715 22.0508 20.7422 22.041 17.5293 21.4941C17.2559 21.4453 17.0898 21.2793 17.0898 21.0254C17.0898 20.8008 17.2461 20.6152 17.4902 20.5566C20.7422 19.9414 20.7715 20.0098 21.1914 16.9043C21.2109 16.6504 21.3965 16.4648 21.6602 16.4648C21.9043 16.4648 22.0996 16.6406 22.1289 16.8945Z" fill="black" fill-opacity="0.85"/>
  <path d="M8.49609 0.332031C8.92578 2.72461 8.86719 2.63672 11.2695 3.10547C11.4746 3.1543 11.6016 3.30078 11.6016 3.49609C11.6016 3.68164 11.4746 3.83789 11.2695 3.87695C8.86719 4.3457 8.92578 4.25781 8.49609 6.65039C8.45703 6.8457 8.30078 6.98242 8.11523 6.98242C7.91992 6.98242 7.76367 6.8457 7.73438 6.65039C7.30469 4.25781 7.36328 4.3457 4.96094 3.87695C4.75586 3.83789 4.62891 3.68164 4.62891 3.49609C4.62891 3.30078 4.75586 3.1543 4.96094 3.10547C7.36328 2.63672 7.30469 2.72461 7.73438 0.332031C7.76367 0.136719 7.91992 0 8.11523 0C8.30078 0 8.45703 0.136719 8.49609 0.332031Z" fill="black" fill-opacity="0.85"/>
  <path d="M11.4746 21.6504C11.4746 23.5449 9.93164 25.0879 8.06641 25.0879C6.17188 25.0879 4.62891 23.5449 4.62891 21.6504C4.62891 19.7852 6.17188 18.2422 8.06641 18.2422C9.92188 18.2422 11.4746 19.7852 11.4746 21.6504Z" fill="black" fill-opacity="0.85"/>
  <path d="M6.35742 10.5957C6.35742 12.3438 4.91211 13.7793 3.18359 13.7793C1.43555 13.7793 0 12.3535 0 10.5957C0 8.85742 1.43555 7.42188 3.18359 7.42188C4.91211 7.42188 6.35742 8.86719 6.35742 10.5957Z" fill="black" fill-opacity="0.85"/>
  <path d="M25.6348 7.42188C25.6348 10.3503 23.4635 12.7727 20.6412 13.16C20.6908 12.8763 20.7129 12.5834 20.7129 12.2852C20.7129 9.02344 18.0762 6.38672 14.8242 6.38672C14.5901 6.38672 14.3592 6.4003 14.1335 6.43037C14.5974 3.7002 16.9697 1.63086 19.834 1.63086C23.0371 1.63086 25.6348 4.21875 25.6348 7.42188Z" fill="black" fill-opacity="0.85"/>
  <path d="M14.8242 16.8164C17.3242 16.8164 19.3555 14.7949 19.3555 12.2852C19.3555 9.77539 17.3242 7.74414 14.8242 7.74414C12.3145 7.74414 10.293 9.77539 10.293 12.2852C10.293 14.7949 12.3145 16.8164 14.8242 16.8164Z" fill="black" fill-opacity="0.85"/>
 </g>
</svg>
