<?xml version="1.0" encoding="UTF-8"?>
<!--Generator: Apple Native CoreSVG 326-->
<!DOCTYPE svg
PUBLIC "-//W3C//DTD SVG 1.1//EN"
       "http://www.w3.org/Graphics/SVG/1.1/DTD/svg11.dtd">
<svg version="1.1" xmlns="http://www.w3.org/2000/svg" xmlns:xlink="http://www.w3.org/1999/xlink" viewBox="0 0 38.5133 38.0773">
 <g>
  <rect height="38.0773" opacity="0" width="38.5133" x="0" y="0"/>
  <path d="M25.4431 8.7115L10.8338 8.7115C8.31424 8.7115 7.05448 10.0592 7.05448 12.5006L7.05448 22.4322C7.05448 24.8736 8.31424 26.2213 10.8338 26.2213L12.3572 26.2213C12.9529 26.2213 13.1775 26.4459 13.1775 27.0416L13.1775 30.7134L17.2791 26.7584C17.7185 26.3189 18.0408 26.2213 18.656 26.2213L27.3084 26.2213C29.8084 26.2213 31.0974 24.8736 31.0974 22.4322L31.0974 12.5006C31.0974 12.252 31.0841 12.0147 31.0539 11.7921L32.515 10.331C32.7224 10.9664 32.826 11.69 32.826 12.4908L32.826 22.4517C32.826 25.9283 30.8631 27.9498 27.3181 27.9498L18.6853 27.9498L14.281 31.8267C13.6463 32.3931 13.2752 32.6763 12.7381 32.6763C11.9959 32.6763 11.5564 32.1392 11.5564 31.3092L11.5564 27.9498L10.824 27.9498C7.28885 27.9498 5.3162 25.9478 5.3162 22.4517L5.3162 12.4908C5.3162 8.9947 7.28885 6.98298 10.824 6.98298L27.1717 6.98298Z" fill="black" fill-opacity="0.85"/>
  <path d="M21.0291 17.7838L23.49 16.6314L34.4373 5.70368L32.8064 4.08259L21.8689 15.0103L20.6678 17.4029C20.5701 17.6177 20.8045 17.8814 21.0291 17.7838ZM35.326 4.80525L36.2342 3.88728C36.6834 3.43806 36.6931 2.87165 36.2635 2.44196L36.0096 2.19782C35.6287 1.8072 35.033 1.84626 34.6228 2.26618L33.7049 3.16462Z" fill="black" fill-opacity="0.85"/>
 </g>
</svg>
