<?xml version="1.0" ?><!-- Generator: Adobe Illustrator 25.0.0, SVG Export Plug-In . SVG Version: 6.00 Build 0)  --><svg xmlns="http://www.w3.org/2000/svg" xmlns:xlink="http://www.w3.org/1999/xlink" version="1.1" id="Layer_1" x="0px" y="0px" viewBox="0 0 512 512" style="enable-background:new 0 0 512 512;" xml:space="preserve">
<path d="M255.5,497.5c10.5,0,20.2-4.4,29.5-20.4l43-71.8h77.6c69.2,0,106.4-38.3,106.4-106.4V120.9c0-68.1-37.2-106.4-106.4-106.4  H106.4C37.2,14.5,0,52.6,0,120.9v177.9c0,68.3,37.2,106.4,106.4,106.4h76.7l43,71.8C235.3,493.1,245.1,497.5,255.5,497.5z   M255.5,459.4l-38.8-72.7c-7.7-15.1-13.2-18.8-29.7-18.8h-80.6c-46.9,0-69-23.9-69-69.2V120.9c0-45.3,22.1-69,69-69h299.2  c46.7,0,69,23.7,69,69v177.7c0,45.3-22.3,69.2-69,69.2h-81.5c-16.5,0-22.1,3.7-29.7,18.8L255.5,459.4z"/>
</svg>