<?xml version="1.0" encoding="UTF-8"?>
<!--Generator: Apple Native CoreSVG 326-->
<!DOCTYPE svg
PUBLIC "-//W3C//DTD SVG 1.1//EN"
       "http://www.w3.org/Graphics/SVG/1.1/DTD/svg11.dtd">
<svg version="1.1" xmlns="http://www.w3.org/2000/svg" xmlns:xlink="http://www.w3.org/1999/xlink" viewBox="0 0 26.5918 25.6152">
 <g>
  <rect height="25.6152" opacity="0" width="26.5918" x="0" y="0"/>
  <path d="M22.1289 16.8945C22.5488 20.0586 22.5781 20.0586 25.8008 20.5566C26.0547 20.6055 26.2305 20.7812 26.2305 21.0254C26.2305 21.2695 26.0547 21.4453 25.8105 21.4941C22.5488 22.1191 22.5586 22.0703 22.1289 25.1758C22.0898 25.4199 21.8945 25.5859 21.6602 25.5859C21.3965 25.5859 21.2109 25.4102 21.1914 25.1562C20.7715 22.0508 20.7422 22.041 17.5293 21.4941C17.2559 21.4453 17.0898 21.2793 17.0898 21.0254C17.0898 20.8008 17.2461 20.6152 17.4902 20.5566C20.7422 19.9414 20.7715 20.0098 21.1914 16.9043C21.2109 16.6504 21.3965 16.4648 21.6602 16.4648C21.9043 16.4648 22.0996 16.6406 22.1289 16.8945Z" fill="black" fill-opacity="0.85"/>
  <path d="M8.49609 0.332031C8.92578 2.72461 8.86719 2.63672 11.2695 3.10547C11.4746 3.1543 11.6016 3.30078 11.6016 3.49609C11.6016 3.68164 11.4746 3.83789 11.2695 3.87695C8.86719 4.3457 8.92578 4.25781 8.49609 6.65039C8.45703 6.8457 8.30078 6.98242 8.11523 6.98242C7.91992 6.98242 7.76367 6.8457 7.73438 6.65039C7.30469 4.25781 7.36328 4.3457 4.96094 3.87695C4.75586 3.83789 4.62891 3.68164 4.62891 3.49609C4.62891 3.30078 4.75586 3.1543 4.96094 3.10547C7.36328 2.63672 7.30469 2.72461 7.73438 0.332031C7.76367 0.136719 7.91992 0 8.11523 0C8.30078 0 8.45703 0.136719 8.49609 0.332031Z" fill="black" fill-opacity="0.85"/>
  <path d="M11.4746 21.6504C11.4746 23.5449 9.93164 25.0879 8.06641 25.0879C6.17188 25.0879 4.62891 23.5449 4.62891 21.6504C4.62891 19.7852 6.17188 18.2422 8.06641 18.2422C9.92188 18.2422 11.4746 19.7852 11.4746 21.6504ZM6.25977 21.6504C6.25977 22.6465 7.06055 23.4473 8.06641 23.4473C9.02344 23.4473 9.83398 22.627 9.83398 21.6504C9.83398 20.6836 9.02344 19.873 8.06641 19.873C7.08008 19.873 6.25977 20.6836 6.25977 21.6504Z" fill="black" fill-opacity="0.85"/>
  <path d="M6.35742 10.5957C6.35742 12.3438 4.91211 13.7793 3.18359 13.7793C1.43555 13.7793 0 12.3535 0 10.5957C0 8.85742 1.43555 7.42188 3.18359 7.42188C4.91211 7.42188 6.35742 8.86719 6.35742 10.5957ZM1.63086 10.5957C1.63086 11.4453 2.32422 12.1387 3.18359 12.1387C4.02344 12.1387 4.72656 11.4453 4.72656 10.5957C4.72656 9.75586 4.02344 9.0625 3.18359 9.0625C2.33398 9.0625 1.63086 9.75586 1.63086 10.5957Z" fill="black" fill-opacity="0.85"/>
  <path d="M25.6348 7.42188C25.6348 10.6152 23.0371 13.1934 19.834 13.1934C19.7092 13.1934 19.5854 13.1894 19.4645 13.1748C19.5221 12.8875 19.5508 12.5897 19.5508 12.2852C19.5508 12.0327 19.5311 11.7849 19.4874 11.5451C19.6011 11.5577 19.717 11.5625 19.834 11.5625C22.1289 11.5625 24.0039 9.7168 24.0039 7.42188C24.0039 5.11719 22.1484 3.26172 19.834 3.26172C17.5293 3.26172 15.6738 5.11719 15.6738 7.42188C15.6738 7.4925 15.6756 7.56271 15.6844 7.631C15.4063 7.57579 15.1183 7.54883 14.8242 7.54883C14.5607 7.54883 14.3024 7.57015 14.0528 7.61666C14.0441 7.55316 14.043 7.48765 14.043 7.42188C14.043 4.21875 16.6309 1.63086 19.834 1.63086C23.0371 1.63086 25.6348 4.21875 25.6348 7.42188Z" fill="black" fill-opacity="0.85"/>
  <path d="M14.8242 17.0117C17.4316 17.0117 19.5508 14.9023 19.5508 12.2852C19.5508 9.66797 17.4316 7.54883 14.8242 7.54883C12.1973 7.54883 10.0879 9.66797 10.0879 12.2852C10.0879 14.9023 12.1973 17.0117 14.8242 17.0117ZM14.8242 15.3809C13.0957 15.3809 11.7188 14.0039 11.7188 12.2852C11.7188 10.5664 13.0957 9.17969 14.8242 9.17969C16.5332 9.17969 17.9199 10.5664 17.9199 12.2852C17.9199 14.0039 16.5332 15.3809 14.8242 15.3809Z" fill="black" fill-opacity="0.85"/>
 </g>
</svg>
