<?xml version="1.0" encoding="UTF-8"?>
<!--Generator: Apple Native CoreSVG 326-->
<!DOCTYPE svg
PUBLIC "-//W3C//DTD SVG 1.1//EN"
       "http://www.w3.org/Graphics/SVG/1.1/DTD/svg11.dtd">
<svg version="1.1" xmlns="http://www.w3.org/2000/svg" xmlns:xlink="http://www.w3.org/1999/xlink" viewBox="0 0 27.8711 27.4707">
 <g>
  <rect height="27.4707" opacity="0" width="27.8711" x="0" y="0"/>
  <path d="M13.7305 27.4707C14.2285 27.4707 14.6875 27.2559 15.1172 26.5234L17.4805 22.6465L22.002 22.6465C25.5371 22.6465 27.5098 20.625 27.5098 17.1484L27.5098 7.1875C27.5098 3.70117 25.5371 1.67969 22.002 1.67969L5.50781 1.67969C1.96289 1.67969 0 3.69141 0 7.1875L0 17.1484C0 20.6445 1.96289 22.6465 5.50781 22.6465L9.98047 22.6465L12.3438 26.5234C12.7832 27.2559 13.2324 27.4707 13.7305 27.4707ZM13.7305 25.7129L11.5234 21.7676C11.1719 21.0938 10.918 20.918 10.1562 20.918L5.51758 20.918C2.99805 20.918 1.72852 19.5703 1.72852 17.1289L1.72852 7.19727C1.72852 4.75586 2.99805 3.4082 5.51758 3.4082L21.9922 3.4082C24.4824 3.4082 25.7812 4.75586 25.7812 7.19727L25.7812 17.1289C25.7812 19.5703 24.4824 20.918 21.9922 20.918L17.3047 20.918C16.543 20.918 16.2891 21.0938 15.9375 21.7676Z" fill="black" fill-opacity="0.85"/>
 </g>
</svg>
