<?xml version="1.0" ?><!-- Generator: Adobe Illustrator 25.0.0, SVG Export Plug-In . SVG Version: 6.00 Build 0)  --><svg xmlns="http://www.w3.org/2000/svg" xmlns:xlink="http://www.w3.org/1999/xlink" version="1.1" id="Layer_1" x="0px" y="0px" viewBox="0 0 512 512" style="enable-background:new 0 0 512 512;" xml:space="preserve">
<path d="M120.3,440c4.6,0,8.9-1,12.8-2.9c3.9-1.9,8.7-5.3,14.4-10.3l74.9-67l-20.7-20l-74.2,68.5v-51c0-5-1.3-8.7-4-11.1  c-2.7-2.4-6-3.7-9.9-3.7H79c-15.8,0-28.1-4.2-37-12.7S28.7,308.6,28.7,292V129.6c0-16.6,4.4-29.2,13.3-37.8C50.8,83.3,63.2,79,79,79  h251.5c15.8,0,28.1,4.3,37,12.8c8.9,8.6,13.3,21.2,13.3,37.8v25h28.7v-26c0-16-3.1-29.8-9.2-41.2c-6.1-11.4-14.9-20.1-26.5-26.2  c-11.5-6.1-25.4-9.1-41.5-9.1H77.2c-15.5,0-29,3-40.6,9.1C25,67.2,16,75.9,9.6,87.4S0,112.5,0,128.5v164.2c0,16.2,3.2,30,9.6,41.4  c6.4,11.4,15.4,20.1,27,26.1c11.6,6,25.1,9,40.6,9h23.5V418c0,6.9,1.7,12.3,5.1,16.1C109.2,438,114,440,120.3,440z" class="hierarchical-0:secondary SFSymbolsPreview4D4D4D" style="fill: #4D4D4D;"/>
<path d="M410.7,459.9c6.2,0,10.9-2,14.3-6.1c3.3-4,5-9.4,5-16.2v-42.8h7.5c14.9,0,27.9-2.9,39-8.7c11.2-5.8,19.9-14.2,26.1-25.1  c6.2-10.9,9.4-24.2,9.4-39.8V215.9c0-15.6-3.1-28.9-9.4-39.8c-6.2-11-14.9-19.4-26.1-25.2c-11.2-5.8-24.2-8.7-39-8.7H264.4  c-15.6,0-28.9,2.9-40,8.7c-11.1,5.8-19.6,14.2-25.5,25.2c-5.9,11-8.8,24.3-8.8,39.8v105.4c0,15.6,2.9,28.9,8.8,39.8  c5.9,11,14.4,19.4,25.5,25.1c11.1,5.8,24.5,8.6,40,8.6h61.5l59.5,51c5.5,4.6,10,8.1,13.5,10.5C402.5,458.8,406.5,459.9,410.7,459.9z   M403.3,427.7L346,376.3c-3.6-3.1-6.8-5.3-9.6-6.5c-2.9-1.2-6.7-1.9-11.6-1.9h-58.7c-14.9,0-26.5-4-34.9-11.9  c-8.4-8-12.7-19.8-12.7-35.7l0.2-103.6c0-15.7,4.2-27.6,12.6-35.7c8.4-8.1,20-12.1,34.9-12.1h169.7c14.9,0,26.5,4,34.9,12.1  c8.4,8.1,12.6,20,12.6,35.7v103.6c0,15.7-4.2,27.5-12.7,35.6c-8.4,8-20,12-34.8,12H417c-3.8,0-7,1.2-9.7,3.6c-2.7,2.4-4,6.1-4,11.1  V427.7z M351.1,290.4c8.3,0,12.6-4.5,12.9-13.6l2.5-62.3c0.1-4.6-1.3-8.4-4.3-11.4c-3-2.9-6.8-4.4-11.3-4.4c-4.6,0-8.4,1.4-11.4,4.3  c-2.9,2.9-4.3,6.6-4.1,11.3l2.2,62.5C338.1,285.9,342.5,290.4,351.1,290.4z M351,344.6c4.9,0,9.1-1.7,12.8-5.1  c3.7-3.4,5.5-7.6,5.5-12.6c0-5-1.8-9.2-5.4-12.6c-3.6-3.4-7.9-5.1-12.9-5.1s-9.3,1.7-12.9,5.2c-3.6,3.5-5.4,7.6-5.4,12.5  c0,4.9,1.8,9,5.4,12.5C341.7,342.9,346,344.6,351,344.6z" class="hierarchical-1:primary SFSymbolsPreview212121" style="fill: #212121;"/>
</svg>