<?xml version="1.0" encoding="UTF-8"?>
<!--Generator: Apple Native CoreSVG 326-->
<!DOCTYPE svg
PUBLIC "-//W3C//DTD SVG 1.1//EN"
       "http://www.w3.org/Graphics/SVG/1.1/DTD/svg11.dtd">
<svg version="1.1" xmlns="http://www.w3.org/2000/svg" xmlns:xlink="http://www.w3.org/1999/xlink" viewBox="0 0 37.9395 31.2793">
 <g>
  <rect height="31.2793" opacity="0" width="37.9395" x="0" y="0"/>
  <path d="M28.6773 6.45508L19.2871 6.45508C15.0781 6.45508 12.6465 8.95508 12.6465 13.0859L12.6465 20.3125C12.6465 21.5907 12.8793 22.7109 13.3268 23.6474L10.1562 26.4453C9.52148 27.002 9.15039 27.2852 8.61328 27.2852C7.87109 27.2852 7.43164 26.7578 7.43164 25.918L7.43164 22.5586L6.69922 22.5586C3.16406 22.5586 1.19141 20.5566 1.19141 17.0605L1.19141 7.09961C1.19141 3.60352 3.16406 1.5918 6.69922 1.5918L23.1934 1.5918C26.5137 1.5918 28.4461 3.36528 28.6773 6.45508Z" fill="black" fill-opacity="0.85"/>
  <path d="M36.3867 13.0859L36.3867 20.293C36.3867 23.5742 34.6289 25.3613 31.3086 25.3613L30.8691 25.3613L30.8691 28.3789C30.8691 29.1895 30.4492 29.7168 29.707 29.7168C29.1992 29.7168 28.8281 29.4336 28.2031 28.8867L24.082 25.3613L19.2871 25.3613C15.957 25.3613 14.1992 23.584 14.1992 20.3125L14.1992 13.0859C14.1992 9.80469 15.957 8.00781 19.2871 8.00781L31.3086 8.00781C34.6289 8.00781 36.3867 9.80469 36.3867 13.0859ZM24.1797 20.3809C24.1797 20.9668 24.6875 21.4551 25.2832 21.4551C25.8789 21.4551 26.3867 20.9766 26.3867 20.3809C26.3867 19.7852 25.8887 19.3164 25.2832 19.3164C24.6875 19.3164 24.1797 19.7949 24.1797 20.3809ZM24.3945 12.9102L24.5215 17.2363C24.541 17.7441 24.8047 18.0371 25.293 18.0371C25.7617 18.0371 26.0254 17.7539 26.0449 17.2363L26.1816 12.9199C26.2012 12.373 25.8105 11.9922 25.2832 11.9922C24.7559 11.9922 24.375 12.3633 24.3945 12.9102Z" fill="black" fill-opacity="0.85"/>
 </g>
</svg>
