<?xml version="1.0" encoding="UTF-8"?>
<!--Generator: Apple Native CoreSVG 326-->
<!DOCTYPE svg
PUBLIC "-//W3C//DTD SVG 1.1//EN"
       "http://www.w3.org/Graphics/SVG/1.1/DTD/svg11.dtd">
<svg version="1.1" xmlns="http://www.w3.org/2000/svg" xmlns:xlink="http://www.w3.org/1999/xlink" viewBox="0 0 35.5469 28.1543">
 <g>
  <rect height="28.1543" opacity="0" width="35.5469" x="0" y="0"/>
  <path d="M27.5098 5.53711L27.5098 6.44531L25.7812 6.44531L25.7812 5.54688C25.7812 3.11523 24.4824 1.76758 21.9922 1.76758L5.51758 1.76758C2.99805 1.76758 1.72852 3.11523 1.72852 5.54688L1.72852 15.4883C1.72852 17.9199 2.99805 19.2676 5.51758 19.2676L7.04102 19.2676C7.62695 19.2676 7.85156 19.4922 7.85156 20.0879L7.85156 23.7598L11.9629 19.8145C12.3157 19.4456 12.5961 19.3138 13.026 19.2786C13.0639 19.9186 13.1777 20.493 13.3664 20.9985L8.96484 24.8828C8.33008 25.4395 7.95898 25.7227 7.42188 25.7227C6.66992 25.7227 6.24023 25.1953 6.24023 24.3555L6.24023 20.9961L5.50781 20.9961C1.96289 20.9961 0 18.9941 0 15.498L0 5.53711C0 2.04102 1.96289 0.0292969 5.50781 0.0292969L22.002 0.0292969C25.5371 0.0292969 27.5098 2.05078 27.5098 5.53711Z" fill="black" fill-opacity="0.85"/>
  <path d="M18.0859 23.7988L22.8906 23.7988L27.002 27.3242C27.6367 27.8711 27.998 28.1543 28.5156 28.1543C29.248 28.1543 29.6777 27.627 29.6777 26.8164L29.6777 23.7988L30.1074 23.7988C33.4277 23.7988 35.1855 22.0117 35.1855 18.7305L35.1855 11.5234C35.1855 8.24219 33.4277 6.44531 30.1074 6.44531L18.0859 6.44531C14.7656 6.44531 13.0078 8.24219 13.0078 11.5234L13.0078 18.75C13.0078 22.0215 14.7656 23.7988 18.0859 23.7988ZM18.1348 22.0703C15.7812 22.0703 14.7461 20.9668 14.7461 18.6914L14.7461 11.5723C14.7461 9.30664 15.7812 8.17383 18.1348 8.17383L30.0586 8.17383C32.4121 8.17383 33.4473 9.30664 33.4473 11.5723L33.4473 18.6816C33.4473 20.9473 32.4023 22.0703 30.0586 22.0703L28.8867 22.0703C28.418 22.0703 28.0469 22.3438 28.0469 22.9492L28.0469 26.1816L23.9746 22.5391C23.584 22.1875 23.2812 22.0703 22.8125 22.0703Z" fill="black" fill-opacity="0.85"/>
  <path d="M24.1113 16.6699C24.6094 16.6699 24.8926 16.377 24.9121 15.8203L25.0586 11.1523C25.0781 10.5762 24.6582 10.1758 24.1016 10.1758C23.5352 10.1758 23.1348 10.5664 23.1543 11.1426L23.291 15.8203C23.3105 16.3672 23.5938 16.6699 24.1113 16.6699ZM24.1016 20.332C24.7363 20.332 25.2832 19.8242 25.2832 19.1895C25.2832 18.5547 24.7461 18.0469 24.1016 18.0469C23.457 18.0469 22.9199 18.5645 22.9199 19.1895C22.9199 19.8145 23.4668 20.332 24.1016 20.332Z" fill="black" fill-opacity="0.85"/>
 </g>
</svg>
