<?xml version="1.0" encoding="UTF-8"?>
<!--Generator: Apple Native CoreSVG 326-->
<!DOCTYPE svg
PUBLIC "-//W3C//DTD SVG 1.1//EN"
       "http://www.w3.org/Graphics/SVG/1.1/DTD/svg11.dtd">
<svg version="1.1" xmlns="http://www.w3.org/2000/svg" xmlns:xlink="http://www.w3.org/1999/xlink" viewBox="0 0 27.9395 26.5527">
 <g>
  <rect height="26.5527" opacity="0" width="27.9395" x="0" y="0"/>
  <path d="M1.88477 8.33984L25.6934 8.33984C26.2891 8.33984 26.6211 7.91992 26.6211 7.48047C26.6211 7.1582 26.4453 6.875 26.0547 6.65039L15.2637 0.419922C14.7852 0.146484 14.2773 0 13.7891 0C13.291 0 12.7734 0.146484 12.3145 0.419922L1.52344 6.65039C1.12305 6.875 0.957031 7.1582 0.957031 7.48047C0.957031 7.91992 1.28906 8.33984 1.88477 8.33984ZM4.31641 7.05078L13.2227 2.03125C13.3887 1.93359 13.6035 1.875 13.7891 1.875C13.9746 1.875 14.1699 1.93359 14.3555 2.03125L23.252 7.05078L23.3594 6.70898L4.20898 6.70898ZM2.74414 10.7422L6.07422 10.7422C6.47461 10.7422 6.70898 10.5176 6.70898 10.1172L6.70898 9.93164C6.70898 9.54102 6.47461 9.30664 6.07422 9.30664L2.74414 9.30664C2.33398 9.30664 2.09961 9.54102 2.09961 9.93164L2.09961 10.1172C2.09961 10.5176 2.33398 10.7422 2.74414 10.7422ZM3.58398 22.7539L5.21484 22.7539L5.21484 10.3906L3.58398 10.3906ZM2.74414 23.8379L6.07422 23.8379C6.47461 23.8379 6.70898 23.6035 6.70898 23.2031L6.70898 23.0273C6.70898 22.6367 6.47461 22.4121 6.07422 22.4121L2.74414 22.4121C2.33398 22.4121 2.09961 22.6367 2.09961 23.0273L2.09961 23.2031C2.09961 23.6035 2.33398 23.8379 2.74414 23.8379ZM8.99414 10.7422L12.3242 10.7422C12.7344 10.7422 12.9688 10.5176 12.9688 10.1172L12.9688 9.93164C12.9688 9.54102 12.7344 9.30664 12.3242 9.30664L8.99414 9.30664C8.59375 9.30664 8.35938 9.54102 8.35938 9.93164L8.35938 10.1172C8.35938 10.5176 8.59375 10.7422 8.99414 10.7422ZM9.84375 22.7539L11.4746 22.7539L11.4746 10.3906L9.84375 10.3906ZM8.99414 23.8379L12.3242 23.8379C12.7344 23.8379 12.9688 23.6035 12.9688 23.2031L12.9688 23.0273C12.9688 22.6367 12.7344 22.4121 12.3242 22.4121L8.99414 22.4121C8.59375 22.4121 8.35938 22.6367 8.35938 23.0273L8.35938 23.2031C8.35938 23.6035 8.59375 23.8379 8.99414 23.8379ZM15.2539 10.7422L18.584 10.7422C18.9844 10.7422 19.2188 10.5176 19.2188 10.1172L19.2188 9.93164C19.2188 9.54102 18.9844 9.30664 18.584 9.30664L15.2539 9.30664C14.8535 9.30664 14.6191 9.54102 14.6191 9.93164L14.6191 10.1172C14.6191 10.5176 14.8535 10.7422 15.2539 10.7422ZM16.1133 22.7539L17.7441 22.7539L17.7441 10.3906L16.1133 10.3906ZM15.2539 23.8379L18.584 23.8379C18.9844 23.8379 19.2188 23.6035 19.2188 23.2031L19.2188 23.0273C19.2188 22.6367 18.9844 22.4121 18.584 22.4121L15.2539 22.4121C14.8535 22.4121 14.6191 22.6367 14.6191 23.0273L14.6191 23.2031C14.6191 23.6035 14.8535 23.8379 15.2539 23.8379ZM21.5137 10.7422L24.8438 10.7422C25.2441 10.7422 25.4785 10.5176 25.4785 10.1172L25.4785 9.93164C25.4785 9.54102 25.2441 9.30664 24.8438 9.30664L21.5137 9.30664C21.1133 9.30664 20.8789 9.54102 20.8789 9.93164L20.8789 10.1172C20.8789 10.5176 21.1133 10.7422 21.5137 10.7422ZM22.373 22.7539L24.0039 22.7539L24.0039 10.3906L22.373 10.3906ZM21.5137 23.8379L24.8438 23.8379C25.2441 23.8379 25.4785 23.6035 25.4785 23.2031L25.4785 23.0273C25.4785 22.6367 25.2441 22.4121 24.8438 22.4121L21.5137 22.4121C21.1133 22.4121 20.8789 22.6367 20.8789 23.0273L20.8789 23.2031C20.8789 23.6035 21.1133 23.8379 21.5137 23.8379ZM0.869141 26.5332L26.709 26.5332C27.1875 26.5332 27.5781 26.1426 27.5781 25.6738C27.5781 25.1953 27.1875 24.8047 26.709 24.8047L0.869141 24.8047C0.390625 24.8047 0 25.1953 0 25.6738C0 26.1426 0.390625 26.5332 0.869141 26.5332Z" fill="black" fill-opacity="0.85"/>
 </g>
</svg>
