<?xml version="1.0" encoding="UTF-8"?>
<!--Generator: Apple Native CoreSVG 326-->
<!DOCTYPE svg
PUBLIC "-//W3C//DTD SVG 1.1//EN"
       "http://www.w3.org/Graphics/SVG/1.1/DTD/svg11.dtd">
<svg version="1.1" xmlns="http://www.w3.org/2000/svg" xmlns:xlink="http://www.w3.org/1999/xlink" viewBox="0 0 27.3926 32.1582">
 <g>
  <rect height="32.1582" opacity="0" width="27.3926" x="0" y="0"/>
  <path d="M25.4688 9.66797L25.4688 28.5547C25.4688 29.8145 24.7754 30.5859 23.5938 30.5859L19.4279 30.5859C19.7723 30.0204 19.9609 29.3273 19.9609 28.5547L19.9609 24.6094L21.9824 24.6094C22.2266 24.6094 22.373 24.4434 22.373 24.2285L22.373 22.2168C22.373 21.9824 22.2266 21.8164 21.9824 21.8164L19.9609 21.8164L19.9609 19.9121L21.9824 19.9121C22.2266 19.9121 22.373 19.7656 22.373 19.5312L22.373 17.5293C22.373 17.2852 22.2266 17.1387 21.9824 17.1387L19.9609 17.1387L19.9609 15.2344L21.9824 15.2344C22.2266 15.2344 22.373 15.0684 22.373 14.8535L22.373 12.8223C22.373 12.6074 22.2266 12.4414 21.9824 12.4414L19.9609 12.4414L19.9609 7.62695L23.5938 7.62695C24.7754 7.62695 25.4688 8.38867 25.4688 9.66797Z" fill="black" fill-opacity="0.85"/>
  <path d="M5.11719 9.39453L5.11719 6.80664C5.11719 6.49414 5.30273 6.2793 5.60547 6.2793L8.27148 6.2793C8.57422 6.2793 8.78906 6.49414 8.78906 6.80664L8.78906 9.39453C8.78906 9.70703 8.57422 9.91211 8.27148 9.91211L5.60547 9.91211C5.30273 9.91211 5.11719 9.70703 5.11719 9.39453ZM11.1816 9.39453L11.1816 6.80664C11.1816 6.49414 11.377 6.2793 11.6895 6.2793L14.3457 6.2793C14.6582 6.2793 14.8535 6.49414 14.8535 6.80664L14.8535 9.39453C14.8535 9.70703 14.6582 9.91211 14.3457 9.91211L11.6895 9.91211C11.377 9.91211 11.1816 9.70703 11.1816 9.39453ZM5.11719 14.7656L5.11719 12.168C5.11719 11.8555 5.30273 11.6602 5.60547 11.6602L8.27148 11.6602C8.57422 11.6602 8.78906 11.8555 8.78906 12.168L8.78906 14.7656C8.78906 15.0781 8.57422 15.2832 8.27148 15.2832L5.60547 15.2832C5.30273 15.2832 5.11719 15.0781 5.11719 14.7656ZM11.1816 14.7656L11.1816 12.168C11.1816 11.8555 11.377 11.6602 11.6895 11.6602L14.3457 11.6602C14.6582 11.6602 14.8535 11.8555 14.8535 12.168L14.8535 14.7656C14.8535 15.0781 14.6582 15.2832 14.3457 15.2832L11.6895 15.2832C11.377 15.2832 11.1816 15.0781 11.1816 14.7656ZM5.11719 20.127L5.11719 17.5391C5.11719 17.2363 5.30273 17.0215 5.60547 17.0215L8.27148 17.0215C8.57422 17.0215 8.78906 17.2363 8.78906 17.5391L8.78906 20.127C8.78906 20.4395 8.57422 20.6543 8.27148 20.6543L5.60547 20.6543C5.30273 20.6543 5.11719 20.4395 5.11719 20.127ZM11.1816 20.127L11.1816 17.5391C11.1816 17.2363 11.377 17.0215 11.6895 17.0215L14.3457 17.0215C14.6582 17.0215 14.8535 17.2363 14.8535 17.5391L14.8535 20.127C14.8535 20.4395 14.6582 20.6543 14.3457 20.6543L11.6895 20.6543C11.377 20.6543 11.1816 20.4395 11.1816 20.127ZM3.4375 30.5859L16.5137 30.5859C17.6953 30.5859 18.3984 29.8145 18.3984 28.5547L18.3984 3.59375C18.3984 2.32422 17.6953 1.5625 16.5137 1.5625L3.4375 1.5625C2.25586 1.5625 1.55273 2.32422 1.55273 3.59375L1.55273 28.5547C1.55273 29.8145 2.25586 30.5859 3.4375 30.5859ZM6.99219 28.9355L6.99219 25.2832C6.99219 24.5898 7.38281 24.209 8.07617 24.209L11.8945 24.209C12.5977 24.209 12.9688 24.5898 12.9688 25.2832L12.9688 28.9355Z" fill="black" fill-opacity="0.85"/>
 </g>
</svg>
