<?xml version="1.0" ?><!-- Generator: Adobe Illustrator 25.0.0, SVG Export Plug-In . SVG Version: 6.00 Build 0)  --><svg xmlns="http://www.w3.org/2000/svg" xmlns:xlink="http://www.w3.org/1999/xlink" version="1.1" id="Layer_1" x="0px" y="0px" viewBox="0 0 512 512" style="enable-background:new 0 0 512 512;" xml:space="preserve">
<path d="M31.4,170.9h448.9c13.1,0,20.7-9.5,20.7-19.3c0-7.1-3.8-13.3-12.6-18.3L285.2,16.2c-9.5-5.5-19.5-8.3-29.3-8.3  c-9.8,0-19.8,2.9-29.3,8.3L23.3,133.3c-8.8,5-12.6,11.2-12.6,18.3C10.7,161.4,18.1,170.9,31.4,170.9z M41.7,429.6  c0,9.8,5.5,15.2,15.2,15.2h60.9c9.8,0,15.5-5.5,15.5-15.2v-5.7c0-9.3-5.7-15-15.5-15h-12.4V227.6h12.4c9.8,0,15.5-5.5,15.5-15.2  v-5.7c0-9.3-5.7-15-15.5-15H56.9c-9.8,0-15.2,5.7-15.2,15v5.7c0,9.8,5.5,15.2,15.2,15.2h12.6v181.4H56.9c-9.8,0-15.2,5.7-15.2,15  V429.6z M154.7,429.6c0,9.8,5.7,15.2,15.2,15.2h61.2c9.5,0,15.2-5.5,15.2-15.2v-5.7c0-9.3-5.7-15-15.2-15h-12.4V227.6h12.4  c9.5,0,15.2-5.5,15.2-15.2v-5.7c0-9.3-5.7-15-15.2-15H170c-9.5,0-15.2,5.7-15.2,15v5.7c0,9.8,5.7,15.2,15.2,15.2h12.9v181.4H170  c-9.5,0-15.2,5.7-15.2,15V429.6z M268,429.6c0,9.8,5.7,15.2,15.2,15.2h61.2c9.5,0,15.2-5.5,15.2-15.2v-5.7c0-9.3-5.7-15-15.2-15  h-12.4V227.6h12.4c9.5,0,15.2-5.5,15.2-15.2v-5.7c0-9.3-5.7-15-15.2-15h-61.2c-9.5,0-15.2,5.7-15.2,15v5.7c0,9.8,5.7,15.2,15.2,15.2  h12.9v181.4h-12.9c-9.5,0-15.2,5.7-15.2,15V429.6z M381.3,429.6c0,9.8,5.5,15.2,15.2,15.2h60.9c9.8,0,15.2-5.5,15.2-15.2v-5.7  c0-9.3-5.5-15-15.2-15h-12.4V227.6h12.4c9.8,0,15.2-5.5,15.2-15.2v-5.7c0-9.3-5.5-15-15.2-15h-60.9c-9.8,0-15.2,5.7-15.2,15v5.7  c0,9.8,5.5,15.2,15.2,15.2h12.6v181.4h-12.6c-9.8,0-15.2,5.7-15.2,15V429.6z M0,484.9c0,10.5,8.6,19.3,19,19.3h473.7  c10.5,0,19.3-8.8,19.3-19.3c0-10.5-8.8-19-19.3-19H19C8.6,465.8,0,474.4,0,484.9z"/>
</svg>