<?xml version="1.0" ?><!-- Generator: Adobe Illustrator 25.0.0, SVG Export Plug-In . SVG Version: 6.00 Build 0)  --><svg xmlns="http://www.w3.org/2000/svg" xmlns:xlink="http://www.w3.org/1999/xlink" version="1.1" id="Layer_1" x="0px" y="0px" viewBox="0 0 512 512" style="enable-background:new 0 0 512 512;" xml:space="preserve">
<path d="M256,512c35,0,67.9-6.7,98.8-20.1c30.9-13.4,58.1-31.9,81.7-55.5c23.6-23.6,42.1-50.8,55.5-81.7  C505.3,323.9,512,291,512,256s-6.7-67.9-20.1-98.8c-13.4-30.9-31.9-58.1-55.5-81.7c-23.6-23.6-50.9-42.1-81.8-55.5  C323.7,6.7,290.7,0,255.7,0S187.9,6.7,157,20.1C126.1,33.5,98.9,52,75.4,75.5c-23.5,23.6-42,50.8-55.3,81.7C6.7,188.1,0,221,0,256  s6.7,67.9,20.1,98.8c13.4,30.9,31.9,58.1,55.5,81.7c23.6,23.6,50.8,42.1,81.7,55.5C188.1,505.3,221,512,256,512z M256,469.3  c-29.6,0-57.3-5.5-83.1-16.6c-25.8-11-48.4-26.3-67.9-45.8c-19.5-19.5-34.7-42.1-45.7-67.9c-11-25.8-16.4-53.5-16.4-83.1  c0-29.6,5.5-57.3,16.4-83.1c11-25.8,26.1-48.4,45.6-68s42-34.8,67.8-45.8c25.8-11,53.5-16.4,83.1-16.4c29.6,0,57.3,5.5,83.1,16.4  c25.8,11,48.4,26.2,68,45.8c19.6,19.6,34.9,42.2,45.9,68c11,25.8,16.6,53.5,16.6,83.1c0,29.6-5.5,57.3-16.4,83.1  c-11,25.8-26.2,48.4-45.7,67.9c-19.5,19.5-42.2,34.8-68,45.8C313.3,463.8,285.6,469.3,256,469.3z" class="hierarchical-0:secondary SFSymbolsPreview4D4D4D" style="fill: #4D4D4D;"/>
<path d="M123.2,187.7c0,2.8,1,5.4,3,7.5c2,2.2,4.8,3.3,8.3,3.3H377c3.7,0,6.5-1.1,8.5-3.3c2-2.2,3-4.7,3-7.5c0-4-2.3-7.4-7-10  l-109.7-63c-5.4-3.2-10.7-4.8-16.1-4.8s-10.6,1.6-15.8,4.8l-109.9,63c-2.5,1.3-4.3,2.9-5.3,4.6C123.7,184.1,123.2,185.9,123.2,187.7  z M117.7,367.9c0,2.8,1,5.3,3,7.4c2,2.1,4.5,3.1,7.5,3.1h255.2c2.8,0,5.3-1,7.4-3.1c2.1-2.1,3.1-4.6,3.1-7.4c0-3-1-5.6-3-7.7  c-2-2.1-4.5-3.1-7.5-3.1H128.3c-3,0-5.5,1-7.5,3.1C118.7,362.4,117.7,364.9,117.7,367.9z M139.8,333.3c0,2.5,0.8,4.6,2.3,6.1  c1.5,1.6,3.6,2.4,6.3,2.4h32.9c2.8,0,5-0.8,6.5-2.3c1.5-1.5,2.3-3.6,2.3-6.3V330c0-5.7-2.9-8.5-8.8-8.5h-6v-87.6h6  c5.9,0,8.8-2.8,8.8-8.3v-3.3c0-2.7-0.8-4.8-2.4-6.3c-1.6-1.5-3.7-2.3-6.4-2.3h-32.9c-2.7,0-4.8,0.8-6.3,2.3  c-1.5,1.5-2.3,3.6-2.3,6.3v3.3c0,5.5,2.8,8.3,8.5,8.3h6.5v87.6h-6.5c-5.7,0-8.5,2.8-8.5,8.5V333.3z M201,333.3  c0,2.7,0.7,4.8,2.1,6.3c1.4,1.5,3.5,2.3,6.1,2.3h32.9c2.8,0,5-0.8,6.5-2.3c1.5-1.5,2.3-3.6,2.3-6.3V330c0-5.7-2.9-8.5-8.8-8.5h-6  v-87.6h6c5.9,0,8.8-2.8,8.8-8.3v-3.3c0-2.7-0.8-4.8-2.3-6.3c-1.5-1.5-3.7-2.3-6.5-2.3h-32.9c-2.7,0-4.7,0.8-6.1,2.3  c-1.4,1.5-2.1,3.6-2.1,6.3v3.3c0,5.5,2.8,8.3,8.3,8.3h6.5v87.6h-6.5c-5.5,0-8.3,2.8-8.3,8.5V333.3z M323,333.3  c0,2.5,0.8,4.6,2.3,6.1c1.5,1.6,3.6,2.4,6.3,2.4h33.1c2.5,0,4.6-0.8,6.1-2.3c1.6-1.5,2.4-3.6,2.4-6.3V330c0-5.7-2.8-8.5-8.5-8.5  h-6.5v-87.6h6.5c5.7,0,8.5-2.8,8.5-8.3v-3.3c0-2.7-0.8-4.8-2.4-6.3c-1.6-1.5-3.6-2.3-6.1-2.3h-33.1c-2.7,0-4.8,0.8-6.3,2.3  c-1.5,1.5-2.3,3.6-2.3,6.3v3.3c0,5.5,2.8,8.3,8.5,8.3h6.5v87.6h-6.5c-5.7,0-8.5,2.8-8.5,8.5V333.3z M262,333.3  c0,2.5,0.8,4.6,2.3,6.1c1.5,1.6,3.6,2.4,6.3,2.4h32.9c2.7,0,4.8-0.8,6.4-2.4c1.6-1.6,2.4-3.6,2.4-6.1V330c0-5.7-2.9-8.5-8.8-8.5  h-6.3v-87.6h6.3c5.9,0,8.8-2.8,8.8-8.3v-3.3c0-2.7-0.8-4.8-2.4-6.3c-1.6-1.5-3.7-2.3-6.4-2.3h-32.9c-2.7,0-4.8,0.8-6.3,2.3  c-1.5,1.5-2.3,3.6-2.3,6.3v3.3c0,5.5,2.8,8.3,8.5,8.3h6.5v87.6h-6.5c-5.7,0-8.5,2.8-8.5,8.5V333.3z" class="hierarchical-1:primary SFSymbolsPreview212121" style="fill: #212121;"/>
</svg>