<?xml version="1.0" ?><!-- Generator: Adobe Illustrator 25.0.0, SVG Export Plug-In . SVG Version: 6.00 Build 0)  --><svg xmlns="http://www.w3.org/2000/svg" xmlns:xlink="http://www.w3.org/1999/xlink" version="1.1" id="Layer_1" x="0px" y="0px" viewBox="0 0 512 512" style="enable-background:new 0 0 512 512;" xml:space="preserve">
<path d="M64.8,468.3c0,26.7,15.4,43.7,39.9,43.7h302.8c24.3,0,39.6-17.1,39.6-43.7V43.7c0-26.7-15.4-43.7-39.6-43.7H104.7  C80.2,0,64.8,17.1,64.8,43.7V468.3z M103.5,459.4V52.6c0-9.6,4.3-13.9,13.9-13.9h277.4c9.4,0,13.7,4.3,13.7,13.9v406.8  c0,9.4-4.3,13.9-13.7,13.9h-55.2v-70.8c0-20.7-9.1-30.3-28.8-30.3H201.2c-19.7,0-28.8,9.6-28.8,30.3v70.8h-55  C107.8,473.3,103.5,468.8,103.5,459.4z M176.3,143.6h46.8c5.8,0,9.8-3.8,9.8-9.8V88.4c0-5.8-4.1-9.8-9.8-9.8h-46.8  c-5.8,0-9.4,4.1-9.4,9.8v45.4C166.9,139.8,170.5,143.6,176.3,143.6z M288.9,143.6h46.6c5.8,0,9.8-3.8,9.8-9.8V88.4  c0-5.8-4.1-9.8-9.8-9.8h-46.6c-6,0-9.6,4.1-9.6,9.8v45.4C279.3,139.8,282.9,143.6,288.9,143.6z M176.3,238.7h46.8  c5.8,0,9.8-3.8,9.8-9.8v-45.4c0-5.8-4.1-9.8-9.8-9.8h-46.8c-5.8,0-9.4,4.1-9.4,9.8v45.4C166.9,234.9,170.5,238.7,176.3,238.7z   M288.9,238.7h46.6c5.8,0,9.8-3.8,9.8-9.8v-45.4c0-5.8-4.1-9.8-9.8-9.8h-46.6c-6,0-9.6,4.1-9.6,9.8v45.4  C279.3,234.9,282.9,238.7,288.9,238.7z M176.3,333.8h46.8c5.8,0,9.8-4.1,9.8-9.8v-45.4c0-6-4.1-9.8-9.8-9.8h-46.8  c-5.8,0-9.4,3.8-9.4,9.8V324C166.9,329.7,170.5,333.8,176.3,333.8z M288.9,333.8h46.6c5.8,0,9.8-4.1,9.8-9.8v-45.4  c0-6-4.1-9.8-9.8-9.8h-46.6c-6,0-9.6,3.8-9.6,9.8V324C279.3,329.7,282.9,333.8,288.9,333.8z M203.9,411.4c0-5,2.6-7.7,7.7-7.7h88.9  c5.3,0,7.7,2.6,7.7,7.7v62H203.9V411.4z"/>
</svg>