<?xml version="1.0" encoding="UTF-8"?>
<!--Generator: Apple Native CoreSVG 326-->
<!DOCTYPE svg
PUBLIC "-//W3C//DTD SVG 1.1//EN"
       "http://www.w3.org/Graphics/SVG/1.1/DTD/svg11.dtd">
<svg version="1.1" xmlns="http://www.w3.org/2000/svg" xmlns:xlink="http://www.w3.org/1999/xlink" viewBox="0 0 25.8008 25.459">
 <g>
  <rect height="25.459" opacity="0" width="25.8008" x="0" y="0"/>
  <path d="M25.4395 12.7246C25.4395 19.7266 19.7266 25.4395 12.7148 25.4395C5.71289 25.4395 0 19.7266 0 12.7246C0 5.71289 5.71289 0 12.7148 0C19.7266 0 25.4395 5.71289 25.4395 12.7246ZM6.21094 17.9395C5.92773 17.9395 5.69336 18.1836 5.69336 18.457C5.69336 18.7402 5.92773 18.9746 6.21094 18.9746L19.2188 18.9746C19.5117 18.9746 19.7461 18.7402 19.7461 18.457C19.7461 18.1836 19.5117 17.9395 19.2188 17.9395ZM7.14844 10.2051C6.9043 10.2051 6.75781 10.3516 6.75781 10.5957L6.75781 10.6836C6.75781 10.9473 6.9043 11.084 7.14844 11.084L7.49023 11.084L7.49023 16.6504L7.14844 16.6504C6.9043 16.6504 6.75781 16.8164 6.75781 17.0508L6.75781 17.1484C6.75781 17.3926 6.9043 17.5391 7.14844 17.5391L8.83789 17.5391C9.08203 17.5391 9.23828 17.3926 9.23828 17.1484L9.23828 17.0508C9.23828 16.8164 9.08203 16.6504 8.83789 16.6504L8.48633 16.6504L8.48633 11.084L8.83789 11.084C9.08203 11.084 9.23828 10.9473 9.23828 10.6836L9.23828 10.5957C9.23828 10.3516 9.08203 10.2051 8.83789 10.2051ZM10.3027 10.2051C10.0684 10.2051 9.89258 10.3516 9.89258 10.5957L9.89258 10.6836C9.89258 10.9473 10.0684 11.084 10.3027 11.084L10.6543 11.084L10.6543 16.6504L10.3027 16.6504C10.0684 16.6504 9.89258 16.8164 9.89258 17.0508L9.89258 17.1484C9.89258 17.3926 10.0684 17.5391 10.3027 17.5391L11.9727 17.5391C12.2266 17.5391 12.3828 17.3926 12.3828 17.1484L12.3828 17.0508C12.3828 16.8164 12.2266 16.6504 11.9727 16.6504L11.6406 16.6504L11.6406 11.084L11.9727 11.084C12.2266 11.084 12.3828 10.9473 12.3828 10.6836L12.3828 10.5957C12.3828 10.3516 12.2266 10.2051 11.9727 10.2051ZM13.457 10.2051C13.2031 10.2051 13.0566 10.3516 13.0566 10.5957L13.0566 10.6836C13.0566 10.9473 13.2031 11.084 13.457 11.084L13.7988 11.084L13.7988 16.6504L13.457 16.6504C13.2031 16.6504 13.0566 16.8164 13.0566 17.0508L13.0566 17.1484C13.0566 17.3926 13.2031 17.5391 13.457 17.5391L15.1367 17.5391C15.3711 17.5391 15.5371 17.3926 15.5371 17.1484L15.5371 17.0508C15.5371 16.8164 15.3711 16.6504 15.1367 16.6504L14.7852 16.6504L14.7852 11.084L15.1367 11.084C15.3711 11.084 15.5371 10.9473 15.5371 10.6836L15.5371 10.5957C15.5371 10.3516 15.3711 10.2051 15.1367 10.2051ZM16.6016 10.2051C16.3574 10.2051 16.1914 10.3516 16.1914 10.5957L16.1914 10.6836C16.1914 10.9473 16.3574 11.084 16.6016 11.084L16.9531 11.084L16.9531 16.6504L16.6016 16.6504C16.3574 16.6504 16.1914 16.8164 16.1914 17.0508L16.1914 17.1484C16.1914 17.3926 16.3574 17.5391 16.6016 17.5391L18.2812 17.5391C18.5352 17.5391 18.6816 17.3926 18.6816 17.1484L18.6816 17.0508C18.6816 16.8164 18.5352 16.6504 18.2812 16.6504L17.9492 16.6504L17.9492 11.084L18.2812 11.084C18.5352 11.084 18.6816 10.9473 18.6816 10.6836L18.6816 10.5957C18.6816 10.3516 18.5352 10.2051 18.2812 10.2051ZM11.9336 5.66406L6.49414 8.79883C6.26953 8.91602 6.16211 9.11133 6.16211 9.27734C6.16211 9.55078 6.36719 9.80469 6.70898 9.80469L18.7305 9.80469C19.0723 9.80469 19.2676 9.55078 19.2676 9.27734C19.2676 9.11133 19.1602 8.91602 18.9453 8.79883L13.5059 5.66406C13.252 5.49805 12.9688 5.42969 12.7148 5.42969C12.4512 5.42969 12.168 5.49805 11.9336 5.66406Z" fill="black" fill-opacity="0.85"/>
 </g>
</svg>
