<?xml version="1.0" ?><!-- Generator: Adobe Illustrator 25.0.0, SVG Export Plug-In . SVG Version: 6.00 Build 0)  --><svg xmlns="http://www.w3.org/2000/svg" xmlns:xlink="http://www.w3.org/1999/xlink" version="1.1" id="Layer_1" x="0px" y="0px" viewBox="0 0 512 512" style="enable-background:new 0 0 512 512;" xml:space="preserve">
<path d="M256,512c140,0,256-116,256-256C512,116.2,395.8,0,255.7,0C116,0,0,116.2,0,256C0,396,116.2,512,256,512z M256,469.1  c-63.2,0-119.5-27.1-158.4-70.3V169.9c0-17.1,10-28.4,26.4-28.4h168.4c16.6,0,26.4,11.3,26.4,28.4v289.9  C298.9,465.8,277.8,469.1,256,469.1z M156.6,225.4H184c3.3,0,6-2.8,6-6v-26.6c0-3.8-2.8-6-6-6h-27.4c-3.5,0-5.8,2.3-5.8,6v26.6  C150.8,222.6,153.1,225.4,156.6,225.4z M231.9,225.4h27.4c3.5,0,6-2.8,6-6v-26.6c0-3.8-2.5-6-6-6h-27.4c-3.5,0-5.8,2.3-5.8,6v26.6  C226.1,222.6,228.4,225.4,231.9,225.4z M338.3,452.8V205.6h72.8c16.3,0,26.4,11,26.4,28.4v134C414.4,405.6,379.7,435.5,338.3,452.8z   M376,279.8h23.6c2.5,0,4.5-2,4.5-5v-22.6c0-2.8-2-4.8-4.5-4.8H376c-3,0-5,2-5,4.8v22.6C370.9,277.8,373,279.8,376,279.8z   M156.6,288.4H184c3.3,0,6-2.5,6-6V256c0-3.5-2.8-6.3-6-6.3h-27.4c-3.5,0-5.8,2.8-5.8,6.3v26.4C150.8,285.9,153.1,288.4,156.6,288.4  z M231.9,288.4h27.4c3.5,0,6-2.5,6-6V256c0-3.5-2.5-6.3-6-6.3h-27.4c-3.5,0-5.8,2.8-5.8,6.3v26.4  C226.1,285.9,228.4,288.4,231.9,288.4z M376,337.1h23.6c2.5,0,4.5-2,4.5-5v-22.3c0-3-2-4.8-4.5-4.8H376c-3,0-5,1.8-5,4.8V332  C370.9,335.1,373,337.1,376,337.1z M156.6,352.1H184c3.3,0,6-2.5,6-6v-26.6c0-3.3-2.8-6-6-6h-27.4c-3.5,0-5.8,2.8-5.8,6v26.6  C150.8,349.6,153.1,352.1,156.6,352.1z M231.9,352.1h27.4c3.5,0,6-2.5,6-6v-26.6c0-3.3-2.5-6-6-6h-27.4c-3.5,0-5.8,2.8-5.8,6v26.6  C226.1,349.6,228.4,352.1,231.9,352.1z M376,394.3h23.6c2.5,0,4.5-2,4.5-4.5v-22.8c0-2.5-2-5-4.5-5H376c-3,0-5,2.5-5,5v22.8  C370.9,392.3,373,394.3,376,394.3z M156.6,415.9H184c3.3,0,6-2.5,6-6v-26.6c0-3.5-2.8-6-6-6h-27.4c-3.5,0-5.8,2.5-5.8,6v26.6  C150.8,413.4,153.1,415.9,156.6,415.9z M231.9,415.9h27.4c3.5,0,6-2.5,6-6v-26.6c0-3.5-2.5-6-6-6h-27.4c-3.5,0-5.8,2.5-5.8,6v26.6  C226.1,413.4,228.4,415.9,231.9,415.9z"/>
</svg>