<?xml version="1.0" encoding="UTF-8"?>
<!--Generator: Apple Native CoreSVG 326-->
<!DOCTYPE svg
PUBLIC "-//W3C//DTD SVG 1.1//EN"
       "http://www.w3.org/Graphics/SVG/1.1/DTD/svg11.dtd">
<svg version="1.1" xmlns="http://www.w3.org/2000/svg" xmlns:xlink="http://www.w3.org/1999/xlink" viewBox="0 0 24.2773 29.0332">
 <g>
  <rect height="29.0332" opacity="0" width="24.2773" x="0" y="0"/>
  <path d="M23.916 8.10547L23.916 26.9922C23.916 28.252 23.2129 29.0234 22.0312 29.0234L15.752 29.0234C16.8056 29.0234 17.4788 28.41 17.6107 27.3828L21.543 27.3828C22.0605 27.3828 22.2754 27.1582 22.2754 26.6406L22.2754 8.4375C22.2754 7.91992 22.0605 7.69531 21.543 7.69531L17.6367 7.69531L17.6367 6.06445L22.0312 6.06445C23.2129 6.06445 23.916 6.82617 23.916 8.10547ZM20.0098 20.5566L20.0098 22.5293C20.0098 22.7441 19.873 22.9004 19.6387 22.9004L17.6367 22.9004L17.6367 20.1758L19.6387 20.1758C19.873 20.1758 20.0098 20.332 20.0098 20.5566ZM20.0098 15.9863L20.0098 17.9492C20.0098 18.1738 19.873 18.3203 19.6387 18.3203L17.6367 18.3203L17.6367 15.6055L19.6387 15.6055C19.873 15.6055 20.0098 15.752 20.0098 15.9863ZM20.0098 11.4062L20.0098 13.3789C20.0098 13.5938 19.873 13.75 19.6387 13.75L17.6367 13.75L17.6367 11.0352L19.6387 11.0352C19.873 11.0352 20.0098 11.1816 20.0098 11.4062Z" fill="black" fill-opacity="0.85"/>
  <path d="M1.88477 29.0234L15.752 29.0234C16.9336 29.0234 17.6367 28.252 17.6367 26.9922L17.6367 2.03125C17.6367 0.761719 16.9336 0 15.752 0L1.88477 0C0.703125 0 0 0.761719 0 2.03125L0 26.9922C0 28.252 0.703125 29.0234 1.88477 29.0234ZM2.37305 27.3828C1.875 27.3828 1.64062 27.1582 1.64062 26.6406L1.64062 2.37305C1.64062 1.85547 1.875 1.64062 2.37305 1.64062L15.2539 1.64062C15.7617 1.64062 15.9961 1.85547 15.9961 2.37305L15.9961 26.6406C15.9961 27.1582 15.7617 27.3828 15.2539 27.3828ZM4.84375 8.61328L7.40234 8.61328C7.68555 8.61328 7.87109 8.41797 7.87109 8.125L7.87109 5.63477C7.87109 5.35156 7.68555 5.15625 7.40234 5.15625L4.84375 5.15625C4.56055 5.15625 4.38477 5.35156 4.38477 5.63477L4.38477 8.125C4.38477 8.41797 4.56055 8.61328 4.84375 8.61328ZM10.2246 8.61328L12.7734 8.61328C13.0664 8.61328 13.252 8.41797 13.252 8.125L13.252 5.63477C13.252 5.35156 13.0664 5.15625 12.7734 5.15625L10.2246 5.15625C9.93164 5.15625 9.75586 5.35156 9.75586 5.63477L9.75586 8.125C9.75586 8.41797 9.93164 8.61328 10.2246 8.61328ZM4.84375 13.7402L7.40234 13.7402C7.68555 13.7402 7.87109 13.5449 7.87109 13.252L7.87109 10.7617C7.87109 10.4785 7.68555 10.2832 7.40234 10.2832L4.84375 10.2832C4.56055 10.2832 4.38477 10.4785 4.38477 10.7617L4.38477 13.252C4.38477 13.5449 4.56055 13.7402 4.84375 13.7402ZM10.2246 13.7402L12.7734 13.7402C13.0664 13.7402 13.252 13.5449 13.252 13.252L13.252 10.7617C13.252 10.4785 13.0664 10.2832 12.7734 10.2832L10.2246 10.2832C9.93164 10.2832 9.75586 10.4785 9.75586 10.7617L9.75586 13.252C9.75586 13.5449 9.93164 13.7402 10.2246 13.7402ZM4.84375 18.8574L7.40234 18.8574C7.68555 18.8574 7.87109 18.6719 7.87109 18.3789L7.87109 15.8887C7.87109 15.6055 7.68555 15.4102 7.40234 15.4102L4.84375 15.4102C4.56055 15.4102 4.38477 15.6055 4.38477 15.8887L4.38477 18.3789C4.38477 18.6719 4.56055 18.8574 4.84375 18.8574ZM10.2246 18.8574L12.7734 18.8574C13.0664 18.8574 13.252 18.6719 13.252 18.3789L13.252 15.8887C13.252 15.6055 13.0664 15.4102 12.7734 15.4102L10.2246 15.4102C9.93164 15.4102 9.75586 15.6055 9.75586 15.8887L9.75586 18.3789C9.75586 18.6719 9.93164 18.8574 10.2246 18.8574ZM5.24414 28.1641L6.60156 28.1641L6.60156 24.248C6.60156 23.9648 6.73828 23.8184 7.04102 23.8184L10.5957 23.8184C10.8984 23.8184 11.0352 23.9648 11.0352 24.248L11.0352 28.1641L12.3926 28.1641L12.3926 23.9062C12.3926 22.9199 11.9629 22.4512 11.0059 22.4512L6.63086 22.4512C5.67383 22.4512 5.24414 22.9199 5.24414 23.9062Z" fill="black" fill-opacity="0.85"/>
 </g>
</svg>
