<?xml version="1.0" encoding="UTF-8"?>
<!--Generator: Apple Native CoreSVG 326-->
<!DOCTYPE svg
PUBLIC "-//W3C//DTD SVG 1.1//EN"
       "http://www.w3.org/Graphics/SVG/1.1/DTD/svg11.dtd">
<svg version="1.1" xmlns="http://www.w3.org/2000/svg" xmlns:xlink="http://www.w3.org/1999/xlink" viewBox="0 0 17.207 29.0332">
 <g>
  <rect height="29.0332" opacity="0" width="17.207" x="0" y="0"/>
  <path d="M3.55469 7.83203L3.55469 5.24414C3.55469 4.93164 3.74023 4.7168 4.05273 4.7168L6.70898 4.7168C7.02148 4.7168 7.22656 4.93164 7.22656 5.24414L7.22656 7.83203C7.22656 8.14453 7.02148 8.34961 6.70898 8.34961L4.05273 8.34961C3.74023 8.34961 3.55469 8.14453 3.55469 7.83203ZM9.62891 7.83203L9.62891 5.24414C9.62891 4.93164 9.82422 4.7168 10.127 4.7168L12.793 4.7168C13.0957 4.7168 13.3008 4.93164 13.3008 5.24414L13.3008 7.83203C13.3008 8.14453 13.0957 8.34961 12.793 8.34961L10.127 8.34961C9.82422 8.34961 9.62891 8.14453 9.62891 7.83203ZM3.55469 13.2031L3.55469 10.6055C3.55469 10.293 3.74023 10.0977 4.05273 10.0977L6.70898 10.0977C7.02148 10.0977 7.22656 10.293 7.22656 10.6055L7.22656 13.2031C7.22656 13.5156 7.02148 13.7207 6.70898 13.7207L4.05273 13.7207C3.74023 13.7207 3.55469 13.5156 3.55469 13.2031ZM9.62891 13.2031L9.62891 10.6055C9.62891 10.293 9.82422 10.0977 10.127 10.0977L12.793 10.0977C13.0957 10.0977 13.3008 10.293 13.3008 10.6055L13.3008 13.2031C13.3008 13.5156 13.0957 13.7207 12.793 13.7207L10.127 13.7207C9.82422 13.7207 9.62891 13.5156 9.62891 13.2031ZM3.55469 18.5645L3.55469 15.9766C3.55469 15.6738 3.74023 15.459 4.05273 15.459L6.70898 15.459C7.02148 15.459 7.22656 15.6738 7.22656 15.9766L7.22656 18.5645C7.22656 18.877 7.02148 19.0918 6.70898 19.0918L4.05273 19.0918C3.74023 19.0918 3.55469 18.877 3.55469 18.5645ZM9.62891 18.5645L9.62891 15.9766C9.62891 15.6738 9.82422 15.459 10.127 15.459L12.793 15.459C13.0957 15.459 13.3008 15.6738 13.3008 15.9766L13.3008 18.5645C13.3008 18.877 13.0957 19.0918 12.793 19.0918L10.127 19.0918C9.82422 19.0918 9.62891 18.877 9.62891 18.5645ZM1.88477 29.0234L14.9609 29.0234C16.1426 29.0234 16.8457 28.252 16.8457 26.9922L16.8457 2.03125C16.8457 0.761719 16.1426 0 14.9609 0L1.88477 0C0.703125 0 0 0.761719 0 2.03125L0 26.9922C0 28.252 0.703125 29.0234 1.88477 29.0234ZM5.43945 27.373L5.43945 23.7207C5.43945 23.0273 5.83008 22.6465 6.52344 22.6465L10.332 22.6465C11.0449 22.6465 11.4062 23.0273 11.4062 23.7207L11.4062 27.373Z" fill="black" fill-opacity="0.85"/>
 </g>
</svg>
