<?xml version="1.0" ?><!-- Generator: Adobe Illustrator 25.0.0, SVG Export Plug-In . SVG Version: 6.00 Build 0)  --><svg xmlns="http://www.w3.org/2000/svg" xmlns:xlink="http://www.w3.org/1999/xlink" version="1.1" id="Layer_1" x="0px" y="0px" viewBox="0 0 512 512" style="enable-background:new 0 0 512 512;" xml:space="preserve">
<path d="M73,468.3c0,26.7,15.4,43.7,39.9,43.7h286.3c24.5,0,39.9-17.1,39.9-43.7V43.7C439,17.1,423.6,0,399.1,0H112.9  C88.4,0,73,17.1,73,43.7V468.3z M165,129V82.4c0-6,3.8-10.3,9.8-10.3h48c6,0,10.3,4.3,10.3,10.3V129c0,6.2-4.3,10.3-10.3,10.3h-48  C168.8,139.3,165,135.2,165,129z M281,129V82.4c0-6,3.8-10.3,10.1-10.3h47.8c6,0,10.3,4.3,10.3,10.3V129c0,6.2-4.3,10.3-10.3,10.3  h-47.8C284.8,139.3,281,135.2,281,129z M165,226.9v-46.6c0-6,3.8-10.3,9.8-10.3h48c6,0,10.3,4.3,10.3,10.3v46.6  c0,6.2-4.3,10.3-10.3,10.3h-48C168.8,237.3,165,233.2,165,226.9z M281,226.9v-46.6c0-6,3.8-10.3,10.1-10.3h47.8  c6,0,10.3,4.3,10.3,10.3v46.6c0,6.2-4.3,10.3-10.3,10.3h-47.8C284.8,237.3,281,233.2,281,226.9z M165,324.9v-46.6  c0-6.2,3.8-10.3,9.8-10.3h48c6,0,10.3,4.1,10.3,10.3v46.6c0,6-4.3,10.3-10.3,10.3h-48C168.8,335.2,165,330.9,165,324.9z M281,324.9  v-46.6c0-6.2,3.8-10.3,10.1-10.3h47.8c6,0,10.3,4.1,10.3,10.3v46.6c0,6-4.3,10.3-10.3,10.3h-47.8C284.8,335.2,281,330.9,281,324.9z   M172.9,473.3v-78c0-11,7.2-18.3,18.3-18.3H323c11,0,18.3,7.2,18.3,18.3v78H172.9z"/>
</svg>