<?xml version="1.0" ?><!-- Generator: Adobe Illustrator 25.0.0, SVG Export Plug-In . SVG Version: 6.00 Build 0)  --><svg xmlns="http://www.w3.org/2000/svg" xmlns:xlink="http://www.w3.org/1999/xlink" version="1.1" id="Layer_1" x="0px" y="0px" viewBox="0 0 512 512" style="enable-background:new 0 0 512 512;" xml:space="preserve">
<path d="M494.4,274.3c11.8-5.7,17.6-13.8,17.6-22.1c0-8.1-5.7-15.6-17.6-19.8l-96.2-33.2l41.3-84.3c2-4.3,3-8.7,3-12.6  c0-11.5-8.7-20-20.2-20c-3.9,0-8.1,0.8-12.4,3l-87.3,42.7l-45.4-97.4c-4.9-10.9-13-16.4-21.1-16.4c-8.1,0-16,5.5-21.1,16.4  l-45.2,97.4l-87.5-42.7c-4.3-2.2-8.5-3-12.4-3c-11.5,0-20.1,8.5-20.1,20c0,4,1,8.3,3.2,12.6l41.1,84.3l-96.2,33.2  c-11.7,4-17.6,11.9-17.6,20c0,8.1,5.9,16.2,17.6,21.9l92.2,44.2L60,424c-2.4,4.7-3.4,9.3-3.4,13.4c0,10.3,6.9,17.6,16.6,17.6  c4.1,0,8.7-1.4,13.4-4.1l117.9-69.7l32.4,100c3.6,11.1,11.3,16.8,19,16.8c7.9,0,15.4-5.7,19-16.8l32.6-100l117.7,69.7  c4.7,2.8,9.3,4,13.4,4c9.5,0,16.8-6.9,16.8-17.2c0-4.1-1.2-8.9-3.6-13.6l-49.8-105.5L494.4,274.3z M469.7,252.5v1.4l-101.1,44.2  c-3.8,1.6-5.7,4.1-5.7,7.3c0,1.2,0.6,2.8,1.4,4.1l52,104.9l-1,1.2l-116.3-73.5c-1.8-1-3.6-1.8-5.1-1.8c-3.2,0-5.7,2.4-6.7,6.3  l-30.4,102.3h-1.2l-30.2-102.3c-1.2-4-3.8-6.3-6.9-6.3c-1.6,0-3.4,0.8-5.1,1.8L97,415.7l-1.2-1.2l52-104.9c1-1.4,1.4-3,1.4-4.1  c0-3.2-2-5.7-5.5-7.3L42.3,253.9v-1.4l105.1-32.4c4-1.2,6.1-3.8,6.1-6.9c0-1.6-0.4-3.2-1.4-4.7l-47.2-90.1l1-1l90.9,47.8  c1.6,1,3.2,1.4,4.7,1.4c3,0,5.3-1.8,6.7-5.3l47.2-105.7h1.2l47.2,105.7c1.4,3.6,3.8,5.3,6.7,5.3c1.6,0,3.2-0.4,4.9-1.4l90.7-47.8  l1,1l-47.2,90.1c-1,1.6-1.4,3.2-1.4,4.7c0,3.2,2.2,5.7,6.1,6.9L469.7,252.5z"/>
</svg>