<?xml version="1.0" ?><!-- Generator: Adobe Illustrator 25.0.0, SVG Export Plug-In . SVG Version: 6.00 Build 0)  --><svg xmlns="http://www.w3.org/2000/svg" xmlns:xlink="http://www.w3.org/1999/xlink" version="1.1" id="Layer_1" x="0px" y="0px" viewBox="0 0 512 512" style="enable-background:new 0 0 512 512;" xml:space="preserve">
<path d="M74.3,512h26.1c16.6,0,29.4-12.8,29.4-29.2V446c43.8,3.1,87.2,4.6,126.2,4.6c39,0,82.3-1.3,126.4-4.6v36.7  c0,16.4,12.6,29.2,29.2,29.2h26.1c16.6,0,29.4-12.8,29.4-29.2V207.2h9.7c12.4,0,21-7.5,21-19.3v-86.6c0-11.7-8.6-19.5-21-19.5h-9.7  v-25c0-28.6-16.8-44.9-46.7-48.5C373.3,2.9,312.9,0,256,0C199.6,0,139.1,2.9,91.8,8.4C61.6,12,45,28.3,45,56.9v25h-10  c-12.4,0-21,7.7-21,19.5v86.6c0,11.7,8.6,19.3,21,19.3h10v275.6C45,499.2,57.7,512,74.3,512z M109.2,299.5  c-14.6-2.4-21.9-10.6-21.9-26.3V76.6c0-17.7,8.4-27.2,25.2-29c92.3-9.7,195.2-9.7,287.3,0c17,1.8,25,11.3,25,29v196.6  c0,15.7-7.1,23.9-21.9,26.3C311.1,313,200.2,313,109.2,299.5z M123,398.2c-16.4,0-28.6-12.4-28.6-28.6c0-16.4,12.2-28.6,28.6-28.6  s28.6,12.2,28.6,28.6C151.5,385.8,139.3,398.2,123,398.2z M389,398.2c-16.2,0-28.3-12.4-28.3-28.6c0-16.4,12.2-28.6,28.3-28.6  c16.4,0,28.8,12.2,28.8,28.6C417.8,385.8,405.4,398.2,389,398.2z M207.7,388.5c-11.5,0-19.5-8-19.5-19.3c0-11.5,8-19.3,19.5-19.3  H304c11.3,0,19.3,7.7,19.3,19.3c0,11.3-8,19.3-19.3,19.3H207.7z"/>
</svg>