<?xml version="1.0" ?><!-- Generator: Adobe Illustrator 25.0.0, SVG Export Plug-In . SVG Version: 6.00 Build 0)  --><svg xmlns="http://www.w3.org/2000/svg" xmlns:xlink="http://www.w3.org/1999/xlink" version="1.1" id="Layer_1" x="0px" y="0px" viewBox="0 0 512 512" style="enable-background:new 0 0 512 512;" xml:space="preserve">
<path d="M65,484.1c0,15.6,12,27.9,27.9,27.9h24.9c15.8,0,28.1-12.2,28.1-27.9v-35c41.6,2.7,76,4.4,110.2,4.4  c34.2,0,68.4-1.5,110.2-4.4v35c0,15.6,12,27.9,27.9,27.9h24.9c15.8,0,28.1-12.2,28.1-27.9V249.7h9.5c11.8,0,20.1-7.4,20.1-18.4v-72  c0-11.2-8.2-18.6-20.1-18.6H447v-87c0-27-16-42.8-44.7-46C357.7,2.5,306.7,0,256,0c-50.4,0-101.3,2.5-146.5,7.8  C80.8,11,65,26.8,65,53.8v87h-9.5c-11.8,0-20,7.4-20,18.6v72c0,11,8.2,18.4,20,18.4H65V484.1z M103.6,169.9v-99  c0-14.4,7.8-23.4,20.9-25.1c43.9-4.9,87.6-7.4,131.5-7.4c43.7,0,87.8,2.7,131.5,7.4c13.1,1.7,20.9,10.8,20.9,25.1v99H103.6z   M103.6,200.7h304.8v94.5c0,14.4-7.8,23.4-20.9,24.9c-42.4,4.9-87.2,7.4-131.5,7.4c-44.5,0-89.1-2.3-131.5-7.4  c-13.1-1.5-20.9-10.6-20.9-24.9V200.7z M142.9,409.6c-14.1,0-25.3-11.2-25.3-25.3c0-14.4,11.2-25.3,25.3-25.3  c14.4,0,25.3,11,25.3,25.3C168.2,398.5,157.2,409.6,142.9,409.6z M369.1,409.6c-14.4,0-25.3-11.2-25.3-25.3  c0-14.4,11-25.3,25.3-25.3c14.1,0,25.3,11,25.3,25.3C394.4,398.5,383.3,409.6,369.1,409.6z M219.3,401.8c-10.1,0-17.7-7.6-17.7-17.7  c0-10.3,7.4-17.7,17.7-17.7h73.2c10.6,0,17.9,7.4,17.9,17.7c0,10.1-7.6,17.7-17.9,17.7H219.3z"/>
</svg>