<?xml version="1.0" ?><!-- Generator: Adobe Illustrator 25.0.0, SVG Export Plug-In . SVG Version: 6.00 Build 0)  --><svg xmlns="http://www.w3.org/2000/svg" xmlns:xlink="http://www.w3.org/1999/xlink" version="1.1" id="Layer_1" x="0px" y="0px" viewBox="0 0 512 512" style="enable-background:new 0 0 512 512;" xml:space="preserve">
<path d="M98.8,512h25c15.9,0,28.2-12.3,28.2-28v-34.3c34.1,2.5,71.4,3.8,104.1,3.8c32.6,0,69.9-1.3,104.1-3.8V484  c0,15.7,12.3,28,28.2,28H413c15.9,0,28.2-12.3,28.2-28v-53.6c7-7.6,10.8-18,10.8-31.4V252.8h9.5c11.9,0,20.1-7.4,20.1-18.4v-72.3  c0-11.2-8.3-18.6-20.1-18.6H452V54.3c0-27.1-16.1-43-44.7-46.2C364.1,3,304.5,0,256,0c-48.7,0-108.3,3-151.3,8.1  C75.9,11.2,60,27.1,60,54.3v89.2h-9.5c-11.9,0-20.1,7.4-20.1,18.6v72.3c0,11,8.3,18.4,20.1,18.4H60V399c0,13.4,3.6,23.7,10.8,31.4  V484C70.8,499.7,82.9,512,98.8,512z M256,425.7c-50.6,0-107-3-143.9-7.4c-18-2.1-24.4-11.4-24.4-27.8V62.7  c0-16.1,6.4-25.4,24.4-27.5c36.9-4.7,93.2-7.4,143.9-7.4c49.8,0,106.2,2.8,143.9,7.4c18,2.1,24.4,11.4,24.4,27.5v327.8  c0,16.3-6.4,25.6-24.4,27.8C362.2,422.8,305.8,425.7,256,425.7z M109.6,171.9h292.9V85.2c0-16.1-7.4-24.6-24.6-26.7  c-73.1-7.8-170.6-7.8-243.5,0c-17.2,2.1-24.8,10.6-24.8,26.7V171.9z M109.6,200.7V285c0,14.2,6.6,21.4,19.7,23.7  c64.4,11,186.7,11.7,253.5,0c11.7-2.1,19.7-9.5,19.7-23.7v-84.3H109.6z M142.4,392.9c13.6,0,23.9-10.6,23.9-23.9  c0-13.6-10.4-23.9-23.9-23.9c-13.4,0-23.9,10.4-23.9,23.9C118.5,382.3,129.1,392.9,142.4,392.9z M369.6,392.9  c13.4,0,23.9-10.6,23.9-23.9c0-13.6-10.6-23.9-23.9-23.9c-13.6,0-23.9,10.4-23.9,23.9C345.6,382.3,356,392.9,369.6,392.9z   M214.9,386.5h81.8c10.2,0,17.8-7.6,17.8-17.8c0-10.4-7.4-17.8-17.8-17.8h-81.8c-10.4,0-17.8,7.4-17.8,17.8  C197.1,378.9,204.7,386.5,214.9,386.5z"/>
</svg>