<?xml version="1.0" encoding="UTF-8"?>
<!--Generator: Apple Native CoreSVG 326-->
<!DOCTYPE svg
PUBLIC "-//W3C//DTD SVG 1.1//EN"
       "http://www.w3.org/Graphics/SVG/1.1/DTD/svg11.dtd">
<svg version="1.1" xmlns="http://www.w3.org/2000/svg" xmlns:xlink="http://www.w3.org/1999/xlink" viewBox="0 0 27.8223 29.0527">
 <g>
  <rect height="29.0527" opacity="0" width="27.8223" x="0" y="0"/>
  <path d="M1.67969 22.4707C1.67969 23.2422 1.9043 23.8477 2.32422 24.2773L2.32422 27.3828C2.32422 28.291 3.03711 29.0137 3.96484 29.0137L5.42969 29.0137C6.35742 29.0137 7.07031 28.3008 7.07031 27.3828L7.07031 25.3711C9.11133 25.5176 11.3477 25.5957 13.7207 25.5957C16.0938 25.5957 18.3398 25.5176 20.3906 25.3809L20.3906 27.3828C20.3906 28.3008 21.1035 29.0137 22.0312 29.0137L23.4961 29.0137C24.4238 29.0137 25.1367 28.291 25.1367 27.3828L25.1367 24.2773C25.5566 23.8477 25.7812 23.2422 25.7812 22.4707L25.7812 3.125C25.7812 1.54297 24.8438 0.664062 23.2129 0.478516C20.5664 0.166016 17.1484 0 13.7207 0C10.293 0 6.875 0.166016 4.24805 0.478516C2.60742 0.664062 1.67969 1.54297 1.67969 3.125ZM13.7207 24.1504C10.0977 24.1504 6.97266 23.9941 4.60938 23.7109C3.51562 23.5742 3.11523 23.0469 3.11523 22.0703L3.11523 3.51562C3.11523 2.55859 3.61328 2.00195 4.60938 1.875C6.93359 1.5918 10.2246 1.43555 13.7207 1.43555C17.1484 1.44531 20.4395 1.5918 22.8418 1.875C23.9453 2.01172 24.3457 2.54883 24.3457 3.51562L24.3457 22.0703C24.3457 23.0469 23.9453 23.584 22.8418 23.7109C20.4004 23.9941 17.2754 24.1504 13.7207 24.1504ZM5.54688 17.0605C10.4883 17.7734 16.9141 17.793 21.9141 17.0605C22.6758 16.9434 23.0566 16.5039 23.0566 15.6934L23.0566 4.62891C23.0566 3.74023 22.6367 3.24219 21.7871 3.16406C16.6309 2.64648 10.8789 2.64648 5.69336 3.16406C4.84375 3.24219 4.4043 3.74023 4.4043 4.62891L4.4043 15.6934C4.4043 16.5039 4.79492 16.9434 5.54688 17.0605ZM1.67969 11.7578L1.67969 4.61914L1.10352 4.61914C0.439453 4.61914 0 5.01953 0 5.64453L0 10.7324C0 11.3574 0.439453 11.7578 1.10352 11.7578ZM25.7812 11.7578L26.3477 11.7578C27.0215 11.7578 27.4609 11.3574 27.4609 10.7324L27.4609 5.64453C27.4609 5.01953 27.0215 4.61914 26.3477 4.61914L25.7812 4.61914ZM6.5332 22.0605C7.36328 22.0605 7.97852 21.4453 7.97852 20.6152C7.97852 19.7949 7.36328 19.1699 6.5332 19.1699C5.71289 19.1699 5.08789 19.7949 5.08789 20.6152C5.08789 21.4453 5.71289 22.0605 6.5332 22.0605ZM10.7031 21.6406L16.709 21.6406C17.3242 21.6406 17.7539 21.2207 17.7539 20.5957C17.7539 19.9805 17.3242 19.5703 16.709 19.5703L10.7031 19.5703C10.0879 19.5703 9.6582 19.9805 9.6582 20.5957C9.6582 21.2207 10.0879 21.6406 10.7031 21.6406ZM20.918 22.0605C21.748 22.0605 22.373 21.4453 22.373 20.6152C22.373 19.7949 21.748 19.1699 20.918 19.1699C20.0977 19.1699 19.4727 19.7949 19.4727 20.6152C19.4727 21.4453 20.0977 22.0605 20.918 22.0605Z" fill="black" fill-opacity="0.85"/>
 </g>
</svg>
