<?xml version="1.0" encoding="UTF-8"?>
<!--Generator: Apple Native CoreSVG 326-->
<!DOCTYPE svg
PUBLIC "-//W3C//DTD SVG 1.1//EN"
       "http://www.w3.org/Graphics/SVG/1.1/DTD/svg11.dtd">
<svg version="1.1" xmlns="http://www.w3.org/2000/svg" xmlns:xlink="http://www.w3.org/1999/xlink" viewBox="0 0 32.5488 22.2976">
 <g>
  <rect height="22.2976" opacity="0" width="32.5488" x="0" y="0"/>
  <path d="M32.1875 12.5892L32.1875 4.71815C32.1875 2.52089 30.752 1.07557 28.5352 1.07557L3.64258 1.08534C1.42578 1.08534 0 2.54042 0 4.75721L0 12.5892C0 15.7826 1.34766 17.6869 4.62891 18.6537L15.5176 21.8373C18.3887 22.6771 20.1758 22.3451 22.7344 21.0267L29.834 17.3842C31.7871 16.3783 32.1875 15.2162 32.1875 12.5892ZM30.459 12.5892C30.459 14.5326 30.1465 15.3139 28.75 16.017L21.8066 19.5521C19.6191 20.6654 18.1641 20.89 15.5566 20.1185L5.13672 17.0326C2.66602 16.3099 1.72852 14.9721 1.72852 12.5892L1.72852 4.79628C1.72852 3.57557 2.48047 2.81385 3.67188 2.81385L28.5059 2.80409C29.6973 2.80409 30.459 3.54628 30.459 4.76698Z" fill="black" fill-opacity="0.85"/>
 </g>
</svg>
