<?xml version="1.0" encoding="UTF-8"?>
<!--Generator: Apple Native CoreSVG 326-->
<!DOCTYPE svg
PUBLIC "-//W3C//DTD SVG 1.1//EN"
       "http://www.w3.org/Graphics/SVG/1.1/DTD/svg11.dtd">
<svg version="1.1" xmlns="http://www.w3.org/2000/svg" xmlns:xlink="http://www.w3.org/1999/xlink" viewBox="0 0 28.9941 21.6504">
 <g>
  <rect height="21.6504" opacity="0" width="28.9941" x="0" y="0"/>
  <path d="M10.2441 21.6309L18.3887 21.6309C25.5371 21.6309 28.6328 18.3203 28.6328 11.6406L28.6328 3.67188C28.6328 1.25977 27.373 0 24.9316 0L3.71094 0C1.25977 0 0 1.25 0 3.67188L0 11.6406C0 18.3203 3.10547 21.6309 10.2441 21.6309ZM10.2637 19.9023C4.25781 19.9023 1.72852 17.2559 1.72852 11.7383L1.72852 3.75977C1.72852 2.42188 2.43164 1.73828 3.75 1.73828L24.8828 1.73828C26.1816 1.73828 26.9043 2.42188 26.9043 3.75977L26.9043 11.7383C26.9043 17.2559 24.375 19.9023 18.3789 19.9023Z" fill="black" fill-opacity="0.85"/>
 </g>
</svg>
