<?xml version="1.0" ?><!-- Generator: Adobe Illustrator 25.0.0, SVG Export Plug-In . SVG Version: 6.00 Build 0)  --><svg xmlns="http://www.w3.org/2000/svg" xmlns:xlink="http://www.w3.org/1999/xlink" version="1.1" id="Layer_1" x="0px" y="0px" viewBox="0 0 512 512" style="enable-background:new 0 0 512 512;" xml:space="preserve">
<path d="M256,512c140,0,256-116.2,256-256C512,116,395.8,0,255.7,0C116,0,0,116,0,256C0,395.8,116.2,512,256,512z M256,469.3  c-118.5,0-213.1-94.9-213.1-213.3S137.3,42.7,255.7,42.7S469.1,137.5,469.3,256S374.5,469.3,256,469.3z M256,374  c44.4,0,79.8-21.3,91.9-55c1.8-4.5,2.3-7.8,2.3-11.5c0-10.5-6.8-17.3-17.3-17.3c-7.5,0-12.5,3.8-16.6,12.3  c-10.3,24.6-31.4,38.4-59.7,38.4c-39.9,0-66.8-34.9-66.8-86.8c0-52,26.9-87.1,66.8-87.1c28.4,0,49.4,13.6,59.7,38.1  c4,8.5,9,12.3,16.6,12.3c10.5,0,17.3-6.5,17.3-17.1c0-4-0.5-7-2.3-11.5c-12.3-33.6-47.4-55-91.9-55c-65,0-106.7,46.9-106.7,120.2  S190.7,374,256,374z"/>
</svg>