<?xml version="1.0" ?><!-- Generator: Adobe Illustrator 25.0.0, SVG Export Plug-In . SVG Version: 6.00 Build 0)  --><svg xmlns="http://www.w3.org/2000/svg" xmlns:xlink="http://www.w3.org/1999/xlink" version="1.1" id="Layer_1" x="0px" y="0px" viewBox="0 0 512 512" style="enable-background:new 0 0 512 512;" xml:space="preserve">
<path d="M87.3,512h337.3c58.4,0,87.3-28.9,87.3-86.2V86.2C512,28.9,483.1,0,424.7,0H87.3C29.2,0,0,28.6,0,86.2v339.6  C0,483.4,29.2,512,87.3,512z M87.9,467.2c-27.8,0-43.1-14.7-43.1-43.7V88.4c0-28.9,15.3-43.7,43.1-43.7h336.2  c27.5,0,43.1,14.7,43.1,43.7v335.1c0,28.9-15.6,43.7-43.1,43.7H87.9z M256.4,386c49.5,0,88.4-23.4,101.8-60.9  c1.9-5,2.5-8.6,2.5-12.8c0-11.7-7.5-18.9-18.9-18.9c-8.6,0-14.2,4.2-18.6,13.6c-11.4,27.3-34.8,42.3-66.2,42.3  c-44.2,0-74-38.7-74-96.2c0-57.6,29.8-96.5,74-96.5c31.4,0,54.8,15,66.2,42.6c4.4,9.5,10,13.3,18.6,13.3c11.4,0,18.9-7.2,18.9-18.9  c0-4.4-0.6-7.8-2.5-12.8c-13.3-37.3-52.6-60.9-101.8-60.9c-72,0-118.2,52-118.2,133.2C138.2,334.3,184.1,386,256.4,386z"/>
</svg>