<?xml version="1.0" encoding="UTF-8"?>
<!--Generator: Apple Native CoreSVG 326-->
<!DOCTYPE svg
PUBLIC "-//W3C//DTD SVG 1.1//EN"
       "http://www.w3.org/Graphics/SVG/1.1/DTD/svg11.dtd">
<svg version="1.1" xmlns="http://www.w3.org/2000/svg" xmlns:xlink="http://www.w3.org/1999/xlink" viewBox="0 0 23.3203 22.959">
 <g>
  <rect height="22.959" opacity="0" width="23.3203" x="0" y="0"/>
  <path d="M3.79883 22.959L19.1504 22.959C21.6797 22.959 22.959 21.6797 22.959 19.1992L22.959 3.76953C22.959 1.2793 21.6797 0 19.1504 0L3.79883 0C1.2793 0 0 1.26953 0 3.76953L0 19.1992C0 21.6992 1.2793 22.959 3.79883 22.959ZM3.83789 21.2305C2.4707 21.2305 1.72852 20.5078 1.72852 19.1016L1.72852 3.85742C1.72852 2.46094 2.4707 1.72852 3.83789 1.72852L19.1211 1.72852C20.459 1.72852 21.2305 2.46094 21.2305 3.85742L21.2305 19.1016C21.2305 20.5078 20.459 21.2305 19.1211 21.2305Z" fill="black" fill-opacity="0.85"/>
  <path d="M11.5234 17.3438C13.7305 17.3438 15.5078 16.2305 16.0547 14.5215C16.123 14.2969 16.1426 14.1602 16.1426 13.9941C16.1426 13.5254 15.8594 13.2422 15.4004 13.2422C15.0586 13.2422 14.834 13.4082 14.668 13.7988C14.2188 15.1172 13.0762 15.8984 11.543 15.8984C9.44336 15.8984 8.01758 14.082 8.01758 11.3867C8.01758 8.70117 9.44336 6.86523 11.543 6.86523C13.0762 6.86523 14.2285 7.64648 14.668 8.97461C14.834 9.35547 15.0586 9.52148 15.4004 9.52148C15.8594 9.52148 16.1426 9.23828 16.1426 8.76953C16.1426 8.59375 16.123 8.4668 16.0547 8.24219C15.5078 6.55273 13.7109 5.41992 11.5234 5.41992C8.33984 5.41992 6.2793 7.77344 6.2793 11.3867C6.2793 15 8.33008 17.3438 11.5234 17.3438Z" fill="black" fill-opacity="0.85"/>
 </g>
</svg>
