<?xml version="1.0" encoding="UTF-8"?>
<!--Generator: Apple Native CoreSVG 326-->
<!DOCTYPE svg
PUBLIC "-//W3C//DTD SVG 1.1//EN"
       "http://www.w3.org/Graphics/SVG/1.1/DTD/svg11.dtd">
<svg version="1.1" xmlns="http://www.w3.org/2000/svg" xmlns:xlink="http://www.w3.org/1999/xlink" viewBox="0 0 20.1758 28.1738">
 <g>
  <rect height="28.1738" opacity="0" width="20.1758" x="0" y="0"/>
  <path d="M2.75391 25.8496L17.0605 25.8496C18.7109 25.8496 19.8145 24.6973 19.8145 22.9688L19.8145 2.87109C19.8145 1.14258 18.7109 0 17.0605 0L2.75391 0C1.10352 0 0 1.14258 0 2.87109L0 22.9688C0 24.6973 1.10352 25.8496 2.75391 25.8496ZM2.82227 24.1113C2.16797 24.1113 1.72852 23.6621 1.72852 22.9688L1.72852 2.88086C1.72852 2.1875 2.16797 1.72852 2.82227 1.72852L16.9922 1.72852C17.6465 1.72852 18.0859 2.1875 18.0859 2.88086L18.0859 22.9688C18.0859 23.6621 17.6465 24.1113 16.9922 24.1113ZM9.18945 24.9023L10.625 24.9023L10.625 0.898438L9.18945 0.898438ZM6.69922 14.6484C7.39258 14.6484 7.96875 14.082 7.96875 13.3887C7.96875 12.6758 7.39258 12.1191 6.69922 12.1191C5.99609 12.1191 5.42969 12.6758 5.42969 13.3887C5.42969 14.082 5.99609 14.6484 6.69922 14.6484ZM13.1055 14.6484C13.7988 14.6484 14.375 14.082 14.375 13.3887C14.375 12.6758 13.7988 12.1191 13.1055 12.1191C12.4023 12.1191 11.8262 12.6758 11.8262 13.3887C11.8262 14.082 12.4023 14.6484 13.1055 14.6484ZM3.53516 28.1348C4.08203 28.1348 4.46289 27.7637 4.46289 27.207L4.46289 24.7949L2.60742 24.7949L2.60742 27.207C2.60742 27.7637 2.97852 28.1348 3.53516 28.1348ZM16.2793 28.1348C16.8359 28.1348 17.207 27.7637 17.207 27.207L17.207 24.7949L15.3516 24.7949L15.3516 27.207C15.3516 27.7637 15.7324 28.1348 16.2793 28.1348Z" fill="black" fill-opacity="0.85"/>
 </g>
</svg>
