<?xml version="1.0" ?><!-- Generator: Adobe Illustrator 25.0.0, SVG Export Plug-In . SVG Version: 6.00 Build 0)  --><svg xmlns="http://www.w3.org/2000/svg" xmlns:xlink="http://www.w3.org/1999/xlink" version="1.1" id="Layer_1" x="0px" y="0px" viewBox="0 0 512 512" style="enable-background:new 0 0 512 512;" xml:space="preserve">
<path d="M0,273.1h215v-34.4H0V273.1z M206.3,329.6h177.4c9.1,0,15.6-2,19.6-5.9c3.9-3.9,5.9-10.5,5.9-19.6v-96.4  c0-9-2-15.4-5.9-19.3c-3.9-3.9-10.5-5.9-19.6-5.9H206.3c-9.1,0-15.6,2-19.6,5.9c-3.9,3.9-5.9,10.4-5.9,19.3v96.4  c0,9.1,2,15.6,5.9,19.6C190.7,327.6,197.2,329.6,206.3,329.6z M433.1,300h53.6c9,0,15.4-2,19.3-6c3.9-4,5.9-10.6,5.9-19.7v-36.8  c0-9-2-15.5-5.9-19.5c-3.9-4-10.4-6-19.3-6h-53.6V300z"/>
</svg>