<?xml version="1.0" encoding="UTF-8"?>
<!--Generator: Apple Native CoreSVG 326-->
<!DOCTYPE svg
PUBLIC "-//W3C//DTD SVG 1.1//EN"
       "http://www.w3.org/Graphics/SVG/1.1/DTD/svg11.dtd">
<svg version="1.1" xmlns="http://www.w3.org/2000/svg" xmlns:xlink="http://www.w3.org/1999/xlink" viewBox="0 0 25.9375 30.2441">
 <g>
  <rect height="30.2441" opacity="0" width="25.9375" x="0" y="0"/>
  <path d="M1.31836 23.9062L24.2578 23.9062L24.2578 6.44531C24.2578 4.96094 23.4082 4.10156 21.7871 3.90625C19.3555 3.59375 15.957 3.4375 12.7832 3.4375C9.59961 3.4375 6.20117 3.59375 3.76953 3.90625C2.1582 4.10156 1.31836 4.96094 1.31836 6.44531ZM3.79883 15.6348L3.79883 9.45312C3.79883 8.08594 4.84375 7.04102 6.2207 7.04102C7.59766 7.04102 8.64258 8.08594 8.64258 9.45312L8.64258 15.6348C8.64258 16.0449 8.37891 16.3086 7.93945 16.3086L4.50195 16.3086C4.0625 16.3086 3.79883 16.0449 3.79883 15.6348ZM10.0195 15.6348L10.0195 9.0625C10.0195 7.41211 11.123 6.31836 12.7832 6.31836C14.4336 6.31836 15.5371 7.41211 15.5371 9.0625L15.5371 15.6348C15.5371 16.0449 15.2832 16.3086 14.8438 16.3086L10.7129 16.3086C10.2734 16.3086 10.0195 16.0449 10.0195 15.6348ZM16.9141 15.6348L16.9141 9.45312C16.9141 8.08594 17.959 7.04102 19.3359 7.04102C20.7129 7.04102 21.7578 8.08594 21.7578 9.45312L21.7578 15.6348C21.7578 16.0449 21.4941 16.3086 21.0547 16.3086L17.6172 16.3086C17.1777 16.3086 16.9141 16.0449 16.9141 15.6348ZM12.7832 22.2852C11.6211 22.2852 10.791 21.4453 10.791 20.3223C10.791 19.1699 11.6309 18.2812 12.7832 18.2812C13.8965 18.2812 14.7852 19.1699 14.7852 20.3223C14.7852 21.4453 13.9062 22.2852 12.7832 22.2852ZM0 24.5703C0 25.0391 0.390625 25.4297 0.869141 25.4297L24.707 25.4297C25.1855 25.4297 25.5762 25.0391 25.5762 24.5703C25.5762 24.0918 25.1855 23.7012 24.707 23.7012L0.869141 23.7012C0.390625 23.7012 0 24.0918 0 24.5703ZM4.85352 1.2793C4.85352 1.77734 5.27344 2.25586 5.81055 2.1875C7.63672 1.95312 10.2246 1.85547 12.7832 1.85547C15.3418 1.85547 17.9297 1.95312 19.7559 2.1875C20.293 2.25586 20.7129 1.77734 20.7129 1.2793C20.7129 0.791016 20.3223 0.410156 19.7656 0.341797C17.8711 0.107422 15.2539 0 12.7832 0C10.3125 0 7.69531 0.107422 5.79102 0.341797C5.24414 0.410156 4.85352 0.791016 4.85352 1.2793ZM6.28906 0.976562L6.28906 4.20898L7.71484 4.20898L7.71484 0.976562ZM17.8613 0.976562L17.8613 4.20898L19.2969 4.20898L19.2969 0.976562ZM3.73047 30.2246L4.38477 30.2246C4.7168 30.2246 4.89258 30.1172 5.05859 29.8438L8.47656 24.3359L6.29883 24.3359L3.24219 29.2578C2.94922 29.7266 3.20312 30.2246 3.73047 30.2246ZM20.3906 30.2246L21.0449 30.2246C21.5723 30.2246 21.8359 29.7266 21.5332 29.2578L18.4766 24.3359L16.2988 24.3359L19.7168 29.8438C19.8926 30.1172 20.0684 30.2246 20.3906 30.2246Z" fill="black" fill-opacity="0.85"/>
 </g>
</svg>
