<?xml version="1.0" ?><!-- Generator: Adobe Illustrator 25.0.0, SVG Export Plug-In . SVG Version: 6.00 Build 0)  --><svg xmlns="http://www.w3.org/2000/svg" xmlns:xlink="http://www.w3.org/1999/xlink" version="1.1" id="Layer_1" x="0px" y="0px" viewBox="0 0 512 512" style="enable-background:new 0 0 512 512;" xml:space="preserve">
<path d="M61.7,400.3h27.1v-280c0-7.6,1.9-13.5,5.6-17.7c3.7-4.3,9.5-6.9,17.3-7.9c17.4-2.4,38.7-4.1,64.1-5.2  c25.4-1.1,52.1-1.7,80.1-1.7s54.7,0.6,80.1,1.7c25.4,1.1,46.8,2.9,64.3,5.2c8,1,13.7,3.5,17.3,7.5c3.6,4,5.4,10,5.4,18.2v280h27.3  V112.1c0-12.7-3.6-22.8-10.9-30.3c-7.3-7.5-17.9-12.1-31.9-13.7c-13.6-1.7-28.7-3.1-45.3-4.3c-16.7-1.2-34-2.1-52.2-2.6  c-18.1-0.6-36.1-0.8-54.1-0.8c-18.1,0-36.1,0.3-54.2,0.8c-18.1,0.6-35.4,1.4-52.1,2.6c-16.7,1.2-31.8,2.6-45.6,4.3  c-13.9,1.7-24.4,6.3-31.6,13.7c-7.2,7.5-10.8,17.6-10.8,30.3V400.3z M37.6,413.8c0,4.6,1.6,8.6,4.9,12c3.3,3.4,7.2,5,11.9,5h403.3  c4.6,0,8.6-1.7,11.9-5c3.3-3.4,4.9-7.3,4.9-12c0-4.6-1.6-8.6-4.9-11.9c-3.3-3.3-7.2-4.9-11.9-4.9H54.4c-4.6,0-8.6,1.6-11.9,4.9  C39.2,405.2,37.6,409.1,37.6,413.8z M120.5,23.3c0,4.8,1.7,9,5.2,12.7c3.5,3.7,7.7,5.2,12.6,4.5c15.5-2,33.6-3.4,54.3-4.2  c20.6-0.8,41.7-1.3,63.3-1.3c21.6,0,42.6,0.4,63.3,1.3c20.6,0.8,38.8,2.2,54.5,4.2c4.9,0.7,9.1-0.8,12.5-4.5  c3.4-3.7,5.1-7.9,5.1-12.7c0-4.8-1.7-8.7-5-11.9c-3.4-3.1-7.6-5.1-12.6-5.8c-15.8-2-34.1-3.4-54.9-4.3C298,0.5,277,0,255.9,0  c-21.1,0-42.1,0.5-62.8,1.4c-20.7,0.9-39,2.3-55,4.3c-4.9,0.7-9.1,2.6-12.5,5.8C122.2,14.6,120.5,18.5,120.5,23.3z M144.4,17.8v57.5  h27.5V17.8H144.4z M340.1,17.8v57.5h27.5V17.8H340.1z M255.9,373c9.5,0,17.6-3.2,24.2-9.6c6.6-6.4,10-14.3,10-23.8  c0-9.8-3.3-18-10-24.7c-6.6-6.6-14.7-10-24.2-10c-9.8,0-17.9,3.3-24.2,10c-6.4,6.6-9.6,14.9-9.6,24.7c0,9.5,3.2,17.5,9.6,23.8  C238,369.8,246.1,373,255.9,373z M111.3,264.3c0,3.2,1,5.8,2.9,7.7c2,1.9,4.6,2.8,8,2.8h56.5c3.4,0,6-0.9,8-2.8  c2-1.9,2.9-4.4,2.9-7.7V161.6c0-11.1-3.8-20.3-11.3-27.8c-7.6-7.5-16.8-11.2-27.7-11.2c-11.1,0-20.4,3.7-27.9,11.2  c-7.6,7.5-11.3,16.8-11.3,27.8V264.3z M211.8,264.3c0,3.2,1,5.8,2.9,7.7c2,1.9,4.6,2.8,8,2.8h66.1c3.5,0,6.2-0.9,8.2-2.8  c2-1.9,2.9-4.4,2.9-7.7V156.8c0-13.2-4.1-23.8-12.2-31.8s-18.8-12.1-31.9-12.1c-13.3,0-24,4-32,12.1c-8,8-12.1,18.6-12.1,31.8V264.3  z M322,264.3c0,3.2,1,5.8,3,7.7c2,1.9,4.7,2.8,8.1,2.8h56.5c3.4,0,6-0.9,8-2.8c2-1.9,2.9-4.4,2.9-7.7V161.6  c0-11.1-3.8-20.3-11.3-27.8c-7.6-7.5-16.8-11.2-27.7-11.2c-11.2,0-20.6,3.7-28.1,11.2c-7.6,7.5-11.3,16.8-11.3,27.8V264.3z   M107.5,512h11.8c5.2,0,9.2-2.3,12.2-6.9l59.6-96.4h-40.1l-52.9,85c-1.8,2.9-2.6,5.8-2.2,8.6c0.3,2.8,1.5,5.1,3.6,6.9  C101.4,511.1,104.1,512,107.5,512z M385.4,512h11.8c3.2,0,5.8-0.9,7.9-2.7c2-1.8,3.2-4.1,3.6-6.9c0.3-2.8-0.4-5.7-2.2-8.6l-52.9-85  h-40.1l59.6,96.4C376,509.7,380.1,512,385.4,512z"/>
</svg>