<?xml version="1.0" encoding="UTF-8"?>
<!--Generator: Apple Native CoreSVG 326-->
<!DOCTYPE svg
PUBLIC "-//W3C//DTD SVG 1.1//EN"
       "http://www.w3.org/Graphics/SVG/1.1/DTD/svg11.dtd">
<svg version="1.1" xmlns="http://www.w3.org/2000/svg" xmlns:xlink="http://www.w3.org/1999/xlink" viewBox="0 0 25.3809 22.9785">
 <g>
  <rect height="22.9785" opacity="0" width="25.3809" x="0" y="0"/>
  <path d="M3.79883 22.9785L21.2109 22.9785C23.7402 22.9785 25.0195 21.709 25.0195 19.2188L25.0195 3.78906C25.0195 1.29883 23.7402 0.0292969 21.2109 0.0292969L3.79883 0.0292969C1.2793 0.0292969 0 1.28906 0 3.78906L0 19.2188C0 21.7188 1.2793 22.9785 3.79883 22.9785ZM3.66211 21.25C2.41211 21.25 1.72852 20.5859 1.72852 19.2969L1.72852 7.64648C1.72852 6.34766 2.41211 5.69336 3.66211 5.69336L21.3379 5.69336C22.5781 5.69336 23.2812 6.34766 23.2812 7.64648L23.2812 19.2969C23.2812 20.5859 22.5781 21.25 21.3379 21.25ZM10.0195 10.1855L10.7617 10.1855C11.1816 10.1855 11.2988 10.0684 11.2988 9.6582L11.2988 8.92578C11.2988 8.51562 11.1816 8.4082 10.7617 8.4082L10.0195 8.4082C9.60938 8.4082 9.49219 8.51562 9.49219 8.92578L9.49219 9.6582C9.49219 10.0684 9.60938 10.1855 10.0195 10.1855ZM14.2676 10.1855L15.0098 10.1855C15.4199 10.1855 15.5371 10.0684 15.5371 9.6582L15.5371 8.92578C15.5371 8.51562 15.4199 8.4082 15.0098 8.4082L14.2676 8.4082C13.8477 8.4082 13.7305 8.51562 13.7305 8.92578L13.7305 9.6582C13.7305 10.0684 13.8477 10.1855 14.2676 10.1855ZM18.5059 10.1855L19.248 10.1855C19.6582 10.1855 19.7852 10.0684 19.7852 9.6582L19.7852 8.92578C19.7852 8.51562 19.6582 8.4082 19.248 8.4082L18.5059 8.4082C18.0957 8.4082 17.9688 8.51562 17.9688 8.92578L17.9688 9.6582C17.9688 10.0684 18.0957 10.1855 18.5059 10.1855ZM5.78125 14.3555L6.52344 14.3555C6.93359 14.3555 7.06055 14.248 7.06055 13.8379L7.06055 13.0957C7.06055 12.6953 6.93359 12.5781 6.52344 12.5781L5.78125 12.5781C5.37109 12.5781 5.24414 12.6953 5.24414 13.0957L5.24414 13.8379C5.24414 14.248 5.37109 14.3555 5.78125 14.3555ZM10.0195 14.3555L10.7617 14.3555C11.1816 14.3555 11.2988 14.248 11.2988 13.8379L11.2988 13.0957C11.2988 12.6953 11.1816 12.5781 10.7617 12.5781L10.0195 12.5781C9.60938 12.5781 9.49219 12.6953 9.49219 13.0957L9.49219 13.8379C9.49219 14.248 9.60938 14.3555 10.0195 14.3555ZM14.2676 14.3555L15.0098 14.3555C15.4199 14.3555 15.5371 14.248 15.5371 13.8379L15.5371 13.0957C15.5371 12.6953 15.4199 12.5781 15.0098 12.5781L14.2676 12.5781C13.8477 12.5781 13.7305 12.6953 13.7305 13.0957L13.7305 13.8379C13.7305 14.248 13.8477 14.3555 14.2676 14.3555ZM18.5059 14.3555L19.248 14.3555C19.6582 14.3555 19.7852 14.248 19.7852 13.8379L19.7852 13.0957C19.7852 12.6953 19.6582 12.5781 19.248 12.5781L18.5059 12.5781C18.0957 12.5781 17.9688 12.6953 17.9688 13.0957L17.9688 13.8379C17.9688 14.248 18.0957 14.3555 18.5059 14.3555ZM5.78125 18.5352L6.52344 18.5352C6.93359 18.5352 7.06055 18.4277 7.06055 18.0176L7.06055 17.2754C7.06055 16.8652 6.93359 16.7578 6.52344 16.7578L5.78125 16.7578C5.37109 16.7578 5.24414 16.8652 5.24414 17.2754L5.24414 18.0176C5.24414 18.4277 5.37109 18.5352 5.78125 18.5352ZM10.0195 18.5352L10.7617 18.5352C11.1816 18.5352 11.2988 18.4277 11.2988 18.0176L11.2988 17.2754C11.2988 16.8652 11.1816 16.7578 10.7617 16.7578L10.0195 16.7578C9.60938 16.7578 9.49219 16.8652 9.49219 17.2754L9.49219 18.0176C9.49219 18.4277 9.60938 18.5352 10.0195 18.5352ZM14.2676 18.5352L15.0098 18.5352C15.4199 18.5352 15.5371 18.4277 15.5371 18.0176L15.5371 17.2754C15.5371 16.8652 15.4199 16.7578 15.0098 16.7578L14.2676 16.7578C13.8477 16.7578 13.7305 16.8652 13.7305 17.2754L13.7305 18.0176C13.7305 18.4277 13.8477 18.5352 14.2676 18.5352Z" fill="black" fill-opacity="0.85"/>
 </g>
</svg>
