<?xml version="1.0" encoding="UTF-8"?>
<!--Generator: Apple Native CoreSVG 326-->
<!DOCTYPE svg
PUBLIC "-//W3C//DTD SVG 1.1//EN"
       "http://www.w3.org/Graphics/SVG/1.1/DTD/svg11.dtd">
<svg version="1.1" xmlns="http://www.w3.org/2000/svg" xmlns:xlink="http://www.w3.org/1999/xlink" viewBox="0 0 40.3418 26.084">
 <g>
  <rect height="26.084" opacity="0" width="40.3418" x="0" y="0"/>
  <path d="M32.5 5.3418L32.5 7.01897C32.0964 6.90357 31.6733 6.8457 31.2402 6.8457C30.5389 6.8457 29.8642 6.99826 29.2477 7.27564C29.113 7.25583 28.9697 7.24609 28.8184 7.24609L11.1426 7.24609C9.89258 7.24609 9.20898 7.90039 9.20898 9.19922L9.20898 20.8496C9.20898 22.1387 9.89258 22.8027 11.1426 22.8027L22.1575 22.8027C22.131 22.9902 22.1191 23.1759 22.1191 23.3594C22.1191 23.79 22.2105 24.1851 22.3803 24.5312L11.2793 24.5312C8.75977 24.5312 7.48047 23.2715 7.48047 20.7715L7.48047 5.3418C7.48047 2.8418 8.75977 1.58203 11.2793 1.58203L28.6914 1.58203C31.2207 1.58203 32.5 2.85156 32.5 5.3418ZM14.541 18.8281L14.541 19.5703C14.541 19.9805 14.4141 20.0879 14.0039 20.0879L13.2617 20.0879C12.8516 20.0879 12.7246 19.9805 12.7246 19.5703L12.7246 18.8281C12.7246 18.418 12.8516 18.3105 13.2617 18.3105L14.0039 18.3105C14.4141 18.3105 14.541 18.418 14.541 18.8281ZM18.7793 18.8281L18.7793 19.5703C18.7793 19.9805 18.6621 20.0879 18.2422 20.0879L17.5 20.0879C17.0898 20.0879 16.9727 19.9805 16.9727 19.5703L16.9727 18.8281C16.9727 18.418 17.0898 18.3105 17.5 18.3105L18.2422 18.3105C18.6621 18.3105 18.7793 18.418 18.7793 18.8281ZM23.0176 18.8281L23.0176 19.5703C23.0176 19.9805 22.9004 20.0879 22.4902 20.0879L21.748 20.0879C21.3281 20.0879 21.2109 19.9805 21.2109 19.5703L21.2109 18.8281C21.2109 18.418 21.3281 18.3105 21.748 18.3105L22.4902 18.3105C22.9004 18.3105 23.0176 18.418 23.0176 18.8281ZM14.541 14.6484L14.541 15.3906C14.541 15.8008 14.4141 15.9082 14.0039 15.9082L13.2617 15.9082C12.8516 15.9082 12.7246 15.8008 12.7246 15.3906L12.7246 14.6484C12.7246 14.248 12.8516 14.1309 13.2617 14.1309L14.0039 14.1309C14.4141 14.1309 14.541 14.248 14.541 14.6484ZM18.7793 14.6484L18.7793 15.3906C18.7793 15.8008 18.6621 15.9082 18.2422 15.9082L17.5 15.9082C17.0898 15.9082 16.9727 15.8008 16.9727 15.3906L16.9727 14.6484C16.9727 14.248 17.0898 14.1309 17.5 14.1309L18.2422 14.1309C18.6621 14.1309 18.7793 14.248 18.7793 14.6484ZM23.0176 14.6484L23.0176 15.3906C23.0176 15.8008 22.9004 15.9082 22.4902 15.9082L21.748 15.9082C21.3281 15.9082 21.2109 15.8008 21.2109 15.3906L21.2109 14.6484C21.2109 14.248 21.3281 14.1309 21.748 14.1309L22.4902 14.1309C22.9004 14.1309 23.0176 14.248 23.0176 14.6484ZM27.2197 15.7009C27.1531 15.8593 27.0053 15.9082 26.7285 15.9082L25.9863 15.9082C25.5762 15.9082 25.4492 15.8008 25.4492 15.3906L25.4492 14.6484C25.4492 14.248 25.5762 14.1309 25.9863 14.1309L26.4068 14.1309C26.5926 14.7084 26.8701 15.2373 27.2197 15.7009ZM18.7793 10.4785L18.7793 11.2109C18.7793 11.6211 18.6621 11.7383 18.2422 11.7383L17.5 11.7383C17.0898 11.7383 16.9727 11.6211 16.9727 11.2109L16.9727 10.4785C16.9727 10.0684 17.0898 9.96094 17.5 9.96094L18.2422 9.96094C18.6621 9.96094 18.7793 10.0684 18.7793 10.4785ZM23.0176 10.4785L23.0176 11.2109C23.0176 11.6211 22.9004 11.7383 22.4902 11.7383L21.748 11.7383C21.3281 11.7383 21.2109 11.6211 21.2109 11.2109L21.2109 10.4785C21.2109 10.0684 21.3281 9.96094 21.748 9.96094L22.4902 9.96094C22.9004 9.96094 23.0176 10.0684 23.0176 10.4785ZM26.128 11.7383L25.9863 11.7383C25.5762 11.7383 25.4492 11.6211 25.4492 11.2109L25.4492 10.4785C25.4492 10.0684 25.5762 9.96094 25.9863 9.96094L26.5978 9.96094C26.3462 10.5056 26.1845 11.1049 26.128 11.7383Z" fill="black" fill-opacity="0.85"/>
  <path d="M25.1465 24.5215L37.3242 24.5215C38.2227 24.5215 38.7891 24.082 38.7891 23.3594C38.7891 21.0352 35.8887 17.832 31.2305 17.832C26.5625 17.832 23.6719 21.0352 23.6719 23.3594C23.6719 24.082 24.2383 24.5215 25.1465 24.5215ZM31.2402 16.2207C33.1738 16.2207 34.8242 14.502 34.8242 12.2559C34.8242 10.0781 33.1641 8.4082 31.2402 8.4082C29.3164 8.4082 27.6562 10.0977 27.6562 12.2754C27.6562 14.502 29.2969 16.2207 31.2402 16.2207Z" fill="black" fill-opacity="0.85"/>
 </g>
</svg>
