<?xml version="1.0" ?><!-- Generator: Adobe Illustrator 25.0.0, SVG Export Plug-In . SVG Version: 6.00 Build 0)  --><svg xmlns="http://www.w3.org/2000/svg" xmlns:xlink="http://www.w3.org/1999/xlink" version="1.1" id="Layer_1" x="0px" y="0px" viewBox="0 0 512 512" style="enable-background:new 0 0 512 512;" xml:space="preserve">
<path d="M490.8,166.4c13.9,0,21.2-7.8,21.2-21.4V80.9c0-53.9-27.5-80.8-82.1-80.8h-64.1c-13.6,0-21.2,7.3-21.2,20.9  c0,13.6,7.6,21.2,21.2,21.2h63.3c25.9,0,40.8,13.9,40.8,41.1V145C469.9,158.6,477.5,166.4,490.8,166.4z M20.9,166.4  c13.9,0,21.2-7.8,21.2-21.4V83.3c0-27.2,14.4-41.1,40.5-41.1h63.3c13.9,0,21.4-7.6,21.4-21.2c0-13.6-7.6-20.9-21.4-20.9H82.1  C27.5,0.1,0,27.1,0,80.9V145C0,158.6,7.6,166.4,20.9,166.4z M139.4,374.1h233.5c27.5,0,41.6-13.6,41.6-40.8V195.2  c0-27.7-14.1-41.3-41.6-41.3h-34c-10.2,0-13.3-1.8-19.4-8.6l-10.7-11.8c-6.5-7.3-13.3-11-26.7-11h-52.8c-13.6,0-20.4,3.7-26.9,11  l-10.7,11.8c-6,6.5-9.2,8.6-19.4,8.6h-32.9c-27.7,0-41.6,13.6-41.6,41.3v138.1C97.8,360.5,111.7,374.1,139.4,374.1z M256.5,341.4  c-43.7,0-78.7-34.8-78.7-78.7c0-43.4,35-78.2,78.7-78.2c43.1,0,77.9,34.8,77.9,78.2C334.4,307.4,299.7,341.4,256.5,341.4z   M360.6,225.3c-9.7,0-17.5-7.8-17.5-17.8s7.8-17.8,17.5-17.8c9.7,0,17.8,7.8,17.8,17.8S370.3,225.3,360.6,225.3z M256.3,318.6  c30.6,0,55.7-24.6,55.7-56c0-30.9-25.1-55.7-55.7-55.7c-30.9,0-56,24.8-56,55.7C200.3,294,225.4,318.6,256.3,318.6z M82.1,511.9  h63.8c13.9,0,21.4-7.6,21.4-20.9c0-13.6-7.6-21.2-21.4-21.2H82.6c-26.1,0-40.5-13.9-40.5-41.1V367c0-13.9-7.6-21.4-21.2-21.4  C7.3,345.6,0,353.1,0,367v63.8C0,484.9,27.5,511.9,82.1,511.9z M365.8,511.9h64.1c54.7,0,82.1-27.2,82.1-81.1V367  c0-13.9-7.6-21.4-21.2-21.4c-13.6,0-20.9,7.6-20.9,21.4v61.7c0,27.2-14.9,41.1-40.8,41.1h-63.3c-13.6,0-21.2,7.6-21.2,21.2  C344.6,504.3,352.2,511.9,365.8,511.9z"/>
</svg>