<?xml version="1.0" ?><!-- Generator: Adobe Illustrator 25.0.0, SVG Export Plug-In . SVG Version: 6.00 Build 0)  --><svg xmlns="http://www.w3.org/2000/svg" xmlns:xlink="http://www.w3.org/1999/xlink" version="1.1" id="Layer_1" x="0px" y="0px" viewBox="0 0 512 512" style="enable-background:new 0 0 512 512;" xml:space="preserve">
<path d="M65.5,488.1h381.1c21.7,0,38-5.4,49-16.2c11-10.8,16.5-26.9,16.5-48.5V205.2c0-21.4-5.5-37.5-16.5-48.3  c-11-10.8-27.3-16.2-49-16.2h-59.6c-5.6,0-10-0.4-13.3-1.3c-3.3-0.8-6.3-2.3-8.9-4.3c-2.6-2-5.5-4.8-8.7-8.2l-16.7-18.8  c-5.1-5.7-10.8-10.1-17.1-13.1c-6.3-3.1-14.7-4.6-25.4-4.6h-83.2c-10.7,0-19.1,1.5-25.3,4.6c-6.2,3.1-11.9,7.4-17.2,13.1L154.5,127  c-4.6,5.1-8.8,8.7-12.7,10.7c-3.9,2-9.9,3-18.1,3H65.5c-21.8,0-38.2,5.4-49.1,16.2C5.5,167.7,0,183.8,0,205.2v218.3  C0,445,5.5,461.2,16.4,472C27.3,482.7,43.6,488.1,65.5,488.1z M256,426.6c-15.8,0-30.6-2.9-44.4-8.8s-25.8-14-36.2-24.4  C165.1,383,156.9,371,151,357.2c-5.9-13.8-8.9-28.6-8.9-44.6c0-15.8,3-30.6,8.9-44.4c5.9-13.8,14-25.9,24.4-36.3  c10.4-10.4,22.4-18.6,36.2-24.4c13.8-5.8,28.6-8.8,44.4-8.8c21,0,40.1,5.1,57.3,15.2c17.2,10.1,30.9,23.8,41.1,41.1  c10.1,17.2,15.2,36.4,15.2,57.5c0,16-2.9,30.9-8.8,44.6c-5.8,13.8-14,25.8-24.4,36.3C326,403.9,314,412,300.2,417.9  C286.4,423.7,271.7,426.6,256,426.6z M256,394.9c15.1,0,28.9-3.7,41.4-11c12.4-7.4,22.3-17.3,29.7-29.7c7.4-12.4,11-26.3,11-41.6  c0-15.1-3.7-28.9-11-41.4c-7.4-12.4-17.3-22.4-29.7-29.8c-12.4-7.4-26.2-11.2-41.4-11.2c-15.1,0-28.9,3.7-41.4,11.2  s-22.4,17.4-29.8,29.8c-7.4,12.4-11.2,26.2-11.2,41.4c0,15.3,3.7,29.2,11.2,41.6c7.4,12.4,17.4,22.3,29.8,29.7  S240.9,394.9,256,394.9z M383.6,235.9c0-7.1,2.7-13.3,8-18.7s11.7-8,19.1-8c7.1,0,13.3,2.7,18.7,8s8,11.6,8,18.7  c0,7.5-2.7,13.8-8,19c-5.4,5.1-11.6,7.8-18.7,7.9c-7.4,0-13.7-2.6-19.1-7.8C386.3,249.7,383.6,243.4,383.6,235.9z" class="hierarchical-0:secondary SFSymbolsPreview4D4D4D" style="fill: #4D4D4D;"/>
<path d="M27.9,53.7l58.6,50.2c1.8,1.5,3.7,2.8,5.7,4c2,1.1,4.1,1.7,6.4,1.7c2.2,0,4.4-0.6,6.5-1.7c2.1-1.1,4-2.4,5.8-4l58.6-50.2  c4.3-3.6,6.5-7.7,6.6-12.2c0.1-4.5-1.3-8.4-4.1-11.8c-2.8-3.3-6.4-5.2-10.9-5.7c-4.5-0.5-9.1,1.4-13.9,5.7L98.6,74.1L50.2,29.7  c-4.9-4.3-9.5-6.2-14-5.7c-4.4,0.5-8.1,2.4-10.8,5.7c-2.8,3.3-4.1,7.3-4.1,11.8C21.4,46,23.6,50.1,27.9,53.7z" class="hierarchical-1:primary SFSymbolsPreview212121" style="fill: #212121;"/>
</svg>