<?xml version="1.0" encoding="UTF-8"?>
<!--Generator: Apple Native CoreSVG 326-->
<!DOCTYPE svg
PUBLIC "-//W3C//DTD SVG 1.1//EN"
       "http://www.w3.org/Graphics/SVG/1.1/DTD/svg11.dtd">
<svg version="1.1" xmlns="http://www.w3.org/2000/svg" xmlns:xlink="http://www.w3.org/1999/xlink" viewBox="0 0 35.0586 29.0137">
 <g>
  <rect height="29.0137" opacity="0" width="35.0586" x="0" y="0"/>
  <path d="M27.1973 5.3418L27.1973 7.26246C27.1117 7.19318 27.0193 7.10722 26.9141 7.00195L26.2891 6.34766C25.332 5.3418 24.3066 4.87305 22.8613 4.87305L18.1445 4.87305C16.8066 4.87305 15.7812 5.25391 14.7461 6.31836L14.0625 7.02148C13.6133 7.46094 13.4082 7.54883 12.9492 7.54883L11.3086 7.54883C7.91992 7.54883 5.94727 9.50195 5.94727 12.8711L5.94727 21.8457L5 21.8457C2.4707 21.8457 1.19141 20.5762 1.19141 18.0762L1.19141 5.3418C1.19141 2.85156 2.4707 1.58203 5 1.58203L23.3887 1.58203C25.918 1.58203 27.1973 2.85156 27.1973 5.3418Z" fill="black" fill-opacity="0.85"/>
  <path d="M11.3086 27.4609L29.6973 27.4609C32.2266 27.4609 33.5059 26.1914 33.5059 23.6914L33.5059 12.8711C33.5059 10.3711 32.2266 9.10156 29.6973 9.10156L27.8516 9.10156C26.8848 9.10156 26.6016 8.95508 26.0254 8.34961L25.1465 7.41211C24.4727 6.70898 23.877 6.43555 22.8613 6.43555L18.1445 6.43555C17.1289 6.43555 16.5527 6.71875 15.8691 7.41211L14.9316 8.34961C14.3555 8.91602 14.1211 9.10156 13.1543 9.10156L11.3086 9.10156C8.7793 9.10156 7.5 10.3711 7.5 12.8711L7.5 23.6914C7.5 26.1914 8.7793 27.4609 11.3086 27.4609ZM20.5176 23.8965C17.1094 23.8965 14.3652 21.1426 14.3652 17.7344C14.3652 14.3359 17.1094 11.582 20.5176 11.582C23.9062 11.582 26.6504 14.3359 26.6504 17.7344C26.6504 21.1426 23.9062 23.8965 20.5176 23.8965ZM20.5176 22.2363C22.9785 22.2363 24.9902 20.2148 24.9902 17.7344C24.9902 15.2637 22.9785 13.2422 20.5176 13.2422C18.0371 13.2422 16.0254 15.2637 16.0254 17.7344C16.0254 20.2148 18.0371 22.2363 20.5176 22.2363ZM29.1113 14.7559C28.3301 14.7559 27.6855 14.1211 27.6855 13.3398C27.6855 12.5586 28.3301 11.9043 29.1113 11.9043C29.8926 11.9043 30.5371 12.5586 30.5371 13.3398C30.5371 14.1211 29.8926 14.7559 29.1113 14.7559Z" fill="black" fill-opacity="0.85"/>
 </g>
</svg>
