<?xml version="1.0" ?><!-- Generator: Adobe Illustrator 25.0.0, SVG Export Plug-In . SVG Version: 6.00 Build 0)  --><svg xmlns="http://www.w3.org/2000/svg" xmlns:xlink="http://www.w3.org/1999/xlink" version="1.1" id="Layer_1" x="0px" y="0px" viewBox="0 0 512 512" style="enable-background:new 0 0 512 512;" xml:space="preserve">
<path d="M256,512c140,0,256-116.2,256-256C512,116,395.8,0,255.7,0C116,0,0,116,0,256C0,395.8,116.2,512,256,512z M150.6,192.5  c-5.3,9-9.8,18.6-12.8,28.6l-53.2-92.6c35.1-47.4,89.6-79.6,152.3-85.1L150.6,192.5z M257.3,132.5c-0.5,0-0.8,0-1.3,0  c-10,0-19.8,1.3-29.1,3.5l53.2-92.1c62.2,7,116,40.4,150.1,88.6H257.3z M42.9,256c0-32.4,7-62.7,19.6-90.1L145.6,310  c5.8,11.5,13.3,22.1,22.1,31.4H60.5C49.2,315.2,42.9,286.4,42.9,256z M469.3,256c0,32.1-7,62.7-19.6,90.1L366.2,201  c-5.8-11.3-13.3-21.6-21.8-30.6h107.2C463.1,196.5,469.3,225.4,469.3,256z M256,341.3c-32.6,0-61.7-19.6-76-47.2l-0.5-1  c-5.8-11.3-8.8-23.8-8.8-37.1c0-46.9,38.7-85.6,85.3-85.6c32.6,0,61.7,19.3,76,47.2l0.3,0.3c5.8,11.5,9,24.6,9,38.1  C341.3,302.4,302.7,341.3,256,341.3z M361.4,319.2c5.5-9,9.8-18.6,12.8-28.6l53.5,92.6c-35.4,47.7-90.1,79.8-152.6,85.3L361.4,319.2  z M256,379.2c10,0,19.8-1.3,29.1-3.5l-53.2,92.4c-62.5-7-116.2-40.4-150.3-89.1l173.2,0.3C255.2,379.2,255.5,379.2,256,379.2z"/>
</svg>