<?xml version="1.0" ?><!-- Generator: Adobe Illustrator 25.0.0, SVG Export Plug-In . SVG Version: 6.00 Build 0)  --><svg xmlns="http://www.w3.org/2000/svg" xmlns:xlink="http://www.w3.org/1999/xlink" version="1.1" id="Layer_1" x="0px" y="0px" viewBox="0 0 512 512" style="enable-background:new 0 0 512 512;" xml:space="preserve">
<path d="M477,241.1h35V123.4c0-44.7-22.6-67.3-68.2-67.3H270.8v35h172.6c21.5,0,33.7,11.5,33.7,34.1V241.1z M0,241.1h35V125.2  c0-22.6,11.9-34.1,33.7-34.1h172.6v-35H68.2C22.8,56.1,0,78.5,0,123.4V241.1z M251.9,300.6c10.9,0,17.4-6.9,17.4-15.4v-2.6  c0-12.2,7.2-20,22.4-30c21.1-13.9,36-26.5,36-52.5c0-36-32.1-55.6-69-55.6c-37.3,0-61.9,17.8-67.7,37.8c-1.3,3.5-2,7.2-2,10.6  c0,9.8,7.8,15,15,15c12.2,0,14.3-6.5,21.3-14.8c7.2-11.9,17.6-19.1,31.9-19.1c20,0,32.8,11.3,32.8,27.8c0,14.8-9.1,21.9-28.2,35.2  c-15.4,10.9-27.1,22.4-27.1,43.6v2.8C234.5,294.8,240.8,300.6,251.9,300.6z M68.2,455.9h173.1v-35H68.6c-21.7,0-33.7-11.5-33.7-34.1  V270.9H0v117.7C0,433.5,22.8,455.9,68.2,455.9z M270.8,455.9h173.1c45.6,0,68.2-22.6,68.2-67.3V270.9h-35v115.9  c0,22.6-12.2,34.1-33.7,34.1H270.8V455.9z M251.4,365.3c12.4,0,23.2-10,23.2-22.6c0-12.6-10.6-22.6-23.2-22.6  c-12.8,0-23.5,10.2-23.5,22.6S238.8,365.3,251.4,365.3z"/>
</svg>