<?xml version="1.0" ?><!-- Generator: Adobe Illustrator 25.0.0, SVG Export Plug-In . SVG Version: 6.00 Build 0)  --><svg xmlns="http://www.w3.org/2000/svg" xmlns:xlink="http://www.w3.org/1999/xlink" version="1.1" id="Layer_1" x="0px" y="0px" viewBox="0 0 512 512" style="enable-background:new 0 0 512 512;" xml:space="preserve">
<path d="M65.5,454.8h381.1c43.4,0,65.5-21.7,65.5-64.6V171.9c0-42.9-22.1-64.4-65.5-64.4h-59.6c-16.5,0-21.5-3.3-30.9-13.8  l-16.7-18.8c-10.4-11.5-21.1-17.7-42.5-17.7h-83.2c-21.5,0-32.1,6.3-42.5,17.7l-16.7,18.8c-9.4,10.2-14.6,13.8-30.9,13.8H65.5  C21.9,107.5,0,128.9,0,171.9v218.3C0,433.1,21.9,454.8,65.5,454.8z M256,393.3c-63.2,0-113.8-50.4-113.8-114  c0-63.4,50.7-113.8,113.8-113.8s113.6,50.4,113.6,113.8C369.6,342.8,319,393.3,256,393.3z M383.6,202.5c0-14.2,12.5-26.7,27.1-26.7  c14.4,0,26.7,12.5,26.7,26.7c0,14.8-12.3,26.7-26.7,26.9C396.1,229.4,383.6,217.5,383.6,202.5z M256,361.6  c45.4,0,82.1-36.5,82.1-82.3c0-45.7-36.7-82.3-82.1-82.3s-82.3,36.7-82.3,82.3C173.7,325.1,210.8,361.6,256,361.6z"/>
</svg>