<?xml version="1.0" encoding="UTF-8"?>
<!--Generator: Apple Native CoreSVG 326-->
<!DOCTYPE svg
PUBLIC "-//W3C//DTD SVG 1.1//EN"
       "http://www.w3.org/Graphics/SVG/1.1/DTD/svg11.dtd">
<svg version="1.1" xmlns="http://www.w3.org/2000/svg" xmlns:xlink="http://www.w3.org/1999/xlink" viewBox="0 0 26.6895 26.0645">
 <g>
  <rect height="26.0645" opacity="0" width="26.6895" x="0" y="0"/>
  <path d="M8.60352 18.3887L17.7246 18.3887C19.0527 18.3887 19.707 17.7441 19.707 16.416L19.707 13.4473L24.6582 13.4473C25.5957 13.4473 26.3281 12.8809 26.3281 12.0215C26.3281 11.4844 26.0645 11.0645 25.5566 10.625L14.6582 1.01562C14.1016 0.527344 13.6816 0.253906 13.1641 0.253906C12.6465 0.253906 12.2266 0.527344 11.6699 1.01562L0.771484 10.6348C0.244141 11.0938 0 11.4844 0 12.0215C0 12.8809 0.732422 13.4473 1.66992 13.4473L6.62109 13.4473L6.62109 16.416C6.62109 17.7441 7.27539 18.3887 8.60352 18.3887ZM8.50586 26.0645L17.8223 26.0645C19.0039 26.0645 19.707 25.3711 19.707 24.1895L19.707 22.3535C19.707 21.1816 19.0039 20.4785 17.8223 20.4785L8.50586 20.4785C7.32422 20.4785 6.62109 21.1816 6.62109 22.3535L6.62109 24.1895C6.62109 25.3711 7.32422 26.0645 8.50586 26.0645Z" fill="black" fill-opacity="0.85"/>
 </g>
</svg>
