<?xml version="1.0" ?><!-- Generator: Adobe Illustrator 25.0.0, SVG Export Plug-In . SVG Version: 6.00 Build 0)  --><svg xmlns="http://www.w3.org/2000/svg" xmlns:xlink="http://www.w3.org/1999/xlink" version="1.1" id="Layer_1" x="0px" y="0px" viewBox="0 0 512 512" style="enable-background:new 0 0 512 512;" xml:space="preserve">
<path d="M256,0c-38.3,0-71.6,7.6-100,22.7C127.6,37.8,105.6,59.2,90,87c-15.6,27.8-23.4,60.7-23.4,98.6v140.9  c0,38,7.8,70.8,23.4,98.6c15.6,27.8,37.6,49.2,66,64.2S217.7,512,256,512c38.3,0,71.6-7.5,100-22.6c28.4-15,50.4-36.5,66-64.2  c15.6-27.8,23.4-60.7,23.4-98.6V185.6c0-38-7.8-70.8-23.4-98.6c-15.6-27.8-37.6-49.2-66-64.3C327.6,7.6,294.3,0,256,0z M256,34.2  V478c-31.4,0-58.6-5.9-81.9-17.6c-23.2-11.7-41.2-28.5-54-50.2c-12.8-21.7-19.2-47.5-19.2-77.3V179.3c0-30,6.4-55.8,19.2-77.4  c12.8-21.7,30.8-38.4,54-50.1C197.4,40,224.6,34.2,256,34.2z"/>
</svg>