<?xml version="1.0" ?><!-- Generator: Adobe Illustrator 25.0.0, SVG Export Plug-In . SVG Version: 6.00 Build 0)  --><svg xmlns="http://www.w3.org/2000/svg" xmlns:xlink="http://www.w3.org/1999/xlink" version="1.1" id="Layer_1" x="0px" y="0px" viewBox="0 0 512 512" style="enable-background:new 0 0 512 512;" xml:space="preserve">
<path d="M138,497c9.1,0,15.8-4.6,26.7-14.9l83.9-76.7l157,0.2C474.8,406,512,367.4,512,299.3V121.4C512,53.3,474.8,15,405.6,15  H106.4C37.2,15,0,53.1,0,121.4v177.9c0,68.3,37.2,106.2,106.4,106.2h10.9v67.6C117.3,487.5,124.7,497,138,497z M104.8,236.6  c-7.7,0-13.9-6.3-13.9-14.2c0-7.4,6.3-13.7,13.9-13.7h98.5c7.7,0,13.9,6.3,13.9,13.7c0,7.9-6.3,14.2-13.9,14.2H104.8z M252.7,236.6  c-7.7,0-13.9-6.3-13.9-14.2c0-7.4,6.3-13.7,13.9-13.7h154.9c7.7,0,13.7,6.3,13.7,13.7c0,7.9-6,14.2-13.7,14.2H252.7z M104.8,299.1  c-7.7,0-13.9-6-13.9-13.7c0-7.9,6.3-14.2,13.9-14.2h40.7c7.7,0,13.7,6.3,13.7,14.2c0,7.7-6,13.7-13.7,13.7H104.8z M194.7,299.1  c-7.7,0-13.7-6-13.7-13.7c0-7.9,6-14.2,13.7-14.2h120.1c7.7,0,13.9,6.3,13.9,14.2c0,7.7-6.3,13.7-13.9,13.7H194.7z M364.3,299.1  c-7.7,0-13.9-6-13.9-13.7c0-7.9,6.3-14.2,13.9-14.2h43.4c7.7,0,13.7,6.3,13.7,14.2c0,7.7-6,13.7-13.7,13.7H364.3z"/>
</svg>