<?xml version="1.0" encoding="UTF-8"?>
<!--Generator: Apple Native CoreSVG 326-->
<!DOCTYPE svg
PUBLIC "-//W3C//DTD SVG 1.1//EN"
       "http://www.w3.org/Graphics/SVG/1.1/DTD/svg11.dtd">
<svg version="1.1" xmlns="http://www.w3.org/2000/svg" xmlns:xlink="http://www.w3.org/1999/xlink" viewBox="0 0 22.2754 31.7676">
 <g>
  <rect height="31.7676" opacity="0" width="22.2754" x="0" y="0"/>
  <path d="M21.0156 25.6836C21.5625 25.6836 21.9141 25.332 21.9141 24.7852L21.9141 13.9941C21.9141 13.4375 21.5625 13.0957 21.0156 13.0957C20.4688 13.0957 20.1172 13.4375 20.1172 13.9941L20.1172 24.7754C20.1172 25.332 20.4688 25.6836 21.0156 25.6836ZM21.0156 16.9531L21.0156 15.5176L16.8359 15.5176L16.8359 16.9531ZM8.76953 31.748C14.8242 31.748 17.5391 30.3613 17.5391 27.1484L17.5391 5.5957C17.5391 2.05078 14.3262 0 8.76953 0C3.21289 0 0 2.05078 0 5.5957L0 27.1484C0 30.3613 2.72461 31.748 8.76953 31.748ZM8.7793 13.125C7.51953 13.125 5.63477 13.2227 4.98047 13.2227C4.02344 13.2227 3.59375 12.8516 3.50586 11.8457L3.30078 9.53125C3.13477 7.69531 4.32617 6.91406 8.7793 6.91406C13.2227 6.91406 14.4141 7.69531 14.248 9.53125L14.0527 11.8457C13.9551 12.8516 13.5254 13.2227 12.5684 13.2227C11.9141 13.2227 9.90234 13.125 8.7793 13.125ZM8.7793 26.875C4.43359 26.875 3.125 26.2305 3.37891 24.3555L3.52539 23.2031C3.7207 21.6895 4.99023 21.1719 8.7793 21.1719C12.5586 21.1719 13.8281 21.6895 14.0234 23.2031L14.1699 24.3555C14.4238 26.2305 13.1152 26.875 8.7793 26.875Z" fill="black" fill-opacity="0.85"/>
 </g>
</svg>
