<?xml version="1.0" encoding="UTF-8"?>
<!--Generator: Apple Native CoreSVG 326-->
<!DOCTYPE svg
PUBLIC "-//W3C//DTD SVG 1.1//EN"
       "http://www.w3.org/Graphics/SVG/1.1/DTD/svg11.dtd">
<svg version="1.1" xmlns="http://www.w3.org/2000/svg" xmlns:xlink="http://www.w3.org/1999/xlink" viewBox="0 0 31.7825 32.2363">
 <g>
  <rect height="32.2363" opacity="0" width="31.7825" x="0" y="0"/>
  <path d="M3.07876 29.1406C4.99282 31.0645 7.45376 32.2266 10.11 32.2266C10.6666 32.2266 11.0377 31.8652 11.0377 31.3672C11.028 30.9082 10.6666 30.5957 10.0514 30.5566C7.91274 30.459 5.84243 29.5898 4.2311 27.9883C2.62954 26.377 1.7604 24.3164 1.66274 22.168C1.61391 21.4844 1.32094 21.2109 0.793601 21.2109C0.373679 21.2012-0.0364776 21.5137 0.00258488 22.0996C0.129538 24.7656 1.16469 27.2266 3.07876 29.1406ZM28.3424 29.1406C30.2663 27.2266 31.2916 24.7656 31.4186 22.0996C31.4577 21.5137 31.0475 21.2012 30.6276 21.2109C30.11 21.2109 29.8073 21.4844 29.7584 22.168C29.6608 24.3164 28.8014 26.377 27.1901 27.9883C25.5788 29.5898 23.5182 30.459 21.3698 30.5566C20.7545 30.5957 20.3932 30.9082 20.3932 31.3672C20.3932 31.8652 20.7643 32.2266 21.3209 32.2266C23.9772 32.2266 26.4284 31.0645 28.3424 29.1406Z" fill="black" fill-opacity="0.85"/>
  <path d="M6.17446 26.0449C7.41469 27.2852 9.09438 27.9199 10.2663 27.9199C10.7741 27.9199 11.1256 27.5879 11.1159 27.1289C11.1159 26.6699 10.8131 26.3477 10.1393 26.2598C9.12368 26.1816 8.15688 25.7227 7.3268 24.9023C6.50649 24.0723 6.05727 23.0957 5.94985 21.9922C5.86196 21.3867 5.63735 21.123 5.10024 21.123C4.62173 21.1133 4.25063 21.4844 4.31899 22.0703C4.44594 23.584 5.08071 24.9609 6.17446 26.0449ZM25.2467 26.0449C26.3502 24.9609 26.985 23.584 27.112 22.0703C27.1803 21.4844 26.7995 21.1133 26.3307 21.123C25.7838 21.123 25.5592 21.3867 25.4713 21.9922C25.3639 23.0957 24.9147 24.0723 24.1041 24.9023C23.2643 25.7227 22.2975 26.1816 21.2819 26.2598C20.6178 26.3477 20.3053 26.6699 20.3053 27.1289C20.3053 27.5879 20.6569 27.9199 21.1647 27.9199C22.3268 27.9199 24.0065 27.2852 25.2467 26.0449Z" fill="black" fill-opacity="0.85"/>
  <path d="M15.7155 24.5703C20.3834 24.5703 22.5807 23.4766 22.5807 20.7812L22.5807 4.42383C22.5807 1.63086 20.0026 0 15.7155 0C11.4186 0 8.85024 1.63086 8.85024 4.42383L8.85024 20.7812C8.85024 23.4766 11.0377 24.5703 15.7155 24.5703ZM15.7057 10.2734C14.8366 10.2734 13.3034 10.3613 12.8053 10.3613C12.0338 10.3613 11.6725 10.0391 11.6041 9.20898L11.4381 7.46094C11.3209 5.97656 12.2194 5.38086 15.7057 5.38086C19.2018 5.38086 20.1002 5.97656 19.9831 7.46094L19.8366 9.20898C19.7487 10.0391 19.3971 10.3613 18.6159 10.3613C18.1178 10.3613 16.6823 10.2734 15.7057 10.2734ZM15.7057 20.791C12.3366 20.791 11.2916 20.293 11.4967 18.7695L11.6237 17.8906C11.7995 16.6699 12.7565 16.2793 15.7057 16.2793C18.6647 16.2793 19.6217 16.6699 19.8073 17.8906L19.9245 18.7695C20.1491 20.293 19.0846 20.791 15.7057 20.791ZM9.77798 9.61914L9.77798 7.19727L8.31313 7.19727C7.72719 7.19727 7.28774 7.61719 7.28774 8.16406L7.28774 8.66211C7.28774 9.19922 7.72719 9.61914 8.31313 9.61914ZM21.6432 9.61914L23.1081 9.61914C23.694 9.61914 24.1334 9.19922 24.1334 8.66211L24.1334 8.16406C24.1334 7.61719 23.694 7.19727 23.1081 7.19727L21.6432 7.19727Z" fill="black" fill-opacity="0.85"/>
 </g>
</svg>
