<?xml version="1.0" encoding="UTF-8"?>
<!--Generator: Apple Native CoreSVG 326-->
<!DOCTYPE svg
PUBLIC "-//W3C//DTD SVG 1.1//EN"
       "http://www.w3.org/Graphics/SVG/1.1/DTD/svg11.dtd">
<svg version="1.1" xmlns="http://www.w3.org/2000/svg" xmlns:xlink="http://www.w3.org/1999/xlink" viewBox="0 0 22.2754 31.7676">
 <g>
  <rect height="31.7676" opacity="0" width="22.2754" x="0" y="0"/>
  <path d="M21.0156 25.6836C21.5625 25.6836 21.9141 25.332 21.9141 24.7852L21.9141 13.9941C21.9141 13.4375 21.5625 13.0957 21.0156 13.0957C20.4688 13.0957 20.1172 13.4375 20.1172 13.9941L20.1172 24.7754C20.1172 25.332 20.4688 25.6836 21.0156 25.6836ZM21.0156 16.9531L21.0156 15.5176L16.8359 15.5176L16.8359 16.9531ZM8.76953 31.748C14.8242 31.748 17.5391 30.3613 17.5391 27.1484L17.5391 5.5957C17.5391 2.05078 14.3262 0 8.76953 0C3.21289 0 0 2.05078 0 5.5957L0 27.1484C0 30.3613 2.72461 31.748 8.76953 31.748ZM8.76953 29.9707C3.97461 29.9707 1.78711 29.082 1.78711 27.0703L1.78711 5.5957C1.78711 3.18359 4.3457 1.78711 8.76953 1.78711C13.2031 1.78711 15.752 3.18359 15.752 5.5957L15.752 27.0703C15.752 29.082 13.5645 29.9707 8.76953 29.9707ZM8.7793 13.2227C9.87305 13.2227 11.8457 13.3105 12.4805 13.3105C13.418 13.3105 13.8379 12.9492 13.916 11.9629L14.1211 9.70703C14.2773 7.91992 13.125 7.1582 8.7793 7.1582C4.42383 7.1582 3.27148 7.91992 3.42773 9.70703L3.63281 11.9629C3.71094 12.9492 4.13086 13.3105 5.06836 13.3105C5.70312 13.3105 7.54883 13.2227 8.7793 13.2227ZM8.7793 26.6211C13.0078 26.6211 14.2871 26.0059 14.043 24.1797L13.8965 23.0469C13.7109 21.5723 12.4707 21.0742 8.7793 21.0742C5.07812 21.0742 3.83789 21.5723 3.65234 23.0469L3.50586 24.1797C3.26172 26.0059 4.54102 26.6211 8.7793 26.6211Z" fill="black" fill-opacity="0.85"/>
 </g>
</svg>
