<?xml version="1.0" encoding="UTF-8"?>
<!--Generator: Apple Native CoreSVG 326-->
<!DOCTYPE svg
PUBLIC "-//W3C//DTD SVG 1.1//EN"
       "http://www.w3.org/Graphics/SVG/1.1/DTD/svg11.dtd">
<svg version="1.1" xmlns="http://www.w3.org/2000/svg" xmlns:xlink="http://www.w3.org/1999/xlink" viewBox="0 0 35.3027 31.7676">
 <g>
  <rect height="31.7676" opacity="0" width="35.3027" x="0" y="0"/>
  <path d="M17.4609 31.748C23.5156 31.748 26.2305 30.3613 26.2305 27.1484L26.2305 5.5957C26.2305 2.05078 23.0176 0 17.4609 0C11.9043 0 8.69141 2.05078 8.69141 5.5957L8.69141 27.1484C8.69141 30.3613 11.416 31.748 17.4609 31.748ZM17.4707 13.125C16.2109 13.125 14.3262 13.2227 13.6719 13.2227C12.7148 13.2227 12.2852 12.8516 12.1973 11.8457L11.9922 9.53125C11.8262 7.69531 13.0176 6.91406 17.4707 6.91406C21.9141 6.91406 23.1055 7.69531 22.9395 9.53125L22.7441 11.8457C22.6465 12.8516 22.2168 13.2227 21.2598 13.2227C20.6055 13.2227 18.5938 13.125 17.4707 13.125ZM17.4707 26.875C13.125 26.875 11.8164 26.2305 12.0703 24.3555L12.2168 23.2031C12.4121 21.6895 13.6816 21.1719 17.4707 21.1719C21.25 21.1719 22.5195 21.6895 22.7148 23.2031L22.8613 24.3555C23.1152 26.2305 21.8066 26.875 17.4707 26.875ZM9.45312 12.1875L9.45312 9.44336L7.73438 9.44336C7.09961 9.44336 6.63086 9.89258 6.63086 10.498L6.63086 11.1328C6.63086 11.7285 7.09961 12.1875 7.73438 12.1875ZM25.4785 12.1875L27.1973 12.1875C27.832 12.1875 28.3008 11.7285 28.3008 11.1328L28.3008 10.498C28.3008 9.89258 27.832 9.44336 27.1973 9.44336L25.4785 9.44336Z" fill="black" fill-opacity="0.85"/>
  <path d="M0 24.668C0 25.293 0.517578 25.5371 1.04492 25.2148L5.52734 22.4902C6.05469 22.168 6.04492 21.543 5.52734 21.2305L1.03516 18.4766C0.507812 18.1543 0 18.4277 0 19.043Z" fill="black" fill-opacity="0.85"/>
 </g>
</svg>
