<?xml version="1.0" encoding="UTF-8"?>
<!--Generator: Apple Native CoreSVG 326-->
<!DOCTYPE svg
PUBLIC "-//W3C//DTD SVG 1.1//EN"
       "http://www.w3.org/Graphics/SVG/1.1/DTD/svg11.dtd">
<svg version="1.1" xmlns="http://www.w3.org/2000/svg" xmlns:xlink="http://www.w3.org/1999/xlink" viewBox="0 0 46.9336 34.8535">
 <g>
  <rect height="34.8535" opacity="0" width="46.9336" x="0" y="0"/>
  <path d="M4.63867 28.7012C4.9707 28.3203 4.86328 27.8125 4.48242 27.373C2.74414 25.4883 1.74805 22.998 1.74805 20.2344C1.74805 17.4805 2.74414 14.9902 4.48242 13.0957C4.86328 12.6562 4.9707 12.1582 4.63867 11.7676C4.28711 11.3672 3.69141 11.377 3.28125 11.8262C1.19141 14.043 0 17.0117 0 20.2344C0 23.457 1.19141 26.4258 3.28125 28.6426C3.69141 29.1016 4.28711 29.1016 4.63867 28.7012ZM41.9434 28.7012C42.2852 29.1016 42.8906 29.1016 43.3008 28.6426C45.3809 26.4258 46.5723 23.457 46.5723 20.2344C46.5723 17.0117 45.3809 14.043 43.3008 11.8262C42.8906 11.377 42.2852 11.3672 41.9434 11.7676C41.6016 12.1582 41.709 12.6562 42.0898 13.0957C43.8379 14.9902 44.8242 17.4805 44.8242 20.2344C44.8242 22.998 43.8379 25.4883 42.0898 27.373C41.709 27.8125 41.6016 28.3203 41.9434 28.7012ZM23.252 1.75781C26.0156 1.75781 28.5059 2.74414 30.3906 4.48242C30.8301 4.87305 31.3379 4.98047 31.7188 4.63867C32.1191 4.29688 32.1191 3.69141 31.6699 3.28125C29.4531 1.20117 26.4844 0 23.252 0C20.0293 0 17.0605 1.20117 14.834 3.28125C14.3848 3.69141 14.3848 4.29688 14.7852 4.63867C15.1758 4.98047 15.6836 4.87305 16.1133 4.48242C18.0078 2.74414 20.498 1.75781 23.252 1.75781Z" fill="black" fill-opacity="0.85"/>
  <path d="M8.125 25.1465C8.4668 24.7656 8.32031 24.2773 7.97852 23.8184C7.14844 22.8809 6.74805 21.6016 6.74805 20.2344C6.74805 18.8672 7.14844 17.5977 7.97852 16.6504C8.32031 16.1914 8.4668 15.7129 8.125 15.3223C7.76367 14.9219 7.12891 14.9219 6.74805 15.4004C5.63477 16.7188 5 18.4082 5 20.2344C5 22.0605 5.63477 23.7598 6.74805 25.0684C7.12891 25.5566 7.76367 25.5469 8.125 25.1465ZM38.457 25.1465C38.8086 25.5469 39.4531 25.5566 39.834 25.0684C40.9375 23.7598 41.582 22.0605 41.582 20.2344C41.582 18.4082 40.9375 16.7188 39.834 15.4004C39.4531 14.9219 38.8086 14.9219 38.457 15.3223C38.1152 15.7129 38.252 16.1914 38.5938 16.6504C39.4238 17.5977 39.834 18.8672 39.834 20.2344C39.834 21.6016 39.4238 22.8809 38.5938 23.8184C38.252 24.2773 38.1152 24.7656 38.457 25.1465ZM23.291 6.74805C24.6582 6.74805 25.9277 7.1582 26.875 7.97852C27.334 8.33008 27.8223 8.4668 28.2031 8.125C28.6035 7.77344 28.6133 7.12891 28.1348 6.74805C26.8164 5.63477 25.1172 5 23.291 5C21.4648 5 19.7656 5.63477 18.4473 6.74805C17.9688 7.12891 17.9785 7.77344 18.3789 8.125C18.7695 8.4668 19.248 8.32031 19.707 7.97852C20.7031 7.20703 21.9238 6.74805 23.291 6.74805Z" fill="black" fill-opacity="0.85"/>
  <path d="M23.3398 26.8652C25.8789 26.8652 29.1211 26.7773 31.416 26.6309L31.416 28.3594C31.416 29.1113 32.002 29.6973 32.7539 29.6973L34.1211 29.6973C34.873 29.6973 35.4688 29.1113 35.4688 28.3594L35.4688 22.4902C35.4688 20.7227 35.0977 19.7754 34.1797 18.5938L33.291 17.4609C32.9199 15.6055 32.2363 13.6523 31.8848 12.9004C31.3281 11.7383 30.2734 11.0742 28.9551 10.9082C28.2715 10.8203 25.918 10.7617 23.3398 10.7617C20.752 10.7617 18.3984 10.8203 17.7148 10.9082C16.3965 11.0742 15.3418 11.7383 14.7852 12.9004C14.4336 13.6523 13.75 15.6055 13.3789 17.4609L12.4902 18.5938C11.5723 19.7754 11.2012 20.7227 11.2012 22.4902L11.2012 28.3594C11.2012 29.1113 11.7969 29.6973 12.5488 29.6973L13.916 29.6973C14.668 29.6973 15.2539 29.1113 15.2539 28.3594L15.2539 26.6309C17.5488 26.7773 20.791 26.8652 23.3398 26.8652ZM15.4004 16.6309C15.6543 15.4199 16.1523 14.0039 16.4844 13.4082C16.7773 12.9102 17.1191 12.6562 17.7344 12.5684C18.5352 12.4609 20.3027 12.4023 23.3398 12.4023C26.3672 12.4023 28.1348 12.4414 28.9355 12.5684C29.5508 12.6562 29.8828 12.9102 30.1855 13.4082C30.5273 13.9941 30.9863 15.4199 31.2695 16.6309C31.3574 16.9824 31.2207 17.1484 30.8301 17.1191C29.082 17.002 27.0801 16.9043 23.3398 16.9043C19.5898 16.9043 17.5879 17.002 15.8398 17.1191C15.4492 17.1484 15.3223 16.9824 15.4004 16.6309ZM15.9082 24.0723C15.0098 24.0723 14.3262 23.3887 14.3262 22.4902C14.3262 21.5918 15.0098 20.9277 15.9082 20.9277C16.8066 20.9277 17.4707 21.5918 17.4707 22.4902C17.4707 23.3887 16.8066 24.0723 15.9082 24.0723ZM20.6641 23.7207C19.9902 23.7207 19.5215 23.2715 19.5215 22.5977C19.5215 21.9238 19.9902 21.4746 20.6641 21.4746L26.0059 21.4746C26.6797 21.4746 27.1484 21.9238 27.1484 22.5977C27.1484 23.2715 26.6797 23.7207 26.0059 23.7207ZM30.7617 24.0723C29.8633 24.0723 29.1992 23.3887 29.1992 22.4902C29.1992 21.5918 29.8633 20.9277 30.7617 20.9277C31.6602 20.9277 32.3438 21.5918 32.3438 22.4902C32.3438 23.3887 31.6602 24.0723 30.7617 24.0723Z" fill="black" fill-opacity="0.85"/>
 </g>
</svg>
