<?xml version="1.0" ?><!-- Generator: Adobe Illustrator 25.0.0, SVG Export Plug-In . SVG Version: 6.00 Build 0)  --><svg xmlns="http://www.w3.org/2000/svg" xmlns:xlink="http://www.w3.org/1999/xlink" version="1.1" id="Layer_1" x="0px" y="0px" viewBox="0 0 512 512" style="enable-background:new 0 0 512 512;" xml:space="preserve">
<path d="M42.4,512h1.1c13.6,0,25.1-1.5,34.3-4.5c9.2-3,17-6.6,23.4-11c6.4-4.4,12.1-8.7,17.2-13.2c5.1-4.4,10.3-8.1,15.6-11.1  c5.3-3,11.5-4.5,18.6-4.5c6.8,0,12.9,1.5,18.3,4.5c5.4,3,10.7,6.7,15.9,11.1c5.2,4.4,10.9,8.8,17.1,13.2c6.2,4.4,13.4,8,21.8,11  c8.3,3,18.5,4.5,30.4,4.5c11.8,0,21.9-1.5,30.3-4.5c8.4-3,15.7-6.6,21.8-11c6.1-4.4,11.8-8.7,17-13.2c5.2-4.4,10.5-8.1,15.9-11.1  c5.4-3,11.5-4.5,18.3-4.5c7.1,0,13.3,1.5,18.6,4.5c5.3,3,10.5,6.7,15.6,11.1c5.1,4.4,10.9,8.8,17.3,13.2c6.5,4.4,14.3,8,23.4,11  c9.1,3,20.5,4.5,34.2,4.5h1.1c4.2,0,7.8-1.5,10.8-4.5c3-3,4.5-6.6,4.5-10.8c0-4.2-1.5-7.8-4.5-10.9c-3-3-6.6-4.6-10.8-4.6h-1.1  c-11.8,0-21.5-2.1-29.2-6.3c-7.7-4.2-15.7-9.2-24-15c-7-5.1-15-10.2-24.1-15.2c-9.1-5.1-19.7-7.6-31.9-7.6  c-12.3,0-23.2,2.7-32.4,8.1s-17.4,10.7-24.4,15.9c-7.5,5.8-14.7,10.6-21.6,14.5c-6.8,3.8-15.1,5.8-24.8,5.8c-9.9,0-18.2-1.9-25-5.8  c-6.8-3.8-13.9-8.7-21.3-14.5c-7.1-5.2-15.3-10.5-24.5-15.9c-9.2-5.4-20.1-8.1-32.6-8.1c-12.1,0-22.6,2.5-31.7,7.6  c-9.1,5.1-17.2,10.2-24.3,15.2c-8.3,5.8-16.3,10.8-24,15s-17.4,6.3-29.2,6.3h-1.1c-4.2,0-7.8,1.5-10.8,4.6c-3,3-4.5,6.7-4.5,10.9  c0,4.2,1.5,7.8,4.5,10.8C34.6,510.5,38.2,512,42.4,512z M23.7,378.1l47.7,63.4c1.2-0.7,2.4-1.6,3.7-2.5c1.3-0.9,2.7-1.9,4.1-2.9  c12.5-9,24.4-16,35.8-21c11.4-5,23.9-7.5,37.6-7.5c14.1,0,26.9,2.6,38.4,7.8c11.5,5.2,23.7,12.6,36.5,22c7.7,6,13.2,9.8,16.7,11.7  c3.4,1.8,7.4,2.7,11.9,2.7c4.1,0,7.7-0.8,11-2.5c3.3-1.7,8.2-4.9,14.7-9.7c13.4-10.3,26-18.2,38-23.7s25.2-8.3,39.5-8.3  c13.6,0,26.2,2.5,37.7,7.5c11.5,5,23.4,12,35.7,21c1.5,1,2.8,2,4.1,2.9c1.3,0.9,2.6,1.8,3.9,2.5l47.5-63.4c6.7-8.7,9.9-17.4,9.7-26  c-0.2-8.6-3.5-15.8-9.8-21.6c-6.3-5.7-15.2-8.6-26.7-8.6h-411c-11.5,0-20.3,2.9-26.6,8.6c-6.2,5.7-9.5,12.9-9.8,21.6  C13.8,360.7,17,369.4,23.7,378.1z M133.2,91c1.9-8.9,4.5-18.2,7.8-28s6.3-17,8.9-21.7c2.2-3.6,4.6-6.4,7.3-8.3  c2.7-1.9,6.2-3.1,10.6-3.7c6-0.7,16-1.3,30.2-1.9c14.2-0.5,33.5-0.8,58-0.8c24.5,0,43.9,0.2,58,0.7c14.2,0.4,24.2,1.1,30.2,2  c4.4,0.7,7.8,2,10.5,3.8c2.6,1.8,5.1,4.5,7.4,8.2c2.6,4.6,5.5,11.9,8.7,21.7c3.2,9.8,5.9,19.1,8.1,28c0.7,2.9,0.5,5-0.8,6.2  c-1.2,1.2-3.4,1.7-6.4,1.4c-8.9-0.6-18.5-1.1-29.1-1.6c-10.5-0.5-22.8-0.9-36.8-1.2c-14-0.3-30.6-0.4-49.8-0.4  c-19.2,0-35.8,0.1-49.8,0.4c-14,0.3-26.3,0.7-36.8,1.2c-10.5,0.5-20.2,1.1-29.1,1.6c-3,0.3-5.2-0.2-6.3-1.4  C132.9,96,132.6,93.9,133.2,91z M141.1,208.4c-7.3,0-13.3-2.4-18.2-7.3c-4.9-4.9-7.3-10.9-7.3-18.2c0-7.3,2.4-13.3,7.3-18.2  c4.9-4.9,10.9-7.3,18.2-7.3c7.3,0,13.4,2.4,18.3,7.3c4.9,4.9,7.4,10.9,7.4,18.2c0,7.3-2.5,13.3-7.4,18.2  C154.4,206,148.3,208.4,141.1,208.4z M214,202.1c-5.5,0-10-1.7-13.4-5.1c-3.4-3.4-5.1-7.8-5.1-13.2c0-5.4,1.7-9.8,5.1-13.2  c3.4-3.4,7.9-5.1,13.4-5.1h84.1c5.5,0,10,1.7,13.4,5.1c3.4,3.4,5.1,7.8,5.1,13.2c0,5.4-1.7,9.8-5.1,13.2s-7.9,5.1-13.4,5.1H214z   M371,208.4c-7.3,0-13.4-2.4-18.3-7.3c-4.9-4.9-7.4-10.9-7.4-18.2c0-7.3,2.5-13.3,7.4-18.2c4.9-4.9,11-7.3,18.3-7.3  s13.3,2.4,18.2,7.3c4.9,4.9,7.3,10.9,7.3,18.2c0,7.3-2.4,13.3-7.3,18.2C384.4,206,378.3,208.4,371,208.4z M256.1,251.5  c13.4,0,27.5-0.2,42.4-0.5c14.9-0.4,29.5-0.8,43.8-1.3c14.3-0.5,27.4-1.2,39.4-2c12-0.8,21.7-1.6,29.3-2.3  c10.7-1.3,19-4.9,24.8-10.8c5.8-5.9,8.7-13.9,8.7-24.1v-28.1c0-13.4-1.5-24.5-4.6-33.3c-3-8.9-8.3-18.1-15.7-27.7l-13.3-17.2  c-3.1-14.4-6.8-28.3-11.2-41.7c-4.4-13.4-8-23-10.8-28.9c-4.2-9-10.3-16.2-18.3-21.5c-8-5.3-17.3-8.7-27.9-10.1  c-3.5-0.4-9.5-0.8-18-1.2c-8.5-0.4-18.7-0.6-30.5-0.8C282.4,0.1,269.7,0,256.1,0c-13.6,0-26.4,0.1-38.2,0.3  c-11.8,0.2-22,0.5-30.5,0.8c-8.5,0.3-14.5,0.7-18,1.1c-10.6,1.3-19.9,4.6-27.9,10c-8,5.4-14.1,12.6-18.3,21.6  c-2.8,5.8-6.4,15.4-10.8,28.9c-4.4,13.4-8.2,27.3-11.2,41.7l-13.3,17.2c-7.4,9.6-12.6,18.8-15.7,27.7s-4.6,20-4.6,33.3v28.1  c0,10.2,2.9,18.2,8.7,24.1c5.8,5.9,14.1,9.5,24.8,10.8c7.5,0.7,17.3,1.5,29.3,2.3c12,0.8,25.1,1.5,39.4,2  c14.3,0.5,28.9,0.9,43.8,1.3C228.6,251.4,242.7,251.5,256.1,251.5z M88.8,295.3h18.7c6,0,11-2,15-6.1c4.1-4.1,6.1-9,6.1-14.8v-39.6  l-61-29.2v68.8c0,5.8,2,10.7,6.1,14.8C77.8,293.3,82.9,295.3,88.8,295.3z M404.6,295.3h18.7c6,0,11-2,15-6.1c4.1-4.1,6.1-9,6.1-14.8  v-68.8l-61,29.2v39.6c0,5.8,2,10.7,6.1,14.8C393.6,293.3,398.6,295.3,404.6,295.3z"/>
</svg>