<?xml version="1.0" encoding="UTF-8"?>
<!--Generator: Apple Native CoreSVG 326-->
<!DOCTYPE svg
PUBLIC "-//W3C//DTD SVG 1.1//EN"
       "http://www.w3.org/Graphics/SVG/1.1/DTD/svg11.dtd">
<svg version="1.1" xmlns="http://www.w3.org/2000/svg" xmlns:xlink="http://www.w3.org/1999/xlink" viewBox="0 0 29.2969 33.1348">
 <g>
  <rect height="33.1348" opacity="0" width="29.2969" x="0" y="0"/>
  <path d="M17.0508 33.1348L27.7246 33.1348L27.7246 26.6797C27.7246 24.4922 25.7129 23.2227 22.3926 23.2227C19.0527 23.2227 17.0508 24.4922 17.0508 26.6797ZM22.3926 31.2305C21.6309 31.2305 20.5273 31.2988 20.1465 31.2988C19.5215 31.2988 19.2285 31.0352 19.1797 30.3809L19.0625 29.0234C18.9648 27.8711 19.668 27.3828 22.3926 27.3828C25.1074 27.3828 25.8105 27.8711 25.7129 29.0234L25.5957 30.3809C25.5371 31.0352 25.2539 31.2988 24.6387 31.2988C24.2578 31.2988 23.0566 31.2305 22.3926 31.2305ZM17.832 30.7227L17.832 28.7891L16.6699 28.7891C16.1914 28.7891 15.8496 29.1406 15.8496 29.5703L15.8496 29.9512C15.8496 30.3809 16.1914 30.7227 16.6699 30.7227ZM26.9531 30.7227L28.1152 30.7227C28.5742 30.7227 28.9355 30.3809 28.9355 29.9512L28.9355 29.5703C28.9355 29.1309 28.5742 28.7891 28.1152 28.7891L26.9531 28.7891Z" fill="black" fill-opacity="0.85"/>
  <path d="M16.3184 22.6074C17.8125 21.123 18.6035 19.2188 18.7012 17.1484C18.7305 16.6699 18.4082 16.416 18.0664 16.416C17.6465 16.416 17.4121 16.6504 17.373 17.1875C17.2949 18.8477 16.6309 20.4297 15.3906 21.6797C14.1406 22.9102 12.5586 23.5742 10.9082 23.6426C10.4102 23.6914 10.127 23.9453 10.127 24.3066C10.127 24.7168 10.4102 25 10.8691 25C12.9199 25 14.834 24.1016 16.3184 22.6074Z" fill="black" fill-opacity="0.85"/>
  <path d="M13.9258 20.2051C14.7852 19.3652 15.2832 18.291 15.3809 17.1191C15.4297 16.6406 15.1172 16.3379 14.7461 16.3574C14.3066 16.3477 14.1211 16.582 14.0527 17.0508C13.9648 17.9004 13.623 18.6426 12.998 19.2871C12.3535 19.9219 11.6211 20.2637 10.8398 20.332C10.3125 20.3906 10.0586 20.6543 10.0586 21.0254C10.0488 21.3965 10.3223 21.6699 10.7422 21.6699C11.6504 21.6699 12.959 21.1816 13.9258 20.2051Z" fill="black" fill-opacity="0.85"/>
  <path d="M6.5332 19.082C10.166 19.082 11.875 18.2227 11.875 16.123L11.875 3.4668C11.875 1.2793 9.86328 0 6.5332 0C3.20312 0 1.20117 1.2793 1.20117 3.4668L1.20117 16.123C1.20117 18.2227 2.90039 19.082 6.5332 19.082ZM6.5332 8.00781C5.78125 8.00781 4.67773 8.07617 4.28711 8.07617C3.68164 8.07617 3.38867 7.82227 3.33008 7.1582L3.21289 5.81055C3.10547 4.6582 3.81836 4.16992 6.5332 4.16992C9.25781 4.16992 9.9707 4.6582 9.86328 5.81055L9.75586 7.1582C9.69727 7.82227 9.4043 8.07617 8.78906 8.07617C8.4082 8.07617 7.20703 8.00781 6.5332 8.00781ZM6.5332 16.1523C3.90625 16.1523 3.06641 15.7617 3.25195 14.5703L3.34961 13.877C3.48633 12.9102 4.23828 12.5977 6.5332 12.5977C8.82812 12.5977 9.60938 12.9102 9.73633 13.877L9.82422 14.5703C9.9707 15.7715 9.16016 16.1523 6.5332 16.1523ZM1.98242 7.50977L1.98242 5.56641L0.820312 5.56641C0.341797 5.56641 0 5.91797 0 6.35742L0 6.73828C0 7.16797 0.341797 7.50977 0.820312 7.50977ZM11.0938 7.50977L12.2656 7.50977C12.7246 7.50977 13.0859 7.16797 13.0859 6.73828L13.0859 6.35742C13.0859 5.91797 12.7246 5.56641 12.2656 5.56641L11.0938 5.56641Z" fill="black" fill-opacity="0.85"/>
 </g>
</svg>
