<?xml version="1.0" encoding="UTF-8"?>
<!--Generator: Apple Native CoreSVG 326-->
<!DOCTYPE svg
PUBLIC "-//W3C//DTD SVG 1.1//EN"
       "http://www.w3.org/Graphics/SVG/1.1/DTD/svg11.dtd">
<svg version="1.1" xmlns="http://www.w3.org/2000/svg" xmlns:xlink="http://www.w3.org/1999/xlink" viewBox="0 0 44.7461 20.0293">
 <g>
  <rect height="20.0293" opacity="0" width="44.7461" x="0" y="0"/>
  <path d="M0.810547 1.63086L4.87305 1.63086C5.39062 1.63086 5.73242 1.74805 6.04492 2.06055L10.4688 6.48438L11.9531 5.66406L7.31445 1.02539C6.65039 0.351562 5.79102 0.0683594 4.69727 0.0683594L0.810547 0.0683594C0.3125 0.0683594 0 0.380859 0 0.839844C0 1.30859 0.3125 1.63086 0.810547 1.63086ZM3.83789 17.3047L4.6582 17.3047C4.58008 16.9238 4.53125 16.543 4.53125 16.1426C4.53125 13.2812 6.78711 11.0254 9.66797 11.0254C12.5391 11.0254 14.7949 13.2812 14.7949 16.1426C14.7949 16.543 14.7461 16.9238 14.6582 17.3047L29.7168 17.3047C29.6387 16.9238 29.5898 16.543 29.5898 16.1426C29.5898 13.2812 31.8457 11.0254 34.7168 11.0254C37.5879 11.0254 39.8535 13.2812 39.8535 16.1426C39.8535 16.543 39.8047 16.9238 39.7168 17.3047L40.5371 17.3047C43.1738 17.3047 44.3848 16.0254 44.3848 13.2422L44.3848 9.75586C44.3848 7.49023 43.3105 6.11328 40.9668 5.3418L38.9551 4.66797C36.25 2.42188 32.9297 0 28.2227 0L26.4062 0C21.3672 0 19.1602 0.517578 16.1328 2.42188L11.0254 5.61523L5.38086 6.30859C2.03125 6.72852 0 8.78906 0 11.6602L0 13.3008C0 16.0449 1.23047 17.3047 3.83789 17.3047ZM9.66797 19.9121C11.7773 19.9121 13.4277 18.252 13.4277 16.1426C13.4277 14.0332 11.7773 12.3828 9.66797 12.3828C7.54883 12.3828 5.89844 14.0332 5.89844 16.1426C5.89844 18.252 7.54883 19.9121 9.66797 19.9121ZM34.7168 19.9121C36.8359 19.9121 38.4863 18.252 38.4863 16.1426C38.4863 14.0332 36.8359 12.3828 34.7168 12.3828C32.6074 12.3828 30.9473 14.0332 30.9473 16.1426C30.9473 18.252 32.6074 19.9121 34.7168 19.9121Z" fill="black" fill-opacity="0.85"/>
 </g>
</svg>
