<?xml version="1.0" encoding="UTF-8"?>
<!--Generator: Apple Native CoreSVG 326-->
<!DOCTYPE svg
PUBLIC "-//W3C//DTD SVG 1.1//EN"
       "http://www.w3.org/Graphics/SVG/1.1/DTD/svg11.dtd">
<svg version="1.1" xmlns="http://www.w3.org/2000/svg" xmlns:xlink="http://www.w3.org/1999/xlink" viewBox="0 0 44.7461 36.6309">
 <g>
  <rect height="36.6309" opacity="0" width="44.7461" x="0" y="0"/>
  <path d="M13.4277 24.4434C13.4277 26.5527 11.7773 28.2129 9.66797 28.2129C7.54883 28.2129 5.89844 26.5527 5.89844 24.4434C5.89844 22.334 7.54883 20.6836 9.66797 20.6836C11.7773 20.6836 13.4277 22.334 13.4277 24.4434ZM38.4863 24.4434C38.4863 26.5527 36.8359 28.2129 34.7168 28.2129C32.6074 28.2129 30.9473 26.5527 30.9473 24.4434C30.9473 22.334 32.6074 20.6836 34.7168 20.6836C36.8359 20.6836 38.4863 22.334 38.4863 24.4434ZM38.9551 12.9688L40.9668 13.6426C43.3105 14.4141 44.3848 15.791 44.3848 18.0566L44.3848 21.543C44.3848 24.3262 43.1738 25.6055 40.5371 25.6055L39.7168 25.6055C39.8047 25.2246 39.8535 24.8438 39.8535 24.4434C39.8535 21.582 37.5879 19.3262 34.7168 19.3262C31.8457 19.3262 29.5898 21.582 29.5898 24.4434C29.5898 24.8438 29.6387 25.2246 29.7168 25.6055L14.6582 25.6055C14.7461 25.2246 14.7949 24.8438 14.7949 24.4434C14.7949 21.582 12.5391 19.3262 9.66797 19.3262C6.78711 19.3262 4.53125 21.582 4.53125 24.4434C4.53125 24.8438 4.58008 25.2246 4.6582 25.6055L3.83789 25.6055C1.23047 25.6055 0 24.3457 0 21.6016L0 19.9609C0 17.0898 2.03125 15.0293 5.38086 14.6094L11.0254 13.916L16.1328 10.7227C16.8529 10.2697 17.5267 9.89515 18.2031 9.58958L18.2031 10.9082C18.2031 12.8711 19.4238 14.1113 21.3086 14.1113L27.0215 14.1113C28.916 14.1113 30.127 12.8711 30.127 10.9082L30.127 8.44193C33.8521 8.97899 36.6307 11.0388 38.9551 12.9688Z" fill="black" fill-opacity="0.85"/>
  <path d="M21.3086 12.6074L27.0215 12.6074C28.0469 12.6074 28.5742 12.0703 28.5742 10.9766L28.5742 6.47461C28.5742 5.37109 28.0469 4.84375 27.0215 4.84375L21.3086 4.84375C20.2832 4.84375 19.7559 5.37109 19.7559 6.47461L19.7559 10.9766C19.7559 12.0703 20.2832 12.6074 21.3086 12.6074ZM25.9961 5.81055L27.2168 5.81055L27.2168 3.39844C27.2168 2.06055 28.0273 1.21094 29.2773 1.21094C30.5371 1.21094 31.3379 2.06055 31.3379 3.39844L31.3379 4.79492C31.3379 5.13672 31.6113 5.41016 31.9434 5.41016C32.2754 5.41016 32.5488 5.13672 32.5488 4.79492L32.5488 3.56445C32.5488 1.38672 31.2695 0 29.2773 0C27.2949 0 25.9961 1.38672 25.9961 3.56445Z" fill="black" fill-opacity="0.85"/>
 </g>
</svg>
