<?xml version="1.0" encoding="UTF-8"?>
<!--Generator: Apple Native CoreSVG 326-->
<!DOCTYPE svg
PUBLIC "-//W3C//DTD SVG 1.1//EN"
       "http://www.w3.org/Graphics/SVG/1.1/DTD/svg11.dtd">
<svg version="1.1" xmlns="http://www.w3.org/2000/svg" xmlns:xlink="http://www.w3.org/1999/xlink" viewBox="0 0 44.4434 22.7441">
 <g>
  <rect height="22.7441" opacity="0" width="44.4434" x="0" y="0"/>
  <path d="M22.1777 22.7441C24.7656 22.7441 25.9863 21.543 25.9863 18.9941L25.9863 12.5586C25.9863 10.8691 25.5078 9.9707 24.1895 8.96484L14.5703 1.66016C12.9883 0.46875 11.7285 0.0292969 9.80469 0.0292969L3.61328 0.0292969C1.24023 0.0292969 0 1.25977 0 3.61328L0 18.9941C0 21.543 1.2207 22.7441 3.80859 22.7441ZM22.4023 11.2402L3.65234 11.2402C2.46094 11.2402 1.72852 10.5273 1.72852 9.30664L1.72852 3.70117C1.72852 2.45117 2.43164 1.75781 3.65234 1.75781L9.80469 1.75781C11.3672 1.75781 12.2852 2.03125 13.3984 2.91992L22.7344 10.0586C23.2812 10.4688 23.1152 11.2402 22.4023 11.2402Z" fill="black" fill-opacity="0.85"/>
  <path d="M31.4844 18.2324C31.8066 18.2324 32.0117 18.125 32.3242 17.8223L37.3535 12.7637L42.3535 17.8125C42.666 18.1152 42.8809 18.2227 43.2031 18.2227C43.6719 18.2227 44.0723 17.8418 44.0723 17.3828C44.0723 17.0703 43.9648 16.8652 43.6914 16.582L38.6328 11.4844L43.7109 6.37695C43.9746 6.09375 44.082 5.87891 44.082 5.57617C44.082 5.13672 43.6816 4.74609 43.2227 4.74609C42.9004 4.74609 42.6855 4.85352 42.373 5.15625L37.3438 10.2051L32.3438 5.16602C32.0312 4.86328 31.8164 4.75586 31.4941 4.75586C31.0254 4.75586 30.625 5.13672 30.625 5.5957C30.625 5.91797 30.7324 6.13281 30.9961 6.40625L36.0645 11.4844L30.9961 16.5918C30.7227 16.875 30.625 17.0898 30.625 17.4023C30.625 17.8516 31.0156 18.2324 31.4844 18.2324Z" fill="black" fill-opacity="0.85"/>
 </g>
</svg>
