<?xml version="1.0" ?><!-- Generator: Adobe Illustrator 25.0.0, SVG Export Plug-In . SVG Version: 6.00 Build 0)  --><svg xmlns="http://www.w3.org/2000/svg" xmlns:xlink="http://www.w3.org/1999/xlink" version="1.1" id="Layer_1" x="0px" y="0px" viewBox="0 0 512 512" style="enable-background:new 0 0 512 512;" xml:space="preserve">
<path d="M256,512c140,0,256-116.2,256-256C512,116,395.8,0,255.7,0C116,0,0,116,0,256C0,395.8,116.2,512,256,512z M256,469.3  c-118.5,0-213.1-94.9-213.1-213.3S137.3,42.7,255.7,42.7S469.1,137.5,469.3,256S374.5,469.3,256,469.3z M118.2,339.3  c0,8.5,6.8,15.3,15.6,15.3h13.8c8.5,0,15.3-6.8,15.3-15.3V320c25.9,1.5,63.2,2.5,93.1,2.5c29.9,0,67-1,92.9-2.5v19.3  c0,8.5,6.8,15.3,15.6,15.3h13.8c8.5,0,15.3-6.8,15.3-15.3v-67c0-19.6-4-30.6-14.8-44.4l-9.8-12.8c-4.5-21.1-12-42.9-15.8-51.5  c-6.3-13.3-18.3-20.8-33.9-22.8c-7.8-1-33.4-1.8-63.2-1.8c-30.1,0-55.5,0.8-63.5,1.8c-15.3,1.8-27.4,9.5-33.6,22.8  c-4,8.5-11.5,30.4-15.8,51.5l-10,12.8c-10.8,13.8-14.8,24.8-14.8,44.4V339.3z M172.7,204.3c2.8-12,7.8-27.6,11.3-33.9  c3-5.3,6.3-7.3,12.3-8c8-1.3,26.6-2,59.7-2c32.9,0,51.5,0.5,59.7,2c6,0.8,9,2.8,12.3,8c3.5,6,8.5,21.8,11,33.9  c1.3,3.8-0.5,5.5-4.8,5c-17.8-1.3-39.4-2.3-78.3-2.3c-39.2,0-60.5,1-78.6,2.3C173.2,209.8,171.7,208.1,172.7,204.3z M153.3,272.6  c0-10.8,8.3-18.6,18.6-18.6c10.5,0,18.8,7.8,18.8,18.6c0,10.5-8.3,18.6-18.8,18.6C161.6,291.1,153.3,283.1,153.3,272.6z   M321.3,272.6c0-10.8,8-18.6,18.6-18.6c10.5,0,18.8,7.8,18.8,18.6c0,10.5-8.3,18.6-18.8,18.6C329.3,291.1,321.3,283.1,321.3,272.6z   M211.8,273.3c0-8,5.5-13.3,13.6-13.3h61.2c7.8,0,13.3,5.3,13.3,13.3s-5.5,13.6-13.3,13.6h-61.2  C217.3,286.9,211.8,281.3,211.8,273.3z"/>
</svg>