<?xml version="1.0" encoding="UTF-8"?>
<!--Generator: Apple Native CoreSVG 326-->
<!DOCTYPE svg
PUBLIC "-//W3C//DTD SVG 1.1//EN"
       "http://www.w3.org/Graphics/SVG/1.1/DTD/svg11.dtd">
<svg version="1.1" xmlns="http://www.w3.org/2000/svg" xmlns:xlink="http://www.w3.org/1999/xlink" viewBox="0 0 40.2832 24.7949">
 <g>
  <rect height="24.7949" opacity="0" width="40.2832" x="0" y="0"/>
  <path d="M8.1543 6.62109L8.75 6.62109C9.10156 6.62109 9.36523 6.35742 9.36523 6.00586L9.36523 0.634766C9.36523 0.283203 9.10156 0.0195312 8.75 0.0195312L8.1543 0.0195312C7.80273 0.0195312 7.53906 0.283203 7.53906 0.634766L7.53906 6.00586C7.53906 6.35742 7.80273 6.62109 8.1543 6.62109ZM8.1543 15.7031L8.75 15.7031C9.10156 15.7031 9.36523 15.4395 9.36523 15.0879L9.36523 9.72656C9.36523 9.375 9.10156 9.11133 8.75 9.11133L8.1543 9.11133C7.80273 9.11133 7.53906 9.375 7.53906 9.72656L7.53906 15.0879C7.53906 15.4395 7.80273 15.7031 8.1543 15.7031ZM8.1543 24.7949L8.75 24.7949C9.10156 24.7949 9.36523 24.5312 9.36523 24.1797L9.36523 18.8086C9.36523 18.457 9.10156 18.1934 8.75 18.1934L8.1543 18.1934C7.80273 18.1934 7.53906 18.457 7.53906 18.8086L7.53906 24.1797C7.53906 24.5312 7.80273 24.7949 8.1543 24.7949ZM31.1719 6.62109L31.7676 6.62109C32.1289 6.62109 32.3828 6.35742 32.3828 6.00586L32.3828 0.634766C32.3828 0.283203 32.1289 0.0195312 31.7676 0.0195312L31.1719 0.0195312C30.8203 0.0195312 30.5566 0.283203 30.5566 0.634766L30.5566 6.00586C30.5566 6.35742 30.8203 6.62109 31.1719 6.62109ZM31.1719 15.7031L31.7676 15.7031C32.1289 15.7031 32.3828 15.4395 32.3828 15.0879L32.3828 9.72656C32.3828 9.375 32.1289 9.11133 31.7676 9.11133L31.1719 9.11133C30.8203 9.11133 30.5566 9.375 30.5566 9.72656L30.5566 15.0879C30.5566 15.4395 30.8203 15.7031 31.1719 15.7031ZM31.1719 24.7949L31.7676 24.7949C32.1289 24.7949 32.3828 24.5312 32.3828 24.1797L32.3828 18.8086C32.3828 18.457 32.1289 18.1934 31.7676 18.1934L31.1719 18.1934C30.8203 18.1934 30.5566 18.457 30.5566 18.8086L30.5566 24.1797C30.5566 24.5312 30.8203 24.7949 31.1719 24.7949ZM0 15.2051C0 15.8301 0.517578 16.084 1.04492 15.7617L5.52734 13.0273C6.05469 12.7051 6.03516 12.0898 5.52734 11.7773L1.03516 9.02344C0.507812 8.70117 0 8.96484 0 9.58008ZM39.9219 15.2051L39.9219 9.58008C39.9219 8.96484 39.4238 8.71094 38.8867 9.02344L34.3945 11.7773C33.8867 12.0996 33.877 12.6953 34.3945 13.0273L38.8867 15.7617C39.4238 16.0742 39.9219 15.8301 39.9219 15.2051Z" fill="black" fill-opacity="0.85"/>
  <path d="M19.9512 23.916C24.3262 23.916 26.3965 22.8906 26.3965 20.3613L26.3965 9.87305L26.8945 9.87305C27.4316 9.87305 27.8516 9.48242 27.8418 8.98438L27.832 8.51562C27.8125 8.00781 27.4316 7.61719 26.8848 7.61719L26.3965 7.61719L26.3965 5.01953C26.3965 2.40234 23.9844 0.869141 19.9609 0.878906C15.957 0.878906 13.5449 2.39258 13.5449 5.01953L13.5449 7.61719L13.0566 7.61719C12.5 7.61719 12.1191 8.00781 12.1094 8.50586L12.0996 8.98438C12.0898 9.48242 12.5 9.87305 13.0469 9.87305L13.5449 9.87305L13.5449 20.3613C13.5449 22.8906 15.5957 23.916 19.9512 23.916ZM19.9609 22.3828C16.5625 22.373 15.1074 21.7773 15.1074 20.3223L15.1074 5.0293C15.1074 3.36914 16.7969 2.43164 19.9512 2.43164C23.1348 2.43164 24.834 3.36914 24.834 5.01953L24.834 20.3223C24.834 21.7773 23.3691 22.373 19.9609 22.3828ZM19.9609 10.5566C20.7617 10.5664 22.1973 10.6445 22.6465 10.6543C23.3496 10.6543 23.6914 10.3613 23.7598 9.59961L23.8965 7.99805C24.0137 6.65039 23.1934 6.09375 19.9707 6.08398C16.748 6.08398 15.918 6.65039 16.0449 8.00781L16.1914 9.58984C16.2598 10.3613 16.5723 10.6543 17.2949 10.6445C17.7539 10.6543 19.0723 10.5664 19.9609 10.5566ZM19.9609 20.2441C23.0566 20.2344 24.0332 19.7754 23.8477 18.3887L23.7305 17.5781C23.584 16.4551 22.6855 16.1035 19.9707 16.1133C17.2461 16.1035 16.3574 16.4648 16.2012 17.5781L16.0938 18.3789C15.8984 19.7852 16.875 20.2344 19.9609 20.2441Z" fill="black" fill-opacity="0.85"/>
 </g>
</svg>
