<?xml version="1.0" encoding="UTF-8"?>
<!--Generator: Apple Native CoreSVG 326-->
<!DOCTYPE svg
PUBLIC "-//W3C//DTD SVG 1.1//EN"
       "http://www.w3.org/Graphics/SVG/1.1/DTD/svg11.dtd">
<svg version="1.1" xmlns="http://www.w3.org/2000/svg" xmlns:xlink="http://www.w3.org/1999/xlink" viewBox="0 0 23.4473 19.9902">
 <g>
  <rect height="19.9902" opacity="0" width="23.4473" x="0" y="0"/>
  <path d="M23.0859 1.83594L23.0859 0.0976562C20.2051 0.332031 18.4082 0.966797 16.1328 2.40234L11.0254 5.5957L5.38086 6.28906C2.03125 6.70898 0 8.76953 0 11.6406L0 13.2812C0 16.0254 1.23047 17.2852 3.83789 17.2852L5.63477 17.2852L5.63477 15.5469L3.83789 15.5469C2.40234 15.5469 1.72852 14.8145 1.72852 13.2227L1.72852 11.6406C1.72852 9.7168 3.1543 8.29102 5.60547 7.99805L10.6738 7.38281C11.4453 7.28516 11.8945 7.11914 12.4023 6.80664L17.0605 3.87695C19.0723 2.61719 20.5957 2.05078 23.0859 1.83594ZM23.0859 17.2852L23.0859 15.5469L12.2852 15.5469L12.2852 17.2852ZM9.07227 19.9902C11.4941 19.9902 13.3887 18.0957 13.3887 15.6738C13.3887 13.252 11.4941 11.3672 9.07227 11.3672C6.65039 11.3672 4.76562 13.252 4.76562 15.6738C4.76562 18.0957 6.65039 19.9902 9.07227 19.9902ZM9.07227 18.3594C7.57812 18.3594 6.39648 17.1777 6.39648 15.6738C6.39648 14.1797 7.57812 12.998 9.07227 12.998C10.5762 12.998 11.7578 14.1797 11.7578 15.6738C11.7578 17.1777 10.5762 18.3594 9.07227 18.3594ZM0.810547 1.61133L4.87305 1.61133C5.39062 1.61133 5.73242 1.72852 6.04492 2.04102L10.4688 6.46484L11.9531 5.64453L7.31445 1.00586C6.65039 0.332031 5.79102 0.0488281 4.69727 0.0488281L0.810547 0.0488281C0.3125 0.0488281 0 0.361328 0 0.820312C0 1.28906 0.3125 1.61133 0.810547 1.61133Z" fill="black" fill-opacity="0.85"/>
 </g>
</svg>
