<?xml version="1.0" encoding="UTF-8"?>
<!--Generator: Apple Native CoreSVG 326-->
<!DOCTYPE svg
PUBLIC "-//W3C//DTD SVG 1.1//EN"
       "http://www.w3.org/Graphics/SVG/1.1/DTD/svg11.dtd">
<svg version="1.1" xmlns="http://www.w3.org/2000/svg" xmlns:xlink="http://www.w3.org/1999/xlink" viewBox="0 0 36.0298 18.623">
 <g>
  <rect height="18.623" opacity="0" width="36.0298" x="0" y="0"/>
  <path d="M0.876251 18.623L2.42899 18.623C3.08328 18.623 3.41531 18.3105 3.60086 17.8223L10.554 0.673828C10.7005 0.3125 10.5247 0.0195312 10.1634 0.0195312L9.43094 0.0195312C9.05985 0.0195312 8.82547 0.185547 8.66922 0.507812L0.124298 17.4121C-0.168671 17.9785 0.0461732 18.623 0.876251 18.623ZM33.2395 18.623L34.7923 18.623C35.6321 18.623 35.847 17.9785 35.5442 17.4121L27.0188 0.507812C26.843 0.185547 26.6087 0.0195312 26.2473 0.0195312L25.5149 0.0195312C25.1438 0.0195312 24.968 0.3125 25.1243 0.673828L32.0677 17.8223C32.2532 18.3105 32.5852 18.623 33.2395 18.623Z" fill="black" fill-opacity="0.85"/>
  <path d="M9.93875 14.5508C9.93875 15.0391 10.3196 15.4199 10.8079 15.4199L11.5891 15.4199C12.0774 15.4199 12.4583 15.0391 12.4583 14.5508L12.4583 13.6328L23.0735 13.6328L23.0735 14.5508C23.0735 15.0391 23.4544 15.4199 23.9524 15.4199L24.7239 15.4199C25.222 15.4199 25.593 15.0391 25.593 14.5508L25.593 10.2148C25.593 9.07227 25.4075 8.41797 24.763 7.68555L24.1087 6.94336L23.386 4.90234C23.0052 3.80859 22.2923 3.34961 21.3743 3.24219C20.9251 3.19336 19.4407 3.1543 17.7708 3.1543C16.0911 3.1543 14.6067 3.19336 14.1575 3.24219C13.2395 3.34961 12.5266 3.80859 12.1458 4.90234L11.4231 6.94336L10.7688 7.68555C10.1243 8.41797 9.93875 9.07227 9.93875 10.2148ZM13.1614 6.88477C12.8587 6.88477 12.7513 6.66016 12.8489 6.36719L13.2591 5.13672C13.4348 4.61914 13.7083 4.44336 14.1673 4.375C14.6458 4.31641 15.8665 4.26758 17.7708 4.26758C19.6653 4.26758 20.886 4.31641 21.3645 4.375C21.8235 4.44336 22.0872 4.61914 22.263 5.13672L22.6829 6.36719C22.7805 6.66016 22.6634 6.88477 22.3606 6.88477ZM12.2825 11.084C11.8821 11.084 11.5989 10.8008 11.5989 10.4102L11.5989 9.35547C11.5989 8.96484 11.8821 8.68164 12.2825 8.68164C12.6634 8.68164 12.9466 8.96484 12.9466 9.35547L12.9466 10.4102C12.9466 10.8008 12.6634 11.084 12.2825 11.084ZM16.2278 10.7812C15.9153 10.7812 15.72 10.5762 15.72 10.2441L15.72 9.51172C15.72 9.18945 15.9153 8.99414 16.2278 8.99414L19.2649 8.99414C19.5774 8.99414 19.7825 9.18945 19.7825 9.51172L19.7825 10.2441C19.7825 10.5762 19.5774 10.7812 19.2649 10.7812ZM23.3079 11.084C22.927 11.084 22.6341 10.791 22.6341 10.4102L22.6341 9.35547C22.6341 8.96484 22.927 8.68164 23.3079 8.68164C23.6985 8.68164 23.9817 8.96484 23.9817 9.35547L23.9817 10.4102C23.9817 10.8008 23.6985 11.084 23.3079 11.084Z" fill="black" fill-opacity="0.85"/>
 </g>
</svg>
