<?xml version="1.0" encoding="UTF-8"?>
<!--Generator: Apple Native CoreSVG 326-->
<!DOCTYPE svg
PUBLIC "-//W3C//DTD SVG 1.1//EN"
       "http://www.w3.org/Graphics/SVG/1.1/DTD/svg11.dtd">
<svg version="1.1" xmlns="http://www.w3.org/2000/svg" xmlns:xlink="http://www.w3.org/1999/xlink" viewBox="0 0 34.0332 28.9434">
 <g>
  <rect height="28.9434" opacity="0" width="34.0332" x="0" y="0"/>
  <path d="M33.6719 12.9922L33.6719 11.1953C33.1836 11.4395 32.6953 11.7031 32.1875 12.0352L27.5781 14.9258L22.4902 15.5508C19.4629 15.9219 17.627 17.7871 17.627 20.3653L17.627 21.8594C17.627 24.3399 18.7305 25.4629 21.1035 25.4629L22.7148 25.4629L22.7148 23.9102L21.1035 23.9102C19.7949 23.9102 19.1895 23.2461 19.1895 21.8008L19.1895 20.3653C19.1895 18.6465 20.4785 17.3574 22.6855 17.084L27.2559 16.5371C27.9688 16.4492 28.3691 16.3028 28.8281 16.0196L33.0273 13.3731C33.2422 13.2364 33.457 13.1094 33.6719 12.9922ZM33.6719 25.4629L33.6719 23.9102L28.7305 23.9102L28.7305 25.4629ZM25.8203 27.9141C28.0078 27.9141 29.7168 26.2051 29.7168 24.0176C29.7168 21.8399 28.0078 20.1309 25.8203 20.1309C23.6328 20.1309 21.9336 21.8399 21.9336 24.0176C21.9336 26.2051 23.6328 27.9141 25.8203 27.9141ZM25.8203 26.4395C24.4727 26.4395 23.3984 25.375 23.3984 24.0176C23.3984 22.6699 24.4727 21.6055 25.8203 21.6055C27.1777 21.6055 28.252 22.6699 28.252 24.0176C28.252 25.375 27.1777 26.4395 25.8203 26.4395ZM6.71875 27.9141C8.90625 27.9141 10.6055 26.2051 10.6055 24.0176C10.6055 21.8399 8.90625 20.1309 6.71875 20.1309C4.53125 20.1309 2.82227 21.8399 2.82227 24.0176C2.82227 26.2051 4.53125 27.9141 6.71875 27.9141ZM6.71875 26.4395C5.36133 26.4395 4.28711 25.375 4.28711 24.0176C4.28711 22.6699 5.36133 21.6055 6.71875 21.6055C8.06641 21.6055 9.14062 22.6699 9.14062 24.0176C9.14062 25.375 8.06641 26.4395 6.71875 26.4395ZM0 23.9102L0 25.4629L3.93555 25.4629L3.93555 23.9102ZM9.80469 25.4629L11.4355 25.4629C13.8281 25.4629 14.9023 24.3301 14.9023 21.8008L14.9023 18.6563C14.9023 16.6153 13.9453 15.3457 11.8262 14.6719L10.0098 14.0957C7.4707 11.9278 4.59961 9.86721 0.712891 9.86721L0 9.86721L0 11.4297L0.712891 11.4297C3.59375 11.4297 5.89844 12.6211 8.73047 15.1114C9.23828 15.5508 9.49219 15.6582 10.0977 15.8438L11.3672 16.2539C12.7441 16.6934 13.3496 17.3965 13.3496 18.6563L13.3496 21.8008C13.3496 23.2461 12.7441 23.9102 11.4355 23.9102L9.80469 23.9102Z" fill="black" fill-opacity="0.85"/>
  <path d="M18.1641 0.726587L17.6367 2.94338L14.873 0.111353C14.6387-0.132788 14.3262 0.0527592 14.4434 0.394556L15.4199 3.29495L14.1406 2.71877C13.8379 2.58206 13.6133 2.80667 13.8379 3.1094L14.541 4.02737L11.2402 3.56838C10.8496 3.50979 10.7324 3.90042 11.0547 4.08596L14.1699 5.98049L12.3145 6.66409C11.9727 6.79104 12.0215 7.1719 12.3828 7.2012L14.4531 7.34768L11.6406 9.25198C11.3477 9.45706 11.4746 9.87698 11.8652 9.77932L15.4492 8.96877L15.498 12.0059C15.498 12.3184 15.8203 12.3477 15.957 12.1328L18.252 8.33401L22.1387 11.8203C22.4414 12.084 22.793 11.8106 22.6074 11.4492L20.3125 7.15237L22.6562 6.45901C22.8516 6.39065 22.8516 6.11721 22.6562 6.03909L20.5859 5.18948L22.0801 0.960962C22.1777 0.677759 21.8945 0.443384 21.6602 0.687525L19.2383 2.96292L18.6523 0.726587C18.5742 0.414087 18.2422 0.394556 18.1641 0.726587Z" fill="black" fill-opacity="0.85"/>
 </g>
</svg>
