<?xml version="1.0" encoding="UTF-8"?>
<!--Generator: Apple Native CoreSVG 326-->
<!DOCTYPE svg
PUBLIC "-//W3C//DTD SVG 1.1//EN"
       "http://www.w3.org/Graphics/SVG/1.1/DTD/svg11.dtd">
<svg version="1.1" xmlns="http://www.w3.org/2000/svg" xmlns:xlink="http://www.w3.org/1999/xlink" viewBox="0 0 44.7461 22.5098">
 <g>
  <rect height="22.5098" opacity="0" width="44.7461" x="0" y="0"/>
  <path d="M38.9551 5.9082L40.9668 6.58203C43.3105 7.35352 44.3848 8.73047 44.3848 10.9961L44.3848 14.4824C44.3848 17.2656 43.1738 18.5449 40.5371 18.5449L39.3159 18.5449C38.6933 20.1462 37.1537 21.25 35.3125 21.25C33.4639 21.25 31.9225 20.1462 31.2995 18.5449L13.0853 18.5449C12.4623 20.1462 10.9209 21.25 9.07227 21.25C7.22363 21.25 5.68794 20.1462 5.06764 18.5449L3.83789 18.5449C1.23047 18.5449 0 17.2852 0 14.541L0 12.9004C0 10.0293 2.03125 7.96875 5.38086 7.54883L9.67306 7.02159L10.8827 8.61288C10.8163 8.62358 10.7465 8.63338 10.6738 8.64258L5.60547 9.25781C3.1543 9.55078 1.72852 10.9766 1.72852 12.9004L1.72852 14.4824C1.72852 16.0742 2.40234 16.8066 3.83789 16.8066L4.7718 16.8066C4.83263 14.4455 6.69333 12.627 9.07227 12.627C11.4512 12.627 13.3213 14.4455 13.3825 16.8066L31.0023 16.8066C31.0634 14.4455 32.9336 12.627 35.3125 12.627C37.6818 12.627 39.5518 14.4455 39.6129 16.8066L40.5371 16.8066C41.9824 16.8066 42.6562 16.0742 42.6562 14.4824L42.6562 10.9961C42.6562 9.58984 41.9824 8.82812 40.459 8.33008L39.0527 7.88086C38.3887 7.66602 38.0957 7.54883 37.5488 7.07031C34.2676 4.19922 31.6309 2.97852 28.2227 2.97852L26.4062 2.97852C21.6992 2.97852 19.834 3.39844 17.0605 5.13672L14.8769 6.5101L13.811 5.11381L16.1328 3.66211C19.1602 1.75781 21.3672 1.24023 26.4062 1.24023L28.2227 1.24023C32.9297 1.24023 36.25 3.60352 38.9551 5.9082ZM6.39648 16.9336C6.39648 18.4375 7.57812 19.6191 9.07227 19.6191C10.5762 19.6191 11.7578 18.4375 11.7578 16.9336C11.7578 15.4395 10.5762 14.2578 9.07227 14.2578C7.57812 14.2578 6.39648 15.4395 6.39648 16.9336ZM32.627 16.9336C32.627 18.4375 33.8086 19.6191 35.3125 19.6191C36.8066 19.6191 37.9883 18.4375 37.9883 16.9336C37.9883 15.4395 36.8066 14.2578 35.3125 14.2578C33.8086 14.2578 32.627 15.4395 32.627 16.9336Z" fill="black" fill-opacity="0.85"/>
  <path d="M3.47656 3.0957L6.66016 3.0957C8.01758 3.0957 8.60352 3.34961 9.29688 4.26758L12.7539 8.82812C13.7891 10.1953 14.9023 10.7617 16.582 10.7617L19.2383 10.7617L19.2383 11.9824C19.2383 12.7441 19.9219 12.9688 20.4883 12.5977L23.6328 10.5762C24.1699 10.2344 24.1797 9.58008 23.6328 9.21875L20.498 7.20703C19.9219 6.83594 19.2383 7.06055 19.2383 7.83203L19.2383 9.0332L16.582 9.0332C15.4199 9.0332 14.8926 8.75 14.1309 7.76367L10.6445 3.20312C9.62891 1.88477 8.4668 1.36719 6.66016 1.36719L3.47656 1.36719C3.00781 1.36719 2.61719 1.75781 2.61719 2.22656C2.61719 2.70508 3.00781 3.0957 3.47656 3.0957Z" fill="black" fill-opacity="0.85"/>
 </g>
</svg>
