<?xml version="1.0" encoding="UTF-8"?>
<!--Generator: Apple Native CoreSVG 326-->
<!DOCTYPE svg
PUBLIC "-//W3C//DTD SVG 1.1//EN"
       "http://www.w3.org/Graphics/SVG/1.1/DTD/svg11.dtd">
<svg version="1.1" xmlns="http://www.w3.org/2000/svg" xmlns:xlink="http://www.w3.org/1999/xlink" viewBox="0 0 17.207 33.9355">
 <g>
  <rect height="33.9355" opacity="0" width="17.207" x="0" y="0"/>
  <path d="M8.42773 1.62109C10.7031 1.62109 12.7734 2.48047 14.3555 3.92578C14.8242 4.33594 15.3027 4.35547 15.625 4.04297C15.9766 3.69141 15.9668 3.18359 15.5859 2.7832C13.7109 0.908203 11.1328 0 8.42773 0C5.71289 0 3.14453 0.908203 1.26953 2.7832C0.878906 3.18359 0.869141 3.69141 1.23047 4.04297C1.55273 4.35547 2.03125 4.33594 2.49023 3.92578C4.08203 2.48047 6.14258 1.62109 8.42773 1.62109Z" fill="black" fill-opacity="0.85"/>
  <path d="M8.42773 5.99609C9.59961 5.99609 10.6055 6.36719 11.377 7.03125C11.9141 7.43164 12.3633 7.43164 12.6855 7.09961C13.0176 6.77734 13.0078 6.29883 12.6465 5.92773C11.8164 5.10742 10.1855 4.36523 8.42773 4.36523C6.66992 4.36523 5.0293 5.10742 4.19922 5.92773C3.84766 6.29883 3.82812 6.77734 4.16992 7.09961C4.48242 7.43164 4.94141 7.43164 5.47852 7.03125C6.24023 6.36719 7.24609 5.99609 8.42773 5.99609Z" fill="black" fill-opacity="0.85"/>
  <path d="M8.42773 33.9258C13.0957 33.9258 15.293 32.8223 15.293 30.127L15.293 13.7793C15.293 10.9766 12.7148 9.3457 8.42773 9.3457C4.13086 9.3457 1.5625 10.9766 1.5625 13.7793L1.5625 30.127C1.5625 32.8223 3.75 33.9258 8.42773 33.9258ZM2.49023 18.9746L2.49023 16.543L1.02539 16.543C0.439453 16.543 0 16.9629 0 17.5098L0 18.0078C0 18.5449 0.439453 18.9746 1.02539 18.9746ZM14.3555 18.9746L15.8203 18.9746C16.4062 18.9746 16.8457 18.5449 16.8457 18.0078L16.8457 17.5098C16.8457 16.9629 16.4062 16.543 15.8203 16.543L14.3555 16.543ZM8.41797 19.6191C7.54883 19.6191 6.01562 19.707 5.51758 19.707C4.74609 19.707 4.38477 19.3848 4.31641 18.5645L4.15039 16.8164C4.0332 15.332 4.93164 14.7266 8.41797 14.7266C11.9141 14.7266 12.8125 15.332 12.6953 16.8164L12.5488 18.5645C12.4609 19.3848 12.1094 19.707 11.3281 19.707C10.8301 19.707 9.39453 19.6191 8.41797 19.6191ZM8.41797 30.1367C5.04883 30.1367 4.00391 29.6484 4.20898 28.1152L4.33594 27.2363C4.51172 26.0156 5.46875 25.625 8.41797 25.625C11.377 25.625 12.334 26.0156 12.5195 27.2363L12.6367 28.1152C12.8613 29.6484 11.7969 30.1367 8.41797 30.1367Z" fill="black" fill-opacity="0.85"/>
 </g>
</svg>
