<?xml version="1.0" encoding="UTF-8"?>
<!--Generator: Apple Native CoreSVG 326-->
<!DOCTYPE svg
PUBLIC "-//W3C//DTD SVG 1.1//EN"
       "http://www.w3.org/Graphics/SVG/1.1/DTD/svg11.dtd">
<svg version="1.1" xmlns="http://www.w3.org/2000/svg" xmlns:xlink="http://www.w3.org/1999/xlink" viewBox="0 0 40.0098 23.1543">
 <g>
  <rect height="23.1543" opacity="0" width="40.0098" x="0" y="0"/>
  <path d="M19.8831 0.125484C19.0577 0.155401 18.4352 0.192681 18.1055 0.234375C17.0154 0.367309 16.0656 0.785248 15.3613 1.48581C15.1592 1.48486 14.9539 1.48438 14.7461 1.48438C11.5039 1.48438 8.92578 1.60156 8.125 1.68945C6.93359 1.83594 6.11328 2.40234 5.68359 3.31055C5.16602 4.4043 4.3457 6.93359 3.98438 8.84766L2.71484 10.5176C1.71875 11.8164 1.43555 12.6465 1.43555 14.3945L1.43555 16.2207C1.43555 17.1875 1.83594 17.7246 2.92969 17.8516C4.40135 18.0346 7.56392 18.1818 10.6504 18.2559C10.6961 18.3179 10.7462 18.3763 10.8008 18.4308L10.8008 19.6941C8.93557 19.6496 7.00707 19.5762 5.39062 19.4822L5.39062 21.5234C5.39062 22.4414 4.67773 23.1543 3.75 23.1543L2.28516 23.1543C1.35742 23.1543 0.644531 22.4316 0.644531 21.5234L0.644531 18.4308C0.222844 17.9932 0 17.3867 0 16.6113L0 14.3945C0 12.2363 0.458984 11.084 1.57227 9.63867L2.64648 8.24219C3.11523 5.97656 3.94531 3.58398 4.38477 2.65625C5.04883 1.24023 6.34766 0.429688 7.94922 0.234375C8.79883 0.126953 11.5918 0.0488281 14.7461 0.0488281C16.7345 0.0488281 18.5794 0.0759939 19.8831 0.125484ZM7.58789 14.3945C7.58789 15.498 6.75781 16.3184 5.66406 16.3184C4.56055 16.3184 3.73047 15.498 3.73047 14.3945C3.73047 13.3008 4.56055 12.4707 5.66406 12.4707C6.75781 12.4707 7.58789 13.3008 7.58789 14.3945ZM12.8261 8.13376C9.8093 8.1616 7.8705 8.25665 6.14258 8.37891C5.67383 8.4082 5.50781 8.21289 5.60547 7.80273C5.92773 6.34766 6.50391 4.6582 6.89453 3.96484C7.23633 3.36914 7.65625 3.07617 8.39844 2.96875C9.31132 2.84513 11.3354 2.76781 14.492 2.76405C14.0508 3.73649 13.2808 5.98096 12.8261 8.13376Z" fill="black" fill-opacity="0.85"/>
  <path d="M15.7617 7.80273C15.6641 8.21289 15.8301 8.4082 16.2988 8.37891C18.3691 8.23242 20.7422 8.125 24.9023 8.125C29.0625 8.125 31.4355 8.23242 33.5059 8.37891C33.9746 8.4082 34.1406 8.21289 34.0527 7.80273C33.7207 6.34766 33.1543 4.6582 32.7539 3.96484C32.4121 3.36914 31.9922 3.07617 31.25 2.96875C30.3125 2.8418 28.2031 2.76367 24.9023 2.76367C21.6016 2.76367 19.4922 2.8418 18.5547 2.96875C17.8125 3.07617 17.3926 3.36914 17.0508 3.96484C16.6602 4.6582 16.084 6.34766 15.7617 7.80273ZM15.8105 16.3184C16.9141 16.3184 17.7441 15.498 17.7441 14.3945C17.7441 13.3008 16.9141 12.4707 15.8105 12.4707C14.7168 12.4707 13.8867 13.3008 13.8867 14.3945C13.8867 15.498 14.7168 16.3184 15.8105 16.3184ZM21.6309 15.8984L28.1738 15.8984C28.9941 15.8984 29.5605 15.332 29.5605 14.5215C29.5605 13.7012 28.9941 13.1348 28.1738 13.1348L21.6309 13.1348C20.8105 13.1348 20.2539 13.7012 20.2539 14.5215C20.2539 15.332 20.8105 15.8984 21.6309 15.8984ZM33.9941 16.3184C35.0879 16.3184 35.918 15.498 35.918 14.3945C35.918 13.3008 35.0879 12.4707 33.9941 12.4707C32.8906 12.4707 32.0605 13.3008 32.0605 14.3945C32.0605 15.498 32.8906 16.3184 33.9941 16.3184ZM24.9023 19.7461C29.082 19.7461 34.6973 19.5312 37.0801 19.2578C38.7207 19.0723 39.6484 18.1934 39.6484 16.6113L39.6484 14.3945C39.6484 12.2363 39.1895 11.084 38.0762 9.63867L37.002 8.24219C36.5332 5.97656 35.7031 3.58398 35.2637 2.65625C34.5996 1.24023 33.3008 0.449219 31.6992 0.234375C30.8496 0.117188 28.0566 0.0488281 24.9023 0.0488281C21.748 0.0488281 18.9551 0.126953 18.1055 0.234375C16.5039 0.429688 15.2051 1.24023 14.541 2.65625C14.1016 3.58398 13.2715 5.97656 12.8027 8.24219L11.7285 9.63867C10.6152 11.084 10.1562 12.2363 10.1562 14.3945L10.1562 16.6113C10.1562 18.1934 11.084 19.0723 12.7246 19.2578C15.1074 19.5312 20.7227 19.7461 24.9023 19.7461ZM24.9023 18.3105C20.6934 18.3105 15.1758 18.1152 13.0859 17.8516C11.9922 17.7246 11.5918 17.1875 11.5918 16.2207L11.5918 14.3945C11.5918 12.6465 11.875 11.8164 12.8711 10.5176L14.1406 8.84766C14.502 6.93359 15.3223 4.4043 15.8398 3.31055C16.2695 2.40234 17.0898 1.83594 18.2812 1.68945C19.082 1.60156 21.6602 1.48438 24.9023 1.48438C28.1445 1.48438 30.7617 1.60156 31.5039 1.68945C32.7246 1.8457 33.5352 2.41211 33.9648 3.31055C34.4922 4.4043 35.3027 6.93359 35.6641 8.84766L36.9336 10.5176C37.9297 11.8164 38.2129 12.6465 38.2129 14.3945L38.2129 16.2207C38.2129 17.1875 37.8125 17.7246 36.7188 17.8516C34.6289 18.1055 29.1211 18.3105 24.9023 18.3105ZM12.4414 23.1543L13.9062 23.1543C14.834 23.1543 15.5469 22.4414 15.5469 21.5234L15.5469 18.6816L10.8008 18.0078L10.8008 21.5234C10.8008 22.4316 11.5137 23.1543 12.4414 23.1543ZM35.8984 23.1543L37.3633 23.1543C38.291 23.1543 39.0039 22.4414 39.0039 21.5234L39.0039 18.0078L34.2578 18.6816L34.2578 21.5234C34.2578 22.4414 34.9707 23.1543 35.8984 23.1543Z" fill="black" fill-opacity="0.85"/>
 </g>
</svg>
