<?xml version="1.0" encoding="UTF-8"?>
<!--Generator: Apple Native CoreSVG 326-->
<!DOCTYPE svg
PUBLIC "-//W3C//DTD SVG 1.1//EN"
       "http://www.w3.org/Graphics/SVG/1.1/DTD/svg11.dtd">
<svg version="1.1" xmlns="http://www.w3.org/2000/svg" xmlns:xlink="http://www.w3.org/1999/xlink" viewBox="0 0 17.207 33.6426">
 <g>
  <rect height="33.6426" opacity="0" width="17.207" x="0" y="0"/>
  <path d="M8.42773 32.0117C6.14258 32.0117 4.08203 31.1523 2.49023 29.707C2.03125 29.2969 1.55273 29.2676 1.23047 29.5898C0.869141 29.9316 0.878906 30.4492 1.26953 30.8496C3.14453 32.7246 5.71289 33.6328 8.42773 33.6328C11.1328 33.6328 13.7109 32.7246 15.5859 30.8496C15.9668 30.4492 15.9766 29.9316 15.625 29.5898C15.3027 29.2676 14.8242 29.2969 14.3555 29.707C12.7734 31.1523 10.7031 32.0117 8.42773 32.0117Z" fill="black" fill-opacity="0.85"/>
  <path d="M8.42773 27.6367C7.24609 27.6367 6.24023 27.2656 5.47852 26.6016C4.94141 26.2012 4.48242 26.2012 4.16992 26.5332C3.82812 26.8457 3.84766 27.334 4.19922 27.6953C5.0293 28.5254 6.66992 29.2578 8.42773 29.2578C10.1855 29.2578 11.8164 28.5254 12.6465 27.6953C13.0078 27.334 13.0176 26.8457 12.6855 26.5332C12.3633 26.2012 11.9141 26.2012 11.377 26.6016C10.6055 27.2656 9.59961 27.6367 8.42773 27.6367Z" fill="black" fill-opacity="0.85"/>
  <path d="M8.42773 24.5801C13.0957 24.5801 15.293 23.4766 15.293 20.791L15.293 4.43359C15.293 1.63086 12.7148 0 8.42773 0C4.13086 0 1.5625 1.63086 1.5625 4.43359L1.5625 20.791C1.5625 23.4766 3.75 24.5801 8.42773 24.5801ZM8.42773 22.9004C4.80469 22.9004 3.25195 22.2754 3.25195 20.7324L3.25195 4.43359C3.25195 2.68555 5.06836 1.69922 8.42773 1.69922C11.7871 1.69922 13.5938 2.68555 13.5938 4.43359L13.5938 20.7324C13.5938 22.2754 12.0508 22.9004 8.42773 22.9004ZM2.49023 9.62891L2.49023 7.19727L1.02539 7.19727C0.439453 7.19727 0 7.61719 0 8.17383L0 8.66211C0 9.20898 0.439453 9.62891 1.02539 9.62891ZM14.3555 9.62891L15.8203 9.62891C16.4062 9.62891 16.8457 9.20898 16.8457 8.66211L16.8457 8.17383C16.8457 7.61719 16.4062 7.19727 15.8203 7.19727L14.3555 7.19727ZM8.41797 10.3418C9.375 10.3418 10.7812 10.4297 11.2598 10.4297C12.0215 10.4297 12.373 10.1074 12.4414 9.30664L12.5977 7.59766C12.7148 6.15234 11.8359 5.56641 8.41797 5.56641C5.00977 5.56641 4.13086 6.15234 4.25781 7.59766L4.4043 9.30664C4.47266 10.1074 4.82422 10.4297 5.58594 10.4297C6.06445 10.4297 7.56836 10.3418 8.41797 10.3418ZM8.41797 20.6152C11.7188 20.6152 12.7441 20.1367 12.5391 18.6426L12.4219 17.7832C12.2461 16.5918 11.3086 16.2109 8.41797 16.2109C5.53711 16.2109 4.59961 16.5918 4.42383 17.7832L4.30664 18.6426C4.10156 20.1367 5.12695 20.6152 8.41797 20.6152Z" fill="black" fill-opacity="0.85"/>
 </g>
</svg>
