<?xml version="1.0" encoding="UTF-8"?>
<!--Generator: Apple Native CoreSVG 326-->
<!DOCTYPE svg
PUBLIC "-//W3C//DTD SVG 1.1//EN"
       "http://www.w3.org/Graphics/SVG/1.1/DTD/svg11.dtd">
<svg version="1.1" xmlns="http://www.w3.org/2000/svg" xmlns:xlink="http://www.w3.org/1999/xlink" viewBox="0 0 40.1542 30.696">
 <g>
  <rect height="30.696" opacity="0" width="40.1542" x="0" y="0"/>
  <path d="M4.02243 30.1185C4.27633 30.5384 4.80368 30.6654 5.20407 30.4505L37.4599 11.847C37.8506 11.6126 37.997 11.0951 37.7724 10.6849C37.5185 10.2552 36.9814 10.1185 36.5908 10.3529L4.33493 28.9564C3.9443 29.1712 3.79782 29.7083 4.02243 30.1185ZM5.5654 23.5658L6.8154 22.8333L6.12204 21.6224L4.86227 22.3451C3.85641 22.931 3.08493 22.6869 2.4404 21.5736L1.79586 20.4603C1.01461 19.1126 1.4443 17.5306 3.0361 16.3392L6.34665 13.849C6.85446 13.4681 7.0986 13.1751 7.33297 12.7454L9.41305 8.8099C10.6533 6.46615 11.7861 5.41146 15.0869 3.50716L16.3564 2.76498C18.749 1.38802 21.1025 1.18295 24.5595 1.86654C25.1455 1.98373 25.3896 1.94466 25.9463 1.82748L27.1181 1.57357C28.3779 1.30013 29.1591 1.5638 29.7353 2.55013L31.1416 5.0013C31.7861 6.11459 31.6201 6.9056 30.6045 7.48177L29.3252 8.22396L30.0283 9.4349L31.3076 8.70248C33.1533 7.62826 33.4853 6.2513 32.3623 4.29818L30.9463 1.84701C30.0283 0.255211 28.7197-0.272133 26.7568 0.128258L25.0771 0.479821C22.2451-0.0475232 18.9638-0.350258 15.6631 1.55404L14.3838 2.28646C10.8486 4.32748 9.51071 5.57748 8.15329 8.14584L5.8779 12.4525L2.19626 15.2259C0.0087554 16.8763-0.577182 19.1517 0.584927 21.1536L1.24899 22.3158C2.36227 24.2396 3.72946 24.6204 5.5654 23.5658ZM11.4834 20.138L25.4775 12.0619L24.7744 10.8509L10.79 18.9271ZM10.331 23.3411C12.0302 22.3646 12.5869 20.265 11.6103 18.5658C10.624 16.8763 8.53415 16.3099 6.83493 17.2962C5.13571 18.2728 4.57907 20.3626 5.55563 22.0619C6.54196 23.7611 8.6318 24.3177 10.331 23.3411ZM9.66696 22.1986C8.62204 22.804 7.31344 22.4525 6.70797 21.3978C6.09274 20.3529 6.4443 19.0443 7.49899 18.4388C8.55368 17.8333 9.86227 18.1849 10.4677 19.2298C11.0732 20.2845 10.7216 21.5931 9.66696 22.1986ZM28.7295 12.7161C30.4287 11.7396 30.9951 9.63998 30.0088 7.95052C29.0322 6.2513 26.9423 5.6849 25.2431 6.67123C23.5439 7.64779 22.9775 9.73763 23.9638 11.4369C24.9404 13.1361 27.0302 13.6927 28.7295 12.7161ZM28.0752 11.5736C27.0205 12.179 25.7119 11.8275 25.1064 10.7728C24.5009 9.72787 24.8525 8.41927 25.8974 7.8138C26.9521 7.20834 28.2607 7.5599 28.8662 8.60482C29.4716 9.65951 29.1201 10.9681 28.0752 11.5736Z" fill="black" fill-opacity="0.85"/>
  <path d="M24.5009 30.5775C24.8916 30.5775 25.1455 30.3236 25.1455 29.9232L25.1455 27.0228L27.2744 27.0228L27.2744 29.9232C27.2744 30.3236 27.5283 30.5775 27.9189 30.5775C28.3095 30.5775 28.5634 30.3236 28.5634 29.9232L28.5634 23.1947C28.5634 22.804 28.3095 22.5501 27.9189 22.5501C27.5283 22.5501 27.2744 22.804 27.2744 23.1947L27.2744 25.9486L25.1455 25.9486L25.1455 23.1947C25.1455 22.804 24.8916 22.5501 24.5009 22.5501C24.1201 22.5501 23.8759 22.804 23.8759 23.1947L23.8759 29.9232C23.8759 30.3236 24.1201 30.5775 24.5009 30.5775ZM30.292 30.5775L31.6689 30.5775C33.6904 30.5775 34.3642 28.5658 34.3642 26.5443C34.3642 24.3568 33.6025 22.5501 31.6689 22.5501L30.292 22.5501C29.9209 22.5501 29.6474 22.7747 29.6474 23.2142L29.6474 29.9134C29.6474 30.3529 29.9209 30.5775 30.292 30.5775ZM30.9072 29.4935L30.9072 23.6341L31.5127 23.6341C32.8115 23.6341 33.0654 25.2552 33.0654 26.5443C33.0654 27.8529 32.831 29.4935 31.5127 29.4935ZM37.6357 30.6458C38.4463 30.6458 39.0127 30.2357 39.374 29.6204C39.5986 29.2591 39.7939 28.6732 39.7939 28.2728C39.7939 27.9212 39.5498 27.6966 39.1982 27.6966C38.915 27.6966 38.7002 27.8919 38.6318 28.2044C38.4853 28.9759 38.2705 29.513 37.5966 29.513C36.7666 29.513 36.4052 28.2533 36.4052 26.554C36.4052 24.679 36.8838 23.5951 37.5966 23.5951C38.2119 23.5951 38.5048 24.2103 38.6123 24.9134C38.6611 25.2552 38.8955 25.4603 39.2275 25.4603C39.5693 25.4603 39.7646 25.2064 39.7646 24.8646C39.7646 24.4056 39.5498 23.7122 39.1689 23.263C38.7783 22.7747 38.2314 22.472 37.5869 22.472C36.4931 22.472 35.8486 23.224 35.5068 24.0833C35.1943 24.8353 35.1162 25.6849 35.1162 26.554C35.1162 27.5697 35.2138 28.5853 35.6728 29.4349C36.1025 30.2064 36.7373 30.6458 37.6357 30.6458Z" fill="black" fill-opacity="0.85"/>
 </g>
</svg>
