<?xml version="1.0" encoding="UTF-8"?>
<!--Generator: Apple Native CoreSVG 326-->
<!DOCTYPE svg
PUBLIC "-//W3C//DTD SVG 1.1//EN"
       "http://www.w3.org/Graphics/SVG/1.1/DTD/svg11.dtd">
<svg version="1.1" xmlns="http://www.w3.org/2000/svg" xmlns:xlink="http://www.w3.org/1999/xlink" viewBox="0 0 41.6797 33.9185">
 <g>
  <rect height="33.9185" opacity="0" width="41.6797" x="0" y="0"/>
  <path d="M12.5098 24.7961C12.5098 26.759 10.9668 28.302 8.99414 28.302C7.03125 28.302 5.48828 26.759 5.48828 24.7961C5.48828 22.8333 7.03125 21.2903 8.99414 21.2903C10.9668 21.2903 12.5098 22.8333 12.5098 24.7961ZM35.8301 24.7961C35.8301 25.9592 35.2918 26.9749 34.4401 27.6063L29.5135 22.6814C30.1432 21.8307 31.1567 21.2903 32.3242 21.2903C34.2969 21.2903 35.8301 22.8333 35.8301 24.7961ZM26.4987 25.8704L13.6523 25.8704C13.7305 25.5188 13.7695 25.1672 13.7695 24.7961C13.7695 22.1301 11.6699 20.0305 8.99414 20.0305C6.31836 20.0305 4.21875 22.1301 4.21875 24.7961C4.21875 25.1672 4.26758 25.5188 4.33594 25.8704L3.57422 25.8704C1.14258 25.8704 0 24.7083 0 22.1497L0 20.6165C0 17.9504 1.89453 16.0266 5.00977 15.6458L10.2734 14.9915L13.5527 12.9335ZM36.2695 14.1126L38.1445 14.7376C40.3223 15.4602 41.3184 16.7395 41.3184 18.8489L41.3184 22.1008C41.3184 24.6887 40.1953 25.8704 37.7441 25.8704L36.9727 25.8704C37.0508 25.5188 37.0996 25.1672 37.0996 24.7961C37.0996 22.1301 35 20.0305 32.3242 20.0305C30.8074 20.0305 29.4758 20.7052 28.6079 21.7761L17.5386 10.7107C19.3776 9.99342 21.3546 9.76685 24.5801 9.76685L26.2695 9.76685C30.6543 9.76685 33.75 12.0227 36.2695 14.1126Z" fill="black" fill-opacity="0.85"/>
  <path d="M33.1055 4.85474L33.1055 6.13404C33.1055 7.12037 32.5977 7.74537 31.6309 7.74537L18.5352 7.74537C17.6855 7.74537 17.3145 7.35474 17.3145 6.63209C17.3145 6.1438 17.5391 5.66529 18.3008 5.33326L21.2012 4.02466C23.9746 2.81373 25.7031 2.28638 27.8613 2.28638L30.1953 2.28638C32.2266 2.28638 33.1055 3.16529 33.1055 4.85474Z" fill="black" fill-opacity="0.85"/>
  <path d="M34.873 32.3157C35.1953 32.6379 35.7324 32.6379 36.0449 32.3157C36.377 31.9739 36.377 31.4661 36.0449 31.134L8.20312 3.30201C7.87109 2.96998 7.35352 2.96998 7.01172 3.30201C6.69922 3.61451 6.68945 4.15162 7.01172 4.47388Z" fill="black" fill-opacity="0.85"/>
 </g>
</svg>
