<?xml version="1.0" encoding="UTF-8"?>
<!--Generator: Apple Native CoreSVG 326-->
<!DOCTYPE svg
PUBLIC "-//W3C//DTD SVG 1.1//EN"
       "http://www.w3.org/Graphics/SVG/1.1/DTD/svg11.dtd">
<svg version="1.1" xmlns="http://www.w3.org/2000/svg" xmlns:xlink="http://www.w3.org/1999/xlink" viewBox="0 0 24.6289 32.8809">
 <g>
  <rect height="32.8809" opacity="0" width="24.6289" x="0" y="0"/>
  <path d="M12.0508 1.75781C14.8145 1.75781 17.3047 2.74414 19.1895 4.48242C19.6289 4.87305 20.1367 4.98047 20.5176 4.63867C20.918 4.29688 20.918 3.69141 20.4688 3.28125C18.252 1.20117 15.2832 0 12.0508 0C8.82812 0 5.85938 1.20117 3.63281 3.28125C3.18359 3.69141 3.18359 4.29688 3.58398 4.63867C3.97461 4.98047 4.48242 4.87305 4.91211 4.48242C6.80664 2.74414 9.29688 1.75781 12.0508 1.75781Z" fill="black" fill-opacity="0.85"/>
  <path d="M12.0898 6.74805C13.457 6.74805 14.7266 7.1582 15.6738 7.98828C16.1328 8.33008 16.6211 8.4668 17.002 8.125C17.4023 7.77344 17.4121 7.12891 16.9336 6.74805C15.6152 5.64453 13.916 5 12.0898 5C10.2637 5 8.56445 5.64453 7.24609 6.74805C6.76758 7.12891 6.77734 7.77344 7.17773 8.125C7.56836 8.4668 8.04688 8.32031 8.50586 7.98828C9.50195 7.20703 10.7227 6.74805 12.0898 6.74805Z" fill="black" fill-opacity="0.85"/>
  <path d="M12.1387 26.8652C14.6777 26.8652 17.9199 26.7773 20.2148 26.6309L20.2148 28.3691C20.2148 29.1113 20.8008 29.6973 21.5527 29.6973L22.9199 29.6973C23.6719 29.6973 24.2676 29.1113 24.2676 28.3691L24.2676 22.5C24.2676 20.7324 23.8965 19.7754 22.9785 18.5938L22.0898 17.4707C21.7188 15.6055 21.0352 13.6523 20.6836 12.9004C20.127 11.7383 19.0723 11.0742 17.7539 10.9082C17.0703 10.8203 14.7168 10.7617 12.1387 10.7617C9.55078 10.7617 7.19727 10.8203 6.51367 10.9082C5.19531 11.0742 4.14062 11.7383 3.58398 12.9004C3.23242 13.6523 2.54883 15.6055 2.17773 17.4707L1.28906 18.5938C0.371094 19.7754 0 20.7324 0 22.5L0 28.3691C0 29.1113 0.595703 29.6973 1.34766 29.6973L2.71484 29.6973C3.4668 29.6973 4.05273 29.1113 4.05273 28.3691L4.05273 26.6309C6.34766 26.7773 9.58984 26.8652 12.1387 26.8652ZM4.19922 16.6309C4.45312 15.4199 4.95117 14.0039 5.2832 13.4082C5.57617 12.9102 5.91797 12.6562 6.5332 12.5684C7.33398 12.4707 9.10156 12.4023 12.1387 12.4023C15.166 12.4023 16.9336 12.4512 17.7344 12.5684C18.3496 12.6562 18.6816 12.9102 18.9844 13.4082C19.3262 13.9941 19.7852 15.4199 20.0684 16.6309C20.1562 16.9824 20.0195 17.1484 19.6289 17.1289C17.8809 17.002 15.8789 16.9043 12.1387 16.9043C8.38867 16.9043 6.38672 17.002 4.63867 17.1289C4.24805 17.1484 4.12109 16.9824 4.19922 16.6309ZM4.70703 24.082C3.80859 24.082 3.125 23.3887 3.125 22.4902C3.125 21.5918 3.80859 20.9277 4.70703 20.9277C5.60547 20.9277 6.26953 21.5918 6.26953 22.4902C6.26953 23.3887 5.60547 24.082 4.70703 24.082ZM9.46289 23.7207C8.78906 23.7207 8.32031 23.2715 8.32031 22.5977C8.32031 21.9238 8.78906 21.4746 9.46289 21.4746L14.8047 21.4746C15.4785 21.4746 15.9473 21.9238 15.9473 22.5977C15.9473 23.2715 15.4785 23.7207 14.8047 23.7207ZM19.5605 24.082C18.6621 24.082 17.998 23.3887 17.998 22.4902C17.998 21.5918 18.6621 20.9277 19.5605 20.9277C20.459 20.9277 21.1426 21.5918 21.1426 22.4902C21.1426 23.3887 20.459 24.082 19.5605 24.082Z" fill="black" fill-opacity="0.85"/>
 </g>
</svg>
