<?xml version="1.0" encoding="UTF-8"?>
<!--Generator: Apple Native CoreSVG 326-->
<!DOCTYPE svg
PUBLIC "-//W3C//DTD SVG 1.1//EN"
       "http://www.w3.org/Graphics/SVG/1.1/DTD/svg11.dtd">
<svg version="1.1" xmlns="http://www.w3.org/2000/svg" xmlns:xlink="http://www.w3.org/1999/xlink" viewBox="0 0 27.8027 32.3535">
 <g>
  <rect height="32.3535" opacity="0" width="27.8027" x="0" y="0"/>
  <path d="M13.7207 6.99219C14.1406 6.99219 14.3945 6.73828 14.4043 6.26953L14.5312 0.800781C14.541 0.341797 14.1895 0 13.7109 0C13.2227 0 12.8906 0.332031 12.9004 0.800781L13.0176 6.26953C13.0273 6.72852 13.2812 6.99219 13.7207 6.99219ZM13.7207 10.2246C14.2676 10.2246 14.7266 9.79492 14.7266 9.24805C14.7266 8.70117 14.2676 8.27148 13.7207 8.27148C13.1641 8.27148 12.7051 8.71094 12.7051 9.24805C12.7051 9.78516 13.1738 10.2246 13.7207 10.2246ZM27.4414 10.0293L27.4414 8.55469C27.041 8.75977 26.6406 8.97461 26.2305 9.23828L22.4805 11.6016L18.3301 12.1094C15.8691 12.4121 14.3652 13.9355 14.3652 16.0352L14.3652 17.2559C14.3652 19.2676 15.2734 20.1953 17.1973 20.1953L18.5059 20.1953L18.5059 18.9258L17.1973 18.9258C16.1328 18.9258 15.6348 18.3789 15.6348 17.207L15.6348 16.0352C15.6348 14.6289 16.6895 13.584 18.4863 13.3594L22.2168 12.9102C22.793 12.8418 23.1152 12.7246 23.4961 12.4902L26.9141 10.332C27.0898 10.2246 27.2656 10.1172 27.4414 10.0293ZM27.4414 20.1953L27.4414 18.9258L23.4082 18.9258L23.4082 20.1953ZM21.0449 22.1875C22.8223 22.1875 24.2188 20.791 24.2188 19.0137C24.2188 17.2363 22.8223 15.8496 21.0449 15.8496C19.2578 15.8496 17.8809 17.2363 17.8809 19.0137C17.8809 20.791 19.2578 22.1875 21.0449 22.1875ZM21.0449 20.9863C19.9512 20.9863 19.0723 20.1172 19.0723 19.0137C19.0723 17.9102 19.9512 17.041 21.0449 17.041C22.1484 17.041 23.0176 17.9102 23.0176 19.0137C23.0176 20.1172 22.1484 20.9863 21.0449 20.9863ZM5.47852 22.1875C7.25586 22.1875 8.64258 20.791 8.64258 19.0137C8.64258 17.2363 7.25586 15.8496 5.47852 15.8496C3.69141 15.8496 2.30469 17.2363 2.30469 19.0137C2.30469 20.791 3.69141 22.1875 5.47852 22.1875ZM5.47852 20.9863C4.375 20.9863 3.49609 20.1172 3.49609 19.0137C3.49609 17.9102 4.375 17.041 5.47852 17.041C6.57227 17.041 7.44141 17.9102 7.44141 19.0137C7.44141 20.1172 6.57227 20.9863 5.47852 20.9863ZM0 18.9258L0 20.1953L3.21289 20.1953L3.21289 18.9258ZM7.98828 20.1953L9.31641 20.1953C11.2695 20.1953 12.1484 19.2578 12.1484 17.207L12.1484 14.6484C12.1484 12.9785 11.3672 11.9434 9.63867 11.3965L8.1543 10.918C6.08398 9.16016 3.75 7.48047 0.576172 7.48047L0 7.48047L0 8.75L0.576172 8.75C2.92969 8.75 4.80469 9.72656 7.11914 11.748C7.5293 12.1094 7.73438 12.1973 8.22266 12.3535L9.26758 12.6855C10.3809 13.0371 10.8789 13.6133 10.8789 14.6484L10.8789 17.207C10.8789 18.3789 10.3809 18.9258 9.31641 18.9258L7.98828 18.9258Z" fill="black" fill-opacity="0.85"/>
  <path d="M8.22266 31.6797C10.3027 31.6797 11.3184 30.127 11.3184 28.0957C11.3184 26.0449 10.293 24.4922 8.22266 24.4922C6.2207 24.4922 5.13672 26.0059 5.13672 28.0957C5.13672 30.0977 6.14258 31.6797 8.22266 31.6797ZM8.22266 30.498C7.01172 30.498 6.57227 29.2676 6.57227 28.0957C6.57227 26.8457 7.06055 25.6738 8.22266 25.6738C9.46289 25.6738 9.88281 26.9238 9.88281 28.0957C9.88281 29.375 9.39453 30.498 8.22266 30.498ZM13.2031 31.6016C13.7012 31.6016 13.9062 31.2793 13.9062 30.8789L13.9062 28.7891L16.0352 28.7891C16.3965 28.7891 16.6309 28.584 16.6309 28.2227C16.6309 27.8711 16.4062 27.6562 16.0352 27.6562L13.9062 27.6562L13.9062 25.8301L16.25 25.8301C16.6504 25.8301 16.875 25.6152 16.875 25.2441C16.875 24.873 16.6504 24.6484 16.25 24.6484L13.1934 24.6484C12.7832 24.6484 12.5 24.9219 12.5 25.3809L12.5 30.8789C12.5 31.2695 12.7148 31.6016 13.2031 31.6016ZM18.623 31.6016C19.1211 31.6016 19.3262 31.2793 19.3262 30.8789L19.3262 28.7891L21.4453 28.7891C21.8164 28.7891 22.0508 28.584 22.0508 28.2227C22.0508 27.8711 21.8262 27.6562 21.4453 27.6562L19.3262 27.6562L19.3262 25.8301L21.6602 25.8301C22.0605 25.8301 22.2949 25.6152 22.2949 25.2441C22.2949 24.873 22.0605 24.6484 21.6602 24.6484L18.6133 24.6484C18.2031 24.6484 17.9199 24.9219 17.9199 25.3809L17.9199 30.8789C17.9199 31.2695 18.125 31.6016 18.623 31.6016Z" fill="black" fill-opacity="0.85"/>
 </g>
</svg>
