<?xml version="1.0" encoding="UTF-8"?>
<!--Generator: Apple Native CoreSVG 326-->
<!DOCTYPE svg
PUBLIC "-//W3C//DTD SVG 1.1//EN"
       "http://www.w3.org/Graphics/SVG/1.1/DTD/svg11.dtd">
<svg version="1.1" xmlns="http://www.w3.org/2000/svg" xmlns:xlink="http://www.w3.org/1999/xlink" viewBox="0 0 28.9182 29.6973">
 <g>
  <rect height="29.6973" opacity="0" width="28.9182" x="0" y="0"/>
  <path d="M1.92491 29.5312L1.99327 29.5312C5.81163 29.5312 6.14366 26.9727 8.2921 26.9727C10.3917 26.9727 10.9386 29.5312 14.2784 29.5312C17.6183 29.5312 18.1554 26.9727 20.2648 26.9727C22.4132 26.9727 22.7452 29.5312 26.5636 29.5312L26.6319 29.5312C27.0519 29.5312 27.3937 29.1895 27.3937 28.7695C27.3937 28.3398 27.0519 27.998 26.6319 27.998L26.5636 27.998C25.1671 27.998 24.3761 27.4121 23.4288 26.748C22.6085 26.1523 21.6222 25.4395 20.2648 25.4395C18.8585 25.4395 17.8526 26.1914 17.0323 26.8066C16.1632 27.4609 15.4503 27.998 14.2784 27.998C13.1066 27.998 12.3937 27.4609 11.5245 26.8066C10.7042 26.1914 9.69835 25.4395 8.2921 25.4395C6.93468 25.4395 5.94835 26.1523 5.12804 26.748C4.18077 27.4121 3.38976 27.998 1.99327 27.998L1.92491 27.998C1.50499 27.998 1.1632 28.3398 1.1632 28.7695C1.1632 29.1895 1.50499 29.5312 1.92491 29.5312ZM0.479602 21.6309L3.64366 25.8789C3.82921 25.7617 4.01476 25.625 4.21984 25.4785C5.51866 24.5312 6.7296 23.8867 8.2921 23.8867C9.9132 23.8867 11.1241 24.5703 12.4523 25.5566C13.3409 26.2305 13.6632 26.4453 14.2784 26.4453C14.8741 26.4453 15.1964 26.2305 15.9679 25.6543C17.3644 24.5898 18.6046 23.8867 20.2648 23.8867C21.8273 23.8867 23.0284 24.5312 24.337 25.4785C24.5421 25.625 24.7276 25.7617 24.9034 25.8789L28.0675 21.6309C29.0929 20.2832 28.4386 18.6914 26.6515 18.6914L1.90538 18.6914C0.118274 18.6914-0.536023 20.293 0.479602 21.6309ZM7.09093 5.3125C7.33507 4.20898 7.78429 2.91992 8.08702 2.39258C8.3507 1.93359 8.6632 1.69922 9.2296 1.63086C9.94249 1.5332 11.5538 1.47461 14.2784 1.47461C17.003 1.47461 18.6144 1.51367 19.337 1.63086C19.9034 1.70898 20.2062 1.93359 20.4698 2.39258C20.7823 2.91992 21.2023 4.20898 21.4659 5.3125C21.5441 5.625 21.4171 5.77148 21.0558 5.75195C19.4835 5.64453 17.6671 5.55664 14.2784 5.55664C10.8995 5.55664 9.08312 5.64453 7.50109 5.75195C7.14952 5.77148 7.02257 5.625 7.09093 5.3125ZM7.55968 12.0215C6.74913 12.0215 6.1339 11.416 6.1339 10.6055C6.1339 9.79492 6.74913 9.18945 7.55968 9.18945C8.36046 9.18945 8.9757 9.79492 8.9757 10.6055C8.9757 11.416 8.36046 12.0215 7.55968 12.0215ZM11.8663 11.7188C11.2609 11.7188 10.8507 11.3086 10.8507 10.7031C10.8507 10.0977 11.2609 9.6875 11.8663 9.6875L16.7003 9.6875C17.296 9.6875 17.7159 10.0977 17.7159 10.7031C17.7159 11.3086 17.296 11.7188 16.7003 11.7188ZM21.0069 12.0215C20.1964 12.0215 19.5909 11.416 19.5909 10.6055C19.5909 9.79492 20.1964 9.18945 21.0069 9.18945C21.8175 9.18945 22.423 9.79492 22.423 10.6055C22.423 11.416 21.8175 12.0215 21.0069 12.0215ZM14.2784 14.5605C17.3741 14.5605 21.5245 14.4043 23.2921 14.1992C24.4933 14.0625 25.1866 13.418 25.1866 12.2461L25.1866 10.6055C25.1866 9.01367 24.8351 8.1543 24.0148 7.08984L23.2237 6.05469C22.8819 4.38477 22.2569 2.61719 21.9347 1.92383C21.4464 0.878906 20.4796 0.292969 19.298 0.136719C18.673 0.0488281 16.6026 0 14.2784 0C11.9542 0 9.8839 0.0585938 9.2589 0.136719C8.07726 0.283203 7.12023 0.878906 6.62218 1.92383C6.29991 2.61719 5.68468 4.38477 5.34288 6.05469L4.5421 7.08984C3.72179 8.1543 3.37999 9.01367 3.37999 10.6055L3.37999 12.2461C3.37999 13.418 4.06359 14.0625 5.27452 14.1992C7.03234 14.4043 11.1925 14.5605 14.2784 14.5605ZM4.59093 17.0801L5.67491 17.0801C6.35851 17.0801 6.88585 16.5527 6.88585 15.8789L6.88585 13.5938L3.37999 11.9141L3.37999 15.8789C3.37999 16.5527 3.90734 17.0801 4.59093 17.0801ZM22.8917 17.0801L23.9659 17.0801C24.6495 17.0801 25.1866 16.5527 25.1866 15.8789L25.1866 11.9141L21.671 13.5938L21.671 15.8789C21.671 16.5527 22.1984 17.0801 22.8917 17.0801Z" fill="black" fill-opacity="0.85"/>
 </g>
</svg>
