<?xml version="1.0" encoding="UTF-8"?>
<!--Generator: Apple Native CoreSVG 326-->
<!DOCTYPE svg
PUBLIC "-//W3C//DTD SVG 1.1//EN"
       "http://www.w3.org/Graphics/SVG/1.1/DTD/svg11.dtd">
<svg version="1.1" xmlns="http://www.w3.org/2000/svg" xmlns:xlink="http://www.w3.org/1999/xlink" viewBox="0 0 31.9273 19.0319">
 <g>
  <rect height="19.0319" opacity="0" width="31.9273" x="0" y="0"/>
  <path d="M2.23806 18.8275C3.00954 18.8275 3.24392 18.4466 3.33181 17.9193C4.48415 11.6107 7.09157 6.46421 12.5603 0.897808C12.8338 0.604839 12.6189 0.223979 12.2967 0.223979L11.8084 0.223979C11.5252 0.223979 11.3201 0.282573 10.9295 0.585308C6.41775 4.14 1.80837 9.68687 0.0310266 17.8216C-0.0861609 18.3587 0.118917 18.8275 0.812277 18.8275ZM30.8416 18.8275C31.447 18.8275 31.6912 18.3978 31.4959 17.8412C29.3767 12.2845 28.9763 7.03062 30.3924 0.848979C30.49 0.429058 30.2263 0.223979 29.9041 0.223979L29.4256 0.223979C29.074 0.223979 28.8494 0.341167 28.742 0.673198C26.8474 6.52281 26.9353 12.4408 28.3904 18.1634C28.4881 18.5638 28.7517 18.8275 29.3279 18.8275Z" fill="black" fill-opacity="0.85"/>
  <path d="M7.15017 16.1127C7.08181 16.5912 7.40407 17.0209 7.89235 17.0892L8.65407 17.1966C9.14235 17.265 9.57204 16.9427 9.6404 16.4642L9.76735 15.556L20.2849 17.0306L20.158 17.9388C20.0896 18.4173 20.4119 18.847 20.9002 18.9154L21.6717 19.0228C22.1599 19.0912 22.5896 18.7689 22.658 18.2904L23.2537 13.9935C23.4197 12.8607 23.322 12.1869 22.7849 11.3763L22.2381 10.556L21.8084 8.4271C21.5838 7.29429 20.9392 6.73765 20.0408 6.50328C19.6111 6.38609 18.1463 6.14195 16.4861 5.90757C14.8259 5.6732 13.3513 5.50718 12.9021 5.49742C11.9744 5.47789 11.2029 5.82945 10.6756 6.8646L9.67946 8.78843L8.92751 9.43296C8.18532 10.058 7.91189 10.683 7.74587 11.8158ZM11.408 8.97398C11.1052 8.92515 11.0271 8.69078 11.1638 8.40757L11.7498 7.25523C11.9939 6.76695 12.2869 6.62046 12.7459 6.62046C13.2342 6.63023 14.4549 6.75718 16.3299 7.02085C18.2049 7.28453 19.406 7.49937 19.8748 7.62632C20.324 7.75328 20.5681 7.96812 20.6658 8.50523L20.9099 9.78453C20.9685 10.0873 20.822 10.2923 20.5193 10.2533ZM9.9529 13.0072C9.56228 12.9486 9.31814 12.6263 9.36696 12.2455L9.51345 11.1908C9.57204 10.8099 9.89431 10.5755 10.2849 10.6244C10.6658 10.683 10.9099 10.9955 10.8513 11.3763L10.7049 12.431C10.656 12.8216 10.3338 13.056 9.9529 13.0072ZM13.8982 13.2513C13.5955 13.2123 13.4295 12.9779 13.4685 12.6459L13.5759 11.9232C13.615 11.6009 13.8494 11.4349 14.1521 11.474L17.1599 11.9037C17.4724 11.9427 17.6482 12.1673 17.5994 12.4896L17.492 13.2123C17.4529 13.5443 17.2185 13.7201 16.9158 13.681ZM20.8709 14.5404C20.49 14.4818 20.2459 14.1595 20.2947 13.7787L20.4412 12.724C20.4998 12.3529 20.8318 12.1087 21.2029 12.1673C21.5935 12.2162 21.8377 12.5287 21.7791 12.9193L21.6326 13.9642C21.5838 14.3548 21.2615 14.5892 20.8709 14.5404Z" fill="black" fill-opacity="0.85"/>
 </g>
</svg>
