<?xml version="1.0" encoding="UTF-8"?>
<!--Generator: Apple Native CoreSVG 326-->
<!DOCTYPE svg
PUBLIC "-//W3C//DTD SVG 1.1//EN"
       "http://www.w3.org/Graphics/SVG/1.1/DTD/svg11.dtd">
<svg version="1.1" xmlns="http://www.w3.org/2000/svg" xmlns:xlink="http://www.w3.org/1999/xlink" viewBox="0 0 34.5605 31.7676">
 <g>
  <rect height="31.7676" opacity="0" width="34.5605" x="0" y="0"/>
  <path d="M17.0996 31.748C23.1543 31.748 25.8691 30.3613 25.8691 27.1484L25.8691 5.5957C25.8691 2.05078 22.6562 0 17.0996 0C11.543 0 8.33008 2.05078 8.33008 5.5957L8.33008 27.1484C8.33008 30.3613 11.0449 31.748 17.0996 31.748ZM17.0996 13.125C15.8496 13.125 13.9648 13.2227 13.3105 13.2227C12.3535 13.2227 11.9141 12.8516 11.8262 11.8457L11.6309 9.53125C11.4648 7.69531 12.6562 6.91406 17.0996 6.91406C21.543 6.91406 22.7441 7.69531 22.5781 9.53125L22.373 11.8457C22.2852 12.8516 21.8555 13.2227 20.8887 13.2227C20.2441 13.2227 18.2324 13.125 17.0996 13.125ZM17.0996 26.875C12.7637 26.875 11.4551 26.2305 11.6992 24.3555L11.8457 23.2031C12.0508 21.6895 13.3105 21.1719 17.0996 21.1719C20.8887 21.1719 22.1582 21.6895 22.3535 23.2031L22.5 24.3555C22.7441 26.2305 21.4453 26.875 17.0996 26.875ZM9.0918 12.1875L9.0918 9.44336L7.37305 9.44336C6.73828 9.44336 6.25977 9.89258 6.25977 10.498L6.25977 11.1328C6.25977 11.7285 6.73828 12.1875 7.37305 12.1875ZM25.1172 12.1875L26.8262 12.1875C27.4609 12.1875 27.9395 11.7285 27.9395 11.1328L27.9395 10.498C27.9395 9.89258 27.4609 9.44336 26.8262 9.44336L25.1172 9.44336Z" fill="black" fill-opacity="0.85"/>
  <path d="M34.5605 24.668L34.5605 19.043C34.5605 18.4277 34.0527 18.1543 33.5254 18.4766L29.0332 21.2305C28.5254 21.543 28.5156 22.168 29.0332 22.4902L33.5254 25.2148C34.0527 25.5371 34.5605 25.293 34.5605 24.668Z" fill="black" fill-opacity="0.85"/>
 </g>
</svg>
