<?xml version="1.0" encoding="UTF-8"?>
<!--Generator: Apple Native CoreSVG 326-->
<!DOCTYPE svg
PUBLIC "-//W3C//DTD SVG 1.1//EN"
       "http://www.w3.org/Graphics/SVG/1.1/DTD/svg11.dtd">
<svg version="1.1" xmlns="http://www.w3.org/2000/svg" xmlns:xlink="http://www.w3.org/1999/xlink" viewBox="0 0 26.6504 24.0723">
 <g>
  <rect height="24.0723" opacity="0" width="26.6504" x="0" y="0"/>
  <path d="M3.26172 23.8672L23.0176 23.8672C25.0586 23.8672 26.2891 22.4414 26.2891 20.6348C26.2891 20.0488 26.123 19.4434 25.8008 18.8867L15.9277 1.62109C15.3125 0.537109 14.2285 0 13.1445 0C12.0508 0 10.9766 0.537109 10.3613 1.62109L0.488281 18.8867C0.15625 19.4531 0 20.0488 0 20.6348C0 22.4414 1.23047 23.8672 3.26172 23.8672ZM3.28125 22.1777C2.31445 22.1777 1.73828 21.4453 1.73828 20.625C1.73828 20.332 1.81641 20 1.98242 19.6875L11.8359 2.44141C12.1289 1.92383 12.6465 1.71875 13.1445 1.71875C13.6426 1.71875 14.1504 1.92383 14.4336 2.44141L24.2969 19.6973C24.4629 20.0098 24.541 20.332 24.541 20.625C24.541 21.4453 23.9551 22.1777 22.9883 22.1777Z" fill="black" fill-opacity="0.85"/>
  <path d="M6.5332 19.6387C6.5332 20.0488 6.8457 20.3613 7.27539 20.3613L7.91992 20.3613C8.33008 20.3613 8.65234 20.0488 8.65234 19.6387L8.65234 18.8672L17.5586 18.8672L17.5586 19.6387C17.5586 20.0488 17.8809 20.3613 18.291 20.3613L18.9355 20.3613C19.3652 20.3613 19.668 20.0488 19.668 19.6387L19.668 16.0254C19.668 15.0586 19.5215 14.5117 18.9648 13.9062L18.4277 13.2812L17.8223 11.5527C17.5 10.6445 16.8945 10.2539 16.1328 10.1758C15.752 10.1172 14.502 10.0977 13.1055 10.0977C11.6992 10.0977 10.4492 10.1172 10.0781 10.1758C9.31641 10.2539 8.70117 10.6445 8.38867 11.5527L7.7832 13.2812L7.23633 13.9062C6.67969 14.5117 6.5332 15.0586 6.5332 16.0254ZM9.22852 13.2227C8.97461 13.2227 8.89648 13.0371 8.97461 12.7832L9.31641 11.7578C9.46289 11.3184 9.69727 11.1621 10.0879 11.1035C10.4883 11.0645 11.5039 11.0156 13.1055 11.0156C14.707 11.0156 15.7129 11.0645 16.1133 11.1035C16.5039 11.1621 16.7285 11.3281 16.8848 11.7578L17.2363 12.7832C17.3145 13.0371 17.2266 13.2227 16.9727 13.2227ZM8.49609 16.748C8.16406 16.748 7.91992 16.5234 7.91992 16.1816L7.91992 15.293C7.91992 14.9707 8.16406 14.7461 8.49609 14.7461C8.80859 14.7461 9.05273 14.9609 9.05273 15.293L9.05273 16.1816C9.05273 16.5234 8.80859 16.748 8.49609 16.748ZM11.8066 16.5039C11.543 16.5039 11.3867 16.3379 11.3867 16.0449L11.3867 15.4297C11.3867 15.1562 11.543 14.9902 11.8066 14.9902L14.3652 14.9902C14.6289 14.9902 14.7949 15.1562 14.7949 15.4297L14.7949 16.0449C14.7949 16.3379 14.6289 16.5039 14.3652 16.5039ZM17.7539 16.748C17.4414 16.748 17.1973 16.5234 17.1973 16.1816L17.1973 15.293C17.1973 14.9805 17.4414 14.7461 17.7539 14.7461C18.0762 14.7461 18.3203 14.9609 18.3203 15.293L18.3203 16.1816C18.3203 16.5234 18.0762 16.748 17.7539 16.748Z" fill="black" fill-opacity="0.85"/>
 </g>
</svg>
