<?xml version="1.0" encoding="UTF-8"?>
<!--Generator: Apple Native CoreSVG 326-->
<!DOCTYPE svg
PUBLIC "-//W3C//DTD SVG 1.1//EN"
       "http://www.w3.org/Graphics/SVG/1.1/DTD/svg11.dtd">
<svg version="1.1" xmlns="http://www.w3.org/2000/svg" xmlns:xlink="http://www.w3.org/1999/xlink" viewBox="0 0 24.043 20.0293">
 <g>
  <rect height="20.0293" opacity="0" width="24.043" x="0" y="0"/>
  <path d="M12.4512 19.9121C14.5703 19.9121 16.2207 18.252 16.2207 16.1426C16.2207 14.0332 14.5703 12.3828 12.4512 12.3828C10.3418 12.3828 8.68164 14.0332 8.68164 16.1426C8.68164 18.252 10.3418 19.9121 12.4512 19.9121ZM15.3906 4.76562L16.6504 5.78125L19.9023 2.42188C20.1855 2.11914 20.5078 2.00195 20.8984 2.00195L22.8809 2.00195C23.3691 2.00195 23.6816 1.67969 23.6816 1.2207C23.6816 0.751953 23.3691 0.439453 22.8809 0.439453L21.0742 0.439453C20.0977 0.439453 19.2969 0.712891 18.6426 1.39648ZM0 0.195312L0 17.3047L7.44141 17.3047C7.37305 16.9238 7.32422 16.543 7.32422 16.1426C7.32422 13.2812 9.58008 11.0254 12.4512 11.0254C15.3223 11.0254 17.5781 13.2812 17.5781 16.1426C17.5781 16.543 17.5293 16.9238 17.4512 17.3047L18.2715 17.3047C20.9082 17.3047 22.1191 16.0254 22.1191 13.2422L22.1191 9.75586C22.1191 7.49023 21.0352 6.11328 18.7012 5.3418L16.6895 4.66797C13.9844 2.42188 10.6641 0 5.94727 0L4.13086 0C2.5 0 1.15234 0.0488281 0 0.195312Z" fill="black" fill-opacity="0.85"/>
 </g>
</svg>
