<?xml version="1.0" encoding="UTF-8"?>
<!--Generator: Apple Native CoreSVG 326-->
<!DOCTYPE svg
PUBLIC "-//W3C//DTD SVG 1.1//EN"
       "http://www.w3.org/Graphics/SVG/1.1/DTD/svg11.dtd">
<svg version="1.1" xmlns="http://www.w3.org/2000/svg" xmlns:xlink="http://www.w3.org/1999/xlink" viewBox="0 0 28.5645 20.0293">
 <g>
  <rect height="20.0293" opacity="0" width="28.5645" x="0" y="0"/>
  <path d="M20.752 14.9902L20.498 16.416L27.5098 16.416C27.9004 16.416 28.2031 16.084 28.2031 15.6934C28.2031 15.3027 27.9004 14.9902 27.5098 14.9902ZM24.5703 13.5645L26.6113 13.5645C26.7285 13.5645 26.8555 13.5352 26.9629 13.457C27.5098 13.0176 27.8711 12.3633 27.8711 11.6211C27.8711 10.3906 26.8457 9.3457 25.5859 9.3457C24.3359 9.3457 23.3008 10.3906 23.3008 11.6211C23.3008 12.3633 23.6719 13.0176 24.209 13.457C24.3164 13.5352 24.4531 13.5645 24.5703 13.5645ZM25.5859 18.0664C26.0254 18.0664 26.3574 17.7148 26.3574 17.2852L26.3574 13.4863L24.7949 13.4863L24.7949 17.2852C24.7949 17.7148 25.1562 18.0664 25.5859 18.0664ZM13.0566 20.0098C15.4785 20.0098 17.373 18.1152 17.373 15.6934C17.373 13.2715 15.4785 11.3867 13.0566 11.3867C10.6348 11.3867 8.75 13.2715 8.75 15.6934C8.75 18.1152 10.6348 20.0098 13.0566 20.0098ZM13.0566 18.3789C11.5625 18.3789 10.3809 17.1973 10.3809 15.6934C10.3809 14.1992 11.5625 13.0176 13.0566 13.0176C14.5605 13.0176 15.7422 14.1992 15.7422 15.6934C15.7422 17.1973 14.5605 18.3789 13.0566 18.3789ZM0 15.5664L0 17.3047L9.98047 17.3047L9.98047 15.5664ZM0 0.195312L0 1.93359C1.13281 1.78711 2.45117 1.73828 4.16016 1.73828L5.9668 1.73828C9.38477 1.73828 12.0215 2.95898 15.293 5.83008C15.8496 6.30859 16.1426 6.42578 16.8066 6.64062L18.2129 7.08984C19.7363 7.58789 20.4004 8.34961 20.4004 9.75586L20.4004 13.2422C20.4004 14.834 19.7363 15.5664 18.291 15.5664L16.4746 15.5664L16.4746 17.3047L18.291 17.3047C20.9277 17.3047 22.1387 16.0254 22.1387 13.2422L22.1387 9.75586C22.1387 7.49023 21.0547 6.11328 18.7207 5.3418L16.709 4.66797C14.0039 2.42188 10.6836 0 5.9668 0L4.16016 0C2.50977 0 1.17188 0.0488281 0 0.195312Z" fill="black" fill-opacity="0.85"/>
 </g>
</svg>
