<?xml version="1.0" encoding="UTF-8"?>
<!--Generator: Apple Native CoreSVG 326-->
<!DOCTYPE svg
PUBLIC "-//W3C//DTD SVG 1.1//EN"
       "http://www.w3.org/Graphics/SVG/1.1/DTD/svg11.dtd">
<svg version="1.1" xmlns="http://www.w3.org/2000/svg" xmlns:xlink="http://www.w3.org/1999/xlink" viewBox="0 0 36.0332 29.6607">
 <g>
  <rect height="29.6607" opacity="0" width="36.0332" x="0" y="0"/>
  <path d="M8.79784 10.6946L3.60253 23.634C3.40722 24.1223 3.08495 24.4251 2.43066 24.4251L0.877921 24.4251C0.0380769 24.4251-0.167001 23.7903 0.125968 23.2141L6.46386 10.5286C6.63964 10.2063 6.86425 10.0403 7.22558 10.0403L8.40722 10.0403C8.77831 10.0403 8.94433 10.3333 8.79784 10.6946ZM29.1982 10.5286L35.5459 23.2141C35.8389 23.7903 35.624 24.4251 34.7939 24.4251L33.2412 24.4251C32.5869 24.4251 32.2549 24.1223 32.0693 23.634L26.874 10.6946C26.7275 10.3333 26.8935 10.0403 27.2646 10.0403L28.4365 10.0403C28.8076 10.0403 29.042 10.2063 29.1982 10.5286Z" fill="black" fill-opacity="0.85"/>
  <path d="M13.1 13.2218C13.06 13.618 12.7433 13.9075 12.333 13.9075L11.6396 13.9075C11.21 13.9075 10.8682 13.5657 10.8682 13.136L10.8682 10.9917ZM21.0342 3.09693C21.8447 3.19459 22.4795 3.59498 22.8213 4.57154L23.456 6.38794L24.042 7.04224C24.6182 7.69654 24.7842 8.27271 24.7842 9.28834L24.7842 13.136C24.7842 13.5754 24.4424 13.9075 24.0029 13.9075L23.3193 13.9075C22.8799 13.9075 22.5381 13.5754 22.5381 13.136L22.5381 12.3254L18.4215 12.3254L12.2702 6.1765L12.831 4.57154C13.1728 3.59498 13.8076 3.19459 14.6182 3.09693C15.0185 3.0481 16.3369 3.00904 17.8213 3.00904C19.3154 3.00904 20.6338 3.0481 21.0342 3.09693ZM22.1475 8.51685L22.1475 9.46412C22.1475 9.80591 22.4111 10.0598 22.7432 10.0598C23.0947 10.0598 23.3486 9.81568 23.3486 9.46412L23.3486 8.51685C23.3486 8.17505 23.0947 7.93091 22.7432 7.93091C22.4111 7.93091 22.1475 8.18482 22.1475 8.51685ZM16.4541 8.20435C16.1807 8.20435 16.0049 8.38013 16.0049 8.66334L16.0049 9.31763C16.0049 9.6106 16.1807 9.79615 16.4541 9.79615L19.1592 9.79615C19.4326 9.79615 19.6182 9.6106 19.6182 9.31763L19.6182 8.66334C19.6182 8.38013 19.4326 8.20435 19.1592 8.20435ZM14.6279 4.10279C14.2178 4.15162 13.9736 4.31763 13.8271 4.77662L13.456 5.87037C13.3682 6.12427 13.4658 6.32935 13.7392 6.32935L21.9131 6.32935C22.1865 6.32935 22.2842 6.12427 22.1963 5.87037L21.8252 4.77662C21.6689 4.31763 21.4248 4.15162 21.0146 4.10279C20.5947 4.04419 19.5107 4.00513 17.8213 4.00513C16.1416 4.00513 15.0576 4.04419 14.6279 4.10279Z" fill="black" fill-opacity="0.85"/>
  <path d="M15.6604 15.7803L18.4732 18.5909L18.9248 19.054L18.9271 19.0444L23.1894 23.3034L21.874 23.6926L24.4326 28.4876C24.6377 28.8684 24.2568 29.1809 23.9346 28.8879L19.6084 24.9915L17.0303 29.2297C16.8838 29.4739 16.5615 29.4348 16.5517 29.093L16.5127 25.7141L12.499 26.6223C12.0791 26.72 11.9521 26.261 12.2549 26.0559L15.4287 23.9075L13.085 23.7415C12.6943 23.7122 12.6357 23.3215 12.9971 23.1848L15.1064 22.4036L11.6103 20.2844C11.2685 20.0891 11.3955 19.679 11.8057 19.7376L15.5166 20.2551L14.7158 19.2102C14.4717 18.8879 14.706 18.6438 15.0381 18.7903L16.4736 19.4348L15.3701 16.1829C15.2801 15.8979 15.455 15.7224 15.6604 15.7803Z" fill="black" fill-opacity="0.85"/>
  <path d="M29.8721 28.0481C30.1943 28.3801 30.7217 28.3801 31.0439 28.0481C31.3662 27.7161 31.376 27.1985 31.0439 26.8762L5.79003 1.62232C5.46776 1.30005 4.94042 1.29029 4.59862 1.62232C4.27636 1.93482 4.27636 2.48169 4.59862 2.80396Z" fill="black" fill-opacity="0.85"/>
 </g>
</svg>
