<?xml version="1.0" encoding="UTF-8"?>
<!--Generator: Apple Native CoreSVG 326-->
<!DOCTYPE svg
PUBLIC "-//W3C//DTD SVG 1.1//EN"
       "http://www.w3.org/Graphics/SVG/1.1/DTD/svg11.dtd">
<svg version="1.1" xmlns="http://www.w3.org/2000/svg" xmlns:xlink="http://www.w3.org/1999/xlink" viewBox="0 0 33.3105 22.7441">
 <g>
  <rect height="22.7441" opacity="0" width="33.3105" x="0" y="0"/>
  <path d="M31.4648 19.5996C32.2656 19.5996 32.9492 18.9355 32.9492 18.1641C32.9492 17.3633 32.2754 16.7188 31.4648 16.7188C30.6348 16.7188 29.9707 17.3633 29.9707 18.1641C29.9707 18.9355 30.6543 19.5996 31.4648 19.5996ZM31.4648 14.1602C31.9824 14.1602 32.3535 13.7793 32.373 13.2422L32.5879 4.24805C32.6074 3.56445 32.1582 3.11523 31.4648 3.11523C30.7617 3.11523 30.3125 3.56445 30.332 4.24805L30.5469 13.2422C30.5664 13.7793 30.9375 14.1602 31.4648 14.1602Z" fill="black" fill-opacity="0.85"/>
  <path d="M22.1777 22.7441C24.7656 22.7441 25.9863 21.543 25.9863 18.9941L25.9863 12.5586C25.9863 10.8691 25.5078 9.9707 24.1895 8.96484L14.5703 1.66016C12.9883 0.46875 11.7285 0.0292969 9.80469 0.0292969L3.61328 0.0292969C1.24023 0.0292969 0 1.25977 0 3.61328L0 18.9941C0 21.543 1.2207 22.7441 3.80859 22.7441ZM22.4023 11.2402L3.65234 11.2402C2.46094 11.2402 1.72852 10.5273 1.72852 9.30664L1.72852 3.70117C1.72852 2.45117 2.43164 1.75781 3.65234 1.75781L9.80469 1.75781C11.3672 1.75781 12.2852 2.03125 13.3984 2.91992L22.7344 10.0586C23.2812 10.4688 23.1152 11.2402 22.4023 11.2402Z" fill="black" fill-opacity="0.85"/>
 </g>
</svg>
