<?xml version="1.0" encoding="UTF-8"?>
<!--Generator: Apple Native CoreSVG 326-->
<!DOCTYPE svg
PUBLIC "-//W3C//DTD SVG 1.1//EN"
       "http://www.w3.org/Graphics/SVG/1.1/DTD/svg11.dtd">
<svg version="1.1" xmlns="http://www.w3.org/2000/svg" xmlns:xlink="http://www.w3.org/1999/xlink" viewBox="0 0 31.7825 32.2363">
 <g>
  <rect height="32.2363" opacity="0" width="31.7825" x="0" y="0"/>
  <path d="M3.07876 29.1406C4.99282 31.0645 7.45376 32.2266 10.11 32.2266C10.6666 32.2266 11.0377 31.8652 11.0377 31.3672C11.028 30.9082 10.6666 30.5957 10.0514 30.5566C7.91274 30.459 5.84243 29.5898 4.2311 27.9883C2.62954 26.377 1.7604 24.3164 1.66274 22.168C1.61391 21.4844 1.32094 21.2109 0.793601 21.2109C0.373679 21.2012-0.0364776 21.5137 0.00258488 22.0996C0.129538 24.7656 1.16469 27.2266 3.07876 29.1406ZM28.3424 29.1406C30.2663 27.2266 31.2916 24.7656 31.4186 22.0996C31.4577 21.5137 31.0475 21.2012 30.6276 21.2109C30.11 21.2109 29.8073 21.4844 29.7584 22.168C29.6608 24.3164 28.8014 26.377 27.1901 27.9883C25.5788 29.5898 23.5182 30.459 21.3698 30.5566C20.7545 30.5957 20.3932 30.9082 20.3932 31.3672C20.3932 31.8652 20.7643 32.2266 21.3209 32.2266C23.9772 32.2266 26.4284 31.0645 28.3424 29.1406Z" fill="black" fill-opacity="0.85"/>
  <path d="M6.17446 26.0449C7.41469 27.2852 9.09438 27.9199 10.2663 27.9199C10.7741 27.9199 11.1256 27.5879 11.1159 27.1289C11.1159 26.6699 10.8131 26.3477 10.1393 26.2598C9.12368 26.1816 8.15688 25.7227 7.3268 24.9023C6.50649 24.0723 6.05727 23.0957 5.94985 21.9922C5.86196 21.3867 5.63735 21.123 5.10024 21.123C4.62173 21.1133 4.25063 21.4844 4.31899 22.0703C4.44594 23.584 5.08071 24.9609 6.17446 26.0449ZM25.2467 26.0449C26.3502 24.9609 26.985 23.584 27.112 22.0703C27.1803 21.4844 26.7995 21.1133 26.3307 21.123C25.7838 21.123 25.5592 21.3867 25.4713 21.9922C25.3639 23.0957 24.9147 24.0723 24.1041 24.9023C23.2643 25.7227 22.2975 26.1816 21.2819 26.2598C20.6178 26.3477 20.3053 26.6699 20.3053 27.1289C20.3053 27.5879 20.6569 27.9199 21.1647 27.9199C22.3268 27.9199 24.0065 27.2852 25.2467 26.0449Z" fill="black" fill-opacity="0.85"/>
  <path d="M15.7155 24.5703C20.3834 24.5703 22.5807 23.4766 22.5807 20.7812L22.5807 4.42383C22.5807 1.63086 20.0026 0 15.7155 0C11.4186 0 8.85024 1.63086 8.85024 4.42383L8.85024 20.7812C8.85024 23.4766 11.0377 24.5703 15.7155 24.5703ZM15.7155 22.8906C12.0924 22.8906 10.5397 22.2656 10.5397 20.7324L10.5397 4.42383C10.5397 2.68555 12.3561 1.68945 15.7155 1.68945C19.0749 1.68945 20.8717 2.68555 20.8717 4.42383L20.8717 20.7324C20.8717 22.2656 19.3385 22.8906 15.7155 22.8906ZM15.7057 10.332C16.6627 10.332 18.069 10.4199 18.5475 10.4199C19.3092 10.4199 19.6608 10.1074 19.7291 9.29688L19.8854 7.58789C20.0026 6.14258 19.1237 5.55664 15.7057 5.55664C12.2975 5.55664 11.4186 6.14258 11.5456 7.58789L11.692 9.29688C11.7604 10.1074 12.112 10.4199 12.8737 10.4199C13.3522 10.4199 14.8561 10.332 15.7057 10.332ZM15.7057 20.6152C19.0065 20.6152 20.0319 20.127 19.8268 18.6426L19.7096 17.7832C19.5338 16.5918 18.5963 16.2012 15.7057 16.2012C12.8249 16.2012 11.8874 16.5918 11.7116 17.7832L11.5944 18.6426C11.3893 20.127 12.4147 20.6152 15.7057 20.6152ZM9.77798 9.61914L9.77798 7.19727L8.31313 7.19727C7.72719 7.19727 7.28774 7.61719 7.28774 8.16406L7.28774 8.66211C7.28774 9.19922 7.72719 9.61914 8.31313 9.61914ZM21.6432 9.61914L23.1081 9.61914C23.694 9.61914 24.1334 9.19922 24.1334 8.66211L24.1334 8.16406C24.1334 7.61719 23.694 7.19727 23.1081 7.19727L21.6432 7.19727Z" fill="black" fill-opacity="0.85"/>
 </g>
</svg>
