<?xml version="1.0" encoding="UTF-8"?>
<!--Generator: Apple Native CoreSVG 326-->
<!DOCTYPE svg
PUBLIC "-//W3C//DTD SVG 1.1//EN"
       "http://www.w3.org/Graphics/SVG/1.1/DTD/svg11.dtd">
<svg version="1.1" xmlns="http://www.w3.org/2000/svg" xmlns:xlink="http://www.w3.org/1999/xlink" viewBox="0 0 34.0332 34.4263">
 <g>
  <rect height="34.4263" opacity="0" width="34.0332" x="0" y="0"/>
  <path d="M19.1895 23.7182L19.1895 24.5422C19.1895 25.9876 19.7949 26.6516 21.1035 26.6516L21.9388 26.6516L21.9473 26.4771L26.1101 30.6414C26.0153 30.6521 25.9183 30.6555 25.8203 30.6555C24.1469 30.6555 22.7592 29.6554 22.2024 28.2044L21.1035 28.2044C18.7305 28.2044 17.627 27.0813 17.627 24.6008L17.627 23.1067C17.627 22.8046 17.6522 22.5123 17.7038 22.232ZM10.0098 16.8372L11.8262 17.4133C13.9453 18.0872 14.9023 19.3567 14.9023 21.3977L14.9023 24.5422C14.9023 27.0715 13.8281 28.2044 11.4355 28.2044L10.3366 28.2044C9.77988 29.6554 8.39219 30.6555 6.71875 30.6555C5.04531 30.6555 3.6519 29.6554 3.09249 28.2044L0 28.2044L0 26.6516L2.82753 26.6516C2.87941 24.5248 4.56774 22.8723 6.71875 22.8723C8.86976 22.8723 10.5486 24.5248 10.6002 26.6516L11.4355 26.6516C12.7441 26.6516 13.3496 25.9876 13.3496 24.5422L13.3496 21.3977C13.3496 20.1379 12.7441 19.4348 11.3672 18.9954L10.0977 18.5852C9.49219 18.3997 9.23828 18.2922 8.73047 17.8528C5.89844 15.3626 3.59375 14.1711 0.712891 14.1711L0 14.1711L0 12.6086L0.712891 12.6086C4.59961 12.6086 7.4707 14.6692 10.0098 16.8372ZM4.28711 26.759C4.28711 28.1165 5.36133 29.1809 6.71875 29.1809C8.06641 29.1809 9.14062 28.1165 9.14062 26.759C9.14062 25.4114 8.06641 24.3469 6.71875 24.3469C5.36133 24.3469 4.28711 25.4114 4.28711 26.759ZM29.7115 26.6516L33.6719 26.6516L33.6719 28.2044L29.8828 28.2044L28.2422 26.5638C28.1516 25.3804 27.2251 24.4566 26.0359 24.3575L24.7081 23.0296C25.0582 22.9263 25.4315 22.8723 25.8203 22.8723C27.9713 22.8723 29.6597 24.5248 29.7115 26.6516ZM33.6719 15.7336C33.457 15.8508 33.2422 15.9778 33.0273 16.1145L28.8281 18.761C28.3691 19.0442 27.9688 19.1907 27.2559 19.2786L22.6855 19.8254C22.3361 19.8687 22.0097 19.9375 21.7105 20.0321L20.4988 18.8203C21.0846 18.5621 21.752 18.3827 22.4902 18.2922L27.5781 17.6672L32.1875 14.7766C32.6953 14.4446 33.1836 14.1809 33.6719 13.9368Z" fill="black" fill-opacity="0.85"/>
  <path d="M14.873 2.85279L17.6367 5.68482L18.1641 3.46802C18.2422 3.13599 18.5742 3.15552 18.6523 3.46802L19.2383 5.70435L21.6602 3.42896C21.8945 3.18482 22.1777 3.41919 22.0801 3.7024L20.5859 7.93091L22.6562 8.78052C22.8516 8.85865 22.8516 9.13209 22.6562 9.20044L20.3125 9.8938L22.6074 14.1907C22.793 14.552 22.4414 14.8254 22.1387 14.5618L18.252 11.0754L16.1814 14.5029L15.4829 13.8044L15.4492 11.7102L13.7687 12.0903L12.8518 11.1733L14.4531 10.0891L12.3828 9.94263C12.0215 9.91334 11.9727 9.53248 12.3145 9.40552L14.1699 8.72193L11.0547 6.8274C10.7324 6.64185 10.8496 6.25123 11.2402 6.30982L14.541 6.7688L13.8379 5.85084C13.6133 5.5481 13.8379 5.32349 14.1406 5.46021L15.4199 6.03638L14.4434 3.13599C14.3262 2.79419 14.6387 2.60865 14.873 2.85279Z" fill="black" fill-opacity="0.85"/>
  <path d="M30.2051 32.8235C30.5371 33.1458 31.0645 33.1555 31.3867 32.8235C31.709 32.4915 31.709 31.9641 31.3867 31.6419L4.94141 5.18677C4.60938 4.85474 4.0918 4.85474 3.75 5.18677C3.4375 5.49927 3.41797 6.02662 3.75 6.36841Z" fill="black" fill-opacity="0.85"/>
 </g>
</svg>
