<?xml version="1.0" encoding="UTF-8"?>
<!--Generator: Apple Native CoreSVG 326-->
<!DOCTYPE svg
PUBLIC "-//W3C//DTD SVG 1.1//EN"
       "http://www.w3.org/Graphics/SVG/1.1/DTD/svg11.dtd">
<svg version="1.1" xmlns="http://www.w3.org/2000/svg" xmlns:xlink="http://www.w3.org/1999/xlink" viewBox="0 0 38.4258 25.6543">
 <g>
  <rect height="25.6543" opacity="0" width="38.4258" x="0" y="0"/>
  <path d="M0.877921 25.625L2.49901 25.625C3.15331 25.625 3.47558 25.3223 3.68066 24.8242L9.94042 9.66797C10.0869 9.29688 9.91112 9.00391 9.5498 9.00391L8.36816 9.00391C8.00683 9.00391 7.77245 9.16992 7.60644 9.50195L0.125968 24.4141C-0.167001 24.9805 0.0380769 25.625 0.877921 25.625ZM35.5752 25.6348L37.1963 25.6348C38.0264 25.6348 38.2314 24.9902 37.9482 24.4238L30.458 9.51172C30.292 9.17969 30.0674 9.02344 29.6963 9.02344L28.5244 9.02344C28.1533 9.02344 27.9775 9.30664 28.1338 9.67773L34.3935 24.8438C34.5986 25.332 34.9209 25.6348 35.5752 25.6348Z" fill="black" fill-opacity="0.85"/>
  <path d="M8.49511 16.7188L29.5498 16.7188L28.8564 14.9414L9.21776 14.9414Z" fill="black" fill-opacity="0.85"/>
  <path d="M9.68651 13.7402L28.3584 13.7402L27.665 11.9727L10.3994 11.9727Z" fill="black" fill-opacity="0.85"/>
  <path d="M12.0693 10.127C12.0693 10.5566 12.4014 10.8984 12.8408 10.8984L13.5244 10.8984C13.9639 10.8984 14.3057 10.5566 14.3057 10.127L14.3057 9.30664L23.7392 9.30664L23.7392 10.127C23.7392 10.5566 24.0713 10.8984 24.5107 10.8984L25.2041 10.8984C25.6435 10.8984 25.9756 10.5566 25.9756 10.127L25.9756 6.26953C25.9756 5.25391 25.8096 4.67773 25.2334 4.0332L24.6475 3.36914L24.0127 1.55273C23.6709 0.585938 23.0459 0.175781 22.2256 0.078125C21.8252 0.0292969 20.5068 0 19.0225 0C17.5381 0 16.2197 0.0292969 15.8193 0.078125C14.999 0.175781 14.3642 0.585938 14.0225 1.55273L13.3877 3.36914L12.8115 4.0332C12.2353 4.67773 12.0693 5.25391 12.0693 6.26953ZM14.9307 3.32031C14.6572 3.32031 14.5596 3.11523 14.6475 2.85156L15.0185 1.75781C15.1748 1.29883 15.4092 1.14258 15.8193 1.08398C16.249 1.02539 17.333 0.986328 19.0225 0.986328C20.7021 0.986328 21.7861 1.02539 22.2158 1.08398C22.626 1.14258 22.8603 1.29883 23.0166 1.75781L23.3877 2.85156C23.4853 3.11523 23.3779 3.32031 23.1045 3.32031ZM14.1494 7.04102C13.7978 7.04102 13.5439 6.79688 13.5439 6.44531L13.5439 5.50781C13.5439 5.16602 13.7978 4.91211 14.1494 4.91211C14.4912 4.91211 14.7451 5.15625 14.7451 5.50781L14.7451 6.44531C14.7451 6.79688 14.4912 7.04102 14.1494 7.04102ZM17.6553 6.77734C17.3818 6.77734 17.206 6.60156 17.206 6.29883L17.206 5.6543C17.206 5.36133 17.3818 5.18555 17.6553 5.18555L20.3506 5.18555C20.6338 5.18555 20.8096 5.36133 20.8096 5.6543L20.8096 6.29883C20.8096 6.60156 20.6338 6.77734 20.3506 6.77734ZM23.9443 7.04102C23.6123 7.04102 23.3486 6.78711 23.3486 6.44531L23.3486 5.50781C23.3486 5.16602 23.6123 4.91211 23.9443 4.91211C24.2959 4.91211 24.5498 5.15625 24.5498 5.50781L24.5498 6.44531C24.5498 6.79688 24.2959 7.04102 23.9443 7.04102Z" fill="black" fill-opacity="0.85"/>
 </g>
</svg>
