<?xml version="1.0" ?><!-- Generator: Adobe Illustrator 25.0.0, SVG Export Plug-In . SVG Version: 6.00 Build 0)  --><svg xmlns="http://www.w3.org/2000/svg" xmlns:xlink="http://www.w3.org/1999/xlink" version="1.1" id="Layer_1" x="0px" y="0px" viewBox="0 0 512 512" style="enable-background:new 0 0 512 512;" xml:space="preserve">
<path d="M42.6,512h1.1c13.6,0,25-1.5,34.2-4.5c9.1-3,16.9-6.6,23.4-11c6.5-4.4,12.2-8.7,17.3-13.2c5.1-4.4,10.3-8.1,15.6-11.1  c5.3-3,11.5-4.5,18.6-4.5c6.8,0,12.9,1.5,18.3,4.5c5.4,3,10.7,6.7,15.9,11.1c5.2,4.4,10.9,8.8,17.1,13.2c6.2,4.4,13.4,8,21.8,11  c8.3,3,18.5,4.5,30.4,4.5c11.8,0,21.8-1.5,30.1-4.5c8.3-3,15.6-6.6,21.8-11c6.2-4.4,11.9-8.7,17.1-13.2c5.2-4.4,10.5-8.1,15.9-11.1  c5.4-3,11.5-4.5,18.3-4.5c7.1,0,13.3,1.5,18.6,4.5c5.3,3,10.5,6.7,15.6,11.1c5.1,4.4,10.8,8.8,17.3,13.2c6.5,4.4,14.3,8,23.4,11  c9.1,3,20.5,4.5,34.2,4.5h1.1c4.2,0,7.8-1.5,10.8-4.5c3-3,4.5-6.6,4.5-10.8c0-4.2-1.5-7.8-4.5-10.9s-6.6-4.6-10.8-4.6h-1.1  c-11.7,0-21.5-2.1-29.2-6.3c-7.7-4.2-15.7-9.2-23.9-15c-7-5.1-15-10.2-24-15.2c-9.1-5.1-19.7-7.6-31.9-7.6  c-12.5,0-23.3,2.7-32.5,8.1c-9.2,5.4-17.4,10.7-24.5,15.9c-7.4,5.8-14.5,10.6-21.3,14.5c-6.8,3.8-15.1,5.8-24.8,5.8  c-9.9,0-18.2-1.9-25-5.8c-6.8-3.8-13.9-8.7-21.3-14.5c-7.1-5.2-15.3-10.5-24.5-15.9c-9.2-5.4-20.1-8.1-32.5-8.1  c-12.2,0-22.8,2.5-31.9,7.6c-9.1,5.1-17.1,10.2-24,15.2c-8.3,5.8-16.2,10.8-23.9,15s-17.4,6.3-29.2,6.3h-1.1  c-4.2,0-7.8,1.5-10.8,4.6c-3,3-4.5,6.7-4.5,10.9c0,4.2,1.5,7.8,4.5,10.8C34.8,510.5,38.4,512,42.6,512z M98.1,476.5l29.8-8.7  L51.5,364c-2.5-3.2-3-6.3-1.7-9.4c1.3-3,4.1-4.6,8.5-4.6h395.4c4.5,0,7.4,1.5,8.6,4.6s0.6,6.2-1.8,9.6L384,467.6l30,8.7l74-98.1  c6.7-8.7,9.9-17.4,9.7-26c-0.2-8.6-3.5-15.8-9.8-21.5s-15.2-8.6-26.7-8.6H50.6c-11.5,0-20.3,2.9-26.5,8.6  c-6.2,5.7-9.5,12.9-9.8,21.5s2.9,17.3,9.6,26L98.1,476.5z M141.8,103.6c-0.7,2.9-0.4,4.9,0.9,6.1c1.3,1.2,3.5,1.7,6.5,1.5  c8.4-0.6,17.6-1.1,27.6-1.6c10-0.5,21.4-0.9,34.3-1.2c12.8-0.3,27.7-0.4,44.7-0.4s31.9,0.1,44.7,0.4s24.3,0.7,34.3,1.2  c10,0.5,19.2,1.1,27.6,1.6c3,0.1,5.2-0.4,6.5-1.5c1.3-1.2,1.6-3.2,0.9-6.1c-1.9-8.6-4.4-17.6-7.6-27.1c-3.2-9.5-6.1-16.4-8.7-20.8  c-2-3.8-4.4-6.5-7.1-8.2c-2.7-1.7-6.1-2.9-10.1-3.6c-5.7-0.7-15.1-1.3-28.2-1.8c-13.1-0.5-30.6-0.8-52.3-0.8s-39.2,0.3-52.3,0.8  c-13.1,0.5-22.5,1.1-28.2,1.8c-4.1,0.7-7.4,1.9-10.1,3.6c-2.7,1.7-5.1,4.4-7.3,8.2c-2.5,4.4-5.3,11.3-8.5,20.8  C146.2,86,143.7,95,141.8,103.6z M141,211.9c7.4,0,13.6-2.4,18.5-7.3c4.9-4.9,7.4-11,7.4-18.4c0-7.4-2.5-13.5-7.4-18.4  c-4.9-4.9-11.1-7.3-18.5-7.3c-7.3,0-13.3,2.4-18.3,7.3s-7.4,11-7.4,18.4c0,7.4,2.5,13.5,7.4,18.4C127.6,209.5,133.7,211.9,141,211.9  z M213.8,205.8h84c5.5,0,10-1.7,13.5-5.2s5.2-8,5.2-13.5c0-5.5-1.7-10-5.2-13.4c-3.5-3.4-8-5.1-13.5-5.1h-84c-5.5,0-10,1.7-13.5,5.1  c-3.5,3.4-5.2,7.9-5.2,13.4c0,5.5,1.7,10,5.2,13.5C203.8,204.1,208.3,205.8,213.8,205.8z M370.5,211.9c7.4,0,13.6-2.4,18.5-7.3  c4.9-4.9,7.4-11,7.4-18.4c0-7.4-2.5-13.5-7.4-18.4c-4.9-4.9-11.1-7.3-18.5-7.3c-7.3,0-13.3,2.4-18.3,7.3c-4.9,4.9-7.4,11-7.4,18.4  c0,7.4,2.5,13.5,7.4,18.4C357.2,209.5,363.3,211.9,370.5,211.9z M255.8,258.3c13.3,0,27.5-0.1,42.3-0.4c14.9-0.3,29.5-0.7,43.8-1.3  c14.4-0.6,27.5-1.2,39.5-2c12-0.7,21.8-1.5,29.5-2.4c11.7-1.3,20.8-5.3,27.2-11.9c6.4-6.6,9.6-15.3,9.6-26.2v-28.3  c0-13.9-1.6-25.5-4.8-34.7c-3.2-9.2-8.6-18.6-16.1-28.2l-13.1-16.5c-2-9.7-4.4-19.2-7.1-28.5c-2.7-9.3-5.4-17.6-8.1-25  c-2.7-7.4-5-13.1-6.9-17.2c-9-19-25.2-30.2-48.7-33.5c-3.6-0.4-9.6-0.8-18-1.1c-8.3-0.3-18.5-0.5-30.4-0.8  C282.9,0.1,269.9,0,255.8,0c-13.9,0-26.8,0.1-38.6,0.3c-11.8,0.2-21.9,0.5-30.4,0.8c-8.4,0.3-14.4,0.7-18.1,1.1  c-11.3,1.5-21.2,5-29.6,10.8c-8.4,5.7-14.9,13.3-19.6,22.7c-2.6,5.9-6.2,15.6-10.7,28.9c-4.5,13.3-8.3,27.3-11.3,41.8L85,122.9  c-7.5,9.6-12.9,19-16.1,28.2c-3.2,9.2-4.8,20.8-4.8,34.7v28.3c0,10.9,3.2,19.6,9.5,26.2c6.3,6.6,15.3,10.6,27.1,11.9  c7.5,0.9,17.3,1.7,29.4,2.4c12,0.7,25.2,1.4,39.5,2c14.3,0.6,28.9,1,43.7,1.3C228.2,258.1,242.3,258.3,255.8,258.3z M255.8,230.4  c-13.5,0-27.6-0.1-42.3-0.3c-14.7-0.2-29-0.6-42.9-1.1c-13.9-0.5-26.3-1.1-37.4-1.7c-11.1-0.7-19.8-1.4-26.2-2.3  c-5.5-0.7-9.4-2.4-11.6-5c-2.2-2.6-3.4-6.7-3.4-12.2v-22c0-10.4,1-18.7,2.9-24.9c2-6.2,6-13.2,12.1-21l17-22c1.3-7.7,3.2-16,5.7-25  c2.5-9,5.1-17.5,7.9-25.6c2.8-8.1,5.3-14.5,7.5-19.3c2.3-5.1,5.7-9.1,10.2-12.1c4.5-3,10.1-4.8,16.8-5.5c5.1-0.6,15.1-1.2,30-1.8  c14.9-0.7,32.9-1,53.7-1c20.9,0,38.9,0.3,54,1c15.1,0.7,24.9,1.3,29.4,1.8c6.8,0.9,12.5,2.8,17,5.7c4.5,2.9,8,6.9,10.4,12  c2.3,4.9,4.9,11.4,7.7,19.5c2.8,8.1,5.5,16.6,7.9,25.6c2.5,9,4.3,17.3,5.4,24.8l17,22c5.9,7.8,10,14.9,12.1,21.1  c2.1,6.2,3.2,14.5,3.2,24.8v22c0,5.7-1.2,9.8-3.5,12.3c-2.3,2.5-6.3,4.2-12,4.9c-6.4,0.7-15.1,1.5-26.2,2.2  c-11.1,0.7-23.6,1.3-37.4,1.7c-13.9,0.4-28.1,0.8-42.8,1.1C283.4,230.3,269.3,230.4,255.8,230.4z M96.8,298.8h18.7  c6.1,0,11.2-2,15.3-6.1c4.1-4.1,6.2-9.1,6.2-15v-38.1l-61.6-8.9v47c0,5.9,2.1,11,6.2,15C85.8,296.7,90.8,298.8,96.8,298.8z   M396.2,298.8h18.7c5.9,0,11-2,15.1-6.1c4.1-4.1,6.2-9.1,6.2-15v-47l-61.6,8.9l0.2,38.1c0,5.9,2,11,6.1,15  C385,296.7,390.1,298.8,396.2,298.8z"/>
</svg>