<?xml version="1.0" encoding="UTF-8"?>
<!--Generator: Apple Native CoreSVG 326-->
<!DOCTYPE svg
PUBLIC "-//W3C//DTD SVG 1.1//EN"
       "http://www.w3.org/Graphics/SVG/1.1/DTD/svg11.dtd">
<svg version="1.1" xmlns="http://www.w3.org/2000/svg" xmlns:xlink="http://www.w3.org/1999/xlink" viewBox="0 0 41.6797 29.3457">
 <g>
  <rect height="29.3457" opacity="0" width="41.6797" x="0" y="0"/>
  <path d="M3.57422 23.584L4.33594 23.584C4.26758 23.2324 4.21875 22.8809 4.21875 22.5098C4.21875 19.8438 6.31836 17.7441 8.99414 17.7441C11.6699 17.7441 13.7695 19.8438 13.7695 22.5098C13.7695 22.8809 13.7305 23.2324 13.6523 23.584L27.666 23.584C27.5977 23.2324 27.5488 22.8809 27.5488 22.5098C27.5488 19.8438 29.6484 17.7441 32.3242 17.7441C35 17.7441 37.0996 19.8438 37.0996 22.5098C37.0996 22.8809 37.0508 23.2324 36.9727 23.584L37.7441 23.584C40.1953 23.584 41.3184 22.4023 41.3184 19.8145L41.3184 16.5625C41.3184 14.4531 40.3223 13.1738 38.1445 12.4512L36.2695 11.8262C33.75 9.73633 30.6543 7.48047 26.2695 7.48047L24.5801 7.48047C19.8926 7.48047 17.8418 7.95898 15.0195 9.72656L10.2734 12.7051L5.00977 13.3594C1.89453 13.7402 0 15.6641 0 18.3301L0 19.8633C0 22.4219 1.14258 23.584 3.57422 23.584ZM8.99414 26.0156C10.9668 26.0156 12.5098 24.4727 12.5098 22.5098C12.5098 20.5469 10.9668 19.0039 8.99414 19.0039C7.03125 19.0039 5.48828 20.5469 5.48828 22.5098C5.48828 24.4727 7.03125 26.0156 8.99414 26.0156ZM32.3242 26.0156C34.2969 26.0156 35.8301 24.4727 35.8301 22.5098C35.8301 20.5469 34.2969 19.0039 32.3242 19.0039C30.3516 19.0039 28.8184 20.5469 28.8184 22.5098C28.8184 24.4727 30.3516 26.0156 32.3242 26.0156Z" fill="black" fill-opacity="0.85"/>
  <path d="M18.5352 5.45898L31.6309 5.45898C32.5977 5.45898 33.1055 4.83398 33.1055 3.84766L33.1055 2.56836C33.1055 0.878906 32.2266 0 30.1953 0L27.8613 0C25.7031 0 23.9746 0.527344 21.2012 1.73828L18.3008 3.04688C17.5391 3.37891 17.3145 3.85742 17.3145 4.3457C17.3145 5.06836 17.6855 5.45898 18.5352 5.45898Z" fill="black" fill-opacity="0.85"/>
 </g>
</svg>
