<?xml version="1.0" encoding="UTF-8"?>
<!--Generator: Apple Native CoreSVG 326-->
<!DOCTYPE svg
PUBLIC "-//W3C//DTD SVG 1.1//EN"
       "http://www.w3.org/Graphics/SVG/1.1/DTD/svg11.dtd">
<svg version="1.1" xmlns="http://www.w3.org/2000/svg" xmlns:xlink="http://www.w3.org/1999/xlink" viewBox="0 0 34.5605 31.7676">
 <g>
  <rect height="31.7676" opacity="0" width="34.5605" x="0" y="0"/>
  <path d="M17.0996 31.748C23.1543 31.748 25.8691 30.3613 25.8691 27.1484L25.8691 5.5957C25.8691 2.05078 22.6562 0 17.0996 0C11.543 0 8.33008 2.05078 8.33008 5.5957L8.33008 27.1484C8.33008 30.3613 11.0449 31.748 17.0996 31.748ZM17.0996 29.9707C12.3047 29.9707 10.1172 29.082 10.1172 27.0703L10.1172 5.5957C10.1172 3.18359 12.666 1.78711 17.0996 1.78711C21.5234 1.78711 24.082 3.18359 24.082 5.5957L24.082 27.0703C24.082 29.082 21.8945 29.9707 17.0996 29.9707ZM17.0996 13.2227C18.2031 13.2227 20.1758 13.3105 20.8008 13.3105C21.748 13.3105 22.168 12.9492 22.2461 11.9629L22.4512 9.70703C22.5977 7.91992 21.4453 7.1582 17.0996 7.1582C12.7539 7.1582 11.6016 7.91992 11.7578 9.70703L11.9531 11.9629C12.041 12.9492 12.4609 13.3105 13.3984 13.3105C14.0332 13.3105 15.8789 13.2227 17.0996 13.2227ZM17.0996 26.6211C21.3379 26.6211 22.6074 26.0059 22.373 24.1797L22.2266 23.0469C22.041 21.5723 20.8008 21.0742 17.0996 21.0742C13.3984 21.0742 12.168 21.5723 11.9824 23.0469L11.8359 24.1797C11.5918 26.0059 12.8711 26.6211 17.0996 26.6211ZM9.0918 12.1875L9.0918 9.44336L7.37305 9.44336C6.73828 9.44336 6.25977 9.89258 6.25977 10.498L6.25977 11.1328C6.25977 11.7285 6.73828 12.1875 7.37305 12.1875ZM25.1172 12.1875L26.8262 12.1875C27.4609 12.1875 27.9395 11.7285 27.9395 11.1328L27.9395 10.498C27.9395 9.89258 27.4609 9.44336 26.8262 9.44336L25.1172 9.44336Z" fill="black" fill-opacity="0.85"/>
  <path d="M34.5605 24.668L34.5605 19.043C34.5605 18.4277 34.0527 18.1543 33.5254 18.4766L29.0332 21.2305C28.5254 21.543 28.5156 22.168 29.0332 22.4902L33.5254 25.2148C34.0527 25.5371 34.5605 25.293 34.5605 24.668Z" fill="black" fill-opacity="0.85"/>
 </g>
</svg>
