<?xml version="1.0" encoding="UTF-8"?>
<!--Generator: Apple Native CoreSVG 326-->
<!DOCTYPE svg
PUBLIC "-//W3C//DTD SVG 1.1//EN"
       "http://www.w3.org/Graphics/SVG/1.1/DTD/svg11.dtd">
<svg version="1.1" xmlns="http://www.w3.org/2000/svg" xmlns:xlink="http://www.w3.org/1999/xlink" viewBox="0 0 25.3544 36.2402">
 <g>
  <rect height="36.2402" opacity="0" width="25.3544" x="0" y="0"/>
  <path d="M16.5541 24.5801C21.2319 24.5801 23.4389 23.4863 23.4389 20.791L23.4389 4.43359C23.4389 1.64062 20.8608 0 16.5541 0C12.2768 0 9.69866 1.64062 9.69866 4.43359L9.69866 20.791C9.69866 23.4863 11.8862 24.5801 16.5541 24.5801ZM16.5541 22.9004C12.9408 22.9004 11.4076 22.2754 11.4076 20.7422L11.4076 4.43359C11.4076 2.69531 13.2045 1.69922 16.5541 1.69922C19.9233 1.69922 21.7397 2.69531 21.7397 4.43359L21.7397 20.7422C21.7397 22.2754 20.1869 22.9004 16.5541 22.9004ZM16.5639 10.3418C17.4233 10.3418 18.9272 10.4297 19.4057 10.4297C20.1674 10.4297 20.519 10.1172 20.5873 9.30664L20.7338 7.59766C20.8608 6.15234 19.9819 5.56641 16.5639 5.56641C13.1557 5.56641 12.2768 6.15234 12.394 7.59766L12.5502 9.30664C12.6186 10.1172 12.9701 10.4297 13.7319 10.4297C14.2104 10.4297 15.6166 10.3418 16.5639 10.3418ZM16.5639 20.6152C19.8647 20.6152 20.8901 20.1367 20.685 18.6523L20.5678 17.793C20.392 16.6016 19.4545 16.2109 16.5639 16.2109C13.683 16.2109 12.7455 16.6016 12.5698 17.793L12.4526 18.6523C12.2475 20.1367 13.2729 20.6152 16.5639 20.6152ZM10.6459 9.62891L10.6459 7.20703L9.17132 7.20703C8.58538 7.20703 8.14593 7.62695 8.14593 8.17383L8.14593 8.67188C8.14593 9.20898 8.58538 9.62891 9.17132 9.62891ZM22.5014 9.62891L23.9662 9.62891C24.5522 9.62891 24.9916 9.20898 24.9916 8.67188L24.9916 8.17383C24.9916 7.62695 24.5522 7.20703 23.9662 7.20703L22.5014 7.20703Z" fill="black" fill-opacity="0.85"/>
  <path d="M5.66546 35.3125L9.10296 31.875C9.75725 31.2207 9.75725 30.4785 9.11272 29.834L5.96819 26.6797C5.3139 26.0352 4.601 26.0156 3.94671 26.6699L0.489677 30.127C-0.145089 30.752-0.174386 31.5234 0.470145 32.1777L3.62444 35.3223C4.26897 35.9668 5.02093 35.957 5.66546 35.3125ZM8.79046 28.7891L11.0658 28.5938C11.2709 28.5742 11.4467 28.5156 11.5639 28.3984C11.7983 28.1641 11.7885 27.8418 11.5248 27.5781L8.21429 24.2676C7.96038 24.0137 7.62835 23.9941 7.39397 24.2285C7.27679 24.3457 7.21819 24.5312 7.19866 24.7266L7.00335 27.002Z" fill="black" fill-opacity="0.85"/>
 </g>
</svg>
