<?xml version="1.0" encoding="UTF-8"?>
<!--Generator: Apple Native CoreSVG 326-->
<!DOCTYPE svg
PUBLIC "-//W3C//DTD SVG 1.1//EN"
       "http://www.w3.org/Graphics/SVG/1.1/DTD/svg11.dtd">
<svg version="1.1" xmlns="http://www.w3.org/2000/svg" xmlns:xlink="http://www.w3.org/1999/xlink" viewBox="0 0 44.4434 22.7441">
 <g>
  <rect height="22.7441" opacity="0" width="44.4434" x="0" y="0"/>
  <path d="M3.80859 22.7441L22.1777 22.7441C24.7754 22.7441 25.9863 21.543 25.9863 18.9941L25.9863 3.61328C25.9863 1.25977 24.7559 0.0292969 22.373 0.0292969L16.1816 0.0292969C14.2578 0.0292969 13.0078 0.46875 11.4258 1.66016L1.79688 8.96484C0.478516 9.9707 0 10.8691 0 12.5586L0 18.9941C0 21.543 1.23047 22.7441 3.80859 22.7441ZM3.59375 11.2402C2.87109 11.2402 2.71484 10.4688 3.25195 10.0586L12.5879 2.91992C13.7109 2.03125 14.6289 1.75781 16.1816 1.75781L22.3438 1.75781C23.5547 1.75781 24.2578 2.45117 24.2578 3.70117L24.2578 9.30664C24.2578 10.5273 23.5352 11.2402 22.3438 11.2402Z" fill="black" fill-opacity="0.85"/>
  <path d="M31.4844 18.2324C31.8066 18.2324 32.0117 18.125 32.3242 17.8223L37.3535 12.7637L42.3535 17.8125C42.666 18.1152 42.8809 18.2227 43.2031 18.2227C43.6719 18.2227 44.0723 17.8418 44.0723 17.3828C44.0723 17.0703 43.9648 16.8652 43.6914 16.582L38.6328 11.4844L43.7109 6.37695C43.9746 6.09375 44.082 5.87891 44.082 5.57617C44.082 5.13672 43.6816 4.74609 43.2227 4.74609C42.9004 4.74609 42.6855 4.85352 42.373 5.15625L37.3438 10.2051L32.3438 5.16602C32.0312 4.86328 31.8164 4.75586 31.4941 4.75586C31.0254 4.75586 30.625 5.13672 30.625 5.5957C30.625 5.91797 30.7324 6.13281 30.9961 6.40625L36.0645 11.4844L30.9961 16.5918C30.7227 16.875 30.625 17.0898 30.625 17.4023C30.625 17.8516 31.0156 18.2324 31.4844 18.2324Z" fill="black" fill-opacity="0.85"/>
 </g>
</svg>
