<?xml version="1.0" encoding="UTF-8"?>
<!--Generator: Apple Native CoreSVG 326-->
<!DOCTYPE svg
PUBLIC "-//W3C//DTD SVG 1.1//EN"
       "http://www.w3.org/Graphics/SVG/1.1/DTD/svg11.dtd">
<svg version="1.1" xmlns="http://www.w3.org/2000/svg" xmlns:xlink="http://www.w3.org/1999/xlink" viewBox="0 0 18.2219 29.248">
 <g>
  <rect height="29.248" opacity="0" width="18.2219" x="0" y="0"/>
  <path d="M2.82189 9.89258C2.82189 10.3613 3.19298 10.7324 3.68126 10.7324L4.34533 10.7324C4.82384 10.7324 5.18517 10.3613 5.18517 9.89258L5.18517 9.20898L14.111 9.20898L14.111 9.89258C14.111 10.3613 14.482 10.7324 14.9703 10.7324L15.6344 10.7324C16.1031 10.7324 16.484 10.3613 16.484 9.89258L16.484 6.17188C16.484 5.16602 16.2887 4.57031 15.7223 3.92578L15.1852 3.31055L14.5699 1.57227C14.2184 0.576172 13.5836 0.166016 12.7438 0.0878906C12.3629 0.0390625 11.0934 0 9.64806 0C8.21251 0 6.93322 0.0390625 6.55236 0.0878906C5.71251 0.166016 5.07775 0.576172 4.72619 1.57227L4.11095 3.31055L3.58361 3.92578C2.99767 4.58984 2.82189 5.16602 2.82189 6.17188ZM5.72228 3.20312C5.53673 3.20312 5.46837 3.0957 5.52697 2.89062L5.86876 1.8457C6.00548 1.47461 6.18126 1.2793 6.58165 1.24023C7.08947 1.19141 8.12462 1.16211 9.64806 1.16211C11.2789 1.16211 12.2945 1.19141 12.734 1.24023C13.0856 1.28906 13.2906 1.46484 13.4176 1.8457L13.7692 2.90039C13.8277 3.0957 13.7594 3.20312 13.5836 3.20312ZM4.94103 6.91406C4.58947 6.91406 4.35509 6.68945 4.35509 6.33789L4.35509 5.41992C4.35509 5.07812 4.58947 4.85352 4.94103 4.85352C5.27306 4.85352 5.5172 5.07812 5.5172 5.41992L5.5172 6.33789C5.5172 6.68945 5.27306 6.91406 4.94103 6.91406ZM8.31994 6.66016C8.03673 6.66016 7.90001 6.50391 7.90001 6.18164L7.90001 5.56641C7.90001 5.26367 8.0465 5.11719 8.31994 5.11719L10.9371 5.11719C11.2301 5.11719 11.3766 5.26367 11.3766 5.56641L11.3766 6.18164C11.3766 6.50391 11.2399 6.66016 10.9371 6.66016ZM14.4039 6.91406C14.0817 6.91406 13.8277 6.68945 13.8277 6.33789L13.8277 5.41992C13.8277 5.07812 14.0817 4.85352 14.4039 4.85352C14.7457 4.85352 14.9899 5.07812 14.9899 5.41992L14.9899 6.33789C14.9899 6.68945 14.7457 6.91406 14.4039 6.91406ZM7.55822 12.4414L6.91369 11.9727C6.65978 11.7871 6.35705 11.709 6.04455 11.709L4.73595 11.709C4.27697 11.709 4.10119 12.2168 4.46251 12.4609L5.77111 13.3887C6.13244 13.6426 6.09337 13.8965 5.67345 14.0723L1.40587 15.8496C-0.303111 16.5625-0.459361 17.666 0.96642 18.6816L1.62072 19.1309C1.88439 19.3164 2.15783 19.4141 2.48986 19.4141L3.80822 19.4141C4.2672 19.4141 4.40392 18.8965 4.06212 18.6523L2.75353 17.7441C2.40197 17.5 2.43126 17.207 2.85119 17.0312L7.12853 15.2734C8.81798 14.5703 8.99376 13.4668 7.55822 12.4414ZM16.7281 12.4609L16.0738 12.0117C15.8004 11.8164 15.5172 11.7383 15.2047 11.7383L13.8766 11.7383C13.4371 11.7383 13.2809 12.2363 13.6227 12.4902L14.9313 13.4082C15.2828 13.6523 15.2535 13.9258 14.8434 14.0918L10.5758 15.8691C8.86681 16.5918 8.69103 17.6758 10.1266 18.7012L10.7711 19.1602C11.0348 19.3555 11.3277 19.4336 11.6598 19.4336L12.9684 19.4336C13.4176 19.4336 13.5738 18.9258 13.2223 18.6719L11.9137 17.7637C11.5621 17.5195 11.5914 17.2461 12.0211 17.0605L16.2887 15.293C17.9879 14.5898 18.1637 13.4668 16.7281 12.4609Z" fill="black" fill-opacity="0.85"/>
  <path d="M3.75939 29.248C5.83947 29.248 6.85509 27.6953 6.85509 25.6738C6.85509 23.623 5.8297 22.0605 3.75939 22.0605C1.75744 22.0605 0.673451 23.5742 0.673451 25.6738C0.673451 27.666 1.67931 29.248 3.75939 29.248ZM3.75939 28.0762C2.54845 28.0762 2.109 26.8359 2.109 25.6738C2.109 24.4238 2.59728 23.252 3.75939 23.252C4.99962 23.252 5.41955 24.502 5.41955 25.6738C5.41955 26.9434 4.93126 28.0762 3.75939 28.0762ZM8.73986 29.1797C9.2379 29.1797 9.44298 28.8574 9.44298 28.457L9.44298 26.3672L11.5719 26.3672C11.9332 26.3672 12.1676 26.1523 12.1676 25.8008C12.1676 25.4492 11.943 25.2344 11.5719 25.2344L9.44298 25.2344L9.44298 23.4082L11.7867 23.4082C12.1871 23.4082 12.4117 23.1934 12.4117 22.8223C12.4117 22.4414 12.1871 22.2266 11.7867 22.2266L8.73009 22.2266C8.31994 22.2266 8.03673 22.4902 8.03673 22.959L8.03673 28.457C8.03673 28.8477 8.25158 29.1797 8.73986 29.1797ZM14.1598 29.1797C14.6578 29.1797 14.8629 28.8574 14.8629 28.457L14.8629 26.3672L16.982 26.3672C17.3531 26.3672 17.5875 26.1523 17.5875 25.8008C17.5875 25.4492 17.3629 25.2344 16.982 25.2344L14.8629 25.2344L14.8629 23.4082L17.1969 23.4082C17.5973 23.4082 17.8317 23.1934 17.8317 22.8223C17.8317 22.4414 17.5973 22.2266 17.1969 22.2266L14.15 22.2266C13.7399 22.2266 13.4567 22.4902 13.4567 22.959L13.4567 28.457C13.4567 28.8477 13.6715 29.1797 14.1598 29.1797Z" fill="black" fill-opacity="0.85"/>
 </g>
</svg>
