<?xml version="1.0" encoding="UTF-8"?>
<!--Generator: Apple Native CoreSVG 326-->
<!DOCTYPE svg
PUBLIC "-//W3C//DTD SVG 1.1//EN"
       "http://www.w3.org/Graphics/SVG/1.1/DTD/svg11.dtd">
<svg version="1.1" xmlns="http://www.w3.org/2000/svg" xmlns:xlink="http://www.w3.org/1999/xlink" viewBox="0 0 36.0298 30.3223">
 <g>
  <rect height="30.3223" opacity="0" width="36.0298" x="0" y="0"/>
  <path d="M33.2395 24.4727L34.7923 24.4727C35.6321 24.4727 35.847 23.8281 35.5442 23.2617L27.0188 6.35742C26.843 6.03516 26.6087 5.86914 26.2473 5.86914L25.5149 5.86914C25.1438 5.86914 24.968 6.16211 25.1243 6.52344L32.0677 23.6719C32.2532 24.1602 32.5852 24.4727 33.2395 24.4727Z" fill="black" fill-opacity="0.85"/>
  <path d="M0.876251 24.4727L2.42899 24.4727C3.08328 24.4727 3.41531 24.1602 3.60086 23.6719L10.554 6.52344C10.7005 6.16211 10.5247 5.86914 10.1634 5.86914L9.43094 5.86914C9.05985 5.86914 8.82547 6.03516 8.66922 6.35742L0.124298 23.2617C-0.168671 23.8281 0.0461732 24.4727 0.876251 24.4727Z" fill="black" fill-opacity="0.85"/>
  <path d="M17.8587 1.36719C19.7923 1.36719 21.5501 2.08984 22.8977 3.33008C23.2884 3.67188 23.6985 3.69141 23.9622 3.42773C24.2454 3.13477 24.2454 2.70508 23.9329 2.38281C22.3313 0.78125 20.1438 0 17.8587 0C15.5638 0 13.386 0.78125 11.7845 2.38281C11.4622 2.70508 11.4524 3.13477 11.7552 3.42773C12.0286 3.69141 12.429 3.67188 12.8098 3.33008C14.1575 2.08984 15.9153 1.36719 17.8587 1.36719Z" fill="black" fill-opacity="0.85"/>
  <path d="M17.8587 5.06836C18.8548 5.06836 19.7141 5.39062 20.3587 5.9668C20.8079 6.28906 21.1888 6.29883 21.4622 6.01562C21.7356 5.75195 21.7356 5.35156 21.4329 5.0293C20.72 4.33594 19.343 3.70117 17.8587 3.70117C16.3743 3.70117 14.9876 4.33594 14.2747 5.0293C13.972 5.35156 13.972 5.75195 14.2454 6.01562C14.5286 6.28906 14.9095 6.28906 15.3489 5.9668C15.9934 5.39062 16.8528 5.06836 17.8587 5.06836Z" fill="black" fill-opacity="0.85"/>
  <path d="M9.93875 20.4004C9.93875 20.8887 10.3196 21.2695 10.8079 21.2695L11.5891 21.2695C12.0774 21.2695 12.4583 20.8887 12.4583 20.4004L12.4583 19.4824L23.0735 19.4824L23.0735 20.4004C23.0735 20.8887 23.4544 21.2695 23.9524 21.2695L24.7239 21.2695C25.222 21.2695 25.593 20.8887 25.593 20.4004L25.593 16.0645C25.593 14.9219 25.4075 14.2676 24.763 13.5352L24.1087 12.793L23.386 10.752C23.0052 9.6582 22.2923 9.19922 21.3743 9.0918C20.9251 9.04297 19.4407 9.00391 17.7708 9.00391C16.0911 9.00391 14.6067 9.04297 14.1575 9.0918C13.2395 9.19922 12.5266 9.6582 12.1458 10.752L11.4231 12.793L10.7688 13.5352C10.1243 14.2676 9.93875 14.9219 9.93875 16.0645ZM13.1614 12.7344C12.8587 12.7344 12.7513 12.5098 12.8489 12.2168L13.2591 10.9863C13.4348 10.4688 13.7083 10.293 14.1673 10.2246C14.6458 10.166 15.8665 10.1172 17.7708 10.1172C19.6653 10.1172 20.886 10.166 21.3645 10.2246C21.8235 10.293 22.0872 10.4688 22.263 10.9863L22.6829 12.2168C22.7805 12.5098 22.6634 12.7344 22.3606 12.7344ZM12.2825 16.9336C11.8821 16.9336 11.5989 16.6504 11.5989 16.2598L11.5989 15.2051C11.5989 14.8145 11.8821 14.5312 12.2825 14.5312C12.6634 14.5312 12.9466 14.8145 12.9466 15.2051L12.9466 16.2598C12.9466 16.6504 12.6634 16.9336 12.2825 16.9336ZM16.2278 16.6309C15.9153 16.6309 15.72 16.4258 15.72 16.0938L15.72 15.3613C15.72 15.0391 15.9153 14.8438 16.2278 14.8438L19.2649 14.8438C19.5774 14.8438 19.7825 15.0391 19.7825 15.3613L19.7825 16.0938C19.7825 16.4258 19.5774 16.6309 19.2649 16.6309ZM23.3079 16.9336C22.927 16.9336 22.6341 16.6406 22.6341 16.2598L22.6341 15.2051C22.6341 14.8145 22.927 14.5312 23.3079 14.5312C23.6985 14.5312 23.9817 14.8145 23.9817 15.2051L23.9817 16.2598C23.9817 16.6504 23.6985 16.9336 23.3079 16.9336Z" fill="black" fill-opacity="0.85"/>
 </g>
</svg>
