<?xml version="1.0" encoding="UTF-8"?>
<!--Generator: Apple Native CoreSVG 326-->
<!DOCTYPE svg
PUBLIC "-//W3C//DTD SVG 1.1//EN"
       "http://www.w3.org/Graphics/SVG/1.1/DTD/svg11.dtd">
<svg version="1.1" xmlns="http://www.w3.org/2000/svg" xmlns:xlink="http://www.w3.org/1999/xlink" viewBox="0 0 40.8239 30.5915">
 <g>
  <rect height="30.5915" opacity="0" width="40.8239" x="0" y="0"/>
  <path d="M8.40025 9.72446L8.96665 10.0565C9.07408 9.76352 9.19126 9.47055 9.35728 9.19711C10.5096 7.18539 13.0096 6.52133 15.0213 7.68344C17.0428 8.84555 17.7069 11.3358 16.5545 13.3475C16.3885 13.6307 16.203 13.8748 15.9881 14.1092L26.5448 20.203C26.6522 19.91 26.7694 19.6268 26.9354 19.3436C28.0877 17.3319 30.5877 16.6678 32.5995 17.8299C34.621 18.992 35.285 21.492 34.1229 23.494C33.9667 23.7772 33.7713 24.0213 33.5663 24.2557L34.1424 24.5877C35.9881 25.662 37.3553 25.2518 38.4784 23.2987L39.8944 20.8573C40.8124 19.2655 40.617 17.8592 39.2889 16.3748L38.1463 15.0858C37.16 12.4198 35.8124 9.37289 32.5018 7.4686L31.2323 6.73618C27.6971 4.69516 25.9491 4.15805 23.0487 4.26547L18.1756 4.44125L13.9276 2.64438C11.4081 1.57993 9.1522 2.20493 7.99009 4.20688L7.32603 5.36899C6.21275 7.29282 6.56431 8.66977 8.40025 9.72446ZM11.4276 13.9139C12.912 14.7733 14.7381 14.285 15.5975 12.8006C16.4471 11.326 15.9588 9.49008 14.4745 8.63071C12.9901 7.7811 11.1639 8.26938 10.3045 9.74399C9.45494 11.2284 9.94322 13.0545 11.4276 13.9139ZM29.0057 24.0604C30.4901 24.9198 32.3163 24.4315 33.1756 22.9471C34.0252 21.4725 33.537 19.6366 32.0526 18.787C30.5682 17.9276 28.742 18.4159 27.8827 19.8905C27.0331 21.3748 27.5213 23.2108 29.0057 24.0604Z" fill="black" fill-opacity="0.85"/>
  <path d="M4.05455 5.47641L6.55455 1.15024C6.94517 0.47641 6.41783-0.109528 5.72447 0.0174253L1.80845 0.642425C1.29087 0.72055 1.0565 1.13071 1.24205 1.62875L2.65806 5.32016C2.89244 5.99399 3.66392 6.15024 4.05455 5.47641ZM0.118999 10.6229C-0.125142 11.0526 0.0213423 11.5799 0.421733 11.8143L32.6581 30.4373C33.0487 30.6717 33.5858 30.535 33.8202 30.1346C34.0643 29.6952 33.9081 29.1678 33.5174 28.9334L1.28111 10.3104C0.890483 10.0858 0.353374 10.2225 0.118999 10.6229Z" fill="black" fill-opacity="0.85"/>
 </g>
</svg>
