<?xml version="1.0" encoding="UTF-8"?>
<!--Generator: Apple Native CoreSVG 326-->
<!DOCTYPE svg
PUBLIC "-//W3C//DTD SVG 1.1//EN"
       "http://www.w3.org/Graphics/SVG/1.1/DTD/svg11.dtd">
<svg version="1.1" xmlns="http://www.w3.org/2000/svg" xmlns:xlink="http://www.w3.org/1999/xlink" viewBox="0 0 25.8008 25.459">
 <g>
  <rect height="25.459" opacity="0" width="25.8008" x="0" y="0"/>
  <path d="M12.7148 25.4395C19.7363 25.4395 25.4395 19.7461 25.4395 12.7246C25.4395 5.70312 19.7363 0 12.7148 0C5.69336 0 0 5.70312 0 12.7246C0 19.7461 5.69336 25.4395 12.7148 25.4395ZM12.7148 23.623C6.68945 23.623 1.81641 18.75 1.81641 12.7246C1.81641 6.69922 6.68945 1.82617 12.7148 1.82617C18.7402 1.82617 23.6133 6.69922 23.6133 12.7246C23.6133 18.75 18.7402 23.623 12.7148 23.623Z" fill="black" fill-opacity="0.85"/>
  <path d="M5.75195 16.9922C5.75195 17.4219 6.09375 17.7637 6.52344 17.7637L7.22656 17.7637C7.65625 17.7637 7.99805 17.4219 7.99805 16.9922L7.99805 16.0156C9.31641 16.0938 11.2109 16.1523 12.7148 16.1523C14.2285 16.1523 16.1133 16.0938 17.4316 16.0156L17.4316 16.9922C17.4316 17.4219 17.7734 17.7637 18.2031 17.7637L18.8965 17.7637C19.3359 17.7637 19.6777 17.4219 19.6777 16.9922L19.6777 13.6328C19.6777 12.6172 19.4531 12.0703 18.9258 11.3965L18.4277 10.7324C18.1934 9.64844 17.8027 8.52539 17.6074 8.08594C17.2852 7.42188 16.6797 7.05078 15.918 6.95312C15.5176 6.9043 14.1992 6.86523 12.7148 6.86523C11.2305 6.86523 9.91211 6.9043 9.51172 6.95312C8.75 7.04102 8.14453 7.42188 7.82227 8.08594C7.62695 8.52539 7.22656 9.64844 7.01172 10.7324L6.50391 11.3965C5.97656 12.0703 5.75195 12.6172 5.75195 13.6328ZM8.37891 10.2051C8.53516 9.52148 8.78906 8.75 8.97461 8.4375C9.14062 8.1543 9.32617 8.00781 9.67773 7.96875C10.1074 7.90039 11.0938 7.88086 12.7148 7.88086C14.3359 7.88086 15.3223 7.89062 15.752 7.96875C16.1035 8.00781 16.2891 8.1543 16.4551 8.4375C16.6504 8.74023 16.9043 9.52148 17.0508 10.2051C17.0996 10.3906 17.0215 10.4785 16.8066 10.4688C15.8496 10.3906 14.7559 10.3418 12.7148 10.3418C10.6738 10.3418 9.58008 10.3906 8.62305 10.4688C8.4082 10.4785 8.33984 10.3906 8.37891 10.2051ZM7.50977 13.6328C7.50977 13.1152 7.91016 12.7246 8.41797 12.7246C8.92578 12.7246 9.32617 13.1152 9.32617 13.6328C9.32617 14.1504 8.92578 14.5312 8.41797 14.5312C7.91016 14.5312 7.50977 14.1504 7.50977 13.6328ZM10.5273 13.7012C10.5273 13.3105 10.791 13.0469 11.1719 13.0469L14.248 13.0469C14.6387 13.0469 14.9023 13.3105 14.9023 13.7012C14.9023 14.082 14.6387 14.3457 14.248 14.3457L11.1719 14.3457C10.791 14.3457 10.5273 14.082 10.5273 13.7012ZM16.1035 13.6328C16.1035 13.1152 16.5039 12.7246 17.0117 12.7246C17.5195 12.7246 17.9199 13.1152 17.9199 13.6328C17.9199 14.1504 17.5195 14.5312 17.0117 14.5312C16.5039 14.5312 16.1035 14.1504 16.1035 13.6328Z" fill="black" fill-opacity="0.85"/>
 </g>
</svg>
