<?xml version="1.0" encoding="UTF-8"?>
<!--Generator: Apple Native CoreSVG 326-->
<!DOCTYPE svg
PUBLIC "-//W3C//DTD SVG 1.1//EN"
       "http://www.w3.org/Graphics/SVG/1.1/DTD/svg11.dtd">
<svg version="1.1" xmlns="http://www.w3.org/2000/svg" xmlns:xlink="http://www.w3.org/1999/xlink" viewBox="0 0 30.5176 23.6621">
 <g>
  <rect height="23.6621" opacity="0" width="30.5176" x="0" y="0"/>
  <path d="M22.3047 9.26758C26.8164 9.25781 30.1562 12.3438 30.1562 16.4258C30.1562 20.4785 26.8945 23.6426 22.7051 23.6426L6.23047 23.6426C2.38281 23.6426 0.166016 21.1816 0.166016 18.1348C0.166016 15.4492 1.93359 13.3691 4.44336 12.666C4.88281 7.66602 8.95508 3.84766 13.8086 3.84766C17.6172 3.84766 20.6348 5.91797 22.3047 9.26758ZM20.6738 17.0508C20.6738 17.3438 20.8887 17.5391 21.1328 17.5391C21.4258 17.5391 21.543 17.3242 21.6211 17.1484C21.6992 16.8652 21.8359 16.7188 22.0703 16.7188C22.3145 16.7188 22.4707 16.875 22.4707 17.0898C22.4707 17.3926 22.1777 17.7148 21.875 18.0566L20.8594 19.1211C20.7617 19.2188 20.6934 19.4043 20.6934 19.541C20.6934 19.7949 20.8691 19.9707 21.1133 19.9707L23.2031 19.9707C23.4473 19.9707 23.6426 19.7656 23.6426 19.5215C23.6426 19.2969 23.4375 19.082 23.2031 19.082L22.1191 19.082L22.5879 18.5742C23.0859 18.0664 23.457 17.5879 23.457 17.0703C23.457 16.3477 22.8809 15.8203 22.0703 15.8203C21.2109 15.8203 20.6738 16.4746 20.6738 17.0508ZM7.64648 15.3027C7.64648 17.5098 8.51562 19.502 10.7324 19.502C12.4121 19.502 13.3887 18.2812 13.4766 16.9336C13.4961 16.5039 13.2422 16.2305 12.8809 16.2305C12.5293 16.2305 12.3535 16.4258 12.2559 16.8262C12.0898 17.6172 11.6699 18.3398 10.7324 18.3398C9.35547 18.3398 8.91602 16.8555 8.91602 15.3027C8.91602 13.7988 9.375 12.3047 10.7227 12.3047C11.6602 12.3047 12.0508 13.0371 12.2266 13.8281C12.3242 14.2383 12.5 14.4238 12.8516 14.4238C13.2129 14.4238 13.4668 14.1504 13.4473 13.7207C13.3594 12.373 12.3828 11.1523 10.7031 11.1523C8.58398 11.1523 7.64648 13.0469 7.64648 15.3027ZM14.0234 15.3223C14.0234 17.8809 15.2148 19.502 17.0996 19.502C18.9648 19.502 20.1465 17.8809 20.1465 15.3223C20.1465 12.7637 18.9648 11.1523 17.0801 11.1523C15.2148 11.1523 14.0234 12.7637 14.0234 15.3223ZM18.877 15.3223C18.877 17.2168 18.1934 18.3398 17.0996 18.3398C15.9863 18.3398 15.293 17.2168 15.293 15.3223C15.293 13.4375 15.9766 12.3047 17.0801 12.3047C18.1934 12.3047 18.877 13.4375 18.877 15.3223ZM3.48633 9.66797C3.48633 10.6445 2.71484 11.416 1.75781 11.416C0.771484 11.416 0 10.6445 0 9.66797C0 8.70117 0.771484 7.93945 1.75781 7.93945C2.71484 7.93945 3.48633 8.70117 3.48633 9.66797ZM27.9004 5.14648C27.9004 6.51367 26.8066 7.59766 25.459 7.59766C24.082 7.59766 22.9883 6.51367 22.9883 5.14648C22.9883 3.7793 24.082 2.69531 25.459 2.69531C26.8066 2.69531 27.9004 3.7793 27.9004 5.14648ZM21.8457 1.64062C21.8457 2.53906 21.1035 3.28125 20.2051 3.28125C19.3066 3.28125 18.5645 2.53906 18.5645 1.64062C18.5645 0.742188 19.3066 0 20.2051 0C21.1035 0 21.8457 0.742188 21.8457 1.64062Z" fill="black" fill-opacity="0.85"/>
 </g>
</svg>
