<?xml version="1.0" encoding="UTF-8"?>
<!--Generator: Apple Native CoreSVG 326-->
<!DOCTYPE svg
PUBLIC "-//W3C//DTD SVG 1.1//EN"
       "http://www.w3.org/Graphics/SVG/1.1/DTD/svg11.dtd">
<svg version="1.1" xmlns="http://www.w3.org/2000/svg" xmlns:xlink="http://www.w3.org/1999/xlink" viewBox="0 0 30.5176 23.6621">
 <g>
  <rect height="23.6621" opacity="0" width="30.5176" x="0" y="0"/>
  <path d="M22.3047 9.26758C26.8164 9.25781 30.1562 12.3438 30.1562 16.4258C30.1562 20.4785 26.8945 23.6426 22.7051 23.6426L6.23047 23.6426C2.38281 23.6426 0.166016 21.1816 0.166016 18.1348C0.166016 15.4492 1.93359 13.3691 4.44336 12.666C4.88281 7.66602 8.95508 3.84766 13.8086 3.84766C17.6172 3.84766 20.6348 5.91797 22.3047 9.26758ZM8.67188 15.3027C8.67188 17.5098 9.54102 19.502 11.7578 19.502C13.4375 19.502 14.4141 18.2812 14.502 16.9336C14.5215 16.5039 14.2676 16.2305 13.9062 16.2305C13.5547 16.2305 13.3789 16.4258 13.2812 16.8262C13.1152 17.6172 12.6953 18.3398 11.7578 18.3398C10.3809 18.3398 9.94141 16.8555 9.94141 15.3027C9.94141 13.7988 10.4004 12.3047 11.748 12.3047C12.6855 12.3047 13.0859 13.0371 13.252 13.8281C13.3496 14.2383 13.5254 14.4238 13.877 14.4238C14.2383 14.4238 14.4922 14.1504 14.4727 13.7207C14.3848 12.373 13.4082 11.1523 11.7285 11.1523C9.61914 11.1523 8.67188 13.0469 8.67188 15.3027ZM15.0488 15.3223C15.0488 17.8809 16.2402 19.502 18.125 19.502C19.9902 19.502 21.1719 17.8809 21.1719 15.3223C21.1719 12.7637 19.9902 11.1523 18.1055 11.1523C16.2402 11.1523 15.0488 12.7637 15.0488 15.3223ZM19.9023 15.3223C19.9023 17.2168 19.2285 18.3398 18.125 18.3398C17.0117 18.3398 16.3184 17.2168 16.3184 15.3223C16.3184 13.4375 17.0117 12.3047 18.1055 12.3047C19.2188 12.3047 19.9023 13.4375 19.9023 15.3223ZM3.48633 9.66797C3.48633 10.6445 2.71484 11.416 1.75781 11.416C0.771484 11.416 0 10.6445 0 9.66797C0 8.70117 0.771484 7.93945 1.75781 7.93945C2.71484 7.93945 3.48633 8.70117 3.48633 9.66797ZM27.9004 5.14648C27.9004 6.51367 26.8066 7.59766 25.459 7.59766C24.082 7.59766 22.9883 6.51367 22.9883 5.14648C22.9883 3.7793 24.082 2.69531 25.459 2.69531C26.8066 2.69531 27.9004 3.7793 27.9004 5.14648ZM21.8457 1.64062C21.8457 2.53906 21.1035 3.28125 20.2051 3.28125C19.3066 3.28125 18.5645 2.53906 18.5645 1.64062C18.5645 0.742188 19.3066 0 20.2051 0C21.1035 0 21.8457 0.742188 21.8457 1.64062Z" fill="black" fill-opacity="0.85"/>
 </g>
</svg>
