<?xml version="1.0" encoding="UTF-8"?>
<!--Generator: Apple Native CoreSVG 326-->
<!DOCTYPE svg
PUBLIC "-//W3C//DTD SVG 1.1//EN"
       "http://www.w3.org/Graphics/SVG/1.1/DTD/svg11.dtd">
<svg version="1.1" xmlns="http://www.w3.org/2000/svg" xmlns:xlink="http://www.w3.org/1999/xlink" viewBox="0 0 30.5176 23.6621">
 <g>
  <rect height="23.6621" opacity="0" width="30.5176" x="0" y="0"/>
  <path d="M6.23047 23.6426L22.7051 23.6426C26.8945 23.6426 30.1562 20.4785 30.1562 16.4258C30.1562 12.3438 26.8164 9.25781 22.3047 9.26758C20.6348 5.91797 17.6172 3.84766 13.8086 3.84766C8.95508 3.84766 4.88281 7.66602 4.44336 12.666C1.93359 13.3691 0.166016 15.4492 0.166016 18.1348C0.166016 21.1816 2.38281 23.6426 6.23047 23.6426ZM6.21094 21.9141C3.49609 21.9141 1.89453 20.3809 1.89453 18.1836C1.89453 16.2793 3.14453 14.873 5.26367 14.3066C5.89844 14.1504 6.12305 13.8672 6.17188 13.2227C6.46484 8.89648 9.80469 5.57617 13.8086 5.57617C17.0117 5.57617 19.4238 7.37305 20.8398 10.293C21.1133 10.8594 21.4355 11.0449 22.1387 11.0449C26.0449 11.0449 28.418 13.5059 28.418 16.4746C28.418 19.5117 25.9668 21.9141 22.8125 21.9141ZM1.75781 11.416C2.71484 11.416 3.48633 10.6445 3.48633 9.66797C3.48633 8.70117 2.71484 7.93945 1.75781 7.93945C0.771484 7.93945 0 8.70117 0 9.66797C0 10.6445 0.771484 11.416 1.75781 11.416ZM20.2051 3.28125C21.1035 3.28125 21.8457 2.53906 21.8457 1.64062C21.8457 0.742188 21.1035 0 20.2051 0C19.3066 0 18.5645 0.742188 18.5645 1.64062C18.5645 2.53906 19.3066 3.28125 20.2051 3.28125ZM25.459 7.59766C26.8066 7.59766 27.9004 6.51367 27.9004 5.14648C27.9004 3.7793 26.8066 2.69531 25.459 2.69531C24.082 2.69531 22.9883 3.7793 22.9883 5.14648C22.9883 6.51367 24.082 7.59766 25.459 7.59766Z" fill="black" fill-opacity="0.85"/>
  <path d="M11.8164 19.4043C13.457 19.4043 14.4043 18.2031 14.4922 16.8945C14.5117 16.4746 14.2578 16.2109 13.9062 16.2109C13.5742 16.2109 13.3984 16.4062 13.3105 16.7871C13.1445 17.5684 12.7344 18.2812 11.8164 18.2812C10.459 18.2812 10.0293 16.8262 10.0293 15.3027C10.0293 13.8281 10.4785 12.3633 11.8066 12.3633C12.7246 12.3633 13.1055 13.0859 13.2812 13.8672C13.3691 14.2578 13.5449 14.4434 13.877 14.4434C14.2285 14.4434 14.4824 14.1797 14.4629 13.7598C14.375 12.4414 13.4277 11.25 11.7871 11.25C9.7168 11.25 8.79883 13.0957 8.79883 15.3027C8.79883 17.4609 9.64844 19.4043 11.8164 19.4043ZM17.9297 19.4043C19.7559 19.4043 20.9082 17.8223 20.9082 15.3223C20.9082 12.8223 19.7559 11.25 17.9199 11.25C16.084 11.25 14.9219 12.8223 14.9219 15.3223C14.9219 17.8223 16.084 19.4043 17.9297 19.4043ZM17.9297 18.2812C16.8457 18.2812 16.1621 17.1777 16.1621 15.3223C16.1621 13.4766 16.8359 12.3633 17.9199 12.3633C18.9941 12.3633 19.6777 13.4766 19.6777 15.3223C19.6777 17.1777 19.0039 18.2812 17.9297 18.2812Z" fill="black" fill-opacity="0.85"/>
 </g>
</svg>
