<?xml version="1.0" encoding="UTF-8"?>
<!--Generator: Apple Native CoreSVG 326-->
<!DOCTYPE svg
PUBLIC "-//W3C//DTD SVG 1.1//EN"
       "http://www.w3.org/Graphics/SVG/1.1/DTD/svg11.dtd">
<svg version="1.1" xmlns="http://www.w3.org/2000/svg" xmlns:xlink="http://www.w3.org/1999/xlink" viewBox="0 0 28.9534 29.0742">
 <g>
  <rect height="29.0742" opacity="0" width="28.9534" x="0" y="0"/>
  <path d="M20.546 7.98922C22.4503 6.59274 24.2277 1.05563 22.0792 0.58688C19.8917 0.137661 19.3253 5.94821 20.546 7.98922ZM20.7804 8.37008C23.7003 8.29196 29.462 3.66305 27.4699 1.6611C25.4874-0.321323 20.8683 5.4404 20.7804 8.37008ZM21.171 8.59469C23.1925 9.83493 29.0226 9.25875 28.5734 7.09079C28.1046 4.91305 22.5577 6.70993 21.171 8.59469ZM0.682744 28.4091C1.29798 29.0244 2.24524 29.3955 3.35853 28.6923L9.70618 24.7177L8.24134 23.292C7.92884 22.999 7.9386 22.5595 8.22181 22.2763C8.49524 21.9931 8.9347 21.9736 9.22767 22.2666L10.9464 23.9267L12.3234 23.0673L10.2238 21.0556C9.92103 20.7529 9.92103 20.3232 10.2042 20.04C10.4874 19.7568 10.9171 19.7373 11.2199 20.0302L13.5734 22.2861L20.1163 18.1748C24.296 15.5478 25.0675 11.3779 21.9425 8.21383L20.8683 7.12008C18.1046 4.31735 14.4718 4.63961 11.8644 7.69625L15.0773 10.8017C15.38 11.0947 15.38 11.5244 15.1066 11.8076C14.8331 12.1006 14.3839 12.1201 14.0812 11.8271L10.9757 8.8486L10.1261 10.1865L12.4308 12.4033C12.7335 12.706 12.7238 13.1455 12.4406 13.4287C12.1574 13.7021 11.7277 13.7216 11.4347 13.4287L9.35462 11.4463L0.38001 25.6943C-0.284052 26.749-0.010615 27.7158 0.682744 28.4091Z" fill="black" fill-opacity="0.85"/>
 </g>
</svg>
