<?xml version="1.0" encoding="UTF-8"?>
<!--Generator: Apple Native CoreSVG 326-->
<!DOCTYPE svg
PUBLIC "-//W3C//DTD SVG 1.1//EN"
       "http://www.w3.org/Graphics/SVG/1.1/DTD/svg11.dtd">
<svg version="1.1" xmlns="http://www.w3.org/2000/svg" xmlns:xlink="http://www.w3.org/1999/xlink" viewBox="0 0 28.0948 26.2988">
 <g>
  <rect height="26.2988" opacity="0" width="28.0948" x="0" y="0"/>
  <path d="M0.194886 21.0742C1.24957 25.0684 2.45074 26.2891 4.95074 26.2891L19.355 26.2891C21.1519 26.2891 22.3726 25.2832 22.8218 23.457L27.5484 4.23828C28.2711 1.31836 26.7867 0 25.0679 0C22.7925 0 20.3414 2.34375 21.6304 6.32812L21.9429 5.01953C18.2613 6.94336 16.5035 11.6895 17.1578 17.2852L17.5582 16.748C14.941 16.2012 11.6011 15.8887 8.33942 15.8887C1.84528 15.8887-0.771911 17.4512 0.194886 21.0742Z" fill="black" fill-opacity="0.85"/>
  <path d="M3.39801 11.4551L9.33551 11.4551C9.74567 11.4551 10.0386 11.1621 10.0386 10.7715C10.0386 10.3613 9.74567 10.0781 9.33551 10.0781L4.91168 10.0879L4.91168 10.0488L7.81207 6.88477C8.7691 5.86914 9.43317 4.98047 9.43317 3.75977C9.43317 2.01172 8.09528 0.859375 6.00543 0.859375C4.38434 0.859375 2.96832 1.8457 2.63629 3.17383C2.59723 3.33984 2.56793 3.4668 2.56793 3.61328C2.56793 4.02344 2.84137 4.29688 3.26129 4.29688C3.64215 4.29688 3.83746 4.0625 4.01324 3.75C4.25739 2.95898 4.94098 2.2168 6.06403 2.2168C7.18707 2.2168 7.94879 2.88086 7.94879 3.85742C7.94879 4.66797 7.32379 5.36133 6.62067 6.12305L2.92926 10.127C2.74371 10.332 2.64606 10.5176 2.64606 10.7617C2.64606 11.1816 2.92926 11.4551 3.39801 11.4551Z" fill="black" fill-opacity="0.85"/>
 </g>
</svg>
