<?xml version="1.0" encoding="UTF-8"?>
<!--Generator: Apple Native CoreSVG 326-->
<!DOCTYPE svg
PUBLIC "-//W3C//DTD SVG 1.1//EN"
       "http://www.w3.org/Graphics/SVG/1.1/DTD/svg11.dtd">
<svg version="1.1" xmlns="http://www.w3.org/2000/svg" xmlns:xlink="http://www.w3.org/1999/xlink" viewBox="0 0 28.2792 26.3184">
 <g>
  <rect height="26.3184" opacity="0" width="28.2792" x="0" y="0"/>
  <path d="M7.13538 5.54826C9.76002 7.5675 11.2338 11.7069 11.0067 16.5599C11.8899 16.4114 12.8225 16.2886 13.7847 16.1906C13.4707 16.719 13.1924 17.3024 13.1923 18.0175C12.0628 18.1463 11.1528 18.2735 10.497 18.3398C9.80365 18.3789 9.37396 17.9395 9.38373 17.2363C9.53998 12.4512 8.20209 8.37891 5.81928 6.71875C5.38959 6.38672 5.32123 6.16211 5.43842 5.42969C5.77045 3.00781 4.45209 1.72852 3.02631 1.72852C2.07904 1.72852 1.50287 2.49023 1.8349 3.81836L6.58099 23.0469C6.82514 24.0234 7.45014 24.5605 8.3681 24.5605L22.9677 24.5605C24.4521 24.5605 25.165 24.0234 26.0732 20.625C26.5275 18.9095 25.5869 18.0171 22.3789 17.7327C22.4621 17.1848 22.844 16.6835 23.1971 16.1205C27.0253 16.6573 28.4845 18.2324 27.7236 21.084C26.6689 25.0781 25.4677 26.2988 22.9677 26.2988L8.3681 26.2988C6.57123 26.2988 5.35053 25.293 4.90131 23.4668L0.174745 4.24805C-0.489318 1.60156 0.799745 0 3.01654 0C5.54217 0 7.67901 2.19746 7.13538 5.54826ZM17.1788 17.686C16.183 17.7329 15.2652 17.8052 14.4374 17.8859C14.4628 17.2561 14.9106 16.6988 15.3066 16.0586C16.1608 15.9924 17.0329 15.9477 17.9116 15.9254C17.5892 16.4427 17.2609 17.0029 17.1788 17.686ZM21.8467 15.9733C21.5386 16.4699 21.2323 17.0079 21.1483 17.6574C20.6749 17.6361 20.1524 17.627 19.5888 17.627C19.1941 17.627 18.808 17.6317 18.4342 17.6419C18.5546 17.059 19.0011 16.5233 19.3656 15.9007C19.44 15.8986 19.5144 15.8984 19.5888 15.8984C20.4022 15.8984 21.1548 15.923 21.8467 15.9733Z" fill="black" fill-opacity="0.85"/>
  <path d="M15.9169 14.248C15.9169 12.6562 14.4326 11.7188 14.4326 10.5273C14.4326 9.89258 14.5986 9.52148 15.038 8.93555C15.5654 8.23242 14.579 7.51953 14.0322 8.20312C13.4462 8.95508 13.1923 9.61914 13.1923 10.4492C13.1923 12.1191 14.6572 13.0469 14.6572 14.248C14.6572 15.4297 13.1923 16.377 13.1923 18.0176C13.1923 18.877 13.4462 19.541 14.0224 20.2734C14.5497 20.9473 15.5458 20.2344 15.0185 19.5312C14.5986 18.9746 14.4326 18.6133 14.4326 17.9492C14.4326 16.7773 15.9169 15.8691 15.9169 14.248ZM19.8818 14.248C19.8818 12.6562 18.3974 11.7188 18.3974 10.5273C18.3974 9.89258 18.5732 9.52148 19.0029 8.93555C19.5302 8.23242 18.5439 7.51953 17.997 8.20312C17.4111 8.95508 17.1572 9.61914 17.1572 10.4492C17.1572 12.1191 18.622 13.0469 18.622 14.248C18.622 15.4297 17.1572 16.377 17.1572 18.0176C17.1572 18.877 17.4111 19.541 17.9872 20.2734C18.5146 20.9473 19.5107 20.2344 18.9833 19.5312C18.5732 18.9746 18.3974 18.6133 18.3974 17.9492C18.3974 16.7773 19.8818 15.8691 19.8818 14.248ZM23.8466 14.248C23.8466 12.6562 22.3622 11.7188 22.3622 10.5273C22.3622 9.89258 22.538 9.52148 22.9677 8.93555C23.4951 8.23242 22.5087 7.51953 21.9716 8.20312C21.3759 8.95508 21.122 9.61914 21.122 10.4492C21.122 12.1191 22.5869 13.0469 22.5869 14.248C22.5869 15.4297 21.122 16.377 21.122 18.0176C21.122 18.877 21.3759 19.541 21.9521 20.2734C22.4892 20.9473 23.4755 20.2344 22.9482 19.5312C22.538 18.9746 22.3622 18.6133 22.3622 17.9492C22.3622 16.7773 23.8466 15.8691 23.8466 14.248Z" fill="black" fill-opacity="0.85"/>
 </g>
</svg>
