<?xml version="1.0" encoding="UTF-8"?>
<!--Generator: Apple Native CoreSVG 326-->
<!DOCTYPE svg
PUBLIC "-//W3C//DTD SVG 1.1//EN"
       "http://www.w3.org/Graphics/SVG/1.1/DTD/svg11.dtd">
<svg version="1.1" xmlns="http://www.w3.org/2000/svg" xmlns:xlink="http://www.w3.org/1999/xlink" viewBox="0 0 28.0948 26.2988">
 <g>
  <rect height="26.2988" opacity="0" width="28.0948" x="0" y="0"/>
  <path d="M0.194886 21.0742C1.24957 25.0684 2.45074 26.2891 4.95074 26.2891L19.355 26.2891C21.1519 26.2891 22.3726 25.2832 22.8218 23.457L27.5484 4.23828C28.2711 1.31836 26.7867 0 25.0679 0C22.7925 0 20.3414 2.34375 21.6304 6.32812L21.9429 5.01953C18.2613 6.94336 16.5035 11.6895 17.1578 17.2852L17.5582 16.748C14.941 16.2012 11.6011 15.8887 8.33942 15.8887C1.84528 15.8887-0.771911 17.4512 0.194886 21.0742Z" fill="black" fill-opacity="0.85"/>
  <path d="M7.02106 11.6699C7.52887 11.6699 7.8316 11.3477 7.8316 10.7812L7.8316 1.75781C7.8316 1.17188 7.50934 0.859375 6.97223 0.859375C6.5816 0.859375 6.33746 0.957031 5.90778 1.25977L3.65192 2.76367C3.41754 2.92969 3.33942 3.08594 3.33942 3.33008C3.33942 3.65234 3.60309 3.93555 3.91559 3.93555C4.06207 3.93555 4.17926 3.90625 4.43317 3.7207L6.13239 2.61719L6.23981 2.61719L6.23981 10.7812C6.23981 11.3379 6.54254 11.6699 7.02106 11.6699Z" fill="black" fill-opacity="0.85"/>
 </g>
</svg>
