<?xml version="1.0" encoding="UTF-8"?>
<!--Generator: Apple Native CoreSVG 326-->
<!DOCTYPE svg
PUBLIC "-//W3C//DTD SVG 1.1//EN"
       "http://www.w3.org/Graphics/SVG/1.1/DTD/svg11.dtd">
<svg version="1.1" xmlns="http://www.w3.org/2000/svg" xmlns:xlink="http://www.w3.org/1999/xlink" viewBox="0 0 28.0991 26.2988">
 <g>
  <rect height="26.2988" opacity="0" width="28.0991" x="0" y="0"/>
  <path d="M27.5408 21.0742C28.5173 17.4512 25.8904 15.8887 19.406 15.8887C16.1345 15.8887 12.7947 16.2012 10.1775 16.748L10.5779 17.2852C11.2419 11.6895 9.47435 6.94336 5.79271 5.01953L6.10521 6.32812C7.39427 2.34375 4.9431 0 2.66771 0C0.94896 0-0.535415 1.31836 0.187241 4.23828L4.9138 23.457C5.36302 25.2832 6.59349 26.2891 8.39037 26.2891L22.7849 26.2891C25.2849 26.2891 26.4861 25.0684 27.5408 21.0742Z" fill="black" fill-opacity="0.85"/>
  <path d="M14.3669 8.38867C14.3669 10.2148 16.0173 12.0508 17.5994 12.0508C19.0056 12.0508 19.7478 10.8203 20.5095 8.55469L20.8806 8.49609L20.8806 10.9766C20.8806 12.002 21.4079 12.5195 22.404 12.5195C24.2204 12.5195 26.0564 10.8789 26.0564 9.28711C26.0564 7.87109 24.8259 7.14844 22.5505 6.37695L22.5017 6.00586L24.9822 6.00586C26.0076 6.00586 26.5251 5.47852 26.5251 4.49219C26.5251 2.65625 24.8845 0.820312 23.2927 0.820312C21.8767 0.820312 21.1443 2.06055 20.3826 4.3457L20.0115 4.38477L20.0115 1.9043C20.0115 0.888672 19.4939 0.351562 18.4978 0.351562C16.6619 0.351562 14.8259 2.00195 14.8259 3.59375C14.8259 5 16.0759 5.73242 18.3513 6.49414L18.3806 6.875L15.9197 6.875C14.8943 6.875 14.3669 7.40234 14.3669 8.38867ZM20.4411 7.70508C19.7478 7.70508 19.1716 7.13867 19.1716 6.43555C19.1716 5.74219 19.7478 5.17578 20.4411 5.17578C21.1443 5.17578 21.7107 5.74219 21.7107 6.43555C21.7107 7.13867 21.1443 7.70508 20.4411 7.70508Z" fill="black" fill-opacity="0.85"/>
 </g>
</svg>
