<?xml version="1.0" encoding="UTF-8"?>
<!--Generator: Apple Native CoreSVG 326-->
<!DOCTYPE svg
PUBLIC "-//W3C//DTD SVG 1.1//EN"
       "http://www.w3.org/Graphics/SVG/1.1/DTD/svg11.dtd">
<svg version="1.1" xmlns="http://www.w3.org/2000/svg" xmlns:xlink="http://www.w3.org/1999/xlink" viewBox="0 0 28.0991 26.2988">
 <g>
  <rect height="26.2988" opacity="0" width="28.0991" x="0" y="0"/>
  <path d="M15.9294 14.2383C15.9294 15.8594 14.4451 16.7676 14.4451 17.9395C14.4451 18.6035 14.6111 18.9648 15.031 19.5215C15.5583 20.2246 14.5622 20.9375 14.0349 20.2637C13.4587 19.5312 13.2048 18.8672 13.2048 18.0078C13.2048 16.3672 14.6697 15.4199 14.6697 14.2383C14.6697 13.0371 13.2048 12.1094 13.2048 10.4395C13.2048 9.60938 13.4587 8.94531 14.0447 8.19336C14.5915 7.50977 15.5779 8.22266 15.0505 8.92578C14.6111 9.51172 14.4451 9.88281 14.4451 10.5176C14.4451 11.709 15.9294 12.6465 15.9294 14.2383ZM19.8943 14.2383C19.8943 15.8594 18.4099 16.7676 18.4099 17.9395C18.4099 18.6035 18.5857 18.9648 18.9958 19.5215C19.5232 20.2246 18.5271 20.9375 17.9997 20.2637C17.4236 19.5312 17.1697 18.8672 17.1697 18.0078C17.1697 16.3672 18.6345 15.4199 18.6345 14.2383C18.6345 13.0371 17.1697 12.1094 17.1697 10.4395C17.1697 9.60938 17.4236 8.94531 18.0095 8.19336C18.5564 7.50977 19.5427 8.22266 19.0154 8.92578C18.5857 9.51172 18.4099 9.88281 18.4099 10.5176C18.4099 11.709 19.8943 12.6465 19.8943 14.2383ZM23.8591 14.2383C23.8591 15.8594 22.3747 16.7676 22.3747 17.9395C22.3747 18.6035 22.5505 18.9648 22.9607 19.5215C23.488 20.2246 22.5017 20.9375 21.9646 20.2637C21.3884 19.5312 21.1345 18.8672 21.1345 18.0078C21.1345 16.3672 22.5994 15.4199 22.5994 14.2383C22.5994 13.0371 21.1345 12.1094 21.1345 10.4395C21.1345 9.60938 21.3884 8.94531 21.9841 8.19336C22.5212 7.50977 23.5076 8.22266 22.9802 8.92578C22.5505 9.51172 22.3747 9.88281 22.3747 10.5176C22.3747 11.709 23.8591 12.6465 23.8591 14.2383ZM27.5408 21.0742C28.5173 17.4512 25.8904 15.8887 19.406 15.8887C16.1345 15.8887 12.7947 16.2012 10.1775 16.748L10.5779 17.2852C11.2419 11.6895 9.47435 6.94336 5.79271 5.01953L6.10521 6.32812C7.39427 2.34375 4.9431 0 2.66771 0C0.94896 0-0.535415 1.31836 0.187241 4.23828L4.9138 23.457C5.36302 25.2832 6.59349 26.2891 8.39037 26.2891L22.7849 26.2891C25.2849 26.2891 26.4861 25.0684 27.5408 21.0742Z" fill="black" fill-opacity="0.85"/>
 </g>
</svg>
