<?xml version="1.0" encoding="UTF-8"?>
<!--Generator: Apple Native CoreSVG 326-->
<!DOCTYPE svg
PUBLIC "-//W3C//DTD SVG 1.1//EN"
       "http://www.w3.org/Graphics/SVG/1.1/DTD/svg11.dtd">
<svg version="1.1" xmlns="http://www.w3.org/2000/svg" xmlns:xlink="http://www.w3.org/1999/xlink" viewBox="0 0 28.2792 35.8887">
 <g>
  <rect height="35.8887" opacity="0" width="28.2792" x="0" y="0"/>
  <path d="M27.7236 21.0938C28.6904 17.4707 26.0732 15.9082 19.5888 15.9082C16.3954 15.9082 13.1923 16.1719 10.4579 16.6602L10.9658 17.2949C11.3954 11.9043 9.75482 7.27539 6.76654 5.27344L6.97162 6.32812C7.99701 2.53906 5.73139 0 3.01654 0C0.799745 0-0.489318 1.60156 0.174745 4.25781L4.90131 23.4766C5.35053 25.3027 6.57123 26.2988 8.3681 26.2988L22.9677 26.2988C25.4677 26.2988 26.6689 25.0879 27.7236 21.0938ZM26.0732 20.6348C25.165 24.0332 24.4521 24.5703 22.9677 24.5703L8.3681 24.5703C7.45014 24.5703 6.82514 24.0234 6.58099 23.0469L1.8349 3.81836C1.50287 2.5 2.07904 1.73828 3.02631 1.73828C4.45209 1.73828 5.77045 3.01758 5.43842 5.43945C5.32123 6.17188 5.38959 6.39648 5.81928 6.72852C8.20209 8.37891 9.53998 12.4609 9.38373 17.2461C9.37396 17.9492 9.80365 18.3789 10.497 18.3496C12.1376 18.1738 15.3701 17.6367 19.5888 17.6367C25.038 17.6367 26.6396 18.4961 26.0732 20.6348Z" fill="black" fill-opacity="0.85"/>
  <path d="M19.1298 34.9902C19.1298 35.6152 19.6474 35.8691 20.1747 35.5469L24.6572 32.8125C25.1845 32.4902 25.1747 31.875 24.6572 31.5625L20.165 28.8086C19.6474 28.4863 19.1298 28.75 19.1298 29.3652Z" fill="black" fill-opacity="0.85"/>
  <path d="M12.5185 34.9902L12.5185 29.3652C12.5185 28.75 12.0107 28.4863 11.4833 28.8086L6.99115 31.5625C6.47357 31.875 6.46381 32.4902 6.99115 32.8125L11.4736 35.5469C12.0009 35.8691 12.5185 35.6152 12.5185 34.9902Z" fill="black" fill-opacity="0.85"/>
 </g>
</svg>
