<?xml version="1.0" encoding="UTF-8"?>
<!--Generator: Apple Native CoreSVG 326-->
<!DOCTYPE svg
PUBLIC "-//W3C//DTD SVG 1.1//EN"
       "http://www.w3.org/Graphics/SVG/1.1/DTD/svg11.dtd">
<svg version="1.1" xmlns="http://www.w3.org/2000/svg" xmlns:xlink="http://www.w3.org/1999/xlink" viewBox="0 0 28.0948 26.2988">
 <g>
  <rect height="26.2988" opacity="0" width="28.0948" x="0" y="0"/>
  <path d="M6.59137 14.2383C6.59137 15.8594 5.10699 16.7676 5.10699 17.9395C5.10699 18.6035 5.28278 18.9648 5.69293 19.5215C6.22028 20.2246 5.23395 20.9375 4.69684 20.2637C4.12067 19.5312 3.87653 18.8672 3.87653 18.0078C3.87653 16.3672 5.34137 15.4199 5.34137 14.2383C5.34137 13.0371 3.87653 12.1094 3.87653 10.4395C3.87653 9.60938 4.12067 8.94531 4.71637 8.19336C5.25348 7.50977 6.23981 8.22266 5.71246 8.92578C5.28278 9.51172 5.10699 9.88281 5.10699 10.5176C5.10699 11.709 6.59137 12.6465 6.59137 14.2383ZM10.5562 14.2383C10.5562 15.8594 9.07184 16.7676 9.07184 17.9395C9.07184 18.6035 9.24762 18.9648 9.65778 19.5215C10.1949 20.2246 9.19879 20.9375 8.67145 20.2637C8.08551 19.5312 7.84137 18.8672 7.84137 18.0078C7.84137 16.3672 9.30621 15.4199 9.30621 14.2383C9.30621 13.0371 7.84137 12.1094 7.84137 10.4395C7.84137 9.60938 8.08551 8.94531 8.68121 8.19336C9.21832 7.50977 10.2047 8.22266 9.67731 8.92578C9.24762 9.51172 9.07184 9.88281 9.07184 10.5176C9.07184 11.709 10.5562 12.6465 10.5562 14.2383ZM14.5211 14.2383C14.5211 15.8594 13.0367 16.7676 13.0367 17.9395C13.0367 18.6035 13.2125 18.9648 13.6226 19.5215C14.1597 20.2246 13.1636 20.9375 12.6363 20.2637C12.0504 19.5312 11.8062 18.8672 11.8062 18.0078C11.8062 16.3672 13.2711 15.4199 13.2711 14.2383C13.2711 13.0371 11.8062 12.1094 11.8062 10.4395C11.8062 9.60938 12.0504 8.94531 12.6461 8.19336C13.1929 7.50977 14.1793 8.22266 13.6422 8.92578C13.2125 9.51172 13.0367 9.88281 13.0367 10.5176C13.0367 11.709 14.5211 12.6465 14.5211 14.2383ZM0.194886 21.0742C1.24957 25.0684 2.45074 26.2891 4.95074 26.2891L19.355 26.2891C21.1519 26.2891 22.3726 25.2832 22.8218 23.457L27.5484 4.23828C28.2711 1.31836 26.7867 0 25.0679 0C22.7925 0 20.3414 2.34375 21.6304 6.32812L21.9429 5.01953C18.2613 6.94336 16.5035 11.6895 17.1578 17.2852L17.5582 16.748C14.941 16.2012 11.6011 15.8887 8.33942 15.8887C1.84528 15.8887-0.771911 17.4512 0.194886 21.0742Z" fill="black" fill-opacity="0.85"/>
 </g>
</svg>
