<?xml version="1.0" encoding="UTF-8"?>
<!--Generator: Apple Native CoreSVG 326-->
<!DOCTYPE svg
PUBLIC "-//W3C//DTD SVG 1.1//EN"
       "http://www.w3.org/Graphics/SVG/1.1/DTD/svg11.dtd">
<svg version="1.1" xmlns="http://www.w3.org/2000/svg" xmlns:xlink="http://www.w3.org/1999/xlink" viewBox="0 0 28.2804 26.3184">
 <g>
  <rect height="26.3184" opacity="0" width="28.2804" x="0" y="0"/>
  <path d="M27.7535 4.24805L23.0172 23.4668C22.5777 25.293 21.3472 26.2988 19.5504 26.2988L4.95074 26.2988C2.45074 26.2988 1.24957 25.0781 0.194886 21.084C-0.564616 18.2378 0.887719 16.6632 4.70488 16.1236C4.38612 16.6501 4.09321 17.2295 4.07606 17.9407C2.05503 18.3543 1.48014 19.2094 1.85504 20.625C2.75348 24.0234 3.46637 24.5605 4.95074 24.5605L19.5504 24.5605C20.4683 24.5605 21.1031 24.0234 21.3375 23.0469L26.0933 3.81836C26.4156 2.49023 25.8492 1.72852 24.8922 1.72852C23.4664 1.72852 22.1578 3.00781 22.4898 5.42969C22.5972 6.16211 22.5289 6.38672 22.0992 6.71875C19.7261 8.37891 18.3785 12.4512 18.5445 17.2363C18.5543 17.9395 18.1148 18.3789 17.4214 18.3398C16.5024 18.2463 15.0748 18.0318 13.2484 17.8624C13.2807 17.2828 13.6685 16.7636 14.038 16.1816C15.0378 16.2808 16.006 16.4075 16.9216 16.5615C16.6935 11.7125 18.1565 7.57585 20.7839 5.55408C20.2382 2.20005 22.3839 0 24.9019 0C27.1285 0 28.4078 1.60156 27.7535 4.24805ZM12.6717 16.0628C12.3662 16.5608 12.0757 17.1042 12.0156 17.7611C11.1797 17.7012 10.2772 17.6557 9.31436 17.6377C9.43317 17.0662 9.86273 16.5398 10.2204 15.9318C11.0468 15.9556 11.8672 15.9996 12.6717 16.0628ZM8.80501 15.9032C8.48722 16.4121 8.16016 16.9619 8.06751 17.6298C6.99222 17.6338 6.07952 17.6747 5.31711 17.7566C5.39802 17.1492 5.85118 16.6008 6.23231 15.9651C6.87883 15.9196 7.58281 15.8984 8.33942 15.8984C8.49462 15.8984 8.64987 15.8991 8.80501 15.9032Z" fill="black" fill-opacity="0.85"/>
  <path d="M6.78668 14.248C6.78668 12.6562 5.30231 11.7188 5.30231 10.5273C5.30231 9.89258 5.47809 9.52148 5.90778 8.93555C6.44489 8.23242 5.45856 7.51953 4.91168 8.20312C4.31598 8.95508 4.07184 9.61914 4.07184 10.4492C4.07184 12.1191 5.53668 13.0469 5.53668 14.248C5.53668 15.4297 4.07184 16.377 4.07184 18.0176C4.07184 18.877 4.31598 19.541 4.90192 20.2734C5.42926 20.9473 6.42535 20.2344 5.88824 19.5312C5.47809 18.9746 5.30231 18.6133 5.30231 17.9492C5.30231 16.7773 6.78668 15.8691 6.78668 14.248ZM10.7515 14.248C10.7515 12.6562 9.27692 11.7188 9.27692 10.5273C9.27692 9.89258 9.44293 9.52148 9.87262 8.93555C10.4097 8.23242 9.4234 7.51953 8.87653 8.20312C8.28082 8.95508 8.03668 9.61914 8.03668 10.4492C8.03668 12.1191 9.50153 13.0469 9.50153 14.248C9.50153 15.4297 8.03668 16.377 8.03668 18.0176C8.03668 18.877 8.28082 19.541 8.86676 20.2734C9.3941 20.9473 10.3902 20.2344 9.86285 19.5312C9.44293 18.9746 9.27692 18.6133 9.27692 17.9492C9.27692 16.7773 10.7515 15.8691 10.7515 14.248ZM14.7261 14.248C14.7261 12.6562 13.2418 11.7188 13.2418 10.5273C13.2418 9.89258 13.4078 9.52148 13.8472 8.93555C14.3746 8.23242 13.3882 7.51953 12.8414 8.20312C12.2554 8.95508 12.0015 9.61914 12.0015 10.4492C12.0015 12.1191 13.4664 13.0469 13.4664 14.248C13.4664 15.4297 12.0015 16.377 12.0015 18.0176C12.0015 18.877 12.2554 19.541 12.8316 20.2734C13.3589 20.9473 14.355 20.2344 13.8277 19.5312C13.4078 18.9746 13.2418 18.6133 13.2418 17.9492C13.2418 16.7773 14.7261 15.8691 14.7261 14.248Z" fill="black" fill-opacity="0.85"/>
 </g>
</svg>
