<?xml version="1.0" encoding="UTF-8"?>
<!--Generator: Apple Native CoreSVG 326-->
<!DOCTYPE svg
PUBLIC "-//W3C//DTD SVG 1.1//EN"
       "http://www.w3.org/Graphics/SVG/1.1/DTD/svg11.dtd">
<svg version="1.1" xmlns="http://www.w3.org/2000/svg" xmlns:xlink="http://www.w3.org/1999/xlink" viewBox="0 0 28.0991 35.8691">
 <g>
  <rect height="35.8691" opacity="0" width="28.0991" x="0" y="0"/>
  <path d="M27.5408 21.084C28.5173 17.4609 25.8904 15.8984 19.406 15.8984C16.1345 15.8984 12.7947 16.2109 10.1775 16.748L10.5779 17.2949C11.2419 11.6992 9.47435 6.95312 5.79271 5.0293L6.10521 6.33789C7.39427 2.35352 4.9431 0 2.66771 0C0.94896 0-0.535415 1.32812 0.187241 4.24805L4.9138 23.4668C5.36302 25.293 6.59349 26.2891 8.39037 26.2891L22.7849 26.2891C25.2849 26.2891 26.4861 25.0781 27.5408 21.084Z" fill="black" fill-opacity="0.85"/>
  <path d="M18.947 34.9805C18.947 35.6055 19.4646 35.8594 19.9919 35.5371L24.4744 32.8027C25.0017 32.4805 24.9822 31.8652 24.4744 31.5527L19.9822 28.7988C19.4548 28.4766 18.947 28.7402 18.947 29.3555Z" fill="black" fill-opacity="0.85"/>
  <path d="M12.3259 34.9805L12.3259 29.3555C12.3259 28.7402 11.8181 28.4766 11.2908 28.7988L6.79857 31.5527C6.29076 31.8652 6.28099 32.4805 6.79857 32.8027L11.2908 35.5371C11.8181 35.8594 12.3259 35.6055 12.3259 34.9805Z" fill="black" fill-opacity="0.85"/>
 </g>
</svg>
