<?xml version="1.0" encoding="UTF-8"?>
<!--Generator: Apple Native CoreSVG 326-->
<!DOCTYPE svg
PUBLIC "-//W3C//DTD SVG 1.1//EN"
       "http://www.w3.org/Graphics/SVG/1.1/DTD/svg11.dtd">
<svg version="1.1" xmlns="http://www.w3.org/2000/svg" xmlns:xlink="http://www.w3.org/1999/xlink" viewBox="0 0 35.5167 26.3184">
 <g>
  <rect height="26.3184" opacity="0" width="35.5167" x="0" y="0"/>
  <path d="M0.194886 21.084C1.24957 25.0781 2.45074 26.2988 4.95074 26.2988L19.5504 26.2988C21.3472 26.2988 22.5777 25.293 23.0172 23.4668L27.7535 4.24805C28.4078 1.60156 27.1285 0 24.9019 0C22.1968 0 19.9214 2.53906 20.9468 6.31836L21.1617 5.27344C18.1636 7.27539 16.5328 11.8945 16.9625 17.2852L17.4605 16.6504C14.7261 16.1621 11.523 15.8984 8.33942 15.8984C1.84528 15.8984-0.771911 17.4609 0.194886 21.084ZM1.85504 20.625C1.28864 18.4863 2.8902 17.627 8.33942 17.627C12.5582 17.627 15.7906 18.1738 17.4214 18.3398C18.1148 18.3789 18.5543 17.9395 18.5445 17.2363C18.3785 12.4512 19.7261 8.37891 22.0992 6.71875C22.5289 6.38672 22.5972 6.16211 22.4898 5.42969C22.1578 3.00781 23.4664 1.72852 24.8922 1.72852C25.8492 1.72852 26.4156 2.49023 26.0933 3.81836L21.3375 23.0469C21.1031 24.0234 20.4683 24.5605 19.5504 24.5605L4.95074 24.5605C3.46637 24.5605 2.75348 24.0234 1.85504 20.625Z" fill="black" fill-opacity="0.85"/>
  <path d="M28.7007 12.4707C28.5445 13.0664 28.9742 13.4473 29.5797 13.2617L34.5992 11.748C35.1851 11.582 35.3316 10.9766 34.9117 10.5469L31.2691 6.74805C30.8394 6.29883 30.273 6.42578 30.1168 7.02148Z" fill="black" fill-opacity="0.85"/>
  <path d="M15.3804 8.08594L16.7964 2.64648C16.9527 2.06055 16.523 1.66016 15.9371 1.8457L10.8882 3.37891C10.3218 3.54492 10.1461 4.15039 10.5757 4.58008L14.2281 8.34961C14.6578 8.79883 15.2242 8.70117 15.3804 8.08594Z" fill="black" fill-opacity="0.85"/>
 </g>
</svg>
