<?xml version="1.0" encoding="UTF-8"?>
<!--Generator: Apple Native CoreSVG 326-->
<!DOCTYPE svg
PUBLIC "-//W3C//DTD SVG 1.1//EN"
       "http://www.w3.org/Graphics/SVG/1.1/DTD/svg11.dtd">
<svg version="1.1" xmlns="http://www.w3.org/2000/svg" xmlns:xlink="http://www.w3.org/1999/xlink" viewBox="0 0 28.2804 35.8887">
 <g>
  <rect height="35.8887" opacity="0" width="28.2804" x="0" y="0"/>
  <path d="M0.194886 21.0938C1.24957 25.0879 2.45074 26.2988 4.95074 26.2988L19.5504 26.2988C21.3472 26.2988 22.5777 25.3027 23.0172 23.4766L27.7535 4.25781C28.4078 1.60156 27.1285 0 24.9019 0C22.1968 0 19.9214 2.53906 20.9468 6.32812L21.1617 5.27344C18.1636 7.27539 16.5328 11.9043 16.9625 17.2949L17.4605 16.6602C14.7261 16.1719 11.523 15.9082 8.33942 15.9082C1.84528 15.9082-0.771911 17.4707 0.194886 21.0938ZM1.85504 20.6348C1.28864 18.4961 2.8902 17.6367 8.33942 17.6367C12.5582 17.6367 15.7906 18.1738 17.4214 18.3496C18.1148 18.3789 18.5543 17.9492 18.5445 17.2461C18.3785 12.4609 19.7261 8.37891 22.0992 6.72852C22.5289 6.39648 22.5972 6.17188 22.4898 5.43945C22.1578 3.01758 23.4664 1.73828 24.8922 1.73828C25.8492 1.73828 26.4156 2.5 26.0933 3.81836L21.3375 23.0469C21.1031 24.0234 20.4683 24.5703 19.5504 24.5703L4.95074 24.5703C3.46637 24.5703 2.75348 24.0332 1.85504 20.6348Z" fill="black" fill-opacity="0.85"/>
  <path d="M15.4 34.9902C15.4 35.6152 15.9175 35.8691 16.4449 35.5469L20.9273 32.8125C21.4547 32.4902 21.4351 31.875 20.9273 31.5625L16.4351 28.8086C15.9078 28.4863 15.4 28.75 15.4 29.3652Z" fill="black" fill-opacity="0.85"/>
  <path d="M8.77887 34.9902L8.77887 29.3652C8.77887 28.75 8.27106 28.4863 7.74371 28.8086L3.25153 31.5625C2.74371 31.875 2.72418 32.4902 3.25153 32.8125L7.74371 35.5469C8.27106 35.8691 8.77887 35.6152 8.77887 34.9902Z" fill="black" fill-opacity="0.85"/>
 </g>
</svg>
