<?xml version="1.0" encoding="UTF-8"?>
<!--Generator: Apple Native CoreSVG 326-->
<!DOCTYPE svg
PUBLIC "-//W3C//DTD SVG 1.1//EN"
       "http://www.w3.org/Graphics/SVG/1.1/DTD/svg11.dtd">
<svg version="1.1" xmlns="http://www.w3.org/2000/svg" xmlns:xlink="http://www.w3.org/1999/xlink" viewBox="0 0 28.2804 26.3184">
 <g>
  <rect height="26.3184" opacity="0" width="28.2804" x="0" y="0"/>
  <path d="M0.194886 21.084C1.24957 25.0781 2.45074 26.2988 4.95074 26.2988L19.5504 26.2988C21.3472 26.2988 22.5777 25.293 23.0172 23.4668L27.7535 4.24805C28.4078 1.60156 27.1285 0 24.9019 0C22.1968 0 19.9214 2.53906 20.9468 6.31836L21.1617 5.27344C18.1636 7.27539 16.5328 11.8945 16.9625 17.2852L17.4605 16.6504C14.7261 16.1621 11.523 15.8984 8.33942 15.8984C1.84528 15.8984-0.771911 17.4609 0.194886 21.084ZM1.85504 20.625C1.28864 18.4863 2.8902 17.627 8.33942 17.627C12.5582 17.627 15.7906 18.1738 17.4214 18.3398C18.1148 18.3789 18.5543 17.9395 18.5445 17.2363C18.3785 12.4512 19.7261 8.37891 22.0992 6.71875C22.5289 6.38672 22.5972 6.16211 22.4898 5.42969C22.1578 3.00781 23.4664 1.72852 24.8922 1.72852C25.8492 1.72852 26.4156 2.49023 26.0933 3.81836L21.3375 23.0469C21.1031 24.0234 20.4683 24.5605 19.5504 24.5605L4.95074 24.5605C3.46637 24.5605 2.75348 24.0234 1.85504 20.625Z" fill="black" fill-opacity="0.85"/>
  <path d="M6.07379 11.3184C8.29059 11.3184 9.80426 10.1172 9.80426 8.34961C9.80426 7.06055 8.81793 6.02539 7.48981 5.86914L7.48981 5.86914C8.59332 5.68359 9.44293 4.66797 9.44293 3.50586C9.44293 1.98242 8.06598 0.869141 6.14215 0.869141C4.4234 0.869141 3.07574 1.69922 2.78278 3.01758C2.76324 3.16406 2.75348 3.26172 2.75348 3.42773C2.75348 3.81836 3.02692 4.08203 3.43707 4.08203C3.78864 4.08203 4.01324 3.91602 4.13043 3.55469C4.34528 2.67578 5.10699 2.14844 6.12262 2.14844C7.2359 2.14844 7.97809 2.73438 7.97809 3.66211C7.97809 4.60938 7.16754 5.3125 6.09332 5.3125L5.34137 5.3125C4.98981 5.3125 4.71637 5.55664 4.71637 5.92773C4.71637 6.29883 4.98004 6.5625 5.34137 6.5625L6.17145 6.5625C7.43121 6.5625 8.32965 7.26562 8.32965 8.29102C8.32965 9.33594 7.42145 10.0293 6.09332 10.0293C5.00934 10.0293 4.18903 9.52148 3.91559 8.63281C3.77887 8.28125 3.56403 8.125 3.23199 8.125C2.8316 8.125 2.5484 8.39844 2.5484 8.79883C2.5484 8.94531 2.55817 9.01367 2.5777 9.15039C2.85114 10.4199 4.34528 11.3184 6.07379 11.3184Z" fill="black" fill-opacity="0.85"/>
 </g>
</svg>
