<?xml version="1.0" encoding="UTF-8"?>
<!--Generator: Apple Native CoreSVG 326-->
<!DOCTYPE svg
PUBLIC "-//W3C//DTD SVG 1.1//EN"
       "http://www.w3.org/Graphics/SVG/1.1/DTD/svg11.dtd">
<svg version="1.1" xmlns="http://www.w3.org/2000/svg" xmlns:xlink="http://www.w3.org/1999/xlink" viewBox="0 0 28.2792 26.3184">
 <g>
  <rect height="26.3184" opacity="0" width="28.2792" x="0" y="0"/>
  <path d="M27.7236 21.084C28.6904 17.4609 26.0732 15.8984 19.5888 15.8984C16.3954 15.8984 13.1923 16.1621 10.4579 16.6504L10.9658 17.2852C11.3954 11.8945 9.75482 7.27539 6.76654 5.27344L6.97162 6.31836C7.99701 2.53906 5.73139 0 3.01654 0C0.799745 0-0.489318 1.60156 0.174745 4.24805L4.90131 23.4668C5.35053 25.293 6.57123 26.2988 8.3681 26.2988L22.9677 26.2988C25.4677 26.2988 26.6689 25.0781 27.7236 21.084ZM26.0732 20.625C25.165 24.0234 24.4521 24.5605 22.9677 24.5605L8.3681 24.5605C7.45014 24.5605 6.82514 24.0234 6.58099 23.0469L1.8349 3.81836C1.50287 2.49023 2.07904 1.72852 3.02631 1.72852C4.45209 1.72852 5.77045 3.00781 5.43842 5.42969C5.32123 6.16211 5.38959 6.38672 5.81928 6.71875C8.20209 8.37891 9.53998 12.4512 9.38373 17.2363C9.37396 17.9395 9.80365 18.3789 10.497 18.3398C12.1376 18.1738 15.3701 17.627 19.5888 17.627C25.038 17.627 26.6396 18.4863 26.0732 20.625Z" fill="black" fill-opacity="0.85"/>
  <path d="M22.8017 11.6797C23.3193 11.6797 23.6122 11.3574 23.6122 10.791L23.6122 1.76758C23.6122 1.18164 23.29 0.869141 22.7529 0.869141C22.3622 0.869141 22.1181 0.966797 21.6884 1.26953L19.4326 2.77344C19.1982 2.93945 19.1201 3.0957 19.1201 3.33984C19.1201 3.66211 19.3837 3.94531 19.6962 3.94531C19.8427 3.94531 19.9599 3.91602 20.2138 3.73047L21.913 2.62695L22.0204 2.62695L22.0204 10.791C22.0204 11.3477 22.3232 11.6797 22.8017 11.6797Z" fill="black" fill-opacity="0.85"/>
 </g>
</svg>
