<?xml version="1.0" ?><!-- Generator: Adobe Illustrator 25.0.0, SVG Export Plug-In . SVG Version: 6.00 Build 0)  --><svg xmlns="http://www.w3.org/2000/svg" xmlns:xlink="http://www.w3.org/1999/xlink" version="1.1" id="Layer_1" x="0px" y="0px" viewBox="0 0 512 512" style="enable-background:new 0 0 512 512;" xml:space="preserve">
<path d="M180.4,366.3h258.9c8.7,0,16.2-7.1,16.2-16.6c0-9.5-7.5-16.6-16.2-16.6H184.1c-12.6,0-20.4-8.9-22.4-22.4l-3.5-23.3h281.5  c32.4,0,49-20,53.7-51.7l17.7-117.4c0.4-2.9,0.9-6.4,0.9-8.4c0-10.6-8-18-20.2-18H129.6l-4.2-28.2c-2.2-17.1-8.4-25.7-31.1-25.7  H16.4C7.5,37.9,0,45.7,0,54.6c0,9.1,7.5,16.9,16.4,16.9h75L126.9,315C131.5,346.5,148.2,366.3,180.4,366.3z M474.3,125.3  l-15.7,106.3c-1.8,13.8-9.1,22.2-22.2,22.2L153.3,254l-18.9-128.7H474.3z M197.9,474.1c20,0,35.9-15.8,35.9-35.9  c0-20-16-35.9-35.9-35.9c-20.2,0-36.2,16-36.2,35.9C161.7,458.3,177.7,474.1,197.9,474.1z M405.3,474.1c20.2,0,36.2-15.8,36.2-35.9  c0-20-16-35.9-36.2-35.9c-20,0-36.2,16-36.2,35.9C369.1,458.3,385.3,474.1,405.3,474.1z"/>
</svg>