<?xml version="1.0" encoding="UTF-8"?>
<!--Generator: Apple Native CoreSVG 326-->
<!DOCTYPE svg
PUBLIC "-//W3C//DTD SVG 1.1//EN"
       "http://www.w3.org/Graphics/SVG/1.1/DTD/svg11.dtd">
<svg version="1.1" xmlns="http://www.w3.org/2000/svg" xmlns:xlink="http://www.w3.org/1999/xlink" viewBox="0 0 25.8008 25.459">
 <g>
  <rect height="25.459" opacity="0" width="25.8008" x="0" y="0"/>
  <path d="M12.7148 25.4395C19.7363 25.4395 25.4395 19.7461 25.4395 12.7246C25.4395 5.70312 19.7363 0 12.7148 0C5.69336 0 0 5.70312 0 12.7246C0 19.7461 5.69336 25.4395 12.7148 25.4395ZM12.7148 23.623C6.68945 23.623 1.81641 18.75 1.81641 12.7246C1.81641 6.69922 6.68945 1.82617 12.7148 1.82617C18.7402 1.82617 23.6133 6.69922 23.6133 12.7246C23.6133 18.75 18.7402 23.623 12.7148 23.623Z" fill="black" fill-opacity="0.85"/>
  <path d="M8.10547 19.9121L8.70117 19.9121C9.35547 19.9121 9.74609 19.5801 9.74609 18.9941C9.74609 18.5742 9.41406 18.2129 8.80859 18.1152L8.80859 16.6602C8.80859 16.0352 8.95508 15.6738 9.31641 15.0879C10.3027 15.4688 11.084 15.6055 11.9531 15.6055C12.9199 15.6055 13.9648 15.459 14.5996 15.2832C14.7461 15.8105 14.9023 16.3965 14.9023 16.9141C14.9023 17.6758 14.8047 18.3301 14.8047 18.9355C14.8047 19.5801 15.1562 19.9121 15.8105 19.9121L16.4648 19.9121C17.1094 19.9121 17.5 19.5605 17.5 18.9941C17.5 18.5254 17.2363 18.2129 16.709 18.125L16.709 17.5C16.709 14.1895 19.1406 15.1074 19.1895 10.8984C20.3027 10.8398 21.1035 10.1172 21.1035 9.58008C21.1035 8.81836 20.3027 8.01758 19.3848 7.36328C19.1895 6.68945 18.8281 6.13281 18.5352 6.13281C18.252 6.13281 17.8418 6.61133 17.5684 7.35352C17.0801 7.82227 16.6602 8.44727 16.3281 9.01367L16.0254 9.50195C15.8203 9.86328 15.6738 10.0781 15.4199 10.0781C13.0664 10.0781 12.1094 9.73633 9.88281 9.73633C8.78906 9.73633 8.11523 10.127 7.71484 10.6152C7.49023 10.8789 7.35352 10.9473 6.98242 10.8105C6.20117 10.5469 5.66406 9.80469 5.66406 8.85742C5.66406 7.57812 6.67969 6.69922 8.11523 6.69922C8.66211 6.69922 9.20898 6.81641 9.86328 7.07031C10.4492 7.30469 10.7129 6.52344 10.1855 6.29883C9.44336 6.00586 8.75 5.86914 8.11523 5.86914C6.18164 5.86914 4.84375 7.09961 4.84375 8.85742C4.84375 10.1465 5.54688 11.1621 6.66016 11.5527C6.95312 11.6699 7.08008 11.8848 7.06055 12.207C7.03125 12.5781 7.02148 12.9004 7.02148 13.1152C7.02148 15.0684 6.14258 15.4395 6.39648 16.3184L7.14844 19.0918C7.29492 19.6387 7.63672 19.9121 8.10547 19.9121ZM19.082 9.02344C18.9551 8.94531 18.9258 8.79883 19.0039 8.68164C19.0723 8.55469 19.2285 8.52539 19.3652 8.59375C19.4824 8.68164 19.502 8.82812 19.4238 8.95508C19.3555 9.07227 19.1992 9.10156 19.082 9.02344Z" fill="black" fill-opacity="0.85"/>
 </g>
</svg>
