<?xml version="1.0" encoding="UTF-8"?>
<!--Generator: Apple Native CoreSVG 326-->
<!DOCTYPE svg
PUBLIC "-//W3C//DTD SVG 1.1//EN"
       "http://www.w3.org/Graphics/SVG/1.1/DTD/svg11.dtd">
<svg version="1.1" xmlns="http://www.w3.org/2000/svg" xmlns:xlink="http://www.w3.org/1999/xlink" viewBox="0 0 30.6563 25.459">
 <g>
  <rect height="25.459" opacity="0" width="30.6563" x="0" y="0"/>
  <path d="M15.1475 25.4395C22.169 25.4395 27.8623 19.7461 27.8623 12.7246C27.8623 5.70312 22.169 0 15.1475 0C8.12599 0 2.43263 5.70312 2.43263 12.7246L4.24904 12.7246C4.24904 6.69922 9.12208 1.82617 15.1475 1.82617C21.1729 1.82617 26.0459 6.69922 26.0459 12.7246C26.0459 18.75 21.1729 23.623 15.1475 23.623C11.417 23.623 8.08693 21.7285 6.18263 18.877C5.86037 18.4375 5.35255 18.3008 4.90333 18.5742C4.47365 18.8281 4.34669 19.4238 4.69826 19.9023C6.97365 23.252 10.8213 25.4395 15.1475 25.4395ZM0.801772 10.3613C0.000990731 10.3613-0.223619 10.9082 0.235366 11.543L3.0088 15.4883C3.3799 16.0254 3.91701 16.0156 4.27833 15.4883L7.05177 11.5332C7.49123 10.9082 7.27638 10.3613 6.48537 10.3613Z" fill="black" fill-opacity="0.85"/>
  <path d="M15.2549 18.1934C17.1006 18.1934 18.8096 17.3633 19.3858 15.6934C19.4639 15.498 19.5029 15.3223 19.5029 15.1074C19.5029 14.7461 19.2588 14.5215 18.8975 14.5215C18.5557 14.5215 18.3701 14.707 18.2627 15.0391C17.9111 16.2695 16.6807 17.0312 15.2549 17.0312C12.8526 17.0312 11.7588 14.9609 11.7588 12.6172C11.7588 10.2637 12.9111 8.24219 15.2451 8.24219C16.6514 8.24219 17.8623 9.11133 18.1846 10.2734C18.3018 10.6055 18.458 10.791 18.8194 10.791C19.1709 10.791 19.4248 10.5664 19.4248 10.1855C19.4248 9.93164 19.3467 9.7168 19.2588 9.49219C18.6045 7.94922 17.0029 7.08008 15.2451 7.08008C12.1592 7.08008 10.4014 9.42383 10.4014 12.6172C10.4014 15.7617 12.0713 18.1934 15.2549 18.1934ZM15.1475 19.6582C15.3721 19.6582 15.5283 19.502 15.5283 19.2773L15.5283 6.04492C15.5283 5.82031 15.3721 5.6543 15.1475 5.6543C14.9229 5.6543 14.7569 5.82031 14.7569 6.04492L14.7569 19.2773C14.7569 19.4922 14.9229 19.6582 15.1475 19.6582Z" fill="black" fill-opacity="0.85"/>
 </g>
</svg>
