<?xml version="1.0" encoding="UTF-8"?>
<!--Generator: Apple Native CoreSVG 326-->
<!DOCTYPE svg
PUBLIC "-//W3C//DTD SVG 1.1//EN"
       "http://www.w3.org/Graphics/SVG/1.1/DTD/svg11.dtd">
<svg version="1.1" xmlns="http://www.w3.org/2000/svg" xmlns:xlink="http://www.w3.org/1999/xlink" viewBox="0 0 25.8008 25.459">
 <g>
  <rect height="25.459" opacity="0" width="25.8008" x="0" y="0"/>
  <path d="M12.7148 25.4395C19.7363 25.4395 25.4395 19.7461 25.4395 12.7246C25.4395 5.70312 19.7363 0 12.7148 0C5.69336 0 0 5.70312 0 12.7246C0 19.7461 5.69336 25.4395 12.7148 25.4395ZM12.7148 23.623C6.68945 23.623 1.81641 18.75 1.81641 12.7246C1.81641 6.69922 6.68945 1.82617 12.7148 1.82617C18.7402 1.82617 23.6133 6.69922 23.6133 12.7246C23.6133 18.75 18.7402 23.623 12.7148 23.623Z" fill="black" fill-opacity="0.85"/>
  <path d="M12.8125 18.1934C14.6582 18.1934 16.3672 17.3633 16.9434 15.6934C17.0215 15.498 17.0605 15.3223 17.0605 15.1074C17.0605 14.7461 16.8164 14.5215 16.4551 14.5215C16.1133 14.5215 15.9277 14.707 15.8203 15.0391C15.4688 16.2695 14.2383 17.0312 12.8125 17.0312C10.4102 17.0312 9.31641 14.9609 9.31641 12.6172C9.31641 10.2637 10.4688 8.24219 12.8027 8.24219C14.209 8.24219 15.4199 9.11133 15.7422 10.2734C15.8594 10.6055 16.0156 10.791 16.377 10.791C16.7285 10.791 16.9824 10.5664 16.9824 10.1855C16.9824 9.93164 16.9043 9.7168 16.8164 9.49219C16.1621 7.94922 14.5605 7.08008 12.8027 7.08008C9.7168 7.08008 7.95898 9.42383 7.95898 12.6172C7.95898 15.7617 9.62891 18.1934 12.8125 18.1934ZM12.7051 19.6582C12.9297 19.6582 13.0859 19.502 13.0859 19.2773L13.0859 6.04492C13.0859 5.82031 12.9297 5.6543 12.7051 5.6543C12.4805 5.6543 12.3145 5.82031 12.3145 6.04492L12.3145 19.2773C12.3145 19.4922 12.4805 19.6582 12.7051 19.6582Z" fill="black" fill-opacity="0.85"/>
 </g>
</svg>
