<?xml version="1.0" encoding="UTF-8"?>
<!--Generator: Apple Native CoreSVG 326-->
<!DOCTYPE svg
PUBLIC "-//W3C//DTD SVG 1.1//EN"
       "http://www.w3.org/Graphics/SVG/1.1/DTD/svg11.dtd">
<svg version="1.1" xmlns="http://www.w3.org/2000/svg" xmlns:xlink="http://www.w3.org/1999/xlink" viewBox="0 0 27.9395 26.5527">
 <g>
  <rect height="26.5527" opacity="0" width="27.9395" x="0" y="0"/>
  <path d="M1.5332 23.8379L26.0449 23.8379L26.0449 23.0859C26.0449 22.666 25.791 22.4121 25.3613 22.4121L24.5605 22.4121L24.5605 8.33984L25.6934 8.33984C26.2891 8.33984 26.6211 7.91992 26.6211 7.48047C26.6211 7.1582 26.4453 6.875 26.0547 6.65039L15.2637 0.419922C14.7852 0.146484 14.2773 0 13.7891 0C13.3008 0 12.7832 0.146484 12.3145 0.419922L1.52344 6.65039C1.12305 6.875 0.957031 7.1582 0.957031 7.48047C0.957031 7.91992 1.28906 8.33984 1.88477 8.33984L3.02734 8.33984L3.02734 22.4121L2.22656 22.4121C1.78711 22.4121 1.5332 22.666 1.5332 23.0859ZM4.6582 22.4121L4.6582 6.85547L13.2227 2.03125C13.3887 1.93359 13.5938 1.875 13.7891 1.875C13.9746 1.875 14.1699 1.93359 14.3555 2.03125L22.9297 6.85547L22.9297 22.4121ZM0.869141 26.5332L26.709 26.5332C27.1875 26.5332 27.5781 26.1426 27.5781 25.6738C27.5781 25.1953 27.1875 24.8047 26.709 24.8047L0.869141 24.8047C0.390625 24.8047 0 25.1953 0 25.6738C0 26.1426 0.390625 26.5332 0.869141 26.5332Z" fill="black" fill-opacity="0.85"/>
  <path d="M13.8965 18.6719C15.752 18.6719 17.4512 17.8418 18.0371 16.1719C18.1055 15.9766 18.1445 15.8105 18.1445 15.5957C18.1445 15.2344 17.9102 15 17.5488 15C17.1973 15 17.0117 15.1953 16.9141 15.5176C16.5527 16.748 15.332 17.5098 13.8965 17.5098C11.4941 17.5098 10.4004 15.4492 10.4004 13.1055C10.4004 10.752 11.5527 8.73047 13.8867 8.73047C15.293 8.73047 16.5039 9.58984 16.8359 10.752C16.9434 11.084 17.1094 11.2695 17.4609 11.2695C17.8223 11.2695 18.0664 11.0449 18.0664 10.6641C18.0664 10.4199 17.998 10.1953 17.9004 9.9707C17.2559 8.42773 15.6543 7.56836 13.8867 7.56836C10.8105 7.56836 9.04297 9.91211 9.04297 13.1055C9.04297 16.2402 10.7129 18.6719 13.8965 18.6719ZM13.7988 20.1465C14.0234 20.1465 14.1797 19.9902 14.1797 19.7559L14.1797 6.52344C14.1797 6.29883 14.0234 6.13281 13.7988 6.13281C13.5742 6.13281 13.4082 6.29883 13.4082 6.52344L13.4082 19.7559C13.4082 19.9805 13.5742 20.1465 13.7988 20.1465Z" fill="black" fill-opacity="0.85"/>
 </g>
</svg>
