<?xml version="1.0" ?><!-- Generator: Adobe Illustrator 25.0.0, SVG Export Plug-In . SVG Version: 6.00 Build 0)  --><svg xmlns="http://www.w3.org/2000/svg" xmlns:xlink="http://www.w3.org/1999/xlink" version="1.1" id="Layer_1" x="0px" y="0px" viewBox="0 0 512 512" style="enable-background:new 0 0 512 512;" xml:space="preserve">
<path d="M87.3,512h337.3c58.4,0,87.3-28.9,87.3-86.2V86.2C512,28.9,483.1,0,424.7,0H87.3C29.2,0,0,28.6,0,86.2v339.6  C0,483.4,29.2,512,87.3,512z M140.7,256.1c0-77.3,38.9-128.8,99.8-136.6V96.8c0-8.6,6.1-14.2,14.5-14.2c8.1,0,13.9,5.6,13.9,14.2  v22.5c40.9,3.9,73.4,28.4,85.9,62.6c1.7,4.7,2.8,9.7,2.8,14.5c0,10.6-7,17.5-17.5,17.5c-10,0-15.3-3.9-18.6-15  c-6.4-22.5-26.7-40-52.6-44.5v204.4c27.5-3.6,48.1-20.6,54.5-43.9c3.1-10,8.9-15.3,18.6-15.3c10.8,0,17.5,7.2,17.5,17.5  c0,5.3-1.1,10-2.8,14.7c-12.2,34.2-43.9,58.4-87.9,61.7v22.8c0,8.6-5.8,14.5-13.9,14.5c-8.1,0-14.5-5.8-14.5-14.5v-23.1  C179.4,385.7,140.7,334.6,140.7,256.1z M179.4,256.1c0,55.6,23.1,93.4,61.2,101.8V155.2C202.7,163.3,179.4,201.4,179.4,256.1z"/>
</svg>