<?xml version="1.0" encoding="UTF-8"?>
<!--Generator: Apple Native CoreSVG 326-->
<!DOCTYPE svg
PUBLIC "-//W3C//DTD SVG 1.1//EN"
       "http://www.w3.org/Graphics/SVG/1.1/DTD/svg11.dtd">
<svg version="1.1" xmlns="http://www.w3.org/2000/svg" xmlns:xlink="http://www.w3.org/1999/xlink" viewBox="0 0 27.9395 26.5527">
 <g>
  <rect height="26.5527" opacity="0" width="27.9395" x="0" y="0"/>
  <path d="M15.2637 0.419922L26.0547 6.65039C26.4453 6.875 26.6211 7.1582 26.6211 7.48047C26.6211 7.91992 26.2891 8.33984 25.6934 8.33984L24.5605 8.33984L24.5605 23.252L25.3613 23.252C25.791 23.252 26.0449 23.5059 26.0449 23.9258L26.0449 24.8047L26.709 24.8047C27.1875 24.8047 27.5781 25.1953 27.5781 25.6738C27.5781 26.1426 27.1875 26.5332 26.709 26.5332L0.869141 26.5332C0.390625 26.5332 0 26.1426 0 25.6738C0 25.1953 0.390625 24.8047 0.869141 24.8047L1.5332 24.8047L1.5332 23.9258C1.5332 23.5059 1.78711 23.252 2.22656 23.252L3.02734 23.252L3.02734 8.33984L1.88477 8.33984C1.28906 8.33984 0.957031 7.91992 0.957031 7.48047C0.957031 7.1582 1.12305 6.875 1.52344 6.65039L12.3145 0.419922C12.7832 0.146484 13.3008 0 13.7891 0C14.2773 0 14.7852 0.146484 15.2637 0.419922ZM13.4082 7.65625L13.4082 8.7207C10.6152 8.93555 9.04297 11.2109 9.04297 14.2285C9.04297 17.207 10.5469 19.5312 13.4082 19.7754L13.4082 20.8789C13.4082 21.1035 13.5742 21.2695 13.7988 21.2695C14.0234 21.2695 14.1797 21.1133 14.1797 20.8789L14.1797 19.7852C15.918 19.707 17.4902 18.877 18.0371 17.2949C18.1055 17.1094 18.1445 16.9336 18.1445 16.7188C18.1445 16.3574 17.9102 16.123 17.5488 16.123C17.1973 16.123 17.0117 16.3184 16.9141 16.6504C16.5723 17.8027 15.4883 18.5254 14.1797 18.623L14.1797 9.86328C15.459 9.9707 16.5332 10.8008 16.8359 11.875C16.9434 12.2168 17.1094 12.3926 17.4609 12.3926C17.8223 12.3926 18.0664 12.168 18.0664 11.7969C18.0664 11.543 17.998 11.3281 17.9004 11.1035C17.2949 9.63867 15.8301 8.7793 14.1797 8.70117L14.1797 7.65625C14.1797 7.43164 14.0234 7.26562 13.7988 7.26562C13.5742 7.26562 13.4082 7.43164 13.4082 7.65625ZM13.4082 18.6035C11.3477 18.3301 10.4004 16.4062 10.4004 14.2285C10.4004 12.041 11.3965 10.1465 13.4082 9.89258Z" fill="black" fill-opacity="0.85"/>
 </g>
</svg>
