<?xml version="1.0" encoding="UTF-8"?>
<!--Generator: Apple Native CoreSVG 326-->
<!DOCTYPE svg
PUBLIC "-//W3C//DTD SVG 1.1//EN"
       "http://www.w3.org/Graphics/SVG/1.1/DTD/svg11.dtd">
<svg version="1.1" xmlns="http://www.w3.org/2000/svg" xmlns:xlink="http://www.w3.org/1999/xlink" viewBox="0 0 28.291 27.9395">
 <g>
  <rect height="27.9395" opacity="0" width="28.291" x="0" y="0"/>
  <path d="M13.9648 27.9297C21.6406 27.9297 27.9297 21.6504 27.9297 13.9648C27.9297 6.2793 21.6406 0 13.9648 0C6.28906 0 0 6.2793 0 13.9648C0 21.6504 6.28906 27.9297 13.9648 27.9297ZM13.9648 23.3398C8.7793 23.3398 4.58008 19.1504 4.58008 13.9648C4.58008 8.7793 8.7793 4.58008 13.9648 4.58008C19.1504 4.58008 23.3496 8.7793 23.3496 13.9648C23.3496 19.1504 19.1504 23.3398 13.9648 23.3398Z" fill="black" fill-opacity="0.85"/>
  <path d="M14.0625 19.4336C15.918 19.4336 17.6172 18.6035 18.2031 16.9336C18.2715 16.7383 18.3105 16.5625 18.3105 16.3477C18.3105 15.9863 18.0762 15.7617 17.7148 15.7617C17.373 15.7617 17.1777 15.9473 17.0801 16.2793C16.7285 17.5098 15.498 18.2715 14.0625 18.2715C11.6699 18.2715 10.5762 16.2012 10.5762 13.8574C10.5762 11.5039 11.7188 9.48242 14.0527 9.48242C15.459 9.48242 16.6699 10.3516 17.002 11.5137C17.1191 11.8457 17.2754 12.0312 17.627 12.0312C17.9883 12.0312 18.2324 11.8066 18.2324 11.4258C18.2324 11.1719 18.1641 10.957 18.0664 10.7324C17.4219 9.18945 15.8203 8.32031 14.0527 8.32031C10.9766 8.32031 9.20898 10.6641 9.20898 13.8574C9.20898 17.002 10.8789 19.4336 14.0625 19.4336ZM13.9648 20.8984C14.1895 20.8984 14.3457 20.7422 14.3457 20.5176L14.3457 7.28516C14.3457 7.06055 14.1895 6.89453 13.9648 6.89453C13.7402 6.89453 13.5742 7.06055 13.5742 7.28516L13.5742 20.5176C13.5742 20.7324 13.7402 20.8984 13.9648 20.8984Z" fill="black" fill-opacity="0.85"/>
 </g>
</svg>
