<?xml version="1.0" encoding="UTF-8"?>
<!--Generator: Apple Native CoreSVG 326-->
<!DOCTYPE svg
PUBLIC "-//W3C//DTD SVG 1.1//EN"
       "http://www.w3.org/Graphics/SVG/1.1/DTD/svg11.dtd">
<svg version="1.1" xmlns="http://www.w3.org/2000/svg" xmlns:xlink="http://www.w3.org/1999/xlink" viewBox="0 0 27.9395 26.5527">
 <g>
  <rect height="26.5527" opacity="0" width="27.9395" x="0" y="0"/>
  <path d="M15.2637 0.419922L26.0547 6.65039C26.4453 6.875 26.6211 7.1582 26.6211 7.48047C26.6211 7.91992 26.2891 8.33984 25.6934 8.33984L24.5605 8.33984L24.5605 23.252L25.3613 23.252C25.791 23.252 26.0449 23.5059 26.0449 23.9258L26.0449 24.8047L26.709 24.8047C27.1875 24.8047 27.5781 25.1953 27.5781 25.6738C27.5781 26.1426 27.1875 26.5332 26.709 26.5332L0.869141 26.5332C0.390625 26.5332 0 26.1426 0 25.6738C0 25.1953 0.390625 24.8047 0.869141 24.8047L1.5332 24.8047L1.5332 23.9258C1.5332 23.5059 1.78711 23.252 2.22656 23.252L3.02734 23.252L3.02734 8.33984L1.88477 8.33984C1.28906 8.33984 0.957031 7.91992 0.957031 7.48047C0.957031 7.1582 1.12305 6.875 1.52344 6.65039L12.3145 0.419922C12.7832 0.146484 13.3008 0 13.7891 0C14.2773 0 14.7852 0.146484 15.2637 0.419922ZM13.3496 8.7207L13.3496 9.83398C11.0254 10.0293 9.69727 11.8359 9.69727 14.2676C9.69727 16.8457 11.1035 18.5156 13.3496 18.7109L13.3496 19.8242C13.3496 20.0488 13.5254 20.2246 13.7598 20.2246C13.9746 20.2246 14.1602 20.0488 14.1602 19.8242L14.1602 18.7109C15.1172 18.6426 16.0449 18.2812 16.6797 17.666C17.0605 17.2754 17.4023 16.6699 17.4023 16.2305C17.4023 15.8594 17.1191 15.6543 16.8066 15.6543C16.4746 15.6543 16.3281 15.8594 16.2109 16.0938C15.7812 16.9824 15.1172 17.5 14.1602 17.5879L14.1602 10.9473C15.0977 11.0449 15.8203 11.543 16.2012 12.4609C16.3086 12.7344 16.5234 12.9004 16.7969 12.9004C17.1484 12.9004 17.3926 12.6758 17.3926 12.3047C17.3926 11.8359 17.041 11.2695 16.6504 10.8789C16.0254 10.2637 15.1465 9.90234 14.1602 9.82422L14.1602 8.7207C14.1602 8.49609 13.9746 8.32031 13.7598 8.32031C13.5254 8.32031 13.3496 8.49609 13.3496 8.7207ZM13.3496 17.5781C11.7871 17.3535 11.0254 16.0156 11.0254 14.2676C11.0254 12.5098 11.8164 11.1816 13.3496 10.9668Z" fill="black" fill-opacity="0.85"/>
 </g>
</svg>
