<?xml version="1.0" encoding="UTF-8"?>
<!--Generator: Apple Native CoreSVG 326-->
<!DOCTYPE svg
PUBLIC "-//W3C//DTD SVG 1.1//EN"
       "http://www.w3.org/Graphics/SVG/1.1/DTD/svg11.dtd">
<svg version="1.1" xmlns="http://www.w3.org/2000/svg" xmlns:xlink="http://www.w3.org/1999/xlink" viewBox="0 0 23.3203 22.959">
 <g>
  <rect height="22.959" opacity="0" width="23.3203" x="0" y="0"/>
  <path d="M3.79883 22.959L19.1504 22.959C21.6797 22.959 22.959 21.6797 22.959 19.1992L22.959 3.76953C22.959 1.2793 21.6797 0 19.1504 0L3.79883 0C1.2793 0 0 1.26953 0 3.76953L0 19.1992C0 21.6992 1.2793 22.959 3.79883 22.959ZM3.83789 21.2305C2.4707 21.2305 1.72852 20.5078 1.72852 19.1016L1.72852 3.85742C1.72852 2.46094 2.4707 1.72852 3.83789 1.72852L19.1211 1.72852C20.459 1.72852 21.2305 2.46094 21.2305 3.85742L21.2305 19.1016C21.2305 20.5078 20.459 21.2305 19.1211 21.2305Z" fill="black" fill-opacity="0.85"/>
  <path d="M11.4941 15.7617C12.5488 15.7617 13.6035 15.3906 14.2871 14.7266C14.668 14.3457 15 13.75 15 13.3301C15 12.959 14.7168 12.7637 14.4141 12.7637C14.1016 12.7637 13.9551 12.9688 13.8379 13.1934C13.3691 14.1602 12.6367 14.6777 11.5039 14.6777C9.66797 14.6777 8.76953 13.2812 8.76953 11.416C8.76953 9.54102 9.6875 8.1543 11.4844 8.1543C12.5781 8.1543 13.4082 8.64258 13.8281 9.63867C13.9453 9.91211 14.1406 10.0684 14.4043 10.0684C14.7461 10.0684 14.9805 9.85352 14.9805 9.50195C14.9805 9.0332 14.6387 8.49609 14.2578 8.10547C13.584 7.44141 12.5781 7.07031 11.4746 7.07031C8.93555 7.07031 7.48047 8.89648 7.48047 11.416C7.48047 14.0918 9.0625 15.7617 11.4941 15.7617ZM11.4355 17.2168C11.6504 17.2168 11.8262 17.0508 11.8262 16.8262L11.8262 5.99609C11.8262 5.78125 11.6504 5.60547 11.4355 5.60547C11.2207 5.60547 11.0449 5.78125 11.0449 5.99609L11.0449 16.8262C11.0449 17.0508 11.2207 17.2168 11.4355 17.2168Z" fill="black" fill-opacity="0.85"/>
 </g>
</svg>
