<?xml version="1.0" ?><!-- Generator: Adobe Illustrator 25.0.0, SVG Export Plug-In . SVG Version: 6.00 Build 0)  --><svg xmlns="http://www.w3.org/2000/svg" xmlns:xlink="http://www.w3.org/1999/xlink" version="1.1" id="Layer_1" x="0px" y="0px" viewBox="0 0 512 512" style="enable-background:new 0 0 512 512;" xml:space="preserve">
<path d="M87.3,512h337.3c58.4,0,87.3-28.9,87.3-86.2V86.2C512,28.9,483.1,0,424.7,0H87.3C29.2,0,0,28.6,0,86.2v339.6  C0,483.4,29.2,512,87.3,512z M87.9,467.2c-27.8,0-43.1-14.7-43.1-43.7V88.4c0-28.9,15.3-43.7,43.1-43.7h336.2  c27.5,0,43.1,14.7,43.1,43.7v335.1c0,28.9-15.6,43.7-43.1,43.7H87.9z M163.5,255.6c0,57.6,30.9,95.4,78.7,101.8v20.9  c0,8.1,5.8,13.6,13.6,13.6c8.1,0,13.9-5.6,13.9-13.6v-20.6c35.3-4.2,60.3-24.2,68.4-48.9c0.8-3.1,1.7-6.4,1.7-9.7  c0-9.7-7-16.4-16.7-16.4c-7.5,0-13.1,4.5-16.1,11.7c-6.1,15.9-18.6,27-37.3,30.6V186.3c18.4,3.6,30.9,15,37,30.3  c3.3,8.1,8.9,12.2,16.7,12.2c9.7,0,16.1-6.7,16.1-16.7c0-3.3-0.8-6.4-1.7-9.2c-8.1-24.8-33.1-45.1-68.1-49.2v-20.6  c0-8.1-5.8-13.9-13.9-13.9c-7.8,0-13.6,5.8-13.6,13.9v20.9C194.4,160.5,163.5,198.6,163.5,255.6z M198.8,255.6  c0-37.5,16.7-62,43.4-68.7v137.4C215.5,317.9,198.8,293.7,198.8,255.6z"/>
</svg>