<?xml version="1.0" ?><!-- Generator: Adobe Illustrator 25.0.0, SVG Export Plug-In . SVG Version: 6.00 Build 0)  --><svg xmlns="http://www.w3.org/2000/svg" xmlns:xlink="http://www.w3.org/1999/xlink" version="1.1" id="Layer_1" x="0px" y="0px" viewBox="0 0 512 512" style="enable-background:new 0 0 512 512;" xml:space="preserve">
<path d="M256,512c140,0,256-116.2,256-256C512,116,395.8,0,255.7,0C116,0,0,116,0,256C0,395.8,116.2,512,256,512z M256,469.3  c-118.5,0-213.1-94.9-213.1-213.3S137.3,42.7,255.7,42.7S469.1,137.5,469.3,256S374.5,469.3,256,469.3z M172.2,256  c0,52,27.9,86.1,71,91.9v18.8c0,7.3,5.3,12.5,12.3,12.5c7.3,0,12.5-5.3,12.5-12.5v-18.6c31.9-3.8,54.5-21.8,61.7-44.2  c0.8-2.5,1.5-5.5,1.5-8.8c0-8.8-6.3-14.8-15.1-14.8c-7,0-11.8,4.3-14.6,10.8c-5.8,14.1-17.1,24.3-33.6,27.4V193.8  c16.3,3,27.6,13.3,33.4,27.4c3,7,8,10.8,15.1,10.8c8.8,0,14.6-6,14.6-14.8c0-3-0.8-6-1.5-8.5c-7.3-22.1-30.1-40.4-61.5-44.2v-18.8  c0-7.3-5.3-12.3-12.5-12.3c-7,0-12.3,5-12.3,12.3v19.1C200,170.4,172.2,204.8,172.2,256z M204,256.3c0-33.9,15.1-56,39.2-62V318  C219.1,312.5,204,290.6,204,256.3z"/>
</svg>