<?xml version="1.0" encoding="UTF-8"?>
<!--Generator: Apple Native CoreSVG 326-->
<!DOCTYPE svg
PUBLIC "-//W3C//DTD SVG 1.1//EN"
       "http://www.w3.org/Graphics/SVG/1.1/DTD/svg11.dtd">
<svg version="1.1" xmlns="http://www.w3.org/2000/svg" xmlns:xlink="http://www.w3.org/1999/xlink" viewBox="0 0 30.6563 25.459">
 <g>
  <rect height="25.459" opacity="0" width="30.6563" x="0" y="0"/>
  <path d="M15.1475 25.4395C22.169 25.4395 27.8623 19.7461 27.8623 12.7246C27.8623 5.70312 22.169 0 15.1475 0C8.12599 0 2.43263 5.70312 2.43263 12.7246L4.24904 12.7246C4.24904 6.69922 9.12208 1.82617 15.1475 1.82617C21.1729 1.82617 26.0459 6.69922 26.0459 12.7246C26.0459 18.75 21.1729 23.623 15.1475 23.623C11.417 23.623 8.08693 21.7285 6.18263 18.877C5.86037 18.4375 5.35255 18.3008 4.90333 18.5742C4.47365 18.8281 4.34669 19.4238 4.69826 19.9023C6.97365 23.252 10.8213 25.4395 15.1475 25.4395ZM0.801772 10.3613C0.000990731 10.3613-0.223619 10.9082 0.235366 11.543L3.0088 15.4883C3.3799 16.0254 3.91701 16.0156 4.27833 15.4883L7.05177 11.5332C7.49123 10.9082 7.27638 10.3613 6.48537 10.3613Z" fill="black" fill-opacity="0.85"/>
  <path d="M15.1572 17.0117C16.2119 17.0117 17.2666 16.6406 17.9502 15.9766C18.3311 15.5957 18.6631 15 18.6631 14.5801C18.6631 14.209 18.3799 14.0137 18.0772 14.0137C17.7647 14.0137 17.6279 14.2188 17.501 14.4434C17.0322 15.4102 16.2998 15.9277 15.167 15.9277C13.3311 15.9277 12.4326 14.5312 12.4326 12.666C12.4326 10.791 13.3506 9.4043 15.1475 9.4043C16.2412 9.4043 17.0713 9.89258 17.4912 10.8887C17.6084 11.1621 17.8135 11.3184 18.0772 11.3184C18.419 11.3184 18.6436 11.1035 18.6436 10.752C18.6436 10.2832 18.3018 9.74609 17.9209 9.35547C17.2471 8.69141 16.2412 8.32031 15.1377 8.32031C12.6084 8.32031 11.1436 10.1465 11.1436 12.666C11.1436 15.3418 12.7256 17.0117 15.1572 17.0117ZM15.0986 18.4668C15.3233 18.4668 15.4893 18.3008 15.4893 18.0762L15.4893 7.24609C15.4893 7.03125 15.3233 6.85547 15.0986 6.85547C14.8838 6.85547 14.708 7.03125 14.708 7.24609L14.708 18.0762C14.708 18.3008 14.8838 18.4668 15.0986 18.4668Z" fill="black" fill-opacity="0.85"/>
 </g>
</svg>
