<?xml version="1.0" encoding="UTF-8"?>
<!--Generator: Apple Native CoreSVG 326-->
<!DOCTYPE svg
PUBLIC "-//W3C//DTD SVG 1.1//EN"
       "http://www.w3.org/Graphics/SVG/1.1/DTD/svg11.dtd">
<svg version="1.1" xmlns="http://www.w3.org/2000/svg" xmlns:xlink="http://www.w3.org/1999/xlink" viewBox="0 0 37.7246 31.3184">
 <g>
  <rect height="31.3184" opacity="0" width="37.7246" x="0" y="0"/>
  <path d="M18.6914 6.58203C21.582 6.58203 24.502 4.62891 24.502 2.12891C24.502 1.37695 24.0723 0.839844 23.1152 0.537109C21.9238 0.175781 20.3125 0.00976562 18.6914 0C17.0605 0.00976562 15.4492 0.175781 14.2676 0.537109C13.3105 0.839844 12.8809 1.37695 12.8809 2.12891C12.8809 4.62891 15.8008 6.58203 18.6914 6.58203ZM18.6914 5.15625C16.4258 5.15625 14.5703 3.87695 14.3164 2.19727C14.3066 2.08984 14.4043 1.98242 14.5508 1.92383C15.7324 1.60156 17.1973 1.42578 18.6914 1.42578C20.1855 1.42578 21.6504 1.60156 22.8223 1.92383C22.9785 1.99219 23.0762 2.08984 23.0664 2.19727C22.8223 3.87695 20.957 5.15625 18.6914 5.15625ZM17.9785 5.75195L17.9785 13.9941L19.4141 13.9941L19.4141 5.75195ZM2.55859 19.6191C3.96484 19.6191 5.11719 18.457 5.11719 17.0508C5.11719 15.6348 3.97461 14.4922 2.55859 14.4922C1.15234 14.4922 0 15.6348 0 17.0508C0 18.457 1.15234 19.6191 2.55859 19.6191ZM2.55859 18.3789C1.83594 18.3789 1.24023 17.7734 1.24023 17.0508C1.24023 16.3281 1.83594 15.7227 2.55859 15.7227C3.29102 15.7227 3.88672 16.3086 3.88672 17.0508C3.88672 17.7734 3.28125 18.3789 2.55859 18.3789ZM9.60938 19.6191C11.3574 19.6191 12.7832 18.1934 12.7832 16.4453C12.7832 14.707 11.3574 13.2812 9.60938 13.2812C7.87109 13.2812 6.45508 14.707 6.45508 16.4453C6.45508 18.1934 7.87109 19.6191 9.60938 19.6191ZM9.60938 18.1836C8.66211 18.1836 7.88086 17.4023 7.88086 16.4453C7.88086 15.498 8.66211 14.707 9.60938 14.707C10.5664 14.707 11.3477 15.498 11.3477 16.4453C11.3477 17.4023 10.5664 18.1836 9.60938 18.1836ZM18.6914 22.4219C21.2109 22.4219 23.2324 20.3906 23.2324 17.8809C23.2324 15.3613 21.2109 13.3203 18.6914 13.3203C16.1816 13.3203 14.1504 15.3613 14.1504 17.8809C14.1504 20.3906 16.1816 22.4219 18.6914 22.4219ZM18.6914 20.9863C16.9629 20.9863 15.5859 19.6094 15.5859 17.8809C15.5859 16.1523 16.9629 14.7559 18.6914 14.7559C20.4199 14.7559 21.8066 16.1523 21.8066 17.8809C21.8066 19.6094 20.4199 20.9863 18.6914 20.9863ZM27.7539 19.6191C29.4922 19.6191 30.918 18.1934 30.918 16.4453C30.918 14.707 29.4922 13.2812 27.7539 13.2812C26.0156 13.2812 24.5898 14.707 24.5898 16.4453C24.5898 18.1934 26.0156 19.6191 27.7539 19.6191ZM27.7539 18.1836C26.8066 18.1836 26.0156 17.4023 26.0156 16.4453C26.0156 15.498 26.8066 14.707 27.7539 14.707C28.7109 14.707 29.4824 15.498 29.4824 16.4453C29.4824 17.4023 28.7109 18.1836 27.7539 18.1836ZM34.8145 19.6191C36.2109 19.6191 37.3633 18.457 37.3633 17.0508C37.3633 15.6348 36.2109 14.4922 34.8145 14.4922C33.3887 14.4922 32.2461 15.6348 32.2461 17.0508C32.2461 18.457 33.3984 19.6191 34.8145 19.6191ZM34.8145 18.3789C34.0918 18.3789 33.4863 17.7734 33.4863 17.0508C33.4863 16.3086 34.0723 15.7227 34.8145 15.7227C35.5371 15.7227 36.1328 16.3281 36.1328 17.0508C36.1328 17.7734 35.5371 18.3789 34.8145 18.3789ZM18.6914 31.2891C20.4102 31.2891 21.8164 29.8926 21.8164 28.1738C21.8164 26.4551 20.4102 25.0488 18.6914 25.0488C16.9727 25.0488 15.5762 26.4551 15.5762 28.1738C15.5762 29.8926 16.9727 31.2891 18.6914 31.2891ZM18.6914 29.8633C17.7637 29.8633 17.0117 29.1016 17.0117 28.1738C17.0117 27.2363 17.7637 26.4844 18.6914 26.4844C19.6289 26.4844 20.3809 27.2363 20.3809 28.1738C20.3809 29.1016 19.6289 29.8633 18.6914 29.8633ZM3.56445 18.8965L2.13867 18.8965C2.25586 22.8711 7.73438 24.9121 10.7031 21.8262L9.92188 20.6543C7.90039 23.0957 3.69141 21.748 3.56445 18.8965ZM10.3125 18.8965L8.88672 18.8965C8.87695 23.0273 13.9941 24.873 17.4609 21.748L16.084 21.0156C13.6328 22.8711 10.3223 21.709 10.3125 18.8965ZM27.0508 18.8965C27.041 21.709 23.7402 22.8711 21.2793 21.0156L19.9023 21.748C23.3691 24.873 28.4863 23.0273 28.4863 18.8965ZM33.7988 18.8965C33.6816 21.748 29.4629 23.0957 27.4414 20.6543L26.6699 21.8262C29.6387 24.9121 35.1172 22.8711 35.2344 18.8965ZM17.9785 21.6797L17.9785 25.918L19.4141 25.918L19.4141 21.6797Z" fill="black" fill-opacity="0.85"/>
 </g>
</svg>
