<?xml version="1.0" encoding="UTF-8"?>
<!--Generator: Apple Native CoreSVG 326-->
<!DOCTYPE svg
PUBLIC "-//W3C//DTD SVG 1.1//EN"
       "http://www.w3.org/Graphics/SVG/1.1/DTD/svg11.dtd">
<svg version="1.1" xmlns="http://www.w3.org/2000/svg" xmlns:xlink="http://www.w3.org/1999/xlink" viewBox="0 0 31.9141 23.6621">
 <g>
  <rect height="23.6621" opacity="0" width="31.9141" x="0" y="0"/>
  <path d="M25.2734 23.6328L28.7793 23.6328C30.6055 23.6328 31.5527 22.7441 31.5527 20.9766L31.5527 2.65625C31.5527 0.888672 30.6055 0 28.7793 0L25.2734 0C23.4473 0 22.5098 0.888672 22.5098 2.65625L22.5098 20.9766C22.5098 22.7441 23.4473 23.6328 25.2734 23.6328ZM25.5371 22.002C24.5801 22.002 24.2188 21.6406 24.2188 20.6934L24.2188 2.93945C24.2188 1.99219 24.5801 1.63086 25.5371 1.63086L28.5254 1.63086C29.4824 1.63086 29.8438 1.99219 29.8438 2.93945L29.8438 20.6934C29.8438 21.6406 29.4824 22.002 28.5254 22.002Z" fill="black" fill-opacity="0.85"/>
  <path d="M14.0137 23.6328L17.5195 23.6328C19.3555 23.6328 20.293 22.7441 20.293 20.9766L20.293 6.32812C20.293 4.56055 19.3555 3.66211 17.5195 3.66211L14.0137 3.66211C12.1875 3.66211 11.2598 4.56055 11.2598 6.32812L11.2598 20.9766C11.2598 22.7441 12.1875 23.6328 14.0137 23.6328ZM14.2871 22.002C13.3301 22.002 12.9688 21.6406 12.9688 20.6934L12.9688 6.61133C12.9688 5.66406 13.3301 5.29297 14.2871 5.29297L17.2656 5.29297C18.2227 5.29297 18.584 5.66406 18.584 6.61133L18.584 20.6934C18.584 21.6406 18.2227 22.002 17.2656 22.002Z" fill="black" fill-opacity="0.85"/>
  <path d="M2.76367 23.6328L6.26953 23.6328C8.0957 23.6328 9.04297 22.7441 9.04297 20.9766L9.04297 9.96094C9.04297 8.19336 8.0957 7.30469 6.26953 7.30469L2.76367 7.30469C0.927734 7.30469 0 8.19336 0 9.96094L0 20.9766C0 22.7441 0.927734 23.6328 2.76367 23.6328ZM3.02734 22.002C2.07031 22.002 1.70898 21.6406 1.70898 20.6934L1.70898 10.2441C1.70898 9.29688 2.07031 8.93555 3.02734 8.93555L6.01562 8.93555C6.97266 8.93555 7.33398 9.29688 7.33398 10.2441L7.33398 20.6934C7.33398 21.6406 6.97266 22.002 6.01562 22.002Z" fill="black" fill-opacity="0.85"/>
 </g>
</svg>
