<?xml version="1.0" encoding="UTF-8"?>
<!--Generator: Apple Native CoreSVG 326-->
<!DOCTYPE svg
PUBLIC "-//W3C//DTD SVG 1.1//EN"
       "http://www.w3.org/Graphics/SVG/1.1/DTD/svg11.dtd">
<svg version="1.1" xmlns="http://www.w3.org/2000/svg" xmlns:xlink="http://www.w3.org/1999/xlink" viewBox="0 0 27.3242 23.4082">
 <g>
  <rect height="23.4082" opacity="0" width="27.3242" x="0" y="0"/>
  <path d="M26.2305 4.13086L24.502 11.416C24.3457 11.9629 23.8477 12.1875 23.457 11.8066L21.2598 9.59961L15.8594 15.0293C15.332 15.5664 14.8145 15.8203 14.2578 15.8203C13.7012 15.8203 13.1641 15.5664 12.6465 15.0293L7.85156 10.1855C7.69531 10.0293 7.54883 9.95117 7.40234 9.95117C7.25586 9.95117 7.10938 10.0293 6.95312 10.1855L1.72852 15.4479L1.72852 12.8633L5.80078 8.76953C6.34766 8.22266 6.8457 7.98828 7.40234 7.98828C7.95898 7.98828 8.48633 8.23242 9.00391 8.76953L13.8086 13.623C13.9648 13.7793 14.1113 13.8477 14.2578 13.8477C14.4043 13.8477 14.5508 13.7695 14.707 13.623L19.9609 8.30078L17.7734 6.10352C17.3828 5.72266 17.6074 5.22461 18.1543 5.07812L25.4395 3.33984C25.9375 3.21289 26.3574 3.61328 26.2305 4.13086Z" fill="black" fill-opacity="0.85"/>
  <path d="M0 22.5C0 23.0469 0.361328 23.4082 0.908203 23.4082L26.0938 23.4082C26.5625 23.4082 26.9629 23.0371 26.9629 22.5488C26.9629 22.0605 26.5625 21.6895 26.0938 21.6895L2.05078 21.6895C1.80664 21.6895 1.72852 21.6113 1.72852 21.3672L1.72852 0.986328C1.72852 0.527344 1.35742 0.117188 0.869141 0.117188C0.380859 0.117188 0 0.527344 0 0.986328Z" fill="black" fill-opacity="0.85"/>
 </g>
</svg>
