<?xml version="1.0" encoding="UTF-8"?>
<!--Generator: Apple Native CoreSVG 326-->
<!DOCTYPE svg
PUBLIC "-//W3C//DTD SVG 1.1//EN"
       "http://www.w3.org/Graphics/SVG/1.1/DTD/svg11.dtd">
<svg version="1.1" xmlns="http://www.w3.org/2000/svg" xmlns:xlink="http://www.w3.org/1999/xlink" viewBox="0 0 24.6387 24.248">
 <g>
  <rect height="24.248" opacity="0" width="24.6387" x="0" y="0"/>
  <path d="M0.859375 24.2383C1.34766 24.2383 1.71875 23.8379 1.71875 23.3691L1.71875 0.859375C1.71875 0.390625 1.34766 0 0.859375 0C0.371094 0 0 0.390625 0 0.859375L0 23.3691C0 23.8379 0.371094 24.2383 0.859375 24.2383Z" fill="black" fill-opacity="0.85"/>
  <path d="M4.73633 23.9844L14.541 23.9844C15.2051 23.9844 15.625 23.5449 15.625 22.8613L15.625 20.332C15.625 19.6191 15.2051 19.1992 14.541 19.1992L4.73633 19.1992C4.0625 19.1992 3.66211 19.6191 3.66211 20.332L3.66211 22.8613C3.66211 23.5449 4.0625 23.9844 4.73633 23.9844Z" fill="black" fill-opacity="0.85"/>
  <path d="M4.73633 17.666L20.3027 17.666C20.9766 17.666 21.377 17.2363 21.377 16.5332L21.377 14.0039C21.377 13.3105 20.9766 12.8809 20.3027 12.8809L4.73633 12.8809C4.0625 12.8809 3.66211 13.3105 3.66211 14.0039L3.66211 16.5332C3.66211 17.2363 4.0625 17.666 4.73633 17.666Z" fill="black" fill-opacity="0.85"/>
  <path d="M4.73633 11.3477L23.2129 11.3477C23.877 11.3477 24.2773 10.918 24.2773 10.2148L24.2773 7.68555C24.2773 6.99219 23.877 6.5625 23.2129 6.5625L4.73633 6.5625C4.0625 6.5625 3.66211 6.99219 3.66211 7.68555L3.66211 10.2148C3.66211 10.918 4.0625 11.3477 4.73633 11.3477Z" fill="black" fill-opacity="0.85"/>
  <path d="M4.73633 5.03906L17.3828 5.03906C18.0371 5.03906 18.4473 4.59961 18.4473 3.90625L18.4473 1.36719C18.4473 0.673828 18.0371 0.244141 17.3828 0.244141L4.73633 0.244141C4.0625 0.244141 3.66211 0.673828 3.66211 1.36719L3.66211 3.90625C3.66211 4.59961 4.0625 5.03906 4.73633 5.03906Z" fill="black" fill-opacity="0.85"/>
 </g>
</svg>
