<?xml version="1.0" encoding="UTF-8"?>
<!--Generator: Apple Native CoreSVG 326-->
<!DOCTYPE svg
PUBLIC "-//W3C//DTD SVG 1.1//EN"
       "http://www.w3.org/Graphics/SVG/1.1/DTD/svg11.dtd">
<svg version="1.1" xmlns="http://www.w3.org/2000/svg" xmlns:xlink="http://www.w3.org/1999/xlink" viewBox="0 0 21.3281 26.9238">
 <g>
  <rect height="26.9238" opacity="0" width="21.3281" x="0" y="0"/>
  <path d="M3.70117 26.9238L20.1074 26.9238C20.5859 26.9238 20.9668 26.543 20.9668 26.0547C20.9668 25.6934 20.7129 25.3613 20.3809 25.2344C18.7207 24.4727 18.3594 22.3828 19.9512 20.7324C20.4395 20.2344 20.9668 19.5703 20.9668 18.3496L20.9668 3.81836C20.9668 1.29883 19.707 0.0195312 17.207 0.0195312L3.75977 0.0195312C1.25977 0.0195312 0 1.28906 0 3.81836L0 23.2324C0 25.6641 1.26953 26.9238 3.70117 26.9238ZM1.72852 20.166L1.72852 3.85742C1.72852 2.49023 2.45117 1.74805 3.84766 1.74805L17.1094 1.74805C18.5156 1.74805 19.2383 2.49023 19.2383 3.85742L19.2383 18.125C19.2383 19.043 18.7305 19.541 17.8027 19.541L3.86719 19.541C2.96875 19.541 2.28516 19.7559 1.72852 20.166ZM3.78906 25.1953C2.46094 25.1953 1.72852 24.4727 1.72852 23.2129C1.72852 22.0215 2.55859 21.2695 3.87695 21.2695L16.9922 21.2695C17.2363 21.2695 17.4414 21.2402 17.6367 21.1914C16.9434 22.5977 17.0898 24.082 17.9492 25.1953ZM3.24219 20.459L4.67773 20.459L4.67773 1.28906L3.24219 1.28906ZM8.30078 15.9277C8.65234 15.9277 8.89648 15.7617 9.04297 15.3027L9.94141 12.7734L14.0527 12.7734L14.9512 15.3027C15.0977 15.7617 15.3418 15.9277 15.7031 15.9277C16.123 15.9277 16.416 15.6543 16.416 15.2637C16.416 15.1074 16.3867 14.9707 16.3086 14.7656L13.0664 6.08398C12.8809 5.57617 12.5098 5.32227 11.9922 5.32227C11.4746 5.32227 11.1133 5.57617 10.9277 6.08398L7.68555 14.7656C7.60742 14.9707 7.57812 15.1074 7.57812 15.2539C7.57812 15.6543 7.86133 15.9277 8.30078 15.9277ZM10.3418 11.582L11.9434 7.04102L12.0508 7.04102L13.6523 11.582Z" fill="black" fill-opacity="0.85"/>
 </g>
</svg>
