<?xml version="1.0" encoding="UTF-8"?>
<!--Generator: Apple Native CoreSVG 326-->
<!DOCTYPE svg
PUBLIC "-//W3C//DTD SVG 1.1//EN"
       "http://www.w3.org/Graphics/SVG/1.1/DTD/svg11.dtd">
<svg version="1.1" xmlns="http://www.w3.org/2000/svg" xmlns:xlink="http://www.w3.org/1999/xlink" viewBox="0 0 39.5117 19.1895">
 <g>
  <rect height="19.1895" opacity="0" width="39.5117" x="0" y="0"/>
  <path d="M33.7012 18.8965C36.2012 18.8965 38.3301 17.5098 39.0527 15.498C39.1211 15.3125 39.1504 15.1074 39.1504 14.9414C39.1504 14.4922 38.8281 14.1602 38.3691 14.1602C37.959 14.1602 37.7539 14.3262 37.5195 14.8047C36.8555 16.4258 35.5469 17.3242 33.7109 17.3242C31.0449 17.3242 29.3262 15.2344 29.3262 11.875C29.3262 8.54492 31.0645 6.42578 33.7012 6.42578C35.4688 6.42578 36.8164 7.29492 37.4805 8.96484C37.7051 9.41406 37.9199 9.58008 38.3203 9.58008C38.7988 9.58008 39.1113 9.27734 39.1113 8.81836C39.1113 8.66211 39.0723 8.47656 39.0332 8.33984C38.3887 6.31836 36.2305 4.85352 33.6621 4.85352C29.9023 4.85352 27.4707 7.63672 27.4707 11.9043C27.4707 16.1816 29.9219 18.8965 33.7012 18.8965Z" fill="black" fill-opacity="0.85"/>
  <path d="M14.5312 18.877C15.0391 18.877 15.4102 18.5352 15.4102 17.959L15.4102 15.6641L15.4492 15.6641C16.2402 17.6465 18.0078 18.8965 20.2051 18.8965C23.6621 18.8965 25.9668 16.0938 25.9668 11.875C25.9668 7.64648 23.6523 4.85352 20.2246 4.85352C18.0371 4.85352 16.2695 6.11328 15.5176 8.05664L15.4688 8.05664L15.4688 0.966797C15.4688 0.380859 15.0977 0 14.5605 0C14.0137 0 13.6523 0.380859 13.6523 0.966797L13.6523 17.959C13.6523 18.5449 14.0039 18.877 14.5312 18.877ZM19.8242 17.3242C17.2754 17.3242 15.4883 15.1367 15.4883 11.8848C15.4883 8.63281 17.2754 6.43555 19.8242 6.43555C22.4316 6.43555 24.1016 8.56445 24.1016 11.875C24.1016 15.1953 22.4219 17.3242 19.8242 17.3242Z" fill="black" fill-opacity="0.85"/>
  <path d="M4.52148 18.877C6.57227 18.877 8.4668 17.7539 9.20898 16.0547L9.24805 16.0547L9.24805 17.998C9.24805 18.5352 9.61914 18.8867 10.1172 18.8867C10.6445 18.8867 10.9961 18.5352 10.9961 17.9492L10.9961 9.4043C10.9961 6.63086 9.0332 4.85352 5.87891 4.85352C3.44727 4.85352 1.5332 5.92773 0.820312 7.64648C0.693359 7.93945 0.605469 8.24219 0.605469 8.48633C0.605469 8.96484 0.966797 9.27734 1.42578 9.27734C1.76758 9.27734 2.03125 9.14062 2.19727 8.81836C2.82227 7.22656 4.01367 6.40625 5.83008 6.40625C7.93945 6.40625 9.18945 7.62695 9.18945 9.54102L9.18945 10.6738L4.93164 10.9277C1.73828 11.1133 0 12.5781 0 14.9023C0 17.2852 1.85547 18.877 4.52148 18.877ZM4.93164 17.373C3.11523 17.373 1.85547 16.3477 1.85547 14.8535C1.85547 13.418 2.98828 12.4609 5.16602 12.3145L9.18945 12.0312L9.18945 13.5742C9.18945 15.6836 7.28516 17.373 4.93164 17.373Z" fill="black" fill-opacity="0.85"/>
 </g>
</svg>
