<?xml version="1.0" encoding="UTF-8"?>
<!--Generator: Apple Native CoreSVG 326-->
<!DOCTYPE svg
PUBLIC "-//W3C//DTD SVG 1.1//EN"
       "http://www.w3.org/Graphics/SVG/1.1/DTD/svg11.dtd">
<svg version="1.1" xmlns="http://www.w3.org/2000/svg" xmlns:xlink="http://www.w3.org/1999/xlink" viewBox="0 0 25.8008 25.459">
 <g>
  <rect height="25.459" opacity="0" width="25.8008" x="0" y="0"/>
  <path d="M12.7148 25.4395C19.7363 25.4395 25.4395 19.7461 25.4395 12.7246C25.4395 5.70312 19.7363 0 12.7148 0C5.69336 0 0 5.70312 0 12.7246C0 19.7461 5.69336 25.4395 12.7148 25.4395ZM12.7148 23.623C6.68945 23.623 1.81641 18.75 1.81641 12.7246C1.81641 6.69922 6.68945 1.82617 12.7148 1.82617C18.7402 1.82617 23.6133 6.69922 23.6133 12.7246C23.6133 18.75 18.7402 23.623 12.7148 23.623Z" fill="black" fill-opacity="0.85"/>
  <path d="M5.89844 17.5781C5.89844 18.125 6.25977 18.4863 6.79688 18.4863L18.916 18.4863C19.248 18.4863 19.5312 18.2129 19.5312 17.8711C19.5312 17.5391 19.248 17.2559 18.916 17.2559L7.1875 17.2559C7.13867 17.2559 7.13867 17.2461 7.13867 17.207L7.13867 7.27539C7.13867 6.94336 6.85547 6.66016 6.51367 6.66016C6.18164 6.66016 5.89844 6.94336 5.89844 7.27539ZM6.9043 14.6484L9.59961 11.9629C9.69727 11.8652 9.76562 11.8652 9.85352 11.9629L12.1777 14.3066C12.4707 14.5898 12.7637 14.7266 13.0957 14.7266C13.4375 14.7266 13.75 14.5898 14.0137 14.3066L16.5332 11.748L17.5 12.7246C17.7832 12.998 18.1934 12.8516 18.3008 12.4414L19.1602 8.85742C19.2676 8.48633 18.9355 8.17383 18.5547 8.27148L14.9805 9.11133C14.5801 9.20898 14.4141 9.64844 14.6973 9.91211L15.6543 10.8691L13.2227 13.3398C13.1445 13.4375 13.0762 13.4375 12.9785 13.3496L10.6445 10.9766C10.3711 10.6934 10.0684 10.5566 9.72656 10.5566C9.375 10.5566 9.08203 10.6934 8.80859 10.9766L6.04492 13.7695Z" fill="black" fill-opacity="0.85"/>
 </g>
</svg>
