<?xml version="1.0" encoding="UTF-8"?>
<!--Generator: Apple Native CoreSVG 326-->
<!DOCTYPE svg
PUBLIC "-//W3C//DTD SVG 1.1//EN"
       "http://www.w3.org/Graphics/SVG/1.1/DTD/svg11.dtd">
<svg version="1.1" xmlns="http://www.w3.org/2000/svg" xmlns:xlink="http://www.w3.org/1999/xlink" viewBox="0 0 25.8008 25.459">
 <g>
  <rect height="25.459" opacity="0" width="25.8008" x="0" y="0"/>
  <path d="M25.4395 12.7344C25.4395 19.7461 19.7266 25.459 12.7148 25.459C5.71289 25.459 0 19.7461 0 12.7344C0 5.73242 5.71289 0.0195312 12.7148 0.0195312C19.7266 0.0195312 25.4395 5.73242 25.4395 12.7344ZM5.85938 7.16797L5.85938 17.7148C5.85938 18.2812 6.23047 18.6523 6.78711 18.6523L19.1895 18.6523C19.5312 18.6523 19.8242 18.3691 19.8242 18.0176C19.8242 17.6758 19.5312 17.3828 19.1895 17.3828L7.25586 17.3828C7.16797 17.3828 7.12891 17.3535 7.12891 17.2461L7.12891 10.6348L8.84766 12.3535C9.13086 12.6367 9.42383 12.7832 9.78516 12.7832C10.1367 12.7832 10.4395 12.6465 10.7227 12.3535L13.1055 9.94141C13.1934 9.85352 13.291 9.86328 13.3594 9.94141L15.8398 12.4609L14.8633 13.4375C14.5703 13.7109 14.7363 14.1504 15.1562 14.2578L18.8184 15.127C19.209 15.2246 19.541 14.9023 19.4434 14.5215L18.5645 10.8496C18.457 10.4102 18.0176 10.2637 17.7344 10.5566L16.748 11.5527L14.1797 8.93555C13.9062 8.65234 13.584 8.49609 13.2324 8.49609C12.8809 8.49609 12.5781 8.64258 12.2754 8.93555L9.91211 11.3379C9.82422 11.4258 9.75586 11.4258 9.6582 11.3379L7.12891 8.80859L7.12891 7.16797C7.12891 6.81641 6.83594 6.52344 6.49414 6.52344C6.15234 6.52344 5.85938 6.81641 5.85938 7.16797Z" fill="black" fill-opacity="0.85"/>
 </g>
</svg>
