<?xml version="1.0" ?><!-- Generator: Adobe Illustrator 25.0.0, SVG Export Plug-In . SVG Version: 6.00 Build 0)  --><svg xmlns="http://www.w3.org/2000/svg" xmlns:xlink="http://www.w3.org/1999/xlink" version="1.1" id="Layer_1" x="0px" y="0px" viewBox="0 0 512 512" style="enable-background:new 0 0 512 512;" xml:space="preserve">
<path d="M142.9,496.3c5.7,0,11-1.5,15.8-4.6c4.8-3.1,10.7-7.7,17.7-13.9l80.1-71.3h149.1c23.1,0,42.5-4.1,58.3-12.4  c15.8-8.3,27.8-20.3,35.9-36.1c8.1-15.8,12.2-35.1,12.2-57.8V122.1c0-22.8-4.1-42-12.2-57.8c-8.1-15.8-20.1-27.8-35.9-36.1  c-15.8-8.3-35.2-12.4-58.3-12.4H106.4c-23.1,0-42.5,4.1-58.3,12.4c-15.8,8.3-27.8,20.3-35.9,36.1C4.1,80,0,99.3,0,122.1V300  c0,22.8,4.1,42,12.2,57.8c8.1,15.8,20.1,27.8,35.9,36.1c15.8,8.3,35.2,12.4,58.3,12.4h11.2v60.4c0,9,2.2,16.1,6.6,21.5  C128.6,493.6,134.8,496.3,142.9,496.3z M152.4,453.8v-67.4c0-6.3-1.3-10.8-3.9-13.5c-2.6-2.6-7.1-3.9-13.5-3.9h-28.6  c-23.5,0-40.9-5.8-52.2-17.5c-11.2-11.7-16.8-28.9-16.8-51.7V122.1c0-22.6,5.6-39.8,16.8-51.5c11.2-11.7,28.6-17.5,52.2-17.5h299.2  c23.4,0,40.7,5.8,52,17.5c11.3,11.7,17,28.8,17,51.5v177.7c0,22.8-5.7,40-17,51.7c-11.3,11.7-28.7,17.5-52,17.5H255.1  c-6.5,0-11.8,0.7-15.8,2.1c-4,1.4-8.2,4.3-12.5,8.8L152.4,453.8z" class="hierarchical-0:secondary SFSymbolsPreview4D4D4D" style="fill: #4D4D4D;"/>
<path d="M179.8,320.5c4.2,0,7.7-1.1,10.7-3.4c2.9-2.2,5.3-6.1,7.2-11.5l17-49.5h82.9l17.2,49.5c3.3,9.9,9.2,14.9,17.9,14.9  c5.1,0,9.2-1.5,12.3-4.5c3.1-3,4.6-6.9,4.6-11.5c0-3.3-0.8-7.3-2.3-12.1L282,117c-4.5-12.2-13.2-18.4-26-18.4  c-12.7,0-21.3,6.1-25.8,18.4l-65,175.4c-1.7,4.8-2.6,8.8-2.6,12.1c0,4.8,1.5,8.7,4.6,11.6C170.4,319,174.5,320.5,179.8,320.5z   M223.9,228.2l30.9-89.9h2.6l30.9,89.9H223.9z" class="hierarchical-1:primary SFSymbolsPreview212121" style="fill: #212121;"/>
</svg>