<?xml version="1.0" encoding="UTF-8"?>
<!--Generator: Apple Native CoreSVG 326-->
<!DOCTYPE svg
PUBLIC "-//W3C//DTD SVG 1.1//EN"
       "http://www.w3.org/Graphics/SVG/1.1/DTD/svg11.dtd">
<svg version="1.1" xmlns="http://www.w3.org/2000/svg" xmlns:xlink="http://www.w3.org/1999/xlink" viewBox="0 0 21.3281 26.9238">
 <g>
  <rect height="26.9238" opacity="0" width="21.3281" x="0" y="0"/>
  <path d="M0 23.125C0 25.6445 1.25977 26.9238 3.75977 26.9238L17.207 26.9238C19.707 26.9238 20.9668 25.6445 20.9668 23.125L20.9668 3.80859C20.9668 1.28906 19.707 0.00976562 17.207 0.00976562L3.75977 0.00976562C1.25977 0.00976562 0 1.28906 0 3.80859ZM1.72852 23.0859L1.72852 3.84766C1.72852 2.48047 2.45117 1.73828 3.85742 1.73828L17.1094 1.73828C18.5156 1.73828 19.2383 2.48047 19.2383 3.84766L19.2383 23.0859C19.2383 24.4531 18.5156 25.1953 17.1094 25.1953L3.85742 25.1953C2.45117 25.1953 1.72852 24.4531 1.72852 23.0859Z" fill="black" fill-opacity="0.85"/>
  <path d="M4.41406 19.0234C3.92578 19.0234 3.63281 19.3359 3.63281 19.8535L3.63281 22.0898C3.63281 22.5879 3.92578 22.9199 4.41406 22.9199L10.2051 22.9199C10.6836 22.9199 10.9863 22.5879 10.9863 22.0898L10.9863 19.8535C10.9863 19.3359 10.6836 19.0234 10.2051 19.0234Z" fill="black" fill-opacity="0.85"/>
  <path d="M4.41406 14.0137C3.92578 14.0137 3.63281 14.3262 3.63281 14.8242L3.63281 17.0703C3.63281 17.5879 3.92578 17.9004 4.41406 17.9004L14.4336 17.9004C14.9219 17.9004 15.2148 17.5879 15.2148 17.0703L15.2148 14.8242C15.2148 14.3262 14.9219 14.0137 14.4336 14.0137Z" fill="black" fill-opacity="0.85"/>
  <path d="M4.41406 8.99414C3.92578 8.99414 3.63281 9.30664 3.63281 9.82422L3.63281 12.0605C3.63281 12.5586 3.92578 12.8906 4.41406 12.8906L16.5723 12.8906C17.0508 12.8906 17.3438 12.5586 17.3438 12.0508L17.3438 9.82422C17.3438 9.30664 17.0508 8.99414 16.5723 8.99414Z" fill="black" fill-opacity="0.85"/>
  <path d="M4.41406 3.98438C3.92578 3.98438 3.63281 4.29688 3.63281 4.81445L3.63281 7.05078C3.63281 7.54883 3.92578 7.87109 4.41406 7.87109L12.2852 7.87109C12.7637 7.87109 13.0664 7.54883 13.0664 7.05078L13.0664 4.81445C13.0664 4.29688 12.7637 3.98438 12.2852 3.98438Z" fill="black" fill-opacity="0.85"/>
 </g>
</svg>
