<?xml version="1.0" ?><!-- Generator: Adobe Illustrator 25.0.0, SVG Export Plug-In . SVG Version: 6.00 Build 0)  --><svg xmlns="http://www.w3.org/2000/svg" xmlns:xlink="http://www.w3.org/1999/xlink" version="1.1" id="Layer_1" x="0px" y="0px" viewBox="0 0 512 512" style="enable-background:new 0 0 512 512;" xml:space="preserve">
<path d="M144.8,373.2c0,12.8,8.3,20.4,21.6,20.4h53.5c13.3,0,21.6-7.6,21.6-20.4V63.9c0-12.8-8.3-20.4-21.6-20.4h-53.5  c-13.3,0-21.6,7.6-21.6,20.4V373.2z M270.2,373.2c0,12.8,8.1,20.4,21.4,20.4h53.8c13,0,21.4-7.6,21.4-20.4V117  c0-13-8.3-20.6-21.4-20.6h-53.8c-13.3,0-21.4,7.6-21.4,20.6V373.2z M19.6,373.2c0,12.8,8.1,20.4,21.6,20.4h53.5  c13,0,21.4-7.6,21.4-20.4v-203c0-12.5-8.3-20.6-21.4-20.6H41.2c-13.5,0-21.6,8.1-21.6,20.6V373.2z M395.4,373.2  c0,12.8,8.1,20.4,21.6,20.4h53.5c13.3,0,21.6-7.6,21.6-20.4V221.8c0-12.8-8.3-20.6-21.6-20.6H417c-13.5,0-21.6,7.9-21.6,20.6V373.2z   M0,448.8c0,11,9.1,19.6,19.6,19.6h472.5c10.8,0,19.9-8.6,19.9-19.6c0-10.8-9.1-19.6-19.9-19.6H19.6C9.1,429.2,0,438,0,448.8z"/>
</svg>