<?xml version="1.0" encoding="UTF-8"?>
<!--Generator: Apple Native CoreSVG 326-->
<!DOCTYPE svg
PUBLIC "-//W3C//DTD SVG 1.1//EN"
       "http://www.w3.org/Graphics/SVG/1.1/DTD/svg11.dtd">
<svg version="1.1" xmlns="http://www.w3.org/2000/svg" xmlns:xlink="http://www.w3.org/1999/xlink" viewBox="0 0 30.6543 24.1309">
 <g>
  <rect height="24.1309" opacity="0" width="30.6543" x="0" y="0"/>
  <path d="M6.5332 12.0605C6.5332 12.4961 6.55719 12.9268 6.60721 13.3504C4.00164 13.559 2.58789 14.7232 2.58789 16.5137C2.58789 18.4082 4.16992 19.6582 6.43555 19.6582C7.32507 19.6582 8.15001 19.4709 8.87713 19.1197C9.14014 19.5002 9.43405 19.857 9.75668 20.1872C8.70798 20.9128 7.40401 21.3379 6.04492 21.3379C2.8125 21.3379 0.595703 19.4043 0.595703 16.543C0.595703 13.7695 2.68555 12.1191 6.47461 11.7969L6.54713 11.7905ZM9.21874 4.53646C8.8061 5.03825 8.4377 5.57668 8.12115 6.14771C7.93584 6.13122 7.74467 6.12305 7.54883 6.12305C5.33203 6.12305 3.80859 7.04102 3.02734 9.12109C2.86133 9.49219 2.59766 9.6582 2.19727 9.6582C1.68945 9.6582 1.33789 9.31641 1.33789 8.76953C1.33789 8.47656 1.43555 8.08594 1.60156 7.72461C2.44141 5.74219 4.70703 4.38477 7.58789 4.38477C8.16836 4.38477 8.71291 4.43506 9.21874 4.53646Z" fill="black" fill-opacity="0.85"/>
  <path d="M18.5938 24.1211C25.1758 24.1211 30.6543 18.6426 30.6543 12.0605C30.6543 5.47852 25.166 0 18.5742 0C12.002 0 6.5332 5.46875 6.5332 12.0605C6.5332 18.6426 12.0117 24.1211 18.5938 24.1211ZM18.5938 22.373C12.8613 22.373 8.30078 17.8027 8.30078 12.0605C8.30078 6.31836 12.8418 1.74805 18.5742 1.74805C24.3164 1.74805 28.8867 6.31836 28.9062 12.0605C28.9258 17.793 24.3359 22.373 18.5938 22.373ZM19.6191 23.0859L21.8945 23.0664L21.8945 8.80859C21.8945 4.9707 19.5215 2.43164 15.5176 2.00195C15 1.95312 14.4629 1.93359 13.9453 1.95312L11.5625 4.35547C12.334 4.11133 13.1738 3.99414 14.1699 3.99414C17.5195 3.99414 19.502 5.87891 19.502 9.0332L19.502 10.8984L12.8125 11.3281C10.791 11.4551 9.16992 11.9336 7.98828 12.7051L8.45703 15.2148C9.28711 14.0625 10.8887 13.3691 13.1152 13.2129L19.502 12.7637L19.502 15.2734C19.502 18.3691 17.0117 20.8789 13.7109 21.2793L15.5762 22.7832C17.373 22.1094 18.8086 20.9082 19.4727 19.4043L19.6191 19.4043Z" fill="black" fill-opacity="0.85"/>
 </g>
</svg>
