<?xml version="1.0" ?><!-- Generator: Adobe Illustrator 25.0.0, SVG Export Plug-In . SVG Version: 6.00 Build 0)  --><svg xmlns="http://www.w3.org/2000/svg" xmlns:xlink="http://www.w3.org/1999/xlink" version="1.1" id="Layer_1" x="0px" y="0px" viewBox="0 0 512 512" style="enable-background:new 0 0 512 512;" xml:space="preserve">
<path d="M55.2,437.3c0,49.9,24.6,74.7,74,74.7h253.6c49.4,0,74-24.8,74-74.7V75c0-49.7-24.6-75-74-75H129.2c-49.4,0-74,25.3-74,75  V437.3z M143.3,79.3h146.6c9.3,0,15.3,6.2,15.3,16.2v39.9c0,9.8-6,16.2-15.3,16.2H143.3c-9.6,0-15.3-6.4-15.3-16.2V95.5  C128,85.5,133.7,79.3,143.3,79.3z M143.3,172.9h226.1c9.6,0,15,6.2,15,16.2V229c0,10-5.5,16.2-15,16.2H143.3  c-9.6,0-15.3-6.2-15.3-16.2v-39.9C128,179.1,133.7,172.9,143.3,172.9z M143.3,267H330c9.6,0,15,6,15,15.8v40.1c0,10-5.5,16-15,16  H143.3c-9.6,0-15.3-6-15.3-16v-40.1C128,273,133.7,267,143.3,267z M143.3,360.6h108.2c9.3,0,15,6.2,15,16.2v39.9  c0,9.8-5.7,16.2-15,16.2H143.3c-9.6,0-15.3-6.4-15.3-16.2v-39.9C128,366.8,133.7,360.6,143.3,360.6z"/>
</svg>