<?xml version="1.0" ?><!-- Generator: Adobe Illustrator 25.0.0, SVG Export Plug-In . SVG Version: 6.00 Build 0)  --><svg xmlns="http://www.w3.org/2000/svg" xmlns:xlink="http://www.w3.org/1999/xlink" version="1.1" id="Layer_1" x="0px" y="0px" viewBox="0 0 512 512" style="enable-background:new 0 0 512 512;" xml:space="preserve">
<path d="M75.6,447.8h360.7c21.8,0,38.2-5.4,49.1-16.1c10.9-10.8,16.4-26.9,16.4-48.4v-61.5c0-5.4-1.5-9.6-4.4-12.5  c-2.9-2.9-7.1-4.4-12.5-4.4c-5.4,0-9.5,1.5-12.4,4.4c-2.8,2.9-4.3,7.1-4.3,12.5v59.8c0,10.8-2.8,19-8.4,24.5  c-5.6,5.5-13.6,8.2-23.9,8.2H76.3c-10.4,0-18.4-2.7-24-8.2c-5.6-5.5-8.3-13.6-8.3-24.5v-59.8c0-5.4-1.5-9.6-4.5-12.5  c-3-2.9-7.1-4.4-12.4-4.4c-5.3,0-9.4,1.5-12.3,4.4c-2.9,2.9-4.4,7.1-4.4,12.5v61.5c0,21.5,5.5,37.7,16.4,48.4  C37.7,442.4,54,447.8,75.6,447.8z M75.6,64.2c-21.7,0-38,5.4-48.9,16.1c-10.9,10.8-16.4,26.9-16.4,48.4v51.1c0,5.4,1.5,9.6,4.4,12.6  c2.9,3,7,4.5,12.3,4.5c5.3,0,9.4-1.5,12.4-4.5c3-3,4.5-7.2,4.5-12.6v-49.4c0-10.8,2.8-19,8.3-24.5c5.6-5.5,13.5-8.2,24-8.2h359.7  c10.3,0,18.2,2.7,23.9,8.2c5.6,5.5,8.4,13.6,8.4,24.5v49.4c0,5.4,1.5,9.6,4.4,12.6c2.9,3,7,4.5,12.3,4.5c5.6,0,9.8-1.5,12.6-4.5  c2.8-3,4.3-7.2,4.3-12.6v-51.1c0-21.5-5.5-37.7-16.4-48.4c-10.9-10.8-27.3-16.1-49.1-16.1H75.6z M484.9,277.8c7.5,0,13.9-2.7,19.2-8  c5.3-5.3,7.9-11.8,7.9-19.3c0-7.4-2.6-13.7-7.9-19c-5.3-5.3-11.7-7.9-19.2-7.9c-7.5,0-13.9,2.6-19.2,7.8c-5.3,5.2-7.9,11.6-7.9,19.1  c0,7.5,2.6,13.9,7.9,19.3C471,275.1,477.4,277.8,484.9,277.8z M27.1,277.8c7.5,0,13.9-2.7,19.2-8s7.9-11.8,7.9-19.3  c0-7.4-2.6-13.7-7.9-19c-5.3-5.3-11.7-7.9-19.2-7.9c-7.4,0-13.7,2.6-19.1,7.9c-5.3,5.3-8,11.6-8,19c0,7.5,2.7,13.9,8,19.3  C13.4,275.1,19.7,277.8,27.1,277.8z" class="hierarchical-0:secondary SFSymbolsPreview4D4D4D" style="fill: #4D4D4D;"/>
<path d="M187.5,353.8c3.8,0,6.9-1,9.6-3c2.6-2,4.8-5.5,6.5-10.3l15.2-44.4h74.4l15.4,44.4c2.9,8.9,8.3,13.3,16,13.3  c4.6,0,8.3-1.4,11-4.1c2.8-2.7,4.2-6.1,4.2-10.3c0-2.9-0.7-6.5-2.1-10.8l-58.6-157.3c-4-11-11.8-16.5-23.3-16.5  c-11.4,0-19.1,5.5-23.1,16.5l-58.3,157.3c-1.5,4.3-2.3,7.9-2.3,10.8c0,4.3,1.4,7.8,4.2,10.4C179.1,352.5,182.8,353.8,187.5,353.8z   M227.1,271.1l27.7-80.6h2.3l27.7,80.6H227.1z" class="hierarchical-1:primary SFSymbolsPreview212121" style="fill: #212121;"/>
</svg>