<?xml version="1.0" encoding="UTF-8"?>
<!--Generator: Apple Native CoreSVG 326-->
<!DOCTYPE svg
PUBLIC "-//W3C//DTD SVG 1.1//EN"
       "http://www.w3.org/Graphics/SVG/1.1/DTD/svg11.dtd">
<svg version="1.1" xmlns="http://www.w3.org/2000/svg" xmlns:xlink="http://www.w3.org/1999/xlink" viewBox="0 0 27.3242 23.4082">
 <g>
  <rect height="23.4082" opacity="0" width="27.3242" x="0" y="0"/>
  <path d="M15.8594 4.80469L21.2598 10.2441L23.457 8.03711C23.8477 7.64648 24.3457 7.87109 24.502 8.42773L26.2305 15.7129C26.3574 16.2305 25.9375 16.6309 25.4395 16.5039L18.1543 14.7656C17.6074 14.6191 17.3828 14.1211 17.7734 13.7305L19.9609 11.543L14.707 6.2207C14.5508 6.07422 14.4043 5.98633 14.2578 5.98633C14.1113 5.98633 13.9648 6.06445 13.8086 6.2207L9.00391 11.0742C8.48633 11.6113 7.95898 11.8555 7.40234 11.8555C6.8457 11.8555 6.34766 11.6211 5.80078 11.0742L1.72852 6.98041L1.72852 4.3958L6.95312 9.6582C7.10938 9.81445 7.25586 9.89258 7.40234 9.89258C7.54883 9.89258 7.69531 9.81445 7.85156 9.6582L12.6465 4.80469C13.1641 4.26758 13.7012 4.02344 14.2578 4.02344C14.8145 4.02344 15.332 4.27734 15.8594 4.80469Z" fill="black" fill-opacity="0.85"/>
  <path d="M0 22.5C0 23.0469 0.361328 23.4082 0.908203 23.4082L26.0938 23.4082C26.5625 23.4082 26.9629 23.0371 26.9629 22.5488C26.9629 22.0605 26.5625 21.6895 26.0938 21.6895L2.05078 21.6895C1.80664 21.6895 1.72852 21.6113 1.72852 21.3672L1.72852 0.986328C1.72852 0.527344 1.35742 0.117188 0.869141 0.117188C0.380859 0.117188 0 0.527344 0 0.986328Z" fill="black" fill-opacity="0.85"/>
 </g>
</svg>
