<?xml version="1.0" ?><!-- Generator: Adobe Illustrator 25.0.0, SVG Export Plug-In . SVG Version: 6.00 Build 0)  --><svg xmlns="http://www.w3.org/2000/svg" xmlns:xlink="http://www.w3.org/1999/xlink" version="1.1" id="Layer_1" x="0px" y="0px" viewBox="0 0 512 512" style="enable-background:new 0 0 512 512;" xml:space="preserve">
<path d="M138,497c4.6,0,8.9-1.2,12.7-3.6c3.8-2.4,8.5-6.2,14.1-11.3l83.9-76.7l157,0.2c23.1,0,42.5-4.1,58.3-12.4  c15.8-8.3,27.8-20.3,35.9-36.1c8.1-15.8,12.2-35.1,12.2-57.8V121.4c0-22.8-4.1-42-12.2-57.8c-8.1-15.8-20.1-27.8-35.9-36.1  C448.1,19.1,428.7,15,405.6,15H106.4c-23.1,0-42.5,4.1-58.3,12.4c-15.8,8.3-27.8,20.3-35.9,36.1C4.1,79.3,0,98.6,0,121.4v177.9  c0,22.8,4.1,42,12.2,57.8c8.1,15.8,20.1,27.8,35.9,36s35.2,12.3,58.3,12.3h10.9v67.6c0,7.3,1.8,13.1,5.3,17.4  C126.2,494.8,131.3,497,138,497z" class="hierarchical-0:tertiary SFSymbolsPreview8E8E8E" style="fill: #8E8E8E;"/>
<path d="M177.5,322.3c-5.4,0-9.8-1.5-13-4.6c-3.3-3.1-4.9-7-4.9-11.8c0-1.9,0.2-3.8,0.5-5.7c0.3-1.9,1-4.2,2.1-6.9l67.1-180.7  c4.8-12.7,13.7-19,26.7-19c13.2,0,22.1,6.3,26.9,19l67.4,180.7c0.9,2.6,1.5,4.9,1.9,6.9c0.3,1.9,0.5,3.8,0.5,5.7  c0,4.8-1.6,8.8-4.9,11.8c-3.3,3.1-7.5,4.6-12.8,4.6c-4.3,0-8.1-1.2-11.2-3.5c-3.1-2.3-5.6-6.3-7.4-11.8l-17.7-50.9h-85.3L196.1,307  c-1.9,5.7-4.3,9.7-7.4,12C185.5,321.2,181.8,322.3,177.5,322.3z M223,227.1h66.2l-31.8-92.5h-2.6L223,227.1z" class="hierarchical-1:primary SFSymbolsPreview212121" style="fill: #212121;"/>
</svg>