<?xml version="1.0" encoding="UTF-8"?>
<!--Generator: Apple Native CoreSVG 326-->
<!DOCTYPE svg
PUBLIC "-//W3C//DTD SVG 1.1//EN"
       "http://www.w3.org/Graphics/SVG/1.1/DTD/svg11.dtd">
<svg version="1.1" xmlns="http://www.w3.org/2000/svg" xmlns:xlink="http://www.w3.org/1999/xlink" viewBox="0 0 25.8008 25.459">
 <g>
  <rect height="25.459" opacity="0" width="25.8008" x="0" y="0"/>
  <path d="M25.4395 12.7344C25.4395 19.7461 19.7266 25.459 12.7148 25.459C5.71289 25.459 0 19.7461 0 12.7344C0 5.73242 5.71289 0.0195312 12.7148 0.0195312C19.7266 0.0195312 25.4395 5.73242 25.4395 12.7344ZM5.73242 7.16797L5.73242 17.7148C5.73242 18.2812 6.10352 18.6523 6.66016 18.6523L19.0625 18.6523C19.4043 18.6523 19.6973 18.3691 19.6973 18.0176C19.6973 17.6758 19.4141 17.3828 19.0625 17.3828L7.12891 17.3828C7.04102 17.3828 7.01172 17.3535 7.01172 17.2461L7.01172 14.4727L9.53125 11.9629C9.62891 11.8652 9.69727 11.8652 9.78516 11.9629L12.1582 14.3555C12.4512 14.6484 12.7637 14.7949 13.1055 14.7949C13.457 14.7949 13.7793 14.6387 14.0527 14.3555L16.6211 11.7383L17.6074 12.7344C17.8906 13.0371 18.3301 12.8809 18.4375 12.4512L19.3164 8.7793C19.4238 8.39844 19.082 8.06641 18.6914 8.16406L15.0391 9.04297C14.6191 9.15039 14.4434 9.58984 14.7461 9.86328L15.7129 10.8398L13.2324 13.3594C13.1543 13.457 13.0859 13.457 12.9883 13.3691L10.6055 10.9473C10.3125 10.6445 10.0098 10.5078 9.6582 10.5078C9.29688 10.5078 9.00391 10.6543 8.7207 10.9473L7.01172 12.6562L7.01172 7.16797C7.01172 6.81641 6.71875 6.52344 6.36719 6.52344C6.02539 6.52344 5.73242 6.81641 5.73242 7.16797Z" fill="black" fill-opacity="0.85"/>
 </g>
</svg>
