<?xml version="1.0" encoding="UTF-8"?>
<!--Generator: Apple Native CoreSVG 326-->
<!DOCTYPE svg
PUBLIC "-//W3C//DTD SVG 1.1//EN"
       "http://www.w3.org/Graphics/SVG/1.1/DTD/svg11.dtd">
<svg version="1.1" xmlns="http://www.w3.org/2000/svg" xmlns:xlink="http://www.w3.org/1999/xlink" viewBox="0 0 46.25 17.7246">
 <g>
  <rect height="17.7246" opacity="0" width="46.25" x="0" y="0"/>
  <path d="M38.9355 17.6465C41.9238 17.6465 44.2969 16.3281 45.4395 14.082C45.6836 13.584 45.8594 13.0859 45.8594 12.6074C45.8594 12.0898 45.5078 11.7578 45 11.7578C44.5996 11.7578 44.3555 11.9336 44.1309 12.4707C43.4375 14.6191 41.5332 15.957 38.9355 15.957C35.293 15.957 32.9688 13.2031 32.9688 8.75977C32.9688 4.4043 35.293 1.68945 38.9355 1.68945C41.4062 1.68945 43.418 3.25195 44.1113 5.46875C44.3262 5.97656 44.6094 6.19141 45.0488 6.19141C45.5469 6.19141 45.8887 5.86914 45.8887 5.35156C45.8887 5.05859 45.8301 4.7168 45.7031 4.35547C44.7949 1.68945 42.0508 0 38.9355 0C34.1113 0 31.0449 3.38867 31.0449 8.76953C31.0449 14.2285 34.1016 17.6465 38.9355 17.6465Z" fill="black" fill-opacity="0.85"/>
  <path d="M17.4219 17.373L23.1543 17.373C26.8945 17.373 29.1797 15.5371 29.1797 12.7344C29.1797 10.3125 27.4023 8.66211 24.9414 8.4082L24.9414 8.33984C26.8945 7.99805 28.2812 6.36719 28.2812 4.41406C28.2812 1.99219 26.1914 0.283203 23.0762 0.283203L17.4219 0.283203C16.875 0.283203 16.4941 0.654297 16.4941 1.23047L16.4941 16.4258C16.4941 17.002 16.875 17.373 17.4219 17.373ZM18.3984 7.8125L18.3984 1.91406L22.6562 1.91406C24.9609 1.91406 26.3672 3.01758 26.3672 4.6582C26.3672 6.64062 24.8242 7.8125 22.2461 7.8125ZM18.3984 15.7715L18.3984 9.33594L22.6074 9.33594C25.5762 9.33594 27.2363 10.5273 27.2363 12.627C27.2363 14.5605 25.6445 15.7715 22.8125 15.7715Z" fill="black" fill-opacity="0.85"/>
  <path d="M0.859375 17.6855C1.37695 17.6855 1.65039 17.4512 1.83594 16.8945L3.54492 12.3145L10.791 12.3145L12.5098 16.8945C12.7051 17.4512 12.9688 17.6855 13.4863 17.6855C14.0234 17.6855 14.375 17.334 14.375 16.8164C14.375 16.6504 14.3457 16.4844 14.2676 16.2695L8.44727 0.986328C8.21289 0.371094 7.80273 0.0195312 7.17773 0.0195312C6.54297 0.0195312 6.12305 0.361328 5.9082 0.976562L0.0976562 16.2793C0.0195312 16.4941 0 16.6602 0 16.8262C0 17.334 0.322266 17.6855 0.859375 17.6855ZM4.05273 10.7617L7.13867 2.36328L7.1875 2.36328L10.293 10.7617Z" fill="black" fill-opacity="0.85"/>
 </g>
</svg>
