<?xml version="1.0" encoding="UTF-8"?>
<!--Generator: Apple Native CoreSVG 326-->
<!DOCTYPE svg
PUBLIC "-//W3C//DTD SVG 1.1//EN"
       "http://www.w3.org/Graphics/SVG/1.1/DTD/svg11.dtd">
<svg version="1.1" xmlns="http://www.w3.org/2000/svg" xmlns:xlink="http://www.w3.org/1999/xlink" viewBox="0 0 25.8008 25.459">
 <g>
  <rect height="25.459" opacity="0" width="25.8008" x="0" y="0"/>
  <path d="M12.7148 25.4395C19.7363 25.4395 25.4395 19.7461 25.4395 12.7246C25.4395 5.70312 19.7363 0 12.7148 0C5.69336 0 0 5.70312 0 12.7246C0 19.7461 5.69336 25.4395 12.7148 25.4395ZM12.7148 23.623C6.68945 23.623 1.81641 18.75 1.81641 12.7246C1.81641 6.69922 6.68945 1.82617 12.7148 1.82617C18.7402 1.82617 23.6133 6.69922 23.6133 12.7246C23.6133 18.75 18.7402 23.623 12.7148 23.623Z" fill="black" fill-opacity="0.85"/>
  <path d="M6.00586 17.5781C6.00586 18.125 6.36719 18.4863 6.91406 18.4863L19.0234 18.4863C19.3555 18.4863 19.6387 18.2129 19.6387 17.8711C19.6387 17.5391 19.3652 17.2559 19.0234 17.2559L7.29492 17.2559C7.24609 17.2559 7.24609 17.2656 7.24609 17.207L7.24609 7.27539C7.24609 6.94336 6.96289 6.66016 6.63086 6.66016C6.28906 6.66016 6.00586 6.94336 6.00586 7.27539ZM15.6055 9.98047L15.6055 13.9844C15.6055 14.375 16.0352 14.5703 16.3867 14.3457L19.5117 12.4121C19.8438 12.2168 19.8438 11.7578 19.5215 11.5723L16.377 9.63867C16.0156 9.42383 15.6055 9.58984 15.6055 9.98047ZM6.71875 12.6074L15.8496 12.6074L15.8496 11.3672L6.71875 11.3672Z" fill="black" fill-opacity="0.85"/>
 </g>
</svg>
