<?xml version="1.0" encoding="UTF-8"?>
<!--Generator: Apple Native CoreSVG 326-->
<!DOCTYPE svg
PUBLIC "-//W3C//DTD SVG 1.1//EN"
       "http://www.w3.org/Graphics/SVG/1.1/DTD/svg11.dtd">
<svg version="1.1" xmlns="http://www.w3.org/2000/svg" xmlns:xlink="http://www.w3.org/1999/xlink" viewBox="0 0 21.3281 26.9238">
 <g>
  <rect height="26.9238" opacity="0" width="21.3281" x="0" y="0"/>
  <path d="M3.70117 26.9238L20.1074 26.9238C20.5859 26.9238 20.9668 26.543 20.9668 26.0547C20.9668 25.6934 20.7129 25.3613 20.3809 25.2344C18.7207 24.4727 18.3594 22.3828 19.9512 20.7324C20.4395 20.2344 20.9668 19.5703 20.9668 18.3496L20.9668 3.81836C20.9668 1.29883 19.707 0.0195312 17.207 0.0195312L3.75977 0.0195312C1.25977 0.0195312 0 1.28906 0 3.81836L0 23.2324C0 25.6641 1.26953 26.9238 3.70117 26.9238ZM3.78906 25.1953C2.46094 25.1953 1.72852 24.4727 1.72852 23.2129C1.72852 22.0215 2.55859 21.2695 3.87695 21.2695L16.9922 21.2695C17.2363 21.2695 17.4414 21.2402 17.6367 21.1914C16.9434 22.5977 17.0898 24.082 17.9492 25.1953ZM3.37891 19.4824C3.03711 19.4824 2.74414 19.1992 2.74414 18.8477L2.74414 2.49023C2.74414 2.12891 3.03711 1.8457 3.37891 1.8457C3.73047 1.8457 4.02344 2.12891 4.02344 2.49023L4.02344 18.8477C4.02344 19.1992 3.73047 19.4824 3.37891 19.4824ZM8.25195 15.5859C7.79297 15.5859 7.5 15.3125 7.5 14.9023C7.5 14.7461 7.51953 14.6094 7.60742 14.3945L10.9277 5.50781C11.123 4.99023 11.4844 4.72656 12.0215 4.72656C12.5684 4.72656 12.9395 4.99023 13.1348 5.50781L16.4551 14.3945C16.543 14.6094 16.5625 14.7461 16.5625 14.9121C16.5625 15.3125 16.2695 15.5859 15.8203 15.5859C15.4492 15.5859 15.2051 15.4199 15.0391 14.9512L14.1309 12.3633L9.93164 12.3633L9.01367 14.9512C8.85742 15.4297 8.61328 15.5859 8.25195 15.5859ZM10.3418 11.1328L13.7207 11.1328L12.0801 6.49414L11.9824 6.49414Z" fill="black" fill-opacity="0.85"/>
 </g>
</svg>
