<?xml version="1.0" ?><!-- Generator: Adobe Illustrator 25.0.0, SVG Export Plug-In . SVG Version: 6.00 Build 0)  --><svg xmlns="http://www.w3.org/2000/svg" xmlns:xlink="http://www.w3.org/1999/xlink" version="1.1" id="Layer_1" x="0px" y="0px" viewBox="0 0 512 512" style="enable-background:new 0 0 512 512;" xml:space="preserve">
<path d="M74.7,512c9.2,0,16.4-2,21.5-5.9c5.1-3.9,9.2-10.7,12.5-20.5l44.7-122.4h204.5l44.7,122.4c3.2,9.7,7.4,16.5,12.5,20.5  c5.1,3.9,12.1,5.9,21.1,5.9c9.2,0,16.6-2.5,22-7.6c5.4-5.1,8.1-12,8.1-20.8c0-5.3-1.3-11.6-3.8-18.7L300,31.9  c-4.2-10.6-9.8-18.6-17-23.9c-7.2-5.3-16.3-8-27.4-8c-21.5,0-36.1,10.5-43.7,31.5L49.4,465.2c-2.5,7.2-3.8,13.4-3.8,18.7  c0,8.8,2.6,15.7,7.8,20.6C58.6,509.5,65.7,512,74.7,512z M170.4,310.6l84.2-233.3h1.7l84.2,233.3H170.4z"/>
</svg>