<?xml version="1.0" encoding="UTF-8"?>
<!--Generator: Apple Native CoreSVG 326-->
<!DOCTYPE svg
PUBLIC "-//W3C//DTD SVG 1.1//EN"
       "http://www.w3.org/Graphics/SVG/1.1/DTD/svg11.dtd">
<svg version="1.1" xmlns="http://www.w3.org/2000/svg" xmlns:xlink="http://www.w3.org/1999/xlink" viewBox="0 0 28.6523 25.8887">
 <g>
  <rect height="25.8887" opacity="0" width="28.6523" x="0" y="0"/>
  <path d="M28.291 11.377C28.291 17.627 22.2656 22.7539 13.5059 22.7539C13.2324 22.7539 12.9688 22.7344 12.6953 22.7051C12.5195 22.7051 12.3438 22.7539 12.1289 22.9102C9.94141 24.375 6.46484 25.8789 5.00977 25.8789C4.07227 25.8789 3.83789 25.1367 4.32617 24.5117C4.81445 23.8965 5.94727 22.6074 6.5918 21.5234C6.69922 21.3184 6.64062 21.1328 6.43555 21.0254C2.4707 18.9355 0 15.3906 0 11.377C0 5.08789 6.2793 0 14.1504 0C22.0117 0 28.291 5.08789 28.291 11.377ZM18.3496 6.45508L12.7051 15.4297L9.89258 11.9238C9.63867 11.5723 9.39453 11.4648 9.08203 11.4648C8.59375 11.4648 8.22266 11.8652 8.22266 12.3535C8.22266 12.5977 8.32031 12.8418 8.47656 13.0566L11.8066 17.0801C12.0898 17.4512 12.3828 17.5977 12.7539 17.5977C13.1152 17.5977 13.418 17.4219 13.6426 17.0801L19.7656 7.49023C19.8926 7.27539 20.0293 7.02148 20.0293 6.78711C20.0293 6.28906 19.5898 5.95703 19.1211 5.95703C18.8281 5.95703 18.5547 6.13281 18.3496 6.45508Z" fill="black" fill-opacity="0.85"/>
 </g>
</svg>
