<?xml version="1.0" ?><!-- Generator: Adobe Illustrator 25.0.0, SVG Export Plug-In . SVG Version: 6.00 Build 0)  --><svg xmlns="http://www.w3.org/2000/svg" xmlns:xlink="http://www.w3.org/1999/xlink" version="1.1" id="Layer_1" x="0px" y="0px" viewBox="0 0 512 512" style="enable-background:new 0 0 512 512;" xml:space="preserve">
<path d="M68.2,455.9h375.6c45.6,0,68.2-22.6,68.2-67.3V123.4c0-44.7-22.6-67.3-68.2-67.3H68.2C22.8,56.1,0,78.5,0,123.4v265.1  C0,433.5,22.8,455.9,68.2,455.9z M231.9,362.1c-7.6,0-13.5-3-19.3-10.6l-54.3-66.7c-3.5-4.3-5.2-9.3-5.2-14.1c0-10,7.4-18,17.4-18  c6.1,0,11.1,2.2,16.3,9.3l44.3,56.7l92.7-148.7c3.9-6.7,9.6-10,15.4-10c9.6,0,18.5,6.5,18.5,16.5c0,4.8-2.8,10-5.4,14.3L249.9,351.4  C245.6,358.6,239.3,362.1,231.9,362.1z"/>
</svg>