<?xml version="1.0" ?><!-- Generator: Adobe Illustrator 25.0.0, SVG Export Plug-In . SVG Version: 6.00 Build 0)  --><svg xmlns="http://www.w3.org/2000/svg" xmlns:xlink="http://www.w3.org/1999/xlink" version="1.1" id="Layer_1" x="0px" y="0px" viewBox="0 0 512 512" style="enable-background:new 0 0 512 512;" xml:space="preserve">
<path d="M87.3,512h337.3c58.4,0,87.3-28.9,87.3-86.2V86.2C512,28.9,483.1,0,424.7,0H87.3C29.2,0,0,28.6,0,86.2v339.6  C0,483.4,29.2,512,87.3,512z M225,391.6c-9.5,0-17.2-3.9-24.5-13.6l-69.8-85.7c-4.2-5.6-6.7-11.7-6.7-18.1  c0-12.5,9.7-22.8,22.5-22.8c7.8,0,13.9,2.5,20.9,11.7l56.5,72.9l118.8-190.8c5.3-8.3,12.5-12.8,20-12.8c12,0,23.4,8.3,23.4,21.4  c0,6.1-3.3,12.5-7,18.4L248.4,378C242.5,387.1,234.4,391.6,225,391.6z"/>
</svg>