<?xml version="1.0" ?><!-- Generator: Adobe Illustrator 25.0.0, SVG Export Plug-In . SVG Version: 6.00 Build 0)  --><svg xmlns="http://www.w3.org/2000/svg" xmlns:xlink="http://www.w3.org/1999/xlink" version="1.1" id="Layer_1" x="0px" y="0px" viewBox="0 0 512 512" style="enable-background:new 0 0 512 512;" xml:space="preserve">
<path d="M25.3,305.9l180.8,180.8c16.7,16.7,33.3,25.1,49.9,25.3s33.1-8.1,49.7-24.6l181.7-182c16.6-16.4,24.8-32.9,24.6-49.6  c-0.2-16.6-8.6-33.3-25.3-50L306.1,25.3C289.4,8.6,272.8,0.2,256.2,0s-33.1,8.1-49.7,24.6l-182,181.7C8.1,223-0.1,239.6,0,256.1  C0.2,272.6,8.6,289.2,25.3,305.9z" class="hierarchical-0:tertiary SFSymbolsPreview8E8E8E" style="fill: #8E8E8E;"/>
<path d="M230.7,366.2c-3.9,0-7.4-0.8-10.6-2.5c-3.2-1.7-6.2-4.4-9.3-8.4l-56.7-69.5c-1.7-2.3-3-4.6-4-7.1c-1-2.5-1.5-5-1.5-7.6  c0-5.1,1.7-9.5,5.2-13.2c3.5-3.7,7.8-5.5,12.9-5.5c3.3,0,6.3,0.7,8.9,2s5.4,3.9,8.2,7.7l45.8,59.1l96.4-154.9  c4.2-6.9,9.6-10.4,16.3-10.4c4.8,0,9.2,1.5,13.1,4.6c3.9,3.1,5.9,7.3,5.9,12.5c0,2.6-0.6,5.1-1.8,7.7c-1.2,2.6-2.5,5-3.8,7.2  L249.7,355.3c-2.4,3.6-5.2,6.3-8.4,8.1C238.2,365.3,234.6,366.2,230.7,366.2z" class="hierarchical-1:primary SFSymbolsPreview212121" style="fill: #212121;"/>
</svg>