<?xml version="1.0" encoding="UTF-8"?>
<!--Generator: Apple Native CoreSVG 326-->
<!DOCTYPE svg
PUBLIC "-//W3C//DTD SVG 1.1//EN"
       "http://www.w3.org/Graphics/SVG/1.1/DTD/svg11.dtd">
<svg version="1.1" xmlns="http://www.w3.org/2000/svg" xmlns:xlink="http://www.w3.org/1999/xlink" viewBox="0 0 25.8008 30.311">
 <g>
  <rect height="30.311" opacity="0" width="25.8008" x="0" y="0"/>
  <path d="M12.7148 27.8655C19.7363 27.8655 25.4395 22.1721 25.4395 15.1506C25.4395 8.92016 20.9375 3.74438 15.0781 2.6604L15.0781 0.795162C15.0781 0.00414614 14.5312-0.220463 13.8965 0.228756L9.95117 3.00219C9.41406 3.38305 9.42383 3.92016 9.95117 4.28149L13.9062 7.05493C14.5312 7.49438 15.0781 7.27954 15.0781 6.48852L15.0781 4.5061C19.9512 5.58032 23.6133 9.91626 23.6133 15.1506C23.6133 21.176 18.7402 26.0491 12.7148 26.0491C6.68945 26.0491 1.81641 21.176 1.81641 15.1506C1.81641 11.4104 3.71094 8.11938 6.5625 6.18579C7.00195 5.85376 7.13867 5.34594 6.86523 4.89672C6.61133 4.46704 5.99609 4.34008 5.51758 4.69165C2.1875 6.98657 0 10.7854 0 15.1506C0 22.1721 5.69336 27.8655 12.7148 27.8655Z" fill="black" fill-opacity="0.85"/>
  <path d="M11.3477 21.1272C11.709 21.1272 12.002 20.9612 12.2168 20.6291L18.2031 11.2444C18.3301 11.0491 18.457 10.8049 18.457 10.5706C18.457 10.092 18.0273 9.76977 17.5879 9.76977C17.3047 9.76977 17.0312 9.94555 16.8359 10.2581L11.3086 19.0373L8.55469 15.5901C8.30078 15.2581 8.05664 15.1604 7.76367 15.1604C7.29492 15.1604 6.92383 15.5413 6.92383 16.0198C6.92383 16.2541 7.02148 16.4885 7.17773 16.6936L10.4395 20.6291C10.7129 20.9807 10.9863 21.1272 11.3477 21.1272Z" fill="black" fill-opacity="0.85"/>
 </g>
</svg>
