<?xml version="1.0" ?><!-- Generator: Adobe Illustrator 25.0.0, SVG Export Plug-In . SVG Version: 6.00 Build 0)  --><svg xmlns="http://www.w3.org/2000/svg" xmlns:xlink="http://www.w3.org/1999/xlink" version="1.1" id="Layer_1" x="0px" y="0px" viewBox="0 0 512 512" style="enable-background:new 0 0 512 512;" xml:space="preserve">
<path d="M87.3,512h337.3c58.4,0,87.3-28.9,87.3-86.2V86.2C512,28.9,483.1,0,424.7,0H87.3C29.2,0,0,28.6,0,86.2v339.6  C0,483.4,29.2,512,87.3,512z M87.9,467.2c-27.8,0-43.1-14.7-43.1-43.7V88.4c0-28.9,15.3-43.7,43.1-43.7h336.2  c27.5,0,43.1,14.7,43.1,43.7v335.1c0,28.9-15.6,43.7-43.1,43.7H87.9z M225.8,387.7c9.2,0,17-4.5,22.5-13.1l127.1-200  c3.3-5.6,6.7-11.7,6.7-17.8c0-12.5-11.1-20.6-22.5-20.6c-7.2,0-14.2,4.5-19.5,12.5L224.7,334l-54.8-70.9  c-6.7-8.9-12.8-11.1-20.3-11.1c-12.2,0-21.7,9.7-21.7,22c0,6.1,2.5,12,6.4,17.2l67.9,83.4C209.1,383.8,216.6,387.7,225.8,387.7z"/>
</svg>