<?xml version="1.0" ?><!-- Generator: Adobe Illustrator 25.0.0, SVG Export Plug-In . SVG Version: 6.00 Build 0)  --><svg xmlns="http://www.w3.org/2000/svg" xmlns:xlink="http://www.w3.org/1999/xlink" version="1.1" id="Layer_1" x="0px" y="0px" viewBox="0 0 512 512" style="enable-background:new 0 0 512 512;" xml:space="preserve">
<path d="M256,512c4.1,0,10.6-1.5,17-4.9C419.5,430.4,466.7,392,466.7,299.5V105.3c0-26.5-11.3-35-33-44  C403.6,48.9,307.3,13.9,277.4,3.6C270.4,1.3,263.2,0,256,0s-14.4,1.5-21.1,3.6c-30.1,9.8-126.5,45.6-156.6,57.7  c-21.4,8.8-33,17.5-33,44v194.2C45.3,392,95,426,239,507.1C245.7,510.7,251.9,512,256,512z M227.2,372.2c-8.8,0-16-3.3-22.7-12.4  l-64.6-79.3c-3.9-5.2-6.2-11.1-6.2-16.7c0-11.8,9-21.4,20.9-21.4c7.2,0,12.9,2.6,19.3,11.1l52.3,67.5l110-176.7  c4.9-8,11.6-11.8,18.5-11.8c11.1,0,21.6,7.7,21.6,19.6c0,5.9-3.1,11.8-6.4,17l-121,190.8C243.4,368,235.9,372.2,227.2,372.2z"/>
</svg>