<?xml version="1.0" ?><!-- Generator: Adobe Illustrator 25.0.0, SVG Export Plug-In . SVG Version: 6.00 Build 0)  --><svg xmlns="http://www.w3.org/2000/svg" xmlns:xlink="http://www.w3.org/1999/xlink" version="1.1" id="Layer_1" x="0px" y="0px" viewBox="0 0 512 512" style="enable-background:new 0 0 512 512;" xml:space="preserve">
<path d="M265.1,405.4h229.3c4.9,0,9-1.7,12.4-5c3.4-3.3,5.1-7.4,5.1-12.1c0-4.9-1.7-9-5.1-12.3c-3.4-3.3-7.6-5-12.4-5H265.1  c-4.9,0-9,1.7-12.3,5c-3.3,3.3-5,7.5-5,12.3c0,4.7,1.7,8.8,5,12.1C256.2,403.7,260.3,405.4,265.1,405.4z M265.1,141.4h229.3  c4.9,0,9-1.7,12.4-5c3.4-3.3,5.1-7.5,5.1-12.3c0-4.7-1.7-8.8-5.1-12.1c-3.4-3.3-7.6-5-12.4-5H265.1c-4.9,0-9,1.7-12.3,5  c-3.3,3.3-5,7.4-5,12.1c0,4.9,1.7,9,5,12.3C256.2,139.7,260.3,141.4,265.1,141.4z" class="hierarchical-0:secondary SFSymbolsPreview4D4D4D" style="fill: #4D4D4D;"/>
<path d="M98.4,486.7c18,0,34.4-4.5,49.2-13.5c14.8-9,26.8-20.9,35.7-35.9c9-14.9,13.5-31.3,13.5-49.1c0-18.1-4.5-34.6-13.5-49.6  c-9-14.9-20.9-26.8-35.7-35.7c-14.8-8.9-31.2-13.4-49.2-13.4S64,294.1,49.1,303c-14.9,9-26.8,20.9-35.7,35.9  C4.5,353.8,0,370.3,0,388.2c0,17.8,4.5,34.2,13.5,49.1c9,14.9,20.9,26.9,35.9,35.9C64.2,482.2,80.6,486.7,98.4,486.7z M98.4,222.2  c18,0,34.4-4.5,49.2-13.4c14.8-8.9,26.8-20.8,35.7-35.6c9-14.8,13.5-31.2,13.5-49.2s-4.5-34.4-13.5-49.3  c-9-14.9-20.9-26.9-35.7-35.9c-14.8-9-31.2-13.5-49.2-13.5S64,29.8,49.1,38.8c-14.9,9-26.8,20.9-35.7,35.9C4.5,89.6,0,106,0,124  s4.5,34.4,13.5,49.2c9,14.8,20.9,26.7,35.9,35.6C64.2,217.7,80.6,222.2,98.4,222.2z M98.4,453.3c-11.7,0-22.5-3-32.4-8.9  c-9.9-5.9-17.8-13.9-23.8-23.8c-5.9-9.9-8.9-20.7-8.9-32.4c0-11.9,3-22.8,8.9-32.7c5.9-9.9,13.9-17.8,23.8-23.8s20.7-8.9,32.4-8.9  s22.5,3,32.4,8.9s17.8,13.9,23.8,23.8c5.9,9.9,8.9,20.8,8.9,32.7c0,11.7-3,22.5-8.9,32.4c-5.9,9.9-13.9,17.8-23.8,23.8  C121,450.3,110.1,453.3,98.4,453.3z M86.8,176.8c-2.4,0.2-4.5-0.4-6.3-1.6c-1.8-1.2-3.5-2.8-5.1-4.8l-25.6-30.8c-2-2.4-3-5.4-3-8.9  c0-3.3,1.1-6.2,3.3-8.4c2.2-2.3,4.8-3.4,7.9-3.4c2.3,0,4.2,0.5,5.8,1.4c1.6,0.9,3.2,2.4,4.7,4.3l17.8,22.6L127,81.8  c2.7-4.3,6.2-6.4,10.3-6.4c3.2,0,6,1.1,8.3,3.2c2.4,2.1,3.5,4.6,3.5,7.5c0,3-1,6.2-3,9.4l-47.7,74.9  C95.7,174.8,91.8,176.9,86.8,176.8z" class="hierarchical-1:primary SFSymbolsPreview212121" style="fill: #212121;"/>
</svg>