<?xml version="1.0" ?><!-- Generator: Adobe Illustrator 25.0.0, SVG Export Plug-In . SVG Version: 6.00 Build 0)  --><svg xmlns="http://www.w3.org/2000/svg" xmlns:xlink="http://www.w3.org/1999/xlink" version="1.1" id="Layer_1" x="0px" y="0px" viewBox="0 0 512 512" style="enable-background:new 0 0 512 512;" xml:space="preserve">
<path d="M256,512c140,0,256-116.2,256-256C512,116,395.8,0,255.7,0C116,0,0,116,0,256C0,395.8,116.2,512,256,512z M256,469.3  c-118.5,0-213.1-94.9-213.1-213.3S137.3,42.7,255.7,42.7S469.1,137.5,469.3,256S374.5,469.3,256,469.3z M228.4,375.2  c8.3,0,15.3-4,20.3-11.8L363.4,183c2.8-4.8,6-10.5,6-16.1c0-11-10-18.3-20.6-18.3c-6.3,0-12.5,3.8-17.3,11.3L227.4,326.8L177.9,263  c-6-8-11.5-10.3-18.6-10.3c-10.8,0-19.3,8.8-19.3,20.1c0,5.3,2.3,10.8,5.8,15.6l61.2,75C213.3,371.7,220.1,375.2,228.4,375.2z"/>
</svg>