<?xml version="1.0" encoding="UTF-8"?>
<!--Generator: Apple Native CoreSVG 326-->
<!DOCTYPE svg
PUBLIC "-//W3C//DTD SVG 1.1//EN"
       "http://www.w3.org/Graphics/SVG/1.1/DTD/svg11.dtd">
<svg version="1.1" xmlns="http://www.w3.org/2000/svg" xmlns:xlink="http://www.w3.org/1999/xlink" viewBox="0 0 28.3496 25.4395">
 <g>
  <rect height="25.4395" opacity="0" width="28.3496" x="0" y="0"/>
  <path d="M14.4434 20.9375L27.1094 20.9375C27.5977 20.9375 27.9883 20.5664 27.9883 20.0781C27.9883 19.5898 27.5977 19.209 27.1094 19.209L14.4434 19.209C13.9551 19.209 13.5742 19.5898 13.5742 20.0781C13.5742 20.5664 13.9551 20.9375 14.4434 20.9375Z" fill="black" fill-opacity="0.85"/>
  <path d="M5.36133 25.4395C8.28125 25.4395 10.7129 23.0078 10.7129 20.0781C10.7129 17.1387 8.28125 14.7168 5.36133 14.7168C2.41211 14.7168 0 17.1484 0 20.0781C0 23.0078 2.42188 25.4395 5.36133 25.4395ZM5.36133 23.8574C3.30078 23.8574 1.58203 22.1289 1.58203 20.0781C1.58203 18.0273 3.31055 16.2891 5.36133 16.2891C7.40234 16.2891 9.13086 18.0273 9.13086 20.0781C9.13086 22.1289 7.40234 23.8574 5.36133 23.8574Z" fill="black" fill-opacity="0.85"/>
  <path d="M14.4434 6.26953L27.1094 6.26953C27.5977 6.26953 27.9883 5.89844 27.9883 5.40039C27.9883 4.91211 27.5977 4.54102 27.1094 4.54102L14.4434 4.54102C13.9551 4.54102 13.5742 4.91211 13.5742 5.40039C13.5742 5.89844 13.9551 6.26953 14.4434 6.26953Z" fill="black" fill-opacity="0.85"/>
  <path d="M5.36133 10.7617C8.28125 10.7617 10.7129 8.33008 10.7129 5.39062C10.7129 2.46094 8.28125 0.0390625 5.36133 0.0390625C2.41211 0.0390625 0 2.46094 0 5.39062C0 8.32031 2.42188 10.7617 5.36133 10.7617ZM5.36133 9.17969C3.30078 9.17969 1.58203 7.45117 1.58203 5.39062C1.58203 3.33984 3.31055 1.61133 5.36133 1.61133C7.40234 1.61133 9.13086 3.34961 9.13086 5.39062C9.13086 7.45117 7.40234 9.17969 5.36133 9.17969Z" fill="black" fill-opacity="0.85"/>
 </g>
</svg>
