<?xml version="1.0" encoding="UTF-8"?>
<!--Generator: Apple Native CoreSVG 326-->
<!DOCTYPE svg
PUBLIC "-//W3C//DTD SVG 1.1//EN"
       "http://www.w3.org/Graphics/SVG/1.1/DTD/svg11.dtd">
<svg version="1.1" xmlns="http://www.w3.org/2000/svg" xmlns:xlink="http://www.w3.org/1999/xlink" viewBox="0 0 21.3281 26.9238">
 <g>
  <rect height="26.9238" opacity="0" width="21.3281" x="0" y="0"/>
  <path d="M5.54688 17.3438L15.459 17.3438C15.8496 17.3438 16.1426 17.041 16.1426 16.6602C16.1426 16.2793 15.8496 15.9863 15.459 15.9863L5.54688 15.9863C5.14648 15.9863 4.85352 16.2793 4.85352 16.6602C4.85352 17.041 5.14648 17.3438 5.54688 17.3438ZM5.54688 21.1719L10.2832 21.1719C10.6738 21.1719 10.9668 20.8789 10.9668 20.5078C10.9668 20.127 10.6738 19.8242 10.2832 19.8242L5.54688 19.8242C5.14648 19.8242 4.85352 20.127 4.85352 20.5078C4.85352 20.8789 5.14648 21.1719 5.54688 21.1719ZM7.68555 12.8223L8.73047 12.8223C8.82812 12.8223 8.89648 12.8613 8.97461 12.9297L9.7168 13.6621C10.2441 14.209 10.7422 14.1992 11.2695 13.6621L12.0117 12.9297C12.0898 12.8711 12.1484 12.8223 12.2656 12.8223L13.291 12.8223C14.043 12.8223 14.3945 12.4805 14.3945 11.7285L14.3945 10.6836C14.3945 10.5859 14.4141 10.5176 14.4922 10.4395L15.2344 9.69727C15.7617 9.16016 15.7617 8.68164 15.2344 8.14453L14.4922 7.40234C14.4141 7.33398 14.3945 7.25586 14.3945 7.1582L14.3945 6.11328C14.3945 5.36133 14.0527 5.01953 13.291 5.01953L12.2656 5.01953C12.1484 5.01953 12.0898 4.98047 12.0117 4.91211L11.2695 4.17969C10.7324 3.64258 10.2441 3.65234 9.7168 4.17969L8.97461 4.91211C8.89648 4.99023 8.82812 5.01953 8.73047 5.01953L7.68555 5.01953C6.93359 5.01953 6.58203 5.35156 6.58203 6.11328L6.58203 7.1582C6.58203 7.25586 6.5625 7.33398 6.49414 7.40234L5.75195 8.14453C5.21484 8.68164 5.21484 9.16016 5.75195 9.69727L6.49414 10.4395C6.5625 10.5176 6.58203 10.5859 6.58203 10.6836L6.58203 11.7285C6.58203 12.4805 6.93359 12.8223 7.68555 12.8223ZM9.98047 11.3086C9.80469 11.3086 9.6582 11.2207 9.52148 11.0547L8.28125 9.58984C8.20312 9.49219 8.1543 9.36523 8.1543 9.24805C8.1543 8.97461 8.34961 8.75 8.65234 8.75C8.80859 8.75 8.94531 8.82812 9.07227 8.98438L9.96094 10.0684L11.8945 7.01172C11.9922 6.8457 12.1484 6.73828 12.3145 6.73828C12.5684 6.73828 12.8027 6.92383 12.8027 7.19727C12.8027 7.32422 12.7441 7.45117 12.6855 7.54883L10.4492 11.0449C10.332 11.2402 10.166 11.3086 9.98047 11.3086ZM0 23.125C0 25.6445 1.25977 26.9238 3.75977 26.9238L17.207 26.9238C19.707 26.9238 20.9668 25.6445 20.9668 23.125L20.9668 3.80859C20.9668 1.28906 19.707 0.00976562 17.207 0.00976562L3.75977 0.00976562C1.25977 0.00976562 0 1.28906 0 3.80859ZM1.72852 23.0859L1.72852 3.84766C1.72852 2.48047 2.45117 1.73828 3.85742 1.73828L17.1094 1.73828C18.5156 1.73828 19.2383 2.48047 19.2383 3.84766L19.2383 23.0859C19.2383 24.4531 18.5156 25.1953 17.1094 25.1953L3.85742 25.1953C2.45117 25.1953 1.72852 24.4531 1.72852 23.0859Z" fill="black" fill-opacity="0.85"/>
 </g>
</svg>
