<?xml version="1.0" ?><!-- Generator: Adobe Illustrator 25.0.0, SVG Export Plug-In . SVG Version: 6.00 Build 0)  --><svg xmlns="http://www.w3.org/2000/svg" xmlns:xlink="http://www.w3.org/1999/xlink" version="1.1" id="Layer_1" x="0px" y="0px" viewBox="0 0 512 512" style="enable-background:new 0 0 512 512;" xml:space="preserve">
<path d="M193.7,509.9c12.8,0,22.9-5.6,30-16.6L504.6,51.1c5.3-8.6,7.4-15.2,7.4-22c0-16.3-10.7-27-27-27c-11.9,0-18.4,3.9-25.6,15.2  L192.6,442.5L54.1,261.2c-7.4-10.4-14.9-14.6-25.6-14.6C11.6,246.6,0,258.2,0,274.6c0,6.8,3,14.6,8.6,21.7l154.2,196.4  C171.8,504.3,181,509.9,193.7,509.9z"/>
</svg>