<?xml version="1.0" encoding="UTF-8"?>
<!--Generator: Apple Native CoreSVG 326-->
<!DOCTYPE svg
PUBLIC "-//W3C//DTD SVG 1.1//EN"
       "http://www.w3.org/Graphics/SVG/1.1/DTD/svg11.dtd">
<svg version="1.1" xmlns="http://www.w3.org/2000/svg" xmlns:xlink="http://www.w3.org/1999/xlink" viewBox="0 0 22.5488 21.4551">
 <g>
  <rect height="21.4551" opacity="0" width="22.5488" x="0" y="0"/>
  <path d="M11.1328 21.3281C11.4062 21.3281 11.6406 21.2207 11.8262 21.0352L21.8555 11.4062C22.0703 11.2012 22.1875 10.957 22.1875 10.6738C22.1875 10.3906 22.0605 10.1172 21.8555 9.92188L11.8262 0.292969C11.6309 0.107422 11.4062 0 11.1328 0C10.5762 0 10.1562 0.419922 10.1562 0.976562C10.1562 1.23047 10.2637 1.48438 10.4395 1.66992L20.4199 11.2598L20.4199 10.0684L10.4395 19.668C10.2637 19.8438 10.1562 20.0879 10.1562 20.3613C10.1562 20.9082 10.5762 21.3281 11.1328 21.3281Z" fill="black" fill-opacity="0.85"/>
  <path d="M1.04492 2.86133C1.63086 2.86133 2.09961 2.39258 2.09961 1.81641C2.09961 1.23047 1.63086 0.761719 1.04492 0.761719C0.46875 0.761719 0 1.23047 0 1.81641C0 2.39258 0.46875 2.86133 1.04492 2.86133ZM3.26172 5.08789C3.83789 5.08789 4.30664 4.61914 4.30664 4.04297C4.30664 3.45703 3.83789 2.99805 3.26172 2.99805C2.67578 2.99805 2.2168 3.45703 2.2168 4.04297C2.2168 4.61914 2.67578 5.08789 3.26172 5.08789ZM5.47852 7.32422C6.05469 7.32422 6.52344 6.85547 6.52344 6.26953C6.52344 5.69336 6.05469 5.22461 5.47852 5.22461C4.89258 5.22461 4.42383 5.69336 4.42383 6.26953C4.42383 6.85547 4.89258 7.32422 5.47852 7.32422ZM7.68555 9.55078C8.27148 9.55078 8.74023 9.08203 8.74023 8.49609C8.74023 7.91992 8.27148 7.45117 7.68555 7.45117C7.10938 7.45117 6.64062 7.91992 6.64062 8.49609C6.64062 9.08203 7.10938 9.55078 7.68555 9.55078ZM9.90234 11.7773C10.4785 11.7773 10.9473 11.3086 10.9473 10.7324C10.9473 10.1465 10.4785 9.67773 9.90234 9.67773C9.31641 9.67773 8.84766 10.1465 8.84766 10.7324C8.84766 11.3086 9.31641 11.7773 9.90234 11.7773ZM7.68555 14.0039C8.27148 14.0039 8.74023 13.5352 8.74023 12.959C8.74023 12.373 8.27148 11.9141 7.68555 11.9141C7.10938 11.9141 6.64062 12.373 6.64062 12.959C6.64062 13.5352 7.10938 14.0039 7.68555 14.0039ZM5.47852 16.2402C6.05469 16.2402 6.52344 15.7715 6.52344 15.1855C6.52344 14.6094 6.05469 14.1406 5.47852 14.1406C4.89258 14.1406 4.42383 14.6094 4.42383 15.1855C4.42383 15.7715 4.89258 16.2402 5.47852 16.2402ZM3.26172 18.4668C3.83789 18.4668 4.30664 17.998 4.30664 17.4121C4.30664 16.8359 3.83789 16.3672 3.26172 16.3672C2.67578 16.3672 2.2168 16.8359 2.2168 17.4121C2.2168 17.998 2.67578 18.4668 3.26172 18.4668ZM1.04492 20.6934C1.63086 20.6934 2.09961 20.2246 2.09961 19.6484C2.09961 19.0625 1.63086 18.5938 1.04492 18.5938C0.46875 18.5938 0 19.0625 0 19.6484C0 20.2246 0.46875 20.6934 1.04492 20.6934Z" fill="black" fill-opacity="0.85"/>
 </g>
</svg>
