<?xml version="1.0" ?><!-- Generator: Adobe Illustrator 25.0.0, SVG Export Plug-In . SVG Version: 6.00 Build 0)  --><svg xmlns="http://www.w3.org/2000/svg" xmlns:xlink="http://www.w3.org/1999/xlink" version="1.1" id="Layer_1" x="0px" y="0px" viewBox="0 0 512 512" style="enable-background:new 0 0 512 512;" xml:space="preserve">
<path d="M224.8,486.2c4.6,4.6,10.7,7.4,17.8,7.4c14.2,0,24.9-10.7,24.9-24.9c0-6.8-2.7-13.1-7.1-17.8L61.3,256.1L260.4,61.4  c4.4-4.6,7.1-11.2,7.1-17.8c0-14.2-10.7-25.2-24.9-25.2c-7.1,0-13.1,2.7-17.8,7.4L8.2,237.8C3,242.2,0,249,0,256.1  c0,6.8,2.7,13.1,7.9,18.3L224.8,486.2z M469.1,486.2c4.6,4.6,10.9,7.4,17.8,7.4c14.2,0,25.2-10.7,25.2-24.9c0-6.8-3-13.1-7.4-17.8  L305.8,256.1L504.6,61.4c4.4-4.6,7.4-11.2,7.4-17.8c0-14.2-10.9-25.2-25.2-25.2c-6.8,0-12.9,2.7-17.8,7.4l-216.6,212  c-5.2,4.4-8.2,11.2-8.2,18.3c0,6.8,3,13.1,8.2,18.3L469.1,486.2z"/>
</svg>