<?xml version="1.0" encoding="UTF-8"?>
<!--Generator: Apple Native CoreSVG 326-->
<!DOCTYPE svg
PUBLIC "-//W3C//DTD SVG 1.1//EN"
       "http://www.w3.org/Graphics/SVG/1.1/DTD/svg11.dtd">
<svg version="1.1" xmlns="http://www.w3.org/2000/svg" xmlns:xlink="http://www.w3.org/1999/xlink" viewBox="0 0 25.8008 25.459">
 <g>
  <rect height="25.459" opacity="0" width="25.8008" x="0" y="0"/>
  <path d="M25.4395 12.7246C25.4395 19.7266 19.7266 25.4395 12.7148 25.4395C5.71289 25.4395 0 19.7266 0 12.7246C0 5.71289 5.71289 0 12.7148 0C19.7266 0 25.4395 5.71289 25.4395 12.7246ZM11.6309 9.00391L6.39648 14.5117C6.04492 14.8633 6.04492 15.3906 6.35742 15.6934C6.69922 16.0449 7.23633 16.0449 7.55859 15.7031L12.7246 10.2832L17.8906 15.7031C18.2031 16.0449 18.75 16.0449 19.0918 15.6934C19.4043 15.3906 19.3945 14.8633 19.0527 14.5117L13.8184 9.00391C13.1152 8.27148 12.3242 8.27148 11.6309 9.00391Z" fill="black" fill-opacity="0.85"/>
 </g>
</svg>
