<?xml version="1.0" ?><!-- Generator: Adobe Illustrator 25.0.0, SVG Export Plug-In . SVG Version: 6.00 Build 0)  --><svg xmlns="http://www.w3.org/2000/svg" xmlns:xlink="http://www.w3.org/1999/xlink" version="1.1" id="Layer_1" x="0px" y="0px" viewBox="0 0 512 512" style="enable-background:new 0 0 512 512;" xml:space="preserve">
<path d="M256,512c140,0,256-116.2,256-256C512,116,395.8,0,255.7,0C116,0,0,116,0,256C0,395.8,116.2,512,256,512z M256,469.3  c-118.5,0-213.1-94.9-213.1-213.3S137.3,42.7,255.7,42.7S469.1,137.5,469.3,256S374.5,469.3,256,469.3z M305.4,380.2  c7.8-7.5,7.5-19.8,0.3-26.9l-103.2-97.1l103.2-96.9c7.5-7.3,7.3-19.8-0.5-26.9c-7-7-18.6-6.5-26.4,0.8l-104.4,98.4  c-14.3,13.3-14.3,36.1,0,49.2l104.4,98.6C285.9,386.3,298.9,386.8,305.4,380.2z"/>
</svg>