<?xml version="1.0" ?><!-- Generator: Adobe Illustrator 25.0.0, SVG Export Plug-In . SVG Version: 6.00 Build 0)  --><svg xmlns="http://www.w3.org/2000/svg" xmlns:xlink="http://www.w3.org/1999/xlink" version="1.1" id="Layer_1" x="0px" y="0px" viewBox="0 0 512 512" style="enable-background:new 0 0 512 512;" xml:space="preserve">
<path d="M87.3,512h337.3c58.4,0,87.3-28.9,87.3-86.2V86.2C512,28.9,483.1,0,424.7,0H87.3C29.2,0,0,28.6,0,86.2v339.6  C0,483.4,29.2,512,87.3,512z M285.1,347.4c-18.1,19.2-38.9,19.2-57,0L115.7,228.1c-8.9-9.2-8.9-22.2-1.1-30.6  c8.9-9.2,22.8-9.2,30.9-0.6l111.2,117.6l111-117.6c8.1-8.6,21.7-8.3,30.9,0.6c8.1,8.1,7.8,21.4-1.1,30.6L285.1,347.4z"/>
</svg>