<?xml version="1.0" ?><!-- Generator: Adobe Illustrator 25.0.0, SVG Export Plug-In . SVG Version: 6.00 Build 0)  --><svg xmlns="http://www.w3.org/2000/svg" xmlns:xlink="http://www.w3.org/1999/xlink" version="1.1" id="Layer_1" x="0px" y="0px" viewBox="0 0 512 512" style="enable-background:new 0 0 512 512;" xml:space="preserve">
<path d="M238.9,493.6l77-195.8c5.2-13.2,11.5-29.3,11.5-41.9c0-12.6-6.3-28.7-11.5-41.9l-77-195.8C234.6,6.9,224.8,0,214.2,0  c-16.9,0-29.6,12.3-29.6,29c0,8.3,4.9,19.8,7.5,27.3l78.4,199.6l-78.4,199.6c-2.6,7.5-7.5,18.7-7.5,27.3c0,16.9,12.6,29.3,29.6,29.3  C224.8,512,234.6,504.8,238.9,493.6z"/>
</svg>