<?xml version="1.0" encoding="UTF-8"?>
<!--Generator: Apple Native CoreSVG 326-->
<!DOCTYPE svg
PUBLIC "-//W3C//DTD SVG 1.1//EN"
       "http://www.w3.org/Graphics/SVG/1.1/DTD/svg11.dtd">
<svg version="1.1" xmlns="http://www.w3.org/2000/svg" xmlns:xlink="http://www.w3.org/1999/xlink" viewBox="0 0 22.9688 22.6855">
 <g>
  <rect height="22.6855" opacity="0" width="22.9688" x="0" y="0"/>
  <path d="M18.418 20.5762C17.832 20.5762 17.3633 21.0352 17.3633 21.6211C17.3633 22.1973 17.832 22.666 18.418 22.666C18.9941 22.666 19.4629 22.1973 19.4629 21.6211C19.4629 21.0352 18.9941 20.5762 18.418 20.5762ZM15.2734 20.5762C14.6973 20.5762 14.2285 21.0352 14.2285 21.6211C14.2285 22.1973 14.6973 22.666 15.2734 22.666C15.8594 22.666 16.3184 22.1973 16.3184 21.6211C16.3184 21.0352 15.8594 20.5762 15.2734 20.5762ZM12.1289 20.5762C11.5527 20.5762 11.084 21.0352 11.084 21.6211C11.084 22.1973 11.5527 22.666 12.1289 22.666C12.7148 22.666 13.1836 22.1973 13.1836 21.6211C13.1836 21.0352 12.7148 20.5762 12.1289 20.5762ZM8.99414 20.5762C8.4082 20.5762 7.93945 21.0352 7.93945 21.6211C7.93945 22.1973 8.4082 22.666 8.99414 22.666C9.57031 22.666 10.0391 22.1973 10.0391 21.6211C10.0391 21.0352 9.57031 20.5762 8.99414 20.5762ZM21.5625 8.00781C20.9766 8.00781 20.5078 8.4668 20.5078 9.05273C20.5078 9.62891 20.9766 10.0977 21.5625 10.0977C22.1387 10.0977 22.6074 9.62891 22.6074 9.05273C22.6074 8.4668 22.1387 8.00781 21.5625 8.00781ZM21.5625 11.1426C20.9766 11.1426 20.5078 11.6113 20.5078 12.1973C20.5078 12.7734 20.9766 13.2422 21.5625 13.2422C22.1387 13.2422 22.6074 12.7734 22.6074 12.1973C22.6074 11.6113 22.1387 11.1426 21.5625 11.1426ZM21.5625 14.2871C20.9766 14.2871 20.5078 14.7559 20.5078 15.332C20.5078 15.918 20.9766 16.3867 21.5625 16.3867C22.1387 16.3867 22.6074 15.918 22.6074 15.332C22.6074 14.7559 22.1387 14.2871 21.5625 14.2871ZM21.5625 17.4316C20.9766 17.4316 20.5078 17.9004 20.5078 18.4766C20.5078 19.0625 20.9766 19.5215 21.5625 19.5215C22.1387 19.5215 22.6074 19.0625 22.6074 18.4766C22.6074 17.9004 22.1387 17.4316 21.5625 17.4316ZM21.5625 20.5762C20.9766 20.5762 20.5078 21.0352 20.5078 21.6211C20.5078 22.1973 20.9766 22.666 21.5625 22.666C22.1387 22.666 22.6074 22.1973 22.6074 21.6211C22.6074 21.0352 22.1387 20.5762 21.5625 20.5762Z" fill="black" fill-opacity="0.85"/>
  <path d="M10.4785 12.5684C9.89258 12.5684 9.42383 13.0371 9.42383 13.6133C9.42383 14.1992 9.89258 14.668 10.4785 14.668C11.0547 14.668 11.5234 14.1992 11.5234 13.6133C11.5234 13.0371 11.0547 12.5684 10.4785 12.5684ZM7.33398 12.5684C6.74805 12.5684 6.2793 13.0371 6.2793 13.6133C6.2793 14.1992 6.74805 14.668 7.33398 14.668C7.91016 14.668 8.37891 14.1992 8.37891 13.6133C8.37891 13.0371 7.91016 12.5684 7.33398 12.5684ZM4.18945 12.5684C3.61328 12.5684 3.14453 13.0371 3.14453 13.6133C3.14453 14.1992 3.61328 14.668 4.18945 14.668C4.77539 14.668 5.23438 14.1992 5.23438 13.6133C5.23438 13.0371 4.77539 12.5684 4.18945 12.5684ZM1.04492 12.5684C0.46875 12.5684 0 13.0371 0 13.6133C0 14.1992 0.46875 14.668 1.04492 14.668C1.63086 14.668 2.09961 14.1992 2.09961 13.6133C2.09961 13.0371 1.63086 12.5684 1.04492 12.5684ZM13.6133 0C13.0371 0 12.5684 0.46875 12.5684 1.04492C12.5684 1.63086 13.0371 2.09961 13.6133 2.09961C14.1992 2.09961 14.668 1.63086 14.668 1.04492C14.668 0.46875 14.1992 0 13.6133 0ZM13.6133 3.14453C13.0371 3.14453 12.5684 3.61328 12.5684 4.18945C12.5684 4.77539 13.0371 5.24414 13.6133 5.24414C14.1992 5.24414 14.668 4.77539 14.668 4.18945C14.668 3.61328 14.1992 3.14453 13.6133 3.14453ZM13.6133 6.28906C13.0371 6.28906 12.5684 6.74805 12.5684 7.33398C12.5684 7.91016 13.0371 8.37891 13.6133 8.37891C14.1992 8.37891 14.668 7.91016 14.668 7.33398C14.668 6.74805 14.1992 6.28906 13.6133 6.28906ZM13.6133 9.42383C13.0371 9.42383 12.5684 9.89258 12.5684 10.4785C12.5684 11.0547 13.0371 11.5234 13.6133 11.5234C14.1992 11.5234 14.668 11.0547 14.668 10.4785C14.668 9.89258 14.1992 9.42383 13.6133 9.42383ZM13.6133 12.5684C13.0371 12.5684 12.5684 13.0371 12.5684 13.6133C12.5684 14.1992 13.0371 14.668 13.6133 14.668C14.1992 14.668 14.668 14.1992 14.668 13.6133C14.668 13.0371 14.1992 12.5684 13.6133 12.5684Z" fill="black" fill-opacity="0.85"/>
 </g>
</svg>
