<?xml version="1.0" encoding="UTF-8"?>
<!--Generator: Apple Native CoreSVG 326-->
<!DOCTYPE svg
PUBLIC "-//W3C//DTD SVG 1.1//EN"
       "http://www.w3.org/Graphics/SVG/1.1/DTD/svg11.dtd">
<svg version="1.1" xmlns="http://www.w3.org/2000/svg" xmlns:xlink="http://www.w3.org/1999/xlink" viewBox="0 0 22.4219 6.47461">
 <g>
  <rect height="6.47461" opacity="0" width="22.4219" x="0" y="0"/>
  <path d="M0.664062 1.99219L9.48242 5.46875C9.98047 5.66406 10.5566 5.89844 11.0254 5.89844C11.5039 5.89844 12.0898 5.66406 12.5684 5.46875L21.3867 1.99219C21.7969 1.83594 22.0605 1.47461 22.0605 1.09375C22.0605 0.478516 21.6016 0 20.9863 0C20.6738 0 20.2539 0.175781 19.9805 0.283203L10.293 4.11133L11.7578 4.11133L2.07031 0.283203C1.80664 0.175781 1.38672 0 1.07422 0C0.458984 0 0 0.478516 0 1.09375C0 1.47461 0.253906 1.83594 0.664062 1.99219Z" fill="black" fill-opacity="0.85"/>
 </g>
</svg>
