<?xml version="1.0" encoding="UTF-8"?>
<!--Generator: Apple Native CoreSVG 326-->
<!DOCTYPE svg
PUBLIC "-//W3C//DTD SVG 1.1//EN"
       "http://www.w3.org/Graphics/SVG/1.1/DTD/svg11.dtd">
<svg version="1.1" xmlns="http://www.w3.org/2000/svg" xmlns:xlink="http://www.w3.org/1999/xlink" viewBox="0 0 21.6895 12.959">
 <g>
  <rect height="12.959" opacity="0" width="21.6895" x="0" y="0"/>
  <path d="M10.6641 12.959C10.9473 12.959 11.2109 12.832 11.4062 12.6172L21.0352 2.58789C21.2207 2.40234 21.3281 2.16797 21.3281 1.89453C21.3281 1.34766 20.9082 0.927734 20.3516 0.927734C20.0977 0.927734 19.8438 1.02539 19.6582 1.20117L10.0684 11.1816L11.2695 11.1816L1.66016 1.20117C1.48438 1.02539 1.24023 0.927734 0.976562 0.927734C0.419922 0.927734 0 1.34766 0 1.89453C0 2.16797 0.117188 2.40234 0.292969 2.59766L9.92188 12.627C10.1367 12.832 10.3809 12.959 10.6641 12.959Z" fill="black" fill-opacity="0.85"/>
 </g>
</svg>
