<?xml version="1.0" ?><!-- Generator: Adobe Illustrator 25.0.0, SVG Export Plug-In . SVG Version: 6.00 Build 0)  --><svg xmlns="http://www.w3.org/2000/svg" xmlns:xlink="http://www.w3.org/1999/xlink" version="1.1" id="Layer_1" x="0px" y="0px" viewBox="0 0 512 512" style="enable-background:new 0 0 512 512;" xml:space="preserve">
<path d="M256,512c140,0,256-116.2,256-256C512,116,395.8,0,255.7,0C116,0,0,116,0,256C0,395.8,116.2,512,256,512z M256,469.3  c-118.5,0-213.1-94.9-213.1-213.3S137.3,42.7,255.7,42.7S469.1,137.5,469.3,256S374.5,469.3,256,469.3z M280.8,183.5  c-15.8-16.8-33.9-16.8-49.4,0l-98.6,104.4c-7.5,8-7.8,19.6-0.8,26.4c7.5,8.3,19.8,8.3,26.9,0.5L256,211.8l97.1,102.9  c7.3,7.8,19.6,7.8,26.9-0.5c7-6.8,6.8-18.3-0.8-26.4L280.8,183.5z"/>
</svg>