<?xml version="1.0" encoding="UTF-8"?>
<!--Generator: Apple Native CoreSVG 326-->
<!DOCTYPE svg
PUBLIC "-//W3C//DTD SVG 1.1//EN"
       "http://www.w3.org/Graphics/SVG/1.1/DTD/svg11.dtd">
<svg version="1.1" xmlns="http://www.w3.org/2000/svg" xmlns:xlink="http://www.w3.org/1999/xlink" viewBox="0 0 24.1992 23.9941">
 <g>
  <rect height="23.9941" opacity="0" width="24.1992" x="0" y="0"/>
  <path d="M8.90625 1.97266L22.7734 1.97266L21.875 1.07422L21.875 14.9902C21.875 15.5566 22.2852 15.9766 22.8613 15.9766C23.3984 15.9766 23.8379 15.5566 23.8379 14.9902L23.8379 1.08398C23.8379 0.46875 23.3691 0 22.7539 0L8.90625 0C8.33008 0 7.91992 0.419922 7.91992 0.986328C7.91992 1.52344 8.33008 1.97266 8.90625 1.97266Z" fill="black" fill-opacity="0.85"/>
  <path d="M0.986328 9.9707L14.8535 9.9707L13.9551 9.07227L13.9551 22.9883C13.9551 23.5645 14.3652 23.9746 14.9414 23.9746C15.4785 23.9746 15.9082 23.5645 15.9082 22.9883L15.9082 9.08203C15.9082 8.4668 15.4492 8.00781 14.834 8.00781L0.986328 8.00781C0.410156 8.00781 0 8.41797 0 8.99414C0 9.53125 0.410156 9.9707 0.986328 9.9707Z" fill="black" fill-opacity="0.85"/>
 </g>
</svg>
