<?xml version="1.0" encoding="UTF-8"?>
<!--Generator: Apple Native CoreSVG 326-->
<!DOCTYPE svg
PUBLIC "-//W3C//DTD SVG 1.1//EN"
       "http://www.w3.org/Graphics/SVG/1.1/DTD/svg11.dtd">
<svg version="1.1" xmlns="http://www.w3.org/2000/svg" xmlns:xlink="http://www.w3.org/1999/xlink" viewBox="0 0 23.3203 22.959">
 <g>
  <rect height="22.959" opacity="0" width="23.3203" x="0" y="0"/>
  <path d="M22.959 3.76953L22.959 19.1992C22.959 21.6797 21.6797 22.959 19.1504 22.959L3.79883 22.959C1.2793 22.959 0 21.6992 0 19.1992L0 3.76953C0 1.26953 1.2793 0 3.79883 0L19.1504 0C21.6797 0 22.959 1.2793 22.959 3.76953ZM10.3906 7.75391L5.16602 13.2617C4.81445 13.6133 4.81445 14.1406 5.12695 14.4434C5.46875 14.7949 6.00586 14.7949 6.32812 14.4531L11.4941 9.0332L16.6602 14.4531C16.9727 14.7949 17.5195 14.7949 17.8613 14.4434C18.1738 14.1406 18.1641 13.6133 17.8223 13.2617L12.5879 7.75391C11.8848 7.02148 11.0938 7.02148 10.3906 7.75391Z" fill="black" fill-opacity="0.85"/>
 </g>
</svg>
