<?xml version="1.0" encoding="UTF-8"?>
<!--Generator: Apple Native CoreSVG 326-->
<!DOCTYPE svg
PUBLIC "-//W3C//DTD SVG 1.1//EN"
       "http://www.w3.org/Graphics/SVG/1.1/DTD/svg11.dtd">
<svg version="1.1" xmlns="http://www.w3.org/2000/svg" xmlns:xlink="http://www.w3.org/1999/xlink" viewBox="0 0 23.3203 22.959">
 <g>
  <rect height="22.959" opacity="0" width="23.3203" x="0" y="0"/>
  <path d="M22.959 3.76953L22.959 19.1992C22.959 21.6797 21.6797 22.959 19.1504 22.959L3.79883 22.959C1.2793 22.959 0 21.6992 0 19.1992L0 3.76953C0 1.26953 1.2793 0 3.79883 0L19.1504 0C21.6797 0 22.959 1.2793 22.959 3.76953ZM15.9668 13.0176L11.6602 17.2266L7.36328 13.0176C7.1875 12.8418 6.96289 12.793 6.79688 12.793C6.35742 12.793 5.99609 13.1348 5.99609 13.5547C5.99609 13.7988 6.10352 14.0039 6.24023 14.1309L11.0645 18.7891C11.2305 18.9355 11.4453 19.0527 11.6602 19.0527C11.8848 19.0527 12.0996 18.9355 12.2656 18.7891L17.0801 14.1309C17.2168 14.0039 17.3242 13.7988 17.3242 13.5547C17.3242 13.1348 16.9727 12.793 16.543 12.793C16.3477 12.793 16.1426 12.8516 15.9668 13.0176ZM11.0645 4.16016L6.24023 8.81836C6.10352 8.94531 5.99609 9.14062 5.99609 9.38477C5.99609 9.81445 6.35742 10.1562 6.79688 10.1562C6.96289 10.1562 7.1875 10.1074 7.36328 9.93164L11.6602 5.71289L15.9668 9.93164C16.1426 10.0977 16.3477 10.1562 16.543 10.1562C16.9727 10.1562 17.3242 9.81445 17.3242 9.38477C17.3242 9.14062 17.2168 8.94531 17.0801 8.81836L12.2656 4.16016C12.0898 4.00391 11.8848 3.88672 11.6602 3.88672C11.4453 3.88672 11.2402 4.00391 11.0645 4.16016Z" fill="black" fill-opacity="0.85"/>
 </g>
</svg>
