<?xml version="1.0" ?><!-- Generator: Adobe Illustrator 25.0.0, SVG Export Plug-In . SVG Version: 6.00 Build 0)  --><svg xmlns="http://www.w3.org/2000/svg" xmlns:xlink="http://www.w3.org/1999/xlink" version="1.1" id="Layer_1" x="0px" y="0px" viewBox="0 0 512 512" style="enable-background:new 0 0 512 512;" xml:space="preserve">
<path d="M87.3,512h337.3c58.4,0,87.3-28.9,87.3-86.2V86.2C512,28.9,483.1,0,424.7,0H87.3C29.2,0,0,28.6,0,86.2v339.6  C0,483.4,29.2,512,87.3,512z M311.2,393.2c-7.2,7-21.7,6.4-29.5-0.8L166,283.1c-15.9-14.5-15.9-40,0-54.5l115.7-109.3  c8.6-8.1,21.4-8.3,29.2-0.8c8.6,8.1,8.9,22,0.6,29.8L197.2,255.6l114.3,107.9C319.5,371.3,319.8,384.6,311.2,393.2z"/>
</svg>