<?xml version="1.0" encoding="UTF-8"?>
<!--Generator: Apple Native CoreSVG 326-->
<!DOCTYPE svg
PUBLIC "-//W3C//DTD SVG 1.1//EN"
       "http://www.w3.org/Graphics/SVG/1.1/DTD/svg11.dtd">
<svg version="1.1" xmlns="http://www.w3.org/2000/svg" xmlns:xlink="http://www.w3.org/1999/xlink" viewBox="0 0 30.6563 25.459">
 <g>
  <rect height="25.459" opacity="0" width="30.6563" x="0" y="0"/>
  <path d="M15.1475 25.4395C22.169 25.4395 27.8623 19.7461 27.8623 12.7246C27.8623 5.70312 22.169 0 15.1475 0C8.12599 0 2.43263 5.70312 2.43263 12.7246L4.24904 12.7246C4.24904 6.69922 9.12208 1.82617 15.1475 1.82617C21.1729 1.82617 26.0459 6.69922 26.0459 12.7246C26.0459 18.75 21.1729 23.623 15.1475 23.623C11.417 23.623 8.08693 21.7285 6.18263 18.877C5.86037 18.4375 5.35255 18.3008 4.90333 18.5742C4.47365 18.8281 4.34669 19.4238 4.69826 19.9023C6.97365 23.252 10.8213 25.4395 15.1475 25.4395ZM0.801772 10.3613C0.000990731 10.3613-0.223619 10.9082 0.235366 11.543L3.0088 15.4883C3.3799 16.0254 3.91701 16.0156 4.27833 15.4883L7.05177 11.5332C7.49123 10.9082 7.27638 10.3613 6.48537 10.3613Z" fill="black" fill-opacity="0.85"/>
  <path d="M15.1475 18.5254C15.5283 18.5254 15.792 18.252 15.792 17.8613L15.792 13.6816L19.3955 7.92969C19.4834 7.77344 19.5225 7.69531 19.5225 7.50977C19.5225 7.1582 19.2393 6.92383 18.8779 6.92383C18.6338 6.92383 18.4385 7.05078 18.3018 7.29492L15.1768 12.4902L15.1279 12.4902L12.0127 7.29492C11.876 7.05078 11.71 6.91406 11.417 6.91406C11.0557 6.91406 10.7822 7.14844 10.7822 7.50977C10.7822 7.64648 10.8213 7.79297 10.919 7.94922L14.5029 13.6816L14.5029 17.8613C14.5029 18.252 14.7666 18.5254 15.1475 18.5254ZM11.6514 13.418C11.6514 13.6328 11.8272 13.7988 12.042 13.7988L18.3115 13.7988C18.5361 13.7988 18.7022 13.6328 18.7022 13.418C18.7022 13.1934 18.5361 13.0273 18.3115 13.0273L12.042 13.0273C11.8272 13.0273 11.6514 13.1934 11.6514 13.418ZM11.6514 15.5371C11.6514 15.7617 11.8272 15.9277 12.042 15.9277L18.3115 15.9277C18.5361 15.9277 18.7022 15.7617 18.7022 15.5371C18.7022 15.3223 18.5361 15.1562 18.3115 15.1562L12.042 15.1562C11.8272 15.1562 11.6514 15.3223 11.6514 15.5371Z" fill="black" fill-opacity="0.85"/>
 </g>
</svg>
