<?xml version="1.0" encoding="UTF-8"?>
<!--Generator: Apple Native CoreSVG 326-->
<!DOCTYPE svg
PUBLIC "-//W3C//DTD SVG 1.1//EN"
       "http://www.w3.org/Graphics/SVG/1.1/DTD/svg11.dtd">
<svg version="1.1" xmlns="http://www.w3.org/2000/svg" xmlns:xlink="http://www.w3.org/1999/xlink" viewBox="0 0 25.8008 25.459">
 <g>
  <rect height="25.459" opacity="0" width="25.8008" x="0" y="0"/>
  <path d="M12.7148 25.4395C19.7363 25.4395 25.4395 19.7461 25.4395 12.7246C25.4395 5.70312 19.7363 0 12.7148 0C5.69336 0 0 5.70312 0 12.7246C0 19.7461 5.69336 25.4395 12.7148 25.4395ZM12.7148 23.623C6.68945 23.623 1.81641 18.75 1.81641 12.7246C1.81641 6.69922 6.68945 1.82617 12.7148 1.82617C18.7402 1.82617 23.6133 6.69922 23.6133 12.7246C23.6133 18.75 18.7402 23.623 12.7148 23.623Z" fill="black" fill-opacity="0.85"/>
  <path d="M12.7051 18.5254C13.0859 18.5254 13.3496 18.252 13.3496 17.8613L13.3496 13.6816L16.9531 7.92969C17.041 7.77344 17.0801 7.69531 17.0801 7.50977C17.0801 7.1582 16.7969 6.92383 16.4355 6.92383C16.1914 6.92383 15.9961 7.05078 15.8594 7.29492L12.7344 12.4902L12.6855 12.4902L9.57031 7.29492C9.43359 7.05078 9.26758 6.91406 8.97461 6.91406C8.61328 6.91406 8.33984 7.14844 8.33984 7.50977C8.33984 7.64648 8.37891 7.79297 8.47656 7.94922L12.0605 13.6816L12.0605 17.8613C12.0605 18.252 12.3242 18.5254 12.7051 18.5254ZM9.20898 13.418C9.20898 13.6328 9.38477 13.7988 9.59961 13.7988L15.8691 13.7988C16.0938 13.7988 16.2598 13.6328 16.2598 13.418C16.2598 13.1934 16.0938 13.0273 15.8691 13.0273L9.59961 13.0273C9.38477 13.0273 9.20898 13.1934 9.20898 13.418ZM9.20898 15.5371C9.20898 15.7617 9.38477 15.9277 9.59961 15.9277L15.8691 15.9277C16.0938 15.9277 16.2598 15.7617 16.2598 15.5371C16.2598 15.3223 16.0938 15.1562 15.8691 15.1562L9.59961 15.1562C9.38477 15.1562 9.20898 15.3223 9.20898 15.5371Z" fill="black" fill-opacity="0.85"/>
 </g>
</svg>
