<?xml version="1.0" encoding="UTF-8"?>
<!--Generator: Apple Native CoreSVG 326-->
<!DOCTYPE svg
PUBLIC "-//W3C//DTD SVG 1.1//EN"
       "http://www.w3.org/Graphics/SVG/1.1/DTD/svg11.dtd">
<svg version="1.1" xmlns="http://www.w3.org/2000/svg" xmlns:xlink="http://www.w3.org/1999/xlink" viewBox="0 0 27.9395 26.5527">
 <g>
  <rect height="26.5527" opacity="0" width="27.9395" x="0" y="0"/>
  <path d="M1.5332 23.8379L26.0449 23.8379L26.0449 23.0859C26.0449 22.666 25.791 22.4121 25.3613 22.4121L24.5605 22.4121L24.5605 8.33984L25.6934 8.33984C26.2891 8.33984 26.6211 7.91992 26.6211 7.48047C26.6211 7.1582 26.4453 6.875 26.0547 6.65039L15.2637 0.419922C14.7852 0.146484 14.2773 0 13.7891 0C13.3008 0 12.7832 0.146484 12.3145 0.419922L1.52344 6.65039C1.12305 6.875 0.957031 7.1582 0.957031 7.48047C0.957031 7.91992 1.28906 8.33984 1.88477 8.33984L3.02734 8.33984L3.02734 22.4121L2.22656 22.4121C1.78711 22.4121 1.5332 22.666 1.5332 23.0859ZM4.6582 22.4121L4.6582 6.85547L13.2227 2.03125C13.3887 1.93359 13.5938 1.875 13.7891 1.875C13.9746 1.875 14.1699 1.93359 14.3555 2.03125L22.9297 6.85547L22.9297 22.4121ZM0.869141 26.5332L26.709 26.5332C27.1875 26.5332 27.5781 26.1426 27.5781 25.6738C27.5781 25.1953 27.1875 24.8047 26.709 24.8047L0.869141 24.8047C0.390625 24.8047 0 25.1953 0 25.6738C0 26.1426 0.390625 26.5332 0.869141 26.5332Z" fill="black" fill-opacity="0.85"/>
  <path d="M13.7988 19.0137C14.1797 19.0137 14.4434 18.7402 14.4434 18.3398L14.4434 14.1699L18.0371 8.41797C18.1348 8.26172 18.1738 8.17383 18.1738 7.99805C18.1738 7.64648 17.8809 7.41211 17.5293 7.41211C17.2852 7.41211 17.0898 7.53906 16.9434 7.77344L13.8281 12.9785L13.7695 12.9785L10.6641 7.77344C10.5176 7.53906 10.3516 7.40234 10.0586 7.40234C9.69727 7.40234 9.42383 7.63672 9.42383 7.99805C9.42383 8.125 9.46289 8.27148 9.56055 8.4375L13.1543 14.1699L13.1543 18.3398C13.1543 18.7402 13.418 19.0137 13.7988 19.0137ZM10.3027 13.8965C10.3027 14.1113 10.4688 14.2871 10.6934 14.2871L16.9629 14.2871C17.1777 14.2871 17.3535 14.1113 17.3535 13.8965C17.3535 13.6816 17.1777 13.5059 16.9629 13.5059L10.6934 13.5059C10.4688 13.5059 10.3027 13.6816 10.3027 13.8965ZM10.3027 16.0254C10.3027 16.2402 10.4688 16.416 10.6934 16.416L16.9629 16.416C17.1777 16.416 17.3535 16.2402 17.3535 16.0254C17.3535 15.8105 17.1777 15.6348 16.9629 15.6348L10.6934 15.6348C10.4688 15.6348 10.3027 15.8105 10.3027 16.0254Z" fill="black" fill-opacity="0.85"/>
 </g>
</svg>
