<?xml version="1.0" encoding="UTF-8"?>
<!--Generator: Apple Native CoreSVG 326-->
<!DOCTYPE svg
PUBLIC "-//W3C//DTD SVG 1.1//EN"
       "http://www.w3.org/Graphics/SVG/1.1/DTD/svg11.dtd">
<svg version="1.1" xmlns="http://www.w3.org/2000/svg" xmlns:xlink="http://www.w3.org/1999/xlink" viewBox="0 0 25.8008 25.459">
 <g>
  <rect height="25.459" opacity="0" width="25.8008" x="0" y="0"/>
  <path d="M17.9199 16.2012L17.9199 17.9297ZM19.6484 5.80078L19.6484 7.5293L21.3867 7.5293L21.3867 5.80078ZM17.9199 7.5293L17.9199 9.26758L19.6484 9.26758L19.6484 7.5293ZM16.1816 9.26758L16.1816 10.9961L17.9199 10.9961L17.9199 9.26758ZM14.4531 10.9961L14.4531 12.7344L16.1816 12.7344L16.1816 10.9961ZM12.7246 12.7344L12.7246 14.4727L14.4531 14.4727L14.4531 12.7344ZM10.9863 14.4727L10.9863 16.2012L12.7246 16.2012L12.7246 14.4727ZM9.24805 16.2012L9.24805 17.9297L10.9863 17.9297L10.9863 16.2012ZM7.51953 17.9297L7.51953 19.668L9.24805 19.668L9.24805 17.9297ZM5.78125 19.668L5.78125 21.4062L7.51953 21.4062L7.51953 19.668ZM7.51953 22.8906L7.82227 23.1348L9.24805 23.1348L9.24805 21.4062L7.51953 21.4062ZM9.24805 19.668L9.24805 21.4062L10.9863 21.4062L10.9863 19.668ZM10.9863 17.9297L10.9863 19.668L12.7246 19.668L12.7246 17.9297ZM12.7246 16.2012L12.7246 17.9297L14.4531 17.9297L14.4531 16.2012ZM14.4531 14.4727L14.4531 16.2012L16.1816 16.2012L16.1816 14.4727ZM16.1816 12.7344L16.1816 14.4727L17.9199 14.4727L17.9199 12.7344ZM17.9199 10.9961L17.9199 12.7344L19.6484 12.7344L19.6484 10.9961ZM19.6484 9.26758L19.6484 10.9961L21.3867 10.9961L21.3867 9.26758ZM23.1152 9.19922L23.1152 10.9961L24.4043 10.9961L24.4043 9.19922ZM21.3867 10.9961L21.3867 12.7344L23.1152 12.7344L23.1152 10.9961ZM19.6484 12.7344L19.6484 14.4727L21.3867 14.4727L21.3867 12.7344ZM17.9199 14.4727L17.9199 16.2012L19.6484 16.2012L19.6484 14.4727ZM16.1816 16.2012L16.1816 17.9297L17.9199 17.9297L17.9199 16.2012ZM14.4531 17.9297L14.4531 19.668L16.1816 19.668L16.1816 17.9297ZM12.7246 19.668L12.7246 21.4062L14.4531 21.4062L14.4531 19.668ZM10.9863 21.4062L10.9863 23.1348L12.7246 23.1348L12.7246 21.4062ZM9.18945 23.1348L9.18945 24.4043L10.9863 24.4043L10.9863 23.1348ZM12.7246 23.1348L12.7246 24.5312L14.4531 24.5312L14.4531 23.1348ZM14.4531 21.4062L14.4531 23.1348L16.1816 23.1348L16.1816 21.4062ZM16.1816 19.668L16.1816 21.4062L17.9199 21.4062L17.9199 19.668ZM17.9199 17.9297L17.9199 19.668L19.6484 19.668L19.6484 17.9297ZM19.6484 16.2012L19.6484 17.9297L21.3867 17.9297L21.3867 16.2012ZM21.3867 14.4727L21.3867 16.2012L23.1152 16.2012L23.1152 14.4727ZM23.1152 12.7344L23.1152 14.4727L24.5312 14.4727L24.5312 12.7344ZM21.3867 17.9297L21.3867 19.668L22.5684 19.668L23.0273 17.9297ZM19.6484 19.668L19.6484 21.4062L20.9082 21.4062L21.3867 20.957L21.3867 19.668ZM17.9199 21.4062L17.9199 23.0469L19.6484 22.5879L19.6484 21.4062ZM23.1152 7.97852L22.7051 7.5293L21.3867 7.5293L21.3867 9.26758L23.1152 9.26758ZM12.7148 25.4395C19.7363 25.4395 25.4395 19.7461 25.4395 12.7246C25.4395 5.70312 19.7363 0 12.7148 0C5.69336 0 0 5.70312 0 12.7246C0 19.7461 5.69336 25.4395 12.7148 25.4395ZM12.7148 23.623C6.68945 23.623 1.81641 18.75 1.81641 12.7246C1.81641 6.69922 6.68945 1.82617 12.7148 1.82617C18.7402 1.82617 23.6133 6.69922 23.6133 12.7246C23.6133 18.75 18.7402 23.623 12.7148 23.623Z" fill="black" fill-opacity="0.85"/>
 </g>
</svg>
