<?xml version="1.0" encoding="UTF-8"?>
<!--Generator: Apple Native CoreSVG 326-->
<!DOCTYPE svg
PUBLIC "-//W3C//DTD SVG 1.1//EN"
       "http://www.w3.org/Graphics/SVG/1.1/DTD/svg11.dtd">
<svg version="1.1" xmlns="http://www.w3.org/2000/svg" xmlns:xlink="http://www.w3.org/1999/xlink" viewBox="0 0 29.9512 22.9785">
 <g>
  <rect height="22.9785" opacity="0" width="29.9512" x="0" y="0"/>
  <path d="M29.5898 3.78906L29.5898 19.2188C29.5898 21.709 28.3105 22.9785 25.7812 22.9785L3.79883 22.9785C1.2793 22.9785 0 21.7188 0 19.2188L0 3.78906C0 1.28906 1.2793 0.0292969 3.79883 0.0292969L25.7812 0.0292969C28.3105 0.0292969 29.5898 1.29883 29.5898 3.78906ZM8.37891 11.4844C8.37891 15.0391 11.2598 17.9004 14.7949 17.9004C18.3203 17.9004 21.2109 15.0391 21.2109 11.4844C21.2109 7.95898 18.3203 5.08789 14.7949 5.08789C11.2598 5.08789 8.37891 7.95898 8.37891 11.4844Z" fill="black" fill-opacity="0.85"/>
 </g>
</svg>
