<?xml version="1.0" encoding="UTF-8"?>
<!--Generator: Apple Native CoreSVG 326-->
<!DOCTYPE svg
PUBLIC "-//W3C//DTD SVG 1.1//EN"
       "http://www.w3.org/Graphics/SVG/1.1/DTD/svg11.dtd">
<svg version="1.1" xmlns="http://www.w3.org/2000/svg" xmlns:xlink="http://www.w3.org/1999/xlink" viewBox="0 0 26.8945 24.6387">
 <g>
  <rect height="24.6387" opacity="0" width="26.8945" x="0" y="0"/>
  <path d="M8.70117 8.28125C10.9863 8.28125 12.832 6.42578 12.832 4.14062C12.832 1.85547 10.9863 0 8.70117 0C6.40625 0 4.56055 1.85547 4.56055 4.14062C4.56055 6.42578 6.40625 8.28125 8.70117 8.28125ZM8.70117 6.55273C7.37305 6.55273 6.28906 5.46875 6.28906 4.14062C6.28906 2.8125 7.37305 1.73828 8.70117 1.73828C10.0195 1.73828 11.1035 2.8125 11.1035 4.14062C11.1035 5.46875 10.0195 6.55273 8.70117 6.55273ZM17.832 8.28125C20.127 8.28125 21.9727 6.42578 21.9727 4.14062C21.9727 1.85547 20.127 0 17.832 0C15.5469 0 13.7012 1.85547 13.7012 4.14062C13.7012 6.42578 15.5469 8.28125 17.832 8.28125ZM17.832 6.55273C16.5137 6.55273 15.4297 5.46875 15.4297 4.14062C15.4297 2.8125 16.5137 1.73828 17.832 1.73828C19.1602 1.73828 20.2441 2.8125 20.2441 4.14062C20.2441 5.46875 19.1602 6.55273 17.832 6.55273ZM4.14062 16.4453C6.42578 16.4453 8.27148 14.5996 8.27148 12.3145C8.27148 10.0195 6.42578 8.17383 4.14062 8.17383C1.8457 8.17383 0 10.0195 0 12.3145C0 14.5996 1.8457 16.4453 4.14062 16.4453ZM4.14062 14.7168C2.8125 14.7168 1.72852 13.6328 1.72852 12.3145C1.72852 10.9863 2.8125 9.90234 4.14062 9.90234C5.45898 9.90234 6.54297 10.9863 6.54297 12.3145C6.54297 13.6328 5.45898 14.7168 4.14062 14.7168ZM22.3926 16.4453C24.6875 16.4453 26.5332 14.5996 26.5332 12.3145C26.5332 10.0195 24.6875 8.17383 22.3926 8.17383C20.1074 8.17383 18.2617 10.0195 18.2617 12.3145C18.2617 14.5996 20.1074 16.4453 22.3926 16.4453ZM22.3926 14.7168C21.0742 14.7168 19.9902 13.6328 19.9902 12.3145C19.9902 10.9863 21.0742 9.90234 22.3926 9.90234C23.7207 9.90234 24.8047 10.9863 24.8047 12.3145C24.8047 13.6328 23.7207 14.7168 22.3926 14.7168ZM8.70117 24.6289C10.9863 24.6289 12.832 22.7832 12.832 20.4883C12.832 18.2031 10.9863 16.3574 8.70117 16.3574C6.40625 16.3574 4.56055 18.2031 4.56055 20.4883C4.56055 22.7832 6.40625 24.6289 8.70117 24.6289ZM8.70117 22.9004C7.37305 22.9004 6.28906 21.8164 6.28906 20.4883C6.28906 19.1699 7.37305 18.0859 8.70117 18.0859C10.0195 18.0859 11.1035 19.1699 11.1035 20.4883C11.1035 21.8164 10.0195 22.9004 8.70117 22.9004ZM17.832 24.6289C20.127 24.6289 21.9727 22.7832 21.9727 20.4883C21.9727 18.2031 20.127 16.3574 17.832 16.3574C15.5469 16.3574 13.7012 18.2031 13.7012 20.4883C13.7012 22.7832 15.5469 24.6289 17.832 24.6289ZM17.832 22.9004C16.5137 22.9004 15.4297 21.8164 15.4297 20.4883C15.4297 19.1699 16.5137 18.0859 17.832 18.0859C19.1602 18.0859 20.2441 19.1699 20.2441 20.4883C20.2441 21.8164 19.1602 22.9004 17.832 22.9004Z" fill="black" fill-opacity="0.85"/>
 </g>
</svg>
