<?xml version="1.0" encoding="UTF-8"?>
<!--Generator: Apple Native CoreSVG 326-->
<!DOCTYPE svg
PUBLIC "-//W3C//DTD SVG 1.1//EN"
       "http://www.w3.org/Graphics/SVG/1.1/DTD/svg11.dtd">
<svg version="1.1" xmlns="http://www.w3.org/2000/svg" xmlns:xlink="http://www.w3.org/1999/xlink" viewBox="0 0 32.6758 14.4043">
 <g>
  <rect height="14.4043" opacity="0" width="32.6758" x="0" y="0"/>
  <path d="M25.127 14.3848C29.1016 14.3848 32.3145 11.1621 32.3145 7.19727C32.3145 3.22266 29.1016 0 25.127 0C21.1523 0 17.9395 3.22266 17.9395 7.19727C17.9395 11.1621 21.1523 14.3848 25.127 14.3848ZM25.127 12.6562C22.0996 12.6562 19.668 10.2148 19.668 7.19727C19.668 4.16992 22.0996 1.72852 25.127 1.72852C28.1543 1.72852 30.5859 4.16992 30.5859 7.19727C30.5859 10.2148 28.1543 12.6562 25.127 12.6562Z" fill="black" fill-opacity="0.85"/>
  <path d="M7.1875 14.3848C11.1621 14.3848 14.3848 11.1621 14.3848 7.19727C14.3848 3.22266 11.1621 0 7.1875 0C3.22266 0 0 3.22266 0 7.19727C0 11.1621 3.22266 14.3848 7.1875 14.3848Z" fill="black" fill-opacity="0.85"/>
 </g>
</svg>
