<?xml version="1.0" ?><!-- Generator: Adobe Illustrator 25.0.0, SVG Export Plug-In . SVG Version: 6.00 Build 0)  --><svg xmlns="http://www.w3.org/2000/svg" xmlns:xlink="http://www.w3.org/1999/xlink" version="1.1" id="Layer_1" x="0px" y="0px" viewBox="0 0 512 512" style="enable-background:new 0 0 512 512;" xml:space="preserve">
<path d="M87.3,512h337.3c29.1,0,50.9-7.2,65.5-21.6c14.6-14.4,21.8-35.9,21.8-64.7V86.2c0-28.7-7.3-50.3-21.8-64.7  C475.6,7.2,453.8,0,424.7,0H87.3C58.2,0,36.4,7.2,21.8,21.6C7.3,35.9,0,57.5,0,86.2v339.6c0,28.7,7.3,50.3,21.8,64.7  C36.4,504.8,58.2,512,87.3,512z" class="hierarchical-0:tertiary SFSymbolsPreview8E8E8E" style="fill: #8E8E8E;"/>
<path d="M257,394.4c-18.7,0-36.4-3.7-53.1-11c-16.7-7.3-31.4-17.4-44.1-30.2c-12.7-12.8-22.7-27.5-30-44.2  c-7.3-16.7-11-34.4-11-53.1c0-18.9,3.6-36.7,10.8-53.4c7.2-16.7,17.2-31.4,30-44.1c12.8-12.7,27.5-22.7,44.2-30  c16.7-7.3,34.4-11,53.1-11c18.9,0,36.7,3.7,53.3,11c16.6,7.3,31.3,17.4,44.1,30.2c12.8,12.8,22.9,27.5,30.2,44.2  c7.3,16.7,11,34.4,11,53.1c0,18.9-3.6,36.7-10.8,53.4c-7.2,16.7-17.2,31.4-30,44.1c-12.8,12.7-27.5,22.7-44.2,30  C293.7,390.7,275.9,394.4,257,394.4z" class="hierarchical-1:primary SFSymbolsPreview212121" style="fill: #212121;"/>
</svg>