<?xml version="1.0" ?><!-- Generator: Adobe Illustrator 25.0.0, SVG Export Plug-In . SVG Version: 6.00 Build 0)  --><svg xmlns="http://www.w3.org/2000/svg" xmlns:xlink="http://www.w3.org/1999/xlink" version="1.1" id="Layer_1" x="0px" y="0px" viewBox="0 0 512 512" style="enable-background:new 0 0 512 512;" xml:space="preserve">
<path d="M113.7,369.7c15.6,0,30.3-3,44-8.9c13.7-5.9,25.7-14.1,36.1-24.5c10.4-10.4,18.6-22.5,24.5-36.2c5.9-13.7,8.9-28.4,8.9-44.1  s-3-30.3-8.9-44c-5.9-13.7-14.1-25.8-24.5-36.2c-10.4-10.5-22.5-18.7-36.1-24.6c-13.7-5.9-28.3-8.9-44-8.9c-15.8,0-30.5,3-44.2,8.9  c-13.7,5.9-25.8,14.1-36.2,24.6C22.8,186.3,14.7,198.4,8.8,212C2.9,225.7,0,240.4,0,256s2.9,30.3,8.8,44.1  c5.9,13.7,14,25.8,24.4,36.2c10.4,10.4,22.5,18.6,36.2,24.5C83.2,366.7,97.9,369.7,113.7,369.7z M398.5,369.7c15.6,0,30.3-3,44-8.9  c13.7-5.9,25.8-14.1,36.2-24.5c10.5-10.4,18.7-22.5,24.5-36.2c5.9-13.7,8.8-28.4,8.8-44.1s-2.9-30.3-8.8-44  c-5.9-13.7-14-25.8-24.5-36.2c-10.5-10.5-22.6-18.7-36.2-24.6s-28.3-8.9-44-8.9c-15.8,0-30.5,3-44.2,8.9  c-13.7,5.9-25.8,14.1-36.2,24.6c-10.4,10.5-18.6,22.6-24.4,36.2c-5.9,13.7-8.8,28.3-8.8,44s2.9,30.3,8.8,44.1  c5.9,13.7,14,25.8,24.4,36.2c10.4,10.4,22.5,18.6,36.2,24.5C368,366.7,382.7,369.7,398.5,369.7z"/>
</svg>