<?xml version="1.0" ?><!-- Generator: Adobe Illustrator 25.0.0, SVG Export Plug-In . SVG Version: 6.00 Build 0)  --><svg xmlns="http://www.w3.org/2000/svg" xmlns:xlink="http://www.w3.org/1999/xlink" version="1.1" id="Layer_1" x="0px" y="0px" viewBox="0 0 512 512" style="enable-background:new 0 0 512 512;" xml:space="preserve">
<path d="M256.1,188.1c51.4,0,93.9-42.5,93.9-94.2C350,42.3,307.5,0,256.1,0c-52,0-94.4,42.3-94.4,93.9  C161.7,145.5,204.1,188.1,256.1,188.1z M256.1,154c-34.1,0-60.5-26.3-60.5-60c0-33.7,26.3-60.9,60.5-60.9c33.7,0,60,27.2,60,60.9  C316.1,127.6,289.8,154,256.1,154z M99.1,350c51.6,0,94.2-42.5,94.2-94.2c0-51.4-42.5-93.9-94.2-93.9C47.1,162,5,204.5,5,255.9  C5,307.5,47.1,350,99.1,350z M413.1,350c51.4,0,93.9-42.5,93.9-94.2c0-51.4-42.5-93.9-93.9-93.9c-52,0-94.4,42.5-94.4,93.9  C318.7,307.5,361.1,350,413.1,350z M99.1,316.1c-33.9,0-60.5-26.3-60.5-60.2c0-33.7,26.6-60.9,60.5-60.9c33.7,0,60.2,27.2,60.2,60.9  C159.4,289.8,132.8,316.1,99.1,316.1z M413.1,316.1c-34.1,0-60.5-26.3-60.5-60.2c0-33.7,26.3-60.9,60.5-60.9c33.7,0,60,27.2,60,60.9  C473.1,289.8,446.8,316.1,413.1,316.1z M256.1,512c51.4,0,93.9-42.5,93.9-94.2c0-51.4-42.5-93.9-93.9-93.9  c-52,0-94.4,42.5-94.4,93.9C161.7,469.5,204.1,512,256.1,512z M256.1,478.1c-34.1,0-60.5-26.3-60.5-60.2c0-33.5,26.3-60.9,60.5-60.9  c33.7,0,60,27.4,60,60.9C316.1,451.8,289.8,478.1,256.1,478.1z"/>
</svg>