<?xml version="1.0" ?><!-- Generator: Adobe Illustrator 25.0.0, SVG Export Plug-In . SVG Version: 6.00 Build 0)  --><svg xmlns="http://www.w3.org/2000/svg" xmlns:xlink="http://www.w3.org/1999/xlink" version="1.1" id="Layer_1" x="0px" y="0px" viewBox="0 0 512 512" style="enable-background:new 0 0 512 512;" xml:space="preserve">
<path d="M255.2,511.4c6.4,0,11.8-2.3,16.2-6.8c4.4-4.5,6.7-9.9,6.7-16.1c0-6.2-2.2-11.5-6.7-15.9c-4.4-4.4-9.8-6.7-16.2-6.7  c-6,0-11.3,2.2-15.7,6.7c-4.4,4.4-6.7,9.7-6.7,15.9c0,6.2,2.2,11.5,6.7,16.1C244,509.1,249.2,511.4,255.2,511.4z M327.5,499.8  c6.2,0,11.5-2.2,16.1-6.7c4.5-4.4,6.8-9.8,6.8-16.2c0-6.2-2.3-11.5-6.8-15.9c-4.5-4.4-9.9-6.7-16.1-6.7c-6.2,0-11.5,2.3-15.9,6.8  c-4.4,4.5-6.7,9.8-6.7,15.8c0,6.4,2.2,11.8,6.7,16.2C316,497.6,321.3,499.8,327.5,499.8z M392.5,466.7c6.2,0,11.5-2.3,16.1-6.8  c4.5-4.5,6.8-9.9,6.8-16.1c0-6.2-2.3-11.5-6.8-15.9c-4.5-4.4-9.9-6.7-16.1-6.7c-6.2,0-11.5,2.2-15.9,6.7c-4.4,4.4-6.7,9.7-6.7,15.9  s2.2,11.5,6.7,16.1C381,464.4,386.3,466.7,392.5,466.7z M444,415c6.4,0,11.8-2.2,16.2-6.7c4.4-4.4,6.7-9.8,6.7-16.2  c0-6-2.2-11.3-6.7-15.7c-4.4-4.4-9.8-6.7-16.2-6.7c-6.2,0-11.5,2.2-15.9,6.7c-4.4,4.4-6.7,9.7-6.7,15.7c0,6.4,2.2,11.8,6.7,16.2  C432.5,412.8,437.8,415,444,415z M476.9,350.7c6.4,0,11.8-2.3,16.2-6.8c4.4-4.5,6.7-9.9,6.7-16.1c0-6.2-2.2-11.5-6.7-15.9  c-4.4-4.4-9.8-6.7-16.2-6.7c-6.2,0-11.5,2.2-15.9,6.7c-4.4,4.4-6.7,9.7-6.7,15.9c0,6.2,2.2,11.5,6.7,16.1  C465.4,348.5,470.7,350.7,476.9,350.7z M489.2,278.7c6.4,0,11.8-2.3,16.2-6.8c4.4-4.5,6.7-9.9,6.7-16.1s-2.2-11.5-6.7-15.9  c-4.4-4.4-9.8-6.7-16.2-6.7c-6,0-11.3,2.2-15.7,6.7c-4.4,4.4-6.6,9.7-6.6,15.9c0,6.2,2.2,11.5,6.5,16.1  C477.7,276.5,483,278.7,489.2,278.7z M476.9,206.7c6.4,0,11.8-2.2,16.2-6.7c4.4-4.4,6.7-9.7,6.7-15.9c0-6.2-2.2-11.5-6.7-16.1  c-4.4-4.5-9.8-6.8-16.2-6.8c-6.2,0-11.5,2.3-15.9,6.8c-4.4,4.5-6.7,9.9-6.7,16.1c0,6.2,2.2,11.5,6.7,15.9  C465.4,204.5,470.7,206.7,476.9,206.7z M444,142.2c6.4,0,11.8-2.2,16.2-6.7c4.4-4.4,6.7-9.7,6.7-15.7c0-6.4-2.2-11.8-6.7-16.2  c-4.4-4.4-9.8-6.7-16.2-6.7c-6.2,0-11.5,2.2-15.9,6.7c-4.4,4.4-6.7,9.8-6.7,16.2c0,6,2.2,11.3,6.7,15.7  C432.5,140,437.8,142.2,444,142.2z M392.5,90.7c6.2,0,11.5-2.2,16.1-6.7c4.5-4.4,6.8-9.7,6.8-15.9c0-6.2-2.3-11.5-6.8-16.1  c-4.5-4.5-9.9-6.8-16.1-6.8c-6.2,0-11.5,2.3-15.9,6.8c-4.4,4.5-6.7,9.9-6.7,16.1c0,6.2,2.2,11.5,6.7,15.9  C381,88.5,386.3,90.7,392.5,90.7z M327.5,57.6c6.2,0,11.5-2.2,16.1-6.7c4.5-4.4,6.8-9.7,6.8-15.9c0-6.4-2.3-11.8-6.8-16.2  c-4.5-4.4-9.9-6.7-16.1-6.7c-6.2,0-11.5,2.2-15.9,6.7c-4.4,4.4-6.7,9.8-6.7,16.2c0,6,2.2,11.3,6.7,15.8  C316,55.3,321.3,57.6,327.5,57.6z M255.2,46.1c6.4,0,11.8-2.2,16.2-6.7c4.4-4.4,6.7-9.7,6.7-15.9c0-6.2-2.2-11.5-6.7-16.1  c-4.4-4.5-9.8-6.8-16.2-6.8c-6,0-11.3,2.3-15.7,6.8c-4.4,4.5-6.7,9.9-6.7,16.1c0,6.2,2.2,11.5,6.7,15.9  C244,43.8,249.2,46.1,255.2,46.1z M183.7,57.6c6,0,11.3-2.3,15.8-6.8c4.5-4.5,6.8-9.8,6.8-15.8c0-6.4-2.2-11.8-6.7-16.2  c-4.4-4.4-9.7-6.7-15.9-6.7c-6.4,0-11.8,2.2-16.2,6.7c-4.4,4.4-6.7,9.8-6.7,16.2c0,6.2,2.2,11.5,6.7,15.9  C172,55.4,177.4,57.6,183.7,57.6z M119,90.7c6.2,0,11.5-2.2,15.9-6.7c4.4-4.4,6.7-9.7,6.7-15.9c0-6.2-2.2-11.5-6.7-16.1  c-4.4-4.5-9.7-6.8-15.9-6.8c-6.2,0-11.5,2.3-16.1,6.8c-4.5,4.5-6.8,9.9-6.8,16.1c0,6.2,2.3,11.5,6.8,15.9  C107.4,88.5,112.8,90.7,119,90.7z M67.8,142.2c6,0,11.3-2.2,15.8-6.7c4.5-4.4,6.8-9.7,6.8-15.7c0-6.4-2.2-11.8-6.7-16.2  C79.3,99.2,74,97,67.8,97c-6.4,0-11.8,2.2-16.2,6.7c-4.4,4.4-6.7,9.8-6.7,16.2c0,6,2.2,11.3,6.7,15.7C56,140,61.4,142.2,67.8,142.2z   M34.9,206.7c6,0,11.3-2.2,15.8-6.7c4.5-4.4,6.8-9.7,6.8-15.9c0-6.2-2.2-11.5-6.7-16.1c-4.4-4.5-9.7-6.8-15.9-6.8  c-6.4,0-11.8,2.3-16.2,6.8c-4.4,4.5-6.7,9.9-6.7,16.1c0,6.2,2.2,11.5,6.7,15.9C23.1,204.5,28.5,206.7,34.9,206.7z M22.8,278.7  c6.2,0,11.5-2.3,15.8-6.8c4.4-4.5,6.5-9.9,6.5-16.1s-2.2-11.5-6.7-15.9c-4.4-4.4-9.7-6.7-15.7-6.7c-6.2,0-11.5,2.2-16.1,6.7  c-4.5,4.4-6.8,9.7-6.8,15.9s2.3,11.5,6.8,16.1C11.3,276.5,16.6,278.7,22.8,278.7z M34.9,350.7c6.2,0,11.5-2.3,15.9-6.8  c4.4-4.5,6.7-9.9,6.7-16.1c0-6.2-2.3-11.5-6.8-15.9c-4.5-4.4-9.8-6.7-15.8-6.7c-6.4,0-11.8,2.2-16.2,6.7c-4.4,4.4-6.7,9.7-6.7,15.9  c0,6.2,2.2,11.5,6.7,16.1C23.1,348.5,28.5,350.7,34.9,350.7z M67.8,415c6.2,0,11.5-2.2,15.9-6.7c4.4-4.4,6.7-9.8,6.7-16.2  c0-6-2.3-11.3-6.8-15.7c-4.5-4.4-9.8-6.7-15.8-6.7c-6.4,0-11.8,2.2-16.2,6.7c-4.4,4.4-6.7,9.7-6.7,15.7c0,6.4,2.2,11.8,6.7,16.2  C56,412.8,61.4,415,67.8,415z M119,466.7c6.2,0,11.5-2.3,15.9-6.8c4.4-4.5,6.7-9.9,6.7-16.1s-2.2-11.5-6.7-15.9  c-4.4-4.4-9.7-6.7-15.9-6.7c-6.2,0-11.5,2.2-16.1,6.7c-4.5,4.4-6.8,9.7-6.8,15.9s2.3,11.5,6.8,16.1  C107.4,464.4,112.8,466.7,119,466.7z M183.7,499.8c6.2,0,11.5-2.2,15.9-6.7c4.4-4.4,6.7-9.8,6.7-16.2c0-6-2.3-11.3-6.8-15.8  c-4.5-4.5-9.8-6.8-15.8-6.8c-6.4,0-11.8,2.2-16.2,6.7c-4.4,4.4-6.7,9.7-6.7,15.9c0,6.4,2.2,11.8,6.7,16.2  C172,497.6,177.4,499.8,183.7,499.8z"/>
</svg>