<?xml version="1.0" ?><!-- Generator: Adobe Illustrator 25.0.0, SVG Export Plug-In . SVG Version: 6.00 Build 0)  --><svg xmlns="http://www.w3.org/2000/svg" xmlns:xlink="http://www.w3.org/1999/xlink" version="1.1" id="Layer_1" x="0px" y="0px" viewBox="0 0 512 512" style="enable-background:new 0 0 512 512;" xml:space="preserve">
<path d="M165,167.1c40.7,0,74.2-33.7,74.2-73.9c0-40.4-33.5-74.2-74.2-74.2C124.5,19,91,52.7,91,93.1  C91,133.1,124.3,167.1,165,167.1z M347,167.1c40.4,0,73.9-33.7,73.9-73.9C421,52.7,387.5,19,347,19c-40.7,0-74.2,33.7-74.2,74.2  C272.9,133.3,306.4,167.1,347,167.1z M256,330.3c40.4,0,74.2-33.7,74.2-74.2S296.4,182,256,182c-40.4,0-74.2,33.7-74.2,74.2  S215.6,330.3,256,330.3z M74.2,330.3c40.4,0,74.2-33.7,74.2-74.2S114.6,182,74.2,182C33.7,182,0,215.7,0,256.1  C0,296.3,33.2,330.3,74.2,330.3z M437.8,330.3c40.4,0,74.2-33.7,74.2-74.2S478.3,182,437.8,182c-40.4,0-74.2,33.7-74.2,74.2  S397.4,330.3,437.8,330.3z M165,493c40.7,0,74.2-33.5,74.2-73.9c0-40.4-33.5-73.9-74.2-73.9c-40.4,0-73.9,33.5-73.9,73.9  C91,459.3,124.3,493,165,493z M347,493c40.4,0,73.9-33.5,73.9-73.9c0-40.4-33.5-73.9-73.9-73.9c-40.7,0-74.2,33.5-74.2,73.9  C272.9,459.5,306.4,493,347,493z"/>
</svg>