<?xml version="1.0" encoding="UTF-8"?>
<!--Generator: Apple Native CoreSVG 326-->
<!DOCTYPE svg
PUBLIC "-//W3C//DTD SVG 1.1//EN"
       "http://www.w3.org/Graphics/SVG/1.1/DTD/svg11.dtd">
<svg version="1.1" xmlns="http://www.w3.org/2000/svg" xmlns:xlink="http://www.w3.org/1999/xlink" viewBox="0 0 25.8008 25.459">
 <g>
  <rect height="25.459" opacity="0" width="25.8008" x="0" y="0"/>
  <path d="M12.7148 25.4395C19.7363 25.4395 25.4395 19.7461 25.4395 12.7246C25.4395 5.70312 19.7363 0 12.7148 0C5.69336 0 0 5.70312 0 12.7246C0 19.7461 5.69336 25.4395 12.7148 25.4395ZM12.7148 23.623C6.68945 23.623 1.81641 18.75 1.81641 12.7246C1.81641 6.69922 6.68945 1.82617 12.7148 1.82617C18.7402 1.82617 23.6133 6.69922 23.6133 12.7246C23.6133 18.75 18.7402 23.623 12.7148 23.623Z" fill="black" fill-opacity="0.85"/>
  <path d="M12.7051 7.92969C13.1934 7.92969 13.5449 7.57812 13.5449 7.08984C13.5449 6.61133 13.1934 6.25 12.7051 6.25C12.2266 6.25 11.8652 6.61133 11.8652 7.08984C11.8652 7.57812 12.2266 7.92969 12.7051 7.92969ZM15.5273 8.69141C16.0156 8.69141 16.377 8.33008 16.377 7.85156C16.377 7.36328 16.0156 7.01172 15.5273 7.01172C15.0488 7.01172 14.6875 7.36328 14.6875 7.85156C14.6875 8.33008 15.0488 8.69141 15.5273 8.69141ZM17.5977 10.752C18.0762 10.752 18.4375 10.3906 18.4375 9.91211C18.4375 9.43359 18.0762 9.07227 17.5977 9.07227C17.1094 9.07227 16.7578 9.43359 16.7578 9.91211C16.7578 10.3906 17.1094 10.752 17.5977 10.752ZM18.3496 13.5742C18.8379 13.5742 19.1895 13.2227 19.1895 12.7344C19.1895 12.2559 18.8379 11.8945 18.3496 11.8945C17.8711 11.8945 17.5098 12.2559 17.5098 12.7344C17.5098 13.2227 17.8711 13.5742 18.3496 13.5742ZM17.5977 16.4062C18.0762 16.4062 18.4375 16.0449 18.4375 15.5664C18.4375 15.0781 18.0762 14.7168 17.5977 14.7168C17.1094 14.7168 16.7578 15.0781 16.7578 15.5664C16.7578 16.0449 17.1094 16.4062 17.5977 16.4062ZM15.5273 18.4668C16.0156 18.4668 16.377 18.1055 16.377 17.627C16.377 17.1484 16.0156 16.7871 15.5273 16.7871C15.0488 16.7871 14.6875 17.1484 14.6875 17.627C14.6875 18.1055 15.0488 18.4668 15.5273 18.4668ZM12.7051 19.2285C13.1934 19.2285 13.5449 18.8672 13.5449 18.3789C13.5449 17.9004 13.1934 17.5391 12.7051 17.5391C12.2266 17.5391 11.8652 17.9004 11.8652 18.3789C11.8652 18.8672 12.2266 19.2285 12.7051 19.2285ZM9.88281 18.4668C10.3613 18.4668 10.7227 18.1055 10.7227 17.627C10.7227 17.1484 10.3613 16.7871 9.88281 16.7871C9.4043 16.7871 9.04297 17.1484 9.04297 17.627C9.04297 18.1055 9.4043 18.4668 9.88281 18.4668ZM7.8125 16.4062C8.30078 16.4062 8.66211 16.0449 8.66211 15.5664C8.66211 15.0781 8.30078 14.7168 7.8125 14.7168C7.33398 14.7168 6.97266 15.0781 6.97266 15.5664C6.97266 16.0449 7.33398 16.4062 7.8125 16.4062ZM7.06055 13.5742C7.53906 13.5742 7.90039 13.2227 7.90039 12.7344C7.90039 12.2559 7.53906 11.8945 7.06055 11.8945C6.58203 11.8945 6.2207 12.2559 6.2207 12.7344C6.2207 13.2227 6.58203 13.5742 7.06055 13.5742ZM7.8125 10.752C8.30078 10.752 8.66211 10.3906 8.66211 9.91211C8.66211 9.43359 8.30078 9.07227 7.8125 9.07227C7.33398 9.07227 6.97266 9.43359 6.97266 9.91211C6.97266 10.3906 7.33398 10.752 7.8125 10.752ZM9.88281 8.69141C10.3613 8.69141 10.7227 8.33008 10.7227 7.85156C10.7227 7.36328 10.3613 7.01172 9.88281 7.01172C9.4043 7.01172 9.04297 7.36328 9.04297 7.85156C9.04297 8.33008 9.4043 8.69141 9.88281 8.69141Z" fill="black" fill-opacity="0.85"/>
 </g>
</svg>
