<?xml version="1.0" ?><!-- Generator: Adobe Illustrator 25.0.0, SVG Export Plug-In . SVG Version: 6.00 Build 0)  --><svg xmlns="http://www.w3.org/2000/svg" xmlns:xlink="http://www.w3.org/1999/xlink" version="1.1" id="Layer_1" x="0px" y="0px" viewBox="0 0 512 512" style="enable-background:new 0 0 512 512;" xml:space="preserve">
<path d="M256,512c35,0,67.9-6.7,98.8-20.1c30.9-13.4,58.1-31.9,81.7-55.5c23.6-23.6,42.1-50.8,55.5-81.7  C505.3,323.9,512,291,512,256s-6.7-67.9-20.1-98.8c-13.4-30.9-31.9-58.1-55.5-81.7c-23.6-23.6-50.9-42.1-81.8-55.5  C323.7,6.7,290.7,0,255.7,0S187.9,6.7,157,20.1C126.1,33.5,98.9,52,75.4,75.5c-23.5,23.6-42,50.8-55.3,81.7C6.7,188.1,0,221,0,256  s6.7,67.9,20.1,98.8c13.4,30.9,31.9,58.1,55.5,81.7c23.6,23.6,50.8,42.1,81.7,55.5C188.1,505.3,221,512,256,512z M256,469.3  c-29.6,0-57.3-5.5-83.1-16.6c-25.8-11-48.4-26.3-67.9-45.8c-19.5-19.5-34.7-42.1-45.7-67.9c-11-25.8-16.4-53.5-16.4-83.1  c0-29.6,5.5-57.3,16.4-83.1c11-25.8,26.1-48.4,45.6-68s42-34.8,67.8-45.8c25.8-11,53.5-16.4,83.1-16.4c29.6,0,57.3,5.5,83.1,16.4  c25.8,11,48.4,26.2,68,45.8c19.6,19.6,34.9,42.2,45.9,68c11,25.8,16.6,53.5,16.6,83.1c0,29.6-5.5,57.3-16.4,83.1  c-11,25.8-26.2,48.4-45.7,67.9c-19.5,19.5-42.2,34.8-68,45.8C313.3,463.8,285.6,469.3,256,469.3z" class="hierarchical-0:secondary SFSymbolsPreview4D4D4D" style="fill: #4D4D4D;"/>
<path d="M255.7,208.6c9.5,0,17.7-3.4,24.6-10.3c6.9-6.9,10.3-15,10.3-24.3c0-9.7-3.4-17.9-10.3-24.7c-6.9-6.8-15.1-10.2-24.6-10.2  c-9.5,0.2-17.7,3.6-24.5,10.3c-6.8,6.7-10.2,14.9-10.2,24.6c0,9.4,3.4,17.5,10.2,24.3C238.1,205.1,246.2,208.6,255.7,208.6z   M255.7,372.5c9.5,0,17.7-3.4,24.6-10.3c6.9-6.9,10.3-15.1,10.3-24.6c0-9.4-3.4-17.5-10.3-24.3c-6.9-6.9-15.1-10.3-24.6-10.3  s-17.7,3.4-24.5,10.3c-6.8,6.9-10.2,15-10.2,24.3c0,9.5,3.4,17.7,10.2,24.6C238.1,369,246.2,372.5,255.7,372.5z M255.7,290.4  c9.5,0,17.7-3.4,24.6-10.3c6.9-6.9,10.3-15,10.3-24.3c0-9.5-3.4-17.7-10.3-24.6c-6.9-6.9-15.1-10.2-24.6-10  c-9.5,0-17.7,3.4-24.5,10.2c-6.8,6.8-10.2,14.9-10.2,24.5c0,9.4,3.4,17.5,10.2,24.3C238.1,287,246.2,290.4,255.7,290.4z   M168.2,372.5c9.5,0,17.7-3.4,24.5-10.2c6.8-6.8,10.2-15,10.2-24.7c0-9.4-3.4-17.5-10.2-24.3c-6.8-6.9-14.9-10.3-24.5-10.3  c-9.4,0-17.5,3.4-24.3,10.3c-6.9,6.9-10.3,15-10.3,24.3c0,9.5,3.4,17.7,10.3,24.6C150.7,369,158.8,372.5,168.2,372.5z M168.2,208.6  c9.5,0,17.7-3.4,24.5-10.3c6.8-6.9,10.2-15,10.2-24.3c0-9.5-3.4-17.7-10.2-24.6c-6.8-6.9-14.9-10.3-24.5-10.3  c-9.4,0-17.5,3.4-24.3,10.3c-6.9,6.9-10.3,15.1-10.3,24.6c0,9.4,3.4,17.5,10.3,24.3C150.7,205.1,158.8,208.6,168.2,208.6z   M343.3,208.6c9.5,0,17.7-3.4,24.5-10.3c6.8-6.9,10.2-15,10.2-24.3c0-9.7-3.4-17.9-10.2-24.7c-6.8-6.8-14.9-10.2-24.5-10.2  c-9.5,0.2-17.7,3.6-24.3,10.3c-6.7,6.7-10,14.9-10,24.6c0,9.4,3.3,17.5,10,24.3C325.7,205.1,333.8,208.6,343.3,208.6z M343.3,372.5  c9.5,0,17.7-3.4,24.5-10.3c6.8-6.9,10.2-15.1,10.2-24.6c0-9.4-3.4-17.5-10.2-24.3c-6.8-6.9-14.9-10.3-24.5-10.3  c-9.5,0-17.7,3.4-24.3,10.3c-6.7,6.9-10,15-10,24.3c0,9.5,3.3,17.7,10,24.6C325.7,369,333.8,372.5,343.3,372.5z M168.2,290.4  c9.5,0,17.7-3.4,24.5-10.3c6.8-6.9,10.2-15,10.2-24.3c0-9.5-3.4-17.7-10.2-24.6c-6.8-6.9-14.9-10.2-24.5-10  c-9.4,0-17.5,3.4-24.3,10.2c-6.9,6.8-10.3,14.9-10.3,24.5c0,9.4,3.4,17.5,10.3,24.3C150.7,287,158.8,290.4,168.2,290.4z   M343.3,290.4c9.5,0,17.7-3.4,24.5-10.3c6.8-6.9,10.2-15,10.2-24.3c0-9.5-3.4-17.7-10.2-24.6c-6.8-6.9-14.9-10.2-24.5-10  c-9.5,0-17.7,3.4-24.3,10.2c-6.7,6.8-10,14.9-10,24.5c0,9.4,3.3,17.5,10,24.3C325.7,287,333.8,290.4,343.3,290.4z" class="hierarchical-1:primary SFSymbolsPreview212121" style="fill: #212121;"/>
</svg>