<?xml version="1.0" encoding="UTF-8"?>
<!--Generator: Apple Native CoreSVG 326-->
<!DOCTYPE svg
PUBLIC "-//W3C//DTD SVG 1.1//EN"
       "http://www.w3.org/Graphics/SVG/1.1/DTD/svg11.dtd">
<svg version="1.1" xmlns="http://www.w3.org/2000/svg" xmlns:xlink="http://www.w3.org/1999/xlink" viewBox="0 0 26.8945 24.6387">
 <g>
  <rect height="24.6387" opacity="0" width="26.8945" x="0" y="0"/>
  <path d="M17.832 24.6289C20.127 24.6289 21.9727 22.7832 21.9727 20.4883C21.9727 18.2031 20.127 16.3574 17.832 16.3574C15.5469 16.3574 13.7012 18.2031 13.7012 20.4883C13.7012 22.7832 15.5469 24.6289 17.832 24.6289Z" fill="black" fill-opacity="0.85"/>
  <path d="M8.70117 24.6289C10.9863 24.6289 12.832 22.7832 12.832 20.4883C12.832 18.2031 10.9863 16.3574 8.70117 16.3574C6.40625 16.3574 4.56055 18.2031 4.56055 20.4883C4.56055 22.7832 6.40625 24.6289 8.70117 24.6289Z" fill="black" fill-opacity="0.85"/>
  <path d="M22.3926 16.4453C24.6875 16.4453 26.5332 14.5996 26.5332 12.3145C26.5332 10.0195 24.6875 8.17383 22.3926 8.17383C20.1074 8.17383 18.2617 10.0195 18.2617 12.3145C18.2617 14.5996 20.1074 16.4453 22.3926 16.4453Z" fill="black" fill-opacity="0.85"/>
  <path d="M4.14062 16.4453C6.42578 16.4453 8.27148 14.5996 8.27148 12.3145C8.27148 10.0195 6.42578 8.17383 4.14062 8.17383C1.8457 8.17383 0 10.0195 0 12.3145C0 14.5996 1.8457 16.4453 4.14062 16.4453Z" fill="black" fill-opacity="0.85"/>
  <path d="M17.832 8.28125C20.127 8.28125 21.9727 6.42578 21.9727 4.14062C21.9727 1.85547 20.127 0 17.832 0C15.5469 0 13.7012 1.85547 13.7012 4.14062C13.7012 6.42578 15.5469 8.28125 17.832 8.28125Z" fill="black" fill-opacity="0.85"/>
  <path d="M8.70117 8.28125C10.9863 8.28125 12.832 6.42578 12.832 4.14062C12.832 1.85547 10.9863 0 8.70117 0C6.40625 0 4.56055 1.85547 4.56055 4.14062C4.56055 6.42578 6.40625 8.28125 8.70117 8.28125Z" fill="black" fill-opacity="0.85"/>
  <path d="M13.2715 16.4453C15.5566 16.4453 17.4023 14.5996 17.4023 12.3145C17.4023 10.0195 15.5566 8.17383 13.2715 8.17383C10.9766 8.17383 9.13086 10.0195 9.13086 12.3145C9.13086 14.5996 10.9766 16.4453 13.2715 16.4453Z" fill="black" fill-opacity="0.85"/>
 </g>
</svg>
