<?xml version="1.0" ?><!-- Generator: Adobe Illustrator 25.0.0, SVG Export Plug-In . SVG Version: 6.00 Build 0)  --><svg xmlns="http://www.w3.org/2000/svg" xmlns:xlink="http://www.w3.org/1999/xlink" version="1.1" id="Layer_1" x="0px" y="0px" viewBox="0 0 512 512" style="enable-background:new 0 0 512 512;" xml:space="preserve">
<path d="M512,256c0-35-6.7-67.9-20.1-98.8c-13.4-30.9-31.9-58.1-55.5-81.7c-23.6-23.6-50.8-42.1-81.7-55.5C323.9,6.7,291,0,256,0  s-67.9,6.7-98.8,20.1C126.4,33.5,99.1,52,75.5,75.5C52,99.1,33.5,126.4,20.1,157.2C6.7,188.1,0,221,0,256s6.7,67.9,20.1,98.9  c13.4,31,31.9,58.2,55.5,81.7s50.8,42,81.7,55.3C188.1,505.3,221,512,256,512s67.9-6.7,98.8-20.1c30.9-13.4,58.1-31.9,81.7-55.5  c23.6-23.6,42.1-50.8,55.5-81.7C505.3,323.9,512,291,512,256z M469.3,256H42.7c0-29.6,5.5-57.3,16.4-83.1  c11-25.8,26.2-48.4,45.8-67.9c19.6-19.5,42.2-34.8,68-45.8c25.8-11,53.5-16.6,83.1-16.6c29.6-0.2,57.3,5.3,83.1,16.3  c25.8,11,48.4,26.3,68,45.8c19.6,19.5,34.8,42.2,45.8,68C463.9,198.7,469.3,226.4,469.3,256z"/>
</svg>