<?xml version="1.0" encoding="UTF-8"?>
<!--Generator: Apple Native CoreSVG 326-->
<!DOCTYPE svg
PUBLIC "-//W3C//DTD SVG 1.1//EN"
       "http://www.w3.org/Graphics/SVG/1.1/DTD/svg11.dtd">
<svg version="1.1" xmlns="http://www.w3.org/2000/svg" xmlns:xlink="http://www.w3.org/1999/xlink" viewBox="0 0 25.8008 25.459">
 <g>
  <rect height="25.459" opacity="0" width="25.8008" x="0" y="0"/>
  <path d="M12.7148 25.4395C19.7363 25.4395 25.4395 19.7461 25.4395 12.7246C25.4395 5.70312 19.7363 0 12.7148 0C5.69336 0 0 5.70312 0 12.7246C0 19.7461 5.69336 25.4395 12.7148 25.4395ZM12.7148 23.623C6.68945 23.623 1.81641 18.75 1.81641 12.7246C1.81641 6.69922 6.68945 1.82617 12.7148 1.82617C18.7402 1.82617 23.6133 6.69922 23.6133 12.7246C23.6133 18.75 18.7402 23.623 12.7148 23.623Z" fill="black" fill-opacity="0.85"/>
  <path d="M10 10.0684C11.2305 10.0684 12.2266 9.08203 12.2266 7.85156C12.2266 6.62109 11.2305 5.625 10 5.625C8.76953 5.625 7.7832 6.62109 7.7832 7.85156C7.7832 9.08203 8.76953 10.0684 10 10.0684ZM15.4102 10.0684C16.6406 10.0684 17.627 9.08203 17.627 7.85156C17.627 6.62109 16.6406 5.625 15.4102 5.625C14.1797 5.625 13.1934 6.62109 13.1934 7.85156C13.1934 9.08203 14.1797 10.0684 15.4102 10.0684ZM7.30469 14.9414C8.53516 14.9414 9.52148 13.9551 9.52148 12.7246C9.52148 11.4941 8.53516 10.498 7.30469 10.498C6.06445 10.498 5.07812 11.4941 5.07812 12.7246C5.07812 13.9551 6.06445 14.9414 7.30469 14.9414ZM12.7051 14.9414C13.9355 14.9414 14.9316 13.9551 14.9316 12.7246C14.9316 11.4941 13.9355 10.498 12.7051 10.498C11.4746 10.498 10.4883 11.4941 10.4883 12.7246C10.4883 13.9551 11.4746 14.9414 12.7051 14.9414ZM18.1152 14.9414C19.3457 14.9414 20.332 13.9551 20.332 12.7246C20.332 11.4941 19.3457 10.498 18.1152 10.498C16.8848 10.498 15.8887 11.4941 15.8887 12.7246C15.8887 13.9551 16.8848 14.9414 18.1152 14.9414ZM10 19.8145C11.2109 19.8145 12.2168 18.8184 12.2168 17.5977C12.2168 16.3867 11.2109 15.3809 10 15.3809C8.7793 15.3809 7.7832 16.3867 7.7832 17.5977C7.7832 18.8086 8.76953 19.8145 10 19.8145ZM15.4102 19.8145C16.6406 19.8145 17.627 18.8281 17.627 17.5977C17.627 16.3672 16.6406 15.3711 15.4102 15.3711C14.1797 15.3711 13.1934 16.3672 13.1934 17.5977C13.1934 18.8281 14.1797 19.8145 15.4102 19.8145Z" fill="black" fill-opacity="0.85"/>
 </g>
</svg>
