<?xml version="1.0" ?><!-- Generator: Adobe Illustrator 25.0.0, SVG Export Plug-In . SVG Version: 6.00 Build 0)  --><svg xmlns="http://www.w3.org/2000/svg" xmlns:xlink="http://www.w3.org/1999/xlink" version="1.1" id="Layer_1" x="0px" y="0px" viewBox="0 0 512 512" style="enable-background:new 0 0 512 512;" xml:space="preserve">
<path d="M87.3,512h337.3c58.4,0,87.3-28.9,87.3-86.2V86.2C512,28.9,483.1,0,424.7,0H87.3C29.2,0,0,28.6,0,86.2v339.6  C0,483.4,29.2,512,87.3,512z M87.9,467.2c-27.8,0-43.1-14.7-43.1-43.7V88.4c0-28.9,15.3-43.7,43.1-43.7h336.2  c27.5,0,43.1,14.7,43.1,43.7v335.1c0,28.9-15.6,43.7-43.1,43.7H87.9z M257.3,404.9c81.2,0,149.1-67.9,149.1-149.1  c0-80.9-68.1-149.1-149.1-149.1c-81.2,0-148.8,67.9-148.8,149.1C108.5,336.8,176.3,404.9,257.3,404.9z M257.3,361.5  c-57.3,0-105.4-48.1-105.4-105.7c0-57.8,47.6-105.7,105.4-105.7c57.6,0,105.4,48.1,105.4,105.7C362.7,313.7,315.1,361.5,257.3,361.5  z"/>
</svg>