<?xml version="1.0" encoding="UTF-8"?>
<!--Generator: Apple Native CoreSVG 326-->
<!DOCTYPE svg
PUBLIC "-//W3C//DTD SVG 1.1//EN"
       "http://www.w3.org/Graphics/SVG/1.1/DTD/svg11.dtd">
<svg version="1.1" xmlns="http://www.w3.org/2000/svg" xmlns:xlink="http://www.w3.org/1999/xlink" viewBox="0 0 25.8008 25.459">
 <g>
  <rect height="25.459" opacity="0" width="25.8008" x="0" y="0"/>
  <path d="M12.7051 0.576172L12.7051 1.63086L16.1914 1.63086C15.0879 1.16211 13.9062 0.800781 12.7051 0.576172ZM12.7051 2.4707L12.7051 3.92578L19.6582 3.92578C19.3652 3.39844 19.0332 2.91016 18.6719 2.4707ZM12.7051 5.15625L12.7051 6.62109L22.2852 6.62109C22.1289 6.11328 21.9629 5.625 21.7578 5.15625ZM12.7051 7.85156L12.7051 9.30664L24.0625 9.30664C23.9941 8.81836 23.8965 8.33008 23.7891 7.85156ZM12.7051 10.5469L12.7051 12.002L24.209 12.002C24.1992 11.5137 24.1699 11.0254 24.1211 10.5469ZM12.7051 13.2422L12.7051 14.6973L24.1211 14.6973C24.1699 14.2188 24.1992 13.7305 24.209 13.2422ZM12.7051 15.9375L12.7051 17.3926L23.7891 17.3926C23.8965 16.9141 23.9941 16.4355 24.0625 15.9375ZM12.7051 18.623L12.7051 20.0879L21.7578 20.0879C21.9629 19.6191 22.1289 19.1309 22.2852 18.623ZM12.7051 21.5137L12.7051 22.9785L18.6719 22.9785C19.0332 22.5391 19.3652 22.0508 19.6582 21.5137ZM12.7051 23.8184L12.7051 24.873C13.9062 24.6387 15.0879 24.2871 16.1914 23.8184ZM12.7148 25.4395C19.7363 25.4395 25.4395 19.7461 25.4395 12.7246C25.4395 5.70312 19.7363 0 12.7148 0C5.69336 0 0 5.70312 0 12.7246C0 19.7461 5.69336 25.4395 12.7148 25.4395ZM12.7148 23.623C6.68945 23.623 1.81641 18.75 1.81641 12.7246C1.81641 6.69922 6.68945 1.82617 12.7148 1.82617C18.7402 1.82617 23.6133 6.69922 23.6133 12.7246C23.6133 18.75 18.7402 23.623 12.7148 23.623Z" fill="black" fill-opacity="0.85"/>
 </g>
</svg>
