<?xml version="1.0" encoding="UTF-8"?>
<!--Generator: Apple Native CoreSVG 326-->
<!DOCTYPE svg
PUBLIC "-//W3C//DTD SVG 1.1//EN"
       "http://www.w3.org/Graphics/SVG/1.1/DTD/svg11.dtd">
<svg version="1.1" xmlns="http://www.w3.org/2000/svg" xmlns:xlink="http://www.w3.org/1999/xlink" viewBox="0 0 25.8008 25.459">
 <g>
  <rect height="25.459" opacity="0" width="25.8008" x="0" y="0"/>
  <path d="M24.3262 12.7246C24.3262 6.2207 19.2188 1.11328 12.7246 1.11328L12.7246 24.3262C19.2188 24.3262 24.3262 19.2285 24.3262 12.7246ZM13.3789 2.4707L13.3789 1.03516L8.55469 1.03516L8.55469 2.4707ZM13.3789 5.15625L13.3789 3.92578L4.18945 3.92578L4.18945 5.15625ZM13.3789 7.85156L13.3789 6.62109L2.36328 6.62109L2.36328 7.85156ZM13.3789 10.5469L13.3789 9.30664L1.09375 9.30664L1.09375 10.5469ZM13.3789 13.2422L13.3789 12.002L1.09375 12.002L1.09375 13.2422ZM13.3789 15.9375L13.3789 14.6973L1.09375 14.6973L1.09375 15.9375ZM13.3789 18.623L13.3789 17.3926L2.36328 17.3926L2.36328 18.623ZM13.3789 21.5137L13.3789 20.0879L4.18945 20.0879L4.18945 21.5137ZM13.3789 24.4141L13.3789 22.9785L8.55469 22.9785L8.55469 24.4141ZM12.7148 25.4395C19.7363 25.4395 25.4395 19.7461 25.4395 12.7246C25.4395 5.70312 19.7363 0 12.7148 0C5.69336 0 0 5.70312 0 12.7246C0 19.7461 5.69336 25.4395 12.7148 25.4395ZM12.7148 23.623C6.68945 23.623 1.81641 18.75 1.81641 12.7246C1.81641 6.69922 6.68945 1.82617 12.7148 1.82617C18.7402 1.82617 23.6133 6.69922 23.6133 12.7246C23.6133 18.75 18.7402 23.623 12.7148 23.623Z" fill="black" fill-opacity="0.85"/>
 </g>
</svg>
