<?xml version="1.0" ?><!-- Generator: Adobe Illustrator 25.0.0, SVG Export Plug-In . SVG Version: 6.00 Build 0)  --><svg xmlns="http://www.w3.org/2000/svg" xmlns:xlink="http://www.w3.org/1999/xlink" version="1.1" id="Layer_1" x="0px" y="0px" viewBox="0 0 512 512" style="enable-background:new 0 0 512 512;" xml:space="preserve">
<path d="M255.7,42.7c22.8,0,44.9,3.5,65.8,10.3l16.1-39.2C311.7,5,284.1,0,255.7,0s-56.2,5-82.1,13.8L190.2,53  C210.8,46.2,232.9,42.7,255.7,42.7z M446,158.6l38.9-16.1c-25.1-49.7-66-90.6-115.7-115.7l-16.1,38.9  C392.8,86.1,425.7,118.7,446,158.6z M158.4,65.8l-16.1-38.7C92.6,52,51.7,92.9,26.9,142.6L66,158.9C86.1,119,118.7,86.3,158.4,65.8z   M469.3,256c0,22.8-3.5,44.9-10,65.5l38.9,16.6C507,312.2,512,284.4,512,256c0-28.6-5-56.2-13.8-82.1L459,190.5  C465.8,211.1,469.3,233.2,469.3,256z M42.9,256c0-22.8,3.5-44.9,10-65.3l-39.4-16.6C5,200,0,227.4,0,256c0,28.4,5,56,13.8,81.8  L53,321.3C46.4,300.9,42.9,278.8,42.9,256z M353.1,446l16.1,39.2c49.9-25.1,90.9-66,115.4-115.7l-38.4-16.1  C425.9,393.3,393,425.7,353.1,446z M66,353.4l-38.9,16.1c25.1,49.7,65.5,90.6,115.2,115.5l16.1-39.2C118.7,425.4,86.1,393,66,353.4z   M256,469.3c-23.1,0-45.2-3.5-65.8-10.3l-16.3,39.2C199.8,507,227.6,512,256,512s56-5,81.6-13.6l-16.3-39.2  C300.7,465.8,278.8,469.3,256,469.3z"/>
</svg>