<?xml version="1.0" ?><!-- Generator: Adobe Illustrator 25.0.0, SVG Export Plug-In . SVG Version: 6.00 Build 0)  --><svg xmlns="http://www.w3.org/2000/svg" xmlns:xlink="http://www.w3.org/1999/xlink" version="1.1" id="Layer_1" x="0px" y="0px" viewBox="0 0 512 512" style="enable-background:new 0 0 512 512;" xml:space="preserve">
<path d="M165,167.1c13.6,0,26-3.3,37.2-10c11.2-6.7,20.2-15.7,26.9-26.9c6.7-11.2,10-23.6,10-37s-3.3-25.7-10-37  c-6.7-11.2-15.7-20.3-26.9-27C190.9,22.4,178.5,19,165,19c-13.4,0-25.7,3.4-37,10.2c-11.2,6.8-20.2,15.8-26.9,27  c-6.7,11.2-10,23.6-10,37s3.3,25.7,9.9,36.8c6.6,11.2,15.5,20.1,26.8,26.9C139,163.7,151.4,167.1,165,167.1z" class="multicolor-0:systemGreenColor SFSymbolsPreview28CD41" style="fill: #28CD41;"/>
<path d="M347,167.1c13.4,0,25.7-3.3,37-10c11.2-6.7,20.2-15.7,26.9-26.9c6.7-11.2,10-23.6,10-37s-3.3-25.7-10-37  c-6.7-11.2-15.7-20.3-26.9-27C372.8,22.4,360.4,19,347,19c-13.6,0-26,3.4-37.2,10.2c-11.2,6.8-20.2,15.8-26.9,27  c-6.7,11.2-10,23.6-10,37s3.3,25.7,10,37c6.7,11.2,15.7,20.2,26.9,26.9C321.1,163.7,333.5,167.1,347,167.1z" class="multicolor-1:systemOrangeColor SFSymbolsPreviewFF9500" style="fill: #FF9500;"/>
<path d="M74.2,330.3c13.4,0,25.7-3.4,37-10.2c11.2-6.8,20.3-15.8,27-27s10.2-23.6,10.2-37c0-13.6-3.4-26-10.2-37.2  c-6.8-11.2-15.8-20.2-27-26.9c-11.2-6.7-23.6-10-37-10c-13.6,0-26,3.3-37.2,10c-11.2,6.7-20.2,15.7-26.9,26.9  c-6.7,11.2-10,23.6-10,37.2c0,13.4,3.3,25.7,10,37c6.7,11.2,15.7,20.3,26.9,27C48.2,326.9,60.6,330.3,74.2,330.3z" class="multicolor-2:systemPinkColor SFSymbolsPreviewFF2D55" style="fill: #FF2D55;"/>
<path d="M256,330.3c13.6,0,25.9-3.4,37.1-10.2c11.2-6.8,20.1-15.8,26.9-27c6.8-11.2,10.2-23.6,10.2-37c0-13.6-3.4-26-10.2-37.2  c-6.8-11.2-15.8-20.2-26.9-26.9c-11.2-6.7-23.5-10-37.1-10c-13.6,0-25.9,3.3-37.1,10c-11.2,6.7-20.1,15.7-26.9,26.9  c-6.8,11.2-10.2,23.6-10.2,37.2c0,13.4,3.4,25.7,10.2,37c6.8,11.2,15.8,20.3,26.9,27C230.1,326.9,242.4,330.3,256,330.3z" class="multicolor-3:labelColor SFSymbolsPreview212121" style="fill: #212121;"/>
<path d="M437.8,330.3c13.6,0,26-3.4,37.2-10.2c11.2-6.8,20.2-15.8,26.9-27c6.7-11.2,10-23.6,10-37c0-13.6-3.3-26-10-37.2  c-6.7-11.2-15.7-20.2-26.9-26.9c-11.2-6.7-23.6-10-37.2-10c-13.4,0-25.7,3.3-37,10c-11.2,6.7-20.3,15.7-27,26.9  c-6.8,11.2-10.2,23.6-10.2,37.2c0,13.4,3.4,25.7,10.2,37c6.8,11.2,15.8,20.3,27,27C412.1,326.9,424.4,330.3,437.8,330.3z" class="multicolor-4:systemIndigoColor SFSymbolsPreview5856D6" style="fill: #5856D6;"/>
<path d="M165,493c13.6,0,26-3.3,37.2-10c11.2-6.7,20.2-15.7,26.9-26.9c6.7-11.2,10-23.6,10-37s-3.3-25.7-10-37  c-6.7-11.2-15.7-20.2-26.9-26.9c-11.2-6.7-23.6-10-37.2-10c-13.4,0-25.7,3.3-37,10c-11.2,6.7-20.2,15.7-26.9,26.9  c-6.7,11.2-10,23.6-10,37s3.3,25.7,9.9,36.8s15.5,20.1,26.8,26.9C139,489.6,151.4,493,165,493z" class="multicolor-5:systemBlueColor SFSymbolsPreview007AFF" style="fill: #007AFF;"/>
<path d="M347,493c13.4,0,25.7-3.3,37-10c11.2-6.7,20.2-15.7,26.9-26.9c6.7-11.2,10-23.6,10-37s-3.3-25.7-10-37  c-6.7-11.2-15.7-20.2-26.9-26.9c-11.2-6.7-23.6-10-37-10c-13.6,0-26,3.3-37.2,10c-11.2,6.7-20.2,15.7-26.9,26.9  c-6.7,11.2-10,23.6-10,37s3.3,25.7,10,37c6.7,11.2,15.7,20.2,26.9,26.9C321.1,489.7,333.5,493,347,493z" class="multicolor-6:systemYellowColor SFSymbolsPreviewFFCC00" style="fill: #FFCC00;"/>
</svg>