<?xml version="1.0" ?><!-- Generator: Adobe Illustrator 25.0.0, SVG Export Plug-In . SVG Version: 6.00 Build 0)  --><svg xmlns="http://www.w3.org/2000/svg" xmlns:xlink="http://www.w3.org/1999/xlink" version="1.1" id="Layer_1" x="0px" y="0px" viewBox="0 0 512 512" style="enable-background:new 0 0 512 512;" xml:space="preserve">
<path d="M42.9,256c0-11.4,0.9-22.5,2.6-33.5c1.8-11,4.2-21.5,7.4-31.7l-39.4-16.6c-4.4,12.9-7.7,26.2-10,39.9  C1.2,227.8,0,241.8,0,256c0,14.2,1.2,28.2,3.6,41.9c2.4,13.7,5.8,27,10.2,39.9L53,321.3c-3.2-10.2-5.6-20.8-7.4-31.7  C43.8,278.5,42.9,267.4,42.9,256z M255.7,42.7c11.4,0,22.6,0.9,33.6,2.6c11,1.8,21.8,4.3,32.1,7.7l16.1-39.2  c-12.9-4.5-26.2-7.9-39.9-10.3S270,0,255.7,0c-14.2,0-28.2,1.2-42,3.5c-13.8,2.3-27.1,5.8-40,10.3L190.2,53  c10.2-3.3,20.8-5.9,31.9-7.7C233.2,43.5,244.4,42.7,255.7,42.7z M469.3,256c0,11.4-0.9,22.6-2.6,33.6c-1.8,11-4.2,21.7-7.4,31.9  l38.9,16.6c4.5-12.9,7.9-26.2,10.3-40s3.5-27.8,3.5-42c0-14.2-1.2-28.2-3.5-42c-2.3-13.8-5.8-27.1-10.3-40L459,190.5  c3.3,10.2,5.9,20.8,7.7,31.9C468.5,233.4,469.3,244.6,469.3,256z M256,469.3c-11.5,0-22.8-0.9-33.9-2.6c-11-1.8-21.7-4.3-31.9-7.7  l-16.3,39.2c12.9,4.4,26.2,7.7,40,10.2c13.8,2.4,27.8,3.6,42,3.6s28.2-1.2,41.8-3.5s26.9-5.7,39.8-10l-16.3-39.2  c-10.4,3.2-21,5.6-31.9,7.4C278.5,468.5,267.4,469.3,256,469.3z M158.4,65.8l-16.1-38.7c-24.9,12.5-47.3,28.7-67,48.4  s-35.9,42.1-48.4,67L66,158.9c10-19.9,23-37.8,38.8-53.7C120.6,89.3,138.5,76.1,158.4,65.8z M446,158.6l38.9-16.1  c-12.5-24.9-28.8-47.3-48.7-67.1c-19.9-19.8-42.2-36-67-48.6l-16.1,38.9c19.9,10.2,37.8,23.2,53.7,39  C422.7,120.6,435.8,138.5,446,158.6z M353.1,446l16.1,39.2c24.9-12.5,47.3-28.7,67.1-48.6c19.8-19.8,35.9-42.2,48.3-67.1l-38.4-16.1  c-10.2,19.9-23.3,37.8-39.3,53.7C391,423,373,436,353.1,446z M66,353.4l-38.9,16.1c12.5,24.9,28.7,47.3,48.4,67  c19.7,19.7,42,35.9,66.8,48.4l16.1-39.2c-19.9-10-37.8-23-53.6-38.8C89,391.2,76,373.3,66,353.4z" class="hierarchical-0:secondary SFSymbolsPreview4D4D4D" style="fill: #4D4D4D;"/>
<path d="M255.5,431.2c24.4,0,47.3-4.5,68.5-13.6c21.2-9,39.9-21.5,55.8-37.5c16-16,28.5-34.6,37.5-55.8c9-21.2,13.5-44,13.3-68.3  c0-24.4-4.5-47.2-13.6-68.4c-9-21.2-21.6-39.7-37.6-55.7s-34.7-28.5-55.8-37.5c-21.2-9-44-13.6-68.4-13.6c-24.3,0-47,4.5-68.1,13.4  c-21.2,9-39.7,21.5-55.7,37.5c-16,16.1-28.4,34.7-37.4,55.8c-9,21.2-13.4,44-13.4,68.4s4.5,47.2,13.6,68.4  c9,21.2,21.5,39.7,37.5,55.7c16,16,34.6,28.5,55.7,37.5C208.5,426.7,231.2,431.2,255.5,431.2z" class="hierarchical-1:primary SFSymbolsPreview212121" style="fill: #212121;"/>
</svg>