<?xml version="1.0" encoding="UTF-8"?>
<!--Generator: Apple Native CoreSVG 326-->
<!DOCTYPE svg
PUBLIC "-//W3C//DTD SVG 1.1//EN"
       "http://www.w3.org/Graphics/SVG/1.1/DTD/svg11.dtd">
<svg version="1.1" xmlns="http://www.w3.org/2000/svg" xmlns:xlink="http://www.w3.org/1999/xlink" viewBox="0 0 25.8008 25.459">
 <g>
  <rect height="25.459" opacity="0" width="25.8008" x="0" y="0"/>
  <path d="M25.4395 12.7246C25.4395 19.7266 19.7266 25.4395 12.7148 25.4395C5.71289 25.4395 0 19.7266 0 12.7246C0 5.71289 5.71289 0 12.7148 0C19.7266 0 25.4395 5.71289 25.4395 12.7246ZM10.9277 16.9336C10.9277 17.9297 11.7285 18.7305 12.7148 18.7305C13.7109 18.7305 14.502 17.9297 14.502 16.9336C14.502 15.9473 13.7109 15.1465 12.7148 15.1465C11.7285 15.1465 10.9277 15.9473 10.9277 16.9336ZM15.4395 16.9434C15.4395 17.9297 16.2402 18.7305 17.2266 18.7305C18.2227 18.7305 19.0234 17.9297 19.0234 16.9434C19.0234 15.9473 18.2227 15.1562 17.2266 15.1562C16.2402 15.1562 15.4395 15.9473 15.4395 16.9434ZM6.41602 16.9336C6.41602 17.9199 7.20703 18.7207 8.20312 18.7207C9.18945 18.7207 9.99023 17.9199 9.99023 16.9336C9.99023 15.9375 9.18945 15.1367 8.20312 15.1367C7.20703 15.1367 6.41602 15.9375 6.41602 16.9336ZM15.4395 12.7246C15.4395 13.7207 16.2402 14.5215 17.2266 14.5215C18.2227 14.5215 19.0234 13.7207 19.0234 12.7246C19.0234 11.7383 18.2227 10.9375 17.2266 10.9375C16.2402 10.9375 15.4395 11.7383 15.4395 12.7246ZM10.9277 12.7246C10.9277 13.7109 11.7285 14.5117 12.7148 14.5117C13.7109 14.5117 14.502 13.7109 14.502 12.7246C14.502 11.7285 13.7109 10.9277 12.7148 10.9277C11.7285 10.9277 10.9277 11.7285 10.9277 12.7246ZM6.41602 12.7148C6.41602 13.7109 7.20703 14.502 8.20312 14.502C9.18945 14.502 9.99023 13.7109 9.99023 12.7148C9.99023 11.7285 9.18945 10.9277 8.20312 10.9277C7.20703 10.9277 6.41602 11.7285 6.41602 12.7148ZM10.9277 8.48633C10.9277 9.48242 11.7285 10.2832 12.7148 10.2832C13.7109 10.2832 14.502 9.48242 14.502 8.48633C14.502 7.5 13.7109 6.69922 12.7148 6.69922C11.7285 6.69922 10.9277 7.5 10.9277 8.48633ZM15.4395 8.49609C15.4395 9.49219 16.2402 10.2832 17.2266 10.2832C18.2227 10.2832 19.0234 9.49219 19.0234 8.49609C19.0234 7.50977 18.2227 6.70898 17.2266 6.70898C16.2402 6.70898 15.4395 7.50977 15.4395 8.49609ZM6.41602 8.48633C6.41602 9.47266 7.20703 10.2734 8.20312 10.2734C9.18945 10.2734 9.99023 9.47266 9.99023 8.48633C9.99023 7.49023 9.18945 6.69922 8.20312 6.69922C7.20703 6.69922 6.41602 7.49023 6.41602 8.48633Z" fill="black" fill-opacity="0.85"/>
 </g>
</svg>
