<?xml version="1.0" encoding="UTF-8"?>
<!--Generator: Apple Native CoreSVG 326-->
<!DOCTYPE svg
PUBLIC "-//W3C//DTD SVG 1.1//EN"
       "http://www.w3.org/Graphics/SVG/1.1/DTD/svg11.dtd">
<svg version="1.1" xmlns="http://www.w3.org/2000/svg" xmlns:xlink="http://www.w3.org/1999/xlink" viewBox="0 0 21.084 27.998">
 <g>
  <rect height="27.998" opacity="0" width="21.084" x="0" y="0"/>
  <path d="M0 24.6777C0 26.6992 1.34766 27.998 3.4375 27.998L17.2852 27.998C19.375 27.998 20.7227 26.6992 20.7227 24.6777L20.7227 3.32031C20.7227 1.29883 19.375 0 17.2852 0L3.4375 0C1.34766 0 0 1.29883 0 3.32031ZM1.72852 24.4043L1.72852 3.59375C1.72852 2.40234 2.42188 1.72852 3.64258 1.72852L17.0703 1.72852C18.291 1.72852 18.9844 2.40234 18.9844 3.59375L18.9844 24.4043C18.9844 25.5859 18.291 26.2598 17.0703 26.2598L3.64258 26.2598C2.42188 26.2598 1.72852 25.5859 1.72852 24.4043Z" fill="black" fill-opacity="0.85"/>
  <path d="M10.3613 20.2441C13.7988 20.2441 16.6113 17.4414 16.6113 13.9844C16.6113 10.5469 13.7988 7.74414 10.3613 7.74414C6.91406 7.74414 4.10156 10.5469 4.10156 13.9844C4.10156 17.4414 6.91406 20.2441 10.3613 20.2441Z" fill="black" fill-opacity="0.85"/>
 </g>
</svg>
