<?xml version="1.0" ?><!-- Generator: Adobe Illustrator 25.0.0, SVG Export Plug-In . SVG Version: 6.00 Build 0)  --><svg xmlns="http://www.w3.org/2000/svg" xmlns:xlink="http://www.w3.org/1999/xlink" version="1.1" id="Layer_1" x="0px" y="0px" viewBox="0 0 512 512" style="enable-background:new 0 0 512 512;" xml:space="preserve">
<path d="M0,256c0-3.9,1.4-7.3,4.2-10.1c2.8-2.9,6.1-4.3,9.9-4.3h483.9c3.8,0,7.1,1.4,9.9,4.3c2.8,2.9,4.2,6.2,4.2,10.1  c0,4-1.4,7.5-4.2,10.3c-2.8,2.9-6.1,4.3-9.9,4.3H14.1c-3.8,0-7.1-1.4-9.9-4.3C1.4,263.5,0,260,0,256z M256.2,442.4  c25.5,0,49.4-4.9,71.9-14.6c22.5-9.7,42.3-23.2,59.5-40.4c17.2-17.2,30.6-37,40.4-59.5c9.7-22.5,14.6-46.4,14.6-71.9  s-4.9-49.4-14.7-71.9c-9.8-22.5-23.3-42.3-40.5-59.5c-17.2-17.2-37-30.6-59.5-40.4c-22.5-9.7-46.4-14.6-71.9-14.6  c-25.6,0-49.6,4.9-72,14.6c-22.4,9.7-42.2,23.2-59.4,40.4c-17.2,17.2-30.6,37-40.3,59.5c-9.7,22.5-14.5,46.4-14.5,71.9  s4.9,49.4,14.6,71.9c9.7,22.5,23.2,42.3,40.3,59.5c17.1,17.2,36.9,30.6,59.4,40.4C206.6,437.5,230.6,442.4,256.2,442.4z"/>
</svg>