<?xml version="1.0" encoding="UTF-8"?>
<!--Generator: Apple Native CoreSVG 326-->
<!DOCTYPE svg
PUBLIC "-//W3C//DTD SVG 1.1//EN"
       "http://www.w3.org/Graphics/SVG/1.1/DTD/svg11.dtd">
<svg version="1.1" xmlns="http://www.w3.org/2000/svg" xmlns:xlink="http://www.w3.org/1999/xlink" viewBox="0 0 29.9512 22.959">
 <g>
  <rect height="22.959" opacity="0" width="29.9512" x="0" y="0"/>
  <path d="M3.79883 22.959L25.7812 22.959C28.3105 22.959 29.5898 21.6797 29.5898 19.1992L29.5898 3.76953C29.5898 1.2793 28.3105 0 25.7812 0L3.79883 0C1.2793 0 0 1.26953 0 3.76953L0 19.1992C0 21.6992 1.2793 22.959 3.79883 22.959ZM3.83789 21.2305C2.4707 21.2305 1.72852 20.5078 1.72852 19.1016L1.72852 3.85742C1.72852 2.46094 2.4707 1.72852 3.83789 1.72852L25.752 1.72852C27.0898 1.72852 27.8516 2.46094 27.8516 3.85742L27.8516 19.1016C27.8516 20.5078 27.0898 21.2305 25.752 21.2305Z" fill="black" fill-opacity="0.85"/>
  <path d="M7.92969 10.7129L9.35547 10.7129C9.48242 9.76562 9.87305 8.88672 10.4395 8.16406L9.44336 7.16797C8.62305 8.1543 8.07617 9.375 7.92969 10.7129ZM10.5469 6.06445L11.5625 7.08008C12.2754 6.55273 13.1152 6.20117 14.0234 6.06445L14.0234 4.63867C12.7246 4.78516 11.5332 5.30273 10.5469 6.06445ZM15.5859 4.63867L15.5859 6.06445C16.4941 6.19141 17.3242 6.55273 18.0371 7.08008L19.043 6.07422C18.0762 5.30273 16.875 4.78516 15.5859 4.63867ZM20.166 7.17773L19.1602 8.17383C19.7168 8.89648 20.1074 9.76562 20.2344 10.7129L21.6504 10.7129C21.5039 9.375 20.9668 8.16406 20.166 7.17773ZM21.6504 12.2754L20.2246 12.2754C20.0879 13.1738 19.7266 14.0137 19.1992 14.7168L20.2148 15.7324C20.9863 14.7559 21.5039 13.5645 21.6504 12.2754ZM19.1113 16.8359L18.1055 15.8301C17.3926 16.4062 16.5234 16.7871 15.5859 16.9141L15.5859 18.3496C16.9043 18.2031 18.1348 17.6562 19.1113 16.8359ZM14.0234 18.3496L14.0234 16.9141C13.0762 16.7871 12.207 16.4062 11.4941 15.8398L10.4688 16.8555C11.4648 17.6562 12.6855 18.1934 14.0234 18.3496ZM9.375 15.752L10.3906 14.7363C9.85352 14.0332 9.50195 13.1934 9.36523 12.2754L7.92969 12.2754C8.08594 13.5742 8.60352 14.7754 9.375 15.752Z" fill="black" fill-opacity="0.85"/>
 </g>
</svg>
