<?xml version="1.0" ?><!-- Generator: Adobe Illustrator 25.0.0, SVG Export Plug-In . SVG Version: 6.00 Build 0)  --><svg xmlns="http://www.w3.org/2000/svg" xmlns:xlink="http://www.w3.org/1999/xlink" version="1.1" id="Layer_1" x="0px" y="0px" viewBox="0 0 512 512" style="enable-background:new 0 0 512 512;" xml:space="preserve">
<path d="M113.2,235.6c62.1,0,113.2-51.1,113.2-113.2c0-62.1-51.1-112.9-113.2-112.9C50.6,9.5,0,60.4,0,122.4  C0,184.5,50.6,235.6,113.2,235.6z M399.1,235.6c62.1,0,112.9-51.1,112.9-113.2C512,60.4,461.1,9.5,399.1,9.5  c-62.6,0-113.2,50.9-113.2,112.9C285.9,184.5,336.5,235.6,399.1,235.6z M113.2,502.5c62.1,0,113.2-51.1,113.2-113.2  c0-61.8-51.1-112.9-113.2-112.9C50.6,276.4,0,327.5,0,389.3C0,451.4,50.6,502.5,113.2,502.5z M399.1,502.5  c62.1,0,112.9-51.1,112.9-113.2c0-61.8-50.9-112.9-112.9-112.9c-62.6,0-113.2,51.1-113.2,112.9C285.9,451.4,336.5,502.5,399.1,502.5  z"/>
</svg>