<?xml version="1.0" ?><!-- Generator: Adobe Illustrator 25.0.0, SVG Export Plug-In . SVG Version: 6.00 Build 0)  --><svg xmlns="http://www.w3.org/2000/svg" xmlns:xlink="http://www.w3.org/1999/xlink" version="1.1" id="Layer_1" x="0px" y="0px" viewBox="0 0 512 512" style="enable-background:new 0 0 512 512;" xml:space="preserve">
<path d="M16.3,211.8c-16.5,0-20.6,11.2-11.7,24.1l51.3,72.9c7.6,10.5,18.6,10.3,25.9,0l51.3-73.1c8.7-12.6,4.6-23.8-11.7-23.8H88.3  c19.9-86.6,96.9-150.3,190-150.3C386.4,61.4,473,147.8,473,256s-86.6,195.3-194.8,194.8c-65.3-0.2-122.6-31.9-157.7-80.7  c-7.1-9.4-17.9-12.4-27.5-6.6c-9.2,5.7-11.7,18.3-3.9,28.4c43.5,58.4,111.8,97.9,189.1,97.9C405.9,489.8,512,383.6,512,256  c0-127.9-106.1-233.8-233.8-233.8c-112.8,0-208.5,82.3-229.6,189.5H16.3z M269.5,121.7c-10.1,0-18.3,8-18.3,18.1v127.9  c0,5.3,1.6,9.9,5.5,14.9l56.6,74.7c7.6,9.9,18.1,11.5,27.5,5c8.5-6,9.2-16.7,2.3-26.1l-55.5-74.7V139.8  C287.6,129.7,279.6,121.7,269.5,121.7z"/>
</svg>