<?xml version="1.0" ?><!-- Generator: Adobe Illustrator 25.0.0, SVG Export Plug-In . SVG Version: 6.00 Build 0)  --><svg xmlns="http://www.w3.org/2000/svg" xmlns:xlink="http://www.w3.org/1999/xlink" version="1.1" id="Layer_1" x="0px" y="0px" viewBox="0 0 512 512" style="enable-background:new 0 0 512 512;" xml:space="preserve">
<path d="M256,512c35,0,67.9-6.7,98.8-20.1c30.9-13.4,58.1-31.9,81.7-55.5c23.6-23.6,42.1-50.8,55.5-81.7  C505.3,323.9,512,291,512,256s-6.7-67.9-20.1-98.8c-13.4-30.9-31.9-58.1-55.5-81.7c-23.6-23.6-50.9-42.1-81.8-55.5  C323.7,6.7,290.7,0,255.7,0S187.9,6.7,157,20.1C126.1,33.5,98.9,52,75.4,75.5c-23.5,23.6-42,50.8-55.3,81.7C6.7,188.1,0,221,0,256  s6.7,67.9,20.1,98.8c13.4,30.9,31.9,58.1,55.5,81.7c23.6,23.6,50.8,42.1,81.7,55.5C188.1,505.3,221,512,256,512z" class="hierarchical-0:tertiary SFSymbolsPreview8E8E8E" style="fill: #8E8E8E;"/>
<path d="M256,394.8c-19.1,0-37-3.6-53.7-10.8c-16.7-7.2-31.5-17.2-44.3-30.1c-12.8-12.9-22.8-27.7-30.1-44.4  c-7.3-16.7-10.9-34.6-10.9-53.5s3.6-36.8,10.9-53.6c7.3-16.8,17.3-31.6,30-44.4c12.7-12.8,27.4-22.8,44.2-30.1  c16.7-7.3,34.6-10.9,53.7-10.9c18.9,0,36.8,3.6,53.6,10.9c16.8,7.3,31.6,17.3,44.4,30.1c12.8,12.8,22.8,27.6,30.1,44.4  c7.3,16.8,10.9,34.7,10.9,53.6s-3.6,36.7-10.9,53.5c-7.3,16.7-17.3,31.5-30.1,44.4c-12.8,12.9-27.6,22.9-44.3,30.1  C292.7,391.2,274.9,394.8,256,394.8z M185.2,273.6h70.5c3.5,0,6.5-1.2,9-3.5c2.5-2.3,3.8-5.3,3.8-8.8v-91.4c0-3.5-1.3-6.5-3.8-8.9  c-2.5-2.4-5.5-3.6-9-3.6c-3.5,0-6.5,1.2-9,3.6c-2.5,2.4-3.8,5.4-3.8,8.9v78.8h-57.7c-3.7,0-6.7,1.2-9,3.5c-2.3,2.3-3.5,5.4-3.5,9  c0,3.7,1.2,6.7,3.5,8.9C178.5,272.4,181.5,273.6,185.2,273.6z" class="hierarchical-1:primary SFSymbolsPreview212121" style="fill: #212121;"/>
</svg>