<?xml version="1.0" ?><!-- Generator: Adobe Illustrator 25.0.0, SVG Export Plug-In . SVG Version: 6.00 Build 0)  --><svg xmlns="http://www.w3.org/2000/svg" xmlns:xlink="http://www.w3.org/1999/xlink" version="1.1" id="Layer_1" x="0px" y="0px" viewBox="0 0 512 512" style="enable-background:new 0 0 512 512;" xml:space="preserve">
<path d="M256,512c35,0,67.9-6.7,98.8-20.1c30.9-13.4,58.1-31.9,81.7-55.5c23.6-23.6,42.1-50.8,55.5-81.7  C505.3,323.9,512,291,512,256s-6.7-67.9-20.1-98.8c-13.4-30.9-31.9-58.1-55.5-81.7c-23.6-23.6-50.9-42.1-81.8-55.5  C323.7,6.7,290.7,0,255.7,0S187.9,6.7,157,20.1C126.1,33.5,98.9,52,75.4,75.5c-23.5,23.6-42,50.8-55.3,81.7C6.7,188.1,0,221,0,256  s6.7,67.9,20.1,98.8c13.4,30.9,31.9,58.1,55.5,81.7c23.6,23.6,50.8,42.1,81.7,55.5C188.1,505.3,221,512,256,512z M256,469.3  c-29.6,0-57.3-5.5-83.1-16.6c-25.8-11-48.4-26.3-67.9-45.8c-19.5-19.5-34.7-42.1-45.7-67.9c-11-25.8-16.4-53.5-16.4-83.1  c0-29.6,5.5-57.3,16.4-83.1c11-25.8,26.1-48.4,45.6-68s42-34.8,67.8-45.8c25.8-11,53.5-16.4,83.1-16.4c29.6,0,57.3,5.5,83.1,16.4  c25.8,11,48.4,26.2,68,45.8c19.6,19.6,34.9,42.2,45.9,68c11,25.8,16.6,53.5,16.6,83.1c0,29.6-5.5,57.3-16.4,83.1  c-11,25.8-26.2,48.4-45.7,67.9c-19.5,19.5-42.2,34.8-68,45.8C313.3,463.8,285.6,469.3,256,469.3z" class="hierarchical-0:secondary SFSymbolsPreview4D4D4D" style="fill: #4D4D4D;"/>
<path d="M256,390.8c18.4,0,35.7-3.6,52-10.7c16.2-7.1,30.5-16.9,42.9-29.2c12.4-12.4,22.1-26.7,29.1-42.9c7-16.2,10.5-33.5,10.5-52  s-3.5-35.7-10.5-52c-7-16.2-16.7-30.6-29.1-43c-12.4-12.5-26.7-22.2-43-29.2c-16.3-7-33.7-10.5-52.1-10.5c-18.4,0-35.7,3.5-52,10.5  c-16.2,7-30.5,16.8-42.9,29.2c-12.4,12.5-22.1,26.8-29.1,43c-7,16.2-10.5,33.5-10.5,52s3.5,35.7,10.5,52c7,16.2,16.8,30.5,29.2,42.9  c12.5,12.4,26.8,22.1,43,29.2C220.3,387.2,237.6,390.8,256,390.8z M187.2,273.1c-3.5,0-6.4-1.1-8.7-3.4c-2.3-2.3-3.4-5.1-3.4-8.7  c0-3.5,1.1-6.4,3.4-8.7c2.3-2.3,5.1-3.4,8.7-3.4h56.2v-76.5c0-3.3,1.2-6.2,3.5-8.5c2.3-2.3,5.3-3.5,8.8-3.5c3.3,0,6.2,1.2,8.7,3.5  c2.4,2.3,3.6,5.2,3.6,8.5V261c0,3.3-1.2,6.2-3.6,8.5c-2.4,2.3-5.3,3.5-8.7,3.5H187.2z" class="hierarchical-1:primary SFSymbolsPreview212121" style="fill: #212121;"/>
</svg>