<?xml version="1.0" encoding="UTF-8"?>
<!--Generator: Apple Native CoreSVG 326-->
<!DOCTYPE svg
PUBLIC "-//W3C//DTD SVG 1.1//EN"
       "http://www.w3.org/Graphics/SVG/1.1/DTD/svg11.dtd">
<svg version="1.1" xmlns="http://www.w3.org/2000/svg" xmlns:xlink="http://www.w3.org/1999/xlink" viewBox="0 0 29.5605 31.8856">
 <g>
  <rect height="31.8856" opacity="0" width="29.5605" x="0" y="0"/>
  <path d="M24.0723 30.3422C24.4043 30.5278 24.7949 30.4203 24.9902 30.0785L26.7188 27.0903C26.9238 26.7485 26.8164 26.3578 26.4844 26.1625C26.1523 25.977 25.7812 26.0844 25.5762 26.4262L23.8379 29.434C23.6426 29.766 23.7305 30.1469 24.0723 30.3422Z" fill="black" fill-opacity="0.85"/>
  <path d="M21.6016 26.8266C21.9336 27.0121 22.3242 26.8949 22.5195 26.5531L24.248 23.5649C24.4531 23.2231 24.3457 22.8324 24.0137 22.6371C23.6816 22.4516 23.3105 22.559 23.1055 22.9106L21.3672 25.9184C21.1719 26.2406 21.2695 26.6313 21.6016 26.8266Z" fill="black" fill-opacity="0.85"/>
  <path d="M17.8809 25.5082L15.1465 25.5082L15.1562 26.016L16.7676 22.9399C16.9043 22.6664 16.7969 22.4516 16.5137 22.4516L14.1895 22.4516C13.8379 22.4516 13.7012 22.5785 13.5938 22.8422L11.8652 26.7875C11.7285 27.1 11.875 27.2856 12.207 27.2856L14.4141 27.2856L14.5703 26.5336L12.5293 31.4946C12.4609 31.6703 12.5 31.8168 12.6172 31.8656C12.7344 31.9145 12.8809 31.8754 13.0078 31.7289L18.0957 26.1235C18.3496 25.85 18.2422 25.5082 17.8809 25.5082Z" fill="black" fill-opacity="0.85"/>
  <path d="M6.68945 30.3422C7.02148 30.5278 7.41211 30.4203 7.60742 30.0785L9.33594 27.0903C9.54102 26.7485 9.43359 26.3578 9.10156 26.1625C8.76953 25.977 8.39844 26.0844 8.19336 26.4262L6.45508 29.434C6.25977 29.766 6.35742 30.1469 6.68945 30.3422Z" fill="black" fill-opacity="0.85"/>
  <path d="M4.21875 26.8266C4.55078 27.0121 4.95117 26.8949 5.13672 26.5531L6.86523 23.5649C7.07031 23.2231 6.96289 22.8324 6.64062 22.6371C6.29883 22.4516 5.92773 22.559 5.72266 22.9106L3.98438 25.9184C3.78906 26.2406 3.88672 26.6313 4.21875 26.8266Z" fill="black" fill-opacity="0.85"/>
  <path d="M6.73828 20.6254L22.4316 20.6254C26.5039 20.6254 29.5605 17.5395 29.5605 13.7114C29.5605 9.75627 26.3184 6.86565 22.0996 6.86565C20.5176 3.72112 17.6465 1.68987 13.9551 1.68987C9.26758 1.68987 5.41016 5.41057 5 10.0883C2.69531 10.7426 0.927734 12.686 0.927734 15.3422C0.927734 18.2524 3.05664 20.6254 6.73828 20.6254Z" fill="black" fill-opacity="0.85"/>
 </g>
</svg>
