<?xml version="1.0" encoding="UTF-8"?>
<!--Generator: Apple Native CoreSVG 326-->
<!DOCTYPE svg
PUBLIC "-//W3C//DTD SVG 1.1//EN"
       "http://www.w3.org/Graphics/SVG/1.1/DTD/svg11.dtd">
<svg version="1.1" xmlns="http://www.w3.org/2000/svg" xmlns:xlink="http://www.w3.org/1999/xlink" viewBox="0 0 25.8008 25.459">
 <g>
  <rect height="25.459" opacity="0" width="25.8008" x="0" y="0"/>
  <path d="M12.7148 25.4395C19.7363 25.4395 25.4395 19.7461 25.4395 12.7246C25.4395 5.70312 19.7363 0 12.7148 0C5.69336 0 0 5.70312 0 12.7246C0 19.7461 5.69336 25.4395 12.7148 25.4395ZM12.7148 23.623C6.68945 23.623 1.81641 18.75 1.81641 12.7246C1.81641 6.69922 6.68945 1.82617 12.7148 1.82617C18.7402 1.82617 23.6133 6.69922 23.6133 12.7246C23.6133 18.75 18.7402 23.623 12.7148 23.623Z" fill="black" fill-opacity="0.85"/>
  <path d="M8.85742 13.9062L16.4648 13.9062C18.418 13.9062 19.9121 12.4121 19.9121 10.5566C19.9121 8.64258 18.3398 7.24609 16.2988 7.24609C15.5273 5.73242 14.1406 4.73633 12.3633 4.73633C10.0879 4.73633 8.22266 6.54297 8.00781 8.81836C6.9043 9.13086 6.04492 10.0684 6.04492 11.3477C6.04492 12.7539 7.07031 13.9062 8.85742 13.9062ZM9.59961 17.2363L10.3613 15.918C10.498 15.6836 10.4199 15.3516 10.166 15.2051C9.92188 15.0586 9.59961 15.1562 9.46289 15.4004L8.70117 16.709C8.56445 16.9531 8.63281 17.2852 8.89648 17.4316C9.14062 17.5684 9.46289 17.4707 9.59961 17.2363ZM13.0664 17.2363L13.8281 15.918C13.9648 15.6836 13.8965 15.3516 13.6328 15.2051C13.3887 15.0586 13.0664 15.1562 12.9297 15.4004L12.168 16.709C12.0312 16.9531 12.1094 17.2852 12.3633 17.4316C12.6074 17.5684 12.9297 17.4707 13.0664 17.2363ZM16.5332 17.2363L17.2949 15.918C17.4316 15.6836 17.3535 15.3516 17.0996 15.2051C16.8555 15.0586 16.5332 15.1562 16.3965 15.4004L15.6348 16.709C15.498 16.9531 15.5664 17.2852 15.8301 17.4316C16.0742 17.5684 16.3965 17.4707 16.5332 17.2363ZM8.11523 20.2832C8.27148 20.2832 8.4082 20.1465 8.39844 19.9805L8.36914 19.4238L8.80859 19.7168C8.93555 19.8047 9.13086 19.7559 9.21875 19.6484C9.31641 19.502 9.28711 19.2969 9.0918 19.1992L8.62305 18.9746L9.0918 18.7402C9.26758 18.6426 9.30664 18.4668 9.23828 18.3301C9.16016 18.1836 8.94531 18.1543 8.80859 18.2422L8.36914 18.5254L8.39844 17.9883C8.4082 17.8027 8.27148 17.666 8.11523 17.666C7.93945 17.666 7.8125 17.8125 7.82227 17.9883L7.85156 18.5254L7.40234 18.2422C7.27539 18.1445 7.08008 18.1738 6.99219 18.3203C6.92383 18.4375 6.94336 18.6523 7.12891 18.7402L7.58789 18.9746L7.12891 19.1992C6.93359 19.2871 6.89453 19.4824 6.98242 19.6289C7.06055 19.7852 7.26562 19.8047 7.40234 19.7168L7.85156 19.4238L7.83203 19.9805C7.83203 20.1367 7.93945 20.2832 8.11523 20.2832ZM11.5918 20.2832C11.748 20.2832 11.8848 20.1465 11.8652 19.9805L11.8457 19.4238L12.2852 19.7168C12.4121 19.8047 12.6074 19.7559 12.6855 19.6484C12.793 19.502 12.7637 19.2969 12.5684 19.1992L12.0996 18.9746L12.5684 18.7402C12.7441 18.6426 12.7734 18.4668 12.7051 18.3301C12.6367 18.1836 12.4219 18.1543 12.2852 18.2422L11.8457 18.5254L11.8652 17.9883C11.8848 17.8027 11.748 17.666 11.5918 17.666C11.416 17.666 11.2891 17.8125 11.2988 17.9883L11.3184 18.5254L10.8691 18.2422C10.7422 18.1445 10.5469 18.1738 10.4688 18.3203C10.4004 18.4375 10.4199 18.6523 10.5957 18.7402L11.0547 18.9746L10.5957 19.1992C10.4102 19.2871 10.3613 19.4824 10.4492 19.6289C10.5371 19.7852 10.7324 19.8047 10.8691 19.7168L11.3184 19.4238L11.3086 19.9805C11.3086 20.1367 11.416 20.2832 11.5918 20.2832ZM15.0488 20.2832C15.2148 20.2832 15.3418 20.1465 15.332 19.9805L15.3027 19.4238L15.7422 19.7168C15.8789 19.8047 16.0742 19.7559 16.1523 19.6484C16.25 19.502 16.2207 19.2871 16.0254 19.1992L15.5664 18.9746L16.0254 18.7402C16.2012 18.6523 16.2402 18.4668 16.1719 18.3301C16.0938 18.1836 15.8789 18.1543 15.7422 18.2422L15.3027 18.5254L15.332 17.9883C15.3418 17.8027 15.2148 17.666 15.0488 17.666C14.873 17.666 14.7461 17.8125 14.7559 17.9883L14.7852 18.5254L14.3359 18.2422C14.209 18.1445 14.0137 18.1738 13.9258 18.3203C13.8574 18.4375 13.877 18.6523 14.0625 18.7402L14.5215 18.9746L14.0625 19.1992C13.8672 19.2871 13.8281 19.4824 13.916 19.6289C13.9941 19.7852 14.1992 19.8047 14.3359 19.7168L14.7852 19.4238L14.7656 19.9805C14.7656 20.1367 14.873 20.2832 15.0488 20.2832Z" fill="black" fill-opacity="0.85"/>
 </g>
</svg>
