<?xml version="1.0" encoding="UTF-8"?>
<!--Generator: Apple Native CoreSVG 326-->
<!DOCTYPE svg
PUBLIC "-//W3C//DTD SVG 1.1//EN"
       "http://www.w3.org/Graphics/SVG/1.1/DTD/svg11.dtd">
<svg version="1.1" xmlns="http://www.w3.org/2000/svg" xmlns:xlink="http://www.w3.org/1999/xlink" viewBox="0 0 25.8008 25.459">
 <g>
  <rect height="25.459" opacity="0" width="25.8008" x="0" y="0"/>
  <path d="M25.4395 12.7344C25.4395 19.7461 19.7266 25.459 12.7148 25.459C5.71289 25.459 0 19.7461 0 12.7344C0 5.73242 5.71289 0.0195312 12.7148 0.0195312C19.7266 0.0195312 25.4395 5.73242 25.4395 12.7344ZM9.67773 17.0312C9.48242 17.0312 9.39453 17.0898 9.32617 17.2363L8.4668 19.2285C8.38867 19.3945 8.4668 19.5312 8.65234 19.5312L9.6875 19.5312L8.82812 21.6211C8.75977 21.8164 8.98438 21.9238 9.12109 21.7676L11.748 18.916C11.8848 18.7402 11.8164 18.5547 11.6113 18.5547L10.3711 18.5547L11.0352 17.3145C11.1133 17.1582 11.0449 17.0312 10.8887 17.0312ZM5.72266 11.6504C4.73633 11.9824 4.00391 12.832 4.00391 13.9551C4.00391 15.3027 5.0293 16.3184 6.57227 16.3184L13.1543 16.3184C14.9023 16.3184 16.25 14.9805 16.25 13.2715C16.25 11.5918 14.8926 10.3125 13.0859 10.2734C12.373 8.94531 11.1426 8.10547 9.59961 8.10547C7.61719 8.10547 5.94727 9.6582 5.72266 11.6504ZM18.1055 12.9492C17.9199 13.1543 17.9004 13.4961 18.1055 13.7012L19.1309 14.707C19.3359 14.9219 19.668 14.8926 19.873 14.6973C20.0586 14.4922 20.0781 14.1406 19.873 13.9453L18.8672 12.9492C18.6719 12.7539 18.3203 12.7539 18.1055 12.9492ZM12.8516 8.58398C13.1348 8.84766 13.3594 9.14062 13.584 9.47266C15.4395 9.70703 16.8652 11.0352 17.0605 12.8125C17.9297 12.2266 18.457 11.2988 18.457 10.2344C18.457 8.52539 17.0996 7.1875 15.4004 7.1875C14.3262 7.1875 13.3691 7.74414 12.8516 8.58398ZM19.7559 9.70703C19.4824 9.70703 19.2383 9.93164 19.2383 10.2344C19.2383 10.5273 19.4824 10.752 19.7559 10.752L21.1719 10.752C21.4746 10.752 21.709 10.5273 21.709 10.2344C21.709 9.93164 21.4746 9.70703 21.1719 9.70703ZM10.9473 5.77148C10.752 5.95703 10.752 6.30859 10.9473 6.52344L11.9531 7.53906C12.1582 7.74414 12.5098 7.72461 12.7148 7.5293C12.8906 7.33398 12.9102 6.98242 12.7148 6.78711L11.6992 5.77148C11.4746 5.57617 11.1523 5.58594 10.9473 5.77148ZM19.1309 5.77148L18.1055 6.78711C17.9004 6.98242 17.9199 7.32422 18.1055 7.5293C18.3105 7.72461 18.6719 7.74414 18.8672 7.53906L19.873 6.52344C20.0684 6.30859 20.0586 5.9668 19.873 5.77148C19.668 5.58594 19.3457 5.56641 19.1309 5.77148ZM14.8633 4.45312L14.8633 5.87891C14.8633 6.16211 15.1172 6.40625 15.4004 6.40625C15.7129 6.40625 15.9473 6.16211 15.9473 5.87891L15.9473 4.45312C15.9473 4.16016 15.7129 3.92578 15.4004 3.92578C15.1172 3.92578 14.8633 4.16016 14.8633 4.45312Z" fill="black" fill-opacity="0.85"/>
 </g>
</svg>
