<?xml version="1.0" ?><!-- Generator: Adobe Illustrator 25.0.0, SVG Export Plug-In . SVG Version: 6.00 Build 0)  --><svg xmlns="http://www.w3.org/2000/svg" xmlns:xlink="http://www.w3.org/1999/xlink" version="1.1" id="Layer_1" x="0px" y="0px" viewBox="0 0 512 512" style="enable-background:new 0 0 512 512;" xml:space="preserve">
<path d="M105.8,334.5h277.7c71.2,0,125.7-53.7,125.7-122.4c0-69.6-57.3-121.7-133.1-121C347.4,33.3,294.8,0,232.8,0  C150.3,0,80.7,65.1,74.4,148.6C31,160.4,2.8,196.9,2.8,241C2.8,296.5,44.4,334.5,105.8,334.5z M289.7,441.7l29.1-50.3  c4-6.9,1.8-14.8-4.9-18.6c-6.7-4-14.3-1.8-18.3,5.1L266,428.7c-3.6,6.5-1.8,14.3,5.1,18.3C277.8,450.6,285.9,448.4,289.7,441.7z   M111.6,441.9l29.1-50.3c4-6.9,2-14.8-4.7-18.6c-6.9-4-14.5-1.8-18.6,5.1l-29.3,50.8c-3.8,6.5-1.8,14.3,4.9,18.1  C99.7,450.9,107.8,448.6,111.6,441.9z M359.5,504.8l29.1-50.6c4.3-6.7,2-14.5-4.7-18.6c-6.7-3.8-14.3-1.6-18.6,5.1l-29.3,51  c-3.8,6.3-1.8,14.1,5.1,18.1C347.6,513.7,355.7,511.5,359.5,504.8z M181.6,505l29.1-50.6c4-6.7,1.8-14.5-4.7-18.6  c-6.9-3.8-14.5-1.6-18.6,5.1l-29.3,51c-3.8,6.3-2,14.1,4.9,18.1C169.7,514,177.8,511.7,181.6,505z"/>
</svg>