<?xml version="1.0" encoding="UTF-8"?>
<!--Generator: Apple Native CoreSVG 326-->
<!DOCTYPE svg
PUBLIC "-//W3C//DTD SVG 1.1//EN"
       "http://www.w3.org/Graphics/SVG/1.1/DTD/svg11.dtd">
<svg version="1.1" xmlns="http://www.w3.org/2000/svg" xmlns:xlink="http://www.w3.org/1999/xlink" viewBox="0 0 25.8008 25.459">
 <g>
  <rect height="25.459" opacity="0" width="25.8008" x="0" y="0"/>
  <path d="M12.7148 25.4395C19.7363 25.4395 25.4395 19.7461 25.4395 12.7246C25.4395 5.70312 19.7363 0 12.7148 0C5.69336 0 0 5.70312 0 12.7246C0 19.7461 5.69336 25.4395 12.7148 25.4395ZM12.7148 23.623C6.68945 23.623 1.81641 18.75 1.81641 12.7246C1.81641 6.69922 6.68945 1.82617 12.7148 1.82617C18.7402 1.82617 23.6133 6.69922 23.6133 12.7246C23.6133 18.75 18.7402 23.623 12.7148 23.623Z" fill="black" fill-opacity="0.85"/>
  <path d="M8.60352 13.9648L16.2012 13.9648C18.1543 13.9648 19.6582 12.4707 19.6582 10.6152C19.6582 8.70117 18.0762 7.30469 16.0352 7.30469C15.2637 5.78125 13.8867 4.78516 12.0996 4.78516C9.82422 4.78516 7.95898 6.5918 7.75391 8.86719C6.64062 9.17969 5.78125 10.1172 5.78125 11.4062C5.78125 12.8125 6.80664 13.9648 8.60352 13.9648ZM10.7812 17.5488C10.6836 17.7441 10.7812 17.9004 11.0059 17.9004L12.207 17.9004L11.1914 20.3906C11.1328 20.5176 11.1719 20.6152 11.2598 20.6641C11.3281 20.6738 11.4355 20.6641 11.5234 20.5566L14.6094 17.1777C14.7656 16.9824 14.6973 16.7578 14.4434 16.7578L13.0176 16.7578L13.7988 15.2637C13.8867 15.0781 13.8184 14.9316 13.623 14.9316L12.207 14.9316C11.9824 14.9316 11.875 15.0098 11.8066 15.1758ZM8.57422 17.7246L9.53125 16.084C9.67773 15.8301 9.58984 15.5078 9.32617 15.3613C9.0918 15.2246 8.7793 15.3125 8.63281 15.5664L7.67578 17.207C7.5293 17.4609 7.60742 17.7832 7.87109 17.9297C8.11523 18.0664 8.42773 17.9785 8.57422 17.7246ZM16.8066 17.7246L17.7637 16.084C17.9102 15.8301 17.8223 15.5078 17.5586 15.3613C17.3145 15.2246 17.0117 15.3125 16.8652 15.5664L15.9082 17.207C15.7617 17.4609 15.8398 17.7832 16.1035 17.9297C16.3477 18.0664 16.6602 17.9785 16.8066 17.7246Z" fill="black" fill-opacity="0.85"/>
 </g>
</svg>
