<?xml version="1.0" ?><!-- Generator: Adobe Illustrator 25.0.0, SVG Export Plug-In . SVG Version: 6.00 Build 0)  --><svg xmlns="http://www.w3.org/2000/svg" xmlns:xlink="http://www.w3.org/1999/xlink" version="1.1" id="Layer_1" x="0px" y="0px" viewBox="0 0 512 512" style="enable-background:new 0 0 512 512;" xml:space="preserve">
<path d="M115.7,312.4H375c66.5,0,117.4-50.2,117.4-114.3c0-65-53.5-113.7-124.3-113.1C341.4,31.1,292.3,0,234.4,0  c-77.1,0-142.1,60.8-148,138.8c-40.5,11.1-66.9,45.1-66.9,86.3C19.5,276.9,58.4,312.4,115.7,312.4z M142.6,390.4l14-24.9  c3.6-6.1,1.9-13.6-4.4-17.3c-6.5-3.6-13.8-1.3-17.3,4.8L120.7,378c-3.3,6.1-1.9,13.4,4.6,17.1C131.6,398.5,139.1,396.4,142.6,390.4z   M233.7,422.3l32.6-56.4c3.6-6.5,1.7-13.8-4.4-17.6c-6.5-3.6-13.8-1.5-17.3,4.8l-32.8,57.1c-3.6,5.9-1.7,13.2,4.8,16.9  C222.7,430.7,230.2,428.4,233.7,422.3z M361.6,391.2l14-24.9c3.6-6.1,1.9-13.6-4.4-17.3c-6.5-3.6-13.8-1.5-17.3,4.8l-14.2,25.1  c-3.3,6.1-1.9,13.4,4.6,17.1C350.6,399.4,358.1,397.3,361.6,391.2z M103.8,480c4,0,6.7-3.6,6.5-7.5l-1.5-19.9l16.7,11.3  c2.9,2.1,7.5,1.3,9.6-1.9c2.1-3.1,0.8-7.9-3.1-9.8l-18-8.8l18.2-9c3.8-1.9,4.8-6.5,3.1-9.6c-1.9-3.3-6.9-4-9.8-1.9l-16.7,11.5  l1.7-20.1c0.4-4.2-2.7-7.5-6.7-7.5c-4.2,0-6.9,3.3-6.7,7.5l1.5,20.1L81.6,423c-2.9-2.1-7.5-1.7-9.4,1.9c-1.9,3.1-1,7.5,2.9,9.6l18,9  l-18,8.8c-4.2,1.9-5,6.5-3.3,9.8c1.9,3.3,6.9,4,9.8,1.9l16.9-11.3l-1.3,19.9C97.1,476.5,99.6,480,103.8,480z M322.8,480.9  c4,0,6.7-3.6,6.5-7.5l-1.5-19.9l16.7,11.3c2.9,2.1,7.5,1.3,9.6-1.9c2.1-3.1,0.8-7.9-3.1-9.8l-18-8.8l18.2-9c3.8-1.9,4.8-6.5,3.1-9.6  c-1.9-3.3-6.9-4-9.8-1.9l-16.7,11.5l1.7-20.1c0.4-4.2-2.7-7.5-6.7-7.5c-4.2,0-6.9,3.3-6.7,7.5l1.5,20.1l-16.9-11.5  c-2.9-2.1-7.5-1.7-9.4,1.9c-1.9,3.1-1,7.5,2.9,9.6l18,9l-18,8.8c-4.2,1.9-5,6.5-3.3,9.8c1.9,3.3,6.9,4,9.8,1.9l16.9-11.3l-1.3,19.9  C316.1,477.3,318.6,480.9,322.8,480.9z M203.7,512c3.8,0,6.5-3.6,6.3-7.5l-1.5-19.9l16.7,11.3c2.9,2.1,7.7,1.3,9.8-1.9  c1.9-3.1,0.8-7.9-3.3-9.8l-18-8.8l18.2-9c4-1.9,4.8-6.5,3.3-9.6c-1.9-3.3-7.1-4-10-1.9l-16.7,11.5l1.7-20.1c0.4-4.2-2.7-7.5-6.5-7.5  c-4.4,0-6.9,3.3-6.7,7.5l1.3,20.1l-16.9-11.5c-2.9-2.1-7.3-1.7-9.4,1.9c-1.9,3.1-1,7.5,2.9,9.6l18,9l-18,8.8c-4,1.9-5,6.5-3.1,9.8  c1.9,3.3,6.7,4,9.6,1.9l16.9-11.3l-1,19.9C197,508.4,199.3,512,203.7,512z"/>
</svg>