<?xml version="1.0" ?><!-- Generator: Adobe Illustrator 25.0.0, SVG Export Plug-In . SVG Version: 6.00 Build 0)  --><svg xmlns="http://www.w3.org/2000/svg" xmlns:xlink="http://www.w3.org/1999/xlink" version="1.1" id="Layer_1" x="0px" y="0px" viewBox="0 0 512 512" style="enable-background:new 0 0 512 512;" xml:space="preserve">
<path d="M105.9,334.2h277.4c71.1,0,125.6-53.6,125.6-122.3c0-69.5-57.2-121.6-133-120.9C347.3,33.3,294.8,0,232.9,0  c-82.5,0-152,65-158.3,148.4c-43.4,11.8-71.5,48.3-71.5,92.3C3.1,296.2,44.7,334.2,105.9,334.2z M65.9,505.2l65.5-113.8  c4.2-7.2,2-14.8-4.7-18.8c-6.7-3.8-14.3-1.8-18.6,5.1L42.4,492c-3.6,6.5-1.8,14.3,4.9,18.3C54.1,513.9,62.1,511.6,65.9,505.2z   M154.9,505.2l65.7-113.8c4-7.2,1.8-14.8-4.7-18.8c-6.9-3.8-14.5-1.8-18.6,5.1L131.4,492c-3.6,6.5-1.8,14.3,5.1,18.3  C143.2,513.9,151.3,511.6,154.9,505.2z M243.8,505.2l65.7-113.8c4-7.2,1.8-14.8-4.7-18.8c-6.9-3.8-14.5-1.8-18.6,5.1L220.3,492  c-3.6,6.5-1.8,14.3,5.1,18.3C232,513.9,240.2,511.6,243.8,505.2z M332.3,505.4l65.9-114.4c4-6.7,2-14.8-4.7-18.3  c-6.5-3.4-14.3-1.8-18.3,4.9l-65.5,114c-4,6.9-2.2,14.8,4.5,18.8C320.5,513.9,328.8,511.6,332.3,505.4z"/>
</svg>