<?xml version="1.0" encoding="UTF-8"?>
<!--Generator: Apple Native CoreSVG 326-->
<!DOCTYPE svg
PUBLIC "-//W3C//DTD SVG 1.1//EN"
       "http://www.w3.org/Graphics/SVG/1.1/DTD/svg11.dtd">
<svg version="1.1" xmlns="http://www.w3.org/2000/svg" xmlns:xlink="http://www.w3.org/1999/xlink" viewBox="0 0 29.5605 29.0571">
 <g>
  <rect height="29.0571" opacity="0" width="29.5605" x="0" y="0"/>
  <path d="M20.918 28.6936L22.6367 25.7053C22.8516 25.3538 22.7441 24.9729 22.4121 24.7776C22.0801 24.592 21.709 24.6995 21.4941 25.0413L19.7559 28.0491C19.5703 28.3811 19.6582 28.762 20 28.9573C20.332 29.1428 20.7227 29.0354 20.918 28.6936Z" fill="black" fill-opacity="0.85"/>
  <path d="M16.9531 25.1487L18.6816 22.1604C18.8965 21.8186 18.7891 21.428 18.457 21.2327C18.125 21.0471 17.7441 21.1545 17.5391 21.4963L15.8008 24.5139C15.6152 24.8362 15.7031 25.217 16.0449 25.4124C16.3672 25.5979 16.7676 25.4905 16.9531 25.1487Z" fill="black" fill-opacity="0.85"/>
  <path d="M10.8887 28.7034L12.6172 25.7151C12.8223 25.3635 12.7148 24.9827 12.3828 24.7874C12.0508 24.6018 11.6797 24.7092 11.4746 25.051L9.73633 28.0588C9.54102 28.3909 9.62891 28.7717 9.9707 28.967C10.3027 29.1526 10.6934 29.0452 10.8887 28.7034Z" fill="black" fill-opacity="0.85"/>
  <path d="M6.93359 25.1584L8.66211 22.1702C8.86719 21.8284 8.75977 21.4377 8.42773 21.2424C8.0957 21.0569 7.72461 21.1643 7.50977 21.5159L5.78125 24.5237C5.58594 24.8459 5.67383 25.2366 6.01562 25.4319C6.34766 25.6077 6.73828 25.5002 6.93359 25.1584Z" fill="black" fill-opacity="0.85"/>
  <path d="M6.73828 19.2112L22.4316 19.2112C26.5039 19.2112 29.5605 16.1252 29.5605 12.2971C29.5605 8.34204 26.3184 5.45142 22.0996 5.45142C20.5176 2.30689 17.6465 0.275637 13.9551 0.275637C9.26758 0.275637 5.41016 3.99634 5 8.67407C2.69531 9.32837 0.927734 11.2717 0.927734 13.928C0.927734 16.8381 3.05664 19.2112 6.73828 19.2112Z" fill="black" fill-opacity="0.85"/>
 </g>
</svg>
