<?xml version="1.0" encoding="UTF-8"?>
<!--Generator: Apple Native CoreSVG 326-->
<!DOCTYPE svg
PUBLIC "-//W3C//DTD SVG 1.1//EN"
       "http://www.w3.org/Graphics/SVG/1.1/DTD/svg11.dtd">
<svg version="1.1" xmlns="http://www.w3.org/2000/svg" xmlns:xlink="http://www.w3.org/1999/xlink" viewBox="0 0 25.8008 25.459">
 <g>
  <rect height="25.459" opacity="0" width="25.8008" x="0" y="0"/>
  <path d="M12.7148 25.4395C19.7363 25.4395 25.4395 19.7461 25.4395 12.7246C25.4395 5.70312 19.7363 0 12.7148 0C5.69336 0 0 5.70312 0 12.7246C0 19.7461 5.69336 25.4395 12.7148 25.4395ZM12.7148 23.623C6.68945 23.623 1.81641 18.75 1.81641 12.7246C1.81641 6.69922 6.68945 1.82617 12.7148 1.82617C18.7402 1.82617 23.6133 6.69922 23.6133 12.7246C23.6133 18.75 18.7402 23.623 12.7148 23.623Z" fill="black" fill-opacity="0.85"/>
  <path d="M7.1875 15.7812L13.6035 15.7812C15.3125 15.7812 16.6309 14.4727 16.6309 12.8027C16.6309 11.1719 15.3125 9.92188 13.5449 9.87305C12.8516 8.58398 11.6406 7.76367 10.1367 7.76367C8.20312 7.76367 6.57227 9.28711 6.35742 11.2207C5.38086 11.543 4.67773 12.3828 4.67773 13.4863C4.67773 14.7852 5.67383 15.7812 7.1875 15.7812ZM20.8203 9.60938C20.8203 9.39453 20.7227 9.25781 20.5566 9.25781C20.293 9.25781 19.7754 9.59961 19.0039 9.59961C17.4609 9.59961 16.4941 8.68164 16.4941 7.26562C16.4941 6.47461 16.9043 5.89844 16.9043 5.60547C16.9043 5.42969 16.7578 5.32227 16.5332 5.33203C15.2246 5.42969 13.8574 6.92383 13.6914 8.64258C13.8184 8.7793 13.916 8.93555 14.0234 9.08203C15.8984 9.30664 17.2949 10.6738 17.4512 12.4707C19.6387 12.2168 20.8203 10.5859 20.8203 9.60938ZM9.0332 18.623C8.95508 18.7988 9.04297 18.9258 9.22852 18.9258L10.2246 18.9258L9.39453 20.9668C9.31641 21.1523 9.55078 21.2598 9.67773 21.1035L12.2266 18.3203C12.3633 18.1543 12.2949 17.9688 12.0898 17.9688L10.8984 17.9688L11.5332 16.7578C11.6211 16.6016 11.5527 16.4746 11.3867 16.4746L10.2246 16.4746C10.0293 16.4746 9.95117 16.543 9.88281 16.6895Z" fill="black" fill-opacity="0.85"/>
 </g>
</svg>
