<?xml version="1.0" encoding="UTF-8"?>
<!--Generator: Apple Native CoreSVG 326-->
<!DOCTYPE svg
PUBLIC "-//W3C//DTD SVG 1.1//EN"
       "http://www.w3.org/Graphics/SVG/1.1/DTD/svg11.dtd">
<svg version="1.1" xmlns="http://www.w3.org/2000/svg" xmlns:xlink="http://www.w3.org/1999/xlink" viewBox="0 0 25.8008 25.459">
 <g>
  <rect height="25.459" opacity="0" width="25.8008" x="0" y="0"/>
  <path d="M25.4395 12.7344C25.4395 19.7461 19.7266 25.459 12.7148 25.459C5.71289 25.459 0 19.7461 0 12.7344C0 5.73242 5.71289 0.0195312 12.7148 0.0195312C19.7266 0.0195312 25.4395 5.73242 25.4395 12.7344ZM6.91406 19.5312C6.91406 19.9707 7.28516 20.3516 7.73438 20.3516C8.18359 20.3516 8.56445 19.9707 8.56445 19.5312C8.56445 19.082 8.18359 18.7012 7.73438 18.7012C7.28516 18.7012 6.91406 19.082 6.91406 19.5312ZM10.4688 19.5312C10.4688 19.9707 10.8398 20.3516 11.2988 20.3516C11.748 20.3516 12.1191 19.9707 12.1191 19.5312C12.1191 19.082 11.748 18.7012 11.2988 18.7012C10.8398 18.7012 10.4688 19.082 10.4688 19.5312ZM14.0137 19.5312C14.0137 19.9707 14.3945 20.3516 14.8438 20.3516C15.293 20.3516 15.6641 19.9707 15.6641 19.5312C15.6641 19.082 15.293 18.7012 14.8438 18.7012C14.3945 18.7012 14.0137 19.082 14.0137 19.5312ZM9.12109 15.8789L8.26172 17.334C8.125 17.5879 8.20312 17.9297 8.4668 18.0859C8.7207 18.2227 9.05273 18.125 9.18945 17.8711L10.0488 16.4062C10.1855 16.1719 10.1074 15.8301 9.84375 15.6738C9.58984 15.5273 9.25781 15.625 9.12109 15.8789ZM12.6758 15.8789L11.8262 17.334C11.6797 17.5879 11.7676 17.9297 12.0215 18.0859C12.2754 18.2227 12.6074 18.125 12.7539 17.8711L13.6035 16.4062C13.75 16.1719 13.6621 15.8301 13.4082 15.6738C13.1543 15.5273 12.8223 15.625 12.6758 15.8789ZM16.2305 15.8789L15.3711 17.334C15.2344 17.5879 15.3027 17.9297 15.5762 18.0859C15.8301 18.2227 16.1621 18.125 16.2988 17.8711L17.1582 16.4062C17.2949 16.1719 17.2168 15.8301 16.9434 15.6738C16.6895 15.5273 16.3574 15.625 16.2305 15.8789ZM7.63672 9.13086C6.50391 9.45312 5.625 10.4199 5.625 11.7285C5.625 13.1641 6.67969 14.3457 8.51562 14.3457L16.2891 14.3457C18.291 14.3457 19.834 12.8125 19.834 10.918C19.834 8.95508 18.2129 7.51953 16.123 7.51953C15.3418 5.97656 13.9258 4.94141 12.0898 4.94141C9.76562 4.94141 7.85156 6.79688 7.63672 9.13086Z" fill="black" fill-opacity="0.85"/>
 </g>
</svg>
