<?xml version="1.0" encoding="UTF-8"?>
<!--Generator: Apple Native CoreSVG 326-->
<!DOCTYPE svg
PUBLIC "-//W3C//DTD SVG 1.1//EN"
       "http://www.w3.org/Graphics/SVG/1.1/DTD/svg11.dtd">
<svg version="1.1" xmlns="http://www.w3.org/2000/svg" xmlns:xlink="http://www.w3.org/1999/xlink" viewBox="0 0 38.5645 36.3973">
 <g>
  <rect height="36.3973" opacity="0" width="38.5645" x="0" y="0"/>
  <path d="M16.4453 28.1645L15.2393 30.4399L17.627 30.4399C17.9785 30.4399 18.0762 30.7719 17.832 31.0356L12.9883 36.2406C12.8613 36.3871 12.7246 36.4262 12.6074 36.3774C12.4902 36.3285 12.4512 36.1918 12.5195 36.0258L14.1166 32.1684L12.1191 32.1684C11.8066 32.1684 11.6504 31.9828 11.7871 31.6801L13.3691 28.0668C13.4863 27.8129 13.6035 27.686 13.9551 27.686L16.2012 27.686C16.4746 27.686 16.5918 27.891 16.4453 28.1645Z" fill="black" fill-opacity="0.85"/>
  <path d="M32.7148 19.3364L34.7852 21.4164C35.1367 21.7582 35.127 22.3246 34.7852 22.6664C34.4434 23.0082 33.8965 23.0082 33.5449 22.6664L31.4551 20.5668C31.1133 20.2348 31.123 19.6684 31.4551 19.3364C31.7871 18.9946 32.3633 18.9848 32.7148 19.3364ZM31.8164 13.5063C31.8164 15.7948 30.5747 17.7927 28.724 18.8539C28.3473 15.289 25.4622 12.6395 21.6797 12.2758C21.2668 11.6116 20.7972 11.0124 20.2762 10.4867C21.3312 8.60875 23.3448 7.34416 25.6543 7.34416C29.0625 7.34416 31.8164 10.0981 31.8164 13.5063ZM38.5645 13.5063C38.5645 13.9946 38.1738 14.3949 37.6855 14.3949L34.7461 14.3949C34.2676 14.3949 33.8574 13.9946 33.8574 13.5063C33.8574 13.0278 34.2676 12.6274 34.7461 12.6274L37.6855 12.6274C38.1738 12.6274 38.5645 13.0278 38.5645 13.5063ZM34.7852 4.35588C35.127 4.69768 35.1367 5.25432 34.7852 5.60588L32.7148 7.68596C32.3633 8.03752 31.7871 8.02776 31.4551 7.68596C31.123 7.34416 31.1133 6.78752 31.4551 6.44573L33.5449 4.35588C33.8965 4.00432 34.4434 4.01409 34.7852 4.35588ZM17.7148 4.34612L19.8047 6.44573C20.1465 6.78752 20.1367 7.34416 19.8047 7.68596C19.4824 8.01799 18.8965 8.02776 18.5547 7.68596L16.4746 5.59612C16.1328 5.25432 16.1328 4.68791 16.4746 4.34612C16.8164 4.00432 17.373 4.00432 17.7148 4.34612ZM26.5234 1.43596L26.5234 4.37541C26.5234 4.84416 26.123 5.25432 25.6348 5.25432C25.1465 5.25432 24.7461 4.84416 24.7461 4.37541L24.7461 1.43596C24.7461 0.947679 25.1465 0.557054 25.6348 0.557054C26.123 0.557054 26.5234 0.947679 26.5234 1.43596Z" fill="black" fill-opacity="0.85"/>
  <path d="M7.40234 25.7231L21.084 25.7231C24.5996 25.7231 27.334 23.0766 27.334 19.6586C27.334 16.2504 24.541 13.6821 20.8203 13.6625C19.3262 10.8012 16.7383 9.16057 13.7012 9.16057C9.6582 9.16057 6.23047 12.3442 5.85938 16.4848C3.69141 17.1098 2.29492 18.8969 2.29492 21.0844C2.29492 23.8285 4.38477 25.7231 7.40234 25.7231Z" fill="black" fill-opacity="0.85"/>
 </g>
</svg>
