<?xml version="1.0" ?><!-- Generator: Adobe Illustrator 25.0.0, SVG Export Plug-In . SVG Version: 6.00 Build 0)  --><svg xmlns="http://www.w3.org/2000/svg" xmlns:xlink="http://www.w3.org/1999/xlink" version="1.1" id="Layer_1" x="0px" y="0px" viewBox="0 0 512 512" style="enable-background:new 0 0 512 512;" xml:space="preserve">
<path d="M105.9,334.1h277.4c71.1,0,125.6-53.6,125.6-122.3c0-69.5-57.2-121.6-133-120.9c-28.6-57.7-81.1-91-143-91  c-82.5,0-152,65-158.2,148.4c-43.4,11.8-71.5,48.3-71.5,92.3C3.1,296.1,44.7,334.1,105.9,334.1z M289.6,441.2l29.1-50.3  c4-6.9,1.8-14.8-4.9-18.6c-6.7-4-14.3-1.8-18.3,5.1l-29.5,50.7c-3.6,6.5-1.8,14.3,5.1,18.3C277.8,450.1,285.8,447.9,289.6,441.2z   M341.5,505.1l65.9-114.4c4-6.7,2-14.3-4.5-18.3c-6.3-3.8-14.3-1.8-18.6,4.9l-65.5,114c-3.8,6.9-2,14.8,4.7,18.8  C330.1,513.6,337.7,511.6,341.5,505.1z M111.7,441.4l29.1-50.3c4-6.9,2-14.8-4.7-18.6c-6.9-4-14.5-1.8-18.6,5.1l-29.3,50.7  c-3.8,6.5-1.8,14.3,4.9,18.1C99.9,450.3,107.9,448.1,111.7,441.4z M163.6,505.3l66.2-114.4c3.8-6.7,1.8-14.3-4.5-18.3  c-6.5-3.8-14.8-1.8-18.6,4.9l-65.7,114c-3.8,6.9-1.8,14.8,4.9,18.8C152.4,513.8,160,511.8,163.6,505.3z"/>
</svg>