<?xml version="1.0" ?><!-- Generator: Adobe Illustrator 25.0.0, SVG Export Plug-In . SVG Version: 6.00 Build 0)  --><svg xmlns="http://www.w3.org/2000/svg" xmlns:xlink="http://www.w3.org/1999/xlink" version="1.1" id="Layer_1" x="0px" y="0px" viewBox="0 0 512 512" style="enable-background:new 0 0 512 512;" xml:space="preserve">
<path d="M105.4,347.7h278.2c73.5,0,128.4-55.8,128.4-125.1c0-71.3-58.5-123.5-134.5-123.5c-28-55.4-80-91-144.6-91  c-84.5,0-154,65.9-161.2,149.3C30.9,169,0,204.4,0,251.7C0,304.6,38.6,347.7,105.4,347.7z M104.9,311.6c-46,0-69-25.6-69-58.7  c0-27.1,15.7-51.3,53.8-61.4c12.6-3.1,17-9,17.9-21.7c5.2-73.1,60.3-125.8,125.3-125.8c50.2,0,89.9,27.6,114.1,77.3  c5.4,10.8,11.9,14.6,25.1,14.6c66.4,0,103.8,40.1,103.8,87.9c0,48.9-39,87.9-90.1,87.9H104.9z M404.2,399.5H112.5  c-7.8,0-14.1,6.1-14.1,14.1s6.3,14.3,14.1,14.3h291.6c7.8,0,14.1-6.3,14.1-14.3S412,399.5,404.2,399.5z M404.2,475.7H112.5  c-7.8,0-14.1,6.1-14.1,14.1c0,8.1,6.3,14.1,14.1,14.1h291.6c7.8,0,14.1-6.1,14.1-14.1C418.3,481.7,412,475.7,404.2,475.7z"/>
</svg>