<?xml version="1.0" encoding="UTF-8"?>
<!--Generator: Apple Native CoreSVG 326-->
<!DOCTYPE svg
PUBLIC "-//W3C//DTD SVG 1.1//EN"
       "http://www.w3.org/Graphics/SVG/1.1/DTD/svg11.dtd">
<svg version="1.1" xmlns="http://www.w3.org/2000/svg" xmlns:xlink="http://www.w3.org/1999/xlink" viewBox="0 0 28.5645 25.7715">
 <g>
  <rect height="25.7715" opacity="0" width="28.5645" x="0" y="0"/>
  <path d="M28.2031 12.5293C25.7196 12.5293 23.5992 14.0858 22.7553 16.2757C22.4371 15.8797 22.0599 15.5292 21.6328 15.2329C22.7909 12.7729 25.2795 11.0938 28.2031 11.0938Z" fill="black" fill-opacity="0.85"/>
  <path d="M28.2031 9.76562C24.8224 9.76562 21.8876 11.7328 20.4873 14.5883C20.0519 14.3923 19.5821 14.246 19.088 14.1492C20.6649 10.6981 24.1315 8.33008 28.2031 8.33008Z" fill="black" fill-opacity="0.85"/>
  <path d="M28.2031 7.00195C23.5046 7.00195 19.482 9.85807 17.7499 13.9223C17.4761 13.4227 17.1615 12.9607 16.8096 12.5421C18.9142 8.39492 23.2093 5.57617 28.2031 5.57617Z" fill="black" fill-opacity="0.85"/>
  <path d="M28.2031 4.23828C22.8836 4.23828 18.2449 7.1931 15.8358 11.5493C15.4649 11.2308 15.0667 10.9509 14.6432 10.7154C17.3008 5.9845 22.3616 2.8125 28.2031 2.8125Z" fill="black" fill-opacity="0.85"/>
  <path d="M28.2031 1.48438C21.8552 1.48438 16.3289 4.99249 13.4488 10.1744C12.9832 10.0082 12.4946 9.89099 11.9869 9.82536C15.0428 3.99948 21.1397 0.0488281 28.2031 0.0488281Z" fill="black" fill-opacity="0.85"/>
  <path d="M4.99023 25.7715L17.9492 25.7715C21.3574 25.7715 24.0332 23.1738 24.0332 19.8633C24.0332 16.5625 21.3477 14.082 17.8027 14.0137C16.3965 11.4062 13.9355 9.75586 10.957 9.75586C7.04102 9.75586 3.7793 12.8125 3.36914 16.748C1.39648 17.3438 0 19.043 0 21.2305C0 23.8379 1.98242 25.7715 4.99023 25.7715Z" fill="black" fill-opacity="0.85"/>
 </g>
</svg>
