<?xml version="1.0" encoding="UTF-8"?>
<!--Generator: Apple Native CoreSVG 326-->
<!DOCTYPE svg
PUBLIC "-//W3C//DTD SVG 1.1//EN"
       "http://www.w3.org/Graphics/SVG/1.1/DTD/svg11.dtd">
<svg version="1.1" xmlns="http://www.w3.org/2000/svg" xmlns:xlink="http://www.w3.org/1999/xlink" viewBox="0 0 25.8008 25.459">
 <g>
  <rect height="25.459" opacity="0" width="25.8008" x="0" y="0"/>
  <path d="M25.4395 12.7344C25.4395 19.7461 19.7266 25.459 12.7148 25.459C5.71289 25.459 0 19.7461 0 12.7344C0 5.73242 5.71289 0.0195312 12.7148 0.0195312C19.7266 0.0195312 25.4395 5.73242 25.4395 12.7344ZM11.4648 15.5273L9.41406 19.0723C9.25781 19.3262 9.3457 19.6582 9.60938 19.8047C9.86328 19.9609 10.1855 19.8633 10.332 19.5996L12.3926 16.0645C12.5586 15.791 12.4512 15.4688 12.1875 15.3125C11.9434 15.1758 11.6309 15.2539 11.4648 15.5273ZM17.2168 15.5273L15.1465 19.0723C15 19.3262 15.0879 19.6582 15.3613 19.8047C15.6152 19.9609 15.9277 19.8633 16.0742 19.5996L18.1445 16.0645C18.3008 15.791 18.2031 15.4688 17.9297 15.3125C17.6758 15.1758 17.3633 15.2539 17.2168 15.5273ZM14.3359 15.5273L12.2754 19.0723C12.1289 19.3262 12.2168 19.6582 12.4805 19.8047C12.7246 19.9609 13.0469 19.8633 13.2031 19.5996L15.2539 16.0645C15.4199 15.791 15.332 15.4688 15.0586 15.3125C14.8047 15.1758 14.4922 15.2539 14.3359 15.5273ZM8.59375 15.5273L6.5332 19.0723C6.38672 19.3262 6.46484 19.6582 6.73828 19.8047C6.99219 19.9609 7.31445 19.8633 7.46094 19.5996L9.52148 16.0645C9.67773 15.791 9.58008 15.4688 9.31641 15.3125C9.0625 15.1758 8.75 15.2539 8.59375 15.5273ZM7.70508 8.7793C6.57227 9.10156 5.69336 10.0684 5.69336 11.377C5.69336 12.8223 6.74805 13.9941 8.58398 13.9941L16.3574 13.9941C18.3691 13.9941 19.9023 12.4707 19.9023 10.5664C19.9023 8.60352 18.291 7.17773 16.1914 7.17773C15.4102 5.61523 13.9941 4.59961 12.1582 4.59961C9.83398 4.59961 7.91992 6.44531 7.70508 8.7793Z" fill="black" fill-opacity="0.85"/>
 </g>
</svg>
