<?xml version="1.0" encoding="UTF-8"?>
<!--Generator: Apple Native CoreSVG 326-->
<!DOCTYPE svg
PUBLIC "-//W3C//DTD SVG 1.1//EN"
       "http://www.w3.org/Graphics/SVG/1.1/DTD/svg11.dtd">
<svg version="1.1" xmlns="http://www.w3.org/2000/svg" xmlns:xlink="http://www.w3.org/1999/xlink" viewBox="0 0 34.377 31.3618">
 <g>
  <rect height="31.3618" opacity="0" width="34.377" x="0" y="0"/>
  <path d="M21.8906 27.0823C22.2227 27.2776 22.3301 27.6584 22.1152 28.01L20.3965 30.9983C20.2012 31.3401 19.8106 31.4475 19.4785 31.262C19.1367 31.0667 19.0488 30.6858 19.2442 30.3538L20.9727 27.3459C21.1875 27.0042 21.5586 26.8967 21.8906 27.0823Z" fill="black" fill-opacity="0.85"/>
  <path d="M17.9356 23.5374C18.2676 23.7327 18.375 24.1233 18.1602 24.4651L16.4414 27.4534C16.2461 27.7952 15.8555 27.9124 15.5234 27.7268C15.1817 27.5315 15.0938 27.1409 15.2793 26.8186L17.0176 23.8108C17.2324 23.4592 17.6035 23.3518 17.9356 23.5374Z" fill="black" fill-opacity="0.85"/>
  <path d="M11.8613 27.092C12.1934 27.2874 12.3008 27.6682 12.0957 28.0198L10.3672 31.0081C10.1719 31.3499 9.78126 31.4573 9.44923 31.2717C9.1172 31.0764 9.01954 30.6956 9.21485 30.3635L10.9531 27.3557C11.1582 27.0139 11.5293 26.9065 11.8613 27.092Z" fill="black" fill-opacity="0.85"/>
  <path d="M7.90626 23.5471C8.23829 23.7424 8.34571 24.1331 8.14064 24.4749L6.41212 27.4631C6.21681 27.8049 5.82618 27.9221 5.49415 27.7366C5.15235 27.5413 5.06446 27.1506 5.25978 26.8284L6.99806 23.8206C7.20314 23.469 7.57423 23.3616 7.90626 23.5471Z" fill="black" fill-opacity="0.85"/>
  <path d="M26.002 1.2229C26.002 1.89673 25.5137 2.61939 25.5137 4.15259C25.5137 7.13111 27.2813 8.92798 30.5137 8.92798C31.9102 8.92798 32.5938 8.56665 33.2969 8.56665C34.1367 8.56665 34.5957 9.31861 34.2734 10.178C33.5361 12.429 30.9575 15.133 26.7658 15.165C26.7583 14.6052 26.6716 14.0706 26.5153 13.5684C26.5702 13.5757 26.6277 13.5764 26.6856 13.5764C29.7715 13.5764 31.9785 11.7405 32.6817 10.1584L32.6035 10.0803C31.9688 10.2952 31.0801 10.4612 30.1719 10.4612C26.5195 10.4612 23.9609 8.05884 23.9609 4.45532C23.9609 3.4104 24.1758 2.52173 24.4102 1.92603L24.3027 1.83814C22.6426 2.59009 20.8555 4.47486 20.8555 7.38501C20.8555 8.04845 20.9359 8.67606 21.0901 9.2577C20.8053 9.21597 20.5111 9.19557 20.2109 9.19165C19.9463 8.69232 19.6453 8.22647 19.3099 7.79959C19.2956 7.67759 19.293 7.55128 19.293 7.42407C19.293 3.60571 21.793 0.929934 24.2539 0.187746C25.2305-0.124754 26.002 0.314699 26.002 1.2229Z" fill="black" fill-opacity="0.85"/>
  <path d="M6.71485 21.4963L20.3965 21.4963C23.9805 21.4963 26.7734 18.7913 26.7734 15.3147C26.7734 11.8479 23.9512 9.24048 20.2109 9.19165C18.7461 6.42798 16.168 4.6897 13.0137 4.6897C8.89259 4.6897 5.46485 7.91236 5.06446 12.0432C2.96485 12.678 1.49024 14.4456 1.49024 16.7405C1.49024 19.4749 3.55079 21.4963 6.71485 21.4963ZM6.67579 19.7874C4.41993 19.7874 3.19923 18.4592 3.19923 16.7795C3.19923 15.3245 4.09767 14.1038 5.97267 13.5862C6.51954 13.4397 6.71485 13.2053 6.76368 12.6487C7.04689 9.0647 9.78126 6.40845 13.0137 6.40845C15.6211 6.40845 17.5742 7.87329 18.7559 10.2268C19 10.7151 19.2832 10.8811 19.8594 10.8811C23.0918 10.8811 25.0547 12.9026 25.0547 15.3635C25.0547 17.8147 23.043 19.7874 20.4258 19.7874Z" fill="black" fill-opacity="0.85"/>
 </g>
</svg>
