<?xml version="1.0" encoding="UTF-8"?>
<!--Generator: Apple Native CoreSVG 326-->
<!DOCTYPE svg
PUBLIC "-//W3C//DTD SVG 1.1//EN"
       "http://www.w3.org/Graphics/SVG/1.1/DTD/svg11.dtd">
<svg version="1.1" xmlns="http://www.w3.org/2000/svg" xmlns:xlink="http://www.w3.org/1999/xlink" viewBox="0 0 29.5605 29.6191">
 <g>
  <rect height="29.6191" opacity="0" width="29.5605" x="0" y="0"/>
  <path d="M21.4941 24.1309L22.4316 22.4902C22.6367 22.1484 22.5391 21.7578 22.207 21.5625C21.875 21.377 21.4941 21.4941 21.2891 21.8262L20.3418 23.4863C20.166 23.8086 20.2441 24.1992 20.5859 24.3945C20.9082 24.5801 21.3086 24.4629 21.4941 24.1309ZM19.4336 27.7344C20.1367 27.7344 20.7324 27.1387 20.7324 26.416C20.7324 25.7129 20.1465 25.1172 19.4336 25.1172C18.7109 25.1172 18.125 25.7129 18.125 26.416C18.125 27.1387 18.7109 27.7344 19.4336 27.7344Z" fill="black" fill-opacity="0.85"/>
  <path d="M13.7891 26.0059L15.8398 22.4609C16.0352 22.1094 15.9375 21.7285 15.6152 21.5332C15.2832 21.3379 14.8926 21.4453 14.6973 21.7969L12.6367 25.3711C12.4512 25.6934 12.5391 26.084 12.8809 26.2793C13.2031 26.4648 13.6035 26.3477 13.7891 26.0059ZM11.7285 29.6191C12.4316 29.6191 13.0273 29.0137 13.0273 28.3008C13.0273 27.5977 12.4414 27.002 11.7285 27.002C11.0059 27.002 10.4199 27.5977 10.4199 28.3008C10.4199 29.0137 11.0059 29.6191 11.7285 29.6191Z" fill="black" fill-opacity="0.85"/>
  <path d="M8.29102 24.082L9.22852 22.4414C9.43359 22.0996 9.33594 21.709 9.00391 21.5137C8.67188 21.3281 8.28125 21.4453 8.08594 21.7773L7.13867 23.4375C6.95312 23.7695 7.04102 24.1504 7.37305 24.3457C7.70508 24.5312 8.10547 24.4141 8.29102 24.082ZM6.23047 27.6855C6.93359 27.6855 7.5293 27.0898 7.5293 26.3672C7.5293 25.6641 6.94336 25.0684 6.23047 25.0684C5.50781 25.0684 4.91211 25.6641 4.91211 26.3672C4.91211 27.0898 5.50781 27.6855 6.23047 27.6855Z" fill="black" fill-opacity="0.85"/>
  <path d="M6.73828 19.4922L22.4316 19.4922C26.5039 19.4922 29.5605 16.4062 29.5605 12.5781C29.5605 8.62305 26.3184 5.73242 22.0996 5.73242C20.5176 2.58789 17.6465 0.556641 13.9551 0.556641C9.26758 0.556641 5.41016 4.27734 5 8.95508C2.69531 9.60938 0.927734 11.5527 0.927734 14.209C0.927734 17.1191 3.05664 19.4922 6.73828 19.4922ZM6.71875 17.7734C4.0332 17.7734 2.63672 16.2207 2.63672 14.2578C2.63672 12.5977 3.65234 11.1719 5.83008 10.5957C6.45508 10.4297 6.67969 10.1465 6.71875 9.52148C7.00195 5.37109 10.2148 2.27539 13.9551 2.27539C16.9629 2.27539 19.2578 3.94531 20.6152 6.74805C20.8789 7.30469 21.2109 7.49023 21.8848 7.49023C25.5957 7.49023 27.8516 9.80469 27.8516 12.627C27.8516 15.4688 25.5371 17.7734 22.5293 17.7734Z" fill="black" fill-opacity="0.85"/>
 </g>
</svg>
