<?xml version="1.0" encoding="UTF-8"?>
<!--Generator: Apple Native CoreSVG 326-->
<!DOCTYPE svg
PUBLIC "-//W3C//DTD SVG 1.1//EN"
       "http://www.w3.org/Graphics/SVG/1.1/DTD/svg11.dtd">
<svg version="1.1" xmlns="http://www.w3.org/2000/svg" xmlns:xlink="http://www.w3.org/1999/xlink" viewBox="0 0 38.5645 26.8848">
 <g>
  <rect height="26.8848" opacity="0" width="38.5645" x="0" y="0"/>
  <path d="M32.7051 19.0723L34.7949 21.1621C35.1465 21.5137 35.1367 22.0703 34.7949 22.4023C34.4531 22.7441 33.8965 22.7637 33.5547 22.4121L31.4551 20.3223C31.1133 19.9805 31.1133 19.4141 31.4551 19.0723C31.7969 18.7402 32.3633 18.7402 32.7051 19.0723ZM31.7773 13.2422C31.7773 15.5167 30.5162 17.5213 28.6613 18.5845C28.2727 15.0408 25.3849 12.4045 21.6211 12.0508C21.22 11.4013 20.7588 10.8076 20.2417 10.2818C21.2941 8.37966 23.3228 7.08008 25.625 7.08008C28.9941 7.08008 31.7773 9.86328 31.7773 13.2422ZM38.5645 13.252C38.5645 13.7402 38.1738 14.1309 37.6855 14.1309L34.7461 14.1309C34.2676 14.1309 33.8574 13.7402 33.8574 13.252C33.8574 12.7734 34.2676 12.373 34.7461 12.373L37.6855 12.373C38.1738 12.373 38.5645 12.7734 38.5645 13.252ZM34.7949 4.08203C35.1367 4.42383 35.1465 5 34.7949 5.3418L32.7148 7.43164C32.3633 7.77344 31.7969 7.76367 31.4551 7.43164C31.1133 7.08984 31.1133 6.52344 31.4551 6.19141L33.5547 4.08203C33.8965 3.74023 34.4531 3.75 34.7949 4.08203ZM17.7148 4.08203L19.8047 6.19141C20.1367 6.51367 20.1367 7.09961 19.7949 7.43164C19.4629 7.76367 18.8867 7.76367 18.5547 7.43164L16.4648 5.33203C16.1328 5 16.1328 4.42383 16.4746 4.08203C16.8164 3.75 17.3828 3.75 17.7148 4.08203ZM26.5234 1.16211L26.5234 4.12109C26.5234 4.58984 26.1133 4.99023 25.6348 4.99023C25.1562 4.99023 24.7461 4.58984 24.7461 4.12109L24.7461 1.16211C24.7461 0.693359 25.1562 0.283203 25.6348 0.283203C26.1133 0.283203 26.5234 0.693359 26.5234 1.16211Z" fill="black" fill-opacity="0.85"/>
  <path d="M7.37305 25.5273L21.0547 25.5273C24.5996 25.5273 27.3535 22.8516 27.3535 19.4141C27.3535 15.9863 24.5508 13.3984 20.8203 13.3691C19.375 10.6055 16.8164 8.86719 13.6621 8.86719C9.58984 8.86719 6.17188 12.0703 5.79102 16.2012C3.69141 16.8164 2.2168 18.5645 2.2168 20.8398C2.2168 23.5449 4.24805 25.5273 7.37305 25.5273Z" fill="black" fill-opacity="0.85"/>
 </g>
</svg>
