<?xml version="1.0" ?><!-- Generator: Adobe Illustrator 25.0.0, SVG Export Plug-In . SVG Version: 6.00 Build 0)  --><svg xmlns="http://www.w3.org/2000/svg" xmlns:xlink="http://www.w3.org/1999/xlink" version="1.1" id="Layer_1" x="0px" y="0px" viewBox="0 0 512 512" style="enable-background:new 0 0 512 512;" xml:space="preserve">
<path d="M105.4,425.8h278.2c73.5,0,128.4-55.8,128.4-125.1c0-71.3-58.5-123.5-134.5-123.5c-28-55.4-80-91-144.6-91  c-84.5,0-154,65.9-161.2,149.3C30.9,247.1,0,282.6,0,329.9C0,382.8,38.6,425.8,105.4,425.8z M104.9,389.7c-46,0-69-25.6-69-58.7  c0-27.1,15.7-51.1,53.8-61.4c12.6-3.1,17-9,17.9-21.7c5.2-73.1,60.3-125.8,125.3-125.8c50.2,0,89.9,27.6,114.1,77.3  c5.4,10.8,11.9,14.6,25.1,14.6c66.4,0,103.8,40.1,103.8,87.9c0,48.9-39,87.9-90.1,87.9H104.9z"/>
</svg>