<?xml version="1.0" ?><!-- Generator: Adobe Illustrator 25.0.0, SVG Export Plug-In . SVG Version: 6.00 Build 0)  --><svg xmlns="http://www.w3.org/2000/svg" xmlns:xlink="http://www.w3.org/1999/xlink" version="1.1" id="Layer_1" x="0px" y="0px" viewBox="0 0 512 512" style="enable-background:new 0 0 512 512;" xml:space="preserve">
<path d="M329.1,70.4c8,0,14.7-6.9,14.7-14.7V17.5c0-8.1-6.7-14.7-14.7-14.7c-8.1,0-14.7,6.5-14.7,14.7v38.2  C314.4,63.5,321,70.4,329.1,70.4z M226.6,104.6c5.7,5.8,15.4,5.7,20.9,0c5.5-5.7,5.7-15,0-20.5L220,56.6c-5.7-5.7-14.9-5.7-20.5,0  c-5.7,5.7-5.7,15,0,20.7L226.6,104.6z M410.8,104.6c5.5,5.7,15,5.8,20.9,0l26.9-27.2c5.7-5.7,5.7-15,0-20.7  c-5.7-5.7-14.9-5.7-20.5,0L410.8,84C405.2,89.5,405.4,98.9,410.8,104.6z M75,360.5h191.4c51.1,0,90.7-38.6,90.7-88.4  c0-0.7,0-1.6,0-2.3c34.8-12,59.4-44.9,59.4-83.5c0-48.6-38.9-87.7-87.5-87.7c-38.9,0-71.6,25.1-83.1,60.1  c-21-23.3-50.2-36.8-83.1-36.8c-58.5,0-107.5,45.3-113.4,103.3C19.8,234.4,0,260,0,292C0,332,29.9,360.5,75,360.5z M329,124.5  c34.7,0,61.5,26.9,61.5,61.7c0,25.8-15.4,48.1-38,57.7c-11.5-34-44-57.5-84.9-59.4C268.5,150.5,295,124.5,329,124.5z M74.3,332.2  c-30.1,0-46-17.2-46-39.4c0-18.6,11-35.2,37-42.1c8.5-2.3,11.7-6.2,12.4-15c4.1-49.7,40.9-85.4,85.1-85.4c34.3,0,61,18.9,77.5,52  c3.7,7.6,8.1,10.1,17.2,10.1c45.6,0,71.4,27.6,71.4,60.5c0,33.1-26.9,59.4-61.9,59.4H74.3z M459.3,200.9h38.2  c8,0,14.5-6.5,14.5-14.7c0.2-8.1-6.5-14.7-14.5-14.7h-38.2c-8,0-14.7,6.5-14.7,14.7C444.6,194.4,451.3,200.9,459.3,200.9z   M438.1,316.1c5.7,5.7,14.9,5.5,20.5-0.2c5.7-5.7,5.7-15,0-20.7l-27.2-27.1c-5.7-5.5-14.9-5.7-20.5,0c-5.7,5.7-5.7,15,0,20.7  L438.1,316.1z M221.4,423.1h-35.2l16.3-30.8c1.9-3.9,0.4-6.7-3.5-6.7h-37c-4.8,0-6.4,1.9-8,5.3l-22.6,51.5c-1.9,4.2,0,6.9,4.4,6.9  h29.7l-22.8,54.8c-0.9,2.3-0.4,4.2,1.2,4.8c1.6,0.7,3.5,0.2,5.3-1.8l74.8-75.5C227.6,427.8,226.4,423.1,221.4,423.1z"/>
</svg>