<?xml version="1.0" encoding="UTF-8"?>
<!--Generator: Apple Native CoreSVG 326-->
<!DOCTYPE svg
PUBLIC "-//W3C//DTD SVG 1.1//EN"
       "http://www.w3.org/Graphics/SVG/1.1/DTD/svg11.dtd">
<svg version="1.1" xmlns="http://www.w3.org/2000/svg" xmlns:xlink="http://www.w3.org/1999/xlink" viewBox="0 0 25.8008 25.459">
 <g>
  <rect height="25.459" opacity="0" width="25.8008" x="0" y="0"/>
  <path d="M25.4395 12.7344C25.4395 19.7461 19.7266 25.459 12.7148 25.459C5.71289 25.459 0 19.7461 0 12.7344C0 5.73242 5.71289 0.0195312 12.7148 0.0195312C19.7266 0.0195312 25.4395 5.73242 25.4395 12.7344ZM7.82227 16.4746L7.85156 17.2949L7.17773 16.8359C7.01172 16.7285 6.77734 16.748 6.68945 16.9336C6.58203 17.0801 6.64062 17.3047 6.85547 17.4219L7.55859 17.793L6.85547 18.1445C6.63086 18.252 6.58203 18.4766 6.66992 18.6328C6.75781 18.8281 7.00195 18.8672 7.17773 18.7598L7.85156 18.3008L7.83203 19.1113C7.82227 19.3164 7.93945 19.4922 8.1543 19.4922C8.34961 19.4922 8.49609 19.3164 8.48633 19.1113L8.44727 18.3008L9.12109 18.7598C9.26758 18.8574 9.50195 18.8086 9.59961 18.6523C9.72656 18.4961 9.66797 18.252 9.44336 18.1445L8.73047 17.793L9.44336 17.4121C9.6582 17.3047 9.70703 17.1094 9.60938 16.9336C9.52148 16.7578 9.27734 16.7383 9.12109 16.8359L8.44727 17.2949L8.48633 16.4844C8.49609 16.2695 8.34961 16.0938 8.1543 16.0938C7.93945 16.0938 7.8125 16.2695 7.82227 16.4746ZM12.0508 16.4746L12.0898 17.2949L11.416 16.8359C11.2598 16.7285 11.0254 16.748 10.9375 16.9336C10.8203 17.0801 10.8789 17.3047 11.0938 17.4219L11.8066 17.793L11.0938 18.1445C10.8691 18.252 10.8203 18.4766 10.918 18.6328C11.0059 18.8281 11.25 18.8672 11.416 18.7598L12.0898 18.3008L12.0605 19.1113C12.0508 19.3164 12.1875 19.4922 12.3926 19.4922C12.5977 19.4922 12.7344 19.3164 12.7246 19.1113L12.6855 18.3008L13.3594 18.7598C13.5156 18.8574 13.75 18.8086 13.8477 18.6523C13.9648 18.4961 13.9062 18.252 13.6816 18.1445L12.9785 17.793L13.6816 17.4121C13.8965 17.3047 13.9453 17.1094 13.8574 16.9336C13.7695 16.7578 13.5156 16.7383 13.3594 16.8359L12.6855 17.2949L12.7246 16.4844C12.7344 16.2695 12.5977 16.0938 12.3926 16.0938C12.1875 16.0938 12.041 16.2695 12.0508 16.4746ZM16.2988 16.4746L16.3379 17.2949L15.6445 16.8359C15.498 16.7285 15.2637 16.748 15.1758 16.9336C15.0684 17.0801 15.127 17.3047 15.332 17.4219L16.0449 17.793L15.332 18.1445C15.1074 18.252 15.0781 18.4766 15.1562 18.6328C15.2441 18.8281 15.4883 18.8672 15.6445 18.7598L16.3379 18.3008L16.3086 19.1113C16.2988 19.3164 16.4258 19.4922 16.6406 19.4922C16.8359 19.4922 16.9824 19.3164 16.9727 19.1113L16.9238 18.3008L17.5977 18.7598C17.7539 18.8574 17.9883 18.8086 18.0859 18.6523C18.2031 18.4961 18.1348 18.252 17.9297 18.1445L17.2168 17.793L17.9297 17.4121C18.125 17.3047 18.1934 17.1094 18.0957 16.9336C18.0078 16.7578 17.7539 16.7285 17.5977 16.8359L16.9238 17.2949L16.9727 16.4844C16.9824 16.2695 16.8359 16.0938 16.6406 16.0938C16.4258 16.0938 16.2891 16.2695 16.2988 16.4746ZM7.62695 9.3457C6.49414 9.6582 5.61523 10.625 5.61523 11.9336C5.61523 13.3691 6.66992 14.5605 8.50586 14.5605L16.2793 14.5605C18.2812 14.5605 19.8242 13.0273 19.8242 11.123C19.8242 9.16016 18.2031 7.73438 16.1133 7.73438C15.332 6.18164 13.916 5.16602 12.0801 5.16602C9.75586 5.16602 7.8418 7.01172 7.62695 9.3457Z" fill="black" fill-opacity="0.85"/>
 </g>
</svg>
