<?xml version="1.0" ?><!-- Generator: Adobe Illustrator 25.0.0, SVG Export Plug-In . SVG Version: 6.00 Build 0)  --><svg xmlns="http://www.w3.org/2000/svg" xmlns:xlink="http://www.w3.org/1999/xlink" version="1.1" id="Layer_1" x="0px" y="0px" viewBox="0 0 512 512" style="enable-background:new 0 0 512 512;" xml:space="preserve">
<path d="M82.6,348.2h210.8c56.3,0,99.9-42.5,99.9-97.4c0-0.6,0-1.2,0-1.8c62.9-2.1,102.1-37.8,116.5-75.2  c6.4-15.8-1.8-29.8-16.9-29.8c-11.9,0-21.4,5.1-42.1,5.1c-49.7,0-76-27.7-76-72.9c0-22,7-34.1,7-45c0-16-14-23.8-31.2-17.9  C309.5,27,274.5,71,274.5,124.8c0,1.8,0,3.5,0,5.3c-23.6-28.1-57.1-44.6-95.3-44.6c-64.5,0-118.4,49.9-124.9,113.8  C21.8,209.3,0,237.6,0,272.8C0,316.8,32.9,348.2,82.6,348.2z M302.9,124.2c0-37.6,22.4-67,48.1-81l1.9,1.6  c-3.1,9.4-6.2,22.4-6.2,37.4c0,56.1,40.9,94.5,97.4,94.5c13.8,0,26.7-2.3,35.7-5.3l1.4,1.4c-12.1,22.8-43.1,47.9-92.5,48.1  c-11.3-34.3-41.7-59-80.8-65.1C304.5,145.8,302.9,135.1,302.9,124.2z M81.8,317c-33.1,0-50.6-18.9-50.6-43.4  c0-20.5,12.1-38.8,40.7-46.4c9.4-2.5,12.9-6.8,13.6-16.6c4.5-54.7,45-94.1,93.7-94.1c37.8,0,67.2,20.8,85.3,57.3  c4.1,8.4,9,11.1,18.9,11.1c50.3,0,78.7,30.4,78.7,66.6c0,36.4-29.6,65.5-68.2,65.5H81.8z M234.1,439.6l25.5-44  c3.5-6,1.6-12.9-4.3-16.2c-5.8-3.5-12.5-1.6-16.2,4.5l-25.5,44.2c-3.3,5.6-1.6,12.5,4.5,16C223.8,447.2,231,445.2,234.1,439.6z   M79.3,439.8l25.3-44c3.5-6,1.6-12.9-4.1-16.2c-6-3.5-12.7-1.6-16.2,4.5l-25.5,44.2c-3.3,5.6-1.8,12.5,4.3,16  C69,447.4,76,445.4,79.3,439.8z M295.1,494.3l25.3-43.8c3.7-6,1.8-12.9-4.1-16.4c-5.8-3.3-12.5-1.4-16.2,4.5L274.7,483  c-3.3,5.5-1.6,12.3,4.5,15.8C284.8,502.1,291.8,500.1,295.1,494.3z M140.3,494.5l25.3-43.8c3.5-6,1.6-12.9-4.1-16.4  c-6-3.3-12.7-1.4-16.2,4.5l-25.5,44.4c-3.3,5.5-1.8,12.3,4.3,15.8C129.9,502.3,136.9,500.3,140.3,494.5z"/>
</svg>