<?xml version="1.0" ?><!-- Generator: Adobe Illustrator 25.0.0, SVG Export Plug-In . SVG Version: 6.00 Build 0)  --><svg xmlns="http://www.w3.org/2000/svg" xmlns:xlink="http://www.w3.org/1999/xlink" version="1.1" id="Layer_1" x="0px" y="0px" viewBox="0 0 512 512" style="enable-background:new 0 0 512 512;" xml:space="preserve">
<path d="M106.1,337.9h276.8c73.2,0,127.8-55.5,127.8-124.5c0-70.9-58.2-122.9-133.8-122.9C349,35.5,297.3,0,233,0  C148.9,0,79.8,65.6,72.6,148.6C32,160.2,1.3,195.4,1.3,242.5C1.3,295.1,39.6,337.9,106.1,337.9z M105.7,302  c-45.7,0-68.7-25.4-68.7-58.4c0-27,15.6-51.1,53.5-61.1c12.5-3.1,17-8.9,17.8-21.6c5.1-72.7,60-125.1,124.7-125.1  c50,0,89.5,27.4,113.5,77c5.4,10.7,11.8,14.5,25,14.5c66,0,103.3,39.9,103.3,87.4c0,48.6-38.8,87.4-89.7,87.4H105.7z M289.7,441.9  l29-50.2c4-6.9,1.8-14.7-4.9-18.5c-6.7-4-14.3-1.8-18.3,5.1L266,429c-3.6,6.5-1.8,14.3,5.1,18.3  C277.9,450.8,285.9,448.6,289.7,441.9z M112.1,442.1l29-50.2c4-6.9,2-14.7-4.7-18.5c-6.9-4-14.5-1.8-18.5,5.1l-29.2,50.6  c-3.8,6.5-1.8,14.3,4.9,18.1C100.3,451,108.3,448.8,112.1,442.1z M359.3,504.8l29-50.4c4.2-6.7,2-14.5-4.7-18.5  c-6.7-3.8-14.3-1.6-18.5,5.1l-29.2,50.9c-3.8,6.2-1.8,14.1,5.1,18.1C347.5,513.7,355.5,511.5,359.3,504.8z M181.9,505l29-50.4  c4-6.7,1.8-14.5-4.7-18.5c-6.9-3.8-14.5-1.6-18.5,5.1l-29.2,50.9c-3.8,6.2-2,14.1,4.9,18.1C170.1,513.9,178.1,511.7,181.9,505z"/>
</svg>