<?xml version="1.0" encoding="UTF-8"?>
<!--Generator: Apple Native CoreSVG 326-->
<!DOCTYPE svg
PUBLIC "-//W3C//DTD SVG 1.1//EN"
       "http://www.w3.org/Graphics/SVG/1.1/DTD/svg11.dtd">
<svg version="1.1" xmlns="http://www.w3.org/2000/svg" xmlns:xlink="http://www.w3.org/1999/xlink" viewBox="0 0 34.377 32.6864">
 <g>
  <rect height="32.6864" opacity="0" width="34.377" x="0" y="0"/>
  <path d="M15.6895 24.4438L14.4825 26.7289L16.8711 26.7289C17.2227 26.7289 17.3203 27.0512 17.0859 27.3246L12.2324 32.5297C12.1152 32.6762 11.9688 32.7153 11.8516 32.6664C11.7344 32.6176 11.6953 32.4809 11.7637 32.3051L13.3682 28.4574L11.3633 28.4574C11.0508 28.4574 10.9043 28.2719 11.0313 27.9594L12.6231 24.3461C12.7305 24.0922 12.8477 23.9653 13.1992 23.9653L15.4453 23.9653C15.7285 23.9653 15.8359 24.1703 15.6895 24.4438Z" fill="black" fill-opacity="0.85"/>
  <path d="M26.002 1.89494C26.002 2.56877 25.5137 3.29143 25.5137 4.82463C25.5137 7.81291 27.2813 9.60979 30.5137 9.60979C31.9102 9.60979 32.5938 9.23869 33.2969 9.23869C34.1367 9.23869 34.5957 10.0004 34.2734 10.8598C33.5361 13.1108 30.9575 15.8052 26.7658 15.837C26.7583 15.2773 26.6716 14.7426 26.5153 14.2404C26.5701 14.2477 26.6277 14.2485 26.6856 14.2485C29.7715 14.2485 31.9785 12.4125 32.6817 10.8305L32.6035 10.7524C31.9688 10.977 31.0801 11.1332 30.1719 11.1332C26.5195 11.1332 23.9609 8.74065 23.9609 5.12737C23.9609 4.08244 24.1758 3.20354 24.4102 2.59807L24.3027 2.51018C22.6426 3.26213 20.8555 5.1469 20.8555 8.05705C20.8555 8.72342 20.9366 9.35363 21.0918 9.93761C20.8065 9.89635 20.5117 9.8766 20.2109 9.87346C19.9464 9.37252 19.6455 8.90567 19.3102 8.47827C19.2957 8.3541 19.293 8.22557 19.293 8.09612C19.293 4.27776 21.793 1.60198 24.2539 0.869554C25.2305 0.557054 26.002 0.996507 26.002 1.89494Z" fill="black" fill-opacity="0.85"/>
  <path d="M6.71485 22.1684L20.3965 22.1684C23.9805 22.1684 26.7734 19.4633 26.7734 15.9867C26.7734 12.5199 23.9512 9.91252 20.2109 9.87346C18.7461 7.10002 16.168 5.37151 13.0137 5.37151C8.89259 5.37151 5.46485 8.59416 5.06446 12.725C2.96485 13.35 1.49024 15.1176 1.49024 17.4125C1.49024 20.1469 3.55079 22.1684 6.71485 22.1684ZM6.67579 20.4594C4.41993 20.4594 3.19923 19.1313 3.19923 17.4614C3.19923 16.0063 4.09767 14.7758 5.97267 14.2582C6.51954 14.1117 6.71485 13.8774 6.76368 13.3207C7.04689 9.74651 9.78126 7.08049 13.0137 7.08049C15.6211 7.08049 17.5742 8.54534 18.7559 10.8989C19 11.3871 19.2832 11.5531 19.8594 11.5531C23.0918 11.5531 25.0547 13.5844 25.0547 16.0356C25.0547 18.4867 23.043 20.4594 20.4258 20.4594Z" fill="black" fill-opacity="0.85"/>
 </g>
</svg>
