<?xml version="1.0" encoding="UTF-8"?>
<!--Generator: Apple Native CoreSVG 326-->
<!DOCTYPE svg
PUBLIC "-//W3C//DTD SVG 1.1//EN"
       "http://www.w3.org/Graphics/SVG/1.1/DTD/svg11.dtd">
<svg version="1.1" xmlns="http://www.w3.org/2000/svg" xmlns:xlink="http://www.w3.org/1999/xlink" viewBox="0 0 25.8008 25.459">
 <g>
  <rect height="25.459" opacity="0" width="25.8008" x="0" y="0"/>
  <path d="M25.4395 12.7344C25.4395 19.7461 19.7266 25.459 12.7148 25.459C5.71289 25.459 0 19.7461 0 12.7344C0 5.73242 5.71289 0.0195312 12.7148 0.0195312C19.7266 0.0195312 25.4395 5.73242 25.4395 12.7344ZM5.45898 13.3301C4.4043 13.6621 3.64258 14.5801 3.64258 15.7617C3.64258 17.1777 4.72656 18.252 6.35742 18.252L13.3008 18.252C15.1465 18.252 16.5625 16.8457 16.5625 15.0391C16.5625 13.2617 15.1367 11.9141 13.2227 11.875C12.4805 10.4785 11.1719 9.58984 9.55078 9.58984C7.45117 9.58984 5.69336 11.2402 5.45898 13.3301ZM18.5352 14.707C18.3301 14.9121 18.3203 15.2734 18.5352 15.4883L19.5996 16.5527C19.8242 16.7773 20.1758 16.7578 20.4004 16.543C20.5957 16.3281 20.6152 15.9668 20.4004 15.7617L19.3359 14.707C19.1113 14.4824 18.7598 14.4824 18.5352 14.707ZM12.9785 10.0977C13.2715 10.3613 13.5254 10.6738 13.75 11.0352C15.7129 11.2695 17.2168 12.6855 17.4316 14.5508C18.3398 13.9355 18.8965 12.959 18.8965 11.8359C18.8965 10.0293 17.4512 8.62305 15.6738 8.62305C14.541 8.62305 13.5352 9.19922 12.9785 10.0977ZM20.2734 11.2793C19.9707 11.2793 19.7168 11.5137 19.7168 11.8359C19.7168 12.1387 19.9707 12.3828 20.2734 12.3828L21.7578 12.3828C22.0801 12.3828 22.334 12.1387 22.334 11.8359C22.334 11.5137 22.0801 11.2793 21.7578 11.2793ZM10.9668 7.11914C10.7715 7.33398 10.7715 7.68555 10.9668 7.91992L12.0312 8.98438C12.2461 9.20898 12.6172 9.18945 12.832 8.98438C13.0273 8.76953 13.0371 8.4082 12.832 8.20312L11.7578 7.12891C11.5332 6.92383 11.1816 6.92383 10.9668 7.11914ZM19.5996 7.12891L18.5352 8.20312C18.3203 8.4082 18.3301 8.76953 18.5352 8.97461C18.75 9.18945 19.1211 9.20898 19.3359 8.98438L20.4004 7.91992C20.6055 7.68555 20.5957 7.33398 20.4004 7.12891C20.1758 6.92383 19.8242 6.91406 19.5996 7.12891ZM15.1172 5.72266L15.1172 7.23633C15.1172 7.53906 15.3711 7.79297 15.6738 7.79297C15.9961 7.79297 16.2402 7.53906 16.2402 7.23633L16.2402 5.72266C16.2402 5.41016 15.9961 5.17578 15.6738 5.17578C15.3711 5.17578 15.1172 5.41016 15.1172 5.72266Z" fill="black" fill-opacity="0.85"/>
 </g>
</svg>
