<?xml version="1.0" encoding="UTF-8"?>
<!--Generator: Apple Native CoreSVG 326-->
<!DOCTYPE svg
PUBLIC "-//W3C//DTD SVG 1.1//EN"
       "http://www.w3.org/Graphics/SVG/1.1/DTD/svg11.dtd">
<svg version="1.1" xmlns="http://www.w3.org/2000/svg" xmlns:xlink="http://www.w3.org/1999/xlink" viewBox="0 0 25.8008 25.459">
 <g>
  <rect height="25.459" opacity="0" width="25.8008" x="0" y="0"/>
  <path d="M12.7148 25.4395C19.7363 25.4395 25.4395 19.7461 25.4395 12.7246C25.4395 5.70312 19.7363 0 12.7148 0C5.69336 0 0 5.70312 0 12.7246C0 19.7461 5.69336 25.4395 12.7148 25.4395ZM12.7148 23.623C6.68945 23.623 1.81641 18.75 1.81641 12.7246C1.81641 6.69922 6.68945 1.82617 12.7148 1.82617C18.7402 1.82617 23.6133 6.69922 23.6133 12.7246C23.6133 18.75 18.7402 23.623 12.7148 23.623Z" fill="black" fill-opacity="0.85"/>
  <path d="M8.08594 17.3145L16.6309 17.3145C18.8086 17.3145 20.498 15.6738 20.498 13.584C20.498 11.4453 18.75 9.86328 16.4258 9.88281C15.5762 8.13477 13.9941 7.07031 12.0215 7.07031C9.48242 7.07031 7.38281 9.07227 7.16797 11.6309C5.86914 11.9922 4.94141 13.0762 4.94141 14.4629C4.94141 16.1133 6.17188 17.3145 8.08594 17.3145Z" fill="black" fill-opacity="0.85"/>
 </g>
</svg>
