<?xml version="1.0" encoding="UTF-8"?>
<!--Generator: Apple Native CoreSVG 326-->
<!DOCTYPE svg
PUBLIC "-//W3C//DTD SVG 1.1//EN"
       "http://www.w3.org/Graphics/SVG/1.1/DTD/svg11.dtd">
<svg version="1.1" xmlns="http://www.w3.org/2000/svg" xmlns:xlink="http://www.w3.org/1999/xlink" viewBox="0 0 38.584 35.3027">
 <g>
  <rect height="35.3027" opacity="0" width="38.584" x="0" y="0"/>
  <path d="M22.5488 30.9082C22.8809 31.1035 22.9883 31.4844 22.7734 31.8359L21.0547 34.8242C20.8594 35.1562 20.4688 35.2734 20.1367 35.0879C19.7949 34.8926 19.707 34.5117 19.9023 34.1797L21.6309 31.1719C21.8457 30.8301 22.2168 30.7227 22.5488 30.9082Z" fill="black" fill-opacity="0.85"/>
  <path d="M18.5938 27.3633C18.9258 27.5586 19.0332 27.9492 18.8184 28.291L17.0996 31.2793C16.9043 31.6211 16.5137 31.7285 16.1816 31.543C15.8398 31.3477 15.752 30.9668 15.9375 30.6348L17.6758 27.627C17.8906 27.2852 18.2617 27.1777 18.5938 27.3633Z" fill="black" fill-opacity="0.85"/>
  <path d="M12.5195 30.918C12.8516 31.1133 12.959 31.4941 12.7539 31.8457L11.0254 34.834C10.8301 35.166 10.4395 35.2832 10.1074 35.0977C9.77539 34.9023 9.67773 34.5215 9.87305 34.1895L11.6113 31.1816C11.8164 30.8398 12.1875 30.7324 12.5195 30.918Z" fill="black" fill-opacity="0.85"/>
  <path d="M8.56445 27.373C8.89648 27.5684 9.00391 27.959 8.79883 28.3008L7.07031 31.2891C6.875 31.6309 6.48438 31.7383 6.15234 31.5527C5.81055 31.3574 5.72266 30.9766 5.91797 30.6543L7.65625 27.6367C7.86133 27.2949 8.23242 27.1875 8.56445 27.373Z" fill="black" fill-opacity="0.85"/>
  <path d="M32.7148 18.7988L34.8145 20.8984C35.166 21.25 35.1562 21.8066 34.8145 22.1484C34.4629 22.4902 33.9062 22.5098 33.5645 22.1582L31.4551 20.0586C31.1133 19.7168 31.1133 19.1504 31.4551 18.7988C31.8066 18.4766 32.373 18.4668 32.7148 18.7988ZM31.7871 12.9785C31.7871 15.7423 29.9422 18.0969 27.428 18.8699C27.4127 18.3155 27.3167 17.7866 27.156 17.2883C28.9367 16.6725 30.1953 14.9897 30.1953 12.9785C30.1953 10.4297 28.1738 8.4082 25.6348 8.4082C23.0957 8.4082 21.0742 10.4297 21.0742 12.9785C21.0742 12.9953 21.0743 13.0121 21.0767 13.0282C21.0126 13.0198 20.9459 13.0183 20.8789 13.0176C20.5468 12.3929 20.1587 11.8208 19.7179 11.3126C20.4428 8.71737 22.8302 6.80664 25.6348 6.80664C29.0137 6.80664 31.7871 9.58008 31.7871 12.9785ZM38.584 12.9785C38.584 13.4668 38.1836 13.8672 37.6953 13.8672L34.7559 13.8672C34.2773 13.8672 33.8672 13.4668 33.8672 12.9785C33.8672 12.5 34.2773 12.0898 34.7559 12.0898L37.6953 12.0898C38.1836 12.0898 38.584 12.5 38.584 12.9785ZM34.8145 3.80859C35.1562 4.15039 35.166 4.72656 34.8145 5.07812L32.7246 7.1582C32.373 7.51953 31.8066 7.5 31.4551 7.1582C31.1133 6.81641 31.1133 6.25 31.4551 5.9082L33.5645 3.80859C33.9062 3.45703 34.4629 3.4668 34.8145 3.80859ZM17.7148 3.80859L19.8145 5.9082C20.1465 6.24023 20.1465 6.82617 19.8047 7.1582C19.4531 7.5 18.8867 7.50977 18.5449 7.1582L16.4551 5.06836C16.1133 4.72656 16.1328 4.15039 16.4648 3.80859C16.8164 3.4668 17.373 3.4668 17.7148 3.80859ZM26.5332 0.888672L26.5332 3.84766C26.5332 4.31641 26.123 4.7168 25.6445 4.7168C25.166 4.7168 24.7461 4.31641 24.7461 3.84766L24.7461 0.888672C24.7461 0.410156 25.166 0 25.6445 0C26.123 0 26.5332 0.410156 26.5332 0.888672Z" fill="black" fill-opacity="0.85"/>
  <path d="M7.37305 25.332L21.0547 25.332C24.6484 25.332 27.4414 22.6172 27.4414 19.1309C27.4414 15.6738 24.6094 13.0566 20.8789 13.0176C19.4043 10.2441 16.8262 8.50586 13.6719 8.50586C9.55078 8.50586 6.11328 11.7383 5.71289 15.8691C3.61328 16.4941 2.13867 18.2715 2.13867 20.5664C2.13867 23.3105 4.20898 25.332 7.37305 25.332ZM7.33398 23.5938C5.07812 23.5938 3.87695 22.2754 3.87695 20.6055C3.87695 19.1602 4.75586 17.9297 6.63086 17.4219C7.1875 17.2754 7.38281 17.0312 7.43164 16.4746C7.71484 12.9004 10.4395 10.2344 13.6719 10.2344C16.2695 10.2344 18.2324 11.709 19.4141 14.0625C19.6582 14.541 19.9414 14.707 20.5176 14.707C23.75 14.707 25.7129 16.7383 25.7129 19.1895C25.7129 21.6309 23.6914 23.5938 21.084 23.5938Z" fill="black" fill-opacity="0.85"/>
 </g>
</svg>
