<?xml version="1.0" encoding="UTF-8"?>
<!--Generator: Apple Native CoreSVG 326-->
<!DOCTYPE svg
PUBLIC "-//W3C//DTD SVG 1.1//EN"
       "http://www.w3.org/Graphics/SVG/1.1/DTD/svg11.dtd">
<svg version="1.1" xmlns="http://www.w3.org/2000/svg" xmlns:xlink="http://www.w3.org/1999/xlink" viewBox="0 0 25.8008 25.459">
 <g>
  <rect height="25.459" opacity="0" width="25.8008" x="0" y="0"/>
  <path d="M12.7148 25.4395C19.7363 25.4395 25.4395 19.7461 25.4395 12.7246C25.4395 5.70312 19.7363 0 12.7148 0C5.69336 0 0 5.70312 0 12.7246C0 19.7461 5.69336 25.4395 12.7148 25.4395ZM12.7148 23.623C6.68945 23.623 1.81641 18.75 1.81641 12.7246C1.81641 6.69922 6.68945 1.82617 12.7148 1.82617C18.7402 1.82617 23.6133 6.69922 23.6133 12.7246C23.6133 18.75 18.7402 23.623 12.7148 23.623Z" fill="black" fill-opacity="0.85"/>
  <path d="M8.68164 13.9355L16.2793 13.9355C18.2324 13.9355 19.7363 12.4414 19.7363 10.5859C19.7363 8.67188 18.1543 7.27539 16.1133 7.27539C15.3516 5.76172 13.9648 4.76562 12.1777 4.76562C9.90234 4.76562 8.03711 6.57227 7.83203 8.84766C6.71875 9.16016 5.85938 10.0977 5.85938 11.377C5.85938 12.7832 6.89453 13.9355 8.68164 13.9355ZM10.3906 19.4141L12.4023 15.9473C12.5586 15.6934 12.4609 15.3809 12.207 15.2344C11.9629 15.0879 11.6602 15.166 11.5039 15.4297L9.49219 18.8965C9.3457 19.1504 9.43359 19.4629 9.6875 19.6094C9.93164 19.7559 10.2441 19.668 10.3906 19.4141ZM15.9863 19.4141L17.998 15.9473C18.1543 15.6934 18.0664 15.3809 17.8027 15.2344C17.5586 15.0879 17.2559 15.166 17.0996 15.4297L15.0879 18.8965C14.9414 19.1504 15.0293 19.4629 15.2832 19.6094C15.5273 19.7559 15.8398 19.668 15.9863 19.4141ZM13.1836 19.4141L15.1953 15.9473C15.3516 15.6934 15.2637 15.3809 15 15.2344C14.7559 15.0879 14.4531 15.166 14.2969 15.4297L12.2852 18.8965C12.1387 19.1504 12.2266 19.4629 12.4805 19.6094C12.7246 19.7559 13.0371 19.668 13.1836 19.4141ZM7.58789 19.4141L9.59961 15.9473C9.75586 15.6934 9.6582 15.3809 9.4043 15.2344C9.16016 15.0879 8.85742 15.166 8.70117 15.4297L6.68945 18.8965C6.54297 19.1504 6.62109 19.4629 6.88477 19.6094C7.12891 19.7559 7.44141 19.668 7.58789 19.4141Z" fill="black" fill-opacity="0.85"/>
 </g>
</svg>
