<?xml version="1.0" encoding="UTF-8"?>
<!--Generator: Apple Native CoreSVG 326-->
<!DOCTYPE svg
PUBLIC "-//W3C//DTD SVG 1.1//EN"
       "http://www.w3.org/Graphics/SVG/1.1/DTD/svg11.dtd">
<svg version="1.1" xmlns="http://www.w3.org/2000/svg" xmlns:xlink="http://www.w3.org/1999/xlink" viewBox="0 0 25.8008 25.459">
 <g>
  <rect height="25.459" opacity="0" width="25.8008" x="0" y="0"/>
  <path d="M25.4395 12.7344C25.4395 19.7461 19.7266 25.459 12.7148 25.459C5.71289 25.459 0 19.7461 0 12.7344C0 5.73242 5.71289 0.0195312 12.7148 0.0195312C19.7266 0.0195312 25.4395 5.73242 25.4395 12.7344ZM12.7637 18.9844L12.0508 20.2246C11.9238 20.4297 12.0117 20.7031 12.2266 20.8301C12.4316 20.9473 12.7051 20.8691 12.8223 20.6641L13.5449 19.4141C13.6621 19.2188 13.5938 18.9258 13.3691 18.8184C13.1641 18.7012 12.9004 18.7793 12.7637 18.9844ZM8.61328 18.9746L7.90039 20.2148C7.76367 20.4199 7.85156 20.6934 8.07617 20.8203C8.28125 20.9375 8.56445 20.8691 8.68164 20.6543L9.38477 19.4043C9.51172 19.209 9.45312 18.9258 9.21875 18.8086C9.00391 18.7012 8.75 18.7695 8.61328 18.9746ZM7.06055 17.5684L6.2793 18.916C6.15234 19.1309 6.23047 19.4043 6.43555 19.5117C6.65039 19.6387 6.92383 19.5703 7.04102 19.3652L7.82227 18.0078C7.95898 17.7832 7.88086 17.5195 7.65625 17.3926C7.45117 17.2754 7.1875 17.3535 7.06055 17.5684ZM11.2012 17.5488L10.4297 18.916C10.3125 19.1211 10.3711 19.4043 10.5859 19.5215C10.8105 19.6289 11.0742 19.5605 11.1914 19.3555L11.9824 18.0078C12.1094 17.793 12.0312 17.5293 11.8066 17.4023C11.6016 17.2852 11.3281 17.3535 11.2012 17.5488ZM5.72266 11.8164C4.73633 12.1484 4.00391 13.0078 4.00391 14.1406C4.00391 15.4688 5.0293 16.4844 6.57227 16.4844L13.1543 16.4844C14.9023 16.4844 16.25 15.1465 16.25 13.4375C16.25 11.7676 14.8926 10.4883 13.0859 10.4395C12.373 9.12109 11.1426 8.28125 9.59961 8.28125C7.61719 8.28125 5.94727 9.84375 5.72266 11.8164ZM18.1055 13.1152C17.9199 13.3203 17.9004 13.6719 18.1055 13.877L19.1309 14.8926C19.3359 15.0879 19.668 15.0684 19.873 14.8828C20.0586 14.6582 20.0781 14.3164 19.873 14.1211L18.8672 13.1152C18.6719 12.9199 18.3203 12.9297 18.1055 13.1152ZM12.8516 8.75C13.1348 9.01367 13.3594 9.30664 13.584 9.6582C15.4395 9.87305 16.8652 11.2109 17.0605 12.9883C17.9297 12.4023 18.457 11.4648 18.457 10.4102C18.457 8.70117 17.0996 7.35352 15.4004 7.35352C14.3262 7.35352 13.3691 7.91992 12.8516 8.75ZM19.7559 9.87305C19.4824 9.87305 19.2383 10.0977 19.2383 10.4102C19.2383 10.6934 19.4824 10.9375 19.7559 10.9375L21.1719 10.9375C21.4746 10.9375 21.709 10.6934 21.709 10.4102C21.709 10.0977 21.4746 9.87305 21.1719 9.87305ZM10.9473 5.94727C10.752 6.13281 10.752 6.47461 10.9473 6.68945L11.9531 7.70508C12.1582 7.91992 12.5098 7.90039 12.7148 7.70508C12.8906 7.5 12.9102 7.1582 12.7148 6.96289L11.6992 5.95703C11.4746 5.75195 11.1523 5.75195 10.9473 5.94727ZM19.1309 5.95703L18.1055 6.96289C17.9004 7.14844 17.9199 7.5 18.1055 7.69531C18.3105 7.90039 18.6719 7.91992 18.8672 7.70508L19.873 6.68945C20.0684 6.48438 20.0586 6.13281 19.873 5.95703C19.668 5.75195 19.3457 5.74219 19.1309 5.95703ZM14.8633 4.61914L14.8633 6.05469C14.8633 6.32812 15.1172 6.57227 15.4004 6.57227C15.7129 6.57227 15.9473 6.32812 15.9473 6.05469L15.9473 4.61914C15.9473 4.33594 15.7129 4.0918 15.4004 4.0918C15.1172 4.0918 14.8633 4.33594 14.8633 4.61914Z" fill="black" fill-opacity="0.85"/>
 </g>
</svg>
