<?xml version="1.0" encoding="UTF-8"?>
<!--Generator: Apple Native CoreSVG 326-->
<!DOCTYPE svg
PUBLIC "-//W3C//DTD SVG 1.1//EN"
       "http://www.w3.org/Graphics/SVG/1.1/DTD/svg11.dtd">
<svg version="1.1" xmlns="http://www.w3.org/2000/svg" xmlns:xlink="http://www.w3.org/1999/xlink" viewBox="0 0 32.5189 31.2402">
 <g>
  <rect height="31.2402" opacity="0" width="32.5189" x="0" y="0"/>
  <path d="M15.4098 31.0449L22.9587 31.0449C25.1364 31.0449 26.5036 29.5898 26.4352 27.4121L26.1618 19.9512L24.7555 20.2441L25.7028 24.4238C25.9469 25.5371 26.7575 25.7324 27.8512 25.4199L30.8395 24.5508C31.943 24.2285 32.3923 23.3594 32.0407 22.0996L27.2751 4.89258C27.0016 3.90625 26.3669 3.24219 25.3317 2.85156L22.1286 1.63086L23.0856 3.99414C23.4665 4.92188 23.3591 5.68359 22.7731 6.62109L15.4001 18.584ZM19.0036 22.5391C18.2614 22.5391 17.695 21.9531 17.7048 21.2207C17.7048 20.4785 18.2712 19.8926 19.0036 19.8926C19.7458 19.8926 20.3122 20.4883 20.3122 21.2207C20.3122 21.9531 19.736 22.5391 19.0036 22.5391ZM19.0036 28.2227C18.2614 28.2227 17.695 27.627 17.7048 26.8848C17.7048 26.1523 18.2712 25.5762 19.0036 25.5762C19.7458 25.5762 20.3122 26.1621 20.3122 26.8848C20.3122 27.627 19.736 28.2227 19.0036 28.2227ZM15.4782 15.8301L21.2887 6.19141C21.7477 5.44922 21.7966 4.82422 21.4743 4.0332L20.2536 0.976562C19.9801 0.283203 19.6091 0 19.0524 0C18.4176 0 17.988 0.488281 17.861 1.2793ZM9.38445 6.62109C8.79851 5.69336 8.69109 4.92188 9.07195 3.99414L10.029 1.63086L6.82585 2.86133C5.77116 3.26172 5.15593 3.90625 4.88249 4.90234L0.116868 22.1094C-0.224929 23.3594 0.185227 24.2383 1.31804 24.5605L4.34538 25.4199C5.45866 25.7324 6.24968 25.5371 6.49382 24.4238L7.44109 20.2441L6.0446 19.4434L5.7614 27.4121C5.68327 29.5898 7.06023 31.0449 9.23796 31.0449L13.8766 31.0449L13.8766 13.9062ZM14.6091 12.3242L15.361 6.8457L14.2966 1.2793C14.1598 0.419922 13.7106 0 13.1051 0C12.5485 0 12.1969 0.234375 11.8942 0.976562L10.6833 4.0332C10.361 4.82422 10.4196 5.45898 10.8688 6.19141Z" fill="black" fill-opacity="0.85"/>
 </g>
</svg>
