<?xml version="1.0" encoding="UTF-8"?>
<!--Generator: Apple Native CoreSVG 326-->
<!DOCTYPE svg
PUBLIC "-//W3C//DTD SVG 1.1//EN"
       "http://www.w3.org/Graphics/SVG/1.1/DTD/svg11.dtd">
<svg version="1.1" xmlns="http://www.w3.org/2000/svg" xmlns:xlink="http://www.w3.org/1999/xlink" viewBox="0 0 34.3566 31.3379">
 <g>
  <rect height="31.3379" opacity="0" width="34.3566" x="0" y="0"/>
  <path d="M10.0299 31.3184L23.9459 31.3184C26.1334 31.3184 27.5201 29.8633 27.4224 27.6855L27.1685 22.3828L27.1588 20.1562L26.4459 14.5508C26.4068 14.2578 26.2408 14.1113 26.026 14.1113C25.7916 14.1113 25.606 14.3066 25.6158 14.6289L25.9283 27.6367C25.9674 28.8086 25.2154 29.6582 23.9654 29.6582L10.0201 29.6582C8.77011 29.6582 8.01815 28.8086 8.04745 27.6367L8.36972 14.6289C8.37948 14.3066 8.19393 14.1113 7.94979 14.1113C7.74472 14.1113 7.56893 14.2578 7.52987 14.5508L6.81698 19.9512L6.81698 22.2461L6.55331 27.6855C6.45565 29.8633 7.85214 31.3184 10.0299 31.3184ZM4.89315 25.3027C6.13339 25.6641 7.14901 25.4492 7.41268 24.1895L7.78378 22.4023L7.12948 18.3398L5.9869 23.2324C5.88925 23.6523 5.6744 23.7598 5.33261 23.6621L2.24667 22.8125C1.80722 22.6855 1.65097 22.3926 1.80722 21.8457L6.13339 6.04492C6.358 5.24414 6.73886 4.75586 7.42245 4.50195L11.2213 3.0957L12.1685 1.14258L6.80722 3.125C5.58651 3.57422 4.96151 4.35547 4.67831 5.35156L0.117762 21.5527C-0.243566 22.832 0.225184 23.9453 1.54354 24.3262ZM29.0533 25.3027L32.4517 24.3164C33.7701 23.9355 34.2389 22.832 33.8678 21.543L29.3072 5.35156C29.024 4.35547 28.4088 3.57422 27.1783 3.125L21.8267 1.14258L22.7545 3.0957L26.5631 4.49219C27.2467 4.74609 27.6178 5.24414 27.8424 6.04492L32.1881 21.8359C32.3443 22.3828 32.1881 22.6758 31.7389 22.8027L28.6139 23.6621C28.2623 23.7598 28.0377 23.6523 27.9498 23.2324L26.856 18.3398L26.2017 22.4023L26.5338 24.1895C26.7486 25.459 27.8033 25.6641 29.0533 25.3027ZM19.2193 21.9043C19.9029 21.9043 20.4498 21.3574 20.4498 20.6738C20.4498 19.9902 19.9127 19.4434 19.2193 19.4434C18.5357 19.4434 17.9986 19.9707 17.9986 20.6738C17.9889 21.3574 18.526 21.9043 19.2193 21.9043ZM19.2193 27.3145C19.9029 27.3145 20.4498 26.7676 20.4498 26.084C20.4498 25.4004 19.9127 24.8535 19.2193 24.8535C18.5357 24.8535 17.9986 25.3906 17.9986 26.084C17.9889 26.7676 18.526 27.3145 19.2193 27.3145ZM14.8541 30.5859L16.5045 30.5859L16.5045 17.5195L16.3385 18.3301L23.1353 7.1582C23.8873 5.9082 23.9264 5.2832 23.4283 4.04297L22.4322 1.57227C21.9635 0.410156 21.1724 0 19.9029 0L14.0924 0C12.8228 0 12.0318 0.410156 11.5631 1.57227L10.567 4.04297C10.108 5.19531 10.1275 5.87891 10.8599 7.1582L15.0494 14.6191L14.8541 13.9551ZM16.524 15.459L19.0142 2.46094C19.1607 1.75781 19.5123 1.45508 20.0592 1.45508C20.5865 1.45508 20.899 1.77734 21.1432 2.38281L21.8463 4.17969C22.2076 5.08789 22.3053 5.63477 21.7486 6.58203ZM15.6549 12.8809L12.2369 6.58203C11.7096 5.61523 11.7877 5.08789 12.1392 4.17969L12.8521 2.38281C13.0963 1.76758 13.4088 1.45508 13.9361 1.45508C14.4732 1.45508 14.8443 1.74805 14.9713 2.46094L16.231 9.31641Z" fill="black" fill-opacity="0.85"/>
 </g>
</svg>
