<?xml version="1.0" encoding="UTF-8"?>
<!--Generator: Apple Native CoreSVG 326-->
<!DOCTYPE svg
PUBLIC "-//W3C//DTD SVG 1.1//EN"
       "http://www.w3.org/Graphics/SVG/1.1/DTD/svg11.dtd">
<svg version="1.1" xmlns="http://www.w3.org/2000/svg" xmlns:xlink="http://www.w3.org/1999/xlink" viewBox="0 0 30.3809 25.0293">
 <g>
  <rect height="25.0293" opacity="0" width="30.3809" x="0" y="0"/>
  <path d="M30.0195 15.0098C30.0195 11.3281 28.6914 7.95898 26.4844 5.3418C26.2305 5.03906 25.8008 5.04883 25.5176 5.33203L22.6953 8.1543C22.4512 8.39844 22.4414 8.74023 22.6562 9.01367C23.9551 10.6738 24.7266 12.7441 24.7266 15.0098C24.7266 17.2754 23.9551 19.3555 22.5977 21.0742C22.4121 21.3086 22.4219 21.6016 22.627 21.8066L25.5176 24.707C25.8008 25 26.2207 24.9902 26.4844 24.6875C28.6914 22.0703 30.0195 18.6816 30.0195 15.0098Z" fill="black" fill-opacity="0.85"/>
  <path d="M15.0098 5.2832C17.2754 5.2832 19.3652 6.06445 21.0254 7.38281C21.2891 7.57812 21.6113 7.55859 21.8555 7.31445L24.6875 4.48242C24.9805 4.19922 24.9707 3.7793 24.668 3.51562C22.0605 1.32812 18.6816 0 15.0098 0C11.3379 0 7.95898 1.32812 5.35156 3.51562C5.04883 3.7793 5.03906 4.19922 5.32227 4.48242L8.16406 7.31445C8.39844 7.55859 8.75 7.56836 9.02344 7.35352C10.6738 6.06445 12.7539 5.2832 15.0098 5.2832Z" fill="black" fill-opacity="0.85"/>
  <path d="M0 15.0098C0 18.6816 1.32812 22.0703 3.53516 24.6875C3.78906 24.9902 4.21875 25 4.50195 24.707L7.39258 21.8066C7.58789 21.6016 7.60742 21.3086 7.42188 21.0742C6.06445 19.3555 5.2832 17.2754 5.2832 15.0098C5.2832 12.7441 6.05469 10.6738 7.36328 9.01367C7.56836 8.74023 7.56836 8.39844 7.32422 8.1543L4.49219 5.33203C4.20898 5.04883 3.78906 5.03906 3.52539 5.3418C1.31836 7.95898 0 11.3281 0 15.0098Z" fill="black" fill-opacity="0.85"/>
  <path d="M15.1367 20.6445C17.041 20.6445 18.7012 19.7363 19.2676 18.0957C19.3457 17.9004 19.375 17.7051 19.375 17.5098C19.375 17.0898 19.0918 16.9141 18.7793 16.9141C18.4277 16.9141 18.252 17.1191 18.1445 17.4316C17.7441 18.75 16.5527 19.4824 15.1367 19.4824C12.7246 19.4824 11.6406 17.4023 11.6406 15.0781C11.6406 12.7148 12.7832 10.7031 15.127 10.7031C16.5234 10.7031 17.7441 11.5723 18.0664 12.7734C18.1641 13.0859 18.3105 13.291 18.6914 13.291C19.082 13.291 19.2969 13.0566 19.2969 12.6953C19.2969 12.5195 19.2578 12.2949 19.1797 12.1094C18.5254 10.4297 16.875 9.54102 15.127 9.54102C12.0215 9.54102 10.2734 11.8945 10.2734 15.0781C10.2734 18.2031 11.9434 20.6445 15.1367 20.6445ZM12.1484 22.3535C12.3438 22.3535 12.4707 22.2656 12.5293 22.041L15.9473 8.62305C15.9863 8.51562 15.9961 8.44727 15.9961 8.4082C15.9961 8.20312 15.8398 8.04688 15.6055 8.04688C15.3906 8.04688 15.2637 8.14453 15.2051 8.34961L11.7773 21.7578C11.7578 21.8457 11.748 21.9141 11.748 21.9824C11.748 22.1875 11.9141 22.3535 12.1484 22.3535ZM14.541 22.3535C14.7461 22.3535 14.873 22.2656 14.9316 22.041L18.3496 8.62305C18.3887 8.51562 18.3984 8.44727 18.3984 8.4082C18.3984 8.20312 18.2422 8.04688 18.0078 8.04688C17.793 8.04688 17.6562 8.14453 17.6074 8.34961L14.1797 21.7578C14.1602 21.8457 14.1504 21.9141 14.1504 21.9824C14.1504 22.1875 14.3164 22.3535 14.541 22.3535Z" fill="black" fill-opacity="0.85"/>
 </g>
</svg>
