<?xml version="1.0" ?><!-- Generator: Adobe Illustrator 25.0.0, SVG Export Plug-In . SVG Version: 6.00 Build 0)  --><svg xmlns="http://www.w3.org/2000/svg" xmlns:xlink="http://www.w3.org/1999/xlink" version="1.1" id="Layer_1" x="0px" y="0px" viewBox="0 0 512 512" style="enable-background:new 0 0 512 512;" xml:space="preserve">
<path d="M87.3,512h337.3c58.4,0,87.3-28.9,87.3-86.2V86.2C512,28.9,483.1,0,424.7,0H87.3C29.2,0,0,28.6,0,86.2v339.6  C0,483.4,29.2,512,87.3,512z M87.9,467.2c-27.8,0-43.1-14.7-43.1-43.7V88.4c0-28.9,15.3-43.7,43.1-43.7h336.2  c27.5,0,43.1,14.7,43.1,43.7v335.1c0,28.9-15.6,43.7-43.1,43.7H87.9z M142.9,258.1c0,48.7,15.3,86.5,42,109.6L174.7,408  c-0.6,2.2-0.8,4.2-0.8,6.1c0,8.3,5.3,13.9,13.3,13.9c7,0,12.2-3.3,13.9-10.8l8.6-34.2c7.8,3.3,15.9,5.8,24.5,7.2l-4.5,18.1  c-0.6,2.2-0.8,3.9-0.8,5.8c0,8.3,5,13.9,13.3,13.9c7,0,12.2-3.3,13.9-10.8l6.7-25.3c44.8-2.2,77.3-25.6,89.6-60.3  c1.7-4.5,2.8-9.5,2.8-14.2c0-10-6.7-17.5-17.2-17.5c-9.5,0-15,6.7-17.8,15c-6.1,22-24.2,38.4-48.7,42l42-164.4  c2.5,2.5,4.7,6.7,6.1,11.7c2.8,6.7,7,13.3,16.7,13.3c10.3,0,17-6.7,17-17.2c0-4.5-1.1-9.2-2.8-13.6c-5.3-14.7-14.5-27.5-26.1-37.5  l8.9-35.6c0.8-2.2,1.1-4.2,1.1-6.1c0-8.1-5.3-13.6-13.3-13.6c-7,0-12.2,3.3-14.2,10.8l-7.5,29.2c-7.5-3.3-15.6-5.6-24.2-7.2  l3.3-13.1c0.6-1.9,0.8-4.2,0.8-6.1c0-8.1-5.3-13.6-13.3-13.6c-7,0-12.2,3.3-14.2,10.8l-5.3,20.9  C183.6,129.9,142.9,180.8,142.9,258.1z M218.3,348.5l48.4-188.8c8.6,1.1,16.7,4.2,23.9,8.3l-48.1,189.7  C233.3,356.3,225.5,353.2,218.3,348.5z M180.2,258.1c0-51.7,21.4-87.9,57-96.8l-41.2,162.1C185.8,306.8,180.2,284.8,180.2,258.1z"/>
</svg>