<?xml version="1.0" encoding="UTF-8"?>
<!--Generator: Apple Native CoreSVG 326-->
<!DOCTYPE svg
PUBLIC "-//W3C//DTD SVG 1.1//EN"
       "http://www.w3.org/Graphics/SVG/1.1/DTD/svg11.dtd">
<svg version="1.1" xmlns="http://www.w3.org/2000/svg" xmlns:xlink="http://www.w3.org/1999/xlink" viewBox="0 0 23.3203 22.959">
 <g>
  <rect height="22.959" opacity="0" width="23.3203" x="0" y="0"/>
  <path d="M3.79883 22.959L19.1504 22.959C21.6797 22.959 22.959 21.6797 22.959 19.1992L22.959 3.76953C22.959 1.2793 21.6797 0 19.1504 0L3.79883 0C1.2793 0 0 1.26953 0 3.76953L0 19.1992C0 21.6992 1.2793 22.959 3.79883 22.959ZM3.83789 21.2305C2.4707 21.2305 1.72852 20.5078 1.72852 19.1016L1.72852 3.85742C1.72852 2.46094 2.4707 1.72852 3.83789 1.72852L19.1211 1.72852C20.459 1.72852 21.2305 2.46094 21.2305 3.85742L21.2305 19.1016C21.2305 20.5078 20.459 21.2305 19.1211 21.2305Z" fill="black" fill-opacity="0.85"/>
  <path d="M11.6211 16.9434C13.5254 16.9434 15.1855 16.0449 15.7617 14.3945C15.8301 14.209 15.8691 14.0039 15.8691 13.8184C15.8691 13.3887 15.5762 13.2129 15.2637 13.2129C14.9219 13.2129 14.7461 13.418 14.6289 13.7305C14.2383 15.0488 13.0371 15.7812 11.6211 15.7812C9.21875 15.7812 8.13477 13.7012 8.13477 11.377C8.13477 9.01367 9.27734 7.00195 11.6113 7.00195C13.0176 7.00195 14.2383 7.87109 14.5508 9.07227C14.6484 9.38477 14.7949 9.59961 15.1855 9.59961C15.5664 9.59961 15.791 9.35547 15.791 9.00391C15.791 8.81836 15.7422 8.60352 15.6738 8.41797C15.0195 6.72852 13.3691 5.83984 11.6113 5.83984C8.50586 5.83984 6.76758 8.19336 6.76758 11.377C6.76758 14.5117 8.4375 16.9434 11.6211 16.9434ZM8.63281 18.6523C8.82812 18.6523 8.95508 18.5645 9.01367 18.3496L12.4414 4.92188C12.4707 4.81445 12.4805 4.75586 12.4805 4.70703C12.4805 4.51172 12.3242 4.3457 12.0996 4.3457C11.875 4.3457 11.748 4.44336 11.6895 4.6582L8.27148 18.0664C8.24219 18.1445 8.23242 18.2129 8.23242 18.2812C8.23242 18.4863 8.39844 18.6523 8.63281 18.6523ZM11.0352 18.6523C11.2305 18.6523 11.3574 18.5645 11.416 18.3496L14.8438 4.92188C14.873 4.81445 14.8828 4.75586 14.8828 4.70703C14.8828 4.51172 14.7266 4.3457 14.4922 4.3457C14.2773 4.3457 14.1504 4.44336 14.0918 4.6582L10.6738 18.0664C10.6445 18.1445 10.6348 18.2129 10.6348 18.2812C10.6348 18.4863 10.8008 18.6523 11.0352 18.6523Z" fill="black" fill-opacity="0.85"/>
 </g>
</svg>
