<?xml version="1.0" encoding="UTF-8"?>
<!--Generator: Apple Native CoreSVG 326-->
<!DOCTYPE svg
PUBLIC "-//W3C//DTD SVG 1.1//EN"
       "http://www.w3.org/Graphics/SVG/1.1/DTD/svg11.dtd">
<svg version="1.1" xmlns="http://www.w3.org/2000/svg" xmlns:xlink="http://www.w3.org/1999/xlink" viewBox="0 0 27.9395 26.5527">
 <g>
  <rect height="26.5527" opacity="0" width="27.9395" x="0" y="0"/>
  <path d="M1.5332 23.8379L26.0449 23.8379L26.0449 23.0859C26.0449 22.666 25.791 22.4121 25.3613 22.4121L24.5605 22.4121L24.5605 8.33984L25.6934 8.33984C26.2891 8.33984 26.6211 7.91992 26.6211 7.48047C26.6211 7.1582 26.4453 6.875 26.0547 6.65039L15.2637 0.419922C14.7852 0.146484 14.2773 0 13.7891 0C13.3008 0 12.7832 0.146484 12.3145 0.419922L1.52344 6.65039C1.12305 6.875 0.957031 7.1582 0.957031 7.48047C0.957031 7.91992 1.28906 8.33984 1.88477 8.33984L3.02734 8.33984L3.02734 22.4121L2.22656 22.4121C1.78711 22.4121 1.5332 22.666 1.5332 23.0859ZM4.6582 22.4121L4.6582 6.85547L13.2227 2.03125C13.3887 1.93359 13.5938 1.875 13.7891 1.875C13.9746 1.875 14.1699 1.93359 14.3555 2.03125L22.9297 6.85547L22.9297 22.4121ZM0.869141 26.5332L26.709 26.5332C27.1875 26.5332 27.5781 26.1426 27.5781 25.6738C27.5781 25.1953 27.1875 24.8047 26.709 24.8047L0.869141 24.8047C0.390625 24.8047 0 25.1953 0 25.6738C0 26.1426 0.390625 26.5332 0.869141 26.5332Z" fill="black" fill-opacity="0.85"/>
  <path d="M13.9355 18.6816C15.8398 18.6816 17.5 17.7734 18.0664 16.1328C18.1445 15.9375 18.1738 15.7324 18.1738 15.5469C18.1738 15.127 17.8906 14.9414 17.5781 14.9414C17.2266 14.9414 17.0508 15.1465 16.9434 15.4688C16.543 16.7773 15.3516 17.5195 13.9355 17.5195C11.5234 17.5195 10.4395 15.4297 10.4395 13.1055C10.4395 10.752 11.582 8.73047 13.9258 8.73047C15.3223 8.73047 16.543 9.60938 16.8652 10.8008C16.9629 11.1133 17.1094 11.3281 17.4902 11.3281C17.8809 11.3281 18.0957 11.084 18.0957 10.7324C18.0957 10.5566 18.0566 10.332 17.9785 10.1465C17.3242 8.4668 15.6738 7.56836 13.9258 7.56836C10.8203 7.56836 9.07227 9.93164 9.07227 13.1055C9.07227 16.2402 10.7422 18.6816 13.9355 18.6816ZM10.9375 20.3809C11.1426 20.3809 11.2695 20.293 11.3281 20.0781L14.7461 6.66016C14.7852 6.54297 14.7949 6.48438 14.7949 6.44531C14.7949 6.24023 14.6387 6.07422 14.4043 6.07422C14.1895 6.07422 14.0625 6.17188 14.0039 6.38672L10.5762 19.7949C10.5566 19.8828 10.5469 19.9512 10.5469 20.0098C10.5469 20.2246 10.7129 20.3809 10.9375 20.3809ZM13.3398 20.3809C13.5449 20.3809 13.6719 20.293 13.7305 20.0781L17.1484 6.66016C17.1777 6.54297 17.1973 6.48438 17.1973 6.44531C17.1973 6.24023 17.041 6.07422 16.8066 6.07422C16.5918 6.07422 16.4551 6.17188 16.3965 6.38672L12.9785 19.7949C12.959 19.8828 12.9492 19.9512 12.9492 20.0098C12.9492 20.2246 13.1152 20.3809 13.3398 20.3809Z" fill="black" fill-opacity="0.85"/>
 </g>
</svg>
