<?xml version="1.0" ?><!-- Generator: Adobe Illustrator 25.0.0, SVG Export Plug-In . SVG Version: 6.00 Build 0)  --><svg xmlns="http://www.w3.org/2000/svg" xmlns:xlink="http://www.w3.org/1999/xlink" version="1.1" id="Layer_1" x="0px" y="0px" viewBox="0 0 512 512" style="enable-background:new 0 0 512 512;" xml:space="preserve">
<path d="M256,512c140,0,256-116.2,256-256C512,116,395.8,0,255.7,0C116,0,0,116,0,256C0,395.8,116.2,512,256,512z M256,469.3  c-118.5,0-213.1-94.9-213.1-213.3S137.3,42.7,255.7,42.7S469.1,137.5,469.3,256S374.5,469.3,256,469.3z M153.6,258.5  c0,43.9,13.8,78.1,37.9,98.6l-9.3,36.6c-0.5,1.8-0.8,3.8-0.8,5.3c0,7.5,4.8,12.8,12,12.8c6.3,0,10.8-3.3,12.5-10l7.8-30.9  c7,3,14.3,5.3,22.1,6.8l-4,16.3c-0.8,1.8-1,3.5-1,5.3c0,7.5,4.8,12.5,12.3,12.5c6,0,10.8-3.3,12.5-10l5.8-22.6  c40.7-2,70-23.1,81.1-54.7c1.5-4,2.5-8.5,2.5-12.5c0-9.3-6-15.8-15.6-15.8c-8.5,0-13.6,5.8-16.1,13.6c-5.5,19.6-21.8,34.6-43.9,37.6  L307.4,199c2.3,2.3,4.3,6.3,5.5,10.8c2.5,6,6.3,12,15.1,12c9.3,0,15.3-6.3,15.3-15.6c0-4.3-1-8.5-2.5-12.3  c-4.8-13.3-13.1-24.8-23.6-34.1l8-31.9c0.8-2,1-3.8,1-5.5c0-7.3-4.8-12.5-12.3-12.5c-6,0-10.8,3-12.5,9.8l-7,26.6  c-6.5-3.3-13.8-5.3-21.6-6.5l2.8-11.8c0.8-2,1-3.8,1-5.5c0-7.3-4.8-12.5-12.3-12.5c-6,0-10.8,3.3-12.5,9.8l-4.8,19.1  C190.2,142.8,153.6,188.7,153.6,258.5z M221.6,339.8l43.7-170.4c7.8,1,15.1,4,21.6,7.8l-43.4,171.2  C235.2,346.9,228.1,344.1,221.6,339.8z M187.2,258.5c0-46.7,19.3-79.3,51.5-87.3l-37.1,146.3C192.3,302.4,187.2,282.4,187.2,258.5z"/>
</svg>