<?xml version="1.0" encoding="UTF-8"?>
<!--Generator: Apple Native CoreSVG 326-->
<!DOCTYPE svg
PUBLIC "-//W3C//DTD SVG 1.1//EN"
       "http://www.w3.org/Graphics/SVG/1.1/DTD/svg11.dtd">
<svg version="1.1" xmlns="http://www.w3.org/2000/svg" xmlns:xlink="http://www.w3.org/1999/xlink" viewBox="0 0 30.3809 24.9191">
 <g>
  <rect height="24.9191" opacity="0" width="30.3809" x="0" y="0"/>
  <path d="M30.0195 14.9547C30.0195 7.09334 23.9746 0.648023 16.2988 0.00349172C15.8984-0.0355708 15.5859 0.257398 15.5859 0.667554L15.5859 4.66169C15.5859 4.99373 15.8301 5.2574 16.1719 5.28669C20.9863 5.87263 24.7266 9.97419 24.7266 14.9547C24.7266 17.2203 23.9551 19.3004 22.5879 21.0191C22.4023 21.2535 22.4121 21.5465 22.6172 21.7515L25.5176 24.6519C25.8105 24.9351 26.2305 24.9351 26.4844 24.6226C28.6914 22.0054 30.0195 18.6265 30.0195 14.9547Z" fill="black" fill-opacity="0.85"/>
  <path d="M0 14.9547C0 18.6363 1.32812 22.025 3.54492 24.6422C3.78906 24.9351 4.19922 24.9351 4.49219 24.6519L7.39258 21.7515C7.59766 21.5465 7.60742 21.2535 7.42188 21.0191C6.05469 19.3004 5.2832 17.2203 5.2832 14.9547C5.2832 9.97419 9.0332 5.87263 13.8379 5.28669C14.1895 5.2574 14.4238 4.99373 14.4238 4.66169L14.4238 0.667554C14.4238 0.257398 14.1211-0.0355708 13.7207 0.00349172C6.03516 0.648023 0 7.09334 0 14.9547Z" fill="black" fill-opacity="0.85"/>
  <path d="M15.1367 20.5894C17.041 20.5894 18.7012 19.6812 19.2676 18.0406C19.3457 17.8453 19.375 17.65 19.375 17.4547C19.375 17.0347 19.0918 16.859 18.7793 16.859C18.4277 16.859 18.252 17.064 18.1445 17.3765C17.7441 18.6949 16.5527 19.4273 15.1367 19.4273C12.7246 19.4273 11.6406 17.3472 11.6406 15.023C11.6406 12.6597 12.7832 10.648 15.127 10.648C16.5234 10.648 17.7441 11.5172 18.0664 12.7183C18.1641 13.0308 18.3105 13.2359 18.6914 13.2359C19.082 13.2359 19.2969 13.0015 19.2969 12.6402C19.2969 12.4644 19.2578 12.2398 19.1797 12.0543C18.5254 10.3746 16.875 9.48591 15.127 9.48591C12.0215 9.48591 10.2734 11.8394 10.2734 15.023C10.2734 18.148 11.9434 20.5894 15.1367 20.5894ZM12.1484 22.2984C12.3438 22.2984 12.4707 22.2105 12.5293 21.9859L15.9473 8.56794C15.9863 8.46052 15.9961 8.39216 15.9961 8.3531C15.9961 8.14802 15.8398 7.99177 15.6055 7.99177C15.3906 7.99177 15.2637 8.08943 15.2051 8.29451L11.7773 21.7027C11.7578 21.7906 11.748 21.859 11.748 21.9273C11.748 22.1324 11.9141 22.2984 12.1484 22.2984ZM14.541 22.2984C14.7461 22.2984 14.873 22.2105 14.9316 21.9859L18.3496 8.56794C18.3887 8.46052 18.3984 8.39216 18.3984 8.3531C18.3984 8.14802 18.2422 7.99177 18.0078 7.99177C17.793 7.99177 17.6562 8.08943 17.6074 8.29451L14.1797 21.7027C14.1602 21.7906 14.1504 21.859 14.1504 21.9273C14.1504 22.1324 14.3164 22.2984 14.541 22.2984Z" fill="black" fill-opacity="0.85"/>
 </g>
</svg>
