<?xml version="1.0" encoding="UTF-8"?>
<!--Generator: Apple Native CoreSVG 326-->
<!DOCTYPE svg
PUBLIC "-//W3C//DTD SVG 1.1//EN"
       "http://www.w3.org/Graphics/SVG/1.1/DTD/svg11.dtd">
<svg version="1.1" xmlns="http://www.w3.org/2000/svg" xmlns:xlink="http://www.w3.org/1999/xlink" viewBox="0 0 28.291 27.9395">
 <g>
  <rect height="27.9395" opacity="0" width="28.291" x="0" y="0"/>
  <path d="M13.9648 27.9297C21.6406 27.9297 27.9297 21.6504 27.9297 13.9648C27.9297 6.2793 21.6406 0 13.9648 0C6.28906 0 0 6.2793 0 13.9648C0 21.6504 6.28906 27.9297 13.9648 27.9297ZM13.9648 23.3398C8.7793 23.3398 4.58008 19.1504 4.58008 13.9648C4.58008 8.7793 8.7793 4.58008 13.9648 4.58008C19.1504 4.58008 23.3496 8.7793 23.3496 13.9648C23.3496 19.1504 19.1504 23.3398 13.9648 23.3398Z" fill="black" fill-opacity="0.85"/>
  <path d="M14.1016 19.4336C16.0059 19.4336 17.666 18.5352 18.2324 16.8848C18.3105 16.6992 18.3398 16.4941 18.3398 16.3086C18.3398 15.8789 18.0566 15.7031 17.7441 15.7031C17.3926 15.7031 17.2266 15.9082 17.1094 16.2207C16.7188 17.5391 15.5176 18.2715 14.1016 18.2715C11.6992 18.2715 10.6055 16.1914 10.6055 13.8672C10.6055 11.5039 11.748 9.49219 14.0918 9.49219C15.498 9.49219 16.709 10.3613 17.0312 11.5625C17.1289 11.875 17.2754 12.0898 17.6562 12.0898C18.0469 12.0898 18.2617 11.8457 18.2617 11.4941C18.2617 11.3086 18.2227 11.0938 18.1445 10.9082C17.5 9.21875 15.8496 8.33008 14.0918 8.33008C10.9863 8.33008 9.24805 10.6836 9.24805 13.8672C9.24805 17.002 10.918 19.4336 14.1016 19.4336ZM11.1133 21.1426C11.3086 21.1426 11.4355 21.0547 11.4941 20.8398L14.9219 7.41211C14.9512 7.30469 14.9609 7.24609 14.9609 7.19727C14.9609 7.00195 14.8047 6.83594 14.5703 6.83594C14.3555 6.83594 14.2285 6.93359 14.1699 7.14844L10.752 20.5566C10.7227 20.6348 10.7129 20.7031 10.7129 20.7715C10.7129 20.9766 10.8789 21.1426 11.1133 21.1426ZM13.5156 21.1426C13.7109 21.1426 13.8379 21.0547 13.8965 20.8398L17.3145 7.41211C17.3535 7.30469 17.3633 7.24609 17.3633 7.19727C17.3633 7.00195 17.207 6.83594 16.9727 6.83594C16.7578 6.83594 16.6309 6.93359 16.5723 7.14844L13.1445 20.5566C13.125 20.6348 13.1152 20.7031 13.1152 20.7715C13.1152 20.9766 13.2812 21.1426 13.5156 21.1426Z" fill="black" fill-opacity="0.85"/>
 </g>
</svg>
