<?xml version="1.0" ?><!-- Generator: Adobe Illustrator 25.0.0, SVG Export Plug-In . SVG Version: 6.00 Build 0)  --><svg xmlns="http://www.w3.org/2000/svg" xmlns:xlink="http://www.w3.org/1999/xlink" version="1.1" id="Layer_1" x="0px" y="0px" viewBox="0 0 512 512" style="enable-background:new 0 0 512 512;" xml:space="preserve">
<path d="M24.6,300.4c-32.3,32.3-32.8,73.8-0.7,105.9l100.3,100.5c6.9,6.9,18.7,6.9,25.6,0c6.9-7.1,6.9-18.5,0-25.4L95,426.8l23-23  l56.6,56.9c5.8,5.8,15.4,5.8,21.2,0c5.8-5.8,6-15.6,0.2-21.4l-56.9-56.6l23-23l56.6,56.9c6,5.8,15.6,5.8,21.2,0  c5.8-6,6-15.6,0.2-21.4l-56.9-56.6l23-23l56.6,56.9c5.8,5.8,15.4,5.8,21.2,0c5.8-6,6-15.6,0.2-21.4l-56.9-56.6l23-23L307,328  c6,6,15.6,6,21.2,0c5.8-5.8,6-15.4,0.2-21.2l-56.9-56.6l22.7-22.7l56.6,56.6c6,5.8,15.6,5.8,21.2,0.2c6-6,6.2-15.6,0.2-21.4  l-56.6-56.9l22.7-22.7l56.6,56.4c6,6,15.6,6,21.2,0.2c5.8-5.8,6-15.4,0.2-21.2l-56.6-56.9l22.7-22.7l56.6,56.4  c6,6.2,15.6,6.2,21.2,0.2c6-5.8,6.2-15.4,0.2-21.4L404,117.8l23-23l54.6,54.6c6.9,6.9,18.1,7.1,25,0.2c7.1-6.9,7.1-18.3,0-25.4  L406.3,23.9C374.2-8.2,332.7-8,300.4,24.6L24.6,300.4z M53.1,384.6C33.5,365,33,342.3,52.4,323.1L323.1,52.4  c19.2-19.2,42.4-19.2,61.5,0.2l16.9,16.9L69.8,401.4L53.1,384.6z"/>
</svg>