<?xml version="1.0" encoding="UTF-8"?>
<!--Generator: Apple Native CoreSVG 326-->
<!DOCTYPE svg
PUBLIC "-//W3C//DTD SVG 1.1//EN"
       "http://www.w3.org/Graphics/SVG/1.1/DTD/svg11.dtd">
<svg version="1.1" xmlns="http://www.w3.org/2000/svg" xmlns:xlink="http://www.w3.org/1999/xlink" viewBox="0 0 25.8008 25.459">
 <g>
  <rect height="25.459" opacity="0" width="25.8008" x="0" y="0"/>
  <path d="M25.4395 12.7344C25.4395 19.7461 19.7266 25.459 12.7148 25.459C5.71289 25.459 0 19.7461 0 12.7344C0 5.73242 5.71289 0.0195312 12.7148 0.0195312C19.7266 0.0195312 25.4395 5.73242 25.4395 12.7344ZM13.9551 8.7793L13.9551 9.89258L11.3281 9.89258L11.3281 8.7793C11.3281 7.31445 10.1367 6.11328 8.67188 6.11328C7.20703 6.11328 6.01562 7.30469 6.01562 8.7793C6.01562 10.2344 7.20703 11.416 8.67188 11.416L9.78516 11.416L9.78516 14.0723L8.67188 14.0723C7.20703 14.0723 6.01562 15.2539 6.01562 16.709C6.01562 18.1836 7.20703 19.3652 8.67188 19.3652C10.1367 19.3652 11.3281 18.1738 11.3281 16.709L11.3281 15.5859L13.9551 15.5859L13.9551 16.709C13.9551 18.1738 15.1465 19.3652 16.6113 19.3652C18.0859 19.3652 19.2676 18.1836 19.2676 16.709C19.2676 15.2539 18.0762 14.0723 16.6113 14.0723L15.498 14.0723L15.498 11.416L16.6113 11.416C18.0762 11.416 19.2676 10.2344 19.2676 8.7793C19.2676 7.30469 18.0859 6.11328 16.6113 6.11328C15.1465 6.11328 13.9551 7.31445 13.9551 8.7793ZM9.78516 16.6992C9.78516 17.3145 9.28711 17.832 8.67188 17.832C8.04688 17.832 7.54883 17.3242 7.54883 16.6992C7.54883 16.084 8.05664 15.5664 8.67188 15.5664L9.78516 15.5664ZM17.7441 16.6992C17.7441 17.3242 17.2363 17.832 16.6113 17.832C16.0059 17.832 15.498 17.3145 15.498 16.6992L15.498 15.5664L16.6113 15.5664C17.2266 15.5664 17.7441 16.084 17.7441 16.6992ZM13.9551 14.082L11.3281 14.082L11.3281 11.4062L13.9551 11.4062ZM9.78516 8.7793L9.78516 9.90234L8.67188 9.90234C8.04688 9.90234 7.54883 9.39453 7.54883 8.7793C7.54883 8.16406 8.05664 7.64648 8.67188 7.64648C9.28711 7.64648 9.78516 8.16406 9.78516 8.7793ZM17.7441 8.7793C17.7441 9.39453 17.2363 9.90234 16.6113 9.90234L15.498 9.90234L15.498 8.7793C15.498 8.16406 16.0059 7.64648 16.6113 7.64648C17.2266 7.64648 17.7441 8.16406 17.7441 8.7793Z" fill="black" fill-opacity="0.85"/>
 </g>
</svg>
