<?xml version="1.0" ?><!-- Generator: Adobe Illustrator 25.0.0, SVG Export Plug-In . SVG Version: 6.00 Build 0)  --><svg xmlns="http://www.w3.org/2000/svg" xmlns:xlink="http://www.w3.org/1999/xlink" version="1.1" id="Layer_1" x="0px" y="0px" viewBox="0 0 512 512" style="enable-background:new 0 0 512 512;" xml:space="preserve">
<path d="M87.3,512h337.3c58.4,0,87.3-28.9,87.3-86.2V86.2C512,28.9,483.1,0,424.7,0H87.3C29.2,0,0,28.6,0,86.2v339.6  C0,483.4,29.2,512,87.3,512z M87.9,467.2c-27.8,0-43.1-14.7-43.1-43.7V88.4c0-28.9,15.3-43.7,43.1-43.7h336.2  c27.5,0,43.1,14.7,43.1,43.7v335.1c0,28.9-15.6,43.7-43.1,43.7H87.9z M190.8,230v51.5h-20.9c-32.8,0-59,26.1-59,58.4  c0,32.8,26.1,59.2,59,59.2c32.3,0,59-26.7,59-59.2v-21.1h50.6v21.1c0,32.5,26.4,59.2,59,59.2s59-26.4,59-59.2  c0-32.3-26.4-58.4-59-58.4h-21.1V230h21.1c32.5,0,59-26.1,59-58.7s-26.4-59-59-59s-59,26.7-59,59v21.1h-50.6v-21.1  c0-32.3-26.7-59-59-59c-32.8,0-59,26.4-59,59s26.1,58.7,59,58.7H190.8z M169.9,192.7c-12,0-21.4-9.5-21.4-21.4  c0-11.4,9.7-21.4,21.4-21.4c11.4,0,20.9,10,20.9,21.4v21.4H169.9z M338.5,192.7h-21.1v-21.4c0-11.4,9.7-21.4,21.1-21.4  s21.4,10,21.4,21.4C359.9,183.3,350.1,192.7,338.5,192.7z M228.9,281.7v-52h50.6v52H228.9z M169.9,318.2h20.9v21.4  c0,12-9.5,21.4-20.9,21.4c-12,0-21.4-9.5-21.4-21.4C148.5,328.2,158.2,318.2,169.9,318.2z M338.5,318.2c11.4,0,21.4,10,21.4,21.4  c0,12-9.7,21.4-21.4,21.4c-11.4,0-21.1-9.5-21.1-21.4v-21.4H338.5z"/>
</svg>