<?xml version="1.0" ?><!-- Generator: Adobe Illustrator 25.0.0, SVG Export Plug-In . SVG Version: 6.00 Build 0)  --><svg xmlns="http://www.w3.org/2000/svg" xmlns:xlink="http://www.w3.org/1999/xlink" version="1.1" id="Layer_1" x="0px" y="0px" viewBox="0 0 512 512" style="enable-background:new 0 0 512 512;" xml:space="preserve">
<path d="M151.3,192.9v126.5H96.8c-53.4,0-96.7,42-96.7,95.6c0,53.6,43.3,97,96.7,97c53.4,0,96.7-43.3,96.7-97v-54.2h124.9V415  c0,53.6,43.3,97,96.7,97c53.4,0,96.7-43.3,96.7-97c0-53.6-43.3-95.6-96.7-95.6h-54.5V192.9h54.5c53.4,0,96.7-42,96.7-95.6  S468.5,0,415.2,0c-53.4,0-96.7,43.6-96.7,97.3v54.2H193.6V97.3C193.6,43.6,150.2,0,96.8,0C43.5,0,0.1,43.6,0.1,97.3  s43.3,95.6,96.7,95.6H151.3z M96.8,152c-29.8,0-54.5-24.7-54.5-54.7s24.7-55,54.5-55s54.5,24.9,54.5,55V152H96.8z M415.2,152h-54.5  V97.3c0-30.1,24.7-55,54.5-55c29.8,0,54.5,24.9,54.5,55S445,152,415.2,152z M193.6,319.9V192.3h124.9v127.6H193.6z M96.8,360h54.5  v54.7c0,30.1-24.7,54.7-54.5,54.7s-54.5-24.7-54.5-54.7C42.4,384.7,67,360,96.8,360z M415.2,360c29.8,0,54.5,24.7,54.5,54.7  c0,30.1-24.7,54.7-54.5,54.7c-29.8,0-54.5-24.7-54.5-54.7V360H415.2z"/>
</svg>