<?xml version="1.0" ?><!-- Generator: Adobe Illustrator 25.0.0, SVG Export Plug-In . SVG Version: 6.00 Build 0)  --><svg xmlns="http://www.w3.org/2000/svg" xmlns:xlink="http://www.w3.org/1999/xlink" version="1.1" id="Layer_1" x="0px" y="0px" viewBox="0 0 512 512" style="enable-background:new 0 0 512 512;" xml:space="preserve">
<path d="M256,512c140,0,256-116.2,256-256C512,116,395.8,0,255.7,0C116,0,0,116,0,256C0,395.8,116.2,512,256,512z M256,469.3  c-118.5,0-213.1-94.9-213.1-213.3S137.3,42.7,255.7,42.7S469.1,137.5,469.3,256S374.5,469.3,256,469.3z M196.8,232.9v46.7h-18.8  c-29.6,0-53.5,23.6-53.5,52.7c0,29.4,23.8,53.2,53.5,53.2c29.1,0,53.2-24.1,53.2-53.2v-19.1h45.7v19.1c0,29.1,23.8,53.2,53.2,53.2  s53.2-23.8,53.2-53.2c0-29.1-23.8-52.7-53.2-52.7H311v-46.7H330c29.4,0,53.2-23.6,53.2-52.7c0-29.6-23.8-53.2-53.2-53.2  s-53.2,23.8-53.2,53.2v19.1h-45.7v-19.1c0-29.4-24.1-53.2-53.2-53.2c-29.6,0-53.5,23.6-53.5,53.2c0,29.1,23.8,52.7,53.5,52.7H196.8z   M177.9,199.5c-10.8,0-19.3-8.8-19.3-19.3s8.8-19.3,19.3-19.3c10.3,0,18.8,9,18.8,19.3v19.3H177.9z M330,199.5H311v-19.3  c0-10.3,8.5-19.3,19.1-19.3c10.3,0,19.3,8.8,19.3,19.3S340.6,199.5,330,199.5z M231.2,279.8v-47.2h45.7v47.2H231.2z M177.9,312.7  h18.8V332c0,10.5-8.5,19.3-18.8,19.3c-10.8,0-19.3-8.8-19.3-19.3S167.4,312.7,177.9,312.7z M330,312.7c10.3,0,19.3,8.8,19.3,19.3  s-8.8,19.3-19.3,19.3S311,342.6,311,332v-19.3H330z"/>
</svg>