<?xml version="1.0" encoding="UTF-8"?>
<!--Generator: Apple Native CoreSVG 326-->
<!DOCTYPE svg
PUBLIC "-//W3C//DTD SVG 1.1//EN"
       "http://www.w3.org/Graphics/SVG/1.1/DTD/svg11.dtd">
<svg version="1.1" xmlns="http://www.w3.org/2000/svg" xmlns:xlink="http://www.w3.org/1999/xlink" viewBox="0 0 19.0039 28.6816">
 <g>
  <rect height="28.6816" opacity="0" width="19.0039" x="0" y="0"/>
  <path d="M8.70117 3.7793L9.94141 3.7793L9.94141 0.605469C9.94141 0.263672 9.66797 0 9.32617 0C8.97461 0 8.70117 0.273438 8.70117 0.615234ZM9.32617 10.1172C11.3965 10.1172 13.0469 8.4668 13.0469 6.39648C13.0469 4.31641 11.3965 2.66602 9.32617 2.66602C7.24609 2.66602 5.5957 4.31641 5.5957 6.39648C5.5957 8.4668 7.24609 10.1172 9.32617 10.1172ZM9.32617 8.48633C8.125 8.48633 7.22656 7.59766 7.22656 6.39648C7.22656 5.19531 8.125 4.29688 9.32617 4.29688C10.5176 4.29688 11.416 5.19531 11.416 6.39648C11.416 7.59766 10.5176 8.48633 9.32617 8.48633ZM8.69141 9.20898L7.00195 8.78906L2.01172 25.4492C1.875 25.9082 2.1582 26.3867 2.62695 26.5039C3.08594 26.6406 3.54492 26.3672 3.68164 25.8984ZM2.49023 24.8535L1.66016 27.9102C1.58203 28.2129 1.73828 28.5059 2.04102 28.584C2.34375 28.6719 2.64648 28.5059 2.72461 28.2031L3.56445 25.1562ZM9.95117 9.20898L14.9609 25.8984C15.0977 26.3672 15.5566 26.6406 16.0156 26.5039C16.4844 26.3867 16.7676 25.9082 16.6309 25.4492L11.6406 8.78906ZM16.1523 24.8535L15.0781 25.1562L15.918 28.2031C15.9961 28.5059 16.2988 28.6719 16.6016 28.584C16.9043 28.5059 17.0605 28.2129 16.9824 27.9102ZM0.712891 16.2109C0.322266 16.2109 0 16.5332 0 16.9238C0 17.3145 0.322266 17.6367 0.712891 17.6367L17.9297 17.6367C18.3203 17.6367 18.6426 17.3145 18.6426 16.9238C18.6426 16.5332 18.3203 16.2109 17.9297 16.2109ZM10.0391 14.7559C10.0391 14.3555 9.7168 14.0332 9.32617 14.0332C8.92578 14.0332 8.60352 14.3555 8.60352 14.7559L8.60352 19.0918C8.60352 19.4922 8.92578 19.8145 9.32617 19.8145C9.7168 19.8145 10.0391 19.4922 10.0391 19.0918Z" fill="black" fill-opacity="0.85"/>
 </g>
</svg>
