<?xml version="1.0" encoding="UTF-8"?>
<!--Generator: Apple Native CoreSVG 326-->
<!DOCTYPE svg
PUBLIC "-//W3C//DTD SVG 1.1//EN"
       "http://www.w3.org/Graphics/SVG/1.1/DTD/svg11.dtd">
<svg version="1.1" xmlns="http://www.w3.org/2000/svg" xmlns:xlink="http://www.w3.org/1999/xlink" viewBox="0 0 22.0801 32.8027">
 <g>
  <rect height="32.8027" opacity="0" width="22.0801" x="0" y="0"/>
  <path d="M3.79883 27.2266L9.9707 27.2266L9.9707 5.55664L3.79883 5.55664C1.2793 5.55664 0 6.82617 0 9.31641L0 23.4668C0 25.9668 1.2793 27.2266 3.79883 27.2266ZM3.83789 25.498C2.4707 25.498 1.72852 24.7754 1.72852 23.3691L1.72852 9.41406C1.72852 8.00781 2.4707 7.28516 3.83789 7.28516L8.24219 7.28516L8.24219 25.498ZM17.9199 27.2266C20.4395 27.2266 21.7188 25.9473 21.7188 23.4668L21.7188 9.31641C21.7188 6.83594 20.4395 5.55664 17.9199 5.55664L11.7285 5.55664L11.7285 27.2266ZM17.8809 25.498L13.457 25.498L13.457 7.28516L17.8809 7.28516C19.2188 7.28516 19.9902 8.00781 19.9902 9.41406L19.9902 23.3691C19.9902 24.7754 19.2188 25.498 17.8809 25.498ZM10.8496 0C10.3613 0 9.9707 0.390625 9.9707 0.878906L9.9707 5.55664L11.7285 5.55664L11.7285 0.878906C11.7285 0.390625 11.3379 0 10.8496 0ZM10.8496 32.7832C11.3379 32.7832 11.7285 32.3926 11.7285 31.9043L11.7285 27.2266L9.9707 27.2266L9.9707 31.9043C9.9707 32.3926 10.3613 32.7832 10.8496 32.7832Z" fill="black" fill-opacity="0.85"/>
 </g>
</svg>
