<?xml version="1.0" encoding="UTF-8"?>
<!--Generator: Apple Native CoreSVG 326-->
<!DOCTYPE svg
PUBLIC "-//W3C//DTD SVG 1.1//EN"
       "http://www.w3.org/Graphics/SVG/1.1/DTD/svg11.dtd">
<svg version="1.1" xmlns="http://www.w3.org/2000/svg" xmlns:xlink="http://www.w3.org/1999/xlink" viewBox="0 0 25.0684 20.4395">
 <g>
  <rect height="20.4395" opacity="0" width="25.0684" x="0" y="0"/>
  <path d="M1.61133 2.20703L5.67383 2.20703C6.19141 2.20703 6.54297 2.32422 6.8457 2.62695L11.2793 7.06055L12.8613 6.33789L8.125 1.60156C7.45117 0.927734 6.60156 0.644531 5.49805 0.644531L1.61133 0.644531C1.11328 0.644531 0.800781 0.957031 0.800781 1.41602C0.800781 1.88477 1.11328 2.20703 1.61133 2.20703ZM2.56836 17.9004L5.77148 18.2715L5.94727 16.543L2.95898 16.2012C2.11914 16.0938 1.72852 15.7129 1.72852 14.9609L1.72852 13.4277C1.72852 11.084 3.24219 9.79492 6.24023 9.21875L14.541 7.63672C15.1855 7.50977 15.625 7.41211 16.0352 7.12891L23.7207 1.96289C24.6973 1.29883 23.75-0.146484 22.6855 0.566406L14.7266 5.88867L5.99609 7.53906C2.00195 8.29102 0 10.0977 0 13.4277L0 15.0781C0 16.8262 0.791016 17.7051 2.56836 17.9004ZM9.07227 20.4395C11.4941 20.4395 13.3887 18.5449 13.3887 16.1328C13.3887 13.7109 11.4941 11.8164 9.07227 11.8164C6.65039 11.8164 4.76562 13.7109 4.76562 16.1328C4.76562 18.5449 6.65039 20.4395 9.07227 20.4395ZM9.07227 18.8086C7.57812 18.8086 6.39648 17.627 6.39648 16.1328C6.39648 14.6289 7.57812 13.4473 9.07227 13.4473C10.5762 13.4473 11.7578 14.6289 11.7578 16.1328C11.7578 17.627 10.5762 18.8086 9.07227 18.8086ZM24.707 17.6855L24.707 15.957L12.2559 15.957L12.2559 17.6855ZM24.707 7.02148L24.707 5.30273L14.8926 5.88867L14.2383 7.65625Z" fill="black" fill-opacity="0.85"/>
 </g>
</svg>
