<?xml version="1.0" encoding="UTF-8"?>
<!--Generator: Apple Native CoreSVG 326-->
<!DOCTYPE svg
PUBLIC "-//W3C//DTD SVG 1.1//EN"
       "http://www.w3.org/Graphics/SVG/1.1/DTD/svg11.dtd">
<svg version="1.1" xmlns="http://www.w3.org/2000/svg" xmlns:xlink="http://www.w3.org/1999/xlink" viewBox="0 0 40.3281 30.6419">
 <g>
  <rect height="30.6419" opacity="0" width="40.3281" x="0" y="0"/>
  <path d="M4.19725 30.0719C4.45115 30.5016 4.9785 30.6383 5.37889 30.4039L37.6347 11.8004C38.0254 11.5758 38.1719 11.0485 37.9472 10.6383C37.6933 10.2086 37.1562 10.0817 36.7656 10.3063L4.50975 28.9098C4.11912 29.1442 3.97264 29.6715 4.19725 30.0719ZM10.6523 23.2164C12.1367 22.3571 12.625 20.5309 11.7656 19.0465C10.916 17.5719 9.08006 17.0836 7.60545 17.9332C6.12108 18.7926 5.62303 20.6188 6.4824 22.1032C7.33201 23.5778 9.16795 24.0758 10.6523 23.2164ZM28.9824 12.6305C30.4668 11.7711 30.9551 9.94496 30.1055 8.46059C29.2461 6.98598 27.4199 6.4977 25.9355 7.34731C24.4512 8.20668 23.9629 10.0329 24.8125 11.5075C25.6719 12.9918 27.498 13.4899 28.9824 12.6305ZM21.5312 2.42543C21.0527 2.59145 20.6328 2.78676 20.2422 3.0602L10.2617 9.69106L12.6738 4.75942C13.0937 3.90004 11.8437 3.26528 11.3847 4.20278L7.95701 11.1559L2.49803 15.8532C0.00779491 18.0016-0.666033 20.0719 0.681623 22.4059L1.34569 23.568C2.05858 24.7985 2.96678 25.0817 4.2949 24.5153L6.27733 23.6657C6.03319 23.4118 5.71092 22.9821 5.52537 22.65C4.37303 20.6481 5.03709 18.1383 7.04881 16.986C9.06053 15.8239 11.5605 16.4977 12.7226 18.4997C12.8691 18.7438 13.0058 19.0368 13.0742 19.2418L24.3535 12.7282C24.1875 12.5622 24.0117 12.318 23.8652 12.0641C22.7031 10.0622 23.3769 7.55239 25.3887 6.40004C27.3906 5.23793 29.9785 6.04848 31.1406 8.05043C31.209 8.16762 31.2383 8.22621 31.2969 8.3434L32.1074 7.75746C33.6699 6.61489 33.9336 5.2477 32.9472 3.53871L32.0586 1.99574C30.9062 0.0035574 29.6367-0.406599 27.4199 0.364886Z" fill="black" fill-opacity="0.85"/>
  <path d="M24.6758 30.5309C25.0664 30.5309 25.3203 30.277 25.3203 29.8766L25.3203 26.986L27.4492 26.986L27.4492 29.8766C27.4492 30.277 27.7031 30.5309 28.0937 30.5309C28.4844 30.5309 28.7383 30.277 28.7383 29.8766L28.7383 23.1579C28.7383 22.7575 28.4844 22.5036 28.0937 22.5036C27.7031 22.5036 27.4492 22.7575 27.4492 23.1579L27.4492 25.902L25.3203 25.902L25.3203 23.1579C25.3203 22.7575 25.0664 22.5036 24.6758 22.5036C24.2949 22.5036 24.0508 22.7575 24.0508 23.1579L24.0508 29.8766C24.0508 30.277 24.2949 30.5309 24.6758 30.5309ZM30.457 30.5309L31.8437 30.5309C33.8652 30.5309 34.539 28.5192 34.539 26.4977C34.539 24.3102 33.7773 22.5036 31.8437 22.5036L30.457 22.5036C30.0859 22.5036 29.8222 22.7282 29.8222 23.1676L29.8222 29.8668C29.8222 30.3063 30.0859 30.5309 30.457 30.5309ZM31.082 29.4567L31.082 23.5875L31.6875 23.5875C32.9863 23.5875 33.2402 25.2086 33.2402 26.5075C33.2402 27.8063 33.0058 29.4567 31.6875 29.4567ZM37.8105 30.609C38.6211 30.609 39.1875 30.1891 39.5488 29.5836C39.7734 29.2223 39.9687 28.6266 39.9687 28.236C39.9687 27.8747 39.7246 27.65 39.373 27.65C39.0898 27.65 38.875 27.8454 38.8066 28.1579C38.6601 28.9293 38.4355 29.4762 37.7715 29.4762C36.9414 29.4762 36.5801 28.2164 36.5801 26.5075C36.5801 24.6325 37.0488 23.5485 37.7715 23.5485C38.3867 23.5485 38.6797 24.1637 38.7871 24.8668C38.8359 25.2086 39.0703 25.4137 39.4023 25.4137C39.7441 25.4137 39.9394 25.1696 39.9394 24.8278C39.9394 24.3688 39.7246 23.6657 39.3437 23.2164C38.9531 22.7282 38.4062 22.4352 37.7617 22.4352C36.668 22.4352 36.0234 23.1774 35.6816 24.0465C35.3691 24.7887 35.291 25.6383 35.291 26.5075C35.291 27.5329 35.3887 28.5485 35.8476 29.3883C36.2773 30.1696 36.9121 30.609 37.8105 30.609Z" fill="black" fill-opacity="0.85"/>
 </g>
</svg>
