<?xml version="1.0" encoding="UTF-8"?>
<!--Generator: Apple Native CoreSVG 326-->
<!DOCTYPE svg
PUBLIC "-//W3C//DTD SVG 1.1//EN"
       "http://www.w3.org/Graphics/SVG/1.1/DTD/svg11.dtd">
<svg version="1.1" xmlns="http://www.w3.org/2000/svg" xmlns:xlink="http://www.w3.org/1999/xlink" viewBox="0 0 46.5137 29.751">
 <g>
  <rect height="29.751" opacity="0" width="46.5137" x="0" y="0"/>
  <path d="M13.9355 21.3257C13.9355 23.4449 12.2754 25.0952 10.166 25.0952C8.04688 25.0952 6.39648 23.4449 6.39648 21.3257C6.39648 19.2261 8.04688 17.566 10.166 17.566C12.2754 17.566 13.9355 19.2261 13.9355 21.3257ZM40.0684 21.3257C40.0684 23.4449 38.418 25.0952 36.2988 25.0952C34.1895 25.0952 32.5293 23.4449 32.5293 21.3257C32.5293 19.2261 34.1895 17.566 36.2988 17.566C38.418 17.566 40.0684 19.2261 40.0684 21.3257ZM23.7207 6.61869L18.0957 10.4077L32.8613 9.46048C33.4473 9.42142 34.0234 9.46048 34.6289 9.58744L42.1973 11.0132C45.0391 11.5601 46.1523 12.7808 46.1523 15.6324L46.1523 17.8199C46.1523 20.2613 45.0195 21.5503 42.6465 21.814L41.416 21.941C41.4258 21.7847 41.4258 21.6968 41.4258 21.521C41.4258 18.6695 39.1602 16.2085 36.2988 16.2085C33.4375 16.2085 31.1719 18.4742 31.1719 21.3257C31.1719 21.6968 31.2109 22.0581 31.2891 22.3413L15.2051 22.3413C15.2637 22.0777 15.293 21.687 15.293 21.3257C15.293 18.4742 13.0273 16.2085 10.166 16.2085C7.30469 16.2085 5.0293 18.4742 5.0293 21.3257C5.0293 21.7945 5.09766 22.4585 5.21484 22.8785L2.56836 22.5562C0.791016 22.3511 0 21.482 0 19.7339L0 18.0835C0 14.7535 2.00195 12.9468 5.99609 12.1949L14.7266 10.5445L22.6855 5.2222C23.75 4.50931 24.6973 5.95462 23.7207 6.61869ZM22.4609 13.689L19.8242 18.0347C19.5117 18.5425 19.7461 19.0406 20.3418 19.0406L25.8008 19.0406C26.3965 19.0406 26.6504 18.5523 26.3379 18.0445L23.6621 13.689C23.3789 13.2007 22.7734 13.1812 22.4609 13.689Z" fill="black" fill-opacity="0.85"/>
  <path d="M26.4453 24.8706L23.7012 29.3628C23.3887 29.8706 22.7637 29.8902 22.4414 29.3628L19.7168 24.8804C19.3848 24.3531 19.6387 23.8355 20.2637 23.8355L25.8887 23.8355C26.5039 23.8355 26.7773 24.3433 26.4453 24.8706Z" fill="black" fill-opacity="0.85"/>
 </g>
</svg>
