<?xml version="1.0" encoding="UTF-8"?>
<!--Generator: Apple Native CoreSVG 326-->
<!DOCTYPE svg
PUBLIC "-//W3C//DTD SVG 1.1//EN"
       "http://www.w3.org/Graphics/SVG/1.1/DTD/svg11.dtd">
<svg version="1.1" xmlns="http://www.w3.org/2000/svg" xmlns:xlink="http://www.w3.org/1999/xlink" viewBox="0 0 46.5137 20.4395">
 <g>
  <rect height="20.4395" opacity="0" width="46.5137" x="0" y="0"/>
  <path d="M6.51367 4.20898C6.03516 4.20898 5.64453 3.81836 5.64453 3.33984C5.64453 2.87109 6.03516 2.4707 6.51367 2.4707L9.6875 2.4707C11.5039 2.4707 12.6562 2.99805 13.6719 4.31641L17.5977 9.44336C18.3691 10.4492 18.8867 10.7227 20.0391 10.7227L22.7051 10.7227L22.7051 9.51172C22.7051 8.74023 23.3789 8.51562 23.9551 8.89648L27.0898 10.9082C27.6465 11.2598 27.6367 11.9238 27.0996 12.2559L23.9453 14.2773C23.3789 14.6484 22.7051 14.4238 22.7051 13.6621L22.7051 12.4512L20.0391 12.4512C18.3691 12.4512 17.2559 11.8652 16.2207 10.5176L12.3242 5.38086C11.6309 4.46289 11.0547 4.20898 9.6875 4.20898ZM10.166 20.4395C12.2754 20.4395 13.9355 18.7891 13.9355 16.6699C13.9355 14.5703 12.2754 12.9102 10.166 12.9102C8.04688 12.9102 6.39648 14.5703 6.39648 16.6699C6.39648 18.7891 8.04688 20.4395 10.166 20.4395ZM36.2988 20.4395C38.418 20.4395 40.0684 18.7891 40.0684 16.6699C40.0684 14.5703 38.418 12.9102 36.2988 12.9102C34.1895 12.9102 32.5293 14.5703 32.5293 16.6699C32.5293 18.7891 34.1895 20.4395 36.2988 20.4395ZM34.6289 4.93164C34.0234 4.80469 33.4473 4.76562 32.8613 4.80469L18.0957 5.75195L23.7207 1.96289C24.6973 1.29883 23.75-0.146484 22.6855 0.566406L14.7266 5.88867L5.99609 7.53906C2.00195 8.29102 0 10.0977 0 13.4277L0 15.0781C0 16.8262 0.791016 17.6953 2.56836 17.9004L5.21484 18.2227C5.09766 17.8027 5.0293 17.1387 5.0293 16.6699C5.0293 13.8184 7.30469 11.5527 10.166 11.5527C13.0273 11.5527 15.293 13.8184 15.293 16.6699C15.293 17.0312 15.2637 17.4219 15.2051 17.6855L31.2891 17.6855C31.2109 17.4023 31.1719 17.041 31.1719 16.6699C31.1719 13.8184 33.4375 11.5527 36.2988 11.5527C39.1602 11.5527 41.4258 14.0137 41.4258 16.8652C41.4258 17.041 41.4258 17.1289 41.416 17.2852L42.6465 17.1582C45.0195 16.8945 46.1523 15.6055 46.1523 13.1641L46.1523 10.9766C46.1523 8.125 45.0391 6.9043 42.1973 6.35742Z" fill="black" fill-opacity="0.85"/>
 </g>
</svg>
