<?xml version="1.0" encoding="UTF-8"?>
<!--Generator: Apple Native CoreSVG 326-->
<!DOCTYPE svg
PUBLIC "-//W3C//DTD SVG 1.1//EN"
       "http://www.w3.org/Graphics/SVG/1.1/DTD/svg11.dtd">
<svg version="1.1" xmlns="http://www.w3.org/2000/svg" xmlns:xlink="http://www.w3.org/1999/xlink" viewBox="0 0 46.5137 30.459">
 <g>
  <rect height="30.459" opacity="0" width="46.5137" x="0" y="0"/>
  <path d="M20.1102 9.39953L18.1748 10.7004L20.1384 10.582L20.166 11.7383C20.173 11.9353 20.2008 12.1255 20.2494 12.3057L14.5304 12.6485L6.24023 14.2285C3.24219 14.8047 1.72852 16.0938 1.72852 18.4375L1.72852 19.9707C1.72852 20.7227 2.11914 21.1133 2.95898 21.2109L4.77912 21.4191C4.76846 21.3288 4.76562 21.2361 4.76562 21.1426C4.76562 18.7207 6.65039 16.8262 9.07227 16.8262C11.4347 16.8262 13.2953 18.6288 13.3801 20.9668L32.7723 20.9668C32.857 18.6288 34.7176 16.8262 37.0801 16.8262C39.314 16.8262 41.0909 18.438 41.3495 20.5902L42.4316 20.4688C43.7891 20.3125 44.4238 19.5801 44.4238 18.1738L44.4238 15.9863C44.4238 14.2871 43.7402 13.4961 41.8945 13.1445L33.3008 11.5234L25.0922 12.0154C25.1058 11.925 25.1138 11.8324 25.1172 11.7383L25.152 10.2795L32.8613 9.81445C33.4473 9.78516 34.0234 9.81445 34.6289 9.94141L42.1973 11.3672C45.0293 11.9043 46.1523 13.1348 46.1523 15.9863L46.1523 18.1738C46.1523 20.6152 45.0195 21.9043 42.6465 22.168L41.2247 22.3245C40.7273 24.1465 39.0884 25.4492 37.0801 25.4492C35.2112 25.4492 33.6563 24.3211 33.0479 22.6953L13.1044 22.6953C12.496 24.3211 10.9412 25.4492 9.07227 25.4492C7.41348 25.4492 6.00666 24.5605 5.28548 23.2249L2.56836 22.9102C0.791016 22.7148 0 21.8359 0 20.0879L0 18.4375C0 15.1074 2.00195 13.3008 5.99609 12.5488L14.7266 10.8984L20.0609 7.33133ZM6.39648 21.1426C6.39648 22.6367 7.57812 23.8184 9.07227 23.8184C10.5762 23.8184 11.7578 22.6367 11.7578 21.1426C11.7578 19.6387 10.5762 18.457 9.07227 18.457C7.57812 18.457 6.39648 19.6387 6.39648 21.1426ZM34.3945 21.1426C34.3945 22.6367 35.5859 23.8184 37.0801 23.8184C38.5742 23.8184 39.7559 22.6367 39.7559 21.1426C39.7559 19.6387 38.5742 18.457 37.0801 18.457C35.5859 18.457 34.3945 19.6387 34.3945 21.1426Z" fill="black" fill-opacity="0.85"/>
  <path d="M22.6465 18.0469C23.4473 18.0469 24.1309 17.3828 24.1309 16.6113C24.1309 15.8105 23.457 15.166 22.6465 15.166C21.8164 15.166 21.1523 15.8105 21.1523 16.6113C21.1523 17.3828 21.8359 18.0469 22.6465 18.0469ZM22.6465 12.5977C23.1641 12.5977 23.5352 12.2266 23.5547 11.6895L23.7695 2.68555C23.7891 2.01172 23.3398 1.5625 22.6465 1.5625C21.9434 1.5625 21.4941 2.01172 21.5137 2.68555L21.7285 11.6895C21.748 12.2266 22.1191 12.5977 22.6465 12.5977Z" fill="black" fill-opacity="0.85"/>
 </g>
</svg>
