<?xml version="1.0" encoding="UTF-8"?>
<!--Generator: Apple Native CoreSVG 326-->
<!DOCTYPE svg
PUBLIC "-//W3C//DTD SVG 1.1//EN"
       "http://www.w3.org/Graphics/SVG/1.1/DTD/svg11.dtd">
<svg version="1.1" xmlns="http://www.w3.org/2000/svg" xmlns:xlink="http://www.w3.org/1999/xlink" viewBox="0 0 46.5137 27.7441">
 <g>
  <rect height="27.7441" opacity="0" width="46.5137" x="0" y="0"/>
  <path d="M15.3223 21.3379L31.2988 21.3379C31.2207 21.0547 31.1816 20.6934 31.1816 20.3223C31.1816 17.4707 33.4473 15.2051 36.3086 15.2051C39.1699 15.2051 41.4355 17.666 41.4355 20.5176C41.4355 20.6934 41.4355 20.7812 41.4258 20.9375L42.6465 20.8105C45.0195 20.5469 46.1523 19.2578 46.1523 16.8164L46.1523 14.6289C46.1523 11.7773 45.0391 10.459 42.1973 10.0098L35.3418 8.92578C34.4043 8.7793 32.6367 8.7207 30.9766 8.79883L18.0957 9.4043L23.7207 5.61523C24.6973 4.95117 23.75 3.50586 22.6855 4.21875L14.7266 9.54102L5.99609 11.1914C2.00195 11.9434 0 13.75 0 17.0801L0 18.7305C0 20.4785 0.791016 21.3574 2.56836 21.5527L5.33203 21.875C5.21484 21.4551 5.15625 20.791 5.15625 20.3223C5.15625 17.4707 7.42188 15.2051 10.2832 15.2051C13.1445 15.2051 15.4102 17.4707 15.4102 20.3223C15.4102 20.6836 15.3809 21.0742 15.3223 21.3379ZM10.2832 24.0918C12.3926 24.0918 14.0527 22.4414 14.0527 20.3223C14.0527 18.2227 12.3926 16.5625 10.2832 16.5625C8.16406 16.5625 6.51367 18.2227 6.51367 20.3223C6.51367 22.4414 8.16406 24.0918 10.2832 24.0918ZM36.3086 24.0918C38.4277 24.0918 40.0781 22.4414 40.0781 20.3223C40.0781 18.2227 38.4277 16.5625 36.3086 16.5625C34.1992 16.5625 32.5391 18.2227 32.5391 20.3223C32.5391 22.4414 34.1992 24.0918 36.3086 24.0918ZM27.6367 11.0449C27.1191 11.0449 26.7383 10.6738 26.7188 10.1367L26.5039 1.13281C26.4844 0.458984 26.9336 0 27.6367 0C28.3398 0 28.7891 0.458984 28.7695 1.13281L28.5547 10.1367C28.5352 10.6738 28.1641 11.0449 27.6367 11.0449ZM27.6367 16.4941C26.8262 16.4941 26.1523 15.8203 26.1523 15.0488C26.1523 14.2578 26.8164 13.6133 27.6367 13.6133C28.457 13.6133 29.1211 14.2578 29.1211 15.0488C29.1211 15.8203 28.4473 16.4941 27.6367 16.4941Z" fill="black" fill-opacity="0.85"/>
 </g>
</svg>
