<?xml version="1.0" encoding="UTF-8"?>
<!--Generator: Apple Native CoreSVG 326-->
<!DOCTYPE svg
PUBLIC "-//W3C//DTD SVG 1.1//EN"
       "http://www.w3.org/Graphics/SVG/1.1/DTD/svg11.dtd">
<svg version="1.1" xmlns="http://www.w3.org/2000/svg" xmlns:xlink="http://www.w3.org/1999/xlink" viewBox="0 0 43.564 32.5163">
 <g>
  <rect height="32.5163" opacity="0" width="43.564" x="0" y="0"/>
  <path d="M10.4295 24.515L12.8318 23.4798L12.2557 22.1908L10.0193 23.1576C9.39433 23.4408 8.95487 23.3138 8.65214 22.7962L8.02714 21.7123C7.07987 20.0716 7.61698 18.558 9.49198 16.9369L14.6775 12.4642C15.0779 12.1126 15.3416 11.8685 15.5174 11.5072L18.8182 4.76889C19.2381 3.90952 17.9783 3.27475 17.5193 4.20249L14.0916 11.1654L8.64237 15.8529C6.14237 18.0013 5.46855 20.0814 6.8162 22.4154L7.49003 23.5775C8.19315 24.7982 9.11112 25.0912 10.4295 24.515ZM16.0252 23.6654C17.7244 22.679 18.281 20.5892 17.3045 18.89C16.3182 17.1908 14.2283 16.6341 12.5291 17.6107C10.8299 18.5873 10.2732 20.6869 11.2498 22.3861C12.2361 24.0755 14.326 24.6419 16.0252 23.6654ZM15.3611 22.513C14.3162 23.1185 13.0076 22.7767 12.4021 21.722C11.7967 20.6673 12.1385 19.3587 13.1932 18.7533C14.2478 18.1478 15.5564 18.4994 16.1619 19.554C16.7674 20.599 16.4158 21.9076 15.3611 22.513ZM17.1385 20.4427L32.3728 11.6537L31.6697 10.433L16.4451 19.2318ZM35.6736 12.3177C37.3631 11.3412 37.9295 9.24155 36.9432 7.55209C35.9666 5.85288 33.8767 5.28647 32.1775 6.2728C30.4783 7.24936 29.9217 9.3392 30.8982 11.0384C31.8748 12.7376 33.9744 13.304 35.6736 12.3177ZM35.0096 11.1751C33.9549 11.7806 32.6463 11.429 32.0408 10.3841C31.4353 9.32944 31.7869 8.02084 32.8416 7.41538C33.8865 6.80991 35.1951 7.16147 35.8006 8.20639C36.406 9.26108 36.0545 10.5697 35.0096 11.1751ZM36.8455 8.79233L38.242 7.75717C39.8045 6.61459 40.0779 5.24741 39.0916 3.53842L38.2029 2.00522C37.0506 0.00326656 35.7517-0.40689 33.5545 0.364595L27.6756 2.42514C27.1971 2.59116 26.7771 2.79624 26.3767 3.05991L14.2088 11.097L14.4725 12.6009L27.3728 4.0853L34.0623 1.74155C35.4978 1.23374 36.2986 1.50717 36.9822 2.69858L37.8709 4.24155C38.4471 5.22788 38.3006 5.99936 37.4119 6.65366L36.1521 7.58139Z" fill="black" fill-opacity="0.85"/>
  <path d="M5.37089 26.0189L2.88065 21.683C2.49003 20.9994 1.71855 21.1654 1.48417 21.8294L0.0681547 25.5306C-0.127158 26.0287 0.107217 26.4388 0.644327 26.5169L4.54081 27.1517C5.24394 27.2787 5.76151 26.6732 5.37089 26.0189ZM7.86112 31.9955C8.11503 32.4154 8.64237 32.5521 9.04276 32.3177L42.7732 12.8744C43.1736 12.64 43.3201 12.1126 43.0955 11.722C42.8318 11.2826 42.2947 11.1458 41.9041 11.3802L8.17362 30.8333C7.783 31.058 7.63651 31.5951 7.86112 31.9955Z" fill="black" fill-opacity="0.85"/>
 </g>
</svg>
