<?xml version="1.0" encoding="UTF-8"?>
<!--Generator: Apple Native CoreSVG 326-->
<!DOCTYPE svg
PUBLIC "-//W3C//DTD SVG 1.1//EN"
       "http://www.w3.org/Graphics/SVG/1.1/DTD/svg11.dtd">
<svg version="1.1" xmlns="http://www.w3.org/2000/svg" xmlns:xlink="http://www.w3.org/1999/xlink" viewBox="0 0 46.5137 20.4395">
 <g>
  <rect height="20.4395" opacity="0" width="46.5137" x="0" y="0"/>
  <path d="M2.56836 17.9004L5.77148 18.2715L5.94727 16.543L2.95898 16.2012C2.11914 16.1035 1.72852 15.7129 1.72852 14.9609L1.72852 13.4277C1.72852 11.084 3.24219 9.79492 6.24023 9.21875L14.541 7.63672C15.1855 7.50977 15.625 7.41211 16.0352 7.12891L23.7207 1.96289C24.6973 1.29883 23.75-0.146484 22.6855 0.566406L14.7266 5.88867L5.99609 7.53906C2.00195 8.29102 0 10.0977 0 13.4277L0 15.0781C0 16.8262 0.791016 17.7051 2.56836 17.9004ZM9.07227 20.4395C11.4941 20.4395 13.3887 18.5449 13.3887 16.1328C13.3887 13.7109 11.4941 11.8164 9.07227 11.8164C6.65039 11.8164 4.76562 13.7109 4.76562 16.1328C4.76562 18.5449 6.65039 20.4395 9.07227 20.4395ZM9.07227 18.8086C7.57812 18.8086 6.39648 17.627 6.39648 16.1328C6.39648 14.6289 7.57812 13.4473 9.07227 13.4473C10.5762 13.4473 11.7578 14.6289 11.7578 16.1328C11.7578 17.627 10.5762 18.8086 9.07227 18.8086ZM12.2559 17.6855L33.9648 17.6855L33.9648 15.957L12.2559 15.957ZM37.0801 20.4395C39.502 20.4395 41.3867 18.5449 41.3867 16.1328C41.3867 13.7109 39.502 11.8164 37.0801 11.8164C34.6582 11.8164 32.7637 13.7109 32.7637 16.1328C32.7637 18.5449 34.6582 20.4395 37.0801 20.4395ZM37.0801 18.8086C35.5859 18.8086 34.3945 17.627 34.3945 16.1328C34.3945 14.6289 35.5859 13.4473 37.0801 13.4473C38.5742 13.4473 39.7559 14.6289 39.7559 16.1328C39.7559 17.627 38.5742 18.8086 37.0801 18.8086ZM40.5176 17.3926L42.6465 17.1582C45.0195 16.8945 46.1523 15.6055 46.1523 13.1641L46.1523 10.9766C46.1523 8.125 45.0293 6.89453 42.1973 6.35742L34.6289 4.93164C34.0234 4.80469 33.4473 4.77539 32.8613 4.80469L14.8926 5.88867L14.2383 7.65625L33.3008 6.51367L41.8945 8.13477C43.7402 8.48633 44.4238 9.27734 44.4238 10.9766L44.4238 13.1641C44.4238 14.5703 43.7891 15.3027 42.4316 15.459L40.5176 15.6738Z" fill="black" fill-opacity="0.85"/>
  <path d="M20.3418 14.3848L25.8008 14.3848C26.3965 14.3848 26.6504 13.8965 26.3379 13.3887L23.6621 9.0332C23.3789 8.54492 22.7734 8.52539 22.4609 9.0332L19.8242 13.3789C19.5117 13.8867 19.7461 14.3848 20.3418 14.3848Z" fill="black" fill-opacity="0.85"/>
 </g>
</svg>
