<?xml version="1.0" encoding="UTF-8"?>
<!--Generator: Apple Native CoreSVG 326-->
<!DOCTYPE svg
PUBLIC "-//W3C//DTD SVG 1.1//EN"
       "http://www.w3.org/Graphics/SVG/1.1/DTD/svg11.dtd">
<svg version="1.1" xmlns="http://www.w3.org/2000/svg" xmlns:xlink="http://www.w3.org/1999/xlink" viewBox="0 0 46.5137 29.751">
 <g>
  <rect height="29.751" opacity="0" width="46.5137" x="0" y="0"/>
  <path d="M10.166 25.0952C12.2754 25.0952 13.9355 23.4449 13.9355 21.3257C13.9355 19.2261 12.2754 17.566 10.166 17.566C8.04688 17.566 6.39648 19.2261 6.39648 21.3257C6.39648 23.4449 8.04688 25.0952 10.166 25.0952ZM36.2988 25.0952C38.418 25.0952 40.0684 23.4449 40.0684 21.3257C40.0684 19.2261 38.418 17.566 36.2988 17.566C34.1895 17.566 32.5293 19.2261 32.5293 21.3257C32.5293 23.4449 34.1895 25.0952 36.2988 25.0952ZM34.6289 9.58744C34.0234 9.46048 33.4473 9.42142 32.8613 9.46048L18.0957 10.4077L23.7207 6.61869C24.6973 5.95462 23.75 4.50931 22.6855 5.2222L14.7266 10.5445L5.99609 12.1949C2.00195 12.9468 0 14.7535 0 18.0835L0 19.7339C0 21.482 0.791016 22.3511 2.56836 22.5562L5.21484 22.8785C5.09766 22.4585 5.0293 21.7945 5.0293 21.3257C5.0293 18.4742 7.30469 16.2085 10.166 16.2085C13.0273 16.2085 15.293 18.4742 15.293 21.3257C15.293 21.687 15.2637 22.0777 15.2051 22.3413L31.2891 22.3413C31.2109 22.0581 31.1719 21.6968 31.1719 21.3257C31.1719 18.4742 33.4375 16.2085 36.2988 16.2085C39.1602 16.2085 41.4258 18.6695 41.4258 21.521C41.4258 21.6968 41.4258 21.7847 41.416 21.941L42.6465 21.814C45.0195 21.5503 46.1523 20.2613 46.1523 17.8199L46.1523 15.6324C46.1523 12.7808 45.0391 11.5601 42.1973 11.0132Z" fill="black" fill-opacity="0.85"/>
  <path d="M20.2637 23.8355C19.6387 23.8355 19.3848 24.3531 19.7168 24.8804L22.4414 29.3628C22.7637 29.8902 23.3887 29.8706 23.7012 29.3628L26.4453 24.8706C26.7773 24.3433 26.5039 23.8355 25.8887 23.8355Z" fill="black" fill-opacity="0.85"/>
 </g>
</svg>
