<?xml version="1.0" encoding="UTF-8"?>
<!--Generator: Apple Native CoreSVG 326-->
<!DOCTYPE svg
PUBLIC "-//W3C//DTD SVG 1.1//EN"
       "http://www.w3.org/Graphics/SVG/1.1/DTD/svg11.dtd">
<svg version="1.1" xmlns="http://www.w3.org/2000/svg" xmlns:xlink="http://www.w3.org/1999/xlink" viewBox="0 0 46.5137 28.3105">
 <g>
  <rect height="28.3105" opacity="0" width="46.5137" x="0" y="0"/>
  <path d="M13.9355 20.6055C13.9355 22.7246 12.2754 24.375 10.166 24.375C8.04688 24.375 6.39648 22.7246 6.39648 20.6055C6.39648 18.5059 8.04688 16.8457 10.166 16.8457C12.2754 16.8457 13.9355 18.5059 13.9355 20.6055ZM40.0684 20.6055C40.0684 22.7246 38.418 24.375 36.2988 24.375C34.1895 24.375 32.5293 22.7246 32.5293 20.6055C32.5293 18.5059 34.1895 16.8457 36.2988 16.8457C38.418 16.8457 40.0684 18.5059 40.0684 20.6055ZM17.1094 10.9668C17.1094 12.9297 18.3301 14.1699 20.2148 14.1699L25.9375 14.1699C27.8223 14.1699 29.043 12.9297 29.043 10.9668L29.043 8.9852L32.8613 8.74023C33.4473 8.70117 34.0234 8.74023 34.6289 8.86719L42.1973 10.293C45.0391 10.8398 46.1523 12.0605 46.1523 14.9121L46.1523 17.0996C46.1523 19.541 45.0195 20.8301 42.6465 21.0938L41.416 21.2207C41.4258 21.0645 41.4258 20.9766 41.4258 20.8008C41.4258 17.9492 39.1602 15.4883 36.2988 15.4883C33.4375 15.4883 31.1719 17.7539 31.1719 20.6055C31.1719 20.9766 31.2109 21.3379 31.2891 21.6211L15.2051 21.6211C15.2637 21.3574 15.293 20.9668 15.293 20.6055C15.293 17.7539 13.0273 15.4883 10.166 15.4883C7.30469 15.4883 5.0293 17.7539 5.0293 20.6055C5.0293 21.0742 5.09766 21.7383 5.21484 22.1582L2.56836 21.8359C0.791016 21.6309 0 20.7617 0 19.0137L0 17.3633C0 14.0332 2.00195 12.2266 5.99609 11.4746L14.7266 9.82422L17.1094 8.2308Z" fill="black" fill-opacity="0.85"/>
  <path d="M20.2148 12.6074L25.9375 12.6074C26.9531 12.6074 27.4805 12.0703 27.4805 10.9668L27.4805 6.46484C27.4805 5.37109 26.9531 4.84375 25.9375 4.84375L20.2148 4.84375C19.1992 4.84375 18.6719 5.37109 18.6719 6.46484L18.6719 10.9668C18.6719 12.0703 19.1992 12.6074 20.2148 12.6074ZM19.8047 5.80078L21.0156 5.80078L21.0156 3.38867C21.0156 2.06055 21.8262 1.20117 23.0762 1.20117C24.3359 1.20117 25.1465 2.06055 25.1465 3.38867L25.1465 5.80078L26.3574 5.80078L26.3574 3.55469C26.3574 1.38672 25.0684 0 23.0762 0C21.0938 0 19.8047 1.38672 19.8047 3.55469Z" fill="black" fill-opacity="0.85"/>
 </g>
</svg>
