<?xml version="1.0" encoding="UTF-8"?>
<!--Generator: Apple Native CoreSVG 326-->
<!DOCTYPE svg
PUBLIC "-//W3C//DTD SVG 1.1//EN"
       "http://www.w3.org/Graphics/SVG/1.1/DTD/svg11.dtd">
<svg version="1.1" xmlns="http://www.w3.org/2000/svg" xmlns:xlink="http://www.w3.org/1999/xlink" viewBox="0 0 46.5234 28.3599">
 <g>
  <rect height="28.3599" opacity="0" width="46.5234" x="0" y="0"/>
  <path d="M2.56836 21.8606L5.78125 22.2317L5.94727 20.5032L2.96875 20.1614C2.12891 20.0637 1.73828 19.6731 1.73828 18.9211L1.73828 17.3879C1.73828 15.0442 3.24219 13.7551 6.24023 13.179L14.541 11.5969C15.1953 11.47 15.6348 11.3723 16.0449 11.0891L23.7305 5.92309C24.707 5.25903 23.7598 3.81372 22.6953 4.52661L14.7266 9.84888L5.99609 11.4993C2.01172 12.2512 0 14.0579 0 17.3879L0 19.0383C0 20.7864 0.800781 21.6653 2.56836 21.8606ZM9.08203 24.3997C11.5039 24.3997 13.3887 22.5051 13.3887 20.093C13.3887 17.6711 11.5039 15.7766 9.08203 15.7766C6.66016 15.7766 4.76562 17.6711 4.76562 20.093C4.76562 22.5051 6.66016 24.3997 9.08203 24.3997ZM9.08203 22.7688C7.57812 22.7688 6.39648 21.5872 6.39648 20.093C6.39648 18.5891 7.57812 17.4075 9.08203 17.4075C10.5762 17.4075 11.7578 18.5891 11.7578 20.093C11.7578 21.5872 10.5762 22.7688 9.08203 22.7688ZM12.2559 21.6458L33.9746 21.6458L33.9746 19.9172L12.2559 19.9172ZM37.0801 24.3997C39.502 24.3997 41.3965 22.5051 41.3965 20.093C41.3965 17.6711 39.502 15.7766 37.0801 15.7766C34.6582 15.7766 32.7734 17.6711 32.7734 20.093C32.7734 22.5051 34.6582 24.3997 37.0801 24.3997ZM37.0801 22.7688C35.5859 22.7688 34.4043 21.5872 34.4043 20.093C34.4043 18.5891 35.5859 17.4075 37.0801 17.4075C38.584 17.4075 39.7656 18.5891 39.7656 20.093C39.7656 21.5872 38.584 22.7688 37.0801 22.7688ZM40.5176 21.3528L42.6465 21.1184C45.0293 20.8547 46.1621 19.5657 46.1621 17.1243L46.1621 14.9368C46.1621 12.0852 45.0293 10.8547 42.207 10.3176L34.6387 8.89184C34.0234 8.76489 33.4473 8.73559 32.8613 8.76489L14.8926 9.84888L14.2383 11.6165L33.3008 10.4739L41.9043 12.095C43.7402 12.4465 44.4238 13.2375 44.4238 14.9368L44.4238 17.1243C44.4238 18.5305 43.7988 19.2629 42.4414 19.4192L40.5176 19.634Z" fill="black" fill-opacity="0.85"/>
  <path d="M40.4297 5.54223C40.1562 6.28442 40.5859 6.67505 41.3477 6.4895L45.8203 5.44458C46.4551 5.29809 46.6504 4.78052 46.2891 4.26294L43.75 0.444579C43.3496-0.141359 42.7539-0.190187 42.4609 0.552L41.7969 2.1438C38.584 0.77661 34.9219 0.552 32.0605 0.903563C31.543 0.942625 31.1719 1.38208 31.2109 1.88013C31.25 2.37817 31.6992 2.75903 32.207 2.7102C34.9707 2.37817 38.291 2.60278 41.1426 3.84302Z" fill="black" fill-opacity="0.85"/>
 </g>
</svg>
