<?xml version="1.0" encoding="UTF-8"?>
<!--Generator: Apple Native CoreSVG 326-->
<!DOCTYPE svg
PUBLIC "-//W3C//DTD SVG 1.1//EN"
       "http://www.w3.org/Graphics/SVG/1.1/DTD/svg11.dtd">
<svg version="1.1" xmlns="http://www.w3.org/2000/svg" xmlns:xlink="http://www.w3.org/1999/xlink" viewBox="0 0 42.2595 31.4309">
 <g>
  <rect height="31.4309" opacity="0" width="42.2595" x="0" y="0"/>
  <path d="M12.1307 13.3766C13.6151 14.2262 15.4413 13.7379 16.3006 12.2535C17.1502 10.7789 16.662 8.95275 15.1776 8.09337C13.6932 7.234 11.867 7.72228 11.0077 9.20665C10.1581 10.6813 10.6463 12.5172 12.1307 13.3766ZM30.4608 23.9625C31.9452 24.8121 33.7811 24.3238 34.6307 22.8395C35.4901 21.3649 34.992 19.5387 33.5077 18.6793C32.0331 17.8199 30.1971 18.3082 29.3475 19.7926C28.4881 21.277 28.9764 23.1031 30.4608 23.9625ZM35.578 12.4C35.1971 12.068 34.8163 11.8043 34.3768 11.5992L23.6444 6.27696L29.1229 5.89611C30.0799 5.83751 30.0018 4.43126 28.9667 4.49962L21.2225 5.00743L14.4354 2.63439C11.3299 1.5504 9.19126 1.99962 7.84361 4.33361L7.16978 5.49571C6.46665 6.71642 6.67173 7.65392 7.82408 8.51329L9.55259 9.81212C9.64048 9.47032 9.86509 8.98204 10.0604 8.65001C11.2127 6.64806 13.7225 5.97423 15.7245 7.13634C17.7362 8.29845 18.41 10.8082 17.2479 12.8102C17.1112 13.0543 16.9256 13.318 16.7792 13.484L28.0585 19.9977C28.1268 19.7731 28.244 19.4996 28.3905 19.2359C29.5526 17.234 32.0526 16.5699 34.0643 17.7223C36.076 18.8844 36.662 21.5309 35.5096 23.5328C35.4413 23.65 35.4022 23.7184 35.3241 23.816L36.242 24.2262C38.0194 25.0074 39.3377 24.5582 40.3241 22.8492L41.2127 21.3063C42.3651 19.3141 42.0819 17.9957 40.3045 16.4723Z" fill="black" fill-opacity="0.85"/>
  <path d="M4.05455 5.48595L6.55455 1.15001C6.94517 0.485949 6.41783-0.109754 5.72447 0.0171991L1.80845 0.642199C1.29087 0.73009 1.0565 1.13048 1.24205 1.63829L2.65806 5.3297C2.9022 5.99376 3.66392 6.15001 4.05455 5.48595ZM0.118999 10.6227C-0.125142 11.0524 0.0213423 11.5797 0.421733 11.8141L34.1424 31.2965C34.5331 31.5309 35.0604 31.3942 35.2948 30.9938C35.5389 30.5543 35.3924 30.027 34.992 29.8024L1.28111 10.3102C0.890483 10.0856 0.353374 10.2223 0.118999 10.6227Z" fill="black" fill-opacity="0.85"/>
 </g>
</svg>
