<?xml version="1.0" encoding="UTF-8"?>
<!--Generator: Apple Native CoreSVG 326-->
<!DOCTYPE svg
PUBLIC "-//W3C//DTD SVG 1.1//EN"
       "http://www.w3.org/Graphics/SVG/1.1/DTD/svg11.dtd">
<svg version="1.1" xmlns="http://www.w3.org/2000/svg" xmlns:xlink="http://www.w3.org/1999/xlink" viewBox="0 0 40.3281 30.6419">
 <g>
  <rect height="30.6419" opacity="0" width="40.3281" x="0" y="0"/>
  <path d="M4.19725 30.0719C4.45115 30.5016 4.9785 30.6383 5.37889 30.4039L37.6347 11.8004C38.0254 11.5758 38.1719 11.0485 37.9472 10.6383C37.6933 10.2086 37.1562 10.0817 36.7656 10.3063L4.50975 28.9098C4.11912 29.1442 3.97264 29.6715 4.19725 30.0719ZM4.2949 24.5153L6.69725 23.4704L6.11131 22.1911L3.88475 23.1579C3.24998 23.4313 2.82029 23.3141 2.51756 22.7868L1.89256 21.7125C0.945295 20.0719 1.4824 18.5485 3.34764 16.9274L8.53319 12.4645C8.93358 12.1129 9.20701 11.859 9.38279 11.4977L12.6738 4.75942C13.0937 3.90004 11.8437 3.26528 11.3847 4.20278L7.95701 11.1559L2.49803 15.8532C0.00779491 18.0016-0.666033 20.0719 0.681623 22.4059L1.34569 23.568C2.05858 24.7985 2.96678 25.0914 4.2949 24.5153ZM9.89061 23.6559C11.5801 22.6793 12.1465 20.5797 11.1601 18.8805C10.1836 17.1911 8.09373 16.6247 6.39451 17.611C4.69529 18.5875 4.13865 20.6774 5.11522 22.3766C6.09178 24.0758 8.19139 24.6325 9.89061 23.6559ZM9.22654 22.5133C8.17186 23.1188 6.86326 22.7672 6.25779 21.7125C5.65233 20.6676 6.00389 19.359 7.05858 18.7536C8.1035 18.1481 9.41209 18.4997 10.0176 19.5446C10.623 20.5993 10.2715 21.9079 9.22654 22.5133ZM11.0039 20.443L26.2383 11.6442L25.5351 10.4332L10.3008 19.2223ZM29.5293 12.318C31.2285 11.3317 31.7851 9.24184 30.8086 7.54262C29.832 5.8434 27.7324 5.28676 26.0332 6.26332C24.3437 7.24965 23.7773 9.33949 24.7637 11.0387C25.7402 12.7379 27.8301 13.2946 29.5293 12.318ZM28.8652 11.1657C27.8203 11.7809 26.5117 11.4293 25.9062 10.3747C25.3008 9.32973 25.6523 8.01137 26.6972 7.4059C27.7519 6.80043 29.0605 7.15199 29.666 8.20668C30.2715 9.2516 29.9199 10.5602 28.8652 11.1657ZM30.7109 8.78285L32.1074 7.75746C33.6601 6.60512 33.9336 5.2477 32.9472 3.53871L32.0586 1.99574C30.9062 0.0035574 29.6172-0.406599 27.4199 0.364886L21.5312 2.42543C21.0527 2.59145 20.6426 2.79653 20.2422 3.0602L8.0742 11.0973L8.32811 12.6012L21.2383 4.07582L27.9277 1.73207C29.3633 1.22426 30.164 1.50746 30.8476 2.69887L31.7363 4.24184C32.3027 5.2184 32.1562 5.98989 31.2676 6.65395L30.0078 7.57192Z" fill="black" fill-opacity="0.85"/>
  <path d="M24.6758 30.5309C25.0664 30.5309 25.3203 30.277 25.3203 29.8766L25.3203 26.986L27.4492 26.986L27.4492 29.8766C27.4492 30.277 27.7031 30.5309 28.0937 30.5309C28.4844 30.5309 28.7383 30.277 28.7383 29.8766L28.7383 23.1579C28.7383 22.7575 28.4844 22.5036 28.0937 22.5036C27.7031 22.5036 27.4492 22.7575 27.4492 23.1579L27.4492 25.902L25.3203 25.902L25.3203 23.1579C25.3203 22.7575 25.0664 22.5036 24.6758 22.5036C24.2949 22.5036 24.0508 22.7575 24.0508 23.1579L24.0508 29.8766C24.0508 30.277 24.2949 30.5309 24.6758 30.5309ZM30.457 30.5309L31.8437 30.5309C33.8652 30.5309 34.539 28.5192 34.539 26.4977C34.539 24.3102 33.7773 22.5036 31.8437 22.5036L30.457 22.5036C30.0859 22.5036 29.8222 22.7282 29.8222 23.1676L29.8222 29.8668C29.8222 30.3063 30.0859 30.5309 30.457 30.5309ZM31.082 29.4567L31.082 23.5875L31.6875 23.5875C32.9863 23.5875 33.2402 25.2086 33.2402 26.5075C33.2402 27.8063 33.0058 29.4567 31.6875 29.4567ZM37.8105 30.609C38.6211 30.609 39.1875 30.1891 39.5488 29.5836C39.7734 29.2223 39.9687 28.6266 39.9687 28.236C39.9687 27.8747 39.7246 27.65 39.373 27.65C39.0898 27.65 38.875 27.8454 38.8066 28.1579C38.6601 28.9293 38.4355 29.4762 37.7715 29.4762C36.9414 29.4762 36.5801 28.2164 36.5801 26.5075C36.5801 24.6325 37.0488 23.5485 37.7715 23.5485C38.3867 23.5485 38.6797 24.1637 38.7871 24.8668C38.8359 25.2086 39.0703 25.4137 39.4023 25.4137C39.7441 25.4137 39.9394 25.1696 39.9394 24.8278C39.9394 24.3688 39.7246 23.6657 39.3437 23.2164C38.9531 22.7282 38.4062 22.4352 37.7617 22.4352C36.668 22.4352 36.0234 23.1774 35.6816 24.0465C35.3691 24.7887 35.291 25.6383 35.291 26.5075C35.291 27.5329 35.3887 28.5485 35.8476 29.3883C36.2773 30.1696 36.9121 30.609 37.8105 30.609Z" fill="black" fill-opacity="0.85"/>
 </g>
</svg>
