<?xml version="1.0" encoding="UTF-8"?>
<!--Generator: Apple Native CoreSVG 326-->
<!DOCTYPE svg
PUBLIC "-//W3C//DTD SVG 1.1//EN"
       "http://www.w3.org/Graphics/SVG/1.1/DTD/svg11.dtd">
<svg version="1.1" xmlns="http://www.w3.org/2000/svg" xmlns:xlink="http://www.w3.org/1999/xlink" viewBox="0 0 46.5137 30.9242">
 <g>
  <rect height="30.9242" opacity="0" width="46.5137" x="0" y="0"/>
  <path d="M10.166 25.6818C12.2754 25.6818 13.9355 24.0314 13.9355 21.9123C13.9355 19.8127 12.2754 18.1525 10.166 18.1525C8.04688 18.1525 6.39648 19.8127 6.39648 21.9123C6.39648 24.0314 8.04688 25.6818 10.166 25.6818ZM36.2988 25.6818C38.418 25.6818 40.0684 24.0314 40.0684 21.9123C40.0684 19.8127 38.418 18.1525 36.2988 18.1525C34.1895 18.1525 32.5293 19.8127 32.5293 21.9123C32.5293 24.0314 34.1895 25.6818 36.2988 25.6818ZM34.6289 10.174C34.0234 10.0471 33.4473 10.008 32.8613 10.0471L18.0957 10.9943L23.7207 7.20527C24.6973 6.54121 23.75 5.09589 22.6855 5.80878L14.7266 11.131L5.99609 12.7814C2.00195 13.5334 0 15.34 0 18.6701L0 20.3205C0 22.0685 0.791016 22.9377 2.56836 23.1428L5.21484 23.465C5.09766 23.0451 5.0293 22.381 5.0293 21.9123C5.0293 19.0607 7.30469 16.7951 10.166 16.7951C13.0273 16.7951 15.293 19.0607 15.293 21.9123C15.293 22.2736 15.2637 22.6643 15.2051 22.9279L31.2891 22.9279C31.2109 22.6447 31.1719 22.2834 31.1719 21.9123C31.1719 19.0607 33.4375 16.7951 36.2988 16.7951C39.1602 16.7951 41.4258 19.256 41.4258 22.1076C41.4258 22.2834 41.4258 22.3713 41.416 22.5275L42.6465 22.4006C45.0195 22.1369 46.1523 20.8478 46.1523 18.4064L46.1523 16.2189C46.1523 13.3674 45.0391 12.1467 42.1973 11.5998Z" fill="black" fill-opacity="0.85"/>
  <path d="M35.4199 6.16035L35.332 4.32441C38.4473 4.11933 41.6309 5.0666 44.0918 6.32636C44.5508 6.54121 45.0977 6.34589 45.3223 5.88691C45.5176 5.41816 45.3125 4.88105 44.8438 4.67597C42.2852 3.36738 38.7598 2.31269 35.2734 2.49824L35.2051 0.779487C35.1855-0.040826 34.6094-0.197076 34.0332 0.232612L30.3418 2.94746C29.8047 3.31855 29.834 3.86542 30.3809 4.21699L34.2285 6.74628C34.8828 7.16621 35.4199 6.95136 35.4199 6.16035Z" fill="black" fill-opacity="0.85"/>
 </g>
</svg>
