<?xml version="1.0" encoding="UTF-8"?>
<!--Generator: Apple Native CoreSVG 326-->
<!DOCTYPE svg
PUBLIC "-//W3C//DTD SVG 1.1//EN"
       "http://www.w3.org/Graphics/SVG/1.1/DTD/svg11.dtd">
<svg version="1.1" xmlns="http://www.w3.org/2000/svg" xmlns:xlink="http://www.w3.org/1999/xlink" viewBox="0 0 29.9219 23.9551">
 <g>
  <rect height="23.9551" opacity="0" width="29.9219" x="0" y="0"/>
  <path d="M3.44727 23.9551L26.1133 23.9551C28.3887 23.9551 29.5605 22.7539 29.5605 20.5273L29.5605 3.4375C29.5605 1.21094 28.3887 0.00976562 26.1133 0.00976562L3.44727 0.00976562C1.18164 0.00976562 0 1.21094 0 3.4375L0 20.5273C0 22.7539 1.18164 23.9551 3.44727 23.9551ZM7.51953 10.9473C5.45898 10.9473 3.7793 9.26758 3.7793 7.20703C3.7793 5.15625 5.45898 3.47656 7.51953 3.47656C9.58984 3.47656 11.25 5.15625 11.25 7.20703C11.25 9.26758 9.58984 10.9473 7.51953 10.9473ZM17.3535 10.9473C15.293 10.9473 13.6133 9.26758 13.6133 7.20703C13.6133 5.15625 15.293 3.47656 17.3535 3.47656C19.4238 3.47656 21.0938 5.15625 21.0938 7.20703C21.0938 9.26758 19.4238 10.9473 17.3535 10.9473ZM7.51953 20.4688C5.45898 20.4688 3.7793 18.7891 3.7793 16.7285C3.7793 14.668 5.45898 12.9883 7.51953 12.9883C9.58984 12.9883 11.25 14.668 11.25 16.7285C11.25 18.7891 9.58984 20.4688 7.51953 20.4688ZM17.3535 20.4688C15.293 20.4688 13.6133 18.7891 13.6133 16.7285C13.6133 14.668 15.293 12.9883 17.3535 12.9883C19.4238 12.9883 21.0938 14.668 21.0938 16.7285C21.0938 18.7891 19.4238 20.4688 17.3535 20.4688ZM25.1758 7.55859C24.5801 7.55859 24.1113 7.09961 24.1113 6.50391C24.1113 5.92773 24.5801 5.44922 25.1758 5.44922C25.752 5.44922 26.2305 5.92773 26.2305 6.50391C26.2305 7.09961 25.752 7.55859 25.1758 7.55859ZM25.1758 11.2109C24.5801 11.2109 24.1113 10.7422 24.1113 10.1465C24.1113 9.57031 24.5801 9.0918 25.1758 9.0918C25.752 9.0918 26.2305 9.57031 26.2305 10.1465C26.2305 10.7422 25.752 11.2109 25.1758 11.2109ZM25.1758 14.8633C24.5801 14.8633 24.1113 14.3848 24.1113 13.7988C24.1113 13.2129 24.5801 12.7441 25.1758 12.7441C25.752 12.7441 26.2305 13.2129 26.2305 13.7988C26.2305 14.3848 25.752 14.8633 25.1758 14.8633ZM25.1758 18.5059C24.5801 18.5059 24.1113 18.0273 24.1113 17.4414C24.1113 16.8555 24.5801 16.3965 25.1758 16.3965C25.752 16.3965 26.2305 16.8555 26.2305 17.4414C26.2305 18.0273 25.752 18.5059 25.1758 18.5059ZM7.51953 9.83398C8.97461 9.83398 10.1465 8.67188 10.1465 7.20703C10.1465 5.75195 8.97461 4.58984 7.51953 4.58984C6.07422 4.58984 4.89258 5.75195 4.89258 7.20703C4.89258 8.67188 6.07422 9.83398 7.51953 9.83398ZM7.51953 9.28711C6.34766 9.28711 5.45898 8.38867 5.45898 7.20703C5.45898 6.02539 6.34766 5.13672 7.51953 5.13672C8.69141 5.13672 9.58008 6.02539 9.58008 7.20703C9.58008 8.38867 8.69141 9.28711 7.51953 9.28711ZM17.3535 9.83398C18.8086 9.83398 19.9805 8.67188 19.9805 7.20703C19.9805 5.75195 18.8086 4.58984 17.3535 4.58984C15.9082 4.58984 14.7266 5.75195 14.7266 7.20703C14.7266 8.67188 15.9082 9.83398 17.3535 9.83398ZM17.3535 9.28711C16.1719 9.28711 15.2832 8.38867 15.2832 7.20703C15.2832 6.02539 16.1719 5.13672 17.3535 5.13672C18.5352 5.13672 19.4238 6.02539 19.4238 7.20703C19.4238 8.38867 18.5352 9.28711 17.3535 9.28711ZM7.51953 19.3457C8.97461 19.3457 10.1465 18.1836 10.1465 16.7285C10.1465 15.2734 8.97461 14.1016 7.51953 14.1016C6.07422 14.1016 4.89258 15.2734 4.89258 16.7285C4.89258 18.1836 6.07422 19.3457 7.51953 19.3457ZM7.51953 18.7988C6.34766 18.7988 5.45898 17.9102 5.45898 16.7285C5.45898 15.5469 6.34766 14.6582 7.51953 14.6582C8.69141 14.6582 9.58008 15.5469 9.58008 16.7285C9.58008 17.9102 8.69141 18.7988 7.51953 18.7988ZM17.3535 19.3457C18.8086 19.3457 19.9805 18.1836 19.9805 16.7285C19.9805 15.2734 18.8086 14.1016 17.3535 14.1016C15.9082 14.1016 14.7266 15.2734 14.7266 16.7285C14.7266 18.1836 15.9082 19.3457 17.3535 19.3457ZM17.3535 18.7988C16.1719 18.7988 15.2832 17.9102 15.2832 16.7285C15.2832 15.5469 16.1719 14.6582 17.3535 14.6582C18.5352 14.6582 19.4238 15.5469 19.4238 16.7285C19.4238 17.9102 18.5352 18.7988 17.3535 18.7988Z" fill="black" fill-opacity="0.85"/>
 </g>
</svg>
