<?xml version="1.0" encoding="UTF-8"?>
<!--Generator: Apple Native CoreSVG 326-->
<!DOCTYPE svg
PUBLIC "-//W3C//DTD SVG 1.1//EN"
       "http://www.w3.org/Graphics/SVG/1.1/DTD/svg11.dtd">
<svg version="1.1" xmlns="http://www.w3.org/2000/svg" xmlns:xlink="http://www.w3.org/1999/xlink" viewBox="0 0 25.1465 24.8145">
 <g>
  <rect height="24.8145" opacity="0" width="25.1465" x="0" y="0"/>
  <path d="M0 16.6602C0 17.168 0.351562 17.5195 0.869141 17.5195L2.22656 17.5195L2.22656 21.6797C2.22656 22.2266 2.58789 22.5879 3.13477 22.5879L7.28516 22.5879L7.28516 23.9453C7.28516 24.4629 7.63672 24.8145 8.14453 24.8145C8.66211 24.8145 9.01367 24.4629 9.01367 23.9453L9.01367 22.5879L11.5234 22.5879L11.5234 23.9453C11.5234 24.4629 11.8848 24.8145 12.3926 24.8145C12.9102 24.8145 13.2617 24.4629 13.2617 23.9453L13.2617 22.5879L15.7715 22.5879L15.7715 23.9453C15.7715 24.4629 16.123 24.8145 16.6406 24.8145C17.1484 24.8145 17.5 24.4629 17.5 23.9453L17.5 22.5879L21.6504 22.5879C22.1973 22.5879 22.5586 22.2266 22.5586 21.6797L22.5586 17.5098L23.916 17.5098C24.4336 17.5098 24.7852 17.1582 24.7852 16.6504C24.7852 16.1328 24.4336 15.7812 23.916 15.7812L22.5586 15.7812L22.5586 13.2617L23.916 13.2617C24.4336 13.2617 24.7852 12.9102 24.7852 12.4023C24.7852 11.8848 24.4336 11.5332 23.916 11.5332L22.5586 11.5332L22.5586 9.01367L23.916 9.01367C24.4336 9.01367 24.7852 8.66211 24.7852 8.1543C24.7852 7.63672 24.4336 7.28516 23.916 7.28516L22.5586 7.28516L22.5586 3.16406C22.5586 2.61719 22.1973 2.25586 21.6504 2.25586L17.5 2.25586L17.5 0.898438C17.5 0.380859 17.1484 0.0292969 16.6406 0.0292969C16.123 0.0292969 15.7715 0.380859 15.7715 0.898438L15.7715 2.25586L13.2617 2.25586L13.2617 0.898438C13.2617 0.380859 12.9102 0.0292969 12.3926 0.0292969C11.8848 0.0292969 11.5234 0.380859 11.5234 0.898438L11.5234 2.25586L9.01367 2.25586L9.01367 0.898438C9.01367 0.380859 8.66211 0.0292969 8.14453 0.0292969C7.63672 0.0292969 7.28516 0.380859 7.28516 0.898438L7.28516 2.25586L3.13477 2.25586C2.58789 2.25586 2.22656 2.61719 2.22656 3.16406L2.22656 7.29492L0.869141 7.29492C0.351562 7.29492 0 7.64648 0 8.16406C0 8.67188 0.351562 9.02344 0.869141 9.02344L2.22656 9.02344L2.22656 11.543L0.869141 11.543C0.351562 11.543 0 11.8945 0 12.4121C0 12.9199 0.351562 13.2715 0.869141 13.2715L2.22656 13.2715L2.22656 15.791L0.869141 15.791C0.351562 15.791 0 16.1426 0 16.6602ZM7.39258 18.3203C6.79688 18.3203 6.49414 18.0273 6.49414 17.4121L6.49414 7.43164C6.49414 6.81641 6.79688 6.52344 7.39258 6.52344L17.4023 6.52344C18.0078 6.52344 18.3008 6.81641 18.3008 7.43164L18.3008 17.4121C18.3008 18.0273 18.0078 18.3203 17.4023 18.3203ZM7.97852 16.543C7.97852 16.7285 8.0957 16.8359 8.28125 16.8359L16.5137 16.8359C16.6992 16.8359 16.8164 16.7285 16.8164 16.543L16.8164 8.30078C16.8164 8.11523 16.6992 7.99805 16.5137 7.99805L8.28125 7.99805C8.0957 7.99805 7.97852 8.11523 7.97852 8.30078Z" fill="black" fill-opacity="0.85"/>
 </g>
</svg>
