<?xml version="1.0" ?><!-- Generator: Adobe Illustrator 25.0.0, SVG Export Plug-In . SVG Version: 6.00 Build 0)  --><svg xmlns="http://www.w3.org/2000/svg" xmlns:xlink="http://www.w3.org/1999/xlink" version="1.1" id="Layer_1" x="0px" y="0px" viewBox="0 0 512 512" style="enable-background:new 0 0 512 512;" xml:space="preserve">
<path d="M138.6,449.5h22.8v41.2c0,11.3,7.5,18.8,18.8,18.8c11.3,0,19.1-7.5,19.1-18.8v-41.2h40v41.2c0,11.3,7.8,18.8,19.1,18.8  c11.3,0,18.8-7.5,18.8-18.8v-41.2h40.7v41.2c0,11.3,7.8,18.8,19.1,18.8c11.3,0,18.8-7.5,18.8-18.8v-41.2h22.4  c49.2,0,73.9-24.5,73.9-72.7v-24.2h40.9c11.3,0,19.1-7.8,19.1-19.1c0-11.3-7.8-18.8-19.1-18.8H452v-40.2h40.9  c11.3,0,19.1-7.5,19.1-18.8c0-11.3-7.8-19.1-19.1-19.1H452v-40h40.9c11.3,0,19.1-7.8,19.1-19.1c0-11.3-7.8-18.8-19.1-18.8H452v-23.5  c0-48.5-24.7-72.9-73.9-72.9h-22.8V21.3c0-11.3-7.8-18.8-19.1-18.8c-11.3,0-18.8,7.5-18.8,18.8v40.9h-40.2V21.3  c0-11.3-7.5-18.8-18.8-18.8c-11.3,0-19.1,7.5-19.1,18.8v40.9h-40V21.3c0-11.3-7.8-18.8-19.1-18.8c-11.3,0-18.8,7.5-18.8,18.8v40.9  h-22.8c-49.2,0-73.9,24.5-73.9,72.9v23.8H18.8C7.5,158.9,0,166.5,0,177.8c0,11.3,7.5,19.1,18.8,19.1h45.9v40H18.8  C7.5,236.8,0,244.6,0,255.9c0,11.3,7.5,18.8,18.8,18.8h45.9v40.2H18.8C7.5,314.9,0,322.5,0,333.8c0,11.3,7.5,19.1,18.8,19.1h45.9v24  C64.7,425.3,89.4,449.5,138.6,449.5z M139.1,411.6c-23.5,0-36.5-12.5-36.5-36.9V137.3c0-24.5,12.9-37.2,36.5-37.2h238.4  c23.3,0,36.7,12.7,36.7,37.2v237.4c0,24.5-13.4,36.9-36.7,36.9H139.1z M181.4,361.3h153.9c17.9,0,28.5-10.8,28.5-28.5V179.2  c0-17.9-10.6-28.5-28.5-28.5H181.4c-17.9,0-28.5,10.6-28.5,28.5v153.6C152.9,350.5,163.5,361.3,181.4,361.3z M194.1,330.5  c-6.6,0-10.4-3.5-10.4-10.1V191.6c0-6.6,3.8-10.1,10.4-10.1h128.5c6.6,0,10.4,3.5,10.4,10.1v128.7c0,6.6-3.8,10.1-10.4,10.1H194.1z"/>
</svg>