<?xml version="1.0" encoding="UTF-8"?>
<!--Generator: Apple Native CoreSVG 326-->
<!DOCTYPE svg
PUBLIC "-//W3C//DTD SVG 1.1//EN"
       "http://www.w3.org/Graphics/SVG/1.1/DTD/svg11.dtd">
<svg version="1.1" xmlns="http://www.w3.org/2000/svg" xmlns:xlink="http://www.w3.org/1999/xlink" viewBox="0 0 36.9141 26.6504">
 <g>
  <rect height="26.6504" opacity="0" width="36.9141" x="0" y="0"/>
  <path d="M32.9785 6.49414L32.9785 14.68C32.7007 14.6328 32.41 14.6094 32.1094 14.6094C31.8132 14.6094 31.5251 14.633 31.25 14.6836L31.25 10.3223L5.3125 10.3223L5.3125 20.0977C5.3125 21.4941 6.05469 22.2168 7.41211 22.2168L18.1445 22.2168L18.1445 23.9551L7.38281 23.9551C4.86328 23.9551 3.57422 22.6855 3.57422 20.1855L3.57422 6.49414C3.57422 3.99414 4.86328 2.72461 7.38281 2.72461L29.1797 2.72461C31.709 2.72461 32.9785 4.00391 32.9785 6.49414ZM7.41211 4.45312C6.05469 4.45312 5.3125 5.17578 5.3125 6.58203L5.3125 7.49023L31.25 7.49023L31.25 6.58203C31.25 5.17578 30.4785 4.45312 29.1406 4.45312Z" fill="black" fill-opacity="0.85"/>
  <path d="M32.1387 25.0977C33.9941 25.0977 35.3516 23.9746 35.3516 22.4414C35.3516 21.2402 34.502 20.332 33.3398 20.2246L33.3398 20.6445C34.3848 20.3418 35 19.5605 35 18.5449C35 17.168 33.7793 16.1621 32.1094 16.1621C30.8301 16.1621 29.7656 16.7676 29.3555 17.7344C29.2578 17.9492 29.209 18.1934 29.209 18.418C29.209 18.8086 29.4727 19.082 29.8633 19.082C30.2148 19.082 30.4102 18.9062 30.5176 18.5547C30.7129 17.8809 31.2793 17.4805 32.0801 17.4805C32.9883 17.4805 33.5742 17.9395 33.5742 18.6523C33.5742 19.3848 32.959 19.8633 32.0312 19.8633L31.3574 19.8633C30.9766 19.8633 30.7031 20.1367 30.7031 20.5078C30.7031 20.8789 30.9766 21.1426 31.3574 21.1426L32.041 21.1426C33.2227 21.1426 33.8867 21.6016 33.8867 22.4414C33.8867 23.2227 33.1836 23.7695 32.1484 23.7695C31.2207 23.7695 30.5469 23.3398 30.3613 22.666C30.2637 22.334 30.0391 22.1582 29.707 22.1582C29.2969 22.1582 29.0234 22.4414 29.0234 22.8418C29.0234 23.0664 29.082 23.291 29.1797 23.4961C29.668 24.502 30.7422 25.0977 32.1387 25.0977Z" fill="black" fill-opacity="0.85"/>
  <path d="M23.0762 24.9902L27.8613 24.9902C28.2422 24.9902 28.5352 24.7168 28.5352 24.3359C28.5352 23.9355 28.2422 23.6621 27.8613 23.6621L24.5996 23.6621L24.5996 23.5938L26.3965 21.7773C27.8027 20.3711 28.2227 19.6484 28.2227 18.7207C28.2227 17.2656 26.9727 16.1621 25.3125 16.1621C24.0039 16.1621 22.9004 16.8848 22.5293 17.9688C22.4512 18.1543 22.4023 18.3691 22.4023 18.5938C22.4023 18.9844 22.666 19.2578 23.0566 19.2578C23.3984 19.2578 23.6133 19.082 23.7012 18.7012C23.7305 18.5742 23.75 18.4766 23.7988 18.3789C24.0625 17.8027 24.6191 17.4805 25.3125 17.4805C26.123 17.4805 26.7969 18.0664 26.7969 18.7695C26.7969 19.3555 26.5234 19.7656 25.4102 20.8887L22.7148 23.623C22.4609 23.8574 22.373 24.0625 22.373 24.3066C22.373 24.7168 22.666 24.9902 23.0762 24.9902Z" fill="black" fill-opacity="0.85"/>
  <path d="M20.4102 25.0781C20.8398 25.0781 21.123 24.7852 21.123 24.3652L21.123 16.9531C21.123 16.5039 20.8203 16.2012 20.3613 16.2012C20.1172 16.2012 19.9316 16.2695 19.668 16.4453L17.7148 17.6953C17.4512 17.8613 17.3242 18.0664 17.3242 18.3203C17.3242 18.6816 17.6074 18.9453 17.9688 18.9453C18.1152 18.9453 18.252 18.8965 18.3984 18.7988L19.6484 18.0273L19.707 18.0273L19.707 24.3652C19.707 24.7852 20 25.0781 20.4102 25.0781Z" fill="black" fill-opacity="0.85"/>
 </g>
</svg>
