<?xml version="1.0" encoding="UTF-8"?>
<!--Generator: Apple Native CoreSVG 326-->
<!DOCTYPE svg
PUBLIC "-//W3C//DTD SVG 1.1//EN"
       "http://www.w3.org/Graphics/SVG/1.1/DTD/svg11.dtd">
<svg version="1.1" xmlns="http://www.w3.org/2000/svg" xmlns:xlink="http://www.w3.org/1999/xlink" viewBox="0 0 24.7559 30.0454">
 <g>
  <rect height="30.0454" opacity="0" width="24.7559" x="0" y="0"/>
  <path d="M22.9395 9.5881C23.2715 9.5881 23.5645 9.29514 23.5645 8.95334L23.5645 7.4592C23.5645 4.31467 21.4648 2.25412 18.2617 2.25412L18.0566 2.25412L18.0566 0.730683C18.0566-0.0212701 17.4609-0.197051 16.8848 0.222871L14.043 2.28342C13.5742 2.61545 13.5645 2.99631 14.043 3.3381L16.8848 5.37912C17.4609 5.79904 18.0566 5.6135 18.0566 4.9006L18.0566 3.43576L18.252 3.43576C20.7031 3.43576 22.3047 5.02756 22.3047 7.46896L22.3047 8.95334C22.3047 9.29514 22.5977 9.5881 22.9395 9.5881ZM1.52344 20.4377C1.19141 20.4377 0.888672 20.7307 0.888672 21.0725L0.888672 22.5764C0.888672 25.7209 2.98828 27.7717 6.19141 27.7717L6.40625 27.7717L6.40625 29.3049C6.40625 30.0471 7.00195 30.2229 7.56836 29.8029L10.4199 27.7522C10.8789 27.4201 10.8887 27.0393 10.4199 26.6975L7.56836 24.6467C7.00195 24.2268 6.40625 24.4123 6.40625 25.135L6.40625 26.5901L6.20117 26.5901C3.75 26.5901 2.1582 24.9983 2.1582 22.5666L2.1582 21.0725C2.1582 20.7307 1.86523 20.4377 1.52344 20.4377Z" fill="black" fill-opacity="0.85"/>
  <path d="M24.3945 19.8908C24.3945 19.4026 24.0527 19.0803 23.5547 19.0803L8.47656 19.0803C8.23242 19.0803 8.13477 18.9826 8.13477 18.7385L8.13477 3.76779C8.13477 3.24045 7.79297 2.86935 7.27539 2.86935C6.75781 2.86935 6.40625 3.24045 6.40625 3.76779L6.40625 19.8029C6.40625 20.3498 6.76758 20.7112 7.31445 20.7112L23.5547 20.7112C24.0527 20.7112 24.3945 20.3791 24.3945 19.8908ZM0 10.0862C0 10.5744 0.351562 10.8967 0.849609 10.8967L15.9863 10.8967C16.2207 10.8967 16.3184 10.9846 16.3184 11.2287L16.3184 26.258C16.3184 26.7854 16.6602 27.1662 17.1777 27.1662C17.6953 27.1662 18.0566 26.7854 18.0566 26.258L18.0566 10.174C18.0566 9.6174 17.6953 9.25607 17.1387 9.25607L0.849609 9.25607C0.351562 9.25607 0 9.59787 0 10.0862Z" fill="black" fill-opacity="0.85"/>
 </g>
</svg>
