<?xml version="1.0" ?><!-- Generator: Adobe Illustrator 25.0.0, SVG Export Plug-In . SVG Version: 6.00 Build 0)  --><svg xmlns="http://www.w3.org/2000/svg" xmlns:xlink="http://www.w3.org/1999/xlink" version="1.1" id="Layer_1" x="0px" y="0px" viewBox="0 0 512 512" style="enable-background:new 0 0 512 512;" xml:space="preserve">
<path d="M0,130.5c0,11.2,7.2,17.7,18.4,17.7h93.9v232.3c0,11.2,7.2,18.4,18.4,18.4h231.4v92.7c0,11.7,7.5,19.6,18.7,19.6  c11.4,0,18.9-7.9,18.9-19.6V399h93.6c11.4,0,18.7-6.8,18.7-17.5c0-11-7.2-17.7-18.7-17.7h-93.6V131.7c0-11.2-7.2-18.7-18.4-18.7  H149.9V20.3c0-11.7-7.5-19.6-18.9-19.6c-11.2,0-18.7,7.9-18.7,19.6V113H18.4C7.2,113,0,119.8,0,130.5z M156.7,363.7  c-5.1,0-6.8-1.6-6.8-6.8V148.3h205.5c5.1,0,6.8,1.9,6.8,6.8v208.7H156.7z"/>
</svg>