<?xml version="1.0" encoding="UTF-8"?>
<!--Generator: Apple Native CoreSVG 326-->
<!DOCTYPE svg
PUBLIC "-//W3C//DTD SVG 1.1//EN"
       "http://www.w3.org/Graphics/SVG/1.1/DTD/svg11.dtd">
<svg version="1.1" xmlns="http://www.w3.org/2000/svg" xmlns:xlink="http://www.w3.org/1999/xlink" viewBox="0 0 17.3535 29.7168">
 <g>
  <rect height="29.7168" opacity="0" width="17.3535" x="0" y="0"/>
  <path d="M2.17773 3.4668C2.17773 4.76562 2.94922 5.56641 4.21875 5.56641L12.7734 5.56641C14.043 5.56641 14.8145 4.76562 14.8145 3.4668L14.8145 2.09961C14.8145 0.800781 14.043 0 12.7734 0L4.21875 0C2.94922 0 2.17773 0.800781 2.17773 2.09961ZM3.71094 3.44727L3.71094 2.11914C3.71094 1.75781 3.92578 1.52344 4.28711 1.52344L12.7051 1.52344C13.0664 1.52344 13.2812 1.75781 13.2812 2.11914L13.2812 3.44727C13.2812 3.79883 13.0664 4.04297 12.7051 4.04297L4.28711 4.04297C3.92578 4.04297 3.71094 3.79883 3.71094 3.44727ZM5.60547 7.82227L5.60547 4.93164L4.07227 4.93164L4.07227 7.82227ZM12.9297 7.82227L12.9297 4.93164L11.3965 4.93164L11.3965 7.82227ZM0 25.6934C0 28.125 1.5332 29.6875 3.92578 29.6875L13.0664 29.6875C15.459 29.6875 16.9922 28.125 16.9922 25.6934L16.9922 11.3965C16.9922 8.95508 15.459 7.40234 13.0664 7.40234L3.92578 7.40234C1.5332 7.40234 0 8.95508 0 11.3965ZM1.65039 25.6738L1.65039 11.416C1.65039 9.9707 2.55859 9.0625 4.01367 9.0625L12.9883 9.0625C14.4336 9.0625 15.3418 9.9707 15.3418 11.416L15.3418 25.6738C15.3418 27.1191 14.4336 28.0371 12.9883 28.0371L4.01367 28.0371C2.55859 28.0371 1.65039 27.1191 1.65039 25.6738Z" fill="black" fill-opacity="0.85"/>
  <path d="M3.83789 19.4141C3.83789 19.9414 4.17969 20.2832 4.69727 20.2832L6.74805 20.2832L6.74805 22.3242C6.74805 22.8516 7.08984 23.2031 7.61719 23.2031L9.375 23.2031C9.89258 23.2031 10.2441 22.8516 10.2441 22.3242L10.2441 20.2832L12.2852 20.2832C12.8027 20.2832 13.1641 19.9414 13.1641 19.4141L13.1641 17.666C13.1641 17.1387 12.8027 16.7969 12.2852 16.7969L10.2441 16.7969L10.2441 14.7461C10.2441 14.2285 9.89258 13.877 9.375 13.877L7.61719 13.877C7.08984 13.877 6.74805 14.2285 6.74805 14.7461L6.74805 16.7969L4.69727 16.7969C4.17969 16.7969 3.83789 17.1387 3.83789 17.666Z" fill="black" fill-opacity="0.85"/>
 </g>
</svg>
