<?xml version="1.0" ?><!-- Generator: Adobe Illustrator 25.0.0, SVG Export Plug-In . SVG Version: 6.00 Build 0)  --><svg xmlns="http://www.w3.org/2000/svg" xmlns:xlink="http://www.w3.org/1999/xlink" version="1.1" id="Layer_1" x="0px" y="0px" viewBox="0 0 512 512" style="enable-background:new 0 0 512 512;" xml:space="preserve">
<path d="M0,305.2c0,28.3,19.5,47.3,48,47.3h111.4v111.6c0,28.6,19,47.8,47.3,47.8h98.6c28.3,0,47.3-19.2,47.3-47.8V352.5h111.6  c28.6,0,47.8-19,47.8-47.3v-98.6c0-28.3-19.2-47.3-47.8-47.3H352.6V47.9c0-28.6-19-47.8-47.3-47.8h-98.6  c-28.3,0-47.3,19.2-47.3,47.8v111.4H47.8c-28.6,0-47.8,19-47.8,47.3V305.2z"/>
</svg>