<?xml version="1.0" ?><!-- Generator: Adobe Illustrator 25.0.0, SVG Export Plug-In . SVG Version: 6.00 Build 0)  --><svg xmlns="http://www.w3.org/2000/svg" xmlns:xlink="http://www.w3.org/1999/xlink" version="1.1" id="Layer_1" x="0px" y="0px" viewBox="0 0 512 512" style="enable-background:new 0 0 512 512;" xml:space="preserve">
<path d="M109.4,441.9c0,14.3,2.9,26.6,8.6,37.1s13.7,18.6,24.1,24.4c10.3,5.8,22.5,8.7,36.5,8.7h155.1c13.8,0,25.9-2.9,36.4-8.7  c10.4-5.8,18.5-13.9,24.2-24.4s8.6-22.8,8.6-37.1V199.3c0-14.3-2.9-26.6-8.6-37.1c-5.7-10.5-13.8-18.6-24.2-24.4  c-10.4-5.8-22.5-8.7-36.4-8.7H178.5c-14,0-26.1,2.9-36.5,8.7c-10.3,5.8-18.4,13.9-24.1,24.4c-5.7,10.5-8.6,22.8-8.6,37.1V441.9z   M142.1,441.4V199.8c0-11.4,3.5-20.5,10.4-27.4c6.9-6.8,16.1-10.3,27.7-10.3h151.6c11.5,0,20.8,3.4,27.7,10.3  c6.9,6.8,10.4,16,10.4,27.4v241.7c0,11.5-3.5,20.7-10.4,27.6c-6.9,6.8-16.1,10.3-27.7,10.3H180.2c-11.5,0-20.8-3.4-27.7-10.3  C145.6,462.2,142.1,453,142.1,441.4z M147.2,60.3c0,11.8,3.3,21.1,9.8,27.8c6.6,6.7,15.6,10.1,27.2,10.1h143.3  c11.7,0,20.8-3.4,27.4-10.1c6.6-6.7,9.8-16,9.8-27.8V37.9c0-11.8-3.3-21.1-9.8-27.8C348.4,3.4,339.2,0,327.5,0H184.2  c-11.5,0-20.6,3.4-27.2,10.1c-6.6,6.7-9.8,16-9.8,27.8V60.3z M177.4,59.9V38.3c0-2.6,0.7-4.6,2.2-6.1c1.5-1.5,3.5-2.2,6.1-2.2H326  c2.7,0,4.8,0.7,6.3,2.2c1.5,1.5,2.2,3.5,2.2,6.1v21.6c0,2.4-0.7,4.4-2.2,6c-1.5,1.6-3.6,2.4-6.3,2.4H185.7c-2.6,0-4.6-0.8-6.1-2.4  C178.2,64.3,177.4,62.3,177.4,59.9z M208.6,137.1V86.4h-30.2v50.7H208.6z M333.5,137.1V86.4h-30.2v50.7H333.5z" class="multicolor-0:systemGrayColor hierarchical-0:secondary SFSymbolsPreview8E8E93" style="fill: #8E8E93;"/>
<path d="M176.1,335.8c0,4.6,1.4,8.2,4.1,10.8c2.7,2.6,6.3,4,10.7,4H226v34.9c0,4.4,1.3,8,4,10.8c2.6,2.8,6.2,4.2,10.8,4.2h30.4  c4.6,0,8.2-1.4,10.8-4.2c2.6-2.8,4-6.4,4-10.8v-34.9h35.1c4.3,0,7.8-1.3,10.7-4c2.9-2.6,4.3-6.2,4.3-10.8v-30.4  c0-4.6-1.4-8.2-4.3-10.8c-2.9-2.6-6.4-4-10.7-4h-35.1v-34.9c0-4.4-1.3-8-4-10.7c-2.6-2.7-6.2-4.1-10.8-4.1h-30.4  c-4.6,0-8.2,1.4-10.8,4.1c-2.6,2.7-4,6.3-4,10.7v34.9h-35.1c-4.4,0-8,1.3-10.7,4c-2.7,2.6-4.1,6.2-4.1,10.8V335.8z" class="multicolor-1:systemGreenColor hierarchical-1:primary SFSymbolsPreview28CD41" style="fill: #28CD41;"/>
</svg>