<?xml version="1.0" encoding="UTF-8"?>
<!--Generator: Apple Native CoreSVG 326-->
<!DOCTYPE svg
PUBLIC "-//W3C//DTD SVG 1.1//EN"
       "http://www.w3.org/Graphics/SVG/1.1/DTD/svg11.dtd">
<svg version="1.1" xmlns="http://www.w3.org/2000/svg" xmlns:xlink="http://www.w3.org/1999/xlink" viewBox="0 0 27.9395 26.5527">
 <g>
  <rect height="26.5527" opacity="0" width="27.9395" x="0" y="0"/>
  <path d="M15.2637 0.419922L26.0547 6.65039C26.4453 6.875 26.6211 7.1582 26.6211 7.48047C26.6211 7.91992 26.2891 8.33984 25.6934 8.33984L24.5605 8.33984L24.5605 23.252L25.3613 23.252C25.791 23.252 26.0449 23.5059 26.0449 23.9258L26.0449 24.8047L26.709 24.8047C27.1875 24.8047 27.5781 25.1953 27.5781 25.6738C27.5781 26.1426 27.1875 26.5332 26.709 26.5332L0.869141 26.5332C0.390625 26.5332 0 26.1426 0 25.6738C0 25.1953 0.390625 24.8047 0.869141 24.8047L1.5332 24.8047L1.5332 23.9258C1.5332 23.5059 1.78711 23.252 2.22656 23.252L3.02734 23.252L3.02734 8.33984L1.88477 8.33984C1.28906 8.33984 0.957031 7.91992 0.957031 7.48047C0.957031 7.1582 1.12305 6.875 1.52344 6.65039L12.3145 0.419922C12.7832 0.146484 13.3008 0 13.7891 0C14.2773 0 14.7852 0.146484 15.2637 0.419922ZM8.93555 14.3457C8.93555 17.5098 10.6055 20.0488 13.8965 20.0488C15.8594 20.0488 17.6074 19.082 18.1543 17.3828C18.2227 17.1973 18.2422 17.041 18.2422 16.8652C18.2422 16.5039 17.998 16.2891 17.627 16.2891C17.2754 16.2891 17.0801 16.4746 16.9727 16.8066C16.582 18.1348 15.3906 18.8477 14.043 18.877L14.043 16.9336C14.043 15.6641 14.8828 14.7852 16.1328 14.7852C16.3867 14.7852 16.5723 14.8438 16.6895 14.8438C16.9238 14.8438 17.0898 14.7266 17.0898 14.4531C17.0898 14.3066 17.002 14.1602 16.8555 14.0723C16.6797 13.9551 16.3574 13.9062 16.123 13.9062C15.0879 13.9062 14.3066 14.5801 14.0527 15.3906L14.0234 15.3906L14.0234 14.3457C14.0234 14.1016 13.8672 13.9355 13.6328 13.9355C13.3887 13.9355 13.2324 14.1016 13.2324 14.3457L13.2324 18.8184C11.2598 18.4668 10.3516 16.5137 10.3516 14.3457C10.3516 11.9336 11.4941 9.86328 13.9062 9.86328C15.332 9.86328 16.5332 10.6934 16.9043 11.9531C17.0215 12.2949 17.1973 12.4805 17.5391 12.4805C17.8906 12.4805 18.1641 12.2559 18.1641 11.8945C18.1641 11.7578 18.125 11.5625 18.0566 11.3965C17.5 9.7168 15.8105 8.67188 13.8965 8.67188C10.7422 8.67188 8.93555 11.0742 8.93555 14.3457Z" fill="black" fill-opacity="0.85"/>
 </g>
</svg>
