<?xml version="1.0" encoding="UTF-8"?>
<!--Generator: Apple Native CoreSVG 326-->
<!DOCTYPE svg
PUBLIC "-//W3C//DTD SVG 1.1//EN"
       "http://www.w3.org/Graphics/SVG/1.1/DTD/svg11.dtd">
<svg version="1.1" xmlns="http://www.w3.org/2000/svg" xmlns:xlink="http://www.w3.org/1999/xlink" viewBox="0 0 28.291 27.9395">
 <g>
  <rect height="27.9395" opacity="0" width="28.291" x="0" y="0"/>
  <path d="M13.9648 27.9297C21.6406 27.9297 27.9297 21.6504 27.9297 13.9648C27.9297 6.2793 21.6406 0 13.9648 0C6.28906 0 0 6.2793 0 13.9648C0 21.6504 6.28906 27.9297 13.9648 27.9297ZM13.9648 23.3398C8.7793 23.3398 4.58008 19.1504 4.58008 13.9648C4.58008 8.7793 8.7793 4.58008 13.9648 4.58008C19.1504 4.58008 23.3496 8.7793 23.3496 13.9648C23.3496 19.1504 19.1504 23.3398 13.9648 23.3398Z" fill="black" fill-opacity="0.85"/>
  <path d="M14.0625 19.541C15.9766 19.541 17.6758 18.5938 18.2031 16.9336C18.2715 16.7578 18.291 16.6016 18.291 16.4355C18.291 16.084 18.0566 15.8691 17.6953 15.8691C17.3535 15.8691 17.168 16.0645 17.0605 16.3867C16.6797 17.7246 15.4395 18.418 14.0723 18.418C11.6797 18.418 10.5859 16.3281 10.5859 13.9746C10.5859 11.6211 11.7188 9.59961 14.0723 9.59961C15.459 9.59961 16.6406 10.4199 16.9922 11.6504C17.1094 11.9727 17.2754 12.168 17.6074 12.168C17.9492 12.168 18.2129 11.9336 18.2129 11.582C18.2129 11.4648 18.1836 11.2695 18.125 11.1035C17.5684 9.46289 15.9277 8.4375 14.0625 8.4375C10.9766 8.4375 9.21875 10.7812 9.21875 13.9746C9.21875 17.0605 10.8496 19.541 14.0625 19.541ZM13.418 18.9551L14.1992 18.9551L14.1992 16.5039C14.1992 15.2637 15.0195 14.4043 16.2402 14.4043C16.4844 14.4043 16.6699 14.4629 16.7871 14.4629C17.0215 14.4629 17.168 14.3457 17.168 14.082C17.168 13.9355 17.0898 13.7988 16.9434 13.7109C16.7871 13.6035 16.4551 13.5547 16.2305 13.5547C15.2148 13.5547 14.4531 14.209 14.209 15L14.1797 15L14.1797 13.9844C14.1797 13.7402 14.0332 13.5742 13.8086 13.5742C13.5742 13.5742 13.418 13.7402 13.418 13.9844Z" fill="black" fill-opacity="0.85"/>
 </g>
</svg>
