<?xml version="1.0" encoding="UTF-8"?>
<!--Generator: Apple Native CoreSVG 326-->
<!DOCTYPE svg
PUBLIC "-//W3C//DTD SVG 1.1//EN"
       "http://www.w3.org/Graphics/SVG/1.1/DTD/svg11.dtd">
<svg version="1.1" xmlns="http://www.w3.org/2000/svg" xmlns:xlink="http://www.w3.org/1999/xlink" viewBox="0 0 25.8008 25.459">
 <g>
  <rect height="25.459" opacity="0" width="25.8008" x="0" y="0"/>
  <path d="M25.4395 12.7246C25.4395 19.7266 19.7266 25.4395 12.7148 25.4395C5.71289 25.4395 0 19.7266 0 12.7246C0 5.71289 5.71289 0 12.7148 0C19.7266 0 25.4395 5.71289 25.4395 12.7246ZM7.85156 12.7344C7.85156 15.8984 9.53125 18.4473 12.8223 18.4473C14.7852 18.4473 16.5332 17.4707 17.0703 15.7715C17.1484 15.5859 17.1582 15.4297 17.1582 15.2539C17.1582 14.8926 16.9238 14.6777 16.5527 14.6777C16.1914 14.6777 15.9961 14.873 15.8984 15.2051C15.5078 16.5234 14.3164 17.2363 12.959 17.2754L12.959 15.3223C12.959 14.0527 13.7988 13.1738 15.0586 13.1738C15.3125 13.1738 15.4883 13.2324 15.6055 13.2324C15.8496 13.2324 16.0059 13.1152 16.0059 12.8418C16.0059 12.6953 15.918 12.5488 15.7812 12.4609C15.6055 12.3535 15.2832 12.3047 15.0391 12.3047C14.0039 12.3047 13.2324 12.9688 12.9688 13.7793L12.9395 13.7793L12.9395 12.7441C12.9395 12.4902 12.793 12.3242 12.5586 12.3242C12.3145 12.3242 12.1582 12.4902 12.1582 12.7441L12.1582 17.207C10.1758 16.8555 9.26758 14.9121 9.26758 12.7344C9.26758 10.3223 10.4199 8.25195 12.832 8.25195C14.248 8.25195 15.459 9.0918 15.8301 10.3516C15.9375 10.6836 16.1133 10.8789 16.4551 10.8789C16.8164 10.8789 17.0801 10.6445 17.0801 10.2832C17.0801 10.1562 17.0508 9.96094 16.9824 9.78516C16.416 8.10547 14.7363 7.06055 12.8223 7.06055C9.6582 7.06055 7.85156 9.46289 7.85156 12.7344Z" fill="black" fill-opacity="0.85"/>
 </g>
</svg>
