<?xml version="1.0" encoding="UTF-8"?>
<!--Generator: Apple Native CoreSVG 326-->
<!DOCTYPE svg
PUBLIC "-//W3C//DTD SVG 1.1//EN"
       "http://www.w3.org/Graphics/SVG/1.1/DTD/svg11.dtd">
<svg version="1.1" xmlns="http://www.w3.org/2000/svg" xmlns:xlink="http://www.w3.org/1999/xlink" viewBox="0 0 30.3809 24.9191">
 <g>
  <rect height="24.9191" opacity="0" width="30.3809" x="0" y="0"/>
  <path d="M30.0195 14.9547C30.0195 7.09334 23.9746 0.648023 16.2988 0.00349172C15.8984-0.0355708 15.5859 0.257398 15.5859 0.667554L15.5859 4.66169C15.5859 4.99373 15.8301 5.2574 16.1719 5.28669C20.9863 5.87263 24.7266 9.97419 24.7266 14.9547C24.7266 17.2203 23.9551 19.3004 22.5879 21.0191C22.4023 21.2535 22.4121 21.5465 22.6172 21.7515L25.5176 24.6519C25.8105 24.9351 26.2305 24.9351 26.4844 24.6226C28.6914 22.0054 30.0195 18.6265 30.0195 14.9547Z" fill="black" fill-opacity="0.85"/>
  <path d="M0 14.9547C0 18.6363 1.32812 22.025 3.54492 24.6422C3.78906 24.9351 4.19922 24.9351 4.49219 24.6519L7.39258 21.7515C7.59766 21.5465 7.60742 21.2535 7.42188 21.0191C6.05469 19.3004 5.2832 17.2203 5.2832 14.9547C5.2832 9.97419 9.0332 5.87263 13.8379 5.28669C14.1895 5.2574 14.4238 4.99373 14.4238 4.66169L14.4238 0.667554C14.4238 0.257398 14.1211-0.0355708 13.7207 0.00349172C6.03516 0.648023 0 7.09334 0 14.9547Z" fill="black" fill-opacity="0.85"/>
  <path d="M15.0879 20.6969C17.002 20.6969 18.7109 19.7496 19.2383 18.0894C19.3066 17.9136 19.3262 17.7574 19.3262 17.5914C19.3262 17.2398 19.0918 17.025 18.7305 17.025C18.3887 17.025 18.1934 17.2105 18.0957 17.5328C17.7051 18.8804 16.4648 19.564 15.0977 19.564C12.7148 19.564 11.6211 17.484 11.6211 15.1304C11.6211 12.7769 12.7441 10.7554 15.0977 10.7554C16.4941 10.7554 17.666 11.5758 18.0273 12.8062C18.1445 13.1285 18.3008 13.314 18.6328 13.314C18.9844 13.314 19.248 13.0894 19.248 12.7379C19.248 12.6207 19.2188 12.4254 19.1504 12.2594C18.6035 10.6187 16.9629 9.59334 15.0879 9.59334C12.0117 9.59334 10.2539 11.9371 10.2539 15.1304C10.2539 18.2164 11.8848 20.6969 15.0879 20.6969ZM14.4434 20.1109L15.2344 20.1109L15.2344 17.6597C15.2344 16.4195 16.0547 15.5601 17.2754 15.5601C17.5195 15.5601 17.7051 15.6187 17.8125 15.6187C18.0469 15.6187 18.2031 15.5015 18.2031 15.2379C18.2031 15.0914 18.125 14.9547 17.9785 14.8668C17.8125 14.7496 17.4902 14.7008 17.2656 14.7008C16.25 14.7008 15.4883 15.3648 15.2441 16.1558L15.2148 16.1558L15.2148 15.1304C15.2148 14.8961 15.0586 14.7301 14.834 14.7301C14.5996 14.7301 14.4434 14.8961 14.4434 15.1304Z" fill="black" fill-opacity="0.85"/>
 </g>
</svg>
