<?xml version="1.0" encoding="UTF-8"?>
<!--Generator: Apple Native CoreSVG 326-->
<!DOCTYPE svg
PUBLIC "-//W3C//DTD SVG 1.1//EN"
       "http://www.w3.org/Graphics/SVG/1.1/DTD/svg11.dtd">
<svg version="1.1" xmlns="http://www.w3.org/2000/svg" xmlns:xlink="http://www.w3.org/1999/xlink" viewBox="0 0 23.3203 22.959">
 <g>
  <rect height="22.959" opacity="0" width="23.3203" x="0" y="0"/>
  <path d="M22.959 3.76953L22.959 19.1992C22.959 21.6797 21.6797 22.959 19.1504 22.959L3.79883 22.959C1.2793 22.959 0 21.6992 0 19.1992L0 3.76953C0 1.26953 1.2793 0 3.79883 0L19.1504 0C21.6797 0 22.959 1.2793 22.959 3.76953ZM6.62109 11.4844C6.62109 14.6484 8.30078 17.1973 11.5918 17.1973C13.5547 17.1973 15.3027 16.2207 15.8398 14.5215C15.918 14.3359 15.9277 14.1797 15.9277 14.0039C15.9277 13.6426 15.6934 13.4277 15.3223 13.4277C14.9609 13.4277 14.7656 13.623 14.668 13.9551C14.2773 15.2734 13.0859 15.9863 11.7285 16.0254L11.7285 14.0723C11.7285 12.8027 12.5684 11.9238 13.8184 11.9238C14.082 11.9238 14.2578 11.9824 14.375 11.9824C14.6191 11.9824 14.7754 11.8652 14.7754 11.5918C14.7754 11.4453 14.6875 11.2988 14.5508 11.2109C14.375 11.1035 14.0527 11.0547 13.8086 11.0547C12.7734 11.0547 11.9922 11.7188 11.7383 12.5293L11.709 12.5293L11.709 11.4941C11.709 11.2402 11.5625 11.0742 11.3281 11.0742C11.084 11.0742 10.9277 11.2402 10.9277 11.4941L10.9277 15.957C8.94531 15.6055 8.03711 13.6621 8.03711 11.4844C8.03711 9.07227 9.18945 7.00195 11.6016 7.00195C13.0176 7.00195 14.2285 7.8418 14.5996 9.10156C14.707 9.43359 14.8828 9.62891 15.2246 9.62891C15.5859 9.62891 15.8496 9.39453 15.8496 9.0332C15.8496 8.90625 15.8203 8.71094 15.752 8.53516C15.1855 6.85547 13.5059 5.81055 11.5918 5.81055C8.42773 5.81055 6.62109 8.21289 6.62109 11.4844Z" fill="black" fill-opacity="0.85"/>
 </g>
</svg>
