<?xml version="1.0" encoding="UTF-8"?>
<!--Generator: Apple Native CoreSVG 326-->
<!DOCTYPE svg
PUBLIC "-//W3C//DTD SVG 1.1//EN"
       "http://www.w3.org/Graphics/SVG/1.1/DTD/svg11.dtd">
<svg version="1.1" xmlns="http://www.w3.org/2000/svg" xmlns:xlink="http://www.w3.org/1999/xlink" viewBox="0 0 23.3203 22.959">
 <g>
  <rect height="22.959" opacity="0" width="23.3203" x="0" y="0"/>
  <path d="M3.79883 22.959L19.1504 22.959C21.6797 22.959 22.959 21.6797 22.959 19.1992L22.959 3.76953C22.959 1.2793 21.6797 0 19.1504 0L3.79883 0C1.2793 0 0 1.26953 0 3.76953L0 19.1992C0 21.6992 1.2793 22.959 3.79883 22.959ZM3.83789 21.2305C2.4707 21.2305 1.72852 20.5078 1.72852 19.1016L1.72852 3.85742C1.72852 2.46094 2.4707 1.72852 3.83789 1.72852L19.1211 1.72852C20.459 1.72852 21.2305 2.46094 21.2305 3.85742L21.2305 19.1016C21.2305 20.5078 20.459 21.2305 19.1211 21.2305Z" fill="black" fill-opacity="0.85"/>
  <path d="M11.582 17.0508C13.4961 17.0508 15.1953 16.1035 15.7227 14.4434C15.791 14.2676 15.8105 14.1113 15.8105 13.9453C15.8105 13.5938 15.5762 13.3789 15.2148 13.3789C14.873 13.3789 14.6875 13.5742 14.5898 13.8965C14.1992 15.2344 12.959 15.9277 11.5918 15.9277C9.19922 15.9277 8.10547 13.8379 8.10547 11.4844C8.10547 9.13086 9.23828 7.10938 11.5918 7.10938C12.9785 7.10938 14.1602 7.92969 14.5215 9.16016C14.6289 9.48242 14.7949 9.67773 15.127 9.67773C15.4688 9.67773 15.7324 9.44336 15.7324 9.0918C15.7324 8.97461 15.7031 8.7793 15.6445 8.61328C15.0879 6.97266 13.457 5.94727 11.582 5.94727C8.49609 5.94727 6.73828 8.29102 6.73828 11.4844C6.73828 14.5703 8.36914 17.0508 11.582 17.0508ZM10.9375 16.4648L11.7188 16.4648L11.7188 14.0137C11.7188 12.7734 12.5391 11.9141 13.7598 11.9141C14.0137 11.9141 14.1895 11.9727 14.3066 11.9727C14.541 11.9727 14.6875 11.8555 14.6875 11.5918C14.6875 11.4453 14.6094 11.3086 14.4629 11.2207C14.3066 11.1133 13.9844 11.0645 13.75 11.0645C12.7344 11.0645 11.9727 11.7188 11.7285 12.5098L11.6992 12.5098L11.6992 11.4941C11.6992 11.25 11.5527 11.084 11.3281 11.084C11.0938 11.084 10.9375 11.25 10.9375 11.4941Z" fill="black" fill-opacity="0.85"/>
 </g>
</svg>
