<?xml version="1.0" ?><!-- Generator: Adobe Illustrator 25.0.0, SVG Export Plug-In . SVG Version: 6.00 Build 0)  --><svg xmlns="http://www.w3.org/2000/svg" xmlns:xlink="http://www.w3.org/1999/xlink" version="1.1" id="Layer_1" x="0px" y="0px" viewBox="0 0 512 512" style="enable-background:new 0 0 512 512;" xml:space="preserve">
<path d="M256,512c140,0,256-116.2,256-256C512,116,395.8,0,255.7,0C116,0,0,116,0,256C0,395.8,116.2,512,256,512z M256,469.3  c-118.5,0-213.1-94.9-213.1-213.3S137.3,42.7,255.7,42.7S469.1,137.5,469.3,256S374.5,469.3,256,469.3z M154.1,256.3  c0,74.5,40.4,120.7,101.6,120.7c44.4,0,76-22.3,87.6-55.7c1.5-3.8,2.3-7.8,2.5-11.8c0-9-6.3-15.3-15.6-15.3  c-8.5,0-13.3,4.5-16.1,13.1c-6.3,21.8-26.1,37.1-51.5,39.4v-36.4c0-24.1,14.8-40.9,36.1-40.9c5,0,8.5,0.8,11.5,0.8  c7.3,0,12.3-4.3,12.3-10.8c0-9-9.3-15.3-22.8-15.3c-15.1,0-29.6,7.8-37.4,22.8V256c0-7.8-5.3-12.8-12.3-12.8  c-7.3,0-12.3,5.5-12.3,12.8v88.1c-31.4-8.8-50.2-41.2-50.2-87.8c0-54.7,26.6-90.1,67.8-90.1c27.4,0,49.2,16.8,57,40.2  c2.8,8,7,13.3,16.1,13.3c9.5,0,15.3-6,15.3-15.3c0-4.5-0.8-8.8-2.3-12.8C330,158.6,295.9,136,255.7,136  C194.5,136,154.1,183,154.1,256.3z"/>
</svg>