<?xml version="1.0" encoding="UTF-8"?>
<!--Generator: Apple Native CoreSVG 326-->
<!DOCTYPE svg
PUBLIC "-//W3C//DTD SVG 1.1//EN"
       "http://www.w3.org/Graphics/SVG/1.1/DTD/svg11.dtd">
<svg version="1.1" xmlns="http://www.w3.org/2000/svg" xmlns:xlink="http://www.w3.org/1999/xlink" viewBox="0 0 25.2344 27.7246">
 <g>
  <rect height="27.7246" opacity="0" width="25.2344" x="0" y="0"/>
  <path d="M11.7188 12.9102L11.7188 9.78516L13.1543 9.78516L13.1543 12.8516L24.3066 6.5625C24.0918 6.30859 23.8379 6.08398 23.5352 5.89844L13.7793 0.273438C13.5742 0.15625 13.3691 0.0585938 13.1543 0.00976562L13.1543 3.66211L11.7188 3.66211L11.7188 0.00976562C11.5137 0.0585938 11.2988 0.15625 11.0938 0.273438L1.34766 5.89844C1.02539 6.08398 0.761719 6.32812 0.546875 6.60156ZM11.7188 8.28125L11.7188 5.16602L13.1543 5.16602L13.1543 8.28125ZM13.1641 27.7246C13.3691 27.666 13.584 27.5684 13.7793 27.4512L23.5352 21.8066C23.7793 21.6602 23.9941 21.4941 24.1406 21.2793L21.4062 19.7461L22.1582 18.4766L24.834 19.9805C24.8633 19.8145 24.873 19.6484 24.873 19.4824L24.873 8.18359C24.873 8.1543 24.873 8.10547 24.873 8.06641L14.2578 14.0527L16.8066 15.4688L16.0742 16.7285L13.1641 15.0977ZM20.1172 18.9941L17.3926 17.4707L18.125 16.2109L20.8301 17.7246ZM11.6113 27.6855L11.6113 15.1465L8.79883 16.7285L8.06641 15.4688L10.5566 14.0723L0.00976562 8.125C0.00976562 8.18359 0 8.25195 0 8.30078L0 19.4824C0 19.6484 0.00976562 19.8145 0.0390625 19.9805L2.71484 18.4766L3.4668 19.7461L0.732422 21.2793C0.888672 21.4941 1.09375 21.6602 1.34766 21.8066L11.0938 27.4512C11.2695 27.5586 11.4355 27.6367 11.6113 27.6855ZM7.48047 17.4707L4.75586 18.9941L4.04297 17.7246L6.74805 16.2109Z" fill="black" fill-opacity="0.85"/>
 </g>
</svg>
