<?xml version="1.0" ?><!-- Generator: Adobe Illustrator 25.0.0, SVG Export Plug-In . SVG Version: 6.00 Build 0)  --><svg xmlns="http://www.w3.org/2000/svg" xmlns:xlink="http://www.w3.org/1999/xlink" version="1.1" id="Layer_1" x="0px" y="0px" viewBox="0 0 512 512" style="enable-background:new 0 0 512 512;" xml:space="preserve">
<path d="M256.1,242.4l221.6-125.9c-3.5-3.5-7.8-6.4-12.9-9.2L298.7,12.7C284.4,4.5,270,0,256.1,0c-14.1,0-28.5,4.5-42.8,12.7  L47.4,107.3c-5.2,2.8-9.4,5.6-13.2,9.2L256.1,242.4z M239.9,512V270.6L19.2,144.5c-1.4,5.2-1.9,10.8-1.9,17.9v183.3  c0,34.1,12,46.8,33.6,59.3l184.5,104.9C236.8,510.8,238.2,511.5,239.9,512z M272.1,512c1.6-0.5,3.1-1.2,4.7-2.1l184.2-104.9  c21.9-12.5,33.6-25.2,33.6-59.3V162.4c0-7.1-0.5-12.7-1.9-17.9L272.1,270.6V512z"/>
</svg>