<?xml version="1.0" encoding="UTF-8"?>
<!--Generator: Apple Native CoreSVG 326-->
<!DOCTYPE svg
PUBLIC "-//W3C//DTD SVG 1.1//EN"
       "http://www.w3.org/Graphics/SVG/1.1/DTD/svg11.dtd">
<svg version="1.1" xmlns="http://www.w3.org/2000/svg" xmlns:xlink="http://www.w3.org/1999/xlink" viewBox="0 0 26.3184 27.0205">
 <g>
  <rect height="27.0205" opacity="0" width="26.3184" x="0" y="0"/>
  <path d="M21.9336 13.3101L21.9336 13.3882C24.4246 13.4842 25.957 14.899 25.957 17.148C25.957 19.482 24.3164 20.9273 21.6504 20.9273L20.8892 20.9273C19.3009 24.4151 15.9521 26.5034 11.4844 26.5034L10.459 26.5034C4.0918 26.5034 0 22.0991 0 15.8198L0 13.3101C0 11.1762 2.4433 9.51911 6.36154 8.80581C6.18126 9.19172 6.05469 9.61492 6.05469 10.0972C6.05469 10.2546 6.06306 10.4059 6.08351 10.5511C3.38012 11.1029 1.67969 12.1196 1.67969 13.3101C1.67969 15.1265 5.5957 16.5327 10.9668 16.5327C16.3477 16.5327 20.2637 15.1265 20.2637 13.3101C20.2637 11.997 18.1952 10.8955 14.9933 10.3947C14.9779 10.2823 14.9707 10.1616 14.9707 10.0288C14.9707 9.59277 15.1762 9.19187 15.4346 8.77727C19.4351 9.47829 21.9336 11.1498 21.9336 13.3101ZM21.9336 15.8198C21.9336 17.052 21.7845 18.203 21.4968 19.2573L21.6504 19.2573C23.291 19.2573 24.2871 18.4468 24.2871 17.148C24.2871 15.9166 23.4051 15.1349 21.9336 15.0474ZM9.89258 10.0972L9.89337 10.1176C8.97158 10.1497 8.10293 10.2255 7.3011 10.3388C7.29023 10.2427 7.28516 10.14 7.28516 10.0288C7.28516 9.52674 7.55765 9.07125 7.8695 8.58768C8.65933 8.49387 9.50242 8.43945 10.3926 8.42868C10.1179 8.91532 9.89258 9.45367 9.89258 10.0972ZM14.1409 8.59525C13.9081 9.03759 13.7305 9.52596 13.7305 10.0972C13.7305 10.1431 13.7312 10.1884 13.7357 10.2314C12.9223 10.1486 12.0512 10.1027 11.134 10.0999C11.133 10.0771 11.1328 10.0532 11.1328 10.0288C11.1328 9.474 11.4655 8.97609 11.8162 8.43401C12.6339 8.45183 13.4105 8.50667 14.1409 8.59525Z" fill="black" fill-opacity="0.85"/>
  <path d="M8.76953 6.32766C8.76953 4.72609 7.28516 3.78859 7.28516 2.59719C7.28516 1.96242 7.46094 1.60109 7.89062 1.01516C8.41797 0.302266 7.43164-0.410625 6.89453 0.282735C6.29883 1.02492 6.05469 1.69875 6.05469 2.52883C6.05469 4.19875 7.51953 5.11672 7.51953 6.32766C7.51953 7.49953 6.05469 8.45656 6.05469 10.0972C6.05469 10.9468 6.29883 11.6206 6.88477 12.3433C7.41211 13.0171 8.39844 12.314 7.87109 11.6011C7.46094 11.0445 7.28516 10.6831 7.28516 10.0288C7.28516 8.85695 8.76953 7.93898 8.76953 6.32766ZM12.6172 6.32766C12.6172 4.72609 11.1328 3.78859 11.1328 2.59719C11.1328 1.96242 11.2988 1.60109 11.7285 1.01516C12.2656 0.302266 11.2793-0.410625 10.7324 0.282735C10.1465 1.02492 9.89258 1.69875 9.89258 2.52883C9.89258 4.19875 11.3574 5.11672 11.3574 6.32766C11.3574 7.49953 9.89258 8.45656 9.89258 10.0972C9.89258 10.9468 10.1465 11.6206 10.7227 12.3433C11.25 13.0171 12.2461 12.314 11.7188 11.6011C11.2988 11.0445 11.1328 10.6831 11.1328 10.0288C11.1328 8.85695 12.6172 7.93898 12.6172 6.32766ZM16.4551 6.32766C16.4551 4.72609 14.9707 3.78859 14.9707 2.59719C14.9707 1.96242 15.1465 1.60109 15.5762 1.01516C16.1035 0.302266 15.1172-0.410625 14.5801 0.282735C13.9844 1.02492 13.7305 1.69875 13.7305 2.52883C13.7305 4.19875 15.1953 5.11672 15.1953 6.32766C15.1953 7.49953 13.7305 8.45656 13.7305 10.0972C13.7305 10.9468 13.9844 11.6206 14.5605 12.3433C15.0977 13.0171 16.084 12.314 15.5566 11.6011C15.1465 11.0445 14.9707 10.6831 14.9707 10.0288C14.9707 8.85695 16.4551 7.93898 16.4551 6.32766Z" fill="black" fill-opacity="0.85"/>
 </g>
</svg>
