<?xml version="1.0" encoding="UTF-8"?>
<!--Generator: Apple Native CoreSVG 326-->
<!DOCTYPE svg
PUBLIC "-//W3C//DTD SVG 1.1//EN"
       "http://www.w3.org/Graphics/SVG/1.1/DTD/svg11.dtd">
<svg version="1.1" xmlns="http://www.w3.org/2000/svg" xmlns:xlink="http://www.w3.org/1999/xlink" viewBox="0 0 32.4219 23.8965">
 <g>
  <rect height="23.8965" opacity="0" width="32.4219" x="0" y="0"/>
  <path d="M24.4629 13.5742C28.1445 14.4629 30.3906 15.8984 30.3906 17.4219C30.3906 19.9609 24.1309 22.2168 16.0254 22.2168C7.92969 22.2168 1.66992 19.9609 1.66992 17.4219C1.66992 15.9082 3.85742 14.4922 7.50977 13.584L6.67969 12.0508C2.49023 13.1738 0 15.0977 0 17.4219C0 21.25 6.68945 23.8965 16.0254 23.8965C25.3809 23.8965 32.0605 21.25 32.0605 17.4219C32.0605 15.0488 29.4531 13.0859 25.1465 11.9727ZM25.5371 5.03906L25.5371 7.60742C25.5371 13.0957 22.1191 16.8359 16.5527 16.8359L15.498 16.8359C9.91211 16.8359 6.51367 13.1055 6.51367 7.60742L6.51367 5.03906L4.78516 5.03906L4.78516 7.60742C4.78516 14.043 8.97461 18.5645 15.498 18.5645L16.5527 18.5645C23.0664 18.5645 27.2754 14.0332 27.2754 7.60742L27.2754 5.03906ZM16.0254 10.0586C22.7051 10.0586 27.2754 7.99805 27.2754 5.03906C27.2754 2.08008 22.7148 0.0195312 16.0254 0.0195312C9.3457 0.0195312 4.78516 2.08008 4.78516 5.03906C4.78516 7.99805 9.35547 10.0586 16.0254 10.0586ZM16.0254 8.33008C10.5273 8.33008 6.51367 6.89453 6.51367 5.03906C6.51367 3.18359 10.5273 1.74805 16.0254 1.74805C21.5234 1.74805 25.5371 3.18359 25.5371 5.03906C25.5371 6.89453 21.5234 8.33008 16.0254 8.33008ZM25.9375 12.8516L26.9727 12.8516C29.7168 12.8516 31.3867 11.377 31.3867 8.96484C31.3867 6.57227 29.707 5.09766 26.9727 5.09766L26.2891 5.09766L26.2891 6.81641L26.9727 6.81641C28.6426 6.81641 29.668 7.63672 29.668 8.96484C29.668 10.293 28.6426 11.1328 26.9727 11.1328L25.9375 11.1328Z" fill="black" fill-opacity="0.85"/>
 </g>
</svg>
