<?xml version="1.0" ?><!-- Generator: Adobe Illustrator 25.0.0, SVG Export Plug-In . SVG Version: 6.00 Build 0)  --><svg xmlns="http://www.w3.org/2000/svg" xmlns:xlink="http://www.w3.org/1999/xlink" version="1.1" id="Layer_1" x="0px" y="0px" viewBox="0 0 512 512" style="enable-background:new 0 0 512 512;" xml:space="preserve">
<path d="M385.9,282.9c19.6,4.6,36.5,10.1,50.8,16.4c14.3,6.3,25.4,13.2,33.1,20.6c7.8,7.4,11.6,15.1,11.6,23  c0,9.6-5.7,18.8-17.1,27.7c-11.4,8.9-27.4,16.8-47.9,23.7c-20.5,7-44.4,12.4-71.7,16.5c-27.3,4-56.9,6-88.7,6s-61.4-2-88.7-6  c-27.3-4-51.2-9.5-71.7-16.5s-36.5-14.9-47.9-23.7c-11.4-8.9-17.1-18.1-17.1-27.7c0-7.9,3.8-15.5,11.3-22.8  c7.6-7.3,18.3-14.1,32.3-20.4c14-6.3,30.6-11.8,49.8-16.6l-15-28c-34,8.9-60.7,21-80,36.1C9.7,306.3,0,323.5,0,342.8  c0,15.5,6.3,29.6,18.8,42.4c12.5,12.7,30.3,23.8,53.1,33.1c22.9,9.3,49.9,16.5,81.1,21.5c31.2,5,65.5,7.5,103,7.5  s71.8-2.5,103.1-7.5c31.3-5,58.3-12.2,81.2-21.5c22.9-9.3,40.5-20.4,53-33.1c12.5-12.7,18.7-26.9,18.7-42.4  c0-19.7-10.1-37.3-30.4-52.7c-20.3-15.4-48.2-27.6-83.7-36.4L385.9,282.9z M403.6,146.1v41.2c0,28.4-5.7,53.3-17.1,74.8  c-11.4,21.5-27.5,38.2-48.2,50.3c-20.7,12-45.1,18-73.2,18h-18.3c-28.1,0-52.5-6-73.2-17.9c-20.7-12-36.7-28.7-48.1-50.2  c-11.4-21.5-17-46.5-17-75v-41.2H76.7v41.2c0,25.8,4.1,49.3,12.2,70.6c8.1,21.3,19.7,39.7,34.8,55.3c15,15.6,33,27.6,53.8,36.2  c20.8,8.5,43.9,12.8,69.3,12.8h18.3c25.5,0,48.6-4.3,69.5-12.8c20.8-8.5,38.8-20.6,53.8-36.2c15-15.6,26.6-34,34.8-55.4  c8.1-21.3,12.2-44.8,12.2-70.5v-41.2H403.6z M256,227.3c35.6,0,66.9-3.4,93.8-10.2c26.9-6.8,47.9-16.3,63-28.5  c15-12.2,22.6-26.3,22.6-42.5c0-16.2-7.5-30.3-22.6-42.6c-15-12.2-36-21.7-63-28.6c-26.9-6.8-58.2-10.2-93.8-10.2  c-35.7,0-67,3.4-93.9,10.2c-26.9,6.8-47.8,16.4-62.9,28.6c-15,12.2-22.6,26.4-22.6,42.6c0,16.2,7.5,30.3,22.6,42.5  c15,12.2,36,21.6,63,28.5C189.1,223.9,220.4,227.3,256,227.3z M256,195.6c-21.3,0-40.9-1.2-58.8-3.7c-17.9-2.5-33.5-6-46.8-10.5  c-13.3-4.5-23.6-9.8-30.9-15.8c-7.4-6-11-12.4-11-19.4s3.7-13.5,11-19.5c7.4-6,17.7-11.3,30.9-15.8c13.3-4.5,28.9-8,46.8-10.5  c17.9-2.6,37.5-3.8,58.8-3.8c21.3,0,40.9,1.3,58.8,3.8c17.9,2.6,33.5,6.1,46.8,10.5c13.3,4.5,23.6,9.7,30.9,15.8  c7.4,6,11,12.5,11,19.5s-3.7,13.4-11,19.4c-7.4,6-17.7,11.2-30.9,15.8c-13.3,4.5-28.9,8-46.8,10.5  C296.9,194.3,277.3,195.6,256,195.6z M413.3,272.5h16.2c22.6,0,40.3-5.6,53.2-16.8c12.9-11.2,19.3-26.8,19.3-46.6  c0-19.6-6.5-35-19.4-46.3c-12.9-11.3-30.6-16.9-53.1-16.9h-13.2v31.7h13.2c12.7,0,22.7,2.8,30,8.4c7.2,5.6,10.8,13.3,10.8,23.2  c0,9.9-3.6,17.6-10.8,23.3c-7.2,5.6-17.2,8.5-30,8.5h-16.2V272.5z"/>
</svg>