<?xml version="1.0" encoding="UTF-8"?>
<!--Generator: Apple Native CoreSVG 326-->
<!DOCTYPE svg
PUBLIC "-//W3C//DTD SVG 1.1//EN"
       "http://www.w3.org/Graphics/SVG/1.1/DTD/svg11.dtd">
<svg version="1.1" xmlns="http://www.w3.org/2000/svg" xmlns:xlink="http://www.w3.org/1999/xlink" viewBox="0 0 26.9727 27.0205">
 <g>
  <rect height="27.0205" opacity="0" width="26.9727" x="0" y="0"/>
  <path d="M22.4902 12.9878L22.4902 13.0468C25.0437 13.1469 26.6113 14.6089 26.6113 16.9136C26.6113 19.3159 24.9316 20.8003 22.1973 20.8003L21.377 20.8003C19.7272 24.31 16.3111 26.5034 11.7676 26.5034L10.7129 26.5034C4.19922 26.5034 0 21.9917 0 15.5464L1.50481e-08 12.9878C0 10.7725 2.53955 9.06284 6.606 8.33895C6.30878 8.84918 6.05469 9.41389 6.05469 10.0972C6.05469 10.1294 6.05504 10.1613 6.05821 10.1914C3.39542 10.7667 1.72852 11.7921 1.72852 12.9878C1.72852 14.8335 5.74219 16.2788 11.2402 16.2788C16.748 16.2788 20.7617 14.8335 20.7617 12.9878C20.7617 11.5866 18.4728 10.4193 14.9781 9.93281C15.0124 9.37519 15.3749 8.87086 15.7315 8.31357C19.889 9.02161 22.4902 10.7457 22.4902 12.9878ZM11.2402 18.0073C7.02616 18.0073 3.65019 17.1848 1.73965 15.8314C1.8489 21.1841 5.22533 24.7749 10.7129 24.7749L11.7676 24.7749C17.2357 24.7749 20.6401 21.1656 20.7505 15.8311C18.8392 17.1847 15.4608 18.0073 11.2402 18.0073ZM22.4902 15.5464C22.4902 16.8019 22.3304 17.9845 22.02 19.0718L22.1973 19.0718C23.8672 19.0718 24.8828 18.2417 24.8828 16.9136C24.8828 15.6651 23.9853 14.8654 22.4902 14.7743ZM9.92179 9.7191C8.9816 9.75685 8.09975 9.84145 7.29002 9.96552C7.31557 9.33159 7.76876 8.76841 8.16658 8.12237C8.95028 8.03172 9.78582 7.97969 10.6668 7.96967C10.3456 8.48463 10.0134 9.04206 9.92179 9.7191ZM14.4052 8.13138C14.1048 8.62167 13.8176 9.1563 13.747 9.79694C12.9599 9.72383 12.1191 9.68703 11.2402 9.68703C11.2188 9.68703 11.1973 9.68705 11.1769 9.68807C11.3071 9.11688 11.7439 8.58695 12.1016 7.97525C12.911 7.99235 13.6807 8.04518 14.4052 8.13138Z" fill="black" fill-opacity="0.85"/>
  <path d="M8.76953 6.32766C8.76953 4.72609 7.28516 3.78859 7.28516 2.59719C7.28516 1.96242 7.46094 1.60109 7.89062 1.01516C8.41797 0.302266 7.43164-0.410625 6.89453 0.282735C6.29883 1.02492 6.05469 1.69875 6.05469 2.52883C6.05469 4.19875 7.51953 5.11672 7.51953 6.32766C7.51953 7.49953 6.05469 8.45656 6.05469 10.0972C6.05469 10.9468 6.29883 11.6206 6.88477 12.3433C7.41211 13.0171 8.39844 12.314 7.87109 11.6011C7.46094 11.0445 7.28516 10.6831 7.28516 10.0288C7.28516 8.85695 8.76953 7.93898 8.76953 6.32766ZM12.6172 6.32766C12.6172 4.72609 11.1328 3.78859 11.1328 2.59719C11.1328 1.96242 11.2988 1.60109 11.7285 1.01516C12.2656 0.302266 11.2793-0.410625 10.7324 0.282735C10.1465 1.02492 9.89258 1.69875 9.89258 2.52883C9.89258 4.19875 11.3574 5.11672 11.3574 6.32766C11.3574 7.49953 9.89258 8.45656 9.89258 10.0972C9.89258 10.9468 10.1465 11.6206 10.7227 12.3433C11.25 13.0171 12.2461 12.314 11.7188 11.6011C11.2988 11.0445 11.1328 10.6831 11.1328 10.0288C11.1328 8.85695 12.6172 7.93898 12.6172 6.32766ZM16.4551 6.32766C16.4551 4.72609 14.9707 3.78859 14.9707 2.59719C14.9707 1.96242 15.1465 1.60109 15.5762 1.01516C16.1035 0.302266 15.1172-0.410625 14.5801 0.282735C13.9844 1.02492 13.7305 1.69875 13.7305 2.52883C13.7305 4.19875 15.1953 5.11672 15.1953 6.32766C15.1953 7.49953 13.7305 8.45656 13.7305 10.0972C13.7305 10.9468 13.9844 11.6206 14.5605 12.3433C15.0977 13.0171 16.084 12.314 15.5566 11.6011C15.1465 11.0445 14.9707 10.6831 14.9707 10.0288C14.9707 8.85695 16.4551 7.93898 16.4551 6.32766Z" fill="black" fill-opacity="0.85"/>
 </g>
</svg>
