<?xml version="1.0" encoding="UTF-8"?>
<!--Generator: Apple Native CoreSVG 326-->
<!DOCTYPE svg
PUBLIC "-//W3C//DTD SVG 1.1//EN"
       "http://www.w3.org/Graphics/SVG/1.1/DTD/svg11.dtd">
<svg version="1.1" xmlns="http://www.w3.org/2000/svg" xmlns:xlink="http://www.w3.org/1999/xlink" viewBox="0 0 23.3691 26.1035">
 <g>
  <rect height="26.1035" opacity="0" width="23.3691" x="0" y="0"/>
  <path d="M0 13.0469C0 13.6719 0.361328 14.1406 1.17188 14.2676C2.7832 14.4922 3.47656 15.3027 3.47656 17.4023L3.47656 21.1523C3.47656 24.5312 4.93164 26.1035 8.25195 26.1035C8.41797 26.1035 8.59375 26.0742 8.7207 26.0352C9.07227 25.9082 9.26758 25.6348 9.26758 25.2637C9.26758 24.8438 9.07227 24.6094 8.68164 24.5215C8.57422 24.502 8.4668 24.4824 8.33984 24.4727C6.17188 24.3555 5.33203 23.3984 5.33203 20.957L5.33203 16.5723C5.33203 14.4238 4.14062 13.2422 2.1875 13.0957C2.14844 13.0957 2.14844 13.0371 2.1875 13.0371C4.14062 12.8906 5.33203 11.6992 5.33203 9.55078L5.33203 5.15625C5.33203 2.71484 6.17188 1.77734 8.33984 1.65039C8.50586 1.64062 8.65234 1.62109 8.75977 1.58203C9.0918 1.48438 9.26758 1.25 9.26758 0.859375C9.26758 0.46875 9.0625 0.205078 8.68164 0.0878906C8.52539 0.0390625 8.35938 0.0195312 8.1543 0.0195312C4.92188 0.0195312 3.47656 1.61133 3.47656 4.9707L3.47656 8.73047C3.47656 10.8105 2.7832 11.6211 1.17188 11.8555C0.361328 11.9727 0 12.4316 0 13.0469ZM23.0078 13.0469C23.0078 12.4316 22.6465 11.9727 21.8457 11.8555C20.2246 11.6113 19.5312 10.8105 19.5312 8.73047L19.5312 4.9707C19.5312 1.61133 18.0859 0.0195312 14.8535 0.0195312C14.6484 0.0195312 14.4922 0.0390625 14.3359 0.0878906C13.9355 0.205078 13.7402 0.46875 13.7402 0.859375C13.7402 1.25 13.9355 1.47461 14.2578 1.58203C14.3652 1.62109 14.502 1.64062 14.668 1.65039C16.8262 1.72852 17.6758 2.71484 17.6758 5.15625L17.6758 9.55078C17.6758 11.709 18.877 13.0371 20.8203 13.0371C20.8691 13.0371 20.8691 13.0957 20.8203 13.0957C18.877 13.0957 17.6758 14.4141 17.6758 16.5723L17.6758 20.957C17.6758 23.3984 16.8359 24.3555 14.668 24.4727C14.541 24.4824 14.4434 24.502 14.3359 24.5215C13.9453 24.5898 13.7402 24.8438 13.7402 25.2637C13.7402 25.6543 13.9551 25.9375 14.2969 26.0352C14.4238 26.0742 14.5898 26.1035 14.7559 26.1035C18.0762 26.1035 19.5312 24.5312 19.5312 21.1523L19.5312 17.4023C19.5312 15.3027 20.2246 14.502 21.8457 14.2676C22.6465 14.1406 23.0078 13.6719 23.0078 13.0469Z" fill="black" fill-opacity="0.85"/>
 </g>
</svg>
