<?xml version="1.0" encoding="UTF-8"?>
<!--Generator: Apple Native CoreSVG 326-->
<!DOCTYPE svg
PUBLIC "-//W3C//DTD SVG 1.1//EN"
       "http://www.w3.org/Graphics/SVG/1.1/DTD/svg11.dtd">
<svg version="1.1" xmlns="http://www.w3.org/2000/svg" xmlns:xlink="http://www.w3.org/1999/xlink" viewBox="0 0 23.3203 22.959">
 <g>
  <rect height="22.959" opacity="0" width="23.3203" x="0" y="0"/>
  <path d="M22.959 3.76953L22.959 19.1992C22.959 21.6797 21.6797 22.959 19.1504 22.959L3.79883 22.959C1.2793 22.959 0 21.6992 0 19.1992L0 3.76953C0 1.26953 1.2793 0 3.79883 0L19.1504 0C21.6797 0 22.959 1.2793 22.959 3.76953ZM6.2793 7.37305L6.2793 9.11133C6.2793 10.0879 6.01562 10.3418 5.30273 10.5371C4.35547 10.7812 4.36523 12.1875 5.30273 12.4414C6.01562 12.6367 6.2793 12.8906 6.2793 13.8672L6.2793 15.6055C6.2793 17.5293 7.26562 18.4863 8.94531 18.4863C9.58984 18.4863 9.9707 18.1641 9.9707 17.7148C9.9707 17.2656 9.62891 16.9727 9.18945 16.9727C8.30078 16.9727 7.91016 16.5625 7.91016 15.4297L7.91016 13.5645C7.91016 12.5454 7.37103 11.77 6.49145 11.4765C7.37103 11.1916 7.91016 10.4247 7.91016 9.41406L7.91016 7.54883C7.91016 6.40625 8.30078 6.00586 9.18945 6.00586C9.62891 6.00586 9.9707 5.71289 9.9707 5.25391C9.9707 4.80469 9.58984 4.48242 8.94531 4.48242C7.26562 4.48242 6.2793 5.43945 6.2793 7.37305ZM12.998 5.25391C12.998 5.71289 13.3301 6.00586 13.7695 6.00586C14.6582 6.00586 15.0586 6.40625 15.0586 7.54883L15.0586 9.41406C15.0586 10.4247 15.5903 11.1916 16.4744 11.4765C15.5903 11.77 15.0586 12.5454 15.0586 13.5645L15.0586 15.4297C15.0586 16.5625 14.6582 16.9727 13.7695 16.9727C13.3301 16.9727 12.998 17.2656 12.998 17.7148C12.998 18.1641 13.3691 18.4863 14.0234 18.4863C15.6934 18.4863 16.6895 17.5293 16.6895 15.6055L16.6895 13.8672C16.6895 12.8906 16.9434 12.627 17.6562 12.4414C18.6035 12.1973 18.6035 10.7715 17.6562 10.5371C16.9531 10.332 16.6895 10.0879 16.6895 9.11133L16.6895 7.37305C16.6895 5.43945 15.6934 4.48242 14.0234 4.48242C13.3691 4.48242 12.998 4.80469 12.998 5.25391Z" fill="black" fill-opacity="0.85"/>
 </g>
</svg>
