<?xml version="1.0" ?><!-- Generator: Adobe Illustrator 25.0.0, SVG Export Plug-In . SVG Version: 6.00 Build 0)  --><svg xmlns="http://www.w3.org/2000/svg" xmlns:xlink="http://www.w3.org/1999/xlink" version="1.1" id="Layer_1" x="0px" y="0px" viewBox="0 0 512 512" style="enable-background:new 0 0 512 512;" xml:space="preserve">
<path d="M256,512c125.4,0,209-47.4,209-114.5v-294C465,42.3,381.4,0,256,0C130.6,0,47,42.3,47,103.5v294C47,464.6,130.6,512,256,512  z M256,170.1c-101.8,0-169.9-27.5-169.9-66.6c0-40.8,68-69.3,169.9-69.3c101.8,0,169.9,28.4,169.9,69.3  C425.9,142.6,357.8,170.1,256,170.1z M256,206.8c74.1,0,133.6-14.6,169.9-39.4V278c-40.1,26-105,43-169.9,43  c-64.9,0-129.8-17-169.9-43V167.4C122.4,192.2,181.9,206.8,256,206.8z M256,357.7c63.7,0,126.6-14.8,169.9-38.4v78.2  c0,45-68,77.8-169.9,77.8c-101.8,0-169.9-32.8-169.9-77.8v-78.2C129.4,342.9,192.1,357.7,256,357.7z"/>
</svg>