<?xml version="1.0" encoding="UTF-8"?>
<!--Generator: Apple Native CoreSVG 326-->
<!DOCTYPE svg
PUBLIC "-//W3C//DTD SVG 1.1//EN"
       "http://www.w3.org/Graphics/SVG/1.1/DTD/svg11.dtd">
<svg version="1.1" xmlns="http://www.w3.org/2000/svg" xmlns:xlink="http://www.w3.org/1999/xlink" viewBox="0 0 21.6309 26.084">
 <g>
  <rect height="26.084" opacity="0" width="21.6309" x="0" y="0"/>
  <path d="M10.6348 18.0566C14.834 18.0566 18.9844 16.7383 21.0059 14.8926L20.2051 13.5938C18.2617 15.2441 14.4336 16.4258 10.6348 16.4258C6.83594 16.4258 3.00781 15.2441 1.06445 13.5938L0.263672 14.8926C2.28516 16.7383 6.43555 18.0566 10.6348 18.0566ZM10.6348 26.0645C17.0117 26.0645 21.2695 23.6523 21.2695 20.4395L21.2695 5.08789L19.5312 5.08789L19.5312 20.4395C19.5312 22.6758 15.9766 24.4336 10.6348 24.4336C5.29297 24.4336 1.72852 22.6758 1.72852 20.4395L1.72852 5.08789L0 5.08789L0 20.4395C0 23.6523 4.25781 26.0645 10.6348 26.0645ZM10.6348 10.1758C17.0117 10.1758 21.2695 8.06641 21.2695 5.08789C21.2695 2.10938 17.0117 0 10.6348 0C4.25781 0 0 2.10938 0 5.08789C0 8.06641 4.25781 10.1758 10.6348 10.1758ZM10.6348 8.54492C5.29297 8.54492 1.72852 7.08984 1.72852 5.08789C1.72852 3.02734 5.29297 1.5332 10.6348 1.5332C15.9766 1.5332 19.5312 3.02734 19.5312 5.08789C19.5312 7.08984 15.9766 8.54492 10.6348 8.54492Z" fill="black" fill-opacity="0.85"/>
 </g>
</svg>
