<?xml version="1.0" encoding="UTF-8"?>
<!--Generator: Apple Native CoreSVG 326-->
<!DOCTYPE svg
PUBLIC "-//W3C//DTD SVG 1.1//EN"
       "http://www.w3.org/Graphics/SVG/1.1/DTD/svg11.dtd">
<svg version="1.1" xmlns="http://www.w3.org/2000/svg" xmlns:xlink="http://www.w3.org/1999/xlink" viewBox="0 0 25.8008 25.459">
 <g>
  <rect height="25.459" opacity="0" width="25.8008" x="0" y="0"/>
  <path d="M25.4395 12.7246C25.4395 19.7266 19.7266 25.4395 12.7148 25.4395C5.71289 25.4395 0 19.7266 0 12.7246C0 5.71289 5.71289 0 12.7148 0C19.7266 0 25.4395 5.71289 25.4395 12.7246ZM9.26758 6.79688C8.70117 6.79688 8.39844 7.19727 8.39844 7.79297L8.39844 17.4707C8.39844 18.0762 8.70117 18.4766 9.26758 18.4766L12.5977 18.4766C16.1621 18.4766 18.2227 16.3867 18.2227 12.5977C18.2227 8.89648 16.1914 6.79688 12.5977 6.79688ZM16.416 12.627C16.416 15.5762 14.9707 17.0703 12.3926 17.0703L10.1367 17.0703L10.1367 8.19336L12.3926 8.19336C14.9512 8.19336 16.416 9.77539 16.416 12.627Z" fill="black" fill-opacity="0.85"/>
 </g>
</svg>
