<?xml version="1.0" ?><!-- Generator: Adobe Illustrator 25.0.0, SVG Export Plug-In . SVG Version: 6.00 Build 0)  --><svg xmlns="http://www.w3.org/2000/svg" xmlns:xlink="http://www.w3.org/1999/xlink" version="1.1" id="Layer_1" x="0px" y="0px" viewBox="0 0 512 512" style="enable-background:new 0 0 512 512;" xml:space="preserve">
<path d="M256,512c140,0,256-116.2,256-256C512,116,395.8,0,255.7,0C116,0,0,116,0,256C0,395.8,116.2,512,256,512z M188,371.5  c-13.3,0-20.3-9.3-20.3-23.3v-189c0-14.1,7-23.3,20.3-23.3h66c74.3,0,115.2,41.7,115.2,117.2c0,76.5-41.7,118.5-115.2,118.5H188z   M207.8,339.3h41.7c50.7,0,78.1-28.6,78.1-85.6c0-55.7-27.6-85.8-78.1-85.8h-41.7V339.3z"/>
</svg>