<?xml version="1.0" encoding="UTF-8"?>
<!--Generator: Apple Native CoreSVG 326-->
<!DOCTYPE svg
PUBLIC "-//W3C//DTD SVG 1.1//EN"
       "http://www.w3.org/Graphics/SVG/1.1/DTD/svg11.dtd">
<svg version="1.1" xmlns="http://www.w3.org/2000/svg" xmlns:xlink="http://www.w3.org/1999/xlink" viewBox="0 0 28.291 27.9395">
 <g>
  <rect height="27.9395" opacity="0" width="28.291" x="0" y="0"/>
  <path d="M13.9648 27.9297C21.6406 27.9297 27.9297 21.6504 27.9297 13.9648C27.9297 6.2793 21.6406 0 13.9648 0C6.28906 0 0 6.2793 0 13.9648C0 21.6504 6.28906 27.9297 13.9648 27.9297ZM13.9648 23.3398C8.7793 23.3398 4.58008 19.1504 4.58008 13.9648C4.58008 8.7793 8.7793 4.58008 13.9648 4.58008C19.1504 4.58008 23.3496 8.7793 23.3496 13.9648C23.3496 19.1504 19.1504 23.3398 13.9648 23.3398Z" fill="black" fill-opacity="0.85"/>
  <path d="M9.27734 19.1895C9.63867 19.1895 9.89258 18.9258 9.89258 18.5449L9.89258 16.2402L10.6641 15.4785L13.0859 18.8867C13.2227 19.0723 13.3984 19.1895 13.6328 19.1895C13.9551 19.1895 14.2188 18.9648 14.2188 18.6426C14.2188 18.4961 14.1504 18.3496 14.043 18.2129L11.5332 14.7168L13.8965 12.207C14.0332 12.0508 14.1113 11.9629 14.1113 11.7676C14.1113 11.4844 13.8672 11.2402 13.5645 11.2402C13.3887 11.2402 13.2031 11.3379 13.0859 11.4648L9.93164 14.9414L9.89258 14.9414L9.89258 8.87695C9.89258 8.48633 9.63867 8.21289 9.27734 8.21289C8.91602 8.21289 8.66211 8.47656 8.66211 8.86719L8.66211 18.5449C8.66211 18.9258 8.91602 19.1895 9.27734 19.1895ZM16.2891 19.1895C16.5723 19.1895 16.875 19.0137 16.875 18.5449L16.875 14.4336C16.875 13.5059 17.2363 12.4121 18.3594 12.4121C18.5938 12.4121 18.8281 12.4023 19.0039 12.3145C19.1699 12.2461 19.2676 12.0996 19.2676 11.8848C19.2676 11.4551 18.9062 11.2402 18.4766 11.2402C17.6465 11.2402 17.0898 11.9434 16.9043 12.7734L16.8262 12.7734L16.8262 11.8555C16.8262 11.5039 16.582 11.2402 16.2695 11.2402C15.9375 11.2402 15.7031 11.5039 15.7031 11.8555L15.7031 18.5449C15.7031 18.9355 15.9082 19.1895 16.2891 19.1895ZM19.7461 19.0723C20.2246 19.0723 20.5762 18.7305 20.5762 18.2617C20.5762 17.7832 20.2246 17.4316 19.7461 17.4316C19.2676 17.4316 18.9258 17.7832 18.9258 18.2617C18.9258 18.7305 19.2676 19.0723 19.7461 19.0723Z" fill="black" fill-opacity="0.85"/>
 </g>
</svg>
