<?xml version="1.0" encoding="UTF-8"?>
<!--Generator: Apple Native CoreSVG 326-->
<!DOCTYPE svg
PUBLIC "-//W3C//DTD SVG 1.1//EN"
       "http://www.w3.org/Graphics/SVG/1.1/DTD/svg11.dtd">
<svg version="1.1" xmlns="http://www.w3.org/2000/svg" xmlns:xlink="http://www.w3.org/1999/xlink" viewBox="0 0 30.6563 25.459">
 <g>
  <rect height="25.459" opacity="0" width="30.6563" x="0" y="0"/>
  <path d="M15.1475 25.4395C22.169 25.4395 27.8623 19.7461 27.8623 12.7246C27.8623 5.70312 22.169 0 15.1475 0C8.12599 0 2.43263 5.70312 2.43263 12.7246L4.24904 12.7246C4.24904 6.69922 9.12208 1.82617 15.1475 1.82617C21.1729 1.82617 26.0459 6.69922 26.0459 12.7246C26.0459 18.75 21.1729 23.623 15.1475 23.623C11.417 23.623 8.08693 21.7285 6.18263 18.877C5.86037 18.4375 5.35255 18.3008 4.90333 18.5742C4.47365 18.8281 4.34669 19.4238 4.69826 19.9023C6.97365 23.252 10.8213 25.4395 15.1475 25.4395ZM0.801772 10.3613C0.000990731 10.3613-0.223619 10.9082 0.235366 11.543L3.0088 15.4883C3.3799 16.0254 3.91701 16.0156 4.27833 15.4883L7.05177 11.5332C7.49123 10.9082 7.27638 10.3613 6.48537 10.3613Z" fill="black" fill-opacity="0.85"/>
  <path d="M10.4697 17.9492C10.8311 17.9492 11.0752 17.6855 11.0752 17.3047L11.0752 15L11.8467 14.2383L14.2783 17.6465C14.4053 17.832 14.5811 17.9492 14.8154 17.9492C15.1475 17.9492 15.4014 17.7246 15.4014 17.4023C15.4014 17.2559 15.333 17.1094 15.2354 16.9727L12.7256 13.4766L15.0791 10.9668C15.2256 10.8105 15.294 10.7227 15.294 10.5273C15.294 10.2441 15.0596 10 14.7471 10C14.5811 10 14.3858 10.0977 14.2783 10.2246L11.1143 13.7012L11.0752 13.7012L11.0752 7.63672C11.0752 7.24609 10.8311 6.97266 10.4697 6.97266C10.1084 6.97266 9.84474 7.23633 9.84474 7.62695L9.84474 17.3047C9.84474 17.6855 10.1084 17.9492 10.4697 17.9492ZM17.4717 17.9492C17.7549 17.9492 18.0576 17.7734 18.0576 17.3047L18.0576 13.1934C18.0576 12.2656 18.419 11.1719 19.542 11.1719C19.7764 11.1719 20.0108 11.1621 20.1865 11.0742C20.3623 11.0059 20.4502 10.8594 20.4502 10.6445C20.4502 10.2148 20.0889 10 19.6592 10C18.8291 10 18.2822 10.7031 18.0869 11.5332L18.0088 11.5332L18.0088 10.6152C18.0088 10.2637 17.7647 10 17.4522 10C17.1299 10 16.8858 10.2637 16.8858 10.6152L16.8858 17.3047C16.8858 17.6953 17.0908 17.9492 17.4717 17.9492ZM20.9287 17.832C21.417 17.832 21.7588 17.4902 21.7588 17.0215C21.7588 16.543 21.417 16.1914 20.9287 16.1914C20.4502 16.1914 20.1084 16.543 20.1084 17.0215C20.1084 17.4902 20.4502 17.832 20.9287 17.832Z" fill="black" fill-opacity="0.85"/>
 </g>
</svg>
