<?xml version="1.0" encoding="UTF-8"?>
<!--Generator: Apple Native CoreSVG 326-->
<!DOCTYPE svg
PUBLIC "-//W3C//DTD SVG 1.1//EN"
       "http://www.w3.org/Graphics/SVG/1.1/DTD/svg11.dtd">
<svg version="1.1" xmlns="http://www.w3.org/2000/svg" xmlns:xlink="http://www.w3.org/1999/xlink" viewBox="0 0 27.9395 26.5527">
 <g>
  <rect height="26.5527" opacity="0" width="27.9395" x="0" y="0"/>
  <path d="M15.2637 0.419922L26.0547 6.65039C26.4453 6.875 26.6211 7.1582 26.6211 7.48047C26.6211 7.91992 26.2891 8.33984 25.6934 8.33984L24.5605 8.33984L24.5605 23.252L25.3613 23.252C25.791 23.252 26.0449 23.5059 26.0449 23.9258L26.0449 24.8047L26.709 24.8047C27.1875 24.8047 27.5781 25.1953 27.5781 25.6738C27.5781 26.1426 27.1875 26.5332 26.709 26.5332L0.869141 26.5332C0.390625 26.5332 0 26.1426 0 25.6738C0 25.1953 0.390625 24.8047 0.869141 24.8047L1.5332 24.8047L1.5332 23.9258C1.5332 23.5059 1.78711 23.252 2.22656 23.252L3.02734 23.252L3.02734 8.33984L1.88477 8.33984C1.28906 8.33984 0.957031 7.91992 0.957031 7.48047C0.957031 7.1582 1.12305 6.875 1.52344 6.65039L12.3145 0.419922C12.7832 0.146484 13.3008 0 13.7891 0C14.2773 0 14.7852 0.146484 15.2637 0.419922ZM8.7207 9.43359L8.7207 18.7207C8.7207 19.1016 8.96484 19.3555 9.31641 19.3555C9.66797 19.3555 9.91211 19.1016 9.91211 18.7207L9.91211 16.5332L10.6445 15.791L12.9785 19.0527C13.1055 19.2383 13.2812 19.3555 13.4961 19.3555C13.8184 19.3555 14.0625 19.1309 14.0625 18.8281C14.0625 18.6816 14.0039 18.5449 13.9062 18.4082L11.4941 15.0488L13.75 12.6465C13.8965 12.5 13.9648 12.4121 13.9648 12.2266C13.9648 11.9531 13.7305 11.709 13.4277 11.709C13.2715 11.709 13.0859 11.8066 12.9785 11.9336L9.95117 15.2539L9.91211 15.2539L9.91211 9.44336C9.91211 9.0625 9.66797 8.80859 9.31641 8.80859C8.96484 8.80859 8.7207 9.05273 8.7207 9.43359ZM16.6504 13.1934L16.5723 13.1934L16.5723 12.3047C16.5723 11.9629 16.3477 11.709 16.0449 11.709C15.7227 11.709 15.4883 11.9629 15.4883 12.3047L15.4883 18.7207C15.4883 19.1113 15.6934 19.3555 16.0645 19.3555C16.3281 19.3555 16.6211 19.1895 16.6211 18.7207L16.6211 14.7852C16.6211 13.8867 16.9727 12.8516 18.0469 12.8516C18.2812 12.8516 18.4961 12.832 18.6816 12.7441C18.8379 12.6758 18.9258 12.5293 18.9258 12.334C18.9258 11.9238 18.584 11.709 18.1641 11.709C17.3633 11.709 16.8359 12.3828 16.6504 13.1934ZM18.584 18.4473C18.584 18.9062 18.916 19.2383 19.3848 19.2383C19.8438 19.2383 20.1758 18.9062 20.1758 18.4473C20.1758 17.9883 19.8438 17.6562 19.3848 17.6562C18.916 17.6562 18.584 17.9883 18.584 18.4473Z" fill="black" fill-opacity="0.85"/>
 </g>
</svg>
