<?xml version="1.0" encoding="UTF-8"?>
<!--Generator: Apple Native CoreSVG 326-->
<!DOCTYPE svg
PUBLIC "-//W3C//DTD SVG 1.1//EN"
       "http://www.w3.org/Graphics/SVG/1.1/DTD/svg11.dtd">
<svg version="1.1" xmlns="http://www.w3.org/2000/svg" xmlns:xlink="http://www.w3.org/1999/xlink" viewBox="0 0 25.8008 25.459">
 <g>
  <rect height="25.459" opacity="0" width="25.8008" x="0" y="0"/>
  <path d="M25.4395 12.7246C25.4395 19.7266 19.7266 25.4395 12.7148 25.4395C5.71289 25.4395 0 19.7266 0 12.7246C0 5.71289 5.71289 0 12.7148 0C19.7266 0 25.4395 5.71289 25.4395 12.7246ZM7.27539 7.50977L7.27539 17.4023C7.27539 17.8125 7.5293 18.0762 7.91016 18.0762C8.28125 18.0762 8.54492 17.8125 8.54492 17.4023L8.54492 15.0586L9.32617 14.2773L11.8164 17.7539C11.9434 17.9492 12.1289 18.0762 12.3633 18.0762C12.7148 18.0762 12.9688 17.8418 12.9688 17.5195C12.9688 17.3535 12.9004 17.2168 12.8027 17.0605L10.2246 13.4863L12.6367 10.9277C12.793 10.7715 12.8613 10.6738 12.8613 10.4785C12.8613 10.1855 12.6172 9.92188 12.2949 9.92188C12.1289 9.92188 11.9238 10.0293 11.8164 10.166L8.58398 13.7109L8.54492 13.7109L8.54492 7.51953C8.54492 7.10938 8.28125 6.83594 7.91016 6.83594C7.5293 6.83594 7.27539 7.09961 7.27539 7.50977ZM15.7227 11.5039L15.6445 11.5039L15.6445 10.5664C15.6445 10.2051 15.4004 9.92188 15.0781 9.92188C14.7363 9.92188 14.4922 10.2051 14.4922 10.5664L14.4922 17.4023C14.4922 17.8125 14.707 18.0762 15.1074 18.0762C15.3809 18.0762 15.6934 17.8906 15.6934 17.4023L15.6934 13.2031C15.6934 12.2559 16.0742 11.1426 17.2168 11.1426C17.4707 11.1426 17.6953 11.1328 17.8906 11.0352C18.0566 10.957 18.1543 10.8105 18.1543 10.5957C18.1543 10.1562 17.7832 9.92188 17.334 9.92188C16.4844 9.92188 15.9277 10.6543 15.7227 11.5039ZM17.7832 17.1094C17.7832 17.5977 18.1445 17.9492 18.6426 17.9492C19.1309 17.9492 19.4824 17.5977 19.4824 17.1094C19.4824 16.6211 19.1309 16.2598 18.6426 16.2598C18.1445 16.2598 17.7832 16.6211 17.7832 17.1094Z" fill="black" fill-opacity="0.85"/>
 </g>
</svg>
