<?xml version="1.0" encoding="UTF-8"?>
<!--Generator: Apple Native CoreSVG 326-->
<!DOCTYPE svg
PUBLIC "-//W3C//DTD SVG 1.1//EN"
       "http://www.w3.org/Graphics/SVG/1.1/DTD/svg11.dtd">
<svg version="1.1" xmlns="http://www.w3.org/2000/svg" xmlns:xlink="http://www.w3.org/1999/xlink" viewBox="0 0 25.8008 25.459">
 <g>
  <rect height="25.459" opacity="0" width="25.8008" x="0" y="0"/>
  <path d="M12.7148 25.4395C19.7363 25.4395 25.4395 19.7461 25.4395 12.7246C25.4395 5.70312 19.7363 0 12.7148 0C5.69336 0 0 5.70312 0 12.7246C0 19.7461 5.69336 25.4395 12.7148 25.4395ZM12.7148 23.623C6.68945 23.623 1.81641 18.75 1.81641 12.7246C1.81641 6.69922 6.68945 1.82617 12.7148 1.82617C18.7402 1.82617 23.6133 6.69922 23.6133 12.7246C23.6133 18.75 18.7402 23.623 12.7148 23.623Z" fill="black" fill-opacity="0.85"/>
  <path d="M8.02734 17.9492C8.38867 17.9492 8.63281 17.6855 8.63281 17.3047L8.63281 15L9.4043 14.2383L11.8359 17.6465C11.9629 17.832 12.1387 17.9492 12.373 17.9492C12.7051 17.9492 12.959 17.7246 12.959 17.4023C12.959 17.2559 12.8906 17.1094 12.793 16.9727L10.2832 13.4766L12.6367 10.9668C12.7832 10.8105 12.8516 10.7227 12.8516 10.5273C12.8516 10.2441 12.6172 10 12.3047 10C12.1387 10 11.9434 10.0977 11.8359 10.2246L8.67188 13.7012L8.63281 13.7012L8.63281 7.63672C8.63281 7.24609 8.38867 6.97266 8.02734 6.97266C7.66602 6.97266 7.40234 7.23633 7.40234 7.62695L7.40234 17.3047C7.40234 17.6855 7.66602 17.9492 8.02734 17.9492ZM15.0293 17.9492C15.3125 17.9492 15.6152 17.7734 15.6152 17.3047L15.6152 13.1934C15.6152 12.2656 15.9766 11.1719 17.0996 11.1719C17.334 11.1719 17.5684 11.1621 17.7441 11.0742C17.9199 11.0059 18.0078 10.8594 18.0078 10.6445C18.0078 10.2148 17.6465 10 17.2168 10C16.3867 10 15.8398 10.7031 15.6445 11.5332L15.5664 11.5332L15.5664 10.6152C15.5664 10.2637 15.3223 10 15.0098 10C14.6875 10 14.4434 10.2637 14.4434 10.6152L14.4434 17.3047C14.4434 17.6953 14.6484 17.9492 15.0293 17.9492ZM18.4863 17.832C18.9746 17.832 19.3164 17.4902 19.3164 17.0215C19.3164 16.543 18.9746 16.1914 18.4863 16.1914C18.0078 16.1914 17.666 16.543 17.666 17.0215C17.666 17.4902 18.0078 17.832 18.4863 17.832Z" fill="black" fill-opacity="0.85"/>
 </g>
</svg>
