<?xml version="1.0" encoding="UTF-8"?>
<!--Generator: Apple Native CoreSVG 326-->
<!DOCTYPE svg
PUBLIC "-//W3C//DTD SVG 1.1//EN"
       "http://www.w3.org/Graphics/SVG/1.1/DTD/svg11.dtd">
<svg version="1.1" xmlns="http://www.w3.org/2000/svg" xmlns:xlink="http://www.w3.org/1999/xlink" viewBox="0 0 30.3809 25.0293">
 <g>
  <rect height="25.0293" opacity="0" width="30.3809" x="0" y="0"/>
  <path d="M30.0195 15.0098C30.0195 11.3281 28.6914 7.95898 26.4844 5.3418C26.2305 5.03906 25.8008 5.04883 25.5176 5.33203L22.6953 8.1543C22.4512 8.39844 22.4414 8.74023 22.6562 9.01367C23.9551 10.6738 24.7266 12.7441 24.7266 15.0098C24.7266 17.2754 23.9551 19.3555 22.5977 21.0742C22.4121 21.3086 22.4219 21.6016 22.627 21.8066L25.5176 24.707C25.8008 25 26.2207 24.9902 26.4844 24.6875C28.6914 22.0703 30.0195 18.6816 30.0195 15.0098Z" fill="black" fill-opacity="0.85"/>
  <path d="M15.0098 5.2832C17.2754 5.2832 19.3652 6.06445 21.0254 7.38281C21.2891 7.57812 21.6113 7.55859 21.8555 7.31445L24.6875 4.48242C24.9805 4.19922 24.9707 3.7793 24.668 3.51562C22.0605 1.32812 18.6816 0 15.0098 0C11.3379 0 7.95898 1.32812 5.35156 3.51562C5.04883 3.7793 5.03906 4.19922 5.32227 4.48242L8.16406 7.31445C8.39844 7.55859 8.75 7.56836 9.02344 7.35352C10.6738 6.06445 12.7539 5.2832 15.0098 5.2832Z" fill="black" fill-opacity="0.85"/>
  <path d="M0 15.0098C0 18.6816 1.32812 22.0703 3.53516 24.6875C3.78906 24.9902 4.21875 25 4.50195 24.707L7.39258 21.8066C7.58789 21.6016 7.60742 21.3086 7.42188 21.0742C6.06445 19.3555 5.2832 17.2754 5.2832 15.0098C5.2832 12.7441 6.05469 10.6738 7.36328 9.01367C7.56836 8.74023 7.56836 8.39844 7.32422 8.1543L4.49219 5.33203C4.20898 5.04883 3.78906 5.03906 3.52539 5.3418C1.31836 7.95898 0 11.3281 0 15.0098Z" fill="black" fill-opacity="0.85"/>
  <path d="M10.3125 20.4004C10.6738 20.4004 10.918 20.1367 10.918 19.7559L10.918 17.4512L11.6895 16.6895L14.1211 20.0977C14.2578 20.2832 14.4336 20.4004 14.668 20.4004C14.9902 20.4004 15.2441 20.166 15.2441 19.8535C15.2441 19.6973 15.1855 19.5605 15.0781 19.4238L12.5684 15.9277L14.9219 13.418C15.0684 13.2617 15.1367 13.1738 15.1367 12.9785C15.1367 12.6953 14.9023 12.4414 14.5996 12.4414C14.4238 12.4414 14.2383 12.5488 14.1211 12.6758L10.9668 16.1426L10.918 16.1426L10.918 10.0879C10.918 9.69727 10.6738 9.42383 10.3125 9.42383C9.95117 9.42383 9.69727 9.6875 9.69727 10.0781L9.69727 19.7559C9.69727 20.1367 9.95117 20.4004 10.3125 20.4004ZM17.3242 20.4004C17.6074 20.4004 17.9102 20.2246 17.9102 19.7559L17.9102 15.6445C17.9102 14.707 18.2715 13.623 19.3848 13.623C19.6289 13.623 19.8535 13.6035 20.0391 13.5156C20.2051 13.4473 20.3027 13.3008 20.3027 13.0957C20.3027 12.666 19.9414 12.4414 19.5117 12.4414C18.6816 12.4414 18.125 13.1445 17.9395 13.9844L17.8516 13.9844L17.8516 13.0664C17.8516 12.7148 17.6172 12.4414 17.2949 12.4414C16.9727 12.4414 16.7285 12.7148 16.7285 13.0664L16.7285 19.7559C16.7285 20.1465 16.9434 20.4004 17.3242 20.4004ZM20.7812 20.2734C21.2598 20.2734 21.6113 19.9414 21.6113 19.4629C21.6113 18.9844 21.2598 18.6426 20.7812 18.6426C20.3027 18.6426 19.9512 18.9844 19.9512 19.4629C19.9512 19.9414 20.3027 20.2734 20.7812 20.2734Z" fill="black" fill-opacity="0.85"/>
 </g>
</svg>
