<?xml version="1.0" encoding="UTF-8"?>
<!--Generator: Apple Native CoreSVG 326-->
<!DOCTYPE svg
PUBLIC "-//W3C//DTD SVG 1.1//EN"
       "http://www.w3.org/Graphics/SVG/1.1/DTD/svg11.dtd">
<svg version="1.1" xmlns="http://www.w3.org/2000/svg" xmlns:xlink="http://www.w3.org/1999/xlink" viewBox="0 0 26.8555 34.2871">
 <g>
  <rect height="34.2871" opacity="0" width="26.8555" x="0" y="0"/>
  <path d="M16.729 4.50195L7.72461 4.50195C6.49414 4.50195 5.75195 5.22461 5.75195 6.50391L5.75195 25.6445C5.75195 26.9238 6.49414 27.6465 7.72461 27.6465L18.7695 27.6465C20 27.6465 20.7422 26.9238 20.7422 25.6445L20.7422 16.4547C20.7453 16.4551 20.7486 16.4551 20.752 16.4551C21.358 16.4551 21.9344 16.3842 22.4707 16.244L22.4707 25.7324C22.4707 27.7217 21.5858 28.9283 19.8926 29.2692L19.8926 30.625C19.8926 31.1328 19.541 31.4844 19.0332 31.4844C18.5156 31.4844 18.1641 31.1328 18.1641 30.625L18.1641 29.375L8.33008 29.375L8.33008 30.625C8.33008 31.1328 7.96875 31.4844 7.46094 31.4844C6.94336 31.4844 6.5918 31.1328 6.5918 30.625L6.5918 29.2675C4.9022 28.924 4.01367 27.7182 4.01367 25.7324L4.01367 6.41602C4.01367 4.0332 5.3125 2.77344 7.69531 2.77344L17.7355 2.77344C17.3897 3.34059 17.0475 3.92591 16.729 4.50195ZM12.4512 25.0488C12.4512 25.459 12.1387 25.7715 11.7188 25.7715L7.97852 25.7715C7.56836 25.7715 7.24609 25.459 7.24609 25.0488C7.24609 24.6289 7.56836 24.3164 7.97852 24.3164L11.7188 24.3164C12.1387 24.3164 12.4512 24.6289 12.4512 25.0488ZM19.248 25.0488C19.248 25.459 18.9258 25.7715 18.5156 25.7715L14.7656 25.7715C14.3555 25.7715 14.043 25.459 14.043 25.0488C14.043 24.6289 14.3555 24.3164 14.7656 24.3164L18.5156 24.3164C18.9258 24.3164 19.248 24.6289 19.248 25.0488ZM12.4512 21.9531C12.4512 22.3633 12.1387 22.6855 11.7188 22.6855L7.97852 22.6855C7.56836 22.6855 7.24609 22.3633 7.24609 21.9531C7.24609 21.543 7.56836 21.2207 7.97852 21.2207L11.7188 21.2207C12.1387 21.2207 12.4512 21.543 12.4512 21.9531ZM19.248 21.9531C19.248 22.3633 18.9258 22.6855 18.5156 22.6855L14.7656 22.6855C14.3555 22.6855 14.043 22.3633 14.043 21.9531C14.043 21.543 14.3555 21.2207 14.7656 21.2207L18.5156 21.2207C18.9258 21.2207 19.248 21.543 19.248 21.9531ZM12.4512 18.8574C12.4512 19.2676 12.1387 19.5898 11.7188 19.5898L7.97852 19.5898C7.56836 19.5898 7.24609 19.2676 7.24609 18.8574C7.24609 18.4473 7.56836 18.125 7.97852 18.125L11.7188 18.125C12.1387 18.125 12.4512 18.4473 12.4512 18.8574ZM19.248 18.8574C19.248 19.2676 18.9258 19.5898 18.5156 19.5898L14.7656 19.5898C14.3555 19.5898 14.043 19.2676 14.043 18.8574C14.043 18.4473 14.3555 18.125 14.7656 18.125L18.5156 18.125C18.9258 18.125 19.248 18.4473 19.248 18.8574ZM10.8008 7.95898C10.8008 8.90625 10.0293 9.67773 9.0918 9.67773C8.14453 9.67773 7.37305 8.90625 7.37305 7.95898C7.37305 7.02148 8.14453 6.25 9.0918 6.25C10.0293 6.25 10.8008 7.02148 10.8008 7.95898Z" fill="black" fill-opacity="0.85"/>
  <path d="M20.752 14.8926C23.4766 14.8926 25.3027 13.125 25.3027 10.4785C25.3027 9.20898 24.7656 8.00781 24.3164 7.01172C23.584 5.44922 22.4414 3.55469 21.416 1.98242C21.2207 1.68945 21.0156 1.55273 20.752 1.55273C20.4785 1.55273 20.2734 1.68945 20.0781 1.98242C19.043 3.55469 17.9102 5.44922 17.1777 7.01172C16.7285 8.00781 16.1914 9.20898 16.1914 10.4785C16.1914 13.125 18.0176 14.8926 20.752 14.8926Z" fill="black" fill-opacity="0.85"/>
 </g>
</svg>
