<?xml version="1.0" ?><!-- Generator: Adobe Illustrator 25.0.0, SVG Export Plug-In . SVG Version: 6.00 Build 0)  --><svg xmlns="http://www.w3.org/2000/svg" xmlns:xlink="http://www.w3.org/1999/xlink" version="1.1" id="Layer_1" x="0px" y="0px" viewBox="0 0 512 512" style="enable-background:new 0 0 512 512;" xml:space="preserve">
<path d="M437.8,473.5c49.4,0,74.2-24.3,74.2-73.2V111.8c0-48.9-24.8-73.2-74.2-73.2H232.5c-27.6,0-51.5,7.1-70.9,27.6L22.4,210.8  C7.1,226.6,0,240.8,0,255.6c0,14.6,6.9,29.1,22.4,44.9l139.4,143.9c19.6,20.3,43.2,28.8,70.9,28.8L437.8,473.5z M216.2,358.9  c-10.6,0-19.4-9-19.4-19.8c0-5.2,1.9-10.2,5.7-13.7l69.2-69.2l-69.2-69.2c-3.8-3.8-5.7-8.5-5.7-13.7c0-11.1,8.7-19.4,19.4-19.4  c5.4,0,9.9,1.7,13.5,5.4l69.7,69.5l69.9-69.7c4-4,8.5-5.7,13.7-5.7c10.6,0,19.4,8.5,19.4,19.4c0,5.4-1.9,9.7-5.7,13.9l-69.5,69.5  l69.2,69c3.5,3.8,5.7,8.5,5.7,13.9c0,10.9-8.7,19.8-19.6,19.8c-5.4,0-10.4-2.4-14.2-5.9l-69-69.5l-69,69.5  C226.6,356.8,221.6,358.9,216.2,358.9z"/>
</svg>