<?xml version="1.0" ?><!-- Generator: Adobe Illustrator 25.0.0, SVG Export Plug-In . SVG Version: 6.00 Build 0)  --><svg xmlns="http://www.w3.org/2000/svg" xmlns:xlink="http://www.w3.org/1999/xlink" version="1.1" id="Layer_1" x="0px" y="0px" viewBox="0 0 512 512" style="enable-background:new 0 0 512 512;" xml:space="preserve">
<path d="M437.8,473.5c49.4,0,74.2-24.3,74.2-73.2V111.8c0-48.9-24.8-73.2-74.2-73.2H232.5c-27.6,0-51.5,7.1-70.9,27.6L22.4,210.8  C7.1,226.6,0,240.8,0,255.6c0,14.6,6.9,29.1,22.4,44.9l139.4,143.9c19.6,20.3,43.2,28.8,70.9,28.8L437.8,473.5z M437.3,435.4H232  c-18,0-29.1-4.3-41.6-17L52,275.5c-8-8.3-10.4-13.9-10.4-19.8c0-6.1,2.6-11.8,10.4-20.1L190.2,92.1c12.3-12.5,23.9-15.6,41.6-15.6  h205.6c23.6,0,36.6,12.5,36.6,37.1v284.7C474,422.9,461,435.4,437.3,435.4z M218.8,355.8c5.2,0,9.9-2.1,13.5-5.9l67.1-67.3  l67.1,67.3c3.5,3.5,8.3,5.9,13.7,5.9c10.4,0,18.9-8.7,18.9-19.1c0-5.4-2.1-9.9-5.7-13.5l-67.1-67.1l67.3-67.6c3.8-4,5.7-8,5.7-13.2  c0-10.6-8.5-18.9-18.9-18.9c-5,0-9.2,1.7-13.2,5.7l-67.8,67.6l-67.6-67.3c-3.5-3.8-7.8-5.4-13-5.4c-10.4,0-18.9,8-18.9,18.7  c0,5.2,1.9,9.7,5.7,13.2l67.1,67.3l-67.1,67.3c-3.8,3.3-5.7,8-5.7,13.2C199.9,347.1,208.4,355.8,218.8,355.8z"/>
</svg>