<?xml version="1.0" ?><!-- Generator: Adobe Illustrator 25.0.0, SVG Export Plug-In . SVG Version: 6.00 Build 0)  --><svg xmlns="http://www.w3.org/2000/svg" xmlns:xlink="http://www.w3.org/1999/xlink" version="1.1" id="Layer_1" x="0px" y="0px" viewBox="0 0 512 512" style="enable-background:new 0 0 512 512;" xml:space="preserve">
<path d="M74.2,473.5l205.1-0.2c27.6,0,51.5-8.5,70.9-28.8l139.4-143.9c15.6-15.8,22.4-30.2,22.4-44.9c0-14.9-6.9-29.1-22.4-44.9  L350.4,66.2c-19.4-20.6-43.2-27.6-70.9-27.6H74.2C25,38.5,0,62.8,0,111.8v288.5C0,449.2,25,473.5,74.2,473.5z M74.9,435.4  c-23.6,0-36.9-12.5-36.9-37.1V113.6c0-24.6,13.2-37.1,36.9-37.1h205.3c17.7,0,29.5,3.1,41.6,15.6L460,235.6  c7.8,8.3,10.6,13.9,10.6,20.1c0,5.9-2.6,11.6-10.6,19.8L321.6,418.4c-12.3,12.8-23.6,17-41.6,17H74.9z M132.3,355.8  c5.4,0,10.2-2.1,13.7-5.9l66.9-67.3l67.3,67.3c3.5,3.5,8,5.9,13.5,5.9c10.6,0,18.9-8.7,18.9-19.1c0-5.4-1.9-9.9-5.7-13.5l-67.1-67.1  l67.3-67.6c4-4,5.7-8,5.7-13.2c0-10.6-8.3-18.9-18.9-18.9c-5,0-9,1.7-13,5.7l-68,67.6l-67.3-67.3c-3.5-3.8-7.8-5.4-13.2-5.4  c-10.4,0-18.9,8-18.9,18.7c0,5.2,2.1,9.7,5.7,13.2l67.1,67.3l-67.1,67.3c-3.5,3.3-5.7,8-5.7,13.2  C113.4,347.1,121.9,355.8,132.3,355.8z"/>
</svg>