<?xml version="1.0" ?><!-- Generator: Adobe Illustrator 25.0.0, SVG Export Plug-In . SVG Version: 6.00 Build 0)  --><svg xmlns="http://www.w3.org/2000/svg" xmlns:xlink="http://www.w3.org/1999/xlink" version="1.1" id="Layer_1" x="0px" y="0px" viewBox="0 0 512 512" style="enable-background:new 0 0 512 512;" xml:space="preserve">
<path d="M55.2,396.1h134.4l-6.2,41.4h-24.3c-9.4,0-17.2,7.9-17.2,17.6c0,9.4,7.7,17.2,17.2,17.2h193.5c9.7,0,17.4-7.7,17.4-17.2  c0-9.7-7.7-17.6-17.4-17.6h-24.3l-6-41.4h134.4c36.7,0,55.2-17.6,55.2-55.2V94.8c0-37.6-18.5-55.2-55.2-55.2H55.2  C18.5,39.6,0,57.2,0,94.8v246.1C0,378.5,18.5,396.1,55.2,396.1z M43.8,301.6c-6.4,0-9.2-2.6-9.2-9.2V95.5c0-15.2,6.4-21.3,21.3-21.3  h400.3c14.6,0,21.3,6,21.3,21.3v196.9c0,6.7-3,9.2-9.4,9.2H43.8z M256,374.9c-11,0-20-9-20-20c0-10.5,9-19.8,20-19.8  c10.7,0,19.8,9.2,19.8,19.8C275.8,365.9,266.7,374.9,256,374.9z"/>
</svg>