<?xml version="1.0" ?><!-- Generator: Adobe Illustrator 25.0.0, SVG Export Plug-In . SVG Version: 6.00 Build 0)  --><svg xmlns="http://www.w3.org/2000/svg" xmlns:xlink="http://www.w3.org/1999/xlink" version="1.1" id="Layer_1" x="0px" y="0px" viewBox="0 0 512 512" style="enable-background:new 0 0 512 512;" xml:space="preserve">
<path d="M256,86.8c14.6,0,26.3-11.9,26.3-26.5c0-14.6-11.9-26.3-26.3-26.3c-14.9,0-26.3,11.9-26.3,26.3  C229.7,75.1,241.4,86.8,256,86.8z M418.6,154.3c14.6,0,26.3-11.9,26.3-26.3c0-14.9-11.9-26.3-26.3-26.3c-14.9,0-26.5,11.7-26.5,26.3  C392.1,142.6,404,154.3,418.6,154.3z M93.2,154.7c14.6,0,26.3-11.9,26.3-26.3c0-14.9-11.9-26.3-26.3-26.3  c-14.6,0-26.3,11.7-26.3,26.3C66.9,143.1,78.8,154.7,93.2,154.7z M256,444.3c85.1,0,154.3-68.8,154.3-154.5  c0-85.3-69.2-154.1-154.3-154.1c-85.1,0-154.5,68.8-154.5,154.1C101.5,375.5,170.9,444.3,256,444.3z M256,170  c66.2,0,119.9,53.7,119.9,119.7c0,66.2-53.7,119.9-119.9,119.9c-28.2,0-54.1-9.8-74.5-25.9l86-86.2c6.4-6.4,6.4-15.7,0-22.5  c-5.5-5.9-16.1-5.9-22.1,0l-86,85.8c-14.6-19.7-23.6-44.4-23.6-71.1C135.9,223.7,189.8,170,256,170z M485.5,316.3  c14.6,0,26.5-12.1,26.5-26.5c0-14.9-12.1-26.3-26.5-26.3c-14.9,0-26.5,11.9-26.5,26.3C458.9,304.4,471,316.3,485.5,316.3z   M26.5,316.3c14.6,0,26.3-12.1,26.3-26.5c0-14.9-12.1-26.3-26.3-26.3C11.9,263.4,0,275.3,0,289.8C0,304.4,12.1,316.3,26.5,316.3z   M93.2,477.8c14.6,0,26.3-11.7,26.3-26.3s-11.9-26.3-26.3-26.3c-14.6,0-26.3,11.9-26.3,26.3C66.9,466.4,78.8,477.8,93.2,477.8z   M418.4,478c14.7,0,26.3-11.7,26.3-26.3s-11.9-26.3-26.3-26.3c-14.9,0-26.5,11.9-26.5,26.3C391.9,466.6,403.7,478,418.4,478z"/>
</svg>