<?xml version="1.0" ?><!-- Generator: Adobe Illustrator 25.0.0, SVG Export Plug-In . SVG Version: 6.00 Build 0)  --><svg xmlns="http://www.w3.org/2000/svg" xmlns:xlink="http://www.w3.org/1999/xlink" version="1.1" id="Layer_1" x="0px" y="0px" viewBox="0 0 512 512" style="enable-background:new 0 0 512 512;" xml:space="preserve">
<path d="M229.7,60.3c0,14.9,11.7,26.5,26.3,26.5c14.6,0,26.3-11.9,26.3-26.5c0-14.6-11.9-26.3-26.3-26.3  C241.1,34,229.7,45.9,229.7,60.3z M392.1,128c0,14.6,11.9,26.3,26.5,26.3c14.6,0,26.3-11.9,26.3-26.3c0-14.9-11.9-26.3-26.3-26.3  C403.7,101.7,392.1,113.4,392.1,128z M66.9,128.4c0,14.6,11.9,26.3,26.3,26.3c14.6,0,26.3-11.9,26.3-26.3  c0-14.9-11.9-26.3-26.3-26.3C78.5,102.1,66.9,113.8,66.9,128.4z M101.5,289.8c0,36.3,12.5,69.6,33.5,95.9l110.4-110.6  c5.9-5.9,16.6-5.9,22.1,0c6.4,6.8,6.4,16.1,0,22.5L156.9,408.2c26.7,22.5,61.3,36.1,99.1,36.1c85.1,0,154.3-68.8,154.3-154.5  c0-85.3-69.2-154.1-154.3-154.1C170.9,135.6,101.5,204.4,101.5,289.8z M0,289.8c0,14.6,12.1,26.5,26.5,26.5  c14.6,0,26.3-12.1,26.3-26.5c0-14.9-12.1-26.3-26.3-26.3C11.9,263.4,0,275.3,0,289.8z M458.9,289.8c0,14.6,12.1,26.5,26.5,26.5  c14.6,0,26.5-12.1,26.5-26.5c0-14.9-12.1-26.3-26.5-26.3C470.6,263.4,458.9,275.3,458.9,289.8z M66.9,451.5  c0,14.9,11.9,26.3,26.3,26.3c14.6,0,26.3-11.7,26.3-26.3s-11.9-26.3-26.3-26.3C78.5,425.2,66.9,437.1,66.9,451.5z M391.9,451.7  c0,14.9,11.9,26.3,26.5,26.3c14.7,0,26.3-11.7,26.3-26.3s-11.9-26.3-26.3-26.3C403.5,425.4,391.9,437.3,391.9,451.7z"/>
</svg>