<?xml version="1.0" ?><!-- Generator: Adobe Illustrator 25.0.0, SVG Export Plug-In . SVG Version: 6.00 Build 0)  --><svg xmlns="http://www.w3.org/2000/svg" xmlns:xlink="http://www.w3.org/1999/xlink" version="1.1" id="Layer_1" x="0px" y="0px" viewBox="0 0 512 512" style="enable-background:new 0 0 512 512;" xml:space="preserve">
<path d="M229.7,60.3c0,14.9,11.7,26.5,26.3,26.5c14.6,0,26.3-11.9,26.3-26.5c0-14.6-11.9-26.3-26.3-26.3  C241.1,34,229.7,45.9,229.7,60.3z M392.1,128c0,14.6,11.9,26.3,26.5,26.3c14.6,0,26.3-11.9,26.3-26.3c0-14.9-11.9-26.3-26.3-26.3  C403.7,101.7,392.1,113.4,392.1,128z M66.9,128.4c0,14.6,11.9,26.3,26.3,26.3c14.6,0,26.3-11.9,26.3-26.3  c0-14.9-11.9-26.3-26.3-26.3C78.5,102.1,66.9,113.8,66.9,128.4z M410.3,289.8c0-85.3-69.2-154.1-154.3-154.1  c-85.1,0-154.5,68.8-154.5,154.1c0,85.8,69.4,154.5,154.5,154.5c37.6,0,72.2-13.6,98.9-36.1L244.3,297.6c-6.4-6.4-6.4-15.7,0-22.5  c5.7-5.9,16.1-5.9,22.1,0L377,385.7C397.8,359.4,410.3,326,410.3,289.8z M0,289.8c0,14.6,12.1,26.5,26.5,26.5  c14.6,0,26.3-12.1,26.3-26.5c0-14.9-12.1-26.3-26.3-26.3C11.9,263.4,0,275.3,0,289.8z M458.9,289.8c0,14.6,12.1,26.5,26.5,26.5  c14.6,0,26.5-12.1,26.5-26.5c0-14.9-12.1-26.3-26.5-26.3C470.6,263.4,458.9,275.3,458.9,289.8z M66.9,451.5  c0,14.9,11.9,26.3,26.3,26.3c14.6,0,26.3-11.7,26.3-26.3s-11.9-26.3-26.3-26.3C78.5,425.2,66.9,437.1,66.9,451.5z M391.9,451.7  c0,14.9,11.9,26.3,26.5,26.3c14.7,0,26.3-11.7,26.3-26.3s-11.9-26.3-26.3-26.3C403.5,425.4,391.9,437.3,391.9,451.7z"/>
</svg>