<?xml version="1.0" encoding="UTF-8"?>
<!--Generator: Apple Native CoreSVG 326-->
<!DOCTYPE svg
PUBLIC "-//W3C//DTD SVG 1.1//EN"
       "http://www.w3.org/Graphics/SVG/1.1/DTD/svg11.dtd">
<svg version="1.1" xmlns="http://www.w3.org/2000/svg" xmlns:xlink="http://www.w3.org/1999/xlink" viewBox="0 0 29.5117 25.2051">
 <g>
  <rect height="25.2051" opacity="0" width="29.5117" x="0" y="0"/>
  <path d="M5.09766 25.2051C5.76172 25.2051 6.28906 24.668 6.28906 24.0039C6.28906 23.3398 5.76172 22.8027 5.09766 22.8027C4.42383 22.8027 3.89648 23.3398 3.89648 24.0039C3.89648 24.668 4.42383 25.2051 5.09766 25.2051ZM1.20117 15.7617C1.86523 15.7617 2.40234 15.2344 2.40234 14.5703C2.40234 13.8965 1.86523 13.3691 1.20117 13.3691C0.527344 13.3691 0 13.8965 0 14.5703C0 15.2344 0.527344 15.7617 1.20117 15.7617ZM5.09766 6.35742C5.76172 6.35742 6.28906 5.82031 6.28906 5.15625C6.28906 4.49219 5.76172 3.95508 5.09766 3.95508C4.42383 3.95508 3.89648 4.49219 3.89648 5.15625C3.89648 5.82031 4.42383 6.35742 5.09766 6.35742ZM14.5801 2.39258C15.2441 2.39258 15.7715 1.86523 15.7715 1.19141C15.7715 0.527344 15.2441 0 14.5801 0C13.9062 0 13.3789 0.527344 13.3789 1.19141C13.3789 1.86523 13.9062 2.39258 14.5801 2.39258ZM24.0625 6.35742C24.7266 6.35742 25.2539 5.82031 25.2539 5.15625C25.2539 4.49219 24.7266 3.95508 24.0625 3.95508C23.3887 3.95508 22.8613 4.49219 22.8613 5.15625C22.8613 5.82031 23.3887 6.35742 24.0625 6.35742ZM27.9492 15.7617C28.623 15.7617 29.1504 15.2344 29.1504 14.5703C29.1504 13.8965 28.623 13.3691 27.9492 13.3691C27.2852 13.3691 26.7578 13.8965 26.7578 14.5703C26.7578 15.2344 27.2852 15.7617 27.9492 15.7617ZM24.0625 25.2051C24.7266 25.2051 25.2539 24.668 25.2539 24.0039C25.2539 23.3398 24.7266 22.8027 24.0625 22.8027C23.3887 22.8027 22.8613 23.3398 22.8613 24.0039C22.8613 24.668 23.3887 25.2051 24.0625 25.2051Z" fill="black" fill-opacity="0.85"/>
  <path d="M14.5801 23.5645C19.5508 23.5645 23.5645 19.541 23.5645 14.5703C23.5645 9.59961 19.5508 5.58594 14.5801 5.58594C9.59961 5.58594 5.58594 9.59961 5.58594 14.5703C5.58594 19.541 9.59961 23.5645 14.5801 23.5645ZM14.5801 21.8262C10.5664 21.8262 7.32422 18.5742 7.32422 14.5703C7.32422 10.5664 10.5664 7.32422 14.5801 7.32422C18.584 7.32422 21.8262 10.5664 21.8262 14.5703C21.8262 18.5742 18.584 21.8262 14.5801 21.8262ZM9.86328 20.2344L15.1953 14.8926C15.5176 14.5703 15.5176 14.082 15.1953 13.75C14.9023 13.4473 14.375 13.4375 14.0625 13.75L8.73047 19.082Z" fill="black" fill-opacity="0.85"/>
 </g>
</svg>
