<?xml version="1.0" ?><!-- Generator: Adobe Illustrator 25.0.0, SVG Export Plug-In . SVG Version: 6.00 Build 0)  --><svg xmlns="http://www.w3.org/2000/svg" xmlns:xlink="http://www.w3.org/1999/xlink" version="1.1" id="Layer_1" x="0px" y="0px" viewBox="0 0 512 512" style="enable-background:new 0 0 512 512;" xml:space="preserve">
<path d="M486.7,305.9c16.7-16.7,25.1-33.3,25.3-49.8c0.2-16.5-8.1-33.1-24.6-49.8l-182-181.7C288.9,8.1,272.3-0.1,255.8,0  c-16.6,0.2-33.2,8.6-49.9,25.3L25.3,205.9C8.6,222.6,0.2,239.3,0,255.9c-0.2,16.6,8.1,33.1,24.6,49.6l181.7,182  c16.6,16.6,33.1,24.8,49.7,24.6s33.2-8.6,49.9-25.3L486.7,305.9z M256.2,39.3v433.4c-8.6,0-17-4.1-25.3-12.4L51.7,281.1  c-8.4-8.3-12.6-16.7-12.4-25.2c0.2-8.5,4.2-16.7,12.2-24.7L231.2,51.5C239.4,43.2,247.8,39.1,256.2,39.3z"/>
</svg>