<?xml version="1.0" ?><!-- Generator: Adobe Illustrator 25.0.0, SVG Export Plug-In . SVG Version: 6.00 Build 0)  --><svg xmlns="http://www.w3.org/2000/svg" xmlns:xlink="http://www.w3.org/1999/xlink" version="1.1" id="Layer_1" x="0px" y="0px" viewBox="0 0 512 512" style="enable-background:new 0 0 512 512;" xml:space="preserve">
<path d="M25.3,205.9C8.6,222.6,0.2,239.2,0,255.8c-0.2,16.6,8.1,33.1,24.6,49.7l182,181.7c16.6,16.7,33.1,25,49.7,24.8  c16.6-0.2,33.2-8.6,49.9-25.3l180.6-180.8c16.7-16.7,25.1-33.3,25.3-49.9c0.2-16.6-8.1-33.1-24.6-49.7L305.7,24.6  C289.1,8.1,272.6-0.1,256,0s-33.2,8.6-49.9,25.3L25.3,205.9z M472.7,256H39.3c0-8.4,4.1-16.7,12.2-24.8L231.2,51.2  c8-8,16.2-12,24.6-12.1c8.4-0.1,16.9,4.1,25.3,12.5l179.2,179.2C468.6,239.1,472.7,247.4,472.7,256z"/>
</svg>