<?xml version="1.0" ?><!-- Generator: Adobe Illustrator 25.0.0, SVG Export Plug-In . SVG Version: 6.00 Build 0)  --><svg xmlns="http://www.w3.org/2000/svg" xmlns:xlink="http://www.w3.org/1999/xlink" version="1.1" id="Layer_1" x="0px" y="0px" viewBox="0 0 512 512" style="enable-background:new 0 0 512 512;" xml:space="preserve">
<path d="M87.3,512h337.3c58.4,0,87.3-28.9,87.3-86.2V86.2C512,28.9,483.1,0,424.7,0H87.3C29.2,0,0,28.6,0,86.2v339.6  C0,483.4,29.2,512,87.3,512z M87.9,467.2c-27.8,0-43.1-14.7-43.1-43.7V88.4c0-28.9,15.3-43.7,43.1-43.7h336.2  c27.5,0,43.1,14.7,43.1,43.7v335.1c0,28.9-15.6,43.7-43.1,43.7H87.9z M381.3,176c24.5,0.3,44.8-20.3,44.8-45.6  c0-24.8-20.3-44.8-44.8-44.8c-25,0-45.6,20-45.6,44.8C335.7,155.7,356.3,175.5,381.3,176z M256.1,301.2c24.5,0,45.1-20.3,45.1-45.6  c0-24.8-20.6-44.8-45.1-44.8c-25,0-45.1,20-45.1,44.8C211.1,280.9,231.1,301.2,256.1,301.2z M131.3,426.3  c24.5,0,45.1-20.3,45.1-45.3c0-25-20.6-45.1-45.1-45.1c-25,0-45.1,20-45.1,45.1C86.2,406,106.2,426.3,131.3,426.3z"/>
</svg>