<?xml version="1.0" encoding="UTF-8"?>
<!--Generator: Apple Native CoreSVG 326-->
<!DOCTYPE svg
PUBLIC "-//W3C//DTD SVG 1.1//EN"
       "http://www.w3.org/Graphics/SVG/1.1/DTD/svg11.dtd">
<svg version="1.1" xmlns="http://www.w3.org/2000/svg" xmlns:xlink="http://www.w3.org/1999/xlink" viewBox="0 0 23.3203 22.959">
 <g>
  <rect height="22.959" opacity="0" width="23.3203" x="0" y="0"/>
  <path d="M22.959 3.76953L22.959 19.1992C22.959 21.6797 21.6797 22.959 19.1504 22.959L3.79883 22.959C1.2793 22.959 0 21.6992 0 19.1992L0 3.76953C0 1.26953 1.2793 0 3.79883 0L19.1504 0C21.6797 0 22.959 1.2793 22.959 3.76953ZM3.52539 17.4023C3.52539 18.5352 4.44336 19.4629 5.57617 19.4629C6.69922 19.4629 7.62695 18.5352 7.62695 17.4023C7.62695 16.2598 6.69922 15.3516 5.57617 15.3516C4.44336 15.3516 3.52539 16.2598 3.52539 17.4023ZM15.3125 5.55664C15.3125 6.70898 16.2598 7.60742 17.3926 7.62695C18.5156 7.64648 19.4434 6.70898 19.4434 5.55664C19.4434 4.41406 18.5156 3.50586 17.3926 3.50586C16.2598 3.50586 15.3125 4.41406 15.3125 5.55664Z" fill="black" fill-opacity="0.85"/>
 </g>
</svg>
