<?xml version="1.0" encoding="UTF-8"?>
<!--Generator: Apple Native CoreSVG 326-->
<!DOCTYPE svg
PUBLIC "-//W3C//DTD SVG 1.1//EN"
       "http://www.w3.org/Graphics/SVG/1.1/DTD/svg11.dtd">
<svg version="1.1" xmlns="http://www.w3.org/2000/svg" xmlns:xlink="http://www.w3.org/1999/xlink" viewBox="0 0 27.8621 25.0488">
 <g>
  <rect height="25.0488" opacity="0" width="27.8621" x="0" y="0"/>
  <path d="M15.7133 12.5195C15.7133 20.0195 18.0668 25.0293 21.6019 25.0293C25.1469 25.0293 27.5004 20.0195 27.5004 12.5195C27.5004 5.00977 25.1469 0 21.6019 0C18.0668 0 15.7133 5.00977 15.7133 12.5195ZM17.4418 12.5195C17.4418 6.05469 19.1312 1.73828 21.6019 1.73828C24.0726 1.73828 25.7719 6.05469 25.7719 12.5195C25.7719 18.9746 24.0726 23.3008 21.6019 23.3008C19.1312 23.3008 17.4418 18.9746 17.4418 12.5195ZM9.37538 12.5195C9.37538 20.2539 11.5433 25.0293 16.6801 25.0293L21.6019 25.0293L21.6019 23.3008L16.6801 23.3008C12.6273 23.3008 11.1039 19.1699 11.1039 12.5195C11.1039 5.85938 12.6273 1.73828 16.6801 1.73828L21.6019 1.73828L21.6019 0L16.6801 0C11.5433 0 9.37538 4.78516 9.37538 12.5195ZM15.1566 5.06836L17.5883 5.06836L17.5883 3.64258L15.1566 3.64258C14.7562 3.64258 14.434 3.96484 14.434 4.35547C14.434 4.74609 14.7562 5.06836 15.1566 5.06836ZM14.2777 8.93555L16.7094 8.93555L16.7094 7.5L14.2777 7.5C13.8773 7.5 13.5551 7.82227 13.5551 8.21289C13.5551 8.61328 13.8773 8.93555 14.2777 8.93555ZM13.9555 13.1152L16.3871 13.1152L16.3871 11.6797L13.9555 11.6797C13.5551 11.6797 13.2328 12.002 13.2328 12.4023C13.2328 12.793 13.5551 13.1152 13.9555 13.1152ZM14.2777 17.2949L16.7094 17.2949L16.7094 15.8594L14.2777 15.8594C13.8773 15.8594 13.5551 16.1816 13.5551 16.582C13.5551 16.9727 13.8773 17.2949 14.2777 17.2949ZM15.1566 21.1523L17.5883 21.1523L17.5883 19.7266L15.1566 19.7266C14.7562 19.7266 14.434 20.0488 14.434 20.4395C14.434 20.8301 14.7562 21.1523 15.1566 21.1523Z" fill="black" fill-opacity="0.85"/>
  <path d="M3.56483 2.50977C3.2328 2.50977 2.891 2.65625 2.75429 3.06641C1.9828 5.51758 1.54335 8.31055 1.54335 11.0938C1.54335 13.8672 1.97304 16.6602 2.75429 19.1113L4.30702 18.5938C3.5746 16.3086 3.17421 13.7012 3.17421 11.0938C3.17421 8.48633 3.5746 5.86914 4.30702 3.59375C4.5414 2.92969 4.06288 2.50977 3.56483 2.50977ZM0.547255 18.252C-0.15587 18.5059-0.15587 19.3848 0.40077 19.7461L4.2289 22.1582C4.72694 22.4707 5.29335 22.2461 5.46913 21.709L6.84608 17.4219C7.05116 16.7969 6.51405 16.084 5.78163 16.3477Z" fill="black" fill-opacity="0.85"/>
 </g>
</svg>
