<?xml version="1.0" encoding="UTF-8"?>
<!--Generator: Apple Native CoreSVG 326-->
<!DOCTYPE svg
PUBLIC "-//W3C//DTD SVG 1.1//EN"
       "http://www.w3.org/Graphics/SVG/1.1/DTD/svg11.dtd">
<svg version="1.1" xmlns="http://www.w3.org/2000/svg" xmlns:xlink="http://www.w3.org/1999/xlink" viewBox="0 0 25.3906 33.4668">
 <g>
  <rect height="33.4668" opacity="0" width="25.3906" x="0" y="0"/>
  <path d="M9.09724 13.7402C4.57558 14.2334 1.72852 15.7301 1.72852 17.7344C1.72852 20.2051 6.05469 21.8945 12.5098 21.8945C18.9746 21.8945 23.3008 20.2051 23.3008 17.7344C23.3008 15.7306 20.4552 14.2343 15.9304 13.7407L17.2664 12.2034C22.0631 12.9878 25.0293 15.0142 25.0293 17.7344L25.0293 22.6562C25.0293 27.793 20.2441 29.9609 12.5098 29.9609C4.77539 29.9609 0 27.793 0 22.6562L1.12861e-08 17.7344C0 15.0137 2.96735 12.987 7.76121 12.203ZM21.1523 22.1874L21.1523 24.1797C21.1523 24.5801 20.8301 24.9023 20.4395 24.9023C20.0391 24.9023 19.7168 24.5801 19.7168 24.1797L19.7168 22.7066C18.978 22.9295 18.1702 23.1138 17.2949 23.2525L17.2949 25.0684C17.2949 25.459 16.9727 25.7812 16.5723 25.7812C16.1816 25.7812 15.8594 25.459 15.8594 25.0684L15.8594 23.4455C15.0001 23.5449 14.0832 23.601 13.1152 23.6111L13.1152 25.3809C13.1152 25.7812 12.793 26.1035 12.3926 26.1035C12.002 26.1035 11.6797 25.7812 11.6797 25.3809L11.6797 23.6066C10.7076 23.5899 9.78782 23.5264 8.92578 23.4203L8.92578 25.0684C8.92578 25.459 8.60352 25.7812 8.21289 25.7812C7.82227 25.7812 7.5 25.459 7.5 25.0684L7.5 23.2169C6.61921 23.0645 5.80504 22.8676 5.06836 22.6283L5.06836 24.1797C5.06836 24.5801 4.74609 24.9023 4.35547 24.9023C3.95508 24.9023 3.63281 24.5801 3.63281 24.1797L3.63281 22.0849C2.8836 21.7556 2.24354 21.3739 1.72852 20.944L1.72852 22.6562C1.72852 26.7188 5.85938 28.2324 12.5098 28.2324C19.1699 28.2324 23.3008 26.7188 23.3008 22.6562L23.3008 20.9437C22.7296 21.4187 22.008 21.836 21.1523 22.1874Z" fill="black" fill-opacity="0.85"/>
  <path d="M13.2227 14.4824L16.4648 10.7422C17.0508 10.0977 16.7188 9.14062 15.7715 9.14062L13.4375 9.14062L13.4375 2.4707C13.4375 1.95312 13.0371 1.55273 12.5195 1.55273C12.002 1.55273 11.6016 1.95312 11.6016 2.4707L11.6016 9.14062L9.23828 9.14062C8.33984 9.14062 7.94922 10.0684 8.54492 10.7422L11.7969 14.4824C12.207 14.9512 12.8027 14.9609 13.2227 14.4824Z" fill="black" fill-opacity="0.85"/>
 </g>
</svg>
