<?xml version="1.0" encoding="UTF-8"?>
<!--Generator: Apple Native CoreSVG 326-->
<!DOCTYPE svg
PUBLIC "-//W3C//DTD SVG 1.1//EN"
       "http://www.w3.org/Graphics/SVG/1.1/DTD/svg11.dtd">
<svg version="1.1" xmlns="http://www.w3.org/2000/svg" xmlns:xlink="http://www.w3.org/1999/xlink" viewBox="0 0 25.3906 27.1973">
 <g>
  <rect height="27.1973" opacity="0" width="25.3906" x="0" y="0"/>
  <path d="M12.5098 11.1426C19.8242 11.1426 24.707 8.88672 24.707 5.57617C24.707 2.25586 19.8242 0 12.5098 0C5.19531 0 0.322266 2.25586 0.322266 5.57617C0.322266 8.88672 5.19531 11.1426 12.5098 11.1426ZM12.5098 17.8027C20.2441 17.8027 25.0293 15.6348 25.0293 10.498L25.0293 8.82812C24.1602 9.87305 22.8418 10.7324 21.1523 11.3672L21.1523 13.1934C21.1523 13.5938 20.8301 13.916 20.4395 13.916C20.0391 13.916 19.7168 13.5938 19.7168 13.1934L19.7168 11.8359C18.9062 12.0703 18.0078 12.2461 17.2949 12.3535L17.2949 14.082C17.2949 14.4727 16.9727 14.7949 16.5723 14.7949C16.1816 14.7949 15.8594 14.4727 15.8594 14.082L15.8594 12.5391C14.9512 12.627 13.8867 12.6953 13.1152 12.7051L13.1152 14.3945C13.1152 14.7949 12.793 15.1172 12.3926 15.1172C12.002 15.1172 11.6797 14.7949 11.6797 14.3945L11.6797 12.6953C10.791 12.6855 9.83398 12.6172 8.92578 12.5195L8.92578 14.082C8.92578 14.4727 8.60352 14.7949 8.21289 14.7949C7.82227 14.7949 7.5 14.4727 7.5 14.082L7.5 12.3145C6.65039 12.1777 5.83984 12.002 5.06836 11.7676L5.06836 13.1934C5.06836 13.5938 4.74609 13.916 4.35547 13.916C3.95508 13.916 3.63281 13.5938 3.63281 13.1934L3.63281 11.2793C2.06055 10.6543 0.830078 9.82422 0 8.82812L0 10.498C0 15.6348 4.77539 17.8027 12.5098 17.8027Z" fill="black" fill-opacity="0.85"/>
  <path d="M2.38281 23.4277C2.38281 23.7598 2.5293 24.082 2.91016 24.2188C5.48828 25.1465 8.17383 25.6348 11.0938 25.6348C14.0137 25.6348 16.6992 25.1562 19.2773 24.2188L18.7207 22.6758C16.3281 23.5645 13.8281 24.0039 11.0938 24.0039C8.35938 24.0039 5.85938 23.5645 3.4668 22.6758C2.8125 22.4316 2.38281 22.9199 2.38281 23.4277ZM18.3105 26.6113C18.5547 27.3047 19.4336 27.3242 19.8047 26.7773L22.3047 23.0078C22.6172 22.5195 22.4121 21.9531 21.875 21.7676L17.627 20.2734C17.002 20.0684 16.2793 20.5957 16.5332 21.3379Z" fill="black" fill-opacity="0.85"/>
 </g>
</svg>
