<?xml version="1.0" encoding="UTF-8"?>
<!--Generator: Apple Native CoreSVG 326-->
<!DOCTYPE svg
PUBLIC "-//W3C//DTD SVG 1.1//EN"
       "http://www.w3.org/Graphics/SVG/1.1/DTD/svg11.dtd">
<svg version="1.1" xmlns="http://www.w3.org/2000/svg" xmlns:xlink="http://www.w3.org/1999/xlink" viewBox="0 0 31.1621 25.0488">
 <g>
  <rect height="25.0488" opacity="0" width="31.1621" x="0" y="0"/>
  <path d="M7.71484 3.64258L5.80078 3.64258C5.41016 3.64258 5.08789 3.96484 5.08789 4.35547C5.08789 4.74609 5.41016 5.06836 5.80078 5.06836L7.22656 5.06836C6.99219 5.83984 6.82617 6.66016 6.67969 7.5L4.92188 7.5C4.52148 7.5 4.19922 7.82227 4.19922 8.21289C4.19922 8.61328 4.52148 8.93555 4.92188 8.93555L6.47461 8.93555C6.37695 9.83398 6.30859 10.8008 6.29883 11.6797L4.59961 11.6797C4.19922 11.6797 3.87695 12.002 3.87695 12.4023C3.87695 12.793 4.19922 13.1152 4.59961 13.1152L6.28906 13.1152C6.29883 13.8965 6.36719 14.9609 6.45508 15.8594L4.92188 15.8594C4.52148 15.8594 4.19922 16.1816 4.19922 16.582C4.19922 16.9727 4.52148 17.2949 4.92188 17.2949L6.64062 17.2949C6.74805 18.0078 6.93359 18.916 7.1582 19.7266L5.80078 19.7266C5.41016 19.7266 5.08789 20.0488 5.08789 20.4395C5.08789 20.8301 5.41016 21.1523 5.80078 21.1523L7.62695 21.1523C8.26172 22.8418 9.12109 24.1602 10.166 25.0293L8.49609 25.0293C3.35938 25.0293 1.19141 20.2539 1.19141 12.5195C1.19141 4.78516 3.35938 0 8.49609 0L10.166 0C9.16992 0.830078 8.33984 2.06055 7.71484 3.64258ZM18.663 8.01012L15.6543 10.625C14.4727 11.6504 14.4531 13.3594 15.6543 14.3945L18.6645 17.0176C17.9344 21.7669 15.9992 24.707 13.4277 24.707C10.1074 24.707 7.85156 19.834 7.85156 12.5195C7.85156 5.20508 10.1074 0.322266 13.4277 0.322266C15.9974 0.322266 17.9316 3.26417 18.663 8.01012Z" fill="black" fill-opacity="0.85"/>
  <path d="M16.6797 13.2227L20.4102 16.4746C21.0645 17.0605 22.0215 16.7188 22.0215 15.7812L22.0215 13.4375L28.6816 13.4375C29.209 13.4375 29.5996 13.0371 29.5996 12.5293C29.5996 12.002 29.209 11.6016 28.6816 11.6016L22.0215 11.6016L22.0215 9.24805C22.0215 8.33984 21.0938 7.95898 20.4102 8.55469L16.6797 11.7969C16.2012 12.207 16.1914 12.8027 16.6797 13.2227Z" fill="black" fill-opacity="0.85"/>
 </g>
</svg>
