<?xml version="1.0" encoding="UTF-8"?>
<!--Generator: Apple Native CoreSVG 326-->
<!DOCTYPE svg
PUBLIC "-//W3C//DTD SVG 1.1//EN"
       "http://www.w3.org/Graphics/SVG/1.1/DTD/svg11.dtd">
<svg version="1.1" xmlns="http://www.w3.org/2000/svg" xmlns:xlink="http://www.w3.org/1999/xlink" viewBox="0 0 25.3906 33.4668">
 <g>
  <rect height="33.4668" opacity="0" width="25.3906" x="0" y="0"/>
  <path d="M25.0293 22.6562C25.0293 27.793 20.2441 29.9609 12.5098 29.9609C4.77539 29.9609 0 27.793 0 22.6562L0 20.9863C0.830078 21.9824 2.06055 22.8125 3.63281 23.4375L3.63281 25.3516C3.63281 25.752 3.95508 26.0742 4.35547 26.0742C4.74609 26.0742 5.06836 25.752 5.06836 25.3516L5.06836 23.9258C5.83984 24.1602 6.65039 24.3359 7.5 24.4824L7.5 26.2402C7.5 26.6309 7.82227 26.9531 8.21289 26.9531C8.60352 26.9531 8.92578 26.6309 8.92578 26.2402L8.92578 24.6777C9.83398 24.7852 10.791 24.8438 11.6797 24.8535L11.6797 26.5625C11.6797 26.9531 12.002 27.2754 12.3926 27.2754C12.793 27.2754 13.1152 26.9531 13.1152 26.5625L13.1152 24.8633C13.8867 24.8535 14.9512 24.7949 15.8594 24.6973L15.8594 26.2402C15.8594 26.6309 16.1816 26.9531 16.5723 26.9531C16.9727 26.9531 17.2949 26.6309 17.2949 26.2402L17.2949 24.5215C18.0078 24.4043 18.9062 24.2285 19.7168 23.9941L19.7168 25.3516C19.7168 25.752 20.0391 26.0742 20.4395 26.0742C20.8301 26.0742 21.1523 25.752 21.1523 25.3516L21.1523 23.5254C22.8418 22.8906 24.1602 22.0312 25.0293 20.9863ZM10.625 15.498C11.6406 16.6797 13.3496 16.6992 14.3945 15.5078L17.0171 12.4903C21.7643 13.224 24.707 15.1643 24.707 17.7344C24.707 21.0449 19.8242 23.3008 12.5098 23.3008C5.19531 23.3008 0.322266 21.0449 0.322266 17.7344C0.322266 15.1632 3.26177 13.2223 8.01009 12.4893Z" fill="black" fill-opacity="0.85"/>
  <path d="M13.2227 14.4824L16.4648 10.7422C17.0508 10.0977 16.7188 9.14062 15.7715 9.14062L13.4375 9.14062L13.4375 2.4707C13.4375 1.95312 13.0371 1.55273 12.5195 1.55273C12.002 1.55273 11.6016 1.95312 11.6016 2.4707L11.6016 9.14062L9.23828 9.14062C8.33984 9.14062 7.94922 10.0684 8.54492 10.7422L11.7969 14.4824C12.207 14.9512 12.8027 14.9609 13.2227 14.4824Z" fill="black" fill-opacity="0.85"/>
 </g>
</svg>
