<?xml version="1.0" encoding="UTF-8"?>
<!--Generator: Apple Native CoreSVG 326-->
<!DOCTYPE svg
PUBLIC "-//W3C//DTD SVG 1.1//EN"
       "http://www.w3.org/Graphics/SVG/1.1/DTD/svg11.dtd">
<svg version="1.1" xmlns="http://www.w3.org/2000/svg" xmlns:xlink="http://www.w3.org/1999/xlink" viewBox="0 0 25.3906 27.573">
 <g>
  <rect height="27.573" opacity="0" width="25.3906" x="0" y="0"/>
  <path d="M12.5098 11.8187C20.0195 11.8187 25.0293 9.45545 25.0293 5.92029C25.0293 2.38513 20.0195 0.0218529 12.5098 0.0218529C5.00977 0.0218529 0 2.38513 0 5.92029C0 9.45545 5.00977 11.8187 12.5098 11.8187ZM12.5098 10.0804C6.05469 10.0804 1.72852 8.39099 1.72852 5.92029C1.72852 3.44959 6.05469 1.76013 12.5098 1.76013C18.9746 1.76013 23.3008 3.44959 23.3008 5.92029C23.3008 8.39099 18.9746 10.0804 12.5098 10.0804ZM12.5098 18.1469C20.2441 18.1469 25.0293 15.9789 25.0293 10.8422L25.0293 5.92029L23.3008 5.92029L23.3008 10.8422C23.3008 14.9047 19.1699 16.4183 12.5098 16.4183C5.85938 16.4183 1.72852 14.9047 1.72852 10.8422L1.72852 5.92029L0 5.92029L0 10.8422C0 15.9789 4.77539 18.1469 12.5098 18.1469ZM5.06836 12.3656L5.06836 9.93396L3.63281 9.93396L3.63281 12.3656C3.63281 12.766 3.95508 13.0883 4.35547 13.0883C4.74609 13.0883 5.06836 12.766 5.06836 12.3656ZM8.92578 13.2543L8.92578 10.8129L7.5 10.8129L7.5 13.2543C7.5 13.6449 7.82227 13.9672 8.21289 13.9672C8.60352 13.9672 8.92578 13.6449 8.92578 13.2543ZM13.1152 13.5765L13.1152 11.1351L11.6797 11.1351L11.6797 13.5765C11.6797 13.9672 12.002 14.2894 12.3926 14.2894C12.793 14.2894 13.1152 13.9672 13.1152 13.5765ZM17.2949 13.2543L17.2949 10.8129L15.8594 10.8129L15.8594 13.2543C15.8594 13.6449 16.1816 13.9672 16.5723 13.9672C16.9727 13.9672 17.2949 13.6449 17.2949 13.2543ZM21.1523 12.3656L21.1523 9.93396L19.7168 9.93396L19.7168 12.3656C19.7168 12.766 20.0391 13.0883 20.4395 13.0883C20.8301 13.0883 21.1523 12.766 21.1523 12.3656Z" fill="black" fill-opacity="0.85"/>
  <path d="M22.2949 23.9672C22.2949 23.4594 21.8652 22.9808 21.2109 23.2152C18.9258 23.9476 16.3184 24.348 13.7109 24.348C11.1035 24.348 8.48633 23.9476 6.20117 23.2152L5.68359 24.7679C8.13477 25.5492 10.9277 25.9789 13.7109 25.9789C16.4844 25.9789 19.2773 25.5394 21.7285 24.7679C22.1484 24.6312 22.2949 24.2894 22.2949 23.9672ZM6.61133 27.0238L8.38867 21.7406C8.64258 21.0082 7.91992 20.4808 7.29492 20.6957L3.04688 22.1801C2.5 22.3656 2.29492 22.932 2.61719 23.4301L5.11719 27.1801C5.47852 27.7367 6.36719 27.7172 6.61133 27.0238Z" fill="black" fill-opacity="0.85"/>
 </g>
</svg>
