<?xml version="1.0" ?><!-- Generator: Adobe Illustrator 25.0.0, SVG Export Plug-In . SVG Version: 6.00 Build 0)  --><svg xmlns="http://www.w3.org/2000/svg" xmlns:xlink="http://www.w3.org/1999/xlink" version="1.1" id="Layer_1" x="0px" y="0px" viewBox="0 0 512 512" style="enable-background:new 0 0 512 512;" xml:space="preserve">
<path d="M0,193.7c0,6,2.1,11.1,6.4,15.4c4.3,4.3,9.4,6.4,15.4,6.4h468c6.2,0,11.4-2.1,15.7-6.4c4.3-4.3,6.4-9.4,6.4-15.4  c0-6.2-2.1-11.4-6.4-15.7c-4.3-4.3-9.5-6.4-15.7-6.4h-468c-6,0-11.1,2.1-15.4,6.4C2.1,182.3,0,187.6,0,193.7z M0,318.3  c0,6,2.1,11.2,6.4,15.6c4.3,4.4,9.4,6.6,15.4,6.6h90.8c6,0,11.1-2.2,15.4-6.6c4.3-4.4,6.4-9.6,6.4-15.6s-2.1-11.1-6.4-15.4  c-4.3-4.3-9.4-6.4-15.4-6.4H21.9c-6,0-11.1,2.1-15.4,6.4C2.1,307.1,0,312.3,0,318.3z M188.6,318.3c0,6,2.1,11.2,6.4,15.6  c4.3,4.4,9.5,6.6,15.7,6.6H301c6,0,11.1-2.2,15.4-6.6c4.3-4.4,6.4-9.6,6.4-15.6s-2.1-11.1-6.4-15.4c-4.3-4.3-9.4-6.4-15.4-6.4h-90.3  c-6.2,0-11.4,2.1-15.7,6.4C190.7,307.1,188.6,312.3,188.6,318.3z M376.9,318.3c0,6,2.1,11.2,6.4,15.6c4.3,4.4,9.4,6.6,15.4,6.6h89  c6.2,0,11.4-2.2,15.7-6.6c4.3-4.4,6.4-9.6,6.4-15.6s-2.1-11.1-6.4-15.4c-4.3-4.3-9.5-6.4-15.7-6.4h-89c-6,0-11.1,2.1-15.4,6.4  C379.1,307.1,376.9,312.3,376.9,318.3z"/>
</svg>