<?xml version="1.0" encoding="UTF-8"?>
<!--Generator: Apple Native CoreSVG 326-->
<!DOCTYPE svg
PUBLIC "-//W3C//DTD SVG 1.1//EN"
       "http://www.w3.org/Graphics/SVG/1.1/DTD/svg11.dtd">
<svg version="1.1" xmlns="http://www.w3.org/2000/svg" xmlns:xlink="http://www.w3.org/1999/xlink" viewBox="0 0 24.9512 7.90039">
 <g>
  <rect height="7.90039" opacity="0" width="24.9512" x="0" y="0"/>
  <path d="M0 0.917969C0 1.41602 0.410156 1.82617 0.917969 1.82617L23.6719 1.82617C24.1699 1.82617 24.5898 1.41602 24.5898 0.917969C24.5898 0.410156 24.1699 0 23.6719 0L0.917969 0C0.410156 0 0 0.410156 0 0.917969ZM0 6.97266C0 7.4707 0.410156 7.88086 0.917969 7.88086L5.35156 7.88086C5.85938 7.88086 6.26953 7.4707 6.26953 6.97266C6.26953 6.46484 5.85938 6.05469 5.35156 6.05469L0.917969 6.05469C0.410156 6.05469 0 6.46484 0 6.97266ZM9.16992 6.97266C9.16992 7.4707 9.58008 7.88086 10.0781 7.88086L14.502 7.88086C15.0098 7.88086 15.4199 7.4707 15.4199 6.97266C15.4199 6.46484 15.0098 6.05469 14.502 6.05469L10.0781 6.05469C9.58008 6.05469 9.16992 6.46484 9.16992 6.97266ZM18.3203 6.97266C18.3203 7.4707 18.7305 7.88086 19.2285 7.88086L23.5938 7.88086C24.0918 7.88086 24.502 7.4707 24.502 6.97266C24.502 6.46484 24.0918 6.05469 23.5938 6.05469L19.2285 6.05469C18.7305 6.05469 18.3203 6.46484 18.3203 6.97266Z" fill="black" fill-opacity="0.85"/>
 </g>
</svg>
