<?xml version="1.0" encoding="UTF-8"?>
<!--Generator: Apple Native CoreSVG 326-->
<!DOCTYPE svg
PUBLIC "-//W3C//DTD SVG 1.1//EN"
       "http://www.w3.org/Graphics/SVG/1.1/DTD/svg11.dtd">
<svg version="1.1" xmlns="http://www.w3.org/2000/svg" xmlns:xlink="http://www.w3.org/1999/xlink" viewBox="0 0 27.7832 30.3809">
 <g>
  <rect height="30.3809" opacity="0" width="27.7832" x="0" y="0"/>
  <path d="M12.5165 27.959L5.76172 27.959C4.12109 27.959 3.00781 26.8066 3.00781 25.0781L3.00781 24.9023L10.8784 24.9023C11.1685 26.0636 11.7389 27.107 12.5165 27.959ZM24.4141 16.8646C23.275 16.1269 21.9135 15.7031 20.4492 15.7031C20.0242 15.7031 19.6081 15.7385 19.2066 15.8143C18.8062 15.7385 18.3918 15.7031 17.9688 15.7031C13.8867 15.7031 10.6348 18.9648 10.6348 23.0371C10.6348 23.1394 10.6368 23.2411 10.6498 23.3398L3.00781 23.3398L3.00781 9.77539L24.4141 9.77539ZM10.7129 11.6309C10.3711 11.6309 10.1367 11.875 10.1367 12.2168C10.1367 12.5684 10.3711 12.8125 10.7129 12.8125L16.709 12.8125C17.0605 12.8125 17.2949 12.5684 17.2949 12.2168C17.2949 11.875 17.0605 11.6309 16.709 11.6309ZM24.4141 4.90234L24.4141 8.22266L3.00781 8.22266L3.00781 4.90234C3.00781 3.17383 4.12109 2.03125 5.76172 2.03125L21.6602 2.03125C23.3008 2.03125 24.4141 3.17383 24.4141 4.90234ZM6.2793 5.69336C6.2793 6.30859 6.78711 6.82617 7.42188 6.82617C8.03711 6.82617 8.54492 6.30859 8.54492 5.69336C8.54492 5.05859 8.03711 4.55078 7.42188 4.55078C6.78711 4.55078 6.2793 5.05859 6.2793 5.69336ZM9.58008 5.69336C9.58008 6.30859 10.0781 6.82617 10.7129 6.82617C11.3281 6.82617 11.8359 6.30859 11.8359 5.69336C11.8359 5.05859 11.3281 4.55078 10.7129 4.55078C10.0781 4.55078 9.58008 5.05859 9.58008 5.69336Z" fill="black" fill-opacity="0.85"/>
  <path d="M26.416 23.0371C26.416 26.3672 23.7695 29.0137 20.4492 29.0137C20.0225 29.0137 19.607 28.9702 19.2073 28.8861C20.1313 28.6959 20.9734 28.2939 21.6797 27.7291C23.8009 27.2159 25.2832 25.3701 25.2832 23.0371C25.2832 20.7151 23.8045 18.8722 21.6873 18.3567C20.9792 17.7904 20.1345 17.3876 19.2073 17.1974C19.607 17.1136 20.0225 17.0703 20.4492 17.0703C23.7695 17.0703 26.416 19.707 26.416 23.0371Z" fill="black" fill-opacity="0.85"/>
  <path d="M17.9688 29.0137C21.2891 29.0137 23.9355 26.3672 23.9355 23.0371C23.9355 19.707 21.2891 17.0703 17.9688 17.0703C14.6387 17.0703 11.9922 19.707 11.9922 23.0371C11.9922 26.3672 14.6387 29.0137 17.9688 29.0137ZM17.9688 27.8809C15.1953 27.8809 13.1348 25.8008 13.1348 23.0371C13.1348 20.2832 15.1953 18.2031 17.9688 18.2031C20.7227 18.2031 22.8027 20.2832 22.8027 23.0371C22.8027 25.8008 20.7227 27.8809 17.9688 27.8809ZM17.9688 26.7871C20.0391 26.7871 21.709 25.1172 21.709 23.0371C21.709 20.9668 20.0391 19.2969 17.9688 19.2969C15.8887 19.2969 14.209 20.9668 14.209 23.0371C14.209 25.1172 15.8887 26.7871 17.9688 26.7871ZM17.9688 25.752C16.377 25.752 15.2539 24.6289 15.2539 23.0371C15.2539 21.4551 16.377 20.332 17.9688 20.332C19.5605 20.332 20.6738 21.4453 20.6738 23.0371C20.6738 24.6289 19.5508 25.752 17.9688 25.752Z" fill="black" fill-opacity="0.85"/>
 </g>
</svg>
