<?xml version="1.0" encoding="UTF-8"?>
<!--Generator: Apple Native CoreSVG 326-->
<!DOCTYPE svg
PUBLIC "-//W3C//DTD SVG 1.1//EN"
       "http://www.w3.org/Graphics/SVG/1.1/DTD/svg11.dtd">
<svg version="1.1" xmlns="http://www.w3.org/2000/svg" xmlns:xlink="http://www.w3.org/1999/xlink" viewBox="0 0 29.9902 32.998">
 <g>
  <rect height="32.998" opacity="0" width="29.9902" x="0" y="0"/>
  <path d="M29.6289 7.01172L29.6289 22.4512C29.6289 24.0527 28.6523 25.0293 27.0508 25.0293L18.7207 25.0293L18.7207 27.6562L18.8477 27.6562C19.3262 27.6562 19.7168 28.0469 19.7168 28.5352C19.7168 29.0137 19.3262 29.3945 18.8477 29.3945L10.7812 29.3945C10.3027 29.3945 9.91211 29.0137 9.91211 28.5352C9.91211 28.0469 10.3027 27.6562 10.7812 27.6562L10.9082 27.6562L10.9082 25.0293L2.57812 25.0293C0.976562 25.0293 0 24.0527 0 22.4512L0 7.01172C0 5.41016 0.976562 4.43359 2.57812 4.43359L11.7676 4.43359L11.7676 6.16211L2.61719 6.16211C2.07031 6.16211 1.72852 6.50391 1.72852 7.05078L1.72852 22.4121C1.72852 22.959 2.07031 23.3008 2.61719 23.3008L27.0117 23.3008C27.5586 23.3008 27.9004 22.959 27.9004 22.4121L27.9004 7.05078C27.9004 6.50391 27.5586 6.16211 27.0117 6.16211L17.8809 6.16211L17.8809 4.43359L27.0508 4.43359C28.6523 4.43359 29.6289 5.41016 29.6289 7.01172Z" fill="black" fill-opacity="0.85"/>
  <path d="M14.8242 0C14.3555 0 13.9648 0.380859 13.9648 0.839844L13.9648 12.334L14.0332 14.1895L13.252 13.3887L11.1328 11.1523C10.9766 10.9863 10.7422 10.8984 10.5371 10.8984C10.0879 10.8984 9.75586 11.2207 9.75586 11.6602C9.75586 11.8848 9.85352 12.0605 10.0098 12.2168L14.1992 16.2891C14.4141 16.5039 14.5996 16.5723 14.8242 16.5723C15.0391 16.5723 15.2246 16.5039 15.4395 16.2891L19.6191 12.2168C19.7852 12.0605 19.873 11.8848 19.873 11.6602C19.873 11.2207 19.5312 10.8984 19.0918 10.8984C18.8867 10.8984 18.6523 10.9863 18.5059 11.1523L16.377 13.3887L15.6152 14.1895L15.6738 12.334L15.6738 0.839844C15.6738 0.380859 15.2832 0 14.8242 0Z" fill="black" fill-opacity="0.85"/>
 </g>
</svg>
