<?xml version="1.0" ?><!-- Generator: Adobe Illustrator 25.0.0, SVG Export Plug-In . SVG Version: 6.00 Build 0)  --><svg xmlns="http://www.w3.org/2000/svg" xmlns:xlink="http://www.w3.org/1999/xlink" version="1.1" id="Layer_1" x="0px" y="0px" viewBox="0 0 512 512" style="enable-background:new 0 0 512 512;" xml:space="preserve">
<path d="M0,340.9c0,37.6,18.5,55.2,55.2,55.2h134.4l-6.2,41.4h-24.3c-9.4,0-17.2,7.9-17.2,17.6c0,9.4,7.7,17.2,17.2,17.2h195.7  c9.7,0,17.4-7.7,17.4-17.2c0-9.7-7.7-17.6-17.4-17.6h-26.4l-6-41.4h134.4c36.7,0,55.2-17.6,55.2-55.2V94.8  c0-37.6-18.5-55.2-55.2-55.2H55.2C18.5,39.6,0,57.2,0,94.8V340.9z M34.6,340.5v-245c0-15.2,6.4-21.3,21.3-21.3h400.3  c14.6,0,21.3,6,21.3,21.3v245c0,15-6.7,21-21.3,21H55.8C41,361.6,34.6,355.5,34.6,340.5z"/>
</svg>