<?xml version="1.0" encoding="UTF-8"?>
<!--Generator: Apple Native CoreSVG 326-->
<!DOCTYPE svg
PUBLIC "-//W3C//DTD SVG 1.1//EN"
       "http://www.w3.org/Graphics/SVG/1.1/DTD/svg11.dtd">
<svg version="1.1" xmlns="http://www.w3.org/2000/svg" xmlns:xlink="http://www.w3.org/1999/xlink" viewBox="0 0 40.332 25.791">
 <g>
  <rect height="25.791" opacity="0" width="40.332" x="0" y="0"/>
  <path d="M27.9004 3.44727L27.9004 6.75781L20.1367 6.75781C18.1055 6.75781 17.0898 7.73438 17.0898 9.80469L17.0898 19.4727C17.0898 19.5501 17.0913 19.6259 17.097 19.6973L2.61719 19.6973C2.07031 19.6973 1.72852 19.3555 1.72852 18.8086L1.72852 3.44727C1.72852 2.90039 2.07031 2.55859 2.61719 2.55859L27.0117 2.55859C27.5586 2.55859 27.9004 2.90039 27.9004 3.44727Z" fill="black" fill-opacity="0.2125"/>
  <path d="M29.6289 3.4082L29.6289 6.75781L27.9004 6.75781L27.9004 3.44727C27.9004 2.90039 27.5586 2.55859 27.0117 2.55859L2.61719 2.55859C2.07031 2.55859 1.72852 2.90039 1.72852 3.44727L1.72852 18.8086C1.72852 19.3555 2.07031 19.6973 2.61719 19.6973L17.097 19.6973C17.1468 21.0803 17.6881 21.9404 18.7207 22.3108L18.7207 24.0527L18.8477 24.0527C19.3262 24.0527 19.7168 24.4434 19.7168 24.9316C19.7168 25.4102 19.3262 25.791 18.8477 25.791L10.7812 25.791C10.3027 25.791 9.91211 25.4102 9.91211 24.9316C9.91211 24.4434 10.3027 24.0527 10.7812 24.0527L10.9082 24.0527L10.9082 21.4258L2.57812 21.4258C0.976562 21.4258 0 20.4492 0 18.8477L0 3.4082C0 1.80664 0.976562 0.830078 2.57812 0.830078L27.0508 0.830078C28.6523 0.830078 29.6289 1.80664 29.6289 3.4082Z" fill="black" fill-opacity="0.85"/>
  <path d="M18.8184 19.4434L18.8184 9.84375C18.8184 8.88672 19.248 8.48633 20.1758 8.48633L36.8848 8.48633C37.8125 8.48633 38.2422 8.88672 38.2422 9.84375L38.2422 19.4434C38.2422 20.3906 37.8125 20.8008 36.8848 20.8008L20.1758 20.8008C19.248 20.8008 18.8184 20.3906 18.8184 19.4434Z" fill="black" fill-opacity="0.2125"/>
  <path d="M17.0898 19.4727C17.0898 21.543 18.1055 22.5293 20.1367 22.5293L36.9141 22.5293C38.9453 22.5293 39.9707 21.543 39.9707 19.4727L39.9707 9.80469C39.9707 7.73438 38.9453 6.75781 36.9141 6.75781L20.1367 6.75781C18.1055 6.75781 17.0898 7.73438 17.0898 9.80469ZM18.8184 19.4434L18.8184 9.84375C18.8184 8.88672 19.248 8.48633 20.1758 8.48633L36.8848 8.48633C37.8125 8.48633 38.2422 8.88672 38.2422 9.84375L38.2422 19.4434C38.2422 20.3906 37.8125 20.8008 36.8848 20.8008L20.1758 20.8008C19.248 20.8008 18.8184 20.3906 18.8184 19.4434ZM25.2637 24.541L31.7871 24.541L31.7871 21.5137L25.2637 21.5137ZM25.1465 25.791L31.9141 25.791C32.3926 25.791 32.7832 25.4102 32.7832 24.9316C32.7832 24.4434 32.3926 24.0527 31.9141 24.0527L25.1465 24.0527C24.6582 24.0527 24.2676 24.4434 24.2676 24.9316C24.2676 25.4102 24.6582 25.791 25.1465 25.791Z" fill="black" fill-opacity="0.85"/>
 </g>
</svg>
