<?xml version="1.0" encoding="UTF-8"?>
<!--Generator: Apple Native CoreSVG 326-->
<!DOCTYPE svg
PUBLIC "-//W3C//DTD SVG 1.1//EN"
       "http://www.w3.org/Graphics/SVG/1.1/DTD/svg11.dtd">
<svg version="1.1" xmlns="http://www.w3.org/2000/svg" xmlns:xlink="http://www.w3.org/1999/xlink" viewBox="0 0 31.8555 28.6426">
 <g>
  <rect height="28.6426" opacity="0" width="31.8555" x="0" y="0"/>
  <path d="M0.800781 28.6426C1.2207 28.6426 1.5918 28.3105 1.5918 27.8906L1.5918 0.751953C1.5918 0.332031 1.2207 0 0.800781 0C0.371094 0 0 0.332031 0 0.751953L0 27.8906C0 28.3105 0.371094 28.6426 0.800781 28.6426ZM18.7598 28.6426C19.1797 28.6426 19.5508 28.3105 19.5508 27.8906L19.5508 0.751953C19.5508 0.332031 19.1797 0 18.7598 0C18.3301 0 17.959 0.332031 17.959 0.751953L17.959 27.8906C17.959 28.3105 18.3301 28.6426 18.7598 28.6426Z" fill="black" fill-opacity="0.85"/>
  <path d="M6.34766 26.1426L10.957 26.1426C12.6074 26.1426 13.5352 25.2051 13.5352 23.5254L13.5352 5.11719C13.5352 3.4375 12.6074 2.5 10.957 2.5L6.34766 2.5C4.69727 2.5 3.76953 3.4375 3.76953 5.11719L3.76953 23.5254C3.76953 25.2051 4.69727 26.1426 6.34766 26.1426ZM6.44531 24.5117C5.78125 24.5117 5.40039 24.1309 5.40039 23.4863L5.40039 5.14648C5.40039 4.51172 5.78125 4.13086 6.44531 4.13086L10.8594 4.13086C11.5234 4.13086 11.9043 4.51172 11.9043 5.14648L11.9043 23.4863C11.9043 24.1309 11.5234 24.5117 10.8594 24.5117ZM24.3164 21.7773L28.916 21.7773C30.5664 21.7773 31.4941 20.8398 31.4941 19.1504L31.4941 9.48242C31.4941 7.80273 30.5664 6.86523 28.916 6.86523L24.3164 6.86523C22.6562 6.86523 21.7285 7.80273 21.7285 9.48242L21.7285 19.1504C21.7285 20.8398 22.6562 21.7773 24.3164 21.7773ZM24.4043 20.1367C23.7402 20.1367 23.3594 19.7656 23.3594 19.1211L23.3594 9.52148C23.3594 8.87695 23.7402 8.49609 24.4043 8.49609L28.8281 8.49609C29.4824 8.49609 29.8633 8.87695 29.8633 9.52148L29.8633 19.1211C29.8633 19.7656 29.4824 20.1367 28.8281 20.1367Z" fill="black" fill-opacity="0.85"/>
 </g>
</svg>
