<?xml version="1.0" encoding="UTF-8"?>
<!--Generator: Apple Native CoreSVG 326-->
<!DOCTYPE svg
PUBLIC "-//W3C//DTD SVG 1.1//EN"
       "http://www.w3.org/Graphics/SVG/1.1/DTD/svg11.dtd">
<svg version="1.1" xmlns="http://www.w3.org/2000/svg" xmlns:xlink="http://www.w3.org/1999/xlink" viewBox="0 0 29.7461 29.7559">
 <g>
  <rect height="29.7559" opacity="0" width="29.7461" x="0" y="0"/>
  <path d="M0.751953 12.8516L28.623 12.8516C29.0527 12.8516 29.3848 12.4805 29.3848 12.0605C29.3848 11.6309 29.0527 11.2598 28.623 11.2598L0.751953 11.2598C0.332031 11.2598 0 11.6309 0 12.0605C0 12.4805 0.332031 12.8516 0.751953 12.8516ZM0.751953 29.7363L28.623 29.7363C29.0527 29.7363 29.3848 29.3652 29.3848 28.9453C29.3848 28.5156 29.0527 28.1445 28.623 28.1445L0.751953 28.1445C0.332031 28.1445 0 28.5156 0 28.9453C0 29.3652 0.332031 29.7363 0.751953 29.7363Z" fill="black" fill-opacity="0.85"/>
  <path d="M9.85352 9.08203L19.5312 9.08203C21.2109 9.08203 22.1484 8.1543 22.1484 6.50391L22.1484 2.57812C22.1484 0.927734 21.2109 0 19.5312 0L9.85352 0C8.17383 0 7.23633 0.927734 7.23633 2.57812L7.23633 6.50391C7.23633 8.1543 8.17383 9.08203 9.85352 9.08203ZM9.89258 7.45117C9.24805 7.45117 8.86719 7.07031 8.86719 6.41602L8.86719 2.67578C8.86719 2.01172 9.24805 1.63086 9.89258 1.63086L19.4922 1.63086C20.1367 1.63086 20.5176 2.01172 20.5176 2.67578L20.5176 6.41602C20.5176 7.07031 20.1367 7.45117 19.4922 7.45117ZM5.48828 25.9668L23.8965 25.9668C25.5762 25.9668 26.5137 25.0391 26.5137 23.3887L26.5137 19.4629C26.5137 17.8125 25.5762 16.8848 23.8965 16.8848L5.48828 16.8848C3.80859 16.8848 2.87109 17.8125 2.87109 19.4629L2.87109 23.3887C2.87109 25.0391 3.80859 25.9668 5.48828 25.9668ZM5.52734 24.3359C4.88281 24.3359 4.50195 23.9551 4.50195 23.3008L4.50195 19.5605C4.50195 18.8965 4.88281 18.5156 5.52734 18.5156L23.8574 18.5156C24.502 18.5156 24.8828 18.8965 24.8828 19.5605L24.8828 23.3008C24.8828 23.9551 24.502 24.3359 23.8574 24.3359Z" fill="black" fill-opacity="0.85"/>
 </g>
</svg>
