<?xml version="1.0" encoding="UTF-8"?>
<!--Generator: Apple Native CoreSVG 326-->
<!DOCTYPE svg
PUBLIC "-//W3C//DTD SVG 1.1//EN"
       "http://www.w3.org/Graphics/SVG/1.1/DTD/svg11.dtd">
<svg version="1.1" xmlns="http://www.w3.org/2000/svg" xmlns:xlink="http://www.w3.org/1999/xlink" viewBox="0 0 25.5273 28.6426">
 <g>
  <rect height="28.6426" opacity="0" width="25.5273" x="0" y="0"/>
  <path d="M5.68359 27.8906C5.68359 28.3105 5.3125 28.6426 4.88281 28.6426C4.46289 28.6426 4.0918 28.3105 4.0918 27.8906L4.0918 25.5664L5.68359 25.5664ZM21.084 27.8906C21.084 28.3105 20.7129 28.6426 20.293 28.6426C19.8633 28.6426 19.4922 28.3105 19.4922 27.8906L19.4922 21.7773L21.084 21.7773ZM21.084 0.751953L21.084 6.86523L19.4922 6.86523L19.4922 0.751953C19.4922 0.332031 19.8633 0 20.293 0C20.7129 0 21.084 0.332031 21.084 0.751953ZM5.68359 0.751953L5.68359 3.07617L4.0918 3.07617L4.0918 0.751953C4.0918 0.332031 4.46289 0 4.88281 0C5.3125 0 5.68359 0.332031 5.68359 0.751953Z" fill="black" fill-opacity="0.85"/>
  <path d="M2.57812 25.5664L7.1875 25.5664C8.83789 25.5664 9.76562 24.6289 9.76562 22.9492L9.76562 5.69336C9.76562 4.00391 8.83789 3.07617 7.1875 3.07617L2.57812 3.07617C0.927734 3.07617 0 4.00391 0 5.69336L0 22.9492C0 24.6289 0.927734 25.5664 2.57812 25.5664ZM2.66602 23.9355C2.01172 23.9355 1.63086 23.5547 1.63086 22.9199L1.63086 5.72266C1.63086 5.07812 2.01172 4.70703 2.66602 4.70703L7.08984 4.70703C7.75391 4.70703 8.13477 5.07812 8.13477 5.72266L8.13477 22.9199C8.13477 23.5547 7.75391 23.9355 7.08984 23.9355ZM17.9883 21.7773L22.5879 21.7773C24.2383 21.7773 25.166 20.8398 25.166 19.1504L25.166 9.48242C25.166 7.80273 24.2383 6.86523 22.5879 6.86523L17.9883 6.86523C16.3281 6.86523 15.4102 7.80273 15.4102 9.48242L15.4102 19.1504C15.4102 20.8398 16.3281 21.7773 17.9883 21.7773ZM18.0762 20.1367C17.4121 20.1367 17.041 19.7656 17.041 19.1211L17.041 9.52148C17.041 8.87695 17.4121 8.49609 18.0762 8.49609L22.5 8.49609C23.1543 8.49609 23.5352 8.87695 23.5352 9.52148L23.5352 19.1211C23.5352 19.7656 23.1543 20.1367 22.5 20.1367Z" fill="black" fill-opacity="0.85"/>
 </g>
</svg>
