<?xml version="1.0" encoding="UTF-8"?>
<!--Generator: Apple Native CoreSVG 326-->
<!DOCTYPE svg
PUBLIC "-//W3C//DTD SVG 1.1//EN"
       "http://www.w3.org/Graphics/SVG/1.1/DTD/svg11.dtd">
<svg version="1.1" xmlns="http://www.w3.org/2000/svg" xmlns:xlink="http://www.w3.org/1999/xlink" viewBox="0 0 30.1172 26.123">
 <g>
  <rect height="26.123" opacity="0" width="30.1172" x="0" y="0"/>
  <path d="M3.1543 22.0703L0.751953 22.0703C0.332031 22.0703 0 21.6992 0 21.2695C0 20.8496 0.332031 20.4785 0.751953 20.4785L3.1543 20.4785ZM29.7559 21.2695C29.7559 21.6992 29.4238 22.0703 29.0039 22.0703L26.6016 22.0703L26.6016 20.4785L29.0039 20.4785C29.4238 20.4785 29.7559 20.8496 29.7559 21.2695ZM7.5293 5.625L0.751953 5.625C0.332031 5.625 0 5.25391 0 4.83398C0 4.41406 0.332031 4.0332 0.751953 4.0332L7.5293 4.0332ZM29.3848 4.83398C29.3848 5.25391 29.0527 5.625 28.623 5.625L22.2363 5.625L22.2363 4.0332L28.623 4.0332C29.0527 4.0332 29.3848 4.41406 29.3848 4.83398Z" fill="black" fill-opacity="0.85"/>
  <path d="M10.1465 9.66797L19.6191 9.66797C21.2988 9.66797 22.2363 8.74023 22.2363 7.08984L22.2363 2.57812C22.2363 0.927734 21.2988 0 19.6191 0L10.1465 0C8.4668 0 7.5293 0.927734 7.5293 2.57812L7.5293 7.08984C7.5293 8.74023 8.4668 9.66797 10.1465 9.66797ZM10.1758 8.03711C9.53125 8.03711 9.16016 7.65625 9.16016 7.00195L9.16016 2.66602C9.16016 2.01172 9.53125 1.63086 10.1758 1.63086L19.5801 1.63086C20.2246 1.63086 20.6055 2.01172 20.6055 2.66602L20.6055 7.00195C20.6055 7.65625 20.2246 8.03711 19.5801 8.03711ZM5.78125 26.1133L23.9844 26.1133C25.6641 26.1133 26.6016 25.1855 26.6016 23.5352L26.6016 19.0137C26.6016 17.3633 25.6641 16.4355 23.9844 16.4355L5.78125 16.4355C4.0918 16.4355 3.1543 17.3633 3.1543 19.0137L3.1543 23.5352C3.1543 25.1855 4.0918 26.1133 5.78125 26.1133ZM5.81055 24.4824C5.16602 24.4824 4.79492 24.1016 4.79492 23.4375L4.79492 19.1113C4.79492 18.4473 5.16602 18.0664 5.81055 18.0664L23.9453 18.0664C24.5898 18.0664 24.9707 18.4473 24.9707 19.1113L24.9707 23.4375C24.9707 24.1016 24.5898 24.4824 23.9453 24.4824Z" fill="black" fill-opacity="0.85"/>
 </g>
</svg>
