<?xml version="1.0" ?><!-- Generator: Adobe Illustrator 25.0.0, SVG Export Plug-In . SVG Version: 6.00 Build 0)  --><svg xmlns="http://www.w3.org/2000/svg" xmlns:xlink="http://www.w3.org/1999/xlink" version="1.1" id="Layer_1" x="0px" y="0px" viewBox="0 0 512 512" style="enable-background:new 0 0 512 512;" xml:space="preserve">
<path d="M87.3,512h337.3c58.4,0,87.3-28.9,87.3-86.2V86.2C512,28.9,483.1,0,424.7,0H87.3C29.2,0,0,28.6,0,86.2v339.6  C0,483.4,29.2,512,87.3,512z M87.9,467.2c-27.8,0-43.1-14.7-43.1-43.7V88.4c0-28.9,15.3-43.7,43.1-43.7h336.2  c27.5,0,43.1,14.7,43.1,43.7v335.1c0,28.9-15.6,43.7-43.1,43.7H87.9z M255.6,186.3c20,0,34.2-13.3,34.2-30.6  c0-19.7-13.9-33.4-34.2-33.4c-18.6,0-33.1,13.9-33.1,33.4C222.5,173,236.9,186.3,255.6,186.3z M148,279.2h216.6  c15.6,0,26.1-8.3,26.1-23.1c0-15-10-23.4-26.1-23.4H148c-16.1,0-26.4,8.3-26.4,23.4C121.5,270.9,132.4,279.2,148,279.2z   M255.6,389.4c20,0,34.2-13.6,34.2-30.9c0-19.5-13.9-33.1-34.2-33.1c-18.6,0-33.1,13.6-33.1,33.1  C222.5,375.7,236.9,389.4,255.6,389.4z"/>
</svg>