<?xml version="1.0" ?><!-- Generator: Adobe Illustrator 25.0.0, SVG Export Plug-In . SVG Version: 6.00 Build 0)  --><svg xmlns="http://www.w3.org/2000/svg" xmlns:xlink="http://www.w3.org/1999/xlink" version="1.1" id="Layer_1" x="0px" y="0px" viewBox="0 0 512 512" style="enable-background:new 0 0 512 512;" xml:space="preserve">
<path d="M256,512c140,0,256-116.2,256-256C512,116,395.8,0,255.7,0C116,0,0,116,0,256C0,395.8,116.2,512,256,512z M255.2,191.7  c-17.3,0-30.9-12.5-30.9-28.6c0-18.3,13.6-31.4,30.9-31.4c19.1,0,31.9,12.8,31.9,31.4C287.1,179.2,274.1,191.7,255.2,191.7z   M155.1,278.1c-14.8,0-24.6-7.8-24.6-21.6c0-14.1,9.3-21.8,24.6-21.8h201.5c15.1,0,24.3,7.8,24.3,21.8c0,13.8-9.8,21.6-24.3,21.6  H155.1z M255.2,380.7c-17.3,0-30.9-12.8-30.9-28.9c0-18.3,13.6-31.1,30.9-31.1c19.1,0,31.9,12.8,31.9,31.1  C287.1,367.9,274.1,380.7,255.2,380.7z"/>
</svg>