<?xml version="1.0" ?><!-- Generator: Adobe Illustrator 25.0.0, SVG Export Plug-In . SVG Version: 6.00 Build 0)  --><svg xmlns="http://www.w3.org/2000/svg" xmlns:xlink="http://www.w3.org/1999/xlink" version="1.1" id="Layer_1" x="0px" y="0px" viewBox="0 0 512 512" style="enable-background:new 0 0 512 512;" xml:space="preserve">
<path d="M256,119.3c25.4,0,45.9-20.8,45.9-45.6c0-25.4-20.5-45.9-45.9-45.9c-25.1,0-45.6,20.5-45.6,45.9  C210.4,98.5,230.9,119.3,256,119.3z M27.6,282.8h456.8c14.9,0,27.6-12.7,27.6-27.9c0-15.2-12.7-27.6-27.6-27.6H27.6  C12.7,227.3,0,239.7,0,254.9C0,270.1,12.7,282.8,27.6,282.8z M256,484.2c25.4,0,45.9-20.5,45.9-45.9c0-25.1-20.5-45.6-45.9-45.6  c-25.1,0-45.6,20.5-45.6,45.6C210.4,463.7,230.9,484.2,256,484.2z"/>
</svg>