<?xml version="1.0" ?><!-- Generator: Adobe Illustrator 25.0.0, SVG Export Plug-In . SVG Version: 6.00 Build 0)  --><svg xmlns="http://www.w3.org/2000/svg" xmlns:xlink="http://www.w3.org/1999/xlink" version="1.1" id="Layer_1" x="0px" y="0px" viewBox="0 0 512 512" style="enable-background:new 0 0 512 512;" xml:space="preserve">
<path d="M256,512c140,0,256-116.2,256-256C512,116,395.8,0,255.7,0C116,0,0,116,0,256C0,395.8,116.2,512,256,512z M256,469.3  c-118.5,0-213.1-94.9-213.1-213.3S137.3,42.7,255.7,42.7S469.1,137.5,469.3,256S374.5,469.3,256,469.3z M255.2,193.8  c18.1,0,30.9-12,30.9-27.6c0-17.8-12.5-30.1-30.9-30.1c-16.8,0-29.9,12.3-29.9,30.1C225.4,181.7,238.4,193.8,255.2,193.8z   M158.1,277.3h195.5c14.1,0,23.6-7.3,23.6-20.6c0-13.8-9-21.3-23.6-21.3H158.1c-14.8,0-23.8,7.5-23.8,21.3  C134.3,270.1,143.8,277.3,158.1,277.3z M255.2,377c18.1,0,30.9-12.3,30.9-27.9c0-17.8-12.5-29.9-30.9-29.9  c-16.8,0-29.9,12-29.9,29.9C225.4,364.7,238.4,377,255.2,377z"/>
</svg>