<?xml version="1.0" ?><!-- Generator: Adobe Illustrator 25.0.0, SVG Export Plug-In . SVG Version: 6.00 Build 0)  --><svg xmlns="http://www.w3.org/2000/svg" xmlns:xlink="http://www.w3.org/1999/xlink" version="1.1" id="Layer_1" x="0px" y="0px" viewBox="0 0 512 512" style="enable-background:new 0 0 512 512;" xml:space="preserve">
<path d="M63.9,440.5c0,47.8,23.5,71.5,70.8,71.5h242.6c47.3,0,70.8-23.8,70.8-71.5V93.9c0-47.5-23.5-71.7-70.8-71.7h-87.5l-2.1-8.9  c-2.1-8-8.9-13.3-17.4-13.3h-28.8c-8.5,0-15.3,5.3-17.4,13.3l-2.1,8.9h-87.5c-47.3,0-70.8,24.2-70.8,71.7V440.5z M100.6,439.8V94.6  c0-22.8,12.1-35.6,35.9-35.6h77.2l-11,48c-1.4,6.4-2.1,12.8-2.1,19.2c0,28.3,15.1,47.1,41.1,51.9v57.3h-39.8  c-8,0-14.2,5.9-14.2,13.7c0,8,6.2,14.4,14.2,14.4h39.8v33.8h-39.8c-8,0-14.2,5.9-14.2,13.7c0,8,6.2,14.4,14.2,14.4h39.8v33.8h-39.8  c-8,0-14.2,5.9-14.2,13.7c0,8,6.2,14.4,14.2,14.4h39.8v33.8h-39.8c-8,0-14.2,6.2-14.2,13.9c0,8,6.2,14.2,14.2,14.2h39.8v26H136.5  C112.7,475.2,100.6,462.7,100.6,439.8z M309.9,418.1c8,0,14.2-6.2,14.2-14.2c0-7.8-6.2-13.9-14.2-13.9h-39.8v-33.8h39.8  c8,0,14.2-6.2,14.2-14.2c0-7.8-6.2-13.9-14.2-13.9h-39.8v-33.8h39.8c8,0,14.2-6.2,14.2-14.2c0-7.8-6.2-13.9-14.2-13.9h-39.8v-33.8  h39.8c8,0,14.2-6.2,14.2-14.2c0-7.8-6.2-13.9-14.2-13.9h-39.8V178c26-4.8,41.1-23.5,41.1-51.9c0-6.4-0.7-12.8-2.1-19.2l-11-48h77.2  c23.8,0,35.9,12.8,35.9,35.6v345.2c0,22.8-12.1,35.4-35.9,35.4H270.2v-57.1H309.9z M256,149c-14.2,0-24.9-11-24.9-25.1  c0-13.9,11-24.9,24.9-24.9s24.9,11,24.9,24.9C280.9,138,270.4,149,256,149z"/>
</svg>