<?xml version="1.0" ?><!-- Generator: Adobe Illustrator 25.0.0, SVG Export Plug-In . SVG Version: 6.00 Build 0)  --><svg xmlns="http://www.w3.org/2000/svg" xmlns:xlink="http://www.w3.org/1999/xlink" version="1.1" id="Layer_1" x="0px" y="0px" viewBox="0 0 512 512" style="enable-background:new 0 0 512 512;" xml:space="preserve">
<path d="M161.4,118.7c-4.5,0-8.2-1.5-11.1-4.4c-2.9-2.9-4.4-6.6-4.4-10.9c0-4.3,1.5-7.9,4.4-10.9c2.9-2.9,6.6-4.4,11.1-4.4h198.4  c4.5,0,8.1,1.5,11,4.4c2.9,2.9,4.3,6.6,4.3,10.9c0,4.3-1.4,7.9-4.3,10.9c-2.9,2.9-6.5,4.4-11,4.4H161.4z M161.4,190.1  c-4.5,0-8.2-1.5-11.1-4.4c-2.9-2.9-4.4-6.6-4.4-10.9c0-4.1,1.5-7.7,4.4-10.6c2.9-2.9,6.6-4.4,11.1-4.4h116.3c4.5,0,8.2,1.5,11.1,4.4  c2.9,2.9,4.4,6.5,4.4,10.6c0,4.3-1.5,7.9-4.4,10.9c-2.9,2.9-6.6,4.4-11.1,4.4H161.4z M165.3,433.7c-10.5,0-18.6-2.8-24.4-8.4  c-5.7-5.6-8.6-13.8-8.6-24.6V264.1c0-11,2.9-19.2,8.6-24.7c5.7-5.5,13.9-8.2,24.4-8.2H347c21.8,0,32.7,11,32.7,33v136.6  c0,22-10.9,33-32.7,33H165.3z M55.2,437.3c0,25,6.2,43.7,18.5,56.1C86,505.8,104.5,512,129.2,512h253.6c24.7,0,43.2-6.2,55.5-18.6  c12.3-12.4,18.5-31.1,18.5-56.1V75c0-24.8-6.2-43.5-18.5-56.1C426,6.3,407.5,0,382.8,0H129.2C104.5,0,86,6.3,73.7,18.9  C61.3,31.4,55.2,50.1,55.2,75V437.3z"/>
</svg>