<?xml version="1.0" ?><!-- Generator: Adobe Illustrator 25.0.0, SVG Export Plug-In . SVG Version: 6.00 Build 0)  --><svg xmlns="http://www.w3.org/2000/svg" xmlns:xlink="http://www.w3.org/1999/xlink" version="1.1" id="Layer_1" x="0px" y="0px" viewBox="0 0 512 512" style="enable-background:new 0 0 512 512;" xml:space="preserve">
<path d="M47.9,448.1c0,42.5,21,63.9,63.1,63.9h191.3c42.1,0,63.1-21.6,63.1-63.9v-37.6H401c41.9,0,63.1-21.6,63.1-63.9V181.3  c0-25-5.1-40.9-20.4-56.6L341,20.3C326.5,5.5,309.4,0,287.6,0h-77.9c-41.9,0-63.1,21.6-63.1,63.9v37.6H111  c-41.9,0-63.1,21.4-63.1,63.9V448.1z M346,235L233.9,120.9c-15.5-15.9-28.3-19.3-51.1-19.3h-3.5v-37c0-20.1,10.8-31.7,31.9-31.7  h89.9v104.4c0,23.6,11.4,34.8,34.8,34.8h95.2v174c0,20.3-11,31.7-32.2,31.7h-33.8v-88.5C365.4,263.1,362.3,251.7,346,235z   M330.8,132.3V48.8l92,93.6h-82C333.6,142.4,330.8,139.4,330.8,132.3z M80.7,447.5V165.9c0-19.9,10.8-31.5,31.9-31.5h66.7v118  c0,25.6,13,38.5,38.3,38.5h115v156.7c0,20.3-11,31.7-31.9,31.7H112.4C91.5,479.2,80.7,467.8,80.7,447.5z M221.5,260.1  c-8.1,0-11.4-3.3-11.4-11.4V141.8l116.2,118.2H221.5z"/>
</svg>