<?xml version="1.0" ?><!-- Generator: Adobe Illustrator 25.0.0, SVG Export Plug-In . SVG Version: 6.00 Build 0)  --><svg xmlns="http://www.w3.org/2000/svg" xmlns:xlink="http://www.w3.org/1999/xlink" version="1.1" id="Layer_1" x="0px" y="0px" viewBox="0 0 512 512" style="enable-background:new 0 0 512 512;" xml:space="preserve">
<path d="M120,471.3h120.5c-11.4-9.9-21.3-22-28.6-35.4H122c-22.6,0-34.7-11.7-34.7-33.6V69.5c0-21.5,11.9-34.1,34.7-34.1h229.7  c22,0,34.5,12.3,34.5,34.1v191.9c13.4,7.3,25.5,16.9,35.4,28.6V69c0-46.2-22.6-69-68.1-69H120C74.7,0,51.9,23.1,51.9,69v333.3  C51.9,448.5,74.7,471.3,120,471.3z M153.7,125.1h166.6c7.7,0,13.6-6.2,13.6-13.8c0-7.5-5.9-13.2-13.6-13.2H153.7  c-8.1,0-13.8,5.7-13.8,13.2C139.8,118.9,145.5,125.1,153.7,125.1z M153.7,201.6h166.6c7.7,0,13.6-5.9,13.6-13.6  c0-7.5-5.9-13.4-13.6-13.4H153.7c-8.1,0-13.8,5.9-13.8,13.4C139.8,195.7,145.5,201.6,153.7,201.6z M322.9,471.3  c19.8,0,38.5-5.9,53.9-16l49.5,49.5c5.3,5.3,10.1,7.3,16,7.3c10.1,0,17.8-7.9,17.8-19.1c0-4.8-2.4-9.7-6.2-13.4l-50.1-50.3  c11.2-16,17.8-35.4,17.8-56.5c0-55-44.2-99.1-98.7-99.1c-54.5,0-99.1,44.6-99.1,99.1S268.4,471.3,322.9,471.3z M322.9,439.9  c-37.4,0-67.7-30.3-67.7-67.3c0-36.9,30.3-67.5,67.7-67.5c36.7,0,67.1,30.6,67.1,67.5C390,409.6,359.9,439.9,322.9,439.9z"/>
</svg>