<?xml version="1.0" ?><!-- Generator: Adobe Illustrator 25.0.0, SVG Export Plug-In . SVG Version: 6.00 Build 0)  --><svg xmlns="http://www.w3.org/2000/svg" xmlns:xlink="http://www.w3.org/1999/xlink" version="1.1" id="Layer_1" x="0px" y="0px" viewBox="0 0 512 512" style="enable-background:new 0 0 512 512;" xml:space="preserve">
<path d="M55.2,437.3c0,49.9,24.6,74.7,74,74.7h253.6c49.4,0,74-24.8,74-74.7V75c0-49.7-24.6-75-74-75H129.2c-49.4,0-74,25.3-74,75  V437.3z M93.6,436.5V75.7c0-23.9,12.7-37.3,37.5-37.3h249.8c24.8,0,37.5,13.4,37.5,37.3v360.8c0,23.9-12.7,37-37.5,37H131.1  C106.3,473.6,93.6,460.4,93.6,436.5z M148.3,228.1c6.4,0,10.5-3.3,12.7-11.5l8.1-23.6H214l8.6,23.6c2.1,7.9,6.2,11.5,12.4,11.5  c8.1,0,12.7-4.5,12.7-12.2c0-1.7-0.5-4.8-1.4-7.9l-35.1-97.2c-3.6-10-9.6-14.8-19.8-14.8c-9.6,0-15.3,4.8-18.9,14.8L137.3,208  c-1.2,2.9-1.7,6.2-1.7,7.9C135.6,223.5,140.4,228.1,148.3,228.1z M289.2,137.3H362c8.4,0,14.8-6.4,14.8-14.8  c0-8.1-6.4-14.6-14.8-14.6h-72.8c-8.8,0-15,6.4-15,14.6C274.1,130.9,280.4,137.3,289.2,137.3z M174.6,173.1l16.2-50.1h1.4l16.5,50.1  H174.6z M289.2,220.7H362c8.4,0,14.8-6.4,14.8-14.8c0-8.1-6.4-14.6-14.8-14.6h-72.8c-8.8,0-15,6.4-15,14.6  C274.1,214.2,280.4,220.7,289.2,220.7z M134.4,418.1h16.7l31.5-31.8c4.5-4.3,9.3-6,14.1-6c4.8,0,10,1.9,14.6,6l19.6,17.9l49-43.5  c5.5-4.8,11.2-6.9,16.7-6.9c6,0,12.2,1.9,16.5,6.9l47.8,54.9h16.7V301.6c0-21-11-31.8-32-31.8H166.7c-20.3,0-32.2,10.7-32.2,31.8  V418.1z M213.3,360.8c-14.3,0-25.8-11.9-25.8-25.8c0-14.3,11.5-26.3,25.8-25.8c14.1,0.5,25.8,11.5,25.8,25.8  C239,348.9,227.3,360.8,213.3,360.8z"/>
</svg>