<?xml version="1.0" encoding="UTF-8"?>
<!--Generator: Apple Native CoreSVG 326-->
<!DOCTYPE svg
PUBLIC "-//W3C//DTD SVG 1.1//EN"
       "http://www.w3.org/Graphics/SVG/1.1/DTD/svg11.dtd">
<svg version="1.1" xmlns="http://www.w3.org/2000/svg" xmlns:xlink="http://www.w3.org/1999/xlink" viewBox="0 0 29.9512 22.959">
 <g>
  <rect height="22.959" opacity="0" width="29.9512" x="0" y="0"/>
  <path d="M3.79883 22.959L25.7812 22.959C28.3105 22.959 29.5898 21.6797 29.5898 19.1992L29.5898 3.76953C29.5898 1.2793 28.3105 0 25.7812 0L3.79883 0C1.2793 0 0 1.26953 0 3.76953L0 19.1992C0 21.6992 1.2793 22.959 3.79883 22.959ZM3.83789 21.2305C2.4707 21.2305 1.72852 20.5078 1.72852 19.1016L1.72852 3.85742C1.72852 2.46094 2.4707 1.72852 3.83789 1.72852L25.752 1.72852C27.0898 1.72852 27.8516 2.46094 27.8516 3.85742L27.8516 19.1016C27.8516 20.5078 27.0898 21.2305 25.752 21.2305Z" fill="black" fill-opacity="0.85"/>
  <path d="M5.27344 18.0566C5.27344 18.7207 5.72266 19.1504 6.39648 19.1504L23.2227 19.1504C23.8965 19.1504 24.3457 18.7207 24.3457 18.0566L24.3457 16.25C24.3457 15.5957 23.8965 15.1562 23.2227 15.1562L6.39648 15.1562C5.72266 15.1562 5.27344 15.5957 5.27344 16.25Z" fill="black" fill-opacity="0.85"/>
  <path d="M14.8047 4.11133C14.3359 4.11133 13.9453 4.49219 13.9453 4.94141L13.9453 8.95508L14.0137 11.2109L12.5781 9.72656L10.9961 8.14453C10.8398 7.97852 10.6152 7.89062 10.4004 7.89062C9.93164 7.89062 9.60938 8.20312 9.60938 8.65234C9.60938 8.91602 9.72656 9.11133 9.92188 9.29688L14.1699 13.3105C14.4043 13.5254 14.5703 13.6035 14.8047 13.6035C15.0293 13.6035 15.2051 13.5156 15.4297 13.3105L19.6777 9.29688C19.873 9.11133 19.9902 8.91602 19.9902 8.65234C19.9902 8.20312 19.6582 7.89062 19.1895 7.89062C18.9746 7.89062 18.7695 7.97852 18.6035 8.14453L17.0215 9.72656L15.5859 11.2109L15.6543 8.95508L15.6543 4.94141C15.6543 4.49219 15.2637 4.11133 14.8047 4.11133Z" fill="black" fill-opacity="0.85"/>
 </g>
</svg>
