<?xml version="1.0" encoding="UTF-8"?>
<!--Generator: Apple Native CoreSVG 326-->
<!DOCTYPE svg
PUBLIC "-//W3C//DTD SVG 1.1//EN"
       "http://www.w3.org/Graphics/SVG/1.1/DTD/svg11.dtd">
<svg version="1.1" xmlns="http://www.w3.org/2000/svg" xmlns:xlink="http://www.w3.org/1999/xlink" viewBox="0 0 29.0625 34.5605">
 <g>
  <rect height="34.5605" opacity="0" width="29.0625" x="0" y="0"/>
  <path d="M27.1484 5.32227L27.1484 23.0273C27.1484 25.5469 25.8789 26.8262 23.3789 26.8262L22.5977 26.8262L22.5977 18.9746C22.5977 17.4512 22.3535 16.3281 21.0352 14.9902L14.0625 7.91992C12.5977 6.42578 11.6016 6.14258 10.0586 6.14258L7.66602 6.14258L7.66602 5.32227C7.66602 2.79297 8.92578 1.52344 11.4258 1.52344L23.3789 1.52344C25.8789 1.52344 27.1484 2.79297 27.1484 5.32227ZM14.4141 4.0332C13.9062 4.0332 13.6621 4.36523 13.6621 4.72656L13.6621 4.9707C13.6621 5.33203 13.9062 5.66406 14.4141 5.66406L20.3906 5.66406C20.9082 5.66406 21.1426 5.33203 21.1426 4.9707L21.1426 4.72656C21.1426 4.36523 20.9082 4.0332 20.3906 4.0332Z" fill="black" fill-opacity="0.85"/>
  <path d="M1.55273 29.1992C1.55273 31.7285 2.82227 32.998 5.32227 32.998L17.2754 32.998C19.7754 32.998 21.0352 31.7188 21.0352 29.1992L21.0352 18.9746L12.3145 18.9746C10.791 18.9746 10.0586 18.2422 10.0586 16.7188L10.0586 7.69531L5.32227 7.69531C2.83203 7.69531 1.55273 8.98438 1.55273 11.4941ZM12.334 17.4121L20.8008 17.4121C20.6836 16.9824 20.4102 16.5723 19.9219 16.0742L12.959 9.01367C12.4707 8.51562 12.0508 8.17383 11.6211 8.05664L11.6211 16.6992C11.6211 17.1777 11.8555 17.4121 12.334 17.4121Z" fill="black" fill-opacity="0.85"/>
 </g>
</svg>
