<?xml version="1.0" encoding="UTF-8"?>
<!--Generator: Apple Native CoreSVG 326-->
<!DOCTYPE svg
PUBLIC "-//W3C//DTD SVG 1.1//EN"
       "http://www.w3.org/Graphics/SVG/1.1/DTD/svg11.dtd">
<svg version="1.1" xmlns="http://www.w3.org/2000/svg" xmlns:xlink="http://www.w3.org/1999/xlink" viewBox="0 0 33.6426 28.1152">
 <g>
  <rect height="28.1152" opacity="0" width="33.6426" x="0" y="0"/>
  <path d="M2.1582 27.9102L4.59961 27.9102C5.9668 27.9102 6.79688 27.0312 6.79688 25.9375C6.79688 24.8633 6.21094 24.3555 5.07812 24.2578C4.54102 24.209 4.54102 23.5352 5.01953 23.4863C8.05664 23.0957 9.82422 21.416 10.1855 18.6328C12.0312 19.9805 15.3418 20.2051 18.3496 19.7559C18.3105 21.5332 18.0371 24.209 18.0371 25.498C18.0371 26.9531 18.9648 27.9102 20.3809 27.9102L22.4805 27.9102C23.8477 27.9102 24.6582 27.0312 24.6582 25.9961C24.6582 25 24.209 24.502 22.7832 24.2578C22.5195 24.209 22.373 24.0137 22.4414 23.7305C22.666 22.4707 23.4668 19.668 23.877 18.4961C24.7168 16.0645 25.8984 14.3262 25.8984 11.7871C25.8984 10.4785 26.2695 9.78516 26.5527 9.42383C27.5488 10.0293 28.291 10.293 29.209 10.293C31.2793 10.293 33.2812 8.14453 33.2812 5.9668C33.2812 4.80469 32.2754 4.70703 30.9961 3.92578C29.9023 3.22266 29.3359 2.36328 28.4863 1.875C28.1641 3.4082 26.9824 5.9375 24.8828 5.9375C23.5742 5.9375 22.627 4.94141 22.0312 3.83789C21.0254 5.22461 20.6738 6.43555 18.0566 7.39258L7.26562 8.25195C6.96289 8.27148 6.71875 8.35938 6.57227 8.42773L5.5957 7.26562C4.16016 5.54688 1.85547 7.54883 3.30078 9.22852L4.36523 10.4688C3.85742 11.709 3.59375 13.1152 3.59375 14.8633C3.59375 17.6172 3.38867 18.3691 2.49023 19.0918C0.673828 20.5273 0 21.5332 0 23.2324L0 25.6738C0 27.002 0.888672 27.9102 2.1582 27.9102ZM29.1309 6.11328C28.6914 6.11328 28.3594 5.78125 28.3594 5.35156C28.3594 4.91211 28.6914 4.58984 29.1309 4.58984C29.5508 4.58984 29.8828 4.91211 29.8828 5.35156C29.8828 5.78125 29.5508 6.11328 29.1309 6.11328ZM24.8828 4.90234C26.6113 4.90234 27.5293 1.91406 27.5293 1.11328C27.5293 0.380859 27.1484 0 26.416 0L23.3496 0C22.627 0 22.2363 0.380859 22.2363 1.11328C22.2363 1.91406 23.1445 4.90234 24.8828 4.90234Z" fill="black" fill-opacity="0.85"/>
 </g>
</svg>
