<?xml version="1.0" ?><!-- Generator: Adobe Illustrator 25.0.0, SVG Export Plug-In . SVG Version: 6.00 Build 0)  --><svg xmlns="http://www.w3.org/2000/svg" xmlns:xlink="http://www.w3.org/1999/xlink" version="1.1" id="Layer_1" x="0px" y="0px" viewBox="0 0 512 512" style="enable-background:new 0 0 512 512;" xml:space="preserve">
<path d="M87.3,512h337.3c58.4,0,87.3-28.9,87.3-86.2V86.2C512,28.9,483.1,0,424.7,0H87.3C29.2,0,0,28.6,0,86.2v339.6  C0,483.4,29.2,512,87.3,512z M256.1,419.4c-7.8,0-13.6-5.6-13.6-13.6v-20.6c-38.4-3.6-70.4-24.8-78.4-57.8c-0.8-2.8-1.4-5.8-1.4-8.9  c0-10,7-17,16.7-17c8.6,0,14.7,4.5,17.8,14.5c4.7,18.9,19.7,33.4,45.3,37v-84.5l-1.9-0.6c-47.8-11.4-72.3-33.1-72.3-69.5  c0-39.2,30.9-66.5,74.3-71.2v-19.7c0-8.1,5.8-13.6,13.6-13.6c7.8,0,13.9,5.6,13.9,13.6v19.7c36.7,4.2,65.9,25.6,73.4,56.5  c0.6,3.1,1.4,6.1,1.4,8.9c0,10-7.2,17-17,17c-9.2,0-14.7-5.6-17.5-14.2c-5.8-19.2-20-31.4-40.3-35V240l3.6,0.8  c49.8,8.9,75.1,32.5,75.1,71.5c0,43.4-34.5,69.2-78.7,73.4v20C270,413.8,263.9,419.4,256.1,419.4z M242.5,232.8v-72.6  c-24.2,4.2-38.7,18.9-38.7,36.2c0,17,11.4,28.4,36.7,35.9L242.5,232.8z M270,275.1v77.9c29.2-3.3,43.4-18.6,43.4-38.7  c0-18.1-9.7-30-37.5-37.5L270,275.1z"/>
</svg>