<?xml version="1.0" encoding="UTF-8"?>
<!--Generator: Apple Native CoreSVG 326-->
<!DOCTYPE svg
PUBLIC "-//W3C//DTD SVG 1.1//EN"
       "http://www.w3.org/Graphics/SVG/1.1/DTD/svg11.dtd">
<svg version="1.1" xmlns="http://www.w3.org/2000/svg" xmlns:xlink="http://www.w3.org/1999/xlink" viewBox="0 0 30.6563 25.459">
 <g>
  <rect height="25.459" opacity="0" width="30.6563" x="0" y="0"/>
  <path d="M15.1475 25.4395C22.169 25.4395 27.8623 19.7461 27.8623 12.7246C27.8623 5.70312 22.169 0 15.1475 0C8.12599 0 2.43263 5.70312 2.43263 12.7246L4.24904 12.7246C4.24904 6.69922 9.12208 1.82617 15.1475 1.82617C21.1729 1.82617 26.0459 6.69922 26.0459 12.7246C26.0459 18.75 21.1729 23.623 15.1475 23.623C11.417 23.623 8.08693 21.7285 6.18263 18.877C5.86037 18.4375 5.35255 18.3008 4.90333 18.5742C4.47365 18.8281 4.34669 19.4238 4.69826 19.9023C6.97365 23.252 10.8213 25.4395 15.1475 25.4395ZM0.801772 10.3613C0.000990731 10.3613-0.223619 10.9082 0.235366 11.543L3.0088 15.4883C3.3799 16.0254 3.91701 16.0156 4.27833 15.4883L7.05177 11.5332C7.49123 10.9082 7.27638 10.3613 6.48537 10.3613Z" fill="black" fill-opacity="0.85"/>
  <path d="M15.167 18.1543C17.2471 18.1543 19.1319 17.1875 19.1319 15.0781C19.1319 13.2422 17.6475 12.5195 15.9287 12.1191L14.7373 11.8359C13.6533 11.582 12.6279 11.1133 12.6279 10.0293C12.6279 8.7793 13.9658 8.23242 15.167 8.23242C16.4365 8.23242 17.3838 8.78906 17.7061 9.89258C17.8135 10.2344 18.0283 10.4004 18.3311 10.4004C18.624 10.4004 18.9365 10.2148 18.9365 9.83398C18.9365 8.29102 16.9834 7.11914 15.167 7.11914C13.2041 7.11914 11.3779 8.21289 11.3779 10.1172C11.3779 11.9336 12.9307 12.6367 14.4639 13.0078L15.6651 13.291C16.8272 13.5645 17.8819 13.9844 17.8819 15.1758C17.8819 16.582 16.5244 17.0605 15.1865 17.0605C13.7998 17.0605 12.794 16.5625 12.3936 15.3125C12.2666 14.9707 12.0713 14.834 11.7686 14.834C11.4365 14.834 11.1729 15.0488 11.1729 15.4102C11.1729 15.5273 11.1924 15.6543 11.2315 15.7812C11.6904 17.4414 13.5069 18.1543 15.167 18.1543ZM15.1475 19.6582C15.3526 19.6582 15.5283 19.4922 15.5283 19.2773L15.5283 6.05469C15.5283 5.83984 15.3526 5.67383 15.1475 5.67383C14.9424 5.67383 14.7666 5.83984 14.7666 6.05469L14.7666 19.2773C14.7666 19.4922 14.9424 19.6582 15.1475 19.6582Z" fill="black" fill-opacity="0.85"/>
 </g>
</svg>
