<?xml version="1.0" ?><!-- Generator: Adobe Illustrator 25.0.0, SVG Export Plug-In . SVG Version: 6.00 Build 0)  --><svg xmlns="http://www.w3.org/2000/svg" xmlns:xlink="http://www.w3.org/1999/xlink" version="1.1" id="Layer_1" x="0px" y="0px" viewBox="0 0 512 512" style="enable-background:new 0 0 512 512;" xml:space="preserve">
<path d="M256,512c140,0,256-116.2,256-256C512,116,395.8,0,255.7,0C116,0,0,116,0,256C0,395.8,116.2,512,256,512z M255.7,403.8  c-7,0-12.3-5-12.3-12.3V373c-34.6-3.3-63.5-22.3-70.8-52.2c-0.8-2.5-1.3-5.3-1.3-8c0-9,6.3-15.3,15.1-15.3c7.8,0,13.1,4,16.1,13.1  c4.3,17.1,17.8,30.1,40.9,33.4v-76.3l-1.8-0.5c-43.2-10.3-65.5-29.9-65.5-62.7c0-35.4,28.1-60,67.3-64.3v-17.8  c0-7.3,5.3-12.3,12.3-12.3c7,0,12.3,5,12.3,12.3V140c33.1,3.8,59.7,23.1,66.5,50.9c0.5,2.8,1.3,5.5,1.3,8c0,9-6.5,15.3-15.3,15.3  c-8.3,0-13.3-5-15.8-12.8c-5.3-17.3-18.1-28.4-36.6-31.6v72l3.5,0.8c44.9,8,67.8,29.4,67.8,64.5c0,39.2-31.4,62.5-71.3,66.3v18.1  C268,398.8,262.8,403.8,255.7,403.8z M243.4,235.4v-65.5c-21.8,3.8-35.1,17.1-35.1,32.6c0,15.3,10.3,25.6,33.4,32.4L243.4,235.4z   M268,273.6v70.3c26.4-3,39.2-16.8,39.2-34.9c0-16.3-8.5-27.1-33.6-33.9L268,273.6z"/>
</svg>