<?xml version="1.0" encoding="UTF-8"?>
<!--Generator: Apple Native CoreSVG 326-->
<!DOCTYPE svg
PUBLIC "-//W3C//DTD SVG 1.1//EN"
       "http://www.w3.org/Graphics/SVG/1.1/DTD/svg11.dtd">
<svg version="1.1" xmlns="http://www.w3.org/2000/svg" xmlns:xlink="http://www.w3.org/1999/xlink" viewBox="0 0 30.3809 25.0293">
 <g>
  <rect height="25.0293" opacity="0" width="30.3809" x="0" y="0"/>
  <path d="M30.0195 15.0098C30.0195 11.3281 28.6914 7.95898 26.4844 5.3418C26.2305 5.03906 25.8008 5.04883 25.5176 5.33203L22.6953 8.1543C22.4512 8.39844 22.4414 8.74023 22.6562 9.01367C23.9551 10.6738 24.7266 12.7441 24.7266 15.0098C24.7266 17.2754 23.9551 19.3555 22.5977 21.0742C22.4121 21.3086 22.4219 21.6016 22.627 21.8066L25.5176 24.707C25.8008 25 26.2207 24.9902 26.4844 24.6875C28.6914 22.0703 30.0195 18.6816 30.0195 15.0098Z" fill="black" fill-opacity="0.85"/>
  <path d="M15.0098 5.2832C17.2754 5.2832 19.3652 6.06445 21.0254 7.38281C21.2891 7.57812 21.6113 7.55859 21.8555 7.31445L24.6875 4.48242C24.9805 4.19922 24.9707 3.7793 24.668 3.51562C22.0605 1.32812 18.6816 0 15.0098 0C11.3379 0 7.95898 1.32812 5.35156 3.51562C5.04883 3.7793 5.03906 4.19922 5.32227 4.48242L8.16406 7.31445C8.39844 7.55859 8.75 7.56836 9.02344 7.35352C10.6738 6.06445 12.7539 5.2832 15.0098 5.2832Z" fill="black" fill-opacity="0.85"/>
  <path d="M0 15.0098C0 18.6816 1.32812 22.0703 3.53516 24.6875C3.78906 24.9902 4.21875 25 4.50195 24.707L7.39258 21.8066C7.58789 21.6016 7.60742 21.3086 7.42188 21.0742C6.06445 19.3555 5.2832 17.2754 5.2832 15.0098C5.2832 12.7441 6.05469 10.6738 7.36328 9.01367C7.56836 8.74023 7.56836 8.39844 7.32422 8.1543L4.49219 5.33203C4.20898 5.04883 3.78906 5.03906 3.52539 5.3418C1.31836 7.95898 0 11.3281 0 15.0098Z" fill="black" fill-opacity="0.85"/>
  <path d="M15.0098 20.6055C17.0898 20.6055 18.9746 19.6387 18.9746 17.5293C18.9746 15.6934 17.4902 14.9707 15.7812 14.5703L14.5801 14.2871C13.4961 14.0332 12.4805 13.5645 12.4805 12.4805C12.4805 11.2305 13.8086 10.6738 15.0098 10.6738C16.2891 10.6738 17.2363 11.2402 17.5488 12.334C17.6562 12.6758 17.8711 12.8516 18.1738 12.8516C18.4668 12.8516 18.7793 12.666 18.7793 12.2754C18.7793 10.7422 16.8262 9.57031 15.0098 9.57031C13.0469 9.57031 11.2305 10.6641 11.2305 12.5684C11.2305 14.375 12.7734 15.0879 14.3164 15.4492L15.5176 15.7324C16.6699 16.0156 17.7344 16.4355 17.7344 17.627C17.7344 19.0332 16.377 19.5117 15.0391 19.5117C13.6523 19.5117 12.6367 19.0137 12.2363 17.7637C12.1094 17.4219 11.9141 17.2754 11.6211 17.2754C11.2891 17.2754 11.0156 17.5 11.0156 17.8613C11.0156 17.9688 11.0449 18.0957 11.084 18.2324C11.543 19.8926 13.3496 20.6055 15.0098 20.6055ZM15 22.1094C15.2051 22.1094 15.3809 21.9336 15.3809 21.7285L15.3809 8.49609C15.3809 8.29102 15.2051 8.11523 15 8.11523C14.7852 8.11523 14.6191 8.29102 14.6191 8.49609L14.6191 21.7285C14.6191 21.9336 14.7852 22.1094 15 22.1094Z" fill="black" fill-opacity="0.85"/>
 </g>
</svg>
