<?xml version="1.0" ?><!-- Generator: Adobe Illustrator 25.0.0, SVG Export Plug-In . SVG Version: 6.00 Build 0)  --><svg xmlns="http://www.w3.org/2000/svg" xmlns:xlink="http://www.w3.org/1999/xlink" version="1.1" id="Layer_1" x="0px" y="0px" viewBox="0 0 512 512" style="enable-background:new 0 0 512 512;" xml:space="preserve">
<path d="M256,512c140,0,256-116.2,256-256C512,116,395.8,0,255.7,0C116,0,0,116,0,256C0,395.8,116.2,512,256,512z M163.1,265.3  c0-47.7,31.1-80.6,73.8-80.6c21.1,0,39.2,8.3,50.4,22.1v-41.2h-47.2c-7,0-12.3-5.3-12.3-12.3c0-7,5-12.5,12.3-12.5h47.2v-12  c0-10.3,6.5-16.6,16.1-16.6c9.8,0,16.3,6.3,16.3,16.6v12h16.6c7.3,0,12.3,5.5,12.3,12.5c0,7-5.3,12.3-12.3,12.3h-16.6v167.4  c0,9.5-6.3,15.8-15.3,15.8c-9.3,0-15.8-6.3-15.8-15.8v-10.3c-11.8,14.8-30.4,23.1-51.5,23.1C194.5,345.9,163.1,312.7,163.1,265.3z   M196.5,265.5c0,30.6,18.6,50.7,45.9,50.7c26.6,0,45.7-21.3,45.7-50.7c0-29.4-19.1-50.7-45.7-50.7  C215.1,214.8,196.5,234.9,196.5,265.5z M176.4,375.5c0-7,5.3-12.5,12.5-12.5h126.2c7.3,0,12.5,5.3,12.5,12.5c0,7-5.5,12.5-12.5,12.5  H189C182,388,176.4,382.5,176.4,375.5z"/>
</svg>