<?xml version="1.0" encoding="UTF-8"?>
<!--Generator: Apple Native CoreSVG 326-->
<!DOCTYPE svg
PUBLIC "-//W3C//DTD SVG 1.1//EN"
       "http://www.w3.org/Graphics/SVG/1.1/DTD/svg11.dtd">
<svg version="1.1" xmlns="http://www.w3.org/2000/svg" xmlns:xlink="http://www.w3.org/1999/xlink" viewBox="0 0 23.3203 22.959">
 <g>
  <rect height="22.959" opacity="0" width="23.3203" x="0" y="0"/>
  <path d="M22.959 3.76953L22.959 19.1992C22.959 21.6797 21.6797 22.959 19.1504 22.959L3.79883 22.959C1.2793 22.959 0 21.6992 0 19.1992L0 3.76953C0 1.26953 1.2793 0 3.79883 0L19.1504 0C21.6797 0 22.959 1.2793 22.959 3.76953ZM8.26172 16.6797C8.03711 16.6797 7.8418 16.8555 7.8418 17.0801C7.8418 17.3047 8.03711 17.4805 8.26172 17.4805L14.5605 17.4805C14.7754 17.4805 14.9707 17.3047 14.9707 17.0801C14.9707 16.8555 14.7754 16.6797 14.5605 16.6797ZM13.3008 5.625L13.3008 6.2207L10.8203 6.2207C10.5957 6.2207 10.4297 6.39648 10.4297 6.60156C10.4297 6.82617 10.5957 7.00195 10.8203 7.00195L13.3008 7.00195L13.3008 9.73633L13.2422 9.73633C12.793 8.70117 11.7578 8.21289 10.6152 8.21289C8.74023 8.21289 7.2168 9.6875 7.2168 11.9531C7.2168 14.0918 8.61328 15.7031 10.6152 15.7031C11.7383 15.7031 12.7832 15.2441 13.3008 14.1699L13.3398 14.1699L13.3398 15.2051C13.3398 15.5566 13.6133 15.8301 13.9648 15.8301C14.3262 15.8301 14.5898 15.5566 14.5898 15.2051L14.5898 7.00195L15.5762 7.00195C15.791 7.00195 15.9668 6.81641 15.9668 6.60156C15.9668 6.39648 15.791 6.2207 15.5762 6.2207L14.5898 6.2207L14.5898 5.625C14.5898 5.22461 14.3359 4.9707 13.9453 4.9707C13.5547 4.9707 13.3008 5.22461 13.3008 5.625ZM13.3008 11.9531C13.3008 13.457 12.334 14.5898 10.9375 14.5898C9.43359 14.5898 8.53516 13.4277 8.53516 11.9531C8.53516 10.4102 9.52148 9.32617 10.9375 9.32617C12.4121 9.32617 13.3008 10.5371 13.3008 11.9531Z" fill="black" fill-opacity="0.85"/>
 </g>
</svg>
