<?xml version="1.0" encoding="UTF-8"?>
<!--Generator: Apple Native CoreSVG 326-->
<!DOCTYPE svg
PUBLIC "-//W3C//DTD SVG 1.1//EN"
       "http://www.w3.org/Graphics/SVG/1.1/DTD/svg11.dtd">
<svg version="1.1" xmlns="http://www.w3.org/2000/svg" xmlns:xlink="http://www.w3.org/1999/xlink" viewBox="0 0 30.6563 25.459">
 <g>
  <rect height="25.459" opacity="0" width="30.6563" x="0" y="0"/>
  <path d="M15.1475 25.4395C22.169 25.4395 27.8623 19.7461 27.8623 12.7246C27.8623 5.70312 22.169 0 15.1475 0C8.12599 0 2.43263 5.70312 2.43263 12.7246L4.24904 12.7246C4.24904 6.69922 9.12208 1.82617 15.1475 1.82617C21.1729 1.82617 26.0459 6.69922 26.0459 12.7246C26.0459 18.75 21.1729 23.623 15.1475 23.623C11.417 23.623 8.08693 21.7285 6.18263 18.877C5.86037 18.4375 5.35255 18.3008 4.90333 18.5742C4.47365 18.8281 4.34669 19.4238 4.69826 19.9023C6.97365 23.252 10.8213 25.4395 15.1475 25.4395ZM0.801772 10.3613C0.000990731 10.3613-0.223619 10.9082 0.235366 11.543L3.0088 15.4883C3.3799 16.0254 3.91701 16.0156 4.27833 15.4883L7.05177 11.5332C7.49123 10.9082 7.27638 10.3613 6.48537 10.3613Z" fill="black" fill-opacity="0.85"/>
  <path d="M14.3076 16.8457C15.4014 16.8457 16.417 16.3965 16.9248 15.3418L16.9639 15.3418L16.9639 16.3574C16.9639 16.6992 17.2276 16.9629 17.5791 16.9629C17.9209 16.9629 18.1748 16.6992 18.1748 16.3574L18.1748 8.34961L19.1416 8.34961C19.3467 8.34961 19.5225 8.17383 19.5225 7.96875C19.5225 7.76367 19.3467 7.59766 19.1416 7.59766L18.1748 7.59766L18.1748 7.01172C18.1748 6.63086 17.9307 6.37695 17.5498 6.37695C17.169 6.37695 16.9346 6.63086 16.9346 7.01172L16.9346 7.59766L14.5029 7.59766C14.2881 7.59766 14.1221 7.76367 14.1221 7.96875C14.1221 8.18359 14.2881 8.34961 14.5029 8.34961L16.9346 8.34961L16.9346 11.0254L16.8662 11.0254C16.4268 10.0293 15.4209 9.54102 14.3076 9.54102C12.4717 9.54102 10.9873 10.9766 10.9873 13.1836C10.9873 15.2734 12.3545 16.8457 14.3076 16.8457ZM14.6201 15.7617C13.1455 15.7617 12.2666 14.6289 12.2666 13.1836C12.2666 11.6797 13.2334 10.6152 14.6201 10.6152C16.0557 10.6152 16.9248 11.7969 16.9248 13.1836C16.9248 14.6582 15.9776 15.7617 14.6201 15.7617ZM11.6026 18.1836C11.6026 18.4082 11.7881 18.5742 12.0029 18.5742L18.1455 18.5742C18.3604 18.5742 18.5459 18.4082 18.5459 18.1836C18.5459 17.9688 18.3604 17.793 18.1455 17.793L12.0029 17.793C11.7881 17.793 11.6026 17.9688 11.6026 18.1836Z" fill="black" fill-opacity="0.85"/>
 </g>
</svg>
