<?xml version="1.0" encoding="UTF-8"?>
<!--Generator: Apple Native CoreSVG 326-->
<!DOCTYPE svg
PUBLIC "-//W3C//DTD SVG 1.1//EN"
       "http://www.w3.org/Graphics/SVG/1.1/DTD/svg11.dtd">
<svg version="1.1" xmlns="http://www.w3.org/2000/svg" xmlns:xlink="http://www.w3.org/1999/xlink" viewBox="0 0 25.8008 25.459">
 <g>
  <rect height="25.459" opacity="0" width="25.8008" x="0" y="0"/>
  <path d="M25.4395 12.7246C25.4395 19.7266 19.7266 25.4395 12.7148 25.4395C5.71289 25.4395 0 19.7266 0 12.7246C0 5.71289 5.71289 0 12.7148 0C19.7266 0 25.4395 5.71289 25.4395 12.7246ZM9.49219 17.9297C9.26758 17.9297 9.07227 18.1055 9.07227 18.3301C9.07227 18.5547 9.26758 18.7305 9.49219 18.7305L15.791 18.7305C16.0059 18.7305 16.2012 18.5547 16.2012 18.3301C16.2012 18.1055 16.0059 17.9297 15.791 17.9297ZM14.541 6.875L14.541 7.4707L12.0508 7.4707C11.8262 7.4707 11.6602 7.64648 11.6602 7.85156C11.6602 8.07617 11.8262 8.25195 12.0508 8.25195L14.541 8.25195L14.541 10.9863L14.4727 10.9863C14.0234 9.95117 12.9883 9.46289 11.8457 9.46289C9.9707 9.46289 8.44727 10.9375 8.44727 13.2031C8.44727 15.3418 9.84375 16.9531 11.8457 16.9531C12.9688 16.9531 14.0137 16.4941 14.5312 15.4199L14.5703 15.4199L14.5703 16.4551C14.5703 16.8066 14.8438 17.0801 15.2051 17.0801C15.5566 17.0801 15.8203 16.8066 15.8203 16.4551L15.8203 8.25195L16.8066 8.25195C17.0215 8.25195 17.1973 8.06641 17.1973 7.85156C17.1973 7.64648 17.0215 7.4707 16.8066 7.4707L15.8203 7.4707L15.8203 6.875C15.8203 6.47461 15.5762 6.2207 15.1855 6.2207C14.7852 6.2207 14.541 6.47461 14.541 6.875ZM14.5312 13.2031C14.5312 14.707 13.5645 15.8398 12.168 15.8398C10.6641 15.8398 9.76562 14.6777 9.76562 13.2031C9.76562 11.6602 10.752 10.5762 12.168 10.5762C13.6426 10.5762 14.5312 11.7871 14.5312 13.2031Z" fill="black" fill-opacity="0.85"/>
 </g>
</svg>
