<?xml version="1.0" encoding="UTF-8"?>
<!--Generator: Apple Native CoreSVG 326-->
<!DOCTYPE svg
PUBLIC "-//W3C//DTD SVG 1.1//EN"
       "http://www.w3.org/Graphics/SVG/1.1/DTD/svg11.dtd">
<svg version="1.1" xmlns="http://www.w3.org/2000/svg" xmlns:xlink="http://www.w3.org/1999/xlink" viewBox="0 0 27.9395 26.5527">
 <g>
  <rect height="26.5527" opacity="0" width="27.9395" x="0" y="0"/>
  <path d="M15.2637 0.419922L26.0547 6.65039C26.4453 6.875 26.6211 7.1582 26.6211 7.48047C26.6211 7.91992 26.2891 8.33984 25.6934 8.33984L24.5605 8.33984L24.5605 23.252L25.3613 23.252C25.791 23.252 26.0449 23.5059 26.0449 23.9258L26.0449 24.8047L26.709 24.8047C27.1875 24.8047 27.5781 25.1953 27.5781 25.6738C27.5781 26.1426 27.1875 26.5332 26.709 26.5332L0.869141 26.5332C0.390625 26.5332 0 26.1426 0 25.6738C0 25.1953 0.390625 24.8047 0.869141 24.8047L1.5332 24.8047L1.5332 23.9258C1.5332 23.5059 1.78711 23.252 2.22656 23.252L3.02734 23.252L3.02734 8.33984L1.88477 8.33984C1.28906 8.33984 0.957031 7.91992 0.957031 7.48047C0.957031 7.1582 1.12305 6.875 1.52344 6.65039L12.3145 0.419922C12.7832 0.146484 13.3008 0 13.7891 0C14.2773 0 14.7852 0.146484 15.2637 0.419922ZM10.5664 19.5312C10.3418 19.5312 10.1465 19.7168 10.1465 19.9414C10.1465 20.166 10.3418 20.3418 10.5664 20.3418L16.8652 20.3418C17.0898 20.3418 17.2754 20.1562 17.2754 19.9414C17.2754 19.7168 17.0898 19.5312 16.8652 19.5312ZM15.6152 8.48633L15.6152 9.08203L13.125 9.08203C12.9102 9.08203 12.7344 9.24805 12.7344 9.46289C12.7344 9.6875 12.9102 9.86328 13.125 9.86328L15.6152 9.86328L15.6152 12.5977L15.5566 12.5977C15.0977 11.5625 14.0625 11.0742 12.9297 11.0742C11.0449 11.0742 9.52148 12.5488 9.52148 14.8145C9.52148 16.9531 10.9277 18.5547 12.9297 18.5547C14.043 18.5547 15.0879 18.0957 15.6055 17.0312L15.6543 17.0312L15.6543 18.0664C15.6543 18.418 15.9277 18.6914 16.2793 18.6914C16.6309 18.6914 16.8945 18.418 16.8945 18.0664L16.8945 9.86328L17.8906 9.86328C18.1055 9.86328 18.2715 9.67773 18.2715 9.46289C18.2715 9.24805 18.1055 9.08203 17.8906 9.08203L16.8945 9.08203L16.8945 8.48633C16.8945 8.08594 16.6504 7.83203 16.2598 7.83203C15.8594 7.83203 15.6152 8.08594 15.6152 8.48633ZM15.6152 14.8145C15.6152 16.3184 14.6387 17.4512 13.252 17.4512C11.748 17.4512 10.8398 16.2891 10.8398 14.8145C10.8398 13.2617 11.8262 12.1777 13.252 12.1777C14.7266 12.1777 15.6152 13.3984 15.6152 14.8145Z" fill="black" fill-opacity="0.85"/>
 </g>
</svg>
