<?xml version="1.0" encoding="UTF-8"?>
<!--Generator: Apple Native CoreSVG 326-->
<!DOCTYPE svg
PUBLIC "-//W3C//DTD SVG 1.1//EN"
       "http://www.w3.org/Graphics/SVG/1.1/DTD/svg11.dtd">
<svg version="1.1" xmlns="http://www.w3.org/2000/svg" xmlns:xlink="http://www.w3.org/1999/xlink" viewBox="0 0 28.291 27.9395">
 <g>
  <rect height="27.9395" opacity="0" width="28.291" x="0" y="0"/>
  <path d="M13.9648 27.9297C21.6406 27.9297 27.9297 21.6504 27.9297 13.9648C27.9297 6.2793 21.6406 0 13.9648 0C6.28906 0 0 6.2793 0 13.9648C0 21.6504 6.28906 27.9297 13.9648 27.9297ZM13.9648 23.3398C8.7793 23.3398 4.58008 19.1504 4.58008 13.9648C4.58008 8.7793 8.7793 4.58008 13.9648 4.58008C19.1504 4.58008 23.3496 8.7793 23.3496 13.9648C23.3496 19.1504 19.1504 23.3398 13.9648 23.3398Z" fill="black" fill-opacity="0.85"/>
  <path d="M13.125 18.0859C14.2188 18.0859 15.2246 17.6367 15.7324 16.582L15.7812 16.582L15.7812 17.5977C15.7812 17.9395 16.0449 18.2031 16.3867 18.2031C16.7383 18.2031 16.9824 17.9395 16.9824 17.5977L16.9824 9.58984L17.959 9.58984C18.1641 9.58984 18.3398 9.41406 18.3398 9.20898C18.3398 9.00391 18.1641 8.83789 17.959 8.83789L16.9824 8.83789L16.9824 8.25195C16.9824 7.87109 16.748 7.61719 16.3672 7.61719C15.9863 7.61719 15.7422 7.87109 15.7422 8.25195L15.7422 8.83789L13.3105 8.83789C13.1055 8.83789 12.9395 9.00391 12.9395 9.20898C12.9395 9.42383 13.1055 9.58984 13.3105 9.58984L15.7422 9.58984L15.7422 12.2656L15.6836 12.2656C15.2441 11.2695 14.2383 10.7812 13.125 10.7812C11.2891 10.7812 9.80469 12.2168 9.80469 14.4238C9.80469 16.5137 11.1719 18.0859 13.125 18.0859ZM13.4375 17.002C11.9629 17.002 11.084 15.8691 11.084 14.4238C11.084 12.9199 12.0508 11.8555 13.4375 11.8555C14.873 11.8555 15.7422 13.0371 15.7422 14.4238C15.7422 15.8984 14.7852 17.002 13.4375 17.002ZM10.4199 19.4238C10.4199 19.6484 10.5957 19.8145 10.8203 19.8145L16.9531 19.8145C17.1777 19.8145 17.3535 19.6484 17.3535 19.4238C17.3535 19.209 17.1777 19.0332 16.9531 19.0332L10.8203 19.0332C10.5957 19.0332 10.4199 19.209 10.4199 19.4238Z" fill="black" fill-opacity="0.85"/>
 </g>
</svg>
