<?xml version="1.0" encoding="UTF-8"?>
<!--Generator: Apple Native CoreSVG 326-->
<!DOCTYPE svg
PUBLIC "-//W3C//DTD SVG 1.1//EN"
       "http://www.w3.org/Graphics/SVG/1.1/DTD/svg11.dtd">
<svg version="1.1" xmlns="http://www.w3.org/2000/svg" xmlns:xlink="http://www.w3.org/1999/xlink" viewBox="0 0 27.9395 26.5527">
 <g>
  <rect height="26.5527" opacity="0" width="27.9395" x="0" y="0"/>
  <path d="M1.5332 23.8379L26.0449 23.8379L26.0449 23.0859C26.0449 22.666 25.791 22.4121 25.3613 22.4121L24.5605 22.4121L24.5605 8.33984L25.6934 8.33984C26.2891 8.33984 26.6211 7.91992 26.6211 7.48047C26.6211 7.1582 26.4453 6.875 26.0547 6.65039L15.2637 0.419922C14.7852 0.146484 14.2773 0 13.7891 0C13.3008 0 12.7832 0.146484 12.3145 0.419922L1.52344 6.65039C1.12305 6.875 0.957031 7.1582 0.957031 7.48047C0.957031 7.91992 1.28906 8.33984 1.88477 8.33984L3.02734 8.33984L3.02734 22.4121L2.22656 22.4121C1.78711 22.4121 1.5332 22.666 1.5332 23.0859ZM4.6582 22.4121L4.6582 6.85547L13.2227 2.03125C13.3887 1.93359 13.5938 1.875 13.7891 1.875C13.9746 1.875 14.1699 1.93359 14.3555 2.03125L22.9297 6.85547L22.9297 22.4121ZM0.869141 26.5332L26.709 26.5332C27.1875 26.5332 27.5781 26.1426 27.5781 25.6738C27.5781 25.1953 27.1875 24.8047 26.709 24.8047L0.869141 24.8047C0.390625 24.8047 0 25.1953 0 25.6738C0 26.1426 0.390625 26.5332 0.869141 26.5332Z" fill="black" fill-opacity="0.85"/>
  <path d="M12.959 17.3242C14.043 17.3242 15.0586 16.875 15.5664 15.8301L15.6152 15.8301L15.6152 16.8359C15.6152 17.1875 15.8789 17.4512 16.2207 17.4512C16.5625 17.4512 16.8164 17.1875 16.8164 16.8359L16.8164 8.82812L17.7832 8.82812C17.998 8.82812 18.1641 8.66211 18.1641 8.44727C18.1641 8.24219 17.998 8.08594 17.7832 8.08594L16.8164 8.08594L16.8164 7.5C16.8164 7.10938 16.582 6.86523 16.2012 6.86523C15.8105 6.86523 15.5762 7.10938 15.5762 7.5L15.5762 8.08594L13.1445 8.08594C12.9395 8.08594 12.7637 8.24219 12.7637 8.44727C12.7637 8.67188 12.9395 8.82812 13.1445 8.82812L15.5762 8.82812L15.5762 11.5039L15.5176 11.5039C15.0684 10.5078 14.0625 10.0195 12.959 10.0195C11.1133 10.0195 9.62891 11.4551 9.62891 13.6719C9.62891 15.7617 11.0059 17.3242 12.959 17.3242ZM13.2715 16.2402C11.7969 16.2402 10.9082 15.1172 10.9082 13.6719C10.9082 12.1582 11.875 11.0938 13.2715 11.0938C14.707 11.0938 15.5762 12.2852 15.5762 13.6719C15.5762 15.1367 14.6191 16.2402 13.2715 16.2402ZM10.2539 18.6719C10.2539 18.8965 10.4297 19.0527 10.6543 19.0527L16.7871 19.0527C17.002 19.0527 17.1875 18.8867 17.1875 18.6719C17.1875 18.4473 17.002 18.2812 16.7871 18.2812L10.6543 18.2812C10.4297 18.2812 10.2539 18.4473 10.2539 18.6719Z" fill="black" fill-opacity="0.85"/>
 </g>
</svg>
