<?xml version="1.0" encoding="UTF-8"?>
<!--Generator: Apple Native CoreSVG 326-->
<!DOCTYPE svg
PUBLIC "-//W3C//DTD SVG 1.1//EN"
       "http://www.w3.org/Graphics/SVG/1.1/DTD/svg11.dtd">
<svg version="1.1" xmlns="http://www.w3.org/2000/svg" xmlns:xlink="http://www.w3.org/1999/xlink" viewBox="0 0 30.3809 25.0293">
 <g>
  <rect height="25.0293" opacity="0" width="30.3809" x="0" y="0"/>
  <path d="M30.0195 15.0098C30.0195 11.3281 28.6914 7.95898 26.4844 5.3418C26.2305 5.03906 25.8008 5.04883 25.5176 5.33203L22.6953 8.1543C22.4512 8.39844 22.4414 8.74023 22.6562 9.01367C23.9551 10.6738 24.7266 12.7441 24.7266 15.0098C24.7266 17.2754 23.9551 19.3555 22.5977 21.0742C22.4121 21.3086 22.4219 21.6016 22.627 21.8066L25.5176 24.707C25.8008 25 26.2207 24.9902 26.4844 24.6875C28.6914 22.0703 30.0195 18.6816 30.0195 15.0098Z" fill="black" fill-opacity="0.85"/>
  <path d="M15.0098 5.2832C17.2754 5.2832 19.3652 6.06445 21.0254 7.38281C21.2891 7.57812 21.6113 7.55859 21.8555 7.31445L24.6875 4.48242C24.9805 4.19922 24.9707 3.7793 24.668 3.51562C22.0605 1.32812 18.6816 0 15.0098 0C11.3379 0 7.95898 1.32812 5.35156 3.51562C5.04883 3.7793 5.03906 4.19922 5.32227 4.48242L8.16406 7.31445C8.39844 7.55859 8.75 7.56836 9.02344 7.35352C10.6738 6.06445 12.7539 5.2832 15.0098 5.2832Z" fill="black" fill-opacity="0.85"/>
  <path d="M0 15.0098C0 18.6816 1.32812 22.0703 3.53516 24.6875C3.78906 24.9902 4.21875 25 4.50195 24.707L7.39258 21.8066C7.58789 21.6016 7.60742 21.3086 7.42188 21.0742C6.06445 19.3555 5.2832 17.2754 5.2832 15.0098C5.2832 12.7441 6.05469 10.6738 7.36328 9.01367C7.56836 8.74023 7.56836 8.39844 7.32422 8.1543L4.49219 5.33203C4.20898 5.04883 3.78906 5.03906 3.52539 5.3418C1.31836 7.95898 0 11.3281 0 15.0098Z" fill="black" fill-opacity="0.85"/>
  <path d="M14.1602 19.2871C15.2441 19.2871 16.2598 18.8379 16.7676 17.793L16.8164 17.793L16.8164 18.8086C16.8164 19.1504 17.0801 19.4141 17.4219 19.4141C17.7637 19.4141 18.0176 19.1504 18.0176 18.8086L18.0176 10.8008L18.9844 10.8008C19.1992 10.8008 19.3652 10.625 19.3652 10.4199C19.3652 10.2148 19.1992 10.0488 18.9844 10.0488L18.0176 10.0488L18.0176 9.46289C18.0176 9.07227 17.7832 8.82812 17.4023 8.82812C17.0117 8.82812 16.7773 9.07227 16.7773 9.46289L16.7773 10.0488L14.3457 10.0488C14.1406 10.0488 13.9648 10.2148 13.9648 10.4199C13.9648 10.6348 14.1406 10.8008 14.3457 10.8008L16.7773 10.8008L16.7773 13.4766L16.7188 13.4766C16.2695 12.4707 15.2637 11.9922 14.1602 11.9922C12.3145 11.9922 10.8301 13.4277 10.8301 15.6348C10.8301 17.7246 12.207 19.2871 14.1602 19.2871ZM14.4727 18.2129C12.998 18.2129 12.1094 17.0801 12.1094 15.6348C12.1094 14.1211 13.0762 13.0566 14.4727 13.0566C15.9082 13.0566 16.7773 14.248 16.7773 15.6348C16.7773 17.1094 15.8203 18.2129 14.4727 18.2129ZM11.4551 20.6348C11.4551 20.8594 11.6309 21.0254 11.8555 21.0254L17.9883 21.0254C18.2129 21.0254 18.3887 20.8496 18.3887 20.6348C18.3887 20.4199 18.2129 20.2441 17.9883 20.2441L11.8555 20.2441C11.6309 20.2441 11.4551 20.4199 11.4551 20.6348Z" fill="black" fill-opacity="0.85"/>
 </g>
</svg>
