<?xml version="1.0" encoding="UTF-8"?>
<!--Generator: Apple Native CoreSVG 326-->
<!DOCTYPE svg
PUBLIC "-//W3C//DTD SVG 1.1//EN"
       "http://www.w3.org/Graphics/SVG/1.1/DTD/svg11.dtd">
<svg version="1.1" xmlns="http://www.w3.org/2000/svg" xmlns:xlink="http://www.w3.org/1999/xlink" viewBox="0 0 17.1484 24.4043">
 <g>
  <rect height="24.4043" opacity="0" width="17.1484" x="0" y="0"/>
  <path d="M6.62109 20.9473C9.30664 20.9473 11.1523 19.6094 12.0215 17.666L12.0996 17.666L12.0996 20.1855C12.0996 20.7617 12.5098 21.1914 13.0664 21.1816C13.6328 21.1816 14.043 20.7617 14.043 20.1953L14.043 3.89648L16.084 3.88672C16.4844 3.88672 16.7871 3.58398 16.7871 3.19336C16.7871 2.79297 16.4844 2.5 16.084 2.5L14.043 2.50977L14.043 1.04492C14.043 0.449219 13.6035 0 13.0273 0C12.4414 0 12.002 0.449219 12.002 1.04492L12.002 2.50977L6.97266 2.50977C6.5625 2.50977 6.25977 2.80273 6.25977 3.20312C6.25977 3.60352 6.5625 3.89648 6.97266 3.89648L12.002 3.89648L12.002 9.64844L11.9238 9.64844C11.0547 7.58789 9.04297 6.41602 6.62109 6.41602C2.66602 6.41602 0 9.57031 0 13.6816C0 17.9102 2.75391 20.9473 6.62109 20.9473ZM7.07031 19.1504C4.02344 19.1504 2.09961 16.7969 2.09961 13.6816C2.09961 10.332 4.24805 8.21289 7.07031 8.21289C9.95117 8.21289 11.9922 10.6055 11.9922 13.6816C11.9922 16.709 9.9707 19.1504 7.07031 19.1504ZM1.16211 23.6719C1.16211 24.0918 1.47461 24.3848 1.88477 24.3848L14.0723 24.3848C14.4922 24.3848 14.7949 24.082 14.7949 23.6719C14.7949 23.2715 14.4922 22.9688 14.0723 22.9688L1.88477 22.9688C1.47461 22.9688 1.16211 23.2715 1.16211 23.6719Z" fill="black" fill-opacity="0.85"/>
 </g>
</svg>
