<?xml version="1.0" encoding="UTF-8"?>
<!--Generator: Apple Native CoreSVG 326-->
<!DOCTYPE svg
PUBLIC "-//W3C//DTD SVG 1.1//EN"
       "http://www.w3.org/Graphics/SVG/1.1/DTD/svg11.dtd">
<svg version="1.1" xmlns="http://www.w3.org/2000/svg" xmlns:xlink="http://www.w3.org/1999/xlink" viewBox="0 0 30.5176 26.4551">
 <g>
  <rect height="26.4551" opacity="0" width="30.5176" x="0" y="0"/>
  <path d="M29.2871 26.4355C29.7656 26.4355 30.1562 26.0449 30.1562 25.5664L30.1562 2.28516C30.1562 0.917969 29.2188 0 27.8125 0L2.34375 0C0.9375 0 0 0.917969 0 2.28516L0 25.5664C0 26.0449 0.380859 26.4355 0.869141 26.4355C1.34766 26.4355 1.73828 26.0449 1.73828 25.5664L1.73828 2.40234C1.73828 2.00195 1.99219 1.73828 2.37305 1.73828L27.7832 1.73828C28.1543 1.73828 28.418 2.00195 28.418 2.40234L28.418 25.5664C28.418 26.0449 28.7988 26.4355 29.2871 26.4355Z" fill="black" fill-opacity="0.85"/>
  <path d="M26.6895 26.0156C26.8945 26.0156 27.0508 25.8496 27.0508 25.6445L27.0508 3.4668C27.0508 3.26172 26.8945 3.0957 26.6895 3.0957L16.123 3.0957C15.918 3.0957 15.752 3.26172 15.752 3.4668L15.752 25.6445C15.752 25.8496 15.918 26.0156 16.123 26.0156ZM24.2383 16.4453C23.8965 16.4453 23.6523 16.2012 23.6523 15.8594L23.6523 13.6523C23.6523 13.3105 23.8965 13.0664 24.2383 13.0664C24.5801 13.0664 24.8145 13.3105 24.8145 13.6523L24.8145 15.8594C24.8145 16.2012 24.5801 16.4453 24.2383 16.4453ZM14.0234 26.0156C14.2285 26.0156 14.3945 25.8496 14.3945 25.6445L14.3945 3.4668C14.3945 3.26172 14.2285 3.0957 14.0234 3.0957L3.4668 3.0957C3.26172 3.0957 3.0957 3.26172 3.0957 3.4668L3.0957 25.6445C3.0957 25.8496 3.26172 26.0156 3.4668 26.0156Z" fill="black" fill-opacity="0.85"/>
 </g>
</svg>
