<?xml version="1.0" encoding="UTF-8"?>
<!--Generator: Apple Native CoreSVG 326-->
<!DOCTYPE svg
PUBLIC "-//W3C//DTD SVG 1.1//EN"
       "http://www.w3.org/Graphics/SVG/1.1/DTD/svg11.dtd">
<svg version="1.1" xmlns="http://www.w3.org/2000/svg" xmlns:xlink="http://www.w3.org/1999/xlink" viewBox="0 0 30.5176 26.4551">
 <g>
  <rect height="26.4551" opacity="0" width="30.5176" x="0" y="0"/>
  <path d="M0.869141 26.4355C1.34766 26.4355 1.73828 26.0449 1.73828 25.5664L1.73828 2.40234C1.73828 2.00195 1.99219 1.73828 2.37305 1.73828L27.7832 1.73828C28.1543 1.73828 28.418 2.00195 28.418 2.40234L28.418 25.5664C28.418 26.0449 28.7988 26.4355 29.2871 26.4355C29.7656 26.4355 30.1562 26.0449 30.1562 25.5664L30.1562 2.28516C30.1562 0.917969 29.2188 0 27.8125 0L2.34375 0C0.9375 0 0 0.917969 0 2.28516L0 25.5664C0 26.0449 0.380859 26.4355 0.869141 26.4355Z" fill="black" fill-opacity="0.85"/>
  <path d="M3.4668 26.0156L26.6895 26.0156C26.8945 26.0156 27.0508 25.8496 27.0508 25.6445L27.0508 3.4668C27.0508 3.26172 26.8945 3.0957 26.6895 3.0957L3.4668 3.0957C3.26172 3.0957 3.0957 3.26172 3.0957 3.4668L3.0957 25.6445C3.0957 25.8496 3.26172 26.0156 3.4668 26.0156ZM12.5586 23.8574C12.2168 23.8574 11.9824 23.623 11.9824 23.2812C11.9824 22.9395 12.2168 22.6953 12.5586 22.6953L17.5879 22.6953C17.9297 22.6953 18.1738 22.9395 18.1738 23.2812C18.1738 23.623 17.9297 23.8574 17.5879 23.8574ZM5.17578 10.0195C4.94141 10.0195 4.76562 9.84375 4.76562 9.61914L4.76562 5.06836C4.76562 4.84375 4.94141 4.66797 5.17578 4.66797L10.2441 4.66797C10.4688 4.66797 10.6445 4.84375 10.6445 5.06836L10.6445 9.61914C10.6445 9.84375 10.4688 10.0195 10.2441 10.0195ZM12.5586 10.0195C12.334 10.0195 12.1582 9.84375 12.1582 9.61914L12.1582 5.06836C12.1582 4.84375 12.334 4.66797 12.5586 4.66797L17.627 4.66797C17.8516 4.66797 18.0273 4.84375 18.0273 5.06836L18.0273 9.61914C18.0273 9.84375 17.8516 10.0195 17.627 10.0195ZM19.9414 10.0195C19.7168 10.0195 19.541 9.84375 19.541 9.61914L19.541 5.06836C19.541 4.84375 19.7168 4.66797 19.9414 4.66797L24.9902 4.66797C25.2148 4.66797 25.3906 4.84375 25.3906 5.06836L25.3906 9.61914C25.3906 9.84375 25.2148 10.0195 25.0684 10.0195Z" fill="black" fill-opacity="0.85"/>
 </g>
</svg>
