<?xml version="1.0" encoding="UTF-8"?>
<!--Generator: Apple Native CoreSVG 326-->
<!DOCTYPE svg
PUBLIC "-//W3C//DTD SVG 1.1//EN"
       "http://www.w3.org/Graphics/SVG/1.1/DTD/svg11.dtd">
<svg version="1.1" xmlns="http://www.w3.org/2000/svg" xmlns:xlink="http://www.w3.org/1999/xlink" viewBox="0 0 30.5176 26.4551">
 <g>
  <rect height="26.4551" opacity="0" width="30.5176" x="0" y="0"/>
  <path d="M0.869141 26.4355C1.34766 26.4355 1.73828 26.0449 1.73828 25.5664L1.73828 2.40234C1.73828 2.00195 1.99219 1.73828 2.37305 1.73828L27.7832 1.73828C28.1543 1.73828 28.418 2.00195 28.418 2.40234L28.418 25.5664C28.418 26.0449 28.7988 26.4355 29.2871 26.4355C29.7656 26.4355 30.1562 26.0449 30.1562 25.5664L30.1562 2.28516C30.1562 0.917969 29.2188 0 27.8125 0L2.34375 0C0.9375 0 0 0.917969 0 2.28516L0 25.5664C0 26.0449 0.380859 26.4355 0.869141 26.4355Z" fill="black" fill-opacity="0.85"/>
  <path d="M3.4668 26.0547L14.0234 26.0547C14.2285 26.0547 14.3945 25.8887 14.3945 25.6836L14.3945 3.49609C14.3945 3.29102 14.2285 3.13477 14.0234 3.13477L3.4668 3.13477C3.26172 3.13477 3.0957 3.29102 3.0957 3.49609L3.0957 25.6836C3.0957 25.8887 3.26172 26.0547 3.4668 26.0547ZM5.18555 9.96094C5.01953 9.96094 4.90234 9.84375 4.90234 9.64844L4.90234 5.24414C4.90234 5.05859 5.01953 4.94141 5.18555 4.94141L12.3047 4.94141C12.4707 4.94141 12.5879 5.05859 12.5879 5.24414L12.5879 9.64844C12.5879 9.84375 12.4707 9.96094 12.3047 9.96094ZM5.18555 17.0996C5.01953 17.0996 4.90234 16.9824 4.90234 16.7969L4.90234 12.3828C4.90234 12.1973 5.01953 12.0801 5.18555 12.0801L12.3047 12.0801C12.4707 12.0801 12.5879 12.1973 12.5879 12.3828L12.5879 16.7969C12.5879 16.9824 12.4707 17.0996 12.3047 17.0996ZM5.18555 24.248C5.01953 24.248 4.90234 24.1309 4.90234 23.9355L4.90234 19.5312C4.90234 19.3457 5.01953 19.2285 5.18555 19.2285L12.3047 19.2285C12.4707 19.2285 12.5879 19.3457 12.5879 19.5312L12.5879 23.9355C12.5879 24.1309 12.4707 24.248 12.3047 24.248ZM16.123 26.0156L26.6895 26.0156C26.8945 26.0156 27.0508 25.8496 27.0508 25.6445L27.0508 3.4668C27.0508 3.26172 26.8945 3.0957 26.6895 3.0957L16.123 3.0957C15.918 3.0957 15.752 3.26172 15.752 3.4668L15.752 25.6445C15.752 25.8496 15.918 26.0156 16.123 26.0156ZM17.8516 9.92188C17.6758 9.92188 17.5586 9.80469 17.5586 9.60938L17.5586 5.20508C17.5586 5.01953 17.6758 4.90234 17.8516 4.90234L24.9609 4.90234C25.1367 4.90234 25.2539 5.01953 25.2539 5.20508L25.2539 9.60938C25.2539 9.80469 25.1367 9.92188 24.9609 9.92188ZM17.8516 17.0605C17.6758 17.0605 17.5586 16.9434 17.5586 16.7578L17.5586 12.3535C17.5586 12.1582 17.6758 12.041 17.8516 12.041L24.9609 12.041C25.1367 12.041 25.2539 12.1582 25.2539 12.3535L25.2539 16.7578C25.2539 16.9434 25.1367 17.0605 24.9609 17.0605ZM17.8516 24.209C17.6758 24.209 17.5586 24.0918 17.5586 23.8965L17.5586 19.4922C17.5586 19.3066 17.6758 19.1895 17.8516 19.1895L24.9609 19.1895C25.1367 19.1895 25.2539 19.3066 25.2539 19.4922L25.2539 23.8965C25.2539 24.0918 25.1367 24.209 24.9609 24.209Z" fill="black" fill-opacity="0.85"/>
 </g>
</svg>
