<?xml version="1.0" encoding="UTF-8"?>
<!--Generator: Apple Native CoreSVG 326-->
<!DOCTYPE svg
PUBLIC "-//W3C//DTD SVG 1.1//EN"
       "http://www.w3.org/Graphics/SVG/1.1/DTD/svg11.dtd">
<svg version="1.1" xmlns="http://www.w3.org/2000/svg" xmlns:xlink="http://www.w3.org/1999/xlink" viewBox="0 0 36.6016 26.4551">
 <g>
  <rect height="26.4551" opacity="0" width="36.6016" x="0" y="0"/>
  <path d="M0.869141 26.4355C1.34766 26.4355 1.73828 26.0449 1.73828 25.5664L1.73828 2.40234C1.73828 2.00195 1.99219 1.73828 2.37305 1.73828L33.8672 1.73828C34.248 1.73828 34.502 2.00195 34.502 2.40234L34.502 25.5664C34.502 26.0449 34.8828 26.4355 35.3711 26.4355C35.8496 26.4355 36.2402 26.0449 36.2402 25.5664L36.2402 2.28516C36.2402 0.917969 35.3027 0 33.8965 0L2.34375 0C0.9375 0 0 0.917969 0 2.28516L0 25.5664C0 26.0449 0.380859 26.4355 0.869141 26.4355Z" fill="black" fill-opacity="0.85"/>
  <path d="M3.4668 26.0156L32.7734 26.0156C32.9785 26.0156 33.1445 25.8496 33.1445 25.6445L33.1445 3.4668C33.1445 3.26172 32.9785 3.0957 32.7734 3.0957L3.4668 3.0957C3.26172 3.0957 3.0957 3.26172 3.0957 3.4668L3.0957 25.6445C3.0957 25.8496 3.26172 26.0156 3.4668 26.0156ZM5.17578 10.0195C4.94141 10.0195 4.76562 9.84375 4.76562 9.61914L4.76562 5.06836C4.76562 4.84375 4.94141 4.66797 5.17578 4.66797L9.92188 4.66797C10.1465 4.66797 10.3223 4.84375 10.3223 5.06836L10.3223 9.61914C10.3223 9.84375 10.1465 10.0195 9.92188 10.0195ZM12.2461 10.0195C12.0215 10.0195 11.8457 9.84375 11.8457 9.61914L11.8457 5.06836C11.8457 4.84375 12.0215 4.66797 12.2461 4.66797L16.9922 4.66797C17.2168 4.66797 17.3926 4.84375 17.3926 5.06836L17.3926 9.61914C17.3926 9.84375 17.2168 10.0195 16.9922 10.0195ZM19.3066 10.0195C19.0723 10.0195 18.8965 9.84375 18.8965 9.61914L18.8965 5.06836C18.8965 4.84375 19.0723 4.66797 19.3066 4.66797L24.0234 4.66797C24.2578 4.66797 24.4336 4.84375 24.4336 5.06836L24.4336 9.61914C24.4336 9.84375 24.2578 10.0195 24.1016 10.0195ZM26.3477 10.0195C26.1133 10.0195 25.9375 9.84375 25.9375 9.61914L25.9375 5.06836C25.9375 4.84375 26.1133 4.66797 26.3477 4.66797L31.0645 4.66797C31.2988 4.66797 31.4746 4.84375 31.4746 5.06836L31.4746 9.61914C31.4746 9.84375 31.2988 10.0195 31.1426 10.0195ZM15.4102 23.8574C15.0684 23.8574 14.8242 23.623 14.8242 23.2812C14.8242 22.9395 15.0684 22.6953 15.4102 22.6953L20.8301 22.6953C21.1816 22.6953 21.416 22.9395 21.416 23.2812C21.416 23.623 21.1816 23.8574 20.8301 23.8574Z" fill="black" fill-opacity="0.85"/>
 </g>
</svg>
