<?xml version="1.0" ?><!-- Generator: Adobe Illustrator 25.0.0, SVG Export Plug-In . SVG Version: 6.00 Build 0)  --><svg xmlns="http://www.w3.org/2000/svg" xmlns:xlink="http://www.w3.org/1999/xlink" version="1.1" id="Layer_1" x="0px" y="0px" viewBox="0 0 512 512" style="enable-background:new 0 0 512 512;" xml:space="preserve">
<path d="M490.8,166.4c14.1,0,21.2-7.1,21.2-21.4V80.9c0-26.8-6.8-47-20.5-60.5C477.8,6.9,457.3,0.1,429.9,0.1h-64.1  c-14.1,0-21.2,7-21.2,20.9c0,14.1,7.1,21.2,21.2,21.2h63.3c12.9,0,22.9,3.4,30.1,10.3c7.1,6.9,10.7,17.1,10.7,30.7V145  C469.9,159.3,476.9,166.4,490.8,166.4z M365.8,511.9h64.1c27.4,0,47.9-6.8,61.6-20.3c13.7-13.5,20.5-33.8,20.5-60.8V367  c0-14.3-7.1-21.4-21.2-21.4c-13.9,0-20.9,7.1-20.9,21.4v61.7c0,13.6-3.6,23.8-10.7,30.7c-7.1,6.9-17.2,10.3-30.1,10.3h-63.3  c-14.1,0-21.2,7.1-21.2,21.2C344.6,504.9,351.7,511.9,365.8,511.9z M20.9,166.4c14.1,0,21.2-7.1,21.2-21.4V83.3  c0-13.6,3.5-23.8,10.5-30.7c7-6.9,17-10.3,30.1-10.3h63.3c14.3,0,21.4-7.1,21.4-21.2c0-13.9-7.1-20.9-21.4-20.9H82.1  c-27.4,0-47.9,6.8-61.6,20.3C6.8,33.9,0,54.1,0,80.9V145C0,159.3,7,166.4,20.9,166.4z M82.1,511.9h63.8c14.3,0,21.4-7,21.4-20.9  c0-14.1-7.1-21.2-21.4-21.2H82.6c-13.1,0-23.1-3.4-30.1-10.3c-7-6.9-10.5-17.1-10.5-30.7V367c0-14.3-7.1-21.4-21.2-21.4  C7,345.6,0,352.7,0,367v63.8c0,27,6.8,47.3,20.5,60.8C34.2,505.1,54.7,511.9,82.1,511.9z" class="hierarchical-0:secondary SFSymbolsPreview4D4D4D" style="fill: #4D4D4D;"/>
<path d="M256.5,402c19.9,0,38.6-3.8,56.1-11.4c17.5-7.6,33-18.1,46.4-31.5c13.4-13.4,23.9-29,31.5-46.7  c7.6-17.7,11.4-36.6,11.4-56.6c0-19.9-3.8-38.5-11.5-56c-7.7-17.4-18.2-32.8-31.5-46.2c-13.3-13.3-28.8-23.8-46.3-31.4  c-17.5-7.6-36.2-11.4-56.1-11.4c-20,0-38.9,3.8-56.5,11.4c-17.6,7.6-33.2,18-46.7,31.4c-13.5,13.3-24.1,28.7-31.6,46.2  c-7.6,17.4-11.4,36.1-11.4,56c0,20.2,3.8,39.1,11.4,56.7c7.6,17.6,18.1,33.1,31.5,46.5c13.4,13.4,29,23.9,46.7,31.5  C217.6,398.3,236.5,402,256.5,402z M256.5,368.3c-20.6,0-39.4-5.1-56.5-15.3c-17.1-10.2-30.7-23.8-40.8-40.8  c-10.1-17-15.2-35.8-15.2-56.4c0-20.2,5.1-38.7,15.3-55.6c10.2-16.8,23.8-30.3,40.8-40.4s35.8-15.2,56.4-15.2c20.4,0,39,5.1,56,15.2  c16.9,10.1,30.4,23.6,40.5,40.4c10.1,16.8,15.2,35.3,15.2,55.6c0,20.6-5.1,39.4-15.2,56.4c-10.1,17-23.6,30.6-40.5,40.8  C295.6,363.2,276.9,368.3,256.5,368.3z M256.5,330.9c13.4,0,25.8-3.4,37-10.1c11.2-6.7,20.2-15.7,26.9-27.1  c6.7-11.3,10.1-23.9,10.1-37.7c0-13.4-3.4-25.8-10.1-37c-6.7-11.2-15.7-20.2-26.9-26.9c-11.2-6.7-23.6-10.1-37-10.1  c-13.8,0-26.3,3.4-37.7,10.1c-11.3,6.7-20.4,15.7-27.1,26.9c-6.7,11.2-10.1,23.6-10.1,37c0,13.8,3.4,26.3,10.1,37.7  s15.7,20.4,27.1,27.1C230.2,327.6,242.8,330.9,256.5,330.9z" class="hierarchical-1:primary SFSymbolsPreview212121" style="fill: #212121;"/>
</svg>