<?xml version="1.0" ?><!-- Generator: Adobe Illustrator 25.0.0, SVG Export Plug-In . SVG Version: 6.00 Build 0)  --><svg xmlns="http://www.w3.org/2000/svg" xmlns:xlink="http://www.w3.org/1999/xlink" version="1.1" id="Layer_1" x="0px" y="0px" viewBox="0 0 512 512" style="enable-background:new 0 0 512 512;" xml:space="preserve">
<path d="M198.6,437.9c14.3,0,28.3-1.5,42-4.5c13.7-3,26.7-7.4,39-13.2l-21.4-26.7c-9.1,3.6-18.6,6.4-28.6,8.4s-20.3,2.9-31,2.9  c-23,0-44.5-4.3-64.4-12.8s-37.5-20.3-52.7-35.5c-15.1-15.2-26.9-32.8-35.4-52.8c-8.5-20-12.8-41.5-12.8-64.4  c0-23,4.3-44.5,12.8-64.4c8.5-20,20.3-37.5,35.3-52.7c15.1-15.1,32.6-27,52.6-35.5c20-8.6,41.5-12.9,64.4-12.9  c23.1,0,44.7,4.3,64.6,12.8c20,8.5,37.5,20.3,52.6,35.3c15.1,15.1,26.8,32.5,35.2,52.5c8.4,19.9,12.7,41.4,12.9,64.4  c5.1-0.9,10.5-1.2,16.3-0.9c5.8,0.3,11.5,1.2,17,2.6c0.1-27.3-4.9-52.9-15.2-77c-10.3-24.1-24.5-45.3-42.7-63.8  c-18.2-18.4-39.4-32.9-63.4-43.3c-24-10.4-49.7-15.7-77.1-15.7c-27.1,0-52.7,5.2-76.7,15.6c-24,10.4-45.1,24.7-63.4,43  c-18.2,18.3-32.5,39.4-42.9,63.4C5.2,186.6,0,212.2,0,239.3c0,27.1,5.2,52.7,15.6,76.6c10.4,23.9,24.7,45.1,43,63.4  c18.3,18.3,39.4,32.6,63.4,43C145.9,432.7,171.5,437.9,198.6,437.9z M198.8,299.1c10.9,0,20.9-2.7,30-8.1  c9.1-5.4,16.3-12.6,21.7-21.7c5.4-9.1,8.1-19.1,8.1-30.2c0-10.9-2.7-20.9-8.1-29.9c-5.4-9-12.6-16.2-21.7-21.6  c-9.1-5.4-19.1-8.1-30-8.1c-11,0-21.1,2.7-30.1,8.1c-9,5.4-16.3,12.6-21.7,21.6c-5.5,9-8.2,19-8.2,29.9c0,11,2.7,21.1,8.2,30.2  c5.5,9.1,12.7,16.3,21.8,21.7C177.9,296.4,187.9,299.1,198.8,299.1z" class="hierarchical-0:secondary SFSymbolsPreview4D4D4D" style="fill: #4D4D4D;"/>
<path d="M443,464c31.3-11.3,52-29.4,62.1-54.2c10.1-24.9,9.2-54.1-2.9-87.7l-9.9-27.8c-4.7-12.7-10.9-21.8-18.8-27.2  c-7.9-5.4-15.2-6.8-22.1-4.4c-3.2,1.3-4.3,3.5-3.3,6.6l4.5,12.3c1,3,1.2,5.4,0.4,7.2c-0.8,1.8-2,3.1-3.7,3.9  c-4.5,1.6-7.9-0.6-9.9-6.4l-2.9-8.2c-2.7-7.4-7-12.6-12.9-15.5c-5.9-2.9-12-3.2-18.4-0.9c-5.8,2.2-7.9,5.7-6,10.5l6.2,16.7  c1,2.9,1.2,5.2,0.5,7.1c-0.7,1.9-1.9,3.1-3.6,3.8c-4.5,1.7-7.9-0.3-9.9-6l-5.6-15.6c-3-8.4-7.4-13.9-13.2-16.4  c-5.8-2.5-11.9-2.6-18.1-0.4c-5.7,2.1-7.7,5.6-5.8,10.5l11.9,32.9c1,3,1.2,5.4,0.4,7.3c-0.8,1.9-2,3.1-3.7,3.8  c-4.4,1.6-7.7-0.6-9.9-6.4l-39.7-109.4c-1.9-5.5-5.1-9.2-9.3-11.3c-4.3-2.1-8.7-2.3-13.2-0.8c-4.8,1.8-8.2,4.9-10.1,9.2  c-1.9,4.3-1.9,9.2,0.2,14.5l58.6,160.6c0.6,1.9,0.6,3.6-0.1,5.1c-0.7,1.4-1.7,2.3-3,2.7c-2.5,1-5.2,0-8.2-3.1l-39.3-42.4  c-3-3.2-6-5.3-9.1-6c-3.1-0.8-6.1-0.6-9.2,0.6c-5.1,1.9-8.5,4.9-10.3,8.9c-1.8,4-2,8-0.6,12.2c0.9,2.7,2.4,5.3,4.5,7.8l48.9,61.1  c20.6,25.8,42.5,41.9,65.7,48.1C396.7,473.5,419.9,472.4,443,464z" class="hierarchical-1:primary SFSymbolsPreview212121" style="fill: #212121;"/>
</svg>