<?xml version="1.0" ?><!-- Generator: Adobe Illustrator 25.0.0, SVG Export Plug-In . SVG Version: 6.00 Build 0)  --><svg xmlns="http://www.w3.org/2000/svg" xmlns:xlink="http://www.w3.org/1999/xlink" version="1.1" id="Layer_1" x="0px" y="0px" viewBox="0 0 512 512" style="enable-background:new 0 0 512 512;" xml:space="preserve">
<path d="M0,489.8C0,503.1,8.9,512,22.2,512H490c13.3,0,22-8.9,22-22.2V22c0-13.3-8.6-22-22-22H22.2C8.9,0,0,8.6,0,22V489.8z   M44.8,459.2V278.4h89c-1.7-7.5-2.5-15-2.5-22.8c0-7.5,0.8-14.7,2.5-22h-89V52.8c0-6.1,2.2-8.1,8.1-8.1h180.8v89  c7.5-1.7,15-2.5,22.8-2.5c7.5,0,14.7,0.8,22,2.5v-89h180.8c6.1,0,8.1,1.9,8.1,8.1v180.8h-88.4c1.4,7.2,2.2,14.5,2.2,22  c0,7.8-0.8,15.3-2.2,22.8h88.4v180.8c0,5.8-1.9,8.1-8.1,8.1H278.4v-89c-7.2,1.7-14.5,2.5-22,2.5c-7.8,0-15.3-0.8-22.8-2.5v89H52.8  C47,467.2,44.8,465,44.8,459.2z M256.4,342.6c47.3,0,86.5-38.9,86.5-87c0-47.3-39.2-86.2-86.5-86.2c-47.8,0-87,38.9-87,86.2  C169.4,303.7,208.6,342.6,256.4,342.6z"/>
</svg>