<?xml version="1.0" encoding="UTF-8"?>
<!--Generator: Apple Native CoreSVG 326-->
<!DOCTYPE svg
PUBLIC "-//W3C//DTD SVG 1.1//EN"
       "http://www.w3.org/Graphics/SVG/1.1/DTD/svg11.dtd">
<svg version="1.1" xmlns="http://www.w3.org/2000/svg" xmlns:xlink="http://www.w3.org/1999/xlink" viewBox="0 0 25.8008 25.459">
 <g>
  <rect height="25.459" opacity="0" width="25.8008" x="0" y="0"/>
  <path d="M12.7148 25.4395C19.7363 25.4395 25.4395 19.7461 25.4395 12.7246C25.4395 5.70312 19.7363 0 12.7148 0C5.69336 0 0 5.70312 0 12.7246C0 19.7461 5.69336 25.4395 12.7148 25.4395ZM12.7148 23.623C6.68945 23.623 1.81641 18.75 1.81641 12.7246C1.81641 6.69922 6.68945 1.82617 12.7148 1.82617C18.7402 1.82617 23.6133 6.69922 23.6133 12.7246C23.6133 18.75 18.7402 23.623 12.7148 23.623Z" fill="black" fill-opacity="0.85"/>
  <path d="M12.6953 17.5293C15.3418 17.5293 17.5195 15.3516 17.5195 12.7246C17.5195 10.0977 15.3418 7.91016 12.6953 7.91016C10.0781 7.91016 7.90039 10.0977 7.90039 12.7246C7.90039 15.3516 10.0781 17.5293 12.6953 17.5293ZM14.9316 5.56641L13.2227 3.38867C12.959 3.05664 12.4902 3.05664 12.2168 3.38867L10.498 5.56641C10.1074 6.04492 10.3418 6.66016 10.9766 6.66016L14.4531 6.66016C15.0684 6.66016 15.3027 6.02539 14.9316 5.56641ZM19.873 14.9414L22.0508 13.2324C22.3828 12.9785 22.3828 12.5 22.0508 12.2266L19.873 10.5078C19.3945 10.127 18.7891 10.3613 18.7891 10.9863L18.7891 14.4629C18.7891 15.0781 19.4141 15.3125 19.873 14.9414ZM14.9316 19.8828C15.3027 19.4336 15.0684 18.7988 14.4531 18.7988L10.9766 18.7988C10.3418 18.7988 10.1074 19.4043 10.498 19.8828L12.2168 22.0605C12.4902 22.3926 12.959 22.3926 13.2227 22.0605ZM5.55664 14.9414C6.01562 15.3125 6.64062 15.0781 6.64062 14.4629L6.64062 10.9863C6.64062 10.3613 6.03516 10.127 5.55664 10.5078L3.37891 12.2266C3.04688 12.5 3.04688 12.9785 3.37891 13.2324Z" fill="black" fill-opacity="0.85"/>
 </g>
</svg>
