<?xml version="1.0" ?><!-- Generator: Adobe Illustrator 25.0.0, SVG Export Plug-In . SVG Version: 6.00 Build 0)  --><svg xmlns="http://www.w3.org/2000/svg" xmlns:xlink="http://www.w3.org/1999/xlink" version="1.1" id="Layer_1" x="0px" y="0px" viewBox="0 0 512 512" style="enable-background:new 0 0 512 512;" xml:space="preserve">
<path d="M256,512c140,0,256-116.2,256-256C512,116,395.8,0,255.7,0C116,0,0,116,0,256C0,395.8,116.2,512,256,512z M256,469.3  c-118.5,0-213.1-94.9-213.1-213.3S137.3,42.7,255.7,42.7S469.1,137.5,469.3,256S374.5,469.3,256,469.3z M300.7,114.9L266,71.3  c-5-6.5-14.3-6.5-19.6,0l-34.9,43.7c-8,9.8-3.3,22.1,9.8,22.1h69.5C303.4,137,308.2,124.2,300.7,114.9z M255.7,350.4  c52,0,94.6-42.7,94.6-94.4c0-51.5-42.7-94.4-94.6-94.4c-51.5,0-94.1,42.9-94.1,94.4C161.6,307.7,204.3,350.4,255.7,350.4z   M397.6,300.7l43.4-34.4c6.5-5.3,6.5-14.3,0-19.8l-43.4-34.9c-9.8-8-22.3-3.3-22.3,10v69.3C375.2,303.7,388.3,308.5,397.6,300.7z   M114.7,300.7c9.3,7.8,22.3,3,22.3-9.8v-69.3c0-13.3-12.5-18.1-22.3-10l-43.4,34.9c-6.5,5.5-6.5,14.6,0,19.8L114.7,300.7z   M300.7,397.6c7.5-9.3,2.8-22.3-9.8-22.3h-69.5c-13.1,0-17.8,12.5-9.8,22.3l34.9,43.4c5.3,6.5,14.6,6.5,19.6,0L300.7,397.6z"/>
</svg>