<?xml version="1.0" ?><!-- Generator: Adobe Illustrator 25.0.0, SVG Export Plug-In . SVG Version: 6.00 Build 0)  --><svg xmlns="http://www.w3.org/2000/svg" xmlns:xlink="http://www.w3.org/1999/xlink" version="1.1" id="Layer_1" x="0px" y="0px" viewBox="0 0 512 512" style="enable-background:new 0 0 512 512;" xml:space="preserve">
<path d="M490.8,166.4c14.1,0,21.2-7.1,21.2-21.4V80.9c0-26.8-6.8-47-20.5-60.5C477.8,6.9,457.3,0.1,429.9,0.1h-64.1  c-14.1,0-21.2,7-21.2,20.9c0,14.1,7.1,21.2,21.2,21.2h63.3c12.9,0,22.9,3.4,30.1,10.3c7.1,6.9,10.7,17.1,10.7,30.7V145  C469.9,159.3,476.9,166.4,490.8,166.4z M365.8,511.9h64.1c27.4,0,47.9-6.8,61.6-20.3c13.7-13.5,20.5-33.8,20.5-60.8V367  c0-14.3-7.1-21.4-21.2-21.4c-13.9,0-20.9,7.1-20.9,21.4v61.7c0,13.6-3.6,23.8-10.7,30.7c-7.1,6.9-17.2,10.3-30.1,10.3h-63.3  c-14.1,0-21.2,7.1-21.2,21.2C344.6,504.9,351.7,511.9,365.8,511.9z M20.9,166.4c14.1,0,21.2-7.1,21.2-21.4V83.3  c0-13.6,3.5-23.8,10.5-30.7c7-6.9,17-10.3,30.1-10.3h63.3c14.3,0,21.4-7.1,21.4-21.2c0-13.9-7.1-20.9-21.4-20.9H82.1  c-27.4,0-47.9,6.8-61.6,20.3C6.8,33.9,0,54.1,0,80.9V145C0,159.3,7,166.4,20.9,166.4z M82.1,511.9h63.8c14.3,0,21.4-7,21.4-20.9  c0-14.1-7.1-21.2-21.4-21.2H82.6c-13.1,0-23.1-3.4-30.1-10.3c-7-6.9-10.5-17.1-10.5-30.7V367c0-14.3-7.1-21.4-21.2-21.4  C7,345.6,0,352.7,0,367v63.8c0,27,6.8,47.3,20.5,60.8C34.2,505.1,54.7,511.9,82.1,511.9z" class="hierarchical-0:secondary SFSymbolsPreview4D4D4D" style="fill: #4D4D4D;"/>
<path d="M256.5,342.4c15.7,0,30.1-3.9,43.1-11.8c13.1-7.8,23.5-18.3,31.2-31.5c7.8-13.2,11.6-27.7,11.6-43.5  c0-15.7-3.9-30.1-11.6-43.1c-7.8-13.1-18.2-23.5-31.2-31.2c-13.1-7.8-27.5-11.6-43.1-11.6c-15.9,0-30.4,3.9-43.5,11.6  c-13.2,7.8-23.7,18.2-31.5,31.2c-7.8,13.1-11.8,27.5-11.8,43.1c0,15.9,3.9,30.4,11.8,43.5s18.3,23.7,31.5,31.5  C226.1,338.5,240.7,342.4,256.5,342.4z" class="hierarchical-1:primary SFSymbolsPreview212121" style="fill: #212121;"/>
</svg>