<?xml version="1.0" encoding="UTF-8"?>
<!--Generator: Apple Native CoreSVG 326-->
<!DOCTYPE svg
PUBLIC "-//W3C//DTD SVG 1.1//EN"
       "http://www.w3.org/Graphics/SVG/1.1/DTD/svg11.dtd">
<svg version="1.1" xmlns="http://www.w3.org/2000/svg" xmlns:xlink="http://www.w3.org/1999/xlink" viewBox="0 0 27.3828 27.0215">
 <g>
  <rect height="27.0215" opacity="0" width="27.3828" x="0" y="0"/>
  <path d="M5.74219 18.3398C6.97266 18.3398 7.45117 18.1738 8.26172 17.373L10.7129 14.9219C11.5625 14.0723 11.5625 12.9395 10.7129 12.0898L8.26172 9.63867C7.45117 8.82812 6.97266 8.67188 5.74219 8.67188L2.42188 8.67188C0.917969 8.67188 0 9.51172 0 10.8789L0 16.1328C0 17.5 0.917969 18.3398 2.42188 18.3398ZM5.74219 16.7871L2.46094 16.7871C1.85547 16.7871 1.54297 16.4648 1.54297 15.8594L1.54297 11.1426C1.54297 10.5371 1.85547 10.2148 2.46094 10.2148L5.74219 10.2148C6.37695 10.2148 6.72852 10.3125 7.14844 10.7324L9.57031 13.1445C9.81445 13.3984 9.79492 13.6328 9.56055 13.8672L7.14844 16.2793C6.72852 16.6992 6.37695 16.7871 5.74219 16.7871ZM8.68164 5.74219C8.68164 6.97266 8.84766 7.45117 9.6582 8.26172L12.1094 10.7129C12.9492 11.5625 14.082 11.5625 14.9316 10.7129L17.3828 8.26172C18.1934 7.45117 18.3594 6.97266 18.3594 5.74219L18.3594 2.42188C18.3594 0.917969 17.5195 0 16.1523 0L10.8887 0C9.52148 0 8.68164 0.917969 8.68164 2.42188ZM10.2344 5.74219L10.2344 2.46094C10.2344 1.85547 10.5566 1.54297 11.1621 1.54297L15.8789 1.54297C16.4844 1.54297 16.8066 1.85547 16.8066 2.46094L16.8066 5.74219C16.8066 6.37695 16.7188 6.72852 16.2891 7.14844L13.877 9.57031C13.623 9.81445 13.3984 9.79492 13.1641 9.56055L10.752 7.14844C10.3223 6.72852 10.2344 6.37695 10.2344 5.74219ZM21.2793 8.67188C20.0488 8.67188 19.5605 8.83789 18.7598 9.63867L16.3086 12.0898C15.459 12.9395 15.459 14.0723 16.3086 14.9219L18.7598 17.373C19.5605 18.1836 20.0488 18.3398 21.2793 18.3398L24.5996 18.3398C26.0938 18.3398 27.0215 17.5 27.0215 16.1328L27.0215 10.8789C27.0215 9.51172 26.0938 8.67188 24.5996 8.67188ZM21.2793 10.2246L24.5605 10.2246C25.1562 10.2246 25.4785 10.5469 25.4785 11.1523L25.4785 15.8691C25.4785 16.4746 25.1562 16.7969 24.5605 16.7969L21.2793 16.7969C20.6445 16.7969 20.2832 16.6992 19.8633 16.2793L17.4512 13.8672C17.1973 13.6133 17.2168 13.3789 17.4512 13.1445L19.8633 10.7324C20.2832 10.3125 20.6445 10.2246 21.2793 10.2246ZM18.3398 21.2695C18.3398 20.0391 18.1836 19.5508 17.373 18.75L14.9219 16.2988C14.0723 15.4492 12.9395 15.4492 12.0898 16.2988L9.63867 18.75C8.83789 19.5508 8.67188 20.0391 8.67188 21.2695L8.67188 24.5898C8.67188 26.084 9.51172 27.002 10.8789 27.002L16.1426 27.002C17.5 27.002 18.3398 26.084 18.3398 24.5898ZM16.7871 21.2695L16.7871 24.5508C16.7871 25.1465 16.4746 25.4688 15.8691 25.4688L11.1523 25.4688C10.5371 25.4688 10.2246 25.1465 10.2246 24.5508L10.2246 21.2695C10.2246 20.6348 10.3125 20.2734 10.7324 19.8535L13.1543 17.4316C13.3984 17.1875 13.6328 17.207 13.8672 17.4414L16.2793 19.8535C16.6992 20.2734 16.7871 20.6348 16.7871 21.2695Z" fill="black" fill-opacity="0.85"/>
 </g>
</svg>
