<?xml version="1.0" ?><!-- Generator: Adobe Illustrator 25.0.0, SVG Export Plug-In . SVG Version: 6.00 Build 0)  --><svg xmlns="http://www.w3.org/2000/svg" xmlns:xlink="http://www.w3.org/1999/xlink" version="1.1" id="Layer_1" x="0px" y="0px" viewBox="0 0 512 512" style="enable-background:new 0 0 512 512;" xml:space="preserve">
<path d="M164,108.3c0,25.3,2.8,33.5,19,49.7l45.4,45.4c16.4,16.4,38.9,16.4,55.3,0l45.4-45.4c16.2-16.2,19.2-24.4,19.2-49.7v-59  c0-30-17.3-49.2-44-49.2h-96.5c-26.5,0-43.8,19.2-43.8,49.2V108.3z M108,348.2c25.5,0,33.7-2.8,49.9-19l45.4-45.4  c16.4-16.4,16.4-38.9,0-55.3L157.9,183c-16.2-16.2-24.4-19.2-49.9-19.2H49.2c-30,0-49.2,17.3-49.2,44v96.5  c0,26.5,19.2,43.8,49.2,43.8H108z M404,164.1c-25.5,0-33.7,2.8-49.9,19l-45.4,45.4c-16.4,16.4-16.4,38.9,0,55.3l45.4,45.4  c16.2,16.2,24.4,19.2,49.9,19.2h58.8c30,0,49.2-17.3,49.2-44v-96.5c0-26.5-19.2-43.8-49.2-43.8H404z M348.3,403.9  c0-25.3-3-33.5-19.2-49.7l-45.4-45.7c-16.4-16.2-38.9-16.2-55.3,0l-45.4,45.7c-16.2,16.2-19,24.4-19,49.7v59c0,30,17.3,49,44,49  h96.3c26.7,0,44-19,44-49V403.9z"/>
</svg>