<?xml version="1.0" ?><!-- Generator: Adobe Illustrator 25.0.0, SVG Export Plug-In . SVG Version: 6.00 Build 0)  --><svg xmlns="http://www.w3.org/2000/svg" xmlns:xlink="http://www.w3.org/1999/xlink" version="1.1" id="Layer_1" x="0px" y="0px" viewBox="0 0 512 512" style="enable-background:new 0 0 512 512;" xml:space="preserve">
<path d="M164,108.3c0,8.4,0.5,15.3,1.4,20.6c0.9,5.3,2.8,10.1,5.5,14.5c2.7,4.4,6.8,9.2,12.3,14.5l45.4,45.4  c8.1,8.3,17.3,12.4,27.5,12.4c10.2,0,19.5-4.1,27.8-12.4l45.4-45.4c5.3-5.3,9.3-10.1,12.1-14.5c2.7-4.4,4.6-9.2,5.5-14.5  c0.9-5.3,1.4-12.2,1.4-20.6v-59c0-15-4-26.9-11.9-35.8c-8-8.9-18.7-13.4-32.1-13.4H208c-13.3,0-23.9,4.5-32,13.4  c-8,8.9-12.1,20.8-12.1,35.8V108.3z M404,164.1c-8.4,0-15.3,0.5-20.7,1.4c-5.4,0.9-10.2,2.7-14.5,5.4c-4.3,2.7-9.2,6.7-14.6,12.2  l-45.4,45.4c-8.1,8.3-12.2,17.5-12.2,27.8c0,10.2,4.1,19.4,12.2,27.5l45.4,45.4c5.5,5.5,10.3,9.6,14.6,12.3  c4.3,2.7,9.1,4.6,14.5,5.5s12.3,1.4,20.7,1.4h58.8c15,0,26.9-4,35.8-12.1c8.9-8,13.3-18.7,13.3-32v-96.5c0-13.3-4.4-23.9-13.3-31.9  c-8.9-8-20.8-11.9-35.8-11.9H404z M108,348.2c8.4,0,15.3-0.5,20.7-1.4c5.4-0.9,10.2-2.7,14.5-5.4c4.3-2.7,9.2-6.7,14.6-12.2  l45.4-45.4c8.1-8.3,12.2-17.5,12.2-27.8c0-10.2-4.1-19.4-12.2-27.5L157.9,183c-5.5-5.5-10.3-9.6-14.6-12.3  c-4.3-2.7-9.1-4.6-14.5-5.5c-5.4-0.9-12.3-1.4-20.7-1.4H49.2c-15,0-26.9,4-35.8,12.1c-8.9,8-13.4,18.7-13.4,32v96.5  c0,13.3,4.5,23.9,13.4,31.9c8.9,8,20.8,11.9,35.8,11.9H108z M197.4,108.3V50.2c0-5.3,1.5-9.4,4.4-12.4c3-3,7.2-4.5,12.6-4.5h83.4  c5.3,0,9.4,1.5,12.4,4.5c3,3,4.5,7.1,4.5,12.4v58.1c0,5.9-0.5,10.8-1.6,14.5c-1.1,3.7-3.7,7.6-7.7,11.5l-44,44  c-3.4,3.4-6.9,3.4-10.5,0l-43.8-44c-4.1-3.9-6.7-7.7-7.8-11.5C198,119.1,197.4,114.3,197.4,108.3z M108,314.7H50.1  c-5.3,0-9.4-1.5-12.4-4.5c-3-3-4.4-7.1-4.4-12.4v-83.4c0-5.5,1.5-9.7,4.4-12.6c3-3,7.1-4.5,12.4-4.5H108c6.1,0,11,0.6,14.6,1.8  c3.7,1.2,7.5,3.8,11.6,7.8l44,43.8c3.4,3.6,3.4,7.2-0.2,10.8l-43.8,43.8c-4.1,4.1-7.9,6.6-11.6,7.7  C118.9,314.1,114.1,314.7,108,314.7z M404,197.6h57.9c5.3,0,9.4,1.5,12.4,4.4c3,3,4.5,7.1,4.5,12.4v83.4c0,5.5-1.5,9.7-4.5,12.6  c-3,3-7.1,4.5-12.4,4.5H404c-6.1,0-11-0.6-14.6-1.8c-3.7-1.2-7.5-3.8-11.6-7.8l-44-43.8c-3.4-3.6-3.4-7.2,0.2-10.8l43.8-43.8  c4.1-4.1,7.9-6.6,11.6-7.7C393.1,198.1,397.9,197.6,404,197.6z" class="hierarchical-0:secondary SFSymbolsPreview4D4D4D" style="fill: #4D4D4D;"/>
<path d="M348.3,403.9c0-8.4-0.5-15.3-1.4-20.6c-0.9-5.3-2.8-10.1-5.5-14.5c-2.7-4.4-6.8-9.2-12.3-14.5l-45.4-45.7  c-8.1-8.1-17.3-12.2-27.5-12.2c-10.2,0-19.5,4.1-27.8,12.2l-45.4,45.7c-5.3,5.3-9.3,10.1-12.1,14.5c-2.7,4.4-4.6,9.2-5.5,14.5  c-0.9,5.3-1.4,12.2-1.4,20.6v59c0,15,4,26.9,11.9,35.7c8,8.8,18.7,13.2,32.1,13.2h96.3c13.3,0,23.9-4.4,32-13.2  c8-8.8,12.1-20.7,12.1-35.7V403.9z" class="hierarchical-1:primary SFSymbolsPreview212121" style="fill: #212121;"/>
</svg>