<?xml version="1.0" encoding="UTF-8"?>
<!--Generator: Apple Native CoreSVG 326-->
<!DOCTYPE svg
PUBLIC "-//W3C//DTD SVG 1.1//EN"
       "http://www.w3.org/Graphics/SVG/1.1/DTD/svg11.dtd">
<svg version="1.1" xmlns="http://www.w3.org/2000/svg" xmlns:xlink="http://www.w3.org/1999/xlink" viewBox="0 0 44.4629 28.8379">
 <g>
  <rect height="28.8379" opacity="0" width="44.4629" x="0" y="0"/>
  <path d="M16.4844 19.9414L27.5488 19.9414C30.791 19.9414 31.4746 17.3828 30.3906 15.2344L27.1973 8.93555C26.543 7.63672 25.7031 6.92383 23.8574 6.92383L20.2246 6.92383C18.3789 6.92383 17.5586 7.63672 16.8848 8.93555L13.6426 15.2344C12.5586 17.3633 13.2422 19.9414 16.4844 19.9414ZM8.35938 23.3301L15.5469 20.7812L15.2637 19.3652L8.04688 21.9238C5.625 22.7832 4.36523 21.7969 4.36523 20L4.36523 17.5879C4.36523 17.3145 4.44336 17.2559 4.75586 17.2559L5.35156 17.2559C5.69336 17.2559 5.76172 17.3047 5.76172 17.5879L5.76172 19.5801C5.76172 20.6152 6.36719 20.9863 7.5 20.5762L14.1992 18.1641L14.4238 16.6113L7.63672 19.082C7.31445 19.1992 7.1875 18.9941 7.1875 18.6914L7.1875 17.2754C7.1875 16.4355 6.71875 15.9766 5.89844 15.9766L4.18945 15.9766C3.39844 15.9766 2.92969 16.4355 2.92969 17.2754L2.92969 20.1074C2.92969 22.4902 4.76562 24.6094 8.35938 23.3301ZM20.1172 28.8379L23.8965 28.8379C24.6973 28.8379 25.1953 28.2324 25.1953 27.4414L25.1953 24.5508L18.8281 24.5508L18.8281 27.4414C18.8281 28.2324 19.3262 28.8379 20.1172 28.8379ZM22.0117 27.6367C21.4453 27.6367 20.9766 27.1973 20.9766 26.6016C20.9766 26.0156 21.4453 25.5859 22.0117 25.5859C22.5781 25.5859 23.0469 26.0352 23.0469 26.6016C23.0469 27.1973 22.5684 27.6367 22.0117 27.6367ZM18.9062 25.293L25.1172 25.293C25.9863 25.293 26.7285 24.9902 27.1484 24.2676L30.5469 18.457L28.125 19.3359L25.8301 23.2324C25.625 23.584 25.3516 23.7109 24.834 23.7109L19.1797 23.7109C18.6719 23.7109 18.3984 23.584 18.1836 23.2324L15.8203 19.209L13.418 18.3398L16.875 24.2676C17.2949 24.9902 18.0371 25.293 18.9062 25.293ZM15.293 13.6133L15.8594 12.2656L12.3438 10.3809C11.1719 9.75586 10.8984 9.375 10.8984 7.89062L10.8984 6.20117C10.8984 5.9375 10.9668 5.86914 11.2793 5.86914L11.8848 5.86914C12.2168 5.86914 12.2852 5.92773 12.2852 6.20117L12.2852 7.85156C12.2852 8.67188 12.5293 8.93555 13.0957 9.22852L16.4551 10.9863L17.168 9.6875L14.043 8.00781C13.8184 7.88086 13.7207 7.72461 13.7207 7.55859L13.7207 5.89844C13.7207 5.05859 13.252 4.59961 12.4316 4.59961L10.7129 4.59961C9.93164 4.59961 9.45312 5.05859 9.45312 5.89844L9.45312 8.0957C9.45312 10.1367 9.95117 10.8008 11.7773 11.7676ZM16.7383 18.3496C14.9512 18.3496 14.541 17.1191 15.2832 15.6641L18.3105 9.70703C18.75 8.83789 19.1797 8.53516 20.2344 8.53516L23.8477 8.53516C24.9121 8.53516 25.332 8.83789 25.7715 9.70703L28.7695 15.6641C29.5117 17.1191 29.1113 18.3496 27.3242 18.3496ZM15.918 3.52539C16.3477 3.52539 16.6406 3.1543 16.6406 2.76367C16.6406 2.37305 16.3477 1.99219 15.918 1.99219L7.23633 1.99219C6.80664 1.99219 6.52344 2.37305 6.52344 2.76367C6.52344 3.1543 6.80664 3.52539 7.23633 3.52539ZM35.7129 23.3301C39.3164 24.6094 41.1523 22.4902 41.1523 20.1074L41.1523 17.2754C41.1523 16.4355 40.6836 15.9766 39.8926 15.9766L38.1836 15.9766C37.3633 15.9766 36.8945 16.4355 36.8945 17.2754L36.8945 18.6914C36.8945 18.9941 36.7676 19.1992 36.4453 19.082L29.6582 16.6113L29.8828 18.1641L36.582 20.5762C37.7148 20.9863 38.3203 20.6152 38.3203 19.5801L38.3203 17.5879C38.3203 17.3047 38.3887 17.2559 38.7207 17.2559L39.3262 17.2559C39.6387 17.2559 39.7168 17.3145 39.7168 17.5879L39.7168 20C39.7168 21.7969 38.457 22.7832 36.0352 21.9238L28.8086 19.3652L28.5352 20.7812ZM28.7891 13.6133L32.3047 11.7676C34.1309 10.8008 34.6289 10.1367 34.6289 8.0957L34.6289 5.89844C34.6289 5.05859 34.1504 4.59961 33.3691 4.59961L31.6504 4.59961C30.8301 4.59961 30.3613 5.05859 30.3613 5.89844L30.3613 7.55859C30.3613 7.72461 30.2637 7.88086 30.0391 8.00781L26.9141 9.6875L27.627 10.9863L30.9863 9.22852C31.5527 8.93555 31.7969 8.67188 31.7969 7.85156L31.7969 6.20117C31.7969 5.92773 31.8652 5.86914 32.1973 5.86914L32.8027 5.86914C33.1152 5.86914 33.1836 5.9375 33.1836 6.20117L33.1836 7.89062C33.1836 9.375 32.9102 9.75586 31.7383 10.3809L28.2227 12.2656ZM28.125 3.52539L36.8066 3.52539C37.2363 3.52539 37.5195 3.1543 37.5195 2.76367C37.5195 2.37305 37.2363 1.99219 36.8066 1.99219L28.125 1.99219C27.6953 1.99219 27.4023 2.37305 27.4023 2.76367C27.4023 3.1543 27.6953 3.52539 28.125 3.52539ZM9.4043 14.9023C9.83398 14.9023 10.1172 14.5312 10.1172 14.1406C10.1172 13.75 9.83398 13.3691 9.4043 13.3691L0.722656 13.3691C0.292969 13.3691 0 13.75 0 14.1406C0 14.5312 0.292969 14.9023 0.722656 14.9023ZM34.6973 14.9023L43.3789 14.9023C43.8086 14.9023 44.1016 14.5312 44.1016 14.1406C44.1016 13.75 43.8086 13.3691 43.3789 13.3691L34.6973 13.3691C34.2676 13.3691 33.9844 13.75 33.9844 14.1406C33.9844 14.5312 34.2676 14.9023 34.6973 14.9023ZM31.5234 5.08789L33.4766 5.08789L33.4766 1.88477C33.4766 1.34766 33.0566 0.888672 32.4902 0.888672C31.9531 0.888672 31.5234 1.34766 31.5234 1.88477ZM12.5586 5.08789L12.5586 1.88477C12.5586 1.34766 12.1289 0.888672 11.5723 0.888672C11.0254 0.888672 10.5957 1.34766 10.5957 1.88477L10.5957 5.08789ZM38.0566 16.3672L40.0098 16.3672L40.0098 13.1641C40.0098 12.627 39.5801 12.168 39.0137 12.168C38.4766 12.168 38.0566 12.627 38.0566 13.1641ZM6.02539 16.3672L6.02539 13.1641C6.02539 12.627 5.60547 12.168 5.03906 12.168C4.50195 12.168 4.07227 12.627 4.07227 13.1641L4.07227 16.3672Z" fill="black" fill-opacity="0.85"/>
 </g>
</svg>
