<?xml version="1.0" ?><!-- Generator: Adobe Illustrator 25.0.0, SVG Export Plug-In . SVG Version: 6.00 Build 0)  --><svg xmlns="http://www.w3.org/2000/svg" xmlns:xlink="http://www.w3.org/1999/xlink" version="1.1" id="Layer_1" x="0px" y="0px" viewBox="0 0 512 512" style="enable-background:new 0 0 512 512;" xml:space="preserve">
<path d="M60.7,491.4h390.7c37.3,0,60.7-26.9,60.7-60.7c0-10.2-2.5-20.4-8-29.8L308.3,51.5c-11.2-20.1-31.8-30.8-52.2-30.8  c-20.6,0-41.3,10.7-52.5,30.8L8.2,401.1C3,410.5,0,420.5,0,430.7C0,464.5,23.4,491.4,60.7,491.4z M256.1,396.1  c-38,0-68.9-29.8-68.9-67.6c0-21.9,10.4-42.5,20.9-61.7l41.5-77.1c1.7-2.7,3.5-4.5,6.5-4.5c3,0,5.2,1.7,6.5,4.5l41.8,77.1  c10.4,19.1,20.9,39.8,20.9,61.7C325.3,366.3,294.2,396.1,256.1,396.1z"/>
</svg>