<?xml version="1.0" ?><!-- Generator: Adobe Illustrator 25.0.0, SVG Export Plug-In . SVG Version: 6.00 Build 0)  --><svg xmlns="http://www.w3.org/2000/svg" xmlns:xlink="http://www.w3.org/1999/xlink" version="1.1" id="Layer_1" x="0px" y="0px" viewBox="0 0 512 512" style="enable-background:new 0 0 512 512;" xml:space="preserve">
<path d="M256,512c35,0,67.9-6.7,98.8-20.1c30.9-13.4,58.1-31.9,81.7-55.5c23.6-23.6,42.1-50.8,55.5-81.7  C505.3,323.9,512,291,512,256s-6.7-67.9-20.1-98.8c-13.4-30.9-31.9-58.1-55.5-81.7c-23.6-23.6-50.9-42.1-81.8-55.5  C323.7,6.7,290.7,0,255.7,0S187.9,6.7,157,20.1C126.1,33.5,98.9,52,75.4,75.5c-23.5,23.6-42,50.8-55.3,81.7C6.7,188.1,0,221,0,256  s6.7,67.9,20.1,98.8c13.4,30.9,31.9,58.1,55.5,81.7c23.6,23.6,50.8,42.1,81.7,55.5C188.1,505.3,221,512,256,512z" class="hierarchical-0:tertiary SFSymbolsPreview8E8E8E" style="fill: #8E8E8E;"/>
<path d="M255.7,393.3c-19.4,0-36.5-4-51.2-11.9c-14.7-7.9-26.1-19-34.3-33.1c-8.1-14.1-12.2-30.7-12.2-49.6c0-14.2,2.3-27.4,7-39.7  c4.7-12.2,9.1-23.1,13.3-32.6c7.7-16.7,17.4-34.8,29-54.2c11.6-19.4,22.8-37.6,33.5-54.5c2.3-3.2,4.7-5.5,7-7  c2.3-1.5,4.9-2.3,7.8-2.3c2.8,0,5.4,0.8,7.8,2.3c2.3,1.5,4.7,3.8,7,7c10.9,16.9,22.1,35.1,33.6,54.5c11.5,19.4,21.2,37.5,29.1,54.2  c4.2,9.5,8.6,20.4,13.3,32.6c4.7,12.2,7,25.4,7,39.7c0,18.9-4.1,35.4-12.3,49.6c-8.2,14.1-19.6,25.2-34.3,33.1  C292.4,389.3,275.3,393.3,255.7,393.3z" class="hierarchical-1:primary SFSymbolsPreview212121" style="fill: #212121;"/>
</svg>