<?xml version="1.0" encoding="UTF-8"?>
<!--Generator: Apple Native CoreSVG 326-->
<!DOCTYPE svg
PUBLIC "-//W3C//DTD SVG 1.1//EN"
       "http://www.w3.org/Graphics/SVG/1.1/DTD/svg11.dtd">
<svg version="1.1" xmlns="http://www.w3.org/2000/svg" xmlns:xlink="http://www.w3.org/1999/xlink" viewBox="0 0 34.1504 24.1504">
 <g>
  <rect height="24.1504" opacity="0" width="34.1504" x="0" y="0"/>
  <path d="M8.78906 8.32031L10.5273 8.32031L10.5273 4.98047C10.5273 2.95898 12.041 1.76758 14.375 1.76758L19.4141 1.76758C21.7578 1.76758 23.2715 2.95898 23.2715 4.98047L23.2715 8.32031L25.0098 8.32031L25.0098 4.98047C25.0098 1.91406 22.8125 0.0390625 19.4141 0.0390625L14.375 0.0390625C10.9863 0.0390625 8.78906 1.91406 8.78906 4.98047ZM4.00391 24.1504L29.7852 24.1504C32.2461 24.1504 33.7891 22.627 33.7891 20.2051L33.7891 13.2812C33.7891 9.63867 31.2891 7.16797 27.627 7.16797L6.16211 7.16797C2.5 7.16797 0 9.63867 0 13.2812L0 20.2051C0 22.627 1.54297 24.1504 4.00391 24.1504ZM4.02344 22.4219C2.60742 22.4219 1.72852 21.5332 1.72852 20.127L1.72852 13.3594C1.72852 10.6934 3.51562 8.90625 6.18164 8.90625L27.6074 8.90625C30.2734 8.90625 32.0605 10.6934 32.0605 13.3594L32.0605 20.127C32.0605 21.5332 31.1816 22.4219 29.7656 22.4219ZM7.23633 23.418L8.67188 23.418L8.67188 7.92969L7.23633 7.92969ZM10.6445 23.418L12.0801 23.418L12.0801 7.92969L10.6445 7.92969ZM21.7188 23.418L23.1543 23.418L23.1543 7.92969L21.7188 7.92969ZM25.127 23.418L26.5625 23.418L26.5625 7.92969L25.127 7.92969ZM11.3574 15.3418L22.4121 15.3418L22.4121 13.9062L11.3574 13.9062Z" fill="black" fill-opacity="0.85"/>
 </g>
</svg>
