<?xml version="1.0" encoding="UTF-8"?>
<!--Generator: Apple Native CoreSVG 326-->
<!DOCTYPE svg
PUBLIC "-//W3C//DTD SVG 1.1//EN"
       "http://www.w3.org/Graphics/SVG/1.1/DTD/svg11.dtd">
<svg version="1.1" xmlns="http://www.w3.org/2000/svg" xmlns:xlink="http://www.w3.org/1999/xlink" viewBox="0 0 30.8496 18.2324">
 <g>
  <rect height="18.2324" opacity="0" width="30.8496" x="0" y="0"/>
  <path d="M1.69922 15.4883C2.66602 15.4883 3.4082 14.7461 3.4082 13.8086L3.4082 4.41406C3.4082 3.45703 2.66602 2.71484 1.69922 2.71484C0.742188 2.71484 0 3.45703 0 4.41406L0 13.8086C0 14.7461 0.742188 15.4883 1.69922 15.4883ZM7.38281 18.2129C8.97461 18.2129 10.0977 17.1582 10.0977 15.6641L10.0977 2.56836C10.0977 1.06445 8.97461 0 7.38281 0C5.79102 0 4.66797 1.06445 4.66797 2.56836L4.66797 15.6641C4.66797 17.1582 5.79102 18.2129 7.38281 18.2129ZM11.4648 11.4941L19.1309 11.4941L19.1309 6.72852L11.4648 6.72852ZM23.2031 18.2129C24.7949 18.2129 25.918 17.1582 25.918 15.6641L25.918 2.56836C25.918 1.06445 24.7949 0 23.2031 0C21.6113 0 20.4883 1.06445 20.4883 2.56836L20.4883 15.6641C20.4883 17.1582 21.6113 18.2129 23.2031 18.2129ZM28.7891 15.4883C29.7461 15.4883 30.4883 14.7461 30.4883 13.8086L30.4883 4.41406C30.4883 3.45703 29.7461 2.71484 28.7891 2.71484C27.8223 2.71484 27.0801 3.45703 27.0801 4.41406L27.0801 13.8086C27.0801 14.7461 27.8223 15.4883 28.7891 15.4883Z" fill="black" fill-opacity="0.85"/>
 </g>
</svg>
