<?xml version="1.0" ?><!-- Generator: Adobe Illustrator 25.0.0, SVG Export Plug-In . SVG Version: 6.00 Build 0)  --><svg xmlns="http://www.w3.org/2000/svg" xmlns:xlink="http://www.w3.org/1999/xlink" version="1.1" id="Layer_1" x="0px" y="0px" viewBox="0 0 512 512" style="enable-background:new 0 0 512 512;" xml:space="preserve">
<path d="M256,512c140,0,256-116.2,256-256C512,116,395.8,0,255.7,0C116,0,0,116,0,256C0,395.8,116.2,512,256,512z M196.3,371.5  c-13.6,0-20.6-9.3-20.6-23.3v-189c0-14.1,7-23.3,20.6-23.3h122.5c9.8,0,17.1,6,17.1,16.8c0,10.3-7.3,17.1-17.1,17.1H217.3v66H312  c9.8,0,17.1,5.8,17.1,16.6c0,10-7.3,15.8-17.1,15.8h-94.6v69.5h101.4c9.8,0,17.1,6.3,17.1,17.1c0,10.3-7.3,16.8-17.1,16.8H196.3z"/>
</svg>