<?xml version="1.0" ?><!-- Generator: Adobe Illustrator 25.0.0, SVG Export Plug-In . SVG Version: 6.00 Build 0)  --><svg xmlns="http://www.w3.org/2000/svg" xmlns:xlink="http://www.w3.org/1999/xlink" version="1.1" id="Layer_1" x="0px" y="0px" viewBox="0 0 512 512" style="enable-background:new 0 0 512 512;" xml:space="preserve">
<path d="M87.3,512h337.3c58.4,0,87.3-28.9,87.3-86.2V86.2C512,28.9,483.1,0,424.7,0H87.3C29.2,0,0,28.6,0,86.2v339.6  C0,483.4,29.2,512,87.3,512z M190.2,383.5c-15,0-22.5-10.3-22.5-25.9V148.2c0-15.6,7.5-25.9,22.5-25.9h135.7  c11.1,0,18.9,6.7,18.9,18.6c0,11.4-7.8,18.9-18.9,18.9H213.6v73.1h104.8c11.1,0,18.9,6.4,18.9,18.4c0,11.1-7.8,17.5-18.9,17.5H213.6  v77h112.4c11.1,0,18.9,7,18.9,18.9c0,11.4-7.8,18.6-18.9,18.6H190.2z"/>
</svg>