<?xml version="1.0" ?><!-- Generator: Adobe Illustrator 25.0.0, SVG Export Plug-In . SVG Version: 6.00 Build 0)  --><svg xmlns="http://www.w3.org/2000/svg" xmlns:xlink="http://www.w3.org/1999/xlink" version="1.1" id="Layer_1" x="0px" y="0px" viewBox="0 0 512 512" style="enable-background:new 0 0 512 512;" xml:space="preserve">
<path d="M71.6,403.5c0,66.3,41.3,108.5,105.9,108.5c48.3,0,84.3-21.1,107.1-62l21.6-38.7c50.7-92.7,134.2-104.7,134.2-223.8  C440.4,75.2,367.7,0,258.6,0C147,0,71.6,75.6,71.6,188.5V403.5z M136.2,299.7V179.9c0-67.5,47.3-112.9,122.2-112.9  c72.5,0,117.7,45.4,117.7,112.9c0,9.8-8.4,18.3-18.3,18.3c-9.8,0-18-8.4-18-18.3c0-46.3-30-76.6-81.4-76.6c-53.8,0-86,30.5-86,76.6  v30.5H245c38.9,0,64.6,23.8,64.6,59.1c0,14.9-6.5,33.1-16.3,45.6L262,354.7c-4.1,5-9.4,7.9-14.9,7.9c-9.8,0-18.3-8.2-18.3-18  c0-4.6,1.7-8.9,4.8-13l28.8-36.3c5.8-7,9.6-17.1,9.6-24.5c0-14.4-10.3-24.3-26.7-24.3h-73v53.1c0,9.8-8.4,18.3-18.3,18.3  C144.3,318,136.2,309.6,136.2,299.7z"/>
</svg>