<?xml version="1.0" encoding="UTF-8"?>
<!--Generator: Apple Native CoreSVG 326-->
<!DOCTYPE svg
PUBLIC "-//W3C//DTD SVG 1.1//EN"
       "http://www.w3.org/Graphics/SVG/1.1/DTD/svg11.dtd">
<svg version="1.1" xmlns="http://www.w3.org/2000/svg" xmlns:xlink="http://www.w3.org/1999/xlink" viewBox="0 0 19.6777 27.1973">
 <g>
  <rect height="27.1973" opacity="0" width="19.6777" x="0" y="0"/>
  <path d="M0.595703 21.0156C0.595703 24.4043 2.72461 26.582 6.04492 26.582C8.54492 26.582 10.4395 25.4199 11.5918 23.252L12.6172 21.3867C15.293 16.3184 19.6777 15.8887 19.6777 9.70703C19.6777 3.87695 15.9277 0 10.2734 0C4.50195 0 0.595703 3.93555 0.595703 9.77539ZM2.22656 20.918L2.22656 9.77539C2.22656 4.88281 5.45898 1.63086 10.2734 1.63086C14.9414 1.63086 18.0469 4.87305 18.0469 9.70703C18.0469 15.0098 13.916 15.6836 11.1719 20.6543L10.166 22.4121C9.24805 24.0918 7.91992 24.9121 6.11328 24.9121C3.7207 24.9121 2.22656 23.3789 2.22656 20.918ZM5 16.1133C5.43945 16.1133 5.81055 15.7422 5.81055 15.3027L5.81055 9.6582C5.81055 7.10938 7.57812 5.42969 10.2441 5.42969C12.8223 5.42969 14.4824 7.08984 14.4824 9.6582C14.4824 10.0977 14.8535 10.4688 15.3027 10.4688C15.7422 10.4688 16.1133 10.0977 16.1133 9.6582C16.1133 6.14258 13.7695 3.79883 10.2441 3.79883C6.63086 3.79883 4.17969 6.15234 4.17969 9.6582L4.17969 15.3027C4.17969 15.7422 4.55078 16.1133 5 16.1133ZM4.92188 12.2949L9.31641 12.2949C10.2441 12.2949 10.8496 12.8613 10.8496 13.6914C10.8496 14.1211 10.625 14.6777 10.3125 15.0586L8.78906 16.9824C8.65234 17.1582 8.57422 17.3535 8.57422 17.5586C8.57422 18.0078 8.95508 18.3691 9.4043 18.3691C9.64844 18.3691 9.89258 18.2422 10.0781 18.0078L11.7188 15.9277C12.2168 15.293 12.5488 14.3652 12.5488 13.6133C12.5488 11.8457 11.25 10.6641 9.28711 10.6641L4.92188 10.6641Z" fill="black" fill-opacity="0.85"/>
 </g>
</svg>
