<?xml version="1.0" ?><!-- Generator: Adobe Illustrator 25.0.0, SVG Export Plug-In . SVG Version: 6.00 Build 0)  --><svg xmlns="http://www.w3.org/2000/svg" xmlns:xlink="http://www.w3.org/1999/xlink" version="1.1" id="Layer_1" x="0px" y="0px" viewBox="0 0 512 512" style="enable-background:new 0 0 512 512;" xml:space="preserve">
<path d="M132.4,426.2h247.2c44.6,0,77.9-10.6,99.7-31.9c21.8-21.2,32.7-53.6,32.7-97.1v-81.8c0-43.8-10.7-76.3-32.1-97.6  c-21.4-21.3-54-32-98-32H130c-43.8,0-76.4,10.7-97.9,32S0,171.7,0,215.4v81.8c0,43.5,10.9,75.9,32.7,97.1  C54.5,415.5,87.8,426.2,132.4,426.2z M132.4,391.6c-33.8,0-58.5-7.6-74.2-22.7c-15.7-15.2-23.6-39.1-23.6-71.7v-81.8  c0-32.8,7.7-56.8,23.1-72.1c15.4-15.3,39.5-23,72.4-23H382c33,0,57.2,7.7,72.5,23c15.3,15.3,23,39.3,23,72.1v81.8  c0,32.6-7.9,56.5-23.6,71.7c-15.7,15.2-40.5,22.7-74.2,22.7H132.4z M17.4,229.8h477.2v-21.7H17.4V229.8z M256,309.6  c5.7,0,10.6-2,14.7-6.1c4.1-4.1,6.1-9,6.1-14.7c0-5.7-2-10.6-6.1-14.6c-4.1-4-9-6-14.7-6c-5.7,0-10.6,2-14.6,6c-4,4-6,8.9-6,14.6  c0,5.7,2,10.6,6,14.7C245.4,307.6,250.3,309.6,256,309.6z"/>
</svg>