<?xml version="1.0" encoding="UTF-8"?>
<!--Generator: Apple Native CoreSVG 326-->
<!DOCTYPE svg
PUBLIC "-//W3C//DTD SVG 1.1//EN"
       "http://www.w3.org/Graphics/SVG/1.1/DTD/svg11.dtd">
<svg version="1.1" xmlns="http://www.w3.org/2000/svg" xmlns:xlink="http://www.w3.org/1999/xlink" viewBox="0 0 21.3281 26.9238">
 <g>
  <rect height="26.9238" opacity="0" width="21.3281" x="0" y="0"/>
  <path d="M5.37109 10.0488C5.04883 10.0488 4.77539 9.77539 4.77539 9.46289C4.77539 9.13086 5.03906 8.85742 5.37109 8.85742L7.28516 8.85742L8.35938 4.36523C8.52539 3.7207 9.36523 3.73047 9.51172 4.375L10.7617 10.4883L12.0312 6.2207C12.2266 5.61523 13.0273 5.60547 13.1934 6.20117L13.8672 8.85742L15.5859 8.85742C15.9277 8.85742 16.1914 9.12109 16.1914 9.46289C16.1914 9.77539 15.918 10.0488 15.5859 10.0488L13.4961 10.0488C13.1543 10.0488 12.9199 9.85352 12.8418 9.51172L12.5781 8.44727L11.2793 13.0078C11.084 13.6426 10.2441 13.6328 10.1074 12.9883L8.91602 7.17773L8.33008 9.54102C8.25195 9.85352 8.01758 10.0488 7.66602 10.0488ZM5.42969 17.4609C5.01953 17.4609 4.7168 17.1484 4.7168 16.7578C4.7168 16.377 5.01953 16.0742 5.42969 16.0742L15.5762 16.0742C15.9766 16.0742 16.2793 16.377 16.2793 16.7578C16.2793 17.1484 15.9766 17.4609 15.5762 17.4609ZM5.42969 21.3867C5.01953 21.3867 4.7168 21.084 4.7168 20.6934C4.7168 20.3027 5.01953 19.9902 5.42969 19.9902L10.2734 19.9902C10.6836 19.9902 10.9766 20.3027 10.9766 20.6934C10.9766 21.084 10.6836 21.3867 10.2734 21.3867ZM0 23.125C0 25.6445 1.25977 26.9238 3.75977 26.9238L17.207 26.9238C19.707 26.9238 20.9668 25.6445 20.9668 23.125L20.9668 3.80859C20.9668 1.28906 19.707 0.00976562 17.207 0.00976562L3.75977 0.00976562C1.25977 0.00976562 0 1.28906 0 3.80859Z" fill="black" fill-opacity="0.85"/>
 </g>
</svg>
