<?xml version="1.0" encoding="UTF-8"?>
<!--Generator: Apple Native CoreSVG 326-->
<!DOCTYPE svg
PUBLIC "-//W3C//DTD SVG 1.1//EN"
       "http://www.w3.org/Graphics/SVG/1.1/DTD/svg11.dtd">
<svg version="1.1" xmlns="http://www.w3.org/2000/svg" xmlns:xlink="http://www.w3.org/1999/xlink" viewBox="0 0 21.3281 26.9238">
 <g>
  <rect height="26.9238" opacity="0" width="21.3281" x="0" y="0"/>
  <path d="M0 23.125C0 25.6445 1.25977 26.9238 3.75977 26.9238L17.207 26.9238C19.707 26.9238 20.9668 25.6445 20.9668 23.125L20.9668 3.80859C20.9668 1.28906 19.707 0.00976562 17.207 0.00976562L3.75977 0.00976562C1.25977 0.00976562 0 1.28906 0 3.80859ZM1.72852 23.0859L1.72852 3.84766C1.72852 2.48047 2.45117 1.73828 3.85742 1.73828L17.1094 1.73828C18.5156 1.73828 19.2383 2.48047 19.2383 3.84766L19.2383 23.0859C19.2383 24.4531 18.5156 25.1953 17.1094 25.1953L3.85742 25.1953C2.45117 25.1953 1.72852 24.4531 1.72852 23.0859Z" fill="black" fill-opacity="0.85"/>
  <path d="M5.54688 17.3438L15.459 17.3438C15.8496 17.3438 16.1426 17.041 16.1426 16.6602C16.1426 16.2793 15.8496 15.9863 15.459 15.9863L5.54688 15.9863C5.14648 15.9863 4.85352 16.2793 4.85352 16.6602C4.85352 17.041 5.14648 17.3438 5.54688 17.3438ZM5.54688 21.1719L10.2832 21.1719C10.6738 21.1719 10.9668 20.8789 10.9668 20.5078C10.9668 20.127 10.6738 19.8242 10.2832 19.8242L5.54688 19.8242C5.14648 19.8242 4.85352 20.127 4.85352 20.5078C4.85352 20.8789 5.14648 21.1719 5.54688 21.1719Z" fill="black" fill-opacity="0.85"/>
  <path d="M5.48828 10.1074L7.73438 10.1074C8.07617 10.1074 8.30078 9.92188 8.37891 9.61914L8.95508 7.28516L10.127 12.9883C10.2539 13.6133 11.0742 13.623 11.2598 13.0078L12.5293 8.55469L12.793 9.58984C12.8711 9.92188 13.0957 10.1074 13.4277 10.1074L15.4688 10.1074C15.791 10.1074 16.0547 9.84375 16.0547 9.54102C16.0547 9.21875 15.8008 8.95508 15.4688 8.95508L13.7891 8.95508L13.1152 6.36719C12.9688 5.78125 12.1875 5.79102 12.002 6.38672L10.7617 10.5566L9.53125 4.57031C9.4043 3.94531 8.57422 3.93555 8.41797 4.56055L7.36328 8.95508L5.48828 8.95508C5.16602 8.95508 4.91211 9.22852 4.91211 9.54102C4.91211 9.84375 5.17578 10.1074 5.48828 10.1074Z" fill="black" fill-opacity="0.85"/>
 </g>
</svg>
