<?xml version="1.0" ?><!-- Generator: Adobe Illustrator 25.0.0, SVG Export Plug-In . SVG Version: 6.00 Build 0)  --><svg xmlns="http://www.w3.org/2000/svg" xmlns:xlink="http://www.w3.org/1999/xlink" version="1.1" id="Layer_1" x="0px" y="0px" viewBox="0 0 512 512" style="enable-background:new 0 0 512 512;" xml:space="preserve">
<path d="M256,512c140,0,256-116.2,256-256C512,116,395.8,0,255.7,0C116,0,0,116,0,256C0,395.8,116.2,512,256,512z M362.9,265.5  H148.3c-10.8,0-15.8-5.5-16.6-15.1c-0.3-4.5,1.8-9,5.8-13.1l101.9-112.2c4-4.5,9.8-8.3,16.3-8.3c6.5,0,12,3,16.3,8.3l101.6,112.2  c3.8,4.3,6,8.5,6,13.1C379.7,260,373.5,265.5,362.9,265.5z M356.9,298.2c16.1,0,25.3,8.5,25.3,24.3v16.3c0,15.8-9.3,24.3-25.3,24.3  H154.6c-16.1,0-25.3-8.5-25.3-24.3v-16.3c0-15.8,9.3-24.3,25.3-24.3H356.9z"/>
</svg>