<?xml version="1.0" ?><!-- Generator: Adobe Illustrator 25.0.0, SVG Export Plug-In . SVG Version: 6.00 Build 0)  --><svg xmlns="http://www.w3.org/2000/svg" xmlns:xlink="http://www.w3.org/1999/xlink" version="1.1" id="Layer_1" x="0px" y="0px" viewBox="0 0 512 512" style="enable-background:new 0 0 512 512;" xml:space="preserve">
<path d="M44.4,309.7h423.7c24.5,0,37.2-12.5,37.7-33.8c0.3-10.1-4.8-20.5-13-29.5L293.2,27.1c-9.8-10.6-22.1-18.6-37-18.6  c-15.2,0-26.6,7.4-37.2,18.6L19.7,246.4c-8.2,9-13,19.4-13,29.5C6.6,297.2,19.9,309.7,44.4,309.7z M72.6,269.6  c-5.1,0-7.4-2.4-7.4-6.1c0-1.9,0.8-3.7,2.1-5.1L247.5,62.5c2.9-2.9,5.1-5.1,8.8-5.1c3.7,0,6.1,2.1,8.8,5.1l180,195.9  c1.6,1.6,2.4,3.2,2.4,5.1c0,3.7-2.7,6.1-7.4,6.1H72.6z M57.2,503.5h397.7c36.7,0,57.2-19.1,57.2-55v-30.6c0-35.9-20.5-55-57.2-55  H57.2c-36.7,0-57.2,18.9-57.2,55v30.6C0,484.6,20.5,503.5,57.2,503.5z M60.6,464.4c-11.7,0-17.8-6.9-17.8-18.6v-25.3  c0-11.7,6.1-18.6,17.8-18.6h390.8c12,0,17.8,6.9,17.8,18.6v25.3c0,11.7-5.8,18.6-17.8,18.6H60.6z"/>
</svg>