<?xml version="1.0" encoding="UTF-8"?>
<!--Generator: Apple Native CoreSVG 326-->
<!DOCTYPE svg
PUBLIC "-//W3C//DTD SVG 1.1//EN"
       "http://www.w3.org/Graphics/SVG/1.1/DTD/svg11.dtd">
<svg version="1.1" xmlns="http://www.w3.org/2000/svg" xmlns:xlink="http://www.w3.org/1999/xlink" viewBox="0 0 24.4922 23.3496">
 <g>
  <rect height="23.3496" opacity="0" width="24.4922" x="0" y="0"/>
  <path d="M1.69922 14.2578L22.4121 14.2578C23.3496 14.2578 23.8867 13.7598 23.8867 12.9395C23.8867 12.5488 23.7012 12.1289 23.3691 11.7676L13.4961 0.722656C13.0957 0.292969 12.627 0.00976562 12.0508 0.00976562C11.4941 0.00976562 10.9961 0.3125 10.625 0.722656L0.742188 11.7676C0.400391 12.1387 0.214844 12.5488 0.224609 12.9395C0.234375 13.7598 0.761719 14.2578 1.69922 14.2578ZM1.97266 23.3496L22.1582 23.3496C23.3887 23.3496 24.1309 22.5879 24.1309 21.3477L24.1309 19.209C24.1309 17.9688 23.3887 17.207 22.1582 17.207L1.97266 17.207C0.742188 17.207 0 17.9688 0 19.209L0 21.3477C0 22.5879 0.742188 23.3496 1.97266 23.3496Z" fill="black" fill-opacity="0.85"/>
 </g>
</svg>
