<?xml version="1.0" ?><!-- Generator: Adobe Illustrator 25.0.0, SVG Export Plug-In . SVG Version: 6.00 Build 0)  --><svg xmlns="http://www.w3.org/2000/svg" xmlns:xlink="http://www.w3.org/1999/xlink" version="1.1" id="Layer_1" x="0px" y="0px" viewBox="0 0 512 512" style="enable-background:new 0 0 512 512;" xml:space="preserve">
<path d="M38.5,307.7h434.4c21.6,0,33.4-11.3,33.4-30.2c0-8.9-4-18.3-11.6-26.4L288.9,24c-9.2-10-19.7-16.7-33.1-16.7  c-12.9,0-24,7.3-32.9,16.7L16.7,251.1c-7.5,8.1-11.9,17.5-11.6,26.4C5.4,296.4,17,307.7,38.5,307.7z M43.9,504.7h424.1  c27.5,0,43.9-17,43.9-44.5v-48.8c0-27.5-16.4-44.5-43.9-44.5H43.9C16.4,367,0,384,0,411.5v48.8C0,487.7,16.4,504.7,43.9,504.7z"/>
</svg>