<?xml version="1.0" ?><!-- Generator: Adobe Illustrator 25.0.0, SVG Export Plug-In . SVG Version: 6.00 Build 0)  --><svg xmlns="http://www.w3.org/2000/svg" xmlns:xlink="http://www.w3.org/1999/xlink" version="1.1" id="Layer_1" x="0px" y="0px" viewBox="0 0 512 512" style="enable-background:new 0 0 512 512;" xml:space="preserve">
<path d="M256,512c140,0,256-116.2,256-256C512,116,395.8,0,255.7,0C116,0,0,116,0,256C0,395.8,116.2,512,256,512z M256,469.3  c-118.5,0-213.1-94.9-213.1-213.3S137.3,42.7,255.7,42.7S469.1,137.5,469.3,256S374.5,469.3,256,469.3z M359.7,264.8  c10.3,0,16.3-5.3,16.3-14.3c0-4.5-2.3-8.5-5.8-12.5l-98.6-109.2c-4.3-4.8-9.5-8-15.8-8c-6.3,0-11.8,3.8-15.8,8l-98.9,109.2  c-3.8,3.8-5.8,8-5.5,12.5c0.8,9,5.5,14.3,16.1,14.3H359.7z M353.9,296.7H157.6c-15.6,0-24.6,8.3-24.6,23.6v15.6  c0,15.6,9,23.8,24.6,23.8h196.3c15.6,0,24.6-8.3,24.6-23.8v-15.6C378.5,304.9,369.4,296.7,353.9,296.7z"/>
</svg>