<?xml version="1.0" ?><!-- Generator: Adobe Illustrator 25.0.0, SVG Export Plug-In . SVG Version: 6.00 Build 0)  --><svg xmlns="http://www.w3.org/2000/svg" xmlns:xlink="http://www.w3.org/1999/xlink" version="1.1" id="Layer_1" x="0px" y="0px" viewBox="0 0 512 512" style="enable-background:new 0 0 512 512;" xml:space="preserve">
<path d="M109.4,256c0-30.1-24.4-54.3-55.1-54.3C24.4,201.7,0,225.9,0,256s24.4,54.3,54.3,54.3C85,310.3,109.4,286.1,109.4,256z   M310.3,256c0-30.1-24.2-54.3-54.3-54.3c-29.9,0-54,24.2-54,54.3s24.2,54.3,54,54.3C286.1,310.3,310.3,286.1,310.3,256z M512,256  c0-30.1-24.2-54.3-54.3-54.3c-30.7,0-54.8,24.2-54.8,54.3s24.2,54.3,54.8,54.3C487.8,310.3,512,286.1,512,256z"/>
</svg>