<?xml version="1.0" ?><!-- Generator: Adobe Illustrator 25.0.0, SVG Export Plug-In . SVG Version: 6.00 Build 0)  --><svg xmlns="http://www.w3.org/2000/svg" xmlns:xlink="http://www.w3.org/1999/xlink" version="1.1" id="Layer_1" x="0px" y="0px" viewBox="0 0 512 512" style="enable-background:new 0 0 512 512;" xml:space="preserve">
<path d="M256,512c140,0,256-116.2,256-256C512,116,395.8,0,255.7,0C116,0,0,116,0,256C0,395.8,116.2,512,256,512z M256,469.3  c-118.5,0-213.1-94.9-213.1-213.3S137.3,42.7,255.7,42.7S469.1,137.5,469.3,256S374.5,469.3,256,469.3z M138.8,292.6  c20.1,0,36.4-16.6,36.4-36.6c0-20.1-16.6-36.6-36.4-36.6c-20.3,0-36.6,16.6-36.6,36.6C102.1,276.1,118.5,292.6,138.8,292.6z   M255.7,292.6c20.1,0,36.6-16.6,36.6-36.6c0-20.1-16.6-36.6-36.6-36.6c-20.1,0-36.6,16.6-36.6,36.6  C219.1,276.1,235.7,292.6,255.7,292.6z M373,292.6c20.1,0,36.4-16.6,36.4-36.6c0-20.1-16.3-36.6-36.4-36.6  c-20.3,0-36.6,16.6-36.6,36.6C336.3,276.1,352.6,292.6,373,292.6z"/>
</svg>