<?xml version="1.0" ?><!-- Generator: Adobe Illustrator 25.0.0, SVG Export Plug-In . SVG Version: 6.00 Build 0)  --><svg xmlns="http://www.w3.org/2000/svg" xmlns:xlink="http://www.w3.org/1999/xlink" version="1.1" id="Layer_1" x="0px" y="0px" viewBox="0 0 512 512" style="enable-background:new 0 0 512 512;" xml:space="preserve">
<path d="M138,497c9.1,0,15.8-4.6,26.7-14.9l83.9-76.7l157,0.2C474.8,406,512,367.4,512,299.3V121.4C512,53.3,474.8,15,405.6,15  H106.4C37.2,15,0,53.1,0,121.4v177.9c0,68.3,37.2,106.2,106.4,106.2h10.9v67.6C117.3,487.5,124.7,497,138,497z M138.7,244.5  c-18.8,0-34.4-15.3-34.4-34.4c0-19,15.6-34.4,34.4-34.4c19,0,34.4,15.3,34.4,34.4C173.1,229.2,157.7,244.5,138.7,244.5z   M256.2,244.5c-19,0-34.6-15.3-34.6-34.4c0-19,15.6-34.4,34.6-34.4c18.8,0,34.4,15.3,34.4,34.4C290.6,229.2,275,244.5,256.2,244.5z   M373.5,244.5c-19,0-34.4-15.3-34.4-34.4c0-19,15.3-34.4,34.4-34.4c19,0,34.4,15.3,34.4,34.4C407.9,229.2,392.6,244.5,373.5,244.5z"/>
</svg>