<?xml version="1.0" ?><!-- Generator: Adobe Illustrator 25.0.0, SVG Export Plug-In . SVG Version: 6.00 Build 0)  --><svg xmlns="http://www.w3.org/2000/svg" xmlns:xlink="http://www.w3.org/1999/xlink" version="1.1" id="Layer_1" x="0px" y="0px" viewBox="0 0 512 512" style="enable-background:new 0 0 512 512;" xml:space="preserve">
<path d="M256,512c140,0,256-116.2,256-256C512,116,395.8,0,255.7,0C116,0,0,116,0,256C0,395.8,116.2,512,256,512z M135,293.6  c-20.8,0-37.9-16.8-37.9-37.9c0-20.8,17.1-37.6,37.9-37.6c20.6,0,37.6,16.8,37.6,37.6C172.7,276.8,155.9,293.6,135,293.6z   M255.7,293.6c-20.8,0-37.9-16.8-37.9-37.9c0-20.8,17.1-37.6,37.9-37.6s37.9,16.8,37.9,37.6C293.6,276.8,276.6,293.6,255.7,293.6z   M376.7,293.6c-21.1,0-37.9-16.8-37.9-37.9c0-20.8,16.8-37.6,37.9-37.6c20.6,0,37.6,16.8,37.6,37.6  C414.4,276.8,397.3,293.6,376.7,293.6z"/>
</svg>