<?xml version="1.0" encoding="UTF-8"?>
<!--Generator: Apple Native CoreSVG 326-->
<!DOCTYPE svg
PUBLIC "-//W3C//DTD SVG 1.1//EN"
       "http://www.w3.org/Graphics/SVG/1.1/DTD/svg11.dtd">
<svg version="1.1" xmlns="http://www.w3.org/2000/svg" xmlns:xlink="http://www.w3.org/1999/xlink" viewBox="0 0 27.8711 27.2754">
 <g>
  <rect height="27.2754" opacity="0" width="27.8711" x="0" y="0"/>
  <path d="M7.42188 27.2754C7.95898 27.2754 8.33008 26.9922 8.96484 26.4258L13.3691 22.5488L22.002 22.5488C25.5371 22.5488 27.5098 20.5273 27.5098 17.0508L27.5098 7.08984C27.5098 3.60352 25.5371 1.58203 22.002 1.58203L5.50781 1.58203C1.96289 1.58203 0 3.59375 0 7.08984L0 17.0508C0 20.5469 1.96289 22.5488 5.50781 22.5488L6.24023 22.5488L6.24023 25.9082C6.24023 26.7383 6.66992 27.2754 7.42188 27.2754ZM7.85156 25.3125L7.85156 21.6406C7.85156 21.0449 7.62695 20.8203 7.04102 20.8203L5.51758 20.8203C2.99805 20.8203 1.72852 19.4727 1.72852 17.0312L1.72852 7.09961C1.72852 4.6582 2.99805 3.31055 5.51758 3.31055L21.9922 3.31055C24.4824 3.31055 25.7812 4.6582 25.7812 7.09961L25.7812 17.0312C25.7812 19.4727 24.4824 20.8203 21.9922 20.8203L13.3301 20.8203C12.7148 20.8203 12.3926 20.918 11.9629 21.3574Z" fill="black" fill-opacity="0.85"/>
  <path d="M19.7363 13.7695C20.6738 13.7695 21.4453 13.0078 21.4453 12.0605C21.4453 11.123 20.6738 10.3613 19.7363 10.3613C18.7988 10.3613 18.0371 11.123 18.0371 12.0605C18.0371 13.0078 18.7988 13.7695 19.7363 13.7695Z" fill="black" fill-opacity="0.85"/>
  <path d="M13.7598 13.7695C14.6973 13.7695 15.459 13.0078 15.459 12.0605C15.459 11.123 14.6973 10.3613 13.7598 10.3613C12.8125 10.3613 12.0508 11.123 12.0508 12.0605C12.0508 13.0078 12.8125 13.7695 13.7598 13.7695Z" fill="black" fill-opacity="0.85"/>
  <path d="M7.7832 13.7695C8.7207 13.7695 9.48242 13.0078 9.48242 12.0605C9.48242 11.123 8.7207 10.3613 7.7832 10.3613C6.83594 10.3613 6.06445 11.123 6.06445 12.0605C6.06445 13.0078 6.83594 13.7695 7.7832 13.7695Z" fill="black" fill-opacity="0.85"/>
 </g>
</svg>
