<?xml version="1.0" ?><!-- Generator: Adobe Illustrator 25.0.0, SVG Export Plug-In . SVG Version: 6.00 Build 0)  --><svg xmlns="http://www.w3.org/2000/svg" xmlns:xlink="http://www.w3.org/1999/xlink" version="1.1" id="Layer_1" x="0px" y="0px" viewBox="0 0 512 512" style="enable-background:new 0 0 512 512;" xml:space="preserve">
<path d="M138,497c4.6,0,8.9-1.2,12.7-3.6c3.8-2.4,8.5-6.2,14.1-11.3l83.9-76.7l157,0.2c23.1,0,42.5-4.1,58.3-12.4  c15.8-8.3,27.8-20.3,35.9-36.1c8.1-15.8,12.2-35.1,12.2-57.8V121.4c0-22.8-4.1-42-12.2-57.8c-8.1-15.8-20.1-27.8-35.9-36.1  C448.1,19.1,428.7,15,405.6,15H106.4c-23.1,0-42.5,4.1-58.3,12.4c-15.8,8.3-27.8,20.3-35.9,36.1C4.1,79.3,0,98.6,0,121.4v177.9  c0,22.8,4.1,42,12.2,57.8c8.1,15.8,20.1,27.8,35.9,36s35.2,12.3,58.3,12.3h10.9v67.6c0,7.3,1.8,13.1,5.3,17.4  C126.2,494.8,131.3,497,138,497z" class="hierarchical-0:tertiary SFSymbolsPreview8E8E8E" style="fill: #8E8E8E;"/>
<path d="M223.2,111.4c0-9.1,3.2-16.9,9.6-23.3c6.4-6.4,14.2-9.6,23.3-9.6c9.1,0,16.9,3.2,23.3,9.6c6.4,6.4,9.6,14.2,9.6,23.3  c0,9.1-3.2,16.9-9.6,23.3c-6.4,6.4-14.2,9.6-23.3,9.6c-9.1,0-16.9-3.2-23.3-9.6C226.5,128.3,223.2,120.5,223.2,111.4z M223.2,210.4  c0-9.1,3.2-16.9,9.6-23.3c6.4-6.4,14.2-9.6,23.3-9.6c9.1,0,16.9,3.2,23.3,9.6c6.4,6.4,9.6,14.2,9.6,23.3c0,9.1-3.2,16.9-9.6,23.3  c-6.4,6.4-14.2,9.6-23.3,9.6c-9.1,0-16.9-3.2-23.3-9.6C226.5,227.3,223.2,219.5,223.2,210.4z M223.2,309.3c0-9.1,3.2-16.9,9.6-23.3  c6.4-6.4,14.2-9.6,23.3-9.6c9.1,0,16.9,3.2,23.3,9.6c6.4,6.4,9.6,14.2,9.6,23.3c0,9-3.2,16.7-9.6,23.1c-6.4,6.4-14.2,9.6-23.3,9.6  c-9.1,0-16.9-3.2-23.3-9.6C226.5,326,223.2,318.3,223.2,309.3z" class="hierarchical-1:primary SFSymbolsPreview212121" style="fill: #212121;"/>
</svg>