<?xml version="1.0" ?><!-- Generator: Adobe Illustrator 25.0.0, SVG Export Plug-In . SVG Version: 6.00 Build 0)  --><svg xmlns="http://www.w3.org/2000/svg" xmlns:xlink="http://www.w3.org/1999/xlink" version="1.1" id="Layer_1" x="0px" y="0px" viewBox="0 0 512 512" style="enable-background:new 0 0 512 512;" xml:space="preserve">
<path d="M72.8,455.8h373.3c41.7,0,65.9-24.1,65.9-71.9v-256c0-47.5-24.3-71.7-72.8-71.7H65.9C24.1,56.2,0,80.1,0,127.9v256  C0,431.9,24.3,455.8,72.8,455.8z M228.4,267.7L53.3,95c5.1-2.1,11.1-3.2,18.1-3.2h369.2c7.2,0,13.4,1.2,18.5,3.5L284.5,267.7  c-10,10-19,14.4-28.1,14.4C247.2,282.1,238.1,277.4,228.4,267.7z M35.5,383.9v-256c0-1.9,0-0.9,0-2.6l133.3,131L35.7,387.8  C35.5,386.7,35.5,385.3,35.5,383.9z M476.5,128.1v256c0,0.9,0,2.1,0,3L344.1,256.3L476.5,126C476.5,128.1,476.5,128.1,476.5,128.1z   M71.4,420.3c-6.5,0-12.1-0.9-16.9-3l138.7-137l15.1,14.8c16.2,16,31.8,22.7,48.2,22.7c16.2,0,32-6.7,48.2-22.7l15.1-14.8L458.2,417  c-5.1,2.3-10.9,3.2-17.6,3.2H71.4z"/>
</svg>