<?xml version="1.0" ?><!-- Generator: Adobe Illustrator 25.0.0, SVG Export Plug-In . SVG Version: 6.00 Build 0)  --><svg xmlns="http://www.w3.org/2000/svg" xmlns:xlink="http://www.w3.org/1999/xlink" version="1.1" id="Layer_1" x="0px" y="0px" viewBox="0 0 512 512" style="enable-background:new 0 0 512 512;" xml:space="preserve">
<path d="M256.5,282.8c9.5,0,18.3-4.4,28.5-14.6L486.7,68.5c-8.6-8.3-24.6-12.3-47.5-12.3H65.9c-19.5,0-33.2,3.7-40.8,11.4  l202.9,200.6C237.9,278.1,246.7,282.8,256.5,282.8z M5.8,418.4l163.9-162.1L5.3,94.3C1.9,100.8,0,111.9,0,127.9v256  C0,400.3,1.9,411.9,5.8,418.4z M506.4,418.2c3.7-6.7,5.6-18.1,5.6-34.3v-256c0-15.5-1.9-26.7-5.1-32.9L343,256.3L506.4,418.2z   M72.8,455.8h373.3c19.5,0,32.9-3.7,40.6-11.1L319.5,279.1l-15.3,15.5c-16,15.3-31.1,22.3-47.8,22.3c-16.9,0-32-7-47.8-22.3  l-15.5-15.5L26.4,444.4C35.2,452.1,50.6,455.8,72.8,455.8z"/>
</svg>