<?xml version="1.0" encoding="UTF-8"?>
<!--Generator: Apple Native CoreSVG 326-->
<!DOCTYPE svg
PUBLIC "-//W3C//DTD SVG 1.1//EN"
       "http://www.w3.org/Graphics/SVG/1.1/DTD/svg11.dtd">
<svg version="1.1" xmlns="http://www.w3.org/2000/svg" xmlns:xlink="http://www.w3.org/1999/xlink" viewBox="0 0 30.498 21.4551">
 <g>
  <rect height="21.4551" opacity="0" width="30.498" x="0" y="0"/>
  <path d="M3.79883 21.4551L26.6309 21.4551C28.8477 21.4551 30.1367 20.1758 30.1367 17.6855L30.1367 3.76953C30.1367 1.2793 28.8379 0.00976562 26.3281 0.00976562L3.50586 0.00976562C1.28906 0.00976562 0 1.2793 0 3.76953L0 17.6855C0 20.1758 1.29883 21.4551 3.79883 21.4551ZM3.75977 19.8047C2.41211 19.8047 1.65039 19.0625 1.65039 17.6758L1.65039 3.76953C1.65039 2.40234 2.41211 1.66016 3.75977 1.66016L26.377 1.66016C27.7246 1.66016 28.4766 2.40234 28.4766 3.7793L28.4766 17.6855C28.4766 19.0625 27.7246 19.8047 26.377 19.8047ZM22.1875 8.06641L25.3809 8.06641C25.9473 8.06641 26.3672 7.64648 26.3672 7.08984L26.3672 4.75586C26.3672 4.18945 25.9473 3.76953 25.3809 3.76953L22.1875 3.76953C21.6211 3.76953 21.2012 4.18945 21.2012 4.75586L21.2012 7.08984C21.2012 7.64648 21.6211 8.06641 22.1875 8.06641ZM10.2344 12.959L19.9023 12.959C20.2832 12.959 20.5859 12.6562 20.5859 12.2754C20.5859 11.9043 20.2832 11.6016 19.9023 11.6016L10.2344 11.6016C9.85352 11.6016 9.54102 11.9043 9.54102 12.2754C9.54102 12.6562 9.85352 12.959 10.2344 12.959ZM10.2344 16.2012L17.5781 16.2012C17.959 16.2012 18.2617 15.8984 18.2617 15.5176C18.2617 15.1367 17.959 14.834 17.5781 14.834L10.2344 14.834C9.85352 14.834 9.54102 15.1367 9.54102 15.5176C9.54102 15.8984 9.85352 16.2012 10.2344 16.2012Z" fill="black" fill-opacity="0.85"/>
 </g>
</svg>
