<?xml version="1.0" encoding="UTF-8"?>
<!--Generator: Apple Native CoreSVG 326-->
<!DOCTYPE svg
PUBLIC "-//W3C//DTD SVG 1.1//EN"
       "http://www.w3.org/Graphics/SVG/1.1/DTD/svg11.dtd">
<svg version="1.1" xmlns="http://www.w3.org/2000/svg" xmlns:xlink="http://www.w3.org/1999/xlink" viewBox="0 0 30.498 29.4043">
 <g>
  <rect height="29.4043" opacity="0" width="30.498" x="0" y="0"/>
  <path d="M26.3281 7.95898L3.79883 7.95898C2.74414 7.95898 1.97266 8.17383 1.31836 8.62305L13.8184 19.6777C14.2383 20.0488 14.6387 20.2246 15.0684 20.2246C15.4883 20.2246 15.8984 20.0488 16.3184 19.6777L28.8086 8.62305C28.1641 8.17383 27.3828 7.95898 26.3281 7.95898ZM0.390625 27.5684L9.75586 18.2031L0.351562 9.88281C0.166016 10.1855 0 10.8594 0 11.7188L0 25.6445C0 26.4648 0.146484 27.0801 0.390625 27.5684ZM3.50586 29.4043L26.6309 29.4043C27.5879 29.4043 28.2812 29.1797 28.75 28.8379L19.1699 19.2578L17.2852 20.9277C16.5723 21.5527 15.8301 21.875 15.0684 21.875C14.2969 21.875 13.5645 21.5527 12.8516 20.9277L10.9668 19.2578L1.37695 28.8379C1.8457 29.1797 2.54883 29.4043 3.50586 29.4043ZM29.7461 27.5684C29.9902 27.0801 30.1367 26.4648 30.1367 25.6445L30.1367 11.7188C30.1367 10.8594 29.9609 10.1855 29.7754 9.88281L20.3711 18.2031ZM6.26953 2.90039C5.86914 2.5 5.97656 2.02148 6.49414 1.78711L9.91211 0.263672C10.5469-0.0195312 10.957 0.3125 10.8398 0.957031L10.5664 2.39258C12.666 2.85156 14.5996 4.14062 15.0684 5.45898C15.5371 4.14062 17.4609 2.85156 19.5703 2.39258L19.2969 0.957031C19.1699 0.3125 19.5898-0.0195312 20.2148 0.263672L23.6426 1.78711C24.1504 2.02148 24.2578 2.5 23.8672 2.90039L21.2598 5.61523C20.7715 6.11328 20.2539 5.97656 20.127 5.3125L19.8535 3.84766C17.2266 4.33594 15.918 5.94727 15.918 7.90039L15.918 13.8379C15.918 14.375 15.5664 14.7461 15.0684 14.7461C14.5605 14.7461 14.209 14.375 14.209 13.8379L14.209 7.90039C14.209 5.94727 12.9004 4.33594 10.2832 3.84766L10 5.3125C9.87305 5.97656 9.36523 6.11328 8.86719 5.61523Z" fill="black" fill-opacity="0.85"/>
 </g>
</svg>
