<?xml version="1.0" encoding="UTF-8"?>
<!--Generator: Apple Native CoreSVG 326-->
<!DOCTYPE svg
PUBLIC "-//W3C//DTD SVG 1.1//EN"
       "http://www.w3.org/Graphics/SVG/1.1/DTD/svg11.dtd">
<svg version="1.1" xmlns="http://www.w3.org/2000/svg" xmlns:xlink="http://www.w3.org/1999/xlink" viewBox="0 0 17.6367 9.85352">
 <g>
  <rect height="9.85352" opacity="0" width="17.6367" x="0" y="0"/>
  <path d="M0.957031 1.93359L16.3281 1.93359C16.8359 1.93359 17.2754 1.50391 17.2754 0.986328C17.2754 0.458984 16.8359 0.0292969 16.3281 0.0292969L0.957031 0.0292969C0.439453 0.0292969 0 0.458984 0 0.986328C0 1.50391 0.439453 1.93359 0.957031 1.93359ZM0.957031 9.85352L16.3281 9.85352C16.8359 9.85352 17.2754 9.42383 17.2754 8.89648C17.2754 8.37891 16.8359 7.94922 16.3281 7.94922L0.957031 7.94922C0.439453 7.94922 0 8.37891 0 8.89648C0 9.42383 0.439453 9.85352 0.957031 9.85352Z" fill="black" fill-opacity="0.85"/>
 </g>
</svg>
