<?xml version="1.0" encoding="UTF-8"?>
<!--Generator: Apple Native CoreSVG 326-->
<!DOCTYPE svg
PUBLIC "-//W3C//DTD SVG 1.1//EN"
       "http://www.w3.org/Graphics/SVG/1.1/DTD/svg11.dtd">
<svg version="1.1" xmlns="http://www.w3.org/2000/svg" xmlns:xlink="http://www.w3.org/1999/xlink" viewBox="0 0 23.3984 22.9785">
 <g>
  <rect height="22.9785" opacity="0" width="23.3984" x="0" y="0"/>
  <path d="M0 19.2188C0 21.7188 1.2793 22.9785 3.79883 22.9785L4.79492 22.9785L4.79492 20.5176C4.79492 20.1172 5.10742 19.8047 5.51758 19.8047C5.91797 19.8047 6.2207 20.1172 6.2207 20.5176L6.2207 22.9785L8.80859 22.9785L8.80859 20.5176C8.80859 20.1172 9.12109 19.8047 9.52148 19.8047C9.93164 19.8047 10.2344 20.1172 10.2344 20.5176L10.2344 22.9785L12.8223 22.9785L12.8223 20.5176C12.8223 20.1172 13.125 19.8047 13.5449 19.8047C13.9453 19.8047 14.248 20.1172 14.248 20.5176L14.248 22.9785L16.8359 22.9785L16.8359 20.5176C16.8359 20.1172 17.1484 19.8047 17.5488 19.8047C17.959 19.8047 18.2617 20.1172 18.2617 20.5176L18.2617 22.9785L19.2383 22.9785C21.7676 22.9785 23.0371 21.709 23.0371 19.2188L23.0371 3.78906C23.0371 1.29883 21.7676 0.0292969 19.2383 0.0292969L18.2617 0.0292969L18.2617 2.49023C18.2617 2.89062 17.959 3.20312 17.5488 3.20312C17.1484 3.20312 16.8359 2.89062 16.8359 2.49023L16.8359 0.0292969L14.248 0.0292969L14.248 2.49023C14.248 2.89062 13.9453 3.20312 13.5449 3.20312C13.125 3.20312 12.8223 2.89062 12.8223 2.49023L12.8223 0.0292969L10.2344 0.0292969L10.2344 2.49023C10.2344 2.89062 9.93164 3.20312 9.52148 3.20312C9.12109 3.20312 8.80859 2.89062 8.80859 2.49023L8.80859 0.0292969L6.2207 0.0292969L6.2207 2.49023C6.2207 2.89062 5.91797 3.20312 5.51758 3.20312C5.10742 3.20312 4.79492 2.89062 4.79492 2.49023L4.79492 0.0292969L3.79883 0.0292969C1.2793 0.0292969 0 1.28906 0 3.78906ZM4.84375 15.5078L4.84375 7.5C4.84375 6.80664 5.32227 6.33789 6.02539 6.33789L17.0117 6.33789C17.7246 6.33789 18.1934 6.80664 18.1934 7.5L18.1934 15.5078C18.1934 16.2012 17.7246 16.6602 17.0117 16.6602L6.02539 16.6602C5.32227 16.6602 4.84375 16.2012 4.84375 15.5078Z" fill="black" fill-opacity="0.85"/>
 </g>
</svg>
