<?xml version="1.0" encoding="UTF-8"?>
<!--Generator: Apple Native CoreSVG 326-->
<!DOCTYPE svg
PUBLIC "-//W3C//DTD SVG 1.1//EN"
       "http://www.w3.org/Graphics/SVG/1.1/DTD/svg11.dtd">
<svg version="1.1" xmlns="http://www.w3.org/2000/svg" xmlns:xlink="http://www.w3.org/1999/xlink" viewBox="0 0 23.3984 22.9785">
 <g>
  <rect height="22.9785" opacity="0" width="23.3984" x="0" y="0"/>
  <path d="M0 19.2188C0 21.7188 1.2793 22.9785 3.79883 22.9785L19.2383 22.9785C21.7676 22.9785 23.0371 21.709 23.0371 19.2188L23.0371 3.78906C23.0371 1.29883 21.7676 0.0292969 19.2383 0.0292969L3.79883 0.0292969C1.2793 0.0292969 0 1.28906 0 3.78906ZM1.72852 19.1309L1.72852 3.87695C1.72852 2.48047 2.4707 1.75781 3.83789 1.75781L5.13672 1.75781L5.13672 3.59375C5.13672 3.97461 5.41992 4.25781 5.80078 4.25781C6.18164 4.25781 6.46484 3.97461 6.46484 3.59375L6.46484 1.75781L8.95508 1.75781L8.95508 3.59375C8.95508 3.97461 9.23828 4.25781 9.61914 4.25781C10 4.25781 10.2832 3.97461 10.2832 3.59375L10.2832 1.75781L12.7734 1.75781L12.7734 3.59375C12.7734 3.97461 13.0566 4.25781 13.4375 4.25781C13.8184 4.25781 14.1113 3.97461 14.1113 3.59375L14.1113 1.75781L16.5918 1.75781L16.5918 3.59375C16.5918 3.97461 16.875 4.25781 17.2559 4.25781C17.6367 4.25781 17.9297 3.97461 17.9297 3.59375L17.9297 1.75781L19.209 1.75781C20.5469 1.75781 21.3086 2.48047 21.3086 3.87695L21.3086 19.1309C21.3086 20.5273 20.5469 21.25 19.209 21.25L17.9297 21.25L17.9297 19.4141C17.9297 19.0332 17.6367 18.7402 17.2559 18.7402C16.875 18.7402 16.5918 19.0332 16.5918 19.4141L16.5918 21.25L14.1113 21.25L14.1113 19.4141C14.1113 19.0332 13.8184 18.7402 13.4375 18.7402C13.0566 18.7402 12.7734 19.0332 12.7734 19.4141L12.7734 21.25L10.2832 21.25L10.2832 19.4141C10.2832 19.0332 10 18.7402 9.61914 18.7402C9.23828 18.7402 8.95508 19.0332 8.95508 19.4141L8.95508 21.25L6.46484 21.25L6.46484 19.4141C6.46484 19.0332 6.18164 18.7402 5.80078 18.7402C5.41992 18.7402 5.13672 19.0332 5.13672 19.4141L5.13672 21.25L3.83789 21.25C2.4707 21.25 1.72852 20.5273 1.72852 19.1309ZM5.14648 15.332C5.14648 15.9961 5.60547 16.4258 6.2793 16.4258L16.7676 16.4258C17.4414 16.4258 17.8906 15.9961 17.8906 15.332L17.8906 7.67578C17.8906 7.01172 17.4414 6.58203 16.7676 6.58203L6.2793 6.58203C5.60547 6.58203 5.14648 7.01172 5.14648 7.67578Z" fill="black" fill-opacity="0.85"/>
 </g>
</svg>
