<?xml version="1.0" encoding="UTF-8"?>
<!--Generator: Apple Native CoreSVG 326-->
<!DOCTYPE svg
PUBLIC "-//W3C//DTD SVG 1.1//EN"
       "http://www.w3.org/Graphics/SVG/1.1/DTD/svg11.dtd">
<svg version="1.1" xmlns="http://www.w3.org/2000/svg" xmlns:xlink="http://www.w3.org/1999/xlink" viewBox="0 0 25.8008 25.459">
 <g>
  <rect height="25.459" opacity="0" width="25.8008" x="0" y="0"/>
  <path d="M12.7148 25.4395C19.7363 25.4395 25.4395 19.7461 25.4395 12.7246C25.4395 5.70312 19.7363 0 12.7148 0C5.69336 0 0 5.70312 0 12.7246C0 19.7461 5.69336 25.4395 12.7148 25.4395ZM12.7148 23.623C6.68945 23.623 1.81641 18.75 1.81641 12.7246C1.81641 6.69922 6.68945 1.82617 12.7148 1.82617C18.7402 1.82617 23.6133 6.69922 23.6133 12.7246C23.6133 18.75 18.7402 23.623 12.7148 23.623Z" fill="black" fill-opacity="0.85"/>
  <path d="M14.248 18.1934C14.5801 18.1934 15.0098 18.1836 15.3516 18.1055C15.6934 18.0176 15.957 17.8613 15.957 17.5195C15.957 17.1582 15.7129 16.9922 15.3613 16.9922C14.9902 16.9922 14.8145 17.041 14.3066 17.041C11.543 17.041 9.89258 15.4492 9.89258 12.6758C9.89258 9.94141 11.4648 8.30078 14.2773 8.30078C14.7363 8.30078 15.1074 8.34961 15.3613 8.34961C15.7129 8.34961 15.957 8.17383 15.957 7.8125C15.957 7.5 15.752 7.31445 15.3516 7.2168C15.0488 7.14844 14.6484 7.12891 14.248 7.12891C11.084 7.12891 8.55469 8.95508 8.55469 12.666C8.55469 16.2012 10.8594 18.1934 14.248 18.1934ZM6.81641 11.5527C6.81641 11.7578 6.99219 11.9336 7.19727 11.9336L14.082 11.9336C14.2871 11.9336 14.4629 11.7578 14.4629 11.5527C14.4629 11.3477 14.2871 11.1719 14.082 11.1719L7.19727 11.1719C6.99219 11.1719 6.81641 11.3477 6.81641 11.5527ZM6.81641 13.7695C6.81641 13.9746 6.99219 14.1504 7.19727 14.1504L14.082 14.1504C14.2871 14.1504 14.4629 13.9746 14.4629 13.7695C14.4629 13.5645 14.2871 13.3887 14.082 13.3887L7.19727 13.3887C6.99219 13.3887 6.81641 13.5645 6.81641 13.7695Z" fill="black" fill-opacity="0.85"/>
 </g>
</svg>
