<?xml version="1.0" encoding="UTF-8"?>
<!--Generator: Apple Native CoreSVG 326-->
<!DOCTYPE svg
PUBLIC "-//W3C//DTD SVG 1.1//EN"
       "http://www.w3.org/Graphics/SVG/1.1/DTD/svg11.dtd">
<svg version="1.1" xmlns="http://www.w3.org/2000/svg" xmlns:xlink="http://www.w3.org/1999/xlink" viewBox="0 0 30.6563 25.459">
 <g>
  <rect height="25.459" opacity="0" width="30.6563" x="0" y="0"/>
  <path d="M15.1475 25.4395C22.169 25.4395 27.8623 19.7461 27.8623 12.7246C27.8623 5.70312 22.169 0 15.1475 0C8.12599 0 2.43263 5.70312 2.43263 12.7246L4.24904 12.7246C4.24904 6.69922 9.12208 1.82617 15.1475 1.82617C21.1729 1.82617 26.0459 6.69922 26.0459 12.7246C26.0459 18.75 21.1729 23.623 15.1475 23.623C11.417 23.623 8.08693 21.7285 6.18263 18.877C5.86037 18.4375 5.35255 18.3008 4.90333 18.5742C4.47365 18.8281 4.34669 19.4238 4.69826 19.9023C6.97365 23.252 10.8213 25.4395 15.1475 25.4395ZM0.801772 10.3613C0.000990731 10.3613-0.223619 10.9082 0.235366 11.543L3.0088 15.4883C3.3799 16.0254 3.91701 16.0156 4.27833 15.4883L7.05177 11.5332C7.49123 10.9082 7.27638 10.3613 6.48537 10.3613Z" fill="black" fill-opacity="0.85"/>
  <path d="M16.6904 18.1934C17.0225 18.1934 17.4522 18.1836 17.794 18.1055C18.1358 18.0176 18.3994 17.8613 18.3994 17.5195C18.3994 17.1582 18.1553 16.9922 17.8037 16.9922C17.4326 16.9922 17.2569 17.041 16.749 17.041C13.9854 17.041 12.335 15.4492 12.335 12.6758C12.335 9.94141 13.9072 8.30078 16.7197 8.30078C17.1787 8.30078 17.5498 8.34961 17.8037 8.34961C18.1553 8.34961 18.3994 8.17383 18.3994 7.8125C18.3994 7.5 18.1944 7.31445 17.794 7.2168C17.4912 7.14844 17.0908 7.12891 16.6904 7.12891C13.5264 7.12891 10.9971 8.95508 10.9971 12.666C10.9971 16.2012 13.3018 18.1934 16.6904 18.1934ZM9.2588 11.5527C9.2588 11.7578 9.43458 11.9336 9.63966 11.9336L16.5244 11.9336C16.7295 11.9336 16.9053 11.7578 16.9053 11.5527C16.9053 11.3477 16.7295 11.1719 16.5244 11.1719L9.63966 11.1719C9.43458 11.1719 9.2588 11.3477 9.2588 11.5527ZM9.2588 13.7695C9.2588 13.9746 9.43458 14.1504 9.63966 14.1504L16.5244 14.1504C16.7295 14.1504 16.9053 13.9746 16.9053 13.7695C16.9053 13.5645 16.7295 13.3887 16.5244 13.3887L9.63966 13.3887C9.43458 13.3887 9.2588 13.5645 9.2588 13.7695Z" fill="black" fill-opacity="0.85"/>
 </g>
</svg>
