<?xml version="1.0" encoding="UTF-8"?>
<!--Generator: Apple Native CoreSVG 326-->
<!DOCTYPE svg
PUBLIC "-//W3C//DTD SVG 1.1//EN"
       "http://www.w3.org/Graphics/SVG/1.1/DTD/svg11.dtd">
<svg version="1.1" xmlns="http://www.w3.org/2000/svg" xmlns:xlink="http://www.w3.org/1999/xlink" viewBox="0 0 27.9395 26.5527">
 <g>
  <rect height="26.5527" opacity="0" width="27.9395" x="0" y="0"/>
  <path d="M1.5332 23.8379L26.0449 23.8379L26.0449 23.0859C26.0449 22.666 25.791 22.4121 25.3613 22.4121L24.5605 22.4121L24.5605 8.33984L25.6934 8.33984C26.2891 8.33984 26.6211 7.91992 26.6211 7.48047C26.6211 7.1582 26.4453 6.875 26.0547 6.65039L15.2637 0.419922C14.7852 0.146484 14.2773 0 13.7891 0C13.3008 0 12.7832 0.146484 12.3145 0.419922L1.52344 6.65039C1.12305 6.875 0.957031 7.1582 0.957031 7.48047C0.957031 7.91992 1.28906 8.33984 1.88477 8.33984L3.02734 8.33984L3.02734 22.4121L2.22656 22.4121C1.78711 22.4121 1.5332 22.666 1.5332 23.0859ZM4.6582 22.4121L4.6582 6.85547L13.2227 2.03125C13.3887 1.93359 13.5938 1.875 13.7891 1.875C13.9746 1.875 14.1699 1.93359 14.3555 2.03125L22.9297 6.85547L22.9297 22.4121ZM0.869141 26.5332L26.709 26.5332C27.1875 26.5332 27.5781 26.1426 27.5781 25.6738C27.5781 25.1953 27.1875 24.8047 26.709 24.8047L0.869141 24.8047C0.390625 24.8047 0 25.1953 0 25.6738C0 26.1426 0.390625 26.5332 0.869141 26.5332Z" fill="black" fill-opacity="0.85"/>
  <path d="M8.64258 18.0273L12.3926 18.0273C12.7148 18.0273 12.9297 17.832 12.9297 17.5098C12.9297 17.1777 12.7148 16.9922 12.3926 16.9922L9.24805 16.9922L9.24805 13.623L12.2461 13.623C12.5488 13.623 12.7441 13.418 12.7441 13.125C12.7441 12.832 12.5488 12.6367 12.2461 12.6367L9.24805 12.6367L9.24805 9.46289L12.3926 9.46289C12.7148 9.46289 12.9297 9.26758 12.9297 8.94531C12.9297 8.62305 12.7148 8.4375 12.3926 8.4375L8.64258 8.4375C8.27148 8.4375 8.05664 8.67188 8.05664 9.05273L8.05664 17.4023C8.05664 17.793 8.25195 18.0273 8.64258 18.0273ZM14.9414 18.0273L19.541 18.0273C19.8438 18.0273 20.0391 17.8125 20.0391 17.5098C20.0391 17.1973 19.8438 16.9922 19.541 16.9922L15.7227 16.9922L15.7227 16.9238L19.7461 9.57031C19.8438 9.41406 19.9219 9.23828 19.9219 9.02344C19.9219 8.68164 19.6875 8.4375 19.3066 8.4375L14.9023 8.4375C14.5898 8.4375 14.3652 8.63281 14.3652 8.94531C14.3652 9.25781 14.5898 9.46289 14.9023 9.46289L18.5742 9.46289L18.5742 9.53125L14.502 16.9043C14.4043 17.0703 14.3359 17.2461 14.3359 17.4414C14.3359 17.832 14.6289 18.0273 14.9414 18.0273Z" fill="black" fill-opacity="0.85"/>
 </g>
</svg>
