<?xml version="1.0" encoding="UTF-8"?>
<!--Generator: Apple Native CoreSVG 326-->
<!DOCTYPE svg
PUBLIC "-//W3C//DTD SVG 1.1//EN"
       "http://www.w3.org/Graphics/SVG/1.1/DTD/svg11.dtd">
<svg version="1.1" xmlns="http://www.w3.org/2000/svg" xmlns:xlink="http://www.w3.org/1999/xlink" viewBox="0 0 27.9395 26.5527">
 <g>
  <rect height="26.5527" opacity="0" width="27.9395" x="0" y="0"/>
  <path d="M15.2637 0.419922L26.0547 6.65039C26.4453 6.875 26.6211 7.1582 26.6211 7.48047C26.6211 7.91992 26.2891 8.33984 25.6934 8.33984L24.5605 8.33984L24.5605 23.252L25.3613 23.252C25.791 23.252 26.0449 23.5059 26.0449 23.9258L26.0449 24.8047L26.709 24.8047C27.1875 24.8047 27.5781 25.1953 27.5781 25.6738C27.5781 26.1426 27.1875 26.5332 26.709 26.5332L0.869141 26.5332C0.390625 26.5332 0 26.1426 0 25.6738C0 25.1953 0.390625 24.8047 0.869141 24.8047L1.5332 24.8047L1.5332 23.9258C1.5332 23.5059 1.78711 23.252 2.22656 23.252L3.02734 23.252L3.02734 8.33984L1.88477 8.33984C1.28906 8.33984 0.957031 7.91992 0.957031 7.48047C0.957031 7.1582 1.12305 6.875 1.52344 6.65039L12.3145 0.419922C12.7832 0.146484 13.3008 0 13.7891 0C14.2773 0 14.7852 0.146484 15.2637 0.419922ZM8.51562 9.45312C8.13477 9.45312 7.91992 9.6875 7.91992 10.0781L7.91992 18.623C7.91992 19.0332 8.11523 19.2578 8.51562 19.2578L12.3535 19.2578C12.6953 19.2578 12.9102 19.0625 12.9102 18.7305C12.9102 18.3984 12.6953 18.1934 12.3535 18.1934L9.14062 18.1934L9.14062 14.7656L12.2168 14.7656C12.5195 14.7656 12.7246 14.5605 12.7246 14.248C12.7246 13.9453 12.5195 13.7402 12.2168 13.7402L9.14062 13.7402L9.14062 10.5078L12.3535 10.5078C12.6953 10.5078 12.9102 10.3027 12.9102 9.9707C12.9102 9.63867 12.6953 9.45312 12.3535 9.45312ZM14.9414 9.45312C14.6191 9.45312 14.3848 9.64844 14.3848 9.9707C14.3848 10.293 14.6191 10.5078 14.9414 10.5078L18.6816 10.5078L18.6816 10.5664L14.5215 18.1152C14.4238 18.2812 14.3555 18.457 14.3555 18.6523C14.3555 19.0723 14.6582 19.2578 14.9707 19.2578L19.6875 19.2578C20.0098 19.2578 20.1953 19.0527 20.1953 18.7305C20.1953 18.418 20.0098 18.1934 19.6875 18.1934L15.7812 18.1934L15.7812 18.1348L19.8926 10.6152C20 10.4492 20.0879 10.2637 20.0879 10.0586C20.0879 9.70703 19.8438 9.45312 19.4531 9.45312Z" fill="black" fill-opacity="0.85"/>
 </g>
</svg>
