<?xml version="1.0" encoding="UTF-8"?>
<!--Generator: Apple Native CoreSVG 326-->
<!DOCTYPE svg
PUBLIC "-//W3C//DTD SVG 1.1//EN"
       "http://www.w3.org/Graphics/SVG/1.1/DTD/svg11.dtd">
<svg version="1.1" xmlns="http://www.w3.org/2000/svg" xmlns:xlink="http://www.w3.org/1999/xlink" viewBox="0 0 23.3203 22.959">
 <g>
  <rect height="22.959" opacity="0" width="23.3203" x="0" y="0"/>
  <path d="M3.79883 22.959L19.1504 22.959C21.6797 22.959 22.959 21.6797 22.959 19.1992L22.959 3.76953C22.959 1.2793 21.6797 0 19.1504 0L3.79883 0C1.2793 0 0 1.26953 0 3.76953L0 19.1992C0 21.6992 1.2793 22.959 3.79883 22.959ZM3.83789 21.2305C2.4707 21.2305 1.72852 20.5078 1.72852 19.1016L1.72852 3.85742C1.72852 2.46094 2.4707 1.72852 3.83789 1.72852L19.1211 1.72852C20.459 1.72852 21.2305 2.46094 21.2305 3.85742L21.2305 19.1016C21.2305 20.5078 20.459 21.2305 19.1211 21.2305Z" fill="black" fill-opacity="0.85"/>
  <path d="M13.0273 16.9434C13.3594 16.9434 13.7891 16.9336 14.1309 16.8555C14.4727 16.7676 14.7363 16.6113 14.7363 16.2695C14.7363 15.9082 14.4922 15.7422 14.1309 15.7422C13.7695 15.7422 13.5938 15.791 13.0859 15.791C10.3223 15.791 8.67188 14.1992 8.67188 11.4258C8.67188 8.69141 10.2441 7.05078 13.0566 7.05078C13.5156 7.05078 13.8867 7.09961 14.1309 7.09961C14.4922 7.09961 14.7363 6.92383 14.7363 6.5625C14.7363 6.25 14.5312 6.06445 14.1309 5.9668C13.8281 5.89844 13.4277 5.87891 13.0273 5.87891C9.85352 5.87891 7.32422 7.70508 7.32422 11.416C7.32422 14.9512 9.63867 16.9434 13.0273 16.9434ZM5.5957 10.3027C5.5957 10.5078 5.76172 10.6836 5.97656 10.6836L12.8613 10.6836C13.0664 10.6836 13.2422 10.5078 13.2422 10.3027C13.2422 10.0977 13.0664 9.92188 12.8613 9.92188L5.97656 9.92188C5.76172 9.92188 5.5957 10.0977 5.5957 10.3027ZM5.5957 12.5195C5.5957 12.7246 5.76172 12.9004 5.97656 12.9004L12.8613 12.9004C13.0664 12.9004 13.2422 12.7246 13.2422 12.5195C13.2422 12.3145 13.0664 12.1387 12.8613 12.1387L5.97656 12.1387C5.76172 12.1387 5.5957 12.3145 5.5957 12.5195Z" fill="black" fill-opacity="0.85"/>
 </g>
</svg>
