<?xml version="1.0" encoding="UTF-8"?>
<!--Generator: Apple Native CoreSVG 326-->
<!DOCTYPE svg
PUBLIC "-//W3C//DTD SVG 1.1//EN"
       "http://www.w3.org/Graphics/SVG/1.1/DTD/svg11.dtd">
<svg version="1.1" xmlns="http://www.w3.org/2000/svg" xmlns:xlink="http://www.w3.org/1999/xlink" viewBox="0 0 23.3203 22.959">
 <g>
  <rect height="22.959" opacity="0" width="23.3203" x="0" y="0"/>
  <path d="M3.79883 22.959L19.1504 22.959C21.6797 22.959 22.959 21.6797 22.959 19.1992L22.959 3.76953C22.959 1.2793 21.6797 0 19.1504 0L3.79883 0C1.2793 0 0 1.26953 0 3.76953L0 19.1992C0 21.6992 1.2793 22.959 3.79883 22.959ZM3.83789 21.2305C2.4707 21.2305 1.72852 20.5078 1.72852 19.1016L1.72852 3.85742C1.72852 2.46094 2.4707 1.72852 3.83789 1.72852L19.1211 1.72852C20.459 1.72852 21.2305 2.46094 21.2305 3.85742L21.2305 19.1016C21.2305 20.5078 20.459 21.2305 19.1211 21.2305Z" fill="black" fill-opacity="0.85"/>
  <path d="M5.98633 16.6016L9.98047 16.6016C10.3223 16.6016 10.5566 16.3965 10.5566 16.0547C10.5566 15.7129 10.3223 15.498 9.98047 15.498L6.63086 15.498L6.63086 11.9238L9.82422 11.9238C10.1465 11.9238 10.3516 11.6992 10.3516 11.3867C10.3516 11.0742 10.1465 10.8691 9.82422 10.8691L6.63086 10.8691L6.63086 7.49023L9.98047 7.49023C10.3223 7.49023 10.5566 7.27539 10.5566 6.93359C10.5566 6.5918 10.3223 6.39648 9.98047 6.39648L5.98633 6.39648C5.5957 6.39648 5.36133 6.65039 5.36133 7.04102L5.36133 15.9473C5.36133 16.3574 5.56641 16.6016 5.98633 16.6016ZM12.6953 16.6016L17.5977 16.6016C17.9199 16.6016 18.125 16.377 18.125 16.0547C18.125 15.7324 17.9199 15.498 17.5977 15.498L13.5254 15.498L13.5254 15.4395L17.8223 7.60742C17.9199 7.43164 18.0078 7.23633 18.0078 7.02148C18.0078 6.65039 17.7539 6.39648 17.3535 6.39648L12.6562 6.39648C12.3242 6.39648 12.0898 6.60156 12.0898 6.93359C12.0898 7.26562 12.3242 7.49023 12.6562 7.49023L16.5625 7.49023L16.5625 7.54883L12.2266 15.4102C12.1191 15.5957 12.0508 15.7715 12.0508 15.9766C12.0508 16.3965 12.3633 16.6016 12.6953 16.6016Z" fill="black" fill-opacity="0.85"/>
 </g>
</svg>
