<?xml version="1.0" ?><!-- Generator: Adobe Illustrator 25.0.0, SVG Export Plug-In . SVG Version: 6.00 Build 0)  --><svg xmlns="http://www.w3.org/2000/svg" xmlns:xlink="http://www.w3.org/1999/xlink" version="1.1" id="Layer_1" x="0px" y="0px" viewBox="0 0 512 512" style="enable-background:new 0 0 512 512;" xml:space="preserve">
<path d="M256,512c140,0,256-116.2,256-256C512,116,395.8,0,255.7,0C116,0,0,116,0,256C0,395.8,116.2,512,256,512z M291.6,381  c-54.7,0-102.4-29.6-116.2-88.3h-29.4c-7,0-12.3-5.8-12.3-13.1c0-7.5,5.3-12.8,12.3-12.8h25.6c0-2.3-0.3-6.5-0.3-10.8s0-7.5,0.3-11  h-25.6c-7,0-12.3-5.8-12.3-12.8c0-7.8,5.3-13.1,12.3-13.1h29.6c13.8-58.5,61.5-87.8,116-87.8c12.8,0,21.8,1.3,28.1,3.8  c8.8,3.5,11.3,8.8,11.3,15.3c0,8.8-6.3,14.3-15.6,14.3c-5.3,0-13.3-1.5-24.1-1.5c-37.4,0-68.5,18.8-79.8,56h79.8  c7.3,0,12.5,5.3,12.5,13.1c0,7-5.3,12.8-12.5,12.8h-85.3c-0.3,3.5-0.3,7.5-0.3,11.3c0,3.5,0,7.3,0.3,10.5h85.3  c7.3,0,12.5,5.3,12.5,12.8c0,7.3-5.3,13.1-12.5,13.1h-80.3c11.3,37.9,42.7,56.7,80.3,56.7c10.8,0,18.6-1.5,24.1-1.5  c9.3,0,15.6,5.5,15.6,14.3c0,6.8-3.5,11.5-10.8,14.6C313.7,379.5,304.2,381,291.6,381z"/>
</svg>