<?xml version="1.0" encoding="UTF-8"?>
<!--Generator: Apple Native CoreSVG 326-->
<!DOCTYPE svg
PUBLIC "-//W3C//DTD SVG 1.1//EN"
       "http://www.w3.org/Graphics/SVG/1.1/DTD/svg11.dtd">
<svg version="1.1" xmlns="http://www.w3.org/2000/svg" xmlns:xlink="http://www.w3.org/1999/xlink" viewBox="0 0 27.9395 26.5527">
 <g>
  <rect height="26.5527" opacity="0" width="27.9395" x="0" y="0"/>
  <path d="M1.5332 23.8379L26.0449 23.8379L26.0449 23.0859C26.0449 22.666 25.791 22.4121 25.3613 22.4121L24.5605 22.4121L24.5605 8.33984L25.6934 8.33984C26.2891 8.33984 26.6211 7.91992 26.6211 7.48047C26.6211 7.1582 26.4453 6.875 26.0547 6.65039L15.2637 0.419922C14.7852 0.146484 14.2773 0 13.7891 0C13.3008 0 12.7832 0.146484 12.3145 0.419922L1.52344 6.65039C1.12305 6.875 0.957031 7.1582 0.957031 7.48047C0.957031 7.91992 1.28906 8.33984 1.88477 8.33984L3.02734 8.33984L3.02734 22.4121L2.22656 22.4121C1.78711 22.4121 1.5332 22.666 1.5332 23.0859ZM4.6582 22.4121L4.6582 6.85547L13.2227 2.03125C13.3887 1.93359 13.5938 1.875 13.7891 1.875C13.9746 1.875 14.1699 1.93359 14.3555 2.03125L22.9297 6.85547L22.9297 22.4121ZM0.869141 26.5332L26.709 26.5332C27.1875 26.5332 27.5781 26.1426 27.5781 25.6738C27.5781 25.1953 27.1875 24.8047 26.709 24.8047L0.869141 24.8047C0.390625 24.8047 0 25.1953 0 25.6738C0 26.1426 0.390625 26.5332 0.869141 26.5332Z" fill="black" fill-opacity="0.85"/>
  <path d="M15.332 18.6816C15.6738 18.6816 16.1035 18.6621 16.4355 18.584C16.7773 18.4961 17.041 18.3398 17.041 17.998C17.041 17.6465 16.7969 17.4707 16.4453 17.4707C16.084 17.4707 15.8984 17.5293 15.3906 17.5293C12.6367 17.5293 10.9766 15.9375 10.9766 13.1543C10.9766 10.4199 12.5586 8.7793 15.3613 8.7793C15.8203 8.7793 16.2012 8.83789 16.4453 8.83789C16.7969 8.83789 17.041 8.65234 17.041 8.30078C17.041 7.98828 16.8359 7.79297 16.4355 7.69531C16.1426 7.63672 15.7422 7.60742 15.332 7.60742C12.168 7.60742 9.63867 9.44336 9.63867 13.1445C9.63867 16.6895 11.9531 18.6816 15.332 18.6816ZM7.90039 12.0312C7.90039 12.2461 8.07617 12.4121 8.28125 12.4121L15.166 12.4121C15.3809 12.4121 15.5469 12.2461 15.5469 12.0312C15.5469 11.8262 15.3809 11.6602 15.166 11.6602L8.28125 11.6602C8.07617 11.6602 7.90039 11.8262 7.90039 12.0312ZM7.90039 14.248C7.90039 14.4629 8.07617 14.6289 8.28125 14.6289L15.166 14.6289C15.3809 14.6289 15.5469 14.4629 15.5469 14.248C15.5469 14.043 15.3809 13.877 15.166 13.877L8.28125 13.877C8.07617 13.877 7.90039 14.043 7.90039 14.248Z" fill="black" fill-opacity="0.85"/>
 </g>
</svg>
