<?xml version="1.0" ?><!-- Generator: Adobe Illustrator 25.0.0, SVG Export Plug-In . SVG Version: 6.00 Build 0)  --><svg xmlns="http://www.w3.org/2000/svg" xmlns:xlink="http://www.w3.org/1999/xlink" version="1.1" id="Layer_1" x="0px" y="0px" viewBox="0 0 512 512" style="enable-background:new 0 0 512 512;" xml:space="preserve">
<path d="M87.3,512h337.3c58.4,0,87.3-28.9,87.3-86.2V86.2C512,28.9,483.1,0,424.7,0H87.3C29.2,0,0,28.6,0,86.2v339.6  C0,483.4,29.2,512,87.3,512z M87.9,467.2c-27.8,0-43.1-14.7-43.1-43.7V88.4c0-28.9,15.3-43.7,43.1-43.7h336.2  c27.5,0,43.1,14.7,43.1,43.7v335.1c0,28.9-15.6,43.7-43.1,43.7H87.9z M294.8,389.6c13.3,0,23.6-1.4,30.6-4.4  c7.8-3.1,11.7-8.3,11.7-15.6c0-9.5-7-15.3-16.7-15.3c-6.1,0-14.5,1.7-25.9,1.7c-40.6,0-74.3-20.3-86.5-61.2h86.5  c7.8,0,13.3-6.1,13.3-13.9c0-8.1-5.6-13.6-13.3-13.6h-91.8c-0.3-3.6-0.3-7.5-0.3-11.4c0-4.2,0-8.3,0.3-12.2h91.8  c7.8,0,13.3-6.1,13.3-13.6c0-8.3-5.6-13.9-13.3-13.9h-85.9c12.2-40,45.6-60.3,85.9-60.3c11.7,0,20,1.7,25.9,1.7  c9.7,0,16.7-5.8,16.7-15.3c0-7-2.8-12.8-12.2-16.4c-6.7-2.8-16.4-3.9-30-3.9c-58.4,0-109.6,31.4-124.6,94.3h-31.4  c-7.8,0-13.6,5.6-13.6,13.9c0,7.5,5.8,13.6,13.6,13.6H166c-0.3,3.9-0.3,7.5-0.3,12c0,4.7,0.3,9.2,0.6,11.7h-27.5  c-7.8,0-13.6,5.6-13.6,13.6c0,7.8,5.8,13.9,13.6,13.9h31.1C184.9,357.9,236.1,389.6,294.8,389.6z"/>
</svg>