<?xml version="1.0" encoding="UTF-8"?>
<!--Generator: Apple Native CoreSVG 326-->
<!DOCTYPE svg
PUBLIC "-//W3C//DTD SVG 1.1//EN"
       "http://www.w3.org/Graphics/SVG/1.1/DTD/svg11.dtd">
<svg version="1.1" xmlns="http://www.w3.org/2000/svg" xmlns:xlink="http://www.w3.org/1999/xlink" viewBox="0 0 30.3809 24.9191">
 <g>
  <rect height="24.9191" opacity="0" width="30.3809" x="0" y="0"/>
  <path d="M30.0195 14.9547C30.0195 7.09334 23.9746 0.648023 16.2988 0.00349172C15.8984-0.0355708 15.5859 0.257398 15.5859 0.667554L15.5859 4.66169C15.5859 4.99373 15.8301 5.2574 16.1719 5.28669C20.9863 5.87263 24.7266 9.97419 24.7266 14.9547C24.7266 17.2203 23.9551 19.3004 22.5879 21.0191C22.4023 21.2535 22.4121 21.5465 22.6172 21.7515L25.5176 24.6519C25.8105 24.9351 26.2305 24.9351 26.4844 24.6226C28.6914 22.0054 30.0195 18.6265 30.0195 14.9547Z" fill="black" fill-opacity="0.85"/>
  <path d="M0 14.9547C0 18.6363 1.32812 22.025 3.54492 24.6422C3.78906 24.9351 4.19922 24.9351 4.49219 24.6519L7.39258 21.7515C7.59766 21.5465 7.60742 21.2535 7.42188 21.0191C6.05469 19.3004 5.2832 17.2203 5.2832 14.9547C5.2832 9.97419 9.0332 5.87263 13.8379 5.28669C14.1895 5.2574 14.4238 4.99373 14.4238 4.66169L14.4238 0.667554C14.4238 0.257398 14.1211-0.0355708 13.7207 0.00349172C6.03516 0.648023 0 7.09334 0 14.9547Z" fill="black" fill-opacity="0.85"/>
  <path d="M16.5332 20.5894C16.875 20.5894 17.3047 20.5699 17.6367 20.5015C17.9785 20.4136 18.2422 20.2476 18.2422 19.9058C18.2422 19.5543 17.998 19.3883 17.6465 19.3883C17.2852 19.3883 17.0996 19.4371 16.5918 19.4371C13.8379 19.4371 12.1777 17.8453 12.1777 15.0719C12.1777 12.3375 13.7598 10.6871 16.5625 10.6871C17.0215 10.6871 17.4023 10.7457 17.6465 10.7457C17.998 10.7457 18.2422 10.5601 18.2422 10.2086C18.2422 9.89607 18.0371 9.71052 17.6367 9.61287C17.3438 9.54451 16.9434 9.51521 16.5332 9.51521C13.3691 9.51521 10.8398 11.3511 10.8398 15.0621C10.8398 18.5972 13.1543 20.5894 16.5332 20.5894ZM9.10156 13.9488C9.10156 14.1539 9.27734 14.3297 9.48242 14.3297L16.3672 14.3297C16.582 14.3297 16.748 14.1539 16.748 13.9488C16.748 13.7437 16.582 13.5679 16.3672 13.5679L9.48242 13.5679C9.27734 13.5679 9.10156 13.7437 9.10156 13.9488ZM9.10156 16.1656C9.10156 16.3707 9.27734 16.5465 9.48242 16.5465L16.3672 16.5465C16.582 16.5465 16.748 16.3707 16.748 16.1656C16.748 15.9605 16.582 15.7847 16.3672 15.7847L9.48242 15.7847C9.27734 15.7847 9.10156 15.9605 9.10156 16.1656Z" fill="black" fill-opacity="0.85"/>
 </g>
</svg>
