<?xml version="1.0" encoding="UTF-8"?>
<!--Generator: Apple Native CoreSVG 326-->
<!DOCTYPE svg
PUBLIC "-//W3C//DTD SVG 1.1//EN"
       "http://www.w3.org/Graphics/SVG/1.1/DTD/svg11.dtd">
<svg version="1.1" xmlns="http://www.w3.org/2000/svg" xmlns:xlink="http://www.w3.org/1999/xlink" viewBox="0 0 30.3809 25.0293">
 <g>
  <rect height="25.0293" opacity="0" width="30.3809" x="0" y="0"/>
  <path d="M30.0195 15.0098C30.0195 11.3281 28.6914 7.95898 26.4844 5.3418C26.2305 5.03906 25.8008 5.04883 25.5176 5.33203L22.6953 8.1543C22.4512 8.39844 22.4414 8.74023 22.6562 9.01367C23.9551 10.6738 24.7266 12.7441 24.7266 15.0098C24.7266 17.2754 23.9551 19.3555 22.5977 21.0742C22.4121 21.3086 22.4219 21.6016 22.627 21.8066L25.5176 24.707C25.8008 25 26.2207 24.9902 26.4844 24.6875C28.6914 22.0703 30.0195 18.6816 30.0195 15.0098Z" fill="black" fill-opacity="0.85"/>
  <path d="M15.0098 5.2832C17.2754 5.2832 19.3652 6.06445 21.0254 7.38281C21.2891 7.57812 21.6113 7.55859 21.8555 7.31445L24.6875 4.48242C24.9805 4.19922 24.9707 3.7793 24.668 3.51562C22.0605 1.32812 18.6816 0 15.0098 0C11.3379 0 7.95898 1.32812 5.35156 3.51562C5.04883 3.7793 5.03906 4.19922 5.32227 4.48242L8.16406 7.31445C8.39844 7.55859 8.75 7.56836 9.02344 7.35352C10.6738 6.06445 12.7539 5.2832 15.0098 5.2832Z" fill="black" fill-opacity="0.85"/>
  <path d="M0 15.0098C0 18.6816 1.32812 22.0703 3.53516 24.6875C3.78906 24.9902 4.21875 25 4.50195 24.707L7.39258 21.8066C7.58789 21.6016 7.60742 21.3086 7.42188 21.0742C6.06445 19.3555 5.2832 17.2754 5.2832 15.0098C5.2832 12.7441 6.05469 10.6738 7.36328 9.01367C7.56836 8.74023 7.56836 8.39844 7.32422 8.1543L4.49219 5.33203C4.20898 5.04883 3.78906 5.03906 3.52539 5.3418C1.31836 7.95898 0 11.3281 0 15.0098Z" fill="black" fill-opacity="0.85"/>
  <path d="M16.5332 20.6445C16.875 20.6445 17.3047 20.625 17.6367 20.5566C17.9785 20.4688 18.2422 20.3027 18.2422 19.9609C18.2422 19.6094 17.998 19.4434 17.6465 19.4434C17.2852 19.4434 17.0996 19.4922 16.5918 19.4922C13.8379 19.4922 12.1777 17.9004 12.1777 15.127C12.1777 12.3926 13.7598 10.7422 16.5625 10.7422C17.0215 10.7422 17.4023 10.8008 17.6465 10.8008C17.998 10.8008 18.2422 10.6152 18.2422 10.2637C18.2422 9.95117 18.0371 9.76562 17.6367 9.66797C17.3438 9.59961 16.9434 9.57031 16.5332 9.57031C13.3691 9.57031 10.8398 11.4062 10.8398 15.1172C10.8398 18.6523 13.1543 20.6445 16.5332 20.6445ZM9.10156 14.0039C9.10156 14.209 9.27734 14.3848 9.48242 14.3848L16.3672 14.3848C16.582 14.3848 16.748 14.209 16.748 14.0039C16.748 13.7988 16.582 13.623 16.3672 13.623L9.48242 13.623C9.27734 13.623 9.10156 13.7988 9.10156 14.0039ZM9.10156 16.2207C9.10156 16.4258 9.27734 16.6016 9.48242 16.6016L16.3672 16.6016C16.582 16.6016 16.748 16.4258 16.748 16.2207C16.748 16.0156 16.582 15.8398 16.3672 15.8398L9.48242 15.8398C9.27734 15.8398 9.10156 16.0156 9.10156 16.2207Z" fill="black" fill-opacity="0.85"/>
 </g>
</svg>
