<?xml version="1.0" encoding="UTF-8"?>
<!--Generator: Apple Native CoreSVG 326-->
<!DOCTYPE svg
PUBLIC "-//W3C//DTD SVG 1.1//EN"
       "http://www.w3.org/Graphics/SVG/1.1/DTD/svg11.dtd">
<svg version="1.1" xmlns="http://www.w3.org/2000/svg" xmlns:xlink="http://www.w3.org/1999/xlink" viewBox="0 0 34.7656 27.8223">
 <g>
  <rect height="27.8223" opacity="0" width="34.7656" x="0" y="0"/>
  <path d="M18.1348 26.9727L18.1348 3.18359C18.1348 1.13281 17.0117 0 14.9609 0L5.0293 0C2.95898 0 1.86523 1.12305 1.86523 3.18359L1.86523 26.9727ZM5.2832 11.3574C4.38477 11.3574 3.83789 10.8398 3.83789 10L3.83789 3.33984C3.83789 2.5 4.38477 1.97266 5.2832 1.97266L14.707 1.97266C15.5957 1.97266 16.1621 2.5 16.1621 3.33984L16.1621 10C16.1621 10.8398 15.5957 11.3574 14.707 11.3574ZM0 26.9238C0 27.4023 0.380859 27.8027 0.849609 27.8027L19.1309 27.8027C19.5996 27.8027 20 27.4023 20 26.9238C20 26.4648 19.5996 26.0742 19.1309 26.0742L0.849609 26.0742C0.390625 26.0742 0 26.4551 0 26.9238ZM24.8633 12.8516L24.8633 20.6738C24.8633 22.334 24.1113 23.3105 22.8223 23.3105C21.6211 23.3105 20.8594 22.4902 20.8594 21.1719C20.8594 19.3945 21.1621 16.9434 21.1621 14.7168C21.1621 12.5977 20.0977 10.9766 17.627 10.1172L17.0801 11.3281C19.0039 11.9531 19.834 13.1934 19.834 14.7168C19.834 16.7188 19.5312 19.1602 19.5312 21.1719C19.5312 23.3008 20.8008 24.6387 22.8223 24.6387C24.9512 24.6387 26.2012 23.1836 26.2012 20.6738L26.2012 12.8516C26.2012 11.7188 27.0117 11.3965 27.5977 10.9277C28.3594 10.3516 28.7988 9.59961 28.7988 8.61328L28.7988 6.89453C28.7988 6.62109 28.6426 6.43555 28.4082 6.43555L27.5879 6.43555L27.5879 4.18945C27.5879 3.86719 27.334 3.60352 27.002 3.60352C26.6895 3.60352 26.4258 3.86719 26.4258 4.18945L26.4258 6.43555L24.7363 6.43555L24.7363 4.18945C24.7363 3.86719 24.4922 3.60352 24.1699 3.60352C23.8477 3.60352 23.5938 3.86719 23.5938 4.18945L23.5938 6.43555L22.6562 6.43555C22.4121 6.43555 22.2559 6.62109 22.2559 6.89453L22.2559 8.61328C22.2559 9.59961 22.7051 10.3516 23.457 10.9277C24.0527 11.3965 24.8633 11.7188 24.8633 12.8516Z" fill="black" fill-opacity="0.85"/>
  <path d="M32.9102 22.1387C33.7207 22.1387 34.4043 21.4746 34.4043 20.7031C34.4043 19.9023 33.7305 19.2578 32.9102 19.2578C32.0898 19.2578 31.4258 19.9023 31.4258 20.7031C31.4258 21.4746 32.1094 22.1387 32.9102 22.1387ZM32.9102 16.6992C33.4375 16.6992 33.8086 16.3184 33.8281 15.7812L34.043 6.78711C34.0625 6.10352 33.6133 5.6543 32.9102 5.6543C32.2168 5.6543 31.7676 6.10352 31.7871 6.78711L32.002 15.7812C32.0215 16.3184 32.3926 16.6992 32.9102 16.6992Z" fill="black" fill-opacity="0.85"/>
 </g>
</svg>
