<?xml version="1.0" encoding="UTF-8"?>
<!--Generator: Apple Native CoreSVG 326-->
<!DOCTYPE svg
PUBLIC "-//W3C//DTD SVG 1.1//EN"
       "http://www.w3.org/Graphics/SVG/1.1/DTD/svg11.dtd">
<svg version="1.1" xmlns="http://www.w3.org/2000/svg" xmlns:xlink="http://www.w3.org/1999/xlink" viewBox="0 0 38.7305 27.8223">
 <g>
  <rect height="27.8223" opacity="0" width="38.7305" x="0" y="0"/>
  <path d="M11.0352 26.9824L12.7539 26.9824L12.7539 3.21289C12.7539 2.24609 13.2422 1.73828 14.2286 1.73828L24.4922 1.73828C25.4493 1.73828 25.9668 2.24609 25.9668 3.21289L25.9766 26.9824L27.7051 26.9824L27.7051 3.18359C27.7051 1.13281 26.5821 0 24.5215 0L14.1993 0C12.1289 0 11.0352 1.12305 11.0352 3.18359ZM14.7266 11.3574L23.9942 11.3574C24.4629 11.3574 24.8047 11.0059 24.8047 10.5371L24.8047 3.7207C24.8047 3.24219 24.4629 2.90039 23.9942 2.90039L14.7266 2.90039C14.2579 2.90039 13.9161 3.24219 13.9161 3.7207L13.9161 10.5371C13.9161 11.0059 14.2481 11.3574 14.7266 11.3574ZM9.16019 26.9336C9.16019 27.4219 9.54105 27.8125 10.0098 27.8125L28.7012 27.8125C29.17 27.8125 29.5606 27.4219 29.5606 26.9336C29.5606 26.4746 29.17 26.084 28.7012 26.084L10.0098 26.084C9.55082 26.084 9.16019 26.4648 9.16019 26.9336ZM34.4336 12.8516L34.4336 20.6738C34.4336 22.334 33.6719 23.3105 32.3829 23.3105C31.1914 23.3105 30.4297 22.4902 30.4297 21.1719C30.4297 19.3945 30.7325 16.9434 30.7325 14.7168C30.7325 12.5977 29.668 10.9766 27.1973 10.1172L26.6504 11.3281C28.5743 11.9531 29.4043 13.1934 29.4043 14.7168C29.4043 16.7188 29.1016 19.1602 29.1016 21.1719C29.1016 23.3008 30.3711 24.6387 32.3829 24.6387C34.5215 24.6387 35.7715 23.1836 35.7715 20.6738L35.7715 12.8516C35.7715 11.7188 36.5821 11.3965 37.168 10.9277C37.92 10.3516 38.3692 9.59961 38.3692 8.61328L38.3692 6.89453C38.3692 6.62109 38.2032 6.43555 37.9786 6.43555L37.1582 6.43555L37.1582 4.18945C37.1582 3.86719 36.8946 3.60352 36.5723 3.60352C36.2598 3.60352 35.9961 3.86719 35.9961 4.18945L35.9961 6.43555L34.2969 6.43555L34.3067 4.18945C34.3067 3.86719 34.0528 3.60352 33.7403 3.60352C33.4082 3.60352 33.1641 3.86719 33.1641 4.18945L33.1641 6.43555L32.2266 6.43555C31.9825 6.43555 31.8262 6.62109 31.8262 6.89453L31.8262 8.61328C31.8262 9.59961 32.2754 10.3516 33.0274 10.9277C33.6133 11.3965 34.4336 11.7188 34.4336 12.8516Z" fill="black" fill-opacity="0.85"/>
  <path d="M0.351601 13.3203C-0.107384 13.5938-0.126915 14.2188 0.351601 14.4922L6.86527 18.3594C7.36332 18.6523 7.93949 18.418 7.93949 17.9102L7.93949 9.88281C7.93949 9.38477 7.33402 9.15039 6.86527 9.42383Z" fill="black" fill-opacity="0.85"/>
 </g>
</svg>
