<?xml version="1.0" encoding="UTF-8"?>
<!--Generator: Apple Native CoreSVG 326-->
<!DOCTYPE svg
PUBLIC "-//W3C//DTD SVG 1.1//EN"
       "http://www.w3.org/Graphics/SVG/1.1/DTD/svg11.dtd">
<svg version="1.1" xmlns="http://www.w3.org/2000/svg" xmlns:xlink="http://www.w3.org/1999/xlink" viewBox="0 0 35.1562 27.8223">
 <g>
  <rect height="27.8223" opacity="0" width="35.1562" x="0" y="0"/>
  <path d="M1.875 26.9824L3.59375 26.9824L3.60352 3.21289C3.60352 2.24609 4.08203 1.73828 5.06836 1.73828L15.332 1.73828C16.2891 1.73828 16.8066 2.24609 16.8066 3.21289L16.8164 26.9824L18.5449 26.9824L18.5449 3.18359C18.5449 1.13281 17.4219 0 15.3613 0L5.03906 0C2.96875 0 1.875 1.12305 1.875 3.18359ZM5.56641 11.3574L14.834 11.3574C15.3125 11.3574 15.6445 11.0059 15.6445 10.5371L15.6445 3.7207C15.6445 3.24219 15.3027 2.90039 14.834 2.90039L5.56641 2.90039C5.09766 2.90039 4.76562 3.24219 4.76562 3.7207L4.76562 10.5371C4.76562 11.0059 5.09766 11.3574 5.56641 11.3574ZM0 26.9336C0 27.4219 0.380859 27.8125 0.859375 27.8125L19.541 27.8125C20.0195 27.8125 20.4102 27.4219 20.4102 26.9336C20.4102 26.4746 20.0195 26.084 19.541 26.084L0.859375 26.084C0.390625 26.084 0 26.4648 0 26.9336ZM25.2734 12.8516L25.2734 20.6738C25.2734 22.334 24.5215 23.3105 23.2324 23.3105C22.0312 23.3105 21.2793 22.4902 21.2793 21.1719C21.2793 19.3945 21.5723 16.9434 21.5723 14.7168C21.5723 12.5977 20.5078 10.9766 18.0371 10.1172L17.4902 11.3281C19.4141 11.9531 20.2441 13.1934 20.2441 14.7168C20.2441 16.7188 19.9512 19.1602 19.9512 21.1719C19.9512 23.3008 21.2109 24.6387 23.2324 24.6387C25.3613 24.6387 26.6113 23.1836 26.6113 20.6738L26.6113 12.8516C26.6113 11.7188 27.4316 11.3965 28.0078 10.9277C28.7695 10.3516 29.209 9.59961 29.209 8.61328L29.209 6.89453C29.209 6.62109 29.0527 6.43555 28.8184 6.43555L27.998 6.43555L27.998 4.18945C27.998 3.86719 27.7441 3.60352 27.4121 3.60352C27.1094 3.60352 26.8359 3.86719 26.8359 4.18945L26.8457 6.43555L25.1465 6.43555L25.1465 4.18945C25.1465 3.86719 24.9023 3.60352 24.5801 3.60352C24.2578 3.60352 24.0039 3.86719 24.0039 4.18945L24.0039 6.43555L23.0664 6.43555C22.8223 6.43555 22.666 6.62109 22.666 6.89453L22.666 8.61328C22.666 9.59961 23.125 10.3516 23.8672 10.9277C24.4629 11.3965 25.2734 11.7188 25.2734 12.8516Z" fill="black" fill-opacity="0.85"/>
  <path d="M33.3105 22.1387C34.1211 22.1387 34.7949 21.4746 34.7949 20.7031C34.7949 19.9023 34.1309 19.2578 33.3105 19.2578C32.4805 19.2578 31.8262 19.9023 31.8262 20.7031C31.8262 21.4746 32.5 22.1387 33.3105 22.1387ZM33.3105 16.6992C33.8281 16.6992 34.209 16.3184 34.2285 15.7812L34.4434 6.78711C34.4629 6.10352 34.0137 5.6543 33.3105 5.6543C32.6074 5.6543 32.1582 6.10352 32.1777 6.78711L32.3926 15.7812C32.4121 16.3184 32.7832 16.6992 33.3105 16.6992Z" fill="black" fill-opacity="0.85"/>
 </g>
</svg>
