<?xml version="1.0" encoding="UTF-8"?>
<!--Generator: Apple Native CoreSVG 326-->
<!DOCTYPE svg
PUBLIC "-//W3C//DTD SVG 1.1//EN"
       "http://www.w3.org/Graphics/SVG/1.1/DTD/svg11.dtd">
<svg version="1.1" xmlns="http://www.w3.org/2000/svg" xmlns:xlink="http://www.w3.org/1999/xlink" viewBox="0 0 28.5156 26.5723">
 <g>
  <rect height="26.5723" opacity="0" width="28.5156" x="0" y="0"/>
  <path d="M14.082 26.543C21.8457 26.543 28.1543 20.2344 28.1543 12.4707C28.1543 7.40234 25.4688 2.95898 21.6699 0.644531C20.957 0.205078 20.2344 0 19.375 0L8.78906 0C7.91992 0 7.20703 0.205078 6.49414 0.644531C2.68555 2.95898 0 7.40234 0 12.4707C0 20.2344 6.31836 26.543 14.082 26.543ZM14.082 24.7168C7.23633 24.7168 1.82617 19.3066 1.82617 12.4707C1.82617 8.0957 4.0332 4.32617 7.36328 2.23633C7.7832 1.93359 8.22266 1.83594 8.78906 1.83594L19.375 1.83594C19.9316 1.83594 20.3711 1.93359 20.791 2.23633C24.1211 4.32617 26.3281 8.0957 26.3281 12.4707C26.3281 19.3066 20.918 24.7168 14.082 24.7168Z" fill="black" fill-opacity="0.85"/>
  <path d="M9.93164 7.28516C10.8887 7.28516 11.6504 6.52344 11.6504 5.56641C11.6504 4.61914 10.8887 3.84766 9.93164 3.84766C8.98438 3.84766 8.21289 4.61914 8.21289 5.56641C8.21289 6.52344 8.98438 7.28516 9.93164 7.28516ZM14.082 7.28516C15.0293 7.28516 15.8008 6.52344 15.8008 5.56641C15.8008 4.61914 15.0293 3.84766 14.082 3.84766C13.125 3.84766 12.3633 4.61914 12.3633 5.56641C12.3633 6.52344 13.125 7.28516 14.082 7.28516ZM18.2227 7.28516C19.1797 7.28516 19.9414 6.52344 19.9414 5.56641C19.9414 4.61914 19.1797 3.84766 18.2227 3.84766C17.2754 3.84766 16.5039 4.61914 16.5039 5.56641C16.5039 6.52344 17.2754 7.28516 18.2227 7.28516ZM14.082 11.4355C15.0293 11.4355 15.8008 10.6641 15.8008 9.7168C15.8008 8.75977 15.0293 7.99805 14.082 7.99805C13.125 7.99805 12.3633 8.75977 12.3633 9.7168C12.3633 10.6641 13.125 11.4355 14.082 11.4355ZM7.74414 16.2305C9.82422 16.2305 11.5039 14.5508 11.5039 12.4707C11.5039 10.3906 9.82422 8.70117 7.74414 8.70117C5.66406 8.70117 3.98438 10.3906 3.98438 12.4707C3.98438 14.5508 5.66406 16.2305 7.74414 16.2305ZM20.4102 16.2305C22.4902 16.2305 24.1797 14.5508 24.1797 12.4707C24.1797 10.3906 22.4902 8.70117 20.4102 8.70117C18.3398 8.70117 16.6504 10.3906 16.6504 12.4707C16.6504 14.5508 18.3398 16.2305 20.4102 16.2305ZM8.74023 20.9473C9.58984 20.9473 10.293 20.2441 10.293 19.3848C10.293 18.5254 9.58984 17.8223 8.74023 17.8223C7.88086 17.8223 7.17773 18.5254 7.17773 19.3848C7.17773 20.2441 7.88086 20.9473 8.74023 20.9473ZM14.082 22.0312C15.5273 22.0312 16.7285 20.8398 16.7285 19.3848C16.7285 17.9297 15.5273 16.7383 14.082 16.7383C12.627 16.7383 11.4355 17.9297 11.4355 19.3848C11.4355 20.8398 12.627 22.0312 14.082 22.0312ZM19.4238 20.9473C20.2734 20.9473 20.9766 20.2441 20.9766 19.3848C20.9766 18.5254 20.2734 17.8223 19.4238 17.8223C18.5645 17.8223 17.8613 18.5254 17.8613 19.3848C17.8613 20.2441 18.5645 20.9473 19.4238 20.9473Z" fill="black" fill-opacity="0.85"/>
 </g>
</svg>
