<?xml version="1.0" encoding="UTF-8"?>
<!--Generator: Apple Native CoreSVG 326-->
<!DOCTYPE svg
PUBLIC "-//W3C//DTD SVG 1.1//EN"
       "http://www.w3.org/Graphics/SVG/1.1/DTD/svg11.dtd">
<svg version="1.1" xmlns="http://www.w3.org/2000/svg" xmlns:xlink="http://www.w3.org/1999/xlink" viewBox="0 0 28.5156 26.5723">
 <g>
  <rect height="26.5723" opacity="0" width="28.5156" x="0" y="0"/>
  <path d="M21.6699 0.644531C25.4688 2.95898 28.1543 7.40234 28.1543 12.4707C28.1543 20.2344 21.8457 26.543 14.082 26.543C6.31836 26.543 0 20.2344 0 12.4707C0 7.40234 2.68555 2.95898 6.49414 0.644531C7.20703 0.205078 7.91992 0 8.78906 0L19.375 0C20.2344 0 20.957 0.205078 21.6699 0.644531ZM11.377 19.541C11.377 21.0254 12.5879 22.2461 14.082 22.2461C15.5664 22.2461 16.7871 21.0254 16.7871 19.541C16.7871 18.0469 15.5664 16.8262 14.082 16.8262C12.5879 16.8262 11.377 18.0469 11.377 19.541ZM7.01172 19.541C7.01172 20.4199 7.73438 21.1426 8.60352 21.1426C9.48242 21.1426 10.2051 20.4199 10.2051 19.541C10.2051 18.6719 9.48242 17.9492 8.60352 17.9492C7.73438 17.9492 7.01172 18.6719 7.01172 19.541ZM17.9492 19.541C17.9492 20.4199 18.6719 21.1426 19.5508 21.1426C20.4199 21.1426 21.1523 20.4199 21.1523 19.541C21.1523 18.6719 20.4199 17.9492 19.5508 17.9492C18.6719 17.9492 17.9492 18.6719 17.9492 19.541ZM3.73047 12.4609C3.73047 14.5898 5.46875 16.3086 7.59766 16.3086C9.72656 16.3086 11.4453 14.5898 11.4453 12.4609C11.4453 10.332 9.72656 8.60352 7.59766 8.60352C5.46875 8.60352 3.73047 10.332 3.73047 12.4609ZM16.709 12.4609C16.709 14.5898 18.4375 16.3086 20.5566 16.3086C22.6855 16.3086 24.4238 14.5898 24.4238 12.4609C24.4238 10.332 22.6855 8.60352 20.5566 8.60352C18.4375 8.60352 16.709 10.332 16.709 12.4609ZM12.3145 9.63867C12.3145 10.6055 13.1055 11.3965 14.082 11.3965C15.0488 11.3965 15.8398 10.6055 15.8398 9.63867C15.8398 8.66211 15.0488 7.87109 14.082 7.87109C13.1055 7.87109 12.3145 8.66211 12.3145 9.63867ZM8.07617 5.39062C8.07617 6.36719 8.86719 7.14844 9.83398 7.14844C10.8105 7.14844 11.5918 6.36719 11.5918 5.39062C11.5918 4.42383 10.8105 3.63281 9.83398 3.63281C8.86719 3.63281 8.07617 4.42383 8.07617 5.39062ZM12.3145 5.39062C12.3145 6.36719 13.1055 7.14844 14.082 7.14844C15.0488 7.14844 15.8398 6.36719 15.8398 5.39062C15.8398 4.42383 15.0488 3.63281 14.082 3.63281C13.1055 3.63281 12.3145 4.42383 12.3145 5.39062ZM16.5625 5.39062C16.5625 6.36719 17.3535 7.14844 18.3203 7.14844C19.2969 7.14844 20.0781 6.36719 20.0781 5.39062C20.0781 4.42383 19.2969 3.63281 18.3203 3.63281C17.3535 3.63281 16.5625 4.42383 16.5625 5.39062Z" fill="black" fill-opacity="0.85"/>
 </g>
</svg>
