<?xml version="1.0" encoding="UTF-8"?>
<!--Generator: Apple Native CoreSVG 326-->
<!DOCTYPE svg
PUBLIC "-//W3C//DTD SVG 1.1//EN"
       "http://www.w3.org/Graphics/SVG/1.1/DTD/svg11.dtd">
<svg version="1.1" xmlns="http://www.w3.org/2000/svg" xmlns:xlink="http://www.w3.org/1999/xlink" viewBox="0 0 28.5352 24.2676">
 <g>
  <rect height="24.2676" opacity="0" width="28.5352" x="0" y="0"/>
  <path d="M14.0918 24.248C22.3047 24.248 28.1738 18.75 28.1738 10.7715C28.1738 2.90039 24.3262 0 14.0918 0C3.85742 0 0 2.90039 0 10.7715C0 18.75 5.86914 24.248 14.0918 24.248ZM14.0918 22.4219C6.5918 22.4219 1.82617 17.9688 1.82617 10.7715C1.82617 4.02344 4.87305 1.82617 14.0918 1.82617C23.3008 1.82617 26.3477 4.02344 26.3477 10.7715C26.3477 17.9688 21.582 22.4219 14.0918 22.4219ZM6.18164 11.8652C8.91602 11.8652 11.123 9.6582 11.123 6.91406C11.123 4.17969 8.91602 1.97266 6.18164 1.97266C3.4375 1.97266 1.23047 4.17969 1.23047 6.91406C1.23047 9.6582 3.4375 11.8652 6.18164 11.8652ZM6.18164 10.332C4.27734 10.332 2.76367 8.81836 2.76367 6.91406C2.76367 5.01953 4.27734 3.50586 6.18164 3.50586C8.07617 3.50586 9.58984 5.01953 9.58984 6.91406C9.58984 8.81836 8.07617 10.332 6.18164 10.332ZM22.002 11.8652C24.7363 11.8652 26.9434 9.6582 26.9434 6.91406C26.9434 4.17969 24.7363 1.97266 22.002 1.97266C19.2578 1.97266 17.0508 4.17969 17.0508 6.91406C17.0508 9.6582 19.2578 11.8652 22.002 11.8652ZM22.002 10.332C20.0977 10.332 18.584 8.81836 18.584 6.91406C18.584 5.01953 20.0977 3.50586 22.002 3.50586C23.8965 3.50586 25.4102 5.01953 25.4102 6.91406C25.4102 8.81836 23.8965 10.332 22.002 10.332ZM14.0918 23.9453C19.2773 23.9453 23.2227 21.7969 25.625 18.4375C22.5586 15.6445 18.6035 14.0625 14.0918 14.0625C9.57031 14.0625 5.60547 15.6445 2.54883 18.4277C4.95117 21.7969 8.89648 23.9453 14.0918 23.9453ZM8.4375 20.1367C7.8125 20.1367 7.31445 19.6387 7.31445 19.0039C7.31445 18.3789 7.8125 17.8809 8.4375 17.8809C9.07227 17.8809 9.57031 18.3789 9.57031 19.0039C9.57031 19.6387 9.07227 20.1367 8.4375 20.1367ZM14.0918 20.9375C13.0273 20.9375 12.1582 20.0684 12.1582 19.0039C12.1582 17.9492 13.0273 17.0801 14.0918 17.0801C15.1465 17.0801 16.0156 17.9492 16.0156 19.0039C16.0156 20.0684 15.1465 20.9375 14.0918 20.9375ZM19.7363 20.1367C19.1016 20.1367 18.6035 19.6387 18.6035 19.0039C18.6035 18.3789 19.1016 17.8809 19.7363 17.8809C20.3613 17.8809 20.8594 18.3789 20.8594 19.0039C20.8594 19.6387 20.3613 20.1367 19.7363 20.1367Z" fill="black" fill-opacity="0.85"/>
  <path d="M6.18164 8.83789C7.23633 8.83789 8.0957 7.97852 8.0957 6.91406C8.0957 5.85938 7.23633 5 6.18164 5C5.11719 5 4.25781 5.85938 4.25781 6.91406C4.25781 7.97852 5.11719 8.83789 6.18164 8.83789ZM22.002 8.83789C23.0566 8.83789 23.916 7.97852 23.916 6.91406C23.916 5.85938 23.0566 5 22.002 5C20.9375 5 20.0781 5.85938 20.0781 6.91406C20.0781 7.97852 20.9375 8.83789 22.002 8.83789Z" fill="black" fill-opacity="0.85"/>
 </g>
</svg>
