<?xml version="1.0" encoding="UTF-8"?>
<!--Generator: Apple Native CoreSVG 326-->
<!DOCTYPE svg
PUBLIC "-//W3C//DTD SVG 1.1//EN"
       "http://www.w3.org/Graphics/SVG/1.1/DTD/svg11.dtd">
<svg version="1.1" xmlns="http://www.w3.org/2000/svg" xmlns:xlink="http://www.w3.org/1999/xlink" viewBox="0 0 20.0684 23.9941">
 <g>
  <rect height="23.9941" opacity="0" width="20.0684" x="0" y="0"/>
  <path d="M12.4219 17.2266C13.1543 17.2266 13.4961 16.7285 13.4961 16.0449C13.4961 15.8301 13.4961 15.6152 13.4961 15.4102C13.5156 13.6816 14.1211 12.9199 16.1914 11.4844C18.4277 9.93164 19.707 8.30078 19.707 5.94727C19.707 2.28516 16.7383 0.0683594 12.9883 0.0683594C10.127 0.0683594 7.66602 1.52344 6.66992 3.97461C6.42578 4.55078 6.32812 5.08789 6.32812 5.52734C6.32812 6.13281 6.67969 6.55273 7.32422 6.55273C7.87109 6.55273 8.23242 6.23047 8.37891 5.69336C8.96484 3.19336 10.6934 2.04102 12.9199 2.04102C15.498 2.04102 17.5195 3.58398 17.5195 5.9375C17.5195 7.73438 16.4453 8.81836 14.6777 10.0879C12.6074 11.5527 11.3184 12.9492 11.3184 15.1465C11.3184 15.459 11.3184 15.7617 11.3184 16.0742C11.3184 16.7578 11.6992 17.2266 12.4219 17.2266ZM12.4414 23.9941C13.3105 23.9941 14.0137 23.2812 14.0137 22.4219C14.0137 21.543 13.3105 20.8496 12.4414 20.8496C11.5723 20.8496 10.8691 21.543 10.8691 22.4219C10.8691 23.2812 11.5723 23.9941 12.4414 23.9941Z" fill="black" fill-opacity="0.85"/>
  <path d="M1.58203 17.1387C2.14844 17.1387 2.53906 16.7676 2.54883 16.1816L2.63672 1.14258C2.63672 1.14258 2.63672 1.14258 2.63672 1.14258C2.63672 0.527344 2.14844 0.117188 1.57227 0.117188C0.996094 0.117188 0.507812 0.527344 0.507812 1.14258C0.507812 1.14258 0.507812 1.14258 0.507812 1.14258L0.615234 16.1816C0.625 16.7676 1.01562 17.1387 1.58203 17.1387ZM1.57227 23.9941C2.44141 23.9941 3.14453 23.2812 3.14453 22.4219C3.14453 21.543 2.44141 20.8496 1.57227 20.8496C0.712891 20.8496 0 21.543 0 22.4219C0 23.2812 0.712891 23.9941 1.57227 23.9941Z" fill="black" fill-opacity="0.85"/>
 </g>
</svg>
