<?xml version="1.0" ?><!-- Generator: Adobe Illustrator 25.0.0, SVG Export Plug-In . SVG Version: 6.00 Build 0)  --><svg xmlns="http://www.w3.org/2000/svg" xmlns:xlink="http://www.w3.org/1999/xlink" version="1.1" id="Layer_1" x="0px" y="0px" viewBox="0 0 512 512" style="enable-background:new 0 0 512 512;" xml:space="preserve">
<path d="M256,512c35,0,67.9-6.7,98.8-20.1c30.9-13.4,58.1-31.9,81.7-55.5c23.6-23.6,42.1-50.8,55.5-81.7  C505.3,323.9,512,291,512,256s-6.7-67.9-20.1-98.8c-13.4-30.9-31.9-58.1-55.5-81.7c-23.6-23.6-50.9-42.1-81.8-55.5  C323.7,6.7,290.7,0,255.7,0S187.9,6.7,157,20.1C126.1,33.5,98.9,52,75.4,75.5c-23.5,23.6-42,50.8-55.3,81.7C6.7,188.1,0,221,0,256  s6.7,67.9,20.1,98.8c13.4,30.9,31.9,58.1,55.5,81.7s50.8,42.1,81.7,55.5C188.1,505.3,221,512,256,512z" class="hierarchical-0:tertiary SFSymbolsPreview8E8E8E" style="fill: #8E8E8E;"/>
<path d="M191.2,404.8c-7.5,0-11.3-4.3-11.3-12.8v-36.9h-6.3c-18.7,0-33.1-5.1-43.2-15.3c-10-10.2-15.1-24.7-15.1-43.4V199  c0-18.6,5-32.9,15.1-43c10-10.1,24.4-15.2,43.2-15.2h164.6c18.7,0,33.1,5.1,43.2,15.3c10,10.2,15.1,24.5,15.1,42.9v97.4  c0,18.7-5,33.2-15.1,43.4c-10,10.2-24.4,15.3-43.2,15.3h-86.6l-46.2,41.9C200,402.2,195.3,404.8,191.2,404.8z M256,272.1  c6.9,0,10.3-3.6,10.3-10.8l2-69.3c0-3.5-1.2-6.4-3.6-8.8c-2.4-2.3-5.4-3.5-8.9-3.5c-3.7,0-6.7,1.2-8.9,3.5s-3.3,5.3-3.1,8.8  l1.8,69.3C245.6,268.5,249.1,272.1,256,272.1z M256,314.5c3.8,0,7.3-1.3,10.3-4c3-2.7,4.5-6,4.5-10c0-4-1.5-7.4-4.4-10.2  c-2.9-2.8-6.4-4.1-10.4-4.1c-4,0-7.5,1.4-10.4,4.3c-2.9,2.8-4.4,6.2-4.4,10c0,4,1.5,7.4,4.5,10C248.7,313.1,252.2,314.5,256,314.5z" class="hierarchical-1:primary SFSymbolsPreview212121" style="fill: #212121;"/>
</svg>