<?xml version="1.0" ?><!-- Generator: Adobe Illustrator 25.0.0, SVG Export Plug-In . SVG Version: 6.00 Build 0)  --><svg xmlns="http://www.w3.org/2000/svg" xmlns:xlink="http://www.w3.org/1999/xlink" version="1.1" id="Layer_1" x="0px" y="0px" viewBox="0 0 512 512" style="enable-background:new 0 0 512 512;" xml:space="preserve">
<path d="M87.3,512h337.3c58.4,0,87.3-28.9,87.3-86.2V86.2C512,28.9,483.1,0,424.7,0H87.3C29.2,0,0,28.6,0,86.2v339.6  C0,483.4,29.2,512,87.3,512z M87.9,467.2c-27.8,0-43.1-14.7-43.1-43.7V88.4c0-28.9,15.3-43.7,43.1-43.7h336.2  c27.5,0,43.1,14.7,43.1,43.7v335.1c0,28.9-15.6,43.7-43.1,43.7H87.9z M256.1,305.6c13.3,0,20.9-7.5,21.1-22l4.2-146.8  c0.3-14.2-10.8-24.8-25.6-24.8c-15,0-25.6,10.3-25.3,24.5l3.6,147.1C234.4,297.9,242.2,305.6,256.1,305.6z M256.1,396  c15.9,0,29.8-12.8,29.8-28.9c0-16.1-13.6-28.9-29.8-28.9c-16.4,0-30,13.1-30,28.9S240,396,256.1,396z"/>
</svg>