<?xml version="1.0" encoding="UTF-8"?>
<!--Generator: Apple Native CoreSVG 326-->
<!DOCTYPE svg
PUBLIC "-//W3C//DTD SVG 1.1//EN"
       "http://www.w3.org/Graphics/SVG/1.1/DTD/svg11.dtd">
<svg version="1.1" xmlns="http://www.w3.org/2000/svg" xmlns:xlink="http://www.w3.org/1999/xlink" viewBox="0 0 12.5391 23.9941">
 <g>
  <rect height="23.9941" opacity="0" width="12.5391" x="0" y="0"/>
  <path d="M10.6152 17.1387C11.1816 17.1387 11.5723 16.7676 11.582 16.1816L11.6699 1.14258C11.6699 1.14258 11.6699 1.14258 11.6699 1.14258C11.6699 0.527344 11.1816 0.117188 10.6055 0.117188C10.0195 0.117188 9.54102 0.527344 9.54102 1.14258C9.54102 1.14258 9.54102 1.14258 9.54102 1.14258L9.64844 16.1816C9.6582 16.7676 10.0391 17.1387 10.6152 17.1387ZM10.6055 23.9941C11.4746 23.9941 12.1777 23.2812 12.1777 22.4219C12.1777 21.543 11.4746 20.8496 10.6055 20.8496C9.73633 20.8496 9.0332 21.543 9.0332 22.4219C9.0332 23.2812 9.73633 23.9941 10.6055 23.9941Z" fill="black" fill-opacity="0.85"/>
  <path d="M1.58203 17.1387C2.14844 17.1387 2.53906 16.7676 2.54883 16.1816L2.63672 1.14258C2.63672 1.14258 2.63672 1.14258 2.63672 1.14258C2.63672 0.527344 2.14844 0.117188 1.57227 0.117188C0.996094 0.117188 0.507812 0.527344 0.507812 1.14258C0.507812 1.14258 0.507812 1.14258 0.507812 1.14258L0.615234 16.1816C0.625 16.7676 1.01562 17.1387 1.58203 17.1387ZM1.57227 23.9941C2.44141 23.9941 3.14453 23.2812 3.14453 22.4219C3.14453 21.543 2.44141 20.8496 1.57227 20.8496C0.712891 20.8496 0 21.543 0 22.4219C0 23.2812 0.712891 23.9941 1.57227 23.9941Z" fill="black" fill-opacity="0.85"/>
 </g>
</svg>
