<?xml version="1.0" ?><!-- Generator: Adobe Illustrator 25.0.0, SVG Export Plug-In . SVG Version: 6.00 Build 0)  --><svg xmlns="http://www.w3.org/2000/svg" xmlns:xlink="http://www.w3.org/1999/xlink" version="1.1" id="Layer_1" x="0px" y="0px" viewBox="0 0 512 512" style="enable-background:new 0 0 512 512;" xml:space="preserve">
<path d="M256,512c4.1,0,10.6-1.5,17-5.1c144.2-80.9,193.6-115.1,193.6-207.6V105.4c0-26.6-11.4-35-33-44.1  C403.8,48.9,307.2,14.2,277.3,3.8C270.4,1.5,263.1,0,256,0s-14.4,2-21,3.8c-29.9,8.6-126.7,45.4-156.6,57.5  c-21.3,8.9-33,17.5-33,44.1v193.9c0,92.5,49.7,126.5,193.6,207.6C245.6,510.5,251.9,512,256,512z M256,466.1  c-4.1,0-8.1-1.5-15.7-6.1C123.2,389.1,85.7,368.3,85.7,290V113.3c0-8.6,1.5-11.9,8.6-14.7c38.5-15.2,113.3-40.3,151.6-55.5  c4.1-1.8,7.4-2.3,10.1-2.3c2.8,0,6.1,0.8,10.1,2.3C304.4,58.3,378.7,85.2,418,98.6c6.8,2.5,8.4,6.1,8.4,14.7V290  c0,78.3-37.5,98.9-154.6,170.1C264.4,464.6,260.1,466.1,256,466.1z M256,289.5c11.9,0,19-6.8,19.3-20l3.8-133.8  c0.3-12.9-9.9-22.6-23.3-22.6c-13.7,0-23.3,9.4-23.1,22.3l3.3,134.1C236.2,282.4,243.3,289.5,256,289.5z M256,371.8  c14.4,0,27.1-11.7,27.1-26.4s-12.4-26.4-27.1-26.4c-15,0-27.4,11.9-27.4,26.4S241.3,371.8,256,371.8z"/>
</svg>