<?xml version="1.0" ?><!-- Generator: Adobe Illustrator 25.0.0, SVG Export Plug-In . SVG Version: 6.00 Build 0)  --><svg xmlns="http://www.w3.org/2000/svg" xmlns:xlink="http://www.w3.org/1999/xlink" version="1.1" id="Layer_1" x="0px" y="0px" viewBox="0 0 512 512" style="enable-background:new 0 0 512 512;" xml:space="preserve">
<path d="M138,497c9.1,0,15.8-4.6,26.7-14.9l83.9-76.7l157,0.2C474.8,406,512,367.4,512,299.3V121.4C512,53.3,474.8,15,405.6,15  H106.4C37.2,15,0,53.1,0,121.4v177.9c0,68.3,37.2,106.2,106.4,106.2h10.9v67.6C117.3,487.5,124.7,497,138,497z M256.2,253.3  c-12.1,0-18.8-6.7-19-19l-3-126.4c-0.2-12.3,8.8-21.4,21.8-21.4c12.8,0,22.3,9.3,22.1,21.6l-3.5,126.1  C274.4,246.8,267.6,253.3,256.2,253.3z M256.2,331.2c-13.9,0-26-10.9-26-24.9c0-13.7,11.8-24.9,26-24.9c13.9,0,25.8,10.9,25.8,24.9  C282,320.5,269.9,331.2,256.2,331.2z"/>
</svg>