<?xml version="1.0" encoding="UTF-8"?>
<!--Generator: Apple Native CoreSVG 326-->
<!DOCTYPE svg
PUBLIC "-//W3C//DTD SVG 1.1//EN"
       "http://www.w3.org/Graphics/SVG/1.1/DTD/svg11.dtd">
<svg version="1.1" xmlns="http://www.w3.org/2000/svg" xmlns:xlink="http://www.w3.org/1999/xlink" viewBox="0 0 20.7324 25.3418">
 <g>
  <rect height="25.3418" opacity="0" width="20.7324" x="0" y="0"/>
  <path d="M11.1914 0.634766C12.8613 1.20117 17.0703 2.76367 18.7402 3.42773C19.8535 3.88672 20.3711 4.31641 20.3711 5.63477L20.3711 15.1367C20.3711 19.502 18.1152 21.2402 11.0156 25.0879C10.7129 25.2441 10.4102 25.3418 10.1855 25.3418C9.96094 25.3418 9.64844 25.2539 9.35547 25.0879C2.37305 21.0449 0 19.502 0 15.1367L0 5.63477C0 4.31641 0.517578 3.86719 1.63086 3.42773C3.30078 2.77344 7.50977 1.20117 9.17969 0.634766C9.51172 0.537109 9.84375 0.449219 10.1855 0.449219C10.5273 0.449219 10.8594 0.527344 11.1914 0.634766ZM8.91602 17.5586C8.91602 18.2324 9.50195 18.7793 10.1953 18.7793C10.8789 18.7793 11.4746 18.2422 11.4746 17.5586C11.4746 16.8652 10.8887 16.3184 10.1953 16.3184C9.49219 16.3184 8.91602 16.875 8.91602 17.5586ZM9.15039 6.92383L9.30664 13.7988C9.31641 14.3848 9.62891 14.707 10.1953 14.707C10.7324 14.707 11.0547 14.3945 11.0645 13.7988L11.2207 6.93359C11.2305 6.34766 10.791 5.91797 10.1855 5.91797C9.57031 5.91797 9.14062 6.33789 9.15039 6.92383Z" fill="black" fill-opacity="0.85"/>
 </g>
</svg>
