<?xml version="1.0" encoding="UTF-8"?>
<!--Generator: Apple Native CoreSVG 326-->
<!DOCTYPE svg
PUBLIC "-//W3C//DTD SVG 1.1//EN"
       "http://www.w3.org/Graphics/SVG/1.1/DTD/svg11.dtd">
<svg version="1.1" xmlns="http://www.w3.org/2000/svg" xmlns:xlink="http://www.w3.org/1999/xlink" viewBox="0 0 25.5859 24.7363">
 <g>
  <rect height="24.7363" opacity="0" width="25.5859" x="0" y="0"/>
  <path d="M0 12.4414C0 15.4297 1.14258 17.7246 2.38281 19.5215C2.98828 20.4395 3.33008 21.3086 3.33008 22.0703L3.33008 23.8672C3.33008 24.3164 3.7207 24.6973 4.16992 24.6973C4.61914 24.6973 5.00977 24.3164 5.00977 23.8672L5.00977 23.1348L6.80664 23.1348L6.80664 23.8672C6.80664 24.3164 7.19727 24.6973 7.63672 24.6973C8.0957 24.6973 8.47656 24.3164 8.47656 23.8672L8.47656 23.1348L10.1172 23.1348L10.1172 23.8672C10.1172 24.3164 10.5176 24.6973 10.9668 24.6973C11.416 24.6973 11.7969 24.3164 11.7969 23.8672L11.7969 23.1348L13.3984 23.1348L13.3984 23.8672C13.3984 24.3164 13.7988 24.6973 14.2383 24.6973C14.6875 24.6973 15.0879 24.3164 15.0879 23.8672L15.0879 23.1348L16.7285 23.1348L16.7285 23.8672C16.7285 24.3164 17.1094 24.6973 17.5586 24.6973C18.0078 24.6973 18.3984 24.3164 18.3984 23.8672L18.3984 23.1348L20.1953 23.1348L20.1953 23.8672C20.1953 24.3164 20.5859 24.6973 21.0352 24.6973C21.4844 24.6973 21.875 24.3164 21.875 23.8672L21.875 22.0703C21.875 21.3672 22.2559 20.4492 22.9395 19.3652C24.1211 17.6074 25.2246 15.3613 25.2246 12.4414C25.2246 9.31641 24.0332 6.58203 22.3438 4.38477C21.6797 3.51562 21.6211 3.30078 21.6211 2.71484L21.6211 0.839844C21.6211 0.390625 21.2305 0 20.7812 0C20.332 0 19.9414 0.390625 19.9414 0.839844L19.9414 2.82227C19.9414 4.13086 20.1953 4.38477 20.918 5.32227C22.3828 7.24609 23.4961 9.60938 23.4961 12.4414C23.4961 16.0059 21.6992 18.4961 19.1211 20.0391L6.09375 20.0391C3.52539 18.4961 1.72852 16.0059 1.72852 12.4414C1.72852 9.60938 2.8418 7.24609 4.29688 5.32227C5.0293 4.38477 5.27344 4.13086 5.27344 2.82227L5.27344 0.839844C5.27344 0.390625 4.89258 0 4.44336 0C3.98438 0 3.59375 0.390625 3.59375 0.839844L3.59375 2.71484C3.59375 3.30078 3.54492 3.51562 2.88086 4.38477C1.18164 6.58203 0 9.31641 0 12.4414Z" fill="black" fill-opacity="0.85"/>
  <path d="M12.6172 12.6465C13.1445 12.6465 13.4375 12.334 13.457 11.7578L13.623 6.85547C13.6426 6.25 13.1934 5.83008 12.6074 5.83008C12.0117 5.83008 11.5918 6.24023 11.6113 6.8457L11.7578 11.7578C11.7773 12.3242 12.0801 12.6465 12.6172 12.6465ZM12.6074 16.4941C13.2812 16.4941 13.8477 15.9668 13.8477 15.293C13.8477 14.6289 13.291 14.1016 12.6074 14.1016C11.9336 14.1016 11.3672 14.6387 11.3672 15.293C11.3672 15.957 11.9434 16.4941 12.6074 16.4941Z" fill="black" fill-opacity="0.85"/>
 </g>
</svg>
