<?xml version="1.0" ?><!-- Generator: Adobe Illustrator 25.0.0, SVG Export Plug-In . SVG Version: 6.00 Build 0)  --><svg xmlns="http://www.w3.org/2000/svg" xmlns:xlink="http://www.w3.org/1999/xlink" version="1.1" id="Layer_1" x="0px" y="0px" viewBox="0 0 512 512" style="enable-background:new 0 0 512 512;" xml:space="preserve">
<path d="M60.7,478.2h142.6c7.6,19.6,26.7,33.8,48.8,33.8s41.2-14.3,48.5-33.8h142.6c10.1,0,18.6-8.3,18.6-18.4  c0-10.4-8.5-18.6-18.6-18.6H300.4c-5.3-13.6-16.3-24.4-29.9-29.7v-57.7h130c57.3,0,99.4-40.3,99.4-94.5c0-15.4-4.4-29.7-9.7-42.8  L420.9,50.8C407.3,17.9,379.5,0,341.1,0H170.9c-38.2,0-66.2,17.9-80,50.8l-69,165.6c-5.5,13.6-9.7,27.6-9.7,42.8  c0,54.3,42.1,94.5,99.4,94.5h121.9v57.7c-13.6,5.3-24.4,16.1-29.9,29.7H60.7c-10.1,0-18.4,8.3-18.4,18.6  C42.3,469.9,50.6,478.2,60.7,478.2z M83.5,169.3l43-108.6c7.4-18.6,23.2-28.3,46.2-28.3h166.8c23,0,38.9,9.7,46.2,28.3l43,108.6  c-9-3-18.4-4.4-28.3-4.4H111.6C101.7,164.9,92.2,166.3,83.5,169.3z M48.8,259.2c0-33.8,25.8-57.7,62.8-57.7h288.9  c37,0,62.8,23.9,62.8,57.7c0,36.1-23.5,57.7-62.8,57.7H111.6C74.5,317,48.8,293,48.8,259.2z M372.8,259.2  c0,15.2,12.2,27.4,27.4,27.4c14.7-0.2,27.1-12.4,27.1-27.4c0-14.5-12.7-27.1-27.1-27.1C385.5,232.1,372.8,244.7,372.8,259.2z"/>
</svg>