<?xml version="1.0" encoding="UTF-8"?>
<!--Generator: Apple Native CoreSVG 326-->
<!DOCTYPE svg
PUBLIC "-//W3C//DTD SVG 1.1//EN"
       "http://www.w3.org/Graphics/SVG/1.1/DTD/svg11.dtd">
<svg version="1.1" xmlns="http://www.w3.org/2000/svg" xmlns:xlink="http://www.w3.org/1999/xlink" viewBox="0 0 29.1699 20.8496">
 <g>
  <rect height="20.8496" opacity="0" width="29.1699" x="0" y="0"/>
  <path d="M4.92188 20.8496L23.8867 20.8496C26.7578 20.8496 28.8086 18.8086 28.8086 15.957C28.8086 13.1152 26.7578 11.0645 23.8867 11.0645L4.92188 11.0645C2.05078 11.0645 0 13.1152 0 15.957C0 18.8086 2.05078 20.8496 4.92188 20.8496ZM4.92188 9.50195L23.8867 9.50195C25.0488 9.50195 26.1035 9.77539 27.0215 10.2539L23.8379 2.80273C23.0762 0.986328 21.5332 0.0195312 19.4727 0.0195312L9.33594 0.0195312C7.27539 0.0195312 5.72266 0.986328 4.9707 2.80273L1.77734 10.2539C2.69531 9.77539 3.75977 9.50195 4.92188 9.50195ZM22.1289 15.9863C22.1289 15.1465 22.8613 14.4141 23.7305 14.4141C24.5703 14.4141 25.293 15.1465 25.293 15.9863C25.293 16.8555 24.5703 17.5586 23.7305 17.5586C22.8613 17.5586 22.1289 16.875 22.1289 15.9863Z" fill="black" fill-opacity="0.85"/>
 </g>
</svg>
