<?xml version="1.0" encoding="UTF-8"?>
<!--Generator: Apple Native CoreSVG 326-->
<!DOCTYPE svg
PUBLIC "-//W3C//DTD SVG 1.1//EN"
       "http://www.w3.org/Graphics/SVG/1.1/DTD/svg11.dtd">
<svg version="1.1" xmlns="http://www.w3.org/2000/svg" xmlns:xlink="http://www.w3.org/1999/xlink" viewBox="0 0 34.4141 26.5528">
 <g>
  <rect height="26.5528" opacity="0" width="34.4141" x="0" y="0"/>
  <path d="M7.79253 7.15637C4.18854 9.41589 1.9043 12.3433 1.9043 13.2813C1.9043 15.1074 8.56445 22.2852 17.0312 22.2852C18.811 22.2852 20.5113 21.9673 22.0788 21.4361L23.4874 22.844C21.5396 23.5695 19.3679 24.0137 17.0312 24.0137C7.10938 24.0137 0 15.8301 0 13.2813C0 11.7921 2.43672 8.38295 6.44783 5.81228ZM34.0527 13.2813C34.0527 14.7335 31.7829 18.0149 27.9691 20.5667L26.6442 19.2419C30.0218 17.0539 32.1484 14.3132 32.1484 13.2813C32.1484 11.6797 25.4883 4.27736 17.0312 4.27736C15.4106 4.27736 13.8562 4.54857 12.4039 5.00158L11.0015 3.59918C12.8424 2.94832 14.8712 2.55861 17.0312 2.55861C27.0215 2.55861 34.0527 10.7324 34.0527 13.2813ZM15.0528 14.4133C15.2518 14.7625 15.5418 15.0527 15.8917 15.2518L20.211 19.5692C19.258 20.0592 18.1765 20.3321 17.0312 20.3321C13.1348 20.3321 9.96094 17.1582 9.96094 13.2617C9.96094 12.1176 10.2332 11.0372 10.7224 10.0849ZM24.1016 13.2617C24.1016 14.2714 23.8891 15.2325 23.5027 16.1004L14.1926 6.79025C15.0605 6.40386 16.0216 6.19143 17.0312 6.19143C20.9375 6.19143 24.1016 9.35549 24.1016 13.2617Z" fill="black" fill-opacity="0.85"/>
  <path d="M27.0605 24.209C27.3828 24.5313 27.9004 24.5508 28.2422 24.209C28.5938 23.8477 28.5645 23.3594 28.2422 23.0274L7.00195 1.80666C6.68945 1.48439 6.15234 1.47463 5.82031 1.80666C5.49805 2.11916 5.49805 2.66603 5.82031 2.9883Z" fill="black" fill-opacity="0.85"/>
 </g>
</svg>
