<?xml version="1.0" ?><!-- Generator: Adobe Illustrator 25.0.0, SVG Export Plug-In . SVG Version: 6.00 Build 0)  --><svg xmlns="http://www.w3.org/2000/svg" xmlns:xlink="http://www.w3.org/1999/xlink" version="1.1" id="Layer_1" x="0px" y="0px" viewBox="0 0 512 512" style="enable-background:new 0 0 512 512;" xml:space="preserve">
<path d="M87.3,512h337.3c29.1,0,50.9-7.2,65.5-21.6c14.6-14.4,21.8-35.9,21.8-64.7V86.2c0-28.7-7.3-50.3-21.8-64.7  C475.6,7.2,453.8,0,424.7,0H87.3C58.2,0,36.4,7.2,21.8,21.6C7.3,35.9,0,57.5,0,86.2v339.6c0,28.7,7.3,50.3,21.8,64.7  C36.4,504.8,58.2,512,87.3,512z" class="hierarchical-0:tertiary SFSymbolsPreview8E8E8E" style="fill: #8E8E8E;"/>
<path d="M256.1,372.9c-21.9,0-42.4-3.1-61.5-9.3c-19.1-6.2-36.4-14.2-51.9-23.9c-15.5-9.7-28.7-20-39.8-30.9  c-11-10.8-19.5-21-25.4-30.6c-5.9-9.5-8.9-17.1-8.9-22.7c0-5.6,3-13.1,8.9-22.7c5.9-9.5,14.4-19.7,25.4-30.6  c11-10.8,24.2-21.1,39.6-30.9c15.4-9.7,32.6-17.7,51.7-23.9c19.1-6.2,39.7-9.3,61.7-9.3c22.1,0,42.6,3.1,61.7,9.3  c19.1,6.2,36.3,14.2,51.7,23.9c15.4,9.7,28.6,20,39.5,30.9c10.9,10.8,19.4,21,25.3,30.6c5.9,9.5,8.9,17.1,8.9,22.7  c0,5.6-3,13.1-8.9,22.7c-5.9,9.5-14.4,19.7-25.3,30.6c-10.9,10.8-24.1,21.1-39.5,30.9c-15.4,9.7-32.6,17.7-51.7,23.9  C298.8,369.8,278.2,372.9,256.1,372.9z M256.1,332.3c14.1,0,27-3.5,38.7-10.4c11.7-7,21-16.3,27.8-27.9  c6.9-11.7,10.3-24.5,10.3-38.4c0-14.3-3.4-27.2-10.3-38.8c-6.9-11.6-16.1-20.8-27.8-27.7c-11.7-6.9-24.6-10.3-38.7-10.3  c-14.3,0-27.3,3.4-38.9,10.3c-11.7,6.9-21,16.1-27.9,27.7c-7,11.6-10.4,24.5-10.4,38.8c0,13.9,3.5,26.7,10.4,38.4  c7,11.7,16.3,21,27.9,27.9C228.9,328.9,241.9,332.3,256.1,332.3z M256.4,289.5c-9.3,0-17.3-3.4-24.1-10.3  c-6.8-6.9-10.2-14.7-10.2-23.6c0-8.9,3.4-16.8,10.2-23.6c6.8-6.9,14.8-10.3,24.1-10.3c8.9,0,16.7,3.4,23.5,10.3s10.2,14.7,10.2,23.6  c0,8.9-3.4,16.8-10.2,23.6C273.1,286.1,265.3,289.5,256.4,289.5z" class="hierarchical-1:primary SFSymbolsPreview212121" style="fill: #212121;"/>
</svg>