<?xml version="1.0" encoding="UTF-8"?>
<!--Generator: Apple Native CoreSVG 326-->
<!DOCTYPE svg
PUBLIC "-//W3C//DTD SVG 1.1//EN"
       "http://www.w3.org/Graphics/SVG/1.1/DTD/svg11.dtd">
<svg version="1.1" xmlns="http://www.w3.org/2000/svg" xmlns:xlink="http://www.w3.org/1999/xlink" viewBox="0 0 25.8008 25.459">
 <g>
  <rect height="25.459" opacity="0" width="25.8008" x="0" y="0"/>
  <path d="M25.4395 12.7246C25.4395 19.7461 19.7363 25.4395 12.7148 25.4395C5.69336 25.4395 0 19.7461 0 12.7246C0 5.70312 5.69336 0 12.7148 0C19.7363 0 25.4395 5.70312 25.4395 12.7246ZM1.81641 12.7246C1.81641 18.75 6.68945 23.623 12.7148 23.623C18.7402 23.623 23.6133 18.75 23.6133 12.7246C23.6133 6.69922 18.7402 1.82617 12.7148 1.82617C6.68945 1.82617 1.81641 6.69922 1.81641 12.7246Z" fill="black" fill-opacity="0.85"/>
  <path d="M9.43934 11.3534C9.26338 11.7737 9.16749 12.2368 9.16992 12.7246C9.16992 14.6387 10.7422 16.25 12.7051 16.25C13.1846 16.25 13.6428 16.1519 14.0605 15.9746L15.6884 17.6025C14.7787 17.9177 13.7758 18.1055 12.7051 18.1055C7.73438 18.1055 4.16992 13.9941 4.16992 12.7246C4.16992 12.0061 5.29614 10.3772 7.18528 9.09934ZM21.2402 12.7246C21.2402 13.4398 20.1213 15.0571 18.2479 16.3327L15.9717 14.0546C16.1451 13.6425 16.2402 13.1926 16.2402 12.7246C16.2402 10.7617 14.6484 9.19922 12.7051 9.19922C12.2342 9.19922 11.7852 9.28915 11.3759 9.45502L9.75587 7.83367C10.656 7.52638 11.6472 7.34375 12.7051 7.34375C17.6953 7.34375 21.2402 11.4551 21.2402 12.7246Z" fill="black" fill-opacity="0.85"/>
  <path d="M18.2812 18.9941C18.4766 19.1992 18.8086 19.1992 19.0137 18.9941C19.2188 18.7891 19.2188 18.4766 19.0137 18.2617L7.1875 6.43555C6.98242 6.23047 6.65039 6.23047 6.44531 6.43555C6.24023 6.64062 6.25 6.97266 6.44531 7.16797Z" fill="black" fill-opacity="0.85"/>
 </g>
</svg>
