<?xml version="1.0" ?><!-- Generator: Adobe Illustrator 25.0.0, SVG Export Plug-In . SVG Version: 6.00 Build 0)  --><svg xmlns="http://www.w3.org/2000/svg" xmlns:xlink="http://www.w3.org/1999/xlink" version="1.1" id="Layer_1" x="0px" y="0px" viewBox="0 0 512 512" style="enable-background:new 0 0 512 512;" xml:space="preserve">
<path d="M256,512c140,0,256-116,256-256C512,116.2,395.8,0,255.7,0C116,0,0,116.2,0,256C0,396,116.2,512,256,512z M255.7,369.7  c-105.7,0-181.2-86.6-181.2-113.4c0-27.1,74.8-113.4,181.2-113.4c106.7,0,181,86.3,181,113.4C436.7,283.1,362.7,369.7,255.7,369.7z   M255.7,330.5c41.2,0,74.5-33.9,74.5-74.3c0-41.4-33.4-74.3-74.5-74.3c-41.4,0-74.8,32.9-74.5,74.3  C181.2,296.7,214.3,330.5,255.7,330.5z M256,289.1c-17.8,0-33.1-15.6-33.1-32.9c0-17.6,15.3-32.9,33.1-32.9  c17.6,0,32.6,15.3,32.6,32.9C288.6,273.6,273.6,289.1,256,289.1z"/>
</svg>