<?xml version="1.0" encoding="UTF-8"?>
<!--Generator: Apple Native CoreSVG 326-->
<!DOCTYPE svg
PUBLIC "-//W3C//DTD SVG 1.1//EN"
       "http://www.w3.org/Graphics/SVG/1.1/DTD/svg11.dtd">
<svg version="1.1" xmlns="http://www.w3.org/2000/svg" xmlns:xlink="http://www.w3.org/1999/xlink" viewBox="0 0 26.4355 26.4941">
 <g>
  <rect height="26.4941" opacity="0" width="26.4355" x="0" y="0"/>
  <path d="M16.8652 11.3477L11.2012 16.9922C10.7129 17.4805 10.0879 17.6465 9.58984 17.1094C9.07227 16.543 9.18945 16.0156 9.72656 15.459L15.3516 9.80469L14.3945 8.85742L4.13086 19.1211C0.292969 22.959 2.08984 22.4219 0 25.3711L1.05469 26.4941C3.91602 24.4238 3.56445 26.4062 7.4707 22.5195L17.7832 12.2656ZM19.6289 13.6133L19.9512 13.2617C20.5371 12.627 20.5762 11.8945 19.9316 11.2695L19.5508 10.8887C21.4551 9.17969 23.5938 8.91602 24.9023 7.59766C26.748 5.72266 26.1523 3.11523 24.8535 1.80664C23.5547 0.498047 20.9668-0.0585938 19.0625 1.75781C17.7246 3.04688 17.4805 5.20508 15.7715 7.10938L15.3906 6.72852C14.7656 6.08398 14.0332 6.12305 13.3984 6.70898L13.0469 7.03125C12.2852 7.74414 12.4414 8.39844 13.0762 9.04297L17.6172 13.584C18.2617 14.2188 18.916 14.375 19.6289 13.6133Z" fill="black" fill-opacity="0.85"/>
 </g>
</svg>
