<?xml version="1.0" encoding="UTF-8"?>
<!--Generator: Apple Native CoreSVG 326-->
<!DOCTYPE svg
PUBLIC "-//W3C//DTD SVG 1.1//EN"
       "http://www.w3.org/Graphics/SVG/1.1/DTD/svg11.dtd">
<svg version="1.1" xmlns="http://www.w3.org/2000/svg" xmlns:xlink="http://www.w3.org/1999/xlink" viewBox="0 0 39.873 15.5762">
 <g>
  <rect height="15.5762" opacity="0" width="39.873" x="0" y="0"/>
  <path d="M10.1367 15.5664C14.4336 15.5664 17.9102 12.0801 17.9102 7.7832C17.9102 3.48633 14.4336 0 10.1367 0C5.83984 0 2.34375 3.48633 2.34375 7.7832C2.34375 12.0801 5.83984 15.5664 10.1367 15.5664ZM10.1367 13.7598C6.83594 13.7598 4.16016 11.084 4.16016 7.7832C4.16016 4.48242 6.83594 1.81641 10.1367 1.81641C13.4277 1.81641 16.1035 4.49219 16.1035 7.7832C16.1035 11.0742 13.4277 13.7598 10.1367 13.7598ZM29.3848 15.5664C33.6719 15.5664 37.1582 12.0801 37.1582 7.7832C37.1582 3.48633 33.6719 0 29.3848 0C25.0781 0 21.5918 3.48633 21.5918 7.7832C21.5918 12.0801 25.0781 15.5664 29.3848 15.5664ZM29.3848 13.7598C26.084 13.7598 23.4082 11.0742 23.4082 7.7832C23.4082 4.49219 26.084 1.81641 29.3848 1.81641C32.6758 1.81641 35.3516 4.48242 35.3516 7.7832C35.3516 11.084 32.6758 13.7598 29.3848 13.7598ZM3.07617 6.34766L0.878906 6.34766C0.302734 6.34766 0 6.64062 0 7.2168L0 7.66602C0 8.24219 0.302734 8.53516 0.878906 8.53516L3.07617 8.53516ZM36.4355 8.53516L38.6328 8.53516C39.209 8.53516 39.5117 8.24219 39.5117 7.66602L39.5117 7.2168C39.5117 6.64062 39.209 6.34766 38.6328 6.34766L36.4355 6.34766ZM17.3926 8.06641C18.0566 7.66602 18.9453 7.4707 19.7559 7.4707C20.5664 7.4707 21.4551 7.66602 22.1191 8.06641L22.1191 6.01562C21.4062 5.67383 20.4688 5.53711 19.7559 5.53711C19.043 5.53711 18.1055 5.67383 17.3926 6.01562Z" fill="black" fill-opacity="0.85"/>
 </g>
</svg>
