<?xml version="1.0" encoding="UTF-8"?>
<!--Generator: Apple Native CoreSVG 326-->
<!DOCTYPE svg
PUBLIC "-//W3C//DTD SVG 1.1//EN"
       "http://www.w3.org/Graphics/SVG/1.1/DTD/svg11.dtd">
<svg version="1.1" xmlns="http://www.w3.org/2000/svg" xmlns:xlink="http://www.w3.org/1999/xlink" viewBox="0 0 29.1309 22.4316">
 <g>
  <rect height="22.4316" opacity="0" width="29.1309" x="0" y="0"/>
  <path d="M6.64062 22.4316C10.3418 22.4316 13.3008 17.8516 13.3008 11.2109C13.3008 4.57031 10.3516 0 6.64062 0C3.13477 0 0.3125 4.08203 0 10.127C0.566406 8.97461 1.67969 8.27148 3.14453 8.27148C5.27344 8.27148 6.68945 9.76562 6.68945 11.9824C6.68945 14.2188 5.27344 15.7031 3.14453 15.7031C1.82617 15.7031 0.791016 15.1367 0.185547 14.1797C0.917969 19.1797 3.50586 22.4316 6.64062 22.4316ZM2.11914 11.5625C2.55859 11.6504 2.97852 11.25 3.0957 10.6934C3.20312 10.1465 2.92969 9.60938 2.4707 9.52148C2.04102 9.44336 1.58203 9.84375 1.48438 10.4004C1.37695 10.9668 1.66992 11.4941 2.11914 11.5625ZM22.1094 22.4316C25.8203 22.4316 28.7695 17.8516 28.7695 11.2109C28.7695 4.57031 25.8203 0 22.1094 0C18.6035 0 15.7812 4.08203 15.4688 10.127C16.0352 8.97461 17.1484 8.27148 18.6133 8.27148C20.7422 8.27148 22.1582 9.76562 22.1582 11.9824C22.1582 14.2188 20.7422 15.7031 18.6133 15.7031C17.2949 15.7031 16.2598 15.1367 15.6543 14.1797C16.3867 19.1797 18.9746 22.4316 22.1094 22.4316ZM17.5879 11.5625C18.0273 11.6504 18.457 11.25 18.5645 10.6934C18.6719 10.1465 18.3984 9.59961 17.9395 9.52148C17.5098 9.44336 17.0508 9.84375 16.9531 10.4004C16.8457 10.9668 17.1387 11.4844 17.5879 11.5625Z" fill="black" fill-opacity="0.85"/>
 </g>
</svg>
