<?xml version="1.0" encoding="UTF-8"?>
<!--Generator: Apple Native CoreSVG 326-->
<!DOCTYPE svg
PUBLIC "-//W3C//DTD SVG 1.1//EN"
       "http://www.w3.org/Graphics/SVG/1.1/DTD/svg11.dtd">
<svg version="1.1" xmlns="http://www.w3.org/2000/svg" xmlns:xlink="http://www.w3.org/1999/xlink" viewBox="0 0 29.2969 22.7246">
 <g>
  <rect height="22.7246" opacity="0" width="29.2969" x="0" y="0"/>
  <path d="M6.74805 22.7246C10.5078 22.7246 13.5059 18.0762 13.5059 11.3574C13.5059 4.62891 10.5078 0 6.74805 0C2.98828 0 0 4.62891 0 11.3574C0 18.0762 2.98828 22.7246 6.74805 22.7246ZM6.74805 21.1914C3.91602 21.2012 1.5625 17.1484 1.5625 11.3574C1.5625 5.60547 3.91602 1.55273 6.74805 1.5332C9.61914 1.52344 11.9727 5.56641 11.9727 11.3574C11.9727 17.1191 9.61914 21.1719 6.74805 21.1914ZM3.97461 15.7324C6.03516 15.7324 7.41211 14.2969 7.41211 12.1289C7.41211 9.98047 6.03516 8.53516 3.97461 8.53516C1.9043 8.53516 0.537109 9.98047 0.537109 12.1289C0.537109 14.2969 1.9043 15.7324 3.97461 15.7324ZM2.97852 11.7285C2.54883 11.6699 2.26562 11.1426 2.36328 10.5957C2.48047 10.0586 2.90039 9.66797 3.32031 9.74609C3.76953 9.83398 4.0332 10.3516 3.92578 10.8789C3.82812 11.4258 3.41797 11.8066 2.97852 11.7285ZM22.1777 22.7246C25.9375 22.7246 28.9355 18.0762 28.9355 11.3574C28.9355 4.62891 25.9375 0 22.1777 0C18.418 0 15.4297 4.62891 15.4297 11.3574C15.4297 18.0762 18.418 22.7246 22.1777 22.7246ZM22.1777 21.1816C19.3262 21.1816 16.9727 17.1387 16.9727 11.3574C16.9727 5.60547 19.3164 1.55273 22.1777 1.54297C25.0293 1.54297 27.3828 5.58594 27.3828 11.3574C27.3828 17.1289 25.0293 21.1719 22.1777 21.1816ZM19.3945 15.7324C21.4453 15.7324 22.8418 14.2969 22.8418 12.1289C22.8418 9.98047 21.4453 8.53516 19.3945 8.53516C17.3242 8.53516 15.9473 9.98047 15.9473 12.1289C15.9473 14.2969 17.3242 15.7324 19.3945 15.7324ZM18.3984 11.7285C17.959 11.6602 17.6758 11.1426 17.793 10.5957C17.9004 10.0586 18.3105 9.66797 18.7402 9.74609C19.1895 9.82422 19.4531 10.3516 19.3457 10.8789C19.2383 11.4258 18.8281 11.8066 18.3984 11.7285Z" fill="black" fill-opacity="0.85"/>
 </g>
</svg>
