<?xml version="1.0" ?><!-- Generator: Adobe Illustrator 25.0.0, SVG Export Plug-In . SVG Version: 6.00 Build 0)  --><svg xmlns="http://www.w3.org/2000/svg" xmlns:xlink="http://www.w3.org/1999/xlink" version="1.1" id="Layer_1" x="0px" y="0px" viewBox="0 0 512 512" style="enable-background:new 0 0 512 512;" xml:space="preserve">
<path d="M118.2,58.1C56.2,58.1,6,128.9,0,235.2c10.4-20.3,30.2-32.4,56.2-32.4c38.4,0,63.7,26.9,63.7,66.6c0,40.4-25.4,67-63.7,67  c-23.4,0-41.9-9.7-52.9-26.5c13.5,87.5,59.5,144,114.9,144c66.1,0,118.8-80.3,118.8-198S184.3,58.1,118.2,58.1z M393.2,58.1  c-62,0-112.2,70.8-118.2,177.1c10.4-20.3,30.2-32.4,56-32.4c38.6,0,63.9,26.9,63.9,66.6c0,40.4-25.4,67-63.9,67  c-23.2,0-41.7-9.7-52.7-26.5c13.5,87.5,59.5,144,114.9,144c66.1,0,118.8-80.3,118.8-198S459.3,58.1,393.2,58.1z M38.1,261.4  c7.9,1.5,15.2-5.7,17.4-15.7c2-9.9-2.9-19.4-11.2-20.9c-7.7-1.5-15.9,5.7-17.6,15.7C24.9,250.6,30.2,260.1,38.1,261.4z M313.1,261.4  c7.7,1.5,15.4-5.7,17.4-15.7c1.8-9.9-3.1-19.6-11.2-20.9c-7.7-1.5-15.9,5.7-17.6,15.7C299.9,250.6,305,259.9,313.1,261.4z"/>
</svg>