<?xml version="1.0" ?><!-- Generator: Adobe Illustrator 25.0.0, SVG Export Plug-In . SVG Version: 6.00 Build 0)  --><svg xmlns="http://www.w3.org/2000/svg" xmlns:xlink="http://www.w3.org/1999/xlink" version="1.1" id="Layer_1" x="0px" y="0px" viewBox="0 0 512 512" style="enable-background:new 0 0 512 512;" xml:space="preserve">
<path d="M138.4,512c67.4,0,112-38.6,122.7-116.1l18.7-136.6h132.8c14.3,0,24.4-9.8,24.4-23.5S426.5,212,412.2,212H286.3l12.2-87.3  c7.4-54.6,30.6-77.5,71.3-77.5c30,0,39.2,3.9,51.4,3.9c12.8,0,21.7-8,21.7-22C442.8,6.2,408.1,0,373.6,0  c-67.4,0-112,38.6-122.7,116.1L237.9,212H123c-14.3,0-24.4,9.8-24.4,23.8c0,13.7,10.4,23.5,24.6,23.5h108.1l-17.5,128.3  c-7.4,54.6-30.9,77.2-71.6,77.2c-29.7,0-38.6-3.9-51.1-3.9c-13.1,0-22,8-22,22C69.2,506.1,103.9,512,138.4,512z"/>
</svg>