<?xml version="1.0" encoding="UTF-8"?>
<!--Generator: Apple Native CoreSVG 326-->
<!DOCTYPE svg
PUBLIC "-//W3C//DTD SVG 1.1//EN"
       "http://www.w3.org/Graphics/SVG/1.1/DTD/svg11.dtd">
<svg version="1.1" xmlns="http://www.w3.org/2000/svg" xmlns:xlink="http://www.w3.org/1999/xlink" viewBox="0 0 25.8008 25.459">
 <g>
  <rect height="25.459" opacity="0" width="25.8008" x="0" y="0"/>
  <path d="M12.7148 25.4395C19.7363 25.4395 25.4395 19.7461 25.4395 12.7246C25.4395 5.70312 19.7363 0 12.7148 0C5.69336 0 0 5.70312 0 12.7246C0 19.7461 5.69336 25.4395 12.7148 25.4395ZM12.7148 23.623C6.68945 23.623 1.81641 18.75 1.81641 12.7246C1.81641 6.69922 6.68945 1.82617 12.7148 1.82617C18.7402 1.82617 23.6133 6.69922 23.6133 12.7246C23.6133 18.75 18.7402 23.623 12.7148 23.623Z" fill="black" fill-opacity="0.85"/>
  <path d="M7.51953 18.9453C7.51953 19.5508 8.19336 19.873 9.49219 19.873C11.4453 19.873 12.6562 18.7402 12.959 16.5918L13.4766 12.9297L17.002 12.9297C17.4707 12.9297 17.8027 12.6074 17.8027 12.168C17.8027 11.7188 17.4512 11.3867 16.9824 11.3867L13.7109 11.3867L14.0234 9.10156C14.2285 7.69531 14.7852 7.09961 15.8496 7.09961C16.6309 7.09961 16.8848 7.1875 17.207 7.1875C17.6367 7.1875 17.9199 6.89453 17.9199 6.47461C17.9199 5.86914 17.1973 5.54688 15.957 5.54688C13.9941 5.54688 12.7832 6.70898 12.4805 8.82812L12.1289 11.3867L9.08203 11.3867C8.63281 11.3867 8.29102 11.7188 8.29102 12.168C8.29102 12.6074 8.63281 12.9297 9.0918 12.9297L11.9141 12.9297L11.416 16.3379C11.2207 17.7344 10.6641 18.3301 9.58984 18.3301C8.82812 18.3301 8.62305 18.2227 8.24219 18.2227C7.79297 18.2227 7.51953 18.5156 7.51953 18.9453Z" fill="black" fill-opacity="0.85"/>
 </g>
</svg>
