<?xml version="1.0" ?><!-- Generator: Adobe Illustrator 25.0.0, SVG Export Plug-In . SVG Version: 6.00 Build 0)  --><svg xmlns="http://www.w3.org/2000/svg" xmlns:xlink="http://www.w3.org/1999/xlink" version="1.1" id="Layer_1" x="0px" y="0px" viewBox="0 0 512 512" style="enable-background:new 0 0 512 512;" xml:space="preserve">
<path d="M87.3,512h337.3c58.4,0,87.3-28.9,87.3-86.2V86.2C512,28.9,483.1,0,424.7,0H87.3C29.2,0,0,28.6,0,86.2v339.6  C0,483.4,29.2,512,87.3,512z M87.9,467.2c-27.8,0-43.1-14.7-43.1-43.7V88.4c0-28.9,15.3-43.7,43.1-43.7h336.2  c27.5,0,43.1,14.7,43.1,43.7v335.1c0,28.9-15.6,43.7-43.1,43.7H87.9z M195,383c14.5,0,22.5-9.7,22.5-25v-86.2h100.1  c10.8,0,18.6-5.8,18.6-17c0-11.4-7.8-17.8-18.6-17.8H217.5v-74.3h111c10.8,0,18.6-7.2,18.6-18.4c0-11.4-7.8-18.1-18.6-18.1H194.7  c-14.2,0-21.7,10-21.7,25v206.6C173,372.7,180.5,383,195,383z"/>
</svg>