<?xml version="1.0" ?><!-- Generator: Adobe Illustrator 25.0.0, SVG Export Plug-In . SVG Version: 6.00 Build 0)  --><svg xmlns="http://www.w3.org/2000/svg" xmlns:xlink="http://www.w3.org/1999/xlink" version="1.1" id="Layer_1" x="0px" y="0px" viewBox="0 0 512 512" style="enable-background:new 0 0 512 512;" xml:space="preserve">
<path d="M87.3,512h337.3c58.4,0,87.3-28.9,87.3-86.2V86.2C512,28.9,483.1,0,424.7,0H87.3C29.2,0,0,28.6,0,86.2v339.6  C0,483.4,29.2,512,87.3,512z M193,387.1c-15,0-22.8-10.8-22.8-26.1V148.2c0-15.6,7.8-26.1,22.5-26.1h137.9c11.1,0,19.2,7,19.2,18.9  c0,11.4-8.1,18.9-19.2,18.9H216.4v76.5h103.2c11.1,0,19.2,6.7,19.2,18.4c0,11.7-8.1,17.5-19.2,17.5H216.4V361  C216.4,376.8,208,387.1,193,387.1z"/>
</svg>