<?xml version="1.0" encoding="UTF-8"?>
<!--Generator: Apple Native CoreSVG 326-->
<!DOCTYPE svg
PUBLIC "-//W3C//DTD SVG 1.1//EN"
       "http://www.w3.org/Graphics/SVG/1.1/DTD/svg11.dtd">
<svg version="1.1" xmlns="http://www.w3.org/2000/svg" xmlns:xlink="http://www.w3.org/1999/xlink" viewBox="0 0 25.8008 25.459">
 <g>
  <rect height="25.459" opacity="0" width="25.8008" x="0" y="0"/>
  <path d="M1.82617 12.7246C1.82617 11.5234 2.02148 10.3613 2.38281 9.29688L0.693359 8.59375C0.253906 9.89258 0 11.2793 0 12.7246C0 14.1602 0.253906 15.5566 0.703125 16.8555L2.38281 16.1523C2.03125 15.0879 1.82617 13.9258 1.82617 12.7246ZM7.82227 2.96875L7.12891 1.32812C4.60938 2.56836 2.54883 4.62891 1.30859 7.14844L2.96875 7.85156C4.01367 5.74219 5.72266 4.0332 7.82227 2.96875ZM12.7051 1.82617C13.9062 1.82617 15.0684 2.02148 16.1523 2.38281L16.8359 0.712891C15.5371 0.253906 14.1504 0 12.7051 0C11.2695 0 9.86328 0.253906 8.56445 0.712891L9.26758 2.38281C10.3516 2.01172 11.5039 1.82617 12.7051 1.82617ZM22.4609 7.8418L24.1211 7.14844C22.8711 4.61914 20.8008 2.55859 18.2812 1.30859L17.5879 2.96875C19.6973 4.02344 21.4062 5.72266 22.4609 7.8418ZM23.6133 12.7246C23.6133 13.9258 23.418 15.0879 23.0664 16.1621L24.7266 16.8652C25.1855 15.5664 25.4395 14.1602 25.4395 12.7246C25.4395 11.2793 25.1855 9.88281 24.7266 8.58398L23.0664 9.28711C23.4277 10.3613 23.6133 11.5234 23.6133 12.7246ZM17.5879 22.4707L18.2812 24.1309C20.8105 22.8809 22.8809 20.8203 24.1113 18.3008L22.4707 17.6074C21.416 19.7168 19.707 21.4258 17.5879 22.4707ZM12.7148 23.623C11.5039 23.623 10.3516 23.4277 9.26758 23.0566L8.57422 24.7363C9.87305 25.1855 11.2793 25.4395 12.7148 25.4395C14.1602 25.4395 15.5469 25.1953 16.8457 24.7461L16.1426 23.0762C15.0586 23.4277 13.916 23.623 12.7148 23.623ZM2.97852 17.6074L1.30859 18.3008C2.55859 20.8203 4.61914 22.8809 7.13867 24.1211L7.82227 22.4609C5.72266 21.416 4.01367 19.707 2.97852 17.6074Z" fill="black" fill-opacity="0.85"/>
  <path d="M12.7051 18.9844C15.2832 18.9844 17.0312 17.2461 17.0312 16.4355C17.0312 16.1719 16.7676 16.0547 16.543 16.1816C15.6738 16.7188 14.5215 17.2949 12.7051 17.2949C10.8887 17.2949 9.74609 16.709 8.87695 16.1816C8.64258 16.0547 8.37891 16.1719 8.37891 16.4355C8.37891 17.2461 10.1367 18.9844 12.7051 18.9844ZM8.95508 11.5918C9.7168 11.5918 10.4004 10.8789 10.4004 9.91211C10.4004 8.94531 9.72656 8.23242 8.95508 8.23242C8.19336 8.23242 7.53906 8.94531 7.53906 9.91211C7.53906 10.8789 8.20312 11.5918 8.95508 11.5918ZM16.4551 11.5918C17.2266 11.5918 17.9004 10.8789 17.9004 9.91211C17.9004 8.94531 17.2266 8.23242 16.4551 8.23242C15.6934 8.23242 15.0391 8.94531 15.0391 9.91211C15.0391 10.8789 15.7031 11.5918 16.4551 11.5918Z" fill="black" fill-opacity="0.85"/>
 </g>
</svg>
