<?xml version="1.0" ?><!-- Generator: Adobe Illustrator 25.0.0, SVG Export Plug-In . SVG Version: 6.00 Build 0)  --><svg xmlns="http://www.w3.org/2000/svg" xmlns:xlink="http://www.w3.org/1999/xlink" version="1.1" id="Layer_1" x="0px" y="0px" viewBox="0 0 512 512" style="enable-background:new 0 0 512 512;" xml:space="preserve">
<path d="M256,512c140,0,256-116.2,256-256C512,116,395.8,0,255.7,0C116,0,0,116,0,256C0,395.8,116.2,512,256,512z M256,469.3  c-118.5,0-213.1-94.9-213.1-213.3S137.3,42.7,255.7,42.7S469.1,137.5,469.3,256S374.5,469.3,256,469.3z M183.2,233.2  c14.8,0,27.1-13.1,27.1-31.4c0-18.3-12.3-31.4-27.1-31.4c-14.8,0-26.9,13.1-26.9,31.4C156.4,220.1,168.4,233.2,183.2,233.2z   M329.8,233.2c14.8,0,27.1-13.1,27.1-31.4c0-18.3-12.3-31.4-27.1-31.4c-14.6,0-26.9,13.1-26.9,31.4  C302.9,220.1,315.2,233.2,329.8,233.2z M168.2,330.3c0,16.6,35.1,51.5,87.6,51.5s87.6-34.9,87.6-51.5c0-6-5.8-8.8-11-6.3  c-18.3,10-40.2,21.3-76.5,21.3s-58.2-11.5-76.3-21.3C173.9,321.5,168.2,324.3,168.2,330.3z"/>
</svg>