<?xml version="1.0" encoding="UTF-8"?>
<!--Generator: Apple Native CoreSVG 326-->
<!DOCTYPE svg
PUBLIC "-//W3C//DTD SVG 1.1//EN"
       "http://www.w3.org/Graphics/SVG/1.1/DTD/svg11.dtd">
<svg version="1.1" xmlns="http://www.w3.org/2000/svg" xmlns:xlink="http://www.w3.org/1999/xlink" viewBox="0 0 25.8008 25.459">
 <g>
  <rect height="25.459" opacity="0" width="25.8008" x="0" y="0"/>
  <path d="M1.82617 12.7246C1.82617 11.5234 2.02148 10.3613 2.38281 9.29688L0.693359 8.59375C0.253906 9.89258 0 11.2793 0 12.7246C0 14.1602 0.253906 15.5566 0.703125 16.8555L2.38281 16.1523C2.03125 15.0879 1.82617 13.9258 1.82617 12.7246ZM7.82227 2.96875L7.12891 1.32812C4.60938 2.56836 2.54883 4.62891 1.30859 7.14844L2.96875 7.85156C4.01367 5.74219 5.72266 4.0332 7.82227 2.96875ZM12.7051 1.82617C13.9062 1.82617 15.0684 2.02148 16.1523 2.38281L16.8359 0.712891C15.5371 0.253906 14.1504 0 12.7051 0C11.2695 0 9.86328 0.253906 8.56445 0.712891L9.26758 2.38281C10.3516 2.01172 11.5039 1.82617 12.7051 1.82617ZM22.4609 7.8418L24.1211 7.14844C22.8711 4.61914 20.8008 2.55859 18.2812 1.30859L17.5879 2.96875C19.6973 4.02344 21.4062 5.72266 22.4609 7.8418ZM23.6133 12.7246C23.6133 13.9258 23.418 15.0879 23.0664 16.1621L24.7266 16.8652C25.1855 15.5664 25.4395 14.1602 25.4395 12.7246C25.4395 11.2793 25.1855 9.88281 24.7266 8.58398L23.0664 9.28711C23.4277 10.3613 23.6133 11.5234 23.6133 12.7246ZM17.5879 22.4707L18.2812 24.1309C20.8105 22.8809 22.8809 20.8203 24.1113 18.3008L22.4707 17.6074C21.416 19.7168 19.707 21.4258 17.5879 22.4707ZM12.7148 23.623C11.5039 23.623 10.3516 23.4277 9.26758 23.0566L8.57422 24.7363C9.87305 25.1855 11.2793 25.4395 12.7148 25.4395C14.1602 25.4395 15.5469 25.1953 16.8457 24.7461L16.1426 23.0762C15.0586 23.4277 13.916 23.623 12.7148 23.623ZM2.97852 17.6074L1.30859 18.3008C2.55859 20.8203 4.61914 22.8809 7.13867 24.1211L7.82227 22.4609C5.72266 21.416 4.01367 19.707 2.97852 17.6074Z" fill="black" fill-opacity="0.85"/>
  <path d="M12.7051 21.9238C17.7832 21.9238 21.8945 17.8125 21.8945 12.7344C21.8945 7.65625 17.7832 3.54492 12.7051 3.54492C7.63672 3.54492 3.51562 7.65625 3.51562 12.7344C3.51562 17.8125 7.63672 21.9238 12.7051 21.9238ZM12.7051 18.1152C10.4297 18.1152 8.87695 16.5625 8.87695 15.8496C8.87695 15.6152 9.11133 15.5371 9.28711 15.6348C10.0586 16.1133 11.084 16.6406 12.7051 16.6406C14.3262 16.6406 15.3613 16.123 16.123 15.6348C16.3086 15.5371 16.5332 15.6152 16.5332 15.8496C16.5332 16.5625 14.9902 18.1152 12.7051 18.1152ZM9.36523 11.5332C8.70117 11.5332 8.11523 10.9082 8.11523 10.0684C8.11523 9.19922 8.69141 8.58398 9.36523 8.58398C10.0391 8.58398 10.6348 9.19922 10.6348 10.0684C10.6348 10.9082 10.0391 11.5332 9.36523 11.5332ZM16.0547 11.5332C15.3906 11.5332 14.7949 10.9082 14.7949 10.0684C14.7949 9.19922 15.3809 8.58398 16.0547 8.58398C16.7285 8.58398 17.3145 9.19922 17.3145 10.0684C17.3145 10.9082 16.7188 11.5332 16.0547 11.5332Z" fill="black" fill-opacity="0.85"/>
 </g>
</svg>
