<?xml version="1.0" ?><!-- Generator: Adobe Illustrator 25.0.0, SVG Export Plug-In . SVG Version: 6.00 Build 0)  --><svg xmlns="http://www.w3.org/2000/svg" xmlns:xlink="http://www.w3.org/1999/xlink" version="1.1" id="Layer_1" x="0px" y="0px" viewBox="0 0 512 512" style="enable-background:new 0 0 512 512;" xml:space="preserve">
<path d="M256,512c140,0,256-116.2,256-256C512,116,395.8,0,255.7,0C116,0,0,116,0,256C0,395.8,116.2,512,256,512z M181,231.9  c-15.3,0-27.9-13.6-27.9-32.4c0-19.1,12.5-32.4,27.9-32.4s27.9,13.3,27.9,32.4C208.8,218.4,196.3,231.9,181,231.9z M332,231.9  c-15.1,0-27.6-13.6-27.6-32.4c0-19.1,12.5-32.4,27.6-32.4c15.3,0,28.1,13.3,28.1,32.4C360.2,218.4,347.4,231.9,332,231.9z   M165.4,332c0-6.3,5.8-9,11.5-6.5c18.8,10,41.2,21.8,78.8,21.8s60-11.5,79.1-21.8c5.3-2.5,11.3,0.3,11.3,6.5  c0,17.1-36.1,53.2-90.4,53.2S165.4,349.1,165.4,332z"/>
</svg>