<?xml version="1.0" encoding="UTF-8"?>
<!--Generator: Apple Native CoreSVG 326-->
<!DOCTYPE svg
PUBLIC "-//W3C//DTD SVG 1.1//EN"
       "http://www.w3.org/Graphics/SVG/1.1/DTD/svg11.dtd">
<svg version="1.1" xmlns="http://www.w3.org/2000/svg" xmlns:xlink="http://www.w3.org/1999/xlink" viewBox="0 0 27.7197 27.505">
 <g>
  <rect height="27.505" opacity="0" width="27.7197" x="0" y="0"/>
  <path d="M22.4951 25.6245C21.1458 26.5342 19.5417 27.0973 17.9517 27.0973C15.813 27.0973 14.6509 25.8863 14.6509 23.6793L14.6509 17.777ZM14.0721 17.198C12.536 22.9682 10.7246 26.0719 7.45361 26.0719C3.87939 26.0719 0.344238 21.9996 0.344238 18.0055C0.344238 15.8765 1.54541 14.6949 3.76221 14.6949L11.1646 14.6949L11.1646 14.3726C4.79736 12.7808 1.37939 10.9547 1.37939 7.51717C1.37939 6.69534 1.59418 5.87557 1.98156 5.10233ZM26.0083 19.9879C26.0083 20.7909 25.8028 21.5919 25.43 22.349L16.2105 13.1295C22.5708 14.7196 26.0083 16.5455 26.0083 19.9879ZM27.0435 9.48983C27.0435 11.6285 25.8325 12.7906 23.6157 12.7906L16.1841 12.7906L16.1841 13.1031L13.3248 10.2439C14.859 4.50582 16.6692 1.42342 19.9243 1.42342C23.4985 1.42342 27.0435 5.50545 27.0435 9.48983ZM12.7368 3.82577L12.7368 9.65584L4.93061 1.84963C6.27078 0.955524 7.85874 0.401888 9.43604 0.398032C11.5649 0.398032 12.7368 1.60897 12.7368 3.82577Z" fill="black" fill-opacity="0.85"/>
  <path d="M24.6997 25.9058C25.022 26.2281 25.5591 26.2183 25.8716 25.8961C26.2036 25.564 26.2036 25.0465 25.8716 24.7144L2.78564 1.61873C2.46338 1.29647 1.93604 1.2867 1.59424 1.61873C1.28174 1.941 1.28174 2.47811 1.59424 2.80038Z" fill="black" fill-opacity="0.85"/>
 </g>
</svg>
