<?xml version="1.0" encoding="UTF-8"?>
<!--Generator: Apple Native CoreSVG 326-->
<!DOCTYPE svg
PUBLIC "-//W3C//DTD SVG 1.1//EN"
       "http://www.w3.org/Graphics/SVG/1.1/DTD/svg11.dtd">
<svg version="1.1" xmlns="http://www.w3.org/2000/svg" xmlns:xlink="http://www.w3.org/1999/xlink" viewBox="0 0 25.3906 28.6035">
 <g>
  <rect height="28.6035" opacity="0" width="25.3906" x="0" y="0"/>
  <path d="M12.5098 25.0293C19.4238 25.0293 25.0293 19.4336 25.0293 12.5098C25.0293 5.60547 19.4336 0 12.5098 0C5.5957 0 0 5.5957 0 12.5098C0 19.4238 5.5957 25.0293 12.5098 25.0293ZM12.5098 23.291C6.55273 23.291 1.72852 18.4668 1.72852 12.5098C1.72852 6.55273 6.55273 1.71875 12.5098 1.71875C18.4668 1.71875 23.3008 6.55273 23.3008 12.5098C23.3008 18.4668 18.4668 23.291 12.5098 23.291ZM11.6504 24.375L11.6504 27.5781L13.3789 27.5781L13.3789 24.375ZM6.11328 28.6035L18.9258 28.6035C19.3359 28.6035 19.5996 28.3105 19.5996 27.8906C19.5996 27.0703 18.9453 26.4844 17.8906 26.4844L7.14844 26.4844C6.09375 26.4844 5.43945 27.0703 5.43945 27.8906C5.43945 28.3105 5.70312 28.6035 6.11328 28.6035Z" fill="black" fill-opacity="0.85"/>
  <path d="M9.30664 12.4512L11.8945 9.3457L11.8945 6.04492C11.8945 4.59961 11.1719 3.83789 9.76562 3.83789C7.14844 3.83789 4.53125 6.17188 4.53125 8.4668C4.53125 10.4199 6.19141 11.4551 9.30664 12.4512ZM12.5684 9.29688L15.6738 11.8848L18.9746 11.8848C20.4199 11.8848 21.1816 11.1719 21.1816 9.75586C21.1816 7.13867 18.8477 4.53125 16.5527 4.53125C14.5996 4.53125 13.5645 6.19141 12.5684 9.29688ZM15.7227 12.5586L13.1348 15.6738L13.1348 18.9648C13.1348 20.4102 13.8477 21.1816 15.2637 21.1816C17.8809 21.1816 20.4883 18.8477 20.4883 16.5527C20.4883 14.5898 18.8281 13.5645 15.7227 12.5586ZM12.4609 15.7129L9.3457 13.125L6.05469 13.125C4.60938 13.125 3.83789 13.8477 3.83789 15.2539C3.83789 17.8711 6.17188 20.4883 8.4668 20.4883C10.4297 20.4883 11.4551 18.8281 12.4609 15.7129ZM12.5098 15.9766C14.4336 15.9766 15.9863 14.4238 15.9863 12.5098C15.9863 10.5859 14.4336 9.04297 12.5098 9.04297C10.5957 9.04297 9.04297 10.5859 9.04297 12.5098C9.04297 14.4238 10.5957 15.9766 12.5098 15.9766ZM12.5098 14.3848C11.4746 14.3848 10.6348 13.5449 10.6348 12.5098C10.6348 11.4648 11.4746 10.625 12.5098 10.625C13.5547 10.625 14.3945 11.4648 14.3945 12.5098C14.3945 13.5449 13.5547 14.3848 12.5098 14.3848Z" fill="black" fill-opacity="0.85"/>
 </g>
</svg>
