<?xml version="1.0" encoding="UTF-8"?>
<!--Generator: Apple Native CoreSVG 326-->
<!DOCTYPE svg
PUBLIC "-//W3C//DTD SVG 1.1//EN"
       "http://www.w3.org/Graphics/SVG/1.1/DTD/svg11.dtd">
<svg version="1.1" xmlns="http://www.w3.org/2000/svg" xmlns:xlink="http://www.w3.org/1999/xlink" viewBox="0 0 25.8594 30.127">
 <g>
  <rect height="30.127" opacity="0" width="25.8594" x="0" y="0"/>
  <path d="M12.7539 30.127C20.0586 30.127 25.498 28.5938 25.498 26.0156C25.498 24.4043 23.3887 23.2129 19.9219 22.5195L18.9941 23.9648C22.0508 24.4238 23.877 25.1758 23.877 26.0156C23.877 27.2949 19.375 28.4863 12.7539 28.4863C6.12305 28.4863 1.62109 27.2949 1.62109 26.0156C1.62109 25.1758 3.45703 24.4238 6.51367 23.9648L5.57617 22.5195C2.10938 23.2129 0 24.4043 0 26.0156C0 28.5938 5.43945 30.127 12.7539 30.127ZM4.6875 21.9141L5.9082 24.7559C6.07422 25.127 6.50391 25.1953 6.79688 24.7656L8.32031 22.5391C8.58398 22.1582 8.4668 21.7285 7.96875 21.6406L5.29297 21.1816C4.77539 21.084 4.52148 21.5234 4.6875 21.9141ZM20.8105 21.9141C20.9766 21.5234 20.7324 21.084 20.2051 21.1816L17.5293 21.6406C17.041 21.7285 16.9238 22.1582 17.1875 22.5391L18.7012 24.7656C19.0039 25.1953 19.4336 25.127 19.5996 24.7559Z" fill="black" fill-opacity="0.85"/>
  <path d="M12.0605 7.20703L12.0605 2.74414C12.0605 0.947266 11.1914 0.0390625 9.44336 0.0390625C6.46484 0.0390625 3.36914 2.70508 3.36914 5.2832C3.36914 7.74414 5.69336 9.05273 9.53125 10.4688L10.2148 8.92578C6.86523 7.64648 5 6.86523 5 5.2832C5 3.60352 7.34375 1.66992 9.44336 1.66992C10.2637 1.66992 10.4199 1.81641 10.4199 2.74414L10.4199 7.69531ZM15.5371 9.28711L19.9902 9.28711C21.7871 9.28711 22.7051 8.4082 22.7051 6.68945C22.7051 3.69141 20.0195 0.595703 17.4414 0.595703C15 0.595703 13.6719 2.92969 12.2852 6.76758L13.8184 7.46094C15.0879 4.10156 15.8594 2.2168 17.4414 2.2168C19.1406 2.2168 21.0645 4.57031 21.0645 6.68945C21.0645 7.49023 20.9375 7.63672 19.9902 7.63672L15.0293 7.63672ZM13.457 12.7637L13.457 17.2363C13.457 19.0332 14.3262 19.9316 16.0645 19.9316C19.0527 19.9316 22.1582 17.2656 22.1582 14.6875C22.1582 12.2363 19.8145 10.918 15.9766 9.51172L15.2832 11.0449C18.6328 12.3242 20.5176 13.1055 20.5176 14.6875C20.5176 16.3672 18.1543 18.3105 16.0645 18.291C15.2344 18.291 15.0977 18.1543 15.0977 17.2363L15.0977 12.2754ZM9.96094 10.6641L5.50781 10.6641C3.71094 10.6641 2.82227 11.5625 2.82227 13.291C2.82227 16.2793 5.47852 19.375 8.06641 19.375C10.5176 19.375 11.8262 17.041 13.2324 13.2031L11.6895 12.5098C10.4199 15.8789 9.63867 17.7344 8.06641 17.7344C6.36719 17.7344 4.46289 15.4004 4.46289 13.291C4.46289 12.4512 4.59961 12.3047 5.50781 12.3047L10.4688 12.3047ZM12.7539 13.5254C14.7168 13.5254 16.3086 11.9336 16.3086 9.9707C16.3086 8.01758 14.7168 6.42578 12.7539 6.42578C10.8008 6.42578 9.20898 8.01758 9.20898 9.9707C9.20898 11.9336 10.8008 13.5254 12.7539 13.5254ZM12.7539 11.9141C11.6895 11.9141 10.8203 11.0449 10.8203 9.9707C10.8203 8.90625 11.6895 8.03711 12.7539 8.03711C13.8281 8.03711 14.6973 8.90625 14.6973 9.9707C14.6973 11.0449 13.8281 11.9141 12.7539 11.9141Z" fill="black" fill-opacity="0.85"/>
 </g>
</svg>
