<?xml version="1.0" encoding="UTF-8"?>
<!--Generator: Apple Native CoreSVG 326-->
<!DOCTYPE svg
PUBLIC "-//W3C//DTD SVG 1.1//EN"
       "http://www.w3.org/Graphics/SVG/1.1/DTD/svg11.dtd">
<svg version="1.1" xmlns="http://www.w3.org/2000/svg" xmlns:xlink="http://www.w3.org/1999/xlink" viewBox="0 0 20.3027 28.6035">
 <g>
  <rect height="28.6035" opacity="0" width="20.3027" x="0" y="0"/>
  <path d="M4.50195 28.6035L15.4395 28.6035C15.8496 28.6035 16.1133 28.3105 16.1133 27.8906C16.1133 27.0703 15.459 26.4844 14.4043 26.4844L10.8398 26.4844L10.8398 19.9023C15.9473 19.4629 19.9414 15.1855 19.9414 9.9707C19.9414 4.46289 15.4785 0 9.9707 0C4.46289 0 0 4.46289 0 9.9707C0 15.1953 4.00391 19.4629 9.11133 19.9023L9.11133 26.4844L5.53711 26.4844C4.48242 26.4844 3.82812 27.0703 3.82812 27.8906C3.82812 28.3105 4.0918 28.6035 4.50195 28.6035ZM9.98047 18.3594C5.35156 18.3594 1.5918 14.5996 1.5918 9.9707C1.5918 5.3418 5.35156 1.58203 9.98047 1.58203C14.6094 1.58203 18.3691 5.3418 18.3691 9.9707C18.3691 14.5996 14.6094 18.3594 9.98047 18.3594Z" fill="black" fill-opacity="0.85"/>
  <path d="M7.51953 9.94141L9.50195 7.5293L9.50195 4.88281C9.50195 3.75977 8.93555 3.14453 7.83203 3.14453C5.77148 3.14453 3.71094 4.99023 3.71094 6.79688C3.71094 8.34961 5.03906 9.16016 7.51953 9.94141ZM10.0098 7.5L12.4219 9.48242L15.0684 9.48242C16.1914 9.48242 16.8066 8.92578 16.8066 7.82227C16.8066 5.75195 14.9609 3.70117 13.1543 3.70117C11.6016 3.70117 10.791 5.01953 10.0098 7.5ZM12.4512 10L10.4688 12.4121L10.4688 15.0488C10.4688 16.1816 11.0254 16.7871 12.1289 16.7871C14.1992 16.7871 16.25 14.9512 16.25 13.1445C16.25 11.582 14.9316 10.7812 12.4512 10ZM9.95117 12.4316L7.53906 10.4492L4.90234 10.4492C3.76953 10.4492 3.16406 11.0156 3.16406 12.1191C3.16406 14.1797 5 16.2402 6.80664 16.2402C8.36914 16.2402 9.16992 14.9121 9.95117 12.4316ZM12.7637 9.9707C12.7637 8.4375 11.5137 7.1875 9.98047 7.1875C8.44727 7.1875 7.19727 8.4375 7.19727 9.9707C7.19727 11.5039 8.44727 12.7539 9.98047 12.7539C11.5137 12.7539 12.7637 11.5039 12.7637 9.9707ZM9.98047 11.4551C9.16016 11.4551 8.49609 10.791 8.49609 9.9707C8.49609 9.15039 9.16016 8.48633 9.98047 8.48633C10.8008 8.48633 11.4648 9.15039 11.4648 9.9707C11.4648 10.791 10.8008 11.4551 9.98047 11.4551Z" fill="black" fill-opacity="0.85"/>
 </g>
</svg>
