<?xml version="1.0" encoding="UTF-8"?>
<!--Generator: Apple Native CoreSVG 326-->
<!DOCTYPE svg
PUBLIC "-//W3C//DTD SVG 1.1//EN"
       "http://www.w3.org/Graphics/SVG/1.1/DTD/svg11.dtd">
<svg version="1.1" xmlns="http://www.w3.org/2000/svg" xmlns:xlink="http://www.w3.org/1999/xlink" viewBox="0 0 27.168 26.8262">
 <g>
  <rect height="26.8262" opacity="0" width="27.168" x="0" y="0"/>
  <path d="M12.5098 9.52148L12.5098 3.48633C12.5098 1.25 11.2988 0 9.14062 0C5.13672 0.00976562 1.02539 3.58398 1.02539 7.17773C1.02539 10.3516 3.88672 12.1387 9.10156 13.6914L9.77539 12.1191C5.12695 10.7422 2.67578 9.48242 2.67578 7.17773C2.67578 4.47266 6.03516 1.65039 9.14062 1.65039C10.3711 1.65039 10.8691 2.17773 10.8691 3.48633L10.8691 9.95117ZM17.2949 12.5098L23.3301 12.5098C25.5566 12.5098 26.8066 11.3086 26.8066 9.15039C26.8066 5.14648 23.2324 1.02539 19.6387 1.02539C16.4648 1.02539 14.668 3.89648 13.125 9.11133L14.6973 9.78516C16.0742 5.13672 17.334 2.68555 19.6387 2.68555C22.3438 2.68555 25.1562 6.05469 25.1562 9.15039C25.1562 10.3906 24.6387 10.8691 23.3301 10.8691L16.8555 10.8691ZM14.2969 17.3047L14.2969 23.3398C14.2969 25.5664 15.498 26.8262 17.6562 26.8262C21.6699 26.8262 25.7812 23.2422 25.7812 19.6484C25.7812 16.4746 22.9102 14.6777 17.7051 13.1348L17.0312 14.707C21.6699 16.084 24.1309 17.3438 24.1309 19.6484C24.1309 22.3535 20.7617 25.166 17.6562 25.1562C16.4258 25.1562 15.9473 24.6484 15.9473 23.3398L15.9473 16.875ZM9.51172 14.2969L3.4668 14.2969C1.24023 14.2969 0 15.5176 0 17.666C0 21.6797 3.57422 25.791 7.16797 25.791C10.332 25.791 12.1289 22.9199 13.6719 17.7148L12.1094 17.041C10.7324 21.6797 9.47266 24.1309 7.16797 24.1309C4.46289 24.1309 1.65039 20.7715 1.65039 17.666C1.65039 16.4355 2.16797 15.9473 3.4668 15.9473L9.94141 15.9473ZM13.3984 18.0762C15.9766 18.0762 18.0664 15.9766 18.0664 13.4082C18.0664 10.8301 15.9766 8.74023 13.3984 8.74023C10.8301 8.74023 8.73047 10.8301 8.73047 13.4082C8.73047 15.9766 10.8301 18.0762 13.3984 18.0762ZM13.3984 16.4062C11.7383 16.4062 10.4004 15.0684 10.4004 13.4082C10.4004 11.748 11.7383 10.4004 13.3984 10.4004C15.0586 10.4004 16.3965 11.748 16.3965 13.4082C16.3965 15.0684 15.0586 16.4062 13.3984 16.4062ZM13.3984 15.2051C14.3945 15.2051 15.1953 14.3945 15.1953 13.4082C15.1953 12.4121 14.3945 11.6113 13.3984 11.6113C12.4121 11.6113 11.6016 12.4121 11.6016 13.4082C11.6016 14.3945 12.4121 15.2051 13.3984 15.2051Z" fill="black" fill-opacity="0.85"/>
 </g>
</svg>
