<?xml version="1.0" encoding="UTF-8"?>
<!--Generator: Apple Native CoreSVG 326-->
<!DOCTYPE svg
PUBLIC "-//W3C//DTD SVG 1.1//EN"
       "http://www.w3.org/Graphics/SVG/1.1/DTD/svg11.dtd">
<svg version="1.1" xmlns="http://www.w3.org/2000/svg" xmlns:xlink="http://www.w3.org/1999/xlink" viewBox="0 0 26.6016 30.7129">
 <g>
  <rect height="30.7129" opacity="0" width="26.6016" x="0" y="0"/>
  <path d="M13.1152 30.7129C16.4648 30.7129 17.002 28.1543 19.1016 28.1543C21.25 28.1543 21.582 30.7129 25.4102 30.7129L25.4688 30.7129C25.8984 30.7129 26.2402 30.3711 26.2402 29.9512C26.2402 29.5215 25.8984 29.1797 25.4688 29.1797L25.4102 29.1797C24.0137 29.1797 23.2227 28.5938 22.2656 27.9297C21.4453 27.334 20.459 26.6309 19.1016 26.6309C17.6953 26.6309 16.6992 27.373 15.8789 27.9883C15.0098 28.6426 14.2871 29.1797 13.1152 29.1797C11.9434 29.1797 11.2305 28.6426 10.3613 27.9883C9.54102 27.373 8.53516 26.6309 7.13867 26.6309C5.77148 26.6309 4.78516 27.334 3.96484 27.9297C3.01758 28.5938 2.22656 29.1797 0.830078 29.1797L0.761719 29.1797C0.341797 29.1797 0 29.5215 0 29.9512C0 30.3711 0.341797 30.7129 0.761719 30.7129L0.830078 30.7129C4.64844 30.7129 4.99023 28.1543 7.13867 28.1543C9.23828 28.1543 9.77539 30.7129 13.1152 30.7129ZM13.1152 27.8223C13.7891 27.8223 14.1406 27.5977 15.0586 26.8945C15.8789 26.2891 17.2461 25.2637 19.1016 25.2637C20.1953 25.2637 21.084 25.5664 22.0703 26.1621L25.625 19.707C26.6602 17.8613 26.2012 16.5527 24.4043 15.7129L15.4297 11.5918C14.8633 11.3379 14.1309 10.957 13.1152 10.957C12.1094 10.957 11.377 11.3379 10.8105 11.5918L1.83594 15.7129C0.0292969 16.5527-0.419922 17.8613 0.605469 19.707L4.16016 26.1621C5.15625 25.5664 6.04492 25.2637 7.13867 25.2637C8.98438 25.2637 10.3613 26.2891 11.1816 26.8945C12.0996 27.5977 12.4512 27.8223 13.1152 27.8223ZM13.1152 9.4043C14.248 9.4043 15.0098 9.6875 16.0742 10.1758L22.6367 13.1934L21.543 5.21484C21.3574 3.81836 20.4883 2.89062 19.1113 2.89062L7.14844 2.89062C5.77148 2.89062 4.93164 3.81836 4.7168 5.41016L3.62305 13.1836L10.166 10.1758C11.2305 9.6875 11.9922 9.4043 13.1152 9.4043ZM7.60742 8.0957C7.32422 8.0957 7.13867 7.90039 7.13867 7.61719L7.13867 5.54688C7.13867 5.26367 7.32422 5.05859 7.60742 5.05859L11.5625 5.05859C11.9141 5.05859 12.1387 5.26367 12.1387 5.54688L12.1387 7.61719C12.1387 7.90039 11.9141 8.0957 11.5625 8.0957ZM14.5801 8.0957C14.2969 8.0957 14.1113 7.90039 14.1113 7.61719L14.1113 5.54688C14.1113 5.26367 14.2969 5.05859 14.5801 5.05859L18.5449 5.05859C18.8867 5.05859 19.1113 5.26367 19.1113 5.54688L19.1113 7.61719C19.1113 7.90039 18.8867 8.0957 18.5449 8.0957ZM7.98828 3.24219L18.2617 3.24219L18.2617 2.08008C18.2617 0.908203 17.5781 0.214844 16.3965 0.214844L9.85352 0.214844C8.67188 0.214844 7.98828 0.908203 7.98828 2.08008Z" fill="black" fill-opacity="0.85"/>
 </g>
</svg>
