<?xml version="1.0" encoding="UTF-8"?>
<!--Generator: Apple Native CoreSVG 326-->
<!DOCTYPE svg
PUBLIC "-//W3C//DTD SVG 1.1//EN"
       "http://www.w3.org/Graphics/SVG/1.1/DTD/svg11.dtd">
<svg version="1.1" xmlns="http://www.w3.org/2000/svg" xmlns:xlink="http://www.w3.org/1999/xlink" viewBox="0 0 25.8008 25.459">
 <g>
  <rect height="25.459" opacity="0" width="25.8008" x="0" y="0"/>
  <path d="M25.4395 12.7246C25.4395 19.7266 19.7266 25.4395 12.7148 25.4395C5.71289 25.4395 0 19.7266 0 12.7246C0 5.71289 5.71289 0 12.7148 0C19.7266 0 25.4395 5.71289 25.4395 12.7246ZM10.6836 3.35938L10.3027 3.78906C10.0977 4.02344 10.1074 4.30664 10.3418 4.50195L14.1211 7.92969C14.3555 8.125 14.6094 8.0957 14.8535 7.87109L15.2734 8.23242L12.0898 11.4062C11.7285 11.7773 11.5137 12.2168 11.4648 12.7539L10.8301 19.6484L8.04688 19.6484C7.62695 19.6484 7.31445 19.9707 7.31445 20.3906C7.31445 20.791 7.62695 21.123 8.04688 21.123L11.5039 21.123C11.9531 21.123 12.1582 20.9082 12.2363 20.5176L12.8516 17.0801L15.752 17.0801L15.1855 20.2539C15.1074 20.7617 15.4297 21.0938 15.8105 21.123C16.1621 21.1523 16.5527 20.9863 16.6309 20.5176L17.3535 16.5527C17.4512 15.9961 17.1289 15.6641 16.7188 15.6055L14.1406 15.332L14.3652 12.8809C14.3848 12.7539 14.4727 12.6758 14.5801 12.6758L16.6406 12.6758C17.0508 12.6758 17.3828 12.334 17.3828 11.9336L17.3828 7.91016C17.3828 7.59766 17.1973 7.32422 16.9141 7.22656C16.6406 7.11914 16.3477 7.16797 16.123 7.37305L15.6641 7.8418L15.2539 7.4707C15.4785 7.22656 15.4395 6.93359 15.2246 6.73828L11.4258 3.31055C11.1816 3.10547 10.8789 3.125 10.6836 3.35938ZM15.9277 11.2109L14.3848 11.2109L15.9277 9.66797ZM9.92188 8.7207C9.92188 9.58984 10.6152 10.2832 11.4844 10.2832C12.334 10.2832 13.0273 9.58984 13.0273 8.7207C13.0273 7.87109 12.334 7.17773 11.4844 7.17773C10.6152 7.17773 9.92188 7.87109 9.92188 8.7207Z" fill="black" fill-opacity="0.85"/>
 </g>
</svg>
