<?xml version="1.0" encoding="UTF-8"?>
<!--Generator: Apple Native CoreSVG 326-->
<!DOCTYPE svg
PUBLIC "-//W3C//DTD SVG 1.1//EN"
       "http://www.w3.org/Graphics/SVG/1.1/DTD/svg11.dtd">
<svg version="1.1" xmlns="http://www.w3.org/2000/svg" xmlns:xlink="http://www.w3.org/1999/xlink" viewBox="0 0 18.6476 31.4941">
 <g>
  <rect height="31.4941" opacity="0" width="18.6476" x="0" y="0"/>
  <path d="M10.2173 5.41992C11.7017 5.41992 12.9127 4.20898 12.9127 2.69531C12.9127 1.21094 11.7017 0 10.2173 0C8.71344 0 7.5025 1.21094 7.5025 2.69531C7.5025 4.20898 8.71344 5.41992 10.2173 5.41992ZM13.108 12.7148C13.6255 13.2422 14.6021 13.2129 15.0513 12.5L18.0591 7.67578C18.9869 6.19141 16.8091 5 15.9595 6.36719L13.7818 9.87305L12.063 8.1543C10.4224 6.52344 8.62555 6.19141 6.12555 6.47461L1.71148 6.96289C1.14508 7.03125 0.695859 7.49023 0.637265 8.03711L0.0122649 12.9004C-0.192813 14.4629 2.23883 14.873 2.45367 13.1934L2.95172 9.31641L5.25641 9.05273C5.57867 9.02344 5.80328 9.23828 5.75445 9.59961L5.16851 14.3555C4.88531 16.6113 6.18414 17.9102 8.4107 17.7637L12.9712 17.4316L11.6138 22.4023C11.1451 24.0625 13.567 24.6582 13.9966 23.0371L15.7837 16.416C16.0181 15.5762 15.442 14.8535 14.5045 14.8535L9.80719 14.8535L10.3931 10.8008C10.4517 10.3906 10.8033 10.3809 11.0377 10.6348ZM6.38922 18.6523L6.09625 23.1055L3.77203 28.9258C3.36187 29.9609 4.10406 30.6934 4.87555 30.6934C5.35406 30.6934 5.83258 30.4199 6.07672 29.8047L8.45953 23.8379C8.48883 23.7402 8.51812 23.6523 8.53766 23.5547L9.23101 18.877L8.49859 18.9258C7.71734 18.9746 7.00445 18.877 6.38922 18.6523Z" fill="black" fill-opacity="0.85"/>
 </g>
</svg>
