<?xml version="1.0" encoding="UTF-8"?>
<!--Generator: Apple Native CoreSVG 326-->
<!DOCTYPE svg
PUBLIC "-//W3C//DTD SVG 1.1//EN"
       "http://www.w3.org/Graphics/SVG/1.1/DTD/svg11.dtd">
<svg version="1.1" xmlns="http://www.w3.org/2000/svg" xmlns:xlink="http://www.w3.org/1999/xlink" viewBox="0 0 25.8008 25.459">
 <g>
  <rect height="25.459" opacity="0" width="25.8008" x="0" y="0"/>
  <path d="M12.7148 25.4395C19.7363 25.4395 25.4395 19.7461 25.4395 12.7246C25.4395 5.70312 19.7363 0 12.7148 0C5.69336 0 0 5.70312 0 12.7246C0 19.7461 5.69336 25.4395 12.7148 25.4395ZM12.7148 23.623C6.68945 23.623 1.81641 18.75 1.81641 12.7246C1.81641 6.69922 6.68945 1.82617 12.7148 1.82617C18.7402 1.82617 23.6133 6.69922 23.6133 12.7246C23.6133 18.75 18.7402 23.623 12.7148 23.623Z" fill="black" fill-opacity="0.85"/>
  <path d="M9.49219 21.2598C9.89258 21.2598 10.2051 20.9473 10.2051 20.5664L10.2051 17.2461L12.1484 15.1758C12.1777 15.127 12.2461 15.127 12.2754 15.1758L14.1406 17.666L15.7227 20.8203C16.1621 21.6992 17.3926 21.0742 16.9727 20.2246L13.7207 13.7012C13.4277 13.125 13.2812 12.334 13.2129 11.543C13.1836 11.2793 13.3594 11.1621 13.5938 11.2793L14.873 11.9141L16.0645 14.2969C16.4746 15.1465 17.7539 14.5703 17.2949 13.6719L16.0059 11.0938C15.9277 10.957 15.8301 10.8594 15.6934 10.7812L13.8477 9.85352C13.3008 9.58008 12.7344 9.47266 12.207 9.3457C11.6113 9.18945 11.084 9.00391 10.7129 8.49609L9.87305 7.26562L9.87305 4.86328C9.87305 4.49219 9.56055 4.16992 9.16992 4.16992C8.78906 4.16992 8.47656 4.49219 8.47656 4.86328L8.47656 7.49023C8.47656 7.64648 8.50586 7.75391 8.60352 7.89062L10.0684 10.0098C10.2148 10.2051 10.293 10.3223 10.3223 10.6543C10.3809 11.4258 10.5469 12.8516 10.8594 13.8965L8.94531 16.5625C8.84766 16.6895 8.81836 16.8262 8.81836 16.9629L8.81836 20.5664C8.81836 20.9473 9.11133 21.2598 9.49219 21.2598ZM12.7051 8.52539C13.5254 8.52539 14.209 7.85156 14.209 7.01172C14.209 6.18164 13.5254 5.50781 12.7051 5.50781C11.8652 5.50781 11.1816 6.18164 11.1816 7.01172C11.1816 7.85156 11.8652 8.52539 12.7051 8.52539Z" fill="black" fill-opacity="0.85"/>
 </g>
</svg>
