<?xml version="1.0" encoding="UTF-8"?>
<!--Generator: Apple Native CoreSVG 326-->
<!DOCTYPE svg
PUBLIC "-//W3C//DTD SVG 1.1//EN"
       "http://www.w3.org/Graphics/SVG/1.1/DTD/svg11.dtd">
<svg version="1.1" xmlns="http://www.w3.org/2000/svg" xmlns:xlink="http://www.w3.org/1999/xlink" viewBox="0 0 30.293 29.0527">
 <g>
  <rect height="29.0527" opacity="0" width="30.293" x="0" y="0"/>
  <path d="M22.6562 14.248C24.1504 14.248 25.3613 13.0371 25.3613 11.543C25.3613 10.0391 24.1504 8.83789 22.6562 8.83789C21.1621 8.83789 19.9512 10.0391 19.9512 11.543C19.9512 13.0371 21.1621 14.248 22.6562 14.248ZM14.1113 24.0039L18.9258 24.0039L24.0039 18.9355C24.248 18.6816 24.6484 18.6914 24.8926 18.9355L26.9727 21.0156L24.8242 23.1738C23.7109 24.2871 25.3906 25.9766 26.5039 24.8633L29.5117 21.8555C30.0098 21.3672 29.9902 20.6348 29.5117 20.1562L26.0156 16.6699C25.332 15.9863 24.4336 15.5957 23.4766 15.5957L14.375 15.5957L14.375 18.0078L17.4023 18.0078C17.6172 18.0078 17.7246 18.2422 17.5684 18.3887L14.1113 21.8555ZM1.8457 24.0039L14.7852 24.0039L14.7852 1.28906C14.7852 0.380859 13.457-0.0195312 12.8711 1.03516L1.00586 22.3828C0.527344 23.252 1.00586 24.0039 1.8457 24.0039ZM2.57812 22.7734C2.37305 22.7734 2.32422 22.5879 2.39258 22.4707L13.1836 3.02734C13.3008 2.82227 13.5547 2.88086 13.5547 3.07617L13.5547 22.7734ZM0.625 29.0527L1.8457 29.0527C5.14648 29.0527 5.94727 26.9727 8.31055 26.9727C10.6836 26.9727 11.4844 29.0527 14.7852 29.0527C18.0762 29.0527 18.877 26.9727 21.25 26.9727C23.6133 26.9727 24.4141 29.0527 27.7148 29.0527L28.9355 29.0527C29.2871 29.0527 29.5605 28.7793 29.5605 28.4375C29.5605 28.0859 29.2871 27.8125 28.9355 27.8125L27.7148 27.8125C25.2441 27.8125 24.4141 25.7422 21.25 25.7422C18.0859 25.7422 17.2461 27.8125 14.7852 27.8125C12.3145 27.8125 11.4746 25.7422 8.31055 25.7422C5.14648 25.7422 4.31641 27.8125 1.8457 27.8125L0.625 27.8125C0.273438 27.8125 0 28.0859 0 28.4375C0 28.7793 0.273438 29.0527 0.625 29.0527Z" fill="black" fill-opacity="0.85"/>
 </g>
</svg>
