<?xml version="1.0" encoding="UTF-8"?>
<!--Generator: Apple Native CoreSVG 326-->
<!DOCTYPE svg
PUBLIC "-//W3C//DTD SVG 1.1//EN"
       "http://www.w3.org/Graphics/SVG/1.1/DTD/svg11.dtd">
<svg version="1.1" xmlns="http://www.w3.org/2000/svg" xmlns:xlink="http://www.w3.org/1999/xlink" viewBox="0 0 27.207 30.7715">
 <g>
  <rect height="30.7715" opacity="0" width="27.207" x="0" y="0"/>
  <path d="M20.2734 5.53711C21.7578 5.53711 22.9785 4.31641 22.9785 2.83203C22.9785 1.34766 21.7578 0.126953 20.2734 0.126953C18.7891 0.126953 17.5684 1.34766 17.5684 2.83203C17.5684 4.31641 18.7891 5.53711 20.2734 5.53711ZM15.4492 22.998C16.1621 22.998 16.7188 22.4219 16.7188 21.7285L16.7188 15.7617C16.7188 15.4199 16.5918 15.0781 16.3672 14.8633L13.0859 11.6016L16.0059 8.66211C16.1914 8.47656 16.4941 8.47656 16.6797 8.66211L18.7305 10.7129C18.9551 10.9473 19.2871 11.0742 19.6094 11.0742L25.5762 11.0742C26.2891 11.0742 26.8457 10.5176 26.8457 9.80469C26.8457 9.11133 26.2891 8.54492 25.5762 8.54492L20.1367 8.54492L15.7031 4.08203C15.1367 3.51562 14.3262 3.18359 13.5352 3.18359L8.85742 3.18359C7.59766 3.18359 7.22656 4.58008 8.01758 5.37109L10.0977 7.44141L8.42773 9.08203C7.38281 10.1172 7.38281 11.875 8.42773 12.9102L10.625 15.0977L10.625 22.0215C10.625 22.7148 11.1816 23.291 11.8945 23.291C12.5879 23.291 13.1641 22.7148 13.1641 22.0215L13.1641 15.2637L14.1797 16.2793L14.1797 21.7285C14.1797 22.4219 14.7559 22.998 15.4492 22.998ZM0.615234 8.74023L12.5977 8.74023L12.5977 7.5L0.615234 7.5C0.283203 7.5 0 7.7832 0 8.125C0 8.45703 0.283203 8.74023 0.615234 8.74023ZM26.1719 22.3145C26.5039 22.3145 26.7871 22.0312 26.7871 21.6992L26.7871 9.86328L25.5469 9.86328L25.5469 21.6992C25.5469 22.0312 25.8301 22.3145 26.1719 22.3145ZM20.166 30.7715C20.5078 30.7715 20.7812 30.498 20.7812 30.1562C20.7812 29.8145 20.5078 29.541 20.166 29.541C19.2969 29.541 19.043 29.3945 18.3105 28.6621L5.11719 15.4688C4.86328 15.2148 4.48242 15.2148 4.24805 15.459C4.00391 15.7031 4.00391 16.084 4.24805 16.3281L17.5879 29.6777C18.3984 30.4785 19.2285 30.7715 20.166 30.7715ZM23.3594 30.1074C23.7109 30.1074 23.9844 29.834 23.9844 29.4922C23.9844 29.1406 23.7109 28.8672 23.3594 28.8672C22.4902 28.8672 22.2363 28.7305 21.5137 27.998L8.32031 14.8047C8.05664 14.541 7.67578 14.541 7.44141 14.7949C7.19727 15.0391 7.19727 15.4199 7.44141 15.6641L20.791 29.0039C21.6016 29.8145 22.4219 30.1074 23.3594 30.1074Z" fill="black" fill-opacity="0.85"/>
 </g>
</svg>
