<?xml version="1.0" encoding="UTF-8"?>
<!--Generator: Apple Native CoreSVG 326-->
<!DOCTYPE svg
PUBLIC "-//W3C//DTD SVG 1.1//EN"
       "http://www.w3.org/Graphics/SVG/1.1/DTD/svg11.dtd">
<svg version="1.1" xmlns="http://www.w3.org/2000/svg" xmlns:xlink="http://www.w3.org/1999/xlink" viewBox="0 0 37.9802 24.834">
 <g>
  <rect height="24.834" opacity="0" width="37.9802" x="0" y="0"/>
  <path d="M18.3407 7.86133L18.3407 10.8789C18.3407 11.748 18.9852 12.3926 19.8446 12.3926L22.2274 12.3926C23.0965 12.3926 23.7313 11.748 23.7313 10.8789L23.7313 7.86133C23.7313 6.99219 23.0965 6.34766 22.2274 6.34766L19.8446 6.34766C18.9852 6.34766 18.3407 6.99219 18.3407 7.86133ZM25.2743 7.86133L25.2743 10.8789C25.2743 11.748 25.9188 12.3926 26.7977 12.3926L29.1707 12.3926C30.0399 12.3926 30.6746 11.748 30.6746 10.8789L30.6746 7.86133C30.6746 6.99219 30.0399 6.34766 29.1707 6.34766L26.7977 6.34766C25.9188 6.34766 25.2743 6.99219 25.2743 7.86133ZM32.2079 7.86133L32.2079 10.8789C32.2079 11.748 32.8524 12.3926 33.7313 12.3926L36.1043 12.3926C36.9735 12.3926 37.618 11.748 37.618 10.8789L37.618 7.86133C37.618 6.99219 36.9735 6.34766 36.1043 6.34766L33.7313 6.34766C32.8524 6.34766 32.2079 6.99219 32.2079 7.86133ZM18.3407 16.709L18.3407 19.7266C18.3407 20.5957 18.9852 21.2402 19.8446 21.2402L22.2274 21.2402C23.0965 21.2402 23.7313 20.5957 23.7313 19.7266L23.7313 16.709C23.7313 15.8398 23.0965 15.2051 22.2274 15.2051L19.8446 15.2051C18.9852 15.2051 18.3407 15.8398 18.3407 16.709ZM25.2743 16.709L25.2743 19.7266C25.2743 20.5957 25.9188 21.2402 26.7977 21.2402L29.1707 21.2402C30.0399 21.2402 30.6746 20.5957 30.6746 19.7266L30.6746 16.709C30.6746 15.8398 30.0399 15.2051 29.1707 15.2051L26.7977 15.2051C25.9188 15.2051 25.2743 15.8398 25.2743 16.709ZM32.2079 16.709L32.2079 19.7266C32.2079 20.5957 32.8524 21.2402 33.7313 21.2402L36.1043 21.2402C36.9735 21.2402 37.618 20.5957 37.618 19.7266L37.618 16.709C37.618 15.8398 36.9735 15.2051 36.1043 15.2051L33.7313 15.2051C32.8524 15.2051 32.2079 15.8398 32.2079 16.709ZM25.45 4.50195L30.4793 4.50195C30.8211 4.50195 30.8993 4.13086 30.6258 3.94531L28.3309 2.37305C28.0868 2.2168 27.8426 2.2168 27.5985 2.37305L25.3036 3.94531C25.0301 4.13086 25.1082 4.50195 25.45 4.50195Z" fill="black" fill-opacity="0.85"/>
  <path d="M7.15902 5.48828C8.66293 5.48828 9.87387 4.22852 9.87387 2.76367C9.87387 1.24023 8.66293 0 7.15902 0C5.62582 0 4.43441 1.24023 4.43441 2.76367C4.43441 4.27734 5.62582 5.48828 7.15902 5.48828ZM1.89535 15.7129L9.74691 7.00195C8.9559 6.69922 8.11605 6.58203 7.15902 6.58203C3.62387 6.58203 1.53402 8.28125 1.53402 11.123C1.53402 11.8164 1.56332 12.7344 1.67074 13.6621ZM12.4129 15.7129L12.6375 13.6621C12.7352 12.7344 12.7743 11.8164 12.7743 11.123C12.7743 9.70703 12.2762 8.56445 11.2704 7.7832L4.98129 14.7852C5.71371 14.6582 6.43637 14.6094 7.15902 14.6094C8.8973 14.6094 10.6356 14.8438 12.4129 15.7129ZM4.14144 24.7754C4.85433 24.668 5.34262 24.1504 5.24496 23.2617L4.74691 18.7012L9.5516 18.7012L9.07308 23.2617C8.97543 24.1504 9.44418 24.668 10.1668 24.7754C10.909 24.8438 11.4852 24.3848 11.5731 23.5059L12.2176 17.4609C10.6161 16.543 8.85824 16.1914 7.15902 16.1914C5.45004 16.1914 3.68246 16.543 2.11019 17.4609L2.73519 23.5059C2.82308 24.3848 3.38949 24.8438 4.14144 24.7754ZM11.2704 7.77344L13.6141 5.16602C13.995 4.72656 13.9657 4.24805 13.5848 3.92578C13.2332 3.61328 12.7743 3.60352 12.3739 4.0625L9.74691 7.00195C10.2938 7.2168 10.8114 7.48047 11.2704 7.77344ZM0.362147 16.6406C-0.0675404 16.9531-0.077306 17.4414 0.137538 17.7734C0.33285 18.1152 0.772303 18.2812 1.23129 17.998C1.52426 17.8027 1.79769 17.627 2.11019 17.4609L1.89535 15.7129C1.33871 15.9668 0.830897 16.2695 0.362147 16.6406ZM13.9559 16.6406C13.4774 16.2695 12.9793 15.9668 12.4129 15.7129L12.2079 17.4609C12.5106 17.627 12.7938 17.8027 13.0868 17.998C13.536 18.2812 13.9657 18.125 14.1707 17.793C14.3856 17.4609 14.3856 16.9629 13.9559 16.6406Z" fill="black" fill-opacity="0.85"/>
 </g>
</svg>
