<?xml version="1.0" encoding="UTF-8"?>
<!--Generator: Apple Native CoreSVG 326-->
<!DOCTYPE svg
PUBLIC "-//W3C//DTD SVG 1.1//EN"
       "http://www.w3.org/Graphics/SVG/1.1/DTD/svg11.dtd">
<svg version="1.1" xmlns="http://www.w3.org/2000/svg" xmlns:xlink="http://www.w3.org/1999/xlink" viewBox="0 0 20.8496 30.0488">
 <g>
  <rect height="30.0488" opacity="0" width="20.8496" x="0" y="0"/>
  <path d="M9.91211 5.97656C11.3965 5.97656 12.6074 4.76562 12.6074 3.26172C12.6074 1.77734 11.3965 0.566406 9.91211 0.566406C8.4082 0.566406 7.19727 1.77734 7.19727 3.26172C7.19727 4.76562 8.4082 5.97656 9.91211 5.97656ZM1.26953 29.7656C1.80664 30.0488 2.60742 29.9316 2.96875 29.2676L6.09375 23.6426L7.94922 19.4824C7.97852 19.4043 8.08594 19.3652 8.16406 19.4336L13.125 23.0371L13.125 28.6523C13.125 29.3457 13.6914 29.9023 14.3848 29.9023C15.0781 29.9023 15.6348 29.3457 15.6348 28.6523L15.6348 22.4805C15.6348 22.1289 15.5273 21.7578 15.2539 21.4941L10.0879 16.6113L10.5664 12.6758C10.5762 12.5391 10.7715 12.5195 10.8203 12.6465L11.9727 15.3809C12.1777 15.8594 12.6172 16.1523 13.125 16.1523L18.4375 16.1523C19.1309 16.1523 19.6875 15.5957 19.6875 14.9121C19.6875 14.209 19.1309 13.6523 18.4375 13.6523L13.9453 13.6523L12.1582 9.44336C11.6895 8.35938 10.9961 7.75391 9.41406 7.31445L8.69141 7.10938C6.97266 6.62109 5.80078 6.5625 4.41406 7.1582L2.50977 7.97852L2.50977 3.33984C2.50977 2.65625 1.93359 2.09961 1.25 2.09961C0.556641 2.09961 0 2.65625 0 3.33984L0 10.0293C0 10.9277 0.927734 11.4062 1.74805 11.0547L5.29297 9.50195C5.44922 9.44336 5.5957 9.54102 5.56641 9.70703L3.78906 22.6367L0.771484 28.0566C0.449219 28.6523 0.654297 29.4531 1.26953 29.7656ZM17.666 11.6992L18.8965 11.6992L18.8965 0.615234C18.8965 0.273438 18.623 0 18.2812 0C17.9297 0 17.666 0.273438 17.666 0.615234ZM16.5527 12.4902L20.0098 12.4902C20.4297 12.4902 20.5664 12.1484 20.4492 11.7969C20.1172 10.8496 19.2676 10.1953 18.2812 10.1953C17.2852 10.1953 16.4355 10.8496 16.1133 11.7969C15.9961 12.1484 16.123 12.4902 16.5527 12.4902Z" fill="black" fill-opacity="0.85"/>
 </g>
</svg>
