<?xml version="1.0" encoding="UTF-8"?>
<!--Generator: Apple Native CoreSVG 326-->
<!DOCTYPE svg
PUBLIC "-//W3C//DTD SVG 1.1//EN"
       "http://www.w3.org/Graphics/SVG/1.1/DTD/svg11.dtd">
<svg version="1.1" xmlns="http://www.w3.org/2000/svg" xmlns:xlink="http://www.w3.org/1999/xlink" viewBox="0 0 25.8008 25.459">
 <g>
  <rect height="25.459" opacity="0" width="25.8008" x="0" y="0"/>
  <path d="M25.4395 12.7246C25.4395 19.7266 19.7266 25.4395 12.7148 25.4395C5.71289 25.4395 0 19.7266 0 12.7246C0 5.71289 5.71289 0 12.7148 0C19.7266 0 25.4395 5.71289 25.4395 12.7246ZM11.5234 7.80273C10.8496 7.80273 10.4688 8.04688 10.127 8.47656L8.22266 10.8008C7.76367 11.3574 8.125 12.1582 8.73047 12.1582L10.8203 12.1582L10.8203 13.1738C10.8203 13.8379 11.1914 14.4629 11.7871 14.7754L15.1855 16.6016L15.1855 20.166C15.1855 20.5762 15.5176 20.9082 15.918 20.9082C16.3281 20.9082 16.6504 20.5762 16.6504 20.166L16.6504 16.1328C16.6504 15.957 16.5527 15.7031 16.3281 15.5566L13.7305 13.8379L13.7305 9.43359C13.7305 9.32617 13.8086 9.24805 13.9062 9.24805L19.5605 9.24805C19.9707 9.24805 20.2832 8.91602 20.2832 8.52539C20.2832 8.13477 19.9707 7.80273 19.5605 7.80273ZM10.5469 17.2168L7.79297 19.6191C7.5 19.8828 7.46094 20.3613 7.73438 20.6543C8.00781 20.957 8.45703 20.9863 8.76953 20.7031L11.6211 18.2227C11.7676 18.0957 11.8164 18.0371 11.8652 17.8906L12.666 15.9277L11.5039 15.293C11.3184 15.1953 11.1914 15.1074 11.1523 15.0684ZM10.8691 10.7617L10.0879 10.7617L10.8691 9.78516ZM11.0938 5.44922C11.0938 6.30859 11.7871 7.02148 12.6562 7.02148C13.5059 7.02148 14.209 6.30859 14.209 5.44922C14.209 4.60938 13.5059 3.89648 12.6562 3.89648C11.7871 3.89648 11.0938 4.60938 11.0938 5.44922Z" fill="black" fill-opacity="0.85"/>
 </g>
</svg>
