<?xml version="1.0" encoding="UTF-8"?>
<!--Generator: Apple Native CoreSVG 326-->
<!DOCTYPE svg
PUBLIC "-//W3C//DTD SVG 1.1//EN"
       "http://www.w3.org/Graphics/SVG/1.1/DTD/svg11.dtd">
<svg version="1.1" xmlns="http://www.w3.org/2000/svg" xmlns:xlink="http://www.w3.org/1999/xlink" viewBox="0 0 27.3242 31.3016">
 <g>
  <rect height="31.3016" opacity="0" width="27.3242" x="0" y="0"/>
  <path d="M20.4883 12.4135C21.9922 12.4135 23.1934 11.2025 23.1934 9.69863C23.1934 8.20449 21.9922 6.99355 20.4883 6.99355C18.9941 6.99355 17.7832 8.20449 17.7832 9.69863C17.7832 11.2025 18.9941 12.4135 20.4883 12.4135ZM13.3789 0.782612C12.2461-0.379497 10.8984-0.320903 9.12109 1.45644C8.125 2.47207 7.59766 4.53261 7.28516 6.00722L5.41016 7.89199C4.87305 8.4291 4.9707 9.21035 5.47852 9.70839L9.16016 13.3705C9.38477 13.5853 9.6875 13.7221 10.0391 13.7221L12.5098 13.7221C12.5879 13.7221 12.6367 13.8588 12.5586 13.8978L9.98047 15.1771C7.79297 16.2611 7.28516 19.1713 9.51172 20.8119L14.0918 24.1615L11.4258 29.4838C11.1133 30.099 11.3672 30.8705 11.9727 31.1732C12.5391 31.4467 13.3105 31.2807 13.6523 30.6166L16.7285 24.474C16.9824 23.9662 17.0215 23.3412 16.4746 22.7943L12.7734 19.1127L17.5781 16.7103C17.8125 16.5932 18.0762 16.6518 18.252 16.8178L24.834 23.4096C25.332 23.9076 26.1523 23.8685 26.6016 23.4096C27.0801 22.9115 27.0898 22.1205 26.6016 21.6322L16.875 11.9057C16.4355 11.4662 15.9766 11.2221 15.3711 11.2221L10.5469 11.2221L7.1875 7.86269L8.16406 6.87636C9.62891 6.57363 11.7188 6.04628 12.6953 5.04042C14.502 3.26308 14.5605 1.91542 13.3789 0.782612ZM12.5195 1.65175C13.2031 2.31582 12.9785 2.99941 11.8262 4.16152C11.0742 4.91347 9.64844 5.23574 8.65234 5.52871C8.92578 4.49355 9.25781 3.09707 10.0098 2.33535C11.1719 1.17324 11.8262 0.977925 12.5195 1.65175ZM1.25 26.2807L7.5293 26.2807C8.05664 26.2807 8.49609 25.8998 8.7207 25.431L10.0977 22.6771L8.82812 21.7396C8.27148 21.3295 7.91992 20.9682 7.68555 20.5775L6.62109 23.7611L1.25 23.7611C0.566406 23.7611 0 24.3373 0 25.0111C0 25.724 0.566406 26.2807 1.25 26.2807Z" fill="black" fill-opacity="0.85"/>
 </g>
</svg>
