<?xml version="1.0" encoding="UTF-8"?>
<!--Generator: Apple Native CoreSVG 326-->
<!DOCTYPE svg
PUBLIC "-//W3C//DTD SVG 1.1//EN"
       "http://www.w3.org/Graphics/SVG/1.1/DTD/svg11.dtd">
<svg version="1.1" xmlns="http://www.w3.org/2000/svg" xmlns:xlink="http://www.w3.org/1999/xlink" viewBox="0 0 26.9229 25.3613">
 <g>
  <rect height="25.3613" opacity="0" width="26.9229" x="0" y="0"/>
  <path d="M7.57765 5.41016C9.07179 5.41016 10.2827 4.19922 10.2827 2.69531C10.2827 1.21094 9.07179 0 7.57765 0C6.09327 0 4.8628 1.21094 4.8628 2.69531C4.8628 4.19922 6.09327 5.41016 7.57765 5.41016ZM25.898 22.7344L17.7339 18.3203L13.0171 15.0391C12.6655 14.7949 12.3433 14.4922 12.0601 14.1504C12.5386 13.8574 12.7339 13.3105 12.5972 12.7734L11.6694 9.01367C11.3472 7.68555 10.146 6.76758 8.77882 6.76758L5.8296 6.76758C4.93116 6.76758 4.30616 6.98242 3.71046 7.57812L0.360849 10.9277C-0.0493072 11.3379-0.107901 11.9629 0.175302 12.4609L2.51905 16.5918L2.51905 23.8379C2.51905 24.5215 3.09522 25.1074 3.78858 25.1074C4.48194 25.1074 5.05811 24.5215 5.05811 23.8379L5.05811 17.6172L12.2749 18.1348L16.6401 20.6055L24.7066 24.9414C25.4487 25.3418 26.1616 24.9707 26.4253 24.4434C26.7378 23.8281 26.5034 23.0566 25.898 22.7344ZM2.84132 12.041L5.01905 9.84375L6.72804 14.2285L5.38038 14.9805L4.53077 14.9805Z" fill="black" fill-opacity="0.85"/>
 </g>
</svg>
