<?xml version="1.0" encoding="UTF-8"?>
<!--Generator: Apple Native CoreSVG 326-->
<!DOCTYPE svg
PUBLIC "-//W3C//DTD SVG 1.1//EN"
       "http://www.w3.org/Graphics/SVG/1.1/DTD/svg11.dtd">
<svg version="1.1" xmlns="http://www.w3.org/2000/svg" xmlns:xlink="http://www.w3.org/1999/xlink" viewBox="0 0 26.8256 28.7012">
 <g>
  <rect height="28.7012" opacity="0" width="26.8256" x="0" y="0"/>
  <path d="M12.402 5.38086C13.8766 5.38086 15.0778 4.17969 15.0778 2.67578C15.0778 1.20117 13.8766 0 12.402 0C10.8981 0 9.69696 1.20117 9.69696 2.67578C9.69696 4.17969 10.8981 5.38086 12.402 5.38086ZM0.986019 28.1543C1.46453 28.6133 2.23602 28.7012 2.78289 28.1543L8.21258 22.7441C8.54461 22.4316 8.60321 22.1582 8.56414 21.6797L8.25164 18.1445C8.24188 17.9492 8.42743 17.8516 8.56414 17.9785L12.4802 21.3477L14.5016 27.6172C14.736 28.3594 15.4782 28.6426 16.113 28.457C16.8259 28.2422 17.1677 27.5293 16.9431 26.8457L14.8434 20.2344C14.7848 20.0391 14.6774 19.8438 14.5212 19.6973L10.3415 15.5566L13.027 10.1953C13.1442 9.96094 13.4079 9.91211 13.5934 10.0977L16.6013 13.1348C16.7477 13.2715 16.9431 13.3887 17.1286 13.4375L23.1638 15.2539C23.6618 15.4004 24.4919 15.2051 24.7556 14.3652C24.9509 13.7012 24.57 12.9785 23.8864 12.7734L18.1833 11.0938L14.9216 7.79297C14.1794 7.05078 13.3298 6.72852 12.3044 6.72852L3.6911 6.72852C3.20282 6.72852 2.76336 7.00195 2.54852 7.44141L0.13641 12.2461C-0.166324 12.8613 0.0387537 13.6426 0.712582 13.9453C1.35711 14.2578 2.0993 14.0332 2.42157 13.3789L4.47235 9.29688L7.02118 9.29688C7.31414 9.29688 7.48016 9.58008 7.34344 9.83398L5.46844 13.5938C4.81414 14.9219 4.61883 16.4746 4.98993 17.9297L5.8786 21.4355L0.966488 26.3184C0.478207 26.8066 0.478207 27.6562 0.986019 28.1543ZM23.5348 22.5195C25.1559 22.5195 26.4645 21.2012 26.4645 19.5801C26.4645 17.9492 25.1559 16.6406 23.5348 16.6406C21.9138 16.6406 20.5954 17.9492 20.5954 19.5801C20.5954 21.2012 21.9138 22.5195 23.5348 22.5195Z" fill="black" fill-opacity="0.85"/>
 </g>
</svg>
