<?xml version="1.0" encoding="UTF-8"?>
<!--Generator: Apple Native CoreSVG 326-->
<!DOCTYPE svg
PUBLIC "-//W3C//DTD SVG 1.1//EN"
       "http://www.w3.org/Graphics/SVG/1.1/DTD/svg11.dtd">
<svg version="1.1" xmlns="http://www.w3.org/2000/svg" xmlns:xlink="http://www.w3.org/1999/xlink" viewBox="0 0 25.8008 25.459">
 <g>
  <rect height="25.459" opacity="0" width="25.8008" x="0" y="0"/>
  <path d="M25.4395 12.7246C25.4395 19.7266 19.7266 25.4395 12.7148 25.4395C5.71289 25.4395 0 19.7266 0 12.7246C0 5.71289 5.71289 0 12.7148 0C19.7266 0 25.4395 5.71289 25.4395 12.7246ZM13.6426 13.877L13.6426 21.2988C13.6426 21.5137 13.8184 21.6992 14.043 21.6992C14.2676 21.6992 14.4434 21.5137 14.4434 21.2988L14.4434 13.877C14.4434 13.6523 14.2676 13.4668 14.043 13.4668C13.8184 13.4668 13.6426 13.6523 13.6426 13.877ZM7.57812 7.04102L5.76172 8.84766C5.46875 9.14062 5.48828 9.57031 5.76172 9.87305C6.01562 10.1367 6.50391 10.166 6.78711 9.87305L8.33984 8.31055L10.0293 8.52539C10.1953 8.54492 10.2441 8.70117 10.1367 8.81836L8.54492 10.4004C7.91992 11.0156 7.90039 11.9922 8.54492 12.6562L9.95117 14.0723L6.99219 14.0723C6.58203 14.0723 6.2793 14.3848 6.2793 14.7852C6.2793 15.1758 6.58203 15.5078 6.99219 15.5078L11.6992 15.5078C12.334 15.5078 12.627 14.7852 12.2656 14.3359L10.791 12.5195L15 12.2461L18.9355 12.2461C19.3359 12.2461 19.6777 11.9336 19.6777 11.5332C19.6777 11.1426 19.3359 10.8105 18.9355 10.8105L11.6504 10.8105L13.3789 9.07227C13.4375 8.99414 13.5352 8.95508 13.6523 8.97461L18.8184 9.62891C19.2383 9.67773 19.6289 9.36523 19.6289 8.92578C19.6289 8.57422 19.3555 8.26172 19.0039 8.21289L8.17383 6.8457C7.94922 6.80664 7.73438 6.88477 7.57812 7.04102ZM12.3633 5.36133C12.3633 6.23047 13.0566 6.93359 13.9258 6.93359C14.7852 6.93359 15.4785 6.23047 15.4785 5.36133C15.4785 4.51172 14.7852 3.81836 13.9258 3.81836C13.0566 3.81836 12.3633 4.51172 12.3633 5.36133Z" fill="black" fill-opacity="0.85"/>
 </g>
</svg>
