<?xml version="1.0" encoding="UTF-8"?>
<!--Generator: Apple Native CoreSVG 326-->
<!DOCTYPE svg
PUBLIC "-//W3C//DTD SVG 1.1//EN"
       "http://www.w3.org/Graphics/SVG/1.1/DTD/svg11.dtd">
<svg version="1.1" xmlns="http://www.w3.org/2000/svg" xmlns:xlink="http://www.w3.org/1999/xlink" viewBox="0 0 35.2443 24.834">
 <g>
  <rect height="24.834" opacity="0" width="35.2443" x="0" y="0"/>
  <path d="M18.3106 6.16211L18.3106 8.88672C18.3106 9.64844 18.8575 10.1953 19.6095 10.1953L21.6603 10.1953C22.422 10.1953 22.9884 9.64844 22.9884 8.88672L22.9884 6.16211C22.9884 5.41992 22.422 4.85352 21.6603 4.85352L19.6095 4.85352C18.8575 4.85352 18.3106 5.41992 18.3106 6.16211ZM24.2579 6.16211L24.2579 8.88672C24.2579 9.64844 24.8146 10.1953 25.5665 10.1953L27.6173 10.1953C28.3888 10.1953 28.9356 9.64844 28.9356 8.88672L28.9356 6.16211C28.9356 5.41992 28.3888 4.85352 27.6173 4.85352L25.5665 4.85352C24.8146 4.85352 24.2579 5.41992 24.2579 6.16211ZM30.2149 6.16211L30.2149 8.88672C30.2149 9.64844 30.7618 10.1953 31.5235 10.1953L33.5743 10.1953C34.336 10.1953 34.8829 9.64844 34.8829 8.88672L34.8829 6.16211C34.8829 5.41992 34.336 4.85352 33.5743 4.85352L31.5235 4.85352C30.7618 4.85352 30.2149 5.41992 30.2149 6.16211ZM18.3106 13.2617L18.3106 15.9863C18.3106 16.7383 18.8575 17.2852 19.6095 17.2852L21.6603 17.2852C22.422 17.2852 22.9884 16.7383 22.9884 15.9863L22.9884 13.2617C22.9884 12.5098 22.422 11.9629 21.6603 11.9629L19.6095 11.9629C18.8575 11.9629 18.3106 12.5098 18.3106 13.2617ZM24.2579 13.2617L24.2579 15.9863C24.2579 16.7383 24.8146 17.2852 25.5665 17.2852L27.6173 17.2852C28.3888 17.2852 28.9356 16.7383 28.9356 15.9863L28.9356 13.2617C28.9356 12.5098 28.3888 11.9629 27.6173 11.9629L25.5665 11.9629C24.8146 11.9629 24.2579 12.5098 24.2579 13.2617ZM30.2149 13.2617L30.2149 15.9863C30.2149 16.7383 30.7618 17.2852 31.5235 17.2852L33.5743 17.2852C34.336 17.2852 34.8829 16.7383 34.8829 15.9863L34.8829 13.2617C34.8829 12.5098 34.336 11.9629 33.5743 11.9629L31.5235 11.9629C30.7618 11.9629 30.2149 12.5098 30.2149 13.2617ZM18.3106 20.3711L18.3106 23.0762C18.3106 23.8477 18.8575 24.3848 19.6095 24.3848L21.6603 24.3848C22.422 24.3848 22.9884 23.8477 22.9884 23.0762L22.9884 20.3711C22.9884 19.6094 22.422 19.0625 21.6603 19.0625L19.6095 19.0625C18.8575 19.0625 18.3106 19.6094 18.3106 20.3711ZM24.2579 20.3711L24.2579 23.0762C24.2579 23.8477 24.8146 24.3848 25.5665 24.3848L27.6173 24.3848C28.3888 24.3848 28.9356 23.8477 28.9356 23.0762L28.9356 20.3711C28.9356 19.6094 28.3888 19.0625 27.6173 19.0625L25.5665 19.0625C24.8146 19.0625 24.2579 19.6094 24.2579 20.3711ZM30.2149 20.3711L30.2149 23.0762C30.2149 23.8477 30.7618 24.3848 31.5235 24.3848L33.5743 24.3848C34.336 24.3848 34.8829 23.8477 34.8829 23.0762L34.8829 20.3711C34.8829 19.6094 34.336 19.0625 33.5743 19.0625L31.5235 19.0625C30.7618 19.0625 30.2149 19.6094 30.2149 20.3711ZM20.6544 8.78906C19.9513 8.78906 19.3556 8.21289 19.3556 7.5C19.3556 6.80664 19.9513 6.23047 20.6544 6.23047C21.338 6.23047 21.9337 6.80664 21.9337 7.5C21.9337 8.21289 21.338 8.78906 20.6544 8.78906ZM26.6017 8.78906C25.9083 8.78906 25.3028 8.22266 25.3028 7.5C25.3028 6.80664 25.9083 6.23047 26.6017 6.23047C27.2853 6.23047 27.881 6.80664 27.881 7.5C27.881 8.22266 27.2853 8.78906 26.6017 8.78906ZM32.5587 8.78906C31.8556 8.78906 31.2599 8.22266 31.2599 7.5C31.2599 6.80664 31.8556 6.23047 32.5587 6.23047C33.2423 6.23047 33.8282 6.80664 33.8282 7.5C33.8282 8.22266 33.2423 8.78906 32.5587 8.78906ZM20.6544 15.8984C19.961 15.8984 19.3556 15.3223 19.3556 14.6094C19.3556 13.916 19.961 13.3398 20.6544 13.3398C21.338 13.3398 21.9337 13.916 21.9337 14.6094C21.9337 15.3223 21.338 15.8984 20.6544 15.8984ZM26.6017 15.8984C25.9083 15.8984 25.3028 15.3223 25.3028 14.6094C25.3028 13.916 25.9083 13.3398 26.6017 13.3398C27.2853 13.3398 27.881 13.916 27.881 14.6094C27.881 15.3223 27.2853 15.8984 26.6017 15.8984ZM32.5587 15.8984C31.8556 15.8984 31.2599 15.3223 31.2599 14.6094C31.2599 13.916 31.8556 13.3398 32.5587 13.3398C33.2423 13.3398 33.8282 13.916 33.8282 14.6094C33.8282 15.3223 33.2423 15.8984 32.5587 15.8984ZM20.6544 22.998C19.961 22.998 19.3556 22.4219 19.3556 21.709C19.3556 21.0156 19.961 20.4492 20.6544 20.4492C21.338 20.4492 21.9337 21.0156 21.9337 21.709C21.9337 22.4219 21.338 22.998 20.6544 22.998ZM26.6017 22.998C25.9083 22.998 25.3028 22.4219 25.3028 21.709C25.3028 21.0156 25.9083 20.4492 26.6017 20.4492C27.2853 20.4492 27.881 21.0156 27.881 21.709C27.881 22.4219 27.2853 22.998 26.6017 22.998ZM32.5587 22.998C31.8556 22.998 31.2599 22.4219 31.2599 21.709C31.2599 21.0156 31.8556 20.4492 32.5587 20.4492C33.2423 20.4492 33.8282 21.0156 33.8282 21.709C33.8282 22.4219 33.2423 22.998 32.5587 22.998ZM24.1017 3.21289L29.131 3.21289C29.4728 3.21289 29.5509 2.8418 29.2774 2.65625L26.9825 1.09375C26.7384 0.9375 26.4942 0.9375 26.2501 1.09375L23.9552 2.65625C23.6817 2.8418 23.7599 3.21289 24.1017 3.21289Z" fill="black" fill-opacity="0.85"/>
  <path d="M7.14853 5.48828C8.67197 5.48828 9.87314 4.22852 9.87314 2.76367C9.87314 1.24023 8.67197 0 7.14853 0C5.61533 0 4.42393 1.24023 4.42393 2.76367C4.42393 4.27734 5.61533 5.48828 7.14853 5.48828ZM1.90439 15.7129L9.73643 7.00195C8.95518 6.69922 8.10557 6.58203 7.14853 6.58203C3.62314 6.58203 1.5333 8.28125 1.5333 11.123C1.5333 11.8164 1.5626 12.7344 1.67002 13.6621ZM12.4122 15.7129L12.6271 13.6621C12.7247 12.7344 12.7735 11.8164 12.7735 11.123C12.7735 9.70703 12.2657 8.56445 11.2599 7.7832L4.9708 14.7852C5.71299 14.6582 6.42588 14.6094 7.14853 14.6094C8.88682 14.6094 10.6446 14.8438 12.4122 15.7129ZM4.14072 24.7754C4.85361 24.668 5.34189 24.1504 5.24424 23.2617L4.74619 18.7012L9.55088 18.7012L9.07236 23.2617C8.98447 24.1504 9.44346 24.668 10.1661 24.7754C10.9181 24.8438 11.4845 24.3848 11.5821 23.5059L12.2169 17.4609C10.6153 16.543 8.84775 16.1914 7.14853 16.1914C5.45908 16.1914 3.68174 16.543 2.09971 17.4609L2.72471 23.5059C2.8126 24.3848 3.379 24.8438 4.14072 24.7754ZM11.2599 7.77344L13.6134 5.16602C14.004 4.72656 13.9649 4.24805 13.5841 3.92578C13.2325 3.61328 12.7735 3.60352 12.3634 4.0625L9.73643 7.00195C10.2931 7.2168 10.8106 7.48047 11.2599 7.77344ZM0.361425 16.6406C-0.0584966 16.9531-0.0780278 17.4414 0.12705 17.7734C0.341894 18.1152 0.771582 18.2812 1.23057 17.998C1.5333 17.8027 1.79697 17.627 2.09971 17.4609L1.90439 15.7129C1.33799 15.9668 0.830175 16.2695 0.361425 16.6406ZM13.9454 16.6406C13.4767 16.2695 12.9688 15.9668 12.4122 15.7129L12.2071 17.4609C12.5099 17.627 12.7833 17.8027 13.0763 17.998C13.5353 18.2812 13.9552 18.125 14.1798 17.793C14.3751 17.4609 14.3751 16.9629 13.9454 16.6406Z" fill="black" fill-opacity="0.85"/>
 </g>
</svg>
