<?xml version="1.0" encoding="UTF-8"?>
<!--Generator: Apple Native CoreSVG 326-->
<!DOCTYPE svg
PUBLIC "-//W3C//DTD SVG 1.1//EN"
       "http://www.w3.org/Graphics/SVG/1.1/DTD/svg11.dtd">
<svg version="1.1" xmlns="http://www.w3.org/2000/svg" xmlns:xlink="http://www.w3.org/1999/xlink" viewBox="0 0 30.3328 25.166">
 <g>
  <rect height="25.166" opacity="0" width="30.3328" x="0" y="0"/>
  <path d="M23.5404 6.73828C25.3959 6.73828 26.8803 5.19531 26.8803 3.39844C26.8803 1.52344 25.3959 0 23.5404 0C21.6654 0 20.1713 1.52344 20.1713 3.39844C20.1713 5.26367 21.6654 6.73828 23.5404 6.73828ZM3.54042 24.4727C4.18495 25.1465 5.28846 25.0879 6.07948 24.2773L11.4213 18.7598C11.5971 18.5742 11.724 18.5254 11.9974 18.6328L16.2357 20.2441C18.9017 21.2598 21.392 20.3223 22.6029 18.125L25.2201 13.3594C26.2748 11.4453 25.933 9.49219 24.1264 8.53516C22.3685 7.56836 20.5521 8.29102 19.4974 10.2344L16.0209 16.582L13.0619 15.5078C11.5873 14.9707 10.3666 15.1367 9.20448 16.3477L3.6576 22.0898C2.88612 22.8809 2.95448 23.877 3.54042 24.4727Z" fill="black" fill-opacity="0.85"/>
  <path d="M0.239634 3.95508L4.23377 9.0625C4.39979 9.27734 4.67323 9.33594 4.9369 9.19922C5.86463 8.70117 7.23182 8.34961 8.32557 8.34961C9.40956 8.34961 10.7865 8.70117 11.7142 9.19922C11.9779 9.33594 12.2514 9.27734 12.4174 9.0625L16.4115 3.95508C16.7826 3.48633 16.7142 3.00781 16.265 2.65625C14.6244 1.41602 11.5189 0.449219 8.32557 0.449219C5.13221 0.449219 2.02674 1.41602 0.386118 2.65625C-0.0631005 3.00781-0.13146 3.48633 0.239634 3.95508ZM4.44862 12.0996C3.9994 11.5137 3.80409 10.9766 3.80409 10.3613C3.80409 9.01367 4.92713 8.61328 4.92713 7.8125C4.92713 7.00195 3.80409 6.61133 3.80409 5.24414C3.80409 4.64844 3.98963 4.11133 4.44862 3.52539C4.91737 2.93945 5.76698 3.55469 5.31776 4.16016C4.97596 4.61914 4.88807 4.87305 4.88807 5.24414C4.88807 6.24023 6.00135 6.54297 6.00135 7.8125C6.00135 9.10156 4.88807 9.38477 4.88807 10.3613C4.88807 10.752 4.97596 11.0059 5.30799 11.4453C5.75721 12.0508 4.9076 12.6562 4.44862 12.0996ZM7.87635 12.0996C7.42713 11.5137 7.24159 10.9766 7.24159 10.3613C7.24159 9.01367 8.36463 8.61328 8.36463 7.8125C8.36463 7.00195 7.24159 6.61133 7.24159 5.24414C7.24159 4.64844 7.42713 4.11133 7.88612 3.52539C8.35487 2.93945 9.20448 3.55469 8.74549 4.16016C8.41346 4.61914 8.31581 4.87305 8.31581 5.24414C8.31581 6.24023 9.42909 6.54297 9.42909 7.8125C9.42909 9.10156 8.31581 9.38477 8.31581 10.3613C8.31581 10.752 8.41346 11.0059 8.73573 11.4453C9.18495 12.0508 8.3451 12.6562 7.87635 12.0996ZM11.3236 12.0996C10.8744 11.5137 10.6791 10.9766 10.6791 10.3613C10.6791 9.01367 11.8021 8.61328 11.8021 7.8125C11.8021 7.00195 10.6791 6.61133 10.6791 5.24414C10.6791 4.64844 10.8646 4.11133 11.3236 3.52539C11.7924 2.93945 12.642 3.55469 12.1928 4.16016C11.851 4.61914 11.7631 4.87305 11.7631 5.24414C11.7631 6.24023 12.8764 6.54297 12.8764 7.8125C12.8764 9.10156 11.7631 9.38477 11.7631 10.3613C11.7631 10.752 11.851 11.0059 12.183 11.4453C12.6322 12.0508 11.7826 12.6562 11.3236 12.0996Z" fill="black" fill-opacity="0.85"/>
 </g>
</svg>
