<?xml version="1.0" encoding="UTF-8"?>
<!--Generator: Apple Native CoreSVG 326-->
<!DOCTYPE svg
PUBLIC "-//W3C//DTD SVG 1.1//EN"
       "http://www.w3.org/Graphics/SVG/1.1/DTD/svg11.dtd">
<svg version="1.1" xmlns="http://www.w3.org/2000/svg" xmlns:xlink="http://www.w3.org/1999/xlink" viewBox="0 0 25.8008 25.459">
 <g>
  <rect height="25.459" opacity="0" width="25.8008" x="0" y="0"/>
  <path d="M12.7148 25.4395C19.7363 25.4395 25.4395 19.7461 25.4395 12.7246C25.4395 5.70312 19.7363 0 12.7148 0C5.69336 0 0 5.70312 0 12.7246C0 19.7461 5.69336 25.4395 12.7148 25.4395ZM12.7148 23.623C6.68945 23.623 1.81641 18.75 1.81641 12.7246C1.81641 6.69922 6.68945 1.82617 12.7148 1.82617C18.7402 1.82617 23.6133 6.69922 23.6133 12.7246C23.6133 18.75 18.7402 23.623 12.7148 23.623Z" fill="black" fill-opacity="0.85"/>
  <path d="M14.668 8.4082C15.5078 8.4082 16.1914 7.71484 16.1914 6.88477C16.1914 6.05469 15.5078 5.36133 14.668 5.36133C13.8281 5.36133 13.1445 6.05469 13.1445 6.88477C13.1445 7.71484 13.8281 8.4082 14.668 8.4082ZM16.6211 20.4492C16.9238 20.332 17.1484 20.0195 17.0312 19.5996L15.9863 15.9375C15.9375 15.7617 15.8301 15.625 15.6641 15.5371L13.4766 14.248L14.5117 11.1523C14.5898 10.9082 14.8438 10.8789 15.0195 11.0547L16.5625 12.5977C16.6992 12.7441 16.875 12.8027 17.0605 12.8027C17.2363 12.8027 17.4219 12.7441 17.5586 12.5977L19.6484 10.5078C19.9219 10.2344 19.9316 9.79492 19.6484 9.52148C19.375 9.24805 18.9453 9.23828 18.6621 9.52148L17.0605 11.1328L15.7129 9.73633C15.0977 9.0918 14.4434 8.96484 13.1445 8.96484L6.67969 8.96484C6.29883 8.96484 5.97656 9.27734 5.97656 9.67773C5.97656 10.0586 6.29883 10.3613 6.67969 10.3613L11.4551 10.3613C11.6602 10.3613 11.8555 10.5273 11.7578 10.8105L10.9375 13.2422C10.6348 14.1211 11.0547 15.0195 11.8945 15.3906L14.7168 16.6406L15.6934 19.9707C15.8398 20.459 16.2793 20.5859 16.6211 20.4492ZM7.76367 20.2148C7.93945 20.4785 8.29102 20.6152 8.67188 20.4004L11.7969 18.6719C11.9531 18.584 12.0605 18.4473 12.1289 18.2617L12.7441 16.4062L11.6602 15.9375C11.4062 15.8203 11.2891 15.752 11.2695 15.7129L10.8594 17.5879L7.99805 19.1797C7.54883 19.4336 7.5293 19.9121 7.76367 20.2148ZM17.4023 14.3359L21.543 14.3359L21.543 13.5547L17.4023 13.5547C17.1875 13.5547 17.0117 13.7402 17.0117 13.9453C17.0117 14.1504 17.1973 14.3359 17.4023 14.3359ZM6.91406 9.32617L7.64648 9.32617L7.64648 8.25195L6.91406 8.25195ZM7.27539 5.61523C6.55273 5.61523 5.97656 6.19141 5.97656 6.92383C5.97656 7.59766 6.55273 8.38867 7.27539 8.56445C8.01758 8.38867 8.59375 7.59766 8.59375 6.92383C8.59375 6.19141 8.01758 5.61523 7.27539 5.61523Z" fill="black" fill-opacity="0.85"/>
 </g>
</svg>
