<?xml version="1.0" encoding="UTF-8"?>
<!--Generator: Apple Native CoreSVG 326-->
<!DOCTYPE svg
PUBLIC "-//W3C//DTD SVG 1.1//EN"
       "http://www.w3.org/Graphics/SVG/1.1/DTD/svg11.dtd">
<svg version="1.1" xmlns="http://www.w3.org/2000/svg" xmlns:xlink="http://www.w3.org/1999/xlink" viewBox="0 0 24.2622 29.5794">
 <g>
  <rect height="29.5794" opacity="0" width="24.2622" x="0" y="0"/>
  <path d="M10.3587 6.97232C11.8528 6.97232 13.0637 5.77115 13.0637 4.29654C13.0637 2.8024 11.8528 1.60122 10.3587 1.60122C8.88404 1.60122 7.68287 2.8024 7.68287 4.29654C7.68287 5.77115 8.88404 6.97232 10.3587 6.97232ZM19.968 8.32974L5.90553 8.32974L6.29615 8.62271C6.90162 8.40786 7.136 7.82193 6.98951 7.30435C6.83326 6.73794 6.29615 6.26919 5.36842 6.48404L1.71607 7.32388C-0.627676 7.87076-0.569082 10.8981 1.88209 10.8981L5.86646 10.8981C6.22779 10.8981 6.511 11.1911 6.511 11.5426L6.511 16.7672L2.69264 20.5758C2.16529 21.0934 1.8235 21.6208 1.60865 22.4313L0.153574 27.8708C-0.0905664 28.7985 0.446543 29.3747 1.10084 29.4821C1.71607 29.5895 2.39967 29.2965 2.61451 28.5251L3.99146 23.4176C4.11842 22.9391 4.21607 22.734 4.59693 22.4313L7.59498 19.8629C8.19068 19.3649 9.22584 19.4626 9.64576 20.1852L11.4622 23.359L14.3528 28.7985C14.7727 29.609 15.6809 29.6774 16.2571 29.3161C16.7649 28.984 16.97 28.3102 16.6087 27.6168L13.6985 22.0895L12.0676 18.3297C11.7844 17.695 11.6379 17.0016 11.6379 16.2887L11.6379 11.5426C11.6379 11.1911 11.9212 10.8981 12.2922 10.8981L19.968 10.8981C20.6712 10.8981 21.2473 10.3219 21.2473 9.62857C21.2473 8.91568 20.6712 8.32974 19.968 8.32974ZM22.6047 9.62857C22.6047 12.3336 22.0579 14.9997 20.7297 18.3297C20.593 18.6911 20.7297 19.0622 21.052 19.1891C21.3938 19.3356 21.7454 19.1989 21.9114 18.8668C23.3274 15.8004 23.9036 12.9977 23.9036 9.62857C23.9036 6.41568 23.3274 3.61294 21.9114 0.390286C21.7454 0.0484895 21.3938-0.0882292 21.052 0.0582552C20.7297 0.194974 20.593 0.556302 20.7297 0.927396C22.0579 4.26724 22.6047 6.92349 22.6047 9.62857Z" fill="black" fill-opacity="0.85"/>
 </g>
</svg>
