<?xml version="1.0" encoding="UTF-8"?>
<!--Generator: Apple Native CoreSVG 326-->
<!DOCTYPE svg
PUBLIC "-//W3C//DTD SVG 1.1//EN"
       "http://www.w3.org/Graphics/SVG/1.1/DTD/svg11.dtd">
<svg version="1.1" xmlns="http://www.w3.org/2000/svg" xmlns:xlink="http://www.w3.org/1999/xlink" viewBox="0 0 25.8008 25.459">
 <g>
  <rect height="25.459" opacity="0" width="25.8008" x="0" y="0"/>
  <path d="M12.7148 25.4395C19.7363 25.4395 25.4395 19.7461 25.4395 12.7246C25.4395 5.70312 19.7363 0 12.7148 0C5.69336 0 0 5.70312 0 12.7246C0 19.7461 5.69336 25.4395 12.7148 25.4395ZM12.7148 23.623C6.68945 23.623 1.81641 18.75 1.81641 12.7246C1.81641 6.69922 6.68945 1.82617 12.7148 1.82617C18.7402 1.82617 23.6133 6.69922 23.6133 12.7246C23.6133 18.75 18.7402 23.623 12.7148 23.623Z" fill="black" fill-opacity="0.85"/>
  <path d="M6.02539 6.32812L6.66992 6.32812C6.66016 6.09375 6.70898 5.83008 6.83594 5.60547L6.02539 5.60547C5.82031 5.60547 5.66406 5.76172 5.66406 5.9668C5.66406 6.16211 5.82031 6.32812 6.02539 6.32812ZM9.58008 6.32812L16.3086 6.32812L16.6895 5.76172C16.7285 5.70312 16.748 5.6543 16.7871 5.60547L9.0918 5.60547C9.15039 5.68359 9.16992 5.71289 9.20898 5.76172ZM19.2188 6.32812L19.6191 6.32812C19.8242 6.32812 19.9805 6.16211 19.9805 5.9668C19.9805 5.76172 19.8242 5.60547 19.6191 5.60547L19.0527 5.60547C19.1797 5.81055 19.2383 6.07422 19.2188 6.32812ZM12.998 10.1074C13.8281 10.1074 14.5215 9.43359 14.5215 8.59375C14.5215 7.75391 13.8281 7.07031 12.998 7.07031C12.1582 7.07031 11.4746 7.75391 11.4746 8.59375C11.4746 9.43359 12.1582 10.1074 12.998 10.1074ZM9.4043 16.1621C10.2441 17.1777 11.6113 17.0312 12.2949 16.0156L18.5352 6.66016C18.7598 6.32812 18.6621 5.87891 18.3301 5.6543C18.0078 5.42969 17.5488 5.51758 17.3242 5.85938L14.4922 10.1172C14.1602 10.6152 13.5938 10.8789 12.998 10.8789C12.373 10.8789 11.7188 10.5762 11.3086 9.9707L8.57422 5.85938C8.34961 5.51758 7.90039 5.42969 7.56836 5.6543C7.22656 5.87891 7.13867 6.32812 7.36328 6.66016L10.7324 11.709C10.8887 11.9336 10.9961 12.0801 10.7324 12.5L9.88281 13.7891L7.79297 11.9727C7.49023 11.7188 7.03125 11.6992 6.71875 12.0215L4.08203 14.668C3.79883 14.9707 3.79883 15.4102 4.08203 15.6836C4.4043 15.9863 4.83398 15.9375 5.09766 15.6836L7.23633 13.5645ZM10.918 21.3965C11.1426 21.0645 11.0645 20.6445 10.7129 20.4199L8.37891 18.8477L9.85352 17.2363C9.54102 17.0996 9.22852 16.8652 8.95508 16.543L8.45703 15.9473L6.67969 18.5742C6.46484 18.8965 6.5332 19.3652 6.875 19.5898L9.93164 21.6016C10.2734 21.8262 10.7129 21.7188 10.918 21.3965Z" fill="black" fill-opacity="0.85"/>
 </g>
</svg>
