<?xml version="1.0" encoding="UTF-8"?>
<!--Generator: Apple Native CoreSVG 326-->
<!DOCTYPE svg
PUBLIC "-//W3C//DTD SVG 1.1//EN"
       "http://www.w3.org/Graphics/SVG/1.1/DTD/svg11.dtd">
<svg version="1.1" xmlns="http://www.w3.org/2000/svg" xmlns:xlink="http://www.w3.org/1999/xlink" viewBox="0 0 25.8008 25.459">
 <g>
  <rect height="25.459" opacity="0" width="25.8008" x="0" y="0"/>
  <path d="M12.7148 25.4395C19.7363 25.4395 25.4395 19.7461 25.4395 12.7246C25.4395 5.70312 19.7363 0 12.7148 0C5.69336 0 0 5.70312 0 12.7246C0 19.7461 5.69336 25.4395 12.7148 25.4395ZM12.7148 23.623C6.68945 23.623 1.81641 18.75 1.81641 12.7246C1.81641 6.69922 6.68945 1.82617 12.7148 1.82617C18.7402 1.82617 23.6133 6.69922 23.6133 12.7246C23.6133 18.75 18.7402 23.623 12.7148 23.623Z" fill="black" fill-opacity="0.85"/>
  <path d="M12.7051 14.0527L14.3848 16.6895L15.625 20.1367C15.7715 20.5176 16.1426 20.6348 16.4551 20.5273C16.7871 20.4102 16.9629 20.0293 16.8359 19.707L15.5762 16.2207L14.3164 12.7637L14.3164 9.62891C14.3164 9.49219 14.3945 9.3457 14.5215 9.27734L18.7793 7.01172C19.1016 6.83594 19.2188 6.46484 19.043 6.14258C18.877 5.83008 18.4961 5.71289 18.1836 5.87891L14.0723 8.05664C13.6133 8.30078 13.1543 8.4082 12.7051 8.4082C12.2559 8.4082 11.8066 8.30078 11.3477 8.05664L7.22656 5.87891C6.92383 5.71289 6.54297 5.83008 6.37695 6.14258C6.20117 6.46484 6.31836 6.83594 6.63086 7.01172L10.8887 9.27734C11.0156 9.3457 11.1035 9.49219 11.1035 9.62891L11.1035 12.7637L9.84375 16.2207L8.58398 19.707C8.45703 20.0293 8.63281 20.4102 8.96484 20.5273C9.27734 20.6348 9.63867 20.5176 9.78516 20.1367L11.0352 16.6895ZM12.7051 7.65625C13.5156 7.65625 14.1895 6.98242 14.1895 6.15234C14.1895 5.33203 13.5156 4.66797 12.7051 4.66797C11.8848 4.66797 11.2109 5.33203 11.2109 6.15234C11.2109 6.98242 11.8848 7.65625 12.7051 7.65625Z" fill="black" fill-opacity="0.85"/>
 </g>
</svg>
