<?xml version="1.0" encoding="UTF-8"?>
<!--Generator: Apple Native CoreSVG 326-->
<!DOCTYPE svg
PUBLIC "-//W3C//DTD SVG 1.1//EN"
       "http://www.w3.org/Graphics/SVG/1.1/DTD/svg11.dtd">
<svg version="1.1" xmlns="http://www.w3.org/2000/svg" xmlns:xlink="http://www.w3.org/1999/xlink" viewBox="0 0 25.8008 25.459">
 <g>
  <rect height="25.459" opacity="0" width="25.8008" x="0" y="0"/>
  <path d="M12.7148 25.4395C19.7363 25.4395 25.4395 19.7461 25.4395 12.7246C25.4395 5.70312 19.7363 0 12.7148 0C5.69336 0 0 5.70312 0 12.7246C0 19.7461 5.69336 25.4395 12.7148 25.4395ZM12.7148 23.623C6.68945 23.623 1.81641 18.75 1.81641 12.7246C1.81641 6.69922 6.68945 1.82617 12.7148 1.82617C18.7402 1.82617 23.6133 6.69922 23.6133 12.7246C23.6133 18.75 18.7402 23.623 12.7148 23.623Z" fill="black" fill-opacity="0.85"/>
  <path d="M12.7051 8.13477C13.5547 8.13477 14.2285 7.45117 14.2285 6.61133C14.2285 5.78125 13.5547 5.08789 12.7051 5.08789C11.8652 5.08789 11.1914 5.78125 11.1914 6.61133C11.1914 7.45117 11.8652 8.13477 12.7051 8.13477ZM18.5059 9.46289C18.2129 9.18945 17.7832 9.17969 17.4902 9.46289L15.8008 11.1523L14.1016 9.44336C13.7695 9.10156 13.2324 8.89648 12.7051 8.89648L8.14453 8.89648C7.82227 8.89648 7.56836 9.08203 7.4707 9.39453L6.37695 12.666C6.20117 13.1738 6.49414 13.5254 6.83594 13.6035C7.17773 13.7012 7.55859 13.5645 7.70508 13.1055L8.65234 10.3125L10.166 10.3125C10.293 10.3125 10.4004 10.4395 10.3516 10.5859L9.43359 13.3691C9.12109 14.2676 9.39453 15.127 10.4102 15.5762L13.3789 16.8848L14.3555 20.2734C14.4824 20.7129 14.8828 20.8398 15.2246 20.752C15.5664 20.6641 15.8594 20.3418 15.7324 19.8828L14.6484 16.1621C14.5898 15.957 14.4922 15.8105 14.2676 15.7129L11.9434 14.6875L13.1738 10.9766C13.2227 10.8301 13.4082 10.7617 13.5254 10.8887L15.2832 12.666C15.5664 12.9492 16.0254 12.9492 16.3086 12.666L18.5059 10.4785C18.7891 10.1855 18.7793 9.75586 18.5059 9.46289ZM9.66797 15.8594L9.31641 17.9102L6.65039 19.3945C6.20117 19.6387 6.21094 20.0781 6.39648 20.3906C6.58203 20.6738 6.93359 20.8789 7.36328 20.6445L10.3223 18.9941C10.5273 18.877 10.5957 18.75 10.6641 18.5352L11.2891 16.6406L10.166 16.1426C9.94141 16.0449 9.77539 15.9473 9.66797 15.8594ZM19.082 8.30078C19.2969 8.18359 19.4336 7.96875 19.4336 7.73438L19.4336 5.48828C19.4336 5.11719 19.1699 4.82422 18.7988 4.82422L17.1777 4.82422C16.8164 4.82422 16.5332 5.11719 16.5332 5.48828L16.5332 7.73438C16.5332 7.96875 16.6895 8.18359 16.9043 8.30078L17.998 8.84766ZM17.6074 10.0098L18.3887 10.0098L18.3887 8.05664L17.6074 8.05664Z" fill="black" fill-opacity="0.85"/>
 </g>
</svg>
