<?xml version="1.0" encoding="UTF-8"?>
<!--Generator: Apple Native CoreSVG 326-->
<!DOCTYPE svg
PUBLIC "-//W3C//DTD SVG 1.1//EN"
       "http://www.w3.org/Graphics/SVG/1.1/DTD/svg11.dtd">
<svg version="1.1" xmlns="http://www.w3.org/2000/svg" xmlns:xlink="http://www.w3.org/1999/xlink" viewBox="0 0 25.8008 25.459">
 <g>
  <rect height="25.459" opacity="0" width="25.8008" x="0" y="0"/>
  <path d="M12.7148 25.4395C19.7363 25.4395 25.4395 19.7461 25.4395 12.7246C25.4395 5.70312 19.7363 0 12.7148 0C5.69336 0 0 5.70312 0 12.7246C0 19.7461 5.69336 25.4395 12.7148 25.4395ZM12.7148 23.623C6.68945 23.623 1.81641 18.75 1.81641 12.7246C1.81641 6.69922 6.68945 1.82617 12.7148 1.82617C18.7402 1.82617 23.6133 6.69922 23.6133 12.7246C23.6133 18.75 18.7402 23.623 12.7148 23.623Z" fill="black" fill-opacity="0.85"/>
  <path d="M9.16016 9.54102C10 9.54102 10.6836 8.86719 10.6836 8.03711C10.6836 7.1875 10 6.52344 9.16016 6.52344C8.33008 6.52344 7.65625 7.1875 7.65625 8.03711C7.65625 8.86719 8.33008 9.54102 9.16016 9.54102ZM6.45508 12.4707L6.86523 14.9707C7.01172 15.8789 8.25195 15.6934 8.10547 14.7852L7.76367 12.627L9.17969 12.0703C9.4043 11.9922 9.58984 12.0312 9.6875 12.2266L10.9766 14.8047C11.377 15.5762 11.6992 15.8105 12.0117 16.0352L16.2207 19.1309C16.9434 19.6582 17.8125 18.6035 16.9922 17.998L13.7207 15.5957C13.5645 15.4785 13.5742 15.2539 13.7598 15.1562L15.9863 13.8672L18.9062 15.2637C19.7168 15.6543 20.3809 14.502 19.4141 14.043L16.3086 12.5586C15.9375 12.3828 15.5859 12.4414 15.2734 12.6172L13.8086 13.4766C13.6133 13.584 13.4668 13.5352 13.3984 13.3789L12.2266 10.9863C12.0996 10.752 12.1289 10.5371 12.373 10.4199L13.4473 9.92188C13.8086 9.76562 13.9355 9.64844 14.043 9.30664L14.7168 6.95312C14.9707 6.06445 13.7793 5.75195 13.5352 6.63086L12.8613 8.94531L6.92383 11.5527C6.5332 11.7285 6.38672 12.0215 6.45508 12.4707Z" fill="black" fill-opacity="0.85"/>
 </g>
</svg>
