<?xml version="1.0" encoding="UTF-8"?>
<!--Generator: Apple Native CoreSVG 326-->
<!DOCTYPE svg
PUBLIC "-//W3C//DTD SVG 1.1//EN"
       "http://www.w3.org/Graphics/SVG/1.1/DTD/svg11.dtd">
<svg version="1.1" xmlns="http://www.w3.org/2000/svg" xmlns:xlink="http://www.w3.org/1999/xlink" viewBox="0 0 31.2793 22.8223">
 <g>
  <rect height="22.8223" opacity="0" width="31.2793" x="0" y="0"/>
  <path d="M18.3691 5.38086C19.8438 5.38086 21.0547 4.17969 21.0547 2.69531C21.0547 1.21094 19.8438 0 18.3691 0C16.8848 0 15.6738 1.21094 15.6738 2.69531C15.6738 4.17969 16.8848 5.38086 18.3691 5.38086ZM13.916 20.7227C13.6035 22.3926 16.1133 22.8027 16.4258 21.0938L17.6953 14.1406C17.8125 13.4863 17.4023 12.793 16.6504 12.6855L12.4707 12.0996L15.0684 9.50195C15.3125 9.24805 15.6738 9.24805 15.9277 9.50195L23.1445 16.7188C23.623 17.1973 24.4336 17.2461 24.9316 16.7188C25.4102 16.2109 25.4199 15.4395 24.9316 14.9414L15.3613 5.37109C14.7754 4.78516 13.9844 4.44336 13.125 4.44336L7.59766 4.44336C7.25586 4.44336 6.93359 4.58008 6.69922 4.81445L2.91016 8.61328C2.41211 9.11133 2.41211 9.90234 2.91016 10.4004C3.39844 10.8887 4.18945 10.8887 4.6875 10.4004L8.125 6.96289L10.3418 6.96289C10.5762 6.96289 10.6738 7.17773 10.5176 7.33398L7.09961 10.752C5.45898 12.3828 6.32812 15.1855 8.93555 15.1855L14.9219 15.1855ZM6.74805 15.752L6.41602 19.6289L1.26953 19.6289C0.566406 19.6289 0 20.1953 0 20.8789C0 21.5723 0.566406 22.1484 1.26953 22.1484L7.59766 22.1484C8.23242 22.1484 8.73047 21.6699 8.84766 21.0352L9.69727 16.3574L8.93555 16.3574C8.07617 16.3574 7.33398 16.1328 6.74805 15.752ZM25.6152 22.1484L29.3945 22.1484C30.2344 22.1484 30.918 21.4746 30.918 20.6348C30.918 19.7949 30.2344 19.1113 29.3945 19.1113L25.6152 19.1113C24.7461 19.1113 24.082 19.7949 24.082 20.6348C24.082 21.4746 24.7461 22.1484 25.6152 22.1484ZM28.252 19.7656L29.2969 19.7656L29.2969 18.5547C29.2969 17.5684 28.5547 16.8262 27.5684 16.8262L26.2402 16.8262C25.9473 16.8262 25.7129 17.0508 25.7129 17.3535C25.7129 17.6465 25.9473 17.8809 26.2402 17.8809L27.5684 17.8809C27.9688 17.8809 28.252 18.1641 28.252 18.5547Z" fill="black" fill-opacity="0.85"/>
 </g>
</svg>
