<?xml version="1.0" encoding="UTF-8"?>
<!--Generator: Apple Native CoreSVG 326-->
<!DOCTYPE svg
PUBLIC "-//W3C//DTD SVG 1.1//EN"
       "http://www.w3.org/Graphics/SVG/1.1/DTD/svg11.dtd">
<svg version="1.1" xmlns="http://www.w3.org/2000/svg" xmlns:xlink="http://www.w3.org/1999/xlink" viewBox="0 0 32.6493 25.3223">
 <g>
  <rect height="25.3223" opacity="0" width="32.6493" x="0" y="0"/>
  <path d="M20.4408 6.93359C22.2963 6.93359 23.7807 5.39062 23.7807 3.59375C23.7807 1.71875 22.2963 0.195312 20.4408 0.195312C18.5658 0.195312 17.0717 1.71875 17.0717 3.59375C17.0717 5.45898 18.5658 6.93359 20.4408 6.93359ZM18.2338 19.8047C18.8002 19.3652 19.3276 18.623 19.8451 17.6855L22.1303 13.5547C23.185 11.6406 22.8334 9.67773 21.0268 8.7207C19.2787 7.75391 17.4721 8.49609 16.3979 10.4297L14.0248 14.7266ZM0.450604 24.6484C1.09514 25.332 2.19865 25.2734 2.98967 24.4629L8.3217 18.9551C8.50724 18.7695 8.62443 18.7207 8.89787 18.8281L13.3998 20.5371C14.4154 20.918 15.4799 20.8301 16.2807 20.6738L13.224 16.8848L9.96232 15.6934C8.49748 15.1562 7.27678 15.332 6.1049 16.543L0.567792 22.2754C-0.203693 23.0664-0.135333 24.0625 0.450604 24.6484ZM20.9584 24.7949C21.4467 24.4141 21.476 23.8281 21.017 23.2617L18.2338 19.8047C17.6381 20.2148 16.9643 20.5176 16.2807 20.6738L19.4545 24.5605C19.894 25.0977 20.4604 25.2051 20.9584 24.7949Z" fill="black" fill-opacity="0.85"/>
  <path d="M25.6459 25.1074L31.5834 25.1074C31.9936 25.1074 32.2865 24.8145 32.2865 24.4141C32.2865 24.0137 31.9936 23.7305 31.5834 23.7305L27.1596 23.7305L27.1596 23.7012L30.06 20.5371C31.017 19.5117 31.6811 18.623 31.6811 17.4023C31.6811 15.6641 30.3432 14.5117 28.2533 14.5117C26.6322 14.5117 25.2162 15.4883 24.8842 16.8164C24.8451 16.9824 24.8256 17.1094 24.8256 17.2559C24.8256 17.6758 25.0893 17.9395 25.5092 17.9395C25.8901 17.9395 26.0854 17.7148 26.2612 17.4023C26.5053 16.6113 27.1889 15.8594 28.3119 15.8594C29.4447 15.8594 30.1967 16.5234 30.1967 17.5098C30.1967 18.3105 29.5717 19.0039 28.8783 19.7656L25.1772 23.7695C24.9916 23.9746 24.894 24.1699 24.894 24.4141C24.894 24.834 25.1772 25.1074 25.6459 25.1074Z" fill="black" fill-opacity="0.85"/>
  <path d="M6.31974 12.5879C9.8256 12.5879 12.56 9.69727 12.56 6.34766C12.56 2.82227 9.8256 0 6.31974 0C2.81389 0 0.0013856 2.82227 0.0013856 6.34766C0.0013856 9.69727 2.81389 12.5879 6.31974 12.5879Z" fill="black" fill-opacity="0.85"/>
 </g>
</svg>
