<?xml version="1.0" encoding="UTF-8"?>
<!--Generator: Apple Native CoreSVG 326-->
<!DOCTYPE svg
PUBLIC "-//W3C//DTD SVG 1.1//EN"
       "http://www.w3.org/Graphics/SVG/1.1/DTD/svg11.dtd">
<svg version="1.1" xmlns="http://www.w3.org/2000/svg" xmlns:xlink="http://www.w3.org/1999/xlink" viewBox="0 0 24.1532 25.166">
 <g>
  <rect height="25.166" opacity="0" width="24.1532" x="0" y="0"/>
  <path d="M20.4506 6.73828C22.3061 6.73828 23.7904 5.19531 23.7904 3.39844C23.7904 1.52344 22.3061 0 20.4506 0C18.5756 0 17.0815 1.52344 17.0815 3.39844C17.0815 5.26367 18.5756 6.73828 20.4506 6.73828ZM0.450604 24.4727C1.09514 25.1465 2.19865 25.0879 2.98967 24.2773L8.33146 18.7598C8.50724 18.5742 8.6342 18.5254 8.90764 18.6328L13.1459 20.2441C15.8119 21.2598 18.3022 20.3223 19.5131 18.125L22.1401 13.3594C23.185 11.4453 22.8432 9.49219 21.0365 8.53516C19.2885 7.56836 17.4623 8.29102 16.4076 10.2344L12.9311 16.582L9.97209 15.5078C8.49748 14.9707 7.27678 15.1367 6.11467 16.3477L0.567792 22.0898C-0.203693 22.8809-0.135333 23.877 0.450604 24.4727Z" fill="black" fill-opacity="0.85"/>
  <path d="M2.15959 11.9922C2.55998 11.9922 2.82365 11.8066 2.98967 11.2988L3.99553 8.4668L8.59514 8.4668L9.60099 11.2988C9.76701 11.8066 10.0404 11.9922 10.4408 11.9922C10.9194 11.9922 11.2416 11.6895 11.2416 11.25C11.2416 11.084 11.2026 10.9277 11.1244 10.6934L7.49162 0.976562C7.28654 0.419922 6.87639 0.136719 6.29045 0.136719C5.70451 0.136719 5.30412 0.419922 5.09904 0.976562L1.47599 10.6934C1.3881 10.9277 1.34904 11.084 1.34904 11.2402C1.34904 11.6895 1.67131 11.9922 2.15959 11.9922ZM4.44474 7.13867L6.24162 2.05078L6.35881 2.05078L8.14592 7.13867Z" fill="black" fill-opacity="0.85"/>
 </g>
</svg>
