<?xml version="1.0" encoding="UTF-8"?>
<!--Generator: Apple Native CoreSVG 326-->
<!DOCTYPE svg
PUBLIC "-//W3C//DTD SVG 1.1//EN"
       "http://www.w3.org/Graphics/SVG/1.1/DTD/svg11.dtd">
<svg version="1.1" xmlns="http://www.w3.org/2000/svg" xmlns:xlink="http://www.w3.org/1999/xlink" viewBox="0 0 25.8008 25.459">
 <g>
  <rect height="25.459" opacity="0" width="25.8008" x="0" y="0"/>
  <path d="M25.4395 12.7246C25.4395 19.7266 19.7266 25.4395 12.7148 25.4395C5.71289 25.4395 0 19.7266 0 12.7246C0 5.71289 5.71289 0 12.7148 0C19.7266 0 25.4395 5.71289 25.4395 12.7246ZM8.33008 7.65625L8.33008 10.2148C8.33008 10.6055 8.65234 10.9375 9.05273 10.9375L12.0605 10.9375C12.1973 10.9375 12.2852 11.0547 12.2559 11.1914L11.6797 13.4375C11.5723 13.7988 11.3379 14.0723 10.9766 14.1992L7.83203 15.3027L4.39453 15.3027C3.98438 15.3027 3.67188 15.6348 3.67188 16.0254C3.67188 16.4453 3.98438 16.748 4.39453 16.748L7.85156 16.748C8.06641 16.748 8.16406 16.7188 8.32031 16.6797L12.2656 15.7324C12.334 15.7227 12.3828 15.7617 12.373 15.8301L12.1191 17.9883L10.5664 16.8848C10.2344 16.6504 9.79492 16.7285 9.56055 17.0605C9.31641 17.3926 9.38477 17.8418 9.7168 18.0859L12.0996 19.7656C12.627 20.1465 13.2812 20 13.418 19.4629L15.3809 11.582C15.4102 11.4844 15.4883 11.4355 15.5859 11.4551L21.5137 12.6367C22.0703 12.7539 22.3828 12.334 22.3828 11.9238C22.3828 11.6113 22.207 11.2988 21.7969 11.2109L15.957 10.0293C14.0918 9.64844 12.9102 9.49219 11.5723 9.49219L9.79492 9.49219L9.79492 7.65625C9.79492 7.24609 9.45312 6.94336 9.05273 6.94336C8.65234 6.94336 8.33008 7.24609 8.33008 7.65625ZM13.0957 7.45117C13.0957 8.31055 13.7988 9.02344 14.668 9.02344C15.5176 9.02344 16.2207 8.31055 16.2207 7.45117C16.2207 6.60156 15.5176 5.89844 14.668 5.89844C13.7988 5.89844 13.0957 6.60156 13.0957 7.45117ZM9.49219 5.94727C9.49219 6.5625 9.99023 7.04102 10.5957 7.04102C11.2109 7.04102 11.6895 6.5625 11.6895 5.94727C11.6895 5.35156 11.2109 4.85352 10.5957 4.85352C9.99023 4.85352 9.49219 5.35156 9.49219 5.94727Z" fill="black" fill-opacity="0.85"/>
 </g>
</svg>
