<?xml version="1.0" encoding="UTF-8"?>
<!--Generator: Apple Native CoreSVG 326-->
<!DOCTYPE svg
PUBLIC "-//W3C//DTD SVG 1.1//EN"
       "http://www.w3.org/Graphics/SVG/1.1/DTD/svg11.dtd">
<svg version="1.1" xmlns="http://www.w3.org/2000/svg" xmlns:xlink="http://www.w3.org/1999/xlink" viewBox="0 0 25.8008 25.459">
 <g>
  <rect height="25.459" opacity="0" width="25.8008" x="0" y="0"/>
  <path d="M25.4395 12.7246C25.4395 19.7266 19.7266 25.4395 12.7148 25.4395C5.71289 25.4395 0 19.7266 0 12.7246C0 5.71289 5.71289 0 12.7148 0C19.7266 0 25.4395 5.71289 25.4395 12.7246ZM10.7422 16.709L8.51562 19.3555C7.8125 20.1855 8.94531 20.9961 9.54102 20.3027L11.7871 17.6367C12.002 17.3633 12.041 17.3047 12.1191 17.0312L12.2949 16.4844L11.1133 14.9805ZM10.4395 9.20898L9.29688 10.332C8.92578 10.7031 8.80859 11.0059 8.76953 11.4844L8.64258 13.252C8.61328 13.6914 8.84766 14.0039 9.24805 14.0234C9.66797 14.0527 9.91211 13.8086 9.95117 13.3398L10.1172 11.3867L10.6738 10.8984C10.8691 10.7129 11.1523 10.8203 11.1328 11.0547L11.0059 12.6855C10.9473 13.5156 11.1523 13.916 11.709 14.6191L13.2324 16.5234C13.3789 16.709 13.3984 16.7969 13.457 16.9141L15.0293 20.0977C15.4785 21.0156 16.8652 20.4395 16.3477 19.4434L14.834 16.3379C14.7168 16.1133 14.5605 15.8691 14.4141 15.6641L13.4375 14.2676L13.4961 14.0723C13.7695 13.3008 13.8672 12.832 13.916 12.0605L14.0723 9.90234C14.1406 8.85742 13.5352 8.08594 12.4805 8.08594C11.709 8.08594 11.1816 8.49609 10.4395 9.20898ZM14.6484 11.5625L15.127 12.041C15.3711 12.2852 15.5762 12.3535 16.0254 12.3535L17.6367 12.3535C18.0762 12.3535 18.3594 12.0996 18.3594 11.6895C18.3594 11.2891 18.0762 11.0352 17.6367 11.0352L15.8984 11.0352L14.7852 9.79492ZM11.7383 5.83984C11.7383 6.69922 12.4414 7.41211 13.3203 7.41211C14.1895 7.41211 14.8926 6.69922 14.8926 5.83984C14.8926 4.96094 14.1895 4.25781 13.3203 4.25781C12.4414 4.25781 11.7383 4.96094 11.7383 5.83984Z" fill="black" fill-opacity="0.85"/>
 </g>
</svg>
