<?xml version="1.0" encoding="UTF-8"?>
<!--Generator: Apple Native CoreSVG 326-->
<!DOCTYPE svg
PUBLIC "-//W3C//DTD SVG 1.1//EN"
       "http://www.w3.org/Graphics/SVG/1.1/DTD/svg11.dtd">
<svg version="1.1" xmlns="http://www.w3.org/2000/svg" xmlns:xlink="http://www.w3.org/1999/xlink" viewBox="0 0 25.8008 25.459">
 <g>
  <rect height="25.459" opacity="0" width="25.8008" x="0" y="0"/>
  <path d="M12.7148 25.4395C19.7363 25.4395 25.4395 19.7461 25.4395 12.7246C25.4395 5.70312 19.7363 0 12.7148 0C5.69336 0 0 5.70312 0 12.7246C0 19.7461 5.69336 25.4395 12.7148 25.4395ZM12.7148 23.623C6.68945 23.623 1.81641 18.75 1.81641 12.7246C1.81641 6.69922 6.68945 1.82617 12.7148 1.82617C18.7402 1.82617 23.6133 6.69922 23.6133 12.7246C23.6133 18.75 18.7402 23.623 12.7148 23.623Z" fill="black" fill-opacity="0.85"/>
  <path d="M9.27734 7.97852C10.1172 7.97852 10.8008 7.30469 10.8008 6.45508C10.8008 5.625 10.1172 4.94141 9.27734 4.94141C8.44727 4.94141 7.76367 5.625 7.76367 6.45508C7.76367 7.30469 8.44727 7.97852 9.27734 7.97852ZM11.6797 19.7363C12.0117 19.834 12.4316 19.6582 12.5391 19.2383L13.584 15.4297C13.7207 14.9414 13.5254 14.5898 13.0176 14.4629L9.9707 13.5938L10.2148 10.9082C10.2148 10.8203 10.3125 10.7812 10.3809 10.8301L11.7969 11.8457C12.0508 12.0215 12.373 12.0215 12.6172 11.8457L15.0977 10.0781C15.4102 9.85352 15.4785 9.41406 15.2539 9.0918C15.0293 8.76953 14.5898 8.70117 14.2773 8.91602L12.2168 10.4004L10.5176 9.18945C10.166 8.91602 9.72656 8.74023 9.19922 8.74023C8.30078 8.74023 7.62695 9.30664 7.57812 10.1074L7.33398 13.418C7.26562 14.3945 7.73438 15.127 8.84766 15.293L12.0215 15.752L11.1719 18.8672C11.0645 19.2773 11.2891 19.6387 11.6797 19.7363ZM18.0371 11.123C19.0723 11.123 19.9316 10.2637 19.9316 9.23828C19.9316 8.21289 19.0723 7.35352 18.0371 7.35352C17.0117 7.35352 16.1621 8.21289 16.1621 9.23828C16.1621 10.2637 17.0117 11.123 18.0371 11.123ZM18.0371 10.3418C17.3926 10.3418 16.9336 9.89258 16.9336 9.23828C16.9336 8.60352 17.3926 8.13477 18.0371 8.13477C18.6816 8.13477 19.1504 8.60352 19.1504 9.23828C19.1504 9.89258 18.6816 10.3418 18.0371 10.3418ZM13.4375 19.8047L17.3633 19.8047C17.7637 19.8047 17.8711 19.2969 17.5586 19.082L16.1621 18.1738C16.3086 17.9492 16.3867 17.7148 16.4648 17.4414L18.1152 10.918L17.334 10.7227L15.7031 17.2559C15.4395 18.3008 14.5312 19.0137 13.4375 19.0137C13.2227 19.0137 13.0469 19.1992 13.0469 19.4043C13.0469 19.6094 13.2129 19.8047 13.4375 19.8047ZM8.29102 17.168L9.66797 16.8848C9.85352 16.8457 9.96094 16.6797 9.96094 16.4941C9.96094 16.3086 9.82422 16.1523 9.6582 16.123L7.30469 15.7324C6.9043 15.6543 6.77734 16.0156 6.89453 16.2891L7.03125 16.543C7.27539 17.041 7.67578 17.2949 8.29102 17.168ZM7.25586 19.8047L10.2734 19.8047C10.498 19.8047 10.6641 19.6094 10.6641 19.4043C10.6641 19.1895 10.498 19.0137 10.2734 19.0137C9.81445 19.0137 9.49219 18.8281 9.36523 18.2715L8.95508 16.4355L8.18359 16.6113L8.51562 18.1152L7.03125 19.082C6.71875 19.2969 6.81641 19.8047 7.25586 19.8047Z" fill="black" fill-opacity="0.85"/>
 </g>
</svg>
