<?xml version="1.0" encoding="UTF-8"?>
<!--Generator: Apple Native CoreSVG 326-->
<!DOCTYPE svg
PUBLIC "-//W3C//DTD SVG 1.1//EN"
       "http://www.w3.org/Graphics/SVG/1.1/DTD/svg11.dtd">
<svg version="1.1" xmlns="http://www.w3.org/2000/svg" xmlns:xlink="http://www.w3.org/1999/xlink" viewBox="0 0 25.8008 25.459">
 <g>
  <rect height="25.459" opacity="0" width="25.8008" x="0" y="0"/>
  <path d="M25.4395 12.7246C25.4395 19.7266 19.7266 25.4395 12.7148 25.4395C5.71289 25.4395 0 19.7266 0 12.7246C0 5.71289 5.71289 0 12.7148 0C19.7266 0 25.4395 5.71289 25.4395 12.7246ZM9.01367 4.31641L6.66992 10.4297C6.55273 10.7324 6.65039 11.0059 6.82617 11.1816L8.63281 13.0078C8.91602 13.2812 9.38477 13.2812 9.66797 13.0078L10.4785 12.1973C10.5957 12.0898 10.752 12.0898 10.791 12.2559L11.2305 13.9941L8.7207 15.8789C8.53516 16.0156 8.44727 16.2207 8.41797 16.4355L7.73438 20.127C7.67578 20.5176 7.93945 20.918 8.34961 20.9961C8.74023 21.0645 9.11133 20.8105 9.18945 20.3906L9.81445 16.9629L12.666 15.4102C12.7344 15.3711 12.8125 15.3906 12.8516 15.459L14.2773 18.9258C14.3555 19.1016 14.4922 19.2383 14.6484 19.3164L17.5781 20.9473C17.998 21.1719 18.4082 20.9961 18.5742 20.6738C18.7891 20.3125 18.6621 19.8633 18.3008 19.6582L15.5957 18.1641L13.5645 10.0293C13.457 9.55078 13.0273 9.18945 12.5 9.18945L8.14453 9.18945L10.1758 4.86328C10.459 4.27734 10.0488 3.89648 9.61914 3.89648C9.375 3.89648 9.14062 4.02344 9.01367 4.31641ZM9.16016 11.4355L8.39844 10.6738L9.90234 10.6738ZM10.6641 6.86523C10.6641 7.73438 11.377 8.41797 12.2266 8.41797C13.0762 8.41797 13.7793 7.73438 13.7793 6.86523C13.7793 6.01562 13.0762 5.33203 12.2266 5.33203C11.377 5.33203 10.6641 6.01562 10.6641 6.86523Z" fill="black" fill-opacity="0.85"/>
 </g>
</svg>
