<?xml version="1.0" encoding="UTF-8"?>
<!--Generator: Apple Native CoreSVG 326-->
<!DOCTYPE svg
PUBLIC "-//W3C//DTD SVG 1.1//EN"
       "http://www.w3.org/Graphics/SVG/1.1/DTD/svg11.dtd">
<svg version="1.1" xmlns="http://www.w3.org/2000/svg" xmlns:xlink="http://www.w3.org/1999/xlink" viewBox="0 0 13.2547 27.6533">
 <g>
  <rect height="27.6533" opacity="0" width="13.2547" x="0" y="0"/>
  <path d="M0.00135466 1.14601L0.23573 5.51124C0.274792 6.28273 0.567761 6.74171 1.13417 7.15187L3.82948 9.12453C4.16151 9.3589 4.35682 9.54445 4.35682 10.1304L4.35682 26.3609C4.35682 27.0347 4.88417 27.562 5.54823 27.562C6.21229 27.562 6.7494 27.0347 6.7494 26.3609L6.7494 17.6011C6.7494 17.3862 6.93495 17.2007 7.14979 17.2007C7.36464 17.2007 7.55018 17.3862 7.55018 17.6011L7.55018 26.3609C7.55018 27.0347 8.07753 27.562 8.74159 27.562C9.40565 27.562 9.94276 27.0347 9.94276 26.3609L9.94276 11.937C9.94276 11.7222 10.1185 11.5464 10.3334 11.5464C10.5482 11.5464 10.724 11.7222 10.724 11.937L10.724 16.7222C10.724 17.3277 11.2025 17.8062 11.808 17.8062C12.4135 17.8062 12.892 17.3277 12.892 16.7222L12.892 11.3804C12.892 8.64601 10.8998 6.8296 8.0287 6.8296L5.4994 6.8296C4.75721 6.8296 4.29823 6.69288 3.70253 6.2632L2.4037 5.33546L2.16932 1.03859C2.14003 0.433119 1.63221-0.0453965 1.02675 0.00343166C0.421277 0.0522598-0.0279422 0.550307 0.00135466 1.14601ZM7.14979 5.41359C8.64393 5.41359 9.83534 4.21242 9.83534 2.71828C9.83534 1.22413 8.64393 0.0327285 7.14979 0.0327285C5.65565 0.0327285 4.45448 1.22413 4.45448 2.71828C4.45448 4.21242 5.65565 5.41359 7.14979 5.41359Z" fill="black" fill-opacity="0.85"/>
 </g>
</svg>
