<?xml version="1.0" encoding="UTF-8"?>
<!--Generator: Apple Native CoreSVG 326-->
<!DOCTYPE svg
PUBLIC "-//W3C//DTD SVG 1.1//EN"
       "http://www.w3.org/Graphics/SVG/1.1/DTD/svg11.dtd">
<svg version="1.1" xmlns="http://www.w3.org/2000/svg" xmlns:xlink="http://www.w3.org/1999/xlink" viewBox="0 0 37.9802 24.834">
 <g>
  <rect height="24.834" opacity="0" width="37.9802" x="0" y="0"/>
  <path d="M18.3407 10.918L18.3407 13.9355C18.3407 14.8047 18.9852 15.4492 19.8446 15.4492L22.2274 15.4492C23.0965 15.4492 23.7313 14.8047 23.7313 13.9355L23.7313 10.918C23.7313 10.0488 23.0965 9.4043 22.2274 9.4043L19.8446 9.4043C18.9852 9.4043 18.3407 10.0488 18.3407 10.918ZM25.2743 10.918L25.2743 13.9355C25.2743 14.8047 25.9188 15.4492 26.7977 15.4492L29.1707 15.4492C30.0399 15.4492 30.6746 14.8047 30.6746 13.9355L30.6746 10.918C30.6746 10.0488 30.0399 9.4043 29.1707 9.4043L26.7977 9.4043C25.9188 9.4043 25.2743 10.0488 25.2743 10.918ZM32.2079 10.918L32.2079 13.9355C32.2079 14.8047 32.8524 15.4492 33.7313 15.4492L36.1043 15.4492C36.9735 15.4492 37.618 14.8047 37.618 13.9355L37.618 10.918C37.618 10.0488 36.9735 9.4043 36.1043 9.4043L33.7313 9.4043C32.8524 9.4043 32.2079 10.0488 32.2079 10.918ZM21.0457 13.7207C20.3329 13.7207 19.7274 13.1445 19.7274 12.4121C19.7274 11.709 20.3329 11.123 21.0457 11.123C21.7489 11.123 22.3446 11.709 22.3446 12.4121C22.3446 13.1445 21.7489 13.7207 21.0457 13.7207ZM27.9793 13.7207C27.2664 13.7207 26.6707 13.1445 26.6707 12.4121C26.6707 11.709 27.2664 11.123 27.9793 11.123C28.6727 11.123 29.2782 11.709 29.2782 12.4121C29.2782 13.1445 28.6727 13.7207 27.9793 13.7207ZM34.9129 13.7207C34.2 13.7207 33.5946 13.1445 33.5946 12.4121C33.5946 11.709 34.2 11.123 34.9129 11.123C35.6161 11.123 36.2118 11.709 36.2118 12.4121C36.2118 13.1445 35.6161 13.7207 34.9129 13.7207ZM25.45 7.55859L30.4793 7.55859C30.8211 7.55859 30.8993 7.1875 30.6258 7.00195L28.3309 5.43945C28.0868 5.27344 27.8426 5.27344 27.5985 5.43945L25.3036 7.00195C25.0301 7.1875 25.1082 7.55859 25.45 7.55859Z" fill="black" fill-opacity="0.85"/>
  <path d="M7.15902 5.48828C8.66293 5.48828 9.87387 4.22852 9.87387 2.76367C9.87387 1.24023 8.66293 0 7.15902 0C5.62582 0 4.43441 1.24023 4.43441 2.76367C4.43441 4.27734 5.62582 5.48828 7.15902 5.48828ZM1.89535 15.7129L9.74691 7.00195C8.9559 6.69922 8.11605 6.58203 7.15902 6.58203C3.62387 6.58203 1.53402 8.28125 1.53402 11.123C1.53402 11.8164 1.57308 12.7344 1.67074 13.6621ZM12.4129 15.7129L12.6375 13.6621C12.7352 12.7344 12.7743 11.8164 12.7743 11.123C12.7743 9.70703 12.2762 8.56445 11.2704 7.7832L4.98129 14.7852C5.71371 14.6582 6.43637 14.6094 7.15902 14.6094C8.8973 14.6094 10.6356 14.8438 12.4129 15.7129ZM4.14144 24.7754C4.85433 24.668 5.35238 24.1504 5.24496 23.2617L4.74691 18.7012L9.5516 18.7012L9.07308 23.2617C8.98519 24.1504 9.44418 24.668 10.1668 24.7754C10.909 24.8438 11.4852 24.3848 11.5731 23.5059L12.2176 17.4609C10.6161 16.543 8.85824 16.1914 7.15902 16.1914C5.45004 16.1914 3.68246 16.543 2.11019 17.4609L2.73519 23.5059C2.82308 24.3848 3.38949 24.8438 4.14144 24.7754ZM11.2704 7.77344L13.6141 5.16602C13.995 4.72656 13.9657 4.24805 13.5848 3.92578C13.2332 3.61328 12.7743 3.60352 12.3739 4.0625L9.74691 7.00195C10.2938 7.2168 10.8114 7.48047 11.2704 7.77344ZM0.362147 16.6406C-0.0675404 16.9531-0.077306 17.4414 0.137538 17.7734C0.33285 18.1152 0.772303 18.2812 1.23129 17.998C1.52426 17.8027 1.79769 17.627 2.11019 17.4609L1.89535 15.7129C1.33871 15.9668 0.830897 16.2695 0.362147 16.6406ZM13.9559 16.6406C13.4774 16.2695 12.9793 15.9668 12.4129 15.7129L12.2079 17.4609C12.5106 17.627 12.7938 17.8027 13.0868 17.998C13.536 18.2812 13.9657 18.125 14.1707 17.793C14.3856 17.4609 14.3856 16.9629 13.9559 16.6406Z" fill="black" fill-opacity="0.85"/>
 </g>
</svg>
