<?xml version="1.0" encoding="UTF-8"?>
<!--Generator: Apple Native CoreSVG 326-->
<!DOCTYPE svg
PUBLIC "-//W3C//DTD SVG 1.1//EN"
       "http://www.w3.org/Graphics/SVG/1.1/DTD/svg11.dtd">
<svg version="1.1" xmlns="http://www.w3.org/2000/svg" xmlns:xlink="http://www.w3.org/1999/xlink" viewBox="0 0 39.6474 25.166">
 <g>
  <rect height="25.166" opacity="0" width="39.6474" x="0" y="0"/>
  <path d="M6.58149 6.73828C4.72603 6.73828 3.23188 5.19531 3.23188 3.39844C3.23188 1.52344 4.72603 0 6.58149 0C8.45649 0 9.95063 1.52344 9.95063 3.39844C9.95063 5.26367 8.45649 6.73828 6.58149 6.73828ZM26.5717 24.4727C25.937 25.1465 24.8334 25.0879 24.0424 24.2773L18.7006 18.7598C18.5249 18.5742 18.3979 18.5254 18.1245 18.6328L13.8862 20.2441C11.2202 21.2598 8.72017 20.3223 7.51899 18.125L4.89204 13.3594C3.84712 11.4453 4.18892 9.49219 5.99556 8.53516C7.7436 7.56836 9.56001 8.29102 10.6245 10.2344L14.101 16.582L17.06 15.5078C18.5249 14.9707 19.7456 15.1367 20.9174 16.3477L26.4643 22.0898C27.2358 22.8809 27.1577 23.877 26.5717 24.4727Z" fill="black" fill-opacity="0.85"/>
  <path d="M25.7319 3.79883L29.1108 8.13477C29.267 8.32031 29.4917 8.36914 29.7065 8.25195C30.4975 7.83203 31.6596 7.53906 32.5776 7.53906C33.5151 7.53906 34.687 7.83203 35.4584 8.25195C35.6831 8.36914 35.9272 8.32031 36.0639 8.13477L39.4526 3.79883C39.7553 3.39844 39.6967 2.99805 39.3354 2.71484C37.9292 1.65039 35.2924 0.839844 32.5776 0.839844C29.9018 0.839844 27.2553 1.65039 25.8588 2.71484C25.478 2.99805 25.4389 3.4082 25.7319 3.79883ZM29.2866 10.7227C28.9155 10.2246 28.7592 9.75586 28.7592 9.23828C28.7592 8.10547 29.7065 7.75391 29.7065 7.08008C29.7065 6.39648 28.7592 6.07422 28.7592 4.90234C28.7592 4.39453 28.9155 3.92578 29.2963 3.42773C29.7065 2.93945 30.4389 3.45703 30.0483 3.98438C29.7651 4.36523 29.6772 4.58984 29.6772 4.90234C29.6772 5.75195 30.6245 6.00586 30.6245 7.08008C30.6245 8.16406 29.6772 8.42773 29.6772 9.23828C29.6772 9.58008 29.7651 9.78516 30.0385 10.166C30.4194 10.6836 29.6967 11.2012 29.2866 10.7227ZM32.1967 10.7227C31.8354 10.2246 31.6694 9.75586 31.6694 9.23828C31.6694 8.10547 32.6069 7.75391 32.6069 7.08008C32.6069 6.39648 31.6694 6.07422 31.6694 4.90234C31.6694 4.39453 31.8256 3.92578 32.1967 3.42773C32.6069 2.93945 33.3491 3.45703 32.9584 3.98438C32.6752 4.36523 32.5971 4.58984 32.5971 4.90234C32.5971 5.75195 33.5346 6.00586 33.5346 7.08008C33.5346 8.16406 32.5971 8.42773 32.5971 9.23828C32.5971 9.58008 32.6752 9.78516 32.9487 10.166C33.3295 10.6836 32.5971 11.2012 32.1967 10.7227ZM35.1264 10.7227C34.7456 10.2246 34.5795 9.75586 34.5795 9.23828C34.5795 8.10547 35.5366 7.75391 35.5366 7.08008C35.5366 6.39648 34.5795 6.07422 34.5795 4.90234C34.5795 4.39453 34.7358 3.92578 35.1362 3.42773C35.5366 2.93945 36.269 3.45703 35.8686 3.98438C35.5952 4.36523 35.5073 4.58984 35.5073 4.90234C35.5073 5.75195 36.4545 6.00586 36.4545 7.08008C36.4545 8.16406 35.5073 8.42773 35.5073 9.23828C35.5073 9.58008 35.5952 9.78516 35.8686 10.166C36.2495 10.6836 35.5268 11.2012 35.1264 10.7227ZM24.8237 5.26367C24.8237 4.83398 24.4721 4.48242 24.0229 4.48242L18.8471 4.48242L18.8471 2.32422C18.8471 1.48438 17.9975 1.19141 17.4213 1.70898L14.0327 4.64844C13.6127 5.01953 13.603 5.53711 14.0327 5.91797L17.4213 8.85742C18.017 9.39453 18.8471 9.0332 18.8471 8.24219L18.8471 6.07422L24.0229 6.07422C24.4721 6.07422 24.8237 5.72266 24.8237 5.26367Z" fill="black" fill-opacity="0.85"/>
 </g>
</svg>
