<?xml version="1.0" encoding="UTF-8"?>
<!--Generator: Apple Native CoreSVG 326-->
<!DOCTYPE svg
PUBLIC "-//W3C//DTD SVG 1.1//EN"
       "http://www.w3.org/Graphics/SVG/1.1/DTD/svg11.dtd">
<svg version="1.1" xmlns="http://www.w3.org/2000/svg" xmlns:xlink="http://www.w3.org/1999/xlink" viewBox="0 0 25.8008 25.459">
 <g>
  <rect height="25.459" opacity="0" width="25.8008" x="0" y="0"/>
  <path d="M12.7148 25.4395C19.7363 25.4395 25.4395 19.7461 25.4395 12.7246C25.4395 5.70312 19.7363 0 12.7148 0C5.69336 0 0 5.70312 0 12.7246C0 19.7461 5.69336 25.4395 12.7148 25.4395ZM12.7148 23.623C6.68945 23.623 1.81641 18.75 1.81641 12.7246C1.81641 6.69922 6.68945 1.82617 12.7148 1.82617C18.7402 1.82617 23.6133 6.69922 23.6133 12.7246C23.6133 18.75 18.7402 23.623 12.7148 23.623Z" fill="black" fill-opacity="0.85"/>
  <path d="M4.72656 15.3711L5.42969 15.3711C7.31445 15.3711 7.75391 14.1992 9.0625 14.1992C10.3711 14.1992 10.8105 15.3711 12.6953 15.3711C14.5898 15.3711 15.0195 14.1992 16.3379 14.1992C17.6367 14.1992 18.0762 15.3711 19.9707 15.3711L20.6641 15.3711C20.8691 15.3711 21.0547 15.1953 21.0547 14.9805C21.0547 14.7656 20.8691 14.5898 20.6641 14.5898L19.9707 14.5898C18.623 14.5898 18.1543 13.4277 16.3379 13.4277C14.5312 13.4277 14.0527 14.5898 12.6953 14.5898C11.3379 14.5898 10.8594 13.4277 9.0625 13.4277C7.24609 13.4277 6.77734 14.5898 5.42969 14.5898L4.72656 14.5898C4.53125 14.5898 4.33594 14.7656 4.33594 14.9805C4.33594 15.1953 4.53125 15.3711 4.72656 15.3711ZM4.93164 17.2754C5.13672 17.2754 5.3125 17.1094 5.3125 16.8945C5.3125 16.6895 5.13672 16.5137 4.93164 16.5137C4.7168 16.5137 4.55078 16.6895 4.55078 16.8945C4.55078 17.1094 4.7168 17.2754 4.93164 17.2754ZM6.25 17.0312C6.46484 17.0312 6.63086 16.8652 6.63086 16.6602C6.63086 16.4453 6.46484 16.2793 6.25 16.2793C6.04492 16.2793 5.86914 16.4453 5.86914 16.6602C5.86914 16.8652 6.04492 17.0312 6.25 17.0312ZM7.5 16.4551C7.70508 16.4551 7.88086 16.2891 7.88086 16.0742C7.88086 15.8691 7.70508 15.6934 7.5 15.6934C7.28516 15.6934 7.11914 15.8691 7.11914 16.0742C7.11914 16.2891 7.28516 16.4551 7.5 16.4551ZM8.81836 16.1523C9.0332 16.1523 9.19922 15.9766 9.19922 15.7715C9.19922 15.5566 9.0332 15.3906 8.81836 15.3906C8.61328 15.3906 8.4375 15.5566 8.4375 15.7715C8.4375 15.9766 8.61328 16.1523 8.81836 16.1523ZM10.1367 16.4551C10.3516 16.4551 10.5176 16.2891 10.5176 16.0742C10.5176 15.8691 10.3516 15.6934 10.1367 15.6934C9.93164 15.6934 9.76562 15.8691 9.76562 16.0742C9.76562 16.2891 9.93164 16.4551 10.1367 16.4551ZM11.3867 17.0312C11.5918 17.0312 11.7578 16.8652 11.7578 16.6602C11.7578 16.4453 11.5918 16.2793 11.3867 16.2793C11.1719 16.2793 11.0059 16.4453 11.0059 16.6602C11.0059 16.8652 11.1719 17.0312 11.3867 17.0312ZM20.4883 17.2754C20.6934 17.2754 20.8594 17.1094 20.8594 16.8945C20.8594 16.6895 20.6934 16.5137 20.4883 16.5137C20.2734 16.5137 20.1074 16.6895 20.1074 16.8945C20.1074 17.1094 20.2734 17.2754 20.4883 17.2754ZM19.1602 17.0312C19.375 17.0312 19.541 16.8652 19.541 16.6602C19.541 16.4453 19.375 16.2793 19.1602 16.2793C18.9551 16.2793 18.7891 16.4453 18.7891 16.6602C18.7891 16.8652 18.9551 17.0312 19.1602 17.0312ZM17.9199 16.4551C18.125 16.4551 18.291 16.2891 18.291 16.0742C18.291 15.8691 18.125 15.6934 17.9199 15.6934C17.7051 15.6934 17.5391 15.8691 17.5391 16.0742C17.5391 16.2891 17.7051 16.4551 17.9199 16.4551ZM16.5918 16.1523C16.8066 16.1523 16.9727 15.9766 16.9727 15.7715C16.9727 15.5566 16.8066 15.3906 16.5918 15.3906C16.3867 15.3906 16.2207 15.5566 16.2207 15.7715C16.2207 15.9766 16.3867 16.1523 16.5918 16.1523ZM15.2734 16.4551C15.4785 16.4551 15.6543 16.2891 15.6543 16.0742C15.6543 15.8691 15.4785 15.6934 15.2734 15.6934C15.0586 15.6934 14.8926 15.8691 14.8926 16.0742C14.8926 16.2891 15.0586 16.4551 15.2734 16.4551ZM14.0332 17.0312C14.2383 17.0312 14.4043 16.8652 14.4043 16.6602C14.4043 16.4453 14.2383 16.2793 14.0332 16.2793C13.8184 16.2793 13.6523 16.4453 13.6523 16.6602C13.6523 16.8652 13.8184 17.0312 14.0332 17.0312ZM12.7051 17.2754C12.9199 17.2754 13.0859 17.1094 13.0859 16.8945C13.0859 16.6895 12.9199 16.5137 12.7051 16.5137C12.5 16.5137 12.3242 16.6895 12.3242 16.8945C12.3242 17.1094 12.5 17.2754 12.7051 17.2754ZM16.3574 11.7383C17.1973 11.7383 17.8711 11.0645 17.8711 10.2148C17.8711 9.375 17.1973 8.70117 16.3574 8.70117C15.5176 8.70117 14.8438 9.375 14.8438 10.2148C14.8438 11.0645 15.5176 11.7383 16.3574 11.7383ZM10.4785 12.6953C11.25 13.0273 11.6992 13.5645 12.6953 13.5645C13.8477 13.5645 14.2285 12.8418 15.2832 12.5488L11.416 8.52539C11.1035 8.20312 10.6445 8.16406 10.2637 8.42773L7.53906 10.3613C7.07031 10.6934 7.11914 11.1914 7.39258 11.4941C7.61719 11.7285 8.01758 11.8359 8.4082 11.5625L10.625 10L11.875 11.2793C12.0215 11.4258 12.0508 11.6504 11.8457 11.7969Z" fill="black" fill-opacity="0.85"/>
 </g>
</svg>
