<?xml version="1.0" encoding="UTF-8"?>
<!--Generator: Apple Native CoreSVG 326-->
<!DOCTYPE svg
PUBLIC "-//W3C//DTD SVG 1.1//EN"
       "http://www.w3.org/Graphics/SVG/1.1/DTD/svg11.dtd">
<svg version="1.1" xmlns="http://www.w3.org/2000/svg" xmlns:xlink="http://www.w3.org/1999/xlink" viewBox="0 0 30.3007 28.6529">
 <g>
  <rect height="28.6529" opacity="0" width="30.3007" x="0" y="0"/>
  <path d="M21.3076 8.64772L21.3076 11.6492C22.7428 11.826 23.5341 12.8095 23.5341 14.4973L23.5341 23.384C23.5341 25.259 22.5576 26.2649 20.8095 26.2649L13.3407 26.2649C13.3483 26.0183 13.3192 25.7537 13.2509 25.4739L13.048 24.634L20.7704 24.634C21.4052 24.634 21.7958 24.2044 21.7958 23.4915L21.7958 14.3801C21.7958 13.6672 21.4052 13.2473 20.7704 13.2473L12.6161 13.2473L11.2001 12.6614C11.3781 12.3372 11.5065 11.9881 11.5733 11.6165L19.5986 11.6165L19.5986 8.4524C19.5986 5.20045 17.5185 3.35475 14.9697 3.35475C12.4729 3.35475 10.4503 5.11239 10.3597 8.22323C9.90288 7.82733 9.34433 7.54655 8.72673 7.42188C9.20415 3.67664 11.9108 1.72389 14.9697 1.72389C18.3388 1.72389 21.3076 4.1067 21.3076 8.64772Z" fill="black" fill-opacity="0.85"/>
  <path d="M7.99701 13.0715C9.15912 13.0715 10.0771 12.1438 10.0771 11.0012C10.0771 9.83912 9.15912 8.90162 7.99701 8.90162C6.85443 8.90162 5.90716 9.83912 5.90716 11.0012C5.90716 12.1438 6.85443 13.0715 7.99701 13.0715ZM7.98724 20.4153C8.27045 20.4153 8.49506 20.5911 8.58295 20.9133L10.0087 26.3821C10.3212 27.5833 11.9619 27.1633 11.7958 26.0501C11.7079 25.5715 10.497 20.9426 10.3115 19.9172C10.1943 19.1751 10.2431 17.2805 10.2431 16.304C10.2431 16.0696 10.4482 15.9231 10.6923 16.0208L13.1533 17.0169C13.788 17.2805 14.2372 16.9778 14.374 16.5579C14.5107 16.138 14.3349 15.6301 13.7294 15.386L11.1318 14.3215C10.5068 14.0676 9.9306 13.9212 9.28607 13.843C8.88568 14.0286 8.45599 14.136 7.98724 14.136C7.51849 14.136 7.07904 14.0286 6.67865 13.843C6.04388 13.9212 5.45795 14.0676 4.84271 14.3215L2.24506 15.386C1.63959 15.6301 1.46381 16.138 1.60052 16.5579C1.72748 16.9778 2.1767 17.2805 2.82123 17.0169L5.28216 16.0208C5.51654 15.9231 5.73138 16.0696 5.73138 16.304C5.73138 17.2805 5.78021 19.1751 5.65326 19.9172C5.47748 20.9426 4.25677 25.5715 4.17865 26.0501C4.01263 27.1633 5.65326 27.5833 5.96576 26.3821L7.39154 20.9133C7.47943 20.5911 7.70404 20.4153 7.98724 20.4153Z" fill="black" fill-opacity="0.85"/>
 </g>
</svg>
