<?xml version="1.0" encoding="UTF-8"?>
<!--Generator: Apple Native CoreSVG 326-->
<!DOCTYPE svg
PUBLIC "-//W3C//DTD SVG 1.1//EN"
       "http://www.w3.org/Graphics/SVG/1.1/DTD/svg11.dtd">
<svg version="1.1" xmlns="http://www.w3.org/2000/svg" xmlns:xlink="http://www.w3.org/1999/xlink" viewBox="0 0 25.8008 25.459">
 <g>
  <rect height="25.459" opacity="0" width="25.8008" x="0" y="0"/>
  <path d="M12.7148 25.4395C19.7363 25.4395 25.4395 19.7461 25.4395 12.7246C25.4395 5.70312 19.7363 0 12.7148 0C5.69336 0 0 5.70312 0 12.7246C0 19.7461 5.69336 25.4395 12.7148 25.4395ZM12.7148 23.623C6.68945 23.623 1.81641 18.75 1.81641 12.7246C1.81641 6.69922 6.68945 1.82617 12.7148 1.82617C18.7402 1.82617 23.6133 6.69922 23.6133 12.7246C23.6133 18.75 18.7402 23.623 12.7148 23.623Z" fill="black" fill-opacity="0.85"/>
  <path d="M15.6445 8.60352C16.4746 8.60352 17.1582 7.92969 17.1582 7.08984C17.1582 6.25 16.4746 5.56641 15.6445 5.56641C14.8047 5.56641 14.1113 6.25 14.1113 7.08984C14.1113 7.92969 14.8047 8.60352 15.6445 8.60352ZM9.88281 9.58008L13.5938 13.0469C13.8672 13.3105 14.2969 13.291 14.5605 13.0273C14.8145 12.7539 14.8047 12.334 14.5215 12.0703L13.1934 10.8398L13.75 10.5469C13.877 10.4785 14.0234 10.498 14.1211 10.5957L15.332 11.7285L15.332 14.4434C15.332 14.8242 15.6445 15.127 16.0059 15.127C16.3867 15.127 16.6895 14.8242 16.6895 14.4434L16.6895 11.416C16.6895 11.2207 16.6016 11.0547 16.4258 10.8887L13.5547 8.22266C13.0176 7.72461 12.207 7.65625 11.5234 7.91992L10.0684 8.4668C9.64844 8.61328 9.45312 9.16016 9.88281 9.58008ZM9.33594 9.85352L9.18945 9.93164C8.00781 10.5469 7.72461 11.9824 8.85742 12.8711L11.3477 14.8438L9.81445 17.5977C9.62891 17.9199 9.77539 18.3203 10.0977 18.5059C10.3613 18.6621 10.8008 18.5938 11.0059 18.2129L12.793 14.9512C12.9395 14.6875 12.8809 14.3945 12.6855 14.1699L10.7324 12.0605L11.3281 11.7285L9.51172 10.0391C9.46289 9.98047 9.38477 9.90234 9.33594 9.85352ZM4.69727 15.9375L7.94922 15.9375C8.22266 15.9375 8.44727 15.7812 8.55469 15.5762L9.33594 13.9941L8.48633 13.3301C8.29102 13.1641 8.125 13.0078 8.03711 12.8711L7.4707 14.5898L4.69727 14.5898C4.31641 14.5898 4.02344 14.8926 4.02344 15.2734C4.02344 15.6348 4.31641 15.9375 4.69727 15.9375ZM20.0293 17.959C20.6934 17.9395 21.1621 17.4805 21.1426 16.8457C21.1426 16.543 20.918 16.2598 20.625 16.2695C20.4004 16.2695 20.2441 16.416 20.2441 16.6504L20.2441 16.8262C20.2441 17.0996 19.9512 17.2461 19.6582 16.9727L12.3047 10.459L11.7969 10.8105L19.0234 17.5488C19.3164 17.8125 19.6582 17.959 20.0293 17.959ZM16.748 19.1309C17.2461 19.1309 17.666 18.7207 17.666 18.2129C17.666 17.6953 17.2461 17.2754 16.748 17.2754C16.2305 17.2754 15.8203 17.6953 15.8203 18.2129C15.8203 18.7207 16.2305 19.1309 16.748 19.1309Z" fill="black" fill-opacity="0.85"/>
 </g>
</svg>
