<?xml version="1.0" encoding="UTF-8"?>
<!--Generator: Apple Native CoreSVG 326-->
<!DOCTYPE svg
PUBLIC "-//W3C//DTD SVG 1.1//EN"
       "http://www.w3.org/Graphics/SVG/1.1/DTD/svg11.dtd">
<svg version="1.1" xmlns="http://www.w3.org/2000/svg" xmlns:xlink="http://www.w3.org/1999/xlink" viewBox="0 0 26.3379 32.8418">
 <g>
  <rect height="32.8418" opacity="0" width="26.3379" x="0" y="0"/>
  <path d="M18.6363 3.53516L7.34027 3.53516C7.40282 2.64931 7.97728 2.12891 8.91602 2.12891L17.0605 2.12891C17.9993 2.12891 18.5737 2.64931 18.6363 3.53516Z" fill="black" fill-opacity="0.85"/>
  <path d="M21.1564 6.942C20.8094 6.88925 20.4418 6.86523 20.0586 6.86523L5.91797 6.86523C5.53117 6.86523 5.16046 6.88947 4.81065 6.94255C4.9444 5.91296 5.65963 5.33203 6.80664 5.33203L19.1699 5.33203C20.3167 5.33203 21.0241 5.91275 21.1564 6.942Z" fill="black" fill-opacity="0.85"/>
  <path d="M23.8574 12.7441L23.8574 26.9629C23.8574 29.4531 22.5781 30.7324 20.0586 30.7324L5.91797 30.7324C3.38867 30.7324 2.11914 29.4629 2.11914 26.9629L2.11914 12.7441C2.11914 10.2539 3.38867 8.98438 5.91797 8.98438L20.0586 8.98438C22.5781 8.98438 23.8574 10.2637 23.8574 12.7441ZM10.1465 23.9355L7.73438 26.3184C7.37305 26.6797 7.43164 27.1289 7.72461 27.4023C8.00781 27.6172 8.38867 27.6367 8.75 27.2949L11.0547 25.0098C11.2598 24.8047 11.2988 24.7754 11.416 24.4629L12.4512 21.8848L12.207 21.748C11.748 21.4844 11.2988 21.2207 11.0352 20.8398ZM12.6562 15.4785L10.1465 15.6543C9.75586 15.6836 9.48242 15.9473 9.43359 16.3477L9.0918 18.8867C9.0332 19.3262 9.24805 19.6289 9.63867 19.6777C10.0195 19.7168 10.2637 19.4727 10.3418 19.043L10.6445 16.9531L11.6699 16.8848C11.8945 16.875 12.1191 17.0312 12.041 17.3047L11.4551 19.3555C11.1035 20.5566 11.8848 20.8887 12.5 21.2305L15.2344 22.7637L13.4668 24.2871C13.1055 24.5898 13.0957 25.0195 13.3301 25.2734C13.5742 25.5469 13.9844 25.5859 14.3652 25.2539L16.8262 23.1641C17.1582 22.8906 17.0996 22.2754 16.709 22.0215L14.0234 20.2637L14.5605 18.4082C14.6289 18.1348 14.9512 18.0957 15.0977 18.3301L15.8887 19.4727C16.0645 19.7461 16.4062 19.8438 16.709 19.7168L18.9648 18.7012C19.3652 18.5254 19.5215 18.1836 19.3359 17.8125C19.1797 17.4609 18.8379 17.3535 18.4375 17.5391L16.6309 18.3398L15.4004 16.6211C14.7559 15.7324 13.9551 15.3906 12.6562 15.4785ZM13.3887 13.4766C13.3887 14.3262 14.082 15.0293 14.9316 15.0293C15.8008 15.0293 16.4746 14.3262 16.4746 13.4766C16.4746 12.6172 15.8008 11.9238 14.9316 11.9238C14.082 11.9238 13.3887 12.6172 13.3887 13.4766Z" fill="black" fill-opacity="0.85"/>
 </g>
</svg>
