<?xml version="1.0" encoding="UTF-8"?>
<!--Generator: Apple Native CoreSVG 326-->
<!DOCTYPE svg
PUBLIC "-//W3C//DTD SVG 1.1//EN"
       "http://www.w3.org/Graphics/SVG/1.1/DTD/svg11.dtd">
<svg version="1.1" xmlns="http://www.w3.org/2000/svg" xmlns:xlink="http://www.w3.org/1999/xlink" viewBox="0 0 21.875 27.3926">
 <g>
  <rect height="27.3926" opacity="0" width="21.875" x="0" y="0"/>
  <path d="M10.752 5.38086C12.2461 5.38086 13.4375 4.17969 13.4375 2.69531C13.4375 1.20117 12.2461 0 10.752 0C9.25781 0 8.05664 1.20117 8.05664 2.69531C8.05664 4.17969 9.25781 5.38086 10.752 5.38086ZM10.752 17.041C11.2793 17.041 11.5137 17.3828 11.7773 18.2812C12.1582 19.5215 13.4863 24.7266 13.8672 26.2598C14.043 27.0215 14.4434 27.3438 15.0293 27.3438C15.8105 27.3438 16.2793 26.6309 16.0742 25.8594C15.9766 25.5273 14.1602 18.0078 13.9355 16.4551C13.7012 14.873 13.6816 11.4062 13.6816 10.3418C13.6914 9.58008 14.0234 9.11133 14.6582 8.97461C15.2441 8.84766 19.9707 8.32031 20.6055 8.13477C21.1523 7.97852 21.5137 7.53906 21.5137 6.97266C21.5137 6.26953 20.9863 5.83984 20.4688 5.83984C20.2441 5.83984 20.0391 5.88867 19.7852 5.94727C17.9004 6.28906 13.7109 6.72852 10.752 6.72852C7.80273 6.72852 3.59375 6.30859 1.71875 5.94727C1.47461 5.88867 1.25977 5.83984 1.04492 5.83984C0.507812 5.83984 0 6.26953 0 6.97266C0 7.53906 0.341797 8.01758 0.898438 8.13477C1.5625 8.27148 6.25977 8.86719 6.8457 8.97461C7.48047 9.0918 7.82227 9.58008 7.8418 10.3418C7.85156 11.4062 7.80273 14.873 7.56836 16.4551C7.33398 18.0078 5.51758 25.5273 5.42969 25.8594C5.21484 26.6309 5.69336 27.3438 6.47461 27.3438C7.05078 27.3438 7.44141 27.0215 7.64648 26.2598C8.06641 24.7363 9.3457 19.541 9.74609 18.2812C10.0195 17.4023 10.2344 17.041 10.752 17.041Z" fill="black" fill-opacity="0.85"/>
 </g>
</svg>
