<?xml version="1.0" encoding="UTF-8"?>
<!--Generator: Apple Native CoreSVG 326-->
<!DOCTYPE svg
PUBLIC "-//W3C//DTD SVG 1.1//EN"
       "http://www.w3.org/Graphics/SVG/1.1/DTD/svg11.dtd">
<svg version="1.1" xmlns="http://www.w3.org/2000/svg" xmlns:xlink="http://www.w3.org/1999/xlink" viewBox="0 0 25.8008 25.459">
 <g>
  <rect height="25.459" opacity="0" width="25.8008" x="0" y="0"/>
  <path d="M25.4395 12.7246C25.4395 19.7266 19.7266 25.4395 12.7148 25.4395C5.71289 25.4395 0 19.7266 0 12.7246C0 5.71289 5.71289 0 12.7148 0C19.7266 0 25.4395 5.71289 25.4395 12.7246ZM6.42578 17.6562C6.19141 17.6562 6.02539 17.832 6.02539 18.0566C6.02539 18.291 6.19141 18.4668 6.42578 18.4668L19.0039 18.4668C19.2383 18.4668 19.4043 18.291 19.4043 18.0566C19.4043 17.832 19.2383 17.6562 19.0039 17.6562ZM10.2734 9.62891C8.84766 9.62891 7.67578 10.4492 7.35352 11.6699L6.65039 14.2969C6.34766 15.4688 7.08984 16.2109 8.00781 16.2109C8.30078 16.2109 8.59375 16.1426 8.89648 15.9766L12.7637 13.916L17.0508 16.0645C17.5781 16.3281 17.998 16.123 18.1445 15.791C18.3203 15.4688 18.2129 15.0098 17.7148 14.7559L13.2324 12.5098C12.9492 12.3633 12.6172 12.3438 12.3145 12.4902L9.42383 13.7402L10 11.709C10.1074 11.3379 10.4297 11.084 10.8008 11.084L16.5625 11.084C16.9727 11.084 17.3047 10.7617 17.3047 10.3516C17.3047 9.95117 16.9727 9.62891 16.5625 9.62891ZM8.86719 7.28516C8.86719 8.1543 9.55078 8.84766 10.4297 8.84766C11.2891 8.84766 11.9727 8.1543 11.9727 7.28516C11.9727 6.42578 11.2891 5.73242 10.4297 5.73242C9.55078 5.73242 8.86719 6.42578 8.86719 7.28516Z" fill="black" fill-opacity="0.85"/>
 </g>
</svg>
