<?xml version="1.0" encoding="UTF-8"?>
<!--Generator: Apple Native CoreSVG 326-->
<!DOCTYPE svg
PUBLIC "-//W3C//DTD SVG 1.1//EN"
       "http://www.w3.org/Graphics/SVG/1.1/DTD/svg11.dtd">
<svg version="1.1" xmlns="http://www.w3.org/2000/svg" xmlns:xlink="http://www.w3.org/1999/xlink" viewBox="0 0 25.8008 25.459">
 <g>
  <rect height="25.459" opacity="0" width="25.8008" x="0" y="0"/>
  <path d="M12.7148 25.4395C19.7363 25.4395 25.4395 19.7461 25.4395 12.7246C25.4395 5.70312 19.7363 0 12.7148 0C5.69336 0 0 5.70312 0 12.7246C0 19.7461 5.69336 25.4395 12.7148 25.4395ZM12.7148 23.623C6.68945 23.623 1.81641 18.75 1.81641 12.7246C1.81641 6.69922 6.68945 1.82617 12.7148 1.82617C18.7402 1.82617 23.6133 6.69922 23.6133 12.7246C23.6133 18.75 18.7402 23.623 12.7148 23.623Z" fill="black" fill-opacity="0.85"/>
  <path d="M15.293 7.63672C16.123 7.63672 16.7969 6.97266 16.7969 6.13281C16.7969 5.29297 16.123 4.61914 15.293 4.61914C14.4531 4.61914 13.7695 5.29297 13.7695 6.13281C13.7695 6.97266 14.4531 7.63672 15.293 7.63672ZM12.6953 19.9902C15.752 19.9902 17.793 17.9492 17.793 14.8926C17.793 13.2715 17.0312 12.3535 15.6055 12.3535L14.6582 12.3535C14.4922 12.3535 14.3945 12.2363 14.4531 12.041L15.0977 10.0684C15.3906 9.17969 14.9609 8.35938 13.9844 8.125L11.0742 7.38281C10.8008 7.32422 10.5957 7.35352 10.3418 7.50977L7.51953 9.10156C7.19727 9.28711 7.11914 9.75586 7.35352 10.0684C7.56836 10.3809 7.96875 10.4492 8.32031 10.2539L10.9082 8.89648L12.4316 9.28711C12.7344 9.36523 12.8418 9.58984 12.7344 9.87305L11.9434 12.0898C11.5723 13.125 12.1973 14.0137 13.1934 14.0137L15.8691 14.0137C16.4258 14.0137 16.7969 14.3457 16.7969 14.8926C16.7969 17.3535 15.166 19.0039 12.7051 19.0039C10.2246 19.0039 8.58398 17.3535 8.58398 14.8828C8.58398 14.1016 8.80859 13.3887 9.17969 12.8027C9.58984 12.1484 8.74023 11.6602 8.32031 12.3047C7.87109 13.0469 7.58789 13.916 7.58789 14.8828C7.58789 17.9492 9.63867 19.9902 12.6953 19.9902ZM17.8516 19.9902C18.2715 19.9902 18.6133 19.6484 18.6133 19.2188C18.6133 18.8086 18.2715 18.457 17.8516 18.457C17.4219 18.457 17.0703 18.8086 17.0703 19.2188C17.0703 19.6484 17.4219 19.9902 17.8516 19.9902Z" fill="black" fill-opacity="0.85"/>
 </g>
</svg>
