<?xml version="1.0" encoding="UTF-8"?>
<!--Generator: Apple Native CoreSVG 326-->
<!DOCTYPE svg
PUBLIC "-//W3C//DTD SVG 1.1//EN"
       "http://www.w3.org/Graphics/SVG/1.1/DTD/svg11.dtd">
<svg version="1.1" xmlns="http://www.w3.org/2000/svg" xmlns:xlink="http://www.w3.org/1999/xlink" viewBox="0 0 25.8008 25.459">
 <g>
  <rect height="25.459" opacity="0" width="25.8008" x="0" y="0"/>
  <path d="M25.4395 12.7246C25.4395 19.7266 19.7266 25.4395 12.7148 25.4395C5.71289 25.4395 0 19.7266 0 12.7246C0 5.71289 5.71289 0 12.7148 0C19.7266 0 25.4395 5.71289 25.4395 12.7246ZM12.2559 18.5449C12.2559 18.7988 12.4414 18.9844 12.6953 18.9844C12.9395 18.9844 13.1348 18.7988 13.1348 18.5449C13.1348 18.291 12.9395 18.1055 12.6953 18.1055C12.4414 18.1055 12.2559 18.291 12.2559 18.5449ZM10.9082 18.3105C10.9082 18.5547 11.1035 18.75 11.3477 18.75C11.5918 18.75 11.7871 18.5547 11.7871 18.3105C11.7871 18.0566 11.5918 17.8613 11.3477 17.8613C11.1035 17.8613 10.9082 18.0566 10.9082 18.3105ZM13.6133 18.3105C13.6133 18.5547 13.7988 18.75 14.0527 18.75C14.3066 18.75 14.4922 18.5547 14.4922 18.3105C14.4922 18.0566 14.3066 17.8613 14.0527 17.8613C13.7988 17.8613 13.6133 18.0566 13.6133 18.3105ZM4.39453 18.1348C4.39453 18.3887 4.58008 18.5742 4.83398 18.5742C5.08789 18.5742 5.26367 18.3887 5.26367 18.1348C5.26367 17.8809 5.08789 17.7051 4.83398 17.7051C4.58008 17.7051 4.39453 17.8809 4.39453 18.1348ZM5.6543 18.1348C5.6543 18.3887 5.83984 18.5742 6.09375 18.5742C6.33789 18.5742 6.52344 18.3887 6.52344 18.1348C6.52344 17.8809 6.33789 17.7051 6.09375 17.7051C5.83984 17.7051 5.6543 17.8809 5.6543 18.1348ZM18.8672 18.1348C18.8672 18.3887 19.0625 18.5742 19.3066 18.5742C19.5605 18.5742 19.7559 18.3887 19.7559 18.1348C19.7559 17.8809 19.5605 17.7051 19.3066 17.7051C19.0625 17.7051 18.8672 17.8809 18.8672 18.1348ZM20.1465 18.1348C20.1465 18.3887 20.3418 18.5742 20.5859 18.5742C20.8301 18.5742 21.0254 18.3887 21.0254 18.1348C21.0254 17.8809 20.8301 17.7051 20.5859 17.7051C20.3418 17.7051 20.1465 17.8809 20.1465 18.1348ZM6.93359 17.7148C6.93359 17.9688 7.11914 18.1543 7.36328 18.1543C7.61719 18.1543 7.80273 17.9688 7.80273 17.7148C7.80273 17.4707 7.61719 17.2852 7.36328 17.2852C7.11914 17.2852 6.93359 17.4707 6.93359 17.7148ZM9.62891 17.7148C9.62891 17.9688 9.82422 18.1543 10.0781 18.1543C10.3223 18.1543 10.5176 17.9688 10.5176 17.7148C10.5176 17.4707 10.3223 17.2852 10.0781 17.2852C9.82422 17.2852 9.62891 17.4707 9.62891 17.7148ZM14.8926 17.7148C14.8926 17.9688 15.0781 18.1543 15.3223 18.1543C15.5762 18.1543 15.7617 17.9688 15.7617 17.7148C15.7617 17.4707 15.5762 17.2852 15.3223 17.2852C15.0781 17.2852 14.8926 17.4707 14.8926 17.7148ZM17.5977 17.7148C17.5977 17.9688 17.793 18.1543 18.0371 18.1543C18.291 18.1543 18.4863 17.9688 18.4863 17.7148C18.4863 17.4707 18.291 17.2852 18.0371 17.2852C17.793 17.2852 17.5977 17.4707 17.5977 17.7148ZM8.28125 17.3926C8.28125 17.6465 8.47656 17.8418 8.7207 17.8418C8.96484 17.8418 9.16016 17.6465 9.16016 17.3926C9.16016 17.1484 8.96484 16.9531 8.7207 16.9531C8.47656 16.9531 8.28125 17.1484 8.28125 17.3926ZM16.25 17.3926C16.25 17.6465 16.4355 17.8418 16.6895 17.8418C16.9434 17.8418 17.1191 17.6465 17.1191 17.3926C17.1191 17.1484 16.9434 16.9531 16.6895 16.9531C16.4355 16.9531 16.25 17.1484 16.25 17.3926ZM12.6953 16.1914C11.3086 16.1914 10.8203 14.9805 8.96484 14.9805C7.10938 14.9805 6.62109 16.1914 5.24414 16.1914L4.79492 16.1914C4.58008 16.1914 4.39453 16.377 4.39453 16.582C4.39453 16.8066 4.58008 16.9922 4.79492 16.9922L5.24414 16.9922C7.1875 16.9922 7.62695 15.791 8.96484 15.791C10.3027 15.791 10.752 16.9922 12.6953 16.9922C14.6289 16.9922 15.0684 15.791 16.416 15.791C17.7441 15.791 18.1934 16.9922 20.1367 16.9922L20.6152 16.9922C20.8398 16.9922 21.0254 16.8066 21.0254 16.582C21.0254 16.377 20.8398 16.1914 20.6152 16.1914L20.1367 16.1914C18.75 16.1914 18.2812 14.9805 16.416 14.9805C14.5703 14.9805 14.082 16.1914 12.6953 16.1914ZM6.43555 7.57812C6.03516 7.70508 5.81055 8.14453 5.91797 8.51562L7.04102 12.2266C7.13867 12.5684 7.41211 12.8516 7.7832 12.8516L9.82422 12.8516C9.9707 12.8516 10.0684 12.9688 10.0195 13.125L9.70703 13.9941C11.25 14.209 11.5723 15.127 12.6953 15.127C12.7344 15.127 12.7734 15.127 12.8125 15.1172L13.5059 13.1641C13.5742 12.9395 13.7109 12.8516 13.9453 12.8516L20.2832 12.8516C20.7031 12.8516 21.0547 12.5098 21.0547 12.0801C21.0547 11.6797 20.7031 11.3281 20.2832 11.3281L8.35938 11.3281L7.37305 8.10547C7.24609 7.69531 6.82617 7.45117 6.43555 7.57812ZM11.5234 9.04297C11.5234 9.89258 12.2363 10.5957 13.0859 10.5957C13.9355 10.5957 14.6484 9.89258 14.6484 9.04297C14.6484 8.18359 13.9355 7.48047 13.0859 7.48047C12.2363 7.48047 11.5234 8.18359 11.5234 9.04297ZM7.74414 6.76758C7.74414 7.38281 8.24219 7.88086 8.84766 7.88086C9.46289 7.88086 9.96094 7.38281 9.96094 6.76758C9.96094 6.16211 9.46289 5.66406 8.84766 5.66406C8.24219 5.66406 7.74414 6.16211 7.74414 6.76758Z" fill="black" fill-opacity="0.85"/>
 </g>
</svg>
