<?xml version="1.0" encoding="UTF-8"?>
<!--Generator: Apple Native CoreSVG 326-->
<!DOCTYPE svg
PUBLIC "-//W3C//DTD SVG 1.1//EN"
       "http://www.w3.org/Graphics/SVG/1.1/DTD/svg11.dtd">
<svg version="1.1" xmlns="http://www.w3.org/2000/svg" xmlns:xlink="http://www.w3.org/1999/xlink" viewBox="0 0 25.8008 25.459">
 <g>
  <rect height="25.459" opacity="0" width="25.8008" x="0" y="0"/>
  <path d="M25.4395 12.7246C25.4395 19.7266 19.7266 25.4395 12.7148 25.4395C5.71289 25.4395 0 19.7266 0 12.7246C0 5.71289 5.71289 0 12.7148 0C19.7266 0 25.4395 5.71289 25.4395 12.7246ZM6.08398 7.4707L6.08398 11.8457C6.08398 12.334 6.32812 12.5586 6.70898 12.6172L9.96094 13.1641L10.5078 16.3867L10.5078 20.3711C10.5078 20.7812 10.8398 21.1133 11.25 21.1133C11.6406 21.1133 11.9824 20.7812 11.9824 20.3711L11.9824 13.6816C13.6035 13.4375 15.0195 12.3535 15.6934 10.8887C15.7617 10.7422 15.918 10.6738 16.2109 10.7617L19.8047 11.9727C20.3027 12.1387 20.6543 11.8652 20.7715 11.5137C20.8691 11.1621 20.752 10.7227 20.2832 10.5762L9.48242 6.97266C8.97461 6.79688 8.63281 7.08008 8.53516 7.43164C8.41797 7.77344 8.54492 8.21289 9.01367 8.36914L12.9004 9.66797C13.0762 9.73633 13.1543 9.94141 13.0469 10.127C12.6367 10.7812 12.0312 11.1719 11.25 11.1719L7.56836 11.1719L7.56836 7.4707C7.56836 7.03125 7.26562 6.73828 6.81641 6.73828C6.37695 6.73828 6.08398 7.03125 6.08398 7.4707ZM14.5312 6.86523C14.5312 7.72461 15.2246 8.41797 16.084 8.41797C16.9629 8.41797 17.6367 7.72461 17.6367 6.86523C17.6367 5.98633 16.9629 5.3125 16.084 5.3125C15.2246 5.3125 14.5312 5.98633 14.5312 6.86523Z" fill="black" fill-opacity="0.85"/>
 </g>
</svg>
