<?xml version="1.0" encoding="UTF-8"?>
<!--Generator: Apple Native CoreSVG 326-->
<!DOCTYPE svg
PUBLIC "-//W3C//DTD SVG 1.1//EN"
       "http://www.w3.org/Graphics/SVG/1.1/DTD/svg11.dtd">
<svg version="1.1" xmlns="http://www.w3.org/2000/svg" xmlns:xlink="http://www.w3.org/1999/xlink" viewBox="0 0 35.8203 27.3535">
 <g>
  <rect height="27.3535" opacity="0" width="35.8203" x="0" y="0"/>
  <path d="M10.752 5.39062C12.2461 5.39062 13.4375 4.18945 13.4375 2.70508C13.4375 1.21094 12.2461 0.00976562 10.752 0.00976562C9.25781 0.00976562 8.05664 1.21094 8.05664 2.70508C8.05664 4.18945 9.25781 5.39062 10.752 5.39062ZM24.6973 5.39062C26.1914 5.39062 27.3926 4.18945 27.3926 2.70508C27.3926 1.21094 26.1914 0.00976562 24.6973 0.00976562C23.2129 0.00976562 22.0117 1.21094 22.0117 2.70508C22.0117 4.18945 23.2129 5.39062 24.6973 5.39062ZM10.7422 17.0508C11.2793 17.0508 11.5137 17.3926 11.7773 18.291C12.1484 19.5312 13.4766 24.7363 13.8574 26.2695C14.043 27.0312 14.4336 27.3535 15.0195 27.3535C15.8008 27.3535 16.2695 26.6406 16.0645 25.8691C15.9766 25.5371 14.1504 18.0176 13.9258 16.4648C13.6914 14.8828 13.6621 11.416 13.6719 10.4102C13.7012 9.56055 14.0625 9.13086 14.8438 9.01367C15.5859 8.90625 16.709 8.84766 17.7441 8.85742C18.7988 8.85742 19.873 8.90625 20.625 9.01367C21.4062 9.13086 21.7773 9.56055 21.7969 10.4102C21.8164 11.416 21.7676 14.8828 21.5234 16.4648C21.2793 18.0176 19.4727 25.5371 19.3848 25.8691C19.1699 26.6406 19.6484 27.3535 20.4199 27.3535C21.0059 27.3535 21.3965 27.0312 21.6016 26.2695C22.0215 24.7461 23.3008 19.5508 23.6914 18.291C23.9746 17.4121 24.1895 17.0508 24.6973 17.0508C25.2344 17.0508 25.4688 17.3926 25.7324 18.291C26.1035 19.5312 27.4316 24.7363 27.8125 26.2695C27.998 27.0312 28.4082 27.3535 28.9746 27.3535C29.7559 27.3535 30.2246 26.6406 30.0195 25.8691C29.9414 25.5371 28.1152 18.0176 27.8809 16.4648C27.6562 14.8828 27.6367 11.416 27.6465 10.3516C27.6465 9.58984 27.9785 9.12109 28.6035 8.98438C29.1895 8.85742 33.916 8.33008 34.5605 8.14453C35.0977 7.98828 35.459 7.54883 35.459 6.98242C35.459 6.2793 34.9316 5.84961 34.4141 5.84961C34.1992 5.84961 33.9941 5.89844 33.7305 5.95703C31.8652 6.29883 27.6758 6.63086 24.6973 6.73828C22.0898 6.80664 19.4336 6.85547 17.7832 6.85547C16.0938 6.85547 13.3887 6.80664 10.7422 6.73828C7.80273 6.65039 3.58398 6.31836 1.70898 5.95703C1.47461 5.89844 1.25 5.84961 1.04492 5.84961C0.498047 5.84961 0 6.2793 0 6.98242C0 7.54883 0.341797 8.02734 0.888672 8.14453C1.55273 8.28125 6.25977 8.87695 6.8457 8.98438C7.4707 9.10156 7.8125 9.58984 7.8418 10.3516C7.85156 11.416 7.80273 14.8828 7.55859 16.4648C7.32422 18.0176 5.50781 25.5371 5.41992 25.8691C5.20508 26.6406 5.69336 27.3535 6.46484 27.3535C7.04102 27.3535 7.44141 27.0312 7.64648 26.2695C8.05664 24.7461 9.3457 19.5508 9.73633 18.291C10.0195 17.4121 10.2246 17.0508 10.7422 17.0508Z" fill="black" fill-opacity="0.85"/>
 </g>
</svg>
