<?xml version="1.0" encoding="UTF-8"?>
<!--Generator: Apple Native CoreSVG 326-->
<!DOCTYPE svg
PUBLIC "-//W3C//DTD SVG 1.1//EN"
       "http://www.w3.org/Graphics/SVG/1.1/DTD/svg11.dtd">
<svg version="1.1" xmlns="http://www.w3.org/2000/svg" xmlns:xlink="http://www.w3.org/1999/xlink" viewBox="0 0 25.8008 25.459">
 <g>
  <rect height="25.459" opacity="0" width="25.8008" x="0" y="0"/>
  <path d="M12.7148 25.4395C19.7363 25.4395 25.4395 19.7461 25.4395 12.7246C25.4395 5.70312 19.7363 0 12.7148 0C5.69336 0 0 5.70312 0 12.7246C0 19.7461 5.69336 25.4395 12.7148 25.4395ZM12.7148 23.623C6.68945 23.623 1.81641 18.75 1.81641 12.7246C1.81641 6.69922 6.68945 1.82617 12.7148 1.82617C18.7402 1.82617 23.6133 6.69922 23.6133 12.7246C23.6133 18.75 18.7402 23.623 12.7148 23.623Z" fill="black" fill-opacity="0.85"/>
  <path d="M15.1953 8.4668C16.0352 8.4668 16.709 7.79297 16.709 6.95312C16.709 6.10352 16.0352 5.42969 15.1953 5.42969C14.3555 5.42969 13.6719 6.10352 13.6719 6.95312C13.6719 7.79297 14.3555 8.4668 15.1953 8.4668ZM9.75586 17.5781C10.0879 17.7637 10.5566 17.666 10.7617 17.334L12.4707 14.5996L14.3262 14.6973L13.1641 16.5625C12.959 16.8945 13.0469 17.3828 13.3984 17.5781C13.7598 17.7637 14.1797 17.6758 14.3945 17.334L16.2012 14.4629C16.5039 13.9844 16.25 13.3789 15.5859 13.3008L12.5488 12.9688C12.2559 12.9297 12.1484 12.627 12.2949 12.4023L13.5449 10.5078C13.623 10.3906 13.7891 10.3613 13.8965 10.4297L18.5059 13.2031C18.8477 13.3984 19.3164 13.291 19.5117 12.9688C19.7168 12.5977 19.5996 12.1582 19.2578 11.9531L10.1562 6.47461C10.0293 6.40625 9.91211 6.39648 9.78516 6.39648L6.86523 6.39648C6.45508 6.39648 6.13281 6.70898 6.13281 7.09961C6.13281 7.5 6.45508 7.8418 6.86523 7.8418L9.57031 7.8418L10.8398 8.59375C10.9863 8.67188 11.0254 8.83789 10.9375 8.98438L9.35547 11.3477C8.50586 12.6172 9.20898 14.3066 10.8008 14.5117L9.51172 16.5625C9.30664 16.8945 9.4043 17.3633 9.75586 17.5781ZM7.8418 19.2188L17.5586 19.2188C18.3301 19.2188 18.9746 19.0625 19.4727 18.623C19.6777 18.4473 19.668 18.2227 19.5312 18.0664C19.4238 17.9102 19.1992 17.8613 18.9746 18.0176C18.6035 18.3008 18.2227 18.4375 17.5586 18.4375L7.8418 18.4375C7.1875 18.4375 6.79688 18.3008 6.44531 18.0176C6.2207 17.8711 6.00586 17.9102 5.87891 18.0371C5.73242 18.1836 5.70312 18.4473 5.92773 18.623C6.43555 19.0625 7.07031 19.2188 7.8418 19.2188Z" fill="black" fill-opacity="0.85"/>
 </g>
</svg>
