<?xml version="1.0" encoding="UTF-8"?>
<!--Generator: Apple Native CoreSVG 326-->
<!DOCTYPE svg
PUBLIC "-//W3C//DTD SVG 1.1//EN"
       "http://www.w3.org/Graphics/SVG/1.1/DTD/svg11.dtd">
<svg version="1.1" xmlns="http://www.w3.org/2000/svg" xmlns:xlink="http://www.w3.org/1999/xlink" viewBox="0 0 37.4868 29.209">
 <g>
  <rect height="29.209" opacity="0" width="37.4868" x="0" y="0"/>
  <path d="M33.4846 9.50195L36.6194 14.1016C36.7561 14.3066 36.8928 14.502 37.0002 14.6973C37.2639 15.166 37.1174 15.8301 36.5022 16.1621C36.0139 16.4355 35.428 16.3477 35.0569 15.918C34.7249 15.5176 32.967 13.0273 32.0784 11.7871C31.9514 11.6211 31.7366 11.6992 31.7366 11.8848C31.7366 13.0469 31.8049 15.957 32.01 17.3633C32.2444 18.916 34.0608 26.4355 34.1487 26.7676C34.3635 27.5391 33.8948 28.252 33.1135 28.252C32.5276 28.252 32.1467 27.9297 31.9319 27.168C31.512 25.6445 30.2424 20.4492 29.842 19.1895C29.5686 18.3105 29.344 17.9492 28.8362 17.9492C28.3186 17.9492 28.1038 18.3105 27.8206 19.1895C27.4202 20.4492 26.1506 25.6445 25.7307 27.168C25.5256 27.9297 25.135 28.252 24.5588 28.252C23.7776 28.252 23.2991 27.5391 23.5139 26.7676C23.6018 26.4355 25.4182 18.916 25.6526 17.3633C25.8577 15.957 25.926 13.0566 25.926 11.8945C25.926 11.6992 25.7014 11.6309 25.5842 11.7871C25.2133 12.3088 24.6911 13.0448 24.1844 13.7542C24.0956 13.4355 23.9238 13.1352 23.6799 12.8809C23.3108 12.468 22.8064 12.2605 22.3049 12.2503L24.178 9.50195C25.2815 7.91016 26.6292 7.35352 28.8362 7.35352C31.0334 7.35352 32.3909 7.91016 33.4846 9.50195ZM31.4827 3.35938C31.4827 4.83398 30.301 6.00586 28.8362 6.00586C27.3616 6.00586 26.1897 4.83398 26.1897 3.35938C26.1897 1.88477 27.3616 0.712891 28.8362 0.712891C30.301 0.712891 31.4827 1.88477 31.4827 3.35938Z" fill="black" fill-opacity="0.85"/>
  <path d="M12.9475 9.50195L14.8206 12.2503C14.3191 12.2605 13.8147 12.468 13.4456 12.8809C13.2052 13.1351 13.0345 13.4366 12.9459 13.7568C12.4377 13.0447 11.9133 12.3064 11.5413 11.7871C11.4143 11.6211 11.1995 11.6992 11.1995 11.8848C11.1995 13.0469 11.2678 15.957 11.4729 17.3633C11.7073 18.916 13.5237 26.4355 13.6116 26.7676C13.8264 27.5391 13.3479 28.252 12.5764 28.252C11.9905 28.252 11.5999 27.9297 11.3948 27.168C10.9749 25.6445 9.70532 20.4492 9.30493 19.1895C9.02173 18.3105 8.80689 17.9492 8.28931 17.9492C7.7815 17.9492 7.55689 18.3105 7.28345 19.1895C6.88306 20.4492 5.61353 25.6445 5.19361 27.168C4.97876 27.9297 4.5979 28.252 4.01196 28.252C3.24048 28.252 2.76196 27.5391 2.97681 26.7676C3.0647 26.4355 4.88111 18.916 5.11548 17.3633C5.32056 15.957 5.38892 13.0566 5.38892 11.8945C5.38892 11.6992 5.16431 11.6309 5.04712 11.7871C4.15845 13.0371 2.40064 15.5176 2.06861 15.918C1.69751 16.3477 1.11157 16.4355 0.623293 16.1621C0.00805827 15.8301-0.138426 15.166 0.125246 14.6973C0.232668 14.502 0.369386 14.3066 0.506105 14.1016L3.64087 9.50195C4.73462 7.91016 6.09204 7.35352 8.28931 7.35352C10.4963 7.35352 11.8538 7.91016 12.9475 9.50195ZM10.9456 3.35938C10.9456 4.83398 9.76392 6.00586 8.28931 6.00586C6.82446 6.00586 5.65259 4.83398 5.65259 3.35938C5.65259 1.88477 6.82446 0.712891 8.28931 0.712891C9.76392 0.712891 10.9456 1.88477 10.9456 3.35938Z" fill="black" fill-opacity="0.85"/>
  <path d="M18.5627 14.5801C19.6467 14.5801 20.5452 13.7012 20.5452 12.6172C20.5452 11.5332 19.6467 10.6543 18.5627 10.6543C17.4788 10.6543 16.5999 11.5332 16.5999 12.6172C16.5999 13.7012 17.4788 14.5801 18.5627 14.5801ZM15.9358 28.252C16.4045 28.252 16.7854 27.9785 16.9417 27.373C17.2053 26.4453 17.9573 23.252 18.2112 22.4707C18.387 21.9531 18.426 21.9043 18.5627 21.9043C18.6995 21.9043 18.7385 21.9531 18.9241 22.4707C19.1682 23.252 19.9202 26.4453 20.1838 27.373C20.3401 27.9785 20.7209 28.252 21.1897 28.252C21.8831 28.252 22.2932 27.6074 22.1174 26.9727C22.0588 26.7578 20.9749 22.168 20.7991 21.2012C20.6819 20.4199 20.6526 18.877 20.6526 18.2617C20.6526 17.9004 20.7698 17.6562 20.9651 17.4121C21.8635 16.2988 22.9866 15.0293 23.1331 14.8047C23.4163 14.3848 23.3088 13.8867 22.9768 13.5352C22.6057 13.1152 21.9612 13.125 21.6292 13.4668L20.3206 14.8633C19.7737 15.4492 19.3147 15.7227 18.5627 15.7227C17.8108 15.7227 17.3518 15.4492 16.8049 14.8633L15.4963 13.4668C15.1643 13.125 14.5198 13.1152 14.1487 13.5352C13.8167 13.8867 13.7092 14.3848 13.9924 14.8047C14.1389 15.0293 15.262 16.2988 16.1604 17.4121C16.3557 17.6562 16.4729 17.9004 16.4729 18.2617C16.4729 18.877 16.4436 20.4199 16.3264 21.2012C16.1506 22.168 15.0667 26.7578 15.0081 26.9727C14.8323 27.6074 15.2424 28.252 15.9358 28.252Z" fill="black" fill-opacity="0.85"/>
 </g>
</svg>
