<?xml version="1.0" encoding="UTF-8"?>
<!--Generator: Apple Native CoreSVG 326-->
<!DOCTYPE svg
PUBLIC "-//W3C//DTD SVG 1.1//EN"
       "http://www.w3.org/Graphics/SVG/1.1/DTD/svg11.dtd">
<svg version="1.1" xmlns="http://www.w3.org/2000/svg" xmlns:xlink="http://www.w3.org/1999/xlink" viewBox="0 0 33.1038 29.209">
 <g>
  <rect height="29.209" opacity="0" width="33.1038" x="0" y="0"/>
  <path d="M28.129 9.50195L31.2638 14.1016C31.4103 14.3066 31.547 14.502 31.6544 14.6973C31.9181 15.166 31.7716 15.8301 31.1466 16.1621C30.6583 16.4355 30.0724 16.3477 29.7111 15.918C29.379 15.5176 27.6115 13.0273 26.7228 11.7871C26.6056 11.6211 26.3908 11.6992 26.3908 11.8848C26.3908 13.0469 26.4591 15.957 26.6642 17.3633C26.8986 18.916 28.715 26.4355 28.8029 26.7676C29.0177 27.5391 28.5392 28.252 27.7579 28.252C27.1818 28.252 26.7911 27.9297 26.5861 27.168C26.1661 25.6445 24.8869 20.4492 24.4865 19.1895C24.213 18.3105 23.9982 17.9492 23.4806 17.9492C22.963 17.9492 22.7482 18.3105 22.4747 19.1895C22.0744 20.4492 20.7951 25.6445 20.3751 27.168C20.1701 27.9297 19.7794 28.252 19.2033 28.252C18.422 28.252 17.9435 27.5391 18.1583 26.7676C18.256 26.4355 20.0626 18.916 20.297 17.3633C20.5119 15.957 20.5704 13.0566 20.5704 11.8945C20.5704 11.6992 20.3458 11.6309 20.2384 11.7871C19.7491 12.4754 18.9932 13.5369 18.3596 14.4177C18.3322 14.3535 18.3008 14.2904 18.2658 14.2285C18.1486 13.9941 17.9826 13.7695 17.8361 13.5547L16.9545 12.2571L18.8322 9.50195C19.9259 7.91016 21.2736 7.35352 23.4806 7.35352C25.6876 7.35352 27.0353 7.91016 28.129 9.50195ZM26.1271 3.35938C26.1271 4.83398 24.9552 6.00586 23.4806 6.00586C22.006 6.00586 20.8439 4.83398 20.8439 3.35938C20.8439 1.88477 22.006 0.712891 23.4806 0.712891C24.9552 0.712891 26.1271 1.88477 26.1271 3.35938Z" fill="black" fill-opacity="0.85"/>
  <path d="M9.26185 6.00586C10.7365 6.00586 11.9083 4.83398 11.9083 3.35938C11.9083 1.88477 10.7365 0.712891 9.26185 0.712891C7.78724 0.712891 6.61537 1.88477 6.61537 3.35938C6.61537 4.83398 7.78724 6.00586 9.26185 6.00586ZM9.26185 17.9492C9.76966 17.9492 9.99427 18.3105 10.2677 19.1895C10.6681 20.4492 11.9376 25.6445 12.3673 27.168C12.5724 27.9297 12.9533 28.252 13.5392 28.252C14.3204 28.252 14.799 27.5391 14.5744 26.7676C14.4865 26.4355 12.6798 18.916 12.4357 17.3633C12.2306 15.957 12.1622 13.0469 12.1622 11.8848C12.1622 11.6992 12.3869 11.6211 12.504 11.7871C13.3927 13.0273 15.1603 15.5176 15.4826 15.918C15.8536 16.3477 16.4396 16.4355 16.9279 16.1621C17.5529 15.8301 17.6896 15.166 17.4357 14.6973C17.3185 14.502 17.1915 14.3066 17.0451 14.1016L13.9103 9.50195C12.8165 7.91016 11.4591 7.35352 9.26185 7.35352C7.05482 7.35352 5.70716 7.91016 4.61341 9.50195L1.47865 14.1016C1.33216 14.3066 1.19545 14.502 1.08802 14.6973C0.824352 15.166 0.970836 15.8301 1.59584 16.1621C2.08412 16.4355 2.67006 16.3477 3.03138 15.918C3.36341 15.5176 5.13099 13.0371 6.0099 11.7871C6.12709 11.6309 6.3517 11.6992 6.3517 11.8945C6.3517 13.0566 6.28334 15.957 6.07826 17.3633C5.84388 18.916 4.02748 26.4355 3.93959 26.7676C3.72474 27.5391 4.20326 28.252 4.98451 28.252C5.56068 28.252 5.95131 27.9297 6.15638 27.168C6.57631 25.6445 7.8556 20.4492 8.25599 19.1895C8.52943 18.3105 8.74427 17.9492 9.26185 17.9492Z" fill="black" fill-opacity="0.85"/>
 </g>
</svg>
