<?xml version="1.0" encoding="UTF-8"?>
<!--Generator: Apple Native CoreSVG 326-->
<!DOCTYPE svg
PUBLIC "-//W3C//DTD SVG 1.1//EN"
       "http://www.w3.org/Graphics/SVG/1.1/DTD/svg11.dtd">
<svg version="1.1" xmlns="http://www.w3.org/2000/svg" xmlns:xlink="http://www.w3.org/1999/xlink" viewBox="0 0 24.3844 29.1504">
 <g>
  <rect height="29.1504" opacity="0" width="24.3844" x="0" y="0"/>
  <path d="M12.0213 6.15234C13.5154 6.15234 14.7264 4.94141 14.7264 3.44727C14.7264 1.95312 13.5154 0.742188 12.0213 0.742188C10.5272 0.742188 9.31622 1.95312 9.31622 3.44727C9.31622 4.94141 10.5272 6.15234 12.0213 6.15234ZM22.3338 8.51562C21.826 8.01758 21.0447 8.02734 20.5467 8.51562L17.5291 11.5234L14.492 8.47656C13.9061 7.87109 12.9686 7.5 12.0213 7.5L3.88653 7.5C3.32989 7.5 2.87091 7.83203 2.67559 8.37891L0.732235 14.2285C0.4295 15.127 0.956844 15.7422 1.58184 15.8984C2.17755 16.0547 2.86114 15.8008 3.12481 15.0195L4.8045 10.0391L7.49005 10.0391C7.74395 10.0391 7.90997 10.2539 7.83184 10.5078L6.18145 15.459C5.64434 17.0703 6.13263 18.623 7.93927 19.4043L13.2225 21.7285L15.0096 27.9785C15.2342 28.7598 15.9568 28.9941 16.5525 28.8379C17.1775 28.6719 17.6854 28.1055 17.451 27.2754L15.4881 20.4395C15.3807 20.0781 15.2049 19.8242 14.785 19.6387L10.6639 17.8125L12.8611 11.2109C12.949 10.9375 13.2713 10.8398 13.4861 11.0547L16.6111 14.2285C17.1092 14.7266 17.9295 14.7266 18.4275 14.2285L22.3338 10.3223C22.8514 9.80469 22.8514 9.0332 22.3338 8.51562ZM6.60138 20L5.97638 23.5547L0.65411 26.5234C-0.107609 26.9336-0.12714 27.7246 0.204891 28.291C0.527157 28.8086 1.20098 29.1309 1.90411 28.7402L7.76348 25.4883C8.12481 25.2832 8.25177 25.0488 8.37872 24.668L9.48223 21.3477L7.47052 20.4688C7.15802 20.332 6.86505 20.166 6.60138 20ZM23.3592 6.19141C23.7693 5.98633 24.0233 5.5957 24.0233 5.18555L24.0233 1.19141C24.0233 0.537109 23.5252 0 22.8611 0L19.9998 0C19.3455 0 18.8377 0.537109 18.8377 1.19141L18.8377 5.18555C18.8377 5.5957 19.1014 5.98633 19.5018 6.19141L21.4354 7.17773ZM20.8201 9.4043L22.0604 9.4043L22.0604 5.84961L20.8201 5.84961Z" fill="black" fill-opacity="0.85"/>
 </g>
</svg>
