<?xml version="1.0" encoding="UTF-8"?>
<!--Generator: Apple Native CoreSVG 326-->
<!DOCTYPE svg
PUBLIC "-//W3C//DTD SVG 1.1//EN"
       "http://www.w3.org/Graphics/SVG/1.1/DTD/svg11.dtd">
<svg version="1.1" xmlns="http://www.w3.org/2000/svg" xmlns:xlink="http://www.w3.org/1999/xlink" viewBox="0 0 25.8008 25.459">
 <g>
  <rect height="25.459" opacity="0" width="25.8008" x="0" y="0"/>
  <path d="M25.4395 12.7246C25.4395 19.7266 19.7266 25.4395 12.7148 25.4395C5.71289 25.4395 0 19.7266 0 12.7246C0 5.71289 5.71289 0 12.7148 0C19.7266 0 25.4395 5.71289 25.4395 12.7246ZM11.8652 15.0488C11.7969 15.0488 11.7188 15.0488 11.6406 15.0391L12.0996 17.3438L11.416 20.8105C11.3379 21.2109 11.582 21.6113 11.9727 21.6699C12.3438 21.748 12.7539 21.5137 12.832 21.1035L13.5547 17.4902C13.5742 17.4121 13.5742 17.334 13.5645 17.2363L13.4277 14.4922C12.9785 14.8633 12.4414 15.0488 11.8652 15.0488ZM11.7676 6.25L11.7676 8.69141L8.14453 8.69141C7.35352 8.69141 6.70898 9.32617 6.70898 10.1172L6.70898 13.0176C6.70898 13.4082 7.02148 13.7402 7.43164 13.7402L10.3809 13.7402L10.5664 13.9258C10.9277 14.2578 11.3965 14.4531 11.8652 14.4531C12.2656 14.4531 12.6367 14.3457 12.9785 14.0918L16.5332 11.416L20.0781 9.28711C20.4297 9.0918 20.5371 8.65234 20.332 8.31055C20.127 7.96875 19.6777 7.86133 19.3359 8.06641L12.6074 12.0996L10.7227 10.2246C10.6738 10.1758 10.6934 10.1172 10.7617 10.1172L12.4805 10.1172C12.8809 10.1172 13.2129 9.81445 13.2129 9.4043L13.2129 7.26562C13.6328 7.10938 13.9355 6.70898 13.9355 6.25C13.9355 5.63477 13.4473 5.16602 12.8418 5.16602C12.2461 5.16602 11.7676 5.63477 11.7676 6.25ZM8.27148 11.5723L9.0332 12.3438L8.0957 12.3438L8.0957 11.6504C8.0957 11.5527 8.20312 11.5039 8.27148 11.5723ZM6.67969 6.34766C6.67969 7.2168 7.38281 7.91016 8.24219 7.91016C9.0918 7.91016 9.79492 7.2168 9.79492 6.34766C9.79492 5.49805 9.0918 4.80469 8.24219 4.80469C7.38281 4.80469 6.67969 5.49805 6.67969 6.34766Z" fill="black" fill-opacity="0.85"/>
 </g>
</svg>
