<?xml version="1.0" encoding="UTF-8"?>
<!--Generator: Apple Native CoreSVG 326-->
<!DOCTYPE svg
PUBLIC "-//W3C//DTD SVG 1.1//EN"
       "http://www.w3.org/Graphics/SVG/1.1/DTD/svg11.dtd">
<svg version="1.1" xmlns="http://www.w3.org/2000/svg" xmlns:xlink="http://www.w3.org/1999/xlink" viewBox="0 0 24.1602 26.6968">
 <g>
  <rect height="26.6968" opacity="0" width="24.1602" x="0" y="0"/>
  <path d="M3.34961 7.50367C1.49414 7.50367 0 5.9607 0 4.16383C0 2.28883 1.49414 0.765389 3.34961 0.765389C5.21484 0.765389 6.70898 2.28883 6.70898 4.16383C6.70898 6.02906 5.21484 7.50367 3.34961 7.50367ZM23.3398 25.238C22.6953 25.9119 21.5918 25.8533 20.8008 25.0427L15.4688 19.5252C15.2832 19.3396 15.1562 19.2908 14.8828 19.3982L10.6543 21.0095C7.97852 22.0252 5.48828 21.0877 4.28711 18.8904L1.66016 14.1248C0.615234 12.2107 0.947266 10.2576 2.76367 9.30055C4.51172 8.33375 6.32812 9.0564 7.38281 10.9998L10.8691 17.3474L13.8281 16.2732C15.293 15.7361 16.5137 15.9021 17.6758 17.113L23.2227 22.8552C24.0039 23.6462 23.9258 24.6423 23.3398 25.238Z" fill="black" fill-opacity="0.85"/>
  <path d="M23.7988 4.23219C23.7988 3.72437 23.3984 3.32398 22.8809 3.32398L17.0117 3.32398L17.0117 0.980233C17.0117 0.0329674 16.0547-0.289298 15.4004 0.286874L11.6699 3.52906C11.1816 3.95875 11.1914 4.54469 11.6699 4.95484L15.4004 8.2068C16.084 8.81226 17.0117 8.41187 17.0117 7.51344L17.0117 5.14039L22.8809 5.14039C23.3984 5.14039 23.7988 4.74 23.7988 4.23219Z" fill="black" fill-opacity="0.85"/>
 </g>
</svg>
