<?xml version="1.0" ?><!-- Generator: Adobe Illustrator 25.0.0, SVG Export Plug-In . SVG Version: 6.00 Build 0)  --><svg xmlns="http://www.w3.org/2000/svg" xmlns:xlink="http://www.w3.org/1999/xlink" version="1.1" id="Layer_1" x="0px" y="0px" viewBox="0 0 512 512" style="enable-background:new 0 0 512 512;" xml:space="preserve">
<path d="M252.6,511.8c24.2,0,46.8-4.5,67.9-13.5s39.6-21.5,55.6-37.5c16-16,28.5-34.5,37.5-55.6c9-21.1,13.5-43.6,13.5-67.6  c0-15.8-3.1-29.5-9.3-41.2c-6.2-11.7-14.8-20.9-26-27.4c-11.1-6.6-24.1-9.8-39-9.8h-31.6c-2.8,0-5-0.8-6.5-2.5  c-1.5-1.7-1.7-4.2-0.6-7.6l23-69.6c4.9-14.9,4-28.6-2.5-41c-6.6-12.5-18.5-20.9-35.9-25.3l-96.4-24.1c-4.6-1.2-8.9-1.4-12.9-0.8  c-4.1,0.7-8.5,2.4-13.4,5.2l-93.5,52.8c-5.6,3.1-9,8.1-10.1,14.9c-1.1,6.9,0.3,12.9,4.1,18.2c3.8,5.5,8.8,8.7,15,9.6  c6.2,1,12.2-0.1,17.9-3.2l86.2-46l61.2,16.8c1.9,0.4,2.9,1.6,2.9,3.4c0,1.8-0.4,3.6-1.1,5.4L230,246.5c-4.3,12.4-5.1,23.6-2.5,33.6  c2.6,10,7.8,18,15.6,23.9c7.8,5.9,17.4,8.8,28.7,8.8h88c9.3,0,16.2,2.2,20.9,6.7c4.6,4.5,7,10.5,7,18c0,18.6-3.5,36-10.5,52.4  c-7,16.4-16.7,30.7-29.1,43.1c-12.4,12.4-26.7,22.1-43,29.1c-16.3,7-33.8,10.5-52.5,10.5c-27,0-50.6-5.4-70.9-16.2  c-20.3-10.8-36-25.9-47.3-45.3c-11.3-19.4-16.9-42-16.9-68c0-20.3,4.2-39.4,12.5-57c8.3-17.7,19.6-32.6,33.9-44.9  c5.2-4.6,7.7-9.5,7.6-14.7c-0.1-5.2-1.9-9.8-5.4-13.6c-3.5-3.8-8-6-13.5-6.4c-5.5-0.4-11.1,1.9-16.8,7.1  c-17.7,15.9-31.7,35-42.1,57.4c-10.4,22.3-15.6,46.4-15.6,72.2c0,33.8,7.3,63.3,21.8,88.6c14.5,25.3,34.9,45,61,59  C187.1,504.8,217.7,511.8,252.6,511.8z M345,103.5c9.6,0,18.2-2.4,26-7.1c7.7-4.7,13.9-11,18.6-18.8c4.6-7.8,7-16.4,7-25.9  c0-9.6-2.3-18.3-6.9-26.1c-4.6-7.8-10.8-14-18.6-18.7c-7.8-4.6-16.5-7-26.1-7c-9.6,0-18.3,2.3-26.1,7c-7.8,4.6-14,10.9-18.6,18.7  c-4.6,7.8-6.9,16.5-6.9,26.1c0,9.4,2.3,18.1,6.9,25.9c4.6,7.8,10.8,14.1,18.6,18.8C326.7,101.1,335.4,103.5,345,103.5z M414.6,512  c6.9,0,12.9-2.5,17.9-7.5c5-5,7.5-11,7.5-17.9c0-7.2-2.5-13.3-7.5-18.2c-5-4.9-11-7.4-17.9-7.4c-7.1,0-13.1,2.5-18.1,7.4  c-5,4.9-7.5,11-7.5,18.2c0,6.9,2.5,12.9,7.5,17.9C401.5,509.5,407.6,512,414.6,512z"/>
</svg>