<?xml version="1.0" ?><!-- Generator: Adobe Illustrator 25.0.0, SVG Export Plug-In . SVG Version: 6.00 Build 0)  --><svg xmlns="http://www.w3.org/2000/svg" xmlns:xlink="http://www.w3.org/1999/xlink" version="1.1" id="Layer_1" x="0px" y="0px" viewBox="0 0 512 512" style="enable-background:new 0 0 512 512;" xml:space="preserve">
<path d="M25.3,305.9l180.8,180.8c33.4,33.4,66.4,33.6,99.6,0.7l181.7-182c33-33,32.7-66.1-0.7-99.6L306.2,25.3  c-33.4-33.4-66.4-33.9-99.6-0.7l-182,181.7C-8.5,239.6-8.1,272.5,25.3,305.9z M51.5,280.9c-16-16.3-16.5-33.2,0.2-49.9L231,51.7  c16.7-16.7,33.6-16.5,49.9-0.2l179.7,179.7c16,16,16.5,33.2-0.2,49.9L281.1,460.4c-16.7,16.7-34.1,16.3-49.9,0.5L51.5,280.9z   M268,158.5c16,0,29.3-13.3,29.3-29.1c0-16.5-13.3-29.3-29.3-29.3c-16.3,0-29.1,12.9-29.1,29.3C238.9,145.2,251.8,158.5,268,158.5z   M309.3,393.8c7,0,14-4.7,14-13.3c0-3.4-0.9-6.3-2.7-9.9L294,316.1c-2.7-5.6-5.6-9.5-7.9-12.6l-15.8-22.8l1.4-3.8  c4.7-13.8,7-22.8,7.9-36.3l2.5-36.1c1.4-19.4-9.7-35.2-31.2-35.2c-14,0-26.9,7-40.4,20.3l-20.8,20.1c-7,6.8-9,12.2-9.7,20.8  l-2.7,30.3c-0.7,9,4.5,14.9,12.6,15.6c7.7,0.5,13.3-4.1,14.2-13.8l2.5-32.5l11.3-9.7c3.4-2.9,7.4-1.1,7,3.8l-2,27.5  c-1.4,15.1,6.1,26,13.5,35.2l26,32.7c2.5,2.9,2.9,4.1,4.3,6.5l28.7,58.5C298.3,390.8,303.2,393.8,309.3,393.8z M316.8,248.4h32.1  c9.5,0,14.9-5.2,14.9-13.5c0-7.9-5.4-13.3-14.9-13.3h-34.1l-21-23.5l-2.5,35.2l9.3,9.3C305,247.2,309.1,248.4,316.8,248.4z   M186.5,393.8c4.3,0,8.1-1.6,10.8-4.7l41.3-49.2c4.5-5.4,5-5.6,6.1-10.6l2.3-9.7L224.4,291l-6.8,31.8L179.5,368  c-2.9,3.6-5.9,7.2-5.9,12.6C173.6,388.8,179.1,393.8,186.5,393.8z"/>
</svg>