<?xml version="1.0" encoding="UTF-8"?>
<!--Generator: Apple Native CoreSVG 326-->
<!DOCTYPE svg
PUBLIC "-//W3C//DTD SVG 1.1//EN"
       "http://www.w3.org/Graphics/SVG/1.1/DTD/svg11.dtd">
<svg version="1.1" xmlns="http://www.w3.org/2000/svg" xmlns:xlink="http://www.w3.org/1999/xlink" viewBox="0 0 25.8008 25.459">
 <g>
  <rect height="25.459" opacity="0" width="25.8008" x="0" y="0"/>
  <path d="M25.4395 12.7246C25.4395 19.7266 19.7266 25.4395 12.7148 25.4395C5.71289 25.4395 0 19.7266 0 12.7246C0 5.71289 5.71289 0 12.7148 0C19.7266 0 25.4395 5.71289 25.4395 12.7246ZM8.75977 8.00781C8.55469 8.00781 8.35938 8.07617 8.22266 8.22266L6.05469 10.4004C5.76172 10.6934 5.77148 11.1426 6.05469 11.4355C6.33789 11.7188 6.79688 11.7188 7.08008 11.4355L9.05273 9.45312L10.332 9.45312C10.4785 9.45312 10.5273 9.58984 10.4395 9.67773L8.4668 11.6309C7.51953 12.5684 8.01758 14.1992 9.52148 14.1992L12.9688 14.1992L12.3926 17.373C12.2168 18.3301 13.6523 18.5645 13.8281 17.5879L14.5605 13.584C14.6289 13.2129 14.3848 12.8125 13.9551 12.7441L11.5527 12.4023L13.0566 10.9277C13.1934 10.7812 13.3887 10.7715 13.5449 10.9277L17.2559 14.6387C17.5391 14.9219 18.0078 14.9316 18.291 14.6387C18.5645 14.3457 18.5742 13.9062 18.291 13.6133L13.2129 8.53516C12.8809 8.20312 12.4316 8.00781 11.9336 8.00781ZM8.08594 16.748L5.52734 16.748C5.10742 16.748 4.79492 17.0801 4.79492 17.4609C4.79492 17.8711 5.10742 18.1934 5.52734 18.1934L8.75977 18.1934C9.11133 18.1934 9.39453 17.9199 9.46289 17.5488L9.99023 14.7949L9.52148 14.7949C9.02344 14.7949 8.59375 14.6484 8.26172 14.4336ZM18.5059 15.127C18.3398 15.127 18.2031 15.2539 18.2031 15.4297C18.2031 15.6055 18.3398 15.7422 18.5059 15.7422L19.2773 15.7422C19.502 15.7422 19.6777 15.8887 19.6777 16.1328L19.6777 16.4453L18.1445 16.4453C17.6562 16.4453 17.2754 16.8359 17.2754 17.3242C17.2754 17.8027 17.6562 18.1934 18.1445 18.1934L20.3223 18.1934C20.8105 18.1934 21.1914 17.8027 21.1914 17.3242C21.1914 16.8359 20.8105 16.4453 20.3223 16.4453L20.2734 16.4453L20.2734 16.1328C20.2734 15.5566 19.8438 15.127 19.2773 15.127ZM13.3984 7.00195C13.3984 7.85156 14.0918 8.54492 14.9512 8.54492C15.8105 8.54492 16.4941 7.85156 16.4941 7.00195C16.4941 6.14258 15.8105 5.45898 14.9512 5.45898C14.0918 5.45898 13.3984 6.14258 13.3984 7.00195Z" fill="black" fill-opacity="0.85"/>
 </g>
</svg>
