<?xml version="1.0" encoding="UTF-8"?>
<!--Generator: Apple Native CoreSVG 326-->
<!DOCTYPE svg
PUBLIC "-//W3C//DTD SVG 1.1//EN"
       "http://www.w3.org/Graphics/SVG/1.1/DTD/svg11.dtd">
<svg version="1.1" xmlns="http://www.w3.org/2000/svg" xmlns:xlink="http://www.w3.org/1999/xlink" viewBox="0 0 25.8008 25.459">
 <g>
  <rect height="25.459" opacity="0" width="25.8008" x="0" y="0"/>
  <path d="M12.7148 25.4395C19.7363 25.4395 25.4395 19.7461 25.4395 12.7246C25.4395 5.70312 19.7363 0 12.7148 0C5.69336 0 0 5.70312 0 12.7246C0 19.7461 5.69336 25.4395 12.7148 25.4395ZM12.7148 23.623C6.68945 23.623 1.81641 18.75 1.81641 12.7246C1.81641 6.69922 6.68945 1.82617 12.7148 1.82617C18.7402 1.82617 23.6133 6.69922 23.6133 12.7246C23.6133 18.75 18.7402 23.623 12.7148 23.623Z" fill="black" fill-opacity="0.85"/>
  <path d="M12.7148 10.4102C13.3203 10.4102 13.7988 10.4395 14.082 10.498C14.4434 10.5566 14.6094 10.7617 14.6094 11.1328C14.6191 11.6016 14.6094 13.2617 14.4922 14.0137C14.3652 14.7656 13.5156 18.3887 13.4668 18.5254C13.3398 18.9258 13.5938 19.2773 13.9844 19.2773C14.2969 19.2773 14.502 19.1113 14.5898 18.75C14.7852 18.0176 15.3906 15.498 15.5859 14.9219C15.7422 14.4727 15.8398 14.3457 16.0449 14.3457C16.25 14.3457 16.3672 14.4727 16.5137 14.9219C16.709 15.4883 17.3438 18.0078 17.5098 18.75C17.5977 19.1211 17.793 19.2773 18.1055 19.2773C18.4863 19.2773 18.7402 18.916 18.6328 18.5352C18.5938 18.3789 17.7344 14.7656 17.5977 14.0137C17.4902 13.2617 17.4902 11.6016 17.4902 11.1035C17.4902 10.7715 17.6465 10.5273 17.9102 10.4785C18.2129 10.3906 20.4785 10.1758 20.8105 10.0488C21.0742 9.96094 21.2402 9.74609 21.2402 9.47266C21.2402 9.15039 20.9961 8.88672 20.7227 8.88672C20.6152 8.88672 20.5273 8.91602 20.4199 8.93555C19.4629 9.10156 17.4805 9.24805 16.0449 9.33594C14.873 9.35547 13.5645 9.39453 12.7441 9.39453C11.9043 9.39453 10.5566 9.35547 9.35547 9.33594C7.93945 9.25781 5.9375 9.13086 4.9707 8.93555C4.88281 8.91602 4.79492 8.88672 4.6875 8.88672C4.4043 8.88672 4.16992 9.14062 4.16992 9.47266C4.16992 9.76562 4.3457 10.0098 4.60938 10.0488C4.94141 10.1367 7.19727 10.4102 7.49023 10.4785C7.75391 10.5273 7.91992 10.7715 7.92969 11.1035C7.92969 11.6016 7.92969 13.2617 7.79297 14.0137C7.66602 14.7656 6.81641 18.3887 6.76758 18.5254C6.65039 18.916 6.9043 19.2773 7.29492 19.2773C7.60742 19.2773 7.79297 19.1211 7.91016 18.75C8.0957 18.0176 8.70117 15.498 8.91602 14.9219C9.05273 14.4824 9.15039 14.3457 9.35547 14.3457C9.58008 14.3457 9.69727 14.4727 9.83398 14.9121C10.0098 15.4883 10.6543 18.0078 10.8203 18.75C10.8984 19.1113 11.0938 19.2773 11.416 19.2773C11.8066 19.2773 12.0605 18.9258 11.9336 18.5352C11.8945 18.3789 11.0352 14.7656 10.9082 14.0137C10.8008 13.2617 10.8008 11.6016 10.8105 11.1328C10.8203 10.7617 10.9766 10.5566 11.3379 10.498C11.6699 10.4297 12.2266 10.3906 12.7148 10.4102ZM9.35547 8.69141C10.0781 8.69141 10.6738 8.11523 10.6738 7.37305C10.6738 6.66016 10.0879 6.07422 9.35547 6.07422C8.62305 6.07422 8.04688 6.66016 8.04688 7.37305C8.04688 8.11523 8.62305 8.69141 9.35547 8.69141ZM16.0449 8.69141C16.7676 8.69141 17.373 8.10547 17.373 7.37305C17.373 6.66016 16.7773 6.07422 16.0449 6.07422C15.3223 6.07422 14.7461 6.66016 14.7461 7.37305C14.7461 8.11523 15.3223 8.69141 16.0449 8.69141Z" fill="black" fill-opacity="0.85"/>
 </g>
</svg>
