<?xml version="1.0" encoding="UTF-8"?>
<!--Generator: Apple Native CoreSVG 326-->
<!DOCTYPE svg
PUBLIC "-//W3C//DTD SVG 1.1//EN"
       "http://www.w3.org/Graphics/SVG/1.1/DTD/svg11.dtd">
<svg version="1.1" xmlns="http://www.w3.org/2000/svg" xmlns:xlink="http://www.w3.org/1999/xlink" viewBox="0 0 25.8008 25.459">
 <g>
  <rect height="25.459" opacity="0" width="25.8008" x="0" y="0"/>
  <path d="M12.7148 25.4395C19.7363 25.4395 25.4395 19.7461 25.4395 12.7246C25.4395 5.70312 19.7363 0 12.7148 0C5.69336 0 0 5.70312 0 12.7246C0 19.7461 5.69336 25.4395 12.7148 25.4395ZM12.7148 23.623C6.68945 23.623 1.81641 18.75 1.81641 12.7246C1.81641 6.69922 6.68945 1.82617 12.7148 1.82617C18.7402 1.82617 23.6133 6.69922 23.6133 12.7246C23.6133 18.75 18.7402 23.623 12.7148 23.623Z" fill="black" fill-opacity="0.85"/>
  <path d="M13.8965 7.07031C14.7363 7.07031 15.4102 6.39648 15.4102 5.53711C15.4102 4.70703 14.7363 4.0332 13.8965 4.0332C13.0469 4.0332 12.373 4.70703 12.373 5.53711C12.373 6.39648 13.0469 7.07031 13.8965 7.07031ZM7.12891 15.4395L11.7188 15.4395C12.3438 15.4395 12.627 14.7363 12.2754 14.2969L10.8301 12.5293L14.9414 12.2559L18.7891 12.2559C19.1797 12.2559 19.5117 11.9531 19.5117 11.5625C19.5117 11.1816 19.1797 10.8594 18.7891 10.8594L11.6699 10.8594L13.3594 9.16016C13.418 9.0918 13.5156 9.04297 13.623 9.0625L18.6621 9.70703C19.082 9.75586 19.4629 9.44336 19.4629 9.01367C19.4629 8.67188 19.1992 8.36914 18.8477 8.32031L8.28125 6.98242C8.05664 6.95312 7.85156 7.02148 7.69531 7.17773L5.92773 8.94531C5.64453 9.22852 5.6543 9.64844 5.92773 9.94141C6.17188 10.1953 6.65039 10.2344 6.92383 9.94141L8.4375 8.41797L10.0879 8.62305C10.2539 8.64258 10.3027 8.80859 10.1953 8.91602L8.64258 10.459C8.02734 11.0645 8.00781 12.0117 8.64258 12.6562L10.0098 14.043L7.12891 14.043C6.73828 14.043 6.42578 14.3457 6.42578 14.7363C6.42578 15.1172 6.73828 15.4395 7.12891 15.4395ZM13.623 21.0938C13.623 21.3086 13.7891 21.4844 14.0137 21.4844C14.2285 21.4844 14.4043 21.3086 14.4043 21.0938L14.4043 13.8477C14.4043 13.6328 14.2285 13.457 14.0137 13.457C13.7891 13.457 13.623 13.6328 13.623 13.8477Z" fill="black" fill-opacity="0.85"/>
 </g>
</svg>
