<?xml version="1.0" encoding="UTF-8"?>
<!--Generator: Apple Native CoreSVG 326-->
<!DOCTYPE svg
PUBLIC "-//W3C//DTD SVG 1.1//EN"
       "http://www.w3.org/Graphics/SVG/1.1/DTD/svg11.dtd">
<svg version="1.1" xmlns="http://www.w3.org/2000/svg" xmlns:xlink="http://www.w3.org/1999/xlink" viewBox="0 0 17.8873 28.8574">
 <g>
  <rect height="28.8574" opacity="0" width="17.8873" x="0" y="0"/>
  <path d="M2.16632 27.8906L6.07257 23.2324C6.46319 22.7832 6.51202 22.6758 6.65851 22.1973L7.0003 21.1719L4.92022 18.5742L4.25616 21.6406L0.388974 26.2207C-0.841495 27.666 1.15069 29.0918 2.16632 27.8906ZM11.7171 27.5098C12.5081 29.1211 14.8909 28.1348 14.0218 26.3867L11.3655 20.9961C11.1702 20.5957 10.887 20.166 10.6331 19.8145L8.94366 17.4121L9.06085 17.0508C9.51983 15.7129 9.68585 14.8926 9.77374 13.5645L10.0472 9.80469C10.1741 7.99805 9.10968 6.66016 7.29327 6.66016C5.93585 6.66016 5.00811 7.36328 3.73858 8.59375L1.75616 10.5566C1.11163 11.1914 0.887021 11.709 0.828427 12.5488L0.594052 15.6348C0.535458 16.3965 0.95538 16.9434 1.66827 16.9629C2.39093 17.0117 2.82061 16.5918 2.88897 15.7715L3.18194 12.3926L4.13897 11.5332C4.49054 11.2109 4.97882 11.416 4.93976 11.7871L4.72491 14.6484C4.60772 16.084 4.94952 16.7676 5.94561 18.0078L8.58233 21.3086C8.84601 21.6504 8.8753 21.7773 8.98272 21.9922ZM16.2288 11.7578L13.221 11.7578L11.2093 9.53125L11.014 12.6562L11.8733 13.5156C12.303 13.9453 12.6546 14.0723 13.4261 14.0723L16.2288 14.0723C17.0101 14.0723 17.5276 13.623 17.5276 12.9102C17.5276 12.207 17.0003 11.7578 16.2288 11.7578ZM8.73858 5.47852C10.262 5.47852 11.4827 4.25781 11.4827 2.73438C11.4827 1.2207 10.262 0 8.73858 0C7.22491 0 5.99444 1.2207 5.99444 2.73438C5.99444 4.25781 7.22491 5.47852 8.73858 5.47852Z" fill="black" fill-opacity="0.85"/>
 </g>
</svg>
