<?xml version="1.0" encoding="UTF-8"?>
<!--Generator: Apple Native CoreSVG 326-->
<!DOCTYPE svg
PUBLIC "-//W3C//DTD SVG 1.1//EN"
       "http://www.w3.org/Graphics/SVG/1.1/DTD/svg11.dtd">
<svg version="1.1" xmlns="http://www.w3.org/2000/svg" xmlns:xlink="http://www.w3.org/1999/xlink" viewBox="0 0 25.8008 25.459">
 <g>
  <rect height="25.459" opacity="0" width="25.8008" x="0" y="0"/>
  <path d="M25.4395 12.7246C25.4395 19.7266 19.7266 25.4395 12.7148 25.4395C5.71289 25.4395 0 19.7266 0 12.7246C0 5.71289 5.71289 0 12.7148 0C19.7266 0 25.4395 5.71289 25.4395 12.7246ZM12.8223 7.49023L9.83398 7.63672C9.45312 7.65625 9.14062 7.89062 9.11133 8.33984L8.92578 11.0547C8.92578 11.2402 8.99414 11.3965 9.11133 11.4941L4.44336 16.0352C4.28711 16.1914 4.27734 16.4453 4.43359 16.6016C4.58008 16.7383 4.85352 16.748 5.00977 16.5918L10.1367 11.6113C10.2637 11.4941 10.332 11.2988 10.3516 11.0352L10.459 8.97461L12.2461 8.90625L10.8887 11.3477C10.459 12.1289 10.6543 12.998 11.4551 13.457L14.1113 14.9707L14.1113 18.5547C14.1113 18.6133 14.1113 18.6914 14.1406 18.7402L8.4082 18.7402L11.3672 15.9863C11.543 15.8203 11.5918 15.7227 11.6699 15.5371L12.0703 14.5801L11.123 14.0234C10.9277 13.9062 10.7715 13.8086 10.6445 13.6523L10.2832 15.0586L7.28516 17.832C6.96289 18.125 6.98242 18.4863 7.14844 18.7402L5.21484 18.7402C4.99023 18.7402 4.80469 18.916 4.80469 19.1309C4.80469 19.3359 4.98047 19.5508 5.21484 19.5508L18.7598 19.5508C19.4727 19.5508 19.9121 19.3652 20.4199 19.1309C20.6348 19.0234 20.7031 18.7988 20.6348 18.6133C20.5566 18.418 20.332 18.2715 20.0879 18.4082C19.6875 18.6035 19.3457 18.7402 18.7598 18.7402L15.4883 18.7402C15.5078 18.6914 15.5273 18.6133 15.5273 18.5547L15.5273 14.5117C15.5273 14.2969 15.459 14.1504 15.2148 13.9551L13.3301 12.4512L14.7754 9.91211L17.1289 11.6992C17.4512 11.9434 17.8711 11.9141 18.1641 11.5918L19.1602 10.4883L18.6328 17.5781C18.623 17.793 18.7891 17.998 19.0039 18.0176C19.2188 18.0273 19.4238 17.8613 19.4336 17.6367L20.0684 9.22852C20.1074 8.65234 19.2969 8.18359 18.7695 8.78906L17.5684 10.1953L15.5078 8.51562C14.7559 7.90039 14.0527 7.42188 12.8223 7.49023ZM13.9648 5.88867C13.9648 6.72852 14.668 7.43164 15.5078 7.43164C16.3574 7.43164 17.041 6.72852 17.041 5.88867C17.041 5.03906 16.3574 4.3457 15.5078 4.3457C14.668 4.3457 13.9648 5.03906 13.9648 5.88867Z" fill="black" fill-opacity="0.85"/>
 </g>
</svg>
