<?xml version="1.0" encoding="UTF-8"?>
<!--Generator: Apple Native CoreSVG 326-->
<!DOCTYPE svg
PUBLIC "-//W3C//DTD SVG 1.1//EN"
       "http://www.w3.org/Graphics/SVG/1.1/DTD/svg11.dtd">
<svg version="1.1" xmlns="http://www.w3.org/2000/svg" xmlns:xlink="http://www.w3.org/1999/xlink" viewBox="0 0 25.8008 25.459">
 <g>
  <rect height="25.459" opacity="0" width="25.8008" x="0" y="0"/>
  <path d="M12.7148 25.4395C19.7363 25.4395 25.4395 19.7461 25.4395 12.7246C25.4395 5.70312 19.7363 0 12.7148 0C5.69336 0 0 5.70312 0 12.7246C0 19.7461 5.69336 25.4395 12.7148 25.4395ZM12.7148 23.623C6.68945 23.623 1.81641 18.75 1.81641 12.7246C1.81641 6.69922 6.68945 1.82617 12.7148 1.82617C18.7402 1.82617 23.6133 6.69922 23.6133 12.7246C23.6133 18.75 18.7402 23.623 12.7148 23.623Z" fill="black" fill-opacity="0.85"/>
  <path d="M15.2832 9.29688C16.1328 9.29688 16.8066 8.62305 16.8066 7.76367C16.8066 6.93359 16.1328 6.25977 15.2832 6.25977C14.4434 6.25977 13.7695 6.93359 13.7695 7.76367C13.7695 8.62305 14.4434 9.29688 15.2832 9.29688ZM10.4102 19.8828C10.7129 20 11.1035 19.9121 11.3086 19.4922L13.0957 15.9375C13.2227 15.6738 13.2031 15.3516 12.959 15.1074L10.8105 12.959L13.5254 11.6113C13.6621 11.543 13.7988 11.5723 13.8965 11.6699L15.5078 13.2812C15.6348 13.4082 15.8203 13.4863 16.0059 13.4863L19.1211 13.4863C19.502 13.4863 19.8242 13.1738 19.8242 12.7832C19.8242 12.373 19.502 12.0605 19.1211 12.0605L16.3086 12.0605L13.3008 9.05273C12.9492 8.70117 12.4707 8.50586 11.9531 8.50586L6.04492 8.50586C5.64453 8.50586 5.33203 8.82812 5.33203 9.21875C5.33203 9.59961 5.64453 9.92188 6.04492 9.92188L10.5078 9.92188C10.5762 9.92188 10.6055 10.0488 10.5371 10.0879L9.19922 10.7422C8.50586 11.0938 8.14453 11.748 8.14453 12.4121C8.14453 12.9883 8.4082 13.5645 8.93555 13.9453L11.5332 15.8496L10.0293 18.8672C9.78516 19.3555 10.0488 19.7363 10.4102 19.8828ZM4.51172 17.041L7.82227 17.041C8.0957 17.041 8.34961 16.8945 8.4668 16.6602L9.30664 14.9414L8.58398 14.4141C8.22266 14.1504 8.04688 13.9062 7.92969 13.7109L7.31445 15.625L4.51172 15.625C4.13086 15.625 3.81836 15.9375 3.81836 16.3379C3.81836 16.7188 4.13086 17.041 4.51172 17.041ZM19.4434 6.61133C18.5254 6.61133 17.8223 7.30469 17.8223 8.23242C17.8223 9.58008 19.0039 11.0938 19.1699 11.2695L19.7266 11.2695C19.8828 11.0938 21.0742 9.58008 21.0742 8.23242C21.0742 7.30469 20.3711 6.61133 19.4434 6.61133ZM19.4434 7.38281C19.9609 7.38281 20.293 7.74414 20.293 8.23242C20.293 8.90625 19.7754 9.83398 19.4434 10.3613C19.1113 9.83398 18.5938 8.90625 18.5938 8.23242C18.5938 7.74414 18.9453 7.38281 19.4434 7.38281ZM19.0527 12.7832L19.8242 12.7832L19.8242 10.9473L19.0527 10.9473Z" fill="black" fill-opacity="0.85"/>
 </g>
</svg>
