<?xml version="1.0" encoding="UTF-8"?>
<!--Generator: Apple Native CoreSVG 326-->
<!DOCTYPE svg
PUBLIC "-//W3C//DTD SVG 1.1//EN"
       "http://www.w3.org/Graphics/SVG/1.1/DTD/svg11.dtd">
<svg version="1.1" xmlns="http://www.w3.org/2000/svg" xmlns:xlink="http://www.w3.org/1999/xlink" viewBox="0 0 25.8008 25.459">
 <g>
  <rect height="25.459" opacity="0" width="25.8008" x="0" y="0"/>
  <path d="M25.4395 12.7246C25.4395 19.7266 19.7266 25.4395 12.7148 25.4395C5.71289 25.4395 0 19.7266 0 12.7246C0 5.71289 5.71289 0 12.7148 0C19.7266 0 25.4395 5.71289 25.4395 12.7246ZM7.62695 8.36914C7.22656 8.36914 6.88477 8.70117 6.88477 9.10156C6.00586 9.10156 5.2832 9.83398 5.2832 10.7031C5.2832 11.582 6.00586 12.3145 6.88477 12.3145C7.76367 12.3145 8.48633 11.582 8.48633 10.7031C8.48633 10.3906 8.39844 10.0977 8.24219 9.84375L12.5488 9.84375C12.793 9.84375 12.9102 10.1172 12.7344 10.2734L11.2988 11.709C10.6543 12.3438 10.752 13.3008 11.1816 13.6328L14.8145 16.3965L13.6816 19.8633C13.5156 20.3711 13.8281 20.7324 14.209 20.8203C14.5508 20.8887 14.9414 20.752 15.0879 20.2734L16.3477 16.3867C16.4551 16.1035 16.3867 15.791 16.2012 15.6055L13.7598 13.1641L16.5625 10.3516C16.6797 10.2344 16.8652 10.2441 16.9922 10.3516L17.959 11.3281L16.6309 12.6465C16.3281 12.9395 16.3477 13.4082 16.6309 13.6816C16.9043 13.9551 17.373 13.9844 17.666 13.6816L19.5117 11.8555C19.8047 11.5527 19.7949 11.0938 19.5117 10.8008L17.7344 9.00391C17.3047 8.57422 16.7871 8.36914 16.1816 8.36914ZM10.6152 16.4941L7.19727 16.4941C6.77734 16.4941 6.45508 16.8262 6.45508 17.2266C6.45508 17.6367 6.77734 17.9688 7.19727 17.9688L11.2012 17.9688C11.5918 17.9688 11.8555 17.7637 11.9531 17.4414L12.5586 15.4297L10.9766 14.2285ZM15.1367 6.04492C15.1367 6.9043 15.8301 7.59766 16.6895 7.59766C17.5391 7.59766 18.2324 6.9043 18.2324 6.04492C18.2324 5.19531 17.5391 4.49219 16.6895 4.49219C15.8301 4.49219 15.1367 5.19531 15.1367 6.04492Z" fill="black" fill-opacity="0.85"/>
 </g>
</svg>
