<?xml version="1.0" encoding="UTF-8"?>
<!--Generator: Apple Native CoreSVG 326-->
<!DOCTYPE svg
PUBLIC "-//W3C//DTD SVG 1.1//EN"
       "http://www.w3.org/Graphics/SVG/1.1/DTD/svg11.dtd">
<svg version="1.1" xmlns="http://www.w3.org/2000/svg" xmlns:xlink="http://www.w3.org/1999/xlink" viewBox="0 0 25.8008 25.459">
 <g>
  <rect height="25.459" opacity="0" width="25.8008" x="0" y="0"/>
  <path d="M12.7148 25.4395C19.7363 25.4395 25.4395 19.7461 25.4395 12.7246C25.4395 5.70312 19.7363 0 12.7148 0C5.69336 0 0 5.70312 0 12.7246C0 19.7461 5.69336 25.4395 12.7148 25.4395ZM12.7148 23.623C6.68945 23.623 1.81641 18.75 1.81641 12.7246C1.81641 6.69922 6.68945 1.82617 12.7148 1.82617C18.7402 1.82617 23.6133 6.69922 23.6133 12.7246C23.6133 18.75 18.7402 23.623 12.7148 23.623Z" fill="black" fill-opacity="0.85"/>
  <path d="M12.1484 9.56055C12.9785 9.56055 13.6523 8.88672 13.6523 8.05664C13.6523 7.2168 12.9785 6.52344 12.1484 6.52344C11.2988 6.52344 10.6152 7.2168 10.6152 8.05664C10.6152 8.88672 11.2988 9.56055 12.1484 9.56055ZM18.3203 20.752C18.7109 20.752 19.0137 20.4297 19.0137 20.0391L19.0137 16.6309C19.0137 16.377 18.8965 16.1719 18.7109 16.0254L15.9766 13.7793L15.4395 10.8496C15.3809 10.5469 15.4199 10.2539 15.5664 9.9707L17.7148 5.68359C17.8906 5.32227 17.7441 4.91211 17.3926 4.72656C17.0508 4.55078 16.6211 4.69727 16.4551 5.03906L14.3457 9.25781C14.1797 9.58008 13.9453 9.78516 13.6133 9.92188L9.62891 11.5918L8.01758 10.3027C7.89062 10.1953 7.72461 10.166 7.59766 10.166L7.59766 8.55469L6.875 8.55469L6.875 10.8203C6.875 11.0645 6.95312 11.2598 7.12891 11.4062L9.0918 12.959C9.32617 13.1543 9.59961 13.125 9.89258 13.0078L12.0703 12.1094C12.3828 11.9824 12.5391 12.1387 12.5684 12.3438L13.6523 18.291L10.6543 19.4824C10.3027 19.6289 10.1172 20.0391 10.2637 20.4102C10.4199 20.8105 10.8398 20.918 11.1816 20.7812L14.707 19.3848C15.0098 19.2578 15.166 18.9551 15.1465 18.6426L14.9512 15.8984C14.9414 15.5957 15.2637 15.4199 15.498 15.5762L17.6172 17.002L17.6172 20.0391C17.6172 20.4297 17.9199 20.752 18.3203 20.752ZM7.22656 4.88281C6.23047 4.88281 5.44922 5.68359 5.44922 6.68945C5.44922 7.60742 6.21094 8.64258 7.22656 8.98438C8.26172 8.64258 9.01367 7.60742 9.01367 6.68945C9.01367 5.68359 8.23242 4.88281 7.22656 4.88281ZM7.22656 5.5957C7.8418 5.5957 8.30078 6.06445 8.30078 6.69922C8.30078 7.30469 7.87109 7.96875 7.22656 8.21289C6.60156 7.96875 6.17188 7.30469 6.17188 6.69922C6.17188 6.06445 6.63086 5.5957 7.22656 5.5957Z" fill="black" fill-opacity="0.85"/>
 </g>
</svg>
