<?xml version="1.0" encoding="UTF-8"?>
<!--Generator: Apple Native CoreSVG 326-->
<!DOCTYPE svg
PUBLIC "-//W3C//DTD SVG 1.1//EN"
       "http://www.w3.org/Graphics/SVG/1.1/DTD/svg11.dtd">
<svg version="1.1" xmlns="http://www.w3.org/2000/svg" xmlns:xlink="http://www.w3.org/1999/xlink" viewBox="0 0 25.8008 25.459">
 <g>
  <rect height="25.459" opacity="0" width="25.8008" x="0" y="0"/>
  <path d="M12.7148 25.4395C19.7363 25.4395 25.4395 19.7461 25.4395 12.7246C25.4395 5.70312 19.7363 0 12.7148 0C5.69336 0 0 5.70312 0 12.7246C0 19.7461 5.69336 25.4395 12.7148 25.4395ZM12.7148 23.623C6.68945 23.623 1.81641 18.75 1.81641 12.7246C1.81641 6.69922 6.68945 1.82617 12.7148 1.82617C18.7402 1.82617 23.6133 6.69922 23.6133 12.7246C23.6133 18.75 18.7402 23.623 12.7148 23.623Z" fill="black" fill-opacity="0.85"/>
  <path d="M17.4023 9.57031C18.2422 9.57031 18.916 8.89648 18.916 8.04688C18.916 7.20703 18.2422 6.5332 17.4023 6.5332C16.5527 6.5332 15.8789 7.20703 15.8789 8.04688C15.8789 8.89648 16.5527 9.57031 17.4023 9.57031ZM5.18555 16.7188L9.26758 15.6934L9.26758 16.6504C9.26758 17.0312 9.58984 17.3438 9.98047 17.3438C10.3711 17.3438 10.6836 17.0312 10.6836 16.6504L10.6836 15.4297L13.6621 14.9805C14.1992 14.9023 14.7363 14.668 15.1953 14.3262L17.7539 12.4023C17.8516 12.334 17.998 12.3438 18.0469 12.4609L18.7988 13.9941L18.7988 16.6504C18.7988 17.0703 19.1113 17.3438 19.5215 17.3438C19.9414 17.3438 20.2148 17.0703 20.2148 16.6504L20.2148 13.8281C20.2148 13.7109 20.1953 13.6035 20.1465 13.5059L18.9258 11.0742C18.6914 10.5859 18.2031 10.293 17.666 10.293L17.0508 10.293C16.4355 10.293 15.8398 10.4883 15.3516 10.8594L13.3398 12.3633L10.3809 11.7676C9.75586 11.6406 9.26758 11.9141 9.26758 12.5684L9.26758 14.2285L4.84375 15.3516C4.38477 15.4688 4.20898 15.8203 4.26758 16.1523C4.32617 16.5137 4.6582 16.8457 5.18555 16.7188ZM10.6836 13.8867L10.6836 13.3594L11.6504 13.6523ZM14.043 17.3438L16.8652 17.3438C17.4414 17.3438 17.9199 16.8848 17.9199 16.2891C17.9199 15.7031 17.4414 15.2246 16.8652 15.2246L14.043 15.2246C13.4473 15.2246 12.9785 15.7031 12.9785 16.2891C12.9785 16.8848 13.4473 17.3438 14.043 17.3438ZM16.8555 16.7871C16.582 16.7871 16.3574 16.5625 16.3574 16.2891C16.3574 16.0156 16.582 15.791 16.8555 15.791C17.1289 15.791 17.3535 16.0156 17.3535 16.2891C17.3535 16.5625 17.1289 16.7871 16.8555 16.7871Z" fill="black" fill-opacity="0.85"/>
 </g>
</svg>
