<?xml version="1.0" encoding="UTF-8"?>
<!--Generator: Apple Native CoreSVG 326-->
<!DOCTYPE svg
PUBLIC "-//W3C//DTD SVG 1.1//EN"
       "http://www.w3.org/Graphics/SVG/1.1/DTD/svg11.dtd">
<svg version="1.1" xmlns="http://www.w3.org/2000/svg" xmlns:xlink="http://www.w3.org/1999/xlink" viewBox="0 0 25.8008 25.459">
 <g>
  <rect height="25.459" opacity="0" width="25.8008" x="0" y="0"/>
  <path d="M12.7148 25.4395C19.7363 25.4395 25.4395 19.7461 25.4395 12.7246C25.4395 5.70312 19.7363 0 12.7148 0C5.69336 0 0 5.70312 0 12.7246C0 19.7461 5.69336 25.4395 12.7148 25.4395ZM12.7148 23.623C6.68945 23.623 1.81641 18.75 1.81641 12.7246C1.81641 6.69922 6.68945 1.82617 12.7148 1.82617C18.7402 1.82617 23.6133 6.69922 23.6133 12.7246C23.6133 18.75 18.7402 23.623 12.7148 23.623Z" fill="black" fill-opacity="0.85"/>
  <path d="M12.666 7.59766C13.5156 7.59766 14.1992 6.9043 14.1992 6.05469C14.1992 5.20508 13.5156 4.52148 12.666 4.52148C11.8066 4.52148 11.1133 5.20508 11.1133 6.05469C11.1133 6.9043 11.8066 7.59766 12.666 7.59766ZM7.96875 19.2383C7.27539 20.0684 8.4082 20.8691 8.97461 20.1953L10.9766 17.8027C11.1816 17.5684 11.2598 17.4316 11.416 17.1191L12.6758 14.3848C13.0664 13.5645 13.125 13.0566 13.1836 12.1875L13.2715 11.0449L14.375 12.1094C14.6289 12.3438 14.8145 12.4219 15.2441 12.4219L16.8555 12.4219C17.2852 12.4219 17.5781 12.168 17.5781 11.7676C17.5781 11.377 17.2852 11.123 16.8555 11.123L15.127 11.123L12.998 8.78906C12.6758 8.44727 12.2656 8.25195 11.7676 8.25195C11.6406 8.25195 11.5137 8.27148 11.3965 8.30078C11.3965 7.76367 10.9766 7.35352 10.3906 7.35352L9.64844 7.35352C8.86719 7.35352 8.38867 7.8418 8.38867 8.62305L8.38867 12.168C8.38867 12.7051 8.7793 13.0957 9.30664 13.0957L10.293 13.0957C10.293 13.5645 10.4199 13.8965 10.6836 14.2969L10.0391 16.7871ZM12.4121 16.4941C12.5977 16.7285 12.666 16.8457 12.7441 16.9922L14.209 19.9707C14.668 20.8887 16.0156 20.3125 15.5273 19.3359L14.0918 16.4258C13.9746 16.1914 13.8184 15.9375 13.6719 15.7422L13.125 14.9707ZM16.5234 20.1172C16.5234 20.3027 16.6699 20.459 16.8652 20.459C17.0508 20.459 17.207 20.3027 17.207 20.1172L17.207 13.0078C17.0605 13.0371 16.9336 13.0469 16.8555 13.0469L16.5234 13.0469ZM16.5234 10.498L16.8555 10.498C16.9434 10.498 17.0605 10.5078 17.207 10.5371L17.207 9.50195C17.207 9.31641 17.0605 9.16992 16.8652 9.16992C16.6699 9.16992 16.5234 9.31641 16.5234 9.50195Z" fill="black" fill-opacity="0.85"/>
 </g>
</svg>
