<?xml version="1.0" encoding="UTF-8"?>
<!--Generator: Apple Native CoreSVG 326-->
<!DOCTYPE svg
PUBLIC "-//W3C//DTD SVG 1.1//EN"
       "http://www.w3.org/Graphics/SVG/1.1/DTD/svg11.dtd">
<svg version="1.1" xmlns="http://www.w3.org/2000/svg" xmlns:xlink="http://www.w3.org/1999/xlink" viewBox="0 0 25.8008 25.459">
 <g>
  <rect height="25.459" opacity="0" width="25.8008" x="0" y="0"/>
  <path d="M12.7148 25.4395C19.7363 25.4395 25.4395 19.7461 25.4395 12.7246C25.4395 5.70312 19.7363 0 12.7148 0C5.69336 0 0 5.70312 0 12.7246C0 19.7461 5.69336 25.4395 12.7148 25.4395ZM12.7148 23.623C6.68945 23.623 1.81641 18.75 1.81641 12.7246C1.81641 6.69922 6.68945 1.82617 12.7148 1.82617C18.7402 1.82617 23.6133 6.69922 23.6133 12.7246C23.6133 18.75 18.7402 23.623 12.7148 23.623Z" fill="black" fill-opacity="0.85"/>
  <path d="M8.80859 8.55469C9.59961 8.55469 10.2441 7.91016 10.2441 7.11914C10.2441 6.32812 9.59961 5.68359 8.80859 5.68359C8.00781 5.68359 7.37305 6.32812 7.37305 7.11914C7.37305 7.91016 8.00781 8.55469 8.80859 8.55469ZM17.168 8.27148C17.959 8.27148 18.6035 7.62695 18.6035 6.8457C18.6035 6.04492 17.959 5.41016 17.168 5.41016C16.377 5.41016 15.7227 6.04492 15.7227 6.8457C15.7227 7.62695 16.377 8.27148 17.168 8.27148ZM4.78516 10.3516L6.24023 10.4688C6.34766 10.4688 6.42578 10.5469 6.42578 10.6641L6.42578 13.3301C6.42578 13.8574 6.5918 14.3848 6.91406 14.8047L8.63281 17.0117L7.75391 19.9219C7.64648 20.3027 7.86133 20.7031 8.23242 20.8105C8.59375 20.9082 8.99414 20.752 9.12109 20.332L10.1074 17.0508C10.1172 16.9922 10.1367 16.9434 10.1367 16.875L12.793 20.2344C13.0273 20.5469 13.4961 20.6055 13.7793 20.3613C14.1016 20.1074 14.1699 19.668 13.9062 19.3457L9.16992 13.3594L9.38477 11.2207C9.39453 11.0742 9.54102 10.9961 9.66797 11.0645L11.3281 11.8848C11.4355 11.9434 11.6309 11.9922 11.8066 11.9922L14.3262 11.9922C14.502 11.9922 14.668 11.9434 14.7949 11.8262L15.9961 10.791C16.1133 10.6934 16.2695 10.7422 16.3184 10.8887L17.002 12.7637L14.1406 13.5352C13.8574 13.6133 13.6426 13.8574 13.623 14.1602L13.3008 17.4414C13.252 17.9102 13.6621 18.2129 14.0039 18.2129C14.375 18.2129 14.6777 17.959 14.7168 17.5684L14.9902 14.8535L16.9824 14.5508L16.0352 16.4648C15.918 16.6699 15.8594 16.8945 15.957 17.1094L17.2656 20.3809C17.4219 20.791 17.8711 20.9277 18.2031 20.791C18.5645 20.6445 18.75 20.2148 18.6035 19.8633L17.4316 16.9434L19.043 14.6484C19.4434 14.0723 19.5996 13.3398 19.4727 12.6562L19.2285 11.2695C19.1992 11.0938 19.3359 10.9766 19.5117 11.0254L20.3418 11.2988C20.8984 11.4844 21.3379 11.1523 21.2695 10.5762L20.9766 7.57812C20.9375 7.14844 20.5664 6.88477 20.1953 6.93359C19.8145 6.96289 19.502 7.30469 19.5508 7.72461L19.7461 9.60938L17.7734 8.93555C16.9629 8.67188 16.0938 8.82812 15.4395 9.38477L14.0723 10.5664L11.875 10.5664L9.76562 9.51172C9.44336 9.3457 9.12109 9.25781 8.76953 9.22852L5.80078 9.00391L6.39648 7.22656C6.51367 6.83594 6.31836 6.44531 5.94727 6.31836C5.57617 6.19141 5.16602 6.39648 5.03906 6.76758L4.15039 9.41406C3.99414 9.86328 4.31641 10.3223 4.78516 10.3516Z" fill="black" fill-opacity="0.85"/>
 </g>
</svg>
