<?xml version="1.0" encoding="UTF-8"?>
<!--Generator: Apple Native CoreSVG 326-->
<!DOCTYPE svg
PUBLIC "-//W3C//DTD SVG 1.1//EN"
       "http://www.w3.org/Graphics/SVG/1.1/DTD/svg11.dtd">
<svg version="1.1" xmlns="http://www.w3.org/2000/svg" xmlns:xlink="http://www.w3.org/1999/xlink" viewBox="0 0 25.8008 25.459">
 <g>
  <rect height="25.459" opacity="0" width="25.8008" x="0" y="0"/>
  <path d="M25.4395 12.7246C25.4395 19.7266 19.7266 25.4395 12.7148 25.4395C5.71289 25.4395 0 19.7266 0 12.7246C0 5.71289 5.71289 0 12.7148 0C19.7266 0 25.4395 5.71289 25.4395 12.7246ZM19.043 18.3105L5.55664 19.1504C5.36133 19.1699 5.22461 19.3066 5.22461 19.502C5.22461 19.6777 5.37109 19.8242 5.55664 19.8242L19.1895 19.8242C19.6094 19.8242 19.9414 19.4922 19.9414 19.0527C19.9414 18.5547 19.5605 18.2715 19.043 18.3105ZM9.74609 14.7656L7.73438 17.1191C7.10938 17.8613 8.11523 18.584 8.63281 17.9785L10.6543 15.5664C10.8496 15.332 10.8887 15.2832 10.9668 15.0488L11.123 14.541L10.0586 13.2227ZM9.47266 8.14453L8.47656 9.15039C8.1543 9.45312 8.04688 9.7168 8.00781 10.1465L7.88086 11.709C7.85156 12.1094 8.06641 12.373 8.42773 12.3828C8.7793 12.4023 9.00391 12.207 9.04297 11.7871L9.18945 10.0684L9.6875 9.62891C9.85352 9.47266 10.1074 9.57031 10.0977 9.75586L9.98047 11.2109C9.92188 11.9336 10.0977 12.2949 10.5957 12.9199L11.9336 14.5996C12.0508 14.7461 12.0898 14.834 12.1484 14.9512L13.3301 17.3535C13.7305 18.1738 14.9414 17.666 14.502 16.7871L13.3398 14.4336C13.2422 14.2383 13.1055 14.0234 12.9785 13.8379L12.1289 12.6074L12.1777 12.4414C12.3828 11.7578 12.5 11.3379 12.5488 10.6641L12.6758 8.75977C12.7344 7.85156 12.207 7.16797 11.2793 7.16797C10.5859 7.16797 10.1172 7.51953 9.47266 8.14453ZM21.4453 9.69727L18.125 11.25C17.8906 11.3574 17.8125 11.6016 17.9102 11.8164C17.9883 12.002 18.2324 12.0898 18.457 11.9922L19.3359 11.5723L18.252 17.7539L18.8477 17.7246C18.9746 17.7148 19.0039 17.7148 19.0918 17.7148L20.2344 11.1621L21.7871 10.4297C21.9922 10.3418 22.0801 10.0781 21.9922 9.89258C21.9043 9.6875 21.6504 9.59961 21.4453 9.69727ZM13.1641 10.2148L13.6035 10.6445C13.8281 10.8594 14.0039 10.918 14.3945 10.918L15.8105 10.918C16.2109 10.918 16.4746 10.6934 16.4746 10.3223C16.4746 9.98047 16.2109 9.74609 15.8105 9.74609L14.2969 9.74609L13.2617 8.62305ZM10.5762 5.13672C10.5762 5.92773 11.2207 6.55273 12.0117 6.55273C12.8027 6.55273 13.457 5.92773 13.457 5.13672C13.457 4.32617 12.8027 3.69141 12.0117 3.69141C11.2207 3.69141 10.5762 4.32617 10.5762 5.13672Z" fill="black" fill-opacity="0.85"/>
 </g>
</svg>
