<?xml version="1.0" encoding="UTF-8"?>
<!--Generator: Apple Native CoreSVG 326-->
<!DOCTYPE svg
PUBLIC "-//W3C//DTD SVG 1.1//EN"
       "http://www.w3.org/Graphics/SVG/1.1/DTD/svg11.dtd">
<svg version="1.1" xmlns="http://www.w3.org/2000/svg" xmlns:xlink="http://www.w3.org/1999/xlink" viewBox="0 0 29.17 35.2302">
 <g>
  <rect height="35.2302" opacity="0" width="29.17" x="0" y="0"/>
  <path d="M5.76178 11.7704C3.90631 11.7704 2.41217 10.2274 2.41217 8.43055C2.41217 6.55555 3.90631 5.03211 5.76178 5.03211C7.63678 5.03211 9.13092 6.55555 9.13092 8.43055C9.13092 10.2958 7.63678 11.7704 5.76178 11.7704ZM25.752 29.5048C25.1172 30.1786 24.0137 30.12 23.2227 29.3095L17.8809 23.7919C17.7051 23.6063 17.5782 23.5575 17.3047 23.6649L13.0665 25.2763C10.4004 26.2919 7.90045 25.3544 6.69928 23.1571L4.07232 18.3915C3.0274 16.4774 3.3692 14.5243 5.17584 13.5673C6.92389 12.6005 8.74029 13.3231 9.80474 15.2665L13.2813 21.6141L16.2403 20.5399C17.7051 20.0028 18.9258 20.1688 20.0977 21.3798L25.6446 27.122C26.4161 27.913 26.3379 28.9091 25.752 29.5048Z" fill="black" fill-opacity="0.85"/>
  <path d="M28.9454 7.74696C29.2481 7.44422 29.2481 6.93641 28.9258 6.62391L25.42 3.11805L26.836 1.69227C27.4024 1.1161 27.0215 0.344614 26.2794 0.295786L22.0411 0.00281712C21.4942-0.0362454 21.1524 0.334848 21.1817 0.871958L21.4844 5.09071C21.5235 5.88172 22.334 6.20399 22.8809 5.65711L24.2969 4.2411L27.8126 7.74696C28.1251 8.05946 28.6329 8.05946 28.9454 7.74696ZM24.6778 9.93446C24.6778 9.50477 24.3262 9.15321 23.8672 9.15321L18.9063 9.15321L18.9063 7.15125C18.9063 6.34071 18.0762 6.04774 17.5196 6.55555L14.3262 9.33875C13.9161 9.70008 13.9161 10.1884 14.3262 10.5595L17.5196 13.3427C18.0958 13.87 18.9063 13.5184 18.9063 12.747L18.9063 10.745L23.8672 10.745C24.3262 10.745 24.6778 10.3934 24.6778 9.93446Z" fill="black" fill-opacity="0.85"/>
 </g>
</svg>
