<?xml version="1.0" encoding="UTF-8"?>
<!--Generator: Apple Native CoreSVG 326-->
<!DOCTYPE svg
PUBLIC "-//W3C//DTD SVG 1.1//EN"
       "http://www.w3.org/Graphics/SVG/1.1/DTD/svg11.dtd">
<svg version="1.1" xmlns="http://www.w3.org/2000/svg" xmlns:xlink="http://www.w3.org/1999/xlink" viewBox="0 0 24.3303 23.5101">
 <g>
  <rect height="23.5101" opacity="0" width="24.3303" x="0" y="0"/>
  <path d="M4.8556 6.12517C6.34974 6.12517 7.55092 4.924 7.55092 3.42986C7.55092 1.93572 6.34974 0.734546 4.8556 0.734546C3.37123 0.734546 2.17006 1.93572 2.17006 3.42986C2.17006 4.924 3.37123 6.12517 4.8556 6.12517ZM0.0313856 11.3302L0.763807 15.7736C1.02748 17.3849 3.24428 17.0627 2.9806 15.4611L2.3556 11.6135L4.87514 10.6271C5.27553 10.4806 5.60756 10.5392 5.78334 10.9006L8.08803 15.4806C8.78139 16.8576 9.35756 17.2775 9.92396 17.6877L17.4044 23.176C18.713 24.133 20.2658 22.2482 18.7912 21.174L12.9806 16.9064C12.6974 16.6916 12.7169 16.2912 13.0392 16.1154L17.004 13.8302L22.1896 16.301C23.6544 17.0041 24.8263 14.9533 23.1076 14.133L17.5704 11.4963C16.9162 11.1838 16.2814 11.2717 15.7345 11.6037L13.1271 13.1174C12.7853 13.3224 12.5119 13.2345 12.3849 12.9513L10.2951 8.68376C10.09 8.28337 10.1388 7.88298 10.5783 7.68767L12.4923 6.80876C13.1271 6.5158 13.3517 6.31072 13.5275 5.70525L14.7287 1.50603C15.1876-0.0662353 13.0783-0.642407 12.629 0.929858L11.4376 5.05095L0.871229 9.69939C0.158339 10.0119-0.0955676 10.5392 0.0313856 11.3302Z" fill="black" fill-opacity="0.85"/>
 </g>
</svg>
