<?xml version="1.0" ?><!-- Generator: Adobe Illustrator 25.0.0, SVG Export Plug-In . SVG Version: 6.00 Build 0)  --><svg xmlns="http://www.w3.org/2000/svg" xmlns:xlink="http://www.w3.org/1999/xlink" version="1.1" id="Layer_1" x="0px" y="0px" viewBox="0 0 512 512" style="enable-background:new 0 0 512 512;" xml:space="preserve">
<path d="M255.4,103.2c28.6,0,51.7-23.8,51.7-51.3c0-28.8-23.1-51.9-51.7-51.9c-28.6,0-51.3,23.1-51.3,51.9  C204.2,79.4,226.8,103.2,255.4,103.2z M329.2,512c11.4,0,22.2-8.6,22.2-23.8c0-5.7-1.8-11-4.8-17.2l-45.3-91.8  c-3.7-7.7-8.6-15.6-13-21.8l-28.8-40.9l2-5.9c7.9-24.2,11-39.2,12.8-62.9l4.6-67.5c2.2-32.1-16.3-58.5-49.5-58.5  c-25.1,0-41.6,14.1-64.5,36.3l-35.4,35c-12.1,12.1-15.8,21.8-16.9,36.7l-4.4,55.2c-1.1,14.5,7,24,20,24.9c12.3,0.9,21.6-6.6,22.9-22  l5.1-60.9l20.9-18.5c4-3.5,9.5-1.8,9,4l-4,54.6c-1.8,26,9.2,44.9,22,60.9l46,58.1c4.8,5.7,5.3,7.9,7.3,11.9l49.1,99  C312,508.3,320.4,512,329.2,512z M338.2,257.7h50.6c14.5,0,24-8.1,24-21.3c0-13-9.5-21.6-24-21.6h-53.7l-37.6-40.9l-4,57.6  l16.3,16.3C317.7,255.4,325,257.7,338.2,257.7z M121.2,512c7.5,0,14.1-3.3,18.3-8.4l68.9-82.1c7-8.4,7.9-10.3,10.8-18.7  c2.2-6.4,3.7-12.3,5.3-18.5l-38.5-47.7l-11.4,55l-64.7,76.6c-6.2,7-10.6,12.8-10.6,22C99.2,503.2,108.7,512,121.2,512z"/>
</svg>