<?xml version="1.0" encoding="UTF-8"?>
<!--Generator: Apple Native CoreSVG 326-->
<!DOCTYPE svg
PUBLIC "-//W3C//DTD SVG 1.1//EN"
       "http://www.w3.org/Graphics/SVG/1.1/DTD/svg11.dtd">
<svg version="1.1" xmlns="http://www.w3.org/2000/svg" xmlns:xlink="http://www.w3.org/1999/xlink" viewBox="0 0 32.0215 24.9316">
 <g>
  <rect height="24.9316" opacity="0" width="32.0215" x="0" y="0"/>
  <path d="M21.4648 5.41992C22.959 5.39062 24.1406 4.15039 24.1113 2.65625C24.0723 1.16211 22.8418-0.0195312 21.3477 0.00976562C19.8535 0.0488281 18.6719 1.2793 18.7012 2.77344C18.7305 4.26758 19.9707 5.44922 21.4648 5.41992ZM10.9766 7.35352L17.8125 13.7402C18.3105 14.209 19.1016 14.1797 19.5801 13.6816C20.0391 13.1934 20.0195 12.3926 19.5215 11.9336L17.0703 9.6582L18.125 9.12109C18.3496 9.00391 18.6133 9.05273 18.7891 9.20898L21.0254 11.3086L21.0254 16.3184C21.0254 17.002 21.5918 17.5586 22.2656 17.5586C22.9492 17.5586 23.5059 17.002 23.5059 16.3184L23.5059 10.7324C23.5059 10.3809 23.3496 10.0586 23.0176 9.74609L17.7441 4.84375C16.7578 3.93555 15.2539 3.79883 13.9941 4.27734L11.3184 5.29297C10.5469 5.58594 10.166 6.5918 10.9766 7.35352ZM10.2734 7.69531L9.67773 8.00781C7.49023 9.0918 7.01172 11.7773 9.08203 13.418L13.6719 17.0312L10.8691 22.0996C10.5371 22.7051 10.791 23.4375 11.3867 23.7793C11.8555 24.0527 12.6758 23.9453 13.0566 23.252L16.3379 17.2559C16.5918 16.7676 16.5137 16.2109 16.123 15.8105L12.5391 11.9238L13.8672 11.2012L10.7422 8.29102C10.5469 8.10547 10.3906 7.91016 10.2734 7.69531ZM1.24023 19.0625L7.44141 19.0625C7.93945 19.0625 8.33984 18.75 8.53516 18.3594L9.93164 15.5469L8.36914 14.3359C8.05664 14.1016 7.77344 13.8379 7.55859 13.5352L6.54297 16.582L1.24023 16.582C0.556641 16.582 0 17.1289 0 17.8223C0 18.5059 0.556641 19.0625 1.24023 19.0625ZM29.6582 22.7246C30.8594 22.6953 31.6895 21.8555 31.6602 20.7129C31.6504 20.1855 31.2793 19.668 30.7324 19.6875C30.3711 19.6973 30.0977 19.9512 30.1074 20.3418L30.1172 20.6738C30.127 21.2109 29.5117 21.5137 28.9453 21.0059L15.4199 8.99414L14.5703 9.63867L27.8418 21.9824C28.3789 22.4805 28.9941 22.7344 29.6582 22.7246ZM23.6035 24.9316C24.541 24.9316 25.3223 24.1797 25.3223 23.2324C25.3223 22.2949 24.541 21.5137 23.6035 21.5137C22.6562 21.5137 21.8945 22.2949 21.8945 23.2324C21.8945 24.1797 22.6562 24.9316 23.6035 24.9316Z" fill="black" fill-opacity="0.85"/>
 </g>
</svg>
