<?xml version="1.0" encoding="UTF-8"?>
<!--Generator: Apple Native CoreSVG 326-->
<!DOCTYPE svg
PUBLIC "-//W3C//DTD SVG 1.1//EN"
       "http://www.w3.org/Graphics/SVG/1.1/DTD/svg11.dtd">
<svg version="1.1" xmlns="http://www.w3.org/2000/svg" xmlns:xlink="http://www.w3.org/1999/xlink" viewBox="0 0 29.8242 29.6777">
 <g>
  <rect height="29.6777" opacity="0" width="29.8242" x="0" y="0"/>
  <path d="M12.2949 5.66406C13.7695 5.66406 14.9707 4.46289 14.9707 2.95898C14.9707 1.47461 13.7695 0.283203 12.2949 0.283203C10.791 0.283203 9.58984 1.47461 9.58984 2.95898C9.58984 4.46289 10.791 5.66406 12.2949 5.66406ZM13.1934 17.2949L20.0098 19.4043L26.5234 22.3633C28.2031 23.1152 29.1895 20.752 27.6074 20.0195L16.3867 14.9512L16.3867 8.93555C16.3867 8.44727 16.5137 8.37891 16.875 8.24219L20.2539 6.86523C20.6836 6.68945 20.7031 6.60156 20.9277 6.34766L24.4824 2.22656C24.9414 1.67969 24.8633 0.878906 24.3262 0.429688C23.7988-0.0292969 22.9785 0.0390625 22.5391 0.576172L19.1406 4.53125L3.52539 10.8984C3.04688 11.0938 2.76367 11.2891 2.57812 11.4844L8.89648 11.4844L10.8887 10.6836C11.2695 10.5273 11.4062 10.6641 11.4062 10.8984L11.4062 14.8438C11.4062 16.1426 12.002 16.9336 13.1934 17.2949ZM12.0605 28.0957C11.7871 29.0723 12.5586 29.6777 13.3105 29.6777C13.8379 29.6777 14.3652 29.3945 14.5312 28.7598L16.3477 22.1777C16.377 22.0508 16.3867 21.9238 16.3867 21.8359L16.3867 19.4727L13.4277 18.5645L13.8086 21.7578ZM0.615234 13.9453L10.1855 13.9453L10.1855 12.7148L0.615234 12.7148C0.273438 12.7148 0 12.9883 0 13.3301C0 13.6719 0.273438 13.9453 0.615234 13.9453ZM28.8379 13.9453C29.1895 13.9453 29.4629 13.6719 29.4629 13.3301C29.4629 12.9883 29.1895 12.7148 28.8379 12.7148L17.6172 12.7148L17.6172 13.5547L17.6172 13.9453Z" fill="black" fill-opacity="0.85"/>
 </g>
</svg>
