<?xml version="1.0" encoding="UTF-8"?>
<!--Generator: Apple Native CoreSVG 326-->
<!DOCTYPE svg
PUBLIC "-//W3C//DTD SVG 1.1//EN"
       "http://www.w3.org/Graphics/SVG/1.1/DTD/svg11.dtd">
<svg version="1.1" xmlns="http://www.w3.org/2000/svg" xmlns:xlink="http://www.w3.org/1999/xlink" viewBox="0 0 25.8008 25.459">
 <g>
  <rect height="25.459" opacity="0" width="25.8008" x="0" y="0"/>
  <path d="M12.7148 25.4395C19.7363 25.4395 25.4395 19.7461 25.4395 12.7246C25.4395 5.70312 19.7363 0 12.7148 0C5.69336 0 0 5.70312 0 12.7246C0 19.7461 5.69336 25.4395 12.7148 25.4395ZM12.7148 23.623C6.68945 23.623 1.81641 18.75 1.81641 12.7246C1.81641 6.69922 6.68945 1.82617 12.7148 1.82617C18.7402 1.82617 23.6133 6.69922 23.6133 12.7246C23.6133 18.75 18.7402 23.623 12.7148 23.623Z" fill="black" fill-opacity="0.85"/>
  <path d="M17.998 8.75C18.8281 8.75 19.4629 8.08594 19.4629 7.27539C19.4629 6.45508 18.8281 5.81055 17.998 5.81055C17.1875 5.81055 16.5332 6.45508 16.5332 7.27539C16.5332 8.08594 17.1875 8.75 17.998 8.75ZM14.043 19.5312C16.8164 19.5312 18.8965 17.4707 18.8965 14.6875C18.8965 13.4375 18.3789 12.6758 17.2656 12.2852L16.2207 11.9238C16.0742 11.875 16.0352 11.7871 16.1426 11.6602L16.8066 10.6836C17.3535 9.89258 17.1484 9.22852 16.3379 8.65234L13.8281 6.91406C13.5352 6.71875 13.2031 6.71875 12.9199 6.89453L10.5957 8.45703C9.70703 9.0625 10.5371 10.1855 11.377 9.63867L13.3008 8.32031L14.6191 9.24805C14.834 9.39453 14.8633 9.54102 14.7266 9.74609L13.6426 11.3086C13.0273 12.1973 13.5254 13.1641 14.4727 13.3887L17.4121 14.1211C17.7148 14.1895 17.8613 14.4043 17.8613 14.7266C17.8613 16.8848 16.2305 18.5156 14.043 18.5156C11.8555 18.5156 10.2148 16.8848 10.2148 14.6875C10.2148 13.9551 10.4004 13.3105 10.752 12.7539C11.1719 12.0801 10.293 11.582 9.86328 12.2461C9.45312 12.9297 9.18945 13.75 9.18945 14.6875C9.18945 17.4707 11.2695 19.5312 14.043 19.5312ZM18.8965 19.5312C19.3262 19.5312 19.6777 19.1992 19.6777 18.7695C19.6777 18.3398 19.3262 17.9883 18.8965 17.9883C18.457 17.9883 18.1152 18.3398 18.1152 18.7695C18.1152 19.1992 18.457 19.5312 18.8965 19.5312ZM4.60938 11.0938L7.61719 11.0938C7.87109 11.0938 8.07617 10.8887 8.07617 10.625C8.07617 10.3711 7.87109 10.1562 7.61719 10.1562L4.60938 10.1562C4.3457 10.1562 4.16016 10.3809 4.16016 10.625C4.16016 10.8789 4.3457 11.0938 4.60938 11.0938ZM4.02344 13.5449L7.61719 13.5449C7.87109 13.5449 8.07617 13.3594 8.07617 13.0859C8.07617 12.832 7.87109 12.627 7.61719 12.627L4.02344 12.627C3.7793 12.627 3.57422 12.8516 3.57422 13.0859C3.57422 13.3594 3.7793 13.5449 4.02344 13.5449ZM5.87891 16.0156L7.61719 16.0156C7.87109 16.0156 8.07617 15.8203 8.07617 15.5469C8.07617 15.2832 7.87109 15.0879 7.61719 15.0879L5.87891 15.0879C5.625 15.0879 5.43945 15.2832 5.43945 15.5469C5.43945 15.8203 5.625 16.0156 5.87891 16.0156Z" fill="black" fill-opacity="0.85"/>
 </g>
</svg>
