<?xml version="1.0" encoding="UTF-8"?>
<!--Generator: Apple Native CoreSVG 326-->
<!DOCTYPE svg
PUBLIC "-//W3C//DTD SVG 1.1//EN"
       "http://www.w3.org/Graphics/SVG/1.1/DTD/svg11.dtd">
<svg version="1.1" xmlns="http://www.w3.org/2000/svg" xmlns:xlink="http://www.w3.org/1999/xlink" viewBox="0 0 24.1532 25.3027">
 <g>
  <rect height="25.3027" opacity="0" width="24.1532" x="0" y="0"/>
  <path d="M20.4506 6.80664C22.3061 6.80664 23.7904 5.26367 23.7904 3.4668C23.7904 1.5918 22.3061 0.0683594 20.4506 0.0683594C18.5756 0.0683594 17.0815 1.5918 17.0815 3.4668C17.0815 5.33203 18.5756 6.80664 20.4506 6.80664ZM0.450604 24.541C1.09514 25.2148 2.19865 25.1562 2.98967 24.3457L8.33146 18.8281C8.50724 18.6426 8.6342 18.5938 8.90764 18.7012L13.1459 20.3125C15.8119 21.3281 18.3022 20.3906 19.5131 18.1934L22.1401 13.4277C23.185 11.5137 22.8432 9.56055 21.0365 8.60352C19.2885 7.63672 17.4623 8.35938 16.4076 10.3027L12.9311 16.6504L9.97209 15.5762C8.49748 15.0391 7.27678 15.2051 6.11467 16.416L0.567792 22.1582C-0.203693 22.9492-0.135333 23.9453 0.450604 24.541Z" fill="black" fill-opacity="0.85"/>
  <path d="M4.26896 0C3.76115 0 3.36076 0.400391 3.36076 0.917969L3.36076 6.78711L0.987714 6.78711C0.0892762 6.78711-0.311114 7.71484 0.294354 8.39844L3.53654 12.1289C3.9467 12.5977 4.5424 12.6172 4.97209 12.1289L8.21428 8.39844C8.79045 7.74414 8.46818 6.78711 7.52092 6.78711L5.17717 6.78711L5.17717 0.917969C5.17717 0.400391 4.77678 0 4.26896 0Z" fill="black" fill-opacity="0.85"/>
 </g>
</svg>
