<?xml version="1.0" encoding="UTF-8"?>
<!--Generator: Apple Native CoreSVG 326-->
<!DOCTYPE svg
PUBLIC "-//W3C//DTD SVG 1.1//EN"
       "http://www.w3.org/Graphics/SVG/1.1/DTD/svg11.dtd">
<svg version="1.1" xmlns="http://www.w3.org/2000/svg" xmlns:xlink="http://www.w3.org/1999/xlink" viewBox="0 0 25.459 28.5254">
 <g>
  <rect height="28.5254" opacity="0" width="25.459" x="0" y="0"/>
  <path d="M19.8242 5.38086C21.3086 5.38086 22.5098 4.17969 22.5098 2.68555C22.5098 1.20117 21.3086 0 19.8242 0C18.3203 0 17.1289 1.20117 17.1289 2.68555C17.1289 4.17969 18.3203 5.38086 19.8242 5.38086ZM10.2539 15.8594L16.5625 20.6738L14.5996 26.7188C14.3262 27.5879 14.8633 28.2129 15.5078 28.3594C16.0938 28.5059 16.7773 28.252 17.041 27.4316L19.2383 20.6543C19.3945 20.166 19.3066 19.6289 18.9648 19.2969L14.7266 15.0684L19.5898 10.1953C19.8047 9.9707 20.1172 9.98047 20.3418 10.1953L22.0215 11.8555L19.7168 14.1602C19.209 14.6777 19.2188 15.4785 19.7168 15.9766C20.1855 16.4453 21.0254 16.4844 21.5234 15.9766L24.7266 12.7734C25.2344 12.2559 25.2246 11.4746 24.7266 10.9668L21.6309 7.8418C20.8887 7.09961 20 6.72852 18.9258 6.72852L4.07227 6.72852C3.36914 6.72852 2.7832 7.30469 2.7832 8.00781C2.7832 8.71094 3.36914 9.29688 4.07227 9.29688L12.6074 9.29688C13.0371 9.29688 13.2422 9.74609 12.9297 10.0488L10.459 12.5293C9.3457 13.6426 9.50195 15.293 10.2539 15.8594ZM9.89258 17.0508L9.25781 20.8496L3.33008 20.8496C2.59766 20.8496 2.02148 21.4258 2.02148 22.1289C2.02148 22.8418 2.59766 23.418 3.33008 23.418L10.2832 23.418C10.9668 23.418 11.4062 23.0762 11.582 22.4902L12.5977 19.1113ZM2.7832 13.5742C4.31641 13.5742 5.56641 12.3242 5.56641 10.791C5.56641 9.26758 4.31641 8.00781 2.7832 8.00781C1.25 8.00781 0 9.26758 0 10.791C0 12.3242 1.25 13.5742 2.7832 13.5742Z" fill="black" fill-opacity="0.85"/>
 </g>
</svg>
