<?xml version="1.0" encoding="UTF-8"?>
<!--Generator: Apple Native CoreSVG 326-->
<!DOCTYPE svg
PUBLIC "-//W3C//DTD SVG 1.1//EN"
       "http://www.w3.org/Graphics/SVG/1.1/DTD/svg11.dtd">
<svg version="1.1" xmlns="http://www.w3.org/2000/svg" xmlns:xlink="http://www.w3.org/1999/xlink" viewBox="0 0 25.8008 25.459">
 <g>
  <rect height="25.459" opacity="0" width="25.8008" x="0" y="0"/>
  <path d="M25.4395 12.7246C25.4395 19.7266 19.7266 25.4395 12.7148 25.4395C5.71289 25.4395 0 19.7266 0 12.7246C0 5.71289 5.71289 0 12.7148 0C19.7266 0 25.4395 5.71289 25.4395 12.7246ZM12.7148 9.22852C12.3145 9.22852 11.9434 9.15039 11.6113 8.99414C11.0742 9.05273 10.5859 9.17969 10.0586 9.38477L7.86133 10.3027C7.34375 10.498 7.19727 10.9277 7.31445 11.2793C7.42188 11.6309 7.80273 11.9043 8.33008 11.6797L10.4199 10.8398C10.6348 10.7617 10.8008 10.8691 10.8008 11.084C10.8008 11.8945 10.8496 13.4961 10.7422 14.1309C10.5957 15 9.56055 18.9258 9.49219 19.3164C9.35547 20.2734 10.752 20.625 11.0059 19.5996L12.2168 14.9707C12.2949 14.6875 12.4805 14.5508 12.7148 14.5508C12.959 14.5508 13.1348 14.6875 13.2227 14.9707L14.4238 19.5996C14.6875 20.625 16.084 20.2734 15.9375 19.3164C15.8789 18.9258 14.834 15 14.6973 14.1309C14.5898 13.4961 14.6289 11.8945 14.6289 11.084C14.6289 10.8691 14.8047 10.7617 15.0098 10.8398L17.0996 11.6797C17.627 11.9043 18.0078 11.6309 18.125 11.2793C18.2422 10.9277 18.0957 10.498 17.5781 10.3027L15.3711 9.38477C14.8438 9.17969 14.3652 9.05273 13.8281 8.99414C13.4863 9.15039 13.1152 9.22852 12.7148 9.22852ZM10.957 6.58203C10.957 7.55859 11.7578 8.33984 12.7246 8.33984C13.7012 8.33984 14.4824 7.55859 14.4824 6.58203C14.4824 5.5957 13.7012 4.80469 12.7246 4.80469C11.7578 4.80469 10.957 5.5957 10.957 6.58203Z" fill="black" fill-opacity="0.85"/>
 </g>
</svg>
