<?xml version="1.0" encoding="UTF-8"?>
<!--Generator: Apple Native CoreSVG 326-->
<!DOCTYPE svg
PUBLIC "-//W3C//DTD SVG 1.1//EN"
       "http://www.w3.org/Graphics/SVG/1.1/DTD/svg11.dtd">
<svg version="1.1" xmlns="http://www.w3.org/2000/svg" xmlns:xlink="http://www.w3.org/1999/xlink" viewBox="0 0 25.8008 25.459">
 <g>
  <rect height="25.459" opacity="0" width="25.8008" x="0" y="0"/>
  <path d="M12.7148 25.4395C19.7363 25.4395 25.4395 19.7461 25.4395 12.7246C25.4395 5.70312 19.7363 0 12.7148 0C5.69336 0 0 5.70312 0 12.7246C0 19.7461 5.69336 25.4395 12.7148 25.4395ZM12.7148 23.623C6.68945 23.623 1.81641 18.75 1.81641 12.7246C1.81641 6.69922 6.68945 1.82617 12.7148 1.82617C18.7402 1.82617 23.6133 6.69922 23.6133 12.7246C23.6133 18.75 18.7402 23.623 12.7148 23.623Z" fill="black" fill-opacity="0.85"/>
  <path d="M12.3535 8.33984C13.1934 8.33984 13.8672 7.66602 13.8672 6.83594C13.8672 6.00586 13.1934 5.33203 12.3535 5.33203C11.5234 5.33203 10.8398 6.00586 10.8398 6.83594C10.8398 7.66602 11.5234 8.33984 12.3535 8.33984ZM17.7441 9.10156L9.85352 9.10156L10.0684 9.26758C10.4004 9.15039 10.5273 8.82812 10.4492 8.53516C10.3711 8.21289 10.0684 7.95898 9.55078 8.06641L7.5 8.53516C6.18164 8.83789 6.21094 10.5469 7.58789 10.5469L9.82422 10.5469C10.0293 10.5469 10.1953 10.7031 10.1953 10.9082L10.1953 13.8477L8.03711 15.9766C7.73438 16.2695 7.54883 16.5625 7.43164 17.0215L6.65039 19.9707C6.51367 20.498 6.81641 20.8203 7.1875 20.8789C7.5293 20.9375 7.91992 20.7715 8.03711 20.3418L8.7793 17.5781C8.85742 17.3145 8.90625 17.1875 9.11133 17.0215L10.8008 15.5859C11.1328 15.3027 11.7188 15.3613 11.9434 15.7617L12.9688 17.5488L14.541 20.498C14.7852 20.957 15.2832 20.9961 15.6055 20.791C15.8984 20.5957 16.0156 20.2246 15.8105 19.8242L14.2285 16.8262L13.3105 14.7168C13.1543 14.3652 13.0664 13.9746 13.0664 13.5742L13.0664 10.9082C13.0664 10.7031 13.2324 10.5469 13.4375 10.5469L17.7441 10.5469C18.1445 10.5469 18.4668 10.2148 18.4668 9.83398C18.4668 9.43359 18.1445 9.10156 17.7441 9.10156ZM19.1016 9.83398C19.1016 11.25 18.8281 12.666 18.1934 14.3359C18.0176 14.8535 18.75 15.0879 18.9453 14.6094C19.5898 13.0566 19.8828 11.5527 19.8828 9.83398C19.8828 8.20312 19.5898 6.69922 18.9355 5.05859C18.7598 4.59961 18.0078 4.79492 18.1934 5.33203C18.8281 7.00195 19.1016 8.41797 19.1016 9.83398Z" fill="black" fill-opacity="0.85"/>
 </g>
</svg>
