<?xml version="1.0" encoding="UTF-8"?>
<!--Generator: Apple Native CoreSVG 326-->
<!DOCTYPE svg
PUBLIC "-//W3C//DTD SVG 1.1//EN"
       "http://www.w3.org/Graphics/SVG/1.1/DTD/svg11.dtd">
<svg version="1.1" xmlns="http://www.w3.org/2000/svg" xmlns:xlink="http://www.w3.org/1999/xlink" viewBox="0 0 29.9121 16.2598">
 <g>
  <rect height="16.2598" opacity="0" width="29.9121" x="0" y="0"/>
  <path d="M21.2988 6.35742C22.793 6.35742 24.0039 5.14648 24.0039 3.65234C24.0039 2.1582 22.793 0.947266 21.2988 0.947266C19.8047 0.947266 18.5938 2.1582 18.5938 3.65234C18.5938 5.14648 19.8047 6.35742 21.2988 6.35742ZM10.8105 8.06641C12.1875 8.67188 12.9883 9.62891 14.7754 9.62891C16.8555 9.62891 17.5098 8.33008 19.3945 7.8125L12.5 0.634766C11.9434 0.0585938 11.123-0.0195312 10.459 0.458984L5.5957 3.91602C4.76562 4.50195 4.84375 5.39062 5.33203 5.9082C5.73242 6.35742 6.45508 6.5332 7.14844 6.04492L11.0938 3.26172L13.3203 5.54688C13.5645 5.81055 13.6426 6.20117 13.252 6.46484ZM0.615234 12.793L1.8457 12.793C5.14648 12.793 5.9375 10.7227 8.31055 10.7227C10.6836 10.7227 11.4844 12.793 14.7754 12.793C18.0762 12.793 18.8672 10.7227 21.2402 10.7227C23.6133 10.7227 24.4141 12.793 27.7051 12.793L28.9355 12.793C29.2773 12.793 29.5508 12.5195 29.5508 12.1777C29.5508 11.8359 29.2773 11.5625 28.9355 11.5625L27.7051 11.5625C25.2441 11.5625 24.4043 9.48242 21.2402 9.48242C18.0762 9.48242 17.2363 11.5625 14.7754 11.5625C12.3145 11.5625 11.4746 9.48242 8.31055 9.48242C5.14648 9.48242 4.30664 11.5625 1.8457 11.5625L0.615234 11.5625C0.273438 11.5625 0 11.8359 0 12.1777C0 12.5195 0.273438 12.793 0.615234 12.793ZM0.966797 16.2598C1.35742 16.2598 1.65039 15.9668 1.65039 15.5859C1.65039 15.1953 1.35742 14.9023 0.966797 14.9023C0.585938 14.9023 0.292969 15.1953 0.292969 15.5859C0.292969 15.9668 0.585938 16.2598 0.966797 16.2598ZM3.32031 15.8496C3.70117 15.8496 4.00391 15.5469 4.00391 15.166C4.00391 14.7852 3.70117 14.4824 3.32031 14.4824C2.93945 14.4824 2.64648 14.7852 2.64648 15.166C2.64648 15.5469 2.93945 15.8496 3.32031 15.8496ZM5.51758 14.8242C5.89844 14.8242 6.20117 14.5215 6.20117 14.1406C6.20117 13.7598 5.89844 13.457 5.51758 13.457C5.13672 13.457 4.84375 13.7598 4.84375 14.1406C4.84375 14.5215 5.13672 14.8242 5.51758 14.8242ZM7.88086 14.2676C8.26172 14.2676 8.55469 13.9648 8.55469 13.584C8.55469 13.2031 8.26172 12.9102 7.88086 12.9102C7.5 12.9102 7.19727 13.2031 7.19727 13.584C7.19727 13.9648 7.5 14.2676 7.88086 14.2676ZM10.2246 14.8242C10.6152 14.8242 10.9082 14.5215 10.9082 14.1406C10.9082 13.7598 10.6152 13.457 10.2246 13.457C9.84375 13.457 9.55078 13.7598 9.55078 14.1406C9.55078 14.5215 9.84375 14.8242 10.2246 14.8242ZM12.4512 15.8496C12.832 15.8496 13.125 15.5469 13.125 15.166C13.125 14.7852 12.832 14.4824 12.4512 14.4824C12.0703 14.4824 11.7676 14.7852 11.7676 15.166C11.7676 15.5469 12.0703 15.8496 12.4512 15.8496ZM14.7949 16.2598C15.1758 16.2598 15.4688 15.9668 15.4688 15.5859C15.4688 15.1953 15.1758 14.9023 14.7949 14.9023C14.4141 14.9023 14.1113 15.1953 14.1113 15.5859C14.1113 15.9668 14.4141 16.2598 14.7949 16.2598ZM17.1387 15.8496C17.5195 15.8496 17.8125 15.5469 17.8125 15.166C17.8125 14.7852 17.5195 14.4824 17.1387 14.4824C16.7578 14.4824 16.4551 14.7852 16.4551 15.166C16.4551 15.5469 16.7578 15.8496 17.1387 15.8496ZM19.3555 14.8242C19.7363 14.8242 20.0391 14.5215 20.0391 14.1406C20.0391 13.7598 19.7363 13.457 19.3555 13.457C18.9746 13.457 18.6719 13.7598 18.6719 14.1406C18.6719 14.5215 18.9746 14.8242 19.3555 14.8242ZM21.709 14.2676C22.0898 14.2676 22.3828 13.9648 22.3828 13.584C22.3828 13.2031 22.0898 12.9102 21.709 12.9102C21.3281 12.9102 21.0254 13.2031 21.0254 13.584C21.0254 13.9648 21.3281 14.2676 21.709 14.2676ZM24.0625 14.8242C24.4434 14.8242 24.7461 14.5215 24.7461 14.1406C24.7461 13.7598 24.4434 13.457 24.0625 13.457C23.6816 13.457 23.3887 13.7598 23.3887 14.1406C23.3887 14.5215 23.6816 14.8242 24.0625 14.8242ZM26.2598 15.8496C26.6406 15.8496 26.9434 15.5469 26.9434 15.166C26.9434 14.7852 26.6406 14.4824 26.2598 14.4824C25.8789 14.4824 25.5859 14.7852 25.5859 15.166C25.5859 15.5469 25.8789 15.8496 26.2598 15.8496ZM28.6035 16.2598C28.9844 16.2598 29.2871 15.9668 29.2871 15.5859C29.2871 15.1953 28.9844 14.9023 28.6035 14.9023C28.2227 14.9023 27.9199 15.1953 27.9199 15.5859C27.9199 15.9668 28.2227 16.2598 28.6035 16.2598Z" fill="black" fill-opacity="0.85"/>
 </g>
</svg>
