<?xml version="1.0" encoding="UTF-8"?>
<!--Generator: Apple Native CoreSVG 326-->
<!DOCTYPE svg
PUBLIC "-//W3C//DTD SVG 1.1//EN"
       "http://www.w3.org/Graphics/SVG/1.1/DTD/svg11.dtd">
<svg version="1.1" xmlns="http://www.w3.org/2000/svg" xmlns:xlink="http://www.w3.org/1999/xlink" viewBox="0 0 25.8008 25.459">
 <g>
  <rect height="25.459" opacity="0" width="25.8008" x="0" y="0"/>
  <path d="M12.7148 25.4395C19.7363 25.4395 25.4395 19.7461 25.4395 12.7246C25.4395 5.70312 19.7363 0 12.7148 0C5.69336 0 0 5.70312 0 12.7246C0 19.7461 5.69336 25.4395 12.7148 25.4395ZM12.7148 23.623C6.68945 23.623 1.81641 18.75 1.81641 12.7246C1.81641 6.69922 6.68945 1.82617 12.7148 1.82617C18.7402 1.82617 23.6133 6.69922 23.6133 12.7246C23.6133 18.75 18.7402 23.623 12.7148 23.623Z" fill="black" fill-opacity="0.85"/>
  <path d="M17.0117 9.15039C17.8516 9.15039 18.5352 8.47656 18.5352 7.63672C18.5352 6.78711 17.8516 6.11328 17.0117 6.11328C16.1621 6.11328 15.4883 6.78711 15.4883 7.63672C15.4883 8.47656 16.1621 9.15039 17.0117 9.15039ZM12.1973 18.5059C12.6074 18.5059 12.9297 18.1641 12.9297 17.7539L12.9297 14.5215C12.9297 14.209 12.793 14.0039 12.6074 13.8086L10.459 11.6602L13.0664 10.9961C13.1934 10.9668 13.3008 11.0645 13.3008 11.1914L13.3008 12.5879C13.3008 12.7734 13.3789 12.959 13.5254 13.1055L15.7324 15.3223C16.0254 15.6152 16.4941 15.6152 16.7871 15.3223C17.0801 15.0293 17.0801 14.5605 16.7871 14.2676L14.7852 12.2754L14.7852 10.8789L15.8887 12.1387C16.0352 12.2949 16.2402 12.3926 16.4453 12.3926L19.7754 12.3926C20.1953 12.3926 20.5176 12.0703 20.5176 11.6602C20.5176 11.2402 20.1953 10.918 19.7754 10.918L16.7871 10.918L15.0195 8.87695C14.4727 8.25195 13.623 7.99805 12.8027 8.19336L9.01367 9.15039C7.5293 9.52148 7.27539 11.3672 8.45703 12.334L11.4551 14.7754L11.4551 17.7539C11.4551 18.1641 11.7871 18.5059 12.1973 18.5059ZM5.75195 18.291C6.03516 18.5645 6.52344 18.5645 6.80664 18.291L9.38477 15.7031C9.52148 15.5664 9.56055 15.4395 9.59961 15.2148L9.79492 14.1602L8.13477 12.8125L8.13477 14.8633L5.75195 17.2266C5.45898 17.5195 5.45898 17.998 5.75195 18.291Z" fill="black" fill-opacity="0.85"/>
 </g>
</svg>
