<?xml version="1.0" encoding="UTF-8"?>
<!--Generator: Apple Native CoreSVG 326-->
<!DOCTYPE svg
PUBLIC "-//W3C//DTD SVG 1.1//EN"
       "http://www.w3.org/Graphics/SVG/1.1/DTD/svg11.dtd">
<svg version="1.1" xmlns="http://www.w3.org/2000/svg" xmlns:xlink="http://www.w3.org/1999/xlink" viewBox="0 0 25.8008 25.459">
 <g>
  <rect height="25.459" opacity="0" width="25.8008" x="0" y="0"/>
  <path d="M25.4395 12.7246C25.4395 19.7266 19.7266 25.4395 12.7148 25.4395C5.71289 25.4395 0 19.7266 0 12.7246C0 5.71289 5.71289 0 12.7148 0C19.7266 0 25.4395 5.71289 25.4395 12.7246ZM9.72656 17.6953C9.4043 17.6953 9.19922 17.9004 9.19922 18.2129L9.19922 20.4297C9.19922 20.7324 9.4043 20.9277 9.72656 20.9277L15.1367 20.9277C15.4395 20.9277 15.6641 20.7324 15.6641 20.4297L15.6641 18.2129C15.6641 17.9004 15.4395 17.6953 15.1367 17.6953ZM11.4648 8.05664C10.9668 8.05664 10.4688 8.32031 10.166 8.75L8.56445 10.9668C7.72461 12.1387 8.4668 13.7207 10.1367 13.4668L12.7441 13.0762L11.7285 16.123C11.3867 17.1191 12.7832 17.5391 13.0957 16.5918L14.4531 12.4805C14.6289 11.9824 14.3164 11.4941 13.7305 11.4941L11.1523 11.4941L12.5098 9.6875C12.6465 9.51172 12.7344 9.48242 12.9102 9.48242L18.2422 9.48242C18.623 9.48242 18.9551 9.17969 18.9551 8.7793C18.9551 8.38867 18.6328 8.05664 18.2422 8.05664ZM11.1426 5.74219C11.1426 6.60156 11.8262 7.27539 12.6855 7.27539C13.5352 7.27539 14.2383 6.60156 14.2383 5.74219C14.2383 4.88281 13.5352 4.18945 12.6855 4.18945C11.8262 4.18945 11.1426 4.88281 11.1426 5.74219Z" fill="black" fill-opacity="0.85"/>
 </g>
</svg>
