<?xml version="1.0" encoding="UTF-8"?>
<!--Generator: Apple Native CoreSVG 326-->
<!DOCTYPE svg
PUBLIC "-//W3C//DTD SVG 1.1//EN"
       "http://www.w3.org/Graphics/SVG/1.1/DTD/svg11.dtd">
<svg version="1.1" xmlns="http://www.w3.org/2000/svg" xmlns:xlink="http://www.w3.org/1999/xlink" viewBox="0 0 25.8008 25.459">
 <g>
  <rect height="25.459" opacity="0" width="25.8008" x="0" y="0"/>
  <path d="M25.4395 12.7246C25.4395 19.7266 19.7266 25.4395 12.7148 25.4395C5.71289 25.4395 0 19.7266 0 12.7246C0 5.71289 5.71289 0 12.7148 0C19.7266 0 25.4395 5.71289 25.4395 12.7246ZM18.3203 5.70312L14.1016 7.94922C13.6328 8.19336 13.1641 8.30078 12.7051 8.30078C12.2461 8.30078 11.7871 8.19336 11.3184 7.94922L7.08984 5.70312C6.78711 5.54688 6.38672 5.6543 6.2207 5.98633C6.04492 6.31836 6.16211 6.68945 6.48438 6.875L10.8398 9.19922C10.9766 9.26758 11.0645 9.4043 11.0645 9.55078L11.0645 12.7637L9.77539 16.3086L8.48633 19.8828C8.34961 20.2051 8.53516 20.5957 8.86719 20.7227C9.17969 20.8301 9.56055 20.7129 9.7168 20.3223L10.9961 16.7871L12.7051 14.082L14.4238 16.7871L15.7031 20.3223C15.8496 20.7129 16.2305 20.8301 16.543 20.7227C16.8848 20.5957 17.0703 20.2051 16.9336 19.8828L15.6445 16.3086L14.3555 12.7637L14.3555 9.55078C14.3555 9.4043 14.4336 9.26758 14.5801 9.19922L18.9258 6.875C19.2578 6.68945 19.375 6.31836 19.1992 5.98633C19.0234 5.6543 18.6328 5.54688 18.3203 5.70312ZM11.1719 5.98633C11.1719 6.8457 11.8652 7.53906 12.7051 7.53906C13.5352 7.53906 14.2285 6.8457 14.2285 5.98633C14.2285 5.15625 13.5352 4.47266 12.7051 4.47266C11.8652 4.47266 11.1719 5.15625 11.1719 5.98633Z" fill="black" fill-opacity="0.85"/>
 </g>
</svg>
