<?xml version="1.0" encoding="UTF-8"?>
<!--Generator: Apple Native CoreSVG 326-->
<!DOCTYPE svg
PUBLIC "-//W3C//DTD SVG 1.1//EN"
       "http://www.w3.org/Graphics/SVG/1.1/DTD/svg11.dtd">
<svg version="1.1" xmlns="http://www.w3.org/2000/svg" xmlns:xlink="http://www.w3.org/1999/xlink" viewBox="0 0 30.791 28.8574">
 <g>
  <rect height="28.8574" opacity="0" width="30.791" x="0" y="0"/>
  <path d="M5.42969 4.83398L12.4902 4.83398C12.8809 4.83398 13.1738 4.51172 13.1738 4.12109C13.1738 3.7207 12.8809 3.4082 12.4902 3.4082L5.42969 3.4082C5.03906 3.4082 4.73633 3.7207 4.73633 4.12109C4.73633 4.51172 5.03906 4.83398 5.42969 4.83398ZM0.683594 11.1035L9.39453 11.1035C9.78516 11.1035 10.0879 10.7812 10.0879 10.3906C10.0879 9.99023 9.78516 9.67773 9.39453 9.67773L0.683594 9.67773C0.292969 9.67773 0 10 0 10.3906C0 10.7715 0.292969 11.1035 0.683594 11.1035ZM4.36523 17.373L9.27734 17.373C9.66797 17.373 9.96094 17.0605 9.96094 16.6602C9.96094 16.2598 9.6582 15.9473 9.27734 15.9473L4.36523 15.9473C3.97461 15.9473 3.67188 16.2695 3.67188 16.6602C3.67188 17.0605 3.97461 17.373 4.36523 17.373ZM1.11328 23.584L7.79297 23.584C8.18359 23.584 8.47656 23.2715 8.47656 22.8711C8.47656 22.4707 8.17383 22.1582 7.79297 22.1582L1.11328 22.1582C0.712891 22.1582 0.419922 22.4805 0.419922 22.8711C0.419922 23.2715 0.712891 23.584 1.11328 23.584Z" fill="black" fill-opacity="0.85"/>
  <path d="M15.0684 27.8906L18.9746 23.2324C19.3652 22.7832 19.4141 22.6758 19.5605 22.1973L19.9023 21.1719L17.8223 18.5742L17.1582 21.6406L13.291 26.2207C12.0605 27.666 14.0527 29.0918 15.0684 27.8906ZM24.6191 27.5098C25.4102 29.1211 27.793 28.1348 26.9238 26.3867L24.2676 20.9961C24.0723 20.5957 23.7891 20.166 23.5352 19.8145L21.8457 17.4121L21.9629 17.0508C22.4219 15.7129 22.5879 14.8926 22.6758 13.5645L22.9492 9.80469C23.0762 7.99805 22.0117 6.66016 20.1953 6.66016C18.8379 6.66016 17.9102 7.36328 16.6406 8.59375L14.6484 10.5566C14.0137 11.1914 13.7891 11.709 13.7207 12.5488L13.4961 15.6348C13.4375 16.3965 13.8574 16.9434 14.5703 16.9629C15.293 17.0117 15.7227 16.5918 15.791 15.7715L16.084 12.3926L17.041 11.5332C17.3926 11.2109 17.8809 11.416 17.8418 11.7871L17.627 14.6484C17.5098 16.084 17.8516 16.7676 18.8477 18.0078L21.4844 21.3086C21.748 21.6504 21.7773 21.7773 21.8848 21.9922ZM29.1309 11.7578L26.123 11.7578L24.1113 9.53125L23.916 12.6562L24.7754 13.5156C25.1953 13.9453 25.5566 14.0723 26.3281 14.0723L29.1309 14.0723C29.9121 14.0723 30.4297 13.623 30.4297 12.9102C30.4297 12.207 29.9023 11.7578 29.1309 11.7578ZM21.6406 5.47852C23.1641 5.47852 24.375 4.25781 24.375 2.73438C24.375 1.2207 23.1641 0 21.6406 0C20.127 0 18.8965 1.2207 18.8965 2.73438C18.8965 4.25781 20.127 5.47852 21.6406 5.47852Z" fill="black" fill-opacity="0.85"/>
 </g>
</svg>
