<?xml version="1.0" encoding="UTF-8"?>
<!--Generator: Apple Native CoreSVG 326-->
<!DOCTYPE svg
PUBLIC "-//W3C//DTD SVG 1.1//EN"
       "http://www.w3.org/Graphics/SVG/1.1/DTD/svg11.dtd">
<svg version="1.1" xmlns="http://www.w3.org/2000/svg" xmlns:xlink="http://www.w3.org/1999/xlink" viewBox="0 0 25.8008 25.459">
 <g>
  <rect height="25.459" opacity="0" width="25.8008" x="0" y="0"/>
  <path d="M12.7148 25.4395C19.7363 25.4395 25.4395 19.7461 25.4395 12.7246C25.4395 5.70312 19.7363 0 12.7148 0C5.69336 0 0 5.70312 0 12.7246C0 19.7461 5.69336 25.4395 12.7148 25.4395ZM12.7148 23.623C6.68945 23.623 1.81641 18.75 1.81641 12.7246C1.81641 6.69922 6.68945 1.82617 12.7148 1.82617C18.7402 1.82617 23.6133 6.69922 23.6133 12.7246C23.6133 18.75 18.7402 23.623 12.7148 23.623Z" fill="black" fill-opacity="0.85"/>
  <path d="M5.32227 16.3477L5.43945 16.3477C7.32422 16.3477 7.76367 15.1855 9.07227 15.1855C10.3809 15.1855 10.8203 16.3477 12.7051 16.3477C14.5996 16.3477 15.0293 15.1855 16.3477 15.1855C17.6562 15.1855 18.0859 16.3477 19.9805 16.3477L20.0977 16.3477C20.293 16.3477 20.4883 16.1914 20.4883 15.957C20.4883 15.7617 20.293 15.5664 20.0977 15.5664L19.9805 15.5664C18.6328 15.5664 18.1641 14.4141 16.3477 14.4141C14.541 14.4141 14.0625 15.5664 12.7051 15.5664C11.3477 15.5664 10.8691 14.4141 9.07227 14.4141C7.25586 14.4141 6.78711 15.5664 5.43945 15.5664L5.32227 15.5664C5.11719 15.5664 4.93164 15.7617 4.93164 15.957C4.93164 16.1914 5.11719 16.3477 5.32227 16.3477ZM5.32227 18.2715L5.43945 18.2715C7.32422 18.2715 7.76367 17.1094 9.07227 17.1094C10.3809 17.1094 10.8203 18.2715 12.7051 18.2715C14.5996 18.2715 15.0293 17.1094 16.3477 17.1094C17.6562 17.1094 18.0859 18.2715 19.9805 18.2715L20.0977 18.2715C20.293 18.2715 20.4883 18.0957 20.4883 17.8809C20.4883 17.666 20.293 17.4902 20.0977 17.4902L19.9805 17.4902C18.6328 17.4902 18.1641 16.3281 16.3477 16.3281C14.541 16.3281 14.0625 17.4902 12.7051 17.4902C11.3477 17.4902 10.8691 16.3281 9.07227 16.3281C7.25586 16.3281 6.78711 17.4902 5.43945 17.4902L5.32227 17.4902C5.11719 17.4902 4.93164 17.666 4.93164 17.8809C4.93164 18.0957 5.11719 18.2715 5.32227 18.2715ZM11.3477 7.28516C11.3477 7.49023 11.5137 7.64648 11.709 7.64648C12.334 7.64648 12.7246 7.76367 13.1348 8.20312C13.2812 8.36914 13.418 8.44727 13.5742 8.44727C13.7305 8.44727 13.8672 8.36914 14.0137 8.20312C14.4238 7.76367 14.8145 7.64648 15.4395 7.64648C15.6348 7.64648 15.8008 7.49023 15.8008 7.28516C15.8008 7.08008 15.6348 6.93359 15.4297 6.93359C14.6582 6.93359 14.1504 7.10938 13.5742 7.63672C12.998 7.10938 12.4902 6.93359 11.7188 6.93359C11.5137 6.93359 11.3477 7.08008 11.3477 7.28516ZM10.4883 13.6523C11.2598 13.9844 11.709 14.5215 12.7051 14.5215C13.8574 14.5215 14.2383 13.7891 15.293 13.4961L11.4258 9.47266C11.1133 9.16016 10.6445 9.12109 10.2734 9.38477L7.54883 11.3184C7.08008 11.6504 7.12891 12.1582 7.40234 12.4414C7.62695 12.6953 8.02734 12.793 8.41797 12.5195L10.6348 10.957L11.8848 12.2461C12.0312 12.3926 12.0605 12.5977 11.8555 12.7441ZM16.3672 12.6855C17.207 12.6855 17.8809 12.0117 17.8809 11.1719C17.8809 10.3223 17.207 9.64844 16.3672 9.64844C15.5273 9.64844 14.8535 10.3223 14.8535 11.1719C14.8535 12.0117 15.5273 12.6855 16.3672 12.6855Z" fill="black" fill-opacity="0.85"/>
 </g>
</svg>
