<?xml version="1.0" encoding="UTF-8"?>
<!--Generator: Apple Native CoreSVG 326-->
<!DOCTYPE svg
PUBLIC "-//W3C//DTD SVG 1.1//EN"
       "http://www.w3.org/Graphics/SVG/1.1/DTD/svg11.dtd">
<svg version="1.1" xmlns="http://www.w3.org/2000/svg" xmlns:xlink="http://www.w3.org/1999/xlink" viewBox="0 0 39.6474 35.6128">
 <g>
  <rect height="35.6128" opacity="0" width="39.6474" x="0" y="0"/>
  <path d="M6.58149 11.9617C4.72603 11.9617 3.23188 10.4187 3.23188 8.62184C3.23188 6.74684 4.72603 5.2234 6.58149 5.2234C8.45649 5.2234 9.95063 6.74684 9.95063 8.62184C9.95063 10.4871 8.45649 11.9617 6.58149 11.9617ZM26.5717 29.6961C25.937 30.3699 24.8334 30.3113 24.0424 29.5007L18.7006 23.9832C18.5249 23.7976 18.3979 23.7488 18.1245 23.8562L13.8862 25.4675C11.2202 26.4832 8.72017 25.5457 7.51899 23.3484L4.89204 18.5828C3.84712 16.6687 4.18892 14.7156 5.99556 13.7586C7.7436 12.7918 9.56001 13.5144 10.6245 15.4578L14.101 21.8054L17.06 20.7312C18.5249 20.1941 19.7456 20.3601 20.9174 21.5711L26.4643 27.3132C27.2358 28.1043 27.1577 29.1004 26.5717 29.6961Z" fill="black" fill-opacity="0.85"/>
  <path d="M25.7319 9.02223L29.1108 13.3582C29.267 13.5437 29.4917 13.5925 29.7065 13.4754C30.4975 13.0554 31.6596 12.7625 32.5776 12.7625C33.5151 12.7625 34.687 13.0554 35.4584 13.4754C35.6831 13.5925 35.9272 13.5437 36.0639 13.3582L39.4526 9.02223C39.7553 8.62184 39.6967 8.22145 39.3354 7.93824C37.9292 6.87379 35.2924 6.06324 32.5776 6.06324C29.9018 6.06324 27.2553 6.87379 25.8588 7.93824C25.478 8.22145 25.4389 8.6316 25.7319 9.02223ZM29.2866 15.9461C28.9155 15.448 28.7592 14.9793 28.7592 14.4617C28.7592 13.3289 29.7065 12.9773 29.7065 12.3035C29.7065 11.6199 28.7592 11.2976 28.7592 10.1257C28.7592 9.61793 28.9155 9.14918 29.2963 8.65113C29.7065 8.16285 30.4389 8.68043 30.0483 9.20778C29.7651 9.58863 29.6772 9.81324 29.6772 10.1257C29.6772 10.9754 30.6245 11.2293 30.6245 12.3035C30.6245 13.3875 29.6772 13.6511 29.6772 14.4617C29.6772 14.8035 29.7651 15.0086 30.0385 15.3894C30.4194 15.907 29.6967 16.4246 29.2866 15.9461ZM32.1967 15.9461C31.8354 15.448 31.6694 14.9793 31.6694 14.4617C31.6694 13.3289 32.6069 12.9773 32.6069 12.3035C32.6069 11.6199 31.6694 11.2976 31.6694 10.1257C31.6694 9.61793 31.8256 9.14918 32.1967 8.65113C32.6069 8.16285 33.3491 8.68043 32.9584 9.20778C32.6752 9.58863 32.5971 9.81324 32.5971 10.1257C32.5971 10.9754 33.5346 11.2293 33.5346 12.3035C33.5346 13.3875 32.5971 13.6511 32.5971 14.4617C32.5971 14.8035 32.6752 15.0086 32.9487 15.3894C33.3295 15.907 32.5971 16.4246 32.1967 15.9461ZM35.1264 15.9461C34.7456 15.448 34.5795 14.9793 34.5795 14.4617C34.5795 13.3289 35.5366 12.9773 35.5366 12.3035C35.5366 11.6199 34.5795 11.2976 34.5795 10.1257C34.5795 9.61793 34.7358 9.14918 35.1362 8.65113C35.5366 8.16285 36.269 8.68043 35.8686 9.20778C35.5952 9.58863 35.5073 9.81324 35.5073 10.1257C35.5073 10.9754 36.4545 11.2293 36.4545 12.3035C36.4545 13.3875 35.5073 13.6511 35.5073 14.4617C35.5073 14.8035 35.5952 15.0086 35.8686 15.3894C36.2495 15.907 35.5268 16.4246 35.1264 15.9461ZM23.3784 8.55348C23.769 8.57301 24.0717 8.25074 24.0717 7.85035L24.0815 4.41285L25.9174 4.41285C26.6401 4.41285 26.9038 3.68043 26.4545 3.18238L23.9252 0.281994C23.5932-0.0890994 23.1538-0.0988651 22.812 0.281994L20.312 3.19215C19.8432 3.71949 20.1362 4.41285 20.8393 4.41285L22.685 4.41285L22.685 7.85035C22.685 8.24098 22.9877 8.55348 23.3784 8.55348ZM21.1909 9.99879C21.1909 9.61793 20.8784 9.30543 20.4975 9.30543L17.06 9.30543L17.06 7.47926C17.06 6.76637 16.3081 6.49293 15.81 6.94215L12.9194 9.47145C12.5581 9.79371 12.5385 10.2429 12.9194 10.5652L15.81 13.0847C16.3276 13.5437 17.06 13.241 17.06 12.5476L17.06 10.7214L20.4975 10.7214C20.8784 10.7214 21.1909 10.4089 21.1909 9.99879Z" fill="black" fill-opacity="0.85"/>
 </g>
</svg>
