<?xml version="1.0" encoding="UTF-8"?>
<!--Generator: Apple Native CoreSVG 326-->
<!DOCTYPE svg
PUBLIC "-//W3C//DTD SVG 1.1//EN"
       "http://www.w3.org/Graphics/SVG/1.1/DTD/svg11.dtd">
<svg version="1.1" xmlns="http://www.w3.org/2000/svg" xmlns:xlink="http://www.w3.org/1999/xlink" viewBox="0 0 26.648 23.0176">
 <g>
  <rect height="23.0176" opacity="0" width="26.648" x="0" y="0"/>
  <path d="M0.413826 10.5078L4.56422 14.6582C5.13062 15.2344 6.05836 15.2539 6.615 14.5605L9.23219 11.3379C9.3982 11.1328 9.6814 11.2402 9.6814 11.4941L9.6814 16.9824L4.9939 16.4551C3.38258 16.2695 2.865 18.6328 4.40797 19.1504L9.73023 20.9082C9.46656 22.002 10.4236 22.959 11.5076 22.5977L13.1482 22.0508L14.7791 22.5977C15.863 22.959 16.8201 22.002 16.5662 20.9082L21.8884 19.1504C23.4314 18.6328 22.9041 16.2695 21.2927 16.4551L16.615 16.9824L16.615 11.4941C16.615 11.2402 16.8982 11.1328 17.0545 11.3379L19.6716 14.5605C20.2283 15.2539 21.156 15.2441 21.7322 14.6582L25.8728 10.5078C26.4197 9.95117 26.4295 9.0918 25.8728 8.55469C25.3455 8.01758 24.4568 8.00781 23.9197 8.55469L20.863 11.6211L17.738 7.79297C17.2107 7.1582 16.4392 6.75781 15.5994 6.75781L10.6873 6.75781C9.84742 6.75781 9.07594 7.1582 8.54859 7.79297L5.42359 11.6211L2.36695 8.55469C1.82984 8.00781 0.94117 8.01758 0.413826 8.55469C-0.142814 9.0918-0.133049 9.95117 0.413826 10.5078ZM13.1482 5.41016C14.6228 5.41016 15.8337 4.19922 15.8337 2.69531C15.8337 1.21094 14.6228 0 13.1482 0C11.6345 0 10.4236 1.21094 10.4236 2.69531C10.4236 4.19922 11.6345 5.41016 13.1482 5.41016Z" fill="black" fill-opacity="0.85"/>
 </g>
</svg>
