<?xml version="1.0" encoding="UTF-8"?>
<!--Generator: Apple Native CoreSVG 326-->
<!DOCTYPE svg
PUBLIC "-//W3C//DTD SVG 1.1//EN"
       "http://www.w3.org/Graphics/SVG/1.1/DTD/svg11.dtd">
<svg version="1.1" xmlns="http://www.w3.org/2000/svg" xmlns:xlink="http://www.w3.org/1999/xlink" viewBox="0 0 29.9121 23.0762">
 <g>
  <rect height="23.0762" opacity="0" width="29.9121" x="0" y="0"/>
  <path d="M15.459 8.58398C16.9531 8.58398 18.1641 7.37305 18.1641 5.86914C18.1641 4.375 16.9531 3.16406 15.459 3.16406C13.9648 3.16406 12.7539 4.375 12.7539 5.86914C12.7539 7.37305 13.9648 8.58398 15.459 8.58398ZM9.58008 14.4727C12.2852 14.8633 12.8125 16.4453 14.7754 16.4453C14.8438 16.4453 14.9121 16.4453 14.9805 16.4258L16.1816 13.0469C16.3184 12.6562 16.543 12.5098 16.9531 12.5098L27.9688 12.5098C28.6914 12.5098 29.2969 11.9043 29.2969 11.1816C29.2969 10.4688 28.6914 9.86328 27.9688 9.86328L7.23633 9.86328L5.51758 4.23828C5.29297 3.52539 4.57031 3.125 3.88672 3.33984C3.19336 3.55469 2.8125 4.29688 3.00781 4.96094L4.94141 11.416C5.12695 12.0117 5.58594 12.5098 6.24023 12.5098L9.77539 12.5098C10.0488 12.5098 10.2148 12.7246 10.1172 12.9883ZM8.0957 3.85742C9.16016 3.85742 10.0293 2.99805 10.0293 1.93359C10.0293 0.869141 9.16016 0 8.0957 0C7.03125 0 6.16211 0.869141 6.16211 1.93359C6.16211 2.99805 7.03125 3.85742 8.0957 3.85742ZM0.615234 19.6094L1.8457 19.6094C5.14648 19.6094 5.9375 17.5293 8.31055 17.5293C10.6836 17.5293 11.4844 19.6094 14.7754 19.6094C18.0762 19.6094 18.8672 17.5293 21.2402 17.5293C23.6133 17.5293 24.4141 19.6094 27.7051 19.6094L28.9355 19.6094C29.2773 19.6094 29.5508 19.3359 29.5508 18.9941C29.5508 18.6426 29.2773 18.3691 28.9355 18.3691L27.7051 18.3691C25.2441 18.3691 24.4043 16.2988 21.2402 16.2988C18.0762 16.2988 17.2363 18.3691 14.7754 18.3691C12.3145 18.3691 11.4746 16.2988 8.31055 16.2988C5.14648 16.2988 4.30664 18.3691 1.8457 18.3691L0.615234 18.3691C0.273438 18.3691 0 18.6426 0 18.9941C0 19.3359 0.273438 19.6094 0.615234 19.6094ZM0.966797 23.0762C1.35742 23.0762 1.65039 22.7734 1.65039 22.3926C1.65039 22.0117 1.35742 21.709 0.966797 21.709C0.585938 21.709 0.292969 22.0117 0.292969 22.3926C0.292969 22.7734 0.585938 23.0762 0.966797 23.0762ZM3.32031 22.6562C3.70117 22.6562 4.00391 22.3535 4.00391 21.9727C4.00391 21.5918 3.70117 21.2988 3.32031 21.2988C2.93945 21.2988 2.64648 21.5918 2.64648 21.9727C2.64648 22.3535 2.93945 22.6562 3.32031 22.6562ZM5.51758 21.6309C5.89844 21.6309 6.20117 21.3379 6.20117 20.9473C6.20117 20.5664 5.89844 20.2734 5.51758 20.2734C5.13672 20.2734 4.84375 20.5664 4.84375 20.9473C4.84375 21.3379 5.13672 21.6309 5.51758 21.6309ZM7.88086 21.0742C8.26172 21.0742 8.55469 20.7812 8.55469 20.4004C8.55469 20.0195 8.26172 19.7168 7.88086 19.7168C7.5 19.7168 7.19727 20.0195 7.19727 20.4004C7.19727 20.7812 7.5 21.0742 7.88086 21.0742ZM10.2246 21.6309C10.6152 21.6309 10.9082 21.3379 10.9082 20.9473C10.9082 20.5664 10.6152 20.2734 10.2246 20.2734C9.84375 20.2734 9.55078 20.5664 9.55078 20.9473C9.55078 21.3379 9.84375 21.6309 10.2246 21.6309ZM12.4512 22.6562C12.832 22.6562 13.125 22.3535 13.125 21.9727C13.125 21.5918 12.832 21.2988 12.4512 21.2988C12.0703 21.2988 11.7676 21.5918 11.7676 21.9727C11.7676 22.3535 12.0703 22.6562 12.4512 22.6562ZM14.7949 23.0762C15.1758 23.0762 15.4688 22.7734 15.4688 22.3926C15.4688 22.0117 15.1758 21.709 14.7949 21.709C14.4141 21.709 14.1113 22.0117 14.1113 22.3926C14.1113 22.7734 14.4141 23.0762 14.7949 23.0762ZM17.1387 22.6562C17.5195 22.6562 17.8125 22.3535 17.8125 21.9727C17.8125 21.5918 17.5195 21.2988 17.1387 21.2988C16.7578 21.2988 16.4551 21.5918 16.4551 21.9727C16.4551 22.3535 16.7578 22.6562 17.1387 22.6562ZM19.3555 21.6309C19.7363 21.6309 20.0391 21.3379 20.0391 20.9473C20.0391 20.5664 19.7363 20.2734 19.3555 20.2734C18.9746 20.2734 18.6719 20.5664 18.6719 20.9473C18.6719 21.3379 18.9746 21.6309 19.3555 21.6309ZM21.709 21.0742C22.0898 21.0742 22.3828 20.7812 22.3828 20.4004C22.3828 20.0195 22.0898 19.7168 21.709 19.7168C21.3281 19.7168 21.0254 20.0195 21.0254 20.4004C21.0254 20.7812 21.3281 21.0742 21.709 21.0742ZM24.0625 21.6309C24.4434 21.6309 24.7461 21.3379 24.7461 20.9473C24.7461 20.5664 24.4434 20.2734 24.0625 20.2734C23.6816 20.2734 23.3887 20.5664 23.3887 20.9473C23.3887 21.3379 23.6816 21.6309 24.0625 21.6309ZM26.2598 22.6562C26.6406 22.6562 26.9434 22.3535 26.9434 21.9727C26.9434 21.5918 26.6406 21.2988 26.2598 21.2988C25.8789 21.2988 25.5859 21.5918 25.5859 21.9727C25.5859 22.3535 25.8789 22.6562 26.2598 22.6562ZM28.6035 23.0762C28.9844 23.0762 29.2871 22.7734 29.2871 22.3926C29.2871 22.0117 28.9844 21.709 28.6035 21.709C28.2227 21.709 27.9199 22.0117 27.9199 22.3926C27.9199 22.7734 28.2227 23.0762 28.6035 23.0762Z" fill="black" fill-opacity="0.85"/>
 </g>
</svg>
