<?xml version="1.0" encoding="UTF-8"?>
<!--Generator: Apple Native CoreSVG 326-->
<!DOCTYPE svg
PUBLIC "-//W3C//DTD SVG 1.1//EN"
       "http://www.w3.org/Graphics/SVG/1.1/DTD/svg11.dtd">
<svg version="1.1" xmlns="http://www.w3.org/2000/svg" xmlns:xlink="http://www.w3.org/1999/xlink" viewBox="0 0 25.8008 25.459">
 <g>
  <rect height="25.459" opacity="0" width="25.8008" x="0" y="0"/>
  <path d="M25.4395 12.7246C25.4395 19.7266 19.7266 25.4395 12.7148 25.4395C5.71289 25.4395 0 19.7266 0 12.7246C0 5.71289 5.71289 0 12.7148 0C19.7266 0 25.4395 5.71289 25.4395 12.7246ZM6.55273 18.7012C6.31836 19.0332 6.39648 19.502 6.74805 19.7363L9.88281 21.7969C10.2344 22.0215 10.6836 21.9238 10.8887 21.5918C11.123 21.2402 11.0352 20.8105 10.6836 20.5859L8.28125 18.9844L9.79492 17.3242C9.48242 17.1973 9.16016 16.9434 8.87695 16.6113L8.35938 16.0059ZM17.4512 5.67383L14.541 10.0293C14.1992 10.5469 13.6328 10.8008 13.0273 10.8008C12.3828 10.8008 11.709 10.5078 11.2891 9.88281L8.48633 5.67383C8.25195 5.32227 7.80273 5.23438 7.45117 5.45898C7.10938 5.68359 7.02148 6.14258 7.25586 6.49414L10.7031 11.6504C10.8594 11.8945 10.9766 12.041 10.7031 12.4707L9.82422 13.7891L7.68555 11.9336C7.38281 11.6699 6.91406 11.6504 6.5918 11.9824L3.89648 14.6875C3.60352 15 3.60352 15.4492 3.89648 15.7324C4.22852 16.0352 4.6582 15.9961 4.93164 15.7324L7.10938 13.5645L9.3457 16.2207C10.1953 17.2656 11.5918 17.1094 12.3047 16.0742L18.6914 6.49414C18.9258 6.14258 18.8281 5.68359 18.4863 5.45898C18.1543 5.23438 17.6855 5.32227 17.4512 5.67383ZM11.4551 8.4668C11.4551 9.33594 12.1582 10.0293 13.0273 10.0293C13.877 10.0293 14.5801 9.33594 14.5801 8.4668C14.5801 7.60742 13.877 6.91406 13.0273 6.91406C12.1582 6.91406 11.4551 7.60742 11.4551 8.4668ZM5.87891 5.40039C5.67383 5.40039 5.50781 5.57617 5.50781 5.77148C5.50781 5.98633 5.66406 6.15234 5.87891 6.15234L6.54297 6.15234C6.52344 5.9082 6.58203 5.64453 6.69922 5.40039ZM9.02344 5.40039C9.08203 5.48828 9.10156 5.51758 9.13086 5.57617L9.51172 6.15234L16.4062 6.15234L16.8066 5.57617C16.8457 5.49805 16.8652 5.45898 16.9043 5.40039ZM19.2285 5.40039C19.3555 5.625 19.4141 5.88867 19.3945 6.15234L19.8047 6.15234C20.0098 6.15234 20.1758 5.98633 20.1758 5.77148C20.1758 5.57617 20.0098 5.40039 19.8047 5.40039Z" fill="black" fill-opacity="0.85"/>
 </g>
</svg>
