<?xml version="1.0" encoding="UTF-8"?>
<!--Generator: Apple Native CoreSVG 326-->
<!DOCTYPE svg
PUBLIC "-//W3C//DTD SVG 1.1//EN"
       "http://www.w3.org/Graphics/SVG/1.1/DTD/svg11.dtd">
<svg version="1.1" xmlns="http://www.w3.org/2000/svg" xmlns:xlink="http://www.w3.org/1999/xlink" viewBox="0 0 25.8008 25.459">
 <g>
  <rect height="25.459" opacity="0" width="25.8008" x="0" y="0"/>
  <path d="M25.4395 12.7246C25.4395 19.7266 19.7266 25.4395 12.7148 25.4395C5.71289 25.4395 0 19.7266 0 12.7246C0 5.71289 5.71289 0 12.7148 0C19.7266 0 25.4395 5.71289 25.4395 12.7246ZM8.4082 8.88672C7.89062 8.88672 7.5293 9.01367 7.1875 9.3457L5.26367 11.2793C5.01953 11.5137 4.99023 11.8652 5.14648 12.1484L6.50391 14.5312L6.50391 18.4863C6.50391 18.8867 6.83594 19.2188 7.22656 19.2188C7.62695 19.2188 7.95898 18.8867 7.95898 18.4863L7.95898 15.1074L12.1094 15.4199L14.6191 16.8457L18.877 19.1211C19.3066 19.3457 19.7168 19.1504 19.873 18.8379C20.0488 18.4863 19.9121 18.0371 19.5703 17.8516L15.2539 15.5176L12.5391 13.6426C12.334 13.4863 12.1484 13.3203 11.9824 13.125C12.2656 12.959 12.3828 12.6367 12.2949 12.334L11.7773 10.166C11.5723 9.39453 10.8789 8.88672 10.0977 8.88672ZM8.92578 13.1738L8.1543 13.6035L7.65625 13.6035L6.67969 11.9238L7.92969 10.6543ZM7.85156 6.5332C7.85156 7.40234 8.55469 8.0957 9.41406 8.0957C10.2734 8.0957 10.9668 7.40234 10.9668 6.5332C10.9668 5.68359 10.2734 4.99023 9.41406 4.99023C8.55469 4.99023 7.85156 5.68359 7.85156 6.5332Z" fill="black" fill-opacity="0.85"/>
 </g>
</svg>
