<?xml version="1.0" encoding="UTF-8"?>
<!--Generator: Apple Native CoreSVG 326-->
<!DOCTYPE svg
PUBLIC "-//W3C//DTD SVG 1.1//EN"
       "http://www.w3.org/Graphics/SVG/1.1/DTD/svg11.dtd">
<svg version="1.1" xmlns="http://www.w3.org/2000/svg" xmlns:xlink="http://www.w3.org/1999/xlink" viewBox="0 0 25.8008 25.459">
 <g>
  <rect height="25.459" opacity="0" width="25.8008" x="0" y="0"/>
  <path d="M25.4395 12.7246C25.4395 19.7266 19.7266 25.4395 12.7148 25.4395C5.71289 25.4395 0 19.7266 0 12.7246C0 5.71289 5.71289 0 12.7148 0C19.7266 0 25.4395 5.71289 25.4395 12.7246ZM6.30859 6.01562L6.30859 9.41406C6.30859 9.70703 6.34766 9.87305 6.55273 10.0781L8.17383 11.6992C8.51562 12.0312 8.56445 12.168 8.67188 12.5L10.8691 19.1113L7.89062 18.3496C7.50977 18.252 7.12891 18.4961 7.04102 18.8672C6.95312 19.248 7.17773 19.6191 7.54883 19.7168L11.7285 20.7812C12.3047 20.9277 12.7051 20.4883 12.627 19.9414L12.2363 17.2754L15.5566 17.2754L18.1348 19.8926C18.4082 20.166 18.8574 20.166 19.1309 19.8926C19.4238 19.6191 19.4043 19.1699 19.1309 18.8867L16.3965 16.1426C16.2109 15.957 16.1328 15.9082 15.8203 15.8594L12.8223 15.5664L12.0703 13.2715C12.0117 13.1152 12.1484 12.9492 12.3047 12.998L17.793 14.0918C18.1543 14.1602 18.5352 13.9648 18.6133 13.5449C18.6816 13.1641 18.4375 12.793 18.0762 12.7148L10.5078 11.2012C9.83398 11.0742 9.47266 10.9766 9.16992 10.6836L7.72461 9.24805L7.72461 6.01562C7.72461 5.60547 7.40234 5.30273 7.02148 5.30273C6.62109 5.30273 6.30859 5.60547 6.30859 6.01562ZM9.7168 9.04297C9.7168 9.89258 10.4102 10.5762 11.2402 10.5762C12.0801 10.5762 12.7637 9.89258 12.7637 9.04297C12.7637 8.21289 12.0801 7.5293 11.2402 7.5293C10.4102 7.5293 9.7168 8.21289 9.7168 9.04297ZM8.19336 5.36133C8.19336 5.84961 8.56445 6.23047 9.0625 6.23047C9.53125 6.23047 9.93164 5.84961 9.93164 5.36133C9.93164 4.88281 9.53125 4.49219 9.0625 4.49219C8.56445 4.49219 8.19336 4.88281 8.19336 5.36133Z" fill="black" fill-opacity="0.85"/>
 </g>
</svg>
