<?xml version="1.0" encoding="UTF-8"?>
<!--Generator: Apple Native CoreSVG 326-->
<!DOCTYPE svg
PUBLIC "-//W3C//DTD SVG 1.1//EN"
       "http://www.w3.org/Graphics/SVG/1.1/DTD/svg11.dtd">
<svg version="1.1" xmlns="http://www.w3.org/2000/svg" xmlns:xlink="http://www.w3.org/1999/xlink" viewBox="0 0 25.8008 25.459">
 <g>
  <rect height="25.459" opacity="0" width="25.8008" x="0" y="0"/>
  <path d="M25.4395 12.7246C25.4395 19.7266 19.7266 25.4395 12.7148 25.4395C5.71289 25.4395 0 19.7266 0 12.7246C0 5.71289 5.71289 0 12.7148 0C19.7266 0 25.4395 5.71289 25.4395 12.7246ZM10.9863 8.48633L6.58203 9.38477C5 9.7168 4.56055 11.6016 5.69336 12.6172L8.44727 15.0391L8.44727 18.8086C8.44727 19.209 8.78906 19.5508 9.19922 19.5508C9.59961 19.5508 9.95117 19.209 9.95117 18.8086L9.95117 14.7559C9.95117 14.4727 9.89258 14.3359 9.7168 14.1504L7.61719 12.0312C7.5 11.9141 7.55859 11.748 7.69531 11.7285L10.6543 11.1719C10.9473 11.123 11.0645 11.2109 11.0645 11.4746L11.0645 13.1934C11.0645 13.6035 11.3965 13.9355 11.8066 13.9355L15.166 13.9355C15.5859 13.9355 15.918 13.6035 15.918 13.1934C15.918 12.7832 15.5859 12.4414 15.166 12.4414L12.5586 12.4414L12.5586 9.76562C12.5586 8.87695 11.8066 8.30078 10.9863 8.48633ZM6.68945 16.6797L5.45898 16.6797C5.22461 16.6797 5.03906 16.875 5.03906 17.1094C5.03906 17.3242 5.22461 17.5195 5.45898 17.5195L6.68945 17.5195C7.09961 17.5195 7.49023 17.5 7.85156 17.4414L7.85156 16.582C7.49023 16.6406 7.10938 16.6797 6.68945 16.6797ZM19.1699 9.18945C16.582 9.18945 15.0293 9.88281 13.3594 11.8457L14.4238 11.8457C14.4629 11.8457 14.502 11.8457 14.5215 11.8457C15.8203 10.5176 17.1387 10.0391 19.1699 10.0391L20 10.0391L20 15.918L19.1992 15.918C18.9355 15.918 18.7402 15.791 18.6426 15.5762L17.998 14.2871C17.8711 14.0625 17.6465 14.0137 17.4707 14.0625C17.2559 14.1406 17.0898 14.375 17.2168 14.668L17.8809 15.9668C18.125 16.4551 18.6328 16.7676 19.1992 16.7676L20.2344 16.7676C20.6055 16.7676 20.8398 16.5234 20.8398 16.1719L20.8398 9.76562C20.8398 9.43359 20.6055 9.18945 20.2734 9.18945ZM10.5371 15.3516L10.5371 16.4551C11.3184 15.918 11.9043 15.2344 12.4414 14.5215L11.8164 14.5215C11.6895 14.5215 11.5332 14.4922 11.4062 14.4531C11.1328 14.7949 10.8594 15.0684 10.5371 15.3516ZM12.5293 7.45117C12.5293 8.32031 13.2324 9.01367 14.0918 9.01367C14.9414 9.01367 15.6348 8.32031 15.6348 7.45117C15.6348 6.60156 14.9414 5.89844 14.0918 5.89844C13.2324 5.89844 12.5293 6.60156 12.5293 7.45117Z" fill="black" fill-opacity="0.85"/>
 </g>
</svg>
