<?xml version="1.0" ?><!-- Generator: Adobe Illustrator 25.0.0, SVG Export Plug-In . SVG Version: 6.00 Build 0)  --><svg xmlns="http://www.w3.org/2000/svg" xmlns:xlink="http://www.w3.org/1999/xlink" version="1.1" id="Layer_1" x="0px" y="0px" viewBox="0 0 512 512" style="enable-background:new 0 0 512 512;" xml:space="preserve">
<path d="M256,512c140,0,256-116.2,256-256C512,116,395.8,0,255.7,0C116,0,0,116,0,256C0,395.8,116.2,512,256,512z M256,469.3  c-118.5,0-213.1-94.9-213.1-213.3S137.3,42.7,255.7,42.7S469.1,137.5,469.3,256S374.5,469.3,256,469.3z M232.9,426.4  c9.5,0,16.3-6,16.3-17.8V305.9c0-5.5,2.3-8.3,6.5-8.3c3.8,0,6,2.8,6,8.3v102.7c0,11.8,7.3,17.8,17.1,17.8c9.5,0,16.1-6,16.1-17.8  V229.4c0-4.3,2.5-6.8,5.8-6.8c3.3,0,5.3,2.5,5.3,6.8v73.3c0,10.3,6.5,16.1,15.6,16.1c8.5,0,14.6-5.8,14.6-16.1v-69.5  c0-44.7-25.3-57.2-80.1-57.2h-21.1c-10.3,0-15.1-1.8-22.8-7.3l-21.8-15.3l-3.3-50.2c-0.8-10.5-7.3-15.8-16.1-15.1  c-8.8,0.5-14.6,6.5-13.8,17.3l3,49.9c0.8,10.8,5.8,17.3,12.8,22.3l36.1,26.6c5,3.8,7,7.8,7,13.3v191  C216.1,420.4,223.1,426.4,232.9,426.4z M256,161.4c18.1,0,32.9-15.1,32.9-32.4c0-18.3-14.8-32.9-32.9-32.9  c-18.3,0-32.4,14.6-32.4,32.9C223.6,146.3,237.7,161.4,256,161.4z"/>
</svg>