<?xml version="1.0" encoding="UTF-8"?>
<!--Generator: Apple Native CoreSVG 326-->
<!DOCTYPE svg
PUBLIC "-//W3C//DTD SVG 1.1//EN"
       "http://www.w3.org/Graphics/SVG/1.1/DTD/svg11.dtd">
<svg version="1.1" xmlns="http://www.w3.org/2000/svg" xmlns:xlink="http://www.w3.org/1999/xlink" viewBox="0 0 21.4177 29.541">
 <g>
  <rect height="29.541" opacity="0" width="21.4177" x="0" y="0"/>
  <path d="M9.63954 5.41016C11.1239 5.41016 12.3446 4.18945 12.3446 2.70508C12.3446 1.2207 11.1239 0 9.63954 0C8.15516 0 6.93446 1.2207 6.93446 2.70508C6.93446 4.18945 8.15516 5.41016 9.63954 5.41016ZM1.28993 9.10156L5.31337 9.10156C5.49891 9.10156 5.65516 9.25781 5.63563 9.44336L5.25477 14.668C5.10829 16.543 6.2118 17.6953 7.78407 18.0273L12.9696 19.1113L14.0829 24.6582C14.2391 25.4199 14.9911 25.7715 15.5673 25.6641C16.2606 25.5273 16.7099 24.8438 16.5731 24.1504L15.3036 17.7832C15.2059 17.2852 14.786 16.9238 14.3173 16.7676L10.3231 15.5176L10.6649 10.7031C10.6942 10.3223 11.0556 10.1855 11.329 10.4199L13.2333 11.9922C13.4579 12.1777 13.7411 12.2852 14.0438 12.2852L19.786 12.2852C20.4989 12.2852 21.0556 11.7188 21.0556 11.0156C21.0556 10.3125 20.4989 9.75586 19.786 9.75586L14.4931 9.75586L11.7489 7.45117C11.0556 6.875 10.4208 6.55273 9.42469 6.55273L3.00868 6.55273L4.42469 1.81641C4.62977 1.13281 4.24891 0.429688 3.58485 0.224609C2.90126 0.0292969 2.16884 0.410156 1.97352 1.09375L0.069226 7.46094C-0.174915 8.30078 0.225476 9.10156 1.28993 9.10156ZM6.67079 29.4141C7.27626 29.5898 8.03798 29.3164 8.27235 28.5547L10.1669 22.2363C10.2157 22.0605 10.2352 21.875 10.2352 21.6797L10.2352 19.7266L7.55946 19.1602C7.50087 19.1406 7.44227 19.1406 7.38368 19.1211L7.66688 21.6797L5.82118 27.832C5.62587 28.4961 6.00673 29.209 6.67079 29.4141Z" fill="black" fill-opacity="0.85"/>
 </g>
</svg>
