<?xml version="1.0" encoding="UTF-8"?>
<!--Generator: Apple Native CoreSVG 326-->
<!DOCTYPE svg
PUBLIC "-//W3C//DTD SVG 1.1//EN"
       "http://www.w3.org/Graphics/SVG/1.1/DTD/svg11.dtd">
<svg version="1.1" xmlns="http://www.w3.org/2000/svg" xmlns:xlink="http://www.w3.org/1999/xlink" viewBox="0 0 25.8008 25.459">
 <g>
  <rect height="25.459" opacity="0" width="25.8008" x="0" y="0"/>
  <path d="M25.4395 12.7246C25.4395 19.7266 19.7266 25.4395 12.7148 25.4395C5.71289 25.4395 0 19.7266 0 12.7246C0 5.71289 5.71289 0 12.7148 0C19.7266 0 25.4395 5.71289 25.4395 12.7246ZM8.26172 8.10547C7.95898 8.10547 7.70508 8.27148 7.59766 8.51562L6.20117 11.2891C6.01562 11.6406 6.15234 12.0898 6.52344 12.2754C6.9043 12.4414 7.32422 12.3145 7.51953 11.9434L8.70117 9.58984L10.1562 9.58984C10.332 9.58984 10.4297 9.75586 10.3516 9.90234L9.26758 12.0605C8.88672 12.832 8.7793 13.7207 8.99414 14.5508L9.51172 16.5723L6.67969 19.3848C6.39648 19.6582 6.39648 20.1465 6.68945 20.4297C6.97266 20.7031 7.42188 20.752 7.72461 20.4297L10.8398 17.3242C11.0352 17.1484 11.0742 16.9922 11.0449 16.709L10.8691 14.668C10.8594 14.5605 10.9668 14.5117 11.0547 14.5801L13.3008 16.5234L14.4629 20.127C14.5996 20.5566 15.0293 20.7129 15.3809 20.6152C15.8008 20.4785 15.9863 20.0684 15.8691 19.6875L14.6582 15.8789C14.6289 15.7715 14.5605 15.6543 14.4824 15.5762L12.0801 13.1934L13.623 10.0977C13.6914 9.9707 13.8379 9.95117 13.9355 10.0488L15.6738 11.7969C15.7617 11.8848 15.8691 11.9531 15.9766 11.9824L19.4531 13.0078C19.7363 13.1055 20.2148 12.9785 20.3711 12.5098C20.4785 12.1191 20.2539 11.709 19.8633 11.5918L16.5918 10.625L14.707 8.73047C14.2773 8.31055 13.7891 8.10547 13.2129 8.10547ZM17.959 15.498C17.959 16.4453 18.7207 17.1973 19.6582 17.1973C20.6055 17.1973 21.3379 16.4453 21.3379 15.498C21.3379 14.5703 20.6055 13.8184 19.6582 13.8184C18.7207 13.8184 17.959 14.5703 17.959 15.498ZM11.709 5.78125C11.709 6.64062 12.3926 7.34375 13.2617 7.34375C14.1113 7.34375 14.8047 6.64062 14.8047 5.78125C14.8047 4.93164 14.1113 4.23828 13.2617 4.23828C12.3926 4.23828 11.709 4.93164 11.709 5.78125Z" fill="black" fill-opacity="0.85"/>
 </g>
</svg>
