<?xml version="1.0" encoding="UTF-8"?>
<!--Generator: Apple Native CoreSVG 326-->
<!DOCTYPE svg
PUBLIC "-//W3C//DTD SVG 1.1//EN"
       "http://www.w3.org/Graphics/SVG/1.1/DTD/svg11.dtd">
<svg version="1.1" xmlns="http://www.w3.org/2000/svg" xmlns:xlink="http://www.w3.org/1999/xlink" viewBox="0 0 40.3827 35.6128">
 <g>
  <rect height="35.6128" opacity="0" width="40.3827" x="0" y="0"/>
  <path d="M33.0722 11.9617C34.9277 11.9617 36.412 10.4187 36.412 8.62184C36.412 6.74684 34.9277 5.2234 33.0722 5.2234C31.1972 5.2234 29.7031 6.74684 29.7031 8.62184C29.7031 10.4871 31.1972 11.9617 33.0722 11.9617ZM13.0722 29.6961C13.7167 30.3699 14.8202 30.3113 15.6113 29.5007L20.9531 23.9832C21.1288 23.7976 21.2558 23.7488 21.5292 23.8562L25.7675 25.4675C28.4335 26.4832 30.9238 25.5457 32.1347 23.3484L34.7519 18.5828C35.8066 16.6687 35.4648 14.7156 33.6581 13.7586C31.9101 12.7918 30.0839 13.5144 29.0292 15.4578L25.5527 21.8054L22.5937 20.7312C21.1191 20.1941 19.8984 20.3601 18.7363 21.5711L13.1894 27.3132C12.4179 28.1043 12.4863 29.1004 13.0722 29.6961Z" fill="black" fill-opacity="0.85"/>
  <path d="M0.201102 9.02223L3.58001 13.3582C3.73626 13.5437 3.96087 13.5925 4.16595 13.4754C4.96673 13.0554 6.12884 12.7625 7.04681 12.7625C7.97454 12.7625 9.14641 13.0554 9.92766 13.4754C10.1523 13.5925 10.3866 13.5437 10.5234 13.3582L13.912 9.02223C14.2148 8.62184 14.1659 8.22145 13.7949 7.93824C12.3886 6.87379 9.75188 6.06324 7.04681 6.06324C4.36126 6.06324 1.71477 6.87379 0.31829 7.93824C-0.0625698 8.22145-0.101632 8.6316 0.201102 9.02223ZM3.75579 15.9461C3.37493 15.448 3.21868 14.9793 3.21868 14.4617C3.21868 13.3289 4.16595 12.9773 4.16595 12.3035C4.16595 11.6199 3.21868 11.2976 3.21868 10.1257C3.21868 9.61793 3.37493 9.14918 3.76556 8.65113C4.16595 8.16285 4.89837 8.68043 4.50774 9.20778C4.22454 9.58863 4.14641 9.81324 4.14641 10.1257C4.14641 10.9754 5.09368 11.2293 5.09368 12.3035C5.09368 13.3875 4.14641 13.6511 4.14641 14.4617C4.14641 14.8035 4.22454 15.0086 4.50774 15.3894C4.87884 15.907 4.15618 16.4246 3.75579 15.9461ZM6.65618 15.9461C6.29485 15.448 6.12884 14.9793 6.12884 14.4617C6.12884 13.3289 7.0761 12.9773 7.0761 12.3035C7.0761 11.6199 6.12884 11.2976 6.12884 10.1257C6.12884 9.61793 6.29485 9.14918 6.66595 8.65113C7.0761 8.16285 7.81829 8.68043 7.42766 9.20778C7.14446 9.58863 7.05657 9.81324 7.05657 10.1257C7.05657 10.9754 8.00384 11.2293 8.00384 12.3035C8.00384 13.3875 7.05657 13.6511 7.05657 14.4617C7.05657 14.8035 7.14446 15.0086 7.4179 15.3894C7.79876 15.907 7.05657 16.4246 6.65618 15.9461ZM9.59563 15.9461C9.21477 15.448 9.04876 14.9793 9.04876 14.4617C9.04876 13.3289 9.99602 12.9773 9.99602 12.3035C9.99602 11.6199 9.04876 11.2976 9.04876 10.1257C9.04876 9.61793 9.20501 9.14918 9.59563 8.65113C9.99602 8.16285 10.7284 8.68043 10.3378 9.20778C10.0644 9.58863 9.97649 9.81324 9.97649 10.1257C9.97649 10.9754 10.914 11.2293 10.914 12.3035C10.914 13.3875 9.97649 13.6511 9.97649 14.4617C9.97649 14.8035 10.0644 15.0086 10.3281 15.3894C10.7089 15.907 9.98626 16.4246 9.59563 15.9461ZM16.2753 8.55348C16.6562 8.55348 16.9687 8.24098 16.9687 7.85035L16.9687 4.41285L18.8144 4.41285C19.5175 4.41285 19.8007 3.71949 19.332 3.19215L16.8417 0.281994C16.4999-0.0988651 16.0507-0.0890994 15.7284 0.281994L13.1894 3.18238C12.7499 3.68043 13.0136 4.41285 13.7363 4.41285L15.5722 4.41285L15.582 7.85035C15.582 8.25074 15.8847 8.57301 16.2753 8.55348ZM18.4531 9.99879C18.4628 10.4089 18.7753 10.7214 19.1562 10.7214L22.5937 10.7214L22.5937 12.5476C22.5937 13.241 23.3261 13.5437 23.8437 13.0847L26.7245 10.5652C27.1152 10.2429 27.0859 9.79371 26.7245 9.47145L23.8437 6.94215C23.3456 6.49293 22.5937 6.76637 22.5937 7.47926L22.5937 9.30543L19.1562 9.30543C18.7656 9.30543 18.4531 9.61793 18.4531 9.99879Z" fill="black" fill-opacity="0.85"/>
 </g>
</svg>
