<?xml version="1.0" encoding="UTF-8"?>
<!--Generator: Apple Native CoreSVG 326-->
<!DOCTYPE svg
PUBLIC "-//W3C//DTD SVG 1.1//EN"
       "http://www.w3.org/Graphics/SVG/1.1/DTD/svg11.dtd">
<svg version="1.1" xmlns="http://www.w3.org/2000/svg" xmlns:xlink="http://www.w3.org/1999/xlink" viewBox="0 0 27.3323 24.502">
 <g>
  <rect height="24.502" opacity="0" width="27.3323" x="0" y="0"/>
  <path d="M17.9288 5.41016C19.4327 5.41016 20.6339 4.19922 20.6339 2.70508C20.6339 1.20117 19.4327 0 17.9288 0C16.4347 0 15.2238 1.20117 15.2238 2.70508C15.2238 4.19922 16.4347 5.41016 17.9288 5.41016ZM8.24134 21.6309C8.82728 21.9824 9.65736 21.8066 10.0285 21.2109L13.0753 16.3281L16.3859 16.5137L14.3156 19.8242C13.9249 20.4395 14.1007 21.2793 14.7355 21.6309C15.3507 21.9824 16.132 21.8164 16.5031 21.2109L19.716 16.084C20.2433 15.2344 19.8038 14.1504 18.632 14.0234L13.2218 13.418C12.6847 13.3594 12.4894 12.8027 12.7531 12.4121L14.9894 9.04297C15.1359 8.82812 15.4191 8.76953 15.6242 8.90625L23.837 13.8379C24.4425 14.1992 25.2824 14.0039 25.6242 13.4082C25.9757 12.7734 25.7804 11.9824 25.1652 11.6113L8.94447 1.875C8.72962 1.74805 8.51478 1.69922 8.28041 1.69922L3.08509 1.69922C2.36244 1.69922 1.7765 2.27539 1.7765 2.97852C1.7765 3.69141 2.36244 4.28711 3.08509 4.28711L7.90931 4.28711L10.1847 5.64453C10.4386 5.79102 10.4972 6.07422 10.341 6.32812L7.52845 10.5371C6.01478 12.793 7.26478 15.8203 10.1066 16.1719L7.82142 19.8242C7.4308 20.4395 7.60658 21.2402 8.24134 21.6309ZM3.61244 24.4727L23.3585 24.4727C24.7355 24.4727 25.839 24.1895 26.7081 23.4473C27.0402 23.1738 27.0304 22.8125 26.8351 22.5586C26.6495 22.2949 26.2589 22.207 25.9171 22.4805C25.2335 23.0176 24.5402 23.2422 23.3585 23.2422L3.61244 23.2422C2.44056 23.2422 1.73744 23.0176 1.06361 22.4805C0.741343 22.2363 0.389781 22.2852 0.184703 22.5C-0.0594378 22.7441-0.0887347 23.1445 0.262828 23.4473C1.13197 24.1895 2.24525 24.4727 3.61244 24.4727Z" fill="black" fill-opacity="0.85"/>
 </g>
</svg>
