<?xml version="1.0" encoding="UTF-8"?>
<!--Generator: Apple Native CoreSVG 326-->
<!DOCTYPE svg
PUBLIC "-//W3C//DTD SVG 1.1//EN"
       "http://www.w3.org/Graphics/SVG/1.1/DTD/svg11.dtd">
<svg version="1.1" xmlns="http://www.w3.org/2000/svg" xmlns:xlink="http://www.w3.org/1999/xlink" viewBox="0 0 25.8008 25.459">
 <g>
  <rect height="25.459" opacity="0" width="25.8008" x="0" y="0"/>
  <path d="M25.4395 12.7246C25.4395 19.7266 19.7266 25.4395 12.7148 25.4395C5.71289 25.4395 0 19.7266 0 12.7246C0 5.71289 5.71289 0 12.7148 0C19.7266 0 25.4395 5.71289 25.4395 12.7246ZM6.73828 16.3867L6.875 16.6406C7.13867 17.1387 7.51953 17.4023 8.125 17.3047L8.18359 17.2852L8.39844 18.252L6.875 19.2383C6.54297 19.4531 6.65039 19.9902 7.10938 19.9902L10.1953 19.9902C10.4297 19.9902 10.5957 19.7949 10.5957 19.5801C10.5957 19.3555 10.4297 19.1699 10.1953 19.1699C9.72656 19.1699 9.39453 18.9844 9.26758 18.418L8.98438 17.1191L9.58008 16.9922C9.76562 16.9531 9.88281 16.7871 9.88281 16.5918C9.88281 16.416 9.73633 16.2402 9.57031 16.2109L7.1582 15.8105C6.74805 15.7422 6.60156 16.1133 6.73828 16.3867ZM16.2305 9.16016C16.2305 9.93164 16.6895 10.6152 17.373 10.918L15.7617 17.373C15.498 18.4375 14.5605 19.1699 13.4375 19.1699C13.2129 19.1699 13.0371 19.3652 13.0371 19.5801C13.0371 19.7852 13.2031 19.9902 13.4375 19.9902L17.4609 19.9902C17.8711 19.9902 17.9785 19.4531 17.6562 19.2383L16.2402 18.3105C16.3867 18.0859 16.4746 17.8418 16.543 17.5586L18.1738 11.0938C19.2383 11.0645 20.0977 10.1953 20.0977 9.16016C20.0977 8.0957 19.209 7.22656 18.1641 7.22656C17.0996 7.22656 16.2305 8.0957 16.2305 9.16016ZM7.44141 10.0488L7.1875 13.4375C7.10938 14.4434 7.59766 15.1953 8.74023 15.3711L11.9922 15.8301L11.1133 19.0234C11.0059 19.4434 11.2402 19.8145 11.6406 19.9121C11.9824 20.0098 12.4121 19.834 12.5195 19.4043L13.584 15.498C13.7207 15 13.5254 14.6484 13.0176 14.5117L9.88281 13.623L10.1367 10.8691C10.1465 10.7812 10.2441 10.7324 10.3125 10.791L11.7578 11.8262C12.0215 12.0117 12.3438 12.0117 12.5977 11.8262L15.1367 10.0195C15.459 9.78516 15.5371 9.33594 15.3125 9.01367C15.0684 8.68164 14.6094 8.60352 14.2969 8.82812L12.1875 10.3516L10.4492 9.11133C10.0781 8.83789 9.63867 8.65234 9.10156 8.65234C8.17383 8.65234 7.5 9.22852 7.44141 10.0488ZM19.2969 9.16016C19.2969 9.82422 18.8184 10.293 18.1641 10.293C17.4902 10.293 17.0312 9.82422 17.0312 9.16016C17.0312 8.50586 17.4902 8.02734 18.1641 8.02734C18.8184 8.02734 19.2969 8.50586 19.2969 9.16016ZM7.61719 6.30859C7.61719 7.17773 8.33008 7.87109 9.17969 7.87109C10.0391 7.87109 10.7422 7.17773 10.7422 6.30859C10.7422 5.45898 10.0391 4.75586 9.17969 4.75586C8.33008 4.75586 7.61719 5.45898 7.61719 6.30859Z" fill="black" fill-opacity="0.85"/>
 </g>
</svg>
