<?xml version="1.0" encoding="UTF-8"?>
<!--Generator: Apple Native CoreSVG 326-->
<!DOCTYPE svg
PUBLIC "-//W3C//DTD SVG 1.1//EN"
       "http://www.w3.org/Graphics/SVG/1.1/DTD/svg11.dtd">
<svg version="1.1" xmlns="http://www.w3.org/2000/svg" xmlns:xlink="http://www.w3.org/1999/xlink" viewBox="0 0 25.8008 25.459">
 <g>
  <rect height="25.459" opacity="0" width="25.8008" x="0" y="0"/>
  <path d="M25.4395 12.7246C25.4395 19.7266 19.7266 25.4395 12.7148 25.4395C5.71289 25.4395 0 19.7266 0 12.7246C0 5.71289 5.71289 0 12.7148 0C19.7266 0 25.4395 5.71289 25.4395 12.7246ZM8.84766 7.36328C8.13477 7.36328 7.94922 8.125 8.36914 8.56445L9.21875 9.42383L8.87695 9.55078C7.56836 10.0781 7.19727 11.7773 8.42773 12.6758L11.1816 14.6973L9.66797 17.7344C9.48242 18.0859 9.63867 18.4961 9.99023 18.6914C10.2637 18.8281 10.752 18.7695 10.9473 18.3594L12.7344 14.8047C12.8711 14.5215 12.8223 14.209 12.5977 13.9844L10.4395 11.8164L11.5625 11.2598L14.9316 14.6289L14.9316 14.8438C14.9316 15.2344 15.2637 15.5371 15.6641 15.5371C15.7129 15.5371 15.7617 15.5371 15.8203 15.5176L18.5547 18.252C18.7109 18.3984 18.7988 18.418 18.9453 18.418L20.8887 18.418C21.084 18.418 21.25 18.2617 21.25 18.0469L21.25 17.7051C21.25 17.4902 21.084 17.3242 20.8887 17.3242L18.6719 17.3242L16.3379 14.9902C16.3672 14.9414 16.3672 14.8926 16.3672 14.8438L16.3672 11.6406C16.3672 11.4355 16.3281 11.2793 16.1621 11.123L12.9395 7.91992C12.5781 7.56836 12.0996 7.36328 11.5918 7.36328ZM6.95312 14.4824L4.0918 14.4824C3.70117 14.4824 3.37891 14.8047 3.37891 15.2051C3.37891 15.5957 3.70117 15.918 4.0918 15.918L7.46094 15.918C7.74414 15.918 7.96875 15.7422 8.08594 15.5078L8.95508 13.7891L8.06641 13.1543C7.83203 12.9883 7.64648 12.793 7.55859 12.6562ZM13.5352 10.5176L14.9316 11.9336L14.9316 13.584L12.2559 10.9082L13.1543 10.459C13.2812 10.3906 13.4473 10.4297 13.5352 10.5176ZM13.7109 6.85547C13.7109 7.71484 14.4141 8.39844 15.2734 8.39844C16.123 8.39844 16.8262 7.71484 16.8262 6.85547C16.8262 5.98633 16.123 5.29297 15.2734 5.29297C14.4141 5.29297 13.7109 5.98633 13.7109 6.85547Z" fill="black" fill-opacity="0.85"/>
 </g>
</svg>
