<?xml version="1.0" encoding="UTF-8"?>
<!--Generator: Apple Native CoreSVG 326-->
<!DOCTYPE svg
PUBLIC "-//W3C//DTD SVG 1.1//EN"
       "http://www.w3.org/Graphics/SVG/1.1/DTD/svg11.dtd">
<svg version="1.1" xmlns="http://www.w3.org/2000/svg" xmlns:xlink="http://www.w3.org/1999/xlink" viewBox="0 0 31.1685 27.7832">
 <g>
  <rect height="27.7832" opacity="0" width="31.1685" x="0" y="0"/>
  <path d="M8.28931 5.29297C9.76392 5.29297 10.9456 4.12109 10.9456 2.64648C10.9456 1.17188 9.76392 0 8.28931 0C6.82446 0 5.65259 1.17188 5.65259 2.64648C5.65259 4.12109 6.82446 5.29297 8.28931 5.29297ZM8.28931 17.2363C8.80689 17.2363 9.02173 17.5977 9.30493 18.4766C9.70532 19.7363 10.9749 24.9316 11.3948 26.4551C11.5999 27.2168 11.9905 27.5391 12.5764 27.5391C13.3479 27.5391 13.8264 26.8262 13.6116 26.0547C13.5237 25.7227 11.7073 18.2031 11.4729 16.6504C11.2678 15.2441 11.1995 12.334 11.1995 11.1719C11.1995 10.9863 11.4143 10.9082 11.5413 11.0742C12.4299 12.3145 14.1877 14.8047 14.5198 15.2051C14.8909 15.6348 15.4768 15.7227 15.9651 15.4492C16.5803 15.1172 16.7268 14.4531 16.4631 13.9844C16.3557 13.7891 16.219 13.5938 16.0823 13.3887L12.9475 8.78906C11.8538 7.19727 10.4963 6.64062 8.28931 6.64062C6.09204 6.64062 4.73462 7.19727 3.64087 8.78906L0.506105 13.3887C0.369386 13.5938 0.232668 13.7891 0.125246 13.9844C-0.138426 14.4531 0.00805827 15.1172 0.623293 15.4492C1.11157 15.7227 1.69751 15.6348 2.06861 15.2051C2.40064 14.8047 4.15845 12.3242 5.04712 11.0742C5.16431 10.918 5.38892 10.9863 5.38892 11.1816C5.38892 12.3438 5.32056 15.2441 5.11548 16.6504C4.88111 18.2031 3.0647 25.7227 2.97681 26.0547C2.76196 26.8262 3.24048 27.5391 4.01196 27.5391C4.5979 27.5391 4.97876 27.2168 5.19361 26.4551C5.61353 24.9316 6.88306 19.7363 7.28345 18.4766C7.55689 17.5977 7.7815 17.2363 8.28931 17.2363ZM22.5178 5.29297C23.9924 5.29297 25.1643 4.12109 25.1643 2.64648C25.1643 1.17188 23.9924 0 22.5178 0C21.0432 0 19.8713 1.17188 19.8713 2.64648C19.8713 4.12109 21.0432 5.29297 22.5178 5.29297ZM22.5178 17.2363C23.0256 17.2363 23.2502 17.5977 23.5237 18.4766C23.9241 19.7363 25.1936 24.9316 25.6233 26.4551C25.8284 27.2168 26.2092 27.5391 26.7952 27.5391C27.5764 27.5391 28.0549 26.8262 27.8303 26.0547C27.7424 25.7227 25.9358 18.2031 25.6917 16.6504C25.4866 15.2441 25.4182 12.334 25.4182 11.1719C25.4182 10.9863 25.6428 10.9082 25.76 11.0742C26.6487 12.3145 28.4163 14.8047 28.7385 15.2051C29.1096 15.6348 29.6956 15.7227 30.1838 15.4492C30.7991 15.1172 30.9456 14.4531 30.6917 13.9844C30.5745 13.7891 30.4475 13.5938 30.301 13.3887L27.1663 8.78906C26.0725 7.19727 24.7151 6.64062 22.5178 6.64062C20.3108 6.64062 18.9631 7.19727 17.8694 8.78906L14.7346 13.3887C14.5881 13.5938 14.4514 13.7891 14.344 13.9844C14.0803 14.4531 14.2268 15.1172 14.8518 15.4492C15.3401 15.7227 15.926 15.6348 16.2874 15.2051C16.6194 14.8047 18.387 12.3242 19.2659 11.0742C19.3831 10.918 19.6077 10.9863 19.6077 11.1816C19.6077 12.3438 19.5393 15.2441 19.3342 16.6504C19.0999 18.2031 17.2834 25.7227 17.1956 26.0547C16.9807 26.8262 17.4592 27.5391 18.2405 27.5391C18.8167 27.5391 19.2073 27.2168 19.4124 26.4551C19.8323 24.9316 21.1116 19.7363 21.512 18.4766C21.7854 17.5977 22.0002 17.2363 22.5178 17.2363Z" fill="black" fill-opacity="0.85"/>
 </g>
</svg>
