<?xml version="1.0" encoding="UTF-8"?>
<!--Generator: Apple Native CoreSVG 326-->
<!DOCTYPE svg
PUBLIC "-//W3C//DTD SVG 1.1//EN"
       "http://www.w3.org/Graphics/SVG/1.1/DTD/svg11.dtd">
<svg version="1.1" xmlns="http://www.w3.org/2000/svg" xmlns:xlink="http://www.w3.org/1999/xlink" viewBox="0 0 40.3827 25.166">
 <g>
  <rect height="25.166" opacity="0" width="40.3827" x="0" y="0"/>
  <path d="M33.0722 6.73828C34.9277 6.73828 36.412 5.19531 36.412 3.39844C36.412 1.52344 34.9277 0 33.0722 0C31.1972 0 29.7031 1.52344 29.7031 3.39844C29.7031 5.26367 31.1972 6.73828 33.0722 6.73828ZM13.0722 24.4727C13.7167 25.1465 14.8202 25.0879 15.6113 24.2773L20.9531 18.7598C21.1288 18.5742 21.2558 18.5254 21.5292 18.6328L25.7675 20.2441C28.4335 21.2598 30.9238 20.3223 32.1347 18.125L34.7519 13.3594C35.8066 11.4453 35.4648 9.49219 33.6581 8.53516C31.9101 7.56836 30.0839 8.29102 29.0292 10.2344L25.5527 16.582L22.5937 15.5078C21.1191 14.9707 19.8984 15.1367 18.7363 16.3477L13.1894 22.0898C12.4179 22.8809 12.4863 23.877 13.0722 24.4727Z" fill="black" fill-opacity="0.85"/>
  <path d="M0.201102 3.79883L3.58001 8.13477C3.73626 8.32031 3.96087 8.36914 4.16595 8.25195C4.96673 7.83203 6.12884 7.53906 7.04681 7.53906C7.97454 7.53906 9.14641 7.83203 9.92766 8.25195C10.1523 8.36914 10.3866 8.32031 10.5234 8.13477L13.912 3.79883C14.2148 3.39844 14.1659 2.99805 13.7949 2.71484C12.3886 1.65039 9.75188 0.839844 7.04681 0.839844C4.36126 0.839844 1.71477 1.65039 0.31829 2.71484C-0.0625698 2.99805-0.101632 3.4082 0.201102 3.79883ZM3.75579 10.7227C3.37493 10.2246 3.21868 9.75586 3.21868 9.23828C3.21868 8.10547 4.16595 7.75391 4.16595 7.08008C4.16595 6.39648 3.21868 6.07422 3.21868 4.90234C3.21868 4.39453 3.37493 3.92578 3.76556 3.42773C4.16595 2.93945 4.89837 3.45703 4.50774 3.98438C4.22454 4.36523 4.14641 4.58984 4.14641 4.90234C4.14641 5.75195 5.09368 6.00586 5.09368 7.08008C5.09368 8.16406 4.14641 8.42773 4.14641 9.23828C4.14641 9.58008 4.22454 9.78516 4.50774 10.166C4.87884 10.6836 4.15618 11.2012 3.75579 10.7227ZM6.65618 10.7227C6.29485 10.2246 6.12884 9.75586 6.12884 9.23828C6.12884 8.10547 7.0761 7.75391 7.0761 7.08008C7.0761 6.39648 6.12884 6.07422 6.12884 4.90234C6.12884 4.39453 6.29485 3.92578 6.66595 3.42773C7.0761 2.93945 7.81829 3.45703 7.42766 3.98438C7.14446 4.36523 7.05657 4.58984 7.05657 4.90234C7.05657 5.75195 8.00384 6.00586 8.00384 7.08008C8.00384 8.16406 7.05657 8.42773 7.05657 9.23828C7.05657 9.58008 7.14446 9.78516 7.4179 10.166C7.79876 10.6836 7.05657 11.2012 6.65618 10.7227ZM9.59563 10.7227C9.21477 10.2246 9.04876 9.75586 9.04876 9.23828C9.04876 8.10547 9.99602 7.75391 9.99602 7.08008C9.99602 6.39648 9.04876 6.07422 9.04876 4.90234C9.04876 4.39453 9.20501 3.92578 9.59563 3.42773C9.99602 2.93945 10.7284 3.45703 10.3378 3.98438C10.0644 4.36523 9.97649 4.58984 9.97649 4.90234C9.97649 5.75195 10.914 6.00586 10.914 7.08008C10.914 8.16406 9.97649 8.42773 9.97649 9.23828C9.97649 9.58008 10.0644 9.78516 10.3281 10.166C10.7089 10.6836 9.98626 11.2012 9.59563 10.7227ZM14.8202 5.26367C14.8202 5.72266 15.1816 6.07422 15.6308 6.07422L20.7968 6.07422L20.7968 8.24219C20.7968 9.0332 21.6269 9.39453 22.2324 8.85742L25.621 5.91797C26.0409 5.53711 26.0409 5.01953 25.621 4.64844L22.2324 1.70898C21.6464 1.19141 20.7968 1.48438 20.7968 2.32422L20.7968 4.48242L15.6308 4.48242C15.1816 4.48242 14.8202 4.83398 14.8202 5.26367Z" fill="black" fill-opacity="0.85"/>
 </g>
</svg>
