<?xml version="1.0" ?><!-- Generator: Adobe Illustrator 25.0.0, SVG Export Plug-In . SVG Version: 6.00 Build 0)  --><svg xmlns="http://www.w3.org/2000/svg" xmlns:xlink="http://www.w3.org/1999/xlink" version="1.1" id="Layer_1" x="0px" y="0px" viewBox="0 0 512 512" style="enable-background:new 0 0 512 512;" xml:space="preserve">
<path d="M256,512c140,0,256-116.2,256-256C512,116,395.8,0,255.7,0C116,0,0,116,0,256C0,395.8,116.2,512,256,512z M269.1,141.3  c-17.8,0-32.6-15.1-32.6-32.9c0-18.3,14.6-33.1,32.6-33.1c18.3,0,33.1,14.8,33.1,33.1C302.2,126,287.1,141.3,269.1,141.3z   M317.2,415.9c-6.8,0-11.8-3.3-14.8-10l-33.4-68c-2-3-2.8-4.5-5.5-7.8l-30.6-38.4c-8.5-10.8-16.6-23.1-15.3-40.4l2.8-34.6  c0.3-5.3-4.8-8.3-9-4.5l-15.1,13.3l-3,38.4c-0.8,10-6.5,15.3-15.3,14.8c-9-0.8-14.3-7-13.3-16.8l2.8-35.1c1-9.8,3.8-16.1,11-23.3  l24.3-23.6c15.8-15.1,30.1-23.1,46.4-23.1c22.8,0,36.4,15.8,34.9,39.7l-3,42.2c-1,15.3-4.3,25.6-9.3,41.9l-1.5,5.3l19.1,26.9  c2.5,3.5,5.8,8.3,8.8,14.8l31.1,63.5c2,4,3.3,7.3,3.3,10.8C332.5,409.9,326,415.9,317.2,415.9z M326,246.2c-9,0-13.1-1.5-18.1-6.5  l-10.5-10.5l2.5-37.1l23.1,25.6h40.4c10,0,16.3,5.5,16.3,14.3c0,8.8-6,14.3-16.3,14.3H326z M173.7,416.1c-8,0-13.6-5.8-13.6-14.1  c0-5.5,3-9.3,6.8-13.8l44.9-53.2l7-34.9l24.6,30.9l-2.5,10.5c-1.5,5.3-1.8,5.3-7,11.8l-48.4,57.5  C182.7,414.4,178.2,416.1,173.7,416.1z"/>
</svg>