<?xml version="1.0" encoding="UTF-8"?>
<!--Generator: Apple Native CoreSVG 326-->
<!DOCTYPE svg
PUBLIC "-//W3C//DTD SVG 1.1//EN"
       "http://www.w3.org/Graphics/SVG/1.1/DTD/svg11.dtd">
<svg version="1.1" xmlns="http://www.w3.org/2000/svg" xmlns:xlink="http://www.w3.org/1999/xlink" viewBox="0 0 31.9629 26.5137">
 <g>
  <rect height="26.5137" opacity="0" width="31.9629" x="0" y="0"/>
  <path d="M20.6055 5.36133C22.0703 5.36133 23.2715 4.15039 23.2715 2.66602C23.2715 1.21094 22.0703 0 20.6055 0C19.1309 0 17.9199 1.21094 17.9199 2.66602C17.9199 4.15039 19.1309 5.36133 20.6055 5.36133ZM26.2109 22.959C26.1816 23.3105 26.4746 23.6035 26.7773 23.6328C27.1191 23.6523 27.4316 23.3887 27.4609 23.0469L28.5352 8.52539L27.2949 8.4375ZM20.0977 16.6895L16.8262 14.082L19.3359 9.67773L23.4277 12.793C23.9844 13.2129 24.7363 13.1641 25.2344 12.6074L28.2324 9.24805C29.2383 8.13477 27.5586 6.24023 26.3867 7.61719L24.1895 10.166L20.6055 7.24609C19.3066 6.19141 18.0762 5.36133 15.9375 5.45898L10.7227 5.71289C10.0586 5.74219 9.51172 6.15234 9.47266 6.94336L9.16992 11.6602C9.08203 13.1543 11.5234 13.6719 11.6309 11.6309L11.8262 8.04688L14.9316 7.91992L12.5781 12.1875C11.8359 13.5449 12.1777 15.0293 13.5547 15.8301L18.1641 18.4961L18.1641 24.707C18.1641 25.3906 18.7109 25.9375 19.3945 25.9375C20.0879 25.9375 20.6348 25.3906 20.6348 24.707L20.6348 17.6758C20.6348 17.3047 20.5273 17.0312 20.0977 16.6895ZM0.595703 21.2598C0.351562 21.5039 0.351562 21.9043 0.576172 22.1289C0.820312 22.373 1.23047 22.3633 1.47461 22.1289L11.2402 12.6562L10.3711 11.7773ZM12.1387 16.2012L11.5137 18.6133L6.31836 23.457C5.03906 24.6484 6.75781 26.4551 8.07617 25.2051L13.4082 20.2344C13.7109 19.9609 13.7988 19.7754 13.9355 19.4531L14.6484 17.8027L12.9785 16.8359C12.6465 16.6406 12.3633 16.4355 12.1387 16.2012ZM28.3594 26.3477C29.6094 26.3477 30.3516 26.0352 31.2305 25.625C31.5527 25.4785 31.6699 25.1367 31.5625 24.834C31.4551 24.5215 31.1035 24.3164 30.7031 24.5215C30 24.8828 29.4238 25.1172 28.3594 25.1172L7.5 25.1172C7.1582 25.1172 6.875 25.3809 6.875 25.7129C6.875 26.0449 7.14844 26.3477 7.5 26.3477ZM21.0352 26.3477L21.0352 25.1172L0.615234 25.1172C0.283203 25.1172 0 25.3809 0 25.7129C0 26.0449 0.273438 26.3477 0.615234 26.3477Z" fill="black" fill-opacity="0.85"/>
 </g>
</svg>
