<?xml version="1.0" encoding="UTF-8"?>
<!--Generator: Apple Native CoreSVG 326-->
<!DOCTYPE svg
PUBLIC "-//W3C//DTD SVG 1.1//EN"
       "http://www.w3.org/Graphics/SVG/1.1/DTD/svg11.dtd">
<svg version="1.1" xmlns="http://www.w3.org/2000/svg" xmlns:xlink="http://www.w3.org/1999/xlink" viewBox="0 0 25.8008 25.459">
 <g>
  <rect height="25.459" opacity="0" width="25.8008" x="0" y="0"/>
  <path d="M12.7148 25.4395C19.7363 25.4395 25.4395 19.7461 25.4395 12.7246C25.4395 5.70312 19.7363 0 12.7148 0C5.69336 0 0 5.70312 0 12.7246C0 19.7461 5.69336 25.4395 12.7148 25.4395ZM12.7148 23.623C6.68945 23.623 1.81641 18.75 1.81641 12.7246C1.81641 6.69922 6.68945 1.82617 12.7148 1.82617C18.7402 1.82617 23.6133 6.69922 23.6133 12.7246C23.6133 18.75 18.7402 23.623 12.7148 23.623Z" fill="black" fill-opacity="0.85"/>
  <path d="M10.0098 19.6973L12.0605 19.6973C12.373 19.6973 12.5195 19.4727 12.4414 19.1113L11.7285 15.9863L13.7988 13.4473L19.873 12.334L20.3906 13.291C20.5859 13.6719 21.2793 13.5449 21.1914 13.0566L20.8594 11.1621C20.8105 10.8691 20.6152 10.7617 20.3711 10.8105L16.1914 11.543L13.6035 11.4062C12.8613 11.2793 11.6309 10.7422 11.3574 10.0488C11.2793 9.86328 11.3965 9.6875 11.5723 9.63867L15.4688 8.95508C15.9473 8.87695 16.1133 8.4668 16.0352 8.125C15.9668 7.77344 15.6641 7.49023 15.1953 7.56836L4.39453 9.54102C3.93555 9.62891 3.75977 10 3.81836 10.3418C3.89648 10.7031 4.18945 11.0059 4.66797 10.918L7.8418 10.3418C8.11523 10.293 8.24219 10.4102 8.28125 10.5566C8.64258 11.9434 10.0098 12.9199 11.4258 13.4668L10.4004 15.2051C10.2344 15.4785 10.1758 15.7227 10.2637 16.0742L10.8301 18.5645L9.91211 18.8672C9.46289 19.0234 9.51172 19.6973 10.0098 19.6973ZM9.02344 7.91992C9.86328 7.91992 10.5469 7.24609 10.5469 6.39648C10.5469 5.54688 9.86328 4.88281 9.02344 4.88281C8.16406 4.88281 7.50977 5.54688 7.50977 6.39648C7.50977 7.24609 8.16406 7.91992 9.02344 7.91992ZM9.62891 20.7617L12.3535 20.7617C12.5195 20.7617 12.6465 20.6348 12.6465 20.4785C12.6465 20.3125 12.5195 20.1758 12.3535 20.1758L9.62891 20.1758C9.47266 20.1758 9.33594 20.3125 9.33594 20.4785C9.33594 20.6348 9.47266 20.7617 9.62891 20.7617ZM22.334 13.3691L21.8652 10.6934C21.8359 10.5371 21.6797 10.4297 21.5234 10.4492C21.3574 10.4883 21.2598 10.6348 21.2793 10.791L21.7676 13.4668C21.7871 13.6328 21.9531 13.7402 22.1094 13.7109C22.2656 13.7012 22.3633 13.5352 22.334 13.3691Z" fill="black" fill-opacity="0.85"/>
 </g>
</svg>
