<?xml version="1.0" encoding="UTF-8"?>
<!--Generator: Apple Native CoreSVG 326-->
<!DOCTYPE svg
PUBLIC "-//W3C//DTD SVG 1.1//EN"
       "http://www.w3.org/Graphics/SVG/1.1/DTD/svg11.dtd">
<svg version="1.1" xmlns="http://www.w3.org/2000/svg" xmlns:xlink="http://www.w3.org/1999/xlink" viewBox="0 0 25.8008 25.459">
 <g>
  <rect height="25.459" opacity="0" width="25.8008" x="0" y="0"/>
  <path d="M25.4395 12.7246C25.4395 19.7266 19.7266 25.4395 12.7148 25.4395C5.71289 25.4395 0 19.7266 0 12.7246C0 5.71289 5.71289 0 12.7148 0C19.7266 0 25.4395 5.71289 25.4395 12.7246ZM7.26562 5.50781C7.26562 5.97656 7.4707 6.38672 7.80273 6.66992L5.83984 10.0977C5.67383 10.4004 5.73242 10.7129 5.97656 10.957L8.21289 13.1934C8.4082 13.3887 8.76953 13.4961 9.14062 13.3105L11.6699 12.041C11.8555 11.9434 12.0215 12.0312 12.0508 12.1777L12.8223 15.2344L11.5918 18.2715L8.74023 18.2715C8.32031 18.2715 7.99805 18.5938 7.99805 19.0332C7.99805 19.4336 8.32031 19.7656 8.74023 19.7656L12.0605 19.7656C12.3438 19.7656 12.6074 19.6387 12.7637 19.3652L14.2773 16.5918C14.3359 16.4746 14.4531 16.4844 14.502 16.6016L15.3027 18.7305L12.4316 20.6348C12.0996 20.8594 12.002 21.3281 12.2266 21.6797C12.4414 22.0215 12.9004 22.1094 13.2617 21.875L16.5234 19.6973C16.8555 19.4922 17.0117 19.1406 16.9141 18.7598L14.9219 10.8301C14.8633 10.5664 14.9219 10.4199 15.1074 10.3223L19.8242 7.96875C20.2148 7.7832 20.3418 7.32422 20.1562 6.96289C19.9805 6.60156 19.541 6.44531 19.1602 6.63086L8.89648 11.7676L7.14844 10.0195C7.07031 9.92188 6.96289 9.85352 6.86523 9.80469L8.45703 6.99219C8.57422 7.02148 8.69141 7.03125 8.79883 7.03125C9.63867 7.03125 10.3223 6.34766 10.3223 5.50781C10.3223 4.64844 9.63867 3.97461 8.79883 3.97461C7.93945 3.97461 7.26562 4.64844 7.26562 5.50781ZM10.9375 7.39258C10.9375 8.24219 11.6211 8.93555 12.4805 8.93555C13.3398 8.93555 14.0234 8.24219 14.0234 7.39258C14.0234 6.5332 13.3398 5.83984 12.4805 5.83984C11.6211 5.83984 10.9375 6.5332 10.9375 7.39258ZM9.58008 5.50781C9.58008 5.95703 9.24805 6.29883 8.79883 6.29883C8.33984 6.29883 7.99805 5.95703 7.99805 5.50781C7.99805 5.04883 8.33984 4.7168 8.79883 4.7168C9.24805 4.7168 9.58008 5.04883 9.58008 5.50781Z" fill="black" fill-opacity="0.85"/>
 </g>
</svg>
