<?xml version="1.0" encoding="UTF-8"?>
<!--Generator: Apple Native CoreSVG 326-->
<!DOCTYPE svg
PUBLIC "-//W3C//DTD SVG 1.1//EN"
       "http://www.w3.org/Graphics/SVG/1.1/DTD/svg11.dtd">
<svg version="1.1" xmlns="http://www.w3.org/2000/svg" xmlns:xlink="http://www.w3.org/1999/xlink" viewBox="0 0 25.8008 25.459">
 <g>
  <rect height="25.459" opacity="0" width="25.8008" x="0" y="0"/>
  <path d="M25.4395 12.7246C25.4395 19.7266 19.7266 25.4395 12.7148 25.4395C5.71289 25.4395 0 19.7266 0 12.7246C0 5.71289 5.71289 0 12.7148 0C19.7266 0 25.4395 5.71289 25.4395 12.7246ZM15.8984 18.3594C15.8984 18.877 16.3184 19.2969 16.8457 19.2969C17.3535 19.2969 17.7832 18.877 17.7832 18.3594C17.7832 17.8223 17.3535 17.3926 16.8457 17.3926C16.3184 17.3926 15.8984 17.8223 15.8984 18.3594ZM9.0918 9.87305C7.89062 10.5078 7.60742 11.9727 8.75 12.8809L11.3184 14.9023L9.74609 17.7246C9.55078 18.0566 9.70703 18.4668 10.0391 18.6523C10.3027 18.8184 10.752 18.75 10.9668 18.3594L12.793 15.0098C12.9492 14.7461 12.8809 14.4434 12.6855 14.2188L10.6836 12.0508L11.2891 11.709L9.43359 9.98047C9.36523 9.91211 9.30664 9.85352 9.25781 9.79492ZM11.4941 7.8125L10 8.36914C9.57031 8.52539 9.375 9.08203 9.81445 9.51172L13.6133 13.0664C13.8184 13.2617 14.1211 13.3105 14.375 13.1934L15.4004 14.1504L15.4004 14.502C15.4004 14.8828 15.7129 15.1953 16.084 15.1953C16.2012 15.1953 16.3184 15.1562 16.4062 15.0879L19.1797 17.6758C19.4727 17.959 19.8242 18.0957 20.2051 18.0957C20.8887 18.0762 21.3672 17.6074 21.3477 16.9531C21.3477 16.6406 21.1328 16.3477 20.8203 16.3574C20.5957 16.3574 20.4395 16.5137 20.4395 16.748L20.4395 16.9336C20.4395 17.207 20.1367 17.3633 19.8242 17.0898L16.7871 14.3945L16.7871 11.3965C16.7871 11.1914 16.6992 11.0254 16.5137 10.8496L13.5742 8.125C13.0273 7.60742 12.1973 7.53906 11.4941 7.8125ZM7.34375 14.6387L4.50195 14.6387C4.12109 14.6387 3.81836 14.9512 3.81836 15.3418C3.81836 15.7129 4.12109 16.0254 4.50195 16.0254L7.83203 16.0254C8.11523 16.0254 8.33984 15.8594 8.45703 15.6543L9.25781 14.0332L8.37891 13.3496C8.17383 13.1836 8.01758 13.0273 7.91016 12.8809ZM14.1602 10.5469L15.4004 11.709L15.4004 13.1641L14.7754 12.6074C14.7949 12.4219 14.7266 12.207 14.5605 12.0605L13.2031 10.791L13.7793 10.498C13.9062 10.4297 14.0527 10.4492 14.1602 10.5469ZM14.1406 6.96289C14.1406 7.82227 14.8535 8.51562 15.7129 8.51562C16.5625 8.51562 17.2656 7.82227 17.2656 6.96289C17.2656 6.09375 16.5625 5.40039 15.7129 5.40039C14.8535 5.40039 14.1406 6.09375 14.1406 6.96289Z" fill="black" fill-opacity="0.85"/>
 </g>
</svg>
