<?xml version="1.0" encoding="UTF-8"?>
<!--Generator: Apple Native CoreSVG 326-->
<!DOCTYPE svg
PUBLIC "-//W3C//DTD SVG 1.1//EN"
       "http://www.w3.org/Graphics/SVG/1.1/DTD/svg11.dtd">
<svg version="1.1" xmlns="http://www.w3.org/2000/svg" xmlns:xlink="http://www.w3.org/1999/xlink" viewBox="0 0 25.8008 25.459">
 <g>
  <rect height="25.459" opacity="0" width="25.8008" x="0" y="0"/>
  <path d="M25.4395 12.7246C25.4395 19.7266 19.7266 25.4395 12.7148 25.4395C5.71289 25.4395 0 19.7266 0 12.7246C0 5.71289 5.71289 0 12.7148 0C19.7266 0 25.4395 5.71289 25.4395 12.7246ZM16.9434 18.8672L16.9434 19.4824C16.9434 19.7852 17.4414 20.0293 18.0859 20.0293C18.7402 20.0293 19.248 19.7852 19.248 19.4824L19.248 18.8672C19.248 18.5645 18.7402 18.3398 18.0859 18.3398C17.4414 18.3398 16.9434 18.5645 16.9434 18.8672ZM12.5879 18.3301C12.4219 18.3301 12.2852 18.4766 12.2852 18.6328C12.2852 18.7891 12.4316 18.9355 12.5879 18.9355L15.4004 18.9355C15.5664 18.9355 15.7129 18.7891 15.7129 18.6328C15.7129 18.4766 15.5762 18.3301 15.4004 18.3301ZM4.28711 15.2539L4.28711 18.0566C4.28711 18.2324 4.43359 18.3691 4.58984 18.3691C4.75586 18.3691 4.89258 18.2422 4.89258 18.0566L4.89258 15.2539C4.89258 15.0879 4.75586 14.9512 4.58984 14.9512C4.42383 14.9512 4.28711 15.0879 4.28711 15.2539ZM8.27148 15.0684L5.82031 15.0684C5.52734 15.0684 5.38086 15.2441 5.38086 15.5273L5.38086 17.5C5.38086 18.0078 6.09375 18.0176 6.23047 17.5879L6.57227 16.5137L8.81836 16.5137C9.11133 16.5137 9.33594 16.3281 9.44336 16.123L10.2148 14.6094L9.6582 14.4727C9.25781 14.3652 8.89648 14.1895 8.63281 13.9941ZM10.5566 7.50977L8.29102 8.4375C7.60742 8.7207 7.72461 9.47266 8.27148 9.76562L9.13086 10.2148L8.65234 11.1621C8.02734 12.4219 8.50586 13.5254 9.81445 13.8574L12.4121 14.5117L12.4121 17.4121C12.4121 17.6855 12.5781 17.8418 12.8809 17.8418L14.8438 17.8418C15.3613 17.8418 15.3613 17.1289 14.9414 16.9922L13.8477 16.6406L13.8477 13.8379C13.8477 13.5449 13.6523 13.291 13.3691 13.1641L11.377 12.2461L11.9531 11.123L14.8047 13.7695C14.7754 14.3359 15.2344 14.5898 15.6152 14.5312L18.6621 17.3633C18.8086 17.5 18.8965 17.5098 19.0527 17.5098L21.1523 17.5098C21.3379 17.5098 21.5234 17.3438 21.5234 17.1484L21.5234 16.7871C21.5234 16.6016 21.3379 16.416 21.1523 16.416L18.7793 16.416L16.1914 14.0332C16.2109 13.9648 16.2207 13.916 16.2207 13.8379L16.2207 10.7129C16.2207 10.4395 16.1523 10.3125 15.8984 10.127L12.8223 7.8125C12.1484 7.31445 11.3379 7.1875 10.5566 7.50977ZM12.8516 9.87305L14.8047 11.1426L14.8047 12.7539L12.2949 10.459L12.5391 9.96094C12.5977 9.84375 12.7344 9.79492 12.8516 9.87305ZM12.1289 5.68359C12.1289 6.54297 12.832 7.24609 13.6914 7.24609C14.5508 7.24609 15.2441 6.54297 15.2441 5.68359C15.2441 4.82422 14.5508 4.13086 13.6914 4.13086C12.832 4.13086 12.1289 4.82422 12.1289 5.68359Z" fill="black" fill-opacity="0.85"/>
 </g>
</svg>
