<?xml version="1.0" encoding="UTF-8"?>
<!--Generator: Apple Native CoreSVG 326-->
<!DOCTYPE svg
PUBLIC "-//W3C//DTD SVG 1.1//EN"
       "http://www.w3.org/Graphics/SVG/1.1/DTD/svg11.dtd">
<svg version="1.1" xmlns="http://www.w3.org/2000/svg" xmlns:xlink="http://www.w3.org/1999/xlink" viewBox="0 0 25.8008 25.459">
 <g>
  <rect height="25.459" opacity="0" width="25.8008" x="0" y="0"/>
  <path d="M25.4395 12.7246C25.4395 19.7266 19.7266 25.4395 12.7148 25.4395C5.71289 25.4395 0 19.7266 0 12.7246C0 5.71289 5.71289 0 12.7148 0C19.7266 0 25.4395 5.71289 25.4395 12.7246ZM12.7148 17.6074C11.3281 17.6074 10.8398 16.416 8.98438 16.416C7.13867 16.416 6.66016 17.6074 5.27344 17.6074L5.15625 17.6074C4.95117 17.6074 4.75586 17.793 4.75586 18.0078C4.75586 18.2324 4.95117 18.418 5.15625 18.418L5.27344 18.418C7.20703 18.418 7.65625 17.2266 8.98438 17.2266C10.332 17.2266 10.7812 18.418 12.7148 18.418C14.6582 18.418 15.1074 17.2266 16.4453 17.2266C17.7832 17.2266 18.2324 18.418 20.1562 18.418L20.2832 18.418C20.4785 18.418 20.6836 18.2324 20.6836 18.0078C20.6836 17.793 20.4785 17.6074 20.2832 17.6074L20.1562 17.6074C18.7793 17.6074 18.3008 16.416 16.4453 16.416C14.5898 16.416 14.1016 17.6074 12.7148 17.6074ZM12.7148 15.6348C11.3281 15.6348 10.8398 14.4629 8.98438 14.4629C7.13867 14.4629 6.66016 15.6348 5.27344 15.6348L5.15625 15.6348C4.95117 15.6348 4.75586 15.8398 4.75586 16.0449C4.75586 16.2793 4.95117 16.4453 5.15625 16.4453L5.27344 16.4453C7.20703 16.4453 7.65625 15.2637 8.98438 15.2637C10.332 15.2637 10.7812 16.4453 12.7148 16.4453C14.6582 16.4453 15.1074 15.2637 16.4453 15.2637C17.7832 15.2637 18.2324 16.4453 20.1562 16.4453L20.2832 16.4453C20.4785 16.4453 20.6836 16.2793 20.6836 16.0449C20.6836 15.8398 20.4785 15.6348 20.2832 15.6348L20.1562 15.6348C18.7793 15.6348 18.3008 14.4629 16.4453 14.4629C14.5898 14.4629 14.1016 15.6348 12.7148 15.6348ZM10.2246 9.30664L7.43164 11.2891C6.95312 11.6211 7.00195 12.1484 7.28516 12.4316C7.50977 12.6953 7.91992 12.793 8.32031 12.5195L10.5957 10.918L11.875 12.2363C12.0215 12.3828 12.0605 12.5977 11.8457 12.7441L10.4395 13.6816C11.2305 14.0137 11.6895 14.5703 12.7148 14.5703C13.8965 14.5703 14.2871 13.8281 15.3711 13.5156L11.4062 9.39453C11.084 9.0625 10.6055 9.0332 10.2246 9.30664ZM14.9121 11.1328C14.9121 11.9922 15.6055 12.6855 16.4746 12.6855C17.3242 12.6855 18.0176 11.9922 18.0176 11.1328C18.0176 10.2637 17.3242 9.58008 16.4746 9.58008C15.6055 9.58008 14.9121 10.2637 14.9121 11.1328ZM13.6035 7.50977C13.0176 6.96289 12.5 6.77734 11.709 6.77734C11.4941 6.77734 11.3281 6.94336 11.3281 7.14844C11.3281 7.35352 11.4941 7.5293 11.6992 7.5293C12.334 7.5293 12.7344 7.64648 13.1543 8.0957C13.3008 8.26172 13.4473 8.33984 13.6035 8.33984C13.7695 8.33984 13.9062 8.26172 14.0625 8.0957C14.4727 7.64648 14.873 7.5293 15.5176 7.5293C15.7227 7.5293 15.8887 7.35352 15.8887 7.14844C15.8887 6.94336 15.7227 6.77734 15.5078 6.77734C14.7168 6.77734 14.1992 6.96289 13.6035 7.50977Z" fill="black" fill-opacity="0.85"/>
 </g>
</svg>
