<?xml version="1.0" encoding="UTF-8"?>
<!--Generator: Apple Native CoreSVG 326-->
<!DOCTYPE svg
PUBLIC "-//W3C//DTD SVG 1.1//EN"
       "http://www.w3.org/Graphics/SVG/1.1/DTD/svg11.dtd">
<svg version="1.1" xmlns="http://www.w3.org/2000/svg" xmlns:xlink="http://www.w3.org/1999/xlink" viewBox="0 0 28.6086 28.2642">
 <g>
  <rect height="28.2642" opacity="0" width="28.6086" x="0" y="0"/>
  <path d="M1.35995 16.8128L11.4478 26.9007C13.235 28.6878 15.0318 28.6975 16.7994 26.93L26.9264 16.7932C28.6939 15.0257 28.6939 13.2288 26.9068 11.4417L16.8189 1.35378C15.0318-0.443093 13.2447-0.452858 11.4674 1.33425L1.32089 11.4612C-0.456453 13.2385-0.436922 15.0257 1.35995 16.8128ZM2.60019 15.6214C1.62363 14.6546 1.61386 13.6194 2.60995 12.6331L12.6295 2.61355C13.6158 1.61745 14.6412 1.62722 15.6178 2.60378L25.6471 12.6331C26.6139 13.5999 26.6432 14.6448 25.6471 15.6311L15.6275 25.6409C14.6314 26.637 13.5963 26.6175 12.6393 25.6604Z" fill="black" fill-opacity="0.85"/>
  <path d="M11.0572 21.5198L13.2447 18.9026C13.4596 18.6487 13.4889 18.5901 13.5768 18.3264L13.7428 17.7893L12.5904 16.3245L12.2291 18.0139L10.0611 20.5921C9.358 21.3928 10.481 22.1936 11.0572 21.5198ZM16.4088 21.3147C16.858 22.2132 18.1959 21.6565 17.7076 20.68L16.2232 17.6526C16.106 17.428 15.9498 17.1936 15.8131 16.9885L14.856 15.6311L14.9244 15.4358C15.1881 14.6839 15.2857 14.2249 15.3346 13.4729L15.4713 11.3635C15.5494 10.3479 14.9439 9.60574 13.9283 9.60574C13.1666 9.60574 12.649 9.99636 11.9361 10.6897L10.8228 11.7932C10.4615 12.1448 10.3346 12.4378 10.2955 12.9065L10.1783 14.635C10.149 15.0647 10.3834 15.3675 10.774 15.387C11.1842 15.4163 11.4185 15.1819 11.4576 14.7229L11.6236 12.8186L12.1607 12.3401C12.356 12.1643 12.6295 12.262 12.61 12.4866L12.4928 14.0784C12.4244 14.8889 12.6197 15.2796 13.1764 15.9729L14.651 17.8284C14.8072 18.0139 14.817 18.0823 14.8853 18.2093ZM18.9576 12.4671L17.2584 12.4671L16.1646 11.2561L16.0475 12.9846L16.5064 13.4534C16.7408 13.6878 16.9459 13.7561 17.3756 13.7561L18.9576 13.7561C19.3873 13.7561 19.6705 13.512 19.6705 13.1116C19.6705 12.721 19.3873 12.4671 18.9576 12.4671ZM14.7486 8.93191C15.5982 8.93191 16.2818 8.24831 16.2818 7.3987C16.2818 6.53933 15.5982 5.85574 14.7486 5.85574C13.8893 5.85574 13.1959 6.53933 13.1959 7.3987C13.1959 8.24831 13.8893 8.93191 14.7486 8.93191Z" fill="black" fill-opacity="0.85"/>
 </g>
</svg>
