<?xml version="1.0" encoding="UTF-8"?>
<!--Generator: Apple Native CoreSVG 326-->
<!DOCTYPE svg
PUBLIC "-//W3C//DTD SVG 1.1//EN"
       "http://www.w3.org/Graphics/SVG/1.1/DTD/svg11.dtd">
<svg version="1.1" xmlns="http://www.w3.org/2000/svg" xmlns:xlink="http://www.w3.org/1999/xlink" viewBox="0 0 25.8008 25.459">
 <g>
  <rect height="25.459" opacity="0" width="25.8008" x="0" y="0"/>
  <path d="M12.7148 25.4395C19.7363 25.4395 25.4395 19.7461 25.4395 12.7246C25.4395 5.70312 19.7363 0 12.7148 0C5.69336 0 0 5.70312 0 12.7246C0 19.7461 5.69336 25.4395 12.7148 25.4395ZM12.7148 23.623C6.68945 23.623 1.81641 18.75 1.81641 12.7246C1.81641 6.69922 6.68945 1.82617 12.7148 1.82617C18.7402 1.82617 23.6133 6.69922 23.6133 12.7246C23.6133 18.75 18.7402 23.623 12.7148 23.623Z" fill="black" fill-opacity="0.85"/>
  <path d="M14.5215 7.24609C15.3711 7.24609 16.0449 6.5625 16.0449 5.72266C16.0449 4.88281 15.3711 4.20898 14.5215 4.20898C13.6816 4.20898 13.0078 4.88281 13.0078 5.72266C13.0078 6.5625 13.6816 7.24609 14.5215 7.24609ZM7.55859 12.3047C7.97852 12.4902 8.36914 12.3047 8.53516 11.9824L9.81445 9.43359L11.3281 9.43359C11.4941 9.43359 11.5918 9.58984 11.5234 9.73633L10.1855 12.3926C9.6875 13.3691 10.293 14.5996 11.5918 14.5215L15.1758 14.2969L13.8574 17.2559C13.7012 17.6172 13.8477 18.0859 14.2188 18.2129C14.6289 18.3789 15 18.252 15.1758 17.8516L17.0312 13.7988C17.2363 13.3496 16.9531 12.7539 16.377 12.7539L13.125 12.7539L14.5703 9.86328C14.6289 9.73633 14.7656 9.7168 14.873 9.80469L16.582 11.4355C16.9238 11.7578 17.5391 11.709 17.7637 11.25L19.2285 8.29102C19.4141 7.91992 19.2969 7.48047 18.9062 7.30469C18.5352 7.12891 18.1152 7.27539 17.9199 7.64648L16.8945 9.66797L16.0645 8.83789C15.498 8.26172 14.9023 7.96875 13.9746 7.96875L9.35547 7.96875C9.07227 7.96875 8.83789 8.13477 8.70117 8.37891L7.22656 11.3281C7.05078 11.6992 7.17773 12.1191 7.55859 12.3047ZM6.24023 19.1504C6.46484 19.6191 6.96289 19.6191 7.20703 19.5312L10.2148 18.2324C10.3613 18.1641 10.4883 18.0469 10.5664 17.8809L11.9434 15.1172L11.6211 15.1367C11.0547 15.1758 10.5078 15.0098 10.1758 14.7168L9.33594 17.002L6.61133 18.1641C6.24023 18.3203 6.04492 18.7598 6.24023 19.1504ZM17.6953 20.127C18.5547 20.127 19.2285 19.4727 19.2285 18.6133C19.2285 17.7734 18.5547 17.0898 17.6953 17.0898C16.8652 17.0898 16.1914 17.7734 16.1914 18.6133C16.1914 19.4727 16.8652 20.127 17.6953 20.127Z" fill="black" fill-opacity="0.85"/>
 </g>
</svg>
