<?xml version="1.0" encoding="UTF-8"?>
<!--Generator: Apple Native CoreSVG 326-->
<!DOCTYPE svg
PUBLIC "-//W3C//DTD SVG 1.1//EN"
       "http://www.w3.org/Graphics/SVG/1.1/DTD/svg11.dtd">
<svg version="1.1" xmlns="http://www.w3.org/2000/svg" xmlns:xlink="http://www.w3.org/1999/xlink" viewBox="0 0 25.8008 25.459">
 <g>
  <rect height="25.459" opacity="0" width="25.8008" x="0" y="0"/>
  <path d="M12.7148 25.4395C19.7363 25.4395 25.4395 19.7461 25.4395 12.7246C25.4395 5.70312 19.7363 0 12.7148 0C5.69336 0 0 5.70312 0 12.7246C0 19.7461 5.69336 25.4395 12.7148 25.4395ZM12.7148 23.623C6.68945 23.623 1.81641 18.75 1.81641 12.7246C1.81641 6.69922 6.68945 1.82617 12.7148 1.82617C18.7402 1.82617 23.6133 6.69922 23.6133 12.7246C23.6133 18.75 18.7402 23.623 12.7148 23.623Z" fill="black" fill-opacity="0.85"/>
  <path d="M17.1289 11.0742C17.959 11.0742 18.6523 10.3906 18.6523 9.56055C18.6523 8.71094 17.959 8.03711 17.1289 8.03711C16.2891 8.03711 15.6055 8.71094 15.6055 9.56055C15.6055 10.3906 16.2891 11.0742 17.1289 11.0742ZM12.3242 16.6113L15.0391 16.6113L17.8809 13.7012C18.0176 13.5645 18.252 13.5742 18.3789 13.7012L19.5508 14.8828L18.3496 16.084C17.7246 16.709 18.6621 17.666 19.2969 17.0312L20.9668 15.3418C21.25 15.0586 21.2402 14.668 20.9668 14.3945L19.0137 12.4316C18.623 12.0508 18.125 11.8359 17.5977 11.8359L12.4707 11.8359L12.4707 13.1934L14.1699 13.1934C14.3066 13.1934 14.3652 13.3105 14.2676 13.3984L12.3242 15.3418ZM5.64453 16.6113L12.7539 16.6113L12.7539 4.0625C12.7539 3.50586 11.9336 3.26172 11.582 3.90625L5.11719 15.6348C4.84375 16.1328 5.13672 16.6113 5.64453 16.6113ZM6.03516 15.8301C5.94727 15.8301 5.94727 15.7812 5.97656 15.7227L11.8652 5.01953C11.9043 4.93164 11.9824 4.96094 11.9824 5.0293L11.9824 15.8301ZM5.39062 19.4336L5.41992 19.4336C7.32422 19.4336 7.76367 18.2715 9.07227 18.2715C10.3711 18.2715 10.8105 19.4336 12.7051 19.4336C14.5996 19.4336 15.0391 18.2715 16.3477 18.2715C17.6562 18.2715 18.0957 19.4336 19.9805 19.4336L20.0098 19.4336C20.2246 19.4336 20.4004 19.248 20.4004 19.043C20.4004 18.8379 20.2246 18.6523 20.0098 18.6523L19.9805 18.6523C18.623 18.6523 18.1445 17.4902 16.3477 17.4902C14.541 17.4902 14.0625 18.6523 12.7051 18.6523C11.3477 18.6523 10.8789 17.4902 9.07227 17.4902C7.25586 17.4902 6.78711 18.6523 5.41992 18.6523L5.39062 18.6523C5.18555 18.6523 5 18.8379 5 19.043C5 19.248 5.18555 19.4336 5.39062 19.4336Z" fill="black" fill-opacity="0.85"/>
 </g>
</svg>
