<?xml version="1.0" encoding="UTF-8"?>
<!--Generator: Apple Native CoreSVG 326-->
<!DOCTYPE svg
PUBLIC "-//W3C//DTD SVG 1.1//EN"
       "http://www.w3.org/Graphics/SVG/1.1/DTD/svg11.dtd">
<svg version="1.1" xmlns="http://www.w3.org/2000/svg" xmlns:xlink="http://www.w3.org/1999/xlink" viewBox="0 0 25.8008 25.459">
 <g>
  <rect height="25.459" opacity="0" width="25.8008" x="0" y="0"/>
  <path d="M12.7148 25.4395C19.7363 25.4395 25.4395 19.7461 25.4395 12.7246C25.4395 5.70312 19.7363 0 12.7148 0C5.69336 0 0 5.70312 0 12.7246C0 19.7461 5.69336 25.4395 12.7148 25.4395ZM12.7148 23.623C6.68945 23.623 1.81641 18.75 1.81641 12.7246C1.81641 6.69922 6.68945 1.82617 12.7148 1.82617C18.7402 1.82617 23.6133 6.69922 23.6133 12.7246C23.6133 18.75 18.7402 23.623 12.7148 23.623Z" fill="black" fill-opacity="0.85"/>
  <path d="M12.4805 16.582C12.8613 16.582 13.1738 16.2695 13.1738 15.8887L13.1738 12.3828C13.1738 12.2266 13.1152 12.0605 12.9785 11.9238L11.1523 9.89258C11.0449 9.76562 11.123 9.57031 11.2988 9.57031L13.5254 9.57031C13.7988 9.57031 13.8867 9.76562 13.8867 9.96094L13.8867 11.6895C13.8867 12.0605 14.209 12.3828 14.5801 12.3828L17.3926 12.3828C17.7734 12.3828 18.0762 12.0605 18.0762 11.6895C18.0762 11.3086 17.7734 10.9863 17.3926 10.9863L15.2832 10.9863L15.2832 8.53516C15.2832 7.75391 14.6582 7.12891 13.8867 7.12891L10.459 7.12891C9.75586 7.12891 9.13086 7.55859 8.85742 8.20312C8.58398 8.86719 8.73047 9.61914 9.22852 10.1172L11.7871 12.6855L11.7871 15.8887C11.7871 16.2695 12.0996 16.582 12.4805 16.582ZM7.89062 18.877C9.75586 18.877 11.2598 17.4121 11.2598 15.5371C11.2598 13.6719 9.75586 12.1875 7.89062 12.1875C6.03516 12.1875 4.55078 13.6719 4.55078 15.5371C4.55078 17.4121 6.03516 18.877 7.89062 18.877ZM7.89062 18.1055C6.47461 18.1055 5.33203 16.9629 5.33203 15.5371C5.33203 14.1113 6.47461 12.959 7.89062 12.959C9.31641 12.959 10.4785 14.1113 10.4785 15.5371C10.4785 16.9629 9.31641 18.1055 7.89062 18.1055ZM18.7695 13.6816C19.2871 14.1406 19.6289 14.8145 19.6289 15.5664C19.6289 17.002 18.4863 18.1445 17.0508 18.1445C15.6348 18.1445 14.4824 17.002 14.4824 15.5664C14.4824 15.2246 14.5508 14.873 14.6875 14.5508C14.8242 14.2676 14.6875 14.0527 14.502 13.9844C14.3164 13.9062 14.0918 13.9648 14.0039 14.209C13.8086 14.6387 13.7109 15.0977 13.7109 15.5664C13.7109 17.4414 15.1855 18.916 17.0508 18.916C18.9258 18.916 20.4102 17.4414 20.4102 15.5664C20.4102 14.5703 19.9609 13.6719 19.2578 13.0566C19.0527 12.8711 18.8184 12.9492 18.6816 13.0762C18.5547 13.2227 18.5254 13.4473 18.7695 13.6816ZM17.5098 9.01367C18.3496 9.01367 19.0234 8.32031 19.0234 7.48047C19.0234 6.64062 18.3496 5.95703 17.5098 5.95703C16.6699 5.95703 15.9961 6.64062 15.9961 7.48047C15.9961 8.32031 16.6699 9.01367 17.5098 9.01367Z" fill="black" fill-opacity="0.85"/>
 </g>
</svg>
