<?xml version="1.0" ?><!-- Generator: Adobe Illustrator 25.0.0, SVG Export Plug-In . SVG Version: 6.00 Build 0)  --><svg xmlns="http://www.w3.org/2000/svg" xmlns:xlink="http://www.w3.org/1999/xlink" version="1.1" id="Layer_1" x="0px" y="0px" viewBox="0 0 512 512" style="enable-background:new 0 0 512 512;" xml:space="preserve">
<path d="M236.9,512c13.6,0,23.4-8.9,23.4-24.9V323.4c0-6.9,3.2-10.8,8.9-10.8c5.4,0,8.9,3.9,8.9,10.8v163.7c0,16,10,24.9,23.4,24.9  c13.4,0,23.4-8.9,23.4-24.9v-275c0-5.4,2.6-8.7,7.1-8.7c4.1,0,6.9,3.2,6.9,8.7v113.5c0,14.5,8.7,23,20.8,23c12.6,0,20.8-8.4,20.8-23  V213.4c0-65.6-36.8-82.7-108.9-82.7H239c-13.9,0-21.2-2.2-32.5-10.2l-26.6-18.6l-5-79.7C174.1,7.2,164.5-0.6,152,0  c-12.6,0.6-21.2,10-20.4,24.5l5,78.4c1.3,17.1,7.6,27.3,18,34.9l49.2,35.5c7.4,5.2,9.7,12.1,9.7,20.4v293.4  C213.5,503.1,223.7,512,236.9,512z M271.5,109.8c28.2,0,50.7-23.4,50.7-50.7c0-28.2-22.5-50.9-50.7-50.9  c-28.2,0-50.7,22.7-50.7,50.9C220.8,87.1,243.4,109.8,271.5,109.8z"/>
</svg>