<?xml version="1.0" encoding="UTF-8"?>
<!--Generator: Apple Native CoreSVG 326-->
<!DOCTYPE svg
PUBLIC "-//W3C//DTD SVG 1.1//EN"
       "http://www.w3.org/Graphics/SVG/1.1/DTD/svg11.dtd">
<svg version="1.1" xmlns="http://www.w3.org/2000/svg" xmlns:xlink="http://www.w3.org/1999/xlink" viewBox="0 0 25.8008 25.459">
 <g>
  <rect height="25.459" opacity="0" width="25.8008" x="0" y="0"/>
  <path d="M25.4395 12.7246C25.4395 19.7266 19.7266 25.4395 12.7148 25.4395C5.71289 25.4395 0 19.7266 0 12.7246C0 5.71289 5.71289 0 12.7148 0C19.7266 0 25.4395 5.71289 25.4395 12.7246ZM12.6953 18.8184C11.3086 18.8184 10.8301 17.6465 8.97461 17.6465C7.11914 17.6465 6.64062 18.8184 5.23438 18.8184L5.20508 18.8184C4.99023 18.8184 4.80469 19.0137 4.80469 19.2285C4.80469 19.4336 4.99023 19.6289 5.20508 19.6289L5.23438 19.6289C7.1875 19.6289 7.62695 18.4375 8.97461 18.4375C10.293 18.4375 10.752 19.6289 12.6953 19.6289C14.6387 19.6289 15.0879 18.4375 16.4258 18.4375C17.7637 18.4375 18.2031 19.6289 20.1367 19.6289L20.1758 19.6289C20.3906 19.6289 20.5859 19.4336 20.5859 19.2285C20.5859 19.0137 20.3906 18.8184 20.1758 18.8184L20.1367 18.8184C18.75 18.8184 18.2715 17.6465 16.4258 17.6465C14.5703 17.6465 14.082 18.8184 12.6953 18.8184ZM11.543 3.71094L4.92188 15.7324C4.63867 16.2402 4.94141 16.7383 5.46875 16.7383L15.0879 16.7383L17.998 13.75C18.1348 13.6133 18.3789 13.623 18.5059 13.75L19.7168 14.9609L18.4766 16.1914C17.832 16.8457 18.7988 17.8125 19.4434 17.1777L21.1621 15.4492C21.4453 15.1465 21.4453 14.7461 21.1621 14.4629L19.1602 12.4512C18.7598 12.0605 18.2422 11.8457 17.7051 11.8457L12.7441 11.8457L12.7441 3.88672C12.7441 3.31055 11.9043 3.06641 11.543 3.71094ZM11.9531 4.88281L11.9531 15.9277L5.86914 15.9277C5.78125 15.9277 5.77148 15.8789 5.81055 15.8203L11.8359 4.87305C11.875 4.78516 11.9531 4.80469 11.9531 4.88281ZM14.2969 13.4473L12.7441 14.9902L12.7441 13.2324L14.1992 13.2324C14.3359 13.2324 14.3945 13.3496 14.2969 13.4473ZM15.6641 9.51172C15.6641 10.3613 16.3672 11.0645 17.2266 11.0645C18.0859 11.0645 18.7891 10.3613 18.7891 9.51172C18.7891 8.64258 18.0859 7.94922 17.2266 7.94922C16.3672 7.94922 15.6641 8.64258 15.6641 9.51172Z" fill="black" fill-opacity="0.85"/>
 </g>
</svg>
