<?xml version="1.0" encoding="UTF-8"?>
<!--Generator: Apple Native CoreSVG 326-->
<!DOCTYPE svg
PUBLIC "-//W3C//DTD SVG 1.1//EN"
       "http://www.w3.org/Graphics/SVG/1.1/DTD/svg11.dtd">
<svg version="1.1" xmlns="http://www.w3.org/2000/svg" xmlns:xlink="http://www.w3.org/1999/xlink" viewBox="0 0 32.2892 25.166">
 <g>
  <rect height="25.166" opacity="0" width="32.2892" x="0" y="0"/>
  <path d="M7.40924 6.73828C5.55377 6.73828 4.05963 5.19531 4.05963 3.39844C4.05963 1.52344 5.55377 0 7.40924 0C9.28424 0 10.7784 1.52344 10.7784 3.39844C10.7784 5.26367 9.28424 6.73828 7.40924 6.73828ZM27.3995 24.4727C26.7647 25.1465 25.6612 25.0879 24.8702 24.2773L19.5284 18.7598C19.3526 18.5742 19.2256 18.5254 18.9522 18.6328L14.7139 20.2441C12.0479 21.2598 9.54791 20.3223 8.34674 18.125L5.71978 13.3594C4.67486 11.4453 5.01666 9.49219 6.8233 8.53516C8.57135 7.56836 10.3878 8.29102 11.4522 10.2344L14.9288 16.582L17.8878 15.5078C19.3526 14.9707 20.5733 15.1367 21.7452 16.3477L27.292 22.0898C28.0635 22.8809 27.9854 23.877 27.3995 24.4727Z" fill="black" fill-opacity="0.85"/>
  <path d="M26.3253 4.90234C26.3253 4.47266 25.9737 4.12109 25.5147 4.12109L20.5538 4.12109L20.5538 2.11914C20.5538 1.30859 19.7237 1.01562 19.167 1.52344L15.9737 4.30664C15.5635 4.66797 15.5635 5.15625 15.9737 5.52734L19.167 8.31055C19.7432 8.83789 20.5538 8.48633 20.5538 7.71484L20.5538 5.71289L25.5147 5.71289C25.9737 5.71289 26.3253 5.36133 26.3253 4.90234ZM28.6495 6.26953C28.21 6.26953 27.8585 6.62109 27.8585 7.07031L27.8585 12.0312L25.8467 12.0312C25.0655 12.0312 24.7237 12.832 25.251 13.418L28.0245 16.6211C28.376 17.0215 28.8838 17.041 29.2452 16.6211L32.0381 13.418C32.546 12.8613 32.253 12.0508 31.4327 12.041L29.4405 12.0312L29.4405 7.07031C29.4405 6.62109 29.0792 6.26953 28.6495 6.26953Z" fill="black" fill-opacity="0.85"/>
 </g>
</svg>
