<?xml version="1.0" encoding="UTF-8"?>
<!--Generator: Apple Native CoreSVG 326-->
<!DOCTYPE svg
PUBLIC "-//W3C//DTD SVG 1.1//EN"
       "http://www.w3.org/Graphics/SVG/1.1/DTD/svg11.dtd">
<svg version="1.1" xmlns="http://www.w3.org/2000/svg" xmlns:xlink="http://www.w3.org/1999/xlink" viewBox="0 0 25.8008 25.459">
 <g>
  <rect height="25.459" opacity="0" width="25.8008" x="0" y="0"/>
  <path d="M12.7148 25.4395C19.7363 25.4395 25.4395 19.7461 25.4395 12.7246C25.4395 5.70312 19.7363 0 12.7148 0C5.69336 0 0 5.70312 0 12.7246C0 19.7461 5.69336 25.4395 12.7148 25.4395ZM12.7148 23.623C6.68945 23.623 1.81641 18.75 1.81641 12.7246C1.81641 6.69922 6.68945 1.82617 12.7148 1.82617C18.7402 1.82617 23.6133 6.69922 23.6133 12.7246C23.6133 18.75 18.7402 23.623 12.7148 23.623Z" fill="black" fill-opacity="0.85"/>
  <path d="M15.3613 7.20703C16.2109 7.20703 16.8848 6.52344 16.8848 5.68359C16.8848 4.85352 16.2109 4.16016 15.3613 4.16016C14.5312 4.16016 13.8574 4.85352 13.8574 5.68359C13.8574 6.52344 14.5312 7.20703 15.3613 7.20703ZM10.5469 12.7344L13.1445 15.332L13.1445 19.2578L14.5703 19.2578L14.5703 15.1172C14.5703 14.9219 14.5117 14.7266 14.375 14.541L12.627 12.3242L14.1211 10.0488C14.2188 9.89258 14.4238 9.89258 14.502 10.0684L15.0098 11.0547C15.1172 11.2891 15.3613 11.4453 15.6348 11.4453L18.4961 11.4453C18.8965 11.4453 19.209 11.1426 19.209 10.7422C19.209 10.3418 18.8965 10.0195 18.4961 10.0195L16.084 10.0195L15.3223 8.50586C15.0293 7.91016 14.4141 7.5293 13.7305 7.5293L9.92188 7.5293C9.69727 7.5293 9.45312 7.63672 9.32617 7.85156L7.90039 9.99023C7.69531 10.3125 7.76367 10.7617 8.10547 10.9668C8.41797 11.1914 8.87695 11.0938 9.0918 10.7715L10.3027 8.94531L11.4746 8.94531C11.5723 8.94531 11.6211 9.0332 11.5723 9.12109L10.3613 10.9375C10 11.4844 10.0684 12.2461 10.5469 12.7344ZM6.24023 13.7793L9.04297 16.2305C9.48242 16.6211 9.98047 16.416 10.2051 16.0742L11.3184 14.3262L10.1367 13.1348C10.1074 13.1055 10.1074 13.1055 10.0879 13.0859L9.33594 14.5996L7.17773 12.6953C6.875 12.4512 6.42578 12.4609 6.17188 12.7637C5.91797 13.0664 5.9375 13.5156 6.24023 13.7793ZM9.78516 19.7852L14.6777 19.7852C15.459 19.7852 16.0938 19.6387 16.6016 19.209C16.7969 19.0234 16.7871 18.7988 16.6699 18.6426C16.5527 18.4863 16.3086 18.4277 16.0938 18.5938C15.7129 18.8867 15.3418 19.0137 14.6777 19.0137L9.78516 19.0137C9.13086 19.0137 8.75977 18.8867 8.37891 18.5938C8.17383 18.4473 7.93945 18.4863 7.8125 18.6426C7.69531 18.7891 7.66602 19.0234 7.87109 19.209C8.36914 19.6387 9.00391 19.7852 9.78516 19.7852ZM9.78516 21.377C10.1074 21.377 10.3809 21.1035 10.3809 20.7812C10.3809 20.459 10.1074 20.1855 9.78516 20.1855C9.45312 20.1855 9.18945 20.459 9.18945 20.7812C9.18945 21.1035 9.45312 21.377 9.78516 21.377ZM14.6777 21.377C15.0098 21.377 15.2832 21.1035 15.2832 20.7812C15.2832 20.459 15.0098 20.1855 14.6777 20.1855C14.3652 20.1855 14.0918 20.459 14.0918 20.7812C14.0918 21.1035 14.3652 21.377 14.6777 21.377Z" fill="black" fill-opacity="0.85"/>
 </g>
</svg>
