<?xml version="1.0" encoding="UTF-8"?>
<!--Generator: Apple Native CoreSVG 326-->
<!DOCTYPE svg
PUBLIC "-//W3C//DTD SVG 1.1//EN"
       "http://www.w3.org/Graphics/SVG/1.1/DTD/svg11.dtd">
<svg version="1.1" xmlns="http://www.w3.org/2000/svg" xmlns:xlink="http://www.w3.org/1999/xlink" viewBox="0 0 25.8008 25.459">
 <g>
  <rect height="25.459" opacity="0" width="25.8008" x="0" y="0"/>
  <path d="M25.4395 12.7246C25.4395 19.7266 19.7266 25.4395 12.7148 25.4395C5.71289 25.4395 0 19.7266 0 12.7246C0 5.71289 5.71289 0 12.7148 0C19.7266 0 25.4395 5.71289 25.4395 12.7246ZM11.2988 10.0195C10.8105 10.0195 10.3711 10.2441 10.0684 10.6152L8.27148 12.8027L6.51367 11.0449C6.20117 10.7227 5.69336 10.7227 5.38086 11.0449C5.05859 11.3574 5.06836 11.8457 5.38086 12.168L7.77344 14.5605C8.10547 14.8828 8.63281 14.8828 8.95508 14.4922L10.459 12.6465C10.5566 12.5391 10.7129 12.5879 10.7129 12.7344L10.7129 15.8984L8.02734 15.5859C7.09961 15.4883 6.79688 16.8457 7.68555 17.1289L10.7422 18.1445C10.5957 18.7793 11.1426 19.3262 11.7676 19.1309L12.7148 18.8086L13.6523 19.1309C14.2773 19.3262 14.8242 18.7793 14.6777 18.1445L17.7344 17.1289C18.623 16.8457 18.3301 15.4883 17.3926 15.5859L14.707 15.8984L14.707 12.7344C14.707 12.5879 14.8633 12.5391 14.9512 12.6465L16.4648 14.4922C16.7871 14.8828 17.3242 14.8828 17.6465 14.5605L20.0293 12.168C20.3516 11.8457 20.3613 11.3574 20.0293 11.0449C19.7266 10.7227 19.2188 10.7227 18.9062 11.0449L17.1484 12.8027L15.3418 10.6152C15.0586 10.2441 14.6094 10.0195 14.1211 10.0195ZM11.1426 7.66602C11.1426 8.53516 11.8457 9.23828 12.7148 9.23828C13.5645 9.23828 14.2676 8.53516 14.2676 7.66602C14.2676 6.81641 13.5645 6.11328 12.7148 6.11328C11.8457 6.11328 11.1426 6.81641 11.1426 7.66602Z" fill="black" fill-opacity="0.85"/>
 </g>
</svg>
