<?xml version="1.0" encoding="UTF-8"?>
<!--Generator: Apple Native CoreSVG 326-->
<!DOCTYPE svg
PUBLIC "-//W3C//DTD SVG 1.1//EN"
       "http://www.w3.org/Graphics/SVG/1.1/DTD/svg11.dtd">
<svg version="1.1" xmlns="http://www.w3.org/2000/svg" xmlns:xlink="http://www.w3.org/1999/xlink" viewBox="0 0 25.8008 25.459">
 <g>
  <rect height="25.459" opacity="0" width="25.8008" x="0" y="0"/>
  <path d="M25.4395 12.7246C25.4395 19.7266 19.7266 25.4395 12.7148 25.4395C5.71289 25.4395 0 19.7266 0 12.7246C0 5.71289 5.71289 0 12.7148 0C19.7266 0 25.4395 5.71289 25.4395 12.7246ZM17.168 10.2539C16.5332 10.2539 15.9277 10.4492 15.4297 10.8301L13.3691 12.373L10.332 11.7676C9.69727 11.6309 9.19922 11.9141 9.19922 12.5879L9.19922 14.2871L4.66797 15.4297C4.18945 15.5566 4.01367 15.918 4.0625 16.2598C4.12109 16.6211 4.47266 16.9629 5 16.8359L9.19922 15.7812L9.19922 16.7676C9.19922 17.168 9.52148 17.4805 9.92188 17.4805C10.3223 17.4805 10.6445 17.168 10.6445 16.7676L10.6445 15.5176L13.7012 15.0586C14.248 14.9707 14.7949 14.7363 15.2637 14.3848L17.8906 12.4121C17.9883 12.3438 18.1348 12.3535 18.1836 12.4707L18.9551 14.043L18.9551 16.7676C18.9551 17.1973 19.2773 17.4805 19.6973 17.4805C20.127 17.4805 20.4102 17.1973 20.4102 16.7676L20.4102 13.877C20.4102 13.75 20.3906 13.6426 20.3418 13.5449L19.1016 11.0547C18.8477 10.5566 18.3594 10.2539 17.8125 10.2539ZM14.0918 15.3027C13.4863 15.3027 12.998 15.791 12.998 16.3965C12.998 17.002 13.4863 17.4805 14.0918 17.4805L16.9824 17.4805C17.5684 17.4805 18.0566 17.002 18.0566 16.3965C18.0566 15.791 17.5684 15.3027 16.9824 15.3027ZM17.4805 16.3965C17.4805 16.6699 17.2461 16.9043 16.9727 16.9043C16.6895 16.9043 16.4551 16.6699 16.4551 16.3965C16.4551 16.1133 16.6895 15.8887 16.9727 15.8887C17.2461 15.8887 17.4805 16.1133 17.4805 16.3965ZM11.6406 13.6914L10.6445 13.9355L10.6445 13.3887ZM15.9668 7.93945C15.9668 8.81836 16.6602 9.51172 17.5293 9.51172C18.3887 9.51172 19.0918 8.81836 19.0918 7.93945C19.0918 7.08984 18.3887 6.40625 17.5293 6.40625C16.6602 6.40625 15.9668 7.08984 15.9668 7.93945Z" fill="black" fill-opacity="0.85"/>
 </g>
</svg>
