<?xml version="1.0" encoding="UTF-8"?>
<!--Generator: Apple Native CoreSVG 326-->
<!DOCTYPE svg
PUBLIC "-//W3C//DTD SVG 1.1//EN"
       "http://www.w3.org/Graphics/SVG/1.1/DTD/svg11.dtd">
<svg version="1.1" xmlns="http://www.w3.org/2000/svg" xmlns:xlink="http://www.w3.org/1999/xlink" viewBox="0 0 25.8008 25.459">
 <g>
  <rect height="25.459" opacity="0" width="25.8008" x="0" y="0"/>
  <path d="M12.7148 25.4395C19.7363 25.4395 25.4395 19.7461 25.4395 12.7246C25.4395 5.70312 19.7363 0 12.7148 0C5.69336 0 0 5.70312 0 12.7246C0 19.7461 5.69336 25.4395 12.7148 25.4395ZM12.7148 23.623C6.68945 23.623 1.81641 18.75 1.81641 12.7246C1.81641 6.69922 6.68945 1.82617 12.7148 1.82617C18.7402 1.82617 23.6133 6.69922 23.6133 12.7246C23.6133 18.75 18.7402 23.623 12.7148 23.623Z" fill="black" fill-opacity="0.85"/>
  <path d="M12.7051 10C13.5352 10 14.209 9.32617 14.209 8.48633C14.209 7.63672 13.5352 6.96289 12.7051 6.96289C11.8457 6.96289 11.1719 7.63672 11.1719 8.48633C11.1719 9.32617 11.8457 10 12.7051 10ZM5.41016 9.08203L10.332 11.7383C10.5078 11.8262 10.5957 11.9922 10.5566 12.1875L10.0391 14.0527C11.4062 14.2969 11.7578 15.1074 12.7051 15.1074C12.9883 15.1074 13.2129 15.0195 13.4277 14.9121L14.1211 12.373C14.1797 12.1289 14.2578 11.9824 14.5215 11.8555L19.6777 9.08203C20.0684 8.87695 20.2148 8.39844 20.0195 8.02734C19.7949 7.63672 19.3262 7.48047 18.9453 7.69531L13.8086 10.4199C12.9785 10.8594 12.1973 10.918 11.1914 10.3809L6.14258 7.69531C5.76172 7.48047 5.27344 7.63672 5.08789 8.02734C4.87305 8.39844 5.01953 8.87695 5.41016 9.08203ZM12.7051 16.8652C14.5996 16.8652 15.0293 15.6934 16.3477 15.6934C17.6562 15.6934 18.0859 16.8652 19.9805 16.8652L20.4492 16.8652C20.6641 16.8652 20.8398 16.6895 20.8398 16.4746C20.8398 16.2695 20.6641 16.084 20.4492 16.084L19.9805 16.084C18.6328 16.084 18.1641 14.9121 16.3477 14.9121C14.541 14.9121 14.0625 16.084 12.7051 16.084C11.3477 16.084 10.8691 14.9121 9.07227 14.9121C7.25586 14.9121 6.78711 16.084 5.43945 16.084L4.99023 16.084C4.78516 16.084 4.60938 16.2695 4.60938 16.4746C4.60938 16.6895 4.78516 16.8652 4.99023 16.8652L5.43945 16.8652C7.32422 16.8652 7.76367 15.6934 9.07227 15.6934C10.3809 15.6934 10.8203 16.8652 12.7051 16.8652ZM5.0293 18.418C5.27344 18.418 5.45898 18.2324 5.45898 17.9883C5.45898 17.7441 5.27344 17.5586 5.0293 17.5586C4.78516 17.5586 4.60938 17.7441 4.60938 17.9883C4.60938 18.2324 4.78516 18.418 5.0293 18.418ZM6.25977 18.418C6.50391 18.418 6.68945 18.2324 6.68945 17.9883C6.68945 17.7441 6.50391 17.5586 6.25977 17.5586C6.01562 17.5586 5.83008 17.7441 5.83008 17.9883C5.83008 18.2324 6.01562 18.418 6.25977 18.418ZM7.50977 18.0078C7.75391 18.0078 7.92969 17.8223 7.92969 17.5781C7.92969 17.3438 7.75391 17.1582 7.50977 17.1582C7.26562 17.1582 7.08008 17.3438 7.08008 17.5781C7.08008 17.8223 7.26562 18.0078 7.50977 18.0078ZM8.82812 17.6953C9.07227 17.6953 9.25781 17.5098 9.25781 17.2656C9.25781 17.0215 9.07227 16.8359 8.82812 16.8359C8.58398 16.8359 8.39844 17.0215 8.39844 17.2656C8.39844 17.5098 8.58398 17.6953 8.82812 17.6953ZM10.1465 18.0078C10.3906 18.0078 10.5762 17.8223 10.5762 17.5781C10.5762 17.3438 10.3906 17.1582 10.1465 17.1582C9.91211 17.1582 9.72656 17.3438 9.72656 17.5781C9.72656 17.8223 9.91211 18.0078 10.1465 18.0078ZM11.3965 18.5742C11.6406 18.5742 11.8164 18.3887 11.8164 18.1543C11.8164 17.9102 11.6406 17.7246 11.3965 17.7246C11.1523 17.7246 10.9668 17.9102 10.9668 18.1543C10.9668 18.3887 11.1523 18.5742 11.3965 18.5742ZM12.7051 18.8086C12.9492 18.8086 13.1348 18.6328 13.1348 18.3887C13.1348 18.1445 12.9492 17.959 12.7051 17.959C12.4609 17.959 12.2754 18.1445 12.2754 18.3887C12.2754 18.6328 12.4609 18.8086 12.7051 18.8086ZM14.0332 18.5742C14.2773 18.5742 14.4629 18.3887 14.4629 18.1543C14.4629 17.9102 14.2773 17.7246 14.0332 17.7246C13.7891 17.7246 13.6133 17.9102 13.6133 18.1543C13.6133 18.3887 13.7891 18.5742 14.0332 18.5742ZM15.2832 18.0078C15.5176 18.0078 15.7031 17.8223 15.7031 17.5781C15.7031 17.3438 15.5176 17.1582 15.2832 17.1582C15.0391 17.1582 14.8535 17.3438 14.8535 17.5781C14.8535 17.8223 15.0391 18.0078 15.2832 18.0078ZM16.6113 17.6953C16.8555 17.6953 17.041 17.5098 17.041 17.2656C17.041 17.0215 16.8555 16.8359 16.6113 16.8359C16.3672 16.8359 16.1816 17.0215 16.1816 17.2656C16.1816 17.5098 16.3672 17.6953 16.6113 17.6953ZM17.9297 18.0078C18.1738 18.0078 18.3594 17.8223 18.3594 17.5781C18.3594 17.3438 18.1738 17.1582 17.9297 17.1582C17.6855 17.1582 17.5098 17.3438 17.5098 17.5781C17.5098 17.8223 17.6855 18.0078 17.9297 18.0078ZM19.1699 18.418C19.4141 18.418 19.5996 18.2324 19.5996 17.9883C19.5996 17.7441 19.4141 17.5586 19.1699 17.5586C18.9258 17.5586 18.7402 17.7441 18.7402 17.9883C18.7402 18.2324 18.9258 18.418 19.1699 18.418ZM20.4199 18.418C20.6543 18.418 20.8398 18.2324 20.8398 17.9883C20.8398 17.7441 20.6543 17.5586 20.4199 17.5586C20.1758 17.5586 19.9902 17.7441 19.9902 17.9883C19.9902 18.2324 20.1758 18.418 20.4199 18.418Z" fill="black" fill-opacity="0.85"/>
 </g>
</svg>
