<?xml version="1.0" encoding="UTF-8"?>
<!--Generator: Apple Native CoreSVG 326-->
<!DOCTYPE svg
PUBLIC "-//W3C//DTD SVG 1.1//EN"
       "http://www.w3.org/Graphics/SVG/1.1/DTD/svg11.dtd">
<svg version="1.1" xmlns="http://www.w3.org/2000/svg" xmlns:xlink="http://www.w3.org/1999/xlink" viewBox="0 0 19.0066 29.1113">
 <g>
  <rect height="29.1113" opacity="0" width="19.0066" x="0" y="0"/>
  <path d="M7.76015 5.38086C9.24452 5.38086 10.4555 4.16992 10.4555 2.69531C10.4555 1.21094 9.24452 0 7.76015 0C6.27577 0 5.06484 1.21094 5.06484 2.69531C5.06484 4.16992 6.27577 5.38086 7.76015 5.38086ZM0.601945 11.7871C-0.853133 13.8086 0.435929 16.5625 3.32655 16.1328L7.86757 15.4492L6.09023 20.7324C5.50429 22.4609 7.92616 23.1934 8.46327 21.5527L10.8363 14.3945C11.1195 13.5352 10.5922 12.6953 9.58632 12.6953L5.1039 12.6953L7.44765 9.56055C7.68202 9.23828 7.83827 9.20898 8.15077 9.20898L17.4086 9.20898C18.0922 9.20898 18.6488 8.66211 18.6488 7.96875C18.6488 7.28516 18.1019 6.72852 17.4086 6.72852L5.63124 6.72852C4.7621 6.72852 3.92226 7.17773 3.38515 7.91992ZM1.6957 28.2129C1.6957 28.7402 2.06679 29.0918 2.61366 29.0918L12.0082 29.0918C12.5648 29.0918 12.9262 28.7402 12.9262 28.2129L12.9262 24.375C12.9262 23.8379 12.5648 23.4863 12.0082 23.4863L2.61366 23.4863C2.06679 23.4863 1.6957 23.8379 1.6957 24.375Z" fill="black" fill-opacity="0.85"/>
 </g>
</svg>
