<?xml version="1.0" encoding="UTF-8"?>
<!--Generator: Apple Native CoreSVG 326-->
<!DOCTYPE svg
PUBLIC "-//W3C//DTD SVG 1.1//EN"
       "http://www.w3.org/Graphics/SVG/1.1/DTD/svg11.dtd">
<svg version="1.1" xmlns="http://www.w3.org/2000/svg" xmlns:xlink="http://www.w3.org/1999/xlink" viewBox="0 0 25.8008 25.459">
 <g>
  <rect height="25.459" opacity="0" width="25.8008" x="0" y="0"/>
  <path d="M25.4395 12.7246C25.4395 19.7266 19.7266 25.4395 12.7148 25.4395C5.71289 25.4395 0 19.7266 0 12.7246C0 5.71289 5.71289 0 12.7148 0C19.7266 0 25.4395 5.71289 25.4395 12.7246ZM8.28125 17.0898L6.36719 19.3164C6.11328 19.6191 6.15234 20.0977 6.44531 20.3613C6.80664 20.6348 7.25586 20.5371 7.49023 20.2734L9.56055 17.8418C9.67773 17.6855 9.7168 17.5293 9.73633 17.3828L10.1465 14.8828L9.3457 14.834C8.94531 14.8242 8.59375 14.7266 8.28125 14.5605ZM5.6543 6.15234C5.26367 6.15234 4.94141 6.48438 4.94141 6.875C4.94141 7.27539 5.26367 7.60742 5.6543 7.60742L8.38867 7.60742L9.56055 8.37891C9.72656 8.48633 9.77539 8.70117 9.6582 8.88672L7.96875 11.416C7.1875 12.5879 7.87109 14.1602 9.375 14.248L12.7539 14.4141L10.9961 16.1816C10.7129 16.4551 10.7129 16.9141 10.9961 17.207C11.2793 17.4902 11.7285 17.4902 12.0215 17.207L14.9609 14.2578C15.3613 13.8574 15.0879 13.125 14.4824 13.0566L11.1914 12.6953C10.9082 12.6562 10.8789 12.5 10.9961 12.3242L12.168 10.5566C12.2754 10.3809 12.5098 10.3418 12.666 10.459L14.7461 11.8262C14.8633 11.9043 14.9902 11.9629 15.1367 11.9629L18.0957 11.9629C18.4766 11.9629 18.7988 11.6406 18.7988 11.25C18.7988 10.8398 18.4766 10.5078 18.0957 10.5078L15.3613 10.5078L9.00391 6.26953C8.88672 6.19141 8.75977 6.15234 8.61328 6.15234ZM18.0957 9.23828C18.0957 9.72656 18.9062 10.1367 19.9023 10.1367C20.8887 10.1367 21.709 9.72656 21.709 9.23828C21.709 8.73047 20.8887 8.32031 19.9023 8.32031C18.9062 8.32031 18.0957 8.73047 18.0957 9.23828ZM11.7188 6.33789C11.7188 7.19727 12.4219 7.90039 13.2812 7.90039C14.1406 7.90039 14.834 7.19727 14.834 6.33789C14.834 5.48828 14.1406 4.78516 13.2812 4.78516C12.4219 4.78516 11.7188 5.48828 11.7188 6.33789Z" fill="black" fill-opacity="0.85"/>
 </g>
</svg>
