<?xml version="1.0" encoding="UTF-8"?>
<!--Generator: Apple Native CoreSVG 326-->
<!DOCTYPE svg
PUBLIC "-//W3C//DTD SVG 1.1//EN"
       "http://www.w3.org/Graphics/SVG/1.1/DTD/svg11.dtd">
<svg version="1.1" xmlns="http://www.w3.org/2000/svg" xmlns:xlink="http://www.w3.org/1999/xlink" viewBox="0 0 39.6474 25.7324">
 <g>
  <rect height="25.7324" opacity="0" width="39.6474" x="0" y="0"/>
  <path d="M6.58149 7.02148C4.72603 7.02148 3.23188 5.47852 3.23188 3.68164C3.23188 1.80664 4.72603 0.283203 6.58149 0.283203C8.45649 0.283203 9.95063 1.80664 9.95063 3.68164C9.95063 5.54688 8.45649 7.02148 6.58149 7.02148ZM26.5717 24.7559C25.937 25.4297 24.8334 25.3711 24.0424 24.5605L18.7006 19.043C18.5249 18.8574 18.3979 18.8086 18.1245 18.916L13.8862 20.5273C11.2202 21.543 8.72017 20.6055 7.51899 18.4082L4.89204 13.6426C3.84712 11.7285 4.18892 9.77539 5.99556 8.81836C7.7436 7.85156 9.56001 8.57422 10.6245 10.5176L14.101 16.8652L17.06 15.791C18.5249 15.2539 19.7456 15.4199 20.9174 16.6309L26.4643 22.373C27.2358 23.1641 27.1577 24.1602 26.5717 24.7559Z" fill="black" fill-opacity="0.85"/>
  <path d="M25.7319 4.08203L29.1108 8.41797C29.267 8.60352 29.4917 8.65234 29.7065 8.53516C30.4975 8.11523 31.6596 7.82227 32.5776 7.82227C33.5151 7.82227 34.687 8.11523 35.4584 8.53516C35.6831 8.65234 35.9272 8.60352 36.0639 8.41797L39.4526 4.08203C39.7553 3.68164 39.6967 3.28125 39.3354 2.99805C37.9292 1.93359 35.2924 1.12305 32.5776 1.12305C29.9018 1.12305 27.2553 1.93359 25.8588 2.99805C25.478 3.28125 25.4389 3.69141 25.7319 4.08203ZM29.2866 11.0059C28.9155 10.5078 28.7592 10.0391 28.7592 9.52148C28.7592 8.38867 29.7065 8.03711 29.7065 7.36328C29.7065 6.67969 28.7592 6.35742 28.7592 5.18555C28.7592 4.67773 28.9155 4.20898 29.2963 3.71094C29.7065 3.22266 30.4389 3.74023 30.0483 4.26758C29.7651 4.64844 29.6772 4.87305 29.6772 5.18555C29.6772 6.03516 30.6245 6.28906 30.6245 7.36328C30.6245 8.44727 29.6772 8.71094 29.6772 9.52148C29.6772 9.86328 29.7651 10.0684 30.0385 10.4492C30.4194 10.9668 29.6967 11.4844 29.2866 11.0059ZM32.1967 11.0059C31.8354 10.5078 31.6694 10.0391 31.6694 9.52148C31.6694 8.38867 32.6069 8.03711 32.6069 7.36328C32.6069 6.67969 31.6694 6.35742 31.6694 5.18555C31.6694 4.67773 31.8256 4.20898 32.1967 3.71094C32.6069 3.22266 33.3491 3.74023 32.9584 4.26758C32.6752 4.64844 32.5971 4.87305 32.5971 5.18555C32.5971 6.03516 33.5346 6.28906 33.5346 7.36328C33.5346 8.44727 32.5971 8.71094 32.5971 9.52148C32.5971 9.86328 32.6752 10.0684 32.9487 10.4492C33.3295 10.9668 32.5971 11.4844 32.1967 11.0059ZM35.1264 11.0059C34.7456 10.5078 34.5795 10.0391 34.5795 9.52148C34.5795 8.38867 35.5366 8.03711 35.5366 7.36328C35.5366 6.67969 34.5795 6.35742 34.5795 5.18555C34.5795 4.67773 34.7358 4.20898 35.1362 3.71094C35.5366 3.22266 36.269 3.74023 35.8686 4.26758C35.5952 4.64844 35.5073 4.87305 35.5073 5.18555C35.5073 6.03516 36.4545 6.28906 36.4545 7.36328C36.4545 8.44727 35.5073 8.71094 35.5073 9.52148C35.5073 9.86328 35.5952 10.0684 35.8686 10.4492C36.2495 10.9668 35.5268 11.4844 35.1264 11.0059ZM19.2573 0C18.7983 0 18.4467 0.351562 18.4467 0.800781L18.4467 5.97656L16.2788 5.97656C15.4877 5.97656 15.1264 6.80664 15.6635 7.40234L18.603 10.791C18.9838 11.2207 19.5014 11.2207 19.8725 10.791L22.812 7.40234C23.3295 6.82617 23.0366 5.97656 22.1967 5.97656L20.0385 5.97656L20.0385 0.800781C20.0385 0.351562 19.687 0 19.2573 0Z" fill="black" fill-opacity="0.85"/>
 </g>
</svg>
