<?xml version="1.0" encoding="UTF-8"?>
<!--Generator: Apple Native CoreSVG 326-->
<!DOCTYPE svg
PUBLIC "-//W3C//DTD SVG 1.1//EN"
       "http://www.w3.org/Graphics/SVG/1.1/DTD/svg11.dtd">
<svg version="1.1" xmlns="http://www.w3.org/2000/svg" xmlns:xlink="http://www.w3.org/1999/xlink" viewBox="0 0 25.8008 25.459">
 <g>
  <rect height="25.459" opacity="0" width="25.8008" x="0" y="0"/>
  <path d="M12.7148 25.4395C19.7363 25.4395 25.4395 19.7461 25.4395 12.7246C25.4395 5.70312 19.7363 0 12.7148 0C5.69336 0 0 5.70312 0 12.7246C0 19.7461 5.69336 25.4395 12.7148 25.4395ZM12.7148 23.623C6.68945 23.623 1.81641 18.75 1.81641 12.7246C1.81641 6.69922 6.68945 1.82617 12.7148 1.82617C18.7402 1.82617 23.6133 6.69922 23.6133 12.7246C23.6133 18.75 18.7402 23.623 12.7148 23.623Z" fill="black" fill-opacity="0.85"/>
  <path d="M13.6621 7.35352C14.5117 7.35352 15.1855 6.67969 15.1855 5.83008C15.1855 4.99023 14.5117 4.31641 13.6621 4.31641C12.832 4.31641 12.1484 4.99023 12.1484 5.83008C12.1484 6.67969 12.832 7.35352 13.6621 7.35352ZM12.4219 14.4531L12.4219 17.2754C12.4219 17.5586 12.5879 17.7051 12.8809 17.7051L14.7949 17.7051C15.3027 17.7051 15.3027 17.0117 14.8926 16.875L13.8281 16.5332L13.8281 13.7988C13.8281 13.5059 13.6328 13.2617 13.3594 13.125L11.416 12.2461L12.5488 10.0098C12.6074 9.89258 12.7344 9.84375 12.8516 9.92188L14.7559 11.1621L14.7559 13.7988C14.7559 14.1895 15.0586 14.4922 15.4492 14.4922C15.8398 14.4922 16.1426 14.1895 16.1426 13.7988L16.1426 10.7422C16.1426 10.4785 16.0742 10.3516 15.8301 10.1758L12.8223 7.91016C12.168 7.42188 11.377 7.30469 10.6152 7.61719L8.39844 8.52539C7.73438 8.79883 7.8418 9.52148 8.37891 9.81445L9.21875 10.2539L8.75 11.1816C8.13477 12.4121 8.60352 13.4961 9.88281 13.8184ZM12.5977 18.7695L15.3418 18.7695C15.5078 18.7695 15.6348 18.6328 15.6348 18.4766C15.6348 18.3203 15.5176 18.1836 15.3418 18.1836L12.5977 18.1836C12.4316 18.1836 12.3047 18.3203 12.3047 18.4766C12.3047 18.6328 12.4414 18.7695 12.5977 18.7695ZM8.73047 13.9453L8.37891 15L5.98633 15C5.70312 15 5.55664 15.166 5.55664 15.4492L5.55664 17.373C5.55664 17.8711 6.25977 17.8809 6.38672 17.4609L6.71875 16.4062L8.91602 16.4062C9.19922 16.4062 9.41406 16.2305 9.53125 16.0254L10.2734 14.5508L9.73633 14.4141C9.3457 14.3066 8.99414 14.1406 8.73047 13.9453ZM4.49219 15.1758L4.49219 17.9199C4.49219 18.0859 4.62891 18.2227 4.78516 18.2227C4.94141 18.2227 5.07812 18.0957 5.07812 17.9199L5.07812 15.1758C5.07812 15.0195 4.94141 14.8828 4.78516 14.8828C4.61914 14.8828 4.49219 15.0195 4.49219 15.1758ZM18.916 17.3828L20.957 17.3828C21.1426 17.3828 21.3184 17.2168 21.3184 17.0312L21.3184 16.6797C21.3184 16.4844 21.1426 16.3184 20.957 16.3184L18.6426 16.3184L11.4551 9.7168L10.8203 10.0684L18.5254 17.2266C18.6621 17.3633 18.7598 17.3828 18.916 17.3828ZM16.8457 19.2969C16.8457 19.6094 17.334 19.834 17.9688 19.834C18.5938 19.834 19.1016 19.6094 19.1016 19.2969L19.1016 18.7109C19.1016 18.418 18.5938 18.1934 17.9688 18.1934C17.334 18.1934 16.8457 18.418 16.8457 18.7109Z" fill="black" fill-opacity="0.85"/>
 </g>
</svg>
