<?xml version="1.0" encoding="UTF-8"?>
<!--Generator: Apple Native CoreSVG 326-->
<!DOCTYPE svg
PUBLIC "-//W3C//DTD SVG 1.1//EN"
       "http://www.w3.org/Graphics/SVG/1.1/DTD/svg11.dtd">
<svg version="1.1" xmlns="http://www.w3.org/2000/svg" xmlns:xlink="http://www.w3.org/1999/xlink" viewBox="0 0 24.9756 28.5059">
 <g>
  <rect height="28.5059" opacity="0" width="24.9756" x="0" y="0"/>
  <path d="M16.0913 5.41016C17.5854 5.41016 18.7964 4.19922 18.7964 2.70508C18.7964 1.20117 17.5854 0 16.0913 0C14.5972 0 13.3862 1.20117 13.3862 2.70508C13.3862 4.19922 14.5972 5.41016 16.0913 5.41016ZM3.68896 14.4141C4.44092 14.7656 5.12451 14.4336 5.41748 13.8379L7.69287 9.31641L10.3979 9.31641C10.6909 9.31641 10.8765 9.58984 10.7397 9.85352L8.35693 14.5703C7.47803 16.3184 8.55225 18.5059 10.8569 18.3691L17.2632 17.9688L14.8999 23.2324C14.6069 23.8867 14.8804 24.7168 15.5444 24.9609C16.2866 25.2441 16.9409 25.0195 17.2632 24.2969L20.564 17.0703C20.9155 16.2891 20.4077 15.2148 19.3921 15.2148L13.6011 15.2148L16.1694 10.0684C16.2671 9.85352 16.5405 9.79492 16.7163 9.9707L19.7534 12.8711C20.3589 13.457 21.4429 13.3594 21.853 12.5293L24.4702 7.26562C24.7925 6.62109 24.5972 5.83008 23.894 5.50781C23.2495 5.19531 22.4585 5.45898 22.1362 6.10352L20.3101 9.72656L18.8257 8.23242C17.8198 7.22656 16.7554 6.69922 15.1147 6.69922L6.89209 6.69922C6.39404 6.69922 5.94482 6.99219 5.72998 7.42188L3.0835 12.6855C2.76123 13.3301 3.00537 14.0918 3.68896 14.4141ZM0.134277 27.1387C0.544433 27.9883 1.44287 28.0078 1.86279 27.8223L8.40576 24.9707C8.6792 24.8535 8.91357 24.6387 9.05029 24.3555L11.4526 19.4922L10.9351 19.5312C9.8999 19.6094 9.00146 19.2969 8.32764 18.7891L6.84326 22.7832L0.808105 25.3809C0.134277 25.6738-0.20752 26.4453 0.134277 27.1387ZM21.7456 28.3594C23.2593 28.3594 24.4702 27.168 24.4702 25.6543C24.4702 24.1602 23.2593 22.9492 21.7456 22.9492C20.2515 22.9492 19.0601 24.1602 19.0601 25.6543C19.0601 27.168 20.2515 28.3594 21.7456 28.3594Z" fill="black" fill-opacity="0.85"/>
 </g>
</svg>
