<?xml version="1.0" encoding="UTF-8"?>
<!--Generator: Apple Native CoreSVG 326-->
<!DOCTYPE svg
PUBLIC "-//W3C//DTD SVG 1.1//EN"
       "http://www.w3.org/Graphics/SVG/1.1/DTD/svg11.dtd">
<svg version="1.1" xmlns="http://www.w3.org/2000/svg" xmlns:xlink="http://www.w3.org/1999/xlink" viewBox="0 0 25.8008 25.459">
 <g>
  <rect height="25.459" opacity="0" width="25.8008" x="0" y="0"/>
  <path d="M25.4395 12.7246C25.4395 19.7266 19.7266 25.4395 12.7148 25.4395C5.71289 25.4395 0 19.7266 0 12.7246C0 5.71289 5.71289 0 12.7148 0C19.7266 0 25.4395 5.71289 25.4395 12.7246ZM6.75781 20.7715C6.75781 20.9766 6.92383 21.1328 7.11914 21.1328C7.33398 21.1328 7.49023 20.9766 7.49023 20.7715C7.49023 20.5566 7.33398 20.4004 7.11914 20.4004C6.92383 20.4004 6.75781 20.5566 6.75781 20.7715ZM7.99805 20.7715C7.99805 20.9766 8.1543 21.1328 8.36914 21.1328C8.57422 21.1328 8.73047 20.9766 8.73047 20.7715C8.73047 20.5566 8.57422 20.4004 8.36914 20.4004C8.1543 20.4004 7.99805 20.5566 7.99805 20.7715ZM9.22852 20.7715C9.22852 20.9766 9.39453 21.1328 9.59961 21.1328C9.81445 21.1328 9.9707 20.9766 9.9707 20.7715C9.9707 20.5566 9.81445 20.4004 9.59961 20.4004C9.39453 20.4004 9.22852 20.5566 9.22852 20.7715ZM10.4785 20.7715C10.4785 20.9766 10.6348 21.1328 10.8398 21.1328C11.0449 21.1328 11.2109 20.9766 11.2109 20.7715C11.2109 20.5566 11.0449 20.4004 10.8398 20.4004C10.6348 20.4004 10.4785 20.5566 10.4785 20.7715ZM11.7188 20.7715C11.7188 20.9766 11.875 21.1328 12.0898 21.1328C12.2852 21.1328 12.4512 20.9766 12.4512 20.7715C12.4512 20.5566 12.2852 20.4004 12.0898 20.4004C11.875 20.4004 11.7188 20.5566 11.7188 20.7715ZM12.9492 20.7715C12.9492 20.9766 13.1152 21.1328 13.3203 21.1328C13.5254 21.1328 13.6914 20.9766 13.6914 20.7715C13.6914 20.5566 13.5254 20.4004 13.3203 20.4004C13.1152 20.4004 12.9492 20.5566 12.9492 20.7715ZM14.1895 20.7715C14.1895 20.9766 14.3652 21.1328 14.5605 21.1328C14.7754 21.1328 14.9316 20.9766 14.9316 20.7715C14.9316 20.5566 14.7754 20.4004 14.5605 20.4004C14.3652 20.4004 14.1895 20.5566 14.1895 20.7715ZM15.4395 20.7715C15.4395 20.9766 15.5859 21.1328 15.8008 21.1328C16.0156 21.1328 16.1719 20.9766 16.1719 20.7715C16.1719 20.5566 16.0156 20.4004 15.8008 20.4004C15.5859 20.4004 15.4395 20.5566 15.4395 20.7715ZM16.6699 20.7715C16.6699 20.9766 16.8262 21.1328 17.041 21.1328C17.2461 21.1328 17.4121 20.9766 17.4121 20.7715C17.4121 20.5566 17.2461 20.4004 17.041 20.4004C16.8262 20.4004 16.6699 20.5566 16.6699 20.7715ZM17.9102 20.7715C17.9102 20.9766 18.0762 21.1328 18.2812 21.1328C18.4863 21.1328 18.6523 20.9766 18.6523 20.7715C18.6523 20.5566 18.4863 20.4004 18.2812 20.4004C18.0762 20.4004 17.9102 20.5566 17.9102 20.7715ZM16.3867 17.9492C16.3867 18.7695 17.0215 19.4238 17.8223 19.4238C18.6426 19.4238 19.2871 18.7695 19.2871 17.9492C19.2871 17.1387 18.6426 16.4941 17.8223 16.4941C17.0215 16.4941 16.3867 17.1387 16.3867 17.9492ZM9.76562 16.4062L6.51367 17.8027C6.16211 17.959 5.9668 18.3789 6.16211 18.7598C6.37695 19.209 6.85547 19.2285 7.08008 19.1211L10.625 17.5781C10.7617 17.5195 10.8984 17.4023 10.9668 17.2559L12.2852 14.5996L11.9824 14.6094C11.416 14.6484 10.957 14.4824 10.5859 14.209ZM18.0371 7.40234L17.041 9.3457L16.2402 8.54492C15.7031 7.99805 15.127 7.70508 14.248 7.70508L9.80469 7.70508C9.53125 7.70508 9.28711 7.88086 9.17969 8.0957L7.74414 10.9473C7.56836 11.3086 7.69531 11.709 8.06641 11.8848C8.48633 12.0703 8.84766 11.8848 9.01367 11.5723L10.2344 9.13086L11.6992 9.13086C11.8555 9.13086 11.9434 9.27734 11.875 9.41406L10.5859 11.9629C10.1074 12.9102 10.7031 14.1016 11.9434 14.0234L15.4004 13.8086L14.1211 16.6504C13.9648 17.002 14.1113 17.4512 14.4824 17.5684C14.873 17.7344 15.2344 17.6074 15.4004 17.2266L17.1777 13.3203C17.373 12.8906 17.0996 12.3145 16.5527 12.3145L13.4277 12.3145L14.8047 9.54102C14.873 9.41406 15.0098 9.375 15.1172 9.47266L16.748 11.0449C17.0898 11.3672 17.666 11.3184 17.8809 10.8691L19.2871 8.02734C19.4727 7.66602 19.3555 7.23633 18.9941 7.07031C18.6426 6.89453 18.2227 7.05078 18.0371 7.40234ZM13.3105 5.54688C13.3105 6.35742 13.9648 7.01172 14.7754 7.01172C15.5859 7.01172 16.2305 6.35742 16.2305 5.54688C16.2305 4.73633 15.5859 4.0918 14.7754 4.0918C13.9648 4.0918 13.3105 4.73633 13.3105 5.54688ZM9.54102 4.86328C8.98438 4.33594 8.50586 4.16016 7.76367 4.16016C7.56836 4.16016 7.43164 4.31641 7.43164 4.48242C7.43164 4.66797 7.56836 4.80469 7.75391 4.80469C8.35938 4.80469 8.75 4.93164 9.14062 5.36133C9.27734 5.51758 9.4043 5.57617 9.54102 5.57617C9.67773 5.57617 9.80469 5.51758 9.95117 5.36133C10.3516 4.93164 10.7422 4.80469 11.3379 4.80469C11.5234 4.80469 11.6699 4.66797 11.6699 4.48242C11.6699 4.31641 11.5137 4.16016 11.3379 4.16016C10.5859 4.16016 10.1074 4.33594 9.54102 4.86328Z" fill="black" fill-opacity="0.85"/>
 </g>
</svg>
