<?xml version="1.0" encoding="UTF-8"?>
<!--Generator: Apple Native CoreSVG 326-->
<!DOCTYPE svg
PUBLIC "-//W3C//DTD SVG 1.1//EN"
       "http://www.w3.org/Graphics/SVG/1.1/DTD/svg11.dtd">
<svg version="1.1" xmlns="http://www.w3.org/2000/svg" xmlns:xlink="http://www.w3.org/1999/xlink" viewBox="0 0 25.8008 25.459">
 <g>
  <rect height="25.459" opacity="0" width="25.8008" x="0" y="0"/>
  <path d="M12.7148 25.4395C19.7363 25.4395 25.4395 19.7461 25.4395 12.7246C25.4395 5.70312 19.7363 0 12.7148 0C5.69336 0 0 5.70312 0 12.7246C0 19.7461 5.69336 25.4395 12.7148 25.4395ZM12.7148 23.623C6.68945 23.623 1.81641 18.75 1.81641 12.7246C1.81641 6.69922 6.68945 1.82617 12.7148 1.82617C18.7402 1.82617 23.6133 6.69922 23.6133 12.7246C23.6133 18.75 18.7402 23.623 12.7148 23.623Z" fill="black" fill-opacity="0.85"/>
  <path d="M8.37891 8.03711C9.20898 8.03711 9.88281 7.36328 9.88281 6.51367C9.88281 5.68359 9.20898 5 8.37891 5C7.5293 5 6.8457 5.68359 6.8457 6.51367C6.8457 7.36328 7.5293 8.03711 8.37891 8.03711ZM7.57812 13.7305L10.459 13.7305L10.6348 13.9062C10.9863 14.2383 11.4453 14.4238 11.9043 14.4238C12.2949 14.4238 12.6562 14.3164 12.9883 14.0723L16.4648 11.4648L19.9219 9.39453C20.2539 9.18945 20.3711 8.75977 20.1758 8.42773C19.9707 8.0957 19.5312 7.98828 19.1992 8.19336L12.627 12.1289L10.791 10.293C10.7422 10.2637 10.7617 10.1953 10.8301 10.1953L12.5098 10.1953C12.9004 10.1953 13.2227 9.89258 13.2227 9.49219L13.2227 6.42578C13.2227 6.01562 12.9004 5.71289 12.5098 5.71289C12.1191 5.71289 11.8066 6.01562 11.8066 6.42578L11.8066 8.79883L8.27148 8.79883C7.50977 8.79883 6.875 9.42383 6.875 10.1953L6.875 13.0273C6.875 13.4082 7.17773 13.7305 7.57812 13.7305ZM8.22266 12.3633L8.22266 11.6895C8.22266 11.5918 8.33984 11.543 8.39844 11.6113L9.14062 12.3633ZM12.0117 21.4746C12.373 21.543 12.7734 21.3086 12.8516 20.918L13.5547 17.3926C13.5742 17.3145 13.5742 17.2363 13.5645 17.1387L13.4277 14.4629C12.998 14.8242 12.4707 15.0098 11.9043 15.0098C11.8457 15.0098 11.7578 15.0098 11.6895 15L12.1387 17.2461L11.4648 20.6348C11.3867 21.0254 11.6309 21.4062 12.0117 21.4746ZM12.8613 7.4707C13.4473 7.4707 13.9258 7.00195 13.9258 6.42578C13.9258 5.83008 13.4473 5.36133 12.8613 5.36133C12.2754 5.36133 11.8066 5.83008 11.8066 6.42578C11.8066 7.00195 12.2754 7.4707 12.8613 7.4707Z" fill="black" fill-opacity="0.85"/>
 </g>
</svg>
