<?xml version="1.0" encoding="UTF-8"?>
<!--Generator: Apple Native CoreSVG 326-->
<!DOCTYPE svg
PUBLIC "-//W3C//DTD SVG 1.1//EN"
       "http://www.w3.org/Graphics/SVG/1.1/DTD/svg11.dtd">
<svg version="1.1" xmlns="http://www.w3.org/2000/svg" xmlns:xlink="http://www.w3.org/1999/xlink" viewBox="0 0 23.4766 26.4941">
 <g>
  <rect height="26.4941" opacity="0" width="23.4766" x="0" y="0"/>
  <path d="M7.58789 5.41992C9.0918 5.41992 10.3027 4.20898 10.3027 2.70508C10.3027 1.21094 9.0918 0 7.58789 0C6.09375 0 4.88281 1.21094 4.88281 2.70508C4.88281 4.20898 6.09375 5.41992 7.58789 5.41992ZM7.46094 22.2461L19.1406 8.96484C19.4238 8.66211 19.541 8.36914 19.541 8.03711C19.541 7.30469 19.0039 6.76758 18.252 6.76758L7.32422 6.76758C4.85352 6.76758 2.83203 8.19336 2.25586 10.3223L1.03516 14.8828C0.488281 16.9238 1.79688 18.2227 3.37891 18.2227C3.89648 18.2227 4.42383 18.0957 4.94141 17.8223L10.7031 14.7559L10.8008 14.8047L13.1543 12.1191L12.4805 11.7773C11.9629 11.5137 11.416 11.4941 10.8887 11.7285L5.84961 13.9062L6.86523 10.3711C7.04102 9.75586 7.60742 9.31641 8.25195 9.31641L17.1777 9.31641L5.81055 22.2266C6.31836 22.1875 6.97266 22.168 7.46094 22.2461ZM14.7168 15.752L19.1113 17.959C20.0293 18.418 20.752 18.0566 21.0254 17.4707C21.3086 16.9043 21.1426 16.1133 20.2734 15.6836L16.4551 13.7793ZM5.48828 20.8203L0.615234 20.8203C0.273438 20.8203 0 21.0938 0 21.4355C0 21.7871 0.273438 22.0605 0.615234 22.0605L4.4043 22.0605ZM22.4902 20.8203L10.2441 20.8203L9.16016 22.0605L22.4902 22.0605C22.8418 22.0605 23.1152 21.7871 23.1152 21.4355C23.1152 21.0938 22.8418 20.8203 22.4902 20.8203ZM11.5527 26.4844C14.1211 26.4844 14.8438 24.8438 16.6406 24.8438C18.4375 24.8438 19.1602 26.4844 21.7285 26.4844L22.5293 26.4844C22.8516 26.4844 23.0957 26.2402 23.0957 25.9277C23.0957 25.6055 22.8613 25.3418 22.5293 25.3418L21.7285 25.3418C19.9512 25.3418 19.209 23.7109 16.6406 23.7109C14.1797 23.7109 13.4277 25.3418 11.5527 25.3418C9.6875 25.3418 8.93555 23.7109 6.46484 23.7109C3.90625 23.7109 3.16406 25.3418 1.38672 25.3418L0.585938 25.3418C0.253906 25.3418 0.00976562 25.6055 0.00976562 25.9277C0.00976562 26.2402 0.253906 26.4844 0.585938 26.4844L1.38672 26.4844C3.94531 26.4844 4.66797 24.8438 6.46484 24.8438C8.27148 24.8438 8.98438 26.4844 11.5527 26.4844Z" fill="black" fill-opacity="0.85"/>
 </g>
</svg>
