<?xml version="1.0" encoding="UTF-8"?>
<!--Generator: Apple Native CoreSVG 326-->
<!DOCTYPE svg
PUBLIC "-//W3C//DTD SVG 1.1//EN"
       "http://www.w3.org/Graphics/SVG/1.1/DTD/svg11.dtd">
<svg version="1.1" xmlns="http://www.w3.org/2000/svg" xmlns:xlink="http://www.w3.org/1999/xlink" viewBox="0 0 22.0065 30.459">
 <g>
  <rect height="30.459" opacity="0" width="22.0065" x="0" y="0"/>
  <path d="M10.7542 5.41016C12.2386 5.41016 13.4593 4.18945 13.4593 2.70508C13.4593 1.2207 12.2386 0 10.7542 0C9.26007 0 8.03937 1.2207 8.03937 2.70508C8.03937 4.18945 9.26007 5.41016 10.7542 5.41016ZM1.00812 14.9219C1.64288 15.0293 2.33624 14.7168 2.51202 13.9648L3.55695 9.26758L5.43195 9.26758C5.66632 9.26758 5.83234 9.46289 5.77374 9.69727L4.51398 14.5117C4.00617 16.4746 5.29523 18.4082 7.7464 17.7832L12.2972 16.6602L11.4183 21.0352C11.2816 21.709 11.7308 22.3926 12.4046 22.5293C12.9808 22.6562 13.7425 22.2852 13.889 21.543L15.1585 15.2148C15.3441 14.3066 14.5726 13.6133 13.8011 13.6816L9.75812 14.0723L10.9593 9.58008C10.9984 9.38477 11.2034 9.26758 11.389 9.33594L16.0081 11.0938C16.8577 11.416 17.7073 10.9375 17.7073 10.0586L17.7073 4.20898C17.7073 3.51562 17.1605 2.93945 16.4378 2.93945C15.7444 2.93945 15.1683 3.51562 15.1683 4.20898L15.1683 8.06641L12.8148 7.1582C12.0335 6.86523 11.2034 6.72852 10.3538 6.72852L2.52179 6.72852C1.93585 6.72852 1.42804 7.13867 1.30109 7.72461L0.0315558 13.4082C-0.124694 14.1016 0.314759 14.8047 1.00812 14.9219ZM6.71124 30.127C7.29718 30.2441 8.0589 29.8633 8.19562 29.1309L9.46515 22.8125C9.48468 22.7051 9.48468 22.5684 9.48468 22.4512L9.48468 18.5645L8.0296 18.916C7.47296 19.0527 6.95538 19.1016 6.47687 19.0527L6.94562 22.5L5.72492 28.6133C5.5882 29.3066 6.01788 29.9902 6.71124 30.127ZM11.5452 27.6367L19.7679 27.6367C20.1097 27.6367 20.3831 27.3633 20.3831 27.0215C20.3831 26.6699 20.1097 26.3965 19.7679 26.3965L11.5452 26.3965C11.1937 26.3965 10.9202 26.6699 10.9202 27.0215C10.9202 27.3633 11.1937 27.6367 11.5452 27.6367ZM10.2757 30.4199L21.0179 30.4199C21.3694 30.4199 21.6429 30.1465 21.6429 29.8047C21.6429 29.4531 21.3694 29.1797 21.0179 29.1797L10.2757 29.1797C9.92413 29.1797 9.6507 29.4531 9.6507 29.8047C9.6507 30.1465 9.92413 30.4199 10.2757 30.4199Z" fill="black" fill-opacity="0.85"/>
 </g>
</svg>
