<?xml version="1.0" encoding="UTF-8"?>
<!--Generator: Apple Native CoreSVG 326-->
<!DOCTYPE svg
PUBLIC "-//W3C//DTD SVG 1.1//EN"
       "http://www.w3.org/Graphics/SVG/1.1/DTD/svg11.dtd">
<svg version="1.1" xmlns="http://www.w3.org/2000/svg" xmlns:xlink="http://www.w3.org/1999/xlink" viewBox="0 0 37.574 13.2129">
 <g>
  <rect height="13.2129" opacity="0" width="37.574" x="0" y="0"/>
  <path d="M4.93933 5.38086C6.43347 5.38086 7.63464 4.17969 7.63464 2.69531C7.63464 1.20117 6.43347 0 4.93933 0C3.44519 0 2.25378 1.20117 2.25378 2.69531C2.25378 4.17969 3.44519 5.38086 4.93933 5.38086ZM13.0643 12.8809L16.5995 12.8809C19.5389 12.8809 20.369 11.2109 20.1249 9.27734L19.3046 2.7832L25.662 2.7832C26.3651 2.7832 26.9315 2.20703 26.9315 1.49414C26.9315 0.791016 26.3651 0.224609 25.662 0.224609L17.7225 0.224609C16.9999 0.224609 16.4432 0.742188 16.4432 1.60156L16.4432 8.16406L14.3339 8.16406C13.201 8.16406 12.244 7.76367 11.6971 6.89453C11.5702 6.68945 11.5702 6.39648 11.8046 6.12305L14.9882 2.35352C15.7303 1.48438 15.1444 0.224609 14.0604 0.224609L9.59753 0.224609C8.88464 0.224609 8.31823 0.791016 8.31823 1.49414C8.31823 2.22656 8.86511 2.7832 9.59753 2.7832L11.4042 2.7832L9.5487 4.98047C8.22058 6.54297 7.0487 7.63672 5.06628 8.52539L3.13269 9.38477L3.73816 7.23633C3.93347 6.5332 3.47448 5.83984 2.82019 5.69336C2.12683 5.51758 1.43347 5.9375 1.25769 6.60156L0.0565154 11.2891C-0.26575 12.5586 0.847531 13.1934 1.94128 12.7148L5.94519 10.9473C6.34558 10.7715 6.57995 10.791 6.89245 11.0352C8.19128 12.1387 10.2421 12.8809 13.0643 12.8809ZM26.7264 10L35.9354 10C36.6385 10 37.2147 9.43359 37.2147 8.7207C37.2147 8.00781 36.6385 7.44141 35.9354 7.44141L26.6092 7.44141C26.5116 7.44141 26.3944 7.44141 26.2577 7.45117L21.1112 7.88086L21.287 9.12109C21.3749 9.83398 21.3553 10.5078 21.2089 11.1133Z" fill="black" fill-opacity="0.85"/>
 </g>
</svg>
