<?xml version="1.0" encoding="UTF-8"?>
<!--Generator: Apple Native CoreSVG 326-->
<!DOCTYPE svg
PUBLIC "-//W3C//DTD SVG 1.1//EN"
       "http://www.w3.org/Graphics/SVG/1.1/DTD/svg11.dtd">
<svg version="1.1" xmlns="http://www.w3.org/2000/svg" xmlns:xlink="http://www.w3.org/1999/xlink" viewBox="0 0 25.8008 25.459">
 <g>
  <rect height="25.459" opacity="0" width="25.8008" x="0" y="0"/>
  <path d="M12.7148 25.4395C19.7363 25.4395 25.4395 19.7461 25.4395 12.7246C25.4395 5.70312 19.7363 0 12.7148 0C5.69336 0 0 5.70312 0 12.7246C0 19.7461 5.69336 25.4395 12.7148 25.4395ZM12.7148 23.623C6.68945 23.623 1.81641 18.75 1.81641 12.7246C1.81641 6.69922 6.68945 1.82617 12.7148 1.82617C18.7402 1.82617 23.6133 6.69922 23.6133 12.7246C23.6133 18.75 18.7402 23.623 12.7148 23.623Z" fill="black" fill-opacity="0.85"/>
  <path d="M12.9688 7.80273C13.7988 7.80273 14.4727 7.12891 14.4727 6.2793C14.4727 5.43945 13.7988 4.76562 12.9688 4.76562C12.1191 4.76562 11.4453 5.43945 11.4453 6.2793C11.4453 7.12891 12.1191 7.80273 12.9688 7.80273ZM18.7695 9.98047C19.1602 9.98047 19.4824 9.66797 19.4824 9.26758C19.4824 8.86719 19.1602 8.56445 18.7695 8.56445L11.5039 8.56445C10.8203 8.56445 10.2344 8.91602 9.91211 9.54102L6.75781 15.8398L4.98047 14.0723C4.69727 13.7891 4.25781 13.7988 3.98438 14.0723C3.71094 14.3457 3.70117 14.7852 3.98438 15.0684L6.48438 17.5781C6.78711 17.8809 7.26562 17.832 7.5 17.4805L9.56055 14.4727C9.67773 14.3066 9.91211 14.2773 10.0781 14.3945L12.6074 16.3281L12.6074 19.8633C12.6074 20.2539 12.9199 20.5664 13.3105 20.5664C13.7012 20.5664 14.0234 20.2539 14.0234 19.8633L14.0234 15.9668C14.0234 15.791 13.9453 15.6152 13.8184 15.4883L11.3477 13.0078L12.6758 10.3613C12.8027 10.1074 13.0273 9.98047 13.3008 9.98047ZM14.375 13.1543L17.0117 13.1543C17.4023 13.1543 17.7051 12.832 17.7051 12.4512C17.7051 12.0605 17.4023 11.7383 17.0117 11.7383L14.668 11.7383L13.4863 10.5566L13.3008 10.5566C13.2324 10.5566 13.2324 10.5566 13.2031 10.625L12.6465 11.709L13.877 12.9492C14.0137 13.0762 14.1895 13.1543 14.375 13.1543ZM18.2324 11.6504C18.2324 12.334 19.0234 12.8906 20 12.8906C20.9766 12.8906 21.7676 12.334 21.7676 11.6504C21.7676 10.9668 20.9766 10.4199 20 10.4199C19.0234 10.4199 18.2324 10.9668 18.2324 11.6504Z" fill="black" fill-opacity="0.85"/>
 </g>
</svg>
