<?xml version="1.0" encoding="UTF-8"?>
<!--Generator: Apple Native CoreSVG 326-->
<!DOCTYPE svg
PUBLIC "-//W3C//DTD SVG 1.1//EN"
       "http://www.w3.org/Graphics/SVG/1.1/DTD/svg11.dtd">
<svg version="1.1" xmlns="http://www.w3.org/2000/svg" xmlns:xlink="http://www.w3.org/1999/xlink" viewBox="0 0 20.96 30.498">
 <g>
  <rect height="30.498" opacity="0" width="20.96" x="0" y="0"/>
  <path d="M10.2945 6.72852C12.1499 6.72852 13.6441 5.18555 13.6441 3.37891C13.6441 1.51367 12.1499 0 10.2945 0C8.41947 0 6.95462 1.51367 6.95462 3.37891C6.95462 5.25391 8.41947 6.72852 10.2945 6.72852ZM3.83939 19.2969L13.4781 8.59375C12.5113 8.23242 11.4663 8.07617 10.2945 8.07617C5.9683 8.07617 3.39017 10.166 3.39017 13.6621C3.39017 14.4922 3.439 15.625 3.56595 16.7871ZM16.7593 19.2969L17.0327 16.7871C17.1499 15.625 17.1988 14.4922 17.1988 13.6621C17.1988 11.9141 16.5835 10.5078 15.3433 9.54102L7.61869 18.1641C8.51712 17.998 9.4058 17.9492 10.2945 17.9492C12.4331 17.9492 14.5816 18.2324 16.7593 19.2969ZM6.5933 30.4102C7.4722 30.3027 8.05814 29.6582 7.95072 28.5645L7.34525 22.959L13.2535 22.959L12.648 28.5645C12.5308 29.6582 13.1167 30.3027 14.0054 30.4102C14.9234 30.5078 15.6167 29.9414 15.7339 28.8672L16.5054 21.4453C14.5523 20.3125 12.3745 19.873 10.2945 19.873C8.21439 19.873 6.04642 20.3125 4.0933 21.4453L4.85502 28.8672C4.9722 29.9414 5.67533 30.5078 6.5933 30.4102ZM15.3433 9.53125L18.2242 6.33789C18.6929 5.79102 18.6538 5.21484 18.1949 4.81445C17.7652 4.43359 17.2183 4.43359 16.7105 5L13.4781 8.59375C14.1617 8.84766 14.7769 9.17969 15.3433 9.53125ZM0.274937 23.2227C0.704625 23.6621 1.2808 23.6523 1.78861 23.1445C2.5015 22.4707 3.21439 21.8848 4.0933 21.4453L3.83939 19.2969C2.56009 19.8926 1.43705 20.752 0.372593 21.7578C-0.0961566 22.207-0.115688 22.8027 0.274937 23.2227ZM20.3238 23.2324C20.7144 22.8125 20.6949 22.2168 20.2261 21.7676C19.1617 20.752 18.0484 19.9023 16.7593 19.2969L16.5054 21.4453C17.3843 21.8945 18.0972 22.4805 18.8101 23.1543C19.3179 23.6523 19.8941 23.6719 20.3238 23.2324Z" fill="black" fill-opacity="0.85"/>
 </g>
</svg>
