<?xml version="1.0" encoding="UTF-8"?>
<!--Generator: Apple Native CoreSVG 326-->
<!DOCTYPE svg
PUBLIC "-//W3C//DTD SVG 1.1//EN"
       "http://www.w3.org/Graphics/SVG/1.1/DTD/svg11.dtd">
<svg version="1.1" xmlns="http://www.w3.org/2000/svg" xmlns:xlink="http://www.w3.org/1999/xlink" viewBox="0 0 31.7578 24.4238">
 <g>
  <rect height="24.4238" opacity="0" width="31.7578" x="0" y="0"/>
  <path d="M20.8984 5.41992C22.4023 5.41992 23.6133 4.20898 23.6133 2.70508C23.6133 1.21094 22.4023 0 20.8984 0C19.4043 0 18.2031 1.21094 18.2031 2.70508C18.2031 4.20898 19.4043 5.41992 20.8984 5.41992ZM12.2168 24.2676C12.7734 24.4727 13.4668 24.3262 13.8184 23.6035L16.9922 17.2559C17.2363 16.7773 17.1777 16.2109 16.7578 15.791L12.9297 11.9531L17.7637 9.54102C17.998 9.42383 18.2617 9.48242 18.4277 9.64844L21.3086 12.5098C21.5332 12.7441 21.8652 12.8809 22.1875 12.8809L27.9102 12.8809C28.6035 12.8809 29.1797 12.3242 29.1797 11.6211C29.1797 10.918 28.6035 10.3516 27.9102 10.3516L22.7148 10.3516L17.373 4.99023C16.748 4.35547 15.8789 4.00391 14.9707 4.00391L4.43359 4.00391C3.74023 4.00391 3.16406 4.58008 3.16406 5.27344C3.16406 5.9668 3.74023 6.54297 4.43359 6.54297L12.3828 6.54297C12.5293 6.54297 12.5684 6.75781 12.4414 6.82617L10.0781 7.99805C8.82812 8.61328 8.19336 9.78516 8.19336 10.9863C8.19336 12.002 8.66211 13.0273 9.59961 13.7012L14.2383 17.0898L11.5527 22.4707C11.123 23.3203 11.582 24.0137 12.2168 24.2676ZM1.25977 19.2188L7.60742 19.2188C8.0957 19.2188 8.53516 18.9453 8.75 18.5254L10.2148 15.5957L8.91602 14.6484C8.44727 14.2969 8.05664 13.8965 7.76367 13.4473L6.70898 16.6895L1.25977 16.6895C0.566406 16.6895 0 17.2559 0 17.959C0 18.6523 0.566406 19.2188 1.25977 19.2188ZM28.5742 0.712891C26.9336 0.712891 25.7422 1.89453 25.7422 3.52539C25.7422 5.87891 27.8223 8.56445 28.0957 8.85742L29.043 8.85742C29.3164 8.56445 31.3965 5.87891 31.3965 3.52539C31.3965 1.89453 30.2051 0.712891 28.5742 0.712891ZM28.5742 1.95312C29.4922 1.95312 30.166 2.62695 30.166 3.52539C30.166 4.78516 29.1602 6.52344 28.5742 7.45117C27.9785 6.52344 26.9727 4.78516 26.9727 3.52539C26.9727 2.62695 27.6465 1.95312 28.5742 1.95312ZM27.9492 11.6211L29.1797 11.6211L29.1797 8.44727L27.9492 8.44727Z" fill="black" fill-opacity="0.85"/>
 </g>
</svg>
