<?xml version="1.0" encoding="UTF-8"?>
<!--Generator: Apple Native CoreSVG 326-->
<!DOCTYPE svg
PUBLIC "-//W3C//DTD SVG 1.1//EN"
       "http://www.w3.org/Graphics/SVG/1.1/DTD/svg11.dtd">
<svg version="1.1" xmlns="http://www.w3.org/2000/svg" xmlns:xlink="http://www.w3.org/1999/xlink" viewBox="0 0 23.7207 32.1191">
 <g>
  <rect height="32.1191" opacity="0" width="23.7207" x="0" y="0"/>
  <path d="M9.35547 5.41016C10.8398 5.41016 12.0605 4.18945 12.0605 2.71484C12.0605 1.2207 10.8398 0 9.35547 0C7.87109 0 6.65039 1.2207 6.65039 2.71484C6.65039 4.18945 7.87109 5.41016 9.35547 5.41016ZM10.9668 25.7324C11.4453 25.8594 12.2559 25.6836 12.4902 24.9023L14.2871 18.9355C14.4824 18.3008 14.1992 17.627 13.5156 17.4023L8.64258 15.7129L9.24805 11.5625C9.27734 11.3184 9.59961 11.2598 9.70703 11.4941L10.752 13.5156C10.9766 13.9648 11.3965 14.1992 11.8555 14.1992L16.8359 14.1992C17.5195 14.1992 18.0957 13.6621 18.0957 12.959C18.0957 12.2852 17.5195 11.7188 16.8359 11.7188L12.6367 11.7188L11.0156 8.50586C10.4883 7.4707 9.55078 6.73828 8.39844 6.51367L7.69531 6.37695C6.42578 6.13281 5.40039 6.40625 4.60938 6.9043L0.585938 9.4043C0.234375 9.63867 0 10.0391 0 10.4785L0 15.4492C0 16.1328 0.566406 16.6992 1.25 16.6992C1.93359 16.6992 2.50977 16.1328 2.50977 15.4492L2.50977 11.1523L4.23828 10.0684C4.39453 9.98047 4.57031 10.0879 4.55078 10.2734L3.97461 14.8633C3.75 16.6309 4.32617 17.8223 6.35742 18.3008L11.5234 19.502L10.1172 24.209C9.93164 24.8438 10.1758 25.5176 10.9668 25.7324ZM1.82617 30.2246C2.27539 30.5176 3.07617 30.5176 3.52539 29.8438L7.19727 24.3945C7.36328 24.1309 7.45117 23.9258 7.5 23.623L8.02734 19.9707L6.07422 19.502C5.78125 19.4336 5.51758 19.3457 5.27344 19.2578L5.00977 23.1836L1.47461 28.4863C1.08398 29.0527 1.2207 29.834 1.82617 30.2246ZM6.55273 32.0898L10.6641 32.0898C11.0059 32.0898 11.2891 31.8066 11.2891 31.4648L11.2891 28.9941L14.7656 28.9941C15.0977 28.9941 15.3711 28.7207 15.3711 28.3789L15.3711 25.9082L18.877 25.9082C19.2188 25.9082 19.4922 25.6348 19.4922 25.2832L19.4922 22.8125L22.7344 22.8125C23.0762 22.8125 23.3594 22.5391 23.3594 22.1973C23.3594 21.8555 23.0762 21.5723 22.7344 21.5723L18.877 21.5723C18.5254 21.5723 18.2617 21.8555 18.2617 22.1973L18.2617 24.668L14.7656 24.668C14.4043 24.668 14.1406 24.9512 14.1406 25.2832L14.1406 27.7637L10.6641 27.7637C10.3223 27.7637 10.0488 28.0371 10.0488 28.3789L10.0488 30.8594L6.55273 30.8594C6.20117 30.8594 5.9375 31.1328 5.9375 31.4648C5.9375 31.8066 6.20117 32.0898 6.55273 32.0898Z" fill="black" fill-opacity="0.85"/>
 </g>
</svg>
