<?xml version="1.0" encoding="UTF-8"?>
<!--Generator: Apple Native CoreSVG 326-->
<!DOCTYPE svg
PUBLIC "-//W3C//DTD SVG 1.1//EN"
       "http://www.w3.org/Graphics/SVG/1.1/DTD/svg11.dtd">
<svg version="1.1" xmlns="http://www.w3.org/2000/svg" xmlns:xlink="http://www.w3.org/1999/xlink" viewBox="0 0 25.8008 25.459">
 <g>
  <rect height="25.459" opacity="0" width="25.8008" x="0" y="0"/>
  <path d="M12.7148 25.4395C19.7363 25.4395 25.4395 19.7461 25.4395 12.7246C25.4395 5.70312 19.7363 0 12.7148 0C5.69336 0 0 5.70312 0 12.7246C0 19.7461 5.69336 25.4395 12.7148 25.4395ZM12.7148 23.623C6.68945 23.623 1.81641 18.75 1.81641 12.7246C1.81641 6.69922 6.68945 1.82617 12.7148 1.82617C18.7402 1.82617 23.6133 6.69922 23.6133 12.7246C23.6133 18.75 18.7402 23.623 12.7148 23.623Z" fill="black" fill-opacity="0.85"/>
  <path d="M15.4297 7.53906C16.25 7.53906 16.9238 6.85547 16.9238 6.03516C16.9238 5.20508 16.25 4.53125 15.4297 4.53125C14.5996 4.53125 13.916 5.20508 13.916 6.03516C13.916 6.85547 14.5996 7.53906 15.4297 7.53906ZM18.4863 17.4512C18.4668 17.6562 18.6426 17.8516 18.8477 17.8711C19.043 17.8809 19.248 17.7246 19.2676 17.4902L19.873 9.29688L19.0918 9.25781ZM15.1465 13.9062L13.3008 12.4414L14.7168 9.96094L17.0117 11.709C17.3242 11.9531 17.7344 11.9238 18.0176 11.6016L19.707 9.72656C20.2734 9.0918 19.3359 8.03711 18.6719 8.79883L17.4414 10.2344L15.4297 8.60352C14.6973 7.99805 14.0039 7.5293 12.8027 7.59766L9.88281 7.74414C9.51172 7.76367 9.21875 7.98828 9.17969 8.42773L9.01367 11.0742C8.96484 11.9141 10.332 12.207 10.3906 11.0547L10.498 9.04297L12.2461 8.98438L10.9277 11.3672C10.5078 12.1289 10.7031 12.9688 11.4648 13.418L14.0625 14.9023L14.0625 18.3887C14.0625 18.7793 14.3652 19.0918 14.7461 19.0918C15.1367 19.0918 15.4395 18.7793 15.4395 18.3887L15.4395 14.4531C15.4395 14.2383 15.3809 14.0918 15.1465 13.9062ZM4.62891 15.9473C4.47266 16.0938 4.47266 16.3379 4.61914 16.4941C4.75586 16.6309 5.00977 16.6211 5.16602 16.4844L10.1953 11.6211L9.64844 11.0742ZM10.6836 13.6133L10.332 14.9805L7.41211 17.6855C6.69922 18.3594 7.65625 19.375 8.39844 18.6719L11.3867 15.8887C11.5625 15.7324 11.6113 15.6348 11.6895 15.4395L12.0801 14.5215L11.1523 13.9746C10.9668 13.8672 10.8105 13.7598 10.6836 13.6133ZM18.6133 19.3652C19.3164 19.3652 19.7266 19.1895 20.2246 18.9551C20.4492 18.8477 20.5078 18.6328 20.4492 18.457C20.3711 18.2617 20.1465 18.125 19.9023 18.252C19.5117 18.4473 19.1797 18.584 18.6133 18.584L8.05664 18.584C7.86133 18.584 7.66602 18.75 7.66602 18.9551C7.66602 19.1699 7.8418 19.3652 8.05664 19.3652ZM15.6641 19.3652L15.6641 18.584L5.37109 18.584C5.15625 18.584 4.98047 18.75 4.98047 18.9551C4.98047 19.1602 5.14648 19.3652 5.37109 19.3652Z" fill="black" fill-opacity="0.85"/>
 </g>
</svg>
