<?xml version="1.0" encoding="UTF-8"?>
<!--Generator: Apple Native CoreSVG 326-->
<!DOCTYPE svg
PUBLIC "-//W3C//DTD SVG 1.1//EN"
       "http://www.w3.org/Graphics/SVG/1.1/DTD/svg11.dtd">
<svg version="1.1" xmlns="http://www.w3.org/2000/svg" xmlns:xlink="http://www.w3.org/1999/xlink" viewBox="0 0 25.8008 25.459">
 <g>
  <rect height="25.459" opacity="0" width="25.8008" x="0" y="0"/>
  <path d="M25.4395 12.7246C25.4395 19.7266 19.7266 25.4395 12.7148 25.4395C5.71289 25.4395 0 19.7266 0 12.7246C0 5.71289 5.71289 0 12.7148 0C19.7266 0 25.4395 5.71289 25.4395 12.7246ZM10.2832 7.39258L7.39258 9.02344C7.06055 9.21875 6.98242 9.69727 7.20703 10.0195C7.44141 10.332 7.8418 10.4102 8.21289 10.2051L10.8594 8.80859L12.4219 9.21875C12.7344 9.29688 12.8418 9.52148 12.7344 9.80469L11.9238 12.0898C11.543 13.1445 12.1777 14.0527 13.2031 14.0527L15.9375 14.0527C16.5039 14.0527 16.8945 14.3945 16.8945 14.9512C16.8945 17.4805 15.2148 19.1602 12.7051 19.1602C10.166 19.1602 8.47656 17.4805 8.47656 14.9414C8.47656 14.1406 8.71094 13.4082 9.0918 12.8125C9.52148 12.1387 8.64258 11.6406 8.20312 12.2949C7.75391 13.0566 7.46094 13.9551 7.46094 14.9414C7.46094 18.0859 9.56055 20.1855 12.6953 20.1855C15.8203 20.1855 17.9102 18.0859 17.9102 14.9512C17.9102 13.291 17.1289 12.3535 15.6738 12.3535L14.6973 12.3535C14.5312 12.3535 14.4336 12.2363 14.4922 12.0312L15.1465 10.0195C15.4492 9.10156 15.0098 8.26172 14.0137 8.02734L11.0352 7.26562C10.752 7.20703 10.5371 7.23633 10.2832 7.39258ZM17.1777 19.3945C17.1777 19.8242 17.5293 20.1855 17.9688 20.1855C18.3984 20.1855 18.75 19.8242 18.75 19.3945C18.75 18.9648 18.3984 18.6133 17.9688 18.6133C17.5293 18.6133 17.1777 18.9648 17.1777 19.3945ZM13.7891 5.98633C13.7891 6.83594 14.4922 7.5293 15.3516 7.5293C16.2012 7.5293 16.8945 6.83594 16.8945 5.98633C16.8945 5.12695 16.2012 4.42383 15.3516 4.42383C14.4922 4.42383 13.7891 5.12695 13.7891 5.98633Z" fill="black" fill-opacity="0.85"/>
 </g>
</svg>
