<?xml version="1.0" ?><!-- Generator: Adobe Illustrator 25.0.0, SVG Export Plug-In . SVG Version: 6.00 Build 0)  --><svg xmlns="http://www.w3.org/2000/svg" xmlns:xlink="http://www.w3.org/1999/xlink" version="1.1" id="Layer_1" x="0px" y="0px" viewBox="0 0 512 512" style="enable-background:new 0 0 512 512;" xml:space="preserve">
<path d="M256,512c140,0,256-116.2,256-256C512,116,395.8,0,255.7,0C116,0,0,116,0,256C0,395.8,116.2,512,256,512z M234.2,429.7  c-10.3,0-16.3-6.3-16.3-17.1V212.1c0-6.5-2.5-11-8-15.1l-37.6-28.1c-8.3-6-12-12.5-12.5-22.3l-3.5-52.7c-0.8-9.8,4.5-15.8,13.3-16.6  c9-0.8,14.8,4.8,15.3,14.6l3.8,53.2l23.6,16.6c8.3,5.8,13.8,8,25.3,8h21.3c56,0,81.8,12.5,81.8,58.7v72.8c0,9.8-5.5,15.8-14.3,15.8  c-9,0-14.8-6-14.8-15.8v-76.8c0-5-3-8.5-7.3-8.5c-4.5,0-7.3,3.3-7.3,8.5v188.2c0,11-5.5,17.1-15.8,17.1c-10.3,0-16.6-6.3-16.6-17.1  V299.7c0-4.8-2.8-8.3-7.3-8.3c-4.5,0-7.3,3.3-7.3,8.3v112.9C250,423.7,244.2,429.7,234.2,429.7z M258.8,153.3  c-17.8,0-32.9-14.8-32.9-32.6c0-18.3,14.6-33.1,32.9-33.1c18.3,0,33.1,14.8,33.1,33.1C291.9,138.3,276.6,153.3,258.8,153.3z"/>
</svg>