<?xml version="1.0" encoding="UTF-8"?>
<!--Generator: Apple Native CoreSVG 326-->
<!DOCTYPE svg
PUBLIC "-//W3C//DTD SVG 1.1//EN"
       "http://www.w3.org/Graphics/SVG/1.1/DTD/svg11.dtd">
<svg version="1.1" xmlns="http://www.w3.org/2000/svg" xmlns:xlink="http://www.w3.org/1999/xlink" viewBox="0 0 25.8008 25.459">
 <g>
  <rect height="25.459" opacity="0" width="25.8008" x="0" y="0"/>
  <path d="M12.7148 25.4395C19.7363 25.4395 25.4395 19.7461 25.4395 12.7246C25.4395 5.70312 19.7363 0 12.7148 0C5.69336 0 0 5.70312 0 12.7246C0 19.7461 5.69336 25.4395 12.7148 25.4395ZM12.7148 23.623C6.68945 23.623 1.81641 18.75 1.81641 12.7246C1.81641 6.69922 6.68945 1.82617 12.7148 1.82617C18.7402 1.82617 23.6133 6.69922 23.6133 12.7246C23.6133 18.75 18.7402 23.623 12.7148 23.623Z" fill="black" fill-opacity="0.85"/>
  <path d="M11.5039 10.3223C12.334 10.3223 13.0078 9.64844 13.0078 8.79883C13.0078 7.96875 12.334 7.29492 11.5039 7.29492C10.6543 7.29492 9.98047 7.96875 9.98047 8.79883C9.98047 9.64844 10.6543 10.3223 11.5039 10.3223ZM8.14453 20.9082L11.5234 20.9082C11.9629 20.9082 12.168 20.6934 12.2363 20.3223L12.8418 16.9629L15.6738 16.9629L15.1172 20.0586C15.0391 20.5566 15.3613 20.8789 15.7324 20.9082C16.0742 20.9375 16.4551 20.7812 16.5332 20.3223L17.2363 16.4453C17.334 15.9082 17.0215 15.5762 16.6211 15.5273L14.1016 15.2539L14.3164 12.8613C14.3359 12.7441 14.4238 12.666 14.5312 12.666L16.543 12.666C16.9336 12.666 17.2559 12.334 17.2559 11.9434L17.2559 8.00781C17.2559 7.70508 17.0801 7.45117 16.8066 7.34375C16.543 7.23633 16.25 7.28516 16.0352 7.49023L12.0996 11.4258C11.748 11.7871 11.5332 12.2168 11.4844 12.7441L10.8691 19.4727L8.14453 19.4727C7.73438 19.4727 7.43164 19.7852 7.43164 20.1855C7.43164 20.5859 7.73438 20.9082 8.14453 20.9082ZM15.8301 9.72656L15.8301 11.2305L14.3359 11.2305ZM14.4238 7.63672L16.0059 9.04297L16.3574 8.65234L14.7852 7.23633ZM10.4004 4.69727L14.082 8.02734C14.3164 8.23242 14.5801 8.20312 14.7949 7.97852L15.1855 7.57812C15.4102 7.36328 15.3711 7.06055 15.1562 6.875L11.4453 3.51562C11.2207 3.33008 10.918 3.33984 10.7227 3.56445L10.3516 3.99414C10.1562 4.21875 10.166 4.49219 10.4004 4.69727Z" fill="black" fill-opacity="0.85"/>
 </g>
</svg>
