<?xml version="1.0" encoding="UTF-8"?>
<!--Generator: Apple Native CoreSVG 326-->
<!DOCTYPE svg
PUBLIC "-//W3C//DTD SVG 1.1//EN"
       "http://www.w3.org/Graphics/SVG/1.1/DTD/svg11.dtd">
<svg version="1.1" xmlns="http://www.w3.org/2000/svg" xmlns:xlink="http://www.w3.org/1999/xlink" viewBox="0 0 25.8008 25.459">
 <g>
  <rect height="25.459" opacity="0" width="25.8008" x="0" y="0"/>
  <path d="M12.7148 25.4395C19.7363 25.4395 25.4395 19.7461 25.4395 12.7246C25.4395 5.70312 19.7363 0 12.7148 0C5.69336 0 0 5.70312 0 12.7246C0 19.7461 5.69336 25.4395 12.7148 25.4395ZM12.7148 23.623C6.68945 23.623 1.81641 18.75 1.81641 12.7246C1.81641 6.69922 6.68945 1.82617 12.7148 1.82617C18.7402 1.82617 23.6133 6.69922 23.6133 12.7246C23.6133 18.75 18.7402 23.623 12.7148 23.623Z" fill="black" fill-opacity="0.85"/>
  <path d="M10.2637 12.3828C11.0938 12.3828 11.7773 11.6992 11.7773 10.8594C11.7773 10.0195 11.0938 9.3457 10.2637 9.3457C9.41406 9.3457 8.73047 10.0195 8.73047 10.8594C8.73047 11.6992 9.41406 12.3828 10.2637 12.3828ZM12.4609 11.0547L13.2324 11.0547L13.2324 10.4004L18.0664 5.53711C18.2129 5.38086 18.2227 5.14648 18.0664 5C17.9297 4.85352 17.6855 4.84375 17.5293 5L12.6562 9.88281C12.5195 10.0195 12.4609 10.1855 12.4609 10.4004ZM15.0879 12.9785C15.4785 12.9785 15.8008 12.6758 15.8008 12.2754L15.8008 7.5293L14.375 8.94531L14.375 12.2754C14.375 12.6758 14.6973 12.9785 15.0879 12.9785ZM10.9961 18.0469C11.3574 17.8125 11.7383 17.627 12.1191 17.4609L12.1191 14.5801C12.1191 14.4824 12.1973 14.4043 12.2949 14.4043L13.1836 14.4043C13.5645 14.4043 13.8867 14.082 13.8867 13.7012L13.8867 9.32617L12.4609 10.5273L12.4609 12.9883L9.9707 12.9883C9.35547 12.9883 8.91602 13.4277 8.91602 14.0527L8.91602 15.6445C9.67773 16.2207 10.4004 17.002 10.9961 18.0469ZM4.29688 15.918C6.40625 15.918 8.75 16.6992 10.0879 20.1855C10.2246 20.5566 10.6445 20.6055 10.8789 20.3711C12.4414 18.8184 14.2383 18.291 16.8164 19.0234C17.041 19.082 17.1973 18.9844 17.3047 18.7695C17.832 17.5391 18.9453 16.9141 20.2832 16.9141C20.4883 16.9141 20.6738 16.7285 20.6738 16.5332C20.6738 16.3184 20.4883 16.1426 20.2832 16.1426C18.8086 16.1426 17.4316 16.8652 16.7188 18.1836C14.2188 17.5879 12.2656 18.0762 10.6543 19.5117C9.12109 15.9961 6.49414 15.1367 4.29688 15.1367C4.0918 15.1367 3.90625 15.3027 3.90625 15.5273C3.90625 15.7422 4.0918 15.918 4.29688 15.918Z" fill="black" fill-opacity="0.85"/>
 </g>
</svg>
