<?xml version="1.0" encoding="UTF-8"?>
<!--Generator: Apple Native CoreSVG 326-->
<!DOCTYPE svg
PUBLIC "-//W3C//DTD SVG 1.1//EN"
       "http://www.w3.org/Graphics/SVG/1.1/DTD/svg11.dtd">
<svg version="1.1" xmlns="http://www.w3.org/2000/svg" xmlns:xlink="http://www.w3.org/1999/xlink" viewBox="0 0 25.8008 25.459">
 <g>
  <rect height="25.459" opacity="0" width="25.8008" x="0" y="0"/>
  <path d="M25.4395 12.7246C25.4395 19.7266 19.7266 25.4395 12.7148 25.4395C5.71289 25.4395 0 19.7266 0 12.7246C0 5.71289 5.71289 0 12.7148 0C19.7266 0 25.4395 5.71289 25.4395 12.7246ZM11.4355 3.4082L11.4355 11.3184L9.69727 10.1074C9.56055 10.0195 9.45312 9.99023 9.24805 9.99023L5.44922 9.99023C5.03906 9.99023 4.70703 10.3125 4.70703 10.7129C4.70703 11.1035 5.03906 11.4551 5.44922 11.4551L8.98438 11.4551L11.2012 13.457C11.2793 13.5254 11.2305 13.6426 11.1133 13.6426L8.60352 13.6426C8.38867 13.6426 8.17383 13.6914 8.02734 13.8477L5.39062 16.4941C5.09766 16.7871 5.09766 17.2266 5.39062 17.5293C5.67383 17.8125 6.12305 17.8223 6.41602 17.5293L8.79883 15.1562L11.4355 15.5957L11.4355 16.9141C11.4355 18.0762 12.2363 18.7793 13.2812 18.7793C13.6914 18.7793 14.0527 18.6523 14.3457 18.4375L14.3457 21.9336C14.3457 22.1484 14.541 22.334 14.7363 22.334C14.9609 22.334 15.1465 22.1484 15.1465 21.9336L15.1465 17.5293C15.1953 17.5 15.2344 17.4805 15.2734 17.4414L17.4609 15.2441C17.5879 15.1172 17.6758 14.9219 17.6758 14.7363L17.6758 11.4746C17.6758 11.0059 17.5293 10.6152 17.2461 10.3418L12.832 5.94727L12.832 8.01758L14.7754 9.96094C14.9316 10.0977 14.9121 10.2441 14.7754 10.3711L12.8418 12.3047L12.2266 11.8945L12.2266 3.4082C12.2266 3.17383 12.0312 3.00781 11.8262 3.00781C11.6211 3.00781 11.4355 3.19336 11.4355 3.4082ZM14.3457 16.2891C14.3066 16.3281 14.2676 16.3672 14.2285 16.4062C13.9551 16.709 13.9551 17.1484 14.2285 17.4121C14.0625 17.7637 13.7109 17.9883 13.2812 17.9883C12.6758 17.9883 12.2266 17.6172 12.2266 16.9141L12.2266 15.6641C12.9785 15.6543 13.6914 15.3613 14.2383 14.8145L14.3457 14.707ZM16.2012 13.3105L16.2012 14.4336L15.1465 15.498L15.1465 13.916L15.8789 13.1836C16.0254 13.0469 16.2012 13.1152 16.2012 13.3105ZM16.5723 7.91016C16.5723 8.7793 17.2559 9.46289 18.1152 9.46289C18.9648 9.46289 19.668 8.7793 19.668 7.91016C19.668 7.07031 18.9648 6.36719 18.1152 6.36719C17.2559 6.36719 16.5723 7.07031 16.5723 7.91016Z" fill="black" fill-opacity="0.85"/>
 </g>
</svg>
