<?xml version="1.0" encoding="UTF-8"?>
<!--Generator: Apple Native CoreSVG 326-->
<!DOCTYPE svg
PUBLIC "-//W3C//DTD SVG 1.1//EN"
       "http://www.w3.org/Graphics/SVG/1.1/DTD/svg11.dtd">
<svg version="1.1" xmlns="http://www.w3.org/2000/svg" xmlns:xlink="http://www.w3.org/1999/xlink" viewBox="0 0 24.9146 31.0059">
 <g>
  <rect height="31.0059" opacity="0" width="24.9146" x="0" y="0"/>
  <path d="M14.5618 5.41992C16.0462 5.41992 17.2669 4.20898 17.2669 2.69531C17.2669 1.21094 16.0462 0.00976562 14.5618 0.00976562C13.0676 0.00976562 11.8567 1.21094 11.8567 2.69531C11.8567 4.20898 13.0676 5.41992 14.5618 5.41992ZM2.52076 20.3223L10.6751 20.3223C11.8079 20.3223 12.3059 19.0625 11.6712 18.2812L9.11256 15.1465L16.4172 14.668L23.2825 14.668C23.9758 14.668 24.552 14.1113 24.552 13.4082C24.552 12.7246 23.9758 12.1582 23.2825 12.1582L10.5872 12.1582L13.595 9.14062C13.7219 9.01367 13.8977 8.93555 14.0833 8.95508L23.0676 10.1172C23.8098 10.2148 24.4739 9.64844 24.4739 8.87695C24.4739 8.26172 24.0149 7.72461 23.3801 7.63672L4.56178 5.26367C4.16139 5.21484 3.80006 5.35156 3.52662 5.61523L0.362558 8.75977C-0.125723 9.24805-0.115958 10.0098 0.362558 10.5176C0.811777 10.9863 1.64185 11.0352 2.14967 10.5176L4.85475 7.8125L7.7942 8.18359C8.06764 8.21289 8.17506 8.50586 7.97975 8.71094L5.20631 11.4453C4.12232 12.5195 4.0735 14.2285 5.20631 15.3711L7.63795 17.8223L2.52076 17.8223C1.8274 17.8223 1.261 18.3789 1.261 19.0723C1.261 19.7461 1.8274 20.3223 2.52076 20.3223ZM14.7669 31.0059C15.1087 31.0059 15.3821 30.7324 15.3821 30.3906L15.3821 17.5C15.3821 17.1484 15.1087 16.875 14.7669 16.875C14.4153 16.875 14.1516 17.1484 14.1516 17.5L14.1516 30.3906C14.1516 30.7324 14.4153 31.0059 14.7669 31.0059Z" fill="black" fill-opacity="0.85"/>
 </g>
</svg>
