<?xml version="1.0" encoding="UTF-8"?>
<!--Generator: Apple Native CoreSVG 326-->
<!DOCTYPE svg
PUBLIC "-//W3C//DTD SVG 1.1//EN"
       "http://www.w3.org/Graphics/SVG/1.1/DTD/svg11.dtd">
<svg version="1.1" xmlns="http://www.w3.org/2000/svg" xmlns:xlink="http://www.w3.org/1999/xlink" viewBox="0 0 25.8008 25.459">
 <g>
  <rect height="25.459" opacity="0" width="25.8008" x="0" y="0"/>
  <path d="M25.4395 12.7246C25.4395 19.7266 19.7266 25.4395 12.7148 25.4395C5.71289 25.4395 0 19.7266 0 12.7246C0 5.71289 5.71289 0 12.7148 0C19.7266 0 25.4395 5.71289 25.4395 12.7246ZM9.54102 20.3711C9.38477 20.3711 9.25781 20.498 9.25781 20.6641C9.25781 20.8398 9.38477 20.957 9.54102 20.957L12.3438 20.957C12.5098 20.957 12.6465 20.8398 12.6465 20.6641C12.6465 20.498 12.5098 20.3711 12.3438 20.3711ZM15.2441 7.44141L4.17969 9.46289C3.71094 9.54102 3.52539 9.93164 3.59375 10.2832C3.67188 10.6445 3.96484 10.957 4.46289 10.8691L7.71484 10.2832C7.98828 10.2246 8.125 10.3516 8.16406 10.498C8.53516 11.9238 9.93164 12.9199 11.3867 13.4863L10.332 15.2637C10.1758 15.5469 10.1172 15.791 10.1953 16.1523L10.7715 18.7109L9.84375 19.0137C9.375 19.1797 9.42383 19.8633 9.93164 19.8633L12.0312 19.8633C12.3535 19.8633 12.5195 19.6387 12.4219 19.2773L11.6992 16.0645L13.8184 13.457L20.0488 12.3242L20.5664 13.3008C20.7812 13.6914 21.4844 13.5547 21.4062 13.0566L21.0547 11.1133C21.0059 10.8203 20.8105 10.7129 20.5469 10.7617L16.2695 11.5137L13.623 11.3672C12.8613 11.2402 11.6016 10.6934 11.3281 9.98047C11.2305 9.78516 11.3672 9.59961 11.5332 9.56055L15.5273 8.85742C16.0156 8.7793 16.2012 8.35938 16.1035 8.00781C16.0449 7.64648 15.7324 7.35352 15.2441 7.44141ZM21.7383 10.3906C21.5625 10.4297 21.4648 10.5762 21.4941 10.7422L21.9824 13.4766C22.0117 13.6523 22.1777 13.7598 22.334 13.7305C22.5 13.7207 22.5977 13.5547 22.5781 13.3789L22.0801 10.6445C22.0605 10.4688 21.9043 10.3711 21.7383 10.3906ZM7.37305 6.24023C7.37305 7.10938 8.05664 7.79297 8.92578 7.79297C9.79492 7.79297 10.4883 7.10938 10.4883 6.24023C10.4883 5.37109 9.79492 4.67773 8.92578 4.67773C8.05664 4.67773 7.37305 5.37109 7.37305 6.24023Z" fill="black" fill-opacity="0.85"/>
 </g>
</svg>
