<?xml version="1.0" encoding="UTF-8"?>
<!--Generator: Apple Native CoreSVG 326-->
<!DOCTYPE svg
PUBLIC "-//W3C//DTD SVG 1.1//EN"
       "http://www.w3.org/Graphics/SVG/1.1/DTD/svg11.dtd">
<svg version="1.1" xmlns="http://www.w3.org/2000/svg" xmlns:xlink="http://www.w3.org/1999/xlink" viewBox="0 0 39.2578 28.6529">
 <g>
  <rect height="28.6529" opacity="0" width="39.2578" x="0" y="0"/>
  <path d="M32.5049 8.65748L32.5049 11.2454C32.5049 11.8997 32.1045 12.1926 31.6455 12.1926C31.1767 12.1926 30.7861 11.8704 30.7861 11.2454L30.7861 8.46217C30.7861 5.21022 28.7158 3.36451 26.1572 3.36451C23.6181 3.36451 21.5478 5.21022 21.5478 8.46217L21.5478 11.6889C22.8286 11.9431 23.5303 12.908 23.5303 14.4973L23.5303 23.384C23.5303 25.259 22.5537 26.2649 20.8056 26.2649L13.3466 26.2649C13.3542 26.0183 13.3251 25.7537 13.2568 25.4739L11.8506 19.6536C11.7822 19.3118 11.792 18.7747 11.792 18.1497L12.5732 18.4622C14.0771 19.0481 15.4638 18.2962 15.8642 17.0169C16.2451 15.8255 15.6689 14.5071 14.3115 13.9505L11.206 12.6614C11.384 12.3372 11.5124 11.9881 11.5792 11.6165L19.8291 11.6165L19.8291 8.65748C19.8291 4.11647 22.7881 1.73365 26.1572 1.73365C29.5361 1.73365 32.5049 4.11647 32.5049 8.65748Z" fill="black" fill-opacity="0.85"/>
  <path d="M8.00291 13.0715C9.16502 13.0715 10.0732 12.1438 10.0732 11.0012C10.0732 9.83912 9.16502 8.90162 8.00291 8.90162C6.86033 8.90162 5.91307 9.83912 5.91307 11.0012C5.91307 12.1438 6.86033 13.0715 8.00291 13.0715ZM7.99314 20.4153C8.26658 20.4153 8.50096 20.5911 8.57908 20.9133L10.0049 26.3821C10.3271 27.5833 11.9678 27.1633 11.792 26.0501C11.7138 25.5715 10.4931 20.9426 10.3174 19.9172C10.2002 19.1751 10.249 17.2805 10.249 16.304C10.249 16.0696 10.4541 15.9231 10.6982 16.0208L13.1592 17.0169C13.7939 17.2805 14.2431 16.9778 14.3701 16.5579C14.5166 16.138 14.331 15.6301 13.7256 15.386L11.1279 14.3215C10.5029 14.0676 9.92674 13.9212 9.29197 13.843C8.89158 14.0286 8.46189 14.136 7.99314 14.136C7.51463 14.136 7.08494 14.0286 6.68455 13.843C6.04978 13.9212 5.46385 14.0676 4.84861 14.3215L2.25096 15.386C1.64549 15.6301 1.45994 16.138 1.60642 16.5579C1.73338 16.9778 2.1826 17.2805 2.81736 17.0169L5.2783 16.0208C5.52244 15.9231 5.72752 16.0696 5.72752 16.304C5.72752 17.2805 5.78611 19.1751 5.65916 19.9172C5.48338 20.9426 4.26267 25.5715 4.18455 26.0501C4.00877 27.1633 5.65916 27.5833 5.97166 26.3821L7.39744 20.9133C7.48533 20.5911 7.70994 20.4153 7.99314 20.4153Z" fill="black" fill-opacity="0.85"/>
 </g>
</svg>
