<?xml version="1.0" encoding="UTF-8"?>
<!--Generator: Apple Native CoreSVG 326-->
<!DOCTYPE svg
PUBLIC "-//W3C//DTD SVG 1.1//EN"
       "http://www.w3.org/Graphics/SVG/1.1/DTD/svg11.dtd">
<svg version="1.1" xmlns="http://www.w3.org/2000/svg" xmlns:xlink="http://www.w3.org/1999/xlink" viewBox="0 0 16.9497 27.7832">
 <g>
  <rect height="27.7832" opacity="0" width="16.9497" x="0" y="0"/>
  <path d="M8.28931 5.29297C9.76392 5.29297 10.9456 4.12109 10.9456 2.64648C10.9456 1.17188 9.76392 0 8.28931 0C6.82446 0 5.65259 1.17188 5.65259 2.64648C5.65259 4.12109 6.82446 5.29297 8.28931 5.29297ZM8.28931 17.2363C8.80689 17.2363 9.02173 17.5977 9.30493 18.4766C9.70532 19.7363 10.9749 24.9316 11.3948 26.4551C11.5999 27.2168 11.9905 27.5391 12.5764 27.5391C13.3479 27.5391 13.8264 26.8262 13.6116 26.0547C13.5237 25.7227 11.7073 18.2031 11.4729 16.6504C11.2678 15.2441 11.1995 12.334 11.1995 11.1719C11.1995 10.9863 11.4143 10.9082 11.5413 11.0742C12.4299 12.3145 14.1877 14.8047 14.5198 15.2051C14.8909 15.6348 15.4768 15.7227 15.9651 15.4492C16.5803 15.1172 16.7268 14.4531 16.4631 13.9844C16.3557 13.7891 16.219 13.5938 16.0823 13.3887L12.9475 8.78906C11.8538 7.19727 10.4963 6.64062 8.28931 6.64062C6.09204 6.64062 4.73462 7.19727 3.64087 8.78906L0.506105 13.3887C0.369386 13.5938 0.232668 13.7891 0.125246 13.9844C-0.138426 14.4531 0.00805827 15.1172 0.623293 15.4492C1.11157 15.7227 1.69751 15.6348 2.06861 15.2051C2.40064 14.8047 4.15845 12.3242 5.04712 11.0742C5.16431 10.918 5.38892 10.9863 5.38892 11.1816C5.38892 12.3438 5.32056 15.2441 5.11548 16.6504C4.88111 18.2031 3.0647 25.7227 2.97681 26.0547C2.76196 26.8262 3.24048 27.5391 4.01196 27.5391C4.5979 27.5391 4.97876 27.2168 5.19361 26.4551C5.61353 24.9316 6.88306 19.7363 7.28345 18.4766C7.55689 17.5977 7.7815 17.2363 8.28931 17.2363Z" fill="black" fill-opacity="0.85"/>
 </g>
</svg>
