<?xml version="1.0" encoding="UTF-8"?>
<!--Generator: Apple Native CoreSVG 326-->
<!DOCTYPE svg
PUBLIC "-//W3C//DTD SVG 1.1//EN"
       "http://www.w3.org/Graphics/SVG/1.1/DTD/svg11.dtd">
<svg version="1.1" xmlns="http://www.w3.org/2000/svg" xmlns:xlink="http://www.w3.org/1999/xlink" viewBox="0 0 25.8008 25.459">
 <g>
  <rect height="25.459" opacity="0" width="25.8008" x="0" y="0"/>
  <path d="M12.7148 25.4395C19.7363 25.4395 25.4395 19.7461 25.4395 12.7246C25.4395 5.70312 19.7363 0 12.7148 0C5.69336 0 0 5.70312 0 12.7246C0 19.7461 5.69336 25.4395 12.7148 25.4395ZM12.7148 23.623C6.68945 23.623 1.81641 18.75 1.81641 12.7246C1.81641 6.69922 6.68945 1.82617 12.7148 1.82617C18.7402 1.82617 23.6133 6.69922 23.6133 12.7246C23.6133 18.75 18.7402 23.623 12.7148 23.623Z" fill="black" fill-opacity="0.85"/>
  <path d="M10.4785 7.65625C11.3184 7.65625 11.9922 6.98242 11.9922 6.14258C11.9922 5.30273 11.3184 4.62891 10.4785 4.62891C9.62891 4.62891 8.95508 5.30273 8.95508 6.14258C8.95508 6.98242 9.62891 7.65625 10.4785 7.65625ZM10.4102 17.0996L16.9531 9.6582C17.1191 9.48242 17.1973 9.32617 17.1973 9.13086C17.1973 8.7207 16.8848 8.41797 16.4648 8.41797L10.3418 8.41797C8.93555 8.41797 7.79297 9.22852 7.48047 10.4102L6.79688 12.9785C6.49414 14.1211 7.22656 14.8535 8.11523 14.8535C8.4082 14.8535 8.70117 14.7754 8.98438 14.6191L12.2852 12.9004L12.3535 12.9297L13.6523 11.4648L13.2227 11.2305C12.9492 11.084 12.6172 11.0742 12.3242 11.2012L9.50195 12.4316L10.0684 10.4492C10.1562 10.0879 10.4785 9.85352 10.8496 9.85352L15.8398 9.85352L9.44336 17.0996C9.74609 17.0703 10.1465 17.0508 10.4102 17.0996ZM14.4141 13.4375L16.9434 14.707C17.4609 14.9707 17.8711 14.7559 18.0176 14.4336C18.1836 14.1211 18.0859 13.6719 17.5977 13.4277L15.3809 12.3242ZM9.4043 16.2598L6.57227 16.2598C6.35742 16.2598 6.18164 16.4453 6.18164 16.6504C6.18164 16.8555 6.35742 17.041 6.57227 17.041L8.7207 17.041ZM18.8477 16.2598L11.9238 16.2598L11.2305 17.041L18.8477 17.041C19.0527 17.041 19.2383 16.8555 19.2383 16.6504C19.2383 16.4453 19.0527 16.2598 18.8477 16.2598ZM12.7051 19.5117C14.1699 19.5117 14.5703 18.6035 15.5664 18.6035C16.5625 18.6035 16.9629 19.5117 18.418 19.5117L18.7695 19.5117C18.9648 19.5117 19.1211 19.3555 19.1211 19.1797C19.1211 18.9844 18.9746 18.8086 18.7695 18.8086L18.418 18.8086C17.4316 18.8086 17.0312 17.9004 15.5664 17.9004C14.1602 17.9004 13.7402 18.8086 12.7051 18.8086C11.6797 18.8086 11.25 17.9004 9.84375 17.9004C8.38867 17.9004 7.97852 18.8086 7.00195 18.8086L6.64062 18.8086C6.43555 18.8086 6.28906 18.9844 6.28906 19.1797C6.28906 19.3555 6.44531 19.5117 6.64062 19.5117L7.00195 19.5117C8.45703 19.5117 8.85742 18.6035 9.84375 18.6035C10.8398 18.6035 11.25 19.5117 12.7051 19.5117Z" fill="black" fill-opacity="0.85"/>
 </g>
</svg>
