<?xml version="1.0" encoding="UTF-8"?>
<!--Generator: Apple Native CoreSVG 326-->
<!DOCTYPE svg
PUBLIC "-//W3C//DTD SVG 1.1//EN"
       "http://www.w3.org/Graphics/SVG/1.1/DTD/svg11.dtd">
<svg version="1.1" xmlns="http://www.w3.org/2000/svg" xmlns:xlink="http://www.w3.org/1999/xlink" viewBox="0 0 21.8368 30.3418">
 <g>
  <rect height="30.3418" opacity="0" width="21.8368" x="0" y="0"/>
  <path d="M9.75631 7.87109C11.2407 7.87109 12.4419 6.67969 12.4419 5.17578C12.4419 3.69141 11.2407 2.49023 9.75631 2.49023C8.2524 2.49023 7.05123 3.69141 7.05123 5.17578C7.05123 6.67969 8.2524 7.87109 9.75631 7.87109ZM2.92037 30.0781C3.62349 30.2051 4.25826 29.7559 4.39498 29.0332L5.56685 22.7051L10.5083 20.0195C10.645 19.9414 10.7622 19.9805 10.8208 20.1074L13.311 26.123C13.4477 26.4453 13.6821 26.6602 13.9653 26.8164L19.561 29.9316C20.2739 30.3223 21.0161 30 21.309 29.4434C21.6606 28.8281 21.436 28.0273 20.8208 27.6855L15.5962 24.7949L12.0805 10.6738C11.8657 9.82422 11.1333 9.21875 10.2251 9.21875L2.6567 9.21875L6.20162 1.68945C6.68013 0.673828 5.95748 0 5.21529 0C4.79537 0 4.37545 0.224609 4.17037 0.732422L0.0883375 11.377C-0.106975 11.875 0.0395094 12.3535 0.352009 12.666L3.51607 15.8398C3.99459 16.3184 4.82467 16.3184 5.30318 15.8398L6.70943 14.4336C6.89498 14.248 7.17818 14.248 7.24654 14.5215L8.01803 17.5586L3.63326 20.8398C3.33053 21.0645 3.18404 21.4355 3.12545 21.7871L1.88521 28.584C1.76803 29.2578 2.22701 29.9414 2.92037 30.0781ZM5.7231 11.7676L4.40474 13.0859L3.08638 11.7676Z" fill="black" fill-opacity="0.85"/>
 </g>
</svg>
