<?xml version="1.0" encoding="UTF-8"?>
<!--Generator: Apple Native CoreSVG 326-->
<!DOCTYPE svg
PUBLIC "-//W3C//DTD SVG 1.1//EN"
       "http://www.w3.org/Graphics/SVG/1.1/DTD/svg11.dtd">
<svg version="1.1" xmlns="http://www.w3.org/2000/svg" xmlns:xlink="http://www.w3.org/1999/xlink" viewBox="0 0 23.9072 30.9668">
 <g>
  <rect height="30.9668" opacity="0" width="23.9072" x="0" y="0"/>
  <path d="M16.6997 5.43945C18.1938 5.43945 19.4048 4.22852 19.4048 2.73438C19.4048 1.23047 18.1938 0.0292969 16.6997 0.0292969C15.2055 0.0292969 13.9946 1.23047 13.9946 2.73438C13.9946 4.22852 15.2055 5.43945 16.6997 5.43945ZM8.1157 15.2734L12.7348 19.9121L12.7348 27.1777L15.2739 27.1777L15.2739 19.5312C15.2739 19.1699 15.186 18.8281 14.9321 18.4961L11.8266 14.5508L14.4829 10.4883C14.6489 10.2246 15.02 10.2246 15.1665 10.5273L16.0454 12.2949C16.2505 12.7148 16.6899 12.998 17.1684 12.998L22.2759 12.998C22.979 12.998 23.5454 12.4414 23.5454 11.7285C23.5454 11.0254 22.979 10.459 22.2759 10.459L17.9594 10.459L16.6216 7.75391C16.0942 6.67969 14.9907 6.00586 13.7895 6.00586L7.00242 6.00586C6.5825 6.00586 6.17234 6.2207 5.9282 6.58203L3.3989 10.3906C3.00828 10.9668 3.16453 11.7578 3.75047 12.1484C4.32664 12.5391 5.10789 12.3828 5.50828 11.7871L7.67625 8.53516L9.76609 8.53516C9.94187 8.53516 10.0298 8.69141 9.94187 8.84766L7.78367 12.0703C7.12937 13.0664 7.25632 14.4141 8.1157 15.2734ZM0.439918 17.1387L5.43992 21.5137C6.23093 22.207 7.10984 21.8359 7.4907 21.2402L9.43406 18.2422L7.33445 16.1328C7.29539 16.1035 7.27586 16.0742 7.23679 16.0449L5.96726 18.5938L2.10984 15.2246C1.5825 14.7754 0.781715 14.8047 0.312965 15.3418C-0.146019 15.8691-0.0971912 16.6797 0.439918 17.1387ZM6.74851 28.0664L15.4692 28.0664C16.8462 28.0664 17.9497 27.793 18.8188 27.041C19.1313 26.7676 19.1216 26.4258 18.9653 26.1914C18.7798 25.9277 18.3891 25.8008 18.018 26.0742C17.3442 26.6016 16.6411 26.8359 15.4692 26.8359L6.74851 26.8359C5.57664 26.8359 4.87351 26.6016 4.19968 26.0742C3.85789 25.8203 3.50632 25.9082 3.31101 26.123C3.09617 26.3574 3.05711 26.7383 3.3989 27.041C4.27781 27.793 5.37156 28.0664 6.74851 28.0664ZM6.74851 30.9668C7.32468 30.9668 7.81297 30.4785 7.81297 29.9023C7.81297 29.3262 7.32468 28.8379 6.74851 28.8379C6.17234 28.8379 5.68406 29.3262 5.68406 29.9023C5.68406 30.4785 6.17234 30.9668 6.74851 30.9668ZM15.4692 30.9668C16.0552 30.9668 16.5337 30.4785 16.5337 29.9023C16.5337 29.3262 16.0552 28.8379 15.4692 28.8379C14.893 28.8379 14.4048 29.3262 14.4048 29.9023C14.4048 30.4785 14.893 30.9668 15.4692 30.9668Z" fill="black" fill-opacity="0.85"/>
 </g>
</svg>
