<?xml version="1.0" encoding="UTF-8"?>
<!--Generator: Apple Native CoreSVG 326-->
<!DOCTYPE svg
PUBLIC "-//W3C//DTD SVG 1.1//EN"
       "http://www.w3.org/Graphics/SVG/1.1/DTD/svg11.dtd">
<svg version="1.1" xmlns="http://www.w3.org/2000/svg" xmlns:xlink="http://www.w3.org/1999/xlink" viewBox="0 0 25.8008 25.459">
 <g>
  <rect height="25.459" opacity="0" width="25.8008" x="0" y="0"/>
  <path d="M25.4395 12.7246C25.4395 19.7266 19.7266 25.4395 12.7148 25.4395C5.71289 25.4395 0 19.7266 0 12.7246C0 5.71289 5.71289 0 12.7148 0C19.7266 0 25.4395 5.71289 25.4395 12.7246ZM12.7051 18.9844C11.6602 18.9844 11.2109 18.0371 9.77539 18.0371C8.28125 18.0371 7.86133 18.9844 6.85547 18.9844L6.49414 18.9844C6.28906 18.9844 6.13281 19.1504 6.13281 19.3555C6.13281 19.541 6.29883 19.6973 6.49414 19.6973L6.85547 19.6973C8.34961 19.6973 8.76953 18.7598 9.77539 18.7598C10.791 18.7598 11.2109 19.6973 12.7051 19.6973C14.209 19.6973 14.6191 18.7598 15.6348 18.7598C16.6504 18.7598 17.0605 19.6973 18.5547 19.6973L18.916 19.6973C19.1211 19.6973 19.2773 19.541 19.2773 19.3555C19.2773 19.1504 19.1211 18.9844 18.916 18.9844L18.5547 18.9844C17.5488 18.9844 17.1387 18.0371 15.6348 18.0371C14.1992 18.0371 13.7598 18.9844 12.7051 18.9844ZM10.2734 8.33008C8.84766 8.33008 7.67578 9.15039 7.35352 10.3711L6.65039 12.998C6.34766 14.1699 7.08984 14.9219 8.00781 14.9219C8.30078 14.9219 8.59375 14.834 8.89648 14.6777L12.2656 12.9199L12.334 12.9492L13.6719 11.4355L13.2324 11.2109C12.959 11.0547 12.6172 11.0449 12.3145 11.1816L9.42383 12.4414L10 10.4102C10.0977 10.0391 10.4297 9.79492 10.8008 9.79492L15.9082 9.79492L9.35547 17.2266C9.66797 17.1973 10.0781 17.1875 10.3516 17.2266L17.0703 9.59961C17.2266 9.41406 17.3047 9.25781 17.3047 9.05273C17.3047 8.63281 16.9922 8.33008 16.5527 8.33008ZM6.41602 16.3574C6.20117 16.3574 6.01562 16.5527 6.01562 16.7578C6.01562 16.9824 6.20117 17.168 6.41602 17.168L8.61328 17.168L9.30664 16.3574ZM11.9141 16.3574L11.1914 17.168L18.9941 17.168C19.209 17.168 19.3945 16.9824 19.3945 16.7578C19.3945 16.5527 19.209 16.3574 18.9941 16.3574ZM14.4629 13.4668L17.0508 14.7656C17.5781 15.0391 17.998 14.8145 18.1445 14.4922C18.3203 14.1699 18.2129 13.7109 17.7148 13.457L15.4492 12.3242ZM8.86719 5.98633C8.86719 6.85547 9.55078 7.54883 10.4297 7.54883C11.2891 7.54883 11.9727 6.85547 11.9727 5.98633C11.9727 5.13672 11.2891 4.44336 10.4297 4.44336C9.55078 4.44336 8.86719 5.13672 8.86719 5.98633Z" fill="black" fill-opacity="0.85"/>
 </g>
</svg>
