<?xml version="1.0" encoding="UTF-8"?>
<!--Generator: Apple Native CoreSVG 326-->
<!DOCTYPE svg
PUBLIC "-//W3C//DTD SVG 1.1//EN"
       "http://www.w3.org/Graphics/SVG/1.1/DTD/svg11.dtd">
<svg version="1.1" xmlns="http://www.w3.org/2000/svg" xmlns:xlink="http://www.w3.org/1999/xlink" viewBox="0 0 31.3965 23.8379">
 <g>
  <rect height="23.8379" opacity="0" width="31.3965" x="0" y="0"/>
  <path d="M15.5176 18.916C16.2012 18.916 16.7578 18.3594 16.7578 17.6758L16.7578 11.4453C16.7578 11.1523 16.6504 10.8691 16.416 10.6152L13.1641 6.99219C12.9688 6.75781 13.1055 6.43555 13.418 6.43555L17.3926 6.43555C17.8711 6.43555 18.0273 6.77734 18.0273 7.10938L18.0273 10.1855C18.0273 10.8691 18.5742 11.4258 19.2578 11.4258L24.2578 11.4258C24.9316 11.4258 25.4785 10.8691 25.4785 10.1855C25.4785 9.51172 24.9316 8.95508 24.2578 8.95508L20.498 8.95508L20.498 4.58008C20.498 3.19336 19.3945 2.08984 18.0078 2.08984L11.9238 2.08984C10.6543 2.08984 9.55078 2.85156 9.05273 4.00391C8.57422 5.18555 8.84766 6.50391 9.72656 7.39258L14.2773 11.9727L14.2773 17.6758C14.2773 18.3594 14.834 18.916 15.5176 18.916ZM6.62109 23.6816C10.3125 23.6816 13.252 20.752 13.252 17.0605C13.252 13.3691 10.3125 10.4297 6.62109 10.4297C2.92969 10.4297 0 13.3691 0 17.0605C0 20.752 2.92969 23.6816 6.62109 23.6816ZM6.62109 22.1484C3.81836 22.1484 1.52344 19.8633 1.52344 17.0605C1.52344 14.248 3.81836 11.9531 6.62109 11.9531C9.42383 11.9531 11.7188 14.248 11.7188 17.0605C11.7188 19.8633 9.42383 22.1484 6.62109 22.1484ZM27.8027 13.2812C28.8281 14.1992 29.502 15.5469 29.502 17.0605C29.502 19.8633 27.207 22.1484 24.4043 22.1484C21.6016 22.1484 19.3164 19.8633 19.3164 17.0605C19.3164 16.3477 19.4629 15.6543 19.7266 15.0488C19.9707 14.4434 19.7363 14.043 19.3359 13.8965C18.9746 13.7598 18.5742 13.877 18.3594 14.3555C17.9883 15.2051 17.7832 16.0938 17.7832 17.0605C17.7832 20.752 20.7129 23.6816 24.4043 23.6816C28.0957 23.6816 31.0352 20.752 31.0352 17.0605C31.0352 15.0586 30.166 13.3105 28.7598 12.0703C28.3496 11.7188 27.9004 11.7969 27.627 12.0996C27.3535 12.4023 27.3242 12.8516 27.8027 13.2812ZM24.4824 5.41016C25.9668 5.41016 27.1777 4.19922 27.1777 2.70508C27.1777 1.2207 25.9668 0 24.4824 0C22.9785 0 21.7676 1.2207 21.7676 2.70508C21.7676 4.19922 22.9785 5.41016 24.4824 5.41016Z" fill="black" fill-opacity="0.85"/>
 </g>
</svg>
