<?xml version="1.0" encoding="UTF-8"?>
<!--Generator: Apple Native CoreSVG 326-->
<!DOCTYPE svg
PUBLIC "-//W3C//DTD SVG 1.1//EN"
       "http://www.w3.org/Graphics/SVG/1.1/DTD/svg11.dtd">
<svg version="1.1" xmlns="http://www.w3.org/2000/svg" xmlns:xlink="http://www.w3.org/1999/xlink" viewBox="0 0 29.7852 30.0684">
 <g>
  <rect height="30.0684" opacity="0" width="29.7852" x="0" y="0"/>
  <path d="M14.7266 5.41992C16.2109 5.41992 17.4316 4.20898 17.4316 2.69531C17.4316 1.21094 16.2109 0 14.7266 0C13.2227 0 12.0215 1.21094 12.0215 2.69531C12.0215 4.20898 13.2227 5.41992 14.7266 5.41992ZM12.002 14.7754L17.4609 14.7754L17.4609 11.709C17.4609 11.5039 17.7832 11.4062 17.9004 11.6602L21.3672 18.6914C21.6797 19.3066 22.4219 19.5703 23.0371 19.2383C23.623 18.9453 23.8965 18.1934 23.584 17.5684L19.0332 8.37891C18.4961 7.27539 17.4707 6.64062 16.2012 6.64062L13.2422 6.64062C11.9727 6.64062 10.957 7.27539 10.4102 8.37891L5.85938 17.5684C5.54688 18.1934 5.82031 18.9453 6.40625 19.2383C7.02148 19.5703 7.76367 19.3066 8.07617 18.6914L11.5527 11.6602C11.6797 11.4062 12.002 11.4844 12.002 11.6992ZM9.69727 29.9414C10.293 30.0684 10.9766 29.7559 11.1621 28.9062L12.3242 23.584L14.7266 19.1016L17.1191 23.584L18.2812 28.9062C18.4668 29.7949 19.209 30.0879 19.8242 29.9316C20.4004 29.7656 20.8691 29.209 20.6934 28.3691L19.5117 22.8809C19.502 22.7734 19.4824 22.6953 19.4336 22.5879L17.9297 18.3301L11.5332 18.3301L10 22.5879C9.96094 22.6953 9.94141 22.7734 9.93164 22.8809L8.75977 28.3691C8.56445 29.248 9.0918 29.8242 9.69727 29.9414ZM2.41211 20.7129L3.25195 20.7129C3.70117 20.7129 4.02344 20.3809 4.02344 19.9219L4.02344 13.1641C4.02344 12.7051 3.70117 12.3926 3.25195 12.3926L2.41211 12.3926C1.95312 12.3926 1.64062 12.7051 1.64062 13.1641L1.64062 19.9219C1.64062 20.3809 1.95312 20.7129 2.41211 20.7129ZM26.1816 20.7129L27.0117 20.7129C27.4707 20.7129 27.7832 20.3809 27.7832 19.9219L27.7832 13.1641C27.7832 12.7051 27.4707 12.3926 27.0117 12.3926L26.1816 12.3926C25.7227 12.3926 25.4102 12.7051 25.4102 13.1641L25.4102 19.9219C25.4102 20.3809 25.7227 20.7129 26.1816 20.7129ZM0.615234 17.168L28.8086 17.168C29.1504 17.168 29.4238 16.8945 29.4238 16.5527C29.4238 16.2109 29.1504 15.9375 28.8086 15.9375L0.615234 15.9375C0.273438 15.9375 0 16.2109 0 16.5527C0 16.8945 0.273438 17.168 0.615234 17.168Z" fill="black" fill-opacity="0.85"/>
 </g>
</svg>
