<?xml version="1.0" encoding="UTF-8"?>
<!--Generator: Apple Native CoreSVG 326-->
<!DOCTYPE svg
PUBLIC "-//W3C//DTD SVG 1.1//EN"
       "http://www.w3.org/Graphics/SVG/1.1/DTD/svg11.dtd">
<svg version="1.1" xmlns="http://www.w3.org/2000/svg" xmlns:xlink="http://www.w3.org/1999/xlink" viewBox="0 0 25.8008 25.459">
 <g>
  <rect height="25.459" opacity="0" width="25.8008" x="0" y="0"/>
  <path d="M25.4395 12.7246C25.4395 19.7266 19.7266 25.4395 12.7148 25.4395C5.71289 25.4395 0 19.7266 0 12.7246C0 5.71289 5.71289 0 12.7148 0C19.7266 0 25.4395 5.71289 25.4395 12.7246ZM16.9824 13.0762L16.6406 13.0762L16.6406 20.3027C16.6406 20.498 16.7871 20.6543 16.9824 20.6543C17.1777 20.6543 17.334 20.498 17.334 20.3027L17.334 13.0176C17.1875 13.0469 17.0605 13.0762 16.9824 13.0762ZM9.59961 7.22656C8.79883 7.22656 8.30078 7.72461 8.30078 8.52539L8.30078 12.1582C8.30078 12.7051 8.70117 13.1055 9.24805 13.1055L10.2441 13.1055C10.2539 13.5938 10.3809 13.9258 10.6445 14.3457L9.99023 16.9043L7.86133 19.4141C7.14844 20.2539 8.31055 21.084 8.89648 20.3906L10.9473 17.9297C11.1523 17.6953 11.2305 17.5586 11.4062 17.2363L12.6855 14.4336C13.0859 13.5938 13.1543 13.0762 13.2129 12.1777L13.291 11.0156L14.4336 12.0996C14.6973 12.3438 14.8828 12.4219 15.3223 12.4219L16.9824 12.4219C17.4219 12.4219 17.7148 12.1582 17.7148 11.748C17.7148 11.3477 17.4219 11.084 16.9824 11.084L15.2051 11.084L13.0176 8.70117C12.6953 8.34961 12.2754 8.14453 11.7676 8.14453C11.6309 8.14453 11.5039 8.16406 11.3867 8.18359C11.3867 7.64648 10.9473 7.22656 10.3516 7.22656ZM12.4219 16.5918C12.6172 16.8359 12.6855 16.9629 12.7637 17.0996L14.2578 20.166C14.7266 21.0938 16.1133 20.498 15.6152 19.502L14.1309 16.5234C14.0234 16.2793 13.8672 16.0352 13.7109 15.8203L13.1543 15.0293ZM16.6406 9.42383L16.6406 10.4492L16.9824 10.4492C17.0703 10.4492 17.1777 10.459 17.334 10.4883L17.334 9.42383C17.334 9.22852 17.1777 9.08203 16.9824 9.08203C16.7871 9.08203 16.6406 9.22852 16.6406 9.42383ZM11.0938 5.88867C11.0938 6.76758 11.7969 7.48047 12.6758 7.48047C13.5547 7.48047 14.2578 6.76758 14.2578 5.88867C14.2578 5.0293 13.5547 4.32617 12.6758 4.32617C11.7969 4.32617 11.0938 5.0293 11.0938 5.88867Z" fill="black" fill-opacity="0.85"/>
 </g>
</svg>
