<?xml version="1.0" encoding="UTF-8"?>
<!--Generator: Apple Native CoreSVG 326-->
<!DOCTYPE svg
PUBLIC "-//W3C//DTD SVG 1.1//EN"
       "http://www.w3.org/Graphics/SVG/1.1/DTD/svg11.dtd">
<svg version="1.1" xmlns="http://www.w3.org/2000/svg" xmlns:xlink="http://www.w3.org/1999/xlink" viewBox="0 0 25.8008 25.459">
 <g>
  <rect height="25.459" opacity="0" width="25.8008" x="0" y="0"/>
  <path d="M25.4395 12.7246C25.4395 19.7266 19.7266 25.4395 12.7148 25.4395C5.71289 25.4395 0 19.7266 0 12.7246C0 5.71289 5.71289 0 12.7148 0C19.7266 0 25.4395 5.71289 25.4395 12.7246ZM16.2793 18.7793C16.2793 19.6484 16.9629 20.3223 17.8223 20.3223C18.7012 20.3223 19.3848 19.6484 19.3848 18.7793C19.3848 17.9102 18.7012 17.207 17.8223 17.207C16.9629 17.207 16.2793 17.9102 16.2793 18.7793ZM9.25781 17.1191L6.46484 18.3105C6.08398 18.4668 5.87891 18.916 6.08398 19.3164C6.31836 19.8145 6.83594 19.8145 7.07031 19.707L10.1562 18.3789C10.3027 18.3105 10.4395 18.1934 10.5273 18.0176L11.9238 15.1855L11.6016 15.2051C11.0156 15.2441 10.459 15.0781 10.1172 14.7754ZM18.0566 7.53906L17.002 9.60938L16.1523 8.75977C15.5762 8.16406 14.9512 7.86133 14.0039 7.86133L9.28711 7.86133C8.99414 7.86133 8.74023 8.03711 8.61328 8.29102L7.08984 11.3086C6.91406 11.6895 7.04102 12.1191 7.44141 12.3047C7.87109 12.5 8.26172 12.3047 8.4375 11.9727L9.74609 9.36523L11.2988 9.36523C11.4746 9.36523 11.5723 9.53125 11.4941 9.67773L10.127 12.3926C9.60938 13.3984 10.2441 14.6582 11.5723 14.5801L15.2441 14.3457L13.8965 17.3828C13.7207 17.7539 13.877 18.2324 14.2578 18.3594C14.6875 18.5254 15.0684 18.3984 15.2441 17.9883L17.1387 13.8379C17.3438 13.3789 17.0605 12.7637 16.4746 12.7637L13.1445 12.7637L14.6191 9.80469C14.6875 9.67773 14.8242 9.64844 14.9316 9.74609L16.6797 11.416C17.0312 11.748 17.666 11.6992 17.9004 11.2305L19.3848 8.18359C19.5898 7.8125 19.4629 7.36328 19.0625 7.1875C18.6816 7.00195 18.252 7.1582 18.0566 7.53906ZM13.0273 5.56641C13.0273 6.42578 13.7109 7.12891 14.5605 7.12891C15.4492 7.12891 16.123 6.42578 16.123 5.56641C16.123 4.70703 15.4492 4.01367 14.5605 4.01367C13.7109 4.01367 13.0273 4.70703 13.0273 5.56641Z" fill="black" fill-opacity="0.85"/>
 </g>
</svg>
