<?xml version="1.0" encoding="UTF-8"?>
<!--Generator: Apple Native CoreSVG 326-->
<!DOCTYPE svg
PUBLIC "-//W3C//DTD SVG 1.1//EN"
       "http://www.w3.org/Graphics/SVG/1.1/DTD/svg11.dtd">
<svg version="1.1" xmlns="http://www.w3.org/2000/svg" xmlns:xlink="http://www.w3.org/1999/xlink" viewBox="0 0 25.8008 25.459">
 <g>
  <rect height="25.459" opacity="0" width="25.8008" x="0" y="0"/>
  <path d="M25.4395 12.7246C25.4395 19.7266 19.7266 25.4395 12.7148 25.4395C5.71289 25.4395 0 19.7266 0 12.7246C0 5.71289 5.71289 0 12.7148 0C19.7266 0 25.4395 5.71289 25.4395 12.7246ZM18.1543 15.7715C17.9199 15.7715 17.7539 15.9668 17.7539 16.1719L17.7539 17.5586L15.7812 17.5586C15.5566 17.5586 15.3809 17.7344 15.3809 17.959L15.3809 19.3359L13.418 19.3359C13.2129 19.3359 13.0176 19.5117 13.0176 19.7363L13.0176 21.1035L11.0449 21.1035C10.8301 21.1035 10.6445 21.2988 10.6445 21.4941C10.6445 21.709 10.8301 21.9141 11.0449 21.9141L13.418 21.9141C13.6523 21.9141 13.8184 21.709 13.8184 21.4941L13.8184 20.127L15.7812 20.127C15.9863 20.127 16.1719 19.9414 16.1719 19.7363L16.1719 18.3594L18.1543 18.3594C18.3887 18.3594 18.5547 18.1543 18.5547 17.959L18.5547 16.582L20.3711 16.582C20.5957 16.582 20.7812 16.3867 20.7812 16.1719C20.7812 15.9668 20.6055 15.7715 20.3711 15.7715ZM10.1758 16.7383L8.13477 19.7949C7.91992 20.127 7.98828 20.5664 8.33984 20.791C8.59375 20.957 9.05273 20.957 9.32617 20.5762L11.4355 17.4316C11.5234 17.2852 11.582 17.168 11.6113 16.9824L11.9043 14.8828L10.7812 14.6289C10.625 14.5898 10.459 14.5312 10.3223 14.4824ZM9.94141 7.37305L7.62695 8.81836C7.42188 8.94531 7.29492 9.16992 7.29492 9.43359L7.29492 12.2949C7.29492 12.6855 7.62695 13.0176 8.01758 13.0176C8.4082 13.0176 8.7207 12.6855 8.7207 12.2949L8.7207 9.81445L9.73633 9.18945C9.81445 9.14062 9.93164 9.18945 9.91211 9.31641L9.57031 11.9434C9.44336 12.9688 9.78516 13.6523 10.9473 13.9258L13.9258 14.6289L13.1152 17.3242C13.0078 17.6855 13.1445 18.0859 13.5938 18.1934C13.877 18.291 14.3457 18.1836 14.4824 17.7246L15.5176 14.2969C15.625 13.9258 15.459 13.5449 15.0684 13.418L12.2656 12.4316L12.6172 10.0586C12.627 9.91211 12.8125 9.88281 12.8711 10.0098L13.4863 11.1719C13.6133 11.4355 13.8477 11.5625 14.1016 11.5625L16.9727 11.5625C17.373 11.5625 17.6953 11.25 17.6953 10.8594C17.6953 10.4688 17.373 10.1465 16.9727 10.1465L14.5508 10.1465L13.6328 8.29102C13.3203 7.70508 12.793 7.26562 12.1191 7.1582L11.7188 7.07031C10.9961 6.93359 10.4004 7.08984 9.94141 7.37305ZM11.1133 4.96094C11.1133 5.82031 11.8164 6.51367 12.6758 6.51367C13.5352 6.51367 14.2285 5.82031 14.2285 4.96094C14.2285 4.10156 13.5352 3.39844 12.6758 3.39844C11.8164 3.39844 11.1133 4.10156 11.1133 4.96094Z" fill="black" fill-opacity="0.85"/>
 </g>
</svg>
