<?xml version="1.0" encoding="UTF-8"?>
<!--Generator: Apple Native CoreSVG 326-->
<!DOCTYPE svg
PUBLIC "-//W3C//DTD SVG 1.1//EN"
       "http://www.w3.org/Graphics/SVG/1.1/DTD/svg11.dtd">
<svg version="1.1" xmlns="http://www.w3.org/2000/svg" xmlns:xlink="http://www.w3.org/1999/xlink" viewBox="0 0 25.8008 25.459">
 <g>
  <rect height="25.459" opacity="0" width="25.8008" x="0" y="0"/>
  <path d="M12.7148 25.4395C19.7363 25.4395 25.4395 19.7461 25.4395 12.7246C25.4395 5.70312 19.7363 0 12.7148 0C5.69336 0 0 5.70312 0 12.7246C0 19.7461 5.69336 25.4395 12.7148 25.4395ZM12.7148 23.623C6.68945 23.623 1.81641 18.75 1.81641 12.7246C1.81641 6.69922 6.68945 1.82617 12.7148 1.82617C18.7402 1.82617 23.6133 6.69922 23.6133 12.7246C23.6133 18.75 18.7402 23.623 12.7148 23.623Z" fill="black" fill-opacity="0.85"/>
  <path d="M14.7266 7.14844C15.5078 7.14844 16.1426 6.50391 16.1426 5.71289C16.1426 4.93164 15.5078 4.28711 14.7266 4.28711C13.9355 4.28711 13.291 4.93164 13.291 5.71289C13.291 6.50391 13.9355 7.14844 14.7266 7.14844ZM8.17383 11.9043C8.57422 12.0801 8.93555 11.9043 9.0918 11.6016L10.2832 9.20898L11.7188 9.20898C11.8652 9.20898 11.9531 9.35547 11.8945 9.49219L10.6348 11.9824C10.166 12.9102 10.752 14.0723 11.9531 13.9941L15.332 13.7793L14.082 16.5625C13.9355 16.9043 14.082 17.334 14.4336 17.4609C14.8145 17.6172 15.166 17.5 15.332 17.1094L17.0801 13.3105C17.2559 12.8906 16.9922 12.3242 16.4648 12.3242L13.3984 12.3242L14.7559 9.60938C14.8145 9.49219 14.9512 9.46289 15.0488 9.55078L16.6602 11.084C16.9824 11.3965 17.5488 11.3477 17.7637 10.9082L19.1309 8.13477C19.3164 7.79297 19.209 7.36328 18.8379 7.19727C18.4961 7.03125 18.0859 7.17773 17.9102 7.51953L16.9434 9.42383L16.1621 8.64258C15.625 8.10547 15.0684 7.82227 14.209 7.82227L9.86328 7.82227C9.59961 7.82227 9.36523 7.98828 9.24805 8.21289L7.86133 10.9863C7.68555 11.3379 7.8125 11.7285 8.17383 11.9043ZM6.29883 18.6133C6.51367 19.0625 6.98242 19.082 7.20703 18.9746L10.6641 17.4707C10.8008 17.4121 10.9277 17.2949 11.0059 17.1484L12.2949 14.5508L12.002 14.5605C11.4355 14.5996 10.9863 14.4434 10.6348 14.1699L9.83398 16.3184L6.65039 17.6855C6.29883 17.8418 6.12305 18.252 6.29883 18.6133ZM17.7051 19.2578C18.4961 19.2578 19.1309 18.6328 19.1309 17.832C19.1309 17.041 18.4961 16.3965 17.7051 16.3965C16.9141 16.3965 16.2891 17.041 16.2891 17.832C16.2891 18.6328 16.9141 19.2578 17.7051 19.2578ZM7.53906 4.66797C7.53906 4.84375 7.68555 4.99023 7.86133 4.99023C8.45703 4.99023 8.83789 5.09766 9.21875 5.51758C9.3457 5.67383 9.48242 5.73242 9.60938 5.73242C9.74609 5.73242 9.87305 5.67383 10.0098 5.51758C10.4004 5.09766 10.7812 4.99023 11.3672 4.99023C11.5527 4.99023 11.6895 4.84375 11.6895 4.66797C11.6895 4.50195 11.543 4.35547 11.3574 4.35547C10.6348 4.35547 10.166 4.53125 9.60938 5.03906C9.07227 4.53125 8.59375 4.35547 7.87109 4.35547C7.68555 4.35547 7.53906 4.50195 7.53906 4.66797ZM7.24609 20.9375C7.45117 20.9375 7.60742 20.7812 7.60742 20.5762C7.60742 20.3809 7.45117 20.2246 7.24609 20.2246C7.05078 20.2246 6.88477 20.3809 6.88477 20.5762C6.88477 20.7812 7.05078 20.9375 7.24609 20.9375ZM8.45703 20.9375C8.66211 20.9375 8.81836 20.7812 8.81836 20.5762C8.81836 20.3809 8.66211 20.2246 8.45703 20.2246C8.25195 20.2246 8.10547 20.3809 8.10547 20.5762C8.10547 20.7812 8.25195 20.9375 8.45703 20.9375ZM9.66797 20.9375C9.87305 20.9375 10.0293 20.7812 10.0293 20.5762C10.0293 20.3809 9.87305 20.2246 9.66797 20.2246C9.46289 20.2246 9.30664 20.3809 9.30664 20.5762C9.30664 20.7812 9.46289 20.9375 9.66797 20.9375ZM10.8789 20.9375C11.084 20.9375 11.2402 20.7812 11.2402 20.5762C11.2402 20.3809 11.084 20.2246 10.8789 20.2246C10.6836 20.2246 10.5176 20.3809 10.5176 20.5762C10.5176 20.7812 10.6836 20.9375 10.8789 20.9375ZM12.0898 20.9375C12.2949 20.9375 12.4512 20.7812 12.4512 20.5762C12.4512 20.3809 12.2949 20.2246 12.0898 20.2246C11.8945 20.2246 11.7383 20.3809 11.7383 20.5762C11.7383 20.7812 11.8945 20.9375 12.0898 20.9375ZM13.3008 20.9375C13.5059 20.9375 13.6621 20.7812 13.6621 20.5762C13.6621 20.3809 13.5059 20.2246 13.3008 20.2246C13.1055 20.2246 12.9492 20.3809 12.9492 20.5762C12.9492 20.7812 13.1055 20.9375 13.3008 20.9375ZM14.5215 20.9375C14.7168 20.9375 14.873 20.7812 14.873 20.5762C14.873 20.3809 14.7168 20.2246 14.5215 20.2246C14.3164 20.2246 14.1602 20.3809 14.1602 20.5762C14.1602 20.7812 14.3164 20.9375 14.5215 20.9375ZM15.7324 20.9375C15.9277 20.9375 16.0938 20.7812 16.0938 20.5762C16.0938 20.3809 15.9277 20.2246 15.7324 20.2246C15.5273 20.2246 15.3711 20.3809 15.3711 20.5762C15.3711 20.7812 15.5273 20.9375 15.7324 20.9375ZM16.9336 20.9375C17.1484 20.9375 17.2949 20.7812 17.2949 20.5762C17.2949 20.3809 17.1484 20.2246 16.9336 20.2246C16.7383 20.2246 16.582 20.3809 16.582 20.5762C16.582 20.7812 16.7383 20.9375 16.9336 20.9375ZM18.1543 20.9375C18.3496 20.9375 18.5059 20.7812 18.5059 20.5762C18.5059 20.3809 18.3496 20.2246 18.1543 20.2246C17.9492 20.2246 17.793 20.3809 17.793 20.5762C17.793 20.7812 17.9492 20.9375 18.1543 20.9375Z" fill="black" fill-opacity="0.85"/>
 </g>
</svg>
