<?xml version="1.0" encoding="UTF-8"?>
<!--Generator: Apple Native CoreSVG 326-->
<!DOCTYPE svg
PUBLIC "-//W3C//DTD SVG 1.1//EN"
       "http://www.w3.org/Graphics/SVG/1.1/DTD/svg11.dtd">
<svg version="1.1" xmlns="http://www.w3.org/2000/svg" xmlns:xlink="http://www.w3.org/1999/xlink" viewBox="0 0 29.9512 22.959">
 <g>
  <rect height="22.959" opacity="0" width="29.9512" x="0" y="0"/>
  <path d="M29.5898 3.76953L29.5898 19.1992C29.5898 21.6797 28.3105 22.959 25.7812 22.959L3.79883 22.959C1.2793 22.959 0 21.6992 0 19.1992L0 3.76953C0 1.26953 1.2793 0 3.79883 0L25.7812 0C28.3105 0 29.5898 1.2793 29.5898 3.76953ZM3.83789 1.72852C2.4707 1.72852 1.72852 2.46094 1.72852 3.85742L1.72852 19.1016C1.72852 20.5078 2.4707 21.2305 3.83789 21.2305L25.752 21.2305C27.0898 21.2305 27.8516 20.5078 27.8516 19.1016L27.8516 3.85742C27.8516 2.46094 27.0898 1.72852 25.752 1.72852ZM17.7344 17.4902C17.7344 17.8711 17.4512 18.1543 17.0508 18.1543L6.23047 18.1543C5.82031 18.1543 5.53711 17.8711 5.53711 17.4902C5.53711 17.0996 5.82031 16.7969 6.23047 16.7969L17.0508 16.7969C17.4512 16.7969 17.7344 17.0996 17.7344 17.4902ZM17.7344 5.46875C17.7344 5.85938 17.4512 6.15234 17.0508 6.15234L6.23047 6.15234C5.82031 6.15234 5.53711 5.85938 5.53711 5.46875C5.53711 5.08789 5.82031 4.79492 6.23047 4.79492L17.0508 4.79492C17.4512 4.79492 17.7344 5.08789 17.7344 5.46875Z" fill="black" fill-opacity="0.85"/>
  <path d="M26.25 10.1562L26.25 12.7734C26.25 13.7598 25.6641 14.3945 24.668 14.3945L4.93164 14.3945C3.93555 14.3945 3.34961 13.7598 3.34961 12.7734L3.34961 10.1562C3.34961 9.16992 3.93555 8.54492 4.93164 8.54492L24.668 8.54492C25.6641 8.54492 26.25 9.16992 26.25 10.1562ZM6.24023 10.8008C5.83008 10.8008 5.54688 11.0938 5.54688 11.4746C5.54688 11.8652 5.83008 12.1582 6.24023 12.1582L12.8027 12.1582C13.1934 12.1582 13.4863 11.8652 13.4863 11.4746C13.4863 11.0938 13.1934 10.8008 12.8027 10.8008Z" fill="black" fill-opacity="0.85"/>
 </g>
</svg>
