<?xml version="1.0" ?><!-- Generator: Adobe Illustrator 25.0.0, SVG Export Plug-In . SVG Version: 6.00 Build 0)  --><svg xmlns="http://www.w3.org/2000/svg" xmlns:xlink="http://www.w3.org/1999/xlink" version="1.1" id="Layer_1" x="0px" y="0px" viewBox="0 0 512 512" style="enable-background:new 0 0 512 512;" xml:space="preserve">
<path d="M68.2,455.9h375.6c45.6,0,68.2-22.6,68.2-67.3V123.4c0-44.7-22.6-67.3-68.2-67.3H68.2C22.8,56.1,0,78.5,0,123.4v265.1  C0,433.5,22.8,455.9,68.2,455.9z M68.6,420.9c-21.7,0-33.7-11.5-33.7-34.1V125.2c0-22.6,11.9-34.1,33.7-34.1h374.8  c21.5,0,33.7,11.5,33.7,34.1v261.6c0,22.6-12.2,34.1-33.7,34.1H68.6z M110.7,165.3h183.7c7.8,0,13.5-5.9,13.5-13.5  c0-7.4-5.6-13.2-13.5-13.2H110.7c-7.8,0-13.5,5.9-13.5,13.2C97.3,159.5,102.9,165.3,110.7,165.3z M91.4,306.9h329.4  c18,0,28.7-11.3,28.7-29.1v-44.3c0-17.8-10.6-29.1-28.7-29.1H91.4c-18,0-28.7,11.3-28.7,29.1v44.3C62.8,295.6,73.4,306.9,91.4,306.9  z M111,269.1c-7.8,0-13.7-5.9-13.7-13.5c0-7.4,5.9-13.2,13.7-13.2h106.8c7.8,0,13.5,5.9,13.5,13.2c0,7.6-5.6,13.5-13.5,13.5H111z   M110.7,372.7h183.7c7.8,0,13.5-5.6,13.5-13c0-7.6-5.6-13.7-13.5-13.7H110.7c-7.8,0-13.5,6.1-13.5,13.7  C97.3,367.1,102.9,372.7,110.7,372.7z"/>
</svg>