<?xml version="1.0" ?><!-- Generator: Adobe Illustrator 25.0.0, SVG Export Plug-In . SVG Version: 6.00 Build 0)  --><svg xmlns="http://www.w3.org/2000/svg" xmlns:xlink="http://www.w3.org/1999/xlink" version="1.1" id="Layer_1" x="0px" y="0px" viewBox="0 0 512 512" style="enable-background:new 0 0 512 512;" xml:space="preserve">
<path d="M256,512c35,0,67.9-6.7,98.8-20.1c30.9-13.4,58.1-31.9,81.7-55.5c23.6-23.6,42.1-50.8,55.5-81.7  C505.3,323.9,512,291,512,256s-6.7-67.9-20.1-98.8c-13.4-30.9-31.9-58.1-55.5-81.7c-23.6-23.6-50.9-42.1-81.8-55.5  C323.7,6.7,290.7,0,255.7,0S187.9,6.7,157,20.1C126.1,33.5,98.9,52,75.4,75.5c-23.5,23.6-42,50.8-55.3,81.7C6.7,188.1,0,221,0,256  s6.7,67.9,20.1,98.8c13.4,30.9,31.9,58.1,55.5,81.7c23.6,23.6,50.8,42.1,81.7,55.5C188.1,505.3,221,512,256,512z M256,469.3  c-29.6,0-57.3-5.5-83.1-16.6c-25.8-11-48.4-26.3-67.9-45.8c-19.5-19.5-34.7-42.1-45.7-67.9c-11-25.8-16.4-53.5-16.4-83.1  c0-29.6,5.5-57.3,16.4-83.1c11-25.8,26.1-48.4,45.6-68s42-34.8,67.8-45.8c25.8-11,53.5-16.4,83.1-16.4c29.6,0,57.3,5.5,83.1,16.4  c25.8,11,48.4,26.2,68,45.8c19.6,19.6,34.9,42.2,45.9,68c11,25.8,16.6,53.5,16.6,83.1c0,29.6-5.5,57.3-16.4,83.1  c-11,25.8-26.2,48.4-45.7,67.9c-19.5,19.5-42.2,34.8-68,45.8C313.3,463.8,285.6,469.3,256,469.3z" class="hierarchical-0:secondary SFSymbolsPreview4D4D4D" style="fill: #4D4D4D;"/>
<path d="M137.8,367.7h236.7c7.5,0,13.5-2.2,17.9-6.5c4.4-4.4,6.7-10.2,6.7-17.6V168.7c0-7.4-2.2-13.2-6.7-17.6  c-4.4-4.4-10.4-6.5-17.9-6.5H137.8c-7.5,0-13.5,2.2-17.9,6.5c-4.4,4.4-6.7,10.2-6.7,17.6v174.9c0,7.4,2.2,13.2,6.7,17.6  C124.3,365.5,130.3,367.7,137.8,367.7z M203.5,269.8c-3.8,0-7.1-1.3-9.7-3.9c-2.6-2.6-3.9-5.8-3.9-9.7c0-4,1.3-7.3,3.9-9.9  c2.6-2.6,5.8-3.9,9.7-3.9h104.9c3.8,0,7.1,1.3,9.7,3.9c2.6,2.6,3.9,5.9,3.9,9.9c0,3.8-1.3,7.1-3.9,9.7c-2.6,2.6-5.8,3.9-9.7,3.9  H203.5z M352.6,347.1c-4.7,0-7-2.4-7-7.3v-17.1c0-5,2.3-7.5,7-7.5H372c4.9,0,7.3,2.5,7.3,7.5v16.6c0,5.2-2.6,7.8-7.8,7.8H352.6z   M140.5,347.1c-5.2,0-7.8-2.6-7.8-7.8v-16.6c0-5,2.4-7.5,7.3-7.5h19.3c4.7,0,7,2.5,7,7.5v17.1c0,4.9-2.3,7.3-7,7.3H140.5z   M352.6,246c-4.7,0-7-2.3-7-6.8v-17.3c0-4.9,2.3-7.3,7-7.3H372c4.9,0,7.3,2.4,7.3,7.3v17.3c0,4.5-2.4,6.8-7.3,6.8H352.6z M140,246  c-4.9,0-7.3-2.3-7.3-6.8v-17.3c0-4.9,2.4-7.3,7.3-7.3h19.3c4.7,0,7,2.4,7,7.3v17.3c0,4.5-2.3,6.8-7,6.8H140z M352.6,196.3  c-4.7,0-7-2.3-7-7v-16.6c0-5.2,2.3-7.8,7-7.8H372c4.9,0,7.3,2.6,7.3,7.8v16.6c0,4.7-2.4,7-7.3,7H352.6z M140,196.3  c-4.9,0-7.3-2.3-7.3-7v-16.6c0-5.2,2.4-7.8,7.3-7.8h19.3c4.7,0,7,2.6,7,7.8v16.6c0,4.7-2.3,7-7,7H140z M352.6,295.9  c-4.7,0-7-2.3-7-7v-16.8c0-4.9,2.3-7.3,7-7.3H372c4.9,0,7.3,2.4,7.3,7.3v16.8c0,4.7-2.4,7-7.3,7H352.6z M140,295.9  c-4.9,0-7.3-2.3-7.3-7v-16.8c0-4.9,2.4-7.3,7.3-7.3h19.3c4.7,0,7,2.4,7,7.3v16.8c0,4.7-2.3,7-7,7H140z" class="hierarchical-1:primary SFSymbolsPreview212121" style="fill: #212121;"/>
</svg>