<?xml version="1.0" encoding="UTF-8"?>
<!--Generator: Apple Native CoreSVG 326-->
<!DOCTYPE svg
PUBLIC "-//W3C//DTD SVG 1.1//EN"
       "http://www.w3.org/Graphics/SVG/1.1/DTD/svg11.dtd">
<svg version="1.1" xmlns="http://www.w3.org/2000/svg" xmlns:xlink="http://www.w3.org/1999/xlink" viewBox="0 0 25.8008 25.459">
 <g>
  <rect height="25.459" opacity="0" width="25.8008" x="0" y="0"/>
  <path d="M12.7148 25.4395C19.7363 25.4395 25.4395 19.7461 25.4395 12.7246C25.4395 5.70312 19.7363 0 12.7148 0C5.69336 0 0 5.70312 0 12.7246C0 19.7461 5.69336 25.4395 12.7148 25.4395ZM12.7148 23.623C6.68945 23.623 1.81641 18.75 1.81641 12.7246C1.81641 6.69922 6.68945 1.82617 12.7148 1.82617C18.7402 1.82617 23.6133 6.69922 23.6133 12.7246C23.6133 18.75 18.7402 23.623 12.7148 23.623Z" fill="black" fill-opacity="0.85"/>
  <path d="M6.61133 18.3594L18.8379 18.3594C19.5312 18.3594 19.9609 17.9297 19.9609 17.2461L19.9609 8.23242C19.9609 7.54883 19.5312 7.11914 18.8379 7.11914L6.61133 7.11914C5.91797 7.11914 5.48828 7.54883 5.48828 8.23242L5.48828 17.2461C5.48828 17.9297 5.91797 18.3594 6.61133 18.3594ZM6.80664 17.4023C6.54297 17.4023 6.39648 17.2363 6.39648 16.9922L6.39648 16.0742C6.39648 15.8594 6.5332 15.7129 6.76758 15.7129L7.8418 15.7129C8.04688 15.7129 8.18359 15.8594 8.18359 16.0742L8.18359 17.041C8.18359 17.2559 8.04688 17.4023 7.8418 17.4023ZM6.76758 14.8047C6.5332 14.8047 6.39648 14.6387 6.39648 14.4531L6.39648 13.5156C6.39648 13.2812 6.5332 13.1445 6.76758 13.1445L7.8418 13.1445C8.04688 13.1445 8.18359 13.2812 8.18359 13.5156L8.18359 14.4531C8.18359 14.6387 8.04688 14.8047 7.8418 14.8047ZM6.76758 12.2559C6.5332 12.2559 6.39648 12.0996 6.39648 11.9141L6.39648 10.957C6.39648 10.7324 6.5332 10.5859 6.76758 10.5859L7.8418 10.5859C8.04688 10.5859 8.18359 10.7324 8.18359 10.957L8.18359 11.9141C8.18359 12.0996 8.04688 12.2559 7.8418 12.2559ZM6.76758 9.72656C6.5332 9.72656 6.39648 9.57031 6.39648 9.375L6.39648 8.4375C6.39648 8.22266 6.5332 8.05664 6.76758 8.05664L7.8418 8.05664C8.04688 8.05664 8.18359 8.22266 8.18359 8.4375L8.18359 9.375C8.18359 9.57031 8.04688 9.72656 7.8418 9.72656ZM17.6074 17.4023C17.3926 17.4023 17.2559 17.2559 17.2559 17.041L17.2559 16.0742C17.2559 15.8594 17.3926 15.7129 17.6074 15.7129L18.6816 15.7129C18.916 15.7129 19.0527 15.8594 19.0527 16.0742L19.0527 16.9922C19.0527 17.2363 18.8965 17.4023 18.6426 17.4023ZM17.6074 14.8047C17.3926 14.8047 17.2559 14.6387 17.2559 14.4531L17.2559 13.5156C17.2559 13.2812 17.3926 13.1445 17.6074 13.1445L18.6816 13.1445C18.916 13.1445 19.0527 13.2812 19.0527 13.5156L19.0527 14.4531C19.0527 14.6387 18.916 14.8047 18.6816 14.8047ZM17.6074 12.2559C17.3926 12.2559 17.2559 12.0996 17.2559 11.9141L17.2559 10.957C17.2559 10.7324 17.3926 10.5859 17.6074 10.5859L18.6816 10.5859C18.916 10.5859 19.0527 10.7324 19.0527 10.957L19.0527 11.9141C19.0527 12.0996 18.916 12.2559 18.6816 12.2559ZM17.6074 9.72656C17.3926 9.72656 17.2559 9.57031 17.2559 9.375L17.2559 8.4375C17.2559 8.22266 17.3926 8.05664 17.6074 8.05664L18.6816 8.05664C18.916 8.05664 19.0527 8.22266 19.0527 8.4375L19.0527 9.375C19.0527 9.57031 18.916 9.72656 18.6816 9.72656ZM9.6875 12.2461C9.45312 12.2461 9.31641 12.0898 9.31641 11.8945L9.31641 8.4375C9.31641 8.22266 9.45312 8.05664 9.6875 8.05664L15.7617 8.05664C15.9766 8.05664 16.1133 8.22266 16.1133 8.4375L16.1133 11.8945C16.1133 12.0898 15.9766 12.2461 15.7617 12.2461ZM9.6875 17.4023C9.45312 17.4023 9.31641 17.2461 9.31641 17.0508L9.31641 13.5938C9.31641 13.3789 9.45312 13.2227 9.6875 13.2227L15.7617 13.2227C15.9766 13.2227 16.1133 13.3789 16.1133 13.5938L16.1133 17.0508C16.1133 17.2461 15.9766 17.4023 15.7617 17.4023Z" fill="black" fill-opacity="0.85"/>
 </g>
</svg>
