<?xml version="1.0" encoding="UTF-8"?>
<!--Generator: Apple Native CoreSVG 326-->
<!DOCTYPE svg
PUBLIC "-//W3C//DTD SVG 1.1//EN"
       "http://www.w3.org/Graphics/SVG/1.1/DTD/svg11.dtd">
<svg version="1.1" xmlns="http://www.w3.org/2000/svg" xmlns:xlink="http://www.w3.org/1999/xlink" viewBox="0 0 20.1048 31.0449">
 <g>
  <rect height="31.0449" opacity="0" width="20.1048" x="0" y="0"/>
  <path d="M7.36684 5.05859C8.77309 5.05859 9.88637 3.93555 9.88637 2.5293C9.88637 1.11328 8.77309 0.00976562 7.36684 0.00976562C5.95083 0.00976562 4.82778 1.11328 4.82778 2.5293C4.82778 3.93555 5.95083 5.05859 7.36684 5.05859ZM7.36684 3.81836C6.63442 3.81836 6.07778 3.25195 6.07778 2.5293C6.07778 1.80664 6.63442 1.25 7.36684 1.25C8.07973 1.25 8.63637 1.80664 8.63637 2.5293C8.63637 3.25195 8.07973 3.81836 7.36684 3.81836ZM1.56606 9.0625C2.58169 6.77734 4.14419 5.42969 7.93325 5.42969L13.0602 5.42969L13.0602 3.79883L7.93325 3.79883C3.46059 3.79883 1.27309 5.71289 0.0719216 8.39844C-0.162453 8.90625 0.198875 9.54102 0.823875 9.54102C1.14614 9.54102 1.43911 9.3457 1.56606 9.0625ZM11.0094 3.78906L11.0094 5.43945C11.0094 5.9375 11.3805 6.34766 11.8883 6.39648L18.6266 7.10938C19.2516 7.17773 19.7399 6.72852 19.7399 6.07422L19.7399 3.14453C19.7399 2.50977 19.2516 2.04102 18.6266 2.10938L11.8883 2.82227C11.3805 2.87109 11.0094 3.28125 11.0094 3.78906ZM6.77114 5.23438L6.77114 8.38867L8.72427 8.38867L8.72427 5.23438ZM4.94497 31.0449L10.5602 31.0449C12.2594 31.0449 13.4508 29.8438 13.4508 28.1445L13.4508 13.6133C13.4508 10.1953 11.0973 7.7832 7.7477 7.7832C4.40786 7.7832 2.04458 10.1953 2.04458 13.6133L2.04458 28.1445C2.04458 29.8438 3.24575 31.0449 4.94497 31.0449Z" fill="black" fill-opacity="0.85"/>
 </g>
</svg>
