<?xml version="1.0" encoding="UTF-8"?>
<!--Generator: Apple Native CoreSVG 326-->
<!DOCTYPE svg
PUBLIC "-//W3C//DTD SVG 1.1//EN"
       "http://www.w3.org/Graphics/SVG/1.1/DTD/svg11.dtd">
<svg version="1.1" xmlns="http://www.w3.org/2000/svg" xmlns:xlink="http://www.w3.org/1999/xlink" viewBox="0 0 28.3691 24.4434">
 <g>
  <rect height="24.4434" opacity="0" width="28.3691" x="0" y="0"/>
  <path d="M1.26953 5.26367L26.7285 5.26367C27.4902 5.26367 28.0078 4.74609 28.0078 3.98438L28.0078 1.26953C28.0078 0.507812 27.4902 0 26.7285 0L1.26953 0C0.507812 0 0 0.507812 0 1.26953L0 3.98438C0 4.74609 0.507812 5.26367 1.26953 5.26367ZM2.80273 23.457L25.2051 23.457L25.2051 6.62109L2.80273 6.62109ZM6.82617 22.6562L6.82617 10.5469C6.82617 9.46289 7.49023 8.78906 8.57422 8.78906L19.4336 8.78906C20.5078 8.78906 21.1816 9.46289 21.1816 10.5469L21.1816 22.6562L19.7949 22.6562L19.7949 10.8984C19.7949 10.4395 19.5215 10.166 19.082 10.166L8.92578 10.166C8.47656 10.166 8.21289 10.4395 8.21289 10.8984L8.21289 22.6562ZM13.8965 21.3965C11.9238 21.3965 10.625 20.2734 10.625 18.5645C10.625 17.0703 11.3379 16.5527 11.3379 15.459C11.3379 15.3027 11.3184 15.0781 11.3184 14.9707C11.3184 14.834 11.4062 14.7461 11.543 14.7461C11.9043 14.7461 12.3828 15.0684 12.627 15.5371C12.7051 14.541 12.2754 13.7598 11.6895 13.0176C11.4258 12.6855 11.6309 12.373 12.1387 12.373C14.375 12.373 17.5488 13.9355 17.5488 17.6758C17.5488 19.9121 16.0938 21.3965 13.8965 21.3965ZM14.0039 20.2148C14.9805 20.2148 15.4492 19.502 15.4492 18.6914C15.4492 17.7051 14.7559 16.8555 14.0332 16.5527C14.1602 17.2656 14.0332 17.8516 13.7988 18.2031C13.6914 17.9395 13.5449 17.7148 13.3301 17.5781C13.2422 18.0859 12.7246 18.3398 12.7246 19.0625C12.7246 19.7559 13.2422 20.2148 14.0039 20.2148ZM0.9375 24.3848L27.0703 24.3848C27.5488 24.3848 27.9395 23.9941 27.9395 23.5254C27.9395 23.0469 27.5488 22.6562 27.0703 22.6562L0.9375 22.6562C0.46875 22.6562 0.078125 23.0469 0.078125 23.5254C0.078125 23.9941 0.46875 24.3848 0.9375 24.3848Z" fill="black" fill-opacity="0.85"/>
 </g>
</svg>
