<?xml version="1.0" ?><!-- Generator: Adobe Illustrator 25.0.0, SVG Export Plug-In . SVG Version: 6.00 Build 0)  --><svg xmlns="http://www.w3.org/2000/svg" xmlns:xlink="http://www.w3.org/1999/xlink" version="1.1" id="Layer_1" x="0px" y="0px" viewBox="0 0 512 512" style="enable-background:new 0 0 512 512;" xml:space="preserve">
<path d="M449.3,443.8c7.4,7.1,19,7.1,25.9,0c7.4-7.1,7.4-18.8,0-25.9L62.6,5.3c-7.1-7.1-19-7.1-26.1,0c-6.9,6.9-6.9,19,0,25.9  L449.3,443.8z M143.4,46l315.9,315.7c4-5.7,5.9-12.8,5.9-21.4V99.2c0-12.8-10.9-20.2-24.7-20.2c-11.6,0-33.5,10-74.3,10  C284.2,89,229.6,47.4,143.4,46z M43.4,494.2c0,9.7,8.3,17.8,18.1,17.8c10,0,18.1-7.8,18.1-17.8V362.1c5.9-2.6,28.3-11.2,63.2-11.2  c84.3,0,136.8,39.2,216.4,42.8L48.1,83.3c-2.9,4.5-4.8,9.7-4.8,16.2V494.2z"/>
</svg>