<?xml version="1.0" ?><!-- Generator: Adobe Illustrator 25.0.0, SVG Export Plug-In . SVG Version: 6.00 Build 0)  --><svg xmlns="http://www.w3.org/2000/svg" xmlns:xlink="http://www.w3.org/1999/xlink" version="1.1" id="Layer_1" x="0px" y="0px" viewBox="0 0 512 512" style="enable-background:new 0 0 512 512;" xml:space="preserve">
<path d="M256,512c140,0,256-116.2,256-256C512,116,395.8,0,255.7,0C116,0,0,116,0,256C0,395.8,116.2,512,256,512z M256,469.3  c-118.5,0-213.1-94.9-213.1-213.3S137.3,42.7,255.7,42.7S469.1,137.5,469.3,256S374.5,469.3,256,469.3z M160.4,391  c6.8,0,11.3-5,11.3-11.5v-73.8c4.8-2,14.6-5.3,30.1-5.3c44.7,0,72.8,22.1,116.2,22.1c19.1,0,26.9-2,36.4-6.3  c10.5-5,15.3-12,15.3-23.3V169.2c0-7.5-3.8-12.8-14.1-12.8c-7.3,0-18.3,5.5-38.9,5.5c-42.7,0-71-22.3-116.2-22.3  c-19.6,0-27.4,2.3-36.4,6.3c-10.3,4.5-15.6,12.3-15.6,23.1v210.6C148.6,385.8,154.1,391,160.4,391z"/>
</svg>