<?xml version="1.0" ?><!-- Generator: Adobe Illustrator 25.0.0, SVG Export Plug-In . SVG Version: 6.00 Build 0)  --><svg xmlns="http://www.w3.org/2000/svg" xmlns:xlink="http://www.w3.org/1999/xlink" version="1.1" id="Layer_1" x="0px" y="0px" viewBox="0 0 512 512" style="enable-background:new 0 0 512 512;" xml:space="preserve">
<path d="M87.3,512h337.3c29.1,0,50.9-7.2,65.5-21.6c14.6-14.4,21.8-35.9,21.8-64.7V86.2c0-28.7-7.3-50.3-21.8-64.7  C475.6,7.2,453.8,0,424.7,0H87.3C58.2,0,36.4,7.2,21.8,21.6C7.3,35.9,0,57.5,0,86.2v339.6c0,28.7,7.3,50.3,21.8,64.7  C36.4,504.8,58.2,512,87.3,512z M87.9,467.2c-13.9,0-24.6-3.7-32-11c-7.4-7.3-11.1-18.2-11.1-32.7V88.4c0-14.5,3.7-25.4,11.1-32.7  c7.4-7.3,18.1-11,32-11h336.2c13.7,0,24.3,3.7,31.8,11c7.5,7.3,11.3,18.2,11.3,32.7v335.1c0,14.5-3.8,25.4-11.3,32.7  c-7.5,7.3-18.1,11-31.8,11H87.9z" class="multicolor-0:systemOrangeColor hierarchical-0:secondary SFSymbolsPreviewFF9500" style="fill: #FF9500;"/>
<path d="M150.7,405.2c3.5,0,6.5-1.3,8.9-3.8c2.4-2.5,3.6-5.5,3.6-9v-82c2.6-1.1,6.6-2.3,12.1-3.6s12.5-1.9,21-1.9  c16.7,0,31.7,2,45.1,6.1c13.3,4.1,26.7,8.2,39.9,12.2c13.3,4.1,28,6.1,44.1,6.1c10.4,0,18.4-0.6,23.9-1.8c5.6-1.2,10.9-3,16.1-5.4  c11.5-5.2,17.2-13.8,17.2-25.9V159.1c0-9.3-5.2-13.9-15.6-13.9c-4.1,0-9.5,1-16.1,2.9c-6.7,1.9-15.7,2.9-27,2.9  c-15.8,0-30.3-2-43.5-6.1c-13.3-4.1-26.7-8.2-40.2-12.4c-13.5-4.2-28.6-6.3-45.3-6.3c-10.8,0-18.9,0.6-24.3,1.8  c-5.5,1.2-10.7,2.9-15.7,5.1c-11.5,5-17.2,13.6-17.2,25.9v233.3c0,3.3,1.3,6.3,3.9,8.9C144.2,403.9,147.2,405.2,150.7,405.2z" class="multicolor-0:systemOrangeColor hierarchical-1:primary SFSymbolsPreviewFF9500" style="fill: #FF9500;"/>
</svg>