<?xml version="1.0" ?><!-- Generator: Adobe Illustrator 25.0.0, SVG Export Plug-In . SVG Version: 6.00 Build 0)  --><svg xmlns="http://www.w3.org/2000/svg" xmlns:xlink="http://www.w3.org/1999/xlink" version="1.1" id="Layer_1" x="0px" y="0px" viewBox="0 0 512 512" style="enable-background:new 0 0 512 512;" xml:space="preserve">
<path d="M449.3,443.8c7.4,7.1,19,7.1,25.9,0c7.1-7.4,7.4-18.8,0-25.9L62.6,5.3c-7.1-7.1-19-7.1-26.1,0c-6.9,6.9-6.9,19,0,25.9  L449.3,443.8z M460.5,360.5c3.3-5,4.8-11.4,4.8-20.2V99.2c0-12.8-10.9-20.2-24.7-20.2c-11.6,0-33.5,10-74.3,10  c-81.9,0-136.6-41.6-222.8-43l40.4,40.4c62,10,111.6,38.5,182.4,38.5c25.9,0,47.3-3.1,63.2-7.6v211.9L460.5,360.5z M61.4,512  c10,0,18.1-7.8,18.1-17.8V362.1c5.9-2.6,28.3-11.2,63.2-11.2c84.3,0,136.8,39.2,216.4,42.8l-42.8-43  c-56.1-10.5-104.5-35.6-173.6-35.6c-26.1,0-49.9,3.1-63.2,8.6V116.7l-33-33c-1.9,3.6-3.1,8.1-3.1,14.7v395.7  C43.4,503.9,51.7,512,61.4,512z"/>
</svg>