<?xml version="1.0" encoding="UTF-8"?>
<!--Generator: Apple Native CoreSVG 326-->
<!DOCTYPE svg
PUBLIC "-//W3C//DTD SVG 1.1//EN"
       "http://www.w3.org/Graphics/SVG/1.1/DTD/svg11.dtd">
<svg version="1.1" xmlns="http://www.w3.org/2000/svg" xmlns:xlink="http://www.w3.org/1999/xlink" viewBox="0 0 25.8008 25.459">
 <g>
  <rect height="25.459" opacity="0" width="25.8008" x="0" y="0"/>
  <path d="M12.7148 25.4395C19.7363 25.4395 25.4395 19.7461 25.4395 12.7246C25.4395 5.70312 19.7363 0 12.7148 0C5.69336 0 0 5.70312 0 12.7246C0 19.7461 5.69336 25.4395 12.7148 25.4395ZM12.7148 23.623C6.68945 23.623 1.81641 18.75 1.81641 12.7246C1.81641 6.69922 6.68945 1.82617 12.7148 1.82617C18.7402 1.82617 23.6133 6.69922 23.6133 12.7246C23.6133 18.75 18.7402 23.623 12.7148 23.623Z" fill="black" fill-opacity="0.85"/>
  <path d="M15.6445 18.0762C15.8887 17.9492 15.9668 17.6465 15.8301 17.4121L10.2246 7.71484C9.99023 7.31445 9.6582 7.2168 9.27734 7.2168C8.91602 7.2168 8.47656 7.43164 8.08594 7.63672C6.76758 8.42773 6.28906 9.56055 5.0293 10.2734C4.48242 10.5957 4.00391 10.7129 3.76953 10.8496C3.4668 11.0156 3.31055 11.3477 3.49609 11.6797L5.60547 15.3125C5.80078 15.6641 6.07422 15.8398 6.49414 15.8398C6.93359 15.8398 7.38281 15.6152 7.75391 15.4004C9.0918 14.6191 9.58008 13.4668 10.8203 12.7637C11.1914 12.5391 11.5332 12.4219 11.7871 12.334L14.9902 17.8906C15.127 18.1348 15.4102 18.2129 15.6445 18.0762ZM18.916 15.8398C19.3262 15.8398 19.5996 15.6641 19.8047 15.3223L21.9043 11.6895C22.0996 11.3477 21.9434 11.0254 21.6406 10.8594C21.4062 10.7129 20.9277 10.5957 20.3809 10.2734C19.1211 9.56055 18.6426 8.42773 17.3145 7.64648C16.9336 7.43164 16.4941 7.2168 16.1328 7.2168C15.752 7.2168 15.4199 7.31445 15.1855 7.72461L13.1934 11.1719L13.9355 12.4512C15.459 12.9785 16.3574 14.6484 17.6562 15.4004C18.0273 15.6152 18.4766 15.8398 18.916 15.8398ZM9.76562 18.0859C9.99023 18.2324 10.2734 18.1348 10.4199 17.8906L12.2266 14.7656L11.6699 13.8086L9.58008 17.4219C9.45312 17.6465 9.52148 17.959 9.76562 18.0859Z" fill="black" fill-opacity="0.85"/>
 </g>
</svg>
