<?xml version="1.0" encoding="UTF-8"?>
<!--Generator: Apple Native CoreSVG 326-->
<!DOCTYPE svg
PUBLIC "-//W3C//DTD SVG 1.1//EN"
       "http://www.w3.org/Graphics/SVG/1.1/DTD/svg11.dtd">
<svg version="1.1" xmlns="http://www.w3.org/2000/svg" xmlns:xlink="http://www.w3.org/1999/xlink" viewBox="0 0 22.9492 24.3457">
 <g>
  <rect height="24.3457" opacity="0" width="22.9492" x="0" y="0"/>
  <path d="M1.8457 24.3457C2.30469 24.3457 2.66602 23.9746 2.66602 23.5156L2.66602 16.3086C3.02734 16.2012 4.19922 15.7129 6.12305 15.7129C10.7422 15.7129 13.5938 17.9785 18.0078 17.9785C19.9121 17.9785 20.6836 17.7637 21.6016 17.3535C22.4121 16.9824 22.9492 16.3867 22.9492 15.3613L22.9492 2.73438C22.9492 2.09961 22.4414 1.74805 21.7871 1.74805C21.1816 1.74805 20.0195 2.29492 17.8516 2.29492C13.4277 2.29492 10.5762 0.0292969 5.9668 0.0292969C4.0625 0.0292969 3.30078 0.244141 2.38281 0.654297C1.5625 1.02539 1.02539 1.62109 1.02539 2.64648L1.02539 23.5156C1.02539 23.9648 1.40625 24.3457 1.8457 24.3457ZM2.66602 10.8496L2.66602 6.58203C2.86133 6.15234 4.00391 5.58594 5.9668 5.58594C6.36719 5.58594 6.86523 5.60547 7.31445 5.6543L7.31445 1.73828C9.01367 1.9043 10.5176 2.39258 12.041 2.85156L12.041 6.76758C13.6328 7.26562 15.1367 7.66602 16.7676 7.80273L16.7676 3.88672C17.1191 3.91602 17.4805 3.92578 17.8516 3.92578C19.1797 3.92578 20.3027 3.7793 21.3184 3.48633L21.3184 7.40234C20.6836 7.57812 19.4141 7.8418 17.8516 7.8418C17.4805 7.8418 17.0996 7.82227 16.7676 7.80273L16.7676 12.0703C17.0801 12.0996 17.4316 12.1191 17.8516 12.1191C19.1797 12.1191 20.3027 11.9629 21.3184 11.6699L21.3184 15.3418C21.123 15.7715 19.9902 16.3379 18.0078 16.3379C17.5879 16.3379 17.1777 16.3184 16.7676 16.2793L16.7676 12.0703C15.0781 11.8945 13.7207 11.582 12.041 11.0449L12.041 15.1465C10.5762 14.707 9.0625 14.2578 7.31445 14.1211L7.31445 9.92188C6.85547 9.88281 6.5625 9.85352 5.9668 9.85352C3.99414 9.85352 2.86133 10.4199 2.66602 10.8496ZM7.31445 9.92188C9.05273 10.1074 10.3711 10.5371 12.041 11.0449L12.041 6.76758C10.4688 6.29883 9.0625 5.83008 7.31445 5.6543Z" fill="black" fill-opacity="0.85"/>
 </g>
</svg>
