<?xml version="1.0" ?><!-- Generator: Adobe Illustrator 25.0.0, SVG Export Plug-In . SVG Version: 6.00 Build 0)  --><svg xmlns="http://www.w3.org/2000/svg" xmlns:xlink="http://www.w3.org/1999/xlink" version="1.1" id="Layer_1" x="0px" y="0px" viewBox="0 0 512 512" style="enable-background:new 0 0 512 512;" xml:space="preserve">
<path d="M256,512c35,0,67.9-6.7,98.8-20.1c30.9-13.4,58.1-31.9,81.7-55.5c23.6-23.6,42.1-50.8,55.5-81.7  C505.3,323.9,512,291,512,256s-6.7-67.9-20.1-98.8c-13.4-30.9-31.9-58.1-55.5-81.7c-23.6-23.6-50.9-42.1-81.8-55.5  C323.7,6.7,290.7,0,255.7,0S187.9,6.7,157,20.1C126.1,33.5,98.9,52,75.4,75.5c-23.5,23.6-42,50.8-55.3,81.7C6.7,188.1,0,221,0,256  s6.7,67.9,20.1,98.8c13.4,30.9,31.9,58.1,55.5,81.7s50.8,42.1,81.7,55.5C188.1,505.3,221,512,256,512z" class="hierarchical-0:tertiary SFSymbolsPreview8E8E8E" style="fill: #8E8E8E;"/>
<path d="M146.6,312.5c0-12.5,1.2-23.4,3.6-32.6c2.4-9.2,5.2-17.4,8.4-24.7c3.2-7.3,6-14.3,8.5-21.2c2.5-6.9,3.8-14.1,3.8-21.8  c0-3.3-0.2-6.9-0.6-10.5c-0.4-3.7-0.6-6.4-0.6-8c0-7.2,3.3-10.8,9.8-10.8c6.2,0,12.5,2.5,19.1,7.4c6.5,4.9,11.7,11.3,15.6,19.2  c1-3,1.5-6.3,1.5-9.8c-0.2-13.9-3.7-26.7-10.7-38.5c-6.9-11.8-14.6-22.6-23-32.5c-2.7-3.3-4-6.9-4-10.5c0-4.5,1.9-7.9,5.6-10.3  c3.8-2.3,8.9-3.5,15.4-3.5c14.9,0,30.6,2.1,47.2,6.4c16.6,4.3,32.8,10.9,48.7,20c15.9,9,30.3,20.6,43.2,34.6  c12.9,14.1,23.2,30.8,30.9,50.3c7.7,19.5,11.5,41.8,11.5,66.9c0,25.3-5.1,47.3-15.4,66.1c-10.3,18.8-24.7,33.5-43.3,44  c-18.6,10.5-40.2,15.8-65,15.8c-22.1,0-41.4-4-58-11.9c-16.6-7.9-29.4-19.1-38.5-33.5S146.6,331.7,146.6,312.5z M216.3,329  c0,12,4.1,21.7,12.2,29c8.1,7.3,18.7,10.9,31.7,10.9c16.7,0,29.2-5.3,37.3-15.8c8.1-10.5,12.2-22.8,12.2-36.9  c0-13.6-3.9-27.2-11.7-40.9s-19.5-24.3-35-31.6c-0.5-0.2-1-0.1-1.4,0.1c-0.4,0.3-0.5,0.9-0.4,1.9c1.2,11.2,1,21.8-0.5,31.6  c-1.5,9.9-4.2,17.4-8,22.6c-2-4.2-4.1-8-6.1-11.5c-2.1-3.5-4.8-6.6-8.2-9.3c-0.5-0.7-1-0.9-1.4-0.8c-0.4,0.2-0.6,0.7-0.6,1.5  c-0.8,5.4-2.9,10.2-6.1,14.4c-3.3,4.3-6.4,9.1-9.4,14.4S216.3,320.8,216.3,329z" class="hierarchical-1:primary SFSymbolsPreview212121" style="fill: #212121;"/>
</svg>