<?xml version="1.0" encoding="UTF-8"?>
<!--Generator: Apple Native CoreSVG 326-->
<!DOCTYPE svg
PUBLIC "-//W3C//DTD SVG 1.1//EN"
       "http://www.w3.org/Graphics/SVG/1.1/DTD/svg11.dtd">
<svg version="1.1" xmlns="http://www.w3.org/2000/svg" xmlns:xlink="http://www.w3.org/1999/xlink" viewBox="0 0 21.1133 29.3262">
 <g>
  <rect height="29.3262" opacity="0" width="21.1133" x="0" y="0"/>
  <path d="M9.80469 27.0215C16.3672 27.0215 20.752 22.5781 20.752 15.8594C20.752 4.69727 11.25 0 4.53125 0C3.44727 0 2.7832 0.380859 2.7832 1.11328C2.7832 1.39648 2.91016 1.68945 3.16406 1.98242C4.66797 3.78906 6.18164 5.95703 6.20117 8.37891C6.20117 9.00391 6.10352 9.57031 5.66406 10.2539L6.25 10.1367C5.66406 8.32031 4.08203 7.06055 2.83203 7.06055C2.37305 7.06055 2.07031 7.39258 2.07031 7.88086C2.07031 8.21289 2.16797 8.98438 2.16797 9.54102C2.16797 12.5098 0 14.0723 0 18.5645C0 23.6523 3.88672 27.0215 9.80469 27.0215ZM9.91211 25.498C4.90234 25.498 1.54297 22.7051 1.54297 18.5645C1.54297 14.3848 3.74023 13.1445 3.74023 9.70703C3.74023 9.21875 3.64258 8.75 3.54492 8.32031L3.28125 8.76953C4.26758 9.27734 5.13672 10.3711 5.56641 12.0312C5.625 12.2754 5.74219 12.3828 5.92773 12.3828C6.81641 12.3828 7.56836 10.1465 7.56836 8.53516C7.56836 5.77148 6.35742 3.22266 4.27734 1.12305L3.98438 1.47461C12.9395 1.57227 19.1406 7.57812 19.1406 15.8105C19.1406 21.5918 15.4297 25.498 9.91211 25.498ZM10.0586 23.4766C12.9883 23.4766 14.4141 21.3379 14.4141 18.8965C14.4141 16.4941 13.0078 13.8379 10.3223 12.5586C10.2148 12.5098 10.1367 12.5781 10.1562 12.6855C10.3906 14.7266 10.0781 16.582 9.42383 17.4609C9.11133 16.748 8.73047 16.123 8.16406 15.625C8.06641 15.5566 7.99805 15.5859 7.97852 15.7031C7.77344 17.0898 6.25 17.8711 6.25 20.0293C6.25 22.0996 7.76367 23.4766 10.0586 23.4766Z" fill="black" fill-opacity="0.85"/>
 </g>
</svg>
