<?xml version="1.0" ?><!-- Generator: Adobe Illustrator 25.0.0, SVG Export Plug-In . SVG Version: 6.00 Build 0)  --><svg xmlns="http://www.w3.org/2000/svg" xmlns:xlink="http://www.w3.org/1999/xlink" version="1.1" id="Layer_1" x="0px" y="0px" viewBox="0 0 512 512" style="enable-background:new 0 0 512 512;" xml:space="preserve">
<path d="M244.9,512c125,0,208.3-84.5,208.3-211.9C453.2,88.3,272.8,0,147.6,0c-22.3,0-36.5,7.8-36.5,23c0,5.9,2.6,12.1,7.6,17.8  c28.2,33.6,56.3,73.6,56.8,120.2c0,5.9-0.5,11.6-2.1,17.8c-13-27.7-37.4-46.2-59.2-46.2c-9.7,0-16.3,7.1-16.3,17.8  c0,6.2,1.7,20.6,1.7,31c0,53-40.7,84-40.7,169.5C58.8,447.6,132.9,512,244.9,512z M250.3,445.5c-44.3,0-73.6-26.7-73.6-66.5  c0-41.7,29.6-56.6,33.4-83.3c0.5-2.1,1.9-2.8,3.6-1.4c10.9,9.7,18,21.5,23.9,35.3c12.5-17,18.5-53,14.4-91.8  c-0.2-2.1,1.2-3.3,3.3-2.6c51.8,24.4,78.8,76,78.8,122.1C334.1,404.1,306.7,445.5,250.3,445.5z"/>
</svg>