<?xml version="1.0" ?><!-- Generator: Adobe Illustrator 25.0.0, SVG Export Plug-In . SVG Version: 6.00 Build 0)  --><svg xmlns="http://www.w3.org/2000/svg" xmlns:xlink="http://www.w3.org/1999/xlink" version="1.1" id="Layer_1" x="0px" y="0px" viewBox="0 0 512 512" style="enable-background:new 0 0 512 512;" xml:space="preserve">
<path d="M256,512c35,0,67.9-6.7,98.8-20.1c30.9-13.4,58.1-31.9,81.7-55.5c23.6-23.6,42.1-50.8,55.5-81.7  C505.3,323.9,512,291,512,256s-6.7-67.9-20.1-98.8c-13.4-30.9-31.9-58.1-55.5-81.7c-23.6-23.6-50.9-42.1-81.8-55.5  C323.7,6.7,290.7,0,255.7,0S187.9,6.7,157,20.1C126.1,33.5,98.9,52,75.4,75.5c-23.5,23.6-42,50.8-55.3,81.7C6.7,188.1,0,221,0,256  s6.7,67.9,20.1,98.8c13.4,30.9,31.9,58.1,55.5,81.7c23.6,23.6,50.8,42.1,81.7,55.5C188.1,505.3,221,512,256,512z M256,469.3  c-29.6,0-57.3-5.5-83.1-16.6c-25.8-11-48.4-26.3-67.9-45.8c-19.5-19.5-34.7-42.1-45.7-67.9c-11-25.8-16.4-53.5-16.4-83.1  c0-29.6,5.5-57.3,16.4-83.1c11-25.8,26.1-48.4,45.6-68s42-34.8,67.8-45.8c25.8-11,53.5-16.4,83.1-16.4c29.6,0,57.3,5.5,83.1,16.4  c25.8,11,48.4,26.2,68,45.8c19.6,19.6,34.9,42.2,45.9,68c11,25.8,16.6,53.5,16.6,83.1c0,29.6-5.5,57.3-16.4,83.1  c-11,25.8-26.2,48.4-45.7,67.9c-19.5,19.5-42.2,34.8-68,45.8C313.3,463.8,285.6,469.3,256,469.3z" class="hierarchical-0:secondary SFSymbolsPreview4D4D4D" style="fill: #4D4D4D;"/>
<path d="M257,403.8c24.1,0,45.1-5.1,63.1-15.3c18-10.2,32-24.5,41.9-42.8c10-18.3,14.9-39.7,14.9-64.1c0-30.5-5.6-56.6-16.9-78.6  c-11.3-21.9-25.9-39.8-43.9-53.7c-18-13.9-37.1-24.1-57.5-30.7c-20.3-6.6-39.5-9.9-57.6-9.9c-6.4,0-11.4,1.1-15.1,3.4  c-3.7,2.3-5.5,5.6-5.5,9.9c0,3.5,1.3,6.9,4,10.3c8,9.5,15.4,20.1,22.2,31.6c6.8,11.5,10.2,24,10.4,37.4c0,3.2-0.3,6.3-0.9,9.3  c-0.6,3-2,6.4-4.1,10l6.8-1.3c-3.2-10-8.3-18.3-15.4-24.7c-7.1-6.4-14.3-9.7-21.5-9.7c-6.4,0-9.5,3.4-9.5,10.3  c0,1.7,0.2,4.3,0.6,7.9c0.4,3.6,0.6,7,0.6,10.2c0,7.5-1.2,14.6-3.6,21.2c-2.4,6.6-5.2,13.4-8.3,20.5c-3.1,7-5.8,15-8.2,24  c-2.3,9-3.5,19.5-3.5,31.7c0,18.6,4.4,34.8,13.3,48.8c8.9,14,21.3,24.8,37.4,32.6C216.8,399.9,235.6,403.8,257,403.8z M260.3,365.4  c-12.5,0-22.8-3.6-30.6-10.7c-7.9-7.1-11.8-16.4-11.8-28c0-7.9,1.5-14.4,4.4-19.6c2.9-5.2,6-9.9,9.2-14.1c3.2-4.2,5.1-8.9,5.8-14.1  c0-0.7,0.2-1.1,0.6-1.3c0.4-0.2,0.9,0,1.4,0.5c3.2,2.7,5.8,5.7,7.9,9.2c2.1,3.4,4.1,7.2,5.9,11.2c3.7-5,6.3-12.3,7.8-21.8  c1.5-9.5,1.7-19.8,0.5-30.9c-0.2-0.8,0-1.4,0.4-1.6c0.4-0.3,0.9-0.3,1.4-0.1c15.1,7,26.4,17.2,33.9,30.5s11.3,26.6,11.3,39.8  c0,13.6-3.9,25.4-11.8,35.6C288.5,360.3,276.5,365.4,260.3,365.4z" class="hierarchical-1:primary SFSymbolsPreview212121" style="fill: #212121;"/>
</svg>