<?xml version="1.0" encoding="UTF-8"?>
<!--Generator: Apple Native CoreSVG 326-->
<!DOCTYPE svg
PUBLIC "-//W3C//DTD SVG 1.1//EN"
       "http://www.w3.org/Graphics/SVG/1.1/DTD/svg11.dtd">
<svg version="1.1" xmlns="http://www.w3.org/2000/svg" xmlns:xlink="http://www.w3.org/1999/xlink" viewBox="0 0 25.8008 25.459">
 <g>
  <rect height="25.459" opacity="0" width="25.8008" x="0" y="0"/>
  <path d="M25.4395 12.7246C25.4395 19.7461 19.7363 25.4395 12.7148 25.4395C5.69336 25.4395 0 19.7461 0 12.7246C0 5.70312 5.69336 0 12.7148 0C19.7363 0 25.4395 5.70312 25.4395 12.7246ZM1.81641 12.7246C1.81641 18.75 6.68945 23.623 12.7148 23.623C18.7402 23.623 23.6133 18.75 23.6133 12.7246C23.6133 6.69922 18.7402 1.82617 12.7148 1.82617C6.68945 1.82617 1.81641 6.69922 1.81641 12.7246Z" fill="black" fill-opacity="0.85"/>
  <path d="M14.668 16.582L14.668 19.5605C14.668 20.4297 14.1992 20.9082 13.3691 20.9082L12.0605 20.9082C11.2305 20.9082 10.7617 20.4297 10.7617 19.5605L10.7617 12.6758ZM16.1035 7.58789C16.1035 8.21289 15.8789 8.69141 15.5273 9.21875L15.127 9.84375C14.8438 10.2637 14.668 10.791 14.668 11.5723L14.668 12.7498L9.33594 7.41339L9.33594 6.875L16.1035 6.875ZM16.1035 5.87891L16.1035 6.13281L9.33594 6.13281L9.33594 5.87891C9.33594 4.99023 9.76562 4.53125 10.6445 4.53125L14.7754 4.53125C15.6641 4.53125 16.1035 4.99023 16.1035 5.87891Z" fill="black" fill-opacity="0.85"/>
  <path d="M18.2812 18.9941C18.4766 19.1992 18.8086 19.1992 19.0137 18.9941C19.2188 18.7891 19.2188 18.4766 19.0137 18.2617L7.1875 6.43555C6.98242 6.23047 6.65039 6.23047 6.44531 6.43555C6.24023 6.64062 6.25 6.97266 6.44531 7.16797Z" fill="black" fill-opacity="0.85"/>
 </g>
</svg>
