<?xml version="1.0" encoding="UTF-8"?>
<!--Generator: Apple Native CoreSVG 326-->
<!DOCTYPE svg
PUBLIC "-//W3C//DTD SVG 1.1//EN"
       "http://www.w3.org/Graphics/SVG/1.1/DTD/svg11.dtd">
<svg version="1.1" xmlns="http://www.w3.org/2000/svg" xmlns:xlink="http://www.w3.org/1999/xlink" viewBox="0 0 25.8008 25.459">
 <g>
  <rect height="25.459" opacity="0" width="25.8008" x="0" y="0"/>
  <path d="M12.7148 25.4395C19.7363 25.4395 25.4395 19.7461 25.4395 12.7246C25.4395 5.70312 19.7363 0 12.7148 0C5.69336 0 0 5.70312 0 12.7246C0 19.7461 5.69336 25.4395 12.7148 25.4395ZM12.7148 23.623C6.68945 23.623 1.81641 18.75 1.81641 12.7246C1.81641 6.69922 6.68945 1.82617 12.7148 1.82617C18.7402 1.82617 23.6133 6.69922 23.6133 12.7246C23.6133 18.75 18.7402 23.623 12.7148 23.623Z" fill="black" fill-opacity="0.85"/>
  <path d="M9.33594 6.13281L16.1035 6.13281L16.1035 5.87891C16.1035 4.99023 15.6641 4.53125 14.7754 4.53125L10.6445 4.53125C9.76562 4.53125 9.33594 4.99023 9.33594 5.87891ZM12.0605 20.9082L13.3691 20.9082C14.1992 20.9082 14.668 20.4297 14.668 19.5605L14.668 11.5723C14.668 10.791 14.8438 10.2637 15.127 9.84375L15.5273 9.21875C15.8789 8.69141 16.1035 8.21289 16.1035 7.58789L16.1035 6.875L9.33594 6.875L9.33594 7.58789C9.33594 8.21289 9.56055 8.68164 9.90234 9.21875L10.3027 9.84375C10.5762 10.2734 10.7617 10.791 10.7617 11.5723L10.7617 19.5605C10.7617 20.4297 11.2305 20.9082 12.0605 20.9082ZM11.5137 14.248L11.5137 12.1973C11.5137 11.5332 12.0312 10.9863 12.7148 10.9863C13.3887 10.9863 13.9258 11.5332 13.9258 12.1973L13.9258 14.248C13.9258 14.9219 13.3887 15.459 12.7148 15.459C12.0312 15.459 11.5137 14.9219 11.5137 14.248ZM12.7148 11.4258C12.2754 11.4258 11.9434 11.7676 11.9434 12.1973C11.9434 12.627 12.2852 12.9785 12.7148 12.9785C13.1543 12.9785 13.4863 12.627 13.4863 12.1973C13.4863 11.7676 13.1738 11.4258 12.7148 11.4258Z" fill="black" fill-opacity="0.85"/>
 </g>
</svg>
