<?xml version="1.0" encoding="UTF-8"?>
<!--Generator: Apple Native CoreSVG 326-->
<!DOCTYPE svg
PUBLIC "-//W3C//DTD SVG 1.1//EN"
       "http://www.w3.org/Graphics/SVG/1.1/DTD/svg11.dtd">
<svg version="1.1" xmlns="http://www.w3.org/2000/svg" xmlns:xlink="http://www.w3.org/1999/xlink" viewBox="0 0 25.8008 25.459">
 <g>
  <rect height="25.459" opacity="0" width="25.8008" x="0" y="0"/>
  <path d="M25.4395 12.7344C25.4395 19.7461 19.7266 25.459 12.7148 25.459C5.71289 25.459 0 19.7461 0 12.7344C0 5.73242 5.71289 0.0195312 12.7148 0.0195312C19.7266 0.0195312 25.4395 5.73242 25.4395 12.7344ZM10.7129 19.7461C10.7129 20.6348 11.1914 21.123 12.041 21.123L13.3887 21.123C14.248 21.123 14.7266 20.6348 14.7266 19.7461L14.7266 16.709L10.7129 12.6953ZM6.2793 6.29883C6.07422 6.51367 6.08398 6.85547 6.2793 7.05078L18.4082 19.1699C18.6035 19.375 18.9551 19.375 19.1602 19.1699C19.3652 18.9453 19.3652 18.623 19.1602 18.418L7.04102 6.29883C6.83594 6.08398 6.50391 6.08398 6.2793 6.29883ZM9.24805 6.75781L9.24805 7.28644L14.7266 12.7694L14.7266 11.5625C14.7266 10.7617 14.8926 10.2246 15.1855 9.78516L15.5957 9.14062C15.957 8.60352 16.1816 8.125 16.1816 7.4707L16.1816 6.75781ZM10.5957 4.35547C9.69727 4.35547 9.24805 4.81445 9.24805 5.72266L9.24805 5.99609L16.1816 5.99609L16.1816 5.72266C16.1816 4.81445 15.7324 4.35547 14.8242 4.35547Z" fill="black" fill-opacity="0.85"/>
 </g>
</svg>
