<?xml version="1.0" encoding="UTF-8"?>
<!--Generator: Apple Native CoreSVG 326-->
<!DOCTYPE svg
PUBLIC "-//W3C//DTD SVG 1.1//EN"
       "http://www.w3.org/Graphics/SVG/1.1/DTD/svg11.dtd">
<svg version="1.1" xmlns="http://www.w3.org/2000/svg" xmlns:xlink="http://www.w3.org/1999/xlink" viewBox="0 0 23.6523 25.8301">
 <g>
  <rect height="25.8301" opacity="0" width="23.6523" x="0" y="0"/>
  <path d="M3.26172 25.8105L20.0195 25.8105C22.0605 25.8105 23.291 24.375 23.291 22.5684C23.291 21.9531 23.0273 21.1426 22.4316 20.2832L15.752 10.6934L14.375 11.6699L21.2305 21.4941C21.5234 21.9141 21.543 22.2656 21.543 22.5586C21.543 23.3789 20.9668 24.1113 20 24.1113L3.28125 24.1113C2.31445 24.1113 1.73828 23.3789 1.73828 22.5586C1.73828 22.2656 1.76758 21.9141 2.06055 21.4941L8.90625 11.6699L7.53906 10.6934L0.771484 20.4004C0.224609 21.1816 0 21.9531 0 22.5684C0 24.375 1.23047 25.8105 3.26172 25.8105ZM7.17773 11.6699L8.90625 11.6699L8.90625 0.9375L7.17773 0.9375ZM16.1133 11.6699L16.1133 0.9375L14.375 0.9375L14.375 11.6699ZM7.04102 1.80664L16.25 1.80664C16.7773 1.80664 17.1484 1.38672 17.1484 0.898438C17.1484 0.400391 16.7773 0 16.25 0L7.04102 0C6.50391 0 6.13281 0.400391 6.13281 0.898438C6.13281 1.38672 6.50391 1.80664 7.04102 1.80664ZM8.00781 5.16602L11.3086 5.16602C11.6699 5.16602 11.9531 4.88281 11.9531 4.51172C11.9531 4.16016 11.6504 3.86719 11.2988 3.86719L8.00781 3.86719ZM8.01758 8.64258L11.3184 8.64258C11.6797 8.64258 11.9629 8.35938 11.9629 7.98828C11.9629 7.64648 11.6602 7.35352 11.3086 7.35352L8.01758 7.35352ZM8.01758 12.1289L11.3184 12.1289C11.6797 12.1289 11.9629 11.8457 11.9629 11.4746C11.9629 11.123 11.6699 10.8301 11.3184 10.8301L8.01758 10.8301Z" fill="black" fill-opacity="0.85"/>
 </g>
</svg>
