<?xml version="1.0" encoding="UTF-8"?>
<!--Generator: Apple Native CoreSVG 326-->
<!DOCTYPE svg
PUBLIC "-//W3C//DTD SVG 1.1//EN"
       "http://www.w3.org/Graphics/SVG/1.1/DTD/svg11.dtd">
<svg version="1.1" xmlns="http://www.w3.org/2000/svg" xmlns:xlink="http://www.w3.org/1999/xlink" viewBox="0 0 23.8965 27.7441">
 <g>
  <rect height="27.7441" opacity="0" width="23.8965" x="0" y="0"/>
  <path d="M1.98242 16.2793C1.98242 22.002 6.28906 27.7441 14.0918 27.7441C17.5684 27.7441 20.0781 26.1426 20.0781 24.1406C20.0781 23.125 19.3457 22.4121 18.0469 22.2949C17.7441 22.2559 17.4707 22.373 17.4219 22.7441C17.2266 24.5508 16.1133 25.7812 14.502 25.7812C13.3496 25.7812 12.6465 25.0977 12.6465 24.209C12.6465 21.1035 21.3574 20.5762 21.3574 14.9902C21.3574 12.2754 19.3848 10.4199 16.9141 10.4199C14.5312 10.4199 12.6172 11.7871 11.8066 13.8574C11.9434 10.7812 10.1074 9.02344 7.69531 9.02344C4.07227 9.02344 1.98242 12.3242 1.98242 16.2793ZM3.61328 16.2793C3.61328 12.793 5.16602 10.6543 7.58789 10.6543C9.70703 10.6543 10.9082 12.4512 10.9863 14.9609C11.0156 15.7031 11.9434 15.7324 12.207 15.2051C13.2324 13.1348 15.0098 12.0508 16.8848 12.0508C18.5059 12.0508 19.7266 13.2031 19.7266 15.0879C19.7266 19.4727 11.0449 19.8242 11.0449 24.209C11.0449 24.9316 11.377 25.5566 11.9629 25.9277C6.57227 25.1074 3.61328 20.9863 3.61328 16.2793ZM4.90234 2.50977C9.04297 2.50977 12.8027 8.4082 18.8379 8.4082C21.8359 8.4082 23.5352 6.62109 23.5352 4.15039C23.5352 3.33008 23.3203 2.40234 22.8711 1.55273C22.4023 0.634766 20.9766 1.23047 21.5039 2.26562C21.8555 2.93945 22.0508 3.67188 22.0508 4.28711C22.0508 5.89844 20.9473 6.88477 18.8379 6.88477C13.623 6.88477 9.87305 0.976562 4.90234 0.976562C1.81641 0.976562 0 2.98828 0 5.36133C0 6.15234 0.195312 6.97266 0.615234 7.79297C1.08398 8.70117 2.49023 8.06641 1.98242 7.08008C1.65039 6.43555 1.50391 5.81055 1.50391 5.24414C1.50391 3.67188 2.70508 2.50977 4.90234 2.50977ZM11.1133 13.9258L11.8164 14.1406L12.6465 13.5938C13.1445 9.88281 15.7227 7.68555 15.7227 4.32617C15.7227 2.19727 14.2578 0.517578 12.3145 0.517578C10.6152 0.517578 9.22852 1.78711 9.16016 3.51562L10.5859 3.93555C10.625 2.8125 11.2988 2.05078 12.3145 2.05078C13.4082 2.05078 14.1895 2.94922 14.1895 4.32617C14.1895 7.08984 11.4453 9.4043 11.1133 13.9258Z" fill="black" fill-opacity="0.85"/>
 </g>
</svg>
