<?xml version="1.0" ?><!-- Generator: Adobe Illustrator 25.0.0, SVG Export Plug-In . SVG Version: 6.00 Build 0)  --><svg xmlns="http://www.w3.org/2000/svg" xmlns:xlink="http://www.w3.org/1999/xlink" version="1.1" id="Layer_1" x="0px" y="0px" viewBox="0 0 512 512" style="enable-background:new 0 0 512 512;" xml:space="preserve">
<path d="M256,512c140,0,256-116.2,256-256C512,116,395.8,0,255.7,0C116,0,0,116,0,256C0,395.8,116.2,512,256,512z M194,380.7  c-11,0-19.6-0.8-25.9-3.5c-8.8-3-13.1-8.5-13.1-16.1c0-7.8,5.5-13.8,14.8-13.8c3.3,0,5.3,0.3,7.5,0.8c4.3,0.8,7.3,1.8,15.1,1.8  c22.8,0,33.4-10.8,37.9-36.9l8-49.4h-47.9c-8.8,0-14.1-5.3-14.1-13.3c0-8.8,5.5-14.3,14.1-14.3h52l6.8-42.4  c7-42.9,28.9-63.7,68.3-63.7c10.8,0,19.3,1,25.6,3.5c8.8,3,13.1,8.8,13.1,16.1c0,7.8-5.5,13.8-14.8,13.8c-3,0-5.3-0.3-7.3-0.8  c-4.3-0.8-7.5-1.5-15.1-1.5c-22.8,0-33.4,10.5-37.6,35.6l-6,39.4H325c8.8,0,14.3,5.5,14.3,14.3c0,8-5.5,13.3-14.3,13.3h-54.2  l-8.5,53.7C255.2,360.2,233.4,380.7,194,380.7z"/>
</svg>