<?xml version="1.0" encoding="UTF-8"?>
<!--Generator: Apple Native CoreSVG 326-->
<!DOCTYPE svg
PUBLIC "-//W3C//DTD SVG 1.1//EN"
       "http://www.w3.org/Graphics/SVG/1.1/DTD/svg11.dtd">
<svg version="1.1" xmlns="http://www.w3.org/2000/svg" xmlns:xlink="http://www.w3.org/1999/xlink" viewBox="0 0 25.8008 25.459">
 <g>
  <rect height="25.459" opacity="0" width="25.8008" x="0" y="0"/>
  <path d="M25.4395 12.7246C25.4395 19.7266 19.7266 25.4395 12.7148 25.4395C5.71289 25.4395 0 19.7266 0 12.7246C0 5.71289 5.71289 0 12.7148 0C19.7266 0 25.4395 5.71289 25.4395 12.7246ZM12.4316 9.94141L12.0801 11.9824L9.4043 11.9824C9.12109 11.9824 8.91602 12.1875 8.91602 12.4512C8.91602 12.7246 9.12109 12.9199 9.4043 12.9199L11.9336 12.9199L11.5137 15.332C11.2891 16.6016 10.7617 17.2949 9.47266 17.2949C8.95508 17.2949 8.7793 17.1973 8.33984 17.1973C8.04688 17.1973 7.86133 17.3926 7.86133 17.6562C7.86133 17.959 8.04688 18.1348 8.34961 18.2617C8.7207 18.4082 9.19922 18.4375 9.58984 18.4375C11.5527 18.4375 12.4902 17.4121 12.8125 15.4883L13.252 12.9199L16.0742 12.9199C16.3574 12.9199 16.5723 12.7246 16.5723 12.4512C16.5723 12.1875 16.3574 11.9824 16.0742 11.9824L13.3984 11.9824L13.7305 10.0488C13.9453 8.81836 14.5605 8.18359 15.8008 8.18359C16.2891 8.18359 16.6016 8.29102 16.9238 8.29102C17.2266 8.27148 17.4121 8.125 17.4121 7.82227C17.4121 7.5293 17.1777 7.34375 16.9043 7.22656C16.543 7.08008 16.0156 7.03125 15.6934 7.03125C13.7891 7.03125 12.7441 8.04688 12.4316 9.94141Z" fill="black" fill-opacity="0.85"/>
 </g>
</svg>
