<?xml version="1.0" ?><!-- Generator: Adobe Illustrator 25.0.0, SVG Export Plug-In . SVG Version: 6.00 Build 0)  --><svg xmlns="http://www.w3.org/2000/svg" xmlns:xlink="http://www.w3.org/1999/xlink" version="1.1" id="Layer_1" x="0px" y="0px" viewBox="0 0 512 512" style="enable-background:new 0 0 512 512;" xml:space="preserve">
<path d="M256,512c140,0,256-116.2,256-256C512,116,395.8,0,255.7,0C116,0,0,116,0,256C0,395.8,116.2,512,256,512z M256,469.3  c-118.5,0-213.1-94.9-213.1-213.3S137.3,42.7,255.7,42.7S469.1,137.5,469.3,256S374.5,469.3,256,469.3z M196,377  c38.1,0,59.2-20.1,66-61.7l8.3-51.7H323c8.3,0,13.8-5.3,13.8-13.3c0-8.3-5.5-13.6-13.8-13.6h-48.4l6-38.1  c4-24.6,14.3-34.9,36.4-34.9c7.3,0,10.5,1,14.6,1.8c2,0.5,4.3,0.8,7,0.8c9,0,14.3-5.8,14.3-13.3c0-7.3-4-12.5-12.5-15.6  c-6-2.5-14.3-3.3-24.8-3.3c-38.1,0-59.2,19.8-66,61.5l-6.5,41.2h-50.4c-8.3,0-13.6,5.3-13.6,13.6c0,8,5,13.3,13.6,13.3h46.4  l-7.8,47.9c-4.3,25.1-14.6,35.6-36.6,35.6c-7.5,0-10.5-0.8-14.6-1.5c-2.3-0.5-4.3-0.8-7.3-0.8c-9,0-14.3,5.8-14.3,13.3  c0,7,4,12.5,12.5,15.6C176.9,376,185.2,377,196,377z"/>
</svg>