<?xml version="1.0" ?><!-- Generator: Adobe Illustrator 25.0.0, SVG Export Plug-In . SVG Version: 6.00 Build 0)  --><svg xmlns="http://www.w3.org/2000/svg" xmlns:xlink="http://www.w3.org/1999/xlink" version="1.1" id="Layer_1" x="0px" y="0px" viewBox="0 0 512 512" style="enable-background:new 0 0 512 512;" xml:space="preserve">
<path d="M87.3,512h337.3c58.4,0,87.3-28.9,87.3-86.2V86.2C512,28.9,483.1,0,424.7,0H87.3C29.2,0,0,28.6,0,86.2v339.6  C0,483.4,29.2,512,87.3,512z M187.7,393.8c-12.2,0-21.7-0.8-28.6-3.9c-9.7-3.3-14.5-9.5-14.5-17.8c0-8.6,6.1-15.3,16.4-15.3  c3.6,0,5.8,0.3,8.3,0.8c4.7,0.8,8.1,1.9,16.7,1.9c25.3,0,37-12,42-40.9l8.9-54.8h-53.1c-9.5,0-15.6-5.8-15.6-14.7  c0-9.7,6.1-15.9,15.6-15.9h57.6l7.5-47c7.8-47.6,32-70.6,75.6-70.6c12,0,21.7,1.1,28.6,3.9c9.7,3.3,14.5,9.7,14.5,17.8  c0,8.6-6.1,15.3-16.4,15.3c-3.6,0-5.8-0.3-8.3-0.8c-4.7-0.8-8.1-1.7-16.7-1.7c-25.3,0-37,11.7-41.7,39.5l-6.7,43.7h55.1  c10,0,15.9,6.1,15.9,15.9c0,8.9-5.8,14.7-15.9,14.7h-60.1l-9.5,59.5C255.6,371,231.4,393.8,187.7,393.8z"/>
</svg>