<?xml version="1.0" encoding="UTF-8"?>
<!--Generator: Apple Native CoreSVG 326-->
<!DOCTYPE svg
PUBLIC "-//W3C//DTD SVG 1.1//EN"
       "http://www.w3.org/Graphics/SVG/1.1/DTD/svg11.dtd">
<svg version="1.1" xmlns="http://www.w3.org/2000/svg" xmlns:xlink="http://www.w3.org/1999/xlink" viewBox="0 0 23.3203 22.959">
 <g>
  <rect height="22.959" opacity="0" width="23.3203" x="0" y="0"/>
  <path d="M3.79883 22.959L19.1504 22.959C21.6797 22.959 22.959 21.6797 22.959 19.1992L22.959 3.76953C22.959 1.2793 21.6797 0 19.1504 0L3.79883 0C1.2793 0 0 1.26953 0 3.76953L0 19.1992C0 21.6992 1.2793 22.959 3.79883 22.959ZM3.83789 21.2305C2.4707 21.2305 1.72852 20.5078 1.72852 19.1016L1.72852 3.85742C1.72852 2.46094 2.4707 1.72852 3.83789 1.72852L19.1211 1.72852C20.459 1.72852 21.2305 2.46094 21.2305 3.85742L21.2305 19.1016C21.2305 20.5078 20.459 21.2305 19.1211 21.2305Z" fill="black" fill-opacity="0.85"/>
  <path d="M8.4375 17.0508C10.3418 17.0508 11.2598 16.0449 11.5723 14.1699L12.002 11.6602L14.7656 11.6602C15.0391 11.6602 15.2441 11.4746 15.2441 11.2109C15.2441 10.9473 15.0391 10.752 14.7656 10.752L12.1484 10.752L12.4707 8.86719C12.6758 7.65625 13.2812 7.04102 14.4922 7.04102C14.9707 7.04102 15.2734 7.14844 15.5469 7.14844C15.8789 7.14844 16.0645 6.98242 16.0645 6.68945C16.0645 6.40625 15.8398 6.23047 15.5664 6.11328C15.2051 5.9668 14.6973 5.92773 14.3848 5.92773C12.5293 5.92773 11.5137 6.92383 11.2012 8.75977L10.8691 10.752L8.25195 10.752C7.97852 10.752 7.77344 10.9473 7.77344 11.2109C7.77344 11.4746 7.97852 11.6602 8.25195 11.6602L10.7227 11.6602L10.3125 14.0234C10.0977 15.2637 9.58008 15.9375 8.32031 15.9375C7.8125 15.9375 7.63672 15.8398 7.2168 15.8398C6.93359 15.8398 6.74805 16.0352 6.74805 16.2891C6.74805 16.582 6.93359 16.7578 7.22656 16.875C7.58789 17.0215 8.05664 17.0508 8.4375 17.0508Z" fill="black" fill-opacity="0.85"/>
 </g>
</svg>
