<?xml version="1.0" ?><!-- Generator: Adobe Illustrator 25.0.0, SVG Export Plug-In . SVG Version: 6.00 Build 0)  --><svg xmlns="http://www.w3.org/2000/svg" xmlns:xlink="http://www.w3.org/1999/xlink" version="1.1" id="Layer_1" x="0px" y="0px" viewBox="0 0 512 512" style="enable-background:new 0 0 512 512;" xml:space="preserve">
<path d="M256,512c140,0,256-116.2,256-256C512,116,395.8,0,255.7,0C116,0,0,116,0,256C0,395.8,116.2,512,256,512z M256,469.3  c-118.5,0-213.1-94.9-213.1-213.3S137.3,42.7,255.7,42.7S469.1,137.5,469.3,256S374.5,469.3,256,469.3z M115.2,207.1h281.3v-9.3  c0-25.1-13.3-37.6-38.4-37.6H238.4c-8.8,0-13.3-2.3-19.3-7.3l-7.8-6c-8.3-6.5-14.3-9-25.9-9h-36.6c-21.3,0-33.6,12.3-33.6,36.6  V207.1z M115.2,332.5c0,24.8,13.1,37.4,38.4,37.4h208.3c21.6,0,34.6-12.8,34.6-37.4V227.4H115.2V332.5z"/>
</svg>