<?xml version="1.0" ?><!-- Generator: Adobe Illustrator 25.0.0, SVG Export Plug-In . SVG Version: 6.00 Build 0)  --><svg xmlns="http://www.w3.org/2000/svg" xmlns:xlink="http://www.w3.org/1999/xlink" version="1.1" id="Layer_1" x="0px" y="0px" viewBox="0 0 512 512" style="enable-background:new 0 0 512 512;" xml:space="preserve">
<path d="M70.8,462.3H448c40.4,0,64-23.4,64-69.9V160.9c0-46.4-23.9-69.9-70.8-69.9H224.8c-15.3,0-24.6-3.6-35.8-13.3l-13.8-11.3  c-14.9-12.6-26.4-16.7-48.7-16.7H62.2C22.8,49.7,0,72.3,0,117.6v274.8C0,439.1,23.7,462.3,70.8,462.3z M36.3,119.6  c0-22.3,11.7-33.8,33.4-33.8h47.6c14.9,0,23.9,3.8,35.4,13.5l13.8,11.5c14.7,12.2,26.6,16.5,48.9,16.5h225.2  c22.3,0,35.2,12.2,35.2,35.6v12.9H36.3V119.6z M71.2,426c-22.5,0-34.9-11.9-34.9-35.4V209.8h439.4v181c0,23.2-12.9,35.2-35.2,35.2  H71.2z"/>
</svg>