<?xml version="1.0" encoding="UTF-8"?>
<!--Generator: Apple Native CoreSVG 326-->
<!DOCTYPE svg
PUBLIC "-//W3C//DTD SVG 1.1//EN"
       "http://www.w3.org/Graphics/SVG/1.1/DTD/svg11.dtd">
<svg version="1.1" xmlns="http://www.w3.org/2000/svg" xmlns:xlink="http://www.w3.org/1999/xlink" viewBox="0 0 25.8008 25.459">
 <g>
  <rect height="25.459" opacity="0" width="25.8008" x="0" y="0"/>
  <path d="M25.4395 12.7344C25.4395 19.7461 19.7266 25.459 12.7148 25.459C5.71289 25.459 0 19.7461 0 12.7344C0 5.73242 5.71289 0.0195312 12.7148 0.0195312C19.7266 0.0195312 25.4395 5.73242 25.4395 12.7344ZM5.43945 11.1914L5.43945 16.709C5.43945 17.959 6.09375 18.5938 7.36328 18.5938L18.252 18.5938C19.375 18.5938 20.0195 17.9492 20.0195 16.709L20.0195 11.1914ZM7.09961 6.64062C6.03516 6.64062 5.43945 7.23633 5.43945 8.41797L5.43945 10.2246L20.0195 10.2246L20.0195 9.6875C20.0195 8.4375 19.3652 7.79297 18.0957 7.79297L11.7773 7.79297C11.2988 7.79297 11.0645 7.67578 10.7422 7.41211L10.3516 7.09961C9.92188 6.74805 9.62891 6.64062 9.01367 6.64062Z" fill="black" fill-opacity="0.85"/>
 </g>
</svg>
