<?xml version="1.0" encoding="UTF-8"?>
<!--Generator: Apple Native CoreSVG 326-->
<!DOCTYPE svg
PUBLIC "-//W3C//DTD SVG 1.1//EN"
       "http://www.w3.org/Graphics/SVG/1.1/DTD/svg11.dtd">
<svg version="1.1" xmlns="http://www.w3.org/2000/svg" xmlns:xlink="http://www.w3.org/1999/xlink" viewBox="0 0 25.8008 25.459">
 <g>
  <rect height="25.459" opacity="0" width="25.8008" x="0" y="0"/>
  <path d="M12.7148 25.4395C19.7363 25.4395 25.4395 19.7461 25.4395 12.7246C25.4395 5.70312 19.7363 0 12.7148 0C5.69336 0 0 5.70312 0 12.7246C0 19.7461 5.69336 25.4395 12.7148 25.4395ZM12.7148 23.623C6.68945 23.623 1.81641 18.75 1.81641 12.7246C1.81641 6.69922 6.68945 1.82617 12.7148 1.82617C18.7402 1.82617 23.6133 6.69922 23.6133 12.7246C23.6133 18.75 18.7402 23.623 12.7148 23.623Z" fill="black" fill-opacity="0.85"/>
  <path d="M7.4707 18.4375L18.1152 18.4375C19.209 18.4375 19.8438 17.8027 19.8438 16.5918L19.8438 11.2109L5.5957 11.2109L5.5957 16.5918C5.5957 17.8125 6.24023 18.4375 7.4707 18.4375ZM5.5957 10.2734L19.8438 10.2734L19.8438 9.73633C19.8438 8.52539 19.1992 7.89062 17.959 7.89062L11.7871 7.89062C11.3184 7.89062 11.084 7.79297 10.7715 7.51953L10.3906 7.20703C9.9707 6.86523 9.6875 6.76758 9.08203 6.76758L7.22656 6.76758C6.18164 6.76758 5.5957 7.34375 5.5957 8.50586Z" fill="black" fill-opacity="0.85"/>
 </g>
</svg>
