<?xml version="1.0" ?><!-- Generator: Adobe Illustrator 25.0.0, SVG Export Plug-In . SVG Version: 6.00 Build 0)  --><svg xmlns="http://www.w3.org/2000/svg" xmlns:xlink="http://www.w3.org/1999/xlink" version="1.1" id="Layer_1" x="0px" y="0px" viewBox="0 0 512 512" style="enable-background:new 0 0 512 512;" xml:space="preserve">
<path d="M256,512c35,0,67.9-6.7,98.8-20.1c30.9-13.4,58.1-31.9,81.7-55.5c23.6-23.6,42.1-50.8,55.5-81.7  C505.3,323.9,512,291,512,256s-6.7-67.9-20.1-98.8c-13.4-30.9-31.9-58.1-55.5-81.7c-23.6-23.6-50.9-42.1-81.8-55.5  C323.7,6.7,290.7,0,255.7,0S187.9,6.7,157,20.1C126.1,33.5,98.9,52,75.4,75.5c-23.5,23.6-42,50.8-55.3,81.7C6.7,188.1,0,221,0,256  s6.7,67.9,20.1,98.8c13.4,30.9,31.9,58.1,55.5,81.7c23.6,23.6,50.8,42.1,81.7,55.5C188.1,505.3,221,512,256,512z" class="multicolor-0:systemOrangeColor hierarchical-0:tertiary SFSymbolsPreviewFF9500" style="fill: #FF9500;"/>
<path d="M200,425.4c-6,0-10.8-1.6-14.4-4.9c-3.6-3.3-5.3-7.8-5.1-13.7l3-164.4c0-2.5-0.6-4.7-1.8-6.5c-1.2-1.8-2.8-3.3-5-4.3  c-9.7-4.2-16.7-9.2-21.1-14.9c-4.4-5.8-6.3-15.1-5.8-28l4.3-89.6c0.3-6.9,3.6-10.3,9.8-10.3c6.2,0,9.3,3.4,9.3,10.3l-1,87.6  c0,5.7,2.7,8.5,8,8.5c5.7,0,8.5-2.7,8.5-8l1.5-90.4c0-6.5,3.3-9.8,9.8-9.8c6.7,0,10,3.3,10,9.8l1,90.4c0,5.4,2.8,8,8.5,8  c5.5,0,8.3-2.8,8.3-8.5l-1-87.6c0-6.9,3.1-10.3,9.3-10.3c6.2,0,9.5,3.4,9.8,10.3l4.3,89.6c0.7,12.9-1.2,22.2-5.5,28  c-4.4,5.8-11.4,10.8-21.1,14.9c-2.2,1-3.8,2.4-4.9,4.3c-1.1,1.8-1.6,4-1.6,6.5l2.5,164.4c0.2,5.9-1.5,10.4-5.1,13.7  C210.9,423.8,206.1,425.4,200,425.4z M304.7,300.9c0.2-5.2-2.3-9.5-7.5-12.8l-8.3-6c-3.7-2.7-6.5-5.9-8.4-9.5  c-1.9-3.7-2.9-8-2.9-13.1v-9.8c0-19.4,1.6-38.8,4.9-58.1c3.3-19.3,7.8-37.2,13.7-53.7c5.9-16.5,12.7-30.2,20.6-41.3  c4.4-6.4,9-9.5,13.8-9.5c2.7,0,5.1,0.8,7.3,2.5c2.2,1.7,3.3,4.4,3.3,8.3v309.7c0,5.9-1.8,10.3-5.4,13.3c-3.6,3-8.5,4.5-14.7,4.5  c-6,0-10.8-1.6-14.4-4.9s-5.3-8.1-5.1-14.4L304.7,300.9z" class="multicolor-1:white hierarchical-1:primary SFSymbolsPreviewFFFFFF" style="fill: #FFFFFF;"/>
</svg>