<?xml version="1.0" ?><!-- Generator: Adobe Illustrator 25.0.0, SVG Export Plug-In . SVG Version: 6.00 Build 0)  --><svg xmlns="http://www.w3.org/2000/svg" xmlns:xlink="http://www.w3.org/1999/xlink" version="1.1" id="Layer_1" x="0px" y="0px" viewBox="0 0 512 512" style="enable-background:new 0 0 512 512;" xml:space="preserve">
<path d="M256,512c35,0,67.9-6.7,98.8-20.1c30.9-13.4,58.1-31.9,81.7-55.5c23.6-23.6,42.1-50.8,55.5-81.7  C505.3,323.9,512,291,512,256s-6.7-67.9-20.1-98.8c-13.4-30.9-31.9-58.1-55.5-81.7c-23.6-23.6-50.9-42.1-81.8-55.5  C323.7,6.7,290.7,0,255.7,0S187.9,6.7,157,20.1C126.1,33.5,98.9,52,75.4,75.5c-23.5,23.6-42,50.8-55.3,81.7C6.7,188.1,0,221,0,256  s6.7,67.9,20.1,98.8c13.4,30.9,31.9,58.1,55.5,81.7c23.6,23.6,50.8,42.1,81.7,55.5C188.1,505.3,221,512,256,512z M256,469.3  c-29.6,0-57.3-5.5-83.1-16.6c-25.8-11-48.4-26.3-67.9-45.8c-19.5-19.5-34.7-42.1-45.7-67.9c-11-25.8-16.4-53.5-16.4-83.1  c0-29.6,5.5-57.3,16.4-83.1c11-25.8,26.1-48.4,45.6-68s42-34.8,67.8-45.8c25.8-11,53.5-16.4,83.1-16.4c29.6,0,57.3,5.5,83.1,16.4  c25.8,11,48.4,26.2,68,45.8c19.6,19.6,34.9,42.2,45.9,68c11,25.8,16.6,53.5,16.6,83.1c0,29.6-5.5,57.3-16.4,83.1  c-11,25.8-26.2,48.4-45.7,67.9c-19.5,19.5-42.2,34.8-68,45.8C313.3,463.8,285.6,469.3,256,469.3z" class="multicolor-0:systemOrangeColor hierarchical-0:secondary SFSymbolsPreviewFF9500" style="fill: #FF9500;"/>
<path d="M202.8,420.4c6,0,10.8-1.6,14.2-4.8c3.4-3.2,5.1-7.6,4.9-13.3l-2.5-159.4c0-5,2.1-8.5,6.3-10.5c9.4-4,16.2-8.9,20.5-14.6  c4.3-5.7,6.1-14.7,5.4-27.1l-4.3-86.8c-0.3-6.7-3.4-10-9.3-10c-6,0-9,3.3-9,10l1,84.8c0,5.5-2.7,8.3-8,8.3c-5.5,0-8.3-2.6-8.3-7.8  l-1.3-87.6c0-6.4-3.2-9.5-9.5-9.5c-6.2,0-9.3,3.2-9.3,9.5l-1.5,87.6c0,5.2-2.8,7.8-8.3,7.8c-5.2,0-7.8-2.8-7.8-8.3l1-84.8  c0-6.7-3-10-9-10c-6,0-9.2,3.3-9.5,10l-4,86.8c-0.5,12.4,1.3,21.4,5.5,27.1c4.2,5.7,11,10.5,20.3,14.6c2.2,1,3.8,2.4,4.8,4.1  c1,1.8,1.5,3.9,1.5,6.4L184,402.3c-0.2,5.7,1.5,10.1,4.9,13.3C192.3,418.8,196.9,420.4,202.8,420.4z M301.2,299.7l-3.3,101.9  c-0.2,6,1.5,10.7,5,13.9c3.5,3.3,8.2,4.9,14.1,4.9c6,0,10.8-1.5,14.2-4.5c3.4-3,5.1-7.3,5.1-12.8V102.7c0-3.7-1-6.4-3.1-8  c-2.1-1.7-4.4-2.5-6.9-2.5c-4.7,0-9.1,3.1-13.3,9.3c-7.7,10.7-14.4,24.1-20.1,40c-5.7,16-10.1,33.3-13.3,52.1  c-3.2,18.7-4.8,37.6-4.8,56.5v9.5c0,4.9,1,9.1,2.9,12.7c1.9,3.6,4.6,6.7,8.2,9.2l8,5.8C298.9,290.6,301.3,294.8,301.2,299.7z" class="multicolor-0:systemOrangeColor hierarchical-1:primary SFSymbolsPreviewFF9500" style="fill: #FF9500;"/>
</svg>