<?xml version="1.0" ?><!-- Generator: Adobe Illustrator 25.0.0, SVG Export Plug-In . SVG Version: 6.00 Build 0)  --><svg xmlns="http://www.w3.org/2000/svg" xmlns:xlink="http://www.w3.org/1999/xlink" version="1.1" id="Layer_1" x="0px" y="0px" viewBox="0 0 512 512" style="enable-background:new 0 0 512 512;" xml:space="preserve">
<path d="M179.9,512c9.3,0,16.6-2.5,21.9-7.5c5.3-5,7.9-12,7.9-21l-4.4-247.9c0-3.8,0.8-7.2,2.5-10c1.7-2.9,4.2-5,7.6-6.5  c9.7-4.3,17.6-8.9,23.7-14c6.1-5.1,10.5-11.6,13.1-19.5c2.6-7.9,3.8-18.4,3.3-31.4l-6.2-135.6C249,8.4,243.9,3.3,234.2,3.3  c-4.3,0-7.7,1.4-10.2,4.1c-2.5,2.7-3.8,6.6-3.8,11.6l1.5,131.8c0,4-1.1,7.1-3.4,9.3c-2.3,2.2-5.2,3.3-8.7,3.3  c-3.8,0-6.9-1.1-9.3-3.2c-2.4-2.1-3.5-5-3.5-8.7L194.7,15c-0.1-4.7-1.5-8.4-4.1-11c-2.6-2.6-6.1-4-10.7-4c-4.4,0-7.9,1.3-10.6,4  c-2.6,2.6-4,6.3-4,11l-2.2,136.4c0,3.7-1.2,6.6-3.6,8.7c-2.4,2.1-5.5,3.2-9.2,3.2c-8.2,0-12.4-4.2-12.4-12.6L139.5,19  c0-5-1.2-8.9-3.6-11.6c-2.4-2.7-5.9-4.1-10.3-4.1c-4.6,0-8.2,1.3-10.8,4c-2.6,2.6-4.1,6.4-4.4,11.3l-6,135.6  c-0.6,13,0.4,23.4,3.1,31.4c2.6,7.9,7,14.5,13.1,19.5c6.1,5.1,14,9.8,23.7,14c3.5,1.5,6.1,3.6,7.7,6.5c1.6,2.9,2.4,6.2,2.4,10  l-4.2,247.9c-0.1,9,2.4,16,7.7,21C163.4,509.5,170.6,512,179.9,512z M352.8,319.5l-4.9,162.9c-0.3,9.6,2.3,16.9,7.7,22  c5.4,5.1,12.7,7.6,21.9,7.6c9.3,0,16.6-2.3,22.1-7c5.4-4.6,8.2-11.4,8.2-20.2V16.6c0-5.6-1.6-9.8-4.9-12.5c-3.2-2.7-6.9-4.1-11-4.1  c-4.1,0-7.7,1.2-10.8,3.5c-3.1,2.4-6.5,6.1-10.2,11.3c-8.8,12.5-16.9,27.4-24.1,44.7c-7.2,17.3-13.4,36.2-18.7,56.7  c-5.2,20.5-9.2,41.8-12,63.9c-2.8,22.1-4.2,44.2-4.2,66.2v10.8c0,7.7,1.4,14.3,4.2,19.9c2.8,5.6,6.9,10.2,12.4,13.9l13.2,8.8  c3.8,2.8,6.7,5.8,8.5,8.9C352.1,311.9,352.9,315.5,352.8,319.5z" class="multicolor-0:systemGrayColor SFSymbolsPreview8E8E93" style="fill: #8E8E93;"/>
</svg>