<?xml version="1.0" encoding="UTF-8"?>
<!--Generator: Apple Native CoreSVG 326-->
<!DOCTYPE svg
PUBLIC "-//W3C//DTD SVG 1.1//EN"
       "http://www.w3.org/Graphics/SVG/1.1/DTD/svg11.dtd">
<svg version="1.1" xmlns="http://www.w3.org/2000/svg" xmlns:xlink="http://www.w3.org/1999/xlink" viewBox="0 0 41.9813 20.9668">
 <g>
  <rect height="20.9668" opacity="0" width="41.9813" x="0" y="0"/>
  <path d="M5.62444 20.9668C8.93499 20.9668 11.2787 18.7793 11.2787 15.5469L11.2787 12.3047L9.63812 12.5098L9.63812 15.5469C9.63812 17.8125 7.95843 19.3359 5.62444 19.3359C2.94866 19.3359 1.32757 17.666 1.6889 14.7363L2.82171 5.80078C3.09515 3.60352 4.4721 2.36328 6.83538 2.36328L11.269 2.36328L12.7338 0.732422L6.83538 0.732422C3.51507 0.732422 1.58148 2.46094 1.19085 5.63477L0.0678039 14.5801C-0.430243 18.6035 1.85491 20.9668 5.62444 20.9668ZM12.7338 15.6934L28.8862 15.6934C30.7807 15.6934 31.9819 14.4531 31.9819 12.5098L31.9819 3.91602C31.9819 1.96289 30.7807 0.732422 28.8862 0.732422L12.7338 0.732422C10.8393 0.732422 9.63812 1.96289 9.63812 3.91602L9.63812 12.5098C9.63812 14.4531 10.8393 15.6934 12.7338 15.6934ZM12.9584 14.0625C11.8549 14.0625 11.2787 13.4668 11.2787 12.3047L11.2787 4.11133C11.2787 2.95898 11.8549 2.36328 12.9584 2.36328L28.6616 2.36328C29.7651 2.36328 30.3412 2.95898 30.3412 4.11133L30.3412 12.3047C30.3412 13.4668 29.7651 14.0625 28.6616 14.0625ZM31.9819 12.5098L30.3412 12.3047L30.3412 15.5469C30.3412 18.7793 32.6752 20.9668 35.9858 20.9668C39.7553 20.9668 42.0502 18.6035 41.5424 14.5801L40.4291 5.63477C40.0287 2.46094 38.0951 0.732422 34.7748 0.732422L28.8862 0.732422L30.3412 2.36328L34.7748 2.36328C37.1479 2.36328 38.5248 3.60352 38.7983 5.80078L39.9213 14.7363C40.2924 17.666 38.6616 19.3359 35.9858 19.3359C33.6518 19.3359 31.9819 17.8125 31.9819 15.5469ZM5.68304 17.4316C6.05413 17.4316 6.33734 17.1387 6.33734 16.7578L6.33734 15.3906L7.67523 15.3906C8.06585 15.3906 8.38812 15.0977 8.38812 14.7266C8.38812 14.3555 8.06585 14.0625 7.67523 14.0625L6.33734 14.0625L6.33734 12.7051C6.33734 12.334 6.05413 12.0312 5.68304 12.0312C5.32171 12.0312 5.03851 12.334 5.03851 12.7051L5.03851 14.0625L3.63226 14.0625C3.2514 14.0625 2.95843 14.3555 2.95843 14.7266C2.95843 15.0977 3.2514 15.3906 3.63226 15.3906L5.03851 15.3906L5.03851 16.7578C5.03851 17.1387 5.32171 17.4316 5.68304 17.4316ZM37.353 14.8242C38.1244 14.8242 38.7299 14.2188 38.7299 13.4668C38.7299 12.7051 38.1244 12.1094 37.353 12.1094C36.5912 12.1094 35.9955 12.7051 35.9955 13.4668C35.9955 14.2188 36.5912 14.8242 37.353 14.8242ZM34.8041 17.3535C35.5561 17.3535 36.1713 16.7578 36.1713 16.0059C36.1713 15.2344 35.5561 14.6387 34.8041 14.6387C34.0424 14.6387 33.4369 15.2344 33.4369 16.0059C33.4369 16.7578 34.0424 17.3535 34.8041 17.3535Z" fill="black" fill-opacity="0.85"/>
 </g>
</svg>
