<?xml version="1.0" encoding="UTF-8"?>
<!--Generator: Apple Native CoreSVG 326-->
<!DOCTYPE svg
PUBLIC "-//W3C//DTD SVG 1.1//EN"
       "http://www.w3.org/Graphics/SVG/1.1/DTD/svg11.dtd">
<svg version="1.1" xmlns="http://www.w3.org/2000/svg" xmlns:xlink="http://www.w3.org/1999/xlink" viewBox="0 0 23.0078 18.9746">
 <g>
  <rect height="18.9746" opacity="0" width="23.0078" x="0" y="0"/>
  <path d="M0 17.3633C0 18.457 0.644531 18.9551 1.38672 18.9551C1.71875 18.9551 2.05078 18.8574 2.37305 18.6719L15.6055 10.9082C16.4355 10.4297 16.7676 10.0586 16.7676 9.48242C16.7676 8.90625 16.4355 8.52539 15.6055 8.04688L2.37305 0.283203C2.05078 0.0976562 1.71875 0 1.38672 0C0.644531 0 0 0.507812 0 1.60156ZM18.2715 18.8965L21.084 18.8965C22.1289 18.8965 22.6465 18.3789 22.6465 17.334L22.6465 1.61133C22.6465 0.527344 22.1289 0.0488281 21.084 0.0488281L18.2715 0.0488281C17.2266 0.0488281 16.709 0.576172 16.709 1.61133L16.709 17.334C16.709 18.3789 17.2266 18.8965 18.2715 18.8965Z" fill="black" fill-opacity="0.85"/>
 </g>
</svg>
