<?xml version="1.0" ?><!-- Generator: Adobe Illustrator 25.0.0, SVG Export Plug-In . SVG Version: 6.00 Build 0)  --><svg xmlns="http://www.w3.org/2000/svg" xmlns:xlink="http://www.w3.org/1999/xlink" version="1.1" id="Layer_1" x="0px" y="0px" viewBox="0 0 512 512" style="enable-background:new 0 0 512 512;" xml:space="preserve">
<path d="M26.8,402c7.6,0,13.9-2.4,21.4-6.9l189.4-111.5c10.2-5.9,15.8-12.6,17.8-20.5v107.1c0,20.6,12.3,31.8,26.8,31.8  c7.6,0,13.9-2.4,21.4-6.9l189.6-111.5c13-7.8,18.8-16.9,18.8-27.7c0-10.6-5.8-19.7-18.8-27.5L303.6,116.8  c-7.4-4.5-13.8-6.9-21.4-6.9c-14.5,0-26.8,11.2-26.8,31.8v107.1c-2-7.8-7.6-14.5-17.8-20.5L48.2,116.8c-7.6-4.5-13.8-6.9-21.4-6.9  C12.3,110,0,121.1,0,141.8v228.5C0,390.9,12.3,402,26.8,402z"/>
</svg>