<?xml version="1.0" encoding="UTF-8"?>
<!--Generator: Apple Native CoreSVG 326-->
<!DOCTYPE svg
PUBLIC "-//W3C//DTD SVG 1.1//EN"
       "http://www.w3.org/Graphics/SVG/1.1/DTD/svg11.dtd">
<svg version="1.1" xmlns="http://www.w3.org/2000/svg" xmlns:xlink="http://www.w3.org/1999/xlink" viewBox="0 0 39.7168 18.9746">
 <g>
  <rect height="18.9746" opacity="0" width="39.7168" x="0" y="0"/>
  <path d="M0 17.3633C0 18.457 0.644531 18.9551 1.38672 18.9551C1.71875 18.9551 2.05078 18.8574 2.37305 18.6719L15.6055 10.9082C16.4355 10.4297 16.7676 10.0586 16.7676 9.48242C16.7676 8.90625 16.4355 8.52539 15.6055 8.04688L2.37305 0.283203C2.05078 0.0976562 1.71875 0 1.38672 0C0.644531 0 0 0.507812 0 1.60156ZM16.709 17.3633C16.709 18.457 17.3438 18.9551 18.0957 18.9551C18.418 18.9551 18.7598 18.8574 19.082 18.6719L32.3145 10.9082C33.1445 10.4297 33.4766 10.0586 33.4766 9.48242C33.4766 8.90625 33.1445 8.52539 32.3145 8.04688L19.082 0.283203C18.7598 0.0976562 18.418 0 18.0957 0C17.3438 0 16.709 0.507812 16.709 1.60156ZM34.9805 18.8965L37.793 18.8965C38.8281 18.8965 39.3555 18.3789 39.3555 17.334L39.3555 1.61133C39.3555 0.527344 38.8281 0.0488281 37.793 0.0488281L34.9805 0.0488281C33.9355 0.0488281 33.418 0.576172 33.418 1.61133L33.418 17.334C33.418 18.3789 33.9355 18.8965 34.9805 18.8965Z" fill="black" fill-opacity="0.85"/>
 </g>
</svg>
