<?xml version="1.0" ?><!-- Generator: Adobe Illustrator 25.0.0, SVG Export Plug-In . SVG Version: 6.00 Build 0)  --><svg xmlns="http://www.w3.org/2000/svg" xmlns:xlink="http://www.w3.org/1999/xlink" version="1.1" id="Layer_1" x="0px" y="0px" viewBox="0 0 512 512" style="enable-background:new 0 0 512 512;" xml:space="preserve">
<path d="M256,512c35,0,67.9-6.7,98.8-20.1c30.9-13.4,58.1-31.9,81.7-55.5c23.6-23.6,42.1-50.8,55.5-81.7  C505.3,323.9,512,291,512,256s-6.7-67.9-20.1-98.8c-13.4-30.9-31.9-58.1-55.5-81.7c-23.6-23.6-50.9-42.1-81.8-55.5  C323.7,6.7,290.7,0,255.7,0S187.9,6.7,157,20.1C126.1,33.5,98.9,52,75.4,75.5c-23.5,23.6-42,50.8-55.3,81.7C6.7,188.1,0,221,0,256  s6.7,67.9,20.1,98.8c13.4,30.9,31.9,58.1,55.5,81.7c23.6,23.6,50.8,42.1,81.7,55.5C188.1,505.3,221,512,256,512z" class="multicolor-0:tintColor hierarchical-0:tertiary SFSymbolsPreview007AFF" style="fill: #007AFF;"/>
<path d="M440.7,256.3c0,3.5-1,6.8-2.9,9.8c-1.9,3-5.1,5.8-9.4,8.3l-123,72.5c-4.9,2.8-9.5,4.3-14.1,4.3c-4.7,0-8.7-1.7-12.2-5.1  c-3.4-3.4-5.1-8.5-5.1-15.2v-66.5c-1,2-2.3,3.8-4,5.4c-1.7,1.6-3.8,3.1-6.3,4.6l-123.2,72.5c-4.7,2.8-9.4,4.3-14.1,4.3  s-8.7-1.7-12.2-5.1c-3.4-3.4-5.1-8.5-5.1-15.2V182c0-6.7,1.7-11.8,5.1-15.2c3.4-3.4,7.5-5.1,12.2-5.1s9.4,1.4,14.1,4.3l123.2,72.5  c2.5,1.5,4.6,3.1,6.3,4.6c1.7,1.6,3,3.4,4,5.4V182c0-6.7,1.7-11.8,5.1-15.2c3.4-3.4,7.5-5.1,12.2-5.1c4.5,0,9.2,1.4,14.1,4.3  l123,72.5c4.4,2.5,7.5,5.3,9.4,8.3C439.8,249.7,440.7,252.9,440.7,256.3z" class="multicolor-1:white hierarchical-1:primary SFSymbolsPreviewFFFFFF" style="fill: #FFFFFF;"/>
</svg>