<?xml version="1.0" encoding="UTF-8"?>
<!--Generator: Apple Native CoreSVG 326-->
<!DOCTYPE svg
PUBLIC "-//W3C//DTD SVG 1.1//EN"
       "http://www.w3.org/Graphics/SVG/1.1/DTD/svg11.dtd">
<svg version="1.1" xmlns="http://www.w3.org/2000/svg" xmlns:xlink="http://www.w3.org/1999/xlink" viewBox="0 0 35.6055 18.9746">
 <g>
  <rect height="18.9746" opacity="0" width="35.6055" x="0" y="0"/>
  <path d="M0 17.3633C0 18.457 0.644531 18.9551 1.38672 18.9551C1.71875 18.9551 2.05078 18.8574 2.37305 18.6719L15.6055 10.9082C16.4355 10.4297 16.7676 10.0586 16.7676 9.48242C16.7676 8.90625 16.4355 8.52539 15.6055 8.04688L2.37305 0.283203C2.05078 0.0976562 1.71875 0 1.38672 0C0.644531 0 0 0.507812 0 1.60156ZM1.72852 16.582L1.72852 2.37305C1.72852 2.20703 1.83594 2.09961 1.97266 2.09961C2.03125 2.09961 2.08984 2.11914 2.14844 2.14844L14.2578 9.27734C14.3555 9.33594 14.3945 9.4043 14.3945 9.48242C14.3945 9.55078 14.3555 9.61914 14.2578 9.67773L2.14844 16.8066C2.08984 16.8457 2.03125 16.8555 1.97266 16.8555C1.83594 16.8555 1.72852 16.748 1.72852 16.582ZM16.709 17.3633C16.709 18.457 17.3438 18.9551 18.0957 18.9551C18.418 18.9551 18.7598 18.8574 19.082 18.6719L32.3145 10.9082C33.1445 10.4297 33.4766 10.0586 33.4766 9.48242C33.4766 8.90625 33.1445 8.52539 32.3145 8.04688L19.082 0.283203C18.7598 0.0976562 18.418 0 18.0957 0C17.3438 0 16.709 0.507812 16.709 1.60156ZM18.4375 16.582L18.4375 2.37305C18.4375 2.20703 18.5449 2.09961 18.6816 2.09961C18.7402 2.09961 18.7988 2.11914 18.8574 2.14844L30.9668 9.27734C31.0645 9.33594 31.1035 9.4043 31.1035 9.48242C31.1035 9.55078 31.0645 9.61914 30.9668 9.67773L18.8574 16.8066C18.7988 16.8457 18.7402 16.8555 18.6816 16.8555C18.5449 16.8555 18.4375 16.748 18.4375 16.582ZM34.3262 18.9551C34.8438 18.9551 35.2441 18.5645 35.2441 18.0566L35.2441 0.898438C35.2441 0.390625 34.8438 0 34.3262 0C33.8184 0 33.418 0.390625 33.418 0.898438L33.418 18.0566C33.418 18.5645 33.8184 18.9551 34.3262 18.9551Z" fill="black" fill-opacity="0.85"/>
 </g>
</svg>
