<?xml version="1.0" ?><!-- Generator: Adobe Illustrator 25.0.0, SVG Export Plug-In . SVG Version: 6.00 Build 0)  --><svg xmlns="http://www.w3.org/2000/svg" xmlns:xlink="http://www.w3.org/1999/xlink" version="1.1" id="Layer_1" x="0px" y="0px" viewBox="0 0 512 512" style="enable-background:new 0 0 512 512;" xml:space="preserve">
<path d="M39.5,471c11.2,0,20.3-3.6,31.5-10.1l279.3-164.2c14.8-9,23.3-18.9,26.3-30.4v176.2c0,24.1,12.6,36.7,36.5,36.7h62.5  c24.1,0,36.5-12.6,36.5-36.7V69.2c0-24.9-12.3-36.5-36.5-36.5h-62.5c-23.8,0-36.5,12.6-36.5,36.5v176c-3-11.2-11.5-21.4-26.3-30.1  L71,50.6C59.8,44,50.7,40.4,39.5,40.4C17.8,40.4,0,56.9,0,87.6v336.6C0,454.9,17.8,471,39.5,471z"/>
</svg>