<?xml version="1.0" ?><!-- Generator: Adobe Illustrator 25.0.0, SVG Export Plug-In . SVG Version: 6.00 Build 0)  --><svg xmlns="http://www.w3.org/2000/svg" xmlns:xlink="http://www.w3.org/1999/xlink" version="1.1" id="Layer_1" x="0px" y="0px" viewBox="0 0 512 512" style="enable-background:new 0 0 512 512;" xml:space="preserve">
<path d="M23.3,482.8c12.9,0,23.6-9.9,23.6-22.8V52.3c0-12.9-10.7-23.1-23.6-23.1C10.4,29.2,0,39.4,0,52.3V460  C0,472.9,10.4,482.8,23.3,482.8z M172.7,471.8c11.3,0,20.6-3.6,31.8-10.2l279.7-164.7c19.2-11.5,27.7-25.3,27.7-40.9  s-8.2-29.4-27.7-40.9L204.5,50.4c-11.3-6.6-20.6-10.2-31.8-10.2c-21.4,0-39.5,16.5-39.5,47.2v337.1  C133.1,455.3,151.3,471.8,172.7,471.8z M184.8,421c-3.8,0-7.4-2.7-7.4-8.2V99.2c0-5.5,3.6-8.2,7.4-8.2c1.9,0,4.1,0.8,6.9,2.5  l260.8,154.8c3.8,2.2,6,3.8,6,7.7c0,3.6-2.2,5.5-6,7.7L191.6,418.5C188.9,420.2,186.7,421,184.8,421z"/>
</svg>