<?xml version="1.0" ?><!-- Generator: Adobe Illustrator 25.0.0, SVG Export Plug-In . SVG Version: 6.00 Build 0)  --><svg xmlns="http://www.w3.org/2000/svg" xmlns:xlink="http://www.w3.org/1999/xlink" version="1.1" id="Layer_1" x="0px" y="0px" viewBox="0 0 512 512" style="enable-background:new 0 0 512 512;" xml:space="preserve">
<path d="M256,512c140,0,256-116.2,256-256C512,116,395.8,0,255.7,0C116,0,0,116,0,256C0,395.8,116.2,512,256,512z M256,469.3  c-118.5,0-213.1-94.9-213.1-213.3S137.3,42.7,255.7,42.7S469.1,137.5,469.3,256S374.5,469.3,256,469.3z M211.8,382  c9.5,0,16.1-6.8,16.1-16.6v-26.4h51.7c7.3,0,12.3-5.3,12.3-12.3c0-7.3-5-12.5-12.3-12.5h-51.7v-40.9h83.8c8.8,0,15.6-5.8,15.6-14.8  c0-9.3-6.8-15.1-15.6-15.1h-83.8v-70.8H321c8.8,0,15.3-6,15.3-15.3c0-9-6.5-15.1-15.3-15.1H211.6c-10,0-16.3,6.5-16.3,16.8v155.1  h-20.1c-7.3,0-12,5.3-12,12.5c0,7,4.8,12.3,12,12.3h20.1v26.9C195.3,375.5,202.3,382,211.8,382z"/>
</svg>