<?xml version="1.0" encoding="UTF-8"?>
<!--Generator: Apple Native CoreSVG 326-->
<!DOCTYPE svg
PUBLIC "-//W3C//DTD SVG 1.1//EN"
       "http://www.w3.org/Graphics/SVG/1.1/DTD/svg11.dtd">
<svg version="1.1" xmlns="http://www.w3.org/2000/svg" xmlns:xlink="http://www.w3.org/1999/xlink" viewBox="0 0 28.291 27.9395">
 <g>
  <rect height="27.9395" opacity="0" width="28.291" x="0" y="0"/>
  <path d="M13.9648 27.9297C21.6406 27.9297 27.9297 21.6504 27.9297 13.9648C27.9297 6.2793 21.6406 0 13.9648 0C6.28906 0 0 6.2793 0 13.9648C0 21.6504 6.28906 27.9297 13.9648 27.9297ZM13.9648 23.3398C8.7793 23.3398 4.58008 19.1504 4.58008 13.9648C4.58008 8.7793 8.7793 4.58008 13.9648 4.58008C19.1504 4.58008 23.3496 8.7793 23.3496 13.9648C23.3496 19.1504 19.1504 23.3398 13.9648 23.3398Z" fill="black" fill-opacity="0.85"/>
  <path d="M11.8848 19.7559C12.2656 19.7559 12.5391 19.4727 12.5391 19.082L12.5391 17.6465L15.3125 17.6465C15.5371 17.6465 15.6934 17.4805 15.6934 17.2656C15.6934 17.0508 15.5371 16.8848 15.3125 16.8848L12.5391 16.8848L12.5391 14.5312L16.8066 14.5312C17.1484 14.5312 17.3926 14.2871 17.3926 13.9648C17.3926 13.6426 17.1484 13.3984 16.8066 13.3984L12.5391 13.3984L12.5391 9.62891L17.2461 9.62891C17.5977 9.62891 17.8516 9.38477 17.8516 9.0625C17.8516 8.7207 17.5977 8.47656 17.2461 8.47656L11.8848 8.47656C11.4746 8.47656 11.2207 8.73047 11.2207 9.16016L11.2207 16.8848L10.0195 16.8848C9.79492 16.8848 9.63867 17.0508 9.63867 17.2656C9.63867 17.4805 9.79492 17.6465 10.0195 17.6465L11.2207 17.6465L11.2207 19.082C11.2207 19.4727 11.4941 19.7559 11.8848 19.7559Z" fill="black" fill-opacity="0.85"/>
 </g>
</svg>
