<?xml version="1.0" ?><!-- Generator: Adobe Illustrator 25.0.0, SVG Export Plug-In . SVG Version: 6.00 Build 0)  --><svg xmlns="http://www.w3.org/2000/svg" xmlns:xlink="http://www.w3.org/1999/xlink" version="1.1" id="Layer_1" x="0px" y="0px" viewBox="0 0 512 512" style="enable-background:new 0 0 512 512;" xml:space="preserve">
<path d="M256,512c140,0,256-116.2,256-256C512,116,395.8,0,255.7,0C116,0,0,116,0,256C0,395.8,116.2,512,256,512z M210.3,385.8  c-9.8,0-17.1-6.5-17.1-16.6v-27.4h-20.8c-7.5,0-12.3-5.8-12.3-13.1c0-7.3,4.8-12.8,12.3-12.8h20.8V155.9c0-10.5,6.5-17.3,16.8-17.3  H323c9,0,15.8,6,15.8,15.8c0,9.3-6.8,15.6-15.8,15.6h-95.9v73h86.3c9,0,16.1,6,16.1,15.6c0,9.3-7,15.6-16.1,15.6h-86.3V316h53.2  c7.5,0,12.8,5.5,12.8,12.8c0,7.3-5.3,13.1-12.8,13.1h-53.2v27.1C227.1,378.7,220.4,385.8,210.3,385.8z"/>
</svg>