<?xml version="1.0" ?><!-- Generator: Adobe Illustrator 25.0.0, SVG Export Plug-In . SVG Version: 6.00 Build 0)  --><svg xmlns="http://www.w3.org/2000/svg" xmlns:xlink="http://www.w3.org/1999/xlink" version="1.1" id="Layer_1" x="0px" y="0px" viewBox="0 0 512 512" style="enable-background:new 0 0 512 512;" xml:space="preserve">
<path d="M87.3,512h337.3c58.4,0,87.3-28.9,87.3-86.2V86.2C512,28.9,483.1,0,424.7,0H87.3C29.2,0,0,28.6,0,86.2v339.6  C0,483.4,29.2,512,87.3,512z M205.8,399.4c-10.8,0-18.9-7.2-18.9-18.4v-30.3h-23.1c-8.3,0-13.6-6.4-13.6-14.5  c0-8.1,5.3-14.2,13.6-14.2h23.1V144.6c0-11.7,7.2-19.2,18.6-19.2h125.1c10,0,17.8,6.7,17.8,17.5c0,10.3-7.8,17.2-17.8,17.2H224.4  v80.9h95.7c10.3,0,17.8,6.7,17.8,17.2c0,10.3-7.5,17.2-17.8,17.2h-95.7v46.4h59c8.3,0,14.2,6.1,14.2,14.2c0,8.1-5.8,14.5-14.2,14.5  h-59v30C224.4,391.6,216.9,399.4,205.8,399.4z"/>
</svg>