<?xml version="1.0" ?><!-- Generator: Adobe Illustrator 25.0.0, SVG Export Plug-In . SVG Version: 6.00 Build 0)  --><svg xmlns="http://www.w3.org/2000/svg" xmlns:xlink="http://www.w3.org/1999/xlink" version="1.1" id="Layer_1" x="0px" y="0px" viewBox="0 0 512 512" style="enable-background:new 0 0 512 512;" xml:space="preserve">
<path d="M87.3,512h337.3c58.4,0,87.3-28.9,87.3-86.2V86.2C512,28.9,483.1,0,424.7,0H87.3C29.2,0,0,28.6,0,86.2v339.6  C0,483.4,29.2,512,87.3,512z M87.9,467.2c-27.8,0-43.1-14.7-43.1-43.7V88.4c0-28.9,15.3-43.7,43.1-43.7h336.2  c27.5,0,43.1,14.7,43.1,43.7v335.1c0,28.9-15.6,43.7-43.1,43.7H87.9z M207.5,394.9c10.6,0,17.8-7.5,17.8-18.1v-29.2h57.3  c8.1,0,13.6-6.1,13.6-13.9c0-7.8-5.6-13.6-13.6-13.6h-57.3v-45.3h92.9c10,0,17.2-6.7,17.2-16.7c0-10-7.2-16.4-17.2-16.4h-92.9V163  h103.2c9.7,0,17.2-6.7,17.2-16.7c0-10.3-7.5-17-17.2-17H207.2c-11.1,0-18.1,7.2-18.1,18.6v172.1h-22.2c-8.1,0-13.3,5.8-13.3,13.6  c0,7.8,5.3,13.9,13.3,13.9h22.2v29.5C189.1,388,196.9,394.9,207.5,394.9z"/>
</svg>