<?xml version="1.0" encoding="UTF-8"?>
<!--Generator: Apple Native CoreSVG 326-->
<!DOCTYPE svg
PUBLIC "-//W3C//DTD SVG 1.1//EN"
       "http://www.w3.org/Graphics/SVG/1.1/DTD/svg11.dtd">
<svg version="1.1" xmlns="http://www.w3.org/2000/svg" xmlns:xlink="http://www.w3.org/1999/xlink" viewBox="0 0 35.8497 27.8223">
 <g>
  <rect height="27.8223" opacity="0" width="35.8497" x="0" y="0"/>
  <path d="M27.295 26.9727L27.295 3.18359C27.295 1.13281 26.1719 0 24.1211 0L14.1895 0C12.1192 0 11.0352 1.12305 11.0352 3.18359L11.0352 26.9727ZM14.4434 11.3574C13.5547 11.3574 13.0079 10.8398 13.0079 10L13.0079 3.33984C13.0079 2.5 13.5547 1.97266 14.4434 1.97266L23.8672 1.97266C24.7657 1.97266 25.3223 2.5 25.3223 3.33984L25.3223 10C25.3223 10.8398 24.7657 11.3574 23.8672 11.3574ZM9.16019 26.9238C9.16019 27.4023 9.54105 27.8027 10.0098 27.8027L28.2911 27.8027C28.7598 27.8027 29.1602 27.4023 29.1602 26.9238C29.1602 26.4648 28.7598 26.0742 28.2911 26.0742L10.0098 26.0742C9.55082 26.0742 9.16019 26.4551 9.16019 26.9238ZM32.0118 24.6387C34.2383 24.6387 35.4883 23.1543 35.4883 20.5078C35.4883 17.3926 34.8829 13.7891 33.711 8.10547L33.3985 6.60156C33.1641 5.47852 32.8418 4.61914 32.1485 3.75L30.6739 1.9043C30.1075 1.19141 29.0235 2.02148 29.6289 2.77344L31.4258 5.03906C31.5528 5.19531 31.5528 5.39062 31.4551 5.55664L30.3614 7.58789C30.1172 8.04688 30.1758 8.37891 30.5567 8.78906L32.9493 11.3477C33.7403 14.9902 34.1602 18.0078 34.1602 20.5078C34.1602 22.3047 33.3887 23.3105 32.0118 23.3105C30.8204 23.3105 30.0293 22.5098 30.0293 21.1719C30.0293 19.3945 30.3223 16.9434 30.3223 14.7168C30.3223 12.5977 29.2579 10.9766 26.7871 10.1172L26.2403 11.3281C28.1641 11.9531 28.9942 13.1934 28.9942 14.7168C28.9942 16.7188 28.7012 19.1602 28.7012 21.1719C28.7012 23.3203 30.0098 24.6387 32.0118 24.6387Z" fill="black" fill-opacity="0.85"/>
  <path d="M0.351601 13.3203C-0.107384 13.5938-0.126915 14.2188 0.351601 14.4922L6.86527 18.3594C7.36332 18.6523 7.93949 18.418 7.93949 17.9102L7.93949 9.88281C7.93949 9.38477 7.33402 9.16016 6.86527 9.42383Z" fill="black" fill-opacity="0.85"/>
 </g>
</svg>
