<?xml version="1.0" ?><!-- Generator: Adobe Illustrator 25.0.0, SVG Export Plug-In . SVG Version: 6.00 Build 0)  --><svg xmlns="http://www.w3.org/2000/svg" xmlns:xlink="http://www.w3.org/1999/xlink" version="1.1" id="Layer_1" x="0px" y="0px" viewBox="0 0 512 512" style="enable-background:new 0 0 512 512;" xml:space="preserve">
<path d="M359.6,494.9V57.5c0-18.7-4.9-33-14.6-42.8C335.3,4.9,321,0,302.1,0h-183c-18.7,0-33,4.9-42.8,14.6  c-9.8,9.7-14.7,24-14.7,42.9v437.4H359.6z M126.5,240.5c-8.6,0-15.4-2.3-20.3-6.9c-4.9-4.6-7.4-10.9-7.4-18.8V62.8  c0-8,2.5-14.3,7.4-18.9c4.9-4.5,11.7-6.8,20.3-6.8h168.1c8.6,0,15.4,2.3,20.4,6.8c5,4.5,7.5,10.8,7.5,18.9v152.1  c0,7.9-2.5,14.2-7.5,18.8c-5,4.6-11.8,6.9-20.4,6.9H126.5z M25.1,494.2c0,4.8,1.7,9,5.2,12.5c3.4,3.5,7.6,5.3,12.4,5.3h335.8  c4.8,0,9-1.8,12.4-5.3c3.4-3.5,5.2-7.7,5.2-12.5c0-4.8-1.7-9-5.2-12.4c-3.4-3.4-7.6-5.2-12.4-5.2H42.7c-4.8,0-9,1.7-12.4,5.2  C26.8,485.3,25.1,489.4,25.1,494.2z M436,447.9c15.2,0,27.5-4.8,36.9-14.5c9.4-9.7,14-22.4,14-38.2V166.6c0-28.5-5.1-52-15.4-70.4  c-10.4-17.4-25.4-29.1-45-35.1c-4.1-1.2-8.1-0.7-12,1.3c-3.9,2-6.5,5.1-7.8,9.2c-1.2,4.1-0.8,8.1,1.2,12c2,3.9,5.1,6.5,9.3,7.8  c3.9,1,8.3,3,13.1,5.9c4.8,2.9,9.2,7.6,13.4,14.2c4.2,6.5,7.4,15.5,9.8,27.1h-31.6c-5,0-9.1,1.7-12.4,5c-3.3,3.4-4.9,7.5-4.9,12.5  v86.2c0,4.8,1.7,9,5,12.4c3.4,3.4,7.5,5.2,12.3,5.2h33.6v135.4c0,6.4-1.8,11.6-5.4,15.5s-8.3,5.8-14.2,5.8c-6.9,0-12.4-1.9-16.5-5.8  c-4.1-3.9-6.1-9-6.1-15.5v-37.3c0-18.4-5.2-32.8-15.6-43c-10.4-10.2-24.9-15.4-43.7-15.6v31.6c8.6,0,15.5,2.4,20.5,7.1  c5,4.8,7.6,11.4,7.6,19.9v37.3c0,15.8,4.9,28.5,14.8,38.2C406.9,443.1,419.9,447.9,436,447.9z"/>
</svg>