<?xml version="1.0" encoding="UTF-8"?>
<!--Generator: Apple Native CoreSVG 326-->
<!DOCTYPE svg
PUBLIC "-//W3C//DTD SVG 1.1//EN"
       "http://www.w3.org/Graphics/SVG/1.1/DTD/svg11.dtd">
<svg version="1.1" xmlns="http://www.w3.org/2000/svg" xmlns:xlink="http://www.w3.org/1999/xlink" viewBox="0 0 22.2852 33.8965">
 <g>
  <rect height="33.8965" opacity="0" width="22.2852" x="0" y="0"/>
  <path d="M0.830078 33.8965C1.29883 33.8965 1.66016 33.5254 1.66016 33.0762L1.66016 23.1445C1.66016 22.6855 1.29883 22.3145 0.830078 22.3145C0.361328 22.3145 0 22.6855 0 23.1445L0 33.0762C0 33.5254 0.361328 33.8965 0.830078 33.8965ZM4.6875 26.7871C5.3125 26.7871 5.80078 26.2988 5.80078 25.6836C5.80078 25.0586 5.3125 24.5703 4.6875 24.5703C4.08203 24.5703 3.58398 25.0684 3.58398 25.6836C3.58398 26.2988 4.08203 26.7871 4.6875 26.7871ZM8.82812 26.7871C9.45312 26.7871 9.94141 26.2988 9.94141 25.6836C9.94141 25.0586 9.45312 24.5703 8.82812 24.5703C8.21289 24.5703 7.70508 25.0684 7.70508 25.6836C7.70508 26.2988 8.21289 26.7871 8.82812 26.7871ZM12.9688 26.7871C13.584 26.7871 14.0723 26.2988 14.0723 25.6836C14.0723 25.0586 13.584 24.5703 12.9688 24.5703C12.3535 24.5703 11.8457 25.0684 11.8457 25.6836C11.8457 26.2988 12.3535 26.7871 12.9688 26.7871ZM17.0898 26.7871C17.7148 26.7871 18.2031 26.2988 18.2031 25.6836C18.2031 25.0586 17.7148 24.5703 17.0898 24.5703C16.4844 24.5703 15.9766 25.0684 15.9766 25.6836C15.9766 26.2988 16.4844 26.7871 17.0898 26.7871ZM4.6875 31.7383C5.3125 31.7383 5.80078 31.2305 5.80078 30.6152C5.80078 29.9902 5.3125 29.502 4.6875 29.502C4.08203 29.502 3.58398 30 3.58398 30.6152C3.58398 31.2305 4.08203 31.7383 4.6875 31.7383ZM8.82812 31.7383C9.45312 31.7383 9.94141 31.2305 9.94141 30.6152C9.94141 29.9902 9.45312 29.502 8.82812 29.502C8.21289 29.502 7.70508 30 7.70508 30.6152C7.70508 31.2305 8.21289 31.7383 8.82812 31.7383ZM12.9688 31.7383C13.584 31.7383 14.0723 31.2305 14.0723 30.6152C14.0723 29.9902 13.584 29.502 12.9688 29.502C12.3535 29.502 11.8457 30 11.8457 30.6152C11.8457 31.2305 12.3535 31.7383 12.9688 31.7383ZM17.0898 31.7383C17.7148 31.7383 18.2031 31.2305 18.2031 30.6152C18.2031 29.9902 17.7148 29.502 17.0898 29.502C16.4844 29.502 15.9766 30 15.9766 30.6152C15.9766 31.2305 16.4844 31.7383 17.0898 31.7383ZM20.9473 33.8184C21.416 33.8184 21.7871 33.4473 21.7871 32.9883L21.7871 23.2129C21.7871 22.7539 21.416 22.3828 20.9473 22.3828C20.498 22.3828 20.127 22.7539 20.127 23.2129L20.127 32.9883C20.127 33.4473 20.498 33.8184 20.9473 33.8184Z" fill="black" fill-opacity="0.85"/>
  <path d="M15.9473 19.8828L15.9473 2.77344C15.9473 1.29883 15.1367 0.488281 13.6621 0.488281L6.51367 0.488281C5.0293 0.488281 4.25781 1.29883 4.25781 2.77344L4.25781 19.8828ZM6.70898 8.65234C6.06445 8.65234 5.67383 8.28125 5.67383 7.67578L5.67383 2.89062C5.67383 2.28516 6.06445 1.91406 6.70898 1.91406L13.4766 1.91406C14.1309 1.91406 14.5312 2.28516 14.5312 2.89062L14.5312 7.67578C14.5312 8.28125 14.1309 8.65234 13.4766 8.65234ZM2.8125 19.8438C2.8125 20.2539 3.14453 20.5664 3.51562 20.5664L16.6699 20.5664C17.0508 20.5664 17.373 20.2539 17.373 19.8438C17.373 19.4629 17.0605 19.1504 16.6699 19.1504L3.51562 19.1504C3.14453 19.1504 2.8125 19.4531 2.8125 19.8438ZM19.3359 18.3008C20.9961 18.3008 21.9238 17.1777 21.9238 15.2344C21.9238 12.9883 21.4941 10.3809 20.6348 6.29883L20.4199 5.21484C20.2539 4.4043 20.0098 3.75977 19.502 3.125L18.4375 1.80664C17.9688 1.20117 17.041 1.9043 17.5586 2.5293L18.8477 4.16992C18.916 4.23828 18.916 4.3457 18.8574 4.45312L18.0762 5.88867C17.8711 6.2793 17.9395 6.55273 18.2227 6.875L19.9316 8.69141C20.4883 11.2793 20.791 13.4473 20.791 15.2344C20.791 16.4941 20.2832 17.1582 19.3359 17.1582C18.5156 17.1582 17.998 16.6406 17.998 15.7031C17.998 14.4434 18.2129 12.6855 18.2129 11.0742C18.2129 9.47266 17.4023 8.27148 15.5371 7.64648L15.0781 8.69141C16.4941 9.11133 17.0801 9.9707 17.0801 11.0742C17.0801 12.5 16.8652 14.2578 16.8652 15.7031C16.8652 17.2949 17.8516 18.3008 19.3359 18.3008Z" fill="black" fill-opacity="0.85"/>
 </g>
</svg>
