<?xml version="1.0" encoding="UTF-8"?>
<!--Generator: Apple Native CoreSVG 326-->
<!DOCTYPE svg
PUBLIC "-//W3C//DTD SVG 1.1//EN"
       "http://www.w3.org/Graphics/SVG/1.1/DTD/svg11.dtd">
<svg version="1.1" xmlns="http://www.w3.org/2000/svg" xmlns:xlink="http://www.w3.org/1999/xlink" viewBox="0 0 25.8008 25.459">
 <g>
  <rect height="25.459" opacity="0" width="25.8008" x="0" y="0"/>
  <path d="M12.7148 25.4395C19.7363 25.4395 25.4395 19.7461 25.4395 12.7246C25.4395 5.70312 19.7363 0 12.7148 0C5.69336 0 0 5.70312 0 12.7246C0 19.7461 5.69336 25.4395 12.7148 25.4395ZM12.7148 23.623C6.68945 23.623 1.81641 18.75 1.81641 12.7246C1.81641 6.69922 6.68945 1.82617 12.7148 1.82617C18.7402 1.82617 23.6133 6.69922 23.6133 12.7246C23.6133 18.75 18.7402 23.623 12.7148 23.623Z" fill="black" fill-opacity="0.85"/>
  <path d="M9.3457 11.2305C8.88672 11.2305 8.61328 10.9668 8.61328 10.5371L8.61328 7.10938C8.61328 6.66992 8.88672 6.39648 9.3457 6.39648L14.209 6.39648C14.6582 6.39648 14.9512 6.66992 14.9512 7.10938L14.9512 10.5371C14.9512 10.9668 14.6582 11.2305 14.209 11.2305ZM6.60156 19.2285C6.60156 19.502 6.80664 19.7168 7.08008 19.7168L16.4648 19.7168C16.7285 19.7168 16.9531 19.502 16.9531 19.2285C16.9531 18.9648 16.7285 18.7402 16.4648 18.7402L15.957 18.7402L15.957 11.5039C16.5332 11.8359 16.7871 12.3438 16.7871 12.959C16.7871 13.9844 16.6406 15.2344 16.6406 16.2695C16.6406 17.4023 17.3242 18.0859 18.3789 18.0859C19.541 18.0859 20.2051 17.3047 20.2051 15.9277C20.2051 14.3262 19.873 12.4609 19.2871 9.55078L19.1211 8.75C19.0234 8.19336 18.8379 7.75391 18.4863 7.31445L17.7246 6.35742C17.3926 5.92773 16.7578 6.41602 17.1094 6.8457L18.0469 8.00781C18.0859 8.06641 18.1055 8.1543 18.0566 8.23242L17.4902 9.27734C17.3438 9.53125 17.3926 9.72656 17.5977 9.94141L18.8184 11.25C19.2285 13.125 19.4434 14.6387 19.4434 15.9277C19.4434 16.8457 19.0625 17.3242 18.3789 17.3242C17.7832 17.3242 17.4023 16.9336 17.4023 16.2695C17.4023 15.3613 17.5488 14.1113 17.5488 12.959C17.5488 11.9141 17.0605 11.084 15.957 10.6445L15.957 7.03125C15.957 5.97656 15.3809 5.40039 14.3262 5.40039L9.22852 5.40039C8.17383 5.40039 7.61719 5.97656 7.61719 7.03125L7.61719 18.7402L7.08008 18.7402C6.80664 18.7402 6.60156 18.9551 6.60156 19.2285Z" fill="black" fill-opacity="0.85"/>
 </g>
</svg>
