<?xml version="1.0" encoding="UTF-8"?>
<!--Generator: Apple Native CoreSVG 326-->
<!DOCTYPE svg
PUBLIC "-//W3C//DTD SVG 1.1//EN"
       "http://www.w3.org/Graphics/SVG/1.1/DTD/svg11.dtd">
<svg version="1.1" xmlns="http://www.w3.org/2000/svg" xmlns:xlink="http://www.w3.org/1999/xlink" viewBox="0 0 28.4375 27.8223">
 <g>
  <rect height="27.8223" opacity="0" width="28.4375" x="0" y="0"/>
  <path d="M3.58398 26.9824L5.29297 26.9824L5.30273 3.21289C5.30273 2.24609 5.78125 1.73828 6.77734 1.73828L17.0312 1.73828C17.9883 1.73828 18.5156 2.24609 18.5156 3.21289L18.5156 26.9824L20.2441 26.9824L20.2441 3.18359C20.2441 1.13281 19.1211 0 17.0703 0L6.73828 0C4.66797 0 3.58398 1.12305 3.58398 3.18359ZM7.27539 11.3574L16.5332 11.3574C17.0117 11.3574 17.3535 11.0059 17.3535 10.5371L17.3535 3.7207C17.3535 3.24219 17.002 2.90039 16.5332 2.90039L7.27539 2.90039C6.80664 2.90039 6.46484 3.24219 6.46484 3.7207L6.46484 10.5371C6.46484 11.0059 6.79688 11.3574 7.27539 11.3574ZM1.69922 26.9336C1.69922 27.4219 2.08984 27.8125 2.55859 27.8125L21.25 27.8125C21.7188 27.8125 22.1094 27.4219 22.1094 26.9336C22.1094 26.4746 21.7188 26.084 21.25 26.084L2.55859 26.084C2.09961 26.084 1.69922 26.4648 1.69922 26.9336ZM24.9609 24.6387C27.1875 24.6387 28.4375 23.1543 28.4375 20.5078C28.4375 17.3926 27.832 13.7891 26.6602 8.10547L26.3477 6.60156C26.1133 5.47852 25.791 4.61914 25.0977 3.75L23.623 1.9043C23.0566 1.19141 21.9727 2.02148 22.5781 2.77344L24.3848 5.03906C24.502 5.19531 24.502 5.39062 24.4141 5.55664L23.3203 7.58789C23.0664 8.04688 23.125 8.37891 23.5059 8.78906L25.8984 11.3477C26.6992 14.9902 27.1094 18.0078 27.1094 20.5078C27.1094 22.3047 26.3379 23.3105 24.9609 23.3105C23.7695 23.3105 22.9785 22.5098 22.9785 21.1719C22.9785 19.3945 23.2812 16.9434 23.2812 14.7168C23.2812 12.5977 22.207 10.9766 19.7363 10.1172L19.1895 11.3281C21.123 11.9531 21.9531 13.1934 21.9531 14.7168C21.9531 16.7188 21.6504 19.1602 21.6504 21.1719C21.6504 23.3203 22.959 24.6387 24.9609 24.6387Z" fill="black" fill-opacity="0.85"/>
 </g>
</svg>
