<?xml version="1.0" encoding="UTF-8"?>
<!--Generator: Apple Native CoreSVG 326-->
<!DOCTYPE svg
PUBLIC "-//W3C//DTD SVG 1.1//EN"
       "http://www.w3.org/Graphics/SVG/1.1/DTD/svg11.dtd">
<svg version="1.1" xmlns="http://www.w3.org/2000/svg" xmlns:xlink="http://www.w3.org/1999/xlink" viewBox="0 0 33.2056 33.6451">
 <g>
  <rect height="33.6451" opacity="0" width="33.2056" x="0" y="0"/>
  <path d="M7.95341 13.1897C8.04413 13.7527 8.42027 14.1275 8.99972 14.2349L22.218 27.4389L22.218 28.9856L23.2141 28.9856C23.6829 28.9856 24.0833 29.3763 24.0833 29.8353C24.0833 30.3138 23.6829 30.7142 23.2141 30.7142L4.93287 30.7142C4.47388 30.7142 4.08326 30.3138 4.08326 29.8353C4.08326 29.3665 4.48365 28.9856 4.93287 28.9856L5.95826 28.9856L5.95826 11.1967ZM25.5969 4.81572L27.0715 6.66142C27.7649 7.53056 28.0872 8.38994 28.3215 9.51299L28.634 11.0169C29.8059 16.7005 30.4114 20.304 30.4114 23.4192C30.4114 25.4607 29.6676 26.8106 28.3028 27.3175L27.194 26.209C28.4083 26.0886 29.0833 25.0999 29.0833 23.4192C29.0833 20.9192 28.6633 17.9017 27.8723 14.2591L25.4797 11.7005C25.0989 11.2903 25.0403 10.9583 25.2844 10.4993L26.3782 8.46806C26.4758 8.30205 26.4758 8.10674 26.3586 7.95049L24.552 5.68486C23.9465 4.93291 25.0305 4.10283 25.5969 4.81572ZM22.218 6.09502L22.218 13.2261C24.3294 14.1229 25.2551 15.661 25.2551 17.6282C25.2551 19.8096 24.9645 22.2067 24.9545 23.9704L23.663 22.6793C23.7405 21.0033 23.9172 19.1832 23.9172 17.6282C23.9172 16.4191 23.4005 15.3884 22.218 14.7034L22.218 21.2349L15.2495 14.2688L18.7903 14.2688C19.6887 14.2688 20.2454 13.7513 20.2454 12.9114L20.2454 6.25127C20.2454 5.41142 19.6887 4.88408 18.7903 4.88408L9.36646 4.88408C8.47779 4.88408 7.93091 5.41142 7.93091 6.25127L7.93091 6.95289L6.06256 5.08521C6.37593 3.66987 7.41119 2.91142 9.11255 2.91142L19.0442 2.91142C21.095 2.91142 22.218 4.04424 22.218 6.09502Z" fill="black" fill-opacity="0.85"/>
  <path d="M28.7512 32.0423C29.0833 32.3743 29.6106 32.3743 29.9231 32.0423C30.2551 31.7103 30.2649 31.1829 29.9231 30.8606L2.78443 3.7415C2.47193 3.41924 1.93482 3.40947 1.60279 3.7415C1.28052 4.054 1.28052 4.60088 1.60279 4.91338Z" fill="black" fill-opacity="0.85"/>
 </g>
</svg>
