<?xml version="1.0" encoding="UTF-8"?>
<!--Generator: Apple Native CoreSVG 326-->
<!DOCTYPE svg
PUBLIC "-//W3C//DTD SVG 1.1//EN"
       "http://www.w3.org/Graphics/SVG/1.1/DTD/svg11.dtd">
<svg version="1.1" xmlns="http://www.w3.org/2000/svg" xmlns:xlink="http://www.w3.org/1999/xlink" viewBox="0 0 37.6758 27.8223">
 <g>
  <rect height="27.8223" opacity="0" width="37.6758" x="0" y="0"/>
  <path d="M1.875 26.9824L3.59375 26.9824L3.60352 3.21289C3.60352 2.24609 4.08203 1.73828 5.06836 1.73828L15.332 1.73828C16.2891 1.73828 16.8066 2.24609 16.8066 3.21289L16.8164 26.9824L18.5449 26.9824L18.5449 3.18359C18.5449 1.13281 17.4219 0 15.3613 0L5.03906 0C2.96875 0 1.875 1.12305 1.875 3.18359ZM5.56641 11.3574L14.834 11.3574C15.3125 11.3574 15.6445 11.0059 15.6445 10.5371L15.6445 3.7207C15.6445 3.24219 15.3027 2.90039 14.834 2.90039L5.56641 2.90039C5.09766 2.90039 4.76562 3.24219 4.76562 3.7207L4.76562 10.5371C4.76562 11.0059 5.09766 11.3574 5.56641 11.3574ZM0 26.9336C0 27.4219 0.380859 27.8125 0.859375 27.8125L19.541 27.8125C20.0195 27.8125 20.4102 27.4219 20.4102 26.9336C20.4102 26.4746 20.0195 26.084 19.541 26.084L0.859375 26.084C0.390625 26.084 0 26.4648 0 26.9336ZM23.2617 24.6387C25.4785 24.6387 26.7383 23.1543 26.7383 20.5078C26.7383 17.3926 26.123 13.7891 24.9512 8.10547L24.6387 6.60156C24.4043 5.47852 24.0918 4.61914 23.3887 3.75L21.9141 1.9043C21.3477 1.19141 20.2734 2.02148 20.8789 2.77344L22.6758 5.03906C22.793 5.19531 22.8027 5.39062 22.7051 5.55664L21.6113 7.58789C21.3672 8.04688 21.4258 8.37891 21.8066 8.78906L24.1992 11.3477C24.9902 14.9902 25.4102 18.0078 25.4102 20.5078C25.4102 22.3047 24.6387 23.3105 23.2617 23.3105C22.0703 23.3105 21.2793 22.5098 21.2793 21.1719C21.2793 19.3945 21.5723 16.9434 21.5723 14.7168C21.5723 12.5977 20.5078 10.9766 18.0371 10.1172L17.4902 11.3281C19.4141 11.9531 20.2441 13.1934 20.2441 14.7168C20.2441 16.7188 19.9512 19.1602 19.9512 21.1719C19.9512 23.3203 21.2598 24.6387 23.2617 24.6387Z" fill="black" fill-opacity="0.85"/>
  <path d="M36.9727 13.3203L30.459 9.42383C29.9902 9.16016 29.375 9.38477 29.375 9.88281L29.375 17.9102C29.375 18.418 29.9609 18.6523 30.459 18.3594L36.9727 14.4922C37.4414 14.2188 37.4219 13.5938 36.9727 13.3203Z" fill="black" fill-opacity="0.85"/>
 </g>
</svg>
