<?xml version="1.0" encoding="UTF-8"?>
<!--Generator: Apple Native CoreSVG 326-->
<!DOCTYPE svg
PUBLIC "-//W3C//DTD SVG 1.1//EN"
       "http://www.w3.org/Graphics/SVG/1.1/DTD/svg11.dtd">
<svg version="1.1" xmlns="http://www.w3.org/2000/svg" xmlns:xlink="http://www.w3.org/1999/xlink" viewBox="0 0 33.1152 27.8223">
 <g>
  <rect height="27.8223" opacity="0" width="33.1152" x="0" y="0"/>
  <path d="M31.2598 22.1387C32.0703 22.1387 32.7539 21.4746 32.7539 20.7031C32.7539 19.9023 32.0801 19.2578 31.2598 19.2578C30.4395 19.2578 29.7754 19.9023 29.7754 20.7031C29.7754 21.4746 30.4492 22.1387 31.2598 22.1387ZM31.2598 16.6992C31.7871 16.6992 32.1582 16.3184 32.1777 15.7812L32.3926 6.78711C32.4121 6.10352 31.9629 5.6543 31.2598 5.6543C30.5664 5.6543 30.1074 6.10352 30.127 6.78711L30.3516 15.7812C30.3711 16.3184 30.7422 16.6992 31.2598 16.6992Z" fill="black" fill-opacity="0.85"/>
  <path d="M18.1348 26.9727L18.1348 3.18359C18.1348 1.13281 17.0117 0 14.9609 0L5.0293 0C2.95898 0 1.86523 1.12305 1.86523 3.18359L1.86523 26.9727ZM5.2832 11.3574C4.38477 11.3574 3.83789 10.8398 3.83789 10L3.83789 3.33984C3.83789 2.5 4.38477 1.97266 5.2832 1.97266L14.707 1.97266C15.5957 1.97266 16.1621 2.5 16.1621 3.33984L16.1621 10C16.1621 10.8398 15.5957 11.3574 14.707 11.3574ZM0 26.9238C0 27.4023 0.380859 27.8027 0.849609 27.8027L19.1309 27.8027C19.5996 27.8027 20 27.4023 20 26.9238C20 26.4648 19.5996 26.0742 19.1309 26.0742L0.849609 26.0742C0.390625 26.0742 0 26.4551 0 26.9238ZM22.8516 24.6387C25.0684 24.6387 26.3281 23.1543 26.3281 20.5078C26.3281 17.3926 25.7129 13.7891 24.541 8.10547L24.2285 6.60156C23.9941 5.47852 23.6816 4.61914 22.9785 3.75L21.5039 1.9043C20.9375 1.19141 19.8633 2.02148 20.4688 2.77344L22.2656 5.03906C22.3828 5.19531 22.3926 5.39062 22.2949 5.55664L21.2012 7.58789C20.957 8.04688 21.0156 8.37891 21.3867 8.78906L23.7891 11.3477C24.5801 14.9902 24.9902 18.0078 24.9902 20.5078C24.9902 22.3047 24.2285 23.3105 22.8516 23.3105C21.6602 23.3105 20.8594 22.5098 20.8594 21.1719C20.8594 19.3945 21.1621 16.9434 21.1621 14.7168C21.1621 12.5977 20.0977 10.9766 17.627 10.1172L17.0801 11.3281C19.0039 11.9531 19.834 13.1934 19.834 14.7168C19.834 16.7188 19.5312 19.1602 19.5312 21.1719C19.5312 23.3203 20.8398 24.6387 22.8516 24.6387Z" fill="black" fill-opacity="0.85"/>
 </g>
</svg>
