<?xml version="1.0" encoding="UTF-8"?>
<!--Generator: Apple Native CoreSVG 326-->
<!DOCTYPE svg
PUBLIC "-//W3C//DTD SVG 1.1//EN"
       "http://www.w3.org/Graphics/SVG/1.1/DTD/svg11.dtd">
<svg version="1.1" xmlns="http://www.w3.org/2000/svg" xmlns:xlink="http://www.w3.org/1999/xlink" viewBox="0 0 27.6172 27.8223">
 <g>
  <rect height="27.8223" opacity="0" width="27.6172" x="0" y="0"/>
  <path d="M19.4238 26.9727L19.4238 3.18359C19.4238 1.13281 18.3008 0 16.25 0L6.31836 0C4.24805 0 3.16406 1.12305 3.16406 3.18359L3.16406 26.9727ZM6.57227 11.3574C5.68359 11.3574 5.13672 10.8398 5.13672 10L5.13672 3.33984C5.13672 2.5 5.68359 1.97266 6.57227 1.97266L15.9961 1.97266C16.8945 1.97266 17.4512 2.5 17.4512 3.33984L17.4512 10C17.4512 10.8398 16.8945 11.3574 15.9961 11.3574ZM1.28906 26.9238C1.28906 27.4023 1.67969 27.8027 2.13867 27.8027L20.4199 27.8027C20.8887 27.8027 21.2891 27.4023 21.2891 26.9238C21.2891 26.4648 20.8887 26.0742 20.4199 26.0742L2.13867 26.0742C1.68945 26.0742 1.28906 26.4551 1.28906 26.9238ZM24.1406 24.6387C26.3672 24.6387 27.6172 23.1543 27.6172 20.5078C27.6172 17.3926 27.0117 13.7891 25.8398 8.10547L25.5273 6.60156C25.293 5.47852 24.9707 4.61914 24.2773 3.75L22.8027 1.9043C22.2363 1.19141 21.1523 2.02148 21.7578 2.77344L23.5645 5.03906C23.6816 5.19531 23.6816 5.39062 23.584 5.55664L22.4902 7.58789C22.2461 8.04688 22.3047 8.37891 22.6855 8.78906L25.0781 11.3477C25.8691 14.9902 26.2891 18.0078 26.2891 20.5078C26.2891 22.3047 25.5176 23.3105 24.1406 23.3105C22.9492 23.3105 22.1582 22.5098 22.1582 21.1719C22.1582 19.3945 22.4609 16.9434 22.4609 14.7168C22.4609 12.5977 21.3867 10.9766 18.916 10.1172L18.3691 11.3281C20.3027 11.9531 21.123 13.1934 21.123 14.7168C21.123 16.7188 20.8301 19.1602 20.8301 21.1719C20.8301 23.3203 22.1387 24.6387 24.1406 24.6387Z" fill="black" fill-opacity="0.85"/>
 </g>
</svg>
