<?xml version="1.0" encoding="UTF-8"?>
<!--Generator: Apple Native CoreSVG 326-->
<!DOCTYPE svg
PUBLIC "-//W3C//DTD SVG 1.1//EN"
       "http://www.w3.org/Graphics/SVG/1.1/DTD/svg11.dtd">
<svg version="1.1" xmlns="http://www.w3.org/2000/svg" xmlns:xlink="http://www.w3.org/1999/xlink" viewBox="0 0 36.2501 27.8223">
 <g>
  <rect height="27.8223" opacity="0" width="36.2501" x="0" y="0"/>
  <path d="M11.0352 26.9824L12.7539 26.9824L12.7539 3.21289C12.7539 2.24609 13.2422 1.73828 14.2286 1.73828L24.4922 1.73828C25.4493 1.73828 25.9668 2.24609 25.9668 3.21289L25.9766 26.9824L27.7051 26.9824L27.7051 3.18359C27.7051 1.13281 26.5821 0 24.5215 0L14.1993 0C12.1289 0 11.0352 1.12305 11.0352 3.18359ZM14.7266 11.3574L23.9942 11.3574C24.4629 11.3574 24.8047 11.0059 24.8047 10.5371L24.8047 3.7207C24.8047 3.24219 24.4629 2.90039 23.9942 2.90039L14.7266 2.90039C14.2579 2.90039 13.9161 3.24219 13.9161 3.7207L13.9161 10.5371C13.9161 11.0059 14.2481 11.3574 14.7266 11.3574ZM9.16019 26.9336C9.16019 27.4219 9.54105 27.8125 10.0098 27.8125L28.7012 27.8125C29.17 27.8125 29.5606 27.4219 29.5606 26.9336C29.5606 26.4746 29.17 26.084 28.7012 26.084L10.0098 26.084C9.55082 26.084 9.16019 26.4648 9.16019 26.9336ZM32.4219 24.6387C34.6387 24.6387 35.8887 23.1543 35.8887 20.5078C35.8887 17.3926 35.2832 13.7891 34.1114 8.10547L33.7989 6.60156C33.5645 5.47852 33.252 4.61914 32.5489 3.75L31.0743 1.9043C30.5079 1.19141 29.4239 2.02148 30.0293 2.77344L31.836 5.03906C31.9532 5.19531 31.9532 5.39062 31.8653 5.55664L30.7715 7.58789C30.5274 8.04688 30.586 8.37891 30.9571 8.78906L33.3496 11.3477C34.1504 14.9902 34.5606 18.0078 34.5606 20.5078C34.5606 22.3047 33.7891 23.3105 32.4219 23.3105C31.2305 23.3105 30.4297 22.5098 30.4297 21.1719C30.4297 19.3945 30.7325 16.9434 30.7325 14.7168C30.7325 12.5977 29.668 10.9766 27.1973 10.1172L26.6504 11.3281C28.5743 11.9531 29.4043 13.1934 29.4043 14.7168C29.4043 16.7188 29.1016 19.1602 29.1016 21.1719C29.1016 23.3203 30.4102 24.6387 32.4219 24.6387Z" fill="black" fill-opacity="0.85"/>
  <path d="M0.351601 13.3203C-0.107384 13.5938-0.126915 14.2188 0.351601 14.4922L6.86527 18.3594C7.36332 18.6523 7.93949 18.418 7.93949 17.9102L7.93949 9.88281C7.93949 9.38477 7.33402 9.16016 6.86527 9.42383Z" fill="black" fill-opacity="0.85"/>
 </g>
</svg>
