<?xml version="1.0" ?><!-- Generator: Adobe Illustrator 25.0.0, SVG Export Plug-In . SVG Version: 6.00 Build 0)  --><svg xmlns="http://www.w3.org/2000/svg" xmlns:xlink="http://www.w3.org/1999/xlink" version="1.1" id="Layer_1" x="0px" y="0px" viewBox="0 0 512 512" style="enable-background:new 0 0 512 512;" xml:space="preserve">
<path d="M255.1,397.9c6.5,0,11.1-3.6,11.1-10.2c0-2.9-0.6-4.4-2.7-8.4c-23.4-36.3-36.8-77.9-36.8-123c0-43.5,12.7-87.1,36.8-123.5  c2.1-4,2.7-5.6,2.7-8.4c0-6.1-4.6-10.2-11.1-10.2c-6.3,0-11.3,2.9-17.5,11.3c-29,36.6-43.4,82.3-43.4,130.6s14,92.7,43.4,130.4  C243.8,395,248.8,397.9,255.1,397.9z M451.2,397.9c6.3,0,11.3-2.9,17.5-11.3C498,348.8,512,304.4,512,256.1s-14.4-94-43.4-130.6  c-6.1-8.4-11.1-11.3-17.5-11.3c-6.5,0-11.1,4-11.1,10.2c0,2.9,0.6,4.4,2.7,8.4c24.2,36.4,36.8,80,36.8,123.5  c0,45.1-13.4,86.7-36.8,123c-2.1,4-2.7,5.6-2.7,8.4C440.1,393.8,444.7,397.9,451.2,397.9z M25.9,397.5c37.6,0,54.9-16.1,64.1-59.3  l21.9-104.9h34.7c11.1,0,18.2-5.9,18.2-15.5c0-8.2-5.4-13.4-14.2-13.4H118l5.4-26.1c5.2-24.4,12.9-34.3,34-34.3  c3.3,0,6.3-0.2,8.4-0.4c9.4-1,13.8-5.4,13.8-13.6c0-10.7-9-15.5-27.4-15.5c-36.6,0-55.4,18.2-64.1,59.3l-6.3,30.7H57.9  c-11.3,0-18.4,5.9-18.4,15.5c0,8.2,5.4,13.4,14.4,13.4h21.7L54.5,333.6c-5.4,25.1-13.2,34.3-33.8,34.3c-2.7,0-5.4,0.2-7.1,0.4  c-8.8,1.2-13.6,5.9-13.6,14C0,392.7,8.8,397.5,25.9,397.5z M295.4,347c6.1,0,10.6-2.1,15.3-9l42-59.9h0.8l43,60.8  c4.8,6.7,9.4,8.1,14,8.1c9.2,0,15.2-6.5,15.2-14.4c0-3.6-1-7.1-3.5-10.4l-49.1-66.8l49.1-65.8c2.3-3.3,3.6-6.7,3.6-10.7  c0-8.2-6.9-14-14.8-14c-6.9,0-10.7,3.5-14.4,9l-40.5,59.3h-1l-40.7-59.5c-3.8-5.6-8.2-8.8-15.5-8.8c-9,0-15.7,7.1-15.7,14.8  c0,5.6,1.7,9,4.2,12.3l46.8,62.5L284.7,323c-2.7,3.6-3.3,6.9-3.3,10.7C281.4,341.3,287.7,347,295.4,347z"/>
</svg>