<?xml version="1.0" encoding="UTF-8"?>
<!--Generator: Apple Native CoreSVG 326-->
<!DOCTYPE svg
PUBLIC "-//W3C//DTD SVG 1.1//EN"
       "http://www.w3.org/Graphics/SVG/1.1/DTD/svg11.dtd">
<svg version="1.1" xmlns="http://www.w3.org/2000/svg" xmlns:xlink="http://www.w3.org/1999/xlink" viewBox="0 0 27.959 18.6426">
 <g>
  <rect height="18.6426" opacity="0" width="27.959" x="0" y="0"/>
  <path d="M14.0137 18.6426C14.3848 18.6426 14.5898 18.5254 14.8633 18.1445L20.2344 10.8984L20.293 10.8984L25.6348 18.1543C25.8887 18.5156 26.123 18.6426 26.5137 18.6426C27.0605 18.6426 27.4707 18.252 27.4707 17.7148C27.4707 17.4805 27.3926 17.2266 27.2363 17.0215L21.5039 9.36523L27.3535 1.57227C27.5098 1.35742 27.5977 1.13281 27.5977 0.898438C27.5977 0.410156 27.1777 0.00976562 26.6797 0.00976562C26.2793 0.00976562 26.0645 0.136719 25.791 0.517578L20.4199 7.85156L20.3613 7.85156L15.0195 0.527344C14.7363 0.126953 14.5312 0.00976562 14.1113 0.00976562C13.5547 0.00976562 13.1445 0.390625 13.1445 0.908203C13.1445 1.16211 13.2227 1.37695 13.3887 1.61133L19.082 9.30664L13.3105 17.0703C13.1445 17.2949 13.0664 17.5195 13.0664 17.7441C13.0664 18.252 13.4863 18.6426 14.0137 18.6426Z" fill="black" fill-opacity="0.85"/>
  <path d="M0.976562 18.5645C1.57227 18.5645 1.96289 18.1738 1.96289 17.5781L1.96289 10.2539L9.6875 10.2539C10.2148 10.2539 10.5859 9.92188 10.5859 9.39453C10.5859 8.85742 10.2148 8.52539 9.6875 8.52539L1.96289 8.52539L1.96289 1.98242L10.4199 1.98242C10.957 1.98242 11.3379 1.65039 11.3379 1.10352C11.3379 0.556641 10.957 0.214844 10.4199 0.214844L0.966797 0.214844C0.371094 0.214844 0 0.605469 0 1.21094L0 17.5781C0 18.1738 0.371094 18.5645 0.976562 18.5645Z" fill="black" fill-opacity="0.85"/>
 </g>
</svg>
