<?xml version="1.0" ?><!-- Generator: Adobe Illustrator 25.0.0, SVG Export Plug-In . SVG Version: 6.00 Build 0)  --><svg xmlns="http://www.w3.org/2000/svg" xmlns:xlink="http://www.w3.org/1999/xlink" version="1.1" id="Layer_1" x="0px" y="0px" viewBox="0 0 512 512" style="enable-background:new 0 0 512 512;" xml:space="preserve">
<path d="M256,512c140,0,256-116.2,256-256C512,116,395.8,0,255.7,0C116,0,0,116,0,256C0,395.8,116.2,512,256,512z M257,378.7  c-68.5,0-111.9-48.4-111.9-125c0-76.3,43.4-125.2,110.9-125.2c48.9,0,83.3,24.3,95.9,57.2c1.5,4.3,2.5,7.5,2.5,12  c0,11-7,18.1-18.1,18.1c-8,0-13.1-4-17.3-12.8c-10.8-25.9-32.6-39.9-62.2-39.9c-41.7,0-69.5,36.4-69.5,90.6  c0,54.5,28.1,90.6,70.3,90.6c39.4,0,59.7-20.6,59.7-51.2v-17.1h-47.9c-9.5,0-15.3-7-15.3-15.1c0-8.8,5.8-15.1,15.3-15.1h67.3  c13.8,0,22.1,8.3,22.1,22.6v19.1C358.6,341.3,321,378.7,257,378.7z"/>
</svg>