<?xml version="1.0" encoding="UTF-8"?>
<!--Generator: Apple Native CoreSVG 326-->
<!DOCTYPE svg
PUBLIC "-//W3C//DTD SVG 1.1//EN"
       "http://www.w3.org/Graphics/SVG/1.1/DTD/svg11.dtd">
<svg version="1.1" xmlns="http://www.w3.org/2000/svg" xmlns:xlink="http://www.w3.org/1999/xlink" viewBox="0 0 23.3203 22.959">
 <g>
  <rect height="22.959" opacity="0" width="23.3203" x="0" y="0"/>
  <path d="M3.79883 22.959L19.1504 22.959C21.6797 22.959 22.959 21.6797 22.959 19.1992L22.959 3.76953C22.959 1.2793 21.6797 0 19.1504 0L3.79883 0C1.2793 0 0 1.26953 0 3.76953L0 19.1992C0 21.6992 1.2793 22.959 3.79883 22.959ZM3.83789 21.2305C2.4707 21.2305 1.72852 20.5078 1.72852 19.1016L1.72852 3.85742C1.72852 2.46094 2.4707 1.72852 3.83789 1.72852L19.1211 1.72852C20.459 1.72852 21.2305 2.46094 21.2305 3.85742L21.2305 19.1016C21.2305 20.5078 20.459 21.2305 19.1211 21.2305Z" fill="black" fill-opacity="0.85"/>
  <path d="M11.5527 17.3438C14.5215 17.3438 16.3086 15.5566 16.3086 12.9297L16.3086 12.0215C16.3086 11.4453 15.9668 11.0938 15.4102 11.0938L12.0312 11.0938C11.6309 11.0938 11.377 11.3574 11.377 11.7383C11.377 12.0703 11.6309 12.373 12.0312 12.373L14.5996 12.373L14.5996 13.1445C14.5996 14.8145 13.5449 15.8984 11.5723 15.8984C9.45312 15.8984 8.02734 14.0918 8.02734 11.3867C8.02734 8.69141 9.44336 6.86523 11.543 6.86523C13.0762 6.86523 14.2188 7.63672 14.668 8.97461C14.8438 9.35547 15.0488 9.52148 15.4004 9.52148C15.8496 9.52148 16.1426 9.23828 16.1426 8.76953C16.1426 8.58398 16.1133 8.42773 16.0547 8.24219C15.5371 6.72852 13.9355 5.41992 11.5234 5.41992C8.33984 5.41992 6.2793 7.76367 6.2793 11.3867C6.2793 15.0195 8.33984 17.3438 11.5527 17.3438Z" fill="black" fill-opacity="0.85"/>
 </g>
</svg>
