<?xml version="1.0" encoding="UTF-8"?>
<!--Generator: Apple Native CoreSVG 326-->
<!DOCTYPE svg
PUBLIC "-//W3C//DTD SVG 1.1//EN"
       "http://www.w3.org/Graphics/SVG/1.1/DTD/svg11.dtd">
<svg version="1.1" xmlns="http://www.w3.org/2000/svg" xmlns:xlink="http://www.w3.org/1999/xlink" viewBox="0 0 25.8008 25.459">
 <g>
  <rect height="25.459" opacity="0" width="25.8008" x="0" y="0"/>
  <path d="M25.4395 12.7344C25.4395 19.7461 19.7266 25.459 12.7148 25.459C5.71289 25.459 0 19.7461 0 12.7344C0 5.73242 5.71289 0.0195312 12.7148 0.0195312C19.7266 0.0195312 25.4395 5.73242 25.4395 12.7344ZM8.17383 7.25586C6.96289 7.51953 6.71875 7.97852 6.2207 9.02344C5.60547 10.3125 4.9707 11.9727 4.59961 13.1641C4.38477 13.9453 4.22852 14.6094 4.22852 15.1855C4.22852 16.5234 5.10742 17.3926 6.41602 17.3926C7.17773 17.3926 7.73438 17.1094 8.21289 16.5137L9.30664 15.1855C9.47266 15 9.63867 14.9121 9.83398 14.9121L15.5762 14.9121C15.7812 14.9121 15.9473 15 16.1035 15.1855L17.1973 16.5137C17.6758 17.1094 18.2422 17.3926 18.9941 17.3926C20.3125 17.3926 21.1816 16.5234 21.1816 15.1855C21.1816 14.6094 21.0352 13.9453 20.8105 13.1641C20.4395 11.9727 19.8145 10.3125 19.1992 9.02344C18.7012 7.97852 18.457 7.51953 17.2363 7.25586C16.1035 6.99219 14.5605 6.83594 12.7051 6.83594C10.8594 6.83594 9.30664 6.99219 8.17383 7.25586ZM10.3418 9.29688L10.3418 10.4395L11.4453 10.4395C11.7578 10.4395 11.9531 10.625 11.9531 10.9082C11.9531 11.2109 11.7578 11.4062 11.4453 11.4062L10.3418 11.4062L10.3418 12.5586C10.3418 12.8516 10.1562 13.0273 9.87305 13.0273C9.58984 13.0273 9.41406 12.8516 9.41406 12.5586L9.41406 11.4062L8.27148 11.4062C7.96875 11.4062 7.7832 11.2109 7.7832 10.9082C7.7832 10.625 7.96875 10.4395 8.27148 10.4395L9.41406 10.4395L9.41406 9.29688C9.41406 9.00391 9.58984 8.80859 9.87305 8.80859C10.1562 8.80859 10.3418 9.00391 10.3418 9.29688ZM15.4883 11.7871C15.4883 12.2559 15.1074 12.627 14.6387 12.627C14.1797 12.627 13.7988 12.2559 13.7988 11.7871C13.7988 11.3184 14.1797 10.9473 14.6387 10.9473C15.1074 10.9473 15.4883 11.3184 15.4883 11.7871ZM17.3047 9.9707C17.3047 10.4492 16.9336 10.8203 16.4648 10.8203C16.0059 10.8203 15.6152 10.4492 15.6152 9.9707C15.6152 9.51172 16.0059 9.14062 16.4648 9.14062C16.9336 9.14062 17.3047 9.51172 17.3047 9.9707Z" fill="black" fill-opacity="0.85"/>
 </g>
</svg>
