<?xml version="1.0" encoding="UTF-8"?>
<!--Generator: Apple Native CoreSVG 326-->
<!DOCTYPE svg
PUBLIC "-//W3C//DTD SVG 1.1//EN"
       "http://www.w3.org/Graphics/SVG/1.1/DTD/svg11.dtd">
<svg version="1.1" xmlns="http://www.w3.org/2000/svg" xmlns:xlink="http://www.w3.org/1999/xlink" viewBox="0 0 36.4648 22.5684">
 <g>
  <rect height="22.5684" opacity="0" width="36.4648" x="0" y="0"/>
  <path d="M0 17.8418C0 20.7031 1.86523 22.5684 4.6582 22.5684C6.07422 22.5684 7.48047 21.9531 8.51562 20.6738L10.8398 17.8613C11.1719 17.4609 11.543 17.2754 11.9434 17.2754L24.1602 17.2754C24.5605 17.2754 24.9316 17.4609 25.2637 17.8613L27.5781 20.6738C28.623 21.9531 30.0293 22.5684 31.4453 22.5684C34.2383 22.5684 36.1035 20.7031 36.1035 17.8418C36.1035 16.6113 35.8105 15.1855 35.3223 13.5449C34.5508 10.9668 33.2031 7.46094 31.9043 4.7168C30.8398 2.49023 30.3027 1.51367 27.7148 0.927734C25.3027 0.371094 22.002 0.0195312 18.0469 0.0195312C14.1016 0.0195312 10.8008 0.371094 8.38867 0.927734C5.80078 1.51367 5.26367 2.49023 4.19922 4.7168C2.90039 7.46094 1.55273 10.9668 0.78125 13.5449C0.292969 15.1855 0 16.6113 0 17.8418ZM1.65039 17.9199C1.65039 17.1191 1.82617 16.1426 2.27539 14.6094C3.07617 11.8359 4.52148 8.125 5.81055 5.29297C6.43555 3.93555 6.81641 3.05664 8.53516 2.65625C10.8496 2.10938 14.1309 1.74805 18.0469 1.74805C21.9727 1.74805 25.2539 2.10938 27.5586 2.65625C29.2871 3.05664 29.6582 3.93555 30.293 5.29297C31.6016 8.125 32.998 11.8457 33.8281 14.6094C34.2871 16.1426 34.4531 17.1191 34.4531 17.9199C34.4531 19.7363 33.1934 20.8984 31.4648 20.8984C30.4785 20.8984 29.5117 20.3809 28.7402 19.4531L26.377 16.5918C25.791 15.8789 25.2832 15.5371 24.2188 15.5371L11.8848 15.5371C10.8203 15.5371 10.3125 15.8789 9.72656 16.5918L7.36328 19.4531C6.5918 20.3809 5.625 20.8984 4.63867 20.8984C2.91016 20.8984 1.65039 19.7363 1.65039 17.9199Z" fill="black" fill-opacity="0.85"/>
  <path d="M7.91992 8.75C7.91992 9.30664 8.25195 9.64844 8.80859 9.64844L11.2988 9.64844L11.2988 12.1387C11.2988 12.6855 11.6211 13.0273 12.1582 13.0273C12.6855 13.0273 13.0078 12.6855 13.0078 12.1387L13.0078 9.64844L15.4004 9.64844C15.9961 9.64844 16.3477 9.30664 16.3477 8.75C16.3477 8.22266 15.9961 7.88086 15.4004 7.88086L13.0078 7.88086L13.0078 5.40039C13.0078 4.85352 12.6855 4.51172 12.1582 4.51172C11.6211 4.51172 11.2988 4.85352 11.2988 5.40039L11.2988 7.88086L8.80859 7.88086C8.25195 7.88086 7.91992 8.22266 7.91992 8.75ZM25.8594 8.55469C26.8359 8.55469 27.627 7.77344 27.627 6.79688C27.627 5.82031 26.8359 5.03906 25.8594 5.03906C24.8828 5.03906 24.1016 5.82031 24.1016 6.79688C24.1016 7.77344 24.8828 8.55469 25.8594 8.55469ZM22.0703 12.3145C23.0469 12.3145 23.8379 11.5332 23.8379 10.5566C23.8379 9.58008 23.0469 8.79883 22.0703 8.79883C21.0938 8.79883 20.3125 9.58008 20.3125 10.5566C20.3125 11.5332 21.0938 12.3145 22.0703 12.3145Z" fill="black" fill-opacity="0.85"/>
 </g>
</svg>
