<?xml version="1.0" encoding="UTF-8"?>
<!--Generator: Apple Native CoreSVG 326-->
<!DOCTYPE svg
PUBLIC "-//W3C//DTD SVG 1.1//EN"
       "http://www.w3.org/Graphics/SVG/1.1/DTD/svg11.dtd">
<svg version="1.1" xmlns="http://www.w3.org/2000/svg" xmlns:xlink="http://www.w3.org/1999/xlink" viewBox="0 0 25.8008 25.459">
 <g>
  <rect height="25.459" opacity="0" width="25.8008" x="0" y="0"/>
  <path d="M12.7148 25.4395C19.7363 25.4395 25.4395 19.7461 25.4395 12.7246C25.4395 5.70312 19.7363 0 12.7148 0C5.69336 0 0 5.70312 0 12.7246C0 19.7461 5.69336 25.4395 12.7148 25.4395ZM12.7148 23.623C6.68945 23.623 1.81641 18.75 1.81641 12.7246C1.81641 6.69922 6.68945 1.82617 12.7148 1.82617C18.7402 1.82617 23.6133 6.69922 23.6133 12.7246C23.6133 18.75 18.7402 23.623 12.7148 23.623Z" fill="black" fill-opacity="0.85"/>
  <path d="M6.5625 17.2559C7.29492 17.2559 7.8418 16.9727 8.31055 16.3965L9.38477 15.1074C9.54102 14.9121 9.70703 14.8242 9.90234 14.8242L15.5176 14.8242C15.7031 14.8242 15.8789 14.9121 16.0254 15.1074L17.0996 16.3965C17.5684 16.9727 18.1152 17.2559 18.8574 17.2559C20.127 17.2559 20.9863 16.4062 20.9863 15.0977C20.9863 14.541 20.8496 13.8965 20.625 13.125C20.2637 11.9531 19.6484 10.3418 19.0527 9.07227C18.5547 8.05664 18.3203 7.61719 17.1387 7.34375C16.0254 7.09961 14.5215 6.93359 12.7051 6.93359C10.8984 6.93359 9.38477 7.09961 8.27148 7.34375C7.08984 7.61719 6.85547 8.05664 6.36719 9.07227C5.77148 10.3418 5.15625 11.9531 4.79492 13.125C4.57031 13.8965 4.42383 14.541 4.42383 15.0977C4.42383 16.4062 5.2832 17.2559 6.5625 17.2559ZM7.90039 10.9277C7.90039 10.6543 8.07617 10.4688 8.36914 10.4688L9.49219 10.4688L9.49219 9.3457C9.49219 9.05273 9.6582 8.86719 9.94141 8.86719C10.2148 8.86719 10.3906 9.05273 10.3906 9.3457L10.3906 10.4688L11.4746 10.4688C11.7773 10.4688 11.9727 10.6543 11.9727 10.9277C11.9727 11.2109 11.7773 11.3965 11.4746 11.3965L10.3906 11.3965L10.3906 12.5391C10.3906 12.8125 10.2148 12.9883 9.94141 12.9883C9.6582 12.9883 9.49219 12.8125 9.49219 12.5391L9.49219 11.3965L8.36914 11.3965C8.07617 11.3965 7.90039 11.2109 7.90039 10.9277ZM16.3672 10.8301C15.9277 10.8301 15.5469 10.4688 15.5469 10C15.5469 9.56055 15.9277 9.18945 16.3672 9.18945C16.8359 9.18945 17.1973 9.56055 17.1973 10C17.1973 10.4688 16.8359 10.8301 16.3672 10.8301ZM14.5898 12.5977C14.1406 12.5977 13.7695 12.2363 13.7695 11.7773C13.7695 11.3281 14.1406 10.9668 14.5898 10.9668C15.0488 10.9668 15.4102 11.3281 15.4102 11.7773C15.4102 12.2363 15.0488 12.5977 14.5898 12.5977Z" fill="black" fill-opacity="0.85"/>
 </g>
</svg>
