<?xml version="1.0" ?><!-- Generator: Adobe Illustrator 25.0.0, SVG Export Plug-In . SVG Version: 6.00 Build 0)  --><svg xmlns="http://www.w3.org/2000/svg" xmlns:xlink="http://www.w3.org/1999/xlink" version="1.1" id="Layer_1" x="0px" y="0px" viewBox="0 0 512 512" style="enable-background:new 0 0 512 512;" xml:space="preserve">
<path d="M0,348.2c0,41.5,27,68.5,67.6,68.5c20.6,0,41-8.9,55.9-27.3l32.1-38.8c4.6-5.5,9.9-8.2,15.3-8.2h170.4  c5.3,0,10.6,2.7,15.3,8.2l32.1,38.8c14.9,18.4,35.3,27.3,55.9,27.3c40.6,0,67.6-27,67.6-68.5c0-17.7-4.1-38.1-11-61  c-10.8-36.4-29.8-85.8-47.9-124.1c-15.3-31.9-23.1-46.5-60.7-55c-33.3-7.6-79.6-12.8-136.4-12.8s-103.2,5.1-136.6,12.8  c-37.6,8.5-45.4,23.1-60.7,55C40.8,201.4,21.8,250.9,11,287.2C4.1,310.1,0,330.5,0,348.2z M27.1,349.3c0-11.2,2.5-24.7,8.2-44  c11.9-40.8,32.5-93.6,50.4-132.8c8.7-19,13.5-30.5,36.5-35.8c32.1-7.6,77.9-12.8,133.9-12.8c55.9,0,101.6,5.1,133.7,12.8  c23.1,5.3,27.7,16.8,36.5,35.8c18.3,39.2,38,92.2,50.4,132.8c5.9,19.3,8.2,32.8,8.2,44c0,24.5-17.2,39.9-40.1,39.9  c-13.5,0-26.6-7.1-36.9-19.7l-33.3-40.3c-8.5-10.3-15.6-15.4-32.1-15.4H169.5c-16.5,0-23.6,5.1-32.1,15.4l-33.3,40.3  c-10.3,12.6-23.4,19.7-36.9,19.7C44.3,389.2,27.1,373.8,27.1,349.3z M112.4,220.4c0,9.2,5.5,14.9,14.7,14.9h31.9v31  c0,9,5.1,14.7,14,14.7c8.7,0,14-5.7,14-14.7v-31h30c9.9,0,15.8-5.7,15.8-14.9c0-8.9-5.9-14.4-15.8-14.4h-30v-31  c0-9-5.3-14.5-14-14.5c-8.9,0-14,5.5-14,14.5v31h-31.9C117.9,206,112.4,211.5,112.4,220.4z M366.2,218c14.5,0,25.5-11,25.5-25.4  c0-14.5-11-25.7-25.5-25.7c-14.2,0-25.5,11.2-25.5,25.7C340.7,207.1,352,218,366.2,218z M314.1,270.7c14.4,0,25.5-11.2,25.5-25.5  c0-14.5-11.2-25.7-25.5-25.7c-14.2,0-25.5,11.2-25.5,25.7C288.5,259.5,299.9,270.7,314.1,270.7z"/>
</svg>