<?xml version="1.0" ?><!-- Generator: Adobe Illustrator 25.0.0, SVG Export Plug-In . SVG Version: 6.00 Build 0)  --><svg xmlns="http://www.w3.org/2000/svg" xmlns:xlink="http://www.w3.org/1999/xlink" version="1.1" id="Layer_1" x="0px" y="0px" viewBox="0 0 512 512" style="enable-background:new 0 0 512 512;" xml:space="preserve">
<path d="M67.6,416.7c24.3,0,41-8.9,55.9-27.3l32.1-38.8c4.6-5.5,9.9-8.2,15.3-8.2h170.4c5.3,0,10.6,2.7,15.3,8.2l32.1,38.8  c14.9,18.4,31.6,27.3,55.9,27.3c40.6,0,67.6-27,67.6-68.5c0-17.7-4.1-38.1-11-61c-10.8-36.4-29.8-85.8-47.9-124.1  c-15.3-31.9-23.1-46.5-60.7-55c-33.3-7.6-79.6-12.8-136.4-12.8s-103.2,5.1-136.6,12.8c-37.6,8.5-45.4,23.1-60.7,55  C40.8,201.4,21.8,250.9,11,287.2c-6.9,22.9-11,43.3-11,61C0,389.7,27,416.7,67.6,416.7z M112.4,220.4c0-8.9,5.5-14.4,14.7-14.4h31.9  v-31c0-9,5.1-14.5,14-14.5c8.7,0,14,5.5,14,14.5v31h30c9.9,0,15.8,5.5,15.8,14.4c0,9.2-5.9,14.9-15.8,14.9h-30v31  c0,9-5.3,14.7-14,14.7c-8.9,0-14-5.7-14-14.7v-31h-31.9C117.9,235.3,112.4,229.6,112.4,220.4z M339.1,192.7  c0-14.5,11.2-25.7,25.4-25.7c14.5,0,25.5,11.2,25.5,25.7c0,14.4-11,25.4-25.5,25.4C350.3,218,339.1,207.1,339.1,192.7z M286.8,245.2  c0-14.5,11.4-25.7,25.5-25.7c14.4,0,25.5,11.2,25.5,25.7c0,14.4-11.2,25.5-25.5,25.5C298.1,270.7,286.8,259.5,286.8,245.2z"/>
</svg>