<?xml version="1.0" encoding="UTF-8"?>
<!--Generator: Apple Native CoreSVG 326-->
<!DOCTYPE svg
PUBLIC "-//W3C//DTD SVG 1.1//EN"
       "http://www.w3.org/Graphics/SVG/1.1/DTD/svg11.dtd">
<svg version="1.1" xmlns="http://www.w3.org/2000/svg" xmlns:xlink="http://www.w3.org/1999/xlink" viewBox="0 0 32.2231 28.3559">
 <g>
  <rect height="28.3559" opacity="0" width="32.2231" x="0" y="0"/>
  <path d="M3.22581 15.9016C3.22581 19.2024 4.51487 22.2395 6.62425 24.5051C7.093 25.0325 7.90355 25.1594 8.53831 24.5246L10.5305 22.5422C10.8625 22.22 10.8625 21.6535 10.5305 21.3215C10.1985 20.9895 9.63206 20.9797 9.30003 21.3215L7.65941 22.9719C6.02855 21.0676 5.05198 18.6164 5.05198 15.9016C5.05198 9.85667 9.88597 5.00316 15.9309 5.00316C21.966 5.00316 26.8098 9.85667 26.8098 15.9016C26.8098 18.6164 25.8332 21.0676 24.2024 22.9719L22.552 21.3215C22.2297 20.9797 21.6633 20.9895 21.3313 21.3215C20.9992 21.6535 20.9895 22.22 21.3313 22.5422L23.3137 24.5246C23.9582 25.1594 24.759 25.0325 25.2375 24.5051C27.3469 22.2395 28.636 19.2024 28.636 15.9016C28.636 8.9387 22.8938 3.18675 15.9309 3.18675C8.968 3.18675 3.22581 8.9387 3.22581 15.9016ZM7.41526 15.0325L4.13401 15.0325L4.13401 16.7707L7.41526 16.7707C7.89378 16.7707 8.28441 16.3703 8.28441 15.9016C8.28441 15.4231 7.89378 15.0325 7.41526 15.0325ZM15.0617 7.36644C15.0617 7.84495 15.4524 8.23558 15.9309 8.23558C16.3996 8.23558 16.7903 7.84495 16.7903 7.36644L16.7903 4.08519L15.0617 4.08519ZM21.3606 9.2512C21.0188 9.58323 21.0285 10.1496 21.3606 10.4817C21.6926 10.8137 22.259 10.8137 22.5813 10.4817L24.9055 8.15745L23.6848 6.93675ZM24.4758 15.0325C23.9973 15.0325 23.6067 15.4231 23.6067 15.9016C23.6067 16.3703 23.9973 16.7707 24.4758 16.7707L27.7571 16.7707L27.7571 15.0325Z" fill="black" fill-opacity="0.85"/>
  <path d="M17.5129 17.4153C18.2746 16.6438 18.2746 15.5207 17.5129 14.759C17.3762 14.6125 17.0832 14.4075 16.9075 14.2707L10.7453 9.92503C10.4914 9.73948 10.2278 9.78831 10.052 9.95433C9.8762 10.1301 9.83714 10.3938 10.0227 10.6477L14.3684 16.8098C14.5051 16.9856 14.7102 17.2785 14.8469 17.4153C15.6184 18.177 16.7414 18.177 17.5129 17.4153Z" fill="black" fill-opacity="0.85"/>
  <path d="M3.80198 0.208233L0.208233 3.80198C-0.201923 4.21214 0.0422175 4.70042 0.520733 4.79808L4.98362 5.74534C5.51097 5.85276 5.85276 5.49144 5.74534 4.98362L4.79808 0.520733C4.70042 0.0422175 4.21214-0.201923 3.80198 0.208233Z" fill="black" fill-opacity="0.85"/>
 </g>
</svg>
