<?xml version="1.0" encoding="UTF-8"?>
<!--Generator: Apple Native CoreSVG 326-->
<!DOCTYPE svg
PUBLIC "-//W3C//DTD SVG 1.1//EN"
       "http://www.w3.org/Graphics/SVG/1.1/DTD/svg11.dtd">
<svg version="1.1" xmlns="http://www.w3.org/2000/svg" xmlns:xlink="http://www.w3.org/1999/xlink" viewBox="0 0 30.8594 35.4143">
 <g>
  <rect height="35.4143" opacity="0" width="30.8594" x="0" y="0"/>
  <path d="M16.9141 10.8956C16.9141 11.3742 17.3047 11.7648 17.7734 11.7648C18.252 11.7648 18.6426 11.3742 18.6426 10.8956L18.6426 7.66322C18.6426 7.10657 18.2715 6.71595 17.7441 6.71595C10.8203 6.71595 5.06836 12.4679 5.06836 19.4308C5.06836 22.7316 6.36719 25.7687 8.4668 28.0343C8.94531 28.5617 9.75586 28.6886 10.3906 28.0538L12.3828 26.0714C12.7148 25.7492 12.7051 25.1827 12.3828 24.8507C12.041 24.5187 11.4844 24.5089 11.1523 24.8507L9.50195 26.5011C7.88086 24.5968 6.89453 22.1456 6.89453 19.4308C6.89453 13.6788 11.2891 9.00111 16.9141 8.57142ZM9.26758 18.5617L5.98633 18.5617L5.98633 20.2999L9.26758 20.2999C9.73633 20.2999 10.127 19.8995 10.127 19.4308C10.127 18.9523 9.73633 18.5617 9.26758 18.5617ZM26.0254 12.3409L27.5293 11.3253C25.6348 9.07923 23.0078 7.54603 20.1074 6.96986C20.1758 7.1847 20.2051 7.40931 20.2051 7.66322L20.2051 8.83509C22.4707 9.35267 24.5117 10.5636 26.0254 12.3409ZM28.6426 20.2511L30.4102 20.6027C30.5371 19.2355 30.4492 17.8195 30.0977 16.423C29.7559 15.0363 29.1797 13.757 28.418 12.5949L26.9336 13.6105C27.5391 14.5577 28.0176 15.6222 28.3203 16.7843C28.623 17.9464 28.7207 19.1183 28.6426 20.2511ZM27.1387 27.9855C28.2227 26.8136 29.541 24.8214 30.1172 22.1261L28.3789 21.7843C27.9199 23.9425 26.9434 25.5245 26.0645 26.5206L24.4043 24.8507C24.0723 24.5089 23.5156 24.5187 23.1738 24.8507C22.8516 25.1827 22.8418 25.7492 23.1738 26.0714L25.1465 28.0245C25.791 28.6691 26.6309 28.5421 27.1387 27.9855Z" fill="black" fill-opacity="0.85"/>
  <path d="M19.3555 20.9445C20.1172 20.173 20.1172 19.0499 19.3555 18.2882C19.2188 18.1417 18.9258 17.9367 18.75 17.7999L12.5977 13.4542C12.334 13.2687 12.0703 13.3175 11.8945 13.4835C11.7285 13.6593 11.6797 13.923 11.8652 14.1769L16.2207 20.339C16.3477 20.5148 16.5625 20.8077 16.6895 20.9445C17.4609 21.7062 18.584 21.7062 19.3555 20.9445Z" fill="black" fill-opacity="0.85"/>
  <path d="M16.9141 0.641731L16.9141 4.79212C16.9141 5.35853 17.3438 5.61243 17.8711 5.2804L20.9473 3.26868C21.3965 2.97572 21.3965 2.5265 20.9473 2.23353L17.8809 0.163215C17.334-0.198113 16.9141 0.0753246 16.9141 0.641731ZM0 19.2355C0 24.3331 2.19727 28.923 5.69336 32.0968L6.85547 30.9347C3.68164 28.1124 1.72852 23.962 1.72852 19.2355C1.72852 10.173 8.53516 3.38587 17.3828 3.38587L17.3828 1.64759C7.77344 1.64759 0 9.42103 0 19.2355ZM6.68945 29.2941L3.74023 32.2238C3.33984 32.6242 3.47656 33.1222 4.08203 33.2492L7.68555 34.0109C8.21289 34.1183 8.53516 33.8058 8.42773 33.2687L7.71484 29.6456C7.58789 29.0011 7.09961 28.8937 6.68945 29.2941Z" fill="black" fill-opacity="0.85"/>
 </g>
</svg>
