<?xml version="1.0" encoding="UTF-8"?>
<!--Generator: Apple Native CoreSVG 326-->
<!DOCTYPE svg
PUBLIC "-//W3C//DTD SVG 1.1//EN"
       "http://www.w3.org/Graphics/SVG/1.1/DTD/svg11.dtd">
<svg version="1.1" xmlns="http://www.w3.org/2000/svg" xmlns:xlink="http://www.w3.org/1999/xlink" viewBox="0 0 25.8008 25.459">
 <g>
  <rect height="25.459" opacity="0" width="25.8008" x="0" y="0"/>
  <path d="M12.7148 25.4395C19.7363 25.4395 25.4395 19.7461 25.4395 12.7246C25.4395 5.70312 19.7363 0 12.7148 0C5.69336 0 0 5.70312 0 12.7246C0 19.7461 5.69336 25.4395 12.7148 25.4395ZM12.7148 23.623C6.68945 23.623 1.81641 18.75 1.81641 12.7246C1.81641 6.69922 6.68945 1.82617 12.7148 1.82617C18.7402 1.82617 23.6133 6.69922 23.6133 12.7246C23.6133 18.75 18.7402 23.623 12.7148 23.623Z" fill="black" fill-opacity="0.85"/>
  <path d="M5.23438 13.7109C5.77148 13.7109 6.2207 13.2617 6.2207 12.7246C6.2207 12.1777 5.77148 11.7285 5.23438 11.7285C4.69727 11.7285 4.24805 12.1777 4.24805 12.7246C4.24805 13.2617 4.69727 13.7109 5.23438 13.7109ZM7.41211 8.44727C7.94922 8.44727 8.39844 8.00781 8.39844 7.46094C8.39844 6.92383 7.94922 6.47461 7.41211 6.47461C6.86523 6.47461 6.41602 6.92383 6.41602 7.46094C6.41602 8.00781 6.86523 8.44727 7.41211 8.44727ZM12.7051 6.23047C13.252 6.23047 13.7012 5.78125 13.7012 5.23438C13.7012 4.69727 13.252 4.24805 12.7051 4.24805C12.168 4.24805 11.7188 4.69727 11.7188 5.23438C11.7188 5.78125 12.168 6.23047 12.7051 6.23047ZM18.0078 8.44727C18.5449 8.44727 18.9941 8.00781 18.9941 7.46094C18.9941 6.92383 18.5449 6.47461 18.0078 6.47461C17.4609 6.47461 17.0215 6.92383 17.0215 7.46094C17.0215 8.00781 17.4609 8.44727 18.0078 8.44727ZM20.2051 13.7109C20.7422 13.7109 21.1914 13.2617 21.1914 12.7246C21.1914 12.1777 20.7422 11.7285 20.2051 11.7285C19.6582 11.7285 19.209 12.1777 19.209 12.7246C19.209 13.2617 19.6582 13.7109 20.2051 13.7109ZM18.0078 18.9746C18.5449 18.9746 18.9941 18.5254 18.9941 17.9785C18.9941 17.4414 18.5449 16.9922 18.0078 16.9922C17.4609 16.9922 17.0215 17.4414 17.0215 17.9785C17.0215 18.5254 17.4609 18.9746 18.0078 18.9746ZM14.5801 10.918C13.8086 10.1465 12.6855 10.1465 11.9141 10.918C11.7773 11.0449 11.5723 11.3379 11.4355 11.5137L7.08984 17.6758C6.9043 17.9297 6.94336 18.1934 7.11914 18.3789C7.29492 18.5352 7.55859 18.584 7.82227 18.3984L13.9746 14.0527C14.1504 13.9258 14.4434 13.7109 14.5801 13.5742C15.3418 12.8027 15.3418 11.6797 14.5801 10.918Z" fill="black" fill-opacity="0.85"/>
 </g>
</svg>
