<?xml version="1.0" encoding="UTF-8"?>
<!--Generator: Apple Native CoreSVG 326-->
<!DOCTYPE svg
PUBLIC "-//W3C//DTD SVG 1.1//EN"
       "http://www.w3.org/Graphics/SVG/1.1/DTD/svg11.dtd">
<svg version="1.1" xmlns="http://www.w3.org/2000/svg" xmlns:xlink="http://www.w3.org/1999/xlink" viewBox="0 0 25.8008 25.459">
 <g>
  <rect height="25.459" opacity="0" width="25.8008" x="0" y="0"/>
  <path d="M12.7148 25.4395C19.7363 25.4395 25.4395 19.7461 25.4395 12.7246C25.4395 5.70312 19.7363 0 12.7148 0C5.69336 0 0 5.70312 0 12.7246C0 19.7461 5.69336 25.4395 12.7148 25.4395ZM12.7148 23.623C6.68945 23.623 1.81641 18.75 1.81641 12.7246C1.81641 6.69922 6.68945 1.82617 12.7148 1.82617C18.7402 1.82617 23.6133 6.69922 23.6133 12.7246C23.6133 18.75 18.7402 23.623 12.7148 23.623Z" fill="black" fill-opacity="0.85"/>
  <path d="M7.43164 18.9746C7.96875 18.9746 8.41797 18.5254 8.41797 17.9785C8.41797 17.4414 7.96875 16.9922 7.43164 16.9922C6.88477 16.9922 6.43555 17.4414 6.43555 17.9785C6.43555 18.5254 6.88477 18.9746 7.43164 18.9746ZM5.23438 13.7109C5.77148 13.7109 6.2207 13.2617 6.2207 12.7246C6.2207 12.1777 5.77148 11.7285 5.23438 11.7285C4.69727 11.7285 4.24805 12.1777 4.24805 12.7246C4.24805 13.2617 4.69727 13.7109 5.23438 13.7109ZM12.7051 6.23047C13.252 6.23047 13.7012 5.78125 13.7012 5.23438C13.7012 4.69727 13.252 4.24805 12.7051 4.24805C12.168 4.24805 11.7188 4.69727 11.7188 5.23438C11.7188 5.78125 12.168 6.23047 12.7051 6.23047ZM18.0078 8.44727C18.5449 8.44727 18.9941 8.00781 18.9941 7.46094C18.9941 6.92383 18.5449 6.47461 18.0078 6.47461C17.4609 6.47461 17.0215 6.92383 17.0215 7.46094C17.0215 8.00781 17.4609 8.44727 18.0078 8.44727ZM20.2051 13.7109C20.7422 13.7109 21.1914 13.2617 21.1914 12.7246C21.1914 12.1777 20.7422 11.7285 20.2051 11.7285C19.6582 11.7285 19.209 12.1777 19.209 12.7246C19.209 13.2617 19.6582 13.7109 20.2051 13.7109ZM18.0078 18.9746C18.5449 18.9746 18.9941 18.5254 18.9941 17.9785C18.9941 17.4414 18.5449 16.9922 18.0078 16.9922C17.4609 16.9922 17.0215 17.4414 17.0215 17.9785C17.0215 18.5254 17.4609 18.9746 18.0078 18.9746ZM14.6191 14.4922C15.3906 13.7305 15.3906 12.5977 14.6191 11.8359C14.4922 11.6992 14.1992 11.4844 14.0234 11.3574L7.86133 7.00195C7.60742 6.81641 7.34375 6.86523 7.1582 7.03125C6.99219 7.20703 6.95312 7.4707 7.13867 7.73438L11.4844 13.8867C11.6113 14.0625 11.8262 14.3555 11.9629 14.4922C12.7344 15.2637 13.8477 15.2637 14.6191 14.4922Z" fill="black" fill-opacity="0.85"/>
 </g>
</svg>
