<?xml version="1.0" encoding="UTF-8"?>
<!--Generator: Apple Native CoreSVG 326-->
<!DOCTYPE svg
PUBLIC "-//W3C//DTD SVG 1.1//EN"
       "http://www.w3.org/Graphics/SVG/1.1/DTD/svg11.dtd">
<svg version="1.1" xmlns="http://www.w3.org/2000/svg" xmlns:xlink="http://www.w3.org/1999/xlink" viewBox="0 0 25.8008 25.459">
 <g>
  <rect height="25.459" opacity="0" width="25.8008" x="0" y="0"/>
  <path d="M25.4395 12.7344C25.4395 19.7461 19.7266 25.459 12.7148 25.459C5.71289 25.459 0 19.7461 0 12.7344C0 5.73242 5.71289 0.0195312 12.7148 0.0195312C19.7266 0.0195312 25.4395 5.73242 25.4395 12.7344ZM13.5645 4.83398L13.2227 5.50781C13.0664 5.48828 12.8906 5.47852 12.7148 5.47852C12.5488 5.47852 12.373 5.48828 12.207 5.50781L11.8652 4.83398C11.7383 4.59961 11.5332 4.51172 11.2793 4.54102C11.0352 4.58984 10.8398 4.74609 10.8105 5.01953L10.7227 5.76172C10.3906 5.85938 10.0781 5.97656 9.76562 6.11328L9.21875 5.5957C9.0332 5.41992 8.7793 5.40039 8.56445 5.51758C8.33984 5.66406 8.23242 5.86914 8.29102 6.13281L8.4668 6.875C8.18359 7.06055 7.91992 7.28516 7.68555 7.51953L6.98242 7.22656C6.73828 7.12891 6.50391 7.19727 6.34766 7.38281C6.18164 7.57812 6.15234 7.83203 6.28906 8.04688L6.69922 8.68164C6.51367 8.96484 6.34766 9.24805 6.19141 9.56055L5.44922 9.52148C5.18555 9.51172 4.98047 9.64844 4.90234 9.89258C4.81445 10.1367 4.87305 10.3613 5.07812 10.5273L5.68359 10.9863C5.5957 11.3184 5.54688 11.6406 5.51758 11.9824L4.78516 12.207C4.53125 12.2852 4.4043 12.4805 4.4043 12.7344C4.4043 12.998 4.53125 13.1836 4.78516 13.2617L5.51758 13.5059C5.54688 13.8379 5.5957 14.1699 5.68359 14.4922L5.06836 14.9512C4.86328 15.127 4.80469 15.332 4.89258 15.5664C4.99023 15.8105 5.18555 15.9766 5.44922 15.957L6.19141 15.9082C6.34766 16.2109 6.51367 16.5137 6.70898 16.7969L6.28906 17.4316C6.13281 17.666 6.17188 17.8906 6.32812 18.0762C6.50391 18.2715 6.72852 18.3496 6.99219 18.252L7.67578 17.9492C7.91992 18.1738 8.17383 18.4082 8.4668 18.6035L8.28125 19.3457C8.22266 19.6094 8.32031 19.8145 8.54492 19.9512C8.76953 20.0586 9.02344 20.0586 9.21875 19.8828L9.76562 19.3652C10.0781 19.502 10.3809 19.6191 10.7129 19.707L10.8105 20.459C10.8398 20.7324 11.0156 20.8887 11.25 20.9375C11.5137 20.9668 11.7383 20.8789 11.8652 20.6445L12.207 19.9707C12.3633 19.9902 12.5488 19.9902 12.7148 19.9902C12.8906 19.9902 13.0566 19.9902 13.2227 19.9707L13.5742 20.6445C13.7012 20.8789 13.8965 20.9766 14.1602 20.9375C14.4043 20.8887 14.5898 20.7227 14.6191 20.459L14.707 19.707C15.0391 19.6289 15.3613 19.502 15.6641 19.3652L16.2305 19.8828C16.416 20.0586 16.6504 20.0781 16.8652 19.9512C17.0996 19.8145 17.207 19.5996 17.1484 19.3457L16.9629 18.6035C17.2461 18.4082 17.5195 18.1934 17.7441 17.959L18.457 18.252C18.7109 18.3496 18.9258 18.3008 19.0918 18.0859C19.2578 17.9004 19.2773 17.6367 19.1406 17.4219L18.7207 16.7969C18.916 16.5137 19.082 16.2305 19.2383 15.918L19.9902 15.957C20.2539 15.9668 20.4492 15.8301 20.5273 15.5859C20.625 15.3418 20.5566 15.1074 20.3613 14.9512L19.7461 14.4922C19.834 14.1699 19.8828 13.8379 19.9219 13.5059L20.6445 13.2617C20.9082 13.1836 21.0352 12.998 21.0352 12.7344C21.0352 12.4805 20.8984 12.2852 20.6445 12.207L19.9219 11.9824C19.8828 11.6406 19.834 11.3086 19.7461 10.9863L20.3711 10.5371C20.5566 10.3613 20.6055 10.1562 20.5469 9.90234C20.459 9.66797 20.2539 9.51172 19.9902 9.50195L19.2383 9.57031C19.082 9.25781 18.916 8.96484 18.7305 8.68164L19.1504 8.05664C19.2773 7.82227 19.2578 7.59766 19.1113 7.39258C18.9355 7.19727 18.7109 7.12891 18.4473 7.2168L17.7539 7.5293C17.5195 7.29492 17.2559 7.07031 16.9824 6.875L17.1582 6.14258C17.1973 5.87891 17.1094 5.67383 16.8848 5.52734C16.6699 5.41016 16.416 5.41016 16.2109 5.5957L15.6738 6.11328C15.3711 5.98633 15.0488 5.84961 14.7168 5.76172L14.6289 5.01953C14.5801 4.75586 14.4238 4.59961 14.1797 4.54102C13.916 4.51172 13.7012 4.58984 13.5645 4.83398ZM12.7148 18.7207C11.8164 18.7207 10.957 18.5156 10.1855 18.1543L12.2949 14.6875C12.4316 14.7168 12.5684 14.7363 12.7148 14.7363C13.6133 14.7363 14.3848 14.1309 14.6289 13.3105L18.6621 13.3105C18.3789 16.3379 15.8203 18.7207 12.7148 18.7207ZM11.2402 11.3965C10.918 11.748 10.7227 12.2168 10.7227 12.7344C10.7227 13.2617 10.9277 13.7402 11.2598 14.0918L9.16016 17.5293C7.68555 16.4453 6.73828 14.707 6.73828 12.7344C6.73828 10.752 7.71484 8.99414 9.19922 7.91016ZM13.5352 12.7344C13.5352 13.1836 13.1641 13.5547 12.7148 13.5547C12.2656 13.5547 11.8945 13.1836 11.8945 12.7344C11.8945 12.2852 12.2656 11.9238 12.7148 11.9238C13.1641 11.9238 13.5352 12.2852 13.5352 12.7344ZM18.6621 12.1387L14.6094 12.1387C14.3652 11.3379 13.6133 10.7422 12.7148 10.7422C12.5586 10.7422 12.4121 10.7617 12.2656 10.791L10.2246 7.31445C10.9766 6.95312 11.8262 6.75781 12.7148 6.75781C15.8203 6.75781 18.3594 9.12109 18.6621 12.1387Z" fill="black" fill-opacity="0.85"/>
 </g>
</svg>
