<?xml version="1.0" ?><!-- Generator: Adobe Illustrator 25.0.0, SVG Export Plug-In . SVG Version: 6.00 Build 0)  --><svg xmlns="http://www.w3.org/2000/svg" xmlns:xlink="http://www.w3.org/1999/xlink" version="1.1" id="Layer_1" x="0px" y="0px" viewBox="0 0 512 512" style="enable-background:new 0 0 512 512;" xml:space="preserve">
<path d="M256,512c35,0,67.9-6.7,98.8-20.1c30.9-13.4,58.1-31.9,81.7-55.5c23.6-23.6,42.1-50.8,55.5-81.7  C505.3,323.9,512,291,512,256s-6.7-67.9-20.1-98.8c-13.4-30.9-31.9-58.1-55.5-81.7c-23.6-23.6-50.9-42.1-81.8-55.5  C323.7,6.7,290.7,0,255.7,0S187.9,6.7,157,20.1C126.1,33.5,98.9,52,75.4,75.5c-23.5,23.6-42,50.8-55.3,81.7C6.7,188.1,0,221,0,256  s6.7,67.9,20.1,98.8c13.4,30.9,31.9,58.1,55.5,81.7c23.6,23.6,50.8,42.1,81.7,55.5C188.1,505.3,221,512,256,512z M256,469.3  c-29.6,0-57.3-5.5-83.1-16.6c-25.8-11-48.4-26.3-67.9-45.8c-19.5-19.5-34.7-42.1-45.7-67.9c-11-25.8-16.4-53.5-16.4-83.1  c0-29.6,5.5-57.3,16.4-83.1c11-25.8,26.1-48.4,45.6-68s42-34.8,67.8-45.8c25.8-11,53.5-16.4,83.1-16.4c29.6,0,57.3,5.5,83.1,16.4  c25.8,11,48.4,26.2,68,45.8c19.6,19.6,34.9,42.2,45.9,68c11,25.8,16.6,53.5,16.6,83.1c0,29.6-5.5,57.3-16.4,83.1  c-11,25.8-26.2,48.4-45.7,67.9c-19.5,19.5-42.2,34.8-68,45.8C313.3,463.8,285.6,469.3,256,469.3z" class="multicolor-0:systemGrayColor hierarchical-0:secondary SFSymbolsPreview8E8E93" style="fill: #8E8E93;"/>
<path d="M255.7,396.5c1.5,0,3,0,4.5-0.1c1.5-0.1,3.1-0.1,4.8-0.1l7,13.1c2.3,5.2,6.4,7.3,12,6.3c5-0.8,8-4,9-9.5l2-15.3  c3-0.8,6-1.8,8.9-2.8c2.9-1,5.8-2.1,8.7-3.3l11,9.8c3.7,3.7,8.1,4.3,13.3,1.8c4.4-2.5,6.1-6.6,5.3-12.3l-3.3-15.1  c2.8-2,5.4-4,7.8-5.9c2.3-1.9,4.4-3.7,6.3-5.4l14.1,5.3c5,2.3,9.5,1.3,13.3-3.3c3.5-4,3.8-8.4,0.8-13.1l-8-13.1  c1.7-2.5,3.3-5.1,4.8-7.8c1.5-2.7,2.8-5.4,4-8l15.6,0.8c5.5,0.2,9.1-2.3,10.8-7.5c2.2-5.2,0.9-9.4-3.8-12.5l-12-9.5  c0.8-2.8,1.5-5.8,2.1-8.9c0.6-3.1,1-6.2,1.4-9.4l14.3-4.5c5.4-1.8,8-5.4,8-10.8c0-5.2-2.7-8.8-8-10.8l-14.3-4.3  c-0.3-3.2-0.8-6.3-1.4-9.3c-0.6-3-1.3-5.9-2.1-8.8l12-9.5c4.5-3.5,5.9-7.7,4-12.5c-1.8-5.5-5.6-8-11.3-7.5L382,193  c-1.5-3-3-5.9-4.4-8.5c-1.4-2.7-2.9-5.1-4.4-7.3l8-13.3c2.8-4.4,2.5-8.6-1-12.8c-3.8-4.4-8.1-5.5-12.8-3.5l-14.3,5.5  c-2-1.8-4.2-3.7-6.7-5.6c-2.4-1.9-4.9-3.8-7.4-5.6l3.3-14.8c0.8-5.9-0.9-10-5.3-12.3c-5-3-9.5-2.4-13.3,1.8l-11,9.5  c-2.8-1.2-5.7-2.3-8.7-3.3c-2.9-1-5.9-1.9-8.9-2.8l-2-15.3c-1-5.4-4-8.4-9-9.3c-2.5-0.5-4.9-0.2-7.2,0.9c-2.3,1.1-3.9,2.6-4.9,4.6  l-7,13.8c-1.7,0-3.2,0-4.6-0.1c-1.4-0.1-3-0.1-4.6-0.1c-1.5,0-3.1,0-4.6,0.1c-1.6,0.1-3.1,0.1-4.6,0.1l-7.3-13.8  c-2.3-4.7-6.3-6.5-11.8-5.5c-5.4,0.8-8.4,3.9-9.3,9.3l-2,15.3c-3,0.8-5.9,1.8-8.8,2.8c-2.8,1-5.7,2.1-8.5,3.3l-11-9.5  c-4.2-4-8.6-4.6-13.3-1.8c-4.7,2.3-6.5,6.4-5.5,12.3l3.3,14.8c-2.7,1.8-5.2,3.7-7.5,5.6c-2.3,1.9-4.5,3.8-6.5,5.6l-14.1-5.5  c-5-2-9.3-0.8-12.8,3.5c-3.8,3.8-4.3,8.1-1.3,12.8l8,13.3c-1.7,2.5-3.3,5.1-4.8,7.9c-1.5,2.8-2.8,5.4-4,7.9l-15.3-0.5  c-5.7-0.5-9.4,2-11,7.5c-2,4.5-0.8,8.7,3.8,12.5l11.8,9.5c-0.8,3.2-1.5,6.2-1.9,9.2s-0.8,5.9-1.1,8.9l-14.6,4.3  c-5.2,2-7.8,5.6-7.8,10.8c0,5.4,2.6,9,7.8,10.8l14.6,4.5c0.3,2.8,0.7,5.8,1.1,8.9c0.4,3.1,1,6.2,1.9,9.4l-11.8,9.5  c-4.4,3.3-5.6,7.5-3.8,12.5c1.7,5.2,5.3,7.7,10.8,7.5l15.6-0.8c1.2,2.7,2.5,5.3,4,7.9c1.5,2.6,3.1,5.2,4.8,7.9l-8.3,13.1  c-1.2,2.3-1.7,4.7-1.5,7c0.2,2.3,1.1,4.4,2.8,6c3.7,4.7,8.1,5.8,13.3,3.3l13.8-5.3c1.8,1.7,3.9,3.5,6.3,5.4c2.3,1.9,4.9,3.9,7.8,5.9  l-3.3,15.1c-1,5.7,0.8,9.8,5.5,12.3c5,2.7,9.5,2.1,13.3-1.8l11-9.8c2.8,1.2,5.7,2.3,8.5,3.3c2.8,1,5.8,1.9,8.8,2.8l2,15.1  c0.8,5.7,3.9,9,9.3,9.8c5.5,1,9.5-1.1,11.8-6.3l7.3-13.1c1.5,0,3.1,0,4.6,0.1C252.7,396.5,254.2,396.5,255.7,396.5z M255.7,368.7  c-20.9,0-39.9-5-56.8-15.1c-17-10-30.4-23.6-40.3-40.8c-9.9-17.2-14.8-36.3-14.8-57.3c0-21.1,4.9-40.2,14.8-57.3  c9.9-17.2,23.3-30.7,40.3-40.8c17-10,35.9-15.1,56.8-15.1c20.9,0,39.8,5,56.7,15.1c16.9,10,30.3,23.6,40.3,40.8  c10,17.2,14.9,36.3,14.9,57.3c0,21.1-5,40.2-14.9,57.3c-10,17.1-23.4,30.7-40.3,40.8C295.6,363.7,276.7,368.7,255.7,368.7z   M255.2,296.2c8.7,0,16.4-2.4,23-7.3s11.8-11.8,15.4-20.8h93.6v-24.8h-93.9c-3.7-8.9-8.8-15.7-15.4-20.5c-6.6-4.8-14.2-7.2-22.7-7.2  c-1,0-2.2,0-3.5,0.1c-1.3,0.1-2.8,0.4-4.5,0.9L200,136l-22.1,12.3l47.7,81.6c-6.9,7.9-10.3,16.6-10.3,26.1c0,9.4,3.5,18,10.5,25.9  l-49.4,80.3l21.6,13.1l49.2-80.1c1.7,0.5,3.2,0.8,4.5,0.9C253.1,296.1,254.2,296.2,255.2,296.2z M241.4,255.7c0-3.7,1.4-6.9,4.1-9.7  c2.8-2.8,6.1-4.1,9.9-4.1c4,0,7.4,1.4,10.3,4.1c2.8,2.8,4.3,6,4.3,9.7c0,3.8-1.4,7.2-4.3,9.9c-2.8,2.8-6.3,4.1-10.3,4.1  c-3.8,0-7.2-1.4-9.9-4.1C242.8,262.9,241.4,259.6,241.4,255.7z" class="multicolor-0:systemGrayColor hierarchical-1:primary SFSymbolsPreview8E8E93" style="fill: #8E8E93;"/>
</svg>