<?xml version="1.0" ?><!-- Generator: Adobe Illustrator 25.0.0, SVG Export Plug-In . SVG Version: 6.00 Build 0)  --><svg xmlns="http://www.w3.org/2000/svg" xmlns:xlink="http://www.w3.org/1999/xlink" version="1.1" id="Layer_1" x="0px" y="0px" viewBox="0 0 512 512" style="enable-background:new 0 0 512 512;" xml:space="preserve">
<path d="M256,477.4c5.9,0,11.6-0.7,17.7-1.1l13,25c2.5,5,7.5,7.7,13.9,6.8c5.7-1.1,9.5-5.2,10.5-11.4l3.9-27.5  c11.4-3,22.5-7.3,33.2-12l20.5,18.4c4.3,4.1,9.8,5,15.5,1.8c5-2.7,7-8.2,5.9-14.1l-5.7-27.3c9.5-6.6,18.9-14.1,27.3-22.5l25.2,10.7  c5.7,2.3,11.1,1.1,15.5-4.1c3.9-4.1,4.3-10,0.9-15l-14.8-23.6c6.8-9.5,12.3-19.8,17.5-30.7l28,1.4c5.9,0.2,10.7-3,12.7-8.6  c1.8-5.7,0.2-11.1-4.5-14.8l-21.8-17.3c3-10.9,5.2-22.7,6.4-35l26.1-8.2c5.9-2,9.3-6.4,9.3-12.5c0-5.9-3.4-10.2-9.3-12.3l-26.1-8.4  c-1.1-12.3-3.4-23.6-6.4-34.8l21.8-17.5c4.5-3.4,6.4-8.6,4.5-14.3c-2-5.7-6.8-8.9-12.7-8.6l-28,1.1c-5.2-10.9-10.7-21.1-17.5-30.7  l14.8-23.6c3.2-4.8,2.7-10.7-0.9-14.8c-4.3-5.2-9.8-6.6-15.5-4.1L411.5,98c-8.4-8-17.7-15.7-27.3-22.3l5.7-27.1  c1.1-6.1-0.9-11.6-5.9-14.3c-5.7-3-11.1-2.5-15.5,2l-20.5,18c-10.7-4.8-21.8-8.6-33.2-11.8L311,15c-0.9-5.9-5-10.2-10.7-11.1  c-6.1-0.9-11.1,1.6-13.6,6.6l-13,25c-6.1-0.5-11.8-0.9-17.7-0.9c-6.1,0-11.6,0.5-17.7,0.9l-13.2-25c-2.5-5-7.5-7.5-13.6-6.6  c-5.7,0.9-9.8,5.2-10.5,11.1l-4.1,27.3c-11.4,3.4-22.3,7.3-33.2,12l-20.5-18c-4.3-4.5-9.8-5-15.5-2c-5,2.7-7,8.2-5.9,14.3l5.7,27.1  c-9.3,6.6-18.9,14.3-27.3,22.3L75,87.8c-5.7-2.5-10.9-1.1-15.2,4.1c-3.9,4.1-4.3,10-1.1,14.6l14.8,23.9  c-6.6,9.5-12.3,19.8-17.5,30.7l-27.7-1.1c-5.9-0.2-10.9,3-13,8.6c-1.8,5.7-0.2,10.9,4.5,14.3l21.8,17.5c-3,11.1-5.2,22.5-5.9,34.8  l-26.6,8.4c-5.9,1.8-9.1,6.1-9.1,12.3c0,6.1,3.2,10.5,9.1,12.5l26.6,8.4c0.7,12,3,23.9,5.9,34.8l-21.8,17.3  c-4.5,3.6-6.1,9.1-4.5,14.8c2,5.7,7,8.9,13,8.6l27.7-1.4c5.2,10.9,10.9,21.1,17.5,30.7l-14.8,23.6c-3.2,5-2.7,10.9,1.1,15  c4.3,5.2,9.5,6.4,15.2,4.1l25.2-10.7c8.4,8.4,18,15.9,27.3,22.5l-5.7,27.3c-1.1,5.9,0.9,11.4,5.9,14.1c5.7,3.2,11.1,2.3,15.5-1.8  l20.5-18.4c10.9,4.8,21.8,9.1,33.2,12l4.1,27.5c0.7,6.1,4.8,10.2,10.5,11.4c6.1,0.9,11.1-1.8,13.6-6.8l13.2-25  C244.2,476.8,249.9,477.4,256,477.4z M313.1,241.5c-10.5-28.6-31.6-44.3-57.5-44.3c-4.1,0-8.4,0.5-15.9,2L174.4,87.8  c24.6-12,52.1-18.6,81.6-18.6c99.1,0,176.9,75.3,184.2,172.3H313.1z M71.4,256c0-63.2,30-118.9,76.8-152.6l65.9,112.1  c-12.5,12.7-18.2,26.6-18.2,41.4c0,14.3,5.5,27.5,18,40.7l-67.1,110C100.7,373.8,71.4,318.8,71.4,256z M228.3,256.7  c0-15.5,13-27.5,27.7-27.5c15.2,0,28,12,28,27.5c0,15.2-12.7,27.7-28,27.7C241.2,284.4,228.3,271.9,228.3,256.7z M256,442.9  c-30.2,0-58.4-7-83.2-19.3l66.8-109.4c7,1.8,11.8,2.3,15.9,2.3c26.1,0,47.3-16.1,57.5-45.5h126.9C432.7,367.6,355.1,442.9,256,442.9  z"/>
</svg>