<?xml version="1.0" encoding="UTF-8"?>
<!--Generator: Apple Native CoreSVG 326-->
<!DOCTYPE svg
PUBLIC "-//W3C//DTD SVG 1.1//EN"
       "http://www.w3.org/Graphics/SVG/1.1/DTD/svg11.dtd">
<svg version="1.1" xmlns="http://www.w3.org/2000/svg" xmlns:xlink="http://www.w3.org/1999/xlink" viewBox="0 0 34.5117 27.1777">
 <g>
  <rect height="27.1777" opacity="0" width="34.5117" x="0" y="0"/>
  <path d="M8.86719 19.5605L10.7031 19.5605C11.4453 19.5605 12.0312 19.1113 12.1973 18.3984L12.5586 16.748C12.627 16.7285 12.7051 16.6992 12.7734 16.6699L14.2285 17.5488C14.8438 17.9199 15.5762 17.8418 16.0938 17.3242L17.373 16.0352C17.9102 15.498 17.9785 14.7754 17.5879 14.1602L16.709 12.7539C16.7383 12.6758 16.7676 12.6074 16.7969 12.5293L18.418 12.1387C19.1211 11.9629 19.5801 11.3867 19.5801 10.6445L19.5801 8.91602C19.5801 8.16406 19.1309 7.58789 18.418 7.41211L16.7969 7.02148C16.7676 6.94336 16.7383 6.875 16.709 6.79688L17.5879 5.39062C17.9785 4.76562 17.9102 4.05273 17.373 3.51562L16.0938 2.23633C15.5762 1.71875 14.8438 1.63086 14.2285 2.00195L12.7734 2.88086C12.6953 2.85156 12.627 2.82227 12.5488 2.80273L12.1973 1.15234C12.041 0.439453 11.4453 0 10.7031 0L8.86719 0C8.125 0 7.54883 0.439453 7.38281 1.15234L7.01172 2.80273C6.93359 2.82227 6.86523 2.85156 6.79688 2.88086L5.35156 2.00195C4.72656 1.63086 4.00391 1.71875 3.48633 2.23633L2.20703 3.51562C1.66016 4.05273 1.60156 4.77539 1.98242 5.39062L2.87109 6.79688C2.8418 6.875 2.8125 6.94336 2.7832 7.02148L1.16211 7.41211C0.439453 7.58789 0 8.16406 0 8.91602L0 10.6445C0 11.3867 0.439453 11.9629 1.16211 12.1387L2.7832 12.5293C2.8125 12.6074 2.8418 12.6758 2.87109 12.7539L1.98242 14.1602C1.5918 14.7754 1.66016 15.498 2.20703 16.0352L3.48633 17.3242C4.00391 17.8418 4.7168 17.9199 5.3418 17.5488L6.80664 16.6699C6.86523 16.6992 6.94336 16.7285 7.01172 16.748L7.38281 18.3984C7.54883 19.1113 8.125 19.5605 8.86719 19.5605ZM9.08203 18.0371C8.90625 18.0371 8.80859 17.9492 8.76953 17.7734L8.24219 15.5762C7.67578 15.4395 7.16797 15.1855 6.73828 14.9609L4.82422 16.1328C4.66797 16.2305 4.54102 16.2207 4.41406 16.0938L3.4082 15.1074C3.28125 14.9902 3.28125 14.873 3.37891 14.707L4.54102 12.8027C4.38477 12.4219 4.0918 11.8945 3.94531 11.2988L1.77734 10.7812C1.5918 10.7422 1.51367 10.6445 1.51367 10.4688L1.51367 9.08203C1.51367 8.90625 1.5918 8.80859 1.77734 8.76953L3.94531 8.25195C4.0918 7.65625 4.38477 7.12891 4.54102 6.74805L3.37891 4.84375C3.28125 4.6875 3.28125 4.56055 3.4082 4.44336L4.41406 3.45703C4.54102 3.33984 4.66797 3.32031 4.82422 3.41797L6.73828 4.58984C7.16797 4.36523 7.67578 4.11133 8.24219 3.97461L8.76953 1.78711C8.80859 1.60156 8.90625 1.52344 9.08203 1.52344L10.498 1.52344C10.6738 1.52344 10.7715 1.60156 10.8105 1.78711L11.3379 3.97461C11.8945 4.11133 12.4121 4.36523 12.832 4.58984L14.7461 3.41797C14.9121 3.32031 15.0391 3.33984 15.166 3.45703L16.1621 4.44336C16.2988 4.56055 16.2988 4.6875 16.2012 4.84375L15.0293 6.74805C15.1953 7.12891 15.4883 7.65625 15.625 8.25195L17.8027 8.76953C17.9785 8.80859 18.0664 8.90625 18.0664 9.08203L18.0664 10.4688C18.0664 10.6445 17.9785 10.7422 17.8027 10.7812L15.625 11.2988C15.4883 11.8945 15.1953 12.4219 15.0293 12.8027L16.2012 14.707C16.2988 14.873 16.2988 14.9902 16.1621 15.1074L15.166 16.0938C15.0391 16.2207 14.9121 16.2305 14.7461 16.1328L12.832 14.9609C12.4121 15.1855 11.8945 15.4395 11.3379 15.5762L10.8105 17.7734C10.7715 17.9492 10.6738 18.0371 10.498 18.0371ZM25.2051 27.168L26.6211 27.168C27.3145 27.168 27.8613 26.7773 27.9785 26.1621L28.2324 24.8242C28.3105 24.8047 28.3789 24.7754 28.457 24.7461L29.5801 25.4688C30.127 25.8105 30.7715 25.7324 31.2598 25.2344L32.2559 24.2285C32.7441 23.7305 32.8418 23.0859 32.4707 22.5391L31.748 21.4453C31.7773 21.3672 31.8066 21.3086 31.8262 21.2305L33.1445 20.957C33.7598 20.8301 34.1504 20.293 34.1504 19.6094L34.1504 18.2129C34.1504 17.5293 33.7598 16.9922 33.1445 16.8652L31.8262 16.6016C31.8066 16.5234 31.7773 16.4551 31.748 16.3867L32.4707 15.2832C32.8418 14.7363 32.7441 14.0918 32.2559 13.5938L31.2598 12.5879C30.7715 12.0996 30.127 12.0215 29.5801 12.3633L28.457 13.0762C28.3789 13.0469 28.3105 13.0273 28.2324 12.998L27.9785 11.6699C27.8613 11.0449 27.3145 10.6641 26.6211 10.6641L25.2051 10.6641C24.5117 10.6641 23.9648 11.0449 23.8477 11.6699L23.5938 12.998C23.5156 13.0273 23.4473 13.0469 23.3789 13.0762L22.2461 12.3633C21.6992 12.0215 21.0547 12.0996 20.5664 12.5879L19.5703 13.5938C19.082 14.0918 18.9941 14.7363 19.3555 15.2832L20.0781 16.3867C20.0488 16.4551 20.0195 16.5234 20 16.6016L18.6816 16.8652C18.0664 16.9922 17.6758 17.5293 17.6758 18.2129L17.6758 19.6094C17.6758 20.293 18.0664 20.8301 18.6816 20.957L20 21.2305C20.0195 21.3086 20.0488 21.3672 20.0781 21.4453L19.3555 22.5391C18.9941 23.0859 19.082 23.7305 19.5703 24.2285L20.5664 25.2344C21.0547 25.7324 21.6992 25.8105 22.2461 25.4688L23.3789 24.7461C23.4473 24.7754 23.5156 24.8047 23.5938 24.8242L23.8477 26.1621C23.9648 26.7773 24.5117 27.168 25.2051 27.168ZM25.4785 25.7129C25.3027 25.7129 25.2051 25.625 25.166 25.4688L24.7363 23.6621C24.2578 23.5547 23.8184 23.3691 23.3789 23.0859L21.8066 24.082C21.6797 24.1602 21.5332 24.1504 21.416 24.0332L20.791 23.3887C20.6543 23.2617 20.6445 23.1348 20.7227 23.0078L21.6992 21.4648C21.5723 21.1523 21.2793 20.6445 21.1523 20.0781L19.3555 19.668C19.209 19.6484 19.1211 19.5215 19.1211 19.3652L19.1211 18.4668C19.1211 18.3008 19.209 18.1836 19.3555 18.1543L21.1523 17.7441C21.2793 17.1875 21.5723 16.6797 21.6992 16.3672L20.7227 14.8242C20.6445 14.6973 20.6543 14.5605 20.791 14.4336L21.416 13.7988C21.5332 13.6816 21.6797 13.6621 21.8066 13.75L23.3789 14.7363C23.8184 14.4531 24.2578 14.2773 24.7363 14.1602L25.166 12.3633C25.2051 12.207 25.3027 12.1191 25.4785 12.1191L26.3477 12.1191C26.5234 12.1191 26.6211 12.207 26.6602 12.3633L27.0898 14.1602C27.5684 14.2773 28.0078 14.4531 28.4473 14.7363L30.0195 13.75C30.1562 13.6621 30.293 13.6816 30.4102 13.7988L31.0352 14.4336C31.1719 14.5605 31.1816 14.6973 31.1035 14.8242L30.127 16.3672C30.2539 16.6797 30.5566 17.1875 30.6738 17.7441L32.4707 18.1543C32.6172 18.1836 32.7148 18.3008 32.7148 18.4668L32.7148 19.3652C32.7148 19.5215 32.6172 19.6484 32.4707 19.668L30.6738 20.0781C30.5566 20.6445 30.2539 21.1523 30.127 21.4648L31.1035 23.0078C31.1816 23.1348 31.1719 23.2617 31.0352 23.3887L30.4102 24.0332C30.293 24.1504 30.1562 24.1602 30.0195 24.082L28.4473 23.0859C28.0078 23.3691 27.5684 23.5547 27.0898 23.6621L26.6602 25.4688C26.6211 25.625 26.5234 25.7129 26.3477 25.7129ZM9.78516 13.5742C11.8848 13.5742 13.584 11.875 13.584 9.77539C13.584 7.68555 11.8848 5.97656 9.78516 5.97656C7.69531 5.97656 5.98633 7.68555 5.98633 9.77539C5.98633 11.875 7.69531 13.5742 9.78516 13.5742ZM9.78516 12.0117C8.54492 12.0117 7.54883 11.0156 7.54883 9.77539C7.54883 8.53516 8.54492 7.53906 9.78516 7.53906C11.0254 7.53906 12.0215 8.53516 12.0215 9.77539C12.0215 11.0156 11.0254 12.0117 9.78516 12.0117ZM25.9082 21.8066C27.5 21.8066 28.7988 20.5078 28.7988 18.916C28.7988 17.3242 27.5 16.0254 25.9082 16.0254C24.3164 16.0254 23.0176 17.3242 23.0176 18.916C23.0176 20.5078 24.3164 21.8066 25.9082 21.8066ZM25.9082 20.4102C25.0781 20.4102 24.4043 19.7363 24.4043 18.916C24.4043 18.0957 25.0781 17.4219 25.9082 17.4219C26.7285 17.4219 27.4023 18.0957 27.4023 18.916C27.4023 19.7363 26.7285 20.4102 25.9082 20.4102Z" fill="black" fill-opacity="0.85"/>
 </g>
</svg>
