<?xml version="1.0" ?><!-- Generator: Adobe Illustrator 25.0.0, SVG Export Plug-In . SVG Version: 6.00 Build 0)  --><svg xmlns="http://www.w3.org/2000/svg" xmlns:xlink="http://www.w3.org/1999/xlink" version="1.1" id="Layer_1" x="0px" y="0px" viewBox="0 0 512 512" style="enable-background:new 0 0 512 512;" xml:space="preserve">
<path d="M133,346.3h27.2c11.8,0,20.9-7.1,23.5-18.3l5.2-23.7c0.6-0.2,1.3-0.6,1.9-0.7l21.1,12.7c9.5,5.6,21.3,4.5,29.3-3.5l19-19.2  c8.4-8.4,9.5-20,3.5-29.5L251,243.7c0.2-0.7,0.6-1.3,0.7-2.1L275,236c11-2.6,18.3-11.9,18.3-23.7V187c0-11.6-7.1-20.9-18.3-23.7  l-23.3-5.6c-0.2-0.7-0.6-1.3-0.7-2.1l12.9-20.3c6-9.5,4.9-20.9-3.5-29.5l-19-19c-8-8-19.8-9.3-29.3-3.5l-21.1,12.5  c-0.7-0.2-1.3-0.4-2.1-0.6l-5-23.9c-2.4-11-11.8-18.1-23.5-18.1H133c-11.8,0-20.9,7.1-23.5,18.1l-5.2,23.9c-0.7,0.2-1.3,0.4-2.1,0.6  L81.4,83.2c-9.5-5.8-21.3-4.5-29.3,3.5l-19,19c-8.4,8.6-9.3,20.2-3.5,29.5l12.9,20.3c-0.2,0.7-0.6,1.3-0.7,2.1l-23.5,5.6  C7.1,166.1,0,175.4,0,187v25.4c0,11.8,7.1,21.1,18.1,23.7l23.5,5.6c0.2,0.7,0.6,1.3,0.7,2.1L29.5,264c-6,9.5-4.9,21.1,3.5,29.5  l19,19.2c8,8,19.6,9.1,29.1,3.5l21.3-12.7c0.6,0.2,1.3,0.6,1.9,0.7l5.2,23.7C112.1,339.2,121.3,346.3,133,346.3z M136.6,320.2  c-1.9,0-2.8-0.9-3.4-2.8l-8-33.4c-9-2.1-17.2-6.2-23.7-9.7L72.4,292c-1.9,1.1-3.2,0.9-4.5-0.4l-14.2-14c-1.3-1.3-1.5-2.4-0.4-4.3  l17.5-28.9c-2.2-5.6-7.1-14-9.3-23.7l-32.8-7.8c-1.9-0.4-2.8-1.5-2.8-3.4v-19.8c0-1.9,0.9-2.8,2.8-3.2l32.8-7.8  c2.2-9.9,7.1-18.1,9.3-23.9l-17.5-28.9c-1.1-1.7-0.9-2.8,0.4-4.3l14.2-13.8c1.3-1.3,2.6-1.5,4.5-0.6l29.1,17.7  c6.5-3.5,14.7-7.7,23.7-9.7l8-33.2c0.6-1.9,1.5-2.8,3.4-2.8h20.2c1.9,0,2.8,0.9,3.4,2.8l8,33.2c9,2.1,17.2,6.2,23.7,9.7l29.1-17.7  c1.7-0.9,3.2-0.7,4.5,0.6l14.2,13.8c1.3,1.5,1.5,2.6,0.4,4.3l-17.5,28.9c2.2,5.8,7.1,14,9.3,23.9l32.8,7.8c1.9,0.4,2.8,1.3,2.8,3.2  v19.8c0,1.9-0.9,3-2.8,3.4l-32.8,7.8c-2.2,9.7-7.1,18.1-9.3,23.7l17.5,28.9c1.1,1.9,0.9,3-0.4,4.3l-14.2,14  c-1.3,1.3-2.8,1.5-4.5,0.4l-29.1-17.7c-6.5,3.5-14.7,7.7-23.7,9.7l-8,33.4c-0.6,1.9-1.5,2.8-3.4,2.8H136.6z M146.7,256.4  c30.8,0,56.2-25.6,56.2-56.7c0-30.8-25.4-56.2-56.2-56.2c-31.3,0-56.5,25.4-56.5,56.2C90.1,230.6,115.3,256.4,146.7,256.4z   M146.7,228.8c-15.9,0-29.1-12.9-29.1-29.1c0-15.7,13.2-28.7,29.1-28.7c15.7,0,28.5,13.1,28.5,28.7  C175.2,215.7,162.3,228.8,146.7,228.8z M377.8,458.8h21.5c10.6,0,19.6-6.2,21.3-15.9l3.5-18.8c0.9-0.2,1.5-0.4,2.1-0.6l15.9,9.9  c8.6,5.4,19.2,4.3,26.7-3.5l15.1-15.1c7.5-7.7,9-18.3,3.2-26.9l-10.1-15.3c0.2-0.7,0.4-1.1,0.7-1.9l18.5-3.9  c9.5-2.1,15.9-10.6,15.9-21.3v-20.9c0-10.4-6.3-19.2-15.9-21.3l-18.5-3.7c-0.4-0.7-0.6-1.3-0.7-2.1l10.1-15.3  c5.8-8.6,4.3-19-3.2-26.7l-15.1-15.3c-7.5-7.6-18.1-9-26.7-3.5l-15.9,9.9c-0.6-0.2-1.1-0.4-2.1-0.6l-3.5-18.7  c-1.7-9.9-10.6-16-21.3-16h-21.5c-10.6,0-19.6,6.2-21.5,16l-3.5,18.7c-0.7,0.2-1.3,0.4-2.1,0.6l-15.9-9.9c-8.6-5.4-19-4.1-26.5,3.5  l-15.1,15.3c-7.5,7.7-9,18.1-3.4,26.7l10.1,15.3c-0.2,0.7-0.4,1.3-0.6,2.1l-18.5,3.7c-9.7,2.1-16,10.8-16,21.3v20.9  c0,10.6,6.3,19.2,16,21.3l18.5,3.9c0.2,0.7,0.4,1.1,0.6,1.9L290,387.9c-5.6,8.6-4.1,19.2,3.4,26.9l15.1,15.1  c7.5,7.8,17.9,9,26.5,3.5l15.9-9.9c0.7,0.2,1.3,0.4,2.1,0.6l3.5,18.8C358.2,452.7,367.2,458.8,377.8,458.8z M382.7,434  c-2.2,0-3.4-1.1-3.9-3l-6.5-26.9c-7.5-1.7-14.2-4.3-21.3-9l-23.5,14.7c-1.5,0.9-3.4,0.7-4.9-0.6l-8.4-8.8c-1.7-1.7-1.9-3.2-0.7-4.9  l14.2-23c-1.5-4.5-6.5-12.5-8.4-21.6l-26.7-6.2c-1.9-0.4-3-1.9-3-3.7V329c0-1.9,1.1-3.4,3-3.7l26.7-6.2c1.9-9.1,6.9-17,8.4-21.6  l-14.2-23c-1.1-1.5-0.9-3.2,0.7-4.9l8.4-8.6c1.5-1.5,3.4-1.7,4.9-0.6L351,275c7.1-4.5,13.8-7.3,21.3-9l6.5-26.9c0.6-1.9,1.7-3,3.9-3  h11.6c2.2,0,3.4,1.1,3.9,3l6.5,26.9c7.5,1.7,14.2,4.5,21.3,9l23.5-14.6c1.7-1.1,3.4-0.9,4.9,0.6l8.6,8.6c1.5,1.7,1.7,3.4,0.7,4.9  l-14.4,23c1.7,4.7,6.5,12.5,8.4,21.6l26.7,6.2c1.9,0.4,3,1.9,3,3.7v12.3c0,1.9-1.1,3.4-3,3.7l-26.7,6.2c-1.9,9.1-6.7,17.2-8.4,21.6  l14.4,23c0.9,1.7,0.7,3.2-0.7,4.9l-8.6,8.8c-1.5,1.3-3.2,1.5-4.9,0.6L426,395.2c-7.1,4.7-13.8,7.3-21.3,9l-6.5,26.9  c-0.6,1.9-1.7,3-3.9,3H382.7z M388.5,379c23.9,0,43.7-19.8,43.7-43.8c0-23.9-19.8-43.5-43.7-43.5c-24.3,0-43.8,19.6-43.8,43.5  C344.6,359,364.2,379,388.5,379z M388.5,355.5c-11.2,0-20.1-9.1-20.1-20.3c0-11,9-19.8,20.1-19.8c10.6,0,19.8,8.8,19.8,19.8  C408.3,346.1,399.1,355.5,388.5,355.5z"/>
</svg>