<?xml version="1.0" ?><!-- Generator: Adobe Illustrator 25.0.0, SVG Export Plug-In . SVG Version: 6.00 Build 0)  --><svg xmlns="http://www.w3.org/2000/svg" xmlns:xlink="http://www.w3.org/1999/xlink" version="1.1" id="Layer_1" x="0px" y="0px" viewBox="0 0 512 512" style="enable-background:new 0 0 512 512;" xml:space="preserve">
<path d="M133.8,345.2H159c7.8,0,12.8-4.5,14.7-11.5l7.4-30.6c5.2-1.9,10.2-3.7,14.7-6.3l26.9,16.7c6.1,3.7,13.4,3.2,18.6-2l17.8-18  c5-5.2,5.9-12.6,2-18.9l-16.5-26.3c2.2-4.6,4.5-9.5,5.9-14.5l30.6-7.4c7.4-1.7,11.7-6.9,11.7-14.5v-25c0-7.4-4.3-12.8-11.7-14.5  l-30.2-7.6c-1.9-5.6-4.1-10.4-5.9-14.5l16.1-26.9c3.7-6.5,3.7-13.4-1.7-18.6L241.2,87c-5.2-4.8-12.1-6.1-18.2-2.4l-27.3,16.9  c-4.3-2.4-9.3-4.5-14.7-6.1l-7.4-31.2c-1.9-7-6.9-11.5-14.7-11.5h-25.2c-7.8,0-13,4.5-14.7,11.5L111.7,95  c-5.2,1.9-10.4,3.7-14.8,6.3L69.8,84.6c-6.1-3.7-13-2.6-18.2,2.4l-18.2,17.8c-5.4,5.2-5.4,12.1-1.7,18.6l16.1,26.9  c-1.9,4.1-4.1,8.9-5.9,14.5l-30.4,7.6C4.3,174,0,179.4,0,186.8v25c0,7.6,4.3,12.8,11.5,14.5l30.8,7.4c1.5,5,3.7,9.8,5.9,14.5  l-16.5,26.3c-3.9,6.3-3,13.7,2,18.9l17.8,18c5.2,5.2,12.4,5.8,18.6,2L97,296.8c4.5,2.6,9.5,4.5,14.7,6.3l7.4,30.6  C120.8,340.8,126,345.2,133.8,345.2z M146.4,245.6c-25.6,0-46.7-21.1-46.7-46.9c0-25.4,21.1-46.4,46.7-46.4s46.7,21,46.7,46.4  C193.1,224.5,172,245.6,146.4,245.6z M375.8,459.3H397c6.9,0,11.5-3.9,12.8-9.8l6.1-26.5c4.8-1.9,9.1-3.3,13-5.6l23.2,14.5  c5.2,3.3,11.3,3,16-1.7l14.8-15c4.6-4.6,5.4-11.1,1.9-16.3l-14.3-23c2-3.9,3.7-8.2,5.2-12.4l26.7-6.3c6.1-1.3,9.6-5.9,9.6-12.6v-21  c0-6.7-3.5-11.3-9.6-12.8l-26.5-6.3c-1.7-4.8-3.3-9.1-5.2-12.6l14.1-23.4c3.5-5.6,3.3-11.3-1.5-16L468,237.6  c-4.6-4.3-10.6-5.4-15.8-2.2l-23.4,14.7c-3.7-1.9-8.2-3.9-13-5.2l-6.1-27.1c-1.3-5.9-5.9-10-12.8-10h-21.1c-6.7,0-11.3,4.1-12.8,10  l-6.3,26.7c-4.5,1.7-9.1,3.2-13,5.4l-23.4-14.5c-5-3-10.9-2.2-15.6,2.2l-15,14.8c-4.8,4.6-5,10.4-1.7,16l13.9,23.4  c-1.7,3.5-3.3,7.8-5,12.6l-26.3,6.3c-6.3,1.5-10,6.1-10,12.8v21c0,6.7,3.7,11.3,10,12.6l26.7,6.3c1.3,4.3,3,8.5,5,12.4l-14.3,23  c-3.5,5.2-2.6,11.7,1.9,16.3l14.8,15c4.6,4.6,10.8,5,16,1.7l23.2-14.5c3.9,2.2,8.3,3.7,12.8,5.6l6.3,26.5  C364.5,455.4,369.2,459.3,375.8,459.3z M386.4,370.6c-20.4,0-37.1-16.7-37.1-37.3c0-20.2,16.7-36.9,37.1-36.9  c20.4,0,37.1,16.7,37.1,36.9C423.5,353.9,406.8,370.6,386.4,370.6z"/>
</svg>