<?xml version="1.0" ?><!-- Generator: Adobe Illustrator 25.0.0, SVG Export Plug-In . SVG Version: 6.00 Build 0)  --><svg xmlns="http://www.w3.org/2000/svg" xmlns:xlink="http://www.w3.org/1999/xlink" version="1.1" id="Layer_1" x="0px" y="0px" viewBox="0 0 512 512" style="enable-background:new 0 0 512 512;" xml:space="preserve">
<path d="M127.6,512h256.7c45.9,0,71.3-24.2,71.3-70.4v-150h1.7c21.5-4.6,33.5-22,33.5-46.9v-64.2c0-29.8-16.6-48.6-46.4-48.6h-49.3  c12.9-12.9,20.5-30.5,20.5-50.8c0-47.4-37.4-81.1-84.8-81.1c-34.2,0-62.5,18.8-75,51.5C243.4,18.8,215.3,0,180.9,0  c-47.1,0-84.8,33.7-84.8,81.1c0,20.3,7.6,37.9,20.8,50.8H67.5c-28.6,0-46.4,18.8-46.4,48.6v64.2c0,24.9,11.7,42.3,33.2,46.9h1.7v150  C56.1,487.8,81.5,512,127.6,512z M235.8,131.9h-38.1c-38.4,0-60.8-21.7-60.8-48.6c0-26.9,19.5-42.5,46.4-42.5  c29.1,0,52.5,22,52.5,58.1V131.9z M275.9,131.9v-33c0-36.2,23.5-58.1,52.5-58.1c26.9,0,46.4,15.6,46.4,42.5  c0,26.9-22.2,48.6-60.8,48.6H275.9z M234.1,256.5H77.6c-12.2,0-17.1-5.1-17.1-17.3v-53.3c0-12.2,4.9-17.1,17.1-17.1h156.6V256.5z   M277.6,256.5v-87.7h157.1c12.2,0,16.9,4.9,16.9,17.1v53.3c0,12.2-4.6,17.3-16.9,17.3H277.6z M234.1,475.4h-107  c-20.3,0-31.8-11.5-31.8-31.8V293.4h138.7V475.4z M277.6,475.4v-182h138.7v150.2c0,20.3-11.5,31.8-31.8,31.8H277.6z"/>
</svg>