<?xml version="1.0" ?><!-- Generator: Adobe Illustrator 25.0.0, SVG Export Plug-In . SVG Version: 6.00 Build 0)  --><svg xmlns="http://www.w3.org/2000/svg" xmlns:xlink="http://www.w3.org/1999/xlink" version="1.1" id="Layer_1" x="0px" y="0px" viewBox="0 0 512 512" style="enable-background:new 0 0 512 512;" xml:space="preserve">
<path d="M270.4,175.6V69.9h173.2c45.8,0,68.4,22.7,68.4,67.5v115.7H349.5c29.4-13.1,49.5-37.3,49.5-66.5c0-33.8-24.8-58.8-58.4-58.8  C311.6,127.9,285.6,146,270.4,175.6z M230.7,249.7c-45.5,0-84.5-31.2-84.5-60.4c0-17.4,10.7-28.1,27.2-28.1  c34.4,0,64.3,38.1,64.3,81.9v6.5H230.7z M281.5,249.7h-7v-6.5c0-43.8,29.8-81.9,64.3-81.9c16.8,0,27.2,10.7,27.2,28.1  C366,218.5,327.2,249.7,281.5,249.7z M0,253.2V137.5c0-44.9,22.9-67.5,68.4-67.5h173.4v105.7c-15-29.6-41-47.7-70.2-47.7  c-33.3,0-58.4,25.1-58.4,58.8c0,29.2,20.3,53.4,49.5,66.5H0z M382.8,351.9c-32-3.3-76.5-45.1-89.8-72.8h219v95.6  c0,44.9-22.7,67.3-68.4,67.3H270.4V295.2h1.7c15,47.5,72.3,89.5,108.1,94.8c13.3,1.7,21.6-7.8,21.6-18.1  C401.8,360.4,395,353,382.8,351.9z M68.4,442.1C22.9,442.1,0,419.6,0,374.7v-95.6h219.4c-13.5,27.7-57.7,69.1-90,72.8  c-12,1.3-18.7,8.5-18.7,20c0,10.2,8.3,19.8,21.6,18.1c35.7-5.2,93-47.3,108.1-94.8h1.5v146.8H68.4z"/>
</svg>