<?xml version="1.0" ?><!-- Generator: Adobe Illustrator 25.0.0, SVG Export Plug-In . SVG Version: 6.00 Build 0)  --><svg xmlns="http://www.w3.org/2000/svg" xmlns:xlink="http://www.w3.org/1999/xlink" version="1.1" id="Layer_1" x="0px" y="0px" viewBox="0 0 512 512" style="enable-background:new 0 0 512 512;" xml:space="preserve">
<path d="M68.4,442.1h375.2c45.8,0,68.4-22.4,68.4-67.3V137.5c0-44.9-22.7-67.5-68.4-67.5H68.4C22.9,69.9,0,92.6,0,137.5v237.3  C0,419.6,22.9,442.1,68.4,442.1z M68.8,105h173.9v74.7c-14.2-27.9-38.8-45.1-66.2-45.1c-31.2,0-54.7,23.3-54.7,55.1  c0,27.5,19.4,50.1,46.8,62.5H35.1V139.4C35.1,116.8,47.1,105,68.8,105z M343.1,252.3c27.7-12.4,46.8-35.1,46.8-62.5  c0-31.8-23.3-55.1-54.7-55.1c-27.2,0-51.9,17.2-66.2,45.1V105h174.1c21.4,0,33.8,11.8,33.8,34.4v112.9H343.1z M232.3,249  c-42.9,0-79.7-29.4-79.7-56.9c0-16.6,10-26.6,25.7-26.6c32.2,0,60.6,35.9,60.6,77.3v6.1H232.3z M279.5,249H273v-6.1  c0-41.4,28.3-77.3,60.6-77.3c15.9,0,25.7,10,25.7,26.6C359.3,219.6,322.7,249,279.5,249z M443.2,407H269.1V291.5h1.7  c14.4,44.9,68.2,83.9,101.7,89.1c12.4,1.7,20-7.2,20-16.8c0-10.5-6.3-17.4-17.6-18.5c-30.1-3.3-72.1-42.5-84.8-69.1h186.7v96.5  C476.9,395.4,464.5,407,443.2,407z M68.8,407c-21.8,0-33.8-11.5-33.8-34.2v-96.5h186.7c-12.9,26.6-54.7,65.8-85,69.1  c-11.1,1.1-17.4,8.1-17.4,18.5c0,9.6,7.6,18.5,20,16.8c33.6-5.2,87.4-44.2,101.7-89.1h1.5V407H68.8z"/>
</svg>