<?xml version="1.0" encoding="UTF-8"?>
<!--Generator: Apple Native CoreSVG 326-->
<!DOCTYPE svg
PUBLIC "-//W3C//DTD SVG 1.1//EN"
       "http://www.w3.org/Graphics/SVG/1.1/DTD/svg11.dtd">
<svg version="1.1" xmlns="http://www.w3.org/2000/svg" xmlns:xlink="http://www.w3.org/1999/xlink" viewBox="0 0 29.7656 21.2598">
 <g>
  <rect height="21.2598" opacity="0" width="29.7656" x="0" y="0"/>
  <path d="M0.615234 10.4004L0.615234 11.6211L12.998 11.6211C12.0996 13.4668 9.50195 15.8008 7.7832 16.0059C7.19727 16.0645 6.88477 16.4062 6.88477 16.9434C6.88477 17.4121 7.26562 17.8711 7.89062 17.7734C9.76562 17.4609 12.8906 15.2734 13.9551 12.4414L14.0332 12.4414L14.0332 21.0352L15.3613 21.0352L15.3613 12.4414L15.4395 12.4414C16.5039 15.2734 19.6289 17.4609 21.5039 17.7734C22.1289 17.8711 22.5098 17.4121 22.5098 16.9434C22.5098 16.4062 22.1973 16.0645 21.6113 16.0059C19.8926 15.8008 17.2949 13.4668 16.3965 11.6211L28.6914 11.6211L28.6914 10.4004L19.4141 10.4004C21.0938 9.6875 22.3535 8.33008 22.3535 6.68945C22.3535 4.89258 21.0742 3.61328 19.3359 3.61328C17.7051 3.61328 16.1816 4.75586 15.3613 6.49414L15.3613 0.195312L14.0332 0.195312L14.0332 6.49414C13.2129 4.75586 11.6895 3.61328 10.0586 3.61328C8.32031 3.61328 7.03125 4.89258 7.03125 6.68945C7.03125 8.33008 8.30078 9.6875 9.98047 10.4004ZM13.4473 10.2539C10.8594 10.2539 8.56445 8.48633 8.56445 6.80664C8.56445 5.79102 9.18945 5.15625 10.1367 5.15625C12.0703 5.15625 13.8281 7.38281 13.8281 9.91211L13.8281 10.2539ZM15.9473 10.2539L15.5664 10.2539L15.5664 9.91211C15.5664 7.38281 17.3242 5.15625 19.2578 5.15625C20.2051 5.15625 20.8301 5.79102 20.8301 6.80664C20.8301 8.48633 18.5352 10.2539 15.9473 10.2539ZM3.79883 21.2598L25.5957 21.2598C28.125 21.2598 29.4043 19.9805 29.4043 17.4902L29.4043 3.79883C29.4043 1.30859 28.125 0.0292969 25.5957 0.0292969L3.79883 0.0292969C1.2793 0.0292969 0 1.29883 0 3.79883L0 17.4902C0 19.9902 1.2793 21.2598 3.79883 21.2598ZM3.83789 19.5215C2.4707 19.5215 1.72852 18.7988 1.72852 17.4023L1.72852 3.88672C1.72852 2.48047 2.4707 1.75781 3.83789 1.75781L25.5664 1.75781C26.9043 1.75781 27.666 2.48047 27.666 3.88672L27.666 17.4023C27.666 18.7988 26.9043 19.5215 25.5664 19.5215Z" fill="black" fill-opacity="0.85"/>
 </g>
</svg>
