<?xml version="1.0" ?><!-- Generator: Adobe Illustrator 25.0.0, SVG Export Plug-In . SVG Version: 6.00 Build 0)  --><svg xmlns="http://www.w3.org/2000/svg" xmlns:xlink="http://www.w3.org/1999/xlink" version="1.1" id="Layer_1" x="0px" y="0px" viewBox="0 0 512 512" style="enable-background:new 0 0 512 512;" xml:space="preserve">
<path d="M256,512c140,0,256-116.2,256-256C512,116,395.8,0,255.7,0C116,0,0,116,0,256C0,395.8,116.2,512,256,512z M256,469.3  c-118.5,0-213.1-94.9-213.1-213.3S137.3,42.7,255.7,42.7S469.1,137.5,469.3,256S374.5,469.3,256,469.3z M135.5,235.9  c0,13.6,7.5,18.8,21.1,18.8h88.8V187h-19.3c-19.8,0-31.4-12.3-31.4-26.4c0-13.6,10-21.8,23.8-21.8c15.1,0,26.9,11.5,26.9,30.1V187  H266v67.8h89.1c13.6,0,20.8-5.3,20.8-18.8v-30.4c0-13.1-7.3-18.6-20.8-18.6h-29.4c7.5-6.8,11.5-16.3,11.5-27.1  c0-24.3-19.1-41.7-42.9-41.7c-17.6,0-32.1,9.5-38.7,26.6c-6.5-17.1-20.8-26.6-38.4-26.6c-24.1,0-43.2,17.3-43.2,41.7  c0,10.8,4.3,20.3,11.5,27.1h-29.1c-13.1,0-21.1,5.5-21.1,18.6V235.9z M293.1,138.8c13.8,0,23.6,8.3,23.6,21.8  c0,14.1-11.5,26.4-31.4,26.4H266v-18.1C266,150.3,277.8,138.8,293.1,138.8z M153.3,348.9c0,20.6,12.3,31.6,33.1,31.6h59V268h-92.1  V348.9z M266,380.5h59c20.8,0,33.1-11,33.1-31.6V268H266V380.5z"/>
</svg>