<?xml version="1.0" ?><!-- Generator: Adobe Illustrator 25.0.0, SVG Export Plug-In . SVG Version: 6.00 Build 0)  --><svg xmlns="http://www.w3.org/2000/svg" xmlns:xlink="http://www.w3.org/1999/xlink" version="1.1" id="Layer_1" x="0px" y="0px" viewBox="0 0 512 512" style="enable-background:new 0 0 512 512;" xml:space="preserve">
<path d="M266.5,449c11.9,0,23.2-3.8,33.9-11.3s20.4-16.6,29.1-27.2c8.7-10.6,16.1-20.8,22.2-30.5c6.1-9.7,10.4-16.6,12.9-20.8  c6.5-10.7,9.3-21,8.4-31c-0.9-10-1.4-18-1.4-24.2c0-2.5,2.2-6.3,6.7-11.3c4.4-5,8.9-10.8,13.3-17.4c4.4-6.6,6.7-13.7,6.7-21.2  c0-5.9-2.6-11.4-7.8-16.6c-5.2-5.2-11.2-10-17.9-14.4c-6.8-4.4-12.8-8.4-17.9-11.8c-5.2-3.4-7.8-6.3-7.8-8.7c0-3,1-6,3.1-8.9  c2.1-2.9,4.4-4.4,6.9-4.4s5.9,1.8,10.2,5.3c4.3,3.5,9,7.6,14.1,12.2c5.1,4.6,10.2,8.7,15.3,12.2c5.1,3.5,9.7,5.3,13.9,5.3  c3.3,0,6-0.7,8-2.1c2-1.4,3.7-2.9,5-4.4c1.3-1.5,2.7-2.3,4-2.3c1.3,0,2.7,2.6,4.1,7.8c1.4,5.2,3.2,11.7,5.3,19.5  c2.1,7.8,4.7,15.9,7.9,24.3c3.2,8.4,7.1,16.1,11.8,23.1c4.7,6.9,10.5,12,17.6,15.2l10.5-23.1c-6.4-1.7-11.2-5.9-14.7-12.8  c-3.4-6.9-6.2-14.8-8.4-24c-2.2-9.1-4.4-18.1-6.5-26.9c-2.2-8.8-5.1-16.1-8.9-21.8c-3.8-5.8-9.1-8.7-15.9-8.7  c-5.5,0-10,1.6-13.6,4.9c-3.5,3.3-6.4,4.9-8.5,4.9c-0.8,0-2.2-0.6-4.1-1.9c-1.9-1.3-4.5-3.2-7.8-5.8c-3.3-2.6-7.3-5.9-12.2-9.9  c-3.5-3-7.4-6-11.7-9c-4.3-3-9.8-4.5-16.7-4.5c-8.4,0-15.9,3.8-22.6,11.5c-6.7,7.7-10,15.9-10,24.6c0,6.9,2.5,12.9,7.5,18.2  c5,5.3,10.8,10,17.4,14.1c6.6,4.1,12.4,7.7,17.4,10.8c5,3.1,7.5,5.8,7.5,8.2c0,2.8-0.8,5.7-2.4,8.5c-1.6,2.8-4.6,6.9-9.2,12.3  c-5.2,5.7-9,10.8-11.4,15.2c-2.4,4.4-3.6,9.1-3.6,13.9c0,2.2,0.1,4.3,0.3,6.3c0.2,2,0.3,3.9,0.5,5.8c0.7,8.4,0.7,14.6,0.1,18.8  s-2,8.3-4.4,12.3c-2.8,4.5-6.9,11-12.2,19.3c-5.3,8.4-11.4,16.9-18.3,25.7c-6.9,8.8-14.3,16.2-22.1,22.3c-7.8,6.1-15.7,9.2-23.7,9.2  c-7.2,0-12.6-2.3-16.2-6.8c-3.6-4.5-6.1-10.6-7.4-18.2c-1.3-7.6-2.1-16.1-2.1-25.3c-0.1-9.3-0.1-18.6-0.1-28  c0-18.4-6.5-33.7-19.5-45.9c-13-12.2-29.1-18.3-48.3-18.3c-29.4,0-44.2-14.2-44.2-42.7c0-13.1,4-24.4,11.9-34.1  c7.9-9.7,18.1-17.2,30.4-22.6s25-8,38-8c8.9,0,17.2,1.1,24.8,3.4c7.7,2.3,15.1,4.5,22.1,6.7c7,2.2,14,3.3,20.8,3.3  c5.5,0,10.5-2.3,14.8-7c4.4-4.7,7.7-10.4,10.2-17.2c2.4-6.8,3.6-13.3,3.6-19.5c0-5.9-2.6-11.7-7.8-17.4  c-5.2-5.8-11.5-11.1-18.9-15.9c-7.4-4.9-14.7-8.7-21.7-11.5c-7-2.8-12.4-4.3-16.1-4.3c-6.2,0-10.7,1.9-13.6,5.6s-4.5,9.6-5,17.4  l5-0.5l-8-6.3c-5.2-3.8-10-6.9-14.4-9c-4.4-2.2-9.1-3.3-13.9-3.3c-6,0-10.8,1.6-14.3,4.9c-3.5,3.3-6.4,7-8.8,11.3  c-2.3,4.3-4.6,8-6.8,11.3c-2.2,3.3-4.9,4.9-8,4.9c-3.7,0-5.5-1.9-5.5-5.8c0-3.7,2.3-8.6,6.8-14.8c4.5-6.2,9-13.5,13.6-21.8  c4.5-8.4,6.8-17.7,6.8-28.1l0.3-20.3h-23.8v22.6c0,10-2.2,18.4-6.7,25.1c-4.4,6.7-8.9,13-13.4,18.9c-4.5,5.9-6.8,12.9-6.8,21  c0,7.2,2.3,13,7,17.4c4.7,4.4,11,6.7,19.1,6.7c7.4,0,13.2-1.6,17.6-4.8c4.4-3.2,7.8-6.9,10.3-11c2.5-4.2,4.8-7.9,6.9-11  c2.1-3.2,4.6-4.8,7.7-4.8c3.2,0,6.6,1.4,10.3,4.3c3.7,2.8,7.9,5.6,12.7,8.4c4.8,2.8,10.3,4.1,16.7,4.1c5.7,0,10-1.9,12.8-5.8  c2.8-3.8,4.1-9.3,3.8-16.3l-7,2.3c3.8,1.3,8,3.1,12.5,5.1c4.5,2.1,8.8,4.4,12.9,7c4.1,2.6,7.5,5.3,10.2,8.2c2.7,2.8,4,5.7,4,8.5  c0,3.2-0.7,6.7-2,10.4c-1.3,3.8-3.3,5.6-6,5.6c-3.7,0-9-1.1-15.8-3.3c-6.9-2.2-14.6-4.4-23.1-6.7c-8.5-2.3-17.1-3.4-25.6-3.4  c-17.6,0-34.4,3.8-50.6,11.4c-16.1,7.6-29.4,18.2-39.7,31.7c-10.3,13.6-15.4,29.2-15.4,46.9c0,21.1,6.1,37.7,18.2,49.8  c12.1,12.1,29.2,18.2,51.3,18.2c12.2,0,22.3,3.6,30.4,10.9c8,7.3,12,16.6,12,28c0,9.4,0.1,20,0.4,31.7c0.3,11.8,1.7,23.2,4.4,34.1  c2.7,11,7.6,20,14.8,27.1C242.1,445.4,252.7,449,266.5,449z M334.3,103.2c2.7,0,5.5,0.9,8.4,2.6c2.9,1.8,6.7,2.6,11.4,2.6  c2.8,0,5.2-1.2,7.2-3.5c1.9-2.3,2.9-5.2,2.9-8.5c0-6-3.1-11.1-9.2-15.3c-6.1-4.2-13.7-6.3-22.7-6.3c-10.7,0-19,1.7-24.8,5  c-5.9,3.3-8.8,8.1-8.8,14.3c0,4,1.3,7.3,4,9.9c2.7,2.6,6,3.9,10,3.9c4.2,0,7.7-0.8,10.4-2.4C325.9,103.9,329.6,103.2,334.3,103.2z   M256,512c35,0,67.9-6.7,98.8-20.1c30.9-13.4,58.1-31.9,81.7-55.5c23.6-23.6,42.1-50.8,55.5-81.7C505.3,323.9,512,291,512,256  s-6.7-67.9-20.1-98.8c-13.4-30.9-31.9-58.1-55.5-81.7c-23.6-23.6-50.9-42.1-81.8-55.5C323.7,6.7,290.7,0,255.7,0S187.9,6.7,157,20.1  C126.1,33.5,98.9,52,75.4,75.5c-23.5,23.6-42,50.8-55.3,81.7C6.7,188.1,0,221,0,256s6.7,67.9,20.1,98.8  c13.4,30.9,31.9,58.1,55.5,81.7c23.6,23.6,50.8,42.1,81.7,55.5C188.1,505.3,221,512,256,512z M256,477.9c-30.3,0-58.8-5.8-85.6-17.4  s-50.4-27.6-70.8-48.1s-36.4-44-48.1-70.8c-11.6-26.8-17.4-55.3-17.4-85.6s5.8-58.8,17.4-85.6c11.6-26.8,27.6-50.4,47.9-70.8  c20.3-20.4,43.9-36.4,70.7-48.1c26.8-11.6,55.3-17.4,85.6-17.4c30.3,0,58.8,5.8,85.6,17.4c26.8,11.6,50.4,27.6,70.9,48.1  c20.5,20.4,36.6,44,48.2,70.8c11.6,26.8,17.4,55.3,17.4,85.6c0,30.3-5.8,58.8-17.4,85.6c-11.6,26.8-27.6,50.4-48.1,70.8  c-20.4,20.4-44,36.4-70.8,48.1S286.3,477.9,256,477.9z"/>
</svg>