<?xml version="1.0" ?><!-- Generator: Adobe Illustrator 25.0.0, SVG Export Plug-In . SVG Version: 6.00 Build 0)  --><svg xmlns="http://www.w3.org/2000/svg" xmlns:xlink="http://www.w3.org/1999/xlink" version="1.1" id="Layer_1" x="0px" y="0px" viewBox="0 0 512 512" style="enable-background:new 0 0 512 512;" xml:space="preserve">
<path d="M57.5,366.7c9.4-7.2,16.7-15.2,22-24c5.3-8.8,9.4-17.2,12.3-25.2c2.9-8,5.5-14.6,7.8-19.8c2.3-5.2,5.2-7.8,8.9-7.8  c3.8,0,7.9,1.8,12.3,5.5c4.4,3.7,10,9.9,16.8,18.6c11.5,14.9,21.5,26.1,29.7,33.5c8.3,7.4,16.4,11.2,24.2,11.2c4.9,0,9.8-2,14.8-6  c5-4,9.2-9,12.5-14.9c3.3-5.9,5-11.8,5-17.4c0-2.7-1.3-5.5-3.8-8.5c-2.5-3-5-5.9-7.5-8.7c-2.5-2.8-3.8-5.1-3.8-7.2  c0-3.5,2.8-5.3,8.5-5.3c11.7,0,22.6-2.8,32.8-8.4c10.1-5.6,18.3-12.5,24.5-20.7s9.3-16.2,9.3-24.1c0-5.7-2.3-11.1-6.8-16.3  c-4.5-5.2-9.1-10-13.7-14.6c-4.6-4.5-6.9-8.6-6.9-12.3c0-2.3,0.8-4.2,2.5-5.5c1.7-1.3,3.6-2,5.8-2c1.5,0,3.2,0.3,5,1  c1.8,0.7,3.8,1.8,6,3.5c9.2,7.2,16.8,11.1,22.7,11.8c5.9,0.7,10.5-0.6,13.8-3.8c3.3-3.2,5.3-7,6.1-11.5c0.5-2.8,1.9-5.8,4.3-8.9  c2.3-3.1,7.1-6.4,14.3-9.9c10-5.2,18.9-10.9,26.5-17.2c7.6-6.3,13.6-12.6,17.9-18.9c4.4-6.4,6.5-12.4,6.5-18.1  c0-4.7-1.7-9.2-5.1-13.4c-3.4-4.3-7.4-8.2-11.9-11.9c-4.5-3.7-8.5-6.9-11.9-9.8c-3.4-2.8-5.1-5.2-5.1-7c0-2,1.8-4,5.3-5.9  c3.5-1.9,9.4-4.1,17.6-6.7c-8.7-7.9-19-14.9-30.9-21.1c-11.9-6.2-25.3-11-40.4-14.6c-15.1-3.5-31.6-5.3-49.7-5.3  c-28.3,1.2-54.5,5.9-78.7,14.3c-24.2,8.4-45.8,19.7-64.9,34.1c-19.1,14.4-35.4,31.2-48.9,50.6c-13.6,19.3-23.9,40.7-31.1,64  s-10.9,48-11,73.9c-0.2,20.2,2.9,40.1,9.2,59.5C36.5,334.9,45.6,352,57.5,366.7z M367.9,468.1c49.2-31.5,85.3-69.4,108.4-113.7  c-2-16.1-6.7-28.5-14.1-37.4c-7.4-8.9-16.4-13.3-27.1-13.3c-3,0-6.2,0.3-9.7,0.8c-3.4,0.5-6.7,1.3-9.9,2.5c-4.4,1.3-7.5,1.7-9.4,1.1  c-1.9-0.6-4.6-2.9-8.2-6.9c-5-5.7-10-9.7-14.9-12c-4.9-2.3-10.8-3.5-17.7-3.5c-13.1,0-23.6,3.6-31.7,10.9  c-8.1,7.3-15,19.5-20.7,36.5c-1.5,5.2-3.9,9.1-7.2,11.7c-3.3,2.6-9.3,5.6-18.2,8.9l-10.5,3.8c-9.9,3.8-16.1,9.7-18.8,17.4  c-2.7,7.8-2.3,19,1,33.8c6.2,26.3,18.3,39.4,36.4,39.4c8,0,14.8-1,20.3-2.9c5.5-1.9,11-2.9,16.6-2.9c8-0.2,14.5,2.1,19.5,6.9  C356.9,453.9,362.2,460.2,367.9,468.1z M316.5,240.7c5.4,0,10-1.3,14.1-3.9c4-2.6,8.1-5.5,12.3-8.7c4.2-3.2,9.4-5.7,15.6-7.5  c6-1.7,10.6-5.2,13.8-10.5c3.2-5.4,4.8-10.6,4.8-15.8c0-4.4-1.1-8.1-3.3-11.2c-2.2-3.1-5.6-4.6-10.3-4.6c-10.2,0-18.5,6.8-24.8,20.3  c-1.7,3.5-4.1,6.4-7.3,8.5c-3.2,2.2-8.1,4.2-14.8,6c-9.5,2.8-14.3,7.9-14.3,15.1c0,4.2,1.4,7.3,4.3,9.3  C309.3,239.7,312.6,240.7,316.5,240.7z M243.7,356.6c7.2,0,13.7-3.4,19.6-10.2c5.9-6.8,8.8-13.8,8.8-21.2c0-9.2-1.6-16-4.9-20.3  c-3.3-4.4-7.1-6.5-11.4-6.5c-4.7,0-8.4,2.6-11.3,7.8c-2.8,5.2-4.3,12-4.3,20.6c0,4.9-1.4,8.2-4.3,9.9s-4.3,5.1-4.3,9.9  C231.7,353.3,235.7,356.6,243.7,356.6z M199.8,402.6c11.9,0,17.8-4.9,17.8-14.8c0-7.7-4.3-11.5-12.8-11.5c-10,0-17.5-1.4-22.3-4.3  s-8.8-5.7-11.9-8.5c-3.1-2.8-7.1-4.3-11.9-4.3c-4,0-7.3,1.1-9.8,3.3c-2.5,2.2-3.8,5-3.8,8.5c0,2.8,1.3,5.2,3.8,7  c2.5,1.8,5.6,2.8,9.3,2.8c4,0,6.9,1.1,8.8,3.3c1.8,2.2,3.7,4.7,5.6,7.7c1.9,2.9,4.9,5.5,8.9,7.7  C185.5,401.5,191.6,402.6,199.8,402.6z M256,512c35,0,67.9-6.7,98.8-20.1c30.9-13.4,58.1-31.9,81.7-55.5  c23.6-23.6,42.1-50.8,55.5-81.7C505.3,323.9,512,291,512,256s-6.7-67.9-20.1-98.8c-13.4-30.9-31.9-58.1-55.5-81.7  c-23.6-23.6-50.9-42.1-81.8-55.5C323.7,6.7,290.7,0,255.7,0S187.9,6.7,157,20.1C126.1,33.5,98.9,52,75.4,75.5  c-23.5,23.6-42,50.8-55.3,81.7C6.7,188.1,0,221,0,256s6.7,67.9,20.1,98.8c13.4,30.9,31.9,58.1,55.5,81.7  c23.6,23.6,50.8,42.1,81.7,55.5C188.1,505.3,221,512,256,512z M256,477.9c-30.3,0-58.8-5.8-85.6-17.4s-50.4-27.6-70.8-48.1  s-36.4-44-48.1-70.8c-11.6-26.8-17.4-55.3-17.4-85.6s5.8-58.8,17.4-85.6c11.6-26.8,27.6-50.4,47.9-70.8  c20.3-20.4,43.9-36.4,70.7-48.1c26.8-11.6,55.3-17.4,85.6-17.4c30.3,0,58.8,5.8,85.6,17.4c26.8,11.6,50.4,27.6,70.9,48.1  c20.5,20.4,36.6,44,48.2,70.8c11.6,26.8,17.4,55.3,17.4,85.6c0,30.3-5.8,58.8-17.4,85.6c-11.6,26.8-27.6,50.4-48.1,70.8  c-20.4,20.4-44,36.4-70.8,48.1S286.3,477.9,256,477.9z"/>
</svg>