<?xml version="1.0" encoding="UTF-8"?>
<!--Generator: Apple Native CoreSVG 326-->
<!DOCTYPE svg
PUBLIC "-//W3C//DTD SVG 1.1//EN"
       "http://www.w3.org/Graphics/SVG/1.1/DTD/svg11.dtd">
<svg version="1.1" xmlns="http://www.w3.org/2000/svg" xmlns:xlink="http://www.w3.org/1999/xlink" viewBox="0 0 25.8008 25.459">
 <g>
  <rect height="25.459" opacity="0" width="25.8008" x="0" y="0"/>
  <path d="M2.65625 18.2129L4.02344 15.5762C4.39453 14.8633 4.77539 14.4434 5.19531 14.4434C5.60547 14.4434 6.04492 14.8438 6.66016 15.6641C7.83203 17.1582 8.60352 17.9004 9.36523 17.9004C10.1074 17.9004 10.9961 16.8164 10.9961 16.0742C10.9961 15.5176 10.1855 15.0488 10.1855 14.7559C10.1855 14.5996 10.3418 14.5117 10.5957 14.5117C12.5488 14.5117 14.0039 12.9004 14.0039 11.7578C14.0039 10.6836 12.7832 9.83398 12.7832 9.42383C12.7832 9.32617 12.8516 9.24805 12.9395 9.24805C13.0566 9.24805 13.2227 9.375 13.5645 9.60938C14.9023 10.6348 15.5957 10.1367 15.6934 9.375C15.7324 9.07227 15.9082 8.78906 16.6309 8.4375C17.9297 7.80273 19.2285 6.61133 19.2285 5.6543C19.2285 4.43359 17.4805 3.88672 17.4805 3.54492C17.4805 3.33984 17.959 3.10547 18.8281 2.85156L18.5547 1.74805C17.1777 2.11914 16.2305 2.74414 16.2305 3.48633C16.2305 4.52148 18.0957 5.01953 18.0957 5.6543C18.0957 6.2207 17.0215 6.95312 16.1914 7.38281C14.9023 8.07617 14.8926 8.45703 14.7559 8.91602C14.502 9.51172 13.8379 8.29102 12.7832 8.29102C12.1777 8.29102 11.7285 8.69141 11.7285 9.29688C11.7285 10.2344 12.8613 11.0938 12.8613 11.7578C12.8613 12.5488 11.9824 13.4668 10.3027 13.4668C9.44336 13.4668 8.95508 13.8672 8.95508 14.541C8.95508 15.1758 9.81445 15.791 9.81445 16.0742C9.81445 16.3184 9.55078 16.6797 9.38477 16.6797C9.11133 16.6797 8.51562 16.1816 7.56836 14.9609C6.74805 13.8867 6.00586 13.3105 5.25391 13.3105C4.24805 13.3105 3.59375 14.1211 3.17383 14.9023L1.92383 17.2168ZM18.3203 23.418L19.2285 22.7246C18.6621 21.9727 17.959 20.9473 16.5137 20.9473C15.6152 20.9473 15.4102 21.25 14.7461 21.25C14.3164 21.25 14.082 20.8887 13.9062 20.1465C13.75 19.4727 13.6914 19.0234 14.0918 18.8379C14.5703 18.6426 16.1035 18.4961 16.6309 16.875C17.0117 15.7129 17.3828 15.2734 18.0371 15.2734C19.248 15.2734 19.0137 16.4355 20.2734 16.4355C20.8301 16.4355 21.1328 16.1914 21.5723 16.1914C22.1582 16.1914 22.5781 16.7383 22.7148 18.1445L23.8379 17.627C23.6133 15.9766 22.832 15.0488 21.748 15.0488C21.4551 15.0488 21.0938 15.1074 20.7422 15.2246C20.3027 15.3711 20.1953 15.3223 19.8438 14.9316C19.3262 14.3457 18.8965 14.1309 18.1836 14.1309C16.9043 14.1309 16.123 14.7363 15.5273 16.543C15.3613 17.0801 15.127 17.2559 14.2188 17.5977L13.6816 17.793C12.7051 18.1641 12.4316 18.8672 12.7832 20.4004C13.0957 21.7188 13.7305 22.3926 14.6289 22.3926C15.4395 22.3926 15.9473 22.0898 16.5137 22.0898C17.334 22.0801 17.7344 22.6074 18.3203 23.418ZM15.625 11.9434C16.4355 11.9434 16.7969 11.2109 17.7148 10.9473C18.3203 10.7715 18.6426 10.1465 18.6426 9.62891C18.6426 9.19922 18.4277 8.83789 17.9688 8.83789C17.4805 8.83789 17.0215 9.21875 16.7285 9.84375C16.5625 10.2148 16.2988 10.3906 15.625 10.5762C15.0977 10.7324 14.9121 10.9277 14.9121 11.3281C14.9121 11.7578 15.2441 11.9434 15.625 11.9434ZM12.002 17.7246C12.7148 17.7246 13.4082 16.9043 13.4082 16.1523C13.4082 15.2539 13.0371 14.8242 12.6074 14.8242C12.1289 14.8242 11.8262 15.3809 11.8262 16.2402C11.8262 16.7188 11.3965 16.7383 11.3965 17.2363C11.3965 17.5293 11.6406 17.7246 12.002 17.7246ZM9.81445 20.0195C10.3516 20.0195 10.7031 19.7363 10.7031 19.2773C10.7031 18.9258 10.4297 18.7109 10.0488 18.7109C8.54492 18.7109 8.48633 17.8516 7.75391 17.8516C7.35352 17.8516 7.07031 18.0859 7.07031 18.4375C7.07031 18.7207 7.35352 18.9258 7.72461 18.9258C8.53516 18.9258 8.1543 20.0195 9.81445 20.0195ZM12.7148 25.4395C19.7363 25.4395 25.4395 19.7461 25.4395 12.7246C25.4395 5.70312 19.7363 0 12.7148 0C5.69336 0 0 5.70312 0 12.7246C0 19.7461 5.69336 25.4395 12.7148 25.4395ZM12.7148 23.9551C6.51367 23.9551 1.48438 18.9258 1.48438 12.7246C1.48438 6.51367 6.51367 1.48438 12.7148 1.48438C18.9258 1.48438 23.9551 6.51367 23.9551 12.7246C23.9551 18.9258 18.9258 23.9551 12.7148 23.9551Z" fill="black" fill-opacity="0.85"/>
 </g>
</svg>
