<?xml version="1.0" encoding="UTF-8"?>
<!--Generator: Apple Native CoreSVG 326-->
<!DOCTYPE svg
PUBLIC "-//W3C//DTD SVG 1.1//EN"
       "http://www.w3.org/Graphics/SVG/1.1/DTD/svg11.dtd">
<svg version="1.1" xmlns="http://www.w3.org/2000/svg" xmlns:xlink="http://www.w3.org/1999/xlink" viewBox="0 0 25.8008 25.459">
 <g>
  <rect height="25.459" opacity="0" width="25.8008" x="0" y="0"/>
  <path d="M13.3789 22.3438C15.7324 22.3438 17.7344 18.7207 18.252 17.8711C18.8965 16.8164 18.6035 15.7617 18.6035 15.1367C18.6035 14.6777 19.9316 13.7793 19.9316 12.627C19.9316 11.4355 17.3438 10.5957 17.3438 10.0391C17.3438 9.70703 17.627 9.29688 17.9199 9.29688C18.4473 9.29688 19.7754 11.0547 20.6055 11.0547C21.1035 11.0547 21.2012 10.625 21.4551 10.625C21.7969 10.625 22.1191 14.2773 23.7695 15.0977L24.2383 14.0723C22.6758 13.5449 23.2227 9.375 21.6016 9.375C21.0352 9.375 20.752 9.87305 20.4883 9.87305C20.3223 9.87305 19.9609 9.57031 19.2383 8.96484C18.877 8.67188 18.5156 8.31055 17.8516 8.31055C17.0703 8.31055 16.2891 9.20898 16.2891 10.0488C16.2891 11.4355 18.7988 12.0508 18.7988 12.627C18.7988 12.9297 18.6621 13.1738 18.1934 13.7109C17.6855 14.2871 17.4609 14.6582 17.4609 15.1367C17.4609 15.3418 17.4805 15.5371 17.4902 15.7324C17.5684 16.6113 17.5098 16.9336 17.2461 17.373C16.6504 18.3008 15 21.2109 13.3789 21.2109C11.875 21.2109 12.0215 19.1016 12.0215 17.207C12.0215 15.4004 10.5859 14.0527 8.68164 14.0527C7.13867 14.0527 6.38672 13.3008 6.38672 11.8359C6.38672 9.87305 8.4375 8.48633 10.498 8.48633C11.7969 8.48633 12.8516 9.18945 13.8965 9.18945C14.7168 9.18945 15.2734 8.01758 15.2734 7.06055C15.2734 5.9082 12.8711 4.6582 12.1094 4.6582C11.5234 4.6582 11.2988 5 11.1621 5.76172L11.416 5.72266L11.0156 5.42969C10.498 5.06836 10.0684 4.84375 9.59961 4.84375C8.38867 4.84375 8.33984 6.43555 7.65625 6.43555C7.46094 6.43555 7.34375 6.31836 7.34375 6.12305C7.34375 5.50781 8.70117 4.39453 8.7207 2.74414L8.73047 1.79688L7.64648 1.79688L7.64648 2.83203C7.64648 4.44336 6.2793 5.07812 6.2793 6.2207C6.2793 6.93359 6.77734 7.39258 7.53906 7.39258C8.99414 7.39258 8.97461 5.82031 9.67773 5.82031C10.2051 5.83984 10.7422 6.63086 11.6016 6.63086C12.168 6.63086 12.4121 6.2793 12.4902 5.56641L12.1289 5.66406C12.832 5.92773 14.1895 6.5625 14.1895 7.16797C14.1895 7.54883 14.0527 8.04688 13.7402 8.04688C13.1738 8.04688 11.7578 7.34375 10.498 7.34375C7.83203 7.34375 5.25391 9.25781 5.25391 11.8359C5.25391 13.9355 6.50391 15.1855 8.68164 15.1855C9.95117 15.1855 10.8789 16.0352 10.8789 17.207C10.8789 19.082 10.6738 22.3438 13.3789 22.3438ZM16.6992 5.06836C16.9629 5.06836 17.207 5.32227 17.666 5.32227C17.959 5.32227 18.1641 5.06836 18.1641 4.72656C18.1641 4.13086 17.4902 3.67188 16.6016 3.67188C15.5469 3.67188 14.9512 4.01367 14.9512 4.61914C14.9512 5.01953 15.2441 5.29297 15.6445 5.29297C16.0547 5.29297 16.2402 5.06836 16.6992 5.06836ZM12.7148 25.4395C19.7363 25.4395 25.4395 19.7461 25.4395 12.7246C25.4395 5.70312 19.7363 0 12.7148 0C5.69336 0 0 5.70312 0 12.7246C0 19.7461 5.69336 25.4395 12.7148 25.4395ZM12.7148 23.9551C6.51367 23.9551 1.48438 18.9258 1.48438 12.7246C1.48438 6.51367 6.51367 1.48438 12.7148 1.48438C18.9258 1.48438 23.9551 6.51367 23.9551 12.7246C23.9551 18.9258 18.9258 23.9551 12.7148 23.9551Z" fill="black" fill-opacity="0.85"/>
 </g>
</svg>
