<?xml version="1.0" ?><!-- Generator: Adobe Illustrator 25.0.0, SVG Export Plug-In . SVG Version: 6.00 Build 0)  --><svg xmlns="http://www.w3.org/2000/svg" xmlns:xlink="http://www.w3.org/1999/xlink" version="1.1" id="Layer_1" x="0px" y="0px" viewBox="0 0 512 512" style="enable-background:new 0 0 512 512;" xml:space="preserve">
<path d="M266,445.7c6.4,0,14.6-4.1,24.6-12.2c10-8.1,20.5-18.5,31.5-31.2c11-12.7,21.3-26.4,31-40.9c9.7-14.6,17.6-28.4,23.7-41.7  c6.1-13.2,9.2-24.1,9.2-32.6c0-6.2-2.9-13.3-8.7-21.5c-5.8-8.1-13.1-16-22-23.7c-8.9-7.7-18-14.1-27.4-19.1  c-9.4-5-17.6-7.5-24.6-7.5c-4.2,0-9,1.5-14.3,4.4c-5.4,2.9-10.8,5.9-16.4,8.8c-5.6,2.9-10.8,4.4-15.7,4.4c-3.5,0-7.9-1.5-13.1-4.4  c-5.2-2.9-10.3-6.6-15.4-11c-5.1-4.4-9.4-9-12.8-13.6c-3.4-4.6-5.1-8.4-5.1-11.4c0-3.5,1.3-6.2,3.9-8.2c2.6-1.9,5.6-2.9,9.2-2.9  c4,0,8.8,1.7,14.3,5.1c5.5,3.4,11.4,6.9,17.7,10.3c6.3,3.4,12.7,5.1,19.2,5.1c8.2,0,14.4-2.6,18.7-7.8c4.3-5.2,6.4-11.8,6.4-19.8  c0-4.2-1.1-8.5-3.3-13.1c-2.2-4.5-5-9.5-8.5-15.1c6.5-3.2,14.3-7.2,23.2-12c9-4.9,18.1-10.5,27.5-16.8c9.4-6.4,17.9-13.3,25.7-21  c7.8-7.6,13.8-15.8,17.9-24.5c-9.4-14.6-25.6-26.2-48.7-35c-23.1-8.8-49.2-13.2-78.3-13.2c-21.4,0-42.4,2.8-62.9,8.5  c-20.5,5.7-39.1,13.3-55.8,23s-30.4,20.3-41,32.1c-10.6,11.8-16.9,23.9-18.7,36.3c-1.5,13.2,2.5,27,11.9,41.4  c9.5,14.4,23,29.2,40.5,44.4l36.6,31.9c5.9,5.2,10.4,9.3,13.6,12.3c3.2,3,4.8,6.1,4.8,9.3c0,3.5-1,6.9-3,10c-2,3.2-4,6.5-6,9.9  c-2,3.4-3,7.5-3,12.2c0,12.5,6.4,23.5,19.1,32.9c13.6,10.2,24,17.9,31.2,23.1c7.3,5.2,12.3,9.2,15.1,12.2c2.8,2.9,4.1,5.9,4.1,8.9  c0.2,8.4-1.4,15.9-4.6,22.7c-3.3,6.8-4.9,14-4.9,21.7c0,6.9,3.6,13.4,10.9,19.7C250.6,442.6,258.2,445.7,266,445.7z M256,512  c35,0,67.9-6.7,98.8-20.1c30.9-13.4,58.1-31.9,81.7-55.5c23.6-23.6,42.1-50.8,55.5-81.7C505.3,323.9,512,291,512,256  s-6.7-67.9-20.1-98.8c-13.4-30.9-31.9-58.1-55.5-81.7c-23.6-23.6-50.9-42.1-81.8-55.5C323.7,6.7,290.7,0,255.7,0S187.9,6.7,157,20.1  C126.1,33.5,98.9,52,75.4,75.5c-23.5,23.6-42,50.8-55.3,81.7C6.7,188.1,0,221,0,256s6.7,67.9,20.1,98.8  c13.4,30.9,31.9,58.1,55.5,81.7c23.6,23.6,50.8,42.1,81.7,55.5C188.1,505.3,221,512,256,512z M256,477.9c-30.3,0-58.8-5.8-85.6-17.4  s-50.4-27.6-70.8-48.1s-36.4-44-48.1-70.8c-11.6-26.8-17.4-55.3-17.4-85.6s5.8-58.8,17.4-85.6c11.6-26.8,27.6-50.4,47.9-70.8  c20.3-20.4,43.9-36.4,70.7-48.1c26.8-11.6,55.3-17.4,85.6-17.4c30.3,0,58.8,5.8,85.6,17.4c26.8,11.6,50.4,27.6,70.9,48.1  c20.5,20.4,36.6,44,48.2,70.8c11.6,26.8,17.4,55.3,17.4,85.6c0,30.3-5.8,58.8-17.4,85.6c-11.6,26.8-27.6,50.4-48.1,70.8  c-20.4,20.4-44,36.4-70.8,48.1S286.3,477.9,256,477.9z"/>
</svg>