<?xml version="1.0" encoding="UTF-8"?>
<!--Generator: Apple Native CoreSVG 326-->
<!DOCTYPE svg
PUBLIC "-//W3C//DTD SVG 1.1//EN"
       "http://www.w3.org/Graphics/SVG/1.1/DTD/svg11.dtd">
<svg version="1.1" xmlns="http://www.w3.org/2000/svg" xmlns:xlink="http://www.w3.org/1999/xlink" viewBox="0 0 25.8008 25.459">
 <g>
  <rect height="25.459" opacity="0" width="25.8008" x="0" y="0"/>
  <path d="M2.64648 18.3105C4.55078 16.7969 4.41406 14.3945 5.19531 14.3945C5.60547 14.3945 6.02539 14.7461 6.69922 15.6348C7.87109 17.1289 8.62305 17.8516 9.36523 17.8516C10.0586 17.8516 10.9473 16.7871 10.9473 15.9766C10.9473 15.5371 10.1367 15.0684 10.1367 14.7559C10.1367 14.5605 10.3418 14.4629 10.625 14.4629C12.5293 14.4629 13.9551 12.8711 13.9551 11.7578C13.9551 10.918 12.6367 10.1367 12.6367 9.60938C12.6367 9.39453 12.8027 9.24805 13.0078 9.24805C13.1543 9.24805 13.3398 9.32617 13.6328 9.51172C14.9414 10.498 15.5859 10.0586 15.6836 9.30664C15.7227 8.98438 15.9082 8.68164 16.6504 8.33984C18.0957 7.60742 19.1797 6.49414 19.1797 5.6543C19.1797 4.6875 17.4316 3.93555 17.4316 3.54492C17.4316 3.33008 17.8223 3.0957 18.7305 2.82227C17.3633 1.57227 15.1758 0.820312 12.7051 0.820312C5.49805 1.03516 0.927734 6.38672 0.898438 12.7246C0.888672 14.6973 1.50391 16.7773 2.64648 18.3105ZM18.3301 23.3398C20.7812 21.7969 22.5977 19.873 23.7891 17.6074C23.5645 15.9961 22.8027 15.1074 21.748 15.1074C21.4551 15.1074 21.1035 15.1562 20.7617 15.2734C20.3027 15.4199 20.1758 15.3809 19.8047 14.9609C19.2969 14.3848 18.877 14.1797 18.1836 14.1797C16.8652 14.1797 16.1426 14.834 15.5762 16.5527C15.4004 17.1094 15.1562 17.2949 14.2383 17.6465L13.7012 17.8418C12.7344 18.2129 12.4902 18.8965 12.832 20.3906C13.1348 21.6797 13.75 22.3438 14.6289 22.3438C15.4297 22.3438 15.9375 22.041 16.5137 22.041C17.3535 22.0312 17.7637 22.5586 18.3301 23.3398ZM15.625 11.9434C16.4355 11.9434 16.7969 11.2109 17.7148 10.9473C18.3203 10.7715 18.6426 10.1465 18.6426 9.62891C18.6426 9.19922 18.4277 8.83789 17.9688 8.83789C17.4805 8.83789 17.0215 9.21875 16.7285 9.84375C16.5625 10.2148 16.2988 10.3906 15.625 10.5762C15.0977 10.7324 14.9121 10.9277 14.9121 11.3281C14.9121 11.7578 15.2441 11.9434 15.625 11.9434ZM12.002 17.7246C12.7148 17.7246 13.4082 16.9043 13.4082 16.1523C13.4082 15.2539 13.0371 14.8242 12.6074 14.8242C12.1289 14.8242 11.8262 15.3809 11.8262 16.2402C11.8262 16.7188 11.3965 16.7383 11.3965 17.2363C11.3965 17.5293 11.6406 17.7246 12.002 17.7246ZM9.81445 20.0195C10.3516 20.0195 10.7031 19.7363 10.7031 19.2773C10.7031 18.9258 10.4297 18.7109 10.0488 18.7109C8.54492 18.7109 8.48633 17.8516 7.75391 17.8516C7.35352 17.8516 7.07031 18.0859 7.07031 18.4375C7.07031 18.7207 7.35352 18.9258 7.72461 18.9258C8.53516 18.9258 8.1543 20.0195 9.81445 20.0195ZM12.7148 25.4395C19.7363 25.4395 25.4395 19.7461 25.4395 12.7246C25.4395 5.70312 19.7363 0 12.7148 0C5.69336 0 0 5.70312 0 12.7246C0 19.7461 5.69336 25.4395 12.7148 25.4395ZM12.7148 23.9551C6.51367 23.9551 1.48438 18.9258 1.48438 12.7246C1.48438 6.51367 6.51367 1.48438 12.7148 1.48438C18.9258 1.48438 23.9551 6.51367 23.9551 12.7246C23.9551 18.9258 18.9258 23.9551 12.7148 23.9551Z" fill="black" fill-opacity="0.85"/>
 </g>
</svg>
