<?xml version="1.0" ?><!-- Generator: Adobe Illustrator 25.0.0, SVG Export Plug-In . SVG Version: 6.00 Build 0)  --><svg xmlns="http://www.w3.org/2000/svg" xmlns:xlink="http://www.w3.org/1999/xlink" version="1.1" id="Layer_1" x="0px" y="0px" viewBox="0 0 512 512" style="enable-background:new 0 0 512 512;" xml:space="preserve">
<path d="M22.2,278.2c0,31.9,6.1,62,18.3,90.3c12.2,28.3,29.1,53.1,50.6,74.6s46.4,38.3,74.6,50.5C194,505.9,224.1,512,256,512  s62-6.1,90.2-18.3c28.2-12.2,53.1-29.1,74.6-50.5c21.5-21.5,38.4-46.3,50.6-74.6c12.2-28.3,18.3-58.4,18.3-90.3  c0-28.1-4.8-54.9-14.4-80.2c-9.6-25.4-23-48.3-40.2-68.9c-17.2-20.6-37.3-37.7-60.3-51.6c-23-13.8-47.9-23.4-74.6-28.8V16.3  c0-8.3-2.4-13.4-7.1-15.4c-4.7-2-10.2-0.8-16.5,3.7l-73.1,51.1c-5.3,3.7-8,7.9-8,12.8c0,4.9,2.7,9.2,8,13.1l72.9,51.3  c6.3,4.6,11.8,5.8,16.6,3.8c4.8-2.1,7.2-7.2,7.2-15.5V88.7c21.7,4.9,41.7,13.1,59.9,24.8c18.3,11.6,34.1,25.8,47.7,42.6  c13.5,16.8,24,35.6,31.5,56.3c7.5,20.7,11.2,42.7,11.2,65.9c0,27-5,52.4-15,76c-10,23.6-23.9,44.3-41.7,62.1  c-17.8,17.8-38.5,31.7-62,41.7c-23.5,10-48.8,15-75.9,15s-52.4-5-76-15s-44.3-23.9-62.1-41.7c-17.8-17.8-31.7-38.5-41.7-62.1  c-10-23.6-15-48.9-15-76c0-21.7,3.4-42.4,10.1-62c6.7-19.6,16.1-37.5,28.2-53.7c12.1-16.2,26.2-30.1,42.4-41.7  c4.7-3.5,7.8-7.8,9.1-12.8c1.3-5,0.5-9.9-2.4-14.7c-2.9-4.6-7.1-7.4-12.6-8.4s-10.8,0.4-15.8,4.2c-19.7,14.2-36.9,31.1-51.6,50.8  c-14.7,19.6-26.1,41.2-34.1,64.6C26.3,228,22.2,252.6,22.2,278.2z" class="hierarchical-0:secondary SFSymbolsPreview4D4D4D" style="fill: #4D4D4D;"/>
<path d="M253.7,374.9c18.9,0,34.2-5.6,45.8-16.8c11.6-11.2,17.4-26.1,17.4-44.6c0-16.8-5.2-30.6-15.5-41.5  c-10.3-10.8-23.6-16.3-40-16.3c-7.3,0-14.5,1.7-21.4,5c-7,3.4-12,7.9-15,13.8h1.1l4.1-51.8h68.8c3.2,0,6.1-1.2,8.6-3.7  c2.5-2.4,3.8-5.7,3.8-9.6c0-3.8-1.3-6.9-3.8-9.3c-2.5-2.4-5.4-3.6-8.6-3.6h-73.3c-12.1,0-18.6,6.3-19.7,19l-5,66  c-0.5,5.7,0.7,9.9,3.4,12.7c2.8,2.8,6.6,4.2,11.7,4.2c3.7,0,6.6-0.5,8.9-1.4c2.3-0.9,5.1-2.6,8.5-5c4.3-4,8.3-6.8,12.1-8.6  c3.8-1.8,8-2.6,12.6-2.6c9,0,16.2,3,21.7,9.1c5.4,6,8.1,14,8.1,23.9c0,10.1-3.1,18.4-9.4,25c-6.3,6.6-14.1,9.9-23.6,9.9  c-6.9,0-13.1-1.8-18.6-5.4c-5.5-3.6-9.7-8.4-12.6-14.3c-1.7-2.9-3.6-5.2-5.7-6.8c-2.1-1.6-4.7-2.4-7.6-2.4c-3.8,0-6.9,1.2-9.3,3.7  c-2.4,2.4-3.6,5.7-3.6,9.6c0,1.5,0.2,3.1,0.5,4.6c0.3,1.5,0.8,3.1,1.4,4.6c3.2,8.3,9.5,15.7,19,22.5  C228.1,371.6,239.8,374.9,253.7,374.9z" class="hierarchical-1:primary SFSymbolsPreview212121" style="fill: #212121;"/>
</svg>