<?xml version="1.0" ?><!-- Generator: Adobe Illustrator 25.0.0, SVG Export Plug-In . SVG Version: 6.00 Build 0)  --><svg xmlns="http://www.w3.org/2000/svg" xmlns:xlink="http://www.w3.org/1999/xlink" version="1.1" id="Layer_1" x="0px" y="0px" viewBox="0 0 512 512" style="enable-background:new 0 0 512 512;" xml:space="preserve">
<path d="M256,512c127.9,0,233.8-105.9,233.8-233.8c0-112.8-82.3-208.3-189.5-229.4V16.3C300.2,0,289-4.4,276.6,4.6l-73.1,51.1  c-10.5,7.3-10.8,18.3,0,25.9l72.9,51.3c12.6,9.2,23.8,4.8,23.8-11.7V88.4c86.6,19.7,150.4,96.9,150.4,189.8  C450.6,386.4,364.2,473,256,473S61,386.4,61.2,278.2c0.2-65.1,31.9-122.6,80.7-157.5c9.4-7.1,12.4-17.9,6.6-27.5  c-5.7-9.4-18.3-11.9-28.4-4.1C61.2,132,22.2,201.2,22.2,278.2C22.2,406.1,128.3,512,256,512z M187.9,372.2c8.9,0,14.7-6.2,14.7-15.8  V211.8c0-11.7-6-17.9-16.3-17.9c-6.4,0-11,2.1-19,7.6l-31.6,21.3c-5.3,3.9-7.8,8-7.8,13.3c0,7.6,6,14,13.3,14  c4.6,0,6.9-0.9,11.2-4.4l21.5-15.8v126.5C173.9,365.8,179.4,372.2,187.9,372.2z M304.4,374.9c38,0,63.3-24.5,63.3-61.4  c0-33.7-22.7-57.8-55.5-57.8c-13.5,0-28.2,6.2-35.1,16.5l3.9-49.5h68.8c6.6,0,12.4-5.5,12.4-13.3c0-7.8-5.7-12.8-12.4-12.8h-73.3  c-11.9,0-18.6,6.9-19.7,19l-5,66c-0.9,11.5,5,17,15.1,17c7.6,0,10.8-1.4,17.4-6.4c8.7-8,15.8-11.2,24.8-11.2  c17.9,0,29.8,13.1,29.8,33c0,20.2-14,34.8-33,34.8c-13.5,0-25.2-7.8-31.2-19.7c-3.4-6-7.6-9.2-13.3-9.2c-7.6,0-12.8,5.5-12.8,13.3  c0,3.2,0.7,6.2,1.8,9.2C256.5,358.9,276.6,374.9,304.4,374.9z"/>
</svg>