<?xml version="1.0" ?><!-- Generator: Adobe Illustrator 25.0.0, SVG Export Plug-In . SVG Version: 6.00 Build 0)  --><svg xmlns="http://www.w3.org/2000/svg" xmlns:xlink="http://www.w3.org/1999/xlink" version="1.1" id="Layer_1" x="0px" y="0px" viewBox="0 0 512 512" style="enable-background:new 0 0 512 512;" xml:space="preserve">
<path d="M256,512c127.9,0,233.8-105.9,233.8-233.8c0-77-39-146.2-97.9-189.1c-10.1-7.8-22.7-5.3-28.4,4.1  c-5.7,9.6-2.8,20.4,6.6,27.5c48.8,34.8,80.5,92.4,80.7,157.5C451.1,386.4,364.2,473,256,473S61.4,386.4,61.4,278.2  c0-92.8,63.7-170.1,150.4-189.8v33c0,16.3,11.2,20.6,23.8,11.7l73.1-51.3c10.3-7.1,10.5-18.1,0-25.7L235.8,4.7  c-12.8-9.2-24.1-4.8-24.1,11.7v32.3C104.5,69.6,22.2,165.4,22.2,278.2C22.2,406.1,128.3,512,256,512z M207.4,374.2  c8.9,0,14.4-6.4,14.4-17.2v-19h11c7.8,0,12.8-5,12.8-13.1c0-7.8-5-12.8-12.8-12.8h-11v-97.4c0-14.2-9.9-20.9-22.9-20.9  c-12.4,0-19.5,4.6-26.6,16.7c-16.5,27.5-37.1,62.8-52.7,91c-3.7,6.9-4.8,11.5-4.8,18.1c0,11,6.9,18.3,18.8,18.3h60.1v19  C193.6,367.8,198.7,374.2,207.4,374.2z M323.6,374.9c38.1,0,63.3-24.5,63.3-61.4c0-33.7-22.7-57.8-55.5-57.8  c-13.5,0-28.2,6.2-34.8,16.5l3.9-49.5H369c6.6,0,12.6-5.5,12.6-13.3c0-7.8-6-12.8-12.6-12.8h-73.4c-11.9,0-18.6,6.9-19.5,19l-5,66  c-0.9,11.5,5,17,14.9,17c7.6,0,11-1.4,17.4-6.4c8.7-8,15.8-11.2,25-11.2c17.7,0,29.6,13.1,29.6,33c0,20.2-14,34.8-33,34.8  c-13.5,0-25.2-7.8-31.2-19.7c-3.4-6-7.6-9.2-13.3-9.2c-7.6,0-12.8,5.5-12.8,13.3c0,3.2,0.7,6.2,2.1,9.2  C275.9,358.9,296.1,374.9,323.6,374.9z M144.8,312.1v-0.7c16-30,31.9-59.8,47.9-89.6h0.9v90.3H144.8z"/>
</svg>