<?xml version="1.0" ?><!-- Generator: Adobe Illustrator 25.0.0, SVG Export Plug-In . SVG Version: 6.00 Build 0)  --><svg xmlns="http://www.w3.org/2000/svg" xmlns:xlink="http://www.w3.org/1999/xlink" version="1.1" id="Layer_1" x="0px" y="0px" viewBox="0 0 512 512" style="enable-background:new 0 0 512 512;" xml:space="preserve">
<path d="M256,512c127.9,0,233.8-105.9,233.8-233.8c0-77-39-146.2-97.9-189.1c-10.1-7.8-22.7-5.3-28.4,4.1  c-5.7,9.6-2.8,20.4,6.6,27.5c48.8,34.8,80.5,92.4,80.7,157.5C451.1,386.4,364.2,473,256,473S61.4,386.4,61.4,278.2  c0-92.8,63.7-170.1,150.4-189.8v33c0,16.3,11.2,20.6,23.8,11.7l73.1-51.3c10.3-7.1,10.5-18.1,0-25.7L235.8,4.7  c-12.8-9.2-24.1-4.8-24.1,11.7v32.3C104.5,69.6,22.2,165.4,22.2,278.2C22.2,406.1,128.3,512,256,512z M331.4,374.7  c38.1,0,63-36,63-91c0-55.5-25-91.9-63-91.9c-38.3,0-63,36.2-63,91.9C268.4,338.7,293.4,374.7,331.4,374.7z M183.6,374.7  c36,0,61.7-21.8,61.7-52.7c0-21.3-14.2-39-34.4-42.6c16.3-4.6,28.7-21.5,28.7-40.8c0-27.5-22.5-46.8-54.6-46.8  c-27.7,0-50.9,15.6-55.7,37.8c-0.7,2.8-0.9,5-0.9,7.6c0,8.3,5.3,14,13.1,14c6.6,0,10.8-3.4,13.3-10.8c4.6-14.4,14.4-22,29.6-22  c16,0,27,9.6,27,23.6c0,14.7-11,25.4-27.3,25.4h-9.9c-7.6,0-12.6,5.3-12.6,13.3c0,7.6,5.3,13.3,12.6,13.3h10.8  c19.5,0,31.6,10.8,31.6,26.8c0,15.6-13.8,27.5-32.8,27.5c-16,0-27.5-8-32.6-22.2c-2.8-7.6-6.9-10.8-13.1-10.8c-7.8,0-13.3,6-13.3,14  c0,2.5,0.2,5,0.9,7.6C130.8,358.4,155.4,374.7,183.6,374.7z M331.4,347c-20.2,0-33.2-24.1-33.2-63.3c0-39.9,12.8-64.2,33.2-64.2  c20.4,0,33,24.1,33,64.2C364.4,322.9,351.6,347,331.4,347z"/>
</svg>