<?xml version="1.0" ?><!-- Generator: Adobe Illustrator 25.0.0, SVG Export Plug-In . SVG Version: 6.00 Build 0)  --><svg xmlns="http://www.w3.org/2000/svg" xmlns:xlink="http://www.w3.org/1999/xlink" version="1.1" id="Layer_1" x="0px" y="0px" viewBox="0 0 512 512" style="enable-background:new 0 0 512 512;" xml:space="preserve">
<path d="M256,512c127.9,0,233.8-105.9,233.8-233.8c0-77-39-146.2-97.9-189.1c-10.1-7.8-22.7-5.3-28.4,4.1  c-5.7,9.6-2.8,20.4,6.6,27.5c48.8,34.8,80.5,92.4,80.7,157.5C451.1,386.4,364.2,473,256,473S61.4,386.4,61.4,278.2  c0-92.8,63.7-170.1,150.4-189.8v33c0,16.3,11.2,20.6,23.8,11.7l73.1-51.3c10.3-7.1,10.5-18.1,0-25.7L235.8,4.7  c-12.8-9.2-24.1-4.8-24.1,11.7v32.3C104.5,69.6,22.2,165.4,22.2,278.2C22.2,406.1,128.3,512,256,512z M333.2,374.7  c38.1,0,63-36,63-91c0-55.5-25-91.9-63-91.9c-38.3,0-63,36.4-63,92.1C270.2,338.9,295.2,374.7,333.2,374.7z M182.2,374.7  c36.9,0,61-24.5,61-62.1c0-33.2-22.9-56.8-53.9-56.8c-20.6,0-36.2,9.9-42.9,24.5c0-36.7,15.4-61.7,39-61.7  c11.9,0,19.5,4.6,24.8,13.3c3.9,6,7.6,8.5,14.4,8.5c6.9,0,11.7-5.3,11.7-12.6c0-3.2-0.7-6.2-1.6-8.7c-6.2-15.4-23.8-27-48.1-27  c-43.8,0-68.1,34.4-68.1,95.8c0,24.3,3.7,44,11.5,58.2C140.2,365.1,159,374.7,182.2,374.7z M333.2,347c-20.4,0-33.2-24.1-33.2-63.3  c0-39.9,12.6-64.2,33.2-64.2c20.4,0,33,24.1,33,64.2C366.3,322.9,353.4,347,333.2,347z M180.8,349.2c-18.6,0-32.1-14.7-32.1-35.3  c0-20.2,13.3-34.2,32.3-34.2c19,0,32.3,13.8,32.3,34.2C213.4,335.7,200.8,349.2,180.8,349.2z"/>
</svg>