<?xml version="1.0" ?><!-- Generator: Adobe Illustrator 25.0.0, SVG Export Plug-In . SVG Version: 6.00 Build 0)  --><svg xmlns="http://www.w3.org/2000/svg" xmlns:xlink="http://www.w3.org/1999/xlink" version="1.1" id="Layer_1" x="0px" y="0px" viewBox="0 0 512 512" style="enable-background:new 0 0 512 512;" xml:space="preserve">
<path d="M493.9,123.5L307,38c-19.5-8.8-35.3-13-51.1-12.6c-15.6-0.4-31.5,3.8-51.1,12.6L18.1,123.5C5.9,129,0,138.7,0,148.5  s5.9,19.3,18.1,25l78.6,35.9l120.8-56.7c-1.1-1.3-1.5-2.9-1.5-4.2c0-12,20.2-21.2,40.6-21.2c20.6,0,40.5,9.2,40.5,21.2  c0,12.4-19.8,21.8-40.5,21.8c-6.3,0-12.6-1-18.1-2.5l-115.3,54l81.5,37.4c19.7,9,35.5,12.8,51.1,12.6c15.8,0.2,31.7-3.6,51.1-12.6  l186.8-85.7c12.2-5.7,18.1-15.3,18.1-25S506.1,129,493.9,123.5z M122.5,250v116c32.1,19.5,77.9,31.3,133.4,31.3  C368.5,397.3,441,349,441,292v-65.6l-123.1,56.3c-22.3,10.3-42.6,15.5-62,15.3c-19.3,0.2-39.7-5-62-15.3L122.5,250z M71,226.3V292  c0,16.6,9.5,37.2,26.7,54.8v-108L71,226.3z M82.6,411.6v50.2c0,15.1,9.7,24.8,24.8,24.8h5.2c15.1,0,24.8-9.7,24.8-24.8v-50.2  c0-11.4-5.7-19.7-14.9-23.1V366c-9.5-5.7-17.9-12.2-24.8-19.3v41.8C88.4,391.8,82.6,400.2,82.6,411.6z"/>
</svg>