<?xml version="1.0" encoding="UTF-8"?>
<!--Generator: Apple Native CoreSVG 326-->
<!DOCTYPE svg
PUBLIC "-//W3C//DTD SVG 1.1//EN"
       "http://www.w3.org/Graphics/SVG/1.1/DTD/svg11.dtd">
<svg version="1.1" xmlns="http://www.w3.org/2000/svg" xmlns:xlink="http://www.w3.org/1999/xlink" viewBox="0 0 34.0625 35.3223">
 <g>
  <rect height="35.3223" opacity="0" width="34.0625" x="0" y="0"/>
  <path d="M32.5977 12.0801L20.1855 6.39648C18.8867 5.81055 17.8711 5.55664 16.8555 5.57617C15.8301 5.55664 14.8145 5.81055 13.5156 6.39648L1.10352 12.0801C0.361328 12.4121 0 13.0176 0 13.623C0 14.2285 0.361328 14.8047 1.10352 15.1465L6.66016 17.6758L14.4238 13.9648C14.3164 13.8477 14.2676 13.7305 14.2676 13.6133C14.2676 12.8809 15.5176 12.2754 16.8945 12.2754C18.2617 12.2754 19.502 12.8809 19.502 13.6133C19.502 14.375 18.2617 14.9805 16.8945 14.9805C16.4453 14.9805 16.0254 14.9219 15.6445 14.8047L8.16406 18.3887L13.5156 20.8398C14.8145 21.4355 15.8301 21.6797 16.8555 21.6699C17.8711 21.6797 18.8867 21.4355 20.1855 20.8398L32.5977 15.1465C33.3398 14.8047 33.7012 14.2285 33.7012 13.623C33.7012 13.0176 33.3398 12.4121 32.5977 12.0801ZM8.125 20.0781L8.125 27.6758C10.1953 28.9355 13.1738 29.7559 16.8555 29.7559C24.1992 29.7559 28.8086 26.5234 28.8086 23.0664L28.8086 18.5938L20.8398 22.2461C19.3945 22.9102 18.1055 23.2422 16.8555 23.2227C15.5957 23.2422 14.3066 22.9102 12.8613 22.2461ZM4.89258 18.6035L4.89258 23.0664C4.89258 24.1309 5.52734 25.4492 6.70898 26.5723L6.70898 19.4336ZM6.70898 30.3906L8.125 30.3906L8.125 27.6758C7.58789 27.3438 7.10938 26.9727 6.70898 26.5723ZM5.72266 30.459L5.72266 33.7988C5.72266 34.7363 6.30859 35.3223 7.23633 35.3223L7.57812 35.3223C8.51562 35.3223 9.10156 34.7363 9.10156 33.7988L9.10156 30.459C9.10156 29.5312 8.51562 28.9453 7.57812 28.9453L7.23633 28.9453C6.30859 28.9453 5.72266 29.5312 5.72266 30.459Z" fill="black" fill-opacity="0.85"/>
 </g>
</svg>
