<?xml version="1.0" encoding="UTF-8"?>
<!--Generator: Apple Native CoreSVG 326-->
<!DOCTYPE svg
PUBLIC "-//W3C//DTD SVG 1.1//EN"
       "http://www.w3.org/Graphics/SVG/1.1/DTD/svg11.dtd">
<svg version="1.1" xmlns="http://www.w3.org/2000/svg" xmlns:xlink="http://www.w3.org/1999/xlink" viewBox="0 0 25.8008 25.459">
 <g>
  <rect height="25.459" opacity="0" width="25.8008" x="0" y="0"/>
  <path d="M25.4395 12.7246C25.4395 19.7266 19.7266 25.4395 12.7148 25.4395C5.71289 25.4395 0 19.7266 0 12.7246C0 5.71289 5.71289 0 12.7148 0C19.7266 0 25.4395 5.71289 25.4395 12.7246ZM8.50586 8.36914C8.50586 8.78906 8.71094 9.0625 9.16016 9.28711L15.7715 12.6562L15.7715 12.7344L9.16016 16.0547C8.70117 16.2695 8.50586 16.5332 8.50586 16.9531C8.50586 17.4609 8.89648 17.8516 9.43359 17.8516C9.6582 17.8516 9.80469 17.793 9.98047 17.7051L17.5684 13.7109C18.0273 13.4766 18.2227 13.1934 18.2227 12.7246C18.2227 12.3047 18.0078 11.9824 17.5684 11.7383L9.98047 7.62695C9.79492 7.53906 9.6582 7.49023 9.41406 7.49023C8.88672 7.49023 8.50586 7.87109 8.50586 8.36914Z" fill="black" fill-opacity="0.85"/>
 </g>
</svg>
