<?xml version="1.0" encoding="UTF-8"?>
<!--Generator: Apple Native CoreSVG 326-->
<!DOCTYPE svg
PUBLIC "-//W3C//DTD SVG 1.1//EN"
       "http://www.w3.org/Graphics/SVG/1.1/DTD/svg11.dtd">
<svg version="1.1" xmlns="http://www.w3.org/2000/svg" xmlns:xlink="http://www.w3.org/1999/xlink" viewBox="0 0 15.625 20.8887">
 <g>
  <rect height="20.8887" opacity="0" width="15.625" x="0" y="0"/>
  <path d="M15.2637 19.9316C15.2637 19.4043 14.8242 18.9746 14.3066 18.9746L0.957031 18.9746C0.439453 18.9746 0 19.4043 0 19.9316C0 20.4492 0.439453 20.8887 0.957031 20.8887L14.3066 20.8887C14.8242 20.8887 15.2637 20.4492 15.2637 19.9316ZM1.55273 14.6484C1.86523 14.6484 2.07031 14.5703 2.29492 14.4629L14.1992 8.7793C14.8047 8.49609 15.2637 8.06641 15.2637 7.39258C15.2637 6.71875 14.8047 6.2793 14.1895 5.99609L2.29492 0.234375C2.08984 0.136719 1.88477 0.0488281 1.5918 0.0488281C1.03516 0.0488281 0.644531 0.429688 0.644531 0.996094C0.644531 1.49414 0.898438 1.77734 1.33789 1.97266L12.7246 7.25586L12.7246 7.38281L1.33789 12.7344C0.908203 12.9297 0.644531 13.2031 0.644531 13.6914C0.644531 14.2773 1.02539 14.6484 1.55273 14.6484Z" fill="black" fill-opacity="0.85"/>
 </g>
</svg>
