<?xml version="1.0" encoding="UTF-8"?>
<!--Generator: Apple Native CoreSVG 326-->
<!DOCTYPE svg
PUBLIC "-//W3C//DTD SVG 1.1//EN"
       "http://www.w3.org/Graphics/SVG/1.1/DTD/svg11.dtd">
<svg version="1.1" xmlns="http://www.w3.org/2000/svg" xmlns:xlink="http://www.w3.org/1999/xlink" viewBox="0 0 23.3203 22.959">
 <g>
  <rect height="22.959" opacity="0" width="23.3203" x="0" y="0"/>
  <path d="M22.959 3.76953L22.959 19.1992C22.959 21.6797 21.6797 22.959 19.1504 22.959L3.79883 22.959C1.2793 22.959 0 21.6992 0 19.1992L0 3.76953C0 1.26953 1.2793 0 3.79883 0L19.1504 0C21.6797 0 22.959 1.2793 22.959 3.76953ZM7.91016 16.0156C7.45117 16.0156 7.08008 16.3867 7.08008 16.8359C7.08008 17.2461 7.45117 17.6367 7.91016 17.6367L15.3906 17.6367C15.8594 17.6367 16.2207 17.2461 16.2207 16.8359C16.2207 16.3867 15.8594 16.0156 15.3906 16.0156ZM7.4707 6.26953C7.4707 6.60156 7.65625 6.9043 7.99805 7.07031L13.6914 9.61914L13.6914 9.66797L7.99805 12.2363C7.65625 12.373 7.4707 12.6855 7.4707 13.0176C7.4707 13.4375 7.8125 13.8379 8.31055 13.8379C8.44727 13.8379 8.57422 13.7988 8.82812 13.6719L15.3809 10.6934C15.918 10.4688 16.0938 10.127 16.0938 9.63867C16.0938 9.20898 15.9082 8.83789 15.3809 8.59375L8.82812 5.60547C8.57422 5.49805 8.44727 5.46875 8.31055 5.46875C7.8125 5.46875 7.4707 5.84961 7.4707 6.26953Z" fill="black" fill-opacity="0.85"/>
 </g>
</svg>
