<?xml version="1.0" ?><!-- Generator: Adobe Illustrator 25.0.0, SVG Export Plug-In . SVG Version: 6.00 Build 0)  --><svg xmlns="http://www.w3.org/2000/svg" xmlns:xlink="http://www.w3.org/1999/xlink" version="1.1" id="Layer_1" x="0px" y="0px" viewBox="0 0 512 512" style="enable-background:new 0 0 512 512;" xml:space="preserve">
<path d="M31.6,502.7c10.4,0,17.5-3.3,24.9-7.1L474.1,308c21.5-10,37.9-26.4,37.9-50.2c0-23.4-16.3-40.5-37.9-50.2L56.5,15.6  c-7.1-3.7-13.7-6.3-23.4-6.3C13.4,9.3,0,22.7,0,42.4c0,17.1,8.9,26.8,24.5,34.2L424.3,253v4.1l-399.8,178C8.9,442.5,0,452.2,0,469.3  C0,489.7,13,502.7,31.6,502.7z"/>
</svg>