<?xml version="1.0" encoding="UTF-8"?>
<!--Generator: Apple Native CoreSVG 326-->
<!DOCTYPE svg
PUBLIC "-//W3C//DTD SVG 1.1//EN"
       "http://www.w3.org/Graphics/SVG/1.1/DTD/svg11.dtd">
<svg version="1.1" xmlns="http://www.w3.org/2000/svg" xmlns:xlink="http://www.w3.org/1999/xlink" viewBox="0 0 25.8008 25.459">
 <g>
  <rect height="25.459" opacity="0" width="25.8008" x="0" y="0"/>
  <path d="M12.7148 25.4395C19.7363 25.4395 25.4395 19.7461 25.4395 12.7246C25.4395 5.70312 19.7363 0 12.7148 0C5.69336 0 0 5.70312 0 12.7246C0 19.7461 5.69336 25.4395 12.7148 25.4395ZM12.7148 23.623C6.68945 23.623 1.81641 18.75 1.81641 12.7246C1.81641 6.69922 6.68945 1.82617 12.7148 1.82617C18.7402 1.82617 23.6133 6.69922 23.6133 12.7246C23.6133 18.75 18.7402 23.623 12.7148 23.623Z" fill="black" fill-opacity="0.85"/>
  <path d="M9.50195 17.7051C9.7168 17.7051 9.86328 17.666 10.0293 17.5781L17.4316 13.6816C17.8711 13.4473 18.0664 13.1738 18.0664 12.7246C18.0664 12.3145 17.8516 12.0117 17.4316 11.7676L10.0293 7.75391C9.85352 7.66602 9.7168 7.62695 9.48242 7.62695C8.97461 7.62695 8.60352 7.99805 8.60352 8.47656C8.60352 8.87695 8.79883 9.14062 9.23828 9.36523L15.6836 12.6562L15.6836 12.7344L9.23828 15.9766C8.78906 16.1914 8.60352 16.4355 8.60352 16.8457C8.60352 17.3438 8.99414 17.7051 9.50195 17.7051Z" fill="black" fill-opacity="0.85"/>
 </g>
</svg>
