<?xml version="1.0" ?><!-- Generator: Adobe Illustrator 25.0.0, SVG Export Plug-In . SVG Version: 6.00 Build 0)  --><svg xmlns="http://www.w3.org/2000/svg" xmlns:xlink="http://www.w3.org/1999/xlink" version="1.1" id="Layer_1" x="0px" y="0px" viewBox="0 0 512 512" style="enable-background:new 0 0 512 512;" xml:space="preserve">
<path d="M87.3,512h337.3c58.4,0,87.3-28.9,87.3-86.2V86.2C512,28.9,483.1,0,424.7,0H87.3C29.2,0,0,28.6,0,86.2v339.6  C0,483.4,29.2,512,87.3,512z M87.9,467.2c-27.8,0-43.1-14.7-43.1-43.7V88.4c0-28.9,15.3-43.7,43.1-43.7h336.2  c27.5,0,43.1,14.7,43.1,43.7v335.1c0,28.9-15.6,43.7-43.1,43.7H87.9z M184.1,369.3c5.6,0,9.5-1.1,13.6-3.1l165.8-86.2  c11.4-6.1,16.4-13.1,16.4-24.5c0-10.6-5.6-18.4-16.4-24.5l-165.8-89.3c-4.5-2.2-8.1-3.3-14.2-3.3c-12.8,0-22.5,9.5-22.5,22  c0,10.3,5,17,16.4,22.5l141,70.9v1.7l-141,69.2c-11.7,5.6-16.4,11.7-16.4,22.2C161,359.9,171,369.3,184.1,369.3z"/>
</svg>