<?xml version="1.0" ?><!-- Generator: Adobe Illustrator 25.0.0, SVG Export Plug-In . SVG Version: 6.00 Build 0)  --><svg xmlns="http://www.w3.org/2000/svg" xmlns:xlink="http://www.w3.org/1999/xlink" version="1.1" id="Layer_1" x="0px" y="0px" viewBox="0 0 512 512" style="enable-background:new 0 0 512 512;" xml:space="preserve">
<path d="M256,512c140,0,256-116.2,256-256C512,116,395.8,0,255.7,0C116,0,0,116,0,256C0,395.8,116.2,512,256,512z M188.7,362.2  c-12.3,0-21.6-9-21.6-20.8c0-10,4.5-15.8,15.3-20.8l131-64.5v-1.5l-131-66c-10.5-5-15.3-11.3-15.3-21.1c0-11.5,9-20.6,21.1-20.6  c5.8,0,9,1.3,13.1,3.3l154.4,83.1c10.3,5.8,15.6,13.1,15.6,22.8c0,10.8-4.8,17.3-15.6,22.8l-154.4,80.3  C197.5,360.9,194,362.2,188.7,362.2z"/>
</svg>