<?xml version="1.0" ?><!-- Generator: Adobe Illustrator 25.0.0, SVG Export Plug-In . SVG Version: 6.00 Build 0)  --><svg xmlns="http://www.w3.org/2000/svg" xmlns:xlink="http://www.w3.org/1999/xlink" version="1.1" id="Layer_1" x="0px" y="0px" viewBox="0 0 512 512" style="enable-background:new 0 0 512 512;" xml:space="preserve">
<path d="M178.4,30.7l199.2,35c19.6,3.7,35.9,9,49.3,16.3v-18c0-48.3-32.5-71.6-87-61.9L178.4,30.7z M115.6,466.1l251.9,44.4  c45.1,8.1,72.5-17,72.5-66.5V166.1c0-45.1-23-61.5-67.9-69.3L127.5,53.5C93.9,47.7,72,65.9,72,99.1v316.8  C72,444.4,86.5,461,115.6,466.1z M131.4,190.7v-48.6c0-16.8,10.6-24.4,28.1-21.2l49.5,8.5c17.5,3.2,13.4,32.7-6.2,29.2l-30.4-5.3  c-7.1-1.4-10.8,1.4-10.8,7.6v30.9C161.6,210.1,131.4,210.1,131.4,190.7z M348.6,228.2v-29c0-7.1-2.1-15.4-15.7-17.7l-19.1-3.2  c-21-3.7-15.9-33.2,5.1-29.5l23.9,4.4c25.6,4.4,35.9,15.2,35.9,36.8v38.2C378.7,249.4,348.6,247.6,348.6,228.2z M161.6,337.4v29.2  c0,6.9,2.1,15.2,15.7,17.5l19.1,3.5c21,3.5,15.9,32.9-5.1,29.2l-23.9-4.1c-25.6-4.6-35.9-15.4-35.9-36.8v-38.4  C131.4,316.2,161.6,318,161.6,337.4z M378.7,374.9v48.6c0,16.8-10.6,24.4-28.1,21.4l-49.3-8.7c-17.5-3-13.6-32.5,6-29l30.4,5.3  c7.1,1.2,10.8-1.6,10.8-7.8v-30.9C348.6,355.6,378.7,355.6,378.7,374.9z"/>
</svg>