<?xml version="1.0" encoding="UTF-8"?>
<!--Generator: Apple Native CoreSVG 326-->
<!DOCTYPE svg
PUBLIC "-//W3C//DTD SVG 1.1//EN"
       "http://www.w3.org/Graphics/SVG/1.1/DTD/svg11.dtd">
<svg version="1.1" xmlns="http://www.w3.org/2000/svg" xmlns:xlink="http://www.w3.org/1999/xlink" viewBox="0 0 21.0059 28.0421">
 <g>
  <rect height="28.0421" opacity="0" width="21.0059" x="0" y="0"/>
  <path d="M2.36328 25.4517L16.5918 27.9615C19.1016 28.4009 20.6445 27.024 20.6445 24.3189L20.6445 8.70367C20.6445 6.29156 19.3945 5.3443 16.9238 4.91461L3.06641 2.4732C1.20117 2.13141 0 3.11773 0 4.91461L0 22.7173C0 24.2701 0.78125 25.1783 2.36328 25.4517ZM2.76367 23.7427C2.07031 23.6255 1.72852 23.2252 1.72852 22.483L1.72852 5.20758C1.72852 4.43609 2.24609 4.05523 3.08594 4.20172L16.8359 6.61383C18.2129 6.85797 18.916 7.45367 18.916 8.65484L18.916 24.1529C18.916 25.6763 18.0078 26.438 16.5527 26.1841ZM17.793 6.32086L19.5215 6.32086L19.5215 3.33258C19.5215 0.822813 17.832-0.378359 15 0.129454L1.81641 2.45367L2.44141 3.95758L15.5957 1.75055C16.9727 1.51617 17.793 2.08258 17.793 3.28375ZM3.4668 10.0416C3.4668 10.9595 4.89258 10.9693 4.89258 10.0904L4.89258 8.32281C4.89258 7.91266 5.13672 7.73688 5.60547 7.815L7.34375 8.1275C8.27148 8.28375 8.4668 6.88727 7.61719 6.73102L5.07812 6.29156C4.08203 6.11578 3.4668 6.52594 3.4668 7.48297ZM15.752 12.1705C15.752 13.0884 17.1777 13.1763 17.1777 12.1705L17.1777 10.1295C17.1777 8.93805 16.582 8.31305 15.1562 8.05914L13.8867 7.83453C12.8906 7.65875 12.6367 9.05523 13.6621 9.24078L14.707 9.41656C15.5469 9.57281 15.752 10.0318 15.752 10.5201ZM4.89258 18.3912C4.89258 17.4732 3.4668 17.3755 3.4668 18.3912L3.4668 20.4322C3.4668 21.6236 4.0625 22.2584 5.48828 22.5025L6.75781 22.7271C7.75391 22.8931 8.00781 21.4966 6.98242 21.3209L5.9375 21.1451C5.09766 20.9888 4.89258 20.5298 4.89258 20.0318ZM17.1777 20.5201C17.1777 19.6021 15.752 19.5923 15.752 20.4713L15.752 22.2291C15.752 22.649 15.5078 22.815 15.0391 22.7369L13.3008 22.4341C12.3828 22.2681 12.1777 23.6744 13.0273 23.8306L15.5664 24.2701C16.5625 24.4459 17.1777 24.0357 17.1777 23.0787Z" fill="black" fill-opacity="0.85"/>
 </g>
</svg>
