<?xml version="1.0" ?><!-- Generator: Adobe Illustrator 25.0.0, SVG Export Plug-In . SVG Version: 6.00 Build 0)  --><svg xmlns="http://www.w3.org/2000/svg" xmlns:xlink="http://www.w3.org/1999/xlink" version="1.1" id="Layer_1" x="0px" y="0px" viewBox="0 0 512 512" style="enable-background:new 0 0 512 512;" xml:space="preserve">
<path d="M256,512c140,0,256-116.2,256-256C512,116,395.8,0,255.7,0C116,0,0,116,0,256C0,395.8,116.2,512,256,512z M256,469.3  c-118.5,0-213.1-94.9-213.1-213.3S137.3,42.7,255.7,42.7S469.1,137.5,469.3,256S374.5,469.3,256,469.3z M112.2,305.4  c0,11,7,17.8,18.6,17.8h57.5v57.5c0,11.8,6.8,18.6,17.8,18.6c10.5,0,17.3-6.8,17.3-18.6v-57.5h64.8v57.5c0,11.8,6.5,18.6,17.6,18.6  c10.8,0,17.6-6.8,17.6-18.6v-57.5h57.5c11.5,0,18.6-6.8,18.6-17.8c0-10.5-7-17.3-18.6-17.3h-57.5v-64.3h57.5  c11.5,0,18.6-6.8,18.6-17.6c0-11-7-17.6-18.6-17.6h-57.5v-57.5c0-11.8-6.8-18.6-17.6-18.6c-11,0-17.6,6.8-17.6,18.6v57.5h-64.8  v-57.5c0-11.8-6.8-18.6-17.3-18.6c-11,0-17.8,6.8-17.8,18.6v57.5h-57.5c-11.5,0-18.6,6.5-18.6,17.6c0,10.8,7,17.6,18.6,17.6h57.5  v64.3h-57.5C119.2,288.1,112.2,294.9,112.2,305.4z M223.6,288.1v-64.3h64.8v64.3H223.6z"/>
</svg>