<?xml version="1.0" encoding="UTF-8"?>
<!--Generator: Apple Native CoreSVG 326-->
<!DOCTYPE svg
PUBLIC "-//W3C//DTD SVG 1.1//EN"
       "http://www.w3.org/Graphics/SVG/1.1/DTD/svg11.dtd">
<svg version="1.1" xmlns="http://www.w3.org/2000/svg" xmlns:xlink="http://www.w3.org/1999/xlink" viewBox="0 0 25.8008 25.459">
 <g>
  <rect height="25.459" opacity="0" width="25.8008" x="0" y="0"/>
  <path d="M25.4395 12.7246C25.4395 19.7266 19.7266 25.4395 12.7148 25.4395C5.71289 25.4395 0 19.7266 0 12.7246C0 5.71289 5.71289 0 12.7148 0C19.7266 0 25.4395 5.71289 25.4395 12.7246ZM14.4922 6.24023L14.4922 9.38477L10.9473 9.38477L10.9473 6.24023C10.9473 5.71289 10.6348 5.40039 10.1758 5.40039C9.66797 5.40039 9.375 5.71289 9.375 6.24023L9.375 9.38477L6.2207 9.38477C5.70312 9.38477 5.39062 9.67773 5.39062 10.1758C5.39062 10.6543 5.70312 10.957 6.2207 10.957L9.375 10.957L9.375 14.4824L6.2207 14.4824C5.70312 14.4824 5.39062 14.7949 5.39062 15.2539C5.39062 15.7617 5.70312 16.0547 6.2207 16.0547L9.375 16.0547L9.375 19.209C9.375 19.7363 9.66797 20.0391 10.1758 20.0391C10.6348 20.0391 10.9473 19.7363 10.9473 19.209L10.9473 16.0547L14.4922 16.0547L14.4922 19.209C14.4922 19.7363 14.7852 20.0391 15.2734 20.0391C15.752 20.0391 16.0645 19.7363 16.0645 19.209L16.0645 16.0547L19.209 16.0547C19.7266 16.0547 20.0488 15.7617 20.0488 15.2539C20.0488 14.7949 19.7266 14.4824 19.209 14.4824L16.0645 14.4824L16.0645 10.957L19.209 10.957C19.7266 10.957 20.0488 10.6543 20.0488 10.1758C20.0488 9.67773 19.7266 9.38477 19.209 9.38477L16.0645 9.38477L16.0645 6.24023C16.0645 5.71289 15.752 5.40039 15.2734 5.40039C14.7852 5.40039 14.4922 5.71289 14.4922 6.24023ZM14.4922 14.4824L10.9473 14.4824L10.9473 10.957L14.4922 10.957Z" fill="black" fill-opacity="0.85"/>
 </g>
</svg>
