<?xml version="1.0" encoding="UTF-8"?>
<!--Generator: Apple Native CoreSVG 326-->
<!DOCTYPE svg
PUBLIC "-//W3C//DTD SVG 1.1//EN"
       "http://www.w3.org/Graphics/SVG/1.1/DTD/svg11.dtd">
<svg version="1.1" xmlns="http://www.w3.org/2000/svg" xmlns:xlink="http://www.w3.org/1999/xlink" viewBox="0 0 27.9395 26.5527">
 <g>
  <rect height="26.5527" opacity="0" width="27.9395" x="0" y="0"/>
  <path d="M15.2637 0.419922L26.0547 6.65039C26.4453 6.875 26.6211 7.1582 26.6211 7.48047C26.6211 7.91992 26.2891 8.33984 25.6934 8.33984L24.5605 8.33984L24.5605 23.252L25.3613 23.252C25.791 23.252 26.0449 23.5059 26.0449 23.9258L26.0449 24.8047L26.709 24.8047C27.1875 24.8047 27.5781 25.1953 27.5781 25.6738C27.5781 26.1426 27.1875 26.5332 26.709 26.5332L0.869141 26.5332C0.390625 26.5332 0 26.1426 0 25.6738C0 25.1953 0.390625 24.8047 0.869141 24.8047L1.5332 24.8047L1.5332 23.9258C1.5332 23.5059 1.78711 23.252 2.22656 23.252L3.02734 23.252L3.02734 8.33984L1.88477 8.33984C1.28906 8.33984 0.957031 7.91992 0.957031 7.48047C0.957031 7.1582 1.12305 6.875 1.52344 6.65039L12.3145 0.419922C12.7832 0.146484 13.3008 0 13.7891 0C14.2773 0 14.7852 0.146484 15.2637 0.419922ZM13.4277 7.5293L13.4277 8.61328C10.498 8.82812 8.93555 11.2207 8.93555 14.2676C8.93555 17.3926 10.5566 19.7266 13.4277 19.9414L13.4277 21.0742C13.4277 21.2988 13.5938 21.4746 13.8379 21.4746C14.0625 21.4746 14.2285 21.2988 14.2285 21.0742L14.2285 19.9609C16.7773 19.8242 18.3301 18.1934 18.3301 15.4004L18.3301 14.8047C18.3301 14.3652 18.0566 14.0918 17.6465 14.0918L14.2285 14.0918L14.2285 9.78516C15.5078 9.90234 16.5625 10.7031 16.875 11.8262C17.002 12.1777 17.1484 12.3242 17.5293 12.3242C17.8906 12.3242 18.1152 12.0996 18.1152 11.7383C18.1152 11.582 18.0957 11.3867 18.0078 11.1719C17.4316 9.57031 15.8301 8.7207 14.2285 8.61328L14.2285 7.5293C14.2285 7.29492 14.0625 7.11914 13.8379 7.11914C13.5938 7.11914 13.4277 7.29492 13.4277 7.5293ZM17.0215 15.6934C17.0215 17.4121 16.0059 18.6523 14.2285 18.7695L14.2285 15.1855L17.0215 15.1855ZM13.4277 18.7598C11.3672 18.4961 10.332 16.5723 10.332 14.2578C10.332 12.0703 11.2793 10.0488 13.4277 9.80469Z" fill="black" fill-opacity="0.85"/>
 </g>
</svg>
