<?xml version="1.0" encoding="UTF-8"?>
<!--Generator: Apple Native CoreSVG 326-->
<!DOCTYPE svg
PUBLIC "-//W3C//DTD SVG 1.1//EN"
       "http://www.w3.org/Graphics/SVG/1.1/DTD/svg11.dtd">
<svg version="1.1" xmlns="http://www.w3.org/2000/svg" xmlns:xlink="http://www.w3.org/1999/xlink" viewBox="0 0 30.3809 25.0293">
 <g>
  <rect height="25.0293" opacity="0" width="30.3809" x="0" y="0"/>
  <path d="M30.0195 15.0098C30.0195 11.3281 28.6914 7.95898 26.4844 5.3418C26.2305 5.03906 25.8008 5.04883 25.5176 5.33203L22.6953 8.1543C22.4512 8.39844 22.4414 8.74023 22.6562 9.01367C23.9551 10.6738 24.7266 12.7441 24.7266 15.0098C24.7266 17.2754 23.9551 19.3555 22.5977 21.0742C22.4121 21.3086 22.4219 21.6016 22.627 21.8066L25.5176 24.707C25.8008 25 26.2207 24.9902 26.4844 24.6875C28.6914 22.0703 30.0195 18.6816 30.0195 15.0098Z" fill="black" fill-opacity="0.85"/>
  <path d="M15.0098 5.2832C17.2754 5.2832 19.3652 6.06445 21.0254 7.38281C21.2891 7.57812 21.6113 7.55859 21.8555 7.31445L24.6875 4.48242C24.9805 4.19922 24.9707 3.7793 24.668 3.51562C22.0605 1.32812 18.6816 0 15.0098 0C11.3379 0 7.95898 1.32812 5.35156 3.51562C5.04883 3.7793 5.03906 4.19922 5.32227 4.48242L8.16406 7.31445C8.39844 7.55859 8.75 7.56836 9.02344 7.35352C10.6738 6.06445 12.7539 5.2832 15.0098 5.2832Z" fill="black" fill-opacity="0.85"/>
  <path d="M0 15.0098C0 18.6816 1.32812 22.0703 3.53516 24.6875C3.78906 24.9902 4.21875 25 4.50195 24.707L7.39258 21.8066C7.58789 21.6016 7.60742 21.3086 7.42188 21.0742C6.06445 19.3555 5.2832 17.2754 5.2832 15.0098C5.2832 12.7441 6.05469 10.6738 7.36328 9.01367C7.56836 8.74023 7.56836 8.39844 7.32422 8.1543L4.49219 5.33203C4.20898 5.04883 3.78906 5.03906 3.52539 5.3418C1.31836 7.95898 0 11.3281 0 15.0098Z" fill="black" fill-opacity="0.85"/>
  <path d="M15.0879 20.6641C17.7734 20.6641 19.4043 19.043 19.4043 16.2109L19.4043 15.6348C19.4043 15.2051 19.1406 14.9414 18.75 14.9414L15.3125 14.9414L15.3125 15.9961L18.1445 15.9961L18.1445 16.4941C18.1445 18.2812 17.041 19.5215 15.0977 19.5215C12.7637 19.5215 11.6113 17.5293 11.6113 15.0977C11.6113 12.8125 12.666 10.7129 15.0781 10.7129C16.4551 10.7129 17.666 11.5234 17.998 12.7344C18.125 13.0664 18.2715 13.2129 18.6328 13.2129C18.9746 13.2129 19.209 12.9883 19.209 12.6465C19.209 12.4902 19.1895 12.2949 19.1016 12.0898C18.4961 10.4199 16.7383 9.58008 15.0781 9.58008C11.9336 9.58008 10.2539 11.9824 10.2539 15.1074C10.2539 18.3203 12.0117 20.6641 15.0879 20.6641ZM15.0293 22.1387C15.2539 22.1387 15.4102 21.9727 15.4102 21.748L15.4102 8.53516C15.4102 8.30078 15.2539 8.13477 15.0293 8.13477C14.7949 8.13477 14.6387 8.30078 14.6387 8.53516L14.6387 21.748C14.6387 21.9727 14.7949 22.1387 15.0293 22.1387Z" fill="black" fill-opacity="0.85"/>
 </g>
</svg>
