<?xml version="1.0" encoding="UTF-8"?>
<!--Generator: Apple Native CoreSVG 326-->
<!DOCTYPE svg
PUBLIC "-//W3C//DTD SVG 1.1//EN"
       "http://www.w3.org/Graphics/SVG/1.1/DTD/svg11.dtd">
<svg version="1.1" xmlns="http://www.w3.org/2000/svg" xmlns:xlink="http://www.w3.org/1999/xlink" viewBox="0 0 28.291 27.9395">
 <g>
  <rect height="27.9395" opacity="0" width="28.291" x="0" y="0"/>
  <path d="M13.9648 27.9297C21.6406 27.9297 27.9297 21.6504 27.9297 13.9648C27.9297 6.2793 21.6406 0 13.9648 0C6.28906 0 0 6.2793 0 13.9648C0 21.6504 6.28906 27.9297 13.9648 27.9297ZM13.9648 23.3398C8.7793 23.3398 4.58008 19.1504 4.58008 13.9648C4.58008 8.7793 8.7793 4.58008 13.9648 4.58008C19.1504 4.58008 23.3496 8.7793 23.3496 13.9648C23.3496 19.1504 19.1504 23.3398 13.9648 23.3398Z" fill="black" fill-opacity="0.85"/>
  <path d="M14.0527 19.4531C16.7383 19.4531 18.3789 17.8418 18.3789 15L18.3789 14.4238C18.3789 14.0039 18.1152 13.7402 17.7148 13.7402L14.2871 13.7402L14.2871 14.7949L17.1094 14.7949L17.1094 15.2832C17.1094 17.0801 16.0059 18.3203 14.0625 18.3203C11.7383 18.3203 10.5762 16.3184 10.5762 13.8867C10.5762 11.6016 11.6406 9.51172 14.043 9.51172C15.4199 9.51172 16.6406 10.3125 16.9727 11.5234C17.0898 11.8555 17.2363 12.002 17.5977 12.002C17.9492 12.002 18.1738 11.7773 18.1738 11.4355C18.1738 11.2793 18.1543 11.084 18.0664 10.8789C17.4609 9.20898 15.7129 8.36914 14.043 8.36914C10.8984 8.36914 9.22852 10.7812 9.22852 13.8965C9.22852 17.1094 10.9766 19.4531 14.0527 19.4531ZM13.9941 20.9277C14.2188 20.9277 14.3848 20.7617 14.3848 20.5469L14.3848 7.32422C14.3848 7.08984 14.2188 6.93359 13.9941 6.93359C13.7598 6.93359 13.6035 7.08984 13.6035 7.32422L13.6035 20.5469C13.6035 20.7617 13.7598 20.9277 13.9941 20.9277Z" fill="black" fill-opacity="0.85"/>
 </g>
</svg>
