<?xml version="1.0" encoding="UTF-8"?>
<!--Generator: Apple Native CoreSVG 326-->
<!DOCTYPE svg
PUBLIC "-//W3C//DTD SVG 1.1//EN"
       "http://www.w3.org/Graphics/SVG/1.1/DTD/svg11.dtd">
<svg version="1.1" xmlns="http://www.w3.org/2000/svg" xmlns:xlink="http://www.w3.org/1999/xlink" viewBox="0 0 25.8008 25.459">
 <g>
  <rect height="25.459" opacity="0" width="25.8008" x="0" y="0"/>
  <path d="M25.4395 12.7246C25.4395 19.7266 19.7266 25.4395 12.7148 25.4395C5.71289 25.4395 0 19.7266 0 12.7246C0 5.71289 5.71289 0 12.7148 0C19.7266 0 25.4395 5.71289 25.4395 12.7246ZM12.3438 5.91797L12.3438 7.01172C9.42383 7.22656 7.86133 9.60938 7.86133 12.6562C7.86133 15.791 9.48242 18.1152 12.3438 18.3398L12.3438 19.4727C12.3438 19.6973 12.5098 19.8633 12.7539 19.8633C12.9785 19.8633 13.1543 19.6973 13.1543 19.4727L13.1543 18.3496C15.7031 18.2129 17.2461 16.582 17.2461 13.7891L17.2461 13.1934C17.2461 12.7637 16.9727 12.4902 16.5723 12.4902L13.1543 12.4902L13.1543 8.18359C14.4238 8.30078 15.4883 9.0918 15.791 10.2246C15.918 10.5664 16.0742 10.7129 16.4551 10.7129C16.8066 10.7129 17.041 10.4883 17.041 10.1367C17.041 9.9707 17.0215 9.77539 16.9336 9.56055C16.3477 7.95898 14.7461 7.11914 13.1543 7.00195L13.1543 5.91797C13.1543 5.68359 12.9785 5.51758 12.7539 5.51758C12.5098 5.51758 12.3438 5.68359 12.3438 5.91797ZM15.9473 14.082C15.9473 15.8105 14.9316 17.0508 13.1543 17.168L13.1543 13.584L15.9473 13.584ZM12.3438 17.1484C10.2832 16.8945 9.24805 14.9707 9.24805 12.6465C9.24805 10.4688 10.2051 8.44727 12.3438 8.19336Z" fill="black" fill-opacity="0.85"/>
 </g>
</svg>
