<?xml version="1.0" ?><!-- Generator: Adobe Illustrator 25.0.0, SVG Export Plug-In . SVG Version: 6.00 Build 0)  --><svg xmlns="http://www.w3.org/2000/svg" xmlns:xlink="http://www.w3.org/1999/xlink" version="1.1" id="Layer_1" x="0px" y="0px" viewBox="0 0 512 512" style="enable-background:new 0 0 512 512;" xml:space="preserve">
<path d="M87.3,512h337.3c58.4,0,87.3-28.9,87.3-86.2V86.2C512,28.9,483.1,0,424.7,0H87.3C29.2,0,0,28.6,0,86.2v339.6  C0,483.4,29.2,512,87.3,512z M260.3,427.2c-8.1,0-14.2-5.8-14.2-14.5v-19.5c-61.5-7.2-100.4-58.4-100.4-137.4  c0-77.3,39.5-128.8,100.4-136.3v-19.2c0-8.6,6.1-14.2,14.2-14.2c8.1,0,14.2,5.6,14.2,14.2V119c40.6,4.2,72.9,28.4,85.4,62.6  c1.4,4.7,2.5,9.2,2.5,14.2c0,10.3-7,17.5-17.5,17.5c-10.3,0-15-3.9-18.9-15.3c-6.1-22.5-26.1-39.5-51.5-43.7v93.4h72.9  c11.7,0,19.2,7.2,19.2,19.5v14.5c0,65.1-32.5,107.1-92.1,111.8v19.2C274.5,421.3,268.4,427.2,260.3,427.2z M246.1,357.6V154.9  c-37.8,8.1-61.7,45.9-61.7,101C184.4,311.8,208,349.6,246.1,357.6z M274.5,358.8c34.5-5.3,54.8-32,54.8-70.6v-6.4h-54.8V358.8z"/>
</svg>