<?xml version="1.0" ?><!-- Generator: Adobe Illustrator 25.0.0, SVG Export Plug-In . SVG Version: 6.00 Build 0)  --><svg xmlns="http://www.w3.org/2000/svg" xmlns:xlink="http://www.w3.org/1999/xlink" version="1.1" id="Layer_1" x="0px" y="0px" viewBox="0 0 512 512" style="enable-background:new 0 0 512 512;" xml:space="preserve">
<path d="M256,512c140,0,256-116.2,256-256C512,116,395.8,0,255.7,0C116,0,0,116,0,256C0,395.8,116.2,512,256,512z M259.5,410.9  c-7.3,0-12.8-5.3-12.8-13.1v-17.6c-55.5-6.5-90.6-52.7-90.6-124c0-69.8,35.6-116.2,90.6-123V116c0-7.8,5.3-12.8,12.8-12.8  c7.3,0,12.8,5,12.8,12.8v16.8c36.6,3.8,65.8,25.6,77.1,56.5c1.3,4.3,2.3,8.3,2.3,12.8c0,9.3-6.3,15.8-15.8,15.8  c-9.3,0-13.6-3.5-17.1-13.8c-5.5-20.3-23.6-35.6-46.4-39.4V249h65.8c10.5,0,17.3,6.5,17.3,17.6v13.1c0,58.7-29.4,96.6-83.1,100.9  v17.3C272.3,405.6,266.8,410.9,259.5,410.9z M246.7,348.1v-183c-34.4,7.3-55.7,41.4-55.7,91.1C191,306.7,212.3,340.8,246.7,348.1z   M272.3,349.1c31.1-4.8,49.4-28.9,49.4-63.7v-5.8h-49.4V349.1z"/>
</svg>