<?xml version="1.0" encoding="UTF-8"?>
<!--Generator: Apple Native CoreSVG 326-->
<!DOCTYPE svg
PUBLIC "-//W3C//DTD SVG 1.1//EN"
       "http://www.w3.org/Graphics/SVG/1.1/DTD/svg11.dtd">
<svg version="1.1" xmlns="http://www.w3.org/2000/svg" xmlns:xlink="http://www.w3.org/1999/xlink" viewBox="0 0 23.3203 22.959">
 <g>
  <rect height="22.959" opacity="0" width="23.3203" x="0" y="0"/>
  <path d="M22.959 3.76953L22.959 19.1992C22.959 21.6797 21.6797 22.959 19.1504 22.959L3.79883 22.959C1.2793 22.959 0 21.6992 0 19.1992L0 3.76953C0 1.26953 1.2793 0 3.79883 0L19.1504 0C21.6797 0 22.959 1.2793 22.959 3.76953ZM11.1133 4.66797L11.1133 5.76172C8.18359 5.97656 6.63086 8.35938 6.63086 11.4062C6.63086 14.541 8.24219 16.8652 11.1133 17.0898L11.1133 18.2227C11.1133 18.4473 11.2793 18.6133 11.5234 18.6133C11.748 18.6133 11.9238 18.4473 11.9238 18.2227L11.9238 17.0996C14.4727 16.9629 16.0156 15.332 16.0156 12.5391L16.0156 11.9434C16.0156 11.5137 15.7422 11.2402 15.3418 11.2402L11.9238 11.2402L11.9238 6.93359C13.1934 7.05078 14.2578 7.8418 14.5605 8.97461C14.6875 9.31641 14.8438 9.46289 15.2246 9.46289C15.5762 9.46289 15.8105 9.23828 15.8105 8.88672C15.8105 8.7207 15.7812 8.52539 15.6934 8.31055C15.1172 6.70898 13.5156 5.86914 11.9238 5.75195L11.9238 4.66797C11.9238 4.43359 11.748 4.26758 11.5234 4.26758C11.2793 4.26758 11.1133 4.43359 11.1133 4.66797ZM14.7168 12.832C14.7168 14.5605 13.7012 15.8008 11.9238 15.918L11.9238 12.334L14.7168 12.334ZM11.1133 15.8984C9.05273 15.6445 8.01758 13.7207 8.01758 11.3965C8.01758 9.21875 8.97461 7.19727 11.1133 6.94336Z" fill="black" fill-opacity="0.85"/>
 </g>
</svg>
