<?xml version="1.0" ?><!-- Generator: Adobe Illustrator 25.0.0, SVG Export Plug-In . SVG Version: 6.00 Build 0)  --><svg xmlns="http://www.w3.org/2000/svg" xmlns:xlink="http://www.w3.org/1999/xlink" version="1.1" id="Layer_1" x="0px" y="0px" viewBox="0 0 512 512" style="enable-background:new 0 0 512 512;" xml:space="preserve">
<path d="M256,512c140,0,256-116.2,256-256C512,116,395.8,0,255.7,0C116,0,0,116,0,256C0,395.8,116.2,512,256,512z M256,469.3  c-118.5,0-213.1-94.9-213.1-213.3S137.3,42.7,255.7,42.7S469.1,137.5,469.3,256S374.5,469.3,256,469.3z M259.5,406.3  c7,0,12.3-5,12.3-12.5V377c52-4.5,80.3-40.9,80.3-98.1v-12.5c0-10.5-6.5-17.1-16.6-17.1h-63.7v-81.6c22.1,3.5,39.7,18.6,45.2,38.4  c3.3,9.5,7.5,13.1,16.3,13.1c9.3,0,15.3-6,15.3-15.3c0-4.3-1-8.3-2.3-12.3c-10.8-29.9-39.2-51.2-74.5-54.7v-16.3  c0-7.5-5.3-12.5-12.3-12.5c-7.3,0-12.5,5-12.5,12.5V137c-53.2,6.8-87.6,52-87.6,119.5c0,68.8,33.9,113.7,87.6,120.2v17.1  C247,401.3,252.5,406.3,259.5,406.3z M247,345.6c-33.4-7-54-40.4-54-89.1c0-48.2,20.6-81.3,54-88.3V345.6z M271.8,346.4v-67.3h47.9  v5.3C319.7,318.2,301.9,342.1,271.8,346.4z"/>
</svg>