<?xml version="1.0" ?><!-- Generator: Adobe Illustrator 25.0.0, SVG Export Plug-In . SVG Version: 6.00 Build 0)  --><svg xmlns="http://www.w3.org/2000/svg" xmlns:xlink="http://www.w3.org/1999/xlink" version="1.1" id="Layer_1" x="0px" y="0px" viewBox="0 0 512 512" style="enable-background:new 0 0 512 512;" xml:space="preserve">
<path d="M3,430.9c-7.4,16.8-1.2,36.7,20.6,36.7c7.8,0,14.4-3,24.5-11.4l54.7-45.7c2.2-1.8,3.4-2.4,4.4-2.4c1,0,2.2,0.6,4.4,2.4  l54.7,45.7c10.2,8.4,16.8,11.4,24.5,11.4c21.7,0,27.9-20,20.6-36.7l-88-198.9v-92.6c0-45.5,7.6-79.4,7.6-85.8c0-6-3.6-9.8-9.4-9.8  c-3.8,0-7.2,2.2-12.2,7.6l-43.9,50.5c-4,4.6-3,10.2,2.2,13c17.6,7.6,23.7,10.4,23.7,24.5v92L3,430.9z M246.4,290  c9.6,0,16-5.4,19.8-12.8c4,7.4,10.2,12.8,20,12.8c19.6,0,24.3-24.1,33.1-24.1c1.6,0,3,1.4,3,3.2c0,16-13.8,27.9-13.8,48.5  c0,21.9,24.5,33.9,24.5,70.6c0,35.7-25.1,57.1-66.8,57.1c-16.2,0-30.1-3.2-42.7-9.4c2,9.4,1.8,16.4-1.6,23.7  c14.2,5.6,28.9,8.6,44.3,8.6c53.9,0,89.6-31.9,89.6-80c0-39.7-24.7-58.1-24.7-70.8c0-15.4,13.6-27.9,13.6-48.1  c0-14.8-9.8-25.3-23.5-25.3c-12.6,0-20,7.6-25.1,15c-4,5.6-6.8,9.4-9.2,9.4c-3.6,0-4.8-6.2-4.8-15.8l0.2-122.3c0-5.8,0-6.2,3-7.2  c4.8-1.4,6.2-4,6.8-10.2l4.2-40.7c0.2-3.8-1.4-7.4-4.4-10.2l-17.2-15c-2.2-2-5.2-3.2-8.4-3.2c-3.2,0-6.2,1.2-8.6,3.2l-17,15  c-3,2.6-4.6,6.6-4.4,10.2l4,40.7c0.6,6,2.4,8.8,7,10.2c2.6,0.6,3,1.6,3,7.2l0.4,122.3c0,8.8-1.4,15.8-4.8,15.8  c-2.6,0-5.2-4.4-9.4-9.4c-5.2-7.4-12.6-15-24.9-15c-14,0-23.7,10.4-23.7,25.3c0,20.2,13.6,32.7,13.6,48.1c0,7.4-8.2,16.6-15.2,30.9  l14.2,31.5c2.8-30.5,23.5-42.1,23.5-62.3c0-20.6-13.6-32.5-13.6-48.5c0-2,1.2-3.2,2.6-3.2C221.9,265.9,226.7,290,246.4,290z   M422.6,467c54.7,0,89.4-25.9,89.4-67c0-41.1-26.9-51.3-26.9-68.6c0-13.4,6-25.5,6-42.1c0-27.3-19.2-44.7-52.7-48.7V122.8  c0-8,1-10.2,5.6-13.4c4.2-2.6,5.6-5,5.4-8.8l-3-49.3c-0.2-4.4-3.4-7.6-7.6-7.6H406c-3.8,0-7,3.2-7.4,7.6l-3,49.3  c-0.2,3.8,1.4,6.2,5.4,8.8c4.6,3.4,5.6,5.6,5.6,13.4v117.7c-33.3,4-52.7,21.4-52.7,48.7c0,16.6,6,28.7,6,42.1  c0,2.8-0.8,6.4-3.8,12.2c4,8.6,6.4,16.6,8.2,24.7c8.6-10.8,18.4-22.9,18.4-37.3c0-14-6.2-28.7-6.2-41.7c0-20.8,18.4-27.7,46.1-27.7  c27.1,0,45.9,6.6,45.9,27.7c0,13-6.2,27.7-6.2,41.7c0,24.3,26.9,36.9,26.9,69c0,27.7-24.7,44.5-66.6,44.5  c-29.5,0-51.1-8.2-61.9-23.7c-3.2,8.8-6.6,15-11.2,21.4C365.7,458.4,391.3,467,422.6,467z M23.5,438.9l82.8-189h1.6l82.8,189  c2.2,5-2,7.6-5.6,4.4L123.7,392c-6.4-5.2-11.8-7.8-16.6-7.8c-4.8,0-10,2.6-16.6,7.8l-61.5,51.3C25.5,446.5,21.5,443.9,23.5,438.9z   M422.6,347.1c11.8,0,21.6-9.8,21.6-21.6c0-12-9.8-21.8-21.6-21.8c-12,0-21.9,9.8-21.9,21.8C400.7,337.3,410.4,347.1,422.6,347.1z   M226.7,384.8c4.2,1.6,8.8-0.6,10.4-4.8l16.6-45.5c1.4-4.2-0.8-9-4.8-10.4c-4.2-1.6-9,0.6-10.6,4.8l-16.6,45.7  C220.3,378.6,222.5,383.4,226.7,384.8z M305.7,384.8c4.2-1.4,6.4-6.2,4.8-10.2l-16.6-45.7c-1.6-4.2-6.2-6.4-10.4-4.8  c-4,1.4-6.2,6.2-4.8,10.4l16.6,45.5C296.9,384.2,301.5,386.4,305.7,384.8z M128.1,347.7c5.2,0,9.6-4.2,9.6-9.4c0-5.4-4.2-10-9.6-10  c-5.2,0-9.6,4.8-9.6,10C118.5,343.3,122.9,347.7,128.1,347.7z M138.7,372.8c5.2,0,9.8-4.4,9.8-9.6c0-5.4-4.6-9.8-9.8-9.8  c-5.2,0-9.8,4.6-9.8,9.8C128.9,368.4,133.5,372.8,138.7,372.8z M148.8,397.8c5.4,0,10-4.6,10-9.6c0-5.2-4.4-9.8-10-9.8  c-4.8,0-9.2,4.6-9.2,9.8C139.7,393.4,143.6,397.8,148.8,397.8z M397.1,403.6h50.7c4.8,0,8.6-3.8,8.6-8.6c0-5-3.8-9-8.6-9h-50.7  c-4.8,0-8.8,4.2-8.8,9C388.3,399.8,392.1,403.6,397.1,403.6z"/>
</svg>