<?xml version="1.0" encoding="UTF-8"?>
<!--Generator: Apple Native CoreSVG 326-->
<!DOCTYPE svg
PUBLIC "-//W3C//DTD SVG 1.1//EN"
       "http://www.w3.org/Graphics/SVG/1.1/DTD/svg11.dtd">
<svg version="1.1" xmlns="http://www.w3.org/2000/svg" xmlns:xlink="http://www.w3.org/1999/xlink" viewBox="0 0 25.8008 25.459">
 <g>
  <rect height="25.459" opacity="0" width="25.8008" x="0" y="0"/>
  <path d="M4.74609 20.7129C6.81641 22.793 11.5137 20.957 16.2402 16.25C20.957 11.5234 22.7832 6.82617 20.7031 4.75586C18.5938 2.64648 13.9355 4.48242 9.19922 9.20898C4.47266 13.9453 2.63672 18.6035 4.74609 20.7129ZM5.9082 19.541C4.52148 18.1543 6.35742 14.3945 10.3613 10.3809C14.3945 6.34766 18.1543 4.53125 19.5312 5.91797C20.918 7.29492 19.0918 11.0449 15.0586 15.0879C11.0547 19.0918 7.29492 20.9277 5.9082 19.541ZM20.6836 20.7129C22.793 18.6035 20.9668 13.9453 16.2402 9.20898C11.5137 4.48242 6.83594 2.64648 4.72656 4.75586C2.65625 6.82617 4.48242 11.5234 9.20898 16.2402C13.9355 20.9668 18.6133 22.7832 20.6836 20.7129ZM19.5215 19.541C18.1445 20.9277 14.3848 19.0918 10.3613 15.0684C6.33789 11.0449 4.52148 7.29492 5.89844 5.91797C7.28516 4.53125 11.0449 6.34766 15.0586 10.3809C19.082 14.3945 20.918 18.1543 19.5215 19.541ZM21.6895 4.95117L24.8633 1.77734C25.1855 1.45508 25.1855 0.917969 24.8633 0.595703C24.5215 0.263672 23.9941 0.273438 23.6719 0.595703L20.4492 3.81836ZM3.82812 20.4492L0.585938 23.6914C0.263672 24.0234 0.253906 24.541 0.585938 24.873C0.908203 25.1953 1.43555 25.2051 1.76758 24.8828L5.13672 21.5039ZM12.7148 25.4395C19.7363 25.4395 25.4395 19.7461 25.4395 12.7246C25.4395 5.70312 19.7363 0 12.7148 0C5.69336 0 0 5.70312 0 12.7246C0 19.7461 5.69336 25.4395 12.7148 25.4395ZM12.7148 23.623C6.68945 23.623 1.81641 18.75 1.81641 12.7246C1.81641 6.69922 6.68945 1.82617 12.7148 1.82617C18.7402 1.82617 23.6133 6.69922 23.6133 12.7246C23.6133 18.75 18.7402 23.623 12.7148 23.623Z" fill="black" fill-opacity="0.85"/>
 </g>
</svg>
