<?xml version="1.0" encoding="UTF-8"?>
<!--Generator: Apple Native CoreSVG 326-->
<!DOCTYPE svg
PUBLIC "-//W3C//DTD SVG 1.1//EN"
       "http://www.w3.org/Graphics/SVG/1.1/DTD/svg11.dtd">
<svg version="1.1" xmlns="http://www.w3.org/2000/svg" xmlns:xlink="http://www.w3.org/1999/xlink" viewBox="0 0 26.7285 25.9082">
 <g>
  <rect height="25.9082" opacity="0" width="26.7285" x="0" y="0"/>
  <path d="M26.3672 9.41406L26.3672 22.1387C26.3672 24.6387 25.0977 25.9082 22.5684 25.9082L9.91211 25.9082C7.39258 25.9082 6.11328 24.6289 6.11328 22.1387L6.11328 20.293L7.8418 20.293L7.8418 22.0508C7.8418 23.457 8.61328 24.1797 9.95117 24.1797L22.5391 24.1797C23.8965 24.1797 24.6387 23.457 24.6387 22.0508L24.6387 9.50195C24.6387 8.0957 23.8965 7.37305 22.5391 7.37305L20.2637 7.37305L20.2637 5.64453L22.5684 5.64453C25.0977 5.64453 26.3672 6.91406 26.3672 9.41406Z" fill="black" fill-opacity="0.85"/>
  <path d="M16.4551 0.0292969L3.79883 0.0292969C1.2793 0.0292969 0 1.30859 0 3.78906L0 16.5234C0 19.0137 1.2793 20.293 3.79883 20.293L16.4551 20.293C18.9844 20.293 20.2637 19.0234 20.2637 16.5234L20.2637 3.78906C20.2637 1.29883 18.9844 0.0292969 16.4551 0.0292969ZM16.4258 1.75781C17.7832 1.75781 18.5254 2.48047 18.5254 3.88672L18.5254 16.4355C18.5254 17.8418 17.7832 18.5645 16.4258 18.5645L3.83789 18.5645C2.5 18.5645 1.72852 17.8418 1.72852 16.4355L1.72852 3.88672C1.72852 2.48047 2.5 1.75781 3.83789 1.75781Z" fill="black" fill-opacity="0.85"/>
  <path d="M6.19141 15.9082C6.74805 15.9082 7.07031 15.5566 7.07031 14.9512L7.07031 10.5664L13.1934 10.5664L13.1934 14.9512C13.1934 15.5469 13.5156 15.9082 14.043 15.9082C14.5996 15.9082 14.9121 15.5566 14.9121 14.9512L14.9121 5.19531C14.9121 4.58984 14.5996 4.23828 14.043 4.23828C13.5156 4.23828 13.1934 4.59961 13.1934 5.19531L13.1934 9.19922L7.07031 9.19922L7.07031 5.19531C7.07031 4.58984 6.74805 4.23828 6.19141 4.23828C5.66406 4.23828 5.3418 4.59961 5.3418 5.19531L5.3418 14.9512C5.3418 15.5469 5.66406 15.9082 6.19141 15.9082Z" fill="black" fill-opacity="0.85"/>
 </g>
</svg>
