<?xml version="1.0" ?><!-- Generator: Adobe Illustrator 25.0.0, SVG Export Plug-In . SVG Version: 6.00 Build 0)  --><svg xmlns="http://www.w3.org/2000/svg" xmlns:xlink="http://www.w3.org/1999/xlink" version="1.1" id="Layer_1" x="0px" y="0px" viewBox="0 0 512 512" style="enable-background:new 0 0 512 512;" xml:space="preserve">
<path d="M318.9,2.7H76c-25.3,0-44.3,6.3-57,18.8C6.3,33.9,0,52.7,0,77.7v244.6c0,25,6.3,43.8,19,56.3c12.7,12.5,31.7,18.8,57,18.8  h242.9c25.3,0,44.3-6.3,56.9-18.8c12.6-12.5,18.9-31.3,18.9-56.3V77.7c0-25-6.3-43.8-18.9-56.3C363.2,8.9,344.2,2.7,318.9,2.7z   M512,189.5c0-24.8-6.3-43.5-18.9-56c-12.6-12.5-31.5-18.8-56.9-18.8h-8.5v207.6c0,22.9-4.3,42.4-12.9,58.4  c-8.6,16.1-21.1,28.4-37.3,36.9c-16.2,8.5-35.8,12.8-58.7,12.8H117.4v3.9c0,25,6.3,43.8,19,56.3c12.7,12.5,31.7,18.8,57,18.8h242.9  c25.3,0,44.3-6.3,56.9-18.8c12.6-12.5,18.9-31.3,18.9-56.3V189.5z" class="hierarchical-0:tertiary SFSymbolsPreview8E8E8E" style="fill: #8E8E8E;"/>
<path d="M118.8,314.6c-6.3,0-11.2-2-14.6-5.9c-3.5-4-5.2-9.5-5.2-16.6V103.6c0-7.1,1.7-12.6,5.2-16.6c3.5-4,8.3-5.9,14.6-5.9  c6.5,0,11.5,2,15,5.9c3.5,4,5.3,9.5,5.3,16.6v75h116.6v-75c0-7.1,1.7-12.6,5.2-16.6s8.3-5.9,14.4-5.9c6.6,0,11.7,2,15.1,5.9  c3.5,4,5.2,9.5,5.2,16.6v188.5c0,7.3-1.7,12.8-5.2,16.7c-3.5,3.9-8.5,5.8-15.1,5.8c-6.1,0-10.9-2-14.4-5.9c-3.5-4-5.2-9.5-5.2-16.6  v-82H139.1v82c0,7.3-1.8,12.8-5.3,16.7C130.3,312.6,125.3,314.6,118.8,314.6z" class="hierarchical-1:primary SFSymbolsPreview212121" style="fill: #212121;"/>
</svg>