<?xml version="1.0" encoding="UTF-8"?>
<!--Generator: Apple Native CoreSVG 326-->
<!DOCTYPE svg
PUBLIC "-//W3C//DTD SVG 1.1//EN"
       "http://www.w3.org/Graphics/SVG/1.1/DTD/svg11.dtd">
<svg version="1.1" xmlns="http://www.w3.org/2000/svg" xmlns:xlink="http://www.w3.org/1999/xlink" viewBox="0 0 29.8438 28.9551">
 <g>
  <rect height="28.9551" opacity="0" width="29.8438" x="0" y="0"/>
  <path d="M27.9297 10.9375L27.9297 23.6621C27.9297 26.1621 26.6504 27.4316 24.1211 27.4316L11.4746 27.4316C8.95508 27.4316 7.66602 26.1523 7.66602 23.6621L7.66602 23.3691L18.0176 23.3691C21.3965 23.3691 23.3691 21.416 23.3691 18.0469L23.3691 7.16797L24.1211 7.16797C26.6504 7.16797 27.9297 8.4375 27.9297 10.9375Z" fill="black" fill-opacity="0.85"/>
  <path d="M21.8164 5.3125L21.8164 18.0469C21.8164 20.5469 20.5371 21.8164 18.0176 21.8164L5.36133 21.8164C2.8418 21.8164 1.55273 20.5371 1.55273 18.0469L1.55273 5.3125C1.55273 2.83203 2.8418 1.55273 5.36133 1.55273L18.0176 1.55273C20.5371 1.55273 21.8164 2.82227 21.8164 5.3125ZM14.8145 6.60156L14.8145 10.6934L8.55469 10.6934L8.55469 6.60156C8.55469 5.97656 8.22266 5.61523 7.64648 5.61523C7.09961 5.61523 6.76758 5.98633 6.76758 6.60156L6.76758 16.582C6.76758 17.207 7.09961 17.5781 7.64648 17.5781C8.22266 17.5781 8.55469 17.2168 8.55469 16.582L8.55469 12.1094L14.8145 12.1094L14.8145 16.582C14.8145 17.207 15.1465 17.5781 15.6934 17.5781C16.2695 17.5781 16.5918 17.2168 16.5918 16.582L16.5918 6.60156C16.5918 5.97656 16.2695 5.61523 15.6934 5.61523C15.1465 5.61523 14.8145 5.98633 14.8145 6.60156Z" fill="black" fill-opacity="0.85"/>
 </g>
</svg>
