<?xml version="1.0" ?><!-- Generator: Adobe Illustrator 25.0.0, SVG Export Plug-In . SVG Version: 6.00 Build 0)  --><svg xmlns="http://www.w3.org/2000/svg" xmlns:xlink="http://www.w3.org/1999/xlink" version="1.1" id="Layer_1" x="0px" y="0px" viewBox="0 0 512 512" style="enable-background:new 0 0 512 512;" xml:space="preserve">
<path d="M256,512c35,0,67.9-6.7,98.8-20.1c30.9-13.4,58.1-31.9,81.7-55.5c23.6-23.6,42.1-50.8,55.5-81.7  C505.3,323.9,512,291,512,256s-6.7-67.9-20.1-98.8c-13.4-30.9-31.9-58.1-55.5-81.7c-23.6-23.6-50.9-42.1-81.8-55.5  C323.7,6.7,290.7,0,255.7,0S187.9,6.7,157,20.1C126.1,33.5,98.9,52,75.4,75.5c-23.5,23.6-42,50.8-55.3,81.7C6.7,188.1,0,221,0,256  s6.7,67.9,20.1,98.8c13.4,30.9,31.9,58.1,55.5,81.7s50.8,42.1,81.7,55.5C188.1,505.3,221,512,256,512z" class="multicolor-0:tintColor hierarchical-0:tertiary SFSymbolsPreview007AFF" style="fill: #007AFF;"/>
<path d="M372.7,279.1l-9.5-9.3c-2.5-2.3-4.1-4.6-4.8-6.7c-0.7-2.1-0.8-4.6-0.5-7.4l1.5-15.3l-9.8-10l-21.1,4.3  c-8.5,1.5-15.2-0.3-20.1-5.3l-29.4-29.1c-7.4-7.4-9-16.3-5-26.9l10-26.9c-9.5-5.7-20-8.5-31.2-8.4c-11.3,0.1-23.4,2-36.3,5.9  c-2.2,1-4.4,1.2-6.7,0.5c-2.3-0.7-4.3-1.8-6.1-3.3c-1.8-2.2-2.8-4.9-3-8.2c-0.2-3.3,1.3-6.6,4.5-9.9c12.5-12.5,27.6-20.6,45.2-24.1  c17.6-3.5,35.1-2.9,52.6,1.8c17.5,4.7,32.3,13.1,44.5,25.3l26.4,26.4c9.7,9.4,13.4,18.8,11,28.4l-4.5,18.6l10,9.5l15.3-1.5  c3-0.3,5.4-0.2,7.3,0.5c1.8,0.7,4.1,2.3,6.8,5l9.8,9.5c2.7,2.8,4.1,5.8,4.3,8.9c0.2,3.1-1.1,5.9-3.8,8.4l-39.7,39.4  c-2.8,2.7-5.8,3.9-8.9,3.8C378.5,282.9,375.5,281.6,372.7,279.1z M137.5,392.8l-21.8-21.8c-6-6-8.8-12.2-8.3-18.6  c0.5-6.4,4.2-12.6,11-18.8L258,211.8l39.7,39.2L174.9,390.5c-5.9,6.9-12,10.5-18.6,10.8C149.8,401.7,143.6,398.8,137.5,392.8z" class="multicolor-1:white hierarchical-1:primary SFSymbolsPreviewFFFFFF" style="fill: #FFFFFF;"/>
</svg>