<?xml version="1.0" encoding="UTF-8"?>
<!--Generator: Apple Native CoreSVG 326-->
<!DOCTYPE svg
PUBLIC "-//W3C//DTD SVG 1.1//EN"
       "http://www.w3.org/Graphics/SVG/1.1/DTD/svg11.dtd">
<svg version="1.1" xmlns="http://www.w3.org/2000/svg" xmlns:xlink="http://www.w3.org/1999/xlink" viewBox="0 0 29.1357 29.021">
 <g>
  <rect height="29.021" opacity="0" width="29.1357" x="0" y="0"/>
  <path d="M8.10791 13.5518L8.10791 14.3982C8.27093 14.285 8.44234 14.1739 8.62355 14.067L19.914 25.3476C18.4199 26.736 16.4887 27.406 14.0356 27.406C9.1626 27.406 5.52979 24.2419 5.52979 18.656L5.52979 10.9759ZM15.7349 2.05445L15.7349 12.865C16.1548 12.9431 16.5454 13.0603 16.897 13.197L16.897 3.99781C16.897 3.29468 17.4829 2.70875 18.186 2.70875C18.8989 2.70875 19.4751 3.29468 19.4751 3.99781L19.4751 16.9275C19.4751 17.4353 19.6899 17.6111 19.9829 17.6111C20.2173 17.6111 20.4517 17.4548 20.647 17.0056L22.3462 13.2654C22.854 12.2009 23.313 11.7712 24.0259 11.7712C24.6997 11.7712 25.188 12.1912 25.188 12.8552C25.188 13.363 24.8169 14.4666 24.5337 15.365C23.849 17.706 23.1818 19.7928 22.3641 21.6052L13.1567 12.4019L13.1567 2.05445C13.1567 1.35132 13.7329 0.765386 14.4458 0.765386C15.1489 0.765386 15.7349 1.35132 15.7349 2.05445ZM11.8677 3.20679L11.8677 11.1134L9.28955 8.53639L9.28955 3.20679C9.28955 2.50367 9.87549 1.9275 10.5786 1.9275C11.2915 1.9275 11.8677 2.50367 11.8677 3.20679ZM8.10791 7.10328L8.10791 7.35527L6.58853 5.83656C6.66319 5.82153 6.74029 5.81421 6.81885 5.81421C7.52197 5.81421 8.10791 6.40015 8.10791 7.10328Z" fill="black" fill-opacity="0.85"/>
  <path d="M23.9087 27.4255C24.231 27.738 24.7778 27.7478 25.0903 27.4255C25.4126 27.0935 25.4126 26.5759 25.0903 26.2439L2.78564 3.94898C2.46338 3.62671 1.92627 3.61695 1.59424 3.94898C1.28174 4.27125 1.28174 4.80835 1.59424 5.13062Z" fill="black" fill-opacity="0.85"/>
 </g>
</svg>
