<?xml version="1.0" encoding="UTF-8"?>
<!--Generator: Apple Native CoreSVG 326-->
<!DOCTYPE svg
PUBLIC "-//W3C//DTD SVG 1.1//EN"
       "http://www.w3.org/Graphics/SVG/1.1/DTD/svg11.dtd">
<svg version="1.1" xmlns="http://www.w3.org/2000/svg" xmlns:xlink="http://www.w3.org/1999/xlink" viewBox="0 0 21.5014 27.4902">
 <g>
  <rect height="27.4902" opacity="0" width="21.5014" x="0" y="0"/>
  <path d="M9.98409 26.6406C13.9685 26.6406 16.5759 24.873 18.1872 21.1426C19.0661 19.2578 19.7595 17.0703 20.4919 14.5996C20.7653 13.7012 21.1364 12.5977 21.1364 12.0898C21.1364 11.4258 20.6481 11.0059 19.9743 11.0059C19.2614 11.0059 18.8122 11.4355 18.2946 12.5L16.5954 16.2402C16.4001 16.6895 16.1657 16.8457 15.9314 16.8457C15.6481 16.8457 15.3649 16.6699 15.4333 16.1621L16.9079 3.30078C16.9958 2.5 16.4685 2.04102 15.8825 1.92383C15.238 1.80664 14.5251 2.11914 14.3981 2.90039L12.8552 12.4316C12.4939 12.2949 12.1032 12.1777 11.6833 12.0996L11.6833 1.24023C11.6833 0.546875 11.1071 0 10.3942 0C9.69112 0 9.10518 0.546875 9.10518 1.24023L9.10518 11.9531C8.67549 11.9922 8.23604 12.041 7.82588 12.1191L6.58565 2.57812C6.47823 1.73828 5.79463 1.41602 5.1501 1.52344C4.53487 1.61133 3.9587 2.11914 4.05635 2.91992L5.24776 12.9492C4.79854 13.1543 4.40792 13.3887 4.05635 13.6328L2.51338 6.00586C2.34737 5.20508 1.67354 4.90234 1.05831 5C0.462603 5.10742-0.0940379 5.61523 0.013384 6.44531L1.47823 17.8906C2.20088 23.4473 5.11104 26.6406 9.98409 26.6406Z" fill="black" fill-opacity="0.85"/>
 </g>
</svg>
