<?xml version="1.0" ?><!-- Generator: Adobe Illustrator 25.0.0, SVG Export Plug-In . SVG Version: 6.00 Build 0)  --><svg xmlns="http://www.w3.org/2000/svg" xmlns:xlink="http://www.w3.org/1999/xlink" version="1.1" id="Layer_1" x="0px" y="0px" viewBox="0 0 512 512" style="enable-background:new 0 0 512 512;" xml:space="preserve">
<path d="M405.1,382l22.7,22.7c4.9-9.9,9.7-20.6,13.6-32.1l40.7-114.5c2.8-7.6,4.2-15,4.2-22.2c-0.2-22.9-16.4-41.6-43.2-41.6  c-15.3,0-29.1,9.5-37,27.7l-15,36.8c-0.5,1.2-1.2,1.6-2.1,1.6c-1.2,0-1.6-0.7-1.6-2.1V72.8c0-26.8-16.9-43.9-42.8-43.9  c-9.5,0-18,3.2-24.5,9.5C317,14.6,301.8,0,278.9,0c-22.4,0-38.2,15-41.6,37.9c-5.8-6-14.1-9-22.4-9c-24,0-40,16.9-40,42.3v25.9  c-6.2-6.7-15.7-10.2-25.4-10.2c-11.3,0-20.8,4.9-26.4,12.9l25,25v-1.6c0.7-3.7,3-6,7.2-6c9.5,0,16.4,6.9,16.4,16.9v14.3l29.4,29.6  V75.4c0-9.7,6.2-16.6,15.7-16.6c9.7,0,16.4,6.9,16.4,16.6V210l29.4,29.4V46.9c0-9.9,6.7-17.1,16.4-17.1c9.2,0,16,7.2,16,17.1v193.5  c0,8.1,6.5,14.1,14.6,14.1c7.9,0,14.8-6,14.8-14.1V75.4c0-9.7,6.7-16.6,16.2-16.6c9.5,0,16.2,6.9,16.2,16.6v227.8  c0,10.4,6.7,18.3,16.4,18.3c8.3,0,15.3-3.7,20.6-15.3l32.6-72.6c4.6-10.9,12.7-15.3,21.3-12.3c9,2.8,12,12,7.9,23.8l-42.1,117.7  C410.7,369.5,408.1,376,405.1,382z M441.9,506.9c6.7,6.7,18.5,6.9,25.2,0c6.7-7.2,6.9-18.3,0-25.2L56.2,71c-6.9-6.9-18.3-6.9-25.4,0  c-6.7,6.9-6.7,18.5,0,25.2L441.9,506.9z M272.2,503.4c38.2,0,71.5-9.9,98.5-29.6l-22.9-22.7c-22.2,13.6-47.9,20.1-76.8,20.1  c-81.9,0-131.8-52.5-131.8-145.5V243l-30.5-30.5v117C108.7,437.7,174.3,503.4,272.2,503.4z"/>
</svg>