<?xml version="1.0" encoding="UTF-8"?>
<!--Generator: Apple Native CoreSVG 326-->
<!DOCTYPE svg
PUBLIC "-//W3C//DTD SVG 1.1//EN"
       "http://www.w3.org/Graphics/SVG/1.1/DTD/svg11.dtd">
<svg version="1.1" xmlns="http://www.w3.org/2000/svg" xmlns:xlink="http://www.w3.org/1999/xlink" viewBox="0 0 29.2823 26.3242">
 <g>
  <rect height="26.3242" opacity="0" width="29.2823" x="0" y="0"/>
  <path d="M7.32669 4.40719L7.72321 5.49372C4.10118 7.98263 2.64225 11.5451 2.57083 15.4912C2.56106 15.8818 2.28763 16.1943 1.897 16.1943C1.48685 16.1943 1.19388 15.8525 1.19388 15.4619C1.19388 10.9463 3.08387 6.75713 7.23471 4.11127Z" fill="black" fill-opacity="0.85"/>
  <path d="M22.1607 24.1923C27.229 22.3466 28.9185 18.2451 26.9068 12.7177L26.1158 10.5498C25.3638 8.48922 23.9087 7.59079 22.7759 8.00094C22.5122 8.08883 22.4341 8.27438 22.522 8.51852L22.9029 9.57321C23.0591 10.0029 22.9126 10.2959 22.6587 10.3935C22.3755 10.4912 22.0825 10.3545 21.9263 9.92477L21.6724 9.22165C21.2232 8.00094 20.149 7.48336 19.0845 7.86422C18.606 8.04977 18.4595 8.32321 18.6158 8.7236L19.1236 10.1396C19.2798 10.5693 19.1431 10.8623 18.8794 10.9599C18.606 11.0576 18.3033 10.9209 18.147 10.4912L17.6783 9.19235C17.1704 7.8154 16.1353 7.45407 15.1099 7.82516C14.6509 7.99118 14.4947 8.29391 14.6314 8.68454L15.6275 11.4189C15.7837 11.8388 15.6372 12.1416 15.3833 12.2295C15.1099 12.3369 14.8072 12.2002 14.6509 11.7705L11.4283 2.92282C11.1158 2.04391 10.3443 1.68258 9.60208 1.95602C8.82083 2.23922 8.47903 3.00094 8.8013 3.87985L13.44 16.6435C13.5572 16.9463 13.4204 17.1904 13.2056 17.2588C13.02 17.3271 12.8247 17.2783 12.5708 17.0146L9.3677 13.5966C8.87942 13.0791 8.39114 12.9716 7.87356 13.1572C7.06302 13.4502 6.77005 14.1923 7.01419 14.8662C7.11185 15.1201 7.24856 15.3252 7.38528 15.5009L11.4185 20.5888C14.6314 24.6318 18.4595 25.54 22.1607 24.1923Z" fill="black" fill-opacity="0.85"/>
 </g>
</svg>
