<?xml version="1.0" ?><!-- Generator: Adobe Illustrator 25.0.0, SVG Export Plug-In . SVG Version: 6.00 Build 0)  --><svg xmlns="http://www.w3.org/2000/svg" xmlns:xlink="http://www.w3.org/1999/xlink" version="1.1" id="Layer_1" x="0px" y="0px" viewBox="0 0 512 512" style="enable-background:new 0 0 512 512;" xml:space="preserve">
<path d="M154.7,101.2c6.5-1.3,11-8,9.5-14.1l-11.8-54.9c-1.5-6.6-8-10.6-14.2-9.3c-6.5,1.3-11,7.6-9.5,14.2l11.8,54.7  C142,98.2,148,102.7,154.7,101.2z M83.9,120c4.7,4.7,12.5,4.7,17.1,0c4.6-4.7,4.7-12.2,0-16.9L61.1,63.4c-4.9-4.9-12.2-4.7-16.9,0  c-4.7,4.7-4.9,12,0,16.9L83.9,120z M236.5,112.8c-3.2,3-5.7,6.8-7.2,10.8c-13.7-8.2-29.1-6.1-41.4,6.3c-5.5,5.5-8.5,12.3-8.7,19.6  c-15.6-12-32.8-11.6-46.1,1.9c-13.1,12.9-13.5,30.8-2.3,46c-6.8,0-13.3,3-18.2,8c-13.9,13.9-13.5,32.8,1.3,47.8l15,14.8  c-7.4-0.2-14.8,3.2-20.5,9.1c-14.1,13.9-13.3,33.8,1.7,48.8l115.4,115.4c52.4,52.4,113.9,61.1,166,29.8  c27.9-3.4,54.7-17.1,78.4-40.6c47.1-47.3,54.9-106.3,22.4-174.3l-42.9-90.4c-8-16.7-20.9-25.4-36.5-25.4c-9.9,0-25.6,5.5-31.3,20.9  c-13.1-7-28.9-4.4-39.9,6.8l-0.2,0.2l-54.7-54.7C270.9,97.8,251.5,97.8,236.5,112.8z M345.9,238.3l-98.5-98.5c0.6-2.7,1.9-5.1,4-7.4  c5.5-5.5,13.3-5.1,19.2,0.6l62.3,62.5c0.6,3.6,1.5,7,3,10.8l12.5,30.2c0.4,0.8,0.4,1.5-0.2,2.1C347.4,239.3,346.7,239.1,345.9,238.3  z M402.1,429.5c-47.5,47.5-107.1,46-161-8.2L129.8,310.1c-5.9-5.7-6.1-13.3-0.6-19c5.5-5.5,13.5-5.5,19.2,0.2l68.7,68.7  c4.9,4.9,12.2,4.2,16.7-0.2c4.6-4.6,5.3-12,0.4-16.9L131.5,240.2c-5.7-5.7-6.1-13.3-0.6-18.8c5.7-5.5,13.7-5.5,19.4,0.2l95.7,95.7  c4.9,4.9,12.3,4.4,16.7-0.2c4.6-4.6,5.3-12,0.4-16.9L150.7,187.8c-5.7-5.7-5.9-13.7-0.4-19.2c5.3-5.5,13.5-5.1,19.2,0.6l112.4,112.4  c4.6,4.6,12,4.4,16.5-0.2c4.7-4.7,5.1-12.2,0.6-16.9l-95.9-95.9c-5.7-5.7-5.9-13.5-0.2-19c5.5-5.7,13.3-5.5,19,0.4l132.2,132.2  c6.6,6.6,14.6,6.6,20.1,0.9c4.7-4.7,6.8-11,3-20.7L353.5,200c-3.2-8.4-0.2-15.4,6.3-18.4c7.2-3.2,13.7,0.2,17.8,9.1l44.1,93.2  C451.1,346,439.5,391.9,402.1,429.5z M64.7,183.2c6.3,1.1,12.9-2.7,14.1-9.3c1.3-6.5-2.7-12.5-9.3-14.1l-54.9-11.8  c-7-1.5-13.5,3-14.4,9.9c-0.9,6.3,3.2,12.3,9.5,13.7L64.7,183.2z M443.7,273.2l-42.2-88.9c-0.6-1.9-0.9-3.8-0.9-6.1  c0-6.1,4.9-12.2,13.1-12.2c5.1,0,10.4,3.6,13.3,9.7l43.1,91c29.6,62.1,18.2,108.2-19.6,145.4c-1.7,1.9-3.6,3.6-5.5,5.3  C470.1,376.2,469.7,327.7,443.7,273.2z"/>
</svg>