<?xml version="1.0" encoding="UTF-8"?>
<!--Generator: Apple Native CoreSVG 326-->
<!DOCTYPE svg
PUBLIC "-//W3C//DTD SVG 1.1//EN"
       "http://www.w3.org/Graphics/SVG/1.1/DTD/svg11.dtd">
<svg version="1.1" xmlns="http://www.w3.org/2000/svg" xmlns:xlink="http://www.w3.org/1999/xlink" viewBox="0 0 24.0991 24.1671">
 <g>
  <rect height="24.1671" opacity="0" width="24.0991" x="0" y="0"/>
  <path d="M21.0339 21.4439C24.0906 18.397 24.5886 14.5787 22.5183 10.2427L19.6179 4.13922C19.4422 3.75836 19.2078 3.43609 18.9539 3.17242C18.0554 2.29351 16.7566 2.33258 15.8679 3.20172C15.282 3.79742 15.0964 4.69586 15.5164 5.68219L16.5222 8.08453C16.5418 8.15289 16.5418 8.20172 16.5125 8.23101C16.4734 8.27984 16.4148 8.26031 16.366 8.22125L8.94411 0.789607C7.93825-0.206486 6.67848-0.216252 5.75075 0.731014C5.37965 1.09234 5.17457 1.55133 5.17457 2.04937C4.18825 1.24859 3.05543 1.22906 2.17653 2.0982C1.32692 2.94781 1.33668 4.13922 2.08864 5.10601C1.61989 5.09625 1.18043 5.29156 0.838636 5.63336C-0.0500356 6.51226-0.0207387 7.73297 0.946058 8.69976L2.00075 9.75445C1.5027 9.72515 1.01442 9.94976 0.633558 10.3306C-0.245348 11.2095-0.216051 12.4791 0.760511 13.4459L8.3484 21.0435C12.4988 25.1939 17.4011 25.0865 21.0339 21.4439ZM19.9304 20.4283C16.8347 23.524 12.8797 23.524 9.26637 19.9107L1.87379 12.5377C1.45387 12.108 1.41481 11.5611 1.82496 11.1509C2.22536 10.7505 2.81129 10.7505 3.23121 11.1802L7.74293 15.6822C8.04567 15.9947 8.46559 15.9459 8.7195 15.692C8.98317 15.4283 9.032 14.9986 8.7195 14.6959L1.96168 7.92828C1.532 7.49859 1.49293 6.96148 1.90309 6.55133C2.30348 6.15094 2.88942 6.15094 3.30934 6.59039L9.61793 12.8795C9.93043 13.192 10.3504 13.1627 10.614 12.899C10.8777 12.6353 10.9168 12.2056 10.6043 11.8931L3.23121 4.52008C2.79176 4.09039 2.76246 3.50445 3.17262 3.09429C3.56325 2.6939 4.13942 2.74273 4.56911 3.16265L11.9714 10.5552C12.2449 10.8384 12.6648 10.8384 12.948 10.565C13.2214 10.2916 13.2312 9.85211 12.948 9.5689L6.63942 3.25054C6.20973 2.83062 6.1902 2.25445 6.60036 1.84429C7.01051 1.43414 7.56715 1.48297 7.99684 1.89312L16.5125 10.4185C14.5496 12.9576 15.2332 15.5259 16.5613 16.8443C16.8543 17.1373 17.2351 17.1568 17.4988 16.8931C17.7918 16.6099 17.8015 16.2095 17.5281 15.9263C15.9558 14.3541 16.4539 12.1763 17.9675 10.6627C18.2703 10.3599 18.3777 9.96929 18.1531 9.39312L16.5613 5.30133C16.3074 4.67633 16.5027 4.17828 16.991 3.96344C17.4988 3.71929 17.9773 3.96344 18.2703 4.5982L21.239 10.8482C23.114 14.813 22.4304 17.9185 19.9304 20.4283Z" fill="black" fill-opacity="0.85"/>
 </g>
</svg>
