<?xml version="1.0" encoding="UTF-8"?>
<!--Generator: Apple Native CoreSVG 326-->
<!DOCTYPE svg
PUBLIC "-//W3C//DTD SVG 1.1//EN"
       "http://www.w3.org/Graphics/SVG/1.1/DTD/svg11.dtd">
<svg version="1.1" xmlns="http://www.w3.org/2000/svg" xmlns:xlink="http://www.w3.org/1999/xlink" viewBox="0 0 23.9502 23.4766">
 <g>
  <rect height="23.4766" opacity="0" width="23.9502" x="0" y="0"/>
  <path d="M8.63525 20.6006C12.5903 24.5459 17.395 24.2139 20.8325 20.7666C23.6548 17.9541 24.2407 14.8584 22.7466 11.0791C22.0337 9.12598 20.979 7.08496 19.7485 4.8291C19.3091 3.98926 18.7915 2.9541 18.4302 2.59277C17.9614 2.13379 17.3267 2.17285 16.8384 2.6416C16.3403 3.14941 16.3208 3.78418 16.7114 4.89746L18.1567 8.73535C18.3325 9.19434 18.2837 9.46777 18.1177 9.63379C17.9126 9.83887 17.6294 9.86816 17.2778 9.5166L8.13721 0.366211C7.63916-0.12207 6.80908-0.12207 6.3208 0.366211C5.81299 0.874023 5.81299 1.68457 6.3208 2.19238L12.8149 8.69629C12.4731 8.85254 12.1118 9.05762 11.7505 9.29199L4.11377 1.64551C3.61572 1.1377 2.78564 1.1377 2.2876 1.64551C1.78955 2.14355 1.78955 2.96387 2.2876 3.46191L9.82666 11.0107C9.54346 11.3428 9.27979 11.6846 9.03564 12.0361L2.19971 5.19043C1.69189 4.69238 0.881348 4.69238 0.373535 5.19043C-0.124512 5.69824-0.124512 6.50879 0.373535 7.0166L7.80518 14.4385C7.62939 14.8975 7.52197 15.3369 7.44385 15.7568L2.2876 10.6006C1.78955 10.1025 0.969238 10.1025 0.461426 10.6006C-0.0268555 11.1084-0.0268555 11.9189 0.461426 12.4268Z" fill="black" fill-opacity="0.85"/>
 </g>
</svg>
