<?xml version="1.0" encoding="UTF-8"?>
<!--Generator: Apple Native CoreSVG 326-->
<!DOCTYPE svg
PUBLIC "-//W3C//DTD SVG 1.1//EN"
       "http://www.w3.org/Graphics/SVG/1.1/DTD/svg11.dtd">
<svg version="1.1" xmlns="http://www.w3.org/2000/svg" xmlns:xlink="http://www.w3.org/1999/xlink" viewBox="0 0 28.1222 22.535">
 <g>
  <rect height="22.535" opacity="0" width="28.1222" x="0" y="0"/>
  <path d="M3.1236 0.305568C1.80524 1.80947 0.672427 3.78213 0.0376613 5.91104C-0.245542 6.86807 1.15094 7.33682 1.47321 6.27236C2.04938 4.36807 3.07477 2.62979 4.25641 1.2919C4.98883 0.461818 3.85602-0.504979 3.1236 0.305568ZM3.1236 17.9228C3.85602 18.7431 4.98883 17.7763 4.25641 16.9364C3.07477 15.6083 2.04938 13.87 1.47321 11.9755C1.15094 10.8915-0.245542 11.3603 0.0376613 12.3368C0.672427 14.456 1.80524 16.4286 3.1236 17.9228Z" fill="black" fill-opacity="0.85"/>
  <path d="M18.1334 22.1415C22.8502 22.1415 27.7623 19.1142 27.7623 13.0497C27.7623 10.2372 26.19 3.32315 24.1685 3.32315C23.8365 3.32315 23.5923 3.51846 23.69 3.7626L23.9439 4.51455C24.2076 5.2958 23.231 5.57901 22.9381 4.85635L22.4888 3.77236C21.8248 2.14151 20.2134 1.93643 19.2271 2.28799C18.9927 2.38565 18.9439 2.58096 19.0318 2.75674C19.4127 3.44033 19.7349 4.11416 20.0474 4.80752C20.4283 5.62783 19.3345 6.16494 18.8756 5.28604C18.6021 4.76846 18.2701 4.15322 17.9381 3.72354C16.5806 1.81924 14.2466 1.40908 11.7564 2.08291L7.98688 3.09854C5.53571 3.75283 6.50251 6.71182 8.87555 6.21377L12.4888 5.45205C13.6412 5.20791 14.5884 5.46182 15.1548 6.21377C16.024 7.37588 16.9029 9.23135 16.9029 10.5009C16.9029 12.3271 15.8091 14.2509 13.6119 14.2509C12.4693 14.2509 11.1509 13.7333 9.90094 12.5419L7.44977 10.2177C5.9654 8.7919 3.44586 10.6767 5.14508 12.6298L9.28571 17.3856C12.1177 20.6669 15.1158 22.1415 18.1334 22.1415Z" fill="black" fill-opacity="0.85"/>
 </g>
</svg>
