<?xml version="1.0" ?><!-- Generator: Adobe Illustrator 25.0.0, SVG Export Plug-In . SVG Version: 6.00 Build 0)  --><svg xmlns="http://www.w3.org/2000/svg" xmlns:xlink="http://www.w3.org/1999/xlink" version="1.1" id="Layer_1" x="0px" y="0px" viewBox="0 0 512 512" style="enable-background:new 0 0 512 512;" xml:space="preserve">
<path d="M76,397.4h61.2v-39H76.5c-12.1,0-21.4-3.2-27.8-9.7c-6.5-6.5-9.7-16-9.7-28.6V79.7c0-12.6,3.2-22.1,9.7-28.6  c6.5-6.5,15.7-9.7,27.8-9.7h241.7c11.9,0,21.2,3.2,27.7,9.7c6.5,6.5,9.8,16,9.8,28.6v53h39V77.5c0-24.8-6.3-43.6-19-56.1  C363,8.8,344.1,2.5,318.9,2.5H76c-25.3,0-44.3,6.3-57,18.8C6.3,33.8,0,52.5,0,77.5v244.9c0,25,6.3,43.8,19,56.3  C31.7,391.2,50.7,397.4,76,397.4z" class="hierarchical-0:secondary SFSymbolsPreview4D4D4D" style="fill: #4D4D4D;"/>
<path d="M193.3,509.5h242.9c25.2,0,44.1-6.3,56.7-18.9c12.7-12.6,19-31.3,19-56.1V189.6c0-24.8-6.3-43.6-19-56.1  s-31.6-18.9-56.7-18.9H193.3c-25.3,0-44.3,6.3-57,18.8c-12.7,12.5-19,31.3-19,56.3v244.9c0,25,6.3,43.8,19,56.3  C149,503.2,168,509.5,193.3,509.5z M193.8,470.5c-12.1,0-21.4-3.2-27.8-9.7c-6.5-6.5-9.7-16-9.7-28.6V191.8  c0-12.6,3.2-22.1,9.7-28.6c6.5-6.5,15.7-9.7,27.8-9.7h241.7c11.9,0,21.2,3.2,27.7,9.7c6.5,6.5,9.8,16,9.8,28.6v240.5  c0,12.6-3.3,22.1-9.8,28.6c-6.5,6.5-15.8,9.7-27.7,9.7H193.8z M224.1,351.9c0,18.1,3.7,33.7,11,46.8c7.3,13.1,17.5,23.3,30.4,30.5  c12.9,7.2,27.8,10.8,44.8,10.8c18.9,0,34.9-4.1,48-12.2c13.1-8.1,24.1-21.1,32.8-38.8c3.1-6.1,6-12.7,8.7-19.6  c2.7-6.9,5.4-14.3,8-22c2.6-7.7,5.2-15.9,7.7-24.4c1.6-5.2,3.3-10.6,5.1-16.3c1.8-5.7,2.7-10,2.7-12.7c0-3.5-1.1-6.4-3.4-8.6  c-2.3-2.2-5.2-3.3-9-3.3c-4,0-7.4,1.3-10.2,4c-2.7,2.7-5.6,6.9-8.5,12.7L375,335.2c-0.8,1.9-1.7,3.3-2.5,4.1c-0.9,0.8-1.9,1.2-3,1.2  c-2.6,0-3.9-1.9-3.9-5.6V204.6c0-3.7-1.3-6.9-4-9.6c-2.7-2.7-5.8-4-9.6-4c-3.9,0-7.1,1.3-9.8,4c-2.7,2.7-4,5.8-4,9.6v92.7  c-1.6-0.5-3.3-1-5-1.5c-1.7-0.5-3.5-1-5.4-1.5V186.7c0-3.7-1.3-6.9-4-9.6c-2.7-2.7-5.8-4-9.6-4c-3.7,0-6.9,1.3-9.6,4  c-2.7,2.7-4,5.8-4,9.6v106.5c-1.8,0.2-3.6,0.4-5.6,0.6c-1.9,0.2-3.8,0.5-5.6,0.8v-97.3c0-3.9-1.3-7.1-4-9.7c-2.7-2.6-6-3.9-10-3.9  c-3.7,0-6.9,1.3-9.6,3.9c-2.7,2.6-4,5.8-4,9.7v106c-1.9,0.8-3.8,1.7-5.4,2.8c-1.7,1-3.3,2-4.7,2.8V236c0-3.9-1.4-7.1-4.1-9.8  c-2.7-2.7-6-4-9.7-4c-3.7,0-7,1.3-9.8,4c-2.8,2.7-4.2,5.9-4.2,9.8V351.9z" class="hierarchical-1:primary SFSymbolsPreview212121" style="fill: #212121;"/>
</svg>