<?xml version="1.0" ?><!-- Generator: Adobe Illustrator 25.0.0, SVG Export Plug-In . SVG Version: 6.00 Build 0)  --><svg xmlns="http://www.w3.org/2000/svg" xmlns:xlink="http://www.w3.org/1999/xlink" version="1.1" id="Layer_1" x="0px" y="0px" viewBox="0 0 512 512" style="enable-background:new 0 0 512 512;" xml:space="preserve">
<path d="M283.7,512c109.2,0,170.6-68.4,170.6-185.2v-48.3c0-44.3-21.4-71.2-45.3-71.2c-5.5,0-8.3,2.8-8.3,8.1v21.4  c0,10.1-5.3,15.1-11.3,15.1c-6.5,0-11.6-5-11.6-15.1v-14.1c0-25.9-16.9-43-39.2-43c-10.3,0-14.8,4.3-14.8,12.8v29.2  c0,10.1-5,15.1-11.1,15.1c-6.5,0-11.8-5-11.8-15.1v-26.9c0-29.2-17.1-43-38.7-43c-9.8,0-14.8,4.5-14.8,12.8v57.1  c0,10.1-5.3,15.1-11.3,15.1c-6.5,0-11.6-5-11.6-15.1v-191C224.3,12.1,212,0,196.4,0c-16.9,0-28.7,12.1-28.7,30.7v279.5  c0,7-4.3,10.6-8.6,10.6c-4.3,0-7.8-2.5-10.8-9.6l-37-87.3c-5.5-12.8-14.1-18.4-25.4-18.4c-17.1,0-28.2,11.8-28.2,25.9  c0,5.8,1.3,10.6,2.5,14.6L101,367.6C135.7,470,203.4,512,283.7,512z"/>
</svg>