<?xml version="1.0" encoding="UTF-8"?>
<!--Generator: Apple Native CoreSVG 326-->
<!DOCTYPE svg
PUBLIC "-//W3C//DTD SVG 1.1//EN"
       "http://www.w3.org/Graphics/SVG/1.1/DTD/svg11.dtd">
<svg version="1.1" xmlns="http://www.w3.org/2000/svg" xmlns:xlink="http://www.w3.org/1999/xlink" viewBox="0 0 32.8356 26.413">
 <g>
  <rect height="26.413" opacity="0" width="32.8356" x="0" y="0"/>
  <path d="M10.2996 10.1059C10.2996 10.5161 9.96761 10.8481 9.55746 10.8481L2.88753 10.8481C2.47738 10.8481 2.14535 10.5161 2.14535 10.1059C2.14535 9.69576 2.47738 9.37349 2.88753 9.37349L9.55746 9.37349C9.96761 9.37349 10.2996 9.69576 10.2996 10.1059Z" fill="black" fill-opacity="0.85"/>
  <path d="M11.6574 6.22896L2.88753 6.22896C2.47738 6.22896 2.14535 5.89693 2.14535 5.48677C2.14535 5.07662 2.47738 4.75435 2.88753 4.75435L11.1228 4.75435Z" fill="black" fill-opacity="0.85"/>
  <path d="M12.6336 0.18404C11.8826 0.455867 11.3142 0.966792 10.9911 1.60982L2.88753 1.60982C2.47738 1.60982 2.14535 1.28756 2.14535 0.877399C2.14535 0.467243 2.47738 0.135212 2.88753 0.135212L12.7901 0.135212Z" fill="black" fill-opacity="0.85"/>
  <path d="M25.7098 23.8754C30.7879 22.0297 32.4676 17.9282 30.4559 12.4106L29.6649 10.2329C28.9129 8.17232 27.4578 7.27388 26.325 7.68404C26.0711 7.7817 25.9832 7.96724 26.0711 8.20162L26.452 9.25631C26.6082 9.68599 26.4715 9.97896 26.2078 10.0766C25.9344 10.1743 25.6317 10.0376 25.4754 9.61763L25.2215 8.90474C24.7723 7.68404 23.6981 7.16646 22.6434 7.55709C22.1551 7.73287 22.0184 8.00631 22.1649 8.41646L22.6825 9.82271C22.8289 10.2524 22.6922 10.5454 22.4383 10.643C22.1551 10.7504 21.8621 10.6137 21.7059 10.184L21.2274 8.87545C20.7293 7.49849 19.6844 7.13717 18.659 7.51802C18.2098 7.67427 18.0438 7.97701 18.1903 8.36763L19.1766 11.102C19.3328 11.5317 19.1961 11.8247 18.9325 11.9223C18.659 12.02 18.3563 11.8833 18.2 11.4536L14.9774 2.60592C14.6649 1.72701 13.9032 1.37545 13.161 1.63912C12.3797 1.92232 12.0282 2.68404 12.3504 3.56295L16.9989 16.3266C17.1063 16.6391 16.9696 16.8735 16.7645 16.9516C16.5692 17.02 16.3739 16.9614 16.1297 16.7075L12.9168 13.2797C12.4285 12.7719 11.9403 12.6547 11.4227 12.8403C10.6121 13.143 10.3192 13.8754 10.5633 14.5493C10.661 14.8129 10.7977 15.0083 10.9344 15.184L14.9676 20.2719C18.1805 24.3149 22.0086 25.2231 25.7098 23.8754Z" fill="black" fill-opacity="0.85"/>
 </g>
</svg>
