<?xml version="1.0" encoding="UTF-8"?>
<!--Generator: Apple Native CoreSVG 326-->
<!DOCTYPE svg
PUBLIC "-//W3C//DTD SVG 1.1//EN"
       "http://www.w3.org/Graphics/SVG/1.1/DTD/svg11.dtd">
<svg version="1.1" xmlns="http://www.w3.org/2000/svg" xmlns:xlink="http://www.w3.org/1999/xlink" viewBox="0 0 21.9429 24.2512">
 <g>
  <rect height="24.2512" opacity="0" width="21.9429" x="0" y="0"/>
  <path d="M15.8494 23.6246C20.6736 21.8766 22.8416 17.4723 20.8396 11.9743L19.9412 9.48402C18.9451 6.76917 17.1482 5.65589 14.99 6.41761C14.4236 5.65589 13.5252 5.38245 12.5486 5.74378C12.1873 5.87073 11.865 6.06605 11.5525 6.31019C10.9373 5.48988 9.98026 5.19691 8.96464 5.55823C8.68143 5.66566 8.39823 5.83167 8.12479 6.02698L6.65995 2.00355C6.14237 0.568001 4.84354-0.00817136 3.54471 0.460579C2.22635 0.939094 1.61112 2.20863 2.1287 3.64417L5.82987 13.8102C5.8494 13.8688 5.83964 13.9176 5.77128 13.9469C5.72245 13.9664 5.68339 13.9469 5.64432 13.8981L3.87674 11.9547C3.15409 11.1832 2.31424 10.9586 1.49393 11.2516C0.400182 11.6422-0.312708 12.7067 0.136511 13.9567C0.263464 14.2887 0.497839 14.7086 0.761511 15.0309L5.04862 20.236C8.12479 23.9469 11.7771 25.109 15.8494 23.6246ZM15.3807 22.2086C12.0603 23.4196 8.9451 22.7164 6.15214 19.3278L1.85526 14.1422C1.71854 13.986 1.63065 13.8395 1.55253 13.6149C1.37674 13.1754 1.58182 12.6774 2.10917 12.4918C2.50956 12.3356 2.88065 12.4918 3.22245 12.8727L6.1326 15.9196C6.56229 16.3785 6.96268 16.4371 7.36307 16.2907C7.83182 16.1149 8.04667 15.6461 7.86112 15.1285L3.46659 3.068C3.25174 2.50159 3.48612 1.97425 4.03299 1.76917C4.5701 1.58363 5.05839 1.83753 5.26346 2.4137L8.3787 10.9782C8.52518 11.3493 8.91581 11.5348 9.2869 11.3883C9.64823 11.2614 9.83378 10.8707 9.69706 10.4996L8.55448 7.39417C8.75956 7.20863 9.02323 7.03284 9.27714 6.94495C9.9119 6.71058 10.449 6.98402 10.7029 7.67738L11.6502 10.2946C11.8064 10.7047 12.2068 10.8414 12.5584 10.7243C12.9002 10.5875 13.115 10.236 12.9588 9.82581L12.1482 7.56019C12.3338 7.38441 12.6072 7.20863 12.8514 7.12073C13.4959 6.88636 14.033 7.1598 14.2869 7.85316L14.9314 9.62073C15.0779 10.0309 15.4881 10.1676 15.8396 10.0407C16.1717 9.92347 16.3865 9.55238 16.24 9.14222L15.7224 7.7262C16.8748 7.30628 17.9197 8.18519 18.6521 10.1774L19.4236 12.316C21.1814 17.111 19.5017 20.7047 15.3807 22.2086Z" fill="black" fill-opacity="0.85"/>
 </g>
</svg>
