<?xml version="1.0" ?><!-- Generator: Adobe Illustrator 25.0.0, SVG Export Plug-In . SVG Version: 6.00 Build 0)  --><svg xmlns="http://www.w3.org/2000/svg" xmlns:xlink="http://www.w3.org/1999/xlink" version="1.1" id="Layer_1" x="0px" y="0px" viewBox="0 0 512 512" style="enable-background:new 0 0 512 512;" xml:space="preserve">
<path d="M228.3,0C119.2,0,57.8,68.4,57.8,185.1v48.3c0,44.3,21.1,71.2,45.3,71.2c5.5,0,8.3-2.8,8.3-8v-21.4  c0-10.1,5.3-15.1,11.3-15.1c6.5,0,11.6,5,11.6,15.1v14.1c0,25.9,16.8,43,39.2,43c10.3,0,14.8-4,14.8-12.8v-29.2  c0-10.1,5-15.1,11.1-15.1c6.5,0,11.8,5,11.8,15.1v26.9c0,29.2,16.8,43,38.7,43c9.6,0,14.8-4.5,14.8-12.8v-57.1  c0-10.1,5-15.1,11.1-15.1c6.5,0,11.8,5,11.8,15.1v190.9c0,18.6,12.1,30.9,27.9,30.9c16.8,0,28.4-12.3,28.4-30.9V201.7  c0-6.8,4.5-10.6,8.8-10.6s7.8,2.5,10.8,9.6l37,87.3c5.5,12.8,13.8,18.6,25.1,18.6c17.4,0,28.4-11.8,28.4-26.2  c0-5.8-1.3-10.6-2.8-14.6l-40.5-121.5C376.2,42,308.6,0,228.3,0z"/>
</svg>