<?xml version="1.0" encoding="UTF-8"?>
<!--Generator: Apple Native CoreSVG 326-->
<!DOCTYPE svg
PUBLIC "-//W3C//DTD SVG 1.1//EN"
       "http://www.w3.org/Graphics/SVG/1.1/DTD/svg11.dtd">
<svg version="1.1" xmlns="http://www.w3.org/2000/svg" xmlns:xlink="http://www.w3.org/1999/xlink" viewBox="0 0 33.7828 31.4469">
 <g>
  <rect height="31.4469" opacity="0" width="33.7828" x="0" y="0"/>
  <path d="M0.826945 8.31623L4.47929 9.09748C4.86015 9.18537 5.08476 9.53694 5.0164 9.89826C4.93827 10.2791 4.56718 10.5037 4.21562 10.4354L0.553508 9.66389C0.182414 9.59553-0.0421953 9.24397 0.00663278 8.88264C0.0554609 8.48225 0.43632 8.22834 0.826945 8.31623ZM3.84452 2.69123L6.48124 5.32795C6.75468 5.60139 6.74491 6.03108 6.48124 6.30451C6.21757 6.57795 5.77812 6.57795 5.51445 6.30451L2.87773 3.6678C2.58476 3.37483 2.60429 2.96467 2.87773 2.69123C3.1414 2.4178 3.56132 2.40803 3.84452 2.69123ZM9.84062 0.542795L10.6316 4.18537C10.7098 4.53694 10.4559 4.9178 10.0848 4.99592C9.7039 5.08381 9.34257 4.82014 9.26445 4.45881L8.47343 0.825998C8.3953 0.454905 8.65898 0.0838108 9.0203 0.0154514C9.3914-0.0626736 9.76249 0.161936 9.84062 0.542795Z" fill="black" fill-opacity="0.85"/>
  <path d="M28.6199 8.39436C28.8738 8.64826 29.0984 8.96076 29.284 9.35139L32.1844 15.4451C34.2449 19.7908 33.7469 23.6092 30.6902 26.6561C29.1695 28.1809 27.4234 29.0863 25.6011 29.3077C26.2706 28.911 26.9113 28.4037 27.5164 27.7987C27.9524 27.3627 28.3363 26.9114 28.6621 26.4438C28.9825 26.2087 29.2936 25.9345 29.5965 25.6307C32.0965 23.1405 32.7801 20.0252 30.9051 16.0604L27.9363 9.81037C27.6336 9.18537 27.1648 8.93147 26.6473 9.16584C26.1687 9.39045 25.9734 9.89826 26.2176 10.5037L26.687 11.706L26.1101 10.494C25.9246 10.1033 25.7 9.78108 25.4461 9.52717C25.3215 9.40263 25.1891 9.29629 25.0505 9.2097C25.1464 8.90912 25.3112 8.64034 25.534 8.41389C26.4129 7.53498 27.7215 7.49592 28.6199 8.39436ZM18.6004 6.01155L22.2591 9.6655C21.8982 10.0835 21.7234 10.6366 21.7949 11.2568L17.6531 7.11506C17.2234 6.68537 16.6668 6.65608 16.2664 7.05647C16.079 7.24387 15.9813 7.46389 15.9715 7.68863L15.4266 7.14436C15.2635 6.98133 15.0941 6.84472 14.9201 6.73706C15.0101 6.44179 15.1769 6.16978 15.407 5.93342C16.3445 4.99592 17.5945 5.00569 18.6004 6.01155ZM12.2332 7.076C11.8719 7.43733 11.6668 7.89631 11.6668 8.39436C11.5493 8.29992 11.43 8.21649 11.3092 8.14514C11.4121 7.84631 11.5897 7.56321 11.8426 7.31037C12.0519 7.10105 12.2765 6.94271 12.5111 6.83552C12.4154 6.90522 12.3229 6.98632 12.2332 7.076Z" fill="black" fill-opacity="0.85"/>
  <path d="M27.5164 27.7987C30.573 24.742 31.0711 20.9334 29.0105 16.5877L26.1101 10.494C25.9246 10.1033 25.7 9.78108 25.4461 9.52717C24.5476 8.62873 23.2391 8.67756 22.3601 9.55647C21.7742 10.1424 21.5887 11.0408 21.9988 12.0272L23.0144 14.4393C23.0437 14.4979 23.0437 14.5467 23.0047 14.5858C22.9559 14.6248 22.907 14.6151 22.8582 14.5662L15.4266 7.14436C14.4207 6.1385 13.1707 6.1385 12.2332 7.076C11.8719 7.43733 11.6668 7.89631 11.6668 8.39436C10.6707 7.59358 9.53788 7.58381 8.66874 8.45295C7.81913 9.30256 7.81913 10.4842 8.58085 11.451C8.1121 11.4412 7.66288 11.6463 7.33085 11.9783C6.45195 12.8572 6.47148 14.078 7.43827 15.0447L8.49296 16.0994C7.98515 16.0799 7.49687 16.3045 7.11601 16.6756C6.2371 17.5643 6.27616 18.824 7.25273 19.8006L14.8406 27.3983C18.991 31.5389 23.8934 31.4217 27.5164 27.7987ZM26.4226 26.7733C23.3269 29.869 19.3719 29.8787 15.7586 26.2655L8.36601 18.8826C7.94609 18.453 7.90702 17.9061 8.30741 17.4959C8.71757 17.0955 9.29374 17.0955 9.72343 17.5252L14.2254 22.0272C14.5379 22.3397 14.9578 22.3006 15.2117 22.0467C15.4754 21.783 15.5242 21.3533 15.2117 21.0408L8.44413 14.283C8.02421 13.8533 7.98515 13.3065 8.38554 12.8963C8.7957 12.4959 9.37187 12.4959 9.80155 12.9256L16.1101 19.2342C16.4226 19.5467 16.8426 19.5076 17.0965 19.2537C17.3601 18.9901 17.409 18.5604 17.0965 18.2479L9.71366 10.8651C9.28398 10.4354 9.25468 9.84944 9.65507 9.43928C10.0555 9.04865 10.6414 9.08772 11.0613 9.50764L18.4539 16.9002C18.7371 17.1834 19.157 17.1834 19.4402 16.91C19.7137 16.6365 19.7137 16.1971 19.4402 15.9139L13.1316 9.6053C12.7019 9.17561 12.6824 8.59944 13.0926 8.18928C13.5027 7.78889 14.0496 7.81819 14.4793 8.24787L23.1902 16.9588C23.6101 17.3787 24.1082 17.3592 24.45 17.0076C24.7527 16.7147 24.8699 16.324 24.6453 15.7381L23.0437 11.6463C22.7996 11.0311 22.9949 10.5233 23.4734 10.3084C23.991 10.0643 24.4598 10.3182 24.7625 10.9432L27.7312 17.1932C29.6062 21.158 28.9226 24.2733 26.4226 26.7733Z" fill="black" fill-opacity="0.85"/>
 </g>
</svg>
