<?xml version="1.0" ?><!-- Generator: Adobe Illustrator 25.0.0, SVG Export Plug-In . SVG Version: 6.00 Build 0)  --><svg xmlns="http://www.w3.org/2000/svg" xmlns:xlink="http://www.w3.org/1999/xlink" version="1.1" id="Layer_1" x="0px" y="0px" viewBox="0 0 512 512" style="enable-background:new 0 0 512 512;" xml:space="preserve">
<path d="M195.5,85c2.1,0,3.8-1.2,4.4-3.6c5.2-28.8,5.2-29,34.2-34.4c2.5-0.6,4-2.1,4-4.4c0-2.5-1.5-4-4-4.6  c-29-5.8-28.2-5.9-34.2-34.2c-0.6-2.5-2.1-3.8-4.4-3.8s-4,1.5-4.4,3.8C185,32,185.9,32.2,156.8,38c-2.5,0.6-4,2.3-4,4.6  c0,2.1,1.5,3.8,4,4.4c29.2,5.8,28.8,5.6,34.4,34.4C191.5,83.7,193.2,85,195.5,85z M323.9,136.8c3.1,0,5.6-2.1,5.8-5.6  c5.6-45.1,7.7-46.2,53.5-53.9c3.8-0.4,6-2.3,6-5.6c0-3.1-2.1-5-5.2-5.6c-46.2-8.8-48.7-8.6-54.3-53.7c-0.2-3.5-2.7-5.6-5.8-5.6  c-2.9,0-5.2,2.1-5.4,5.4c-6.1,45.9-7.5,47.2-54.5,53.9c-3.1,0.4-5.2,2.5-5.2,5.6c0,3.1,2.1,5.2,5.2,5.6c47,9.2,48.2,9,54.5,54.3  C318.7,134.7,321,136.8,323.9,136.8z M197.6,119c-3.3,3.1-5.6,6.9-7.1,10.9c-14-8.3-29.6-6.1-41.8,6.3c-5.6,5.6-8.6,12.5-8.8,19.8  c-15.7-12.1-33.2-11.7-46.8,1.9c-13,13-13.4,31.1-2.1,46.4c-6.9,0-13.4,3.1-18.4,8.1c-14.2,14-13.6,33.2,1.3,48.4l15.2,15  c-7.5-0.2-15,3.3-20.9,9.2c-14,14-13.2,34.2,1.9,49.3L186.7,451c52.8,53,115.1,61.8,167.7,30.1c28.2-3.6,55.3-17.3,79.1-41.1  c47.8-47.8,55.5-107.3,22.8-176.2l-43.4-91.3c-8.1-16.9-21.1-25.7-37-25.7c-10,0-25.7,5.6-31.5,21.1c-13.4-7.1-29.2-4.4-40.3,6.9  l-0.2,0.2l-55.5-55.3C232.6,103.8,212.8,103.8,197.6,119z M308.4,245.8l-99.6-99.6c0.4-2.7,1.7-5.2,4-7.5c5.6-5.6,13.4-5.2,19.2,0.6  l63.1,63.3c0.4,3.5,1.5,7.1,2.9,10.7l12.9,30.5c0.4,0.8,0.4,1.5-0.2,2.1C309.9,246.8,309.1,246.6,308.4,245.8z M365.2,439.1  c-48.2,48-108.2,46.4-162.7-8.3L89.8,318.4c-5.8-5.8-6.1-13.4-0.4-19.2c5.6-5.6,13.6-5.6,19.4,0.2l69.3,69.5  c5.2,5,12.5,4.2,16.9-0.2c4.6-4.6,5.4-12.1,0.4-17.1L91.7,247.7c-5.8-5.8-6.1-13.4-0.6-19c5.6-5.6,13.6-5.6,19.6,0.2l96.7,96.7  c5,5,12.5,4.4,16.9-0.2c4.6-4.6,5.4-12.1,0.4-17.1L111.1,194.8c-5.8-5.8-6.1-13.8-0.4-19.4c5.4-5.6,13.4-5.2,19.4,0.6l113.6,113.6  c4.6,4.6,12.1,4.4,16.7-0.2c4.8-4.8,5.2-12.3,0.4-17.1l-96.7-96.9c-5.8-5.8-5.9-13.6-0.4-19.2c5.8-5.8,13.4-5.6,19.4,0.4  l133.6,133.6c6.7,6.7,14.6,6.7,20.3,1c4.8-4.8,6.7-11.1,3.1-20.9l-24-63.1c-3.3-8.4-0.4-15.5,6.3-18.6c7.1-3.3,13.8,0.2,17.8,9.2  l44.5,94.2C414.5,354.6,403,401.1,365.2,439.1z M407.2,281.1l-42.8-90.2c-0.6-1.7-1-3.6-1-5.8c0-6.1,5.2-12.3,13.2-12.3  c5.4,0,10.7,3.6,13.6,9.8l43.6,91.9c29.6,62.8,18.2,109.4-19.8,147c-1.9,1.9-3.6,3.6-5.6,5.4C433.9,385.2,433.5,336.2,407.2,281.1z   M90.9,512c2.9,0,4.4-1.7,4.8-4.4c6.9-37.6,6.7-38.4,46.1-45.9c2.9-0.8,4.4-2.1,4.4-5c0-2.9-1.5-4.2-4.4-4.8  c-39.1-7.9-38.2-8.6-46.1-46.1c-0.4-2.7-1.9-4.4-4.8-4.4c-2.7,0-4,1.7-4.8,4.4c-7.9,37.4-6.3,38.2-45.9,46.1  c-2.7,0.6-4.4,1.9-4.4,4.8c0,2.9,1.7,4.2,4.4,5c39.5,7.7,38.8,8.3,45.9,45.9C86.9,510.3,88.2,512,90.9,512z"/>
</svg>