<?xml version="1.0" encoding="UTF-8"?>
<!--Generator: Apple Native CoreSVG 326-->
<!DOCTYPE svg
PUBLIC "-//W3C//DTD SVG 1.1//EN"
       "http://www.w3.org/Graphics/SVG/1.1/DTD/svg11.dtd">
<svg version="1.1" xmlns="http://www.w3.org/2000/svg" xmlns:xlink="http://www.w3.org/1999/xlink" viewBox="0 0 23.2715 22.9199">
 <g>
  <rect height="22.9199" opacity="0" width="23.2715" x="0" y="0"/>
  <path d="M21.4844 1.44531C22.6953 2.64648 22.9102 4.32617 22.9102 6.5625L22.9102 16.3379C22.9102 18.584 22.6953 20.2539 21.4844 21.4648C20.2734 22.6758 18.5742 22.9102 16.3379 22.9102L6.57227 22.9102C4.33594 22.9102 2.64648 22.6758 1.42578 21.4648C0.214844 20.2637 0 18.584 0 16.3379L0 6.50391C0 4.33594 0.224609 2.65625 1.43555 1.44531C2.64648 0.234375 4.3457 0 6.50391 0L16.3379 0C18.5742 0 20.2637 0.234375 21.4844 1.44531ZM10.8203 3.80859L10.8203 10.2734C10.5762 10.293 10.332 10.3223 10.0879 10.3711L10.0879 4.52148C10.0879 4.08203 9.7168 3.7207 9.27734 3.7207C8.84766 3.7207 8.47656 4.08203 8.47656 4.52148L8.47656 10.8887C8.21289 10.9961 7.99805 11.1328 7.79297 11.2695L7.79297 6.89453C7.79297 6.45508 7.43164 6.09375 6.99219 6.09375C6.55273 6.09375 6.18164 6.45508 6.18164 6.89453L6.18164 13.916C6.18164 17.2852 8.36914 19.2578 11.3867 19.2578C13.7207 19.2578 15.3809 18.2422 16.3965 15.8594C16.9336 14.6973 17.3535 13.3789 17.793 11.8848C17.959 11.3281 18.1836 10.6934 18.1836 10.3906C18.1836 9.98047 17.8711 9.70703 17.4512 9.70703C17.0117 9.70703 16.7285 9.9707 16.4258 10.6055L15.3809 12.9004C15.2734 13.1738 15.1367 13.2617 15 13.2617C14.8242 13.2617 14.707 13.1445 14.707 12.8613L14.707 5C14.707 4.57031 14.3359 4.20898 13.9062 4.20898C13.4668 4.20898 13.1055 4.57031 13.1055 5L13.1055 10.5664C12.8906 10.498 12.666 10.4199 12.4316 10.3613L12.4316 3.80859C12.4316 3.37891 12.0703 3.00781 11.6309 3.00781C11.1816 3.00781 10.8203 3.37891 10.8203 3.80859Z" fill="black" fill-opacity="0.85"/>
 </g>
</svg>
