<?xml version="1.0" encoding="UTF-8"?>
<!--Generator: Apple Native CoreSVG 326-->
<!DOCTYPE svg
PUBLIC "-//W3C//DTD SVG 1.1//EN"
       "http://www.w3.org/Graphics/SVG/1.1/DTD/svg11.dtd">
<svg version="1.1" xmlns="http://www.w3.org/2000/svg" xmlns:xlink="http://www.w3.org/1999/xlink" viewBox="0 0 24.1089 24.1525">
 <g>
  <rect height="24.1525" opacity="0" width="24.1089" x="0" y="0"/>
  <path d="M21.0339 21.4366C24.0906 18.3799 24.5886 14.5713 22.5183 10.2256L19.6179 4.1319C19.4422 3.74127 19.2078 3.42877 18.9539 3.17486C18.0554 2.27643 16.7468 2.31549 15.8777 3.1944C15.282 3.78033 15.0964 4.67877 15.5066 5.6651L16.532 8.07721C16.5515 8.1358 16.5515 8.18463 16.5125 8.22369C16.4734 8.26275 16.4148 8.25299 16.366 8.21393L8.94411 0.782286C7.93825-0.223574 6.68825-0.223574 5.75075 0.713926C5.37965 1.07525 5.17457 1.544 5.17457 2.03229C4.18825 1.2315 3.05543 1.22174 2.18629 2.09088C1.33668 2.94049 1.32692 4.12213 2.08864 5.08893C1.61989 5.08893 1.18043 5.28424 0.838636 5.61627C-0.04027 6.49518-0.0207387 7.71588 0.946058 8.68268L2.00075 9.73736C1.5027 9.71783 1.01442 9.94244 0.633558 10.3233C-0.245348 11.2022-0.216051 12.462 0.760511 13.4385L8.35817 21.0362C12.4988 25.1768 17.4011 25.0694 21.0339 21.4366ZM19.9402 20.4112C16.8347 23.5069 12.8797 23.5167 9.26637 19.9034L1.88356 12.5206C1.45387 12.0909 1.41481 11.544 1.82496 11.1338C2.22536 10.7335 2.81129 10.7432 3.23121 11.1631L7.74293 15.6651C8.04567 15.9776 8.47536 15.9385 8.72926 15.6846C8.99293 15.421 9.032 14.9913 8.72926 14.6885L1.96168 7.92096C1.532 7.49127 1.49293 6.9444 1.90309 6.53424C2.30348 6.13385 2.88942 6.13385 3.30934 6.56354L9.6277 12.8721C9.93043 13.1846 10.3601 13.1456 10.6043 12.8917C10.8777 12.628 10.9168 12.1983 10.6043 11.8858L3.22145 4.50299C2.79176 4.0733 2.76246 3.48736 3.17262 3.07721C3.56325 2.68658 4.14918 2.72565 4.57887 3.15533L11.9714 10.5381C12.2449 10.8213 12.6746 10.8311 12.948 10.5479C13.2214 10.2745 13.2312 9.83502 12.948 9.55182L6.63942 3.24322C6.20973 2.81354 6.19996 2.23736 6.60036 1.83697C7.01051 1.42682 7.56715 1.45611 7.99684 1.8858L16.7078 10.5967C17.1179 11.0167 17.616 11.0069 17.9675 10.6553C18.2703 10.3526 18.3875 9.96197 18.1531 9.37604L16.5613 5.28424C16.3074 4.669 16.5125 4.17096 16.991 3.94635C17.4988 3.70221 17.9773 3.95611 18.2703 4.59088L21.239 10.8311C23.114 14.796 22.4304 17.9112 19.9402 20.4112Z" fill="black" fill-opacity="0.85"/>
 </g>
</svg>
