<?xml version="1.0" encoding="UTF-8"?>
<!--Generator: Apple Native CoreSVG 326-->
<!DOCTYPE svg
PUBLIC "-//W3C//DTD SVG 1.1//EN"
       "http://www.w3.org/Graphics/SVG/1.1/DTD/svg11.dtd">
<svg version="1.1" xmlns="http://www.w3.org/2000/svg" xmlns:xlink="http://www.w3.org/1999/xlink" viewBox="0 0 25.8008 25.459">
 <g>
  <rect height="25.459" opacity="0" width="25.8008" x="0" y="0"/>
  <path d="M12.7148 25.4395C19.7363 25.4395 25.4395 19.7461 25.4395 12.7246C25.4395 5.70312 19.7363 0 12.7148 0C5.69336 0 0 5.70312 0 12.7246C0 19.7461 5.69336 25.4395 12.7148 25.4395ZM12.7148 23.623C6.68945 23.623 1.81641 18.75 1.81641 12.7246C1.81641 6.69922 6.68945 1.82617 12.7148 1.82617C18.7402 1.82617 23.6133 6.69922 23.6133 12.7246C23.6133 18.75 18.7402 23.623 12.7148 23.623Z" fill="black" fill-opacity="0.85"/>
  <path d="M5.50781 14.7754C5.50781 16.8164 6.73828 18.5254 8.4375 18.5254L9.75586 18.5254C8.47656 17.6367 7.91992 16.2793 7.94922 14.707C7.96875 12.9492 8.64258 11.7676 9.20898 11.0156L8.19336 11.0156C6.66016 11.0156 5.50781 12.6758 5.50781 14.7754ZM8.7793 14.7168C8.75 17.2363 10.7617 19.1309 13.9551 19.1504L14.8926 19.1602C15.7812 19.1699 16.4258 19.1016 16.8066 19.0137C17.3438 18.877 17.8809 18.5547 17.8809 17.9004C17.8809 17.6562 17.8027 17.4316 17.7246 17.2949C17.6758 17.2168 17.6758 17.1387 17.7637 17.0996C18.1738 16.9336 18.5352 16.5332 18.5352 15.9961C18.5352 15.6836 18.4473 15.4004 18.291 15.2148C18.2031 15.1172 18.2227 15.0195 18.3398 14.9414C18.6621 14.7559 18.877 14.3848 18.877 13.9258C18.877 13.623 18.7793 13.2617 18.5938 13.1055C18.4766 13.0078 18.5059 12.9492 18.623 12.8516C18.8281 12.666 18.9648 12.3438 18.9648 11.9727C18.9648 11.2891 18.4473 10.752 17.7734 10.752L15.3613 10.752C14.7363 10.752 14.3359 10.4395 14.3359 9.92188C14.3359 9.00391 15.4785 7.31445 15.4785 6.11328C15.4785 5.48828 15.0586 5.10742 14.5312 5.10742C14.0332 5.10742 13.7988 5.43945 13.5449 5.95703C12.5098 7.93945 11.1523 9.55078 10.1172 10.9473C9.23828 12.0996 8.79883 13.1055 8.7793 14.7168Z" fill="black" fill-opacity="0.85"/>
 </g>
</svg>
