<?xml version="1.0" encoding="UTF-8"?>
<!--Generator: Apple Native CoreSVG 326-->
<!DOCTYPE svg
PUBLIC "-//W3C//DTD SVG 1.1//EN"
       "http://www.w3.org/Graphics/SVG/1.1/DTD/svg11.dtd">
<svg version="1.1" xmlns="http://www.w3.org/2000/svg" xmlns:xlink="http://www.w3.org/1999/xlink" viewBox="0 0 25.8008 25.459">
 <g>
  <rect height="25.459" opacity="0" width="25.8008" x="0" y="0"/>
  <path d="M25.4395 12.7246C25.4395 19.7266 19.7266 25.4395 12.7148 25.4395C5.71289 25.4395 0 19.7266 0 12.7246C0 5.71289 5.71289 0 12.7148 0C19.7266 0 25.4395 5.71289 25.4395 12.7246ZM12.1484 4.98047L12.1484 11.4453C11.9043 11.4648 11.6504 11.4941 11.4062 11.543L11.4062 5.68359C11.4062 5.24414 11.0352 4.89258 10.5957 4.89258C10.166 4.89258 9.79492 5.24414 9.79492 5.68359L9.79492 12.0605C9.53125 12.168 9.32617 12.3047 9.12109 12.4414L9.12109 8.06641C9.12109 7.62695 8.75977 7.26562 8.32031 7.26562C7.87109 7.26562 7.50977 7.62695 7.50977 8.06641L7.50977 15.0879C7.50977 18.457 9.6875 20.4199 12.7051 20.4199C15.0488 20.4199 16.6992 19.4141 17.7148 17.0312C18.2617 15.8691 18.6719 14.541 19.1113 13.0469C19.2773 12.5 19.502 11.8555 19.502 11.5625C19.502 11.1523 19.1992 10.8789 18.7793 10.8789C18.3301 10.8789 18.0566 11.1426 17.7539 11.7773L16.709 14.0723C16.5918 14.3457 16.4551 14.4336 16.3281 14.4336C16.1426 14.4336 16.0254 14.3164 16.0254 14.0332L16.0254 6.17188C16.0254 5.74219 15.6641 5.38086 15.2246 5.38086C14.7852 5.38086 14.4336 5.74219 14.4336 6.17188L14.4336 11.7383C14.2188 11.6602 13.9941 11.5918 13.75 11.5234L13.75 4.98047C13.75 4.55078 13.3984 4.17969 12.959 4.17969C12.5098 4.17969 12.1484 4.55078 12.1484 4.98047Z" fill="black" fill-opacity="0.85"/>
 </g>
</svg>
