<?xml version="1.0" encoding="UTF-8"?>
<!--Generator: Apple Native CoreSVG 326-->
<!DOCTYPE svg
PUBLIC "-//W3C//DTD SVG 1.1//EN"
       "http://www.w3.org/Graphics/SVG/1.1/DTD/svg11.dtd">
<svg version="1.1" xmlns="http://www.w3.org/2000/svg" xmlns:xlink="http://www.w3.org/1999/xlink" viewBox="0 0 19.5177 28.7793">
 <g>
  <rect height="28.7793" opacity="0" width="19.5177" x="0" y="0"/>
  <path d="M7.12211 3.32031C8.04008 3.32031 8.79203 2.57812 8.79203 1.66992C8.79203 0.761719 8.04008 0 7.12211 0C6.20414 0 5.47172 0.761719 5.47172 1.66992C5.47172 2.57812 6.20414 3.32031 7.12211 3.32031ZM1.65336 8.21289C2.57133 8.21289 3.32328 7.4707 3.32328 6.55273C3.32328 5.6543 2.57133 4.89258 1.65336 4.89258C0.735392 4.89258 0.00296997 5.6543 0.00296997 6.55273C0.00296997 7.4707 0.735392 8.21289 1.65336 8.21289ZM12.6592 8.21289C13.5772 8.21289 14.3291 7.4707 14.3291 6.55273C14.3291 5.6543 13.5772 4.89258 12.6592 4.89258C11.751 4.89258 11.0186 5.6543 11.0186 6.55273C11.0186 7.4707 11.751 8.21289 12.6592 8.21289ZM17.5518 8.21289C18.4698 8.21289 19.2217 7.4707 19.2217 6.55273C19.2217 5.6543 18.4698 4.89258 17.5518 4.89258C16.6338 4.89258 15.9014 5.6543 15.9014 6.55273C15.9014 7.4707 16.6338 8.21289 17.5518 8.21289ZM17.5518 3.32031C18.4698 3.32031 19.2217 2.57812 19.2217 1.66992C19.2217 0.761719 18.4698 0 17.5518 0C16.6338 0 15.9014 0.761719 15.9014 1.66992C15.9014 2.57812 16.6338 3.32031 17.5518 3.32031Z" fill="black" fill-opacity="0.85"/>
  <path d="M10.4034 28.75C15.0811 28.75 18.3135 25.6641 18.3135 20.3516L18.3135 17.959C18.3135 15.332 17.1221 13.7988 15.0518 13.7695C14.7686 12.9395 14.0655 12.4219 13.128 12.4219C12.7959 12.4219 12.4737 12.4805 12.1514 12.5879C11.8584 11.7188 11.126 11.1621 10.1397 11.1621C9.88578 11.1621 9.62211 11.2109 9.34867 11.2793L9.3682 7.5C9.3682 6.09375 8.41117 5.15625 7.12211 5.15625C5.81352 5.15625 4.87602 6.09375 4.87602 7.5L4.87602 17.0801C4.87602 17.1484 4.77836 17.1777 4.74906 17.0996L3.91899 15.0684C3.54789 14.1602 2.85453 13.6914 2.05375 13.6816C0.950236 13.6719-0.0165613 14.3945 0.00296997 15.6348C-0.0165613 15.9766 0.0615637 16.3965 0.198282 16.7578L2.2393 22.5C3.71391 26.6309 6.46781 28.75 10.4034 28.75ZM10.4424 27.2656C7.28813 27.2656 4.89555 25.7227 3.56742 22.0312L1.52641 16.2988C1.45805 16.123 1.44828 15.9961 1.44828 15.7812C1.44828 15.3809 1.72172 15.0586 2.1807 15.0586C2.54203 15.0586 2.77641 15.2832 2.95219 15.7031L4.47563 19.1895C4.71977 19.7363 5.06156 19.9023 5.47172 19.9023C5.96 19.9023 6.33109 19.541 6.33109 19.0039L6.33109 7.42188C6.33109 6.91406 6.64359 6.57227 7.12211 6.57227C7.61039 6.57227 7.91313 6.91406 7.91313 7.42188L7.91313 15.6543C7.91313 16.0547 8.21586 16.3574 8.60649 16.3574C9.00688 16.3574 9.31938 16.0547 9.31938 15.6543L9.31938 12.7246C9.51469 12.627 9.74906 12.5684 9.97367 12.5684C10.5498 12.5684 10.8916 12.9395 10.8916 13.5742L10.8916 16.0938C10.8916 16.5332 11.2334 16.7969 11.6045 16.7969C11.9561 16.7969 12.2979 16.5332 12.2979 16.0938L12.2979 13.9648C12.503 13.8867 12.7471 13.8281 12.962 13.8281C13.5479 13.8281 13.8799 14.1992 13.8799 14.834L13.8799 16.5234C13.8799 16.9629 14.212 17.2266 14.583 17.2266C14.9346 17.2266 15.2862 16.9629 15.2862 16.5234L15.2862 15.2441C16.3018 15.293 16.8682 16.2988 16.8682 18.1348L16.8682 20.1953C16.8682 24.7852 14.3682 27.2656 10.4424 27.2656Z" fill="black" fill-opacity="0.85"/>
 </g>
</svg>
