<?xml version="1.0" ?><!-- Generator: Adobe Illustrator 25.0.0, SVG Export Plug-In . SVG Version: 6.00 Build 0)  --><svg xmlns="http://www.w3.org/2000/svg" xmlns:xlink="http://www.w3.org/1999/xlink" version="1.1" id="Layer_1" x="0px" y="0px" viewBox="0 0 512 512" style="enable-background:new 0 0 512 512;" xml:space="preserve">
<path d="M148.9,0C84.8,0,32.8,52,32.8,116.2c0,27.6,9.8,53.2,25.8,73.2c3.9,4.9,8.6,6.7,13,6.7c11.4,0,21.1-13.5,11.4-25.1  c-12.5-14.9-19.7-33.9-19.7-54.8c0-47.4,38.3-85.7,85.7-85.7s85.5,38.3,85.5,85.7v4.9c0.2,10.5,7.4,15.1,14.9,15.1  c7.2,0,14.6-5.1,15.3-13.2c0.2-1.6,0.2-3.7,0.2-6.7C264.9,52,213.1,0,148.9,0z M374.8,500.7c94.8-34.4,126.4-113.1,89.4-214.7  l-15.1-41.8c-13.9-38.3-40.9-55.1-61.8-47.6c-4.9,1.9-6.5,5.3-4.9,9.8l7,18.6c3,8.8,0.2,14.6-5.1,16.7c-5.6,1.9-11.6-0.7-14.9-9.5  L365,220c-8.1-22.8-28.1-32.3-47.6-25.1c-8.8,3.3-11.4,8.4-8.8,15.8l9.3,25.3c3.3,8.8,0.2,14.6-4.9,16.7c-5.8,2.1-11.8-0.7-15.1-9.5  l-8.4-23.2c-9.3-25.6-28.3-32.1-47.4-25.1c-8.4,3-11.4,8.6-8.6,15.8l17.9,49.5c3.3,8.8,0.2,14.6-4.9,16.7  c-5.8,2.1-11.8-0.7-14.9-9.5l-60.4-165.7C165.4,85.5,151,79,137.3,83.9c-14.6,5.3-20.9,19.5-15.1,35.8l88.3,242.6  c2.3,6-0.5,10.5-4.2,11.8c-3.7,1.4-7.7,0.2-12.3-4.9L134.3,305c-8.8-9.3-17.9-11.6-27.9-7.9c-14.9,5.3-20.7,19.1-16.3,31.6  c1.9,4.9,4.4,8.6,7,11.6l73.6,92.7C233,511.1,305.1,526,374.8,500.7z"/>
</svg>