<?xml version="1.0" encoding="UTF-8"?>
<!--Generator: Apple Native CoreSVG 326-->
<!DOCTYPE svg
PUBLIC "-//W3C//DTD SVG 1.1//EN"
       "http://www.w3.org/Graphics/SVG/1.1/DTD/svg11.dtd">
<svg version="1.1" xmlns="http://www.w3.org/2000/svg" xmlns:xlink="http://www.w3.org/1999/xlink" viewBox="0 0 23.3203 23.252">
 <g>
  <rect height="23.252" opacity="0" width="23.3203" x="0" y="0"/>
  <path d="M3.79883 23.252L19.1504 23.252C21.6797 23.252 22.959 21.9727 22.959 19.4922L22.959 4.05273C22.959 1.57227 21.6797 0.292969 19.1504 0.292969L3.79883 0.292969C1.2793 0.292969 0 1.5625 0 4.05273L0 19.4922C0 21.9824 1.2793 23.252 3.79883 23.252ZM3.83789 21.5234C2.4707 21.5234 1.72852 20.8008 1.72852 19.3945L1.72852 4.15039C1.72852 2.74414 2.4707 2.02148 3.83789 2.02148L19.1211 2.02148C20.459 2.02148 21.2305 2.74414 21.2305 4.15039L21.2305 19.3945C21.2305 20.8008 20.459 21.5234 19.1211 21.5234Z" fill="black" fill-opacity="0.85"/>
  <path d="M6.14258 14.1602C6.14258 17.4609 8.27148 19.375 11.2109 19.375C13.5059 19.375 15.1172 18.3887 16.1133 16.0449C16.6309 14.9121 17.041 13.623 17.4707 12.168C17.627 11.6309 17.8418 11.0156 17.8418 10.7227C17.8418 10.3223 17.5391 10.0586 17.1289 10.0586C16.709 10.0586 16.4355 10.3125 16.1426 10.9277L15.1172 13.1738C15.0098 13.4375 14.873 13.5254 14.7461 13.5254C14.5703 13.5254 14.4531 13.4082 14.4531 13.1348L14.4531 5.45898C14.4531 5.03906 14.1016 4.6875 13.6719 4.6875C13.2422 4.6875 12.9004 5.03906 12.9004 5.45898L12.9004 10.8887C12.6855 10.8203 12.4609 10.7422 12.2266 10.6934L12.2266 4.29688C12.2266 3.87695 11.8848 3.51562 11.4551 3.51562C11.0254 3.51562 10.6738 3.87695 10.6738 4.29688L10.6738 10.6055C10.4297 10.625 10.1758 10.6543 9.94141 10.7031L9.94141 4.99023C9.94141 4.56055 9.58008 4.21875 9.15039 4.21875C8.73047 4.21875 8.36914 4.56055 8.36914 4.99023L8.36914 11.2012C8.11523 11.3086 7.91016 11.4551 7.70508 11.582L7.70508 7.30469C7.70508 6.875 7.35352 6.52344 6.92383 6.52344C6.49414 6.52344 6.14258 6.875 6.14258 7.30469Z" fill="black" fill-opacity="0.85"/>
 </g>
</svg>
