<?xml version="1.0" ?><!-- Generator: Adobe Illustrator 25.0.0, SVG Export Plug-In . SVG Version: 6.00 Build 0)  --><svg xmlns="http://www.w3.org/2000/svg" xmlns:xlink="http://www.w3.org/1999/xlink" version="1.1" id="Layer_1" x="0px" y="0px" viewBox="0 0 512 512" style="enable-background:new 0 0 512 512;" xml:space="preserve">
<path d="M363.5,498.6c104.7-38,149.3-134,107.1-250.1l-19.5-54.1c-20.8-57.3-60.2-80.7-106.3-64.6c-12.4-16.1-31.4-21.6-52-14.2  c-7.7,2.9-14.2,6.9-20.6,11.6c-13.5-17.7-34.3-24-55.9-16.1c-5.8,2.1-11.3,5-16.6,9l-30.1-82.3C158.2,6.2,129.7-7,100.4,3.6  C70.9,14.4,57.7,42.6,69,74l75.2,206.9c0.5,1.3,0.3,2.4-1.1,2.9c-0.8,0.3-1.8,0-2.6-1.1l-30.9-33.5c-15.3-16.4-33.8-21.4-51.5-15  c-24,9-39.6,31.9-29.6,59.1c2.4,7.7,7.7,16.9,13.7,24.5l88.4,106.6C197.5,505.4,275.9,530.5,363.5,498.6z M352.1,464  c-69.1,25.3-134,12.4-195-61.2L68.8,296.5c-2.6-3.2-4.5-6.1-6.1-10.6c-3.2-8.4,0.5-18.2,10.6-21.9c8.4-2.9,15,0.3,21.9,7.4  l61.2,63.1c10,10.3,19,11.6,27.7,8.4c10.6-4,14.8-14.8,10.6-26.1l-93.4-257c-4-10.6,0.8-20.6,10.8-24.3c10.3-3.7,19.8,1.1,23.7,11.9  l66.8,183.4c3.2,8.7,12.9,12.4,21.6,9.5c8.4-3.2,12.9-12.4,10-21.1l-24.3-66c3.7-3.4,8.7-6.9,13.7-8.7c12.4-4.5,22.7,1.1,27.4,14  l21.1,57.5c3.2,9.2,12.9,12.7,21.4,9.5c8.2-2.9,13.5-11.6,10-20.8l-17.2-47c3.7-3.4,8.7-6.9,13.7-8.7c12.4-4.5,22.7,1.1,27.4,14  l14,38.5c3.4,9.2,13.2,12.7,21.6,9.5c8.2-2.9,13.2-11.9,10-20.8l-10.6-28.5c22.2-7.9,43,10,57.3,49.6l16.6,45.1  C472.7,356.1,440,432.1,352.1,464z"/>
</svg>