<?xml version="1.0" ?><!-- Generator: Adobe Illustrator 25.0.0, SVG Export Plug-In . SVG Version: 6.00 Build 0)  --><svg xmlns="http://www.w3.org/2000/svg" xmlns:xlink="http://www.w3.org/1999/xlink" version="1.1" id="Layer_1" x="0px" y="0px" viewBox="0 0 512 512" style="enable-background:new 0 0 512 512;" xml:space="preserve">
<path d="M256,512c35,0,67.9-6.7,98.8-20.1c30.9-13.4,58.1-31.9,81.7-55.5c23.6-23.6,42.1-50.8,55.5-81.7  C505.3,323.9,512,291,512,256s-6.7-67.9-20.1-98.8c-13.4-30.9-31.9-58.1-55.5-81.7c-23.6-23.6-50.9-42.1-81.8-55.5  C323.7,6.7,290.7,0,255.7,0S187.9,6.7,157,20.1C126.1,33.5,98.9,52,75.4,75.5c-23.5,23.6-42,50.8-55.3,81.7C6.7,188.1,0,221,0,256  s6.7,67.9,20.1,98.8c13.4,30.9,31.9,58.1,55.5,81.7c23.6,23.6,50.8,42.1,81.7,55.5C188.1,505.3,221,512,256,512z" class="multicolor-0:systemBlueColor hierarchical-0:tertiary SFSymbolsPreview007AFF" style="fill: #007AFF;"/>
<path d="M152.1,302.4V162.6c0-4.5,1.7-8.4,5-11.8c3.3-3.3,7.4-5,12-5c4.4,0,8.2,1.7,11.4,5c3.3,3.3,4.9,7.3,4.9,11.8v87.8  c2-1.2,4-2.3,5.9-3.5c1.9-1.2,4.1-2.3,6.7-3.3V115.5c0-4.5,1.6-8.4,4.9-11.5c3.3-3.2,7.2-4.8,11.7-4.8c4.5,0,8.4,1.6,11.7,4.8  c3.3,3.2,4.9,7,4.9,11.5v117.5c2.3-0.3,4.6-0.6,6.8-0.9c2.2-0.3,4.3-0.5,6.3-0.9V102.7c0-4.4,1.6-8.2,4.9-11.5c3.3-3.3,7.2-5,11.9-5  c4.7,0,8.6,1.7,11.8,5c3.2,3.3,4.8,7.2,4.8,11.5v130c2.2,0.7,4.3,1.3,6.4,2c2.1,0.7,4.1,1.3,6.1,1.8V124.5c0-4.5,1.6-8.4,4.8-11.7  c3.2-3.3,7-4.9,11.5-4.9c4.5,0,8.4,1.6,11.7,4.9c3.3,3.3,4.9,7.2,4.9,11.7v157.6c0,2.3,0.4,4,1.3,5c0.8,1,2.1,1.5,3.8,1.5  c1,0,2-0.5,3.1-1.4c1.1-0.9,2.1-2.6,3.1-4.9l21.1-44.2c3.5-7,6.9-12.2,10.2-15.4c3.3-3.3,7.4-4.9,12.4-4.9c4.4,0,7.9,1.3,10.7,3.9  c2.8,2.6,4.1,6,4.1,10.2c0,3.5-1.1,8.7-3.3,15.6c-2.2,6.9-4.3,13.6-6.3,20.1c-3,10.2-6.1,20-9.2,29.4c-3.1,9.4-6.3,18.3-9.7,26.7  c-3.3,8.4-6.9,16.4-10.8,23.7c-10.4,21.4-23.6,36.9-39.5,46.6c-16,9.6-35.4,14.4-58.4,14.4c-20.2,0-38.2-4.3-53.8-12.8  c-15.6-8.5-27.9-20.7-36.6-36.5C156.5,343.2,152.1,324.4,152.1,302.4z" class="multicolor-1:white hierarchical-1:primary SFSymbolsPreviewFFFFFF" style="fill: #FFFFFF;"/>
</svg>