<?xml version="1.0" encoding="UTF-8"?>
<!--Generator: Apple Native CoreSVG 326-->
<!DOCTYPE svg
PUBLIC "-//W3C//DTD SVG 1.1//EN"
       "http://www.w3.org/Graphics/SVG/1.1/DTD/svg11.dtd">
<svg version="1.1" xmlns="http://www.w3.org/2000/svg" xmlns:xlink="http://www.w3.org/1999/xlink" viewBox="0 0 23.7598 31.1621">
 <g>
  <rect height="31.1621" opacity="0" width="23.7598" x="0" y="0"/>
  <path d="M6.03516 0C2.69531 0 0 2.69531 0 6.01562C0 7.44141 0.498047 8.76953 1.33789 9.81445C1.52344 10.0391 1.74805 10.127 1.96289 10.127C2.5 10.127 2.94922 9.50195 2.5 8.95508C1.82617 8.1543 1.43555 7.12891 1.43555 6.01562C1.43555 3.47656 3.48633 1.43555 6.03516 1.43555C8.56445 1.43555 10.6055 3.48633 10.6055 6.01562C10.6055 6.09375 10.6055 6.16211 10.6055 6.26953C10.6152 6.75781 10.957 6.97266 11.2988 6.97266C11.6602 6.97266 12.002 6.71875 12.0312 6.33789C12.041 6.25977 12.041 6.16211 12.041 6.01562C12.041 2.69531 9.3457 0 6.03516 0Z" fill="black" fill-opacity="0.85"/>
  <path d="M17.6562 27.0801C22.4805 25.332 24.6582 20.9277 22.6562 15.4297L21.748 12.9395C20.7617 10.2246 18.9551 9.11133 16.8066 9.87305C16.2402 9.11133 15.3418 8.83789 14.3652 9.19922C14.0039 9.32617 13.6719 9.52148 13.3691 9.76562C12.7539 8.94531 11.7969 8.65234 10.7812 9.01367C10.4883 9.12109 10.2051 9.28711 9.94141 9.48242L8.47656 5.45898C7.94922 4.02344 6.66016 3.44727 5.36133 3.91602C4.04297 4.39453 3.42773 5.66406 3.93555 7.09961L7.64648 17.2656C7.66602 17.3242 7.64648 17.373 7.58789 17.4023C7.53906 17.4219 7.5 17.4023 7.46094 17.3535L5.69336 15.4102C4.9707 14.6387 4.12109 14.4141 3.31055 14.707C2.20703 15.0977 1.49414 16.1621 1.95312 17.4121C2.07031 17.7441 2.31445 18.1641 2.56836 18.4863L6.86523 23.6914C9.94141 27.4023 13.5938 28.5645 17.6562 27.0801ZM17.1973 25.6641C13.877 26.875 10.752 26.1719 7.95898 22.7832L3.67188 17.5977C3.53516 17.4414 3.4375 17.2949 3.35938 17.0703C3.19336 16.6309 3.39844 16.1328 3.91602 15.9473C4.32617 15.791 4.69727 15.9473 5.03906 16.3281L7.93945 19.375C8.37891 19.834 8.7793 19.8926 9.17969 19.7461C9.64844 19.5703 9.85352 19.1016 9.66797 18.584L5.2832 6.52344C5.06836 5.95703 5.29297 5.42969 5.83984 5.22461C6.37695 5.03906 6.875 5.29297 7.08008 5.86914L10.1953 14.4336C10.332 14.8047 10.7324 14.9902 11.1035 14.8438C11.4648 14.7168 11.6406 14.3262 11.5039 13.9551L10.3711 10.8496C10.5664 10.6641 10.8301 10.4883 11.084 10.4004C11.7285 10.166 12.2656 10.4395 12.5195 11.1328L13.4668 13.75C13.6133 14.1602 14.0234 14.2969 14.375 14.1797C14.7168 14.043 14.9316 13.6914 14.7754 13.2812L13.9551 11.0156C14.1504 10.8398 14.4238 10.6641 14.668 10.5762C15.3125 10.3418 15.8496 10.6152 16.1035 11.3086L16.748 13.0762C16.8848 13.4863 17.3047 13.623 17.6465 13.4961C17.9883 13.3789 18.1934 13.0078 18.0566 12.5977L17.5391 11.1816C18.6914 10.7617 19.7363 11.6406 20.459 13.6328L21.2402 15.7715C22.9883 20.5664 21.3184 24.1602 17.1973 25.6641Z" fill="black" fill-opacity="0.85"/>
 </g>
</svg>
