<?xml version="1.0" ?><!-- Generator: Adobe Illustrator 25.0.0, SVG Export Plug-In . SVG Version: 6.00 Build 0)  --><svg xmlns="http://www.w3.org/2000/svg" xmlns:xlink="http://www.w3.org/1999/xlink" version="1.1" id="Layer_1" x="0px" y="0px" viewBox="0 0 512 512" style="enable-background:new 0 0 512 512;" xml:space="preserve">
<path d="M256,512c35,0,67.9-6.7,98.8-20.1c30.9-13.4,58.1-31.9,81.7-55.5c23.6-23.6,42.1-50.8,55.5-81.7  C505.3,323.9,512,291,512,256s-6.7-67.9-20.1-98.8c-13.4-30.9-31.9-58.1-55.5-81.7c-23.6-23.6-50.9-42.1-81.8-55.5  C323.7,6.7,290.7,0,255.7,0S187.9,6.7,157,20.1C126.1,33.5,98.9,52,75.4,75.5c-23.5,23.6-42,50.8-55.3,81.7C6.7,188.1,0,221,0,256  s6.7,67.9,20.1,98.8c13.4,30.9,31.9,58.1,55.5,81.7c23.6,23.6,50.8,42.1,81.7,55.5C188.1,505.3,221,512,256,512z" class="multicolor-0:tintColor hierarchical-0:tertiary SFSymbolsPreview007AFF" style="fill: #007AFF;"/>
<path d="M176.4,297.2c0.2-16.6,2.5-30.6,7-42c4.5-11.5,11.2-23,20.1-34.8c10.7-14.2,22.4-29.7,35.1-46.4  c12.7-16.7,24.3-35.2,34.9-55.5c2.5-5.2,5.2-9.4,8.2-12.5c2.9-3.2,6.9-4.8,11.9-4.8c5.4,0,9.9,1.8,13.7,5.5  c3.8,3.7,5.6,8.7,5.6,15.1c0,8.2-1.9,17.1-5.8,26.7c-3.8,9.6-7.7,18.9-11.7,28c-3.9,9-5.9,16.6-5.9,22.8c0,5.4,1.9,9.5,5.6,12.5  c3.8,3,8.9,4.5,15.4,4.5h49.2c6.9,0,12.6,2.4,17.2,7.2c4.6,4.8,6.9,10.7,6.9,17.7c0,3.7-0.6,7.1-1.9,10.3c-1.3,3.2-2.9,5.8-4.9,7.8  c-2.3,1.7-2.5,3.3-0.5,4.8c1.7,1.8,3,4.4,4,7.5c1,3.2,1.5,6.4,1.5,9.5c0,9.5-3.7,16.5-11,20.8c-2.3,1.3-2.7,3.2-1,5.5  c3.7,4,5.5,9.3,5.5,15.8c0,5.5-1.6,10.2-4.9,14.2c-3.3,3.9-7,6.7-11.2,8.4c-1.5,0.7-1.8,2-0.8,4c0.7,1.3,1.3,3.1,2,5.3  c0.7,2.2,1,4.5,1,7c0,6.7-2.3,11.8-6.8,15.2c-4.5,3.4-9.6,5.9-15.3,7.4c-3.8,0.8-9,1.5-15.6,2.1c-6.5,0.6-14.2,0.9-23.1,0.9  l-19.3-0.3c-21.6-0.2-40.3-4.2-56.2-12.2c-15.9-7.9-28.2-18.7-36.8-32.3C180.2,329.5,176.1,314.2,176.4,297.2z M108.2,298.2  c0-14.2,2.4-27.1,7.3-38.7c4.9-11.5,11.5-20.7,19.8-27.6c8.4-6.9,17.7-10.3,28.1-10.3h20.3c-6,7.7-11.8,17.8-17.4,30.2  c-5.6,12.5-8.5,27.5-8.7,45.1c-0.2,15.9,2.6,30.5,8.3,43.9c5.7,13.4,14.9,24.8,27.6,34.1h-25.1c-11.5,0-21.9-3.5-31-10.5  c-9.1-7-16.3-16.4-21.5-28C110.8,324.8,108.2,312.1,108.2,298.2z" class="multicolor-1:white hierarchical-1:primary SFSymbolsPreviewFFFFFF" style="fill: #FFFFFF;"/>
</svg>