<?xml version="1.0" ?><!-- Generator: Adobe Illustrator 25.0.0, SVG Export Plug-In . SVG Version: 6.00 Build 0)  --><svg xmlns="http://www.w3.org/2000/svg" xmlns:xlink="http://www.w3.org/1999/xlink" version="1.1" id="Layer_1" x="0px" y="0px" viewBox="0 0 512 512" style="enable-background:new 0 0 512 512;" xml:space="preserve">
<path d="M380.7,161.8C382.1,70.7,308.1,1.2,192.1,0.5L157.8,0c-32.3-0.2-56.2,2.2-69.9,5.8c-19.3,5.1-38.3,16.9-38.3,40.5  c0,9.6,2.4,16.6,5.8,22.2c1.9,2.9,1.7,5.5-1.4,6.8c-15.4,6.3-28.5,21-28.5,40.8c0,11.3,3.4,21.2,8.7,28.2c2.9,3.6,2.4,7-1.9,9.6  c-11.3,6.5-19.1,20.7-19.1,36.9c0,11.6,3.6,23.9,10.4,29.9c3.9,3.6,3.1,6-1,9.6c-8,6.8-12.8,18.1-12.8,32.1  c0,24.1,18.8,43.9,43.4,43.9h88c22.4,0,37.1,11.6,37.1,29.9c0,33.5-41.7,95-41.7,139.1c0,23.2,15,36.7,34.5,36.7  c17.8,0,26.8-12.3,36.4-31.1C244.4,408.8,294.1,350.2,332,300C364,257.3,379.7,220.7,380.7,161.8z M502.2,159.9  c0-74-46.3-136-108-136h-44.1c44.9,32.8,65.1,82.2,64.1,138.4c-1,62.7-25.1,107.3-47,134.6h36.2  C459.3,296.9,502.2,236.8,502.2,159.9z"/>
</svg>