<?xml version="1.0" ?><!-- Generator: Adobe Illustrator 25.0.0, SVG Export Plug-In . SVG Version: 6.00 Build 0)  --><svg xmlns="http://www.w3.org/2000/svg" xmlns:xlink="http://www.w3.org/1999/xlink" version="1.1" id="Layer_1" x="0px" y="0px" viewBox="0 0 512 512" style="enable-background:new 0 0 512 512;" xml:space="preserve">
<path d="M87.3,512h337.3c29.1,0,50.9-7.2,65.5-21.6c14.6-14.4,21.8-35.9,21.8-64.7V86.2c0-28.7-7.3-50.3-21.8-64.7  C475.6,7.2,453.8,0,424.7,0H87.3C58.2,0,36.4,7.2,21.8,21.6C7.3,35.9,0,57.5,0,86.2v339.6c0,28.7,7.3,50.3,21.8,64.7  C36.4,504.8,58.2,512,87.3,512z" class="multicolor-0:systemBlueColor hierarchical-0:tertiary SFSymbolsPreview007AFF" style="fill: #007AFF;"/>
<path d="M138.2,309.8V154.9c0-5,1.9-9.4,5.6-13.1c3.7-3.7,8.2-5.6,13.3-5.6c4.8,0,9.1,1.9,12.8,5.6c3.7,3.7,5.6,8.1,5.6,13.1v97.3  c2-1.3,4.2-2.6,6.4-3.9c2.2-1.3,4.6-2.5,7.2-3.6V102.6c0-5,1.8-9.3,5.4-12.8c3.6-3.5,7.9-5.3,12.9-5.3c5,0,9.4,1.8,13.1,5.3  c3.7,3.5,5.6,7.8,5.6,12.8v130.2c2.4-0.4,4.8-0.7,7.2-1c2.4-0.3,4.8-0.6,7.2-1V88.4c0-4.8,1.8-9.1,5.3-12.8  c3.5-3.7,7.9-5.6,13.1-5.6c5.2,0,9.5,1.9,13.1,5.6c3.5,3.7,5.3,8,5.3,12.8v144.1c2.4,0.7,4.8,1.5,7.1,2.2c2.3,0.7,4.6,1.4,6.8,1.9  v-124c0-5,1.8-9.3,5.3-12.9c3.5-3.6,7.9-5.4,13.1-5.4c4.8,0,9,1.8,12.7,5.4c3.6,3.6,5.4,7.9,5.4,12.9v174.7c0,2.6,0.5,4.4,1.5,5.6  c1,1.1,2.4,1.7,4,1.7c1.3,0,2.5-0.5,3.6-1.5c1.1-1,2.2-2.8,3.3-5.4l23.4-48.9c3.9-7.8,7.6-13.5,11.3-17.1c3.6-3.6,8.2-5.4,13.8-5.4  c4.8,0,8.8,1.4,12,4.3c3.2,2.9,4.7,6.6,4.7,11.3c0,3.9-1.3,9.6-3.8,17.2c-2.5,7.6-4.9,15-7.1,22.2c-3.3,11.3-6.7,22.2-10.2,32.5  c-3.4,10.4-7,20.3-10.7,29.6c-3.7,9.4-7.7,18.1-12,26.3c-11.5,23.7-26.1,40.9-43.8,51.6c-17.7,10.7-39.3,16-64.7,16  c-22.4,0-42.3-4.7-59.7-14.2c-17.3-9.5-30.9-22.9-40.6-40.5C143.1,355,138.2,334.1,138.2,309.8z" class="multicolor-1:white hierarchical-1:primary SFSymbolsPreviewFFFFFF" style="fill: #FFFFFF;"/>
</svg>