<?xml version="1.0" ?><!-- Generator: Adobe Illustrator 25.0.0, SVG Export Plug-In . SVG Version: 6.00 Build 0)  --><svg xmlns="http://www.w3.org/2000/svg" xmlns:xlink="http://www.w3.org/1999/xlink" version="1.1" id="Layer_1" x="0px" y="0px" viewBox="0 0 512 512" style="enable-background:new 0 0 512 512;" xml:space="preserve">
<path d="M256,512c35,0,67.9-6.7,98.8-20.1c30.9-13.4,58.1-31.9,81.7-55.5c23.6-23.6,42.1-50.8,55.5-81.7  C505.3,323.9,512,291,512,256s-6.7-67.9-20.1-98.8c-13.4-30.9-31.9-58.1-55.5-81.7c-23.6-23.6-50.9-42.1-81.8-55.5  C323.7,6.7,290.7,0,255.7,0S187.9,6.7,157,20.1C126.1,33.5,98.9,52,75.4,75.5c-23.5,23.6-42,50.8-55.3,81.7C6.7,188.1,0,221,0,256  s6.7,67.9,20.1,98.8c13.4,30.9,31.9,58.1,55.5,81.7c23.6,23.6,50.8,42.1,81.7,55.5C188.1,505.3,221,512,256,512z" class="multicolor-0:tintColor hierarchical-0:tertiary SFSymbolsPreview007AFF" style="fill: #007AFF;"/>
<path d="M333.3,213.6c-0.2,16.6-2.5,30.6-7,42c-4.5,11.5-11.2,23-20.1,34.8c-10.5,14.2-22.2,29.7-35,46.4  c-12.8,16.7-24.4,35.2-34.8,55.5c-2.7,5.2-5.5,9.4-8.4,12.5c-2.9,3.2-6.9,4.8-11.9,4.8c-5.4,0-9.9-1.8-13.7-5.5  c-3.8-3.7-5.6-8.7-5.6-15.1c0-8.2,2-17.1,5.9-26.7c3.9-9.6,7.8-18.9,11.7-28c3.8-9,5.8-16.7,5.8-23.1c0-5.2-1.9-9.3-5.6-12.3  c-3.8-3-8.8-4.5-15.2-4.5h-49.4c-6.7,0-12.4-2.4-17.1-7.2c-4.7-4.8-7-10.7-7-17.7c0-3.7,0.6-7.1,1.9-10.3c1.3-3.2,2.9-5.8,4.9-7.8  c2.3-1.8,2.6-3.4,0.8-4.8c-1.8-1.8-3.2-4.4-4.1-7.5c-0.9-3.2-1.4-6.4-1.4-9.5c0-9.5,3.6-16.5,10.8-20.8c2.3-1.3,2.7-3.2,1-5.5  c-3.5-4-5.3-9.3-5.3-15.8c0-5.5,1.6-10.2,4.8-14.2c3.2-3.9,6.9-6.7,11-8.4c1.5-0.7,1.8-2,0.8-4c-0.7-1.3-1.3-3.1-2-5.3  c-0.7-2.2-1-4.5-1-7c0-6.7,2.3-11.8,6.9-15.2c4.6-3.4,9.7-5.9,15.2-7.4c3.8-0.8,9-1.6,15.6-2.3c6.5-0.7,14.3-0.9,23.3-0.8l19.1,0.3  c21.8,0.2,40.5,4.2,56.3,12.2c15.8,7.9,28,18.7,36.6,32.3C329.5,181.2,333.6,196.5,333.3,213.6z M401.6,212.6  c0,14.2-2.4,27.1-7.3,38.7c-4.9,11.5-11.4,20.7-19.7,27.6c-8.3,6.9-17.7,10.3-28.2,10.3h-20.1c5.9-7.7,11.6-17.8,17.2-30.2  c5.6-12.5,8.5-27.5,8.7-45.1c0.3-15.9-2.3-30.5-8-43.9c-5.7-13.4-15-24.8-27.9-34.1h25.1c11.7,0,22.1,3.5,31.1,10.5  c9,7,16.1,16.4,21.3,28C399,185.9,401.6,198.7,401.6,212.6z" class="multicolor-1:white hierarchical-1:primary SFSymbolsPreviewFFFFFF" style="fill: #FFFFFF;"/>
</svg>