<?xml version="1.0" encoding="UTF-8"?>
<!--Generator: Apple Native CoreSVG 326-->
<!DOCTYPE svg
PUBLIC "-//W3C//DTD SVG 1.1//EN"
       "http://www.w3.org/Graphics/SVG/1.1/DTD/svg11.dtd">
<svg version="1.1" xmlns="http://www.w3.org/2000/svg" xmlns:xlink="http://www.w3.org/1999/xlink" viewBox="0 0 29.1357 29.021">
 <g>
  <rect height="29.021" opacity="0" width="29.1357" x="0" y="0"/>
  <path d="M6.83838 12.2834L6.83838 18.0505C6.83838 23.158 9.64111 25.9509 14.0259 25.9509C15.9215 25.9509 17.5728 25.4568 18.9211 24.3555L19.9628 25.3963C18.3956 26.7621 16.4213 27.4548 14.0747 27.4548C8.93799 27.4548 5.39307 24.0662 5.39307 18.2068L5.39307 10.8393ZM16.5845 2.5232C16.936 2.17164 17.4048 1.98609 17.9224 1.98609C19.2407 1.98609 20.1294 2.87476 20.1294 4.30054L20.1294 14.7986C20.1294 14.8669 20.1587 14.9158 20.2271 14.9158C20.2759 14.9158 20.3149 14.8865 20.3345 14.8181L21.3208 12.3962C21.731 11.4099 22.4927 10.9021 23.3325 10.9021C24.563 10.9021 25.52 11.8005 25.52 13.0701C25.52 13.4314 25.4517 13.8123 25.3149 14.2224L23.0493 20.5798C22.8985 21.0065 22.7348 21.4138 22.5541 21.7952L21.4798 20.7213C21.5648 20.5237 21.6446 20.3158 21.7212 20.1013L24.0356 13.5877C24.2798 12.9334 24.1138 12.4158 23.5864 12.2302C23.0884 12.0447 22.5903 12.2595 22.3364 12.865L20.5688 16.8884C20.3149 17.4646 19.9634 17.6599 19.5337 17.6599C19.0356 17.6599 18.6743 17.3181 18.6743 16.7322L18.6743 4.40796C18.6743 3.8025 18.3032 3.39234 17.7368 3.39234C17.1606 3.39234 16.7603 3.8025 16.7603 4.40796L16.7603 13.3435C16.7603 13.7341 16.4478 14.0369 16.0571 14.0369C15.6665 14.0369 15.3638 13.7341 15.3638 13.3435L15.3638 2.88453C15.3638 2.27906 14.9829 1.8396 14.4263 1.8396C13.8501 1.8396 13.4497 2.27906 13.4497 2.88453L13.4497 12.6947L12.063 11.3086L12.063 4.40796C12.063 3.8025 11.6528 3.39234 11.0767 3.39234C10.5005 3.39234 10.1489 3.8025 10.1489 4.40796L10.1489 9.39539L8.75244 7.99952L8.75244 7.61109C8.75244 7.00562 8.34229 6.5857 7.77588 6.5857C7.63978 6.5857 7.51567 6.60913 7.40597 6.65364L6.288 5.53616C6.62451 5.29994 7.04134 5.16968 7.51221 5.16968C8.03955 5.16968 8.55713 5.35523 8.88916 5.72632L8.88916 4.23218C8.88916 2.865 9.73877 1.98609 10.979 1.98609C11.4575 1.98609 11.9067 2.16187 12.2388 2.50367C12.3853 1.28296 13.2251 0.44312 14.4263 0.44312C15.6567 0.44312 16.4478 1.25367 16.5845 2.5232ZM9.19332 14.6363C9.01889 14.5706 8.87163 14.4337 8.8004 14.2437Z" fill="black" fill-opacity="0.85"/>
  <path d="M23.9087 27.4255C24.231 27.738 24.7778 27.7478 25.0903 27.4255C25.4126 27.0935 25.4126 26.5759 25.0903 26.2439L2.78564 3.94898C2.46338 3.62671 1.92627 3.61695 1.59424 3.94898C1.28174 4.27125 1.28174 4.80835 1.59424 5.13062Z" fill="black" fill-opacity="0.85"/>
 </g>
</svg>
