<?xml version="1.0" encoding="UTF-8"?>
<!--Generator: Apple Native CoreSVG 326-->
<!DOCTYPE svg
PUBLIC "-//W3C//DTD SVG 1.1//EN"
       "http://www.w3.org/Graphics/SVG/1.1/DTD/svg11.dtd">
<svg version="1.1" xmlns="http://www.w3.org/2000/svg" xmlns:xlink="http://www.w3.org/1999/xlink" viewBox="0 0 34.4469 32.2373">
 <g>
  <rect height="32.2373" opacity="0" width="34.4469" x="0" y="0"/>
  <path d="M0.826945 8.71144L4.47929 9.49269C4.86015 9.58058 5.08476 9.93214 5.0164 10.2935C4.93827 10.6743 4.56718 10.8989 4.21562 10.8306L0.553508 10.0591C0.182414 9.99074-0.0421953 9.63918 0.00663278 9.27785C0.0554609 8.87746 0.43632 8.62355 0.826945 8.71144ZM3.84452 3.08644L6.48124 5.72316C6.75468 5.9966 6.74491 6.42628 6.48124 6.69972C6.21757 6.97316 5.77812 6.97316 5.51445 6.69972L2.87773 4.063C2.58476 3.77003 2.60429 3.35988 2.87773 3.08644C3.1414 2.813 3.56132 2.80324 3.84452 3.08644ZM9.84062 0.938003L10.6316 4.58058C10.7098 4.93214 10.4559 5.313 10.0848 5.39113C9.7039 5.47902 9.34257 5.21535 9.26445 4.85402L8.47343 1.22121C8.3953 0.850113 8.65898 0.479019 9.0203 0.410659C9.3914 0.332534 9.76249 0.557144 9.84062 0.938003Z" fill="black" fill-opacity="0.85"/>
  <path d="M28.9324 9.82472C29.3035 10.1763 29.8211 11.2212 30.2508 12.0513C31.491 14.3169 32.5457 16.3579 33.2586 18.3111C34.7527 22.0903 34.157 25.1763 31.3445 27.9986C29.8768 29.4621 28.1649 30.3627 26.3766 30.6035C27.0274 30.1881 27.6469 29.6831 28.2293 29.1021C31.491 25.8403 32.1941 22.1392 30.5144 17.8325C29.7723 15.7525 28.6687 13.5943 27.4187 11.3189C27.2768 11.0483 27.1326 10.7705 26.987 10.499C27.0432 10.2602 27.1628 10.0575 27.3504 9.87355C27.8289 9.4048 28.4734 9.35597 28.9324 9.82472ZM18.6492 7.59816L21.2611 10.2128C21.1871 10.5897 21.1898 11.0079 21.2762 11.4751L21.8621 12.8325L16.7343 7.69681C16.7618 7.6627 16.7914 7.62978 16.823 7.59816C17.3211 7.10011 18.1414 7.10011 18.6492 7.59816Z" fill="black" fill-opacity="0.85"/>
  <path d="M14.9383 27.8228C18.8934 31.7681 23.698 31.4361 27.1355 27.9986C29.9578 25.1763 30.5535 22.0903 29.0496 18.3111C28.3367 16.3579 27.282 14.3169 26.0516 12.0513C25.6121 11.2212 25.0945 10.1763 24.7332 9.82472C24.2644 9.35597 23.6297 9.4048 23.1414 9.87355C22.6434 10.3716 22.6238 11.0064 23.0144 12.1196L24.4598 15.9673C24.6355 16.4263 24.5867 16.6997 24.4207 16.8657C24.2156 17.0611 23.9324 17.1001 23.5809 16.7388L14.4402 7.59816C13.9422 7.10011 13.1121 7.10011 12.6238 7.59816C12.116 8.09621 12.116 8.91652 12.6238 9.42433L19.1277 15.9185C18.7762 16.0747 18.4148 16.2798 18.0633 16.5142L10.4168 8.86769C9.91874 8.36964 9.08866 8.36964 8.59062 8.86769C8.09257 9.3755 8.09257 10.1861 8.59062 10.6939L16.1297 18.2329C15.8465 18.565 15.5828 18.9165 15.3387 19.2583L8.50273 12.4224C7.99491 11.9146 7.18437 11.9146 6.67655 12.4224C6.18827 12.9204 6.18827 13.7407 6.67655 14.2388L14.1082 21.6607C13.9324 22.1196 13.825 22.5689 13.7469 22.979L8.59062 17.8325C8.10234 17.3247 7.27226 17.3247 6.76445 17.8325C6.27616 18.3306 6.27616 19.1509 6.76445 19.6587Z" fill="black" fill-opacity="0.85"/>
 </g>
</svg>
