<?xml version="1.0" encoding="UTF-8"?>
<!--Generator: Apple Native CoreSVG 326-->
<!DOCTYPE svg
PUBLIC "-//W3C//DTD SVG 1.1//EN"
       "http://www.w3.org/Graphics/SVG/1.1/DTD/svg11.dtd">
<svg version="1.1" xmlns="http://www.w3.org/2000/svg" xmlns:xlink="http://www.w3.org/1999/xlink" viewBox="0 0 28.8184 34.9316">
 <g>
  <rect height="34.9316" opacity="0" width="28.8184" x="0" y="0"/>
  <path d="M3.79883 26.1719C4.33594 28.5938 4.24805 28.6719 6.81641 29.1992C6.98242 29.2285 7.07031 29.3066 7.07031 29.4727C7.07031 29.6289 6.98242 29.707 6.81641 29.7461C4.23828 30.2246 4.22852 30.3027 3.79883 32.7637C3.76953 32.9199 3.69141 32.998 3.53516 32.998C3.38867 32.998 3.30078 32.9199 3.26172 32.7637C2.82227 30.3027 2.8418 30.2637 0.253906 29.7461C0.0976562 29.707 0 29.6289 0 29.4727C0 29.3066 0.0976562 29.2285 0.253906 29.1992C2.8418 28.6719 2.73438 28.5938 3.26172 26.1719C3.30078 26.0156 3.38867 25.9375 3.53516 25.9375C3.69141 25.9375 3.76953 26.0156 3.79883 26.1719ZM18.7305 0.849609C19.1309 3.87695 19.248 3.82812 22.3438 4.43359C22.5195 4.46289 22.6367 4.58008 22.6367 4.75586C22.6367 4.94141 22.5195 5.04883 22.3047 5.07812C19.2285 5.60547 19.1309 5.64453 18.7305 8.66211C18.7109 8.85742 18.584 8.97461 18.3984 8.97461C18.2422 8.97461 18.1055 8.85742 18.0859 8.68164C17.6562 5.6543 17.6074 5.68359 14.4727 5.07812C14.3066 5.04883 14.1797 4.93164 14.1797 4.75586C14.1797 4.58008 14.3066 4.45312 14.4727 4.43359C17.6074 3.94531 17.666 3.89648 18.0859 0.839844C18.1055 0.654297 18.2422 0.537109 18.3984 0.537109C18.584 0.537109 18.7109 0.654297 18.7305 0.849609ZM10.2637 0.214844C10.6836 2.11914 10.6152 2.16797 12.5977 2.55859C12.7539 2.59766 12.832 2.67578 12.832 2.82227C12.832 2.95898 12.7539 3.03711 12.5977 3.07617C10.6055 3.4375 10.5957 3.47656 10.2637 5.42969C10.2246 5.56641 10.1367 5.63477 10.0098 5.63477C9.88281 5.63477 9.78516 5.55664 9.76562 5.42969C9.41406 3.47656 9.42383 3.4668 7.42188 3.07617C7.26562 3.03711 7.1875 2.94922 7.1875 2.82227C7.1875 2.68555 7.26562 2.59766 7.42188 2.55859C9.42383 2.16797 9.33594 2.11914 9.76562 0.214844C9.78516 0.0878906 9.88281 0 10.0098 0C10.1465 0 10.2246 0.078125 10.2637 0.214844Z" fill="black" fill-opacity="0.85"/>
  <path d="M23.6523 10.1367C23.9062 10.3906 24.1309 10.7031 24.3066 11.0938L27.207 17.1875C29.2773 21.5332 28.7793 25.3516 25.7227 28.3984C24.2028 29.9224 22.4561 30.8277 20.6335 31.0496C21.3032 30.653 21.944 30.1459 22.5488 29.541C22.9849 29.1049 23.3689 28.6535 23.6948 28.1857C24.0151 27.9508 24.3262 27.6767 24.6289 27.373C27.1289 24.8828 27.8027 21.7676 25.9277 17.8027L22.9688 11.5527C22.666 10.9277 22.1973 10.6738 21.6797 10.9082C21.2012 11.1328 21.0059 11.6406 21.25 12.2461L21.7285 13.4715L21.1426 12.2363C20.957 11.8457 20.7324 11.5234 20.4785 11.2695C20.354 11.145 20.2216 11.0387 20.0829 10.9521C20.1788 10.6515 20.3437 10.3827 20.5664 10.1562C21.4453 9.27734 22.7539 9.23828 23.6523 10.1367ZM13.6328 7.75391L17.2916 11.4079C16.9306 11.8259 16.7558 12.3789 16.8273 12.9992L12.6855 8.85742C12.2559 8.42773 11.6992 8.39844 11.2988 8.79883C11.1123 8.98534 11.0126 9.20416 11.0008 9.4278L10.459 8.88672C10.296 8.72369 10.1265 8.58708 9.95258 8.47942C10.0426 8.18415 10.2093 7.91214 10.4395 7.67578C11.377 6.73828 12.627 6.74805 13.6328 7.75391ZM7.26562 8.81836C6.9043 9.17969 6.69922 9.63867 6.69922 10.1367C6.58175 10.0423 6.46238 9.95885 6.34166 9.8875C6.44457 9.58867 6.62217 9.30557 6.875 9.05273C7.08432 8.84341 7.30894 8.68507 7.5435 8.57788C7.44784 8.64758 7.3553 8.72868 7.26562 8.81836Z" fill="black" fill-opacity="0.85"/>
  <path d="M22.5488 29.541C25.6055 26.4844 26.1035 22.6758 24.0332 18.3301L21.1426 12.2363C20.957 11.8457 20.7324 11.5234 20.4785 11.2695C19.5801 10.3711 18.2715 10.4199 17.3926 11.2988C16.8066 11.8848 16.6211 12.7832 17.0312 13.7695L18.0469 16.1816C18.0762 16.2402 18.0664 16.2891 18.0371 16.3281C17.9883 16.3672 17.9297 16.3574 17.8906 16.3086L10.459 8.88672C9.45312 7.88086 8.20312 7.88086 7.26562 8.81836C6.9043 9.17969 6.69922 9.63867 6.69922 10.1367C5.70312 9.33594 4.57031 9.32617 3.70117 10.1953C2.85156 11.0449 2.85156 12.2266 3.61328 13.1934C3.13477 13.1836 2.69531 13.3887 2.36328 13.7207C1.47461 14.5996 1.50391 15.8203 2.4707 16.7871L3.51562 17.8418C3.01758 17.8223 2.5293 18.0469 2.14844 18.418C1.26953 19.3066 1.30859 20.5664 2.28516 21.543L9.87305 29.1406C14.0137 33.2812 18.9258 33.1641 22.5488 29.541ZM21.4551 28.5156C18.3594 31.6113 14.3945 31.6211 10.7812 28.0078L3.39844 20.625C2.96875 20.1953 2.92969 19.6484 3.33984 19.2383C3.75 18.8379 4.32617 18.8379 4.75586 19.2676L9.25781 23.7695C9.57031 24.082 9.99023 24.043 10.2441 23.7891C10.5078 23.5254 10.5566 23.0957 10.2441 22.7832L3.47656 16.0254C3.04688 15.5957 3.00781 15.0488 3.41797 14.6387C3.82812 14.2383 4.4043 14.2383 4.83398 14.668L11.1426 20.9766C11.4551 21.2891 11.875 21.25 12.1289 20.9961C12.3926 20.7324 12.4414 20.3027 12.1289 19.9902L4.74609 12.6074C4.31641 12.1777 4.28711 11.5918 4.6875 11.1816C5.08789 10.791 5.66406 10.8301 6.09375 11.25L13.4863 18.6426C13.7598 18.9258 14.1895 18.9258 14.4629 18.6523C14.7461 18.3789 14.7461 17.9395 14.4727 17.6562L8.1543 11.3477C7.73438 10.918 7.71484 10.3418 8.125 9.93164C8.52539 9.53125 9.08203 9.56055 9.51172 9.99023L18.2227 18.7012C18.6426 19.1211 19.1309 19.1016 19.4824 18.75C19.7852 18.457 19.9023 18.0664 19.6777 17.4805L18.0762 13.3887C17.832 12.7734 18.0273 12.2656 18.5059 12.0508C19.0234 11.8066 19.4922 12.0605 19.7949 12.6855L22.7637 18.9355C24.6289 22.9004 23.9551 26.0156 21.4551 28.5156Z" fill="black" fill-opacity="0.85"/>
 </g>
</svg>
