<?xml version="1.0" encoding="UTF-8"?>
<!--Generator: Apple Native CoreSVG 326-->
<!DOCTYPE svg
PUBLIC "-//W3C//DTD SVG 1.1//EN"
       "http://www.w3.org/Graphics/SVG/1.1/DTD/svg11.dtd">
<svg version="1.1" xmlns="http://www.w3.org/2000/svg" xmlns:xlink="http://www.w3.org/1999/xlink" viewBox="0 0 25.0977 27.4121">
 <g>
  <rect height="27.4121" opacity="0" width="25.0977" x="0" y="0"/>
  <path d="M0 17.959C0 21.9238 2.57812 25.2051 5.67383 25.2051L9.58008 25.2051C11.1133 26.0059 12.9785 26.4746 15.0586 26.4746L16.6895 26.4746C18.1836 26.4746 19.4336 26.3965 20.2734 26.1816C21.8555 25.791 22.8418 24.707 22.8418 23.3203C22.8418 22.9883 22.7832 22.7051 22.6855 22.4219C23.5156 21.8359 23.9844 20.957 23.9844 19.9707C23.9844 19.4727 23.8867 18.9746 23.6816 18.584C24.2578 18.0664 24.5801 17.2461 24.5801 16.377C24.5801 15.8008 24.4336 15.1953 24.1699 14.7852C24.5312 14.3262 24.7363 13.6621 24.7363 12.9395C24.7363 11.2402 23.4082 9.89258 21.7188 9.89258L17.2754 9.89258C16.8848 9.89258 16.6406 9.7168 16.6406 9.39453C16.6406 8.07617 18.6523 5.07812 18.6523 2.69531C18.6523 1.12305 17.5684 0 16.0547 0C14.9414 0 14.1992 0.585938 13.4668 2.00195C12.002 4.83398 10.4102 7.05078 7.49023 10.6738L5.22461 10.6738C2.34375 10.6738 0 13.916 0 17.959ZM6.66016 17.9199C6.66016 15.332 7.24609 13.6914 8.86719 11.5234C10.6543 9.13086 13.1152 6.2793 14.8926 2.73438C15.3613 1.82617 15.6543 1.60156 16.1133 1.60156C16.6797 1.60156 17.0508 2.00195 17.0508 2.69531C17.0508 4.64844 15.0391 7.55859 15.0391 9.39453C15.0391 10.6934 16.1035 11.4941 17.4902 11.4941L21.7188 11.4941C22.5195 11.4941 23.1348 12.1191 23.1348 12.9395C23.1348 13.5059 22.959 13.877 22.5293 14.3066C22.2852 14.5117 22.2559 14.7949 22.4707 15.0391C22.8223 15.5273 22.9785 15.8984 22.9785 16.377C22.9785 16.9531 22.7051 17.4414 22.1973 17.832C21.8848 18.0566 21.7676 18.3691 21.9531 18.7402C22.2363 19.248 22.3828 19.5312 22.3828 19.9707C22.3828 20.6152 21.9727 21.123 21.1426 21.543C20.8594 21.6992 20.7812 21.9336 20.9277 22.2168C21.1914 22.8613 21.2305 23.0078 21.2305 23.3203C21.2305 23.9258 20.791 24.4043 19.9023 24.6289C19.1992 24.8145 18.0762 24.8828 16.6992 24.8828L15.166 24.8828C10.0781 24.8828 6.66016 21.9727 6.66016 17.9199ZM1.60156 17.959C1.60156 14.8047 3.32031 12.2754 5.22461 12.2754C5.63477 12.2754 6.03516 12.2754 6.44531 12.2754C5.46875 14.0039 5.05859 15.7422 5.05859 17.8906C5.05859 20.166 5.91797 22.1387 7.46094 23.5938C6.86523 23.5938 6.26953 23.5938 5.67383 23.5938C3.50586 23.5938 1.60156 21.0449 1.60156 17.959Z" fill="black" fill-opacity="0.85"/>
 </g>
</svg>
