<?xml version="1.0" ?><!-- Generator: Adobe Illustrator 25.0.0, SVG Export Plug-In . SVG Version: 6.00 Build 0)  --><svg xmlns="http://www.w3.org/2000/svg" xmlns:xlink="http://www.w3.org/1999/xlink" version="1.1" id="Layer_1" x="0px" y="0px" viewBox="0 0 512 512" style="enable-background:new 0 0 512 512;" xml:space="preserve">
<path d="M364.1,498.6c112.9-41,150.6-134.8,106.6-255.7l-18-49.8c-16.6-45.7-48.7-65.6-73.6-56.7c-5.5,2.2-7.5,6.4-5.5,11.6l8,22.1  c3.9,10.5,0.3,17.4-6.1,19.7c-6.6,2.5-13.8-0.6-17.7-11.1l-5.3-14.7c-9.7-26.8-33.5-38.2-56.7-29.6c-10.5,3.9-13.6,10-10.2,18.8  l10.8,30.2c3.9,10.5,0.6,17.4-5.8,19.9c-6.9,2.2-14.1-0.8-17.7-11.3l-10.2-27.7c-11.1-30.4-33.8-38.2-56.5-29.9  c-10,3.6-13.6,10.2-10.2,18.8l21.3,59c3.9,10.5,0.6,17.4-5.8,19.9c-6.6,2.2-13.8-0.8-17.7-11.3l-72-197.3C114.8,3.9,97.6-4.1,81.3,2  c-17.4,6.4-24.9,23.3-18,42.6l105.2,289c2.8,7.2-0.6,12.5-5,14.1c-4.4,1.7-8.9,0.3-14.7-5.8l-71.1-76.4  c-10.5-11.1-21.3-13.8-32.9-9.4c-18,6.4-24.9,22.7-19.7,37.4c2.2,6.1,5.3,10.5,8.3,14.1L121.1,418  C195.3,510.7,281.1,528.7,364.1,498.6z"/>
</svg>