<?xml version="1.0" encoding="UTF-8"?>
<!--Generator: Apple Native CoreSVG 326-->
<!DOCTYPE svg
PUBLIC "-//W3C//DTD SVG 1.1//EN"
       "http://www.w3.org/Graphics/SVG/1.1/DTD/svg11.dtd">
<svg version="1.1" xmlns="http://www.w3.org/2000/svg" xmlns:xlink="http://www.w3.org/1999/xlink" viewBox="0 0 28.4961 33.3691">
 <g>
  <rect height="33.3691" opacity="0" width="28.4961" x="0" y="0"/>
  <path d="M5.35156 10.8398C5.35156 10.4395 5.0293 10.1172 4.63867 10.1172L0.712891 10.1074C0.322266 10.1074 0 10.4297 0 10.8301C0 11.2207 0.322266 11.543 0.712891 11.543L4.63867 11.5527C5.0293 11.5527 5.35156 11.2305 5.35156 10.8398ZM6.94336 6.96289C7.20703 6.67969 7.22656 6.23047 6.94336 5.94727L4.17969 3.16406C3.89648 2.89062 3.44727 2.90039 3.16406 3.16406C2.89062 3.44727 2.88086 3.89648 3.16406 4.17969L5.91797 6.96289C6.21094 7.24609 6.65039 7.23633 6.94336 6.96289ZM10.8496 5.35156C11.2402 5.35156 11.5625 5.0293 11.5625 4.62891L11.5723 0.712891C11.5723 0.322266 11.25 0 10.8496 0C10.459 0 10.1367 0.322266 10.1367 0.712891L10.127 4.62891C10.127 5.0293 10.4492 5.35156 10.8496 5.35156ZM14.7559 6.97266C15.0391 7.23633 15.4785 7.24609 15.7715 6.97266L18.5352 4.18945C18.8184 3.91602 18.8086 3.4668 18.5352 3.17383C18.252 2.91016 17.8125 2.90039 17.5195 3.17383L14.7559 5.95703C14.4727 6.23047 14.4824 6.67969 14.7559 6.97266Z" fill="black" fill-opacity="0.85"/>
  <path d="M22.5586 30.9766C27.6367 29.1309 29.3164 25.0293 27.3047 19.502L26.5137 17.334C25.7617 15.2637 24.3066 14.3652 23.1738 14.7852C22.9199 14.873 22.832 15.0586 22.9199 15.3027L23.3008 16.3574C23.457 16.7773 23.3105 17.0801 23.0566 17.168C22.7734 17.2754 22.4805 17.1387 22.3242 16.709L22.0703 16.0059C21.6211 14.7852 20.5469 14.2676 19.4824 14.6484C19.0039 14.8242 18.8672 15.0977 19.0137 15.5078L19.5215 16.9238C19.6777 17.3535 19.541 17.6465 19.2773 17.7441C19.0039 17.8418 18.7012 17.7051 18.5547 17.2754L18.0762 15.9668C17.5781 14.5898 16.5332 14.2383 15.5078 14.6094C15.0586 14.7754 14.8926 15.0781 15.0293 15.4688L16.0254 18.1934C16.1816 18.623 16.0449 18.916 15.7812 19.0137C15.5078 19.1113 15.2051 18.9844 15.0488 18.5547L11.8262 9.69727C11.5137 8.82812 10.7422 8.4668 10.0098 8.74023C9.22852 9.02344 8.87695 9.78516 9.19922 10.6641L13.8477 23.4277C13.9551 23.7305 13.8184 23.9648 13.6133 24.043C13.418 24.1113 13.2227 24.0625 12.9785 23.7988L9.76562 20.3809C9.27734 19.8633 8.78906 19.7559 8.27148 19.9414C7.46094 20.2344 7.16797 20.9668 7.41211 21.6504C7.50977 21.9043 7.64648 22.1094 7.7832 22.2852L11.8164 27.373C15.0293 31.416 18.8574 32.3242 22.5586 30.9766Z" fill="black" fill-opacity="0.85"/>
 </g>
</svg>
