<?xml version="1.0" ?><!-- Generator: Adobe Illustrator 25.0.0, SVG Export Plug-In . SVG Version: 6.00 Build 0)  --><svg xmlns="http://www.w3.org/2000/svg" xmlns:xlink="http://www.w3.org/1999/xlink" version="1.1" id="Layer_1" x="0px" y="0px" viewBox="0 0 512 512" style="enable-background:new 0 0 512 512;" xml:space="preserve">
<path d="M65.1,343.9c0,105.6,69.2,168.1,164.3,168.1c76.2,0,123.3-31.9,154.7-95.8c18.4-35.4,32.6-78.1,47.7-127.4  c6.2-20.1,15.1-45.7,15.1-57.2c0-12.9-9.3-21.6-23-21.6c-15.1,0-24.2,9.6-35.2,32.3l-33.3,69.9c-3.4,7.7-7.2,10.5-11,10.5  c-5,0-8.4-2.9-8.4-11.3V60.3c0-14.1-11.5-25.6-25.6-25.6c-14.1,0-25.6,11.5-25.6,25.6V240c-6.5-2.4-13.7-4.3-21.3-5.7V25.9  c0-14.1-11.5-25.9-25.6-25.9c-14.1,0-25.9,11.7-25.9,25.9v205.7c-7.4,0.5-15.1,1.7-22.5,2.9V46.2c0-14.1-11.5-25.6-25.6-25.6  c-14.1,0-25.6,11.5-25.6,25.6v204.5c-7.9,3.8-15.1,7.9-21.6,12.2V120.7c0-14.1-11.5-25.6-25.6-25.6c-14.1,0-25.9,11.5-25.9,25.6  V343.9z"/>
</svg>