<?xml version="1.0" encoding="UTF-8"?>
<!--Generator: Apple Native CoreSVG 326-->
<!DOCTYPE svg
PUBLIC "-//W3C//DTD SVG 1.1//EN"
       "http://www.w3.org/Graphics/SVG/1.1/DTD/svg11.dtd">
<svg version="1.1" xmlns="http://www.w3.org/2000/svg" xmlns:xlink="http://www.w3.org/1999/xlink" viewBox="0 0 27.2949 21.1816">
 <g>
  <rect height="21.1816" opacity="0" width="27.2949" x="0" y="0"/>
  <path d="M27.2559 12.0215C27.2559 7.48047 24.8145 4.28711 20.0488 2.59766L13.3691 0.234375C12.9492 0.078125 12.4609 0 12.0898 0C10.6934 0 9.90234 1.08398 9.90234 2.31445C9.90234 3.21289 10.4297 3.97461 11.4551 4.4043L14.0039 5.44922C14.0625 5.46875 14.0918 5.51758 14.0918 5.57617C14.0918 5.63477 14.043 5.66406 13.9844 5.66406L2.62695 5.66406C1.02539 5.66406 0 6.72852 0 8.20312C0 9.66797 1.02539 10.7324 2.62695 10.7324L7.12891 10.7324C7.03125 11.0645 6.98242 11.4062 6.98242 11.7285C6.98242 12.8516 7.61719 13.7012 8.64258 14.0137C8.51562 14.3945 8.4375 14.7949 8.4375 15.1953C8.4375 16.2793 9.02344 17.0703 9.98047 17.3633C10 19.7559 11.748 21.1426 14.7949 21.1426L17.5586 21.1426C23.7012 21.1426 27.2559 17.4219 27.2559 12.0215ZM25.7031 12.0801C25.7031 16.6797 22.7637 19.6289 17.3926 19.6289L15 19.6289C12.7832 19.6289 11.543 18.9062 11.543 17.6172L13.1152 17.6172C13.5645 17.6172 13.8574 17.2754 13.8574 16.8945C13.8574 16.5039 13.5645 16.1523 13.1152 16.1523L11.1426 16.1523C10.3711 16.1523 9.91211 15.7227 9.91211 15C9.91211 14.7363 9.98047 14.3945 10.0977 14.1309L12.5977 14.1309C13.0664 14.1309 13.3496 13.7988 13.3496 13.4082C13.3496 13.0273 13.0664 12.6758 12.5977 12.6758L9.6875 12.6758C8.90625 12.6758 8.44727 12.2461 8.44727 11.5332C8.44727 11.25 8.51562 10.9277 8.63281 10.6738L12.1094 10.6738C12.5195 10.6738 12.8418 10.3516 12.8418 9.95117C12.8418 9.53125 12.5195 9.20898 12.1094 9.20898L2.5293 9.20898C1.89453 9.20898 1.45508 8.80859 1.45508 8.20312C1.45508 7.60742 1.89453 7.19727 2.5293 7.19727L16.0059 7.19727C16.582 7.19727 16.9824 6.81641 16.9824 6.29883C16.9824 5.84961 16.7773 5.46875 16.1816 5.20508L12.1191 3.44727C11.6211 3.23242 11.3281 2.92969 11.3281 2.46094C11.3281 1.89453 11.7578 1.51367 12.2559 1.51367C12.5 1.51367 12.6758 1.54297 12.8809 1.62109L19.5508 3.99414C23.8867 5.54688 25.7031 8.36914 25.7031 12.0801Z" fill="black" fill-opacity="0.85"/>
 </g>
</svg>
