<?xml version="1.0" encoding="UTF-8"?>
<!--Generator: Apple Native CoreSVG 326-->
<!DOCTYPE svg
PUBLIC "-//W3C//DTD SVG 1.1//EN"
       "http://www.w3.org/Graphics/SVG/1.1/DTD/svg11.dtd">
<svg version="1.1" xmlns="http://www.w3.org/2000/svg" xmlns:xlink="http://www.w3.org/1999/xlink" viewBox="0 0 25.8008 25.459">
 <g>
  <rect height="25.459" opacity="0" width="25.8008" x="0" y="0"/>
  <path d="M25.4395 12.7246C25.4395 19.7266 19.7266 25.4395 12.7148 25.4395C5.71289 25.4395 0 19.7266 0 12.7246C0 5.71289 5.71289 0 12.7148 0C19.7266 0 25.4395 5.71289 25.4395 12.7246ZM6.60156 17.3438C6.60156 18.1445 7.38281 18.6816 8.69141 18.6816C9.85352 18.6816 10.5762 18.457 11.1816 18.0664L9.28711 16.5137C9.18945 16.5137 9.0918 16.5332 8.95508 16.5332C8.68164 16.5332 8.17383 16.4551 7.66602 16.4551C6.99219 16.4551 6.60156 16.8066 6.60156 17.3438ZM11.6992 6.9043C11.6992 7.39258 12.666 8.04688 13.4473 8.50586L16.9727 10.625C16.6211 10.957 16.3574 11.1035 16.0547 11.1035C15.5957 11.1035 15.1367 10.8594 14.4141 10.4297C12.5488 9.36523 11.0938 8.30078 9.14062 8.30078C7.10938 8.30078 5.57617 9.46289 4.74609 11.709C4.0918 11.7285 3.59375 12.1484 3.59375 12.7637C3.59375 13.4766 4.16992 13.9062 4.93164 13.9258C5.81055 15.166 7.25586 15.6641 8.99414 15.6641C9.0918 15.6641 9.17969 15.6543 9.26758 15.6543L11.7188 17.6367C12.3242 18.1348 12.6855 18.2422 13.1543 18.2422C13.5742 18.2422 13.9746 18.0469 14.7656 18.0469C15.5469 18.0469 15.7715 18.2422 16.377 18.2422C17.2754 18.2422 17.7539 17.9004 17.7539 17.2949C17.7539 16.2305 16.5527 15.5273 14.7559 15.5273C13.8574 15.5273 13.4473 15.6152 12.9395 15.7324L12.3047 14.2578C11.6504 12.7637 10.5957 11.875 9.13086 11.875L8.41797 11.875C8.18359 11.875 8.03711 11.7773 8.03711 11.543C8.03711 11.1914 8.53516 11.0938 9.07227 11.0938C10.8496 11.0938 12.1582 12.0801 12.959 14.0234L13.3789 15.0586C13.7793 14.9707 14.248 14.9316 14.6973 14.9316C15.0586 14.9316 15.3418 14.9512 15.6934 15C16.0645 14.7363 16.4844 14.4336 17.0801 14.1016C17.7637 14.6094 18.584 14.9219 19.4434 14.9219C21.0938 14.9219 21.8457 14.5508 21.8457 13.0078C21.8457 11.0547 20.3711 9.59961 18.584 9.6582L16.9629 7.45117C16.084 6.26953 14.9805 5.67383 13.877 5.67383C12.9883 5.67383 11.6992 6.18164 11.6992 6.9043ZM19.7461 12.1777C19.7461 12.4414 19.5215 12.7051 19.2676 12.7051C19.0039 12.7051 18.7891 12.4609 18.7891 12.2168C18.7891 11.9434 19.0137 11.709 19.2773 11.709C19.541 11.709 19.7461 11.9238 19.7461 12.1777Z" fill="black" fill-opacity="0.85"/>
 </g>
</svg>
