<?xml version="1.0" encoding="UTF-8"?>
<!--Generator: Apple Native CoreSVG 326-->
<!DOCTYPE svg
PUBLIC "-//W3C//DTD SVG 1.1//EN"
       "http://www.w3.org/Graphics/SVG/1.1/DTD/svg11.dtd">
<svg version="1.1" xmlns="http://www.w3.org/2000/svg" xmlns:xlink="http://www.w3.org/1999/xlink" viewBox="0 0 25.8008 25.459">
 <g>
  <rect height="25.459" opacity="0" width="25.8008" x="0" y="0"/>
  <path d="M12.7148 25.4395C19.7363 25.4395 25.4395 19.7461 25.4395 12.7246C25.4395 5.70312 19.7363 0 12.7148 0C5.69336 0 0 5.70312 0 12.7246C0 19.7461 5.69336 25.4395 12.7148 25.4395ZM12.7148 23.623C6.68945 23.623 1.81641 18.75 1.81641 12.7246C1.81641 6.69922 6.68945 1.82617 12.7148 1.82617C18.7402 1.82617 23.6133 6.69922 23.6133 12.7246C23.6133 18.75 18.7402 23.623 12.7148 23.623Z" fill="black" fill-opacity="0.85"/>
  <path d="M13.1445 18.1055C13.5547 18.1055 13.9453 17.9102 14.7168 17.9102C15.4785 17.9102 15.7031 18.1055 16.2891 18.1055C17.168 18.1055 17.6367 17.7637 17.6367 17.168C17.6367 16.1426 16.4648 15.4492 14.707 15.4492C13.8281 15.4492 13.4277 15.5273 12.9395 15.6543L12.3145 14.209C11.6797 12.7539 10.6445 11.8848 9.21875 11.8848L8.51562 11.8848C8.29102 11.8848 8.14453 11.7871 8.14453 11.5625C8.14453 11.2207 8.63281 11.123 9.16016 11.123C10.8887 11.123 12.168 12.0898 12.9492 13.9844L13.3594 15C13.75 14.9121 14.209 14.873 14.6484 14.873C15 14.873 15.2832 14.8926 15.625 14.9414C15.9863 14.6777 16.3965 14.3848 16.9727 14.0527C17.6465 14.5508 18.4473 14.8633 19.2773 14.8633C20.8887 14.8633 21.6309 14.502 21.6309 12.998C21.6309 11.084 20.1855 9.6582 18.4473 9.7168L16.8652 7.56836C16.0059 6.40625 14.9219 5.83008 13.8477 5.83008C12.9785 5.83008 11.7285 6.33789 11.7285 7.03125C11.7285 7.50977 12.666 8.14453 13.4277 8.59375L16.875 10.6641C16.5332 10.9863 16.2695 11.1328 15.9766 11.1328C15.5273 11.1328 15.0781 10.8984 14.375 10.4785C12.5488 9.43359 11.1328 8.4082 9.22852 8.4082C7.24609 8.4082 5.74219 9.53125 4.94141 11.7188C4.29688 11.7383 3.80859 12.1484 3.80859 12.7539C3.80859 13.4473 4.36523 13.8672 5.11719 13.8867C5.9668 15.0977 7.38281 15.5859 9.08203 15.5859C9.17969 15.5859 9.26758 15.5762 9.3457 15.5762L11.7383 17.5098C12.334 17.998 12.6855 18.1055 13.1445 18.1055ZM8.7793 18.5254C9.91211 18.5254 10.625 18.3105 11.2109 17.9297L9.36523 16.416C9.26758 16.416 9.16992 16.4258 9.04297 16.4258C8.76953 16.4258 8.27148 16.3574 7.7832 16.3574C7.11914 16.3574 6.73828 16.6992 6.73828 17.207C6.73828 17.998 7.5 18.5254 8.7793 18.5254ZM19.1016 12.6953C18.8477 12.6953 18.6523 12.4609 18.6523 12.2168C18.6523 11.9531 18.8672 11.7285 19.1113 11.7285C19.3848 11.7285 19.5801 11.9336 19.5801 12.1875C19.5801 12.4414 19.3652 12.6953 19.1016 12.6953Z" fill="black" fill-opacity="0.85"/>
 </g>
</svg>
