<?xml version="1.0" encoding="UTF-8"?>
<!--Generator: Apple Native CoreSVG 326-->
<!DOCTYPE svg
PUBLIC "-//W3C//DTD SVG 1.1//EN"
       "http://www.w3.org/Graphics/SVG/1.1/DTD/svg11.dtd">
<svg version="1.1" xmlns="http://www.w3.org/2000/svg" xmlns:xlink="http://www.w3.org/1999/xlink" viewBox="0 0 25.8008 25.459">
 <g>
  <rect height="25.459" opacity="0" width="25.8008" x="0" y="0"/>
  <path d="M12.7148 25.4395C19.7363 25.4395 25.4395 19.7461 25.4395 12.7246C25.4395 5.70312 19.7363 0 12.7148 0C5.69336 0 0 5.70312 0 12.7246C0 19.7461 5.69336 25.4395 12.7148 25.4395ZM12.7148 23.623C6.68945 23.623 1.81641 18.75 1.81641 12.7246C1.81641 6.69922 6.68945 1.82617 12.7148 1.82617C18.7402 1.82617 23.6133 6.69922 23.6133 12.7246C23.6133 18.75 18.7402 23.623 12.7148 23.623Z" fill="black" fill-opacity="0.85"/>
  <path d="M12.7148 6.5918C15.8398 6.5918 17.8809 8.62305 17.8809 11.7285L17.8809 11.8848C17.8027 11.8555 17.7148 11.8457 17.627 11.8457C17.0801 11.8457 16.6895 12.2754 16.6895 12.7832L16.6895 16.6699C16.6895 17.1973 17.0801 17.6074 17.627 17.6074C17.7148 17.6074 17.793 17.6074 17.8613 17.6074C17.832 17.7539 17.7344 17.7832 17.4414 17.8223L14.2383 18.3789C14.0527 18.2324 13.7988 18.1543 13.5547 18.2031L12.2852 18.4277C11.8262 18.4961 11.5234 18.9355 11.6113 19.4043C11.6895 19.834 12.1191 20.166 12.5781 20.0781L13.8477 19.8438C14.1016 19.8047 14.3262 19.6289 14.4434 19.4043L17.627 18.8477C18.3789 18.7207 18.9062 18.3301 18.9062 17.2656L18.9062 17.0215C19.3262 16.9043 19.5801 16.5723 19.5801 16.1133L19.5898 13.3594C19.5898 13.0078 19.4434 12.666 19.1895 12.4609L19.1895 11.7285C19.1895 7.85156 16.5918 5.25391 12.7148 5.25391C8.84766 5.25391 6.25 7.85156 6.25 11.7285L6.25 12.4609C5.99609 12.666 5.85938 13.0078 5.85938 13.3594L5.85938 16.0156C5.85938 16.7578 6.48438 17.0801 6.96289 17.0801C7.08984 17.3828 7.41211 17.6074 7.8125 17.6074C8.34961 17.6074 8.75977 17.207 8.75977 16.6699L8.75977 12.7832C8.75977 12.2559 8.34961 11.8457 7.8125 11.8457C7.73438 11.8457 7.64648 11.8555 7.56836 11.875L7.56836 11.7285C7.56836 8.62305 9.59961 6.5918 12.7148 6.5918Z" fill="black" fill-opacity="0.85"/>
 </g>
</svg>
