<?xml version="1.0" encoding="UTF-8"?>
<!--Generator: Apple Native CoreSVG 326-->
<!DOCTYPE svg
PUBLIC "-//W3C//DTD SVG 1.1//EN"
       "http://www.w3.org/Graphics/SVG/1.1/DTD/svg11.dtd">
<svg version="1.1" xmlns="http://www.w3.org/2000/svg" xmlns:xlink="http://www.w3.org/1999/xlink" viewBox="0 0 28.6524 29.0357">
 <g>
  <rect height="29.0357" opacity="0" width="28.6524" x="0" y="0"/>
  <path d="M4.71279 8.70818C3.79596 10.4642 3.3008 12.5891 3.3008 14.9817C3.3008 15.8877 3.36804 16.8135 3.50294 17.7428C3.78507 17.2792 4.25906 16.9264 4.8926 16.7395C6.27932 16.3392 7.41213 16.9544 7.82229 18.3118L9.65822 24.4446C10.0684 25.8118 9.44338 26.9837 8.08596 27.3841C6.97701 27.7043 6.03044 27.375 5.48716 26.5345C5.05708 26.6846 4.63739 26.5377 4.41408 26.1341C2.56838 22.9114 1.47463 18.761 1.47463 14.9817C1.47463 12.026 2.12885 9.43034 3.33142 7.32681ZM22.69 26.6854C22.1334 27.4131 21.2359 27.6845 20.1953 27.3841C18.8379 26.9837 18.2129 25.8216 18.6231 24.4446L19.0438 23.0392ZM26.8164 14.9817C26.8164 17.6497 26.2665 20.5026 25.2846 23.0779L20.4748 18.2662C20.8955 16.9402 22.0181 16.3438 23.3887 16.7395C24.0273 16.9279 24.5038 17.2827 24.7851 17.7505C24.922 16.8186 24.9903 15.8902 24.9903 14.9817C24.9903 7.90166 20.6446 3.16533 14.1406 3.16533C11.5353 3.16533 9.27785 3.92534 7.51626 5.30226L6.1804 3.96584C8.26735 2.28014 10.9821 1.34892 14.1406 1.34892C21.7676 1.34892 26.8164 6.77861 26.8164 14.9817Z" fill="black" fill-opacity="0.85"/>
  <path d="M25.3613 27.4329C25.6836 27.7552 26.2207 27.7552 26.5332 27.4329C26.8555 27.1009 26.8653 26.5735 26.5332 26.2513L2.80276 2.50127C2.48049 2.179 1.94338 2.16924 1.61135 2.50127C1.29885 2.82353 1.28908 3.36064 1.61135 3.68291Z" fill="black" fill-opacity="0.85"/>
 </g>
</svg>
