<?xml version="1.0" encoding="UTF-8"?>
<!--Generator: Apple Native CoreSVG 326-->
<!DOCTYPE svg
PUBLIC "-//W3C//DTD SVG 1.1//EN"
       "http://www.w3.org/Graphics/SVG/1.1/DTD/svg11.dtd">
<svg version="1.1" xmlns="http://www.w3.org/2000/svg" xmlns:xlink="http://www.w3.org/1999/xlink" viewBox="0 0 25.8008 25.459">
 <g>
  <rect height="25.459" opacity="0" width="25.8008" x="0" y="0"/>
  <path d="M25.4395 12.7344C25.4395 19.7461 19.7266 25.459 12.7148 25.459C5.71289 25.459 0 19.7461 0 12.7344C0 5.73242 5.71289 0.0195312 12.7148 0.0195312C19.7266 0.0195312 25.4395 5.73242 25.4395 12.7344ZM6.09375 11.709L6.09375 12.4707C5.83008 12.6758 5.68359 13.0273 5.68359 13.3984L5.68359 16.1035C5.68359 16.875 6.33789 17.1973 6.82617 17.1973C6.96289 17.5098 7.29492 17.7441 7.69531 17.7441C8.25195 17.7441 8.68164 17.334 8.68164 16.7773L8.68164 12.8027C8.68164 12.2656 8.25195 11.8457 7.69531 11.8457C7.61719 11.8457 7.5293 11.8555 7.45117 11.8652L7.45117 11.709C7.45117 8.53516 9.53125 6.45508 12.7148 6.45508C15.9082 6.45508 17.998 8.53516 17.998 11.709L17.998 11.875C17.9199 11.8555 17.832 11.8457 17.7344 11.8457C17.1777 11.8457 16.7773 12.2754 16.7773 12.8027L16.7773 16.7773C16.7773 17.3242 17.1777 17.7441 17.7344 17.7441C17.832 17.7441 17.9102 17.7441 17.9785 17.7441C17.9492 17.8906 17.8516 17.9199 17.5488 17.9688L14.2676 18.5352C14.0723 18.3887 13.8184 18.3008 13.5645 18.3398L12.2656 18.584C11.7969 18.6523 11.4844 19.1113 11.5723 19.5898C11.6504 20.0293 12.0996 20.3613 12.5684 20.2734L13.8672 20.0391C14.1309 19.9902 14.3555 19.8242 14.4824 19.5801L17.7539 19.0234C18.5254 18.877 19.0625 18.4863 19.0625 17.3926L19.0625 17.1484C19.4922 17.0215 19.7559 16.6797 19.7559 16.2109L19.7656 13.3984C19.7656 13.0273 19.6094 12.6758 19.3457 12.4707L19.3457 11.709C19.3457 7.73438 16.6895 5.07812 12.7148 5.07812C8.75 5.07812 6.09375 7.73438 6.09375 11.709Z" fill="black" fill-opacity="0.85"/>
 </g>
</svg>
