<?xml version="1.0" ?><!-- Generator: Adobe Illustrator 25.0.0, SVG Export Plug-In . SVG Version: 6.00 Build 0)  --><svg xmlns="http://www.w3.org/2000/svg" xmlns:xlink="http://www.w3.org/1999/xlink" version="1.1" id="Layer_1" x="0px" y="0px" viewBox="0 0 512 512" style="enable-background:new 0 0 512 512;" xml:space="preserve">
<path d="M256,512c140,0,256-116,256-256C512,116.2,395.8,0,255.7,0C116,0,0,116.2,0,256C0,396,116.2,512,256,512z M112.2,312v-71.8  c0-72.8,58-125.5,138.8-125.5h9.8c80.6,0,138.5,52.7,138.5,125.5V312c0,9.8-8,17.3-18.6,17.3h-7.3c-6.5,0-11.5-4.8-11.5-11.3v-72.8  c0-56.5-42.4-93.4-106.2-93.4s-106.2,36.9-106.2,93.4V318c0,6.5-5,11.3-11.5,11.3h-7.3C120.2,329.3,112.2,321.8,112.2,312z   M177.9,375.5c-10.5,0-16.6-6-16.6-15.8v-76c0-10,6-15.8,16.6-15.8h12.3c17.3,0,27.1,9.5,27.1,25.9v56.2c0,16.1-9.8,25.6-27.1,25.6  H177.9z M321.3,375.5c-17.3,0-27.1-9.5-27.1-25.6v-56.2c0-16.3,9.8-25.9,27.1-25.9h12.3c10.5,0,16.6,5.8,16.6,15.8v76  c0,9.8-6,15.8-16.6,15.8H321.3z"/>
</svg>