<?xml version="1.0" ?><!-- Generator: Adobe Illustrator 25.0.0, SVG Export Plug-In . SVG Version: 6.00 Build 0)  --><svg xmlns="http://www.w3.org/2000/svg" xmlns:xlink="http://www.w3.org/1999/xlink" version="1.1" id="Layer_1" x="0px" y="0px" viewBox="0 0 512 512" style="enable-background:new 0 0 512 512;" xml:space="preserve">
<path d="M18.6,395.9h13.4c4,0,6.2-2.5,6.2-6.2V250.1c0-117.4,88.4-193.6,217.9-193.6c129.2,0,217.9,76.3,217.9,193.6v139.6  c0,3.7,2.2,6.2,6.2,6.2h13.4c10.6,0,18.6-6.9,18.6-17.1V240.9c0-131.5-103.7-222.8-247.6-222.8h-16.8C103.7,18.1,0,109.4,0,240.9  v137.9C0,389,7.7,395.9,18.6,395.9z M89.9,493.9h23.3c30.2,0,47.3-16.1,47.3-44.6v-107c0-28.5-17.1-44.6-47.3-44.6H89.9  c-16.8,0-26,8.9-26,25.3v145.6C63.9,485.3,73,493.9,89.9,493.9z M399.1,493.9h23.3c16.8,0,26.2-8.7,26.2-25.3V323.1  c0-16.3-9.4-25.3-26.2-25.3h-23.3c-30.2,0-47.3,16.1-47.3,44.6v107C351.8,477.8,368.9,493.9,399.1,493.9z"/>
</svg>