<?xml version="1.0" ?><!-- Generator: Adobe Illustrator 25.0.0, SVG Export Plug-In . SVG Version: 6.00 Build 0)  --><svg xmlns="http://www.w3.org/2000/svg" xmlns:xlink="http://www.w3.org/1999/xlink" version="1.1" id="Layer_1" x="0px" y="0px" viewBox="0 0 512 512" style="enable-background:new 0 0 512 512;" xml:space="preserve">
<path d="M256,512c140,0,256-116.2,256-256C512,116,395.8,0,255.7,0C116,0,0,116,0,256C0,395.8,116.2,512,256,512z M256,469.3  c-118.5,0-213.1-94.9-213.1-213.3S137.3,42.7,255.7,42.7S469.1,137.5,469.3,256S374.5,469.3,256,469.3z M116.7,310  c0,9.5,7.8,16.8,17.8,16.8h7c6.3,0,11-4.8,11-11v-70.5c0-55,41.4-90.4,103.2-90.4s103.2,35.4,103.2,90.4v70.5c0,6.3,4.8,11,11,11h7  c10,0,17.8-7.3,17.8-16.8v-69.3c0-70.8-56.2-121.7-134.3-121.7h-9.3c-78.3,0-134.5,50.9-134.5,121.7V310z M180.2,371.5H192  c16.8,0,26.4-9.3,26.4-24.8v-54.5c0-15.6-9.5-24.8-26.4-24.8h-11.8c-10.3,0-16.1,5.8-16.1,15.3v73.5  C164.1,365.7,169.9,371.5,180.2,371.5z M319.5,371.5h11.8c10.3,0,16.1-5.8,16.1-15.3v-73.5c0-9.5-5.8-15.3-16.1-15.3h-11.8  c-16.8,0-26.4,9.3-26.4,24.8v54.5C293.1,362.2,302.7,371.5,319.5,371.5z"/>
</svg>