<?xml version="1.0" ?><!-- Generator: Adobe Illustrator 25.0.0, SVG Export Plug-In . SVG Version: 6.00 Build 0)  --><svg xmlns="http://www.w3.org/2000/svg" xmlns:xlink="http://www.w3.org/1999/xlink" version="1.1" id="Layer_1" x="0px" y="0px" viewBox="0 0 512 512" style="enable-background:new 0 0 512 512;" xml:space="preserve">
<path d="M71.6,403.5c0,66.3,41.3,108.5,105.9,108.5c48.3,0,84.3-21.1,107.1-62l21.6-38.7c50.7-92.7,134.2-104.7,134.2-223.8  C440.4,75.2,367.7,0,258.6,0C147,0,71.6,75.6,71.6,188.5V403.5z M107.8,401.1V188.5c0-91.5,60.3-152.3,150.8-152.3  c87.4,0,145.5,60.8,145.5,151.3c0,99.7-78,117-130.4,207.5l-20.9,35.8c-17.1,29.8-40.8,43.9-73.7,43.9  C134.7,474.8,107.8,446.9,107.8,401.1z M145.5,333.6c0,25,18.7,41.5,46.8,41.5c36.3-0.2,61-31,61-69.6c0-74-71.6-80.7-71.6-129.4  c0-37.7,30.7-65.6,76.6-65.6c46.6,0,76.6,30.3,76.6,76.6c0,9.8,8.2,18.3,18,18.3c9.8,0,18.3-8.4,18.3-18.3  c0-67.5-45.1-112.9-112.9-112.9c-67.5,0-112.9,42.5-112.9,101.8c0,52.1,49.2,69.2,49.2,92.5C194.8,294.4,145.5,288.7,145.5,333.6z"/>
</svg>