<?xml version="1.0" encoding="UTF-8"?>
<!--Generator: Apple Native CoreSVG 326-->
<!DOCTYPE svg
PUBLIC "-//W3C//DTD SVG 1.1//EN"
       "http://www.w3.org/Graphics/SVG/1.1/DTD/svg11.dtd">
<svg version="1.1" xmlns="http://www.w3.org/2000/svg" xmlns:xlink="http://www.w3.org/1999/xlink" viewBox="0 0 28.1641 27.2559">
 <g>
  <rect height="27.2559" opacity="0" width="28.1641" x="0" y="0"/>
  <path d="M9.08203 21.0254C9.08203 24.4141 11.2109 26.582 14.5215 26.582C17.0215 26.582 18.916 25.4297 20.0781 23.252L21.0938 21.3965C23.7695 16.3281 28.1641 15.8984 28.1641 9.70703C28.1641 3.87695 24.4043 0 18.7598 0C12.9785 0 9.08203 3.93555 9.08203 9.77539ZM10.7129 20.9277L10.7129 9.77539C10.7129 4.89258 13.9355 1.63086 18.7598 1.63086C23.418 1.63086 26.5332 4.87305 26.5332 9.70703C26.5332 15.0098 22.3926 15.6836 19.6484 20.6543L18.6426 22.4219C17.7246 24.0918 16.3965 24.9121 14.5898 24.9121C12.1973 24.9121 10.7129 23.3789 10.7129 20.9277ZM12.8418 17.4609C12.8418 18.6914 13.7793 19.502 15.1758 19.502C17.0215 19.4922 18.3105 17.9395 18.3105 15.9961C18.3105 12.3535 14.4824 11.7871 14.4824 9.13086C14.4824 7.00195 16.1816 5.42969 18.7207 5.42969C21.2988 5.42969 22.959 7.09961 22.959 9.6582C22.959 10.1074 23.3301 10.4785 23.7793 10.4785C24.2188 10.4785 24.5898 10.1074 24.5898 9.6582C24.5898 6.14258 22.2461 3.79883 18.7207 3.79883C15.2148 3.79883 12.8418 6.03516 12.8418 9.13086C12.8418 11.9141 15.4102 12.8223 15.4102 14.0918C15.4102 15.5957 12.8418 15.1953 12.8418 17.4609Z" fill="black" fill-opacity="0.85"/>
  <path d="M2.61719 5.83008C3.7207 5.83008 4.61914 4.94141 4.61914 3.82812C4.61914 2.72461 3.7207 1.82617 2.61719 1.82617C1.50391 1.82617 0.605469 2.72461 0.605469 3.82812C0.605469 4.94141 1.50391 5.83008 2.61719 5.83008Z" fill="black" fill-opacity="0.85"/>
  <path d="M2.61719 12.3535C3.7207 12.3535 4.61914 11.4551 4.61914 10.3516C4.61914 9.23828 3.7207 8.34961 2.61719 8.34961C1.50391 8.34961 0.605469 9.23828 0.605469 10.3516C0.605469 11.4551 1.50391 12.3535 2.61719 12.3535Z" fill="black" fill-opacity="0.85"/>
  <path d="M2.61719 18.8965C3.7207 18.8965 4.61914 17.998 4.61914 16.8945C4.61914 15.7812 3.7207 14.8828 2.61719 14.8828C1.50391 14.8828 0.605469 15.7812 0.605469 16.8945C0.605469 17.998 1.50391 18.8965 2.61719 18.8965Z" fill="black" fill-opacity="0.85"/>
  <path d="M2.61719 25.4102C3.7207 25.4102 4.61914 24.5215 4.61914 23.4082C4.61914 22.3047 3.7207 21.4062 2.61719 21.4062C1.50391 21.4062 0.605469 22.3047 0.605469 23.4082C0.605469 24.5215 1.50391 25.4102 2.61719 25.4102Z" fill="black" fill-opacity="0.85"/>
 </g>
</svg>
