<?xml version="1.0" ?><!-- Generator: Adobe Illustrator 25.0.0, SVG Export Plug-In . SVG Version: 6.00 Build 0)  --><svg xmlns="http://www.w3.org/2000/svg" xmlns:xlink="http://www.w3.org/1999/xlink" version="1.1" id="Layer_1" x="0px" y="0px" viewBox="0 0 512 512" style="enable-background:new 0 0 512 512;" xml:space="preserve">
<path d="M256,512c140,0,256-116.2,256-256C512,116,395.8,0,255.7,0C116,0,0,116,0,256C0,395.8,116.2,512,256,512z M256,469.3  c-118.5,0-213.1-94.9-213.1-213.3S137.3,42.7,255.7,42.7S469.1,137.5,469.3,256S374.5,469.3,256,469.3z M374,390.5  c4.5,4.3,11.8,4.3,16.1,0c4.8-4.8,4.8-11.5,0-16.1l-252.7-253c-4.5-4.5-11.8-4.5-16.3,0c-4.3,4.3-4.3,11.8,0,16.1L374,390.5z   M189.5,146.3l161.9,162.1c21.8-26.1,37.9-55.2,37.9-86.3c0-44.4-30.9-76.5-73.3-76.5c-26.6,0-47.9,15.3-60.2,38.1  c-12.5-22.8-33.4-38.1-60.2-38.1C193.5,145.6,191.5,145.8,189.5,146.3z M307.7,351.1L134.5,177.9c-7.8,12-12.3,27.4-12.3,44.2  c0,65.8,68.8,127.7,121,159.4c4.3,2.5,9.8,5.8,13.1,5.8c3,0,8-3.3,11.8-5.8C280.1,373,294.1,362.7,307.7,351.1z"/>
</svg>