<?xml version="1.0" ?><!-- Generator: Adobe Illustrator 25.0.0, SVG Export Plug-In . SVG Version: 6.00 Build 0)  --><svg xmlns="http://www.w3.org/2000/svg" xmlns:xlink="http://www.w3.org/1999/xlink" version="1.1" id="Layer_1" x="0px" y="0px" viewBox="0 0 512 512" style="enable-background:new 0 0 512 512;" xml:space="preserve">
<path d="M68.2,455.9h375.6c22.9,0,40-5.6,51.2-16.8c11.3-11.2,16.9-28,16.9-50.3V123.4c0-22.3-5.6-39.1-16.9-50.4  c-11.3-11.3-28.4-16.9-51.2-16.9H68.2C45.5,56.1,28.4,61.7,17,73C5.7,84.2,0,101,0,123.4v265.3c0,22.3,5.7,39,17,50.3  C28.4,450.3,45.5,455.9,68.2,455.9z M68.6,420.9c-10.9,0-19.2-2.9-25-8.6c-5.8-5.7-8.7-14.2-8.7-25.5V125.4  c0-11.3,2.9-19.8,8.7-25.6c5.8-5.8,14.1-8.7,25-8.7h374.8c10.7,0,19,2.9,24.9,8.7c5.9,5.8,8.8,14.3,8.8,25.6v261.4  c0,11.3-2.9,19.8-8.8,25.5c-5.9,5.7-14.2,8.6-24.9,8.6H68.6z" class="multicolor-0:systemRedColor hierarchical-0:secondary SFSymbolsPreviewFF3B30" style="fill: #FF3B30;"/>
<path d="M204.3,160.1c-12.3,0-23.2,2.9-32.8,8.6c-9.6,5.7-17,13.5-22.5,23.5c-5.4,9.9-8.1,21.3-8.1,34.2c0,11.4,2.2,22.6,6.5,33.5  c4.3,10.9,10.2,21.4,17.5,31.5c7.3,10.1,15.5,19.6,24.6,28.6c9.1,9,18.5,17.2,28.2,24.6c9.7,7.5,19,14,27.8,19.7  c1.9,1,3.9,2.1,6,3.3c2.1,1.2,3.9,1.7,5.3,1.7c1.3,0,2.9-0.5,4.9-1.6c2-1.1,3.7-2.2,5.3-3.4c8.8-5.8,18.1-12.4,27.8-20  c9.7-7.5,19.1-15.7,28.2-24.6c9.1-8.9,17.4-18.4,24.8-28.4c7.4-10.1,13.2-20.5,17.6-31.4c4.3-10.9,6.5-22,6.5-33.4  c0-12.9-2.8-24.3-8.3-34.2c-5.5-9.9-13-17.7-22.5-23.5c-9.5-5.7-20.4-8.6-32.7-8.6c-11.4,0-21.6,3-30.6,9.1  c-9,6.1-16.1,14-21.5,23.9c-5.4-9.8-12.5-17.8-21.4-23.9C226.1,163.2,215.9,160.1,204.3,160.1z" class="multicolor-0:systemRedColor hierarchical-1:primary SFSymbolsPreviewFF3B30" style="fill: #FF3B30;"/>
</svg>