<?xml version="1.0" ?><!-- Generator: Adobe Illustrator 25.0.0, SVG Export Plug-In . SVG Version: 6.00 Build 0)  --><svg xmlns="http://www.w3.org/2000/svg" xmlns:xlink="http://www.w3.org/1999/xlink" version="1.1" id="Layer_1" x="0px" y="0px" viewBox="0 0 512 512" style="enable-background:new 0 0 512 512;" xml:space="preserve">
<path d="M449.7,488.8c7.4,7.6,19.7,7.6,26.8,0c7.1-7.4,7.4-19.2,0-26.8L32.4,18.1c-7.4-7.4-19.7-7.4-27.1,0  c-7.1,7.1-7.1,19.7,0,26.8L449.7,488.8z M401.5,345.3l28.8,29c51.9-57.1,81.7-117.4,81.7-178.2c0-87.1-59.8-148.7-139.6-148.7  c-45.5,0-82.5,21.7-104.9,54.9c-21.9-33-59.3-54.9-104.9-54.9c-17.7,0-34.5,3.2-49.7,8.9l33,33c4.9-1.7,10.6-2.2,16.2-2.2  c46.3,0,72.9,28.8,88.6,53.4c6.6,9.8,10.8,12.6,16.7,12.6c5.9,0,9.6-3,16.7-12.6c17-24.1,42.6-53.4,88.6-53.4  c57.1,0,99.5,43.6,99.5,109.1C472.4,245.6,444.1,297.3,401.5,345.3z M359.1,440.3L330.8,412c-18.5,15.3-38.4,29.5-58.1,42.8  c-2.5,1.7-4.2,3-5.2,3c-1,0-2.7-1.2-4.9-3C159.5,386.4,62.7,287.7,62.7,196.1c0-16.2,3.2-31,8.6-43.6l-30.8-30.8  c-11.1,21.4-17.5,46.5-17.5,74.3c0,104.9,87.9,208,226.7,296.7c5.2,3.2,12.6,6.6,17.7,6.6c5.2,0,12.6-3.4,18-6.6  C311.9,475.8,336.7,458.3,359.1,440.3z"/>
</svg>