<?xml version="1.0" encoding="UTF-8"?>
<!--Generator: Apple Native CoreSVG 326-->
<!DOCTYPE svg
PUBLIC "-//W3C//DTD SVG 1.1//EN"
       "http://www.w3.org/Graphics/SVG/1.1/DTD/svg11.dtd">
<svg version="1.1" xmlns="http://www.w3.org/2000/svg" xmlns:xlink="http://www.w3.org/1999/xlink" viewBox="0 0 30.0244 28.3496">
 <g>
  <rect height="28.3496" opacity="0" width="30.0244" x="0" y="0"/>
  <path d="M4.76207 7.8713C4.39989 8.65827 4.20166 9.57808 4.20166 10.5957C4.20166 15.3125 9.1333 20.332 14.6021 23.9648C14.7095 24.0332 14.7876 24.0918 14.8364 24.0918C14.8853 24.0918 14.9634 24.0332 15.0708 23.9648C16.2195 23.2004 17.3453 22.3746 18.4029 21.5003L19.6366 22.733C18.4302 23.7141 17.0951 24.6696 15.6567 25.5957C15.4126 25.752 15.0708 25.9082 14.8364 25.9082C14.5923 25.9082 14.2505 25.752 14.0063 25.5957C7.02393 21.0938 2.46338 15.8984 2.46338 10.5957C2.46338 9.08069 2.82731 7.71691 3.47758 6.58792ZM27.1997 10.5957C27.1997 13.7256 25.6143 16.8181 22.8676 19.7514L21.6099 18.4943C23.927 15.9638 25.4712 13.2325 25.4712 10.5957C25.4712 7.17773 23.2349 4.86328 20.2075 4.86328C17.8638 4.86328 16.4771 6.34766 15.5884 7.70508C15.2759 8.14453 15.1001 8.29102 14.8364 8.29102C14.563 8.29102 14.3677 8.1543 14.0747 7.70508C13.2251 6.32812 11.8188 4.86328 9.46533 4.86328C9.00156 4.86328 8.55635 4.9176 8.13785 5.02805L6.76978 3.66057C7.59526 3.31781 8.51042 3.13477 9.48486 3.13477C11.7798 3.13477 13.7427 4.29688 14.8364 6.05469C15.9399 4.28711 17.8833 3.13477 20.188 3.13477C24.2017 3.13477 27.1997 6.24023 27.1997 10.5957Z" fill="black" fill-opacity="0.85"/>
  <path d="M24.2212 25.3906C24.5532 25.7129 25.0903 25.7129 25.4028 25.3906C25.7251 25.0586 25.7349 24.541 25.4028 24.209L2.78564 1.61133C2.47314 1.28906 1.93604 1.2793 1.604 1.61133C1.28174 1.92383 1.28174 2.4707 1.604 2.7832Z" fill="black" fill-opacity="0.85"/>
 </g>
</svg>
