<?xml version="1.0" encoding="UTF-8"?>
<!--Generator: Apple Native CoreSVG 326-->
<!DOCTYPE svg
PUBLIC "-//W3C//DTD SVG 1.1//EN"
       "http://www.w3.org/Graphics/SVG/1.1/DTD/svg11.dtd">
<svg version="1.1" xmlns="http://www.w3.org/2000/svg" xmlns:xlink="http://www.w3.org/1999/xlink" viewBox="0 0 29.9512 22.959">
 <g>
  <rect height="22.959" opacity="0" width="29.9512" x="0" y="0"/>
  <path d="M29.5898 3.76953L29.5898 19.1992C29.5898 21.6797 28.3105 22.959 25.7812 22.959L3.79883 22.959C1.2793 22.959 0 21.6992 0 19.1992L0 3.76953C0 1.26953 1.2793 0 3.79883 0L25.7812 0C28.3105 0 29.5898 1.2793 29.5898 3.76953ZM14.7949 7.70508C14.1602 6.5625 13.0762 5.75195 11.6895 5.75195C9.52148 5.75195 7.93945 7.40234 7.93945 9.6582C7.93945 13.125 11.6602 16.2793 14.1992 17.8809C14.4141 18.0176 14.668 18.1641 14.8145 18.1641C14.9707 18.1641 15.2051 18.0176 15.3906 17.8809C17.8906 16.2109 21.6504 13.125 21.6504 9.6582C21.6504 7.40234 20.0781 5.75195 17.9004 5.75195C16.5332 5.75195 15.4297 6.5625 14.7949 7.70508Z" fill="black" fill-opacity="0.85"/>
 </g>
</svg>
