<?xml version="1.0" ?><!-- Generator: Adobe Illustrator 25.0.0, SVG Export Plug-In . SVG Version: 6.00 Build 0)  --><svg xmlns="http://www.w3.org/2000/svg" xmlns:xlink="http://www.w3.org/1999/xlink" version="1.1" id="Layer_1" x="0px" y="0px" viewBox="0 0 512 512" style="enable-background:new 0 0 512 512;" xml:space="preserve">
<path d="M256,512c140,0,256-116.2,256-256C512,116,395.8,0,255.7,0C116,0,0,116,0,256C0,395.8,116.2,512,256,512z M193.5,141.6  c27.9,0,49.2,15.8,62.2,39.4c12.8-23.6,34.6-39.4,62.2-39.4c43.7,0,75.5,33.1,75.5,79.1c0,67.8-72.3,129.8-125,164.1  c-4,3-9,6.3-12.3,6.3c-3.3,0-9-3.5-13.6-6.3c-53-33.6-124.7-96.4-124.7-164.1C118,174.7,149.6,141.6,193.5,141.6z"/>
</svg>