<?xml version="1.0" encoding="UTF-8"?>
<!--Generator: Apple Native CoreSVG 326-->
<!DOCTYPE svg
PUBLIC "-//W3C//DTD SVG 1.1//EN"
       "http://www.w3.org/Graphics/SVG/1.1/DTD/svg11.dtd">
<svg version="1.1" xmlns="http://www.w3.org/2000/svg" xmlns:xlink="http://www.w3.org/1999/xlink" viewBox="0 0 23.6989 24.8975">
 <g>
  <rect height="24.8975" opacity="0" width="23.6989" x="0" y="0"/>
  <path d="M0.150207 4.10404C-0.19159 4.61185 0.0720823 5.24662 0.716614 5.24662L2.38654 5.24662L2.38654 5.46146C2.38654 9.7974 4.73029 10.5591 4.73029 12.7954C4.73029 15.0513 1.7713 15.813 1.7713 19.9536C1.7713 21.4478 2.15216 22.4927 3.19708 23.8208C3.96857 24.7974 5.492 23.8013 4.67169 22.7173C3.88068 21.6529 3.60724 20.9497 3.60724 19.8365C3.60724 16.7993 6.56622 15.8911 6.56622 12.7954C6.56622 9.69974 4.21271 8.96732 4.21271 5.46146L4.21271 5.24662L5.87286 5.24662C6.51739 5.24662 6.8006 4.62162 6.43927 4.10404L3.94904 0.490756C3.60724-0.0365878 3.01154-0.0561191 2.64044 0.490756ZM8.48029 4.06497C8.13849 4.56302 8.40216 5.19779 9.05646 5.19779L10.7166 5.19779L10.7166 5.41263C10.7166 9.75833 13.0604 10.5103 13.0604 12.7564C13.0604 15.0025 10.1014 15.7642 10.1014 19.9146C10.1014 21.4087 10.4822 22.4439 11.5272 23.7818C12.2986 24.7583 13.8221 23.7622 13.0115 22.6685C12.2205 21.6138 11.9471 20.9107 11.9471 19.7974C11.9471 16.7603 14.8963 15.8521 14.8963 12.7564C14.8963 9.66068 12.5428 8.91849 12.5428 5.41263L12.5428 5.19779L14.2029 5.19779C14.8475 5.19779 15.1307 4.57279 14.7791 4.06497L12.2791 0.441928C11.9373-0.0756503 11.3416-0.0951816 10.9803 0.441928ZM16.8201 4.02591C16.4783 4.52396 16.742 5.15872 17.3865 5.15872L19.0565 5.15872L19.0565 5.37357C19.0565 9.71927 21.3904 10.4712 21.3904 12.7173C21.3904 14.9634 18.4412 15.7251 18.4412 19.8755C18.4412 21.3599 18.8221 22.4048 19.867 23.7427C20.6385 24.7095 22.1522 23.7134 21.3416 22.6294C20.5506 21.5747 20.2772 20.8618 20.2772 19.7486C20.2772 16.7212 23.2361 15.8033 23.2361 12.7173C23.2361 9.62162 20.8826 8.87943 20.8826 5.37357L20.8826 5.15872L22.533 5.15872C23.1873 5.15872 23.4705 4.53372 23.1092 4.02591L20.619 0.402865C20.2772-0.124478 19.6815-0.14401 19.3104 0.402865Z" fill="black" fill-opacity="0.85"/>
 </g>
</svg>
