<?xml version="1.0" encoding="UTF-8"?>
<!--Generator: Apple Native CoreSVG 326-->
<!DOCTYPE svg
PUBLIC "-//W3C//DTD SVG 1.1//EN"
       "http://www.w3.org/Graphics/SVG/1.1/DTD/svg11.dtd">
<svg version="1.1" xmlns="http://www.w3.org/2000/svg" xmlns:xlink="http://www.w3.org/1999/xlink" viewBox="0 0 31.7047 29.4434">
 <g>
  <rect height="29.4434" opacity="0" width="31.7047" x="0" y="0"/>
  <path d="M5.59842 29.4434L13.1668 29.4434C14.8465 29.4434 15.9012 28.3984 15.9012 26.748L15.9012 2.70508C15.9012 1.05469 14.8465 0.00976562 13.1668 0.00976562L5.59842 0.00976562C3.90897 0.00976562 2.85428 1.05469 2.85428 2.70508L2.85428 26.748C2.85428 28.3984 3.90897 29.4434 5.59842 29.4434ZM12.5711 9.52148C12.2195 9.52148 11.9558 9.24805 11.9558 8.88672L11.9558 3.82812C11.9558 3.48633 12.2195 3.20312 12.5711 3.20312C12.9129 3.20312 13.1961 3.48633 13.1961 3.82812L13.1961 8.88672C13.1961 9.24805 12.9129 9.52148 12.5711 9.52148ZM9.95389 9.52148C9.60233 9.52148 9.32889 9.24805 9.32889 8.88672L9.32889 3.82812C9.32889 3.48633 9.60233 3.20312 9.95389 3.20312C10.2957 3.20312 10.5691 3.48633 10.5691 3.82812L10.5691 8.88672C10.5691 9.24805 10.2957 9.52148 9.95389 9.52148ZM12.5711 17.8125C12.2195 17.8125 11.9558 17.5391 11.9558 17.1875L11.9558 12.1191C11.9558 11.7773 12.2195 11.5039 12.5711 11.5039C12.9129 11.5039 13.1961 11.7773 13.1961 12.1191L13.1961 17.1875C13.1961 17.5391 12.9129 17.8125 12.5711 17.8125ZM9.95389 17.8125C9.60233 17.8125 9.32889 17.5391 9.32889 17.1875L9.32889 12.1191C9.32889 11.7773 9.60233 11.5039 9.95389 11.5039C10.2957 11.5039 10.5691 11.7773 10.5691 12.1191L10.5691 17.1875C10.5691 17.5391 10.2957 17.8125 9.95389 17.8125ZM12.5711 26.123C12.2195 26.123 11.9558 25.8398 11.9558 25.498L11.9558 20.4395C11.9558 20.0879 12.2195 19.8047 12.5711 19.8047C12.9129 19.8047 13.1961 20.0879 13.1961 20.4395L13.1961 25.498C13.1961 25.8398 12.9129 26.123 12.5711 26.123ZM9.95389 26.123C9.60233 26.123 9.32889 25.8398 9.32889 25.498L9.32889 20.4395C9.32889 20.0879 9.60233 19.8047 9.95389 19.8047C10.2957 19.8047 10.5691 20.0879 10.5691 20.4395L10.5691 25.498C10.5691 25.8398 10.2957 26.123 9.95389 26.123Z" fill="black" fill-opacity="0.85"/>
  <path d="M20.7547 13.1738C23.9969 13.1738 25.7547 10.4785 28.6355 10.4785C29.3484 10.4785 29.9246 10.625 30.6375 11.0254C31.0379 11.25 31.3894 11.0938 31.575 10.8301C31.7801 10.5176 31.7605 10.0391 31.282 9.76562C30.4617 9.28711 29.5828 9.05273 28.6355 9.05273C25.2957 9.05273 23.5574 11.7578 20.7547 11.7578C20.0515 11.7578 19.4656 11.5918 18.7527 11.1914C18.3719 10.9766 18.0008 11.1133 17.825 11.4062C17.6297 11.7188 17.6492 12.207 18.1082 12.4609C18.9187 12.9688 19.8172 13.1738 20.7547 13.1738ZM20.7644 16.7773C23.9969 16.7773 25.7644 14.0918 28.6355 14.0918C29.3582 14.0918 29.9344 14.2383 30.6472 14.6387C31.0379 14.8633 31.3992 14.707 31.5847 14.4434C31.7801 14.1309 31.7703 13.6426 31.3015 13.3789C30.4715 12.9004 29.5828 12.666 28.6355 12.666C25.3055 12.666 23.5672 15.3613 20.7644 15.3613C20.0515 15.3613 19.4656 15.2051 18.7625 14.8047C18.3816 14.5898 18.0008 14.7266 17.825 15.0195C17.6297 15.332 17.6492 15.8105 18.118 16.0742C18.9285 16.5723 19.8269 16.7773 20.7644 16.7773ZM20.7547 20.3906C23.9969 20.3906 25.7547 17.6953 28.6355 17.6953C29.3484 17.6953 29.9246 17.8516 30.6375 18.252C31.0379 18.4766 31.3894 18.3203 31.575 18.0566C31.7801 17.7441 31.7605 17.2559 31.282 16.9824C30.4617 16.5039 29.5828 16.2695 28.6355 16.2695C25.2957 16.2695 23.5574 18.9746 20.7547 18.9746C20.0515 18.9746 19.4656 18.8184 18.7527 18.418C18.3719 18.2031 18.0008 18.3398 17.825 18.6328C17.6297 18.9453 17.6492 19.4238 18.1082 19.6875C18.9187 20.1855 19.8172 20.3906 20.7547 20.3906Z" fill="black" fill-opacity="0.85"/>
 </g>
</svg>
