<?xml version="1.0" encoding="UTF-8"?>
<!--Generator: Apple Native CoreSVG 326-->
<!DOCTYPE svg
PUBLIC "-//W3C//DTD SVG 1.1//EN"
       "http://www.w3.org/Graphics/SVG/1.1/DTD/svg11.dtd">
<svg version="1.1" xmlns="http://www.w3.org/2000/svg" xmlns:xlink="http://www.w3.org/1999/xlink" viewBox="0 0 28.9355 24.7949">
 <g>
  <rect height="24.7949" opacity="0" width="28.9355" x="0" y="0"/>
  <path d="M5.40039 18.2715C9.28711 18.2715 10.5371 14.9902 14.9219 14.9902C17.2266 14.9902 19.5996 16.2109 22.9785 16.2109C26.582 16.2109 28.0566 15.5371 28.3594 14.6387C28.584 14.2969 28.5059 13.916 27.832 13.2324C27.1973 12.5684 26.8359 11.6113 26.5723 10.2441C25.5273 4.47266 20.2734 0 12.8027 0C5.06836 0 0 5.51758 0 11.4551C0 12.6562 0.185547 14.043 0.400391 14.8633C0.830078 16.5137 3.48633 18.2715 5.40039 18.2715ZM5.40039 16.6797C4.14062 16.6797 2.28516 15.6055 1.98242 14.3652C1.79688 13.6621 1.5918 12.5195 1.5918 11.4551C1.5918 6.43555 5.95703 1.52344 12.8027 1.52344C18.584 1.52344 23.9746 5.08789 24.9902 10.332C25.3418 12.1777 25.7324 13.1836 26.5527 14.043C26.6309 14.1309 26.6309 14.2578 26.4941 14.3066C25.8496 14.541 25.166 14.6289 22.9785 14.6289C19.7754 14.6289 17.2363 13.457 14.9121 13.457C10.4004 13.457 8.96484 16.6797 5.40039 16.6797ZM9.95117 4.91211C10.3809 4.91211 10.7129 4.56055 10.7129 4.0918L10.7129 1.33789L9.17969 1.40625L9.17969 4.10156C9.17969 4.56055 9.52148 4.91211 9.95117 4.91211ZM13.6133 5.51758C14.0527 5.51758 14.3945 5.17578 14.3945 4.70703L14.3945 0.986328L12.8418 0.986328L12.8418 4.7168C12.8418 5.17578 13.1738 5.51758 13.6133 5.51758ZM17.3047 4.92188C17.7344 4.92188 18.0762 4.57031 18.0762 4.0918L18.0762 1.60156L16.5332 1.48438L16.5332 4.11133C16.5332 4.57031 16.8652 4.92188 17.3047 4.92188ZM3.51562 12.5195C3.92578 12.7051 4.36523 12.5586 4.54102 12.1484C4.72656 11.7676 4.54102 11.3281 4.12109 11.1426L0.996094 9.7168L0.458984 11.1426ZM16.3281 24.7266C16.7871 24.6484 17.0215 24.3066 16.9434 23.8477C16.7285 22.6465 16.543 21.5527 16.5234 19.9707C16.4941 18.4766 16.5332 16.543 16.6113 14.6289L15.0098 14.5117C14.9512 16.5039 14.8926 18.5156 14.9707 20.0586C15.0586 21.875 15.166 22.7344 15.4395 24.1016C15.5176 24.5508 15.918 24.7949 16.3281 24.7266ZM15.6543 21.6113L15.7812 19.873L9.73633 15.8008L8.61328 16.8164Z" fill="black" fill-opacity="0.85"/>
 </g>
</svg>
