<?xml version="1.0" ?><!-- Generator: Adobe Illustrator 25.0.0, SVG Export Plug-In . SVG Version: 6.00 Build 0)  --><svg xmlns="http://www.w3.org/2000/svg" xmlns:xlink="http://www.w3.org/1999/xlink" version="1.1" id="Layer_1" x="0px" y="0px" viewBox="0 0 512 512" style="enable-background:new 0 0 512 512;" xml:space="preserve">
<path d="M49.9,406.7l164.3,93.2c27.9,16.1,55.1,16.3,83.5,0l164.3-93.2c22-12.5,33.8-25.3,33.8-59.6v-184c0-33.3-12.1-45.4-32.2-57  L298.9,12.5c-29.3-16.8-57.2-16.6-85.8,0L48.5,106.1c-20.3,11.6-32.4,23.6-32.4,57v184C16.1,381.4,28.2,394.2,49.9,406.7z   M72.4,373.6c-13.5-7.6-18-14.9-18-27.7V164.8c0-11.8,4.7-18.7,16.6-25.5l158.9-91c17.7-10.2,34.1-10.6,52.5,0l158.7,91  c12.1,6.9,16.6,13.7,16.6,25.5v181.1c0,12.8-4.5,20.1-17.7,27.7l-157.5,89.6c-18.9,10.6-34.3,10.4-52.5,0L72.4,373.6z"/>
</svg>