<?xml version="1.0" ?><!-- Generator: Adobe Illustrator 25.0.0, SVG Export Plug-In . SVG Version: 6.00 Build 0)  --><svg xmlns="http://www.w3.org/2000/svg" xmlns:xlink="http://www.w3.org/1999/xlink" version="1.1" id="Layer_1" x="0px" y="0px" viewBox="0 0 512 512" style="enable-background:new 0 0 512 512;" xml:space="preserve">
<path d="M59.9,382.1H155v-32.5H61.6c-18.8,0-29.1-10.5-29.1-28.6V69.4c0-18.2,10.3-28.6,29.1-28.6h131.3c4.3,0,6.6,2.4,6.8,6.4  c0.4,0.6,0.9,1.9,1.3,2.1c18.4-14.8,34.8-18.2,76.3-17.3c-0.4-0.9-0.9-2.6-1.3-3.4c-10.3-15-26.9-20.3-45.5-20.3H59.9  C20.3,8.2,0,29,0,68.7v252.9C0,361.6,20.3,382.1,59.9,382.1z M184.3,122v321.1c0,40.4,20.1,60.7,59.9,60.7h207.8  c40,0,60.1-20.3,60.1-60.7V122c0-40.4-19.9-60.7-60.1-60.7H244.1C204.2,61.2,184.3,81.6,184.3,122z M101.8,108.1  c0,24.2,19.5,43.6,43.6,43.6c3.2,0,6.4-0.4,9.6-1.1v-22.2c-2.8,1.3-6.2,2.1-9.6,2.1c-12.6,0-22.4-9.8-22.4-22.4  c0-12.2,9.8-22.2,22.4-22.2c5.6,0,10.9,2.4,14.5,5.8c1.7-7.3,4.3-13.9,7.7-20.1c-6.4-4.1-14.1-6.8-22.2-6.8  C121.2,64.7,101.8,84.1,101.8,108.1z M218.7,122.4c0-17.5,9-26.7,26.9-26.7h205c17.7,0,26.9,9.2,26.9,26.7v320.2  c0,17.3-9.2,26.7-26.9,26.7h-205c-17.7,0-26.9-9.4-26.9-26.7V122.4z M348,226.7c26.9,0,49.2-21.4,48.7-48.3  c-0.2-27.1-21.8-48.1-48.7-48.3c-26.7-0.2-48.5,21.2-48.5,48.3C299.5,205.3,321.3,226.7,348,226.7z M348,203.2  c-13.7,0-24.8-11.3-24.8-24.8c0-14.3,11.1-24.8,24.8-24.8c13.5,0,25,10.9,25,24.8C373,191.9,361.9,203.2,348,203.2z M66.9,247  c0,43.4,34.8,78.2,78.2,78.2c3.2,0,6.6-0.4,9.8-0.6v-46.2c-3.2,0.9-6.6,1.5-10,1.5c-18.2,0-32.7-14.5-32.7-32.5  c0-18.2,14.5-32.7,32.7-32.7c3.4,0,6.8,0.6,10,1.5v-46.4c-3.2-0.2-6.6-0.6-9.8-0.6C101.8,169.2,66.9,204.1,66.9,247z M348,434.9  c48.3,0,87.4-38.7,87.4-87.2c0-48.5-39.1-87-87.4-87.2c-48.3-0.4-87.2,38.7-87.2,87.2C260.8,396.2,299.7,434.9,348,434.9z   M348,384.7c-20.3,0-37-16.5-37-37c0-21.2,16.2-37.2,37-37.2c20.9,0,37.2,16,37.2,37.2C385.2,368.2,369,384.7,348,384.7z"/>
</svg>