<?xml version="1.0" ?><!-- Generator: Adobe Illustrator 25.0.0, SVG Export Plug-In . SVG Version: 6.00 Build 0)  --><svg xmlns="http://www.w3.org/2000/svg" xmlns:xlink="http://www.w3.org/1999/xlink" version="1.1" id="Layer_1" x="0px" y="0px" viewBox="0 0 512 512" style="enable-background:new 0 0 512 512;" xml:space="preserve">
<path d="M66.4,70.2v371.5c0,46.7,23.3,70.2,69.5,70.2h240.4c46.3,0,69.3-23.5,69.3-70.2V70.2c0-46.7-23-70.2-69.3-70.2H135.9  C89.7,0,66.4,23.5,66.4,70.2z M256.1,187.2c-32.2,0-57.9-25.7-57.9-57.9c0-32.4,25.7-57.9,57.9-57.6C288,72,313.8,97.2,314,129.4  C314.5,161.5,288,187.2,256.1,187.2z M256.1,158.8c16.3,0,29.4-13.4,29.4-29.4c0-16.3-13.4-29.4-29.4-29.4  c-16.6,0-29.4,12.4-29.4,29.4C226.7,145.4,239.6,158.8,256.1,158.8z M256.1,440.3c-57.6,0-104.1-46-104.1-103.9  c0-58.1,46.5-104.4,104.1-104.1c57.6,0.2,104.1,46,104.1,104.1C360.3,394.3,313.8,440.3,256.1,440.3z M256.1,380.4  c24.7,0,44-19.8,44-44c0-25.2-19.3-44.5-44-44.5c-25,0-44,19.3-44,44.5C212.1,360.6,231.9,380.4,256.1,380.4z"/>
</svg>