<?xml version="1.0" encoding="UTF-8"?>
<!--Generator: Apple Native CoreSVG 326-->
<!DOCTYPE svg
PUBLIC "-//W3C//DTD SVG 1.1//EN"
       "http://www.w3.org/Graphics/SVG/1.1/DTD/svg11.dtd">
<svg version="1.1" xmlns="http://www.w3.org/2000/svg" xmlns:xlink="http://www.w3.org/1999/xlink" viewBox="0 0 19.3262 25.7715">
 <g>
  <rect height="25.7715" opacity="0" width="19.3262" x="0" y="0"/>
  <path d="M0 3.41797L0 22.334C0 24.5996 1.14258 25.7617 3.38867 25.7617L15.5762 25.7617C17.8223 25.7617 18.9648 24.5996 18.9648 22.334L18.9648 3.41797C18.9648 1.15234 17.832 0 15.5762 0L3.38867 0C1.13281 0 0 1.15234 0 3.41797ZM1.72852 3.44727C1.72852 2.31445 2.31445 1.72852 3.44727 1.72852L15.5176 1.72852C16.6504 1.72852 17.2363 2.31445 17.2363 3.44727L17.2363 22.3145C17.2363 23.4277 16.6406 24.0332 15.5176 24.0332L3.44727 24.0332C2.32422 24.0332 1.72852 23.4277 1.72852 22.3145ZM9.48242 21.9043C12.3438 21.9043 14.6484 19.6191 14.6484 16.7383C14.6484 13.8574 12.3438 11.582 9.48242 11.5723C6.62109 11.5527 4.31641 13.8574 4.31641 16.7383C4.31641 19.6191 6.62109 21.9043 9.48242 21.9043ZM9.48242 19.0234C8.22266 19.0234 7.1875 18.0078 7.1875 16.7383C7.1875 15.4297 8.19336 14.4336 9.48242 14.4336C10.7715 14.4336 11.7773 15.4297 11.7773 16.7383C11.7773 18.0078 10.7715 19.0234 9.48242 19.0234ZM9.48242 9.48242C11.0449 9.48242 12.3242 8.24219 12.3047 6.66992C12.2949 5.10742 11.0449 3.88672 9.48242 3.86719C7.91992 3.84766 6.66016 5.09766 6.66016 6.66992C6.66016 8.24219 7.91992 9.48242 9.48242 9.48242ZM9.48242 8.26172C8.60352 8.26172 7.89062 7.53906 7.89062 6.66992C7.89062 5.76172 8.59375 5.08789 9.48242 5.08789C10.3418 5.08789 11.0742 5.80078 11.0742 6.66992C11.0742 7.53906 10.3613 8.26172 9.48242 8.26172Z" fill="black" fill-opacity="0.85"/>
 </g>
</svg>
