<?xml version="1.0" encoding="UTF-8"?>
<!--Generator: Apple Native CoreSVG 326-->
<!DOCTYPE svg
PUBLIC "-//W3C//DTD SVG 1.1//EN"
       "http://www.w3.org/Graphics/SVG/1.1/DTD/svg11.dtd">
<svg version="1.1" xmlns="http://www.w3.org/2000/svg" xmlns:xlink="http://www.w3.org/1999/xlink" viewBox="0 0 32.9883 22.6465">
 <g>
  <rect height="22.6465" opacity="0" width="32.9883" x="0" y="0"/>
  <path d="M0.830078 13.9062C0.380859 13.9062 0 13.5156 0 13.0566C0 12.5879 0.380859 12.1973 0.830078 12.1973L11.5918 12.207L13.1348 12.2656L12.3633 11.5234L10.4004 9.66797C10.2246 9.52148 10.1367 9.29688 10.1367 9.08203C10.1367 8.63281 10.459 8.30078 10.8984 8.30078C11.1328 8.30078 11.2988 8.38867 11.4648 8.55469L15.2344 12.4316C15.4395 12.6465 15.5176 12.832 15.5176 13.0566C15.5176 13.2715 15.4395 13.4668 15.2344 13.6719L11.4648 17.5488C11.2988 17.7148 11.1328 17.8027 10.8984 17.8027C10.459 17.8027 10.1367 17.4609 10.1367 17.0215C10.1367 16.8066 10.2246 16.582 10.4004 16.4355L12.3633 14.5801L13.1348 13.8477L11.5918 13.9062ZM16.3184 22.6465C20.9961 22.6465 22.8418 22.0312 24.6094 20.3906C27.1387 18.0664 28.6523 14.707 28.6523 11.1035C28.6523 8.0957 27.6172 5.25391 25.4102 3.00781C24.9805 2.51953 24.5215 2.5 24.1113 2.8418C22.5684 4.27734 20.3027 5.01953 16.3184 5.01953C12.3242 5.01953 10.0586 4.27734 8.51562 2.8418C8.10547 2.5 7.64648 2.51953 7.2168 3.00781C5.01953 5.25391 3.97461 8.0957 3.97461 11.1035C3.97461 14.707 5.48828 18.0664 8.02734 20.3906C9.78516 22.0312 11.6309 22.6465 16.3184 22.6465ZM16.3184 3.45703C19.9023 3.45703 22.3242 2.76367 22.3242 1.80664C22.3242 0.839844 19.9023 0.146484 16.3184 0.146484C12.7246 0.146484 10.3027 0.839844 10.3027 1.80664C10.3027 2.76367 12.7246 3.45703 16.3184 3.45703Z" fill="black" fill-opacity="0.85"/>
 </g>
</svg>
