<?xml version="1.0" encoding="UTF-8"?>
<!--Generator: Apple Native CoreSVG 326-->
<!DOCTYPE svg
PUBLIC "-//W3C//DTD SVG 1.1//EN"
       "http://www.w3.org/Graphics/SVG/1.1/DTD/svg11.dtd">
<svg version="1.1" xmlns="http://www.w3.org/2000/svg" xmlns:xlink="http://www.w3.org/1999/xlink" viewBox="0 0 35.332 32.4512">
 <g>
  <rect height="32.4512" opacity="0" width="35.332" x="0" y="0"/>
  <path d="M19.6582 4.59961C20.402 5.49733 21.0186 6.81423 21.1606 8.75354C20.5538 8.77977 19.9753 8.83115 19.4245 8.90655C19.3413 8.01578 19.1008 7.19262 18.6328 6.44531C17.207 7.67578 14.4336 8.21289 11.1914 8.21289C7.95898 8.21289 5.18555 7.67578 3.75977 6.44531C3.1543 7.41211 2.92969 8.50586 2.92969 9.70703L2.92969 19.0137C2.92969 23.3009 5.13765 25.2811 10.5239 25.4249C10.7706 26.0324 11.0686 26.6153 11.42 27.1634C11.3475 27.1677 11.2697 27.168 11.1914 27.168C4.89258 27.168 1.19141 25.2441 1.19141 19.209L1.19141 9.61914C1.19141 7.19727 1.88477 5.625 2.73438 4.59961C3.02734 4.25781 3.47656 4.23828 3.81836 4.55078C4.96094 5.67383 7.97852 6.48438 11.1914 6.48438C14.4141 6.48438 17.4219 5.67383 18.5742 4.55078C18.916 4.23828 19.3652 4.25781 19.6582 4.59961Z" fill="black" fill-opacity="0.425"/>
  <path d="M17.1094 3.25195C17.1094 4.22852 14.4238 4.93164 11.1914 4.93164C7.95898 4.93164 5.2832 4.22852 5.2832 3.25195C5.2832 2.27539 7.95898 1.58203 11.1914 1.58203C14.4238 1.58203 17.1094 2.27539 17.1094 3.25195Z" fill="black" fill-opacity="0.85"/>
  <path d="M22.4023 30.8984C26.7285 30.8984 28.4277 30.3125 30.0391 28.8184C32.373 26.6895 33.7695 23.5645 33.7695 20.2539C33.7695 17.4316 32.7637 14.8438 30.9277 12.9883C30.4785 12.4609 29.7363 12.373 29.1602 12.7734C27.9883 13.8672 26.2012 14.6289 22.4023 14.6289C18.6035 14.6289 16.8164 13.8672 15.6348 12.7734C15.0586 12.373 14.3262 12.4512 13.877 12.9883C12.0312 14.8438 11.0352 17.4219 11.0352 20.2539C11.0352 23.5645 12.4219 26.6895 14.7559 28.8184C16.3672 30.3125 18.0762 30.8984 22.4023 30.8984ZM22.4023 29.0723C18.7402 29.0723 17.3242 28.7109 16.0059 27.4707C14.0039 25.6348 12.8711 23.0273 12.8711 20.2539C12.8711 17.8809 13.6914 15.5859 15.5957 13.7793L14.2383 14.1406C15.6836 15.6055 18.3594 16.4551 22.4023 16.4551C26.4453 16.4551 29.1211 15.6055 30.5664 14.1309L29.1992 13.7793C31.1133 15.5762 31.9434 17.8711 31.9434 20.2539C31.9434 23.0273 30.8008 25.6348 28.7891 27.4707C27.4609 28.7109 26.0645 29.0723 22.4023 29.0723Z" fill="black" fill-opacity="0.425"/>
  <path d="M22.4023 13.3008C25.6152 13.3008 27.8223 12.666 27.8223 11.7969C27.8223 10.8984 25.6152 10.2832 22.4023 10.2832C19.1797 10.2832 16.9727 10.8984 16.9727 11.7969C16.9727 12.666 19.1797 13.3008 22.4023 13.3008Z" fill="black" fill-opacity="0.85"/>
 </g>
</svg>
