<?xml version="1.0" encoding="UTF-8"?>
<!--Generator: Apple Native CoreSVG 326-->
<!DOCTYPE svg
PUBLIC "-//W3C//DTD SVG 1.1//EN"
       "http://www.w3.org/Graphics/SVG/1.1/DTD/svg11.dtd">
<svg version="1.1" xmlns="http://www.w3.org/2000/svg" xmlns:xlink="http://www.w3.org/1999/xlink" viewBox="0 0 32.5195 32.2363">
 <g>
  <rect height="32.2363" opacity="0" width="32.5195" x="0" y="0"/>
  <path d="M17.9395 4.21875C18.7065 5.12962 19.3229 6.52061 19.3436 8.65234L15.8105 8.65234C13.6621 8.65234 11.875 8.94531 10.5176 10.3125C9.15039 11.6699 8.86719 13.4473 8.86719 15.5957L8.86719 24.6413C3.54852 24.3214 1.19141 22.0614 1.19141 17.4609L1.19141 8.76953C1.19141 6.57227 1.82617 5.14648 2.59766 4.21875C2.86133 3.89648 3.28125 3.87695 3.58398 4.16992C4.62891 5.18555 7.36328 5.91797 10.2734 5.91797C13.1738 5.91797 15.918 5.18555 16.9531 4.16992C17.2656 3.87695 17.6758 3.89648 17.9395 4.21875Z" fill="black" fill-opacity="0.425"/>
  <path d="M15.6348 2.99805C15.6348 3.87695 13.3789 4.51172 10.2734 4.51172C7.16797 4.51172 4.91211 3.87695 4.91211 2.99805C4.91211 2.10938 7.16797 1.48438 10.2734 1.48438C13.3789 1.48438 15.6348 2.10938 15.6348 2.99805Z" fill="black" fill-opacity="0.85"/>
  <path d="M15.8594 30.6738L25.5273 30.6738C27.3828 30.6738 28.7793 30.4785 29.7754 29.4824C30.7812 28.4863 30.957 27.0996 30.957 25.2539L30.957 15.6445C30.957 13.7891 30.7812 12.4023 29.7754 11.4062C28.7793 10.4102 27.3828 10.2148 25.5273 10.2148L15.8105 10.2148C14.0234 10.2148 12.6172 10.4102 11.6211 11.416C10.6152 12.4121 10.4297 13.7988 10.4297 15.5859L10.4297 25.2539C10.4297 27.0996 10.6152 28.4863 11.6113 29.4824C12.6172 30.4785 14.0137 30.6738 15.8594 30.6738ZM18.8477 21.8359C18.6914 22.3926 18.3301 23.0371 17.8516 23.4961C17.7051 23.6328 17.5098 23.7305 17.2363 23.7305C16.9922 23.7305 16.8457 23.6426 16.6211 23.5742C16.4941 23.5352 16.2988 23.4277 16.0742 23.4277C15.5371 23.4277 15.3027 23.75 14.873 23.75C14.5703 23.75 14.3262 23.5742 14.0137 23.2129C13.3984 22.5195 12.9785 21.4355 12.9785 20.5078C12.9785 19.9219 13.125 19.3848 13.4961 18.9355C13.7988 18.5547 14.2578 18.3203 14.8242 18.3203C15.3418 18.3203 15.6543 18.6426 15.9277 18.6426C16.2598 18.6426 16.6309 18.3105 17.3047 18.3105C17.8809 18.3105 18.3691 18.5449 18.6816 19.0039C18.2617 19.248 18.0957 19.541 18.0176 19.7852C17.8906 20.1465 17.8516 20.5762 18.0176 21.0059C18.1836 21.3965 18.4375 21.6602 18.8477 21.8359ZM15.8984 18.125C15.8691 17.334 16.5234 16.5527 17.3828 16.5039C17.4414 17.2754 16.7676 18.2227 15.8984 18.125ZM21.7773 17.0312L21.7773 18.3105L22.8027 18.3105L22.8027 19.1602L21.7773 19.1602L21.7773 22.1387C21.7773 22.627 21.9922 22.8223 22.4316 22.8223C22.5391 22.8223 22.7344 22.8223 22.793 22.7832L22.793 23.6914C22.6953 23.7012 22.4316 23.7305 22.1973 23.7305C21.0938 23.7305 20.6641 23.3496 20.6641 22.2656L20.6641 19.1602L19.9121 19.1602L19.9121 18.3105L20.6641 18.3105L20.6641 17.0312ZM26.4551 23.6914L25.293 23.6914L23.3105 18.3105L24.4824 18.3105L25.8691 22.627L27.1875 18.3105L28.3984 18.3105Z" fill="black" fill-opacity="0.85"/>
 </g>
</svg>
