<?xml version="1.0" encoding="UTF-8"?>
<!--Generator: Apple Native CoreSVG 326-->
<!DOCTYPE svg
PUBLIC "-//W3C//DTD SVG 1.1//EN"
       "http://www.w3.org/Graphics/SVG/1.1/DTD/svg11.dtd">
<svg version="1.1" xmlns="http://www.w3.org/2000/svg" xmlns:xlink="http://www.w3.org/1999/xlink" viewBox="0 0 30.7227 23.1586">
 <g>
  <rect height="23.1586" opacity="0" width="30.7227" x="0" y="0"/>
  <path d="M0.869141 15.383L12.1191 15.383C13.5156 15.383 15 15.5881 16.4844 16.008C19.9609 16.9357 22.9492 19.0353 26.2402 22.2482C27.832 23.9279 30.3613 23.1467 30.3613 20.715L30.3613 2.42401C30.3613-0.00762864 27.832-0.779113 26.2402 0.890809C21.6113 5.50018 17.041 7.75604 12.1191 7.75604L0.869141 7.75604ZM0.869141 16.7892C1.33789 16.7892 1.72852 16.3986 1.72852 15.9299L1.72852 7.1994C1.72852 6.73065 1.33789 6.34003 0.869141 6.34003C0.390625 6.34003 0 6.73065 0 7.1994L0 15.9299C0 16.3986 0.390625 16.7892 0.869141 16.7892ZM3.11523 17.4533C3.11523 19.4162 4.72656 21.0275 6.68945 21.0275L13.8281 21.0275C15.791 21.0275 17.4121 19.4162 17.4121 17.4533C17.4121 15.4904 15.791 13.8693 13.8281 13.8693L6.68945 13.8693C4.72656 13.8693 3.11523 15.4904 3.11523 17.4533ZM4.84375 17.4533C4.84375 16.4474 5.68359 15.5978 6.68945 15.5978L13.8281 15.5978C14.8438 15.5978 15.6836 16.4474 15.6836 17.4533C15.6836 18.4592 14.8438 19.2892 13.8281 19.2892L6.68945 19.2892C5.68359 19.2892 4.84375 18.4592 4.84375 17.4533Z" fill="black" fill-opacity="0.85"/>
 </g>
</svg>
