<?xml version="1.0" ?><!-- Generator: Adobe Illustrator 25.0.0, SVG Export Plug-In . SVG Version: 6.00 Build 0)  --><svg xmlns="http://www.w3.org/2000/svg" xmlns:xlink="http://www.w3.org/1999/xlink" version="1.1" id="Layer_1" x="0px" y="0px" viewBox="0 0 512 512" style="enable-background:new 0 0 512 512;" xml:space="preserve">
<path d="M119.6,512h270c28.6,0,45.3-15.6,45.6-45.6v-7.2c0.3-76.8-81.8-139.1-117.4-173c-10-9.5-15.3-18.1-15.3-30.6  s5-20.9,15.3-30.6c35.6-34.5,117.4-92.9,117.4-172.7v-6.7c0-30-17-45.6-45.6-45.6h-270C92.1,0,76.8,15.6,76.8,43.1v9.2  c0,79.8,81.8,138.2,117.4,172.7c10.3,9.7,15.3,18.1,15.3,30.6s-5,21.1-15.3,30.6c-35.6,33.9-117.4,96.2-117.4,173v9.7  C76.8,496.4,92.1,512,119.6,512z M148.5,473.9c-13.1,0-17.2-14.7-4.4-24.5l95.4-70.9c3.1-2.5,4.7-4.2,4.7-8.3V236.4  c0-15-3.3-22.5-13.6-31.4c-16.1-13.3-45.9-34.5-59.8-53.7c-5.6-7.8-4.7-14.2,2.2-14.2h166c7,0,7.5,6.4,1.9,14.2  c-13.6,19.2-43.7,40.3-59.5,53.7c-10.8,8.9-13.6,16.4-13.6,31.4v133.8c0,4.2,1.7,5.8,4.7,8.3l95.1,70.9c13.1,9.7,8.9,24.5-4.5,24.5  H148.5z"/>
</svg>