<?xml version="1.0" ?><!-- Generator: Adobe Illustrator 25.0.0, SVG Export Plug-In . SVG Version: 6.00 Build 0)  --><svg xmlns="http://www.w3.org/2000/svg" xmlns:xlink="http://www.w3.org/1999/xlink" version="1.1" id="Layer_1" x="0px" y="0px" viewBox="0 0 512 512" style="enable-background:new 0 0 512 512;" xml:space="preserve">
<path d="M256,512c35,0,67.9-6.7,98.8-20.1c30.9-13.4,58.1-31.9,81.7-55.5c23.6-23.6,42.1-50.8,55.5-81.7  C505.3,323.9,512,291,512,256s-6.7-67.9-20.1-98.8c-13.4-30.9-31.9-58.1-55.5-81.7c-23.6-23.6-50.9-42.1-81.8-55.5  C323.7,6.7,290.7,0,255.7,0S187.9,6.7,157,20.1C126.1,33.5,98.9,52,75.4,75.5c-23.5,23.6-42,50.8-55.3,81.7C6.7,188.1,0,221,0,256  s6.7,67.9,20.1,98.8c13.4,30.9,31.9,58.1,55.5,81.7c23.6,23.6,50.8,42.1,81.7,55.5C188.1,505.3,221,512,256,512z" class="multicolor-0:systemIndigoColor hierarchical-0:tertiary SFSymbolsPreview5856D6" style="fill: #5856D6;"/>
<path d="M186.5,407.1c-8.4,0-14.9-2.3-19.7-6.9c-4.8-4.6-7.2-11.3-7.2-20v-3.5c0-9.9,2.3-19.8,6.8-29.7c4.5-10,10.2-19.5,17.1-28.7  c6.9-9.2,14-17.7,21.5-25.6c7.4-7.9,14.1-14.7,20-20.6c5.5-5.5,8.2-11.1,8-16.7c-0.2-5.6-2.8-10.9-8-15.9  c-5.9-5.7-12.5-12.5-20-20.3c-7.4-7.9-14.6-16.4-21.5-25.7c-6.9-9.3-12.5-18.9-17.1-28.9c-4.5-10-6.8-20-6.8-30v-2.8  c0-8.7,2.4-15.4,7.2-20.1c4.8-4.7,11.3-7,19.7-7h139c8.4,0,15,2.3,19.8,7c4.9,4.7,7.3,11.4,7.3,20.1v2.8c0,10-2.3,20-6.8,30  c-4.5,10-10.2,19.6-17.2,28.9c-6.9,9.3-14.1,17.9-21.5,25.7c-7.4,7.9-14,14.6-19.8,20.3c-5.2,5-7.9,10.3-8,15.9  c-0.2,5.6,2.5,11.2,8,16.7c5.9,5.9,12.5,12.7,19.8,20.6c7.4,7.9,14.5,16.4,21.5,25.6c6.9,9.2,12.7,18.8,17.2,28.7  c4.5,10,6.8,19.9,6.8,29.7v3.5c0,8.7-2.4,15.4-7.3,20c-4.9,4.6-11.5,6.9-19.8,6.9H186.5z M199,384.8H313c3.7,0,5.9-1.5,6.5-4.6  c0.7-3.1-0.2-5.7-2.5-7.9L267.5,322c-0.8-0.8-1.5-1.6-1.9-2.3c-0.4-0.7-0.6-1.7-0.6-3V244c0-6.2,2.3-11.5,6.8-15.8  c5.7-5.7,11.5-11.4,17.3-17.1c5.9-5.7,11.3-11.2,16.3-16.6c2.2-2.3,2.8-4.5,2-6.5c-0.8-2-2.6-3-5.3-3h-92.1c-2.7,0-4.4,1-5.3,3  c-0.8,2-0.2,4.2,2,6.5c5,5.4,10.5,10.9,16.3,16.6c5.9,5.7,11.5,11.4,17.1,17.1c4.5,4.4,6.8,9.6,6.8,15.8v72.8c0,1.3-0.2,2.3-0.6,3  c-0.4,0.7-1,1.4-1.9,2.3l-49.2,50.2c-2.3,2.2-3.2,4.8-2.5,7.9C193.4,383.2,195.5,384.8,199,384.8z" class="multicolor-1:white hierarchical-1:primary SFSymbolsPreviewFFFFFF" style="fill: #FFFFFF;"/>
</svg>