<?xml version="1.0" encoding="UTF-8"?>
<!--Generator: Apple Native CoreSVG 326-->
<!DOCTYPE svg
PUBLIC "-//W3C//DTD SVG 1.1//EN"
       "http://www.w3.org/Graphics/SVG/1.1/DTD/svg11.dtd">
<svg version="1.1" xmlns="http://www.w3.org/2000/svg" xmlns:xlink="http://www.w3.org/1999/xlink" viewBox="0 0 25.8008 25.459">
 <g>
  <rect height="25.459" opacity="0" width="25.8008" x="0" y="0"/>
  <path d="M12.7148 25.4395C19.7363 25.4395 25.4395 19.7461 25.4395 12.7246C25.4395 5.70312 19.7363 0 12.7148 0C5.69336 0 0 5.70312 0 12.7246C0 19.7461 5.69336 25.4395 12.7148 25.4395ZM12.7148 23.623C6.68945 23.623 1.81641 18.75 1.81641 12.7246C1.81641 6.69922 6.68945 1.82617 12.7148 1.82617C18.7402 1.82617 23.6133 6.69922 23.6133 12.7246C23.6133 18.75 18.7402 23.623 12.7148 23.623Z" fill="black" fill-opacity="0.85"/>
  <path d="M6.95312 17.5781C6.95312 18.4473 7.4707 18.9551 8.35938 18.9551L17.0801 18.9551C17.959 18.9551 18.4766 18.4473 18.4766 17.5781L18.4766 12.0898L13.1152 7.58789C12.8516 7.36328 12.5684 7.37305 12.3047 7.58789L6.95312 12.0801ZM14.4043 17.8418L11.0254 17.8418L11.0254 13.7695C11.0254 13.4863 11.2207 13.3008 11.5039 13.3008L13.9258 13.3008C14.2188 13.3008 14.4043 13.4863 14.4043 13.7695ZM4.93164 11.6211C4.93164 11.8848 5.14648 12.1387 5.48828 12.1387C5.6543 12.1387 5.79102 12.041 5.9082 11.9336L12.3535 6.5332C12.6074 6.31836 12.832 6.33789 13.0762 6.5332L19.502 11.9336C19.6484 12.041 19.7754 12.1387 19.9414 12.1387C20.2344 12.1387 20.4785 11.9336 20.4785 11.6406C20.4785 11.4453 20.4199 11.3086 20.2832 11.1914L13.6426 5.61523C13.0859 5.13672 12.3633 5.13672 11.7969 5.61523L5.13672 11.1914C5 11.3086 4.93164 11.4648 4.93164 11.6211ZM16.9727 8.85742L18.4766 10.127L18.4766 7.08984C18.4766 6.83594 18.3105 6.66016 18.0566 6.66016L17.4023 6.66016C17.1484 6.66016 16.9727 6.83594 16.9727 7.08984Z" fill="black" fill-opacity="0.85"/>
 </g>
</svg>
