<?xml version="1.0" ?><!-- Generator: Adobe Illustrator 25.0.0, SVG Export Plug-In . SVG Version: 6.00 Build 0)  --><svg xmlns="http://www.w3.org/2000/svg" xmlns:xlink="http://www.w3.org/1999/xlink" version="1.1" id="Layer_1" x="0px" y="0px" viewBox="0 0 512 512" style="enable-background:new 0 0 512 512;" xml:space="preserve">
<path d="M256,512c140,0,256-116.2,256-256C512,116,395.8,0,255.7,0C116,0,0,116,0,256C0,395.8,116.2,512,256,512z M256,469.3  c-118.5,0-213.1-94.9-213.1-213.3S137.3,42.7,255.7,42.7S469.1,137.5,469.3,256S374.5,469.3,256,469.3z M97.4,235.7  c0,5.8,4.5,11.3,12,11.3c4,0,7-2,9.8-4.8L250,132.8c4.3-3.5,8-3,12,0l130.5,109.4c3.3,2.8,6,4.8,9.8,4.8c6.5,0,12-4.3,12-10.8  c0-4.3-1.3-7.3-4.3-9.8l-37.6-31.6v-52c0-5.5-3.5-9.5-9.3-9.5h-14.3c-5.5,0-9.5,4-9.5,9.5v24.1l-65.3-55c-11-9.3-25.1-9.3-35.9,0  L101.6,226.4C98.9,228.9,97.4,232.4,97.4,235.7z M139.3,353.6c0,18.3,11,29.1,29.9,29.1h173.7c18.8,0,29.6-10.8,29.6-29.1V249  l-108.7-91.1c-5-4.3-10.8-4-15.8,0L139.3,249V353.6z M290.1,357.6h-68.3v-84.1c0-6,4-10,10.3-10h47.7c6.5,0,10.3,4,10.3,10V357.6z"/>
</svg>