<?xml version="1.0" encoding="UTF-8"?>
<!--Generator: Apple Native CoreSVG 326-->
<!DOCTYPE svg
PUBLIC "-//W3C//DTD SVG 1.1//EN"
       "http://www.w3.org/Graphics/SVG/1.1/DTD/svg11.dtd">
<svg version="1.1" xmlns="http://www.w3.org/2000/svg" xmlns:xlink="http://www.w3.org/1999/xlink" viewBox="0 0 25.8008 25.459">
 <g>
  <rect height="25.459" opacity="0" width="25.8008" x="0" y="0"/>
  <path d="M12.7148 25.4395C19.7363 25.4395 25.4395 19.7461 25.4395 12.7246C25.4395 5.70312 19.7363 0 12.7148 0C5.69336 0 0 5.70312 0 12.7246C0 19.7461 5.69336 25.4395 12.7148 25.4395ZM12.7148 23.623C6.68945 23.623 1.81641 18.75 1.81641 12.7246C1.81641 6.69922 6.68945 1.82617 12.7148 1.82617C18.7402 1.82617 23.6133 6.69922 23.6133 12.7246C23.6133 18.75 18.7402 23.623 12.7148 23.623Z" fill="black" fill-opacity="0.85"/>
  <path d="M6.83594 13.0078L12.4902 8.59375C12.5586 8.53516 12.6367 8.50586 12.7051 8.50586C12.7734 8.50586 12.8613 8.53516 12.9199 8.59375L18.5742 13.0078C19.043 13.3789 19.5312 12.7539 19.1309 12.4316L13.3691 7.91016C13.1836 7.76367 12.9297 7.65625 12.7051 7.65625C12.4805 7.65625 12.2461 7.75391 12.0508 7.91016L6.28906 12.4316C5.87891 12.7539 6.36719 13.3789 6.83594 13.0078ZM8.34961 16.4551L17.0605 16.4551C17.7441 16.4551 18.1348 16.0742 18.1348 15.3809L18.1348 13.4961C17.959 13.3984 17.793 13.291 17.5977 13.1543L12.7051 9.31641L7.80273 13.1543C7.61719 13.291 7.46094 13.3984 7.27539 13.4961L7.27539 15.3809C7.27539 16.0742 7.66602 16.4551 8.34961 16.4551ZM11.3672 15.6836L11.3574 13.418C11.3574 13.2324 11.5039 13.1055 11.6992 13.1055L13.7305 13.1055C13.9258 13.1055 14.0527 13.2324 14.0527 13.418L14.0527 15.6836ZM5.84961 11.875L8.07617 10.1367L7.05078 10.1367C6.81641 10.1367 6.63086 10.1855 6.46484 10.3027L3.22266 12.4707C2.98828 12.6465 3.08594 13.0566 3.44727 13.0566L5.50781 13.0566C5.37109 12.666 5.41016 12.207 5.84961 11.875ZM6.5625 15.3809L6.5625 13.6914L3.98438 13.7012L3.98438 15.3809C3.98438 16.0742 4.38477 16.4551 5.06836 16.4551L6.86523 16.4551C6.66992 16.1621 6.5625 15.8008 6.5625 15.3809ZM19.5605 11.875C20 12.207 20.0488 12.666 19.9121 13.0566L21.9727 13.0566C22.3242 13.0566 22.4316 12.666 22.1777 12.4707L18.9453 10.3027C18.7793 10.1855 18.6035 10.1367 18.3594 10.1367L17.334 10.1367ZM18.8477 15.3809C18.8477 15.8008 18.7402 16.1621 18.5449 16.4551L20.3418 16.4551C21.0352 16.4551 21.4258 16.0742 21.4258 15.3809L21.4258 13.7012L18.8477 13.6914Z" fill="black" fill-opacity="0.85"/>
 </g>
</svg>
