<?xml version="1.0" encoding="UTF-8"?>
<!--Generator: Apple Native CoreSVG 326-->
<!DOCTYPE svg
PUBLIC "-//W3C//DTD SVG 1.1//EN"
       "http://www.w3.org/Graphics/SVG/1.1/DTD/svg11.dtd">
<svg version="1.1" xmlns="http://www.w3.org/2000/svg" xmlns:xlink="http://www.w3.org/1999/xlink" viewBox="0 0 50.6045 21.5137">
 <g>
  <rect height="21.5137" opacity="0" width="50.6045" x="0" y="0"/>
  <path d="M14.929 7.38281L9.76514 7.38281C9.47217 7.38281 9.34522 7.40234 9.15967 7.51953L2.90967 11.6699L9.44831 11.6699L9.42334 11.6895C8.56397 12.3633 9.60889 13.7207 10.644 12.9102L11.7085 12.0898L11.7085 13.1641L3.9253 13.1641L3.9253 18.4766C3.9253 19.3848 4.37451 19.834 5.26319 19.834L11.8314 19.834C12.1356 20.9235 13.0166 21.5137 14.3647 21.5137L4.92139 21.5137C3.2124 21.5137 2.23584 20.5762 2.23584 18.8867L2.23584 13.1641L0.897951 13.1641C-0.0297829 13.1641-0.273924 12.1191 0.331545 11.6895L8.3003 6.29883C8.72022 6.01562 9.1792 5.88867 9.76514 5.88867L16.8391 5.88867Z" fill="black" fill-opacity="0.85"/>
  <path d="M41.9429 6.29883L49.9116 11.6895C50.5171 12.1191 50.273 13.1641 49.355 13.1641L48.0073 13.1641L48.0073 18.8867C48.0073 20.5762 47.0308 21.5137 45.3218 21.5137L35.8589 21.5137C37.2148 21.5137 38.0973 20.9235 38.4019 19.834L44.98 19.834C45.8687 19.834 46.3179 19.3848 46.3179 18.4766L46.3179 13.1641L38.5249 13.1641L38.5249 12.0898L39.5894 12.9102C40.6245 13.7207 41.6694 12.3633 40.8101 11.6895L40.7851 11.6699L47.3335 11.6699L41.0835 7.51953C40.898 7.40234 40.771 7.38281 40.478 7.38281L35.3044 7.38281L33.3943 5.88867L40.4976 5.88867C41.064 5.88867 41.523 6.01562 41.9429 6.29883Z" fill="black" fill-opacity="0.85"/>
  <path d="M10.644 12.9102L24.5015 2.08984C24.6772 1.94336 24.9019 1.8457 25.1167 1.8457C25.3315 1.8457 25.5562 1.94336 25.7417 2.08984L39.5894 12.9102C40.6245 13.7207 41.6694 12.3633 40.8101 11.6895L26.6401 0.605469C26.1421 0.214844 25.6343 0 25.1167 0C24.5894 0 24.0913 0.214844 23.5933 0.605469L9.42334 11.6895C8.56397 12.3633 9.60889 13.7207 10.644 12.9102ZM14.3745 21.5137L35.8589 21.5137C37.5679 21.5137 38.5249 20.5762 38.5249 18.8867L38.5249 10.5566L36.8452 10.3613L36.8452 18.4766C36.8452 19.3848 36.396 19.834 35.5171 19.834L14.7163 19.834C13.8276 19.834 13.3882 19.3848 13.3882 18.4766L13.3882 10.3613L11.7085 10.5566L11.7085 18.8867C11.7085 20.5762 12.6753 21.5137 14.3745 21.5137ZM21.8159 20.3613L28.4175 20.3613L28.4175 14.043C28.4175 13.5742 28.0952 13.252 27.6167 13.252L22.6167 13.252C22.1577 13.252 21.8159 13.5742 21.8159 14.043Z" fill="black" fill-opacity="0.85"/>
 </g>
</svg>
