<?xml version="1.0" ?><!-- Generator: Adobe Illustrator 25.0.0, SVG Export Plug-In . SVG Version: 6.00 Build 0)  --><svg xmlns="http://www.w3.org/2000/svg" xmlns:xlink="http://www.w3.org/1999/xlink" version="1.1" id="Layer_1" x="0px" y="0px" viewBox="0 0 512 512" style="enable-background:new 0 0 512 512;" xml:space="preserve">
<path d="M256,512c140,0,256-116.2,256-256C512,116,395.8,0,255.7,0C116,0,0,116,0,256C0,395.8,116.2,512,256,512z M92.4,234.7  c0-3.3,1.5-6.8,4.3-9.5l141.1-118c11-9.5,25.6-9.5,36.9,0l67.3,56.5v-24.8c0-5.8,4.3-9.8,10-9.8h14.6c6,0,9.8,4,9.8,9.8v54  l38.9,32.4c3,2.8,4.3,5.8,4.3,10c0,6.8-5.5,11.5-12.3,11.5c-4,0-7-2.5-10.3-5L262.3,128.8c-4.3-3.3-8-3.8-12.5,0L114.9,241.7  c-3,2.5-6,5-10.3,5C96.9,246.7,92.4,240.7,92.4,234.7z M135.5,356.6V248.7l112.2-94.1c5.3-4.3,11-4.5,16.3,0L376.2,249v107.7  c0,18.6-11.3,29.9-30.6,29.9H166.4C147.1,386.5,135.5,375.2,135.5,356.6z M220.9,360.4h70.3v-86.3c0-6.3-3.8-10.5-10.5-10.5h-49.2  c-6.5,0-10.5,4.3-10.5,10.5V360.4z"/>
</svg>