<?xml version="1.0" encoding="UTF-8"?>
<!--Generator: Apple Native CoreSVG 326-->
<!DOCTYPE svg
PUBLIC "-//W3C//DTD SVG 1.1//EN"
       "http://www.w3.org/Graphics/SVG/1.1/DTD/svg11.dtd">
<svg version="1.1" xmlns="http://www.w3.org/2000/svg" xmlns:xlink="http://www.w3.org/1999/xlink" viewBox="0 0 29.8486 32.8907">
 <g>
  <rect height="32.8907" opacity="0" width="29.8486" x="0" y="0"/>
  <path d="M5.77369 12.5768L5.26611 13.0028L5.26611 26.46C5.26611 27.3487 5.71533 27.8076 6.604 27.8076L21.0226 27.8076L22.7532 29.5362L6.23291 29.5362C4.51416 29.5362 3.5376 28.5791 3.5376 26.8799L3.5376 14.4535L1.68213 16.0108C1.46729 16.1963 1.23291 16.3526 0.930176 16.3526C0.354004 16.3526 0.00244141 15.9326 0.00244141 15.5029C0.00244141 15.2393 0.109863 14.9854 0.36377 14.7803L4.50184 11.3064ZM16.145 3.90139L23.0688 9.70948L23.0688 7.10451C23.0688 6.61623 23.4009 6.30373 23.8794 6.30373L25.1294 6.30373C25.6079 6.30373 25.9302 6.61623 25.9302 7.10451L25.9302 12.1097L29.1138 14.7803C29.3579 14.9854 29.4653 15.2393 29.4653 15.5029C29.4653 15.9326 29.1235 16.3526 28.5474 16.3526C28.2446 16.3526 28.0103 16.1963 27.7856 16.0108L25.9302 14.4523L25.9302 25.9544L24.2017 24.2273L24.2017 13.0004L15.2173 5.45412C15.061 5.32717 14.895 5.26857 14.7388 5.26857C14.5728 5.26857 14.4165 5.32717 14.2603 5.45412L9.45219 9.48946L8.18021 8.21849L13.3228 3.90139C13.772 3.52053 14.2505 3.33498 14.7388 3.33498C15.2173 3.33498 15.7056 3.52053 16.145 3.90139Z" fill="black" fill-opacity="0.85"/>
  <path d="M26.5063 31.0889C26.8286 31.4112 27.3657 31.4112 27.6782 31.0889C28.0005 30.7569 28.0103 30.2295 27.6782 29.9072L2.99072 5.22951C2.66846 4.90725 2.13135 4.89748 1.79932 5.22951C1.48682 5.54201 1.48682 6.08889 1.79932 6.40139Z" fill="black" fill-opacity="0.85"/>
 </g>
</svg>
