<?xml version="1.0" encoding="UTF-8"?>
<!--Generator: Apple Native CoreSVG 326-->
<!DOCTYPE svg
PUBLIC "-//W3C//DTD SVG 1.1//EN"
       "http://www.w3.org/Graphics/SVG/1.1/DTD/svg11.dtd">
<svg version="1.1" xmlns="http://www.w3.org/2000/svg" xmlns:xlink="http://www.w3.org/1999/xlink" viewBox="0 0 27.9395 26.5527">
 <g>
  <rect height="26.5527" opacity="0" width="27.9395" x="0" y="0"/>
  <path d="M1.5332 23.8379L26.0449 23.8379L26.0449 23.0859C26.0449 22.666 25.791 22.4121 25.3613 22.4121L24.5605 22.4121L24.5605 8.33984L25.6934 8.33984C26.2891 8.33984 26.6211 7.91992 26.6211 7.48047C26.6211 7.1582 26.4453 6.875 26.0547 6.65039L15.2637 0.419922C14.7852 0.146484 14.2773 0 13.7891 0C13.3008 0 12.7832 0.146484 12.3145 0.419922L1.52344 6.65039C1.12305 6.875 0.957031 7.1582 0.957031 7.48047C0.957031 7.91992 1.28906 8.33984 1.88477 8.33984L3.02734 8.33984L3.02734 22.4121L2.22656 22.4121C1.78711 22.4121 1.5332 22.666 1.5332 23.0859ZM4.6582 22.4121L4.6582 6.85547L13.2227 2.03125C13.3887 1.93359 13.5938 1.875 13.7891 1.875C13.9746 1.875 14.1699 1.93359 14.3555 2.03125L22.9297 6.85547L22.9297 22.4121ZM0.869141 26.5332L26.709 26.5332C27.1875 26.5332 27.5781 26.1426 27.5781 25.6738C27.5781 25.1953 27.1875 24.8047 26.709 24.8047L0.869141 24.8047C0.390625 24.8047 0 25.1953 0 25.6738C0 26.1426 0.390625 26.5332 0.869141 26.5332Z" fill="black" fill-opacity="0.85"/>
  <path d="M13.7305 7.50977C12.6562 7.50977 11.3672 7.85156 10.6055 9.02344C10.4492 9.27734 10.3711 9.52148 10.3711 9.79492C10.3711 10.1172 10.5859 10.332 10.9375 10.332C11.2207 10.332 11.377 10.2051 11.5039 9.95117C11.9238 9.02344 12.8027 8.62305 13.7598 8.62305C14.9414 8.62305 16.0547 9.16016 16.0547 10.3125C16.0547 10.8301 15.7715 11.4941 15.0391 11.7188L16.0938 12.002C16.8262 11.6797 17.3242 10.9863 17.3242 10.2246C17.3242 8.38867 15.5469 7.50977 13.7305 7.50977ZM9.33594 11.9629C9.33594 12.1875 9.50195 12.3438 9.70703 12.3438L17.8613 12.3438C18.0762 12.3438 18.2422 12.1875 18.2422 11.9629C18.2422 11.7383 18.0762 11.5723 17.8613 11.5723L9.70703 11.5723C9.50195 11.5723 9.33594 11.7383 9.33594 11.9629ZM9.33594 13.9746C9.33594 14.1992 9.50195 14.3555 9.70703 14.3555L17.8613 14.3555C18.0762 14.3555 18.2422 14.1992 18.2422 13.9746C18.2422 13.75 18.0762 13.5938 17.8613 13.5938L9.70703 13.5938C9.50195 13.5938 9.33594 13.75 9.33594 13.9746ZM13.7988 18.7402C15.2637 18.7402 16.6016 18.1934 17.2363 17.041C17.373 16.7969 17.4902 16.4941 17.4902 16.2695C17.4902 15.9375 17.2461 15.7227 16.8945 15.7227C16.6016 15.7227 16.4258 15.8594 16.2988 16.1328C15.8887 17.1777 14.9316 17.627 13.7793 17.627C12.5195 17.627 11.3379 16.9922 11.3379 15.918C11.3379 14.9902 11.9629 14.3848 12.9004 14.1309L11.6309 13.9258C10.6934 14.2383 10.0586 15.0684 10.0586 15.9766C10.0586 17.8223 11.9727 18.7402 13.7988 18.7402Z" fill="black" fill-opacity="0.85"/>
 </g>
</svg>
