<?xml version="1.0" encoding="UTF-8"?>
<!--Generator: Apple Native CoreSVG 326-->
<!DOCTYPE svg
PUBLIC "-//W3C//DTD SVG 1.1//EN"
       "http://www.w3.org/Graphics/SVG/1.1/DTD/svg11.dtd">
<svg version="1.1" xmlns="http://www.w3.org/2000/svg" xmlns:xlink="http://www.w3.org/1999/xlink" viewBox="0 0 17.998 22.6465">
 <g>
  <rect height="22.6465" opacity="0" width="17.998" x="0" y="0"/>
  <path d="M8.70117 0C5.9668 0 3.44727 1.17188 2.34375 3.47656C2.11914 3.82812 1.95312 4.25781 1.95312 4.66797C1.95312 5.15625 2.26562 5.5957 2.90039 5.5957C3.37891 5.5957 3.65234 5.3125 3.86719 4.87305C4.60938 2.85156 6.61133 1.86523 8.75 1.86523C11.3086 1.86523 13.7891 3.00781 13.7891 5.56641C13.7891 6.51367 13.3398 7.57812 12.3438 8.22266L0.693359 8.22266C0.292969 8.22266 0 8.52539 0 8.93555C0 9.33594 0.292969 9.63867 0.693359 9.63867L16.9434 9.63867C17.3438 9.63867 17.6367 9.33594 17.6367 8.93555C17.6367 8.52539 17.3438 8.22266 16.9434 8.22266L14.5605 8.22266C15.3516 7.5 15.8301 6.50391 15.8301 5.41992C15.8301 1.76758 12.2852 0 8.70117 0ZM8.83789 22.6172C11.9922 22.6172 14.6875 21.3574 15.8301 18.8184C16.0352 18.4863 16.2402 18.0078 16.2402 17.5488C16.2402 16.9922 15.8691 16.6309 15.2832 16.6309C14.7363 16.6309 14.4824 16.9531 14.2969 17.3438C13.4961 19.7266 11.3477 20.7617 8.76953 20.7617C5.81055 20.7617 3.44727 19.2969 3.44727 17.0215C3.44727 15.5469 4.32617 14.4238 5.5957 13.7402L16.9434 13.7402C17.3438 13.7402 17.6367 13.4375 17.6367 13.0273C17.6367 12.6074 17.3438 12.3047 16.9434 12.3047L0.693359 12.3047C0.292969 12.3047 0 12.6074 0 13.0273C0 13.4375 0.292969 13.7402 0.693359 13.7402L3.19336 13.7402C2.07031 14.502 1.39648 15.7617 1.39648 17.1191C1.39648 20.7129 5.03906 22.6172 8.83789 22.6172Z" fill="black" fill-opacity="0.85"/>
 </g>
</svg>
