<?xml version="1.0" encoding="UTF-8"?>
<!--Generator: Apple Native CoreSVG 326-->
<!DOCTYPE svg
PUBLIC "-//W3C//DTD SVG 1.1//EN"
       "http://www.w3.org/Graphics/SVG/1.1/DTD/svg11.dtd">
<svg version="1.1" xmlns="http://www.w3.org/2000/svg" xmlns:xlink="http://www.w3.org/1999/xlink" viewBox="0 0 30.3809 24.9191">
 <g>
  <rect height="24.9191" opacity="0" width="30.3809" x="0" y="0"/>
  <path d="M30.0195 14.9547C30.0195 7.09334 23.9746 0.648023 16.2988 0.00349172C15.8984-0.0355708 15.5859 0.257398 15.5859 0.667554L15.5859 4.66169C15.5859 4.99373 15.8301 5.2574 16.1719 5.28669C20.9863 5.87263 24.7266 9.97419 24.7266 14.9547C24.7266 17.2203 23.9551 19.3004 22.5879 21.0191C22.4023 21.2535 22.4121 21.5465 22.6172 21.7515L25.5176 24.6519C25.8105 24.9351 26.2305 24.9351 26.4844 24.6226C28.6914 22.0054 30.0195 18.6265 30.0195 14.9547Z" fill="black" fill-opacity="0.85"/>
  <path d="M0 14.9547C0 18.6363 1.32812 22.025 3.54492 24.6422C3.78906 24.9351 4.19922 24.9351 4.49219 24.6519L7.39258 21.7515C7.59766 21.5465 7.60742 21.2535 7.42188 21.0191C6.05469 19.3004 5.2832 17.2203 5.2832 14.9547C5.2832 9.97419 9.0332 5.87263 13.8379 5.28669C14.1895 5.2574 14.4238 4.99373 14.4238 4.66169L14.4238 0.667554C14.4238 0.257398 14.1211-0.0355708 13.7207 0.00349172C6.03516 0.648023 0 7.09334 0 14.9547Z" fill="black" fill-opacity="0.85"/>
  <path d="M14.9316 9.42732C13.8574 9.42732 12.5684 9.75935 11.8066 10.941C11.6504 11.1949 11.5723 11.439 11.5723 11.7027C11.5723 12.025 11.7871 12.2496 12.1387 12.2496C12.4219 12.2496 12.5781 12.1129 12.7051 11.859C13.125 10.9312 14.0039 10.5308 14.9609 10.5308C16.1426 10.5308 17.2559 11.0777 17.2559 12.2203C17.2559 12.7379 16.9727 13.4117 16.2402 13.6265L17.2949 13.9097C18.0273 13.5972 18.5254 12.8941 18.5254 12.1324C18.5254 10.3062 16.748 9.42732 14.9316 9.42732ZM10.5371 13.8804C10.5371 14.0953 10.7031 14.2613 10.9082 14.2613L19.0625 14.2613C19.2773 14.2613 19.4434 14.0953 19.4434 13.8804C19.4434 13.6461 19.2773 13.4898 19.0625 13.4898L10.9082 13.4898C10.7031 13.4898 10.5371 13.6461 10.5371 13.8804ZM10.5371 15.8922C10.5371 16.107 10.7031 16.273 10.9082 16.273L19.0625 16.273C19.2773 16.273 19.4434 16.107 19.4434 15.8922C19.4434 15.6676 19.2773 15.5015 19.0625 15.5015L10.9082 15.5015C10.7031 15.5015 10.5371 15.6676 10.5371 15.8922ZM15 20.648C16.4648 20.648 17.8027 20.1109 18.4375 18.9488C18.5742 18.7144 18.6914 18.4019 18.6914 18.1773C18.6914 17.8453 18.4473 17.6304 18.0957 17.6304C17.8027 17.6304 17.627 17.7769 17.5 18.0504C17.0898 19.0953 16.1328 19.5347 14.9805 19.5347C13.7207 19.5347 12.5391 18.9097 12.5391 17.8355C12.5391 16.898 13.1641 16.2926 14.1016 16.0386L12.832 15.8433C11.8945 16.1558 11.2598 16.9761 11.2598 17.8941C11.2598 19.7398 13.1738 20.648 15 20.648Z" fill="black" fill-opacity="0.85"/>
 </g>
</svg>
