<?xml version="1.0" encoding="UTF-8"?>
<!--Generator: Apple Native CoreSVG 326-->
<!DOCTYPE svg
PUBLIC "-//W3C//DTD SVG 1.1//EN"
       "http://www.w3.org/Graphics/SVG/1.1/DTD/svg11.dtd">
<svg version="1.1" xmlns="http://www.w3.org/2000/svg" xmlns:xlink="http://www.w3.org/1999/xlink" viewBox="0 0 30.3809 25.0293">
 <g>
  <rect height="25.0293" opacity="0" width="30.3809" x="0" y="0"/>
  <path d="M30.0195 15.0098C30.0195 11.3281 28.6914 7.95898 26.4844 5.3418C26.2305 5.03906 25.8008 5.04883 25.5176 5.33203L22.6953 8.1543C22.4512 8.39844 22.4414 8.74023 22.6562 9.01367C23.9551 10.6738 24.7266 12.7441 24.7266 15.0098C24.7266 17.2754 23.9551 19.3555 22.5977 21.0742C22.4121 21.3086 22.4219 21.6016 22.627 21.8066L25.5176 24.707C25.8008 25 26.2207 24.9902 26.4844 24.6875C28.6914 22.0703 30.0195 18.6816 30.0195 15.0098Z" fill="black" fill-opacity="0.85"/>
  <path d="M15.0098 5.2832C17.2754 5.2832 19.3652 6.06445 21.0254 7.38281C21.2891 7.57812 21.6113 7.55859 21.8555 7.31445L24.6875 4.48242C24.9805 4.19922 24.9707 3.7793 24.668 3.51562C22.0605 1.32812 18.6816 0 15.0098 0C11.3379 0 7.95898 1.32812 5.35156 3.51562C5.04883 3.7793 5.03906 4.19922 5.32227 4.48242L8.16406 7.31445C8.39844 7.55859 8.75 7.56836 9.02344 7.35352C10.6738 6.06445 12.7539 5.2832 15.0098 5.2832Z" fill="black" fill-opacity="0.85"/>
  <path d="M0 15.0098C0 18.6816 1.32812 22.0703 3.53516 24.6875C3.78906 24.9902 4.21875 25 4.50195 24.707L7.39258 21.8066C7.58789 21.6016 7.60742 21.3086 7.42188 21.0742C6.06445 19.3555 5.2832 17.2754 5.2832 15.0098C5.2832 12.7441 6.05469 10.6738 7.36328 9.01367C7.56836 8.74023 7.56836 8.39844 7.32422 8.1543L4.49219 5.33203C4.20898 5.04883 3.78906 5.03906 3.52539 5.3418C1.31836 7.95898 0 11.3281 0 15.0098Z" fill="black" fill-opacity="0.85"/>
  <path d="M14.9316 9.48242C13.8574 9.48242 12.5684 9.81445 11.8066 10.9961C11.6504 11.25 11.5723 11.4941 11.5723 11.7578C11.5723 12.0801 11.7871 12.3047 12.1387 12.3047C12.4219 12.3047 12.5781 12.168 12.7051 11.9141C13.125 10.9863 14.0039 10.5859 14.9609 10.5859C16.1426 10.5859 17.2559 11.1328 17.2559 12.2754C17.2559 12.793 16.9727 13.4668 16.2402 13.6816L17.2949 13.9648C18.0273 13.6523 18.5254 12.9492 18.5254 12.1875C18.5254 10.3613 16.748 9.48242 14.9316 9.48242ZM10.5371 13.9355C10.5371 14.1504 10.7031 14.3164 10.9082 14.3164L19.0625 14.3164C19.2773 14.3164 19.4434 14.1504 19.4434 13.9355C19.4434 13.7012 19.2773 13.5449 19.0625 13.5449L10.9082 13.5449C10.7031 13.5449 10.5371 13.7012 10.5371 13.9355ZM10.5371 15.9473C10.5371 16.1621 10.7031 16.3281 10.9082 16.3281L19.0625 16.3281C19.2773 16.3281 19.4434 16.1621 19.4434 15.9473C19.4434 15.7227 19.2773 15.5566 19.0625 15.5566L10.9082 15.5566C10.7031 15.5566 10.5371 15.7227 10.5371 15.9473ZM15 20.7031C16.4648 20.7031 17.8027 20.166 18.4375 19.0039C18.5742 18.7695 18.6914 18.457 18.6914 18.2324C18.6914 17.9004 18.4473 17.6855 18.0957 17.6855C17.8027 17.6855 17.627 17.832 17.5 18.1055C17.0898 19.1504 16.1328 19.5898 14.9805 19.5898C13.7207 19.5898 12.5391 18.9648 12.5391 17.8906C12.5391 16.9531 13.1641 16.3477 14.1016 16.0938L12.832 15.8984C11.8945 16.2109 11.2598 17.0312 11.2598 17.9492C11.2598 19.7949 13.1738 20.7031 15 20.7031Z" fill="black" fill-opacity="0.85"/>
 </g>
</svg>
