<?xml version="1.0" encoding="UTF-8"?>
<!--Generator: Apple Native CoreSVG 326-->
<!DOCTYPE svg
PUBLIC "-//W3C//DTD SVG 1.1//EN"
       "http://www.w3.org/Graphics/SVG/1.1/DTD/svg11.dtd">
<svg version="1.1" xmlns="http://www.w3.org/2000/svg" xmlns:xlink="http://www.w3.org/1999/xlink" viewBox="0 0 30.6563 25.459">
 <g>
  <rect height="25.459" opacity="0" width="30.6563" x="0" y="0"/>
  <path d="M15.1475 25.4395C22.169 25.4395 27.8623 19.7461 27.8623 12.7246C27.8623 5.70312 22.169 0 15.1475 0C8.12599 0 2.43263 5.70312 2.43263 12.7246L4.24904 12.7246C4.24904 6.69922 9.12208 1.82617 15.1475 1.82617C21.1729 1.82617 26.0459 6.69922 26.0459 12.7246C26.0459 18.75 21.1729 23.623 15.1475 23.623C11.417 23.623 8.08693 21.7285 6.18263 18.877C5.86037 18.4375 5.35255 18.3008 4.90333 18.5742C4.47365 18.8281 4.34669 19.4238 4.69826 19.9023C6.97365 23.252 10.8213 25.4395 15.1475 25.4395ZM0.801772 10.3613C0.000990731 10.3613-0.223619 10.9082 0.235366 11.543L3.0088 15.4883C3.3799 16.0254 3.91701 16.0156 4.27833 15.4883L7.05177 11.5332C7.49123 10.9082 7.27638 10.3613 6.48537 10.3613Z" fill="black" fill-opacity="0.85"/>
  <path d="M15.0889 7.03125C14.0049 7.03125 12.7158 7.36328 11.9639 8.54492C11.7979 8.79883 11.7295 9.04297 11.7295 9.30664C11.7295 9.62891 11.9346 9.85352 12.2861 9.85352C12.5791 9.85352 12.7354 9.7168 12.8623 9.47266C13.2822 8.53516 14.1611 8.13477 15.1084 8.13477C16.2901 8.13477 17.4131 8.68164 17.4131 9.83398C17.4131 10.3418 17.1201 11.0156 16.3877 11.2402L17.4424 11.5234C18.1846 11.2012 18.6729 10.498 18.6729 9.74609C18.6729 7.91016 16.8955 7.03125 15.0889 7.03125ZM10.6944 11.4844C10.6944 11.6992 10.8506 11.8652 11.0557 11.8652L19.2197 11.8652C19.4346 11.8652 19.6006 11.6992 19.6006 11.4844C19.6006 11.2598 19.4346 11.0938 19.2197 11.0938L11.0557 11.0938C10.8506 11.0938 10.6944 11.2598 10.6944 11.4844ZM10.6944 13.4961C10.6944 13.7109 10.8506 13.877 11.0557 13.877L19.2197 13.877C19.4346 13.877 19.6006 13.7109 19.6006 13.4961C19.6006 13.2715 19.4346 13.1055 19.2197 13.1055L11.0557 13.1055C10.8506 13.1055 10.6944 13.2715 10.6944 13.4961ZM15.1475 18.252C16.6221 18.252 17.96 17.7148 18.585 16.5527C18.7217 16.3184 18.8389 16.0156 18.8389 15.7812C18.8389 15.459 18.5947 15.2344 18.2432 15.2344C17.96 15.2344 17.7842 15.3809 17.6572 15.6543C17.2373 16.6992 16.2901 17.1484 15.1377 17.1484C13.8779 17.1484 12.6865 16.5137 12.6865 15.4395C12.6865 14.502 13.3213 13.8965 14.2588 13.6426L12.9795 13.4473C12.042 13.7598 11.4072 14.5801 11.4072 15.498C11.4072 17.3438 13.3213 18.252 15.1475 18.252Z" fill="black" fill-opacity="0.85"/>
 </g>
</svg>
