<?xml version="1.0" encoding="UTF-8"?>
<!--Generator: Apple Native CoreSVG 326-->
<!DOCTYPE svg
PUBLIC "-//W3C//DTD SVG 1.1//EN"
       "http://www.w3.org/Graphics/SVG/1.1/DTD/svg11.dtd">
<svg version="1.1" xmlns="http://www.w3.org/2000/svg" xmlns:xlink="http://www.w3.org/1999/xlink" viewBox="0 0 25.8008 25.459">
 <g>
  <rect height="25.459" opacity="0" width="25.8008" x="0" y="0"/>
  <path d="M25.4395 12.7246C25.4395 19.7266 19.7266 25.4395 12.7148 25.4395C5.71289 25.4395 0 19.7266 0 12.7246C0 5.71289 5.71289 0 12.7148 0C19.7266 0 25.4395 5.71289 25.4395 12.7246ZM8.52539 13.1152C8.31055 13.1152 8.13477 13.2812 8.13477 13.5156C8.13477 13.7402 8.31055 13.9062 8.52539 13.9062L9.70703 13.9062C9.19922 14.3164 8.87695 14.9219 8.87695 15.5664C8.87695 17.4609 10.8398 18.3887 12.7148 18.3887C14.2285 18.3887 15.5957 17.8418 16.2402 16.6504C16.377 16.416 16.4941 16.1035 16.4941 15.8691C16.4941 15.5273 16.25 15.293 15.8887 15.293C15.5957 15.293 15.4102 15.4492 15.2832 15.7324C14.8535 16.7969 13.8867 17.2559 12.7051 17.2559C11.416 17.2559 10.1953 16.6016 10.1953 15.5078C10.1953 14.7754 10.5859 14.2383 11.2012 13.9062L16.8848 13.9062C17.1094 13.9062 17.2852 13.7402 17.2852 13.5156C17.2852 13.2812 17.1094 13.1152 16.8848 13.1152ZM9.45312 8.4375C9.27734 8.70117 9.20898 8.94531 9.20898 9.21875C9.20898 9.55078 9.42383 9.78516 9.78516 9.78516C10.0879 9.78516 10.2441 9.64844 10.3809 9.38477C10.8105 8.4375 11.709 8.02734 12.6758 8.02734C13.877 8.02734 15.0293 8.58398 15.0293 9.76562C15.0293 10.1953 14.8242 10.752 14.3164 11.0547L8.52539 11.0547C8.31055 11.0547 8.13477 11.2207 8.13477 11.4551C8.13477 11.6797 8.31055 11.8457 8.52539 11.8457L16.8848 11.8457C17.1094 11.8457 17.2852 11.6797 17.2852 11.4551C17.2852 11.2207 17.1094 11.0547 16.8848 11.0547L15.7227 11.0547C16.1133 10.6934 16.3379 10.1855 16.3379 9.67773C16.3379 7.79297 14.502 6.89453 12.6562 6.89453C11.543 6.89453 10.2246 7.22656 9.45312 8.4375Z" fill="black" fill-opacity="0.85"/>
 </g>
</svg>
