<?xml version="1.0" encoding="UTF-8"?>
<!--Generator: Apple Native CoreSVG 326-->
<!DOCTYPE svg
PUBLIC "-//W3C//DTD SVG 1.1//EN"
       "http://www.w3.org/Graphics/SVG/1.1/DTD/svg11.dtd">
<svg version="1.1" xmlns="http://www.w3.org/2000/svg" xmlns:xlink="http://www.w3.org/1999/xlink" viewBox="0 0 25.8008 25.459">
 <g>
  <rect height="25.459" opacity="0" width="25.8008" x="0" y="0"/>
  <path d="M25.4395 12.7344C25.4395 19.7461 19.7266 25.459 12.7148 25.459C5.71289 25.459 0 19.7461 0 12.7344C0 5.73242 5.71289 0.0195312 12.7148 0.0195312C19.7266 0.0195312 25.4395 5.73242 25.4395 12.7344ZM8.62305 12.7344C8.62305 14.9902 10.4883 16.8457 12.7148 16.8457C13.4473 16.8457 14.1211 16.6113 14.6777 16.2207C13.4766 18.418 11.123 19.7656 8.29102 19.7656C7.89062 19.7656 7.60742 20.0684 7.60742 20.4297C7.60742 20.7715 7.89062 21.0742 8.29102 21.0742C13.0469 21.0742 16.8164 17.6953 16.8164 12.7344C16.8164 10.4883 14.9414 8.63281 12.7148 8.63281C11.9922 8.63281 11.3086 8.85742 10.752 9.26758C11.9434 7.06055 14.2969 5.70312 17.1484 5.70312C17.5488 5.70312 17.8223 5.41016 17.8223 5.04883C17.8223 4.6875 17.5391 4.4043 17.1484 4.4043C12.3828 4.4043 8.62305 7.77344 8.62305 12.7344ZM13.9551 12.7344C13.9551 13.4082 13.3984 13.9746 12.7148 13.9746C12.041 13.9746 11.4746 13.418 11.4746 12.7344C11.4746 12.0508 12.041 11.4941 12.7148 11.4941C13.3984 11.4941 13.9551 12.0508 13.9551 12.7344Z" fill="black" fill-opacity="0.85"/>
 </g>
</svg>
