<?xml version="1.0" encoding="UTF-8"?>
<!--Generator: Apple Native CoreSVG 326-->
<!DOCTYPE svg
PUBLIC "-//W3C//DTD SVG 1.1//EN"
       "http://www.w3.org/Graphics/SVG/1.1/DTD/svg11.dtd">
<svg version="1.1" xmlns="http://www.w3.org/2000/svg" xmlns:xlink="http://www.w3.org/1999/xlink" viewBox="0 0 31.5625 32.4902">
 <g>
  <rect height="32.4902" opacity="0" width="31.5625" x="0" y="0"/>
  <path d="M27.2559 13.0859C29.7363 14.0137 31.2012 16.084 31.2012 18.5645C31.2012 21.543 28.9941 23.8086 25.2441 23.8086L18.6621 23.8086L18.6621 22.0801L25.2441 22.0801C28.0273 22.0801 29.4727 20.5957 29.4727 18.5645C29.4727 16.3965 28.0078 14.8926 25.7227 14.375C25.5859 14.3457 25.5273 14.248 25.5371 14.1016C25.5762 13.5352 25.6152 12.9004 25.5762 12.3633C25.3418 8.50586 22.4219 5.23438 18.3008 5.23438C15.0195 5.23438 13.125 7.08008 11.8945 9.26758C11.8164 9.4043 11.7285 9.42383 11.582 9.38477C8.95508 8.61328 6.16211 9.78516 6.16211 13.5547C6.16211 13.7109 6.09375 13.7988 5.9375 13.7988C3.26172 13.7988 1.72852 15.5957 1.72852 18.0176C1.72852 20.2832 3.34961 22.0801 6.39648 22.0801L12.5488 22.0801L12.5488 23.8086L6.40625 23.8086C2.37305 23.8086 0 21.2402 0 18.0176C0 15.0977 1.78711 12.832 4.58984 12.4512C4.62891 8.96484 8.17383 6.77734 11.0352 7.59766C12.4805 5.36133 14.873 3.50586 18.3008 3.50586C23.3594 3.50586 27.3242 7.53906 27.2559 13.0859Z" fill="black" fill-opacity="0.85"/>
  <path d="M15.6055 30.2539C16.0645 30.2539 16.4551 29.873 16.4551 29.4238L16.4551 16.8555L16.3867 15L17.1582 15.8008L19.2871 18.0371C19.4336 18.2031 19.6582 18.291 19.873 18.291C20.3125 18.291 20.6543 17.9688 20.6543 17.5391C20.6543 17.3047 20.5664 17.1289 20.4004 16.9727L16.2207 12.9004C16.0059 12.6855 15.8203 12.6172 15.6055 12.6172C15.3809 12.6172 15.1953 12.6855 14.9805 12.9004L10.791 16.9727C10.6348 17.1289 10.5371 17.3047 10.5371 17.5391C10.5371 17.9688 10.8691 18.291 11.3184 18.291C11.5234 18.291 11.7578 18.2031 11.9141 18.0371L14.0332 15.8008L14.8145 15L14.7461 16.8555L14.7461 29.4238C14.7461 29.873 15.1367 30.2539 15.6055 30.2539Z" fill="black" fill-opacity="0.85"/>
 </g>
</svg>
