<?xml version="1.0" encoding="UTF-8"?>
<!--Generator: Apple Native CoreSVG 326-->
<!DOCTYPE svg
PUBLIC "-//W3C//DTD SVG 1.1//EN"
       "http://www.w3.org/Graphics/SVG/1.1/DTD/svg11.dtd">
<svg version="1.1" xmlns="http://www.w3.org/2000/svg" xmlns:xlink="http://www.w3.org/1999/xlink" viewBox="0 0 25.8984 23.5254">
 <g>
  <rect height="23.5254" opacity="0" width="25.8984" x="0" y="0"/>
  <path d="M0.869141 23.4668C1.35742 23.4668 1.72852 23.0762 1.72852 22.5879L1.72852 0.869141C1.72852 0.380859 1.35742 0 0.869141 0C0.371094 0 0 0.380859 0 0.869141L0 22.5879C0 23.0762 0.371094 23.4668 0.869141 23.4668ZM7.22656 23.4668C7.71484 23.4668 8.08594 23.0762 8.08594 22.5879L8.08594 0.869141C8.08594 0.380859 7.71484 0 7.22656 0C6.73828 0 6.35742 0.380859 6.35742 0.869141L6.35742 22.5879C6.35742 23.0762 6.73828 23.4668 7.22656 23.4668ZM13.584 23.4668C14.0723 23.4668 14.4531 23.0762 14.4531 22.5879L14.4531 0.869141C14.4531 0.380859 14.0723 0 13.584 0C13.0957 0 12.7148 0.380859 12.7148 0.869141L12.7148 22.5879C12.7148 23.0762 13.0957 23.4668 13.584 23.4668Z" fill="black" fill-opacity="0.85"/>
  <path d="M21.0254 15.4199L25.0098 12.7539C25.7324 12.2754 25.7031 11.2598 25.0098 10.7812L21.0254 8.06641C20.1074 7.44141 19.1309 7.7832 19.1406 8.89648L19.1406 14.6094C19.1309 15.6738 20.1465 15.9961 21.0254 15.4199Z" fill="black" fill-opacity="0.85"/>
 </g>
</svg>
