<?xml version="1.0" ?><!-- Generator: Adobe Illustrator 25.0.0, SVG Export Plug-In . SVG Version: 6.00 Build 0)  --><svg xmlns="http://www.w3.org/2000/svg" xmlns:xlink="http://www.w3.org/1999/xlink" version="1.1" id="Layer_1" x="0px" y="0px" viewBox="0 0 512 512" style="enable-background:new 0 0 512 512;" xml:space="preserve">
<path d="M18.7,488.4c10.7,0,18.9-8.7,18.9-19.2V42.6c0-10.5-8.2-18.9-18.9-18.9C8.2,23.6,0,32.1,0,42.6v426.6  C0,479.7,8.2,488.4,18.7,488.4z M143,488.4c10.7,0,18.9-8.7,18.9-19.2V42.6c0-10.5-8.2-18.9-18.9-18.9c-10.5,0-18.7,8.5-18.7,18.9  v426.6C124.4,479.7,132.6,488.4,143,488.4z M267.4,488.4c10.7,0,18.9-8.7,18.9-19.2V42.6c0-10.5-8.2-18.9-18.9-18.9  c-10.5,0-18.7,8.5-18.7,18.9v426.6C248.7,479.7,256.9,488.4,267.4,488.4z M418.7,332.4l82.5-55.1c14.7-10,14.2-31.2,0-41.1  l-82.5-56.1c-19.2-13-39.4-5.7-39.1,17.2v118.1C379.3,337.6,400.5,344.3,418.7,332.4z"/>
</svg>