<?xml version="1.0" encoding="UTF-8"?>
<!--Generator: Apple Native CoreSVG 326-->
<!DOCTYPE svg
PUBLIC "-//W3C//DTD SVG 1.1//EN"
       "http://www.w3.org/Graphics/SVG/1.1/DTD/svg11.dtd">
<svg version="1.1" xmlns="http://www.w3.org/2000/svg" xmlns:xlink="http://www.w3.org/1999/xlink" viewBox="0 0 27.9395 26.5527">
 <g>
  <rect height="26.5527" opacity="0" width="27.9395" x="0" y="0"/>
  <path d="M1.5332 23.8379L26.0449 23.8379L26.0449 23.0859C26.0449 22.666 25.791 22.4121 25.3613 22.4121L24.5605 22.4121L24.5605 8.33984L25.6934 8.33984C26.2891 8.33984 26.6211 7.91992 26.6211 7.48047C26.6211 7.1582 26.4453 6.875 26.0547 6.65039L15.2637 0.419922C14.7852 0.146484 14.2773 0 13.7891 0C13.3008 0 12.7832 0.146484 12.3145 0.419922L1.52344 6.65039C1.12305 6.875 0.957031 7.1582 0.957031 7.48047C0.957031 7.91992 1.28906 8.33984 1.88477 8.33984L3.02734 8.33984L3.02734 22.4121L2.22656 22.4121C1.78711 22.4121 1.5332 22.666 1.5332 23.0859ZM4.6582 22.4121L4.6582 6.85547L13.2227 2.03125C13.3887 1.93359 13.5938 1.875 13.7891 1.875C13.9746 1.875 14.1699 1.93359 14.3555 2.03125L22.9297 6.85547L22.9297 22.4121ZM0.869141 26.5332L26.709 26.5332C27.1875 26.5332 27.5781 26.1426 27.5781 25.6738C27.5781 25.1953 27.1875 24.8047 26.709 24.8047L0.869141 24.8047C0.390625 24.8047 0 25.1953 0 25.6738C0 26.1426 0.390625 26.5332 0.869141 26.5332Z" fill="black" fill-opacity="0.85"/>
  <path d="M12.4316 14.1895C14.3848 14.1895 15.9473 13.2227 16.1816 11.2891L17.1973 11.2891C17.4121 11.2891 17.5879 11.1133 17.5879 10.9082C17.5879 10.7031 17.4121 10.5273 17.1973 10.5273L16.2109 10.5273C16.1426 9.69727 15.791 8.89648 15.0977 8.37891L17.1973 8.37891C17.4121 8.37891 17.5879 8.20312 17.5879 7.99805C17.5879 7.77344 17.4121 7.61719 17.1973 7.61719L10.2832 7.61719C9.99023 7.61719 9.81445 7.8125 9.81445 8.125L9.81445 8.20312C9.81445 8.50586 9.99023 8.70117 10.2832 8.70117L12.373 8.70117C13.6621 8.70117 14.6875 9.23828 14.8633 10.5273L10.2148 10.5273C10 10.5273 9.82422 10.7031 9.82422 10.9082C9.82422 11.1133 10 11.2891 10.2148 11.2891L14.8535 11.2891C14.6875 12.6172 13.6426 13.0957 12.3145 13.0957L10.5469 13.0957C10.1172 13.0957 9.84375 13.3594 9.84375 13.7305L9.84375 13.7695C9.84375 14.082 9.99023 14.2773 10.2441 14.502L14.6484 18.623C14.8438 18.7988 15 18.9355 15.2832 18.9355C15.6152 18.9355 15.8594 18.6621 15.8594 18.3594C15.8594 18.1445 15.752 17.998 15.5859 17.8516L11.6699 14.1895Z" fill="black" fill-opacity="0.85"/>
 </g>
</svg>
