<?xml version="1.0" encoding="UTF-8"?>
<!--Generator: Apple Native CoreSVG 326-->
<!DOCTYPE svg
PUBLIC "-//W3C//DTD SVG 1.1//EN"
       "http://www.w3.org/Graphics/SVG/1.1/DTD/svg11.dtd">
<svg version="1.1" xmlns="http://www.w3.org/2000/svg" xmlns:xlink="http://www.w3.org/1999/xlink" viewBox="0 0 23.3203 22.959">
 <g>
  <rect height="22.959" opacity="0" width="23.3203" x="0" y="0"/>
  <path d="M3.79883 22.959L19.1504 22.959C21.6797 22.959 22.959 21.6797 22.959 19.1992L22.959 3.76953C22.959 1.2793 21.6797 0 19.1504 0L3.79883 0C1.2793 0 0 1.26953 0 3.76953L0 19.1992C0 21.6992 1.2793 22.959 3.79883 22.959ZM3.83789 21.2305C2.4707 21.2305 1.72852 20.5078 1.72852 19.1016L1.72852 3.85742C1.72852 2.46094 2.4707 1.72852 3.83789 1.72852L19.1211 1.72852C20.459 1.72852 21.2305 2.46094 21.2305 3.85742L21.2305 19.1016C21.2305 20.5078 20.459 21.2305 19.1211 21.2305Z" fill="black" fill-opacity="0.85"/>
  <path d="M10.1172 12.4609C12.0801 12.4609 13.6328 11.4941 13.877 9.55078L14.8828 9.55078C15.0977 9.55078 15.2734 9.38477 15.2734 9.16992C15.2734 8.96484 15.0977 8.79883 14.8828 8.79883L13.8965 8.79883C13.8281 7.95898 13.4766 7.16797 12.7832 6.65039L14.8828 6.65039C15.0977 6.65039 15.2734 6.47461 15.2734 6.26953C15.2734 6.04492 15.0977 5.88867 14.8828 5.88867L7.96875 5.88867C7.67578 5.88867 7.5 6.08398 7.5 6.38672L7.5 6.46484C7.5 6.77734 7.67578 6.96289 7.96875 6.96289L10.0684 6.96289C11.3574 6.96289 12.373 7.50977 12.5488 8.79883L7.91016 8.79883C7.68555 8.79883 7.51953 8.96484 7.51953 9.16992C7.51953 9.38477 7.68555 9.55078 7.91016 9.55078L12.5391 9.55078C12.373 10.8887 11.3379 11.3574 10 11.3574L8.23242 11.3574C7.80273 11.3574 7.5293 11.6211 7.5293 12.002L7.5293 12.0312C7.5293 12.3535 7.67578 12.5488 7.92969 12.7734L12.334 16.8848C12.5391 17.0703 12.6855 17.207 12.9688 17.207C13.3105 17.207 13.5449 16.9336 13.5449 16.6309C13.5449 16.416 13.4375 16.2695 13.2812 16.1133L9.35547 12.4609Z" fill="black" fill-opacity="0.85"/>
 </g>
</svg>
