<?xml version="1.0" encoding="UTF-8"?>
<!--Generator: Apple Native CoreSVG 326-->
<!DOCTYPE svg
PUBLIC "-//W3C//DTD SVG 1.1//EN"
       "http://www.w3.org/Graphics/SVG/1.1/DTD/svg11.dtd">
<svg version="1.1" xmlns="http://www.w3.org/2000/svg" xmlns:xlink="http://www.w3.org/1999/xlink" viewBox="0 0 30.3809 24.9191">
 <g>
  <rect height="24.9191" opacity="0" width="30.3809" x="0" y="0"/>
  <path d="M30.0195 14.9547C30.0195 7.09334 23.9746 0.648023 16.2988 0.00349172C15.8984-0.0355708 15.5859 0.257398 15.5859 0.667554L15.5859 4.66169C15.5859 4.99373 15.8301 5.2574 16.1719 5.28669C20.9863 5.87263 24.7266 9.97419 24.7266 14.9547C24.7266 17.2203 23.9551 19.3004 22.5879 21.0191C22.4023 21.2535 22.4121 21.5465 22.6172 21.7515L25.5176 24.6519C25.8105 24.9351 26.2305 24.9351 26.4844 24.6226C28.6914 22.0054 30.0195 18.6265 30.0195 14.9547Z" fill="black" fill-opacity="0.85"/>
  <path d="M0 14.9547C0 18.6363 1.32812 22.025 3.54492 24.6422C3.78906 24.9351 4.19922 24.9351 4.49219 24.6519L7.39258 21.7515C7.59766 21.5465 7.60742 21.2535 7.42188 21.0191C6.05469 19.3004 5.2832 17.2203 5.2832 14.9547C5.2832 9.97419 9.0332 5.87263 13.8379 5.28669C14.1895 5.2574 14.4238 4.99373 14.4238 4.66169L14.4238 0.667554C14.4238 0.257398 14.1211-0.0355708 13.7207 0.00349172C6.03516 0.648023 0 7.09334 0 14.9547Z" fill="black" fill-opacity="0.85"/>
  <path d="M13.6328 16.0972C15.5859 16.0972 17.1484 15.1402 17.3828 13.1969L18.3984 13.1969C18.6133 13.1969 18.7891 13.0211 18.7891 12.816C18.7891 12.6109 18.6133 12.4351 18.3984 12.4351L17.4121 12.4351C17.3438 11.6051 16.9922 10.814 16.2988 10.2867L18.3984 10.2867C18.6133 10.2867 18.7891 10.1207 18.7891 9.9156C18.7891 9.69099 18.6133 9.53474 18.3984 9.53474L11.4844 9.53474C11.1914 9.53474 11.0156 9.72029 11.0156 10.0328L11.0156 10.1109C11.0156 10.4234 11.1914 10.609 11.4844 10.609L13.5742 10.609C14.8633 10.609 15.8887 11.1558 16.0645 12.4351L11.416 12.4351C11.2012 12.4351 11.0254 12.6109 11.0254 12.816C11.0254 13.0211 11.2012 13.1969 11.416 13.1969L16.0547 13.1969C15.8887 14.525 14.8438 15.0035 13.5156 15.0035L11.748 15.0035C11.3184 15.0035 11.0449 15.2672 11.0449 15.6383L11.0449 15.6773C11.0449 15.9996 11.1914 16.1949 11.4453 16.4195L15.8496 20.5308C16.0449 20.7164 16.2012 20.8433 16.4844 20.8433C16.8164 20.8433 17.0605 20.5797 17.0605 20.2769C17.0605 20.0621 16.9531 19.9058 16.7871 19.7594L12.8711 16.0972Z" fill="black" fill-opacity="0.85"/>
 </g>
</svg>
