<?xml version="1.0" encoding="UTF-8"?>
<!--Generator: Apple Native CoreSVG 326-->
<!DOCTYPE svg
PUBLIC "-//W3C//DTD SVG 1.1//EN"
       "http://www.w3.org/Graphics/SVG/1.1/DTD/svg11.dtd">
<svg version="1.1" xmlns="http://www.w3.org/2000/svg" xmlns:xlink="http://www.w3.org/1999/xlink" viewBox="0 0 15.7617 22.7832">
 <g>
  <rect height="22.7832" opacity="0" width="15.7617" x="0" y="0"/>
  <path d="M11.1426 22.7539C11.6992 22.7539 12.1094 22.3633 12.1094 21.8164C12.1094 21.4746 11.9531 21.2207 11.6699 20.957L3.01758 12.9883L4.93164 12.9883C8.87695 12.9883 12.1777 11.25 12.6074 7.2168L14.6777 7.2168C15.0977 7.2168 15.4004 6.91406 15.4004 6.50391C15.4004 6.10352 15.0977 5.80078 14.6777 5.80078L12.627 5.80078C12.4902 3.91602 11.6699 2.36328 10.2539 1.42578L14.6777 1.43555C15.0977 1.43555 15.4004 1.12305 15.4004 0.722656C15.4004 0.3125 15.0977 0.00976562 14.6777 0.00976562L0.78125 0C0.3125 0 0.0195312 0.332031 0.0195312 0.869141L0.0195312 1.01562C0.0195312 1.5332 0.3125 1.85547 0.78125 1.85547L5.22461 1.85547C8.01758 1.85547 10.1562 3.07617 10.4395 5.80078L0.722656 5.80078C0.302734 5.80078 0 6.10352 0 6.50391C0 6.91406 0.302734 7.2168 0.722656 7.2168L10.4395 7.2168C10.1465 10.0391 7.79297 11.1035 4.9707 11.1035L1.23047 11.1035C0.605469 11.1035 0.0683594 11.5039 0.0683594 12.1875L0.0683594 12.2461C0.0683594 12.7734 0.302734 13.0957 0.722656 13.4863L10.1562 22.2559C10.459 22.5488 10.7324 22.7539 11.1426 22.7539Z" fill="black" fill-opacity="0.85"/>
 </g>
</svg>
