<?xml version="1.0" encoding="UTF-8"?>
<!--Generator: Apple Native CoreSVG 326-->
<!DOCTYPE svg
PUBLIC "-//W3C//DTD SVG 1.1//EN"
       "http://www.w3.org/Graphics/SVG/1.1/DTD/svg11.dtd">
<svg version="1.1" xmlns="http://www.w3.org/2000/svg" xmlns:xlink="http://www.w3.org/1999/xlink" viewBox="0 0 30.6563 25.459">
 <g>
  <rect height="25.459" opacity="0" width="30.6563" x="0" y="0"/>
  <path d="M15.1475 25.4395C22.169 25.4395 27.8623 19.7461 27.8623 12.7246C27.8623 5.70312 22.169 0 15.1475 0C8.12599 0 2.43263 5.70312 2.43263 12.7246L4.24904 12.7246C4.24904 6.69922 9.12208 1.82617 15.1475 1.82617C21.1729 1.82617 26.0459 6.69922 26.0459 12.7246C26.0459 18.75 21.1729 23.623 15.1475 23.623C11.417 23.623 8.08693 21.7285 6.18263 18.877C5.86037 18.4375 5.35255 18.3008 4.90333 18.5742C4.47365 18.8281 4.34669 19.4238 4.69826 19.9023C6.97365 23.252 10.8213 25.4395 15.1475 25.4395ZM0.801772 10.3613C0.000990731 10.3613-0.223619 10.9082 0.235366 11.543L3.0088 15.4883C3.3799 16.0254 3.91701 16.0156 4.27833 15.4883L7.05177 11.5332C7.49123 10.9082 7.27638 10.3613 6.48537 10.3613Z" fill="black" fill-opacity="0.85"/>
  <path d="M13.7803 13.7109C15.7432 13.7109 17.2959 12.7441 17.5401 10.8008L18.5459 10.8008C18.7608 10.8008 18.9365 10.6348 18.9365 10.4199C18.9365 10.2148 18.7608 10.0488 18.5459 10.0488L17.5596 10.0488C17.4912 9.20898 17.1494 8.41797 16.4463 7.90039L18.5459 7.90039C18.7608 7.90039 18.9365 7.72461 18.9365 7.51953C18.9365 7.29492 18.7608 7.13867 18.5459 7.13867L11.6319 7.13867C11.3486 7.13867 11.1729 7.33398 11.1729 7.63672L11.1729 7.71484C11.1729 8.02734 11.3486 8.21289 11.6319 8.21289L13.7315 8.21289C15.0205 8.21289 16.0459 8.75977 16.2119 10.0488L11.5733 10.0488C11.3584 10.0488 11.1826 10.2148 11.1826 10.4199C11.1826 10.6348 11.3584 10.8008 11.5733 10.8008L16.2022 10.8008C16.0361 12.1387 15.001 12.6074 13.6631 12.6074L11.8955 12.6074C11.4658 12.6074 11.2022 12.8711 11.2022 13.252L11.2022 13.2812C11.2022 13.6035 11.3486 13.7988 11.5928 14.0234L16.0069 18.1348C16.2022 18.3203 16.3486 18.457 16.6319 18.457C16.9736 18.457 17.208 18.1836 17.208 17.8809C17.208 17.666 17.1006 17.5195 16.9444 17.3633L13.0186 13.7109Z" fill="black" fill-opacity="0.85"/>
 </g>
</svg>
