<?xml version="1.0" encoding="UTF-8"?>
<!--Generator: Apple Native CoreSVG 326-->
<!DOCTYPE svg
PUBLIC "-//W3C//DTD SVG 1.1//EN"
       "http://www.w3.org/Graphics/SVG/1.1/DTD/svg11.dtd">
<svg version="1.1" xmlns="http://www.w3.org/2000/svg" xmlns:xlink="http://www.w3.org/1999/xlink" viewBox="0 0 25.8008 25.459">
 <g>
  <rect height="25.459" opacity="0" width="25.8008" x="0" y="0"/>
  <path d="M12.7148 25.4395C19.7363 25.4395 25.4395 19.7461 25.4395 12.7246C25.4395 5.70312 19.7363 0 12.7148 0C5.69336 0 0 5.70312 0 12.7246C0 19.7461 5.69336 25.4395 12.7148 25.4395ZM12.7148 23.623C6.68945 23.623 1.81641 18.75 1.81641 12.7246C1.81641 6.69922 6.68945 1.82617 12.7148 1.82617C18.7402 1.82617 23.6133 6.69922 23.6133 12.7246C23.6133 18.75 18.7402 23.623 12.7148 23.623Z" fill="black" fill-opacity="0.85"/>
  <path d="M11.3379 13.7109C13.3008 13.7109 14.8535 12.7441 15.0977 10.8008L16.1035 10.8008C16.3184 10.8008 16.4941 10.6348 16.4941 10.4199C16.4941 10.2148 16.3184 10.0488 16.1035 10.0488L15.1172 10.0488C15.0488 9.20898 14.707 8.41797 14.0039 7.90039L16.1035 7.90039C16.3184 7.90039 16.4941 7.72461 16.4941 7.51953C16.4941 7.29492 16.3184 7.13867 16.1035 7.13867L9.18945 7.13867C8.90625 7.13867 8.73047 7.33398 8.73047 7.63672L8.73047 7.71484C8.73047 8.02734 8.90625 8.21289 9.18945 8.21289L11.2891 8.21289C12.5781 8.21289 13.5938 8.75977 13.7695 10.0488L9.13086 10.0488C8.91602 10.0488 8.74023 10.2148 8.74023 10.4199C8.74023 10.6348 8.91602 10.8008 9.13086 10.8008L13.7598 10.8008C13.5938 12.1387 12.5586 12.6074 11.2207 12.6074L9.45312 12.6074C9.02344 12.6074 8.75977 12.8711 8.75977 13.252L8.75977 13.2812C8.75977 13.6035 8.90625 13.7988 9.15039 14.0234L13.5645 18.1348C13.7598 18.3203 13.9062 18.457 14.1895 18.457C14.5312 18.457 14.7656 18.1836 14.7656 17.8809C14.7656 17.666 14.6582 17.5195 14.502 17.3633L10.5762 13.7109Z" fill="black" fill-opacity="0.85"/>
 </g>
</svg>
