<?xml version="1.0" ?><!-- Generator: Adobe Illustrator 25.0.0, SVG Export Plug-In . SVG Version: 6.00 Build 0)  --><svg xmlns="http://www.w3.org/2000/svg" xmlns:xlink="http://www.w3.org/1999/xlink" version="1.1" id="Layer_1" x="0px" y="0px" viewBox="0 0 512 512" style="enable-background:new 0 0 512 512;" xml:space="preserve">
<path d="M256,512c35,0,67.9-6.7,98.8-20.1c30.9-13.4,58.1-31.9,81.7-55.5c23.6-23.6,42.1-50.8,55.5-81.7  C505.3,323.9,512,291,512,256s-6.7-67.9-20.1-98.8c-13.4-30.9-31.9-58.1-55.5-81.7c-23.6-23.6-50.9-42.1-81.8-55.5  C323.7,6.7,290.7,0,255.7,0S187.9,6.7,157,20.1C126.1,33.5,98.9,52,75.4,75.5c-23.5,23.6-42,50.8-55.3,81.7C6.7,188.1,0,221,0,256  s6.7,67.9,20.1,98.8c13.4,30.9,31.9,58.1,55.5,81.7c23.6,23.6,50.8,42.1,81.7,55.5C188.1,505.3,221,512,256,512z M256,469.3  c-29.6,0-57.3-5.5-83.1-16.6c-25.8-11-48.4-26.3-67.9-45.8c-19.5-19.5-34.7-42.1-45.7-67.9c-11-25.8-16.4-53.5-16.4-83.1  c0-29.6,5.5-57.3,16.4-83.1c11-25.8,26.1-48.4,45.6-68s42-34.8,67.8-45.8c25.8-11,53.5-16.4,83.1-16.4c29.6,0,57.3,5.5,83.1,16.4  c25.8,11,48.4,26.2,68,45.8c19.6,19.6,34.9,42.2,45.9,68c11,25.8,16.6,53.5,16.6,83.1c0,29.6-5.5,57.3-16.4,83.1  c-11,25.8-26.2,48.4-45.7,67.9c-19.5,19.5-42.2,34.8-68,45.8C313.3,463.8,285.6,469.3,256,469.3z" class="hierarchical-0:secondary SFSymbolsPreview4D4D4D" style="fill: #4D4D4D;"/>
<path d="M86.8,256c0,23.8,6.9,42.9,20.7,57.5c13.8,14.6,32,21.8,54.6,21.8c11.9,0,23-2.6,33.5-7.7c10.5-5.1,21.1-12.8,32-23.2  l28.6-27.1l28.4,27.1c11.2,10.7,22,18.5,32.5,23.5c10.5,4.9,21.5,7.4,33.3,7.4c22.4,0,40.6-7.3,54.5-21.8  c13.9-14.6,20.8-33.7,20.8-57.5s-6.9-43-20.8-57.6c-13.9-14.6-32-22-54.5-22c-11.9,0-23,2.5-33.4,7.4c-10.4,4.9-21.2,12.8-32.4,23.5  l-28.4,27.4l-28.6-27.4c-10.7-10.4-21.3-18.1-31.9-23.2c-10.5-5.1-21.8-7.7-33.6-7.7c-22.6,0-40.8,7.3-54.6,22  C93.7,213,86.8,232.2,86.8,256z M278.3,256l28.1-26.1c8.5-8,16.2-13.8,23-17.3c6.8-3.5,13.8-5.3,21-5.3c13.2,0,23.9,4.4,32,13.3  c8.1,8.9,12.2,20.7,12.2,35.4c0,14.6-4.1,26.3-12.2,35.1c-8.1,8.9-18.8,13.3-32,13.3c-7.4,0-14.5-1.8-21.3-5.4  c-6.9-3.6-14.4-9.2-22.6-16.9L278.3,256z M118,256c0-14.7,4-26.5,12-35.4c8-8.9,18.7-13.3,32.1-13.3c7,0,13.9,1.8,20.7,5.3  c6.8,3.5,14.4,9.3,23,17.3l28.1,26.1l-28.1,26.1c-8.2,7.7-15.7,13.3-22.6,16.9c-6.9,3.6-13.9,5.4-21.1,5.4  c-13.4,0-24.1-4.4-32.1-13.2C122,282.5,118,270.7,118,256z" class="hierarchical-1:primary SFSymbolsPreview212121" style="fill: #212121;"/>
</svg>