<?xml version="1.0" encoding="UTF-8"?>
<!--Generator: Apple Native CoreSVG 326-->
<!DOCTYPE svg
PUBLIC "-//W3C//DTD SVG 1.1//EN"
       "http://www.w3.org/Graphics/SVG/1.1/DTD/svg11.dtd">
<svg version="1.1" xmlns="http://www.w3.org/2000/svg" xmlns:xlink="http://www.w3.org/1999/xlink" viewBox="0 0 27.8711 27.2754">
 <g>
  <rect height="27.2754" opacity="0" width="27.8711" x="0" y="0"/>
  <path d="M7.42188 27.2754C7.95898 27.2754 8.33008 26.9922 8.96484 26.4258L13.3691 22.5488L22.002 22.5488C25.5371 22.5488 27.5098 20.5273 27.5098 17.0508L27.5098 7.08984C27.5098 3.60352 25.5371 1.58203 22.002 1.58203L5.50781 1.58203C1.96289 1.58203 0 3.59375 0 7.08984L0 17.0508C0 20.5469 1.96289 22.5488 5.50781 22.5488L6.24023 22.5488L6.24023 25.9082C6.24023 26.7383 6.66992 27.2754 7.42188 27.2754ZM7.85156 25.3125L7.85156 21.6406C7.85156 21.0449 7.62695 20.8203 7.04102 20.8203L5.51758 20.8203C2.99805 20.8203 1.72852 19.4727 1.72852 17.0312L1.72852 7.09961C1.72852 4.6582 2.99805 3.31055 5.51758 3.31055L21.9922 3.31055C24.4824 3.31055 25.7812 4.6582 25.7812 7.09961L25.7812 17.0312C25.7812 19.4727 24.4824 20.8203 21.9922 20.8203L13.3301 20.8203C12.7148 20.8203 12.3926 20.918 11.9629 21.3574Z" fill="black" fill-opacity="0.85"/>
  <path d="M11.6895 18.5449L16.4648 18.5449C16.875 18.5449 17.1973 18.2422 17.1973 17.832C17.1973 17.4414 16.875 17.1289 16.4648 17.1289L14.873 17.1289L14.873 10.8008C14.873 10.2734 14.5996 9.91211 14.0918 9.91211L11.8652 9.91211C11.4551 9.91211 11.1328 10.2246 11.1328 10.6152C11.1328 11.0352 11.4551 11.3379 11.8652 11.3379L13.291 11.3379L13.291 17.1289L11.6895 17.1289C11.2793 17.1289 10.957 17.4414 10.957 17.832C10.957 18.2422 11.2793 18.5449 11.6895 18.5449ZM13.6816 7.85156C14.4531 7.85156 15.0586 7.24609 15.0586 6.48438C15.0586 5.71289 14.4531 5.10742 13.6816 5.10742C12.9297 5.10742 12.3145 5.71289 12.3145 6.48438C12.3145 7.24609 12.9297 7.85156 13.6816 7.85156Z" fill="black" fill-opacity="0.85"/>
 </g>
</svg>
