<?xml version="1.0" ?><!-- Generator: Adobe Illustrator 25.0.0, SVG Export Plug-In . SVG Version: 6.00 Build 0)  --><svg xmlns="http://www.w3.org/2000/svg" xmlns:xlink="http://www.w3.org/1999/xlink" version="1.1" id="Layer_1" x="0px" y="0px" viewBox="0 0 512 512" style="enable-background:new 0 0 512 512;" xml:space="preserve">
<path d="M256,512c140,0,256-116.2,256-256C512,116,395.8,0,255.7,0C116,0,0,116,0,256C0,395.8,116.2,512,256,512z M253.5,164.4  c-18.8,0-33.9-15.1-33.9-34.1s15.1-34.1,33.9-34.1c18.8,0,33.6,15.1,33.6,34.1S272.3,164.4,253.5,164.4z M210.6,398.8  c-10.8,0-19.1-7.8-19.1-18.6c0-10,8.3-18.3,19.1-18.3h31.9V244h-27.6c-10.5,0-18.8-7.8-18.8-18.6c0-10,8.3-18.3,18.8-18.3h48.7  c13.3,0,20.3,9.5,20.3,23.6v131.3h31.9c10.8,0,19.1,8.3,19.1,18.3c0,10.8-8.3,18.6-19.1,18.6H210.6z"/>
</svg>