<?xml version="1.0" encoding="UTF-8"?>
<!--Generator: Apple Native CoreSVG 326-->
<!DOCTYPE svg
PUBLIC "-//W3C//DTD SVG 1.1//EN"
       "http://www.w3.org/Graphics/SVG/1.1/DTD/svg11.dtd">
<svg version="1.1" xmlns="http://www.w3.org/2000/svg" xmlns:xlink="http://www.w3.org/1999/xlink" viewBox="0 0 20.2285 28.9645">
 <g>
  <rect height="28.9645" opacity="0" width="20.2285" x="0" y="0"/>
  <path d="M13.6982 28.8719C14.8115 29.0867 15.4365 28.9305 16.0322 28.3738L19.3037 25.2293C19.7334 24.8289 19.8701 24.4676 19.8701 23.7449L19.8701 20.5125C19.8701 19.575 19.5772 19.2234 18.8838 19.077L14.2647 18.1199C14.001 18.0613 13.8447 17.9344 13.7373 17.5047L10.7979 6.45978C10.3291 4.72149 9.14747 4.11603 7.61426 4.99493C5.76856 6.04962 3.72754 6.46954 2.24317 6.48907C0.661138 6.5086-0.315424 7.82696 0.153326 9.53595L4.46973 25.2195C4.85059 26.5477 5.61231 27.2801 7.19434 27.5926ZM13.1709 27.9539L14.001 27.2215L7.61426 26.0008C6.57911 25.7957 6.24708 25.4344 6.0127 24.5848L1.82325 9.45782C1.57911 8.57892 1.81348 8.15899 2.51661 8.14923C4.20606 8.11993 6.62794 7.5047 8.08301 6.67462C8.7959 6.26446 9.11817 6.36212 9.33301 7.1629L12.2725 18.4031C12.4678 19.1649 12.79 19.4578 13.4541 19.5945L17.2822 20.3465L17.0772 19.5848L13.5615 22.7293C12.9951 23.2371 12.917 23.5496 12.9561 24.2137ZM15.3486 27.0262C15.1436 27.2313 14.9678 27.1531 14.9482 26.8992L14.8506 24.4969C14.8311 24.077 14.8994 23.8328 15.2607 23.5008L18.0537 20.8641C18.1611 20.7567 18.3467 20.7859 18.3467 20.991L18.3467 23.8133C18.3467 24.0086 18.2588 24.2332 18.1514 24.3309ZM1.17872 7.49493L2.53614 6.92853L1.9209 4.74103C3.45411 4.86798 5.75879 4.23321 6.77442 3.39337L7.42872 5.61993L8.87403 5.23907L7.73145 1.29376C7.36036 0.00469806 5.39747-0.132021 3.11231 0.492979C0.583013 1.2254-0.276362 2.49493 0.0752009 3.70587ZM2.68262 3.1297C2.04786 3.11993 1.89161 2.7879 2.73145 2.35821C3.38575 1.97735 4.54786 1.65509 5.18262 1.67462C5.83692 1.76251 5.64161 2.15314 5.05567 2.49493C4.43067 2.83673 3.33692 3.19806 2.68262 3.1297Z" fill="black" fill-opacity="0.85"/>
 </g>
</svg>
