<?xml version="1.0" encoding="UTF-8"?>
<!--Generator: Apple Native CoreSVG 326-->
<!DOCTYPE svg
PUBLIC "-//W3C//DTD SVG 1.1//EN"
       "http://www.w3.org/Graphics/SVG/1.1/DTD/svg11.dtd">
<svg version="1.1" xmlns="http://www.w3.org/2000/svg" xmlns:xlink="http://www.w3.org/1999/xlink" viewBox="0 0 29.9512 22.959">
 <g>
  <rect height="22.959" opacity="0" width="29.9512" x="0" y="0"/>
  <path d="M3.79883 22.959L25.7812 22.959C28.3105 22.959 29.5898 21.6797 29.5898 19.1992L29.5898 3.76953C29.5898 1.2793 28.3105 0 25.7812 0L3.79883 0C1.2793 0 0 1.26953 0 3.76953L0 19.1992C0 21.6992 1.2793 22.959 3.79883 22.959ZM3.83789 21.2305C2.4707 21.2305 1.72852 20.5078 1.72852 19.1016L1.72852 3.85742C1.72852 2.46094 2.4707 1.72852 3.83789 1.72852L25.752 1.72852C27.0898 1.72852 27.8516 2.46094 27.8516 3.85742L27.8516 19.1016C27.8516 20.5078 27.0898 21.2305 25.752 21.2305Z" fill="black" fill-opacity="0.85"/>
  <path d="M16.0059 19.668L25.0684 19.668C25.9277 19.668 26.2988 19.2871 26.2988 18.4277L26.2988 4.54102C26.2988 3.67188 25.9277 3.29102 25.0684 3.29102L16.0059 3.29102C15.1465 3.29102 14.7754 3.67188 14.7754 4.54102L14.7754 18.4277C14.7754 19.2871 15.1465 19.668 16.0059 19.668ZM4.16016 11.4648C4.16992 11.8652 4.49219 12.207 4.88281 12.207L8.65234 12.207L10.7129 12.1484L9.29688 13.5156L8.00781 14.7949C7.86133 14.9219 7.79297 15.127 7.79297 15.3125C7.79297 15.7031 8.06641 15.9961 8.44727 15.9961C8.68164 15.9961 8.84766 15.8789 9.00391 15.7031L12.5195 12.002C12.7051 11.8066 12.7637 11.6602 12.7637 11.4648C12.7637 11.2695 12.6953 11.123 12.5195 10.9277L9.00391 7.23633C8.84766 7.05078 8.68164 6.94336 8.44727 6.94336C8.06641 6.94336 7.79297 7.23633 7.79297 7.63672C7.79297 7.82227 7.86133 8.01758 8.00781 8.14453L9.29688 9.42383L10.7129 10.791L8.65234 10.7324L4.88281 10.7324C4.49219 10.7324 4.15039 11.0742 4.16016 11.4648Z" fill="black" fill-opacity="0.85"/>
 </g>
</svg>
