<?xml version="1.0" encoding="UTF-8"?>
<!--Generator: Apple Native CoreSVG 326-->
<!DOCTYPE svg
PUBLIC "-//W3C//DTD SVG 1.1//EN"
       "http://www.w3.org/Graphics/SVG/1.1/DTD/svg11.dtd">
<svg version="1.1" xmlns="http://www.w3.org/2000/svg" xmlns:xlink="http://www.w3.org/1999/xlink" viewBox="0 0 23.1055 29.6582">
 <g>
  <rect height="29.6582" opacity="0" width="23.1055" x="0" y="0"/>
  <path d="M11.377 29.6484C18.1055 29.6484 22.7441 23.5352 22.7441 14.8242C22.7441 6.11328 18.1055 0 11.377 0C4.6582 0 0 6.12305 0 14.8242C0 23.5156 4.6582 29.6484 11.377 29.6484ZM11.377 27.9102C5.68359 27.9102 1.72852 22.5 1.72852 14.8242C1.72852 7.13867 5.68359 1.72852 11.377 1.72852C17.0703 1.72852 21.0156 7.13867 21.0156 14.8242C21.0156 22.5098 17.0703 27.9102 11.377 27.9102Z" fill="black" fill-opacity="0.85"/>
  <path d="M11.377 26.2598C16.0645 26.2598 19.3555 21.6211 19.3555 14.8242C19.3555 8.01758 16.0645 3.38867 11.377 3.38867C6.69922 3.38867 3.38867 8.02734 3.38867 14.8242C3.38867 21.6113 6.69922 26.2598 11.377 26.2598Z" fill="black" fill-opacity="0.85"/>
 </g>
</svg>
