<?xml version="1.0" encoding="UTF-8"?>
<!--Generator: Apple Native CoreSVG 326-->
<!DOCTYPE svg
PUBLIC "-//W3C//DTD SVG 1.1//EN"
       "http://www.w3.org/Graphics/SVG/1.1/DTD/svg11.dtd">
<svg version="1.1" xmlns="http://www.w3.org/2000/svg" xmlns:xlink="http://www.w3.org/1999/xlink" viewBox="0 0 31.4258 25.0879">
 <g>
  <rect height="25.0879" opacity="0" width="31.4258" x="0" y="0"/>
  <path d="M25 3.75977L25 5.61523L23.2715 5.61523L23.2715 3.85742C23.2715 2.45117 22.5 1.72852 21.1621 1.72852L3.83789 1.72852C2.4707 1.72852 1.72852 2.45117 1.72852 3.85742L1.72852 15.6152C1.72852 17.0215 2.4707 17.7441 3.83789 17.7441L6.06445 17.7441L6.06445 19.4727L3.79883 19.4727C1.26953 19.4727 0 18.2129 0 15.7129L0 3.75977C0 1.26953 1.26953 0 3.79883 0L21.2012 0C23.7109 0 25 1.2793 25 3.75977Z" fill="black" fill-opacity="0.85"/>
  <path d="M9.86328 25.0879L27.2559 25.0879C29.7754 25.0879 31.0645 23.8086 31.0645 21.3281L31.0645 9.375C31.0645 6.89453 29.7754 5.61523 27.2559 5.61523L9.86328 5.61523C7.33398 5.61523 6.06445 6.88477 6.06445 9.375L6.06445 21.3281C6.06445 23.8281 7.33398 25.0879 9.86328 25.0879ZM9.89258 23.3594C8.53516 23.3594 7.79297 22.6367 7.79297 21.2402L7.79297 9.47266C7.79297 8.06641 8.53516 7.34375 9.89258 7.34375L27.2266 7.34375C28.5645 7.34375 29.3262 8.06641 29.3262 9.47266L29.3262 21.2402C29.3262 22.6367 28.5645 23.3594 27.2266 23.3594Z" fill="black" fill-opacity="0.85"/>
  <path d="M10.5859 21.8066L26.5527 21.8066C27.4121 21.8066 27.7832 21.416 27.7832 20.5566L27.7832 10.1562C27.7832 9.28711 27.4121 8.90625 26.5527 8.90625L10.5859 8.90625C9.72656 8.90625 9.35547 9.28711 9.35547 10.1562L9.35547 20.5566C9.35547 21.416 9.72656 21.8066 10.5859 21.8066Z" fill="black" fill-opacity="0.85"/>
 </g>
</svg>
