<?xml version="1.0" encoding="UTF-8"?>
<!--Generator: Apple Native CoreSVG 326-->
<!DOCTYPE svg
PUBLIC "-//W3C//DTD SVG 1.1//EN"
       "http://www.w3.org/Graphics/SVG/1.1/DTD/svg11.dtd">
<svg version="1.1" xmlns="http://www.w3.org/2000/svg" xmlns:xlink="http://www.w3.org/1999/xlink" viewBox="0 0 28.6086 28.2642">
 <g>
  <rect height="28.2642" opacity="0" width="28.6086" x="0" y="0"/>
  <path d="M1.35995 16.8128L11.4478 26.9007C13.235 28.6878 15.0318 28.6975 16.7994 26.93L26.9264 16.7932C28.6939 15.0257 28.6939 13.2288 26.9068 11.4417L16.8189 1.35378C15.0318-0.443093 13.2447-0.452858 11.4674 1.33425L1.32089 11.4612C-0.456453 13.2385-0.436922 15.0257 1.35995 16.8128ZM2.60019 15.6214C1.62363 14.6546 1.61386 13.6194 2.60995 12.6331L12.6295 2.61355C13.6158 1.61745 14.6412 1.62722 15.6178 2.60378L25.6471 12.6331C26.6139 13.5999 26.6432 14.6448 25.6471 15.6311L15.6275 25.6409C14.6314 26.637 13.5963 26.6175 12.6393 25.6604Z" fill="black" fill-opacity="0.85"/>
  <path d="M4.0455 14.8596L13.401 24.2151C13.899 24.7034 14.3678 24.7034 14.8756 24.2053L24.2213 14.8596C24.7096 14.3714 24.7096 13.8928 24.2018 13.385L14.8756 4.04909C14.3678 3.55105 13.9088 3.55105 13.401 4.03933L4.05527 13.385C3.55722 13.8928 3.55722 14.3616 4.0455 14.8596Z" fill="black" fill-opacity="0.85"/>
 </g>
</svg>
