<?xml version="1.0" encoding="UTF-8"?>
<!--Generator: Apple Native CoreSVG 326-->
<!DOCTYPE svg
PUBLIC "-//W3C//DTD SVG 1.1//EN"
       "http://www.w3.org/Graphics/SVG/1.1/DTD/svg11.dtd">
<svg version="1.1" xmlns="http://www.w3.org/2000/svg" xmlns:xlink="http://www.w3.org/1999/xlink" viewBox="0 0 29.1699 20.8496">
 <g>
  <rect height="20.8496" opacity="0" width="29.1699" x="0" y="0"/>
  <path d="M10.7617 17.2754L10.7617 14.6191C10.7617 14.248 11.0547 13.9551 11.4355 13.9551C11.8066 13.9551 12.1094 14.248 12.1094 14.6191L12.1094 17.2754C12.1094 17.6562 11.8066 17.959 11.4355 17.959C11.0547 17.959 10.7617 17.6562 10.7617 17.2754ZM13.7207 17.2754L13.7207 14.6191C13.7207 14.248 14.0234 13.9551 14.4043 13.9551C14.7754 13.9551 15.0781 14.248 15.0781 14.6191L15.0781 17.2754C15.0781 17.6562 14.7754 17.959 14.4043 17.959C14.0234 17.959 13.7207 17.6562 13.7207 17.2754ZM16.6895 17.2754L16.6895 14.6191C16.6895 14.248 16.9824 13.9551 17.3633 13.9551C17.7441 13.9551 18.0371 14.248 18.0371 14.6191L18.0371 17.2754C18.0371 17.6562 17.7441 17.959 17.3633 17.959C16.9824 17.959 16.6895 17.6562 16.6895 17.2754ZM19.6484 17.2754L19.6484 14.6191C19.6484 14.248 19.9512 13.9551 20.332 13.9551C20.7031 13.9551 21.0059 14.248 21.0059 14.6191L21.0059 17.2754C21.0059 17.6562 20.7031 17.959 20.332 17.959C19.9512 17.959 19.6484 17.6562 19.6484 17.2754ZM22.627 17.2754L22.627 14.6191C22.627 14.248 22.9199 13.9551 23.3105 13.9551C23.6816 13.9551 23.9648 14.248 23.9648 14.6191L23.9648 17.2754C23.9648 17.6562 23.6816 17.959 23.3105 17.959C22.9199 17.959 22.627 17.6562 22.627 17.2754ZM4.92188 20.8496L23.8867 20.8496C26.7578 20.8496 28.8086 18.8086 28.8086 15.957C28.8086 13.1152 26.7578 11.0645 23.8867 11.0645L4.92188 11.0645C2.05078 11.0645 0 13.1152 0 15.957C0 18.8086 2.05078 20.8496 4.92188 20.8496ZM4.92188 9.50195L23.8867 9.50195C25.0488 9.50195 26.1035 9.77539 27.0215 10.2539L23.8379 2.80273C23.0762 0.986328 21.5332 0.0195312 19.4727 0.0195312L9.33594 0.0195312C7.27539 0.0195312 5.72266 0.986328 4.9707 2.80273L1.77734 10.2539C2.69531 9.77539 3.75977 9.50195 4.92188 9.50195Z" fill="black" fill-opacity="0.85"/>
 </g>
</svg>
