<?xml version="1.0" ?><!-- Generator: Adobe Illustrator 25.0.0, SVG Export Plug-In . SVG Version: 6.00 Build 0)  --><svg xmlns="http://www.w3.org/2000/svg" xmlns:xlink="http://www.w3.org/1999/xlink" version="1.1" id="Layer_1" x="0px" y="0px" viewBox="0 0 512 512" style="enable-background:new 0 0 512 512;" xml:space="preserve">
<path d="M129.1,512h253.8c18.8,0,34-5.5,45.6-16.6c11.6-11.1,17.4-25.5,17.4-43.4V60.2c0-18-5.8-32.6-17.4-43.6  C416.9,5.5,401.7,0,382.9,0H129.1c-18.8,0-34,5.5-45.6,16.6C71.9,27.6,66.1,42.2,66.1,60.2V452c0,17.9,5.8,32.3,17.4,43.4  C95.1,506.5,110.3,512,129.1,512z M133.6,475.4c-9.7,0-17.3-2.6-22.7-7.8c-5.5-5.2-8.2-12.5-8.2-21.7V66.4c0-9.4,2.7-16.7,8.2-21.9  c5.5-5.2,13-7.8,22.7-7.8h244.8c9.7,0,17.3,2.6,22.7,7.8c5.5,5.2,8.2,12.5,8.2,21.9v379.5c0,9.2-2.7,16.5-8.2,21.7  c-5.5,5.2-13,7.8-22.7,7.8H133.6z" class="hierarchical-0:secondary SFSymbolsPreview4D4D4D" style="fill: #4D4D4D;"/>
<path d="M161.1,123.6c7.6,0,14.2-2.9,20-8.6c5.8-5.8,8.6-12.7,8.6-20.7c0-7.7-2.9-14.4-8.6-20.1c-5.8-5.7-12.4-8.5-20-8.5  c-8.2,0-15.1,2.8-20.8,8.5c-5.7,5.7-8.5,12.4-8.5,20.1c0,8,2.8,14.9,8.5,20.7C146,120.7,152.9,123.6,161.1,123.6z" class="hierarchical-1:primary SFSymbolsPreview212121" style="fill: #212121;"/>
</svg>