<?xml version="1.0" encoding="UTF-8"?>
<!--Generator: Apple Native CoreSVG 326-->
<!DOCTYPE svg
PUBLIC "-//W3C//DTD SVG 1.1//EN"
       "http://www.w3.org/Graphics/SVG/1.1/DTD/svg11.dtd">
<svg version="1.1" xmlns="http://www.w3.org/2000/svg" xmlns:xlink="http://www.w3.org/1999/xlink" viewBox="0 0 28.6133 30.7129">
 <g>
  <rect height="30.7129" opacity="0" width="28.6133" x="0" y="0"/>
  <path d="M20.8637 3.91602L12.627 3.91602C10.0488 3.91602 8.24219 5.6543 8.24219 8.21289L8.24219 26.416C8.24219 26.8413 8.29211 27.244 8.39151 27.6172L5.76172 27.6172C4.54102 27.6172 3.84766 26.9434 3.84766 25.7617L3.84766 4.95117C3.84766 3.75977 4.54102 3.08594 5.76172 3.08594L19.1895 3.08594C19.9915 3.08594 20.5659 3.37685 20.8637 3.91602Z" fill="black" fill-opacity="0.2125"/>
  <path d="M22.7612 3.91602L20.8637 3.91602C20.5659 3.37685 19.9915 3.08594 19.1895 3.08594L5.76172 3.08594C4.54102 3.08594 3.84766 3.75977 3.84766 4.95117L3.84766 25.7617C3.84766 26.9434 4.54102 27.6172 5.76172 27.6172L8.39151 27.6172C8.55789 28.2943 8.87413 28.8822 9.31222 29.3555L5.54688 29.3555C3.45703 29.3555 2.10938 28.0566 2.10938 26.0352L2.10938 4.67773C2.10938 2.65625 3.45703 1.35742 5.54688 1.35742L19.3945 1.35742C21.208 1.35742 22.4626 2.33546 22.7612 3.91602Z" fill="black" fill-opacity="0.85"/>
  <path d="M11.3379 26.0059L11.3379 8.62305C11.3379 7.61719 11.9434 7.00195 12.9883 7.00195L23.8672 7.00195C24.9023 7.00195 25.5176 7.61719 25.5176 8.62305L25.5176 26.0059C25.5176 27.0117 24.9023 27.6172 23.8672 27.6172L12.9883 27.6172C11.9434 27.6172 11.3379 27.0117 11.3379 26.0059Z" fill="black" fill-opacity="0.2125"/>
  <path d="M9.59961 26.416C9.59961 28.2031 10.791 29.3555 12.627 29.3555L24.2188 29.3555C26.0645 29.3555 27.2559 28.2031 27.2559 26.416L27.2559 8.21289C27.2559 6.42578 26.0645 5.27344 24.2188 5.27344L12.627 5.27344C10.791 5.27344 9.59961 6.42578 9.59961 8.21289ZM11.3379 26.0059L11.3379 8.62305C11.3379 7.61719 11.9434 7.00195 12.9883 7.00195L23.8672 7.00195C24.9023 7.00195 25.5176 7.61719 25.5176 8.62305L25.5176 26.0059C25.5176 27.0117 24.9023 27.6172 23.8672 27.6172L12.9883 27.6172C11.9434 27.6172 11.3379 27.0117 11.3379 26.0059Z" fill="black" fill-opacity="0.85"/>
 </g>
</svg>
