<?xml version="1.0" encoding="UTF-8"?>
<!--Generator: Apple Native CoreSVG 326-->
<!DOCTYPE svg
PUBLIC "-//W3C//DTD SVG 1.1//EN"
       "http://www.w3.org/Graphics/SVG/1.1/DTD/svg11.dtd">
<svg version="1.1" xmlns="http://www.w3.org/2000/svg" xmlns:xlink="http://www.w3.org/1999/xlink" viewBox="0 0 27.6074 30.5957">
 <g>
  <rect height="30.5957" opacity="0" width="27.6074" x="0" y="0"/>
  <path d="M23.9844 4.61914L23.9844 10.6693C23.9439 10.6646 23.9008 10.6641 23.8574 10.6641L19.1309 10.6641L19.1309 5.76172C19.1309 5.37109 18.8086 5.03906 18.4082 5.03906C18.0176 5.03906 17.6953 5.37109 17.6953 5.76172L17.6953 10.6893C15.6466 10.8847 14.4434 12.3333 14.4434 14.3457L14.4434 26.9336C14.4434 27.8669 14.7045 28.6779 15.1916 29.2969L6.69922 29.2969C4.60938 29.2969 3.26172 27.998 3.26172 25.9766L3.26172 4.61914C3.26172 2.59766 4.60938 1.29883 6.69922 1.29883L20.5469 1.29883C22.6367 1.29883 23.9844 2.59766 23.9844 4.61914ZM11.4062 5.76172L11.4062 24.834C11.4062 25.2246 11.7285 25.5469 12.1289 25.5469C12.5195 25.5469 12.8418 25.2246 12.8418 24.834L12.8418 5.76172C12.8418 5.37109 12.5195 5.03906 12.1289 5.03906C11.7285 5.03906 11.4062 5.37109 11.4062 5.76172Z" fill="black" fill-opacity="0.85"/>
  <path d="M18.1836 29.2383L23.8574 29.2383C25.3906 29.2383 26.25 28.4082 26.25 26.9336L26.25 14.3457C26.25 12.8711 25.3809 12.0312 23.8574 12.0312L18.1836 12.0312C16.6699 12.0312 15.8008 12.8711 15.8008 14.3457L15.8008 26.9336C15.8008 28.4082 16.6602 29.2383 18.1836 29.2383ZM18.0469 16.8164C17.4219 16.8164 17.0605 16.4746 17.0605 15.8887L17.0605 14.2969C17.0605 13.7305 17.4219 13.3691 18.0469 13.3691L19.5312 13.3691C20.1562 13.3691 20.5176 13.7305 20.5176 14.2969L20.5176 15.8887C20.5176 16.4746 20.1562 16.8164 19.5312 16.8164Z" fill="black" fill-opacity="0.85"/>
 </g>
</svg>
