<?xml version="1.0" ?><!-- Generator: Adobe Illustrator 25.0.0, SVG Export Plug-In . SVG Version: 6.00 Build 0)  --><svg xmlns="http://www.w3.org/2000/svg" xmlns:xlink="http://www.w3.org/1999/xlink" version="1.1" id="Layer_1" x="0px" y="0px" viewBox="0 0 512 512" style="enable-background:new 0 0 512 512;" xml:space="preserve">
<path d="M100.3,303.4V452c0,17.9,5.8,32.3,17.4,43.4c11.6,11.1,26.8,16.6,45.6,16.6h253.8c18.8,0,34-5.5,45.6-16.6  c11.6-11.1,17.4-25.5,17.4-43.4V60.2c0-18-5.8-32.6-17.4-43.6C451.1,5.5,435.9,0,417.1,0H163.3c-18.8,0-34,5.5-45.6,16.6  c-11.6,11.1-17.4,25.6-17.4,43.6v148.6h36.6V66.4c0-9.4,2.7-16.7,8.2-21.9c5.5-5.2,13.1-7.8,23-7.8h244.5c9.7,0,17.3,2.6,22.7,7.8  c5.5,5.2,8.2,12.5,8.2,21.9v379.5c0,9.2-2.7,16.5-8.2,21.7c-5.5,5.2-13,7.8-22.7,7.8H168.1c-9.8,0-17.5-2.6-23-7.8  c-5.5-5.2-8.2-12.5-8.2-21.7V303.4H100.3z" class="hierarchical-0:secondary SFSymbolsPreview4D4D4D" style="fill: #4D4D4D;"/>
<path d="M48.5,272h148.4l48-2.3l-49.8,44.5l-13,13c-1.4,1.7-2.5,3.5-3.4,5.6c-0.9,2-1.4,4.3-1.4,6.7c0,4.5,1.5,8.3,4.4,11.2  c3,3,6.6,4.4,11,4.4c4.7,0,8.7-1.7,12-5l82.5-82.3c3.9-3.9,5.9-8,5.9-12c0-4.4-2-8.5-5.9-12.3l-82.5-82c-3.3-3.3-7.3-5-12-5  c-4.4,0-8.1,1.4-11,4.3c-3,2.9-4.4,6.6-4.4,11.1c0,2.6,0.5,4.9,1.4,6.9c0.9,2,2,3.8,3.4,5.3l13,13.2l49.8,44.3l-48-2.3H48.5  c-5.2,0-9.2,1.7-12.2,5c-3,3.3-4.4,7.1-4.4,11.4c0,4.2,1.5,8,4.4,11.2C39.3,270.4,43.4,272,48.5,272z" class="hierarchical-1:primary SFSymbolsPreview212121" style="fill: #212121;"/>
</svg>