<?xml version="1.0" encoding="UTF-8"?>
<!--Generator: Apple Native CoreSVG 326-->
<!DOCTYPE svg
PUBLIC "-//W3C//DTD SVG 1.1//EN"
       "http://www.w3.org/Graphics/SVG/1.1/DTD/svg11.dtd">
<svg version="1.1" xmlns="http://www.w3.org/2000/svg" xmlns:xlink="http://www.w3.org/1999/xlink" viewBox="0 0 29.9512 28.5376">
 <g>
  <rect height="28.5376" opacity="0" width="29.9512" x="0" y="0"/>
  <path d="M1.19141 3.78541L2.38088 4.97584C1.95197 5.32687 1.72852 5.89025 1.72852 6.6565L1.72852 21.9104C1.72852 23.3069 2.4707 24.0295 3.83789 24.0295L21.4191 24.0295L23.1463 25.7581L3.79883 25.7581C1.2793 25.7581 0 24.4983 0 21.9983L0 6.56861C0 5.24649 0.357794 4.27124 1.07127 3.64939ZM29.5898 6.56861L29.5898 21.9983C29.5898 23.3221 29.2283 24.3009 28.506 24.9238C28.47 24.8778 28.4303 24.8339 28.3887 24.7913L27.1913 23.5925C27.6217 23.2415 27.8516 22.6776 27.8516 21.9104L27.8516 6.6565C27.8516 5.26001 27.0898 4.53736 25.752 4.53736L8.15938 4.53736L6.43296 2.80884L25.7812 2.80884C28.3105 2.80884 29.5898 4.07837 29.5898 6.56861ZM20.2721 22.8816C20.1774 22.9956 20.0326 23.0627 19.8633 23.0627L9.72656 23.0627C9.41406 23.0627 9.19922 22.8479 9.19922 22.5354C9.19922 22.2229 9.41406 22.0081 9.72656 22.0081L19.3993 22.0081Z" fill="black" fill-opacity="0.85"/>
  <path d="M26.2402 26.9299C26.5723 27.262 27.0996 27.262 27.4219 26.9299C27.7441 26.6077 27.7539 26.0803 27.4316 25.7581L3.33984 1.63697C3.01758 1.32447 2.49023 1.30494 2.1582 1.63697C1.83594 1.95923 1.83594 2.50611 2.1582 2.81861Z" fill="black" fill-opacity="0.85"/>
 </g>
</svg>
