<?xml version="1.0" encoding="UTF-8"?>
<!--Generator: Apple Native CoreSVG 326-->
<!DOCTYPE svg
PUBLIC "-//W3C//DTD SVG 1.1//EN"
       "http://www.w3.org/Graphics/SVG/1.1/DTD/svg11.dtd">
<svg version="1.1" xmlns="http://www.w3.org/2000/svg" xmlns:xlink="http://www.w3.org/1999/xlink" viewBox="0 0 25.8008 25.5371">
 <g>
  <rect height="25.5371" opacity="0" width="25.8008" x="0" y="0"/>
  <path d="M12.7148 25.4395C19.7363 25.4395 25.4395 19.7461 25.4395 12.7246C25.4395 5.70312 19.7363 0 12.7148 0C5.69336 0 0 5.70312 0 12.7246C0 19.7461 5.69336 25.4395 12.7148 25.4395ZM12.7148 23.623C6.68945 23.623 1.81641 18.75 1.81641 12.7246C1.81641 6.69922 6.68945 1.82617 12.7148 1.82617C18.7402 1.82617 23.6133 6.69922 23.6133 12.7246C23.6133 18.75 18.7402 23.623 12.7148 23.623Z" fill="black" fill-opacity="0.85"/>
  <path d="M5.33203 16.4844C5.49805 16.2891 5.43945 16.0547 5.25391 15.8398C4.47266 14.9805 4.0625 13.8965 4.0625 12.7246C4.0625 11.543 4.47266 10.459 5.25391 9.59961C5.43945 9.39453 5.49805 9.15039 5.33203 8.95508C5.16602 8.75 4.86328 8.75 4.64844 8.95508C3.71094 9.9707 3.19336 11.3086 3.19336 12.7246C3.19336 14.1309 3.71094 15.4688 4.64844 16.4844C4.86328 16.6992 5.16602 16.6992 5.33203 16.4844ZM20.0781 16.4844C20.2344 16.6992 20.5371 16.6992 20.752 16.4844C21.6895 15.4688 22.2168 14.1309 22.2168 12.7246C22.2168 11.3086 21.6895 9.9707 20.752 8.95508C20.5371 8.75 20.2344 8.75 20.0781 8.95508C19.9121 9.15039 19.9609 9.39453 20.1465 9.59961C20.9277 10.459 21.3379 11.543 21.3379 12.7246C21.3379 13.8965 20.9277 14.9805 20.1465 15.8398C19.9609 16.0547 19.9121 16.2891 20.0781 16.4844Z" fill="black" fill-opacity="0.85"/>
  <path d="M7.12891 14.9219C7.28516 14.7266 7.23633 14.4922 7.06055 14.2676C6.71875 13.877 6.5332 13.3301 6.5332 12.7246C6.5332 12.1094 6.71875 11.5625 7.06055 11.1719C7.23633 10.9473 7.28516 10.7227 7.12891 10.5176C6.95312 10.3125 6.63086 10.3125 6.44531 10.5469C5.9375 11.1426 5.64453 11.9043 5.64453 12.7246C5.64453 13.5352 5.9375 14.2969 6.44531 14.8926C6.63086 15.127 6.95312 15.127 7.12891 14.9219ZM18.2715 14.9219C18.4473 15.127 18.7695 15.127 18.9551 14.8926C19.4629 14.2969 19.7559 13.5352 19.7559 12.7246C19.7559 11.9043 19.4629 11.1426 18.9551 10.5469C18.7695 10.3125 18.4473 10.3125 18.2715 10.5176C18.1152 10.7227 18.1738 10.9473 18.3398 11.1719C18.6914 11.5625 18.8672 12.1094 18.8672 12.7246C18.8672 13.3301 18.6914 13.877 18.3398 14.2676C18.1738 14.4922 18.1152 14.7266 18.2715 14.9219Z" fill="black" fill-opacity="0.85"/>
  <path d="M10.2539 20L15.166 20C16.3184 20 17.0605 19.2969 17.0605 18.1738L17.0605 7.27539C17.0605 6.14258 16.3184 5.42969 15.166 5.42969L10.2539 5.42969C9.11133 5.42969 8.36914 6.14258 8.36914 7.27539L8.36914 18.1738C8.36914 19.2969 9.11133 20 10.2539 20ZM10.3809 18.9844C9.72656 18.9844 9.39453 18.6719 9.39453 18.0371L9.39453 7.40234C9.39453 6.77734 9.7168 6.45508 10.3809 6.45508L15.0488 6.45508C15.7129 6.45508 16.0449 6.77734 16.0449 7.40234L16.0449 18.0371C16.0449 18.6719 15.7129 18.9844 15.0488 18.9844ZM11.8652 7.92969L13.5547 7.92969C13.8184 7.92969 14.0137 7.72461 14.0137 7.46094C14.0137 7.20703 13.8184 7.00195 13.5547 7.00195L11.8652 7.00195C11.6016 7.00195 11.4062 7.20703 11.4062 7.46094C11.4062 7.72461 11.6016 7.92969 11.8652 7.92969ZM11.2793 18.5352L14.1504 18.5352C14.3555 18.5352 14.4824 18.3887 14.4824 18.2031C14.4824 17.998 14.3555 17.8613 14.1504 17.8613L11.2793 17.8613C11.0938 17.8613 10.9473 17.9883 10.9473 18.2031C10.9473 18.3984 11.084 18.5352 11.2793 18.5352Z" fill="black" fill-opacity="0.85"/>
 </g>
</svg>
