<?xml version="1.0" encoding="UTF-8"?>
<!--Generator: Apple Native CoreSVG 326-->
<!DOCTYPE svg
PUBLIC "-//W3C//DTD SVG 1.1//EN"
       "http://www.w3.org/Graphics/SVG/1.1/DTD/svg11.dtd">
<svg version="1.1" xmlns="http://www.w3.org/2000/svg" xmlns:xlink="http://www.w3.org/1999/xlink" viewBox="0 0 30.2832 26.2402">
 <g>
  <rect height="26.2402" opacity="0" width="30.2832" x="0" y="0"/>
  <path d="M22.793 3.22266L22.793 10.0488L21.0645 10.0488L21.0645 3.47656C21.0645 2.33398 20.4395 1.72852 19.248 1.72852L10.6738 1.72852C9.48242 1.72852 8.85742 2.33398 8.85742 3.47656L8.85742 22.7441C8.85742 23.8867 9.48242 24.4922 10.6738 24.4922L19.248 24.4922C20.4395 24.4922 21.0645 23.8867 21.0645 22.7441L21.0645 16.1621L22.793 16.1621L22.793 22.998C22.793 24.9707 21.4941 26.2207 19.4629 26.2207L10.459 26.2207C8.42773 26.2207 7.12891 24.9707 7.12891 22.998L7.12891 3.22266C7.12891 1.25 8.42773 0 10.459 0L19.4629 0C21.4941 0 22.793 1.25 22.793 3.22266Z" fill="black" fill-opacity="0.85"/>
  <path d="M14.9316 13.1055C14.9316 13.5645 15.3125 13.9551 15.7617 13.9551L26.0547 13.9551L27.9102 13.8965L27.0996 14.668L24.873 16.7969C24.6973 16.9434 24.6094 17.1777 24.6094 17.3926C24.6094 17.832 24.9316 18.1641 25.3711 18.1641C25.5957 18.1641 25.7715 18.0762 25.9375 17.9102L30 13.7207C30.2148 13.5059 30.2832 13.3203 30.2832 13.1055C30.2832 12.8809 30.2148 12.6953 30 12.4805L25.9375 8.30078C25.7715 8.13477 25.5957 8.04688 25.3711 8.04688C24.9316 8.04688 24.6094 8.38867 24.6094 8.82812C24.6094 9.04297 24.6973 9.26758 24.873 9.41406L27.0996 11.543L27.9004 12.3145L26.0547 12.2461L15.7617 12.2461C15.3125 12.2461 14.9316 12.6367 14.9316 13.1055Z" fill="black" fill-opacity="0.85"/>
 </g>
</svg>
