<?xml version="1.0" encoding="UTF-8"?>
<!--Generator: Apple Native CoreSVG 326-->
<!DOCTYPE svg
PUBLIC "-//W3C//DTD SVG 1.1//EN"
       "http://www.w3.org/Graphics/SVG/1.1/DTD/svg11.dtd">
<svg version="1.1" xmlns="http://www.w3.org/2000/svg" xmlns:xlink="http://www.w3.org/1999/xlink" viewBox="0 0 25.8008 25.459">
 <g>
  <rect height="25.459" opacity="0" width="25.8008" x="0" y="0"/>
  <path d="M25.4395 12.7344C25.4395 19.7461 19.7266 25.459 12.7148 25.459C5.71289 25.459 0 19.7461 0 12.7344C0 5.73242 5.71289 0.0195312 12.7148 0.0195312C19.7266 0.0195312 25.4395 5.73242 25.4395 12.7344ZM10.1953 5.26367C9.01367 5.26367 8.26172 5.99609 8.26172 7.1582L8.26172 18.3105C8.26172 19.4727 9.01367 20.2051 10.1953 20.2051L15.2246 20.2051C16.4062 20.2051 17.168 19.4727 17.168 18.3105L17.168 7.1582C17.168 6.00586 16.4062 5.26367 15.2246 5.26367ZM11.3086 6.44531L11.3086 6.57227C11.3086 6.88477 11.5039 7.08984 11.7969 7.08984L13.623 7.08984C13.9355 7.08984 14.1211 6.88477 14.1211 6.57227L14.1211 6.44531C14.1211 6.35742 14.1699 6.30859 14.248 6.30859L15.1172 6.30859C15.7812 6.30859 16.123 6.65039 16.123 7.29492L16.123 18.1836C16.123 18.8184 15.7812 19.1602 15.1172 19.1602L10.3223 19.1602C9.6582 19.1602 9.30664 18.8184 9.30664 18.1836L9.30664 7.29492C9.30664 6.65039 9.64844 6.30859 10.3223 6.30859L11.1719 6.30859C11.2891 6.30859 11.3086 6.35742 11.3086 6.44531ZM11.25 17.9883C11.0547 17.9883 10.9082 18.125 10.9082 18.3398C10.9082 18.5547 11.0449 18.6816 11.25 18.6816L14.1895 18.6816C14.3945 18.6816 14.5215 18.5449 14.5215 18.3398C14.5215 18.1348 14.3945 17.9883 14.1895 17.9883ZM4.45312 8.88672C3.49609 9.92188 2.95898 11.2988 2.95898 12.7344C2.95898 14.1797 3.49609 15.5566 4.45312 16.5918C4.67773 16.8164 4.98047 16.8164 5.14648 16.5918C5.3125 16.3965 5.26367 16.1523 5.07812 15.9277C4.27734 15.0488 3.85742 13.9453 3.85742 12.7344C3.85742 11.5332 4.27734 10.4297 5.07812 9.55078C5.26367 9.32617 5.3125 9.08203 5.14648 8.88672C4.98047 8.66211 4.67773 8.66211 4.45312 8.88672ZM20.2539 8.88672C20.0879 9.08203 20.1465 9.32617 20.332 9.55078C21.123 10.4297 21.5527 11.5332 21.5527 12.7344C21.5527 13.9453 21.123 15.0488 20.332 15.9277C20.1465 16.1523 20.0879 16.3965 20.2539 16.5918C20.4199 16.8164 20.7227 16.8164 20.9473 16.5918C21.9141 15.5566 22.4414 14.1797 22.4414 12.7344C22.4414 11.2988 21.9141 9.92188 20.9473 8.88672C20.7227 8.66211 20.4199 8.66211 20.2539 8.88672ZM6.28906 10.5078C5.77148 11.123 5.47852 11.9043 5.47852 12.7344C5.47852 13.5742 5.77148 14.3555 6.28906 14.9609C6.48438 15.2051 6.81641 15.2051 7.00195 14.9902C7.1582 14.7852 7.10938 14.5508 6.92383 14.3164C6.57227 13.9062 6.38672 13.3594 6.38672 12.7344C6.38672 12.1094 6.57227 11.5527 6.92383 11.1621C7.10938 10.918 7.1582 10.6836 7.00195 10.4883C6.81641 10.2637 6.48438 10.2734 6.28906 10.5078ZM18.4082 10.4883C18.2422 10.6836 18.3008 10.918 18.4863 11.1621C18.8281 11.5527 19.0137 12.1094 19.0137 12.7344C19.0137 13.3594 18.8281 13.9062 18.4863 14.3164C18.3008 14.5508 18.2422 14.7852 18.4082 14.9902C18.584 15.2051 18.916 15.2051 19.1211 14.9609C19.6387 14.3555 19.9219 13.5742 19.9219 12.7344C19.9219 11.9043 19.6387 11.123 19.1211 10.5078C18.916 10.2734 18.584 10.2637 18.4082 10.4883Z" fill="black" fill-opacity="0.85"/>
 </g>
</svg>
