<?xml version="1.0" encoding="UTF-8"?>
<!--Generator: Apple Native CoreSVG 326-->
<!DOCTYPE svg
PUBLIC "-//W3C//DTD SVG 1.1//EN"
       "http://www.w3.org/Graphics/SVG/1.1/DTD/svg11.dtd">
<svg version="1.1" xmlns="http://www.w3.org/2000/svg" xmlns:xlink="http://www.w3.org/1999/xlink" viewBox="0 0 25.8008 25.459">
 <g>
  <rect height="25.459" opacity="0" width="25.8008" x="0" y="0"/>
  <path d="M25.4395 12.7344C25.4395 19.7461 19.7266 25.459 12.7148 25.459C5.71289 25.459 0 19.7461 0 12.7344C0 5.73242 5.71289 0.0195312 12.7148 0.0195312C19.7266 0.0195312 25.4395 5.73242 25.4395 12.7344ZM7.83203 18.8965C7.83203 20.166 8.65234 20.957 9.95117 20.957L15.498 20.957C16.5669 20.957 17.3118 20.4213 17.5407 19.5231L16.4941 18.4766L16.4941 18.75C16.4941 19.4531 16.1133 19.8242 15.3711 19.8242L10.0781 19.8242C9.33594 19.8242 8.95508 19.4531 8.95508 18.75L8.95508 10.9375L7.83203 9.81445ZM6.2793 6.29883C6.07422 6.51367 6.08398 6.85547 6.2793 7.05078L18.4082 19.1699C18.6035 19.375 18.9551 19.375 19.1602 19.1699C19.3652 18.9453 19.3652 18.623 19.1602 18.418L7.04102 6.29883C6.83594 6.08398 6.50391 6.08398 6.2793 6.29883ZM11.1035 18.5449C10.8984 18.5449 10.7422 18.7012 10.7422 18.9258C10.7422 19.1309 10.8984 19.2773 11.1035 19.2773L14.3457 19.2773C14.5508 19.2773 14.707 19.1309 14.707 18.9258C14.707 18.7012 14.5508 18.5449 14.3457 18.5449ZM9.95117 4.51172C8.88505 4.51172 8.14134 5.05126 7.9101 5.94741L8.95508 6.99323L8.95508 6.72852C8.95508 6.02539 9.33594 5.6543 10.0781 5.6543L15.3711 5.6543C16.1133 5.6543 16.4941 6.02539 16.4941 6.72852L16.4941 14.5384L17.6172 15.6623L17.6172 6.58203C17.6172 5.3125 16.7969 4.51172 15.498 4.51172ZM11.7773 6.30859C11.4746 6.30859 11.25 6.5332 11.25 6.82617C11.25 7.12891 11.4746 7.34375 11.7773 7.34375L13.6621 7.34375C13.9648 7.34375 14.1895 7.12891 14.1895 6.82617C14.1895 6.5332 13.9648 6.30859 13.6621 6.30859Z" fill="black" fill-opacity="0.85"/>
 </g>
</svg>
