<?xml version="1.0" encoding="UTF-8"?>
<!--Generator: Apple Native CoreSVG 326-->
<!DOCTYPE svg
PUBLIC "-//W3C//DTD SVG 1.1//EN"
       "http://www.w3.org/Graphics/SVG/1.1/DTD/svg11.dtd">
<svg version="1.1" xmlns="http://www.w3.org/2000/svg" xmlns:xlink="http://www.w3.org/1999/xlink" viewBox="0 0 16.0254 26.2402">
 <g>
  <rect height="26.2402" opacity="0" width="16.0254" x="0" y="0"/>
  <path d="M3.33008 26.2207L12.3242 26.2207C14.3652 26.2207 15.6641 24.9707 15.6641 22.998L15.6641 3.22266C15.6641 1.25 14.3652 0 12.3242 0L3.33008 0C1.28906 0 0 1.25 0 3.22266L0 22.998C0 24.9707 1.28906 26.2207 3.33008 26.2207ZM3.33984 7.30469C2.41211 7.30469 1.85547 6.77734 1.85547 5.89844L1.85547 3.26172C1.85547 2.39258 2.41211 1.85547 3.33984 1.85547L5.81055 1.85547C6.74805 1.85547 7.30469 2.39258 7.30469 3.26172L7.30469 5.89844C7.30469 6.77734 6.74805 7.30469 5.81055 7.30469Z" fill="black" fill-opacity="0.85"/>
 </g>
</svg>
