<?xml version="1.0" encoding="UTF-8"?>
<!--Generator: Apple Native CoreSVG 326-->
<!DOCTYPE svg
PUBLIC "-//W3C//DTD SVG 1.1//EN"
       "http://www.w3.org/Graphics/SVG/1.1/DTD/svg11.dtd">
<svg version="1.1" xmlns="http://www.w3.org/2000/svg" xmlns:xlink="http://www.w3.org/1999/xlink" viewBox="0 0 26.582 25.0392">
 <g>
  <rect height="25.0392" opacity="0" width="26.582" x="0" y="0"/>
  <path d="M3.84034 6.40145L3.48633 6.40145C2.33398 6.40145 1.73828 7.02645 1.73828 8.21786L1.73828 16.7921C1.73828 17.9737 2.33398 18.5987 3.48633 18.5987L16.0492 18.5987L17.7793 20.3272L3.22266 20.3272C1.25977 20.3272 0 19.0382 0 16.9972L0 8.00301C0 6.32981 0.846638 5.16195 2.23419 4.79683ZM26.2207 8.00301L26.2207 16.9972C26.2207 18.712 25.3383 19.8961 23.8838 20.2272L22.2546 18.5987L22.7441 18.5987C23.8965 18.5987 24.4922 17.9737 24.4922 16.7921L24.4922 8.21786C24.4922 7.02645 23.8965 6.40145 22.7441 6.40145L10.0515 6.40145L8.32219 4.67294L22.998 4.67294C24.9707 4.67294 26.2207 5.962 26.2207 8.00301ZM15.1499 17.7003L9.77539 17.7003C9.47266 17.7003 9.24805 17.4854 9.24805 17.1729C9.24805 16.8507 9.47266 16.6358 9.77539 16.6358L14.0844 16.6358ZM4.18945 11.0108L4.18945 13.9893C4.18945 14.4483 3.83789 14.7999 3.37891 14.7999C2.92969 14.7999 2.57812 14.4483 2.57812 13.9893L2.57812 11.0108C2.57812 10.5616 2.92969 10.21 3.37891 10.21C3.83789 10.21 4.18945 10.5616 4.18945 11.0108Z" fill="black" fill-opacity="0.85"/>
  <path d="M22.8125 23.4425C23.1348 23.7647 23.6719 23.755 23.9941 23.4425C24.3164 23.1202 24.3164 22.5831 23.9941 22.2608L3.4082 1.68466C3.0957 1.36239 2.55859 1.34286 2.22656 1.68466C1.9043 2.00692 1.9043 2.54403 2.22656 2.8663Z" fill="black" fill-opacity="0.85"/>
 </g>
</svg>
