<?xml version="1.0" encoding="UTF-8"?>
<!--Generator: Apple Native CoreSVG 326-->
<!DOCTYPE svg
PUBLIC "-//W3C//DTD SVG 1.1//EN"
       "http://www.w3.org/Graphics/SVG/1.1/DTD/svg11.dtd">
<svg version="1.1" xmlns="http://www.w3.org/2000/svg" xmlns:xlink="http://www.w3.org/1999/xlink" viewBox="0 0 25.8008 25.459">
 <g>
  <rect height="25.459" opacity="0" width="25.8008" x="0" y="0"/>
  <path d="M25.4395 12.7344C25.4395 19.7461 19.7266 25.459 12.7148 25.459C5.71289 25.459 0 19.7461 0 12.7344C0 5.73242 5.71289 0.0195312 12.7148 0.0195312C19.7266 0.0195312 25.4395 5.73242 25.4395 12.7344ZM9.93164 4.52148C8.63281 4.52148 7.82227 5.3125 7.82227 6.57227L7.82227 18.9062C7.82227 20.166 8.63281 20.957 9.93164 20.957L15.498 20.957C16.8066 20.957 17.6074 20.166 17.6074 18.9062L17.6074 6.57227C17.6074 5.3125 16.8066 4.52148 15.498 4.52148ZM13.3496 19.5215C13.3496 19.8828 13.0762 20.166 12.7246 20.166C12.373 20.166 12.0801 19.8828 12.0801 19.5215C12.0801 19.1797 12.373 18.8867 12.7246 18.8867C13.0762 18.8867 13.3496 19.1797 13.3496 19.5215ZM16.4746 18.3594L8.95508 18.3594L8.95508 7.12891L16.4746 7.12891ZM14.1602 5.87891C14.1602 6.04492 14.0234 6.19141 13.8477 6.19141L11.582 6.19141C11.416 6.19141 11.2695 6.04492 11.2695 5.87891C11.2695 5.68359 11.416 5.55664 11.582 5.55664L13.8477 5.55664C14.0234 5.55664 14.1602 5.68359 14.1602 5.87891Z" fill="black" fill-opacity="0.85"/>
 </g>
</svg>
