<?xml version="1.0" encoding="UTF-8"?>
<!--Generator: Apple Native CoreSVG 326-->
<!DOCTYPE svg
PUBLIC "-//W3C//DTD SVG 1.1//EN"
       "http://www.w3.org/Graphics/SVG/1.1/DTD/svg11.dtd">
<svg version="1.1" xmlns="http://www.w3.org/2000/svg" xmlns:xlink="http://www.w3.org/1999/xlink" viewBox="0 0 25.8008 25.459">
 <g>
  <rect height="25.459" opacity="0" width="25.8008" x="0" y="0"/>
  <path d="M12.7148 25.4395C19.7363 25.4395 25.4395 19.7461 25.4395 12.7246C25.4395 5.70312 19.7363 0 12.7148 0C5.69336 0 0 5.70312 0 12.7246C0 19.7461 5.69336 25.4395 12.7148 25.4395ZM12.7148 23.623C6.68945 23.623 1.81641 18.75 1.81641 12.7246C1.81641 6.69922 6.68945 1.82617 12.7148 1.82617C18.7402 1.82617 23.6133 6.69922 23.6133 12.7246C23.6133 18.75 18.7402 23.623 12.7148 23.623Z" fill="black" fill-opacity="0.85"/>
  <path d="M5.32227 16.4844C5.48828 16.2891 5.42969 16.0547 5.24414 15.8398C4.46289 14.9805 4.05273 13.8965 4.05273 12.7246C4.05273 11.543 4.46289 10.459 5.24414 9.59961C5.42969 9.39453 5.48828 9.15039 5.32227 8.95508C5.15625 8.75 4.85352 8.75 4.63867 8.96484C3.70117 9.98047 3.18359 11.3086 3.18359 12.7246C3.18359 14.1309 3.70117 15.4688 4.63867 16.4844C4.85352 16.6992 5.15625 16.6992 5.32227 16.4844ZM20.0684 16.4844C20.2246 16.6992 20.5273 16.6992 20.7422 16.4844C21.6797 15.4688 22.207 14.1309 22.207 12.7246C22.207 11.3086 21.6797 9.98047 20.7422 8.96484C20.5273 8.75 20.2246 8.75 20.0684 8.95508C19.9023 9.15039 19.9512 9.39453 20.1367 9.59961C20.918 10.459 21.3281 11.543 21.3281 12.7246C21.3281 13.8965 20.918 14.9805 20.1367 15.8398C19.9512 16.0547 19.9023 16.2891 20.0684 16.4844Z" fill="black" fill-opacity="0.85"/>
  <path d="M7.11914 14.9219C7.27539 14.7266 7.22656 14.502 7.05078 14.2676C6.70898 13.877 6.52344 13.3398 6.52344 12.7246C6.52344 12.1094 6.70898 11.5625 7.05078 11.1719C7.22656 10.9473 7.27539 10.7227 7.11914 10.5176C6.94336 10.3125 6.62109 10.3223 6.43555 10.5469C5.92773 11.1426 5.63477 11.9043 5.63477 12.7246C5.63477 13.5352 5.92773 14.2969 6.43555 14.9023C6.62109 15.127 6.94336 15.127 7.11914 14.9219ZM18.2617 14.9219C18.4375 15.127 18.7598 15.127 18.9453 14.9023C19.4531 14.2969 19.7461 13.5352 19.7461 12.7246C19.7461 11.9043 19.4531 11.1426 18.9453 10.5469C18.7598 10.3223 18.4375 10.3125 18.2617 10.5176C18.1055 10.7227 18.1641 10.9473 18.3301 11.1719C18.6816 11.5625 18.8574 12.1094 18.8574 12.7246C18.8574 13.3398 18.6816 13.877 18.3301 14.2676C18.1641 14.502 18.1055 14.7266 18.2617 14.9219Z" fill="black" fill-opacity="0.85"/>
  <path d="M10.2441 20.0098L15.1562 20.0098C16.3086 20.0098 17.0508 19.2969 17.0508 18.1738L17.0508 7.27539C17.0508 6.14258 16.3086 5.42969 15.1562 5.42969L10.2441 5.42969C9.0918 5.42969 8.35938 6.14258 8.35938 7.27539L8.35938 18.1738C8.35938 19.2969 9.0918 20.0098 10.2441 20.0098ZM10.3711 18.9941C9.7168 18.9941 9.38477 18.6719 9.38477 18.0469L9.38477 7.40234C9.38477 6.77734 9.70703 6.44531 10.3711 6.44531L11.2109 6.44531C11.3086 6.44531 11.3281 6.48438 11.3281 6.5625L11.3281 6.68945C11.3281 6.99219 11.5234 7.19727 11.8066 7.19727L13.5938 7.19727C13.8965 7.19727 14.082 6.99219 14.082 6.68945L14.082 6.5625C14.082 6.47461 14.1113 6.44531 14.1992 6.44531L15.0391 6.44531C15.7031 6.44531 16.0352 6.77734 16.0352 7.40234L16.0352 18.0469C16.0352 18.6719 15.7031 18.9941 15.0391 18.9941ZM11.2695 18.5352L14.1406 18.5352C14.3457 18.5352 14.4727 18.3984 14.4727 18.2031C14.4727 17.998 14.3457 17.8613 14.1406 17.8613L11.2695 17.8613C11.084 17.8613 10.9375 17.9883 10.9375 18.2031C10.9375 18.4082 11.0742 18.5352 11.2695 18.5352Z" fill="black" fill-opacity="0.85"/>
 </g>
</svg>
