<?xml version="1.0" encoding="UTF-8"?>
<!--Generator: Apple Native CoreSVG 326-->
<!DOCTYPE svg
PUBLIC "-//W3C//DTD SVG 1.1//EN"
       "http://www.w3.org/Graphics/SVG/1.1/DTD/svg11.dtd">
<svg version="1.1" xmlns="http://www.w3.org/2000/svg" xmlns:xlink="http://www.w3.org/1999/xlink" viewBox="0 0 26.582 25.0392">
 <g>
  <rect height="25.0392" opacity="0" width="26.582" x="0" y="0"/>
  <path d="M4.10156 6.66243L4.10156 18.6085L16.059 18.6085L17.7891 20.337L3.22266 20.337C1.25 20.337 0 19.0479 0 17.0069L0 8.01278C0 6.33531 0.84436 5.16577 2.24152 4.80415ZM26.2207 8.01278L26.2207 17.0069C26.2207 18.7205 25.3396 19.9041 23.8929 20.2362L22.1289 18.4731L22.1289 6.41122L10.0613 6.41122L8.33196 4.6827L23.0078 4.6827C24.9707 4.6827 26.2207 5.97176 26.2207 8.01278ZM1.67969 10.7081L1.67969 14.3116C1.67969 14.5655 1.8457 14.7511 2.11914 14.7511C2.38281 14.7511 2.55859 14.5655 2.55859 14.3116L2.55859 10.7081C2.55859 10.4444 2.38281 10.2589 2.11914 10.2589C1.8457 10.2589 1.67969 10.4444 1.67969 10.7081ZM22.9395 12.4952C22.9395 13.0811 23.3984 13.5499 23.9746 13.5499C24.5508 13.5499 25.0195 13.0811 25.0195 12.4952C25.0195 11.9288 24.5508 11.46 23.9746 11.46C23.3984 11.46 22.9395 11.9288 22.9395 12.4952Z" fill="black" fill-opacity="0.85"/>
  <path d="M22.8125 23.4425C23.1348 23.7647 23.6719 23.755 23.9941 23.4425C24.3164 23.1202 24.3164 22.5831 23.9941 22.2608L3.4082 1.68466C3.0957 1.36239 2.55859 1.34286 2.22656 1.68466C1.9043 2.00692 1.9043 2.54403 2.22656 2.8663Z" fill="black" fill-opacity="0.85"/>
 </g>
</svg>
