<?xml version="1.0" encoding="UTF-8"?>
<!--Generator: Apple Native CoreSVG 326-->
<!DOCTYPE svg
PUBLIC "-//W3C//DTD SVG 1.1//EN"
       "http://www.w3.org/Graphics/SVG/1.1/DTD/svg11.dtd">
<svg version="1.1" xmlns="http://www.w3.org/2000/svg" xmlns:xlink="http://www.w3.org/1999/xlink" viewBox="0 0 25.8008 25.459">
 <g>
  <rect height="25.459" opacity="0" width="25.8008" x="0" y="0"/>
  <path d="M12.7148 25.4395C19.7363 25.4395 25.4395 19.7461 25.4395 12.7246C25.4395 5.70312 19.7363 0 12.7148 0C5.69336 0 0 5.70312 0 12.7246C0 19.7461 5.69336 25.4395 12.7148 25.4395ZM12.7148 23.623C6.68945 23.623 1.81641 18.75 1.81641 12.7246C1.81641 6.69922 6.68945 1.82617 12.7148 1.82617C18.7402 1.82617 23.6133 6.69922 23.6133 12.7246C23.6133 18.75 18.7402 23.623 12.7148 23.623Z" fill="black" fill-opacity="0.85"/>
  <path d="M7.93945 18.75C7.93945 19.9707 8.73047 20.7422 10 20.7422L15.4297 20.7422C16.6992 20.7422 17.4902 19.9707 17.4902 18.75L17.4902 6.69922C17.4902 5.47852 16.6992 4.70703 15.4297 4.70703L10 4.70703C8.73047 4.70703 7.93945 5.47852 7.93945 6.69922ZM9.04297 18.2129L9.04297 7.23633L16.3867 7.23633L16.3867 18.2129ZM12.7246 19.9805C12.3828 19.9805 12.0996 19.6973 12.0996 19.3457C12.0996 19.0137 12.3828 18.7305 12.7246 18.7305C13.0664 18.7305 13.3301 19.0137 13.3301 19.3457C13.3301 19.6973 13.0664 19.9805 12.7246 19.9805ZM11.3086 6.01562C11.3086 5.83008 11.4453 5.70312 11.6113 5.70312L13.8184 5.70312C13.9941 5.70312 14.1211 5.83008 14.1211 6.01562C14.1211 6.19141 13.9941 6.31836 13.8184 6.31836L11.6113 6.31836C11.4453 6.31836 11.3086 6.19141 11.3086 6.01562Z" fill="black" fill-opacity="0.85"/>
 </g>
</svg>
