<?xml version="1.0" encoding="UTF-8"?>
<!--Generator: Apple Native CoreSVG 326-->
<!DOCTYPE svg
PUBLIC "-//W3C//DTD SVG 1.1//EN"
       "http://www.w3.org/Graphics/SVG/1.1/DTD/svg11.dtd">
<svg version="1.1" xmlns="http://www.w3.org/2000/svg" xmlns:xlink="http://www.w3.org/1999/xlink" viewBox="0 0 41.9141 26.2402">
 <g>
  <rect height="26.2402" opacity="0" width="41.9141" x="0" y="0"/>
  <path d="M16.2793 26.2207L25.2734 26.2207C27.3145 26.2207 28.6035 24.9707 28.6035 22.998L28.6035 3.22266C28.6035 1.25 27.3145 0 25.2734 0L16.2793 0C14.2383 0 12.9492 1.25 12.9492 3.22266L12.9492 22.998C12.9492 24.9707 14.2383 26.2207 16.2793 26.2207ZM16.4844 24.4922C15.3027 24.4922 14.6777 23.8867 14.6777 22.7441L14.6777 3.47656C14.6777 2.33398 15.3027 1.72852 16.4844 1.72852L25.0684 1.72852C26.25 1.72852 26.875 2.33398 26.875 3.47656L26.875 22.7441C26.875 23.8867 26.25 24.4922 25.0684 24.4922ZM18.1445 23.584L23.418 23.584C23.7207 23.584 23.9453 23.3691 23.9453 23.0566C23.9453 22.7441 23.7207 22.5293 23.418 22.5293L18.1445 22.5293C17.8418 22.5293 17.6172 22.7441 17.6172 23.0566C17.6172 23.3691 17.8418 23.584 18.1445 23.584ZM19.2871 4.17969L22.2754 4.17969C22.7246 4.17969 23.0664 3.82812 23.0664 3.36914C23.0664 2.92969 22.7246 2.57812 22.2754 2.57812L19.2871 2.57812C18.8379 2.57812 18.4863 2.92969 18.4863 3.36914C18.4863 3.82812 18.8379 4.17969 19.2871 4.17969Z" fill="black" fill-opacity="0.85"/>
  <path d="M41.5527 8.24219C41.5527 7.77344 41.1816 7.40234 40.7227 7.40234L35.6445 7.40234L35.6445 5.18555C35.6445 4.31641 34.7559 4.01367 34.1699 4.54102L30.6738 7.56836C30.2246 7.94922 30.2246 8.50586 30.6738 8.89648L34.1699 11.9238C34.7852 12.4707 35.6445 12.1191 35.6445 11.2793L35.6445 9.07227L40.7227 9.07227C41.1816 9.07227 41.5527 8.70117 41.5527 8.24219Z" fill="black" fill-opacity="0.85"/>
  <path d="M0 8.24219C0 8.70117 0.371094 9.07227 0.839844 9.07227L5.9082 9.07227L5.9082 11.2793C5.9082 12.1191 6.76758 12.4707 7.38281 11.9238L10.8789 8.89648C11.3281 8.50586 11.3281 7.94922 10.8789 7.56836L7.38281 4.54102C6.79688 4.01367 5.9082 4.31641 5.9082 5.18555L5.9082 7.40234L0.839844 7.40234C0.371094 7.40234 0 7.77344 0 8.24219Z" fill="black" fill-opacity="0.85"/>
 </g>
</svg>
