<?xml version="1.0" encoding="UTF-8"?>
<!--Generator: Apple Native CoreSVG 326-->
<!DOCTYPE svg
PUBLIC "-//W3C//DTD SVG 1.1//EN"
       "http://www.w3.org/Graphics/SVG/1.1/DTD/svg11.dtd">
<svg version="1.1" xmlns="http://www.w3.org/2000/svg" xmlns:xlink="http://www.w3.org/1999/xlink" viewBox="0 0 24.5508 26.6895">
 <g>
  <rect height="26.6895" opacity="0" width="24.5508" x="0" y="0"/>
  <path d="M1.49414 3.27148L1.49414 23.3984C1.49414 24.836 2.19859 25.9838 3.3446 26.4453L3.33008 26.4453C1.28906 26.4453 0 25.1953 0 23.2227L0 3.44727C0 1.47461 1.28906 0.224609 3.33008 0.224609L3.3446 0.224609C2.19859 0.686126 1.49414 1.83394 1.49414 3.27148Z" fill="black" fill-opacity="0.85"/>
  <path d="M5.71289 3.27148L5.71289 23.3984C5.71289 24.836 6.41734 25.9838 7.559 26.4453L7.54883 26.4453C5.50781 26.4453 4.21875 25.1953 4.21875 23.2227L4.21875 3.44727C4.21875 1.47461 5.50781 0.224609 7.54883 0.224609L7.559 0.224609C6.41734 0.686126 5.71289 1.83394 5.71289 3.27148Z" fill="black" fill-opacity="0.85"/>
  <path d="M11.8652 26.4453L20.8594 26.4453C22.9004 26.4453 24.1895 25.1953 24.1895 23.2227L24.1895 3.44727C24.1895 1.47461 22.9004 0.224609 20.8594 0.224609L11.8652 0.224609C9.82422 0.224609 8.53516 1.47461 8.53516 3.44727L8.53516 23.2227C8.53516 25.1953 9.82422 26.4453 11.8652 26.4453ZM12.0703 24.7168C10.8887 24.7168 10.2637 24.1113 10.2637 22.9688L10.2637 3.70117C10.2637 2.55859 10.8887 1.95312 12.0703 1.95312L13.6523 1.95312C13.8379 1.95312 13.9453 2.06055 13.9453 2.24609L13.9453 2.49023C13.9453 2.97852 14.2578 3.32031 14.7461 3.32031L17.9785 3.32031C18.4668 3.32031 18.7891 2.97852 18.7891 2.49023L18.7891 2.24609C18.7891 2.06055 18.8867 1.95312 19.0723 1.95312L20.6445 1.95312C21.8359 1.95312 22.4609 2.55859 22.4609 3.70117L22.4609 22.9688C22.4609 24.1113 21.8359 24.7168 20.6445 24.7168ZM13.7305 23.8086L19.0039 23.8086C19.3066 23.8086 19.5312 23.5938 19.5312 23.2812C19.5312 22.9688 19.3066 22.7539 19.0039 22.7539L13.7305 22.7539C13.4277 22.7539 13.2031 22.9688 13.2031 23.2812C13.2031 23.5938 13.4277 23.8086 13.7305 23.8086Z" fill="black" fill-opacity="0.85"/>
 </g>
</svg>
