<?xml version="1.0" encoding="UTF-8"?>
<!--Generator: Apple Native CoreSVG 326-->
<!DOCTYPE svg
PUBLIC "-//W3C//DTD SVG 1.1//EN"
       "http://www.w3.org/Graphics/SVG/1.1/DTD/svg11.dtd">
<svg version="1.1" xmlns="http://www.w3.org/2000/svg" xmlns:xlink="http://www.w3.org/1999/xlink" viewBox="0 0 39.3457 26.2402">
 <g>
  <rect height="26.2402" opacity="0" width="39.3457" x="0" y="0"/>
  <path d="M4.63867 21.582C4.9707 21.1914 4.86328 20.6836 4.48242 20.2539C2.74414 18.3594 1.74805 15.8691 1.74805 13.1152C1.74805 10.3516 2.74414 7.86133 4.48242 5.9668C4.86328 5.53711 4.9707 5.0293 4.63867 4.64844C4.28711 4.24805 3.69141 4.24805 3.28125 4.69727C1.19141 6.92383 0 9.88281 0 13.1152C0 16.3379 1.19141 19.3066 3.28125 21.5234C3.69141 21.9727 4.28711 21.9824 4.63867 21.582ZM34.3555 21.582C34.6973 21.9824 35.293 21.9727 35.7129 21.5234C37.793 19.3066 38.9844 16.3379 38.9844 13.1152C38.9844 9.88281 37.793 6.92383 35.7129 4.69727C35.293 4.24805 34.6973 4.24805 34.3555 4.64844C34.0137 5.0293 34.1211 5.53711 34.502 5.9668C36.25 7.86133 37.2363 10.3516 37.2363 13.1152C37.2363 15.8691 36.25 18.3594 34.502 20.2539C34.1211 20.6836 34.0137 21.1914 34.3555 21.582Z" fill="black" fill-opacity="0.425"/>
  <path d="M8.125 18.0273C8.4668 17.6367 8.32031 17.1484 7.97852 16.6992C7.14844 15.752 6.74805 14.4824 6.74805 13.1152C6.74805 11.748 7.14844 10.4688 7.97852 9.52148C8.32031 9.07227 8.4668 8.58398 8.125 8.20312C7.76367 7.80273 7.12891 7.79297 6.74805 8.27148C5.63477 9.58984 5 11.2891 5 13.1152C5 14.9414 5.63477 16.6309 6.74805 17.9492C7.12891 18.4277 7.76367 18.4277 8.125 18.0273ZM30.8594 18.0273C31.2207 18.4277 31.8555 18.4277 32.2461 17.9492C33.3496 16.6309 33.9941 14.9414 33.9941 13.1152C33.9941 11.2891 33.3496 9.58984 32.2461 8.27148C31.8555 7.79297 31.2207 7.80273 30.8594 8.20312C30.5273 8.58398 30.6641 9.07227 31.0059 9.52148C31.8359 10.4688 32.2363 11.748 32.2363 13.1152C32.2363 14.4824 31.8359 15.752 31.0059 16.6992C30.6641 17.1484 30.5273 17.6367 30.8594 18.0273Z" fill="black" fill-opacity="0.425"/>
  <path d="M15.2148 24.4922C14.0234 24.4922 13.3984 23.8867 13.3984 22.7441L13.3984 3.47656C13.3984 2.33398 14.0234 1.72852 15.2148 1.72852L16.7871 1.72852C16.9824 1.72852 17.0801 1.83594 17.0801 2.02148L17.0801 2.26562C17.0801 2.75391 17.4023 3.0957 17.8906 3.0957L21.123 3.0957C21.6113 3.0957 21.9238 2.75391 21.9238 2.26562L21.9238 2.02148C21.9238 1.83594 22.0312 1.72852 22.2168 1.72852L23.7891 1.72852C24.9707 1.72852 25.5957 2.33398 25.5957 3.47656L25.5957 22.7441C25.5957 23.8867 24.9707 24.4922 23.7891 24.4922Z" fill="black" fill-opacity="0.2125"/>
  <path d="M15 26.2207L23.9941 26.2207C26.0352 26.2207 27.334 24.9707 27.334 22.998L27.334 3.22266C27.334 1.25 26.0352 0 23.9941 0L15 0C12.959 0 11.6699 1.25 11.6699 3.22266L11.6699 22.998C11.6699 24.9707 12.959 26.2207 15 26.2207ZM15.2148 24.4922C14.0234 24.4922 13.3984 23.8867 13.3984 22.7441L13.3984 3.47656C13.3984 2.33398 14.0234 1.72852 15.2148 1.72852L16.7871 1.72852C16.9824 1.72852 17.0801 1.83594 17.0801 2.02148L17.0801 2.26562C17.0801 2.75391 17.4023 3.0957 17.8906 3.0957L21.123 3.0957C21.6113 3.0957 21.9238 2.75391 21.9238 2.26562L21.9238 2.02148C21.9238 1.83594 22.0312 1.72852 22.2168 1.72852L23.7891 1.72852C24.9707 1.72852 25.5957 2.33398 25.5957 3.47656L25.5957 22.7441C25.5957 23.8867 24.9707 24.4922 23.7891 24.4922ZM16.8652 23.584L22.1387 23.584C22.4414 23.584 22.666 23.3691 22.666 23.0566C22.666 22.7441 22.4414 22.5293 22.1387 22.5293L16.8652 22.5293C16.5625 22.5293 16.3379 22.7441 16.3379 23.0566C16.3379 23.3691 16.5625 23.584 16.8652 23.584Z" fill="black" fill-opacity="0.85"/>
 </g>
</svg>
