<?xml version="1.0" encoding="UTF-8"?>
<!--Generator: Apple Native CoreSVG 326-->
<!DOCTYPE svg
PUBLIC "-//W3C//DTD SVG 1.1//EN"
       "http://www.w3.org/Graphics/SVG/1.1/DTD/svg11.dtd">
<svg version="1.1" xmlns="http://www.w3.org/2000/svg" xmlns:xlink="http://www.w3.org/1999/xlink" viewBox="0 0 16.0254 26.2402">
 <g>
  <rect height="26.2402" opacity="0" width="16.0254" x="0" y="0"/>
  <path d="M13.9258 3.47656L13.9258 21.1328C13.9258 22.2754 13.3008 22.7539 12.1191 22.7539L9.80469 22.7539L9.80469 22.3828C9.80469 21.8945 9.48242 21.5527 8.99414 21.5527L6.67969 21.5527C6.19141 21.5527 5.86914 21.8945 5.86914 22.3828L5.86914 22.7539L3.54492 22.7539C2.35352 22.7539 1.72852 22.1582 1.72852 21.0059L1.72852 3.47656C1.72852 2.33398 2.35352 1.72852 3.54492 1.72852L12.1191 1.72852C13.3008 1.72852 13.9258 2.33398 13.9258 3.47656Z" fill="black" fill-opacity="0.2125"/>
  <path d="M3.33008 26.2207L12.3242 26.2207C14.3652 26.2207 15.6641 24.9707 15.6641 22.998L15.6641 3.22266C15.6641 1.25 14.3652 0 12.3242 0L3.33008 0C1.28906 0 0 1.25 0 3.22266L0 22.998C0 24.9707 1.28906 26.2207 3.33008 26.2207ZM3.54492 22.7539C2.35352 22.7539 1.72852 22.1582 1.72852 21.0059L1.72852 3.47656C1.72852 2.33398 2.35352 1.72852 3.54492 1.72852L12.1191 1.72852C13.3008 1.72852 13.9258 2.33398 13.9258 3.47656L13.9258 21.1328C13.9258 22.2754 13.3008 22.7539 12.1191 22.7539ZM5.86914 23.0176L9.80469 23.0176L9.80469 22.3828C9.80469 21.8945 9.48242 21.5527 8.99414 21.5527L6.67969 21.5527C6.19141 21.5527 5.86914 21.8945 5.86914 22.3828Z" fill="black" fill-opacity="0.85"/>
 </g>
</svg>
