<?xml version="1.0" encoding="UTF-8"?>
<!--Generator: Apple Native CoreSVG 326-->
<!DOCTYPE svg
PUBLIC "-//W3C//DTD SVG 1.1//EN"
       "http://www.w3.org/Graphics/SVG/1.1/DTD/svg11.dtd">
<svg version="1.1" xmlns="http://www.w3.org/2000/svg" xmlns:xlink="http://www.w3.org/1999/xlink" viewBox="0 0 20.7812 15.8691">
 <g>
  <rect height="15.8691" opacity="0" width="20.7812" x="0" y="0"/>
  <path d="M0 12.9688C0 14.7656 1.06445 15.8691 2.76367 15.8691L17.6562 15.8691C19.3555 15.8691 20.4199 14.7656 20.4199 12.9688L20.4199 2.90039C20.4199 1.10352 19.3555 0 17.6562 0L2.76367 0C1.06445 0 0 1.10352 0 2.90039ZM1.72852 12.7734L1.72852 3.0957C1.72852 2.23633 2.2168 1.73828 3.03711 1.73828L17.3828 1.73828C18.2031 1.73828 18.6914 2.23633 18.6914 3.0957L18.6914 12.7734C18.6914 13.6328 18.2031 14.1309 17.3828 14.1309L3.03711 14.1309C2.2168 14.1309 1.72852 13.6328 1.72852 12.7734ZM12.3535 12.6074C14.9414 12.6074 17.041 10.5176 17.041 7.92969C17.041 5.3418 14.9414 3.24219 12.3535 3.24219C9.76562 3.24219 7.67578 5.3418 7.67578 7.92969C7.67578 10.5176 9.76562 12.6074 12.3535 12.6074ZM12.3535 11.2012C10.5273 11.2012 9.08203 9.75586 9.08203 7.92969C9.08203 6.10352 10.5273 4.64844 12.3535 4.64844C14.1797 4.64844 15.6348 6.10352 15.6348 7.92969C15.6348 9.75586 14.1797 11.2012 12.3535 11.2012Z" fill="black" fill-opacity="0.85"/>
 </g>
</svg>
