<?xml version="1.0" encoding="UTF-8"?>
<!--Generator: Apple Native CoreSVG 326-->
<!DOCTYPE svg
PUBLIC "-//W3C//DTD SVG 1.1//EN"
       "http://www.w3.org/Graphics/SVG/1.1/DTD/svg11.dtd">
<svg version="1.1" xmlns="http://www.w3.org/2000/svg" xmlns:xlink="http://www.w3.org/1999/xlink" viewBox="0 0 26.582 15.6738">
 <g>
  <rect height="15.6738" opacity="0" width="26.582" x="0" y="0"/>
  <path d="M22.1289 13.9258L4.10156 13.9258L4.10156 1.72852L22.1289 1.72852ZM25.0195 7.8125C25.0195 8.39844 24.5508 8.86719 23.9746 8.86719C23.3984 8.86719 22.9395 8.39844 22.9395 7.8125C22.9395 7.24609 23.3984 6.77734 23.9746 6.77734C24.5508 6.77734 25.0195 7.24609 25.0195 7.8125ZM2.75391 7.8125C2.75391 8.21289 2.43164 8.53516 2.04102 8.53516C1.65039 8.53516 1.33789 8.21289 1.33789 7.8125C1.33789 7.42188 1.65039 7.10938 2.04102 7.10938C2.43164 7.10938 2.75391 7.42188 2.75391 7.8125Z" fill="black" fill-opacity="0.2125"/>
  <path d="M23.0078 15.6641C24.9707 15.6641 26.2207 14.3652 26.2207 12.3242L26.2207 3.33008C26.2207 1.28906 24.9707 0 23.0078 0L3.22266 0C1.25 0 0 1.28906 0 3.33008L0 12.3242C0 14.3652 1.25 15.6641 3.22266 15.6641ZM22.1289 13.9258L4.10156 13.9258L4.10156 1.72852L22.1289 1.72852ZM25.0195 7.8125C25.0195 8.39844 24.5508 8.86719 23.9746 8.86719C23.3984 8.86719 22.9395 8.39844 22.9395 7.8125C22.9395 7.24609 23.3984 6.77734 23.9746 6.77734C24.5508 6.77734 25.0195 7.24609 25.0195 7.8125ZM2.75391 7.8125C2.75391 8.21289 2.43164 8.53516 2.04102 8.53516C1.65039 8.53516 1.33789 8.21289 1.33789 7.8125C1.33789 7.42188 1.65039 7.10938 2.04102 7.10938C2.43164 7.10938 2.75391 7.42188 2.75391 7.8125Z" fill="black" fill-opacity="0.85"/>
 </g>
</svg>
