<?xml version="1.0" encoding="UTF-8"?>
<!--Generator: Apple Native CoreSVG 326-->
<!DOCTYPE svg
PUBLIC "-//W3C//DTD SVG 1.1//EN"
       "http://www.w3.org/Graphics/SVG/1.1/DTD/svg11.dtd">
<svg version="1.1" xmlns="http://www.w3.org/2000/svg" xmlns:xlink="http://www.w3.org/1999/xlink" viewBox="0 0 18.4082 32.2949">
 <g>
  <rect height="32.2949" opacity="0" width="18.4082" x="0" y="0"/>
  <path d="M11.25 2.23633L11.25 2.36328L14.7656 2.36328C16.8555 2.36328 18.0469 3.57422 18.0469 5.70312L18.0469 23.3496C18.0469 25.4688 16.8555 26.6895 14.7656 26.6895L9.67773 26.6895L9.67773 28.4375C9.67773 29.9121 10.4395 30.5664 11.9336 30.5664L17.2559 30.5664C17.6855 30.5664 18.0469 30.918 18.0469 31.3672C18.0469 31.7969 17.6855 32.1484 17.2559 32.1484L11.9336 32.1484C9.57031 32.1484 8.08594 30.7812 8.08594 28.4375L8.08594 26.6895L3.27148 26.6895C1.18164 26.6895 0 25.4688 0 23.3496L0 5.70312C0 3.57422 1.18164 2.36328 3.27148 2.36328L6.78711 2.36328L6.78711 2.23633C6.78711 0.917969 7.70508 0 9.02344 0C10.332 0 11.25 0.917969 11.25 2.23633ZM4.78516 7.07031C4.01367 7.07031 3.50586 7.56836 3.50586 8.32031L3.50586 22.002C3.50586 22.7539 4.01367 23.2422 4.78516 23.2422L13.2812 23.2422C14.0527 23.2422 14.5508 22.7539 14.5508 22.002L14.5508 8.32031C14.5508 7.56836 14.0527 7.07031 13.2812 7.07031ZM8.19336 2.24609C8.19336 2.70508 8.55469 3.08594 9.02344 3.08594C9.48242 3.08594 9.84375 2.70508 9.84375 2.24609C9.84375 1.77734 9.48242 1.40625 9.02344 1.40625C8.55469 1.40625 8.19336 1.77734 8.19336 2.24609Z" fill="black" fill-opacity="0.85"/>
  <path d="M7.40234 20.752L10.6641 20.752C10.9961 20.752 11.25 20.5078 11.25 20.1953C11.25 19.8633 10.9961 19.5996 10.6641 19.5996L7.40234 19.5996C7.06055 19.5996 6.81641 19.8633 6.81641 20.1953C6.81641 20.5078 7.06055 20.752 7.40234 20.752ZM6.44531 18.1445L11.6797 18.1445C12.0117 18.1445 12.2559 17.8809 12.2559 17.5586C12.2559 17.2363 12.0117 16.9922 11.6797 16.9922L6.44531 16.9922C6.10352 16.9922 5.85938 17.2363 5.85938 17.5586C5.85938 17.8809 6.10352 18.1445 6.44531 18.1445ZM9.02344 15.2051C10.1367 15.2051 11.0547 14.3457 11.0547 13.2324C11.0547 12.6074 10.7227 12.002 10.4297 11.4355L9.35547 9.46289C9.15039 9.0918 8.88672 9.10156 8.69141 9.46289L7.61719 11.4355C7.31445 12.002 6.99219 12.6074 6.99219 13.2324C6.99219 14.3457 7.92969 15.2051 9.02344 15.2051Z" fill="black" fill-opacity="0.85"/>
 </g>
</svg>
