<?xml version="1.0" ?><!-- Generator: Adobe Illustrator 25.0.0, SVG Export Plug-In . SVG Version: 6.00 Build 0)  --><svg xmlns="http://www.w3.org/2000/svg" xmlns:xlink="http://www.w3.org/1999/xlink" version="1.1" id="Layer_1" x="0px" y="0px" viewBox="0 0 512 512" style="enable-background:new 0 0 512 512;" xml:space="preserve">
<path d="M165.7,426.6h180.6c17,0,30.1-4.8,39.5-14.4c9.4-9.6,14.1-23,14.1-40.2V94.7c0-17.2-4.7-30.6-14.1-40.2  c-9.4-9.6-22.6-14.4-39.5-14.4H295v-1.4c0-11.6-3.6-21-10.9-28.2C276.9,3.6,267.5,0,256,0c-11.5,0-20.9,3.6-28.2,10.7  c-7.2,7.1-10.9,16.5-10.9,28.2v1.4h-51.3c-17,0-30.1,4.8-39.5,14.4c-9.4,9.6-14.1,23-14.1,40.2V372c0,17.2,4.7,30.6,14.1,40.2  S148.8,426.6,165.7,426.6z M301.2,512h84.7c3.9,0,7.2-1.4,9.9-4.1c2.7-2.7,4.1-6,4.1-9.9c0-4-1.4-7.4-4.1-10.2  c-2.7-2.8-6-4.2-9.9-4.2h-84.7c-11.3,0-19.7-2.5-25.3-7.4c-5.6-4.9-8.4-13-8.4-24.3v-46.8h-28.3V452c0,19,5.6,33.8,16.8,44.3  C267.1,506.8,282.2,512,301.2,512z M256,53.4c-4,0-7.4-1.4-10.1-4.2c-2.7-2.8-4.1-6.2-4.1-10.2c0-3.9,1.4-7.2,4.1-10  c2.7-2.8,6.1-4.2,10.1-4.2s7.4,1.4,10.1,4.2c2.7,2.8,4.1,6.1,4.1,10c0,4-1.4,7.4-4.1,10.2C263.4,52,260,53.4,256,53.4z" class="multicolor-0:tertiaryLabelColor SFSymbolsPreviewBDBDBD" style="fill: #BDBDBD;"/>
<path d="M189.4,370.7c-6.1,0-11-1.8-14.7-5.3c-3.7-3.6-5.5-8.3-5.5-14.3V135.1c0-6,1.8-10.7,5.5-14.4c3.7-3.6,8.6-5.4,14.7-5.4H323  c6.1,0,11,1.8,14.7,5.4c3.7,3.6,5.5,8.4,5.5,14.4V351c0,6-1.8,10.7-5.5,14.3c-3.7,3.6-8.6,5.3-14.7,5.3H189.4z" class="multicolor-1:systemPurpleColor SFSymbolsPreviewAF52DE" style="fill: #AF52DE;"/>
<path d="M256,242.1c8.7,0,16.1-3,22.3-8.9c6.2-6,9.3-13.3,9.3-21.9c0-4.8-1-9.5-3.1-14.3c-2.1-4.7-4.3-9.3-6.6-13.7l-16.3-29.9  c-1.8-3.2-3.7-4.9-5.7-4.9c-2,0-3.9,1.6-5.5,4.9l-16.3,29.9c-2.3,4.4-4.5,9-6.6,13.7c-2.1,4.7-3.1,9.5-3.1,14.3  c0,8.7,3.1,16,9.4,21.9C240,239.1,247.5,242.1,256,242.1z M216.2,289.9h80.6c2.8,0,5.2-1,7.1-2.9c1.9-1.9,2.8-4.3,2.8-7.2  c0-2.7-0.9-5-2.8-6.9c-1.9-1.9-4.2-2.8-7.1-2.8h-80.6c-3,0-5.4,0.9-7.3,2.8s-2.8,4.2-2.8,6.9c0,2.8,0.9,5.2,2.8,7.2  C210.8,288.9,213.2,289.9,216.2,289.9z M231.5,331.6h49.3c2.8,0,5.2-0.9,7.2-2.7c1.9-1.8,2.9-4.1,2.9-6.8c0-2.8-1-5.3-2.9-7.3  c-1.9-2-4.3-3-7.2-3h-49.3c-3,0-5.4,1-7.3,3s-2.8,4.4-2.8,7.3c0,2.7,0.9,5,2.8,6.8C226.1,330.7,228.6,331.6,231.5,331.6z" class="multicolor-2:white SFSymbolsPreviewFFFFFF" style="fill: #FFFFFF;"/>
</svg>