<?xml version="1.0" ?><!-- Generator: Adobe Illustrator 25.0.0, SVG Export Plug-In . SVG Version: 6.00 Build 0)  --><svg xmlns="http://www.w3.org/2000/svg" xmlns:xlink="http://www.w3.org/1999/xlink" version="1.1" id="Layer_1" x="0px" y="0px" viewBox="0 0 512 512" style="enable-background:new 0 0 512 512;" xml:space="preserve">
<path d="M256,512c140,0,256-116.2,256-256C512,116,395.8,0,255.7,0C116,0,0,116,0,256C0,395.8,116.2,512,256,512z M243.4,377.2  c-35.9,0-63.7-17.6-72.8-44.4c-1.5-4-2.3-7.8-2.3-12.3c0-11.3,7.8-19.3,19.3-19.3c8.8,0,14.6,4.3,19.1,14.1  c6.3,16.8,19.3,26.4,38.7,26.4c21.3,0,34.6-15.6,34.6-41.4V155.9c0-13.8,7.3-23.3,20.6-23.3c13.6,0,21.1,9,21.1,23.3v144.8  C321.8,350.1,294.1,377.2,243.4,377.2z"/>
</svg>