<?xml version="1.0" ?><!-- Generator: Adobe Illustrator 25.0.0, SVG Export Plug-In . SVG Version: 6.00 Build 0)  --><svg xmlns="http://www.w3.org/2000/svg" xmlns:xlink="http://www.w3.org/1999/xlink" version="1.1" id="Layer_1" x="0px" y="0px" viewBox="0 0 512 512" style="enable-background:new 0 0 512 512;" xml:space="preserve">
<path d="M87.3,512h337.3c58.4,0,87.3-28.9,87.3-86.2V86.2C512,28.9,483.1,0,424.7,0H87.3C29.2,0,0,28.6,0,86.2v339.6  C0,483.4,29.2,512,87.3,512z M242.5,389.9c-39.8,0-70.6-19.5-80.7-49.2c-1.7-4.5-2.5-8.6-2.5-13.6c0-12.5,8.6-21.4,21.4-21.4  c9.7,0,16.1,4.7,21.1,15.6c7.2,18.6,21.4,29.2,42.8,29.2c23.6,0,38.4-17.2,38.4-45.9V144.6c0-15.3,8.1-25.9,22.8-25.9  c15.3,0,23.4,10,23.4,25.9v160.5C329.3,359.9,298.7,389.9,242.5,389.9z"/>
</svg>