<?xml version="1.0" ?><!-- Generator: Adobe Illustrator 25.0.0, SVG Export Plug-In . SVG Version: 6.00 Build 0)  --><svg xmlns="http://www.w3.org/2000/svg" xmlns:xlink="http://www.w3.org/1999/xlink" version="1.1" id="Layer_1" x="0px" y="0px" viewBox="0 0 512 512" style="enable-background:new 0 0 512 512;" xml:space="preserve">
<path d="M318.9,2.7H76c-50.6,0-76,25.2-76,75v244.6c0,49.8,25.4,75,76,75h242.9c50.6,0,75.7-24.9,75.7-75V77.7  C394.6,27.6,369.5,2.7,318.9,2.7z M185.3,316.7c-34.4,0-61.5-16.7-70.2-42.8c-1.5-3.9-1.9-7.5-1.9-11.6c0-11.1,7.5-18.6,18.4-18.6  c8.5,0,14,4.1,18.6,13.3c6,16.2,18.6,25.6,37.3,25.6c20.6,0,33.4-15,33.4-39.9V103.6c0-13.6,6.8-22.5,19.8-22.5  c13.1,0,20.1,8.5,20.1,22.5v139.6C260.8,290.8,234.5,316.7,185.3,316.7z M512,189.5c0-49.8-25.2-74.8-75.7-74.8h-8.5v207.6  c0,68.5-40.2,108.2-108.9,108.2H117.4v3.9c0,49.8,25.4,75,76,75h242.9c50.6,0,75.7-24.9,75.7-75V189.5z"/>
</svg>