<?xml version="1.0" ?><!-- Generator: Adobe Illustrator 25.0.0, SVG Export Plug-In . SVG Version: 6.00 Build 0)  --><svg xmlns="http://www.w3.org/2000/svg" xmlns:xlink="http://www.w3.org/1999/xlink" version="1.1" id="Layer_1" x="0px" y="0px" viewBox="0 0 512 512" style="enable-background:new 0 0 512 512;" xml:space="preserve">
<path d="M318.9,2.7H76c-50.6,0-76,25.2-76,75v244.6c0,49.8,25.4,75,76,75h41.4v37c0,49.8,25.4,75,76,75h242.9  c50.6,0,75.7-24.9,75.7-75V189.5c0-49.8-25.2-74.8-75.7-74.8h-41.6v-37C394.6,27.6,369.5,2.7,318.9,2.7z M318.2,41.6  c24.2,0,37.5,12.8,37.5,38v240.8c0,25.2-13.3,38-37.5,38H76.5c-23.7,0-37.5-12.8-37.5-38V79.6c0-25.2,13.8-38,37.5-38H318.2z   M185.6,313.1c47.7,0,73.1-25.2,73.1-71.1V106.5c0-13.5-6.8-21.8-19.4-21.8c-12.6,0-19.1,8.7-19.1,21.8v135  c0,24.2-12.3,38.7-32.4,38.7c-18.1,0-30.5-9.2-36.3-24.9c-4.4-9-9.7-12.8-17.9-12.8c-10.4,0-17.7,7.3-17.7,17.9  c0,3.9,0.5,7.5,1.7,11.1C126.1,296.9,152.4,313.1,185.6,313.1z M193.8,470.4c-23.7,0-37.5-12.8-37.5-38v-35.1h162.6  c50.6,0,75.7-24.9,75.7-75V153.6h40.9c24.2,0,37.5,12.8,37.5,38v240.8c0,25.2-13.3,38-37.5,38H193.8z"/>
</svg>