<?xml version="1.0" encoding="UTF-8"?>
<!--Generator: Apple Native CoreSVG 326-->
<!DOCTYPE svg
PUBLIC "-//W3C//DTD SVG 1.1//EN"
       "http://www.w3.org/Graphics/SVG/1.1/DTD/svg11.dtd">
<svg version="1.1" xmlns="http://www.w3.org/2000/svg" xmlns:xlink="http://www.w3.org/1999/xlink" viewBox="0 0 26.7285 25.9082">
 <g>
  <rect height="25.9082" opacity="0" width="26.7285" x="0" y="0"/>
  <path d="M26.3672 9.41406L26.3672 22.1387C26.3672 24.6387 25.0977 25.9082 22.5684 25.9082L9.91211 25.9082C7.39258 25.9082 6.11328 24.6289 6.11328 22.1387L6.11328 20.293L7.8418 20.293L7.8418 22.0508C7.8418 23.457 8.61328 24.1797 9.95117 24.1797L22.5391 24.1797C23.8965 24.1797 24.6387 23.457 24.6387 22.0508L24.6387 9.50195C24.6387 8.0957 23.8965 7.37305 22.5391 7.37305L20.2637 7.37305L20.2637 5.64453L22.5684 5.64453C25.0977 5.64453 26.3672 6.91406 26.3672 9.41406Z" fill="black" fill-opacity="0.85"/>
  <path d="M16.4551 0.0292969L3.79883 0.0292969C1.2793 0.0292969 0 1.30859 0 3.78906L0 16.5234C0 19.0137 1.2793 20.293 3.79883 20.293L16.4551 20.293C18.9844 20.293 20.2637 19.0234 20.2637 16.5234L20.2637 3.78906C20.2637 1.29883 18.9844 0.0292969 16.4551 0.0292969ZM16.4258 1.75781C17.7832 1.75781 18.5254 2.48047 18.5254 3.88672L18.5254 16.4355C18.5254 17.8418 17.7832 18.5645 16.4258 18.5645L3.83789 18.5645C2.5 18.5645 1.72852 17.8418 1.72852 16.4355L1.72852 3.88672C1.72852 2.48047 2.5 1.75781 3.83789 1.75781Z" fill="black" fill-opacity="0.85"/>
  <path d="M9.57031 16.0059C11.9141 16.0059 13.1934 14.6973 13.1934 12.4121L13.1934 5.20508C13.1934 4.60938 12.8906 4.23828 12.3242 4.23828C11.7773 4.23828 11.4746 4.62891 11.4746 5.20508L11.4746 12.3926C11.4746 13.7109 10.7715 14.5215 9.64844 14.5215C8.63281 14.5215 7.91016 13.9648 7.63672 13.0664C7.46094 12.6562 7.2168 12.4805 6.8457 12.4805C6.36719 12.4805 6.04492 12.8027 6.04492 13.2812C6.04492 13.4668 6.07422 13.6328 6.13281 13.8184C6.52344 15.1172 7.86133 16.0059 9.57031 16.0059Z" fill="black" fill-opacity="0.85"/>
 </g>
</svg>
