<?xml version="1.0" encoding="UTF-8"?>
<!--Generator: Apple Native CoreSVG 326-->
<!DOCTYPE svg
PUBLIC "-//W3C//DTD SVG 1.1//EN"
       "http://www.w3.org/Graphics/SVG/1.1/DTD/svg11.dtd">
<svg version="1.1" xmlns="http://www.w3.org/2000/svg" xmlns:xlink="http://www.w3.org/1999/xlink" viewBox="0 0 36.3072 28.0371">
 <g>
  <rect height="28.0371" opacity="0" width="36.3072" x="0" y="0"/>
  <path d="M10.9954 27.666L24.9505 27.666C27.1575 27.666 28.6419 26.1719 28.4759 23.9844L28.1927 20.4785L28.2122 19.4043L27.4798 14.1016C27.431 13.8184 27.2552 13.6621 27.0501 13.6621C26.806 13.6621 26.6302 13.8574 26.6399 14.1895L26.9524 23.9551C26.9817 25.1172 26.2103 25.9766 24.9603 25.9766L10.9759 25.9766C9.72589 25.9766 8.96417 25.1172 8.99346 23.9551L9.30596 14.1895C9.31573 13.8574 9.13018 13.6621 8.89581 13.6621C8.68096 13.6621 8.51495 13.8184 8.46612 14.1016L7.7337 19.4043L7.75323 20.4785L7.47003 23.9844C7.30401 26.1719 8.78839 27.666 10.9954 27.666ZM5.14581 27.6855C6.39581 28.0371 7.44073 27.8223 7.72393 26.5625L8.70049 22.1582L8.02667 18.0664L6.26885 25.5762C6.1712 25.9863 5.92706 26.1035 5.57549 26.0059L2.26495 25.1074C1.81573 24.9805 1.65948 24.6973 1.81573 24.1504L6.62042 6.68945C6.82549 5.92773 7.17706 5.41016 7.97784 5.12695L10.7806 4.13086L11.2689 2.23633L7.32354 3.73047C6.07354 4.20898 5.41924 4.96094 5.13604 5.97656L0.126276 23.8477C-0.244818 25.1758 0.194635 26.2793 1.54229 26.6602ZM17.1868 27.0898L18.7591 27.0898L18.7591 6.50391L17.1868 6.50391ZM30.7903 27.6855L34.4036 26.6602C35.7415 26.2793 36.1907 25.1758 35.8196 23.8477L30.8099 5.97656C30.5267 4.96094 29.8626 4.20898 28.6224 3.73047L24.6771 2.23633L25.1653 4.13086L27.9681 5.12695C28.7689 5.41016 29.1107 5.92773 29.3255 6.68945L34.1302 24.1504C34.2767 24.6973 34.1302 24.9805 33.681 25.1074L30.3607 26.0059C30.0189 26.1035 29.7649 25.9863 29.6673 25.5762L27.9192 18.0664L27.2357 22.1582L28.222 26.5625C28.4954 27.8223 29.5501 28.0371 30.7903 27.6855ZM15.9564 8.80859L18.3001 6.26953L17.6653 6.26953L20.0189 8.80859C20.7903 9.6582 21.9134 9.52148 22.6067 8.61328L25.761 4.33594C26.1321 3.83789 26.22 3.22266 25.7806 2.82227L23.4661 0.693359C22.9974 0.263672 22.6751 0 21.7083 0L14.2571 0C13.2903 0 12.9681 0.263672 12.4993 0.693359L10.1849 2.82227C9.74542 3.22266 9.83331 3.83789 10.2044 4.33594L13.3685 8.61328C14.0521 9.52148 15.1751 9.6582 15.9564 8.80859ZM15.3314 7.63672C15.0189 7.97852 14.5696 7.98828 14.2669 7.58789L11.6107 4.01367C11.4251 3.76953 11.4251 3.47656 11.6595 3.27148L13.5442 1.55273C13.7786 1.33789 14.1009 1.34766 14.3255 1.58203L17.1087 4.52148C17.4603 4.88281 17.4603 5.30273 17.1575 5.63477ZM20.6341 7.63672L18.8177 5.63477C18.5149 5.30273 18.5052 4.88281 18.8567 4.52148L21.6497 1.58203C21.8646 1.34766 22.1966 1.32812 22.4407 1.55273L24.3157 3.27148C24.5501 3.48633 24.5599 3.75977 24.3646 4.01367L21.7083 7.58789C21.4056 7.98828 20.9466 7.97852 20.6341 7.63672ZM12.1185 20.957L14.7454 19.043C15.097 18.7891 15.1751 18.3105 14.9212 17.9688C14.6771 17.627 14.1888 17.5586 13.847 17.8027L11.22 19.707C10.8685 19.9609 10.8001 20.4297 11.0442 20.7715C11.2982 21.123 11.7669 21.2109 12.1185 20.957ZM23.8372 20.957C24.1888 21.2109 24.6575 21.123 24.9114 20.7715C25.1556 20.4297 25.0872 19.9609 24.7357 19.707L22.1087 17.8027C21.7669 17.5586 21.2786 17.627 21.0345 17.9688C20.7806 18.3105 20.8489 18.7793 21.2103 19.043Z" fill="black" fill-opacity="0.85"/>
 </g>
</svg>
