<?xml version="1.0" encoding="UTF-8"?>
<!--Generator: Apple Native CoreSVG 326-->
<!DOCTYPE svg
PUBLIC "-//W3C//DTD SVG 1.1//EN"
       "http://www.w3.org/Graphics/SVG/1.1/DTD/svg11.dtd">
<svg version="1.1" xmlns="http://www.w3.org/2000/svg" xmlns:xlink="http://www.w3.org/1999/xlink" viewBox="0 0 23.4524 34.5605">
 <g>
  <rect height="34.5605" opacity="0" width="23.4524" x="0" y="0"/>
  <path d="M19.6705 34.3555C20.1588 34.5215 20.6959 34.4141 20.9303 33.9062L22.9908 29.4434C23.2252 28.9551 23.0104 28.4375 22.5221 28.2129L20.149 27.1094L21.7506 23.7109C21.9655 23.252 21.7506 22.7051 21.2721 22.4707L18.0397 20.957C20.5299 18.5254 21.36 15.5371 20.3444 12.7344C18.9479 8.90625 14.7291 6.96289 10.9108 8.36914C7.06311 9.74609 5.10998 13.9355 6.50647 17.7637C7.52209 20.5664 10.0709 22.4609 13.0201 22.6074L16.6725 32.6367C16.7897 32.9492 17.0143 33.3008 17.3854 33.4375ZM19.7584 32.6465L18.0885 31.8652L14.1334 21.0059C11.3209 21.2891 8.90881 19.707 8.00061 17.2266C6.90686 14.2285 8.45959 10.9375 11.4381 9.83398C14.4752 8.73047 17.7662 10.2832 18.8405 13.2812C19.7682 15.8008 18.8112 18.623 16.233 20.4297L16.8873 22.1582L20.0319 23.6523L18.5377 26.8164L19.1041 28.3594L21.2819 29.375ZM2.54163 34.0137L6.97522 31.9336C7.48303 31.709 7.64905 31.1523 7.42444 30.6738L6.30139 28.3105L9.71936 26.7383C10.1881 26.5234 10.3737 25.9668 10.1588 25.4883L8.65491 22.2363C9.61194 22.168 10.5201 21.9727 11.3307 21.6797L9.58264 20.5957C9.04553 20.6836 8.45959 20.7129 7.61975 20.6738L6.98498 22.4219L8.44983 25.5957L5.26623 27.0605L4.69983 28.6133L5.71545 30.7715L2.44397 32.3145L1.66272 30.625L5.62756 19.7754C3.30334 18.2324 2.4635 15.4102 3.3717 12.9297C4.40686 10.0684 7.47327 8.53516 10.3737 9.375L12.4733 8.57422C12.1022 8.34961 11.7018 8.16406 11.2721 8.00781C7.44397 6.60156 3.25452 8.54492 1.8678 12.3828C0.832641 15.1855 1.58459 18.2715 3.7428 20.2832L0.100219 30.3027C-0.0169684 30.6445-0.0560309 31.0352 0.11975 31.377L1.28186 33.5547C1.53577 34.0234 2.03381 34.248 2.54163 34.0137ZM13.2838 14.8828C14.2213 14.541 14.6998 13.5059 14.3483 12.5781C14.0162 11.6504 12.9908 11.1719 12.0533 11.5039C11.1256 11.8457 10.6666 12.8711 10.9987 13.7891C11.3405 14.7363 12.3561 15.2246 13.2838 14.8828ZM3.65491 7.11914C3.65491 8.02734 3.83069 8.90625 4.15295 9.69727L5.56897 9.08203C5.32483 8.47656 5.20764 7.8125 5.20764 7.11914C5.20764 4.02344 7.63928 1.55273 10.7252 1.55273C13.8112 1.55273 16.3014 4.02344 16.3014 7.11914C16.3014 9.76562 14.4752 11.9434 12.024 12.5195L12.3365 14.0332C15.4811 13.3105 17.8639 10.459 17.8639 7.11914C17.8639 3.20312 14.651 0 10.735 0C6.84827 0 3.65491 3.19336 3.65491 7.11914Z" fill="black" fill-opacity="0.85"/>
 </g>
</svg>
