<?xml version="1.0" encoding="UTF-8"?>
<!--Generator: Apple Native CoreSVG 326-->
<!DOCTYPE svg
PUBLIC "-//W3C//DTD SVG 1.1//EN"
       "http://www.w3.org/Graphics/SVG/1.1/DTD/svg11.dtd">
<svg version="1.1" xmlns="http://www.w3.org/2000/svg" xmlns:xlink="http://www.w3.org/1999/xlink" viewBox="0 0 31.5625 23.3496">
 <g>
  <rect height="23.3496" opacity="0" width="31.5625" x="0" y="0"/>
  <path d="M24.5801 21.4746C28.3008 21.4746 31.2012 18.7891 31.2012 15.4102C31.2012 12.8223 29.7363 10.5566 27.2559 9.58008C27.3242 4.0332 23.3594 0 18.3008 0C14.873 0 12.4805 1.85547 11.0352 4.0918C7.98828 3.10547 4.62891 5.44922 4.58984 8.94531C1.78711 9.33594 0 11.7871 0 14.8242C0 18.4668 3.16406 21.4648 7.37305 21.4648ZM24.5703 19.7461L7.36328 19.7363C4.13086 19.7363 1.72852 17.5 1.72852 14.8242C1.72852 12.2852 3.26172 10.293 5.9375 10.293C6.09375 10.293 6.16211 10.2051 6.16211 10.0488C6.16211 6.2793 8.96484 4.96094 11.582 5.87891C11.7285 5.92773 11.8164 5.89844 11.8945 5.76172C13.125 3.57422 15.0195 1.72852 18.3008 1.72852C22.4219 1.72852 25.3418 5 25.5762 8.85742C25.6152 9.39453 25.5762 10.0293 25.5371 10.5957C25.5273 10.7422 25.5859 10.8398 25.7227 10.8691C28.0078 11.4062 29.4727 13.125 29.4727 15.4102C29.4727 17.8418 27.334 19.7461 24.5703 19.7461Z" fill="black" fill-opacity="0.85"/>
  <path d="M22.373 12.2168C22.373 10.1562 20.7227 8.50586 18.6719 8.50586C17.1094 8.50586 15.7422 9.44336 15.1953 10.8984L9.41406 10.8984C9.28711 10.8984 9.17969 10.9473 9.0625 11.0645L8.0957 12.0215C7.98828 12.1289 7.97852 12.2949 8.0957 12.4121L9.92188 14.2578C10.0391 14.375 10.2051 14.375 10.3125 14.2578L11.4648 13.0859L13.0566 14.6875C13.1543 14.7949 13.3105 14.7754 13.4277 14.668L15.0293 13.0859C15.752 14.9023 17.0703 15.918 18.6719 15.918C20.7129 15.918 22.373 14.2676 22.373 12.2168ZM20.5859 12.207C20.5859 12.832 20.0684 13.3398 19.4434 13.3398C18.8086 13.3398 18.3008 12.832 18.3008 12.207C18.3008 11.582 18.8086 11.0742 19.4434 11.0742C20.0684 11.0742 20.5859 11.5723 20.5859 12.207Z" fill="black" fill-opacity="0.85"/>
 </g>
</svg>
