<?xml version="1.0" ?><!-- Generator: Adobe Illustrator 25.0.0, SVG Export Plug-In . SVG Version: 6.00 Build 0)  --><svg xmlns="http://www.w3.org/2000/svg" xmlns:xlink="http://www.w3.org/1999/xlink" version="1.1" id="Layer_1" x="0px" y="0px" viewBox="0 0 512 512" style="enable-background:new 0 0 512 512;" xml:space="preserve">
<path d="M256.1,0c-73.9,0-132.6,58.7-132.6,132.2c0,55.4,33.2,104.4,85.1,124.1V461c0,5.2,1.7,9.1,5.4,13.1l34.6,34.9  c3.5,3.5,10.6,4.6,14.9,0.2l65.8-65.8c4.4-4.6,4.1-10.6,0-14.9l-40.9-40.2l56-55.8c3.9-4.1,3.9-10.2-0.4-14.7l-55.4-55.8  c64.1-25.5,99.8-72.8,99.8-129.7C388.5,59.1,329.3,0,256.1,0z M256.1,126.8c-20.3,0-36.9-16.4-36.9-36.9s16.2-36.9,36.9-36.9  c20.3,0,36.9,16.6,36.9,36.9C293,110.4,276.4,126.8,256.1,126.8z"/>
</svg>