<?xml version="1.0" encoding="UTF-8"?>
<!--Generator: Apple Native CoreSVG 326-->
<!DOCTYPE svg
PUBLIC "-//W3C//DTD SVG 1.1//EN"
       "http://www.w3.org/Graphics/SVG/1.1/DTD/svg11.dtd">
<svg version="1.1" xmlns="http://www.w3.org/2000/svg" xmlns:xlink="http://www.w3.org/1999/xlink" viewBox="0 0 39.4385 32.2972">
 <g>
  <rect height="32.2972" opacity="0" width="39.4385" x="0" y="0"/>
  <path d="M30.3833 0.381987C32.0044 2.54996 32.9614 5.64566 32.9614 8.77066C32.9614 11.9054 31.9946 14.9816 30.3833 17.1593C30.0903 17.5695 29.5923 17.6671 29.2017 17.3937C28.8013 17.1203 28.7427 16.6222 29.0552 16.173C30.4614 14.171 31.2915 11.5343 31.2915 8.77066C31.2915 6.00699 30.481 3.3605 29.0552 1.36832C28.7329 0.928862 28.8013 0.42105 29.2017 0.157378C29.5923-0.116059 30.0903-0.0281688 30.3833 0.381987Z" fill="black" fill-opacity="0.85"/>
  <path d="M25.8423 3.69253C26.8091 4.97183 27.4146 6.80777 27.4146 8.77066C27.4146 10.7433 26.8091 12.589 25.8423 13.8585C25.5591 14.2687 25.0513 14.3468 24.6802 14.1027C24.2505 13.7902 24.1919 13.2726 24.5142 12.8136C25.3052 11.7101 25.7446 10.3234 25.7446 8.77066C25.7446 7.22769 25.3149 5.83121 24.5142 4.72769C24.1821 4.28824 24.2505 3.76089 24.6802 3.45816C25.0513 3.19449 25.5591 3.28238 25.8423 3.69253Z" fill="black" fill-opacity="0.85"/>
  <path d="M16.9459 23.1778L15.9302 24.1906L18.4302 26.6613C18.6646 26.8957 18.6743 27.2277 18.4302 27.4816L14.4751 31.4367C14.2212 31.6906 13.8403 31.632 13.6353 31.4269L11.5552 29.3468C11.3306 29.1125 11.2427 28.8781 11.2427 28.5851L11.2427 17.477ZM21.9849 8.74136C21.9849 11.9265 20.1129 14.6141 16.7193 16.1992L6.57506 6.06375C7.65929 2.99661 10.5782 0.821441 14.0454 0.821441C18.4497 0.821441 21.9849 4.3566 21.9849 8.74136ZM12.0044 6.00699C12.0044 7.14957 12.9126 8.06753 14.0454 8.06753C15.188 8.06753 16.106 7.14957 16.106 6.00699C16.106 4.87417 15.188 3.96597 14.0454 3.96597C12.9028 3.96597 12.0044 4.87417 12.0044 6.00699Z" fill="black" fill-opacity="0.85"/>
  <path d="M1.77002 5.81167L24.2993 28.3214C24.6216 28.6535 25.1587 28.6535 25.4712 28.3214C25.7935 27.9894 25.8032 27.4718 25.4712 27.1496L2.95166 4.6398C2.63916 4.31753 2.10205 4.30777 1.77002 4.6398C1.44775 4.9523 1.44775 5.49917 1.77002 5.81167Z" fill="black" fill-opacity="0.85"/>
 </g>
</svg>
