<?xml version="1.0" encoding="UTF-8"?>
<!--Generator: Apple Native CoreSVG 326-->
<!DOCTYPE svg
PUBLIC "-//W3C//DTD SVG 1.1//EN"
       "http://www.w3.org/Graphics/SVG/1.1/DTD/svg11.dtd">
<svg version="1.1" xmlns="http://www.w3.org/2000/svg" xmlns:xlink="http://www.w3.org/1999/xlink" viewBox="0 0 39.9756 32.2972">
 <g>
  <rect height="32.2972" opacity="0" width="39.9756" x="0" y="0"/>
  <path d="M30.9399 0.381987C32.5708 2.54996 33.5278 5.64566 33.5278 8.77066C33.5278 11.9054 32.561 14.9816 30.9399 17.1593C30.6567 17.5695 30.1587 17.6671 29.7583 17.3937C29.3677 17.1203 29.3091 16.6222 29.6118 16.173C31.0278 14.171 31.8579 11.5343 31.8579 8.77066C31.8579 6.00699 31.0474 3.3605 29.6118 1.36832C29.2993 0.928862 29.3677 0.42105 29.7583 0.157378C30.1587-0.116059 30.6567-0.0281688 30.9399 0.381987Z" fill="black" fill-opacity="0.85"/>
  <path d="M26.4087 3.69253C27.3755 4.97183 27.981 6.80777 27.981 8.77066C27.981 10.7433 27.3755 12.589 26.4087 13.8585C26.1157 14.2687 25.6177 14.3468 25.2466 14.1027C24.8169 13.7902 24.7583 13.2726 25.0806 12.8136C25.8716 11.7101 26.3013 10.3234 26.3013 8.77066C26.3013 7.22769 25.8813 5.83121 25.0806 4.72769C24.7485 4.28824 24.8169 3.76089 25.2466 3.45816C25.6177 3.19449 26.1157 3.28238 26.4087 3.69253Z" fill="black" fill-opacity="0.85"/>
  <path d="M12.8149 19.0486L12.8149 28.0773L14.3188 29.5714L17.2095 26.6418L15.2759 24.7179L15.2759 22.9406L15.9958 22.2281L17.2375 23.4692L16.8579 23.8488L18.938 25.9191C19.3481 26.3293 19.3677 26.9738 18.9478 27.4035L15.061 31.2902C14.6313 31.7101 14.0259 31.6613 13.5767 31.2804L11.5259 29.425C11.1938 29.132 11.0864 28.7121 11.0864 28.341L11.0864 17.3208ZM22.5513 8.77066C22.5513 12.1042 20.5684 14.9058 17.0346 16.5199L15.6862 15.172C18.8698 14.2544 20.813 11.7105 20.813 8.77066C20.813 5.17691 17.9224 2.29605 14.3188 2.29605C11.168 2.29605 8.55932 4.49406 7.94451 7.4337L6.54759 6.03738C7.66145 2.83254 10.7043 0.557769 14.3188 0.557769C18.8696 0.557769 22.5513 4.21988 22.5513 8.77066ZM16.3208 6.30972C16.3208 7.41324 15.4224 8.31167 14.3188 8.31167C13.2056 8.31167 12.3169 7.41324 12.3169 6.30972C12.3169 5.19644 13.1958 4.30777 14.3188 4.30777C15.4224 4.30777 16.3208 5.19644 16.3208 6.30972Z" fill="black" fill-opacity="0.85"/>
  <path d="M1.76025 5.81167L24.2896 28.3214C24.6216 28.6535 25.1489 28.6535 25.4712 28.3214C25.7935 27.9894 25.7935 27.4718 25.4712 27.1496L2.95166 4.6398C2.62939 4.31753 2.09229 4.30777 1.76025 4.6398C1.44775 4.9523 1.44775 5.49917 1.76025 5.81167Z" fill="black" fill-opacity="0.85"/>
 </g>
</svg>
