<?xml version="1.0" encoding="UTF-8"?>
<!--Generator: Apple Native CoreSVG 326-->
<!DOCTYPE svg
PUBLIC "-//W3C//DTD SVG 1.1//EN"
       "http://www.w3.org/Graphics/SVG/1.1/DTD/svg11.dtd">
<svg version="1.1" xmlns="http://www.w3.org/2000/svg" xmlns:xlink="http://www.w3.org/1999/xlink" viewBox="0 0 27.8125 32.2972">
 <g>
  <rect height="32.2972" opacity="0" width="27.8125" x="0" y="0"/>
  <path d="M23.6816 17.3937C24.082 17.6671 24.5703 17.5695 24.8633 17.1593C26.4746 14.9816 27.4512 11.9054 27.4512 8.77066C27.4512 5.64566 26.4844 2.54996 24.8633 0.381987C24.5703-0.0281688 24.082-0.116059 23.6816 0.157378C23.2812 0.42105 23.2129 0.928862 23.5352 1.36832C24.9707 3.3605 25.7812 6.00699 25.7812 8.77066C25.7812 11.5343 24.9512 14.171 23.5352 16.173C23.2227 16.6222 23.2812 17.1203 23.6816 17.3937Z" fill="black" fill-opacity="0.85"/>
  <path d="M19.1699 14.1027C19.5312 14.3468 20.0391 14.2687 20.332 13.8585C21.2891 12.589 21.8945 10.7433 21.8945 8.77066C21.8945 6.80777 21.2891 4.97183 20.332 3.69253C20.0391 3.28238 19.5312 3.19449 19.1699 3.45816C18.7402 3.76089 18.6621 4.28824 19.0039 4.72769C19.8047 5.83121 20.2246 7.22769 20.2246 8.77066C20.2246 10.3234 19.7949 11.7101 19.0039 12.8136C18.6719 13.2726 18.7402 13.7902 19.1699 14.1027Z" fill="black" fill-opacity="0.85"/>
  <path d="M7.5 31.2804C7.93945 31.6613 8.54492 31.7101 8.97461 31.2902L12.8613 27.4035C13.291 26.9738 13.2715 26.3293 12.8516 25.9191L10.7715 23.8488L13.75 20.8703C14.1602 20.4699 14.1504 19.8156 13.7305 19.3859L10.9082 16.5441C14.4629 14.9328 16.4746 12.1203 16.4746 8.77066C16.4746 4.21988 12.793 0.557769 8.23242 0.557769C3.66211 0.557769 0 4.21011 0 8.77066C0 12.1105 1.94336 15.0793 5 16.3683L5 28.341C5 28.7121 5.11719 29.132 5.44922 29.425ZM8.23242 29.5714L6.73828 28.0773L6.73828 15.1183C3.76953 14.4054 1.71875 11.8273 1.71875 8.77066C1.71875 5.18667 4.62891 2.29605 8.23242 2.29605C11.8359 2.29605 14.7363 5.17691 14.7363 8.77066C14.7363 11.798 12.6758 14.4054 9.32617 15.255L9.32617 17.4523L12.0215 20.1476L9.18945 22.9406L9.18945 24.7179L11.1328 26.6418ZM8.23242 8.31167C9.3457 8.31167 10.2441 7.41324 10.2441 6.30972C10.2441 5.19644 9.3457 4.30777 8.23242 4.30777C7.11914 4.30777 6.24023 5.19644 6.24023 6.30972C6.24023 7.41324 7.12891 8.31167 8.23242 8.31167Z" fill="black" fill-opacity="0.85"/>
 </g>
</svg>
