<?xml version="1.0" ?><!-- Generator: Adobe Illustrator 25.0.0, SVG Export Plug-In . SVG Version: 6.00 Build 0)  --><svg xmlns="http://www.w3.org/2000/svg" xmlns:xlink="http://www.w3.org/1999/xlink" version="1.1" id="Layer_1" x="0px" y="0px" viewBox="0 0 512 512" style="enable-background:new 0 0 512 512;" xml:space="preserve">
<path d="M241.7,506.2c8.6,7.2,20.3,8.2,28.6,0.2l63.5-63.5c8-8.2,7.6-20.5-0.2-28.6l-31.8-31.6l46.4-46.2c8-7.8,7.6-20.3-0.2-28.6  L305,264.8c56.5-27.1,88.3-73.1,88.3-127.8c0-75.8-61.4-137-137.2-137c-76.4,0-137.4,60.8-137.4,137c0,55.1,31.6,103.9,81.6,125.9  v193.9c0,6.8,2.1,14.6,8,19.9L241.7,506.2z M256.1,473.7l-22.8-22.6v-212c-48.3-10.9-81.8-52.6-81.8-102.1  c0-57.5,46.6-103.9,104.6-103.9c57.7,0,104.2,46.4,104.2,103.9c0,49.1-33.7,91.2-85.3,103.5v41.5l40.3,40.5l-43.6,42.9v34.1  l29.2,28.8L256.1,473.7z M256.1,138.9c20.5,0,37.2-16.6,37.2-37.4c0-20.5-16.6-37.2-37.2-37.2c-21,0-37.4,16.4-37.4,37.2  C218.7,122.2,235.4,138.9,256.1,138.9z"/>
</svg>