<?xml version="1.0" ?><!-- Generator: Adobe Illustrator 25.0.0, SVG Export Plug-In . SVG Version: 6.00 Build 0)  --><svg xmlns="http://www.w3.org/2000/svg" xmlns:xlink="http://www.w3.org/1999/xlink" version="1.1" id="Layer_1" x="0px" y="0px" viewBox="0 0 512 512" style="enable-background:new 0 0 512 512;" xml:space="preserve">
<path d="M63.9,416.7h384.3c42.3,0,63.9-21.2,63.9-63.1V158.2c0-41.7-21.6-62.9-63.9-62.9H63.9c-42.7,0-63.9,21-63.9,62.9v195.5  C0,395.5,21.2,416.7,63.9,416.7z M64.3,383.9c-20.3,0-31.5-11-31.5-32.1V160c0-21.2,11.2-31.9,31.5-31.9h383.2  c20.1,0,31.7,10.8,31.7,31.9v191.8c0,21.2-11.6,32.1-31.7,32.1H64.3z M80.1,208.2h15.1c3.5,0,5.7-2.4,5.7-6.5v-22.8  c0-4.1-2.2-6.5-5.7-6.5H80.1c-3.7,0-6.1,2.4-6.1,6.5v22.8C74,205.8,76.5,208.2,80.1,208.2z M124.9,208.2h14.8c3.7,0,5.9-2.4,5.9-6.5  v-22.8c0-4.1-2.2-6.5-5.9-6.5h-14.8c-3.9,0-6.1,2.4-6.1,6.5v22.8C118.8,205.8,121,208.2,124.9,208.2z M169.4,208.2h15.1  c3.5,0,5.7-2.4,5.7-6.5v-22.8c0-4.1-2.2-6.5-5.7-6.5h-15.1c-3.7,0-6.1,2.4-6.1,6.5v22.8C163.3,205.8,165.8,208.2,169.4,208.2z   M214,208.2h14.8c3.7,0,6.1-2.4,6.1-6.5v-22.8c0-4.1-2.4-6.5-6.1-6.5H214c-3.7,0-5.9,2.4-5.9,6.5v22.8  C208.1,205.8,210.3,208.2,214,208.2z M258.5,208.2h15.3c3.5,0,5.7-2.4,5.7-6.5v-22.8c0-4.1-2.2-6.5-5.7-6.5h-15.3  c-3.7,0-5.9,2.4-5.9,6.5v22.8C252.6,205.8,254.9,208.2,258.5,208.2z M303.5,208.2h14.6c3.7,0,6.1-2.4,6.1-6.5v-22.8  c0-4.1-2.4-6.5-6.1-6.5h-14.6c-3.9,0-6.1,2.4-6.1,6.5v22.8C297.4,205.8,299.6,208.2,303.5,208.2z M359.4,244.6  c-7.3,7.1-7.3,15.5,0,22.6l59.6,57c7.1,6.5,18.7,3.9,18.7-7.1V194.8c0-10.8-11.6-13.4-18.7-6.9L359.4,244.6z M80.1,273.5h15.1  c3.5,0,5.7-2.2,5.7-6.5v-22.6c0-4.3-2.2-6.5-5.7-6.5H80.1c-3.7,0-6.1,2.2-6.1,6.5V267C74,271.3,76.5,273.5,80.1,273.5z M124.9,273.5  h14.8c3.7,0,5.9-2.2,5.9-6.5v-22.6c0-4.3-2.2-6.5-5.9-6.5h-14.8c-3.9,0-6.1,2.2-6.1,6.5V267C118.8,271.3,121,273.5,124.9,273.5z   M169.4,273.5h15.1c3.5,0,5.7-2.2,5.7-6.5v-22.6c0-4.3-2.2-6.5-5.7-6.5h-15.1c-3.7,0-6.1,2.2-6.1,6.5V267  C163.3,271.3,165.8,273.5,169.4,273.5z M214,273.5h14.8c3.7,0,6.1-2.2,6.1-6.5v-22.6c0-4.3-2.4-6.5-6.1-6.5H214  c-3.7,0-5.9,2.2-5.9,6.5V267C208.1,271.3,210.3,273.5,214,273.5z M258.5,273.5h15.3c3.5,0,5.7-2.2,5.7-6.5v-22.6  c0-4.3-2.2-6.5-5.7-6.5h-15.3c-3.7,0-5.9,2.2-5.9,6.5V267C252.6,271.3,254.9,273.5,258.5,273.5z M303.5,273.5h14.6  c3.7,0,6.1-2.2,6.1-6.5v-22.6c0-4.3-2.4-6.5-6.1-6.5h-14.6c-3.9,0-6.1,2.2-6.1,6.5V267C297.4,271.3,299.6,273.5,303.5,273.5z   M80.1,339h15.1c3.5,0,5.7-2.4,5.7-6.5v-22.8c0-4.1-2.2-6.5-5.7-6.5H80.1c-3.7,0-6.1,2.4-6.1,6.5v22.8C74,336.6,76.5,339,80.1,339z   M124.9,339h148.9c3.5,0,5.7-2.4,5.7-6.5v-22.8c0-4.1-2.2-6.5-5.7-6.5H124.9c-3.9,0-6.1,2.4-6.1,6.5v22.8  C118.8,336.6,121,339,124.9,339z M303.5,339h14.6c3.7,0,6.1-2.4,6.1-6.5v-22.8c0-4.1-2.4-6.5-6.1-6.5h-14.6c-3.9,0-6.1,2.4-6.1,6.5  v22.8C297.4,336.6,299.6,339,303.5,339z"/>
</svg>