<?xml version="1.0" encoding="UTF-8"?>
<!--Generator: Apple Native CoreSVG 326-->
<!DOCTYPE svg
PUBLIC "-//W3C//DTD SVG 1.1//EN"
       "http://www.w3.org/Graphics/SVG/1.1/DTD/svg11.dtd">
<svg version="1.1" xmlns="http://www.w3.org/2000/svg" xmlns:xlink="http://www.w3.org/1999/xlink" viewBox="0 0 31.8164 19.7168">
 <g>
  <rect height="19.7168" opacity="0" width="31.8164" x="0" y="0"/>
  <path d="M3.79883 19.6875L27.6562 19.6875C30.1758 19.6875 31.4551 18.4082 31.4551 15.918L31.4551 3.76953C31.4551 1.2793 30.1758 0 27.6562 0L3.79883 0C1.26953 0 0 1.26953 0 3.76953L0 15.918C0 18.418 1.26953 19.6875 3.79883 19.6875ZM3.83789 17.959C2.4707 17.959 1.72852 17.2266 1.72852 15.8301L1.72852 3.85742C1.72852 2.46094 2.4707 1.73828 3.83789 1.73828L27.6172 1.73828C28.9551 1.73828 29.7266 2.46094 29.7266 3.85742L29.7266 15.8301C29.7266 17.2266 28.9551 17.959 27.6172 17.959ZM5 6.86523L6.10352 6.86523C6.44531 6.86523 6.65039 6.66016 6.65039 6.31836L6.65039 5.21484C6.65039 4.87305 6.44531 4.6582 6.10352 4.6582L5 4.6582C4.6582 4.6582 4.45312 4.87305 4.45312 5.21484L4.45312 6.31836C4.45312 6.66016 4.6582 6.86523 5 6.86523ZM9.05273 6.86523L10.1562 6.86523C10.498 6.86523 10.7129 6.66016 10.7129 6.31836L10.7129 5.21484C10.7129 4.87305 10.498 4.6582 10.1562 4.6582L9.05273 4.6582C8.71094 4.6582 8.50586 4.87305 8.50586 5.21484L8.50586 6.31836C8.50586 6.66016 8.71094 6.86523 9.05273 6.86523ZM13.1055 6.86523L14.209 6.86523C14.5508 6.86523 14.7656 6.66016 14.7656 6.31836L14.7656 5.21484C14.7656 4.87305 14.5508 4.6582 14.209 4.6582L13.1055 4.6582C12.7637 4.6582 12.5586 4.87305 12.5586 5.21484L12.5586 6.31836C12.5586 6.66016 12.7637 6.86523 13.1055 6.86523ZM17.1582 6.86523L18.2617 6.86523C18.6035 6.86523 18.8184 6.66016 18.8184 6.31836L18.8184 5.21484C18.8184 4.87305 18.6035 4.6582 18.2617 4.6582L17.1582 4.6582C16.8164 4.6582 16.6113 4.87305 16.6113 5.21484L16.6113 6.31836C16.6113 6.66016 16.8164 6.86523 17.1582 6.86523ZM21.2109 6.86523L22.3145 6.86523C22.666 6.86523 22.8711 6.66016 22.8711 6.31836L22.8711 5.21484C22.8711 4.87305 22.666 4.6582 22.3145 4.6582L21.2109 4.6582C20.8691 4.6582 20.6641 4.87305 20.6641 5.21484L20.6641 6.31836C20.6641 6.66016 20.8691 6.86523 21.2109 6.86523ZM25.2637 6.86523L26.3672 6.86523C26.7188 6.86523 26.9238 6.66016 26.9238 6.31836L26.9238 5.21484C26.9238 4.87305 26.7188 4.6582 26.3672 4.6582L25.2637 4.6582C24.9219 4.6582 24.7168 4.87305 24.7168 5.21484L24.7168 6.31836C24.7168 6.66016 24.9219 6.86523 25.2637 6.86523ZM5 10.918L6.10352 10.918C6.44531 10.918 6.65039 10.7129 6.65039 10.3711L6.65039 9.26758C6.65039 8.92578 6.44531 8.7207 6.10352 8.7207L5 8.7207C4.6582 8.7207 4.45312 8.92578 4.45312 9.26758L4.45312 10.3711C4.45312 10.7129 4.6582 10.918 5 10.918ZM9.05273 10.918L10.1562 10.918C10.498 10.918 10.7129 10.7129 10.7129 10.3711L10.7129 9.26758C10.7129 8.92578 10.498 8.7207 10.1562 8.7207L9.05273 8.7207C8.71094 8.7207 8.50586 8.92578 8.50586 9.26758L8.50586 10.3711C8.50586 10.7129 8.71094 10.918 9.05273 10.918ZM13.1055 10.918L14.209 10.918C14.5508 10.918 14.7656 10.7129 14.7656 10.3711L14.7656 9.26758C14.7656 8.92578 14.5508 8.7207 14.209 8.7207L13.1055 8.7207C12.7637 8.7207 12.5586 8.92578 12.5586 9.26758L12.5586 10.3711C12.5586 10.7129 12.7637 10.918 13.1055 10.918ZM17.1582 10.918L18.2617 10.918C18.6035 10.918 18.8184 10.7129 18.8184 10.3711L18.8184 9.26758C18.8184 8.92578 18.6035 8.7207 18.2617 8.7207L17.1582 8.7207C16.8164 8.7207 16.6113 8.92578 16.6113 9.26758L16.6113 10.3711C16.6113 10.7129 16.8164 10.918 17.1582 10.918ZM21.2109 10.918L22.3145 10.918C22.666 10.918 22.8711 10.7129 22.8711 10.3711L22.8711 9.26758C22.8711 8.92578 22.666 8.7207 22.3145 8.7207L21.2109 8.7207C20.8691 8.7207 20.6641 8.92578 20.6641 9.26758L20.6641 10.3711C20.6641 10.7129 20.8691 10.918 21.2109 10.918ZM25.2637 10.918L26.3672 10.918C26.7188 10.918 26.9238 10.7129 26.9238 10.3711L26.9238 9.26758C26.9238 8.92578 26.7188 8.7207 26.3672 8.7207L25.2637 8.7207C24.9219 8.7207 24.7168 8.92578 24.7168 9.26758L24.7168 10.3711C24.7168 10.7129 24.9219 10.918 25.2637 10.918ZM5 14.9805L6.10352 14.9805C6.44531 14.9805 6.65039 14.7656 6.65039 14.4238L6.65039 13.3203C6.65039 12.9785 6.44531 12.7734 6.10352 12.7734L5 12.7734C4.6582 12.7734 4.45312 12.9785 4.45312 13.3203L4.45312 14.4238C4.45312 14.7656 4.6582 14.9805 5 14.9805ZM9.15039 14.9805L22.2168 14.9805C22.627 14.9805 22.8711 14.7363 22.8711 14.3262L22.8711 13.418C22.8711 13.0078 22.627 12.7734 22.2168 12.7734L9.15039 12.7734C8.74023 12.7734 8.50586 13.0078 8.50586 13.418L8.50586 14.3262C8.50586 14.7363 8.74023 14.9805 9.15039 14.9805ZM25.2637 14.9805L26.3672 14.9805C26.7188 14.9805 26.9238 14.7656 26.9238 14.4238L26.9238 13.3203C26.9238 12.9785 26.7188 12.7734 26.3672 12.7734L25.2637 12.7734C24.9219 12.7734 24.7168 12.9785 24.7168 13.3203L24.7168 14.4238C24.7168 14.7656 24.9219 14.9805 25.2637 14.9805Z" fill="black" fill-opacity="0.85"/>
 </g>
</svg>
