<?xml version="1.0" encoding="UTF-8"?>
<!--Generator: Apple Native CoreSVG 326-->
<!DOCTYPE svg
PUBLIC "-//W3C//DTD SVG 1.1//EN"
       "http://www.w3.org/Graphics/SVG/1.1/DTD/svg11.dtd">
<svg version="1.1" xmlns="http://www.w3.org/2000/svg" xmlns:xlink="http://www.w3.org/1999/xlink" viewBox="0 0 40.4004 19.7168">
 <g>
  <rect height="19.7168" opacity="0" width="40.4004" x="0" y="0"/>
  <path d="M12.3926 19.6875L36.2402 19.6875C38.7598 19.6875 40.0391 18.4082 40.0391 15.918L40.0391 3.76953C40.0391 1.2793 38.7598 0 36.2402 0L12.3926 0C9.86328 0 8.58398 1.26953 8.58398 3.76953L8.58398 15.918C8.58398 18.418 9.86328 19.6875 12.3926 19.6875ZM13.3203 6.79688C12.9688 6.79688 12.7637 6.58203 12.7637 6.23047L12.7637 5.09766C12.7637 4.74609 12.9688 4.53125 13.3203 4.53125L14.4531 4.53125C14.8047 4.53125 15.0293 4.74609 15.0293 5.09766L15.0293 6.23047C15.0293 6.58203 14.8047 6.79688 14.4531 6.79688ZM17.4707 6.79688C17.1191 6.79688 16.9141 6.58203 16.9141 6.23047L16.9141 5.09766C16.9141 4.74609 17.1191 4.53125 17.4707 4.53125L18.6035 4.53125C18.9648 4.53125 19.1797 4.74609 19.1797 5.09766L19.1797 6.23047C19.1797 6.58203 18.9648 6.79688 18.6035 6.79688ZM21.6309 6.79688C21.2793 6.79688 21.0645 6.58203 21.0645 6.23047L21.0645 5.09766C21.0645 4.74609 21.2793 4.53125 21.6309 4.53125L22.7539 4.53125C23.1152 4.53125 23.3301 4.74609 23.3301 5.09766L23.3301 6.23047C23.3301 6.58203 23.1152 6.79688 22.7539 6.79688ZM25.791 6.79688C25.4297 6.79688 25.2148 6.58203 25.2148 6.23047L25.2148 5.09766C25.2148 4.74609 25.4297 4.53125 25.791 4.53125L26.9141 4.53125C27.2656 4.53125 27.4805 4.74609 27.4805 5.09766L27.4805 6.23047C27.4805 6.58203 27.2656 6.79688 26.9141 6.79688ZM29.9414 6.79688C29.5801 6.79688 29.3652 6.58203 29.3652 6.23047L29.3652 5.09766C29.3652 4.74609 29.5801 4.53125 29.9414 4.53125L31.0645 4.53125C31.4258 4.53125 31.6309 4.74609 31.6309 5.09766L31.6309 6.23047C31.6309 6.58203 31.4258 6.79688 31.0645 6.79688ZM34.0918 6.79688C33.7402 6.79688 33.5156 6.58203 33.5156 6.23047L33.5156 5.09766C33.5156 4.74609 33.7402 4.53125 34.0918 4.53125L35.2246 4.53125C35.5762 4.53125 35.7812 4.74609 35.7812 5.09766L35.7812 6.23047C35.7812 6.58203 35.5762 6.79688 35.2246 6.79688ZM13.3203 10.957C12.9688 10.957 12.7637 10.7324 12.7637 10.3906L12.7637 9.24805C12.7637 8.90625 12.9688 8.68164 13.3203 8.68164L14.4531 8.68164C14.8047 8.68164 15.0293 8.90625 15.0293 9.24805L15.0293 10.3906C15.0293 10.7324 14.8047 10.957 14.4531 10.957ZM17.4707 10.957C17.1191 10.957 16.9141 10.7324 16.9141 10.3906L16.9141 9.24805C16.9141 8.90625 17.1191 8.68164 17.4707 8.68164L18.6035 8.68164C18.9648 8.68164 19.1797 8.90625 19.1797 9.24805L19.1797 10.3906C19.1797 10.7324 18.9648 10.957 18.6035 10.957ZM21.6309 10.957C21.2793 10.957 21.0645 10.7324 21.0645 10.3906L21.0645 9.24805C21.0645 8.90625 21.2793 8.68164 21.6309 8.68164L22.7539 8.68164C23.1152 8.68164 23.3301 8.90625 23.3301 9.24805L23.3301 10.3906C23.3301 10.7324 23.1152 10.957 22.7539 10.957ZM25.791 10.957C25.4297 10.957 25.2148 10.7324 25.2148 10.3906L25.2148 9.24805C25.2148 8.90625 25.4297 8.68164 25.791 8.68164L26.9141 8.68164C27.2656 8.68164 27.4805 8.90625 27.4805 9.24805L27.4805 10.3906C27.4805 10.7324 27.2656 10.957 26.9141 10.957ZM29.9414 10.957C29.5801 10.957 29.3652 10.7324 29.3652 10.3906L29.3652 9.24805C29.3652 8.90625 29.5801 8.68164 29.9414 8.68164L31.0645 8.68164C31.4258 8.68164 31.6309 8.90625 31.6309 9.24805L31.6309 10.3906C31.6309 10.7324 31.4258 10.957 31.0645 10.957ZM34.0918 10.957C33.7402 10.957 33.5156 10.7324 33.5156 10.3906L33.5156 9.24805C33.5156 8.90625 33.7402 8.68164 34.0918 8.68164L35.2246 8.68164C35.5762 8.68164 35.7812 8.90625 35.7812 9.24805L35.7812 10.3906C35.7812 10.7324 35.5762 10.957 35.2246 10.957ZM13.3203 15.1074C12.9688 15.1074 12.7637 14.8926 12.7637 14.541L12.7637 13.4082C12.7637 13.0566 12.9688 12.8418 13.3203 12.8418L14.4531 12.8418C14.8047 12.8418 15.0293 13.0566 15.0293 13.4082L15.0293 14.541C15.0293 14.8926 14.8047 15.1074 14.4531 15.1074ZM17.5879 15.1074C17.1582 15.1074 16.9141 14.8535 16.9141 14.4336L16.9141 13.5156C16.9141 13.0859 17.1582 12.8418 17.5879 12.8418L30.957 12.8418C31.3867 12.8418 31.6309 13.0859 31.6309 13.5156L31.6309 14.4336C31.6309 14.8535 31.3867 15.1074 30.957 15.1074ZM34.0918 15.1074C33.7402 15.1074 33.5156 14.8926 33.5156 14.541L33.5156 13.4082C33.5156 13.0566 33.7402 12.8418 34.0918 12.8418L35.2246 12.8418C35.5762 12.8418 35.7812 13.0566 35.7812 13.4082L35.7812 14.541C35.7812 14.8926 35.5762 15.1074 35.2246 15.1074Z" fill="black" fill-opacity="0.85"/>
  <path d="M3.7793 15.5859C4.55078 16.6504 5.88867 15.6543 5.25391 14.7461L1.79688 9.85352L5.25391 4.9707C5.88867 4.07227 4.55078 3.06641 3.7793 4.13086L0.263672 9.0625C-0.0878906 9.56055-0.0878906 10.1562 0.263672 10.6543Z" fill="black" fill-opacity="0.85"/>
 </g>
</svg>
