<?xml version="1.0" encoding="UTF-8"?>
<!--Generator: Apple Native CoreSVG 326-->
<!DOCTYPE svg
PUBLIC "-//W3C//DTD SVG 1.1//EN"
       "http://www.w3.org/Graphics/SVG/1.1/DTD/svg11.dtd">
<svg version="1.1" xmlns="http://www.w3.org/2000/svg" xmlns:xlink="http://www.w3.org/1999/xlink" viewBox="0 0 31.8164 19.7168">
 <g>
  <rect height="19.7168" opacity="0" width="31.8164" x="0" y="0"/>
  <path d="M31.4551 3.76953L31.4551 15.918C31.4551 18.4082 30.1758 19.6875 27.6562 19.6875L3.79883 19.6875C1.26953 19.6875 0 18.418 0 15.918L0 3.76953C0 1.26953 1.26953 0 3.79883 0L27.6562 0C30.1758 0 31.4551 1.2793 31.4551 3.76953ZM11.8066 12.9004C11.582 12.9004 11.4453 13.0469 11.4453 13.3008L11.4453 14.6387C11.4453 14.9023 11.582 15.0391 11.8066 15.0391L12.7051 15.0391C12.9297 15.0391 13.0566 14.9023 13.0566 14.6387L13.0566 13.3008C13.0566 13.0469 12.9297 12.9004 12.7051 12.9004ZM14.6387 12.9004C14.4141 12.9004 14.2773 13.0469 14.2773 13.3008L14.2773 14.6387C14.2773 14.9023 14.4141 15.0391 14.6387 15.0391L24.0332 15.0391C24.2578 15.0391 24.3848 14.9023 24.3848 14.6387L24.3848 13.3008C24.3848 13.0469 24.2578 12.9004 24.0332 12.9004ZM25.9766 12.9004C25.7422 12.9004 25.6152 13.0469 25.6152 13.3008L25.6152 14.6387C25.6152 14.9023 25.7422 15.0391 25.9766 15.0391L26.8555 15.0391C27.0898 15.0391 27.2266 14.9023 27.2266 14.6387L27.2266 13.3008C27.2266 13.0469 27.0898 12.9004 26.8555 12.9004ZM4.23828 5.84961L4.23828 13.8477C4.23828 14.4727 4.90234 14.6387 5.32227 14.248L9.23828 10.498C9.6582 10.0781 9.6582 9.60938 9.23828 9.18945L5.32227 5.43945C4.90234 5.04883 4.23828 5.22461 4.23828 5.84961ZM11.8066 8.75C11.582 8.75 11.4453 8.88672 11.4453 9.15039L11.4453 10.4883C11.4453 10.752 11.582 10.8887 11.8066 10.8887L12.7051 10.8887C12.9297 10.8887 13.0566 10.752 13.0566 10.4883L13.0566 9.15039C13.0566 8.88672 12.9297 8.75 12.7051 8.75ZM14.6387 8.75C14.4141 8.75 14.2773 8.88672 14.2773 9.15039L14.2773 10.4883C14.2773 10.752 14.4141 10.8887 14.6387 10.8887L15.5371 10.8887C15.7617 10.8887 15.8984 10.752 15.8984 10.4883L15.8984 9.15039C15.8984 8.88672 15.7617 8.75 15.5371 8.75ZM17.4805 8.75C17.2461 8.75 17.1094 8.88672 17.1094 9.15039L17.1094 10.4883C17.1094 10.752 17.2461 10.8887 17.4805 10.8887L18.3789 10.8887C18.5938 10.8887 18.7305 10.752 18.7305 10.4883L18.7305 9.15039C18.7305 8.88672 18.5938 8.75 18.3789 8.75ZM20.3027 8.75C20.0781 8.75 19.9414 8.88672 19.9414 9.15039L19.9414 10.4883C19.9414 10.752 20.0781 10.8887 20.3027 10.8887L21.1914 10.8887C21.4258 10.8887 21.5527 10.752 21.5527 10.4883L21.5527 9.15039C21.5527 8.88672 21.4258 8.75 21.1914 8.75ZM23.125 8.75C22.9004 8.75 22.7832 8.88672 22.7832 9.15039L22.7832 10.4883C22.7832 10.752 22.9004 10.8887 23.125 10.8887L24.0332 10.8887C24.2578 10.8887 24.3848 10.752 24.3848 10.4883L24.3848 9.15039C24.3848 8.88672 24.2578 8.75 24.0332 8.75ZM25.9766 8.75C25.7422 8.75 25.6152 8.88672 25.6152 9.15039L25.6152 10.4883C25.6152 10.752 25.7422 10.8887 25.9766 10.8887L26.8555 10.8887C27.0898 10.8887 27.2266 10.752 27.2266 10.4883L27.2266 9.15039C27.2266 8.88672 27.0898 8.75 26.8555 8.75ZM11.8066 4.59961C11.582 4.59961 11.4453 4.73633 11.4453 5L11.4453 6.33789C11.4453 6.5918 11.582 6.73828 11.8066 6.73828L12.7051 6.73828C12.9297 6.73828 13.0566 6.5918 13.0566 6.33789L13.0566 5C13.0566 4.73633 12.9297 4.59961 12.7051 4.59961ZM14.6387 4.59961C14.4141 4.59961 14.2773 4.73633 14.2773 5L14.2773 6.33789C14.2773 6.5918 14.4141 6.73828 14.6387 6.73828L15.5371 6.73828C15.7617 6.73828 15.8984 6.5918 15.8984 6.33789L15.8984 5C15.8984 4.73633 15.7617 4.59961 15.5371 4.59961ZM17.4805 4.59961C17.2461 4.59961 17.1094 4.73633 17.1094 5L17.1094 6.33789C17.1094 6.5918 17.2461 6.73828 17.4805 6.73828L18.3789 6.73828C18.5938 6.73828 18.7305 6.5918 18.7305 6.33789L18.7305 5C18.7305 4.73633 18.5938 4.59961 18.3789 4.59961ZM20.3027 4.59961C20.0781 4.59961 19.9414 4.73633 19.9414 5L19.9414 6.33789C19.9414 6.5918 20.0781 6.73828 20.3027 6.73828L21.1914 6.73828C21.4258 6.73828 21.5527 6.5918 21.5527 6.33789L21.5527 5C21.5527 4.73633 21.4258 4.59961 21.1914 4.59961ZM23.125 4.59961C22.9004 4.59961 22.7832 4.73633 22.7832 5L22.7832 6.33789C22.7832 6.5918 22.9004 6.73828 23.125 6.73828L24.0332 6.73828C24.2578 6.73828 24.3848 6.5918 24.3848 6.33789L24.3848 5C24.3848 4.73633 24.2578 4.59961 24.0332 4.59961ZM25.9766 4.59961C25.7422 4.59961 25.6152 4.73633 25.6152 5L25.6152 6.33789C25.6152 6.5918 25.7422 6.73828 25.9766 6.73828L26.8555 6.73828C27.0898 6.73828 27.2266 6.5918 27.2266 6.33789L27.2266 5C27.2266 4.73633 27.0898 4.59961 26.8555 4.59961Z" fill="black" fill-opacity="0.85"/>
 </g>
</svg>
