<?xml version="1.0" ?><!-- Generator: Adobe Illustrator 25.0.0, SVG Export Plug-In . SVG Version: 6.00 Build 0)  --><svg xmlns="http://www.w3.org/2000/svg" xmlns:xlink="http://www.w3.org/1999/xlink" version="1.1" id="Layer_1" x="0px" y="0px" viewBox="0 0 512 512" style="enable-background:new 0 0 512 512;" xml:space="preserve">
<path d="M63.9,361.7h384.3c42.3,0,63.9-21.2,63.9-63.1V103.1c0-41.7-21.6-62.9-63.9-62.9H63.9C21.2,40.3,0,61.2,0,103.1v195.5  C0,340.5,21.2,361.7,63.9,361.7z M64.3,328.9c-20.3,0-31.5-11-31.5-32.1V105C32.7,83.8,43.9,73,64.3,73h383.2  c20.1,0,31.7,10.8,31.7,31.9v191.8c0,21.2-11.6,32.1-31.7,32.1H64.3z M82.6,153.6h18.7c5.7,0,9.2-3.5,9.2-9v-18.7  c0-5.7-3.5-9.2-9.2-9.2H82.6c-5.5,0-9,3.5-9,9.2v18.7C73.6,150.1,77.1,153.6,82.6,153.6z M148.1,153.6h18.7c5.5,0,9-3.5,9-9v-18.7  c0-5.7-3.5-9.2-9-9.2h-18.7c-5.7,0-9.2,3.5-9.2,9.2v18.7C138.9,150.1,142.4,153.6,148.1,153.6z M213.6,153.6h18.5  c5.7,0,9.2-3.5,9.2-9v-18.7c0-5.7-3.5-9.2-9.2-9.2h-18.5c-5.7,0-9.2,3.5-9.2,9.2v18.7C204.4,150.1,207.9,153.6,213.6,153.6z   M278.9,153.6h18.7c5.7,0,9.2-3.5,9.2-9v-18.7c0-5.7-3.5-9.2-9.2-9.2h-18.7c-5.5,0-9,3.5-9,9.2v18.7  C269.9,150.1,273.4,153.6,278.9,153.6z M344.4,153.6h18.7c5.5,0,9-3.5,9-9v-18.7c0-5.7-3.5-9.2-9-9.2h-18.7c-5.7,0-9.2,3.5-9.2,9.2  v18.7C335.2,150.1,338.7,153.6,344.4,153.6z M409.9,153.6h18.5c5.7,0,9.2-3.5,9.2-9v-18.7c0-5.7-3.5-9.2-9.2-9.2h-18.5  c-5.7,0-9.2,3.5-9.2,9.2v18.7C400.7,150.1,404.2,153.6,409.9,153.6z M82.6,219.1h18.7c5.7,0,9.2-3.5,9.2-9.2v-18.5  c0-5.7-3.5-9.2-9.2-9.2H82.6c-5.5,0-9,3.5-9,9.2v18.5C73.6,215.6,77.1,219.1,82.6,219.1z M148.1,219.1h18.7c5.5,0,9-3.5,9-9.2v-18.5  c0-5.7-3.5-9.2-9-9.2h-18.7c-5.7,0-9.2,3.5-9.2,9.2v18.5C138.9,215.6,142.4,219.1,148.1,219.1z M213.6,219.1h18.5  c5.7,0,9.2-3.5,9.2-9.2v-18.5c0-5.7-3.5-9.2-9.2-9.2h-18.5c-5.7,0-9.2,3.5-9.2,9.2v18.5C204.4,215.6,207.9,219.1,213.6,219.1z   M278.9,219.1h18.7c5.7,0,9.2-3.5,9.2-9.2v-18.5c0-5.7-3.5-9.2-9.2-9.2h-18.7c-5.5,0-9,3.5-9,9.2v18.5  C269.9,215.6,273.4,219.1,278.9,219.1z M344.4,219.1h18.7c5.5,0,9-3.5,9-9.2v-18.5c0-5.7-3.5-9.2-9-9.2h-18.7  c-5.7,0-9.2,3.5-9.2,9.2v18.5C335.2,215.6,338.7,219.1,344.4,219.1z M409.9,219.1h18.5c5.7,0,9.2-3.5,9.2-9.2v-18.5  c0-5.7-3.5-9.2-9.2-9.2h-18.5c-5.7,0-9.2,3.5-9.2,9.2v18.5C400.7,215.6,404.2,219.1,409.9,219.1z M82.6,284.6h18.7  c5.7,0,9.2-3.5,9.2-9.2v-18.7c0-5.5-3.5-9-9.2-9H82.6c-5.5,0-9,3.5-9,9v18.7C73.6,281.1,77.1,284.6,82.6,284.6z M150.1,284.6h210.9  c6.9,0,11-4.1,11-11.2v-14.6c0-6.9-4.1-11-11-11H150.1c-7.1,0-11.2,4.1-11.2,11v14.6C138.9,280.5,143,284.6,150.1,284.6z   M409.9,284.6h18.5c5.7,0,9.2-3.5,9.2-9.2v-18.7c0-5.5-3.5-9-9.2-9h-18.5c-5.7,0-9.2,3.5-9.2,9v18.7  C400.7,281.1,404.2,284.6,409.9,284.6z M255.9,471.7c7.9,0,18.1-4.3,26.2-7.1l105.8-38.9c7.9-2.8,11-10,11-14.6  c0-9.8-6.9-18.1-17.7-18.1c-5.1,0-12.4,2.8-17.1,4.7l-108,40.3l-108.2-40.3c-4.7-1.8-11.6-4.7-16.9-4.7c-10.2,0-17.7,7.9-17.7,18.1  c0,4.7,2.8,11.8,11,14.6l105.6,38.9C238.4,467.7,248.2,471.7,255.9,471.7z"/>
</svg>