<?xml version="1.0" encoding="UTF-8"?>
<!--Generator: Apple Native CoreSVG 326-->
<!DOCTYPE svg
PUBLIC "-//W3C//DTD SVG 1.1//EN"
       "http://www.w3.org/Graphics/SVG/1.1/DTD/svg11.dtd">
<svg version="1.1" xmlns="http://www.w3.org/2000/svg" xmlns:xlink="http://www.w3.org/1999/xlink" viewBox="0 0 31.8164 33.0176">
 <g>
  <rect height="33.0176" opacity="0" width="31.8164" x="0" y="0"/>
  <path d="M3.79883 26.3379L27.6562 26.3379C30.1758 26.3379 31.4551 25.0586 31.4551 22.5684L31.4551 10.4199C31.4551 7.92969 30.1758 6.65039 27.6562 6.65039L3.79883 6.65039C1.26953 6.65039 0 7.91992 0 10.4199L0 22.5684C0 25.0684 1.26953 26.3379 3.79883 26.3379ZM4.73633 13.4473C4.375 13.4473 4.16992 13.2324 4.16992 12.8809L4.16992 11.748C4.16992 11.3965 4.375 11.1816 4.73633 11.1816L5.85938 11.1816C6.2207 11.1816 6.43555 11.3965 6.43555 11.748L6.43555 12.8809C6.43555 13.2324 6.2207 13.4473 5.85938 13.4473ZM8.88672 13.4473C8.52539 13.4473 8.32031 13.2324 8.32031 12.8809L8.32031 11.748C8.32031 11.3965 8.52539 11.1816 8.88672 11.1816L10.0195 11.1816C10.3711 11.1816 10.5859 11.3965 10.5859 11.748L10.5859 12.8809C10.5859 13.2324 10.3711 13.4473 10.0195 13.4473ZM13.0371 13.4473C12.6953 13.4473 12.4805 13.2324 12.4805 12.8809L12.4805 11.748C12.4805 11.3965 12.6953 11.1816 13.0371 11.1816L14.1699 11.1816C14.5215 11.1816 14.7461 11.3965 14.7461 11.748L14.7461 12.8809C14.7461 13.2324 14.5215 13.4473 14.1699 13.4473ZM17.1973 13.4473C16.8457 13.4473 16.6309 13.2324 16.6309 12.8809L16.6309 11.748C16.6309 11.3965 16.8457 11.1816 17.1973 11.1816L18.3301 11.1816C18.6816 11.1816 18.8965 11.3965 18.8965 11.748L18.8965 12.8809C18.8965 13.2324 18.6816 13.4473 18.3301 13.4473ZM21.3574 13.4473C20.9961 13.4473 20.7812 13.2324 20.7812 12.8809L20.7812 11.748C20.7812 11.3965 20.9961 11.1816 21.3574 11.1816L22.4805 11.1816C22.8418 11.1816 23.0469 11.3965 23.0469 11.748L23.0469 12.8809C23.0469 13.2324 22.8418 13.4473 22.4805 13.4473ZM25.5078 13.4473C25.1465 13.4473 24.9316 13.2324 24.9316 12.8809L24.9316 11.748C24.9316 11.3965 25.1465 11.1816 25.5078 11.1816L26.6309 11.1816C26.9922 11.1816 27.1973 11.3965 27.1973 11.748L27.1973 12.8809C27.1973 13.2324 26.9922 13.4473 26.6309 13.4473ZM4.73633 17.6074C4.375 17.6074 4.16992 17.3828 4.16992 17.041L4.16992 15.8984C4.16992 15.5566 4.375 15.332 4.73633 15.332L5.85938 15.332C6.2207 15.332 6.43555 15.5566 6.43555 15.8984L6.43555 17.041C6.43555 17.3828 6.2207 17.6074 5.85938 17.6074ZM8.88672 17.6074C8.52539 17.6074 8.32031 17.3828 8.32031 17.041L8.32031 15.8984C8.32031 15.5566 8.52539 15.332 8.88672 15.332L10.0195 15.332C10.3711 15.332 10.5859 15.5566 10.5859 15.8984L10.5859 17.041C10.5859 17.3828 10.3711 17.6074 10.0195 17.6074ZM13.0371 17.6074C12.6953 17.6074 12.4805 17.3828 12.4805 17.041L12.4805 15.8984C12.4805 15.5566 12.6953 15.332 13.0371 15.332L14.1699 15.332C14.5215 15.332 14.7461 15.5566 14.7461 15.8984L14.7461 17.041C14.7461 17.3828 14.5215 17.6074 14.1699 17.6074ZM17.1973 17.6074C16.8457 17.6074 16.6309 17.3828 16.6309 17.041L16.6309 15.8984C16.6309 15.5566 16.8457 15.332 17.1973 15.332L18.3301 15.332C18.6816 15.332 18.8965 15.5566 18.8965 15.8984L18.8965 17.041C18.8965 17.3828 18.6816 17.6074 18.3301 17.6074ZM21.3574 17.6074C20.9961 17.6074 20.7812 17.3828 20.7812 17.041L20.7812 15.8984C20.7812 15.5566 20.9961 15.332 21.3574 15.332L22.4805 15.332C22.8418 15.332 23.0469 15.5566 23.0469 15.8984L23.0469 17.041C23.0469 17.3828 22.8418 17.6074 22.4805 17.6074ZM25.5078 17.6074C25.1465 17.6074 24.9316 17.3828 24.9316 17.041L24.9316 15.8984C24.9316 15.5566 25.1465 15.332 25.5078 15.332L26.6309 15.332C26.9922 15.332 27.1973 15.5566 27.1973 15.8984L27.1973 17.041C27.1973 17.3828 26.9922 17.6074 26.6309 17.6074ZM4.73633 21.7578C4.375 21.7578 4.16992 21.543 4.16992 21.1914L4.16992 20.0586C4.16992 19.707 4.375 19.4922 4.73633 19.4922L5.85938 19.4922C6.2207 19.4922 6.43555 19.707 6.43555 20.0586L6.43555 21.1914C6.43555 21.543 6.2207 21.7578 5.85938 21.7578ZM8.99414 21.7578C8.57422 21.7578 8.32031 21.5039 8.32031 21.084L8.32031 20.166C8.32031 19.7363 8.57422 19.4922 8.99414 19.4922L22.373 19.4922C22.8027 19.4922 23.0469 19.7363 23.0469 20.166L23.0469 21.084C23.0469 21.5039 22.8027 21.7578 22.373 21.7578ZM25.5078 21.7578C25.1465 21.7578 24.9316 21.543 24.9316 21.1914L24.9316 20.0586C24.9316 19.707 25.1465 19.4922 25.5078 19.4922L26.6309 19.4922C26.9922 19.4922 27.1973 19.707 27.1973 20.0586L27.1973 21.1914C27.1973 21.543 26.9922 21.7578 26.6309 21.7578Z" fill="black" fill-opacity="0.85"/>
  <path d="M15.7324 33.0176C16.1426 33.0176 16.6699 32.793 17.0996 32.6465L23.8574 30.0781C24.2773 29.9316 24.4336 29.5605 24.4336 29.3164C24.4336 28.8086 24.0723 28.3789 23.5059 28.3789C23.252 28.3789 22.8711 28.5254 22.627 28.6133L15.0977 31.4941L16.377 31.4941L8.83789 28.6133C8.59375 28.5254 8.23242 28.3789 7.95898 28.3789C7.43164 28.3789 7.04102 28.7891 7.04102 29.3164C7.04102 29.5605 7.1875 29.9316 7.60742 30.0781L14.375 32.6465C14.8145 32.8027 15.3223 33.0176 15.7324 33.0176Z" fill="black" fill-opacity="0.85"/>
 </g>
</svg>
