<?xml version="1.0" encoding="UTF-8"?>
<!--Generator: Apple Native CoreSVG 326-->
<!DOCTYPE svg
PUBLIC "-//W3C//DTD SVG 1.1//EN"
       "http://www.w3.org/Graphics/SVG/1.1/DTD/svg11.dtd">
<svg version="1.1" xmlns="http://www.w3.org/2000/svg" xmlns:xlink="http://www.w3.org/1999/xlink" viewBox="0 0 31.8164 19.7168">
 <g>
  <rect height="19.7168" opacity="0" width="31.8164" x="0" y="0"/>
  <path d="M31.4551 3.76953L31.4551 15.918C31.4551 18.4082 30.1758 19.6875 27.6562 19.6875L3.79883 19.6875C1.26953 19.6875 0 18.418 0 15.918L0 3.76953C0 1.26953 1.26953 0 3.79883 0L27.6562 0C30.1758 0 31.4551 1.2793 31.4551 3.76953ZM4.59961 12.9004C4.36523 12.9004 4.23828 13.0469 4.23828 13.3008L4.23828 14.6387C4.23828 14.9023 4.36523 15.0391 4.59961 15.0391L5.48828 15.0391C5.72266 15.0391 5.83984 14.9023 5.83984 14.6387L5.83984 13.3008C5.83984 13.0469 5.72266 12.9004 5.48828 12.9004ZM7.43164 12.9004C7.19727 12.9004 7.07031 13.0469 7.07031 13.3008L7.07031 14.6387C7.07031 14.9023 7.19727 15.0391 7.43164 15.0391L16.8262 15.0391C17.041 15.0391 17.1777 14.9023 17.1777 14.6387L17.1777 13.3008C17.1777 13.0469 17.041 12.9004 16.8262 12.9004ZM18.7598 12.9004C18.5254 12.9004 18.3984 13.0469 18.3984 13.3008L18.3984 14.6387C18.3984 14.9023 18.5254 15.0391 18.7598 15.0391L19.6484 15.0391C19.873 15.0391 20.0098 14.9023 20.0098 14.6387L20.0098 13.3008C20.0098 13.0469 19.873 12.9004 19.6484 12.9004ZM26.084 5.43945L22.168 9.18945C21.7383 9.60938 21.7383 10.0781 22.168 10.498L26.084 14.248C26.4941 14.6387 27.168 14.4727 27.168 13.8477L27.168 5.84961C27.168 5.22461 26.4941 5.04883 26.084 5.43945ZM4.59961 8.75C4.36523 8.75 4.23828 8.88672 4.23828 9.15039L4.23828 10.4883C4.23828 10.752 4.36523 10.8887 4.59961 10.8887L5.48828 10.8887C5.72266 10.8887 5.83984 10.752 5.83984 10.4883L5.83984 9.15039C5.83984 8.88672 5.72266 8.75 5.48828 8.75ZM7.43164 8.75C7.19727 8.75 7.07031 8.88672 7.07031 9.15039L7.07031 10.4883C7.07031 10.752 7.19727 10.8887 7.43164 10.8887L8.32031 10.8887C8.55469 10.8887 8.68164 10.752 8.68164 10.4883L8.68164 9.15039C8.68164 8.88672 8.55469 8.75 8.32031 8.75ZM10.2637 8.75C10.0391 8.75 9.90234 8.88672 9.90234 9.15039L9.90234 10.4883C9.90234 10.752 10.0391 10.8887 10.2637 10.8887L11.1621 10.8887C11.3867 10.8887 11.5137 10.752 11.5137 10.4883L11.5137 9.15039C11.5137 8.88672 11.3867 8.75 11.1621 8.75ZM13.0957 8.75C12.8613 8.75 12.7344 8.88672 12.7344 9.15039L12.7344 10.4883C12.7344 10.752 12.8613 10.8887 13.0957 10.8887L13.9844 10.8887C14.209 10.8887 14.3457 10.752 14.3457 10.4883L14.3457 9.15039C14.3457 8.88672 14.209 8.75 13.9844 8.75ZM15.9082 8.75C15.6934 8.75 15.5566 8.88672 15.5566 9.15039L15.5566 10.4883C15.5566 10.752 15.6934 10.8887 15.9082 10.8887L16.8262 10.8887C17.041 10.8887 17.1777 10.752 17.1777 10.4883L17.1777 9.15039C17.1777 8.88672 17.041 8.75 16.8262 8.75ZM18.7598 8.75C18.5254 8.75 18.3984 8.88672 18.3984 9.15039L18.3984 10.4883C18.3984 10.752 18.5254 10.8887 18.7598 10.8887L19.6484 10.8887C19.873 10.8887 20.0098 10.752 20.0098 10.4883L20.0098 9.15039C20.0098 8.88672 19.873 8.75 19.6484 8.75ZM4.59961 4.59961C4.36523 4.59961 4.23828 4.73633 4.23828 5L4.23828 6.33789C4.23828 6.5918 4.36523 6.73828 4.59961 6.73828L5.48828 6.73828C5.72266 6.73828 5.83984 6.5918 5.83984 6.33789L5.83984 5C5.83984 4.73633 5.72266 4.59961 5.48828 4.59961ZM7.43164 4.59961C7.19727 4.59961 7.07031 4.73633 7.07031 5L7.07031 6.33789C7.07031 6.5918 7.19727 6.73828 7.43164 6.73828L8.32031 6.73828C8.55469 6.73828 8.68164 6.5918 8.68164 6.33789L8.68164 5C8.68164 4.73633 8.55469 4.59961 8.32031 4.59961ZM10.2637 4.59961C10.0391 4.59961 9.90234 4.73633 9.90234 5L9.90234 6.33789C9.90234 6.5918 10.0391 6.73828 10.2637 6.73828L11.1621 6.73828C11.3867 6.73828 11.5137 6.5918 11.5137 6.33789L11.5137 5C11.5137 4.73633 11.3867 4.59961 11.1621 4.59961ZM13.0957 4.59961C12.8613 4.59961 12.7344 4.73633 12.7344 5L12.7344 6.33789C12.7344 6.5918 12.8613 6.73828 13.0957 6.73828L13.9844 6.73828C14.209 6.73828 14.3457 6.5918 14.3457 6.33789L14.3457 5C14.3457 4.73633 14.209 4.59961 13.9844 4.59961ZM15.9082 4.59961C15.6934 4.59961 15.5566 4.73633 15.5566 5L15.5566 6.33789C15.5566 6.5918 15.6934 6.73828 15.9082 6.73828L16.8262 6.73828C17.041 6.73828 17.1777 6.5918 17.1777 6.33789L17.1777 5C17.1777 4.73633 17.041 4.59961 16.8262 4.59961ZM18.7598 4.59961C18.5254 4.59961 18.3984 4.73633 18.3984 5L18.3984 6.33789C18.3984 6.5918 18.5254 6.73828 18.7598 6.73828L19.6484 6.73828C19.873 6.73828 20.0098 6.5918 20.0098 6.33789L20.0098 5C20.0098 4.73633 19.873 4.59961 19.6484 4.59961Z" fill="black" fill-opacity="0.85"/>
 </g>
</svg>
