<?xml version="1.0" ?><!-- Generator: Adobe Illustrator 25.0.0, SVG Export Plug-In . SVG Version: 6.00 Build 0)  --><svg xmlns="http://www.w3.org/2000/svg" xmlns:xlink="http://www.w3.org/1999/xlink" version="1.1" id="Layer_1" x="0px" y="0px" viewBox="0 0 512 512" style="enable-background:new 0 0 512 512;" xml:space="preserve">
<path d="M63.9,416.7h384.3c42.3,0,63.9-21.2,63.9-63.1V158.2c0-41.7-21.6-62.9-63.9-62.9H63.9c-42.7,0-63.9,21-63.9,62.9v195.5  C0,395.5,21.2,416.7,63.9,416.7z M64.3,383.9c-20.3,0-31.5-11-31.5-32.1V160c0-21.2,11.2-31.9,31.5-31.9h383.2  c20.1,0,31.7,10.8,31.7,31.9v191.8c0,21.2-11.6,32.1-31.7,32.1H64.3z M193.7,208.2h15.1c3.7,0,5.9-2.4,5.9-6.5v-22.8  c0-4.1-2.2-6.5-5.9-6.5h-15.1c-3.7,0-5.9,2.4-5.9,6.5v22.8C187.8,205.8,190,208.2,193.7,208.2z M238.4,208.2h14.8  c3.7,0,5.9-2.4,5.9-6.5v-22.8c0-4.1-2.2-6.5-5.9-6.5h-14.8c-3.7,0-6.1,2.4-6.1,6.5v22.8C232.3,205.8,234.7,208.2,238.4,208.2z   M283.2,208.2H298c3.5,0,5.9-2.4,5.9-6.5v-22.8c0-4.1-2.4-6.5-5.9-6.5h-14.8c-3.9,0-6.1,2.4-6.1,6.5v22.8  C277.1,205.8,279.3,208.2,283.2,208.2z M327.7,208.2h14.6c3.9,0,6.1-2.4,6.1-6.5v-22.8c0-4.1-2.2-6.5-6.1-6.5h-14.6  c-3.9,0-6.1,2.4-6.1,6.5v22.8C321.6,205.8,323.8,208.2,327.7,208.2z M372,208.2h15.3c3.5,0,5.9-2.4,5.9-6.5v-22.8  c0-4.1-2.4-6.5-5.9-6.5H372c-3.5,0-5.7,2.4-5.7,6.5v22.8C366.4,205.8,368.6,208.2,372,208.2z M417,208.2h14.6c3.9,0,6.1-2.4,6.1-6.5  v-22.8c0-4.1-2.2-6.5-6.1-6.5H417c-3.9,0-6.1,2.4-6.1,6.5v22.8C410.9,205.8,413.1,208.2,417,208.2z M152.4,244.6l-59.6-56.8  c-6.9-6.5-18.7-3.9-18.7,6.9V317c0,11,11.8,13.6,18.7,7.1l59.6-57C159.9,260.1,159.9,251.7,152.4,244.6z M193.7,273.5h15.1  c3.7,0,5.9-2.2,5.9-6.5v-22.6c0-4.3-2.2-6.5-5.9-6.5h-15.1c-3.7,0-5.9,2.2-5.9,6.5V267C187.8,271.3,190,273.5,193.7,273.5z   M238.4,273.5h14.8c3.7,0,5.9-2.2,5.9-6.5v-22.6c0-4.3-2.2-6.5-5.9-6.5h-14.8c-3.7,0-6.1,2.2-6.1,6.5V267  C232.3,271.3,234.7,273.5,238.4,273.5z M283.2,273.5H298c3.5,0,5.9-2.2,5.9-6.5v-22.6c0-4.3-2.4-6.5-5.9-6.5h-14.8  c-3.9,0-6.1,2.2-6.1,6.5V267C277.1,271.3,279.3,273.5,283.2,273.5z M327.7,273.5h14.6c3.9,0,6.1-2.2,6.1-6.5v-22.6  c0-4.3-2.2-6.5-6.1-6.5h-14.6c-3.9,0-6.1,2.2-6.1,6.5V267C321.6,271.3,323.8,273.5,327.7,273.5z M372,273.5h15.3  c3.5,0,5.9-2.2,5.9-6.5v-22.6c0-4.3-2.4-6.5-5.9-6.5H372c-3.5,0-5.7,2.2-5.7,6.5V267C366.4,271.3,368.6,273.5,372,273.5z M417,273.5  h14.6c3.9,0,6.1-2.2,6.1-6.5v-22.6c0-4.3-2.2-6.5-6.1-6.5H417c-3.9,0-6.1,2.2-6.1,6.5V267C410.9,271.3,413.1,273.5,417,273.5z   M193.7,339h15.1c3.7,0,5.9-2.4,5.9-6.5v-22.8c0-4.1-2.2-6.5-5.9-6.5h-15.1c-3.7,0-5.9,2.4-5.9,6.5v22.8  C187.8,336.6,190,339,193.7,339z M238.4,339h148.9c3.5,0,5.9-2.4,5.9-6.5v-22.8c0-4.1-2.4-6.5-5.9-6.5H238.4c-3.7,0-6.1,2.4-6.1,6.5  v22.8C232.3,336.6,234.7,339,238.4,339z M417,339h14.6c3.9,0,6.1-2.4,6.1-6.5v-22.8c0-4.1-2.2-6.5-6.1-6.5H417  c-3.9,0-6.1,2.4-6.1,6.5v22.8C410.9,336.6,413.1,339,417,339z"/>
</svg>