<?xml version="1.0" ?><!-- Generator: Adobe Illustrator 25.0.0, SVG Export Plug-In . SVG Version: 6.00 Build 0)  --><svg xmlns="http://www.w3.org/2000/svg" xmlns:xlink="http://www.w3.org/1999/xlink" version="1.1" id="Layer_1" x="0px" y="0px" viewBox="0 0 512 512" style="enable-background:new 0 0 512 512;" xml:space="preserve">
<path d="M162,381.5h300.2c33.1,0,49.9-16.5,49.9-49.3V179.6c0-32.6-16.8-49.1-49.9-49.1H162c-33.4,0-49.9,16.4-49.9,49.1v152.7  C112.1,365,128.6,381.5,162,381.5z M162.3,355.9c-15.7,0-24.6-8.6-24.6-25.1V181c0-16.5,8.9-24.9,24.6-24.9h299.4  c15.7,0,24.8,8.4,24.8,24.9v149.8c0,16.5-9.1,25.1-24.8,25.1H162.3z M49,330.2c11.4,15.9,31.1,1,21.8-12.2l-44.2-62.1L70.7,194  c9.4-13-10.3-28.1-21.8-12.2L3.7,244.7c-4.9,7-4.9,15.6,0,22.4L49,330.2z M176.7,219h14.5c4.4,0,7.2-2.7,7.2-7v-14.6  c0-4.4-2.7-7.2-7.2-7.2h-14.5c-4.4,0-7.2,2.7-7.2,7.2V212C169.6,216.3,172.3,219,176.7,219z M227.7,219h14.6c4.4,0,7.2-2.7,7.2-7  v-14.6c0-4.4-2.7-7.2-7.2-7.2h-14.6c-4.4,0-7.2,2.7-7.2,7.2V212C220.6,216.3,223.3,219,227.7,219z M278.9,219h14.5  c4.4,0,7.1-2.7,7.1-7v-14.6c0-4.4-2.7-7.2-7.1-7.2h-14.5c-4.4,0-7.2,2.7-7.2,7.2V212C271.8,216.3,274.5,219,278.9,219z M330.1,219  h14.5c4.4,0,7.1-2.7,7.1-7v-14.6c0-4.4-2.7-7.2-7.1-7.2h-14.5c-4.4,0-7.1,2.7-7.1,7.2V212C322.9,216.3,325.6,219,330.1,219z   M381.1,219h14.6c4.3,0,7.1-2.7,7.1-7v-14.6c0-4.4-2.9-7.2-7.1-7.2h-14.6c-4.4,0-7.1,2.7-7.1,7.2V212  C373.9,216.3,376.6,219,381.1,219z M432.2,219h14.5c4.4,0,7.1-2.7,7.1-7v-14.6c0-4.4-2.7-7.2-7.1-7.2h-14.5c-4.5,0-7.2,2.7-7.2,7.2  V212C425.1,216.3,427.8,219,432.2,219z M176.7,270.1h14.5c4.4,0,7.2-2.7,7.2-7.2v-14.5c0-4.4-2.7-7.2-7.2-7.2h-14.5  c-4.4,0-7.2,2.7-7.2,7.2V263C169.6,267.4,172.3,270.1,176.7,270.1z M227.7,270.1h14.6c4.4,0,7.2-2.7,7.2-7.2v-14.5  c0-4.4-2.7-7.2-7.2-7.2h-14.6c-4.4,0-7.2,2.7-7.2,7.2V263C220.6,267.4,223.3,270.1,227.7,270.1z M278.9,270.1h14.5  c4.4,0,7.1-2.7,7.1-7.2v-14.5c0-4.4-2.7-7.2-7.1-7.2h-14.5c-4.4,0-7.2,2.7-7.2,7.2V263C271.8,267.4,274.5,270.1,278.9,270.1z   M330.1,270.1h14.5c4.4,0,7.1-2.7,7.1-7.2v-14.5c0-4.4-2.7-7.2-7.1-7.2h-14.5c-4.4,0-7.1,2.7-7.1,7.2V263  C322.9,267.4,325.6,270.1,330.1,270.1z M381.1,270.1h14.6c4.3,0,7.1-2.7,7.1-7.2v-14.5c0-4.4-2.9-7.2-7.1-7.2h-14.6  c-4.4,0-7.1,2.7-7.1,7.2V263C373.9,267.4,376.6,270.1,381.1,270.1z M432.2,270.1h14.5c4.4,0,7.1-2.7,7.1-7.2v-14.5  c0-4.4-2.7-7.2-7.1-7.2h-14.5c-4.5,0-7.2,2.7-7.2,7.2V263C425.1,267.4,427.8,270.1,432.2,270.1z M176.7,321.3h14.5  c4.4,0,7.2-2.7,7.2-7.2v-14.6c0-4.3-2.7-7-7.2-7h-14.5c-4.4,0-7.2,2.7-7.2,7v14.6C169.6,318.6,172.3,321.3,176.7,321.3z   M229.3,321.3h164.8c5.4,0,8.7-3.2,8.7-8.7v-11.4c0-5.4-3.3-8.6-8.7-8.6H229.3c-5.6,0-8.7,3.2-8.7,8.6v11.4  C220.6,318.1,223.8,321.3,229.3,321.3z M432.2,321.3h14.5c4.4,0,7.1-2.7,7.1-7.2v-14.6c0-4.3-2.7-7-7.1-7h-14.5  c-4.5,0-7.2,2.7-7.2,7v14.6C425.1,318.6,427.8,321.3,432.2,321.3z"/>
</svg>