<?xml version="1.0" ?><!-- Generator: Adobe Illustrator 25.0.0, SVG Export Plug-In . SVG Version: 6.00 Build 0)  --><svg xmlns="http://www.w3.org/2000/svg" xmlns:xlink="http://www.w3.org/1999/xlink" version="1.1" id="Layer_1" x="0px" y="0px" viewBox="0 0 512 512" style="enable-background:new 0 0 512 512;" xml:space="preserve">
<path d="M87.3,512h337.3c58.4,0,87.3-28.9,87.3-86.2V86.2C512,28.9,483.1,0,424.7,0H87.3C29.2,0,0,28.6,0,86.2v339.6  C0,483.4,29.2,512,87.3,512z M145.5,258.4c0-8.3,6.1-14.2,13.9-14.2h18.1V139.6c0-12,7.5-18.9,18.9-18.9c11.1,0,18.4,7,18.4,18.9  v104.6h13.1l92.9-114.9c5-6.7,10-9.2,15.6-9.2c10,0,17.5,7.5,17.5,17.2c0,3.6-1.7,8.3-5,12.2l-77,94.6H346c8.3,0,13.9,5.8,13.9,14.2  c0,7.8-5.6,14.5-13.9,14.5h-74l77,95.4c3.1,4.2,5,8.9,5,12.5c0,9.7-8.1,17.2-18.1,17.2c-5.3,0-10.3-2.5-15.3-8.9l-92.3-116.2h-13.6  v106.2c0,11.7-7.5,18.9-18.4,18.9c-11.1,0-18.9-7.2-18.9-18.9V272.8h-18.1C151.6,272.8,145.5,266.2,145.5,258.4z"/>
</svg>