<?xml version="1.0" encoding="UTF-8"?>
<!--Generator: Apple Native CoreSVG 326-->
<!DOCTYPE svg
PUBLIC "-//W3C//DTD SVG 1.1//EN"
       "http://www.w3.org/Graphics/SVG/1.1/DTD/svg11.dtd">
<svg version="1.1" xmlns="http://www.w3.org/2000/svg" xmlns:xlink="http://www.w3.org/1999/xlink" viewBox="0 0 30.3809 24.9191">
 <g>
  <rect height="24.9191" opacity="0" width="30.3809" x="0" y="0"/>
  <path d="M30.0195 14.9547C30.0195 7.09334 23.9746 0.648023 16.2988 0.00349172C15.8984-0.0355708 15.5859 0.257398 15.5859 0.667554L15.5859 4.66169C15.5859 4.99373 15.8301 5.2574 16.1719 5.28669C20.9863 5.87263 24.7266 9.97419 24.7266 14.9547C24.7266 17.2203 23.9551 19.3004 22.5879 21.0191C22.4023 21.2535 22.4121 21.5465 22.6172 21.7515L25.5176 24.6519C25.8105 24.9351 26.2305 24.9351 26.4844 24.6226C28.6914 22.0054 30.0195 18.6265 30.0195 14.9547Z" fill="black" fill-opacity="0.85"/>
  <path d="M0 14.9547C0 18.6363 1.32812 22.025 3.54492 24.6422C3.78906 24.9351 4.19922 24.9351 4.49219 24.6519L7.39258 21.7515C7.59766 21.5465 7.60742 21.2535 7.42188 21.0191C6.05469 19.3004 5.2832 17.2203 5.2832 14.9547C5.2832 9.97419 9.0332 5.87263 13.8379 5.28669C14.1895 5.2574 14.4238 4.99373 14.4238 4.66169L14.4238 0.667554C14.4238 0.257398 14.1211-0.0355708 13.7207 0.00349172C6.03516 0.648023 0 7.09334 0 14.9547Z" fill="black" fill-opacity="0.85"/>
  <path d="M12.2266 20.8238C12.6172 20.8238 12.8613 20.5601 12.8613 20.1597L12.8613 15.4332L13.7012 15.4332L17.6758 20.5015C17.832 20.7066 17.998 20.8238 18.2422 20.8238C18.6621 20.8238 18.8477 20.5113 18.8477 20.2574C18.8477 20.0914 18.7793 19.9547 18.6621 19.7984L15.127 15.4332L18.75 15.4332C18.9648 15.4332 19.1406 15.2672 19.1406 15.0523C19.1406 14.8277 18.9648 14.6715 18.75 14.6715L15.1465 14.6715L18.6719 10.4039C18.7793 10.2574 18.8379 10.1109 18.8379 9.97419C18.8379 9.64216 18.5742 9.39802 18.2422 9.39802C18.0176 9.39802 17.832 9.55427 17.6953 9.72029L13.7109 14.6715L12.8613 14.6715L12.8613 10.0621C12.8613 9.65193 12.6172 9.39802 12.2266 9.39802C11.8164 9.39802 11.5625 9.65193 11.5625 10.0621L11.5625 14.6715L10.6641 14.6715C10.4395 14.6715 10.2832 14.8277 10.2832 15.0621C10.2832 15.2867 10.4395 15.4332 10.6641 15.4332L11.5625 15.4332L11.5625 20.1597C11.5625 20.5601 11.8164 20.8238 12.2266 20.8238Z" fill="black" fill-opacity="0.85"/>
 </g>
</svg>
