<?xml version="1.0" ?><!-- Generator: Adobe Illustrator 25.0.0, SVG Export Plug-In . SVG Version: 6.00 Build 0)  --><svg xmlns="http://www.w3.org/2000/svg" xmlns:xlink="http://www.w3.org/1999/xlink" version="1.1" id="Layer_1" x="0px" y="0px" viewBox="0 0 512 512" style="enable-background:new 0 0 512 512;" xml:space="preserve">
<path d="M256,512c140,0,256-116.2,256-256C512,116,395.8,0,255.7,0C116,0,0,116,0,256C0,395.8,116.2,512,256,512z M155.9,258.5  c0-7.5,5.5-12.8,12.3-12.8h16.6v-94.4c0-10.8,6.8-17.1,17.1-17.1c10,0,16.6,6.3,16.6,17.1v94.4h11.8L314,142.1c4.5-6,9-8.3,13.8-8.3  c9.3,0,16.1,6.8,16.1,15.6c0,3.3-1.8,7.5-4.5,11l-69.5,85.3h67c7.5,0,12.5,5.3,12.5,12.8c0,7-5,13.1-12.5,13.1h-66.8l69.5,86.1  c2.8,3.8,4.3,8,4.3,11.3c0,8.8-7,15.6-16.1,15.6c-4.8,0-9.3-2.3-13.8-8l-83.3-104.9h-12.3v95.9c0,10.5-6.8,17.1-16.6,17.1  c-10,0-17.1-6.5-17.1-17.1v-95.9h-16.6C161.4,271.6,155.9,265.5,155.9,258.5z"/>
</svg>