<?xml version="1.0" ?><!-- Generator: Adobe Illustrator 25.0.0, SVG Export Plug-In . SVG Version: 6.00 Build 0)  --><svg xmlns="http://www.w3.org/2000/svg" xmlns:xlink="http://www.w3.org/1999/xlink" version="1.1" id="Layer_1" x="0px" y="0px" viewBox="0 0 512 512" style="enable-background:new 0 0 512 512;" xml:space="preserve">
<path d="M256,512c140,0,256-116.2,256-256C512,116,395.8,0,255.7,0C116,0,0,116,0,256C0,395.8,116.2,512,256,512z M256,469.3  c-118.5,0-213.1-94.9-213.1-213.3S137.3,42.7,255.7,42.7S469.1,137.5,469.3,256S374.5,469.3,256,469.3z M158.9,258.8  c0,6.8,5.3,12.3,12,12.3H187v93.1c0,10.3,6.8,16.6,16.3,16.6s16.1-6.3,16.1-16.6v-93.1h11.8L312.2,373c4.3,5.5,8.5,7.8,13.3,7.8  c8.5,0,15.3-6.5,15.3-14.8c0-3.5-1.3-7.3-4-11l-67.5-83.8h64.8c7.3,0,12.3-5.5,12.3-12.3c0-7.3-5-12.5-12.3-12.5h-65l67.5-82.6  c2.8-3.5,4.3-7.5,4.3-10.8c0-8.3-6.5-14.8-15.3-14.8c-4.8,0-9,2-13.3,7.5l-81.3,100.6h-11.5v-91.6c0-10-6.3-16.3-16.1-16.3  c-9.8,0-16.3,6.3-16.3,16.3v91.6h-16.1C164.1,246.2,158.9,251.5,158.9,258.8z"/>
</svg>