<?xml version="1.0" encoding="UTF-8"?>
<!--Generator: Apple Native CoreSVG 326-->
<!DOCTYPE svg
PUBLIC "-//W3C//DTD SVG 1.1//EN"
       "http://www.w3.org/Graphics/SVG/1.1/DTD/svg11.dtd">
<svg version="1.1" xmlns="http://www.w3.org/2000/svg" xmlns:xlink="http://www.w3.org/1999/xlink" viewBox="0 0 25.8008 25.459">
 <g>
  <rect height="25.459" opacity="0" width="25.8008" x="0" y="0"/>
  <path d="M12.7148 25.4395C19.7363 25.4395 25.4395 19.7461 25.4395 12.7246C25.4395 5.70312 19.7363 0 12.7148 0C5.69336 0 0 5.70312 0 12.7246C0 19.7461 5.69336 25.4395 12.7148 25.4395ZM12.7148 23.623C6.68945 23.623 1.81641 18.75 1.81641 12.7246C1.81641 6.69922 6.68945 1.82617 12.7148 1.82617C18.7402 1.82617 23.6133 6.69922 23.6133 12.7246C23.6133 18.75 18.7402 23.623 12.7148 23.623Z" fill="black" fill-opacity="0.85"/>
  <path d="M9.93164 18.4375C10.3223 18.4375 10.5762 18.1738 10.5762 17.7637L10.5762 13.0469L11.416 13.0469L15.3809 18.1055C15.5371 18.3203 15.7031 18.4375 15.957 18.4375C16.3672 18.4375 16.5527 18.1152 16.5527 17.8711C16.5527 17.6953 16.4941 17.5586 16.377 17.4023L12.8418 13.0469L16.4648 13.0469C16.6797 13.0469 16.8457 12.8711 16.8457 12.6562C16.8457 12.4414 16.6797 12.2754 16.4648 12.2754L12.8613 12.2754L16.377 8.00781C16.4844 7.87109 16.543 7.71484 16.543 7.58789C16.543 7.24609 16.2793 7.00195 15.957 7.00195C15.7324 7.00195 15.5371 7.1582 15.4004 7.33398L11.4258 12.2754L10.5762 12.2754L10.5762 7.66602C10.5762 7.25586 10.3223 7.00195 9.93164 7.00195C9.52148 7.00195 9.26758 7.25586 9.26758 7.66602L9.26758 12.2754L8.36914 12.2754C8.1543 12.2754 7.99805 12.4316 7.99805 12.666C7.99805 12.8906 8.1543 13.0469 8.36914 13.0469L9.26758 13.0469L9.26758 17.7637C9.26758 18.1738 9.52148 18.4375 9.93164 18.4375Z" fill="black" fill-opacity="0.85"/>
 </g>
</svg>
