<?xml version="1.0" encoding="UTF-8"?>
<!--Generator: Apple Native CoreSVG 326-->
<!DOCTYPE svg
PUBLIC "-//W3C//DTD SVG 1.1//EN"
       "http://www.w3.org/Graphics/SVG/1.1/DTD/svg11.dtd">
<svg version="1.1" xmlns="http://www.w3.org/2000/svg" xmlns:xlink="http://www.w3.org/1999/xlink" viewBox="0 0 23.3203 22.959">
 <g>
  <rect height="22.959" opacity="0" width="23.3203" x="0" y="0"/>
  <path d="M22.959 3.76953L22.959 19.1992C22.959 21.6797 21.6797 22.959 19.1504 22.959L3.79883 22.959C1.2793 22.959 0 21.6992 0 19.1992L0 3.76953C0 1.26953 1.2793 0 3.79883 0L19.1504 0C21.6797 0 22.959 1.2793 22.959 3.76953ZM14.2383 5.94727L10.1758 11.0156L9.30664 11.0156L9.30664 6.28906C9.30664 5.86914 9.04297 5.60547 8.64258 5.60547C8.21289 5.60547 7.95898 5.86914 7.95898 6.28906L7.95898 11.0156L7.04102 11.0156C6.80664 11.0156 6.64062 11.1719 6.64062 11.416C6.64062 11.6406 6.80664 11.8066 7.04102 11.8066L7.95898 11.8066L7.95898 16.6406C7.95898 17.0605 8.21289 17.334 8.64258 17.334C9.04297 17.334 9.30664 17.0605 9.30664 16.6406L9.30664 11.8066L10.166 11.8066L14.2188 16.9922C14.3848 17.207 14.5508 17.334 14.8145 17.334C15.2344 17.334 15.4297 17.002 15.4297 16.748C15.4297 16.5723 15.3711 16.4258 15.2441 16.2695L11.6309 11.8066L15.332 11.8066C15.5566 11.8066 15.7324 11.6211 15.7324 11.4062C15.7324 11.1816 15.5566 11.0156 15.332 11.0156L11.6504 11.0156L15.2441 6.64062C15.3613 6.50391 15.4199 6.34766 15.4199 6.21094C15.4199 5.85938 15.1465 5.60547 14.8145 5.60547C14.5801 5.60547 14.3848 5.77148 14.2383 5.94727Z" fill="black" fill-opacity="0.85"/>
 </g>
</svg>
