<?xml version="1.0" encoding="UTF-8"?>
<!--Generator: Apple Native CoreSVG 326-->
<!DOCTYPE svg
PUBLIC "-//W3C//DTD SVG 1.1//EN"
       "http://www.w3.org/Graphics/SVG/1.1/DTD/svg11.dtd">
<svg version="1.1" xmlns="http://www.w3.org/2000/svg" xmlns:xlink="http://www.w3.org/1999/xlink" viewBox="0 0 35.0195 19.5605">
 <g>
  <rect height="19.5605" opacity="0" width="35.0195" x="0" y="0"/>
  <path d="M0.986328 19.5605C1.60156 19.5605 1.98242 19.209 1.98242 18.5254L1.98242 13.0664L3.61328 10.3809L8.13477 18.7988C8.38867 19.2773 8.62305 19.5117 9.12109 19.5117C9.64844 19.5117 10.0391 19.1211 10.0391 18.6133C10.0391 18.3398 9.89258 18.0566 9.76562 17.8223L4.86328 8.7793L9.16016 1.71875C9.29688 1.50391 9.4043 1.28906 9.4043 1.00586C9.4043 0.439453 8.98438 0.078125 8.50586 0.078125C8.03711 0.078125 7.79297 0.341797 7.55859 0.732422L2.01172 10.0879L1.98242 10.0879L1.97266 1.04492C1.97266 0.400391 1.60156 0.0292969 0.957031 0.0292969C0.458984 0.0292969 0 0.322266 0 1.04492L0 18.5254C0 19.209 0.419922 19.5605 0.986328 19.5605ZM13.5156 19.502C14.0625 19.502 14.502 19.1895 14.502 18.4668L14.502 12.1973L16.9629 12.1973C20.1074 12.1973 21.7871 9.46289 21.7871 6.2207C21.7871 3.125 20.2051 0.263672 17.041 0.263672L13.4961 0.263672C12.8809 0.263672 12.5391 0.693359 12.5391 1.29883L12.5391 18.4668C12.5391 19.1211 12.8809 19.502 13.5156 19.502ZM14.502 10.4688L14.502 2.00195L16.582 2.00195C18.8477 2.00195 19.8242 3.83789 19.8242 6.2207C19.8242 8.55469 18.8867 10.4688 16.582 10.4688ZM25.6543 19.5605C26.3379 19.5605 26.6309 19.0723 26.6309 18.457L26.6309 10.4492L32.6758 10.4492L32.6758 18.457C32.6758 19.1113 33.0078 19.5605 33.6523 19.5605C34.2969 19.5605 34.6582 19.1113 34.6582 18.457L34.6582 1.12305C34.6582 0.46875 34.3066 0.0292969 33.6523 0.0292969C33.0078 0.0292969 32.6758 0.46875 32.6758 1.12305L32.6758 8.70117L26.6309 8.70117L26.6309 1.12305C26.6309 0.507812 26.3379 0.0292969 25.6543 0.0292969C25.0098 0.0292969 24.668 0.46875 24.668 1.12305L24.668 18.457C24.668 19.1113 25.0098 19.5605 25.6543 19.5605Z" fill="black" fill-opacity="0.85"/>
 </g>
</svg>
