<?xml version="1.0" ?><!-- Generator: Adobe Illustrator 25.0.0, SVG Export Plug-In . SVG Version: 6.00 Build 0)  --><svg xmlns="http://www.w3.org/2000/svg" xmlns:xlink="http://www.w3.org/1999/xlink" version="1.1" id="Layer_1" x="0px" y="0px" viewBox="0 0 512 512" style="enable-background:new 0 0 512 512;" xml:space="preserve">
<path d="M256,512c140,0,256-116.2,256-256C512,116,395.8,0,255.7,0C116,0,0,116,0,256C0,395.8,116.2,512,256,512z M256,469.3  c-118.5,0-213.1-94.9-213.1-213.3S137.3,42.7,255.7,42.7S469.1,137.5,469.3,256S374.5,469.3,256,469.3z M209.1,368.2h115.7  c9.5,0,16.6-6.3,16.6-16.3c0-10.5-7-16.6-16.6-16.6h-95.4V159.1c0-14.1-7-22.6-20.3-22.6c-12.8,0-19.8,9-19.8,22.6v186.5  C189.2,359.2,196.3,368.2,209.1,368.2z"/>
</svg>