<?xml version="1.0" ?><!-- Generator: Adobe Illustrator 25.0.0, SVG Export Plug-In . SVG Version: 6.00 Build 0)  --><svg xmlns="http://www.w3.org/2000/svg" xmlns:xlink="http://www.w3.org/1999/xlink" version="1.1" id="Layer_1" x="0px" y="0px" viewBox="0 0 512 512" style="enable-background:new 0 0 512 512;" xml:space="preserve">
<path d="M279.5,23.5c-25.7,0-50,3.9-73.2,11.6c-23.1,7.8-44.4,18.7-63.8,33c-19.4,14.2-36.2,31-50.5,50.3  c-14.3,19.3-25.3,40.4-33,63.4c5.3-0.7,10.4-0.4,15.4,0.9c5,1.3,9.5,3.6,13.4,6.8c6.8-19.9,16.5-38.2,28.9-54.8  c12.5-16.6,27.1-31.1,43.9-43.3S195.9,69.6,216,63c20.1-6.7,41.3-10,63.5-10c28,0,54.2,5.3,78.8,15.8c24.6,10.5,46.1,25.1,64.8,43.7  c18.6,18.6,33.2,40.2,43.7,64.7c10.5,24.5,15.8,50.8,15.8,78.9c0,28-5.3,54.2-15.8,78.8c-10.5,24.6-25.1,46.1-43.7,64.8  c-18.6,18.6-40.2,33.2-64.8,43.7c-24.6,10.5-50.8,15.8-78.8,15.8c-22.1,0-43.2-3.3-63.3-10c-20.1-6.7-38.5-16.1-55.3-28.3  c-16.8-12.2-31.4-26.6-43.9-43.2c-12.5-16.6-22.2-34.8-29.1-54.6c-3.8,3.2-8.2,5.4-13.2,6.8c-5,1.3-10.1,1.6-15.4,0.9  c7.8,23,18.8,44.1,33.1,63.3s31,35.9,50.4,50.1c19.4,14.2,40.6,25.1,63.8,32.9s47.5,11.6,73,11.6c25.7,0,50.1-3.9,73.4-11.7  c23.3-7.8,44.6-18.8,63.9-33.1c19.4-14.2,36.2-31,50.4-50.4c14.2-19.4,25.3-40.7,33.1-63.9c7.8-23.3,11.7-47.7,11.7-73.4  s-3.9-50.1-11.7-73.4c-7.8-23.3-18.8-44.6-33.1-63.9c-14.2-19.4-31-36.2-50.4-50.4c-19.4-14.2-40.7-25.3-63.9-33.1  C329.6,27.4,305.1,23.5,279.5,23.5z" class="hierarchical-0:secondary SFSymbolsPreview4D4D4D" style="fill: #4D4D4D;"/>
<path d="M279.5,416.9c22.2,0,43.1-4.2,62.5-12.5s36.5-19.8,51.3-34.6c14.8-14.8,26.4-31.9,34.7-51.3c8.4-19.4,12.6-40.2,12.6-62.5  c0-22.2-4.2-43.1-12.6-62.6c-8.4-19.5-19.9-36.6-34.7-51.3c-14.8-14.7-31.9-26.3-51.3-34.6C322.6,99.1,301.7,95,279.5,95  c-22.2,0-43.1,4.2-62.5,12.6c-19.4,8.4-36.5,19.9-51.3,34.6s-26.4,31.8-34.7,51.3c-8.4,19.5-12.6,40.3-12.6,62.6  c0,22.2,4.2,43.1,12.6,62.5c8.4,19.4,19.9,36.5,34.7,51.3c14.8,14.8,31.9,26.3,51.3,34.6C236.4,412.7,257.3,416.9,279.5,416.9z   M279.5,387.4c-18.2,0-35.2-3.4-51.1-10.2c-15.9-6.8-29.8-16.2-41.9-28.2c-12-12-21.5-26-28.3-42c-6.8-15.9-10.3-32.9-10.3-51  c0-18.2,3.4-35.2,10.3-51.1C165,189,174.5,175,186.5,163c12-12,26-21.5,41.9-28.3c15.9-6.8,32.9-10.3,51.1-10.3s35.2,3.4,51.1,10.3  c15.9,6.8,29.8,16.3,41.9,28.3c12,12,21.5,26,28.3,41.9c6.8,15.9,10.3,32.9,10.3,51.1c0,18.1-3.4,35.1-10.3,51  c-6.8,15.9-16.3,29.9-28.3,42c-12,12-26,21.4-41.9,28.2C314.7,384,297.7,387.4,279.5,387.4z" class="hierarchical-0:secondary hierarchical-1:primary SFSymbolsPreview212121" style="fill: #212121;"/>
<path d="M247.2,333.6h80.1c3.4,0,6.1-1,8.4-3c2.2-2,3.3-4.8,3.3-8.3c0-3.6-1.1-6.4-3.3-8.4c-2.2-2-5-3-8.4-3h-66.1V188.7  c0-4.8-1.2-8.6-3.6-11.4c-2.4-2.8-5.8-4.3-10.4-4.3c-4.5,0-7.9,1.5-10.3,4.4c-2.3,2.9-3.5,6.7-3.5,11.3v129.5  c0,4.6,1.2,8.4,3.5,11.2C239.3,332.2,242.7,333.6,247.2,333.6z M54.1,209.8L5,246.5c-3.4,2.4-5.1,5.6-5,9.6c0.1,4,1.7,7.2,5,9.6  l49.1,36.6C59,306,64,307,69,305.2c5-1.8,7.5-5.9,7.5-12.4v-73.5c0-6.2-2.5-10.3-7.4-12.3C64.1,205.1,59.1,206,54.1,209.8z" class="hierarchical-1:primary SFSymbolsPreview212121" style="fill: #212121;"/>
</svg>