<?xml version="1.0" ?><!-- Generator: Adobe Illustrator 25.0.0, SVG Export Plug-In . SVG Version: 6.00 Build 0)  --><svg xmlns="http://www.w3.org/2000/svg" xmlns:xlink="http://www.w3.org/1999/xlink" version="1.1" id="Layer_1" x="0px" y="0px" viewBox="0 0 512 512" style="enable-background:new 0 0 512 512;" xml:space="preserve">
<path d="M232.5,23.5c-25.7,0-50.1,3.9-73.4,11.7c-23.3,7.8-44.6,18.8-63.9,33.1c-19.4,14.2-36.2,31-50.4,50.4  c-14.2,19.4-25.3,40.7-33.1,63.9C3.9,205.9,0,230.3,0,256s3.9,50.1,11.7,73.4c7.8,23.3,18.8,44.6,33.1,63.9s31,36.2,50.4,50.4  c19.4,14.2,40.7,25.3,63.9,33.1c23.3,7.8,47.7,11.7,73.4,11.7c25.5,0,49.9-3.9,73-11.6c23.1-7.8,44.4-18.7,63.8-32.9  c19.4-14.2,36.2-30.9,50.4-50.1c14.2-19.2,25.3-40.3,33.1-63.3c-5.3,0.7-10.4,0.4-15.4-0.9s-9.4-3.6-13.2-6.8  c-7,19.8-16.7,38-29.1,54.6c-12.5,16.6-27.1,31-43.9,43.2c-16.8,12.2-35.2,21.7-55.3,28.3c-20.1,6.7-41.2,10-63.3,10  c-28,0-54.2-5.3-78.8-15.8c-24.6-10.5-46.1-25.1-64.8-43.7c-18.6-18.6-33.2-40.2-43.7-64.8C34.8,310.2,29.5,284,29.5,256  c0-28.1,5.3-54.4,15.8-78.9c10.5-24.5,25.1-46,43.7-64.7c18.6-18.6,40.2-33.2,64.8-43.7C178.3,58.2,204.5,53,232.5,53  c22.2,0,43.4,3.3,63.5,10c20.1,6.7,38.5,16.1,55.3,28.4c16.8,12.3,31.4,26.7,43.9,43.3c12.5,16.6,22.1,34.9,28.9,54.8  c3.9-3.2,8.4-5.4,13.4-6.8c5-1.3,10.1-1.6,15.4-0.9c-7.7-23-18.7-44.1-33-63.4c-14.3-19.3-31.1-36.1-50.5-50.3  c-19.4-14.2-40.6-25.2-63.8-33C282.6,27.4,258.2,23.5,232.5,23.5z" class="hierarchical-0:secondary SFSymbolsPreview4D4D4D" style="fill: #4D4D4D;"/>
<path d="M232.5,416.9c22.2,0,43.1-4.2,62.5-12.5c19.4-8.3,36.5-19.8,51.3-34.6c14.8-14.8,26.4-31.9,34.7-51.3  c8.4-19.4,12.6-40.2,12.6-62.5c0-22.2-4.2-43.1-12.6-62.6c-8.4-19.5-19.9-36.6-34.7-51.3c-14.8-14.7-31.9-26.3-51.3-34.6  C275.6,99.1,254.7,95,232.5,95c-22.2,0-43.1,4.2-62.5,12.6c-19.4,8.4-36.5,19.9-51.3,34.6c-14.8,14.7-26.4,31.8-34.7,51.3  c-8.4,19.5-12.6,40.3-12.6,62.6c0,22.2,4.2,43.1,12.6,62.5c8.4,19.4,19.9,36.5,34.7,51.3c14.8,14.8,31.9,26.3,51.3,34.6  C189.4,412.7,210.3,416.9,232.5,416.9z M232.5,387.4c-18.2,0-35.2-3.4-51.1-10.2c-15.9-6.8-29.8-16.2-41.9-28.2  c-12-12-21.5-26-28.3-42c-6.8-15.9-10.3-32.9-10.3-51c0-18.2,3.4-35.2,10.3-51.1c6.8-15.9,16.3-29.8,28.3-41.9  c12-12,26-21.5,41.9-28.3c15.9-6.8,32.9-10.3,51.1-10.3s35.2,3.4,51.1,10.3c15.9,6.8,29.8,16.3,41.9,28.3c12,12,21.5,26,28.3,41.9  c6.8,15.9,10.3,32.9,10.3,51.1c0,18.1-3.4,35.1-10.3,51c-6.8,15.9-16.3,29.9-28.3,42c-12,12-26,21.4-41.9,28.2  C267.7,384,250.7,387.4,232.5,387.4z M200.2,333.6h80.1c3.4,0,6.1-1,8.4-3c2.2-2,3.3-4.8,3.3-8.3c0-3.6-1.1-6.4-3.3-8.4  c-2.2-2-5-3-8.4-3h-66.1V188.7c0-4.8-1.2-8.6-3.6-11.4c-2.4-2.8-5.8-4.3-10.4-4.3c-4.5,0-7.9,1.5-10.3,4.4  c-2.3,2.9-3.5,6.7-3.5,11.3v129.5c0,4.6,1.2,8.4,3.5,11.2C192.3,332.2,195.7,333.6,200.2,333.6z M457.9,209.8  c-5-3.8-10-4.7-14.9-2.7c-4.9,2-7.4,6-7.4,12.3v73.5c0,6.5,2.5,10.6,7.5,12.4c5,1.8,10,0.8,14.8-2.8l49.1-36.6c3.3-2.4,5-5.6,5-9.6  c0.1-4-1.6-7.2-5-9.6L457.9,209.8z" class="hierarchical-1:primary SFSymbolsPreview212121" style="fill: #212121;"/>
</svg>