<?xml version="1.0" ?><!-- Generator: Adobe Illustrator 25.0.0, SVG Export Plug-In . SVG Version: 6.00 Build 0)  --><svg xmlns="http://www.w3.org/2000/svg" xmlns:xlink="http://www.w3.org/1999/xlink" version="1.1" id="Layer_1" x="0px" y="0px" viewBox="0 0 512 512" style="enable-background:new 0 0 512 512;" xml:space="preserve">
<path d="M199.2,27.5l44.9,60.4c6.1,8.3,17.6,8.3,23.7,0L313,27.5c9-11.9,4.1-27.5-11.9-27.5h-90.4C195.4,0,189.7,15.1,199.2,27.5z   M256,409.6c144.1,0,230.6-64.9,230.6-145.4c0-80.3-86.6-145.2-230.9-145.2C111.9,119,25.4,184,25.4,264.2  C25.4,344.7,111.9,409.6,256,409.6z M225.1,337.3c-10.4,0-17.4-7.7-17.4-18.9V202.2c0-11.3,7.2-18.7,17.4-18.7  c10.6,0,17.4,7.2,17.4,18.7v104.8h54.3c9,0,15.3,6.1,15.3,15.1c0,8.8-6.3,15.1-15.3,15.1H225.1z M256,512c54.8,0,87.2-25.7,87.2-69  v-11.3c-27.3,5.4-56.4,8.6-87.2,8.6c-30.9,0-60-3.2-87-8.6V443C169,486.3,201.4,512,256,512z"/>
</svg>