<?xml version="1.0" encoding="UTF-8"?>
<!--Generator: Apple Native CoreSVG 326-->
<!DOCTYPE svg
PUBLIC "-//W3C//DTD SVG 1.1//EN"
       "http://www.w3.org/Graphics/SVG/1.1/DTD/svg11.dtd">
<svg version="1.1" xmlns="http://www.w3.org/2000/svg" xmlns:xlink="http://www.w3.org/1999/xlink" viewBox="0 0 28.584 36.6968">
 <g>
  <rect height="36.6968" opacity="0" width="28.584" x="0" y="0"/>
  <path d="M28.2227 18.3435C28.2227 26.1267 21.8945 32.4548 14.1016 32.4548C6.30859 32.4548 0 26.1267 0 18.3435C0 12.1556 3.98755 6.88121 9.54428 4.99154C9.42723 5.60365 9.55209 6.215 9.8669 6.70718C5.10652 8.42253 1.72852 12.9795 1.72852 18.3435C1.72852 25.1892 7.24609 30.7263 14.1016 30.7263C20.957 30.7263 26.4941 25.199 26.4941 18.3435C26.4941 12.9689 23.1004 8.4142 18.3308 6.70323C18.6443 6.21171 18.7692 5.60091 18.6513 4.98701C24.2181 6.87186 28.2227 12.1442 28.2227 18.3435Z" fill="black" fill-opacity="0.85"/>
  <path d="M11.8848 6.2146L16.3184 6.2146C17.0996 6.2146 17.3828 5.42359 16.9141 4.79859L14.7363 1.88843C14.4141 1.44898 13.7988 1.44898 13.4668 1.88843L11.2793 4.80835C10.8301 5.41382 11.084 6.2146 11.8848 6.2146Z" fill="black" fill-opacity="0.85"/>
  <path d="M14.1016 28.2947C19.6094 28.2947 24.0625 23.8318 24.0625 18.3435C24.0625 12.8357 19.6094 8.4021 14.1016 8.4021C8.61328 8.4021 4.16016 12.8357 4.16016 18.3435C4.16016 23.8318 8.61328 28.2947 14.1016 28.2947ZM12.1191 23.2849C11.6016 23.2849 11.2891 22.9041 11.2891 22.3572L11.2891 14.1931C11.2891 13.6462 11.5918 13.2556 12.1191 13.2556C12.6465 13.2556 12.998 13.6365 12.998 14.1931L12.998 21.8396L16.9336 21.8396C17.334 21.8396 17.6758 22.1423 17.6758 22.5623C17.6758 22.9919 17.334 23.2849 16.9336 23.2849Z" fill="black" fill-opacity="0.85"/>
 </g>
</svg>
