<?xml version="1.0" ?><!-- Generator: Adobe Illustrator 25.0.0, SVG Export Plug-In . SVG Version: 6.00 Build 0)  --><svg xmlns="http://www.w3.org/2000/svg" xmlns:xlink="http://www.w3.org/1999/xlink" version="1.1" id="Layer_1" x="0px" y="0px" viewBox="0 0 512 512" style="enable-background:new 0 0 512 512;" xml:space="preserve">
<path d="M255.9,0c-25.7,0-50.1,3.9-73.3,11.7c-23.2,7.8-44.5,18.8-64,33.1C99.2,59,82.4,75.8,68.2,95.2  c-14.2,19.4-25.3,40.7-33.1,64c-7.8,23.3-11.7,47.7-11.7,73.4s3.9,50.1,11.7,73.2c7.8,23.2,18.8,44.4,33,63.8S99,405.7,118.3,420  c19.3,14.3,40.4,25.3,63.4,33c-0.7-5.3-0.4-10.4,0.9-15.4c1.3-5,3.6-9.5,6.8-13.4c-19.8-6.8-38-16.5-54.7-29  c-16.7-12.5-31.1-27.1-43.3-43.9c-12.2-16.8-21.7-35.2-28.4-55.3c-6.7-20.1-10.1-41.3-10.1-63.5c0-28.1,5.3-54.4,15.8-78.9  c10.5-24.5,25.1-46.1,43.7-64.7c18.6-18.6,40.2-33.2,64.8-43.7c24.6-10.5,50.8-15.8,78.8-15.8c28.1,0,54.4,5.3,78.9,15.8  c24.5,10.5,46.1,25.1,64.7,43.7c18.6,18.6,33.2,40.2,43.8,64.7c10.6,24.5,15.9,50.8,15.9,78.9c0,22.1-3.4,43.2-10.1,63.3  c-6.7,20.1-16.2,38.5-28.4,55.3c-12.2,16.8-26.6,31.4-43.2,43.9c-16.6,12.5-34.8,22.2-54.7,29.1c3.2,3.8,5.4,8.2,6.8,13.2  c1.3,5,1.6,10.1,0.9,15.4c23-7.8,44.1-18.8,63.4-33.1c19.3-14.2,36-31,50.1-50.4c14.1-19.4,25.1-40.6,32.9-63.8  c7.8-23.2,11.7-47.5,11.7-73c0-25.7-3.9-50.1-11.8-73.4c-7.9-23.3-18.9-44.6-33.2-64c-14.2-19.4-31-36.2-50.4-50.4  c-19.4-14.2-40.7-25.3-63.9-33.1S281.7,0,255.9,0z" class="hierarchical-0:secondary SFSymbolsPreview4D4D4D" style="fill: #4D4D4D;"/>
<path d="M255.9,71.5c-22.2,0-43.1,4.2-62.5,12.6c-19.4,8.4-36.5,19.9-51.3,34.6s-26.3,31.8-34.6,51.3C99.2,189.4,95,210.3,95,232.5  s4.2,43.1,12.5,62.5c8.3,19.4,19.9,36.5,34.6,51.3c14.8,14.8,31.9,26.3,51.3,34.6c19.4,8.3,40.3,12.5,62.5,12.5  c22.2,0,43.1-4.2,62.6-12.5c19.5-8.3,36.6-19.9,51.3-34.6c14.7-14.8,26.3-31.9,34.6-51.3c8.4-19.4,12.6-40.3,12.6-62.5  c0-22.2-4.2-43.1-12.6-62.6c-8.4-19.5-19.9-36.6-34.6-51.3C355.1,103.9,338,92.4,318.5,84C299,75.7,278.1,71.5,255.9,71.5z   M255.9,101c18.2,0,35.2,3.4,51.1,10.3c15.9,6.8,29.8,16.3,41.9,28.3s21.5,26,28.3,41.9c6.8,15.9,10.3,32.9,10.3,51.1  c0,18.1-3.4,35.1-10.3,51c-6.8,15.9-16.3,29.9-28.3,42c-12,12-26,21.4-41.9,28.2c-15.9,6.8-32.9,10.2-51.1,10.2  c-18.1,0-35.1-3.4-50.9-10.2c-15.9-6.8-29.9-16.2-42-28.2c-12.1-12-21.5-26-28.3-42c-6.8-15.9-10.2-33-10.2-51  c0-18.2,3.4-35.2,10.2-51.1c6.8-15.9,16.2-29.8,28.3-41.9c12.1-12,26.1-21.5,42-28.3C220.8,104.4,237.8,101,255.9,101z M223.6,310.2  h80.1c3.4,0,6.2-1,8.4-3c2.2-2,3.3-4.8,3.3-8.3c0-3.6-1.1-6.4-3.3-8.4c-2.2-2-5-3-8.4-3h-66.2V165.2c0-4.8-1.2-8.6-3.6-11.4  c-2.4-2.8-5.8-4.3-10.4-4.3c-4.5,0-8,1.5-10.3,4.4c-2.3,2.9-3.5,6.7-3.5,11.3v129.5c0,4.6,1.2,8.4,3.5,11.2  C215.7,308.8,219.1,310.2,223.6,310.2z M209.9,457.9l36.5,49.1c2.6,3.3,5.8,4.9,9.7,4.9c3.9,0,7.1-1.6,9.7-4.9l36.7-49.1  c3.7-4.9,4.6-9.8,2.8-14.8c-1.8-5-6-7.5-12.6-7.5h-73.3c-6.4,0-10.5,2.5-12.4,7.4C205.2,448,206.1,452.9,209.9,457.9z" class="hierarchical-1:primary SFSymbolsPreview212121" style="fill: #212121;"/>
</svg>