<?xml version="1.0" ?><!-- Generator: Adobe Illustrator 25.0.0, SVG Export Plug-In . SVG Version: 6.00 Build 0)  --><svg xmlns="http://www.w3.org/2000/svg" xmlns:xlink="http://www.w3.org/1999/xlink" version="1.1" id="Layer_1" x="0px" y="0px" viewBox="0 0 512 512" style="enable-background:new 0 0 512 512;" xml:space="preserve">
<path d="M182.1,450.9h148c126,0,181.9-57.8,181.9-176.6V126.7c0-43.6-22.2-65.6-66.5-65.6h-379C22.2,61.1,0,82.9,0,126.7v147.6  C0,393.1,55.9,450.9,182.1,450.9z M182.1,416.4c-102.9,0-148-45.1-148-140v-148c0-22,11.6-33.2,32.8-33.2h378.2  c21,0,32.8,11.2,32.8,33.2v148c0,94.9-45.1,140-148,140H182.1z M164.1,351h97.4c8.3,0,14.2-5.3,14.2-14c0-8.7-5.9-13.8-14.2-13.8  H181V174.6c0-11.9-5.9-19.1-16.9-19.1c-11,0-16.7,7.6-16.7,19.1v157.3C147.4,343.1,153.1,351,164.1,351z M346,355.8  c10.8,0,16.9-7.2,16.9-19.1v-162c0-12.3-6.6-19.1-17.8-19.1c-7.8,0-13.3,2.1-22.4,8.3l-38.1,25.8c-4.7,3.4-6.6,6.6-6.6,11.9  c0,6.6,5.3,12.7,12.1,12.7c3.2,0,5.5-0.4,10.2-3.8l27.5-18h1.5v144.2C329.3,348.6,335.4,355.8,346,355.8z"/>
</svg>