<?xml version="1.0" encoding="UTF-8"?>
<!--Generator: Apple Native CoreSVG 326-->
<!DOCTYPE svg
PUBLIC "-//W3C//DTD SVG 1.1//EN"
       "http://www.w3.org/Graphics/SVG/1.1/DTD/svg11.dtd">
<svg version="1.1" xmlns="http://www.w3.org/2000/svg" xmlns:xlink="http://www.w3.org/1999/xlink" viewBox="0 0 22.4707 26.9434">
 <g>
  <rect height="26.9434" opacity="0" width="22.4707" x="0" y="0"/>
  <path d="M22.1094 3.65234L22.0996 23.3008C22.0996 25.5859 20.7324 26.9434 18.4277 26.9434L7.35352 26.9434C2.87109 26.9434 0 24.0625 0 19.5898L0 13.1934C0 11.5137 0.517578 10.166 1.55273 9.20898L9.51172 1.89453C11.0352 0.488281 12.6465 0 14.5898 0L18.457 0C20.6641 0 22.1094 1.43555 22.1094 3.65234ZM5.46875 11.4941L5.46875 20.4004C5.46875 20.9375 5.77148 21.2695 6.2793 21.2695L10.0488 21.2695C10.4297 21.2695 10.7422 20.9473 10.7422 20.5664C10.7422 20.1953 10.4297 19.873 10.0488 19.873L7.11914 19.873L7.11914 11.4941C7.11914 11.0352 6.73828 10.6641 6.29883 10.6641C5.83984 10.6641 5.46875 11.0352 5.46875 11.4941ZM11.8164 13.291C11.8164 13.6914 12.0605 14.0039 12.5098 14.0039C12.8809 14.0039 13.1152 13.8281 13.2227 13.457C13.457 12.5098 13.8184 11.8848 14.6289 11.8848C15.4883 11.8848 15.9375 12.6855 15.9375 13.623C15.9375 14.6387 15.3027 15.6348 14.5898 16.582L12.2168 19.6875C12.002 19.9609 11.7969 20.2441 11.7969 20.5859C11.7969 20.9766 12.0605 21.2598 12.5781 21.2598L17.041 21.2598C17.4414 21.2598 17.6953 20.9863 17.6953 20.5859C17.6953 20.166 17.4316 19.9121 17.041 19.9121L13.8379 19.9121L13.8379 19.8145L15.8496 17.1875C17.0801 15.6152 17.4902 14.668 17.4902 13.5449C17.4902 11.8359 16.377 10.5566 14.6289 10.5566C13.0176 10.5566 11.8164 11.9336 11.8164 13.291Z" fill="black" fill-opacity="0.85"/>
 </g>
</svg>
