<?xml version="1.0" encoding="UTF-8"?>
<!--Generator: Apple Native CoreSVG 326-->
<!DOCTYPE svg
PUBLIC "-//W3C//DTD SVG 1.1//EN"
       "http://www.w3.org/Graphics/SVG/1.1/DTD/svg11.dtd">
<svg version="1.1" xmlns="http://www.w3.org/2000/svg" xmlns:xlink="http://www.w3.org/1999/xlink" viewBox="0 0 29.6387 22.2949">
 <g>
  <rect height="22.2949" opacity="0" width="29.6387" x="0" y="0"/>
  <path d="M29.2773 9.23828L29.2773 13.0371C29.2773 19.6094 26.8164 22.2754 19.6777 22.2754L9.59961 22.2754C2.46094 22.2754 0 19.6094 0 13.0371L0 9.23828C0 2.66602 2.46094 0 9.59961 0L19.6777 0C26.8164 0 29.2773 2.66602 29.2773 9.23828ZM17.3047 6.98242L14.8438 12.168C14.6582 12.5977 14.5898 12.8809 14.5898 13.2324C14.5898 13.7695 14.9609 14.1406 15.5176 14.1406L18.457 14.1406L18.457 15.5957C18.457 16.1719 18.8574 16.3867 19.2188 16.3867C19.6289 16.3867 19.9707 16.1133 19.9707 15.5957L19.9707 14.1406L20.5078 14.1406C20.9375 14.1406 21.1426 13.8672 21.1426 13.4863C21.1426 13.125 20.9375 12.8516 20.5078 12.8516L19.9707 12.8516L19.9707 7.08008C19.9707 6.29883 19.4531 5.88867 18.7598 5.88867C17.9785 5.88867 17.6172 6.28906 17.3047 6.98242ZM8.60352 6.69922L8.60352 15.4102C8.60352 15.9277 8.89648 16.25 9.38477 16.25L13.0664 16.25C13.4277 16.25 13.7402 15.9375 13.7402 15.5664C13.7402 15.2051 13.4277 14.8926 13.0664 14.8926L10.1953 14.8926L10.1953 6.69922C10.1953 6.26953 9.83398 5.89844 9.4043 5.89844C8.96484 5.89844 8.60352 6.26953 8.60352 6.69922ZM18.4863 12.8809L15.9668 12.8809L15.9668 12.8125L18.4375 7.33398L18.4863 7.33398Z" fill="black" fill-opacity="0.85"/>
 </g>
</svg>
