<?xml version="1.0" encoding="UTF-8"?>
<!--Generator: Apple Native CoreSVG 326-->
<!DOCTYPE svg
PUBLIC "-//W3C//DTD SVG 1.1//EN"
       "http://www.w3.org/Graphics/SVG/1.1/DTD/svg11.dtd">
<svg version="1.1" xmlns="http://www.w3.org/2000/svg" xmlns:xlink="http://www.w3.org/1999/xlink" viewBox="0 0 25.8008 25.459">
 <g>
  <rect height="25.459" opacity="0" width="25.8008" x="0" y="0"/>
  <path d="M12.7148 25.4395C19.7363 25.4395 25.4395 19.7461 25.4395 12.7246C25.4395 5.70312 19.7363 0 12.7148 0C5.69336 0 0 5.70312 0 12.7246C0 19.7461 5.69336 25.4395 12.7148 25.4395ZM12.7148 23.623C6.68945 23.623 1.81641 18.75 1.81641 12.7246C1.81641 6.69922 6.68945 1.82617 12.7148 1.82617C18.7402 1.82617 23.6133 6.69922 23.6133 12.7246C23.6133 18.75 18.7402 23.623 12.7148 23.623Z" fill="black" fill-opacity="0.85"/>
  <path d="M12.7051 9.66797C13.8867 9.66797 15.0195 9.44336 15.7812 9.10156C16.2109 8.89648 16.3477 8.63281 16.3477 8.25195C16.3477 7.34375 15.8496 6.54297 14.9805 6.05469L14.9512 5.78125C14.9121 5.52734 14.9902 5.38086 15.2832 5.2832L15.8594 5.03906C16.4648 4.86328 16.1426 3.92578 15.5273 4.15039L14.8828 4.44336C14.3262 4.6582 13.9844 5.03906 14.0332 5.58594L14.043 5.66406C13.6328 5.54688 13.1836 5.47852 12.7051 5.47852C12.2266 5.47852 11.7773 5.54688 11.377 5.66406L11.3867 5.58594C11.4258 5.04883 11.0938 4.66797 10.5273 4.44336L9.88281 4.15039C9.26758 3.92578 8.94531 4.86328 9.55078 5.03906L10.1367 5.2832C10.4297 5.38086 10.5078 5.52734 10.459 5.78125L10.4297 6.05469C9.56055 6.54297 9.0625 7.34375 9.0625 8.25195C9.0625 8.63281 9.20898 8.89648 9.63867 9.10156C10.3906 9.44336 11.5332 9.66797 12.7051 9.66797ZM12.7051 11.5039C12.9199 11.5039 13.0957 11.6699 13.0957 11.8848L13.0957 19.873C13.0957 20.2148 13.3105 20.3809 13.7793 20.3418C15.2539 20.1758 16.4844 19.4824 17.3438 18.4277L18.3691 19.2676C18.6133 19.4629 18.9258 19.4824 19.1113 19.2383C19.3066 19.0137 19.248 18.7109 19.0039 18.5059L17.9004 17.5879C18.418 16.6797 18.7109 15.5664 18.7305 14.3164L19.9902 14.3164C20.3125 14.3164 20.5176 14.1211 20.5176 13.8281C20.5176 13.5352 20.3223 13.3398 20 13.3398L18.6719 13.3398C18.5645 12.3633 18.2617 11.377 17.8418 10.6152L18.9648 9.67773C19.1992 9.48242 19.2578 9.16992 19.0723 8.93555C18.877 8.69141 18.584 8.71094 18.3301 8.91602L17.2266 9.83398C16.8848 9.54102 16.6211 9.52148 16.4062 9.61914C15.3125 10.1465 14.0039 10.4102 12.7051 10.4102C11.416 10.4102 10.0977 10.1465 9.01367 9.61914C8.78906 9.51172 8.53516 9.53125 8.19336 9.83398L7.08984 8.91602C6.83594 8.71094 6.5332 8.70117 6.33789 8.93555C6.15234 9.16992 6.2207 9.49219 6.45508 9.67773L7.57812 10.6152C7.14844 11.377 6.85547 12.3633 6.74805 13.3398L5.41992 13.3398C5.09766 13.3398 4.90234 13.5352 4.90234 13.8281C4.90234 14.1211 5.09766 14.3164 5.41992 14.3164L6.67969 14.3164C6.69922 15.5664 6.99219 16.6797 7.50977 17.5879L6.40625 18.5059C6.17188 18.7109 6.10352 19.0137 6.29883 19.2383C6.48438 19.4824 6.79688 19.4629 7.04102 19.2676L8.06641 18.4277C8.93555 19.4824 10.1562 20.1758 11.6406 20.3418C12.0996 20.3809 12.3145 20.2148 12.3145 19.873L12.3145 11.8848C12.3145 11.6699 12.4902 11.5039 12.7051 11.5039ZM8.70117 12.9199C8.70117 12.3438 9.18945 11.875 9.75586 11.875C10.332 11.875 10.8105 12.3535 10.8105 12.9199C10.8105 13.4863 10.332 13.9746 9.75586 13.9746C9.18945 13.9746 8.70117 13.4863 8.70117 12.9199ZM8.74023 16.4551C8.74023 15.8008 9.27734 15.2539 9.93164 15.2539C10.5762 15.2539 11.1328 15.8008 11.1328 16.4551C11.1328 17.1094 10.5762 17.6562 9.93164 17.6562C9.27734 17.6562 8.74023 17.1094 8.74023 16.4551ZM16.7188 12.9199C16.7188 13.4863 16.2305 13.9746 15.6641 13.9746C15.0879 13.9746 14.6094 13.4863 14.6094 12.9199C14.6094 12.3535 15.0879 11.875 15.6641 11.875C16.2305 11.875 16.7188 12.3438 16.7188 12.9199ZM16.6797 16.4551C16.6797 17.1094 16.1426 17.6562 15.4883 17.6562C14.8438 17.6562 14.2871 17.1094 14.2871 16.4551C14.2871 15.8008 14.8438 15.2539 15.4883 15.2539C16.1426 15.2539 16.6797 15.8008 16.6797 16.4551Z" fill="black" fill-opacity="0.85"/>
 </g>
</svg>
