<?xml version="1.0" encoding="UTF-8"?>
<!--Generator: Apple Native CoreSVG 326-->
<!DOCTYPE svg
PUBLIC "-//W3C//DTD SVG 1.1//EN"
       "http://www.w3.org/Graphics/SVG/1.1/DTD/svg11.dtd">
<svg version="1.1" xmlns="http://www.w3.org/2000/svg" xmlns:xlink="http://www.w3.org/1999/xlink" viewBox="0 0 28.4766 29.4629">
 <g>
  <rect height="29.4629" opacity="0" width="28.4766" x="0" y="0"/>
  <path d="M14.0527 29.4629C20.5957 29.4629 24.9512 24.9609 24.9512 18.1836C24.9512 14.4629 23.291 10.625 20.6934 8.36914C20.6738 4.95117 18.0078 2.8125 14.0527 2.8125C10.0977 2.8125 7.44141 4.96094 7.42188 8.37891C4.80469 10.6641 3.16406 14.4238 3.16406 18.1836C3.16406 24.9609 7.51953 29.4629 14.0527 29.4629ZM14.0527 11.1719C16.3184 11.1719 18.5742 10.7227 20.0195 10.0879C21.6699 11.7578 23.2617 14.7168 23.2617 18.1836C23.2617 23.9355 19.5801 27.7734 14.0527 27.7734C8.53516 27.7734 4.85352 23.9355 4.85352 18.1836C4.85352 14.7363 6.38672 11.8066 8.0957 10.0879C9.53125 10.7227 11.7969 11.1719 14.0527 11.1719ZM13.3008 28.2422L14.7363 28.2422L14.7363 13.5645C14.7363 13.1738 14.4141 12.8516 14.0137 12.8516C13.623 12.8516 13.3008 13.1738 13.3008 13.5645ZM10 15.6543C10.8789 15.6543 11.582 14.9316 11.582 14.0625C11.582 13.1934 10.8887 12.4707 10 12.4707C9.14062 12.4707 8.42773 13.1934 8.42773 14.0625C8.42773 14.9219 9.14062 15.6543 10 15.6543ZM8.49609 20.6836C9.51172 20.6836 10.3418 19.8535 10.3418 18.8281C10.3418 17.8125 9.51172 16.9824 8.49609 16.9824C7.4707 16.9824 6.64062 17.8125 6.64062 18.8281C6.64062 19.8535 7.4707 20.6836 8.49609 20.6836ZM10 24.9707C10.8008 24.9707 11.4453 24.3262 11.4453 23.5352C11.4453 22.7344 10.8008 22.0996 10 22.0996C9.20898 22.0996 8.56445 22.7344 8.56445 23.5352C8.56445 24.3262 9.20898 24.9707 10 24.9707ZM18.1152 15.6543C18.9746 15.6543 19.6875 14.9219 19.6875 14.0625C19.6875 13.1934 18.9746 12.4707 18.1152 12.4707C17.2266 12.4707 16.5234 13.1934 16.5234 14.0625C16.5234 14.9316 17.2363 15.6543 18.1152 15.6543ZM19.6191 20.6836C20.6348 20.6836 21.4648 19.8535 21.4648 18.8281C21.4648 17.8125 20.6348 16.9824 19.6191 16.9824C18.6035 16.9824 17.7734 17.8125 17.7734 18.8281C17.7734 19.8535 18.6035 20.6836 19.6191 20.6836ZM18.1152 24.9707C18.9062 24.9707 19.5508 24.3262 19.5508 23.5352C19.5508 22.7344 18.9062 22.0996 18.1152 22.0996C17.3145 22.0996 16.6699 22.7344 16.6699 23.5352C16.6699 24.3262 17.3145 24.9707 18.1152 24.9707ZM8.41797 1.82617L9.43359 2.25586C9.9707 2.46094 10.1758 2.75391 10.0781 3.21289L9.93164 3.92578L11.5137 3.90625L11.6211 3.21289C11.7676 2.08984 11.2402 1.2793 10.0977 0.830078L8.97461 0.332031C7.91016-0.0488281 7.38281 1.50391 8.41797 1.82617ZM19.6973 1.82617C20.7324 1.50391 20.2051-0.0488281 19.1406 0.332031L18.0176 0.830078C16.875 1.2793 16.3477 2.08984 16.4941 3.21289L16.6016 3.90625L18.1836 3.92578L18.0371 3.21289C17.9395 2.75391 18.1445 2.46094 18.6816 2.25586ZM6.23047 10.5957L3.86719 8.62305C3.45703 8.28125 2.92969 8.25195 2.59766 8.65234C2.27539 9.05273 2.39258 9.57031 2.79297 9.90234L5.19531 11.9043ZM3.94531 16.6113L0.898438 16.6113C0.351562 16.6113 0 16.9434 0 17.4512C0 17.959 0.351562 18.291 0.898438 18.291L3.94531 18.2812ZM5.06836 23.9746L2.71484 25.9277C2.31445 26.2598 2.19727 26.7773 2.53906 27.1777C2.86133 27.5879 3.38867 27.5488 3.79883 27.207L6.12305 25.2637ZM21.875 10.6152L22.9004 11.9238L25.3223 9.90234C25.7227 9.57031 25.8398 9.05273 25.5176 8.65234C25.1855 8.25195 24.6582 8.28125 24.248 8.62305ZM24.1699 16.6113L24.1699 18.2812L27.2168 18.291C27.7637 18.291 28.1152 17.959 28.1152 17.4512C28.1152 16.9434 27.7637 16.6113 27.2168 16.6113ZM23.0273 23.9551L21.9922 25.2539L24.3164 27.207C24.7266 27.5488 25.2539 27.5879 25.5762 27.1777C25.918 26.7773 25.8008 26.2598 25.4004 25.9277Z" fill="black" fill-opacity="0.85"/>
 </g>
</svg>
