<?xml version="1.0" encoding="UTF-8"?>
<!--Generator: Apple Native CoreSVG 326-->
<!DOCTYPE svg
PUBLIC "-//W3C//DTD SVG 1.1//EN"
       "http://www.w3.org/Graphics/SVG/1.1/DTD/svg11.dtd">
<svg version="1.1" xmlns="http://www.w3.org/2000/svg" xmlns:xlink="http://www.w3.org/1999/xlink" viewBox="0 0 30.9863 33.484">
 <g>
  <rect height="33.484" opacity="0" width="30.9863" x="0" y="0"/>
  <path d="M7.91315 13.9336C6.87123 15.6024 6.11328 17.7703 6.11328 20.1941C6.11328 25.6791 9.4611 29.4236 14.5605 29.7509L14.5605 20.5686L15.9961 22.0015L15.9961 29.754C18.2306 29.6308 20.1286 28.85 21.5564 27.5515L22.7837 28.7764C20.9152 30.5035 18.3495 31.4734 15.3125 31.4734C11.6972 31.4734 8.75278 30.099 6.84687 27.7205L5.04883 29.2176C4.63867 29.5594 4.12109 29.5984 3.79883 29.1883C3.45703 28.7879 3.57422 28.2703 3.97461 27.9383L5.91543 26.3276C4.96139 24.6501 4.43911 22.607 4.42789 20.2943L2.1582 20.3016C1.61133 20.3016 1.25977 19.9695 1.25977 19.4617C1.25977 18.9539 1.61133 18.6219 2.14844 18.6219L4.52146 18.6219C4.72859 16.8603 5.28383 15.1451 6.11652 13.6327L4.05273 11.9129C3.65234 11.5809 3.52539 11.0633 3.85742 10.6629C3.9959 10.4959 4.16835 10.4037 4.35156 10.3786ZM12.7051 25.5457C12.7051 26.3367 12.0605 26.9812 11.2598 26.9812C10.4688 26.9812 9.82422 26.3367 9.82422 25.5457C9.82422 24.7449 10.4688 24.1102 11.2598 24.1102C12.0605 24.1102 12.7051 24.7449 12.7051 25.5457ZM20.4721 26.4691C20.2089 26.7822 19.8146 26.9812 19.375 26.9812C18.5742 26.9812 17.9297 26.3367 17.9297 25.5457C17.9297 25.1004 18.129 24.7064 18.4441 24.4449ZM20.957 3.83672L19.9414 4.2664C19.4043 4.47148 19.1992 4.76445 19.2969 5.22343L19.4247 5.84535C21.0074 6.7894 21.9416 8.36154 21.9531 10.3797C22.5638 10.91 23.1227 11.5278 23.6181 12.2135L25.5078 10.6336C25.918 10.2918 26.4453 10.2625 26.7773 10.6629C27.0996 11.0633 26.9824 11.5809 26.582 11.9129L24.5164 13.637C25.3449 15.1529 25.9016 16.8738 26.111 18.6219L28.4766 18.6219C29.0234 18.6219 29.375 18.9539 29.375 19.4617C29.375 19.9695 29.0234 20.3016 28.4766 20.3016L26.2069 20.2943C26.1992 22.056 25.8929 23.6604 25.3219 25.064L23.9835 23.7276C24.3385 22.6636 24.5215 21.4764 24.5215 20.1941C24.5215 16.7273 22.9297 13.7684 21.2793 12.0984C19.834 12.7332 17.5781 13.1824 15.3125 13.1824C14.6355 13.1824 13.9576 13.142 13.304 13.064L8.93597 8.7025C9.30915 7.48123 10.0985 6.507 11.2101 5.84522L11.3379 5.22343C11.4355 4.76445 11.2305 4.47148 10.6934 4.2664L9.67773 3.83672C8.64258 3.51445 9.16992 1.96172 10.2344 2.34257L11.3574 2.84062C12.4702 3.27813 12.9902 4.05836 12.8884 5.13711C13.6195 4.92906 14.4339 4.82304 15.3125 4.82304C16.1942 4.82304 17.0118 4.92933 17.7458 5.13798C17.6346 4.05878 18.1547 3.27824 19.2773 2.84062L20.4004 2.34257C21.4648 1.96172 21.9922 3.51445 20.957 3.83672ZM11.6016 20.8387C11.6016 21.8641 10.7715 22.6941 9.75586 22.6941C8.73047 22.6941 7.90039 21.8641 7.90039 20.8387C7.90039 19.823 8.73047 18.993 9.75586 18.993C10.7715 18.993 11.6016 19.823 11.6016 20.8387ZM22.7246 20.8387C22.7246 21.2948 22.5604 21.7122 22.288 22.0346L19.6848 19.4353C20.0065 19.1594 20.4241 18.993 20.8789 18.993C21.8945 18.993 22.7246 19.823 22.7246 20.8387ZM11.6106 17.6241C11.4982 17.6512 11.3806 17.6648 11.2598 17.6648C10.4004 17.6648 9.6875 16.9324 9.6875 16.073C9.6875 15.9592 9.69973 15.8479 9.72355 15.7406ZM20.9473 16.073C20.9473 16.9324 20.2344 17.6648 19.375 17.6648C18.4961 17.6648 17.7832 16.9422 17.7832 16.073C17.7832 15.2039 18.4863 14.4812 19.375 14.4812C20.2344 14.4812 20.9473 15.2039 20.9473 16.073ZM15.9961 15.575L15.9961 15.7521L15.1217 14.879C15.1706 14.8678 15.2214 14.8621 15.2734 14.8621C15.6738 14.8621 15.9961 15.1844 15.9961 15.575Z" fill="black" fill-opacity="0.85"/>
  <path d="M1.62109 5.70195L27.8223 31.8641C28.1445 32.1863 28.6816 32.1863 28.9941 31.8641C29.3164 31.532 29.3262 31.0047 28.9941 30.6824L2.80273 4.53007C2.48047 4.20781 1.95312 4.19804 1.62109 4.53007C1.29883 4.84257 1.29883 5.38945 1.62109 5.70195Z" fill="black" fill-opacity="0.85"/>
 </g>
</svg>
