<?xml version="1.0" encoding="UTF-8"?>
<!--Generator: Apple Native CoreSVG 326-->
<!DOCTYPE svg
PUBLIC "-//W3C//DTD SVG 1.1//EN"
       "http://www.w3.org/Graphics/SVG/1.1/DTD/svg11.dtd">
<svg version="1.1" xmlns="http://www.w3.org/2000/svg" xmlns:xlink="http://www.w3.org/1999/xlink" viewBox="0 0 19.2663 29.5996">
 <g>
  <rect height="29.5996" opacity="0" width="19.2663" x="0" y="0"/>
  <path d="M9.45249 14.4238C12.1869 14.4238 14.8919 14.2676 17.0501 13.9355C18.7298 13.6816 19.3353 12.4316 18.6126 10.791L14.8724 2.34375C14.1791 0.771484 12.9974 0 11.2591 0L7.65562 0C5.91734 0 4.7357 0.771484 4.04234 2.34375L0.302103 10.791C-0.420554 12.4316 0.17515 13.6816 1.85484 13.9355C4.02281 14.2676 6.72788 14.4238 9.45249 14.4238ZM9.45249 12.832C7.2064 12.832 4.95054 12.7246 2.44077 12.4219C1.68882 12.334 1.54234 11.8652 1.8646 11.1426L5.46812 3.00781C5.88804 2.05078 6.62046 1.58203 7.65562 1.58203L11.2591 1.58203C12.2943 1.58203 13.0267 2.05078 13.4466 3.00781L17.0404 11.1426C17.3626 11.8652 17.2162 12.334 16.4642 12.4219C13.9544 12.7246 11.7084 12.832 9.45249 12.832ZM8.55406 16.2793L10.3412 16.2793L10.3412 13.9258L8.55406 13.9258ZM7.43101 29.5801L11.4642 29.5801C14.5209 29.5801 16.3275 27.9883 16.3275 25.293C16.3275 23.5156 15.7709 20.918 14.8236 18.3203C14.2962 16.8457 13.0853 15.9766 11.4154 15.9766L7.4896 15.9766C5.80992 15.9766 4.60874 16.8457 4.07163 18.3203C3.12437 20.918 2.56773 23.5156 2.56773 25.293C2.56773 27.9883 4.37437 29.5801 7.43101 29.5801ZM7.43101 27.998C5.3607 27.998 4.14976 27.002 4.14976 25.293C4.14976 23.6914 4.66734 21.2891 5.53648 18.8574C5.81968 18.0371 6.48374 17.5586 7.4896 17.5586L11.4154 17.5586C12.4115 17.5586 13.0755 18.0371 13.3587 18.8574C14.2279 21.2891 14.7552 23.6914 14.7552 25.293C14.7552 27.002 13.5345 27.998 11.4642 27.998Z" fill="black" fill-opacity="0.85"/>
 </g>
</svg>
