<?xml version="1.0" encoding="UTF-8"?>
<!--Generator: Apple Native CoreSVG 326-->
<!DOCTYPE svg
PUBLIC "-//W3C//DTD SVG 1.1//EN"
       "http://www.w3.org/Graphics/SVG/1.1/DTD/svg11.dtd">
<svg version="1.1" xmlns="http://www.w3.org/2000/svg" xmlns:xlink="http://www.w3.org/1999/xlink" viewBox="0 0 24.0532 29.0918">
 <g>
  <rect height="29.0918" opacity="0" width="24.0532" x="0" y="0"/>
  <path d="M11.8655 6.68945C14.7561 6.68945 17.2659 4.98047 17.6467 2.55859C17.7932 1.64062 17.3147 0.9375 16.387 0.664062C13.7502-0.078125 9.98071-0.078125 7.34399 0.664062C6.41625 0.9375 5.93774 1.64062 6.08422 2.55859C6.47485 4.98047 8.97485 6.68945 11.8655 6.68945ZM10.9963 11.8945L12.7248 11.8945L12.7248 5.85938L10.9963 5.85938ZM11.8459 29.0918C18.9846 29.0918 23.7307 26.9434 23.6916 23.7988L23.6916 23.6426C23.6038 20.4492 20.6741 16.543 17.0315 14.7656C16.3772 12.4512 14.2483 10.8301 11.8459 10.8301C9.45336 10.8301 7.31469 12.4512 6.6604 14.7656C3.03735 16.5332 0.127192 20.4199 0.000239321 23.5938L0.000239321 23.7988C-0.0388232 26.9434 4.70727 29.0918 11.8459 29.0918ZM1.52368 23.7988C1.54321 21.4941 5.64477 20.0195 11.8459 20.0195C18.0666 20.0195 22.1682 21.4941 22.1682 23.7988C22.1682 26.0938 18.0666 27.5684 11.8459 27.5684C5.64477 27.5684 1.54321 26.0938 1.52368 23.7988ZM11.8459 24.6191C14.1995 24.6191 16.3577 23.2031 16.3577 21.5234C15.0588 21.3184 13.5354 21.1816 11.8459 21.1816C10.1663 21.1816 8.64282 21.3184 7.34399 21.5234C7.34399 23.2031 9.48266 24.6191 11.8459 24.6191Z" fill="black" fill-opacity="0.85"/>
 </g>
</svg>
