<?xml version="1.0" encoding="UTF-8"?>
<!--Generator: Apple Native CoreSVG 326-->
<!DOCTYPE svg
PUBLIC "-//W3C//DTD SVG 1.1//EN"
       "http://www.w3.org/Graphics/SVG/1.1/DTD/svg11.dtd">
<svg version="1.1" xmlns="http://www.w3.org/2000/svg" xmlns:xlink="http://www.w3.org/1999/xlink" viewBox="0 0 23.3203 18.9746">
 <g>
  <rect height="18.9746" opacity="0" width="23.3203" x="0" y="0"/>
  <path d="M0 18.1055C0 18.584 0.390625 18.9746 0.869141 18.9746C1.33789 18.9746 1.72852 18.584 1.72852 18.1055L1.72852 0.898438C1.72852 0.419922 1.33789 0.0292969 0.869141 0.0292969C0.390625 0.0292969 0 0.419922 0 0.898438ZM21.2305 18.1055C21.2305 18.584 21.6211 18.9746 22.0898 18.9746C22.5684 18.9746 22.959 18.584 22.959 18.1055L22.959 0.898438C22.959 0.419922 22.5684 0.0292969 22.0898 0.0292969C21.6211 0.0292969 21.2305 0.419922 21.2305 0.898438Z" fill="black" fill-opacity="0.85"/>
 </g>
</svg>
