<?xml version="1.0" ?><!-- Generator: Adobe Illustrator 25.0.0, SVG Export Plug-In . SVG Version: 6.00 Build 0)  --><svg xmlns="http://www.w3.org/2000/svg" xmlns:xlink="http://www.w3.org/1999/xlink" version="1.1" id="Layer_1" x="0px" y="0px" viewBox="0 0 512 512" style="enable-background:new 0 0 512 512;" xml:space="preserve">
<path d="M70.4,437.3c0,25,6.2,43.7,18.5,56.1c12.3,12.4,30.8,18.6,55.5,18.6h223.3c24.5,0,42.9-6.2,55.3-18.6  c12.3-12.4,18.5-31.1,18.5-56.1V75c0-24.8-6.2-43.5-18.5-56.1C410.7,6.3,392.3,0,367.8,0H144.5C119.8,0,101.3,6.3,89,18.9  C76.6,31.4,70.4,50.1,70.4,75V437.3z M194.9,82.6c-4.5,0-8.3-1.6-11.5-4.7c-3.2-3.1-4.8-6.9-4.8-11.3c0-4.3,1.6-8,4.8-11.2  c3.2-3.2,7-4.8,11.5-4.8h122.3c4.5,0,8.3,1.6,11.5,4.8c3.2,3.2,4.8,6.9,4.8,11.2c0,4.5-1.6,8.2-4.8,11.3c-3.2,3.1-7,4.7-11.5,4.7  H194.9z"/>
</svg>