<?xml version="1.0" ?><!-- Generator: Adobe Illustrator 25.0.0, SVG Export Plug-In . SVG Version: 6.00 Build 0)  --><svg xmlns="http://www.w3.org/2000/svg" xmlns:xlink="http://www.w3.org/1999/xlink" version="1.1" id="Layer_1" x="0px" y="0px" viewBox="0 0 512 512" style="enable-background:new 0 0 512 512;" xml:space="preserve">
<path d="M20.1,427.1h471.9c5.6,0,10.3-2,14.2-5.9c3.9-4,5.9-8.7,5.9-14.3c0-5.6-2-10.3-5.9-14.3c-3.9-4-8.6-5.9-14.2-5.9H20.1  c-5.6,0-10.3,2-14.2,5.9S0,401.3,0,406.9c0,5.6,2,10.3,5.9,14.3C9.8,425.2,14.5,427.1,20.1,427.1z M292.9,166.9h114.5  c5.7,0,9.9,1.4,12.8,4.3c2.8,2.8,4.3,7.1,4.3,12.8v215.9h28.6V175.9c0-12.4-3.2-21.8-9.7-28.1c-6.5-6.3-15.9-9.5-28.3-9.5H292.9  V166.9z M219.1,138.3H96.9c-11.7,0-21,3.2-27.8,9.5c-6.8,6.3-10.2,15.7-10.2,28.1v223.9h28.6V183.9c0-5.7,1.4-9.9,4.3-12.8  c2.8-2.8,7.1-4.3,12.8-4.3h114.5V138.3z" class="hierarchical-0:secondary SFSymbolsPreview4D4D4D" style="fill: #4D4D4D;"/>
<path d="M243.4,97.6v141.1l1.6,37.5l-34.6-38.9l-10.3-10.1c-1.2-1.1-2.6-2-4.2-2.7c-1.6-0.7-3.3-1.1-5.2-1.1c-3.7,0-6.6,1.2-8.9,3.5  c-2.2,2.3-3.4,5.2-3.4,8.6c0,3.8,1.3,6.9,3.9,9.4l64.1,64.4c3.2,3.1,6.4,4.6,9.6,4.6c3.3,0,6.5-1.5,9.6-4.6l64.1-64.4  c2.6-2.5,3.9-5.6,3.9-9.4c0-3.4-1.1-6.3-3.4-8.6c-2.2-2.3-5.2-3.5-8.9-3.5c-1.9,0-3.6,0.4-5.2,1.1c-1.6,0.7-3,1.6-4.2,2.7  l-10.3,10.1L267,276.2l1.8-37.5V97.6c0-3.9-1.3-7-3.9-9.3c-2.6-2.3-5.6-3.5-8.9-3.5c-3.3,0-6.2,1.2-8.8,3.5  C244.7,90.6,243.4,93.7,243.4,97.6z" class="hierarchical-1:primary SFSymbolsPreview212121" style="fill: #212121;"/>
</svg>