<?xml version="1.0" ?><!-- Generator: Adobe Illustrator 25.0.0, SVG Export Plug-In . SVG Version: 6.00 Build 0)  --><svg xmlns="http://www.w3.org/2000/svg" xmlns:xlink="http://www.w3.org/1999/xlink" version="1.1" id="Layer_1" x="0px" y="0px" viewBox="0 0 512 512" style="enable-background:new 0 0 512 512;" xml:space="preserve">
<path d="M87.3,512h337.3c58.4,0,87.3-28.9,87.3-86.2V86.2C512,28.9,483.1,0,424.7,0H87.3C29.2,0,0,28.6,0,86.2v339.6  C0,483.4,29.2,512,87.3,512z M159.6,392.1c-9.7,0-16.1-6.7-16.1-16.4c0-9.2,7-15.9,16.4-15.9h42.3c-35-22.8-58.1-65.1-58.1-114.3  c0-57,27.8-99.3,73.1-115.7v-25.3c0-8.3,5.8-14.2,13.9-14.2c8.1,0,14.2,5.8,14.2,14.2v19.7c4.7-0.6,10-0.8,14.7-0.8  c3.9,0,7.8,0,11.7,0.6v-19.5c0-8.3,5.8-14.2,13.9-14.2c8.1,0,13.9,5.8,13.9,14.2v26.1c42,16.1,69.5,58.7,69.8,109.3  c0,10.8-7.2,18.6-17.2,18.6c-10.8,0-18.1-7.8-18.4-18.9c-0.6-32-13.6-56.2-34.2-70.4v72c0,8.1-5.8,13.9-13.9,13.9  c-8.1,0-13.9-5.8-13.9-13.9v-82.6c-3.6-0.6-7.5-1.1-12-1.1c-4.4,0-9.7,0.6-14.5,1.1v82.6c0,8.1-5.8,13.9-14.2,13.9  c-8.1,0-13.9-5.8-13.9-13.9v-72.9c-23.1,14.5-36.2,42-36.2,81.2c0,62.6,48.9,110.1,112.4,110.1h43.9c9.7,0,16.7,6.7,16.7,15.9  c0,9.5-6.7,16.4-16.7,16.4H159.6z"/>
</svg>