<?xml version="1.0" encoding="UTF-8"?>
<!--Generator: Apple Native CoreSVG 326-->
<!DOCTYPE svg
PUBLIC "-//W3C//DTD SVG 1.1//EN"
       "http://www.w3.org/Graphics/SVG/1.1/DTD/svg11.dtd">
<svg version="1.1" xmlns="http://www.w3.org/2000/svg" xmlns:xlink="http://www.w3.org/1999/xlink" viewBox="0 0 23.3203 22.959">
 <g>
  <rect height="22.959" opacity="0" width="23.3203" x="0" y="0"/>
  <path d="M3.79883 22.959L19.1504 22.959C21.6797 22.959 22.959 21.6797 22.959 19.1992L22.959 3.76953C22.959 1.2793 21.6797 0 19.1504 0L3.79883 0C1.2793 0 0 1.26953 0 3.76953L0 19.1992C0 21.6992 1.2793 22.959 3.79883 22.959ZM3.83789 21.2305C2.4707 21.2305 1.72852 20.5078 1.72852 19.1016L1.72852 3.85742C1.72852 2.46094 2.4707 1.72852 3.83789 1.72852L19.1211 1.72852C20.459 1.72852 21.2305 2.46094 21.2305 3.85742L21.2305 19.1016C21.2305 20.5078 20.459 21.2305 19.1211 21.2305Z" fill="black" fill-opacity="0.85"/>
  <path d="M6.82617 16.9824L15.4004 16.9824C15.7227 16.9824 15.9668 16.7676 15.9668 16.4453C15.9668 16.1328 15.7227 15.918 15.4004 15.918L12.5586 15.918C9.57031 15.918 7.5293 13.7305 7.5293 11.1621C7.5293 8.60352 9.29688 7.10938 11.5625 7.10938C13.7598 7.10938 15.4883 8.60352 15.5566 10.6445C15.5664 11.0254 15.791 11.2891 16.1621 11.2891C16.5332 11.2891 16.7676 11.0156 16.7676 10.6445C16.748 7.89062 14.2871 5.95703 11.5625 5.95703C8.55469 5.95703 6.25977 8.03711 6.25977 10.957C6.25977 13.0566 7.34375 15.0195 9.21875 15.8789L9.21875 15.9277L6.82617 15.9277C6.49414 15.9277 6.26953 16.1328 6.26953 16.4453C6.26953 16.7676 6.49414 16.9824 6.82617 16.9824ZM10.3125 11.1426C10.5371 11.1426 10.7031 10.9766 10.7031 10.752L10.7031 4.85352C10.7031 4.62891 10.5371 4.47266 10.3125 4.47266C10.0977 4.47266 9.93164 4.62891 9.93164 4.85352L9.93164 10.752C9.93164 10.9766 10.0977 11.1426 10.3125 11.1426ZM12.8516 11.1426C13.0762 11.1426 13.2422 10.9766 13.2422 10.752L13.2422 4.85352C13.2422 4.62891 13.0762 4.47266 12.8516 4.47266C12.627 4.47266 12.4707 4.62891 12.4707 4.85352L12.4707 10.752C12.4707 10.9766 12.627 11.1426 12.8516 11.1426Z" fill="black" fill-opacity="0.85"/>
 </g>
</svg>
