<?xml version="1.0" encoding="UTF-8"?>
<!--Generator: Apple Native CoreSVG 326-->
<!DOCTYPE svg
PUBLIC "-//W3C//DTD SVG 1.1//EN"
       "http://www.w3.org/Graphics/SVG/1.1/DTD/svg11.dtd">
<svg version="1.1" xmlns="http://www.w3.org/2000/svg" xmlns:xlink="http://www.w3.org/1999/xlink" viewBox="0 0 25.8008 25.459">
 <g>
  <rect height="25.459" opacity="0" width="25.8008" x="0" y="0"/>
  <path d="M12.7148 25.4395C19.7363 25.4395 25.4395 19.7461 25.4395 12.7246C25.4395 5.70312 19.7363 0 12.7148 0C5.69336 0 0 5.70312 0 12.7246C0 19.7461 5.69336 25.4395 12.7148 25.4395ZM12.7148 23.623C6.68945 23.623 1.81641 18.75 1.81641 12.7246C1.81641 6.69922 6.68945 1.82617 12.7148 1.82617C18.7402 1.82617 23.6133 6.69922 23.6133 12.7246C23.6133 18.75 18.7402 23.623 12.7148 23.623Z" fill="black" fill-opacity="0.85"/>
  <path d="M8.04688 18.2324L16.6211 18.2324C16.9434 18.2324 17.1875 18.0176 17.1875 17.6953C17.1875 17.3828 16.9434 17.168 16.6211 17.168L13.7793 17.168C10.791 17.168 8.75 14.9805 8.75 12.4121C8.75 9.85352 10.5176 8.35938 12.7832 8.35938C14.9805 8.35938 16.709 9.85352 16.7773 11.8945C16.7871 12.2754 17.0117 12.5391 17.3828 12.5391C17.7539 12.5391 17.9883 12.2656 17.9883 11.8945C17.9688 9.14062 15.5078 7.20703 12.7832 7.20703C9.77539 7.20703 7.48047 9.28711 7.48047 12.207C7.48047 14.3066 8.56445 16.2695 10.4395 17.1289L10.4395 17.1777L8.04688 17.1777C7.71484 17.1777 7.49023 17.3828 7.49023 17.6953C7.49023 18.0176 7.71484 18.2324 8.04688 18.2324ZM11.5332 12.3926C11.7578 12.3926 11.9238 12.2266 11.9238 12.002L11.9238 6.10352C11.9238 5.87891 11.7578 5.72266 11.5332 5.72266C11.3184 5.72266 11.1523 5.87891 11.1523 6.10352L11.1523 12.002C11.1523 12.2266 11.3184 12.3926 11.5332 12.3926ZM14.0723 12.3926C14.2969 12.3926 14.4629 12.2266 14.4629 12.002L14.4629 6.10352C14.4629 5.87891 14.2969 5.72266 14.0723 5.72266C13.8574 5.72266 13.6914 5.87891 13.6914 6.10352L13.6914 12.002C13.6914 12.2266 13.8574 12.3926 14.0723 12.3926Z" fill="black" fill-opacity="0.85"/>
 </g>
</svg>
