<?xml version="1.0" ?><!-- Generator: Adobe Illustrator 25.0.0, SVG Export Plug-In . SVG Version: 6.00 Build 0)  --><svg xmlns="http://www.w3.org/2000/svg" xmlns:xlink="http://www.w3.org/1999/xlink" version="1.1" id="Layer_1" x="0px" y="0px" viewBox="0 0 512 512" style="enable-background:new 0 0 512 512;" xml:space="preserve">
<path d="M256,512c140,0,256-116.2,256-256C512,116,395.8,0,255.7,0C116,0,0,116,0,256C0,395.8,116.2,512,256,512z M168.7,379.2  c-8.8,0-14.8-6-14.8-14.8c0-8.3,6.5-14.3,15.1-14.3h38.1c-31.6-20.6-52.5-58.7-52.5-103.2c0-51.5,24.8-89.6,66-104.4v-22.8  c0-7.5,5.3-12.8,12.5-12.8c7.3,0,12.8,5.3,12.8,12.8v17.8c4.3-0.5,9-0.8,13.1-0.8c3.8,0,7.3,0,10.8,0.5v-17.6  c0-7.5,5.3-12.8,12.5-12.8c7.3,0,12.5,5.3,12.5,12.8v23.6c37.9,14.6,62.7,53,63,98.6c0,9.8-6.8,16.8-15.8,16.8  c-9.8,0-16.1-7-16.3-17.1c-0.5-28.9-12.3-50.7-30.9-63.5v65c0,7.3-5.3,12.5-12.5,12.5c-7.3,0-12.5-5.3-12.5-12.5v-74.5  c-3.3-0.5-6.8-1-11-1c-3.8,0-8.5,0.5-12.8,1v74.5c0,7.3-5.5,12.5-12.8,12.5c-7.3,0-12.5-5.3-12.5-12.5v-65.8  c-21.1,13.1-32.6,37.9-32.6,73.3c0,56.5,44.2,99.4,101.4,99.4H329c8.8,0,15.1,6,15.1,14.3c0,8.5-6,14.8-15.1,14.8H168.7z"/>
</svg>