<?xml version="1.0" encoding="UTF-8"?>
<!--Generator: Apple Native CoreSVG 326-->
<!DOCTYPE svg
PUBLIC "-//W3C//DTD SVG 1.1//EN"
       "http://www.w3.org/Graphics/SVG/1.1/DTD/svg11.dtd">
<svg version="1.1" xmlns="http://www.w3.org/2000/svg" xmlns:xlink="http://www.w3.org/1999/xlink" viewBox="0 0 23.3203 22.959">
 <g>
  <rect height="22.959" opacity="0" width="23.3203" x="0" y="0"/>
  <path d="M22.959 3.76953L22.959 19.1992C22.959 21.6797 21.6797 22.959 19.1504 22.959L3.79883 22.959C1.2793 22.959 0 21.6992 0 19.1992L0 3.76953C0 1.26953 1.2793 0 3.79883 0L19.1504 0C21.6797 0 22.959 1.2793 22.959 3.76953ZM12.4902 4.69727L12.4902 5.9082C12.1875 5.85938 11.875 5.83984 11.5625 5.83984C11.2598 5.83984 10.9766 5.85938 10.6836 5.89844L10.6836 4.69727C10.6836 4.47266 10.5176 4.30664 10.2832 4.30664C10.0488 4.30664 9.89258 4.47266 9.89258 4.69727L9.89258 6.06445C7.66602 6.67969 6.12305 8.53516 6.12305 10.957C6.12305 13.1055 7.23633 15.1172 9.15039 16.0059L9.15039 16.0547L6.70898 16.0547C6.36719 16.0547 6.13281 16.2598 6.13281 16.5918C6.13281 16.9141 6.36719 17.1484 6.70898 17.1484L15.498 17.1484C15.8301 17.1484 16.084 16.9141 16.084 16.5918C16.084 16.2598 15.8301 16.0449 15.498 16.0449L12.5879 16.0449C9.52148 16.0449 7.44141 13.7988 7.44141 11.1719C7.44141 9.22852 8.42773 7.88086 9.89258 7.32422L9.89258 10.752C9.89258 10.9863 10.0488 11.1523 10.2832 11.1523C10.5176 11.1523 10.6836 10.9863 10.6836 10.752L10.6836 7.08984C10.9766 7.05078 11.2598 7.01172 11.5625 7.01172C11.8848 7.01172 12.1875 7.05078 12.4902 7.10938L12.4902 10.752C12.4902 10.9863 12.666 11.1523 12.8809 11.1523C13.1152 11.1523 13.291 10.9863 13.291 10.752L13.291 7.35352C14.6582 7.90039 15.6055 9.12109 15.6543 10.6348C15.6641 11.0352 15.8984 11.3086 16.2793 11.3086C16.6602 11.3086 16.9043 11.0254 16.9043 10.6348C16.8848 8.41797 15.3125 6.70898 13.291 6.09375L13.291 4.69727C13.291 4.47266 13.1152 4.30664 12.8809 4.30664C12.666 4.30664 12.4902 4.47266 12.4902 4.69727Z" fill="black" fill-opacity="0.85"/>
 </g>
</svg>
