<?xml version="1.0" encoding="UTF-8"?>
<!--Generator: Apple Native CoreSVG 326-->
<!DOCTYPE svg
PUBLIC "-//W3C//DTD SVG 1.1//EN"
       "http://www.w3.org/Graphics/SVG/1.1/DTD/svg11.dtd">
<svg version="1.1" xmlns="http://www.w3.org/2000/svg" xmlns:xlink="http://www.w3.org/1999/xlink" viewBox="0 0 30.3809 25.0293">
 <g>
  <rect height="25.0293" opacity="0" width="30.3809" x="0" y="0"/>
  <path d="M30.0195 15.0098C30.0195 11.3281 28.6914 7.95898 26.4844 5.3418C26.2305 5.03906 25.8008 5.04883 25.5176 5.33203L22.6953 8.1543C22.4512 8.39844 22.4414 8.74023 22.6562 9.01367C23.9551 10.6738 24.7266 12.7441 24.7266 15.0098C24.7266 17.2754 23.9551 19.3555 22.5977 21.0742C22.4121 21.3086 22.4219 21.6016 22.627 21.8066L25.5176 24.707C25.8008 25 26.2207 24.9902 26.4844 24.6875C28.6914 22.0703 30.0195 18.6816 30.0195 15.0098Z" fill="black" fill-opacity="0.85"/>
  <path d="M15.0098 5.2832C17.2754 5.2832 19.3652 6.06445 21.0254 7.38281C21.2891 7.57812 21.6113 7.55859 21.8555 7.31445L24.6875 4.48242C24.9805 4.19922 24.9707 3.7793 24.668 3.51562C22.0605 1.32812 18.6816 0 15.0098 0C11.3379 0 7.95898 1.32812 5.35156 3.51562C5.04883 3.7793 5.03906 4.19922 5.32227 4.48242L8.16406 7.31445C8.39844 7.55859 8.75 7.56836 9.02344 7.35352C10.6738 6.06445 12.7539 5.2832 15.0098 5.2832Z" fill="black" fill-opacity="0.85"/>
  <path d="M0 15.0098C0 18.6816 1.32812 22.0703 3.53516 24.6875C3.78906 24.9902 4.21875 25 4.50195 24.707L7.39258 21.8066C7.58789 21.6016 7.60742 21.3086 7.42188 21.0742C6.06445 19.3555 5.2832 17.2754 5.2832 15.0098C5.2832 12.7441 6.05469 10.6738 7.36328 9.01367C7.56836 8.74023 7.56836 8.39844 7.32422 8.1543L4.49219 5.33203C4.20898 5.04883 3.78906 5.03906 3.52539 5.3418C1.31836 7.95898 0 11.3281 0 15.0098Z" fill="black" fill-opacity="0.85"/>
  <path d="M10.3418 20.6836L18.916 20.6836C19.2383 20.6836 19.4727 20.459 19.4727 20.1465C19.4727 19.834 19.2383 19.6094 18.916 19.6094L16.0742 19.6094C13.0762 19.6094 11.0352 17.4219 11.0352 14.8535C11.0352 12.2949 12.8125 10.8008 15.0781 10.8008C17.2754 10.8008 19.0039 12.3047 19.0625 14.3359C19.0723 14.7266 19.3066 14.9902 19.6777 14.9902C20.0391 14.9902 20.2832 14.7168 20.2832 14.3359C20.2539 11.5918 17.793 9.6582 15.0781 9.6582C12.0703 9.6582 9.77539 11.7285 9.77539 14.6484C9.77539 16.748 10.8594 18.7207 12.7344 19.5801L12.7344 19.6191L10.3418 19.6191C10.0098 19.6191 9.78516 19.834 9.78516 20.1465C9.78516 20.459 10.0098 20.6836 10.3418 20.6836ZM13.8184 14.834C14.0527 14.834 14.209 14.6777 14.209 14.4531L14.209 8.54492C14.209 8.33008 14.0527 8.16406 13.8184 8.16406C13.6035 8.16406 13.4473 8.33008 13.4473 8.54492L13.4473 14.4531C13.4473 14.6777 13.6035 14.834 13.8184 14.834ZM16.3574 14.834C16.5918 14.834 16.748 14.6777 16.748 14.4531L16.748 8.54492C16.748 8.33008 16.5918 8.16406 16.3574 8.16406C16.1426 8.16406 15.9766 8.33008 15.9766 8.54492L15.9766 14.4531C15.9766 14.6777 16.1426 14.834 16.3574 14.834Z" fill="black" fill-opacity="0.85"/>
 </g>
</svg>
