<?xml version="1.0" encoding="UTF-8"?>
<!--Generator: Apple Native CoreSVG 326-->
<!DOCTYPE svg
PUBLIC "-//W3C//DTD SVG 1.1//EN"
       "http://www.w3.org/Graphics/SVG/1.1/DTD/svg11.dtd">
<svg version="1.1" xmlns="http://www.w3.org/2000/svg" xmlns:xlink="http://www.w3.org/1999/xlink" viewBox="0 0 27.9395 26.5527">
 <g>
  <rect height="26.5527" opacity="0" width="27.9395" x="0" y="0"/>
  <path d="M1.5332 23.8379L26.0449 23.8379L26.0449 23.0859C26.0449 22.666 25.791 22.4121 25.3613 22.4121L24.5605 22.4121L24.5605 8.33984L25.6934 8.33984C26.2891 8.33984 26.6211 7.91992 26.6211 7.48047C26.6211 7.1582 26.4453 6.875 26.0547 6.65039L15.2637 0.419922C14.7852 0.146484 14.2773 0 13.7891 0C13.3008 0 12.7832 0.146484 12.3145 0.419922L1.52344 6.65039C1.12305 6.875 0.957031 7.1582 0.957031 7.48047C0.957031 7.91992 1.28906 8.33984 1.88477 8.33984L3.02734 8.33984L3.02734 22.4121L2.22656 22.4121C1.78711 22.4121 1.5332 22.666 1.5332 23.0859ZM4.6582 22.4121L4.6582 6.85547L13.2227 2.03125C13.3887 1.93359 13.5938 1.875 13.7891 1.875C13.9746 1.875 14.1699 1.93359 14.3555 2.03125L22.9297 6.85547L22.9297 22.4121ZM0.869141 26.5332L26.709 26.5332C27.1875 26.5332 27.5781 26.1426 27.5781 25.6738C27.5781 25.1953 27.1875 24.8047 26.709 24.8047L0.869141 24.8047C0.390625 24.8047 0 25.1953 0 25.6738C0 26.1426 0.390625 26.5332 0.869141 26.5332Z" fill="black" fill-opacity="0.85"/>
  <path d="M9.14062 18.7207L17.7148 18.7207C18.0371 18.7207 18.2715 18.4961 18.2715 18.1836C18.2715 17.8711 18.0371 17.6465 17.7148 17.6465L14.873 17.6465C11.875 17.6465 9.83398 15.459 9.83398 12.8906C9.83398 10.332 11.6113 8.83789 13.877 8.83789C16.0742 8.83789 17.8027 10.3418 17.8613 12.373C17.8711 12.7539 18.1055 13.0176 18.4766 13.0176C18.8379 13.0176 19.082 12.7441 19.082 12.373C19.0527 9.62891 16.5918 7.69531 13.877 7.69531C10.8691 7.69531 8.57422 9.76562 8.57422 12.6855C8.57422 14.7852 9.6582 16.748 11.5234 17.6074L11.5234 17.6562L9.14062 17.6562C8.80859 17.6562 8.58398 17.8711 8.58398 18.1836C8.58398 18.4961 8.80859 18.7207 9.14062 18.7207ZM12.6172 12.8711C12.8516 12.8711 13.0078 12.7051 13.0078 12.4805L13.0078 6.58203C13.0078 6.36719 12.8516 6.20117 12.6172 6.20117C12.4023 6.20117 12.2363 6.36719 12.2363 6.58203L12.2363 12.4805C12.2363 12.7051 12.4023 12.8711 12.6172 12.8711ZM15.1562 12.8711C15.3906 12.8711 15.5469 12.7051 15.5469 12.4805L15.5469 6.58203C15.5469 6.36719 15.3906 6.20117 15.1562 6.20117C14.9414 6.20117 14.7754 6.36719 14.7754 6.58203L14.7754 12.4805C14.7754 12.7051 14.9414 12.8711 15.1562 12.8711Z" fill="black" fill-opacity="0.85"/>
 </g>
</svg>
