<?xml version="1.0" ?><!-- Generator: Adobe Illustrator 25.0.0, SVG Export Plug-In . SVG Version: 6.00 Build 0)  --><svg xmlns="http://www.w3.org/2000/svg" xmlns:xlink="http://www.w3.org/1999/xlink" version="1.1" id="Layer_1" x="0px" y="0px" viewBox="0 0 512 512" style="enable-background:new 0 0 512 512;" xml:space="preserve">
<path d="M87.3,512h337.3c58.4,0,87.3-28.9,87.3-86.2V86.2C512,28.9,483.1,0,424.7,0H87.3C29.2,0,0,28.6,0,86.2v339.6  C0,483.4,29.2,512,87.3,512z M87.9,467.2c-27.8,0-43.1-14.7-43.1-43.7V88.4c0-28.9,15.3-43.7,43.1-43.7h336.2  c27.5,0,43.1,14.7,43.1,43.7v335.1c0,28.9-15.6,43.7-43.1,43.7H87.9z M162.7,388h172.1c9.7,0,16.1-6.7,16.1-15.9  c0-8.9-6.7-15.3-16.1-15.3h-42.6c-61.5,0-109-46.2-109-106.8c0-38.1,12.8-64.8,35.3-78.7V242c0,7.8,5.6,13.3,13.3,13.3  c8.1,0,13.6-5.6,13.6-13.3v-80.1c4.7-0.6,9.7-1.1,14.2-1.1c4.2,0,8.1,0.6,11.4,1.1V242c0,7.8,5.8,13.3,13.6,13.3  c7.8,0,13.3-5.6,13.3-13.3v-69.8c20,13.6,32.8,37.3,33.4,68.1c0.3,10.8,7.2,18.4,17.5,18.4c9.7,0,16.7-7.5,16.7-18.1  c-0.3-48.9-27-90.1-67.6-105.7v-25.6c0-8.1-5.6-13.6-13.3-13.6c-7.8,0-13.6,5.6-13.6,13.6v18.9c-3.6-0.6-7.5-0.6-11.1-0.6  c-4.7,0-9.7,0.3-14.5,0.8v-19.2c0-8.1-5.8-13.6-13.6-13.6c-7.8,0-13.3,5.6-13.3,13.6V134c-43.9,15.9-70.9,56.7-70.9,112.1  c0,47.6,22.2,88.7,56.5,110.7H163c-9.2,0-15.9,6.4-15.9,15.3C147.1,381.6,153.2,388,162.7,388z"/>
</svg>