<?xml version="1.0" encoding="UTF-8"?>
<!--Generator: Apple Native CoreSVG 326-->
<!DOCTYPE svg
PUBLIC "-//W3C//DTD SVG 1.1//EN"
       "http://www.w3.org/Graphics/SVG/1.1/DTD/svg11.dtd">
<svg version="1.1" xmlns="http://www.w3.org/2000/svg" xmlns:xlink="http://www.w3.org/1999/xlink" viewBox="0 0 30.3809 24.9191">
 <g>
  <rect height="24.9191" opacity="0" width="30.3809" x="0" y="0"/>
  <path d="M30.0195 14.9547C30.0195 7.09334 23.9746 0.648023 16.2988 0.00349172C15.8984-0.0355708 15.5859 0.257398 15.5859 0.667554L15.5859 4.66169C15.5859 4.99373 15.8301 5.2574 16.1719 5.28669C20.9863 5.87263 24.7266 9.97419 24.7266 14.9547C24.7266 17.2203 23.9551 19.3004 22.5879 21.0191C22.4023 21.2535 22.4121 21.5465 22.6172 21.7515L25.5176 24.6519C25.8105 24.9351 26.2305 24.9351 26.4844 24.6226C28.6914 22.0054 30.0195 18.6265 30.0195 14.9547Z" fill="black" fill-opacity="0.85"/>
  <path d="M0 14.9547C0 18.6363 1.32812 22.025 3.54492 24.6422C3.78906 24.9351 4.19922 24.9351 4.49219 24.6519L7.39258 21.7515C7.59766 21.5465 7.60742 21.2535 7.42188 21.0191C6.05469 19.3004 5.2832 17.2203 5.2832 14.9547C5.2832 9.97419 9.0332 5.87263 13.8379 5.28669C14.1895 5.2574 14.4238 4.99373 14.4238 4.66169L14.4238 0.667554C14.4238 0.257398 14.1211-0.0355708 13.7207 0.00349172C6.03516 0.648023 0 7.09334 0 14.9547Z" fill="black" fill-opacity="0.85"/>
  <path d="M10.3418 20.6285L18.916 20.6285C19.2383 20.6285 19.4727 20.4039 19.4727 20.0914C19.4727 19.7789 19.2383 19.5543 18.916 19.5543L16.0742 19.5543C13.0762 19.5543 11.0352 17.3668 11.0352 14.7984C11.0352 12.2398 12.8125 10.7457 15.0781 10.7457C17.2754 10.7457 19.0039 12.2496 19.0625 14.2808C19.0723 14.6715 19.3066 14.9351 19.6777 14.9351C20.0391 14.9351 20.2832 14.6617 20.2832 14.2808C20.2539 11.5367 17.793 9.6031 15.0781 9.6031C12.0703 9.6031 9.77539 11.6734 9.77539 14.5933C9.77539 16.6929 10.8594 18.6656 12.7344 19.525L12.7344 19.564L10.3418 19.564C10.0098 19.564 9.78516 19.7789 9.78516 20.0914C9.78516 20.4039 10.0098 20.6285 10.3418 20.6285ZM13.8184 14.7789C14.0527 14.7789 14.209 14.6226 14.209 14.398L14.209 8.48982C14.209 8.27498 14.0527 8.10896 13.8184 8.10896C13.6035 8.10896 13.4473 8.27498 13.4473 8.48982L13.4473 14.398C13.4473 14.6226 13.6035 14.7789 13.8184 14.7789ZM16.3574 14.7789C16.5918 14.7789 16.748 14.6226 16.748 14.398L16.748 8.48982C16.748 8.27498 16.5918 8.10896 16.3574 8.10896C16.1426 8.10896 15.9766 8.27498 15.9766 8.48982L15.9766 14.398C15.9766 14.6226 16.1426 14.7789 16.3574 14.7789Z" fill="black" fill-opacity="0.85"/>
 </g>
</svg>
