<?xml version="1.0" encoding="UTF-8"?>
<!--Generator: Apple Native CoreSVG 326-->
<!DOCTYPE svg
PUBLIC "-//W3C//DTD SVG 1.1//EN"
       "http://www.w3.org/Graphics/SVG/1.1/DTD/svg11.dtd">
<svg version="1.1" xmlns="http://www.w3.org/2000/svg" xmlns:xlink="http://www.w3.org/1999/xlink" viewBox="0 0 29.873 29.5215">
 <g>
  <rect height="29.5215" opacity="0" width="29.873" x="0" y="0"/>
  <path d="M0.761719 13.9844C0.341797 13.9844 0 14.3262 0 14.7559C0 15.1758 0.341797 15.5176 0.761719 15.5176L28.75 15.5176C29.1895 15.5176 29.5117 15.1758 29.5117 14.7559C29.5117 14.3262 29.1895 13.9844 28.75 13.9844ZM15.5273 0.751953C15.5273 0.322266 15.1855 0 14.7559 0C14.3359 0 13.9941 0.322266 13.9941 0.751953L13.9941 28.7402C13.9941 29.1699 14.3359 29.5117 14.7559 29.5117C15.1855 29.5117 15.5273 29.1699 15.5273 28.7402ZM20.3125 3.35938C20.4688 2.95898 20.2832 2.50977 19.9023 2.35352C19.4922 2.20703 19.0527 2.38281 18.8867 2.76367L9.19922 26.1523C9.04297 26.543 9.23828 26.9922 9.60938 27.1484C10.0195 27.3047 10.459 27.1094 10.625 26.7285ZM26.9629 3.64258C27.2363 3.34961 27.2363 2.87109 26.9434 2.56836C26.6406 2.27539 26.1621 2.28516 25.8691 2.56836L2.55859 25.8594C2.27539 26.1523 2.28516 26.6309 2.56836 26.9336C2.88086 27.2266 3.35938 27.2168 3.65234 26.9336ZM26.7578 10.6152C27.1289 10.459 27.3047 10.0195 27.1387 9.61914C26.9922 9.23828 26.5527 9.05273 26.1523 9.20898L2.76367 18.877C2.39258 19.0527 2.20703 19.4824 2.37305 19.8828C2.51953 20.2734 2.95898 20.4492 3.35938 20.293ZM26.1523 20.3125C26.5527 20.4688 26.9922 20.2734 27.1582 19.8828C27.3047 19.4824 27.1289 19.0625 26.7285 18.8965L3.35938 9.18945C2.95898 9.04297 2.5293 9.23828 2.36328 9.62891C2.20703 10.0195 2.38281 10.4395 2.7832 10.6055ZM25.8691 26.9531C26.1523 27.2363 26.6406 27.2266 26.9434 26.9336C27.2363 26.6309 27.2363 26.1816 26.9434 25.8691L3.65234 2.54883C3.35938 2.27539 2.88086 2.27539 2.56836 2.56836C2.28516 2.87109 2.28516 3.33008 2.56836 3.63281ZM18.8867 26.748C19.0527 27.1289 19.502 27.3047 19.8828 27.1289C20.2734 26.9922 20.4492 26.543 20.3027 26.1621L10.625 2.76367C10.459 2.38281 10.0195 2.20703 9.62891 2.37305C9.23828 2.51953 9.0625 2.93945 9.21875 3.33984Z" fill="black" fill-opacity="0.85"/>
 </g>
</svg>
