<?xml version="1.0" ?><!-- Generator: Adobe Illustrator 25.0.0, SVG Export Plug-In . SVG Version: 6.00 Build 0)  --><svg xmlns="http://www.w3.org/2000/svg" xmlns:xlink="http://www.w3.org/1999/xlink" version="1.1" id="Layer_1" x="0px" y="0px" viewBox="0 0 512 512" style="enable-background:new 0 0 512 512;" xml:space="preserve">
<path d="M68.3,469.1h375.3c45.8,0,68.3-22.1,68.3-67.5V186.4c0-45.1-22.6-67.5-68.3-67.5H387v-15.3c0-41.6-21.9-60.8-61.9-60.8  H186.9c-37.8,0-61.9,19.2-61.9,60.8V119H68.3C22.8,119,0,141.3,0,186.4v215.2C0,447,22.8,469.1,68.3,469.1z M159.2,101.3  c0-16.8,10-26.1,27-26.1h139.3c17.3,0,27.2,9.3,27.2,26.1V119H159.2V101.3z M418.2,235.8c0-15.5-8.8-24.1-24.5-24.1h-54.8  c-15.7,0-24.5,8.6-24.5,24.1v6H197.5v-6c0-15.5-8.8-24.1-24.5-24.1h-54.8c-15.5,0-24.3,8.6-24.3,24.1v6H35.6v-53.5  c0-22.6,11.5-33.8,33.2-33.8h374.4c21.7,0,33.2,11.3,33.2,33.8v53.5h-58.2V235.8z M68.8,433.7c-21.7,0-33.2-11.1-33.2-33.8v-125  h58.2v6.2c0,15.5,8.8,24.1,24.3,24.1H173c15.7,0,24.5-8.6,24.5-24.1v-6.2h116.8v6.2c0,15.5,8.8,24.1,24.5,24.1h54.8  c15.7,0,24.5-8.6,24.5-24.1v-6.2h58.2v125c0,22.8-11.5,33.8-33.2,33.8H68.8z"/>
</svg>