<?xml version="1.0" encoding="UTF-8"?>
<!--Generator: Apple Native CoreSVG 326-->
<!DOCTYPE svg
PUBLIC "-//W3C//DTD SVG 1.1//EN"
       "http://www.w3.org/Graphics/SVG/1.1/DTD/svg11.dtd">
<svg version="1.1" xmlns="http://www.w3.org/2000/svg" xmlns:xlink="http://www.w3.org/1999/xlink" viewBox="0 0 13.328 27.4826">
 <g>
  <rect height="27.4826" opacity="0" width="13.328" x="0" y="0"/>
  <path d="M4.13468 25.3575C3.38273 25.4063 2.51359 25.7774 1.97648 26.2852C1.79093 26.4513 1.81046 26.6466 1.99601 26.7833C2.61124 27.2423 3.50968 27.4766 4.28117 27.379C5.00382 27.3302 5.8632 26.9493 6.4296 26.4317C6.64445 26.2364 6.61515 26.0118 6.36124 25.8751C5.75578 25.504 4.85734 25.2989 4.13468 25.3575ZM1.46867 21.0997C1.31242 20.8653 1.10734 20.8458 0.921792 21.0606C0.423745 21.6466 0.0624168 22.5059 0.0135887 23.2286C-0.0645363 24.0098 0.199136 24.918 0.677651 25.4942C0.833901 25.6895 1.01945 25.6895 1.1757 25.504C1.66398 24.9571 2.01554 24.088 2.0546 23.336C2.09367 22.6231 1.85929 21.7247 1.46867 21.0997ZM7.68937 21.9493C6.98624 22.1837 6.25382 22.7501 5.84367 23.3946C5.72648 23.5997 5.77531 23.7852 5.99992 23.8634C6.71281 24.1563 7.66007 24.1563 8.3632 23.8731C9.05656 23.629 9.78898 23.043 10.1991 22.3985C10.3359 22.1641 10.2675 21.9591 10.0136 21.8809C9.32023 21.6759 8.38273 21.6954 7.68937 21.9493ZM4.03703 18.5118C3.83195 18.3067 3.6171 18.3458 3.50968 18.6095C3.17765 19.2833 3.04093 20.211 3.18742 20.9337C3.31437 21.7052 3.80265 22.5157 4.40812 22.9552C4.59367 23.0919 4.78898 23.0528 4.88664 22.838C5.21867 22.2032 5.32609 21.2657 5.16984 20.5138C5.03312 19.8106 4.57414 19.0001 4.03703 18.5118ZM12.953 17.0372C13.0019 16.7638 12.8456 16.6173 12.5819 16.6466C11.8495 16.7442 11.0194 17.1446 10.4921 17.6524C9.95499 18.1309 9.51554 18.9513 9.38859 19.713C9.35929 19.9473 9.48624 20.1036 9.72062 20.0841C10.4921 20.0645 11.3515 19.6934 11.8788 19.1466C12.4062 18.6192 12.8456 17.7696 12.953 17.0372ZM5.75578 15.9825C5.48234 15.8848 5.30656 16.0118 5.30656 16.295C5.26749 17.0177 5.53117 17.9161 5.95109 18.5606C6.35148 19.1954 7.13273 19.7325 7.88468 19.9083C8.11906 19.9571 8.27531 19.8399 8.28507 19.6055C8.32414 18.8341 8.0507 17.9454 7.61124 17.3595C7.17179 16.7638 6.4296 16.2071 5.75578 15.9825ZM7.84562 13.0235C7.29874 12.5548 6.43937 12.2227 5.68742 12.1641C5.43351 12.1544 5.28703 12.3204 5.32609 12.5743C5.4921 13.3165 5.99015 14.127 6.54679 14.6055C7.10343 15.1134 7.9921 15.4454 8.76359 15.4259C8.9882 15.4161 9.11515 15.2501 9.06632 15.0352C8.91984 14.3028 8.43156 13.4923 7.84562 13.0235ZM12.9335 11.3634C12.9042 11.0704 12.7187 10.963 12.4648 11.0802C11.8105 11.3341 11.0976 11.9298 10.6972 12.5548C10.287 13.2091 10.0819 14.127 10.1601 14.8399C10.1894 15.0743 10.3652 15.1915 10.5898 15.1231C11.3027 14.918 12.0351 14.3321 12.4159 13.6583C12.8066 12.9942 13.0214 12.0763 12.9335 11.3634ZM7.16203 8.795C6.4882 8.5411 5.56046 8.52156 4.85734 8.72664C4.60343 8.81453 4.52531 9.00008 4.66203 9.22469C5.03312 9.84969 5.76554 10.4454 6.49796 10.7286C7.21085 11.0313 8.15812 11.0313 8.86124 10.7384C9.06632 10.6407 9.13468 10.4454 9.00773 10.2501C8.6171 9.61531 7.87492 9.03914 7.16203 8.795ZM11.371 5.47469C11.2538 5.24031 11.039 5.20125 10.8339 5.36727C10.3066 5.85555 9.84757 6.6661 9.69132 7.38875C9.52531 8.12117 9.63273 9.03914 9.96476 9.70321C10.0819 9.90828 10.2773 9.96688 10.453 9.82039C11.0683 9.38094 11.5566 8.57039 11.6835 7.81844C11.83 7.10555 11.703 6.16805 11.371 5.47469ZM4.88664 5.15242C4.15421 5.01571 3.23624 5.12313 2.57218 5.4161C2.32804 5.52352 2.27921 5.73836 2.45499 5.94344C2.93351 6.50008 3.74406 6.98836 4.48624 7.15438C5.22843 7.34969 6.16593 7.2325 6.81046 6.83211C7.00578 6.70516 7.04484 6.51961 6.89835 6.34383C6.43937 5.77742 5.63859 5.29891 4.88664 5.15242ZM8.58781 1.27547C8.44132 1.06063 8.22648 1.0411 8.04093 1.24617C7.57218 1.83211 7.22062 2.68172 7.17179 3.40438C7.1132 4.11727 7.35734 5.02547 7.76749 5.67C7.90421 5.86531 8.09953 5.88485 8.27531 5.71883C8.82218 5.16219 9.19328 4.29305 9.21281 3.5411C9.26164 2.81844 9.00773 1.91024 8.58781 1.27547ZM2.1132 0.00593994C1.82999-0.0331226 1.68351 0.123127 1.71281 0.396565C1.82999 1.13875 2.24015 1.98836 2.7382 2.50594C3.25578 3.08211 4.10539 3.49227 4.8671 3.53133C5.10148 3.5411 5.22843 3.40438 5.2089 3.17C5.12101 2.43758 4.71085 1.58797 4.18351 1.07039C3.66593 0.552815 2.84562 0.123127 2.1132 0.00593994Z" fill="black" fill-opacity="0.85"/>
 </g>
</svg>
