<?xml version="1.0" encoding="UTF-8"?>
<!--Generator: Apple Native CoreSVG 326-->
<!DOCTYPE svg
PUBLIC "-//W3C//DTD SVG 1.1//EN"
       "http://www.w3.org/Graphics/SVG/1.1/DTD/svg11.dtd">
<svg version="1.1" xmlns="http://www.w3.org/2000/svg" xmlns:xlink="http://www.w3.org/1999/xlink" viewBox="0 0 28.9941 21.6504">
 <g>
  <rect height="21.6504" opacity="0" width="28.9941" x="0" y="0"/>
  <path d="M10.2441 21.6309L18.3887 21.6309C25.5371 21.6309 28.6328 18.3203 28.6328 11.6406L28.6328 3.67188C28.6328 1.25977 27.373 0 24.9316 0L3.71094 0C1.25977 0 0 1.25 0 3.67188L0 11.6406C0 18.3203 3.10547 21.6309 10.2441 21.6309ZM10.2637 19.9023C4.25781 19.9023 1.72852 17.2559 1.72852 11.7383L1.72852 3.75977C1.72852 2.42188 2.43164 1.73828 3.75 1.73828L24.8828 1.73828C26.1816 1.73828 26.9043 2.42188 26.9043 3.75977L26.9043 11.7383C26.9043 17.2559 24.375 19.9023 18.3789 19.9023Z" fill="black" fill-opacity="0.85"/>
  <path d="M9.14062 15.9277L12.8223 15.9277C13.1836 15.9277 13.4961 15.625 13.4961 15.2539C13.4961 14.8828 13.1836 14.5801 12.8223 14.5801L9.95117 14.5801L9.95117 6.37695C9.95117 5.94727 9.58984 5.58594 9.15039 5.58594C8.7207 5.58594 8.34961 5.94727 8.34961 6.37695L8.34961 15.0977C8.34961 15.6152 8.64258 15.9277 9.14062 15.9277ZM15.6152 15.9375L18.2324 15.9375C20 15.9375 21.0156 14.7656 21.0156 13.0859C21.0156 11.8457 20.293 10.7227 19.0918 10.5957L19.0918 10.5371C20.0391 10.3613 20.6836 9.28711 20.6836 8.27148C20.6836 6.69922 19.6484 5.74219 18.1641 5.74219L15.6152 5.74219C15.1074 5.74219 14.8242 6.10352 14.8242 6.58203L14.8242 15.0977C14.8242 15.6055 15.1172 15.9375 15.6152 15.9375ZM16.3965 10.127L16.3965 6.99219L17.7246 6.99219C18.7109 6.99219 19.1406 7.62695 19.1406 8.51562C19.1406 9.51172 18.5742 10.127 17.5781 10.127ZM16.3965 14.6973L16.3965 11.2402L17.7148 11.2402C18.7305 11.2402 19.4043 11.7969 19.4043 12.959C19.4043 14.043 18.8477 14.6973 17.7734 14.6973Z" fill="black" fill-opacity="0.85"/>
 </g>
</svg>
