<?xml version="1.0" encoding="UTF-8"?>
<!--Generator: Apple Native CoreSVG 326-->
<!DOCTYPE svg
PUBLIC "-//W3C//DTD SVG 1.1//EN"
       "http://www.w3.org/Graphics/SVG/1.1/DTD/svg11.dtd">
<svg version="1.1" xmlns="http://www.w3.org/2000/svg" xmlns:xlink="http://www.w3.org/1999/xlink" viewBox="0 0 28.9941 21.6504">
 <g>
  <rect height="21.6504" opacity="0" width="28.9941" x="0" y="0"/>
  <path d="M28.6328 3.67188L28.6328 11.6406C28.6328 18.3203 25.5371 21.6309 18.3887 21.6309L10.2441 21.6309C3.10547 21.6309 0 18.3203 0 11.6406L0 3.67188C0 1.25 1.25977 0 3.71094 0L24.9316 0C27.373 0 28.6328 1.25977 28.6328 3.67188ZM15.625 5.78125C15.1074 5.78125 14.834 6.14258 14.834 6.62109L14.834 15.0684C14.834 15.5762 15.1172 15.9082 15.625 15.9082L18.2324 15.9082C19.9805 15.9082 20.9961 14.7461 20.9961 13.0762C20.9961 11.8457 20.2734 10.7227 19.0723 10.5957L19.0723 10.5371C20.0195 10.3613 20.6641 9.29688 20.6641 8.29102C20.6641 6.72852 19.6289 5.78125 18.1543 5.78125ZM8.39844 6.42578L8.39844 15.0586C8.39844 15.5859 8.68164 15.8984 9.17969 15.8984L12.832 15.8984C13.1934 15.8984 13.5059 15.5957 13.5059 15.2246C13.5059 14.8535 13.1934 14.541 12.832 14.541L10 14.541L10 6.42578C10 5.98633 9.62891 5.625 9.19922 5.625C8.76953 5.625 8.39844 5.98633 8.39844 6.42578ZM19.375 12.9492C19.375 14.0234 18.8281 14.668 17.7637 14.668L16.4062 14.668L16.4062 11.25L17.7051 11.25C18.7109 11.25 19.375 11.7969 19.375 12.9492ZM19.1113 8.53516C19.1113 9.52148 18.5547 10.1367 17.5586 10.1367L16.4062 10.1367L16.4062 7.03125L17.7148 7.03125C18.6914 7.03125 19.1113 7.65625 19.1113 8.53516Z" fill="black" fill-opacity="0.85"/>
 </g>
</svg>
