<?xml version="1.0" encoding="UTF-8"?>
<!--Generator: Apple Native CoreSVG 326-->
<!DOCTYPE svg
PUBLIC "-//W3C//DTD SVG 1.1//EN"
       "http://www.w3.org/Graphics/SVG/1.1/DTD/svg11.dtd">
<svg version="1.1" xmlns="http://www.w3.org/2000/svg" xmlns:xlink="http://www.w3.org/1999/xlink" viewBox="0 0 25.8008 25.459">
 <g>
  <rect height="25.459" opacity="0" width="25.8008" x="0" y="0"/>
  <path d="M12.7148 25.4395C19.7363 25.4395 25.4395 19.7461 25.4395 12.7246C25.4395 5.70312 19.7363 0 12.7148 0C5.69336 0 0 5.70312 0 12.7246C0 19.7461 5.69336 25.4395 12.7148 25.4395ZM12.7148 23.623C6.68945 23.623 1.81641 18.75 1.81641 12.7246C1.81641 6.69922 6.68945 1.82617 12.7148 1.82617C18.7402 1.82617 23.6133 6.69922 23.6133 12.7246C23.6133 18.75 18.7402 23.623 12.7148 23.623Z" fill="black" fill-opacity="0.85"/>
  <path d="M7.51953 17.832L11.2012 17.832C11.5625 17.832 11.875 17.5195 11.875 17.1484C11.875 16.7871 11.5625 16.4746 11.2012 16.4746L8.33008 16.4746L8.33008 8.28125C8.33008 7.85156 7.96875 7.48047 7.53906 7.48047C7.09961 7.48047 6.73828 7.85156 6.73828 8.28125L6.73828 16.9922C6.73828 17.5098 7.03125 17.832 7.51953 17.832ZM13.9941 17.832L16.6211 17.832C18.3789 17.832 19.4043 16.6699 19.4043 14.9902C19.4043 13.75 18.6816 12.6172 17.4707 12.4902L17.4707 12.4316C18.418 12.2559 19.0625 11.1914 19.0625 10.1758C19.0625 8.59375 18.0273 7.63672 16.5527 7.63672L13.9941 7.63672C13.4863 7.63672 13.2129 7.99805 13.2129 8.47656L13.2129 17.002C13.2129 17.5 13.4961 17.832 13.9941 17.832ZM14.7852 12.0312L14.7852 8.88672L16.1035 8.88672C17.0996 8.88672 17.5195 9.52148 17.5195 10.4102C17.5195 11.4062 16.9531 12.0312 15.957 12.0312ZM14.7852 16.6016L14.7852 13.1445L16.0938 13.1445C17.1094 13.1445 17.7832 13.7012 17.7832 14.8633C17.7832 15.9375 17.2363 16.6016 16.1523 16.6016Z" fill="black" fill-opacity="0.85"/>
 </g>
</svg>
