<?xml version="1.0" ?><!-- Generator: Adobe Illustrator 25.0.0, SVG Export Plug-In . SVG Version: 6.00 Build 0)  --><svg xmlns="http://www.w3.org/2000/svg" xmlns:xlink="http://www.w3.org/1999/xlink" version="1.1" id="Layer_1" x="0px" y="0px" viewBox="0 0 512 512" style="enable-background:new 0 0 512 512;" xml:space="preserve">
<path d="M182.1,450.9h148c126,0,181.9-57.8,181.9-176.6V126.7c0-43.6-22.2-65.6-66.5-65.6h-379C22.2,61.1,0,82.9,0,126.7v147.6  C0,393.1,55.9,450.9,182.1,450.9z M182.1,416.4c-102.9,0-148-45.1-148-140v-148c0-22,11.6-33.2,32.8-33.2h378.2  c21,0,32.8,11.2,32.8,33.2v148c0,94.9-45.1,140-148,140H182.1z M130.4,351H228c8,0,14-5.3,14-14c0-8.7-5.9-13.8-14-13.8h-80.5V174.6  c0-11.9-5.9-19.1-17.2-19.1c-11,0-16.7,7.6-16.7,19.1v157.3C113.7,343.1,119.6,351,130.4,351z M291.6,351.2h61.8  c43.8,0,71.8-21.2,71.8-54.4c0-25.8-17.2-43.8-45.3-47.4v-1.3c21-5.1,33.9-21.6,33.9-42.8c0-28.8-23.5-47.6-59.9-47.6h-62.3  c-11.9,0-18.8,6.8-18.8,18.8v155.8C272.7,344.2,279.7,351.2,291.6,351.2z M305.5,239.8v-57.2H347c21.4,0,34.3,10.6,34.3,28  c0,18.8-15.5,29.2-43.8,29.2H305.5z M305.5,326.2v-63.1h44.9c26,0,41.1,11.9,41.1,32.4c0,21-16.3,30.7-51.5,30.7H305.5z"/>
</svg>