<?xml version="1.0" ?><!-- Generator: Adobe Illustrator 25.0.0, SVG Export Plug-In . SVG Version: 6.00 Build 0)  --><svg xmlns="http://www.w3.org/2000/svg" xmlns:xlink="http://www.w3.org/1999/xlink" version="1.1" id="Layer_1" x="0px" y="0px" viewBox="0 0 512 512" style="enable-background:new 0 0 512 512;" xml:space="preserve">
<path d="M256,512c35,0,67.9-6.7,98.8-20.1c30.9-13.4,58.1-31.9,81.7-55.5c23.6-23.6,42.1-50.8,55.5-81.7  C505.3,323.9,512,291,512,256s-6.7-67.9-20.1-98.8c-13.4-30.9-31.9-58.1-55.5-81.7c-23.6-23.6-50.9-42.1-81.8-55.5  C323.7,6.7,290.7,0,255.7,0S187.9,6.7,157,20.1C126.1,33.5,98.9,52,75.4,75.5c-23.5,23.6-42,50.8-55.3,81.7C6.7,188.1,0,221,0,256  s6.7,67.9,20.1,98.8c13.4,30.9,31.9,58.1,55.5,81.7c23.6,23.6,50.8,42.1,81.7,55.5C188.1,505.3,221,512,256,512z" class="multicolor-0:systemGreenColor hierarchical-0:tertiary SFSymbolsPreview28CD41" style="fill: #28CD41;"/>
<path d="M129.8,157.6c0.8-4,2.7-6.2,5.6-6.7c2.9-0.4,5.6,0.6,8.2,3.1c8.5,8.7,17.8,14.1,27.9,16.3c10,2.2,19.7,3.3,29.1,3.3  c8.7,0,18.1-0.8,28.2-2.4c10.1-1.6,20-2.4,29.5-2.4c27.9,0,50.9,6.9,68.8,20.8c17.9,13.9,26.9,35.1,26.9,63.5c0,2.7-0.1,5.3-0.3,7.8  c-0.2,2.5-0.4,4.7-0.8,6.5c-0.3,1.8-1.5,3.1-3.5,3.9c-2,0.8-3.9,0.1-5.8-1.9c-10.2-9.2-20.3-15.8-30.4-19.8c-10-4-20-6.7-29.7-8.2  c-9.8-1.4-19.4-2.6-28.7-3.6c-9.4-1-18.6-3-27.6-5.9c-9-2.9-17.7-8-26.1-15.2c-2-1.8-3.8-2.2-5.4-1c-1.6,1.2-2,2.7-1.4,4.5  c4,10.5,10.1,18.3,18.2,23.3c8.1,5,17.5,8.7,28.1,11c10.6,2.3,21.9,4.6,33.9,6.8c12,2.2,23.9,5.4,35.8,9.8s23,11.3,33.4,20.8  c4,3.7,8.8,8.9,14.4,15.6c5.6,6.7,10.5,13.7,14.7,21c4.2,7.3,6.3,13.6,6.3,18.9c0,5.2-1.5,9.5-4.6,12.8c-3.1,3.3-6.8,5-11.2,5  c-1.8,0-3.7-0.6-5.5-1.8c-1.8-1.2-3.2-3.1-4-5.8c-3.8-12.4-7.9-23-12-32c-4.2-9-10-17.4-17.6-25.2h14.8c-2,3.5-6.1,8.4-12.3,14.8  c-6.2,6.4-14.9,12.2-26.2,17.6c-11.3,5.4-25.5,8-42.5,8c-26.4,0-49.5-6.1-69.3-18.2c-19.7-12.1-35.1-29.1-45.9-50.9  c-10.9-21.8-16.3-47.3-16.3-76.4c0-5.2,0.3-11.3,1-18.4C127.9,170,128.8,163.5,129.8,157.6z" class="multicolor-1:white hierarchical-1:primary SFSymbolsPreviewFFFFFF" style="fill: #FFFFFF;"/>
</svg>