<?xml version="1.0" ?><!-- Generator: Adobe Illustrator 25.0.0, SVG Export Plug-In . SVG Version: 6.00 Build 0)  --><svg xmlns="http://www.w3.org/2000/svg" xmlns:xlink="http://www.w3.org/1999/xlink" version="1.1" id="Layer_1" x="0px" y="0px" viewBox="0 0 512 512" style="enable-background:new 0 0 512 512;" xml:space="preserve">
<path d="M480.8,502.7c18.2,0,31.2-13,31.2-33.4c0-17.1-8.5-26.8-24.2-34.2l-400.2-178V253L487.8,76.5c15.6-7.4,24.2-17.1,24.2-34.2  c0-19.7-13.4-33.1-32.7-33.1c-10,0-16.3,2.6-23.8,6.3L37.9,207.7C16.3,217.4,0,234.5,0,257.9C0,281.6,16.3,298,37.9,308l417.6,187.6  C463.3,499.4,470,502.7,480.8,502.7z"/>
</svg>