<?xml version="1.0" ?><!-- Generator: Adobe Illustrator 25.0.0, SVG Export Plug-In . SVG Version: 6.00 Build 0)  --><svg xmlns="http://www.w3.org/2000/svg" xmlns:xlink="http://www.w3.org/1999/xlink" version="1.1" id="Layer_1" x="0px" y="0px" viewBox="0 0 512 512" style="enable-background:new 0 0 512 512;" xml:space="preserve">
<path d="M256,512c140,0,256-116.2,256-256C512,116,395.8,0,255.7,0C116,0,0,116,0,256C0,395.8,116.2,512,256,512z M323,362.2  c-5.3,0-8.5-1.3-12.5-3l-154.4-80.3c-10.8-5.5-15.3-12-15.3-22.8c0-9.8,5-17.1,15.3-22.8l154.4-83.1c4.3-2,7.3-3.3,13.1-3.3  c12.3,0,21.1,9,21.1,20.6c0,9.8-4.5,16.1-15.1,21.1l-131.3,66v1.5l131.3,64.5c10.8,5,15.1,10.8,15.1,20.8  C344.6,353.1,335.6,362.2,323,362.2z"/>
</svg>