<?xml version="1.0" encoding="UTF-8"?>
<!--Generator: Apple Native CoreSVG 326-->
<!DOCTYPE svg
PUBLIC "-//W3C//DTD SVG 1.1//EN"
       "http://www.w3.org/Graphics/SVG/1.1/DTD/svg11.dtd">
<svg version="1.1" xmlns="http://www.w3.org/2000/svg" xmlns:xlink="http://www.w3.org/1999/xlink" viewBox="0 0 23.3203 22.959">
 <g>
  <rect height="22.959" opacity="0" width="23.3203" x="0" y="0"/>
  <path d="M22.959 3.76953L22.959 19.1992C22.959 21.6797 21.6797 22.959 19.1504 22.959L3.79883 22.959C1.2793 22.959 0 21.6992 0 19.1992L0 3.76953C0 1.26953 1.2793 0 3.79883 0L19.1504 0C21.6797 0 22.959 1.2793 22.959 3.76953ZM7.42188 16.0156C6.96289 16.0156 6.60156 16.3867 6.60156 16.8359C6.60156 17.2461 6.96289 17.6367 7.42188 17.6367L14.9023 17.6367C15.3711 17.6367 15.7324 17.2461 15.7324 16.8359C15.7324 16.3867 15.3711 16.0156 14.9023 16.0156ZM13.9844 5.60547L7.43164 8.59375C6.9043 8.83789 6.71875 9.20898 6.71875 9.63867C6.71875 10.127 6.89453 10.4688 7.43164 10.6934L13.9844 13.6719C14.2383 13.7988 14.3652 13.8379 14.502 13.8379C15 13.8379 15.3418 13.4375 15.3418 13.0176C15.3418 12.6855 15.1562 12.373 14.8145 12.2363L9.12109 9.66797L9.12109 9.61914L14.8145 7.07031C15.1562 6.9043 15.3418 6.60156 15.3418 6.26953C15.3418 5.84961 15 5.46875 14.502 5.46875C14.3652 5.46875 14.2383 5.49805 13.9844 5.60547Z" fill="black" fill-opacity="0.85"/>
 </g>
</svg>
