<?xml version="1.0" encoding="UTF-8"?>
<!--Generator: Apple Native CoreSVG 326-->
<!DOCTYPE svg
PUBLIC "-//W3C//DTD SVG 1.1//EN"
       "http://www.w3.org/Graphics/SVG/1.1/DTD/svg11.dtd">
<svg version="1.1" xmlns="http://www.w3.org/2000/svg" xmlns:xlink="http://www.w3.org/1999/xlink" viewBox="0 0 32.1973 20.5566">
 <g>
  <rect height="20.5566" opacity="0" width="32.1973" x="0" y="0"/>
  <path d="M3.79883 20.5566L28.0371 20.5566C30.5664 20.5566 31.8359 19.2773 31.8359 16.7871L31.8359 3.76953C31.8359 1.28906 30.5664 0.00976562 28.0371 0.00976562L3.79883 0.00976562C1.2793 0.00976562 0 1.26953 0 3.76953L0 16.7871C0 19.2871 1.2793 20.5566 3.79883 20.5566ZM3.83789 18.8184C2.4707 18.8184 1.72852 18.0957 1.72852 16.6992L1.72852 3.86719C1.72852 2.46094 2.4707 1.73828 3.83789 1.73828L28.0078 1.73828C29.3359 1.73828 30.1074 2.46094 30.1074 3.86719L30.1074 16.6992C30.1074 18.0957 29.3359 18.8184 28.0078 18.8184Z" fill="black" fill-opacity="0.85"/>
  <path d="M3.98438 14.6582C4.35547 14.6582 4.57031 14.4238 4.63867 14.082L5.00977 12.4023L6.91406 12.4023L7.27539 14.0918C7.34375 14.4531 7.55859 14.6582 7.93945 14.6582C8.31055 14.6582 8.55469 14.375 8.55469 14.0234C8.55469 13.9258 8.54492 13.7695 8.52539 13.6719L6.88477 6.67969C6.77734 6.21094 6.47461 5.9082 5.92773 5.9082C5.46875 5.9082 5.14648 6.18164 5.0293 6.68945L3.39844 13.6523C3.36914 13.7598 3.33984 13.916 3.33984 14.0234C3.33984 14.3945 3.56445 14.6582 3.98438 14.6582ZM5.16602 11.3574L5.95703 7.71484L6.74805 11.3574ZM10.0781 14.6582C10.4785 14.6582 10.7227 14.4141 10.7227 13.9941L10.7227 11.6309L11.6797 11.6309C13.1543 11.6309 14.0137 10.4004 14.0137 8.83789C14.0137 7.40234 13.2617 6.02539 11.7676 6.02539L10.0781 6.02539C9.6582 6.02539 9.44336 6.30859 9.44336 6.68945L9.44336 13.9941C9.44336 14.4141 9.67773 14.6582 10.0781 14.6582ZM10.7227 10.5859L10.7227 7.07031L11.4453 7.07031C12.373 7.07031 12.7148 7.89062 12.7148 8.83789C12.7148 9.78516 12.3535 10.5859 11.4453 10.5859ZM17.0215 14.6387C17.4121 14.6387 17.6855 14.3359 17.6855 13.9453L17.6855 6.64062C17.6855 6.23047 17.3828 5.91797 16.9629 5.91797C16.6699 5.91797 16.4258 6.03516 16.123 6.28906L15.0488 7.24609C14.8633 7.41211 14.7559 7.58789 14.7559 7.77344C14.7559 8.07617 14.9902 8.29102 15.2734 8.29102C15.4004 8.29102 15.5469 8.23242 15.6348 8.16406L16.377 7.5293L16.377 13.9453C16.377 14.3359 16.6504 14.6387 17.0215 14.6387ZM19.2871 14.541L22.4219 14.541C22.7246 14.541 22.9688 14.2871 22.9688 13.9648C22.9688 13.6426 22.7246 13.3984 22.4219 13.3984L20.2539 13.3984L21.6504 11.2695C22.2852 10.332 22.8418 9.29688 22.8418 8.25195C22.8418 6.82617 22.0508 5.84961 20.7324 5.84961C19.3848 5.84961 18.6621 7.27539 18.6621 8.16406C18.6621 8.50586 18.8867 8.7793 19.2383 8.7793C19.5801 8.7793 19.7656 8.57422 19.8535 8.19336C19.9707 7.56836 20.1465 6.99219 20.7227 6.99219C21.2988 6.99219 21.5723 7.5293 21.5723 8.28125C21.5723 9.0332 21.1816 9.88281 20.5859 10.7617L18.916 13.3203C18.7109 13.623 18.6719 13.7891 18.6719 13.9551C18.6719 14.3262 18.9355 14.541 19.2871 14.541ZM25.9668 14.6973C27.4023 14.6973 28.252 13.5449 28.252 12.1387C28.252 11.2207 27.8906 10.3711 27.1289 10.0781C27.7246 9.6875 28.0371 8.92578 28.0371 8.16406C28.0371 6.95312 27.334 5.86914 25.9082 5.86914C24.6484 5.86914 23.7988 6.9043 23.7988 8.03711C23.7988 8.37891 24.0332 8.62305 24.3652 8.62305C24.6777 8.62305 24.9023 8.45703 24.9805 8.11523C25.1172 7.48047 25.3906 7.00195 25.9082 7.00195C26.4844 7.00195 26.7773 7.51953 26.7773 8.25195C26.7773 8.93555 26.4941 9.61914 25.7617 9.61914L25.4492 9.61914C25.1367 9.61914 24.9023 9.84375 24.9023 10.1465C24.9023 10.459 25.1367 10.7031 25.4492 10.7031L25.7617 10.7031C26.6113 10.7031 26.9531 11.2109 26.9531 12.1094C26.9531 12.9199 26.6797 13.5449 25.9668 13.5449C25.4297 13.5449 25.0488 13.1738 24.873 12.4023C24.8047 12.168 24.6484 11.9043 24.2871 11.9043C23.8672 11.9043 23.6816 12.2168 23.6816 12.5098C23.6816 13.3398 24.3555 14.6973 25.9668 14.6973Z" fill="black" fill-opacity="0.85"/>
 </g>
</svg>
