<?xml version="1.0" encoding="UTF-8"?>
<!--Generator: Apple Native CoreSVG 326-->
<!DOCTYPE svg
PUBLIC "-//W3C//DTD SVG 1.1//EN"
       "http://www.w3.org/Graphics/SVG/1.1/DTD/svg11.dtd">
<svg version="1.1" xmlns="http://www.w3.org/2000/svg" xmlns:xlink="http://www.w3.org/1999/xlink" viewBox="0 0 32.1973 20.5566">
 <g>
  <rect height="20.5566" opacity="0" width="32.1973" x="0" y="0"/>
  <path d="M31.8359 3.76953L31.8359 16.7871C31.8359 19.2773 30.5664 20.5566 28.0371 20.5566L3.79883 20.5566C1.2793 20.5566 0 19.2871 0 16.7871L0 3.76953C0 1.26953 1.2793 0.00976562 3.79883 0.00976562L28.0371 0.00976562C30.5664 0.00976562 31.8359 1.28906 31.8359 3.76953ZM23.9844 7.98828C23.9844 8.33984 24.2285 8.59375 24.5703 8.59375C24.9023 8.59375 25.127 8.41797 25.2148 8.06641C25.3516 7.42188 25.625 6.94336 26.1523 6.94336C26.7285 6.94336 27.041 7.46094 27.041 8.21289C27.041 8.90625 26.7383 9.59961 25.9961 9.59961L25.6836 9.59961C25.3613 9.59961 25.127 9.83398 25.127 10.1465C25.127 10.4688 25.3613 10.7227 25.6836 10.7227L25.9961 10.7227C26.875 10.7227 27.207 11.2305 27.207 12.1484C27.207 12.9785 26.9336 13.6035 26.2109 13.6035C25.6738 13.6035 25.2832 13.2324 25.0977 12.4512C25.0293 12.207 24.8633 11.9336 24.4922 11.9336C24.0625 11.9336 23.8672 12.2559 23.8672 12.5586C23.8672 13.4082 24.5605 14.7949 26.2109 14.7949C27.6758 14.7949 28.5547 13.623 28.5547 12.1777C28.5547 11.2402 28.1836 10.3711 27.4121 10.0781C28.0078 9.67773 28.3301 8.89648 28.3301 8.11523C28.3301 6.88477 27.6074 5.77148 26.1523 5.77148C24.873 5.77148 23.9844 6.81641 23.9844 7.98828ZM4.75586 6.62109L3.0957 13.7207C3.07617 13.8281 3.04688 13.9844 3.04688 14.1016C3.04688 14.4824 3.27148 14.7559 3.70117 14.7559C4.08203 14.7559 4.31641 14.5117 4.38477 14.1602L4.75586 12.4609L6.68945 12.4609L7.06055 14.1699C7.12891 14.541 7.35352 14.7559 7.74414 14.7559C8.13477 14.7559 8.37891 14.4629 8.37891 14.1016C8.37891 13.9941 8.36914 13.8379 8.34961 13.7402L6.67969 6.61133C6.57227 6.12305 6.25977 5.81055 5.69336 5.81055C5.20508 5.81055 4.87305 6.09375 4.75586 6.62109ZM9.94141 5.9375C9.51172 5.9375 9.28711 6.23047 9.28711 6.62109L9.28711 14.0723C9.28711 14.502 9.53125 14.7559 9.94141 14.7559C10.3516 14.7559 10.6055 14.502 10.6055 14.0723L10.6055 11.6699L11.582 11.6699C13.0859 11.6699 13.9648 10.4102 13.9648 8.80859C13.9648 7.33398 13.2031 5.9375 11.6699 5.9375ZM16.123 6.21094L15.0293 7.17773C14.834 7.34375 14.7266 7.5293 14.7266 7.72461C14.7266 8.03711 14.9609 8.25195 15.2539 8.25195C15.3906 8.25195 15.5371 8.19336 15.625 8.125L16.377 7.48047L16.377 14.0137C16.377 14.4238 16.6602 14.7363 17.0508 14.7363C17.4512 14.7363 17.7344 14.4238 17.7344 14.0137L17.7344 6.57227C17.7344 6.14258 17.4219 5.82031 16.9824 5.82031C16.6797 5.82031 16.4355 5.94727 16.123 6.21094ZM18.7305 8.11523C18.7305 8.4668 18.9648 8.74023 19.3262 8.74023C19.6777 8.74023 19.873 8.54492 19.9609 8.14453C20.0781 7.50977 20.2637 6.93359 20.8398 6.93359C21.4258 6.93359 21.6992 7.48047 21.6992 8.24219C21.6992 9.01367 21.3086 9.87305 20.6934 10.7715L18.9941 13.3887C18.7793 13.6914 18.7402 13.8574 18.7402 14.0332C18.7402 14.4141 19.0137 14.6484 19.375 14.6484L22.5781 14.6484C22.8906 14.6484 23.1445 14.375 23.1445 14.043C23.1445 13.7109 22.8906 13.457 22.5781 13.457L20.3711 13.457L21.7969 11.2988C22.4512 10.3418 23.0176 9.27734 23.0176 8.21289C23.0176 6.74805 22.207 5.75195 20.8496 5.75195C19.4727 5.75195 18.7305 7.20703 18.7305 8.11523ZM6.52344 11.377L4.92188 11.377L5.72266 7.67578ZM12.627 8.80859C12.627 9.77539 12.2656 10.5957 11.3379 10.5957L10.6055 10.5957L10.6055 7.01172L11.3379 7.01172C12.2852 7.01172 12.627 7.8418 12.627 8.80859Z" fill="black" fill-opacity="0.85"/>
 </g>
</svg>
