<?xml version="1.0" encoding="UTF-8"?>
<!--Generator: Apple Native CoreSVG 326-->
<!DOCTYPE svg
PUBLIC "-//W3C//DTD SVG 1.1//EN"
       "http://www.w3.org/Graphics/SVG/1.1/DTD/svg11.dtd">
<svg version="1.1" xmlns="http://www.w3.org/2000/svg" xmlns:xlink="http://www.w3.org/1999/xlink" viewBox="0 0 27.4414 29.9316">
 <g>
  <rect height="29.9316" opacity="0" width="27.4414" x="0" y="0"/>
  <path d="M7.7832 27.041C6.12305 27.041 4.78516 26.1816 4.75586 24.9219L10.8008 24.9219C10.7812 26.1816 9.41406 27.041 7.7832 27.041ZM11.582 23.3398C11.582 23.7109 11.2695 23.9941 10.918 23.9941L4.62891 23.9941C4.26758 23.9941 3.97461 23.7012 3.97461 23.3398C3.97461 22.9688 4.26758 22.6758 4.62891 22.6758L10.918 22.6758C11.2695 22.6758 11.582 22.959 11.582 23.3398ZM10.6502 3.80317C9.68223 5.1596 9.12109 6.79541 9.12109 8.56445C9.12109 12.8261 10.8993 14.4455 11.942 18.5933C11.7983 19.3252 11.6787 20.1541 11.5918 21.0938C11.5625 21.4746 11.3184 21.7383 10.918 21.7383L4.61914 21.7383C4.20898 21.7383 3.96484 21.4746 3.93555 21.0938C3.31055 14.3359 0.996094 13.3105 0.996094 9.47266C0.996094 6.01562 3.99414 3.20312 7.76367 3.20312C8.80104 3.20312 9.77998 3.41613 10.6502 3.80317Z" fill="black" fill-opacity="0.85"/>
  <path d="M18.2812 1.35742C13.916 1.35742 10.4785 4.58008 10.4785 8.56445C10.4785 12.9785 13.1641 14.1602 13.8965 22.0996C13.9453 22.5293 14.1602 22.7734 14.6191 22.7734L21.9336 22.7734C22.3926 22.7734 22.6172 22.5293 22.6562 22.0996C23.3887 14.1602 26.084 12.9785 26.084 8.56445C26.084 4.58008 22.6465 1.35742 18.2812 1.35742ZM14.6289 25.2051L21.9434 25.2051C22.3242 25.2051 22.627 24.9219 22.627 24.541C22.627 24.1602 22.3242 23.8672 21.9434 23.8672L14.6289 23.8672C14.248 23.8672 13.9551 24.1602 13.9551 24.541C13.9551 24.9219 14.248 25.2051 14.6289 25.2051ZM18.2812 28.5645C20.1172 28.5645 21.6211 27.6562 21.6992 26.2988L14.8633 26.2988C14.9414 27.6562 16.4453 28.5645 18.2812 28.5645Z" fill="black" fill-opacity="0.85"/>
 </g>
</svg>
