<?xml version="1.0" encoding="UTF-8"?>
<!--Generator: Apple Native CoreSVG 326-->
<!DOCTYPE svg
PUBLIC "-//W3C//DTD SVG 1.1//EN"
       "http://www.w3.org/Graphics/SVG/1.1/DTD/svg11.dtd">
<svg version="1.1" xmlns="http://www.w3.org/2000/svg" xmlns:xlink="http://www.w3.org/1999/xlink" viewBox="0 0 30.6834 27.9202">
 <g>
  <rect height="27.9202" opacity="0" width="30.6834" x="0" y="0"/>
  <path d="M2.08975 15.8204C2.77335 16.9923 3.81827 17.256 4.97061 16.6017L21.1816 7.23646C22.3339 6.56263 22.6464 5.51771 21.9628 4.34583L20.2343 1.36732C19.5507 0.175911 18.5155-0.077995 17.3632 0.595833L1.13272 9.96107C-0.0196212 10.6251-0.322356 11.6505 0.361238 12.8419ZM16.6601 5.42982C16.3866 4.96107 16.5429 4.3556 17.0116 4.09193C17.4804 3.81849 18.0858 3.98451 18.3593 4.45326C18.623 4.91224 18.4569 5.50794 17.9882 5.79115C17.5194 6.05482 16.9237 5.8888 16.6601 5.42982ZM13.4862 7.25599C13.2128 6.78724 13.3691 6.19154 13.8378 5.9181C14.3066 5.64466 14.9023 5.81068 15.1757 6.27943C15.4491 6.74818 15.2831 7.34388 14.8144 7.61732C14.3456 7.89076 13.7499 7.72474 13.4862 7.25599ZM10.3124 9.09193C10.039 8.62318 10.205 8.01771 10.6737 7.74427C11.1425 7.4806 11.7382 7.64661 12.0019 8.1056C12.2753 8.57435 12.1191 9.17982 11.6503 9.44349C11.1816 9.71693 10.5858 9.55091 10.3124 9.09193ZM7.13858 10.9181C6.86514 10.4493 7.03116 9.85365 7.49991 9.58997C7.96866 9.30677 8.57413 9.46302 8.84757 9.93177C9.121 10.4103 8.94522 10.9962 8.47647 11.2697C8.00772 11.5431 7.41202 11.3966 7.13858 10.9181ZM3.95499 12.7443C3.69132 12.2755 3.85733 11.6896 4.32608 11.4161C4.79483 11.1427 5.39054 11.299 5.66397 11.7677C5.93741 12.2462 5.77139 12.8322 5.30264 13.0958C4.83389 13.379 4.22843 13.2228 3.95499 12.7443ZM19.3066 1.26966L19.9413 2.34388L22.0019 1.16224C22.3046 0.986458 22.4023 0.615364 22.2265 0.31263C22.0507 0.0196613 21.6796-0.0877606 21.3769 0.078255ZM20.9667 4.12122L21.5917 5.20521L23.6425 4.02357C23.9843 3.83802 24.0624 3.50599 23.8671 3.16419C23.6913 2.86146 23.33 2.7638 23.0273 2.93958ZM10.0976 26.504C10.7714 27.6661 11.8358 27.9396 12.9882 27.2853L29.1991 17.9201C30.3515 17.2462 30.6444 16.1915 29.9706 15.0294L28.2519 12.0509C27.5683 10.8595 26.5233 10.6056 25.371 11.2794L9.1503 20.6447C7.99796 21.3087 7.69522 22.3341 8.37882 23.5255ZM24.6776 16.0939C24.4042 15.6251 24.5605 15.049 25.039 14.7755C25.5077 14.4923 26.1034 14.6486 26.3671 15.1173C26.6405 15.5958 26.4843 16.1915 26.0155 16.4552C25.537 16.7286 24.9413 16.5724 24.6776 16.0939ZM21.4941 17.9298C21.2206 17.4611 21.3866 16.8751 21.8651 16.6017C22.3339 16.338 22.9296 16.4845 23.203 16.9533C23.4765 17.4318 23.3105 18.0177 22.8417 18.2911C22.3632 18.5646 21.7675 18.4181 21.4941 17.9298ZM18.33 19.7658C18.0663 19.297 18.2226 18.7013 18.6913 18.4279C19.1601 18.1642 19.7558 18.3204 20.0292 18.7892C20.2929 19.2482 20.1366 19.8536 19.6679 20.1271C19.2089 20.4005 18.6034 20.2345 18.33 19.7658ZM15.1659 21.5919C14.8925 21.1232 15.0585 20.5275 15.5273 20.254C15.996 19.9904 16.5819 20.1466 16.8554 20.6154C17.1288 21.0841 16.9726 21.6701 16.5038 21.9533C16.0351 22.2267 15.4296 22.0607 15.1659 21.5919ZM11.9823 23.4279C11.7089 22.9591 11.8749 22.3634 12.3437 22.0802C12.8124 21.8068 13.4179 21.9826 13.6816 22.4513C13.955 22.9201 13.7987 23.5158 13.33 23.7892C12.8515 24.0626 12.2558 23.8966 11.9823 23.4279ZM11.0253 26.6115L10.4003 25.5275L8.32999 26.7189C8.02725 26.8947 7.94913 27.256 8.11514 27.5685C8.32022 27.9005 8.64249 27.9982 8.96475 27.8029ZM9.37491 23.7501L8.75968 22.6661L6.68936 23.8576C6.38663 24.0333 6.29874 24.4142 6.47452 24.7072C6.6503 25.0099 7.01163 25.1076 7.3046 24.9415ZM6.35733 17.1486L12.8808 17.1486L23.6718 10.9083L17.1483 10.9083Z" fill="black" fill-opacity="0.85"/>
 </g>
</svg>
