<?xml version="1.0" encoding="UTF-8"?>
<!--Generator: Apple Native CoreSVG 326-->
<!DOCTYPE svg
PUBLIC "-//W3C//DTD SVG 1.1//EN"
       "http://www.w3.org/Graphics/SVG/1.1/DTD/svg11.dtd">
<svg version="1.1" xmlns="http://www.w3.org/2000/svg" xmlns:xlink="http://www.w3.org/1999/xlink" viewBox="0 0 35.0098 20.8301">
 <g>
  <rect height="20.8301" opacity="0" width="35.0098" x="0" y="0"/>
  <path d="M17.3145 20.8203C27.5488 20.8203 34.6484 16.1426 34.6484 10.4102C34.6484 4.67773 27.5488 0 17.3145 0C7.08984 0 0 4.67773 0 10.4102C0 16.1426 7.08984 20.8203 17.3145 20.8203ZM17.3145 17.3535C10.5957 17.3535 5.60547 14.5312 5.60547 10.752C5.60547 6.97266 10.6055 4.15039 17.3145 4.15039C24.043 4.15039 29.043 6.97266 29.043 10.752C29.043 14.5215 24.0332 17.3535 17.3145 17.3535ZM17.3145 15.9277C23.1055 15.9277 27.6172 13.6133 27.6172 10.752C27.6172 9.53125 26.8066 8.42773 25.4395 7.55859C24.082 9.79492 20.8984 11.3574 17.2656 11.3574C13.6621 11.3574 10.498 9.82422 9.13086 7.60742C7.8125 8.4668 7.04102 9.55078 7.04102 10.752C7.04102 13.6133 11.5137 15.9277 17.3145 15.9277Z" fill="black" fill-opacity="0.85"/>
 </g>
</svg>
