<?xml version="1.0" encoding="UTF-8"?>
<!--Generator: Apple Native CoreSVG 326-->
<!DOCTYPE svg
PUBLIC "-//W3C//DTD SVG 1.1//EN"
       "http://www.w3.org/Graphics/SVG/1.1/DTD/svg11.dtd">
<svg version="1.1" xmlns="http://www.w3.org/2000/svg" xmlns:xlink="http://www.w3.org/1999/xlink" viewBox="0 0 21.3379 30.5957">
 <g>
  <rect height="30.5957" opacity="0" width="21.3379" x="0" y="0"/>
  <path d="M11.875 25.6348C11.875 27.1484 12.7441 28.0176 14.2773 28.0176L18.5645 28.0176C20.0977 28.0176 20.9766 27.1484 20.9766 25.625L20.9766 5C20.9766 3.47656 20.0977 2.60742 18.5645 2.60742L14.2773 2.60742C12.7441 2.60742 11.875 3.47656 11.875 4.99023ZM13.5059 25.4785L13.5059 5.13672C13.5059 4.57031 13.8574 4.23828 14.4434 4.23828L18.418 4.23828C19.0039 4.23828 19.3457 4.57031 19.3457 5.13672L19.3457 25.4785C19.3457 26.0547 19.0039 26.3867 18.418 26.3867L14.4434 26.3867C13.8574 26.3867 13.5059 26.0547 13.5059 25.4785ZM13.8574 27.2168L13.8574 29.8828C13.8574 30.2832 14.1699 30.5957 14.5703 30.5957C14.9805 30.5957 15.3027 30.2832 15.3027 29.8926L15.3027 27.2168ZM17.5488 27.2168L17.5488 29.8926C17.5488 30.2832 17.8613 30.5957 18.2715 30.5957C18.6719 30.5957 18.9941 30.2832 18.9941 29.8828L18.9941 27.2168ZM16.4258 8.38867C17.0312 8.38867 17.5293 7.89062 17.5293 7.28516C17.5293 6.66992 17.0312 6.17188 16.4258 6.17188C15.8203 6.17188 15.3223 6.66992 15.3223 7.28516C15.3223 7.89062 15.8203 8.38867 16.4258 8.38867ZM16.4258 12.4121C17.0312 12.4121 17.5293 11.9141 17.5293 11.2891C17.5293 10.6836 17.0312 10.1855 16.4258 10.1855C15.8203 10.1855 15.3223 10.6836 15.3223 11.2891C15.3223 11.9141 15.8203 12.4121 16.4258 12.4121ZM16.4258 16.416C17.0312 16.416 17.5293 15.9277 17.5293 15.3125C17.5293 14.707 17.0312 14.209 16.4258 14.209C15.8203 14.209 15.3223 14.707 15.3223 15.3125C15.3223 15.9277 15.8203 16.416 16.4258 16.416ZM16.4258 20.4199C17.0312 20.4199 17.5293 19.9316 17.5293 19.3164C17.5293 18.7012 17.0312 18.2129 16.4258 18.2129C15.8203 18.2129 15.3223 18.7012 15.3223 19.3164C15.3223 19.9316 15.8203 20.4199 16.4258 20.4199ZM16.4258 24.4336C17.0312 24.4336 17.5293 23.9453 17.5293 23.3301C17.5293 22.7148 17.0312 22.2266 16.4258 22.2266C15.8203 22.2266 15.3223 22.7148 15.3223 23.3301C15.3223 23.9453 15.8203 24.4336 16.4258 24.4336Z" fill="black" fill-opacity="0.85"/>
  <path d="M0 25.5957C0 27.1191 0.878906 27.9883 2.40234 27.9883L6.68945 27.9883C8.22266 27.9883 9.10156 27.1191 9.10156 25.5859L9.10156 4.9707C9.10156 3.44727 8.22266 2.57812 6.68945 2.57812L2.40234 2.57812C0.878906 2.57812 0 3.44727 0 4.96094ZM1.63086 25.4492L1.63086 5.10742C1.63086 4.53125 1.98242 4.20898 2.56836 4.20898L6.54297 4.20898C7.12891 4.20898 7.4707 4.53125 7.4707 5.10742L7.4707 25.4492C7.4707 26.0254 7.12891 26.3574 6.54297 26.3574L2.56836 26.3574C1.98242 26.3574 1.63086 26.0254 1.63086 25.4492ZM1.98242 3.37891L3.42773 3.37891L3.42773 0.703125C3.42773 0.3125 3.10547 0 2.69531 0C2.29492 0 1.98242 0.3125 1.98242 0.712891ZM5.67383 3.37891L7.11914 3.37891L7.11914 0.712891C7.11914 0.3125 6.79688 0 6.39648 0C5.98633 0 5.67383 0.3125 5.67383 0.703125ZM4.55078 8.36914C5.16602 8.36914 5.6543 7.88086 5.6543 7.26562C5.6543 6.65039 5.16602 6.16211 4.55078 6.16211C3.94531 6.16211 3.44727 6.65039 3.44727 7.26562C3.44727 7.88086 3.94531 8.36914 4.55078 8.36914ZM4.55078 12.3828C5.16602 12.3828 5.6543 11.8945 5.6543 11.2793C5.6543 10.6641 5.16602 10.1758 4.55078 10.1758C3.94531 10.1758 3.44727 10.6641 3.44727 11.2793C3.44727 11.8945 3.94531 12.3828 4.55078 12.3828ZM4.55078 16.3867C5.16602 16.3867 5.6543 15.8887 5.6543 15.2832C5.6543 14.668 5.16602 14.1797 4.55078 14.1797C3.94531 14.1797 3.44727 14.668 3.44727 15.2832C3.44727 15.8887 3.94531 16.3867 4.55078 16.3867ZM4.55078 20.4004C5.16602 20.4004 5.6543 19.9121 5.6543 19.2969C5.6543 18.6816 5.16602 18.1836 4.55078 18.1836C3.94531 18.1836 3.44727 18.6816 3.44727 19.2969C3.44727 19.9121 3.94531 20.4004 4.55078 20.4004ZM4.55078 24.4238C5.16602 24.4238 5.6543 23.9258 5.6543 23.3105C5.6543 22.6953 5.16602 22.207 4.55078 22.207C3.94531 22.207 3.44727 22.6953 3.44727 23.3105C3.44727 23.9258 3.94531 24.4238 4.55078 24.4238Z" fill="black" fill-opacity="0.85"/>
 </g>
</svg>
