<?xml version="1.0" encoding="UTF-8"?>
<!--Generator: Apple Native CoreSVG 326-->
<!DOCTYPE svg
PUBLIC "-//W3C//DTD SVG 1.1//EN"
       "http://www.w3.org/Graphics/SVG/1.1/DTD/svg11.dtd">
<svg version="1.1" xmlns="http://www.w3.org/2000/svg" xmlns:xlink="http://www.w3.org/1999/xlink" viewBox="0 0 41.3281 29.4043">
 <g>
  <rect height="29.4043" opacity="0" width="41.3281" x="0" y="0"/>
  <path d="M20.4883 29.4043C25.9277 29.4043 30.0781 26.8652 30.0781 23.4961C30.0781 20.1172 25.9277 17.5684 20.4883 17.5684C15.0586 17.5684 10.9082 20.127 10.9082 23.4961C10.9082 26.8555 15.0586 29.4043 20.4883 29.4043ZM20.4883 28.0273C15.7715 28.0273 12.2754 26.0156 12.2754 23.4961C12.2754 20.957 15.7812 18.9453 20.4883 18.9453C25.1758 18.9453 28.6816 20.957 28.6816 23.4961C28.6816 26.0156 25.1855 28.0273 20.4883 28.0273ZM20.4883 27.1094C24.0137 27.1094 26.6113 25.6641 26.6113 23.6621C26.6113 21.6602 24.0137 20.2148 20.4883 20.2148C16.9629 20.2148 14.375 21.6602 14.375 23.6621C14.375 25.6543 16.9629 27.1094 20.4883 27.1094ZM20.4883 25.8984C17.6172 25.8984 15.5762 24.9023 15.5762 23.6621C15.5762 22.4121 17.6172 21.416 20.4883 21.416C23.3691 21.416 25.4004 22.4121 25.4004 23.6621C25.4004 24.9023 23.3594 25.8984 20.4883 25.8984ZM20.4883 24.1504C22.6172 24.1504 24.4629 23.2031 25.0684 21.875C23.8379 21.2109 22.2461 20.7812 20.4883 20.7812C18.7695 20.7812 17.1582 21.2109 15.9375 21.875C16.543 23.1934 18.3691 24.1504 20.4883 24.1504Z" fill="black" fill-opacity="0.85"/>
  <path d="M31.377 17.1191C36.8066 17.1191 40.9668 14.5801 40.9668 11.2012C40.9668 7.83203 36.8066 5.27344 31.377 5.27344C25.9473 5.27344 21.7969 7.8418 21.7969 11.2012C21.7969 14.5703 25.9473 17.1191 31.377 17.1191ZM31.377 15.7324C26.6602 15.7324 23.1641 13.7305 23.1641 11.2012C23.1641 8.68164 26.6699 6.65039 31.377 6.65039C36.0645 6.65039 39.5605 8.68164 39.5605 11.2012C39.5605 13.7305 36.0742 15.7324 31.377 15.7324ZM31.377 14.8242C34.8926 14.8242 37.5 13.3789 37.5 11.3867C37.5 9.375 34.8926 7.91992 31.377 7.91992C27.8418 7.91992 25.2441 9.375 25.2441 11.3867C25.2441 13.3789 27.8418 14.8242 31.377 14.8242ZM31.377 13.623C28.4961 13.623 26.4648 12.6172 26.4648 11.3867C26.4648 10.127 28.4961 9.13086 31.377 9.13086C34.2578 9.13086 36.2891 10.127 36.2891 11.3867C36.2891 12.6172 34.248 13.623 31.377 13.623ZM31.377 11.8652C33.5059 11.8652 35.3418 10.9277 35.9473 9.59961C34.7266 8.91602 33.1152 8.49609 31.377 8.49609C29.6484 8.49609 28.0469 8.91602 26.8262 9.59961C27.4219 10.918 29.2676 11.8652 31.377 11.8652Z" fill="black" fill-opacity="0.85"/>
  <path d="M9.59961 17.1191C15.0195 17.1191 19.1699 14.5703 19.1699 11.2012C19.1699 7.8418 15.0195 5.27344 9.59961 5.27344C4.16016 5.27344 0 7.83203 0 11.2012C0 14.5801 4.16016 17.1191 9.59961 17.1191ZM9.59961 15.7324C4.88281 15.7324 1.40625 13.7305 1.40625 11.2012C1.40625 8.68164 4.89258 6.65039 9.59961 6.65039C14.2969 6.65039 17.8027 8.68164 17.8027 11.2012C17.8027 13.7305 14.2969 15.7324 9.59961 15.7324ZM9.59961 14.8242C13.1348 14.8242 15.7422 13.3789 15.7422 11.3867C15.7422 9.375 13.1348 7.91992 9.59961 7.91992C6.08398 7.91992 3.48633 9.375 3.48633 11.3867C3.48633 13.3789 6.08398 14.8242 9.59961 14.8242ZM9.59961 13.623C6.72852 13.623 4.69727 12.6172 4.69727 11.3867C4.69727 10.127 6.72852 9.13086 9.59961 9.13086C12.4805 9.13086 14.5215 10.127 14.5215 11.3867C14.5215 12.6172 12.4805 13.623 9.59961 13.623ZM9.59961 11.8652C11.709 11.8652 13.5449 10.918 14.1406 9.59961C12.9199 8.91602 11.3281 8.49609 9.59961 8.49609C7.86133 8.49609 6.25 8.91602 5.01953 9.59961C5.625 10.9277 7.46094 11.8652 9.59961 11.8652Z" fill="black" fill-opacity="0.85"/>
 </g>
</svg>
