<?xml version="1.0" encoding="UTF-8"?>
<!--Generator: Apple Native CoreSVG 326-->
<!DOCTYPE svg
PUBLIC "-//W3C//DTD SVG 1.1//EN"
       "http://www.w3.org/Graphics/SVG/1.1/DTD/svg11.dtd">
<svg version="1.1" xmlns="http://www.w3.org/2000/svg" xmlns:xlink="http://www.w3.org/1999/xlink" viewBox="0 0 21.3379 30.5957">
 <g>
  <rect height="30.5957" opacity="0" width="21.3379" x="0" y="0"/>
  <path d="M11.875 25.6348C11.875 27.1484 12.7441 28.0176 14.2773 28.0176L18.5645 28.0176C20.0977 28.0176 20.9766 27.1484 20.9766 25.625L20.9766 5C20.9766 3.47656 20.0977 2.60742 18.5645 2.60742L14.2773 2.60742C12.7441 2.60742 11.875 3.47656 11.875 4.99023ZM13.8574 27.2168L13.8574 29.8828C13.8574 30.2832 14.1699 30.5957 14.5703 30.5957C14.9805 30.5957 15.3027 30.2832 15.3027 29.8926L15.3027 27.2168ZM17.5488 27.2168L17.5488 29.8926C17.5488 30.2832 17.8613 30.5957 18.2715 30.5957C18.6719 30.5957 18.9941 30.2832 18.9941 29.8828L18.9941 27.2168ZM16.4258 8.22266C15.8008 8.22266 15.293 7.71484 15.293 7.08984C15.293 6.45508 15.8008 5.94727 16.4258 5.94727C17.0508 5.94727 17.5586 6.45508 17.5586 7.08984C17.5586 7.71484 17.0508 8.22266 16.4258 8.22266ZM16.4258 12.3438C15.8008 12.3438 15.293 11.8262 15.293 11.1914C15.293 10.5664 15.8008 10.0586 16.4258 10.0586C17.0508 10.0586 17.5586 10.5664 17.5586 11.1914C17.5586 11.8262 17.0508 12.3438 16.4258 12.3438ZM16.4258 16.4453C15.8008 16.4453 15.293 15.9473 15.293 15.3125C15.293 14.6875 15.8008 14.1797 16.4258 14.1797C17.0508 14.1797 17.5586 14.6875 17.5586 15.3125C17.5586 15.9473 17.0508 16.4453 16.4258 16.4453ZM16.4258 20.5469C15.8008 20.5469 15.293 20.0488 15.293 19.4141C15.293 18.7793 15.8008 18.2812 16.4258 18.2812C17.0508 18.2812 17.5586 18.7793 17.5586 19.4141C17.5586 20.0488 17.0508 20.5469 16.4258 20.5469ZM16.4258 24.6582C15.8008 24.6582 15.293 24.1602 15.293 23.5254C15.293 22.8906 15.8008 22.3926 16.4258 22.3926C17.0508 22.3926 17.5586 22.8906 17.5586 23.5254C17.5586 24.1602 17.0508 24.6582 16.4258 24.6582Z" fill="black" fill-opacity="0.85"/>
  <path d="M0 25.5957C0 27.1191 0.878906 27.9883 2.40234 27.9883L6.68945 27.9883C8.22266 27.9883 9.10156 27.1191 9.10156 25.5859L9.10156 4.9707C9.10156 3.44727 8.22266 2.57812 6.68945 2.57812L2.40234 2.57812C0.878906 2.57812 0 3.44727 0 4.96094ZM1.98242 3.37891L3.42773 3.37891L3.42773 0.703125C3.42773 0.3125 3.10547 0 2.69531 0C2.29492 0 1.98242 0.3125 1.98242 0.712891ZM5.67383 3.37891L7.11914 3.37891L7.11914 0.712891C7.11914 0.3125 6.79688 0 6.39648 0C5.98633 0 5.67383 0.3125 5.67383 0.703125ZM4.55078 8.20312C3.92578 8.20312 3.41797 7.70508 3.41797 7.07031C3.41797 6.43555 3.92578 5.92773 4.55078 5.92773C5.18555 5.92773 5.68359 6.43555 5.68359 7.07031C5.68359 7.70508 5.18555 8.20312 4.55078 8.20312ZM4.55078 12.3145C3.92578 12.3145 3.41797 11.8164 3.41797 11.1816C3.41797 10.5469 3.92578 10.0488 4.55078 10.0488C5.18555 10.0488 5.68359 10.5469 5.68359 11.1816C5.68359 11.8164 5.18555 12.3145 4.55078 12.3145ZM4.55078 16.416C3.92578 16.416 3.41797 15.9082 3.41797 15.2832C3.41797 14.6484 3.92578 14.1504 4.55078 14.1504C5.18555 14.1504 5.68359 14.6484 5.68359 15.2832C5.68359 15.9082 5.18555 16.416 4.55078 16.416ZM4.55078 20.5371C3.92578 20.5371 3.41797 20.0293 3.41797 19.4043C3.41797 18.7598 3.92578 18.252 4.55078 18.252C5.18555 18.252 5.68359 18.7598 5.68359 19.4043C5.68359 20.0293 5.18555 20.5371 4.55078 20.5371ZM4.55078 24.6484C3.92578 24.6484 3.41797 24.1406 3.41797 23.5059C3.41797 22.8809 3.92578 22.373 4.55078 22.373C5.18555 22.373 5.68359 22.8809 5.68359 23.5059C5.68359 24.1406 5.18555 24.6484 4.55078 24.6484Z" fill="black" fill-opacity="0.85"/>
 </g>
</svg>
