<?xml version="1.0" encoding="UTF-8"?>
<!--Generator: Apple Native CoreSVG 326-->
<!DOCTYPE svg
PUBLIC "-//W3C//DTD SVG 1.1//EN"
       "http://www.w3.org/Graphics/SVG/1.1/DTD/svg11.dtd">
<svg version="1.1" xmlns="http://www.w3.org/2000/svg" xmlns:xlink="http://www.w3.org/1999/xlink" viewBox="0 0 22.5879 32.5684">
 <g>
  <rect height="32.5684" opacity="0" width="22.5879" x="0" y="0"/>
  <path d="M4.38477 28.8379L17.8418 28.8379C20.4785 28.8379 22.2266 27.0117 22.2266 24.2383L22.2266 17.8516C22.2266 14.8242 21.8945 11.5918 21.3281 9.27734C20.6934 6.49414 18.8184 4.69727 16.2402 4.42383C15.6055 4.35547 13.4473 4.18945 11.1133 4.18945C8.4668 4.18945 6.62109 4.35547 5.98633 4.42383C3.4082 4.69727 1.52344 6.49414 0.898438 9.27734C0.332031 11.6113 0 14.6973 0 17.7051L0 24.2383C0 27.0117 1.73828 28.8379 4.38477 28.8379ZM4.69727 27.4121C2.56836 27.4121 1.43555 26.1621 1.43555 24.2383L1.43555 17.7051C1.43555 14.7754 1.73828 11.8359 2.27539 9.61914C2.80273 7.41211 4.18945 6.05469 6.12305 5.85938C6.72852 5.80078 8.51562 5.625 11.1133 5.625C13.3984 5.625 15.4883 5.80078 16.1035 5.85938C18.0371 6.05469 19.4238 7.41211 19.9512 9.61914C20.4785 11.8262 20.8008 14.9121 20.8008 17.8516L20.8008 24.2383C20.8008 26.1621 19.6582 27.4121 17.5293 27.4121ZM11.1133 20.4102C14.1309 20.3906 16.4746 20.2734 17.8906 20.1172C18.6816 20.0195 19.0234 19.5117 19.0234 18.7695L19.0234 16.8945C19.0234 14.4922 18.7988 12.8027 18.5938 11.8359C18.4668 11.2402 18.0762 10.8203 17.4609 10.752C16.084 10.5859 14.4434 10.4883 11.1133 10.4785C7.7832 10.4883 6.14258 10.5859 4.76562 10.752C4.15039 10.8203 3.75977 11.2402 3.63281 11.8359C3.42773 12.8027 3.20312 14.4922 3.20312 16.8945L3.20312 18.7695C3.20312 19.5117 3.54492 20.0195 4.32617 20.1172C5.74219 20.2734 8.08594 20.3906 11.1133 20.4102ZM5.43945 25.4199C6.38672 25.4199 7.11914 24.7266 7.11914 23.75C7.11914 22.793 6.40625 22.0996 5.43945 22.0996C4.48242 22.0996 3.7793 22.793 3.7793 23.75C3.7793 24.7266 4.48242 25.4199 5.43945 25.4199ZM16.748 25.4297C17.6855 25.4297 18.4277 24.7168 18.4277 23.75C18.4277 22.8027 17.6953 22.0898 16.748 22.0898C15.791 22.0898 15.0684 22.8027 15.0684 23.75C15.0684 24.7168 15.791 25.4297 16.748 25.4297ZM7.91992 8.90625L14.3066 8.90625C14.7266 8.90625 15.0195 8.62305 15.0195 8.20312C15.0195 7.7832 14.7266 7.5 14.3066 7.5L7.91992 7.5C7.5 7.5 7.20703 7.7832 7.20703 8.20312C7.20703 8.62305 7.5 8.90625 7.91992 8.90625ZM0.917969 2.41211C0.917969 2.87109 1.25977 3.16406 1.68945 3.16406C1.92383 3.16406 2.1582 3.05664 2.35352 2.80273C3.06641 1.9043 3.83789 1.57227 5.2832 1.57227L16.9336 1.57227C18.3887 1.57227 19.1602 1.9043 19.873 2.80273C20.0684 3.05664 20.3027 3.16406 20.5371 3.16406C20.9668 3.16406 21.3086 2.87109 21.3086 2.41211C21.3086 2.07031 21.0645 1.69922 20.7129 1.37695C19.6777 0.371094 18.4766 0.0195312 16.9336 0.0195312L5.2832 0.0195312C3.75 0.0195312 2.54883 0.371094 1.51367 1.37695C1.16211 1.69922 0.917969 2.07031 0.917969 2.41211ZM9.56055 4.58984L6.92383 1.39648L4.81445 1.39648L7.46094 4.58984ZM12.666 4.58984L14.7656 4.58984L17.4121 1.39648L15.3027 1.39648ZM4.82422 28.3203L2.7832 31.5918C2.49023 32.0703 2.74414 32.5684 3.28125 32.5684L3.93555 32.5684C4.25781 32.5684 4.43359 32.4609 4.59961 32.1875L7.00195 28.3203ZM15.1953 28.3203L17.5977 32.1875C17.7637 32.4609 17.9395 32.5684 18.2617 32.5684L18.916 32.5684C19.4531 32.5684 19.6777 32.0605 19.3945 31.5918L17.3633 28.3203Z" fill="black" fill-opacity="0.85"/>
 </g>
</svg>
