<?xml version="1.0" encoding="UTF-8"?>
<!--Generator: Apple Native CoreSVG 326-->
<!DOCTYPE svg
PUBLIC "-//W3C//DTD SVG 1.1//EN"
       "http://www.w3.org/Graphics/SVG/1.1/DTD/svg11.dtd">
<svg version="1.1" xmlns="http://www.w3.org/2000/svg" xmlns:xlink="http://www.w3.org/1999/xlink" viewBox="0 0 18.3594 27.5879">
 <g>
  <rect height="27.5879" opacity="0" width="18.3594" x="0" y="0"/>
  <path d="M17.998 3.80859L17.998 23.7891C17.998 26.3184 16.7285 27.5879 14.2383 27.5879L3.75977 27.5879C1.25977 27.5879 0 26.3184 0 23.7891L0 3.80859C0 1.28906 1.25977 0.00976562 3.75977 0.00976562L14.2383 0.00976562C16.7285 0.00976562 17.998 1.28906 17.998 3.80859ZM4.20898 16.0547C3.30078 16.0547 2.91016 16.4355 2.91016 17.334L2.91016 23.3203C2.91016 24.2188 3.30078 24.5996 4.20898 24.5996L13.75 24.5996C14.6484 24.5996 15.0488 24.2188 15.0488 23.3203L15.0488 17.334C15.0488 16.4355 14.6484 16.0547 13.75 16.0547Z" fill="black" fill-opacity="0.85"/>
 </g>
</svg>
