<?xml version="1.0" encoding="UTF-8"?>
<!--Generator: Apple Native CoreSVG 326-->
<!DOCTYPE svg
PUBLIC "-//W3C//DTD SVG 1.1//EN"
       "http://www.w3.org/Graphics/SVG/1.1/DTD/svg11.dtd">
<svg version="1.1" xmlns="http://www.w3.org/2000/svg" xmlns:xlink="http://www.w3.org/1999/xlink" viewBox="0 0 29.3262 43.3105">
 <g>
  <rect height="43.3105" opacity="0" width="29.3262" x="0" y="0"/>
  <path d="M3.4375 15.4102C3.93555 15.4102 4.38477 14.9902 4.38477 14.4922C4.38477 13.9844 3.93555 13.5547 3.4375 13.5547L0.917969 13.5547C0.419922 13.5547 0 13.9941 0 14.4922C0 14.9805 0.419922 15.4102 0.917969 15.4102ZM6.01562 7.34375C6.36719 7.68555 6.95312 7.69531 7.31445 7.34375C7.68555 6.97266 7.67578 6.39648 7.31445 6.03516L5.54688 4.24805C5.20508 3.88672 4.60938 3.88672 4.23828 4.24805C3.88672 4.61914 3.88672 5.18555 4.23828 5.54688ZM13.5645 3.44727C13.5645 3.94531 13.9746 4.375 14.4727 4.375C14.9902 4.375 15.4102 3.94531 15.4102 3.44727L15.4102 0.927734C15.4102 0.429688 14.9805 0 14.4727 0C13.9746 0 13.5645 0.429688 13.5645 0.927734ZM21.6309 6.03516C21.2695 6.39648 21.2598 6.97266 21.6309 7.34375C21.9922 7.70508 22.5781 7.69531 22.9297 7.34375L24.7168 5.54688C25.0781 5.18555 25.0781 4.61914 24.7168 4.24805C24.3457 3.88672 23.7793 3.88672 23.418 4.24805ZM28.0273 15.4102C28.5254 15.4102 28.9648 14.9805 28.9648 14.4922C28.9648 13.9941 28.5254 13.5547 28.0273 13.5547L25.5078 13.5547C25.0098 13.5547 24.5801 13.9844 24.5801 14.4922C24.5801 14.9902 25.0098 15.4102 25.5078 15.4102Z" fill="black" fill-opacity="0.85"/>
  <path d="M14.4727 6.69922C10.1172 6.69922 6.67969 9.92188 6.67969 13.9062C6.67969 18.3203 9.36523 19.4922 10.0977 27.4316C10.1367 27.8613 10.3613 28.1152 10.8203 28.1152L18.1348 28.1152C18.5938 28.1152 18.8184 27.8613 18.8574 27.4316C19.5898 19.4922 22.2852 18.3203 22.2852 13.9062C22.2852 9.92188 18.8379 6.69922 14.4727 6.69922ZM14.4727 8.29102C17.8418 8.29102 20.7031 10.7031 20.7031 13.9062C20.7031 17.3047 18.4082 18.2031 17.4023 26.5234L11.5527 26.5234C10.5469 18.2031 8.27148 17.3047 8.27148 13.9062C8.27148 10.7031 11.1035 8.29102 14.4727 8.29102ZM10.8203 30.5469L18.1445 30.5469C18.5254 30.5469 18.8184 30.2539 18.8184 29.873C18.8184 29.4922 18.5254 29.209 18.1445 29.209L10.8203 29.209C10.4395 29.209 10.1562 29.4922 10.1562 29.873C10.1562 30.2539 10.4395 30.5469 10.8203 30.5469ZM14.4824 33.9062C16.3184 33.9062 17.8125 32.9883 17.9004 31.6406L11.0645 31.6406C11.1426 32.9883 12.6367 33.9062 14.4824 33.9062Z" fill="black" fill-opacity="0.85"/>
 </g>
</svg>
