<?xml version="1.0" encoding="UTF-8"?>
<!--Generator: Apple Native CoreSVG 326-->
<!DOCTYPE svg
PUBLIC "-//W3C//DTD SVG 1.1//EN"
       "http://www.w3.org/Graphics/SVG/1.1/DTD/svg11.dtd">
<svg version="1.1" xmlns="http://www.w3.org/2000/svg" xmlns:xlink="http://www.w3.org/1999/xlink" viewBox="0 0 41.3281 29.4043">
 <g>
  <rect height="29.4043" opacity="0" width="41.3281" x="0" y="0"/>
  <path d="M20.5078 29.4043C25.9277 29.4043 30.0781 26.8555 30.0781 23.4961C30.0781 20.127 25.9277 17.5684 20.5078 17.5684C15.0586 17.5684 10.9082 20.1172 10.9082 23.4961C10.9082 26.8652 15.0586 29.4043 20.5078 29.4043ZM20.4883 27.1094C16.9043 27.1094 14.3164 25.6445 14.3164 23.6621C14.3164 21.6699 16.9043 20.2246 20.4883 20.2246C24.0723 20.2246 26.6797 21.6699 26.6797 23.6621C26.6797 25.6348 24.0723 27.1094 20.4883 27.1094ZM15.3516 23.6621C15.3516 25.0098 17.5977 26.084 20.4785 26.084C23.3691 26.084 25.6445 25.0098 25.6445 23.6621C25.6445 23.1348 25.3027 22.6758 24.7461 22.2852C23.9648 23.3691 22.3535 24.0723 20.4785 24.0723C18.6035 24.0723 16.9922 23.3789 16.1719 22.3145C15.6641 22.6855 15.3516 23.1445 15.3516 23.6621Z" fill="black" fill-opacity="0.85"/>
  <path d="M31.3965 17.1289C36.8066 17.1289 40.9668 14.5801 40.9668 11.2109C40.9668 7.85156 36.8066 5.2832 31.3965 5.2832C25.9473 5.2832 21.7969 7.8418 21.7969 11.2109C21.7969 14.5898 25.9473 17.1289 31.3965 17.1289ZM31.377 14.8242C27.8027 14.8242 25.2051 13.3789 25.2051 11.3867C25.2051 9.39453 27.8027 7.93945 31.377 7.93945C34.9512 7.93945 37.5586 9.39453 37.5586 11.3867C37.5586 13.3691 34.9512 14.8242 31.377 14.8242ZM26.2305 11.3867C26.2305 12.7246 28.4863 13.7988 31.3672 13.7988C34.2578 13.7988 36.5332 12.7246 36.5332 11.3867C36.5332 10.8594 36.1914 10.3906 35.625 10.0098C34.8438 11.084 33.2422 11.7969 31.3672 11.7969C29.4922 11.7969 27.8809 11.0938 27.0703 10.0293C26.543 10.4004 26.2305 10.8691 26.2305 11.3867Z" fill="black" fill-opacity="0.85"/>
  <path d="M9.59961 17.1191C15.0195 17.1191 19.1699 14.5703 19.1699 11.2012C19.1699 7.8418 15.0195 5.27344 9.59961 5.27344C4.16016 5.27344 0 7.83203 0 11.2012C0 14.5801 4.16016 17.1191 9.59961 17.1191ZM9.58008 14.8145C6.00586 14.8145 3.41797 13.3691 3.41797 11.377C3.41797 9.38477 6.00586 7.92969 9.58008 7.92969C13.1641 7.92969 15.7715 9.38477 15.7715 11.377C15.7715 13.3594 13.1641 14.8145 9.58008 14.8145ZM4.44336 11.377C4.44336 12.7148 6.69922 13.7891 9.57031 13.7891C12.4609 13.7891 14.7461 12.7148 14.7461 11.377C14.7461 10.8496 14.4043 10.3809 13.8379 10.0098C13.0566 11.0742 11.4355 11.7871 9.57031 11.7871C7.69531 11.7871 6.09375 11.084 5.27344 10.0195C4.75586 10.3906 4.44336 10.8594 4.44336 11.377Z" fill="black" fill-opacity="0.85"/>
 </g>
</svg>
