<?xml version="1.0" encoding="UTF-8"?>
<!--Generator: Apple Native CoreSVG 326-->
<!DOCTYPE svg
PUBLIC "-//W3C//DTD SVG 1.1//EN"
       "http://www.w3.org/Graphics/SVG/1.1/DTD/svg11.dtd">
<svg version="1.1" xmlns="http://www.w3.org/2000/svg" xmlns:xlink="http://www.w3.org/1999/xlink" viewBox="0 0 29.3359 27.8223">
 <g>
  <rect height="27.8223" opacity="0" width="29.3359" x="0" y="0"/>
  <path d="M3.4375 15.4102C3.93555 15.4102 4.38477 14.9902 4.38477 14.4922C4.38477 13.9844 3.93555 13.5645 3.4375 13.5645L0.917969 13.5645C0.419922 13.5645 0 13.9941 0 14.4922C0 14.9805 0.419922 15.4102 0.917969 15.4102ZM6.01562 7.34375C6.36719 7.69531 6.95312 7.70508 7.31445 7.34375C7.68555 6.97266 7.67578 6.40625 7.31445 6.04492L5.54688 4.25781C5.20508 3.89648 4.60938 3.89648 4.23828 4.25781C3.88672 4.61914 3.88672 5.18555 4.23828 5.54688ZM13.5645 3.45703C13.5645 3.95508 13.9746 4.375 14.4727 4.375C14.9902 4.375 15.4102 3.95508 15.4102 3.45703L15.4102 0.9375C15.4102 0.429688 14.9805 0 14.4727 0C13.9746 0 13.5645 0.429688 13.5645 0.9375ZM21.6309 6.04492C21.2695 6.40625 21.2598 6.97266 21.6309 7.34375C21.9922 7.70508 22.5781 7.69531 22.9297 7.34375L24.7168 5.54688C25.0781 5.18555 25.0781 4.61914 24.7168 4.25781C24.3457 3.89648 23.7793 3.89648 23.418 4.25781ZM28.0371 15.4102C28.5352 15.4102 28.9746 14.9805 28.9746 14.4922C28.9746 13.9941 28.5352 13.5645 28.0371 13.5645L25.5176 13.5645C25.0195 13.5645 24.5898 13.9844 24.5898 14.4922C24.5898 14.9902 25.0195 15.4102 25.5176 15.4102Z" fill="black" fill-opacity="0.85"/>
  <path d="M20.7129 23.9941L22.4414 23.9941L22.4414 14.668C22.4414 10.1367 19.0039 6.69922 14.4727 6.69922C9.96094 6.69922 6.5332 10.1367 6.5332 14.668L6.5332 23.9941L8.26172 23.9941L8.26172 14.668C8.26172 11.0938 10.918 8.42773 14.4727 8.42773C18.0469 8.42773 20.7129 11.0938 20.7129 14.668ZM24.0332 24.8633C24.5117 24.8633 24.9121 24.4824 24.9121 24.0039C24.9121 23.5254 24.5117 23.125 24.0332 23.125L4.92188 23.125C4.44336 23.125 4.0625 23.5254 4.0625 24.0039C4.0625 24.4824 4.44336 24.8633 4.92188 24.8633ZM15.3516 14.8242C15.3516 14.3555 14.9512 13.9453 14.4727 13.9453C14.0039 13.9453 13.623 14.3555 13.623 14.8242L13.623 23.9941L15.3516 23.9941Z" fill="black" fill-opacity="0.85"/>
 </g>
</svg>
