<?xml version="1.0" encoding="UTF-8"?>
<!--Generator: Apple Native CoreSVG 326-->
<!DOCTYPE svg
PUBLIC "-//W3C//DTD SVG 1.1//EN"
       "http://www.w3.org/Graphics/SVG/1.1/DTD/svg11.dtd">
<svg version="1.1" xmlns="http://www.w3.org/2000/svg" xmlns:xlink="http://www.w3.org/1999/xlink" viewBox="0 0 29.5801 16.2207">
 <g>
  <rect height="16.2207" opacity="0" width="29.5801" x="0" y="0"/>
  <path d="M1.49414 16.2207C2.31445 16.2207 2.97852 15.5566 2.97852 14.7266C2.97852 13.9062 2.31445 13.2422 1.49414 13.2422C0.664062 13.2422 0 13.9062 0 14.7266C0 15.5566 0.664062 16.2207 1.49414 16.2207ZM4.81445 7.23633C5.64453 7.23633 6.30859 6.57227 6.30859 5.74219C6.30859 4.92188 5.64453 4.25781 4.81445 4.25781C3.99414 4.25781 3.33008 4.92188 3.33008 5.74219C3.33008 6.57227 3.99414 7.23633 4.81445 7.23633ZM14.6094 3.00781C15.4395 3.00781 16.1035 2.34375 16.1035 1.52344C16.1035 0.693359 15.4395 0.0292969 14.6094 0.0292969C13.7891 0.0292969 13.125 0.693359 13.125 1.52344C13.125 2.34375 13.7891 3.00781 14.6094 3.00781ZM24.4043 7.23633C25.2246 7.23633 25.8887 6.57227 25.8887 5.74219C25.8887 4.92188 25.2246 4.25781 24.4043 4.25781C23.5742 4.25781 22.9102 4.92188 22.9102 5.74219C22.9102 6.57227 23.5742 7.23633 24.4043 7.23633ZM27.7344 16.2207C28.5547 16.2207 29.2188 15.5566 29.2188 14.7266C29.2188 13.9062 28.5547 13.2422 27.7344 13.2422C26.9043 13.2422 26.2402 13.9062 26.2402 14.7266C26.2402 15.5566 26.9043 16.2207 27.7344 16.2207Z" fill="black" fill-opacity="0.85"/>
  <path d="M9.55078 15.8691L19.668 15.8691C20.1855 15.8691 20.625 15.4297 20.625 14.9219C20.625 14.4043 20.1855 13.9844 19.668 13.9844L9.55078 13.9844C9.02344 13.9844 8.58398 14.4141 8.58398 14.9219C8.58398 15.4297 9.0332 15.8691 9.55078 15.8691Z" fill="black" fill-opacity="0.85"/>
 </g>
</svg>
