<?xml version="1.0" ?><!-- Generator: Adobe Illustrator 25.0.0, SVG Export Plug-In . SVG Version: 6.00 Build 0)  --><svg xmlns="http://www.w3.org/2000/svg" xmlns:xlink="http://www.w3.org/1999/xlink" version="1.1" id="Layer_1" x="0px" y="0px" viewBox="0 0 512 512" style="enable-background:new 0 0 512 512;" xml:space="preserve">
<path d="M275.9,138.1c0-10.9-9-20.2-19.9-20.2c-10.9,0-20.2,9.2-20.2,20.2v64.5c0,10.7,9.2,19.7,20.2,19.7c10.9,0,19.9-9,19.9-19.7  V138.1z M146.9,265.2c7.7-7.7,7.5-20.2,0-27.9l-45.5-45.9c-7.5-7.5-20.4-7.7-28.1-0.2c-7.7,7.7-7.7,20.4,0.2,28.1l45.2,45.9  C126.3,273.2,139.1,272.7,146.9,265.2z M362.6,267.6c7.5,7.7,20.6,7.7,28.1,0l45.7-45.9c7.5-7.7,7.7-20.4,0-28.1  c-7.5-7.5-20.2-7.7-28.1,0l-45.7,45.9C354.6,247.2,354.6,259.9,362.6,267.6z M19.7,354.2c-10.5,0-19.7,9-19.7,19.7  c0,10.9,9.2,20.2,19.7,20.2h64.8c10.9,0,20.2-9.2,20.2-20.2c0-10.7-9.2-19.7-20.2-19.7H19.7z M407.6,373.9c0,10.9,9,20.2,19.9,20.2  h64.5c10.7,0,19.9-9.2,19.9-20.2c0-10.7-9.2-19.7-19.9-19.7h-64.5C416.6,354.2,407.6,363.2,407.6,373.9z M178.2,393.6h155.4  c10.5,0,19.5-8.8,19.5-19.1c0-10.5-9-19.1-19.5-19.1H178.2c-10.7,0-19.7,8.6-19.7,19.1C158.4,384.9,167.5,393.6,178.2,393.6z"/>
</svg>