<?xml version="1.0" encoding="UTF-8"?>
<!--Generator: Apple Native CoreSVG 326-->
<!DOCTYPE svg
PUBLIC "-//W3C//DTD SVG 1.1//EN"
       "http://www.w3.org/Graphics/SVG/1.1/DTD/svg11.dtd">
<svg version="1.1" xmlns="http://www.w3.org/2000/svg" xmlns:xlink="http://www.w3.org/1999/xlink" viewBox="0 0 35.0098 20.8301">
 <g>
  <rect height="20.8301" opacity="0" width="35.0098" x="0" y="0"/>
  <path d="M17.3047 20.8203C27.5488 20.8203 34.6484 16.1426 34.6484 10.4102C34.6484 4.67773 27.5488 0 17.3047 0C7.08984 0 0 4.67773 0 10.4102C0 16.1426 7.08984 20.8203 17.3047 20.8203ZM17.3047 17.1582C10.7617 17.1582 5.81055 14.4336 5.81055 10.752C5.81055 7.07031 10.7617 4.3457 17.3047 4.3457C23.8867 4.3457 28.8477 7.07031 28.8477 10.752C28.8477 14.4238 23.8672 17.1582 17.3047 17.1582ZM17.2852 11.3574C20.9863 11.3574 24.2285 9.7168 25.5176 7.41211C23.7207 6.23047 20.8691 5.50781 17.3047 5.50781C13.7402 5.50781 10.8594 6.25 9.0625 7.46094C10.3711 9.74609 13.6035 11.3574 17.2852 11.3574Z" fill="black" fill-opacity="0.85"/>
 </g>
</svg>
