<?xml version="1.0" encoding="UTF-8"?>
<!--Generator: Apple Native CoreSVG 326-->
<!DOCTYPE svg
PUBLIC "-//W3C//DTD SVG 1.1//EN"
       "http://www.w3.org/Graphics/SVG/1.1/DTD/svg11.dtd">
<svg version="1.1" xmlns="http://www.w3.org/2000/svg" xmlns:xlink="http://www.w3.org/1999/xlink" viewBox="0 0 25.8008 25.459">
 <g>
  <rect height="25.459" opacity="0" width="25.8008" x="0" y="0"/>
  <path d="M7.59766 12.1289C9.15039 12.1289 10.4395 12.5098 12.1484 13.5449C13.916 14.6094 15.6152 15.2539 17.6953 15.2539C20.3809 15.2539 22.7734 14.1211 24.668 11.9922L24.3359 9.49219C22.6367 12.1387 20.3516 13.5254 17.6953 13.5254C15.9375 13.5254 14.5703 13.0078 13.0176 12.0703C11.2598 11.0059 9.61914 10.4004 7.59766 10.4004C5.01953 10.4004 2.75391 11.4941 0.927734 13.5156L1.2793 15.7617C2.94922 13.3691 5.11719 12.1289 7.59766 12.1289ZM10.6152 8.04688C11.3965 9.39453 11.6797 10.6738 11.6602 12.6953C11.6309 14.7754 11.9238 16.543 12.959 18.3398C14.2383 20.5664 16.2793 22.0312 18.8867 22.666L20.6641 21.2207C17.8418 20.9082 15.7129 19.6484 14.4629 17.4805C13.584 15.957 13.3594 14.5312 13.3887 12.7148C13.4082 10.6348 13.125 8.93555 12.1094 7.1875C10.7715 4.86328 8.58398 3.39844 5.78125 2.87109L4.32617 4.38477C7.2168 4.63867 9.36523 5.89844 10.6152 8.04688ZM15.6641 8.62305C14.8926 9.95117 13.9258 10.8398 12.1582 11.8457C10.3418 12.8711 8.95508 13.9941 7.91016 15.8008C6.60156 18.0566 6.36719 20.625 7.1875 23.2617L9.27734 23.9355C8.125 21.3184 8.14453 18.8281 9.41406 16.6504C10.293 15.1465 11.416 14.248 13.0078 13.3496C14.8242 12.3242 16.1426 11.2402 17.168 9.48242C18.4863 7.1875 18.6719 4.57031 17.7637 1.89453L15.6836 1.33789C16.9336 4.02344 16.9043 6.48438 15.6641 8.62305ZM12.7148 25.4395C19.7363 25.4395 25.4395 19.7461 25.4395 12.7246C25.4395 5.70312 19.7363 0 12.7148 0C5.69336 0 0 5.70312 0 12.7246C0 19.7461 5.69336 25.4395 12.7148 25.4395ZM12.7148 23.623C6.68945 23.623 1.81641 18.75 1.81641 12.7246C1.81641 6.69922 6.68945 1.82617 12.7148 1.82617C18.7402 1.82617 23.6133 6.69922 23.6133 12.7246C23.6133 18.75 18.7402 23.623 12.7148 23.623Z" fill="black" fill-opacity="0.85"/>
 </g>
</svg>
