<?xml version="1.0" ?><!-- Generator: Adobe Illustrator 25.0.0, SVG Export Plug-In . SVG Version: 6.00 Build 0)  --><svg xmlns="http://www.w3.org/2000/svg" xmlns:xlink="http://www.w3.org/1999/xlink" version="1.1" id="Layer_1" x="0px" y="0px" viewBox="0 0 512 512" style="enable-background:new 0 0 512 512;" xml:space="preserve">
<path d="M256,512c140,0,256-116.2,256-256C512,116,395.8,0,255.7,0C116,0,0,116,0,256C0,395.8,116.2,512,256,512z M311.2,173.7  c-10.8,18.1-23.1,32.1-41.4,45.4c-3-27.4-10.3-51.2-24.1-75c-20.8-35.9-51.5-61.7-89.6-77.1c29.6-15.6,63.5-24.3,99.6-24.3  c22.6,0,44.4,3.5,64.8,9.8C335.6,96.9,332,137.5,311.2,173.7z M346.1,193.5c21.3-36.6,28.1-77.6,21.1-119.7  c49.7,30.4,85.8,80.3,97.9,139.5c-30.6,36.1-68.8,54.7-111.7,54.7c-23.1,0-42.7-4.5-63.2-13.6C313.7,237.7,331.5,218.9,346.1,193.5z   M210.6,163.9c10.5,18.6,16.6,36.1,19.1,58.7c-25.1-11-49.7-16.8-77.6-16.8c-40.4,0-77.1,13.3-108.9,37.9  c3.3-58.7,29.9-110.9,71-147.6C157.4,105.7,190.2,128.8,210.6,163.9z M152.1,246.2c20.1,0,38.1,3.3,57.7,11.5  c-22.1,16.1-38.9,34.6-53.2,58.7c-20.3,35.1-27.9,74.3-22.3,114.9c-45.4-31.4-77.6-80.1-87.8-136.8  C76,262.8,111.9,246.2,152.1,246.2z M292.4,349.1c-11-19.1-16.8-37.4-19.3-58.2c25.9,11.5,51.5,17.6,80.3,17.6  c42.9,0,82.3-14.6,115.7-41.9c-2.8,61-31.1,115.2-74.5,152.1C348.6,409.6,313.7,386,292.4,349.1z M256,469.3  c-26.4,0-51.7-4.8-75-13.6c-13.6-42.9-10.3-83.3,10.8-119.2c11-18.8,23.8-32.9,40.7-45.7c3,28.4,10.5,53.2,24.8,78.1  c21.3,36.9,53,63.5,92.9,78.8C321.8,461.6,289.9,469.3,256,469.3z"/>
</svg>