<?xml version="1.0" ?><!-- Generator: Adobe Illustrator 25.0.0, SVG Export Plug-In . SVG Version: 6.00 Build 0)  --><svg xmlns="http://www.w3.org/2000/svg" xmlns:xlink="http://www.w3.org/1999/xlink" version="1.1" id="Layer_1" x="0px" y="0px" viewBox="0 0 512 512" style="enable-background:new 0 0 512 512;" xml:space="preserve">
<path d="M256,512c140,0,256-116.2,256-256C512,116,395.8,0,255.7,0C116,0,0,116,0,256C0,395.8,116.2,512,256,512z M125.7,188.5  c-11.8,0-19.8-7.3-19.8-18.3c0-11,8-18.3,19.8-18.3h261c11.5,0,19.8,7.3,19.8,18.3c0,11-8.3,18.3-19.8,18.3H125.7z M125.7,274.3  c-11.8,0-19.8-7.3-19.8-18.6c0-11,8-18.3,19.8-18.3h261c11.5,0,19.8,7.3,19.8,18.3c0,11.3-8.3,18.6-19.8,18.6H125.7z M125.7,360.2  c-11.8,0-19.8-7.5-19.8-18.6c0-10.8,8-18.1,19.8-18.1h261c11.5,0,19.8,7.3,19.8,18.1c0,11-8.3,18.6-19.8,18.6H125.7z"/>
</svg>