<?xml version="1.0" encoding="UTF-8"?>
<!--Generator: Apple Native CoreSVG 326-->
<!DOCTYPE svg
PUBLIC "-//W3C//DTD SVG 1.1//EN"
       "http://www.w3.org/Graphics/SVG/1.1/DTD/svg11.dtd">
<svg version="1.1" xmlns="http://www.w3.org/2000/svg" xmlns:xlink="http://www.w3.org/1999/xlink" viewBox="0 0 25.8008 25.459">
 <g>
  <rect height="25.459" opacity="0" width="25.8008" x="0" y="0"/>
  <path d="M12.7148 25.4395C19.7363 25.4395 25.4395 19.7461 25.4395 12.7246C25.4395 5.70312 19.7363 0 12.7148 0C5.69336 0 0 5.70312 0 12.7246C0 19.7461 5.69336 25.4395 12.7148 25.4395ZM12.7148 23.623C6.68945 23.623 1.81641 18.75 1.81641 12.7246C1.81641 6.69922 6.68945 1.82617 12.7148 1.82617C18.7402 1.82617 23.6133 6.69922 23.6133 12.7246C23.6133 18.75 18.7402 23.623 12.7148 23.623Z" fill="black" fill-opacity="0.85"/>
  <path d="M5.78125 10.0684L19.668 10.0684C20.1465 10.0684 20.4883 9.76562 20.4883 9.30664C20.4883 8.84766 20.1465 8.53516 19.668 8.53516L5.78125 8.53516C5.30273 8.53516 4.96094 8.84766 4.96094 9.30664C4.96094 9.76562 5.30273 10.0684 5.78125 10.0684ZM7.63672 14.2285L17.8125 14.2285C18.291 14.2285 18.6328 13.9258 18.6328 13.4668C18.6328 13.0078 18.291 12.6953 17.8125 12.6953L7.63672 12.6953C7.1582 12.6953 6.81641 13.0078 6.81641 13.4668C6.81641 13.9258 7.1582 14.2285 7.63672 14.2285ZM9.58008 18.418L15.8789 18.418C16.3477 18.418 16.6895 18.1055 16.6895 17.6465C16.6895 17.1875 16.3477 16.8848 15.8789 16.8848L9.58008 16.8848C9.10156 16.8848 8.75977 17.1875 8.75977 17.6465C8.75977 18.1055 9.10156 18.418 9.58008 18.418Z" fill="black" fill-opacity="0.85"/>
 </g>
</svg>
