<?xml version="1.0" ?><!-- Generator: Adobe Illustrator 25.0.0, SVG Export Plug-In . SVG Version: 6.00 Build 0)  --><svg xmlns="http://www.w3.org/2000/svg" xmlns:xlink="http://www.w3.org/1999/xlink" version="1.1" id="Layer_1" x="0px" y="0px" viewBox="0 0 512 512" style="enable-background:new 0 0 512 512;" xml:space="preserve">
<path d="M15.6,54.9h480.5c9.6,0,15.9-6,15.9-15.6V24.9c0-9.3-6.3-15.3-15.9-15.3H15.6C6,9.6,0,15.6,0,24.9v14.4  C0,48.9,6,54.9,15.6,54.9z M23.4,245.1h465.2c14.4,0,23.4-8.7,23.4-23.1v-50.4c0-14.7-9-23.4-23.4-23.4H23.4  C8.7,148.2,0,156.9,0,171.6V222C0,236.4,8.7,245.1,23.4,245.1z M23.4,502.4h465.2c14.4,0,23.4-8.7,23.4-23.4V359.9  c0-14.7-9-23.4-23.4-23.4H23.4C8.7,336.5,0,345.2,0,359.9V479C0,493.7,8.7,502.4,23.4,502.4z"/>
</svg>