<?xml version="1.0" ?><!-- Generator: Adobe Illustrator 25.0.0, SVG Export Plug-In . SVG Version: 6.00 Build 0)  --><svg xmlns="http://www.w3.org/2000/svg" xmlns:xlink="http://www.w3.org/1999/xlink" version="1.1" id="Layer_1" x="0px" y="0px" viewBox="0 0 512 512" style="enable-background:new 0 0 512 512;" xml:space="preserve">
<path d="M20.2,146h471.5c11.4,0,20.2-8.9,20.2-20.2s-8.9-20.5-20.2-20.5H20.2C8.9,105.3,0,114.4,0,125.8S8.9,146,20.2,146z   M73.6,276.4h366.2c11.4,0,20.2-8.9,20.2-20.2c0-11.4-8.9-20.5-20.2-20.5H73.6c-11.4,0-20.5,9.1-20.5,20.5  C53.1,267.5,62.3,276.4,73.6,276.4z M125.5,406.7h262.2c11.4,0,20.5-8.9,20.5-20.2c0-11.4-9.1-20.5-20.5-20.5H125.5  c-11.4,0-20.2,9.1-20.2,20.5C105.3,397.9,114.1,406.7,125.5,406.7z"/>
</svg>