<?xml version="1.0" encoding="UTF-8"?>
<!--Generator: Apple Native CoreSVG 326-->
<!DOCTYPE svg
PUBLIC "-//W3C//DTD SVG 1.1//EN"
       "http://www.w3.org/Graphics/SVG/1.1/DTD/svg11.dtd">
<svg version="1.1" xmlns="http://www.w3.org/2000/svg" xmlns:xlink="http://www.w3.org/1999/xlink" viewBox="0 0 22.4707 26.9434">
 <g>
  <rect height="26.9434" opacity="0" width="22.4707" x="0" y="0"/>
  <path d="M14.7559 26.9434C19.2285 26.9434 22.1094 24.0625 22.1094 19.5898L22.1094 13.1934C22.1094 11.5137 21.5918 10.166 20.5566 9.20898L12.5977 1.89453C11.0742 0.488281 9.46289 0 7.51953 0L3.64258 0C1.43555 0 0 1.43555 0 3.65234L0 23.3008C0 25.5859 1.35742 26.9434 3.67188 26.9434ZM14.707 25.2148L3.71094 25.2148C2.33398 25.2148 1.72852 24.6777 1.72852 23.2715L1.72852 3.69141C1.72852 2.49023 2.46094 1.72852 3.68164 1.72852L7.48047 1.72852C9.05273 1.72852 10.2539 2.11914 11.4062 3.16406L19.3457 10.4492C20.0684 11.1133 20.3711 11.9434 20.3711 13.2227L20.3711 19.5508C20.3711 23.1445 18.291 25.2148 14.707 25.2148Z" fill="black" fill-opacity="0.85"/>
  <path d="M5.74219 14.2578L16.1816 14.2578C16.5723 14.2578 16.8555 13.9941 16.8555 13.6035C16.8555 13.2227 16.5723 12.9688 16.1816 12.9688L5.74219 12.9688C5.3418 12.9688 5.05859 13.2227 5.05859 13.6035C5.05859 13.9941 5.3418 14.2578 5.74219 14.2578ZM5.74219 17.9297L16.1816 17.9297C16.5723 17.9297 16.8555 17.6758 16.8555 17.2852C16.8555 16.8945 16.5723 16.6406 16.1816 16.6406L5.74219 16.6406C5.3418 16.6406 5.05859 16.8945 5.05859 17.2852C5.05859 17.6758 5.3418 17.9297 5.74219 17.9297ZM5.74219 21.6211L16.1816 21.6211C16.5723 21.6211 16.8555 21.3672 16.8555 20.9863C16.8555 20.5957 16.5723 20.332 16.1816 20.332L5.74219 20.332C5.3418 20.332 5.05859 20.5957 5.05859 20.9863C5.05859 21.3672 5.3418 21.6211 5.74219 21.6211Z" fill="black" fill-opacity="0.85"/>
 </g>
</svg>
