<?xml version="1.0" ?><!-- Generator: Adobe Illustrator 25.0.0, SVG Export Plug-In . SVG Version: 6.00 Build 0)  --><svg xmlns="http://www.w3.org/2000/svg" xmlns:xlink="http://www.w3.org/1999/xlink" version="1.1" id="Layer_1" x="0px" y="0px" viewBox="0 0 512 512" style="enable-background:new 0 0 512 512;" xml:space="preserve">
<path d="M256,512c140,0,256-116.2,256-256C512,116,395.8,0,255.7,0C116,0,0,116,0,256C0,395.8,116.2,512,256,512z M256,469.3  c-118.5,0-213.1-94.9-213.1-213.3S137.3,42.7,255.7,42.7S469.1,137.5,469.3,256S374.5,469.3,256,469.3z M119.5,206.6H393  c11,0,19.1-7,19.1-17.6c0-10.8-8-17.8-19.1-17.8H119.5c-11.3,0-19.1,7-19.1,17.8C100.4,199.5,108.2,206.6,119.5,206.6z M156.6,289.6  h199.3c11,0,18.8-7,18.8-17.6s-7.8-17.8-18.8-17.8H156.6c-11.3,0-19.1,7.3-19.1,17.8S145.3,289.6,156.6,289.6z M195.3,373H317  c11,0,19.1-7,19.1-17.6c0-10.8-8-17.8-19.1-17.8H195.3c-11,0-18.8,7-18.8,17.8C176.4,365.9,184.2,373,195.3,373z"/>
</svg>