<?xml version="1.0" ?><!-- Generator: Adobe Illustrator 25.0.0, SVG Export Plug-In . SVG Version: 6.00 Build 0)  --><svg xmlns="http://www.w3.org/2000/svg" xmlns:xlink="http://www.w3.org/1999/xlink" version="1.1" id="Layer_1" x="0px" y="0px" viewBox="0 0 512 512" style="enable-background:new 0 0 512 512;" xml:space="preserve">
<path d="M256,512c35,0,67.9-6.7,98.8-20.1c30.9-13.4,58.1-31.9,81.7-55.5c23.6-23.6,42.1-50.8,55.5-81.7  C505.3,323.9,512,291,512,256s-6.7-67.9-20.1-98.8c-13.4-30.9-31.9-58.1-55.5-81.7c-23.6-23.6-50.9-42.1-81.8-55.5  C323.7,6.7,290.7,0,255.7,0S187.9,6.7,157,20.1C126.1,33.5,98.9,52,75.4,75.5c-23.5,23.6-42,50.8-55.3,81.7C6.7,188.1,0,221,0,256  s6.7,67.9,20.1,98.8c13.4,30.9,31.9,58.1,55.5,81.7c23.6,23.6,50.8,42.1,81.7,55.5C188.1,505.3,221,512,256,512z" class="multicolor-0:tintColor hierarchical-0:tertiary SFSymbolsPreview007AFF" style="fill: #007AFF;"/>
<path d="M115.5,204.3c-5.7,0-10.4-1.7-14.2-5c-3.8-3.3-5.6-7.7-5.6-13.1c0-5.5,1.9-10,5.6-13.4c3.8-3.4,8.5-5.1,14.2-5.1h282.1  c5.7,0,10.4,1.7,14.2,5.1c3.8,3.4,5.6,7.9,5.6,13.4c0,5.4-1.9,9.7-5.6,13.1c-3.8,3.3-8.5,5-14.2,5H115.5z M153.9,290.1  c-5.9,0-10.6-1.7-14.3-5c-3.7-3.3-5.5-7.8-5.5-13.3c0-5.5,1.8-10,5.5-13.4c3.7-3.4,8.4-5.1,14.3-5.1h205.3c5.9,0,10.6,1.7,14.3,5.1  c3.7,3.4,5.5,7.9,5.5,13.4c0,5.5-1.8,10-5.5,13.3c-3.7,3.3-8.4,5-14.3,5H153.9z M194,376c-5.9,0-10.6-1.7-14.3-5  c-3.7-3.3-5.5-7.8-5.5-13.3s1.8-10,5.5-13.3c3.7-3.3,8.4-5,14.3-5h125.2c5.7,0,10.4,1.7,14.1,5c3.7,3.3,5.5,7.8,5.5,13.3  s-1.8,10-5.5,13.3c-3.7,3.3-8.4,5-14.1,5H194z" class="multicolor-1:white hierarchical-1:primary SFSymbolsPreviewFFFFFF" style="fill: #FFFFFF;"/>
</svg>