<?xml version="1.0" encoding="UTF-8"?>
<!--Generator: Apple Native CoreSVG 326-->
<!DOCTYPE svg
PUBLIC "-//W3C//DTD SVG 1.1//EN"
       "http://www.w3.org/Graphics/SVG/1.1/DTD/svg11.dtd">
<svg version="1.1" xmlns="http://www.w3.org/2000/svg" xmlns:xlink="http://www.w3.org/1999/xlink" viewBox="0 0 22.4707 26.9434">
 <g>
  <rect height="26.9434" opacity="0" width="22.4707" x="0" y="0"/>
  <path d="M12.5977 1.89453L20.5566 9.20898C21.5918 10.166 22.1094 11.5137 22.1094 13.1934L22.1094 19.5898C22.1094 24.0625 19.2285 26.9434 14.7559 26.9434L3.67188 26.9434C1.35742 26.9434 0 25.5859 0 23.3008L0 3.65234C0 1.43555 1.43555 0 3.64258 0L7.51953 0C9.46289 0 11.0742 0.488281 12.5977 1.89453ZM5.625 20.4004C5.20508 20.4004 4.91211 20.6641 4.91211 21.0645C4.91211 21.4648 5.20508 21.7285 5.625 21.7285L16.2988 21.7285C16.709 21.7285 17.002 21.4648 17.002 21.0645C17.002 20.6641 16.709 20.4004 16.2988 20.4004ZM5.625 16.6211C5.20508 16.6211 4.91211 16.8848 4.91211 17.2852C4.91211 17.6855 5.20508 17.9492 5.625 17.9492L16.2988 17.9492C16.709 17.9492 17.002 17.6855 17.002 17.2852C17.002 16.8848 16.709 16.6211 16.2988 16.6211ZM5.625 12.8613C5.20508 12.8613 4.91211 13.125 4.91211 13.5254C4.91211 13.9258 5.20508 14.1992 5.625 14.1992L16.2988 14.1992C16.709 14.1992 17.002 13.9258 17.002 13.5254C17.002 13.125 16.709 12.8613 16.2988 12.8613Z" fill="black" fill-opacity="0.85"/>
 </g>
</svg>
