<?xml version="1.0" encoding="UTF-8"?>
<!--Generator: Apple Native CoreSVG 326-->
<!DOCTYPE svg
PUBLIC "-//W3C//DTD SVG 1.1//EN"
       "http://www.w3.org/Graphics/SVG/1.1/DTD/svg11.dtd">
<svg version="1.1" xmlns="http://www.w3.org/2000/svg" xmlns:xlink="http://www.w3.org/1999/xlink" viewBox="0 0 25.8008 25.459">
 <g>
  <rect height="25.459" opacity="0" width="25.8008" x="0" y="0"/>
  <path d="M12.7148 25.4395C19.7363 25.4395 25.4395 19.7461 25.4395 12.7246C25.4395 5.70312 19.7363 0 12.7148 0C5.69336 0 0 5.70312 0 12.7246C0 19.7461 5.69336 25.4395 12.7148 25.4395ZM12.7148 23.623C6.68945 23.623 1.81641 18.75 1.81641 12.7246C1.81641 6.69922 6.68945 1.82617 12.7148 1.82617C18.7402 1.82617 23.6133 6.69922 23.6133 12.7246C23.6133 18.75 18.7402 23.623 12.7148 23.623Z" fill="black" fill-opacity="0.85"/>
  <path d="M6.18164 9.31641L19.2773 9.31641C19.7461 9.31641 20.0879 9.00391 20.0879 8.54492C20.0879 8.08594 19.7461 7.7832 19.2773 7.7832L6.18164 7.7832C5.70312 7.7832 5.36133 8.08594 5.36133 8.54492C5.36133 9.00391 5.70312 9.31641 6.18164 9.31641ZM6.18164 13.4766L19.2773 13.4766C19.7461 13.4766 20.0879 13.1641 20.0879 12.7051C20.0879 12.2461 19.7461 11.9434 19.2773 11.9434L6.18164 11.9434C5.70312 11.9434 5.36133 12.2461 5.36133 12.7051C5.36133 13.1641 5.70312 13.4766 6.18164 13.4766ZM6.18164 17.6562L19.2773 17.6562C19.7461 17.6562 20.0879 17.3535 20.0879 16.8945C20.0879 16.4355 19.7461 16.123 19.2773 16.123L6.18164 16.123C5.70312 16.123 5.36133 16.4355 5.36133 16.8945C5.36133 17.3535 5.70312 17.6562 6.18164 17.6562Z" fill="black" fill-opacity="0.85"/>
 </g>
</svg>
