<?xml version="1.0" encoding="UTF-8"?>
<!--Generator: Apple Native CoreSVG 326-->
<!DOCTYPE svg
PUBLIC "-//W3C//DTD SVG 1.1//EN"
       "http://www.w3.org/Graphics/SVG/1.1/DTD/svg11.dtd">
<svg version="1.1" xmlns="http://www.w3.org/2000/svg" xmlns:xlink="http://www.w3.org/1999/xlink" viewBox="0 0 27.9395 26.5527">
 <g>
  <rect height="26.5527" opacity="0" width="27.9395" x="0" y="0"/>
  <path d="M15.2637 0.419922L26.0547 6.65039C26.4453 6.875 26.6211 7.1582 26.6211 7.48047C26.6211 7.91992 26.2891 8.33984 25.6934 8.33984L24.5605 8.33984L24.5605 23.252L25.3613 23.252C25.791 23.252 26.0449 23.5059 26.0449 23.9258L26.0449 24.8047L26.709 24.8047C27.1875 24.8047 27.5781 25.1953 27.5781 25.6738C27.5781 26.1426 27.1875 26.5332 26.709 26.5332L0.869141 26.5332C0.390625 26.5332 0 26.1426 0 25.6738C0 25.1953 0.390625 24.8047 0.869141 24.8047L1.5332 24.8047L1.5332 23.9258C1.5332 23.5059 1.78711 23.252 2.22656 23.252L3.02734 23.252L3.02734 8.33984L1.88477 8.33984C1.28906 8.33984 0.957031 7.91992 0.957031 7.48047C0.957031 7.1582 1.12305 6.875 1.52344 6.65039L12.3145 0.419922C12.7832 0.146484 13.3008 0 13.7891 0C14.2773 0 14.7852 0.146484 15.2637 0.419922ZM10.9766 12.1094C10.9766 12.2656 10.9766 12.4219 10.9863 12.5879L9.79492 12.5879C9.54102 12.5879 9.3457 12.7637 9.3457 13.0176C9.3457 13.2715 9.54102 13.457 9.79492 13.457L11.1328 13.457C11.2695 14.0137 11.4453 14.4922 11.5625 15L9.79492 15C9.54102 15 9.3457 15.1855 9.3457 15.4297C9.3457 15.6836 9.54102 15.8789 9.79492 15.8789L11.6797 15.8789C11.6797 16.0352 11.6699 16.2305 11.6406 16.4062C11.5137 17.5488 10.7422 18.3203 9.86328 18.5938C9.53125 18.7109 9.31641 18.8867 9.31641 19.248C9.31641 19.6484 9.58984 19.8535 9.91211 19.8535L17.5781 19.8535C17.9102 19.8535 18.1445 19.5996 18.1445 19.2773C18.1445 18.9551 17.9102 18.7207 17.5781 18.7207L11.4453 18.7207L11.4453 18.6523C12.373 18.3496 12.9102 17.3633 12.998 16.2988C13.0078 16.1621 13.0078 16.0254 13.0078 15.8789L16.2402 15.8789C16.4941 15.8789 16.6992 15.6836 16.6992 15.4297C16.6992 15.1855 16.4941 15 16.2402 15L12.9199 15C12.8223 14.4531 12.6465 13.9648 12.5195 13.457L16.2402 13.457C16.4941 13.457 16.6992 13.2715 16.6992 13.0176C16.6992 12.7637 16.4941 12.5879 16.2402 12.5879L12.373 12.5879C12.3438 12.4219 12.334 12.2461 12.334 12.0703C12.334 10.498 13.5742 9.6875 15.1562 9.6875C15.6836 9.6875 16.2402 9.79492 16.5918 9.87305C16.7676 9.93164 16.9629 9.9707 17.0898 9.9707C17.4609 9.9707 17.5977 9.74609 17.5977 9.48242C17.5977 9.16016 17.4023 8.99414 17.1094 8.87695C16.4551 8.59375 15.6836 8.54492 15.0195 8.54492C12.6172 8.54492 10.9766 9.83398 10.9766 12.1094Z" fill="black" fill-opacity="0.85"/>
 </g>
</svg>
