<?xml version="1.0" encoding="UTF-8"?>
<!--Generator: Apple Native CoreSVG 326-->
<!DOCTYPE svg
PUBLIC "-//W3C//DTD SVG 1.1//EN"
       "http://www.w3.org/Graphics/SVG/1.1/DTD/svg11.dtd">
<svg version="1.1" xmlns="http://www.w3.org/2000/svg" xmlns:xlink="http://www.w3.org/1999/xlink" viewBox="0 0 30.3809 24.9191">
 <g>
  <rect height="24.9191" opacity="0" width="30.3809" x="0" y="0"/>
  <path d="M30.0195 14.9547C30.0195 7.09334 23.9746 0.648023 16.2988 0.00349172C15.8984-0.0355708 15.5859 0.257398 15.5859 0.667554L15.5859 4.66169C15.5859 4.99373 15.8301 5.2574 16.1719 5.28669C20.9863 5.87263 24.7266 9.97419 24.7266 14.9547C24.7266 17.2203 23.9551 19.3004 22.5879 21.0191C22.4023 21.2535 22.4121 21.5465 22.6172 21.7515L25.5176 24.6519C25.8105 24.9351 26.2305 24.9351 26.4844 24.6226C28.6914 22.0054 30.0195 18.6265 30.0195 14.9547Z" fill="black" fill-opacity="0.85"/>
  <path d="M0 14.9547C0 18.6363 1.32812 22.025 3.54492 24.6422C3.78906 24.9351 4.19922 24.9351 4.49219 24.6519L7.39258 21.7515C7.59766 21.5465 7.60742 21.2535 7.42188 21.0191C6.05469 19.3004 5.2832 17.2203 5.2832 14.9547C5.2832 9.97419 9.0332 5.87263 13.8379 5.28669C14.1895 5.2574 14.4238 4.99373 14.4238 4.66169L14.4238 0.667554C14.4238 0.257398 14.1211-0.0355708 13.7207 0.00349172C6.03516 0.648023 0 7.09334 0 14.9547Z" fill="black" fill-opacity="0.85"/>
  <path d="M11.2012 20.4918L18.6816 20.4918C19.0039 20.4918 19.2383 20.2574 19.2383 19.9449C19.2383 19.6324 19.0039 19.398 18.6816 19.398L12.7051 19.398L12.7051 19.3297C13.6035 19.0367 14.1309 18.0699 14.209 17.0347C14.2188 16.898 14.2188 16.7613 14.2188 16.6246L17.3828 16.6246C17.627 16.6246 17.8223 16.4293 17.8223 16.1949C17.8223 15.9508 17.627 15.7652 17.3828 15.7652L14.1309 15.7652C14.043 15.2281 13.8672 14.7594 13.7402 14.2711L17.3828 14.2711C17.627 14.2711 17.8223 14.0758 17.8223 13.8316C17.8223 13.5875 17.627 13.4117 17.3828 13.4117L13.6035 13.4117C13.584 13.2554 13.5645 13.0797 13.5645 12.9039C13.5645 11.3707 14.7754 10.5797 16.3184 10.5797C16.8262 10.5797 17.3828 10.6773 17.7246 10.7554C17.8906 10.814 18.0859 10.8531 18.2129 10.8531C18.5645 10.8531 18.7012 10.6383 18.7012 10.3844C18.7012 10.0816 18.5156 9.90584 18.2227 9.78865C17.5879 9.51521 16.8359 9.46638 16.1914 9.46638C13.8477 9.46638 12.2461 10.7261 12.2461 12.9429C12.2461 13.109 12.2461 13.2554 12.2656 13.4117L11.0938 13.4117C10.8496 13.4117 10.6543 13.5875 10.6543 13.8316C10.6543 14.0758 10.8496 14.2711 11.0938 14.2711L12.4023 14.2711C12.5293 14.7984 12.7051 15.2672 12.8223 15.7652L11.0938 15.7652C10.8496 15.7652 10.6543 15.9508 10.6543 16.1949C10.6543 16.4293 10.8496 16.6246 11.0938 16.6246L12.9297 16.6246C12.9297 16.7711 12.9199 16.9664 12.9004 17.1324C12.7734 18.2554 12.0312 19.0074 11.1523 19.2808C10.8301 19.3883 10.625 19.564 10.625 19.9156C10.625 20.2965 10.8887 20.4918 11.2012 20.4918Z" fill="black" fill-opacity="0.85"/>
 </g>
</svg>
