<?xml version="1.0" encoding="UTF-8"?>
<!--Generator: Apple Native CoreSVG 326-->
<!DOCTYPE svg
PUBLIC "-//W3C//DTD SVG 1.1//EN"
       "http://www.w3.org/Graphics/SVG/1.1/DTD/svg11.dtd">
<svg version="1.1" xmlns="http://www.w3.org/2000/svg" xmlns:xlink="http://www.w3.org/1999/xlink" viewBox="0 0 28.291 27.9395">
 <g>
  <rect height="27.9395" opacity="0" width="28.291" x="0" y="0"/>
  <path d="M13.9648 27.9297C21.6406 27.9297 27.9297 21.6504 27.9297 13.9648C27.9297 6.2793 21.6406 0 13.9648 0C6.28906 0 0 6.2793 0 13.9648C0 21.6504 6.28906 27.9297 13.9648 27.9297ZM13.9648 23.3398C8.7793 23.3398 4.58008 19.1504 4.58008 13.9648C4.58008 8.7793 8.7793 4.58008 13.9648 4.58008C19.1504 4.58008 23.3496 8.7793 23.3496 13.9648C23.3496 19.1504 19.1504 23.3398 13.9648 23.3398Z" fill="black" fill-opacity="0.85"/>
  <path d="M10.1758 19.3457L17.6465 19.3457C17.9688 19.3457 18.2031 19.1016 18.2031 18.7891C18.2031 18.4863 17.9688 18.2422 17.6465 18.2422L11.6699 18.2422L11.6699 18.1738C12.5684 17.8809 13.0957 16.9141 13.1738 15.8789C13.1836 15.7422 13.1934 15.6055 13.1836 15.4688L16.3477 15.4688C16.5918 15.4688 16.7871 15.2832 16.7871 15.0391C16.7871 14.7949 16.5918 14.6094 16.3477 14.6094L13.1055 14.6094C13.0078 14.0723 12.832 13.6133 12.7148 13.1152L16.3477 13.1152C16.5918 13.1152 16.7871 12.9297 16.7871 12.6855C16.7871 12.4414 16.5918 12.2559 16.3477 12.2559L12.5684 12.2559C12.5488 12.0996 12.5293 11.9336 12.5293 11.7578C12.5293 10.2246 13.7402 9.43359 15.293 9.43359C15.8008 9.43359 16.3477 9.52148 16.6895 9.59961C16.8652 9.6582 17.0508 9.69727 17.1777 9.69727C17.5391 9.69727 17.666 9.48242 17.666 9.22852C17.666 8.92578 17.4805 8.75977 17.1973 8.63281C16.5625 8.35938 15.8008 8.32031 15.166 8.32031C12.8125 8.32031 11.2109 9.57031 11.2109 11.7969C11.2109 11.9531 11.2207 12.0996 11.2305 12.2559L10.0684 12.2559C9.82422 12.2559 9.61914 12.4414 9.61914 12.6855C9.61914 12.9297 9.82422 13.1152 10.0684 13.1152L11.3672 13.1152C11.4941 13.6426 11.6699 14.1113 11.7871 14.6094L10.0684 14.6094C9.82422 14.6094 9.61914 14.7949 9.61914 15.0391C9.61914 15.2832 9.82422 15.4688 10.0684 15.4688L11.8945 15.4688C11.9043 15.6152 11.8848 15.8105 11.8652 15.9766C11.7383 17.0996 10.9961 17.8613 10.1172 18.125C9.79492 18.2324 9.58984 18.418 9.58984 18.7598C9.58984 19.1406 9.85352 19.3457 10.1758 19.3457Z" fill="black" fill-opacity="0.85"/>
 </g>
</svg>
