<?xml version="1.0" ?><!-- Generator: Adobe Illustrator 25.0.0, SVG Export Plug-In . SVG Version: 6.00 Build 0)  --><svg xmlns="http://www.w3.org/2000/svg" xmlns:xlink="http://www.w3.org/1999/xlink" version="1.1" id="Layer_1" x="0px" y="0px" viewBox="0 0 512 512" style="enable-background:new 0 0 512 512;" xml:space="preserve">
<path d="M256,512c140,0,256-116.2,256-256C512,116,395.8,0,255.7,0C116,0,0,116,0,256C0,395.8,116.2,512,256,512z M161.4,362.7  c0-8.5,4-13.8,13.6-16.8c17.6-5,32.6-20.3,35.1-43.2c0.3-3,0.5-5.8,0.3-8.5h-33.9c-8.3,0-14.6-5.8-14.6-14.1s6.3-13.8,14.6-13.8  h29.9c-1.8-7.5-4.3-14.8-5.8-22.3h-24.1c-8.3,0-14.6-5.8-14.6-14.1c0-8.3,6.3-13.8,14.6-13.8h19.8c-0.3-2-0.5-3.5-0.5-5.5  c0-48.9,32.6-79.8,86.1-79.8c15.8,0,30.6,1.8,42.9,6.8c9,3.5,12.3,9,12.3,15.8c0,8.5-5,14.1-14.8,13.6c-8-1-19.3-5.5-38.4-5.5  c-34.1,0-54.2,19.1-54.2,46.9c0,2.8,0.3,5.3,0.5,7.8h75c8.5,0,14.6,5.5,14.6,13.8c0,8.3-6,14.1-14.6,14.1h-70.3  c1.8,7.3,3.8,14.6,5.8,22.3h64.5c8.5,0,14.6,5.5,14.6,13.8s-6,14.1-14.6,14.1h-61.7c0,4-0.3,7.8-0.8,11.5  c-2.5,17.1-10,32.9-21.3,41.9h111.9c9.3,0,15.8,6,15.8,15.1c0,9.3-6.5,15.3-15.8,15.3H176.7C167.4,378,161.4,372,161.4,362.7z"/>
</svg>