<?xml version="1.0" ?><!-- Generator: Adobe Illustrator 25.0.0, SVG Export Plug-In . SVG Version: 6.00 Build 0)  --><svg xmlns="http://www.w3.org/2000/svg" xmlns:xlink="http://www.w3.org/1999/xlink" version="1.1" id="Layer_1" x="0px" y="0px" viewBox="0 0 512 512" style="enable-background:new 0 0 512 512;" xml:space="preserve">
<path d="M87.3,512h337.3c58.4,0,87.3-28.9,87.3-86.2V86.2C512,28.9,483.1,0,424.7,0H87.3C29.2,0,0,28.6,0,86.2v339.6  C0,483.4,29.2,512,87.3,512z M151.6,373.8c0-9.5,4.5-15.3,15-18.6c19.5-5.6,36.2-22.5,38.9-47.8c0.3-3.3,0.6-6.4,0.3-9.5h-37.5  c-9.2,0-15.9-6.4-15.9-15.6c0-9.2,6.7-15.3,15.9-15.3h33.1c-1.9-8.3-4.4-16.4-6.4-24.8h-26.7c-9.2,0-15.9-6.4-15.9-15.6  c0-9.2,6.7-15.3,15.9-15.3h22c-0.3-2.2-0.6-3.9-0.6-6.1c0-54.2,36.4-88.4,95.4-88.4c17.5,0,33.9,1.9,47.6,7.5  c10,3.9,13.6,10,13.6,17.5c0,9.5-5.3,15.6-16.4,15c-8.9-1.1-21.4-6.1-42.6-6.1c-37.8,0-60.1,21.1-60.1,52c0,3.1,0.3,5.8,0.6,8.6  h83.2c9.5,0,16.1,6.1,16.1,15.3c0,9.2-6.7,15.6-16.1,15.6h-77.9c1.9,8.1,4.2,16.1,6.4,24.8h71.5c9.5,0,16.1,6.1,16.1,15.3  c0,9.2-6.7,15.6-16.1,15.6h-68.4c0,4.4-0.3,8.6-0.8,12.8c-2.8,18.9-11.1,36.4-23.6,46.4h124c10.3,0,17.5,6.7,17.5,16.7  c0,10.3-7.2,17-17.5,17H168.5C158.2,390.7,151.6,384.1,151.6,373.8z"/>
</svg>