<?xml version="1.0" encoding="UTF-8"?>
<!--Generator: Apple Native CoreSVG 326-->
<!DOCTYPE svg
PUBLIC "-//W3C//DTD SVG 1.1//EN"
       "http://www.w3.org/Graphics/SVG/1.1/DTD/svg11.dtd">
<svg version="1.1" xmlns="http://www.w3.org/2000/svg" xmlns:xlink="http://www.w3.org/1999/xlink" viewBox="0 0 30.6563 25.459">
 <g>
  <rect height="25.459" opacity="0" width="30.6563" x="0" y="0"/>
  <path d="M15.1475 25.4395C22.169 25.4395 27.8623 19.7461 27.8623 12.7246C27.8623 5.70312 22.169 0 15.1475 0C8.12599 0 2.43263 5.70312 2.43263 12.7246L4.24904 12.7246C4.24904 6.69922 9.12208 1.82617 15.1475 1.82617C21.1729 1.82617 26.0459 6.69922 26.0459 12.7246C26.0459 18.75 21.1729 23.623 15.1475 23.623C11.417 23.623 8.08693 21.7285 6.18263 18.877C5.86037 18.4375 5.35255 18.3008 4.90333 18.5742C4.47365 18.8281 4.34669 19.4238 4.69826 19.9023C6.97365 23.252 10.8213 25.4395 15.1475 25.4395ZM0.801772 10.3613C0.000990731 10.3613-0.223619 10.9082 0.235366 11.543L3.0088 15.4883C3.3799 16.0254 3.91701 16.0156 4.27833 15.4883L7.05177 11.5332C7.49123 10.9082 7.27638 10.3613 6.48537 10.3613Z" fill="black" fill-opacity="0.85"/>
  <path d="M11.3584 18.1055L18.8291 18.1055C19.1514 18.1055 19.3955 17.8613 19.3955 17.5488C19.3955 17.2461 19.1514 17.002 18.8291 17.002L12.8526 17.002L12.8526 16.9336C13.751 16.6406 14.2783 15.6738 14.3565 14.6387C14.3662 14.502 14.376 14.3652 14.3662 14.2285L17.5401 14.2285C17.7744 14.2285 17.9795 14.043 17.9795 13.7988C17.9795 13.5547 17.7744 13.3691 17.5401 13.3691L14.2881 13.3691C14.1904 12.832 14.0244 12.373 13.8975 11.875L17.5401 11.875C17.7744 11.875 17.9795 11.6895 17.9795 11.4453C17.9795 11.2012 17.7744 11.0156 17.5401 11.0156L13.751 11.0156C13.7315 10.8594 13.7217 10.6934 13.7217 10.5176C13.7217 8.98438 14.9326 8.19336 16.4756 8.19336C16.9834 8.19336 17.5401 8.28125 17.8721 8.35938C18.0479 8.41797 18.2432 8.45703 18.3701 8.45703C18.7217 8.45703 18.8584 8.24219 18.8584 7.98828C18.8584 7.68555 18.6631 7.51953 18.3799 7.39258C17.7451 7.11914 16.9834 7.08008 16.3486 7.08008C13.9951 7.08008 12.3936 8.33008 12.3936 10.5566C12.3936 10.7129 12.4033 10.8594 12.4131 11.0156L11.251 11.0156C11.0069 11.0156 10.8115 11.2012 10.8115 11.4453C10.8115 11.6895 11.0069 11.875 11.251 11.875L12.5596 11.875C12.6768 12.4023 12.8526 12.8711 12.9697 13.3691L11.251 13.3691C11.0069 13.3691 10.8115 13.5547 10.8115 13.7988C10.8115 14.043 11.0069 14.2285 11.251 14.2285L13.0772 14.2285C13.0869 14.375 13.0674 14.5703 13.0479 14.7363C12.9209 15.8594 12.1787 16.6211 11.2998 16.8848C10.9776 16.9922 10.7822 17.1777 10.7822 17.5195C10.7822 17.9004 11.0361 18.1055 11.3584 18.1055Z" fill="black" fill-opacity="0.85"/>
 </g>
</svg>
