<?xml version="1.0" ?><!-- Generator: Adobe Illustrator 25.0.0, SVG Export Plug-In . SVG Version: 6.00 Build 0)  --><svg xmlns="http://www.w3.org/2000/svg" xmlns:xlink="http://www.w3.org/1999/xlink" version="1.1" id="Layer_1" x="0px" y="0px" viewBox="0 0 512 512" style="enable-background:new 0 0 512 512;" xml:space="preserve">
<path d="M256,512c140,0,256-116.2,256-256C512,116,395.8,0,255.7,0C116,0,0,116,0,256C0,395.8,116.2,512,256,512z M256,469.3  c-118.5,0-213.1-94.9-213.1-213.3S137.3,42.7,255.7,42.7S469.1,137.5,469.3,256S374.5,469.3,256,469.3z M164.4,359.7  c0,8.8,5.8,14.6,14.8,14.6h151.6c9,0,15.3-5.8,15.3-14.6s-6.3-14.8-15.3-14.8H222.4c10.8-8.8,18.3-23.8,20.6-40.4  c0.5-3.8,0.8-7.8,0.8-11.5h60c8.3,0,14.1-5.3,14.1-13.3S312,266,303.7,266h-62.7c-1.8-7.5-3.8-14.6-5.5-21.8h68.3  c8.3,0,14.1-5.3,14.1-13.3s-5.8-13.6-14.1-13.6h-72.8c-0.3-2.3-0.5-5-0.5-7.3c0-27.4,19.3-45.9,52.5-45.9c18.6,0,29.6,4.8,37.4,5.5  c9.3,0.5,14.3-4.8,14.3-13.1c0-6.8-3.3-11.8-12-15.3c-11.8-4.8-26.1-6.5-41.4-6.5c-52,0-83.6,30.1-83.6,77.3c0,2,0.3,3.5,0.5,5.3  h-19.1c-8,0-14.1,5.5-14.1,13.6s6,13.3,14.1,13.3h23.3c1.5,7.5,3.8,14.8,5.5,21.8h-28.9c-8,0-14.1,5.5-14.1,13.6s6,13.3,14.1,13.3  h32.9c0.3,2.8,0,5.5-0.3,8.3c-2.5,22.3-17.1,37.4-34.1,42.2C168.2,346.4,164.4,351.4,164.4,359.7z"/>
</svg>