<?xml version="1.0" encoding="UTF-8"?>
<!--Generator: Apple Native CoreSVG 326-->
<!DOCTYPE svg
PUBLIC "-//W3C//DTD SVG 1.1//EN"
       "http://www.w3.org/Graphics/SVG/1.1/DTD/svg11.dtd">
<svg version="1.1" xmlns="http://www.w3.org/2000/svg" xmlns:xlink="http://www.w3.org/1999/xlink" viewBox="0 0 25.4785 21.3379">
 <g>
  <rect height="21.3379" opacity="0" width="25.4785" x="0" y="0"/>
  <path d="M7.68555 19.1016L24.2383 19.1016C24.7266 19.1016 25.1172 18.7305 25.1172 18.2422C25.1172 17.7539 24.7266 17.373 24.2383 17.373L7.68555 17.373C7.19727 17.373 6.81641 17.7539 6.81641 18.2422C6.81641 18.7305 7.19727 19.1016 7.68555 19.1016Z" fill="black" fill-opacity="0.85"/>
  <path d="M2.12891 21.0059C3.56445 21.0059 4.42383 20.3613 4.42383 19.3359C4.42383 18.6426 3.95508 18.1641 3.08594 18.0859L3.08594 18.0566C3.75 17.9297 4.20898 17.5098 4.20898 16.7969C4.20898 15.8789 3.33008 15.3516 2.11914 15.3516C1.16211 15.3516 0.126953 15.8105 0.126953 16.6113C0.126953 16.9434 0.371094 17.168 0.712891 17.168C0.976562 17.168 1.09375 17.0703 1.25977 16.875C1.5332 16.5527 1.77734 16.4453 2.10938 16.4453C2.5293 16.4453 2.82227 16.6504 2.82227 17.041C2.82227 17.4023 2.50977 17.6074 1.98242 17.6074L1.80664 17.6074C1.48438 17.6074 1.26953 17.7832 1.26953 18.1152C1.26953 18.4375 1.47461 18.623 1.80664 18.623L2.00195 18.623C2.58789 18.623 2.90039 18.8281 2.90039 19.2383C2.90039 19.6094 2.56836 19.8633 2.12891 19.8633C1.67969 19.8633 1.35742 19.6289 1.12305 19.375C0.986328 19.2188 0.859375 19.1211 0.644531 19.1211C0.263672 19.1211 0 19.3457 0 19.707C0 20.5469 1.14258 21.0059 2.12891 21.0059Z" fill="black" fill-opacity="0.85"/>
  <path d="M7.68555 11.543L24.2383 11.543C24.7266 11.543 25.1172 11.1621 25.1172 10.6738C25.1172 10.1855 24.7266 9.81445 24.2383 9.81445L7.68555 9.81445C7.19727 9.81445 6.81641 10.1855 6.81641 10.6738C6.81641 11.1621 7.19727 11.543 7.68555 11.543Z" fill="black" fill-opacity="0.85"/>
  <path d="M0.664062 13.2031L3.83789 13.2031C4.16016 13.2031 4.39453 12.9883 4.39453 12.6562C4.39453 12.3047 4.16016 12.0898 3.83789 12.0898L1.98242 12.0898L1.98242 12.0508L3.04688 11.1621C3.90625 10.4395 4.21875 10.0391 4.21875 9.32617C4.21875 8.35938 3.39844 7.69531 2.09961 7.69531C0.927734 7.69531 0.0976562 8.32031 0.0976562 9.0918C0.0976562 9.48242 0.341797 9.67773 0.722656 9.67773C0.996094 9.67773 1.18164 9.58984 1.32812 9.30664C1.49414 8.99414 1.74805 8.81836 2.11914 8.81836C2.50977 8.81836 2.79297 9.07227 2.79297 9.43359C2.79297 9.75586 2.62695 10.0098 1.98242 10.5566L0.351562 11.9238C0.117188 12.1191 0.0292969 12.3242 0.0292969 12.5879C0.0292969 12.959 0.273438 13.2031 0.664062 13.2031Z" fill="black" fill-opacity="0.85"/>
  <path d="M7.68555 3.97461L24.2383 3.97461C24.7266 3.97461 25.1172 3.60352 25.1172 3.11523C25.1172 2.62695 24.7266 2.24609 24.2383 2.24609L7.68555 2.24609C7.19727 2.24609 6.81641 2.62695 6.81641 3.11523C6.81641 3.60352 7.19727 3.97461 7.68555 3.97461Z" fill="black" fill-opacity="0.85"/>
  <path d="M2.62695 5.66406C3.07617 5.66406 3.37891 5.41016 3.37891 4.89258L3.37891 0.820312C3.37891 0.322266 3.03711 0 2.5293 0C2.10938 0 1.85547 0.15625 1.55273 0.351562L0.664062 0.976562C0.400391 1.15234 0.273438 1.30859 0.273438 1.55273C0.273438 1.86523 0.517578 2.08008 0.791016 2.08008C0.947266 2.08008 1.02539 2.05078 1.24023 1.9043L1.8457 1.47461L1.86523 1.47461L1.86523 4.89258C1.86523 5.41016 2.16797 5.66406 2.62695 5.66406Z" fill="black" fill-opacity="0.85"/>
 </g>
</svg>
