<?xml version="1.0" encoding="UTF-8"?>
<!--Generator: Apple Native CoreSVG 326-->
<!DOCTYPE svg
PUBLIC "-//W3C//DTD SVG 1.1//EN"
       "http://www.w3.org/Graphics/SVG/1.1/DTD/svg11.dtd">
<svg version="1.1" xmlns="http://www.w3.org/2000/svg" xmlns:xlink="http://www.w3.org/1999/xlink" viewBox="0 0 21.3281 34.3262">
 <g>
  <rect height="34.3262" opacity="0" width="21.3281" x="0" y="0"/>
  <path d="M20.9668 8.50586L20.9668 27.8125C20.9668 30.3418 19.707 31.6113 17.207 31.6113L3.75977 31.6113C1.25977 31.6113 0 30.3418 0 27.8125L0 8.50586C0 5.97656 1.25977 4.69727 3.75977 4.69727L4.1728 4.69727C4.16434 4.78651 4.16016 4.87775 4.16016 4.9707L4.16016 6.2793C4.16016 6.33238 4.1615 6.3849 4.16704 6.43555L3.85742 6.43555C2.45117 6.43555 1.72852 7.17773 1.72852 8.53516L1.72852 27.7832C1.72852 29.1406 2.45117 29.8828 3.85742 29.8828L17.1094 29.8828C18.5156 29.8828 19.2383 29.1406 19.2383 27.7832L19.2383 8.53516C19.2383 7.17773 18.5156 6.43555 17.1094 6.43555L16.7998 6.43555C16.8053 6.3849 16.8066 6.33238 16.8066 6.2793L16.8066 4.9707C16.8066 4.87775 16.8025 4.78651 16.794 4.69727L17.207 4.69727C19.707 4.69727 20.9668 5.97656 20.9668 8.50586Z" fill="black" fill-opacity="0.85"/>
  <path d="M6.62109 7.41211L14.3457 7.41211C15.0293 7.41211 15.4492 6.99219 15.4492 6.2793L15.4492 4.9707C15.4492 4.25781 15.0293 3.83789 14.3457 3.83789L13.0859 3.83789C13.0176 2.4707 11.875 1.35742 10.4883 1.35742C9.0918 1.35742 7.94922 2.4707 7.88086 3.83789L6.62109 3.83789C5.9375 3.83789 5.51758 4.25781 5.51758 4.9707L5.51758 6.2793C5.51758 6.99219 5.9375 7.41211 6.62109 7.41211ZM10.4883 5.0293C9.86328 5.0293 9.36523 4.51172 9.36523 3.91602C9.36523 3.29102 9.86328 2.79297 10.4883 2.79297C11.1035 2.79297 11.6016 3.29102 11.6016 3.91602C11.6016 4.51172 11.1035 5.0293 10.4883 5.0293Z" fill="black" fill-opacity="0.85"/>
  <path d="M5.17578 24.0332C5.71289 24.0332 6.15234 23.5938 6.15234 23.0566C6.15234 22.5098 5.71289 22.0703 5.17578 22.0703C4.63867 22.0703 4.18945 22.5195 4.18945 23.0566C4.18945 23.584 4.63867 24.0332 5.17578 24.0332ZM8.36914 23.7402L16.0938 23.7402C16.4648 23.7402 16.7773 23.4277 16.7773 23.0566C16.7773 22.6758 16.4746 22.373 16.0938 22.373L8.36914 22.373C7.97852 22.373 7.67578 22.6758 7.67578 23.0566C7.67578 23.4277 7.98828 23.7402 8.36914 23.7402Z" fill="black" fill-opacity="0.85"/>
  <path d="M5.17578 19.2578C5.71289 19.2578 6.15234 18.8184 6.15234 18.2812C6.15234 17.7441 5.71289 17.3145 5.17578 17.3145C4.62891 17.3145 4.18945 17.7539 4.18945 18.2812C4.18945 18.8184 4.62891 19.2578 5.17578 19.2578ZM8.36914 18.9648L16.0938 18.9648C16.4746 18.9648 16.7773 18.6621 16.7773 18.2812C16.7773 17.9102 16.4746 17.6074 16.0938 17.6074L8.36914 17.6074C7.97852 17.6074 7.67578 17.9102 7.67578 18.2812C7.67578 18.6621 7.97852 18.9648 8.36914 18.9648Z" fill="black" fill-opacity="0.85"/>
  <path d="M5.17578 14.7461C5.71289 14.7461 6.15234 14.3066 6.15234 13.7695C6.15234 13.2227 5.71289 12.793 5.17578 12.793C4.63867 12.793 4.18945 13.2324 4.18945 13.7695C4.18945 14.2969 4.63867 14.7461 5.17578 14.7461ZM8.36914 14.4531L16.0938 14.4531C16.4648 14.4531 16.7773 14.1406 16.7773 13.7695C16.7773 13.3984 16.4648 13.0859 16.0938 13.0859L8.36914 13.0859C7.98828 13.0859 7.67578 13.3984 7.67578 13.7695C7.67578 14.1406 7.98828 14.4531 8.36914 14.4531Z" fill="black" fill-opacity="0.85"/>
 </g>
</svg>
