<?xml version="1.0" encoding="UTF-8"?>
<!--Generator: Apple Native CoreSVG 326-->
<!DOCTYPE svg
PUBLIC "-//W3C//DTD SVG 1.1//EN"
       "http://www.w3.org/Graphics/SVG/1.1/DTD/svg11.dtd">
<svg version="1.1" xmlns="http://www.w3.org/2000/svg" xmlns:xlink="http://www.w3.org/1999/xlink" viewBox="0 0 31.6602 18.1934">
 <g>
  <rect height="18.1934" opacity="0" width="31.6602" x="0" y="0"/>
  <path d="M13.1543 17.5293L30.4199 17.5293C30.918 17.5293 31.2988 17.1484 31.2988 16.6602C31.2988 16.1719 30.918 15.8008 30.4199 15.8008L13.1543 15.8008C12.6562 15.8008 12.2852 16.1719 12.2852 16.6602C12.2852 17.1484 12.6562 17.5293 13.1543 17.5293Z" fill="black" fill-opacity="0.85"/>
  <path d="M7.71484 18.1934C8.56445 18.1934 9.24805 17.5098 9.24805 16.6602C9.24805 15.8105 8.56445 15.127 7.71484 15.127C6.86523 15.127 6.18164 15.8105 6.18164 16.6602C6.18164 17.5098 6.86523 18.1934 7.71484 18.1934Z" fill="black" fill-opacity="0.85"/>
  <path d="M10.0586 9.96094L27.334 9.96094C27.8223 9.96094 28.2031 9.58984 28.2031 9.10156C28.2031 8.61328 27.8223 8.23242 27.334 8.23242L10.0586 8.23242C9.57031 8.23242 9.18945 8.61328 9.18945 9.10156C9.18945 9.58984 9.57031 9.96094 10.0586 9.96094Z" fill="black" fill-opacity="0.85"/>
  <path d="M4.62891 10.6348C5.47852 10.6348 6.16211 9.95117 6.16211 9.10156C6.16211 8.25195 5.47852 7.56836 4.62891 7.56836C3.7793 7.56836 3.0957 8.25195 3.0957 9.10156C3.0957 9.95117 3.7793 10.6348 4.62891 10.6348Z" fill="black" fill-opacity="0.85"/>
  <path d="M6.96289 2.40234L24.2383 2.40234C24.7266 2.40234 25.1172 2.02148 25.1172 1.5332C25.1172 1.04492 24.7266 0.673828 24.2383 0.673828L6.96289 0.673828C6.47461 0.673828 6.10352 1.04492 6.10352 1.5332C6.10352 2.02148 6.47461 2.40234 6.96289 2.40234Z" fill="black" fill-opacity="0.85"/>
  <path d="M1.5332 3.06641C2.38281 3.06641 3.06641 2.38281 3.06641 1.5332C3.06641 0.683594 2.38281 0 1.5332 0C0.683594 0 0 0.683594 0 1.5332C0 2.38281 0.683594 3.06641 1.5332 3.06641Z" fill="black" fill-opacity="0.85"/>
 </g>
</svg>
