<?xml version="1.0" ?><!-- Generator: Adobe Illustrator 25.0.0, SVG Export Plug-In . SVG Version: 6.00 Build 0)  --><svg xmlns="http://www.w3.org/2000/svg" xmlns:xlink="http://www.w3.org/1999/xlink" version="1.1" id="Layer_1" x="0px" y="0px" viewBox="0 0 512 512" style="enable-background:new 0 0 512 512;" xml:space="preserve">
<path d="M74.1,9.2C19.5,9.2,0,33,0,84.9v124.4C0,261.2,19.5,285,74.1,285h363.8c54.6,0,74.1-23.8,74.1-75.7V84.9  c0-51.9-19.5-75.7-74.1-75.7H74.1z M43.1,210.7V83.6c0-23.8,7.8-34.2,31.3-34.2h363.3c23.5,0,31.3,10.4,31.3,34.2v127.1  c0,23.8-7.8,34.2-31.3,34.2H74.4C50.8,244.9,43.1,234.5,43.1,210.7z M63.1,369c0-15.8-12.8-28.9-29.2-28.9  c-15.8,0-28.6,13.1-28.6,28.9c0,16.1,12.8,28.6,28.6,28.6C50.3,397.6,63.1,385.1,63.1,369z M502.4,369c0-11.8-9.6-20.6-22.7-20.6  H119.6c-13.1,0-22.7,8.8-22.7,20.6c0,11.8,9.6,20.9,22.7,20.9h360.1C492.7,389.9,502.4,380.8,502.4,369z M63.1,473.9  c0-15.8-12.8-29.2-29.2-29.2c-15.8,0-28.6,13.4-28.6,29.2c0,16.1,12.8,28.9,28.6,28.9C50.3,502.8,63.1,489.9,63.1,473.9z   M502.4,473.9c0-11.8-9.6-20.6-22.7-20.6H119.6c-13.1,0-22.7,8.8-22.7,20.6c0,11.8,9.6,20.9,22.7,20.9h360.1  C492.7,494.7,502.4,485.7,502.4,473.9z"/>
</svg>