<?xml version="1.0" encoding="UTF-8"?>
<!--Generator: Apple Native CoreSVG 326-->
<!DOCTYPE svg
PUBLIC "-//W3C//DTD SVG 1.1//EN"
       "http://www.w3.org/Graphics/SVG/1.1/DTD/svg11.dtd">
<svg version="1.1" xmlns="http://www.w3.org/2000/svg" xmlns:xlink="http://www.w3.org/1999/xlink" viewBox="0 0 25.8008 25.459">
 <g>
  <rect height="25.459" opacity="0" width="25.8008" x="0" y="0"/>
  <path d="M25.4395 12.7246C25.4395 19.7266 19.7266 25.4395 12.7148 25.4395C5.71289 25.4395 0 19.7266 0 12.7246C0 5.71289 5.71289 0 12.7148 0C19.7266 0 25.4395 5.71289 25.4395 12.7246ZM5.3125 17.0605C5.3125 17.666 5.79102 18.1445 6.38672 18.1445C6.99219 18.1445 7.4707 17.666 7.4707 17.0605C7.4707 16.4746 6.98242 15.9766 6.38672 15.9766C5.79102 15.9766 5.3125 16.4648 5.3125 17.0605ZM9.49219 16.377C9.11133 16.377 8.79883 16.6895 8.79883 17.0605C8.79883 17.4414 9.0918 17.7539 9.49219 17.7539L19.3848 17.7539C19.7852 17.7539 20.0879 17.4512 20.0879 17.0605C20.0879 16.6699 19.7852 16.377 19.3848 16.377ZM5.3125 12.7344C5.3125 13.3398 5.79102 13.8184 6.38672 13.8184C6.98242 13.8184 7.4707 13.3301 7.4707 12.7344C7.4707 12.1484 6.98242 11.6602 6.38672 11.6602C5.79102 11.6602 5.3125 12.1387 5.3125 12.7344ZM9.49219 12.0508C9.11133 12.0508 8.79883 12.3633 8.79883 12.7344C8.79883 13.1152 9.11133 13.4277 9.49219 13.4277L19.3848 13.4277C19.7852 13.4277 20.0879 13.125 20.0879 12.7344C20.0879 12.3438 19.7852 12.0508 19.3848 12.0508ZM5.3125 8.41797C5.3125 9.00391 5.79102 9.49219 6.38672 9.49219C6.98242 9.49219 7.4707 8.99414 7.4707 8.41797C7.4707 7.8125 6.99219 7.33398 6.38672 7.33398C5.79102 7.33398 5.3125 7.8125 5.3125 8.41797ZM9.49219 7.72461C9.0918 7.72461 8.79883 8.02734 8.79883 8.41797C8.79883 8.78906 9.11133 9.10156 9.49219 9.10156L19.3848 9.10156C19.7852 9.10156 20.0879 8.80859 20.0879 8.41797C20.0879 8.02734 19.7852 7.72461 19.3848 7.72461Z" fill="black" fill-opacity="0.85"/>
 </g>
</svg>
