<?xml version="1.0" ?><!-- Generator: Adobe Illustrator 25.0.0, SVG Export Plug-In . SVG Version: 6.00 Build 0)  --><svg xmlns="http://www.w3.org/2000/svg" xmlns:xlink="http://www.w3.org/1999/xlink" version="1.1" id="Layer_1" x="0px" y="0px" viewBox="0 0 512 512" style="enable-background:new 0 0 512 512;" xml:space="preserve">
<path d="M15.9,105.8h394c8.9,0,16.3-7,16.3-16.1c0-8.9-7.4-15.9-16.3-15.9h-394C7,73.9,0,80.9,0,89.8C0,98.9,7,105.8,15.9,105.8z   M15.9,216.7H148c9.1,0,16.3-7,16.3-16.1c0-8.9-7.2-15.9-16.3-15.9H15.9c-8.9,0-15.9,7-15.9,15.9C0,209.7,7,216.7,15.9,216.7z   M232.6,436h250.6c17.3,0,28.8-11,28.8-28.3V215.2c0-16.9-11.4-28.1-28.8-28.1H232.6c-17.3,0-28.6,11.2-28.6,28.1v192.4  C204.1,425,215.3,436,232.6,436z M234.5,247.5c-4.2,0-7-3-7-7v-23.3c0-4.2,2.7-7.2,7-7.2h19.9c4.2,0,7,3,7,7.2v23.3c0,4-2.7,7-7,7  H234.5z M461.5,247.5c-4.2,0-7-3-7-7v-23.3c0-4.2,2.8-7.2,7-7.2h19.9c4.2,0,7.2,3,7.2,7.2v23.3c0,4-3,7-7.2,7H461.5z M291,295.8  c-4.2,0-6.8-2.5-6.8-6.8v-63.7c0-4.2,2.5-6.8,6.8-6.8h133.9c4.2,0,6.8,2.5,6.8,6.8V289c0,4.2-2.5,6.8-6.8,6.8H291z M234.5,302.5  c-4.2,0-7-3-7-6.6v-23.5c0-4.2,2.7-7.2,7-7.2h19.9c4.2,0,7,3,7,7.2V296c0,3.6-2.7,6.6-7,6.6H234.5z M461.5,302.5c-4.2,0-7-3-7-6.6  v-23.5c0-4.2,2.8-7.2,7-7.2h19.9c4.2,0,7.2,3,7.2,7.2V296c0,3.6-3,6.6-7.2,6.6H461.5z M15.9,327.5H148c9.1,0,16.3-7.2,16.3-16.1  c0-8.9-7.2-15.9-16.3-15.9H15.9c-8.9,0-15.9,7-15.9,15.9C0,320.3,7,327.5,15.9,327.5z M234.5,357.5c-4.2,0-7-2.7-7-6.6v-23.5  c0-4.2,2.7-7.2,7-7.2h19.9c4.2,0,7,3,7,7.2V351c0,3.8-2.7,6.6-7,6.6H234.5z M461.5,357.5c-4.2,0-7-2.7-7-6.6v-23.5  c0-4.2,2.8-7.2,7-7.2h19.9c4.2,0,7.2,3,7.2,7.2V351c0,3.8-3,6.6-7.2,6.6H461.5z M291,404.2c-4.2,0-6.8-2.5-6.8-6.8v-63  c0-4.4,2.5-7,6.8-7h133.9c4.2,0,6.8,2.5,6.8,7v63c0,4.2-2.5,6.8-6.8,6.8H291z M234.5,412.7c-4.2,0-7-2.7-7-6.8v-23.5  c0-4.2,2.7-7.2,7-7.2h19.9c4.2,0,7,3,7,7.2v23.5c0,4-2.7,6.8-7,6.8H234.5z M461.5,412.7c-4.2,0-7-2.7-7-6.8v-23.5  c0-4.2,2.8-7.2,7-7.2h19.9c4.2,0,7.2,3,7.2,7.2v23.5c0,4-3,6.8-7.2,6.8H461.5z M15.9,438.1H148c9.1,0,16.3-7,16.3-15.9  c0-8.9-7.2-16.1-16.3-16.1H15.9C7,406.2,0,413.3,0,422.2C0,431.1,7,438.1,15.9,438.1z"/>
</svg>