<?xml version="1.0" encoding="UTF-8"?>
<!--Generator: Apple Native CoreSVG 326-->
<!DOCTYPE svg
PUBLIC "-//W3C//DTD SVG 1.1//EN"
       "http://www.w3.org/Graphics/SVG/1.1/DTD/svg11.dtd">
<svg version="1.1" xmlns="http://www.w3.org/2000/svg" xmlns:xlink="http://www.w3.org/1999/xlink" viewBox="0 0 29.9512 22.959">
 <g>
  <rect height="22.959" opacity="0" width="29.9512" x="0" y="0"/>
  <path d="M29.5898 3.76953L29.5898 19.1992C29.5898 21.6797 28.3105 22.959 25.7812 22.959L3.79883 22.959C1.2793 22.959 0 21.6992 0 19.1992L0 3.76953C0 1.26953 1.2793 0 3.79883 0L25.7812 0C28.3105 0 29.5898 1.2793 29.5898 3.76953ZM4.33594 17.5586C4.33594 18.2129 4.88281 18.75 5.51758 18.75C6.18164 18.75 6.70898 18.2227 6.70898 17.5586C6.70898 16.9141 6.18164 16.377 5.51758 16.377C4.88281 16.377 4.33594 16.9238 4.33594 17.5586ZM9.58008 16.8652C9.17969 16.8652 8.87695 17.168 8.87695 17.5586C8.87695 17.959 9.18945 18.2812 9.58008 18.2812L18.0859 18.2812C18.4766 18.2812 18.7891 17.959 18.7891 17.5586C18.7891 17.168 18.4863 16.8652 18.0859 16.8652ZM4.33594 13.3984C4.33594 14.0625 4.87305 14.5898 5.51758 14.5898C6.18164 14.5898 6.70898 14.0625 6.70898 13.3984C6.70898 12.7539 6.18164 12.2266 5.51758 12.2266C4.87305 12.2266 4.33594 12.7637 4.33594 13.3984ZM9.58008 12.7051C9.17969 12.7051 8.87695 13.0078 8.87695 13.3984C8.87695 13.8086 9.17969 14.1211 9.58008 14.1211L24.6777 14.1211C25.0781 14.1211 25.3809 13.8086 25.3809 13.3984C25.3809 13.0078 25.0781 12.7051 24.6777 12.7051ZM4.33594 9.4043C4.33594 10.0488 4.88281 10.5859 5.51758 10.5859C6.18164 10.5859 6.70898 10.0586 6.70898 9.4043C6.70898 8.74023 6.18164 8.21289 5.51758 8.21289C4.88281 8.21289 4.33594 8.75 4.33594 9.4043ZM9.58008 8.69141C9.18945 8.69141 8.87695 9.01367 8.87695 9.4043C8.87695 9.79492 9.18945 10.1074 9.58008 10.1074L18.0859 10.1074C18.4766 10.1074 18.7891 9.79492 18.7891 9.4043C18.7891 9.01367 18.4766 8.69141 18.0859 8.69141ZM4.33594 5.39062C4.33594 6.02539 4.88281 6.58203 5.51758 6.58203C6.18164 6.58203 6.70898 6.03516 6.70898 5.39062C6.70898 4.72656 6.18164 4.19922 5.51758 4.19922C4.88281 4.19922 4.33594 4.73633 4.33594 5.39062ZM9.58008 4.66797C9.18945 4.66797 8.87695 4.99023 8.87695 5.39062C8.87695 5.78125 9.17969 6.08398 9.58008 6.08398L24.6777 6.08398C25.0781 6.08398 25.3809 5.78125 25.3809 5.39062C25.3809 4.99023 25.0684 4.66797 24.6777 4.66797Z" fill="black" fill-opacity="0.85"/>
 </g>
</svg>
