<?xml version="1.0" encoding="UTF-8"?>
<!--Generator: Apple Native CoreSVG 326-->
<!DOCTYPE svg
PUBLIC "-//W3C//DTD SVG 1.1//EN"
       "http://www.w3.org/Graphics/SVG/1.1/DTD/svg11.dtd">
<svg version="1.1" xmlns="http://www.w3.org/2000/svg" xmlns:xlink="http://www.w3.org/1999/xlink" viewBox="0 0 21.3281 34.3262">
 <g>
  <rect height="34.3262" opacity="0" width="21.3281" x="0" y="0"/>
  <path d="M4.16016 4.9707L4.16016 6.2793C4.16016 7.74414 5.18555 8.7793 6.62109 8.7793L14.3457 8.7793C15.7812 8.7793 16.8066 7.74414 16.8066 6.2793L16.8066 4.9707C16.8066 4.87429 16.8021 4.77973 16.7927 4.6875L17.207 4.6875C19.707 4.6875 20.9668 5.9668 20.9668 8.49609L20.9668 27.8125C20.9668 30.3418 19.707 31.6113 17.207 31.6113L3.75977 31.6113C1.25977 31.6113 0 30.3418 0 27.8125L0 8.49609C0 5.9668 1.25977 4.6875 3.75977 4.6875L4.17413 4.6875C4.16466 4.77973 4.16016 4.87429 4.16016 4.9707ZM4.0332 23.584C4.0332 24.1406 4.49219 24.5996 5.03906 24.5996C5.5957 24.5996 6.05469 24.1504 6.05469 23.584C6.05469 23.0371 5.5957 22.5781 5.03906 22.5781C4.49219 22.5781 4.0332 23.0469 4.0332 23.584ZM8.32031 22.8906C7.91992 22.8906 7.60742 23.2031 7.60742 23.584C7.60742 23.9746 7.92969 24.3066 8.32031 24.3066L16.2305 24.3066C16.6113 24.3066 16.9434 23.9746 16.9434 23.584C16.9434 23.2031 16.6211 22.8906 16.2305 22.8906ZM4.0332 18.7012C4.0332 19.2578 4.48242 19.7168 5.03906 19.7168C5.5957 19.7168 6.05469 19.2578 6.05469 18.7012C6.05469 18.1445 5.5957 17.7051 5.03906 17.7051C4.48242 17.7051 4.0332 18.1543 4.0332 18.7012ZM8.32031 17.998C7.91992 17.998 7.60742 18.3105 7.60742 18.7012C7.60742 19.1016 7.91992 19.4141 8.32031 19.4141L16.2305 19.4141C16.6211 19.4141 16.9434 19.1016 16.9434 18.7012C16.9434 18.3105 16.6211 17.998 16.2305 17.998ZM4.0332 14.082C4.0332 14.6289 4.49219 15.0977 5.03906 15.0977C5.5957 15.0977 6.05469 14.6387 6.05469 14.082C6.05469 13.5254 5.5957 13.0762 5.03906 13.0762C4.49219 13.0762 4.0332 13.5352 4.0332 14.082ZM8.32031 13.3691C7.92969 13.3691 7.60742 13.7012 7.60742 14.082C7.60742 14.4727 7.92969 14.7949 8.32031 14.7949L16.2305 14.7949C16.6113 14.7949 16.9434 14.4727 16.9434 14.082C16.9434 13.7012 16.6113 13.3691 16.2305 13.3691Z" fill="black" fill-opacity="0.85"/>
  <path d="M13.0859 3.83789L14.3457 3.83789C15.0293 3.83789 15.4492 4.25781 15.4492 4.9707L15.4492 6.2793C15.4492 6.99219 15.0293 7.41211 14.3457 7.41211L6.62109 7.41211C5.9375 7.41211 5.51758 6.99219 5.51758 6.2793L5.51758 4.9707C5.51758 4.25781 5.9375 3.83789 6.62109 3.83789L7.88086 3.83789C7.94922 2.4707 9.0918 1.35742 10.4883 1.35742C11.875 1.35742 13.0176 2.4707 13.0859 3.83789ZM9.36523 3.91602C9.36523 4.51172 9.86328 5.0293 10.4883 5.0293C11.1035 5.0293 11.6016 4.51172 11.6016 3.91602C11.6016 3.29102 11.1035 2.79297 10.4883 2.79297C9.86328 2.79297 9.36523 3.29102 9.36523 3.91602Z" fill="black" fill-opacity="0.85"/>
 </g>
</svg>
