<?xml version="1.0" ?><!-- Generator: Adobe Illustrator 25.0.0, SVG Export Plug-In . SVG Version: 6.00 Build 0)  --><svg xmlns="http://www.w3.org/2000/svg" xmlns:xlink="http://www.w3.org/1999/xlink" version="1.1" id="Layer_1" x="0px" y="0px" viewBox="0 0 512 512" style="enable-background:new 0 0 512 512;" xml:space="preserve">
<path d="M68.2,455.9h375.6c45.6,0,68.2-22.6,68.2-67.3V123.4c0-44.7-22.6-67.3-68.2-67.3H68.2C22.8,56.1,0,78.5,0,123.4v265.1  C0,433.5,22.8,455.9,68.2,455.9z M68.6,420.9c-21.7,0-33.7-11.5-33.7-34.1V125.2c0-22.6,11.9-34.1,33.7-34.1h374.8  c21.5,0,33.7,11.5,33.7,34.1v261.6c0,22.6-12.2,34.1-33.7,34.1H68.6z M102.9,174.7c11.3,0,20.2-9.1,20.2-20.2  c0-11.3-8.9-20.2-20.2-20.2c-10.9,0-20.2,9.1-20.2,20.2C82.7,165.3,92.1,174.7,102.9,174.7z M168.5,167.7h248.4  c7.8,0,13.7-5.9,13.7-13.2c0-7.6-6.1-13.7-13.7-13.7H168.5c-7.6,0-13.7,6.1-13.7,13.7C154.8,161.9,160.7,167.7,168.5,167.7z   M102.9,241.1c11.3,0,20.2-9.1,20.2-20.2c0-11.3-8.9-20.2-20.2-20.2c-10.9,0-20.2,9.1-20.2,20.2C82.7,231.8,92.1,241.1,102.9,241.1z   M168.5,234.4h137.7c7.4,0,13.5-6.1,13.5-13.5c0-7.4-6.1-13.7-13.5-13.7H168.5c-7.6,0-13.7,6.3-13.7,13.7  C154.8,228.3,160.9,234.4,168.5,234.4z M102.9,307.4c11.3,0,20.2-8.9,20.2-20.2c0-11.1-8.9-20-20.2-20c-11.1,0-20.2,9.1-20.2,20  C82.7,298.4,91.8,307.4,102.9,307.4z M168.5,300.8h248.4c7.8,0,13.7-5.9,13.7-13.7c0-7.4-5.9-13.2-13.7-13.2H168.5  c-7.8,0-13.7,5.9-13.7,13.2C154.8,295,160.7,300.8,168.5,300.8z M102.9,377.1c11.3,0,20.2-9.1,20.2-20.2c0-11.3-8.9-20.4-20.2-20.4  c-10.9,0-20.2,9.3-20.2,20.4C82.7,367.7,92.1,377.1,102.9,377.1z M168.5,370.3h137.7c7.4,0,13.5-6.1,13.5-13.5  c0-7.6-5.9-13.5-13.5-13.5H168.5c-7.8,0-13.7,5.9-13.7,13.5C154.8,364.2,160.9,370.3,168.5,370.3z"/>
</svg>