<?xml version="1.0" ?><!-- Generator: Adobe Illustrator 25.0.0, SVG Export Plug-In . SVG Version: 6.00 Build 0)  --><svg xmlns="http://www.w3.org/2000/svg" xmlns:xlink="http://www.w3.org/1999/xlink" version="1.1" id="Layer_1" x="0px" y="0px" viewBox="0 0 512 512" style="enable-background:new 0 0 512 512;" xml:space="preserve">
<path d="M55.4,158.6c9.7,0,16.5-5.6,16.5-17V59.5c0-10.7-7.6-17.5-18.8-17.5c-8.9,0-14.5,3-20.8,7.4l-18,12.5  c-5.1,3.6-7.9,6.9-7.9,12.2c0,6.6,5.1,11.2,10.9,11.2c3.3,0,4.8-0.5,9.1-3.6l11.7-7.9h0.5v67.8C38.6,153,45.2,158.6,55.4,158.6z   M156.3,127.8h335.2c11.4,0,20.6-8.9,20.6-20.3c0-11.7-9.1-20.6-20.6-20.6H156.3c-11.4,0-20.6,8.9-20.6,20.6  C135.7,118.9,144.8,127.8,156.3,127.8z M14.5,311.8h65.3c6.9,0,12.2-4.8,12.2-11.9c0-7.6-5.1-12.5-12.2-12.5H43.5v-0.8l20.8-16.8  c17.3-14.2,24.1-22.4,24.1-37.4c0-20.3-17-34-44.5-34c-24.4,0-41.9,12.7-41.9,29c0,8.1,5.3,12.5,14,12.5c5.8,0,9.7-1.8,13.2-7.6  c3.6-6.1,8.1-9.4,15.2-9.4c7.4,0,12.7,4.8,12.7,11.9c0,6.1-3,11.4-16.3,21.9L7.6,284.1c-5.1,4.1-7.1,8.6-7.1,14.2  C0.5,306.2,6.1,311.8,14.5,311.8z M156.3,281.5h335.2c11.4,0,20.6-9.1,20.6-20.6c0-11.4-9.1-20.3-20.6-20.3H156.3  c-11.4,0-20.6,8.9-20.6,20.3C135.7,272.4,144.8,281.5,156.3,281.5z M44.5,470.1c30.2,0,48-13.5,48-34.8c0-14-9.7-23.6-27.2-25.2  v-0.8c12.7-2.3,22.9-10.9,22.9-25.7c0-19.3-18.8-30-44-30c-19.8,0-41.4,9.4-41.4,26.2c0,7.1,5.1,12.2,13,12.2  c5.6,0,8.1-2.3,11.7-6.1c5.8-6.4,10.4-8.4,16.8-8.4c7.9,0,13.7,3.8,13.7,11.4c0,7.1-6.1,10.7-16.5,10.7h-2.8  c-7.1,0-11.7,3.6-11.7,10.9c0,6.9,4.3,10.9,11.7,10.9h3.3c11.4,0,17.5,3.8,17.5,11.7c0,6.9-6.4,11.9-15,11.9  c-8.9,0-15.2-5.1-20.1-9.9c-3-2.8-5.6-4.8-10.4-4.8c-8.1,0-14,4.8-14,12.7C0,460.7,23.9,470.1,44.5,470.1z M156.3,435h335.2  c11.4,0,20.6-8.9,20.6-20.3c0-11.7-9.1-20.6-20.6-20.6H156.3c-11.4,0-20.6,8.9-20.6,20.6C135.7,426.1,144.8,435,156.3,435z"/>
</svg>