<?xml version="1.0" ?><!-- Generator: Adobe Illustrator 25.0.0, SVG Export Plug-In . SVG Version: 6.00 Build 0)  --><svg xmlns="http://www.w3.org/2000/svg" xmlns:xlink="http://www.w3.org/1999/xlink" version="1.1" id="Layer_1" x="0px" y="0px" viewBox="0 0 512 512" style="enable-background:new 0 0 512 512;" xml:space="preserve">
<path d="M32,134.2c17.8,0,32-14.2,32-31.8c0-17.8-14.2-32-32-32s-32,14.2-32,32C0,119.9,14.2,134.2,32,134.2z M144.3,122.7h347.1  c11.4,0,20.6-8.9,20.6-20.3c0-11.7-9.1-20.6-20.6-20.6H144.3c-11.7,0-20.6,8.9-20.6,20.6C123.7,113.8,132.6,122.7,144.3,122.7z   M32,287.9c17.8,0,32-14.2,32-32c0-17.8-14.2-32-32-32s-32,14.2-32,32C0,273.7,14.2,287.9,32,287.9z M144.3,276.5h347.1  c11.4,0,20.6-9.1,20.6-20.6c0-11.4-9.1-20.3-20.6-20.3H144.3c-11.7,0-20.6,8.9-20.6,20.3C123.7,267.3,132.6,276.5,144.3,276.5z   M32,441.6c17.8,0,32-14.5,32-32c0-17.8-14.2-32-32-32s-32,14.2-32,32C0,427.1,14.2,441.6,32,441.6z M144.3,429.9h347.1  c11.4,0,20.6-8.9,20.6-20.3c0-11.7-9.1-20.6-20.6-20.6H144.3c-11.7,0-20.6,8.9-20.6,20.6C123.7,421,132.6,429.9,144.3,429.9z"/>
</svg>