<?xml version="1.0" ?><!-- Generator: Adobe Illustrator 25.0.0, SVG Export Plug-In . SVG Version: 6.00 Build 0)  --><svg xmlns="http://www.w3.org/2000/svg" xmlns:xlink="http://www.w3.org/1999/xlink" version="1.1" id="Layer_1" x="0px" y="0px" viewBox="0 0 512 512" style="enable-background:new 0 0 512 512;" xml:space="preserve">
<path d="M55.2,437.3c0,25,6.2,43.7,18.5,56.1C86,505.8,104.5,512,129.2,512h253.6c24.7,0,43.2-6.2,55.5-18.6  c12.3-12.4,18.5-31.1,18.5-56.1V75c0-24.8-6.2-43.5-18.5-56.1C426,6.3,407.5,0,382.8,0H129.2C104.5,0,86,6.3,73.7,18.9  C61.3,31.4,55.2,50.1,55.2,75V437.3z M93.6,436.5V75.7c0-11.9,3.1-21.1,9.4-27.6c6.3-6.4,15.6-9.7,28.1-9.7h249.8  c12.4,0,21.8,3.2,28.1,9.7c6.3,6.4,9.4,15.6,9.4,27.6v360.8c0,11.9-3.1,21.1-9.4,27.5c-6.3,6.4-15.6,9.6-28.1,9.6H131.1  c-12.4,0-21.8-3.2-28.1-9.6C96.8,457.6,93.6,448.5,93.6,436.5z" class="hierarchical-0:secondary SFSymbolsPreview4D4D4D" style="fill: #4D4D4D;"/>
<path d="M219.5,123.7h147.8c4,0,7.4-1.5,10.4-4.4c2.9-2.9,4.4-6.5,4.4-10.6c0-4-1.5-7.4-4.4-10.4c-2.9-2.9-6.4-4.4-10.4-4.4H219.5  c-4.1,0-7.6,1.5-10.5,4.4c-2.9,2.9-4.3,6.4-4.3,10.4c0,4.1,1.4,7.7,4.3,10.6C211.8,122.2,215.3,123.7,219.5,123.7z M219.5,196.5  h147.8c4.1,0,7.6-1.4,10.5-4.3c2.9-2.9,4.3-6.4,4.3-10.5c0-4.1-1.4-7.6-4.3-10.5c-2.9-2.9-6.4-4.3-10.5-4.3H219.5  c-4.1,0-7.6,1.4-10.5,4.3c-2.9,2.9-4.3,6.4-4.3,10.5c0,4.1,1.4,7.6,4.3,10.5C211.8,195.1,215.3,196.5,219.5,196.5z M219.5,273h147.8  c4,0,7.4-1.4,10.4-4.3c2.9-2.9,4.4-6.4,4.4-10.5c0-4.1-1.4-7.6-4.3-10.5c-2.9-2.9-6.4-4.3-10.5-4.3H219.5c-4.1,0-7.6,1.4-10.5,4.3  c-2.9,2.9-4.3,6.4-4.3,10.5c0,4.1,1.4,7.6,4.3,10.5C211.8,271.5,215.3,273,219.5,273z M152.1,280.4c6.2,0,11.5-2.1,15.8-6.4  c4.3-4.3,6.4-9.6,6.4-15.8c0-6.2-2.1-11.5-6.4-15.8c-4.3-4.3-9.6-6.4-15.8-6.4c-6,0-11.3,2.2-15.6,6.6c-4.4,4.4-6.6,9.6-6.6,15.6  c0,6,2.2,11.3,6.6,15.6C140.9,278.2,146.1,280.4,152.1,280.4z M152.1,130.9c6.2,0,11.5-2.1,15.8-6.4c4.3-4.3,6.4-9.6,6.4-15.8  c0-6-2.1-11.3-6.4-15.6c-4.3-4.4-9.6-6.6-15.8-6.6c-6,0-11.3,2.2-15.6,6.6c-4.4,4.4-6.6,9.6-6.6,15.6c0,6,2.2,11.3,6.6,15.6  C140.9,128.7,146.1,130.9,152.1,130.9z M152.1,203.9c6.2,0,11.5-2.2,15.8-6.6c4.3-4.4,6.4-9.6,6.4-15.6c0-6.2-2.1-11.4-6.4-15.6  c-4.3-4.2-9.6-6.3-15.8-6.3s-11.5,2.1-15.8,6.4c-4.3,4.3-6.4,9.5-6.4,15.5c0,6,2.1,11.3,6.4,15.6  C140.7,201.8,145.9,203.9,152.1,203.9z" class="hierarchical-1:primary SFSymbolsPreview212121" style="fill: #212121;"/>
</svg>