<?xml version="1.0" encoding="UTF-8"?>
<!--Generator: Apple Native CoreSVG 326-->
<!DOCTYPE svg
PUBLIC "-//W3C//DTD SVG 1.1//EN"
       "http://www.w3.org/Graphics/SVG/1.1/DTD/svg11.dtd">
<svg version="1.1" xmlns="http://www.w3.org/2000/svg" xmlns:xlink="http://www.w3.org/1999/xlink" viewBox="0 0 30.3223 21.5332">
 <g>
  <rect height="21.5332" opacity="0" width="30.3223" x="0" y="0"/>
  <path d="M0.869141 1.72852L24.2383 1.72852C24.7266 1.72852 25.1172 1.35742 25.1172 0.869141C25.1172 0.380859 24.7266 0 24.2383 0L0.869141 0C0.371094 0 0 0.380859 0 0.869141C0 1.35742 0.371094 1.72852 0.869141 1.72852ZM0.869141 8.33008L9.02344 8.33008C9.51172 8.33008 9.90234 7.94922 9.90234 7.46094C9.90234 6.97266 9.51172 6.5918 9.02344 6.5918L0.869141 6.5918C0.371094 6.5918 0 6.97266 0 7.46094C0 7.94922 0.371094 8.33008 0.869141 8.33008ZM0.869141 14.9219L9.02344 14.9219C9.51172 14.9219 9.90234 14.541 9.90234 14.0527C9.90234 13.5645 9.51172 13.1934 9.02344 13.1934L0.869141 13.1934C0.371094 13.1934 0 13.5645 0 14.0527C0 14.541 0.371094 14.9219 0.869141 14.9219ZM0.869141 21.5137L9.02344 21.5137C9.51172 21.5137 9.90234 21.1426 9.90234 20.6543C9.90234 20.1562 9.51172 19.7852 9.02344 19.7852L0.869141 19.7852C0.371094 19.7852 0 20.1562 0 20.6543C0 21.1426 0.371094 21.5137 0.869141 21.5137Z" fill="black" fill-opacity="0.85"/>
  <path d="M13.6816 21.2207L28.3789 21.2207C29.3555 21.2207 29.9609 20.625 29.9609 19.668L29.9609 8.41797C29.9609 7.4707 29.3555 6.875 28.3789 6.875L13.6816 6.875C12.7051 6.875 12.0996 7.4707 12.0996 8.41797L12.0996 19.668C12.0996 20.625 12.7051 21.2207 13.6816 21.2207ZM13.7695 10.3125C13.5059 10.3125 13.3398 10.1465 13.3398 9.89258L13.3398 8.52539C13.3398 8.27148 13.5059 8.08594 13.7695 8.08594L14.9414 8.08594C15.2051 8.08594 15.3711 8.27148 15.3711 8.52539L15.3711 9.89258C15.3711 10.1465 15.2051 10.3125 14.9414 10.3125ZM13.7695 13.5449C13.5059 13.5449 13.3398 13.3594 13.3398 13.1348L13.3398 11.7676C13.3398 11.4941 13.5059 11.3281 13.7695 11.3281L14.9414 11.3281C15.2051 11.3281 15.3711 11.4941 15.3711 11.7676L15.3711 13.1348C15.3711 13.3594 15.2051 13.5449 14.9414 13.5449ZM13.7695 16.7578C13.5059 16.7578 13.3398 16.5918 13.3398 16.3574L13.3398 14.9805C13.3398 14.7168 13.5059 14.541 13.7695 14.541L14.9414 14.541C15.2051 14.541 15.3711 14.7168 15.3711 14.9805L15.3711 16.3574C15.3711 16.5918 15.2051 16.7578 14.9414 16.7578ZM13.7695 20C13.5059 20 13.3398 19.834 13.3398 19.5801L13.3398 18.2129C13.3398 17.9492 13.5059 17.7734 13.7695 17.7734L14.9414 17.7734C15.2051 17.7734 15.3711 17.9492 15.3711 18.2129L15.3711 19.5801C15.3711 19.834 15.2051 20 14.9414 20ZM27.1191 10.3125C26.8555 10.3125 26.6895 10.1465 26.6895 9.89258L26.6895 8.52539C26.6895 8.27148 26.8555 8.08594 27.1191 8.08594L28.291 8.08594C28.5547 8.08594 28.7207 8.27148 28.7207 8.52539L28.7207 9.89258C28.7207 10.1465 28.5547 10.3125 28.291 10.3125ZM27.1191 13.5449C26.8555 13.5449 26.6895 13.3594 26.6895 13.1348L26.6895 11.7676C26.6895 11.4941 26.8555 11.3281 27.1191 11.3281L28.291 11.3281C28.5547 11.3281 28.7207 11.4941 28.7207 11.7676L28.7207 13.1348C28.7207 13.3594 28.5547 13.5449 28.291 13.5449ZM27.1191 16.7578C26.8555 16.7578 26.6895 16.5918 26.6895 16.3574L26.6895 14.9805C26.6895 14.7168 26.8555 14.541 27.1191 14.541L28.291 14.541C28.5547 14.541 28.7207 14.7168 28.7207 14.9805L28.7207 16.3574C28.7207 16.5918 28.5547 16.7578 28.291 16.7578ZM27.1191 20C26.8555 20 26.6895 19.834 26.6895 19.5801L26.6895 18.2129C26.6895 17.9492 26.8555 17.7734 27.1191 17.7734L28.291 17.7734C28.5547 17.7734 28.7207 17.9492 28.7207 18.2129L28.7207 19.5801C28.7207 19.834 28.5547 20 28.291 20ZM16.9824 19.5996C16.7383 19.5996 16.582 19.4434 16.582 19.1992L16.582 15.2832C16.582 15.0195 16.7383 14.8633 16.9824 14.8633L25.0781 14.8633C25.3223 14.8633 25.4785 15.0195 25.4785 15.2832L25.4785 19.1992C25.4785 19.4434 25.3223 19.5996 25.0781 19.5996ZM16.9824 13.2422C16.7383 13.2422 16.582 13.0859 16.582 12.832L16.582 8.88672C16.582 8.64258 16.7383 8.48633 16.9824 8.48633L25.0781 8.48633C25.3223 8.48633 25.4785 8.64258 25.4785 8.88672L25.4785 12.832C25.4785 13.0859 25.3223 13.2422 25.0781 13.2422Z" fill="black" fill-opacity="0.85"/>
 </g>
</svg>
