<?xml version="1.0" encoding="UTF-8"?>
<!--Generator: Apple Native CoreSVG 326-->
<!DOCTYPE svg
PUBLIC "-//W3C//DTD SVG 1.1//EN"
       "http://www.w3.org/Graphics/SVG/1.1/DTD/svg11.dtd">
<svg version="1.1" xmlns="http://www.w3.org/2000/svg" xmlns:xlink="http://www.w3.org/1999/xlink" viewBox="0 0 28.1738 27.7832">
 <g>
  <rect height="27.7832" opacity="0" width="28.1738" x="0" y="0"/>
  <path d="M14.502 27.1582C14.502 27.5 14.2285 27.7637 13.8867 27.7637C13.5449 27.7637 13.2812 27.5 13.2812 27.1582C13.2812 26.8164 13.5449 26.543 13.8867 26.543C14.2285 26.543 14.502 26.8164 14.502 27.1582ZM12.1875 26.9531C12.1875 27.2949 11.9238 27.5586 11.5723 27.5586C11.2305 27.5586 10.9668 27.2949 10.9668 26.9531C10.9668 26.6016 11.2305 26.3379 11.5723 26.3379C11.9238 26.3379 12.1875 26.6016 12.1875 26.9531ZM16.8164 26.9531C16.8164 27.2949 16.543 27.5586 16.2012 27.5586C15.8594 27.5586 15.5957 27.2949 15.5957 26.9531C15.5957 26.6016 15.8594 26.3379 16.2012 26.3379C16.543 26.3379 16.8164 26.6016 16.8164 26.9531ZM9.95117 26.3574C9.95117 26.6992 9.6875 26.9629 9.3457 26.9629C9.00391 26.9629 8.73047 26.6992 8.73047 26.3574C8.73047 26.0059 9.00391 25.7422 9.3457 25.7422C9.6875 25.7422 9.95117 26.0059 9.95117 26.3574ZM19.0527 26.3574C19.0527 26.6992 18.7793 26.9629 18.4375 26.9629C18.0957 26.9629 17.8223 26.6992 17.8223 26.3574C17.8223 26.0059 18.0957 25.7422 18.4375 25.7422C18.7793 25.7422 19.0527 26.0059 19.0527 26.3574ZM7.85156 25.3613C7.85156 25.7031 7.57812 25.9668 7.23633 25.9668C6.89453 25.9668 6.63086 25.7031 6.63086 25.3613C6.63086 25.0195 6.89453 24.7461 7.23633 24.7461C7.57812 24.7461 7.85156 25.0195 7.85156 25.3613ZM21.1523 25.3613C21.1523 25.7031 20.8887 25.9668 20.5371 25.9668C20.1953 25.9668 19.9316 25.7031 19.9316 25.3613C19.9316 25.0195 20.1953 24.7461 20.5371 24.7461C20.8887 24.7461 21.1523 25.0195 21.1523 25.3613ZM5.95703 24.0332C5.95703 24.375 5.68359 24.6484 5.3418 24.6484C5 24.6484 4.73633 24.375 4.73633 24.0332C4.73633 23.6914 5 23.4277 5.3418 23.4277C5.68359 23.4277 5.95703 23.6914 5.95703 24.0332ZM4.30664 22.4023C4.30664 22.7441 4.04297 23.0078 3.70117 23.0078C3.35938 23.0078 3.08594 22.7441 3.08594 22.4023C3.08594 22.0508 3.35938 21.7871 3.70117 21.7871C4.04297 21.7871 4.30664 22.0508 4.30664 22.4023ZM2.98828 20.4883C2.98828 20.8398 2.71484 21.1035 2.37305 21.1035C2.03125 21.1035 1.75781 20.8398 1.75781 20.4883C1.75781 20.1465 2.03125 19.8828 2.37305 19.8828C2.71484 19.8828 2.98828 20.1465 2.98828 20.4883ZM26.0156 20.4883C26.0156 20.8398 25.752 21.1035 25.4102 21.1035C25.0684 21.1035 24.7949 20.8398 24.7949 20.4883C24.7949 20.1465 25.0684 19.8828 25.4102 19.8828C25.752 19.8828 26.0156 20.1465 26.0156 20.4883ZM2.01172 18.3984C2.01172 18.7402 1.73828 19.0137 1.39648 19.0137C1.05469 19.0137 0.791016 18.7402 0.791016 18.3984C0.791016 18.0566 1.05469 17.7832 1.39648 17.7832C1.73828 17.7832 2.01172 18.0566 2.01172 18.3984ZM26.9922 18.3984C26.9922 18.7402 26.7285 19.0137 26.3867 19.0137C26.0352 19.0137 25.7715 18.7402 25.7715 18.3984C25.7715 18.0566 26.0352 17.7832 26.3867 17.7832C26.7285 17.7832 26.9922 18.0566 26.9922 18.3984ZM27.5879 16.1719C27.5879 16.5137 27.3242 16.7773 26.9824 16.7773C26.6309 16.7773 26.3672 16.5137 26.3672 16.1719C26.3672 15.8301 26.6309 15.5566 26.9824 15.5566C27.3242 15.5566 27.5879 15.8301 27.5879 16.1719ZM1.41602 16.1719C1.41602 16.5137 1.14258 16.7773 0.800781 16.7773C0.458984 16.7773 0.195312 16.5137 0.195312 16.1719C0.195312 15.8301 0.458984 15.5566 0.800781 15.5566C1.14258 15.5566 1.41602 15.8301 1.41602 16.1719ZM27.7832 13.8867C27.7832 14.2285 27.5195 14.4922 27.1777 14.4922C26.8359 14.4922 26.5625 14.2285 26.5625 13.8867C26.5625 13.5449 26.8359 13.2715 27.1777 13.2715C27.5195 13.2715 27.7832 13.5449 27.7832 13.8867ZM1.2207 13.8867C1.2207 14.2285 0.947266 14.4922 0.605469 14.4922C0.263672 14.4922 0 14.2285 0 13.8867C0 13.5449 0.263672 13.2715 0.605469 13.2715C0.947266 13.2715 1.2207 13.5449 1.2207 13.8867ZM27.5879 11.5918C27.5879 11.9434 27.3242 12.207 26.9824 12.207C26.6309 12.207 26.3672 11.9434 26.3672 11.5918C26.3672 11.25 26.6309 10.9863 26.9824 10.9863C27.3242 10.9863 27.5879 11.25 27.5879 11.5918ZM1.41602 11.5918C1.41602 11.9434 1.14258 12.207 0.800781 12.207C0.458984 12.207 0.195312 11.9434 0.195312 11.5918C0.195312 11.25 0.458984 10.9863 0.800781 10.9863C1.14258 10.9863 1.41602 11.25 1.41602 11.5918ZM26.9922 9.36523C26.9922 9.70703 26.7285 9.98047 26.3867 9.98047C26.0352 9.98047 25.7715 9.70703 25.7715 9.36523C25.7715 9.02344 26.0352 8.75977 26.3867 8.75977C26.7285 8.75977 26.9922 9.02344 26.9922 9.36523ZM2.01172 9.36523C2.01172 9.70703 1.73828 9.98047 1.39648 9.98047C1.05469 9.98047 0.791016 9.70703 0.791016 9.36523C0.791016 9.02344 1.05469 8.75977 1.39648 8.75977C1.73828 8.75977 2.01172 9.02344 2.01172 9.36523ZM26.0156 7.27539C26.0156 7.61719 25.752 7.88086 25.4102 7.88086C25.0684 7.88086 24.7949 7.61719 24.7949 7.27539C24.7949 6.93359 25.0684 6.66016 25.4102 6.66016C25.752 6.66016 26.0156 6.93359 26.0156 7.27539ZM2.98828 7.27539C2.98828 7.61719 2.71484 7.88086 2.37305 7.88086C2.03125 7.88086 1.75781 7.61719 1.75781 7.27539C1.75781 6.93359 2.03125 6.66016 2.37305 6.66016C2.71484 6.66016 2.98828 6.93359 2.98828 7.27539ZM24.6973 5.37109C24.6973 5.71289 24.4238 5.97656 24.082 5.97656C23.7402 5.97656 23.4668 5.71289 23.4668 5.37109C23.4668 5.0293 23.7402 4.75586 24.082 4.75586C24.4238 4.75586 24.6973 5.0293 24.6973 5.37109ZM23.0469 3.73047C23.0469 4.07227 22.7832 4.3457 22.4414 4.3457C22.0898 4.3457 21.8262 4.07227 21.8262 3.73047C21.8262 3.38867 22.0898 3.125 22.4414 3.125C22.7832 3.125 23.0469 3.38867 23.0469 3.73047ZM7.85156 2.41211C7.85156 2.75391 7.57812 3.01758 7.23633 3.01758C6.89453 3.01758 6.63086 2.75391 6.63086 2.41211C6.63086 2.07031 6.89453 1.79688 7.23633 1.79688C7.57812 1.79688 7.85156 2.07031 7.85156 2.41211ZM21.1523 2.41211C21.1523 2.75391 20.8887 3.01758 20.5371 3.01758C20.1953 3.01758 19.9316 2.75391 19.9316 2.41211C19.9316 2.07031 20.1953 1.79688 20.5371 1.79688C20.8887 1.79688 21.1523 2.07031 21.1523 2.41211ZM19.0527 1.41602C19.0527 1.75781 18.7793 2.02148 18.4375 2.02148C18.0957 2.02148 17.8223 1.75781 17.8223 1.41602C17.8223 1.07422 18.0957 0.800781 18.4375 0.800781C18.7793 0.800781 19.0527 1.07422 19.0527 1.41602ZM9.95117 1.41602C9.95117 1.75781 9.6875 2.02148 9.3457 2.02148C9.00391 2.02148 8.73047 1.75781 8.73047 1.41602C8.73047 1.07422 9.00391 0.800781 9.3457 0.800781C9.6875 0.800781 9.95117 1.07422 9.95117 1.41602ZM16.8164 0.820312C16.8164 1.16211 16.543 1.42578 16.2012 1.42578C15.8594 1.42578 15.5957 1.16211 15.5957 0.820312C15.5957 0.478516 15.8594 0.205078 16.2012 0.205078C16.543 0.205078 16.8164 0.478516 16.8164 0.820312ZM12.1875 0.820312C12.1875 1.16211 11.9238 1.42578 11.5723 1.42578C11.2305 1.42578 10.9668 1.16211 10.9668 0.820312C10.9668 0.478516 11.2305 0.205078 11.5723 0.205078C11.9238 0.205078 12.1875 0.478516 12.1875 0.820312ZM14.502 0.605469C14.502 0.957031 14.2285 1.2207 13.8867 1.2207C13.5449 1.2207 13.2812 0.957031 13.2812 0.605469C13.2812 0.263672 13.5449 0 13.8867 0C14.2285 0 14.502 0.263672 14.502 0.605469Z" fill="black" fill-opacity="0.85"/>
  <path d="M6.21356 9.30462C5.40824 10.6382 4.95117 12.2065 4.95117 13.8867C4.95117 18.8672 8.90625 22.8223 13.8867 22.8223C15.5697 22.8223 17.1402 22.3637 18.4752 21.556L19.2881 22.3682C17.732 23.3702 15.877 23.9453 13.8867 23.9453C8.29102 23.9453 3.82812 19.4824 3.82812 13.8867C3.82812 11.8964 4.39992 10.0435 5.39774 8.48948ZM23.9453 13.8867C23.9453 15.8693 23.3762 17.7136 22.3847 19.2616L21.575 18.4524C22.3771 17.1222 22.832 15.5597 22.832 13.8867C22.832 8.95508 18.8184 4.94141 13.8867 4.94141C12.2124 4.94141 10.6487 5.39703 9.31789 6.20034L8.50508 5.38786C10.0535 4.39657 11.8997 3.82812 13.8867 3.82812C19.4336 3.82812 23.9453 8.34961 23.9453 13.8867Z" fill="black" fill-opacity="0.85"/>
  <path d="M10.9642 14.0513C11.0333 15.5704 12.234 16.7758 13.7543 16.8391L15.5555 18.6388C15.0354 18.8266 14.473 18.9258 13.8867 18.9258C11.0938 18.9258 8.86719 16.6992 8.86719 13.9062C8.86719 13.3215 8.96591 12.7604 9.15275 12.2414ZM18.916 13.9062C18.916 14.4739 18.8226 15.0188 18.646 15.5245L16.8155 13.6948C16.7145 12.2413 15.5506 11.0778 14.097 10.9774L12.2665 9.14772C12.7728 8.97062 13.3184 8.87695 13.8867 8.87695C16.6699 8.87695 18.916 11.123 18.916 13.9062Z" fill="black" fill-opacity="0.85"/>
  <path d="M25 26.1621C25.3223 26.4746 25.8691 26.4844 26.1816 26.1621C26.5039 25.8301 26.5039 25.3027 26.1816 24.9805L2.80273 1.61133C2.48047 1.29883 1.95312 1.2793 1.62109 1.61133C1.29883 1.93359 1.29883 2.48047 1.62109 2.79297Z" fill="black" fill-opacity="0.85"/>
 </g>
</svg>
