<?xml version="1.0" encoding="UTF-8"?>
<!--Generator: Apple Native CoreSVG 326-->
<!DOCTYPE svg
PUBLIC "-//W3C//DTD SVG 1.1//EN"
       "http://www.w3.org/Graphics/SVG/1.1/DTD/svg11.dtd">
<svg version="1.1" xmlns="http://www.w3.org/2000/svg" xmlns:xlink="http://www.w3.org/1999/xlink" viewBox="0 0 25.8008 25.459">
 <g>
  <rect height="25.459" opacity="0" width="25.8008" x="0" y="0"/>
  <path d="M25.4395 12.7344C25.4395 19.7461 19.7266 25.459 12.7148 25.459C5.71289 25.459 0 19.7461 0 12.7344C0 5.73242 5.71289 0.0195312 12.7148 0.0195312C19.7266 0.0195312 25.4395 5.73242 25.4395 12.7344ZM9.53125 5.21484L10.0781 6.12305L9.43359 7.41211C9.26758 7.73438 9.3457 8.13477 9.6875 8.33984L10.3613 8.74023C8.4668 9.67773 7.1875 11.582 7.1875 13.8477C7.1875 14.2383 7.22656 14.6094 7.28516 14.9707L6.94336 14.7754C6.5918 14.5703 6.21094 14.6875 5.99609 15.0293L5.22461 16.2305L4.14062 16.2109C3.61328 16.2012 3.69141 16.9238 4.16016 16.875C4.50195 16.8359 4.70703 17.168 4.48242 17.4121C4.16016 17.7637 4.79492 18.2715 5.05859 17.793C5.20508 17.5 5.5957 17.5293 5.67383 17.8613C5.80078 18.4766 6.50391 18.2129 6.34766 17.7637L5.92773 16.6113L6.60156 15.957L7.97852 16.8848C9.0332 18.7402 11.1523 19.8926 13.8281 19.8926C18.0664 19.8926 20.1562 16.084 20.1562 13.9941C20.1562 13.3203 19.3359 13.291 19.2578 13.9258C18.9355 16.4746 16.9336 18.2715 14.6875 18.2715C13.3008 18.2715 12.0801 17.6562 11.3184 16.6992L12.0605 15.5566L12.9492 15.8887L12.998 17.0996C13.0371 17.5586 13.7695 17.5 13.6719 16.9531C13.5938 16.6211 13.9453 16.4355 14.2188 16.6406C14.5996 16.9434 14.9707 16.2598 14.5703 16.0645C14.2676 15.9277 14.3164 15.5469 14.6484 15.4395C15.0977 15.293 14.8633 14.6191 14.4238 14.8145L13.4473 15.2637L12.2363 14.4531C11.9141 14.2383 11.5137 14.2773 11.2891 14.5996L10.6348 15.4395C10.5371 15.0879 10.4785 14.7266 10.4785 14.3457C10.4785 13.1836 10.8984 12.0215 11.6113 11.1621L11.6211 11.9629C11.6211 12.3633 11.9238 12.627 12.3047 12.6465L13.7402 12.7246L14.2676 13.6719C14.5117 14.1211 15.0977 13.7109 14.8242 13.3203C14.6191 13.0273 14.8242 12.7051 15.127 12.7637C15.5664 12.8613 15.6836 12.0898 15.1953 12.0996C14.8535 12.0996 14.6973 11.748 14.9414 11.5137C15.3516 11.123 14.8047 10.6543 14.5117 11.0059L13.7207 11.9336L12.8027 11.6699L12.9297 10.166C13.3008 10.0098 13.6816 9.93164 14.1113 9.93164C14.8047 9.93164 14.7949 10.332 15.498 10.332C16.5234 10.332 18.7598 8.75977 18.7598 7.61719C18.7598 6.88477 17.6172 6.43555 15.7422 6.43555C14.4043 6.43555 13.9355 6.76758 13.8379 7.37305C13.7793 7.86133 13.5156 8.125 13.0371 8.125C12.7148 8.125 12.3828 8.14453 12.0703 8.19336L10.5469 7.46094L10.752 6.54297L11.9629 6.31836C12.4023 6.25 12.2754 5.51758 11.7383 5.69336C11.416 5.80078 11.1816 5.48828 11.3477 5.21484C11.6016 4.77539 10.8789 4.48242 10.7422 4.91211C10.6445 5.21484 10.2637 5.21484 10.1172 4.90234C9.92188 4.48242 9.27734 4.76562 9.53125 5.21484Z" fill="black" fill-opacity="0.85"/>
 </g>
</svg>
