<?xml version="1.0" encoding="UTF-8"?>
<!--Generator: Apple Native CoreSVG 326-->
<!DOCTYPE svg
PUBLIC "-//W3C//DTD SVG 1.1//EN"
       "http://www.w3.org/Graphics/SVG/1.1/DTD/svg11.dtd">
<svg version="1.1" xmlns="http://www.w3.org/2000/svg" xmlns:xlink="http://www.w3.org/1999/xlink" viewBox="0 0 25.8008 25.459">
 <g>
  <rect height="25.459" opacity="0" width="25.8008" x="0" y="0"/>
  <path d="M12.7148 25.4395C19.7363 25.4395 25.4395 19.7461 25.4395 12.7246C25.4395 5.70312 19.7363 0 12.7148 0C5.69336 0 0 5.70312 0 12.7246C0 19.7461 5.69336 25.4395 12.7148 25.4395ZM12.7148 23.623C6.68945 23.623 1.81641 18.75 1.81641 12.7246C1.81641 6.69922 6.68945 1.82617 12.7148 1.82617C18.7402 1.82617 23.6133 6.69922 23.6133 12.7246C23.6133 18.75 18.7402 23.623 12.7148 23.623Z" fill="black" fill-opacity="0.85"/>
  <path d="M13.7793 19.6973C17.9102 19.6973 19.9512 15.9766 19.9512 13.9355C19.9512 13.2812 19.1602 13.2617 19.082 13.877C18.7695 16.3574 16.8164 18.125 14.6191 18.125C13.2617 18.125 12.0605 17.5195 11.3184 16.582L12.041 15.4688L12.9102 15.8008L12.959 16.9727C12.998 17.4219 13.7109 17.3633 13.6035 16.8262C13.5449 16.5039 13.877 16.3281 14.1504 16.5234C14.5215 16.8164 14.8828 16.1523 14.4922 15.9668C14.1992 15.8301 14.248 15.459 14.5703 15.3613C15.0098 15.2051 14.7852 14.5508 14.3555 14.7461L13.3984 15.1758L12.2168 14.3848C11.9043 14.1797 11.5137 14.2285 11.2891 14.5312L10.6543 15.3613C10.5566 15.0098 10.498 14.6582 10.498 14.2773C10.498 13.1445 10.9082 12.002 11.6113 11.1719L11.6211 11.9531C11.6211 12.3438 11.9141 12.6074 12.2852 12.6172L13.6914 12.6953L14.1992 13.6328C14.4434 14.0527 15.0098 13.6523 14.7461 13.2715C14.5312 12.9883 14.7461 12.6758 15.0391 12.7344C15.4688 12.8223 15.5859 12.0703 15.0977 12.0801C14.7656 12.0801 14.6094 11.7383 14.8535 11.5039C15.2637 11.1426 14.7266 10.6836 14.4434 11.0156L13.6719 11.9336L12.7734 11.6602L12.8906 10.1953C13.252 10.0488 13.6328 9.96094 14.0527 9.96094C14.7363 9.96094 14.7168 10.3516 15.4004 10.3516C16.4062 10.3516 18.5938 8.82812 18.5938 7.70508C18.5938 7.00195 17.4707 6.55273 15.6445 6.55273C14.3359 6.55273 13.8867 6.88477 13.7891 7.46094C13.7305 7.94922 13.4668 8.20312 12.9883 8.20312C12.6758 8.20312 12.3633 8.23242 12.0605 8.28125L10.5664 7.55859L10.7715 6.66016L11.9531 6.43555C12.3828 6.37695 12.2559 5.66406 11.7383 5.83008C11.4062 5.9375 11.1914 5.63477 11.3477 5.35156C11.5918 4.94141 10.8984 4.64844 10.7617 5.05859C10.6641 5.36133 10.293 5.37109 10.1465 5.05859C9.96094 4.63867 9.32617 4.93164 9.58008 5.35156L10.1074 6.25L9.48242 7.50977C9.31641 7.83203 9.39453 8.22266 9.72656 8.41797L10.3906 8.80859C8.53516 9.7168 7.28516 11.582 7.28516 13.7988C7.28516 14.1797 7.32422 14.541 7.38281 14.8926L7.05078 14.6973C6.70898 14.502 6.33789 14.6191 6.12305 14.9512L5.37109 16.123L4.30664 16.1035C3.79883 16.0938 3.86719 16.7969 4.32617 16.748C4.66797 16.7188 4.86328 17.0508 4.64844 17.2852C4.32617 17.627 4.95117 18.1152 5.20508 17.6465C5.35156 17.3633 5.73242 17.4023 5.81055 17.7148C5.9375 18.3105 6.62109 18.0664 6.46484 17.6172L6.05469 16.4941L6.71875 15.8496L8.04688 16.7676C9.0918 18.5742 11.1621 19.6973 13.7793 19.6973Z" fill="black" fill-opacity="0.85"/>
 </g>
</svg>
