<?xml version="1.0" encoding="UTF-8"?>
<!--Generator: Apple Native CoreSVG 326-->
<!DOCTYPE svg
PUBLIC "-//W3C//DTD SVG 1.1//EN"
       "http://www.w3.org/Graphics/SVG/1.1/DTD/svg11.dtd">
<svg version="1.1" xmlns="http://www.w3.org/2000/svg" xmlns:xlink="http://www.w3.org/1999/xlink" viewBox="0 0 29.6387 22.2949">
 <g>
  <rect height="22.2949" opacity="0" width="29.6387" x="0" y="0"/>
  <path d="M29.2773 9.23828L29.2773 13.0371C29.2773 19.6094 26.8164 22.2754 19.6777 22.2754L9.59961 22.2754C2.46094 22.2754 0 19.6094 0 13.0371L0 9.23828C0 2.66602 2.46094 0 9.59961 0L19.6777 0C26.8164 0 29.2773 2.66602 29.2773 9.23828ZM19.8242 6.75781L17.9102 14.1895L17.8516 14.1895L15.9082 6.75781C15.7422 6.10352 15.3516 5.78125 14.7363 5.78125C14.0039 5.78125 13.5547 6.2207 13.5547 6.95312L13.5547 15.752C13.5547 16.2305 13.8477 16.543 14.2969 16.543C14.7461 16.543 15.0391 16.2305 15.0391 15.752L15.0391 8.37891L15.1074 8.37891L17.0215 15.5762C17.1289 16.0352 17.4023 16.3672 17.8809 16.3672C18.3691 16.3672 18.623 16.0449 18.7402 15.5664L20.6543 8.37891L20.7129 8.37891L20.7129 15.752C20.7129 16.2402 20.9961 16.543 21.4453 16.543C21.9336 16.543 22.1973 16.2305 22.1973 15.752L22.1973 6.95312C22.1973 6.19141 21.748 5.78125 21.0254 5.78125C20.3613 5.78125 19.9902 6.10352 19.8242 6.75781ZM6.9043 6.60156L6.9043 15.5078C6.9043 16.0449 7.19727 16.377 7.71484 16.377L11.4844 16.377C11.8555 16.377 12.1777 16.0547 12.1777 15.6641C12.1777 15.293 11.8555 14.9707 11.4844 14.9707L8.55469 14.9707L8.55469 6.60156C8.55469 6.15234 8.17383 5.77148 7.73438 5.77148C7.28516 5.77148 6.9043 6.15234 6.9043 6.60156Z" fill="black" fill-opacity="0.85"/>
 </g>
</svg>
