<?xml version="1.0" ?><!-- Generator: Adobe Illustrator 25.0.0, SVG Export Plug-In . SVG Version: 6.00 Build 0)  --><svg xmlns="http://www.w3.org/2000/svg" xmlns:xlink="http://www.w3.org/1999/xlink" version="1.1" id="Layer_1" x="0px" y="0px" viewBox="0 0 512 512" style="enable-background:new 0 0 512 512;" xml:space="preserve">
<path d="M87.3,512h337.3c29.1,0,50.9-7.2,65.5-21.6c14.6-14.4,21.8-35.9,21.8-64.7V86.2c0-28.7-7.3-50.3-21.8-64.7  C475.6,7.2,453.8,0,424.7,0H87.3C58.2,0,36.4,7.2,21.8,21.6C7.3,35.9,0,57.5,0,86.2v339.6c0,28.7,7.3,50.3,21.8,64.7  C36.4,504.8,58.2,512,87.3,512z" class="multicolor-0:systemBlueColor hierarchical-0:tertiary SFSymbolsPreview007AFF" style="fill: #007AFF;"/>
<path d="M105.1,279.5c-8.3,0-14.2-2.4-17.7-7.1s-4.4-9.9-3.1-15.6c1.4-5.7,5.1-10,11.3-12.9l270.9-128.8c7.4-3.5,14.1-4.1,20.2-1.8  c6,2.3,10.2,6.5,12.5,12.5c2.3,6,1.8,12.7-1.5,20.2L270.3,417.2c-3,6.1-7.3,9.9-13.1,11.4c-5.7,1.5-11,0.5-15.7-2.9  c-4.7-3.4-7.1-9.5-7.1-18.2V289c0-6.3-3.1-9.5-9.2-9.5H105.1z" class="multicolor-1:white hierarchical-1:primary SFSymbolsPreviewFFFFFF" style="fill: #FFFFFF;"/>
</svg>