<?xml version="1.0" ?><!-- Generator: Adobe Illustrator 25.0.0, SVG Export Plug-In . SVG Version: 6.00 Build 0)  --><svg xmlns="http://www.w3.org/2000/svg" xmlns:xlink="http://www.w3.org/1999/xlink" version="1.1" id="Layer_1" x="0px" y="0px" viewBox="0 0 512 512" style="enable-background:new 0 0 512 512;" xml:space="preserve">
<path d="M256,127.4c10,0,16.7-7.1,16.7-18.2V18c0-11.1-6.7-18-16.7-18c-10,0-16.9,6.9-16.9,18v91.2C239.1,120.3,246,127.4,256,127.4  z M138.4,512c9.8,0,20-5.6,28.2-13.4l83.7-79.3c2.3-2.3,4-3.3,5.6-3.3c1.7,0,3.3,1,5.6,3.3l83.7,79.3c8.1,7.7,18.2,13.4,28.2,13.4  c14.2,0,25.1-13.2,25.1-27.1c0-8.4-3.3-17.5-7.7-29.2L284.8,181.9c-7.1-18.2-16.9-25.9-28.8-25.9c-11.9,0-21.7,7.7-28.8,25.9  L121.1,455.6c-4.4,11.7-7.7,20.9-7.7,29.2C113.4,498.8,124,512,138.4,512z M151.8,466.5c-0.6-0.8-0.8-1.7-0.4-3.1l101.5-260.2  c0.6-1.7,1.7-3.1,3.1-3.1c1.7,0,2.3,1.7,3.1,3.1l101.5,260.2c0.4,1.5,0.4,2.5-0.4,3.1c-0.4,0.2-1.3,0.8-2.5-0.4l-85.4-77.5  c-6.1-5.6-11.1-8.8-16.3-8.8c-5.2,0-10.2,3.1-16.3,8.8l-85.4,77.5C153.7,466.7,152.4,467.3,151.8,466.5z"/>
</svg>