<?xml version="1.0" ?><!-- Generator: Adobe Illustrator 25.0.0, SVG Export Plug-In . SVG Version: 6.00 Build 0)  --><svg xmlns="http://www.w3.org/2000/svg" xmlns:xlink="http://www.w3.org/1999/xlink" version="1.1" id="Layer_1" x="0px" y="0px" viewBox="0 0 512 512" style="enable-background:new 0 0 512 512;" xml:space="preserve">
<path d="M256,512c140,0,256-116,256-256C512,116.2,395.8,0,255.7,0C116,0,0,116.2,0,256C0,396,116.2,512,256,512z M163.1,384.8  c-15.6,15.6-33.4,1.5-27.1-14.8l101.4-258.5c6.8-16.8,29.1-17.3,35.9-0.5l101.4,259c6.5,16.3-11.5,30.4-27.1,14.8L262,299.2  c-4-4.3-9-4-13.1,0L163.1,384.8z"/>
</svg>