<?xml version="1.0" ?><!-- Generator: Adobe Illustrator 25.0.0, SVG Export Plug-In . SVG Version: 6.00 Build 0)  --><svg xmlns="http://www.w3.org/2000/svg" xmlns:xlink="http://www.w3.org/1999/xlink" version="1.1" id="Layer_1" x="0px" y="0px" viewBox="0 0 512 512" style="enable-background:new 0 0 512 512;" xml:space="preserve">
<path d="M256,512c35,0,67.9-6.7,98.8-20.1c30.9-13.4,58.1-31.9,81.7-55.5c23.6-23.6,42.1-50.8,55.5-81.7  C505.3,323.9,512,291,512,256s-6.7-67.9-20.1-98.8c-13.4-30.9-31.9-58.1-55.5-81.7c-23.6-23.6-50.9-42.1-81.8-55.5  C323.7,6.7,290.7,0,255.7,0S187.9,6.7,157,20.1C126.1,33.5,98.9,52,75.4,75.5c-23.5,23.6-42,50.8-55.3,81.7C6.7,188.1,0,221,0,256  s6.7,67.9,20.1,98.8c13.4,30.9,31.9,58.1,55.5,81.7c23.6,23.6,50.8,42.1,81.7,55.5C188.1,505.3,221,512,256,512z M256,469.3  c-29.6,0-57.3-5.5-83.1-16.6c-25.8-11-48.4-26.3-67.9-45.8c-19.5-19.5-34.7-42.1-45.7-67.9c-11-25.8-16.4-53.5-16.4-83.1  c0-29.6,5.5-57.3,16.4-83.1c11-25.8,26.1-48.4,45.6-68s42-34.8,67.8-45.8c25.8-11,53.5-16.4,83.1-16.4c29.6,0,57.3,5.5,83.1,16.4  c25.8,11,48.4,26.2,68,45.8c19.6,19.6,34.9,42.2,45.9,68c11,25.8,16.6,53.5,16.6,83.1c0,29.6-5.5,57.3-16.4,83.1  c-11,25.8-26.2,48.4-45.7,67.9c-19.5,19.5-42.2,34.8-68,45.8C313.3,463.8,285.6,469.3,256,469.3z" class="multicolor-0:systemBlueColor hierarchical-0:secondary SFSymbolsPreview007AFF" style="fill: #007AFF;"/>
<path d="M140.8,363.9c-2,5.5-1.8,10.4,0.6,14.6c2.4,4.2,6.1,6.6,11,7.3c4.9,0.7,10-1.6,15.2-6.8l81.8-81.8c4.2-4.2,8.4-4.2,12.5,0  l81.8,81.8c5.2,5.2,10.2,7.4,15.2,6.8c4.9-0.7,8.6-3.1,11-7.3c2.4-4.2,2.6-9,0.6-14.6l-97.1-247.2c-2.2-5.5-5.7-9.2-10.5-11  c-4.9-1.8-9.7-1.8-14.6,0.1c-4.9,1.9-8.4,5.7-10.8,11.4L140.8,363.9z" class="multicolor-0:systemBlueColor hierarchical-1:primary SFSymbolsPreview007AFF" style="fill: #007AFF;"/>
</svg>