<?xml version="1.0" ?><!-- Generator: Adobe Illustrator 25.0.0, SVG Export Plug-In . SVG Version: 6.00 Build 0)  --><svg xmlns="http://www.w3.org/2000/svg" xmlns:xlink="http://www.w3.org/1999/xlink" version="1.1" id="Layer_1" x="0px" y="0px" viewBox="0 0 512 512" style="enable-background:new 0 0 512 512;" xml:space="preserve">
<path d="M87.3,512h337.3c29.1,0,50.9-7.2,65.5-21.6c14.6-14.4,21.8-35.9,21.8-64.7V86.2c0-28.7-7.3-50.3-21.8-64.7  C475.6,7.2,453.8,0,424.7,0H87.3C58.2,0,36.4,7.2,21.8,21.6C7.3,35.9,0,57.5,0,86.2v339.6c0,28.7,7.3,50.3,21.8,64.7  C36.4,504.8,58.2,512,87.3,512z M87.9,467.2c-13.9,0-24.6-3.7-32-11c-7.4-7.3-11.1-18.2-11.1-32.7V88.4c0-14.5,3.7-25.4,11.1-32.7  c7.4-7.3,18.1-11,32-11h336.2c13.7,0,24.3,3.7,31.8,11c7.5,7.3,11.3,18.2,11.3,32.7v335.1c0,14.5-3.8,25.4-11.3,32.7  c-7.5,7.3-18.1,11-31.8,11H87.9z" class="multicolor-0:systemBlueColor hierarchical-0:secondary SFSymbolsPreview007AFF" style="fill: #007AFF;"/>
<path d="M110.1,278.9h116.5c5.9,0,8.9,3.1,8.9,9.2V403c0,8.3,2.3,14.2,7,17.5c4.6,3.3,9.7,4.3,15.2,2.9c5.5-1.4,9.6-5.1,12.4-11  l123.5-263.1c3.3-7.2,3.9-13.7,1.7-19.5c-2.2-5.7-6.3-9.7-12.1-12c-5.8-2.2-12.4-1.7-19.6,1.7L101,244.5c-6.1,2.8-9.8,7-11.1,12.5  c-1.3,5.6-0.3,10.6,3.1,15.2C96.2,276.7,102,278.9,110.1,278.9z" class="multicolor-0:systemBlueColor hierarchical-1:primary SFSymbolsPreview007AFF" style="fill: #007AFF;"/>
</svg>