<?xml version="1.0" ?><!-- Generator: Adobe Illustrator 25.0.0, SVG Export Plug-In . SVG Version: 6.00 Build 0)  --><svg xmlns="http://www.w3.org/2000/svg" xmlns:xlink="http://www.w3.org/1999/xlink" version="1.1" id="Layer_1" x="0px" y="0px" viewBox="0 0 512 512" style="enable-background:new 0 0 512 512;" xml:space="preserve">
<path d="M490.8,166.4c13.9,0,21.2-7.8,21.2-21.4V80.9c0-53.9-27.5-80.8-82.1-80.8h-64.1c-13.6,0-21.2,7.3-21.2,20.9  c0,13.6,7.6,21.2,21.2,21.2h63.3c25.9,0,40.8,13.9,40.8,41.1V145C469.9,158.6,477.5,166.4,490.8,166.4z M20.9,166.4  c13.9,0,21.2-7.8,21.2-21.4V83.3c0-27.2,14.4-41.1,40.5-41.1h63.3c13.9,0,21.4-7.6,21.4-21.2c0-13.6-7.6-20.9-21.4-20.9H82.1  C27.5,0.1,0,27.1,0,80.9V145C0,158.6,7.6,166.4,20.9,166.4z M114.5,284.9l115.3,0.3l0.3,112.7c0,18.6,8.4,28.5,23.8,28.5  c10.7,0,19.6-7.1,25.9-20.9l116.4-250.2c2.9-6.5,4.7-12.6,4.7-17.8c0-13.1-9.9-23-23.3-23c-5.2,0-11.2,1.8-17.5,4.7L107.7,235.7  c-12.6,5.8-19.1,14.6-19.1,25.4C88.6,276.5,97.8,284.9,114.5,284.9z M153.2,251.2l205.3-94.4l-94.7,205.8l0.5-96  c0-9.2-6.5-16-16.2-16L153.2,251.2z M82.1,511.9h63.8c13.9,0,21.4-7.6,21.4-20.9c0-13.6-7.6-21.2-21.4-21.2H82.6  c-26.1,0-40.5-13.9-40.5-41.1V367c0-13.9-7.6-21.4-21.2-21.4C7.3,345.6,0,353.1,0,367v63.8C0,484.9,27.5,511.9,82.1,511.9z   M365.8,511.9h64.1c54.7,0,82.1-27.2,82.1-81.1V367c0-13.9-7.6-21.4-21.2-21.4c-13.6,0-20.9,7.6-20.9,21.4v61.7  c0,27.2-14.9,41.1-40.8,41.1h-63.3c-13.6,0-21.2,7.6-21.2,21.2C344.6,504.3,352.2,511.9,365.8,511.9z"/>
</svg>