<?xml version="1.0" ?><!-- Generator: Adobe Illustrator 25.0.0, SVG Export Plug-In . SVG Version: 6.00 Build 0)  --><svg xmlns="http://www.w3.org/2000/svg" xmlns:xlink="http://www.w3.org/1999/xlink" version="1.1" id="Layer_1" x="0px" y="0px" viewBox="0 0 512 512" style="enable-background:new 0 0 512 512;" xml:space="preserve">
<path d="M0,256c0,127.7,106.1,233.8,233.8,233.8c77.2,0,145.8-39.2,189.1-97.9c7.8-10.1,5.3-22.7-3.9-28.4  c-9.6-5.7-20.6-2.8-27.5,6.6c-35.3,48.6-92.4,80.5-157.7,80.7C125.6,451.1,39,364.2,39,256S125.6,61.4,233.8,61.4  c93.1,0,170.1,63.7,190,150.4h-33.2c-16.3,0-20.4,11.2-11.7,23.8l51.3,73.1c7.3,10.3,18.3,10.5,25.9,0l51.1-72.9  c9.2-12.8,4.8-24.1-11.5-24.1h-32.3C442.4,104.5,346.6,22.2,233.8,22.2C106.1,22.2,0,128.1,0,256z M153.4,343.6  c0,17.2,7.6,25.2,23.4,25.2h118.7c15.8,0,23.4-8,23.4-25.2v-91c0-17.2-7.6-25.2-23.4-25.2l-98.1-0.2v-29.3  c0-26.8,15.6-44.7,38.7-44.7c23.2,0,38.7,15.6,38.7,38.7v5.5c0,7.3,5.3,11.9,12.4,11.9c6.6,0,11.5-4.6,11.5-11.9v-5.5  c0-37.1-25-61.9-62.6-61.9c-37.4,0-62.6,28.2-62.6,70.4v27c-13.5,0.9-20.2,8.9-20.2,25V343.6z"/>
</svg>