<?xml version="1.0" encoding="UTF-8"?>
<!--Generator: Apple Native CoreSVG 326-->
<!DOCTYPE svg
PUBLIC "-//W3C//DTD SVG 1.1//EN"
       "http://www.w3.org/Graphics/SVG/1.1/DTD/svg11.dtd">
<svg version="1.1" xmlns="http://www.w3.org/2000/svg" xmlns:xlink="http://www.w3.org/1999/xlink" viewBox="0 0 29.9902 25.791">
 <g>
  <rect height="25.791" opacity="0" width="29.9902" x="0" y="0"/>
  <path d="M2.57812 21.4258L27.0508 21.4258C28.6523 21.4258 29.6289 20.4492 29.6289 18.8477L29.6289 3.4082C29.6289 1.80664 28.6523 0.830078 27.0508 0.830078L2.57812 0.830078C0.976562 0.830078 0 1.80664 0 3.4082L0 18.8477C0 20.4492 0.976562 21.4258 2.57812 21.4258ZM2.30469 16.0742C1.91406 16.0742 1.72852 15.9082 1.72852 15.4883L1.72852 3.44727C1.72852 2.90039 2.07031 2.55859 2.61719 2.55859L27.0117 2.55859C27.5586 2.55859 27.9004 2.90039 27.9004 3.44727L27.9004 15.4883C27.9004 15.9082 27.7148 16.0742 27.3242 16.0742ZM10.9082 24.541L18.7207 24.541L18.7207 21.2695L10.9082 21.2695ZM10.7812 25.791L18.8477 25.791C19.3262 25.791 19.7168 25.4102 19.7168 24.9316C19.7168 24.4434 19.3262 24.0527 18.8477 24.0527L10.7812 24.0527C10.3027 24.0527 9.91211 24.4434 9.91211 24.9316C9.91211 25.4102 10.3027 25.791 10.7812 25.791Z" fill="black" fill-opacity="0.85"/>
  <path d="M10.3418 12.5977C10.3418 13.3105 10.6738 13.6621 11.3574 13.6621L15.625 13.6621C16.2988 13.6621 16.6309 13.3105 16.6309 12.5977L16.6309 9.31641C16.6309 8.60352 16.2988 8.25195 15.625 8.25195L11.3574 8.25195C10.6738 8.25195 10.3418 8.60352 10.3418 9.31641ZM14.707 8.87695L15.8398 8.87695L15.8398 7.19727C15.8398 6.2207 16.3672 5.5957 17.2559 5.5957C18.1445 5.5957 18.6719 6.2207 18.6719 7.19727L18.6719 8.01758C18.6719 8.33984 18.9258 8.59375 19.248 8.59375C19.5508 8.59375 19.8047 8.33984 19.8047 8.01758L19.8047 7.19727C19.8047 5.625 18.7988 4.49219 17.2559 4.49219C15.7129 4.49219 14.707 5.625 14.707 7.28516Z" fill="black" fill-opacity="0.85"/>
 </g>
</svg>
