<?xml version="1.0" encoding="UTF-8"?>
<!--Generator: Apple Native CoreSVG 326-->
<!DOCTYPE svg
PUBLIC "-//W3C//DTD SVG 1.1//EN"
       "http://www.w3.org/Graphics/SVG/1.1/DTD/svg11.dtd">
<svg version="1.1" xmlns="http://www.w3.org/2000/svg" xmlns:xlink="http://www.w3.org/1999/xlink" viewBox="0 0 21.3281 26.9238">
 <g>
  <rect height="26.9238" opacity="0" width="21.3281" x="0" y="0"/>
  <path d="M3.75977 26.9238L17.207 26.9238C19.707 26.9238 20.9668 25.6348 20.9668 23.125L20.9668 11.4355C20.9668 9.98047 20.791 9.3457 19.8828 8.42773L12.6465 1.09375C11.7871 0.205078 11.084 0.00976562 9.78516 0.00976562L3.75977 0.00976562C1.2793 0.00976562 0 1.28906 0 3.80859L0 23.125C0 25.6445 1.25977 26.9238 3.75977 26.9238ZM3.84766 25.1953C2.45117 25.1953 1.72852 24.4531 1.72852 23.0859L1.72852 3.84766C1.72852 2.50977 2.45117 1.73828 3.85742 1.73828L9.63867 1.73828L9.63867 9.21875C9.63867 10.7129 10.3906 11.4355 11.8555 11.4355L19.2383 11.4355L19.2383 23.0859C19.2383 24.4531 18.5156 25.1953 17.1094 25.1953ZM12.041 9.80469C11.4941 9.80469 11.2695 9.58984 11.2695 9.0332L11.2695 2.08008L18.8965 9.80469Z" fill="black" fill-opacity="0.85"/>
  <path d="M7.83203 23.5449L13.1641 23.5449C13.8965 23.5449 14.2676 23.1641 14.2676 22.373L14.2676 18.2031C14.2676 17.4609 13.9453 17.0801 13.3008 17.041L13.3008 15.7715C13.3008 13.9062 12.168 12.6562 10.498 12.6562C8.82812 12.6562 7.69531 13.9062 7.69531 15.7715L7.69531 17.041C7.05078 17.0801 6.72852 17.4609 6.72852 18.2031L6.72852 22.373C6.72852 23.1641 7.09961 23.5449 7.83203 23.5449ZM8.70117 17.0312L8.70117 15.6738C8.70117 14.4434 9.41406 13.6328 10.498 13.6328C11.582 13.6328 12.2949 14.4434 12.2949 15.6738L12.2949 17.0312Z" fill="black" fill-opacity="0.85"/>
 </g>
</svg>
