<?xml version="1.0" ?><!-- Generator: Adobe Illustrator 25.0.0, SVG Export Plug-In . SVG Version: 6.00 Build 0)  --><svg xmlns="http://www.w3.org/2000/svg" xmlns:xlink="http://www.w3.org/1999/xlink" version="1.1" id="Layer_1" x="0px" y="0px" viewBox="0 0 512 512" style="enable-background:new 0 0 512 512;" xml:space="preserve">
<path d="M0,380.2c0,5.6,2,10.3,5.9,14.3c3.9,4,8.6,5.9,14.2,5.9h471.9c5.6,0,10.3-2,14.2-5.9c3.9-4,5.9-8.7,5.9-14.3  s-2-10.3-5.9-14.3c-3.9-4-8.6-5.9-14.2-5.9h-38.9V149.2c0-12.4-3.2-21.8-9.7-28.1c-6.5-6.3-15.9-9.5-28.3-9.5H96.9  c-11.7,0-21,3.2-27.8,9.5c-6.8,6.3-10.2,15.7-10.2,28.1v210.7H20.1c-5.6,0-10.3,2-14.2,5.9C2,369.9,0,374.6,0,380.2z M87.5,359.9  V157.2c0-5.7,1.4-9.9,4.3-12.8c2.8-2.8,7.1-4.3,12.8-4.3h302.9c5.7,0,9.9,1.4,12.8,4.3c2.8,2.8,4.3,7.1,4.3,12.8v202.7H87.5z" class="hierarchical-0:secondary SFSymbolsPreview4D4D4D" style="fill: #4D4D4D;"/>
<path d="M192.4,296.9c0,10.2,4.8,15.2,14.5,15.2H267c9.6,0,14.5-5.1,14.5-15.2v-46.3c0-10-4.8-15-14.5-15h-60.1  c-9.6,0-14.5,5-14.5,15V296.9z M253.3,245.9h17.6v-25.4c0-6.5,1.7-11.7,5.1-15.6c3.4-3.9,8.1-5.9,14.1-5.9c6,0,10.7,2,14.1,5.9  c3.4,3.9,5.1,9.1,5.1,15.6V233c0,2.5,0.8,4.6,2.5,6.3c1.7,1.8,3.8,2.6,6.2,2.6c2.3,0,4.4-0.9,6.2-2.6s2.6-3.9,2.6-6.3v-12.5  c0-11.2-3.4-20.4-10.1-27.7c-6.7-7.3-15.6-10.9-26.7-10.9c-11.1,0-20,3.7-26.7,11.1c-6.7,7.4-10.1,17.1-10.1,29.1V245.9z" class="hierarchical-1:primary SFSymbolsPreview212121" style="fill: #212121;"/>
</svg>