<?xml version="1.0" ?><!-- Generator: Adobe Illustrator 25.0.0, SVG Export Plug-In . SVG Version: 6.00 Build 0)  --><svg xmlns="http://www.w3.org/2000/svg" xmlns:xlink="http://www.w3.org/1999/xlink" version="1.1" id="Layer_1" x="0px" y="0px" viewBox="0 0 512 512" style="enable-background:new 0 0 512 512;" xml:space="preserve">
<path d="M252.7,0c-54.4,0-104.4,32.3-119.8,96.8c-0.2,0.7-0.2,1.2-0.5,1.9l31.9,31.9c0-1.9,0.2-3.6,0.2-5.5  c5.2-57.1,43-88.4,88.2-88.4c49,0,88.7,36.4,88.7,102.7v61.1l-106.8,0.2L417.7,384V250.4c0-30.7-12.6-46.6-38-49.5v-56.3  C379.7,47.3,319.1,0,252.7,0z M447,506.7c7.1,7.1,19,7.1,25.9,0c6.9-7.4,7.1-18.8,0-25.9L65.2,73.2c-7.1-7.1-19-7.4-26.2,0  c-6.9,6.9-6.9,19,0,25.9L447,506.7z M134.6,481.7H374c3.1,0,5.9-0.2,8.6-0.5L108.2,206.8C94.4,214,87.5,228,87.5,250.6V432  C87.5,466.2,103,481.7,134.6,481.7z"/>
</svg>