<?xml version="1.0" ?><!-- Generator: Adobe Illustrator 25.0.0, SVG Export Plug-In . SVG Version: 6.00 Build 0)  --><svg xmlns="http://www.w3.org/2000/svg" xmlns:xlink="http://www.w3.org/1999/xlink" version="1.1" id="Layer_1" x="0px" y="0px" viewBox="0 0 512 512" style="enable-background:new 0 0 512 512;" xml:space="preserve">
<path d="M87.3,512h337.3c58.4,0,87.3-28.9,87.3-86.2V86.2C512,28.9,483.1,0,424.7,0H87.3C29.2,0,0,28.6,0,86.2v339.6  C0,483.4,29.2,512,87.3,512z M152.7,365.2v-114c0-20.3,8.3-30.3,25-31.4v-33.7c0-52.8,31.7-88.2,78.4-88.2s78.4,35.3,78.4,88.2v33.7  c17,1.1,25.3,11.1,25.3,31.4v114c0,21.4-9.5,31.4-29.5,31.4H181.9C162.1,396.6,152.7,386.6,152.7,365.2z M207.7,219.4h96.8v-36.7  c0-33.4-19.5-55.9-48.4-55.9s-48.4,22.5-48.4,55.9V219.4z"/>
</svg>