<?xml version="1.0" encoding="UTF-8"?>
<!--Generator: Apple Native CoreSVG 326-->
<!DOCTYPE svg
PUBLIC "-//W3C//DTD SVG 1.1//EN"
       "http://www.w3.org/Graphics/SVG/1.1/DTD/svg11.dtd">
<svg version="1.1" xmlns="http://www.w3.org/2000/svg" xmlns:xlink="http://www.w3.org/1999/xlink" viewBox="0 0 29.9902 25.791">
 <g>
  <rect height="25.791" opacity="0" width="29.9902" x="0" y="0"/>
  <path d="M2.57812 21.4258L27.0508 21.4258C28.6523 21.4258 29.6289 20.4492 29.6289 18.8477L29.6289 3.4082C29.6289 1.80664 28.6523 0.830078 27.0508 0.830078L2.57812 0.830078C0.976562 0.830078 0 1.80664 0 3.4082L0 18.8477C0 20.4492 0.976562 21.4258 2.57812 21.4258ZM2.30469 16.0742C1.91406 16.0742 1.72852 15.9082 1.72852 15.4883L1.72852 3.44727C1.72852 2.90039 2.07031 2.55859 2.61719 2.55859L27.0117 2.55859C27.5586 2.55859 27.9004 2.90039 27.9004 3.44727L27.9004 15.4883C27.9004 15.9082 27.7148 16.0742 27.3242 16.0742ZM10.9082 24.541L18.7207 24.541L18.7207 21.2695L10.9082 21.2695ZM10.7812 25.791L18.8477 25.791C19.3262 25.791 19.7168 25.4102 19.7168 24.9316C19.7168 24.4434 19.3262 24.0527 18.8477 24.0527L10.7812 24.0527C10.3027 24.0527 9.91211 24.4434 9.91211 24.9316C9.91211 25.4102 10.3027 25.791 10.7812 25.791Z" fill="black" fill-opacity="0.85"/>
  <path d="M12.666 13.6719L16.9629 13.6719C17.6562 13.6719 18.0176 13.3008 18.0176 12.5586L18.0176 9.16992C18.0176 8.56445 17.7637 8.20312 17.2852 8.08594L17.2852 7.32422C17.2852 5.70312 16.2891 4.58984 14.8145 4.58984C13.3496 4.58984 12.3535 5.70312 12.3535 7.32422L12.3535 8.0957C11.875 8.20312 11.6211 8.56445 11.6211 9.16992L11.6211 12.5586C11.6211 13.3008 11.9727 13.6719 12.666 13.6719ZM13.4766 8.05664L13.4766 7.23633C13.4766 6.29883 14.0039 5.68359 14.8145 5.68359C15.625 5.68359 16.1621 6.29883 16.1621 7.23633L16.1621 8.05664Z" fill="black" fill-opacity="0.85"/>
 </g>
</svg>
