<?xml version="1.0" ?><!-- Generator: Adobe Illustrator 25.0.0, SVG Export Plug-In . SVG Version: 6.00 Build 0)  --><svg xmlns="http://www.w3.org/2000/svg" xmlns:xlink="http://www.w3.org/1999/xlink" version="1.1" id="Layer_1" x="0px" y="0px" viewBox="0 0 512 512" style="enable-background:new 0 0 512 512;" xml:space="preserve">
<path d="M256,512c140,0,256-116,256-256C512,116.2,395.8,0,255.7,0C116,0,0,116.2,0,256C0,396,116.2,512,256,512z M162.4,355.1V252  c0-18.3,7.5-27.1,22.6-28.1v-30.6c0-47.7,28.6-79.6,70.8-79.6s70.8,31.9,70.8,79.6v30.6c15.1,1,22.6,9.8,22.6,28.1v103.2  c0,19.3-8.5,28.1-26.4,28.1h-134C170.9,383.2,162.4,374.5,162.4,355.1z M212.1,223.6h87.3v-33.4c0-30.1-17.6-50.4-43.7-50.4  c-26.1,0-43.7,20.3-43.7,50.4V223.6z"/>
</svg>