<?xml version="1.0" ?><!-- Generator: Adobe Illustrator 25.0.0, SVG Export Plug-In . SVG Version: 6.00 Build 0)  --><svg xmlns="http://www.w3.org/2000/svg" xmlns:xlink="http://www.w3.org/1999/xlink" version="1.1" id="Layer_1" x="0px" y="0px" viewBox="0 0 512 512" style="enable-background:new 0 0 512 512;" xml:space="preserve">
<path d="M66.1,452c0,17.9,5.8,32.3,17.4,43.4c11.6,11.1,26.8,16.6,45.6,16.6h253.8c18.8,0,34-5.5,45.6-16.6  c11.6-11.1,17.4-25.5,17.4-43.4V60.2c0-18-5.8-32.6-17.4-43.6C416.9,5.5,401.7,0,382.9,0H129.1c-18.8,0-34,5.5-45.6,16.6  C71.9,27.6,66.1,42.2,66.1,60.2V452z M102.7,445.9V66.4c0-9.4,2.7-16.7,8.2-21.9c5.5-5.2,13-7.8,22.7-7.8h244.8  c9.7,0,17.3,2.6,22.7,7.8c5.5,5.2,8.2,12.5,8.2,21.9v379.5c0,9.2-2.7,16.5-8.2,21.7c-5.5,5.2-13,7.8-22.7,7.8H133.6  c-9.7,0-17.3-2.6-22.7-7.8C105.4,462.3,102.7,455.1,102.7,445.9z" class="hierarchical-0:secondary SFSymbolsPreview4D4D4D" style="fill: #4D4D4D;"/>
<path d="M217.8,333.3h77c12.3,0,18.5-6.5,18.5-19.5v-59.2c0-9.8-3.7-16-11.2-18.5v-15.5c0-15.3-4.2-27.7-12.6-37.2  c-8.4-9.5-19.5-14.2-33.1-14.2c-13.7,0-24.7,4.7-33.1,14.2c-8.4,9.5-12.6,21.9-12.6,37.2v15.7c-7.5,2.3-11.2,8.4-11.2,18.2v59.2  C199.3,326.8,205.4,333.3,217.8,333.3z M233,235.3v-16.7c0-8.3,2.1-15,6.4-20c4.2-5,9.9-7.5,16.9-7.5c7,0,12.6,2.5,16.9,7.5  c4.2,5,6.4,11.7,6.4,20v16.7H233z" class="hierarchical-1:primary SFSymbolsPreview212121" style="fill: #212121;"/>
</svg>