<?xml version="1.0" ?><!-- Generator: Adobe Illustrator 25.0.0, SVG Export Plug-In . SVG Version: 6.00 Build 0)  --><svg xmlns="http://www.w3.org/2000/svg" xmlns:xlink="http://www.w3.org/1999/xlink" version="1.1" id="Layer_1" x="0px" y="0px" viewBox="0 0 512 512" style="enable-background:new 0 0 512 512;" xml:space="preserve">
<path d="M129.2,512h253.6c49.4,0,74-25.1,74-74.7V220.4H283.9c-30.6,0-45.1-14.6-45.1-45.1V0H129.2c-49.2,0-74,25.3-74,75v362.3  C55.2,487.2,79.8,512,129.2,512z M284.7,187.7H454c-1.4-9.8-8.4-19.3-19.8-31l-131.6-134c-11.2-11.5-21-18.4-31-20.1v172.2  C271.5,183.4,275.8,187.7,284.7,187.7z M185.3,440.1v-80.5c0-14.3,5.7-21.5,17.7-22.2v-23.9c0-37.3,22.4-62.3,55.4-62.3  s55.4,25.1,55.4,62.3v23.9c11.7,0.7,17.7,7.9,17.7,22.2v80.5c0,15-6.7,22.2-20.8,22.2H205.9C192,462.3,185.3,455.2,185.3,440.1z   M224.2,337.2h68.3v-26c0-23.6-13.6-39.4-34.1-39.4c-20.5,0-34.1,15.8-34.1,39.4V337.2z"/>
</svg>