<?xml version="1.0" encoding="UTF-8"?>
<!--Generator: Apple Native CoreSVG 326-->
<!DOCTYPE svg
PUBLIC "-//W3C//DTD SVG 1.1//EN"
       "http://www.w3.org/Graphics/SVG/1.1/DTD/svg11.dtd">
<svg version="1.1" xmlns="http://www.w3.org/2000/svg" xmlns:xlink="http://www.w3.org/1999/xlink" viewBox="0 0 26.4648 25.1855">
 <g>
  <rect height="25.1855" opacity="0" width="26.4648" x="0" y="0"/>
  <path d="M2.73438 24.5312L14.4043 24.5312C16.1523 24.5312 17.1387 23.5254 17.1387 21.6504L17.1387 12.7637C17.1387 10.8887 16.1523 9.88281 14.4043 9.88281L2.73438 9.88281C0.976562 9.88281 0 10.8887 0 12.7637L0 21.6504C0 23.5254 0.976562 24.5312 2.73438 24.5312ZM13.4375 10.7129L15.1465 10.7129L15.1465 6.72852C15.1465 3.47656 17.2168 1.63086 19.7656 1.63086C22.3242 1.63086 24.3945 3.47656 24.3945 6.72852L24.3945 9.51172C24.3945 10.1367 24.7754 10.459 25.2539 10.459C25.7129 10.459 26.1035 10.166 26.1035 9.51172L26.1035 6.92383C26.1035 2.38281 23.1445 0 19.7656 0C16.3965 0 13.4375 2.38281 13.4375 6.92383Z" fill="black" fill-opacity="0.85"/>
 </g>
</svg>
