<?xml version="1.0" ?><!-- Generator: Adobe Illustrator 25.0.0, SVG Export Plug-In . SVG Version: 6.00 Build 0)  --><svg xmlns="http://www.w3.org/2000/svg" xmlns:xlink="http://www.w3.org/1999/xlink" version="1.1" id="Layer_1" x="0px" y="0px" viewBox="0 0 512 512" style="enable-background:new 0 0 512 512;" xml:space="preserve">
<path d="M62,371.5h37.7v30.2c0,40.7,20.6,61.3,62,61.3h288.3c41.1,0,61.9-20.6,61.9-61.3v-200c0-40.7-20.7-61.3-61.9-61.3h-37.9  v-30.2c0-40.7-20.7-61.3-61.9-61.3H62C20.6,49,0,69.6,0,110.3v200C0,350.9,20.6,371.5,62,371.5z M62.4,339.7  c-19.8,0-30.6-10.7-30.6-31.2V112c0-20.6,10.9-31.2,30.6-31.2h287.3c19.6,0,30.6,10.7,30.6,31.2v28.5H161.8c-41.5,0-62,20.4-62,61.3  v137.9H62.4z M162.2,431.2c-19.8,0-30.6-10.7-30.6-31.2V203.5c0-20.6,10.9-31.2,30.6-31.2h287.3c19.6,0,30.6,10.7,30.6,31.2V400  c0,20.6-11.1,31.2-30.6,31.2H162.2z M234.8,377.2c0,14.8,6.5,21.5,20.2,21.5h102.4c13.6,0,20.2-6.7,20.2-21.5v-78.8  c0-13.6-5.7-20.6-17.4-21.3v-23.5c0-36.4-21.7-60.7-53.9-60.7c-32.2,0-53.9,24.3-53.9,60.7V277c-11.7,0.8-17.4,7.7-17.4,21.3V377.2z   M272.7,276.8v-25.5c0-23.1,13.4-38.5,33.4-38.5c20,0,33.4,15.4,33.4,38.5v25.5H272.7z"/>
</svg>