<?xml version="1.0" ?><!-- Generator: Adobe Illustrator 25.0.0, SVG Export Plug-In . SVG Version: 6.00 Build 0)  --><svg xmlns="http://www.w3.org/2000/svg" xmlns:xlink="http://www.w3.org/1999/xlink" version="1.1" id="Layer_1" x="0px" y="0px" viewBox="0 0 512 512" style="enable-background:new 0 0 512 512;" xml:space="preserve">
<path d="M131.1,512h249.8c33.9,0,50.4-16.8,50.4-53.5V265.8c0-33.1-13.6-50.1-41.7-53v-66.1C389.6,47.8,324.8,0,256,0  c-68.8,0-133.6,47.8-133.6,146.7v67.4c-25.7,3.9-41.7,20.7-41.7,51.7v192.6C80.7,495.2,97.2,512,131.1,512z M164.7,141.2  c0-65.9,42.3-100.8,91.3-100.8c49.1,0,91.3,34.9,91.3,100.8v71.4l-182.7,0.3V141.2z"/>
</svg>