<?xml version="1.0" ?><!-- Generator: Adobe Illustrator 25.0.0, SVG Export Plug-In . SVG Version: 6.00 Build 0)  --><svg xmlns="http://www.w3.org/2000/svg" xmlns:xlink="http://www.w3.org/1999/xlink" version="1.1" id="Layer_1" x="0px" y="0px" viewBox="0 0 512 512" style="enable-background:new 0 0 512 512;" xml:space="preserve">
<path d="M256,512c4.1,0,10.6-1.5,17-5.1c144.2-80.9,193.6-115.1,193.6-207.6V105.4c0-26.6-11.4-35-33-44.1  C403.8,48.9,307.2,14.2,277.3,3.8C270.4,1.5,263.1,0,256,0s-14.4,2-21,3.8c-29.9,8.6-126.7,45.4-156.6,57.5  c-21.3,8.9-33,17.5-33,44.1v193.9c0,92.5,49.7,126.5,193.6,207.6C245.6,510.5,251.9,512,256,512z M256,466.1  c-4.1,0-8.1-1.5-15.7-6.1C123.2,389.1,85.7,368.3,85.7,290V113.3c0-8.6,1.5-11.9,8.6-14.7c38.5-15.2,113.3-40.3,151.6-55.5  c4.1-1.8,7.4-2.3,10.1-2.3c2.8,0,6.1,0.8,10.1,2.3C304.4,58.3,378.7,85.2,418,98.6c6.8,2.5,8.4,6.1,8.4,14.7V290  c0,78.3-37.5,98.9-154.6,170.1C264.4,464.6,260.1,466.1,256,466.1z M164.5,340.4c0,19,8.4,27.9,25.9,27.9h131.3  c17.5,0,25.9-8.9,25.9-27.9V239.5c0-17.7-7.4-26.4-22.3-27.4V182c0-46.6-27.9-77.8-69.2-77.8c-41.3,0-69.2,31.2-69.2,77.8v30.2  c-15,1-22.3,9.6-22.3,27.4V340.4z M213.2,211.9v-32.7c0-29.7,17.2-49.4,42.8-49.4c25.6,0,42.8,19.8,42.8,49.4v32.7H213.2z"/>
</svg>