<?xml version="1.0" ?><!-- Generator: Adobe Illustrator 25.0.0, SVG Export Plug-In . SVG Version: 6.00 Build 0)  --><svg xmlns="http://www.w3.org/2000/svg" xmlns:xlink="http://www.w3.org/1999/xlink" version="1.1" id="Layer_1" x="0px" y="0px" viewBox="0 0 512 512" style="enable-background:new 0 0 512 512;" xml:space="preserve">
<path d="M151.8,28.2h203.5C354,9.8,343.5,0,323.4,0H183.8C163.7,0,153.2,9.8,151.8,28.2z M112.9,88.8h279.4  C389.3,69.1,379.6,58,357.7,58H147.5C125.6,58,116.2,69.1,112.9,88.8z M130.8,512h256.9c39.2,0,62.1-22.8,62.1-67.8V192.1  c0-45.1-23.2-67.8-68.7-67.8H130.8c-45.7,0-68.7,22.5-68.7,67.8v252.1C62.1,489.2,85.1,512,130.8,512z M174.6,404.3v-89.7  c0-16,6.6-23.8,19.9-24.7v-26.5c0-41.6,24.9-69.4,61.7-69.4c36.5,0,61.7,27.8,61.7,69.4v26.5c13.1,0.9,19.7,8.8,19.7,24.7v89.7  c0,16.8-7.4,24.7-23,24.7H197.8C182,429.1,174.6,421.2,174.6,404.3z M218.1,289.7h76.1v-28.9c0-26.5-15.3-44-38.1-44  c-23,0-38.1,17.5-38.1,44V289.7z"/>
</svg>