<?xml version="1.0" encoding="UTF-8"?>
<!--Generator: Apple Native CoreSVG 326-->
<!DOCTYPE svg
PUBLIC "-//W3C//DTD SVG 1.1//EN"
       "http://www.w3.org/Graphics/SVG/1.1/DTD/svg11.dtd">
<svg version="1.1" xmlns="http://www.w3.org/2000/svg" xmlns:xlink="http://www.w3.org/1999/xlink" viewBox="0 0 20.9863 25.8691">
 <g>
  <rect height="25.8691" opacity="0" width="20.9863" x="0" y="0"/>
  <path d="M10.3125 25.8691C10.5371 25.8691 10.8594 25.7812 11.1523 25.6055C18.252 21.5527 20.625 19.9512 20.625 15.5273L20.625 5.91797C20.625 4.58008 20.0977 4.15039 18.9746 3.68164C17.2949 3.00781 13.0176 1.43555 11.3379 0.859375C11.0059 0.742188 10.6543 0.664062 10.3125 0.664062C9.9707 0.664062 9.62891 0.761719 9.29688 0.859375C7.61719 1.38672 3.33008 3.01758 1.65039 3.68164C0.527344 4.13086 0 4.58008 0 5.91797L0 15.5273C0 19.9512 2.40234 21.5137 9.47266 25.6055C9.77539 25.7812 10.0977 25.8691 10.3125 25.8691ZM10.3125 23.9453C10.1074 23.9453 9.88281 23.8477 9.56055 23.6426C3.7207 20.0488 1.70898 19.0039 1.70898 15.1562L1.70898 6.25C1.70898 5.69336 1.81641 5.47852 2.24609 5.3125C4.00391 4.60938 7.98828 3.22266 9.74609 2.5293C9.9707 2.44141 10.166 2.39258 10.3125 2.39258C10.459 2.39258 10.6543 2.44141 10.8789 2.5293C12.6465 3.22266 16.5918 4.67773 18.3887 5.3125C18.8086 5.46875 18.916 5.69336 18.916 6.25L18.916 15.1562C18.916 19.0039 16.8945 20.0293 11.0645 23.6426C10.7422 23.8477 10.5176 23.9453 10.3125 23.9453Z" fill="black" fill-opacity="0.85"/>
  <path d="M5.75195 17.6465C5.75195 18.6133 6.18164 19.0527 7.07031 19.0527L13.5742 19.0527C14.4629 19.0527 14.8828 18.6133 14.8828 17.6465L14.8828 12.5684C14.8828 11.6504 14.502 11.2109 13.7109 11.1719L13.7109 9.59961C13.7109 7.33398 12.3438 5.83008 10.3223 5.83008C8.30078 5.83008 6.93359 7.33398 6.93359 9.59961L6.93359 11.1719C6.14258 11.2109 5.75195 11.6504 5.75195 12.5684ZM8.0957 11.1621L8.0957 9.49219C8.0957 7.96875 8.99414 6.96289 10.3223 6.96289C11.6504 6.96289 12.5391 7.96875 12.5391 9.49219L12.5391 11.1621Z" fill="black" fill-opacity="0.85"/>
 </g>
</svg>
