<?xml version="1.0" encoding="UTF-8"?>
<!--Generator: Apple Native CoreSVG 326-->
<!DOCTYPE svg
PUBLIC "-//W3C//DTD SVG 1.1//EN"
       "http://www.w3.org/Graphics/SVG/1.1/DTD/svg11.dtd">
<svg version="1.1" xmlns="http://www.w3.org/2000/svg" xmlns:xlink="http://www.w3.org/1999/xlink" viewBox="0 0 36.0449 20.1074">
 <g>
  <rect height="20.1074" opacity="0" width="36.0449" x="0" y="0"/>
  <path d="M0 18.8086C0 19.5312 0.566406 20.1074 1.2793 20.1074L34.4043 20.1074C35.1172 20.1074 35.6836 19.5312 35.6836 18.8086C35.6836 18.0859 35.1172 17.5098 34.4043 17.5098L31.6406 17.5098L31.6406 2.62695C31.6406 0.908203 30.7324 0.0195312 29.0137 0.0195312L6.66992 0.0195312C5.0293 0.0195312 4.04297 0.908203 4.04297 2.62695L4.04297 17.5098L1.2793 17.5098C0.566406 17.5098 0 18.0859 0 18.8086ZM5.77148 17.5098L5.77148 3.08594C5.77148 2.1875 6.2207 1.74805 7.10938 1.74805L28.5742 1.74805C29.4629 1.74805 29.9121 2.1875 29.9121 3.08594L29.9121 17.5098Z" fill="black" fill-opacity="0.85"/>
  <path d="M15.6934 13.9844L19.9902 13.9844C20.6836 13.9844 21.0449 13.6133 21.0449 12.8809L21.0449 9.48242C21.0449 8.87695 20.791 8.51562 20.3223 8.39844L20.3223 7.63672C20.3223 6.01562 19.3262 4.90234 17.8418 4.90234C16.377 4.90234 15.3809 6.01562 15.3809 7.63672L15.3809 8.4082C14.9023 8.51562 14.6484 8.87695 14.6484 9.48242L14.6484 12.8809C14.6484 13.6133 15 13.9844 15.6934 13.9844ZM16.5039 8.36914L16.5039 7.54883C16.5039 6.61133 17.0312 5.99609 17.8418 5.99609C18.6523 5.99609 19.1895 6.61133 19.1895 7.54883L19.1895 8.36914Z" fill="black" fill-opacity="0.85"/>
 </g>
</svg>
