<?xml version="1.0" ?><!-- Generator: Adobe Illustrator 25.0.0, SVG Export Plug-In . SVG Version: 6.00 Build 0)  --><svg xmlns="http://www.w3.org/2000/svg" xmlns:xlink="http://www.w3.org/1999/xlink" version="1.1" id="Layer_1" x="0px" y="0px" viewBox="0 0 512 512" style="enable-background:new 0 0 512 512;" xml:space="preserve">
<path d="M100.6,449.1c0,18.9,6,34.1,18.1,45.6c12.1,11.5,28,17.3,47.6,17.3h179.2c19.8,0,35.8-5.8,47.8-17.3  c12-11.5,18-26.7,18-45.6V62.9c0-18.9-6-34.1-18-45.6C381.4,5.8,365.4,0,345.6,0H166.4c-19.7,0-35.6,5.8-47.6,17.3  c-12.1,11.5-18.1,26.7-18.1,45.6V449.1z M139.5,442.8V69.2c0-9.7,2.7-17.1,8.2-22.4c5.5-5.2,13.4-7.9,23.7-7.9h169.3  c10.2,0,18,2.6,23.5,7.9c5.5,5.2,8.2,12.7,8.2,22.4v373.7c0,9.7-2.7,17.1-8.2,22.4c-5.5,5.2-13.3,7.9-23.5,7.9H171.5  c-10.3,0-18.2-2.6-23.7-7.9C142.3,460,139.5,452.5,139.5,442.8z" class="hierarchical-0:secondary SFSymbolsPreview4D4D4D" style="fill: #4D4D4D;"/>
<path d="M215.1,338.3H297c13.1,0,19.7-6.9,19.7-20.8v-63c0-10.5-4-17-12-19.7v-16.5c0-16.3-4.5-29.5-13.4-39.6  c-9-10.1-20.7-15.2-35.2-15.2c-14.5,0-26.3,5.1-35.2,15.2c-9,10.1-13.4,23.3-13.4,39.6v16.8c-8,2.5-12,9-12,19.4v63  C195.4,331.4,201.9,338.3,215.1,338.3z M231.3,234v-17.8c0-8.9,2.3-16,6.8-21.3c4.5-5.3,10.5-8,18-8c7.4,0,13.4,2.7,18,8  c4.5,5.3,6.8,12.4,6.8,21.3V234H231.3z" class="hierarchical-1:primary SFSymbolsPreview212121" style="fill: #212121;"/>
</svg>