<?xml version="1.0" ?><!-- Generator: Adobe Illustrator 25.0.0, SVG Export Plug-In . SVG Version: 6.00 Build 0)  --><svg xmlns="http://www.w3.org/2000/svg" xmlns:xlink="http://www.w3.org/1999/xlink" version="1.1" id="Layer_1" x="0px" y="0px" viewBox="0 0 512 512" style="enable-background:new 0 0 512 512;" xml:space="preserve">
<path d="M49.4,396.1h413c15.5,0,27.6-4.4,36.4-13.2c8.8-8.8,13.2-20.9,13.2-36.4V89c0-15.5-4.4-27.6-13.2-36.3  c-8.8-8.7-20.9-13.1-36.4-13.1h-413C34.1,39.6,22,44,13.2,52.7S0,73.6,0,89v257.5c0,15.5,4.4,27.6,13.2,36.4  C22,391.7,34.1,396.1,49.4,396.1z M50,361.6c-4.7,0-8.5-1.4-11.3-4.2c-2.8-2.8-4.2-6.6-4.2-11.3V89.7c0-4.9,1.4-8.7,4.2-11.4  c2.8-2.7,6.6-4.1,11.3-4.1H462c4.7,0,8.5,1.4,11.3,4.1c2.8,2.7,4.2,6.5,4.2,11.4v256.4c0,4.7-1.4,8.5-4.2,11.3  c-2.8,2.8-6.6,4.2-11.3,4.2H50z M188.1,447.2h135.7v-53.9H188.1V447.2z M186.8,472.4h138.3c4.7,0,8.8-1.7,12.1-5  c3.4-3.4,5-7.5,5-12.3c0-4.9-1.7-9-5-12.3c-3.4-3.4-7.4-5-12.1-5H186.8c-4.7,0-8.8,1.7-12.2,5c-3.4,3.4-5.2,7.5-5.2,12.3  c0,4.9,1.7,9,5.2,12.3C178,470.7,182.1,472.4,186.8,472.4z" class="hierarchical-0:secondary SFSymbolsPreview4D4D4D" style="fill: #4D4D4D;"/>
<path d="M219.7,290.8h72.8c11.7,0,17.5-6.1,17.5-18.4v-56c0-9.3-3.5-15.1-10.6-17.5v-14.6c0-14.5-4-26.2-11.9-35.2  c-8-9-18.4-13.5-31.3-13.5s-23.3,4.5-31.3,13.5c-8,9-11.9,20.7-11.9,35.2v14.9c-7.1,2.2-10.6,8-10.6,17.2v56  C202.3,284.7,208.1,290.8,219.7,290.8z M234.2,198.2v-15.8c0-7.9,2-14.2,6-18.9c4-4.7,9.3-7.1,15.9-7.1s11.9,2.4,15.9,7.1  c4,4.7,6,11,6,18.9v15.8H234.2z" class="hierarchical-1:primary SFSymbolsPreview212121" style="fill: #212121;"/>
</svg>