<?xml version="1.0" ?><!-- Generator: Adobe Illustrator 25.0.0, SVG Export Plug-In . SVG Version: 6.00 Build 0)  --><svg xmlns="http://www.w3.org/2000/svg" xmlns:xlink="http://www.w3.org/1999/xlink" version="1.1" id="Layer_1" x="0px" y="0px" viewBox="0 0 512 512" style="enable-background:new 0 0 512 512;" xml:space="preserve">
<path d="M182.1,61.1C55.9,61.1,0,118.9,0,237.5v147.8c0,43.8,22.2,65.6,66.5,65.6h379c44.3,0,66.5-22,66.5-65.6V237.5  c0-118.6-55.9-176.4-181.9-176.4H182.1z M182.1,95.6h147.8c102.9,0,148,44.9,148,140v148c0,22-11.9,33.2-32.8,33.2H66.9  c-21.2,0-32.8-11.2-32.8-33.2v-148C34.1,140.5,79.2,95.6,182.1,95.6z M143.6,351.4H241c8.3,0,14.2-5.3,14.2-14  c0-8.7-6.1-13.8-14.2-13.8h-80.5V175c0-11.9-5.9-19.1-16.9-19.1s-16.7,7.6-16.7,19.1v157.3C126.8,343.6,132.6,351.4,143.6,351.4z   M328.4,353.7c11.2,0,17.2-7.2,17.2-19.1V186h52.7c8,0,14-5.3,14-13.8c0-8.9-5.9-14-14-14H259.6c-8,0-14,5.1-14,14  c0,8.5,5.9,13.8,14,13.8h52.3v148.6C311.9,346.1,317.6,353.7,328.4,353.7z"/>
</svg>