<?xml version="1.0" ?><!-- Generator: Adobe Illustrator 25.0.0, SVG Export Plug-In . SVG Version: 6.00 Build 0)  --><svg xmlns="http://www.w3.org/2000/svg" xmlns:xlink="http://www.w3.org/1999/xlink" version="1.1" id="Layer_1" x="0px" y="0px" viewBox="0 0 512 512" style="enable-background:new 0 0 512 512;" xml:space="preserve">
<path d="M69.8,439.5l77.9-15.1c40.9-8,58.9-30.1,58.9-73.6v-22.6V299V135.5c0-39-27-64.7-67.6-64.7c-34.3,0-63.7,24.4-73.5,60.8  L3.1,368.3C-9.9,417.6,19.3,449.1,69.8,439.5z M442.2,439.5c50.5,9.6,79.7-21.9,66.7-71.1l-62.4-236.7  c-9.6-36.5-39.1-60.8-73.5-60.8c-40.6,0-67.4,25.8-67.4,64.7V299l-35.2-7.6V94.3c0-7.8-6.4-14.4-14.2-14.4  c-7.8,0-14.4,6.6-14.4,14.4v197.1l-35.2,7.6v29.2l49.6-10.7l49.4,10.7v22.6c0,43.6,17.8,65.6,58.9,73.6L442.2,439.5z M177.9,135.5  v165.4l-57.6-51.8c-5.5-5-15.1-4.8-20.1,0.9c-5.3,5.9-4.6,15.3,1.1,20.3l45.9,41.1l-56,12.1c-7.3,1.4-12.5,9.1-11,16.7  c1.6,7.5,9.6,12.6,17.1,11l80.7-17.1v16.5c0,29.9-8.4,40-35.8,45.4l-78.3,15.1c-23.1,4.6-39.5-10.1-32.5-36.6l62.1-235.7  c6.2-23.7,24.5-39.5,45.5-39.5C162.1,99.4,177.9,114,177.9,135.5z M334.3,135.5c0-21.5,15.7-36.1,38.8-36.1  c21,0,39.3,15.8,45.5,39.5l62.3,235.7c6.8,26.5-9.6,41.3-32.7,36.6l-78.3-15.1c-27.2-5.3-35.6-15.5-35.6-45.4v-16.5l80.7,17.1  c7.5,1.6,15.5-3.6,16.9-11c1.6-7.6-3.6-15.3-11-16.7l-56-12.1l46.1-41.1c5.7-5,6.4-14.4,1.1-20.3c-5.2-5.7-14.8-5.9-20.3-0.9  l-57.5,51.9V135.5z"/>
</svg>