<?xml version="1.0" ?><!-- Generator: Adobe Illustrator 25.0.0, SVG Export Plug-In . SVG Version: 6.00 Build 0)  --><svg xmlns="http://www.w3.org/2000/svg" xmlns:xlink="http://www.w3.org/1999/xlink" version="1.1" id="Layer_1" x="0px" y="0px" viewBox="0 0 512 512" style="enable-background:new 0 0 512 512;" xml:space="preserve">
<path d="M68.7,445l76.9-15c40.6-7.9,58.2-29.6,58.2-72.6V332l52.2-11.2l52,11.2v25.4c0,43,17.8,64.7,58.2,72.6l77.1,15  c49.8,9.5,78-21.5,65.9-70.2l-61.9-249.3c-9.2-36.1-38.5-60.3-72.4-60.3c-40,0-66.8,25.5-66.8,64v172l26.4,5.6l64.2-58  c5.8-5.2,15.9-5.1,21.3,0.9c5.6,6.2,4.9,16.1-1.1,21.3l-48.5,43.2l58.9,12.7c7.9,1.5,13.3,9.5,11.6,17.6  c-1.5,7.9-9.9,13.3-17.8,11.6L308,332v-30.7l-37.1-8V85.9c0-8.2-6.7-15.2-15-15.2c-8.2,0-15.2,6.9-15.2,15.2v207.3l-37.1,8V332  v-30.7v-172c0-38.5-26.6-64-66.6-64c-33.9,0-63.4,24.1-72.4,60.3L2.8,374.8C-9.4,423.5,18.9,454.5,68.7,445z M203.8,301.3V332  L88.7,356.3c-7.9,1.7-16.3-3.7-18-11.6c-1.5-8,3.9-16.1,11.6-17.6l58.9-12.7L93,271.1c-6-5.2-6.7-15.2-1.1-21.3  c5.2-6,15.3-6.2,21.1-0.9l64.4,58L203.8,301.3z"/>
</svg>