<?xml version="1.0" ?><!-- Generator: Adobe Illustrator 25.0.0, SVG Export Plug-In . SVG Version: 6.00 Build 0)  --><svg xmlns="http://www.w3.org/2000/svg" xmlns:xlink="http://www.w3.org/1999/xlink" version="1.1" id="Layer_1" x="0px" y="0px" viewBox="0 0 512 512" style="enable-background:new 0 0 512 512;" xml:space="preserve">
<path d="M87.3,512h337.3c58.4,0,87.3-28.9,87.3-86.2V86.2C512,28.9,483.1,0,424.7,0H87.3C29.2,0,0,28.6,0,86.2v339.6  C0,483.4,29.2,512,87.3,512z M144.6,388.8c-12.8,0-20.6-8.9-20.6-23.6V145.5c0-15.9,10.8-26.7,27-26.7c13.9,0,23.1,6.4,28.1,18.6  l76.5,190.5h1.4l75.9-190.5c5.3-12.2,14.5-18.6,28.4-18.6c15.9,0,27,10.8,27,26.7v219.7c0,15-7.8,23.6-21.4,23.6  c-12.5,0-20.3-8.9-20.3-23.6V200.2H344l-66.2,164.6c-4.2,10.3-11.4,15-22,15c-10.6,0-17.5-4.7-22-15l-65.6-164.6h-2.5v164.9  C165.8,380.2,157.7,388.8,144.6,388.8z"/>
</svg>