<?xml version="1.0" encoding="UTF-8"?>
<!--Generator: Apple Native CoreSVG 326-->
<!DOCTYPE svg
PUBLIC "-//W3C//DTD SVG 1.1//EN"
       "http://www.w3.org/Graphics/SVG/1.1/DTD/svg11.dtd">
<svg version="1.1" xmlns="http://www.w3.org/2000/svg" xmlns:xlink="http://www.w3.org/1999/xlink" viewBox="0 0 29.6387 22.2949">
 <g>
  <rect height="22.2949" opacity="0" width="29.6387" x="0" y="0"/>
  <path d="M29.2773 9.23828L29.2773 13.0371C29.2773 19.6094 26.8164 22.2754 19.6777 22.2754L9.59961 22.2754C2.46094 22.2754 0 19.6094 0 13.0371L0 9.23828C0 2.66602 2.46094 0 9.59961 0L19.6777 0C26.8164 0 29.2773 2.66602 29.2773 9.23828ZM13.5742 6.75781L11.6504 14.1895L11.5918 14.1895L9.63867 6.75781C9.48242 6.10352 9.0918 5.78125 8.4668 5.78125C7.74414 5.78125 7.29492 6.2207 7.29492 6.95312L7.29492 15.752C7.29492 16.2305 7.58789 16.543 8.03711 16.543C8.48633 16.543 8.7793 16.2305 8.7793 15.752L8.7793 8.37891L8.85742 8.37891L10.752 15.5762C10.8789 16.0352 11.1523 16.3672 11.6211 16.3672C12.1094 16.3672 12.3535 16.0449 12.4707 15.5664L14.3848 8.37891L14.4531 8.37891L14.4531 15.752C14.4531 16.2402 14.7266 16.543 15.1953 16.543C15.6738 16.543 15.9375 16.2305 15.9375 15.752L15.9375 6.95312C15.9375 6.19141 15.4883 5.78125 14.7559 5.78125C14.1016 5.78125 13.7305 6.10352 13.5742 6.75781ZM19.3066 6.23047L17.8027 7.43164C17.5977 7.58789 17.4414 7.80273 17.4414 8.0957C17.4414 8.45703 17.6758 8.71094 18.0273 8.71094C18.2129 8.71094 18.3203 8.65234 18.4473 8.55469L19.7266 7.5293L19.7266 15.6543C19.7266 16.123 20.0977 16.4941 20.5664 16.4941C21.0059 16.4941 21.377 16.123 21.377 15.6543L21.377 6.68945C21.377 6.11328 21.0156 5.76172 20.4297 5.76172C19.9609 5.76172 19.5801 6.02539 19.3066 6.23047Z" fill="black" fill-opacity="0.85"/>
 </g>
</svg>
