<?xml version="1.0" encoding="UTF-8"?>
<!--Generator: Apple Native CoreSVG 326-->
<!DOCTYPE svg
PUBLIC "-//W3C//DTD SVG 1.1//EN"
       "http://www.w3.org/Graphics/SVG/1.1/DTD/svg11.dtd">
<svg version="1.1" xmlns="http://www.w3.org/2000/svg" xmlns:xlink="http://www.w3.org/1999/xlink" viewBox="0 0 29.6387 22.2949">
 <g>
  <rect height="22.2949" opacity="0" width="29.6387" x="0" y="0"/>
  <path d="M9.59961 22.2754L19.6777 22.2754C26.8164 22.2754 29.2773 19.6094 29.2773 13.0371L29.2773 9.23828C29.2773 2.66602 26.8164 0 19.6777 0L9.59961 0C2.46094 0 0 2.66602 0 9.23828L0 13.0371C0 19.6094 2.46094 22.2754 9.59961 22.2754ZM9.59961 20.5469C3.61328 20.5469 1.72852 18.5352 1.72852 13.0371L1.72852 9.23828C1.72852 3.74023 3.61328 1.73828 9.59961 1.73828L19.6777 1.73828C25.6641 1.73828 27.5488 3.74023 27.5488 9.23828L27.5488 13.0371C27.5488 18.5352 25.6641 20.5469 19.6777 20.5469Z" fill="black" fill-opacity="0.85"/>
  <path d="M8.19336 16.416C8.63281 16.416 8.91602 16.1133 8.91602 15.6445L8.91602 8.42773L8.98438 8.42773L10.8496 15.4785C10.9668 15.918 11.2305 16.2305 11.6895 16.2305C12.168 16.2305 12.4023 15.9277 12.5293 15.4688L14.3945 8.42773L14.4629 8.42773L14.4629 15.6445C14.4629 16.123 14.7266 16.416 15.1758 16.416C15.6445 16.416 15.8887 16.1035 15.8887 15.6445L15.8887 7.04102C15.8887 6.30859 15.459 5.9082 14.7559 5.9082C14.1211 5.9082 13.7598 6.2207 13.6035 6.85547L11.7188 14.1309L11.6602 14.1309L9.74609 6.85547C9.58984 6.2207 9.21875 5.9082 8.61328 5.9082C7.91016 5.9082 7.4707 6.33789 7.4707 7.04102L7.4707 15.6445C7.4707 16.1035 7.75391 16.416 8.19336 16.416ZM20.4102 16.3672C20.8398 16.3672 21.2012 16.0059 21.2012 15.5566L21.2012 6.78711C21.2012 6.23047 20.8496 5.89844 20.2832 5.89844C19.8242 5.89844 19.4531 6.14258 19.1895 6.35742L17.7051 7.51953C17.5098 7.67578 17.3633 7.88086 17.3633 8.16406C17.3633 8.51562 17.5977 8.75977 17.9395 8.75977C18.1152 8.75977 18.2227 8.70117 18.3398 8.61328L19.5996 7.60742L19.5996 15.5566C19.5996 16.0059 19.9609 16.3672 20.4102 16.3672Z" fill="black" fill-opacity="0.85"/>
 </g>
</svg>
