<?xml version="1.0" encoding="UTF-8"?>
<!--Generator: Apple Native CoreSVG 326-->
<!DOCTYPE svg
PUBLIC "-//W3C//DTD SVG 1.1//EN"
       "http://www.w3.org/Graphics/SVG/1.1/DTD/svg11.dtd">
<svg version="1.1" xmlns="http://www.w3.org/2000/svg" xmlns:xlink="http://www.w3.org/1999/xlink" viewBox="0 0 29.6387 22.2949">
 <g>
  <rect height="22.2949" opacity="0" width="29.6387" x="0" y="0"/>
  <path d="M9.59961 22.2754L19.6777 22.2754C26.8164 22.2754 29.2773 19.6094 29.2773 13.0371L29.2773 9.23828C29.2773 2.66602 26.8164 0 19.6777 0L9.59961 0C2.46094 0 0 2.66602 0 9.23828L0 13.0371C0 19.6094 2.46094 22.2754 9.59961 22.2754ZM9.59961 20.5469C3.61328 20.5469 1.72852 18.5352 1.72852 13.0371L1.72852 9.23828C1.72852 3.74023 3.61328 1.73828 9.59961 1.73828L19.6777 1.73828C25.6641 1.73828 27.5488 3.74023 27.5488 9.23828L27.5488 13.0371C27.5488 18.5352 25.6641 20.5469 19.6777 20.5469Z" fill="black" fill-opacity="0.85"/>
  <path d="M7.36328 16.416C7.80273 16.416 8.08594 16.1133 8.08594 15.6445L8.08594 8.42773L8.1543 8.42773L10.0293 15.4785C10.1367 15.918 10.4004 16.2305 10.8691 16.2305C11.3379 16.2305 11.582 15.9277 11.6992 15.4688L13.5645 8.42773L13.6328 8.42773L13.6328 15.6445C13.6328 16.123 13.8965 16.416 14.3457 16.416C14.8145 16.416 15.0684 16.1035 15.0684 15.6445L15.0684 7.04102C15.0684 6.30859 14.6387 5.9082 13.9258 5.9082C13.291 5.9082 12.9297 6.2207 12.7734 6.85547L10.8984 14.1309L10.8301 14.1309L8.92578 6.85547C8.76953 6.2207 8.38867 5.9082 7.79297 5.9082C7.08008 5.9082 6.65039 6.33789 6.65039 7.04102L6.65039 15.6445C6.65039 16.1035 6.93359 16.416 7.36328 16.416ZM19.8047 16.4453C21.5527 16.4453 22.8906 15.3125 22.8906 13.4375C22.8906 11.9238 22.0117 11.0938 20.8984 10.9766L20.8984 10.9375C22.041 10.6348 22.5879 9.61914 22.5879 8.54492C22.5879 6.85547 21.3574 5.84961 19.7559 5.84961C18.4668 5.84961 17.4121 6.58203 17.0605 7.69531C16.9922 7.93945 16.9629 8.16406 16.9629 8.36914C16.9629 8.73047 17.207 9.02344 17.6367 9.02344C18.0273 9.02344 18.2324 8.86719 18.3398 8.47656C18.5352 7.68555 18.9648 7.12891 19.7559 7.12891C20.6445 7.12891 21.0938 7.83203 21.0938 8.73047C21.0938 9.69727 20.5273 10.4199 19.541 10.4199L19.1797 10.4199C18.7891 10.4199 18.5645 10.6543 18.5645 11.0156C18.5645 11.377 18.8086 11.6016 19.1797 11.6016L19.5508 11.6016C20.6836 11.6016 21.3184 12.2266 21.3184 13.3984C21.3184 14.3359 20.8203 15.1465 19.8047 15.1465C18.8281 15.1465 18.3594 14.4629 18.2129 13.8281C18.1152 13.457 17.8809 13.2617 17.5098 13.2617C17.0801 13.2617 16.7969 13.5254 16.7969 13.9551C16.7969 14.1699 16.8359 14.4141 16.8945 14.6094C17.2559 15.7617 18.457 16.4453 19.8047 16.4453Z" fill="black" fill-opacity="0.85"/>
 </g>
</svg>
