<?xml version="1.0" encoding="UTF-8"?>
<!--Generator: Apple Native CoreSVG 326-->
<!DOCTYPE svg
PUBLIC "-//W3C//DTD SVG 1.1//EN"
       "http://www.w3.org/Graphics/SVG/1.1/DTD/svg11.dtd">
<svg version="1.1" xmlns="http://www.w3.org/2000/svg" xmlns:xlink="http://www.w3.org/1999/xlink" viewBox="0 0 29.6387 22.2949">
 <g>
  <rect height="22.2949" opacity="0" width="29.6387" x="0" y="0"/>
  <path d="M29.2773 9.23828L29.2773 13.0371C29.2773 19.6094 26.8164 22.2754 19.6777 22.2754L9.59961 22.2754C2.46094 22.2754 0 19.6094 0 13.0371L0 9.23828C0 2.66602 2.46094 0 9.59961 0L19.6777 0C26.8164 0 29.2773 2.66602 29.2773 9.23828ZM12.5488 6.75781L10.6348 14.1895L10.5664 14.1895L8.63281 6.75781C8.4668 6.10352 8.07617 5.78125 7.46094 5.78125C6.72852 5.78125 6.2793 6.2207 6.2793 6.95312L6.2793 15.752C6.2793 16.2305 6.57227 16.543 7.01172 16.543C7.4707 16.543 7.76367 16.2305 7.76367 15.752L7.76367 8.37891L7.83203 8.37891L9.74609 15.5762C9.85352 16.0352 10.127 16.3672 10.6055 16.3672C11.0938 16.3672 11.3477 16.0449 11.4648 15.5664L13.3789 8.37891L13.4375 8.37891L13.4375 15.752C13.4375 16.2402 13.7207 16.543 14.1699 16.543C14.6582 16.543 14.9219 16.2305 14.9219 15.752L14.9219 6.95312C14.9219 6.19141 14.4727 5.78125 13.75 5.78125C13.0859 5.78125 12.7148 6.10352 12.5488 6.75781ZM19.375 6.88477L16.875 12.1875C16.6895 12.627 16.6113 12.9199 16.6113 13.2812C16.6113 13.8379 17.002 14.2188 17.5684 14.2188L20.5762 14.2188L20.5762 15.6934C20.5762 16.2891 20.9863 16.5234 21.3672 16.5234C21.7871 16.5234 22.1387 16.2402 22.1387 15.6934L22.1387 14.2188L22.6855 14.2188C23.125 14.2188 23.3398 13.9355 23.3398 13.5449C23.3398 13.1738 23.125 12.8906 22.6855 12.8906L22.1387 12.8906L22.1387 6.99219C22.1387 6.17188 21.6016 5.76172 20.8789 5.76172C20.0781 5.76172 19.707 6.17188 19.375 6.88477ZM20.6055 12.9199L18.0273 12.9199L18.0273 12.8516L20.5566 7.24609L20.6055 7.24609Z" fill="black" fill-opacity="0.85"/>
 </g>
</svg>
