<?xml version="1.0" encoding="UTF-8"?>
<!--Generator: Apple Native CoreSVG 326-->
<!DOCTYPE svg
PUBLIC "-//W3C//DTD SVG 1.1//EN"
       "http://www.w3.org/Graphics/SVG/1.1/DTD/svg11.dtd">
<svg version="1.1" xmlns="http://www.w3.org/2000/svg" xmlns:xlink="http://www.w3.org/1999/xlink" viewBox="0 0 36.0449 27.9126">
 <g>
  <rect height="27.9126" opacity="0" width="36.0449" x="0" y="0"/>
  <path d="M6.47627 5.75242C6.00723 5.9277 5.77148 6.33768 5.77148 6.98853L5.77148 21.4124L22.1167 21.4124L24.7111 24.01L1.2793 24.01C0.566406 24.01 0 23.4338 0 22.7112C0 21.9885 0.566406 21.4124 1.2793 21.4124L4.04297 21.4124L4.04297 6.52955C4.04297 5.48718 4.40575 4.75011 5.05916 4.33354ZM10.8567 3.92212L29.0137 3.92212C30.7324 3.92212 31.6406 4.8108 31.6406 6.52955L31.6406 21.4124L34.4043 21.4124C35.1172 21.4124 35.6836 21.9885 35.6836 22.7112C35.6836 23.4338 35.1172 24.01 34.4043 24.01L30.9279 24.01L28.3324 21.4124L29.9121 21.4124L29.9121 6.98853C29.9121 6.09009 29.4629 5.65064 28.5742 5.65064L21.1816 5.65064C20.9863 5.65064 20.8887 5.7483 20.8887 5.93384L20.8887 6.08033C20.8887 6.56861 20.5762 6.90064 20.0879 6.90064L15.625 6.90064C15.127 6.90064 14.8047 6.56861 14.8047 6.08033L14.8047 5.93384C14.8047 5.7483 14.707 5.65064 14.5215 5.65064L12.5838 5.65064Z" fill="black" fill-opacity="0.85"/>
  <path d="M28.9355 26.3049C29.2578 26.637 29.7949 26.637 30.1172 26.3049C30.4395 25.9827 30.4492 25.4553 30.127 25.1331L6.65039 1.63697C6.33789 1.3147 5.81055 1.29517 5.46875 1.63697C5.14648 1.95923 5.14648 2.49634 5.46875 2.81861Z" fill="black" fill-opacity="0.85"/>
 </g>
</svg>
