<?xml version="1.0" encoding="UTF-8"?>
<!--Generator: Apple Native CoreSVG 326-->
<!DOCTYPE svg
PUBLIC "-//W3C//DTD SVG 1.1//EN"
       "http://www.w3.org/Graphics/SVG/1.1/DTD/svg11.dtd">
<svg version="1.1" xmlns="http://www.w3.org/2000/svg" xmlns:xlink="http://www.w3.org/1999/xlink" viewBox="0 0 43.4961 23.877">
 <g>
  <rect height="23.877" opacity="0" width="43.4961" x="0" y="0"/>
  <path d="M33.6328 4.9707L33.6328 8.62966C32.8406 8.58813 32.0377 8.57422 31.2402 8.57422C25.2637 8.57422 18.9844 9.36523 18.9844 16.3184C18.9844 17.4172 19.1756 18.4586 19.5304 19.3945L9.50195 19.3945L9.50195 4.9707C9.50195 4.07227 9.94141 3.63281 10.8398 3.63281L32.2949 3.63281C33.1934 3.63281 33.6328 4.07227 33.6328 4.9707Z" fill="black" fill-opacity="0.2125"/>
  <path d="M35.3711 4.51172L35.3711 8.76988C34.8022 8.7037 34.2205 8.6589 33.6328 8.62966L33.6328 4.9707C33.6328 4.07227 33.1934 3.63281 32.2949 3.63281L10.8398 3.63281C9.94141 3.63281 9.50195 4.07227 9.50195 4.9707L9.50195 19.3945L19.5304 19.3945C19.9007 20.3995 20.4568 21.2847 21.1608 21.9922L5.00977 21.9922C4.29688 21.9922 3.7207 21.416 3.7207 20.6934C3.7207 19.9707 4.29688 19.3945 5.00977 19.3945L7.76367 19.3945L7.76367 4.51172C7.76367 2.79297 8.75 1.9043 10.3906 1.9043L32.7441 1.9043C34.4531 1.9043 35.3711 2.79297 35.3711 4.51172Z" fill="black" fill-opacity="0.85"/>
  <path d="M31.2402 18.3203C29.0137 18.3203 27.959 20.6836 25.5859 20.6836C23.4961 20.6836 22.168 19.0723 22.168 16.3184C22.168 12.1875 25.6152 11.7676 31.2402 11.7676C36.875 11.7676 40.3125 12.1777 40.3125 16.3184C40.3125 19.0723 38.9941 20.6836 36.8945 20.6836C34.5215 20.6836 33.457 18.3203 31.2402 18.3203Z" fill="black" fill-opacity="0.2125"/>
  <path d="M31.2402 19.9414C32.4805 19.9414 33.9355 22.3145 36.8945 22.3145C39.7754 22.3145 41.9434 19.707 41.9434 16.3184C41.9434 10.7715 37.0312 10.1367 31.2402 10.1367C25.4492 10.1367 20.5371 10.7812 20.5371 16.3184C20.5371 19.707 22.6953 22.3145 25.5859 22.3145C28.5449 22.3145 29.9902 19.9414 31.2402 19.9414ZM31.2402 18.3203C29.0137 18.3203 27.959 20.6836 25.5859 20.6836C23.4961 20.6836 22.168 19.0723 22.168 16.3184C22.168 12.1875 25.6152 11.7676 31.2402 11.7676C36.875 11.7676 40.3125 12.1777 40.3125 16.3184C40.3125 19.0723 38.9941 20.6836 36.8945 20.6836C34.5215 20.6836 33.457 18.3203 31.2402 18.3203Z" fill="black" fill-opacity="0.85"/>
 </g>
</svg>
