<?xml version="1.0" encoding="UTF-8"?>
<!--Generator: Apple Native CoreSVG 326-->
<!DOCTYPE svg
PUBLIC "-//W3C//DTD SVG 1.1//EN"
       "http://www.w3.org/Graphics/SVG/1.1/DTD/svg11.dtd">
<svg version="1.1" xmlns="http://www.w3.org/2000/svg" xmlns:xlink="http://www.w3.org/1999/xlink" viewBox="0 0 32.4414 19.0918">
 <g>
  <rect height="19.0918" opacity="0" width="32.4414" x="0" y="0"/>
  <path d="M5.13672 15.1172C5.63477 15.1172 6.03516 14.7168 6.03516 14.209L6.03516 4.79492C6.03516 4.29688 5.63477 3.90625 5.13672 3.90625C4.63867 3.90625 4.23828 4.30664 4.23828 4.79492L4.23828 14.209C4.23828 14.7168 4.62891 15.1172 5.13672 15.1172ZM9.10156 14.4629C9.64844 14.4629 10.0781 14.0137 10.0781 13.4766C10.0781 12.9395 9.64844 12.5 9.10156 12.5C8.56445 12.5 8.125 12.9395 8.125 13.4766C8.125 14.0137 8.56445 14.4629 9.10156 14.4629ZM12.5684 14.4629C13.1055 14.4629 13.5352 14.0137 13.5352 13.4766C13.5352 12.9395 13.1055 12.5 12.5684 12.5C12.0312 12.5 11.582 12.9395 11.582 13.4766C11.582 14.0137 12.0312 14.4629 12.5684 14.4629ZM16.0352 14.4629C16.5723 14.4629 17.0117 14.0137 17.0117 13.4766C17.0117 12.9395 16.5723 12.5 16.0352 12.5C15.498 12.5 15.0586 12.9395 15.0586 13.4766C15.0586 14.0137 15.498 14.4629 16.0352 14.4629ZM19.4922 14.4629C20.0195 14.4629 20.459 14.0137 20.459 13.4766C20.459 12.9395 20.0195 12.5 19.4922 12.5C18.9453 12.5 18.5156 12.9395 18.5156 13.4766C18.5156 14.0137 18.9453 14.4629 19.4922 14.4629ZM22.9395 14.4629C23.4668 14.4629 23.916 14.0137 23.916 13.4766C23.916 12.9395 23.4668 12.5 22.9395 12.5C22.4023 12.5 21.9727 12.9395 21.9727 13.4766C21.9727 14.0137 22.4023 14.4629 22.9395 14.4629ZM10.8301 10.4883C11.377 10.4883 11.8066 10.0488 11.8066 9.51172C11.8066 8.97461 11.377 8.52539 10.8301 8.52539C10.293 8.52539 9.85352 8.97461 9.85352 9.51172C9.85352 10.0488 10.293 10.4883 10.8301 10.4883ZM14.2969 10.4883C14.8438 10.4883 15.2734 10.0488 15.2734 9.51172C15.2734 8.97461 14.8438 8.52539 14.2969 8.52539C13.7598 8.52539 13.3203 8.97461 13.3203 9.51172C13.3203 10.0488 13.7598 10.4883 14.2969 10.4883ZM17.7637 10.4883C18.291 10.4883 18.7305 10.0488 18.7305 9.51172C18.7305 8.97461 18.291 8.52539 17.7637 8.52539C17.2266 8.52539 16.7773 8.97461 16.7773 9.51172C16.7773 10.0488 17.2266 10.4883 17.7637 10.4883ZM21.2109 10.4883C21.7383 10.4883 22.1777 10.0488 22.1777 9.51172C22.1777 8.97461 21.7383 8.52539 21.2109 8.52539C20.6641 8.52539 20.2441 8.97461 20.2441 9.51172C20.2441 10.0488 20.6641 10.4883 21.2109 10.4883ZM9.10156 6.52344C9.64844 6.52344 10.0781 6.08398 10.0781 5.54688C10.0781 5 9.64844 4.56055 9.10156 4.56055C8.56445 4.56055 8.125 5 8.125 5.54688C8.125 6.08398 8.56445 6.52344 9.10156 6.52344ZM12.5684 6.52344C13.1055 6.52344 13.5352 6.08398 13.5352 5.54688C13.5352 5 13.1055 4.56055 12.5684 4.56055C12.0312 4.56055 11.582 5 11.582 5.54688C11.582 6.08398 12.0312 6.52344 12.5684 6.52344ZM16.0352 6.52344C16.5723 6.52344 17.0117 6.08398 17.0117 5.54688C17.0117 5 16.5723 4.56055 16.0352 4.56055C15.498 4.56055 15.0586 5 15.0586 5.54688C15.0586 6.08398 15.498 6.52344 16.0352 6.52344ZM19.4922 6.52344C20.0195 6.52344 20.459 6.08398 20.459 5.54688C20.459 5 20.0195 4.56055 19.4922 4.56055C18.9453 4.56055 18.5156 5 18.5156 5.54688C18.5156 6.08398 18.9453 6.52344 19.4922 6.52344ZM22.9395 6.52344C23.4668 6.52344 23.916 6.08398 23.916 5.54688C23.916 5 23.4668 4.56055 22.9395 4.56055C22.4023 4.56055 21.9727 5 21.9727 5.54688C21.9727 6.08398 22.4023 6.52344 22.9395 6.52344ZM26.9043 15.1172C27.4023 15.1172 27.8027 14.7168 27.8027 14.209L27.8027 4.79492C27.8027 4.30664 27.4023 3.90625 26.9043 3.90625C26.4062 3.90625 25.9961 4.29688 25.9961 4.79492L25.9961 14.209C25.9961 14.7168 26.4062 15.1172 26.9043 15.1172ZM3.79883 19.0625L28.2715 19.0625C30.791 19.0625 32.0801 17.7832 32.0801 15.3027L32.0801 3.75977C32.0801 1.26953 30.791 0 28.2715 0L3.79883 0C1.26953 0 0 1.26953 0 3.75977L0 15.3027C0 17.793 1.26953 19.0625 3.79883 19.0625ZM3.83789 17.334C2.4707 17.334 1.72852 16.6113 1.72852 15.2051L1.72852 3.85742C1.72852 2.45117 2.4707 1.72852 3.83789 1.72852L28.2422 1.72852C29.5996 1.72852 30.3418 2.45117 30.3418 3.85742L30.3418 15.2051C30.3418 16.6113 29.5801 17.334 28.2422 17.334Z" fill="black" fill-opacity="0.85"/>
 </g>
</svg>
