<?xml version="1.0" encoding="UTF-8"?>
<!--Generator: Apple Native CoreSVG 326-->
<!DOCTYPE svg
PUBLIC "-//W3C//DTD SVG 1.1//EN"
       "http://www.w3.org/Graphics/SVG/1.1/DTD/svg11.dtd">
<svg version="1.1" xmlns="http://www.w3.org/2000/svg" xmlns:xlink="http://www.w3.org/1999/xlink" viewBox="0 0 25.8594 29.2676">
 <g>
  <rect height="29.2676" opacity="0" width="25.8594" x="0" y="0"/>
  <path d="M11.4062 18.7402C11.9727 18.7402 12.2461 18.3691 12.9297 18.3691C13.6621 18.3691 13.8281 18.7402 14.4434 18.7402C15.0879 18.7402 15.498 18.1543 15.8887 17.6074C16.3477 16.9629 16.5039 16.3281 16.5137 16.2891C16.4844 16.2695 15.2832 15.791 15.2832 14.4238C15.2832 13.2422 16.2207 12.6953 16.2793 12.666C15.6543 11.7773 14.7168 11.7383 14.4434 11.7383C13.75 11.7383 13.1836 12.168 12.8223 12.168C12.4414 12.168 11.9434 11.7773 11.3379 11.7773C10.1855 11.7773 9.02344 12.7148 9.02344 14.5215C9.02344 15.6445 9.44336 16.8066 9.99023 17.5684C10.4395 18.2129 10.8398 18.7402 11.4062 18.7402ZM12.8809 11.6602C13.291 11.6602 13.8281 11.377 14.1309 10.9961C14.4141 10.6445 14.6094 10.1758 14.6094 9.70703C14.6094 9.62891 14.6094 9.57031 14.5996 9.52148C14.1309 9.54102 13.584 9.82422 13.2324 10.2148C12.9688 10.5176 12.7441 10.9961 12.7441 11.4746C12.7441 11.543 12.7441 11.6211 12.7637 11.6309C12.7832 11.6602 12.8223 11.6602 12.8809 11.6602ZM2.41211 29.2676L4.10156 29.2676C5.03906 29.2676 5.68359 28.8281 5.95703 27.9492L6.52344 26.1621L18.9746 26.1621L19.541 27.9492C19.8145 28.8281 20.459 29.2676 21.3965 29.2676L23.0762 29.2676C24.6191 29.2676 25.498 28.3594 25.498 26.748L25.498 2.54883C25.498 0.947266 24.6191 0.0390625 23.0762 0.0390625L21.3965 0.0390625C20.459 0.0390625 19.8145 0.46875 19.541 1.35742L18.9746 3.13477L6.52344 3.13477L5.95703 1.35742C5.68359 0.46875 5.03906 0.0390625 4.10156 0.0390625L2.41211 0.0390625C0.878906 0.0390625 0 0.947266 0 2.54883L0 26.748C0 28.3594 0.878906 29.2676 2.41211 29.2676ZM2.5293 27.5293C2.04102 27.5293 1.72852 27.2266 1.72852 26.7383L1.72852 2.56836C1.72852 2.08008 2.04102 1.76758 2.5293 1.76758L3.84766 1.76758C4.11133 1.76758 4.3457 1.9043 4.43359 2.17773L5.05859 4.13086C5.21484 4.62891 5.49805 4.86328 6.09375 4.86328L19.4043 4.86328C20 4.86328 20.2832 4.62891 20.4395 4.13086L21.0645 2.17773C21.1523 1.9043 21.3867 1.76758 21.6504 1.76758L22.9688 1.76758C23.457 1.76758 23.7695 2.08008 23.7695 2.56836L23.7695 26.7383C23.7695 27.2266 23.457 27.5293 22.9688 27.5293L21.6504 27.5293C21.3867 27.5293 21.1523 27.4023 21.0645 27.1289L20.4395 25.166C20.2832 24.668 20 24.4336 19.4043 24.4336L6.09375 24.4336C5.49805 24.4336 5.21484 24.668 5.05859 25.166L4.43359 27.1289C4.3457 27.4023 4.11133 27.5293 3.84766 27.5293Z" fill="black" fill-opacity="0.85"/>
 </g>
</svg>
