<?xml version="1.0" encoding="UTF-8"?>
<!--Generator: Apple Native CoreSVG 326-->
<!DOCTYPE svg
PUBLIC "-//W3C//DTD SVG 1.1//EN"
       "http://www.w3.org/Graphics/SVG/1.1/DTD/svg11.dtd">
<svg version="1.1" xmlns="http://www.w3.org/2000/svg" xmlns:xlink="http://www.w3.org/1999/xlink" viewBox="0 0 25.8594 29.2676">
 <g>
  <rect height="29.2676" opacity="0" width="25.8594" x="0" y="0"/>
  <path d="M0 27.2266C0 28.4668 0.751953 29.2676 1.93359 29.2676L4.39453 29.2676C5.11719 29.2676 5.66406 28.9062 5.88867 28.2129L6.52344 26.1621L18.9746 26.1621L19.6094 28.2129C19.834 28.9062 20.3809 29.2676 21.1035 29.2676L23.5645 29.2676C24.7461 29.2676 25.498 28.4668 25.498 27.2266L25.498 2.07031C25.498 0.830078 24.7461 0.0390625 23.5645 0.0390625L21.1035 0.0390625C20.3809 0.0390625 19.834 0.400391 19.6094 1.08398L18.9746 3.13477L6.52344 3.13477L5.88867 1.08398C5.66406 0.400391 5.11719 0.0390625 4.39453 0.0390625L1.93359 0.0390625C0.751953 0.0390625 0 0.830078 0 2.07031ZM11.3672 18.8574C10.791 18.8574 10.3809 18.3203 9.91211 17.6562C9.35547 16.875 8.92578 15.6836 8.92578 14.5312C8.92578 12.6758 10.1172 11.7188 11.2988 11.7188C11.9238 11.7188 12.4316 12.1191 12.8223 12.1191C13.1934 12.1191 13.7793 11.6797 14.4824 11.6797C14.7656 11.6797 15.7324 11.7188 16.3672 12.627C16.3086 12.6562 15.3516 13.2227 15.3516 14.4336C15.3516 15.8301 16.582 16.3281 16.6113 16.3477C16.6016 16.3867 16.4355 17.0312 15.9668 17.6953C15.5664 18.2617 15.1465 18.8574 14.4824 18.8574C13.8574 18.8574 13.6816 18.4863 12.9297 18.4863C12.2363 18.4863 11.9531 18.8574 11.3672 18.8574ZM12.8809 11.6016C12.8223 11.6016 12.7832 11.5918 12.7637 11.5625C12.7441 11.5527 12.7441 11.4746 12.7441 11.4062C12.7441 10.918 12.9688 10.4102 13.2422 10.1074C13.6035 9.7168 14.1699 9.42383 14.6484 9.4043C14.6582 9.45312 14.6582 9.51172 14.6582 9.58984C14.6582 10.0781 14.4531 10.5566 14.1699 10.918C13.8574 11.3086 13.3008 11.6016 12.8809 11.6016Z" fill="black" fill-opacity="0.85"/>
 </g>
</svg>
