<?xml version="1.0" encoding="UTF-8"?>
<!--Generator: Apple Native CoreSVG 326-->
<!DOCTYPE svg
PUBLIC "-//W3C//DTD SVG 1.1//EN"
       "http://www.w3.org/Graphics/SVG/1.1/DTD/svg11.dtd">
<svg version="1.1" xmlns="http://www.w3.org/2000/svg" xmlns:xlink="http://www.w3.org/1999/xlink" viewBox="0 0 25.8594 32.4121">
 <g>
  <rect height="32.4121" opacity="0" width="25.8594" x="0" y="0"/>
  <path d="M11.4062 19.5117C11.9727 19.5117 12.2363 19.1406 12.9297 19.1406C13.6523 19.1406 13.8184 19.5117 14.4434 19.5117C15.0781 19.5117 15.4883 18.916 15.8789 18.3691C16.3379 17.7344 16.4941 17.0898 16.5137 17.0508C16.4746 17.041 15.2734 16.5625 15.2734 15.1953C15.2734 14.0137 16.2207 13.4668 16.2793 13.4375C15.6445 12.5391 14.7168 12.5098 14.4434 12.5098C13.7402 12.5098 13.1836 12.9395 12.8223 12.9395C12.4316 12.9395 11.9336 12.5391 11.3281 12.5391C10.1758 12.5391 9.01367 13.4863 9.01367 15.2832C9.01367 16.4062 9.44336 17.5781 9.98047 18.3398C10.4395 18.9746 10.8301 19.5117 11.4062 19.5117ZM12.8809 12.4316C13.291 12.4316 13.8184 12.1387 14.1211 11.7676C14.4141 11.416 14.6094 10.9473 14.6094 10.4688C14.6094 10.4004 14.6094 10.3418 14.5898 10.293C14.1211 10.3125 13.5742 10.5957 13.2324 10.9766C12.959 11.2793 12.7441 11.7676 12.7441 12.2363C12.7441 12.3145 12.7441 12.3926 12.7539 12.4023C12.7734 12.4219 12.8223 12.4316 12.8809 12.4316ZM3.79883 27.334L21.6992 27.334C24.209 27.334 25.498 26.0547 25.498 23.5645L25.498 7.26562C25.498 4.77539 24.209 3.50586 21.6992 3.50586L3.79883 3.50586C1.26953 3.50586 0 4.77539 0 7.26562L0 23.5645C0 26.0645 1.26953 27.334 3.79883 27.334ZM3.83789 25.5957C2.4707 25.5957 1.72852 24.873 1.72852 23.4766L1.72852 7.36328C1.72852 5.95703 2.4707 5.23438 3.83789 5.23438L21.6602 5.23438C23.0273 5.23438 23.7695 5.95703 23.7695 7.36328L23.7695 23.4766C23.7695 24.873 22.998 25.5957 21.6602 25.5957ZM3.31055 31.0156L7.7832 31.0156C8.26172 31.0156 8.63281 30.6348 8.63281 30.166C8.63281 29.6875 8.26172 29.3066 7.7832 29.3066L3.31055 29.3066C2.83203 29.3066 2.46094 29.6875 2.46094 30.166C2.46094 30.6348 2.83203 31.0156 3.31055 31.0156ZM4.69727 30.0781L6.39648 30.0781L6.39648 26.4453L4.69727 26.4453ZM17.7148 31.0156L22.1875 31.0156C22.6562 31.0156 23.0371 30.6348 23.0371 30.166C23.0371 29.6875 22.6562 29.3066 22.1875 29.3066L17.7148 29.3066C17.2363 29.3066 16.8652 29.6875 16.8652 30.166C16.8652 30.6348 17.2363 31.0156 17.7148 31.0156ZM19.1016 30.0781L20.8008 30.0781L20.8008 26.4453L19.1016 26.4453ZM4.69727 4.35547L6.39648 4.35547L6.39648 0.849609C6.39648 0.380859 6.02539 0 5.55664 0C5.06836 0 4.69727 0.380859 4.69727 0.849609ZM19.1016 4.35547L20.8008 4.35547L20.8008 0.849609C20.8008 0.380859 20.4297 0 19.9512 0C19.4727 0 19.1016 0.380859 19.1016 0.849609Z" fill="black" fill-opacity="0.85"/>
 </g>
</svg>
