<?xml version="1.0" encoding="UTF-8"?>
<!--Generator: Apple Native CoreSVG 326-->
<!DOCTYPE svg
PUBLIC "-//W3C//DTD SVG 1.1//EN"
       "http://www.w3.org/Graphics/SVG/1.1/DTD/svg11.dtd">
<svg version="1.1" xmlns="http://www.w3.org/2000/svg" xmlns:xlink="http://www.w3.org/1999/xlink" viewBox="0 0 30.9863 16.3965">
 <g>
  <rect height="16.3965" opacity="0" width="30.9863" x="0" y="0"/>
  <path d="M3.79883 16.2891L26.8262 16.2891C29.3457 16.2891 30.625 15.0098 30.625 12.5195L30.625 3.75977C30.625 1.26953 29.3457 0 26.8262 0L3.79883 0C1.26953 0 0 1.25977 0 3.75977L0 12.5195C0 15.0195 1.26953 16.2891 3.79883 16.2891ZM3.83789 14.5508C2.4707 14.5508 1.72852 13.8281 1.72852 12.4316L1.72852 3.84766C1.72852 2.45117 2.4707 1.72852 3.83789 1.72852L26.7871 1.72852C28.125 1.72852 28.8965 2.45117 28.8965 3.84766L28.8965 12.4316C28.8965 13.8281 28.125 14.5508 26.7871 14.5508ZM4.63867 12.5098C5.04883 12.5 5.36133 12.1777 5.36133 11.7969L5.36133 9.61914C5.36133 9.20898 5.03906 8.89648 4.63867 8.90625C4.24805 8.89648 3.92578 9.20898 3.92578 9.61914L3.92578 11.7871C3.92578 12.1875 4.23828 12.5 4.63867 12.5098ZM7.54883 12.5098C7.94922 12.5 8.26172 12.1777 8.26172 11.7969L8.26172 9.61914C8.26172 9.20898 7.93945 8.89648 7.54883 8.90625C7.14844 8.89648 6.82617 9.20898 6.82617 9.61914L6.82617 11.7871C6.82617 12.1875 7.13867 12.5 7.54883 12.5098ZM10.7422 11.4258L15.8594 11.4258C16.25 11.4258 16.5723 11.1035 16.5723 10.7031C16.5723 10.3125 16.25 9.99023 15.8594 9.99023L10.7422 9.99023C10.3418 9.99023 10.0195 10.3125 10.0195 10.7031C10.0195 11.1035 10.3418 11.4258 10.7422 11.4258ZM25.3711 12.1582C26.1426 12.1387 26.7969 11.4941 26.7969 10.7227C26.7969 9.93164 26.1426 9.26758 25.3711 9.26758C24.5996 9.26758 23.9258 9.93164 23.9258 10.7227C23.9258 11.4941 24.5996 12.168 25.3711 12.1582Z" fill="black" fill-opacity="0.85"/>
 </g>
</svg>
