<?xml version="1.0" encoding="UTF-8"?>
<!--Generator: Apple Native CoreSVG 326-->
<!DOCTYPE svg
PUBLIC "-//W3C//DTD SVG 1.1//EN"
       "http://www.w3.org/Graphics/SVG/1.1/DTD/svg11.dtd">
<svg version="1.1" xmlns="http://www.w3.org/2000/svg" xmlns:xlink="http://www.w3.org/1999/xlink" viewBox="0 0 31.4258 25.0879">
 <g>
  <rect height="25.0879" opacity="0" width="31.4258" x="0" y="0"/>
  <path d="M25 3.75977L25 5.61523L23.2715 5.61523L23.2715 3.85742C23.2715 2.45117 22.5 1.72852 21.1621 1.72852L3.83789 1.72852C2.4707 1.72852 1.72852 2.45117 1.72852 3.85742L1.72852 15.6152C1.72852 17.0215 2.5 17.7441 3.83789 17.7441L6.06445 17.7441L6.06445 19.4727L3.79883 19.4727C1.26953 19.4727 0 18.2129 0 15.7129L0 3.75977C0 1.26953 1.26953 0 3.79883 0L21.2012 0C23.7109 0 25 1.26953 25 3.75977Z" fill="black" fill-opacity="0.85"/>
  <path d="M9.86328 25.0879L27.2559 25.0879C29.7754 25.0879 31.0645 23.8086 31.0645 21.3281L31.0645 9.375C31.0645 6.89453 29.7754 5.61523 27.2559 5.61523L9.86328 5.61523C7.33398 5.61523 6.06445 6.88477 6.06445 9.375L6.06445 21.3281C6.06445 23.8281 7.33398 25.0879 9.86328 25.0879ZM9.86328 9.72656C9.28711 9.72656 8.81836 9.22852 8.81836 8.68164C8.81836 8.125 9.28711 7.62695 9.86328 7.62695C10.4395 7.62695 10.918 8.125 10.918 8.68164C10.918 9.22852 10.4395 9.72656 9.86328 9.72656ZM13.291 9.72656C12.7148 9.72656 12.2461 9.23828 12.2461 8.68164C12.2461 8.125 12.7148 7.62695 13.291 7.62695C13.8672 7.62695 14.3457 8.125 14.3457 8.68164C14.3457 9.23828 13.8672 9.72656 13.291 9.72656ZM16.7188 9.7168C16.1426 9.7168 15.6738 9.23828 15.6738 8.68164C15.6738 8.125 16.1426 7.62695 16.7188 7.62695C17.2949 7.62695 17.7637 8.125 17.7637 8.68164C17.7637 9.23828 17.2949 9.7168 16.7188 9.7168ZM9.89258 23.3594C8.53516 23.3594 7.79297 22.6367 7.79297 21.2402L7.79297 11.7383L29.3262 11.7383L29.3262 21.2402C29.3262 22.6367 28.5645 23.3594 27.2266 23.3594Z" fill="black" fill-opacity="0.85"/>
 </g>
</svg>
