<?xml version="1.0" ?><!-- Generator: Adobe Illustrator 25.0.0, SVG Export Plug-In . SVG Version: 6.00 Build 0)  --><svg xmlns="http://www.w3.org/2000/svg" xmlns:xlink="http://www.w3.org/1999/xlink" version="1.1" id="Layer_1" x="0px" y="0px" viewBox="0 0 512 512" style="enable-background:new 0 0 512 512;" xml:space="preserve">
<path d="M0,388.6c0,44.9,22.8,67.3,68.2,67.3h375.6c45.6,0,68.2-22.6,68.2-67.3V123.4c0-44.7-22.6-67.3-68.2-67.3H68.2  C22.8,56.1,0,78.5,0,123.4V388.6z M68.8,130.2c-10.6,0-19.3-9.1-19.3-19.3c0-10.2,8.7-19.3,19.3-19.3s19.5,9.1,19.5,19.3  C88.4,121.1,79.5,130.2,68.8,130.2z M131.1,130.2c-10.6,0-19.3-9.1-19.3-19.3c0-10.2,8.7-19.3,19.3-19.3c10.6,0,19.5,9.1,19.5,19.3  C150.7,121.1,141.8,130.2,131.1,130.2z M193.5,130.2c-10.6,0-19.3-9.1-19.3-19.3c0-10.2,8.7-19.3,19.3-19.3  c10.6,0,19.3,9.1,19.3,19.3C212.8,121.1,204.1,130.2,193.5,130.2z M35,386.8V165.6H477v221.3c0,22.6-12.2,34.1-33.7,34.1H68.6  C46.9,420.9,35,409.4,35,386.8z"/>
</svg>