<?xml version="1.0" ?><!-- Generator: Adobe Illustrator 25.0.0, SVG Export Plug-In . SVG Version: 6.00 Build 0)  --><svg xmlns="http://www.w3.org/2000/svg" xmlns:xlink="http://www.w3.org/1999/xlink" version="1.1" id="Layer_1" x="0px" y="0px" viewBox="0 0 512 512" style="enable-background:new 0 0 512 512;" xml:space="preserve">
<path d="M64.8,450c0,8.4,1.3,15.4,3.9,21c2.6,5.5,7.9,10.3,15.9,14.2c18.8,8.2,40.9,14.7,66.3,19.5c25.4,4.9,53.6,7.3,84.4,7.3  c15.3,0,30.9-0.6,46.9-1.9c15.9-1.2,31.7-3.2,47.3-5.8c15.6-2.6,30.6-6,45.1-10.3c14.5-4.2,27.8-9.3,40.1-15.3  c13.1-6.3,21.8-13,26.1-20.1c4.3-7.1,6.4-17.5,6.4-31V92.4c0-34.4-16.6-51.5-49.8-51.5h-20.5v-8.7c0-10.8-2.6-18.8-7.9-24.1  c-5.2-5.3-12.7-8-22.3-8c-3.3,0-7,0.4-10.9,1.2c-3.9,0.8-8.2,1.9-12.9,3.4c-33.1,10.8-65.6,19.4-97.6,25.8  c-32,6.4-67.3,9.6-105.9,9.6h-17.5c-11.8,0-20.9,3.2-27.4,9.5c-6.5,6.3-9.7,14.9-9.7,25.7V450z M142.3,205.5v-73.8  c0-3.6,1.7-5.6,5.2-5.9c25.3-0.9,49.7-3.6,73-8.3c23.3-4.7,46.6-11.2,69.9-19.7c1.3-0.6,2.8-0.5,4.6,0.2c1.7,0.7,2.6,2.4,2.6,5v77.1  c0,2.2-1,3.7-3.1,4.6c-13.5,5.5-28.3,10.2-44.3,14.1c-16,3.9-32.7,6.8-50.1,8.8s-34.9,3.1-52.5,3.1  C144.1,210.8,142.3,209,142.3,205.5z M153.4,474.6c21.6-0.6,42.5-2.4,62.8-5.6c20.3-3.1,39.5-7.3,57.7-12.6  c18.1-5.2,34.7-11.4,49.7-18.3c15-7,27.9-14.6,38.7-22.9c5.1-3.8,8.8-8.1,11.1-13c2.3-4.9,3.5-12.1,3.5-21.7V76h20.8  c9.6,0,14.4,5.5,14.4,16.4v332.9c0,6.6-0.8,11.4-2.5,14.6c-1.7,3.2-5.6,6.1-11.9,8.7c-14.4,6.3-30.5,11.8-48.4,16.5  c-17.8,4.7-36.5,8.4-55.9,10.9c-19.4,2.5-38.8,3.8-58,3.8c-13.7,0-27.2-0.4-40.6-1.2C181.3,477.9,167.6,476.5,153.4,474.6z"/>
</svg>