<?xml version="1.0" ?><!-- Generator: Adobe Illustrator 25.0.0, SVG Export Plug-In . SVG Version: 6.00 Build 0)  --><svg xmlns="http://www.w3.org/2000/svg" xmlns:xlink="http://www.w3.org/1999/xlink" version="1.1" id="Layer_1" x="0px" y="0px" viewBox="0 0 512 512" style="enable-background:new 0 0 512 512;" xml:space="preserve">
<path d="M372.8,76h24.9c9.6,0,14.4,5.5,14.4,16.4v332.9c0,6.6-0.8,11.4-2.5,14.6c-1.7,3.2-5.6,6.1-11.9,8.7  c-14.4,6.3-30.5,11.8-48.4,16.5c-17.8,4.7-36.5,8.4-55.9,10.9c-19.4,2.5-38.8,3.8-58,3.8c-16.9,0-33.5-0.6-49.8-1.7  c-16.3-1.2-32.8-3.2-49.6-6.1v2.8c23.2,0.3,45.8-0.9,67.8-3.7c22.1-2.8,42.8-6.7,62.3-11.9c19.4-5.2,36.9-11.2,52.4-18  c15.5-6.8,28.3-14.1,38.3-21.8c7.9-5.8,13.2-11.4,15.9-16.6c2.8-5.2,4.2-12.7,4.2-22.3V32.1c0-10.8-2.6-18.8-7.9-24.1  c-5.2-5.3-12.7-8-22.3-8c-3.3,0-7,0.4-10.9,1.2c-3.9,0.8-8.2,1.9-12.9,3.4c-33.1,10.8-65.6,19.4-97.6,25.8  c-32,6.4-67.3,9.6-105.9,9.6h-17.5c-11.8,0-20.9,3.2-27.4,9.5c-6.5,6.3-9.7,14.9-9.7,25.7V450c0,8.4,1.3,15.4,3.9,21  c2.6,5.5,7.9,10.3,15.9,14.2c18.8,8.2,41.4,14.7,67.9,19.5c26.5,4.9,54.1,7.3,82.8,7.3c15.3,0,30.9-0.6,46.9-1.9  c15.9-1.2,31.7-3.2,47.3-5.8c15.6-2.6,30.6-6,45.1-10.3c14.5-4.2,27.8-9.3,40.1-15.3c13.1-6.3,21.8-13,26.1-20.1  c4.3-7.1,6.4-17.5,6.4-31V92.4c0-34.4-16.6-51.5-49.8-51.5h-24.7V76z M99.9,433.6V84.5c0-6.6,3-9.8,9-9.8h12  c38.2,0,74.8-3.3,110.1-10c35.2-6.7,68.2-14.9,98.7-24.5c3.6-1.2,6.6-1.2,8.7-0.2c2.2,1,3.3,3.2,3.3,6.6v326.3  c0,6-0.7,10.5-2.2,13.7c-1.5,3.1-5,6.5-10.5,10.2c-11.4,7.6-24.5,14.3-39.3,20.3c-14.9,6-31.5,11-50,15s-38.7,6.8-60.7,8.5  c-22,1.7-45.8,2-71.4,1C102.5,441.2,99.9,438.5,99.9,433.6z M144.5,132.4V204c0,3.3,1.7,5,5.2,5c17,0,34-1,50.9-2.9  c16.9-2,33.1-4.8,48.7-8.5s29.9-8.2,43-13.4c2-1,3.1-2.6,3.1-4.8v-74.7c0-2.5-0.9-4.1-2.6-4.8c-1.7-0.7-3.2-0.8-4.4-0.2  c-22.6,8.2-45.2,14.5-67.8,19c-22.6,4.5-46.3,7.2-70.9,8.1C146.2,127,144.5,128.9,144.5,132.4z"/>
</svg>