<?xml version="1.0" encoding="UTF-8"?>
<!--Generator: Apple Native CoreSVG 326-->
<!DOCTYPE svg
PUBLIC "-//W3C//DTD SVG 1.1//EN"
       "http://www.w3.org/Graphics/SVG/1.1/DTD/svg11.dtd">
<svg version="1.1" xmlns="http://www.w3.org/2000/svg" xmlns:xlink="http://www.w3.org/1999/xlink" viewBox="0 0 15.5007 28.0566">
 <g>
  <rect height="28.0566" opacity="0" width="15.5007" x="0" y="0"/>
  <path d="M7.57455 28.0371C11.8812 28.0371 14.43 25.957 14.8011 21.7969C15.2699 16.582 15.2601 11.6016 14.7816 6.04492C14.4398 2.08008 11.8812 0 7.57455 0C3.25814 0 0.709315 2.08008 0.357753 6.04492C-0.110997 11.6016-0.120763 16.582 0.338221 21.7969C0.719081 25.957 3.25814 28.0371 7.57455 28.0371ZM7.56478 23.1641C7.17416 23.1641 7.03744 23.3594 6.73471 23.3594C6.42221 23.3594 6.22689 23.0762 5.98275 22.7246C5.68978 22.3145 5.46517 21.6895 5.46517 21.0938C5.46517 20.1465 6.09017 19.6484 6.70541 19.6484C7.01791 19.6484 7.24252 19.834 7.50619 19.834C7.7601 19.834 7.97494 19.6484 8.37533 19.6484C8.51205 19.6484 9.01986 19.6484 9.34213 20.0977C9.31283 20.1367 8.82455 20.4102 8.82455 21.0547C8.82455 21.7773 9.44955 22.0215 9.45932 22.0312C9.45932 22.0508 9.37142 22.4023 9.13705 22.7441C8.91244 23.0469 8.6976 23.3594 8.37533 23.3594C8.0433 23.3594 7.94564 23.1641 7.56478 23.1641ZM7.45736 19.5703C7.45736 18.9062 7.92611 18.4082 8.43392 18.4082C8.54135 18.9648 8.0433 19.5996 7.45736 19.5703Z" fill="black" fill-opacity="0.85"/>
 </g>
</svg>
