<?xml version="1.0" ?><!-- Generator: Adobe Illustrator 25.0.0, SVG Export Plug-In . SVG Version: 6.00 Build 0)  --><svg xmlns="http://www.w3.org/2000/svg" xmlns:xlink="http://www.w3.org/1999/xlink" version="1.1" id="Layer_1" x="0px" y="0px" viewBox="0 0 512 512" style="enable-background:new 0 0 512 512;" xml:space="preserve">
<path d="M256,512c140,0,256-116.2,256-256C512,116,395.8,0,255.7,0C116,0,0,116,0,256C0,395.8,116.2,512,256,512z M120.2,226.4  c0-59.2,48.4-107.9,107.7-107.9c59.2,0,107.7,48.4,107.7,107.9c0,22.1-7,42.9-18.6,59.7l66.5,67c4.3,4.5,7,10,7,15.8  c0,13.1-8.5,22.3-21.1,22.3c-7.5,0-13.1-2.5-18.3-8l-66.3-66c-16.6,10.3-36.1,16.8-57,16.8C168.7,334.1,120.2,285.4,120.2,226.4z   M155.6,226.4c0,39.4,32.6,72.3,72.3,72.3c39.4,0,72-32.9,72-72.3c0-39.9-32.6-72.5-72-72.5C188.2,153.9,155.6,186.7,155.6,226.4z"/>
</svg>