<?xml version="1.0" encoding="UTF-8"?>
<!--Generator: Apple Native CoreSVG 326-->
<!DOCTYPE svg
PUBLIC "-//W3C//DTD SVG 1.1//EN"
       "http://www.w3.org/Graphics/SVG/1.1/DTD/svg11.dtd">
<svg version="1.1" xmlns="http://www.w3.org/2000/svg" xmlns:xlink="http://www.w3.org/1999/xlink" viewBox="0 0 18.0176 25.5371">
 <g>
  <rect height="25.5371" opacity="0" width="18.0176" x="0" y="0"/>
  <path d="M3.45703 25.5176L14.1992 25.5176C16.2793 25.5176 17.6562 24.209 17.6562 22.2559L17.6562 3.27148C17.6562 1.30859 16.2793 0 14.1992 0L3.45703 0C1.37695 0 0 1.30859 0 3.27148L0 22.2559C0 24.209 1.37695 25.5176 3.45703 25.5176ZM3.65234 23.7891C2.48047 23.7891 1.72852 23.0762 1.72852 22.002L1.72852 3.52539C1.72852 2.44141 2.48047 1.73828 3.65234 1.73828L14.0039 1.73828C15.1758 1.73828 15.9277 2.44141 15.9277 3.52539L15.9277 22.002C15.9277 23.0762 15.1758 23.7891 14.0039 23.7891Z" fill="black" fill-opacity="0.85"/>
  <path d="M8.83789 20.8203C9.22852 20.8203 9.55078 20.498 9.55078 20.1074L9.55078 17.6562C9.55078 17.2656 9.22852 16.9434 8.83789 16.9434C8.44727 16.9434 8.11523 17.2656 8.11523 17.6562L8.11523 20.1074C8.11523 20.498 8.44727 20.8203 8.83789 20.8203ZM8.83789 14.6973C12.0508 14.6973 14.668 12.0801 14.668 8.86719C14.668 5.64453 12.0508 3.02734 8.83789 3.02734C5.61523 3.02734 2.99805 5.64453 2.99805 8.86719C2.99805 12.0801 5.61523 14.6973 8.83789 14.6973ZM8.83789 13.3105C6.37695 13.3105 4.38477 11.3281 4.38477 8.86719C4.38477 6.39648 6.37695 4.41406 8.83789 4.41406C11.2891 4.41406 13.291 6.40625 13.291 8.86719C13.291 11.3184 11.2891 13.3105 8.83789 13.3105Z" fill="black" fill-opacity="0.425"/>
 </g>
</svg>
