<?xml version="1.0" ?><!-- Generator: Adobe Illustrator 25.0.0, SVG Export Plug-In . SVG Version: 6.00 Build 0)  --><svg xmlns="http://www.w3.org/2000/svg" xmlns:xlink="http://www.w3.org/1999/xlink" version="1.1" id="Layer_1" x="0px" y="0px" viewBox="0 0 512 512" style="enable-background:new 0 0 512 512;" xml:space="preserve">
<path d="M112,29.4h292.9C403.5,10,392.5,0,371.6,0H145.2C124.2,0,113.3,10,112,29.4z M62.8,92.4h386.6c-3.4-20.7-13.2-32.1-36-32.1  H98.8C76,60.3,66.2,71.7,62.8,92.4z M83.5,512h345c47.6,0,71.5-23.7,71.5-70.5V199.6c0-46.6-23.9-70.3-71.5-70.3h-345  c-47.8,0-71.5,23.4-71.5,70.3v241.9C12.1,488.3,35.7,512,83.5,512z M361.8,324.9c-30,0-54.6-24.6-54.6-54.6  c0-30.3,24.6-54.6,54.6-54.6c30,0,54.4,24.3,54.4,54.6C416.2,300.4,391.8,324.9,361.8,324.9z M110.1,258c-9.1,0-15.9-7.3-15.9-16.2  c0-8.9,6.8-15.7,15.9-15.7h146.8c8.9,0,15.7,6.8,15.7,15.7c0,8.9-6.8,16.2-15.7,16.2H110.1z M110.1,319.7c-9.1,0-15.9-6.8-15.9-15.7  c0-8.9,6.8-16.2,15.9-16.2h104.7c8.9,0,16.2,7.3,16.2,16.2c0,8.9-7.3,15.7-16.2,15.7H110.1z"/>
</svg>