<?xml version="1.0" ?><!-- Generator: Adobe Illustrator 25.0.0, SVG Export Plug-In . SVG Version: 6.00 Build 0)  --><svg xmlns="http://www.w3.org/2000/svg" xmlns:xlink="http://www.w3.org/1999/xlink" version="1.1" id="Layer_1" x="0px" y="0px" viewBox="0 0 512 512" style="enable-background:new 0 0 512 512;" xml:space="preserve">
<path d="M104.2,401.3c-20,0-31-10.6-31-31.4v-29.4c23.4,14.4,50.9,22.8,80.3,22.8c33.1,0,64.1-10.8,89.3-28.8l114.6,114.6  c4.4,4.4,10.2,6.6,16.2,6.6c13,0,22.4-10,22.4-22.8c0-6-2-11.8-6.4-16l-114-114.2c19.8-26,31.6-58.1,31.6-93.1  c0-43.9-18.8-83.9-48.7-111.8h190.5c19.6,0,31,10.6,31,31.4v240.6c0,20.8-11.4,31.4-31,31.4h-43.7c8.4,8.6,13,19.8,13,32.1h31.2  c41.9,0,62.7-20.8,62.7-61.9V127.7c0-41.1-20.8-61.9-62.7-61.9H206.7c-16.6-6.2-34.5-9.6-53.1-9.6C68.9,56.2,0,125.3,0,209.8  c0,40.1,15.6,76.9,41.1,104.4v57.3c0,41.3,21,61.9,62.5,61.9h206.7l-32.1-32.1H104.2z M153.6,330.2c-66.1,0-120.4-54.5-120.4-120.4  S87.5,89.4,153.6,89.4c65.9,0,120.4,54.5,120.4,120.4S219.5,330.2,153.6,330.2z M384.2,254.9c26.2,0,47.7-21.4,47.7-47.9  c0-26.6-21.6-47.9-47.7-47.9c-26.6,0-47.9,21.4-47.9,47.9C336.3,233.5,357.6,254.9,384.2,254.9z M89.7,197h126.6c7.8,0,14-6.2,14-14  c0-7.8-6.2-14-14-14H89.7c-8,0-13.8,6.2-13.8,14C75.9,190.8,81.7,197,89.7,197z M89.7,250.3h92.1c7.8,0,14-6,14-13.8  s-6.2-14.2-14-14.2H89.7c-8,0-13.8,6.4-13.8,14.2S81.7,250.3,89.7,250.3z"/>
</svg>