<?xml version="1.0" encoding="UTF-8"?>
<!--Generator: Apple Native CoreSVG 326-->
<!DOCTYPE svg
PUBLIC "-//W3C//DTD SVG 1.1//EN"
       "http://www.w3.org/Graphics/SVG/1.1/DTD/svg11.dtd">
<svg version="1.1" xmlns="http://www.w3.org/2000/svg" xmlns:xlink="http://www.w3.org/1999/xlink" viewBox="0 0 28.291 27.9395">
 <g>
  <rect height="27.9395" opacity="0" width="28.291" x="0" y="0"/>
  <path d="M13.9648 27.9297C21.6406 27.9297 27.9297 21.6504 27.9297 13.9648C27.9297 6.2793 21.6406 0 13.9648 0C6.28906 0 0 6.2793 0 13.9648C0 21.6504 6.28906 27.9297 13.9648 27.9297ZM13.9648 23.3398C8.7793 23.3398 4.58008 19.1504 4.58008 13.9648C4.58008 8.7793 8.7793 4.58008 13.9648 4.58008C19.1504 4.58008 23.3496 8.7793 23.3496 13.9648C23.3496 19.1504 19.1504 23.3398 13.9648 23.3398Z" fill="black" fill-opacity="0.85"/>
  <path d="M7.86133 18.418C8.19336 18.418 8.39844 18.1934 8.39844 17.8613L8.39844 14.7754L9.82422 14.7754L11.2109 18.0273C11.3184 18.2812 11.4941 18.418 11.748 18.418C12.0801 18.418 12.2852 18.1934 12.2852 17.9297C12.2852 17.793 12.2461 17.6953 12.168 17.5195L10.8691 14.541C11.6992 14.1992 12.2852 13.3984 12.2852 12.1777C12.2852 10.6055 11.3281 9.62891 9.7168 9.62891L7.8418 9.62891C7.5293 9.62891 7.31445 9.85352 7.31445 10.1855L7.31445 17.8613C7.31445 18.1934 7.51953 18.418 7.86133 18.418ZM8.39844 13.9062L8.39844 10.5371L9.60938 10.5371C10.6348 10.5371 11.2109 11.1914 11.2109 12.207C11.2109 13.2129 10.6738 13.9062 9.61914 13.9062ZM14.1113 18.418C14.4043 18.418 14.5996 18.2129 14.5996 17.9102L14.5996 11.2891L14.668 11.2891L16.4941 17.7441C16.582 18.0469 16.7578 18.291 17.1289 18.291C17.4805 18.291 17.6562 18.0664 17.7637 17.7246L19.5801 11.2891L19.6484 11.2891L19.6484 17.9102C19.6484 18.2129 19.8535 18.418 20.1465 18.418C20.4297 18.418 20.6348 18.2129 20.6348 17.9102L20.6348 10.2832C20.6348 9.81445 20.332 9.51172 19.8535 9.51172C19.4434 9.51172 19.1699 9.76562 19.0527 10.1758L17.1875 16.8555L17.0898 16.8555L15.1953 10.166C15.0879 9.77539 14.8047 9.51172 14.4043 9.51172C13.916 9.51172 13.6133 9.81445 13.6133 10.2832L13.6133 17.9102C13.6133 18.2129 13.8184 18.418 14.1113 18.418Z" fill="black" fill-opacity="0.85"/>
 </g>
</svg>
