<?xml version="1.0" encoding="UTF-8"?>
<!--Generator: Apple Native CoreSVG 326-->
<!DOCTYPE svg
PUBLIC "-//W3C//DTD SVG 1.1//EN"
       "http://www.w3.org/Graphics/SVG/1.1/DTD/svg11.dtd">
<svg version="1.1" xmlns="http://www.w3.org/2000/svg" xmlns:xlink="http://www.w3.org/1999/xlink" viewBox="0 0 27.9395 26.5527">
 <g>
  <rect height="26.5527" opacity="0" width="27.9395" x="0" y="0"/>
  <path d="M15.2637 0.419922L26.0547 6.65039C26.4453 6.875 26.6211 7.1582 26.6211 7.48047C26.6211 7.91992 26.2891 8.33984 25.6934 8.33984L24.5605 8.33984L24.5605 23.252L25.3613 23.252C25.791 23.252 26.0449 23.5059 26.0449 23.9258L26.0449 24.8047L26.709 24.8047C27.1875 24.8047 27.5781 25.1953 27.5781 25.6738C27.5781 26.1426 27.1875 26.5332 26.709 26.5332L0.869141 26.5332C0.390625 26.5332 0 26.1426 0 25.6738C0 25.1953 0.390625 24.8047 0.869141 24.8047L1.5332 24.8047L1.5332 23.9258C1.5332 23.5059 1.78711 23.252 2.22656 23.252L3.02734 23.252L3.02734 8.33984L1.88477 8.33984C1.28906 8.33984 0.957031 7.91992 0.957031 7.48047C0.957031 7.1582 1.12305 6.875 1.52344 6.65039L12.3145 0.419922C12.7832 0.146484 13.3008 0 13.7891 0C14.2773 0 14.7852 0.146484 15.2637 0.419922ZM19.6094 10L17.4805 17.627L17.373 17.627L15.2051 9.99023C15.0879 9.53125 14.7559 9.23828 14.2969 9.23828C13.7402 9.23828 13.3887 9.58008 13.3887 10.127L13.3887 18.8477C13.3887 19.1895 13.6133 19.4336 13.9551 19.4336C14.2871 19.4336 14.5215 19.1895 14.5215 18.8477L14.5215 11.2891L14.5996 11.2891L16.6895 18.6523C16.7871 18.9941 16.9922 19.2773 17.4121 19.2773C17.8125 19.2773 18.0273 19.0234 18.1348 18.623L20.2246 11.2891L20.3027 11.2891L20.3027 18.8477C20.3027 19.1895 20.5273 19.4336 20.8691 19.4336C21.2012 19.4336 21.4355 19.1895 21.4355 18.8477L21.4355 10.127C21.4355 9.57031 21.084 9.23828 20.5371 9.23828C20.0684 9.23828 19.7363 9.52148 19.6094 10ZM6.78711 9.36523C6.42578 9.36523 6.17188 9.61914 6.17188 10.0098L6.17188 18.7793C6.17188 19.1602 6.41602 19.4238 6.79688 19.4238C7.17773 19.4238 7.42188 19.1602 7.42188 18.7793L7.42188 15.2637L9.05273 15.2637L10.6348 18.9746C10.7617 19.2676 10.957 19.4238 11.25 19.4238C11.6406 19.4238 11.875 19.1699 11.875 18.8574C11.875 18.7109 11.8262 18.5938 11.7383 18.3789L10.2539 14.9902C11.2012 14.5996 11.875 13.6816 11.875 12.2949C11.875 10.4785 10.7812 9.36523 8.93555 9.36523ZM10.625 12.3145C10.625 13.4766 10.0195 14.2578 8.81836 14.2578L7.42188 14.2578L7.42188 10.4102L8.80859 10.4102C9.98047 10.4102 10.625 11.1621 10.625 12.3145Z" fill="black" fill-opacity="0.85"/>
 </g>
</svg>
