<?xml version="1.0" encoding="UTF-8"?>
<!--Generator: Apple Native CoreSVG 326-->
<!DOCTYPE svg
PUBLIC "-//W3C//DTD SVG 1.1//EN"
       "http://www.w3.org/Graphics/SVG/1.1/DTD/svg11.dtd">
<svg version="1.1" xmlns="http://www.w3.org/2000/svg" xmlns:xlink="http://www.w3.org/1999/xlink" viewBox="0 0 23.3203 22.959">
 <g>
  <rect height="22.959" opacity="0" width="23.3203" x="0" y="0"/>
  <path d="M22.959 3.76953L22.959 19.1992C22.959 21.6797 21.6797 22.959 19.1504 22.959L3.79883 22.959C1.2793 22.959 0 21.6992 0 19.1992L0 3.76953C0 1.26953 1.2793 0 3.79883 0L19.1504 0C21.6797 0 22.959 1.2793 22.959 3.76953ZM17.5977 6.91406L15.3613 14.9414L15.2441 14.9414L12.9688 6.9043C12.832 6.41602 12.4902 6.10352 12.002 6.10352C11.4258 6.10352 11.0449 6.47461 11.0449 7.04102L11.0449 16.2207C11.0449 16.5918 11.2891 16.8457 11.6504 16.8457C12.002 16.8457 12.2461 16.5918 12.2461 16.2207L12.2461 8.27148L12.3242 8.27148L14.5312 16.0156C14.6289 16.377 14.8438 16.6797 15.2832 16.6797C15.7129 16.6797 15.9277 16.4062 16.0547 15.9863L18.2422 8.27148L18.3301 8.27148L18.3301 16.2207C18.3301 16.5918 18.5742 16.8457 18.9258 16.8457C19.2773 16.8457 19.5215 16.5918 19.5215 16.2207L19.5215 7.04102C19.5215 6.46484 19.1602 6.10352 18.584 6.10352C18.0859 6.10352 17.7344 6.40625 17.5977 6.91406ZM4.10156 6.25C3.7207 6.25 3.45703 6.50391 3.45703 6.92383L3.45703 16.1621C3.45703 16.5625 3.71094 16.8359 4.12109 16.8359C4.52148 16.8359 4.77539 16.5625 4.77539 16.1621L4.77539 12.4512L6.48438 12.4512L8.1543 16.3574C8.29102 16.6699 8.49609 16.8359 8.79883 16.8359C9.21875 16.8359 9.45312 16.5723 9.45312 16.2402C9.45312 16.0742 9.41406 15.957 9.31641 15.7324L7.75391 12.168C8.75 11.7578 9.45312 10.7812 9.45312 9.32617C9.45312 7.41211 8.30078 6.25 6.35742 6.25ZM8.14453 9.3457C8.14453 10.5664 7.50977 11.3965 6.24023 11.3965L4.77539 11.3965L4.77539 7.34375L6.23047 7.34375C7.46094 7.34375 8.14453 8.13477 8.14453 9.3457Z" fill="black" fill-opacity="0.85"/>
 </g>
</svg>
