<?xml version="1.0" encoding="UTF-8"?>
<!--Generator: Apple Native CoreSVG 326-->
<!DOCTYPE svg
PUBLIC "-//W3C//DTD SVG 1.1//EN"
       "http://www.w3.org/Graphics/SVG/1.1/DTD/svg11.dtd">
<svg version="1.1" xmlns="http://www.w3.org/2000/svg" xmlns:xlink="http://www.w3.org/1999/xlink" viewBox="0 0 30.3809 24.9191">
 <g>
  <rect height="24.9191" opacity="0" width="30.3809" x="0" y="0"/>
  <path d="M30.0195 14.9547C30.0195 7.09334 23.9746 0.648023 16.2988 0.00349172C15.8984-0.0355708 15.5859 0.257398 15.5859 0.667554L15.5859 4.66169C15.5859 4.99373 15.8301 5.2574 16.1719 5.28669C20.9863 5.87263 24.7266 9.97419 24.7266 14.9547C24.7266 17.2203 23.9551 19.3004 22.5879 21.0191C22.4023 21.2535 22.4121 21.5465 22.6172 21.7515L25.5176 24.6519C25.8105 24.9351 26.2305 24.9351 26.4844 24.6226C28.6914 22.0054 30.0195 18.6265 30.0195 14.9547Z" fill="black" fill-opacity="0.85"/>
  <path d="M0 14.9547C0 18.6363 1.32812 22.025 3.54492 24.6422C3.78906 24.9351 4.19922 24.9351 4.49219 24.6519L7.39258 21.7515C7.59766 21.5465 7.60742 21.2535 7.42188 21.0191C6.05469 19.3004 5.2832 17.2203 5.2832 14.9547C5.2832 9.97419 9.0332 5.87263 13.8379 5.28669C14.1895 5.2574 14.4238 4.99373 14.4238 4.66169L14.4238 0.667554C14.4238 0.257398 14.1211-0.0355708 13.7207 0.00349172C6.03516 0.648023 0 7.09334 0 14.9547Z" fill="black" fill-opacity="0.85"/>
  <path d="M8.52539 19.8277C8.87695 19.8277 9.10156 19.5933 9.10156 19.2418L9.10156 15.9801L10.6055 15.9801L12.0801 19.4176C12.1875 19.691 12.373 19.8277 12.6465 19.8277C12.998 19.8277 13.2129 19.6031 13.2129 19.3101C13.2129 19.1734 13.1738 19.066 13.0859 18.8804L11.709 15.7261C12.5977 15.3648 13.2227 14.5152 13.2227 13.2261C13.2227 11.5562 12.1973 10.5211 10.498 10.5211L8.51562 10.5211C8.17383 10.5211 7.94922 10.7554 7.94922 11.107L7.94922 19.2418C7.94922 19.5933 8.16406 19.8277 8.52539 19.8277ZM9.10156 15.0523L9.10156 11.4879L10.3809 11.4879C11.4648 11.4879 12.0703 12.1812 12.0703 13.2554C12.0703 14.3297 11.5039 15.0523 10.4004 15.0523ZM15.1465 19.8375C15.459 19.8375 15.6641 19.6129 15.6641 19.3004L15.6641 12.2886L15.7422 12.2886L17.6758 19.1148C17.7637 19.4371 17.959 19.7008 18.3398 19.7008C18.7109 19.7008 18.9062 19.4664 19.0137 19.0953L20.9375 12.2886L21.0156 12.2886L21.0156 19.3004C21.0156 19.6129 21.2305 19.8375 21.5332 19.8375C21.8457 19.8375 22.0508 19.6129 22.0508 19.3004L22.0508 11.2242C22.0508 10.7164 21.7383 10.4039 21.2305 10.4039C20.791 10.4039 20.498 10.6676 20.3809 11.107L18.4082 18.1773L18.3008 18.1773L16.2988 11.0972C16.1816 10.6773 15.8789 10.4039 15.459 10.4039C14.9414 10.4039 14.6289 10.7261 14.6289 11.2242L14.6289 19.3004C14.6289 19.6129 14.834 19.8375 15.1465 19.8375Z" fill="black" fill-opacity="0.85"/>
 </g>
</svg>
