<?xml version="1.0" encoding="UTF-8"?>
<!--Generator: Apple Native CoreSVG 326-->
<!DOCTYPE svg
PUBLIC "-//W3C//DTD SVG 1.1//EN"
       "http://www.w3.org/Graphics/SVG/1.1/DTD/svg11.dtd">
<svg version="1.1" xmlns="http://www.w3.org/2000/svg" xmlns:xlink="http://www.w3.org/1999/xlink" viewBox="0 0 25.8008 25.459">
 <g>
  <rect height="25.459" opacity="0" width="25.8008" x="0" y="0"/>
  <path d="M12.7148 25.4395C19.7363 25.4395 25.4395 19.7461 25.4395 12.7246C25.4395 5.70312 19.7363 0 12.7148 0C5.69336 0 0 5.70312 0 12.7246C0 19.7461 5.69336 25.4395 12.7148 25.4395ZM12.7148 23.623C6.68945 23.623 1.81641 18.75 1.81641 12.7246C1.81641 6.69922 6.68945 1.82617 12.7148 1.82617C18.7402 1.82617 23.6133 6.69922 23.6133 12.7246C23.6133 18.75 18.7402 23.623 12.7148 23.623Z" fill="black" fill-opacity="0.85"/>
  <path d="M5.51758 17.9492C5.9082 17.9492 6.15234 17.6953 6.15234 17.3047L6.15234 13.6719L7.83203 13.6719L9.46289 17.5C9.58984 17.8027 9.79492 17.9492 10.0879 17.9492C10.4883 17.9492 10.7227 17.6953 10.7227 17.3828C10.7227 17.2266 10.6836 17.1094 10.5859 16.8945L9.05273 13.3984C10.0391 12.998 10.7324 12.0508 10.7324 10.625C10.7324 8.76953 9.59961 7.61719 7.70508 7.61719L5.49805 7.61719C5.12695 7.61719 4.87305 7.88086 4.87305 8.27148L4.87305 17.3047C4.87305 17.6953 5.11719 17.9492 5.51758 17.9492ZM6.15234 12.6465L6.15234 8.68164L7.57812 8.68164C8.7793 8.68164 9.45312 9.45312 9.45312 10.6445C9.45312 11.8359 8.82812 12.6465 7.59766 12.6465ZM12.8711 17.9688C13.2129 17.9688 13.4473 17.7246 13.4473 17.3633L13.4473 9.58008L13.5352 9.58008L15.6836 17.168C15.7812 17.5195 15.9863 17.8125 16.416 17.8125C16.8359 17.8125 17.041 17.5488 17.168 17.1387L19.3066 9.58008L19.3945 9.58008L19.3945 17.3633C19.3945 17.7246 19.6289 17.9688 19.9707 17.9688C20.3125 17.9688 20.5469 17.7246 20.5469 17.3633L20.5469 8.38867C20.5469 7.83203 20.1953 7.48047 19.6289 7.48047C19.1504 7.48047 18.8184 7.77344 18.6816 8.26172L16.4941 16.1133L16.377 16.1133L14.1504 8.25195C14.0234 7.7832 13.6816 7.48047 13.2129 7.48047C12.6465 7.48047 12.2949 7.8418 12.2949 8.38867L12.2949 17.3633C12.2949 17.7246 12.5195 17.9688 12.8711 17.9688Z" fill="black" fill-opacity="0.85"/>
 </g>
</svg>
