<?xml version="1.0" encoding="UTF-8"?>
<!--Generator: Apple Native CoreSVG 326-->
<!DOCTYPE svg
PUBLIC "-//W3C//DTD SVG 1.1//EN"
       "http://www.w3.org/Graphics/SVG/1.1/DTD/svg11.dtd">
<svg version="1.1" xmlns="http://www.w3.org/2000/svg" xmlns:xlink="http://www.w3.org/1999/xlink" viewBox="0 0 38.0664 23.5645">
 <g>
  <rect height="23.5645" opacity="0" width="38.0664" x="0" y="0"/>
  <path d="M1.06445 23.5156C1.70898 23.5156 2.11914 23.0762 2.11914 22.4316L2.11914 13.6914L6.67969 13.6914C6.85547 13.6914 7.04102 13.6719 7.20703 13.6621L11.7285 22.8516C11.9531 23.3398 12.2559 23.5254 12.793 23.5254C13.3789 23.5254 13.8281 23.1055 13.8281 22.5488C13.8281 22.3145 13.7109 22.0312 13.6035 21.8066L9.31641 13.2324C12.2656 12.2949 13.7402 9.91211 13.7402 6.91406C13.7402 2.74414 10.9375 0.273438 6.72852 0.273438L1.03516 0.273438C0.400391 0.273438 0 0.712891 0 1.37695L0 22.4316C0 23.1348 0.46875 23.5156 1.06445 23.5156ZM2.11914 11.8262L2.11914 2.16797L6.48438 2.16797C9.54102 2.16797 11.5918 3.79883 11.5918 6.97266C11.5918 10.0977 9.69727 11.8262 6.5625 11.8262ZM19.0625 23.5547C19.6875 23.5547 20.0586 23.1445 20.0586 22.5195L20.0586 3.88672L20.1855 3.88672L26.5234 22.1094C26.748 22.793 27.1973 23.2324 27.8906 23.2324C28.6035 23.2324 29.043 22.7734 29.2578 22.0898L35.5957 3.88672L35.7129 3.88672L35.7129 22.5195C35.7129 23.1934 36.123 23.5547 36.6992 23.5547C37.334 23.5547 37.7051 23.1543 37.7051 22.5195L37.7051 1.47461C37.7051 0.576172 37.0996 0 36.2012 0C35.3711 0 34.873 0.478516 34.6094 1.2793L28.0273 20.4102L27.8027 20.4102L21.123 1.25C20.8691 0.449219 20.3906 0 19.5703 0C18.6328 0 18.0762 0.664062 18.0762 1.46484L18.0762 22.5195C18.0762 23.125 18.4473 23.5547 19.0625 23.5547Z" fill="black" fill-opacity="0.85"/>
 </g>
</svg>
