<?xml version="1.0" encoding="UTF-8"?>
<!--Generator: Apple Native CoreSVG 326-->
<!DOCTYPE svg
PUBLIC "-//W3C//DTD SVG 1.1//EN"
       "http://www.w3.org/Graphics/SVG/1.1/DTD/svg11.dtd">
<svg version="1.1" xmlns="http://www.w3.org/2000/svg" xmlns:xlink="http://www.w3.org/1999/xlink" viewBox="0 0 27.9395 26.5527">
 <g>
  <rect height="26.5527" opacity="0" width="27.9395" x="0" y="0"/>
  <path d="M1.5332 23.8379L26.0449 23.8379L26.0449 23.0859C26.0449 22.666 25.791 22.4121 25.3613 22.4121L24.5605 22.4121L24.5605 8.33984L25.6934 8.33984C26.2891 8.33984 26.6211 7.91992 26.6211 7.48047C26.6211 7.1582 26.4453 6.875 26.0547 6.65039L15.2637 0.419922C14.7852 0.146484 14.2773 0 13.7891 0C13.3008 0 12.7832 0.146484 12.3145 0.419922L1.52344 6.65039C1.12305 6.875 0.957031 7.1582 0.957031 7.48047C0.957031 7.91992 1.28906 8.33984 1.88477 8.33984L3.02734 8.33984L3.02734 22.4121L2.22656 22.4121C1.78711 22.4121 1.5332 22.666 1.5332 23.0859ZM4.6582 22.4121L4.6582 6.85547L13.2227 2.03125C13.3887 1.93359 13.5938 1.875 13.7891 1.875C13.9746 1.875 14.1699 1.93359 14.3555 2.03125L22.9297 6.85547L22.9297 22.4121ZM0.869141 26.5332L26.709 26.5332C27.1875 26.5332 27.5781 26.1426 27.5781 25.6738C27.5781 25.1953 27.1875 24.8047 26.709 24.8047L0.869141 24.8047C0.390625 24.8047 0 25.1953 0 25.6738C0 26.1426 0.390625 26.5332 0.869141 26.5332Z" fill="black" fill-opacity="0.85"/>
  <path d="M10.1855 18.623C10.5957 18.623 10.8496 18.3691 10.8496 17.9492L10.8496 14.082C10.8496 11.8066 11.6699 9.98047 13.8086 9.98047C16.0059 9.98047 16.7871 11.8262 16.7871 14.082L16.7871 17.9492C16.7871 18.3691 17.0312 18.623 17.4414 18.623C17.8418 18.623 18.0957 18.3691 18.0957 17.9492L18.0957 14.0039C18.0957 11.0156 16.709 8.79883 13.8086 8.79883C10.8984 8.79883 9.54102 11.0449 9.54102 14.0039L9.54102 17.9492C9.54102 18.3691 9.78516 18.623 10.1855 18.623ZM13.7988 18.623C14.0723 18.623 14.2578 18.4375 14.2578 18.1445L14.2578 7.37305C14.2578 7.08984 14.0723 6.9043 13.7988 6.9043C13.4961 6.9043 13.3203 7.08984 13.3203 7.37305L13.3203 18.1445C13.3203 18.4375 13.4961 18.623 13.7988 18.623Z" fill="black" fill-opacity="0.85"/>
 </g>
</svg>
