<?xml version="1.0" ?><!-- Generator: Adobe Illustrator 25.0.0, SVG Export Plug-In . SVG Version: 6.00 Build 0)  --><svg xmlns="http://www.w3.org/2000/svg" xmlns:xlink="http://www.w3.org/1999/xlink" version="1.1" id="Layer_1" x="0px" y="0px" viewBox="0 0 512 512" style="enable-background:new 0 0 512 512;" xml:space="preserve">
<path d="M87.3,512h337.3c58.4,0,87.3-28.9,87.3-86.2V86.2C512,28.9,483.1,0,424.7,0H87.3C29.2,0,0,28.6,0,86.2v339.6  C0,483.4,29.2,512,87.3,512z M153.5,369.1v-93.7c0-75.4,34.2-118.2,86.8-124.9v-29.8c0-10,6.7-15.6,15.9-15.6  c8.1,0,15.6,5.6,15.6,15.6v29.5c52.6,6.7,87.3,49.5,87.3,125.1v93.7c0,12-7.5,19.2-18.9,19.2c-10.8,0-18.4-7.2-18.4-19.2v-91.2  c0-54.2-19.2-84.8-50.1-91.8v186.3c0,9.5-7.5,15.9-15.6,15.9c-9.2,0-15.9-6.4-15.9-15.9V186.3c-30.3,7.8-48.9,38.1-48.9,91.5v91.2  c0,12-7.5,19.2-18.6,19.2C161.6,388.2,153.5,381,153.5,369.1z"/>
</svg>