<?xml version="1.0" ?><!-- Generator: Adobe Illustrator 25.0.0, SVG Export Plug-In . SVG Version: 6.00 Build 0)  --><svg xmlns="http://www.w3.org/2000/svg" xmlns:xlink="http://www.w3.org/1999/xlink" version="1.1" id="Layer_1" x="0px" y="0px" viewBox="0 0 512 512" style="enable-background:new 0 0 512 512;" xml:space="preserve">
<path d="M87.3,512h337.3c58.4,0,87.3-28.9,87.3-86.2V86.2C512,28.9,483.1,0,424.7,0H87.3C29.2,0,0,28.6,0,86.2v339.6  C0,483.4,29.2,512,87.3,512z M87.9,467.2c-27.8,0-43.1-14.7-43.1-43.7V88.4c0-28.9,15.3-43.7,43.1-43.7h336.2  c27.5,0,43.1,14.7,43.1,43.7v335.1c0,28.9-15.6,43.7-43.1,43.7H87.9z M156.9,365.4c0,11.7,7.8,18.6,18.4,18.6  c10.8,0,18.1-7,18.1-18.6V277c0-51.7,18.1-81.2,47.6-88.7v180.5c0,9.2,6.4,15.3,15.3,15.3c7.8,0,15-6.1,15-15.3V188  c30,7,48.7,36.4,48.7,89v88.4c0,11.7,7.2,18.6,17.8,18.6c10.8,0,18.1-7,18.1-18.6v-90.7c0-73.4-33.7-114.9-84.5-121.3v-28.6  c0-9.7-7.2-15-15-15c-8.9,0-15.3,5.3-15.3,15v28.9c-50.9,6.4-84,47.8-84,121V365.4z"/>
</svg>