<?xml version="1.0" ?><!-- Generator: Adobe Illustrator 25.0.0, SVG Export Plug-In . SVG Version: 6.00 Build 0)  --><svg xmlns="http://www.w3.org/2000/svg" xmlns:xlink="http://www.w3.org/1999/xlink" version="1.1" id="Layer_1" x="0px" y="0px" viewBox="0 0 512 512" style="enable-background:new 0 0 512 512;" xml:space="preserve">
<path d="M256,512c140,0,256-116.2,256-256C512,116,395.8,0,255.7,0C116,0,0,116,0,256C0,395.8,116.2,512,256,512z M256,469.3  c-118.5,0-213.1-94.9-213.1-213.3S137.3,42.7,255.7,42.7S469.1,137.5,469.3,256S374.5,469.3,256,469.3z M166.1,355.1  c0,10.5,7,16.8,16.6,16.8c9.8,0,16.3-6.3,16.3-16.8v-79.8c0-46.4,16.1-73.3,42.9-79.8v162.6c0,8.3,5.8,13.8,13.8,13.8  c7,0,13.6-5.5,13.6-13.8V195.3c27.1,6,43.9,32.9,43.9,80.1v79.8c0,10.5,6.5,16.8,16.1,16.8c9.5,0,16.3-6.3,16.3-16.8v-81.6  c0-66.3-30.4-103.7-76.3-109.7V138c0-8.8-6.5-13.3-13.6-13.3c-8,0-13.8,4.5-13.8,13.3v26.1c-45.9,6-75.8,43.4-75.8,109.4V355.1z"/>
</svg>