<?xml version="1.0" encoding="UTF-8"?>
<!--Generator: Apple Native CoreSVG 326-->
<!DOCTYPE svg
PUBLIC "-//W3C//DTD SVG 1.1//EN"
       "http://www.w3.org/Graphics/SVG/1.1/DTD/svg11.dtd">
<svg version="1.1" xmlns="http://www.w3.org/2000/svg" xmlns:xlink="http://www.w3.org/1999/xlink" viewBox="0 0 23.877 31.123">
 <g>
  <rect height="31.123" opacity="0" width="23.877" x="0" y="0"/>
  <path d="M23.5156 23.7891C23.5156 26.9238 18.623 29.1113 11.7676 29.1113C4.90234 29.1113 0 26.9238 0 23.7891C0 21.1673 3.45065 19.2054 8.62305 18.6472L8.62305 20.2148C8.62305 20.2659 8.62329 20.3167 8.62614 20.3636C4.81596 20.8287 2.1582 22.142 2.1582 23.7891C2.1582 25.8691 6.35742 27.4121 11.7578 27.4121C17.1387 27.4121 21.3574 25.8496 21.3574 23.7891C21.3574 22.1558 18.6816 20.8323 14.87 20.364C14.8728 20.3169 14.873 20.2661 14.873 20.2148L14.873 18.6436C20.0566 19.1967 23.5156 21.1615 23.5156 23.7891Z" fill="black" fill-opacity="0.85"/>
  <path d="M16.1719 6.57227C16.1719 8.68164 14.707 10.4492 12.7344 10.8789L12.7344 19.8242C12.7344 23.0078 12.1875 24.707 11.7578 24.707C11.3281 24.707 10.7715 22.9883 10.7715 19.8242L10.7715 10.8789C8.78906 10.4395 7.33398 8.68164 7.33398 6.57227C7.33398 4.13086 9.29688 2.13867 11.7578 2.13867C14.209 2.13867 16.1719 4.13086 16.1719 6.57227ZM8.94531 5.26367C8.94531 6.08398 9.6582 6.78711 10.459 6.78711C11.2891 6.78711 11.9727 6.08398 11.9727 5.26367C11.9727 4.44336 11.2891 3.75 10.459 3.75C9.6582 3.75 8.94531 4.44336 8.94531 5.26367Z" fill="black" fill-opacity="0.85"/>
 </g>
</svg>
