<?xml version="1.0" ?><!-- Generator: Adobe Illustrator 25.0.0, SVG Export Plug-In . SVG Version: 6.00 Build 0)  --><svg xmlns="http://www.w3.org/2000/svg" xmlns:xlink="http://www.w3.org/1999/xlink" version="1.1" id="Layer_1" x="0px" y="0px" viewBox="0 0 512 512" style="enable-background:new 0 0 512 512;" xml:space="preserve">
<path d="M256,512c35,0,67.9-6.7,98.8-20.1c30.9-13.4,58.1-31.9,81.7-55.5c23.6-23.6,42.1-50.8,55.5-81.7  C505.3,323.9,512,291,512,256s-6.7-67.9-20.1-98.8c-13.4-30.9-31.9-58.1-55.5-81.7c-23.6-23.6-50.9-42.1-81.8-55.5  C323.7,6.7,290.7,0,255.7,0S187.9,6.7,157,20.1C126.1,33.5,98.9,52,75.4,75.5c-23.5,23.6-42,50.8-55.3,81.7C6.7,188.1,0,221,0,256  s6.7,67.9,20.1,98.8c13.4,30.9,31.9,58.1,55.5,81.7s50.8,42.1,81.7,55.5C188.1,505.3,221,512,256,512z" class="hierarchical-0:tertiary SFSymbolsPreview8E8E8E" style="fill: #8E8E8E;"/>
<path d="M372.7,389L122.5,138.8c-2.2-2-3.3-4.6-3.3-7.8c0-3.2,1.1-5.9,3.3-8.3c2.3-2.2,5.1-3.3,8.2-3.3c3.1,0,5.8,1.1,8.2,3.3  l250,250.2c2.3,2.3,3.5,5,3.5,8c0,3-1.2,5.7-3.5,8c-2.2,2.2-4.9,3.3-8,3.3S374.9,391.2,372.7,389z M272.8,217.6l-72-72.3  c3.5-11.7,10.3-21.4,20.3-29c10-7.6,21.5-11.4,34.4-11.4c10.5,0,20.2,2.6,29,7.8c8.8,5.2,15.8,12.1,21,20.8  c5.2,8.7,7.8,18.4,7.8,29.1c0,12.9-3.8,24.3-11.4,34.4C294.2,207.1,284.5,213.9,272.8,217.6z M222.6,147.3c0,4.9,1.8,9.1,5.5,12.8  c3.7,3.7,7.9,5.5,12.5,5.5c5,0,9.3-1.8,12.9-5.5c3.6-3.7,5.4-7.9,5.4-12.8c0-4.9-1.8-9.1-5.4-12.8c-3.6-3.7-7.9-5.5-12.9-5.5  c-4.7,0-8.9,1.8-12.7,5.5C224.3,138.2,222.5,142.5,222.6,147.3z M238.2,281.6l34.4,34.4v26.6c0,12.4-0.6,23.8-1.9,34.4  c-1.3,10.5-3.1,19-5.6,25.3c-2.5,6.4-5.7,9.5-9.5,9.5c-3.8,0-7-3.2-9.5-9.7c-2.5-6.4-4.4-14.9-5.8-25.5c-1.3-10.5-2-21.9-2-34.1  V281.6z" class="hierarchical-1:primary SFSymbolsPreview212121" style="fill: #212121;"/>
</svg>