<?xml version="1.0" encoding="UTF-8"?>
<!--Generator: Apple Native CoreSVG 326-->
<!DOCTYPE svg
PUBLIC "-//W3C//DTD SVG 1.1//EN"
       "http://www.w3.org/Graphics/SVG/1.1/DTD/svg11.dtd">
<svg version="1.1" xmlns="http://www.w3.org/2000/svg" xmlns:xlink="http://www.w3.org/1999/xlink" viewBox="0 0 25.8008 25.459">
 <g>
  <rect height="25.459" opacity="0" width="25.8008" x="0" y="0"/>
  <path d="M25.4395 12.7344C25.4395 19.7461 19.7266 25.459 12.7148 25.459C5.71289 25.459 0 19.7461 0 12.7344C0 5.73242 5.71289 0.0195312 12.7148 0.0195312C19.7266 0.0195312 25.4395 5.73242 25.4395 12.7344ZM14.3262 15.1172C15.8105 15.1074 18.0176 15.8398 18.0176 16.8652C18.0176 18.0371 15.791 18.877 12.7148 18.877C9.62891 18.877 7.41211 18.0371 7.41211 16.8652C7.41211 15.8398 9.62891 15.1074 11.1035 15.1172L11.1035 14.0332C9.0918 14.0234 6.03516 15.1172 6.03516 16.9922C6.03516 18.623 8.59375 20.0195 12.7148 20.0195C16.8457 20.0195 19.4043 18.623 19.4043 16.9922C19.4043 15.1172 16.3477 14.0234 14.3262 14.0332ZM10.1465 7.27539C10.1465 8.47656 10.9668 9.49219 12.0703 9.78516L12.0703 14.7656C12.0703 16.5625 12.373 17.5586 12.7148 17.5586C13.0664 17.5586 13.3691 16.582 13.3691 14.7656L13.3691 9.78516C14.4727 9.49219 15.2832 8.47656 15.2832 7.27539C15.2832 5.84961 14.1504 4.70703 12.7148 4.70703C11.2793 4.70703 10.1465 5.84961 10.1465 7.27539ZM12.8027 6.54297C12.8027 7.00195 12.4414 7.36328 11.9824 7.36328C11.5723 7.36328 11.1816 7.00195 11.1816 6.54297C11.1816 6.10352 11.5625 5.74219 11.9824 5.74219C12.4414 5.74219 12.8027 6.10352 12.8027 6.54297Z" fill="black" fill-opacity="0.85"/>
 </g>
</svg>
