<?xml version="1.0" ?><!-- Generator: Adobe Illustrator 25.0.0, SVG Export Plug-In . SVG Version: 6.00 Build 0)  --><svg xmlns="http://www.w3.org/2000/svg" xmlns:xlink="http://www.w3.org/1999/xlink" version="1.1" id="Layer_1" x="0px" y="0px" viewBox="0 0 512 512" style="enable-background:new 0 0 512 512;" xml:space="preserve">
<path d="M256,512c140,0,256-116.2,256-256C512,116,395.8,0,255.7,0C116,0,0,116,0,256C0,395.8,116.2,512,256,512z M256,469.3  c-118.5,0-213.1-94.9-213.1-213.3S137.3,42.7,255.7,42.7S469.1,137.5,469.3,256S374.5,469.3,256,469.3z M198.5,162.1  c0,25.6,16.8,47.2,39.9,54.5v126c0,36.9,6,69.5,17.3,69.5c11.5,0,17.1-32.1,17.1-69.5v-126c23.3-7,40.2-28.6,40.2-54.5  c0-31.4-25.6-57.2-57.2-57.2C224.4,104.9,198.5,130.8,198.5,162.1z M222.9,147.6c-0.3-10,8.5-18.6,18.1-18.6  c10,0,18.3,8.5,18.3,18.6c0,9.5-8.3,18.1-18.3,18.1C231.4,165.6,222.9,157.1,222.9,147.6z"/>
</svg>