<?xml version="1.0" ?><!-- Generator: Adobe Illustrator 25.0.0, SVG Export Plug-In . SVG Version: 6.00 Build 0)  --><svg xmlns="http://www.w3.org/2000/svg" xmlns:xlink="http://www.w3.org/1999/xlink" version="1.1" id="Layer_1" x="0px" y="0px" viewBox="0 0 512 512" style="enable-background:new 0 0 512 512;" xml:space="preserve">
<path d="M255.9,512c9.9,0,22.4-38.6,22.4-109.9V178.8c39.3-9.9,68.2-45.5,68.2-87.9C346.5,41,306.2,0,255.9,0  c-50.1,0-90.4,41-90.4,90.8c0,42.2,28.7,77.8,67.9,87.9v223.4C233.5,473.2,246.2,512,255.9,512z M230.1,95.9  c-16.6,0-31.1-14.5-31.1-31.3c0-16.6,14.5-30.8,31.1-30.8c16.9,0,30.8,14.2,30.8,30.8C260.9,81.4,247,95.9,230.1,95.9z"/>
</svg>