<?xml version="1.0" ?><!-- Generator: Adobe Illustrator 25.0.0, SVG Export Plug-In . SVG Version: 6.00 Build 0)  --><svg xmlns="http://www.w3.org/2000/svg" xmlns:xlink="http://www.w3.org/1999/xlink" version="1.1" id="Layer_1" x="0px" y="0px" viewBox="0 0 512 512" style="enable-background:new 0 0 512 512;" xml:space="preserve">
<path d="M87.3,512h337.3c29.1,0,50.9-7.2,65.5-21.6c14.6-14.4,21.8-35.9,21.8-64.7V86.2c0-28.7-7.3-50.3-21.8-64.7  C475.6,7.2,453.8,0,424.7,0H87.3C58.2,0,36.4,7.2,21.8,21.6C7.3,35.9,0,57.5,0,86.2v339.6c0,28.7,7.3,50.3,21.8,64.7  C36.4,504.8,58.2,512,87.3,512z M87.9,467.2c-13.9,0-24.6-3.7-32-11c-7.4-7.3-11.1-18.2-11.1-32.7V88.4c0-14.5,3.7-25.4,11.1-32.7  c7.4-7.3,18.1-11,32-11h336.2c13.7,0,24.3,3.7,31.8,11c7.5,7.3,11.3,18.2,11.3,32.7v335.1c0,14.5-3.8,25.4-11.3,32.7  c-7.5,7.3-18.1,11-31.8,11H87.9z" class="multicolor-0:systemRedColor hierarchical-0:secondary SFSymbolsPreviewFF3B30" style="fill: #FF3B30;"/>
<path d="M192.7,151.3c0,14.1,4.2,26.7,12.5,37.7c8.3,11,18.9,18.6,31.7,22.7v139.6c0,13.5,0.7,26.2,2.1,38  c1.4,11.8,3.5,21.2,6.4,28.4c2.9,7.1,6.4,10.7,10.7,10.7c4.3,0,7.8-3.6,10.6-10.7c2.8-7.1,4.9-16.5,6.3-28.2  c1.4-11.7,2.1-24.4,2.1-38.1V211.6c13-3.9,23.6-11.4,32-22.4c8.3-11,12.5-23.7,12.5-38c0-11.7-2.9-22.3-8.6-31.8  c-5.7-9.5-13.4-17.2-22.9-22.9c-9.5-5.7-20.2-8.6-31.8-8.6c-11.7,0-22.3,2.9-31.8,8.6c-9.5,5.7-17.2,13.4-22.9,22.9  C195.6,129,192.7,139.6,192.7,151.3z M219.4,135.2c0-5.6,2-10.4,6.1-14.5c4.1-4.1,8.8-6.1,14.2-6.1c5.6,0,10.3,2,14.3,6.1  c4,4.1,6,8.9,6,14.5c0,5.4-2,10.1-6,14c-4,4-8.8,6-14.3,6c-5.4,0-10.1-2-14-6C221.7,145.2,219.6,140.5,219.4,135.2z" class="multicolor-0:systemRedColor hierarchical-1:primary SFSymbolsPreviewFF3B30" style="fill: #FF3B30;"/>
</svg>