<?xml version="1.0" ?><!-- Generator: Adobe Illustrator 25.0.0, SVG Export Plug-In . SVG Version: 6.00 Build 0)  --><svg xmlns="http://www.w3.org/2000/svg" xmlns:xlink="http://www.w3.org/1999/xlink" version="1.1" id="Layer_1" x="0px" y="0px" viewBox="0 0 512 512" style="enable-background:new 0 0 512 512;" xml:space="preserve">
<path d="M255.9,426.7c9.6,0,21.7-37.3,21.7-106.3V173c38-9.6,66-44.1,66-85.1c0-48.3-38.9-87.9-87.7-87.9  c-48.5,0-87.4,39.6-87.4,87.9c0,40.8,27.7,75.3,65.7,85.1v147.4C234.2,389.1,246.6,426.7,255.9,426.7z M230.9,92.8  c-15.9,0-29.8-14-29.8-30.3c0-16.1,14-29.8,29.8-29.8c16.6,0,30.1,13.8,30.1,29.8C261,78.8,247.5,92.8,230.9,92.8z M256.1,512  c140.6,0,221.3-48.5,221.3-99.8c0-61.6-97.7-99.1-161.8-99.8v34c45,0.7,114.7,25.2,114.7,60.2c0,40.1-73.9,68.5-174.2,68.5  c-100.7,0-174.2-28-174.2-68.5c0-35,69.5-59.5,114.5-60.2v-34c-64.1,0.7-161.8,38.2-161.8,99.8C34.6,463.5,115.5,512,256.1,512z"/>
</svg>