<?xml version="1.0" encoding="UTF-8"?>
<!--Generator: Apple Native CoreSVG 326-->
<!DOCTYPE svg
PUBLIC "-//W3C//DTD SVG 1.1//EN"
       "http://www.w3.org/Graphics/SVG/1.1/DTD/svg11.dtd">
<svg version="1.1" xmlns="http://www.w3.org/2000/svg" xmlns:xlink="http://www.w3.org/1999/xlink" viewBox="0 0 25.6348 29.2139">
 <g>
  <rect height="29.2139" opacity="0" width="25.6348" x="0" y="0"/>
  <path d="M13.0273 14.9243L25.2441 7.99072L25.2441 7.73682C25.1465 6.84814 24.707 6.36963 23.8965 5.90088L14.668 0.656738C13.3105-0.124512 11.9629-0.114746 10.5957 0.656738L1.37695 5.87158C0.576172 6.33057 0.126953 6.82861 0.0195312 7.78564L0.0195312 8.04932L12.2656 14.9341C12.4805 15.061 12.8125 15.0513 13.0273 14.9243ZM12.9297 12.6294C12.7539 12.7271 12.5195 12.7271 12.3438 12.6294L2.87109 7.27783C2.73438 7.19971 2.71484 7.06299 2.85156 6.9751L11.3672 2.18018C12.2266 1.68213 13.0469 1.67236 13.9062 2.18018L22.4023 6.99463C22.5586 7.08252 22.5586 7.23877 22.4121 7.31689ZM1.63086 23.3032L11.6406 28.9282C12.3242 29.3091 12.9492 29.3091 13.6328 28.9282L23.6426 23.2642C24.7363 22.6392 25.2734 22.0532 25.2734 20.4419L25.2734 9.54346L13.291 16.311C12.8906 16.5356 12.4023 16.5356 12.0117 16.3208L0 9.57275L0 20.4419C0 22.0532 0.537109 22.688 1.63086 23.3032ZM1.58203 13.7427C1.20117 13.5181 0.878906 13.0396 0.878906 12.6587C0.878906 12.2876 1.17188 12.1704 1.54297 12.3755C1.92383 12.6001 2.23633 13.0884 2.23633 13.4595C2.23633 13.8306 1.94336 13.9575 1.58203 13.7427ZM5.32227 15.7153L2.95898 14.3677L2.95898 13.2153L5.32227 14.563ZM6.91406 16.7505C6.52344 16.5259 6.2207 16.0474 6.2207 15.6665C6.2207 15.2954 6.51367 15.1782 6.88477 15.3833C7.26562 15.6079 7.57812 16.0864 7.57812 16.4673C7.57812 16.8384 7.28516 16.9653 6.91406 16.7505ZM10.6641 18.7329L8.30078 17.395L8.30078 16.2427L10.6641 17.5806ZM14.4434 18.9575C14.082 19.1724 13.7891 19.0552 13.7891 18.6841C13.7891 18.3032 14.1113 17.8149 14.4824 17.5903C14.8535 17.3755 15.1465 17.4927 15.1465 17.8638C15.1465 18.2446 14.8242 18.7329 14.4434 18.9575ZM15.9473 25.0415L15.9473 17.3755C15.9473 16.9751 16.0156 16.8091 16.3574 16.6138L18.457 15.4224C18.75 15.2661 19.043 15.4028 19.043 15.7251L19.043 23.2935ZM20.4297 15.5786C20.0586 15.7935 19.7754 15.6763 19.7754 15.3052C19.7754 14.9243 20.0781 14.436 20.4688 14.2114C20.8301 13.9966 21.123 14.1235 21.123 14.4946C21.123 14.8755 20.8105 15.3638 20.4297 15.5786ZM24.3164 13.2642L21.9434 14.5923L21.9434 13.4399L24.3164 12.1118Z" fill="black" fill-opacity="0.85"/>
 </g>
</svg>
