<?xml version="1.0" encoding="UTF-8"?>
<!--Generator: Apple Native CoreSVG 326-->
<!DOCTYPE svg
PUBLIC "-//W3C//DTD SVG 1.1//EN"
       "http://www.w3.org/Graphics/SVG/1.1/DTD/svg11.dtd">
<svg version="1.1" xmlns="http://www.w3.org/2000/svg" xmlns:xlink="http://www.w3.org/1999/xlink" viewBox="0 0 18.0566 30.8035">
 <g>
  <rect height="30.8035" opacity="0" width="18.0566" x="0" y="0"/>
  <path d="M17.6953 2.95548L17.6953 10.3578C17.6953 11.3246 17.4121 11.9008 16.6699 12.4086L11.0878 16.2803L10.8105 15.4164C10.7298 15.1655 10.6178 14.946 10.4825 14.758L10.6934 14.6068L10.6934 2.68204L6.99219 2.68204L6.99219 14.6051L7.22133 14.7697C7.09031 14.9548 6.98227 15.1705 6.9043 15.4164L6.62002 16.2944L1.02539 12.4086C0.292969 11.9008 0 11.3441 0 10.3578L0 2.95548C0 1.8422 0.791016 1.05118 1.9043 1.05118L15.7812 1.05118C16.8945 1.05118 17.6953 1.8422 17.6953 2.95548ZM12.3242 2.68204L12.3242 13.4371L15.7324 10.9926C15.9375 10.8461 16.0645 10.641 16.0645 10.3383L16.0645 3.27774C16.0645 2.93595 15.8105 2.68204 15.4688 2.68204ZM2.2168 2.68204C1.88477 2.68204 1.63086 2.93595 1.63086 3.27774L1.63086 10.3383C1.63086 10.641 1.74805 10.8461 1.96289 10.9926L5.36133 13.4336L5.36133 2.68204Z" fill="black" fill-opacity="0.85"/>
  <path d="M5.16602 29.2543L8.85742 26.5492L12.5488 29.2543C13.1934 29.7328 13.8867 29.2348 13.6328 28.4731L12.1777 24.1176L15.9082 21.4613C16.4746 21.0414 16.3086 20.1527 15.4883 20.1625L10.9082 20.1918L9.51172 15.8168C9.28711 15.0941 8.42773 15.0941 8.19336 15.8168L6.79688 20.1918L2.22656 20.1625C1.41602 20.1527 1.21094 21.0219 1.81641 21.4613L5.52734 24.1176L4.08203 28.4731C3.82812 29.2348 4.52148 29.7328 5.16602 29.2543Z" fill="black" fill-opacity="0.85"/>
 </g>
</svg>
