<?xml version="1.0" encoding="UTF-8"?>
<!--Generator: Apple Native CoreSVG 326-->
<!DOCTYPE svg
PUBLIC "-//W3C//DTD SVG 1.1//EN"
       "http://www.w3.org/Graphics/SVG/1.1/DTD/svg11.dtd">
<svg version="1.1" xmlns="http://www.w3.org/2000/svg" xmlns:xlink="http://www.w3.org/1999/xlink" viewBox="0 0 33.3693 12.8027">
 <g>
  <rect height="12.8027" opacity="0" width="33.3693" x="0" y="0"/>
  <path d="M4.12116 12.7734L22.0801 12.7734C25.1759 12.7734 26.2012 11.1816 26.2012 6.38672C26.211 1.58203 25.1856 0 22.0801 0L4.12116 0C1.01569 0-0.00969664 1.58203 6.89871e-05 6.38672C6.89871e-05 11.1816 1.02546 12.7734 4.12116 12.7734ZM4.12116 5.46875C3.40827 5.46875 2.84187 4.91211 2.84187 4.19922C2.84187 3.49609 3.40827 2.93945 4.12116 2.93945C4.82429 2.93945 5.38093 3.49609 5.38093 4.19922C5.38093 4.91211 4.82429 5.46875 4.12116 5.46875Z" fill="black" fill-opacity="0.85"/>
  <path d="M27.461 9.89258L30.7423 9.89258C32.1192 9.89258 33.0079 9.0332 33.0079 7.75391L33.0079 5C33.0079 3.7207 32.1192 2.85156 30.7423 2.85156L27.461 2.85156C27.6661 3.83789 27.7637 5.00977 27.7637 6.38672C27.7637 7.74414 27.6563 8.91602 27.461 9.89258Z" fill="black" fill-opacity="0.425"/>
 </g>
</svg>
