<?xml version="1.0" encoding="UTF-8"?>
<!--Generator: Apple Native CoreSVG 326-->
<!DOCTYPE svg
PUBLIC "-//W3C//DTD SVG 1.1//EN"
       "http://www.w3.org/Graphics/SVG/1.1/DTD/svg11.dtd">
<svg version="1.1" xmlns="http://www.w3.org/2000/svg" xmlns:xlink="http://www.w3.org/1999/xlink" viewBox="0 0 27.9199 26.4355">
 <g>
  <rect height="26.4355" opacity="0" width="27.9199" x="0" y="0"/>
  <path d="M0 13.252C0 16.416 1.73828 18.125 5.0293 18.125L9.52148 18.125C13.916 18.6133 18.7109 20.0391 22.4219 22.5195L22.4219 20.5859C18.7598 18.1543 14.1309 16.8848 9.46289 16.3965L5.0293 16.3965C2.73438 16.3965 1.72852 15.4492 1.72852 13.252L1.72852 11.2891C1.72852 9.0918 2.73438 8.14453 5.0293 8.14453L9.375 8.14453C14.1113 7.66602 18.8184 6.35742 22.4219 3.95508L22.4219 2.02148C18.8379 4.49219 13.6621 5.98633 9.58984 6.41602L5.0293 6.41602C1.73828 6.41602 0 8.11523 0 11.2891ZM11.4941 17.9688L9.85352 17.9688L10.918 23.3984C11.0449 24.0723 10.7129 24.4922 10.2441 24.6582C9.74609 24.834 9.0918 24.6875 8.75 23.9453L5.86914 17.7441L4.0918 17.7441L7.03125 24.248C8.02734 26.4453 9.6875 26.6016 10.8887 26.2305C12.0703 25.8691 12.8125 24.7852 12.4902 23.1348ZM8.05664 7.25586L8.05664 17.2949L9.79492 17.2949L9.79492 7.25586ZM21.7969 21.6016C21.7969 23.3301 22.959 24.4727 24.6777 24.4727C26.4062 24.4727 27.5586 23.3301 27.5586 21.6016L27.5586 2.88086C27.5586 1.15234 26.4062 0 24.6777 0C22.959 0 21.7969 1.15234 21.7969 2.88086ZM23.5352 21.6016L23.5352 2.88086C23.5352 2.1875 23.9844 1.72852 24.6777 1.72852C25.3711 1.72852 25.8301 2.1875 25.8301 2.88086L25.8301 21.6016C25.8301 22.2852 25.3711 22.7441 24.6777 22.7441C23.9844 22.7441 23.5352 22.2852 23.5352 21.6016Z" fill="black" fill-opacity="0.85"/>
 </g>
</svg>
