<?xml version="1.0" ?><!-- Generator: Adobe Illustrator 25.0.0, SVG Export Plug-In . SVG Version: 6.00 Build 0)  --><svg xmlns="http://www.w3.org/2000/svg" xmlns:xlink="http://www.w3.org/1999/xlink" version="1.1" id="Layer_1" x="0px" y="0px" viewBox="0 0 512 512" style="enable-background:new 0 0 512 512;" xml:space="preserve">
<path d="M82.4,62.4h38.5V21.7c0-11.5-7.9-19.4-19.4-19.4c-11.5,0-19.1,7.9-19.1,19.4V62.4z M159.6,62.4h38.5V21.7  c0-11.5-7.9-19.4-19.4-19.4c-11.5,0-19.1,7.9-19.1,19.4V62.4z M236.8,62.4h38.5V21.7c0-11.5-7.9-19.4-19.4-19.4  c-11.5,0-19.1,7.9-19.1,19.4V62.4z M313.9,62.4h38.5V21.7c0-11.5-7.6-19.4-19.1-19.4c-11.5,0-19.4,7.9-19.4,19.4V62.4z M391.1,62.4  h38.5V21.7c0-11.5-7.6-19.4-19.1-19.4c-11.5,0-19.4,7.9-19.4,19.4V62.4z M75,416.9h362c50.2,0,75-24.8,75-74.1V169.2  c0-49.2-24.8-74.1-75-74.1H75c-49.9,0-75,24.6-75,74.1v173.7C0,392.3,25.1,416.9,75,416.9z M75.5,378.4c-23.9,0-37-12.7-37-37.5  V171.1c0-24.8,13.1-37.5,37-37.5h361c23.4,0,37,12.7,37,37.5v169.9c0,24.8-13.6,37.5-37,37.5H75.5z M82.4,449.6v40.6  c0,11.5,7.6,19.4,19.1,19.4c11.5,0,19.4-7.9,19.4-19.4v-40.6H82.4z M159.6,449.6v40.6c0,11.5,7.6,19.4,19.1,19.4  c11.5,0,19.4-7.9,19.4-19.4v-40.6H159.6z M236.8,449.6v40.6c0,11.5,7.6,19.4,19.1,19.4c11.5,0,19.4-7.9,19.4-19.4v-40.6H236.8z   M313.9,449.6v40.6c0,11.5,7.9,19.4,19.4,19.4c11.5,0,19.1-7.9,19.1-19.4v-40.6H313.9z M391.1,449.6v40.6c0,11.5,7.9,19.4,19.4,19.4  c11.5,0,19.1-7.9,19.1-19.4v-40.6H391.1z"/>
</svg>