<?xml version="1.0" ?><!-- Generator: Adobe Illustrator 25.0.0, SVG Export Plug-In . SVG Version: 6.00 Build 0)  --><svg xmlns="http://www.w3.org/2000/svg" xmlns:xlink="http://www.w3.org/1999/xlink" version="1.1" id="Layer_1" x="0px" y="0px" viewBox="0 0 512 512" style="enable-background:new 0 0 512 512;" xml:space="preserve">
<path d="M75,417h362c25,0,43.8-6.2,56.3-18.5c12.5-12.3,18.8-30.9,18.8-55.5V169.3c0-24.7-6.3-43.2-18.8-55.5  C480.7,101.4,462,95.2,437,95.2H75c-25,0-43.8,6.2-56.3,18.5C6.3,126.1,0,144.6,0,169.3V343c0,24.7,6.3,43.2,18.8,55.5  S50,417,75,417z M82.4,62.5h38.5V39.8c0-5.7-1.8-10.4-5.4-14c-3.6-3.6-8.2-5.4-14-5.4c-5.7,0-10.4,1.8-13.9,5.4  c-3.5,3.6-5.3,8.2-5.3,14V62.5z M159.6,62.5h38.5V39.8c0-5.7-1.8-10.4-5.4-14c-3.6-3.6-8.2-5.4-14-5.4c-5.7,0-10.4,1.8-13.9,5.4  c-3.5,3.6-5.3,8.2-5.3,14V62.5z M236.8,62.5h38.5V39.8c0-5.7-1.8-10.4-5.4-14c-3.6-3.6-8.2-5.4-14-5.4c-5.7,0-10.4,1.8-13.9,5.4  c-3.5,3.6-5.3,8.2-5.3,14V62.5z M313.9,62.5h38.5V39.8c0-5.7-1.8-10.4-5.3-14c-3.5-3.6-8.1-5.4-13.9-5.4c-5.7,0-10.4,1.8-14,5.4  c-3.6,3.6-5.4,8.2-5.4,14V62.5z M391.1,62.5h38.5V39.8c0-5.7-1.8-10.4-5.3-14c-3.5-3.6-8.1-5.4-13.9-5.4c-5.7,0-10.4,1.8-14,5.4  c-3.6,3.6-5.4,8.2-5.4,14V62.5z M82.4,449.8v22.7c0,5.7,1.8,10.4,5.3,13.9c3.5,3.5,8.1,5.3,13.9,5.3c5.7,0,10.4-1.8,14-5.3  c3.6-3.5,5.4-8.1,5.4-13.9v-22.7H82.4z M159.6,449.8v22.7c0,5.7,1.8,10.4,5.3,13.9c3.5,3.5,8.1,5.3,13.9,5.3c5.7,0,10.4-1.8,14-5.3  c3.6-3.5,5.4-8.1,5.4-13.9v-22.7H159.6z M236.8,449.8v22.7c0,5.7,1.8,10.4,5.3,13.9c3.5,3.5,8.1,5.3,13.9,5.3c5.7,0,10.4-1.8,14-5.3  c3.6-3.5,5.4-8.1,5.4-13.9v-22.7H236.8z M313.9,449.8v22.7c0,5.7,1.8,10.4,5.4,13.9c3.6,3.5,8.2,5.3,14,5.3c5.7,0,10.4-1.8,13.9-5.3  c3.5-3.5,5.3-8.1,5.3-13.9v-22.7H313.9z M391.1,449.8v22.7c0,5.7,1.8,10.4,5.4,13.9c3.6,3.5,8.2,5.3,14,5.3c5.7,0,10.4-1.8,13.9-5.3  c3.5-3.5,5.3-8.1,5.3-13.9v-22.7H391.1z"/>
</svg>