<?xml version="1.0" encoding="UTF-8"?>
<!--Generator: Apple Native CoreSVG 326-->
<!DOCTYPE svg
PUBLIC "-//W3C//DTD SVG 1.1//EN"
       "http://www.w3.org/Graphics/SVG/1.1/DTD/svg11.dtd">
<svg version="1.1" xmlns="http://www.w3.org/2000/svg" xmlns:xlink="http://www.w3.org/1999/xlink" viewBox="0 0 31.709 25.459">
 <g>
  <rect height="25.459" opacity="0" width="31.709" x="0" y="0"/>
  <path d="M15.6738 25.4395C22.6953 25.4395 28.3887 19.7266 28.3887 12.7246C28.3887 5.70312 22.6953 0 15.6738 0C8.65234 0 2.95898 5.70312 2.95898 12.7246L4.12109 12.7246L1.63086 9.31641C1.45508 9.0625 1.20117 8.90625 0.888672 8.90625C0.390625 8.90625 0 9.24805 0 9.74609C0 9.96094 0.0683594 10.1758 0.205078 10.3418L2.92969 13.6621C3.24219 14.0723 3.52539 14.2285 3.94531 14.2285C4.22852 14.2285 4.43359 14.1504 4.69727 13.9551L8.02734 11.4258C8.26172 11.25 8.39844 10.9863 8.39844 10.7031C8.39844 10.2051 7.99805 9.83398 7.53906 9.83398C7.33398 9.83398 7.14844 9.90234 6.98242 10.0195L3.59375 12.7246L4.77539 12.7246C4.77539 6.69922 9.64844 1.82617 15.6738 1.82617C21.6992 1.82617 26.5723 6.69922 26.5723 12.7246C26.5723 18.7402 21.6992 23.623 15.6738 23.623C11.748 23.623 8.88672 21.5723 7.41211 19.834C7.17773 19.5605 6.9043 19.4434 6.64062 19.4434C6.19141 19.4434 5.78125 19.7949 5.78125 20.2832C5.78125 20.5273 5.85938 20.8105 6.10352 21.084C7.66602 22.9297 10.9766 25.4395 15.6738 25.4395Z" fill="black" fill-opacity="0.85"/>
  <path d="M12.4512 16.9434C12.4512 17.4805 13.0566 17.7344 13.5742 17.4219L20.4297 13.3496C20.8984 13.0566 20.8887 12.4023 20.4297 12.1289L13.5742 8.02734C13.0859 7.74414 12.4512 7.96875 12.4512 8.50586Z" fill="black" fill-opacity="0.85"/>
 </g>
</svg>
