<?xml version="1.0" ?><!-- Generator: Adobe Illustrator 25.0.0, SVG Export Plug-In . SVG Version: 6.00 Build 0)  --><svg xmlns="http://www.w3.org/2000/svg" xmlns:xlink="http://www.w3.org/1999/xlink" version="1.1" id="Layer_1" x="0px" y="0px" viewBox="0 0 512 512" style="enable-background:new 0 0 512 512;" xml:space="preserve">
<path d="M111.5,464.6l259.2,45.8c15.5,2.7,28.8,1.8,40-2.7c11.2-4.6,19.8-12.4,25.8-23.6c6-11.2,9-25.2,9-42.1v-282  c0-23.3-5.9-40-17.8-50.1c-11.9-10.2-29.3-17.2-52.4-21.2L123.8,44.3c-11.5-2-21.6-1.4-30.2,1.8c-8.6,3.2-15.2,8.7-19.9,16.4  c-4.7,7.8-7.1,17.3-7.1,28.7v321.6c0,14.6,3.8,26.2,11.3,34.9C85.4,456.4,96.6,462.1,111.5,464.6z M120.4,428.4  c-5.8-0.9-10.1-3.1-12.9-6.5c-2.8-3.4-4.2-8.2-4.2-14.2V97.4c0-6.1,1.9-10.6,5.8-13.6c3.9-3,9.2-3.8,15.8-2.6l248.5,43.5  c11.5,2.1,20.3,5.8,26.3,11.1c6,5.2,9,13.2,9,23.8v278.5c0,12.9-3.5,22.4-10.6,28.5c-7.1,6.1-16.8,8-29.1,5.7L120.4,428.4z   M388.4,116.8h36.7V63.5c0-24-7.6-41.4-22.8-52.2C387.1,0.5,366-2.6,339,2.1L100.8,44.3L114.4,76L352,36.6c11.4-2,20.3-0.7,26.8,3.9  c6.5,4.6,9.7,11.8,9.7,21.7V116.8z M160.3,181.5l175.7,31c5.3,0.9,9.5-0.1,12.7-3c3.1-2.9,4.7-6.7,4.7-11.4  c0-8.4-4.1-13.3-12.3-14.8l-174.8-30.5c-5.2-0.9-9.4,0-12.8,2.6c-3.3,2.7-5,6.3-5,11.1c0,4,1,7.3,3.1,10  C153.5,179.3,156.5,180.9,160.3,181.5z M160.3,270.4l175.7,31c5.3,0.9,9.5-0.1,12.7-3c3.1-2.9,4.7-6.7,4.7-11.4  c0-8.4-4.1-13.3-12.3-14.8l-174.8-30.5c-5.2-0.9-9.4,0-12.8,2.7c-3.3,2.7-5,6.4-5,10.9c0,4.1,1,7.5,3.1,10.1  C153.5,268.2,156.5,269.8,160.3,270.4z"/>
</svg>