<?xml version="1.0" ?><!-- Generator: Adobe Illustrator 25.0.0, SVG Export Plug-In . SVG Version: 6.00 Build 0)  --><svg xmlns="http://www.w3.org/2000/svg" xmlns:xlink="http://www.w3.org/1999/xlink" version="1.1" id="Layer_1" x="0px" y="0px" viewBox="0 0 512 512" style="enable-background:new 0 0 512 512;" xml:space="preserve">
<path d="M115.6,466l251.8,44.4c15,2.8,28,1.9,38.8-2.5c10.8-4.5,19.1-12.1,25-23c5.8-10.9,8.7-24.6,8.7-41V166.1  c0-22.6-5.7-38.7-17.1-48.6c-11.4-9.8-28.4-16.7-50.8-20.7L127.6,53.5c-11.2-1.8-20.9-1.2-29.2,2C90,58.6,83.6,63.9,79,71.3  c-4.6,7.4-6.9,16.7-6.9,27.7v316.7c0,14.3,3.6,25.6,10.9,34C90.3,458.1,101.2,463.5,115.6,466z M157,181.3c-4-0.6-7.1-2.3-9.2-5.2  c-2.1-2.8-3.2-6.3-3.2-10.5c0-4.9,1.7-8.8,5.2-11.6c3.5-2.8,7.9-3.8,13.5-2.9l181.8,31.8c8.6,1.8,12.9,7.1,12.9,15.7  c0,4.9-1.6,8.9-4.8,11.9c-3.2,3-7.7,4-13.4,3.1L157,181.3z M157,273.8c-4-0.6-7.1-2.3-9.2-5.2c-2.1-2.8-3.2-6.3-3.2-10.5  c0-4.8,1.7-8.6,5.2-11.4c3.5-2.8,7.9-3.8,13.5-2.9l181.8,31.8c8.6,1.5,12.9,6.7,12.9,15.4c0,5.1-1.6,9.1-4.8,12.1  c-3.2,3-7.7,4-13.4,3.1L157,273.8z M178.4,30.7l199.1,35c19.3,3.5,35.8,9,49.3,16.3v-18c0-24.2-7.7-41.8-23-52.7  c-15.3-10.9-36.7-14-64-9.2L178.4,30.7z"/>
</svg>