<?xml version="1.0" encoding="UTF-8"?>
<!--Generator: Apple Native CoreSVG 326-->
<!DOCTYPE svg
PUBLIC "-//W3C//DTD SVG 1.1//EN"
       "http://www.w3.org/Graphics/SVG/1.1/DTD/svg11.dtd">
<svg version="1.1" xmlns="http://www.w3.org/2000/svg" xmlns:xlink="http://www.w3.org/1999/xlink" viewBox="0 0 29.9512 22.959">
 <g>
  <rect height="22.959" opacity="0" width="29.9512" x="0" y="0"/>
  <path d="M1.14258 4.0625L1.14258 5.5957L28.4473 5.5957L28.4473 4.0625ZM3.79883 22.959L25.7812 22.959C28.3105 22.959 29.5898 21.6797 29.5898 19.1992L29.5898 3.76953C29.5898 1.2793 28.3105 0 25.7812 0L3.79883 0C1.2793 0 0 1.26953 0 3.76953L0 19.1992C0 21.6992 1.2793 22.959 3.79883 22.959ZM3.83789 21.2305C2.4707 21.2305 1.72852 20.5078 1.72852 19.1016L1.72852 3.85742C1.72852 2.46094 2.4707 1.72852 3.83789 1.72852L25.752 1.72852C27.0898 1.72852 27.8516 2.46094 27.8516 3.85742L27.8516 19.1016C27.8516 20.5078 27.0898 21.2305 25.752 21.2305Z" fill="black" fill-opacity="0.85"/>
  <path d="M14.8047 18.2031C15.2637 18.2031 15.6543 17.8223 15.6543 17.3633L15.6543 12.959L15.5859 10.7031L17.0215 12.1875L18.6035 13.7695C18.7695 13.9355 18.9746 14.0234 19.1895 14.0234C19.6582 14.0234 19.9902 13.7109 19.9902 13.2617C19.9902 12.998 19.873 12.8027 19.6777 12.627L15.4297 8.60352C15.2051 8.39844 15.0293 8.31055 14.8047 8.31055C14.5703 8.31055 14.4043 8.39844 14.1699 8.60352L9.92188 12.627C9.72656 12.8027 9.60938 12.998 9.60938 13.2617C9.60938 13.7109 9.93164 14.0234 10.4004 14.0234C10.6152 14.0234 10.8398 13.9355 10.9961 13.7695L12.5781 12.1875L14.0137 10.7031L13.9453 12.959L13.9453 17.3633C13.9453 17.8223 14.3359 18.2031 14.8047 18.2031Z" fill="black" fill-opacity="0.85"/>
 </g>
</svg>
