<?xml version="1.0" encoding="UTF-8"?>
<!--Generator: Apple Native CoreSVG 326-->
<!DOCTYPE svg
PUBLIC "-//W3C//DTD SVG 1.1//EN"
       "http://www.w3.org/Graphics/SVG/1.1/DTD/svg11.dtd">
<svg version="1.1" xmlns="http://www.w3.org/2000/svg" xmlns:xlink="http://www.w3.org/1999/xlink" viewBox="0 0 29.9512 22.959">
 <g>
  <rect height="22.959" opacity="0" width="29.9512" x="0" y="0"/>
  <path d="M1.14258 4.0625L1.14258 5.5957L28.4473 5.5957L28.4473 4.0625ZM3.79883 22.959L25.7812 22.959C28.3105 22.959 29.5898 21.6797 29.5898 19.1992L29.5898 3.76953C29.5898 1.2793 28.3105 0 25.7812 0L3.79883 0C1.2793 0 0 1.26953 0 3.76953L0 19.1992C0 21.6992 1.2793 22.959 3.79883 22.959ZM3.83789 21.2305C2.4707 21.2305 1.72852 20.5078 1.72852 19.1016L1.72852 3.85742C1.72852 2.46094 2.4707 1.72852 3.83789 1.72852L25.752 1.72852C27.0898 1.72852 27.8516 2.46094 27.8516 3.85742L27.8516 19.1016C27.8516 20.5078 27.0898 21.2305 25.752 21.2305Z" fill="black" fill-opacity="0.85"/>
  <path d="M14.8047 8.31055C14.3359 8.31055 13.9453 8.69141 13.9453 9.15039L13.9453 13.5547L14.0137 15.8105L12.5781 14.3262L10.9961 12.7441C10.8398 12.5781 10.6152 12.4902 10.4004 12.4902C9.93164 12.4902 9.60938 12.8027 9.60938 13.252C9.60938 13.5254 9.72656 13.7207 9.92188 13.8965L14.1699 17.9102C14.4043 18.125 14.5703 18.2031 14.8047 18.2031C15.0293 18.2031 15.2051 18.1152 15.4297 17.9102L19.6777 13.8965C19.873 13.7207 19.9902 13.5254 19.9902 13.252C19.9902 12.8027 19.6582 12.4902 19.1895 12.4902C18.9746 12.4902 18.7695 12.5781 18.6035 12.7441L17.0215 14.3262L15.5859 15.8105L15.6543 13.5547L15.6543 9.15039C15.6543 8.69141 15.2637 8.31055 14.8047 8.31055Z" fill="black" fill-opacity="0.85"/>
 </g>
</svg>
