<?xml version="1.0" encoding="UTF-8"?>
<!--Generator: Apple Native CoreSVG 326-->
<!DOCTYPE svg
PUBLIC "-//W3C//DTD SVG 1.1//EN"
       "http://www.w3.org/Graphics/SVG/1.1/DTD/svg11.dtd">
<svg version="1.1" xmlns="http://www.w3.org/2000/svg" xmlns:xlink="http://www.w3.org/1999/xlink" viewBox="0 0 25.8008 25.459">
 <g>
  <rect height="25.459" opacity="0" width="25.8008" x="0" y="0"/>
  <path d="M12.7148 25.4395C19.7363 25.4395 25.4395 19.7461 25.4395 12.7246C25.4395 5.70312 19.7363 0 12.7148 0C5.69336 0 0 5.70312 0 12.7246C0 19.7461 5.69336 25.4395 12.7148 25.4395ZM12.7148 23.623C6.68945 23.623 1.81641 18.75 1.81641 12.7246C1.81641 6.69922 6.68945 1.82617 12.7148 1.82617C18.7402 1.82617 23.6133 6.69922 23.6133 12.7246C23.6133 18.75 18.7402 23.623 12.7148 23.623Z" fill="black" fill-opacity="0.85"/>
  <path d="M12.7051 18.0859C16.6406 18.0859 19.7266 15.5176 19.7266 12.3633C19.7266 9.20898 16.6406 6.64062 12.7051 6.64062C8.7793 6.64062 5.69336 9.20898 5.69336 12.3633C5.69336 14.3457 6.93359 16.0938 8.80859 17.1484C8.96484 17.2168 8.96484 17.3535 8.89648 17.4902C8.67188 17.9102 8.32031 18.3301 8.05664 18.623C7.71484 19.0039 7.8125 19.4238 8.34961 19.4238C9.02344 19.4238 10.3027 18.916 11.543 18.1641C11.6602 18.0957 11.7383 18.0566 11.875 18.0664C12.1289 18.0762 12.4121 18.0859 12.7051 18.0859Z" fill="black" fill-opacity="0.85"/>
 </g>
</svg>
