<?xml version="1.0" ?><!-- Generator: Adobe Illustrator 25.0.0, SVG Export Plug-In . SVG Version: 6.00 Build 0)  --><svg xmlns="http://www.w3.org/2000/svg" xmlns:xlink="http://www.w3.org/1999/xlink" version="1.1" id="Layer_1" x="0px" y="0px" viewBox="0 0 512 512" style="enable-background:new 0 0 512 512;" xml:space="preserve">
<path d="M313.2,347.5h162.2L318.7,40.2c-12.1-24-37.9-39.2-62.7-39.2c-24.5,0-50.6,15.3-62.7,39.2l-63.5,124.3l106.4,106.1v-143  c0-13.2,7.9-21.6,20.8-21.6c13.2,0,21.1,8.4,21.1,21.6v184.6L313.2,347.5z M212.3,347.5h59.8l-227-227c-9-8.7-20.5-9-29.8,0  c-9.5,9.2-9,21.3,0,30.3L212.3,347.5z M36.6,347.5H173l-90.3-90.3L36.6,347.5z M73.7,511.1h364.5c46.4,0,73.7-32.7,73.7-70.8  c0-13.4-3.4-27.7-10.3-41.3l-8.2-15.5H18.4l-8.2,15.8C3.4,412.3,0,426.8,0,440.2C0,478.4,27.4,511.1,73.7,511.1z"/>
</svg>