<?xml version="1.0" ?><!-- Generator: Adobe Illustrator 25.0.0, SVG Export Plug-In . SVG Version: 6.00 Build 0)  --><svg xmlns="http://www.w3.org/2000/svg" xmlns:xlink="http://www.w3.org/1999/xlink" version="1.1" id="Layer_1" x="0px" y="0px" viewBox="0 0 512 512" style="enable-background:new 0 0 512 512;" xml:space="preserve">
<path d="M256.1,334.8c47.8,0,80-35.8,80-87V87c0-51.4-32.2-87-80-87c-48.1,0-80.3,35.6-80.3,87v160.8  C175.8,299,208,334.8,256.1,334.8z M84,251.7c0,94.2,62.3,160.3,153.8,168v56h-89.2c-10.1,0-18.3,8.2-18.3,18.3  c0,10.1,8.2,18,18.3,18h214.7c10.1,0,18.3-7.9,18.3-18c0-10.1-8.2-18.3-18.3-18.3h-89.2v-56C366,412,428,345.9,428,251.7v-48.8  c0-10.1-7.9-18-18-18c-10.1,0-18.3,7.9-18.3,18v47.4c0,82-53.4,136.3-135.6,136.3c-82.4,0-135.8-54.3-135.8-136.3v-47.4  c0-10.1-7.9-18-18.3-18c-10.1,0-18,7.9-18,18V251.7z"/>
</svg>