<?xml version="1.0" ?><!-- Generator: Adobe Illustrator 25.0.0, SVG Export Plug-In . SVG Version: 6.00 Build 0)  --><svg xmlns="http://www.w3.org/2000/svg" xmlns:xlink="http://www.w3.org/1999/xlink" version="1.1" id="Layer_1" x="0px" y="0px" viewBox="0 0 512 512" style="enable-background:new 0 0 512 512;" xml:space="preserve">
<path d="M87.3,512h337.3c29.1,0,50.9-7.2,65.5-21.6c14.6-14.4,21.8-35.9,21.8-64.7V86.2c0-28.7-7.3-50.3-21.8-64.7  C475.6,7.2,453.8,0,424.7,0H87.3C58.2,0,36.4,7.2,21.8,21.6C7.3,35.9,0,57.5,0,86.2v339.6c0,28.7,7.3,50.3,21.8,64.7  C36.4,504.8,58.2,512,87.3,512z" class="multicolor-0:systemOrangeColor hierarchical-0:tertiary SFSymbolsPreviewFF9500" style="fill: #FF9500;"/>
<path d="M256.1,310.9c-14.1,0-25.5-4.9-34.3-14.6c-8.8-9.7-13.2-21.9-13.2-36.6V136.8c0-14.5,4.4-26.5,13.2-36  c8.8-9.5,20.3-14.3,34.3-14.3c14.1,0,25.5,4.8,34.3,14.3c8.8,9.5,13.2,21.6,13.2,36v122.9c0,14.6-4.4,26.8-13.2,36.6  C281.7,306.1,270.2,310.9,256.1,310.9z M183.3,427.7c-4.1,0-7.7-1.5-10.8-4.4c-3.2-3-4.7-6.6-4.7-10.8c0-4.1,1.6-7.7,4.7-10.8  c3.2-3.2,6.8-4.7,10.8-4.7h57.6v-28.9c-19.1-2-35.8-8-50.1-17.8c-14.3-9.8-25.4-22.5-33.4-38c-8-15.5-12-33-12-52.4v-37  c0-3.9,1.5-7.4,4.6-10.4c3.1-3.1,6.6-4.6,10.7-4.6c4.1,0,7.6,1.5,10.6,4.6c3,3.1,4.4,6.5,4.4,10.4v37c0,15.6,3.4,29.4,10.3,41.4  c6.9,12.1,16.3,21.5,28.4,28.4c12.1,6.9,26,10.3,41.7,10.3s29.7-3.4,41.9-10.3c12.1-6.9,21.6-16.3,28.5-28.4  c6.9-12.1,10.3-25.9,10.3-41.4v-37c0-3.9,1.5-7.4,4.5-10.4c3-3.1,6.5-4.6,10.6-4.6c4.1,0,7.6,1.5,10.7,4.6c3.1,3.1,4.6,6.5,4.6,10.4  v37c0,19.5-4,36.9-12,52.4c-8,15.5-19.1,28.1-33.4,37.8c-14.3,9.7-30.9,15.7-49.8,17.9v28.9h57.3c4.3,0,7.9,1.6,11,4.7  c3.1,3.2,4.6,6.8,4.6,10.8s-1.6,7.6-4.7,10.7c-3.2,3.1-6.8,4.6-10.8,4.6H183.3z" class="multicolor-1:white hierarchical-1:primary SFSymbolsPreviewFFFFFF" style="fill: #FFFFFF;"/>
</svg>