<?xml version="1.0" ?><!-- Generator: Adobe Illustrator 25.0.0, SVG Export Plug-In . SVG Version: 6.00 Build 0)  --><svg xmlns="http://www.w3.org/2000/svg" xmlns:xlink="http://www.w3.org/1999/xlink" version="1.1" id="Layer_1" x="0px" y="0px" viewBox="0 0 512 512" style="enable-background:new 0 0 512 512;" xml:space="preserve">
<path d="M256,512c140,0,256-116.2,256-256C512,116,395.8,0,255.7,0C116,0,0,116,0,256C0,395.8,116.2,512,256,512z M256,469.3  c-118.5,0-213.1-94.9-213.1-213.3S137.3,42.7,255.7,42.7S469.1,137.5,469.3,256S374.5,469.3,256,469.3z M255.7,304.4  c24.6,0,41.7-19.1,41.7-44.4V152.3c0-25.6-17.1-44.4-41.7-44.4c-24.6,0-41.7,18.8-41.7,44.4V260  C214.1,285.4,231.2,304.4,255.7,304.4z M192,406.8h127.7c7,0,13.3-6.3,13.3-13.3c0-7.3-6-13.8-13.3-13.8h-50.2v-25.1  c49.7-5.8,83.3-43.9,83.3-94.9v-32.1c0-7-6.3-13.3-13.3-13.3c-7.3,0-13.3,6.3-13.3,13.3v32.1c0,41.2-29.1,70-70.5,70  c-41.4,0-70.3-28.9-70.3-70v-32.1c0-7-6.3-13.3-13.6-13.3c-7,0-13.1,6.3-13.1,13.3v32.1c0,50.9,33.6,89.3,83.6,94.9v25.1H192  c-7.3,0-13.6,6.5-13.6,13.8C178.4,400.8,184.7,406.8,192,406.8z"/>
</svg>