<?xml version="1.0" ?><!-- Generator: Adobe Illustrator 25.0.0, SVG Export Plug-In . SVG Version: 6.00 Build 0)  --><svg xmlns="http://www.w3.org/2000/svg" xmlns:xlink="http://www.w3.org/1999/xlink" version="1.1" id="Layer_1" x="0px" y="0px" viewBox="0 0 512 512" style="enable-background:new 0 0 512 512;" xml:space="preserve">
<path d="M339.3,93.8c0-55.3-35.4-93.8-87.1-93.8c-47.1,0-80.9,32.5-86.1,80.4V90l35.2,34.9V93.8c0-35.4,20.3-58.1,51-58.1  s51,22.7,51,58.1v127c0,1.9-0.2,3.8-0.2,5.5l34.9,34.9c1-5.5,1.4-11.2,1.4-17V93.8z M428.1,443.8c7.2,7.2,18.9,7.2,26.1,0  c6.9-7.4,7.2-18.9,0-26.1L84.1,47.9c-7.2-6.9-19.1-7.2-26.3,0c-6.9,7.2-6.9,19.1,0,26.1L428.1,443.8z M145.3,512h213.9  c10,0,17.9-7.9,17.9-17.9c0-10-7.9-18.2-17.9-18.2h-88.8v-55.7c26.8-2.2,51.2-9.6,72-21.3l-25.8-25.6c-18.2,8.9-40,13.9-64.4,13.9  c-81.8,0-134.9-54.1-134.9-135.7v-47.1c0-10-8.1-17.9-18.2-17.9c-10,0-17.9,7.9-17.9,17.9v48.6c0,94,61.7,159.6,153.1,167.2v55.7  h-89c-10,0-17.9,8.1-17.9,18.2C127.4,504.1,135.3,512,145.3,512z M379.1,302.2l28,28c10.5-22.5,16.5-48.6,16.5-77.3v-48.6  c0-10-8.1-17.9-18.2-17.9c-10,0-17.9,7.9-17.9,17.9v47.1C387.4,269.9,384.6,286.9,379.1,302.2z M252.2,338.1  c9.3,0,17.7-1.4,25.4-4.1l-36.8-36.8c-1.7,1-3.8,1.2-6.2,1.2c-14.1-3.1-24.2-14.4-27.5-28.9l-0.2-6l-41.6-41.6v22.5  C165.2,299.3,200.8,338.1,252.2,338.1z"/>
</svg>