<?xml version="1.0" encoding="UTF-8"?>
<!--Generator: Apple Native CoreSVG 326-->
<!DOCTYPE svg
PUBLIC "-//W3C//DTD SVG 1.1//EN"
       "http://www.w3.org/Graphics/SVG/1.1/DTD/svg11.dtd">
<svg version="1.1" xmlns="http://www.w3.org/2000/svg" xmlns:xlink="http://www.w3.org/1999/xlink" viewBox="0 0 26.6309 26.2988">
 <g>
  <rect height="26.2988" opacity="0" width="26.6309" x="0" y="0"/>
  <path d="M13.125 21.1816C17.5684 21.1816 21.1719 17.5781 21.1719 13.125C21.1719 8.68164 17.5684 5.07812 13.125 5.07812C8.67188 5.07812 5.06836 8.68164 5.06836 13.125C5.06836 17.5781 8.67188 21.1816 13.125 21.1816ZM13.1348 2.40234C13.8086 2.40234 14.3359 1.875 14.3359 1.20117C14.3359 0.537109 13.8086 0 13.1348 0C12.4707 0 11.9336 0.537109 11.9336 1.20117C11.9336 1.875 12.4707 2.40234 13.1348 2.40234ZM19.0918 4.00391C19.7656 4.00391 20.293 3.47656 20.293 2.8125C20.293 2.13867 19.7656 1.61133 19.0918 1.61133C18.4277 1.61133 17.9004 2.13867 17.9004 2.8125C17.9004 3.47656 18.4277 4.00391 19.0918 4.00391ZM23.4668 8.36914C24.1406 8.36914 24.668 7.8418 24.668 7.16797C24.668 6.50391 24.1406 5.97656 23.4668 5.97656C22.8027 5.97656 22.2656 6.50391 22.2656 7.16797C22.2656 7.8418 22.8027 8.36914 23.4668 8.36914ZM25.0781 14.3359C25.7422 14.3359 26.2695 13.8086 26.2695 13.1445C26.2695 12.4707 25.7422 11.9434 25.0781 11.9434C24.4043 11.9434 23.877 12.4707 23.877 13.1445C23.877 13.8086 24.4043 14.3359 25.0781 14.3359ZM23.4668 20.3125C24.1406 20.3125 24.668 19.7754 24.668 19.1113C24.668 18.4375 24.1406 17.9102 23.4668 17.9102C22.8027 17.9102 22.2656 18.4375 22.2656 19.1113C22.2656 19.7754 22.8027 20.3125 23.4668 20.3125ZM19.0918 24.6777C19.7656 24.6777 20.293 24.1406 20.293 23.4766C20.293 22.8027 19.7656 22.2754 19.0918 22.2754C18.4277 22.2754 17.9004 22.8027 17.9004 23.4766C17.9004 24.1406 18.4277 24.6777 19.0918 24.6777ZM13.1348 26.2793C13.8086 26.2793 14.3359 25.7422 14.3359 25.0781C14.3359 24.4141 13.8086 23.877 13.1348 23.877C12.4707 23.877 11.9336 24.4141 11.9336 25.0781C11.9336 25.7422 12.4707 26.2793 13.1348 26.2793ZM7.17773 24.6777C7.8418 24.6777 8.37891 24.1406 8.37891 23.4766C8.37891 22.8027 7.8418 22.2754 7.17773 22.2754C6.51367 22.2754 5.97656 22.8027 5.97656 23.4766C5.97656 24.1406 6.51367 24.6777 7.17773 24.6777ZM2.80273 20.3125C3.47656 20.3125 4.00391 19.7754 4.00391 19.1113C4.00391 18.4375 3.47656 17.9102 2.80273 17.9102C2.13867 17.9102 1.60156 18.4375 1.60156 19.1113C1.60156 19.7754 2.13867 20.3125 2.80273 20.3125ZM1.20117 14.3359C1.86523 14.3359 2.40234 13.8086 2.40234 13.1445C2.40234 12.4707 1.86523 11.9434 1.20117 11.9434C0.527344 11.9434 0 12.4707 0 13.1445C0 13.8086 0.527344 14.3359 1.20117 14.3359ZM2.80273 8.36914C3.47656 8.36914 4.00391 7.8418 4.00391 7.16797C4.00391 6.50391 3.47656 5.97656 2.80273 5.97656C2.13867 5.97656 1.60156 6.50391 1.60156 7.16797C1.60156 7.8418 2.13867 8.36914 2.80273 8.36914ZM7.17773 4.00391C7.8418 4.00391 8.37891 3.47656 8.37891 2.8125C8.37891 2.13867 7.8418 1.61133 7.17773 1.61133C6.51367 1.61133 5.97656 2.13867 5.97656 2.8125C5.97656 3.47656 6.51367 4.00391 7.17773 4.00391Z" fill="black" fill-opacity="0.85"/>
 </g>
</svg>
