<?xml version="1.0" encoding="UTF-8"?>
<!--Generator: Apple Native CoreSVG 326-->
<!DOCTYPE svg
PUBLIC "-//W3C//DTD SVG 1.1//EN"
       "http://www.w3.org/Graphics/SVG/1.1/DTD/svg11.dtd">
<svg version="1.1" xmlns="http://www.w3.org/2000/svg" xmlns:xlink="http://www.w3.org/1999/xlink" viewBox="0 0 29.3164 18.5449">
 <g>
  <rect height="18.5449" opacity="0" width="29.3164" x="0" y="0"/>
  <path d="M2.46094 18.5449L19.6094 18.5449L19.6094 0.00976562L2.46094 0.00976562C0.986328 0.00976562 0 1.03516 0 2.58789L0 15.9668C0 17.5195 0.986328 18.5449 2.46094 18.5449ZM3.86719 15.5859C3.11523 15.5859 2.63672 15.0977 2.63672 14.3457L2.63672 4.20898C2.63672 3.45703 3.11523 2.96875 3.86719 2.96875L16.1816 2.96875C16.9434 2.96875 17.4219 3.45703 17.4219 4.20898L17.4219 14.3457C17.4219 15.0977 16.9434 15.5859 16.1816 15.5859ZM4.26758 14.3457L15.7715 14.3457C16.0156 14.3457 16.1816 14.1797 16.1816 13.9453L16.1816 4.60938C16.1816 4.375 16.0156 4.20898 15.7715 4.20898L4.26758 4.20898C4.0332 4.20898 3.86719 4.375 3.86719 4.60938L3.86719 13.9453C3.86719 14.1797 4.0332 14.3457 4.26758 14.3457ZM20.8398 12.8906L28.9551 12.8906L28.9551 2.58789C28.9551 1.03516 27.9688 0.00976562 26.4941 0.00976562L20.8398 0.00976562ZM22.8711 5.60547C22.7441 5.60547 22.627 5.49805 22.627 5.36133L22.627 3.21289C22.627 3.08594 22.7441 2.96875 22.8711 2.96875L26.6406 2.96875C26.7773 2.96875 26.8848 3.08594 26.8848 3.21289L26.8848 5.36133C26.8848 5.49805 26.7773 5.60547 26.6406 5.60547ZM23.2227 7.75391C22.8711 7.75391 22.627 7.50977 22.627 7.16797C22.627 6.82617 22.8711 6.58203 23.2227 6.58203L26.2988 6.58203C26.6406 6.58203 26.8848 6.82617 26.8848 7.16797C26.8848 7.50977 26.6406 7.75391 26.2988 7.75391ZM23.2227 9.92188C22.8711 9.92188 22.627 9.6875 22.627 9.32617C22.627 8.98438 22.8711 8.75 23.2227 8.75L26.2988 8.75C26.6406 8.75 26.8848 8.98438 26.8848 9.32617C26.8848 9.6875 26.6406 9.92188 26.2988 9.92188ZM20.8398 18.5449L26.4941 18.5449C27.9688 18.5449 28.9551 17.5195 28.9551 15.9668L28.9551 14.1309L20.8398 14.1309Z" fill="black" fill-opacity="0.85"/>
 </g>
</svg>
