<?xml version="1.0" encoding="UTF-8"?>
<!--Generator: Apple Native CoreSVG 326-->
<!DOCTYPE svg
PUBLIC "-//W3C//DTD SVG 1.1//EN"
       "http://www.w3.org/Graphics/SVG/1.1/DTD/svg11.dtd">
<svg version="1.1" xmlns="http://www.w3.org/2000/svg" xmlns:xlink="http://www.w3.org/1999/xlink" viewBox="0 0 26.3281 28.6621">
 <g>
  <rect height="28.6621" opacity="0" width="26.3281" x="0" y="0"/>
  <path d="M2.00195 6.5332C3.11523 6.5332 4.00391 5.64453 4.00391 4.53125C4.00391 3.42773 3.11523 2.5293 2.00195 2.5293C0.898438 2.5293 0 3.42773 0 4.53125C0 5.64453 0.898438 6.5332 2.00195 6.5332Z" fill="black" fill-opacity="0.85"/>
  <path d="M2.00195 13.0566C3.11523 13.0566 4.00391 12.1582 4.00391 11.0547C4.00391 9.94141 3.11523 9.05273 2.00195 9.05273C0.898438 9.05273 0 9.94141 0 11.0547C0 12.1582 0.898438 13.0566 2.00195 13.0566Z" fill="black" fill-opacity="0.85"/>
  <path d="M2.00195 19.5996C3.11523 19.5996 4.00391 18.7012 4.00391 17.5977C4.00391 16.4844 3.11523 15.5859 2.00195 15.5859C0.898438 15.5859 0 16.4844 0 17.5977C0 18.7012 0.898438 19.5996 2.00195 19.5996Z" fill="black" fill-opacity="0.85"/>
  <path d="M2.00195 26.1133C3.11523 26.1133 4.00391 25.2246 4.00391 24.1113C4.00391 23.0078 3.11523 22.1094 2.00195 22.1094C0.898438 22.1094 0 23.0078 0 24.1113C0 25.2246 0.898438 26.1133 2.00195 26.1133Z" fill="black" fill-opacity="0.85"/>
  <path d="M8.36914 13.291C8.36914 18.1152 11.5723 21.5234 16.3477 21.875L16.3477 25.127L11.5332 25.127C11.084 25.127 10.7227 25.4883 10.7227 25.9375C10.7227 26.3867 11.084 26.7578 11.5332 26.7578L22.793 26.7578C23.252 26.7578 23.6133 26.3867 23.6133 25.9375C23.6133 25.4883 23.252 25.127 22.793 25.127L17.9785 25.127L17.9785 21.875C22.7637 21.5234 25.9668 18.1152 25.9668 13.291L25.9668 10.791C25.9668 10.3418 25.6055 9.98047 25.1562 9.98047C24.6973 9.98047 24.3359 10.3418 24.3359 10.791L24.3359 13.2324C24.3359 17.4902 21.5137 20.3711 17.168 20.3711C12.8223 20.3711 10 17.4902 10 13.2324L10 10.791C10 10.3418 9.63867 9.98047 9.17969 9.98047C8.73047 9.98047 8.36914 10.3418 8.36914 10.791ZM12.7441 12.8125C12.7441 15.5957 14.5312 17.5879 17.168 17.5879C19.8047 17.5879 21.5918 15.5957 21.5918 12.8125L21.5918 4.77539C21.5918 1.99219 19.8047 0 17.168 0C14.5312 0 12.7441 1.99219 12.7441 4.77539ZM14.375 12.8125L14.375 4.77539C14.375 2.88086 15.4785 1.60156 17.168 1.60156C18.8574 1.60156 19.9609 2.88086 19.9609 4.77539L19.9609 12.8125C19.9609 14.707 18.8574 15.9863 17.168 15.9863C15.4785 15.9863 14.375 14.707 14.375 12.8125Z" fill="black" fill-opacity="0.85"/>
 </g>
</svg>
