<?xml version="1.0" encoding="UTF-8"?>
<!--Generator: Apple Native CoreSVG 326-->
<!DOCTYPE svg
PUBLIC "-//W3C//DTD SVG 1.1//EN"
       "http://www.w3.org/Graphics/SVG/1.1/DTD/svg11.dtd">
<svg version="1.1" xmlns="http://www.w3.org/2000/svg" xmlns:xlink="http://www.w3.org/1999/xlink" viewBox="0 0 17.959 28.6621">
 <g>
  <rect height="28.6621" opacity="0" width="17.959" x="0" y="0"/>
  <path d="M0 13.291C0 18.1152 3.20312 21.5234 7.98828 21.875L7.98828 25.127L3.17383 25.127C2.71484 25.127 2.35352 25.4883 2.35352 25.9375C2.35352 26.3867 2.71484 26.7578 3.17383 26.7578L14.4336 26.7578C14.8828 26.7578 15.2441 26.3867 15.2441 25.9375C15.2441 25.4883 14.8828 25.127 14.4336 25.127L9.61914 25.127L9.61914 21.875C14.3945 21.5234 17.5977 18.1152 17.5977 13.291L17.5977 10.791C17.5977 10.3418 17.2363 9.98047 16.7871 9.98047C16.3281 9.98047 15.9668 10.3418 15.9668 10.791L15.9668 13.2324C15.9668 17.4902 13.1445 20.3711 8.79883 20.3711C4.45312 20.3711 1.63086 17.4902 1.63086 13.2324L1.63086 10.791C1.63086 10.3418 1.26953 9.98047 0.820312 9.98047C0.361328 9.98047 0 10.3418 0 10.791ZM4.375 12.8125C4.375 15.5957 6.16211 17.5879 8.79883 17.5879C11.4355 17.5879 13.2227 15.5957 13.2227 12.8125L13.2227 4.77539C13.2227 1.99219 11.4355 0 8.79883 0C6.16211 0 4.375 1.99219 4.375 4.77539ZM6.01562 12.8125L6.01562 4.77539C6.01562 2.88086 7.10938 1.60156 8.79883 1.60156C10.4883 1.60156 11.5918 2.88086 11.5918 4.77539L11.5918 12.8125C11.5918 14.707 10.4883 15.9863 8.79883 15.9863C7.10938 15.9863 6.01562 14.707 6.01562 12.8125Z" fill="black" fill-opacity="0.85"/>
 </g>
</svg>
