<?xml version="1.0" encoding="UTF-8"?>
<!--Generator: Apple Native CoreSVG 326-->
<!DOCTYPE svg
PUBLIC "-//W3C//DTD SVG 1.1//EN"
       "http://www.w3.org/Graphics/SVG/1.1/DTD/svg11.dtd">
<svg version="1.1" xmlns="http://www.w3.org/2000/svg" xmlns:xlink="http://www.w3.org/1999/xlink" viewBox="0 0 25.8008 25.459">
 <g>
  <rect height="25.459" opacity="0" width="25.8008" x="0" y="0"/>
  <path d="M12.7148 25.4395C19.7363 25.4395 25.4395 19.7461 25.4395 12.7246C25.4395 5.70312 19.7363 0 12.7148 0C5.69336 0 0 5.70312 0 12.7246C0 19.7461 5.69336 25.4395 12.7148 25.4395ZM12.7148 23.623C6.68945 23.623 1.81641 18.75 1.81641 12.7246C1.81641 6.69922 6.68945 1.82617 12.7148 1.82617C18.7402 1.82617 23.6133 6.69922 23.6133 12.7246C23.6133 18.75 18.7402 23.623 12.7148 23.623Z" fill="black" fill-opacity="0.85"/>
  <path d="M12.7148 17.1484C15.1562 17.1484 17.1387 15.166 17.1387 12.7246C17.1387 10.293 15.1562 8.31055 12.7148 8.31055C10.2832 8.31055 8.30078 10.293 8.30078 12.7246C8.30078 15.166 10.2832 17.1484 12.7148 17.1484ZM12.7246 7.08984C13.2129 7.08984 13.5645 6.72852 13.5645 6.25C13.5645 5.76172 13.2129 5.41016 12.7246 5.41016C12.2461 5.41016 11.8848 5.76172 11.8848 6.25C11.8848 6.72852 12.2461 7.08984 12.7246 7.08984ZM15.9766 7.95898C16.4551 7.95898 16.8164 7.59766 16.8164 7.10938C16.8164 6.63086 16.4551 6.26953 15.9766 6.26953C15.4883 6.26953 15.127 6.63086 15.127 7.10938C15.127 7.59766 15.4883 7.95898 15.9766 7.95898ZM18.3398 10.332C18.8184 10.332 19.1797 9.9707 19.1797 9.49219C19.1797 9.00391 18.8184 8.64258 18.3398 8.64258C17.8613 8.64258 17.5 9.00391 17.5 9.49219C17.5 9.9707 17.8613 10.332 18.3398 10.332ZM19.209 13.5645C19.6875 13.5645 20.0488 13.2031 20.0488 12.7246C20.0488 12.2363 19.6875 11.8848 19.209 11.8848C18.7207 11.8848 18.3691 12.2363 18.3691 12.7246C18.3691 13.2031 18.7207 13.5645 19.209 13.5645ZM18.3398 16.7969C18.8184 16.7969 19.1797 16.4355 19.1797 15.957C19.1797 15.4688 18.8184 15.1172 18.3398 15.1172C17.8613 15.1172 17.5 15.4688 17.5 15.957C17.5 16.4355 17.8613 16.7969 18.3398 16.7969ZM15.9766 19.1699C16.4551 19.1699 16.8164 18.8086 16.8164 18.3301C16.8164 17.8516 16.4551 17.4902 15.9766 17.4902C15.4883 17.4902 15.127 17.8516 15.127 18.3301C15.127 18.8086 15.4883 19.1699 15.9766 19.1699ZM12.7246 20.0391C13.2129 20.0391 13.5645 19.6777 13.5645 19.1992C13.5645 18.7109 13.2129 18.3594 12.7246 18.3594C12.2461 18.3594 11.8848 18.7109 11.8848 19.1992C11.8848 19.6777 12.2461 20.0391 12.7246 20.0391ZM9.48242 19.1699C9.96094 19.1699 10.3223 18.8086 10.3223 18.3301C10.3223 17.8516 9.96094 17.4902 9.48242 17.4902C8.99414 17.4902 8.64258 17.8516 8.64258 18.3301C8.64258 18.8086 8.99414 19.1699 9.48242 19.1699ZM7.10938 16.7969C7.59766 16.7969 7.94922 16.4355 7.94922 15.957C7.94922 15.4688 7.59766 15.1172 7.10938 15.1172C6.63086 15.1172 6.26953 15.4688 6.26953 15.957C6.26953 16.4355 6.63086 16.7969 7.10938 16.7969ZM6.25 13.5645C6.72852 13.5645 7.08984 13.2031 7.08984 12.7246C7.08984 12.2363 6.72852 11.8848 6.25 11.8848C5.76172 11.8848 5.40039 12.2363 5.40039 12.7246C5.40039 13.2031 5.76172 13.5645 6.25 13.5645ZM7.10938 10.332C7.59766 10.332 7.94922 9.9707 7.94922 9.49219C7.94922 9.00391 7.59766 8.64258 7.10938 8.64258C6.63086 8.64258 6.26953 9.00391 6.26953 9.49219C6.26953 9.9707 6.63086 10.332 7.10938 10.332ZM9.48242 7.95898C9.96094 7.95898 10.3223 7.59766 10.3223 7.10938C10.3223 6.63086 9.96094 6.26953 9.48242 6.26953C8.99414 6.26953 8.64258 6.63086 8.64258 7.10938C8.64258 7.59766 8.99414 7.95898 9.48242 7.95898Z" fill="black" fill-opacity="0.85"/>
 </g>
</svg>
