<?xml version="1.0" encoding="UTF-8"?>
<!--Generator: Apple Native CoreSVG 326-->
<!DOCTYPE svg
PUBLIC "-//W3C//DTD SVG 1.1//EN"
       "http://www.w3.org/Graphics/SVG/1.1/DTD/svg11.dtd">
<svg version="1.1" xmlns="http://www.w3.org/2000/svg" xmlns:xlink="http://www.w3.org/1999/xlink" viewBox="0 0 28.291 27.9395">
 <g>
  <rect height="27.9395" opacity="0" width="28.291" x="0" y="0"/>
  <path d="M13.9648 27.9297C21.6406 27.9297 27.9297 21.6504 27.9297 13.9648C27.9297 6.2793 21.6406 0 13.9648 0C6.28906 0 0 6.2793 0 13.9648C0 21.6504 6.28906 27.9297 13.9648 27.9297ZM13.9648 23.3398C8.7793 23.3398 4.58008 19.1504 4.58008 13.9648C4.58008 8.7793 8.7793 4.58008 13.9648 4.58008C19.1504 4.58008 23.3496 8.7793 23.3496 13.9648C23.3496 19.1504 19.1504 23.3398 13.9648 23.3398Z" fill="black" fill-opacity="0.85"/>
  <path d="M10.0098 17.9883C10.3906 17.9883 10.6055 17.7246 10.6055 17.3828L10.6055 12.8711C10.6055 11.8652 11.0742 10.8887 12.0898 10.8887C13.0176 10.8887 13.4082 11.5918 13.4082 12.5L13.4082 17.3828C13.4082 17.7344 13.6523 17.9883 13.9844 17.9883C14.3359 17.9883 14.5703 17.7344 14.5703 17.3828L14.5703 12.7539C14.5703 11.7871 15.0391 10.8887 16.0449 10.8887C17.0117 10.8887 17.373 11.6309 17.373 12.5977L17.373 17.3828C17.373 17.7344 17.6074 17.9883 17.959 17.9883C18.3105 17.9883 18.5449 17.7344 18.5449 17.3828L18.5449 12.2949C18.5449 10.918 17.8613 9.82422 16.3867 9.82422C15.2832 9.82422 14.541 10.5078 14.3457 11.3672L14.2871 11.3672C14.082 10.3809 13.4473 9.82422 12.4219 9.82422C11.4355 9.82422 10.8301 10.4395 10.5957 11.3574L10.5469 11.3574L10.5469 10.4395C10.5469 10.0781 10.332 9.84375 9.99023 9.84375C9.63867 9.84375 9.42383 10.0781 9.42383 10.4395L9.42383 17.3828C9.42383 17.7246 9.62891 17.9883 10.0098 17.9883ZM10.4785 21.123C10.6836 21.123 10.7715 21.0352 10.8594 20.8301L16.5918 7.35352C16.6211 7.27539 16.6406 7.19727 16.6406 7.11914C16.6406 6.9043 16.4941 6.76758 16.2695 6.76758C16.0742 6.76758 15.9668 6.89453 15.8887 7.08008L10.166 20.5566C10.127 20.625 10.1074 20.6934 10.1074 20.7812C10.1074 20.9863 10.2637 21.123 10.4785 21.123Z" fill="black" fill-opacity="0.85"/>
 </g>
</svg>
