<?xml version="1.0" encoding="UTF-8"?>
<!--Generator: Apple Native CoreSVG 326-->
<!DOCTYPE svg
PUBLIC "-//W3C//DTD SVG 1.1//EN"
       "http://www.w3.org/Graphics/SVG/1.1/DTD/svg11.dtd">
<svg version="1.1" xmlns="http://www.w3.org/2000/svg" xmlns:xlink="http://www.w3.org/1999/xlink" viewBox="0 0 30.6563 25.459">
 <g>
  <rect height="25.459" opacity="0" width="30.6563" x="0" y="0"/>
  <path d="M15.1475 25.4395C22.169 25.4395 27.8623 19.7461 27.8623 12.7246C27.8623 5.70312 22.169 0 15.1475 0C8.12599 0 2.43263 5.70312 2.43263 12.7246L4.24904 12.7246C4.24904 6.69922 9.12208 1.82617 15.1475 1.82617C21.1729 1.82617 26.0459 6.69922 26.0459 12.7246C26.0459 18.75 21.1729 23.623 15.1475 23.623C11.417 23.623 8.08693 21.7285 6.18263 18.877C5.86037 18.4375 5.35255 18.3008 4.90333 18.5742C4.47365 18.8281 4.34669 19.4238 4.69826 19.9023C6.97365 23.252 10.8213 25.4395 15.1475 25.4395ZM0.801772 10.3613C0.000990731 10.3613-0.223619 10.9082 0.235366 11.543L3.0088 15.4883C3.3799 16.0254 3.91701 16.0156 4.27833 15.4883L7.05177 11.5332C7.49123 10.9082 7.27638 10.3613 6.48537 10.3613Z" fill="black" fill-opacity="0.85"/>
  <path d="M11.2022 16.748C11.583 16.748 11.7881 16.4844 11.7881 16.1426L11.7881 11.6309C11.7881 10.625 12.2569 9.64844 13.2822 9.64844C14.2002 9.64844 14.5908 10.3516 14.5908 11.2598L14.5908 16.1426C14.5908 16.4941 14.835 16.748 15.167 16.748C15.5186 16.748 15.7529 16.4941 15.7529 16.1426L15.7529 11.5137C15.7529 10.5469 16.2315 9.64844 17.2276 9.64844C18.1944 9.64844 18.5557 10.3906 18.5557 11.3574L18.5557 16.1426C18.5557 16.4941 18.7998 16.748 19.1514 16.748C19.4932 16.748 19.7373 16.4941 19.7373 16.1426L19.7373 11.0547C19.7373 9.67773 19.044 8.58398 17.5694 8.58398C16.4658 8.58398 15.7236 9.26758 15.5283 10.127L15.4795 10.127C15.2647 9.14062 14.6299 8.58398 13.6045 8.58398C12.6182 8.58398 12.0127 9.19922 11.7881 10.1172L11.7295 10.1172L11.7295 9.19922C11.7295 8.83789 11.5147 8.60352 11.1729 8.60352C10.8311 8.60352 10.6065 8.83789 10.6065 9.19922L10.6065 16.1426C10.6065 16.4844 10.8213 16.748 11.2022 16.748ZM11.6611 19.8828C11.8662 19.8828 11.9541 19.7949 12.042 19.5898L17.7744 6.11328C17.8037 6.03516 17.8233 5.95703 17.8233 5.87891C17.8233 5.66406 17.6768 5.52734 17.4522 5.52734C17.2666 5.52734 17.1494 5.6543 17.0713 5.83984L11.3486 19.3164C11.3096 19.3848 11.2998 19.4531 11.2998 19.541C11.2998 19.7461 11.4463 19.8828 11.6611 19.8828Z" fill="black" fill-opacity="0.85"/>
 </g>
</svg>
