<?xml version="1.0" ?><!-- Generator: Adobe Illustrator 25.0.0, SVG Export Plug-In . SVG Version: 6.00 Build 0)  --><svg xmlns="http://www.w3.org/2000/svg" xmlns:xlink="http://www.w3.org/1999/xlink" version="1.1" id="Layer_1" x="0px" y="0px" viewBox="0 0 512 512" style="enable-background:new 0 0 512 512;" xml:space="preserve">
<path d="M87.3,512h337.3c58.4,0,87.3-28.9,87.3-86.2V86.2C512,28.9,483.1,0,424.7,0H87.3C29.2,0,0,28.6,0,86.2v339.6  C0,483.4,29.2,512,87.3,512z M146.8,341.8V179.1c0-10.8,7.2-18.1,17.2-18.1c9.7,0,17,6.4,17,18.9v3.3c8.6-15.9,22-23.1,38.4-23.1  c18.1,0,32.5,7.8,40.3,24.2l35-85.4c2.8-6.4,7-10.3,13.6-10.3c7.8,0,13.9,5.6,13.9,13.1c0,2.8-0.8,5.6-1.7,7.8l-22,52.8  c3.9-1.4,8.1-2.2,12.5-2.2c33.4,0,54.8,23.4,54.8,61.7v119c0,11.1-7.5,18.4-17.8,18.4c-10.3,0-17.5-7.2-17.5-18.4V224.7  c0-19.7-10.3-32.3-27.8-32.3c-17.8,0-28.6,13.1-28.6,33.4V341c0,11.1-7.2,18.4-17.5,18.4c-10.3,0-17.8-7.2-17.8-18.4v-25l-34.8,96.2  c-2.5,6.7-7.2,10.6-13.6,10.6c-7.8,0-13.6-5.8-13.6-13.3c0-2.8,0.6-5.6,1.7-8.1l60.3-166.9v-11.7c0-17.8-11.1-30.6-27-30.6  c-18.4,0-29.2,14.2-29.2,35V341c0,11.1-7.5,18.4-17.8,18.4C154.4,359.3,146.8,352.1,146.8,341.8z"/>
</svg>