<?xml version="1.0" encoding="UTF-8"?>
<!--Generator: Apple Native CoreSVG 326-->
<!DOCTYPE svg
PUBLIC "-//W3C//DTD SVG 1.1//EN"
       "http://www.w3.org/Graphics/SVG/1.1/DTD/svg11.dtd">
<svg version="1.1" xmlns="http://www.w3.org/2000/svg" xmlns:xlink="http://www.w3.org/1999/xlink" viewBox="0 0 23.3203 22.959">
 <g>
  <rect height="22.959" opacity="0" width="23.3203" x="0" y="0"/>
  <path d="M22.959 3.76953L22.959 19.1992C22.959 21.6797 21.6797 22.959 19.1504 22.959L3.79883 22.959C1.2793 22.959 0 21.6992 0 19.1992L0 3.76953C0 1.26953 1.2793 0 3.79883 0L19.1504 0C21.6797 0 22.959 1.2793 22.959 3.76953ZM13.457 4.4043L11.7383 8.49609C11.4551 7.68555 10.8398 7.2168 9.90234 7.2168C8.89648 7.2168 8.27148 7.86133 8.03711 8.78906L7.98828 8.78906L7.98828 7.86133C7.98828 7.49023 7.76367 7.24609 7.41211 7.24609C7.05078 7.24609 6.82617 7.49023 6.82617 7.86133L6.82617 14.9805C6.82617 15.332 7.04102 15.5957 7.43164 15.5957C7.82227 15.5957 8.04688 15.332 8.04688 14.9805L8.04688 10.3516C8.04688 9.32617 8.52539 8.33008 9.57031 8.33008C10.498 8.33008 10.9082 9.04297 10.9082 9.95117L10.9082 10.3809L7.58789 18.2324C7.53906 18.3008 7.51953 18.3789 7.51953 18.457C7.51953 18.6816 7.68555 18.8086 7.91016 18.8086C8.11523 18.8086 8.20312 18.7207 8.30078 18.5156L10.9082 12.334L10.9082 14.9805C10.9082 15.3418 11.1621 15.5957 11.5039 15.5957C11.8652 15.5957 12.1094 15.3418 12.1094 14.9805L12.1094 10.2344C12.1094 9.24805 12.5977 8.33008 13.6133 8.33008C14.5996 8.33008 14.9707 9.08203 14.9707 10.0684L14.9707 14.9805C14.9707 15.3418 15.2246 15.5957 15.5859 15.5957C15.9375 15.5957 16.1914 15.3418 16.1914 14.9805L16.1914 9.76562C16.1914 8.34961 15.4785 7.2168 13.9648 7.2168C13.6133 7.2168 13.291 7.30469 13.0273 7.42188L14.1797 4.69727C14.209 4.61914 14.2285 4.54102 14.2285 4.46289C14.2285 4.23828 14.082 4.10156 13.8477 4.10156C13.6621 4.10156 13.5352 4.22852 13.457 4.4043Z" fill="black" fill-opacity="0.85"/>
 </g>
</svg>
