<?xml version="1.0" encoding="UTF-8"?>
<!--Generator: Apple Native CoreSVG 326-->
<!DOCTYPE svg
PUBLIC "-//W3C//DTD SVG 1.1//EN"
       "http://www.w3.org/Graphics/SVG/1.1/DTD/svg11.dtd">
<svg version="1.1" xmlns="http://www.w3.org/2000/svg" xmlns:xlink="http://www.w3.org/1999/xlink" viewBox="0 0 30.3809 25.0293">
 <g>
  <rect height="25.0293" opacity="0" width="30.3809" x="0" y="0"/>
  <path d="M30.0195 15.0098C30.0195 11.3281 28.6914 7.95898 26.4844 5.3418C26.2305 5.03906 25.8008 5.04883 25.5176 5.33203L22.6953 8.1543C22.4512 8.39844 22.4414 8.74023 22.6562 9.01367C23.9551 10.6738 24.7266 12.7441 24.7266 15.0098C24.7266 17.2754 23.9551 19.3555 22.5977 21.0742C22.4121 21.3086 22.4219 21.6016 22.627 21.8066L25.5176 24.707C25.8008 25 26.2207 24.9902 26.4844 24.6875C28.6914 22.0703 30.0195 18.6816 30.0195 15.0098Z" fill="black" fill-opacity="0.85"/>
  <path d="M15.0098 5.2832C17.2754 5.2832 19.3652 6.06445 21.0254 7.38281C21.2891 7.57812 21.6113 7.55859 21.8555 7.31445L24.6875 4.48242C24.9805 4.19922 24.9707 3.7793 24.668 3.51562C22.0605 1.32812 18.6816 0 15.0098 0C11.3379 0 7.95898 1.32812 5.35156 3.51562C5.04883 3.7793 5.03906 4.19922 5.32227 4.48242L8.16406 7.31445C8.39844 7.55859 8.75 7.56836 9.02344 7.35352C10.6738 6.06445 12.7539 5.2832 15.0098 5.2832Z" fill="black" fill-opacity="0.85"/>
  <path d="M0 15.0098C0 18.6816 1.32812 22.0703 3.53516 24.6875C3.78906 24.9902 4.21875 25 4.50195 24.707L7.39258 21.8066C7.58789 21.6016 7.60742 21.3086 7.42188 21.0742C6.06445 19.3555 5.2832 17.2754 5.2832 15.0098C5.2832 12.7441 6.05469 10.6738 7.36328 9.01367C7.56836 8.74023 7.56836 8.39844 7.32422 8.1543L4.49219 5.33203C4.20898 5.04883 3.78906 5.03906 3.52539 5.3418C1.31836 7.95898 0 11.3281 0 15.0098Z" fill="black" fill-opacity="0.85"/>
  <path d="M11.0449 19.1992C11.4258 19.1992 11.6309 18.9355 11.6309 18.5938L11.6309 14.082C11.6309 13.0762 12.1094 12.0996 13.125 12.0996C14.0527 12.0996 14.4336 12.8027 14.4336 13.7012L14.4336 18.5938C14.4336 18.9453 14.6777 19.1992 15.0098 19.1992C15.3613 19.1992 15.6055 18.9453 15.6055 18.5938L15.6055 13.9648C15.6055 12.998 16.0742 12.0996 17.0801 12.0996C18.0371 12.0996 18.4082 12.8418 18.4082 13.7988L18.4082 18.5938C18.4082 18.9453 18.6426 19.1992 18.9941 19.1992C19.3457 19.1992 19.5801 18.9453 19.5801 18.5938L19.5801 13.5059C19.5801 12.1289 18.8965 11.0254 17.4219 11.0254C16.3184 11.0254 15.5762 11.709 15.3809 12.5781L15.3223 12.5781C15.1074 11.5918 14.4824 11.0254 13.4473 11.0254C12.4707 11.0254 11.8555 11.6504 11.6309 12.5586L11.582 12.5586L11.582 11.6406C11.582 11.2891 11.3672 11.0547 11.0156 11.0547C10.6738 11.0547 10.459 11.2891 10.459 11.6406L10.459 18.5938C10.459 18.9355 10.6641 19.1992 11.0449 19.1992ZM11.5137 22.334C11.7188 22.334 11.8066 22.2363 11.8945 22.041L17.6172 8.56445C17.6562 8.48633 17.6758 8.4082 17.6758 8.33008C17.6758 8.11523 17.5195 7.97852 17.3047 7.97852C17.1094 7.97852 17.002 8.10547 16.9238 8.28125L11.1914 21.7578C11.1621 21.8359 11.1426 21.9043 11.1426 21.9922C11.1426 22.1973 11.2988 22.334 11.5137 22.334Z" fill="black" fill-opacity="0.85"/>
 </g>
</svg>
