<?xml version="1.0" encoding="UTF-8"?>
<!--Generator: Apple Native CoreSVG 326-->
<!DOCTYPE svg
PUBLIC "-//W3C//DTD SVG 1.1//EN"
       "http://www.w3.org/Graphics/SVG/1.1/DTD/svg11.dtd">
<svg version="1.1" xmlns="http://www.w3.org/2000/svg" xmlns:xlink="http://www.w3.org/1999/xlink" viewBox="0 0 18.5059 28.9746">
 <g>
  <rect height="28.9746" opacity="0" width="18.5059" x="0" y="0"/>
  <path d="M0.996094 22.5293C1.61133 22.5293 1.99219 22.0996 1.99219 21.5234L1.99219 12.3828C1.99219 10.1855 3.04688 8.04688 5.22461 8.04688C7.2168 8.04688 8.07617 9.60938 8.07617 11.5234L8.07617 21.5234C8.07617 22.0312 8.36914 22.5293 9.05273 22.5293C9.7168 22.5293 10.0586 22.0703 10.0586 21.5234L10.0586 12.0703C10.0586 9.91211 11.123 8.04688 13.2617 8.04688C15.3711 8.04688 16.1426 9.62891 16.1426 11.6895L16.1426 21.5234C16.1426 22.0117 16.416 22.5293 17.1387 22.5293C17.7637 22.5293 18.1445 22.0996 18.1445 21.5234L18.1445 11.2305C18.1445 8.39844 16.6602 6.2793 13.7695 6.2793C11.6113 6.2793 10.0879 7.54883 9.61914 9.46289L9.52148 9.46289C9.12109 7.53906 7.89062 6.2793 5.70312 6.2793C3.60352 6.2793 2.37305 7.68555 1.95312 9.44336L1.88477 9.44336L1.88477 7.34375C1.88477 6.75781 1.51367 6.34766 0.9375 6.34766C0.361328 6.34766 0 6.75781 0 7.34375L0 21.5234C0 22.0703 0.341797 22.5293 0.996094 22.5293ZM2.1582 28.9355C2.57812 28.9355 2.73438 28.7207 2.89062 28.3496L14.0234 1.09375C14.082 0.947266 14.1211 0.78125 14.1211 0.644531C14.1211 0.244141 13.8184 0 13.4277 0C13.0566 0 12.8613 0.244141 12.7344 0.537109L1.57227 27.8711C1.50391 28.0371 1.47461 28.1836 1.47461 28.291C1.47461 28.7012 1.77734 28.9355 2.1582 28.9355Z" fill="black" fill-opacity="0.85"/>
 </g>
</svg>
