<?xml version="1.0" ?><!-- Generator: Adobe Illustrator 25.0.0, SVG Export Plug-In . SVG Version: 6.00 Build 0)  --><svg xmlns="http://www.w3.org/2000/svg" xmlns:xlink="http://www.w3.org/1999/xlink" version="1.1" id="Layer_1" x="0px" y="0px" viewBox="0 0 512 512" style="enable-background:new 0 0 512 512;" xml:space="preserve">
<path d="M95.9,512c8.9,0,14.1-3.8,21.1-13.8l158.8-235.5L430.4,34.4c3.8-5.1,5.1-9.8,5.1-15.2C435.6,8.4,426.1,0,415,0  c-9.5,0-14.6,3-22.2,14.1l-155,230.1L79.7,477c-3.5,5.1-5.4,9.5-5.4,15.4C74.3,504.1,84,512,95.9,512z M0.3,117.6  c0,10.8,7,18.7,19.8,18.7h141.5c12.7,0,19.8-7.9,19.8-18.7c0-10.6-7-19.2-19.8-19.2H20.1C7.3,98.4,0.3,107.1,0.3,117.6z   M397.9,395.2V454c0,12.7,8.1,20.1,19.2,20.1c11.4,0,19.8-7.3,19.8-20.1v-58.8h55c12.7,0,19.8-7.9,19.8-18.7  c0-10.6-7-19.2-19.8-19.2h-55v-58.5c0-12.7-8.4-20.3-19.8-20.3c-11.1,0-19.2,7.6-19.2,20.3v58.5h-55c-12.5,0-19.5,8.7-19.5,19.2  c0,10.8,7,18.7,19.5,18.7H397.9z"/>
</svg>