<?xml version="1.0" encoding="UTF-8"?>
<!--Generator: Apple Native CoreSVG 326-->
<!DOCTYPE svg
PUBLIC "-//W3C//DTD SVG 1.1//EN"
       "http://www.w3.org/Graphics/SVG/1.1/DTD/svg11.dtd">
<svg version="1.1" xmlns="http://www.w3.org/2000/svg" xmlns:xlink="http://www.w3.org/1999/xlink" viewBox="0 0 36.123 27.4512">
 <g>
  <rect height="27.4512" opacity="0" width="36.123" x="0" y="0"/>
  <path d="M35.7617 13.4863L35.7617 25.5273C35.7617 26.6211 35.0781 27.2461 33.916 27.2461L8.88672 27.2461C7.86852 27.2461 7.26899 26.7273 7.23047 25.8203L33.6133 25.8203C34.0723 25.8203 34.3359 25.5762 34.3359 25.0977L34.3359 11.9734C35.2352 12.0499 35.7617 12.601 35.7617 13.4863Z" fill="black" fill-opacity="0.85"/>
  <path d="M32.6465 9.44336L32.6465 22.4219C32.6465 23.5156 31.9629 24.1309 30.8008 24.1309L5.21484 24.1309C4.16016 24.1309 3.55469 23.5742 3.55469 22.6172L3.55469 22.5879L30.3711 22.5879C30.8301 22.5879 31.0938 22.3438 31.0938 21.875L31.0937 7.92327C32.0703 7.95628 32.6465 8.50776 32.6465 9.44336Z" fill="black" fill-opacity="0.85"/>
  <path d="M10.3613 1.29883L10.3613 2.80273L18.7305 2.80273L18.7305 1.29883C18.7305 0.478516 19.1895 0 20.0195 0L22.7441 0C23.584 0 24.043 0.478516 24.043 1.29883L24.043 2.80273L25.2734 2.80273C27.793 2.80273 29.082 4.07227 29.082 6.5625L29.082 16.8164C29.082 19.6484 28.1445 20.5762 25.2832 20.5762L3.79883 20.5762C1.2793 20.5762 0 19.3066 0 16.8164L0 6.5625C0 4.07227 1.2793 2.80273 3.79883 2.80273L5.03906 2.80273L5.03906 1.29883C5.03906 0.478516 5.50781 0 6.33789 0L9.0625 0C9.89258 0 10.3613 0.478516 10.3613 1.29883ZM20.1465 9.04297L20.1465 10.9277L18.252 10.9277C17.832 10.9277 17.5098 11.2598 17.5098 11.6602C17.5098 12.0801 17.8418 12.4121 18.252 12.4121L20.1465 12.4121L20.1465 14.2871C20.1465 14.7168 20.4688 15.0391 20.8887 15.0391C21.2988 15.0391 21.6309 14.7168 21.6309 14.2871L21.6309 12.4121L23.5059 12.4121C23.9258 12.4121 24.2578 12.0801 24.2578 11.6602C24.2578 11.2598 23.9258 10.9277 23.5059 10.9277L21.6309 10.9277L21.6309 9.04297C21.6309 8.61328 21.2988 8.29102 20.8887 8.29102C20.4688 8.29102 20.1465 8.61328 20.1465 9.04297ZM5.80078 10.918C5.38086 10.918 5.05859 11.25 5.05859 11.6602C5.05859 12.0703 5.38086 12.4023 5.80078 12.4023L10.5859 12.4023C10.9961 12.4023 11.3281 12.0703 11.3281 11.6602C11.3281 11.25 10.9961 10.918 10.5859 10.918Z" fill="black" fill-opacity="0.85"/>
 </g>
</svg>
