<?xml version="1.0" ?><!-- Generator: Adobe Illustrator 25.0.0, SVG Export Plug-In . SVG Version: 6.00 Build 0)  --><svg xmlns="http://www.w3.org/2000/svg" xmlns:xlink="http://www.w3.org/1999/xlink" version="1.1" id="Layer_1" x="0px" y="0px" viewBox="0 0 512 512" style="enable-background:new 0 0 512 512;" xml:space="preserve">
<path d="M19.2,153.8h148.3c5.4,0,10-1.8,13.7-5.5c3.7-3.7,5.5-8.2,5.5-13.4c0-5.2-1.8-9.7-5.5-13.5c-3.7-3.8-8.3-5.7-13.7-5.7H19.2  c-5.4,0-10,1.9-13.7,5.7c-3.7,3.8-5.5,8.3-5.5,13.5c0,5.2,1.8,9.7,5.5,13.4C9.2,152,13.8,153.8,19.2,153.8z M97.4,511.6  c4.5,0,8.3-1,11.4-3.1c3.1-2.1,6.3-5.6,9.7-10.7l158.6-235.2L431.4,34.8c1.8-2.7,3.1-5.2,3.9-7.6c0.8-2.3,1.2-4.9,1.2-7.6  c0-5.4-2-10-6.1-13.7c-4.1-3.7-8.9-5.5-14.5-5.5c-4.7,0-8.6,0.9-11.8,2.8c-3.2,1.9-6.6,5.6-10.4,11.2L239,244.2L81.2,476.7  c-1.8,2.5-3.2,5-4.1,7.4c-0.9,2.4-1.4,5.1-1.4,8c0,6,2.1,10.7,6.4,14.2C86.4,509.8,91.5,511.6,97.4,511.6z M325.3,393.3  c0,5.2,1.8,9.7,5.5,13.4c3.7,3.7,8.2,5.5,13.4,5.5h55.5v55.5c0,5.2,1.8,9.7,5.5,13.4c3.7,3.7,8.2,5.5,13.4,5.5s9.7-1.8,13.5-5.5  c3.8-3.7,5.7-8.2,5.7-13.4v-55.5h54.9c5.2,0,9.7-1.8,13.5-5.5c3.8-3.7,5.7-8.2,5.7-13.4c0-5.4-1.9-10-5.7-13.7  c-3.8-3.7-8.3-5.5-13.5-5.5h-54.9v-54.9c0-5.4-1.9-10-5.7-13.7c-3.8-3.7-8.3-5.5-13.5-5.5c-5.4,0-9.9,1.8-13.5,5.5  c-3.6,3.7-5.4,8.3-5.4,13.7v54.9h-55.5c-5.2,0-9.7,1.8-13.4,5.5C327.1,383.4,325.3,387.9,325.3,393.3z"/>
</svg>