<?xml version="1.0" encoding="UTF-8"?>
<!--Generator: Apple Native CoreSVG 326-->
<!DOCTYPE svg
PUBLIC "-//W3C//DTD SVG 1.1//EN"
       "http://www.w3.org/Graphics/SVG/1.1/DTD/svg11.dtd">
<svg version="1.1" xmlns="http://www.w3.org/2000/svg" xmlns:xlink="http://www.w3.org/1999/xlink" viewBox="0 0 29.9512 21.3574">
 <g>
  <rect height="21.3574" opacity="0" width="29.9512" x="0" y="0"/>
  <path d="M3.79883 21.3574L25.7812 21.3574C28.3105 21.3574 29.5898 20.0879 29.5898 17.5977L29.5898 6.99219C29.5898 4.50195 28.3105 3.23242 25.7812 3.23242L24.1602 3.23242L24.1602 1.46484C24.1602 0.556641 23.6426 0.00976562 22.7051 0.00976562L20.1074 0.00976562C19.1797 0.00976562 18.6523 0.556641 18.6523 1.46484L18.6523 3.23242L10.9277 3.23242L10.9277 1.46484C10.9277 0.556641 10.4102 0.00976562 9.47266 0.00976562L6.875 0.00976562C5.94727 0.00976562 5.41992 0.556641 5.41992 1.46484L5.41992 3.23242L3.79883 3.23242C1.2793 3.23242 0 4.49219 0 6.99219L0 17.5977C0 20.0977 1.2793 21.3574 3.79883 21.3574ZM1.72852 17.5098L1.72852 7.08008C1.72852 5.68359 2.4707 4.96094 3.83789 4.96094L25.752 4.96094C27.0898 4.96094 27.8516 5.68359 27.8516 7.08008L27.8516 17.5098C27.8516 18.9062 27.0898 19.6289 25.752 19.6289L3.83789 19.6289C2.4707 19.6289 1.72852 18.9062 1.72852 17.5098Z" fill="black" fill-opacity="0.85"/>
  <path d="M6.32812 13.0762L11.7188 13.0762C12.1582 13.0762 12.5098 12.7246 12.5098 12.2754C12.5098 11.8359 12.1582 11.4844 11.7188 11.4844L6.32812 11.4844C5.88867 11.4844 5.53711 11.8359 5.53711 12.2754C5.53711 12.7246 5.88867 13.0762 6.32812 13.0762ZM20.5469 15.9668C20.9863 15.9668 21.3379 15.6152 21.3379 15.166L21.3379 13.0762L23.4375 13.0762C23.877 13.0762 24.2285 12.7246 24.2285 12.2754C24.2285 11.8359 23.877 11.4844 23.4375 11.4844L21.3379 11.4844L21.3379 9.38477C21.3379 8.94531 20.9863 8.59375 20.5469 8.59375C20.0977 8.59375 19.7461 8.94531 19.7461 9.38477L19.7461 11.4844L17.6562 11.4844C17.207 11.4844 16.8555 11.8359 16.8555 12.2754C16.8555 12.7246 17.207 13.0762 17.6562 13.0762L19.7461 13.0762L19.7461 15.166C19.7461 15.6152 20.0977 15.9668 20.5469 15.9668Z" fill="black" fill-opacity="0.85"/>
 </g>
</svg>
