<?xml version="1.0" ?><!-- Generator: Adobe Illustrator 25.0.0, SVG Export Plug-In . SVG Version: 6.00 Build 0)  --><svg xmlns="http://www.w3.org/2000/svg" xmlns:xlink="http://www.w3.org/1999/xlink" version="1.1" id="Layer_1" x="0px" y="0px" viewBox="0 0 512 512" style="enable-background:new 0 0 512 512;" xml:space="preserve">
<path d="M25.3,305.9l180.8,180.8c33.4,33.4,66.4,33.6,99.6,0.7l181.7-182c33-33,32.7-66.1-0.7-99.6L306.2,25.3  c-33.4-33.4-66.4-33.9-99.6-0.7l-182,181.7C-8.5,239.6-8.1,272.5,25.3,305.9z M164.8,275.9c-13.1,0-22.4-7-22.4-19.4  c0-12.6,8.8-19.9,22.4-19.9h182.4c13.8,0,22.1,7.2,22.1,19.9c0,12.4-9,19.4-22.1,19.4H164.8z"/>
</svg>