<?xml version="1.0" encoding="UTF-8"?>
<!--Generator: Apple Native CoreSVG 326-->
<!DOCTYPE svg
PUBLIC "-//W3C//DTD SVG 1.1//EN"
       "http://www.w3.org/Graphics/SVG/1.1/DTD/svg11.dtd">
<svg version="1.1" xmlns="http://www.w3.org/2000/svg" xmlns:xlink="http://www.w3.org/1999/xlink" viewBox="0 0 23.8672 23.7793">
 <g>
  <rect height="23.7793" opacity="0" width="23.8672" x="0" y="0"/>
  <path d="M0.761719 6.96289L7.61719 6.96289C8.04688 6.96289 8.38867 6.62109 8.38867 6.20117C8.38867 5.77148 8.04688 5.42969 7.61719 5.42969L0.761719 5.42969C0.341797 5.42969 0 5.77148 0 6.20117C0 6.62109 0.341797 6.96289 0.761719 6.96289ZM4.41406 23.7793C4.77539 23.7793 4.98047 23.6328 5.26367 23.2227L12.5684 12.1777L19.7363 1.38672C19.8926 1.17188 19.9512 0.986328 19.9512 0.761719C19.9512 0.332031 19.5703 0 19.1309 0C18.7402 0 18.5449 0.117188 18.2324 0.566406L11.0547 11.416L3.76953 22.3633C3.62305 22.5781 3.54492 22.7637 3.54492 23.0078C3.54492 23.4668 3.93555 23.7793 4.41406 23.7793ZM15.127 18.3789C15.127 18.7988 15.4688 19.1406 15.8887 19.1406L18.5547 19.1406L18.5547 21.8066C18.5547 22.2363 18.8965 22.5781 19.3262 22.5781C19.7461 22.5781 20.0879 22.2363 20.0879 21.8066L20.0879 19.1406L22.7441 19.1406C23.1641 19.1406 23.5059 18.7988 23.5059 18.3789C23.5059 17.9492 23.1641 17.6074 22.7441 17.6074L20.0879 17.6074L20.0879 14.9512C20.0879 14.5215 19.7363 14.1895 19.3262 14.1895C18.8867 14.1895 18.5547 14.5312 18.5547 14.9512L18.5547 17.6074L15.8887 17.6074C15.4688 17.6074 15.127 17.9492 15.127 18.3789Z" fill="black" fill-opacity="0.85"/>
 </g>
</svg>
