<?xml version="1.0" encoding="UTF-8"?>
<!--Generator: Apple Native CoreSVG 326-->
<!DOCTYPE svg
PUBLIC "-//W3C//DTD SVG 1.1//EN"
       "http://www.w3.org/Graphics/SVG/1.1/DTD/svg11.dtd">
<svg version="1.1" xmlns="http://www.w3.org/2000/svg" xmlns:xlink="http://www.w3.org/1999/xlink" viewBox="0 0 29.9512 22.959">
 <g>
  <rect height="22.959" opacity="0" width="29.9512" x="0" y="0"/>
  <path d="M29.5898 3.76953L29.5898 19.1992C29.5898 21.6797 28.3105 22.959 25.7812 22.959L3.79883 22.959C1.2793 22.959 0 21.6992 0 19.1992L0 3.76953C0 1.26953 1.2793 0 3.79883 0L25.7812 0C28.3105 0 29.5898 1.2793 29.5898 3.76953ZM9.52148 10.5664C8.88672 10.5664 8.47656 10.918 8.47656 11.5137C8.47656 12.0898 8.91602 12.4316 9.52148 12.4316L20.0879 12.4316C20.6934 12.4316 21.123 12.0898 21.123 11.5137C21.123 10.918 20.7227 10.5664 20.0879 10.5664Z" fill="black" fill-opacity="0.85"/>
 </g>
</svg>
