<?xml version="1.0" ?><!-- Generator: Adobe Illustrator 25.0.0, SVG Export Plug-In . SVG Version: 6.00 Build 0)  --><svg xmlns="http://www.w3.org/2000/svg" xmlns:xlink="http://www.w3.org/1999/xlink" version="1.1" id="Layer_1" x="0px" y="0px" viewBox="0 0 512 512" style="enable-background:new 0 0 512 512;" xml:space="preserve">
<path d="M55.2,437.3c0,49.9,24.6,74.7,74,74.7h253.6c49.4,0,74-24.8,74-74.7V75c0-49.7-24.6-75-74-75H129.2c-49.4,0-74,25.3-74,75  V437.3z M159.8,277c-13.9,0-23.6-7.2-23.6-20.3c0-13.4,9.3-21,23.6-21h193c14.6,0,23.4,7.6,23.4,21c0,13.1-9.6,20.3-23.4,20.3H159.8  z"/>
</svg>