<?xml version="1.0" encoding="UTF-8"?>
<!--Generator: Apple Native CoreSVG 326-->
<!DOCTYPE svg
PUBLIC "-//W3C//DTD SVG 1.1//EN"
       "http://www.w3.org/Graphics/SVG/1.1/DTD/svg11.dtd">
<svg version="1.1" xmlns="http://www.w3.org/2000/svg" xmlns:xlink="http://www.w3.org/1999/xlink" viewBox="0 0 36.123 38.3887">
 <g>
  <rect height="38.3887" opacity="0" width="36.123" x="0" y="0"/>
  <path d="M35.7617 18.9551L35.7617 30.9961C35.7617 32.0898 35.0781 32.7148 33.916 32.7148L8.88672 32.7148C7.86852 32.7148 7.26899 32.196 7.23047 31.2891L33.6133 31.2891C34.0723 31.2891 34.3359 31.0449 34.3359 30.5664L34.3359 17.4421C35.2352 17.5187 35.7617 18.0697 35.7617 18.9551Z" fill="black" fill-opacity="0.85"/>
  <path d="M32.6465 14.9121L32.6465 27.8906C32.6465 28.9844 31.9629 29.5996 30.8008 29.5996L5.21484 29.5996C4.16016 29.5996 3.55469 29.043 3.55469 28.0859L3.55469 28.0566L30.3711 28.0566C30.8301 28.0566 31.0938 27.8125 31.0938 27.3438L31.0937 13.392C32.0703 13.425 32.6465 13.9765 32.6465 14.9121Z" fill="black" fill-opacity="0.85"/>
  <path d="M9.52148 6.76758L9.52148 8.27148L12.0132 8.27148L12.0475 10L3.83789 10C2.5 10 1.72852 10.7227 1.72852 12.1191L1.72852 22.1875C1.72852 23.5938 2.4707 24.3164 3.83789 24.3164L25.2539 24.3164C26.7969 24.3164 27.3438 23.7695 27.3438 22.1875L27.3438 12.1191C27.3438 10.7227 26.582 10 25.2441 10L17.2591 10L17.2934 8.27148L19.502 8.27148L19.502 6.76758C19.502 5.94727 19.9707 5.46875 20.8008 5.46875L23.4277 5.46875C24.2578 5.46875 24.7266 5.94727 24.7266 6.76758L24.7266 8.27148L25.2734 8.27148C27.793 8.27148 29.082 9.54102 29.082 12.0312L29.082 22.2852C29.082 25.1172 28.1445 26.0449 25.2832 26.0449L3.79883 26.0449C1.2793 26.0449 0 24.7754 0 22.2852L0 12.0312C0 9.54102 1.2793 8.27148 3.79883 8.27148L4.29688 8.27148L4.29688 6.76758C4.29688 5.94727 4.76562 5.46875 5.5957 5.46875L8.22266 5.46875C9.05273 5.46875 9.52148 5.94727 9.52148 6.76758ZM22.6758 14.9121L22.6758 16.4648L24.2285 16.4648C24.6094 16.4648 24.9121 16.7676 24.9121 17.1289C24.9121 17.5098 24.6094 17.8125 24.2285 17.8125L22.6758 17.8125L22.6758 19.3555C22.6758 19.7461 22.3828 20.0391 22.002 20.0391C21.6309 20.0391 21.3379 19.7461 21.3379 19.3555L21.3379 17.8125L19.7754 17.8125C19.4043 17.8125 19.1016 17.5098 19.1016 17.1289C19.1016 16.7676 19.3945 16.4648 19.7754 16.4648L21.3379 16.4648L21.3379 14.9121C21.3379 14.5312 21.6309 14.2383 22.002 14.2383C22.3828 14.2383 22.6758 14.5312 22.6758 14.9121ZM9.58984 17.1289C9.58984 17.5 9.28711 17.8027 8.91602 17.8027L4.84375 17.8027C4.47266 17.8027 4.17969 17.5 4.17969 17.1289C4.17969 16.7578 4.47266 16.4551 4.84375 16.4551L8.91602 16.4551C9.28711 16.4551 9.58984 16.7578 9.58984 17.1289Z" fill="black" fill-opacity="0.85"/>
  <path d="M14.6582 15.2246C15.2051 15.2246 15.5957 14.8242 15.6152 14.2578L15.8398 2.74414C15.8594 2.04102 15.3906 1.55273 14.6582 1.55273C13.916 1.55273 13.4473 2.04102 13.4668 2.74414L13.6914 14.2578C13.7109 14.8242 14.1113 15.2246 14.6582 15.2246ZM14.6582 20.5762C15.498 20.5762 16.2109 19.873 16.2109 19.0723C16.2109 18.2422 15.5078 17.5781 14.6582 17.5781C13.7891 17.5781 13.0957 18.2422 13.0957 19.0723C13.0957 19.873 13.8086 20.5762 14.6582 20.5762Z" fill="black" fill-opacity="0.85"/>
 </g>
</svg>
