<?xml version="1.0" ?><!-- Generator: Adobe Illustrator 25.0.0, SVG Export Plug-In . SVG Version: 6.00 Build 0)  --><svg xmlns="http://www.w3.org/2000/svg" xmlns:xlink="http://www.w3.org/1999/xlink" version="1.1" id="Layer_1" x="0px" y="0px" viewBox="0 0 512 512" style="enable-background:new 0 0 512 512;" xml:space="preserve">
<path d="M55.2,437.3c0,49.9,24.6,74.7,74,74.7h253.6c49.4,0,74-24.8,74-74.7V75c0-49.7-24.6-75-74-75H129.2c-49.4,0-74,25.3-74,75  V437.3z M93.6,436.5V75.7c0-23.9,12.7-37.3,37.5-37.3h249.8c24.8,0,37.5,13.4,37.5,37.3v360.8c0,23.9-12.7,37-37.5,37H131.1  C106.3,473.6,93.6,460.4,93.6,436.5z M162.6,276.3h187.2c13.4,0,22.7-6.9,22.7-19.6c0-12.9-8.6-20.3-22.7-20.3H162.6  c-13.9,0-22.9,7.4-22.9,20.3C139.7,269.4,149.3,276.3,162.6,276.3z"/>
</svg>