<?xml version="1.0" encoding="UTF-8"?>
<!--Generator: Apple Native CoreSVG 326-->
<!DOCTYPE svg
PUBLIC "-//W3C//DTD SVG 1.1//EN"
       "http://www.w3.org/Graphics/SVG/1.1/DTD/svg11.dtd">
<svg version="1.1" xmlns="http://www.w3.org/2000/svg" xmlns:xlink="http://www.w3.org/1999/xlink" viewBox="0 0 42.9785 19.2676">
 <g>
  <rect height="19.2676" opacity="0" width="42.9785" x="0" y="0"/>
  <path d="M33.9258 4.72656L33.5254 8.55469C33.418 9.58008 33.9551 10.0684 35.0684 10.0684L38.4766 10.0684C39.248 10.0684 39.7949 10.625 39.7949 11.3965L39.7949 17.5684C39.7949 18.7598 38.8965 19.2383 37.7246 18.9355C36.0352 18.5254 34.3555 18.3203 32.3926 18.3203L13.1934 18.3203C8.62367 18.3203 5.72523 16.2832 4.9969 12.4121L6.78242 12.4121C7.50011 15.1496 9.7468 16.5918 13.1641 16.5918L27.5586 16.5918C29.9707 16.5918 30.9473 15.7715 31.1914 13.5547L32.2168 4.52148C32.4219 2.68555 31.4648 1.72852 29.2969 1.72852C25.1758 1.72852 18.0078 1.9043 13.9844 2.37305C10.2423 2.8239 7.8474 4.56988 6.94835 7.45117L5.13191 7.45117C6.07942 3.58211 9.07488 1.23114 13.8379 0.634766C17.9102 0.146484 25.1758 0.00976562 29.2969 0C32.5391 0 34.2285 1.78711 33.9258 4.72656Z" fill="black" fill-opacity="0.85"/>
  <path d="M0.9375 7.12891C0.9375 9.47266 2.39258 10.8594 4.86328 10.8594L11.3086 10.8594L11.3086 12.3145C11.3086 13.0664 11.8555 13.3301 12.4805 12.9102L15.8496 10.6348C16.3672 10.2734 16.3672 9.64844 15.8496 9.29688L12.5 7.01172C11.8555 6.57227 11.3086 6.8457 11.3086 7.60742L11.3086 9.00391L4.86328 9.00391C3.58398 9.00391 2.83203 8.31055 2.83203 7.12891L2.83203 5.43945C2.83203 4.92188 2.40234 4.49219 1.88477 4.49219C1.36719 4.49219 0.9375 4.92188 0.9375 5.43945Z" fill="black" fill-opacity="0.85"/>
 </g>
</svg>
