<?xml version="1.0" encoding="UTF-8"?>
<!--Generator: Apple Native CoreSVG 326-->
<!DOCTYPE svg
PUBLIC "-//W3C//DTD SVG 1.1//EN"
       "http://www.w3.org/Graphics/SVG/1.1/DTD/svg11.dtd">
<svg version="1.1" xmlns="http://www.w3.org/2000/svg" xmlns:xlink="http://www.w3.org/1999/xlink" viewBox="0 0 35.3516 26.7058">
 <g>
  <rect height="26.7058" opacity="0" width="35.3516" x="0" y="0"/>
  <path d="M25.9473 4.3539C31.7969 5.08632 34.9902 8.46523 34.9902 14.0512C34.9902 18.9143 32.1717 21.7292 27.4099 22.0111C27.7029 21.4258 28.0668 20.8421 28.326 20.1624C31.4256 19.6157 33.2617 17.4775 33.2617 14.0512C33.2617 9.45155 30.6738 6.67812 25.8008 6.09218C21.7773 5.62343 14.6094 5.44765 10.498 5.44765C8.32031 5.44765 7.37305 6.40468 7.57812 8.24062L8.59375 17.2738C8.84766 19.4906 9.82422 20.3109 12.2363 20.3109L14.7586 20.3109C14.478 20.8826 14.1317 21.4219 13.8728 22.0394L7.40234 22.0394C5.42969 22.0394 3.75 22.2445 2.06055 22.6547C0.898438 22.9574 0 22.4789 0 21.2875L0 15.1156C0 14.3441 0.546875 13.7875 1.31836 13.7875L4.72656 13.7875C5.83984 13.7875 6.37695 13.2992 6.25977 12.2738L5.86914 8.4457C5.56641 5.50624 7.25586 3.71913 10.498 3.71913C14.6191 3.7289 21.8848 3.86562 25.9473 4.3539ZM19.9721 22.0394L15.204 22.0394C15.481 21.4873 15.8246 20.938 16.0869 20.3109L20.8481 20.3109C20.5706 20.8826 20.2282 21.4219 19.9721 22.0394ZM26.0603 22.0394L21.295 22.0394C21.5705 21.4873 21.9122 20.938 22.1731 20.3109L26.6309 20.3109C26.7404 20.3109 26.8489 20.3093 26.9515 20.2998C26.67 20.8756 26.3209 21.4179 26.0603 22.0394Z" fill="black" fill-opacity="0.85"/>
  <path d="M15.4297 25.7113C14.9023 25.018 14.707 24.5883 14.707 23.7973C14.707 21.9418 16.4941 20.7894 16.4941 18.3773C16.4941 16.2191 14.8633 15.643 14.8633 13.0746L14.8633 12.5863L13.6426 12.5863L13.6426 13.0746C13.6426 16.2582 15.2637 16.6781 15.2637 18.3773C15.2637 20.516 13.4863 21.4926 13.4863 23.8754C13.4863 24.9105 13.8086 25.6527 14.4336 26.434C14.9414 27.098 15.957 26.4242 15.4297 25.7113ZM12.002 12.4008C11.7773 12.7328 11.9727 13.182 12.4121 13.182L16.084 13.182C16.5234 13.182 16.7285 12.7426 16.4941 12.4008L14.7168 9.72499C14.5801 9.52968 14.4531 9.45155 14.248 9.45155C14.0527 9.45155 13.9062 9.53945 13.7793 9.72499ZM21.5234 25.7113C20.9863 25.018 20.8008 24.5883 20.8008 23.7973C20.8008 21.9418 22.5781 20.7894 22.5781 18.3773C22.5781 16.2191 20.9668 15.643 20.9668 13.0746L20.9668 12.5863L19.7363 12.5863L19.7363 13.0746C19.7363 16.2582 21.3477 16.6781 21.3477 18.3773C21.3477 20.516 19.5898 21.4926 19.5898 23.8754C19.5898 24.9105 19.9121 25.6527 20.5371 26.434C21.0547 27.098 22.0508 26.4242 21.5234 25.7113ZM18.0859 12.4008C17.8613 12.7328 18.0664 13.182 18.5156 13.182L22.168 13.182C22.6172 13.182 22.8223 12.7328 22.6074 12.4008L20.8203 9.72499C20.6836 9.53945 20.5469 9.45155 20.3418 9.45155C20.1465 9.45155 20.0098 9.53945 19.873 9.72499ZM27.6172 25.7113C27.0898 25.018 26.9043 24.5883 26.9043 23.7973C26.9043 21.9418 28.6719 20.7894 28.6719 18.3773C28.6719 16.2191 27.0508 15.643 27.0508 13.0746L27.0508 12.5863L25.8203 12.5863L25.8203 13.0746C25.8203 16.2582 27.4512 16.6781 27.4512 18.3773C27.4512 20.516 25.6738 21.4926 25.6738 23.8754C25.6738 24.9105 25.9961 25.6527 26.6211 26.434C27.1387 27.098 28.1445 26.4242 27.6172 25.7113ZM24.1895 12.4008C23.9648 12.7328 24.1602 13.182 24.5996 13.182L28.2715 13.182C28.7207 13.182 28.9258 12.7328 28.7012 12.4008L26.9141 9.72499C26.7871 9.53945 26.6406 9.45155 26.4355 9.45155C26.2305 9.45155 26.1035 9.52968 25.9766 9.72499Z" fill="black" fill-opacity="0.85"/>
 </g>
</svg>
