<?xml version="1.0" encoding="UTF-8"?>
<!--Generator: Apple Native CoreSVG 326-->
<!DOCTYPE svg
PUBLIC "-//W3C//DTD SVG 1.1//EN"
       "http://www.w3.org/Graphics/SVG/1.1/DTD/svg11.dtd">
<svg version="1.1" xmlns="http://www.w3.org/2000/svg" xmlns:xlink="http://www.w3.org/1999/xlink" viewBox="0 0 35.7715 29.6777">
 <g>
  <rect height="29.6777" opacity="0" width="35.7715" x="0" y="0"/>
  <path d="M14.1406 9.39453C13.75 10.2344 13.4863 11.6895 13.4863 13.0566C13.4863 18.5645 16.6602 21.748 22.168 21.748C23.5352 21.748 24.9805 21.4648 25.8301 21.0938C26.709 20.7031 27.4219 21.3867 27.0508 22.2852C26.6733 23.1567 26.1685 23.9609 25.5549 24.6777L9.07365 24.6777C7.65039 22.9107 6.82617 20.6143 6.82617 18.0176C6.82617 13.5742 9.28711 9.76562 12.9492 8.17383C13.877 7.79297 14.6191 8.38867 14.1406 9.39453Z" fill="black" fill-opacity="0.85"/>
  <path d="M2.49023 27.7539L32.9199 27.7539C33.4277 27.7539 33.8574 27.373 33.8574 26.9043C33.8574 26.4258 33.4277 26.0449 32.9199 26.0449L2.49023 26.0449C1.98242 26.0449 1.5625 26.4258 1.5625 26.9043C1.5625 27.373 1.98242 27.7539 2.49023 27.7539Z" fill="black" fill-opacity="0.85"/>
  <path d="M24.1699 1.89453C23.6914 1.89453 23.291 2.31445 23.291 2.8418L23.291 9.375L23.418 11.3672L22.4805 10.3027L20.6738 8.48633C20.5176 8.32031 20.3027 8.23242 20.0977 8.23242C19.668 8.23242 19.3457 8.53516 19.3457 8.96484C19.3457 9.19922 19.4336 9.375 19.6289 9.56055L23.5742 13.3008C23.7988 13.4961 23.9648 13.5742 24.1699 13.5742C24.3652 13.5742 24.5312 13.4961 24.7559 13.3008L28.7012 9.56055C28.8965 9.375 28.9844 9.19922 28.9844 8.96484C28.9844 8.53516 28.6621 8.23242 28.2324 8.23242C28.0273 8.23242 27.8125 8.32031 27.6562 8.48633L25.9473 10.2051L24.9121 11.3672L25.0391 9.375L25.0391 2.8418C25.0391 2.31445 24.6387 1.89453 24.1699 1.89453Z" fill="black" fill-opacity="0.85"/>
 </g>
</svg>
