<?xml version="1.0" encoding="UTF-8"?>
<!--Generator: Apple Native CoreSVG 326-->
<!DOCTYPE svg
PUBLIC "-//W3C//DTD SVG 1.1//EN"
       "http://www.w3.org/Graphics/SVG/1.1/DTD/svg11.dtd">
<svg version="1.1" xmlns="http://www.w3.org/2000/svg" xmlns:xlink="http://www.w3.org/1999/xlink" viewBox="0 0 35.8594 29.1113">
 <g>
  <rect height="29.1113" opacity="0" width="35.8594" x="0" y="0"/>
  <path d="M15.1953 1.74805C15.4199 1.98242 15.4297 2.40234 15.2246 2.8125C14.8535 3.56445 14.6191 4.88281 14.6191 6.14258C14.6191 11.0645 17.7441 14.1309 22.7441 14.1309C24.0039 14.1309 25 13.9453 25.8691 13.6133C26.2695 13.4668 26.6211 13.5059 26.8164 13.7109C27.0508 13.9551 27.0898 14.3457 26.8848 14.7852C26.3195 16.0435 25.504 17.1606 24.4538 18.0469L21.2322 18.0469C22.8266 17.4227 24.0372 16.3831 24.7559 15.4395C24.1211 15.5957 23.2617 15.7129 22.4219 15.7129C16.7773 15.7129 13.0469 12.0605 13.0469 6.51367C13.0469 5.48828 13.1738 4.48242 13.418 3.74023C11.3965 5.32227 10.0586 7.77344 10.0586 10.5664C10.0586 13.9869 11.8783 16.8728 14.9751 18.0469L11.6967 18.0469C9.54202 16.2399 8.42773 13.51 8.42773 10.6836C8.42773 6.5918 10.7227 3.0957 14.0723 1.64062C14.5508 1.43555 14.9512 1.49414 15.1953 1.74805Z" fill="black" fill-opacity="0.85"/>
  <path d="M3.90625 24.2773L29.6875 24.2773C30.0781 24.2773 30.3906 23.9746 30.3906 23.584C30.3906 23.1836 30.0781 22.8906 29.6875 22.8906L3.90625 22.8906C3.51562 22.8906 3.20312 23.1836 3.20312 23.584C3.20312 23.9746 3.51562 24.2773 3.90625 24.2773ZM5.80078 29.1113L31.5918 29.1113C31.9824 29.1113 32.2852 28.8184 32.2852 28.4277C32.2852 28.0273 31.9824 27.7344 31.5918 27.7344L5.80078 27.7344C5.41016 27.7344 5.10742 28.0273 5.10742 28.4277C5.10742 28.8184 5.41016 29.1113 5.80078 29.1113ZM5.80078 19.4336L31.5918 19.4336C31.9824 19.4336 32.2852 19.1309 32.2852 18.7402C32.2852 18.3496 31.9824 18.0469 31.5918 18.0469L5.80078 18.0469C5.41016 18.0469 5.10742 18.3496 5.10742 18.7402C5.10742 19.1309 5.41016 19.4336 5.80078 19.4336Z" fill="black" fill-opacity="0.85"/>
 </g>
</svg>
