<?xml version="1.0" ?><!-- Generator: Adobe Illustrator 25.0.0, SVG Export Plug-In . SVG Version: 6.00 Build 0)  --><svg xmlns="http://www.w3.org/2000/svg" xmlns:xlink="http://www.w3.org/1999/xlink" version="1.1" id="Layer_1" x="0px" y="0px" viewBox="0 0 512 512" style="enable-background:new 0 0 512 512;" xml:space="preserve">
<path d="M290,119.9c2.7,0,4.4-2,4.9-4.7c7.6-40.9,7.4-41.9,50.3-50.1c2.7-0.7,4.7-2.2,4.7-5.2c0-3.2-2-4.7-4.7-5.2  c-42.9-8.6-41.7-9.6-50.3-50.3C294.5,1.7,292.7,0,290,0c-3,0-4.7,1.7-5.2,4.4c-8.6,40.7-7.2,41.7-50.3,50.3c-2.7,0.5-4.4,2-4.4,5.2  c0,3,1.7,4.4,4.4,5.2c43.2,8.6,42.4,9.1,50.3,50.1C285.3,117.9,287.1,119.9,290,119.9z M407.9,286.6c4.4,0,7.6-3.2,8.4-7.9  c7.9-66.1,11.3-67.6,78.2-78.4c5.2-0.7,8.4-3.5,8.4-8.4c0-4.7-3.2-7.4-7.4-8.4c-67.3-12.8-71.3-12.3-79.2-78.4  c-0.7-4.7-3.9-7.9-8.4-7.9c-4.4,0-7.9,3.2-8.4,7.6c-8.4,66.8-10.9,69.1-79.2,78.7c-4.2,0.7-7.4,3.7-7.4,8.4c0,4.7,3.2,7.6,7.4,8.4  c68.3,13.1,70.5,13.1,79.2,78.9C400,283.4,403.5,286.6,407.9,286.6z M222.2,512c89,0,161.3-44.4,194.3-121.1  c3.7-8.9,3.2-16.3-1.2-21c-3.7-3.5-10.4-4.2-18-1.2c-20.2,8.1-43.7,11.8-70.5,11.8C215.3,380.5,143,310.8,143,201  c0-27.9,5.2-58.9,13.6-76c4.4-8.9,4.2-16.3,0.5-21c-4.2-4.9-11.8-5.7-21.7-1.7C59.7,132.4,9.1,211.6,9.1,302.1  C9.1,422,97.4,512,222.2,512z"/>
</svg>