<?xml version="1.0" encoding="UTF-8"?>
<!--Generator: Apple Native CoreSVG 326-->
<!DOCTYPE svg
PUBLIC "-//W3C//DTD SVG 1.1//EN"
       "http://www.w3.org/Graphics/SVG/1.1/DTD/svg11.dtd">
<svg version="1.1" xmlns="http://www.w3.org/2000/svg" xmlns:xlink="http://www.w3.org/1999/xlink" viewBox="0 0 32.2852 30.2637">
 <g>
  <rect height="30.2637" opacity="0" width="32.2852" x="0" y="0"/>
  <path d="M12.4414 2.32422C12.6758 2.55859 12.6758 2.97852 12.4707 3.38867C12.0996 4.14062 11.8652 5.45898 11.8652 6.71875C11.8652 11.6406 15 14.707 19.9902 14.707C21.25 14.707 22.2559 14.5215 23.1152 14.1895C23.5156 14.043 23.8672 14.082 24.0625 14.2871C24.2969 14.5312 24.3359 14.9219 24.1406 15.3613C23.8322 16.0433 23.4507 16.6837 22.9948 17.2656L7.64641 17.2656C6.34327 15.5771 5.67383 13.4474 5.67383 11.2598C5.67383 7.16797 7.96875 3.67188 11.3184 2.2168C11.7969 2.01172 12.1973 2.07031 12.4414 2.32422Z" fill="black" fill-opacity="0.85"/>
  <path d="M4.26758 24.1504C4.60938 24.1504 4.88281 23.8867 4.88281 23.5449C4.88281 23.1934 4.60938 22.9297 4.26758 22.9297C3.92578 22.9297 3.66211 23.1934 3.66211 23.5449C3.66211 23.8867 3.92578 24.1504 4.26758 24.1504ZM9.59961 24.1504C9.94141 24.1504 10.2051 23.8867 10.2051 23.5449C10.2051 23.1934 9.94141 22.9297 9.59961 22.9297C9.24805 22.9297 8.98438 23.1934 8.98438 23.5449C8.98438 23.8867 9.24805 24.1504 9.59961 24.1504ZM14.9219 24.1504C15.2637 24.1504 15.5273 23.8867 15.5273 23.5449C15.5273 23.1934 15.2637 22.9297 14.9219 22.9297C14.5801 22.9297 14.3066 23.1934 14.3066 23.5449C14.3066 23.8867 14.5801 24.1504 14.9219 24.1504ZM20.2441 24.1504C20.5859 24.1504 20.8496 23.8867 20.8496 23.5449C20.8496 23.1934 20.5859 22.9297 20.2441 22.9297C19.9023 22.9297 19.6289 23.1934 19.6289 23.5449C19.6289 23.8867 19.9023 24.1504 20.2441 24.1504ZM25.5664 24.1504C25.9082 24.1504 26.1816 23.8867 26.1816 23.5449C26.1816 23.1934 25.9082 22.9297 25.5664 22.9297C25.2246 22.9297 24.9512 23.1934 24.9512 23.5449C24.9512 23.8867 25.2246 24.1504 25.5664 24.1504ZM2.66602 27.207C3.00781 27.207 3.27148 26.9434 3.27148 26.6016C3.27148 26.25 3.00781 25.9863 2.66602 25.9863C2.32422 25.9863 2.05078 26.25 2.05078 26.6016C2.05078 26.9434 2.32422 27.207 2.66602 27.207ZM7.98828 27.207C8.33008 27.207 8.59375 26.9434 8.59375 26.6016C8.59375 26.25 8.33008 25.9863 7.98828 25.9863C7.64648 25.9863 7.37305 26.25 7.37305 26.6016C7.37305 26.9434 7.64648 27.207 7.98828 27.207ZM13.3105 27.207C13.6523 27.207 13.9258 26.9434 13.9258 26.6016C13.9258 26.25 13.6523 25.9863 13.3105 25.9863C12.9688 25.9863 12.6953 26.25 12.6953 26.6016C12.6953 26.9434 12.9688 27.207 13.3105 27.207ZM18.6328 27.207C18.9746 27.207 19.248 26.9434 19.248 26.6016C19.248 26.25 18.9746 25.9863 18.6328 25.9863C18.291 25.9863 18.0273 26.25 18.0273 26.6016C18.0273 26.9434 18.291 27.207 18.6328 27.207ZM23.9551 27.207C24.2969 27.207 24.5703 26.9434 24.5703 26.6016C24.5703 26.25 24.2969 25.9863 23.9551 25.9863C23.6133 25.9863 23.3496 26.25 23.3496 26.6016C23.3496 26.9434 23.6133 27.207 23.9551 27.207ZM29.2773 27.207C29.6289 27.207 29.8926 26.9434 29.8926 26.6016C29.8926 26.25 29.6289 25.9863 29.2773 25.9863C28.9355 25.9863 28.6719 26.25 28.6719 26.6016C28.6719 26.9434 28.9355 27.207 29.2773 27.207ZM6.37695 30.2637C6.71875 30.2637 6.99219 30 6.99219 29.6484C6.99219 29.3066 6.71875 29.043 6.37695 29.043C6.03516 29.043 5.77148 29.3066 5.77148 29.6484C5.77148 30 6.03516 30.2637 6.37695 30.2637ZM11.6992 30.2637C12.041 30.2637 12.3145 30 12.3145 29.6484C12.3145 29.3066 12.041 29.043 11.6992 29.043C11.3574 29.043 11.0938 29.3066 11.0938 29.6484C11.0938 30 11.3574 30.2637 11.6992 30.2637ZM17.0215 30.2637C17.373 30.2637 17.6367 30 17.6367 29.6484C17.6367 29.3066 17.373 29.043 17.0215 29.043C16.6797 29.043 16.416 29.3066 16.416 29.6484C16.416 30 16.6797 30.2637 17.0215 30.2637ZM22.3535 30.2637C22.6953 30.2637 22.959 30 22.959 29.6484C22.959 29.3066 22.6953 29.043 22.3535 29.043C22.0117 29.043 21.7383 29.3066 21.7383 29.6484C21.7383 30 22.0117 30.2637 22.3535 30.2637ZM27.6758 30.2637C28.0176 30.2637 28.2812 30 28.2812 29.6484C28.2812 29.3066 28.0176 29.043 27.6758 29.043C27.334 29.043 27.0605 29.3066 27.0605 29.6484C27.0605 30 27.334 30.2637 27.6758 30.2637ZM3.05664 20.0098L28.8379 20.0098C29.2285 20.0098 29.5312 19.707 29.5312 19.3164C29.5312 18.9258 29.2285 18.623 28.8379 18.623L3.05664 18.623C2.66602 18.623 2.35352 18.9258 2.35352 19.3164C2.35352 19.707 2.66602 20.0098 3.05664 20.0098Z" fill="black" fill-opacity="0.85"/>
 </g>
</svg>
