<?xml version="1.0" encoding="UTF-8"?>
<!--Generator: Apple Native CoreSVG 326-->
<!DOCTYPE svg
PUBLIC "-//W3C//DTD SVG 1.1//EN"
       "http://www.w3.org/Graphics/SVG/1.1/DTD/svg11.dtd">
<svg version="1.1" xmlns="http://www.w3.org/2000/svg" xmlns:xlink="http://www.w3.org/1999/xlink" viewBox="0 0 24.3066 29.8535">
 <g>
  <rect height="29.8535" opacity="0" width="24.3066" x="0" y="0"/>
  <path d="M18.0078 5.23438L15.0977 5.23438L15.0977 5.16602L18.0566 1.28906C18.3008 0.976562 18.3984 0.791016 18.3984 0.576172C18.3984 0.214844 18.1152 0 17.7344 0L13.8281 0C13.4863 0 13.2324 0.234375 13.2324 0.566406C13.2324 0.927734 13.4863 1.15234 13.8281 1.15234L16.582 1.15234L16.582 1.2207L13.5938 5.08789C13.3594 5.40039 13.2617 5.56641 13.2617 5.81055C13.2617 6.15234 13.5254 6.38672 13.9062 6.38672L18.0078 6.38672C18.3496 6.38672 18.5938 6.16211 18.5938 5.80078C18.5938 5.46875 18.3496 5.23438 18.0078 5.23438ZM23.7402 9.98047L21.6016 9.98047L21.6016 9.92188L23.7891 7.08008C24.0137 6.78711 24.1113 6.61133 24.1113 6.39648C24.1113 6.05469 23.8379 5.83984 23.4766 5.83984L20.4297 5.83984C20.1074 5.83984 19.8633 6.06445 19.8633 6.38672C19.8633 6.73828 20.1074 6.95312 20.4297 6.95312L22.3828 6.95312L22.3828 7.00195L20.2051 9.84375C19.9902 10.127 19.9023 10.3027 19.9023 10.5371C19.9023 10.8594 20.1465 11.084 20.5078 11.084L23.7402 11.084C24.0723 11.084 24.3066 10.8691 24.3066 10.5371C24.3066 10.2051 24.0723 9.98047 23.7402 9.98047ZM18.3008 14.1797L16.5039 14.1797L16.5039 14.1309L18.3398 11.7188C18.5547 11.4258 18.6523 11.2695 18.6523 11.0645C18.6523 10.7324 18.3887 10.5371 18.0469 10.5371L15.3906 10.5371C15.0781 10.5371 14.8438 10.752 14.8438 11.0547C14.8438 11.3867 15.0781 11.5918 15.3906 11.5918L17.002 11.5918L17.002 11.6406L15.1758 14.0527C14.9707 14.3262 14.873 14.4824 14.873 14.7168C14.873 15.0195 15.1172 15.2441 15.459 15.2441L18.3008 15.2441C18.6133 15.2441 18.8281 15.0293 18.8281 14.707C18.8281 14.3945 18.6133 14.1797 18.3008 14.1797Z" fill="black" fill-opacity="0.85"/>
  <path d="M10.8789 28.2715C15.3516 28.2715 18.9941 25.8594 20.6445 22.2949C20.8398 21.8848 20.8008 21.5332 20.5859 21.3184C20.4199 21.1621 20.1074 21.123 19.7461 21.25C18.7109 21.6602 17.5586 21.8652 16.1621 21.8652C10.4785 21.8652 6.83594 18.3398 6.83594 12.6953C6.83594 11.3281 7.16797 9.74609 7.61719 8.81836C7.82227 8.39844 7.80273 8.05664 7.61719 7.83203C7.42188 7.60742 7.06055 7.55859 6.5918 7.76367C2.8418 9.47266 0.302734 13.2715 0.302734 17.6465C0.302734 23.5352 4.77539 28.2715 10.8789 28.2715Z" fill="black" fill-opacity="0.85"/>
 </g>
</svg>
