<?xml version="1.0" encoding="UTF-8"?>
<!--Generator: Apple Native CoreSVG 326-->
<!DOCTYPE svg
PUBLIC "-//W3C//DTD SVG 1.1//EN"
       "http://www.w3.org/Graphics/SVG/1.1/DTD/svg11.dtd">
<svg version="1.1" xmlns="http://www.w3.org/2000/svg" xmlns:xlink="http://www.w3.org/1999/xlink" viewBox="0 0 28.3691 27.4316">
 <g>
  <rect height="27.4316" opacity="0" width="28.3691" x="0" y="0"/>
  <path d="M23.6426 14.4141C23.8477 14.4141 23.9844 14.2773 24.0137 14.0625C24.4629 10.6934 24.5801 10.6543 27.998 10.0684C28.2324 10.0293 28.3691 9.91211 28.3691 9.69727C28.3691 9.49219 28.2324 9.36523 28.0371 9.32617C24.6094 8.67188 24.4629 8.71094 24.0137 5.33203C23.9844 5.11719 23.8477 4.98047 23.6426 4.98047C23.4473 4.98047 23.3008 5.11719 23.2812 5.32227C22.8125 8.73047 22.7441 8.79883 19.248 9.32617C19.0625 9.35547 18.916 9.49219 18.916 9.69727C18.916 9.90234 19.0625 10.0293 19.248 10.0684C22.7441 10.7422 22.8027 10.7129 23.2812 14.082C23.3008 14.2773 23.4473 14.4141 23.6426 14.4141ZM17.6172 6.06445C17.7441 6.06445 17.8223 5.98633 17.8418 5.85938C18.2129 3.75 18.2227 3.67188 20.4395 3.26172C20.5664 3.24219 20.6543 3.16406 20.6543 3.03711C20.6543 2.90039 20.5664 2.83203 20.4395 2.80273C18.2324 2.35352 18.3105 2.28516 17.8418 0.205078C17.8223 0.078125 17.7441 0 17.6172 0C17.4902 0 17.4219 0.078125 17.3926 0.205078C16.9336 2.28516 17.0312 2.35352 14.8047 2.80273C14.6777 2.83203 14.5898 2.90039 14.5898 3.03711C14.5898 3.16406 14.6777 3.24219 14.8047 3.26172C17.0312 3.71094 17.0117 3.75 17.3926 5.85938C17.4219 5.98633 17.4902 6.06445 17.6172 6.06445Z" fill="black" fill-opacity="0.85"/>
  <path d="M14.1992 25.8789C18.3984 25.8789 22.3535 23.623 24.0625 19.7656C24.2676 19.2871 24.209 18.9062 23.9941 18.6816C23.7988 18.4766 23.4473 18.4277 23.0273 18.584C22.0605 18.9648 20.918 19.1895 19.4434 19.1895C13.7402 19.1895 10.332 15.8887 10.332 10.2246C10.332 8.75977 10.5957 7.27539 11.0352 6.38672C11.25 5.9375 11.2305 5.53711 11.0254 5.29297C10.8008 5.04883 10.4004 4.95117 9.86328 5.18555C6.10352 6.82617 3.50586 10.7617 3.50586 15.0977C3.50586 21.1035 8.01758 25.8789 14.1992 25.8789ZM14.1992 24.2383C8.94531 24.2383 5.14648 20.166 5.14648 15.1562C5.14648 11.9531 6.77734 9.24805 9.22852 7.45117C8.91602 8.29102 8.75 9.49219 8.75 10.6543C8.75 16.9043 12.7344 20.7812 19.0625 20.7812C20.0977 20.7812 21.0742 20.6348 21.7285 20.4395C20.1855 22.7051 17.5098 24.2383 14.1992 24.2383Z" fill="black" fill-opacity="0.85"/>
 </g>
</svg>
