<?xml version="1.0" encoding="UTF-8"?>
<!--Generator: Apple Native CoreSVG 326-->
<!DOCTYPE svg
PUBLIC "-//W3C//DTD SVG 1.1//EN"
       "http://www.w3.org/Graphics/SVG/1.1/DTD/svg11.dtd">
<svg version="1.1" xmlns="http://www.w3.org/2000/svg" xmlns:xlink="http://www.w3.org/1999/xlink" viewBox="0 0 28.5742 27.4316">
 <g>
  <rect height="27.4316" opacity="0" width="28.5742" x="0" y="0"/>
  <path d="M23.8477 14.4141C24.0527 14.4141 24.1895 14.2773 24.2188 14.0625C24.668 10.6934 24.7852 10.6543 28.2031 10.0684C28.4375 10.0293 28.5742 9.91211 28.5742 9.69727C28.5742 9.49219 28.4375 9.36523 28.2422 9.32617C24.8145 8.67188 24.668 8.71094 24.2188 5.33203C24.1895 5.11719 24.0527 4.98047 23.8477 4.98047C23.6523 4.98047 23.5059 5.11719 23.4863 5.32227C23.0176 8.73047 22.9492 8.79883 19.4531 9.32617C19.2676 9.35547 19.1211 9.49219 19.1211 9.69727C19.1211 9.90234 19.2676 10.0293 19.4531 10.0684C22.9492 10.7422 23.0078 10.7129 23.4863 14.082C23.5059 14.2773 23.6523 14.4141 23.8477 14.4141ZM17.8223 6.06445C17.9492 6.06445 18.0273 5.98633 18.0469 5.85938C18.418 3.75 18.4277 3.67188 20.6445 3.26172C20.7715 3.24219 20.8594 3.16406 20.8594 3.03711C20.8594 2.90039 20.7715 2.83203 20.6445 2.80273C18.4375 2.35352 18.5156 2.28516 18.0469 0.205078C18.0273 0.078125 17.9492 0 17.8223 0C17.6953 0 17.627 0.078125 17.5977 0.205078C17.1387 2.28516 17.2363 2.35352 15.0098 2.80273C14.8828 2.83203 14.7949 2.90039 14.7949 3.03711C14.7949 3.16406 14.8828 3.24219 15.0098 3.26172C17.2363 3.71094 17.2168 3.75 17.5977 5.85938C17.627 5.98633 17.6953 6.06445 17.8223 6.06445Z" fill="black" fill-opacity="0.85"/>
  <path d="M14.2969 25.8203C18.7695 25.8203 22.4023 23.4082 24.0625 19.8438C24.248 19.4336 24.209 19.0918 24.0039 18.877C23.8379 18.7109 23.5156 18.6719 23.1543 18.8086C22.1289 19.209 20.9668 19.4238 19.5801 19.4238C13.8965 19.4238 10.2441 15.8984 10.2441 10.2441C10.2441 8.87695 10.5762 7.30469 11.0254 6.36719C11.2305 5.95703 11.2207 5.60547 11.0254 5.39062C10.8398 5.15625 10.4688 5.10742 10.0098 5.32227C6.25 7.02148 3.71094 10.8203 3.71094 15.1953C3.71094 21.084 8.18359 25.8203 14.2969 25.8203Z" fill="black" fill-opacity="0.85"/>
 </g>
</svg>
