<?xml version="1.0" ?><!-- Generator: Adobe Illustrator 25.0.0, SVG Export Plug-In . SVG Version: 6.00 Build 0)  --><svg xmlns="http://www.w3.org/2000/svg" xmlns:xlink="http://www.w3.org/1999/xlink" version="1.1" id="Layer_1" x="0px" y="0px" viewBox="0 0 512 512" style="enable-background:new 0 0 512 512;" xml:space="preserve">
<path d="M290,119.9c2.7,0,4.4-2,4.9-4.7c7.6-40.9,7.4-41.9,50.3-50.1c2.7-0.7,4.7-2.2,4.7-5.2c0-3.2-2-4.7-4.7-5.2  c-42.9-8.6-41.7-9.6-50.3-50.3C294.5,1.7,292.7,0,290,0c-3,0-4.7,1.7-5.2,4.4c-8.6,40.7-7.2,41.7-50.3,50.3c-2.7,0.5-4.4,2-4.4,5.2  c0,3,1.7,4.4,4.4,5.2c43.2,8.6,42.4,9.1,50.3,50.1C285.3,117.9,287.1,119.9,290,119.9z M224.7,512c90.3,0,163.3-45.4,196.6-122.6  c4.4-10.6,3-18.7-1.7-23.7c-4.4-4.2-11.8-5.2-20.7-1.7c-18.5,7.4-41.2,11.6-69.5,11.6C219,375.6,148,306.8,148,198.5  c0-29.8,5.7-59.4,13.3-75c4.9-9.9,4.4-18.3,0.2-23.4c-4.7-5.4-13.1-7.2-24.7-2.5C61.2,128.5,9.1,207.4,9.1,299.7  C9.1,419.8,97.4,512,224.7,512z M407.9,286.6c4.4,0,7.6-3.2,8.4-7.9c7.9-66.1,11.3-67.6,78.2-78.4c5.2-0.7,8.4-3.5,8.4-8.4  c0-4.7-3.2-7.4-7.4-8.4c-67.3-12.8-71.3-12.3-79.2-78.4c-0.7-4.7-3.9-7.9-8.4-7.9c-4.4,0-7.9,3.2-8.4,7.6  c-8.4,66.8-10.9,69.1-79.2,78.7c-4.2,0.7-7.4,3.7-7.4,8.4c0,4.7,3.2,7.6,7.4,8.4c68.3,13.1,70.5,13.1,79.2,78.9  C400,283.4,403.5,286.6,407.9,286.6z M225.2,474.5c-105.3,0-178.6-76.7-178.6-177.8c0-62.2,28.9-116.9,74.7-151.9  c-5.9,16-9.4,40.7-9.4,64.4c0,121.3,83.9,202.7,207.9,202.7c22.2,0,42.4-2.7,52.8-6.4C341.8,448.1,286.8,474.5,225.2,474.5z"/>
</svg>