<?xml version="1.0" encoding="UTF-8"?>
<!--Generator: Apple Native CoreSVG 326-->
<!DOCTYPE svg
PUBLIC "-//W3C//DTD SVG 1.1//EN"
       "http://www.w3.org/Graphics/SVG/1.1/DTD/svg11.dtd">
<svg version="1.1" xmlns="http://www.w3.org/2000/svg" xmlns:xlink="http://www.w3.org/1999/xlink" viewBox="0 0 24.3457 30.3809">
 <g>
  <rect height="30.3809" opacity="0" width="24.3457" x="0" y="0"/>
  <path d="M18.0469 5.23438L15.1367 5.23438L15.1367 5.16602L18.0957 1.28906C18.3398 0.976562 18.4375 0.791016 18.4375 0.576172C18.4375 0.214844 18.1543 0 17.7734 0L13.8672 0C13.5254 0 13.2715 0.224609 13.2715 0.566406C13.2715 0.927734 13.5254 1.15234 13.8672 1.15234L16.6211 1.15234L16.6211 1.21094L13.6328 5.08789C13.3984 5.39062 13.3105 5.55664 13.3105 5.81055C13.3105 6.14258 13.5645 6.38672 13.9453 6.38672L18.0469 6.38672C18.3887 6.38672 18.6328 6.16211 18.6328 5.80078C18.6328 5.45898 18.3887 5.23438 18.0469 5.23438ZM23.7793 9.98047L21.6406 9.98047L21.6406 9.92188L23.8281 7.07031C24.0527 6.77734 24.1504 6.60156 24.1504 6.38672C24.1504 6.04492 23.877 5.83984 23.5156 5.83984L20.4688 5.83984C20.1465 5.83984 19.9023 6.06445 19.9023 6.38672C19.9023 6.72852 20.1465 6.94336 20.4688 6.94336L22.4219 6.94336L22.4219 7.00195L20.2441 9.84375C20.0293 10.127 19.9414 10.3027 19.9414 10.5371C19.9414 10.8594 20.1855 11.084 20.5469 11.084L23.7793 11.084C24.1113 11.084 24.3457 10.8691 24.3457 10.5273C24.3457 10.2051 24.1113 9.98047 23.7793 9.98047ZM18.3398 14.1797L16.543 14.1797L16.543 14.1309L18.3789 11.709C18.5938 11.416 18.6914 11.2695 18.6914 11.0547C18.6914 10.7324 18.4277 10.5273 18.0859 10.5273L15.4297 10.5273C15.1172 10.5273 14.8828 10.7422 14.8828 11.0547C14.8828 11.3867 15.1172 11.582 15.4297 11.582L17.041 11.582L17.041 11.6406L15.2148 14.043C15.0098 14.3262 14.9121 14.4824 14.9121 14.707C14.9121 15.0195 15.1562 15.2344 15.498 15.2344L18.3398 15.2344C18.6523 15.2344 18.8672 15.0195 18.8672 14.707C18.8672 14.3945 18.6523 14.1797 18.3398 14.1797Z" fill="black" fill-opacity="0.85"/>
  <path d="M11.1719 28.2617C15.3711 28.2617 19.3262 26.0156 21.0352 22.1582C21.2402 21.6699 21.1816 21.2891 20.9668 21.0645C20.7715 20.8594 20.4102 20.8105 20 20.9766C19.0332 21.3477 17.8809 21.5723 16.416 21.5723C10.7129 21.5723 7.29492 18.2715 7.29492 12.6074C7.29492 11.1426 7.56836 9.6582 7.99805 8.76953C8.22266 8.32031 8.20312 7.91992 7.98828 7.68555C7.77344 7.43164 7.37305 7.33398 6.82617 7.56836C3.07617 9.20898 0.478516 13.1445 0.478516 17.4805C0.478516 23.4863 4.99023 28.2617 11.1719 28.2617ZM11.1719 26.6309C5.91797 26.6309 2.11914 22.5488 2.11914 17.5391C2.11914 14.3359 3.75 11.6406 6.19141 9.83398C5.88867 10.6738 5.72266 11.875 5.72266 13.0371C5.72266 19.2969 9.70703 23.1641 16.0352 23.1641C17.0703 23.1641 18.0371 23.0176 18.7012 22.832C17.1484 25.0879 14.4824 26.6309 11.1719 26.6309Z" fill="black" fill-opacity="0.85"/>
 </g>
</svg>
