<?xml version="1.0" encoding="UTF-8"?>
<!--Generator: Apple Native CoreSVG 326-->
<!DOCTYPE svg
PUBLIC "-//W3C//DTD SVG 1.1//EN"
       "http://www.w3.org/Graphics/SVG/1.1/DTD/svg11.dtd">
<svg version="1.1" xmlns="http://www.w3.org/2000/svg" xmlns:xlink="http://www.w3.org/1999/xlink" viewBox="0 0 25.8008 25.459">
 <g>
  <rect height="25.459" opacity="0" width="25.8008" x="0" y="0"/>
  <path d="M25.4395 12.7344C25.4395 19.7461 19.7266 25.459 12.7148 25.459C5.71289 25.459 0 19.7461 0 12.7344C0 5.73242 5.71289 0.0195312 12.7148 0.0195312C19.7266 0.0195312 25.4395 5.73242 25.4395 12.7344ZM7.38281 19.8828C7.38281 20.2051 7.65625 20.4785 7.95898 20.4785C8.28125 20.4785 8.55469 20.2051 8.55469 19.8828C8.55469 19.5801 8.28125 19.3066 7.95898 19.3066C7.65625 19.3066 7.38281 19.5801 7.38281 19.8828ZM10.5664 19.8828C10.5664 20.2051 10.8203 20.4785 11.1426 20.4785C11.4648 20.4785 11.7285 20.2051 11.7285 19.8828C11.7285 19.5801 11.4648 19.3066 11.1426 19.3066C10.8203 19.3066 10.5664 19.5801 10.5664 19.8828ZM13.7305 19.8828C13.7305 20.2051 13.9941 20.4785 14.3164 20.4785C14.6387 20.4785 14.8926 20.2051 14.8926 19.8828C14.8926 19.5801 14.6387 19.3066 14.3164 19.3066C13.9941 19.3066 13.7305 19.5801 13.7305 19.8828ZM16.8945 19.8828C16.8945 20.2051 17.1582 20.4785 17.4805 20.4785C17.793 20.4785 18.0664 20.2051 18.0664 19.8828C18.0664 19.5801 17.793 19.3066 17.4805 19.3066C17.1582 19.3066 16.8945 19.5801 16.8945 19.8828ZM5.80078 18.1152C5.80078 18.4375 6.06445 18.7012 6.38672 18.7012C6.70898 18.7012 6.96289 18.4375 6.96289 18.1152C6.96289 17.793 6.70898 17.5391 6.38672 17.5391C6.06445 17.5391 5.80078 17.793 5.80078 18.1152ZM8.97461 18.1152C8.97461 18.4375 9.23828 18.7012 9.56055 18.7012C9.87305 18.7012 10.1465 18.4375 10.1465 18.1152C10.1465 17.793 9.87305 17.5391 9.56055 17.5391C9.23828 17.5391 8.97461 17.793 8.97461 18.1152ZM12.1387 18.1152C12.1387 18.4375 12.4121 18.7012 12.7344 18.7012C13.0469 18.7012 13.3203 18.4375 13.3203 18.1152C13.3203 17.793 13.0469 17.5391 12.7344 17.5391C12.4121 17.5391 12.1387 17.793 12.1387 18.1152ZM15.3125 18.1152C15.3125 18.4375 15.5859 18.7012 15.8984 18.7012C16.2207 18.7012 16.4844 18.4375 16.4844 18.1152C16.4844 17.793 16.2207 17.5391 15.8984 17.5391C15.5859 17.5391 15.3125 17.793 15.3125 18.1152ZM18.4863 18.1152C18.4863 18.4375 18.7598 18.7012 19.0625 18.7012C19.3848 18.7012 19.6582 18.4375 19.6582 18.1152C19.6582 17.793 19.3848 17.5391 19.0625 17.5391C18.7598 17.5391 18.4863 17.793 18.4863 18.1152ZM5.30273 15.166C4.95117 15.166 4.63867 15.4297 4.63867 15.791C4.63867 16.1523 4.96094 16.416 5.30273 16.416L20.1172 16.416C20.4688 16.416 20.791 16.1523 20.791 15.791C20.791 15.4297 20.4785 15.166 20.1172 15.166ZM10.0781 4.91211C7.99805 5.82031 6.58203 7.98828 6.58203 10.5371C6.58203 11.9922 7.03125 13.2715 7.8418 14.2773L17.3145 14.2773C17.627 13.9258 17.8613 13.5352 18.0566 13.0859C18.1836 12.8125 18.1641 12.5684 18.0078 12.4121C17.8906 12.2949 17.6758 12.2656 17.4316 12.3633C16.8945 12.5781 16.2598 12.6855 15.4883 12.6855C12.373 12.6855 10.4297 10.7812 10.4297 7.71484C10.4297 6.91406 10.5566 6.10352 10.8008 5.625C10.9375 5.38086 10.9082 5.13672 10.7812 4.9707C10.6543 4.80469 10.3711 4.77539 10.0781 4.91211Z" fill="black" fill-opacity="0.85"/>
 </g>
</svg>
