<?xml version="1.0" encoding="UTF-8"?>
<!--Generator: Apple Native CoreSVG 326-->
<!DOCTYPE svg
PUBLIC "-//W3C//DTD SVG 1.1//EN"
       "http://www.w3.org/Graphics/SVG/1.1/DTD/svg11.dtd">
<svg version="1.1" xmlns="http://www.w3.org/2000/svg" xmlns:xlink="http://www.w3.org/1999/xlink" viewBox="0 0 25.8008 25.459">
 <g>
  <rect height="25.459" opacity="0" width="25.8008" x="0" y="0"/>
  <path d="M25.4395 12.7344C25.4395 19.7461 19.7266 25.459 12.7148 25.459C5.71289 25.459 0 19.7461 0 12.7344C0 5.73242 5.71289 0.0195312 12.7148 0.0195312C19.7266 0.0195312 25.4395 5.73242 25.4395 12.7344ZM5.75195 17.4414C5.41992 17.4414 5.12695 17.7051 5.12695 18.0371C5.12695 18.3789 5.42969 18.623 5.75195 18.623L19.6777 18.623C20.0098 18.623 20.3125 18.3789 20.3125 18.0371C20.3125 17.7051 20.0195 17.4414 19.6777 17.4414ZM10.5273 7.55859C8.53516 8.42773 7.17773 10.498 7.17773 12.9492C7.17773 14.3457 7.62695 15.5859 8.39844 16.543L17.4512 16.543C17.7539 16.2207 17.9883 15.8203 18.1836 15.3809C18.3008 15.1367 18.2715 14.9023 18.1348 14.7461C18.0176 14.6484 17.8223 14.6094 17.5781 14.707C17.0605 14.9121 16.4551 15.0195 15.7129 15.0195C12.7148 15.0195 10.8496 13.1836 10.8496 10.2441C10.8496 9.48242 10.9863 8.70117 11.2109 8.24219C11.3379 7.99805 11.3086 7.77344 11.2012 7.60742C11.0645 7.46094 10.8105 7.43164 10.5273 7.55859ZM15.4199 5.23438L13.418 7.13867C13.252 7.28516 13.2031 7.42188 13.2031 7.57812C13.2031 7.88086 13.4375 8.10547 13.75 8.10547C13.8965 8.10547 14.0527 8.02734 14.1699 7.91992L15.1074 7.00195L15.2637 6.83594L15.2246 7.36328L15.2246 10.332C15.2246 10.6738 15.4785 10.9668 15.8301 10.9668C16.1719 10.9668 16.4258 10.6738 16.4258 10.332L16.4258 7.36328L16.3965 6.80664L16.6309 7.04102L17.4902 7.93945C17.5879 8.03711 17.7734 8.10547 17.9004 8.10547C18.2129 8.10547 18.4473 7.88086 18.4473 7.57812C18.4473 7.42188 18.4082 7.29492 18.2422 7.13867L16.2305 5.23438C16.0938 5.11719 15.9668 5.04883 15.8301 5.04883C15.6836 5.04883 15.5566 5.11719 15.4199 5.23438Z" fill="black" fill-opacity="0.85"/>
 </g>
</svg>
