<?xml version="1.0" encoding="UTF-8"?>
<!--Generator: Apple Native CoreSVG 326-->
<!DOCTYPE svg
PUBLIC "-//W3C//DTD SVG 1.1//EN"
       "http://www.w3.org/Graphics/SVG/1.1/DTD/svg11.dtd">
<svg version="1.1" xmlns="http://www.w3.org/2000/svg" xmlns:xlink="http://www.w3.org/1999/xlink" viewBox="0 0 33.4961 29.1113">
 <g>
  <rect height="29.1113" opacity="0" width="33.4961" x="0" y="0"/>
  <path d="M14.0137 1.74805C14.2383 1.98242 14.248 2.40234 14.043 2.8125C13.6719 3.56445 13.4375 4.88281 13.4375 6.14258C13.4375 11.0645 16.5625 14.1309 21.5625 14.1309C22.8223 14.1309 23.8184 13.9453 24.6875 13.6133C25.0879 13.4668 25.4395 13.5059 25.6348 13.7109C25.8691 13.9551 25.9082 14.3457 25.7031 14.7852C25.3968 15.4671 25.0169 16.1076 24.5623 16.6895L9.21546 16.6895C7.91361 15.001 7.24609 12.8712 7.24609 10.6836C7.24609 6.5918 9.54102 3.0957 12.8906 1.64062C13.3691 1.43555 13.7695 1.49414 14.0137 1.74805Z" fill="black" fill-opacity="0.85"/>
  <path d="M2.72461 24.2773L28.5059 24.2773C28.8965 24.2773 29.209 23.9746 29.209 23.584C29.209 23.1836 28.8965 22.8906 28.5059 22.8906L2.72461 22.8906C2.33398 22.8906 2.02148 23.1836 2.02148 23.584C2.02148 23.9746 2.33398 24.2773 2.72461 24.2773ZM4.61914 29.1113L30.4102 29.1113C30.8008 29.1113 31.1035 28.8184 31.1035 28.4277C31.1035 28.0273 30.8008 27.7344 30.4102 27.7344L4.61914 27.7344C4.22852 27.7344 3.92578 28.0273 3.92578 28.4277C3.92578 28.8184 4.22852 29.1113 4.61914 29.1113ZM4.61914 19.4336L30.4102 19.4336C30.8008 19.4336 31.1035 19.1309 31.1035 18.7402C31.1035 18.3496 30.8008 18.0469 30.4102 18.0469L4.61914 18.0469C4.22852 18.0469 3.92578 18.3496 3.92578 18.7402C3.92578 19.1309 4.22852 19.4336 4.61914 19.4336Z" fill="black" fill-opacity="0.85"/>
 </g>
</svg>
