<?xml version="1.0" encoding="UTF-8"?>
<!--Generator: Apple Native CoreSVG 326-->
<!DOCTYPE svg
PUBLIC "-//W3C//DTD SVG 1.1//EN"
       "http://www.w3.org/Graphics/SVG/1.1/DTD/svg11.dtd">
<svg version="1.1" xmlns="http://www.w3.org/2000/svg" xmlns:xlink="http://www.w3.org/1999/xlink" viewBox="0 0 25.8008 25.459">
 <g>
  <rect height="25.459" opacity="0" width="25.8008" x="0" y="0"/>
  <path d="M12.7148 25.4395C19.7363 25.4395 25.4395 19.7461 25.4395 12.7246C25.4395 5.70312 19.7363 0 12.7148 0C5.69336 0 0 5.70312 0 12.7246C0 19.7461 5.69336 25.4395 12.7148 25.4395ZM12.7148 23.623C6.68945 23.623 1.81641 18.75 1.81641 12.7246C1.81641 6.69922 6.68945 1.82617 12.7148 1.82617C18.7402 1.82617 23.6133 6.69922 23.6133 12.7246C23.6133 18.75 18.7402 23.623 12.7148 23.623Z" fill="black" fill-opacity="0.85"/>
  <path d="M15.7422 5.19531C15.4102 5.19531 15.1562 5.47852 15.1562 5.81055L15.1562 8.7207L15.1855 9.23828L15.0293 9.07227L14.1211 8.16406C14.0039 8.06641 13.8574 7.98828 13.7109 7.98828C13.4082 7.98828 13.1836 8.21289 13.1836 8.50586C13.1836 8.65234 13.2324 8.78906 13.3887 8.92578L15.3516 10.791C15.4785 10.9082 15.6055 10.9668 15.7422 10.9668C15.8789 10.9668 16.0059 10.9082 16.1328 10.791L18.1055 8.92578C18.252 8.7793 18.3008 8.65234 18.3008 8.50586C18.3008 8.21289 18.0762 7.98828 17.7734 7.98828C17.6465 7.98828 17.4707 8.04688 17.373 8.1543L16.5234 9.0332L16.2988 9.26758L16.3281 8.7207L16.3281 5.81055C16.3281 5.47852 16.0742 5.19531 15.7422 5.19531ZM5.89844 18.4473L19.5117 18.4473C19.834 18.4473 20.1172 18.2031 20.1172 17.8809C20.1172 17.5488 19.8438 17.2949 19.5117 17.2949L5.89844 17.2949C5.57617 17.2949 5.29297 17.5488 5.29297 17.8809C5.29297 18.2031 5.58594 18.4473 5.89844 18.4473ZM8.49609 16.4355L17.3242 16.4355C17.627 16.1035 17.8516 15.7129 18.0469 15.293C18.1641 15.0391 18.1348 14.8242 17.998 14.668C17.8809 14.5703 17.6953 14.541 17.4512 14.6289C16.9531 14.8242 16.3574 14.9316 15.6348 14.9316C12.7051 14.9316 10.8789 13.1348 10.8789 10.2539C10.8789 9.51172 11.0059 8.75 11.2305 8.30078C11.3574 8.06641 11.3281 7.85156 11.2207 7.69531C11.0938 7.53906 10.8398 7.50977 10.5664 7.64648C8.62305 8.49609 7.29492 10.5176 7.29492 12.9004C7.29492 14.2676 7.73438 15.4883 8.49609 16.4355Z" fill="black" fill-opacity="0.85"/>
 </g>
</svg>
