<?xml version="1.0" ?><!-- Generator: Adobe Illustrator 25.0.0, SVG Export Plug-In . SVG Version: 6.00 Build 0)  --><svg xmlns="http://www.w3.org/2000/svg" xmlns:xlink="http://www.w3.org/1999/xlink" version="1.1" id="Layer_1" x="0px" y="0px" viewBox="0 0 512 512" style="enable-background:new 0 0 512 512;" xml:space="preserve">
<path d="M400.6,345.8c-139.6,0-228.9-87.5-228.9-227.4c0-28.9,7-70.2,16.3-91.6c2.3-5.9,2.8-9.5,2.8-12.1c0-7-5.2-14.7-15.2-14.7  c-2.8,0-9,0.8-14.7,2.8C65.4,41,1.4,143.7,1.4,251.9C1.4,403.6,117,512,268.3,512c111.2,0,207.5-67.4,239.5-151.5  c2.3-5.9,2.8-12.1,2.8-14.5c0-9.5-8-16-15.2-16c-3.4,0-6.2,0.8-11.1,2.3C464.4,338.8,432.4,345.8,400.6,345.8z"/>
</svg>