<?xml version="1.0" ?><!-- Generator: Adobe Illustrator 25.0.0, SVG Export Plug-In . SVG Version: 6.00 Build 0)  --><svg xmlns="http://www.w3.org/2000/svg" xmlns:xlink="http://www.w3.org/1999/xlink" version="1.1" id="Layer_1" x="0px" y="0px" viewBox="0 0 512 512" style="enable-background:new 0 0 512 512;" xml:space="preserve">
<path d="M356.8,95.5h-51.2v-1.1l52.3-69.2c4.7-6.1,6.7-9.9,6.7-13.9c0-7-5.6-11.2-13-11.2h-72.1c-6.7,0-11.7,4.7-11.7,11.5  c0,7.4,4.9,11.9,11.7,11.9h48.3v1.1l-53,68.7c-4.7,6.1-6.3,9.4-6.3,14.2c0,6.5,4.9,11.2,12.4,11.2h75.9c6.7,0,11.9-4.3,11.9-11.7  C368.7,100,363.5,95.5,356.8,95.5z M461.9,181.3H426v-0.9l37.3-48.8c4-5.6,6.1-9.2,6.1-13.3c0-6.5-5.4-10.6-12.4-10.6h-54.8  c-6.5,0-11.2,4.3-11.2,10.8c0,7.2,4.7,11.2,11.2,11.2h32.4v0.9l-37.1,48.8c-4,5.4-5.8,9-5.8,13.5c0,6.1,4.7,10.6,11.9,10.6h58.4  c6.5,0,11.2-4.3,11.2-11C473.1,185.8,468.4,181.3,461.9,181.3z M235.2,512c82.2,0,148.7-41.3,179.1-111.7c4-9.7,2.7-17.1-1.6-21.6  c-4-3.8-10.8-4.7-18.9-1.6c-16.8,6.7-37.5,10.6-63.4,10.6c-100.4,0-165.1-62.7-165.1-161.3c0-27.2,5.2-54.1,12.1-68.3  c4.5-9,4-16.6,0.2-21.3c-4.3-4.9-11.9-6.5-22.5-2.2c-69,28.1-116.4,100-116.4,184C38.9,428,119.3,512,235.2,512z M235.7,477.9  C139.7,477.9,73,408,73,315.9c0-56.6,26.3-106.5,68.1-138.4c-5.4,14.6-8.5,37.1-8.5,58.6c0,110.5,76.4,184.7,189.4,184.7  c20.2,0,38.6-2.5,48.1-5.8C341.9,453.8,291.8,477.9,235.7,477.9z M362.8,258.1h-30.6v-0.9l31.5-42c4.3-5.6,6.1-8.8,6.1-12.6  c0-6.3-5.2-10.1-11.7-10.1h-48.3c-6.3,0-10.8,4-10.8,10.3c0,6.7,4.5,10.6,10.8,10.6h27v0.9l-31.5,41.8c-3.8,5.4-5.6,8.5-5.6,12.8  c0,6.1,4.7,10.3,11.2,10.3h51.9c6.1,0,10.3-4.3,10.3-10.8C373.2,262.4,368.9,258.1,362.8,258.1z"/>
</svg>