<?xml version="1.0" ?><!-- Generator: Adobe Illustrator 25.0.0, SVG Export Plug-In . SVG Version: 6.00 Build 0)  --><svg xmlns="http://www.w3.org/2000/svg" xmlns:xlink="http://www.w3.org/1999/xlink" version="1.1" id="Layer_1" x="0px" y="0px" viewBox="0 0 512 512" style="enable-background:new 0 0 512 512;" xml:space="preserve">
<path d="M370.7,141.3V0h54C483.1,0,512,28.9,512,86.2v55.1H370.7z M370.7,186.1H512v139.9H370.7V186.1z M325.9,325.9H0V86.2  C0,28.6,29.2,0,87.3,0h238.6V325.9z M370.7,512V370.7H512v55.1c0,57.3-28.9,86.2-87.3,86.2H370.7z M325.9,370.7V512H186.1V370.7  H325.9z M0,370.7h141.3V512h-54C29.2,512,0,483.4,0,425.8V370.7z"/>
</svg>