<?xml version="1.0" ?><!-- Generator: Adobe Illustrator 25.0.0, SVG Export Plug-In . SVG Version: 6.00 Build 0)  --><svg xmlns="http://www.w3.org/2000/svg" xmlns:xlink="http://www.w3.org/1999/xlink" version="1.1" id="Layer_1" x="0px" y="0px" viewBox="0 0 512 512" style="enable-background:new 0 0 512 512;" xml:space="preserve">
<path d="M87.3,512h337.3c58.4,0,87.3-28.9,87.3-86.2V86.2C512,28.9,483.1,0,424.7,0H87.3C29.2,0,0,28.6,0,86.2v339.6  C0,483.4,29.2,512,87.3,512z M44.8,88.4c0-28.9,15.3-43.7,43.1-43.7h223.6v266.7H44.8V88.4z M424.1,44.8c27.5,0,43.1,14.7,43.1,43.7  v67.3h-111v-111H424.1z M356.3,311.5v-111h111v111H356.3z M87.9,467.2c-27.8,0-43.1-14.7-43.1-43.7v-67.3h111v111H87.9z   M200.5,467.2v-111h111v111H200.5z M467.2,423.6c0,28.9-15.6,43.7-43.1,43.7h-67.9v-111h111V423.6z"/>
</svg>