<?xml version="1.0" ?><!-- Generator: Adobe Illustrator 25.0.0, SVG Export Plug-In . SVG Version: 6.00 Build 0)  --><svg xmlns="http://www.w3.org/2000/svg" xmlns:xlink="http://www.w3.org/1999/xlink" version="1.1" id="Layer_1" x="0px" y="0px" viewBox="0 0 512 512" style="enable-background:new 0 0 512 512;" xml:space="preserve">
<path d="M78.2,184.6h355.6c30.2,0,33.1-33.7,14.9-47.3L286.4,13c-23-17.3-37.9-17.3-60.9,0L63.3,137.3  C45.2,150.9,48,184.6,78.2,184.6z M113.2,152c-5.3,0-6.8-6.1-2.6-9.4l132-101.2c7.2-5.5,19.5-5.3,26.5,0l132.2,101.2  c4.2,3.3,2.6,9.4-2.6,9.4H113.2z M64,275h384c10.1,0,18.6-8.8,18.6-19c0-10.3-8.5-19.3-18.6-19.3H64c-10.1,0-18.6,9-18.6,19.3  C45.4,266.3,53.9,275,64,275z M78.2,327.4c-30.2,0-33.1,33.5-14.9,47.3L225.6,499c23,17.3,37.9,17.3,60.9,0l162.2-124.4  c18.2-13.8,15.3-47.3-14.9-47.3H78.2z M113.2,360h285.5c5.3,0,6.8,5.9,2.6,9.4L269.1,470.6c-7,5.3-19.3,5.5-26.5,0l-132-101.2  C106.5,365.9,108,360,113.2,360z"/>
</svg>