<?xml version="1.0" encoding="UTF-8"?>
<!--Generator: Apple Native CoreSVG 326-->
<!DOCTYPE svg
PUBLIC "-//W3C//DTD SVG 1.1//EN"
       "http://www.w3.org/Graphics/SVG/1.1/DTD/svg11.dtd">
<svg version="1.1" xmlns="http://www.w3.org/2000/svg" xmlns:xlink="http://www.w3.org/1999/xlink" viewBox="0 0 25.8008 25.459">
 <g>
  <rect height="25.459" opacity="0" width="25.8008" x="0" y="0"/>
  <path d="M25.4395 12.7344C25.4395 19.7461 19.7266 25.459 12.7148 25.459C5.71289 25.459 0 19.7461 0 12.7344C0 5.73242 5.71289 0.0195312 12.7148 0.0195312C19.7266 0.0195312 25.4395 5.73242 25.4395 12.7344ZM12.6562 12.1582C11.8164 12.1582 11.1719 11.3672 10.7422 11.5039L7.71484 15.4688C7.24609 16.084 7.49023 16.9727 8.4082 16.9727L20.6836 16.9727C21.5918 16.9727 21.8457 16.0938 21.3672 15.4688L18.3496 11.5039C17.9199 11.377 17.2754 12.1582 16.4355 12.1582C15.4688 12.1582 15.1074 11.3965 14.5508 11.3965C13.9941 11.3965 13.6328 12.1582 12.6562 12.1582ZM8.41797 10.0195L4.10156 15.3906C3.56445 16.0645 3.81836 16.9727 4.75586 16.9727L6.79688 16.9727C6.47461 16.3867 6.50391 15.5762 6.99219 14.9316L10.4688 10.4199L10.1367 10.0195C9.62891 9.39453 8.93555 9.39453 8.41797 10.0195ZM13.6719 7.65625L11.2695 10.8008C11.8066 10.9863 12.2363 11.4355 12.6562 11.4355C13.1738 11.4355 13.623 10.6641 14.5508 10.6641C15.4785 10.6641 15.918 11.4355 16.4355 11.4355C16.8457 11.4355 17.2852 10.9961 17.832 10.8008L15.4395 7.65625C14.9414 7.01172 14.1797 6.99219 13.6719 7.65625Z" fill="black" fill-opacity="0.85"/>
 </g>
</svg>
