<?xml version="1.0" ?><!-- Generator: Adobe Illustrator 25.0.0, SVG Export Plug-In . SVG Version: 6.00 Build 0)  --><svg xmlns="http://www.w3.org/2000/svg" xmlns:xlink="http://www.w3.org/1999/xlink" version="1.1" id="Layer_1" x="0px" y="0px" viewBox="0 0 512 512" style="enable-background:new 0 0 512 512;" xml:space="preserve">
<path d="M11.2,236.3c76,94.8,147.3,146.1,244.9,146.1c97.4,0,168.8-51.3,244.7-146.1c20.6-25.7,11.2-49.1-12.6-51.9  c-72-8.6-91.2-54.9-150.3-54.9c-46.7,0-74.4,36.7-81.8,36.7c-7.6,0-35.3-36.7-82-36.7c-59.1,0-78,46.3-150.3,54.9  C0.2,187.3-9.2,210.6,11.2,236.3z M56.9,231.6c-10.2-6.2-4-17.6,5.4-13.2c28.1,13.4,57.3,12,94,8c9.8-1.2,19.6-2.6,29.3-2.6  c30.3,0,46.7,10.6,57.7,17.2c7.2,4.2,9.6,5,12.8,5c3.2,0,5.6-0.8,12.8-5c11-6.4,27.1-17.2,57.5-17.2c9.8,0,19.6,1.4,29.5,2.6  c36.5,5,65.9,5.4,94-8c9.4-4.4,15.6,7,5.2,13.2c-46.1,28.1-98.6,18.8-120.7,18.6c-46.5,0-51.5,24.1-78.2,24.1  c-26.7,0-31.7-24.1-78.4-24.1C155.7,250.3,103,260.1,56.9,231.6z"/>
</svg>