<?xml version="1.0" encoding="UTF-8"?>
<!--Generator: Apple Native CoreSVG 326-->
<!DOCTYPE svg
PUBLIC "-//W3C//DTD SVG 1.1//EN"
       "http://www.w3.org/Graphics/SVG/1.1/DTD/svg11.dtd">
<svg version="1.1" xmlns="http://www.w3.org/2000/svg" xmlns:xlink="http://www.w3.org/1999/xlink" viewBox="0 0 25.8008 25.459">
 <g>
  <rect height="25.459" opacity="0" width="25.8008" x="0" y="0"/>
  <path d="M12.7148 25.4395C19.7363 25.4395 25.4395 19.7461 25.4395 12.7246C25.4395 5.70312 19.7363 0 12.7148 0C5.69336 0 0 5.70312 0 12.7246C0 19.7461 5.69336 25.4395 12.7148 25.4395ZM12.7148 23.623C6.68945 23.623 1.81641 18.75 1.81641 12.7246C1.81641 6.69922 6.68945 1.82617 12.7148 1.82617C18.7402 1.82617 23.6133 6.69922 23.6133 12.7246C23.6133 18.75 18.7402 23.623 12.7148 23.623Z" fill="black" fill-opacity="0.85"/>
  <path d="M4.73633 16.8457C5.10742 16.8457 5.3125 16.6113 5.3125 16.2402L5.3125 10.5371L5.35156 10.5371L6.54297 16.0449C6.63086 16.4355 6.85547 16.709 7.23633 16.709C7.64648 16.709 7.85156 16.4355 7.93945 16.0352L9.12109 10.5371L9.16992 10.5371L9.16992 16.2402C9.16992 16.6016 9.38477 16.8457 9.73633 16.8457C10.1074 16.8457 10.3125 16.6113 10.3125 16.2402L10.3125 9.51172C10.3125 8.93555 9.94141 8.59375 9.375 8.59375C8.85742 8.59375 8.55469 8.81836 8.4375 9.35547L7.25586 15L7.23633 15L6.02539 9.35547C5.89844 8.78906 5.5957 8.59375 5.09766 8.59375C4.44336 8.59375 4.16016 9.04297 4.16016 9.51172L4.16016 16.2402C4.16016 16.6016 4.375 16.8457 4.73633 16.8457ZM12.0898 16.8262C12.4609 16.8262 12.7246 16.6016 12.7246 16.1621L12.7246 13.9844L13.6426 13.9844C15.0684 13.9844 15.8105 12.7246 15.8105 11.3477C15.8105 9.93164 15.0977 8.70117 13.7109 8.70117L12.0801 8.70117C11.7188 8.70117 11.4551 8.92578 11.4551 9.375L11.4551 16.1621C11.4551 16.6309 11.7676 16.8262 12.0898 16.8262ZM12.7246 12.9492L12.7246 9.74609L13.3887 9.74609C14.2383 9.74609 14.5508 10.4883 14.5508 11.3477C14.5508 12.207 14.2383 12.9492 13.3789 12.9492ZM17.3242 16.8457C17.7441 16.8457 17.9688 16.5625 17.9688 16.1523L17.9688 13.1836L20.0977 13.1836L20.0977 16.1523C20.0977 16.5234 20.293 16.8457 20.7422 16.8457C21.1523 16.8457 21.3672 16.582 21.3672 16.1523L21.3672 9.27734C21.3672 8.83789 21.1426 8.59375 20.7422 8.59375C20.3027 8.59375 20.0977 8.87695 20.0977 9.27734L20.0977 12.0996L17.9688 12.0996L17.9688 9.27734C17.9688 8.85742 17.7441 8.59375 17.3242 8.59375C16.9141 8.59375 16.6895 8.85742 16.6895 9.27734L16.6895 16.1523C16.6895 16.5625 16.9141 16.8457 17.3242 16.8457Z" fill="black" fill-opacity="0.85"/>
 </g>
</svg>
