<?xml version="1.0" encoding="UTF-8"?>
<!--Generator: Apple Native CoreSVG 326-->
<!DOCTYPE svg
PUBLIC "-//W3C//DTD SVG 1.1//EN"
       "http://www.w3.org/Graphics/SVG/1.1/DTD/svg11.dtd">
<svg version="1.1" xmlns="http://www.w3.org/2000/svg" xmlns:xlink="http://www.w3.org/1999/xlink" viewBox="0 0 39.1406 19.5605">
 <g>
  <rect height="19.5605" opacity="0" width="39.1406" x="0" y="0"/>
  <path d="M0.927734 19.5508C1.5332 19.5508 1.83594 19.1309 1.83594 18.5742L1.83594 3.1543L1.83594 3.1543L5.2832 18.0859C5.41992 18.7695 5.83008 19.3066 6.54297 19.3066C7.25586 19.3066 7.65625 18.7695 7.80273 18.0566L11.25 3.1543L11.2305 3.1543L11.2305 18.5742C11.2305 19.1113 11.5332 19.5508 12.1582 19.5508C12.7539 19.5508 13.0859 19.1797 13.0859 18.5742L13.0859 1.52344C13.0859 0.673828 12.5098 0 11.5625 0C10.7031 0 10.2051 0.46875 10.0195 1.34766L6.5625 16.6113L6.57227 16.6113L3.04688 1.34766C2.85156 0.46875 2.38281 0 1.51367 0C0.556641 0 0 0.693359 0 1.52344L0 18.5742C0 19.1113 0.292969 19.5508 0.927734 19.5508ZM17.6367 19.4922C18.2422 19.4922 18.623 19.1309 18.623 18.4473L18.623 12.1777L21.084 12.1777C24.2773 12.1777 25.918 9.4043 25.918 6.20117C25.918 3.01758 24.2676 0.244141 21.1621 0.244141L17.627 0.244141C17.002 0.244141 16.6602 0.673828 16.6602 1.2793L16.6602 18.4473C16.6602 19.1016 16.9922 19.4922 17.6367 19.4922ZM18.623 10.4492L18.623 1.98242L20.7031 1.98242C22.9883 1.98242 23.9453 3.86719 23.9453 6.20117C23.9453 8.54492 23.0078 10.4492 20.7031 10.4492ZM29.7852 19.5508C30.4492 19.5508 30.7617 19.0625 30.7617 18.4375L30.7617 10.4395L36.7871 10.4395L36.7871 18.4375C36.7871 19.1016 37.1387 19.5508 37.7832 19.5508C38.4277 19.5508 38.7793 19.1016 38.7793 18.4375L38.7793 1.10352C38.7793 0.439453 38.4277 0 37.7832 0C37.1387 0 36.7871 0.439453 36.7871 1.10352L36.7871 8.67188L30.7617 8.67188L30.7617 1.10352C30.7617 0.488281 30.4492 0 29.7852 0C29.1406 0 28.7891 0.439453 28.7891 1.10352L28.7891 18.4375C28.7891 19.1016 29.1406 19.5508 29.7852 19.5508Z" fill="black" fill-opacity="0.85"/>
 </g>
</svg>
