<?xml version="1.0" encoding="UTF-8"?>
<!--Generator: Apple Native CoreSVG 326-->
<!DOCTYPE svg
PUBLIC "-//W3C//DTD SVG 1.1//EN"
       "http://www.w3.org/Graphics/SVG/1.1/DTD/svg11.dtd">
<svg version="1.1" xmlns="http://www.w3.org/2000/svg" xmlns:xlink="http://www.w3.org/1999/xlink" viewBox="0 0 16.897 16.5698">
 <g>
  <rect height="16.5698" opacity="0" width="16.897" x="0" y="0"/>
  <path d="M0.27467 16.2879C0.645764 16.6687 1.261 16.6589 1.63209 16.2879L8.27272 9.64723L14.9133 16.2879C15.2747 16.6589 15.8899 16.6687 16.261 16.2879C16.6321 15.9265 16.6223 15.3015 16.261 14.9402L9.62037 8.29957L16.261 1.65895C16.6223 1.29762 16.6321 0.672619 16.261 0.311291C15.8899-0.0695682 15.2747-0.0598026 14.9133 0.311291L8.27272 6.95192L1.63209 0.311291C1.261-0.0598026 0.645764-0.0695682 0.27467 0.311291C-0.0964233 0.672619-0.0866577 1.29762 0.27467 1.65895L6.9153 8.29957L0.27467 14.9402C-0.0866577 15.3015-0.0964233 15.9265 0.27467 16.2879Z" fill="black" fill-opacity="0.85"/>
 </g>
</svg>
