<?xml version="1.0" ?><!-- Generator: Adobe Illustrator 25.0.0, SVG Export Plug-In . SVG Version: 6.00 Build 0)  --><svg xmlns="http://www.w3.org/2000/svg" xmlns:xlink="http://www.w3.org/1999/xlink" version="1.1" id="Layer_1" x="0px" y="0px" viewBox="0 0 512 512" style="enable-background:new 0 0 512 512;" xml:space="preserve">
<path d="M10,453.2c-13.1,13.1-13.5,35.4,0,48.9c13.1,13.5,35.8,13.1,48.9,0l197-197.4L453.2,502c13.1,13.1,35.4,13.5,48.5,0  c13.9-13.5,13.5-35.8,0-48.9l-197-197.4l197-197c13.5-13.1,13.9-35.8,0-48.9c-13.1-13.5-35.4-13.1-48.5,0L255.9,207.3L58.9,10  C45.8-3.1,23.1-3.5,10,10C-3.5,23-3.1,45.7,10,58.8l197.4,197L10,453.2z"/>
</svg>