<?xml version="1.0" ?><!-- Generator: Adobe Illustrator 25.0.0, SVG Export Plug-In . SVG Version: 6.00 Build 0)  --><svg xmlns="http://www.w3.org/2000/svg" xmlns:xlink="http://www.w3.org/1999/xlink" version="1.1" id="Layer_1" x="0px" y="0px" viewBox="0 0 512 512" style="enable-background:new 0 0 512 512;" xml:space="preserve">
<path d="M52.6,391.2h406.7c17.6,0,30.8-4.3,39.5-12.8c8.7-8.5,13.1-21.8,13.1-39.8V103.8c0-17.9-4.4-31.1-13.1-39.6  c-8.7-8.5-21.9-12.8-39.5-12.8H52.6c-17.5,0-30.6,4.3-39.4,12.8C4.4,72.7,0,85.9,0,103.8v234.7c0,18,4.4,31.3,13.2,39.8  C22,386.9,35.2,391.2,52.6,391.2z M153,460.6h206c4.5,0,8.4-1.6,11.7-4.8c3.3-3.2,4.9-7.1,4.9-11.8c0-4.5-1.6-8.4-4.9-11.7  c-3.3-3.3-7.2-4.9-11.7-4.9H153c-4.5,0-8.4,1.6-11.7,4.9c-3.3,3.3-4.9,7.2-4.9,11.7c0,4.6,1.6,8.6,4.9,11.8  C144.6,459,148.5,460.6,153,460.6z" class="hierarchical-0:tertiary SFSymbolsPreview8E8E8E" style="fill: #8E8E8E;"/>
<path d="M320.9,181.7l-50.4,12.1c-2.5,0.7-4.2,1.7-5.2,3.2c-1,1.4-1.5,4.1-1.5,8.1v73.5c0,15.6-4.7,28.3-14.2,38.2  c-9.5,9.9-21.9,14.8-37.2,14.8c-10.9,0-19.6-2.9-25.9-8.8c-6.3-5.9-9.5-13.4-9.5-22.5c0-10.5,3.5-18.8,10.6-24.9  c7.1-6.1,15.5-10.4,25.2-13l19.9-5.1c5.5-1.4,8.8-2.9,9.9-4.6c1.2-1.7,1.7-4.9,1.7-9.7v-96.7c0-6.4,0.8-10.6,2.5-12.6  c1.6-2,5.1-3.6,10.4-4.8l62.9-15.8c5.7-1.5,9.5-1.4,11.4,0.3c1.8,1.7,2.8,4.6,2.8,8.7v42.2c0,6.3-0.9,10.4-2.8,12.4  C329.6,178.6,326.1,180.3,320.9,181.7z" class="hierarchical-1:primary SFSymbolsPreview212121" style="fill: #212121;"/>
</svg>