<?xml version="1.0" ?><!-- Generator: Adobe Illustrator 25.0.0, SVG Export Plug-In . SVG Version: 6.00 Build 0)  --><svg xmlns="http://www.w3.org/2000/svg" xmlns:xlink="http://www.w3.org/1999/xlink" version="1.1" id="Layer_1" x="0px" y="0px" viewBox="0 0 512 512" style="enable-background:new 0 0 512 512;" xml:space="preserve">
<path d="M0,242.5c0,8.8,6.9,17.2,18.4,17.2c6,0,10.9-3.2,15.4-6.9l27.9-23.6v204.6c0,30,17.8,47.4,48.5,47.4h290.2  c30.5,0,48.3-17.4,48.3-47.4V227.7l29.8,25.1c4.3,3.6,9.2,6.9,15.2,6.9c10.1,0,18.2-6.2,18.2-16.5c0-6.4-2.1-10.7-6.7-14.6  L448.7,181V92.2c0-9.4-6-15.4-15.4-15.4h-23c-9.2,0-15.4,6-15.4,15.4v43.5L282.1,40.9c-15.9-13.5-35.6-13.5-51.7,0L6.9,228.6  C2.1,232.4,0,237.6,0,242.5z M117.5,446.7c-13.7,0-21.2-7.7-21.2-21.7V200.3L248.6,72.6c4.7-4.3,10.5-4.3,15.2,0l150.4,126.1V425  c0,13.9-7.5,21.7-21,21.7H117.5z M316.8,256c10.5-2.6,13.5-4.9,13.5-17.4V196c0-8.2-2.8-11.8-14.4-9l-63.3,15.7  c-10.7,2.8-13.1,4.9-13.1,17.8V318c0,9.7-0.6,11.4-11.8,14.4l-19.7,5.4c-19.7,5.1-36.2,16.7-36.2,38c0,18.4,13.7,31.7,35.6,31.7  c30.9,0,51.9-22.1,51.9-53.6v-74.4c0-8.2,1.7-10.1,6.6-11.2L316.8,256z"/>
</svg>