<?xml version="1.0" ?><!-- Generator: Adobe Illustrator 25.0.0, SVG Export Plug-In . SVG Version: 6.00 Build 0)  --><svg xmlns="http://www.w3.org/2000/svg" xmlns:xlink="http://www.w3.org/1999/xlink" version="1.1" id="Layer_1" x="0px" y="0px" viewBox="0 0 512 512" style="enable-background:new 0 0 512 512;" xml:space="preserve">
<path d="M332.9,34.1l138.8,138.8c44.3-44.1,46.1-100,3.5-142.3C432.9-11.3,377.2-10.2,332.9,34.1z M307.7,59.5  c-26.7,26.2-37.8,56.2-34,85.2l-234,252.2c-9.6,10.3-11.1,24.7,0.8,36.5L8.1,475c-3,4-3.3,9.8,1.3,14.4l7.3,7.6  c4.3,4.3,10.1,4.5,14.6,1l41.6-32.5c11.3,11.8,25.9,10.3,36,0.8l130.7-120.9v143.9c0,12.8,10.1,22.9,22.9,22.9  c12.8,0,22.9-10.1,22.9-22.9V340.2l-1.8-36l76.8-71.3c29,3.8,59.5-8.1,85.7-34.5L307.7,59.5z M65.6,417.5l221.9-235.3  c4.3,7.1,9.6,13.9,15.9,20.4c6.3,6.3,12.8,11.8,19.7,16.4L88.8,440.7L65.6,417.5z"/>
</svg>