<?xml version="1.0" encoding="UTF-8"?>
<!--Generator: Apple Native CoreSVG 326-->
<!DOCTYPE svg
PUBLIC "-//W3C//DTD SVG 1.1//EN"
       "http://www.w3.org/Graphics/SVG/1.1/DTD/svg11.dtd">
<svg version="1.1" xmlns="http://www.w3.org/2000/svg" xmlns:xlink="http://www.w3.org/1999/xlink" viewBox="0 0 25.7227 25.5762">
 <g>
  <rect height="25.5762" opacity="0" width="25.7227" x="0" y="0"/>
  <path d="M0.742188 15.5664L12.168 15.5664C12.5879 15.5664 12.9102 15.2441 12.9102 14.8242C12.9102 14.4238 12.5781 14.0918 12.168 14.0918L0.742188 14.0918C0.332031 14.0918 0 14.4238 0 14.8242C0 15.2441 0.322266 15.5664 0.742188 15.5664Z" fill="black" fill-opacity="0.85"/>
  <path d="M0.742188 11.1426L12.168 11.1426C12.5879 11.1426 12.9102 10.8105 12.9102 10.4004C12.9102 10 12.5781 9.67773 12.168 9.67773L0.742188 9.67773C0.332031 9.67773 0 10 0 10.4004C0 10.8105 0.322266 11.1426 0.742188 11.1426Z" fill="black" fill-opacity="0.85"/>
  <path d="M0.742188 6.72852L12.168 6.72852C12.5781 6.72852 12.9102 6.39648 12.9102 5.98633C12.9102 5.58594 12.5781 5.25391 12.168 5.25391L0.742188 5.25391C0.332031 5.25391 0 5.58594 0 5.98633C0 6.39648 0.332031 6.72852 0.742188 6.72852Z" fill="black" fill-opacity="0.85"/>
  <path d="M25.3613 6.2207L25.3613 1.5625C25.3613 0.9375 24.8535 0.527344 24.248 0.654297L17.9395 2.03125C17.1973 2.1875 16.7969 2.59766 16.7969 3.25195L16.8262 17.1387C16.875 17.793 16.5625 18.2324 15.9766 18.3496L13.9844 18.7695C11.5137 19.2773 10.3516 20.5176 10.3516 22.3926C10.3516 24.2676 11.7871 25.5762 13.8281 25.5762C15.6543 25.5762 18.3594 24.248 18.3594 20.6445L18.3594 9.23828C18.3594 8.53516 18.5059 8.36914 19.1406 8.22266L24.7266 7.00195C25.1172 6.91406 25.3613 6.62109 25.3613 6.2207Z" fill="black" fill-opacity="0.85"/>
 </g>
</svg>
