<?xml version="1.0" ?><!-- Generator: Adobe Illustrator 25.0.0, SVG Export Plug-In . SVG Version: 6.00 Build 0)  --><svg xmlns="http://www.w3.org/2000/svg" xmlns:xlink="http://www.w3.org/1999/xlink" version="1.1" id="Layer_1" x="0px" y="0px" viewBox="0 0 512 512" style="enable-background:new 0 0 512 512;" xml:space="preserve">
<path d="M202,306.2c0,34,26.5,58.1,63.4,58.1c32.9,0,81.8-24.2,81.8-89.4V49.3c0-8.2-6.7-14.9-14.9-14.9c-8.2,0-15.1,6.7-15.1,14.9  v163.5c0,10.9-4.2,18-14,20l-35.4,7.3C222.9,249.4,202,272.1,202,306.2z M0,419.6c0,34.3,26.5,58.1,63.4,58.1  c32.9,0,81.8-24.2,81.8-89.2V162.7c0-8-6.7-14.9-14.9-14.9c-8.2,0-15.1,6.9-15.1,14.9v163.5c0,10.9-4.2,18.2-14,20l-35.4,7.3  C20.9,363.1,0,385.6,0,419.6z M366.8,419.6c0,34.3,26.2,58.1,63.4,58.1c32.7,0,81.8-24.2,81.8-89.2V162.7c0-8-6.9-14.9-14.9-14.9  c-8.2,0-15.1,6.9-15.1,14.9v163.5c0,11.1-4.5,18.2-14,20l-35.6,7.6C387.7,363.1,366.8,385.8,366.8,419.6z"/>
</svg>