<?xml version="1.0" ?><!-- Generator: Adobe Illustrator 25.0.0, SVG Export Plug-In . SVG Version: 6.00 Build 0)  --><svg xmlns="http://www.w3.org/2000/svg" xmlns:xlink="http://www.w3.org/1999/xlink" version="1.1" id="Layer_1" x="0px" y="0px" viewBox="0 0 512 512" style="enable-background:new 0 0 512 512;" xml:space="preserve">
<path d="M411.5,115.9V20.1c0-13.5-11-22.2-24-19.6L256.5,29c-16.3,3.6-25.2,12.5-25.2,26.8l0.5,283.4c1.3,12.5-4.6,20.6-15.8,22.9  l-40.5,8.4c-51,10.7-74.9,36.7-74.9,75.2c0,39,30.1,66.3,72.4,66.3c37.5,0,93.5-27.5,93.5-101.7V177.1c0-13.5,2.5-16.3,14.5-18.9  l116.5-25.5C406.1,130.9,411.5,124.3,411.5,115.9z"/>
</svg>