<?xml version="1.0" encoding="UTF-8"?>
<!--Generator: Apple Native CoreSVG 326-->
<!DOCTYPE svg
PUBLIC "-//W3C//DTD SVG 1.1//EN"
       "http://www.w3.org/Graphics/SVG/1.1/DTD/svg11.dtd">
<svg version="1.1" xmlns="http://www.w3.org/2000/svg" xmlns:xlink="http://www.w3.org/1999/xlink" viewBox="0 0 29.8242 26.2207">
 <g>
  <rect height="26.2207" opacity="0" width="29.8242" x="0" y="0"/>
  <path d="M0.927734 13.0176C1.2207 13.0176 1.46484 12.8613 1.67969 12.6758L14.2578 2.11914C14.4043 1.99219 14.5703 1.93359 14.7266 1.93359C14.8926 1.93359 15.0586 1.99219 15.2051 2.11914L27.7832 12.6758C27.998 12.8613 28.2324 13.0176 28.5352 13.0176C29.1113 13.0176 29.4629 12.5977 29.4629 12.168C29.4629 11.9043 29.3555 11.6504 29.1113 11.4453L16.1426 0.566406C15.6934 0.185547 15.2148 0 14.7266 0C14.248 0 13.7695 0.185547 13.3203 0.566406L0.351562 11.4453C0.107422 11.6504 0 11.9043 0 12.168C0 12.5977 0.341797 13.0176 0.927734 13.0176ZM23.0566 6.9043L25.9277 9.32617L25.9277 3.76953C25.9277 3.28125 25.6055 2.96875 25.1172 2.96875L23.877 2.96875C23.3887 2.96875 23.0566 3.28125 23.0566 3.76953ZM6.23047 26.2012L23.2324 26.2012C24.9512 26.2012 25.9277 25.2344 25.9277 23.5449L25.9277 9.61914L24.1992 8.41797L24.1992 23.125C24.1992 24.0137 23.75 24.4727 22.8613 24.4727L6.5918 24.4727C5.71289 24.4727 5.26367 24.0137 5.26367 23.125L5.26367 8.4375L3.53516 9.61914L3.53516 23.5449C3.53516 25.2441 4.51172 26.2012 6.23047 26.2012Z" fill="black" fill-opacity="0.85"/>
  <path d="M18.1641 12.998C18.7695 12.8613 18.9453 12.7246 18.9453 12.002L18.9453 9.58984C18.9453 9.11133 18.7891 8.90625 18.1152 9.07227L14.5117 9.95117C13.8965 10.1074 13.7695 10.2344 13.7695 10.9766L13.7695 16.7578C13.7695 17.3145 13.7207 17.4219 13.0859 17.5879L11.9141 17.9004C10.7812 18.2031 9.84375 18.8672 9.84375 20.0781C9.84375 21.1426 10.6348 21.9043 11.8848 21.9043C13.6621 21.9043 14.8438 20.6348 14.8438 18.8281L14.8438 14.3457C14.8438 13.8867 14.9414 13.7793 15.2246 13.7109Z" fill="black" fill-opacity="0.85"/>
 </g>
</svg>
