<?xml version="1.0" encoding="UTF-8"?>
<!--Generator: Apple Native CoreSVG 326-->
<!DOCTYPE svg
PUBLIC "-//W3C//DTD SVG 1.1//EN"
       "http://www.w3.org/Graphics/SVG/1.1/DTD/svg11.dtd">
<svg version="1.1" xmlns="http://www.w3.org/2000/svg" xmlns:xlink="http://www.w3.org/1999/xlink" viewBox="0 0 35.7812 14.1309">
 <g>
  <rect height="14.1309" opacity="0" width="35.7812" x="0" y="0"/>
  <path d="M9.59961 14.1309C13.0273 14.1309 15.9473 12.998 17.7148 10.957C19.4727 12.998 22.3926 14.1309 25.8203 14.1309C31.2207 14.1309 35.4199 10.8594 35.4199 6.68945C35.4199 5.05859 34.7266 4.07227 33.4961 4.07227C33.0078 4.07227 32.5586 4.28711 32.1582 4.69727C31.6797 5.18555 30.7715 5.67383 29.8047 5.67383C26.5137 5.67383 25.791 1.29883 20.7324 1.29883C19.5605 1.29883 18.5352 1.63086 17.7148 2.26562C16.8848 1.63086 15.8594 1.29883 14.6875 1.29883C9.62891 1.29883 8.90625 5.67383 5.61523 5.67383C4.64844 5.67383 3.74023 5.18555 3.26172 4.69727C2.86133 4.28711 2.41211 4.07227 1.92383 4.07227C0.693359 4.07227 0 5.05859 0 6.68945C0 10.8594 4.19922 14.1309 9.59961 14.1309ZM9.59961 12.4023C5.19531 12.4023 1.72852 9.87305 1.72852 6.66016C1.72852 6.17188 2.13867 6.09375 2.44141 6.29883C3.18359 6.95312 4.39453 7.40234 5.61523 7.40234C7.75391 7.40234 9.18945 6.20117 10.4297 5.13672C11.709 4.04297 12.8418 3.03711 14.6875 3.03711C15.8887 3.03711 16.8262 3.53516 17.3535 4.39453C17.5098 4.69727 17.9004 4.70703 18.0664 4.39453C18.584 3.53516 19.5312 3.03711 20.7324 3.03711C22.5781 3.03711 23.7109 4.04297 24.9902 5.13672C26.2305 6.20117 27.666 7.40234 29.8047 7.40234C31.0254 7.40234 32.2461 6.94336 33.0078 6.25977C33.3203 6.04492 33.6914 6.11328 33.6914 6.66016C33.6914 9.87305 30.2246 12.4023 25.8203 12.4023C22.0898 12.4023 19.2871 10.9277 18.1445 8.53516C17.9688 8.125 17.4512 8.11523 17.2754 8.53516C16.1426 10.9277 13.3398 12.4023 9.59961 12.4023Z" fill="black" fill-opacity="0.85"/>
 </g>
</svg>
