<?xml version="1.0" ?><!-- Generator: Adobe Illustrator 25.0.0, SVG Export Plug-In . SVG Version: 6.00 Build 0)  --><svg xmlns="http://www.w3.org/2000/svg" xmlns:xlink="http://www.w3.org/1999/xlink" version="1.1" id="Layer_1" x="0px" y="0px" viewBox="0 0 512 512" style="enable-background:new 0 0 512 512;" xml:space="preserve">
<path d="M139.8,350.2c48.6,0,90.2-15.9,116.2-44.5c26,28.6,67.6,44.5,116.2,44.5c78.6,0,139.8-47.7,139.8-109.2  c0-25.7-10.7-40.9-29.5-40.9c-7.8,0-14.5,3.3-20.6,9.9c-7.6,8.3-19.2,14.1-32.4,14.1c-45.4,0-55.9-62.4-130.2-62.4  c-16.6,0-31.5,4.7-43.4,13.2c-11.9-8.5-26.8-13.2-43.4-13.2c-74.3,0-84.8,62.4-130.2,62.4c-13.2,0-24.8-5.8-32.4-14.1  c-6.1-6.7-12.8-9.9-20.6-9.9C10.7,200.1,0,215.3,0,241C0,302.5,61.1,350.2,139.8,350.2z M139.8,321.1c-62.2,0-110.6-35.4-110.6-80.3  c0-5.1,4.5-5.4,7.4-3.4c10.8,10.3,28.2,15.9,45.9,15.9c31.6,0,52.6-17.7,70.5-33.1c18.4-15.5,34-29.3,59.7-29.3  c17.2,0,30.6,7.6,37.4,20.1c2.7,5.2,9.2,5.4,11.8,0c6.9-12.5,20.4-20.1,37.6-20.1c25.7,0,41.2,13.7,59.7,29.3  c17.9,15.4,38.9,33.1,70.5,33.1c17.7,0,35.1-5.8,46.5-16.6c3.1-2.2,6.9-2,6.9,4.2c0,44.8-48.5,80.3-110.6,80.3  c-53.7,0-93.8-21.5-109-56.4c-2.9-6.7-11.6-6.9-14.5,0C233.8,299.6,193.6,321.1,139.8,321.1z"/>
</svg>