<?xml version="1.0" ?><!-- Generator: Adobe Illustrator 25.0.0, SVG Export Plug-In . SVG Version: 6.00 Build 0)  --><svg xmlns="http://www.w3.org/2000/svg" xmlns:xlink="http://www.w3.org/1999/xlink" version="1.1" id="Layer_1" x="0px" y="0px" viewBox="0 0 512 512" style="enable-background:new 0 0 512 512;" xml:space="preserve">
<path d="M0,240.1c0,58.6,60.4,102.7,134.4,102.7c53.2,0,96.2-18.6,121.5-53c25.4,34.4,68.3,53,121.5,53  c74.3,0,134.6-44.2,134.6-102.7c0-20.2-5.9-32.8-18-32.8c-4.1,0-8.7,2.5-11.5,6.8c-9.4,13.5-25,20.9-44.5,20.9  c-54.2,0-69.7-66-134.8-66c-20.2,0-36.4,7-47.2,19.6c-10.6-12.6-27-19.6-47.2-19.6c-64.9,0-80.4,66-134.6,66  c-18.2,0-33.9-7.2-44.9-21.1c-3.2-4.1-7.2-6.7-11.4-6.7C5.8,207.3,0,220,0,240.1z"/>
</svg>