<?xml version="1.0" ?><!-- Generator: Adobe Illustrator 25.0.0, SVG Export Plug-In . SVG Version: 6.00 Build 0)  --><svg xmlns="http://www.w3.org/2000/svg" xmlns:xlink="http://www.w3.org/1999/xlink" version="1.1" id="Layer_1" x="0px" y="0px" viewBox="0 0 512 512" style="enable-background:new 0 0 512 512;" xml:space="preserve">
<path d="M87.3,512h337.3c58.4,0,87.3-28.9,87.3-86.2V86.2C512,28.9,483.1,0,424.7,0H87.3C29.2,0,0,28.6,0,86.2v339.6  C0,483.4,29.2,512,87.3,512z M169.6,387.1c-13.3,0-21.1-8.9-21.1-23.1V142.9c0-14.7,8.1-24.2,22.2-24.2c9.5,0,15.9,3.6,23.1,13.9  l124.9,178.8h1.9V141.8c0-13.9,8.1-23.1,21.1-23.1c13.9,0,22,8.6,22,23.1v221.4c0,15.3-8.6,23.9-22.8,23.9  c-9.5,0-15.3-3.3-22.8-13.9L193.3,197.5h-1.9V364C191.3,378.8,183.3,387.1,169.6,387.1z"/>
</svg>