<?xml version="1.0" encoding="UTF-8"?>
<!--Generator: Apple Native CoreSVG 326-->
<!DOCTYPE svg
PUBLIC "-//W3C//DTD SVG 1.1//EN"
       "http://www.w3.org/Graphics/SVG/1.1/DTD/svg11.dtd">
<svg version="1.1" xmlns="http://www.w3.org/2000/svg" xmlns:xlink="http://www.w3.org/1999/xlink" viewBox="0 0 28.291 27.9395">
 <g>
  <rect height="27.9395" opacity="0" width="28.291" x="0" y="0"/>
  <path d="M13.9648 27.9297C21.6406 27.9297 27.9297 21.6504 27.9297 13.9648C27.9297 6.2793 21.6406 0 13.9648 0C6.28906 0 0 6.2793 0 13.9648C0 21.6504 6.28906 27.9297 13.9648 27.9297ZM13.9648 23.3398C8.7793 23.3398 4.58008 19.1504 4.58008 13.9648C4.58008 8.7793 8.7793 4.58008 13.9648 4.58008C19.1504 4.58008 23.3496 8.7793 23.3496 13.9648C23.3496 19.1504 19.1504 23.3398 13.9648 23.3398Z" fill="black" fill-opacity="0.85"/>
  <path d="M10.7715 19.6875C11.1426 19.6875 11.4062 19.4238 11.4062 19.043L11.4062 10.5566L11.4844 10.5566L15.791 19.043C15.9961 19.4531 16.3086 19.6875 16.7383 19.6875C17.3438 19.6875 17.6074 19.2773 17.6074 18.8477L17.6074 8.90625C17.6074 8.50586 17.3535 8.25195 16.9727 8.25195C16.5918 8.25195 16.3477 8.50586 16.3477 8.90625L16.3477 17.4121L16.2598 17.4121L11.9531 8.90625C11.7578 8.49609 11.4355 8.25195 10.9961 8.25195C10.4883 8.25195 10.1367 8.59375 10.1367 9.0918L10.1367 19.043C10.1367 19.4238 10.4004 19.6875 10.7715 19.6875ZM9.08203 13.9941C9.08203 14.209 9.25781 14.3848 9.47266 14.3848L18.2812 14.3848C18.4961 14.3848 18.6621 14.209 18.6621 13.9941C18.6621 13.7793 18.4961 13.6035 18.2812 13.6035L9.47266 13.6035C9.25781 13.6035 9.08203 13.7793 9.08203 13.9941Z" fill="black" fill-opacity="0.85"/>
 </g>
</svg>
