<?xml version="1.0" ?><!-- Generator: Adobe Illustrator 25.0.0, SVG Export Plug-In . SVG Version: 6.00 Build 0)  --><svg xmlns="http://www.w3.org/2000/svg" xmlns:xlink="http://www.w3.org/1999/xlink" version="1.1" id="Layer_1" x="0px" y="0px" viewBox="0 0 512 512" style="enable-background:new 0 0 512 512;" xml:space="preserve">
<path d="M256,512c140,0,256-116.2,256-256C512,116,395.8,0,255.7,0C116,0,0,116,0,256C0,395.8,116.2,512,256,512z M147.1,260  c0-7.5,5.5-13.1,12.5-13.1h14.3v-91.9c0-12.3,8.3-20.8,21.1-20.8c10.8,0,18.1,5.8,22.6,15.3l49.2,97.6h36.9v-95.6  c0-10.3,6.8-17.1,16.6-17.1s16.8,6.8,16.8,17.1v95.6h14.8c7,0,12.5,5.3,12.5,12.8c0,7-5.5,13.1-12.5,13.1h-14.8v90.9  c0,12.5-8.3,21.1-21.1,21.1c-10.8,0-18.1-5.8-22.6-15.3l-48.9-96.9h-37.1v94.9c0,10.3-6.8,17.1-16.6,17.1s-16.8-6.8-16.8-17.1v-94.9  h-14.3C152.3,272.8,147.1,267,147.1,260z M207.3,247h24.3l-24.3-52.2V247z M279.6,273.1l24.1,52v-52H279.6z"/>
</svg>