<?xml version="1.0" ?><!-- Generator: Adobe Illustrator 25.0.0, SVG Export Plug-In . SVG Version: 6.00 Build 0)  --><svg xmlns="http://www.w3.org/2000/svg" xmlns:xlink="http://www.w3.org/1999/xlink" version="1.1" id="Layer_1" x="0px" y="0px" viewBox="0 0 512 512" style="enable-background:new 0 0 512 512;" xml:space="preserve">
<path d="M87.3,512h337.3c58.4,0,87.3-28.9,87.3-86.2V86.2C512,28.9,483.1,0,424.7,0H87.3C29.2,0,0,28.6,0,86.2v339.6  C0,483.4,29.2,512,87.3,512z M87.9,467.2c-27.8,0-43.1-14.7-43.1-43.7V88.4c0-28.9,15.3-43.7,43.1-43.7h336.2  c27.5,0,43.1,14.7,43.1,43.7v335.1c0,28.9-15.6,43.7-43.1,43.7H87.9z M139.6,260c0,7.5,5.6,13.6,13.3,13.6h15.3v102.1  c0,10.8,7.5,18.1,18.1,18.1s17.8-7.2,17.8-18.1V273.7h40L296.7,378c5,10,12.5,16.1,24.2,16.1c13.6,0,22.5-8.9,22.5-22.5v-97.6h15.9  c7.5,0,13.6-6.4,13.6-13.9c0-8.1-6.1-13.6-13.6-13.6h-15.9V143.5c0-10.8-7.2-18.1-17.8-18.1c-10.6,0-18.1,7.2-18.1,18.1v102.9h-39.5  L215,141.3c-4.7-10-12.5-16.1-24.2-16.1c-13.6,0-22.5,8.9-22.5,22.2v98.7H153C145.5,246.1,139.6,252,139.6,260z M204.1,246.1v-56.5  l26.1,56.5H204.1z M281.7,273.9h25.9v56.2L281.7,273.9z"/>
</svg>