<?xml version="1.0" encoding="UTF-8"?>
<!--Generator: Apple Native CoreSVG 326-->
<!DOCTYPE svg
PUBLIC "-//W3C//DTD SVG 1.1//EN"
       "http://www.w3.org/Graphics/SVG/1.1/DTD/svg11.dtd">
<svg version="1.1" xmlns="http://www.w3.org/2000/svg" xmlns:xlink="http://www.w3.org/1999/xlink" viewBox="0 0 30.3809 24.9191">
 <g>
  <rect height="24.9191" opacity="0" width="30.3809" x="0" y="0"/>
  <path d="M30.0195 14.9547C30.0195 7.09334 23.9746 0.648023 16.2988 0.00349172C15.8984-0.0355708 15.5859 0.257398 15.5859 0.667554L15.5859 4.66169C15.5859 4.99373 15.8301 5.2574 16.1719 5.28669C20.9863 5.87263 24.7266 9.97419 24.7266 14.9547C24.7266 17.2203 23.9551 19.3004 22.5879 21.0191C22.4023 21.2535 22.4121 21.5465 22.6172 21.7515L25.5176 24.6519C25.8105 24.9351 26.2305 24.9351 26.4844 24.6226C28.6914 22.0054 30.0195 18.6265 30.0195 14.9547Z" fill="black" fill-opacity="0.85"/>
  <path d="M0 14.9547C0 18.6363 1.32812 22.025 3.54492 24.6422C3.78906 24.9351 4.19922 24.9351 4.49219 24.6519L7.39258 21.7515C7.59766 21.5465 7.60742 21.2535 7.42188 21.0191C6.05469 19.3004 5.2832 17.2203 5.2832 14.9547C5.2832 9.97419 9.0332 5.87263 13.8379 5.28669C14.1895 5.2574 14.4238 4.99373 14.4238 4.66169L14.4238 0.667554C14.4238 0.257398 14.1211-0.0355708 13.7207 0.00349172C6.03516 0.648023 0 7.09334 0 14.9547Z" fill="black" fill-opacity="0.85"/>
  <path d="M11.8066 20.8433C12.1777 20.8433 12.4414 20.5797 12.4414 20.189L12.4414 11.7027L12.5195 11.7027L16.8262 20.1988C17.0215 20.5992 17.334 20.8433 17.7734 20.8433C18.3691 20.8433 18.6426 20.4332 18.6426 20.0035L18.6426 10.0523C18.6426 9.66169 18.3887 9.40779 17.998 9.40779C17.6172 9.40779 17.373 9.66169 17.373 10.0523L17.373 18.5679L17.2852 18.5679L12.9883 10.0621C12.793 9.64216 12.4707 9.40779 12.0312 9.40779C11.5234 9.40779 11.1719 9.74959 11.1719 10.2476L11.1719 20.189C11.1719 20.5797 11.4355 20.8433 11.8066 20.8433ZM10.1172 15.15C10.1172 15.3648 10.293 15.5406 10.5078 15.5406L19.3066 15.5406C19.5312 15.5406 19.6973 15.3648 19.6973 15.15C19.6973 14.9351 19.5312 14.7594 19.3066 14.7594L10.5078 14.7594C10.293 14.7594 10.1172 14.9351 10.1172 15.15Z" fill="black" fill-opacity="0.85"/>
 </g>
</svg>
