<?xml version="1.0" encoding="UTF-8"?>
<!--Generator: Apple Native CoreSVG 326-->
<!DOCTYPE svg
PUBLIC "-//W3C//DTD SVG 1.1//EN"
       "http://www.w3.org/Graphics/SVG/1.1/DTD/svg11.dtd">
<svg version="1.1" xmlns="http://www.w3.org/2000/svg" xmlns:xlink="http://www.w3.org/1999/xlink" viewBox="0 0 23.3203 22.959">
 <g>
  <rect height="22.959" opacity="0" width="23.3203" x="0" y="0"/>
  <path d="M22.959 3.76953L22.959 19.1992C22.959 21.6797 21.6797 22.959 19.1504 22.959L3.79883 22.959C1.2793 22.959 0 21.6992 0 19.1992L0 3.76953C0 1.26953 1.2793 0 3.79883 0L19.1504 0C21.6797 0 22.959 1.2793 22.959 3.76953ZM13.9258 6.2793L13.9258 11.1035L11.8652 11.1035L9.43359 6.28906C9.23828 5.86914 8.92578 5.61523 8.44727 5.61523C7.91016 5.61523 7.55859 5.9668 7.55859 6.48438L7.55859 11.1035L6.88477 11.1035C6.66016 11.1035 6.47461 11.2793 6.47461 11.5039C6.47461 11.7285 6.66016 11.9043 6.88477 11.9043L7.55859 11.9043L7.55859 16.6797C7.55859 17.0801 7.83203 17.3535 8.21289 17.3535C8.59375 17.3535 8.86719 17.0801 8.86719 16.6797L8.86719 11.9043L10.9375 11.9043L13.3496 16.6797C13.5547 17.0898 13.8574 17.3535 14.3262 17.3535C14.9609 17.3535 15.2246 16.9141 15.2246 16.4746L15.2246 11.9043L15.9082 11.9043C16.1328 11.9043 16.3184 11.7285 16.3184 11.5039C16.3184 11.2793 16.1328 11.1035 15.9082 11.1035L15.2246 11.1035L15.2246 6.2793C15.2246 5.87891 14.9609 5.61523 14.5703 5.61523C14.1797 5.61523 13.9258 5.87891 13.9258 6.2793ZM13.9258 15L13.8379 15L12.2656 11.9043L13.9258 11.9043ZM10.5371 11.1035L8.86719 11.1035L8.86719 7.99805L8.94531 7.99805Z" fill="black" fill-opacity="0.85"/>
 </g>
</svg>
