<?xml version="1.0" encoding="UTF-8"?>
<!--Generator: Apple Native CoreSVG 326-->
<!DOCTYPE svg
PUBLIC "-//W3C//DTD SVG 1.1//EN"
       "http://www.w3.org/Graphics/SVG/1.1/DTD/svg11.dtd">
<svg version="1.1" xmlns="http://www.w3.org/2000/svg" xmlns:xlink="http://www.w3.org/1999/xlink" viewBox="0 0 25.8008 25.459">
 <g>
  <rect height="25.459" opacity="0" width="25.8008" x="0" y="0"/>
  <path d="M1.85547 7.45117C5.08789 10.6445 9.52148 12.4805 14.248 12.4609C17.8613 12.4414 21.2891 11.2988 24.1211 9.23828L23.5254 7.99805C20.8887 9.99023 17.6562 11.1035 14.248 11.123C9.69727 11.1621 5.44922 9.29688 2.45117 6.09375ZM0.615234 14.4824C7.16797 20.0391 16.4648 21.0742 23.9941 17.2266L23.9941 15.6934C16.6113 19.8242 7.27539 18.7793 0.908203 12.959ZM6.75781 23.125L8.34961 23.5352C7.62695 21.7773 7.22656 19.9316 7.1582 18.0176C6.5332 11.4746 9.22852 5.17578 14.1504 1.03516L12.7246 0.517578C7.8418 4.91211 5.22461 11.3672 5.83008 18.0664C5.87891 19.7852 6.19141 21.4844 6.75781 23.125ZM15.0781 24.4238L16.3379 23.8965C14.0332 20.5859 12.7539 16.6406 12.7539 12.5098C12.7539 8.53516 13.916 4.76562 16.0449 1.57227L14.7559 1.09375C12.5977 4.47266 11.416 8.4082 11.416 12.5098C11.416 16.8262 12.7148 20.9375 15.0781 24.4238ZM22.5488 19.707L23.4082 18.6719C19.2188 16.2891 16.5527 11.8945 16.4453 6.94336C16.3965 5.12695 16.709 3.33984 17.3535 1.68945L16.0742 1.31836C15.3906 3.0957 15.0684 5 15.1074 6.96289C15.2148 12.2754 18.0762 17.0605 22.5488 19.707ZM7.1875 12.334C8.22266 12.334 9.0625 11.4844 9.0625 10.4395C9.0625 9.41406 8.22266 8.56445 7.1875 8.56445C6.14258 8.56445 5.29297 9.41406 5.29297 10.4395C5.29297 11.4844 6.14258 12.334 7.1875 12.334ZM16.8359 13.4277C17.832 13.4277 18.6523 12.6074 18.6523 11.5918C18.6523 10.5859 17.832 9.76562 16.8359 9.76562C15.8203 9.76562 14.9902 10.5859 14.9902 11.5918C14.9902 12.6074 15.8203 13.4277 16.8359 13.4277ZM13.1543 20.6934C14.1895 20.6934 15.0293 19.8633 15.0293 18.8184C15.0293 17.7734 14.1895 16.9434 13.1543 16.9434C12.1094 16.9434 11.2793 17.7734 11.2793 18.8184C11.2793 19.8633 12.1094 20.6934 13.1543 20.6934ZM12.7148 25.4395C19.7363 25.4395 25.4395 19.7461 25.4395 12.7246C25.4395 5.70312 19.7363 0 12.7148 0C5.69336 0 0 5.70312 0 12.7246C0 19.7461 5.69336 25.4395 12.7148 25.4395ZM12.7148 23.9551C6.51367 23.9551 1.48438 18.9258 1.48438 12.7246C1.48438 6.51367 6.51367 1.48438 12.7148 1.48438C18.9258 1.48438 23.9551 6.51367 23.9551 12.7246C23.9551 18.9258 18.9258 23.9551 12.7148 23.9551Z" fill="black" fill-opacity="0.85"/>
 </g>
</svg>
