<?xml version="1.0" ?><!-- Generator: Adobe Illustrator 25.0.0, SVG Export Plug-In . SVG Version: 6.00 Build 0)  --><svg xmlns="http://www.w3.org/2000/svg" xmlns:xlink="http://www.w3.org/1999/xlink" version="1.1" id="Layer_1" x="0px" y="0px" viewBox="0 0 512 512" style="enable-background:new 0 0 512 512;" xml:space="preserve">
<path d="M0,426.3c0,44,21.9,66.8,66.8,66.8h375.8c46.4,0,69.4-22.8,69.4-68.3V87.5c0-45.6-23-68.6-69.4-68.6H167  c-46.2,0-69.4,23-69.4,68.6V193H44.7C16.6,193,0,208.2,0,234.5V426.3z M125.6,457.5c4.9-9.5,7.5-20.6,7.5-33.4V89.5  c0-23,12.4-34.9,34.5-34.9h274.5c21.9,0,34.3,11.9,34.3,34.9v333.3c0,23-12.4,34.7-34.3,34.7H125.6z M190.6,150.7h228.7  c7.7,0,13.7-6.2,13.7-13.9c0-7.5-6-13.3-13.7-13.3H190.6c-8,0-13.9,5.8-13.9,13.3C176.7,144.5,182.7,150.7,190.6,150.7z   M190.6,228.6h228.7c7.7,0,13.7-6,13.7-13.5c0-7.7-6-13.7-13.7-13.7H190.6c-8,0-13.9,6-13.9,13.7  C176.7,222.6,182.7,228.6,190.6,228.6z M35.6,426.3V241.4c0-8.2,4.9-12.8,13-12.8h48.9v197.7c0,18.4-13.5,31.2-30.7,31.2  C49.3,457.5,35.6,444,35.6,426.3z M203.7,390.2H261c16.8,0,27-10.2,27-27.2v-57.7c0-16.8-10.2-27-27-27h-57.3  c-17,0-27.2,10.2-27.2,27V363C176.5,380.1,186.7,390.2,203.7,390.2z M327.8,306.6h91.6c7.7,0,13.5-5.8,13.5-13.3  c0-8-5.8-13.9-13.5-13.9h-91.6c-8,0-13.7,6-13.7,13.9C314.1,300.9,319.8,306.6,327.8,306.6z M327.8,386.3h91.6  c7.7,0,13.5-5.8,13.5-13.3c0-7.7-5.8-13.9-13.5-13.9h-91.6c-8,0-13.7,6.2-13.7,13.9C314.1,380.5,319.8,386.3,327.8,386.3z"/>
</svg>