<?xml version="1.0" ?><!-- Generator: Adobe Illustrator 25.0.0, SVG Export Plug-In . SVG Version: 6.00 Build 0)  --><svg xmlns="http://www.w3.org/2000/svg" xmlns:xlink="http://www.w3.org/1999/xlink" version="1.1" id="Layer_1" x="0px" y="0px" viewBox="0 0 512 512" style="enable-background:new 0 0 512 512;" xml:space="preserve">
<path d="M256,512c35,0,67.9-6.7,98.8-20.1c30.9-13.4,58.1-31.9,81.7-55.5c23.6-23.6,42.1-50.8,55.5-81.7  C505.3,323.9,512,291,512,256s-6.7-67.9-20.1-98.8c-13.4-30.9-31.9-58.1-55.5-81.7c-23.6-23.6-50.9-42.1-81.8-55.5  C323.7,6.7,290.7,0,255.7,0S187.9,6.7,157,20.1C126.1,33.5,98.9,52,75.4,75.5c-23.5,23.6-42,50.8-55.3,81.7C6.7,188.1,0,221,0,256  s6.7,67.9,20.1,98.8c13.4,30.9,31.9,58.1,55.5,81.7c23.6,23.6,50.8,42.1,81.7,55.5C188.1,505.3,221,512,256,512z M256,469.3  c-29.6,0-57.3-5.5-83.1-16.6c-25.8-11-48.4-26.3-67.9-45.8c-19.5-19.5-34.7-42.1-45.7-67.9c-11-25.8-16.4-53.5-16.4-83.1  c0-29.6,5.5-57.3,16.4-83.1c11-25.8,26.1-48.4,45.6-68s42-34.8,67.8-45.8c25.8-11,53.5-16.4,83.1-16.4c29.6,0,57.3,5.5,83.1,16.4  c25.8,11,48.4,26.2,68,45.8c19.6,19.6,34.9,42.2,45.9,68c11,25.8,16.6,53.5,16.6,83.1c0,29.6-5.5,57.3-16.4,83.1  c-11,25.8-26.2,48.4-45.7,67.9c-19.5,19.5-42.2,34.8-68,45.8C313.3,463.8,285.6,469.3,256,469.3z" class="hierarchical-0:secondary SFSymbolsPreview4D4D4D" style="fill: #4D4D4D;"/>
<path d="M163.4,382.7h187.2c12.4,0,21.7-3,27.9-9c6.2-6,9.3-15.1,9.3-27.4V165.9c0-12.2-3.1-21.3-9.3-27.4c-6.2-6-15.5-9-27.9-9  H212.8c-12.4,0-21.7,3-27.9,9c-6.2,6-9.3,15.1-9.3,27.4v192.2C175.7,370,171.6,378.2,163.4,382.7z M229.4,326.3  c-9.2,0-13.8-4.6-13.8-13.8v-29.9c0-9.4,4.6-14.1,13.8-14.1H259c9.4,0,14.1,4.7,14.1,14.1v29.9c0,9.2-4.7,13.8-14.1,13.8H229.4z   M223.9,241.9c-5.5,0-8.3-2.6-8.3-7.8c0-5.2,2.8-7.8,8.3-7.8h116c2.3,0,4.2,0.7,5.6,2.1c1.4,1.4,2.1,3.3,2.1,5.6  c0,5.2-2.6,7.8-7.8,7.8H223.9z M223.9,200.3c-2.5,0-4.5-0.8-6-2.3c-1.5-1.5-2.3-3.4-2.3-5.8c0-5,2.8-7.5,8.3-7.5h116  c5.2,0,7.8,2.5,7.8,7.5c0,2.3-0.8,4.3-2.3,5.8c-1.5,1.5-3.3,2.3-5.5,2.3H223.9z M297.2,284.4c-2.3,0-4.3-0.8-5.8-2.3  c-1.5-1.5-2.3-3.3-2.3-5.3c0-5.5,2.7-8.3,8-8.3h42.7c5.2,0,7.8,2.8,7.8,8.3c0,5-2.6,7.5-7.8,7.5H297.2z M297.2,326.3  c-5.4,0-8-2.6-8-7.8c0-2.2,0.8-4,2.3-5.5c1.5-1.5,3.4-2.3,5.8-2.3h42.7c2.2,0,4,0.8,5.5,2.3c1.5,1.5,2.3,3.3,2.3,5.5  c0,5.2-2.6,7.8-7.8,7.8H297.2z M123.5,244.7v105.4c0,4.5,1.4,8,4.1,10.5c2.8,2.5,6.2,3.8,10.4,3.8c4.2-0.2,7.7-1.5,10.5-4  c2.8-2.5,4.3-5.9,4.3-10.3V222.4h-5.8c-7.2,0-12.9,2-17.2,5.9C125.6,232.2,123.5,237.7,123.5,244.7z" class="hierarchical-1:primary SFSymbolsPreview212121" style="fill: #212121;"/>
</svg>