<?xml version="1.0" encoding="UTF-8"?>
<!--Generator: Apple Native CoreSVG 326-->
<!DOCTYPE svg
PUBLIC "-//W3C//DTD SVG 1.1//EN"
       "http://www.w3.org/Graphics/SVG/1.1/DTD/svg11.dtd">
<svg version="1.1" xmlns="http://www.w3.org/2000/svg" xmlns:xlink="http://www.w3.org/1999/xlink" viewBox="0 0 28.5449 26.9238">
 <g>
  <rect height="26.9238" opacity="0" width="28.5449" x="0" y="0"/>
  <path d="M0 23.3691C0 25.6836 1.17188 26.9238 3.54492 26.9238L24.3848 26.9238C26.9141 26.9238 28.1836 25.6543 28.1836 23.1641L28.1836 3.76953C28.1836 1.26953 26.9141 0.00976562 24.3848 0.00976562L9.15039 0.00976562C6.62109 0.00976562 5.35156 1.26953 5.35156 3.76953L5.35156 10.0684L2.38281 10.0684C0.888672 10.0684 0 10.8887 0 12.2852ZM1.72852 23.3691L1.72852 12.5977C1.72852 12.0996 2.04102 11.7969 2.54883 11.7969L5.35156 11.7969L5.35156 23.3691C5.35156 24.4336 4.57031 25.1953 3.54492 25.1953C2.50977 25.1953 1.72852 24.4043 1.72852 23.3691ZM6.57227 25.1953C6.9043 24.668 7.08008 24.0234 7.08008 23.2715L7.08008 3.86719C7.08008 2.46094 7.82227 1.73828 9.17969 1.73828L24.3457 1.73828C25.7129 1.73828 26.4551 2.46094 26.4551 3.86719L26.4551 23.0664C26.4551 24.4727 25.7129 25.1953 24.3457 25.1953ZM10.4785 7.31445L23.0762 7.31445C23.4668 7.31445 23.7598 7.01172 23.7598 6.63086C23.7598 6.25 23.4668 5.95703 23.0762 5.95703L10.4785 5.95703C10.0781 5.95703 9.78516 6.25 9.78516 6.63086C9.78516 7.01172 10.0781 7.31445 10.4785 7.31445ZM10.4785 11.7969L23.0762 11.7969C23.4668 11.7969 23.7598 11.5039 23.7598 11.1328C23.7598 10.752 23.4668 10.4492 23.0762 10.4492L10.4785 10.4492C10.0781 10.4492 9.78516 10.752 9.78516 11.1328C9.78516 11.5039 10.0781 11.7969 10.4785 11.7969ZM11.25 20.8594L14.5312 20.8594C15.459 20.8594 16.0254 20.293 16.0254 19.3652L16.0254 16.4355C16.0254 15.5176 15.459 14.9414 14.5312 14.9414L11.25 14.9414C10.3223 14.9414 9.74609 15.5176 9.74609 16.4355L9.74609 19.3652C9.74609 20.293 10.3223 20.8594 11.25 20.8594ZM18.3203 16.2988L23.0664 16.2988C23.457 16.2988 23.75 16.0059 23.75 15.6348C23.75 15.2441 23.457 14.9414 23.0664 14.9414L18.3203 14.9414C17.9199 14.9414 17.627 15.2441 17.627 15.6348C17.627 16.0059 17.9199 16.2988 18.3203 16.2988ZM18.3203 20.8594L23.0664 20.8594C23.457 20.8594 23.75 20.5664 23.75 20.1953C23.75 19.8145 23.457 19.5117 23.0664 19.5117L18.3203 19.5117C17.9199 19.5117 17.627 19.8145 17.627 20.1953C17.627 20.5664 17.9199 20.8594 18.3203 20.8594Z" fill="black" fill-opacity="0.85"/>
 </g>
</svg>
