<?xml version="1.0" encoding="UTF-8"?>
<!--Generator: Apple Native CoreSVG 326-->
<!DOCTYPE svg
PUBLIC "-//W3C//DTD SVG 1.1//EN"
       "http://www.w3.org/Graphics/SVG/1.1/DTD/svg11.dtd">
<svg version="1.1" xmlns="http://www.w3.org/2000/svg" xmlns:xlink="http://www.w3.org/1999/xlink" viewBox="0 0 27.9395 26.5527">
 <g>
  <rect height="26.5527" opacity="0" width="27.9395" x="0" y="0"/>
  <path d="M15.2637 0.419922L26.0547 6.65039C26.4453 6.875 26.6211 7.1582 26.6211 7.48047C26.6211 7.91992 26.2891 8.33984 25.6934 8.33984L24.5605 8.33984L24.5605 23.252L25.3613 23.252C25.791 23.252 26.0449 23.5059 26.0449 23.9258L26.0449 24.8047L26.709 24.8047C27.1875 24.8047 27.5781 25.1953 27.5781 25.6738C27.5781 26.1426 27.1875 26.5332 26.709 26.5332L0.869141 26.5332C0.390625 26.5332 0 26.1426 0 25.6738C0 25.1953 0.390625 24.8047 0.869141 24.8047L1.5332 24.8047L1.5332 23.9258C1.5332 23.5059 1.78711 23.252 2.22656 23.252L3.02734 23.252L3.02734 8.33984L1.88477 8.33984C1.28906 8.33984 0.957031 7.91992 0.957031 7.48047C0.957031 7.1582 1.12305 6.875 1.52344 6.65039L12.3145 0.419922C12.7832 0.146484 13.3008 0 13.7891 0C14.2773 0 14.7852 0.146484 15.2637 0.419922ZM8.91602 9.12109L8.91602 19.0234C8.91602 19.4238 9.17969 19.6875 9.55078 19.6875C9.92188 19.6875 10.1855 19.4238 10.1855 19.0234L10.1855 16.6797L10.9766 15.8984L13.457 19.375C13.5938 19.5703 13.7695 19.6875 14.0137 19.6875C14.3555 19.6875 14.6191 19.4629 14.6191 19.1309C14.6191 18.9746 14.5508 18.8281 14.4434 18.6816L11.875 15.1074L14.2871 12.5488C14.4336 12.3828 14.5117 12.2852 14.5117 12.0898C14.5117 11.7969 14.2676 11.543 13.9453 11.543C13.7695 11.543 13.5742 11.6504 13.457 11.7871L10.2246 15.3223L10.1855 15.3223L10.1855 9.13086C10.1855 8.73047 9.92188 8.45703 9.55078 8.45703C9.17969 8.45703 8.91602 8.7207 8.91602 9.12109ZM17.373 13.125L17.2949 13.125L17.2949 12.1777C17.2949 11.8262 17.041 11.543 16.7188 11.543C16.3867 11.543 16.1328 11.8262 16.1328 12.1777L16.1328 19.0234C16.1328 19.4336 16.3574 19.6875 16.748 19.6875C17.0312 19.6875 17.3438 19.5117 17.3438 19.0234L17.3438 14.8242C17.3438 13.8672 17.7246 12.7637 18.8574 12.7637C19.1016 12.7637 19.3457 12.7441 19.5312 12.6465C19.707 12.5781 19.8047 12.4219 19.8047 12.2168C19.8047 11.7773 19.4238 11.543 18.9844 11.543C18.1348 11.543 17.5684 12.2656 17.373 13.125Z" fill="black" fill-opacity="0.85"/>
 </g>
</svg>
