<?xml version="1.0" encoding="UTF-8"?>
<!--Generator: Apple Native CoreSVG 326-->
<!DOCTYPE svg
PUBLIC "-//W3C//DTD SVG 1.1//EN"
       "http://www.w3.org/Graphics/SVG/1.1/DTD/svg11.dtd">
<svg version="1.1" xmlns="http://www.w3.org/2000/svg" xmlns:xlink="http://www.w3.org/1999/xlink" viewBox="0 0 23.877 24.5801">
 <g>
  <rect height="24.5801" opacity="0" width="23.877" x="0" y="0"/>
  <path d="M1.01562 24.5703C1.64062 24.5703 2.06055 24.1016 2.06055 23.4766L2.06055 17.7637L4.04297 15.8887L10.5957 24.1797C10.791 24.4336 11.0742 24.5703 11.4355 24.5703C11.9824 24.5703 12.4023 24.1895 12.4023 23.6914C12.4023 23.4473 12.3145 23.2031 12.1191 22.959L5.49805 14.5996L11.7285 8.4375C11.9824 8.18359 12.0996 7.93945 12.0996 7.67578C12.0996 7.16797 11.6699 6.80664 11.2012 6.80664C10.8984 6.80664 10.6543 6.93359 10.4102 7.17773L2.12891 15.498L2.06055 15.498L2.06055 1.08398C2.06055 0.449219 1.63086 0 1.02539 0C0.419922 0 0 0.449219 0 1.08398L0 23.4766C0 24.1504 0.46875 24.5703 1.01562 24.5703ZM16.5918 24.5703C17.168 24.5703 17.5879 24.1113 17.5879 23.4766L17.5879 13.6914C17.5879 11.377 18.584 8.7793 21.5723 8.7793C22.1289 8.7793 22.8418 8.82812 23.1055 8.67188C23.3594 8.55469 23.5156 8.32031 23.5156 7.97852C23.5156 7.5293 23.3008 7.24609 22.959 7.07031C22.6074 6.89453 22.1191 6.82617 21.6895 6.82617C19.8535 6.82617 18.1836 8.06641 17.6562 10.2539L17.5 10.2539L17.5 7.85156C17.5 7.24609 17.0996 6.80664 16.5527 6.80664C15.9961 6.80664 15.6055 7.24609 15.6055 7.85156L15.6055 23.4766C15.6055 24.1113 16.0156 24.5703 16.5918 24.5703Z" fill="black" fill-opacity="0.85"/>
 </g>
</svg>
