<?xml version="1.0" encoding="UTF-8"?>
<!--Generator: Apple Native CoreSVG 326-->
<!DOCTYPE svg
PUBLIC "-//W3C//DTD SVG 1.1//EN"
       "http://www.w3.org/Graphics/SVG/1.1/DTD/svg11.dtd">
<svg version="1.1" xmlns="http://www.w3.org/2000/svg" xmlns:xlink="http://www.w3.org/1999/xlink" viewBox="0 0 30.3809 25.0293">
 <g>
  <rect height="25.0293" opacity="0" width="30.3809" x="0" y="0"/>
  <path d="M30.0195 15.0098C30.0195 11.3281 28.6914 7.95898 26.4844 5.3418C26.2305 5.03906 25.8008 5.04883 25.5176 5.33203L22.6953 8.1543C22.4512 8.39844 22.4414 8.74023 22.6562 9.01367C23.9551 10.6738 24.7266 12.7441 24.7266 15.0098C24.7266 17.2754 23.9551 19.3555 22.5977 21.0742C22.4121 21.3086 22.4219 21.6016 22.627 21.8066L25.5176 24.707C25.8008 25 26.2207 24.9902 26.4844 24.6875C28.6914 22.0703 30.0195 18.6816 30.0195 15.0098Z" fill="black" fill-opacity="0.85"/>
  <path d="M15.0098 5.2832C17.2754 5.2832 19.3652 6.06445 21.0254 7.38281C21.2891 7.57812 21.6113 7.55859 21.8555 7.31445L24.6875 4.48242C24.9805 4.19922 24.9707 3.7793 24.668 3.51562C22.0605 1.32812 18.6816 0 15.0098 0C11.3379 0 7.95898 1.32812 5.35156 3.51562C5.04883 3.7793 5.03906 4.19922 5.32227 4.48242L8.16406 7.31445C8.39844 7.55859 8.75 7.56836 9.02344 7.35352C10.6738 6.06445 12.7539 5.2832 15.0098 5.2832Z" fill="black" fill-opacity="0.85"/>
  <path d="M0 15.0098C0 18.6816 1.32812 22.0703 3.53516 24.6875C3.78906 24.9902 4.21875 25 4.50195 24.707L7.39258 21.8066C7.58789 21.6016 7.60742 21.3086 7.42188 21.0742C6.06445 19.3555 5.2832 17.2754 5.2832 15.0098C5.2832 12.7441 6.05469 10.6738 7.36328 9.01367C7.56836 8.74023 7.56836 8.39844 7.32422 8.1543L4.49219 5.33203C4.20898 5.04883 3.78906 5.03906 3.52539 5.3418C1.31836 7.95898 0 11.3281 0 15.0098Z" fill="black" fill-opacity="0.85"/>
  <path d="M10.8789 20.4004C11.2402 20.4004 11.4844 20.1367 11.4844 19.7559L11.4844 17.4512L12.2559 16.6895L14.6875 20.0977C14.8145 20.2832 14.9902 20.4004 15.2246 20.4004C15.5566 20.4004 15.8105 20.166 15.8105 19.8535C15.8105 19.6973 15.7422 19.5605 15.6445 19.4238L13.1348 15.9277L15.4883 13.418C15.6348 13.2617 15.7031 13.1738 15.7031 12.9785C15.7031 12.6953 15.4688 12.4414 15.1562 12.4414C14.9902 12.4414 14.7949 12.5488 14.6875 12.6758L11.5234 16.1426L11.4844 16.1426L11.4844 10.0879C11.4844 9.69727 11.2402 9.42383 10.8789 9.42383C10.5176 9.42383 10.2539 9.6875 10.2539 10.0781L10.2539 19.7559C10.2539 20.1367 10.5176 20.4004 10.8789 20.4004ZM17.8809 20.4004C18.1641 20.4004 18.4668 20.2246 18.4668 19.7559L18.4668 15.6445C18.4668 14.707 18.8281 13.623 19.9512 13.623C20.1855 13.623 20.4199 13.6035 20.5957 13.5156C20.7617 13.4473 20.8594 13.3008 20.8594 13.0957C20.8594 12.666 20.498 12.4414 20.0684 12.4414C19.2383 12.4414 18.6914 13.1445 18.4961 13.9844L18.418 13.9844L18.418 13.0664C18.418 12.7148 18.1738 12.4414 17.8613 12.4414C17.5391 12.4414 17.2949 12.7148 17.2949 13.0664L17.2949 19.7559C17.2949 20.1465 17.5 20.4004 17.8809 20.4004Z" fill="black" fill-opacity="0.85"/>
 </g>
</svg>
