<?xml version="1.0" ?><!-- Generator: Adobe Illustrator 25.0.0, SVG Export Plug-In . SVG Version: 6.00 Build 0)  --><svg xmlns="http://www.w3.org/2000/svg" xmlns:xlink="http://www.w3.org/1999/xlink" version="1.1" id="Layer_1" x="0px" y="0px" viewBox="0 0 512 512" style="enable-background:new 0 0 512 512;" xml:space="preserve">
<path d="M0,394.8c0,64.4,44.8,107.1,112.5,107.1c20.6,0,42.8-7.1,57-17.8c-10.9-7.9-20.4-16.5-33.6-33.1c-5.9,2.5-13.7,4.3-21.6,4.3  c-21.1,0-35.4-12.2-35.4-29.5c0-16.5,12.2-28,30.5-28c16,0,27,9.4,38.9,22.6c26,28.2,50.6,61.1,107.6,61.1s81.7-32.8,107.6-61.1  c12-13.2,22.9-22.6,38.9-22.6c18.1,0,30.5,11.5,30.5,28c0,17.3-14.3,29.5-35.6,29.5c-7.6,0-15.5-1.8-21.6-4.3  c-13,16.5-22.4,25.2-33.3,33.1c14.3,10.7,36.4,17.8,57,17.8c67.7,0,112.5-42.8,112.5-107.1c0-61.3-44.3-107.1-111.7-114.5  c-25.7-60.6-44-127.2-58.8-191.1c-11.7-51.7-38.2-79.1-85.5-79.1c-47.3,0-73.8,27.5-85.5,79.1c-14.8,63.9-33.1,130.5-58.8,191.1  C44.3,287.7,0,333.5,0,394.8z"/>
</svg>