<?xml version="1.0" encoding="UTF-8"?>
<!--Generator: Apple Native CoreSVG 326-->
<!DOCTYPE svg
PUBLIC "-//W3C//DTD SVG 1.1//EN"
       "http://www.w3.org/Graphics/SVG/1.1/DTD/svg11.dtd">
<svg version="1.1" xmlns="http://www.w3.org/2000/svg" xmlns:xlink="http://www.w3.org/1999/xlink" viewBox="0 0 25.4102 24.4434">
 <g>
  <rect height="24.4434" opacity="0" width="25.4102" x="0" y="0"/>
  <path d="M5.41992 24.0234C6.5625 24.0234 7.72461 23.5742 8.71094 22.8125L7.59766 21.6992C6.93359 22.1289 6.2207 22.373 5.42969 22.373C3.35938 22.373 1.78711 20.9766 1.78711 18.9551C1.78711 16.2012 4.10156 14.7363 6.75781 15.0781C8.24219 11.875 9.07227 7.82227 9.9707 4.16992C10.3516 2.59766 11.1328 1.73828 12.5293 1.73828C13.9258 1.73828 14.6973 2.59766 15.0879 4.16992C15.9766 7.82227 16.8066 11.875 18.291 15.0781C20.9473 14.7363 23.2617 16.2012 23.2617 18.9551C23.2617 20.9766 21.6895 22.373 19.6191 22.373C18.8281 22.373 18.1152 22.1289 17.4512 21.6992L16.3379 22.8125C17.3242 23.5742 18.4863 24.0234 19.6387 24.0234C22.9102 24.0234 25.0488 21.9629 25.0488 18.8574C25.0488 15.8789 22.9004 13.6621 19.5996 13.3301C18.457 10.5566 17.4512 6.86523 16.7188 3.75977C16.1523 1.30859 14.7559 0 12.5293 0C10.293 0 8.90625 1.30859 8.33008 3.75977C7.60742 6.86523 6.5918 10.5566 5.45898 13.3301C2.1582 13.6621 0 15.8789 0 18.8574C0 21.9629 2.14844 24.0234 5.41992 24.0234ZM12.5293 24.4043C15.4785 24.4043 17.0996 23.0957 18.3887 21.5137C18.6328 21.6895 18.9355 21.7969 19.2578 21.7969C20.166 21.7969 20.7129 21.1621 20.7129 20.4688C20.7129 19.7852 20.2148 19.1504 19.3457 19.1504C18.7012 19.1504 18.3301 19.502 17.7832 20.0977C16.1719 21.8164 14.7656 22.5977 12.5293 22.5977C10.2832 22.5977 8.86719 21.8262 7.27539 20.0977C6.71875 19.502 6.34766 19.1504 5.71289 19.1504C4.84375 19.1504 4.33594 19.7852 4.33594 20.4688C4.33594 21.1621 4.88281 21.7969 5.80078 21.7969C6.11328 21.7969 6.41602 21.6895 6.66992 21.5137C7.94922 23.0957 9.57031 24.4043 12.5293 24.4043Z" fill="black" fill-opacity="0.85"/>
 </g>
</svg>
