<?xml version="1.0" encoding="UTF-8"?>
<!--Generator: Apple Native CoreSVG 326-->
<!DOCTYPE svg
PUBLIC "-//W3C//DTD SVG 1.1//EN"
       "http://www.w3.org/Graphics/SVG/1.1/DTD/svg11.dtd">
<svg version="1.1" xmlns="http://www.w3.org/2000/svg" xmlns:xlink="http://www.w3.org/1999/xlink" viewBox="0 0 23.3203 22.959">
 <g>
  <rect height="22.959" opacity="0" width="23.3203" x="0" y="0"/>
  <path d="M3.79883 22.959L19.1504 22.959C21.6797 22.959 22.959 21.6797 22.959 19.1992L22.959 3.76953C22.959 1.2793 21.6797 0 19.1504 0L3.79883 0C1.2793 0 0 1.26953 0 3.76953L0 19.1992C0 21.6992 1.2793 22.959 3.79883 22.959ZM3.83789 21.2305C2.4707 21.2305 1.72852 20.5078 1.72852 19.1016L1.72852 3.85742C1.72852 2.46094 2.4707 1.72852 3.83789 1.72852L19.1211 1.72852C20.459 1.72852 21.2305 2.46094 21.2305 3.85742L21.2305 19.1016C21.2305 20.5078 20.459 21.2305 19.1211 21.2305Z" fill="black" fill-opacity="0.85"/>
  <path d="M6.60156 14.6191L16.3477 14.6191C16.8945 14.6191 17.2852 14.3359 17.2852 13.7988C17.2852 13.252 16.9238 12.9688 16.3477 12.9688L6.60156 12.9688C6.03516 12.9688 5.67383 13.252 5.67383 13.7988C5.67383 14.3359 6.05469 14.6191 6.60156 14.6191ZM6.60156 10.0098L16.3477 10.0098C16.8945 10.0098 17.2852 9.73633 17.2852 9.19922C17.2852 8.64258 16.9238 8.35938 16.3477 8.35938L6.60156 8.35938C6.03516 8.35938 5.67383 8.64258 5.67383 9.19922C5.67383 9.73633 6.05469 10.0098 6.60156 10.0098ZM7.41211 17.0117C7.85156 17.334 8.31055 17.1875 8.62305 16.748L15.6543 7.1582C15.9863 6.70898 15.9961 6.24023 15.5566 5.92773C15.1172 5.60547 14.668 5.71289 14.3359 6.18164L7.29492 15.7715C6.95312 16.2305 6.98242 16.6992 7.41211 17.0117Z" fill="black" fill-opacity="0.85"/>
 </g>
</svg>
