<?xml version="1.0" encoding="UTF-8"?>
<!--Generator: Apple Native CoreSVG 326-->
<!DOCTYPE svg
PUBLIC "-//W3C//DTD SVG 1.1//EN"
       "http://www.w3.org/Graphics/SVG/1.1/DTD/svg11.dtd">
<svg version="1.1" xmlns="http://www.w3.org/2000/svg" xmlns:xlink="http://www.w3.org/1999/xlink" viewBox="0 0 25.3809 22.9785">
 <g>
  <rect height="22.9785" opacity="0" width="25.3809" x="0" y="0"/>
  <path d="M3.79883 22.9785L21.2109 22.9785C23.7402 22.9785 25.0195 21.709 25.0195 19.2188L25.0195 3.78906C25.0195 1.29883 23.7402 0.0292969 21.2109 0.0292969L3.79883 0.0292969C1.2793 0.0292969 0 1.28906 0 3.78906L0 19.2188C0 21.7188 1.2793 22.9785 3.79883 22.9785ZM3.66211 21.25C2.41211 21.25 1.72852 20.5859 1.72852 19.2969L1.72852 7.64648C1.72852 6.34766 2.41211 5.69336 3.66211 5.69336L21.3379 5.69336C22.5781 5.69336 23.2812 6.34766 23.2812 7.64648L23.2812 19.2969C23.2812 20.5859 22.5781 21.25 21.3379 21.25Z" fill="black" fill-opacity="0.85"/>
  <path d="M5.74219 10.3027L19.2969 10.3027C19.6875 10.3027 19.9805 10 19.9805 9.60938C19.9805 9.23828 19.6875 8.94531 19.2969 8.94531L5.74219 8.94531C5.3418 8.94531 5.04883 9.23828 5.04883 9.60938C5.04883 10 5.3418 10.3027 5.74219 10.3027ZM5.74219 14.1504L19.2969 14.1504C19.6875 14.1504 19.9805 13.8574 19.9805 13.4766C19.9805 13.0957 19.6875 12.793 19.2969 12.793L5.74219 12.793C5.3418 12.793 5.04883 13.0957 5.04883 13.4766C5.04883 13.8574 5.3418 14.1504 5.74219 14.1504ZM5.74219 17.998L14.4727 17.998C14.8633 17.998 15.1562 17.7051 15.1562 17.334C15.1562 16.9434 14.8633 16.6406 14.4727 16.6406L5.74219 16.6406C5.3418 16.6406 5.04883 16.9434 5.04883 17.334C5.04883 17.7051 5.3418 17.998 5.74219 17.998Z" fill="black" fill-opacity="0.85"/>
 </g>
</svg>
