<?xml version="1.0" ?><!-- Generator: Adobe Illustrator 25.0.0, SVG Export Plug-In . SVG Version: 6.00 Build 0)  --><svg xmlns="http://www.w3.org/2000/svg" xmlns:xlink="http://www.w3.org/1999/xlink" version="1.1" id="Layer_1" x="0px" y="0px" viewBox="0 0 512 512" style="enable-background:new 0 0 512 512;" xml:space="preserve">
<path d="M256,512c140,0,256-116.2,256-256C512,116,395.8,0,255.7,0C116,0,0,116,0,256C0,395.8,116.2,512,256,512z M256,469.3  c-118.5,0-213.1-94.9-213.1-213.3S137.3,42.7,255.7,42.7S469.1,137.5,469.3,256S374.5,469.3,256,469.3z M191,378.5  c10,0,16.1-4.8,17.8-14.3l11.5-53.7H267l-10.3,49.2c-2.3,10.3,5,18.8,15.3,18.8c10,0,16.6-4.8,18.6-14.3l11.3-54H328  c9.8,0,16.8-7.3,16.8-17.1c0-8.5-6-14.8-14.3-14.8h-21.8l10.8-50.7h26.4c9.8,0,16.8-7.3,16.8-17.1c0-8.5-6-14.8-14.3-14.8H326  l9.8-46.7c1.8-10.3-5.5-19.1-15.8-19.1c-9.8,0-16.1,5-18.1,14.3l-10.8,51.5h-46.7l9.5-46.7c2.3-10-5-19.1-15.3-19.1  c-10,0-16.3,5-18.3,14.3l-10.8,51.5h-26.4c-9.8,0-16.8,7.5-16.8,17.1c0,8.5,6,14.8,14.6,14.8h21.8l-10.5,50.7h-26.9  c-9.8,0-16.8,7.5-16.8,17.1c0,8.5,6,14.8,14.3,14.8h22.6l-10,49.4C173.4,369.9,181,378.5,191,378.5z M224.9,281.3l11.5-56.2h50.7  l-12,56.2H224.9z"/>
</svg>