<?xml version="1.0" encoding="UTF-8"?>
<!--Generator: Apple Native CoreSVG 326-->
<!DOCTYPE svg
PUBLIC "-//W3C//DTD SVG 1.1//EN"
       "http://www.w3.org/Graphics/SVG/1.1/DTD/svg11.dtd">
<svg version="1.1" xmlns="http://www.w3.org/2000/svg" xmlns:xlink="http://www.w3.org/1999/xlink" viewBox="0 0 22.8809 24.7168">
 <g>
  <rect height="24.7168" opacity="0" width="22.8809" x="0" y="0"/>
  <path d="M4.57031 24.7168C5.08789 24.7168 5.45898 24.4434 5.56641 23.9062L10.1465 1.30859C10.1562 1.23047 10.1855 1.09375 10.1855 0.947266C10.1855 0.419922 9.80469 0.117188 9.28711 0.117188C8.69141 0.117188 8.4082 0.439453 8.31055 0.957031L3.73047 23.5352C3.71094 23.6523 3.69141 23.7891 3.69141 23.8965C3.69141 24.4336 4.05273 24.7168 4.57031 24.7168ZM12.7148 24.7168C13.2324 24.7168 13.6035 24.4434 13.7109 23.9062L18.291 1.30859C18.3105 1.23047 18.3398 1.09375 18.3398 0.947266C18.3398 0.419922 17.959 0.117188 17.4414 0.117188C16.8457 0.117188 16.5723 0.439453 16.4746 0.957031L11.8848 23.5352C11.8555 23.6523 11.8457 23.7891 11.8457 23.8965C11.8457 24.4336 12.207 24.7168 12.7148 24.7168ZM2.50977 8.61328L21.5332 8.61328C22.1191 8.61328 22.5195 8.19336 22.5195 7.60742C22.5195 7.12891 22.1973 6.75781 21.709 6.75781L2.68555 6.75781C2.09961 6.75781 1.69922 7.1875 1.69922 7.7832C1.69922 8.27148 2.02148 8.61328 2.50977 8.61328ZM0.810547 17.4609L19.8438 17.4609C20.4297 17.4609 20.8301 17.041 20.8301 16.4551C20.8301 15.9766 20.5078 15.6055 20.0195 15.6055L0.986328 15.6055C0.410156 15.6055 0 16.0352 0 16.6309C0 17.1191 0.322266 17.4609 0.810547 17.4609Z" fill="black" fill-opacity="0.85"/>
 </g>
</svg>
