<?xml version="1.0" encoding="UTF-8"?>
<!--Generator: Apple Native CoreSVG 326-->
<!DOCTYPE svg
PUBLIC "-//W3C//DTD SVG 1.1//EN"
       "http://www.w3.org/Graphics/SVG/1.1/DTD/svg11.dtd">
<svg version="1.1" xmlns="http://www.w3.org/2000/svg" xmlns:xlink="http://www.w3.org/1999/xlink" viewBox="0 0 23.3203 22.959">
 <g>
  <rect height="22.959" opacity="0" width="23.3203" x="0" y="0"/>
  <path d="M22.959 3.76953L22.959 19.1992C22.959 21.6797 21.6797 22.959 19.1504 22.959L3.79883 22.959C1.2793 22.959 0 21.6992 0 19.1992L0 3.76953C0 1.26953 1.2793 0 3.79883 0L19.1504 0C21.6797 0 22.959 1.2793 22.959 3.76953ZM13.916 5.81055L13.3301 8.54492L10.8203 8.54492L11.3477 6.02539C11.4453 5.55664 11.123 5.15625 10.6445 5.15625C10.1953 5.15625 9.91211 5.38086 9.82422 5.81055L9.25781 8.54492L7.8125 8.54492C7.37305 8.54492 7.05078 8.86719 7.05078 9.30664C7.05078 9.6875 7.32422 9.9707 7.70508 9.9707L8.94531 9.9707L8.38867 12.7051L6.9043 12.7051C6.45508 12.7051 6.14258 13.0371 6.14258 13.4668C6.14258 13.8574 6.40625 14.1309 6.78711 14.1309L8.07617 14.1309L7.51953 16.7871C7.43164 17.2559 7.76367 17.6465 8.24219 17.6465C8.68164 17.6465 8.95508 17.4219 9.04297 16.9922L9.64844 14.1406L12.1582 14.1406L11.6016 16.7871C11.5039 17.2559 11.8359 17.6465 12.2949 17.6465C12.7637 17.6465 13.0469 17.4219 13.1348 16.9922L13.7305 14.1309L15.1367 14.1309C15.5859 14.1309 15.8984 13.7988 15.8984 13.3691C15.8984 12.9883 15.6348 12.7051 15.2539 12.7051L14.0332 12.7051L14.6191 9.9707L16.0547 9.9707C16.5039 9.9707 16.8164 9.64844 16.8164 9.20898C16.8164 8.81836 16.543 8.54492 16.1621 8.54492L14.9121 8.54492L15.4492 6.02539C15.5371 5.54688 15.1953 5.15625 14.7168 5.15625C14.2773 5.15625 14.0039 5.38086 13.916 5.81055ZM12.5195 12.8223L9.86328 12.8223L10.4785 9.86328L13.1445 9.86328Z" fill="black" fill-opacity="0.85"/>
 </g>
</svg>
