<?xml version="1.0" encoding="UTF-8"?>
<!--Generator: Apple Native CoreSVG 326-->
<!DOCTYPE svg
PUBLIC "-//W3C//DTD SVG 1.1//EN"
       "http://www.w3.org/Graphics/SVG/1.1/DTD/svg11.dtd">
<svg version="1.1" xmlns="http://www.w3.org/2000/svg" xmlns:xlink="http://www.w3.org/1999/xlink" viewBox="0 0 29.9512 22.959">
 <g>
  <rect height="22.959" opacity="0" width="29.9512" x="0" y="0"/>
  <path d="M3.79883 22.959L25.7812 22.959C28.3105 22.959 29.5898 21.6797 29.5898 19.1992L29.5898 3.76953C29.5898 1.2793 28.3105 0 25.7812 0L3.79883 0C1.2793 0 0 1.26953 0 3.76953L0 19.1992C0 21.6992 1.2793 22.959 3.79883 22.959ZM3.83789 21.2305C2.4707 21.2305 1.72852 20.5078 1.72852 19.1016L1.72852 3.85742C1.72852 2.46094 2.4707 1.72852 3.83789 1.72852L25.752 1.72852C27.0898 1.72852 27.8516 2.46094 27.8516 3.85742L27.8516 19.1016C27.8516 20.5078 27.0898 21.2305 25.752 21.2305Z" fill="black" fill-opacity="0.85"/>
  <path d="M7.32422 16.6992C7.79297 16.6992 8.07617 16.3965 8.07617 15.8789L8.07617 6.99219C8.07617 6.46484 7.77344 6.16211 7.27539 6.16211C6.91406 6.16211 6.68945 6.25977 6.2793 6.54297L4.13086 7.96875C3.91602 8.125 3.83789 8.28125 3.83789 8.49609C3.83789 8.79883 4.08203 9.0625 4.375 9.0625C4.51172 9.0625 4.61914 9.0332 4.86328 8.86719L6.49414 7.80273L6.5918 7.80273L6.5918 15.8789C6.5918 16.3867 6.875 16.6992 7.32422 16.6992ZM10.8984 16.543L16.6504 16.543C17.0312 16.543 17.2949 16.2695 17.2949 15.8984C17.2949 15.5176 17.0215 15.2637 16.6504 15.2637L12.2949 15.2637L12.2949 15.2148L15.127 12.1484C16.1719 11.0059 16.8164 10.1465 16.8164 8.97461C16.8164 7.27539 15.4883 6.16211 13.4766 6.16211C11.9043 6.16211 10.498 7.10938 10.1758 8.41797C10.1367 8.58398 10.127 8.70117 10.127 8.83789C10.127 9.21875 10.3613 9.47266 10.7617 9.47266C11.1133 9.47266 11.3086 9.26758 11.4648 8.97461C11.6895 8.16406 12.3926 7.42188 13.5352 7.42188C14.668 7.42188 15.4297 8.07617 15.4297 9.07227C15.4297 9.87305 14.8242 10.5664 14.1211 11.3281L10.4492 15.3125C10.2832 15.4883 10.1855 15.6641 10.1855 15.8984C10.1855 16.2988 10.4688 16.543 10.8984 16.543ZM21.875 16.709C24.1016 16.709 25.625 15.5078 25.625 13.7207C25.625 12.4121 24.6289 11.3574 23.2812 11.2207L23.2812 11.1914C24.4043 10.9961 25.2734 9.9707 25.2734 8.79883C25.2734 7.25586 23.877 6.15234 21.9434 6.15234C20.2051 6.15234 18.8477 7.00195 18.584 8.30078C18.5547 8.45703 18.5352 8.55469 18.5352 8.71094C18.5352 9.08203 18.7988 9.3457 19.1992 9.3457C19.5508 9.3457 19.7559 9.18945 19.8633 8.83789C20.0879 7.93945 20.8691 7.39258 21.9238 7.39258C23.0859 7.39258 23.8379 8.00781 23.8379 8.95508C23.8379 9.93164 23.0176 10.6641 21.9043 10.6641L21.1328 10.6641C20.791 10.6641 20.5273 10.9082 20.5273 11.2598C20.5273 11.6211 20.7715 11.875 21.1328 11.875L21.9727 11.875C23.2812 11.875 24.1895 12.6172 24.1895 13.6719C24.1895 14.7363 23.2715 15.4688 21.8945 15.4688C20.7812 15.4688 19.9414 14.9219 19.668 14.0137C19.541 13.6719 19.3359 13.5059 18.9941 13.5059C18.5742 13.5059 18.3301 13.7891 18.3301 14.1895C18.3301 14.3164 18.3398 14.3945 18.3594 14.5312C18.6328 15.8008 20.1465 16.709 21.875 16.709Z" fill="black" fill-opacity="0.85"/>
 </g>
</svg>
