<?xml version="1.0" ?><!-- Generator: Adobe Illustrator 25.0.0, SVG Export Plug-In . SVG Version: 6.00 Build 0)  --><svg xmlns="http://www.w3.org/2000/svg" xmlns:xlink="http://www.w3.org/1999/xlink" version="1.1" id="Layer_1" x="0px" y="0px" viewBox="0 0 512 512" style="enable-background:new 0 0 512 512;" xml:space="preserve">
<path d="M256,512c140,0,256-116.2,256-256C512,116,395.8,0,255.7,0C116,0,0,116,0,256C0,395.8,116.2,512,256,512z M189,382.5  c-10.5,0-18.3-9-16.3-19.8l10.5-50.9h-23.3c-8.5,0-14.8-6.3-14.8-15.3c0-9.8,7.3-17.3,17.6-17.3h27.6l10.8-52.5h-22.6  c-8.8,0-15.1-6.5-15.1-15.3c0-10,7.3-17.6,17.6-17.6h27.1l11-53c2-9.8,8.5-15.1,19.1-15.1c10.5,0,18.1,9.3,15.8,19.8l-9.8,48.2h47.9  l11.3-53c2-9.8,8.5-15.1,18.6-15.1c10.8,0,18.3,9,16.6,19.8l-10.3,48.2h23.1c8.5,0,14.8,6.5,14.8,15.3c0,10-7.3,17.6-17.6,17.6  h-27.1l-11,52.5H333c8.5,0,14.8,6.5,14.8,15.3c0,9.8-7.3,17.3-17.6,17.3h-26.9l-11.5,56c-2,9.5-8.8,14.8-19.3,14.8  s-18.1-9-15.8-19.8l10.5-50.7h-47.9l-12,55.7C205.6,377.2,199.3,382.5,189,382.5z M223.9,282.1h51.7l12.5-58.2h-52.2L223.9,282.1z"/>
</svg>