<?xml version="1.0" encoding="UTF-8"?>
<!--Generator: Apple Native CoreSVG 326-->
<!DOCTYPE svg
PUBLIC "-//W3C//DTD SVG 1.1//EN"
       "http://www.w3.org/Graphics/SVG/1.1/DTD/svg11.dtd">
<svg version="1.1" xmlns="http://www.w3.org/2000/svg" xmlns:xlink="http://www.w3.org/1999/xlink" viewBox="0 0 23.3203 22.959">
 <g>
  <rect height="22.959" opacity="0" width="23.3203" x="0" y="0"/>
  <path d="M3.79883 22.959L19.1504 22.959C21.6797 22.959 22.959 21.6797 22.959 19.1992L22.959 3.76953C22.959 1.2793 21.6797 0 19.1504 0L3.79883 0C1.2793 0 0 1.26953 0 3.76953L0 19.1992C0 21.6992 1.2793 22.959 3.79883 22.959ZM3.83789 21.2305C2.4707 21.2305 1.72852 20.5078 1.72852 19.1016L1.72852 3.85742C1.72852 2.46094 2.4707 1.72852 3.83789 1.72852L19.1211 1.72852C20.459 1.72852 21.2305 2.46094 21.2305 3.85742L21.2305 19.1016C21.2305 20.5078 20.459 21.2305 19.1211 21.2305Z" fill="black" fill-opacity="0.85"/>
  <path d="M8.32031 17.4902C8.75 17.4902 9.01367 17.2754 9.10156 16.8555L9.6875 14.0723L12.1484 14.0723L11.6016 16.6602C11.5039 17.1094 11.8262 17.4902 12.2754 17.4902C12.7246 17.4902 12.998 17.2754 13.0859 16.8555L13.6719 14.0625L15.0488 14.0625C15.4785 14.0625 15.7812 13.7402 15.7812 13.3203C15.7812 12.9492 15.5273 12.6758 15.1562 12.6758L13.9648 12.6758L14.541 10L15.9473 10C16.3672 10 16.6797 9.6875 16.6797 9.26758C16.6797 8.88672 16.416 8.62305 16.0449 8.62305L14.8242 8.62305L15.332 6.15234C15.4199 5.69336 15.0977 5.32227 14.6387 5.32227C14.209 5.32227 13.9453 5.53711 13.8574 5.94727L13.291 8.62305L10.8301 8.62305L11.3477 6.15234C11.4453 5.70312 11.1328 5.32227 10.6641 5.32227C10.2344 5.32227 9.96094 5.53711 9.87305 5.94727L9.31641 8.62305L7.91016 8.62305C7.48047 8.62305 7.16797 8.93555 7.16797 9.35547C7.16797 9.72656 7.43164 10 7.80273 10L9.01367 10L8.4668 12.6758L7.01172 12.6758C6.58203 12.6758 6.2793 12.998 6.2793 13.418C6.2793 13.7891 6.54297 14.0625 6.91406 14.0625L8.16406 14.0625L7.62695 16.6602C7.53906 17.1094 7.87109 17.4902 8.32031 17.4902ZM9.90234 12.793L10.498 9.90234L13.1055 9.90234L12.5 12.793Z" fill="black" fill-opacity="0.85"/>
 </g>
</svg>
