<?xml version="1.0" ?><!-- Generator: Adobe Illustrator 25.0.0, SVG Export Plug-In . SVG Version: 6.00 Build 0)  --><svg xmlns="http://www.w3.org/2000/svg" xmlns:xlink="http://www.w3.org/1999/xlink" version="1.1" id="Layer_1" x="0px" y="0px" viewBox="0 0 512 512" style="enable-background:new 0 0 512 512;" xml:space="preserve">
<path d="M256,512c140,0,256-116.2,256-256C512,116,395.8,0,255.7,0C116,0,0,116,0,256C0,395.8,116.2,512,256,512z M255.7,377.5  c-66,0-111.9-50.7-111.9-123.7c0-73.3,45.9-124,111.9-124c66.3,0,112.2,50.7,112.2,124C367.9,326.8,322,377.5,255.7,377.5z   M255.7,344.8c42.7,0,70.5-36.1,70.5-91.1c0-55.2-27.9-91.4-70.5-91.4s-70.5,36.1-70.5,91.4C185.2,308.7,213.1,344.8,255.7,344.8z"/>
</svg>