<?xml version="1.0" ?><!-- Generator: Adobe Illustrator 25.0.0, SVG Export Plug-In . SVG Version: 6.00 Build 0)  --><svg xmlns="http://www.w3.org/2000/svg" xmlns:xlink="http://www.w3.org/1999/xlink" version="1.1" id="Layer_1" x="0px" y="0px" viewBox="0 0 512 512" style="enable-background:new 0 0 512 512;" xml:space="preserve">
<path d="M87.3,512h337.3c58.4,0,87.3-28.9,87.3-86.2V86.2C512,28.9,483.1,0,424.7,0H87.3C29.2,0,0,28.6,0,86.2v339.6  C0,483.4,29.2,512,87.3,512z M87.9,467.2c-27.8,0-43.1-14.7-43.1-43.7V88.4c0-28.9,15.3-43.7,43.1-43.7h336.2  c27.5,0,43.1,14.7,43.1,43.7v335.1c0,28.9-15.6,43.7-43.1,43.7H87.9z M256.1,386c71.2,0,120.4-54.5,120.4-132.9  c0-78.7-49.2-133.2-120.4-133.2c-70.9,0-120.1,54.5-120.1,133.2C136,331.5,185.2,386,256.1,386z M256.1,351  c-45.9,0-75.9-38.7-75.9-97.9c0-59.5,30-98.2,75.9-98.2c45.9,0,75.9,38.7,75.9,98.2C332.1,312.3,302,351,256.1,351z"/>
</svg>