<?xml version="1.0" encoding="UTF-8"?>
<!--Generator: Apple Native CoreSVG 326-->
<!DOCTYPE svg
PUBLIC "-//W3C//DTD SVG 1.1//EN"
       "http://www.w3.org/Graphics/SVG/1.1/DTD/svg11.dtd">
<svg version="1.1" xmlns="http://www.w3.org/2000/svg" xmlns:xlink="http://www.w3.org/1999/xlink" viewBox="0 0 23.3203 22.959">
 <g>
  <rect height="22.959" opacity="0" width="23.3203" x="0" y="0"/>
  <path d="M22.959 3.76953L22.959 19.1992C22.959 21.6797 21.6797 22.959 19.1504 22.959L3.79883 22.959C1.2793 22.959 0 21.6992 0 19.1992L0 3.76953C0 1.26953 1.2793 0 3.79883 0L19.1504 0C21.6797 0 22.959 1.2793 22.959 3.76953ZM5.99609 11.3867C5.99609 15 8.23242 17.4902 11.4844 17.4902C14.7363 17.4902 16.9727 15 16.9727 11.3867C16.9727 7.76367 14.7363 5.27344 11.4844 5.27344C8.23242 5.27344 5.99609 7.76367 5.99609 11.3867ZM15.1953 11.3867C15.1953 14.1992 13.7207 16.0742 11.4844 16.0742C9.25781 16.0742 7.77344 14.1992 7.77344 11.3867C7.77344 8.56445 9.25781 6.69922 11.4844 6.69922C13.7207 6.69922 15.1953 8.56445 15.1953 11.3867Z" fill="black" fill-opacity="0.85"/>
 </g>
</svg>
