<?xml version="1.0" encoding="UTF-8"?>
<!--Generator: Apple Native CoreSVG 326-->
<!DOCTYPE svg
PUBLIC "-//W3C//DTD SVG 1.1//EN"
       "http://www.w3.org/Graphics/SVG/1.1/DTD/svg11.dtd">
<svg version="1.1" xmlns="http://www.w3.org/2000/svg" xmlns:xlink="http://www.w3.org/1999/xlink" viewBox="0 0 25.8008 25.459">
 <g>
  <rect height="25.459" opacity="0" width="25.8008" x="0" y="0"/>
  <path d="M25.4395 12.7246C25.4395 19.7266 19.7266 25.4395 12.7148 25.4395C5.71289 25.4395 0 19.7266 0 12.7246C0 5.71289 5.71289 0 12.7148 0C19.7266 0 25.4395 5.71289 25.4395 12.7246ZM16.3965 6.02539C16.2305 6.18164 16.2207 6.42578 16.3965 6.58203L16.7383 6.93359L12.7051 10.9668L8.66211 6.93359L9.00391 6.58203C9.17969 6.42578 9.16992 6.18164 9.00391 6.02539C8.84766 5.85938 8.60352 5.84961 8.44727 6.02539L7.16797 7.28516C7.00195 7.44141 7.01172 7.68555 7.16797 7.8418C7.34375 8.00781 7.58789 8.01758 7.74414 7.8418L8.08594 7.5L12.1289 11.543L10.7617 12.9004L9.77539 13.0762C9.33594 13.1445 8.94531 13.3594 8.50586 13.7988L5.78125 16.5039C5.39062 16.8848 5.50781 17.5684 6.10352 18.1445C6.67969 18.7305 7.35352 18.8477 7.72461 18.457L10.4395 15.7422C10.8887 15.293 11.0938 14.9023 11.1621 14.4629L11.3184 13.4961L12.7051 12.1094L14.082 13.4961L14.2383 14.4629C14.3066 14.9023 14.5117 15.293 14.9512 15.7422L17.6758 18.457C18.0469 18.8477 18.7207 18.7305 19.2969 18.1445C19.8926 17.5684 20.0098 16.8848 19.6094 16.5039L16.8945 13.7988C16.4551 13.3594 16.0547 13.1445 15.625 13.0762L14.6387 12.9004L13.2715 11.543L17.3145 7.5L17.6562 7.8418C17.8125 8.01758 18.0566 8.00781 18.2324 7.8418C18.3887 7.68555 18.3984 7.44141 18.2324 7.28516L16.9629 6.02539C16.7969 5.84961 16.5527 5.85938 16.3965 6.02539Z" fill="black" fill-opacity="0.85"/>
 </g>
</svg>
