<?xml version="1.0" encoding="UTF-8"?>
<!--Generator: Apple Native CoreSVG 326-->
<!DOCTYPE svg
PUBLIC "-//W3C//DTD SVG 1.1//EN"
       "http://www.w3.org/Graphics/SVG/1.1/DTD/svg11.dtd">
<svg version="1.1" xmlns="http://www.w3.org/2000/svg" xmlns:xlink="http://www.w3.org/1999/xlink" viewBox="0 0 44.5259 19.4434">
 <g>
  <rect height="19.4434" opacity="0" width="44.5259" x="0" y="0"/>
  <path d="M0.64674 6.875L6.9358 16.8652C7.62916 17.9395 8.61549 18.3887 10.1487 18.3887L21.0569 18.3887C22.9319 18.3887 24.1428 17.9199 25.0413 16.7773L33.469 5.95703L38.6448 4.62891L40.344 6.05469C41.2327 6.82617 42.3948 5.69336 41.4866 4.88281L39.7092 3.33984C39.3284 3.01758 38.9963 2.89062 38.2737 3.08594L22.9319 7.06055L20.8225 5.01953C20.2659 4.49219 19.6799 4.33594 18.9085 4.33594L10.1487 4.33594C9.73854 4.33594 9.37721 4.375 9.04518 4.45312L3.75221 2.5293C0.949474 1.50391-1.10131 4.15039 0.64674 6.875ZM1.74049 5.70312C1.04713 4.58008 1.87721 3.54492 3.05885 3.96484L7.20924 5.47852C6.73072 6.07422 6.48658 6.9043 6.48658 7.96875L6.48658 13.2617ZM10.1096 0.791016C10.1096 1.23047 10.4807 1.58203 10.9104 1.58203L18.2932 1.58203C18.7229 1.58203 19.094 1.23047 19.094 0.791016C19.094 0.361328 18.7229 0 18.2932 0L10.9104 0C10.4807 0 10.1096 0.361328 10.1096 0.791016ZM13.8108 5.36133L15.3928 5.36133L15.3928 0.654297L13.8108 0.654297ZM41.0374 19.4336C42.7561 19.4336 44.1624 18.0566 44.1624 16.3281C44.1624 15.3418 43.6936 14.4336 43.2151 13.5547L41.3108 10.0391C41.262 9.93164 41.1448 9.86328 41.0374 9.86328C40.9104 9.86328 40.8323 9.93164 40.7639 10.0586L38.8499 13.5547C38.3811 14.4336 37.9026 15.3418 37.9026 16.3281C37.9026 18.0566 39.3088 19.4336 41.0374 19.4336Z" fill="black" fill-opacity="0.85"/>
 </g>
</svg>
