<?xml version="1.0" encoding="UTF-8"?>
<!--Generator: Apple Native CoreSVG 326-->
<!DOCTYPE svg
PUBLIC "-//W3C//DTD SVG 1.1//EN"
       "http://www.w3.org/Graphics/SVG/1.1/DTD/svg11.dtd">
<svg version="1.1" xmlns="http://www.w3.org/2000/svg" xmlns:xlink="http://www.w3.org/1999/xlink" viewBox="0 0 25.8008 25.459">
 <g>
  <rect height="25.459" opacity="0" width="25.8008" x="0" y="0"/>
  <path d="M7.91992 14.6777L7.65625 13.7305L0.810547 15.7422L1.10352 16.6992ZM8.63281 16.25L8.03711 15.4492L2.37305 19.4336L2.95898 20.2441ZM11.7578 17.9785L10.8398 17.5977L8.81836 24.4141L9.77539 24.7168ZM13.7012 7.59766L14.6484 7.88086L16.6211 1.18164L15.6738 0.878906ZM16.7773 9.38477L17.373 10.166L23.0664 6.16211L22.4805 5.36133ZM17.5391 10.918L17.8418 11.8457L24.6387 9.85352L24.3457 8.90625ZM12.7148 18.5449C15.9375 18.5449 18.5352 15.9375 18.5352 12.7246C18.5352 9.50195 15.9375 6.9043 12.7148 6.9043C9.50195 6.9043 6.89453 9.50195 6.89453 12.7246C6.89453 15.9375 9.50195 18.5449 12.7148 18.5449ZM12.7148 17.3828C10.1465 17.3828 8.05664 15.293 8.05664 12.7246C8.05664 10.1465 10.1465 8.05664 12.7148 8.05664C15.293 8.05664 17.3828 10.1465 17.3828 12.7246C17.3828 15.293 15.293 17.3828 12.7148 17.3828ZM12.7148 15.752C14.3945 15.752 15.752 14.3945 15.752 12.7246C15.752 11.0449 14.3945 9.6875 12.7148 9.6875C11.0449 9.6875 9.6875 11.0449 9.6875 12.7246C9.6875 14.3945 11.0449 15.752 12.7148 15.752ZM12.7148 14.502C11.7285 14.502 10.9375 13.7109 10.9375 12.7246C10.9375 11.7383 11.7285 10.9375 12.7148 10.9375C13.7012 10.9375 14.502 11.7383 14.502 12.7246C14.502 13.7109 13.7012 14.502 12.7148 14.502ZM12.7148 25.4395C19.7363 25.4395 25.4395 19.7461 25.4395 12.7246C25.4395 5.70312 19.7363 0 12.7148 0C5.69336 0 0 5.70312 0 12.7246C0 19.7461 5.69336 25.4395 12.7148 25.4395ZM12.7148 23.623C6.68945 23.623 1.81641 18.75 1.81641 12.7246C1.81641 6.69922 6.68945 1.82617 12.7148 1.82617C18.7402 1.82617 23.6133 6.69922 23.6133 12.7246C23.6133 18.75 18.7402 23.623 12.7148 23.623Z" fill="black" fill-opacity="0.85"/>
 </g>
</svg>
