<?xml version="1.0" ?><!-- Generator: Adobe Illustrator 25.0.0, SVG Export Plug-In . SVG Version: 6.00 Build 0)  --><svg xmlns="http://www.w3.org/2000/svg" xmlns:xlink="http://www.w3.org/1999/xlink" version="1.1" id="Layer_1" x="0px" y="0px" viewBox="0 0 512 512" style="enable-background:new 0 0 512 512;" xml:space="preserve">
<path d="M256,512c140,0,256-116.2,256-256C512,116,395.8,0,255.7,0C116,0,0,116,0,256C0,395.8,116.2,512,256,512z M42.9,256  c0-118.5,94.4-213.3,212.8-213.3c19.3,0,38.1,2.5,56,7.3l-30.4,93.9c-8-1.8-16.3-2.8-24.8-2.8c-63.5,0-116,52-116,114.9  c0,9,1,18.1,3,26.6l-93.1,30.1C45.4,294.7,42.9,275.6,42.9,256z M301.9,150.6l30.6-93.9c35.6,13.6,66.5,36.4,89.9,65.5l-79.1,58.5  C332,167.9,318,157.4,301.9,150.6z M355.9,198.3l79.3-58.5c8.5,13.1,15.6,27.4,21.1,42.4l-93.1,30.4  C361.2,207.6,358.6,202.8,355.9,198.3z M256.3,346.4c-49.7,0-90.1-40.2-90.1-90.4c0-48.7,40.7-89.3,90.1-89.3  c49.4,0,89.9,40.4,89.9,89.3C346.1,305.7,305.9,346.4,256.3,346.4z M256.3,317.5c33.4,0,61-27.6,61-61.2c0-33.1-27.6-60.7-61-60.7  c-33.6,0-61.2,27.6-61.2,61C195,289.9,222.6,317.5,256.3,317.5z M256,469.3c-18.8,0-37.1-2.5-54.5-7l30.4-92.9  c7.8,1.8,16.1,2.5,24.3,2.5c63.7-0.3,115.5-52,115.5-116c0-8-0.8-15.6-2.3-23.1l93.1-30.1c4.5,17.1,6.8,34.9,6.8,53.2  C469.6,374.5,374.5,469.3,256,469.3z M256.3,289.6c-18.6-0.3-33.1-14.8-33.1-33.4c0-17.6,14.6-32.9,33.4-32.9  c17.8,0,32.6,15.1,32.6,32.9C289.1,274.8,274.3,289.9,256.3,289.6z M57.2,333.3l93.1-30.4c2.3,4.8,4.5,9.3,7.3,13.6l-79.1,58.2  C70,361.9,62.7,348.1,57.2,333.3z M91.6,392.3l79.1-58.2c11.3,12.3,25.1,22.3,40.7,28.9L181,455.8  C145.8,442.7,115.2,420.6,91.6,392.3z"/>
</svg>