<?xml version="1.0" ?><!-- Generator: Adobe Illustrator 25.0.0, SVG Export Plug-In . SVG Version: 6.00 Build 0)  --><svg xmlns="http://www.w3.org/2000/svg" xmlns:xlink="http://www.w3.org/1999/xlink" version="1.1" id="Layer_1" x="0px" y="0px" viewBox="0 0 512 512" style="enable-background:new 0 0 512 512;" xml:space="preserve">
<path d="M88.1,236.6h335.8c20.9,0,40.1,4.7,56.5,13.1l-53.2-128.4c-13.8-33.6-42.9-51.6-81.4-51.6H166.2c-38.5,0-67.6,18-81.4,51.6  L31.4,249.8C48.1,241.3,67.2,236.6,88.1,236.6z M88.1,442.2h335.8c52.1,0,88.1-35.8,88.1-87.4c0-51.6-36-87.7-88.1-87.7H88.1  C36,267.1,0,303.2,0,354.8C0,406.4,36,442.2,88.1,442.2z M82.6,354.8c0-8.9,7.3-16.2,16.5-16.2h314.4c9.1,0,16.2,7.3,16.2,16.2  s-7.1,16.5-16.2,16.5H99C89.9,371.3,82.6,363.7,82.6,354.8z"/>
</svg>