<?xml version="1.0" encoding="UTF-8"?>
<!--Generator: Apple Native CoreSVG 326-->
<!DOCTYPE svg
PUBLIC "-//W3C//DTD SVG 1.1//EN"
       "http://www.w3.org/Graphics/SVG/1.1/DTD/svg11.dtd">
<svg version="1.1" xmlns="http://www.w3.org/2000/svg" xmlns:xlink="http://www.w3.org/1999/xlink" viewBox="0 0 29.7559 21.2012">
 <g>
  <rect height="21.2012" opacity="0" width="29.7559" x="0" y="0"/>
  <path d="M5.23438 15.7324C5.23438 16.1523 5.57617 16.4941 5.99609 16.4941L23.3984 16.4941C23.8184 16.4941 24.1699 16.1523 24.1699 15.7324C24.1699 15.3125 23.8184 14.9707 23.3984 14.9707L5.99609 14.9707C5.57617 14.9707 5.23438 15.3125 5.23438 15.7324ZM0 15.7324C0 18.7988 2.39258 21.2012 5.70312 21.2012L23.7012 21.2012C27.002 21.2012 29.3945 18.7988 29.3945 15.7324C29.3945 14.8242 29.1211 13.9941 28.8086 13.2227L24.3945 2.91992C23.5938 1.01562 21.9922 0.0292969 19.873 0.0292969L9.52148 0.0292969C7.41211 0.0292969 5.81055 1.01562 5.00977 2.91992L0.585938 13.2227C0.273438 13.9844 0 14.8242 0 15.7324ZM1.72852 15.7324C1.72852 13.623 3.34961 12.002 5.70312 12.002L23.7012 12.002C26.0449 12.002 27.666 13.623 27.666 15.7324C27.666 18.0371 26.0449 19.4629 23.7012 19.4629L5.70312 19.4629C3.34961 19.4629 1.72852 17.8418 1.72852 15.7324ZM3.62305 10.7031L6.66992 3.37891C7.16797 2.16797 8.18359 1.55273 9.58008 1.55273L19.8242 1.55273C21.2109 1.55273 22.2363 2.16797 22.7246 3.37891L25.7617 10.6934C25.1465 10.4297 24.4434 10.2637 23.7012 10.2637L5.70312 10.2637C4.95117 10.2637 4.24805 10.4297 3.62305 10.7031Z" fill="black" fill-opacity="0.85"/>
 </g>
</svg>
