<?xml version="1.0" encoding="UTF-8"?>
<!--Generator: Apple Native CoreSVG 326-->
<!DOCTYPE svg
PUBLIC "-//W3C//DTD SVG 1.1//EN"
       "http://www.w3.org/Graphics/SVG/1.1/DTD/svg11.dtd">
<svg version="1.1" xmlns="http://www.w3.org/2000/svg" xmlns:xlink="http://www.w3.org/1999/xlink" viewBox="0 0 30.9766 21.4746">
 <g>
  <rect height="21.4746" opacity="0" width="30.9766" x="0" y="0"/>
  <path d="M30.6152 10.7324C30.6152 15.6348 23.5352 21.4648 15.3027 21.4648C7.08008 21.4648 0 15.6348 0 10.7324C0 5.83008 7.08008 0 15.3027 0C23.5352 0 30.6152 5.83008 30.6152 10.7324ZM21.4941 11.9727C20.9082 14.9023 18.3594 17.041 15.3027 17.041C14.0137 17.041 12.8027 16.709 11.7871 16.0059C11.6699 15.9375 11.5527 15.9082 11.416 15.9082C11.0547 15.9082 10.7812 16.1914 10.7812 16.5625C10.7812 16.7676 10.8691 16.9629 11.0645 17.1094C12.2754 17.9297 13.7305 18.3691 15.3027 18.3691C20.3906 18.3691 22.7539 13.8184 22.793 12.0898C22.793 11.748 22.5 11.4453 22.1484 11.4453C21.8359 11.4453 21.543 11.6797 21.4941 11.9727ZM10.4297 10.7617C10.4297 13.4375 12.5488 15.5762 15.3027 15.5762C16.5137 15.5762 17.5879 15.1562 18.418 14.4434C18.6133 14.2871 18.7012 14.0918 18.7012 13.9062C18.7012 13.5449 18.3984 13.252 18.0469 13.252C17.8809 13.252 17.7246 13.3105 17.5977 13.4277C17.041 13.9551 16.2402 14.2578 15.3613 14.2578C13.3008 14.2578 11.7578 12.627 11.7578 10.7129C11.7578 9.16992 12.7344 7.88086 14.1309 7.38281C14.3945 7.29492 14.5801 7.03125 14.5801 6.77734C14.5801 6.40625 14.2773 6.11328 13.916 6.11328C12.7734 6.11328 10.4297 8.04688 10.4297 10.7617ZM8.92578 6.48438C8.10547 7.71484 7.66602 9.16016 7.66602 10.7324C7.66602 12.2949 8.10547 13.75 8.91602 14.9512C9.05273 15.1562 9.25781 15.2441 9.46289 15.2441C9.78516 15.2441 10.127 15.0195 10.127 14.5801C10.127 14.4531 10.0879 14.3262 10.0098 14.1992C9.32617 13.2324 8.98438 12.0215 8.98438 10.7324C8.98438 9.44336 9.3457 8.24219 10.0098 7.25586C10.0977 7.11914 10.1367 6.98242 10.1367 6.85547C10.1367 6.46484 9.83398 6.20117 9.47266 6.20117C9.26758 6.20117 9.0625 6.28906 8.92578 6.48438ZM13.2422 10.7324C13.2422 11.8652 14.1504 12.7832 15.293 12.7832C16.4355 12.7832 17.3633 11.8652 17.3633 10.7324C17.3633 9.58984 16.4355 8.67188 15.293 8.67188C14.1504 8.67188 13.2422 9.58984 13.2422 10.7324ZM16.0254 6.77734C16.0254 7.03125 16.2109 7.29492 16.4746 7.38281C17.8516 7.88086 18.8379 9.16992 18.8379 10.7324C18.8379 10.9375 18.7695 11.3086 18.7695 11.4746C18.7598 11.9141 19.043 12.1582 19.4336 12.1582C19.8633 12.1582 20.0391 11.9043 20.0977 11.5527C20.1367 11.3379 20.1465 11.0352 20.1465 10.7324C20.1465 7.99805 17.8125 6.11328 16.709 6.11328C16.3281 6.11328 16.0254 6.40625 16.0254 6.77734ZM11.0645 4.35547C10.8594 4.50195 10.7715 4.70703 10.7715 4.91211C10.7715 5.2832 11.0547 5.58594 11.4355 5.58594C11.5527 5.58594 11.6992 5.54688 11.8262 5.45898C12.8125 4.79492 14.0234 4.41406 15.3027 4.41406C18.3594 4.41406 20.8691 6.5625 21.5039 9.49219C21.5527 9.78516 21.8359 10.0293 22.1484 10.0293C22.5293 10.0293 22.8027 9.73633 22.8027 9.375C22.7344 7.57812 20.3418 3.08594 15.3027 3.08594C13.7305 3.08594 12.2754 3.53516 11.0645 4.35547Z" fill="black" fill-opacity="0.85"/>
 </g>
</svg>
