<?xml version="1.0" encoding="UTF-8"?>
<!--Generator: Apple Native CoreSVG 326-->
<!DOCTYPE svg
PUBLIC "-//W3C//DTD SVG 1.1//EN"
       "http://www.w3.org/Graphics/SVG/1.1/DTD/svg11.dtd">
<svg version="1.1" xmlns="http://www.w3.org/2000/svg" xmlns:xlink="http://www.w3.org/1999/xlink" viewBox="0 0 30.9766 21.4746">
 <g>
  <rect height="21.4746" opacity="0" width="30.9766" x="0" y="0"/>
  <path d="M15.3027 21.4648C23.5352 21.4648 30.6152 15.6348 30.6152 10.7324C30.6152 5.83008 23.5352 0 15.3027 0C7.08008 0 0 5.83008 0 10.7324C0 15.6348 7.08008 21.4648 15.3027 21.4648ZM15.3027 19.873C7.45117 19.873 1.60156 14.3262 1.60156 10.7324C1.60156 7.12891 7.45117 1.5918 15.3027 1.5918C23.1641 1.5918 29.0332 7.12891 29.0332 10.7324C29.0332 14.3262 23.1641 19.873 15.3027 19.873Z" fill="black" fill-opacity="0.85"/>
  <path d="M15.3027 18.1836C20.2637 18.1836 22.5684 13.7402 22.5977 12.0605C22.6074 11.7285 22.3242 11.4355 21.9824 11.4355C21.6797 11.4355 21.3965 11.6602 21.3379 11.9434C20.7715 14.8047 18.291 16.8945 15.3027 16.8945C14.043 16.8945 12.8613 16.5625 11.8652 15.8887C11.748 15.8203 11.6406 15.7812 11.5039 15.7812C11.1523 15.7812 10.8887 16.0645 10.8887 16.4258C10.8887 16.6211 10.9766 16.8164 11.1621 16.9434C12.3438 17.7441 13.7695 18.1836 15.3027 18.1836ZM7.85156 10.7324C7.85156 12.2559 8.28125 13.6621 9.07227 14.8438C9.19922 15.0391 9.4043 15.127 9.59961 15.127C9.91211 15.127 10.2441 14.9121 10.2441 14.4922C10.2441 14.3555 10.2051 14.2383 10.127 14.1211C9.47266 13.1738 9.13086 11.9922 9.13086 10.7324C9.13086 9.47266 9.48242 8.30078 10.127 7.33398C10.2148 7.20703 10.2539 7.07031 10.2539 6.94336C10.2539 6.57227 9.96094 6.30859 9.60938 6.30859C9.41406 6.30859 9.20898 6.39648 9.08203 6.5918C8.28125 7.79297 7.85156 9.19922 7.85156 10.7324ZM15.3027 3.28125C13.7695 3.28125 12.3438 3.7207 11.1621 4.52148C10.9668 4.64844 10.8789 4.85352 10.8789 5.04883C10.8789 5.41016 11.1523 5.71289 11.5234 5.71289C11.6504 5.71289 11.7773 5.66406 11.9043 5.58594C12.8711 4.93164 14.0527 4.56055 15.3027 4.56055C18.291 4.56055 20.7422 6.66016 21.3574 9.52148C21.4062 9.80469 21.6699 10.0391 21.9824 10.0391C22.3535 10.0391 22.6172 9.75586 22.6172 9.4043C22.5488 7.65625 20.2148 3.28125 15.3027 3.28125Z" fill="black" fill-opacity="0.85"/>
  <path d="M15.3027 15.459C16.4844 15.459 17.5293 15.0391 18.3398 14.3555C18.5156 14.1992 18.6035 14.0137 18.6035 13.8281C18.6035 13.4766 18.3105 13.1934 17.9688 13.1934C17.8125 13.1934 17.666 13.252 17.5488 13.3691C17.002 13.8867 16.2207 14.1797 15.3613 14.1797C13.3398 14.1797 11.8359 12.5879 11.8359 10.7129C11.8359 9.20898 12.793 7.94922 14.1504 7.46094C14.4141 7.37305 14.5898 7.11914 14.5898 6.875C14.5898 6.51367 14.2969 6.23047 13.9453 6.23047C12.832 6.23047 10.5469 8.125 10.5469 10.7617C10.5469 13.3691 12.6172 15.459 15.3027 15.459ZM20.0195 10.7324C20.0195 8.07617 17.7539 6.23047 16.6699 6.23047C16.3086 6.23047 16.0156 6.51367 16.0156 6.875C16.0156 7.11914 16.1914 7.37305 16.4453 7.46094C17.793 7.94922 18.75 9.20898 18.75 10.7324C18.75 10.9375 18.6914 11.2988 18.6816 11.4551C18.6816 11.8848 18.9551 12.1191 19.3359 12.1191C19.7461 12.1191 19.9219 11.875 19.9805 11.5332C20.0195 11.3281 20.0195 11.0254 20.0195 10.7324Z" fill="black" fill-opacity="0.85"/>
  <path d="M15.293 12.7344C16.4062 12.7344 17.2949 11.8359 17.2949 10.7324C17.2949 9.61914 16.4062 8.7207 15.293 8.7207C14.1797 8.7207 13.291 9.61914 13.291 10.7324C13.291 11.8359 14.1797 12.7344 15.293 12.7344Z" fill="black" fill-opacity="0.85"/>
 </g>
</svg>
