<?xml version="1.0" ?><!-- Generator: Adobe Illustrator 25.0.0, SVG Export Plug-In . SVG Version: 6.00 Build 0)  --><svg xmlns="http://www.w3.org/2000/svg" xmlns:xlink="http://www.w3.org/1999/xlink" version="1.1" id="Layer_1" x="0px" y="0px" viewBox="0 0 512 512" style="enable-background:new 0 0 512 512;" xml:space="preserve">
<path d="M256,0c-29.2,0-55.9,6.2-79.9,18.7c-24,12.5-44.8,30.1-62.3,52.9c-17.5,22.8-31,49.8-40.5,81.1C63.8,183.9,59,218.4,59,256  c0,37.5,4.7,71.9,14.2,103.2c9.5,31.3,23,58.4,40.5,81.2c17.5,22.8,38.3,40.5,62.3,52.9c24,12.5,50.7,18.7,79.9,18.7  c29.1,0,55.7-6.2,79.8-18.7c24.1-12.5,44.9-30.1,62.4-52.9c17.5-22.8,31-49.9,40.5-81.2c9.5-31.3,14.2-65.7,14.2-103.2  c0-37.5-4.7-71.9-14.2-103.2c-9.5-31.3-23-58.4-40.5-81.2c-17.5-22.8-38.4-40.5-62.4-52.9C311.7,6.2,285.1,0,256,0z M256,34.4v443.1  c-24.1,0-46.1-5.4-66-16.3c-19.9-10.8-37-26.1-51.4-45.9c-14.4-19.7-25.5-43.1-33.4-70.1c-7.8-27-11.8-56.8-11.8-89.3  s3.9-62.3,11.8-89.4c7.8-27.1,19-50.5,33.4-70.3c14.4-19.7,31.5-35,51.4-45.8C209.9,39.8,231.9,34.4,256,34.4z"/>
</svg>