<?xml version="1.0" ?><!-- Generator: Adobe Illustrator 25.0.0, SVG Export Plug-In . SVG Version: 6.00 Build 0)  --><svg xmlns="http://www.w3.org/2000/svg" xmlns:xlink="http://www.w3.org/1999/xlink" version="1.1" id="Layer_1" x="0px" y="0px" viewBox="0 0 512 512" style="enable-background:new 0 0 512 512;" xml:space="preserve">
<path d="M256,512c140,0,256-116.2,256-256C512,116,395.8,0,255.7,0C116,0,0,116,0,256C0,395.8,116.2,512,256,512z M200.3,374.7  c-13.3,0-20.6-9.8-20.6-23.6v-192c0-14.1,7-23.6,20.3-23.6h72.3c50.2,0,84.3,32.1,84.3,79.8c0,47.7-33.9,79.3-84.6,79.3h-50.7v56.5  C221.4,365.4,214.1,374.7,200.3,374.7z M221.4,263h45.2c30.4,0,48.9-18.3,48.9-47.7c0-29.6-18.8-47.9-48.9-47.9h-45.2V263z"/>
</svg>