<?xml version="1.0" ?><!-- Generator: Adobe Illustrator 25.0.0, SVG Export Plug-In . SVG Version: 6.00 Build 0)  --><svg xmlns="http://www.w3.org/2000/svg" xmlns:xlink="http://www.w3.org/1999/xlink" version="1.1" id="Layer_1" x="0px" y="0px" viewBox="0 0 512 512" style="enable-background:new 0 0 512 512;" xml:space="preserve">
<path d="M256,512c140,0,256-116.2,256-256C512,116,395.8,0,255.7,0C116,0,0,116,0,256C0,395.8,116.2,512,256,512z M256,469.3  c-118.5,0-213.1-94.9-213.1-213.3S137.3,42.7,255.7,42.7S469.1,137.5,469.3,256S374.5,469.3,256,469.3z M201.8,370.9  c13.3,0,20.3-8.5,20.3-22.3v-55h49.4c48.9,0,81.8-30.6,81.8-77.1c0-45.9-33.1-77.3-81.6-77.3h-70.3c-12.8,0-19.6,9.3-19.6,22.6  v186.7C182,361.9,189,370.9,201.8,370.9z M222.1,263v-93.1H266c29.4,0,47.7,17.8,47.7,46.7c0,28.6-18.1,46.4-47.7,46.4H222.1z"/>
</svg>