<?xml version="1.0" encoding="UTF-8"?>
<!--Generator: Apple Native CoreSVG 326-->
<!DOCTYPE svg
PUBLIC "-//W3C//DTD SVG 1.1//EN"
       "http://www.w3.org/Graphics/SVG/1.1/DTD/svg11.dtd">
<svg version="1.1" xmlns="http://www.w3.org/2000/svg" xmlns:xlink="http://www.w3.org/1999/xlink" viewBox="0 0 29.6387 22.2949">
 <g>
  <rect height="22.2949" opacity="0" width="29.6387" x="0" y="0"/>
  <path d="M9.59961 22.2754L19.6777 22.2754C26.8164 22.2754 29.2773 19.6094 29.2773 13.0371L29.2773 9.23828C29.2773 2.66602 26.8164 0 19.6777 0L9.59961 0C2.46094 0 0 2.66602 0 9.23828L0 13.0371C0 19.6094 2.46094 22.2754 9.59961 22.2754ZM9.59961 20.5469C3.61328 20.5469 1.72852 18.5352 1.72852 13.0371L1.72852 9.23828C1.72852 3.74023 3.61328 1.73828 9.59961 1.73828L19.6777 1.73828C25.6641 1.73828 27.5488 3.74023 27.5488 9.23828L27.5488 13.0371C27.5488 18.5352 25.6641 20.5469 19.6777 20.5469Z" fill="black" fill-opacity="0.85"/>
  <path d="M9.01367 16.3574C9.55078 16.3574 9.81445 16.0254 9.81445 15.5273L9.81445 12.7344L11.2402 12.7344C13.1152 12.7344 14.209 11.2891 14.209 9.38477C14.209 7.5 13.1348 6.03516 11.3281 6.03516L9.00391 6.03516C8.55469 6.03516 8.21289 6.32812 8.21289 6.875L8.21289 15.5273C8.21289 16.0449 8.49609 16.3574 9.01367 16.3574ZM9.81445 11.4453L9.81445 7.34375L10.9277 7.34375C12.0605 7.34375 12.6074 8.1543 12.6074 9.38477C12.6074 10.5664 12.0996 11.4453 10.918 11.4453ZM16.2402 16.2402L20.6055 16.2402C20.9961 16.2402 21.2402 15.9766 21.2402 15.5859C21.2402 15.1758 20.9863 14.9316 20.6055 14.9316L17.4609 14.9316L17.4609 14.8438L19.4434 12.2559C20.6348 10.7324 21.0352 9.80469 21.0352 8.71094C21.0352 7.04102 19.9512 5.80078 18.252 5.80078C16.6699 5.80078 15.5176 7.13867 15.5176 8.45703C15.5176 8.85742 15.752 9.15039 16.1816 9.15039C16.543 9.15039 16.7676 8.98438 16.875 8.62305C17.0996 7.69531 17.4512 7.08984 18.2422 7.08984C19.1016 7.08984 19.541 7.87109 19.541 8.7793C19.541 9.77539 18.9258 10.752 18.2227 11.6699L15.8984 14.7168C15.6934 14.9805 15.498 15.2539 15.498 15.5859C15.498 15.9668 15.752 16.2402 16.2402 16.2402Z" fill="black" fill-opacity="0.85"/>
 </g>
</svg>
