<?xml version="1.0" encoding="UTF-8"?>
<!--Generator: Apple Native CoreSVG 326-->
<!DOCTYPE svg
PUBLIC "-//W3C//DTD SVG 1.1//EN"
       "http://www.w3.org/Graphics/SVG/1.1/DTD/svg11.dtd">
<svg version="1.1" xmlns="http://www.w3.org/2000/svg" xmlns:xlink="http://www.w3.org/1999/xlink" viewBox="0 0 29.6387 22.2949">
 <g>
  <rect height="22.2949" opacity="0" width="29.6387" x="0" y="0"/>
  <path d="M29.2773 9.23828L29.2773 13.0371C29.2773 19.6094 26.8164 22.2754 19.6777 22.2754L9.59961 22.2754C2.46094 22.2754 0 19.6094 0 13.0371L0 9.23828C0 2.66602 2.46094 0 9.59961 0L19.6777 0C26.8164 0 29.2773 2.66602 29.2773 9.23828ZM8.85742 5.89844C8.39844 5.89844 8.04688 6.21094 8.04688 6.77734L8.04688 15.625C8.04688 16.1621 8.33984 16.4844 8.86719 16.4844C9.42383 16.4844 9.69727 16.1523 9.69727 15.625L9.69727 12.7832L11.1523 12.7832C13.0762 12.7832 14.1992 11.2988 14.1992 9.3457C14.1992 7.41211 13.0859 5.89844 11.2402 5.89844ZM15.5371 8.38867C15.5371 8.79883 15.7812 9.11133 16.2207 9.11133C16.5918 9.11133 16.8262 8.93555 16.9336 8.56445C17.168 7.61719 17.5293 7.00195 18.3398 7.00195C19.209 7.00195 19.6582 7.79297 19.6582 8.7207C19.6582 9.74609 19.0234 10.752 18.3008 11.6895L15.9277 14.7949C15.7227 15.0684 15.5176 15.3516 15.5176 15.7031C15.5176 16.084 15.7812 16.3672 16.2793 16.3672L20.752 16.3672C21.1621 16.3672 21.4062 16.0938 21.4062 15.6934C21.4062 15.2637 21.1426 15.0195 20.752 15.0195L17.5391 15.0195L17.5391 14.9219L19.5605 12.2852C20.8008 10.7227 21.2012 9.77539 21.2012 8.65234C21.2012 6.94336 20.0977 5.67383 18.3398 5.67383C16.7285 5.67383 15.5371 7.04102 15.5371 8.38867ZM12.5488 9.3457C12.5488 10.5566 12.0312 11.4551 10.8203 11.4551L9.69727 11.4551L9.69727 7.26562L10.8301 7.26562C11.9824 7.26562 12.5488 8.08594 12.5488 9.3457Z" fill="black" fill-opacity="0.85"/>
 </g>
</svg>
