<?xml version="1.0" encoding="UTF-8"?>
<!--Generator: Apple Native CoreSVG 326-->
<!DOCTYPE svg
PUBLIC "-//W3C//DTD SVG 1.1//EN"
       "http://www.w3.org/Graphics/SVG/1.1/DTD/svg11.dtd">
<svg version="1.1" xmlns="http://www.w3.org/2000/svg" xmlns:xlink="http://www.w3.org/1999/xlink" viewBox="0 0 29.6387 22.2949">
 <g>
  <rect height="22.2949" opacity="0" width="29.6387" x="0" y="0"/>
  <path d="M9.59961 22.2754L19.6777 22.2754C26.8164 22.2754 29.2773 19.6094 29.2773 13.0371L29.2773 9.23828C29.2773 2.66602 26.8164 0 19.6777 0L9.59961 0C2.46094 0 0 2.66602 0 9.23828L0 13.0371C0 19.6094 2.46094 22.2754 9.59961 22.2754ZM9.59961 20.5469C3.61328 20.5469 1.72852 18.5352 1.72852 13.0371L1.72852 9.23828C1.72852 3.74023 3.61328 1.73828 9.59961 1.73828L19.6777 1.73828C25.6641 1.73828 27.5488 3.74023 27.5488 9.23828L27.5488 13.0371C27.5488 18.5352 25.6641 20.5469 19.6777 20.5469Z" fill="black" fill-opacity="0.85"/>
  <path d="M8.97461 16.3574C9.51172 16.3574 9.77539 16.0254 9.77539 15.5273L9.77539 12.7344L11.2012 12.7344C13.0762 12.7344 14.1699 11.2891 14.1699 9.38477C14.1699 7.5 13.0859 6.03516 11.2891 6.03516L8.96484 6.03516C8.51562 6.03516 8.17383 6.32812 8.17383 6.875L8.17383 15.5273C8.17383 16.0449 8.45703 16.3574 8.97461 16.3574ZM9.77539 11.4453L9.77539 7.34375L10.8887 7.34375C12.0215 7.34375 12.5684 8.1543 12.5684 9.38477C12.5684 10.5664 12.0605 11.4453 10.8789 11.4453ZM19.8145 16.3867C20.2246 16.3867 20.5664 16.1133 20.5664 15.5957L20.5664 14.1406L21.1035 14.1406C21.5234 14.1406 21.7383 13.8672 21.7383 13.4863C21.7383 13.125 21.5332 12.8516 21.1035 12.8516L20.5664 12.8516L20.5664 7.08008C20.5664 6.29883 20.0488 5.88867 19.3457 5.88867C18.5742 5.88867 18.2129 6.28906 17.8906 6.98242L15.4395 12.168C15.2539 12.5977 15.1855 12.8809 15.1855 13.2324C15.1855 13.7695 15.5566 14.1406 16.1133 14.1406L19.0527 14.1406L19.0527 15.5957C19.0527 16.1719 19.4531 16.3867 19.8145 16.3867ZM19.082 12.8809L16.5527 12.8809L16.5527 12.8125L19.0332 7.33398L19.082 7.33398Z" fill="black" fill-opacity="0.85"/>
 </g>
</svg>
