<?xml version="1.0" encoding="UTF-8"?>
<!--Generator: Apple Native CoreSVG 326-->
<!DOCTYPE svg
PUBLIC "-//W3C//DTD SVG 1.1//EN"
       "http://www.w3.org/Graphics/SVG/1.1/DTD/svg11.dtd">
<svg version="1.1" xmlns="http://www.w3.org/2000/svg" xmlns:xlink="http://www.w3.org/1999/xlink" viewBox="0 0 18.8477 32.9664">
 <g>
  <rect height="32.9664" opacity="0" width="18.8477" x="0" y="0"/>
  <path d="M18.4863 19.1541C18.4863 13.9881 16.4746 6.81036 11.3379 1.41973C10.2051 0.257625 8.66211-0.425969 6.83594 0.296688L5.61523 0.765438C3.48633 1.61505 2.85156 3.09942 3.74023 5.14044C5.71289 9.62286 6.21094 12.8748 6.21094 15.6775C6.21094 16.8201 5.6543 17.4744 4.51172 17.4744L1.41602 17.4744C0.585938 17.4744 0 18.0897 0 18.9588L0 22.1229C0 22.9236 0.517578 23.4998 1.25977 23.4998L3.58398 23.4998C4.31641 23.4998 4.75586 23.8904 4.75586 24.5154C4.75586 25.0818 4.41406 25.8436 4.41406 26.7811C4.41406 28.7244 5.42969 30.0916 7.65625 31.1658L10.1074 32.367C12.207 33.3826 14.1895 32.826 15.3809 30.9022C17.5684 27.3084 18.4863 23.7342 18.4863 19.1541ZM16.7578 19.1541C16.7578 23.5291 15.957 26.6248 13.9062 30.0037C13.1836 31.1561 11.9922 31.4686 10.7129 30.824L8.47656 29.6912C6.62109 28.7635 6.05469 27.992 6.05469 26.5076C6.05469 24.8084 7.95898 20.5897 7.95898 14.9744C7.95898 12.9236 7.51953 9.34942 5.33203 4.45684C4.89258 3.49981 5.15625 2.77716 6.11328 2.41583L7.35352 1.94708C8.63281 1.46856 9.25781 1.75177 10.0391 2.54278C14.9902 7.72833 16.7578 14.3592 16.7578 19.1541Z" fill="black" fill-opacity="0.85"/>
 </g>
</svg>
