<?xml version="1.0" encoding="UTF-8"?>
<!--Generator: Apple Native CoreSVG 326-->
<!DOCTYPE svg
PUBLIC "-//W3C//DTD SVG 1.1//EN"
       "http://www.w3.org/Graphics/SVG/1.1/DTD/svg11.dtd">
<svg version="1.1" xmlns="http://www.w3.org/2000/svg" xmlns:xlink="http://www.w3.org/1999/xlink" viewBox="0 0 18.8477 32.9664">
 <g>
  <rect height="32.9664" opacity="0" width="18.8477" x="0" y="0"/>
  <path d="M0 19.1541C0 23.7342 0.917969 27.3084 3.10547 30.9022C4.29688 32.826 6.2793 33.3826 8.37891 32.367L10.8301 31.1658C13.0566 30.0916 14.0723 28.7244 14.0723 26.7811C14.0723 25.8436 13.7305 25.0818 13.7305 24.5154C13.7305 23.8904 14.1699 23.4998 14.9023 23.4998L17.2266 23.4998C17.9688 23.4998 18.4863 22.9236 18.4863 22.1229L18.4863 18.9588C18.4863 18.0897 17.9004 17.4744 17.0703 17.4744L13.9746 17.4744C12.832 17.4744 12.2754 16.8201 12.2754 15.6775C12.2754 12.8748 12.7734 9.62286 14.7461 5.14044C15.6348 3.09942 15 1.61505 12.8711 0.765438L11.6504 0.296688C9.82422-0.425969 8.28125 0.257625 7.14844 1.41973C2.01172 6.81036 0 13.9881 0 19.1541ZM1.72852 19.1541C1.72852 14.3592 3.49609 7.72833 8.44727 2.54278C9.22852 1.75177 9.85352 1.46856 11.1328 1.94708L12.373 2.41583C13.3301 2.77716 13.5938 3.49981 13.1543 4.45684C10.9668 9.34942 10.5273 12.9236 10.5273 14.9744C10.5273 20.5897 12.4316 24.8084 12.4316 26.5076C12.4316 27.992 11.8652 28.7635 10.0098 29.6912L7.77344 30.824C6.49414 31.4686 5.30273 31.1561 4.58008 30.0037C2.5293 26.6248 1.72852 23.5291 1.72852 19.1541Z" fill="black" fill-opacity="0.85"/>
 </g>
</svg>
