<?xml version="1.0" ?><!-- Generator: Adobe Illustrator 25.0.0, SVG Export Plug-In . SVG Version: 6.00 Build 0)  --><svg xmlns="http://www.w3.org/2000/svg" xmlns:xlink="http://www.w3.org/1999/xlink" version="1.1" id="Layer_1" x="0px" y="0px" viewBox="0 0 512 512" style="enable-background:new 0 0 512 512;" xml:space="preserve">
<path d="M275,468.9c89.5,0,149.2-31.7,149.2-78.4c0-41.9-35.7-51.2-35.7-75.9c0-34,123.5-40.8,123.5-128.2  c0-86.3-89.1-143.2-221.2-143.2C117.1,43.1,0,129.9,0,259.7C0,384.7,111.2,468.9,275,468.9z M295.4,176.8  c-19.6,0-36.1-15.9-36.1-35.7c0-19.8,16.6-35.7,36.1-35.7c20,0,35.7,15.9,35.7,35.7C331.1,160.9,315.4,176.8,295.4,176.8z   M182.1,210.4c-25.1,0-45.1-19.6-45.1-44.6c0-24.4,20-44,45.1-44c24.2,0,44.4,19.6,44.4,44C226.6,190.9,206.6,210.4,182.1,210.4z   M395.5,195.5c-16.2,0-29.3-12.8-29.3-28.9c0-15.9,13.2-29.1,29.3-29.1c15.9,0,28.7,13.2,28.7,29.1  C424.2,182.8,411.5,195.5,395.5,195.5z M100.5,285.6C81,285.6,65,269.5,65,249.9c0-18.7,16.8-35.1,35.5-35.1  c19.6,0,35.1,15.5,35.1,35.1C135.6,269.5,119.9,285.6,100.5,285.6z M270.3,387.7c-31,0-56.5-25.3-56.5-56.5  c0-31,25.5-56.5,56.5-56.5c31.2,0,56.7,25.5,56.7,56.5C327.1,362.4,301.6,387.7,270.3,387.7z"/>
</svg>