<?xml version="1.0" ?><!-- Generator: Adobe Illustrator 25.0.0, SVG Export Plug-In . SVG Version: 6.00 Build 0)  --><svg xmlns="http://www.w3.org/2000/svg" xmlns:xlink="http://www.w3.org/1999/xlink" version="1.1" id="Layer_1" x="0px" y="0px" viewBox="0 0 512 512" style="enable-background:new 0 0 512 512;" xml:space="preserve">
<path d="M445.5,27.1c-12,8.7-143.2,98.6-223.6,169.6c53.3,16.7,95,58.3,112,112.3C405.4,228.5,495,97.6,503.8,85.4  C531.6,46.4,483-0.7,445.5,27.1z M223.1,307.5c17.2,17.2,30.2,40.1,33.3,58.7c19.1-3.1,34.4-12,50.5-28.1c2.6-2.4,5-5,7.3-7.8  c-10.4-56.8-57.8-103.5-113.7-113.9c-2.8,2.4-5.4,5-8,7.5c-16,16-24.8,31.8-27.8,50.5C183,277.6,206.1,290.3,223.1,307.5z   M5.2,435.8c39.4,56.6,126.4,75.9,182.1,37.3c48.1-33.5,58.7-85.4,26.9-130.7c-28.5-41-80.2-52.6-114.1-28.3  c-39.1,27.8-23.3,66-47.4,83c-20,14.4-34,5.4-45.5,13.2C-0.5,415.1-3.3,424,5.2,435.8z"/>
</svg>