<?xml version="1.0" ?><!-- Generator: Adobe Illustrator 25.0.0, SVG Export Plug-In . SVG Version: 6.00 Build 0)  --><svg xmlns="http://www.w3.org/2000/svg" xmlns:xlink="http://www.w3.org/1999/xlink" version="1.1" id="Layer_1" x="0px" y="0px" viewBox="0 0 512 512" style="enable-background:new 0 0 512 512;" xml:space="preserve">
<path d="M275,468.9c89.5,0,149.2-31.7,149.2-78.4c0-41.9-35.7-51.2-35.7-75.9c0-34,123.5-40.8,123.5-128.2  c0-86.3-89.1-143.2-221.2-143.2C117.1,43.1,0,129.9,0,259.7C0,384.7,111.2,468.9,275,468.9z M275,432.5  c-143.9,0-238.7-69.3-238.7-172.8c0-108.4,100.7-180.2,254.4-180.2c111.6,0,184.9,43.4,184.9,106.9c0,74.2-124.3,64.2-124.3,128.4  c0,36.3,36.6,47.8,36.6,72.9C387.9,414.7,343.5,432.5,275,432.5z M292.7,186.4c20,0,35.7-15.9,35.7-35.9c0-19.8-15.7-35.7-35.7-35.7  c-19.6,0-35.9,15.9-35.9,35.7C256.7,170.5,273.1,186.4,292.7,186.4z M185.1,220.8c24.4,0,44.4-19.8,44.4-44.8  c0-24.4-20.2-44-44.4-44c-25.1,0-45.1,19.6-45.1,44C140.1,201.1,160,220.8,185.1,220.8z M389.8,200c15.9,0,28.7-13,28.7-29.1  c0-15.9-12.8-28.9-28.7-28.9c-16.2,0-29.3,13-29.3,28.9C360.5,187,373.6,200,389.8,200z M107.3,288.8c19.6,0,35.3-16.2,35.3-35.7  c0-19.6-15.5-35.3-35.3-35.3c-19.3,0-35.3,15.7-35.3,35.3C72.1,272.7,88,288.8,107.3,288.8z M257.6,382.4  c32.3,0,58.9-26.6,58.9-59.1c0-32.1-26.6-58.7-58.9-58.7s-58.9,26.6-58.9,58.7C198.7,355.8,225.3,382.4,257.6,382.4z M257.6,357.7  c-18.9,0-34.2-15.3-34.2-34.4c0-21,16.2-33.6,33.8-33.8c18.1-0.2,34.6,12.1,34.6,33.8C291.8,342.4,276.7,357.7,257.6,357.7z"/>
</svg>