<?xml version="1.0" encoding="UTF-8"?>
<!--Generator: Apple Native CoreSVG 326-->
<!DOCTYPE svg
PUBLIC "-//W3C//DTD SVG 1.1//EN"
       "http://www.w3.org/Graphics/SVG/1.1/DTD/svg11.dtd">
<svg version="1.1" xmlns="http://www.w3.org/2000/svg" xmlns:xlink="http://www.w3.org/1999/xlink" viewBox="0 0 30.3809 25.166">
 <g>
  <rect height="25.166" opacity="0" width="30.3809" x="0" y="0"/>
  <path d="M16.1426 24.9121C21.3379 24.9121 24.834 23.0957 24.834 20.4199C24.834 17.9785 22.6953 17.5 22.6953 15.9375C22.6953 13.7305 30.0195 13.5254 30.0195 8.33008C30.0195 3.31055 24.8242 0 17.0801 0C6.875 0 0 5.07812 0 12.6758C0 19.9902 6.51367 24.9121 16.1426 24.9121ZM16.1426 23.0762C7.51953 23.0762 1.82617 18.9062 1.82617 12.6758C1.82617 6.16211 7.87109 1.82617 17.0801 1.82617C23.7793 1.82617 28.1934 4.45312 28.1934 8.33008C28.1934 12.832 20.8301 12.1973 20.8301 15.9668C20.8301 18.0957 22.998 18.7207 22.998 20.2637C22.998 21.9824 20.3223 23.0762 16.1426 23.0762ZM15.1074 20.0293C17.0801 20.0293 18.6914 18.418 18.6914 16.4551C18.6914 14.4922 17.0801 12.8809 15.1074 12.8809C13.1445 12.8809 11.5332 14.4922 11.5332 16.4551C11.5332 18.418 13.1445 20.0293 15.1074 20.0293ZM15.1074 18.75C13.8379 18.75 12.8125 17.7246 12.8125 16.4551C12.8125 15.0879 13.877 14.1797 15.0879 14.1699C16.3184 14.1602 17.4023 15.0586 17.4023 16.4551C17.4023 17.7246 16.3867 18.75 15.1074 18.75Z" fill="black" fill-opacity="0.85"/>
  <path d="M6.21094 14.3066C7.30469 14.3066 8.20312 13.3887 8.20312 12.2852C8.20312 11.1719 7.31445 10.293 6.21094 10.293C5.09766 10.293 4.19922 11.1816 4.19922 12.2852C4.19922 13.3887 5.10742 14.3066 6.21094 14.3066Z" fill="black" fill-opacity="0.85"/>
  <path d="M10.8105 10.332C12.2461 10.332 13.418 9.18945 13.418 7.71484C13.418 6.2793 12.2363 5.13672 10.8105 5.13672C9.3457 5.13672 8.16406 6.2793 8.16406 7.71484C8.16406 9.18945 9.3457 10.332 10.8105 10.332Z" fill="black" fill-opacity="0.85"/>
  <path d="M17.1875 8.26172C18.3398 8.26172 19.248 7.34375 19.248 6.20117C19.248 5.06836 18.3398 4.15039 17.1875 4.15039C16.0645 4.15039 15.1172 5.06836 15.1172 6.20117C15.1172 7.34375 16.0645 8.26172 17.1875 8.26172Z" fill="black" fill-opacity="0.85"/>
  <path d="M22.959 9.05273C23.8574 9.05273 24.5801 8.33008 24.5801 7.41211C24.5801 6.50391 23.8477 5.77148 22.959 5.77148C22.0312 5.77148 21.2891 6.50391 21.2891 7.41211C21.2891 8.33008 22.0312 9.05273 22.959 9.05273Z" fill="black" fill-opacity="0.85"/>
 </g>
</svg>
