<?xml version="1.0" ?><!-- Generator: Adobe Illustrator 25.0.0, SVG Export Plug-In . SVG Version: 6.00 Build 0)  --><svg xmlns="http://www.w3.org/2000/svg" xmlns:xlink="http://www.w3.org/1999/xlink" version="1.1" id="Layer_1" x="0px" y="0px" viewBox="0 0 512 512" style="enable-background:new 0 0 512 512;" xml:space="preserve">
<path d="M382.4,345.3l83.7-83.7c23.9-23.9,23.3-52.4-1.1-77.2l-11-11.2c-22.4,29.1-86.5,63.2-98.7,50.9c-1.9-1.9-2.2-5.8,0.6-8.8  c26.1-26.1,43.1-51.5,47-92.9L292,11.3c-20.5-20.5-56.1-13.8-65.8,25c-13.6,55.2-25.9,87.3-39.2,113.8L382.4,345.3z M54,486.3  c33.6,33.9,77.2,34.3,110.4,1.1c26.5-26.5,52.2-86.5,71.8-116.4l52.2,52.4c16,16.2,35.4,16.2,50.5,0.6l18.5-18.5  c15.7-16,15.5-34.1-0.6-50.2L185.3,183.6c-16.4-16.2-34.7-16.4-50.5-0.6l-18.5,18.5c-15.5,15.5-15.5,34.3,0.6,50.5l52.2,52.2  c-29.8,19.6-89.5,45.3-116.2,71.8C19.9,409.1,20.2,452.9,54,486.3z M111.6,458.3c-14.9,0-26.7-12.1-26.7-26.7S96.7,405,111.6,405  c14.7,0,26.5,11.9,26.5,26.5S126.2,458.3,111.6,458.3z"/>
</svg>