<?xml version="1.0" encoding="UTF-8"?>
<!--Generator: Apple Native CoreSVG 326-->
<!DOCTYPE svg
PUBLIC "-//W3C//DTD SVG 1.1//EN"
       "http://www.w3.org/Graphics/SVG/1.1/DTD/svg11.dtd">
<svg version="1.1" xmlns="http://www.w3.org/2000/svg" xmlns:xlink="http://www.w3.org/1999/xlink" viewBox="0 0 27.6663 25.5495">
 <g>
  <rect height="25.5495" opacity="0" width="27.6663" x="0" y="0"/>
  <path d="M0.41029 22.7503C2.74427 25.7972 7.63685 26.471 10.5079 24.2054C12.9201 22.3206 13.4376 19.3812 11.4747 16.93C9.71693 14.6741 7.09974 14.1566 5.13685 15.7093C3.31068 17.1546 3.94545 19.1175 2.89076 19.9573C2.03138 20.6214 1.09388 20.2406 0.429821 20.7874C-0.0584601 21.1878-0.21471 21.9398 0.41029 22.7503ZM2.5392 22.5062C2.31459 22.2523 2.33412 22.0081 2.4806 21.8714C2.70521 21.6566 3.46693 21.7054 4.05287 21.1195C5.24427 19.9378 4.82435 18.2288 6.17201 17.1351C7.35365 16.139 9.0724 16.471 10.215 17.8675C11.5822 19.5179 11.1622 21.5296 9.51185 22.8773C7.58802 24.4886 4.3556 24.4593 2.5392 22.5062ZM12.3439 19.6546C13.6915 19.5277 14.7853 18.8929 16.0548 17.6234C20.0099 13.6585 26.3185 4.53743 26.8654 3.75618C28.34 1.66633 25.8107-0.843431 23.7208 0.611647C22.9494 1.15852 13.8087 7.43782 9.85365 11.4222C8.60365 12.682 7.96888 13.7659 7.8224 15.0941L9.53138 15.5433C9.54115 14.596 10.0392 13.6683 11.0744 12.6429C15.0392 8.72688 23.9454 2.56477 24.5509 2.11555C25.1271 1.69563 25.7716 2.3304 25.3517 2.93587C24.9708 3.49251 18.6915 12.5355 14.8244 16.4027C13.7501 17.4769 12.9494 17.8675 12.0509 17.9359ZM14.756 16.7152L16.1525 16.3734C15.9572 13.971 13.5451 11.5394 11.1915 11.3245L10.7423 12.721C12.4513 12.7406 14.7072 14.9964 14.756 16.7152Z" fill="black" fill-opacity="0.85"/>
 </g>
</svg>
