<?xml version="1.0" ?><!-- Generator: Adobe Illustrator 25.0.0, SVG Export Plug-In . SVG Version: 6.00 Build 0)  --><svg xmlns="http://www.w3.org/2000/svg" xmlns:xlink="http://www.w3.org/1999/xlink" version="1.1" id="Layer_1" x="0px" y="0px" viewBox="0 0 512 512" style="enable-background:new 0 0 512 512;" xml:space="preserve">
<path d="M7.2,438c43.3,58.4,134,74.2,190.2,32.3c31.6-23.5,47-55.8,43.5-88.6c22.3-4,42.1-16.3,63.7-38.1  c74.7-74.4,188.6-241.2,198.6-255.1c29.3-40.7-20.9-90.5-61.9-61.9c-13.7,9.8-180.7,123.5-255.1,198.6c-21.6,21.9-34.2,41.6-38.4,64  c-16.7-0.7-33.7,4.7-48.8,16c-36.3,27.2-23.5,66.3-43.7,81.4c-17.7,13.3-34.2,5.8-47,15.6C-1,409.6-4,423.1,7.2,438z M459.3,59.6  c7.9-5.8,16.7,2.6,10.7,11.2c-5.3,7.9-98.1,143.3-169.5,222.8c-10.7-28.4-35.8-53.7-64-64.4C316.7,158,450.2,66.1,459.3,59.6z   M220.2,331.7c-10.7-14.4-23-25.3-36-32.3c1.9-14.7,10-29.1,25.8-45.1c27.7,3.3,62.1,37.7,65.6,65.6c-17.4,16.7-31.2,24-46.3,25.8  C226.7,341,223.7,336.4,220.2,331.7z M54.6,434.3c-3-3.3-2.8-6.5-0.7-8.6c3.3-3,16.3-4,26.3-14c22.6-22.3,14.9-55.1,40.9-75.4  c21.6-17.2,51.6-10.9,71.9,15.1c22.8,29.5,14.9,65.6-16.5,89.8C141.4,468.9,87.2,468.7,54.6,434.3z"/>
</svg>