<?xml version="1.0" encoding="UTF-8"?>
<!--Generator: Apple Native CoreSVG 326-->
<!DOCTYPE svg
PUBLIC "-//W3C//DTD SVG 1.1//EN"
       "http://www.w3.org/Graphics/SVG/1.1/DTD/svg11.dtd">
<svg version="1.1" xmlns="http://www.w3.org/2000/svg" xmlns:xlink="http://www.w3.org/1999/xlink" viewBox="0 0 43.0469 27.9004">
 <g>
  <rect height="27.9004" opacity="0" width="43.0469" x="0" y="0"/>
  <path d="M29.9707 27.9004C36.9922 27.9004 42.6855 22.207 42.6855 15.1758C42.6855 8.1543 36.9922 2.46094 29.9707 2.46094C22.9492 2.46094 17.2461 8.1543 17.2461 15.1758C17.2461 22.207 22.9492 27.9004 29.9707 27.9004ZM20.7031 9.58984C22.5195 6.42578 25.9863 4.27734 29.9512 4.27734C33.9062 4.27734 37.373 6.42578 39.1992 9.58008C39.6289 10.2051 39.4141 10.8887 38.6816 10.8887L21.2207 10.8887C20.5078 10.8887 20.2734 10.2051 20.7031 9.58984ZM29.9512 18.7012C28.4277 18.7012 27.1973 17.4805 27.1973 15.9375C27.1973 14.4238 28.4277 13.2031 29.9512 13.2031C31.4746 13.2031 32.7051 14.4238 32.7051 15.9375C32.7051 17.4805 31.4746 18.7012 29.9512 18.7012ZM19.4238 17.9297C19.2285 17.2461 19.5996 16.9141 20.1953 16.9824C24.0137 17.3047 27.002 20.6641 26.7773 24.5312C26.7676 25.127 26.3281 25.4883 25.7129 25.2051C22.5879 23.877 20.2539 21.2012 19.4238 17.9297ZM40.498 17.9297C39.6582 21.2012 37.334 23.877 34.1992 25.2051C33.5938 25.4883 33.1445 25.127 33.1348 24.5312C32.9199 20.6738 35.8887 17.3047 39.7168 16.9824C40.3223 16.9141 40.6836 17.2461 40.498 17.9297Z" fill="black" fill-opacity="0.85"/>
  <path d="M1.28906 25.918C2.07031 25.918 2.57812 25.3809 2.57812 24.5801L2.57812 16.9043L7.99805 16.9043C12.5586 16.9043 15.6543 13.8965 15.6543 9.50195C15.6543 5.09766 12.5684 2.10938 8.00781 2.10938L1.28906 2.10938C0.517578 2.10938 0 2.63672 0 3.4375L0 24.5801C0 25.3906 0.517578 25.918 1.28906 25.918ZM2.57812 14.5215L2.57812 4.48242L7.54883 4.48242C10.9961 4.48242 13.0273 6.32812 13.0273 9.50195C13.0273 12.666 10.9863 14.5215 7.54883 14.5215Z" fill="black" fill-opacity="0.85"/>
 </g>
</svg>
