<?xml version="1.0" encoding="UTF-8"?>
<!--Generator: Apple Native CoreSVG 326-->
<!DOCTYPE svg
PUBLIC "-//W3C//DTD SVG 1.1//EN"
       "http://www.w3.org/Graphics/SVG/1.1/DTD/svg11.dtd">
<svg version="1.1" xmlns="http://www.w3.org/2000/svg" xmlns:xlink="http://www.w3.org/1999/xlink" viewBox="0 0 31.8863 31.2012">
 <g>
  <rect height="31.2012" opacity="0" width="31.8863" x="0" y="0"/>
  <path d="M11.6711 9.99908C11.6661 10.5041 11.638 11.0103 11.5897 11.5167C10.5049 11.0516 9.66412 11.006 9.25859 11.416C8.36015 12.3145 9.62968 15.3027 12.6766 18.3301C15.7039 21.377 18.6824 22.6562 19.5809 21.748C19.9992 21.3343 19.9414 20.4533 19.4386 19.3174C19.9185 19.2709 20.398 19.2428 20.8763 19.2359C21.5354 21.0313 21.4597 22.6469 19.8445 23.3203L2.81328 30.4395C1.03593 31.1816-0.585161 29.502 0.205854 27.7441L7.68632 11.1523C8.42901 9.52943 9.96371 9.39584 11.6711 9.99908ZM1.57304 28.3398C1.31914 28.8965 1.69999 29.2578 2.2371 29.0332L16.8074 22.9688C15.1863 22.3828 13.3113 21.1035 11.6023 19.4043C9.87382 17.666 8.56523 15.7422 7.98906 14.1016ZM20.2078 17.7719C19.6985 17.7973 19.1869 17.8423 18.6714 17.9109C18.1583 17.1044 17.4736 16.2301 16.6294 15.3425L17.6979 14.2724C18.6044 15.2617 19.5287 16.5109 20.2078 17.7719ZM16.6259 13.2053L15.5543 14.2737C14.6655 13.4428 13.793 12.7685 12.9903 12.2646C13.0612 11.7278 13.1071 11.195 13.1334 10.664C14.3706 11.337 15.6073 12.2723 16.6259 13.2053Z" fill="black" fill-opacity="0.85"/>
  <path d="M11.2019 2.51953C11.9051 2.51953 12.4617 1.95312 12.4617 1.25977C12.4617 0.556641 11.9051 0 11.2019 0C10.4988 0 9.94218 0.556641 9.94218 1.25977C9.94218 1.95312 10.4988 2.51953 11.2019 2.51953ZM12.7449 4.9707C12.6668 4.57031 12.3934 4.23828 11.9734 4.24805C11.573 4.26758 11.1727 4.59961 11.2605 5.03906C11.8269 7.94922 11.8269 10.9766 11.2508 13.9648C11.1531 14.4043 11.5633 14.7266 11.9539 14.7363C12.3641 14.7461 12.6375 14.4238 12.7254 14.0137C13.3113 10.9375 13.3113 7.98828 12.7449 4.9707ZM18.9266 4.67773C20.1766 4.67773 21.1629 3.68164 21.1629 2.44141C21.1629 1.18164 20.1766 0.205078 18.9266 0.205078C17.6863 0.205078 16.6902 1.18164 16.6902 2.44141C16.6902 3.68164 17.6863 4.67773 18.9266 4.67773ZM16.5535 8.60352C17.1004 8.60352 17.5398 8.16406 17.5398 7.61719C17.5398 7.07031 17.1004 6.62109 16.5535 6.62109C16.0066 6.62109 15.5574 7.07031 15.5574 7.61719C15.5574 8.16406 16.0066 8.60352 16.5535 8.60352ZM29.1219 3.23242C29.659 3.23242 30.0984 2.79297 30.0984 2.23633C30.0984 1.69922 29.659 1.25 29.1219 1.25C28.5652 1.25 28.1258 1.69922 28.1258 2.23633C28.1258 2.79297 28.5652 3.23242 29.1219 3.23242ZM25.5965 4.22852L23.2625 6.5625C22.9695 6.86523 22.9695 7.34375 23.2625 7.63672C23.5555 7.92969 24.0437 7.92969 24.3367 7.63672L26.6707 5.3125C26.9539 5.00977 26.9539 4.52148 26.6707 4.22852C26.368 3.94531 25.8894 3.94531 25.5965 4.22852ZM20.9578 8.88672L14.5906 15.2344C14.2977 15.5371 14.2977 16.0254 14.5906 16.3184C14.8836 16.6016 15.3621 16.6016 15.6551 16.3184L22.0223 9.94141C22.2957 9.6582 22.2859 9.18945 22.0223 8.88672C21.7195 8.61328 21.241 8.61328 20.9578 8.88672ZM30.2547 14.4336C30.9578 14.4336 31.5242 13.877 31.5242 13.1641C31.5242 12.4707 30.9578 11.9043 30.2547 11.9043C29.5516 11.9043 28.9949 12.4707 28.9949 13.1641C28.9949 13.877 29.5516 14.4336 30.2547 14.4336ZM24.8934 14.9512C25.9383 14.9512 26.7684 14.1309 26.7684 13.0957C26.7684 12.0508 25.9383 11.2109 24.8934 11.2109C23.8484 11.2109 23.0379 12.0508 23.0379 13.0957C23.0379 14.1309 23.8484 14.9512 24.8934 14.9512ZM29.7859 20.8594C30.4793 20.8594 31.0457 20.3027 31.0457 19.5996C31.0457 18.8965 30.4793 18.3398 29.7859 18.3398C29.0828 18.3398 28.5262 18.8965 28.5262 19.5996C28.5262 20.3027 29.0828 20.8594 29.7859 20.8594ZM25.9773 18.1543C22.9695 17.5879 20.0203 17.5879 16.9344 18.1738C16.534 18.2617 16.2019 18.5352 16.2215 18.9355C16.2312 19.3359 16.5535 19.7363 16.9832 19.6582C19.9812 19.082 23.0086 19.0723 25.9187 19.6387C26.3484 19.7266 26.6902 19.3359 26.7 18.9258C26.7195 18.5059 26.3777 18.2324 25.9773 18.1543Z" fill="black" fill-opacity="0.85"/>
 </g>
</svg>
