<?xml version="1.0" ?><!-- Generator: Adobe Illustrator 25.0.0, SVG Export Plug-In . SVG Version: 6.00 Build 0)  --><svg xmlns="http://www.w3.org/2000/svg" xmlns:xlink="http://www.w3.org/1999/xlink" version="1.1" id="Layer_1" x="0px" y="0px" viewBox="0 0 512 512" style="enable-background:new 0 0 512 512;" xml:space="preserve">
<path d="M256,512c140,0,256-116.2,256-256C512,116,395.8,0,255.7,0C116,0,0,116,0,256C0,395.8,116.2,512,256,512z M182.7,356.9  c-12.8,0-18.6-7-18.6-17.1V171.7c0-9.8,5.8-16.8,18.6-16.8h25.3c13.1,0,18.8,7,18.8,16.8v168.2c0,10-5.8,17.1-18.8,17.1H182.7z   M303.9,356.9c-13.1,0-18.8-7-18.8-17.1V171.7c0-9.8,5.8-16.8,18.8-16.8h25.3c12.5,0,18.3,7,18.3,16.8v168.2  c0,10-5.8,17.1-18.3,17.1H303.9z"/>
</svg>