<?xml version="1.0" encoding="UTF-8"?>
<!--Generator: Apple Native CoreSVG 326-->
<!DOCTYPE svg
PUBLIC "-//W3C//DTD SVG 1.1//EN"
       "http://www.w3.org/Graphics/SVG/1.1/DTD/svg11.dtd">
<svg version="1.1" xmlns="http://www.w3.org/2000/svg" xmlns:xlink="http://www.w3.org/1999/xlink" viewBox="0 0 25.8008 25.459">
 <g>
  <rect height="25.459" opacity="0" width="25.8008" x="0" y="0"/>
  <path d="M25.4395 12.7246C25.4395 19.7266 19.7266 25.4395 12.7148 25.4395C5.71289 25.4395 0 19.7266 0 12.7246C0 5.71289 5.71289 0 12.7148 0C19.7266 0 25.4395 5.71289 25.4395 12.7246ZM9.11133 7.72461C8.49609 7.72461 8.22266 8.05664 8.22266 8.53516L8.22266 16.8945C8.22266 17.373 8.49609 17.7051 9.11133 17.7051L10.3906 17.7051C11.0059 17.7051 11.2793 17.373 11.2793 16.8945L11.2793 8.53516C11.2793 8.05664 11.0059 7.72461 10.3906 7.72461ZM15.0586 7.72461C14.4434 7.72461 14.1602 8.05664 14.1602 8.53516L14.1602 16.8945C14.1602 17.373 14.4434 17.7051 15.0586 17.7051L16.3379 17.7051C16.9336 17.7051 17.2168 17.373 17.2168 16.8945L17.2168 8.53516C17.2168 8.05664 16.9336 7.72461 16.3379 7.72461Z" fill="black" fill-opacity="0.85"/>
 </g>
</svg>
