<?xml version="1.0" ?><!-- Generator: Adobe Illustrator 25.0.0, SVG Export Plug-In . SVG Version: 6.00 Build 0)  --><svg xmlns="http://www.w3.org/2000/svg" xmlns:xlink="http://www.w3.org/1999/xlink" version="1.1" id="Layer_1" x="0px" y="0px" viewBox="0 0 512 512" style="enable-background:new 0 0 512 512;" xml:space="preserve">
<path d="M0,232.5c0,16.1,2.6,30.5,7.7,43.3c5.1,12.8,12.1,23,20.9,30.5c8.8,7.5,18.7,11.3,29.6,11.3c11,0,21-3.8,29.8-11.3  c8.8-7.5,15.8-17.7,20.9-30.5c5.1-12.8,7.7-27.3,7.7-43.3c0-15.9-2.6-30.3-7.7-43.2c-5.1-12.9-12.1-23.1-20.9-30.7  c-8.8-7.5-18.8-11.3-29.8-11.3c-10.9,0-20.7,3.8-29.6,11.3c-8.8,7.5-15.8,17.8-20.9,30.7C2.6,202.2,0,216.6,0,232.5z M118,92.1  c0,15.9,2.6,30.3,7.8,43.2c5.2,12.9,12.2,23.1,21,30.5c8.8,7.5,18.7,11.2,29.6,11.2c11,0,21-3.7,29.8-11.2  c8.8-7.5,15.9-17.6,21-30.5c5.2-12.9,7.8-27.3,7.8-43.2c0-16.1-2.6-30.5-7.8-43.3c-5.2-12.8-12.2-23-21-30.5  c-8.8-7.5-18.8-11.3-29.8-11.3c-10.9,0-20.7,3.8-29.6,11.3c-8.8,7.5-15.9,17.7-21,30.5C120.6,61.6,118,76,118,92.1z M277.2,92.1  c0,15.9,2.6,30.3,7.7,43.2c5.1,12.9,12.1,23.1,20.9,30.5s18.8,11.2,29.8,11.2c10.9,0,20.7-3.7,29.6-11.2c8.8-7.5,15.9-17.6,21-30.5  c5.2-12.9,7.8-27.3,7.8-43.2c0-16.1-2.6-30.5-7.8-43.3c-5.2-12.8-12.2-23-21-30.5c-8.8-7.5-18.7-11.3-29.6-11.3  c-11,0-21,3.8-29.8,11.3S289.9,36,284.8,48.8C279.7,61.6,277.2,76,277.2,92.1z M395.4,232.5c0,16.1,2.6,30.5,7.8,43.3  c5.2,12.8,12.2,23,20.9,30.5c8.8,7.5,18.7,11.3,29.7,11.3c10.9,0,20.7-3.8,29.6-11.3c8.8-7.5,15.8-17.7,20.9-30.5  c5.1-12.8,7.7-27.3,7.7-43.3c0-15.9-2.6-30.3-7.7-43.2c-5.1-12.9-12.1-23.1-20.9-30.7c-8.8-7.5-18.7-11.3-29.6-11.3  c-11,0-20.9,3.8-29.7,11.3c-8.8,7.5-15.7,17.8-20.9,30.7C398,202.2,395.4,216.6,395.4,232.5z M73,420.9c0,16.4,3.4,30.9,10.3,43.6  c6.9,12.7,16.5,22.6,28.7,29.8c12.2,7.2,26.5,10.8,42.7,10.8c12,0,22.6-1.4,31.9-4.1c9.2-2.8,18.1-5.6,26.5-8.5  c6.8-2.4,13.7-4.6,20.6-6.4c6.9-1.9,14.3-2.8,22.3-2.8c7.9,0,15.3,0.9,22.1,2.8c6.8,1.9,13.7,4,20.7,6.4c8.3,2.9,17,5.8,26.3,8.5  c9.2,2.8,19.9,4.1,31.9,4.1c16.2,0,30.5-3.6,42.8-10.8c12.3-7.2,21.9-17.2,28.8-29.8c6.9-12.7,10.3-27.2,10.3-43.6  c0-14-2.4-25.9-7.3-35.8c-4.9-9.9-11.1-18.5-18.6-25.9c-7.5-7.4-15.3-14.4-23.2-21c-6.7-5.4-13.1-10.7-19.2-16.2  c-6.2-5.4-11.4-11.6-15.8-18.4c-3.7-5.5-7.1-11.2-10.1-16.9c-3-5.8-5.8-11.5-8.4-17.2c-5.8-12.5-11.8-24.3-17.9-35.4  c-6.1-11.1-13.9-20.1-23.5-27c-9.6-6.9-22.6-10.3-38.9-10.3c-16.4,0-29.4,3.4-38.9,10.3c-9.6,6.9-17.4,15.9-23.5,27  c-6.1,11.1-12,22.8-17.9,35.2c-2.6,5.7-5.4,11.4-8.4,17.2c-3,5.8-6.3,11.3-9.9,16.7c-4.4,6.8-9.7,13-15.9,18.6  c-6.2,5.6-12.7,11.1-19.3,16.4c-8.1,6.7-15.9,13.7-23.4,21c-7.5,7.4-13.6,16-18.5,25.9C75.4,395,73,406.9,73,420.9z"/>
</svg>