<?xml version="1.0" ?><!-- Generator: Adobe Illustrator 25.0.0, SVG Export Plug-In . SVG Version: 6.00 Build 0)  --><svg xmlns="http://www.w3.org/2000/svg" xmlns:xlink="http://www.w3.org/1999/xlink" version="1.1" id="Layer_1" x="0px" y="0px" viewBox="0 0 512 512" style="enable-background:new 0 0 512 512;" xml:space="preserve">
<path d="M256,512c35,0,67.9-6.7,98.8-20.1c30.9-13.4,58.1-31.9,81.7-55.5c23.6-23.6,42.1-50.8,55.5-81.7  C505.3,323.9,512,291,512,256s-6.7-67.9-20.1-98.8c-13.4-30.9-31.9-58.1-55.5-81.7c-23.6-23.6-50.9-42.1-81.8-55.5  C323.7,6.7,290.7,0,255.7,0S187.9,6.7,157,20.1C126.1,33.5,98.9,52,75.4,75.5c-23.5,23.6-42,50.8-55.3,81.7C6.7,188.1,0,221,0,256  s6.7,67.9,20.1,98.8c13.4,30.9,31.9,58.1,55.5,81.7c23.6,23.6,50.8,42.1,81.7,55.5C188.1,505.3,221,512,256,512z M256,469.3  c-29.6,0-57.3-5.5-83.1-16.6c-25.8-11-48.4-26.3-67.9-45.8c-19.5-19.5-34.7-42.1-45.7-67.9c-11-25.8-16.4-53.5-16.4-83.1  c0-29.6,5.5-57.3,16.4-83.1c11-25.8,26.1-48.4,45.6-68s42-34.8,67.8-45.8c25.8-11,53.5-16.4,83.1-16.4c29.6,0,57.3,5.5,83.1,16.4  c25.8,11,48.4,26.2,68,45.8c19.6,19.6,34.9,42.2,45.9,68c11,25.8,16.6,53.5,16.6,83.1c0,29.6-5.5,57.3-16.4,83.1  c-11,25.8-26.2,48.4-45.7,67.9c-19.5,19.5-42.2,34.8-68,45.8C313.3,463.8,285.6,469.3,256,469.3z" class="hierarchical-0:secondary SFSymbolsPreview4D4D4D" style="fill: #4D4D4D;"/>
<path d="M160.1,334.8c0,12.9,3.9,23.4,11.8,31.6c7.9,8.2,18.2,12.3,31.1,12.3c6.2,0,11.7-0.7,16.4-2c4.8-1.3,9.4-2.8,13.9-4.5  c3.5-1.2,7.1-2.2,10.7-3.1c3.6-0.9,7.5-1.4,11.7-1.4s8.1,0.5,11.7,1.4c3.6,0.9,7.2,2,10.7,3.1c4.4,1.7,9,3.2,13.8,4.5  c4.9,1.3,10.4,2,16.6,2c12.7,0,23-4.1,30.9-12.3c7.9-8.2,11.8-18.7,11.8-31.6c0-10.9-2.7-19.5-8-25.9c-5.4-6.4-11.2-12.1-17.6-17.3  c-3.3-2.8-6.7-5.6-9.9-8.4c-3.3-2.8-6.1-6-8.4-9.7c-1.8-2.8-3.6-5.8-5.1-8.9c-1.6-3.1-3.1-6.1-4.4-8.9c-3-6.5-6.1-12.6-9.3-18.3  c-3.2-5.7-7.3-10.3-12.3-13.9c-5-3.6-11.8-5.4-20.3-5.4c-8.5,0-15.3,1.8-20.3,5.4c-5,3.6-9.1,8.2-12.3,13.9  c-3.2,5.7-6.3,11.8-9.3,18.3c-1.3,2.8-2.8,5.8-4.4,8.9c-1.6,3.1-3.3,6-5.1,8.7c-2.3,3.7-5.1,6.9-8.4,9.8c-3.3,2.8-6.6,5.7-9.9,8.5  c-6.4,5.2-12.3,11-17.7,17.3C162.8,315.3,160.1,323.9,160.1,334.8z M122,236.7c0,12.5,2.9,23.1,8.8,31.6  c5.9,8.5,13.1,12.8,21.6,12.8s15.8-4.3,21.7-12.8c5.9-8.5,8.9-19.1,8.9-31.6c0-12.5-3-23.1-8.9-31.7c-5.9-8.6-13.2-12.9-21.7-12.9  c-8.5,0-15.7,4.3-21.6,12.9C124.9,213.5,122,224.1,122,236.7z M328.5,236.7c0,12.5,3,23.1,8.9,31.6c5.9,8.5,13.2,12.8,21.7,12.8  c8.5,0,15.7-4.3,21.6-12.8c5.9-8.5,8.8-19.1,8.8-31.6c0-12.5-2.9-23.1-8.8-31.7c-5.9-8.6-13.1-12.9-21.6-12.9  c-8.5,0-15.8,4.3-21.7,12.9C331.5,213.5,328.5,224.1,328.5,236.7z M183.7,163.1c0,12.5,3,23.1,8.9,31.7c5.9,8.6,13.2,12.9,21.7,12.9  c8.5,0,15.7-4.3,21.6-12.9c5.9-8.6,8.8-19.2,8.8-31.7c0-12.4-2.9-22.8-8.8-31.4c-5.9-8.5-13.1-12.8-21.6-12.8  c-8.5,0-15.8,4.2-21.7,12.7C186.7,140.1,183.7,150.6,183.7,163.1z M266.8,163.1c0,12.5,2.9,23.1,8.8,31.7  c5.9,8.6,13.1,12.9,21.6,12.9c8.5,0,15.8-4.3,21.7-12.9c5.9-8.6,8.9-19.2,8.9-31.7s-3-23-8.9-31.5c-5.9-8.4-13.2-12.7-21.7-12.7  c-8.5,0-15.7,4.3-21.6,12.8C269.7,140.3,266.8,150.8,266.8,163.1z" class="hierarchical-1:primary SFSymbolsPreview212121" style="fill: #212121;"/>
</svg>