<?xml version="1.0" encoding="UTF-8"?>
<!--Generator: Apple Native CoreSVG 326-->
<!DOCTYPE svg
PUBLIC "-//W3C//DTD SVG 1.1//EN"
       "http://www.w3.org/Graphics/SVG/1.1/DTD/svg11.dtd">
<svg version="1.1" xmlns="http://www.w3.org/2000/svg" xmlns:xlink="http://www.w3.org/1999/xlink" viewBox="0 0 27.4512 26.6895">
 <g>
  <rect height="26.6895" opacity="0" width="27.4512" x="0" y="0"/>
  <path d="M8.54492 26.6406C9.80469 26.6406 10.6934 26.3184 11.4551 25.9961C12.207 25.6836 12.8027 25.3613 13.5254 25.3613C14.2578 25.3613 14.8535 25.6836 15.6055 25.9961C16.3672 26.3184 17.2559 26.6406 18.5156 26.6406C21.1816 26.6406 23.2129 24.7168 23.2129 22.1777C23.2129 19.6484 21.7285 18.4277 20.4492 17.3926C19.7754 16.8652 19.1797 16.3867 18.8281 15.8008C18.5156 15.2734 18.252 14.6777 17.9883 14.0625C17.1582 12.1582 16.2598 10.1172 13.5254 10.1172C10.791 10.1172 9.89258 12.168 9.07227 14.0625C8.80859 14.668 8.56445 15.2539 8.26172 15.7617C7.90039 16.3574 7.28516 16.8555 6.61133 17.3926C5.32227 18.4277 3.84766 19.6582 3.84766 22.1777C3.84766 24.7168 5.87891 26.6406 8.54492 26.6406ZM8.54492 25.0684C6.72852 25.0684 5.41992 23.8574 5.41992 22.1777C5.41992 19.1406 8.03711 19.1797 9.54102 16.6309C10.6836 14.6973 11.1133 11.6895 13.5254 11.6895C15.957 11.6895 16.377 14.6973 17.5488 16.6699C19.0234 19.1797 21.6406 19.1406 21.6406 22.1777C21.6406 23.8574 20.332 25.0684 18.5156 25.0684C16.6699 25.0684 15.498 23.7988 13.5254 23.7988C11.5625 23.7988 10.3906 25.0684 8.54492 25.0684ZM0 11.9922C0 14.8145 1.30859 16.709 3.30078 16.709C5.29297 16.709 6.62109 14.8145 6.62109 11.9922C6.62109 9.16016 5.29297 7.27539 3.30078 7.27539C1.30859 7.27539 0 9.16016 0 11.9922ZM1.51367 11.9922C1.51367 10.0586 2.2168 8.7793 3.30078 8.7793C4.38477 8.7793 5.10742 10.0586 5.10742 11.9922C5.10742 13.916 4.38477 15.1953 3.30078 15.1953C2.2168 15.1953 1.51367 13.9258 1.51367 11.9922ZM6.13281 4.69727C6.13281 7.54883 7.44141 9.42383 9.42383 9.42383C11.416 9.42383 12.7441 7.5293 12.7441 4.69727C12.7441 1.875 11.4258 0 9.42383 0C7.44141 0 6.13281 1.86523 6.13281 4.69727ZM7.63672 4.69727C7.63672 2.7832 8.34961 1.51367 9.42383 1.51367C10.5078 1.51367 11.2305 2.79297 11.2305 4.69727C11.2305 6.63086 10.5078 7.91016 9.42383 7.91016C8.34961 7.91016 7.63672 6.63086 7.63672 4.69727ZM14.3457 4.69727C14.3457 7.5293 15.6738 9.42383 17.666 9.42383C19.6582 9.42383 20.9668 7.54883 20.9668 4.69727C20.9668 1.86523 19.6582 0 17.666 0C15.6641 0 14.3457 1.875 14.3457 4.69727ZM15.8594 4.69727C15.8594 2.79297 16.582 1.51367 17.666 1.51367C18.75 1.51367 19.4531 2.7832 19.4531 4.69727C19.4531 6.63086 18.75 7.91016 17.666 7.91016C16.582 7.91016 15.8594 6.63086 15.8594 4.69727ZM20.4785 11.9922C20.4785 14.8145 21.7969 16.709 23.7891 16.709C25.7812 16.709 27.0898 14.8145 27.0898 11.9922C27.0898 9.16016 25.7812 7.27539 23.7891 7.27539C21.7969 7.27539 20.4785 9.16016 20.4785 11.9922ZM21.9922 11.9922C21.9922 10.0586 22.7051 8.7793 23.7891 8.7793C24.873 8.7793 25.5762 10.0586 25.5762 11.9922C25.5762 13.9258 24.873 15.1953 23.7891 15.1953C22.7051 15.1953 21.9922 13.916 21.9922 11.9922Z" fill="black" fill-opacity="0.85"/>
 </g>
</svg>
