<?xml version="1.0" ?><!-- Generator: Adobe Illustrator 25.0.0, SVG Export Plug-In . SVG Version: 6.00 Build 0)  --><svg xmlns="http://www.w3.org/2000/svg" xmlns:xlink="http://www.w3.org/1999/xlink" version="1.1" id="Layer_1" x="0px" y="0px" viewBox="0 0 512 512" style="enable-background:new 0 0 512 512;" xml:space="preserve">
<path d="M6.3,375.9c0,44.8,21.9,66.2,65.7,66.2h47.4c10,7.7,24.5,14.4,42.3,19.6L123,479.5c-15.5,7-13.9,32.5,9.3,32.5h247.4  c23.2,0,24.7-25.5,9.3-32.5l-38.7-17.8c17.8-5.2,32.2-11.9,42.3-19.6H440c43.8,0,65.7-21.4,65.7-66.2V66.2  c0-45.1-22.2-66.2-66.2-66.2H72.5C28.5,0,6.3,21.1,6.3,66.2V375.9z M47.8,333.7V67c0-18.3,7.7-25.5,25.5-25.5h365.4  c17.8,0,25.5,7.2,25.5,25.5v266.7c0,18-7.7,25.3-25.5,25.3H73.3C55.5,358.9,47.8,351.7,47.8,333.7z M144.9,151.5  c0,16,8.8,31.7,16.5,38.4c2.1,1.8,4.4,2.6,6.7,2.6c4.4,0,7.7-3.3,7.7-7.5c0-3.3-1.8-5.2-4.1-7.5c-7.5-7.5-10.6-16.7-10.6-26  c0-9.5,3.6-18.3,10.6-26c2.3-2.6,4.1-4.4,4.1-7.7c0-4.1-3.3-7.5-7.7-7.5c-2.1,0-4.6,1-6.7,2.8C151.4,121.6,144.9,135.5,144.9,151.5z   M114.3,142c7,0,12.4-5.7,12.4-12.4c0-7-5.4-12.6-12.4-12.6c-7,0-12.4,5.7-12.4,12.6C101.9,136.3,107.3,142,114.3,142z M114.3,188.4  c7,0,12.4-5.7,12.4-12.6c0-6.7-5.4-12.4-12.4-12.4c-7,0-12.4,5.7-12.4,12.4C101.9,182.7,107.3,188.4,114.3,188.4z M111.4,246.3  h169.3c5.4,0,9-3.6,9-9.5c0-5.4-3.6-8.8-9-8.8H111.4c-5.7,0-9.5,3.3-9.5,8.8C101.9,242.7,105.8,246.3,111.4,246.3z M111.4,289.9H232  c5.2,0,9.3-3.9,9.3-9.5c0-5.4-4.1-8.8-9.3-8.8H111.4c-5.7,0-9.5,3.3-9.5,8.8C101.9,286,105.8,289.9,111.4,289.9z M401.6,415.4  c-9.3,0-17.5-8.2-17.5-18c0-9.3,8.2-17.5,17.5-17.5c10,0,18,8.2,18,17.5C419.6,407.1,411.6,415.4,401.6,415.4z"/>
</svg>