<?xml version="1.0" encoding="UTF-8"?>
<!--Generator: Apple Native CoreSVG 326-->
<!DOCTYPE svg
PUBLIC "-//W3C//DTD SVG 1.1//EN"
       "http://www.w3.org/Graphics/SVG/1.1/DTD/svg11.dtd">
<svg version="1.1" xmlns="http://www.w3.org/2000/svg" xmlns:xlink="http://www.w3.org/1999/xlink" viewBox="0 0 21.4551 26.9434">
 <g>
  <rect height="26.9434" opacity="0" width="21.4551" x="0" y="0"/>
  <path d="M7.17773 26.9434L17.4121 26.9434C19.7168 26.9434 21.084 25.5859 21.084 23.3008L21.0938 3.65234C21.0938 1.45508 19.668 0 17.4512 0L5.32227 0C2.05078 0 0 2.06055 0 5.33203L0 7.48047C0 10.8203 0.78125 12.8613 2.58789 15.2148L3.50586 16.416L3.50586 23.3008C3.50586 25.5859 4.86328 26.9434 7.17773 26.9434ZM7.1875 25.2148C5.98633 25.2148 5.23438 24.4824 5.23438 23.291L5.23438 15.8301L3.95508 14.1504C2.42188 12.1387 1.72852 10.332 1.72852 7.42188L1.72852 5.3418C1.72852 3.125 3.11523 1.72852 5.33203 1.72852L17.4316 1.72852C18.623 1.72852 19.3652 2.46094 19.3652 3.67188L19.3457 23.291C19.3457 24.4824 18.5938 25.2148 17.4023 25.2148Z" fill="black" fill-opacity="0.85"/>
  <path d="M5.30273 7.7832L16.2305 7.7832C16.6211 7.7832 16.9434 7.46094 16.9434 7.06055C16.9434 6.66992 16.6211 6.34766 16.2305 6.34766L5.30273 6.34766C4.90234 6.34766 4.58008 6.66992 4.58008 7.06055C4.58008 7.46094 4.90234 7.7832 5.30273 7.7832ZM6.42578 12.4414L16.2305 12.4414C16.6211 12.4414 16.9434 12.1191 16.9434 11.7285C16.9434 11.3281 16.6211 11.0059 16.2305 11.0059L6.42578 11.0059C6.03516 11.0059 5.71289 11.3281 5.71289 11.7285C5.71289 12.1191 6.03516 12.4414 6.42578 12.4414ZM8.35938 17.0898L16.2305 17.0898C16.6211 17.0898 16.9434 16.7676 16.9434 16.377C16.9434 15.9766 16.6211 15.6543 16.2305 15.6543L8.35938 15.6543C7.95898 15.6543 7.63672 15.9766 7.63672 16.377C7.63672 16.7676 7.95898 17.0898 8.35938 17.0898ZM8.35938 21.7578L16.2305 21.7578C16.6211 21.7578 16.9434 21.4355 16.9434 21.0352C16.9434 20.6445 16.6211 20.3223 16.2305 20.3223L8.35938 20.3223C7.95898 20.3223 7.63672 20.6445 7.63672 21.0352C7.63672 21.4355 7.95898 21.7578 8.35938 21.7578Z" fill="black" fill-opacity="0.85"/>
 </g>
</svg>
