<?xml version="1.0" ?><!-- Generator: Adobe Illustrator 25.0.0, SVG Export Plug-In . SVG Version: 6.00 Build 0)  --><svg xmlns="http://www.w3.org/2000/svg" xmlns:xlink="http://www.w3.org/1999/xlink" version="1.1" id="Layer_1" x="0px" y="0px" viewBox="0 0 512 512" style="enable-background:new 0 0 512 512;" xml:space="preserve">
<path d="M100.1,420.5c67.1,67.1,154.3,87.2,197.2,91.3c12.6,1.5,19.6-6.3,20.6-14.3c1-8.5-4.4-17.7-16.5-19.4  c-38.8-5.3-118.7-22.8-177-81.6C29.4,301.4,11.4,157.5,88.9,80c63-62.7,167.8-54.7,245.1-13.1l25.2-24.5  c-94-56.4-220.4-61-294.5,13.3C-23.4,144.2-11.8,308.6,100.1,420.5z M455.1,77.3l19.4-19.4c9.2-9.2,9.7-22.8,0.2-31.5l-6.3-5.8  c-8.2-7.8-21.1-7.5-30,1l-19.1,19.6L455.1,77.3z M220,312L437.5,94.8l-36.1-35.8l-217.3,217l-19.9,46.3c-2.2,5.1,2.9,10.2,8.2,8.5  L220,312z M188.2,348.1c79.2,79.2,206.6,110.4,277.8,39.5c58.1-58.4,50.6-162-11.6-251.2l-24.7,24.7  c49.4,73.1,59.1,155.3,12.1,202.2c-57.2,57.2-151.6,30-216.5-31.2L188.2,348.1z"/>
</svg>