<?xml version="1.0" ?><!-- Generator: Adobe Illustrator 25.0.0, SVG Export Plug-In . SVG Version: 6.00 Build 0)  --><svg xmlns="http://www.w3.org/2000/svg" xmlns:xlink="http://www.w3.org/1999/xlink" version="1.1" id="Layer_1" x="0px" y="0px" viewBox="0 0 512 512" style="enable-background:new 0 0 512 512;" xml:space="preserve">
<path d="M466.7,103.2l32.5-31.8c16.4-16.4,17-33.7,2.6-48.8l-10.9-10.6C476-2.9,458.3-1.3,442.2,14.5l-32.8,32.1L466.7,103.2z   M464.7,459.5c9.6,9.6,25.7,9.6,35,0c9.3-10,9.6-25.4,0-35L95.8,20.6c-9.6-9.6-26-10-35.3,0c-9.6,9.3-9.6,25.7,0,35L464.7,459.5z   M349.4,219.8l89-89l-56.2-56.6l-89.3,89.3L349.4,219.8z M87.8,481.1l172.6-172.6l-56.2-56.6L31.2,424.8L0.7,496.2  c-3.2,7.7,5.1,16.7,12.9,13.5L87.8,481.1z"/>
</svg>