<?xml version="1.0" encoding="UTF-8"?>
<!--Generator: Apple Native CoreSVG 326-->
<!DOCTYPE svg
PUBLIC "-//W3C//DTD SVG 1.1//EN"
       "http://www.w3.org/Graphics/SVG/1.1/DTD/svg11.dtd">
<svg version="1.1" xmlns="http://www.w3.org/2000/svg" xmlns:xlink="http://www.w3.org/1999/xlink" viewBox="0 0 25.8008 25.459">
 <g>
  <rect height="25.459" opacity="0" width="25.8008" x="0" y="0"/>
  <path d="M12.7148 25.4395C19.7363 25.4395 25.4395 19.7461 25.4395 12.7246C25.4395 5.70312 19.7363 0 12.7148 0C5.69336 0 0 5.70312 0 12.7246C0 19.7461 5.69336 25.4395 12.7148 25.4395ZM12.7148 23.623C6.68945 23.623 1.81641 18.75 1.81641 12.7246C1.81641 6.69922 6.68945 1.82617 12.7148 1.82617C18.7402 1.82617 23.6133 6.69922 23.6133 12.7246C23.6133 18.75 18.7402 23.623 12.7148 23.623Z" fill="black" fill-opacity="0.85"/>
  <path d="M8.55469 18.1543L17.0898 9.64844L15.752 8.31055L7.23633 16.8164L6.49414 18.4277C6.38672 18.7012 6.65039 18.9355 6.88477 18.8477ZM17.7832 8.96484L18.6133 8.125C18.9941 7.73438 19.0234 7.31445 18.6621 6.96289L18.4375 6.72852C18.0859 6.37695 17.666 6.41602 17.2852 6.79688L16.4453 7.61719Z" fill="black" fill-opacity="0.85"/>
 </g>
</svg>
