<?xml version="1.0" ?><!-- Generator: Adobe Illustrator 25.0.0, SVG Export Plug-In . SVG Version: 6.00 Build 0)  --><svg xmlns="http://www.w3.org/2000/svg" xmlns:xlink="http://www.w3.org/1999/xlink" version="1.1" id="Layer_1" x="0px" y="0px" viewBox="0 0 512 512" style="enable-background:new 0 0 512 512;" xml:space="preserve">
<path d="M256,512c140,0,256-116,256-256C512,116.2,395.8,0,255.7,0C116,0,0,116.2,0,256C0,396,116.2,512,256,512z M358.1,183.7  l-30.9-30.6l19.1-19.1c8.5-8,18.1-9,25.9-1.3l5.8,6c8,7.8,7.5,17.6-1,26.1L358.1,183.7z M172.9,368.2L137,381.7  c-5.5,2-11.8-3.5-9-10l14.6-34.1l169.2-169.2l30.9,30.9L172.9,368.2z"/>
</svg>