<?xml version="1.0" encoding="UTF-8"?>
<!--Generator: Apple Native CoreSVG 326-->
<!DOCTYPE svg
PUBLIC "-//W3C//DTD SVG 1.1//EN"
       "http://www.w3.org/Graphics/SVG/1.1/DTD/svg11.dtd">
<svg version="1.1" xmlns="http://www.w3.org/2000/svg" xmlns:xlink="http://www.w3.org/1999/xlink" viewBox="0 0 30.791 31.6113">
 <g>
  <rect height="31.6113" opacity="0" width="30.791" x="0" y="0"/>
  <path d="M8.88672 3.62305L8.88672 4.58984C8.88672 4.75586 8.89648 4.93164 8.92578 5.07812L8.42773 5.07812C7.12891 5.07812 6.46484 5.86914 6.46484 7.17773L6.46484 26.4258C6.46484 27.7832 7.1875 28.5254 8.58398 28.5254L21.8457 28.5254C23.2422 28.5254 23.9648 27.7832 23.9648 26.4258L23.9648 16.7973L25.6934 15.0715L25.6934 26.4551C25.6934 28.9844 24.4336 30.2539 21.9336 30.2539L8.49609 30.2539C5.99609 30.2539 4.72656 28.9844 4.72656 26.4551L4.72656 7.14844C4.72656 4.66797 5.95703 3.33984 8.38867 3.33984L8.89648 3.33984C8.88672 3.42773 8.88672 3.53516 8.88672 3.62305ZM25.6934 7.14844L25.6934 7.44027L23.9648 9.16475L23.9648 7.17773C23.9648 5.86914 23.3008 5.07812 22.002 5.07812L21.4941 5.07812C21.5234 4.93164 21.5332 4.75586 21.5332 4.58984L21.5332 3.62305C21.5332 3.53516 21.5332 3.42773 21.5234 3.33984L22.041 3.33984C24.4727 3.33984 25.6934 4.66797 25.6934 7.14844ZM17.8125 2.48047L19.0723 2.48047C19.7656 2.48047 20.1758 2.90039 20.1758 3.61328L20.1758 4.92188C20.1758 5.63477 19.7656 6.05469 19.0723 6.05469L11.3477 6.05469C10.6641 6.05469 10.2539 5.63477 10.2539 4.92188L10.2539 3.61328C10.2539 2.90039 10.6641 2.48047 11.3477 2.48047L12.6172 2.48047C12.6855 1.11328 13.8184 0 15.2148 0C16.6113 0 17.7441 1.11328 17.8125 2.48047ZM14.1016 2.55859C14.1016 3.1543 14.5898 3.67188 15.2148 3.67188C15.8301 3.67188 16.3281 3.1543 16.3281 2.55859C16.3281 1.93359 15.8301 1.43555 15.2148 1.43555C14.5898 1.43555 14.1016 1.93359 14.1016 2.55859Z" fill="black" fill-opacity="0.85"/>
  <path d="M12.168 21.6992C12.168 22.0703 11.8555 22.3828 11.4844 22.3828L9.55078 22.3828C9.17969 22.3828 8.86719 22.0703 8.86719 21.6992C8.86719 21.3184 9.16992 21.0156 9.55078 21.0156L11.4844 21.0156C11.8652 21.0156 12.168 21.3184 12.168 21.6992ZM15.5025 17.6074L9.55078 17.6074C9.16992 17.6074 8.86719 17.3047 8.86719 16.9238C8.86719 16.5527 9.16992 16.25 9.55078 16.25L16.863 16.25ZM21.2676 11.8557L20.0247 13.0957L9.55078 13.0957C9.17969 13.0957 8.86719 12.7832 8.86719 12.4121C8.86719 12.041 9.17969 11.7285 9.55078 11.7285L20.8691 11.7285C21.0172 11.7285 21.1549 11.7757 21.2676 11.8557Z" fill="black" fill-opacity="0.85"/>
  <path d="M27.9785 10.6055L28.8867 9.67773C29.3359 9.22852 29.3359 8.66211 28.9062 8.23242L28.6621 7.98828C28.2715 7.59766 27.6855 7.64648 27.2656 8.05664L26.3477 8.95508ZM14.0527 23.1836L16.5137 22.041L27.0898 11.4941L25.459 9.87305L14.8926 20.4199L13.6914 22.8125C13.5938 23.0273 13.8379 23.291 14.0527 23.1836Z" fill="black" fill-opacity="0.85"/>
 </g>
</svg>
