<?xml version="1.0" ?><!-- Generator: Adobe Illustrator 25.0.0, SVG Export Plug-In . SVG Version: 6.00 Build 0)  --><svg xmlns="http://www.w3.org/2000/svg" xmlns:xlink="http://www.w3.org/1999/xlink" version="1.1" id="Layer_1" x="0px" y="0px" viewBox="0 0 512 512" style="enable-background:new 0 0 512 512;" xml:space="preserve">
<path d="M84.7,508.7c9.9,5.6,24.4,4.8,33-7.5L432.4,35.8c9.4-13.4,3.8-27.1-6.2-33c-9.4-5.1-22.5-4-31.9,9.4l-314.8,464  C69.9,489.9,74.8,502.8,84.7,508.7z M104,249.8c57.6,0,92.4-47.4,92.4-123c0-75.6-35.1-122.2-92.4-122.2  c-57.6,0-92.7,46.9-92.7,122.2C11.3,202.7,46.1,249.8,104,249.8z M104,212.3c-31.1,0-49.6-31.3-49.6-85.5  c0-53.3,18.8-84.9,49.6-84.9s49.3,31.3,49.3,84.9C153.3,181,135,212.3,104,212.3z M408.3,507.6c57.6,0,92.4-47.4,92.4-122.7  c0-75.8-35.1-122.4-92.4-122.4c-57.6,0-92.7,46.9-92.7,122.4C315.6,460.4,350.4,507.6,408.3,507.6z M408.3,470.3  c-31.1,0-49.6-31.6-49.6-85.5c0-53.6,18.8-84.9,49.6-84.9c30.8,0,49.3,31.1,49.3,84.9C457.6,438.7,439.4,470.3,408.3,470.3z"/>
</svg>