<?xml version="1.0" ?><!-- Generator: Adobe Illustrator 25.0.0, SVG Export Plug-In . SVG Version: 6.00 Build 0)  --><svg xmlns="http://www.w3.org/2000/svg" xmlns:xlink="http://www.w3.org/1999/xlink" version="1.1" id="Layer_1" x="0px" y="0px" viewBox="0 0 512 512" style="enable-background:new 0 0 512 512;" xml:space="preserve">
<path d="M255.9,250.7c41.9,0,78-37.4,78-86.2c0-48.1-36.3-83.8-78-83.8c-41.5,0-78,36.4-77.8,84.2  C178.2,213.3,214.2,250.7,255.9,250.7z M380.3,179.8h50.3V204c0,13.3,13.1,18.1,23.8,9.9l52.2-38.8c7.2-5.3,7.2-15.2,0-20.5  l-52.2-39.2c-10.3-7.8-23.8-3.7-23.8,10.3v23.6h-50.3c-8.6,0-15.2,6.8-15.2,15.2C365.1,173.2,371.7,179.8,380.3,179.8z M57.5,213.9  c10.9,8.2,23.8,3.3,23.8-9.9v-24.2h50.3c8.6,0,15.4-6.6,15.4-15.2c0-8.4-6.8-15.2-15.4-15.2H81.3v-23.6c0-14-13.3-18.1-23.8-10.3  L5.3,154.6c-7,5.3-7,15.2,0,20.5L57.5,213.9z M133.5,431.2h244.8c30.6,0,41.5-8.8,41.5-25.9c0-50.3-63-119.7-163.9-119.7  C154.8,285.6,92,355,92,405.3C92,422.5,102.7,431.2,133.5,431.2z"/>
</svg>