<?xml version="1.0" ?><!-- Generator: Adobe Illustrator 25.0.0, SVG Export Plug-In . SVG Version: 6.00 Build 0)  --><svg xmlns="http://www.w3.org/2000/svg" xmlns:xlink="http://www.w3.org/1999/xlink" version="1.1" id="Layer_1" x="0px" y="0px" viewBox="0 0 512 512" style="enable-background:new 0 0 512 512;" xml:space="preserve">
<path d="M131.8,512h255c19.7,0,35.1-5.7,46.1-17.2c11-11.5,16.5-28.5,16.5-51.2V193.5c0-22.8-5.8-39.9-17.4-51.3  c-11.6-11.4-28.9-17.1-51.8-17.1H131.8c-23.1,0-40.4,5.7-51.9,17.1c-11.5,11.4-17.3,28.5-17.3,51.3v250.2c0,22.8,5.8,39.9,17.3,51.3  C91.4,506.3,108.7,512,131.8,512z M132.2,476.5c-11,0-19.5-2.9-25.4-8.8c-5.9-5.9-8.8-14.6-8.8-26V195.2c0-11.3,2.9-19.9,8.8-25.8  c5.9-5.9,14.3-8.8,25.4-8.8h247.3c10.9,0,19.3,2.9,25.4,8.8c6,5.9,9,14.5,9,25.8v246.4c0,11.5-2.7,20.1-8.2,26  c-5.4,5.9-12,8.8-19.6,8.8H132.2z M110.6,89.6h290.5c-1.6-10-5.1-17.7-10.4-23.1c-5.3-5.4-13.5-8.1-24.5-8.1H145.5  c-11,0-19.2,2.7-24.5,8.1C115.7,71.9,112.2,79.6,110.6,89.6z M149,28.5h214c-0.7-9.4-3.8-16.5-9.2-21.3C348.5,2.4,340.7,0,330.6,0  H181.2c-10.1,0-17.9,2.4-23.3,7.2C152.6,11.9,149.6,19,149,28.5z M238.6,482.4h157.3c8.2,0,14.7-1.4,19.3-4.2  c4.6-2.8,7.9-6.4,9.8-10.8c1.9-4.4,2.9-9,2.9-13.9c-1.3-11.6-6.2-23.2-14.7-34.7c-8.5-11.5-20-21.1-34.7-28.8  c-14.7-7.6-32.1-11.5-52.1-11.5c-15.9,0-30.2,2.5-42.9,7.5c-12.7,5-23.6,11.6-32.5,19.7c-9,8.2-15.8,17-20.5,26.5  s-7.1,18.7-7.1,27.7c0,7.5,1.4,13.1,4.3,16.9C230.5,480.6,234.2,482.4,238.6,482.4z M326.4,351.8c8.8,0,16.9-2.4,24.3-7.2  c7.4-4.8,13.3-11.3,17.8-19.4c4.5-8.2,6.7-17.3,6.7-27.5c0-10.1-2.2-19.2-6.7-27c-4.5-7.9-10.4-14.1-17.9-18.6  c-7.4-4.6-15.5-6.8-24.2-6.8c-8.7,0-16.8,2.3-24.3,6.9c-7.5,4.6-13.5,11-18,19c-4.5,8-6.7,17-6.7,27c0,10,2.3,19,6.8,27.1  c4.6,8.1,10.6,14.5,18,19.3C309.6,349.5,317.7,351.8,326.4,351.8z M185.4,378.1c-17.9,0-33.6,3.8-47.1,11.3  c-13.5,7.5-24,16.9-31.5,28.3c-7.6,11.4-11.6,23-12,34.7c0,8.2,2.2,15.3,6.6,21.2c4.4,5.9,12.1,8.8,23.2,8.8h77.2  c-2.8-7.1-4.2-14.6-4.2-22.5c0-13.4,3-26.1,8.9-38.3c6-12.1,14.2-22.9,24.6-32.3c-6-3.8-12.9-6.7-20.5-8.5  C202.9,379,194.5,378.1,185.4,378.1z M185.4,354.9c11.5,0,21.4-4.6,29.9-13.7c8.5-9.1,12.7-20.4,12.7-33.8c0-13.1-4.2-24-12.7-32.6  c-8.5-8.7-18.4-13-29.9-13c-11.3,0-21.3,4.4-29.9,13.1c-8.6,8.8-12.8,19.7-12.7,32.8c0,13.2,4.2,24.4,12.7,33.5  C164,350.4,173.9,354.9,185.4,354.9z"/>
</svg>