<?xml version="1.0" encoding="UTF-8"?>
<!--Generator: Apple Native CoreSVG 326-->
<!DOCTYPE svg
PUBLIC "-//W3C//DTD SVG 1.1//EN"
       "http://www.w3.org/Graphics/SVG/1.1/DTD/svg11.dtd">
<svg version="1.1" xmlns="http://www.w3.org/2000/svg" xmlns:xlink="http://www.w3.org/1999/xlink" viewBox="0 0 25.8008 25.459">
 <g>
  <rect height="25.459" opacity="0" width="25.8008" x="0" y="0"/>
  <path d="M12.7148 25.4395C19.7363 25.4395 25.4395 19.7461 25.4395 12.7246C25.4395 5.70312 19.7363 0 12.7148 0C5.69336 0 0 5.70312 0 12.7246C0 19.7461 5.69336 25.4395 12.7148 25.4395ZM12.7148 23.623C6.68945 23.623 1.81641 18.75 1.81641 12.7246C1.81641 6.69922 6.68945 1.82617 12.7148 1.82617C18.7402 1.82617 23.6133 6.69922 23.6133 12.7246C23.6133 18.75 18.7402 23.623 12.7148 23.623Z" fill="black" fill-opacity="0.85"/>
  <path d="M6.12305 12.7246C6.12305 11.9336 6.25 11.2012 6.49414 10.5078L5.24414 9.98047C4.92188 10.8203 4.74609 11.7676 4.74609 12.7246C4.74609 13.6719 4.92188 14.6094 5.24414 15.459L6.49414 14.9414C6.25977 14.248 6.12305 13.4961 6.12305 12.7246ZM9.89258 6.75781L9.3457 5.50781C7.66602 6.29883 6.28906 7.67578 5.49805 9.35547L6.74805 9.89258C7.39258 8.52539 8.51562 7.41211 9.89258 6.75781ZM12.7051 6.11328C13.4863 6.11328 14.2383 6.25 14.9316 6.49414L15.4492 5.24414C14.5996 4.93164 13.6621 4.73633 12.7051 4.73633C11.7578 4.73633 10.8105 4.93164 9.9707 5.24414L10.498 6.49414C11.1816 6.25 11.9336 6.11328 12.7051 6.11328ZM18.6719 9.89258L19.9414 9.35547C19.1309 7.67578 17.7539 6.29883 16.0742 5.48828L15.5469 6.75781C16.9141 7.40234 18.0273 8.51562 18.6719 9.89258ZM19.3262 12.7246C19.3262 13.4961 19.1895 14.248 18.9453 14.9414L20.1953 15.459C20.5078 14.6094 20.6934 13.6719 20.6934 12.7246C20.6934 11.7676 20.5078 10.8398 20.1953 9.99023L18.9453 10.5078C19.1895 11.2012 19.3262 11.9336 19.3262 12.7246ZM12.7148 20.6934C15.8496 20.6934 18.6523 18.7793 19.9414 16.084L18.6719 15.5469C18.4082 16.1035 18.1055 16.6113 17.6855 17.0508C16.8945 16.123 15.0781 15.1953 12.7148 15.1953C10.3613 15.1953 8.54492 16.123 7.73438 17.041C7.33398 16.6113 7.03125 16.1035 6.75781 15.5469L5.49805 16.084C6.77734 18.7793 9.58008 20.6934 12.7148 20.6934ZM12.7148 14.1406C14.2676 14.1504 15.5176 12.8125 15.5176 11.0938C15.5176 9.44336 14.2676 8.07617 12.7148 8.07617C11.1621 8.07617 9.90234 9.44336 9.92188 11.0938C9.92188 12.8125 11.1523 14.1309 12.7148 14.1406Z" fill="black" fill-opacity="0.85"/>
 </g>
</svg>
