<?xml version="1.0" ?><!-- Generator: Adobe Illustrator 25.0.0, SVG Export Plug-In . SVG Version: 6.00 Build 0)  --><svg xmlns="http://www.w3.org/2000/svg" xmlns:xlink="http://www.w3.org/1999/xlink" version="1.1" id="Layer_1" x="0px" y="0px" viewBox="0 0 512 512" style="enable-background:new 0 0 512 512;" xml:space="preserve">
<path d="M147.5,28.2h212.2C358.4,9.8,347.9,0,327.8,0H179.4C159.3,0,148.8,9.8,147.5,28.2z M108.5,88.8h288.2  C393.4,69.1,384,58,362.1,58H143.3C121.2,58,111.8,69.1,108.5,88.8z M130.8,512h256.9c39.2,0,62.1-22.8,62.1-67.8V192.1  c0-45.1-23.2-67.8-68.7-67.8H130.8c-45.7,0-68.7,22.5-68.7,67.8v252.1C62.1,489.2,85.1,512,130.8,512z M184.7,378.1  c-45.7,0-78.1,28.4-87.3,58.6V193.9c0-22.8,12-34.4,33.9-34.4h249.2c21.7,0,34.1,11.6,34.1,34.4V424c-15.5-24.7-47-45.5-90.1-45.5  c-62.8,0-102.2,45.3-102.2,80.7c0,7.9,1.8,13.8,4.8,17.5h-28c-1.5-5.5-2.4-11.4-2.4-17.5c0-26.5,12.7-51.2,33.3-70  C217.9,381.8,203,378.1,184.7,378.1z M324.5,352.1c26.3,0,48.4-23.4,48.4-53.6c0-30-22.3-52.1-48.4-52.1  c-25.8,0-48.6,22.8-48.6,52.5C276.1,328.6,298.4,352.1,324.5,352.1z M184.9,355.1c22.5,0,42-20.3,42-47c0-26-19.5-45.3-42-45.3  c-22.8,0-42.4,19.7-42.4,45.5C142.4,334.8,162.1,355.1,184.9,355.1z"/>
</svg>