<?xml version="1.0" encoding="UTF-8"?>
<!--Generator: Apple Native CoreSVG 326-->
<!DOCTYPE svg
PUBLIC "-//W3C//DTD SVG 1.1//EN"
       "http://www.w3.org/Graphics/SVG/1.1/DTD/svg11.dtd">
<svg version="1.1" xmlns="http://www.w3.org/2000/svg" xmlns:xlink="http://www.w3.org/1999/xlink" viewBox="0 0 29.9512 22.959">
 <g>
  <rect height="22.959" opacity="0" width="29.9512" x="0" y="0"/>
  <path d="M3.79883 22.959L25.7812 22.959C28.3105 22.959 29.5898 21.6797 29.5898 19.1992L29.5898 3.76953C29.5898 1.2793 28.3105 0 25.7812 0L3.79883 0C1.2793 0 0 1.26953 0 3.76953L0 19.1992C0 21.6992 1.2793 22.959 3.79883 22.959ZM3.83789 21.2305C2.4707 21.2305 1.72852 20.5078 1.72852 19.1016L1.72852 3.85742C1.72852 2.46094 2.4707 1.72852 3.83789 1.72852L25.752 1.72852C27.0898 1.72852 27.8516 2.46094 27.8516 3.85742L27.8516 19.1016C27.8516 20.5078 27.0898 21.2305 25.752 21.2305Z" fill="black" fill-opacity="0.85"/>
  <path d="M17.7539 7.08984L24.7656 7.08984C25.1562 7.08984 25.4492 6.78711 25.4492 6.40625C25.4492 6.02539 25.1562 5.73242 24.7656 5.73242L17.7539 5.73242C17.3535 5.73242 17.0605 6.02539 17.0605 6.40625C17.0605 6.78711 17.3535 7.08984 17.7539 7.08984ZM17.7539 12.168L24.7656 12.168C25.1562 12.168 25.4492 11.8652 25.4492 11.4844C25.4492 11.1133 25.1562 10.8203 24.7656 10.8203L17.7539 10.8203C17.3535 10.8203 17.0605 11.1133 17.0605 11.4844C17.0605 11.8652 17.3535 12.168 17.7539 12.168ZM17.7539 17.2461L24.7656 17.2461C25.1562 17.2461 25.4492 16.9531 25.4492 16.582C25.4492 16.2012 25.1562 15.8984 24.7656 15.8984L17.7539 15.8984C17.3535 15.8984 17.0605 16.2012 17.0605 16.582C17.0605 16.9531 17.3535 17.2461 17.7539 17.2461ZM4.41406 17.2461L14.4922 17.2461C14.873 17.2461 15.0586 17.002 15.0586 16.6504C15.0586 15.4395 13.2617 12.2949 9.45312 12.2949C5.64453 12.2949 3.85742 15.4395 3.85742 16.6504C3.85742 17.002 4.0332 17.2461 4.41406 17.2461ZM9.45312 11.4062C10.9961 11.416 12.2363 10.1074 12.2363 8.36914C12.2363 6.73828 10.9961 5.38086 9.45312 5.38086C7.91016 5.38086 6.66016 6.73828 6.66016 8.36914C6.66016 10.1074 7.91016 11.4062 9.45312 11.4062Z" fill="black" fill-opacity="0.85"/>
 </g>
</svg>
