<?xml version="1.0" ?><!-- Generator: Adobe Illustrator 25.0.0, SVG Export Plug-In . SVG Version: 6.00 Build 0)  --><svg xmlns="http://www.w3.org/2000/svg" xmlns:xlink="http://www.w3.org/1999/xlink" version="1.1" id="Layer_1" x="0px" y="0px" viewBox="0 0 512 512" style="enable-background:new 0 0 512 512;" xml:space="preserve">
<path d="M256,512c140,0,256-116.2,256-256C512,116,395.8,0,255.7,0C116,0,0,116,0,256C0,395.8,116.2,512,256,512z M256,469.3  c-118.5,0-213.1-94.9-213.1-213.3S137.3,42.7,255.7,42.7S469.1,137.5,469.3,256S374.5,469.3,256,469.3z M255.7,248.2  c35.6,0.3,64.5-30.1,64.5-70.3c0-37.6-28.9-69-64.5-69s-64.5,31.4-64.5,69C191.2,218.1,220.1,248,255.7,248.2z M141.1,383.2h229.4  c10,0,14.8-6.5,14.8-15.8c0-27.4-41.4-98.6-129.5-98.6s-129.5,71.3-129.5,98.6C126.2,376.7,131,383.2,141.1,383.2z"/>
</svg>