<?xml version="1.0" ?><!-- Generator: Adobe Illustrator 25.0.0, SVG Export Plug-In . SVG Version: 6.00 Build 0)  --><svg xmlns="http://www.w3.org/2000/svg" xmlns:xlink="http://www.w3.org/1999/xlink" version="1.1" id="Layer_1" x="0px" y="0px" viewBox="0 0 512 512" style="enable-background:new 0 0 512 512;" xml:space="preserve">
<path d="M87.3,512h337.3c58.4,0,87.3-28.9,87.3-86.2V86.2C512,28.9,483.1,0,424.7,0H87.3C29.2,0,0,28.6,0,86.2v339.6  C0,483.4,29.2,512,87.3,512z M44.8,423.6V88.4c0-28.9,15.3-43.7,43.1-43.7h336.2c27.5,0,43.1,14.7,43.1,43.7v335.1  c0,21.7-8.9,35.6-25,40.9c-24.2-68.1-97.6-115.7-186.1-115.7c-88.7,0-161.9,47.6-186.1,116C53.7,459.2,44.8,445.3,44.8,423.6z   M256.1,302.3c53.1,0.6,94.8-44.8,94.8-104.3c0-55.9-41.7-102.1-94.8-102.1c-53.1,0-95.4,46.2-95.1,102.1  C161.3,257.5,203,301.7,256.1,302.3z"/>
</svg>