<?xml version="1.0" ?><!-- Generator: Adobe Illustrator 25.0.0, SVG Export Plug-In . SVG Version: 6.00 Build 0)  --><svg xmlns="http://www.w3.org/2000/svg" xmlns:xlink="http://www.w3.org/1999/xlink" version="1.1" id="Layer_1" x="0px" y="0px" viewBox="0 0 512 512" style="enable-background:new 0 0 512 512;" xml:space="preserve">
<path d="M441.3,334.3c4.2,2.9,8.7,3.8,13.3,2.9c4.7-0.9,8.5-3.5,11.5-7.9c14.5-19.9,25.7-42.9,33.8-69.1C508,234,512,207,512,179.1  s-4-55-12-81.3c-8-26.4-19.3-49.3-33.9-68.9c-3-4.4-6.9-7-11.5-7.9c-4.7-0.9-9.1,0.1-13.3,2.9c-4.1,2.9-6.4,6.7-7,11.4  c-0.6,4.7,0.7,9.5,3.8,14.1c12.4,17.5,21.9,37.4,28.7,59.9c6.8,22.4,10.2,45.7,10.2,69.8s-3.4,47.3-10.3,69.7  c-6.9,22.4-16.4,42.4-28.6,60c-3.2,4.7-4.4,9.4-3.8,14.1C434.9,327.7,437.2,331.5,441.3,334.3z M357.7,275.4c3.8,2.7,8,3.6,12.7,2.7  c4.7-0.9,8.5-3.5,11.5-7.9c8.7-11.4,15.6-25.2,20.4-41.1c4.9-16,7.3-32.6,7.3-49.9s-2.4-34-7.3-49.9c-4.9-16-11.7-29.7-20.4-41.1  c-3-4.4-6.9-7-11.5-7.8c-4.7-0.8-8.9,0-12.7,2.6c-4.7,3.2-7.3,7.3-8,12.3c-0.7,5,0.8,9.9,4.4,14.6c6.6,9,11.7,19.6,15.3,31.6  c3.5,12.1,5.3,24.6,5.3,37.7c0,13.1-1.8,25.6-5.4,37.6c-3.6,12-8.7,22.6-15.1,31.7c-3.5,4.8-4.9,9.7-4.3,14.7  C350.4,268.1,353,272.2,357.7,275.4z" class="hierarchical-0:secondary SFSymbolsPreview4D4D4D" style="fill: #4D4D4D;"/>
<path d="M48.4,491.4h283.8c17.8,0,30.2-2.5,37.4-7.6c7.2-5,10.7-12.5,10.7-22.5c0-14.5-4.4-29.7-13.1-45.9  c-8.7-16.1-21.4-31.2-38-45.3c-16.6-14.1-36.6-25.5-60-34.3c-23.4-8.8-49.7-13.2-79-13.2c-29.4,0-55.8,4.4-79.2,13.2  c-23.4,8.8-43.4,20.3-59.9,34.3c-16.5,14.1-29.1,29.2-38,45.3C4.4,431.6,0,446.9,0,461.3c0,9.9,3.6,17.4,10.8,22.5  C18.1,488.9,30.6,491.4,48.4,491.4z M190.2,282.1c16.1,0,31-4.4,44.7-13.2c13.7-8.8,24.7-20.7,33.1-35.8c8.4-15.1,12.5-32,12.5-50.8  c0-18.5-4.2-35.1-12.5-49.8c-8.4-14.7-19.4-26.2-33.1-34.7c-13.7-8.4-28.6-12.7-44.7-12.7c-16.1,0-31,4.3-44.7,12.9  c-13.7,8.6-24.7,20.3-33.1,35c-8.4,14.8-12.5,31.3-12.5,49.7c0,18.7,4.2,35.5,12.5,50.5c8.4,15,19.4,26.9,33.1,35.7  C159.2,277.7,174.1,282.1,190.2,282.1z" class="hierarchical-1:primary SFSymbolsPreview212121" style="fill: #212121;"/>
</svg>