<?xml version="1.0" ?><!-- Generator: Adobe Illustrator 25.0.0, SVG Export Plug-In . SVG Version: 6.00 Build 0)  --><svg xmlns="http://www.w3.org/2000/svg" xmlns:xlink="http://www.w3.org/1999/xlink" version="1.1" id="Layer_1" x="0px" y="0px" viewBox="0 0 512 512" style="enable-background:new 0 0 512 512;" xml:space="preserve">
<path d="M256,255.2c31.9,0,57.8-28.4,57.8-62.9c0-34.1-25.6-61.2-57.8-61.2c-31.7,0-57.8,27.4-57.7,61.5  C198.3,226.9,224.3,255.2,256,255.2z M101.8,258.1c27.6,0,50.2-24.8,50.2-55.2c0-29.7-22.4-53.7-50.2-53.7  c-27.6,0-50.3,24.4-50.2,54C51.5,233.5,74.2,258.1,101.8,258.1z M410.2,258.1c27.6,0,50.2-24.6,50.2-54.9c0.1-29.6-22.6-54-50.2-54  c-27.9,0-50.2,24-50.2,53.7C360,233.4,382.7,258.1,410.2,258.1z M256,235c-19.5,0-36.2-18.7-36.2-42.4  c-0.1-23.3,16.3-41.2,36.2-41.2c20.1,0,36.3,17.7,36.3,41C292.3,216,275.8,235,256,235z M101.8,238.2c-16.5,0-30.3-15.7-30.3-34.9  c0-18.9,13.7-34,30.3-34c16.9,0,30.4,14.9,30.4,33.7C132.2,222.5,118.2,238.2,101.8,238.2z M410.2,238.2  c-16.5,0-30.4-15.7-30.4-35.2c0-18.9,13.5-33.7,30.4-33.7c16.6,0,30.3,15.1,30.3,34C440.5,222.5,426.6,238.2,410.2,238.2z   M27.2,380.9h105.1c-6.4-3.6-11.2-11.6-10.3-19.8H24c-2.8,0-4-1.1-4-3.6c0-33.2,37.9-64.3,81.7-64.3c16.7,0,32,4,45,11.6  c4.2-5.4,9.1-10,15.1-14.2c-17.3-11.4-38-17.3-60.1-17.3C45.5,273.4,0,314.1,0,358.7C0,373.6,9.1,380.9,27.2,380.9z M484.8,380.9  c18.1,0,27.2-7.4,27.2-22.2c0-44.6-45.5-85.3-101.6-85.3c-22.1,0-42.8,5.9-60.1,17.3c6,4.2,11,8.8,15.1,14.2  c13-7.6,28.1-11.6,45-11.6c43.8,0,81.7,31.1,81.7,64.3c0,2.5-1.2,3.6-4,3.6h-98c0.9,8.2-4,16.2-10.3,19.8H484.8z M171.9,380.9h168.2  c22.2,0,32.9-6.7,32.9-21.4c0-35.1-44.3-85.8-117-85.8c-72.7,0-117,50.7-117,85.8C139,374.2,149.6,380.9,171.9,380.9z M165.5,360.7  c-3.5,0-5-0.9-5-3.7c0-22,34-63.1,95.5-63.1c61.5,0,95.5,41.1,95.5,63.1c0,2.8-1.5,3.7-5,3.7H165.5z"/>
</svg>