<?xml version="1.0" ?><!-- Generator: Adobe Illustrator 25.0.0, SVG Export Plug-In . SVG Version: 6.00 Build 0)  --><svg xmlns="http://www.w3.org/2000/svg" xmlns:xlink="http://www.w3.org/1999/xlink" version="1.1" id="Layer_1" x="0px" y="0px" viewBox="0 0 512 512" style="enable-background:new 0 0 512 512;" xml:space="preserve">
<path d="M429.5,204.2c12.1,0,19.1-7.6,19.1-16.8v-2.8c0-13.5,7.8-21.7,24.1-32.6c22.9-15.1,39.2-28.8,39.2-57.2  c0-39.2-35-60.5-75.2-60.5c-40.4,0-67.1,19.4-73.8,41.1c-1.2,3.8-1.9,7.8-1.9,11.6c0,10.6,8.3,16.3,16.1,16.3  c13.5,0,15.6-7.1,23.2-16.1c7.8-13,19.1-20.8,35-20.8c21.5,0,35.5,12.3,35.5,30.3c0,16.1-9.9,23.9-30.5,38.3  c-17,11.8-29.5,24.3-29.5,47.5v3.1C410.8,197.9,417.4,204.2,429.5,204.2z M199,258.8c50.6,0,94.6-45.4,94.6-104.5  c0-58.4-44-101.6-94.6-101.6c-50.6,0-94.6,44.2-94.6,102.1C104.5,213.5,148.2,258.8,199,258.8z M429,274.7  c13.7,0,25.5-10.9,25.5-24.6c0-13.7-11.6-24.6-25.5-24.6c-13.9,0-25.5,11.1-25.5,24.6C403.5,263.6,415.3,274.7,429,274.7z   M50.3,477.7h296.9c37.3,0,50.6-10.6,50.6-31.4c0-61-76.4-145.1-199-145.1C76.4,301.1,0,385.3,0,446.3  C0,467.1,13.2,477.7,50.3,477.7z"/>
</svg>