<?xml version="1.0" encoding="UTF-8"?>
<!--Generator: Apple Native CoreSVG 326-->
<!DOCTYPE svg
PUBLIC "-//W3C//DTD SVG 1.1//EN"
       "http://www.w3.org/Graphics/SVG/1.1/DTD/svg11.dtd">
<svg version="1.1" xmlns="http://www.w3.org/2000/svg" xmlns:xlink="http://www.w3.org/1999/xlink" viewBox="0 0 25.8008 25.459">
 <g>
  <rect height="25.459" opacity="0" width="25.8008" x="0" y="0"/>
  <path d="M25.4395 12.7344C25.4395 19.7461 19.7266 25.459 12.7148 25.459C5.71289 25.459 0 19.7461 0 12.7344C0 5.73242 5.71289 0.0195312 12.7148 0.0195312C19.7266 0.0195312 25.4395 5.73242 25.4395 12.7344ZM6.07422 18.584C6.07422 19.0137 6.28906 19.3164 6.75781 19.3164L18.6719 19.3164C19.1504 19.3164 19.3555 19.0137 19.3555 18.584C19.3555 17.168 17.2363 13.4473 12.7148 13.4473C8.20312 13.4473 6.07422 17.168 6.07422 18.584ZM9.41406 8.7793C9.41406 10.8398 10.8887 12.3828 12.7148 12.3926C14.541 12.4023 16.0156 10.8398 16.0156 8.7793C16.0156 6.85547 14.541 5.25391 12.7148 5.25391C10.8887 5.25391 9.41406 6.85547 9.41406 8.7793Z" fill="black" fill-opacity="0.85"/>
 </g>
</svg>
