<?xml version="1.0" ?><!-- Generator: Adobe Illustrator 25.0.0, SVG Export Plug-In . SVG Version: 6.00 Build 0)  --><svg xmlns="http://www.w3.org/2000/svg" xmlns:xlink="http://www.w3.org/1999/xlink" version="1.1" id="Layer_1" x="0px" y="0px" viewBox="0 0 512 512" style="enable-background:new 0 0 512 512;" xml:space="preserve">
<path d="M176.5,250.3c44.8,0,83.8-40.2,83.8-92.6c0-51.8-39-90.1-83.8-90.1c-44.9,0-83.8,39.2-83.8,90.5  C92.6,210.1,131.4,250.3,176.5,250.3z M351.9,247.2c4.6,0,8.8-1.9,11.9-5.2l59.5-59.5l59.5,59.5c3.1,3.1,7.3,5.2,12.2,5.2  c9.2,0,16.8-7.8,16.8-17c0-4.8-1.9-8.6-5-11.9l-59.5-59.5L507,98.8c3.4-3.6,5-7.1,5-11.7c0-9.2-7.5-16.8-16.8-16.8  c-4.4,0-8.2,1.7-11.7,5.2l-60.2,59.7l-59.9-59.5c-3.1-3.4-6.9-5-11.5-5c-9.4,0-16.8,7.3-16.8,16.6c0,4.6,1.7,8.6,5,11.7l59.5,59.7  l-59.5,59.7c-3.4,3.1-5,7.1-5,11.7C335.1,239.4,342.5,247.2,351.9,247.2z M44.6,444.4h263.2c33.1,0,44.8-9.4,44.8-27.9  c0-54.1-67.7-128.7-176.5-128.7C67.7,287.9,0,362.5,0,416.5C0,435,11.7,444.4,44.6,444.4z"/>
</svg>