<?xml version="1.0" ?><!-- Generator: Adobe Illustrator 25.0.0, SVG Export Plug-In . SVG Version: 6.00 Build 0)  --><svg xmlns="http://www.w3.org/2000/svg" xmlns:xlink="http://www.w3.org/1999/xlink" version="1.1" id="Layer_1" x="0px" y="0px" viewBox="0 0 512 512" style="enable-background:new 0 0 512 512;" xml:space="preserve">
<path d="M256,512c140,0,256-116.2,256-256C512,116,395.8,0,255.7,0C116,0,0,116,0,256C0,395.8,116.2,512,256,512z M255.5,298.9  c-48.2-0.5-86.1-40.7-86.1-94.6c-0.3-50.7,38.1-92.9,86.1-92.9c48.2,0,86.1,42.2,86.1,92.9C341.6,258.3,303.9,299.4,255.5,298.9z   M255.5,473.9c-57.5,0-115.7-23.6-154.1-64.5c27.1-42.7,86.1-67.8,154.1-67.8c67.5,0,127,24.6,154.4,67.8  C371.2,450.3,313.2,473.9,255.5,473.9z"/>
</svg>