<?xml version="1.0" encoding="UTF-8"?>
<!--Generator: Apple Native CoreSVG 326-->
<!DOCTYPE svg
PUBLIC "-//W3C//DTD SVG 1.1//EN"
       "http://www.w3.org/Graphics/SVG/1.1/DTD/svg11.dtd">
<svg version="1.1" xmlns="http://www.w3.org/2000/svg" xmlns:xlink="http://www.w3.org/1999/xlink" viewBox="0 0 43.7012 29.5759">
 <g>
  <rect height="29.5759" opacity="0" width="43.7012" x="0" y="0"/>
  <path d="M41.1133 0.388551C42.7441 2.54675 43.7012 5.64246 43.7012 8.77722C43.7012 11.9022 42.7344 14.9784 41.1133 17.1659C40.8301 17.5761 40.332 17.6639 39.9316 17.3905C39.541 17.1268 39.4824 16.619 39.7852 16.1796C41.2012 14.1776 42.0312 11.5409 42.0312 8.77722C42.0312 6.01355 41.2207 3.36707 39.7852 1.37488C39.4727 0.925661 39.541 0.427614 39.9316 0.154176C40.332-0.119261 40.8301-0.0216051 41.1133 0.388551Z" fill="black" fill-opacity="0.85"/>
  <path d="M36.582 3.68933C37.5488 4.96863 38.1543 6.80457 38.1543 8.77722C38.1543 10.7401 37.5488 12.5858 36.582 13.8553C36.2988 14.2655 35.791 14.3534 35.4199 14.0995C34.9902 13.787 34.9316 13.2694 35.2539 12.8202C36.0449 11.7069 36.4844 10.3202 36.4844 8.77722C36.4844 7.22449 36.0547 5.828 35.2539 4.73425C34.9219 4.28504 34.9902 3.75769 35.4199 3.45496C35.791 3.20105 36.2988 3.27918 36.582 3.68933Z" fill="black" fill-opacity="0.85"/>
  <path d="M17.0166 18.3107C14.9505 20.1005 13.7891 22.3874 13.7891 24.4315C13.7891 25.0183 13.9126 25.5706 14.195 26.0428L4.30664 26.0428C2.82227 26.0428 2.20703 25.4569 2.20703 24.3339C2.20703 20.828 5.74219 16.6678 11.4062 16.6678C13.6377 16.6678 15.5383 17.3113 17.0166 18.3107ZM15.7812 9.91004C15.7812 12.6346 13.7891 14.744 11.4258 14.744C9.0625 14.744 7.06055 12.6346 7.06055 9.92957C7.06055 7.28308 9.08203 5.22254 11.4258 5.22254C13.7695 5.22254 15.7812 7.24402 15.7812 9.91004Z" fill="black" fill-opacity="0.85"/>
  <path d="M25.9277 14.4608C28.6523 14.4608 30.9375 12.0389 30.9375 8.91394C30.9375 5.8573 28.6328 3.52332 25.9277 3.52332C23.2324 3.52332 20.9277 5.89636 20.9277 8.93347C20.9277 12.0389 23.2129 14.4608 25.9277 14.4608ZM17.8613 26.0428L33.9746 26.0428C35.7812 26.0428 36.4844 25.5253 36.4844 24.4315C36.4844 21.1893 32.4316 16.7167 25.918 16.7167C19.4043 16.7167 15.3516 21.1893 15.3516 24.4315C15.3516 25.5253 16.0547 26.0428 17.8613 26.0428Z" fill="black" fill-opacity="0.85"/>
 </g>
</svg>
