<?xml version="1.0" ?><!-- Generator: Adobe Illustrator 25.0.0, SVG Export Plug-In . SVG Version: 6.00 Build 0)  --><svg xmlns="http://www.w3.org/2000/svg" xmlns:xlink="http://www.w3.org/1999/xlink" version="1.1" id="Layer_1" x="0px" y="0px" viewBox="0 0 512 512" style="enable-background:new 0 0 512 512;" xml:space="preserve">
<path d="M68.2,455.9h375.6c22.9,0,40-5.6,51.2-16.8c11.3-11.2,16.9-28,16.9-50.3V123.4c0-22.3-5.6-39.1-16.9-50.4  c-11.3-11.3-28.4-16.9-51.2-16.9H68.2C45.5,56.1,28.4,61.7,17,73C5.7,84.2,0,101,0,123.4v265.3c0,22.3,5.7,39,17,50.3  C28.4,450.3,45.5,455.9,68.2,455.9z" class="hierarchical-0:tertiary SFSymbolsPreview8E8E8E" style="fill: #8E8E8E;"/>
<path d="M81,356c-3.5,0-6.1-1.1-7.9-3.3c-1.8-2.2-2.7-4.8-2.7-8c0-5.2,1.9-11.8,5.8-19.9c3.8-8,9.7-16.1,17.6-24.3  s17.8-15,29.7-20.5c11.9-5.5,26-8.3,42.2-8.3c16.2,0,30.3,2.8,42.3,8.3c12,5.5,22,12.3,29.9,20.5c7.9,8.2,13.8,16.3,17.6,24.3  c3.8,8,5.8,14.7,5.8,19.9c0,3.2-0.9,5.9-2.7,8c-1.8,2.2-4.5,3.3-7.9,3.3H81z M165.7,256.5c-13,0-24.2-4.9-33.5-14.8  c-9.3-9.8-14-22.2-14-37.1c0-9.3,2.1-17.7,6.4-25.4c4.3-7.7,10-13.8,17.3-18.5c7.2-4.6,15.2-6.9,23.9-6.9c8.8,0,16.8,2.3,24,6.9  c7.2,4.6,12.9,10.8,17.2,18.5c4.3,7.7,6.4,16.1,6.4,25.4c0,14.9-4.6,27.3-13.9,37.1C190.1,251.6,178.8,256.5,165.7,256.5z   M307.2,184.5c-3.9,0-7.2-1.3-9.8-3.9c-2.6-2.6-3.9-5.8-3.9-9.6c0-3.8,1.3-6.9,3.9-9.4c2.6-2.5,5.9-3.8,9.8-3.8h118.6  c3.8,0,7,1.3,9.6,3.8c2.6,2.5,3.9,5.7,3.9,9.4c0,3.8-1.3,6.9-3.9,9.6c-2.6,2.6-5.8,3.9-9.6,3.9H307.2z M307.2,269.6  c-3.9,0-7.2-1.3-9.8-3.9c-2.6-2.6-3.9-5.9-3.9-9.8c0-3.6,1.3-6.7,3.9-9.2c2.6-2.5,5.9-3.8,9.8-3.8h118.6c3.8,0,7,1.3,9.6,3.8  c2.6,2.5,3.9,5.6,3.9,9.2c0,3.9-1.3,7.2-3.9,9.8c-2.6,2.6-5.8,3.9-9.6,3.9H307.2z M307.2,354.5c-3.9,0-7.2-1.3-9.8-3.8  c-2.6-2.5-3.9-5.6-3.9-9.2c0-3.8,1.3-7,3.9-9.7c2.6-2.7,5.9-4,9.8-4h118.6c3.8,0,7,1.3,9.6,4c2.6,2.7,3.9,5.9,3.9,9.7  c0,3.6-1.3,6.7-3.9,9.2c-2.6,2.5-5.8,3.8-9.6,3.8H307.2z" class="hierarchical-1:primary SFSymbolsPreview212121" style="fill: #212121;"/>
</svg>