<?xml version="1.0" ?><!-- Generator: Adobe Illustrator 25.0.0, SVG Export Plug-In . SVG Version: 6.00 Build 0)  --><svg xmlns="http://www.w3.org/2000/svg" xmlns:xlink="http://www.w3.org/1999/xlink" version="1.1" id="Layer_1" x="0px" y="0px" viewBox="0 0 512 512" style="enable-background:new 0 0 512 512;" xml:space="preserve">
<path d="M256,512c140,0,256-116,256-256C512,116.2,395.8,0,255.7,0C116,0,0,116.2,0,256C0,396,116.2,512,256,512z M322,243.2  c-27.1,0-50.2-24.6-50.4-56c0-30.4,23.3-54.2,50.4-54.2c26.9,0,50.2,23.1,50.2,54C372.2,218.6,349.1,243.2,322,243.2z M176.9,245.7  c-23.6,0-43.9-21.1-43.9-48.4c-0.3-26.6,20.6-47.2,43.9-47.2c23.3,0,43.7,20.1,43.7,46.9C220.6,224.6,200.3,245.7,176.9,245.7z   M106.4,359.7c-15.8,0-22.1-6.5-22.1-18.1c0-34.6,35.6-76.5,92.6-76.5c23.1,0,41.2,7,55.5,16.3c-27.1,20.8-43.2,59.2-30.1,78.3  H106.4z M242.9,359.7c-20.1,0-27.4-6-27.4-16.8c0-32.6,40.9-77.3,106.4-77.3c65.3,0,105.9,44.7,105.9,77.3c0,10.8-7,16.8-27.1,16.8  H242.9z"/>
</svg>