<?xml version="1.0" encoding="UTF-8"?>
<!--Generator: Apple Native CoreSVG 326-->
<!DOCTYPE svg
PUBLIC "-//W3C//DTD SVG 1.1//EN"
       "http://www.w3.org/Graphics/SVG/1.1/DTD/svg11.dtd">
<svg version="1.1" xmlns="http://www.w3.org/2000/svg" xmlns:xlink="http://www.w3.org/1999/xlink" viewBox="0 0 22.0996 26.4941">
 <g>
  <rect height="26.4941" opacity="0" width="22.0996" x="0" y="0"/>
  <path d="M10.8691 9.0332C13.2129 9.0332 15.0586 7.02148 15.0586 4.46289C15.0586 1.99219 13.1934 0 10.8691 0C8.51562 0 6.66016 2.00195 6.66992 4.48242C6.68945 7.03125 8.50586 9.0332 10.8691 9.0332ZM10.8691 7.5C9.38477 7.5 8.28125 6.23047 8.28125 4.48242C8.28125 2.80273 9.39453 1.5332 10.8691 1.5332C12.3242 1.5332 13.4473 2.80273 13.4473 4.46289C13.4473 6.2207 12.3438 7.5 10.8691 7.5ZM3.97461 18.1055L17.7246 18.1055C18.7891 18.1055 19.375 17.5488 19.375 16.5918C19.375 14.0234 16.1328 10.3223 10.8496 10.3223C5.57617 10.3223 2.34375 14.0234 2.34375 16.5918C2.34375 17.5488 2.91992 18.1055 3.97461 18.1055ZM4.45312 16.5723C4.08203 16.5723 3.95508 16.4746 3.97461 16.2207C4.16016 14.5703 6.5918 11.8555 10.8496 11.8555C15.1172 11.8555 17.5488 14.5703 17.7441 16.2207C17.7637 16.4746 17.627 16.5723 17.2559 16.5723ZM0.869141 26.4941L20.8691 26.4941C21.3379 26.4941 21.7383 26.1035 21.7383 25.625C21.7383 25.1562 21.3379 24.7656 20.8691 24.7656L20.0977 24.7656L20.0977 21.4941C20.0977 20.3223 19.5215 19.668 18.2715 19.668L3.4668 19.668C2.2168 19.668 1.64062 20.3223 1.64062 21.4941L1.64062 24.7656L0.869141 24.7656C0.390625 24.7656 0 25.1562 0 25.625C0 26.1035 0.390625 26.4941 0.869141 26.4941ZM8.27148 23.8086C7.88086 23.8086 7.58789 23.5059 7.58789 23.1152C7.58789 22.7246 7.88086 22.4414 8.27148 22.4414L13.4766 22.4414C13.877 22.4414 14.1602 22.7246 14.1602 23.1152C14.1602 23.5059 13.877 23.8086 13.4766 23.8086Z" fill="black" fill-opacity="0.85"/>
 </g>
</svg>
