<?xml version="1.0" ?><!-- Generator: Adobe Illustrator 25.0.0, SVG Export Plug-In . SVG Version: 6.00 Build 0)  --><svg xmlns="http://www.w3.org/2000/svg" xmlns:xlink="http://www.w3.org/1999/xlink" version="1.1" id="Layer_1" x="0px" y="0px" viewBox="0 0 512 512" style="enable-background:new 0 0 512 512;" xml:space="preserve">
<path d="M68.2,455.9h375.6c22.9,0,40-5.6,51.2-16.8c11.3-11.2,16.9-28,16.9-50.3V123.4c0-22.3-5.6-39.1-16.9-50.4  c-11.3-11.3-28.4-16.9-51.2-16.9H68.2C45.5,56.1,28.4,61.7,17,73C5.7,84.2,0,101,0,123.4v265.3c0,22.3,5.7,39,17,50.3  C28.4,450.3,45.5,455.9,68.2,455.9z M68.6,420.9c-10.9,0-19.2-2.9-25-8.6c-5.8-5.7-8.7-14.2-8.7-25.5V125.4  c0-11.3,2.9-19.8,8.7-25.6c5.8-5.8,14.1-8.7,25-8.7h374.8c10.7,0,19,2.9,24.9,8.7c5.9,5.8,8.8,14.3,8.8,25.6v261.4  c0,11.3-2.9,19.8-8.8,25.5c-5.9,5.7-14.2,8.6-24.9,8.6H68.6z" class="hierarchical-0:secondary SFSymbolsPreview4D4D4D" style="fill: #4D4D4D;"/>
<path d="M81,354.5h169.6c3.5,0,6.1-1.1,7.9-3.3c1.8-2.2,2.7-4.8,2.7-8c0-5.1-1.9-11.7-5.8-19.8c-3.8-8.1-9.7-16.2-17.6-24.4  c-7.9-8.2-17.8-15-29.9-20.5c-12-5.5-26.1-8.3-42.3-8.3c-16.2,0-30.3,2.8-42.2,8.3c-11.9,5.5-21.9,12.3-29.7,20.5  s-13.8,16.3-17.6,24.4c-3.8,8.1-5.8,14.7-5.8,19.8c0,3.2,0.9,5.9,2.7,8C74.9,353.4,77.5,354.5,81,354.5z M165.7,255  c13.2,0,24.4-4.9,33.7-14.8c9.3-9.8,13.9-22.2,13.9-37.1c0-9.3-2.1-17.7-6.4-25.4c-4.3-7.7-10-13.8-17.2-18.5  c-7.2-4.6-15.2-6.9-24-6.9c-8.7,0-16.6,2.3-23.9,6.9s-13,10.8-17.3,18.5c-4.3,7.7-6.4,16.1-6.4,25.4c0,14.9,4.7,27.3,14,37.1  C141.5,250.1,152.6,255,165.7,255z M307.2,269.6h118.6c3.8,0,7-1.3,9.6-3.9c2.6-2.6,3.9-5.9,3.9-9.8c0-3.6-1.3-6.7-3.9-9.2  c-2.6-2.5-5.8-3.8-9.6-3.8H307.2c-3.9,0-7.2,1.3-9.8,3.8c-2.6,2.5-3.9,5.6-3.9,9.2c0,3.9,1.3,7.2,3.9,9.8  C300.1,268.3,303.3,269.6,307.2,269.6z M307.2,184.5h118.6c3.8,0,7-1.3,9.6-3.9c2.6-2.6,3.9-5.8,3.9-9.6c0-3.8-1.3-6.9-3.9-9.4  c-2.6-2.5-5.8-3.8-9.6-3.8H307.2c-3.9,0-7.2,1.3-9.8,3.8c-2.6,2.5-3.9,5.7-3.9,9.4c0,3.8,1.3,6.9,3.9,9.6  C300.1,183.2,303.3,184.5,307.2,184.5z M307.2,354.5h118.6c3.8,0,7-1.3,9.6-3.8c2.6-2.5,3.9-5.6,3.9-9.2c0-3.8-1.3-7-3.9-9.7  c-2.6-2.7-5.8-4-9.6-4H307.2c-3.9,0-7.2,1.3-9.8,4c-2.6,2.7-3.9,5.9-3.9,9.7c0,3.6,1.3,6.7,3.9,9.2  C300.1,353.2,303.3,354.5,307.2,354.5z" class="hierarchical-1:primary SFSymbolsPreview212121" style="fill: #212121;"/>
</svg>