<?xml version="1.0" encoding="UTF-8"?>
<!--Generator: Apple Native CoreSVG 326-->
<!DOCTYPE svg
PUBLIC "-//W3C//DTD SVG 1.1//EN"
       "http://www.w3.org/Graphics/SVG/1.1/DTD/svg11.dtd">
<svg version="1.1" xmlns="http://www.w3.org/2000/svg" xmlns:xlink="http://www.w3.org/1999/xlink" viewBox="0 0 30.8984 29.5759">
 <g>
  <rect height="29.5759" opacity="0" width="30.8984" x="0" y="0"/>
  <path d="M27.1289 17.3905C27.5293 17.6639 28.0273 17.5761 28.3105 17.1659C29.9316 14.9784 30.8984 11.9022 30.8984 8.77722C30.8984 5.64246 29.9414 2.54675 28.3105 0.388551C28.0273-0.0216051 27.5293-0.119261 27.1289 0.154176C26.7383 0.427614 26.6699 0.925661 26.9824 1.37488C28.418 3.36707 29.2285 6.01355 29.2285 8.77722C29.2285 11.5409 28.3984 14.1776 26.9824 16.1796C26.6797 16.619 26.7383 17.1268 27.1289 17.3905Z" fill="black" fill-opacity="0.85"/>
  <path d="M22.6172 14.0995C22.9883 14.3534 23.4863 14.2655 23.7793 13.8553C24.7461 12.5858 25.3516 10.7401 25.3516 8.77722C25.3516 6.80457 24.7461 4.96863 23.7793 3.68933C23.4863 3.27918 22.9883 3.20105 22.6172 3.45496C22.1875 3.75769 22.1191 4.28504 22.4512 4.73425C23.252 5.828 23.6816 7.22449 23.6816 8.77722C23.6816 10.3202 23.2422 11.7069 22.4512 12.8202C22.1289 13.2694 22.1875 13.787 22.6172 14.0995Z" fill="black" fill-opacity="0.85"/>
  <path d="M5.06836 26.3456L21.1719 26.3456C23.1152 26.3456 24.0332 25.7401 24.0332 24.4315C24.0332 21.1405 19.8926 16.4139 13.125 16.4139C6.35742 16.4139 2.20703 21.1405 2.20703 24.4315C2.20703 25.7401 3.13477 26.3456 5.06836 26.3456ZM4.59961 24.7147C4.11133 24.7147 3.94531 24.5878 3.94531 24.2362C3.94531 21.9608 7.25586 18.0546 13.125 18.0546C18.9941 18.0546 22.3047 21.9608 22.3047 24.2362C22.3047 24.5878 22.1289 24.7147 21.6504 24.7147ZM13.1348 14.7538C16.0938 14.7538 18.4863 12.1464 18.4863 8.91394C18.4863 5.74011 16.0938 3.22058 13.1348 3.22058C10.1953 3.22058 7.77344 5.77918 7.79297 8.93347C7.80273 12.1561 10.1758 14.7538 13.1348 14.7538ZM13.1348 13.1229C11.1621 13.1229 9.52148 11.287 9.52148 8.93347C9.50195 6.64832 11.1523 4.85144 13.1348 4.85144C15.127 4.85144 16.7578 6.61902 16.7578 8.91394C16.7578 11.2675 15.127 13.1229 13.1348 13.1229Z" fill="black" fill-opacity="0.85"/>
 </g>
</svg>
