<?xml version="1.0" encoding="UTF-8"?>
<!--Generator: Apple Native CoreSVG 326-->
<!DOCTYPE svg
PUBLIC "-//W3C//DTD SVG 1.1//EN"
       "http://www.w3.org/Graphics/SVG/1.1/DTD/svg11.dtd">
<svg version="1.1" xmlns="http://www.w3.org/2000/svg" xmlns:xlink="http://www.w3.org/1999/xlink" viewBox="0 0 44.1699 20.4395">
 <g>
  <rect height="20.4395" opacity="0" width="44.1699" x="0" y="0"/>
  <path d="M9.23828 10.1855C11.8555 10.1855 13.9746 7.88086 13.9746 5.03906C13.9746 2.23633 11.8555 0 9.23828 0C6.63086 0 4.51172 2.27539 4.51172 5.04883C4.51172 7.90039 6.63086 10.1855 9.23828 10.1855ZM9.23828 8.55469C7.57812 8.55469 6.23047 7.03125 6.23047 5.04883C6.23047 3.125 7.57812 1.63086 9.23828 1.63086C10.8984 1.63086 12.2559 3.0957 12.2559 5.03906C12.2559 7.01172 10.9082 8.55469 9.23828 8.55469ZM2.51953 20.3809L15.9277 20.3809C17.6074 20.3809 18.457 19.7949 18.457 18.6035C18.457 15.7227 15.127 11.5723 9.22852 11.5723C3.33008 11.5723 0 15.7227 0 18.6035C0 19.7949 0.849609 20.3809 2.51953 20.3809ZM2.13867 18.75C1.8457 18.75 1.72852 18.623 1.72852 18.3984C1.72852 16.543 4.21875 13.2129 9.22852 13.2129C14.2383 13.2129 16.7285 16.543 16.7285 18.3984C16.7285 18.623 16.6113 18.75 16.3184 18.75ZM34.5898 10.2344C37.207 10.2344 39.3262 7.92969 39.3262 5.08789C39.3262 2.28516 37.207 0.0488281 34.5898 0.0488281C31.9824 0.0488281 29.8633 2.32422 29.8633 5.09766C29.8633 7.94922 31.9824 10.2344 34.5898 10.2344ZM34.5898 8.60352C32.9297 8.60352 31.582 7.08008 31.582 5.09766C31.582 3.17383 32.9297 1.67969 34.5898 1.67969C36.25 1.67969 37.6074 3.14453 37.6074 5.08789C37.6074 7.06055 36.2598 8.60352 34.5898 8.60352ZM27.8711 20.4297L41.2793 20.4297C42.9492 20.4297 43.8086 19.8438 43.8086 18.6523C43.8086 15.7715 40.4785 11.6309 34.5801 11.6309C28.6816 11.6309 25.3516 15.7715 25.3516 18.6523C25.3516 19.8438 26.2012 20.4297 27.8711 20.4297ZM27.4902 18.7988C27.1973 18.7988 27.0801 18.6719 27.0801 18.4473C27.0801 16.5918 29.5605 13.2617 34.5801 13.2617C39.5898 13.2617 42.0801 16.5918 42.0801 18.4473C42.0801 18.6719 41.9629 18.7988 41.6699 18.7988Z" fill="black" fill-opacity="0.85"/>
  <path d="M17.9395 10.2344C18.4766 10.2344 18.9258 9.78516 18.9258 9.24805C18.9258 8.70117 18.4766 8.26172 17.9395 8.26172C17.3926 8.26172 16.9434 8.70117 16.9434 9.24805C16.9434 9.78516 17.3926 10.2344 17.9395 10.2344ZM21.9043 10.2344C22.4414 10.2344 22.8906 9.78516 22.8906 9.24805C22.8906 8.70117 22.4414 8.26172 21.9043 8.26172C21.3574 8.26172 20.918 8.70117 20.918 9.24805C20.918 9.78516 21.3574 10.2344 21.9043 10.2344ZM25.8594 10.2344C26.4062 10.2344 26.8457 9.78516 26.8457 9.24805C26.8457 8.70117 26.4062 8.26172 25.8594 8.26172C25.3223 8.26172 24.873 8.70117 24.873 9.24805C24.873 9.78516 25.3223 10.2344 25.8594 10.2344Z" fill="black" fill-opacity="0.85"/>
 </g>
</svg>
