<?xml version="1.0" encoding="UTF-8"?>
<!--Generator: Apple Native CoreSVG 326-->
<!DOCTYPE svg
PUBLIC "-//W3C//DTD SVG 1.1//EN"
       "http://www.w3.org/Graphics/SVG/1.1/DTD/svg11.dtd">
<svg version="1.1" xmlns="http://www.w3.org/2000/svg" xmlns:xlink="http://www.w3.org/1999/xlink" viewBox="0 0 37.666 32.9541">
 <g>
  <rect height="32.9541" opacity="0" width="37.666" x="0" y="0"/>
  <path d="M16.2407 19.6593C15.8015 20.0193 15.4047 20.4036 15.0579 20.8069C13.7947 20.1005 12.2822 19.6753 10.6836 19.6753C6.44531 19.6753 2.80273 22.6636 2.80273 25.9448C2.80273 26.2964 2.96875 26.4331 3.34961 26.4331L12.738 26.4331C12.7804 27.0318 12.9546 27.5753 13.2736 28.0347L3.58398 28.0347C1.99219 28.0347 1.19141 27.3706 1.19141 26.0327C1.19141 21.9702 5.3125 18.0835 10.6836 18.0835C12.7866 18.0835 14.6988 18.6816 16.2407 19.6593ZM8.6188 9.01562C8.02747 9.63452 7.65625 10.5135 7.65625 11.482C7.65625 13.4351 9.0332 14.978 10.6934 14.978C11.6973 14.978 12.5953 14.4204 13.1494 13.5445L14.3054 14.7001C13.4562 15.8564 12.1566 16.5894 10.6934 16.5894C8.125 16.5894 6.04492 14.3238 6.04492 11.482C6.04492 10.078 6.59844 8.79504 7.48451 7.88175ZM14.6217 8.79898L12.8802 7.0575C13.5945 7.4642 14.1959 8.06616 14.6217 8.79898Z" fill="black" fill-opacity="0.85"/>
  <path d="M20.3732 20.7657C17.5457 22.0777 16.0156 24.3784 16.0156 25.9253C16.0156 26.2769 16.1914 26.4038 16.6699 26.4038L26.0134 26.4038L27.6449 28.0347L17.1484 28.0347C15.2051 28.0347 14.2871 27.4292 14.2871 26.1206C14.2871 23.9728 16.0548 21.2136 19.1704 19.5633ZM36.1133 26.1206C36.1133 27.29 35.3803 27.8979 33.8352 28.0125L32.2266 26.4038L33.7305 26.4038C34.209 26.4038 34.3848 26.2769 34.3848 25.9253C34.3848 23.7013 31.222 19.9192 25.5824 19.7597L23.9788 18.1561C24.3739 18.1209 24.7797 18.103 25.1953 18.103C31.9629 18.103 36.1133 22.8296 36.1133 26.1206ZM30.5566 10.603C30.5566 13.8355 28.1738 16.4429 25.2148 16.4429C22.2559 16.4429 19.8633 13.8452 19.8633 10.6226C19.8633 7.46828 22.2656 4.90969 25.2148 4.90969C28.1738 4.90969 30.5566 7.42922 30.5566 10.603ZM21.5918 10.6226C21.5918 12.9761 23.2324 14.812 25.2148 14.812C27.1973 14.812 28.8281 12.9566 28.8281 10.603C28.8281 8.30813 27.207 6.54055 25.2148 6.54055C23.2227 6.54055 21.5918 8.33742 21.5918 10.6226Z" fill="black" fill-opacity="0.85"/>
  <path d="M32.8906 31.3452C33.2129 31.6773 33.75 31.6773 34.0723 31.3452C34.3945 31.0132 34.4043 30.5054 34.0723 30.1734L7.65625 3.75734C7.32422 3.43508 6.80664 3.42531 6.47461 3.75734C6.15234 4.07961 6.15234 4.62649 6.47461 4.93899Z" fill="black" fill-opacity="0.85"/>
 </g>
</svg>
