<?xml version="1.0" ?><!-- Generator: Adobe Illustrator 25.0.0, SVG Export Plug-In . SVG Version: 6.00 Build 0)  --><svg xmlns="http://www.w3.org/2000/svg" xmlns:xlink="http://www.w3.org/1999/xlink" version="1.1" id="Layer_1" x="0px" y="0px" viewBox="0 0 512 512" style="enable-background:new 0 0 512 512;" xml:space="preserve">
<path d="M354,250.9c40.4,0,75.2-36.1,75.2-83c0-46.4-34.9-80.8-75.2-80.8c-40,0-75.2,35.1-75,81.2C279,214.9,313.8,250.9,354,250.9z   M137.7,255.2c35.1,0,65.4-31.6,65.4-72.3c0-40.4-30.4-70.3-65.4-70.3c-34.8,0-65.6,30.6-65.4,70.6  C72.3,223.7,102.8,255.2,137.7,255.2z M33.1,424.9h142.6c-19.5-28.4,4.3-85.5,44.9-116.7c-21-13.9-47.9-24.2-82.9-24.2  C53,284,0,346.6,0,398.6C0,415.5,9.2,424.9,33.1,424.9z M236,424.9h236c29.5,0,40-8.5,40-25c0-48.5-60.7-115.4-158-115.4  c-97.5,0-158.2,66.9-158.2,115.4C195.8,416.5,206.3,424.9,236,424.9z"/>
</svg>