<?xml version="1.0" ?><!-- Generator: Adobe Illustrator 25.0.0, SVG Export Plug-In . SVG Version: 6.00 Build 0)  --><svg xmlns="http://www.w3.org/2000/svg" xmlns:xlink="http://www.w3.org/1999/xlink" version="1.1" id="Layer_1" x="0px" y="0px" viewBox="0 0 512 512" style="enable-background:new 0 0 512 512;" xml:space="preserve">
<path d="M86.4,512h339.3c24,0,42.2-6,54.3-18c12.2-12,18.3-29.9,18.3-53.7V202.8c0-23.7-6.1-41.6-18.3-53.7  c-12.2-12-30.3-18-54.3-18H86.4c-24.2,0-42.4,6-54.5,17.9c-12.1,11.9-18.2,29.9-18.2,53.8v237.5c0,23.9,6.1,41.8,18.2,53.8  S62.2,512,86.4,512z M86.8,474.8c-11.6,0-20.4-3.1-26.6-9.3c-6.2-6.2-9.3-15.3-9.3-27.3V204.9c0-12,3.1-21.1,9.3-27.3  c6.2-6.2,15-9.3,26.6-9.3h338.1c11.4,0,20.3,3.1,26.6,9.3c6.3,6.2,9.5,15.3,9.5,27.3v233.3c0,12-3.2,21.1-9.5,27.3  c-6.3,6.2-15.2,9.3-26.6,9.3H86.8z M62.6,93.9h387.1c-1.9-10.5-5.5-18.5-11-24.2c-5.5-5.6-14-8.4-25.6-8.4h-314  c-11.6,0-20.1,2.8-25.7,8.4C67.9,75.4,64.3,83.4,62.6,93.9z M110.2,29.8H402c-0.8-9.9-4-17.3-9.6-22.3C386.8,2.5,378.7,0,368,0H144  c-10.6,0-18.8,2.5-24.4,7.5C113.9,12.5,110.8,20,110.2,29.8z M111.8,493.3h288.8c-3.1-14.8-8.9-28.4-17.5-40.7  c-8.6-12.3-19.2-23.1-32-32.3S323.9,404,307.8,399c-16.1-5-33.3-7.5-51.7-7.5c-18.2,0-35.3,2.5-51.5,7.5  c-16.1,5-30.6,12.1-43.4,21.3c-12.8,9.2-23.5,19.9-32,32.3C120.7,464.9,114.9,478.5,111.8,493.3z M256.1,356.6  c13.4,0.2,25.6-3.2,36.4-10.2c10.9-6.9,19.5-16.3,25.9-28.2c6.4-11.9,9.6-25.3,9.6-40.2c0-14-3.2-26.9-9.6-38.6  c-6.4-11.7-15-21-25.9-28c-10.9-6.9-23-10.4-36.4-10.4c-13.3,0-25.3,3.5-36.2,10.4c-10.9,6.9-19.5,16.3-25.9,28  c-6.4,11.7-9.6,24.6-9.6,38.6c0.2,15,3.4,28.3,9.7,40.1c6.3,11.8,14.9,21.1,25.8,28C230.8,352.9,242.9,356.4,256.1,356.6z"/>
</svg>