<?xml version="1.0" encoding="UTF-8"?>
<!--Generator: Apple Native CoreSVG 326-->
<!DOCTYPE svg
PUBLIC "-//W3C//DTD SVG 1.1//EN"
       "http://www.w3.org/Graphics/SVG/1.1/DTD/svg11.dtd">
<svg version="1.1" xmlns="http://www.w3.org/2000/svg" xmlns:xlink="http://www.w3.org/1999/xlink" viewBox="0 0 47.7832 25.8105">
 <g>
  <rect height="25.8105" opacity="0" width="47.7832" x="0" y="0"/>
  <path d="M14.8237 16.5375C12.7673 18.3237 11.6113 20.6022 11.6113 22.6367C11.6113 23.2306 11.764 23.7854 12.0574 24.2578L2.09961 24.2578C0.615234 24.2578 0 23.6719 0 22.5391C0 19.0332 3.53516 14.8828 9.19922 14.8828C11.4379 14.8828 13.3439 15.5311 14.8237 16.5375ZM13.5645 8.125C13.5645 10.8496 11.5723 12.9492 9.20898 12.9492C6.8457 12.9492 4.85352 10.8496 4.85352 8.14453C4.85352 5.49805 6.86523 3.42773 9.20898 3.42773C11.5527 3.42773 13.5645 5.45898 13.5645 8.125Z" fill="black" fill-opacity="0.85"/>
  <path d="M47.4219 22.5391C47.4219 23.6719 46.8066 24.2578 45.332 24.2578L35.4111 24.2578C35.7056 23.7854 35.8594 23.2306 35.8594 22.6367C35.8594 20.5952 34.6954 18.308 32.6254 16.5185C34.1016 15.5231 35.9979 14.8828 38.2227 14.8828C43.8867 14.8828 47.4219 19.0332 47.4219 22.5391ZM42.5879 8.125C42.5879 10.8496 40.6055 12.9492 38.2422 12.9492C35.8789 12.9492 33.877 10.8496 33.877 8.14453C33.877 5.49805 35.8887 3.42773 38.2422 3.42773C40.5859 3.42773 42.5879 5.45898 42.5879 8.125Z" fill="black" fill-opacity="0.85"/>
  <path d="M23.7402 12.666C26.4648 12.666 28.75 10.2539 28.75 7.11914C28.75 4.0625 26.4453 1.72852 23.7402 1.72852C21.0449 1.72852 18.7402 4.10156 18.7402 7.13867C18.7402 10.2539 21.0254 12.666 23.7402 12.666ZM15.2246 24.2578L32.2461 24.2578C33.5156 24.2578 34.2969 23.6426 34.2969 22.6367C34.2969 19.3945 30.2441 14.9219 23.7305 14.9219C17.2168 14.9219 13.1641 19.3945 13.1641 22.6367C13.1641 23.6426 13.9453 24.2578 15.2246 24.2578Z" fill="black" fill-opacity="0.85"/>
 </g>
</svg>
