<?xml version="1.0" encoding="UTF-8"?>
<!--Generator: Apple Native CoreSVG 326-->
<!DOCTYPE svg
PUBLIC "-//W3C//DTD SVG 1.1//EN"
       "http://www.w3.org/Graphics/SVG/1.1/DTD/svg11.dtd">
<svg version="1.1" xmlns="http://www.w3.org/2000/svg" xmlns:xlink="http://www.w3.org/1999/xlink" viewBox="0 0 37.0312 33.1446">
 <g>
  <rect height="33.1446" opacity="0" width="37.0312" x="0" y="0"/>
  <path d="M16.001 20.0951C13.9349 21.8848 12.7734 24.1717 12.7734 26.2158C12.7734 26.8026 12.897 27.3549 13.1794 27.8272L3.29102 27.8272C1.80664 27.8272 1.19141 27.2412 1.19141 26.1182C1.19141 22.6123 4.72656 18.4522 10.3906 18.4522C12.622 18.4522 14.5227 19.0956 16.001 20.0951ZM13.9427 14.5207C13.1477 15.748 11.8476 16.5283 10.4102 16.5283C8.04688 16.5283 6.04492 14.419 6.04492 11.7139C6.04492 10.2724 6.64465 9.00474 7.57218 8.15249Z" fill="black" fill-opacity="0.85"/>
  <path d="M27.2541 27.8272L16.8457 27.8272C15.0391 27.8272 14.3359 27.3096 14.3359 26.2158C14.3359 24.0643 16.1207 21.3709 19.2333 19.8093ZM35.4688 26.2158C35.4688 27.2055 34.8931 27.7234 33.442 27.8115L24.1664 18.5325C24.4033 18.5077 24.651 18.501 24.9023 18.501C31.416 18.501 35.4688 22.9737 35.4688 26.2158ZM29.9219 10.6983C29.9219 13.8233 27.6367 16.2451 24.9121 16.2451C22.1973 16.2451 19.9121 13.8233 19.9121 10.7178C19.9121 7.68068 22.2168 5.30764 24.9121 5.30764C27.6172 5.30764 29.9219 7.64162 29.9219 10.6983Z" fill="black" fill-opacity="0.85"/>
  <path d="M32.8906 31.5381C33.2129 31.8604 33.75 31.8604 34.0723 31.5381C34.3945 31.2061 34.4043 30.6983 34.0723 30.3565L7.65625 3.95022C7.32422 3.61818 6.80664 3.61818 6.47461 3.95022C6.15234 4.26272 6.15234 4.80959 6.47461 5.13186Z" fill="black" fill-opacity="0.85"/>
 </g>
</svg>
