<?xml version="1.0" ?><!-- Generator: Adobe Illustrator 25.0.0, SVG Export Plug-In . SVG Version: 6.00 Build 0)  --><svg xmlns="http://www.w3.org/2000/svg" xmlns:xlink="http://www.w3.org/1999/xlink" version="1.1" id="Layer_1" x="0px" y="0px" viewBox="0 0 512 512" style="enable-background:new 0 0 512 512;" xml:space="preserve">
<path d="M131.8,512h255c19.7,0,35.1-5.7,46.1-17.2c11-11.5,16.5-28.5,16.5-51.2V193.5c0-22.8-5.8-39.9-17.4-51.3  c-11.6-11.4-28.9-17.1-51.8-17.1H131.8c-23.1,0-40.4,5.7-51.9,17.1c-11.5,11.4-17.3,28.5-17.3,51.3v250.2c0,22.8,5.8,39.9,17.3,51.3  C91.4,506.3,108.7,512,131.8,512z M110.6,89.6h290.5c-1.6-10-5.1-17.7-10.4-23.1c-5.3-5.4-13.5-8.1-24.5-8.1H145.5  c-11,0-19.2,2.7-24.5,8.1C115.7,71.9,112.2,79.6,110.6,89.6z M149,28.5h214c-0.7-9.4-3.8-16.5-9.2-21.3S340.7,0,330.6,0H181.2  c-10.1,0-17.9,2.4-23.3,7.2C152.6,11.9,149.6,19,149,28.5z M230.6,476.9c-1.9-0.4-3.9-2.1-6.1-5c-2.1-2.9-3.2-6.9-3.2-12  c0-9.6,2.3-19.2,6.9-29c4.6-9.8,11.3-18.8,20.1-27.1c8.8-8.3,19.3-15,31.8-20c12.4-5,26.4-7.5,42-7.5c20,0,38.2,4.6,54.7,13.7  c16.5,9.1,28.9,20.8,37.3,35.1v17c0,11.5-3.3,20.1-9.9,26c-6.6,5.9-14.8,8.8-24.5,8.8H230.6z M322.2,351.8c-8.7,0-16.7-2.4-24.2-7.2  s-13.4-11.2-18-19.3c-4.6-8.1-6.8-17.1-6.8-27.1s2.3-19,6.8-27c4.6-8,10.6-14.3,18.1-19c7.5-4.6,15.6-6.9,24.3-6.9  c8.8,0,16.9,2.3,24.3,6.8c7.4,4.6,13.2,10.8,17.6,18.6c4.4,7.9,6.6,16.9,6.6,27c0,10.1-2.2,19.3-6.7,27.5  c-4.5,8.2-10.4,14.6-17.8,19.4S331,351.8,322.2,351.8z M132.5,476.9c-11,0-19.5-2.9-25.4-8.8c-5.9-5.9-8.8-14.6-8.8-26v-21.6  c6.8-11.8,17.3-22.1,31.7-31.1c14.3-9,31.4-13.5,51.3-13.5c9.7,0,18.5,1.1,26.3,3.3c7.8,2.2,15.2,5.6,22.3,10.1  c-7.2,5.3-13.6,12-19.1,20.1c-5.5,8.1-9.9,16.6-13,25.5c-3.2,8.9-4.7,17.2-4.7,25c0,7.1,1.3,12.7,3.8,17H132.5z M181.2,354.9  c-11.3,0-21.3-4.6-29.8-13.7c-8.5-9.1-12.8-20.3-12.8-33.5c0-13.1,4.3-24,12.8-32.8c8.5-8.8,18.5-13.1,29.8-13.1  c11.5,0,21.4,4.3,29.9,13c8.5,8.7,12.7,19.6,12.7,32.6c0,13.4-4.2,24.6-12.7,33.8C202.7,350.4,192.7,354.9,181.2,354.9z"/>
</svg>