<?xml version="1.0" ?><!-- Generator: Adobe Illustrator 25.0.0, SVG Export Plug-In . SVG Version: 6.00 Build 0)  --><svg xmlns="http://www.w3.org/2000/svg" xmlns:xlink="http://www.w3.org/1999/xlink" version="1.1" id="Layer_1" x="0px" y="0px" viewBox="0 0 512 512" style="enable-background:new 0 0 512 512;" xml:space="preserve">
<path d="M176,250.4c44.7,0,83.6-40.1,83.6-92.4c0-51.6-38.9-89.9-83.6-89.9c-44.7,0-83.6,39.1-83.6,90.3  C92.4,210.2,131.1,250.4,176,250.4z M394.5,262.7c6.9,0,12.8-3.3,16.9-9.6L507,102.5c2.3-4,5-8.6,5-13.4c0-9.2-8.4-15.3-17.1-15.3  c-5.4,0-10.5,3.1-14.4,9.4l-86.8,139.2l-41.2-53.3c-5-6.7-9.6-8.6-15.5-8.6c-9,0-16.1,7.3-16.1,16.7c0,4.4,1.9,9,4.8,13l51,62.7  C382,260,387.6,262.7,394.5,262.7z M44.5,443.9h262.6c33,0,44.7-9.4,44.7-27.8c0-53.9-67.5-128.4-176-128.4  C67.5,287.8,0,362.2,0,416.1C0,434.5,11.7,443.9,44.5,443.9z"/>
</svg>