<?xml version="1.0" encoding="UTF-8"?>
<!--Generator: Apple Native CoreSVG 326-->
<!DOCTYPE svg
PUBLIC "-//W3C//DTD SVG 1.1//EN"
       "http://www.w3.org/Graphics/SVG/1.1/DTD/svg11.dtd">
<svg version="1.1" xmlns="http://www.w3.org/2000/svg" xmlns:xlink="http://www.w3.org/1999/xlink" viewBox="0 0 25.8008 25.459">
 <g>
  <rect height="25.459" opacity="0" width="25.8008" x="0" y="0"/>
  <path d="M12.7148 25.4395C19.7363 25.4395 25.4395 19.7461 25.4395 12.7246C25.4395 5.70312 19.7363 0 12.7148 0C5.69336 0 0 5.70312 0 12.7246C0 19.7461 5.69336 25.4395 12.7148 25.4395ZM12.7148 23.623C6.68945 23.623 1.81641 18.75 1.81641 12.7246C1.81641 6.69922 6.68945 1.82617 12.7148 1.82617C18.7402 1.82617 23.6133 6.69922 23.6133 12.7246C23.6133 18.75 18.7402 23.623 12.7148 23.623Z" fill="black" fill-opacity="0.85"/>
  <path d="M4.20898 11.3965C4.20898 13.4473 5.66406 14.9121 7.71484 14.9121L8.33984 14.9121C8.27148 14.5996 8.24219 14.0625 8.29102 13.7012L7.80273 13.7012C6.42578 13.7012 5.47852 12.7539 5.47852 11.3965C5.47852 10.0391 6.42578 9.07227 7.80273 9.07227L12.9199 9.07227C14.2969 9.07227 15.2441 10.0391 15.2441 11.3965C15.2441 12.7539 14.2969 13.7012 12.9199 13.7012L10.8789 13.7012C10.7617 14.0234 10.791 14.541 11.1133 14.9121L12.998 14.9121C15.0488 14.9121 16.5039 13.4473 16.5039 11.3965C16.5039 9.3457 15.0391 7.87109 12.998 7.87109L7.71484 7.87109C5.67383 7.87109 4.20898 9.3457 4.20898 11.3965ZM8.91602 14.1406C8.91602 16.1914 10.3809 17.666 12.4219 17.666L17.7051 17.666C19.7461 17.666 21.2109 16.1914 21.2109 14.1406C21.2109 12.0898 19.7559 10.625 17.7051 10.625L17.0801 10.625C17.1387 10.957 17.1875 11.3086 17.1289 11.8359L17.6172 11.8359C18.9941 11.8359 19.9414 12.7734 19.9414 14.1406C19.9414 15.498 18.9844 16.4648 17.6172 16.4648L12.5 16.4648C11.123 16.4648 10.1758 15.498 10.1758 14.1406C10.1758 12.7734 11.123 11.8359 12.5 11.8359L14.5312 11.8359C14.6582 11.5234 14.6289 10.9473 14.3164 10.625L12.4219 10.625C10.3711 10.625 8.91602 12.0898 8.91602 14.1406Z" fill="black" fill-opacity="0.85"/>
 </g>
</svg>
