<?xml version="1.0" encoding="UTF-8"?>
<!--Generator: Apple Native CoreSVG 326-->
<!DOCTYPE svg
PUBLIC "-//W3C//DTD SVG 1.1//EN"
       "http://www.w3.org/Graphics/SVG/1.1/DTD/svg11.dtd">
<svg version="1.1" xmlns="http://www.w3.org/2000/svg" xmlns:xlink="http://www.w3.org/1999/xlink" viewBox="0 0 25.8008 25.459">
 <g>
  <rect height="25.459" opacity="0" width="25.8008" x="0" y="0"/>
  <path d="M12.7148 25.4395C19.7363 25.4395 25.4395 19.7461 25.4395 12.7246C25.4395 5.70312 19.7363 0 12.7148 0C5.69336 0 0 5.70312 0 12.7246C0 19.7461 5.69336 25.4395 12.7148 25.4395ZM12.7148 23.623C6.68945 23.623 1.81641 18.75 1.81641 12.7246C1.81641 6.69922 6.68945 1.82617 12.7148 1.82617C18.7402 1.82617 23.6133 6.69922 23.6133 12.7246C23.6133 18.75 18.7402 23.623 12.7148 23.623Z" fill="black" fill-opacity="0.85"/>
  <path d="M6.88477 19.1406L18.5254 19.1406C18.9746 19.1406 19.1895 18.8477 19.1895 18.418C19.1895 17.041 17.1191 13.3984 12.7051 13.3984C8.30078 13.3984 6.23047 17.041 6.23047 18.418C6.23047 18.8477 6.43555 19.1406 6.88477 19.1406ZM12.7051 12.373C14.4922 12.3828 15.9277 10.8691 15.9277 8.85742C15.9277 6.96289 14.4922 5.40039 12.7051 5.40039C10.918 5.40039 9.48242 6.96289 9.48242 8.85742C9.48242 10.8691 10.918 12.3633 12.7051 12.373Z" fill="black" fill-opacity="0.85"/>
 </g>
</svg>
