<?xml version="1.0" ?><!-- Generator: Adobe Illustrator 25.0.0, SVG Export Plug-In . SVG Version: 6.00 Build 0)  --><svg xmlns="http://www.w3.org/2000/svg" xmlns:xlink="http://www.w3.org/1999/xlink" version="1.1" id="Layer_1" x="0px" y="0px" viewBox="0 0 512 512" style="enable-background:new 0 0 512 512;" xml:space="preserve">
<path d="M256.1,256.3c65.8,0,119.4-58.6,119.4-129.9C375.6,55.6,322.2,0,256.1,0c-65.5,0-119.4,56.7-119.4,126.9  C137,197.9,190.3,256.3,256.1,256.3z M256.1,214.5c-40.4,0-74.9-38.7-74.9-87.6c0-48.1,34-85.1,74.9-85.1  c41.2,0,74.9,36.5,74.9,84.6C331.1,175.3,296.8,214.5,256.1,214.5z M82.2,512h347.5c45.9,0,67.7-13.8,67.7-44.2  c0-72.4-91.5-177.2-241.3-177.2C106,290.6,14.5,395.3,14.5,467.8C14.5,498.2,36.4,512,82.2,512z M69.3,470.3  c-7.2,0-10.2-1.9-10.2-7.7c0-45.3,70.2-130.2,197.1-130.2c126.6,0,196.8,84.9,196.8,130.2c0,5.8-2.8,7.7-10,7.7H69.3z"/>
</svg>