<?xml version="1.0" ?><!-- Generator: Adobe Illustrator 25.0.0, SVG Export Plug-In . SVG Version: 6.00 Build 0)  --><svg xmlns="http://www.w3.org/2000/svg" xmlns:xlink="http://www.w3.org/1999/xlink" version="1.1" id="Layer_1" x="0px" y="0px" viewBox="0 0 512 512" style="enable-background:new 0 0 512 512;" xml:space="preserve">
<path d="M151.8,28.2h203.5C354,9.8,343.5,0,323.4,0H183.8C163.7,0,153.2,9.8,151.8,28.2z M112.9,88.8h279.4  C389.3,69.1,379.6,58,357.7,58H147.5C125.6,58,116.2,69.1,112.9,88.8z M130.8,512h256.9c39.2,0,62.1-22.8,62.1-67.8V192.1  c0-45.1-23.2-67.8-68.7-67.8H130.8c-45.7,0-68.7,22.5-68.7,67.8v252.1C62.1,489.2,85.1,512,130.8,512z M320.8,352.9  c-26.3,0-49-23.4-49-53.6c0-30,23-53,49-53c26.3,0,48.8,22.3,48.8,52.5C369.6,329.5,347.2,352.9,320.8,352.9z M179.9,356  c-23,0-42.9-20.6-42.9-47.3c0-26,19.9-45.7,42.9-45.7c22.8,0,42.4,19.3,42.4,45.5C222.3,335.4,202.6,356,179.9,356z M130.6,475.5  c-25.8,0-32.2-7-32.2-31.3v-22.5c10.7-22.1,39.4-45.7,81.2-45.7c20.1,0,35,4.8,48.4,13.8c-28.4,20.8-44.2,69.8-31.1,85.8H130.6z   M233,475.5c-5.7,0-12.7-5.5-12.7-16.2c0-39.4,38.5-83.1,100.4-83.1c46.2,0,80.5,24.5,92.6,47.5v20.6c0,24.7-6.8,31.3-25.6,31.3H233  z"/>
</svg>