<?xml version="1.0" ?><!-- Generator: Adobe Illustrator 25.0.0, SVG Export Plug-In . SVG Version: 6.00 Build 0)  --><svg xmlns="http://www.w3.org/2000/svg" xmlns:xlink="http://www.w3.org/1999/xlink" version="1.1" id="Layer_1" x="0px" y="0px" viewBox="0 0 512 512" style="enable-background:new 0 0 512 512;" xml:space="preserve">
<path d="M68.2,455.9h375.6c45.6,0,68.2-22.6,68.2-67.3V123.4c0-44.7-22.6-67.3-68.2-67.3H68.2C22.8,56.1,0,78.5,0,123.4v265.1  C0,433.5,22.8,455.9,68.2,455.9z M256,292.2c-41.5-0.4-74-35-74.3-81.4c-0.2-43.6,32.8-79.7,74.3-79.7c41.5,0,74.3,36,74.3,79.7  C330.3,257.2,297.5,292.6,256,292.2z M109.7,423.3c16.5-55.2,75.3-94.9,146.3-94.9c71.2,0,129.8,39.7,146.3,94.9H109.7z"/>
</svg>