<?xml version="1.0" encoding="UTF-8"?>
<!--Generator: Apple Native CoreSVG 326-->
<!DOCTYPE svg
PUBLIC "-//W3C//DTD SVG 1.1//EN"
       "http://www.w3.org/Graphics/SVG/1.1/DTD/svg11.dtd">
<svg version="1.1" xmlns="http://www.w3.org/2000/svg" xmlns:xlink="http://www.w3.org/1999/xlink" viewBox="0 0 23.3203 22.959">
 <g>
  <rect height="22.959" opacity="0" width="23.3203" x="0" y="0"/>
  <path d="M22.959 3.76953L22.959 19.1992C22.959 21.6797 21.6797 22.959 19.1504 22.959L3.79883 22.959C1.2793 22.959 0 21.6992 0 19.1992L0 3.76953C0 1.26953 1.2793 0 3.79883 0L19.1504 0C21.6797 0 22.959 1.2793 22.959 3.76953ZM14.1699 6.04492L12.1191 17.8613C12.1094 17.9395 12.0801 18.0859 12.0801 18.2422C12.0801 18.5645 12.2949 18.7988 12.627 18.7988C12.9883 18.7988 13.1641 18.584 13.2227 18.2129L15.2832 6.39648C15.3027 6.31836 15.332 6.18164 15.332 6.02539C15.332 5.69336 15.1074 5.46875 14.7754 5.46875C14.4141 5.46875 14.248 5.67383 14.1699 6.04492ZM5.53711 8.30078C5.53711 9.85352 6.44531 10.6934 7.90039 11.2305L8.63281 11.5039C9.61914 11.875 10.3027 12.4023 10.3027 13.457C10.3027 14.4043 9.70703 15.2148 8.52539 15.2148C7.48047 15.2148 6.81641 14.6094 6.60156 13.5645C6.52344 13.2422 6.31836 13.0957 5.99609 13.0957C5.6543 13.0957 5.41992 13.3496 5.41992 13.7012C5.41992 13.8477 5.44922 14.043 5.49805 14.1699C5.88867 15.5371 6.97266 16.3281 8.49609 16.3281C10.5859 16.3281 11.5918 15.0293 11.5918 13.3301C11.5918 11.5723 10.5469 10.9082 9.16992 10.3809L8.4375 10.0977C7.4707 9.7168 6.82617 9.25781 6.82617 8.21289C6.82617 7.26562 7.40234 6.57227 8.42773 6.57227C9.375 6.57227 9.9707 7.13867 10.1953 8.125C10.2832 8.45703 10.498 8.59375 10.8105 8.59375C11.1523 8.59375 11.3574 8.34961 11.3574 8.00781C11.3574 7.91016 11.3379 7.77344 11.3184 7.65625C11.0254 6.31836 9.92188 5.44922 8.44727 5.44922C6.5918 5.44922 5.53711 6.70898 5.53711 8.30078ZM16.1816 15.3906C16.1816 15.8691 16.5332 16.2207 17.002 16.2207C17.4902 16.2207 17.8613 15.8691 17.8613 15.3906C17.8613 14.9316 17.4902 14.5605 17.002 14.5605C16.5332 14.5605 16.1816 14.9316 16.1816 15.3906Z" fill="black" fill-opacity="0.85"/>
 </g>
</svg>
