<?xml version="1.0" encoding="UTF-8"?>
<!--Generator: Apple Native CoreSVG 326-->
<!DOCTYPE svg
PUBLIC "-//W3C//DTD SVG 1.1//EN"
       "http://www.w3.org/Graphics/SVG/1.1/DTD/svg11.dtd">
<svg version="1.1" xmlns="http://www.w3.org/2000/svg" xmlns:xlink="http://www.w3.org/1999/xlink" viewBox="0 0 25.8008 25.459">
 <g>
  <rect height="25.459" opacity="0" width="25.8008" x="0" y="0"/>
  <path d="M25.4395 12.7246C25.4395 19.7266 19.7266 25.4395 12.7148 25.4395C5.71289 25.4395 0 19.7266 0 12.7246C0 5.71289 5.71289 0 12.7148 0C19.7266 0 25.4395 5.71289 25.4395 12.7246ZM15.4102 7.29492L13.3594 19.1113C13.3398 19.1895 13.3105 19.3359 13.3105 19.4922C13.3105 19.8145 13.5254 20.0488 13.8574 20.0488C14.2188 20.0488 14.3945 19.834 14.4629 19.4629L16.5137 7.64648C16.5332 7.56836 16.5625 7.43164 16.5625 7.27539C16.5625 6.94336 16.3379 6.71875 16.0059 6.71875C15.6445 6.71875 15.4785 6.92383 15.4102 7.29492ZM6.76758 9.55078C6.76758 11.1035 7.67578 11.9434 9.13086 12.4805L9.86328 12.7539C10.8496 13.125 11.5332 13.6523 11.5332 14.707C11.5332 15.6543 10.9375 16.4648 9.75586 16.4648C8.71094 16.4648 8.04688 15.8594 7.83203 14.8145C7.75391 14.4922 7.54883 14.3457 7.22656 14.3457C6.88477 14.3457 6.65039 14.5996 6.65039 14.9512C6.65039 15.0977 6.67969 15.293 6.72852 15.4199C7.11914 16.7871 8.20312 17.5781 9.73633 17.5781C11.8164 17.5781 12.832 16.2793 12.832 14.5801C12.832 12.8223 11.7773 12.1582 10.4004 11.6309L9.66797 11.3477C8.70117 10.9668 8.05664 10.5078 8.05664 9.46289C8.05664 8.51562 8.63281 7.82227 9.6582 7.82227C10.6055 7.82227 11.2012 8.38867 11.4258 9.375C11.5137 9.70703 11.7285 9.84375 12.041 9.84375C12.3828 9.84375 12.5879 9.59961 12.5879 9.25781C12.5879 9.16016 12.5684 9.02344 12.5488 8.90625C12.2559 7.56836 11.1523 6.69922 9.67773 6.69922C7.82227 6.69922 6.76758 7.95898 6.76758 9.55078ZM17.4121 16.6406C17.4121 17.1191 17.7637 17.4707 18.2324 17.4707C18.7305 17.4707 19.0918 17.1191 19.0918 16.6406C19.0918 16.1816 18.7305 15.8105 18.2324 15.8105C17.7637 15.8105 17.4121 16.1816 17.4121 16.6406Z" fill="black" fill-opacity="0.85"/>
 </g>
</svg>
