<?xml version="1.0" encoding="UTF-8"?>
<!--Generator: Apple Native CoreSVG 326-->
<!DOCTYPE svg
PUBLIC "-//W3C//DTD SVG 1.1//EN"
       "http://www.w3.org/Graphics/SVG/1.1/DTD/svg11.dtd">
<svg version="1.1" xmlns="http://www.w3.org/2000/svg" xmlns:xlink="http://www.w3.org/1999/xlink" viewBox="0 0 30.3809 25.0293">
 <g>
  <rect height="25.0293" opacity="0" width="30.3809" x="0" y="0"/>
  <path d="M30.0195 15.0098C30.0195 11.3281 28.6914 7.95898 26.4844 5.3418C26.2305 5.03906 25.8008 5.04883 25.5176 5.33203L22.6953 8.1543C22.4512 8.39844 22.4414 8.74023 22.6562 9.01367C23.9551 10.6738 24.7266 12.7441 24.7266 15.0098C24.7266 17.2754 23.9551 19.3555 22.5977 21.0742C22.4121 21.3086 22.4219 21.6016 22.627 21.8066L25.5176 24.707C25.8008 25 26.2207 24.9902 26.4844 24.6875C28.6914 22.0703 30.0195 18.6816 30.0195 15.0098Z" fill="black" fill-opacity="0.85"/>
  <path d="M15.0098 5.2832C17.2754 5.2832 19.3652 6.06445 21.0254 7.38281C21.2891 7.57812 21.6113 7.55859 21.8555 7.31445L24.6875 4.48242C24.9805 4.19922 24.9707 3.7793 24.668 3.51562C22.0605 1.32812 18.6816 0 15.0098 0C11.3379 0 7.95898 1.32812 5.35156 3.51562C5.04883 3.7793 5.03906 4.19922 5.32227 4.48242L8.16406 7.31445C8.39844 7.55859 8.75 7.56836 9.02344 7.35352C10.6738 6.06445 12.7539 5.2832 15.0098 5.2832Z" fill="black" fill-opacity="0.85"/>
  <path d="M0 15.0098C0 18.6816 1.32812 22.0703 3.53516 24.6875C3.78906 24.9902 4.21875 25 4.50195 24.707L7.39258 21.8066C7.58789 21.6016 7.60742 21.3086 7.42188 21.0742C6.06445 19.3555 5.2832 17.2754 5.2832 15.0098C5.2832 12.7441 6.05469 10.6738 7.36328 9.01367C7.56836 8.74023 7.56836 8.39844 7.32422 8.1543L4.49219 5.33203C4.20898 5.04883 3.78906 5.03906 3.52539 5.3418C1.31836 7.95898 0 11.3281 0 15.0098Z" fill="black" fill-opacity="0.85"/>
  <path d="M12.0996 19.9316C14.1211 19.9316 15.1172 18.6621 15.1172 17.002C15.1172 15.293 14.0918 14.6387 12.7441 14.1113L12.041 13.8379C11.0938 13.4766 10.459 13.0273 10.459 12.002C10.459 11.0742 11.0254 10.3906 12.0312 10.3906C12.959 10.3906 13.5449 10.9473 13.7598 11.9141C13.8379 12.2363 14.043 12.373 14.3555 12.373C14.6875 12.373 14.8926 12.1387 14.8926 11.8066C14.8926 11.709 14.873 11.5723 14.8438 11.4648C14.5508 10.1562 13.4863 9.30664 12.041 9.30664C10.2344 9.30664 9.20898 10.5371 9.20898 12.0898C9.20898 13.6035 10.0879 14.4238 11.5137 14.9512L12.2363 15.2148C13.2031 15.5762 13.8672 16.084 13.8672 17.1191C13.8672 18.0469 13.2812 18.8477 12.1289 18.8477C11.1035 18.8477 10.4395 18.2422 10.2441 17.2266C10.166 16.9238 9.9707 16.7676 9.6582 16.7676C9.32617 16.7676 9.0918 17.0215 9.0918 17.3633C9.0918 17.5098 9.12109 17.6855 9.16016 17.8223C9.55078 19.1602 10.6055 19.9316 12.0996 19.9316ZM16.1328 22.334C16.4746 22.334 16.6504 22.1387 16.709 21.7773L18.7207 10.2246C18.7402 10.1465 18.7598 10.0195 18.7598 9.86328C18.7598 9.54102 18.5547 9.32617 18.2227 9.32617C17.8809 9.32617 17.7051 9.52148 17.6465 9.88281L15.6348 21.4355C15.6152 21.5137 15.5957 21.6406 15.5957 21.7969C15.5957 22.1094 15.8008 22.334 16.1328 22.334ZM20.4004 19.8242C20.8691 19.8242 21.2207 19.4824 21.2207 19.0234C21.2207 18.5645 20.8691 18.2129 20.4004 18.2129C19.9414 18.2129 19.5898 18.5645 19.5898 19.0234C19.5898 19.4824 19.9414 19.8242 20.4004 19.8242Z" fill="black" fill-opacity="0.85"/>
 </g>
</svg>
