<?xml version="1.0" ?><!-- Generator: Adobe Illustrator 25.0.0, SVG Export Plug-In . SVG Version: 6.00 Build 0)  --><svg xmlns="http://www.w3.org/2000/svg" xmlns:xlink="http://www.w3.org/1999/xlink" version="1.1" id="Layer_1" x="0px" y="0px" viewBox="0 0 512 512" style="enable-background:new 0 0 512 512;" xml:space="preserve">
<path d="M256,512c140,0,256-116.2,256-256C512,116,395.8,0,255.7,0C116,0,0,116,0,256C0,395.8,116.2,512,256,512z M256,469.3  c-118.5,0-213.1-94.9-213.1-213.3S137.3,42.7,255.7,42.7S469.1,137.5,469.3,256S374.5,469.3,256,469.3z M163.9,216.6  c0,6.8,5.3,12.3,12.3,12.3h15.3v136.3c0,9.8,7.3,16.6,16.6,16.6c9.5,0,16.3-6.8,16.3-16.6v-70.5h43.9c41.9,0,72.3-26.4,77.1-65.8  h11.5c7,0,12.3-5.5,12.3-12.3c0-7.5-5.3-12.5-12.3-12.5h-12c-6-37.4-35.4-62.2-76.5-62.2h-60.7c-9.8,0-16.1,6.5-16.1,16.8V204h-15.3  C169.2,204,163.9,209.1,163.9,216.6z M224.6,204v-32.4h38.1c26.4,0,43.4,11.5,48.4,32.4H224.6z M224.6,264.8v-35.9H312  c-4,22.8-21.6,35.9-49.2,35.9H224.6z"/>
</svg>