<?xml version="1.0" encoding="UTF-8"?>
<!--Generator: Apple Native CoreSVG 326-->
<!DOCTYPE svg
PUBLIC "-//W3C//DTD SVG 1.1//EN"
       "http://www.w3.org/Graphics/SVG/1.1/DTD/svg11.dtd">
<svg version="1.1" xmlns="http://www.w3.org/2000/svg" xmlns:xlink="http://www.w3.org/1999/xlink" viewBox="0 0 25.8008 25.459">
 <g>
  <rect height="25.459" opacity="0" width="25.8008" x="0" y="0"/>
  <path d="M25.4395 12.7246C25.4395 19.7266 19.7266 25.4395 12.7148 25.4395C5.71289 25.4395 0 19.7266 0 12.7246C0 5.71289 5.71289 0 12.7148 0C19.7266 0 25.4395 5.71289 25.4395 12.7246ZM10.127 6.99219C9.69727 6.99219 9.44336 7.25586 9.44336 7.68555L9.44336 10.1758L8.60352 10.1758C8.36914 10.1758 8.18359 10.3516 8.18359 10.5762C8.18359 10.8008 8.36914 10.9766 8.60352 10.9766L9.44336 10.9766L9.44336 17.8906C9.44336 18.3105 9.69727 18.5742 10.1172 18.5742C10.5273 18.5742 10.791 18.3105 10.791 17.8906L10.791 14.3164L13.1836 14.3164C15.2832 14.3164 16.7773 12.998 16.9238 10.9766L17.5684 10.9766C17.8027 10.9766 17.9785 10.791 17.9785 10.5762C17.9785 10.3516 17.8027 10.1758 17.5684 10.1758L16.9043 10.1758C16.709 8.21289 15.2246 6.99219 13.2031 6.99219ZM12.8516 13.1934L10.791 13.1934L10.791 10.9766L15.5371 10.9766C15.4102 12.4219 14.4043 13.1934 12.8516 13.1934ZM15.5176 10.1758L10.791 10.1758L10.791 8.11523L12.8711 8.11523C14.3164 8.11523 15.3418 8.80859 15.5176 10.1758Z" fill="black" fill-opacity="0.85"/>
 </g>
</svg>
