<?xml version="1.0" encoding="UTF-8"?>
<!--Generator: Apple Native CoreSVG 326-->
<!DOCTYPE svg
PUBLIC "-//W3C//DTD SVG 1.1//EN"
       "http://www.w3.org/Graphics/SVG/1.1/DTD/svg11.dtd">
<svg version="1.1" xmlns="http://www.w3.org/2000/svg" xmlns:xlink="http://www.w3.org/1999/xlink" viewBox="0 0 27.9395 26.5527">
 <g>
  <rect height="26.5527" opacity="0" width="27.9395" x="0" y="0"/>
  <path d="M1.5332 23.8379L26.0449 23.8379L26.0449 23.0859C26.0449 22.666 25.791 22.4121 25.3613 22.4121L24.5605 22.4121L24.5605 8.33984L25.6934 8.33984C26.2891 8.33984 26.6211 7.91992 26.6211 7.48047C26.6211 7.1582 26.4453 6.875 26.0547 6.65039L15.2637 0.419922C14.7852 0.146484 14.2773 0 13.7891 0C13.3008 0 12.7832 0.146484 12.3145 0.419922L1.52344 6.65039C1.12305 6.875 0.957031 7.1582 0.957031 7.48047C0.957031 7.91992 1.28906 8.33984 1.88477 8.33984L3.02734 8.33984L3.02734 22.4121L2.22656 22.4121C1.78711 22.4121 1.5332 22.666 1.5332 23.0859ZM4.6582 22.4121L4.6582 6.85547L13.2227 2.03125C13.3887 1.93359 13.5938 1.875 13.7891 1.875C13.9746 1.875 14.1699 1.93359 14.3555 2.03125L22.9297 6.85547L22.9297 22.4121ZM0.869141 26.5332L26.709 26.5332C27.1875 26.5332 27.5781 26.1426 27.5781 25.6738C27.5781 25.1953 27.1875 24.8047 26.709 24.8047L0.869141 24.8047C0.390625 24.8047 0 25.1953 0 25.6738C0 26.1426 0.390625 26.5332 0.869141 26.5332Z" fill="black" fill-opacity="0.85"/>
  <path d="M11.2598 18.9062C11.6602 18.9062 11.9141 18.6523 11.9141 18.252L11.9141 14.7559L14.248 14.7559C16.4062 14.7559 17.9102 13.3301 17.9102 11.1816C17.9102 8.99414 16.3867 7.61719 14.2676 7.61719L11.2695 7.61719C10.8691 7.61719 10.6055 7.88086 10.6055 8.29102L10.6055 18.252C10.6055 18.6523 10.8594 18.9062 11.2598 18.9062ZM11.9141 13.6621L11.9141 8.71094L13.9453 8.71094C15.5078 8.71094 16.5723 9.53125 16.5723 11.1816C16.5723 12.8027 15.5664 13.6621 13.9355 13.6621ZM9.39453 11.1133C9.39453 11.3281 9.56055 11.4941 9.78516 11.4941L18.5352 11.4941C18.7598 11.4941 18.9355 11.3184 18.9355 11.1133C18.9355 10.8984 18.7598 10.7324 18.5352 10.7324L9.78516 10.7324C9.56055 10.7324 9.39453 10.8984 9.39453 11.1133Z" fill="black" fill-opacity="0.85"/>
 </g>
</svg>
