<?xml version="1.0" ?><!-- Generator: Adobe Illustrator 25.0.0, SVG Export Plug-In . SVG Version: 6.00 Build 0)  --><svg xmlns="http://www.w3.org/2000/svg" xmlns:xlink="http://www.w3.org/1999/xlink" version="1.1" id="Layer_1" x="0px" y="0px" viewBox="0 0 512 512" style="enable-background:new 0 0 512 512;" xml:space="preserve">
<path d="M87.3,512h337.3c58.4,0,87.3-28.9,87.3-86.2V86.2C512,28.9,483.1,0,424.7,0H87.3C29.2,0,0,28.6,0,86.2v339.6  C0,483.4,29.2,512,87.3,512z M151,210.3c0-8.3,5.8-13.9,13.9-13.9h17.5v-52.3c0-11.4,7.2-18.9,18.6-18.9h69.2  c47.3,0,80.9,28.1,87.6,71.2h13.9c8.3,0,13.9,5.6,13.9,13.9c0,8.1-5.6,14.5-13.9,14.5h-13.3c-5.3,44.8-40,75.1-88.2,75.1h-50.1v80.7  c0,11.1-7.8,18.9-18.6,18.9c-10.8,0-19.2-7.8-19.2-18.9V224.7h-17.5C156.9,224.7,151,218.3,151,210.3z M220.5,196.3h98.7  c-5.3-23.9-25-37.3-55.1-37.3h-43.7V196.3z M220.5,265.6h43.7c31.4,0,51.5-15,55.9-40.9h-99.6V265.6z"/>
</svg>