<?xml version="1.0" ?><!-- Generator: Adobe Illustrator 25.0.0, SVG Export Plug-In . SVG Version: 6.00 Build 0)  --><svg xmlns="http://www.w3.org/2000/svg" xmlns:xlink="http://www.w3.org/1999/xlink" version="1.1" id="Layer_1" x="0px" y="0px" viewBox="0 0 512 512" style="enable-background:new 0 0 512 512;" xml:space="preserve">
<path d="M87.3,512h337.3c58.4,0,87.3-28.9,87.3-86.2V86.2C512,28.9,483.1,0,424.7,0H87.3C29.2,0,0,28.6,0,86.2v339.6  C0,483.4,29.2,512,87.3,512z M87.9,467.2c-27.8,0-43.1-14.7-43.1-43.7V88.4c0-28.9,15.3-43.7,43.1-43.7h336.2  c27.5,0,43.1,14.7,43.1,43.7v335.1c0,28.9-15.6,43.7-43.1,43.7H87.9z M154.4,211.6c0,7.8,5.8,13.9,13.6,13.9h17v151  c0,10.8,8.1,18.4,18.4,18.4c10.6,0,18.1-7.5,18.1-18.4v-78.4H270c46.4,0,80.1-29.2,85.4-72.6h12.8c8.1,0,13.6-6.1,13.6-13.9  c0-8.1-5.6-13.6-13.6-13.6h-13.3c-6.4-41.7-39.2-69-84.8-69h-67.3c-10.8,0-17.8,7.2-17.8,18.4V198h-17  C160.2,198,154.4,203.6,154.4,211.6z M221.7,198v-36.2h42.3c29.2,0,48.4,13.1,53.7,36.2H221.7z M221.7,265.3v-39.8h96.8  c-4.5,25-23.9,39.8-54.5,39.8H221.7z"/>
</svg>