<?xml version="1.0" ?><!-- Generator: Adobe Illustrator 25.0.0, SVG Export Plug-In . SVG Version: 6.00 Build 0)  --><svg xmlns="http://www.w3.org/2000/svg" xmlns:xlink="http://www.w3.org/1999/xlink" version="1.1" id="Layer_1" x="0px" y="0px" viewBox="0 0 512 512" style="enable-background:new 0 0 512 512;" xml:space="preserve">
<path d="M256,512c140,0,256-116.2,256-256C512,116,395.8,0,255.7,0C116,0,0,116,0,256C0,395.8,116.2,512,256,512z M160.6,241.4  c0-7.8,5.3-13.1,12.5-13.1H189v-16.3h-15.8c-7.3,0-12.5-5.8-12.5-13.1c0-7.5,5.3-12.5,12.5-12.5H189v-30.9  c0-10.5,6.5-17.3,16.8-17.3h62.5c35.4,0,62.2,18.8,74,48.2h17.6c7.3,0,12.5,5,12.5,12.5c0,7.3-5.3,13.1-12.5,13.1h-11.8  c0.3,3.3,0.3,5.5,0.3,8.3c0,2.5,0,5.5-0.5,8h12c7.3,0,12.5,5.3,12.5,13.1c0,7-5.3,12.5-12.5,12.5h-17.3  c-11.8,29.9-38.9,48.9-74.3,48.9h-45.2v66c0,9.8-7,16.8-16.8,16.8c-9.8,0-17.3-7-17.3-16.8V254h-15.8  C165.9,254,160.6,248.5,160.6,241.4z M223.4,186.5h80.8c-8.5-11-22.6-17.3-41.2-17.3h-39.7V186.5z M223.4,228.4h91.1  c0.5-2.5,0.5-5.5,0.5-8c0-3,0-5.8-0.5-8.3h-91.1V228.4z M223.4,271.8H263c18.6,0,32.6-6.3,41.4-17.8h-81.1V271.8z"/>
</svg>