<?xml version="1.0" encoding="UTF-8"?>
<!--Generator: Apple Native CoreSVG 326-->
<!DOCTYPE svg
PUBLIC "-//W3C//DTD SVG 1.1//EN"
       "http://www.w3.org/Graphics/SVG/1.1/DTD/svg11.dtd">
<svg version="1.1" xmlns="http://www.w3.org/2000/svg" xmlns:xlink="http://www.w3.org/1999/xlink" viewBox="0 0 23.3203 22.959">
 <g>
  <rect height="22.959" opacity="0" width="23.3203" x="0" y="0"/>
  <path d="M3.79883 22.959L19.1504 22.959C21.6797 22.959 22.959 21.6797 22.959 19.1992L22.959 3.76953C22.959 1.2793 21.6797 0 19.1504 0L3.79883 0C1.2793 0 0 1.26953 0 3.76953L0 19.1992C0 21.6992 1.2793 22.959 3.79883 22.959ZM3.83789 21.2305C2.4707 21.2305 1.72852 20.5078 1.72852 19.1016L1.72852 3.85742C1.72852 2.46094 2.4707 1.72852 3.83789 1.72852L19.1211 1.72852C20.459 1.72852 21.2305 2.46094 21.2305 3.85742L21.2305 19.1016C21.2305 20.5078 20.459 21.2305 19.1211 21.2305Z" fill="black" fill-opacity="0.85"/>
  <path d="M9.01367 17.1777C9.41406 17.1777 9.67773 16.9141 9.67773 16.5137L9.67773 13.3008L11.9922 13.3008C14.248 13.3008 15.6641 11.6992 15.6641 9.57031C15.6641 7.50977 14.3066 5.87891 12.0215 5.87891L9.01367 5.87891C8.61328 5.87891 8.35938 6.13281 8.35938 6.55273L8.35938 16.5137C8.35938 16.9141 8.62305 17.1777 9.01367 17.1777ZM9.67773 12.1973L9.67773 6.96289L11.709 6.96289C13.3203 6.96289 14.3457 7.90039 14.3457 9.57031C14.3457 11.2207 13.3398 12.1973 11.709 12.1973ZM7.12891 8.60352C7.12891 8.82812 7.29492 8.98438 7.51953 8.98438L16.2891 8.98438C16.5137 8.98438 16.6797 8.80859 16.6797 8.60352C16.6797 8.39844 16.5137 8.22266 16.2891 8.22266L7.51953 8.22266C7.29492 8.22266 7.12891 8.39844 7.12891 8.60352ZM7.12891 10.5762C7.12891 10.8008 7.29492 10.957 7.51953 10.957L16.2891 10.957C16.5137 10.957 16.6797 10.791 16.6797 10.5762C16.6797 10.3711 16.5137 10.1953 16.2891 10.1953L7.51953 10.1953C7.29492 10.1953 7.12891 10.3711 7.12891 10.5762Z" fill="black" fill-opacity="0.85"/>
 </g>
</svg>
