<?xml version="1.0" encoding="UTF-8"?>
<!--Generator: Apple Native CoreSVG 326-->
<!DOCTYPE svg
PUBLIC "-//W3C//DTD SVG 1.1//EN"
       "http://www.w3.org/Graphics/SVG/1.1/DTD/svg11.dtd">
<svg version="1.1" xmlns="http://www.w3.org/2000/svg" xmlns:xlink="http://www.w3.org/1999/xlink" viewBox="0 0 25.8008 25.459">
 <g>
  <rect height="25.459" opacity="0" width="25.8008" x="0" y="0"/>
  <path d="M25.4395 12.7246C25.4395 19.7266 19.7266 25.4395 12.7148 25.4395C5.71289 25.4395 0 19.7266 0 12.7246C0 5.71289 5.71289 0 12.7148 0C19.7266 0 25.4395 5.71289 25.4395 12.7246ZM10.1758 6.98242C9.75586 6.98242 9.50195 7.24609 9.50195 7.67578L9.50195 9.39453L8.64258 9.39453C8.4082 9.39453 8.23242 9.57031 8.23242 9.78516C8.23242 10.0098 8.4082 10.1758 8.64258 10.1758L9.50195 10.1758L9.50195 11.416L8.64258 11.416C8.4082 11.416 8.23242 11.5918 8.23242 11.8066C8.23242 12.041 8.4082 12.1973 8.64258 12.1973L9.50195 12.1973L9.50195 17.8809C9.50195 18.3008 9.76562 18.5742 10.1758 18.5742C10.5859 18.5742 10.8594 18.3008 10.8594 17.8809L10.8594 14.5996L13.2422 14.5996C15 14.5996 16.2695 13.6328 16.7676 12.1973L17.6367 12.1973C17.8613 12.1973 18.0469 12.0215 18.0469 11.8066C18.0469 11.5918 17.8613 11.416 17.6367 11.416L16.9531 11.416C16.9824 11.2109 17.002 11.0059 17.002 10.7715C17.002 10.5762 16.9824 10.3711 16.9531 10.1758L17.6367 10.1758C17.8613 10.1758 18.0469 9.99023 18.0469 9.78516C18.0469 9.57031 17.8613 9.39453 17.6367 9.39453L16.7871 9.39453C16.2988 7.96875 15.0586 6.98242 13.2617 6.98242ZM12.9395 13.4668L10.8594 13.4668L10.8594 12.1973L15.3125 12.1973C14.8926 13.0176 14.0625 13.4668 12.9395 13.4668ZM15.6348 10.7715C15.6348 11.0059 15.6152 11.2109 15.5762 11.416L10.8594 11.416L10.8594 10.1758L15.5859 10.1758C15.6152 10.3613 15.6348 10.5664 15.6348 10.7715ZM15.332 9.39453L10.8594 9.39453L10.8594 8.10547L12.9395 8.10547C14.0625 8.10547 14.9121 8.56445 15.332 9.39453Z" fill="black" fill-opacity="0.85"/>
 </g>
</svg>
