<?xml version="1.0" ?><!-- Generator: Adobe Illustrator 25.0.0, SVG Export Plug-In . SVG Version: 6.00 Build 0)  --><svg xmlns="http://www.w3.org/2000/svg" xmlns:xlink="http://www.w3.org/1999/xlink" version="1.1" id="Layer_1" x="0px" y="0px" viewBox="0 0 512 512" style="enable-background:new 0 0 512 512;" xml:space="preserve">
<path d="M87.3,512h337.3c58.4,0,87.3-28.9,87.3-86.2V86.2C512,28.9,483.1,0,424.7,0H87.3C29.2,0,0,28.6,0,86.2v339.6  C0,483.4,29.2,512,87.3,512z M150.7,239.5c0-8.6,5.8-14.5,13.9-14.5h17.5v-18.1h-17.5c-8.1,0-13.9-6.4-13.9-14.5  c0-8.3,5.8-13.9,13.9-13.9h17.5v-34.2c0-11.7,7.2-19.2,18.6-19.2H270c39.2,0,69.2,20.9,82,53.4h19.5c8.3,0,13.9,5.6,13.9,13.9  c0,8.1-5.6,14.5-13.9,14.5h-13.1c0.3,3.6,0.3,6.1,0.3,9.2c0,2.8,0,6.1-0.3,8.9h13.1c8.3,0,13.9,5.8,13.9,14.5  c0,7.8-5.6,13.9-13.9,13.9h-19.2c-13.1,33.1-43.1,54.2-82.3,54.2H220v73.1c0,10.8-7.8,18.6-18.6,18.6c-10.8,0-19.2-7.8-19.2-18.6  V253.4h-17.5C156.6,253.4,150.7,247.2,150.7,239.5z M220.3,178.5h89.6c-9.5-12.2-25-19.2-45.6-19.2h-43.9V178.5z M220.3,225h101.2  c0.3-2.8,0.3-6.1,0.3-8.9c0-3.3,0-6.4-0.3-9.2H220.3V225z M220.3,273.1h43.9c20.6,0,36.2-7,45.9-19.7h-89.8V273.1z"/>
</svg>