<?xml version="1.0" encoding="UTF-8"?>
<!--Generator: Apple Native CoreSVG 326-->
<!DOCTYPE svg
PUBLIC "-//W3C//DTD SVG 1.1//EN"
       "http://www.w3.org/Graphics/SVG/1.1/DTD/svg11.dtd">
<svg version="1.1" xmlns="http://www.w3.org/2000/svg" xmlns:xlink="http://www.w3.org/1999/xlink" viewBox="0 0 23.3203 22.959">
 <g>
  <rect height="22.959" opacity="0" width="23.3203" x="0" y="0"/>
  <path d="M22.959 3.76953L22.959 19.1992C22.959 21.6797 21.6797 22.959 19.1504 22.959L3.79883 22.959C1.2793 22.959 0 21.6992 0 19.1992L0 3.76953C0 1.26953 1.2793 0 3.79883 0L19.1504 0C21.6797 0 22.959 1.2793 22.959 3.76953ZM8.94531 5.73242C8.51562 5.73242 8.27148 5.99609 8.27148 6.42578L8.27148 8.14453L7.41211 8.14453C7.17773 8.14453 7.00195 8.32031 7.00195 8.53516C7.00195 8.75977 7.17773 8.92578 7.41211 8.92578L8.27148 8.92578L8.27148 10.166L7.41211 10.166C7.17773 10.166 7.00195 10.3418 7.00195 10.5566C7.00195 10.791 7.17773 10.9473 7.41211 10.9473L8.27148 10.9473L8.27148 16.6309C8.27148 17.0508 8.53516 17.3242 8.94531 17.3242C9.35547 17.3242 9.62891 17.0508 9.62891 16.6309L9.62891 13.3496L12.002 13.3496C13.7695 13.3496 15.0391 12.3828 15.5371 10.9473L16.3965 10.9473C16.6309 10.9473 16.8066 10.7715 16.8066 10.5566C16.8066 10.3418 16.6309 10.166 16.3965 10.166L15.7227 10.166C15.752 9.96094 15.7715 9.75586 15.7715 9.52148C15.7715 9.32617 15.752 9.12109 15.7227 8.92578L16.3965 8.92578C16.6309 8.92578 16.8066 8.74023 16.8066 8.53516C16.8066 8.32031 16.6309 8.14453 16.3965 8.14453L15.5469 8.14453C15.0684 6.71875 13.8281 5.73242 12.0312 5.73242ZM11.709 12.2168L9.62891 12.2168L9.62891 10.9473L14.082 10.9473C13.6621 11.7676 12.832 12.2168 11.709 12.2168ZM14.4043 9.52148C14.4043 9.75586 14.3848 9.96094 14.3457 10.166L9.62891 10.166L9.62891 8.92578L14.3457 8.92578C14.3848 9.11133 14.4043 9.31641 14.4043 9.52148ZM14.1016 8.14453L9.62891 8.14453L9.62891 6.85547L11.709 6.85547C12.832 6.85547 13.6816 7.31445 14.1016 8.14453Z" fill="black" fill-opacity="0.85"/>
 </g>
</svg>
