<?xml version="1.0" encoding="UTF-8"?>
<!--Generator: Apple Native CoreSVG 326-->
<!DOCTYPE svg
PUBLIC "-//W3C//DTD SVG 1.1//EN"
       "http://www.w3.org/Graphics/SVG/1.1/DTD/svg11.dtd">
<svg version="1.1" xmlns="http://www.w3.org/2000/svg" xmlns:xlink="http://www.w3.org/1999/xlink" viewBox="0 0 28.291 27.9395">
 <g>
  <rect height="27.9395" opacity="0" width="28.291" x="0" y="0"/>
  <path d="M13.9648 27.9297C21.6406 27.9297 27.9297 21.6504 27.9297 13.9648C27.9297 6.2793 21.6406 0 13.9648 0C6.28906 0 0 6.2793 0 13.9648C0 21.6504 6.28906 27.9297 13.9648 27.9297ZM13.9648 23.3398C8.7793 23.3398 4.58008 19.1504 4.58008 13.9648C4.58008 8.7793 8.7793 4.58008 13.9648 4.58008C19.1504 4.58008 23.3496 8.7793 23.3496 13.9648C23.3496 19.1504 19.1504 23.3398 13.9648 23.3398Z" fill="black" fill-opacity="0.85"/>
  <path d="M11.4941 19.668C11.8945 19.668 12.1582 19.4043 12.1582 19.0039L12.1582 15.791L14.4727 15.791C16.7285 15.791 18.1445 14.1895 18.1445 12.0605C18.1445 10 16.7871 8.36914 14.502 8.36914L11.4941 8.36914C11.084 8.36914 10.8398 8.62305 10.8398 9.04297L10.8398 19.0039C10.8398 19.4043 11.1035 19.668 11.4941 19.668ZM12.1582 14.6875L12.1582 9.45312L14.1895 9.45312C15.8008 9.45312 16.8262 10.3906 16.8262 12.0605C16.8262 13.7109 15.8203 14.6875 14.1895 14.6875ZM9.60938 11.0938C9.60938 11.3184 9.77539 11.4746 10 11.4746L18.7695 11.4746C18.9844 11.4746 19.1602 11.2988 19.1602 11.0938C19.1602 10.8887 18.9844 10.7129 18.7695 10.7129L10 10.7129C9.77539 10.7129 9.60938 10.8887 9.60938 11.0938ZM9.60938 13.0664C9.60938 13.291 9.77539 13.4473 10 13.4473L18.7695 13.4473C18.9844 13.4473 19.1602 13.2812 19.1602 13.0664C19.1602 12.8613 18.9844 12.6855 18.7695 12.6855L10 12.6855C9.77539 12.6855 9.60938 12.8613 9.60938 13.0664Z" fill="black" fill-opacity="0.85"/>
 </g>
</svg>
