<?xml version="1.0" ?><!-- Generator: Adobe Illustrator 25.0.0, SVG Export Plug-In . SVG Version: 6.00 Build 0)  --><svg xmlns="http://www.w3.org/2000/svg" xmlns:xlink="http://www.w3.org/1999/xlink" version="1.1" id="Layer_1" x="0px" y="0px" viewBox="0 0 512 512" style="enable-background:new 0 0 512 512;" xml:space="preserve">
<path d="M256,512c140,0,256-116.2,256-256C512,116,395.8,0,255.7,0C116,0,0,116,0,256C0,395.8,116.2,512,256,512z M256,469.3  c-118.5,0-213.1-94.9-213.1-213.3S137.3,42.7,255.7,42.7S469.1,137.5,469.3,256S374.5,469.3,256,469.3z M163.6,241.7  c0,6.8,5.3,12.5,12.3,12.5h15.3v111.2c0,9.8,7.3,16.6,16.6,16.6c9.5,0,16.3-6.8,16.3-16.6v-64.3H268c34.1,0,60.5-18.1,71.8-46.9  h16.8c7,0,12.3-5.8,12.3-12.5c0-7.3-5.3-12.3-12.3-12.3h-11.5c0.5-2.8,0.5-5.3,0.5-8c0-2.5,0-4.8-0.3-8h11.3c7,0,12.3-5.5,12.3-12.3  c0-7.3-5.3-12.5-12.3-12.5h-17.1c-11.3-28.4-37.4-46.7-71.5-46.7h-60.7c-9.8,0-16.1,6.8-16.1,16.8v29.9h-15.3  c-7,0-12.3,5.3-12.3,12.5c0,6.8,5.3,12.3,12.3,12.3h15.3v16.1h-15.3C168.9,229.4,163.6,234.4,163.6,241.7z M224.4,188.5v-16.8h38.4  c18.1,0,31.9,6.3,40.2,16.8H224.4z M224.4,229.4v-16.1h88.3c0.5,2.5,0.5,5.3,0.5,8c0,2.8,0,5.3-0.5,8H224.4z M224.4,271.6v-17.3  h78.8c-8.5,10.8-22.3,17.3-40.4,17.3H224.4z"/>
</svg>