<?xml version="1.0" encoding="UTF-8"?>
<!--Generator: Apple Native CoreSVG 326-->
<!DOCTYPE svg
PUBLIC "-//W3C//DTD SVG 1.1//EN"
       "http://www.w3.org/Graphics/SVG/1.1/DTD/svg11.dtd">
<svg version="1.1" xmlns="http://www.w3.org/2000/svg" xmlns:xlink="http://www.w3.org/1999/xlink" viewBox="0 0 27.9395 26.5527">
 <g>
  <rect height="26.5527" opacity="0" width="27.9395" x="0" y="0"/>
  <path d="M15.2637 0.419922L26.0547 6.65039C26.4453 6.875 26.6211 7.1582 26.6211 7.48047C26.6211 7.91992 26.2891 8.33984 25.6934 8.33984L24.5605 8.33984L24.5605 23.252L25.3613 23.252C25.791 23.252 26.0449 23.5059 26.0449 23.9258L26.0449 24.8047L26.709 24.8047C27.1875 24.8047 27.5781 25.1953 27.5781 25.6738C27.5781 26.1426 27.1875 26.5332 26.709 26.5332L0.869141 26.5332C0.390625 26.5332 0 26.1426 0 25.6738C0 25.1953 0.390625 24.8047 0.869141 24.8047L1.5332 24.8047L1.5332 23.9258C1.5332 23.5059 1.78711 23.252 2.22656 23.252L3.02734 23.252L3.02734 8.33984L1.88477 8.33984C1.28906 8.33984 0.957031 7.91992 0.957031 7.48047C0.957031 7.1582 1.12305 6.875 1.52344 6.65039L12.3145 0.419922C12.7832 0.146484 13.3008 0 13.7891 0C14.2773 0 14.7852 0.146484 15.2637 0.419922ZM11.2598 8.58398C10.8301 8.58398 10.5859 8.85742 10.5859 9.28711L10.5859 11.0059L9.7168 11.0059C9.49219 11.0059 9.30664 11.1719 9.30664 11.3867C9.30664 11.6113 9.49219 11.7773 9.7168 11.7773L10.5859 11.7773L10.5859 13.0273L9.7168 13.0273C9.49219 13.0273 9.30664 13.2031 9.30664 13.418C9.30664 13.6523 9.49219 13.8086 9.7168 13.8086L10.5859 13.8086L10.5859 19.4922C10.5859 19.9121 10.8398 20.1855 11.25 20.1855C11.6602 20.1855 11.9336 19.9121 11.9336 19.4922L11.9336 16.2012L14.3164 16.2012C16.0742 16.2012 17.3535 15.2441 17.8418 13.8086L18.7109 13.8086C18.9355 13.8086 19.1211 13.623 19.1211 13.418C19.1211 13.2031 18.9355 13.0273 18.7109 13.0273L18.0371 13.0273C18.0664 12.8223 18.0762 12.6074 18.0762 12.3828C18.0762 12.1777 18.0664 11.9727 18.0371 11.7773L18.7109 11.7773C18.9355 11.7773 19.1211 11.6016 19.1211 11.3867C19.1211 11.1719 18.9355 11.0059 18.7109 11.0059L17.8613 11.0059C17.373 9.58008 16.1328 8.58398 14.3457 8.58398ZM14.0234 15.0781L11.9336 15.0781L11.9336 13.8086L16.3965 13.8086C15.9766 14.6191 15.1367 15.0781 14.0234 15.0781ZM16.7188 12.3828C16.7188 12.6074 16.6895 12.8223 16.6504 13.0273L11.9336 13.0273L11.9336 11.7773L16.6602 11.7773C16.6992 11.9727 16.7188 12.168 16.7188 12.3828ZM16.4062 11.0059L11.9336 11.0059L11.9336 9.7168L14.0234 9.7168C15.1465 9.7168 15.9961 10.166 16.4062 11.0059Z" fill="black" fill-opacity="0.85"/>
 </g>
</svg>
