<?xml version="1.0" encoding="UTF-8"?>
<!--Generator: Apple Native CoreSVG 326-->
<!DOCTYPE svg
PUBLIC "-//W3C//DTD SVG 1.1//EN"
       "http://www.w3.org/Graphics/SVG/1.1/DTD/svg11.dtd">
<svg version="1.1" xmlns="http://www.w3.org/2000/svg" xmlns:xlink="http://www.w3.org/1999/xlink" viewBox="0 0 23.6133 23.291">
 <g>
  <rect height="23.291" opacity="0" width="23.6133" x="0" y="0"/>
  <path d="M6.37695 16.8066C10.0488 20.4785 14.4434 23.2812 17.9688 23.2812C19.6289 23.2812 21.0742 22.6172 22.0215 21.5527C22.9297 20.5273 23.2422 19.7754 23.2422 19.1016C23.2422 18.5645 22.9102 18.0859 22.0996 17.5098L19.0527 15.332C18.3008 14.7949 17.959 14.6973 17.5098 14.6973C17.1191 14.6973 16.7969 14.7656 16.1523 15.1172L14.1602 16.2207C13.9258 16.3477 13.8184 16.3672 13.6426 16.3672C13.4082 16.3672 13.252 16.3086 13.0176 16.2207C12.0605 15.7715 10.7227 14.7363 9.54102 13.5449C8.36914 12.3633 7.44141 11.1621 6.96289 10.2051C6.9043 10.0781 6.82617 9.88281 6.82617 9.6875C6.82617 9.53125 6.91406 9.38477 7.01172 9.20898L8.18359 7.20703C8.50586 6.66016 8.59375 6.36719 8.59375 5.9375C8.59375 5.44922 8.42773 4.93164 7.95898 4.27734L5.86914 1.34766C5.2832 0.507812 4.82422 0 4.15039 0C3.31055 0 2.30469 0.644531 1.5918 1.33789C0.546875 2.34375 0 3.73047 0 5.30273C0 8.85742 2.73438 13.1641 6.37695 16.8066Z" fill="black" fill-opacity="0.85"/>
  <path d="M22.793 0.234375C22.5781 0.234375 22.3926 0.3125 22.2266 0.46875L16.5527 6.16211L14.6191 8.23242L14.7852 4.49219L14.7852 2.32422C14.7852 1.9043 14.4629 1.57227 14.043 1.55273C13.6035 1.5332 13.2324 1.88477 13.2324 2.32422L13.2324 9.74609C13.2324 10.3027 13.5156 10.5957 14.082 10.5957L21.5527 10.5957C21.9922 10.5957 22.3535 10.2246 22.334 9.78516C22.3145 9.35547 21.9727 9.04297 21.5527 9.04297L19.3164 9.04297L15.5762 9.20898L17.666 7.27539L23.3398 1.5918C23.5254 1.40625 23.6035 1.21094 23.6035 0.976562C23.6035 0.556641 23.252 0.234375 22.793 0.234375Z" fill="black" fill-opacity="0.85"/>
 </g>
</svg>
