<?xml version="1.0" ?><!-- Generator: Adobe Illustrator 25.0.0, SVG Export Plug-In . SVG Version: 6.00 Build 0)  --><svg xmlns="http://www.w3.org/2000/svg" xmlns:xlink="http://www.w3.org/1999/xlink" version="1.1" id="Layer_1" x="0px" y="0px" viewBox="0 0 512 512" style="enable-background:new 0 0 512 512;" xml:space="preserve">
<path d="M256,512c140,0,256-116.2,256-256C512,116,395.8,0,255.7,0C116,0,0,116,0,256C0,395.8,116.2,512,256,512z M256,469.3  c-118.5,0-213.1-94.9-213.1-213.3S137.3,42.7,255.7,42.7S469.1,137.5,469.3,256S374.5,469.3,256,469.3z M84.8,280.1  c0,18.3,9.3,33.1,28.4,33.1c14.1,0,30.6-0.5,58.7-9.3c16.3-5,23.3-12.8,23.6-30.4l0.3-15.6c0-3,1.5-4.8,5.3-6.3  c8.5-2.5,28.1-6,54.7-6s46.2,3.5,54.7,6c3.8,1.5,5.3,3.3,5.3,6.3l0.3,15.6c0.5,17.6,7.5,25.3,23.6,30.4c28.1,8.8,44.7,9.3,58.7,9.3  c19.1,0,28.4-14.8,28.4-33.1v-2.8c0-67-88.3-98.6-170.9-98.6c-82.6,0-170.9,31.6-170.9,98.6V280.1z"/>
</svg>