<?xml version="1.0" encoding="UTF-8"?>
<!--Generator: Apple Native CoreSVG 326-->
<!DOCTYPE svg
PUBLIC "-//W3C//DTD SVG 1.1//EN"
       "http://www.w3.org/Graphics/SVG/1.1/DTD/svg11.dtd">
<svg version="1.1" xmlns="http://www.w3.org/2000/svg" xmlns:xlink="http://www.w3.org/1999/xlink" viewBox="0 0 25.8008 25.459">
 <g>
  <rect height="25.459" opacity="0" width="25.8008" x="0" y="0"/>
  <path d="M12.7148 25.4395C19.7363 25.4395 25.4395 19.7461 25.4395 12.7246C25.4395 5.70312 19.7363 0 12.7148 0C5.69336 0 0 5.70312 0 12.7246C0 19.7461 5.69336 25.4395 12.7148 25.4395ZM12.7148 23.623C6.68945 23.623 1.81641 18.75 1.81641 12.7246C1.81641 6.69922 6.68945 1.82617 12.7148 1.82617C18.7402 1.82617 23.6133 6.69922 23.6133 12.7246C23.6133 18.75 18.7402 23.623 12.7148 23.623Z" fill="black" fill-opacity="0.85"/>
  <path d="M12.7246 9.51172C9.80469 9.51172 7.01172 10.1465 5.60547 11.5527C4.99023 12.1777 4.64844 12.959 4.66797 13.7598C4.67773 14.3262 4.81445 14.9805 5.14648 15.3125C5.41992 15.5762 5.80078 15.5566 6.36719 15.459L8.35938 15.1367C8.81836 15.0586 9.08203 14.9121 9.27734 14.7168C9.44336 14.5508 9.51172 14.3945 9.60938 14.043L9.95117 12.793C9.98047 12.6855 10 12.5977 10.0586 12.5391C10.1465 12.4609 10.2539 12.4023 10.3223 12.3633C10.8984 12.1875 11.748 12.0703 12.6758 12.0703C13.623 12.0801 14.541 12.1973 15.127 12.3828C15.2441 12.4512 15.332 12.4902 15.4199 12.5781C15.4883 12.6465 15.5176 12.7051 15.5664 12.8418L15.9277 14.0723C16.0449 14.4727 16.1426 14.6289 16.2891 14.7852C16.4746 14.9707 16.6406 15.0586 17.168 15.1465L19.2383 15.4883C19.7949 15.5859 20.1172 15.5273 20.3223 15.3223C20.6055 15.0391 20.7715 14.6191 20.8105 13.8477C20.8594 13.0566 20.5566 12.2168 19.8926 11.5625C18.4863 10.166 15.6348 9.51172 12.7246 9.51172Z" fill="black" fill-opacity="0.85"/>
 </g>
</svg>
