<?xml version="1.0" ?><!-- Generator: Adobe Illustrator 25.0.0, SVG Export Plug-In . SVG Version: 6.00 Build 0)  --><svg xmlns="http://www.w3.org/2000/svg" xmlns:xlink="http://www.w3.org/1999/xlink" version="1.1" id="Layer_1" x="0px" y="0px" viewBox="0 0 512 512" style="enable-background:new 0 0 512 512;" xml:space="preserve">
<path d="M0,315.5c0,25,15,45.7,41.5,45.7c5.1,0,12.9-0.4,23.9-2.3l74.9-11.2c30.9-4.4,39.4-17.1,39.4-43.6c0-8,0-15.7,0.2-23.7  c0-6.6,3-9.3,7.8-10.6c31.1-7,105.6-7,136.7,0c4.9,1.3,7.8,4,7.8,10.6c0.2,8,0.2,15.7,0.2,23.7c0,26.4,8.5,39.1,39.4,43.6l74.9,11.2  c11,1.9,18.8,2.3,23.9,2.3c26.4,0,41.5-20.7,41.5-45.7v-17.3c0-98.4-110-147.3-256-147.3c-145.8,0-256,48.9-256,147.3V315.5z   M34.3,310.4v-10.6c0-85.1,109.4-117,221.7-117c112.3,0,221.7,31.9,221.7,117v10.6c0,10.4-4.9,19.5-15.7,19.5c-3,0-6.1-0.4-12.1-1.5  L378.9,315c-7-1.5-12.3-5.1-12.3-15.4v-26.4c0-20.9-7.6-29.4-18.6-32.6c-34.1-9.7-150-9.7-184.1,0c-11,3.2-18.6,11.6-18.6,32.6v26.4  c0,10.4-5.3,14-12.3,15.4L62,328.4c-5.9,1.1-8.9,1.5-12.1,1.5C39.1,329.8,34.3,320.7,34.3,310.4z"/>
</svg>