<?xml version="1.0" ?><!-- Generator: Adobe Illustrator 25.0.0, SVG Export Plug-In . SVG Version: 6.00 Build 0)  --><svg xmlns="http://www.w3.org/2000/svg" xmlns:xlink="http://www.w3.org/1999/xlink" version="1.1" id="Layer_1" x="0px" y="0px" viewBox="0 0 512 512" style="enable-background:new 0 0 512 512;" xml:space="preserve">
<path d="M42.3,256c0,88.1,20.6,174.7,67,221.3c22,22.2,49.6,35.4,84.5,34.7c33.5-0.7,59.3-22,53.4-54.8L232.9,374  c-4.7-27.9-16.4-38.2-45.9-38.2h-15.5c-25.3,0-28.8-23.7-28.8-79.9c0-56.2,3.5-79.9,28.8-79.9H187c29,0,41-10.1,45.9-38.2l14.3-83.1  c5.9-33-19.9-54.1-53.4-54.8c-34.9-0.7-62.5,12.4-84.5,34.4C62.9,81.1,42.3,167.7,42.3,256z M244.4,272.6h126l49.2-2.3l-51.1,45.9  l-24.6,24.6c-3.3,3.3-4.9,7.7-4.9,12.6c0,9.6,6.8,16.2,15.9,16.2c4.7,0,9.1-1.9,12.4-5.2l96.3-96c4-4,6.1-8.4,6.1-12.4  s-2.1-8.7-6.1-12.6l-96.3-95.8c-3.3-3.3-7.7-5.2-12.4-5.2c-9.1,0-15.9,6.6-15.9,15.9c0,5.2,1.6,9.4,4.9,12.6l24.6,24.8l51.1,45.7  l-49.2-2.3h-126c-10.5,0-16.9,8.2-16.9,16.9C227.5,264.7,233.9,272.6,244.4,272.6z"/>
</svg>