<?xml version="1.0" encoding="UTF-8"?>
<!--Generator: Apple Native CoreSVG 326-->
<!DOCTYPE svg
PUBLIC "-//W3C//DTD SVG 1.1//EN"
       "http://www.w3.org/Graphics/SVG/1.1/DTD/svg11.dtd">
<svg version="1.1" xmlns="http://www.w3.org/2000/svg" xmlns:xlink="http://www.w3.org/1999/xlink" viewBox="0 0 24.4824 24.1312">
 <g>
  <rect height="24.1312" opacity="0" width="24.4824" x="0" y="0"/>
  <path d="M17.9785 24.1213C20.0391 24.1213 21.5039 23.5549 22.7734 22.1682C22.8516 22.0705 22.9297 21.9924 23.0078 21.8947C23.7695 21.0744 24.1211 20.2736 24.1211 19.5021C24.1211 18.6623 23.6523 17.842 22.627 17.1389L19.502 15.01C18.5938 14.385 17.7734 14.3361 16.6309 14.883L14.6582 15.84C14.2578 16.0353 13.916 16.0353 13.5156 15.7814C12.9492 15.4396 11.6406 14.3947 10.5762 13.3303C9.52148 12.2463 8.60352 11.1037 8.21289 10.4201C8.03711 10.0978 8.05664 9.8537 8.27148 9.50214L9.42383 7.6955C9.91211 6.92402 10.0293 5.92792 9.43359 5.08808L6.96289 1.50409C6.25 0.478703 5.44922 0.00995343 4.61914 0.0001878C3.85742-0.00957782 3.04688 0.361516 2.22656 1.11347C2.13867 1.19159 2.05078 1.26972 1.95312 1.35761C0.576172 2.60761 0 4.07245 0 6.12323C0 9.69745 2.27539 14.0139 6.19141 17.9299C10.0977 21.8264 14.4043 24.1213 17.9785 24.1213ZM17.9883 22.4807C14.7754 22.5295 10.7227 20.0881 7.43164 16.8068C4.12109 13.506 1.5918 9.32636 1.64062 6.11347C1.66016 4.71698 2.14844 3.49628 3.1543 2.58808C3.22266 2.51972 3.28125 2.47089 3.35938 2.4123C3.78906 2.02167 4.23828 1.81659 4.62891 1.81659C5.01953 1.81659 5.35156 1.98261 5.61523 2.383L7.91992 5.81073C8.14453 6.14277 8.13477 6.46503 7.86133 6.92402L6.5918 8.9455C6.10352 9.73652 6.17188 10.381 6.67969 11.0939C7.32422 12.0119 8.38867 13.3693 9.46289 14.4533C10.5371 15.5275 12.0215 16.7678 12.8613 17.3342C13.5742 17.8225 14.248 17.9299 15.2734 17.4416L17.4219 16.426C17.9395 16.1818 18.3594 16.2404 18.7988 16.5334L21.748 18.5158C22.1387 18.7697 22.3047 19.1018 22.3047 19.4924C22.3047 19.8928 22.1094 20.342 21.709 20.7717C21.6504 20.8498 21.6016 20.8986 21.543 20.9768C20.625 21.9924 19.3945 22.4611 17.9883 22.4807Z" fill="black" fill-opacity="0.85"/>
 </g>
</svg>
