<?xml version="1.0" encoding="UTF-8"?>
<!--Generator: Apple Native CoreSVG 326-->
<!DOCTYPE svg
PUBLIC "-//W3C//DTD SVG 1.1//EN"
       "http://www.w3.org/Graphics/SVG/1.1/DTD/svg11.dtd">
<svg version="1.1" xmlns="http://www.w3.org/2000/svg" xmlns:xlink="http://www.w3.org/1999/xlink" viewBox="0 0 23.4473 28.4863">
 <g>
  <rect height="28.4863" opacity="0" width="23.4473" x="0" y="0"/>
  <path d="M0 14.2383C0 18.6133 0.888672 24.1406 3.65234 26.8262C4.69727 27.8516 6.00586 28.4668 7.63672 28.4668C8.74023 28.4668 10.3125 28.125 10.5371 26.9531C10.7129 26.5625 10.6738 26.1523 10.5859 25.5859L9.98047 21.9336C9.76562 20.6738 9.28711 20.0586 8.06641 19.7168L5.86914 19.1113C5.42969 19.0039 5.26367 18.8672 5.07812 18.3594C4.72656 17.3438 4.52148 15.7324 4.52148 14.2383C4.52148 12.7344 4.72656 11.123 5.07812 10.1074C5.26367 9.59961 5.42969 9.47266 5.86914 9.35547L8.06641 8.75C9.28711 8.41797 9.76562 7.79297 9.98047 6.5332L10.5859 2.88086C10.6738 2.32422 10.7129 1.9043 10.5371 1.51367C10.3125 0.341797 8.74023 0 7.63672 0C6.00586 0 4.69727 0.615234 3.65234 1.64062C0.888672 4.33594 0 9.86328 0 14.2383Z" fill="black" fill-opacity="0.85"/>
  <path d="M10.7617 15.0098L17.9395 15.0098L20.4199 14.9121L17.666 17.4316L16.1328 18.9648C15.9766 19.1211 15.8984 19.3164 15.8984 19.5508C15.8984 19.9902 16.2207 20.293 16.6406 20.293C16.8652 20.293 17.0605 20.2148 17.2168 20.0586L22.4707 14.8145C22.6562 14.6289 22.7539 14.4238 22.7539 14.2383C22.7539 14.0527 22.6562 13.8477 22.4707 13.6621L17.2168 8.4082C17.0605 8.26172 16.8652 8.17383 16.6406 8.17383C16.2207 8.17383 15.8984 8.48633 15.8984 8.92578C15.8984 9.15039 15.9766 9.35547 16.1328 9.50195L17.666 11.0449L20.4199 13.5547L17.9395 13.457L10.7617 13.457C10.2734 13.457 9.9707 13.8281 9.9707 14.2383C9.9707 14.6387 10.2734 15.0098 10.7617 15.0098Z" fill="black" fill-opacity="0.85"/>
 </g>
</svg>
