<?xml version="1.0" ?><!-- Generator: Adobe Illustrator 25.0.0, SVG Export Plug-In . SVG Version: 6.00 Build 0)  --><svg xmlns="http://www.w3.org/2000/svg" xmlns:xlink="http://www.w3.org/1999/xlink" version="1.1" id="Layer_1" x="0px" y="0px" viewBox="0 0 512 512" style="enable-background:new 0 0 512 512;" xml:space="preserve">
<path d="M352.7,498.2c21.2,0,39.2-3,54.1-9.1c14.9-6.1,28.5-16,40.7-30c1-1,1.9-2,2.8-3c0.9-1.1,1.8-2.1,2.8-3  c7.3-8.1,12.7-16.1,16.1-24.1c3.5-8,5.2-15.8,5.2-23.4c0-8.7-2.6-17.2-7.8-25.3c-5.2-8.2-13.2-16-24-23.4l-70.6-49  c-10.8-7.4-22.3-11.2-34.3-11.4s-23.2,4.8-33.3,14.8l-18.7,18.7c-2.7,2.7-5.4,4.3-7.9,4.6c-2.5,0.3-5.2-0.4-8.1-2.2  c-4.2-2.7-9.7-6.9-16.4-12.4c-6.7-5.5-13.7-11.5-21-18.1c-7.3-6.5-13.9-12.8-19.9-18.8c-6.3-6.3-12.5-12.7-18.4-19.2  c-6-6.5-11.4-12.7-16.3-18.8c-4.9-6.1-8.9-11.7-12.1-16.9c-1.6-2.7-2.3-5.4-1.9-7.9c0.3-2.5,1.9-5.1,4.6-7.9l18.4-18.7  c10.2-10.2,15.2-21.3,15-33.3c-0.2-12-4-23.5-11.4-34.3l-49.2-70.6c-7.4-10.8-15.2-18.8-23.3-23.9c-8.1-5.1-16.5-7.7-25.2-7.9  c-15.5-0.3-31.4,6.8-47.5,21.3c-1.1,1-2.2,1.9-3.2,2.8c-1,0.9-2,1.7-3.2,2.5C25.1,62.7,15.2,76.3,9.1,91.2C3,106.1,0,124,0,145  c0,23.1,4.6,47.6,13.9,73.5c9.3,25.9,23,52.3,41,79.2c18,26.9,40.1,53.4,66.1,79.4c25.9,25.9,52.2,47.8,79.1,65.8  c26.8,18,53.2,31.7,79.1,41.1C305,493.5,329.5,498.2,352.7,498.2z M352.9,460.8c-20.7,0.5-42.8-4-66.3-13.6  c-23.5-9.5-47.1-22.6-70.8-39.2c-23.7-16.6-46-35.3-66.8-56.1c-21-21-40.1-43.6-57.1-67.8c-17.1-24.2-30.5-48.3-40.4-72.3  S36.8,165.6,37.1,145c0.3-13.4,2.8-25.7,7.5-37c4.7-11.2,11.8-21,21.3-29.2c0.8-0.8,1.6-1.5,2.3-2.1c0.7-0.6,1.5-1.2,2.3-1.8  c3.6-3.1,7.2-5.5,11-7.2c3.8-1.7,7.4-2.5,10.8-2.5c7.8,0,13.8,3.3,18.2,9.9l47.1,70.6c2.6,3.9,3.8,7.8,3.8,11.9  c-0.1,4-2,7.9-5.7,11.6l-21.3,21.3c-8.4,8.2-12.6,17.2-12.6,26.8c0,9.6,3.1,18.5,9.2,26.6c7,9.4,15.8,20.1,26.4,32.3  c10.7,12.1,20.6,22.8,29.8,32c6.3,6.1,13.5,12.9,21.5,20.3c8,7.4,16,14.5,24,21.3c8,6.9,15.1,12.7,21.2,17.3c8.2,6,17.1,9,26.7,9.1  c9.5,0.1,18.5-4.1,26.9-12.5l21.3-21.3c3.7-3.9,7.6-5.8,11.6-5.8c4,0,7.9,1.2,11.6,3.6l70.6,47.1c3.7,2.4,6.3,5.2,7.9,8.2  c1.5,3.1,2.3,6.4,2.3,9.9c0,7.3-3.3,14.6-9.9,22.1c-0.6,0.8-1.3,1.6-1.8,2.3c-0.6,0.7-1.2,1.5-1.8,2.3c-8.4,9.5-18.2,16.7-29.5,21.3  C378.6,458.2,366.3,460.7,352.9,460.8z" class="hierarchical-0:secondary SFSymbolsPreview4D4D4D" style="fill: #4D4D4D;"/>
<path d="M384.4,243c3.9,0,7.2-1.3,9.8-3.9c2.7-2.6,4-5.8,4-9.7V27.9c0-4-1.3-7.4-4-10.1c-2.7-2.7-5.9-4-9.8-4c-3.7,0-6.9,1.3-9.6,4  c-2.7,2.7-4,6-4,10.1v201.5c0,3.9,1.3,7.1,3.9,9.7C377.3,241.7,380.5,243,384.4,243z M441.2,219c3.9,0,7.2-1.3,9.8-4  c2.7-2.7,4-5.9,4-9.8V51.4c0-3.7-1.3-6.9-4-9.5c-2.7-2.6-5.9-3.9-9.8-3.9c-3.7,0-6.9,1.3-9.6,3.9c-2.7,2.6-4,5.7-4,9.5v153.8  c0,3.9,1.3,7.2,4,9.8C434.3,217.7,437.5,219,441.2,219z M327.7,201.1c3.9,0,7.1-1.3,9.7-3.9c2.6-2.6,3.9-5.9,3.9-9.9V69.4  c0-3.7-1.3-6.9-3.9-9.6c-2.6-2.7-5.8-4-9.7-4c-3.9,0-7.2,1.3-9.8,4c-2.7,2.7-4,5.9-4,9.6v117.9c0,4,1.3,7.4,4,9.9  C320.5,199.8,323.8,201.1,327.7,201.1z M498.2,173.2c4,0,7.4-1.3,9.9-3.9c2.6-2.6,3.9-5.8,3.9-9.7V97.3c0-3.9-1.3-7.1-3.9-9.7  c-2.6-2.6-5.9-3.9-9.9-3.9c-3.7,0-6.9,1.3-9.6,4c-2.7,2.7-4,5.9-4,9.6v62.3c0,3.7,1.3,6.9,4,9.6  C491.3,171.8,494.5,173.2,498.2,173.2z M270.4,160.3c4,0,7.4-1.3,10.1-3.9c2.7-2.6,4-5.7,4-9.5v-36.9c0-3.9-1.3-7.2-4-9.8  c-2.7-2.7-6-4-10.1-4c-3.7,0-6.9,1.3-9.5,4c-2.6,2.7-3.9,5.9-3.9,9.8V147c0,3.7,1.3,6.9,3.9,9.5C263.6,159,266.7,160.3,270.4,160.3z  " class="hierarchical-1:primary SFSymbolsPreview212121" style="fill: #212121;"/>
</svg>