<?xml version="1.0" ?><!-- Generator: Adobe Illustrator 25.0.0, SVG Export Plug-In . SVG Version: 6.00 Build 0)  --><svg xmlns="http://www.w3.org/2000/svg" xmlns:xlink="http://www.w3.org/1999/xlink" version="1.1" id="Layer_1" x="0px" y="0px" viewBox="0 0 512 512" style="enable-background:new 0 0 512 512;" xml:space="preserve">
<path d="M123,372.1c23.4,23.3,48.1,44.3,74,63.1c25.9,18.8,51.7,33.6,77.6,44.6c25.9,11,50.4,16.5,73.5,16.5  c15.7,0,30.3-2.8,43.9-8.5c13.6-5.7,25.9-14.6,36.9-26.7c6.3-7.1,11.4-14.8,15.2-22.9c3.8-8.2,5.7-16.4,5.7-24.6  c0-6.1-1.3-12-3.8-17.6c-2.5-5.6-6.7-10.4-12.5-14.4l-74.2-52.9c-5.7-3.9-10.9-6.8-15.8-8.7c-4.9-1.9-9.5-2.9-13.8-2.9  c-5.5,0-10.8,1.5-16,4.5c-5.2,3-10.5,7.2-16,12.7l-17.2,17c-2.6,2.6-5.7,3.9-9.2,3.9c-1.9,0-3.8-0.3-5.5-1c-1.7-0.6-3.2-1.2-4.5-1.7  c-7.4-4-17.1-11-28.9-21c-11.8-9.9-23.7-20.9-35.7-32.9c-11.8-12-22.7-23.8-32.7-35.7c-10-11.8-17-21.4-20.9-28.9  c-0.6-1.3-1.3-2.8-1.8-4.5c-0.6-1.7-0.8-3.4-0.8-5.2c0-3.6,1.2-6.5,3.6-9l17-17.7c5.5-5.5,9.7-10.8,12.7-16c3-5.2,4.5-10.5,4.5-16  c0-4.4-1-9-2.9-13.8c-1.9-4.9-4.9-10.1-9-15.8l-52.1-73.5c-4.2-5.8-9.2-10.1-15-12.7c-5.8-2.7-12-4-18.4-4c-16.8,0-32.4,7-46.8,21.1  C22.2,78.3,13.5,90.8,8.1,104.4C2.7,118.1,0,132.7,0,148.2c0,23.3,5.4,47.7,16.1,73.4c10.8,25.6,25.4,51.3,44,77  C78.7,324.3,99.7,348.8,123,372.1z" class="hierarchical-0:secondary SFSymbolsPreview4D4D4D" style="fill: #4D4D4D;"/>
<path d="M384.4,245c3.9,0,7.2-1.3,9.8-3.9c2.7-2.6,4-5.8,4-9.7V29.8c0-4-1.3-7.4-4-10.1c-2.7-2.7-5.9-4-9.8-4c-3.7,0-6.9,1.3-9.6,4  c-2.7,2.7-4,6-4,10.1v201.5c0,3.9,1.3,7.1,3.9,9.7C377.3,243.7,380.5,245,384.4,245z M441.2,221c3.9,0,7.2-1.3,9.8-4  c2.7-2.7,4-5.9,4-9.8V53.4c0-3.7-1.3-6.9-4-9.5c-2.7-2.6-5.9-3.9-9.8-3.9c-3.7,0-6.9,1.3-9.6,3.9c-2.7,2.6-4,5.7-4,9.5v153.8  c0,3.9,1.3,7.2,4,9.8C434.3,219.6,437.5,221,441.2,221z M327.7,203c3.9,0,7.1-1.3,9.7-3.9c2.6-2.6,3.9-5.9,3.9-9.9V71.3  c0-3.7-1.3-6.9-3.9-9.6c-2.6-2.7-5.8-4-9.7-4c-3.9,0-7.2,1.3-9.8,4c-2.7,2.7-4,5.9-4,9.6v117.9c0,4,1.3,7.4,4,9.9  C320.5,201.7,323.8,203,327.7,203z M498.2,175.1c4,0,7.4-1.3,9.9-3.9c2.6-2.6,3.9-5.8,3.9-9.7V99.2c0-3.9-1.3-7.1-3.9-9.7  c-2.6-2.6-5.9-3.9-9.9-3.9c-3.7,0-6.9,1.3-9.6,4c-2.7,2.7-4,5.9-4,9.6v62.3c0,3.7,1.3,6.9,4,9.6  C491.3,173.8,494.5,175.1,498.2,175.1z M270.4,162.3c4,0,7.4-1.3,10.1-3.9c2.7-2.6,4-5.7,4-9.5v-36.9c0-3.9-1.3-7.2-4-9.8  c-2.7-2.7-6-4-10.1-4c-3.7,0-6.9,1.3-9.5,4c-2.6,2.7-3.9,5.9-3.9,9.8v36.9c0,3.7,1.3,6.9,3.9,9.5C263.6,161,266.7,162.3,270.4,162.3  z" class="hierarchical-1:primary SFSymbolsPreview212121" style="fill: #212121;"/>
</svg>