<?xml version="1.0" ?><!-- Generator: Adobe Illustrator 25.0.0, SVG Export Plug-In . SVG Version: 6.00 Build 0)  --><svg xmlns="http://www.w3.org/2000/svg" xmlns:xlink="http://www.w3.org/1999/xlink" version="1.1" id="Layer_1" x="0px" y="0px" viewBox="0 0 512 512" style="enable-background:new 0 0 512 512;" xml:space="preserve">
<path d="M256,512c140,0,256-116.2,256-256C512,116,395.8,0,255.7,0C116,0,0,116,0,256C0,395.8,116.2,512,256,512z M256,469.3  c-118.5,0-213.1-94.9-213.1-213.3S137.3,42.7,255.7,42.7S469.1,137.5,469.3,256S374.5,469.3,256,469.3z M194.8,315  c58.5,58.5,133,95.9,177.2,51.7c1.8-1.8,3-3.3,4.3-4.8c11.5-13.1,14.6-29.9,0-40.9c-11.5-8.5-23.8-17.1-44.7-31.4  c-14.6-10.3-24.1-7.8-35.4,3.3l-10,10c-2.8,2.8-7.8,2.3-11,0.3c-9-5.3-23.6-16.8-37.6-31.1c-13.8-13.8-26.1-29.1-31.1-37.4  c-1.8-3-2.8-7.3,0.5-10.8l9.8-10.3c11.3-12,13.8-21.1,3.3-35.6L189,134c-10.5-14.8-25.9-11.5-42.7,0.8c-1.3,0.8-2.3,2-3.3,2.8  C98.6,182,136.3,256.5,194.8,315z"/>
</svg>