<?xml version="1.0" ?><!-- Generator: Adobe Illustrator 25.0.0, SVG Export Plug-In . SVG Version: 6.00 Build 0)  --><svg xmlns="http://www.w3.org/2000/svg" xmlns:xlink="http://www.w3.org/1999/xlink" version="1.1" id="Layer_1" x="0px" y="0px" viewBox="0 0 512 512" style="enable-background:new 0 0 512 512;" xml:space="preserve">
<path d="M396.5,5.7c-7.5,7.5-7.5,19.8,0,27.5l82.2,82.2c7.5,7.7,20.2,7.7,27.7,0c7.5-7.5,7.5-19.8,0-27.2L424,5.7  C416.5-1.7,403.7-1.7,396.5,5.7z M350.5,511.9c42.2,0,69.9-11.3,94.2-38.8c1.9-1.9,3.9-4.1,5.5-6c14.5-16.1,21.2-32.1,21.2-47.2  c0-17.4-10.1-33.5-31.6-48.4l-70.1-48.7c-21.7-14.9-47-16.6-67.2,3.4l-18.6,18.6c-5.5,5.5-10.4,5.8-15.7,2.4  c-13-8.2-39.3-31.1-57.1-48.9c-18.8-18.6-36.9-39.3-46.5-54.5c-3.1-5.5-2.9-10.1,2.7-15.7l18.3-18.6c20.2-20.2,18.6-45.8,3.6-67.2  L140.5,72c-14.9-21.5-31.1-31.3-48.4-31.6C76.9,40.2,61,47.2,44.8,61.6c-2.2,1.9-4.1,3.6-6,5.3C11.3,91.5,0,119.2,0,160.9  c0,68.9,42.4,152.8,120.3,230.7C197.6,469,281.8,511.9,350.5,511.9z M350.7,474.8c-61.5,1.2-140.3-46-202.7-108.2  C85.1,303.9,35.7,222.4,36.9,160.9c0.5-26.5,9.9-49.4,28.7-65.8c1.7-1.4,2.9-2.7,4.6-3.9c7.2-6.3,14.9-9.6,21.9-9.6  c7,0,13.3,2.7,17.8,9.9l46.8,70.1c5.1,7.5,5.5,15.9-1.9,23.4l-21.2,21.2c-16.6,16.6-15.4,36.9-3.4,53c13.7,18.6,37.6,45.6,56.2,63.9  c18.3,18.6,47.5,44.6,66.3,58.6c16.1,12.1,36.4,13.3,53-3.4l21.2-21.2c7.5-7.5,15.7-7,23.4-2.2l70.1,46.8c7.2,4.8,9.9,10.8,9.9,18.1  c0,7-3.4,14.7-9.6,21.9c-1.4,1.7-2.4,2.9-3.9,4.6C400.3,465.1,377.4,474.3,350.7,474.8z M372.6,139.5c13.3,12.3,33.7,12.5,46.8-0.5  c12.5-12.8,12.5-33.5,0-46.3c-13-13-33.7-13-46.8-0.2C359.6,105.5,359.6,126,372.6,139.5z M285.9,116.1c-7.5,7.5-7.5,20,0,27.5  l82.4,82.4c7.5,7.5,19.8,7.5,27.2,0c7.5-7.5,7.5-20,0-27.5l-82.2-82.4C305.9,108.6,293.3,108.6,285.9,116.1z M262.2,249.6  c12.8,13,33.7,13,46.5,0c13-13,13-33.7,0-46.3c-12.8-13.3-33.7-13.3-46.5-0.5C249.2,215.9,249.2,236.6,262.2,249.6z"/>
</svg>