<?xml version="1.0" ?><!-- Generator: Adobe Illustrator 25.0.0, SVG Export Plug-In . SVG Version: 6.00 Build 0)  --><svg xmlns="http://www.w3.org/2000/svg" xmlns:xlink="http://www.w3.org/1999/xlink" version="1.1" id="Layer_1" x="0px" y="0px" viewBox="0 0 512 512" style="enable-background:new 0 0 512 512;" xml:space="preserve">
<path d="M71.2,114.5c-8.5,0-12.8,4.2-12.8,12.6v258c0,8.4,4.3,12.6,12.8,12.6H441c8.5,0,12.8-4.2,12.8-12.6v-258  c0-8.4-4.3-12.6-12.8-12.6H71.2z M85.1,136.5h341.8c3.3,0,5,1.7,5,5v229.3c0,3.3-1.7,5-5,5H85.1c-3.2,0-4.8-1.7-4.8-5V141.5  C80.3,138.1,81.9,136.5,85.1,136.5z M437.3,346.7L337,252.9c-3.8-3.6-7.8-6.3-12.1-7.9c-4.3-1.7-8.7-2.5-13.4-2.5  c-4.8,0-9.3,0.8-13.6,2.3c-4.3,1.5-8.3,4.1-12.1,7.7L209.3,321L178,292.6c-3.5-3.3-7.2-5.8-11.1-7.3c-3.9-1.5-7.9-2.3-11.9-2.3  c-3.8,0-7.4,0.8-11,2.3c-3.5,1.5-7.1,3.9-10.7,7.1l-64.5,58.4v17.4c0,6.9,1.8,12,5.3,15.1c3.5,3.1,8.2,4.7,14,4.7h329.6  c5.8,0,10.5-1.6,14.1-4.7c3.6-3.1,5.4-8.1,5.4-15.1V346.7z M181.7,254.4c11,0,20.4-3.9,28.2-11.8c7.8-7.9,11.7-17.3,11.7-28.1  c0-11-3.9-20.4-11.7-28.2c-7.8-7.8-17.2-11.7-28.2-11.7c-11,0-20.4,3.9-28.2,11.7c-7.8,7.8-11.7,17.2-11.7,28.2  c0,10.9,3.9,20.2,11.7,28.1C161.3,250.4,170.7,254.4,181.7,254.4z" class="hierarchical-0:secondary SFSymbolsPreview4D4D4D" style="fill: #4D4D4D;"/>
<path d="M17.4,56.1c-5.2,0-9.4,1.6-12.6,4.8C1.6,64.1,0,68.3,0,73.5v365.2c0,5.2,1.6,9.4,4.8,12.5s7.4,4.7,12.6,4.7h477.5  c5.2,0,9.4-1.6,12.5-4.7c3.1-3.1,4.7-7.3,4.7-12.5V73.5c0-5.2-1.6-9.4-4.7-12.6c-3.1-3.2-7.3-4.8-12.5-4.8H17.4z M41.3,91.1h429.5  c4.2,0,6.3,2.1,6.3,6.3v317.2c0,4.2-2.1,6.3-6.3,6.3H41.3c-4.2,0-6.3-2.1-6.3-6.3V97.4C35,93.2,37.1,91.1,41.3,91.1z" class="hierarchical-1:primary SFSymbolsPreview212121" style="fill: #212121;"/>
</svg>