<?xml version="1.0" encoding="UTF-8"?>
<!--Generator: Apple Native CoreSVG 326-->
<!DOCTYPE svg
PUBLIC "-//W3C//DTD SVG 1.1//EN"
       "http://www.w3.org/Graphics/SVG/1.1/DTD/svg11.dtd">
<svg version="1.1" xmlns="http://www.w3.org/2000/svg" xmlns:xlink="http://www.w3.org/1999/xlink" viewBox="0 0 31.3477 24.6191">
 <g>
  <rect height="24.6191" opacity="0" width="31.3477" x="0" y="0"/>
  <path d="M29.7559 16.6895L22.1484 9.60938C21.5723 9.07227 20.9277 8.80859 20.2051 8.80859C19.502 8.80859 18.8867 9.0625 18.291 9.58984L11.9043 15.3027L12.4512 15.3027L9.42383 12.5488C8.90625 12.0703 8.33984 11.8164 7.72461 11.8164C7.13867 11.8164 6.61133 12.0605 6.10352 12.5293L1.32812 16.8945C1.32812 18.5742 1.98242 19.4238 3.32031 19.4238L27.2461 19.4238C28.8672 19.4238 29.7461 18.457 29.7559 16.6895ZM3.05664 20.6055L27.9395 20.6055C29.8438 20.6055 30.9863 19.4629 30.9863 17.5586L30.9863 3.04688C30.9863 1.14258 29.8438 0 27.9395 0L3.05664 0C1.15234 0 0 1.14258 0 3.04688L0 17.5586C0 19.4629 1.15234 20.6055 3.05664 20.6055ZM3.08594 18.877C2.23633 18.877 1.72852 18.3789 1.72852 17.5293L1.72852 3.08594C1.72852 2.22656 2.23633 1.72852 3.08594 1.72852L27.9004 1.72852C28.75 1.72852 29.2578 2.22656 29.2578 3.08594L29.2578 17.5293C29.2578 18.3789 28.75 18.877 27.9004 18.877ZM9.24805 24.6094L21.748 24.6094C22.2266 24.6094 22.6172 24.2188 22.6172 23.7402C22.6172 23.252 22.2266 22.8613 21.748 22.8613L9.24805 22.8613C8.75977 22.8613 8.36914 23.252 8.36914 23.7402C8.36914 24.2188 8.75977 24.6094 9.24805 24.6094Z" fill="black" fill-opacity="0.85"/>
  <path d="M9.96094 9.58984C11.582 9.58984 12.9102 8.26172 12.9102 6.61133C12.9102 4.98047 11.582 3.64258 9.96094 3.64258C8.32031 3.64258 6.97266 4.98047 6.97266 6.61133C6.97266 8.26172 8.32031 9.58984 9.96094 9.58984Z" fill="black" fill-opacity="0.85"/>
 </g>
</svg>
