<?xml version="1.0" encoding="UTF-8"?>
<!--Generator: Apple Native CoreSVG 326-->
<!DOCTYPE svg
PUBLIC "-//W3C//DTD SVG 1.1//EN"
       "http://www.w3.org/Graphics/SVG/1.1/DTD/svg11.dtd">
<svg version="1.1" xmlns="http://www.w3.org/2000/svg" xmlns:xlink="http://www.w3.org/1999/xlink" viewBox="0 0 32.1325 27.0817">
 <g>
  <rect height="27.0817" opacity="0" width="32.1325" x="0" y="0"/>
  <path d="M24.7137 3.13556L25.3249 6.61212L23.5676 6.61212L23.0243 3.52618C22.7801 2.14923 21.9012 1.57306 20.5829 1.80743L3.51256 4.80548C2.17467 5.05939 1.5692 5.88947 1.81334 7.27618L3.85436 18.8582C4.0985 20.2352 4.95787 20.8211 6.29576 20.5867L6.77428 20.5024L6.77428 22.2596L6.5692 22.2957C4.0692 22.7352 2.59459 21.7098 2.16491 19.2488L0.094593 7.48126C-0.335095 5.02032 0.700062 3.55548 3.18053 3.11603L20.3094 0.0984495C22.7997-0.341004 24.284 0.694153 24.7137 3.13556Z" fill="black" fill-opacity="0.85"/>
  <path d="M15.7196 16.202C17.1942 16.202 18.3954 14.9813 18.3954 13.4969C18.3954 12.0418 17.1942 10.8113 15.7196 10.8113C14.2352 10.8113 13.0438 12.0418 13.0438 13.4969C13.0438 14.9813 14.2352 16.202 15.7196 16.202ZM10.5926 25.4793L27.7411 25.4793C29.8602 25.4793 30.9637 24.4051 30.9637 22.2859L30.9637 21.407L25.163 15.9578C24.6551 15.4891 24.0497 15.2449 23.4149 15.2449C22.7704 15.2449 22.2235 15.4695 21.6864 15.9481L16.5692 20.4402L14.5672 18.6141C14.079 18.1746 13.5809 17.9598 13.0243 17.9598C12.5067 17.9598 12.0477 18.1746 11.5594 18.6043L7.36022 22.2957C7.36022 24.4051 8.4735 25.4793 10.5926 25.4793ZM10.5731 26.0848L27.9657 26.0848C30.4852 26.0848 31.7743 24.8055 31.7743 22.325L31.7743 10.3719C31.7743 7.89142 30.4852 6.61212 27.9657 6.61212L10.5731 6.61212C8.04381 6.61212 6.77428 7.88165 6.77428 10.3719L6.77428 22.325C6.77428 24.825 8.04381 26.0848 10.5731 26.0848ZM10.6024 24.3563C9.24498 24.3563 8.5028 23.6336 8.5028 22.2371L8.5028 10.4695C8.5028 9.06329 9.24498 8.34064 10.6024 8.34064L27.9364 8.34064C29.2743 8.34064 30.036 9.06329 30.036 10.4695L30.036 22.2371C30.036 23.6336 29.2743 24.3563 27.9364 24.3563Z" fill="black" fill-opacity="0.85"/>
 </g>
</svg>
