<?xml version="1.0" ?><!-- Generator: Adobe Illustrator 25.0.0, SVG Export Plug-In . SVG Version: 6.00 Build 0)  --><svg xmlns="http://www.w3.org/2000/svg" xmlns:xlink="http://www.w3.org/1999/xlink" version="1.1" id="Layer_1" x="0px" y="0px" viewBox="0 0 512 512" style="enable-background:new 0 0 512 512;" xml:space="preserve">
<path d="M62,371.5h37.7v30.2c0,40.7,20.6,61.3,62,61.3h288.3c41.1,0,61.9-20.6,61.9-61.3v-200c0-40.7-20.7-61.3-61.9-61.3h-37.9  v-30.2c0-40.7-20.7-61.3-61.9-61.3H62C20.6,49,0,69.6,0,110.3v200C0,350.9,20.6,371.5,62,371.5z M62.4,339.7  c-19.8,0-30.6-10.7-30.6-31.2V112c0-20.6,10.9-31.2,30.6-31.2h287.3c19.6,0,30.6,10.7,30.6,31.2v28.5H161.8c-41.5,0-62,20.4-62,61.3  v137.9H62.4z M131.6,203.5c0-20.6,10.9-31.2,30.6-31.2h287.3c19.6,0,30.6,10.7,30.6,31.2v157.3l-71.5-67.8  c-8.5-7.9-19-11.9-29.4-11.9c-10.7,0-20.4,3.8-29.2,11.7l-87.7,77.9l-35.2-31.6c-8.1-7.3-17-11.3-26.3-11.3  c-8.7,0-16.8,3.8-25.1,11.1L131.6,377V203.5z M230.4,298c25.1,0,45.8-20.7,45.8-46.2c0-25.1-20.7-46-45.8-46  c-25.5,0-46.2,20.9-46.2,46C184.2,277.2,204.9,298,230.4,298z"/>
</svg>