<?xml version="1.0" ?><!-- Generator: Adobe Illustrator 25.0.0, SVG Export Plug-In . SVG Version: 6.00 Build 0)  --><svg xmlns="http://www.w3.org/2000/svg" xmlns:xlink="http://www.w3.org/1999/xlink" version="1.1" id="Layer_1" x="0px" y="0px" viewBox="0 0 512 512" style="enable-background:new 0 0 512 512;" xml:space="preserve">
<path d="M0,310.2c0,40.7,20.6,61.3,62,61.3h10.7V198.8c0-56.1,29.6-85.2,86.2-85.2h253.3v-3.4c0-40.7-20.7-61.3-61.9-61.3H62  C20.6,49,0,69.6,0,110.3V310.2z M161.8,463h288.3c41.1,0,61.9-20.6,61.9-61.3v-200c0-40.7-20.7-61.3-61.9-61.3H161.8  c-41.5,0-62,20.4-62,61.3v200C99.8,442.4,120.3,463,161.8,463z M237.9,298.4c-24.9,0-45.1-20.2-45.1-44.9  c0-24.5,20.2-44.9,45.1-44.9c24.5,0,44.7,20.4,44.7,44.9C282.6,278.2,262.4,298.4,237.9,298.4z M159.7,430  c-17.6,0-26.9-9.3-26.9-27.1v-16.2l33.2-30c17.2-15.8,27.3-26.5,40.9-26.5c14,0,25.3,11.1,43.1,26.5l18,16l75.3-68.2  c17.8-16,27.3-21.1,40.1-21.1c12.4,0,21.7,5.3,38.5,22.1l57.3,56.7v40.7c0,17.6-9.5,27.1-27.1,27.1H159.7z"/>
</svg>