<?xml version="1.0" ?><!-- Generator: Adobe Illustrator 25.0.0, SVG Export Plug-In . SVG Version: 6.00 Build 0)  --><svg xmlns="http://www.w3.org/2000/svg" xmlns:xlink="http://www.w3.org/1999/xlink" version="1.1" id="Layer_1" x="0px" y="0px" viewBox="0 0 512 512" style="enable-background:new 0 0 512 512;" xml:space="preserve">
<path d="M488.4,328.9L366.6,214.6c-4.5-4.2-9.4-7.4-14.6-9.4c-5.3-2-10.7-3.1-16.3-3.1c-5.6,0-11,1-16.1,3c-5.1,2-10,5.1-14.6,9.3  l-105.3,94h9l-50.6-45.7c-4.2-3.8-8.7-6.7-13.3-8.7c-4.6-2-9.4-3-14.1-3c-4.6,0-9.2,1-13.6,2.9c-4.4,1.9-8.7,4.8-12.8,8.6L26,333.2  c0,13.7,2.7,24,8,30.9c5.3,7,13.2,10.4,23.8,10.4h389.9c13.1,0,23.2-4,30.2-11.9C484.9,354.8,488.4,343.5,488.4,328.9z M166.9,217.1  c8.7,0,16.7-2.2,24-6.6c7.2-4.4,13-10.2,17.4-17.6c4.4-7.4,6.6-15.6,6.6-24.6c0-8.7-2.2-16.8-6.6-24.1c-4.4-7.3-10.2-13.1-17.4-17.5  c-7.2-4.4-15.2-6.6-24-6.6c-8.9,0-17,2.2-24.4,6.6c-7.4,4.4-13.2,10.2-17.6,17.5c-4.4,7.3-6.6,15.3-6.6,24.1c0,9,2.2,17.2,6.6,24.6  c4.4,7.4,10.2,13.2,17.6,17.6C149.9,214.9,158,217.1,166.9,217.1z M52.6,391.2h406.7c17.3,0,30.4-4.4,39.3-13.3  c8.9-8.9,13.3-22,13.3-39.3V103.8c0-17.2-4.4-30.2-13.3-39.1c-8.9-8.9-22-13.3-39.3-13.3H52.6c-17.3,0-30.4,4.4-39.3,13.3  C4.4,73.6,0,86.6,0,103.8v234.7c0,17.3,4.4,30.4,13.3,39.3C22.2,386.7,35.3,391.2,52.6,391.2z M53.2,358.2c-6.7,0-11.7-1.7-15.2-5  c-3.4-3.3-5.1-8.4-5.1-15.1V104.4c0-6.7,1.7-11.7,5.1-15.1c3.4-3.3,8.5-5,15.2-5h405.5c6.8,0,11.9,1.7,15.3,5c3.3,3.3,5,8.4,5,15.1  v233.7c0,6.7-1.7,11.7-5,15.1c-3.3,3.3-8.4,5-15.3,5H53.2z M153,460.6h206c4.5,0,8.4-1.6,11.7-4.8c3.3-3.2,4.9-7.1,4.9-11.8  c0-4.5-1.6-8.4-4.9-11.7c-3.3-3.3-7.2-4.9-11.7-4.9H153c-4.5,0-8.4,1.6-11.7,4.9c-3.3,3.3-4.9,7.2-4.9,11.7c0,4.6,1.6,8.6,4.9,11.8  C144.6,459,148.5,460.6,153,460.6z"/>
</svg>