<?xml version="1.0" encoding="UTF-8"?>
<!--Generator: Apple Native CoreSVG 326-->
<!DOCTYPE svg
PUBLIC "-//W3C//DTD SVG 1.1//EN"
       "http://www.w3.org/Graphics/SVG/1.1/DTD/svg11.dtd">
<svg version="1.1" xmlns="http://www.w3.org/2000/svg" xmlns:xlink="http://www.w3.org/1999/xlink" viewBox="0 0 25.8008 25.459">
 <g>
  <rect height="25.459" opacity="0" width="25.8008" x="0" y="0"/>
  <path d="M12.7148 25.4395C19.7363 25.4395 25.4395 19.7461 25.4395 12.7246C25.4395 5.70312 19.7363 0 12.7148 0C5.69336 0 0 5.70312 0 12.7246C0 19.7461 5.69336 25.4395 12.7148 25.4395ZM12.7148 23.623C6.68945 23.623 1.81641 18.75 1.81641 12.7246C1.81641 6.69922 6.68945 1.82617 12.7148 1.82617C18.7402 1.82617 23.6133 6.69922 23.6133 12.7246C23.6133 18.75 18.7402 23.623 12.7148 23.623Z" fill="black" fill-opacity="0.85"/>
  <path d="M7.41211 18.2617L17.998 18.2617C19.209 18.2617 19.8242 17.6465 19.8242 16.4551L19.8242 9.0332C19.8242 7.83203 19.209 7.22656 17.998 7.22656L7.41211 7.22656C6.21094 7.22656 5.58594 7.82227 5.58594 9.0332L5.58594 16.4551C5.58594 17.6465 6.21094 18.2617 7.41211 18.2617ZM7.48047 17.2168C6.94336 17.2168 6.62109 16.9043 6.62109 16.3965L6.62109 15.8594L8.37891 14.3945C8.65234 14.1602 8.94531 14.0234 9.21875 14.0234C9.50195 14.0234 9.80469 14.1602 10.0879 14.4043L11.2305 15.4395L14.1406 12.8809C14.4434 12.6172 14.7754 12.4805 15.127 12.4805C15.459 12.4805 15.8203 12.627 16.1035 12.8906L18.7793 15.3027L18.7793 16.3965C18.7793 16.9043 18.4668 17.2168 17.9297 17.2168ZM10.0293 12.8711C9.20898 12.8711 8.53516 12.207 8.53516 11.3965C8.53516 10.5859 9.20898 9.91211 10.0293 9.91211C10.8301 9.91211 11.4941 10.5859 11.4941 11.3965C11.4941 12.207 10.8301 12.8711 10.0293 12.8711Z" fill="black" fill-opacity="0.85"/>
 </g>
</svg>
