<?xml version="1.0" encoding="UTF-8"?>
<!--Generator: Apple Native CoreSVG 326-->
<!DOCTYPE svg
PUBLIC "-//W3C//DTD SVG 1.1//EN"
       "http://www.w3.org/Graphics/SVG/1.1/DTD/svg11.dtd">
<svg version="1.1" xmlns="http://www.w3.org/2000/svg" xmlns:xlink="http://www.w3.org/1999/xlink" viewBox="0 0 29.9512 22.959">
 <g>
  <rect height="22.959" opacity="0" width="29.9512" x="0" y="0"/>
  <path d="M0.908203 0C0.361328 0 0 0.361328 0 0.908203L0 22.0508C0 22.5977 0.361328 22.959 0.908203 22.959L28.6816 22.959C29.2285 22.959 29.5898 22.5977 29.5898 22.0508L29.5898 0.908203C29.5898 0.361328 29.2285 0 28.6816 0ZM2.07031 1.72852L27.5195 1.72852C27.7637 1.72852 27.8516 1.82617 27.8516 2.07031L27.8516 20.8887C27.8516 21.1328 27.7637 21.2305 27.5195 21.2305L2.07031 21.2305C1.82617 21.2305 1.72852 21.1328 1.72852 20.8887L1.72852 2.07031C1.72852 1.82617 1.82617 1.72852 2.07031 1.72852Z" fill="black" fill-opacity="0.85"/>
  <path d="M3.80859 3.14453C3.38867 3.14453 3.14453 3.38867 3.14453 3.79883L3.14453 19.1602C3.14453 19.5703 3.38867 19.8145 3.80859 19.8145L25.7812 19.8145C26.2012 19.8145 26.4453 19.5703 26.4453 19.1602L26.4453 3.79883C26.4453 3.38867 26.2012 3.14453 25.7812 3.14453ZM4.54102 4.27734L25.0488 4.27734C25.2246 4.27734 25.3125 4.36523 25.3125 4.54102L25.3125 18.418C25.3125 18.5938 25.2246 18.6816 25.0488 18.6816L4.54102 18.6816C4.36523 18.6816 4.27734 18.5938 4.27734 18.418L4.27734 4.54102C4.27734 4.36523 4.36523 4.27734 4.54102 4.27734ZM25.6445 16.9531L19.6387 11.3672C19.1699 10.9375 18.6719 10.7324 18.0957 10.7324C17.5195 10.7324 17.0312 10.918 16.5625 11.3477L12.0117 15.4297L10.1367 13.7109C9.7168 13.3203 9.25781 13.125 8.76953 13.125C8.30078 13.125 7.90039 13.3203 7.48047 13.7012L3.68164 17.168L3.68164 18.291C3.68164 18.9941 4.08203 19.3164 4.67773 19.3164L24.6484 19.3164C25.2344 19.3164 25.6445 18.9941 25.6445 18.291Z" fill="black" fill-opacity="0.85"/>
  <path d="M10.4004 11.3379C11.6895 11.3379 12.7539 10.2637 12.7539 8.96484C12.7539 7.66602 11.6895 6.5918 10.4004 6.5918C9.0918 6.5918 8.03711 7.66602 8.03711 8.96484C8.03711 10.2637 9.0918 11.3379 10.4004 11.3379Z" fill="black" fill-opacity="0.85"/>
 </g>
</svg>
