<?xml version="1.0" ?><!-- Generator: Adobe Illustrator 25.0.0, SVG Export Plug-In . SVG Version: 6.00 Build 0)  --><svg xmlns="http://www.w3.org/2000/svg" xmlns:xlink="http://www.w3.org/1999/xlink" version="1.1" id="Layer_1" x="0px" y="0px" viewBox="0 0 512 512" style="enable-background:new 0 0 512 512;" xml:space="preserve">
<path d="M68.2,455.9h375.6c45.6,0,68.2-22.6,68.2-67.3V123.4c0-44.7-22.6-67.3-68.2-67.3H68.2C22.8,56.1,0,78.5,0,123.4v265.1  C0,433.5,22.8,455.9,68.2,455.9z M162.8,261.3c-29.5,0-53.6-24.1-53.6-53.6c0-29.3,24.1-53.6,53.6-53.6c29.3,0,53.4,24.3,53.4,53.6  C216.3,237.2,192.2,261.3,162.8,261.3z M68.6,420.9C47.6,420.9,35,408.3,35,387v-13.2l66.7-58.2c9.6-8.5,20-12.8,29.5-12.8  c10.6,0,21.7,4.3,31.3,13.2l41.5,37.3l103.8-92.1c10.6-9.6,22.6-13.9,35-13.9c11.9,0,24.3,4.6,34.5,14.1L477,354v33.4  c0,20.8-12.8,33.4-33.4,33.4H68.6z"/>
</svg>