<?xml version="1.0" ?><!-- Generator: Adobe Illustrator 25.0.0, SVG Export Plug-In . SVG Version: 6.00 Build 0)  --><svg xmlns="http://www.w3.org/2000/svg" xmlns:xlink="http://www.w3.org/1999/xlink" version="1.1" id="Layer_1" x="0px" y="0px" viewBox="0 0 512 512" style="enable-background:new 0 0 512 512;" xml:space="preserve">
<path d="M256,512c35,0,67.9-6.7,98.8-20.1c30.9-13.4,58.1-31.9,81.7-55.5c23.6-23.6,42.1-50.8,55.5-81.7  C505.3,323.9,512,291,512,256s-6.7-67.9-20.1-98.8c-13.4-30.9-31.9-58.1-55.5-81.7c-23.6-23.6-50.9-42.1-81.8-55.5  C323.7,6.7,290.7,0,255.7,0S187.9,6.7,157,20.1C126.1,33.5,98.9,52,75.4,75.5c-23.5,23.6-42,50.8-55.3,81.7C6.7,188.1,0,221,0,256  s6.7,67.9,20.1,98.8c13.4,30.9,31.9,58.1,55.5,81.7c23.6,23.6,50.8,42.1,81.7,55.5C188.1,505.3,221,512,256,512z M256,469.3  c-29.6,0-57.3-5.5-83.1-16.6c-25.8-11-48.4-26.3-67.9-45.8c-19.5-19.5-34.7-42.1-45.7-67.9c-11-25.8-16.4-53.5-16.4-83.1  c0-29.6,5.5-57.3,16.4-83.1c11-25.8,26.1-48.4,45.6-68s42-34.8,67.8-45.8c25.8-11,53.5-16.4,83.1-16.4c29.6,0,57.3,5.5,83.1,16.4  c25.8,11,48.4,26.2,68,45.8c19.6,19.6,34.9,42.2,45.9,68c11,25.8,16.6,53.5,16.6,83.1c0,29.6-5.5,57.3-16.4,83.1  c-11,25.8-26.2,48.4-45.7,67.9c-19.5,19.5-42.2,34.8-68,45.8C313.3,463.8,285.6,469.3,256,469.3z" class="hierarchical-0:secondary SFSymbolsPreview4D4D4D" style="fill: #4D4D4D;"/>
<path d="M151.3,367.7h209.1c12.5,0,22-3.1,28.4-9.4c6.4-6.3,9.5-15.6,9.5-28V182.7c0-12.4-3.2-21.7-9.5-27.9  c-6.4-6.2-15.8-9.3-28.4-9.3H151.3c-12.5,0-22,3.1-28.4,9.3c-6.4,6.2-9.5,15.5-9.5,27.9v147.6c0,12.4,3.2,21.7,9.5,28  C129.3,364.5,138.8,367.7,151.3,367.7z M152.3,344.8c-5,0-9-1.4-11.8-4.3c-2.8-2.8-4.3-6.7-4.3-11.5v-11l33.6-28.4  c5.5-4.7,11-7,16.6-7c5.9,0,11.6,2.4,17.3,7.3l23.1,20.8l57.7-51.2c5.9-5.2,12.3-7.8,19.3-7.8c7.2,0,13.6,2.7,19.1,8l52.5,47.4V329  c0,4.9-1.4,8.7-4.3,11.5c-2.8,2.8-6.8,4.3-11.8,4.3H152.3z M204,259.5c-8.2,0-15.2-2.9-21.1-8.7c-5.9-5.8-8.8-12.8-8.8-21.2  c0-8,2.9-15,8.8-20.8c5.9-5.9,12.9-8.8,21.1-8.8c8.2,0,15.2,2.9,21,8.8c5.8,5.9,8.7,12.8,8.7,20.8c0,8.4-2.9,15.4-8.7,21.2  C219.2,256.6,212.2,259.5,204,259.5z" class="hierarchical-1:primary SFSymbolsPreview212121" style="fill: #212121;"/>
</svg>