<?xml version="1.0" encoding="UTF-8"?>
<!--Generator: Apple Native CoreSVG 326-->
<!DOCTYPE svg
PUBLIC "-//W3C//DTD SVG 1.1//EN"
       "http://www.w3.org/Graphics/SVG/1.1/DTD/svg11.dtd">
<svg version="1.1" xmlns="http://www.w3.org/2000/svg" xmlns:xlink="http://www.w3.org/1999/xlink" viewBox="0 0 25.8008 25.459">
 <g>
  <rect height="25.459" opacity="0" width="25.8008" x="0" y="0"/>
  <path d="M25.4395 12.7246C25.4395 19.7266 19.7266 25.4395 12.7148 25.4395C5.71289 25.4395 0 19.7266 0 12.7246C0 5.71289 5.71289 0 12.7148 0C19.7266 0 25.4395 5.71289 25.4395 12.7246ZM5.51758 6.64062C5.16602 6.64062 4.95117 6.875 4.95117 7.2168L4.95117 18.2422C4.95117 18.5938 5.16602 18.8281 5.51758 18.8281L19.9219 18.8281C20.2637 18.8281 20.4785 18.5938 20.4785 18.2422L20.4785 7.2168C20.4785 6.875 20.2637 6.64062 19.9219 6.64062ZM19.5117 7.75391L19.5117 17.7051C19.5117 17.8125 19.4922 17.832 19.375 17.832L6.05469 17.832C5.9375 17.832 5.91797 17.8125 5.91797 17.7051L5.91797 7.75391C5.91797 7.64648 5.9375 7.62695 6.05469 7.62695L19.375 7.62695C19.4922 7.62695 19.5117 7.64648 19.5117 7.75391ZM7.10938 8.35938C6.82617 8.35938 6.65039 8.53516 6.65039 8.79883L6.65039 16.6602C6.65039 16.9336 6.82617 17.1094 7.10938 17.1094L18.3301 17.1094C18.6133 17.1094 18.7891 16.9336 18.7891 16.6602L18.7891 8.79883C18.7891 8.53516 18.6133 8.35938 18.3301 8.35938ZM17.9883 9.17969L17.9883 15.127L15.2637 12.5879C15.0195 12.3633 14.7168 12.2559 14.4141 12.2559C14.082 12.2559 13.8086 12.3438 13.5547 12.5684L11.2988 14.6094L10.4004 13.7988C10.1758 13.5938 9.91211 13.4766 9.62891 13.4766C9.36523 13.4766 9.13086 13.5938 8.91602 13.7793L7.45117 15.1367L7.45117 9.17969C7.45117 9.12109 7.45117 9.14062 7.46094 9.14062L17.9688 9.14062C17.998 9.14062 17.9883 9.12109 17.9883 9.17969ZM9.15039 11.4453C9.15039 12.168 9.73633 12.7539 10.4688 12.7539C11.1914 12.7539 11.7871 12.168 11.7871 11.4453C11.7871 10.7227 11.1914 10.127 10.4688 10.127C9.73633 10.127 9.15039 10.7227 9.15039 11.4453Z" fill="black" fill-opacity="0.85"/>
 </g>
</svg>
