<?xml version="1.0" ?><!-- Generator: Adobe Illustrator 25.0.0, SVG Export Plug-In . SVG Version: 6.00 Build 0)  --><svg xmlns="http://www.w3.org/2000/svg" xmlns:xlink="http://www.w3.org/1999/xlink" version="1.1" id="Layer_1" x="0px" y="0px" viewBox="0 0 512 512" style="enable-background:new 0 0 512 512;" xml:space="preserve">
<path d="M415.8,267.6V56.1h28c45.6,0,68.2,22.6,68.2,67.3v265.1c0,44.7-22.6,67.3-68.2,67.3H390V289.5h5.6  C406,289.5,415.8,283.5,415.8,267.6z M343.7,267.6c0,15.9,9.8,21.9,20.2,21.9h5.9v166.3H266.2V289.5h5.6c10.4,0,20.2-6.1,20.2-21.9  V56.1h51.7V267.6z M220,267.6c0,15.9,10,21.9,20.2,21.9h5.9v166.3H142.4V289.5h5.6c10.4,0,20.2-6.1,20.2-21.9V56.1H220V267.6z   M68.2,455.9C22.8,455.9,0,433.5,0,388.6V123.4c0-44.9,22.8-67.3,68.2-67.3h28v211.5c0,15.9,10,21.9,20.4,21.9h5.6v166.3H68.2z"/>
</svg>