<?xml version="1.0" ?><!-- Generator: Adobe Illustrator 25.0.0, SVG Export Plug-In . SVG Version: 6.00 Build 0)  --><svg xmlns="http://www.w3.org/2000/svg" xmlns:xlink="http://www.w3.org/1999/xlink" version="1.1" id="Layer_1" x="0px" y="0px" viewBox="0 0 512 512" style="enable-background:new 0 0 512 512;" xml:space="preserve">
<path d="M68.2,455.9h375.6c45.6,0,68.2-22.6,68.2-67.3V123.4c0-44.7-22.6-67.3-68.2-67.3H68.2C22.8,56.1,0,78.5,0,123.4v265.1  C0,433.5,22.8,455.9,68.2,455.9z M68.6,420.9c-21.7,0-33.7-11.5-33.7-34.1V125.2c0-22.6,11.9-34.1,33.7-34.1h27.6v176.5  c0,15.9,10,21.9,20.4,21.9h5.6v131.4H68.6z M148.1,289.5c10.4,0,20.2-6.1,20.2-21.9V91.1H220v176.5c0,15.9,10,21.9,20.2,21.9h5.9  v131.4H142.4V289.5H148.1z M271.9,289.5c10.4,0,20.2-6.1,20.2-21.9V91.1h51.7v176.5c0,15.9,9.8,21.9,20.2,21.9h5.9v131.4H266.2  V289.5H271.9z M395.6,289.5c10.4,0,20.2-6.1,20.2-21.9V91.1h27.6c21.5,0,33.7,11.5,33.7,34.1v261.6c0,22.6-12.2,34.1-33.7,34.1H390  V289.5H395.6z"/>
</svg>