<?xml version="1.0" encoding="UTF-8"?>
<!--Generator: Apple Native CoreSVG 326-->
<!DOCTYPE svg
PUBLIC "-//W3C//DTD SVG 1.1//EN"
       "http://www.w3.org/Graphics/SVG/1.1/DTD/svg11.dtd">
<svg version="1.1" xmlns="http://www.w3.org/2000/svg" xmlns:xlink="http://www.w3.org/1999/xlink" viewBox="0 0 29.9512 22.959">
 <g>
  <rect height="22.959" opacity="0" width="29.9512" x="0" y="0"/>
  <path d="M9.61914 1.24023L5.43945 1.24023L5.43945 12.2656C5.43945 13.1055 5.9668 13.4375 6.52344 13.4375L8.53516 13.4375C9.0918 13.4375 9.61914 13.1055 9.61914 12.2656ZM16.8848 1.24023L12.7051 1.24023L12.7051 12.2656C12.7051 13.1055 13.2324 13.4375 13.7891 13.4375L15.791 13.4375C16.3574 13.4375 16.8848 13.1055 16.8848 12.2656ZM24.1504 1.24023L19.9609 1.24023L19.9609 12.2656C19.9609 13.1055 20.498 13.4375 21.0547 13.4375L23.0566 13.4375C23.623 13.4375 24.1504 13.1055 24.1504 12.2656ZM7.00195 11.1816L7.00195 21.7871L8.05664 21.7871L8.05664 11.1816ZM14.2676 11.1816L14.2676 21.7871L15.3223 21.7871L15.3223 11.1816ZM21.5234 11.1816L21.5234 21.7871L22.5879 21.7871L22.5879 11.1816ZM3.79883 22.959L25.7812 22.959C28.3105 22.959 29.5898 21.6797 29.5898 19.1992L29.5898 3.76953C29.5898 1.2793 28.3105 0 25.7812 0L3.79883 0C1.2793 0 0 1.26953 0 3.76953L0 19.1992C0 21.6992 1.2793 22.959 3.79883 22.959ZM3.83789 21.2305C2.4707 21.2305 1.72852 20.5078 1.72852 19.1016L1.72852 3.85742C1.72852 2.46094 2.4707 1.72852 3.83789 1.72852L25.752 1.72852C27.0898 1.72852 27.8516 2.46094 27.8516 3.85742L27.8516 19.1016C27.8516 20.5078 27.0898 21.2305 25.752 21.2305Z" fill="black" fill-opacity="0.85"/>
 </g>
</svg>
