<?xml version="1.0" ?><!-- Generator: Adobe Illustrator 25.0.0, SVG Export Plug-In . SVG Version: 6.00 Build 0)  --><svg xmlns="http://www.w3.org/2000/svg" xmlns:xlink="http://www.w3.org/1999/xlink" version="1.1" id="Layer_1" x="0px" y="0px" viewBox="0 0 512 512" style="enable-background:new 0 0 512 512;" xml:space="preserve">
<path d="M256,512c140,0,256-116,256-256C512,116.2,395.8,0,255.7,0C116,0,0,116.2,0,256C0,396,116.2,512,256,512z M154.1,304.9  c0-27.6,22.1-57.2,59-70.3l4.3-60.7c-18.6-10.5-34.1-22.6-40.9-31.4c-3.8-4.8-5.8-9.5-5.8-13.8c0-8,6.3-13.8,15.6-13.8h139.5  c9.3,0,15.6,5.8,15.6,13.8c0,4.3-2,9-5.5,13.6c-6.8,8.8-22.3,21.1-41.2,31.6l4,60.7c37.1,13.1,59.2,42.7,59.2,70.3  c0,11.3-7.5,18.6-19.1,18.6h-66.8v45.9c0,28.1-11.3,51.7-16.1,51.7c-4.8,0-16.1-23.6-16.1-51.7v-45.9h-67  C161.4,323.5,154.1,316.2,154.1,304.9z"/>
</svg>