<?xml version="1.0" ?><!-- Generator: Adobe Illustrator 25.0.0, SVG Export Plug-In . SVG Version: 6.00 Build 0)  --><svg xmlns="http://www.w3.org/2000/svg" xmlns:xlink="http://www.w3.org/1999/xlink" version="1.1" id="Layer_1" x="0px" y="0px" viewBox="0 0 512 512" style="enable-background:new 0 0 512 512;" xml:space="preserve">
<path d="M87.3,512h337.3c29.1,0,50.9-7.2,65.5-21.6c14.6-14.4,21.8-35.9,21.8-64.7V86.2c0-28.7-7.3-50.3-21.8-64.7  C475.6,7.2,453.8,0,424.7,0H87.3C58.2,0,36.4,7.2,21.8,21.6C7.3,35.9,0,57.5,0,86.2v339.6c0,28.7,7.3,50.3,21.8,64.7  C36.4,504.8,58.2,512,87.3,512z M87.9,467.2c-13.9,0-24.6-3.7-32-11c-7.4-7.3-11.1-18.2-11.1-32.7V88.4c0-14.5,3.7-25.4,11.1-32.7  c7.4-7.3,18.1-11,32-11h336.2c13.7,0,24.3,3.7,31.8,11c7.5,7.3,11.3,18.2,11.3,32.7v335.1c0,14.5-3.8,25.4-11.3,32.7  c-7.5,7.3-18.1,11-31.8,11H87.9z" class="multicolor-0:systemOrangeColor hierarchical-0:secondary SFSymbolsPreviewFF9500" style="fill: #FF9500;"/>
<path d="M146.8,308.4c0,5.9,1.9,10.7,5.6,14.3c3.7,3.6,8.7,5.4,15,5.4h71.8V378c0,10,1.1,19.2,3.2,27.5c2.1,8.3,4.6,15,7.4,20  c2.8,5,5,7.5,6.7,7.5c1.7,0,3.9-2.5,6.7-7.5c2.8-5,5.2-11.7,7.4-20c2.1-8.3,3.2-17.5,3.2-27.5v-49.8h71.8c6.3,0,11.3-1.8,15-5.4  c3.7-3.6,5.6-8.4,5.6-14.3c0-14.8-5.7-29.3-17-43.5c-11.3-14.2-26.8-24.9-46.4-32.1l-4.7-65.1c10.2-5.7,19.2-11.7,27.1-17.8  s13.7-11.5,17.4-16.1c3.7-5,5.6-9.8,5.6-14.5c0-4.4-1.5-8.1-4.5-10.8c-3-2.8-7-4.2-12.2-4.2H181.6c-5,0-9,1.4-12.1,4.2  c-3.1,2.8-4.6,6.4-4.6,10.8c0,4.6,2,9.5,6.1,14.7c3.7,4.6,9.5,10,17.2,16c7.8,6,16.8,11.9,27,17.7l-4.7,65.1  c-19.8,7.2-35.4,17.9-46.7,32.1C152.5,279.1,146.8,293.6,146.8,308.4z" class="multicolor-0:systemOrangeColor hierarchical-1:primary SFSymbolsPreviewFF9500" style="fill: #FF9500;"/>
</svg>