<?xml version="1.0" encoding="UTF-8"?>
<!--Generator: Apple Native CoreSVG 326-->
<!DOCTYPE svg
PUBLIC "-//W3C//DTD SVG 1.1//EN"
       "http://www.w3.org/Graphics/SVG/1.1/DTD/svg11.dtd">
<svg version="1.1" xmlns="http://www.w3.org/2000/svg" xmlns:xlink="http://www.w3.org/1999/xlink" viewBox="0 0 25.8008 25.459">
 <g>
  <rect height="25.459" opacity="0" width="25.8008" x="0" y="0"/>
  <path d="M12.7148 25.4395C19.7363 25.4395 25.4395 19.7461 25.4395 12.7246C25.4395 5.70312 19.7363 0 12.7148 0C5.69336 0 0 5.70312 0 12.7246C0 19.7461 5.69336 25.4395 12.7148 25.4395ZM12.7148 23.623C6.68945 23.623 1.81641 18.75 1.81641 12.7246C1.81641 6.69922 6.68945 1.82617 12.7148 1.82617C18.7402 1.82617 23.6133 6.69922 23.6133 12.7246C23.6133 18.75 18.7402 23.623 12.7148 23.623Z" fill="black" fill-opacity="0.85"/>
  <path d="M7.76367 15.2148C7.76367 15.7227 8.10547 16.0449 8.63281 16.0449L12.0215 16.0449L12.0215 18.5059C12.0215 19.7363 12.5 20.7617 12.7148 20.7617C12.9199 20.7617 13.4082 19.7363 13.4082 18.5059L13.4082 16.0449L16.7871 16.0449C17.3242 16.0449 17.666 15.7227 17.666 15.2148C17.666 13.8281 16.5527 12.3828 14.7559 11.748L14.541 8.70117C15.3906 8.21289 16.1621 7.61719 16.5137 7.16797C16.6797 6.94336 16.7676 6.71875 16.7676 6.52344C16.7676 6.16211 16.4941 5.89844 16.0547 5.89844L9.375 5.89844C8.94531 5.89844 8.66211 6.16211 8.66211 6.52344C8.66211 6.72852 8.75977 6.96289 8.94531 7.1875C9.29688 7.63672 10.0488 8.22266 10.8887 8.70117L10.6738 11.748C8.87695 12.3828 7.76367 13.8281 7.76367 15.2148Z" fill="black" fill-opacity="0.85"/>
 </g>
</svg>
