<?xml version="1.0" ?><!-- Generator: Adobe Illustrator 25.0.0, SVG Export Plug-In . SVG Version: 6.00 Build 0)  --><svg xmlns="http://www.w3.org/2000/svg" xmlns:xlink="http://www.w3.org/1999/xlink" version="1.1" id="Layer_1" x="0px" y="0px" viewBox="0 0 512 512" style="enable-background:new 0 0 512 512;" xml:space="preserve">
<path d="M122,23.3c0,6.4,2.6,13.8,8.3,21.3c11.2,14.9,37.8,35.6,65.5,53.8l-1.5,24.2l32.3,32.5l4.4-72.9c0.2-3.1-0.2-4.2-2.4-5.3  C195.6,60,170.1,40,168.3,35.6c-1.8-2.9,0.2-4.6,2.4-4.6h187.8c2.4,0,4.2,1.8,2.4,4.6c-1.8,4.4-27,24.4-60.2,41.3  c-2,1.1-2.4,2.2-2.2,5.3l6.6,108.9c-12.7-2.6-26.4-4-40.4-4h-5.7l33.8,34.5c60.8,6.2,105.7,55.8,105.7,90.9c0,1.1-0.2,2.2-0.2,3.3  l23.7,27.2c7.2-4.4,13.2-13.4,13.2-26.1c0-46.3-37.1-93.1-94.4-115.5l-7.2-103c27.9-18.2,54.3-38.9,65.7-53.8  c5.7-7.5,8.3-14.9,8.3-21.3C407.5,9.9,397.2,0,381.8,0H147.7C132.1,0,122,9.9,122,23.3z M45.3,60.6l397.1,396.7  c6.8,6.6,17.6,6.6,23.9,0c6.6-6.6,6.8-17.4,0-23.9L69.5,36.7c-6.6-6.6-17.6-6.8-24.2,0C39,43.1,39,54,45.3,60.6z M94.1,317  c0,18.7,12.5,31,32.3,31h119v102.6c0,33.6,13.8,61.5,19.3,61.5c5.5,0,19.3-27.9,19.3-61.5v-99.9h12.5l-35.8-35.8H135.2  c-4.8,0-7.2-2.9-6.4-8.8c2.6-24.6,23.3-50.7,55.8-67.4l-23.1-23.1C120,239.9,94.1,278.3,94.1,317z"/>
</svg>