<?xml version="1.0" ?><!-- Generator: Adobe Illustrator 25.0.0, SVG Export Plug-In . SVG Version: 6.00 Build 0)  --><svg xmlns="http://www.w3.org/2000/svg" xmlns:xlink="http://www.w3.org/1999/xlink" version="1.1" id="Layer_1" x="0px" y="0px" viewBox="0 0 512 512" style="enable-background:new 0 0 512 512;" xml:space="preserve">
<path d="M147.9,0c-15.6,0-25.7,9.9-25.7,23.3c0,6.4,2.4,13.6,8.1,21.1c11.2,14.9,37.8,35.8,70.1,54l-2,28.8L417,345.5  c11.6-4.6,18.5-14.7,18.5-28.6c0-46.3-37.1-95.3-98.8-117.7l-7.2-100.8C361.4,80.2,387.8,59.7,399,45c5.9-7.7,8.8-15.2,8.8-21.7  C407.8,9.9,397.4,0,382.1,0H147.9z M442.5,457.3c6.8,6.6,17.6,6.6,23.9,0c6.6-6.6,6.8-17.4,0-23.9L69.5,36.7  c-6.6-6.6-17.6-6.8-24.2,0C39,43.1,39,54,45.3,60.6L442.5,457.3z M94.3,317c0,18.7,12.5,31,32.3,31h119v102.6  c0,33.6,13.8,61.5,19.3,61.5c5.5,0,19.3-27.9,19.3-61.5V351h12.7L161.8,215.3C119.4,240.1,94.3,279.2,94.3,317z"/>
</svg>