<?xml version="1.0" ?><!-- Generator: Adobe Illustrator 25.0.0, SVG Export Plug-In . SVG Version: 6.00 Build 0)  --><svg xmlns="http://www.w3.org/2000/svg" xmlns:xlink="http://www.w3.org/1999/xlink" version="1.1" id="Layer_1" x="0px" y="0px" viewBox="0 0 512 512" style="enable-background:new 0 0 512 512;" xml:space="preserve">
<path d="M255.9,185.4h156.3v-75.1c0-40.7-20.7-61.3-61.9-61.3H62C20.6,49,0,69.6,0,110.3v200c0,40.7,20.6,61.3,62,61.3h104.7v-97.8  C166.8,218,199.6,185.4,255.9,185.4z M255.9,463h194.2c41.1,0,61.9-20.6,61.9-61.3v-128c0-40.7-20.7-61.3-61.9-61.3H255.9  c-41.3,0-62,20.4-62,61.3v128C193.9,442.4,214.6,463,255.9,463z"/>
</svg>