<?xml version="1.0" encoding="UTF-8"?>
<!--Generator: Apple Native CoreSVG 326-->
<!DOCTYPE svg
PUBLIC "-//W3C//DTD SVG 1.1//EN"
       "http://www.w3.org/Graphics/SVG/1.1/DTD/svg11.dtd">
<svg version="1.1" xmlns="http://www.w3.org/2000/svg" xmlns:xlink="http://www.w3.org/1999/xlink" viewBox="0 0 32.666 25.9082">
 <g>
  <rect height="25.9082" opacity="0" width="32.666" x="0" y="0"/>
  <path d="M25.9961 3.78906L25.9961 10.1465L24.2676 10.1465L24.2676 3.88672C24.2676 2.48047 23.4961 1.75781 22.1582 1.75781L3.83789 1.75781C2.4707 1.75781 1.72852 2.48047 1.72852 3.88672L1.72852 16.4355C1.72852 17.8418 2.5 18.5645 3.83789 18.5645L12.1973 18.5645L12.1973 20.293L3.79883 20.293C1.26953 20.293 0 19.0234 0 16.5234L0 3.78906C0 1.29883 1.26953 0.0292969 3.79883 0.0292969L22.1973 0.0292969C24.7266 0.0292969 25.9961 1.29883 25.9961 3.78906Z" fill="black" fill-opacity="0.85"/>
  <path d="M32.3047 13.9062L32.3047 22.1387C32.3047 24.6289 31.0254 25.9082 28.5059 25.9082L15.9961 25.9082C13.4766 25.9082 12.1973 24.6387 12.1973 22.1387L12.1973 13.9062C12.1973 11.4062 13.4766 10.1465 15.9961 10.1465L28.5059 10.1465C31.0254 10.1465 32.3047 11.4258 32.3047 13.9062ZM25.0781 13.9941L22.2363 16.8066L19.4238 14.0039C19.2383 13.8281 19.0625 13.7402 18.8086 13.7402C18.3301 13.7402 17.9395 14.1113 17.9395 14.5898C17.9395 14.834 18.0371 15.0293 18.2031 15.2051L21.0156 18.0273L18.2031 20.8398C18.0371 21.0156 17.9395 21.2207 17.9395 21.4551C17.9395 21.9434 18.3301 22.334 18.8086 22.334C19.0625 22.334 19.2676 22.2363 19.4434 22.0605L22.2363 19.248L25.0488 22.0605C25.2148 22.2266 25.4297 22.334 25.6738 22.334C26.1621 22.334 26.5527 21.9434 26.5527 21.4551C26.5527 21.2109 26.4648 21.0059 26.2891 20.8301L23.4766 18.0273L26.2988 15.1953C26.4844 15.0098 26.5625 14.8242 26.5625 14.5801C26.5625 14.1016 26.1719 13.7207 25.6836 13.7207C25.459 13.7207 25.2637 13.8086 25.0781 13.9941Z" fill="black" fill-opacity="0.85"/>
 </g>
</svg>
