<?xml version="1.0" ?><!-- Generator: Adobe Illustrator 25.0.0, SVG Export Plug-In . SVG Version: 6.00 Build 0)  --><svg xmlns="http://www.w3.org/2000/svg" xmlns:xlink="http://www.w3.org/1999/xlink" version="1.1" id="Layer_1" x="0px" y="0px" viewBox="0 0 512 512" style="enable-background:new 0 0 512 512;" xml:space="preserve">
<path d="M62,371.5h131.8v30.2c0,40.7,20.7,61.3,62,61.3h194.2c41.1,0,61.9-20.6,61.9-61.3v-128c0-40.7-20.7-61.3-61.9-61.3h-37.9  V110.3c0-40.7-20.7-61.3-61.9-61.3H62C20.6,49,0,69.6,0,110.3v200C0,350.9,20.6,371.5,62,371.5z M62.4,339.7  c-19.8,0-30.6-10.7-30.6-31.2V112c0-20.6,10.9-31.2,30.6-31.2h287.3c19.6,0,30.6,10.7,30.6,31.2v100.4H255.9  c-41.3,0-62,20.4-62,61.3v66H62.4z M299.2,407.3c-8.9,0-16-7.1-16-16c0-4.1,2-7.9,4.9-10.9l42.3-42.7L288.1,295  c-3-3.2-4.9-6.7-4.9-11.1c0-8.7,7.1-15.6,16-15.6c4.3,0,7.7,1.8,10.9,4.7l42.7,42.5l43.1-42.7c3.4-3.2,6.9-4.9,11.1-4.9  c8.7,0,15.8,7.1,15.8,15.8c0,4.3-1.6,7.7-4.7,11.1l-42.7,42.9l42.5,42.5c3,3,4.7,6.7,4.7,11.1c0,8.9-7.1,16-15.8,16  c-4.5,0-8.5-1.8-11.5-4.7L352.7,360l-42.3,42.5C307.5,405.7,303.5,407.3,299.2,407.3z"/>
</svg>