<?xml version="1.0" ?><!-- Generator: Adobe Illustrator 25.0.0, SVG Export Plug-In . SVG Version: 6.00 Build 0)  --><svg xmlns="http://www.w3.org/2000/svg" xmlns:xlink="http://www.w3.org/1999/xlink" version="1.1" id="Layer_1" x="0px" y="0px" viewBox="0 0 512 512" style="enable-background:new 0 0 512 512;" xml:space="preserve">
<path d="M62,371.5h131.8v30.2c0,40.7,20.7,61.3,62,61.3h194.2c41.1,0,61.9-20.6,61.9-61.3v-128c0-40.7-20.7-61.3-61.9-61.3h-37.9  V110.3c0-40.7-20.7-61.3-61.9-61.3H62C20.6,49,0,69.6,0,110.3v200C0,350.9,20.6,371.5,62,371.5z M62.4,339.7  c-19.8,0-30.6-10.7-30.6-31.2V112c0-20.6,10.9-31.2,30.6-31.2h287.3c19.6,0,30.6,10.7,30.6,31.2v100.4H255.9  c-41.3,0-62,20.4-62,61.3v66H62.4z M74.5,106.7c-7.7,0-13.4,5.5-13.4,12.6c0,4,1.2,7.1,4.3,10.3l40.9,40.7l-18.8,18.6  c-9.5,9.7-3.6,22.1,9.9,24.3l65.8,10.1c9.1,1.4,16-5.5,14.8-14.6l-10.1-66c-2.2-13.8-14.8-19.8-24.5-9.7l-18.6,18.6l-40.7-40.7  C81.2,107.9,78.3,106.7,74.5,106.7z"/>
</svg>