<?xml version="1.0" ?><!-- Generator: Adobe Illustrator 25.0.0, SVG Export Plug-In . SVG Version: 6.00 Build 0)  --><svg xmlns="http://www.w3.org/2000/svg" xmlns:xlink="http://www.w3.org/1999/xlink" version="1.1" id="Layer_1" x="0px" y="0px" viewBox="0 0 512 512" style="enable-background:new 0 0 512 512;" xml:space="preserve">
<path d="M62,371.5h131.8v30.2c0,40.7,20.7,61.3,62,61.3h194.2c41.1,0,61.9-20.6,61.9-61.3v-128c0-40.7-20.7-61.3-61.9-61.3h-37.9  V110.3c0-40.7-20.7-61.3-61.9-61.3H62C20.6,49,0,69.6,0,110.3v200C0,350.9,20.6,371.5,62,371.5z M62.4,339.7  c-19.8,0-30.6-10.7-30.6-31.2V112c0-20.6,10.9-31.2,30.6-31.2h287.3c19.6,0,30.6,10.7,30.6,31.2v100.4H255.9  c-41.3,0-62,20.4-62,61.3v66H62.4z M256.3,431.2c-19.8,0-30.6-10.7-30.6-31.2V275.3c0-20.6,10.9-31,30.6-31h193.3  c19.6,0,30.6,10.5,30.6,31V400c0,20.6-11.1,31.2-30.6,31.2H256.3z"/>
</svg>