<?xml version="1.0" encoding="UTF-8"?>
<!--Generator: Apple Native CoreSVG 326-->
<!DOCTYPE svg
PUBLIC "-//W3C//DTD SVG 1.1//EN"
       "http://www.w3.org/Graphics/SVG/1.1/DTD/svg11.dtd">
<svg version="1.1" xmlns="http://www.w3.org/2000/svg" xmlns:xlink="http://www.w3.org/1999/xlink" viewBox="0 0 29.9512 26.7871">
 <g>
  <rect height="26.7871" opacity="0" width="29.9512" x="0" y="0"/>
  <path d="M6.36719 3.85742L6.36719 4.41406L23.2324 4.41406L23.2324 3.85742C23.2324 2.32422 24.0137 1.5625 25.5957 1.5625L27.2266 1.5625C28.8086 1.5625 29.5898 2.32422 29.5898 3.85742L29.5898 12.1582C29.5898 13.6816 28.8086 14.4434 27.2266 14.4434L25.5957 14.4434C24.0137 14.4434 23.2324 13.6816 23.2324 12.1582L23.2324 11.4648L18.7006 11.4648L17.8468 9.88281L23.2324 9.88281L23.2324 5.99609L6.36719 5.99609L6.36719 9.88281L11.7683 9.88281L10.9248 11.4648L6.36719 11.4648L6.36719 12.1582C6.36719 13.6816 5.58594 14.4434 4.00391 14.4434L2.36328 14.4434C0.78125 14.4434 0 13.6816 0 12.1582L0 3.85742C0 2.32422 0.78125 1.5625 2.36328 1.5625L4.00391 1.5625C5.58594 1.5625 6.36719 2.32422 6.36719 3.85742ZM2.36328 3.19336C1.875 3.19336 1.63086 3.4375 1.63086 3.92578L1.63086 12.0801C1.63086 12.5684 1.875 12.8125 2.36328 12.8125L4.00391 12.8125C4.48242 12.8125 4.73633 12.5684 4.73633 12.0801L4.73633 3.92578C4.73633 3.4375 4.48242 3.19336 4.00391 3.19336ZM25.5957 3.19336C25.1074 3.19336 24.8633 3.4375 24.8633 3.92578L24.8633 12.0801C24.8633 12.5684 25.1074 12.8125 25.5957 12.8125L27.2266 12.8125C27.7148 12.8125 27.959 12.5684 27.959 12.0801L27.959 3.92578C27.959 3.4375 27.7148 3.19336 27.2266 3.19336Z" fill="black" fill-opacity="0.85"/>
  <path d="M14.8145 25.2246C17.9395 25.2246 20.4297 22.793 20.4297 19.7461C20.4297 18.0566 19.5801 16.3965 18.8672 15.0391L15.9473 9.62891C15.6543 9.08203 15.3223 8.83789 14.8145 8.83789C14.3066 8.83789 13.9746 9.08203 13.6816 9.61914L10.7812 15.0391C10.0586 16.3965 9.20898 18.0566 9.20898 19.7461C9.20898 22.793 11.6992 25.2246 14.8145 25.2246ZM14.8145 23.6816C12.5586 23.6816 10.752 21.9434 10.752 19.7461C10.752 18.4082 11.4258 17.1094 12.1387 15.7715L14.6777 11.0547C14.7559 10.9082 14.9023 10.9082 14.9707 11.0547L17.4902 15.7715C18.2129 17.1094 18.8867 18.4082 18.8867 19.7461C18.8867 21.9434 17.0801 23.6816 14.8145 23.6816Z" fill="black" fill-opacity="0.85"/>
 </g>
</svg>
