<?xml version="1.0" encoding="UTF-8"?>
<!--Generator: Apple Native CoreSVG 326-->
<!DOCTYPE svg
PUBLIC "-//W3C//DTD SVG 1.1//EN"
       "http://www.w3.org/Graphics/SVG/1.1/DTD/svg11.dtd">
<svg version="1.1" xmlns="http://www.w3.org/2000/svg" xmlns:xlink="http://www.w3.org/1999/xlink" viewBox="0 0 29.9512 22.9785">
 <g>
  <rect height="22.9785" opacity="0" width="29.9512" x="0" y="0"/>
  <path d="M3.79883 22.9785L25.7812 22.9785C28.3105 22.9785 29.5898 21.709 29.5898 19.2188L29.5898 3.78906C29.5898 1.29883 28.3105 0.0292969 25.7812 0.0292969L3.79883 0.0292969C1.2793 0.0292969 0 1.28906 0 3.78906L0 19.2188C0 21.7188 1.2793 22.9785 3.79883 22.9785ZM3.83789 21.25C2.4707 21.25 1.72852 20.5273 1.72852 19.1309L1.72852 3.87695C1.72852 2.48047 2.4707 1.75781 3.83789 1.75781L25.752 1.75781C27.0898 1.75781 27.8516 2.48047 27.8516 3.87695L27.8516 19.1309C27.8516 20.5273 27.0898 21.25 25.752 21.25Z" fill="black" fill-opacity="0.85"/>
  <path d="M5.36133 14.5117L12.4414 14.5117C13.125 14.5117 13.5742 14.0625 13.5742 13.3594L13.5742 9.64844C13.5742 8.94531 13.125 8.49609 12.4414 8.49609L5.36133 8.49609C4.67773 8.49609 4.22852 8.94531 4.22852 9.64844L4.22852 13.3594C4.22852 14.0625 4.67773 14.5117 5.36133 14.5117ZM16.9434 14.5117L24.0332 14.5117C24.7168 14.5117 25.1562 14.0625 25.1562 13.3594L25.1562 9.64844C25.1562 8.94531 24.7168 8.49609 24.0332 8.49609L16.9434 8.49609C16.2598 8.49609 15.8203 8.94531 15.8203 9.64844L15.8203 13.3594C15.8203 14.0625 16.2598 14.5117 16.9434 14.5117Z" fill="black" fill-opacity="0.85"/>
 </g>
</svg>
