<?xml version="1.0" encoding="UTF-8"?>
<!--Generator: Apple Native CoreSVG 326-->
<!DOCTYPE svg
PUBLIC "-//W3C//DTD SVG 1.1//EN"
       "http://www.w3.org/Graphics/SVG/1.1/DTD/svg11.dtd">
<svg version="1.1" xmlns="http://www.w3.org/2000/svg" xmlns:xlink="http://www.w3.org/1999/xlink" viewBox="0 0 16.0254 26.2402">
 <g>
  <rect height="26.2402" opacity="0" width="16.0254" x="0" y="0"/>
  <path d="M0 22.998C0 24.9707 1.28906 26.2207 3.33008 26.2207L12.3242 26.2207C14.3652 26.2207 15.6641 24.9707 15.6641 22.998L15.6641 3.22266C15.6641 1.25 14.3652 0 12.3242 0L3.33008 0C1.28906 0 0 1.25 0 3.22266ZM1.72852 22.7441L1.72852 3.47656C1.72852 2.33398 2.35352 1.72852 3.54492 1.72852L12.1191 1.72852C13.3008 1.72852 13.9258 2.33398 13.9258 3.47656L13.9258 22.7441C13.9258 23.8867 13.3008 24.4922 12.1191 24.4922L3.54492 24.4922C2.35352 24.4922 1.72852 23.8867 1.72852 22.7441Z" fill="black" fill-opacity="0.85"/>
  <path d="M4.41406 11.5918C4.41406 11.9434 4.6582 12.1777 5 12.1777C5.17578 12.1875 5.30273 12.1094 5.42969 11.9824L6.58203 10.8496L7.27539 10.0293L7.22656 11.4453L7.22656 15.4004C7.22656 15.7617 7.4707 16.0156 7.83203 16.0156C8.18359 16.0156 8.4375 15.7617 8.4375 15.4004L8.4375 11.4453L8.38867 10.0293L9.08203 10.8496L10.2246 11.9824C10.3516 12.1094 10.4785 12.1875 10.6641 12.1777C11.0059 12.1777 11.25 11.9434 11.25 11.5918C11.25 11.4258 11.2012 11.2695 11.084 11.1621L8.28125 8.36914C8.1543 8.24219 7.98828 8.16406 7.83203 8.16406C7.66602 8.16406 7.5 8.24219 7.37305 8.36914L4.57031 11.1621C4.46289 11.2695 4.41406 11.4258 4.41406 11.5918ZM4.46289 7.08008L11.1914 7.08008C11.875 7.08008 12.3242 6.63086 12.3242 5.92773L12.3242 4.49219C12.3242 3.78906 11.875 3.33984 11.1914 3.33984L4.46289 3.33984C3.7793 3.33984 3.33984 3.78906 3.33984 4.49219L3.33984 5.92773C3.33984 6.63086 3.7793 7.08008 4.46289 7.08008Z" fill="black" fill-opacity="0.85"/>
 </g>
</svg>
