<?xml version="1.0" ?><!-- Generator: Adobe Illustrator 25.0.0, SVG Export Plug-In . SVG Version: 6.00 Build 0)  --><svg xmlns="http://www.w3.org/2000/svg" xmlns:xlink="http://www.w3.org/1999/xlink" version="1.1" id="Layer_1" x="0px" y="0px" viewBox="0 0 512 512" style="enable-background:new 0 0 512 512;" xml:space="preserve">
<path d="M62.9,411.6h386.1c18.9,0,34.1-6,45.7-18.1c11.6-12.1,17.4-28,17.4-47.9V166.2c0-19.7-5.8-35.5-17.3-47.6  c-11.5-12.1-26.7-18.1-45.6-18.1H63.1c-18.9,0-34.1,6-45.7,18.1C5.8,130.7,0,146.5,0,166.2v179.4c0,19.8,5.8,35.8,17.3,47.9  C28.8,405.5,44,411.6,62.9,411.6z M69.1,372.6c-9.7,0-17.1-2.8-22.4-8.3c-5.2-5.6-7.9-13.4-7.9-23.6V171.3c0-10.2,2.6-18,7.9-23.6  c5.2-5.6,12.7-8.3,22.4-8.3h373.7c9.7,0,17.1,2.8,22.4,8.3c5.2,5.6,7.9,13.4,7.9,23.6v169.5c0,10.2-2.6,18-7.9,23.6  c-5.2,5.6-12.8,8.3-22.6,8.3H69.1z" class="hierarchical-0:secondary SFSymbolsPreview4D4D4D" style="fill: #4D4D4D;"/>
<path d="M297.8,301.8h106.8c6.4,0,11.6-2,15.6-5.9c3.9-3.9,5.9-9.3,5.9-16.1v-48.1c0-6.6-2-11.9-5.9-16c-3.9-4-9.1-6-15.6-6H297.8  c-6.4,0-11.6,2-15.6,6c-3.9,4-5.9,9.3-5.9,16v48.1c0,6.8,2,12.1,5.9,16.1C286.2,299.8,291.4,301.8,297.8,301.8z M107.3,301.8h106.8  c6.4,0,11.6-2,15.6-5.9c3.9-3.9,5.9-9.3,5.9-16.1v-48.1c0-6.6-2-11.9-5.9-16c-3.9-4-9.1-6-15.6-6H107.3c-6.4,0-11.6,2-15.6,6  c-3.9,4-5.9,9.3-5.9,16v48.1c0,6.8,2,12.1,5.9,16.1C95.7,299.8,100.9,301.8,107.3,301.8z" class="hierarchical-1:primary SFSymbolsPreview212121" style="fill: #212121;"/>
</svg>