<?xml version="1.0" encoding="UTF-8"?>
<!--Generator: Apple Native CoreSVG 326-->
<!DOCTYPE svg
PUBLIC "-//W3C//DTD SVG 1.1//EN"
       "http://www.w3.org/Graphics/SVG/1.1/DTD/svg11.dtd">
<svg version="1.1" xmlns="http://www.w3.org/2000/svg" xmlns:xlink="http://www.w3.org/1999/xlink" viewBox="0 0 26.582 15.6934">
 <g>
  <rect height="15.6934" opacity="0" width="26.582" x="0" y="0"/>
  <path d="M3.22266 15.6641L22.998 15.6641C24.9609 15.6641 26.2207 14.375 26.2207 12.334L26.2207 3.33008C26.2207 1.28906 24.9707 0 22.998 0L3.22266 0C1.25977 0 0.00976562 1.28906 0.00976562 3.33008L0 12.334C0 14.375 1.25 15.6641 3.22266 15.6641ZM3.47656 13.9355C2.33398 13.9355 1.73828 13.3105 1.73828 12.1289L1.73828 3.54492C1.73828 2.35352 2.33398 1.72852 3.47656 1.72852L22.7441 1.72852C23.8965 1.72852 24.4922 2.35352 24.4922 3.54492L24.4824 12.1289C24.4824 13.3105 23.8867 13.9355 22.7441 13.9355Z" fill="black" fill-opacity="0.85"/>
  <path d="M5.3418 10.2148L10.9473 10.2148C11.6309 10.2148 12.0703 9.77539 12.0703 9.07227L12.0703 6.58203C12.0703 5.87891 11.6309 5.43945 10.9473 5.43945L5.3418 5.43945C4.6582 5.43945 4.20898 5.87891 4.20898 6.58203L4.20898 9.07227C4.20898 9.77539 4.6582 10.2148 5.3418 10.2148ZM15.2734 10.2148L20.8789 10.2148C21.5625 10.2148 22.0117 9.77539 22.0117 9.07227L22.0117 6.58203C22.0117 5.87891 21.5625 5.43945 20.8789 5.43945L15.2734 5.43945C14.5898 5.43945 14.1504 5.87891 14.1504 6.58203L14.1504 9.07227C14.1504 9.77539 14.5898 10.2148 15.2734 10.2148Z" fill="black" fill-opacity="0.85"/>
 </g>
</svg>
