<?xml version="1.0" encoding="UTF-8"?>
<!--Generator: Apple Native CoreSVG 326-->
<!DOCTYPE svg
PUBLIC "-//W3C//DTD SVG 1.1//EN"
       "http://www.w3.org/Graphics/SVG/1.1/DTD/svg11.dtd">
<svg version="1.1" xmlns="http://www.w3.org/2000/svg" xmlns:xlink="http://www.w3.org/1999/xlink" viewBox="0 0 16.0254 26.2402">
 <g>
  <rect height="26.2402" opacity="0" width="16.0254" x="0" y="0"/>
  <path d="M0 22.998C0 24.9707 1.28906 26.2207 3.33008 26.2207L12.3242 26.2207C14.3652 26.2207 15.6641 24.9707 15.6641 22.998L15.6641 3.22266C15.6641 1.25 14.3652 0 12.3242 0L3.33008 0C1.28906 0 0 1.25 0 3.22266ZM1.72852 22.7441L1.72852 3.47656C1.72852 2.33398 2.35352 1.72852 3.54492 1.72852L12.1191 1.72852C13.3008 1.72852 13.9258 2.33398 13.9258 3.47656L13.9258 22.7441C13.9258 23.8867 13.3008 24.4922 12.1191 24.4922L3.54492 24.4922C2.35352 24.4922 1.72852 23.8867 1.72852 22.7441Z" fill="black" fill-opacity="0.85"/>
  <path d="M4.46289 22.8809L11.1914 22.8809C11.875 22.8809 12.3242 22.4316 12.3242 21.7285L12.3242 20.293C12.3242 19.5898 11.875 19.1406 11.1914 19.1406L4.46289 19.1406C3.7793 19.1406 3.33984 19.5898 3.33984 20.293L3.33984 21.7285C3.33984 22.4316 3.7793 22.8809 4.46289 22.8809Z" fill="black" fill-opacity="0.85"/>
  <path d="M4.51172 14.7266C4.51172 14.8926 4.56055 15.0488 4.66797 15.1562L7.37305 17.8516C7.5 17.9785 7.66602 18.0566 7.83203 18.0566C7.98828 18.0566 8.1543 17.9785 8.28125 17.8516L10.9863 15.1562C11.1035 15.0488 11.1523 14.8926 11.1523 14.7266C11.1523 14.375 10.8984 14.1406 10.5664 14.1406C10.3809 14.1309 10.2539 14.209 10.127 14.3359L9.08203 15.3711L8.38867 16.1914L8.4375 14.7754L8.4375 10.8203C8.4375 10.459 8.18359 10.2051 7.83203 10.2051C7.4707 10.2051 7.22656 10.459 7.22656 10.8203L7.22656 14.7754L7.27539 16.1914L6.58203 15.3711L5.52734 14.3359C5.40039 14.209 5.27344 14.1309 5.09766 14.1406C4.75586 14.1406 4.51172 14.375 4.51172 14.7266Z" fill="black" fill-opacity="0.85"/>
 </g>
</svg>
