<?xml version="1.0" encoding="UTF-8"?>
<!--Generator: Apple Native CoreSVG 326-->
<!DOCTYPE svg
PUBLIC "-//W3C//DTD SVG 1.1//EN"
       "http://www.w3.org/Graphics/SVG/1.1/DTD/svg11.dtd">
<svg version="1.1" xmlns="http://www.w3.org/2000/svg" xmlns:xlink="http://www.w3.org/1999/xlink" viewBox="0 0 23.3105 23.6816">
 <g>
  <rect height="23.6816" opacity="0" width="23.3105" x="0" y="0"/>
  <path d="M6.77734 23.6816L16.1719 23.6816C19.6387 23.6816 21.7285 21.5625 21.7285 18.0469L21.7285 5.6543C21.7285 2.12891 19.6387 0.0292969 16.1719 0.0292969L6.77734 0.0292969C3.31055 0.0292969 1.2207 2.12891 1.2207 5.6543L1.2207 18.0469C1.2207 21.5625 3.31055 23.6816 6.77734 23.6816ZM6.70898 22.002C4.32617 22.002 2.91016 20.5566 2.91016 18.1152L2.91016 5.625C2.91016 3.19336 4.32617 1.75781 6.70898 1.75781L16.2402 1.75781C18.6328 1.75781 20.0488 3.19336 20.0488 5.625L20.0488 18.1152C20.0488 20.5566 18.6328 22.002 16.2402 22.002ZM21.4648 10.5469L22.0508 10.5469C22.8223 10.5469 23.3105 10.0098 23.3105 9.17969L23.3105 7.01172C23.3105 6.17188 22.8223 5.64453 22.0508 5.64453L21.4648 5.64453Z" fill="black" fill-opacity="0.85"/>
  <path d="M4.67773 7.29492C4.67773 8.47656 5.39062 9.22852 6.5332 9.22852L16.4258 9.22852C17.5586 9.22852 18.2812 8.47656 18.2812 7.29492L18.2812 5.3418C18.2812 4.16016 17.5586 3.41797 16.4258 3.41797L6.5332 3.41797C5.39062 3.41797 4.67773 4.16016 4.67773 5.3418ZM5.9082 7.23633L5.9082 5.40039C5.9082 4.94141 6.19141 4.64844 6.66016 4.64844L16.2891 4.64844C16.7578 4.64844 17.041 4.94141 17.041 5.40039L17.041 7.23633C17.041 7.69531 16.7578 7.98828 16.2891 7.98828L6.66016 7.98828C6.19141 7.98828 5.9082 7.69531 5.9082 7.23633Z" fill="black" fill-opacity="0.85"/>
 </g>
</svg>
