<?xml version="1.0" ?><!-- Generator: Adobe Illustrator 25.0.0, SVG Export Plug-In . SVG Version: 6.00 Build 0)  --><svg xmlns="http://www.w3.org/2000/svg" xmlns:xlink="http://www.w3.org/1999/xlink" version="1.1" id="Layer_1" x="0px" y="0px" viewBox="0 0 512 512" style="enable-background:new 0 0 512 512;" xml:space="preserve">
<path d="M445.5,477.5c8.9,8.9,23.7,8.9,32.3,0c8.6-8.9,8.9-23.4,0-32.3L39.1,6.7c-8.9-8.9-23.7-8.9-32.6,0c-8.6,8.6-8.6,23.7,0,32.3  L445.5,477.5z M418.2,335.4l60.5-35c24.6-14.5,33.2-24,33.2-39.8s-8.6-25.2-33.2-39.5L132.8,21c-10.4-6.2-19.3-11-29.7-11  c-2.7,0-4.7,2.4-5,5.6L418.2,335.4z M313.5,396L63.4,145.9v323.4c0,25.8,13.6,42.7,35.6,42.7c11.9,0,22-4.7,33.8-11.6L313.5,396z"/>
</svg>