<?xml version="1.0" encoding="UTF-8"?>
<!--Generator: Apple Native CoreSVG 326-->
<!DOCTYPE svg
PUBLIC "-//W3C//DTD SVG 1.1//EN"
       "http://www.w3.org/Graphics/SVG/1.1/DTD/svg11.dtd">
<svg version="1.1" xmlns="http://www.w3.org/2000/svg" xmlns:xlink="http://www.w3.org/1999/xlink" viewBox="0 0 31.8066 18.9746">
 <g>
  <rect height="18.9746" opacity="0" width="31.8066" x="0" y="0"/>
  <path d="M0 17.3633C0 18.457 0.644531 18.9551 1.38672 18.9551C1.71875 18.9551 2.05078 18.8574 2.37305 18.6719L15.6055 10.9082C16.4355 10.4297 16.7676 10.0586 16.7676 9.48242C16.7676 8.90625 16.4355 8.52539 15.6055 8.04688L2.37305 0.283203C2.05078 0.0976562 1.71875 0 1.38672 0C0.644531 0 0 0.507812 0 1.60156ZM1.72852 16.582L1.72852 2.37305C1.72852 2.20703 1.83594 2.09961 1.97266 2.09961C2.03125 2.09961 2.08984 2.11914 2.14844 2.14844L14.2578 9.27734C14.3555 9.33594 14.3945 9.4043 14.3945 9.48242C14.3945 9.55078 14.3555 9.61914 14.2578 9.67773L2.14844 16.8066C2.08984 16.8457 2.03125 16.8555 1.97266 16.8555C1.83594 16.8555 1.72852 16.748 1.72852 16.582ZM22.2266 18.9551C22.7441 18.9551 23.1445 18.5645 23.1445 18.0566L23.1445 0.898438C23.1445 0.390625 22.7441 0 22.2266 0C21.7188 0 21.3086 0.390625 21.3086 0.898438L21.3086 18.0566C21.3086 18.5645 21.7188 18.9551 22.2266 18.9551ZM30.5273 18.9551C31.0449 18.9551 31.4453 18.5645 31.4453 18.0566L31.4453 0.898438C31.4453 0.390625 31.0449 0 30.5273 0C30.0195 0 29.6191 0.390625 29.6191 0.898438L29.6191 18.0566C29.6191 18.5645 30.0195 18.9551 30.5273 18.9551Z" fill="black" fill-opacity="0.85"/>
 </g>
</svg>
