<?xml version="1.0" ?><!-- Generator: Adobe Illustrator 25.0.0, SVG Export Plug-In . SVG Version: 6.00 Build 0)  --><svg xmlns="http://www.w3.org/2000/svg" xmlns:xlink="http://www.w3.org/1999/xlink" version="1.1" id="Layer_1" x="0px" y="0px" viewBox="0 0 512 512" style="enable-background:new 0 0 512 512;" xml:space="preserve">
<path d="M356.9,427.5c9.8,0,17.9-7.5,17.9-17.2V101.9c0-9.8-8.1-17.4-17.9-17.4c-9.8,0-17.6,7.7-17.6,17.4v308.3  C339.3,420,347.1,427.5,356.9,427.5z M494.1,427.5c9.8,0,17.9-7.5,17.9-17.2V101.9c0-9.8-8.1-17.4-17.9-17.4  c-9.8,0-17.6,7.7-17.6,17.4v308.3C476.5,420,484.4,427.5,494.1,427.5z M29.9,419.2c8.5,0,15.4-2.7,23.9-7.7l211.6-124.6  c14.7-8.7,21-19.1,21-30.9c0-11.8-6.2-22.2-21-30.9L53.8,100.5c-8.5-5-15.4-7.7-23.9-7.7C13.5,92.8,0,105.3,0,128.5v255  C0,406.7,13.5,419.2,29.9,419.2z M39,380.8c-3.1,0-5.8-2.1-5.8-6.2V137.4c0-4.2,2.7-6.2,5.8-6.2c1.2,0,2.9,0.6,5,1.9l197.5,117.1  c2.9,1.7,4.4,2.9,4.4,5.8c0,2.7-1.7,4.2-4.4,5.8L44,378.9C41.9,380.2,40.3,380.8,39,380.8z"/>
</svg>