<?xml version="1.0" ?><!-- Generator: Adobe Illustrator 25.0.0, SVG Export Plug-In . SVG Version: 6.00 Build 0)  --><svg xmlns="http://www.w3.org/2000/svg" xmlns:xlink="http://www.w3.org/1999/xlink" version="1.1" id="Layer_1" x="0px" y="0px" viewBox="0 0 512 512" style="enable-background:new 0 0 512 512;" xml:space="preserve">
<path d="M63.7,512c12.1,0,22.4-4.8,34.5-11.8l352.6-203.8c25.1-14.8,33.9-24.5,33.9-40.5s-8.8-25.7-33.9-40.2L98.1,11.5  C86,4.5,75.8,0,63.7,0C41.3,0,27.4,16.9,27.4,43.2v425.2C27.4,494.8,41.3,512,63.7,512z M79.1,454.2c-1.8,0-3-1.2-3-3.6V61.1  c0-2.4,1.2-3.6,3-3.6c1.2,0,2.4,0.6,3.6,1.5l334.8,193.5c1.5,0.9,2.7,1.8,2.7,3.3c0,1.5-1.2,2.7-2.7,3.3L82.7,453  C81.5,453.6,80.3,454.2,79.1,454.2z"/>
</svg>