<?xml version="1.0" ?><!-- Generator: Adobe Illustrator 25.0.0, SVG Export Plug-In . SVG Version: 6.00 Build 0)  --><svg xmlns="http://www.w3.org/2000/svg" xmlns:xlink="http://www.w3.org/1999/xlink" version="1.1" id="Layer_1" x="0px" y="0px" viewBox="0 0 512 512" style="enable-background:new 0 0 512 512;" xml:space="preserve">
<path d="M52.6,391.2h406.7c17.6,0,30.8-4.3,39.5-12.8c8.7-8.5,13.1-21.8,13.1-39.8V103.8c0-17.9-4.4-31.1-13.1-39.6  c-8.7-8.5-21.9-12.8-39.5-12.8H52.6c-17.5,0-30.6,4.3-39.4,12.8C4.4,72.7,0,85.9,0,103.8v234.7c0,18,4.4,31.3,13.2,39.8  C22,386.9,35.2,391.2,52.6,391.2z M153,460.6h206c4.5,0,8.4-1.6,11.7-4.8c3.3-3.2,4.9-7.1,4.9-11.8c0-4.5-1.6-8.4-4.9-11.7  c-3.3-3.3-7.2-4.9-11.7-4.9H153c-4.5,0-8.4,1.6-11.7,4.9c-3.3,3.3-4.9,7.2-4.9,11.7c0,4.6,1.6,8.6,4.9,11.8  C144.6,459,148.5,460.6,153,460.6z" class="hierarchical-0:tertiary SFSymbolsPreview8E8E8E" style="fill: #8E8E8E;"/>
<path d="M187.2,308V134.8c0-5.6,2.3-9.3,7-11.1c4.6-1.8,9.1-1.4,13.5,1l141.9,83.8c5.1,3,7.6,7.3,7.7,12.9c0.1,5.6-2.4,9.9-7.5,12.9  l-142.1,83.8c-4.4,2.5-8.9,2.8-13.5,1C189.5,317.3,187.2,313.6,187.2,308z" class="hierarchical-1:primary SFSymbolsPreview212121" style="fill: #212121;"/>
</svg>