<?xml version="1.0" encoding="UTF-8"?>
<!--Generator: Apple Native CoreSVG 326-->
<!DOCTYPE svg
PUBLIC "-//W3C//DTD SVG 1.1//EN"
       "http://www.w3.org/Graphics/SVG/1.1/DTD/svg11.dtd">
<svg version="1.1" xmlns="http://www.w3.org/2000/svg" xmlns:xlink="http://www.w3.org/1999/xlink" viewBox="0 0 28.6523 25.8887">
 <g>
  <rect height="25.8887" opacity="0" width="28.6523" x="0" y="0"/>
  <path d="M28.291 11.377C28.291 17.627 22.2656 22.7539 13.5059 22.7539C13.2324 22.7539 12.9688 22.7344 12.6953 22.7051C12.5195 22.7051 12.3438 22.7539 12.1289 22.9102C9.94141 24.375 6.46484 25.8789 5.00977 25.8789C4.07227 25.8789 3.83789 25.1367 4.32617 24.5117C4.81445 23.8965 5.94727 22.6074 6.5918 21.5234C6.69922 21.3184 6.64062 21.1328 6.43555 21.0254C2.4707 18.9355 0 15.3906 0 11.377C0 5.08789 6.2793 0 14.1504 0C22.0117 0 28.291 5.08789 28.291 11.377ZM13.2129 6.40625L13.2129 10.5371L9.08203 10.5371C8.52539 10.5371 8.13477 10.9277 8.13477 11.4844C8.13477 12.0215 8.52539 12.4023 9.08203 12.4023L13.2129 12.4023L13.2129 16.543C13.2129 17.0801 13.5938 17.4805 14.1309 17.4805C14.6875 17.4805 15.0781 17.0898 15.0781 16.543L15.0781 12.4023L19.2188 12.4023C19.7656 12.4023 20.1562 12.0215 20.1562 11.4844C20.1562 10.9277 19.7656 10.5371 19.2188 10.5371L15.0781 10.5371L15.0781 6.40625C15.0781 5.84961 14.6875 5.44922 14.1309 5.44922C13.5938 5.44922 13.2129 5.84961 13.2129 6.40625Z" fill="black" fill-opacity="0.85"/>
 </g>
</svg>
