<?xml version="1.0" ?><!-- Generator: Adobe Illustrator 25.0.0, SVG Export Plug-In . SVG Version: 6.00 Build 0)  --><svg xmlns="http://www.w3.org/2000/svg" xmlns:xlink="http://www.w3.org/1999/xlink" version="1.1" id="Layer_1" x="0px" y="0px" viewBox="0 0 512 512" style="enable-background:new 0 0 512 512;" xml:space="preserve">
<path d="M289.6,302.5h162.9c39.4,0,59.5-19.7,59.5-58.8V131.2c0-39.3-20.1-58.8-59.5-58.8H289.6c-39.6,0-59.5,19.5-59.5,58.8v112.5  C230,282.7,249.9,302.5,289.6,302.5z M0,200.4h204.2v-73.2h-15.2c-12.9,0-20.5-3-30.2-11.2l-11.6-9.5c-12.5-10.6-22.2-14-41-14h-54  c-33.2,0-52.3,19-52.3,57.1V200.4z M371.1,253.5c-6.8,0-13.1-4.7-13.1-12.3v-41.7h-38.7c-6.4,0-12.1-5.7-12.1-12.1  c0-6.4,5.7-12.1,12.1-12.1H358v-41.7c0-7.6,6.3-12.1,13.1-12.1c6.6,0,12.9,4.6,12.9,12.1v41.7h38.7c6.4,0,12.1,5.7,12.1,12.1  c0,6.4-5.7,12.1-12.1,12.1H384v41.7C384,248.8,377.7,253.5,371.1,253.5z M59.5,439.6h317.3c34.1,0,53.9-23.5,53.9-62.6v-48.7H289.6  c-53.7,0-85.3-31.1-85.3-84.6v-18.4H0v155.5C0,420,20.1,439.6,59.5,439.6z"/>
</svg>