<?xml version="1.0" ?><!-- Generator: Adobe Illustrator 25.0.0, SVG Export Plug-In . SVG Version: 6.00 Build 0)  --><svg xmlns="http://www.w3.org/2000/svg" xmlns:xlink="http://www.w3.org/1999/xlink" version="1.1" id="Layer_1" x="0px" y="0px" viewBox="0 0 512 512" style="enable-background:new 0 0 512 512;" xml:space="preserve">
<path d="M0,322.5c0,49.8,25.2,74.8,76,74.8h8.2V189.7c0-68.5,40.2-108.2,109.1-108.2h201.3v-3.9c0-49.8-25.4-75-75.7-75H76  c-50.8,0-76,24.9-76,75V322.5z M193.3,509.3h242.9c50.3,0,75.7-25.2,75.7-75V189.7c0-49.8-25.4-75-75.7-75H193.3  c-50.8,0-76,24.9-76,75v244.6C117.4,484.4,142.5,509.3,193.3,509.3z M314.6,423.9c-13.3,0-20.8-9.4-20.8-23.5v-67.3h-71.1  c-14.3,0-24.2-7.5-24.2-20.8c0-13.6,9.4-21.3,24.2-21.3h71.1v-71.9c0-14,7.5-23.5,20.8-23.5c13.3,0,21.3,9,21.3,23.5v71.9h71.6  c14.5,0,23.7,7.7,23.7,21.3c0,13.3-9.7,20.8-23.7,20.8h-71.6v67.3C335.9,415,327.9,423.9,314.6,423.9z"/>
</svg>