<?xml version="1.0" ?><!-- Generator: Adobe Illustrator 25.0.0, SVG Export Plug-In . SVG Version: 6.00 Build 0)  --><svg xmlns="http://www.w3.org/2000/svg" xmlns:xlink="http://www.w3.org/1999/xlink" version="1.1" id="Layer_1" x="0px" y="0px" viewBox="0 0 512 512" style="enable-background:new 0 0 512 512;" xml:space="preserve">
<path d="M467.2,146.6H512V86.2c0-28.7-7.3-50.3-21.8-64.7C475.6,7.2,453.8,0,424.7,0h-58.1v44.8h57.6c13.7,0,24.3,3.7,31.8,11  c7.5,7.3,11.3,18.2,11.3,32.7V146.6z M366.5,512h58.1c29.1,0,50.9-7.2,65.5-21.6c14.6-14.4,21.8-35.9,21.8-64.7v-60.3h-44.8v58.1  c0,14.5-3.8,25.4-11.3,32.7c-7.5,7.3-18.1,11-31.8,11h-57.6V512z M87.3,512h58.1v-44.8H87.9c-13.9,0-24.6-3.7-32-11  c-7.4-7.3-11.1-18.2-11.1-32.7v-58.1H0v60.3c0,28.7,7.3,50.3,21.8,64.7C36.4,504.8,58.2,512,87.3,512z M0,146.6h44.8V88.4  c0-14.5,3.7-25.4,11.1-32.7c7.4-7.3,18.1-11,32-11h57.6V0H87.3C58.2,0,36.4,7.2,21.8,21.6C7.3,35.9,0,57.5,0,86.2V146.6z   M183.6,44.8h144.9V0H183.6V44.8z M183.6,512h144.9v-44.8H183.6V512z M467.2,327.3H512V184.7h-44.8V327.3z M0,327.3h44.8V184.7H0  V327.3z" class="hierarchical-0:secondary SFSymbolsPreview4D4D4D" style="fill: #4D4D4D;"/>
<path d="M127.4,255.6c0,6.7,2.2,12.1,6.7,16.4c4.4,4.3,10.2,6.4,17.2,6.4h81.8v82c0,7,2.1,12.7,6.4,17.1c4.3,4.4,9.7,6.5,16.4,6.5  c7,0,12.7-2.2,17.1-6.5c4.4-4.4,6.5-10.1,6.5-17.1v-82h82c7,0,12.7-2.1,17.1-6.4c4.4-4.3,6.5-9.7,6.5-16.4c0-7-2.2-12.7-6.5-17.1  c-4.4-4.4-10.1-6.5-17.1-6.5h-82v-81.8c0-7.2-2.2-13-6.5-17.4c-4.4-4.4-10.1-6.5-17.1-6.5c-6.7,0-12.1,2.2-16.4,6.7  c-4.3,4.4-6.4,10.2-6.4,17.2v81.8h-81.8c-7.2,0-13,2.2-17.4,6.5C129.6,242.8,127.4,248.5,127.4,255.6z" class="hierarchical-1:primary SFSymbolsPreview212121" style="fill: #212121;"/>
</svg>