<?xml version="1.0" encoding="UTF-8"?>
<!--Generator: Apple Native CoreSVG 326-->
<!DOCTYPE svg
PUBLIC "-//W3C//DTD SVG 1.1//EN"
       "http://www.w3.org/Graphics/SVG/1.1/DTD/svg11.dtd">
<svg version="1.1" xmlns="http://www.w3.org/2000/svg" xmlns:xlink="http://www.w3.org/1999/xlink" viewBox="0 0 23.2715 22.9199">
 <g>
  <rect height="22.9199" opacity="0" width="23.2715" x="0" y="0"/>
  <path d="M21.4844 1.44531C20.2637 0.234375 18.5742 0 16.3379 0L6.50391 0C4.3457 0 2.64648 0.234375 1.43555 1.44531C0.224609 2.65625 0 4.33594 0 6.50391L0 16.3379C0 18.584 0.214844 20.2637 1.42578 21.4648C2.64648 22.6758 4.33594 22.9102 6.57227 22.9102L16.3379 22.9102C18.5742 22.9102 20.2734 22.6758 21.4844 21.4648C22.6953 20.2539 22.9102 18.584 22.9102 16.3379L22.9102 6.5625C22.9102 4.32617 22.6953 2.64648 21.4844 1.44531ZM21.1816 6.2207L21.1816 16.6797C21.1816 18.1055 20.9766 19.4238 20.2148 20.1953C19.4434 20.9668 18.0957 21.1816 16.6797 21.1816L6.23047 21.1816C4.81445 21.1816 3.4668 20.957 2.69531 20.1953C1.93359 19.4238 1.72852 18.1055 1.72852 16.6797L1.72852 6.28906C1.72852 4.81445 1.93359 3.47656 2.69531 2.70508C3.45703 1.93359 4.82422 1.72852 6.28906 1.72852L16.6797 1.72852C18.0957 1.72852 19.4434 1.94336 20.2148 2.71484C20.9863 3.47656 21.1816 4.80469 21.1816 6.2207Z" fill="black" fill-opacity="0.85"/>
  <path d="M5.69336 11.4551C5.69336 11.9727 6.07422 12.334 6.61133 12.334L10.5664 12.334L10.5664 16.2891C10.5664 16.8262 10.9277 17.207 11.4453 17.207C11.9824 17.207 12.3633 16.8359 12.3633 16.2891L12.3633 12.334L16.3184 12.334C16.8555 12.334 17.2266 11.9727 17.2266 11.4551C17.2266 10.9082 16.8555 10.5371 16.3184 10.5371L12.3633 10.5371L12.3633 6.5918C12.3633 6.04492 11.9824 5.66406 11.4453 5.66406C10.9277 5.66406 10.5664 6.04492 10.5664 6.5918L10.5664 10.5371L6.61133 10.5371C6.06445 10.5371 5.69336 10.9082 5.69336 11.4551Z" fill="black" fill-opacity="0.85"/>
 </g>
</svg>
