<?xml version="1.0" ?><!-- Generator: Adobe Illustrator 25.0.0, SVG Export Plug-In . SVG Version: 6.00 Build 0)  --><svg xmlns="http://www.w3.org/2000/svg" xmlns:xlink="http://www.w3.org/1999/xlink" version="1.1" id="Layer_1" x="0px" y="0px" viewBox="0 0 512 512" style="enable-background:new 0 0 512 512;" xml:space="preserve">
<path d="M98.9,512c8.9,0,14.1-3.8,21.1-13.8l158.8-235.5L433.4,34.4c3.8-5.1,5.1-9.8,5.1-15.2c0-10.8-9.5-19.2-20.6-19.2  c-9.5,0-14.6,3-22.2,14.1l-155,230.1L82.7,477c-3.5,5.1-5.4,9.5-5.4,15.4C77.2,504.1,87,512,98.9,512z M75.1,153.7v58.5  c0,12.7,8.1,20.1,19.5,20.1c11.1,0,19.5-7.3,19.5-20.1v-58.5h54.8c13,0,19.8-8.1,19.8-19c0-10.6-6.8-19.2-19.8-19.2h-54.8V56.9  c0-12.7-8.4-20.3-19.5-20.3c-11.4,0-19.5,7.6-19.5,20.3v58.5H20.3c-12.7,0-19.8,8.7-19.8,19.2c0,10.8,7,19,19.8,19H75.1z   M330.7,393.6c0,11.1,7,19,20.1,19h140.7c12.7,0,20.1-7.9,20.1-19c0-10.8-7.3-19.2-20.1-19.2H350.7  C337.7,374.3,330.7,382.7,330.7,393.6z"/>
</svg>