<?xml version="1.0" ?><!-- Generator: Adobe Illustrator 25.0.0, SVG Export Plug-In . SVG Version: 6.00 Build 0)  --><svg xmlns="http://www.w3.org/2000/svg" xmlns:xlink="http://www.w3.org/1999/xlink" version="1.1" id="Layer_1" x="0px" y="0px" viewBox="0 0 512 512" style="enable-background:new 0 0 512 512;" xml:space="preserve">
<path d="M62,371.5h37.7v30.2c0,40.7,20.6,61.3,62,61.3h288.3c41.1,0,61.9-20.6,61.9-61.3v-200c0-40.7-20.7-61.3-61.9-61.3h-37.9  v-30.2c0-40.7-20.7-61.3-61.9-61.3H62C20.6,49,0,69.6,0,110.3v200C0,350.9,20.6,371.5,62,371.5z M62.4,339.7  c-19.8,0-30.6-10.7-30.6-31.2V112c0-20.6,10.9-31.2,30.6-31.2h287.3c19.6,0,30.6,10.7,30.6,31.2v28.5H161.8c-41.5,0-62,20.4-62,61.3  v137.9H62.4z M162.2,431.2c-19.8,0-30.6-10.7-30.6-31.2V203.5c0-20.6,10.9-31.2,30.6-31.2h287.3c19.6,0,30.6,10.7,30.6,31.2V400  c0,20.6-11.1,31.2-30.6,31.2H162.2z M305.7,390.3c10.7,0,16.8-7.1,16.8-18.6v-53.4h56.9c11.1,0,18.8-5.9,18.8-16.4  c0-10.7-7.3-16.8-18.8-16.8h-56.9v-56.9c0-11.7-6.1-18.8-16.8-18.8c-10.5,0-16.2,7.5-16.2,18.8v56.9h-56.7c-11.7,0-19,6.1-19,16.8  c0,10.5,7.9,16.4,19,16.4h56.7v53.4C289.5,382.8,295.2,390.3,305.7,390.3z"/>
</svg>