<?xml version="1.0" ?><!-- Generator: Adobe Illustrator 25.0.0, SVG Export Plug-In . SVG Version: 6.00 Build 0)  --><svg xmlns="http://www.w3.org/2000/svg" xmlns:xlink="http://www.w3.org/1999/xlink" version="1.1" id="Layer_1" x="0px" y="0px" viewBox="0 0 512 512" style="enable-background:new 0 0 512 512;" xml:space="preserve">
<path d="M490.8,166.4c13.9,0,21.2-7.8,21.2-21.4V80.9c0-53.9-27.5-80.8-82.1-80.8h-64.1c-13.6,0-21.2,7.3-21.2,20.9  c0,13.6,7.6,21.2,21.2,21.2h63.3c25.9,0,40.8,13.9,40.8,41.1V145C469.9,158.6,477.5,166.4,490.8,166.4z M20.9,166.4  c13.9,0,21.2-7.8,21.2-21.4V83.3c0-27.2,14.4-41.1,40.5-41.1h63.3c13.9,0,21.4-7.6,21.4-21.2c0-13.6-7.6-20.9-21.4-20.9H82.1  C27.5,0.1,0,27.1,0,80.9V145C0,158.6,7.6,166.4,20.9,166.4z M255.7,373.3c13.9,0,22.2-9.4,22.2-24.8v-70.6h75  c14.6,0,24.8-7.6,24.8-21.4c0-14.1-9.4-22.2-24.8-22.2h-75v-75.6c0-15.2-8.4-24.8-22.2-24.8c-13.9,0-21.7,10.2-21.7,24.8v75.6h-75  c-15.2,0-24.8,8.1-24.8,22.2c0,13.9,10.2,21.4,24.8,21.4h75v70.6C234,363.3,241.9,373.3,255.7,373.3z M82.1,511.9h63.8  c13.9,0,21.4-7.6,21.4-20.9c0-13.6-7.6-21.2-21.4-21.2H82.6c-26.1,0-40.5-13.9-40.5-41.1V367c0-13.9-7.6-21.4-21.2-21.4  C7.3,345.6,0,353.1,0,367v63.8C0,484.9,27.5,511.9,82.1,511.9z M365.8,511.9h64.1c54.7,0,82.1-27.2,82.1-81.1V367  c0-13.9-7.6-21.4-21.2-21.4c-13.6,0-20.9,7.6-20.9,21.4v61.7c0,27.2-14.9,41.1-40.8,41.1h-63.3c-13.6,0-21.2,7.6-21.2,21.2  C344.6,504.3,352.2,511.9,365.8,511.9z"/>
</svg>