<?xml version="1.0" ?><!-- Generator: Adobe Illustrator 25.0.0, SVG Export Plug-In . SVG Version: 6.00 Build 0)  --><svg xmlns="http://www.w3.org/2000/svg" xmlns:xlink="http://www.w3.org/1999/xlink" version="1.1" id="Layer_1" x="0px" y="0px" viewBox="0 0 512 512" style="enable-background:new 0 0 512 512;" xml:space="preserve">
<path d="M256,512c140,0,256-116.2,256-256C512,116,395.8,0,255.7,0C116,0,0,116,0,256C0,395.8,116.2,512,256,512z M255.2,372  c-13.8,0-21.3-9.8-21.3-24.3v-69.8h-74c-14.6,0-25.1-7.8-25.1-21.6c0-14.1,10-22.1,25.1-22.1h74v-74.3c0-14.8,7.5-24.6,21.3-24.6  c14.1,0,22.3,9.3,22.3,24.6v74.3h74c15.3,0,24.8,8,24.8,22.1c0,13.8-10.3,21.6-24.8,21.6h-74v69.8C277.6,362.7,269.3,372,255.2,372z  "/>
</svg>