<?xml version="1.0" encoding="UTF-8"?>
<!--Generator: Apple Native CoreSVG 326-->
<!DOCTYPE svg
PUBLIC "-//W3C//DTD SVG 1.1//EN"
       "http://www.w3.org/Graphics/SVG/1.1/DTD/svg11.dtd">
<svg version="1.1" xmlns="http://www.w3.org/2000/svg" xmlns:xlink="http://www.w3.org/1999/xlink" viewBox="0 0 28.6086 28.2642">
 <g>
  <rect height="28.2642" opacity="0" width="28.6086" x="0" y="0"/>
  <path d="M16.8189 1.35378L26.9068 11.4417C28.6939 13.2288 28.6939 15.0257 26.9264 16.7932L16.7994 26.93C15.0318 28.6975 13.235 28.6878 11.4478 26.9007L1.35995 16.8128C-0.436922 15.0257-0.456453 13.2385 1.32089 11.4612L11.4674 1.33425C13.2447-0.452858 15.0318-0.443093 16.8189 1.35378ZM13.2057 9.04909L13.2057 13.1897L9.06503 13.1897C8.50839 13.1897 8.11777 13.5706 8.11777 14.137C8.11777 14.6741 8.51816 15.0452 9.06503 15.0452L13.2057 15.0452L13.2057 19.1956C13.2057 19.7327 13.5768 20.1331 14.1139 20.1331C14.6803 20.1331 15.0611 19.7425 15.0611 19.1956L15.0611 15.0452L19.2115 15.0452C19.7486 15.0452 20.149 14.6741 20.149 14.137C20.149 13.5706 19.7584 13.1897 19.2115 13.1897L15.0611 13.1897L15.0611 9.04909C15.0611 8.49245 14.6803 8.10183 14.1139 8.10183C13.5768 8.10183 13.2057 8.50222 13.2057 9.04909Z" fill="black" fill-opacity="0.85"/>
 </g>
</svg>
