<?xml version="1.0" encoding="UTF-8"?>
<!--Generator: Apple Native CoreSVG 326-->
<!DOCTYPE svg
PUBLIC "-//W3C//DTD SVG 1.1//EN"
       "http://www.w3.org/Graphics/SVG/1.1/DTD/svg11.dtd">
<svg version="1.1" xmlns="http://www.w3.org/2000/svg" xmlns:xlink="http://www.w3.org/1999/xlink" viewBox="0 0 26.7285 25.9082">
 <g>
  <rect height="25.9082" opacity="0" width="26.7285" x="0" y="0"/>
  <path d="M20.2637 3.78906L20.2637 5.64453L18.5254 5.64453L18.5254 3.88672C18.5254 2.48047 17.7637 1.75781 16.4258 1.75781L3.83789 1.75781C2.4707 1.75781 1.72852 2.48047 1.72852 3.88672L1.72852 16.4355C1.72852 17.8418 2.4707 18.5645 3.83789 18.5645L6.11328 18.5645L6.11328 20.293L3.79883 20.293C1.26953 20.293 0 19.0234 0 16.5234L0 3.78906C0 1.29883 1.26953 0.0292969 3.79883 0.0292969L16.4551 0.0292969C18.9746 0.0292969 20.2637 1.30859 20.2637 3.78906Z" fill="black" fill-opacity="0.85"/>
  <path d="M9.91211 25.9082L22.5684 25.9082C25.0879 25.9082 26.3672 24.6289 26.3672 22.1387L26.3672 9.41406C26.3672 6.92383 25.0879 5.64453 22.5684 5.64453L9.91211 5.64453C7.38281 5.64453 6.11328 6.91406 6.11328 9.41406L6.11328 22.1387C6.11328 24.6387 7.38281 25.9082 9.91211 25.9082ZM9.95117 24.1797C8.58398 24.1797 7.8418 23.457 7.8418 22.0508L7.8418 9.50195C7.8418 8.0957 8.58398 7.37305 9.95117 7.37305L22.5391 7.37305C23.877 7.37305 24.6387 8.0957 24.6387 9.50195L24.6387 22.0508C24.6387 23.457 23.877 24.1797 22.5391 24.1797Z" fill="black" fill-opacity="0.85"/>
  <path d="M10.4785 15.7715C10.4785 16.2891 10.8594 16.6602 11.4062 16.6602L15.3516 16.6602L15.3516 20.6152C15.3516 21.1523 15.7129 21.5234 16.2305 21.5234C16.7676 21.5234 17.1484 21.1523 17.1484 20.6152L17.1484 16.6602L21.1035 16.6602C21.6406 16.6602 22.0117 16.2891 22.0117 15.7715C22.0117 15.2344 21.6406 14.8633 21.1035 14.8633L17.1484 14.8633L17.1484 10.918C17.1484 10.3613 16.7676 9.99023 16.2305 9.99023C15.7129 9.99023 15.3516 10.3711 15.3516 10.918L15.3516 14.8633L11.4062 14.8633C10.8496 14.8633 10.4785 15.2344 10.4785 15.7715Z" fill="black" fill-opacity="0.85"/>
 </g>
</svg>
