<?xml version="1.0" encoding="UTF-8"?>
<!--Generator: Apple Native CoreSVG 326-->
<!DOCTYPE svg
PUBLIC "-//W3C//DTD SVG 1.1//EN"
       "http://www.w3.org/Graphics/SVG/1.1/DTD/svg11.dtd">
<svg version="1.1" xmlns="http://www.w3.org/2000/svg" xmlns:xlink="http://www.w3.org/1999/xlink" viewBox="0 0 23.8672 23.7793">
 <g>
  <rect height="23.7793" opacity="0" width="23.8672" x="0" y="0"/>
  <path d="M0 6.30859C0 6.72852 0.341797 7.07031 0.761719 7.07031L3.41797 7.07031L3.41797 9.72656C3.41797 10.1562 3.76953 10.4883 4.18945 10.4883C4.61914 10.4883 4.95117 10.1465 4.95117 9.72656L4.95117 7.07031L7.61719 7.07031C8.04688 7.07031 8.38867 6.72852 8.38867 6.30859C8.38867 5.87891 8.04688 5.53711 7.61719 5.53711L4.95117 5.53711L4.95117 2.87109C4.95117 2.45117 4.60938 2.10938 4.18945 2.10938C3.75977 2.10938 3.41797 2.45117 3.41797 2.87109L3.41797 5.53711L0.761719 5.53711C0.341797 5.53711 0 5.87891 0 6.30859ZM12.4805 12.334L19.7461 1.38672C19.9023 1.17188 19.9609 0.986328 19.9609 0.761719C19.9609 0.332031 19.5801 0 19.1406 0C18.75 0 18.5547 0.117188 18.2422 0.566406L11.0156 11.4941L3.7793 22.3633C3.63281 22.5781 3.56445 22.7637 3.56445 23.0078C3.56445 23.4668 3.94531 23.7793 4.42383 23.7793C4.78516 23.7793 4.99023 23.6328 5.27344 23.2227ZM15.127 18.4863C15.127 18.9062 15.4688 19.248 15.8887 19.248L22.7441 19.248C23.1641 19.248 23.5059 18.9062 23.5059 18.4863C23.5059 18.0566 23.1641 17.7148 22.7441 17.7148L15.8887 17.7148C15.4688 17.7148 15.127 18.0566 15.127 18.4863Z" fill="black" fill-opacity="0.85"/>
 </g>
</svg>
