<?xml version="1.0" ?><!-- Generator: Adobe Illustrator 25.0.0, SVG Export Plug-In . SVG Version: 6.00 Build 0)  --><svg xmlns="http://www.w3.org/2000/svg" xmlns:xlink="http://www.w3.org/1999/xlink" version="1.1" id="Layer_1" x="0px" y="0px" viewBox="0 0 512 512" style="enable-background:new 0 0 512 512;" xml:space="preserve">
<path d="M68.2,455.9h375.6c45.6,0,68.2-22.6,68.2-67.3V123.4c0-44.7-22.6-67.3-68.2-67.3H68.2C22.8,56.1,0,78.5,0,123.4v265.1  C0,433.5,22.8,455.9,68.2,455.9z M255.8,356.4c-11.9,0-18.5-8.5-18.5-21.3v-60.4h-64.1c-12.6,0-21.7-6.5-21.7-18.5  c0-12.2,8.7-19.1,21.7-19.1h64.1v-64.5c0-12.6,6.5-21.3,18.5-21.3c12.2,0,19.1,8.3,19.1,21.3v64.5h64.3c13,0,21.5,6.9,21.5,19.1  c0,11.9-8.9,18.5-21.5,18.5h-64.3v60.4C274.9,348.4,267.9,356.4,255.8,356.4z"/>
</svg>