<?xml version="1.0" encoding="UTF-8"?>
<!--Generator: Apple Native CoreSVG 326-->
<!DOCTYPE svg
PUBLIC "-//W3C//DTD SVG 1.1//EN"
       "http://www.w3.org/Graphics/SVG/1.1/DTD/svg11.dtd">
<svg version="1.1" xmlns="http://www.w3.org/2000/svg" xmlns:xlink="http://www.w3.org/1999/xlink" viewBox="0 0 25.8008 30.311">
 <g>
  <rect height="30.311" opacity="0" width="25.8008" x="0" y="0"/>
  <path d="M12.7148 27.8655C19.7363 27.8655 25.4395 22.1721 25.4395 15.1506C25.4395 10.7854 23.252 6.98657 19.9121 4.69165C19.4434 4.34008 18.8281 4.46704 18.5645 4.89672C18.3008 5.34594 18.4375 5.85376 18.877 6.18579C21.7285 8.11938 23.6133 11.4104 23.6133 15.1506C23.6133 21.176 18.7402 26.0491 12.7148 26.0491C6.68945 26.0491 1.81641 21.176 1.81641 15.1506C1.81641 9.91626 5.48828 5.58032 10.3613 4.5061L10.3613 6.48852C10.3613 7.27954 10.9082 7.49438 11.5332 7.05493L15.4883 4.28149C16.0059 3.92016 16.0156 3.38305 15.4883 3.00219L11.543 0.228756C10.9082-0.220463 10.3613 0.00414614 10.3613 0.795162L10.3613 2.6604C4.49219 3.74438 0 8.92016 0 15.1506C0 22.1721 5.69336 27.8655 12.7148 27.8655Z" fill="black" fill-opacity="0.85"/>
  <path d="M6.95312 15.1506C6.95312 15.6682 7.32422 16.0295 7.87109 16.0295L11.8164 16.0295L11.8164 19.9846C11.8164 20.5217 12.1875 20.9026 12.7051 20.9026C13.2422 20.9026 13.6133 20.5315 13.6133 19.9846L13.6133 16.0295L17.5781 16.0295C18.1055 16.0295 18.4863 15.6682 18.4863 15.1506C18.4863 14.6038 18.1152 14.2327 17.5781 14.2327L13.6133 14.2327L13.6133 10.2873C13.6133 9.74047 13.2422 9.35961 12.7051 9.35961C12.1875 9.35961 11.8164 9.74047 11.8164 10.2873L11.8164 14.2327L7.87109 14.2327C7.32422 14.2327 6.95312 14.6038 6.95312 15.1506Z" fill="black" fill-opacity="0.85"/>
 </g>
</svg>
