<?xml version="1.0" ?><!-- Generator: Adobe Illustrator 25.0.0, SVG Export Plug-In . SVG Version: 6.00 Build 0)  --><svg xmlns="http://www.w3.org/2000/svg" xmlns:xlink="http://www.w3.org/1999/xlink" version="1.1" id="Layer_1" x="0px" y="0px" viewBox="0 0 512 512" style="enable-background:new 0 0 512 512;" xml:space="preserve">
<path d="M59.5,439.6h317.3c34.1,0,53.9-19.7,53.9-58.8v-78.3h21.8c39.4,0,59.5-19.7,59.5-58.8V131.2c0-39.3-20.1-58.8-59.5-58.8  H289.6c-38.3,0-58.2,18.2-59.4,54.8h-41.1c-12.9,0-20.5-3-30.2-11.2l-11.6-9.5c-12.5-10.6-22.2-14-41-14h-54  c-33.2,0-52.3,19-52.3,57.1v231.2C0,420,20.1,439.6,59.5,439.6z M288.6,273.8c-19.2,0-30-10.2-30-30.3V131.2  c0-19.9,10.8-30.2,30-30.2h164.8c19.2,0,30,10.2,30,30.2v112.3c0,20.1-10.8,30.3-29.6,30.3H288.6z M371.1,253.5  c6.6,0,12.9-4.7,12.9-12.3v-41.7h38.7c6.4,0,12.1-5.7,12.1-12.1c0-6.4-5.7-12.1-12.1-12.1H384v-41.7c0-7.6-6.3-12.1-12.9-12.1  c-6.8,0-13.1,4.6-13.1,12.1v41.7h-38.7c-6.4,0-12.1,5.7-12.1,12.1c0,6.4,5.7,12.1,12.1,12.1H358v41.7  C358,248.8,364.3,253.5,371.1,253.5z M30.5,151.3c0-18.8,10.1-28.4,28.1-28.4h40c12.7,0,20.1,3.2,29.8,11.4l11.6,9.7  c12.3,10.2,22.4,13.8,41.1,13.8H230v40.8H30.5V151.3z M289.6,302.5h110.6v77c0,19.5-10.8,29.6-29.4,29.6H60.1  c-19,0-29.6-10.1-29.6-29.8V227.2H230v16.5C230,282.7,249.9,302.5,289.6,302.5z"/>
</svg>