<?xml version="1.0" encoding="UTF-8"?>
<!--Generator: Apple Native CoreSVG 326-->
<!DOCTYPE svg
PUBLIC "-//W3C//DTD SVG 1.1//EN"
       "http://www.w3.org/Graphics/SVG/1.1/DTD/svg11.dtd">
<svg version="1.1" xmlns="http://www.w3.org/2000/svg" xmlns:xlink="http://www.w3.org/1999/xlink" viewBox="0 0 27.0117 21.6895">
 <g>
  <rect height="21.6895" opacity="0" width="27.0117" x="0" y="0"/>
  <path d="M3.91602 7.8418C6.08398 7.8418 7.8418 6.08398 7.8418 3.90625C7.8418 1.74805 6.08398 0 3.91602 0C1.75781 0 0 1.74805 0 3.90625C0 6.08398 1.75781 7.8418 3.91602 7.8418ZM22.7246 7.8418C24.8926 7.8418 26.6504 6.08398 26.6504 3.90625C26.6504 1.74805 24.8926 0 22.7246 0C20.5664 0 18.8086 1.74805 18.8086 3.90625C18.8086 6.08398 20.5664 7.8418 22.7246 7.8418ZM13.3301 21.6797C15.498 21.6797 17.2559 19.9316 17.2559 17.7539C17.2559 15.5957 15.498 13.8379 13.3301 13.8379C11.1621 13.8379 9.4043 15.5957 9.4043 17.7539C9.4043 19.9316 11.1621 21.6797 13.3301 21.6797Z" fill="black" fill-opacity="0.85"/>
  <path d="M10.0879 4.95117C10.6348 4.95117 11.0742 4.50195 11.0742 3.96484C11.0742 3.41797 10.6348 2.96875 10.0879 2.96875C9.55078 2.96875 9.10156 3.41797 9.10156 3.96484C9.10156 4.50195 9.55078 4.95117 10.0879 4.95117ZM13.3301 4.95117C13.8672 4.95117 14.3164 4.50195 14.3164 3.96484C14.3164 3.41797 13.8672 2.96875 13.3301 2.96875C12.7832 2.96875 12.3438 3.41797 12.3438 3.96484C12.3438 4.50195 12.7832 4.95117 13.3301 4.95117ZM16.5625 4.95117C17.1094 4.95117 17.5488 4.50195 17.5488 3.96484C17.5488 3.41797 17.1094 2.96875 16.5625 2.96875C16.0254 2.96875 15.5762 3.41797 15.5762 3.96484C15.5762 4.50195 16.0254 4.95117 16.5625 4.95117ZM19.502 10.6348C20.0391 10.6348 20.4883 10.1855 20.4883 9.63867C20.4883 9.10156 20.0391 8.65234 19.502 8.65234C18.9551 8.65234 18.5059 9.10156 18.5059 9.63867C18.5059 10.1855 18.9551 10.6348 19.502 10.6348ZM17.1484 13.2227C17.6953 13.2227 18.1445 12.7734 18.1445 12.2363C18.1445 11.6895 17.6953 11.2402 17.1484 11.2402C16.6113 11.2402 16.1621 11.6895 16.1621 12.2363C16.1621 12.7734 16.6113 13.2227 17.1484 13.2227ZM9.49219 13.2227C10.0391 13.2227 10.4883 12.7734 10.4883 12.2363C10.4883 11.6895 10.0391 11.2402 9.49219 11.2402C8.95508 11.2402 8.50586 11.6895 8.50586 12.2363C8.50586 12.7734 8.95508 13.2227 9.49219 13.2227ZM7.14844 10.6348C7.68555 10.6348 8.13477 10.1855 8.13477 9.63867C8.13477 9.10156 7.68555 8.65234 7.14844 8.65234C6.60156 8.65234 6.16211 9.10156 6.16211 9.63867C6.16211 10.1855 6.60156 10.6348 7.14844 10.6348Z" fill="black" fill-opacity="0.85"/>
 </g>
</svg>
