<?xml version="1.0" ?><!-- Generator: Adobe Illustrator 25.0.0, SVG Export Plug-In . SVG Version: 6.00 Build 0)  --><svg xmlns="http://www.w3.org/2000/svg" xmlns:xlink="http://www.w3.org/1999/xlink" version="1.1" id="Layer_1" x="0px" y="0px" viewBox="0 0 512 512" style="enable-background:new 0 0 512 512;" xml:space="preserve">
<path d="M317.1,146.9c5.6,0,10.4-2,14.4-6c4-4,6-8.8,6-14.4c0-5.4-2-10.1-6-14.1c-4-4-8.8-6-14.4-6c-5.6,0-10.3,2-14.2,6  c-3.9,4-5.9,8.7-5.9,14.1c0,5.6,2,10.4,5.9,14.4C306.7,144.9,311.5,146.9,317.1,146.9z M183,302.8c5.6,0,10.3-2,14.2-6  c3.9-4,5.9-8.8,5.9-14.4c0-5.4-2-10.1-5.9-14.1c-3.9-4-8.7-6-14.2-6c-5.6,0-10.4,2-14.4,6c-4,4-6,8.7-6,14.1c0,5.6,2,10.4,6,14.4  C172.6,300.8,177.4,302.8,183,302.8z M255.5,146.9c5.6,0,10.4-2,14.4-6c4-4,6-8.8,6-14.4c0-5.4-2-10.1-6-14.1c-4-4-8.8-6-14.4-6  c-5.4,0-10.1,2-14.1,6c-4,4-6,8.7-6,14.1c0,5.6,2,10.4,6,14.4S250.1,146.9,255.5,146.9z M194.7,146.9c5.4,0,10.1-2,14.1-6  c4-4,6-8.8,6-14.4c0-5.4-2-10.1-6-14.1c-4-4-8.7-6-14.1-6c-5.6,0-10.4,2-14.4,6c-4,4-6,8.7-6,14.1c0,5.6,2,10.4,6,14.4  C184.3,144.9,189.1,146.9,194.7,146.9z M328.6,302.8c5.6,0,10.4-2,14.4-6c4-4,6-8.8,6-14.4c0-5.4-2-10.1-6-14.1c-4-4-8.8-6-14.4-6  c-5.4,0-10.1,2-14.1,6c-4,4-6,8.7-6,14.1c0,5.6,2,10.4,6,14.4C318.4,300.8,323.1,302.8,328.6,302.8z M138.4,253.7  c5.4,0,10.1-2,14.1-6c4-4,6-8.8,6-14.4c0-5.4-2-10.1-6-14.1c-4-4-8.7-6-14.1-6c-5.6,0-10.4,2-14.4,6c-4,4-6,8.7-6,14.1  c0,5.6,2,10.4,6,14.4C128,251.7,132.8,253.7,138.4,253.7z M373.1,253.7c5.6,0,10.4-2,14.4-6c4-4,6-8.8,6-14.4c0-5.4-2-10.1-6-14.1  c-4-4-8.8-6-14.4-6c-5.4,0-10.1,2-14,6c-3.9,4-5.9,8.7-5.9,14.1c0,5.6,2,10.4,5.9,14.4C363,251.7,367.7,253.7,373.1,253.7z" class="hierarchical-0:secondary SFSymbolsPreview4D4D4D" style="fill: #4D4D4D;"/>
<path d="M434.6,201.8c14.2,0,27.2-3.5,38.9-10.4c11.7-6.9,21.1-16.3,28-28c6.9-11.7,10.4-24.7,10.4-38.9c0-14.2-3.5-27.1-10.4-38.8  c-6.9-11.7-16.3-21-28-27.9c-11.7-6.9-24.7-10.4-38.9-10.4c-14.2,0-27.1,3.5-38.8,10.4c-11.7,6.9-21,16.2-27.9,27.9  c-6.9,11.7-10.4,24.6-10.4,38.8c0,14.2,3.5,27.2,10.4,38.9c6.9,11.7,16.2,21.1,27.9,28C407.5,198.3,420.4,201.8,434.6,201.8z   M77.1,201.8c14.2,0,27.1-3.5,38.8-10.4c11.7-6.9,21-16.3,27.9-28c6.9-11.7,10.4-24.7,10.4-38.9c0-14.2-3.5-27.1-10.4-38.8  c-6.9-11.7-16.2-21-27.9-27.9c-11.7-6.9-24.6-10.4-38.8-10.4S50,50.8,38.3,57.7c-11.7,6.9-21,16.2-27.9,27.9  C3.5,97.3,0,110.2,0,124.4c0,14.2,3.5,27.2,10.4,38.9c6.9,11.7,16.2,21.1,27.9,28C50,198.3,62.9,201.8,77.1,201.8z M256,464.7  c14.2,0,27.1-3.5,38.8-10.4c11.7-6.9,21-16.3,27.9-28c6.9-11.7,10.4-24.7,10.4-38.9c0-14.2-3.5-27.1-10.4-38.8  c-6.9-11.7-16.2-21-27.9-27.9c-11.7-6.9-24.6-10.4-38.8-10.4c-14.2,0-27.1,3.5-38.8,10.4c-11.7,6.9-21,16.2-27.9,27.9  c-6.9,11.7-10.4,24.6-10.4,38.8c0,14.2,3.5,27.2,10.4,38.9s16.2,21.1,27.9,28C228.9,461.2,241.8,464.7,256,464.7z M434.6,164.2  c-11,0-20.4-3.8-28-11.5c-7.7-7.7-11.5-17.1-11.5-28.3c0-11,3.9-20.4,11.6-28c7.7-7.7,17-11.5,27.9-11.5c11.2,0,20.6,3.8,28.3,11.5  c7.7,7.7,11.5,17,11.5,28c0,11.2-3.8,20.6-11.4,28.3C455.4,160.3,446,164.2,434.6,164.2z M77.1,164.2c-11,0-20.4-3.8-28-11.5  c-7.7-7.7-11.5-17.1-11.5-28.3c0-11,3.8-20.4,11.5-28c7.7-7.7,17-11.5,28-11.5c11.2,0,20.6,3.8,28.1,11.5c7.6,7.7,11.4,17,11.4,28  c0,11.2-3.8,20.6-11.4,28.3C97.7,160.3,88.3,164.2,77.1,164.2z M256,427.1c-11,0-20.4-3.9-28-11.6c-7.7-7.7-11.5-17.1-11.5-28.1  c0-11.2,3.8-20.6,11.5-28.1c7.7-7.6,17-11.4,28-11.4c11.2,0,20.6,3.8,28.1,11.4c7.6,7.6,11.4,17,11.4,28.1c0,11-3.8,20.4-11.4,28.1  C276.6,423.2,267.2,427.1,256,427.1z" class="hierarchical-1:primary SFSymbolsPreview212121" style="fill: #212121;"/>
</svg>