<?xml version="1.0" encoding="UTF-8"?>
<!--Generator: Apple Native CoreSVG 326-->
<!DOCTYPE svg
PUBLIC "-//W3C//DTD SVG 1.1//EN"
       "http://www.w3.org/Graphics/SVG/1.1/DTD/svg11.dtd">
<svg version="1.1" xmlns="http://www.w3.org/2000/svg" xmlns:xlink="http://www.w3.org/1999/xlink" viewBox="0 0 22.3926 31.7733">
 <g>
  <rect height="31.7733" opacity="0" width="22.3926" x="0" y="0"/>
  <path d="M10.293 5.86225L11.4941 6.84858L6.68945 6.84858C3.75977 6.84858 1.92383 8.2353 1.92383 10.4423C1.92383 12.6591 3.89648 14.1826 7.63672 14.5732L15.0293 15.3447C19.7168 15.8232 22.2168 18.0205 22.2168 21.331C22.2168 24.5927 19.7168 26.6533 15.7227 26.6533L7.74922 26.6533C7.81731 26.3716 7.85156 26.077 7.85156 25.7744C7.85156 25.4824 7.81939 25.1977 7.75587 24.9247L15.7227 24.9247C18.6523 24.9247 20.4883 23.538 20.4883 21.331C20.4883 19.1142 18.5156 17.5908 14.7754 17.2001L7.34375 16.4287C2.69531 15.9599 0.195312 13.7529 0.195312 10.4423C0.195312 7.18061 2.69531 5.12006 6.68945 5.12006L9.66797 5.12006C9.81445 5.3935 10.0293 5.63764 10.293 5.86225Z" fill="black" fill-opacity="0.85"/>
  <path d="M3.92578 29.7001C6.09375 29.7001 7.85156 27.9423 7.85156 25.7744C7.85156 23.6162 6.09375 21.8583 3.92578 21.8583C1.75781 21.8583 0 23.6162 0 25.7744C0 27.9423 1.75781 29.7001 3.92578 29.7001Z" fill="black" fill-opacity="0.85"/>
  <path d="M15.293 4.37787L17.7246 4.37787C19.4336 4.37787 20.6836 5.35444 20.6836 7.08295C20.6836 8.85053 19.4629 9.94428 17.7148 9.94428L16.084 9.94428C15.6543 9.94428 15.3027 10.2177 15.3027 10.6962C15.3027 11.165 15.6543 11.4384 16.1133 11.4384L17.7148 11.4384C20.3223 11.4384 22.2168 9.78803 22.2168 7.14155C22.2168 4.52436 20.332 2.8935 17.7246 2.8935L15.293 2.8935L15.293 0.764593C15.293 0.129827 14.707-0.241266 14.1992 0.178656L10.7715 2.99116C10.293 3.39155 10.2832 3.88959 10.7715 4.29975L14.1992 7.09272C14.707 7.51264 15.293 7.17084 15.293 6.51655Z" fill="black" fill-opacity="0.85"/>
 </g>
</svg>
