<?xml version="1.0" encoding="UTF-8"?>
<!--Generator: Apple Native CoreSVG 326-->
<!DOCTYPE svg
PUBLIC "-//W3C//DTD SVG 1.1//EN"
       "http://www.w3.org/Graphics/SVG/1.1/DTD/svg11.dtd">
<svg version="1.1" xmlns="http://www.w3.org/2000/svg" xmlns:xlink="http://www.w3.org/1999/xlink" viewBox="0 0 30.3809 25.0293">
 <g>
  <rect height="25.0293" opacity="0" width="30.3809" x="0" y="0"/>
  <path d="M30.0195 15.0098C30.0195 11.3281 28.6914 7.95898 26.4844 5.3418C26.2305 5.03906 25.8008 5.04883 25.5176 5.33203L22.6953 8.1543C22.4512 8.39844 22.4414 8.74023 22.6562 9.01367C23.9551 10.6738 24.7266 12.7441 24.7266 15.0098C24.7266 17.2754 23.9551 19.3555 22.5977 21.0742C22.4121 21.3086 22.4219 21.6016 22.627 21.8066L25.5176 24.707C25.8008 25 26.2207 24.9902 26.4844 24.6875C28.6914 22.0703 30.0195 18.6816 30.0195 15.0098Z" fill="black" fill-opacity="0.85"/>
  <path d="M15.0098 5.2832C17.2754 5.2832 19.3652 6.06445 21.0254 7.38281C21.2891 7.57812 21.6113 7.55859 21.8555 7.31445L24.6875 4.48242C24.9805 4.19922 24.9707 3.7793 24.668 3.51562C22.0605 1.32812 18.6816 0 15.0098 0C11.3379 0 7.95898 1.32812 5.35156 3.51562C5.04883 3.7793 5.03906 4.19922 5.32227 4.48242L8.16406 7.31445C8.39844 7.55859 8.75 7.56836 9.02344 7.35352C10.6738 6.06445 12.7539 5.2832 15.0098 5.2832Z" fill="black" fill-opacity="0.85"/>
  <path d="M0 15.0098C0 18.6816 1.32812 22.0703 3.53516 24.6875C3.78906 24.9902 4.21875 25 4.50195 24.707L7.39258 21.8066C7.58789 21.6016 7.60742 21.3086 7.42188 21.0742C6.06445 19.3555 5.2832 17.2754 5.2832 15.0098C5.2832 12.7441 6.05469 10.6738 7.36328 9.01367C7.56836 8.74023 7.56836 8.39844 7.32422 8.1543L4.49219 5.33203C4.20898 5.04883 3.78906 5.03906 3.52539 5.3418C1.31836 7.95898 0 11.3281 0 15.0098Z" fill="black" fill-opacity="0.85"/>
  <path d="M10.8594 20.3809L14.9121 20.3809C15.2148 20.3809 15.4395 20.166 15.4395 19.873C15.4395 19.5898 15.2148 19.3848 14.9121 19.3848L11.8555 19.3848L11.8555 19.2578L15.1562 13.8965C15.293 13.6816 15.3906 13.5156 15.3906 13.2812C15.3906 12.9785 15.2148 12.6855 14.7559 12.6855L10.791 12.6855C10.498 12.6855 10.2734 12.9004 10.2734 13.1738C10.2734 13.4668 10.498 13.6816 10.791 13.6816L13.9062 13.6816L13.9062 13.7988L10.4785 19.2773C10.3613 19.4531 10.2734 19.6191 10.2734 19.8047C10.2734 20.1465 10.5078 20.3809 10.8594 20.3809ZM17.9199 20.5176C18.3008 20.5176 18.5449 20.2637 18.5449 19.8535L18.5449 10.1855C18.5449 9.76562 18.3008 9.51172 17.9199 9.51172C17.5293 9.51172 17.2949 9.76562 17.2949 10.1758L17.2949 19.8535C17.2949 20.2637 17.5293 20.5176 17.9199 20.5176ZM16.7285 15.9668L19.6582 14.3848C19.8828 14.2578 19.9707 14.082 19.9707 13.9062C19.9707 13.5645 19.6289 13.252 19.2188 13.457L16.2598 15.0684C16.0352 15.1855 15.9277 15.3809 15.9277 15.5566C15.9277 15.8984 16.2891 16.2012 16.7285 15.9668Z" fill="black" fill-opacity="0.85"/>
 </g>
</svg>
