<?xml version="1.0" encoding="UTF-8"?>
<!--Generator: Apple Native CoreSVG 326-->
<!DOCTYPE svg
PUBLIC "-//W3C//DTD SVG 1.1//EN"
       "http://www.w3.org/Graphics/SVG/1.1/DTD/svg11.dtd">
<svg version="1.1" xmlns="http://www.w3.org/2000/svg" xmlns:xlink="http://www.w3.org/1999/xlink" viewBox="0 0 20.918 24.5605">
 <g>
  <rect height="24.5605" opacity="0" width="20.918" x="0" y="0"/>
  <path d="M1.05469 24.2676L11.0254 24.2676C11.5527 24.2676 11.8945 23.9258 11.8945 23.4082C11.8945 22.9004 11.5527 22.5684 11.0254 22.5684L2.51953 22.5684L2.51953 22.3438L11.4258 9.29688C11.6992 8.90625 11.8457 8.64258 11.8457 8.18359C11.8457 7.42188 11.3184 7.10938 10.7129 7.10938L0.878906 7.10938C0.361328 7.10938 0 7.4707 0 7.95898C0 8.45703 0.361328 8.81836 0.878906 8.81836L9.39453 8.81836L9.39453 9.0332L0.3125 22.3047C0.107422 22.6074 0.00976562 22.8711 0.00976562 23.2324C0.00976562 23.8379 0.419922 24.2676 1.05469 24.2676ZM17.0898 24.5508C17.6855 24.5508 18.1152 24.0918 18.1152 23.4668L18.1152 1.07422C18.1152 0.449219 17.6855 0 17.0898 0C16.4844 0 16.0645 0.449219 16.0645 1.07422L16.0645 23.4668C16.0645 24.0918 16.4844 24.5508 17.0898 24.5508Z" fill="black" fill-opacity="0.85"/>
 </g>
</svg>
