<?xml version="1.0" encoding="UTF-8"?>
<!--Generator: Apple Native CoreSVG 326-->
<!DOCTYPE svg
PUBLIC "-//W3C//DTD SVG 1.1//EN"
       "http://www.w3.org/Graphics/SVG/1.1/DTD/svg11.dtd">
<svg version="1.1" xmlns="http://www.w3.org/2000/svg" xmlns:xlink="http://www.w3.org/1999/xlink" viewBox="0 0 28.291 27.9395">
 <g>
  <rect height="27.9395" opacity="0" width="28.291" x="0" y="0"/>
  <path d="M13.9648 27.9297C21.6406 27.9297 27.9297 21.6504 27.9297 13.9648C27.9297 6.2793 21.6406 0 13.9648 0C6.28906 0 0 6.2793 0 13.9648C0 21.6504 6.28906 27.9297 13.9648 27.9297ZM13.9648 23.3398C8.7793 23.3398 4.58008 19.1504 4.58008 13.9648C4.58008 8.7793 8.7793 4.58008 13.9648 4.58008C19.1504 4.58008 23.3496 8.7793 23.3496 13.9648C23.3496 19.1504 19.1504 23.3398 13.9648 23.3398Z" fill="black" fill-opacity="0.85"/>
  <path d="M9.82422 19.1699L13.877 19.1699C14.1797 19.1699 14.4043 18.9551 14.4043 18.6621C14.4043 18.3887 14.1797 18.1738 13.877 18.1738L10.8203 18.1738L10.8203 18.0469L14.1309 12.6855C14.2676 12.4707 14.3555 12.3047 14.3555 12.0801C14.3555 11.7773 14.1797 11.4746 13.7207 11.4746L9.75586 11.4746C9.47266 11.4746 9.24805 11.6895 9.24805 11.9629C9.24805 12.2559 9.47266 12.4707 9.75586 12.4707L12.8711 12.4707L12.8711 12.5977L9.44336 18.0664C9.32617 18.252 9.24805 18.4082 9.24805 18.5938C9.24805 18.9355 9.48242 19.1699 9.82422 19.1699ZM16.8848 19.3066C17.2754 19.3066 17.5098 19.0527 17.5098 18.6426L17.5098 8.97461C17.5098 8.55469 17.2754 8.30078 16.8848 8.30078C16.4941 8.30078 16.2598 8.55469 16.2598 8.96484L16.2598 18.6426C16.2598 19.0527 16.4941 19.3066 16.8848 19.3066ZM15.6934 14.7559L18.623 13.1738C18.8574 13.0469 18.9453 12.8711 18.9453 12.6953C18.9453 12.3535 18.5938 12.041 18.1934 12.2559L15.2246 13.8574C15.0098 13.9844 14.9023 14.1699 14.9023 14.3457C14.9023 14.6875 15.2539 14.9902 15.6934 14.7559Z" fill="black" fill-opacity="0.85"/>
 </g>
</svg>
