<?xml version="1.0" encoding="UTF-8"?>
<!--Generator: Apple Native CoreSVG 326-->
<!DOCTYPE svg
PUBLIC "-//W3C//DTD SVG 1.1//EN"
       "http://www.w3.org/Graphics/SVG/1.1/DTD/svg11.dtd">
<svg version="1.1" xmlns="http://www.w3.org/2000/svg" xmlns:xlink="http://www.w3.org/1999/xlink" viewBox="0 0 23.3203 22.959">
 <g>
  <rect height="22.959" opacity="0" width="23.3203" x="0" y="0"/>
  <path d="M3.79883 22.959L19.1504 22.959C21.6797 22.959 22.959 21.6797 22.959 19.1992L22.959 3.76953C22.959 1.2793 21.6797 0 19.1504 0L3.79883 0C1.2793 0 0 1.26953 0 3.76953L0 19.1992C0 21.6992 1.2793 22.959 3.79883 22.959ZM3.83789 21.2305C2.4707 21.2305 1.72852 20.5078 1.72852 19.1016L1.72852 3.85742C1.72852 2.46094 2.4707 1.72852 3.83789 1.72852L19.1211 1.72852C20.459 1.72852 21.2305 2.46094 21.2305 3.85742L21.2305 19.1016C21.2305 20.5078 20.459 21.2305 19.1211 21.2305Z" fill="black" fill-opacity="0.85"/>
  <path d="M7.34375 16.6797L11.4062 16.6797C11.6992 16.6797 11.9238 16.4648 11.9238 16.1719C11.9238 15.8984 11.6992 15.6836 11.4062 15.6836L8.34961 15.6836L8.34961 15.5566L11.6504 10.1953C11.7871 9.98047 11.875 9.81445 11.875 9.58984C11.875 9.28711 11.6992 8.98438 11.2402 8.98438L7.27539 8.98438C6.99219 8.98438 6.76758 9.19922 6.76758 9.47266C6.76758 9.76562 6.99219 9.98047 7.27539 9.98047L10.3906 9.98047L10.3906 10.1074L6.96289 15.5762C6.8457 15.7617 6.76758 15.918 6.76758 16.1035C6.76758 16.4453 7.00195 16.6797 7.34375 16.6797ZM14.4141 16.8164C14.7949 16.8164 15.0293 16.5625 15.0293 16.1523L15.0293 6.48438C15.0293 6.06445 14.7949 5.81055 14.4141 5.81055C14.0137 5.81055 13.7793 6.06445 13.7793 6.47461L13.7793 16.1523C13.7793 16.5625 14.0137 16.8164 14.4141 16.8164ZM13.2129 12.2656L16.1426 10.6836C16.377 10.5566 16.4648 10.3809 16.4648 10.2051C16.4648 9.86328 16.1133 9.55078 15.7129 9.76562L12.7441 11.3672C12.5293 11.4941 12.4219 11.6797 12.4219 11.8555C12.4219 12.1973 12.7734 12.5 13.2129 12.2656Z" fill="black" fill-opacity="0.85"/>
 </g>
</svg>
