<?xml version="1.0" encoding="UTF-8"?>
<!--Generator: Apple Native CoreSVG 326-->
<!DOCTYPE svg
PUBLIC "-//W3C//DTD SVG 1.1//EN"
       "http://www.w3.org/Graphics/SVG/1.1/DTD/svg11.dtd">
<svg version="1.1" xmlns="http://www.w3.org/2000/svg" xmlns:xlink="http://www.w3.org/1999/xlink" viewBox="0 0 27.9395 26.5527">
 <g>
  <rect height="26.5527" opacity="0" width="27.9395" x="0" y="0"/>
  <path d="M1.5332 23.8379L26.0449 23.8379L26.0449 23.0859C26.0449 22.666 25.791 22.4121 25.3613 22.4121L24.5605 22.4121L24.5605 8.33984L25.6934 8.33984C26.2891 8.33984 26.6211 7.91992 26.6211 7.48047C26.6211 7.1582 26.4453 6.875 26.0547 6.65039L15.2637 0.419922C14.7852 0.146484 14.2773 0 13.7891 0C13.3008 0 12.7832 0.146484 12.3145 0.419922L1.52344 6.65039C1.12305 6.875 0.957031 7.1582 0.957031 7.48047C0.957031 7.91992 1.28906 8.33984 1.88477 8.33984L3.02734 8.33984L3.02734 22.4121L2.22656 22.4121C1.78711 22.4121 1.5332 22.666 1.5332 23.0859ZM4.6582 22.4121L4.6582 6.85547L13.2227 2.03125C13.3887 1.93359 13.5938 1.875 13.7891 1.875C13.9746 1.875 14.1699 1.93359 14.3555 2.03125L22.9297 6.85547L22.9297 22.4121ZM0.869141 26.5332L26.709 26.5332C27.1875 26.5332 27.5781 26.1426 27.5781 25.6738C27.5781 25.1953 27.1875 24.8047 26.709 24.8047L0.869141 24.8047C0.390625 24.8047 0 25.1953 0 25.6738C0 26.1426 0.390625 26.5332 0.869141 26.5332Z" fill="black" fill-opacity="0.85"/>
  <path d="M9.64844 18.4082L13.7109 18.4082C14.0137 18.4082 14.2383 18.1934 14.2383 17.9102C14.2383 17.627 14.0137 17.4121 13.7109 17.4121L10.6543 17.4121L10.6543 17.2852L13.9551 11.9336C14.0918 11.709 14.1895 11.5527 14.1895 11.3184C14.1895 11.0156 14.0137 10.7129 13.5449 10.7129L9.58984 10.7129C9.29688 10.7129 9.07227 10.9277 9.07227 11.2109C9.07227 11.4941 9.29688 11.709 9.58984 11.709L12.7051 11.709L12.7051 11.8359L9.27734 17.3047C9.16016 17.4902 9.07227 17.6562 9.07227 17.832C9.07227 18.1836 9.30664 18.4082 9.64844 18.4082ZM16.7188 18.5449C17.0996 18.5449 17.3438 18.291 17.3438 17.8906L17.3438 8.22266C17.3438 7.80273 17.0996 7.54883 16.7188 7.54883C16.3281 7.54883 16.0938 7.80273 16.0938 8.21289L16.0938 17.8906C16.0938 18.291 16.3281 18.5449 16.7188 18.5449ZM15.5176 14.0039L18.457 12.4121C18.6816 12.2949 18.7695 12.1191 18.7695 11.9336C18.7695 11.6016 18.4277 11.2793 18.0176 11.4941L15.0586 13.1055C14.834 13.2227 14.7266 13.418 14.7266 13.584C14.7266 13.9355 15.0879 14.2383 15.5176 14.0039Z" fill="black" fill-opacity="0.85"/>
 </g>
</svg>
