<?xml version="1.0" encoding="UTF-8"?>
<!--Generator: Apple Native CoreSVG 326-->
<!DOCTYPE svg
PUBLIC "-//W3C//DTD SVG 1.1//EN"
       "http://www.w3.org/Graphics/SVG/1.1/DTD/svg11.dtd">
<svg version="1.1" xmlns="http://www.w3.org/2000/svg" xmlns:xlink="http://www.w3.org/1999/xlink" viewBox="0 0 25.8008 25.459">
 <g>
  <rect height="25.459" opacity="0" width="25.8008" x="0" y="0"/>
  <path d="M12.7148 25.4395C19.7363 25.4395 25.4395 19.7461 25.4395 12.7246C25.4395 5.70312 19.7363 0 12.7148 0C5.69336 0 0 5.70312 0 12.7246C0 19.7461 5.69336 25.4395 12.7148 25.4395ZM12.7148 23.623C6.68945 23.623 1.81641 18.75 1.81641 12.7246C1.81641 6.69922 6.68945 1.82617 12.7148 1.82617C18.7402 1.82617 23.6133 6.69922 23.6133 12.7246C23.6133 18.75 18.7402 23.623 12.7148 23.623Z" fill="black" fill-opacity="0.85"/>
  <path d="M8.56445 17.9297L12.627 17.9297C12.9199 17.9297 13.1445 17.7148 13.1445 17.4219C13.1445 17.1484 12.9199 16.9336 12.627 16.9336L9.57031 16.9336L9.57031 16.8066L12.8711 11.4453C13.0078 11.2305 13.0957 11.0645 13.0957 10.8398C13.0957 10.5371 12.9297 10.2344 12.4609 10.2344L8.49609 10.2344C8.21289 10.2344 7.98828 10.4492 7.98828 10.7227C7.98828 11.0156 8.21289 11.2305 8.49609 11.2305L11.6113 11.2305L11.6113 11.3574L8.18359 16.8262C8.07617 17.0117 7.98828 17.168 7.98828 17.3535C7.98828 17.6953 8.22266 17.9297 8.56445 17.9297ZM15.6348 18.0664C16.0156 18.0664 16.25 17.8125 16.25 17.4023L16.25 7.73438C16.25 7.31445 16.0156 7.06055 15.6348 7.06055C15.2344 7.06055 15 7.31445 15 7.72461L15 17.4023C15 17.8125 15.2344 18.0664 15.6348 18.0664ZM14.4336 13.5156L17.3633 11.9336C17.5977 11.8066 17.6855 11.6309 17.6855 11.4551C17.6855 11.1133 17.334 10.8008 16.9336 11.0156L13.9648 12.6172C13.75 12.7441 13.6426 12.9297 13.6426 13.1055C13.6426 13.4473 13.9941 13.75 14.4336 13.5156Z" fill="black" fill-opacity="0.85"/>
 </g>
</svg>
