<?xml version="1.0" encoding="UTF-8"?>
<!--Generator: Apple Native CoreSVG 326-->
<!DOCTYPE svg
PUBLIC "-//W3C//DTD SVG 1.1//EN"
       "http://www.w3.org/Graphics/SVG/1.1/DTD/svg11.dtd">
<svg version="1.1" xmlns="http://www.w3.org/2000/svg" xmlns:xlink="http://www.w3.org/1999/xlink" viewBox="0 0 26.3477 34.541">
 <g>
  <rect height="34.541" opacity="0" width="26.3477" x="0" y="0"/>
  <path d="M8.4082 14.1797L9.94141 31.123L8.00781 31.123C6.30859 31.123 5.46875 30.1758 5.15625 28.5156L2.61719 15.1172C2.1582 12.7148 3.83789 11.4258 5.49805 11.4258C6.86523 11.4258 8.24219 12.3047 8.4082 14.1797ZM15.9961 14.2773L15.1129 24.1061C13.4974 24.8546 12.4805 26.4527 12.4805 28.2324C12.4805 29.3267 12.8561 30.3344 13.5123 31.123L11.377 31.123L9.86328 14.2773C9.66797 12.0605 11.5039 11.0645 12.9297 11.0645C14.3555 11.0645 16.1914 12.0605 15.9961 14.2773ZM23.2422 15.1172L21.9886 21.7325C21.2898 21.2703 20.438 21.0059 19.502 21.0059C18.4551 21.0059 17.499 21.345 16.7503 21.9251L17.4512 14.1797C17.6172 12.3047 18.9941 11.4258 20.3613 11.4258C22.0215 11.4258 23.7012 12.7148 23.2422 15.1172ZM13.916 3.54492C14.3262 3.45703 14.7949 3.47656 15.1562 3.59375C15.7324 3.03711 16.5039 2.72461 17.3535 2.72461C18.6914 2.72461 19.6777 3.55469 20.1367 4.76562C22.0801 4.80469 23.4766 6.30859 23.4766 8.38867C23.4766 9.21875 23.2031 9.95117 22.7637 10.5566C22.041 10.1172 21.1816 9.88281 20.332 9.88281C19.0137 9.88281 17.6953 10.4102 16.8457 11.5137C15.9766 10.2344 14.4629 9.51172 12.9297 9.51172C11.3965 9.51172 9.88281 10.2344 9.01367 11.5137C8.16406 10.4102 6.85547 9.88281 5.54688 9.88281C4.6875 9.88281 3.81836 10.1172 3.08594 10.5469C2.72461 9.9707 2.56836 9.36523 2.56836 8.70117C2.56836 6.85547 4.0918 5.3125 5.92773 5.36133C5.92773 4.375 6.81641 3.49609 7.83203 3.63281C8.05664 2.55859 9.21875 1.54297 10.9082 1.54297C12.2266 1.54297 13.3984 2.32422 13.916 3.54492Z" fill="black" fill-opacity="0.85"/>
  <path d="M19.502 32.9785C20.7227 32.9785 21.8359 32.2559 22.3047 31.1914C23.9551 30.8789 24.7949 29.5996 24.7949 28.252C24.7949 26.8945 23.9258 25.6445 22.3926 25.4102C22.3828 23.7695 21.1621 22.5684 19.502 22.5684C17.9102 22.5684 16.6895 23.7012 16.6406 25.2539C15.0098 25.5078 14.0332 26.8359 14.0332 28.2324C14.0332 29.6777 15.0391 30.9766 16.7285 31.2207C17.1289 32.2559 18.2422 32.9785 19.502 32.9785Z" fill="black" fill-opacity="0.85"/>
 </g>
</svg>
