<?xml version="1.0" encoding="UTF-8"?>
<!--Generator: Apple Native CoreSVG 326-->
<!DOCTYPE svg
PUBLIC "-//W3C//DTD SVG 1.1//EN"
       "http://www.w3.org/Graphics/SVG/1.1/DTD/svg11.dtd">
<svg version="1.1" xmlns="http://www.w3.org/2000/svg" xmlns:xlink="http://www.w3.org/1999/xlink" viewBox="0 0 23.0566 31.4551">
 <g>
  <rect height="31.4551" opacity="0" width="23.0566" x="0" y="0"/>
  <path d="M12.2363 2.00195C12.6465 1.91406 13.1152 1.93359 13.4766 2.05078C14.0527 1.49414 14.8242 1.18164 15.6738 1.18164C17.0117 1.18164 17.998 2.01172 18.457 3.22266C20.4004 3.26172 21.7969 4.76562 21.7969 6.8457C21.7969 7.7922 21.4397 8.66123 20.8524 9.31146C21.7347 10.1017 22.1864 11.3091 21.9043 12.7832L20.2402 21.5756C19.857 21.1659 19.3546 20.8659 18.7787 20.7051L20.3223 12.6953C20.6641 10.957 19.4531 9.88281 17.9395 9.88281C16.748 9.88281 15.7715 10.6738 15.6445 12.1387L14.7166 22.4412C14.5874 22.7421 14.5106 23.0735 14.4922 23.4277C13.9018 23.5529 13.3692 23.8392 12.9448 24.2368L14.043 12.0898C14.1992 10.3711 13.125 9.23828 11.3477 9.23828C9.56055 9.23828 8.48633 10.3711 8.64258 12.0898L10.0879 27.9688L12.2258 27.9687C12.5927 28.7286 13.257 29.3098 14.0741 29.5801L6.38672 29.5801C4.6875 29.5801 3.79883 28.6719 3.47656 26.9727L0.791016 12.7832C0.521863 11.3765 0.920847 10.2128 1.7253 9.42321C1.20142 8.82945 0.888672 8.0363 0.888672 7.1582C0.888672 5.3125 2.41211 3.76953 4.23828 3.81836C4.23828 2.83203 5.13672 1.95312 6.15234 2.08984C6.37695 1.01562 7.53906 0 9.21875 0C10.5469 0 11.709 0.78125 12.2363 2.00195ZM2.36328 12.6953L5.09766 26.8848C5.23438 27.6172 5.69336 27.9688 6.44531 27.9688L8.47656 27.9688L7.05078 12.1387C6.92383 10.6738 5.94727 9.88281 4.75586 9.88281C3.23242 9.88281 2.03125 10.957 2.36328 12.6953ZM7.49023 3.75C6.16211 3.14453 4.89258 4.16016 5.12695 5.43945C3.67188 5.10742 2.44141 5.97656 2.44141 7.1582C2.44141 7.74216 2.69687 8.24628 3.10221 8.55994C3.60425 8.37031 4.1643 8.27148 4.75586 8.27148C5.92773 8.27148 6.93359 8.75 7.62695 9.64844C8.26172 8.42773 9.63867 7.62695 11.3477 7.62695C13.0566 7.62695 14.4336 8.42773 15.0684 9.64844C15.7617 8.75 16.7676 8.27148 17.9395 8.27148C18.463 8.27148 18.9618 8.34889 19.4167 8.49969C19.9113 8.13895 20.2441 7.57117 20.2441 6.94336C20.2441 5.44922 19.043 4.63867 17.4609 4.92188C17.5293 3.67188 16.875 2.75391 15.7422 2.75391C14.9512 2.75391 14.2773 3.18359 13.9453 3.94531C13.3008 3.4082 11.9531 3.30078 11.1621 3.85742C11.3184 2.39258 10.2734 1.57227 9.21875 1.57227C8.125 1.57227 7.20703 2.39258 7.49023 3.75Z" fill="black" fill-opacity="0.85"/>
  <path d="M17.7637 31.4355C18.9844 31.4355 20.0977 30.7129 20.5664 29.6484C22.0703 29.3555 23.0566 28.0762 23.0566 26.5918C23.0566 25.2441 22.2168 24.1113 21.0547 23.623C21.0254 21.8164 19.5898 20.5664 17.7637 20.5664C15.9961 20.5664 14.5801 21.7383 14.4922 23.4277C13.0176 23.7402 11.9043 25.0586 11.9043 26.5723C11.9043 28.3008 13.2422 29.6582 14.9512 29.7461C15.4102 30.7324 16.5234 31.4355 17.7637 31.4355ZM17.7637 30.0195C16.7383 30.0195 15.8594 29.3652 15.957 28.252C14.6094 28.6328 13.3105 27.9395 13.3105 26.5723C13.3105 25.2441 14.3848 24.4336 15.9277 24.6387C15.5469 23.3984 16.25 21.9824 17.7637 21.9824C19.2773 21.9824 20.0391 23.3887 19.6484 24.7656C20.8203 24.6875 21.6113 25.4492 21.6113 26.6406C21.6113 27.7539 20.8594 28.418 19.541 28.3105C19.5605 29.2969 18.6914 30.0195 17.7637 30.0195Z" fill="black" fill-opacity="0.85"/>
 </g>
</svg>
