<?xml version="1.0" encoding="UTF-8"?>
<!--Generator: Apple Native CoreSVG 326-->
<!DOCTYPE svg
PUBLIC "-//W3C//DTD SVG 1.1//EN"
       "http://www.w3.org/Graphics/SVG/1.1/DTD/svg11.dtd">
<svg version="1.1" xmlns="http://www.w3.org/2000/svg" xmlns:xlink="http://www.w3.org/1999/xlink" viewBox="0 0 25.8008 25.459">
 <g>
  <rect height="25.459" opacity="0" width="25.8008" x="0" y="0"/>
  <path d="M25.4395 12.7344C25.4395 19.7461 19.7266 25.459 12.7148 25.459C5.71289 25.459 0 19.7461 0 12.7344C0 5.73242 5.71289 0.0195312 12.7148 0.0195312C19.7266 0.0195312 25.4395 5.73242 25.4395 12.7344ZM7.44141 12.002L8.74023 18.8672C8.90625 19.707 9.32617 20.1855 10.1953 20.1855L11.0645 20.1855L10.2637 11.4062C10.1953 10.5664 9.55078 10.1172 8.85742 10.1172C7.99805 10.1172 7.20703 10.7812 7.44141 12.002ZM11.123 11.582L11.9043 20.1855L13.4863 20.1855L14.2676 11.582C14.3652 10.4395 13.4277 9.93164 12.6953 9.93164C11.9727 9.93164 11.0352 10.4395 11.123 11.582ZM15.127 11.4062L14.3359 20.1855L15.2051 20.1855C16.0742 20.1855 16.4941 19.707 16.6504 18.8672L17.959 12.002C18.1934 10.7812 17.3926 10.1172 16.543 10.1172C15.8496 10.1172 15.2051 10.5664 15.127 11.4062ZM10.0977 6.15234C9.58984 6.08398 9.13086 6.5332 9.13086 7.04102C8.19336 7.02148 7.42188 7.79297 7.42188 8.74023C7.42188 9.04297 7.48047 9.30664 7.62695 9.58008C7.98828 9.375 8.4082 9.24805 8.85742 9.24805C9.56055 9.24805 10.2344 9.57031 10.6543 10.1074C11.1035 9.45312 11.9043 9.07227 12.6953 9.07227C13.4863 9.07227 14.2969 9.45312 14.7461 10.1074C15.1562 9.57031 15.8398 9.24805 16.543 9.24805C16.9922 9.24805 17.4121 9.375 17.7734 9.59961C17.9688 9.30664 18.0859 8.95508 18.0859 8.59375C18.0859 7.5293 17.373 6.75781 16.3867 6.74805C16.1523 6.12305 15.6445 5.69336 14.9707 5.69336C14.5312 5.69336 14.1406 5.85938 13.8379 6.13281C13.6523 6.07422 13.418 6.06445 13.2031 6.11328C12.9492 5.48828 12.3438 5.09766 11.6699 5.09766C10.8105 5.09766 10.2344 5.60547 10.0977 6.15234Z" fill="black" fill-opacity="0.85"/>
 </g>
</svg>
