<?xml version="1.0" encoding="UTF-8"?>
<!--Generator: Apple Native CoreSVG 326-->
<!DOCTYPE svg
PUBLIC "-//W3C//DTD SVG 1.1//EN"
       "http://www.w3.org/Graphics/SVG/1.1/DTD/svg11.dtd">
<svg version="1.1" xmlns="http://www.w3.org/2000/svg" xmlns:xlink="http://www.w3.org/1999/xlink" viewBox="0 0 23.3203 22.959">
 <g>
  <rect height="22.959" opacity="0" width="23.3203" x="0" y="0"/>
  <path d="M3.79883 22.959L19.1504 22.959C21.6797 22.959 22.959 21.6797 22.959 19.1992L22.959 3.76953C22.959 1.2793 21.6797 0 19.1504 0L3.79883 0C1.2793 0 0 1.26953 0 3.76953L0 19.1992C0 21.6992 1.2793 22.959 3.79883 22.959ZM3.83789 21.2305C2.4707 21.2305 1.72852 20.5078 1.72852 19.1016L1.72852 3.85742C1.72852 2.46094 2.4707 1.72852 3.83789 1.72852L19.1211 1.72852C20.459 1.72852 21.2305 2.46094 21.2305 3.85742L21.2305 19.1016C21.2305 20.5078 20.459 21.2305 19.1211 21.2305Z" fill="black" fill-opacity="0.85"/>
  <path d="M6.73828 17.3438L16.3379 17.3438C16.9922 17.3438 17.4609 16.8652 17.4609 16.2207L17.4609 6.74805C17.4609 6.09375 16.9922 5.625 16.3379 5.625L6.73828 5.625C6.09375 5.625 5.61523 6.09375 5.61523 6.74805L5.61523 16.2207C5.61523 16.8652 6.09375 17.3438 6.73828 17.3438ZM11.2793 10.625C10.9961 10.625 10.8008 10.4492 10.8008 10.166L10.8008 8.06641C10.8008 7.7832 10.9961 7.59766 11.2793 7.59766L11.7969 7.59766C12.0703 7.59766 12.2754 7.7832 12.2754 8.06641L12.2754 10.166C12.2754 10.4492 12.0703 10.625 11.7969 10.625ZM7.91992 15.2148C7.63672 15.2148 7.45117 15.0195 7.45117 14.7461L7.45117 14.209C7.45117 13.9355 7.63672 13.7402 7.91992 13.7402L9.92188 13.7402C10.2051 13.7402 10.3906 13.9355 10.3906 14.209L10.3906 14.7461C10.3906 15.0195 10.2051 15.2148 9.92188 15.2148ZM13.1738 15.2148C12.8906 15.2148 12.6953 15.0195 12.6953 14.7461L12.6953 14.209C12.6953 13.9355 12.8906 13.7402 13.1738 13.7402L15.166 13.7402C15.4492 13.7402 15.6348 13.9355 15.6348 14.209L15.6348 14.7461C15.6348 15.0195 15.4492 15.2148 15.166 15.2148Z" fill="black" fill-opacity="0.85"/>
 </g>
</svg>
