<?xml version="1.0" ?><!-- Generator: Adobe Illustrator 25.0.0, SVG Export Plug-In . SVG Version: 6.00 Build 0)  --><svg xmlns="http://www.w3.org/2000/svg" xmlns:xlink="http://www.w3.org/1999/xlink" version="1.1" id="Layer_1" x="0px" y="0px" viewBox="0 0 512 512" style="enable-background:new 0 0 512 512;" xml:space="preserve">
<path d="M0,295c0,14.1,3.6,24.8,10.9,32c7.2,7.2,18.1,10.8,32.6,10.8h66.9c9.5,0,17.7,1,24.8,2.9c7.1,2,13.5,5.3,19.4,9.9  c5.9,4.7,12,11.1,18.2,19.2c15.7,20.1,34.9,35.6,57.7,46.2c22.7,10.7,46.6,16,71.5,16h64.5c7,0,12.6-2,16.7-6.1  c4.1-4.1,6.2-9.6,6.2-16.6V102.1c0-6.8-2.1-12.1-6.3-16.1c-4.2-4-9.7-6-16.6-6H302c-24.9,0-48.8,5.3-71.5,16  c-22.7,10.7-41.9,26.1-57.7,46.2c-6.3,8.1-12.3,14.5-18.2,19.2c-5.9,4.7-12.4,8-19.4,10c-7.1,2-15.3,3-24.8,3H43.5  c-14.5,0-25.4,3.6-32.6,10.7C3.6,192.3,0,202.9,0,217V295z M27.8,292v-72c0-11.8,5.9-17.7,17.7-17.7h64.9c18.7,0,34.4-3.3,47.2-9.8  c12.8-6.5,25.2-17.6,37.2-33.2c13-16.9,29-29.8,47.8-38.5c18.9-8.7,38.7-13.1,59.4-13.1h53.2c2,0,3.5,0.5,4.6,1.6  c1.1,1,1.7,2.5,1.7,4.5v284.3c0,2-0.6,3.5-1.7,4.5c-1.1,1-2.6,1.6-4.6,1.6H302c-20.8,0-40.6-4.4-59.4-13.1  c-18.9-8.7-34.8-21.6-47.8-38.5c-12-15.5-24.4-26.5-37.2-33c-12.8-6.5-28.5-9.8-47.2-9.8H45.5C33.7,309.9,27.8,303.9,27.8,292z   M372.7,214.6h109.4c5.4,0,10.4-1.4,14.9-4.1c4.5-2.7,8.2-6.3,10.9-10.8c2.7-4.5,4.1-9.5,4.1-15c0-5.5-1.4-10.5-4.1-15  c-2.7-4.5-6.3-8.1-10.9-10.8c-4.5-2.7-9.5-4.1-14.9-4.1H372.7V214.6z M372.7,357.1h109.4c5.4,0,10.4-1.4,14.9-4.1  c4.5-2.7,8.2-6.3,10.9-10.8c2.7-4.5,4.1-9.5,4.1-15c0-5.4-1.4-10.4-4.1-14.9c-2.7-4.5-6.3-8.2-10.9-10.9c-4.5-2.7-9.5-4.1-14.9-4.1  H372.7V357.1z"/>
</svg>