<?xml version="1.0" encoding="UTF-8"?>
<!--Generator: Apple Native CoreSVG 326-->
<!DOCTYPE svg
PUBLIC "-//W3C//DTD SVG 1.1//EN"
       "http://www.w3.org/Graphics/SVG/1.1/DTD/svg11.dtd">
<svg version="1.1" xmlns="http://www.w3.org/2000/svg" xmlns:xlink="http://www.w3.org/1999/xlink" viewBox="0 0 23.3203 22.959">
 <g>
  <rect height="22.959" opacity="0" width="23.3203" x="0" y="0"/>
  <path d="M3.79883 22.959L19.1504 22.959C21.6797 22.959 22.959 21.6797 22.959 19.1992L22.959 3.76953C22.959 1.2793 21.6797 0 19.1504 0L3.79883 0C1.2793 0 0 1.26953 0 3.76953L0 19.1992C0 21.6992 1.2793 22.959 3.79883 22.959ZM3.83789 21.2305C2.4707 21.2305 1.72852 20.5078 1.72852 19.1016L1.72852 3.85742C1.72852 2.46094 2.4707 1.72852 3.83789 1.72852L19.1211 1.72852C20.459 1.72852 21.2305 2.46094 21.2305 3.85742L21.2305 19.1016C21.2305 20.5078 20.459 21.2305 19.1211 21.2305Z" fill="black" fill-opacity="0.85"/>
  <path d="M6.55273 17.334L16.4062 17.334C17.0508 17.334 17.5195 16.8555 17.5195 16.2109L17.5195 6.73828C17.5195 6.08398 17.0508 5.61523 16.4062 5.61523L6.55273 5.61523C5.9082 5.61523 5.42969 6.08398 5.42969 6.73828L5.42969 16.2109C5.42969 16.8555 5.9082 17.334 6.55273 17.334ZM11.4844 10.5762C10.6543 10.5762 9.98047 9.90234 9.98047 9.07227C9.98047 8.24219 10.6543 7.56836 11.4844 7.56836C12.3242 7.56836 12.998 8.24219 12.998 9.07227C12.998 9.90234 12.3242 10.5762 11.4844 10.5762ZM8.7793 15.3613C8.08594 15.3613 7.5293 14.8047 7.5293 14.1211C7.5293 13.4277 8.08594 12.8809 8.7793 12.8809C9.46289 12.8809 10.0195 13.4277 10.0195 14.1211C10.0195 14.8047 9.46289 15.3613 8.7793 15.3613ZM14.1992 15.3613C13.5156 15.3613 12.959 14.8047 12.959 14.1211C12.959 13.4277 13.5156 12.8809 14.1992 12.8809C14.8828 12.8809 15.4492 13.4277 15.4492 14.1211C15.4492 14.8047 14.8828 15.3613 14.1992 15.3613Z" fill="black" fill-opacity="0.85"/>
 </g>
</svg>
