<?xml version="1.0" encoding="UTF-8"?>
<!--Generator: Apple Native CoreSVG 326-->
<!DOCTYPE svg
PUBLIC "-//W3C//DTD SVG 1.1//EN"
       "http://www.w3.org/Graphics/SVG/1.1/DTD/svg11.dtd">
<svg version="1.1" xmlns="http://www.w3.org/2000/svg" xmlns:xlink="http://www.w3.org/1999/xlink" viewBox="0 0 33.9819 17.373">
 <g>
  <rect height="17.373" opacity="0" width="33.9819" x="0" y="0"/>
  <path d="M8.8855 0C7.37183 0 6.46363 0.644531 5.39917 1.75781L0.848393 6.71875C-0.28442 7.91016-0.274654 9.35547 0.828861 10.5566L5.38941 15.5859C6.36597 16.6309 7.45972 17.3535 8.8855 17.3535L24.7351 17.3535C26.1609 17.3535 27.2546 16.6309 28.2312 15.5859L32.782 10.5566C33.8953 9.35547 33.905 7.91016 32.7722 6.71875L28.2214 1.75781C27.1472 0.644531 26.2488 0 24.7351 0ZM8.8855 1.72852L24.7351 1.72852C25.7117 1.72852 26.1414 2.06055 26.8543 2.80273L31.405 7.73438C32.0203 8.36914 32.0203 8.93555 31.4246 9.55078L26.8543 14.541C26.2195 15.2051 25.6238 15.6152 24.7351 15.6152L8.8855 15.6152C7.99683 15.6152 7.40113 15.2051 6.76636 14.541L2.19605 9.55078C1.60035 8.93555 1.60035 8.36914 2.20581 7.73438L6.76636 2.80273C7.47925 2.06055 7.90894 1.72852 8.8855 1.72852Z" fill="black" fill-opacity="0.85"/>
  <path d="M8.35816 6.46484C7.14722 6.46484 6.15113 7.46094 6.15113 8.67188C6.15113 9.87305 7.14722 10.8691 8.35816 10.8691C9.5691 10.8691 10.5554 9.87305 10.5554 8.67188C10.5554 7.46094 9.5691 6.46484 8.35816 6.46484ZM16.8152 8.70117C15.614 8.70117 14.6179 9.69727 14.6179 10.9082C14.6179 12.1191 15.614 13.1055 16.8152 13.1055C18.0261 13.1055 19.0222 12.1191 19.0222 10.9082C19.0222 9.69727 18.0261 8.70117 16.8152 8.70117ZM25.282 6.46484C24.071 6.46484 23.0847 7.46094 23.0847 8.67188C23.0847 9.87305 24.071 10.8691 25.282 10.8691C26.4929 10.8691 27.489 9.87305 27.489 8.67188C27.489 7.46094 26.4929 6.46484 25.282 6.46484Z" fill="black" fill-opacity="0.85"/>
 </g>
</svg>
