<?xml version="1.0" encoding="UTF-8"?>
<!--Generator: Apple Native CoreSVG 326-->
<!DOCTYPE svg
PUBLIC "-//W3C//DTD SVG 1.1//EN"
       "http://www.w3.org/Graphics/SVG/1.1/DTD/svg11.dtd">
<svg version="1.1" xmlns="http://www.w3.org/2000/svg" xmlns:xlink="http://www.w3.org/1999/xlink" viewBox="0 0 23.3203 22.959">
 <g>
  <rect height="22.959" opacity="0" width="23.3203" x="0" y="0"/>
  <path d="M22.959 3.76953L22.959 19.1992C22.959 21.6797 21.6797 22.959 19.1504 22.959L3.79883 22.959C1.2793 22.959 0 21.6992 0 19.1992L0 3.76953C0 1.26953 1.2793 0 3.79883 0L19.1504 0C21.6797 0 22.959 1.2793 22.959 3.76953ZM6.43555 5.46875C5.76172 5.46875 5.2832 5.94727 5.2832 6.61133L5.2832 16.3281C5.2832 16.9922 5.76172 17.4805 6.43555 17.4805L16.5234 17.4805C17.1875 17.4805 17.6758 16.9922 17.6758 16.3281L17.6758 6.61133C17.6758 5.94727 17.1875 5.46875 16.5234 5.46875ZM9.98047 14.0625C9.98047 14.7656 9.41406 15.332 8.71094 15.332C7.99805 15.332 7.43164 14.7656 7.43164 14.0625C7.43164 13.3594 7.99805 12.7832 8.71094 12.7832C9.41406 12.7832 9.98047 13.3594 9.98047 14.0625ZM15.5469 14.0625C15.5469 14.7656 14.9707 15.332 14.2676 15.332C13.5645 15.332 12.998 14.7656 12.998 14.0625C12.998 13.3594 13.5645 12.7832 14.2676 12.7832C14.9707 12.7832 15.5469 13.3594 15.5469 14.0625ZM12.7637 8.87695C12.7637 9.58984 12.1973 10.1562 11.4844 10.1562C10.7812 10.1562 10.2148 9.58984 10.2148 8.87695C10.2148 8.17383 10.7812 7.60742 11.4844 7.60742C12.1973 7.60742 12.7637 8.17383 12.7637 8.87695Z" fill="black" fill-opacity="0.85"/>
 </g>
</svg>
