<?xml version="1.0" encoding="UTF-8"?>
<!--Generator: Apple Native CoreSVG 326-->
<!DOCTYPE svg
PUBLIC "-//W3C//DTD SVG 1.1//EN"
       "http://www.w3.org/Graphics/SVG/1.1/DTD/svg11.dtd">
<svg version="1.1" xmlns="http://www.w3.org/2000/svg" xmlns:xlink="http://www.w3.org/1999/xlink" viewBox="0 0 23.3203 22.959">
 <g>
  <rect height="22.959" opacity="0" width="23.3203" x="0" y="0"/>
  <path d="M22.959 3.76953L22.959 19.1992C22.959 21.6797 21.6797 22.959 19.1504 22.959L3.79883 22.959C1.2793 22.959 0 21.6992 0 19.1992L0 3.76953C0 1.26953 1.2793 0 3.79883 0L19.1504 0C21.6797 0 22.959 1.2793 22.959 3.76953ZM6.43555 5.46875C5.76172 5.46875 5.2832 5.94727 5.2832 6.61133L5.2832 16.3281C5.2832 16.9922 5.76172 17.4805 6.43555 17.4805L16.5234 17.4805C17.1875 17.4805 17.6758 16.9922 17.6758 16.3281L17.6758 6.61133C17.6758 5.94727 17.1875 5.46875 16.5234 5.46875ZM12.6465 14.3066L12.6465 15.0977C12.6465 15.3223 12.5391 15.4492 12.3047 15.4492L10.6543 15.4492C10.4199 15.4492 10.3027 15.3223 10.3027 15.0977L10.3027 14.3066C10.3027 13.6426 10.8008 13.125 11.4746 13.125C12.1387 13.125 12.6465 13.6426 12.6465 14.3066ZM9.70703 8.66211L9.70703 10.9277C9.70703 11.2891 9.41406 11.5723 9.05273 11.5723C8.70117 11.5723 8.41797 11.2891 8.41797 10.9277L8.41797 8.66211C8.41797 8.30078 8.70117 8.00781 9.05273 8.00781C9.41406 8.00781 9.70703 8.30078 9.70703 8.66211ZM14.5312 8.66211L14.5312 10.9277C14.5312 11.2891 14.2383 11.5723 13.8867 11.5723C13.5254 11.5723 13.2422 11.2891 13.2422 10.9277L13.2422 8.66211C13.2422 8.30078 13.5254 8.00781 13.8867 8.00781C14.2383 8.00781 14.5312 8.30078 14.5312 8.66211Z" fill="black" fill-opacity="0.85"/>
 </g>
</svg>
