<?xml version="1.0" encoding="UTF-8"?>
<!--Generator: Apple Native CoreSVG 326-->
<!DOCTYPE svg
PUBLIC "-//W3C//DTD SVG 1.1//EN"
       "http://www.w3.org/Graphics/SVG/1.1/DTD/svg11.dtd">
<svg version="1.1" xmlns="http://www.w3.org/2000/svg" xmlns:xlink="http://www.w3.org/1999/xlink" viewBox="0 0 25.8008 25.459">
 <g>
  <rect height="25.459" opacity="0" width="25.8008" x="0" y="0"/>
  <path d="M12.7148 25.4395C19.7363 25.4395 25.4395 19.7461 25.4395 12.7246C25.4395 5.70312 19.7363 0 12.7148 0C5.69336 0 0 5.70312 0 12.7246C0 19.7461 5.69336 25.4395 12.7148 25.4395ZM12.7148 23.623C6.68945 23.623 1.81641 18.75 1.81641 12.7246C1.81641 6.69922 6.68945 1.82617 12.7148 1.82617C18.7402 1.82617 23.6133 6.69922 23.6133 12.7246C23.6133 18.75 18.7402 23.623 12.7148 23.623Z" fill="black" fill-opacity="0.85"/>
  <path d="M12.7148 8.41797C13.6035 8.41797 14.3262 7.69531 14.3262 6.81641C14.3262 5.92773 13.6035 5.20508 12.7148 5.20508C11.8359 5.20508 11.1133 5.92773 11.1133 6.81641C11.1133 7.69531 11.8359 8.41797 12.7148 8.41797ZM7.16797 15.0684C8.4668 15.0684 9.52148 14.0234 9.52148 12.7246C9.52148 11.4258 8.4668 10.3711 7.16797 10.3711C5.86914 10.3711 4.81445 11.4258 4.81445 12.7246C4.81445 14.0234 5.86914 15.0684 7.16797 15.0684ZM18.2715 15.0684C19.5605 15.0684 20.6152 14.0234 20.6152 12.7246C20.6152 11.4258 19.5605 10.3711 18.2715 10.3711C16.9727 10.3711 15.918 11.4258 15.918 12.7246C15.918 14.0234 16.9727 15.0684 18.2715 15.0684Z" fill="black" fill-opacity="0.85"/>
 </g>
</svg>
