<?xml version="1.0" encoding="UTF-8"?>
<!--Generator: Apple Native CoreSVG 326-->
<!DOCTYPE svg
PUBLIC "-//W3C//DTD SVG 1.1//EN"
       "http://www.w3.org/Graphics/SVG/1.1/DTD/svg11.dtd">
<svg version="1.1" xmlns="http://www.w3.org/2000/svg" xmlns:xlink="http://www.w3.org/1999/xlink" viewBox="0 0 23.3203 22.959">
 <g>
  <rect height="22.959" opacity="0" width="23.3203" x="0" y="0"/>
  <path d="M22.959 3.76953L22.959 19.1992C22.959 21.6797 21.6797 22.959 19.1504 22.959L3.79883 22.959C1.2793 22.959 0 21.6992 0 19.1992L0 3.76953C0 1.26953 1.2793 0 3.79883 0L19.1504 0C21.6797 0 22.959 1.2793 22.959 3.76953ZM4.75586 11.4746C4.75586 15.1953 7.75391 18.1934 11.4746 18.1934C15.2051 18.1934 18.2031 15.1953 18.2031 11.4746C18.2031 7.74414 15.2051 4.74609 11.4746 4.74609C7.75391 4.74609 4.75586 7.74414 4.75586 11.4746ZM12.9297 14.8828C12.9297 15.6836 12.2754 16.3379 11.4746 16.3379C10.6836 16.3379 10.0293 15.6836 10.0293 14.8828C10.0293 14.0918 10.6836 13.4277 11.4746 13.4277C12.2754 13.4277 12.9297 14.0918 12.9297 14.8828ZM9.75586 11.4746C9.75586 12.2656 9.0918 12.9199 8.30078 12.9199C7.5 12.9199 6.8457 12.2656 6.8457 11.4746C6.8457 10.6738 7.5 10.0195 8.30078 10.0195C9.0918 10.0195 9.75586 10.6738 9.75586 11.4746ZM16.1133 11.4746C16.1133 12.2656 15.459 12.9199 14.6582 12.9199C13.8574 12.9199 13.2031 12.2656 13.2031 11.4746C13.2031 10.6738 13.8574 10.0195 14.6582 10.0195C15.459 10.0195 16.1133 10.6738 16.1133 11.4746Z" fill="black" fill-opacity="0.85"/>
 </g>
</svg>
