<?xml version="1.0" encoding="UTF-8"?>
<!--Generator: Apple Native CoreSVG 326-->
<!DOCTYPE svg
PUBLIC "-//W3C//DTD SVG 1.1//EN"
       "http://www.w3.org/Graphics/SVG/1.1/DTD/svg11.dtd">
<svg version="1.1" xmlns="http://www.w3.org/2000/svg" xmlns:xlink="http://www.w3.org/1999/xlink" viewBox="0 0 23.3203 22.959">
 <g>
  <rect height="22.959" opacity="0" width="23.3203" x="0" y="0"/>
  <path d="M22.959 3.76953L22.959 19.1992C22.959 21.6797 21.6797 22.959 19.1504 22.959L3.79883 22.959C1.2793 22.959 0 21.6992 0 19.1992L0 3.76953C0 1.26953 1.2793 0 3.79883 0L19.1504 0C21.6797 0 22.959 1.2793 22.959 3.76953ZM7.07031 6.86523C6.35742 6.86523 6.01562 7.12891 5.68359 7.56836L3.33008 10.6934C2.97852 11.1621 2.96875 11.7578 3.32031 12.2168L5.68359 15.3809C6.01562 15.8203 6.45508 16.084 7.07031 16.084L15.8887 16.084C16.5039 16.084 16.9434 15.8203 17.2754 15.3809L19.6289 12.2168C19.9902 11.7578 19.9805 11.1621 19.6289 10.6934L17.2754 7.56836C16.9434 7.12891 16.6016 6.86523 15.8887 6.86523ZM12.6855 13.0273C12.6855 13.6816 12.1387 14.2383 11.4746 14.2383C10.8203 14.2383 10.2637 13.6816 10.2637 13.0273C10.2637 12.3633 10.8203 11.8164 11.4746 11.8164C12.1387 11.8164 12.6855 12.3633 12.6855 13.0273ZM8.07617 11.4746C8.07617 12.1289 7.5293 12.6855 6.86523 12.6855C6.21094 12.6855 5.6543 12.1289 5.6543 11.4746C5.6543 10.8105 6.21094 10.2637 6.86523 10.2637C7.5293 10.2637 8.07617 10.8105 8.07617 11.4746ZM17.2949 11.4746C17.2949 12.1289 16.748 12.6855 16.084 12.6855C15.4297 12.6855 14.873 12.1289 14.873 11.4746C14.873 10.8105 15.4297 10.2637 16.084 10.2637C16.748 10.2637 17.2949 10.8105 17.2949 11.4746Z" fill="black" fill-opacity="0.85"/>
 </g>
</svg>
