<?xml version="1.0" encoding="UTF-8"?>
<!--Generator: Apple Native CoreSVG 326-->
<!DOCTYPE svg
PUBLIC "-//W3C//DTD SVG 1.1//EN"
       "http://www.w3.org/Graphics/SVG/1.1/DTD/svg11.dtd">
<svg version="1.1" xmlns="http://www.w3.org/2000/svg" xmlns:xlink="http://www.w3.org/1999/xlink" viewBox="0 0 33.3789 19.5605">
 <g>
  <rect height="19.5605" opacity="0" width="33.3789" x="0" y="0"/>
  <path d="M8.59375 0C7.08008 0 6.04492 0.546875 5.10742 1.75781L0.751953 7.57812C-0.253906 8.87695-0.244141 10.5957 0.742188 11.8945L5.09766 17.7637C5.9668 18.916 7.16797 19.5312 8.59375 19.5312L24.4238 19.5312C25.8496 19.5312 27.041 18.916 27.9199 17.7637L32.2754 11.8945C33.2617 10.5957 33.2617 8.87695 32.2656 7.57812L27.9004 1.75781C26.9629 0.546875 25.9375 0 24.4238 0ZM8.59375 1.72852L24.4238 1.72852C25.4004 1.72852 25.9082 1.99219 26.543 2.80273L30.8984 8.62305C31.4355 9.31641 31.4258 10.166 30.9082 10.8496L26.543 16.7188C25.9766 17.4512 25.3125 17.8027 24.4238 17.8027L8.59375 17.8027C7.70508 17.8027 7.03125 17.4512 6.47461 16.7188L2.09961 10.8496C1.58203 10.166 1.58203 9.31641 2.11914 8.62305L6.47461 2.80273C7.09961 1.99219 7.61719 1.72852 8.59375 1.72852Z" fill="black" fill-opacity="0.85"/>
  <path d="M8.04688 7.55859C6.83594 7.55859 5.83984 8.55469 5.83984 9.76562C5.83984 10.9668 6.83594 11.9629 8.04688 11.9629C9.24805 11.9629 10.2441 10.9668 10.2441 9.76562C10.2441 8.55469 9.24805 7.55859 8.04688 7.55859ZM16.5039 10.625C15.3027 10.625 14.3066 11.6211 14.3066 12.832C14.3066 14.043 15.3027 15.0293 16.5039 15.0293C17.7148 15.0293 18.7109 14.043 18.7109 12.832C18.7109 11.6211 17.7148 10.625 16.5039 10.625ZM24.9707 7.55859C23.7598 7.55859 22.7637 8.55469 22.7637 9.76562C22.7637 10.9668 23.7598 11.9629 24.9707 11.9629C26.1816 11.9629 27.168 10.9668 27.168 9.76562C27.168 8.55469 26.1816 7.55859 24.9707 7.55859Z" fill="black" fill-opacity="0.85"/>
 </g>
</svg>
