<?xml version="1.0" encoding="UTF-8"?>
<!--Generator: Apple Native CoreSVG 326-->
<!DOCTYPE svg
PUBLIC "-//W3C//DTD SVG 1.1//EN"
       "http://www.w3.org/Graphics/SVG/1.1/DTD/svg11.dtd">
<svg version="1.1" xmlns="http://www.w3.org/2000/svg" xmlns:xlink="http://www.w3.org/1999/xlink" viewBox="0 0 48.8867 16.0645">
 <g>
  <rect height="16.0645" opacity="0" width="48.8867" x="0" y="0"/>
  <path d="M3.58398 14.3457L34.8633 14.3457C36.9824 14.3457 38.4473 12.8711 38.4473 10.7617L38.4473 3.59375C38.4473 1.48438 36.9824 0 34.8633 0L3.58398 0C1.46484 0 0 1.46484 0 3.59375L0 10.7617C0 12.8906 1.46484 14.3457 3.58398 14.3457ZM3.59375 12.7148C2.39258 12.7148 1.63086 11.9531 1.63086 10.752L1.63086 3.60352C1.63086 2.40234 2.39258 1.63086 3.59375 1.63086L34.8438 1.63086C36.0254 1.63086 36.8164 2.40234 36.8164 3.60352L36.8164 10.752C36.8164 11.9531 36.0254 12.7148 34.8438 12.7148ZM37.7148 11.5527L39.6191 11.5527C40.5273 11.5527 41.1523 10.9277 41.1523 10.0195L41.1523 4.32617C41.1523 3.41797 40.5273 2.79297 39.6191 2.79297L37.7148 2.79297L37.7148 4.22852L39.082 4.22852C39.4727 4.22852 39.7168 4.48242 39.7168 4.87305L39.7168 9.47266C39.7168 9.86328 39.4727 10.1172 39.082 10.1172L37.7148 10.1172ZM40.6348 8.11523L48.5254 8.11523L48.5254 6.38672L40.6348 6.38672Z" fill="black" fill-opacity="0.85"/>
  <path d="M4.79492 10.0195L5.69336 10.0195C6.03516 10.0195 6.26953 9.77539 6.26953 9.43359L6.26953 4.90234C6.26953 4.54102 6.03516 4.31641 5.69336 4.31641L4.79492 4.31641C4.43359 4.31641 4.20898 4.54102 4.20898 4.90234L4.20898 9.43359C4.20898 9.77539 4.43359 10.0195 4.79492 10.0195ZM12.3438 11.0254C14.4727 11.0254 16.1914 9.31641 16.1914 7.17773C16.1914 5.05859 14.4727 3.32031 12.3438 3.32031C10.2051 3.32031 8.48633 5.05859 8.48633 7.17773C8.48633 9.31641 10.2051 11.0254 12.3438 11.0254ZM10.9473 9.20898C10.6543 9.20898 10.4102 8.97461 10.4102 8.69141L10.4102 5.67383C10.4102 5.38086 10.6543 5.13672 10.9473 5.13672C11.2402 5.13672 11.4746 5.37109 11.4746 5.67383L11.4746 8.69141C11.4746 8.98438 11.2402 9.20898 10.9473 9.20898ZM13.7305 9.20898C13.4375 9.20898 13.1934 8.98438 13.1934 8.69141L13.1934 5.67383C13.1934 5.37109 13.4277 5.13672 13.7305 5.13672C14.0234 5.13672 14.2578 5.37109 14.2578 5.67383L14.2578 8.69141C14.2578 8.98438 14.0234 9.20898 13.7305 9.20898ZM21.6309 11.0254C23.7598 11.0254 25.4883 9.31641 25.4883 7.17773C25.4883 5.05859 23.7598 3.32031 21.6309 3.32031C19.502 3.32031 17.7832 5.05859 17.7832 7.17773C17.7832 9.31641 19.502 11.0254 21.6309 11.0254ZM20.2344 9.20898C19.9414 9.20898 19.6973 8.98438 19.6973 8.69141L19.6973 5.67383C19.6973 5.38086 19.9414 5.13672 20.2344 5.13672C20.5371 5.13672 20.7617 5.37109 20.7617 5.67383L20.7617 8.69141C20.7617 8.98438 20.5371 9.20898 20.2344 9.20898ZM23.0176 9.20898C22.7246 9.20898 22.4805 8.98438 22.4805 8.69141L22.4805 5.67383C22.4805 5.37109 22.7246 5.13672 23.0176 5.13672C23.3203 5.13672 23.5449 5.37109 23.5449 5.67383L23.5449 8.69141C23.5449 8.98438 23.3105 9.20898 23.0176 9.20898ZM30.9082 11.0254C33.0371 11.0254 34.7656 9.31641 34.7656 7.17773C34.7656 5.05859 33.0371 3.32031 30.9082 3.32031C28.7793 3.32031 27.0605 5.05859 27.0605 7.17773C27.0605 9.31641 28.7793 11.0254 30.9082 11.0254ZM29.5215 9.20898C29.2285 9.20898 28.9844 8.98438 28.9844 8.69141L28.9844 5.67383C28.9844 5.38086 29.2285 5.13672 29.5215 5.13672C29.8242 5.13672 30.0488 5.37109 30.0488 5.67383L30.0488 8.69141C30.0488 8.98438 29.8145 9.20898 29.5215 9.20898ZM32.3047 9.20898C32.0117 9.20898 31.7578 8.98438 31.7578 8.69141L31.7578 5.67383C31.7578 5.37109 32.002 5.13672 32.3047 5.13672C32.5977 5.13672 32.8223 5.37109 32.8223 5.67383L32.8223 8.69141C32.8223 8.98438 32.5977 9.20898 32.3047 9.20898Z" fill="black" fill-opacity="0.85"/>
 </g>
</svg>
