<?xml version="1.0" encoding="UTF-8"?>
<!--Generator: Apple Native CoreSVG 326-->
<!DOCTYPE svg
PUBLIC "-//W3C//DTD SVG 1.1//EN"
       "http://www.w3.org/Graphics/SVG/1.1/DTD/svg11.dtd">
<svg version="1.1" xmlns="http://www.w3.org/2000/svg" xmlns:xlink="http://www.w3.org/1999/xlink" viewBox="0 0 23.3203 22.959">
 <g>
  <rect height="22.959" opacity="0" width="23.3203" x="0" y="0"/>
  <path d="M22.959 3.76953L22.959 19.1992C22.959 21.6797 21.6797 22.959 19.1504 22.959L3.79883 22.959C1.2793 22.959 0 21.6992 0 19.1992L0 3.76953C0 1.26953 1.2793 0 3.79883 0L19.1504 0C21.6797 0 22.959 1.2793 22.959 3.76953ZM6.43555 5.46875C5.76172 5.46875 5.2832 5.94727 5.2832 6.61133L5.2832 16.3281C5.2832 16.9922 5.76172 17.4805 6.43555 17.4805L16.5234 17.4805C17.1875 17.4805 17.6758 16.9922 17.6758 16.3281L17.6758 6.61133C17.6758 5.94727 17.1875 5.46875 16.5234 5.46875ZM9.98047 13.6426C9.98047 14.3457 9.41406 14.9121 8.71094 14.9121C7.99805 14.9121 7.43164 14.3457 7.43164 13.6426C7.43164 12.9395 7.99805 12.3633 8.71094 12.3633C9.41406 12.3633 9.98047 12.9395 9.98047 13.6426ZM15.5469 13.6426C15.5469 14.3457 14.9707 14.9121 14.2676 14.9121C13.5645 14.9121 12.998 14.3457 12.998 13.6426C12.998 12.9395 13.5645 12.3633 14.2676 12.3633C14.9707 12.3633 15.5469 12.9395 15.5469 13.6426ZM12.7637 9.29688C12.7637 10.0098 12.1973 10.5762 11.4844 10.5762C10.7812 10.5762 10.2148 10.0098 10.2148 9.29688C10.2148 8.59375 10.7812 8.02734 11.4844 8.02734C12.1973 8.02734 12.7637 8.59375 12.7637 9.29688Z" fill="black" fill-opacity="0.85"/>
 </g>
</svg>
