<?xml version="1.0" encoding="UTF-8"?>
<!--Generator: Apple Native CoreSVG 326-->
<!DOCTYPE svg
PUBLIC "-//W3C//DTD SVG 1.1//EN"
       "http://www.w3.org/Graphics/SVG/1.1/DTD/svg11.dtd">
<svg version="1.1" xmlns="http://www.w3.org/2000/svg" xmlns:xlink="http://www.w3.org/1999/xlink" viewBox="0 0 33.9819 17.373">
 <g>
  <rect height="17.373" opacity="0" width="33.9819" x="0" y="0"/>
  <path d="M28.2214 1.75781L32.7722 6.71875C33.905 7.91016 33.8953 9.35547 32.782 10.5566L28.2312 15.5859C27.2546 16.6309 26.1609 17.3535 24.7351 17.3535L8.8855 17.3535C7.45972 17.3535 6.36597 16.6309 5.38941 15.5859L0.828861 10.5566C-0.274654 9.35547-0.28442 7.91016 0.848393 6.71875L5.39917 1.75781C6.46363 0.644531 7.37183 0 8.8855 0L24.7351 0C26.2488 0 27.1472 0.644531 28.2214 1.75781ZM14.5691 10.9375C14.5691 12.1777 15.5847 13.1934 16.8152 13.1934C18.0554 13.1934 19.071 12.1777 19.071 10.9375C19.071 9.69727 18.0554 8.67188 16.8152 8.67188C15.5847 8.67188 14.5691 9.69727 14.5691 10.9375ZM5.89722 8.64258C5.89722 9.87305 6.91285 10.8984 8.15308 10.8984C9.38355 10.8984 10.4089 9.87305 10.4089 8.64258C10.4089 7.40234 9.38355 6.38672 8.15308 6.38672C6.91285 6.38672 5.89722 7.40234 5.89722 8.64258ZM23.2312 8.64258C23.2312 9.87305 24.2468 10.8984 25.4871 10.8984C26.7273 10.8984 27.7429 9.87305 27.7429 8.64258C27.7429 7.40234 26.7273 6.38672 25.4871 6.38672C24.2468 6.38672 23.2312 7.40234 23.2312 8.64258Z" fill="black" fill-opacity="0.85"/>
 </g>
</svg>
