<?xml version="1.0" encoding="UTF-8"?>
<!--Generator: Apple Native CoreSVG 326-->
<!DOCTYPE svg
PUBLIC "-//W3C//DTD SVG 1.1//EN"
       "http://www.w3.org/Graphics/SVG/1.1/DTD/svg11.dtd">
<svg version="1.1" xmlns="http://www.w3.org/2000/svg" xmlns:xlink="http://www.w3.org/1999/xlink" viewBox="0 0 23.3203 22.959">
 <g>
  <rect height="22.959" opacity="0" width="23.3203" x="0" y="0"/>
  <path d="M22.959 3.76953L22.959 19.1992C22.959 21.6797 21.6797 22.959 19.1504 22.959L3.79883 22.959C1.2793 22.959 0 21.6992 0 19.1992L0 3.76953C0 1.26953 1.2793 0 3.79883 0L19.1504 0C21.6797 0 22.959 1.2793 22.959 3.76953ZM6.43555 5.46875C5.76172 5.46875 5.2832 5.94727 5.2832 6.61133L5.2832 16.3281C5.2832 16.9922 5.76172 17.4805 6.43555 17.4805L16.5234 17.4805C17.1875 17.4805 17.6758 16.9922 17.6758 16.3281L17.6758 6.61133C17.6758 5.94727 17.1875 5.46875 16.5234 5.46875ZM9.98047 14.1895C9.98047 14.8926 9.41406 15.459 8.71094 15.459C7.99805 15.459 7.43164 14.8926 7.43164 14.1895C7.43164 13.4766 7.99805 12.9102 8.71094 12.9102C9.41406 12.9102 9.98047 13.4766 9.98047 14.1895ZM15.5469 14.1895C15.5469 14.8926 14.9707 15.459 14.2676 15.459C13.5645 15.459 12.998 14.8926 12.998 14.1895C12.998 13.4766 13.5645 12.9102 14.2676 12.9102C14.9707 12.9102 15.5469 13.4766 15.5469 14.1895ZM13.0371 9.01367C13.0371 9.86328 12.3438 10.5566 11.4844 10.5566C10.6348 10.5566 9.94141 9.86328 9.94141 9.01367C9.94141 8.1543 10.6348 7.4707 11.4844 7.4707C12.3438 7.4707 13.0371 8.1543 13.0371 9.01367Z" fill="black" fill-opacity="0.85"/>
 </g>
</svg>
