<?xml version="1.0" encoding="UTF-8"?>
<!--Generator: Apple Native CoreSVG 326-->
<!DOCTYPE svg
PUBLIC "-//W3C//DTD SVG 1.1//EN"
       "http://www.w3.org/Graphics/SVG/1.1/DTD/svg11.dtd">
<svg version="1.1" xmlns="http://www.w3.org/2000/svg" xmlns:xlink="http://www.w3.org/1999/xlink" viewBox="0 0 23.3203 22.959">
 <g>
  <rect height="22.959" opacity="0" width="23.3203" x="0" y="0"/>
  <path d="M22.959 3.76953L22.959 19.1992C22.959 21.6797 21.6797 22.959 19.1504 22.959L3.79883 22.959C1.2793 22.959 0 21.6992 0 19.1992L0 3.76953C0 1.26953 1.2793 0 3.79883 0L19.1504 0C21.6797 0 22.959 1.2793 22.959 3.76953ZM7.43164 5.6543C7.05078 5.6543 6.69922 5.76172 6.44531 5.99609C5.01953 7.32422 4.04297 9.35547 4.04297 11.4844C4.04297 13.6035 5.00977 15.6152 6.42578 16.9531C6.69922 17.207 7.05078 17.3242 7.43164 17.3242L15.5273 17.3242C15.8984 17.3242 16.2598 17.207 16.5332 16.9531C17.9492 15.6152 18.9062 13.6035 18.9062 11.4844C18.9062 9.375 17.9492 7.35352 16.5332 6.02539C16.2598 5.76172 15.8984 5.6543 15.5273 5.6543ZM9.04297 9.27734L9.04297 13.6914C9.04297 14.082 8.74023 14.375 8.35938 14.375C7.97852 14.375 7.68555 14.082 7.68555 13.6914L7.68555 9.27734C7.68555 8.89648 7.97852 8.59375 8.35938 8.59375C8.74023 8.59375 9.04297 8.89648 9.04297 9.27734ZM15.2832 9.27734L15.2832 13.6914C15.2832 14.082 14.9707 14.375 14.5996 14.375C14.2188 14.375 13.916 14.082 13.916 13.6914L13.916 9.27734C13.916 8.89648 14.2188 8.59375 14.5996 8.59375C14.9707 8.59375 15.2832 8.89648 15.2832 9.27734Z" fill="black" fill-opacity="0.85"/>
 </g>
</svg>
