<?xml version="1.0" encoding="UTF-8"?>
<!--Generator: Apple Native CoreSVG 326-->
<!DOCTYPE svg
PUBLIC "-//W3C//DTD SVG 1.1//EN"
       "http://www.w3.org/Graphics/SVG/1.1/DTD/svg11.dtd">
<svg version="1.1" xmlns="http://www.w3.org/2000/svg" xmlns:xlink="http://www.w3.org/1999/xlink" viewBox="0 0 13.877 27.0996">
 <g>
  <rect height="27.0996" opacity="0" width="13.877" x="0" y="0"/>
  <path d="M3.68164 27.0996L9.83398 27.0996C12.2168 27.0996 13.5156 25.8105 13.5156 23.457L13.5156 3.65234C13.5156 1.28906 12.2168 0.00976562 9.83398 0.00976562L3.68164 0.00976562C1.29883 0.00976562 0 1.28906 0 3.65234L0 23.457C0 25.8105 1.29883 27.0996 3.68164 27.0996ZM3.71094 25.3711C2.48047 25.3711 1.72852 24.6289 1.72852 23.3691L1.72852 3.74023C1.72852 2.48047 2.48047 1.73828 3.71094 1.73828L9.80469 1.73828C11.0254 1.73828 11.7871 2.48047 11.7871 3.74023L11.7871 23.3691C11.7871 24.6289 11.0254 25.3711 9.80469 25.3711Z" fill="black" fill-opacity="0.85"/>
  <path d="M6.76758 8.48633C7.77344 8.48633 8.59375 7.66602 8.59375 6.65039C8.59375 5.64453 7.77344 4.82422 6.76758 4.82422C5.75195 4.82422 4.93164 5.64453 4.93164 6.65039C4.93164 7.66602 5.75195 8.48633 6.76758 8.48633ZM6.76758 15.3809C7.77344 15.3809 8.59375 14.5508 8.59375 13.5449C8.59375 12.5391 7.77344 11.7188 6.76758 11.7188C5.75195 11.7188 4.93164 12.5391 4.93164 13.5449C4.93164 14.5508 5.75195 15.3809 6.76758 15.3809ZM6.76758 22.2656C7.77344 22.2656 8.59375 21.4453 8.59375 20.4297C8.59375 19.4336 7.77344 18.6035 6.76758 18.6035C5.75195 18.6035 4.93164 19.4336 4.93164 20.4297C4.93164 21.4453 5.75195 22.2656 6.76758 22.2656Z" fill="black" fill-opacity="0.85"/>
 </g>
</svg>
