<?xml version="1.0" ?><!-- Generator: Adobe Illustrator 25.0.0, SVG Export Plug-In . SVG Version: 6.00 Build 0)  --><svg xmlns="http://www.w3.org/2000/svg" xmlns:xlink="http://www.w3.org/1999/xlink" version="1.1" id="Layer_1" x="0px" y="0px" viewBox="0 0 512 512" style="enable-background:new 0 0 512 512;" xml:space="preserve">
<path d="M0,293.5c0,13.6,3.5,23.9,10.5,30.8c7,6.9,17.4,10.3,31.1,10.3h64.5c9.2,0,17.2,0.9,24,2.8c6.8,1.8,13.1,5,18.9,9.4  c5.8,4.4,11.5,10.6,17.3,18.6c15.1,20.3,33.6,35.6,55.5,46.1c21.9,10.4,44.8,15.7,68.7,15.7h68.9c6.8,0,12.1-2,16.1-5.9  c4-3.9,6-9.2,6-15.8V106.1c0-6.5-2-11.7-6-15.5c-4-3.8-9.4-5.7-16.1-5.7h-68.9c-24,0-46.9,5.2-68.8,15.6  c-21.9,10.4-40.4,25.8-55.4,46.2c-5.8,8-11.5,14.2-17.3,18.7c-5.8,4.5-12.1,7.6-18.9,9.5c-6.8,1.8-14.8,2.8-24,2.8H41.6  c-13.8,0-24.1,3.4-31.1,10.2c-7,6.8-10.5,17-10.5,30.7V293.5z M374.6,214.6h107.6c5.4,0,10.4-1.4,14.9-4.1  c4.5-2.7,8.2-6.3,10.9-10.8c2.7-4.5,4.1-9.5,4.1-15c0-5.5-1.4-10.5-4.1-15c-2.7-4.5-6.3-8.1-10.9-10.8c-4.5-2.7-9.5-4.1-14.9-4.1  H374.6V214.6z M374.6,357.1h107.6c5.4,0,10.4-1.4,14.9-4.1c4.5-2.7,8.2-6.3,10.9-10.8c2.7-4.5,4.1-9.5,4.1-15  c0-5.4-1.4-10.4-4.1-14.9c-2.7-4.5-6.3-8.2-10.9-10.9c-4.5-2.7-9.5-4.1-14.9-4.1H374.6V357.1z"/>
</svg>