<?xml version="1.0" encoding="UTF-8"?>
<!--Generator: Apple Native CoreSVG 326-->
<!DOCTYPE svg
PUBLIC "-//W3C//DTD SVG 1.1//EN"
       "http://www.w3.org/Graphics/SVG/1.1/DTD/svg11.dtd">
<svg version="1.1" xmlns="http://www.w3.org/2000/svg" xmlns:xlink="http://www.w3.org/1999/xlink" viewBox="0 0 23.3203 22.959">
 <g>
  <rect height="22.959" opacity="0" width="23.3203" x="0" y="0"/>
  <path d="M3.79883 22.959L19.1504 22.959C21.6797 22.959 22.959 21.6797 22.959 19.1992L22.959 3.76953C22.959 1.2793 21.6797 0 19.1504 0L3.79883 0C1.2793 0 0 1.26953 0 3.76953L0 19.1992C0 21.6992 1.2793 22.959 3.79883 22.959ZM3.83789 21.2305C2.4707 21.2305 1.72852 20.5078 1.72852 19.1016L1.72852 3.85742C1.72852 2.46094 2.4707 1.72852 3.83789 1.72852L19.1211 1.72852C20.459 1.72852 21.2305 2.46094 21.2305 3.85742L21.2305 19.1016C21.2305 20.5078 20.459 21.2305 19.1211 21.2305Z" fill="black" fill-opacity="0.85"/>
  <path d="M11.4746 18.0273C15.1172 18.0273 18.0371 15.1074 18.0371 11.4746C18.0371 7.83203 15.1172 4.91211 11.4746 4.91211C7.8418 4.91211 4.92188 7.83203 4.92188 11.4746C4.92188 15.1074 7.8418 18.0273 11.4746 18.0273ZM8.37891 12.8809C7.59766 12.8809 6.96289 12.2461 6.96289 11.4746C6.96289 10.6934 7.59766 10.0586 8.37891 10.0586C9.16016 10.0586 9.79492 10.6934 9.79492 11.4746C9.79492 12.2461 9.16016 12.8809 8.37891 12.8809ZM14.5801 12.8809C13.7988 12.8809 13.1641 12.2461 13.1641 11.4746C13.1641 10.6934 13.7988 10.0586 14.5801 10.0586C15.3613 10.0586 15.9961 10.6934 15.9961 11.4746C15.9961 12.2461 15.3613 12.8809 14.5801 12.8809ZM11.4746 16.3281C10.752 16.3281 10.2148 15.8008 10.2148 15.0781L10.2148 14.502C10.2148 14.2871 10.3223 14.1797 10.5469 14.1797L12.4121 14.1797C12.627 14.1797 12.7344 14.2871 12.7344 14.502L12.7344 15.0781C12.7344 15.8008 12.1875 16.3281 11.4746 16.3281Z" fill="black" fill-opacity="0.85"/>
 </g>
</svg>
