<?xml version="1.0" ?><!-- Generator: Adobe Illustrator 25.0.0, SVG Export Plug-In . SVG Version: 6.00 Build 0)  --><svg xmlns="http://www.w3.org/2000/svg" xmlns:xlink="http://www.w3.org/1999/xlink" version="1.1" id="Layer_1" x="0px" y="0px" viewBox="0 0 512 512" style="enable-background:new 0 0 512 512;" xml:space="preserve">
<path d="M256,512c35,0,67.9-6.7,98.8-20.1c30.9-13.4,58.1-31.9,81.7-55.5c23.6-23.6,42.1-50.8,55.5-81.7  C505.3,323.9,512,291,512,256s-6.7-67.9-20.1-98.8c-13.4-30.9-31.9-58.1-55.5-81.7c-23.6-23.6-50.9-42.1-81.8-55.5  C323.7,6.7,290.7,0,255.7,0S187.9,6.7,157,20.1C126.1,33.5,98.9,52,75.4,75.5c-23.5,23.6-42,50.8-55.3,81.7C6.7,188.1,0,221,0,256  s6.7,67.9,20.1,98.8c13.4,30.9,31.9,58.1,55.5,81.7c23.6,23.6,50.8,42.1,81.7,55.5C188.1,505.3,221,512,256,512z" class="multicolor-0:tintColor hierarchical-0:tertiary SFSymbolsPreview007AFF" style="fill: #007AFF;"/>
<path d="M256.3,391.5c-18.6,0-36.1-3.6-52.5-10.7c-16.4-7.1-30.8-16.9-43.3-29.5c-12.5-12.5-22.3-27-29.4-43.3  c-7.1-16.3-10.7-33.7-10.7-52.1c0-18.7,3.9-36.9,11.7-54.5c7.8-17.6,18.7-32.5,32.8-44.9c4.5-4.2,9.1-6.1,13.7-5.6  c4.6,0.4,8.5,2.3,11.7,5.8c3.2,3.4,4.9,7.5,5,12.2c0.2,4.7-2,9.1-6.5,13.3c-10.4,9.5-18.3,20.7-23.8,33.4  c-5.5,12.7-8.3,26.2-8.3,40.4c0,18.6,4.4,35.4,13.3,50.4c8.9,15.1,20.8,27.1,35.9,36c15.1,9,31.9,13.4,50.4,13.4  c18.4,0,35.2-4.5,50.3-13.4c15.1-9,27.2-21,36.1-36c9-15.1,13.4-31.9,13.4-50.4c-0.2-14.2-3.1-27.6-8.8-40.3  c-5.7-12.6-13.6-23.7-23.8-33.3c-4.5-4.2-6.7-8.6-6.5-13.3c0.2-4.7,1.8-8.7,5-12.2c3.2-3.4,7.1-5.4,11.8-5.9  c4.7-0.5,9.2,1.3,13.6,5.5c14.1,12.5,25,27.6,32.9,45.2c7.9,17.6,11.8,35.6,11.8,54.2c0,18.4-3.6,35.8-10.7,52.1  c-7.1,16.3-16.9,30.7-29.5,43.3c-12.5,12.5-27,22.4-43.4,29.5C292.1,388,274.7,391.5,256.3,391.5z M256.3,261.8  c-5,0-9.2-1.6-12.4-4.9c-3.3-3.3-4.9-7.5-4.9-12.7V131c0-5.2,1.6-9.5,4.9-12.8c3.3-3.3,7.4-5,12.4-5c5,0,9.1,1.7,12.3,5  c3.2,3.3,4.8,7.6,4.8,12.8v113.2c0,5.2-1.6,9.4-4.8,12.7C265.4,260.1,261.3,261.8,256.3,261.8z" class="multicolor-1:white hierarchical-1:primary SFSymbolsPreviewFFFFFF" style="fill: #FFFFFF;"/>
</svg>