<?xml version="1.0" encoding="UTF-8"?>
<!--Generator: Apple Native CoreSVG 326-->
<!DOCTYPE svg
PUBLIC "-//W3C//DTD SVG 1.1//EN"
       "http://www.w3.org/Graphics/SVG/1.1/DTD/svg11.dtd">
<svg version="1.1" xmlns="http://www.w3.org/2000/svg" xmlns:xlink="http://www.w3.org/1999/xlink" viewBox="0 0 30.3516 21.1035">
 <g>
  <rect height="21.1035" opacity="0" width="30.3516" x="0" y="0"/>
  <path d="M21.3574 13.5352L24.1016 13.5352C24.7168 13.5352 25.127 13.1445 25.127 12.5488L25.127 0.966797C25.127 0.390625 24.7168 0 24.1016 0L21.3574 0C19.4141 0 17.7539 0.761719 16.3574 2.42188C15.7617 3.0957 15.5371 3.26172 14.7266 3.26172L11.9434 3.26172C10.8594 3.26172 10.0977 3.96484 10.0977 4.98047L10.0977 8.55469C10.0977 9.57031 10.8594 10.2832 11.9434 10.2832L14.7266 10.2832C15.5371 10.2832 15.7617 10.459 16.3574 11.1133C17.7637 12.7832 19.4336 13.5352 21.3574 13.5352ZM21.3574 11.9043C19.834 11.9043 18.7598 11.4062 17.6172 10.0879C16.7676 9.0918 16.0449 8.65234 14.7266 8.65234L12.2461 8.65234C11.9336 8.65234 11.7285 8.45703 11.7285 8.16406L11.7285 5.3125C11.7285 5.04883 11.8945 4.89258 12.1875 4.89258L14.7266 4.89258C16.0352 4.89258 16.7676 4.46289 17.627 3.4375C18.7598 2.12891 19.8242 1.63086 21.3574 1.63086L23.0371 1.63086C23.3301 1.63086 23.4961 1.77734 23.4961 2.03125L23.4961 11.4844C23.4961 11.748 23.3301 11.9043 23.0371 11.9043ZM24.7559 5.22461L28.8965 5.22461C29.502 5.22461 29.9902 4.74609 29.9902 4.13086C29.9902 3.51562 29.502 3.02734 28.8965 3.02734L24.7559 3.02734ZM24.7559 10.5078L28.8965 10.5078C29.502 10.5078 29.9902 10.0195 29.9902 9.41406C29.9902 8.79883 29.502 8.31055 28.8965 8.31055L24.7559 8.31055ZM0 21.084L10.2148 21.084C13.0176 21.084 14.8633 19.3848 14.8633 16.8848C14.8633 14.3848 13.0176 12.627 10.2148 12.627L4.55078 12.627C2.80273 12.627 1.72852 11.582 1.72852 10.0977C1.72852 8.62305 2.83203 7.62695 4.55078 7.62695L10.918 7.62695L10.918 5.89844L4.6582 5.89844C1.8457 5.89844 0 7.60742 0 10.0977C0 12.5977 1.8457 14.3555 4.6582 14.3555L10.3125 14.3555C12.0605 14.3555 13.1348 15.4004 13.1348 16.8848C13.1348 18.3594 12.0312 19.3555 10.3125 19.3555L0 19.3555Z" fill="black" fill-opacity="0.85"/>
 </g>
</svg>
