<?xml version="1.0" encoding="UTF-8"?>
<!--Generator: Apple Native CoreSVG 326-->
<!DOCTYPE svg
PUBLIC "-//W3C//DTD SVG 1.1//EN"
       "http://www.w3.org/Graphics/SVG/1.1/DTD/svg11.dtd">
<svg version="1.1" xmlns="http://www.w3.org/2000/svg" xmlns:xlink="http://www.w3.org/1999/xlink" viewBox="0 0 48.8867 15.8691">
 <g>
  <rect height="15.8691" opacity="0" width="48.8867" x="0" y="0"/>
  <path d="M38.1958 2.89063L39.4238 2.89062C40.332 2.89062 40.957 3.51562 40.957 4.42383L40.957 6.28906L48.5254 6.28906L48.5254 8.01758L40.957 8.01758L40.957 9.72656C40.957 10.6348 40.332 11.2598 39.4238 11.2598L38.1971 11.2598C37.9545 12.9952 36.6282 14.1504 34.7559 14.1504L3.48633 14.1504C1.41602 14.1504 0 12.7441 0 10.6641L0 3.49609C0 1.41602 1.41602 0 3.48633 0L34.7559 0C36.6248 0 37.9497 1.15886 38.1958 2.89063ZM8.11523 7.08008C8.11523 9.27734 9.88281 11.0254 12.0605 11.0254C14.248 11.0254 16.0156 9.27734 16.0156 7.08008C16.0156 4.91211 14.248 3.125 12.0605 3.125C9.88281 3.125 8.11523 4.91211 8.11523 7.08008ZM17.6367 7.08008C17.6367 9.27734 19.4043 11.0254 21.582 11.0254C23.7695 11.0254 25.5371 9.27734 25.5371 7.08008C25.5371 4.91211 23.7695 3.125 21.582 3.125C19.4043 3.125 17.6367 4.91211 17.6367 7.08008ZM27.1582 7.08008C27.1582 9.27734 28.9062 11.0254 31.0938 11.0254C33.2812 11.0254 35.0488 9.27734 35.0488 7.08008C35.0488 4.91211 33.2812 3.125 31.0938 3.125C28.9062 3.125 27.1582 4.91211 27.1582 7.08008ZM4.33594 4.15039C3.96484 4.15039 3.7207 4.375 3.7207 4.74609L3.7207 9.39453C3.7207 9.74609 3.96484 9.99023 4.33594 9.99023L5.25391 9.99023C5.5957 9.99023 5.83984 9.74609 5.83984 9.39453L5.83984 4.74609C5.83984 4.375 5.5957 4.15039 5.25391 4.15039ZM11.1719 5.53711L11.1719 8.63281C11.1719 8.92578 10.9375 9.16992 10.6348 9.16992C10.3418 9.16992 10.0781 8.91602 10.0781 8.63281L10.0781 5.53711C10.0781 5.24414 10.3418 4.98047 10.6348 4.98047C10.9375 4.98047 11.1719 5.23438 11.1719 5.53711ZM14.0234 5.53711L14.0234 8.63281C14.0234 8.92578 13.7891 9.16992 13.4961 9.16992C13.1934 9.16992 12.9297 8.92578 12.9297 8.63281L12.9297 5.53711C12.9297 5.23438 13.1836 4.98047 13.4961 4.98047C13.7891 4.98047 14.0234 5.23438 14.0234 5.53711ZM20.6934 5.53711L20.6934 8.63281C20.6934 8.92578 20.4688 9.16992 20.1562 9.16992C19.8535 9.16992 19.5996 8.92578 19.5996 8.63281L19.5996 5.53711C19.5996 5.24414 19.8535 4.98047 20.1562 4.98047C20.4688 4.98047 20.6934 5.23438 20.6934 5.53711ZM23.5449 5.53711L23.5449 8.63281C23.5449 8.92578 23.3105 9.16992 23.0078 9.16992C22.7051 9.16992 22.4609 8.92578 22.4609 8.63281L22.4609 5.53711C22.4609 5.23438 22.7051 4.98047 23.0078 4.98047C23.3203 4.98047 23.5449 5.23438 23.5449 5.53711ZM30.2148 5.53711L30.2148 8.63281C30.2148 8.92578 29.9707 9.16992 29.668 9.16992C29.3652 9.16992 29.1211 8.92578 29.1211 8.63281L29.1211 5.53711C29.1211 5.24414 29.3652 4.98047 29.668 4.98047C29.9805 4.98047 30.2148 5.23438 30.2148 5.53711ZM33.0566 5.53711L33.0566 8.63281C33.0566 8.92578 32.8223 9.16992 32.5293 9.16992C32.2266 9.16992 31.9629 8.92578 31.9629 8.63281L31.9629 5.53711C31.9629 5.23438 32.2168 4.98047 32.5293 4.98047C32.8223 4.98047 33.0566 5.23438 33.0566 5.53711Z" fill="black" fill-opacity="0.85"/>
 </g>
</svg>
