<?xml version="1.0" encoding="UTF-8"?>
<!--Generator: Apple Native CoreSVG 326-->
<!DOCTYPE svg
PUBLIC "-//W3C//DTD SVG 1.1//EN"
       "http://www.w3.org/Graphics/SVG/1.1/DTD/svg11.dtd">
<svg version="1.1" xmlns="http://www.w3.org/2000/svg" xmlns:xlink="http://www.w3.org/1999/xlink" viewBox="0 0 23.3203 22.959">
 <g>
  <rect height="22.959" opacity="0" width="23.3203" x="0" y="0"/>
  <path d="M22.959 3.76953L22.959 19.1992C22.959 21.6797 21.6797 22.959 19.1504 22.959L3.79883 22.959C1.2793 22.959 0 21.6992 0 19.1992L0 3.76953C0 1.26953 1.2793 0 3.79883 0L19.1504 0C21.6797 0 22.959 1.2793 22.959 3.76953ZM4.75586 11.4746C4.75586 15.1953 7.75391 18.1934 11.4746 18.1934C15.2051 18.1934 18.2031 15.1953 18.2031 11.4746C18.2031 7.74414 15.2051 4.74609 11.4746 4.74609C7.75391 4.74609 4.75586 7.74414 4.75586 11.4746ZM9.58984 11.4941C9.58984 12.2852 8.93555 12.9492 8.14453 12.9492C7.34375 12.9492 6.68945 12.2852 6.68945 11.4941C6.68945 10.6934 7.34375 10.0391 8.14453 10.0391C8.93555 10.0391 9.58984 10.6934 9.58984 11.4941ZM16.2695 11.4746C16.2695 12.2656 15.6152 12.9199 14.8145 12.9199C14.0137 12.9199 13.3594 12.2656 13.3594 11.4746C13.3594 10.6738 14.0137 10.0195 14.8145 10.0195C15.6152 10.0195 16.2695 10.6738 16.2695 11.4746ZM12.4316 8.07617C12.4316 8.60352 12.0117 9.0332 11.4746 9.0332C10.9473 9.0332 10.5273 8.60352 10.5273 8.07617C10.5273 7.54883 10.9473 7.12891 11.4746 7.12891C12.0117 7.12891 12.4316 7.54883 12.4316 8.07617Z" fill="black" fill-opacity="0.85"/>
 </g>
</svg>
