<?xml version="1.0" encoding="UTF-8"?>
<!--Generator: Apple Native CoreSVG 326-->
<!DOCTYPE svg
PUBLIC "-//W3C//DTD SVG 1.1//EN"
       "http://www.w3.org/Graphics/SVG/1.1/DTD/svg11.dtd">
<svg version="1.1" xmlns="http://www.w3.org/2000/svg" xmlns:xlink="http://www.w3.org/1999/xlink" viewBox="0 0 23.3203 22.959">
 <g>
  <rect height="22.959" opacity="0" width="23.3203" x="0" y="0"/>
  <path d="M3.79883 22.959L19.1504 22.959C21.6797 22.959 22.959 21.6797 22.959 19.1992L22.959 3.76953C22.959 1.2793 21.6797 0 19.1504 0L3.79883 0C1.2793 0 0 1.26953 0 3.76953L0 19.1992C0 21.6992 1.2793 22.959 3.79883 22.959ZM3.83789 21.2305C2.4707 21.2305 1.72852 20.5078 1.72852 19.1016L1.72852 3.85742C1.72852 2.46094 2.4707 1.72852 3.83789 1.72852L19.1211 1.72852C20.459 1.72852 21.2305 2.46094 21.2305 3.85742L21.2305 19.1016C21.2305 20.5078 20.459 21.2305 19.1211 21.2305Z" fill="black" fill-opacity="0.85"/>
  <path d="M9.30664 18.6621L13.6426 18.6621C14.3066 18.6621 14.7656 18.2031 14.7656 17.5488L14.7656 5.41016C14.7656 4.76562 14.3066 4.30664 13.6426 4.30664L9.30664 4.30664C8.65234 4.30664 8.19336 4.76562 8.19336 5.41016L8.19336 17.5488C8.19336 18.2031 8.65234 18.6621 9.30664 18.6621ZM11.4746 8.66211C10.791 8.66211 10.2344 8.10547 10.2344 7.41211C10.2344 6.72852 10.791 6.18164 11.4746 6.18164C12.168 6.18164 12.7246 6.72852 12.7246 7.41211C12.7246 8.10547 12.168 8.66211 11.4746 8.66211ZM11.4746 12.7148C10.791 12.7148 10.2344 12.1582 10.2344 11.4746C10.2344 10.7812 10.791 10.2246 11.4746 10.2246C12.168 10.2246 12.7246 10.7812 12.7246 11.4746C12.7246 12.1582 12.168 12.7148 11.4746 12.7148ZM11.4746 16.7676C10.791 16.7676 10.2344 16.2109 10.2344 15.5273C10.2344 14.834 10.791 14.2871 11.4746 14.2871C12.168 14.2871 12.7246 14.834 12.7246 15.5273C12.7246 16.2109 12.168 16.7676 11.4746 16.7676Z" fill="black" fill-opacity="0.85"/>
 </g>
</svg>
