<?xml version="1.0" ?><!-- Generator: Adobe Illustrator 25.0.0, SVG Export Plug-In . SVG Version: 6.00 Build 0)  --><svg xmlns="http://www.w3.org/2000/svg" xmlns:xlink="http://www.w3.org/1999/xlink" version="1.1" id="Layer_1" x="0px" y="0px" viewBox="0 0 512 512" style="enable-background:new 0 0 512 512;" xml:space="preserve">
<path d="M256,260.6c11.7,0,19.8-8.5,19.8-20.7V20.7C275.8,8.3,267.7,0,256,0c-11.7,0-19.5,8.3-19.5,20.7v219.1  C236.5,252.1,244.3,260.6,256,260.6z M256,512c136.2,0,248.9-113,248.9-248.9c0-74.9-34.2-139.8-81-182.5  c-21.5-19.5-49.1,9.5-27.8,29.8c41.5,37.8,67.1,92,67.4,152.8c0.2,115.2-92.2,207.4-207.4,207.4S48.8,378.3,48.8,263.1  c0.2-61.3,25.9-115.2,67.1-153c21.5-20.5-6.3-49.3-27.8-29.8C41,123,7.1,188.2,7.1,263.1C7.1,399,120.1,512,256,512z"/>
</svg>