<?xml version="1.0" encoding="UTF-8"?>
<!--Generator: Apple Native CoreSVG 326-->
<!DOCTYPE svg
PUBLIC "-//W3C//DTD SVG 1.1//EN"
       "http://www.w3.org/Graphics/SVG/1.1/DTD/svg11.dtd">
<svg version="1.1" xmlns="http://www.w3.org/2000/svg" xmlns:xlink="http://www.w3.org/1999/xlink" viewBox="0 0 23.3203 22.959">
 <g>
  <rect height="22.959" opacity="0" width="23.3203" x="0" y="0"/>
  <path d="M3.79883 22.959L19.1504 22.959C21.6797 22.959 22.959 21.6797 22.959 19.1992L22.959 3.76953C22.959 1.2793 21.6797 0 19.1504 0L3.79883 0C1.2793 0 0 1.26953 0 3.76953L0 19.1992C0 21.6992 1.2793 22.959 3.79883 22.959ZM3.83789 21.2305C2.4707 21.2305 1.72852 20.5078 1.72852 19.1016L1.72852 3.85742C1.72852 2.46094 2.4707 1.72852 3.83789 1.72852L19.1211 1.72852C20.459 1.72852 21.2305 2.46094 21.2305 3.85742L21.2305 19.1016C21.2305 20.5078 20.459 21.2305 19.1211 21.2305Z" fill="black" fill-opacity="0.85"/>
  <path d="M11.4746 18.0273C15.1172 18.0273 18.0371 15.1074 18.0371 11.4746C18.0371 7.83203 15.1172 4.91211 11.4746 4.91211C7.8418 4.91211 4.92188 7.83203 4.92188 11.4746C4.92188 15.1074 7.8418 18.0273 11.4746 18.0273ZM11.4746 9.10156C10.957 9.10156 10.5566 8.69141 10.5566 8.17383C10.5566 7.65625 10.957 7.24609 11.4746 7.24609C12.002 7.24609 12.4121 7.65625 12.4121 8.17383C12.4121 8.69141 12.002 9.10156 11.4746 9.10156ZM8.23242 12.9004C7.45117 12.9004 6.80664 12.2656 6.80664 11.4941C6.80664 10.7129 7.45117 10.0781 8.23242 10.0781C8.99414 10.0781 9.63867 10.7129 9.63867 11.4941C9.63867 12.2656 8.99414 12.9004 8.23242 12.9004ZM14.7363 12.8809C13.9551 12.8809 13.3105 12.2461 13.3105 11.4746C13.3105 10.6934 13.9551 10.0586 14.7363 10.0586C15.5078 10.0586 16.1523 10.6934 16.1523 11.4746C16.1523 12.2461 15.5078 12.8809 14.7363 12.8809Z" fill="black" fill-opacity="0.85"/>
 </g>
</svg>
