<?xml version="1.0" encoding="UTF-8"?>
<!--Generator: Apple Native CoreSVG 326-->
<!DOCTYPE svg
PUBLIC "-//W3C//DTD SVG 1.1//EN"
       "http://www.w3.org/Graphics/SVG/1.1/DTD/svg11.dtd">
<svg version="1.1" xmlns="http://www.w3.org/2000/svg" xmlns:xlink="http://www.w3.org/1999/xlink" viewBox="0 0 31.4453 30.3027">
 <g>
  <rect height="30.3027" opacity="0" width="31.4453" x="0" y="0"/>
  <path d="M24.5801 4.57031L24.5801 4.95117L6.51367 4.95117L6.51367 4.57031C6.51367 2.70508 7.90039 1.86523 9.83398 1.86523L21.2598 1.86523C23.2715 1.86523 24.5801 2.70508 24.5801 4.57031Z" fill="black" fill-opacity="0.85"/>
  <path d="M29.5215 10.0488L29.5215 20.5859C29.5215 22.9395 28.291 24.1211 25.9375 24.1211L25.3516 24.1211L25.3516 16.8262C25.3516 15.1953 24.1211 13.9746 22.4902 13.9746L8.60352 13.9746C6.96289 13.9746 5.74219 15.1953 5.74219 16.8262L5.74219 24.1211L5.14648 24.1211C2.79297 24.1211 1.5625 22.9395 1.5625 20.5859L1.5625 10.0488C1.5625 7.68555 2.89062 6.50391 5.14648 6.50391L25.9375 6.50391C28.291 6.50391 29.5215 7.68555 29.5215 10.0488ZM21.582 10.5078C21.582 11.3867 22.2949 12.0801 23.1641 12.0801C24.0137 12.0801 24.7363 11.3672 24.7363 10.5078C24.7363 9.6582 24.0137 8.93555 23.1641 8.93555C22.2949 8.93555 21.582 9.6582 21.582 10.5078Z" fill="black" fill-opacity="0.85"/>
  <path d="M7.30469 27.041C7.30469 28.0664 7.97852 28.7402 9.00391 28.7402L22.0898 28.7402C23.1055 28.7402 23.7891 28.0664 23.7891 27.041L23.7891 16.8262C23.7891 16.0449 23.2715 15.5273 22.4902 15.5273L8.60352 15.5273C7.82227 15.5273 7.30469 16.0449 7.30469 16.8262ZM11.5723 26.8359C10.9766 26.8359 10.4785 26.3574 10.4785 25.7422C10.4785 25.127 10.9766 24.6484 11.5723 24.6484C12.1875 24.6484 12.6855 25.127 12.6855 25.7422C12.6855 26.3574 12.1875 26.8359 11.5723 26.8359ZM11.5723 23.2324C10.9766 23.2324 10.4785 22.7539 10.4785 22.1387C10.4785 21.5234 10.9766 21.0449 11.5723 21.0449C12.1875 21.0449 12.6855 21.5234 12.6855 22.1387C12.6855 22.7539 12.1875 23.2324 11.5723 23.2324ZM11.5723 19.6191C10.9766 19.6191 10.4785 19.1406 10.4785 18.5254C10.4785 17.9102 10.9766 17.4316 11.5723 17.4316C12.1875 17.4316 12.6855 17.9102 12.6855 18.5254C12.6855 19.1406 12.1875 19.6191 11.5723 19.6191ZM19.5215 26.8359C18.9258 26.8359 18.4277 26.3574 18.4277 25.7422C18.4277 25.127 18.9258 24.6484 19.5215 24.6484C20.1367 24.6484 20.6348 25.127 20.6348 25.7422C20.6348 26.3574 20.1367 26.8359 19.5215 26.8359ZM19.5215 23.2324C18.9258 23.2324 18.4277 22.7539 18.4277 22.1387C18.4277 21.5234 18.9258 21.0449 19.5215 21.0449C20.1367 21.0449 20.6348 21.5234 20.6348 22.1387C20.6348 22.7539 20.1367 23.2324 19.5215 23.2324ZM19.5215 19.6191C18.9258 19.6191 18.4277 19.1406 18.4277 18.5254C18.4277 17.9102 18.9258 17.4316 19.5215 17.4316C20.1367 17.4316 20.6348 17.9102 20.6348 18.5254C20.6348 19.1406 20.1367 19.6191 19.5215 19.6191Z" fill="black" fill-opacity="0.85"/>
 </g>
</svg>
