<?xml version="1.0" ?><!-- Generator: Adobe Illustrator 25.0.0, SVG Export Plug-In . SVG Version: 6.00 Build 0)  --><svg xmlns="http://www.w3.org/2000/svg" xmlns:xlink="http://www.w3.org/1999/xlink" version="1.1" id="Layer_1" x="0px" y="0px" viewBox="0 0 512 512" style="enable-background:new 0 0 512 512;" xml:space="preserve">
<path d="M127.1,500.6h257.7c14.4,0,25.3-3.5,32.6-10.4c7.3-6.9,10.9-17.9,10.9-32.9v-43.7h15.7c22.2,0,39-5.6,50.6-16.7  c11.5-11.2,17.3-27.8,17.3-50V161.3c0-22.2-5.8-38.9-17.3-50.1c-11.5-11.2-28.4-16.9-50.6-16.9H67.7c-21,0-37.5,5.6-49.6,16.9  C6,122.4,0,139.1,0,161.3v185.5c0,22.2,5.8,38.9,17.3,50c11.5,11.2,28.3,16.7,50.4,16.7h16v43.7c0,15,3.6,26,10.9,32.9  C101.9,497.2,112.7,500.6,127.1,500.6z M138.5,466.4c-6.1,0-10.6-1.5-13.7-4.4c-3-3-4.6-7.6-4.6-13.8V278.9c0-6.1,1.5-10.6,4.6-13.6  c3-3,7.6-4.4,13.7-4.4h235.2c6.1,0,10.6,1.5,13.6,4.4c3,3,4.4,7.5,4.4,13.6v169.3c0,6.2-1.5,10.8-4.4,13.8c-3,3-7.5,4.4-13.6,4.4  H138.5z M90.2,64h331.5v-3.9c0-11.2-2.7-20.5-8.1-27.7c-5.4-7.2-12.8-12.5-22.3-16c-9.5-3.4-20.4-5.1-32.7-5.1H153.3  c-11.7,0-22.3,1.7-31.9,5.1c-9.6,3.4-17.2,8.7-22.8,16c-5.6,7.2-8.4,16.4-8.4,27.7V64z M177,338.6h158.4c4.1,0,7.5-1.4,10.1-4.1  c2.7-2.7,4-6.2,4-10.3c0-3.8-1.3-7-4-9.7c-2.7-2.7-6-4-10.1-4H177c-4.3,0-7.7,1.3-10.4,4c-2.7,2.7-4,5.9-4,9.7c0,4.1,1.3,7.5,4,10.3  C169.3,337.2,172.8,338.6,177,338.6z M177,418.1h158.4c4.1,0,7.5-1.3,10.1-4c2.7-2.7,4-6,4-9.9c0-3.9-1.3-7.3-4-10  c-2.7-2.7-6-4.1-10.1-4.1H177c-4.3,0-7.7,1.4-10.4,4.1c-2.7,2.7-4,6.1-4,10c0,3.9,1.3,7.3,4,9.9C169.3,416.8,172.8,418.1,177,418.1z   M366.9,169.5c0-7.7,2.9-14.5,8.8-20.4c5.8-5.8,12.8-8.8,20.8-8.8c7.7,0,14.5,2.9,20.4,8.8c5.8,5.8,8.8,12.6,8.8,20.4  c0,8.2-2.9,15.1-8.8,20.7c-5.8,5.6-12.6,8.4-20.4,8.4c-8.1,0.2-15-2.6-20.8-8.3C369.8,184.7,366.9,177.7,366.9,169.5z"/>
</svg>