<?xml version="1.0" encoding="UTF-8"?>
<!--Generator: Apple Native CoreSVG 326-->
<!DOCTYPE svg
PUBLIC "-//W3C//DTD SVG 1.1//EN"
       "http://www.w3.org/Graphics/SVG/1.1/DTD/svg11.dtd">
<svg version="1.1" xmlns="http://www.w3.org/2000/svg" xmlns:xlink="http://www.w3.org/1999/xlink" viewBox="0 0 28.457 27.1777">
 <g>
  <rect height="27.1777" opacity="0" width="28.457" x="0" y="0"/>
  <path d="M23.1445 3.66211L23.1445 4.51172L21.4551 4.51172L21.4551 3.55469C21.4551 2.41211 20.9277 1.88477 19.7852 1.88477L8.31055 1.88477C7.16797 1.88477 6.64062 2.41211 6.64062 3.55469L6.64063 4.51172L4.95117 4.51172L4.95117 3.66211C4.95117 1.33789 6.19141 0.302734 8.33008 0.302734L19.7656 0.302734C22.002 0.302734 23.1445 1.33789 23.1445 3.66211Z" fill="black" fill-opacity="0.85"/>
  <path d="M28.0957 8.05664L28.0957 19.873C28.0957 22.2266 26.8652 23.418 24.502 23.418L23.0762 23.418L23.0762 21.7871L24.5215 21.7871C25.752 21.7871 26.3477 21.1719 26.3477 19.9512L26.3477 7.97852C26.3477 6.75781 25.752 6.15234 24.5215 6.15234L3.57422 6.15234C2.34375 6.15234 1.73828 6.75781 1.73828 7.97852L1.73828 19.9512C1.73828 21.1719 2.34375 21.7871 3.57422 21.7871L5.01953 21.7871L5.01953 23.418L3.59375 23.418C1.23047 23.418 0 22.2266 0 19.873L0 8.05664C0 5.70312 1.33789 4.51172 3.59375 4.51172L24.502 4.51172C26.8652 4.51172 28.0957 5.70312 28.0957 8.05664ZM23.1445 9.20898C23.1445 10.0488 22.4512 10.7422 21.6211 10.7422C20.7715 10.7422 20.0781 10.0684 20.0781 9.20898C20.0781 8.37891 20.7715 7.67578 21.6211 7.67578C22.4512 7.67578 23.1445 8.37891 23.1445 9.20898Z" fill="black" fill-opacity="0.85"/>
  <path d="M7.49023 27.1777L20.6055 27.1777C22.2559 27.1777 23.0762 26.4258 23.0762 24.7168L23.0762 14.6191C23.0762 12.9102 22.2559 12.1582 20.6055 12.1582L7.49023 12.1582C5.89844 12.1582 5.01953 12.9102 5.01953 14.6191L5.01953 24.7168C5.01953 26.4258 5.83984 27.1777 7.49023 27.1777ZM7.98828 25.5469C7.13867 25.5469 6.76758 25.1758 6.76758 24.3164L6.76758 15C6.76758 14.1602 7.13867 13.7891 7.98828 13.7891L20.1172 13.7891C20.9668 13.7891 21.3281 14.1602 21.3281 15L21.3281 24.3164C21.3281 25.1758 20.9668 25.5469 20.1172 25.5469ZM9.48242 18.1348L18.6328 18.1348C19.0234 18.1348 19.3164 17.832 19.3164 17.4512C19.3164 17.0801 19.0234 16.7871 18.6328 16.7871L9.48242 16.7871C9.08203 16.7871 8.78906 17.0801 8.78906 17.4512C8.78906 17.832 9.08203 18.1348 9.48242 18.1348ZM9.48242 22.5488L18.6328 22.5488C19.0234 22.5488 19.3164 22.2559 19.3164 21.8848C19.3164 21.4941 19.0234 21.1914 18.6328 21.1914L9.48242 21.1914C9.08203 21.1914 8.78906 21.4941 8.78906 21.8848C8.78906 22.2559 9.08203 22.5488 9.48242 22.5488Z" fill="black" fill-opacity="0.85"/>
 </g>
</svg>
