<?xml version="1.0" encoding="UTF-8"?>
<!--Generator: Apple Native CoreSVG 326-->
<!DOCTYPE svg
PUBLIC "-//W3C//DTD SVG 1.1//EN"
       "http://www.w3.org/Graphics/SVG/1.1/DTD/svg11.dtd">
<svg version="1.1" xmlns="http://www.w3.org/2000/svg" xmlns:xlink="http://www.w3.org/1999/xlink" viewBox="0 0 31.4453 30.3027">
 <g>
  <rect height="30.3027" opacity="0" width="31.4453" x="0" y="0"/>
  <path d="M24.6886 4.95117L6.52306 4.95117C6.61591 2.81801 7.84077 1.86523 9.89258 1.86523L21.3184 1.86523C23.4639 1.86523 24.6026 2.81801 24.6886 4.95117Z" fill="black" fill-opacity="0.85"/>
  <path d="M29.5215 10.0488L29.5215 20.5859C29.5215 22.9395 28.291 24.1211 25.9375 24.1211L25.3516 24.1211L25.3516 16.8262C25.3516 15.1953 24.1211 13.9746 22.4902 13.9746L8.60352 13.9746C6.96289 13.9746 5.74219 15.1953 5.74219 16.8262L5.74219 24.1211L5.14648 24.1211C2.79297 24.1211 1.5625 22.9395 1.5625 20.5859L1.5625 10.0488C1.5625 7.68555 2.89062 6.50391 5.14648 6.50391L25.9375 6.50391C28.291 6.50391 29.5215 7.68555 29.5215 10.0488ZM21.582 10.5078C21.582 11.3867 22.2949 12.0801 23.1641 12.0801C24.0137 12.0801 24.7363 11.3672 24.7363 10.5078C24.7363 9.6582 24.0137 8.93555 23.1641 8.93555C22.2949 8.93555 21.582 9.6582 21.582 10.5078Z" fill="black" fill-opacity="0.85"/>
  <path d="M7.30469 27.041C7.30469 28.0664 7.97852 28.7402 9.00391 28.7402L22.0898 28.7402C23.1055 28.7402 23.7891 28.0664 23.7891 27.041L23.7891 16.8262C23.7891 16.0449 23.2715 15.5273 22.4902 15.5273L8.60352 15.5273C7.82227 15.5273 7.30469 16.0449 7.30469 16.8262ZM11.377 20.5859C10.9668 20.5859 10.6641 20.2734 10.6641 19.873C10.6641 19.4824 10.9668 19.1797 11.377 19.1797L19.7363 19.1797C20.1367 19.1797 20.4395 19.4824 20.4395 19.873C20.4395 20.2734 20.1367 20.5859 19.7363 20.5859ZM11.377 25.0879C10.9668 25.0879 10.6641 24.7852 10.6641 24.4043C10.6641 23.9941 10.9668 23.6816 11.377 23.6816L19.7363 23.6816C20.1367 23.6816 20.4395 23.9941 20.4395 24.4043C20.4395 24.7852 20.1367 25.0879 19.7363 25.0879Z" fill="black" fill-opacity="0.85"/>
 </g>
</svg>
