<?xml version="1.0" ?><!-- Generator: Adobe Illustrator 25.0.0, SVG Export Plug-In . SVG Version: 6.00 Build 0)  --><svg xmlns="http://www.w3.org/2000/svg" xmlns:xlink="http://www.w3.org/1999/xlink" version="1.1" id="Layer_1" x="0px" y="0px" viewBox="0 0 512 512" style="enable-background:new 0 0 512 512;" xml:space="preserve">
<path d="M90.2,64h331.5v-3.9c0-33.7-26.2-48.8-63.1-48.8H153.3c-35.3,0-63.1,15-63.1,48.8V64z M127.1,500.6h257.7  c28.9,0,43.5-13,43.5-43.3v-43.7h15.7c44.4,0,67.9-22.3,67.9-66.8V161.3c0-44.4-23.5-67-67.9-67H67.7c-41.9,0-67.7,22.6-67.7,67  v185.5c0,44.4,23.5,66.8,67.7,66.8h16v43.7C83.6,487.6,98.2,500.6,127.1,500.6z M366.9,169.8c0-15.7,13.4-29.4,29.6-29.4  c15.5,0,29.2,13.7,29.2,29.4c0,16.2-13.7,28.9-29.2,29.2C380.3,198.9,366.9,186.2,366.9,169.8z M138.5,466.4  c-12.3,0-18.2-5.9-18.2-18.2V278.9c0-12.1,6.2-18,18.2-18h235.2c12.1,0,18,5.9,18,18v169.3c0,12.3-5.9,18.2-18,18.2H138.5z   M177,338.6h158.4c8,0,14.1-6.2,14.1-14.4c0-7.7-6.2-13.7-14.1-13.7H177c-8.4,0-14.4,5.9-14.4,13.7  C162.7,332.4,168.6,338.6,177,338.6z M177,418.1h158.4c8,0,14.1-6.2,14.1-13.9c0-8-6.2-14.1-14.1-14.1H177  c-8.4,0-14.4,6.2-14.4,14.1C162.7,412,168.6,418.1,177,418.1z"/>
</svg>