<?xml version="1.0" encoding="UTF-8"?>
<!--Generator: Apple Native CoreSVG 326-->
<!DOCTYPE svg
PUBLIC "-//W3C//DTD SVG 1.1//EN"
       "http://www.w3.org/Graphics/SVG/1.1/DTD/svg11.dtd">
<svg version="1.1" xmlns="http://www.w3.org/2000/svg" xmlns:xlink="http://www.w3.org/1999/xlink" viewBox="0 0 27.4219 27.1777">
 <g>
  <rect height="27.1777" opacity="0" width="27.4219" x="0" y="0"/>
  <path d="M9.50195 9.50195C9.86328 9.13086 9.86328 8.51562 9.50195 8.1543L5.29297 3.96484C4.94141 3.60352 4.32617 3.60352 3.96484 3.96484C3.60352 4.32617 3.60352 4.93164 3.96484 5.29297L8.1543 9.50195C8.51562 9.85352 9.12109 9.87305 9.50195 9.50195Z" fill="black" fill-opacity="0.85"/>
  <path d="M7.82227 13.5352C7.82227 13.0176 7.39258 12.5879 6.875 12.5879L0.947266 12.5879C0.429688 12.5879 0 13.0176 0 13.5352C0 14.043 0.429688 14.4727 0.947266 14.4727L6.875 14.4727C7.38281 14.4727 7.82227 14.0625 7.82227 13.5352Z" fill="black" fill-opacity="0.85"/>
  <path d="M9.50195 17.5684C9.13086 17.1973 8.51562 17.207 8.1543 17.5684L3.96484 21.7676C3.60352 22.1289 3.60352 22.7344 3.96484 23.0957C4.32617 23.457 4.93164 23.4668 5.29297 23.0957L9.50195 18.9062C9.85352 18.5547 9.87305 17.9492 9.50195 17.5684Z" fill="black" fill-opacity="0.85"/>
  <path d="M13.5352 19.248C13.0273 19.248 12.5879 19.6777 12.5879 20.1953L12.5879 26.123C12.5879 26.6309 13.0176 27.0605 13.5352 27.0605C14.043 27.0605 14.4727 26.6406 14.4727 26.123L14.4727 20.1953C14.4727 19.6777 14.043 19.248 13.5352 19.248Z" fill="black" fill-opacity="0.85"/>
  <path d="M17.5684 17.5684C17.1973 17.9492 17.207 18.5547 17.5684 18.9062L21.7676 23.0957C22.1289 23.4668 22.7441 23.457 23.0957 23.0957C23.4668 22.7344 23.457 22.1289 23.0957 21.7676L18.9062 17.5684C18.5449 17.207 17.9395 17.1973 17.5684 17.5684Z" fill="black" fill-opacity="0.85"/>
  <path d="M19.2383 13.5352C19.2383 14.0625 19.6777 14.4727 20.1953 14.4727L26.123 14.4727C26.6406 14.4727 27.0605 14.043 27.0605 13.5352C27.0605 13.0176 26.6309 12.5879 26.123 12.5879L20.1953 12.5879C19.6777 12.5879 19.2383 13.0176 19.2383 13.5352Z" fill="black" fill-opacity="0.85"/>
  <path d="M17.5684 9.50195C17.9492 9.87305 18.5547 9.85352 18.9062 9.50195L23.0957 5.29297C23.4668 4.93164 23.457 4.32617 23.0957 3.96484C22.7344 3.60352 22.1289 3.60352 21.7676 3.96484L17.5684 8.1543C17.207 8.51562 17.1973 9.13086 17.5684 9.50195Z" fill="black" fill-opacity="0.85"/>
  <path d="M13.5352 7.8125C14.043 7.8125 14.4727 7.38281 14.4727 6.875L14.4727 0.947266C14.4727 0.429688 14.043 0 13.5352 0C13.0176 0 12.5879 0.429688 12.5879 0.947266L12.5879 6.875C12.5879 7.39258 13.0273 7.8125 13.5352 7.8125Z" fill="black" fill-opacity="0.85"/>
 </g>
</svg>
