<?xml version="1.0" ?><!-- Generator: Adobe Illustrator 25.0.0, SVG Export Plug-In . SVG Version: 6.00 Build 0)  --><svg xmlns="http://www.w3.org/2000/svg" xmlns:xlink="http://www.w3.org/1999/xlink" version="1.1" id="Layer_1" x="0px" y="0px" viewBox="0 0 512 512" style="enable-background:new 0 0 512 512;" xml:space="preserve">
<path d="M26.8,426.1c7.7,0,14.1-2.4,19.2-7.7l210.2-214.9L466,418.4c5,5,11.5,7.7,19.2,7.7c15.6,0,26.8-11.5,26.8-26.8  c0-7.7-2.9-13.9-8-19.2L275.9,146.3c-3.8-3.8-8.3-6.5-13.6-7.7h214.6c15.3,0,25.9-11.2,25.9-26.5c0-15.3-10.6-26.2-25.9-26.2H34.5  c-15,0-25.3,10.9-25.3,26.2c0,15.3,10.3,26.5,25.3,26.5h215.2c-5,1.2-9.4,3.8-13.6,7.7L8,380.1c-5.3,5.3-8,11.5-8,19.2  C0,414.6,11.5,426.1,26.8,426.1z"/>
</svg>