<?xml version="1.0" encoding="UTF-8"?>
<!--Generator: Apple Native CoreSVG 326-->
<!DOCTYPE svg
PUBLIC "-//W3C//DTD SVG 1.1//EN"
       "http://www.w3.org/Graphics/SVG/1.1/DTD/svg11.dtd">
<svg version="1.1" xmlns="http://www.w3.org/2000/svg" xmlns:xlink="http://www.w3.org/1999/xlink" viewBox="0 0 18.3789 23.8184">
 <g>
  <rect height="23.8184" opacity="0" width="18.3789" x="0" y="0"/>
  <path d="M0 18.4668C0 18.7305 0.107422 18.9551 0.292969 19.1309L4.47266 23.3105C4.81445 23.6523 5.19531 23.8184 5.57617 23.8184C5.95703 23.8184 6.32812 23.6426 6.66992 23.3105L10.8594 19.1211C11.0449 18.9355 11.1523 18.7012 11.1523 18.457C11.1523 17.9688 10.7715 17.5977 10.332 17.5977C10.0098 17.5977 9.79492 17.7148 9.62891 17.8906L8.49609 19.0234L6.38672 21.3574L6.49414 17.0898L6.49414 7.44141C6.49414 4.10156 8.35938 1.89453 11.377 1.89453C14.2383 1.89453 16.2109 3.89648 16.2109 6.9043C16.2109 9.76562 14.2969 11.7773 11.6016 11.7773C10.6641 11.7773 10.4492 11.5527 10.0391 11.5527C9.57031 11.5527 9.19922 11.8652 9.19922 12.3438C9.19922 12.666 9.36523 12.9102 9.59961 13.1055C10.0391 13.457 10.8398 13.6035 11.543 13.6035C15.459 13.6035 18.0176 10.8496 18.0176 6.9043C18.0176 2.80273 15.3223 0.0683594 11.377 0.0683594C7.36328 0.0683594 4.64844 2.7832 4.64844 7.50977L4.64844 17.0996L4.74609 21.3574L2.65625 19.0332L1.52344 17.9004C1.34766 17.7246 1.14258 17.6074 0.820312 17.6074C0.380859 17.6074 0 17.9785 0 18.4668Z" fill="black" fill-opacity="0.85"/>
 </g>
</svg>
