<?xml version="1.0" encoding="UTF-8"?>
<!--Generator: Apple Native CoreSVG 326-->
<!DOCTYPE svg
PUBLIC "-//W3C//DTD SVG 1.1//EN"
       "http://www.w3.org/Graphics/SVG/1.1/DTD/svg11.dtd">
<svg version="1.1" xmlns="http://www.w3.org/2000/svg" xmlns:xlink="http://www.w3.org/1999/xlink" viewBox="0 0 25.8008 25.459">
 <g>
  <rect height="25.459" opacity="0" width="25.8008" x="0" y="0"/>
  <path d="M12.7148 25.4395C19.7363 25.4395 25.4395 19.7461 25.4395 12.7246C25.4395 5.70312 19.7363 0 12.7148 0C5.69336 0 0 5.70312 0 12.7246C0 19.7461 5.69336 25.4395 12.7148 25.4395ZM12.7148 23.623C6.68945 23.623 1.81641 18.75 1.81641 12.7246C1.81641 6.69922 6.68945 1.82617 12.7148 1.82617C18.7402 1.82617 23.6133 6.69922 23.6133 12.7246C23.6133 18.75 18.7402 23.623 12.7148 23.623Z" fill="black" fill-opacity="0.85"/>
  <path d="M7.27539 16.2012C7.27539 16.3672 7.36328 16.5625 7.5 16.6992L9.96094 19.1504C10.2051 19.375 10.459 19.4922 10.7031 19.4922C10.9668 19.4922 11.2109 19.3848 11.4453 19.1504L13.916 16.6895C14.0625 16.5332 14.1309 16.3672 14.1309 16.2012C14.1309 15.8398 13.8574 15.5469 13.4961 15.5469C13.2812 15.5469 13.125 15.625 12.9785 15.7715L12.3242 16.4355L11.3379 17.5293L11.3965 15.4004L11.3965 10.3125C11.3965 8.33008 12.373 7.19727 14.1113 7.19727C15.7422 7.19727 16.8262 8.33008 16.8164 10C16.8066 11.6211 15.7617 12.7246 14.2285 12.7246C13.8281 12.7246 13.6523 12.627 13.418 12.627C13.0762 12.627 12.8125 12.8711 12.8125 13.2031C12.8125 13.3984 12.8809 13.5742 13.0176 13.7012C13.2617 13.9258 13.7109 14.0527 14.1895 14.0527C16.5723 14.0527 18.1543 12.4316 18.1543 10C18.1543 7.50977 16.5137 5.83984 14.1113 5.83984C11.6113 5.83984 10.0098 7.53906 10.0098 10.2148L10.0098 15.4102L10.0684 17.5293L9.0918 16.4453L8.4375 15.7812C8.28125 15.625 8.10547 15.5469 7.91016 15.5469C7.55859 15.5469 7.27539 15.8398 7.27539 16.2012Z" fill="black" fill-opacity="0.85"/>
 </g>
</svg>
