<?xml version="1.0" ?><!-- Generator: Adobe Illustrator 25.0.0, SVG Export Plug-In . SVG Version: 6.00 Build 0)  --><svg xmlns="http://www.w3.org/2000/svg" xmlns:xlink="http://www.w3.org/1999/xlink" version="1.1" id="Layer_1" x="0px" y="0px" viewBox="0 0 512 512" style="enable-background:new 0 0 512 512;" xml:space="preserve">
<path d="M256,512c140,0,256-116.2,256-256C512,116,395.8,0,255.7,0C116,0,0,116,0,256C0,395.8,116.2,512,256,512z M256,469.3  c-118.5,0-213.1-94.9-213.1-213.3S137.3,42.7,255.7,42.7S469.1,137.5,469.3,256S374.5,469.3,256,469.3z M145.8,325.8  c0,3.5,2,8,5,11.3l48.4,48.2c5.8,5.3,11.5,8,17.1,8c5.8,0,11.5-2.5,17.1-8l48.7-48.4c3.3-3.8,5-7.5,5-11c0-8.3-6.5-15.1-14.6-15.1  c-5,0-8.5,1.8-12,5l-12.3,12.8l-17.3,19.8l1.3-39.7V206.8c0-37.9,18.3-59,52-59c30.9,0,51.7,21.3,51.5,53c-0.3,30.9-20.3,52-49.2,52  c-7,0-10.5-1.5-15.1-1.5c-8,0-14.1,5.8-14.1,13.3c0,4.5,1.8,8.3,4.5,11c5,5,14.1,7.5,23.6,7.5c48.7,0,80.8-32.9,80.8-82.3  c0-50.4-33.4-84.6-82.1-84.6c-50.9,0-83.6,34.4-83.6,87.8V309l1.3,39.4l-17.1-19.6L172.2,316c-3.5-3.5-7.5-5.3-12-5.3  C152.1,310.7,145.8,317.5,145.8,325.8z"/>
</svg>