<?xml version="1.0" ?><!-- Generator: Adobe Illustrator 25.0.0, SVG Export Plug-In . SVG Version: 6.00 Build 0)  --><svg xmlns="http://www.w3.org/2000/svg" xmlns:xlink="http://www.w3.org/1999/xlink" version="1.1" id="Layer_1" x="0px" y="0px" viewBox="0 0 512 512" style="enable-background:new 0 0 512 512;" xml:space="preserve">
<path d="M256,512c140,0,256-116.2,256-256C512,116,395.8,0,255.7,0C116,0,0,116,0,256C0,395.8,116.2,512,256,512z M142.3,327.8  c0-8.5,6.5-15.3,14.8-15.3c4.8,0,8.8,1.5,12.5,5.5l12.8,13.1l17.6,19.8l-1.3-40.4V202.3c0-55.2,33.6-90.6,86.3-90.6  c50.2,0,84.6,35.4,84.6,87.1c0,50.9-33.1,85.1-83.3,85.1c-10,0-19.3-2.8-24.3-7.8c-3-3-4.8-6.8-4.8-11.5c0-7.8,6.3-13.8,14.6-13.8  c4.8,0,8.3,1.8,15.6,1.8c29.6,0,50.4-21.8,50.7-53.7c0.3-32.6-21.3-54.5-53-54.5c-34.6,0-53.7,21.6-53.7,60.7v105.2l-1.3,40.7  l17.8-20.1l12.5-13.3c3.8-3.5,7.3-5,12.5-5c8.3,0,15.1,6.8,15.1,15.3c0,3.8-1.8,7.8-5,11.5L232.9,389c-5.8,5.8-11.8,8.5-17.8,8.5  c-5.8,0-11.5-3-17.6-8.5l-49.9-49.4C144.3,336.1,142.3,331.5,142.3,327.8z"/>
</svg>