<?xml version="1.0" encoding="UTF-8"?>
<!--Generator: Apple Native CoreSVG 326-->
<!DOCTYPE svg
PUBLIC "-//W3C//DTD SVG 1.1//EN"
       "http://www.w3.org/Graphics/SVG/1.1/DTD/svg11.dtd">
<svg version="1.1" xmlns="http://www.w3.org/2000/svg" xmlns:xlink="http://www.w3.org/1999/xlink" viewBox="0 0 30.5566 24.1113">
 <g>
  <rect height="24.1113" opacity="0" width="30.5566" x="0" y="0"/>
  <path d="M0.595703 20.5273C0.595703 22.8125 1.83594 24.0625 4.12109 24.0625L19.9609 24.0625C22.2656 24.0625 23.5254 22.832 23.5254 20.5664L23.5254 15.1758C23.5254 14.9023 23.7402 14.7656 24.0137 14.9805C24.707 15.498 25.5273 16.0059 26.7383 16.0059C28.916 16.0059 30.5566 14.3359 30.5566 12.1191C30.5566 9.89258 28.916 8.23242 26.7383 8.23242C25.5273 8.23242 24.707 8.73047 24.0137 9.25781C23.7402 9.46289 23.5254 9.32617 23.5254 9.05273L23.5254 3.49609C23.5254 1.23047 22.2656 0 19.9609 0L4.12109 0C1.83594 0 0.595703 1.25 0.595703 3.53516L0.595703 9.04297C0.595703 9.83398 1.18164 10.3613 1.9043 10.3613C2.28516 10.3613 2.69531 10.1953 3.07617 9.84375C3.70117 9.26758 4.43359 8.61328 5.82031 8.61328C7.73438 8.61328 9.18945 10.0977 9.18945 12.0508C9.18945 14.0039 7.73438 15.4785 5.82031 15.4785C4.43359 15.4785 3.70117 14.8242 3.07617 14.248C2.69531 13.8965 2.28516 13.7305 1.9043 13.7305C1.18164 13.7305 0.595703 14.2578 0.595703 15.0488Z" fill="black" fill-opacity="0.85"/>
 </g>
</svg>
