<?xml version="1.0" encoding="UTF-8"?>
<!--Generator: Apple Native CoreSVG 326-->
<!DOCTYPE svg
PUBLIC "-//W3C//DTD SVG 1.1//EN"
       "http://www.w3.org/Graphics/SVG/1.1/DTD/svg11.dtd">
<svg version="1.1" xmlns="http://www.w3.org/2000/svg" xmlns:xlink="http://www.w3.org/1999/xlink" viewBox="0 0 31.2305 24.1113">
 <g>
  <rect height="24.1113" opacity="0" width="31.2305" x="0" y="0"/>
  <path d="M0.605469 20.498C0.605469 22.8027 1.88477 24.0625 4.22852 24.0625L19.9316 24.0625C22.2754 24.0625 23.5547 22.8027 23.5547 20.498L23.5547 15.8301C23.5547 15.5957 23.7305 15.4688 23.9844 15.6445C24.7656 16.2012 25.6641 16.6895 26.8555 16.6895C29.2188 16.6895 31.2305 14.8438 31.2305 12.1191C31.2305 9.39453 29.2188 7.54883 26.8555 7.54883C25.6641 7.54883 24.7656 8.03711 23.9844 8.58398C23.7305 8.76953 23.5547 8.64258 23.5547 8.4082L23.5547 3.56445C23.5547 1.25977 22.2754 0 19.9316 0L4.22852 0C1.88477 0 0.605469 1.25977 0.605469 3.56445L0.605469 9.20898C0.605469 10.1758 1.23047 10.7324 2.04102 10.7324C2.48047 10.7324 2.91992 10.5566 3.37891 10.1465C4.02344 9.57031 4.72656 9.19922 5.55664 9.19922C7.09961 9.19922 8.33008 10.332 8.33008 12.0508C8.33008 13.7598 7.09961 14.9023 5.55664 14.9023C4.72656 14.9023 4.02344 14.5312 3.37891 13.9551C2.91992 13.5449 2.48047 13.3594 2.04102 13.3594C1.23047 13.3594 0.605469 13.9258 0.605469 14.8828ZM2.34375 20.4199L2.34375 15.8691C2.34375 15.3223 2.63672 15.4883 2.90039 15.6641C3.66211 16.1621 4.49219 16.6211 5.63477 16.6211C7.99805 16.6211 10.0098 14.7754 10.0098 12.0508C10.0098 9.32617 7.99805 7.48047 5.63477 7.48047C4.49219 7.48047 3.66211 7.92969 2.90039 8.42773C2.63672 8.60352 2.34375 8.76953 2.34375 8.22266L2.34375 3.64258C2.34375 2.43164 3.06641 1.73828 4.26758 1.73828L19.9023 1.73828C21.0938 1.73828 21.8262 2.43164 21.8262 3.64258L21.8262 9.21875C21.8262 10.1855 22.4512 10.8105 23.2617 10.8105C23.6914 10.8105 24.1406 10.625 24.5898 10.2148C25.2441 9.63867 25.9375 9.26758 26.7773 9.26758C28.3203 9.26758 29.5508 10.4004 29.5508 12.1191C29.5508 13.8379 28.3203 14.9707 26.7773 14.9707C25.9375 14.9707 25.2441 14.5996 24.5898 14.0234C24.1406 13.6133 23.6914 13.4277 23.2617 13.4277C22.4512 13.4277 21.8262 14.0527 21.8262 15.0195L21.8262 20.4199C21.8262 21.6309 21.0938 22.3242 19.9023 22.3242L4.26758 22.3242C3.06641 22.3242 2.34375 21.6309 2.34375 20.4199Z" fill="black" fill-opacity="0.85"/>
 </g>
</svg>
