<?xml version="1.0" ?><!-- Generator: Adobe Illustrator 25.0.0, SVG Export Plug-In . SVG Version: 6.00 Build 0)  --><svg xmlns="http://www.w3.org/2000/svg" xmlns:xlink="http://www.w3.org/1999/xlink" version="1.1" id="Layer_1" x="0px" y="0px" viewBox="0 0 512 512" style="enable-background:new 0 0 512 512;" xml:space="preserve">
<path d="M27.1,375.4c-10.5,18.3-6.6,38.6,12.8,47.1l200.8,86.4c10.1,4.3,20.1,4.3,30.8-0.2l200.6-86.1c19.4-8.5,23.3-28.8,12.8-47.1  L277.5,13.3C271.1,2.1,263.3,0,256,0c-7.5,0-15.3,2.1-21.7,13.3L27.1,375.4z M64.1,382.2L238.6,79.3v393.9L68,395.9  C62.7,393.4,60.7,388.4,64.1,382.2z M447.9,382.2c3.4,6.2,1.4,11.2-4.1,13.7l-170.7,77.2V79.3L447.9,382.2z"/>
</svg>