<?xml version="1.0" ?><!-- Generator: Adobe Illustrator 25.0.0, SVG Export Plug-In . SVG Version: 6.00 Build 0)  --><svg xmlns="http://www.w3.org/2000/svg" xmlns:xlink="http://www.w3.org/1999/xlink" version="1.1" id="Layer_1" x="0px" y="0px" viewBox="0 0 512 512" style="enable-background:new 0 0 512 512;" xml:space="preserve">
<path d="M256,512c140,0,256-116.2,256-256C512,116,395.8,0,255.7,0C116,0,0,116,0,256C0,395.8,116.2,512,256,512z M256,469.3  c-118.5,0-213.1-94.9-213.1-213.3S137.3,42.7,255.7,42.7S469.1,137.5,469.3,256S374.5,469.3,256,469.3z M255.7,374  c14.6,0,28.1-2.5,40.2-7.3l17.6,23.6c4.8,6.5,9.5,9,15.8,9c8.8,0,14.8-6.3,14.8-14.8c0-4.5-1.3-7.8-6-14.1L323,350.6  c25.9-20.8,41.4-55.2,41.4-96.9c0-70.8-44.4-120-108.7-120s-108.7,49.2-108.7,120C147.1,324.5,191.5,374,255.7,374z M255.7,342.3  c-41.4,0-68.5-34.9-68.5-88.6c0-53.5,27.1-88.3,68.5-88.3c41.4,0,68.8,34.9,68.8,88.3c0,29.1-8.3,53-22.8,68.3l-14.3-19.3  c-4-5.3-7.8-7.3-13.6-7.3c-8.3,0-15.1,6.3-15.1,14.3c0,4.3,1.3,8,4.8,12.8l12.3,16.8C269.8,341.3,263,342.3,255.7,342.3z"/>
</svg>