<?xml version="1.0" ?><!-- Generator: Adobe Illustrator 25.0.0, SVG Export Plug-In . SVG Version: 6.00 Build 0)  --><svg xmlns="http://www.w3.org/2000/svg" xmlns:xlink="http://www.w3.org/1999/xlink" version="1.1" id="Layer_1" x="0px" y="0px" viewBox="0 0 512 512" style="enable-background:new 0 0 512 512;" xml:space="preserve">
<path d="M87.3,512h337.3c58.4,0,87.3-28.9,87.3-86.2V86.2C512,28.9,483.1,0,424.7,0H87.3C29.2,0,0,28.6,0,86.2v339.6  C0,483.4,29.2,512,87.3,512z M256.1,390.2c-73.4,0-124.3-56.7-124.3-137.4c0-80.9,50.9-137.4,124.3-137.4  c73.4,0,124.3,56.5,124.3,137.4c0,47.8-17.8,86.8-47.3,110.4l17.2,23.1c5.3,7.2,7,10.6,7,15.9c0,10-7,17-17.2,17  c-7.2,0-12.5-2.8-18.1-10.6l-20-26.7C288.4,387.1,272.8,390.2,256.1,390.2z M256.1,353.8c8.3,0,15.9-1.1,22.8-3.3L265,331.2  c-3.9-5.3-5.6-9.5-5.6-14.5c0-9.2,7.8-16.4,17.2-16.4c6.7,0,11.1,2.2,15.6,8.1l16.4,22c16.4-17.2,25.9-44.2,25.9-77.6  c0-61.2-30.9-101-78.4-101c-47.3,0-78.1,39.8-78.1,101S208.9,353.8,256.1,353.8z"/>
</svg>