<?xml version="1.0" ?><!-- Generator: Adobe Illustrator 25.0.0, SVG Export Plug-In . SVG Version: 6.00 Build 0)  --><svg xmlns="http://www.w3.org/2000/svg" xmlns:xlink="http://www.w3.org/1999/xlink" version="1.1" id="Layer_1" x="0px" y="0px" viewBox="0 0 512 512" style="enable-background:new 0 0 512 512;" xml:space="preserve">
<path d="M490.8,166.4c13.9,0,21.2-7.8,21.2-21.4V80.9c0-53.9-27.5-80.8-82.1-80.8h-64.1c-13.6,0-21.2,7.3-21.2,20.9  c0,13.6,7.6,21.2,21.2,21.2h63.3c25.9,0,40.8,13.9,40.8,41.1V145C469.9,158.6,477.5,166.4,490.8,166.4z M20.9,166.4  c13.9,0,21.2-7.8,21.2-21.4V83.3c0-27.2,14.4-41.1,40.5-41.1h63.3c13.9,0,21.4-7.6,21.4-21.2c0-13.6-7.6-20.9-21.4-20.9H82.1  C27.5,0.1,0,27.1,0,80.9V145C0,158.6,7.6,166.4,20.9,166.4z M142,244.6h91c6.5,0,11.5-5,11.5-11.2v-91.3c0-6.3-5-11.5-11.5-11.5h-91  c-6.5,0-11.5,5.2-11.5,11.5v91.3C130.5,239.7,135.5,244.6,142,244.6z M278.5,244.6h91c6.5,0,11.5-5,11.5-11.2v-91.3  c0-6.3-5-11.5-11.5-11.5h-91c-6.5,0-11.5,5.2-11.5,11.5v91.3C267,239.7,271.9,244.6,278.5,244.6z M153.2,221.9v-68.5h68.5v68.5  H153.2z M289.7,221.9v-68.5h68.5v68.5H289.7z M173.1,202h28.8v-28.8h-28.8V202z M309.9,202h28.5v-28.8h-28.5V202z M142,381.4h91  c6.5,0,11.5-5,11.5-11.5v-91c0-6.5-5-11.5-11.5-11.5h-91c-6.5,0-11.5,5-11.5,11.5v91C130.5,376.4,135.5,381.4,142,381.4z M270.4,299  h28.5v-28.5h-28.5V299z M349.1,299h28.5v-28.5h-28.5V299z M153.2,358.6v-68.5h68.5v68.5H153.2z M173.1,338.5h28.8V310h-28.8V338.5z   M309.6,338.5h28.8V310h-28.8V338.5z M82.1,511.9h63.8c13.9,0,21.4-7.6,21.4-20.9c0-13.6-7.6-21.2-21.4-21.2H82.6  c-26.1,0-40.5-13.9-40.5-41.1V367c0-13.9-7.6-21.4-21.2-21.4C7.3,345.6,0,353.1,0,367v63.8C0,484.9,27.5,511.9,82.1,511.9z   M365.8,511.9h64.1c54.7,0,82.1-27.2,82.1-81.1V367c0-13.9-7.6-21.4-21.2-21.4c-13.6,0-20.9,7.6-20.9,21.4v61.7  c0,27.2-14.9,41.1-40.8,41.1h-63.3c-13.6,0-21.2,7.6-21.2,21.2C344.6,504.3,352.2,511.9,365.8,511.9z M270.4,378h28.5v-28.5h-28.5  V378z M349.1,378h28.5v-28.5h-28.5V378z"/>
</svg>