<?xml version="1.0" encoding="UTF-8"?>
<!--Generator: Apple Native CoreSVG 326-->
<!DOCTYPE svg
PUBLIC "-//W3C//DTD SVG 1.1//EN"
       "http://www.w3.org/Graphics/SVG/1.1/DTD/svg11.dtd">
<svg version="1.1" xmlns="http://www.w3.org/2000/svg" xmlns:xlink="http://www.w3.org/1999/xlink" viewBox="0 0 23.3203 22.9785">
 <g>
  <rect height="22.9785" opacity="0" width="23.3203" x="0" y="0"/>
  <path d="M2.24609 10.4297L8.16406 10.4297C9.64844 10.4297 10.4102 9.70703 10.4102 8.1543L10.4102 2.30469C10.4102 0.751953 9.64844 0.0292969 8.16406 0.0292969L2.24609 0.0292969C0.761719 0.0292969 0 0.751953 0 2.30469L0 8.1543C0 9.70703 0.761719 10.4297 2.24609 10.4297ZM2.26562 8.90625C1.76758 8.90625 1.5332 8.66211 1.5332 8.13477L1.5332 2.31445C1.5332 1.79688 1.76758 1.5625 2.26562 1.5625L8.13477 1.5625C8.63281 1.5625 8.87695 1.79688 8.87695 2.31445L8.87695 8.13477C8.87695 8.66211 8.63281 8.90625 8.13477 8.90625ZM4.15039 6.52344L6.24023 6.52344C6.41602 6.52344 6.49414 6.44531 6.49414 6.23047L6.49414 4.20898C6.49414 4.01367 6.41602 3.93555 6.24023 3.93555L4.15039 3.93555C3.97461 3.93555 3.91602 4.01367 3.91602 4.20898L3.91602 6.23047C3.91602 6.44531 3.97461 6.52344 4.15039 6.52344ZM14.7949 10.4297L20.7129 10.4297C22.1973 10.4297 22.959 9.70703 22.959 8.1543L22.959 2.30469C22.959 0.751953 22.1973 0.0292969 20.7129 0.0292969L14.7949 0.0292969C13.3008 0.0292969 12.5488 0.751953 12.5488 2.30469L12.5488 8.1543C12.5488 9.70703 13.3008 10.4297 14.7949 10.4297ZM14.8242 8.90625C14.3066 8.90625 14.082 8.66211 14.082 8.13477L14.082 2.31445C14.082 1.79688 14.3066 1.5625 14.8242 1.5625L20.6934 1.5625C21.1914 1.5625 21.4258 1.79688 21.4258 2.31445L21.4258 8.13477C21.4258 8.66211 21.1914 8.90625 20.6934 8.90625ZM16.7578 6.52344L18.8477 6.52344C19.0234 6.52344 19.1016 6.44531 19.1016 6.23047L19.1016 4.20898C19.1016 4.01367 19.0234 3.93555 18.8477 3.93555L16.7578 3.93555C16.582 3.93555 16.5234 4.01367 16.5234 4.20898L16.5234 6.23047C16.5234 6.44531 16.582 6.52344 16.7578 6.52344ZM2.24609 22.9785L8.16406 22.9785C9.64844 22.9785 10.4102 22.2559 10.4102 20.7031L10.4102 14.8535C10.4102 13.3008 9.64844 12.5684 8.16406 12.5684L2.24609 12.5684C0.761719 12.5684 0 13.3008 0 14.8535L0 20.7031C0 22.2559 0.761719 22.9785 2.24609 22.9785ZM2.26562 21.4453C1.76758 21.4453 1.5332 21.2109 1.5332 20.6934L1.5332 14.8633C1.5332 14.3457 1.76758 14.1016 2.26562 14.1016L8.13477 14.1016C8.63281 14.1016 8.87695 14.3457 8.87695 14.8633L8.87695 20.6934C8.87695 21.2109 8.63281 21.4453 8.13477 21.4453ZM4.15039 19.0625L6.24023 19.0625C6.41602 19.0625 6.49414 18.9941 6.49414 18.7793L6.49414 16.7578C6.49414 16.5625 6.41602 16.4844 6.24023 16.4844L4.15039 16.4844C3.97461 16.4844 3.91602 16.5625 3.91602 16.7578L3.91602 18.7793C3.91602 18.9941 3.97461 19.0625 4.15039 19.0625ZM13.3594 15.7227L15.4395 15.7227C15.625 15.7227 15.6934 15.6445 15.6934 15.4395L15.6934 13.4082C15.6934 13.2129 15.625 13.1445 15.4395 13.1445L13.3594 13.1445C13.1738 13.1445 13.1152 13.2129 13.1152 13.4082L13.1152 15.4395C13.1152 15.6445 13.1738 15.7227 13.3594 15.7227ZM20.0488 15.7227L22.1289 15.7227C22.3145 15.7227 22.3828 15.6445 22.3828 15.4395L22.3828 13.4082C22.3828 13.2129 22.3145 13.1445 22.1289 13.1445L20.0488 13.1445C19.8633 13.1445 19.8047 13.2129 19.8047 13.4082L19.8047 15.4395C19.8047 15.6445 19.8633 15.7227 20.0488 15.7227ZM16.7285 19.0625L18.8184 19.0625C19.0039 19.0625 19.0723 18.9941 19.0723 18.7793L19.0723 16.7578C19.0723 16.5625 19.0039 16.4844 18.8184 16.4844L16.7285 16.4844C16.5527 16.4844 16.4941 16.5625 16.4941 16.7578L16.4941 18.7793C16.4941 18.9941 16.5527 19.0625 16.7285 19.0625ZM13.3594 22.4121L15.4395 22.4121C15.625 22.4121 15.6934 22.334 15.6934 22.1289L15.6934 20.1074C15.6934 19.9023 15.625 19.834 15.4395 19.834L13.3594 19.834C13.1738 19.834 13.1152 19.9023 13.1152 20.1074L13.1152 22.1289C13.1152 22.334 13.1738 22.4121 13.3594 22.4121ZM20.0488 22.4121L22.1289 22.4121C22.3145 22.4121 22.3828 22.334 22.3828 22.1289L22.3828 20.1074C22.3828 19.9023 22.3145 19.834 22.1289 19.834L20.0488 19.834C19.8633 19.834 19.8047 19.9023 19.8047 20.1074L19.8047 22.1289C19.8047 22.334 19.8633 22.4121 20.0488 22.4121Z" fill="black" fill-opacity="0.85"/>
 </g>
</svg>
