<?xml version="1.0" ?><!-- Generator: Adobe Illustrator 25.0.0, SVG Export Plug-In . SVG Version: 6.00 Build 0)  --><svg xmlns="http://www.w3.org/2000/svg" xmlns:xlink="http://www.w3.org/1999/xlink" version="1.1" id="Layer_1" x="0px" y="0px" viewBox="0 0 512 512" style="enable-background:new 0 0 512 512;" xml:space="preserve">
<path d="M332.3,233.1h126.5c35.3,0,53.1-17.8,53.1-54.5V54.2C512,17.5,494.2,0,458.9,0H332.3c-35.6,0-53.4,17.5-53.4,54.2v124.3  C278.9,215.3,296.7,233.1,332.3,233.1z M53.1,233.1h126.8c35.3,0,53.1-17.8,53.1-54.5V54.2c0-36.7-17.8-54.2-53.1-54.2H53.1  C17.8,0,0,17.5,0,54.2v124.3C0,215.3,17.8,233.1,53.1,233.1z M53.7,193.8c-9.7,0-14.5-5-14.5-15.3V54.2c0-10,4.7-15,14.5-15h125.4  c9.7,0,14.7,5,14.7,15v124.3c0,10.3-5,15.3-14.7,15.3H53.7z M332.9,193.8c-10,0-14.7-5-14.7-15.3V54.2c0-10,4.7-15,14.7-15h125.4  c9.7,0,14.5,5,14.5,15v124.3c0,10.3-4.7,15.3-14.5,15.3H332.9z M92.6,145.7h47.6c3.9,0,5.6-1.7,5.6-6.4V93.2c0-4.5-1.7-6.1-5.6-6.1  H92.6c-4.2,0-5.6,1.7-5.6,6.1v46.2C87,144.1,88.4,145.7,92.6,145.7z M373.2,145.7h47.6c4.2,0,5.8-1.7,5.8-6.4V93.2  c0-4.5-1.7-6.1-5.8-6.1h-47.6c-3.9,0-5.3,1.7-5.3,6.1v46.2C367.9,144.1,369.3,145.7,373.2,145.7z M53.1,512h126.8  c35.3,0,53.1-17.5,53.1-54.2V333.2c0-36.4-17.8-54.2-53.1-54.2H53.1C17.8,278.9,0,296.7,0,333.2v124.6C0,494.5,17.8,512,53.1,512z   M297.9,351h47.6c3.9,0,5.6-1.7,5.6-6.4v-46.2c0-4.4-1.7-6.1-5.6-6.1h-47.6c-4.2,0-5.6,1.7-5.6,6.1v46.2  C292.3,349.3,293.7,351,297.9,351z M445.5,351h47.6c3.9,0,5.6-1.7,5.6-6.4v-46.2c0-4.4-1.7-6.1-5.6-6.1h-47.6  c-4.2,0-5.6,1.7-5.6,6.1v46.2C440,349.3,441.4,351,445.5,351z M53.7,472.8c-9.7,0-14.5-5-14.5-15V333.5c0-10.3,4.7-15.3,14.5-15.3  h125.4c9.7,0,14.7,5,14.7,15.3v124.3c0,10-5,15-14.7,15H53.7z M92.6,425h47.6c3.9,0,5.6-1.7,5.6-6.7v-45.9c0-4.4-1.7-6.1-5.6-6.1  H92.6c-4.2,0-5.6,1.7-5.6,6.1v45.9C87,423.3,88.4,425,92.6,425z M372.4,425h47.6c3.9,0,5.6-1.7,5.6-6.7v-45.9c0-4.4-1.7-6.1-5.6-6.1  h-47.6c-4.2,0-5.6,1.7-5.6,6.1v45.9C366.8,423.3,368.2,425,372.4,425z M297.9,498.7h47.6c3.9,0,5.6-1.7,5.6-6.4v-46.2  c0-4.4-1.7-6.1-5.6-6.1h-47.6c-4.2,0-5.6,1.7-5.6,6.1v46.2C292.3,497,293.7,498.7,297.9,498.7z M445.5,498.7h47.6  c3.9,0,5.6-1.7,5.6-6.4v-46.2c0-4.4-1.7-6.1-5.6-6.1h-47.6c-4.2,0-5.6,1.7-5.6,6.1v46.2C440,497,441.4,498.7,445.5,498.7z"/>
</svg>