<?xml version="1.0" ?><!-- Generator: Adobe Illustrator 25.0.0, SVG Export Plug-In . SVG Version: 6.00 Build 0)  --><svg xmlns="http://www.w3.org/2000/svg" xmlns:xlink="http://www.w3.org/1999/xlink" version="1.1" id="Layer_1" x="0px" y="0px" viewBox="0 0 512 512" style="enable-background:new 0 0 512 512;" xml:space="preserve">
<path d="M0,146.6h44.8V88.4c0-28.9,15.3-43.7,43.1-43.7h57.6V0H87.3C29.2,0,0,28.6,0,86.2V146.6z M183.6,44.8h144.9V0H183.6V44.8z   M467.2,146.6H512V86.2C512,28.9,482.8,0,424.7,0h-58.1v44.8h57.6c27.5,0,43.1,14.7,43.1,43.7V146.6z M250.6,313.2  c14.2,0,22.5-8.9,22.5-19.7v-3.3c0-15.6,9.2-25.6,28.4-38.4c27-17.8,46.2-33.9,46.2-67.3c0-46.2-41.2-71.2-88.4-71.2  c-47.6,0-79,22.8-86.8,48.4c-1.4,4.4-2.2,9.2-2.2,13.6c0,12.5,9.7,19.2,18.9,19.2c15.9,0,18.4-8.3,27.3-18.9  c9.2-15.3,22.5-24.5,41.2-24.5c25.3,0,41.7,14.5,41.7,35.6c0,18.9-11.7,28.1-35.9,45.1c-20,13.9-35,28.6-35,55.9v3.6  C228.3,305.6,236.4,313.2,250.6,313.2z M467.2,327.3H512V184.7h-44.8V327.3z M0,327.3h44.8V184.7H0V327.3z M250,396  c16.1,0,30-12.8,30-28.9c0-16.1-13.6-28.9-30-28.9c-16.4,0-30,13.1-30,28.9S233.9,396,250,396z M366.5,512h58.1  c58.1,0,87.3-28.9,87.3-86.2v-60.3h-44.8v58.1c0,28.9-15.6,43.7-43.1,43.7h-57.6V512z M87.3,512h58.1v-44.8H87.9  c-27.8,0-43.1-14.7-43.1-43.7v-58.1H0v60.3C0,483.4,29.2,512,87.3,512z M183.6,512h144.9v-44.8H183.6V512z"/>
</svg>