<?xml version="1.0" encoding="UTF-8"?>
<!--Generator: Apple Native CoreSVG 326-->
<!DOCTYPE svg
PUBLIC "-//W3C//DTD SVG 1.1//EN"
       "http://www.w3.org/Graphics/SVG/1.1/DTD/svg11.dtd">
<svg version="1.1" xmlns="http://www.w3.org/2000/svg" xmlns:xlink="http://www.w3.org/1999/xlink" viewBox="0 0 21.3281 26.9238">
 <g>
  <rect height="26.9238" opacity="0" width="21.3281" x="0" y="0"/>
  <path d="M5.54688 17.3438C5.14648 17.3438 4.85352 17.041 4.85352 16.6602C4.85352 16.2793 5.14648 15.9863 5.54688 15.9863L15.459 15.9863C15.8496 15.9863 16.1426 16.2793 16.1426 16.6602C16.1426 17.041 15.8496 17.3438 15.459 17.3438ZM5.54688 21.1719C5.14648 21.1719 4.85352 20.8789 4.85352 20.5078C4.85352 20.127 5.14648 19.8242 5.54688 19.8242L10.2832 19.8242C10.6738 19.8242 10.9668 20.127 10.9668 20.5078C10.9668 20.8789 10.6738 21.1719 10.2832 21.1719ZM10.2148 11.1816C9.74609 11.1816 9.47266 10.9277 9.47266 10.4492C9.47266 10.3711 9.47266 10.3125 9.47266 10.2441C9.47266 9.24805 9.98047 8.68164 10.7715 8.13477C11.6992 7.48047 12.0996 7.12891 12.0996 6.45508C12.0996 5.64453 11.4746 5.09766 10.4395 5.09766C9.61914 5.09766 9.02344 5.57617 8.76953 6.25L8.63281 6.46484C8.47656 6.70898 8.27148 6.86523 7.93945 6.86523C7.61719 6.86523 7.28516 6.63086 7.28516 6.20117C7.28516 6.04492 7.29492 5.91797 7.32422 5.78125C7.57812 4.61914 8.95508 3.79883 10.5078 3.79883C12.2461 3.79883 13.7012 4.75586 13.7012 6.38672C13.7012 7.55859 13.0469 8.20312 12.0117 8.88672C11.2695 9.39453 10.9668 9.73633 10.9668 10.3125C10.9668 10.3809 10.9668 10.4395 10.9668 10.5078C10.9668 10.8887 10.6738 11.1816 10.2148 11.1816ZM10.2051 14.1797C9.61914 14.1797 9.13086 13.7109 9.13086 13.1543C9.13086 12.5781 9.60938 12.1094 10.2051 12.1094C10.7812 12.1094 11.2598 12.5684 11.2598 13.1543C11.2598 13.7207 10.7617 14.1797 10.2051 14.1797ZM0 23.125C0 25.6445 1.25977 26.9238 3.75977 26.9238L17.207 26.9238C19.707 26.9238 20.9668 25.6445 20.9668 23.125L20.9668 3.80859C20.9668 1.28906 19.707 0.00976562 17.207 0.00976562L3.75977 0.00976562C1.25977 0.00976562 0 1.28906 0 3.80859Z" fill="black" fill-opacity="0.85"/>
 </g>
</svg>
