<?xml version="1.0" ?><!-- Generator: Adobe Illustrator 25.0.0, SVG Export Plug-In . SVG Version: 6.00 Build 0)  --><svg xmlns="http://www.w3.org/2000/svg" xmlns:xlink="http://www.w3.org/1999/xlink" version="1.1" id="Layer_1" x="0px" y="0px" viewBox="0 0 512 512" style="enable-background:new 0 0 512 512;" xml:space="preserve">
<path d="M256,512c140,0,256-116.2,256-256C512,116,395.8,0,255.7,0C116,0,0,116,0,256C0,395.8,116.2,512,256,512z M250.5,309.7  c-13.3,0-20.8-7-20.8-20.6v-3.3c0-25.6,14.1-39.2,32.6-52.2c22.6-15.8,33.4-24.3,33.4-41.9c0-19.6-15.3-32.9-38.7-32.9  c-17.3,0-29.6,8.5-38.1,22.6c-8.5,9.8-10.8,17.6-25.6,17.6c-8.5,0-18.1-6.3-18.1-17.8c0-4.3,1.3-8.8,2.5-12.8  c7-23.8,36.1-44.7,80.8-44.7c44.2,0,82.6,22.8,82.6,66c0,31.1-18.1,46.2-43.2,62.7c-18.1,11.8-26.4,21.1-26.4,35.6v3  C271.6,301.4,263.5,309.7,250.5,309.7z M250,386.8c-15.1,0-28.1-12-28.1-26.9c0-14.8,12.8-27.1,28.1-27.1c15.3,0,28.1,12,28.1,27.1  C278.1,375,265,386.8,250,386.8z"/>
</svg>