<?xml version="1.0" encoding="UTF-8"?>
<!--Generator: Apple Native CoreSVG 326-->
<!DOCTYPE svg
PUBLIC "-//W3C//DTD SVG 1.1//EN"
       "http://www.w3.org/Graphics/SVG/1.1/DTD/svg11.dtd">
<svg version="1.1" xmlns="http://www.w3.org/2000/svg" xmlns:xlink="http://www.w3.org/1999/xlink" viewBox="0 0 27.8711 27.3926">
 <g>
  <rect height="27.3926" opacity="0" width="27.8711" x="0" y="0"/>
  <path d="M27.5098 7.14844L27.5098 17.1094C27.5098 20.5859 25.5371 22.5977 22.002 22.5977L13.0273 22.5977L8.4668 26.709C7.96875 27.168 7.64648 27.3926 7.2168 27.3926C6.5918 27.3926 6.23047 26.9434 6.23047 26.2598L6.23047 22.5977L5.50781 22.5977C1.96289 22.5977 0 20.6055 0 17.1094L0 7.14844C0 3.65234 1.96289 1.64062 5.50781 1.64062L22.002 1.64062C25.5371 1.64062 27.5098 3.66211 27.5098 7.14844ZM12.207 17.2852C12.207 17.959 12.793 18.5156 13.4863 18.5156C14.1699 18.5156 14.7656 17.9688 14.7656 17.2852C14.7656 16.5918 14.1797 16.0449 13.4863 16.0449C12.7832 16.0449 12.207 16.6016 12.207 17.2852ZM9.98047 7.96875C9.93164 8.16406 9.89258 8.35938 9.89258 8.57422C9.89258 9.07227 10.2832 9.35547 10.6641 9.35547C11.0547 9.35547 11.3086 9.16016 11.4941 8.87695L11.6797 8.60352C12.041 7.76367 12.8027 7.19727 13.8086 7.19727C15.0684 7.19727 15.8887 7.90039 15.8887 8.92578C15.8887 9.80469 15.3711 10.2637 14.209 11.0742C13.252 11.748 12.6172 12.4219 12.6172 13.6426C12.6172 13.7207 12.6172 13.7988 12.6172 13.877C12.6172 14.4629 12.9395 14.7656 13.5059 14.7656C14.0625 14.7656 14.4043 14.4141 14.4043 13.9551C14.4043 13.8867 14.4043 13.8086 14.4043 13.7402C14.4043 12.9883 14.8145 12.5293 15.7422 11.9043C17.0215 11.0547 17.832 10.3027 17.832 8.83789C17.832 6.81641 16.0254 5.66406 13.877 5.66406C11.709 5.66406 10.293 6.74805 9.98047 7.96875Z" fill="black" fill-opacity="0.85"/>
 </g>
</svg>
