<?xml version="1.0" encoding="UTF-8"?>
<!--Generator: Apple Native CoreSVG 326-->
<!DOCTYPE svg
PUBLIC "-//W3C//DTD SVG 1.1//EN"
       "http://www.w3.org/Graphics/SVG/1.1/DTD/svg11.dtd">
<svg version="1.1" xmlns="http://www.w3.org/2000/svg" xmlns:xlink="http://www.w3.org/1999/xlink" viewBox="0 0 28.6086 28.2642">
 <g>
  <rect height="28.2642" opacity="0" width="28.6086" x="0" y="0"/>
  <path d="M1.35995 16.8128L11.4478 26.9007C13.235 28.6878 15.0318 28.6975 16.7994 26.93L26.9264 16.7932C28.6939 15.0257 28.6939 13.2288 26.9068 11.4417L16.8189 1.35378C15.0318-0.443093 13.2447-0.452858 11.4674 1.33425L1.32089 11.4612C-0.456453 13.2385-0.436922 15.0257 1.35995 16.8128ZM2.60019 15.6214C1.62363 14.6546 1.61386 13.6194 2.60995 12.6331L12.6295 2.61355C13.6158 1.61745 14.6412 1.62722 15.6178 2.60378L25.6471 12.6331C26.6139 13.5999 26.6432 14.6448 25.6471 15.6311L15.6275 25.6409C14.6314 26.637 13.5963 26.6175 12.6393 25.6604Z" fill="black" fill-opacity="0.85"/>
  <path d="M13.8893 16.7053C14.4264 16.7053 14.7584 16.3635 14.7584 15.9241C14.7584 15.8557 14.7584 15.7776 14.7584 15.7093C14.7584 14.9768 15.1588 14.5276 16.067 13.9124C17.3072 13.0823 18.0982 12.3499 18.0982 10.9241C18.0982 8.9612 16.3404 7.83816 14.2506 7.83816C12.1412 7.83816 10.7643 8.89284 10.4615 10.0843C10.4029 10.2796 10.3736 10.4651 10.3736 10.6702C10.3736 11.1585 10.7447 11.4319 11.1158 11.4319C11.4967 11.4319 11.7408 11.2464 11.9166 10.9632L12.1021 10.6995C12.4439 9.88894 13.1959 9.31277 14.1822 9.31277C15.4225 9.31277 16.2232 10.0061 16.2232 11.012C16.2232 11.8714 15.7154 12.3206 14.5826 13.1116C13.6451 13.7659 13.0299 14.43 13.0299 15.6116C13.0299 15.6897 13.0299 15.7678 13.0299 15.846C13.0299 16.4124 13.3424 16.7053 13.8893 16.7053ZM13.8697 20.3675C14.5338 20.3675 15.1002 19.8303 15.1002 19.1663C15.1002 18.4925 14.5435 17.9651 13.8697 17.9651C13.1861 17.9651 12.6295 18.5022 12.6295 19.1663C12.6295 19.8206 13.1959 20.3675 13.8697 20.3675Z" fill="black" fill-opacity="0.85"/>
 </g>
</svg>
