<?xml version="1.0" ?><!-- Generator: Adobe Illustrator 25.0.0, SVG Export Plug-In . SVG Version: 6.00 Build 0)  --><svg xmlns="http://www.w3.org/2000/svg" xmlns:xlink="http://www.w3.org/1999/xlink" version="1.1" id="Layer_1" x="0px" y="0px" viewBox="0 0 512 512" style="enable-background:new 0 0 512 512;" xml:space="preserve">
<path d="M87.3,512h337.3c58.4,0,87.3-28.9,87.3-86.2V86.2C512,28.9,483.1,0,424.7,0H87.3C29.2,0,0,28.6,0,86.2v339.6  C0,483.4,29.2,512,87.3,512z M250.3,315.1c-14.7,0-22.8-7.8-22.8-22.8v-3.6c0-28.4,15.3-43.4,35.9-57.8c25-17.5,37-27,37-46.4  c0-21.7-17-36.4-42.8-36.4c-19.2,0-32.8,9.5-42.3,25c-9.5,10.8-12,19.5-28.4,19.5c-9.5,0-19.7-7-19.7-19.7c0-4.7,1.1-9.7,2.5-14.2  c8.1-26.4,40.3-49.5,89.6-49.5c48.9,0,91.5,25.3,91.5,73.1c0,34.5-20,51.2-47.8,69.5c-19.7,13.1-29.2,23.4-29.2,39.5v3.3  C273.7,305.9,265,315.1,250.3,315.1z M249.7,400.5c-16.7,0-31.1-13.3-31.1-29.8c0-16.4,14.2-30,31.1-30c17,0,31.1,13.3,31.1,30  S266.4,400.5,249.7,400.5z"/>
</svg>