<?xml version="1.0" ?><!-- Generator: Adobe Illustrator 25.0.0, SVG Export Plug-In . SVG Version: 6.00 Build 0)  --><svg xmlns="http://www.w3.org/2000/svg" xmlns:xlink="http://www.w3.org/1999/xlink" version="1.1" id="Layer_1" x="0px" y="0px" viewBox="0 0 512 512" style="enable-background:new 0 0 512 512;" xml:space="preserve">
<path d="M25.3,305.9l180.8,180.8c33.4,33.4,66.4,33.6,99.6,0.7l181.7-182c33-33,32.7-66.1-0.7-99.6L306.2,25.3  c-33.4-33.4-66.4-33.9-99.6-0.7l-182,181.7C-8.5,239.6-8.1,272.5,25.3,305.9z M51.5,280.9c-16-16.3-16.5-33.2,0.2-49.9L231,51.7  c16.7-16.7,33.6-16.5,49.9-0.2l179.7,179.7c16,16,16.5,33.2-0.2,49.9L281.1,460.4c-16.7,16.7-34.1,16.3-49.9,0.5L51.5,280.9z   M251.5,302.8c11.3,0,18.1-7.2,18.1-16V284c0-12.6,7.5-20.8,23.3-31.2c21.9-14.4,37.5-27.5,37.5-54.6c0-37.5-33.4-57.8-71.8-57.8  c-38.8,0-64.3,18.5-70.4,39.3c-1.4,3.6-2,7.4-2,11.1c0,10.2,7.9,15.6,15.6,15.6c12.6,0,14.9-6.8,22.1-15.4  c7.2-12.4,18.3-19.9,33.2-19.9c20.8,0,34.1,11.7,34.1,28.9c0,15.4-9.5,22.8-29.3,36.6c-16,11.3-28.2,23.3-28.2,45.4v2.9  C233.5,296.7,239.8,302.8,251.5,302.8z M250.8,370.1c13.1,0,24.4-10.4,24.4-23.5c0-13.1-11.1-23.5-24.4-23.5  c-13.1,0-24.2,10.6-24.2,23.5S238,370.1,250.8,370.1z"/>
</svg>