<?xml version="1.0" ?><!-- Generator: Adobe Illustrator 25.0.0, SVG Export Plug-In . SVG Version: 6.00 Build 0)  --><svg xmlns="http://www.w3.org/2000/svg" xmlns:xlink="http://www.w3.org/1999/xlink" version="1.1" id="Layer_1" x="0px" y="0px" viewBox="0 0 512 512" style="enable-background:new 0 0 512 512;" xml:space="preserve">
<path d="M479.5,34c-14.3-14.3-31.2-23.3-50.8-27.1c-19.6-3.8-41.3-5.7-65-5.7H147.4c-23.3,0-44.7,1.9-64.3,5.7  C63.6,10.7,46.7,19.8,32.5,34C18.4,48.1,9.5,64.8,5.7,84.3C1.9,103.7,0,125.1,0,148.4v214.4c0,23.7,1.9,45.3,5.6,64.8  c3.7,19.5,12.7,36.3,26.9,50.4c14.3,14.3,31.1,23.3,50.7,27.1c19.5,3.8,41.1,5.7,64.8,5.7h215.7c23.7,0,45.4-1.9,65-5.7  c19.6-3.8,36.6-12.8,50.8-27.1c14.1-14.1,23-30.9,26.8-50.4c3.8-19.5,5.7-41.1,5.7-64.8V149.2c0-23.7-1.9-45.3-5.7-64.8  C502.5,64.9,493.6,48.1,479.5,34z M467.3,141.5v228.8c0,14.4-1.3,28.5-4,42.1c-2.7,13.6-8.2,24.7-16.5,33.2  c-8.3,8.3-19.4,13.8-33.2,16.5c-13.8,2.7-27.8,4-42.1,4h-231c-14.3,0-28.3-1.3-42.1-4c-13.8-2.7-24.9-8.2-33.5-16.5  c-8.3-8.5-13.8-19.6-16.4-33.2c-2.6-13.6-3.9-27.6-3.9-42.1v-228c0-14.6,1.3-28.8,3.9-42.6c2.6-13.8,8.1-24.9,16.4-33.2  c8.3-8.5,19.5-14.1,33.5-16.7c14-2.6,28.3-3.9,42.9-3.9h230.2c14.3,0,28.3,1.3,42.1,4c13.8,2.7,24.9,8.2,33.2,16.5  c8.5,8.5,14.1,19.6,16.7,33.2C466,113.3,467.3,127.2,467.3,141.5z" class="hierarchical-0:secondary SFSymbolsPreview4D4D4D" style="fill: #4D4D4D;"/>
<path d="M250.7,313.1c6.8,0,12.3-1.9,16.2-5.8c4-3.9,6-8.5,6-13.9c0-0.6,0-1.2,0-1.8c0-0.6,0-1.2,0-1.5c0-7.8,2.3-14.5,6.9-20.1  c4.6-5.6,11.8-11.7,21.7-18.2c13.3-8.9,24.3-18.1,33-27.8c8.7-9.6,13-22.8,13-39.4c0-15.4-4.1-28.3-12.4-38.9  c-8.2-10.6-19-18.6-32.3-24c-13.3-5.5-27.9-8.2-43.6-8.2c-23.9,0-43.4,4.9-58.4,14.6c-15.1,9.7-24.6,21-28.5,33.7  c-0.7,2.2-1.3,4.4-1.7,6.7c-0.4,2.2-0.6,4.5-0.6,6.9c0,6.3,2,11.1,6.1,14.3s8.4,4.9,13.1,4.9c4.6,0,8.6-1,11.8-3.1  c3.2-2,6.1-4.7,8.5-8.1l5-6.7c3.3-5.4,7.1-9.9,11.4-13.7c4.3-3.8,9-6.7,14.3-8.7c5.3-2,11-3.1,17.1-3.1c12.8,0,23,3.3,30.5,9.9  c7.6,6.6,11.4,15.1,11.4,25.7c0,9.4-3,17.2-8.9,23.2c-5.9,6-15,13.3-27.2,21.8c-10,6.8-18.3,14.4-24.9,22.8  c-6.6,8.3-9.9,19.3-9.9,33c0,0.6,0,1.2,0,1.8c0,0.6,0,1.2,0,1.8C228.5,305.7,235.9,313.1,250.7,313.1z M249.9,395.8  c8.1,0,15.2-2.8,21.1-8.3c5.9-5.6,8.9-12.4,8.9-20.5c0-8.1-3-15-8.9-20.5c-5.9-5.6-13-8.3-21.1-8.3c-8.1,0-15.1,2.8-21,8.5  c-5.8,5.6-8.7,12.4-8.7,20.4s3,14.8,8.9,20.4C235,393,241.9,395.8,249.9,395.8z" class="hierarchical-1:primary SFSymbolsPreview212121" style="fill: #212121;"/>
</svg>