<?xml version="1.0" encoding="UTF-8"?>
<!--Generator: Apple Native CoreSVG 326-->
<!DOCTYPE svg
PUBLIC "-//W3C//DTD SVG 1.1//EN"
       "http://www.w3.org/Graphics/SVG/1.1/DTD/svg11.dtd">
<svg version="1.1" xmlns="http://www.w3.org/2000/svg" xmlns:xlink="http://www.w3.org/1999/xlink" viewBox="0 0 28.7305 22.9395">
 <g>
  <rect height="22.9395" opacity="0" width="28.7305" x="0" y="0"/>
  <path d="M9.59961 0.9375L10.3418 1.5625C10.9961 2.12891 11.4941 2.32422 12.4121 2.32422L24.5703 2.32422C27.0898 2.32422 28.3691 3.59375 28.3691 6.08398L28.3691 19.043C28.3691 21.5234 27.0996 22.8027 24.8633 22.8027L3.79883 22.8027C1.2793 22.8027 0 21.5332 0 19.043L0 3.57422C0 1.18164 1.19141 0 3.33008 0L6.91406 0C8.17383 0 8.76953 0.214844 9.59961 0.9375ZM12.7441 17.373C12.7441 18.0176 13.3008 18.5352 13.9453 18.5352C14.5996 18.5352 15.1562 18.0273 15.1562 17.373C15.1562 16.7285 14.6094 16.2109 13.9453 16.2109C13.291 16.2109 12.7441 16.7383 12.7441 17.373ZM10.6445 8.58398C10.5957 8.76953 10.5566 8.94531 10.5566 9.15039C10.5566 9.62891 10.9277 9.89258 11.2891 9.89258C11.6602 9.89258 11.8945 9.70703 12.0703 9.44336L12.2363 9.17969C12.5879 8.38867 13.3008 7.85156 14.248 7.85156C15.4492 7.85156 16.2207 8.51562 16.2207 9.48242C16.2207 10.3125 15.7324 10.752 14.6289 11.5137C13.7305 12.1484 13.125 12.793 13.125 13.9355C13.125 14.0137 13.125 14.0918 13.125 14.1602C13.125 14.7168 13.4375 15 13.9746 15C14.502 15 14.8145 14.668 14.8145 14.2383C14.8145 14.1699 14.8145 14.1016 14.8145 14.0332C14.8145 13.3203 15.1953 12.8809 16.0742 12.3047C17.2852 11.5039 18.0469 10.7812 18.0469 9.4043C18.0469 7.49023 16.3477 6.41602 14.3164 6.41602C12.2656 6.41602 10.9375 7.42188 10.6445 8.58398Z" fill="black" fill-opacity="0.85"/>
 </g>
</svg>
