<?xml version="1.0" ?><!-- Generator: Adobe Illustrator 25.0.0, SVG Export Plug-In . SVG Version: 6.00 Build 0)  --><svg xmlns="http://www.w3.org/2000/svg" xmlns:xlink="http://www.w3.org/1999/xlink" version="1.1" id="Layer_1" x="0px" y="0px" viewBox="0 0 512 512" style="enable-background:new 0 0 512 512;" xml:space="preserve">
<path d="M479.1,33.3c-14.4-14.4-31.6-23.6-51.5-27.4c-19.9-3.8-41.8-5.8-65.8-5.8H149.4c-23.6,0-45.3,1.9-65.1,5.8  c-19.8,3.8-36.9,13-51.3,27.4C18.7,47.6,9.6,64.6,5.8,84.3c-3.8,19.7-5.8,41.4-5.8,65v212.7c0,24,1.9,45.9,5.6,65.7  c3.8,19.8,12.8,36.8,27.3,51.1c14.4,14.4,31.6,23.6,51.3,27.4c19.8,3.8,41.7,5.8,65.7,5.8h211.8c24,0,45.9-1.9,65.8-5.8  c19.9-3.8,37-13,51.5-27.4c14.3-14.3,23.3-31.3,27.1-51.1c3.8-19.8,5.8-41.7,5.8-65.7V150.1c0-24-1.9-45.9-5.8-65.7  C502.4,64.6,493.3,47.6,479.1,33.3z" class="hierarchical-0:tertiary SFSymbolsPreview8E8E8E" style="fill: #8E8E8E;"/>
<path d="M250.4,316.3c-15.6,0-23.3-7.7-23.3-23.1c0-0.6,0-1.2,0-1.8s0-1.3,0-1.8c0-14.4,3.5-26,10.4-34.6  c6.9-8.6,15.6-16.6,25.9-23.9c12.8-8.8,22.2-16.4,28.4-22.6c6.2-6.3,9.3-14.4,9.3-24.3c0-11.1-4-20-12-26.7  c-8-6.8-18.5-10.1-31.6-10.1c-6.4,0-12.3,1-17.7,3.1c-5.4,2.1-10.4,5.1-14.9,9c-4.5,3.9-8.5,8.7-12.1,14.3l-5.1,7  c-2.6,3.4-5.6,6.1-9,8.3c-3.4,2.2-7.5,3.2-12.4,3.2c-4.9,0-9.5-1.7-13.8-5.2c-4.3-3.5-6.5-8.4-6.5-14.8c0-2.4,0.2-4.9,0.7-7.3  c0.5-2.4,1.1-4.8,1.8-7c4.1-13.5,14-25.2,29.7-35.2c15.7-9.9,36.1-14.9,61.2-14.9c16.5,0,31.7,2.8,45.7,8.4  c14,5.6,25.3,13.9,33.9,24.9c8.6,11,12.9,24.5,12.9,40.7c0,17.4-4.5,31.2-13.6,41.4c-9.1,10.1-20.7,19.8-34.7,29  c-10.1,6.6-17.6,12.8-22.5,18.7c-4.9,5.9-7.3,13-7.3,21.2c0,0.4,0,0.9,0,1.5c0,0.7,0,1.3,0,1.8c0,5.8-2.1,10.7-6.2,14.8  C263.4,314.3,257.7,316.3,250.4,316.3z M249.5,402.7c-8.3,0-15.5-2.9-21.8-8.7c-6.3-5.8-9.4-12.9-9.4-21.4c0-8.3,3.1-15.4,9.3-21.4  c6.2-6,13.5-9,21.9-9c8.6,0,16,3,22.2,8.9c6.2,5.9,9.3,13.1,9.3,21.5c0,8.4-3.1,15.6-9.4,21.4C265.3,399.8,258,402.7,249.5,402.7z" class="hierarchical-1:primary SFSymbolsPreview212121" style="fill: #212121;"/>
</svg>