<?xml version="1.0" encoding="UTF-8"?>
<!--Generator: Apple Native CoreSVG 326-->
<!DOCTYPE svg
PUBLIC "-//W3C//DTD SVG 1.1//EN"
       "http://www.w3.org/Graphics/SVG/1.1/DTD/svg11.dtd">
<svg version="1.1" xmlns="http://www.w3.org/2000/svg" xmlns:xlink="http://www.w3.org/1999/xlink" viewBox="0 0 23.3203 22.959">
 <g>
  <rect height="22.959" opacity="0" width="23.3203" x="0" y="0"/>
  <path d="M3.79883 22.959L19.1504 22.959C21.6797 22.959 22.959 21.6797 22.959 19.1992L22.959 3.76953C22.959 1.2793 21.6797 0 19.1504 0L3.79883 0C1.2793 0 0 1.26953 0 3.76953L0 19.1992C0 21.6992 1.2793 22.959 3.79883 22.959ZM3.83789 21.2305C2.4707 21.2305 1.72852 20.5078 1.72852 19.1016L1.72852 3.85742C1.72852 2.46094 2.4707 1.72852 3.83789 1.72852L19.1211 1.72852C20.459 1.72852 21.2305 2.46094 21.2305 3.85742L21.2305 19.1016C21.2305 20.5078 20.459 21.2305 19.1211 21.2305Z" fill="black" fill-opacity="0.85"/>
  <path d="M11.2402 14.0527C11.7871 14.0527 12.1094 13.7109 12.1094 13.2715C12.1094 13.2031 12.1094 13.125 12.1094 13.0566C12.1094 12.3242 12.5098 11.875 13.418 11.2598C14.6582 10.4297 15.4492 9.69727 15.4492 8.27148C15.4492 6.30859 13.6914 5.18555 11.6016 5.18555C9.49219 5.18555 8.11523 6.24023 7.8125 7.43164C7.75391 7.62695 7.72461 7.8125 7.72461 8.01758C7.72461 8.50586 8.0957 8.7793 8.4668 8.7793C8.84766 8.7793 9.0918 8.59375 9.26758 8.31055L9.45312 8.04688C9.79492 7.23633 10.5469 6.66016 11.5332 6.66016C12.7734 6.66016 13.5742 7.35352 13.5742 8.35938C13.5742 9.21875 13.0664 9.66797 11.9336 10.459C10.9961 11.1133 10.3809 11.7773 10.3809 12.959C10.3809 13.0371 10.3809 13.1152 10.3809 13.1934C10.3809 13.7598 10.6934 14.0527 11.2402 14.0527ZM11.2207 17.7148C11.8848 17.7148 12.4609 17.1777 12.4609 16.5137C12.4609 15.8398 11.8945 15.3125 11.2207 15.3125C10.5371 15.3125 9.98047 15.8496 9.98047 16.5137C9.98047 17.168 10.5469 17.7148 11.2207 17.7148Z" fill="black" fill-opacity="0.85"/>
 </g>
</svg>
