<?xml version="1.0" ?><!-- Generator: Adobe Illustrator 25.0.0, SVG Export Plug-In . SVG Version: 6.00 Build 0)  --><svg xmlns="http://www.w3.org/2000/svg" xmlns:xlink="http://www.w3.org/1999/xlink" version="1.1" id="Layer_1" x="0px" y="0px" viewBox="0 0 512 512" style="enable-background:new 0 0 512 512;" xml:space="preserve">
<path d="M70.8,462.3H448c40.4,0,64-23.4,64-69.9V160.9c0-46.4-23.9-69.9-70.8-69.9H224.8c-15.3,0-24.6-3.6-35.8-13.3l-13.8-11.3  c-14.9-12.6-26.4-16.7-48.7-16.7H62.2C22.8,49.7,0,72.3,0,117.6v274.8C0,439.1,23.7,462.3,70.8,462.3z M252.1,320  c-11.3,0-17.4-5.9-17.4-17.1v-2.7c0-21.4,11.5-32.7,27.1-43.5c18.9-13.3,28-20.3,28-34.9c0-16.5-12.9-27.5-32.5-27.5  c-14.2,0-24.6,7-31.6,18.9c-7.2,8.1-9.2,14.7-21.4,14.7c-7.2,0-15.1-5.4-15.1-14.9c0-3.6,0.9-7.4,2-10.8  c5.9-19.8,30.2-37.2,67.4-37.2c37,0,69,18.9,69,55.2c0,25.7-15.1,38.3-36.1,52.3c-14.9,9.7-22.1,17.4-22.1,29.5v2.5  C269.4,313.3,262.9,320,252.1,320z M251.4,384.3c-12.4,0-23.2-9.9-23.2-22.3c0-12.4,10.6-22.5,23.2-22.5c12.9,0,23.4,9.9,23.4,22.5  C274.8,374.6,264,384.3,251.4,384.3z"/>
</svg>