<?xml version="1.0" encoding="UTF-8"?>
<!--Generator: Apple Native CoreSVG 326-->
<!DOCTYPE svg
PUBLIC "-//W3C//DTD SVG 1.1//EN"
       "http://www.w3.org/Graphics/SVG/1.1/DTD/svg11.dtd">
<svg version="1.1" xmlns="http://www.w3.org/2000/svg" xmlns:xlink="http://www.w3.org/1999/xlink" viewBox="0 0 32.3242 20.4199">
 <g>
  <rect height="20.4199" opacity="0" width="32.3242" x="0" y="0"/>
  <path d="M23.3008 4.00391L23.3008 16.3965C23.3008 18.9551 21.8066 20.4102 19.2383 20.4102L5.57617 20.4102C3.00781 20.4102 1.51367 18.9551 1.51367 16.3965L1.51367 4.00391C1.51367 1.45508 3.0957 0 5.57617 0L19.3359 0C21.9043 0 23.3008 1.45508 23.3008 4.00391ZM32.3242 3.66211L32.3242 16.7383C32.3242 17.7441 31.7188 18.4082 30.8008 18.4082C30.332 18.4082 29.8633 18.1738 29.4238 17.8027L24.8535 13.916L24.8535 6.47461L29.4238 2.60742C29.8633 2.23633 30.332 2.00195 30.8008 2.00195C31.7188 2.00195 32.3242 2.66602 32.3242 3.66211ZM10.918 14.9219C10.918 15.5273 11.4453 16.0352 12.0703 16.0352C12.6953 16.0352 13.2227 15.5371 13.2227 14.9219C13.2227 14.2969 12.7051 13.7988 12.0703 13.7988C11.4355 13.7988 10.918 14.2969 10.918 14.9219ZM8.89648 6.47461C8.84766 6.65039 8.80859 6.83594 8.80859 7.02148C8.80859 7.48047 9.17969 7.73438 9.52148 7.73438C10.0879 7.73438 10.1953 7.42188 10.498 7.02148C10.8203 6.2793 11.4551 5.77148 12.3633 5.77148C13.5156 5.77148 14.2578 6.40625 14.2578 7.34375C14.2578 8.13477 13.7793 8.56445 12.7344 9.28711C11.8652 9.90234 11.2891 10.5176 11.2891 11.6113C11.2891 11.6895 11.2891 11.7578 11.2891 11.8359C11.2891 12.3633 11.5723 12.6367 12.0996 12.6367C12.6074 12.6367 12.9102 12.3242 12.9102 11.9141C12.9102 11.8457 12.9102 11.7773 12.9102 11.709C12.9102 11.0254 13.2812 10.6055 14.1309 10.0488C15.2832 9.27734 16.0156 8.59375 16.0156 7.26562C16.0156 5.43945 14.3848 4.38477 12.4316 4.38477C10.459 4.38477 9.19922 5.36133 8.89648 6.47461Z" fill="black" fill-opacity="0.85"/>
 </g>
</svg>
