<?xml version="1.0" encoding="UTF-8"?>
<!--Generator: Apple Native CoreSVG 326-->
<!DOCTYPE svg
PUBLIC "-//W3C//DTD SVG 1.1//EN"
       "http://www.w3.org/Graphics/SVG/1.1/DTD/svg11.dtd">
<svg version="1.1" xmlns="http://www.w3.org/2000/svg" xmlns:xlink="http://www.w3.org/1999/xlink" viewBox="0 0 32.5 20.6348">
 <g>
  <rect height="20.6348" opacity="0" width="32.5" x="0" y="0"/>
  <path d="M6.24023 20.6152L19.6289 20.6152C22.6172 20.6152 24.3652 18.8965 24.3652 15.918L24.3652 4.69727C24.3652 1.71875 22.6172 0 19.6289 0L6.24023 0C3.36914 0 1.50391 1.71875 1.50391 4.69727L1.50391 15.918C1.50391 18.8965 3.26172 20.6152 6.24023 20.6152ZM6.55273 18.9941C4.41406 18.9941 3.23242 17.8906 3.23242 15.6543L3.23242 4.9707C3.23242 2.72461 4.41406 1.62109 6.55273 1.62109L19.3164 1.62109C21.4551 1.62109 22.6367 2.72461 22.6367 4.9707L22.6367 15.6543C22.6367 17.8906 21.4551 18.9941 19.3164 18.9941ZM24.1016 6.95312L24.1016 8.98438L30.1172 4.07227C30.2734 3.94531 30.4004 3.85742 30.5371 3.85742C30.7324 3.85742 30.8301 4.01367 30.8301 4.25781L30.8301 16.3574C30.8301 16.6113 30.7324 16.7578 30.5371 16.7578C30.4004 16.7578 30.2734 16.6602 30.1172 16.543L24.1016 11.6309L24.1016 13.6719L29.2773 17.998C29.7754 18.3984 30.293 18.6719 30.8105 18.6719C31.8262 18.6719 32.5 17.9297 32.5 16.8164L32.5 3.80859C32.5 2.69531 31.8262 1.94336 30.8105 1.94336C30.293 1.94336 29.7754 2.2168 29.2773 2.62695Z" fill="black" fill-opacity="0.85"/>
  <path d="M12.6367 12.6953C13.1152 12.6953 13.418 12.3926 13.418 11.9922C13.418 11.9238 13.418 11.8555 13.418 11.7871C13.418 11.123 13.7695 10.7129 14.6094 10.166C15.7324 9.41406 16.4355 8.75 16.4355 7.45117C16.4355 5.67383 14.8535 4.64844 12.9492 4.64844C11.0352 4.64844 9.80469 5.60547 9.51172 6.68945C9.45312 6.86523 9.42383 7.04102 9.42383 7.22656C9.42383 7.66602 9.78516 7.91016 10.1074 7.91016C10.6543 7.91016 10.7715 7.60742 11.0645 7.22656C11.377 6.49414 11.9922 5.98633 12.8906 5.98633C14.0234 5.98633 14.7461 6.61133 14.7461 7.5293C14.7461 8.31055 14.2871 8.7207 13.2617 9.43359C12.4121 10.0293 11.8555 10.6348 11.8555 11.6992C11.8555 11.7773 11.8555 11.8457 11.8555 11.9238C11.8555 12.4316 12.1289 12.6953 12.6367 12.6953ZM12.6074 16.0059C13.2031 16.0059 13.7207 15.5273 13.7207 14.9219C13.7207 14.3164 13.2129 13.8379 12.6074 13.8379C11.9922 13.8379 11.4844 14.3164 11.4844 14.9219C11.4844 15.5176 12.002 16.0059 12.6074 16.0059Z" fill="black" fill-opacity="0.85"/>
 </g>
</svg>
