<?xml version="1.0" ?><!-- Generator: Adobe Illustrator 25.0.0, SVG Export Plug-In . SVG Version: 6.00 Build 0)  --><svg xmlns="http://www.w3.org/2000/svg" xmlns:xlink="http://www.w3.org/1999/xlink" version="1.1" id="Layer_1" x="0px" y="0px" viewBox="0 0 512 512" style="enable-background:new 0 0 512 512;" xml:space="preserve">
<path d="M0,206.7c0,20.6,4.7,39.4,14,56.2c9.3,16.8,21.9,30.2,37.7,40.1s33.6,14.9,53.3,14.9c13.8,0,27.1-2.7,39.8-8.1  c12.7-5.4,23.9-13.5,33.5-24.2h6.3c-3.4,11-8.4,21.5-15,31.4c-6.6,9.9-14.5,19-23.6,27.3c-9.1,8.3-19.3,15.6-30.6,22  c-11.2,6.4-23.2,11.4-35.9,15.1c-3.7,1.2-6.9,2.4-9.7,3.5c-2.7,1.1-4.8,2.3-6.4,3.7c-1.9,1.4-3.3,3.1-4.2,5.1c-0.9,2-1.4,4.3-1.4,7  c0,4.8,1.6,8.8,4.9,11.9c3.3,3.1,7.6,4.7,13,4.7c3.9,0,7.4-0.4,10.7-1.2c3.3-0.8,7.4-1.9,12.6-3.5c16-5.3,31.1-12.4,45.2-21.3  c14.2-8.9,26.9-19.3,38-31.1c15.5-16.3,27.8-35.2,36.9-56.8c9.1-21.6,13.6-45.2,13.6-70.9c0-29-5.5-53.8-16.5-74.3  c-11-20.5-25.6-36.3-43.8-47.1c-18.2-10.9-38.2-16.3-59.9-16.3c-21.4,0-40.6,5-57.5,14.9C38,119.6,24.6,133,14.8,149.8  C4.9,166.6,0,185.6,0,206.7z M279.4,206.7c0,20.6,4.7,39.4,14,56.2c9.3,16.8,21.9,30.2,37.7,40.1c15.8,9.9,33.6,14.9,53.3,14.9  c13.8,0,27-2.7,39.7-8.1c12.6-5.4,23.8-13.5,33.6-24.2h6.1c-3.3,11-8.2,21.5-14.8,31.4c-6.6,9.9-14.5,19-23.6,27.3  c-9.1,8.3-19.4,15.6-30.7,22c-11.3,6.4-23.3,11.4-36.1,15.1c-3.7,1.2-6.9,2.4-9.5,3.5c-2.6,1.1-4.7,2.3-6.3,3.7  c-1.9,1.4-3.3,3.1-4.3,5.1c-1,2-1.5,4.3-1.5,7c0,4.8,1.7,8.8,5.1,11.9c3.4,3.1,7.8,4.7,13.3,4.7c3.6,0,7-0.4,10.4-1.2  c3.3-0.8,7.5-1.9,12.4-3.5c16-5.3,31.1-12.4,45.2-21.3c14.2-8.9,26.8-19.3,37.8-31.1c15.8-16.3,28.3-35.2,37.3-56.8  c9.1-21.6,13.6-45.2,13.6-70.9c0-29-5.5-53.8-16.5-74.3s-25.6-36.3-43.8-47.1c-18.2-10.9-38.2-16.3-59.9-16.3  c-21.4,0-40.6,5-57.5,14.9c-16.9,9.9-30.3,23.3-40.1,40.1C284.3,166.6,279.4,185.6,279.4,206.7z"/>
</svg>