<?xml version="1.0" ?><!-- Generator: Adobe Illustrator 25.0.0, SVG Export Plug-In . SVG Version: 6.00 Build 0)  --><svg xmlns="http://www.w3.org/2000/svg" xmlns:xlink="http://www.w3.org/1999/xlink" version="1.1" id="Layer_1" x="0px" y="0px" viewBox="0 0 512 512" style="enable-background:new 0 0 512 512;" xml:space="preserve">
<path d="M138,497c9.1,0,15.8-4.6,26.7-14.9l83.9-76.7l157,0.2C474.8,406,512,367.4,512,299.3V121.4C512,53.3,474.8,15,405.6,15  H106.4C37.2,15,0,53.1,0,121.4v177.9c0,68.3,37.2,106.2,106.4,106.2h10.9v67.6C117.3,487.5,124.7,497,138,497z M144.3,186  c0-27.6,21.1-47.2,49-47.2c30,0,50.2,24.2,50.2,55.5c0,58.8-46.9,86.7-70.4,86.7c-6.5,0-11.4-4.9-11.4-10.7c0-5.6,2.3-9.5,11.2-11.6  c15.1-3.9,32.8-16.3,41.1-35.1h-1.9c-6,7.4-15.6,9.1-25.1,9.1C160.8,232.7,144.3,212,144.3,186z M269,186  c0-27.6,20.9-47.2,48.8-47.2c30,0,50.4,24.2,50.4,55.5c0,58.8-46.9,86.7-70.4,86.7c-6.5,0-11.4-4.9-11.4-10.7  c0-5.6,2.3-9.5,10.9-11.6c15.3-3.9,33-16.3,41.4-35.1h-1.9c-6,7.4-15.6,9.1-25.3,9.1C285.5,232.7,269,212,269,186z"/>
</svg>