<?xml version="1.0" encoding="UTF-8"?>
<!--Generator: Apple Native CoreSVG 326-->
<!DOCTYPE svg
PUBLIC "-//W3C//DTD SVG 1.1//EN"
       "http://www.w3.org/Graphics/SVG/1.1/DTD/svg11.dtd">
<svg version="1.1" xmlns="http://www.w3.org/2000/svg" xmlns:xlink="http://www.w3.org/1999/xlink" viewBox="0 0 27.8711 27.2754">
 <g>
  <rect height="27.2754" opacity="0" width="27.8711" x="0" y="0"/>
  <path d="M7.42188 27.2754C7.95898 27.2754 8.33008 26.9922 8.96484 26.4258L13.3691 22.5488L22.002 22.5488C25.5371 22.5488 27.5098 20.5273 27.5098 17.0508L27.5098 7.08984C27.5098 3.60352 25.5371 1.58203 22.002 1.58203L5.50781 1.58203C1.96289 1.58203 0 3.59375 0 7.08984L0 17.0508C0 20.5469 1.96289 22.5488 5.50781 22.5488L6.24023 22.5488L6.24023 25.9082C6.24023 26.7383 6.66992 27.2754 7.42188 27.2754ZM7.85156 25.3125L7.85156 21.6406C7.85156 21.0449 7.62695 20.8203 7.04102 20.8203L5.51758 20.8203C2.99805 20.8203 1.72852 19.4727 1.72852 17.0312L1.72852 7.09961C1.72852 4.6582 2.99805 3.31055 5.51758 3.31055L21.9922 3.31055C24.4824 3.31055 25.7812 4.6582 25.7812 7.09961L25.7812 17.0312C25.7812 19.4727 24.4824 20.8203 21.9922 20.8203L13.3301 20.8203C12.7148 20.8203 12.3926 20.918 11.9629 21.3574Z" fill="black" fill-opacity="0.85"/>
  <path d="M7.65625 10.752C7.65625 12.1777 8.56445 13.2715 9.98047 13.2715C10.5273 13.2715 11.0547 13.1445 11.3965 12.7246L11.5039 12.7246C11.0449 13.8281 9.99023 14.5215 9.21875 14.7266C8.7793 14.8438 8.64258 15.0391 8.64258 15.3223C8.64258 15.625 8.88672 15.8691 9.22852 15.8691C10.4297 15.8691 13.0273 14.4043 13.0273 11.2207C13.0273 9.48242 11.875 8.21289 10.293 8.21289C8.78906 8.21289 7.65625 9.27734 7.65625 10.752ZM14.502 10.752C14.502 12.1777 15.4102 13.2715 16.8262 13.2715C17.373 13.2715 17.9004 13.1445 18.2422 12.7246L18.3398 12.7246C17.8906 13.8281 16.8359 14.5215 16.0645 14.7266C15.625 14.8438 15.4883 15.0391 15.4883 15.3223C15.4883 15.625 15.7324 15.8691 16.0742 15.8691C17.2754 15.8691 19.8633 14.4043 19.8633 11.2207C19.8633 9.48242 18.7109 8.21289 17.1289 8.21289C15.6348 8.21289 14.502 9.27734 14.502 10.752Z" fill="black" fill-opacity="0.85"/>
 </g>
</svg>
