<?xml version="1.0" ?><!-- Generator: Adobe Illustrator 25.0.0, SVG Export Plug-In . SVG Version: 6.00 Build 0)  --><svg xmlns="http://www.w3.org/2000/svg" xmlns:xlink="http://www.w3.org/1999/xlink" version="1.1" id="Layer_1" x="0px" y="0px" viewBox="0 0 512 512" style="enable-background:new 0 0 512 512;" xml:space="preserve">
<path d="M232.6,305.3c0-20.6-4.7-39.4-14-56.2c-9.3-16.8-21.9-30.2-37.7-40.1c-15.8-9.9-33.6-14.9-53.3-14.9  c-13.8,0-27,2.7-39.7,8.1c-12.6,5.4-23.8,13.5-33.6,24.2h-6.3c3.4-11,8.4-21.5,15-31.4s14.5-19,23.6-27.3c9.1-8.3,19.4-15.6,30.7-22  c11.3-6.4,23.3-11.4,36.1-15.1c3.7-1.2,6.9-2.4,9.5-3.5c2.6-1.1,4.7-2.3,6.3-3.7c1.9-1.4,3.3-3.1,4.3-5.1c1-2,1.5-4.3,1.5-7  c0-4.8-1.7-8.8-5.1-11.9c-3.4-3.1-7.8-4.7-13.3-4.7c-3.6,0-7,0.4-10.4,1.2c-3.3,0.8-7.5,1.9-12.4,3.5c-16.1,5.3-31.2,12.4-45.4,21.3  c-14.1,8.9-26.8,19.3-37.9,31.1c-15.7,16.3-28,35.2-37.1,56.8C4.5,230.1,0,253.8,0,279.5c0,29,5.5,53.8,16.5,74.3  c11,20.5,25.6,36.3,43.8,47.1s38.2,16.3,59.9,16.3c21.2,0,40.4-5,57.3-14.9c17-9.9,30.4-23.3,40.2-40.1  C227.7,345.4,232.6,326.4,232.6,305.3z M512,305.3c0-20.6-4.7-39.4-14-56.2c-9.3-16.8-21.9-30.2-37.7-40.1  c-15.8-9.9-33.6-14.9-53.3-14.9c-13.8,0-27.1,2.7-39.8,8.1c-12.7,5.4-23.9,13.5-33.5,24.2h-6.3c3.3-11,8.2-21.5,14.8-31.4  s14.5-19,23.7-27.3c9.2-8.3,19.5-15.6,30.7-22c11.2-6.4,23.2-11.4,35.9-15.1c3.7-1.2,6.9-2.4,9.7-3.5c2.7-1.1,4.8-2.3,6.4-3.7  c1.9-1.4,3.3-3.1,4.2-5.1c0.9-2,1.4-4.3,1.4-7c0-4.8-1.6-8.8-4.9-11.9c-3.3-3.1-7.7-4.7-13.3-4.7c-3.7,0-7.2,0.4-10.5,1.2  c-3.3,0.8-7.4,1.9-12.6,3.5c-16,5.3-31.1,12.4-45.2,21.3c-14.2,8.9-26.9,19.3-38,31.1c-15.5,16.3-27.8,35.2-36.9,56.8  s-13.6,45.2-13.6,70.9c0,29,5.5,53.8,16.5,74.3c11,20.5,25.6,36.3,43.8,47.1c18.2,10.9,38.2,16.3,59.9,16.3c21.4,0,40.6-5,57.5-14.9  c16.9-9.9,30.3-23.3,40.1-40.1C507.1,345.4,512,326.4,512,305.3z"/>
</svg>