<?xml version="1.0" ?><!-- Generator: Adobe Illustrator 25.0.0, SVG Export Plug-In . SVG Version: 6.00 Build 0)  --><svg xmlns="http://www.w3.org/2000/svg" xmlns:xlink="http://www.w3.org/1999/xlink" version="1.1" id="Layer_1" x="0px" y="0px" viewBox="0 0 512 512" style="enable-background:new 0 0 512 512;" xml:space="preserve">
<path d="M256,512c140,0,256-116.2,256-256C512,116,395.8,0,255.7,0C116,0,0,116,0,256C0,395.8,116.2,512,256,512z M256,469.3  c-118.5,0-213.1-94.9-213.1-213.3S137.3,42.7,255.7,42.7S469.1,137.5,469.3,256S374.5,469.3,256,469.3z M191.5,370.9  c13.1,0,20.3-8.3,20.3-22.1v-62.5h46.7l43.4,71.5c6,9.5,11.3,13.1,20.1,13.1c10.8,0,18.3-6.8,18.3-17.1c0-5.3-1.5-9.5-4.8-14.3  l-37.6-59c29.6-9.8,48.7-36.1,48.7-67.3c0-45.2-32.4-74-83.3-74h-72c-12.8,0-19.6,9.3-19.6,22.8v186.7  C171.7,362.2,178.7,370.9,191.5,370.9z M211.8,257v-87.1h46.7c28.9,0,48.4,16.1,48.4,44.4c0,27.4-19.1,42.7-49.4,42.7H211.8z"/>
</svg>