<?xml version="1.0" encoding="UTF-8"?>
<!--Generator: Apple Native CoreSVG 326-->
<!DOCTYPE svg
PUBLIC "-//W3C//DTD SVG 1.1//EN"
       "http://www.w3.org/Graphics/SVG/1.1/DTD/svg11.dtd">
<svg version="1.1" xmlns="http://www.w3.org/2000/svg" xmlns:xlink="http://www.w3.org/1999/xlink" viewBox="0 0 28.8086 24.1504">
 <g>
  <rect height="24.1504" opacity="0" width="28.8086" x="0" y="0"/>
  <path d="M14.2285 20.3516C15.9647 20.3516 17.5834 20.1863 19.0527 19.8669L19.0527 20.4297C19.0527 22.7734 17.2559 24.1504 14.2285 24.1504C11.1914 24.1504 9.39453 22.7734 9.39453 20.4297L9.39453 19.8657C10.8664 20.186 12.4884 20.3516 14.2285 20.3516Z" fill="black" fill-opacity="0.85"/>
  <path d="M14.2285 18.9844C22.0703 18.9844 27.0898 15.5078 27.0898 10.6348C27.0898 5.77148 22.0605 2.28516 14.209 2.28516C6.38672 2.28516 1.35742 5.77148 1.35742 10.6348C1.35742 15.5078 6.38672 18.9844 14.2285 18.9844ZM14.2285 17.1484C7.69531 17.1484 3.29102 14.502 3.29102 10.6348C3.29102 6.77734 7.69531 4.13086 14.209 4.13086C20.7422 4.13086 25.166 6.77734 25.166 10.6348C25.166 14.502 20.752 17.1484 14.2285 17.1484Z" fill="black" fill-opacity="0.85"/>
  <path d="M12.1191 14.4043C12.5391 14.4043 12.8027 14.1113 12.8027 13.6719L12.8027 11.5723L14.2383 11.5723L15.7129 13.9941C15.8984 14.2969 16.0645 14.4141 16.3477 14.4141C16.6895 14.4141 16.9727 14.1699 16.9727 13.8184C16.9727 13.6426 16.9141 13.4961 16.8164 13.3496L15.5859 11.3574C16.5234 11.0156 17.1094 10.1758 17.1094 9.15039C17.1094 7.67578 16.0449 6.70898 14.4336 6.70898L12.1191 6.70898C11.7188 6.70898 11.4746 6.99219 11.4746 7.45117L11.4746 13.6719C11.4746 14.1113 11.7285 14.4043 12.1191 14.4043ZM12.8027 10.498L12.8027 7.8125L14.3066 7.8125C15.2148 7.8125 15.7812 8.33984 15.7812 9.16992C15.7812 10 15.2246 10.498 14.2871 10.498Z" fill="black" fill-opacity="0.85"/>
 </g>
</svg>
