<?xml version="1.0" ?><!-- Generator: Adobe Illustrator 25.0.0, SVG Export Plug-In . SVG Version: 6.00 Build 0)  --><svg xmlns="http://www.w3.org/2000/svg" xmlns:xlink="http://www.w3.org/1999/xlink" version="1.1" id="Layer_1" x="0px" y="0px" viewBox="0 0 512 512" style="enable-background:new 0 0 512 512;" xml:space="preserve">
<path d="M256,409.6c36.1,0,68.3-3.8,96.8-11.3c28.5-7.5,52.7-18,72.6-31.3c19.9-13.4,35.1-28.8,45.5-46.3  c10.4-17.5,15.7-36.3,15.7-56.5c0-20-5.2-38.8-15.7-56.4c-10.4-17.6-25.7-33-45.7-46.3c-20-13.3-44.2-23.7-72.7-31.2  c-28.5-7.5-60.8-11.3-96.8-11.3c-35.9,0-68.1,3.8-96.6,11.3c-28.5,7.5-52.7,17.9-72.6,31.2c-19.9,13.3-35.1,28.7-45.5,46.3  c-10.4,17.6-15.7,36.4-15.7,56.4c0,20.1,5.2,39,15.7,56.5c10.4,17.5,25.6,33,45.5,46.3c19.9,13.4,44.1,23.8,72.6,31.3  C187.6,405.9,219.9,409.6,256,409.6z M256,512c27.4,0,48.7-6.1,64.1-18.3c15.4-12.2,23.1-29.1,23.1-50.7v-11.3  c-13.7,2.7-27.8,4.8-42.3,6.3c-14.5,1.5-29.5,2.3-45,2.3c-15.3,0-30.3-0.8-44.9-2.3c-14.6-1.5-28.6-3.6-42.2-6.3V443  c0,21.6,7.7,38.6,23,50.7C207.3,505.9,228.6,512,256,512z" class="hierarchical-0:tertiary SFSymbolsPreview8E8E8E" style="fill: #8E8E8E;"/>
<path d="M219,333.7c-9.3,0-14-5.2-14-15.6V208.3c0-10.7,4.7-16,14-16h42.4c15.5,0,27.9,4.2,37.2,12.5c9.3,8.3,14,19.5,14,33.5  c0,9.2-2.4,17.4-7.3,24.6c-4.9,7.2-11.5,12.5-20,16l21,32.7c1.1,1.7,1.8,3.3,2.4,4.8c0.5,1.6,0.8,3.3,0.8,5.1c0,3.8-1.3,6.8-3.9,9.1  c-2.6,2.3-5.7,3.5-9.4,3.5c-3,0-5.5-0.7-7.6-2.1c-2-1.4-4-3.7-6-6.9l-25.5-41.5h-23.7v34.5c0,4.7-1.3,8.4-3.9,11.3  C226.9,332.2,223.4,333.7,219,333.7z M200.8,27.5l45.1,60.4c3,4.2,7,6.3,11.8,6.3c4.9,0,8.8-2.1,11.8-6.3l45.1-60.4  c4.5-6,5.7-12.1,3.5-18.3c-2.2-6.2-7.3-9.2-15.2-9.2h-90.4c-7.7,0-12.7,3-15.1,9.1C195,15.2,196.1,21.3,200.8,27.5z M233.5,261.5  H258c8.4,0,14.9-2,19.4-6c4.5-4,6.8-9.6,6.8-16.8c0-7.2-2.3-12.9-6.8-17.1c-4.5-4.2-10.8-6.3-18.9-6.3h-25V261.5z" class="hierarchical-1:primary SFSymbolsPreview212121" style="fill: #212121;"/>
</svg>