<?xml version="1.0" encoding="UTF-8"?>
<!--Generator: Apple Native CoreSVG 326-->
<!DOCTYPE svg
PUBLIC "-//W3C//DTD SVG 1.1//EN"
       "http://www.w3.org/Graphics/SVG/1.1/DTD/svg11.dtd">
<svg version="1.1" xmlns="http://www.w3.org/2000/svg" xmlns:xlink="http://www.w3.org/1999/xlink" viewBox="0 0 28.8086 31.6504">
 <g>
  <rect height="31.6504" opacity="0" width="28.8086" x="0" y="0"/>
  <path d="M14.2285 24.1016C15.9647 24.1016 17.5834 23.9363 19.0527 23.6169L19.0527 24.1797C19.0527 26.5234 17.2559 27.9004 14.2285 27.9004C11.1914 27.9004 9.39453 26.5234 9.39453 24.1797L9.39453 23.6157C10.8664 23.936 12.4884 24.1016 14.2285 24.1016Z" fill="black" fill-opacity="0.85"/>
  <path d="M14.2285 22.7344C22.0703 22.7344 27.0898 19.2578 27.0898 14.3848C27.0898 9.52148 22.0605 6.03516 14.209 6.03516C6.38672 6.03516 1.35742 9.52148 1.35742 14.3848C1.35742 19.2578 6.38672 22.7344 14.2285 22.7344ZM14.2285 20.8984C7.69531 20.8984 3.29102 18.252 3.29102 14.3848C3.29102 10.5273 7.69531 7.88086 14.209 7.88086C20.7422 7.88086 25.166 10.5273 25.166 14.3848C25.166 18.252 20.752 20.8984 14.2285 20.8984Z" fill="black" fill-opacity="0.85"/>
  <path d="M12.0703 18.2422C11.6602 18.2422 11.3867 17.9492 11.3867 17.4902L11.3867 11.1328C11.3867 10.6543 11.6504 10.3613 12.0703 10.3613L14.4336 10.3613C16.0938 10.3613 17.1875 11.3574 17.1875 12.8711C17.1875 13.916 16.582 14.7754 15.625 15.127L16.8848 17.1582C16.9824 17.3145 17.041 17.4609 17.041 17.6562C17.041 18.0078 16.748 18.2617 16.3965 18.2617C16.1035 18.2617 15.9277 18.1348 15.7422 17.8223L14.2383 15.3516L12.7734 15.3516L12.7734 17.4902C12.7734 17.9492 12.5 18.2422 12.0703 18.2422ZM12.7734 14.248L14.2871 14.248C15.2441 14.248 15.8105 13.7402 15.8105 12.8906C15.8105 12.041 15.2344 11.5039 14.3066 11.5039L12.7734 11.5039Z" fill="black" fill-opacity="0.85"/>
  <path d="M11.1719 1.38672L13.6035 4.63867C13.9258 5.06836 14.5312 5.06836 14.8535 4.63867L17.2852 1.38672C17.7441 0.78125 17.5 0 16.6895 0L11.7578 0C10.9863 0 10.7031 0.761719 11.1719 1.38672Z" fill="black" fill-opacity="0.85"/>
 </g>
</svg>
