<?xml version="1.0" ?><!-- Generator: Adobe Illustrator 25.0.0, SVG Export Plug-In . SVG Version: 6.00 Build 0)  --><svg xmlns="http://www.w3.org/2000/svg" xmlns:xlink="http://www.w3.org/1999/xlink" version="1.1" id="Layer_1" x="0px" y="0px" viewBox="0 0 512 512" style="enable-background:new 0 0 512 512;" xml:space="preserve">
<path d="M244.1,87.9c6.1,8.3,17.6,8.3,23.7,0L313,27.5c9-11.9,4.1-27.5-11.9-27.5h-90.4c-15.3,0-21,15.1-11.5,27.5L244.1,87.9z   M256,416.4c140.7,0,232.4-62.2,232.4-152.2c0-89.7-92-152-232.7-152c-140.5,0-232.2,62.2-232.2,152  C23.6,354.2,115.3,416.4,256,416.4z M256,377.6c-114.8,0-191.6-46-191.6-113.4s76.9-113.2,191.4-113.2  c114.8,0,191.9,45.8,191.9,113.2S370.8,377.6,256,377.6z M218.3,331.6c8.6,0,14-5.9,14-15.1v-33.6h23l24.8,40.4  c3.8,6.3,7.4,8.6,13.1,8.6c7,0,12.9-5,12.9-12.2c0-3.6-1.1-6.5-3.2-9.5l-20.3-31.8c16.5-6.5,26.4-21.6,26.4-39.5  c0-27.1-19.6-44.4-49.4-44.4h-41.3c-8.1,0-13.3,5.9-13.3,15.3v106.6C205,325.8,210.2,331.6,218.3,331.6z M232.3,261.5v-44.9h24.3  c15.8,0,25.3,8.8,25.3,22.8c0,14-9.2,22.1-25.7,22.1H232.3z M256,512c54.8,0,87.2-25.7,87.2-69v-9c-26.8,5.6-55.9,8.6-87.2,8.6  s-60.4-2.9-87-8.6v9C169,486.3,201.4,512,256,512z"/>
</svg>