<?xml version="1.0" ?><!-- Generator: Adobe Illustrator 25.0.0, SVG Export Plug-In . SVG Version: 6.00 Build 0)  --><svg xmlns="http://www.w3.org/2000/svg" xmlns:xlink="http://www.w3.org/1999/xlink" version="1.1" id="Layer_1" x="0px" y="0px" viewBox="0 0 512 512" style="enable-background:new 0 0 512 512;" xml:space="preserve">
<path d="M256,360.5c159.9,0,256-72.1,256-161.4c0-89.1-96.1-161.2-256.3-161.2C96.1,37.9,0,110,0,199.1  C0,288.4,96.1,360.5,256,360.5z M215,276.1c-9.5,0-15.5-6.8-15.5-17.3V137c0-11,6-17.8,15.5-17.8h47c34.3,0,56.8,20,56.8,51  c0,20.3-11.5,37.5-30.3,45l23.3,36.3c2.3,3.5,3.5,6.8,3.5,11c0,8.3-6.8,14-14.8,14c-6.5,0-10.8-2.8-15-10l-28.3-46H231v38.3  C231,269.4,224.7,276.1,215,276.1z M231,196.1h27.3c18.8,0,29.3-9.3,29.3-25.3s-10.8-26-28.8-26H231V196.1z M256,474.1  c60.8,0,96.8-28.5,96.8-76.6V385c-30.3,6-62.6,9.5-96.8,9.5c-34.3,0-66.6-3.5-96.6-9.5v12.5C159.4,445.6,195.4,474.1,256,474.1z"/>
</svg>