<?xml version="1.0" encoding="UTF-8"?>
<!--Generator: Apple Native CoreSVG 326-->
<!DOCTYPE svg
PUBLIC "-//W3C//DTD SVG 1.1//EN"
       "http://www.w3.org/Graphics/SVG/1.1/DTD/svg11.dtd">
<svg version="1.1" xmlns="http://www.w3.org/2000/svg" xmlns:xlink="http://www.w3.org/1999/xlink" viewBox="0 0 29.0527 31.6504">
 <g>
  <rect height="31.6504" opacity="0" width="29.0527" x="0" y="0"/>
  <path d="M14.3457 24.0039C16.0908 24.0039 17.7066 23.8394 19.1699 23.528L19.1699 24.1797C19.1699 26.5234 17.373 27.9004 14.3457 27.9004C11.3086 27.9004 9.51172 26.5234 9.51172 24.1797L9.51172 23.5257C10.9775 23.8387 12.5966 24.0039 14.3457 24.0039Z" fill="black" fill-opacity="0.85"/>
  <path d="M27.1289 14.3848C27.1289 18.8477 22.334 22.4414 14.3457 22.4414C6.35742 22.4414 1.5625 18.8477 1.5625 14.3848C1.5625 9.93164 6.35742 6.33789 14.3262 6.33789C22.334 6.33789 27.1289 9.93164 27.1289 14.3848ZM12.2656 10.3613C11.8457 10.3613 11.582 10.6543 11.582 11.1328L11.582 17.4902C11.582 17.9492 11.8555 18.2422 12.2656 18.2422C12.6953 18.2422 12.9688 17.9492 12.9688 17.4902L12.9688 15.3516L14.4336 15.3516L15.9375 17.8223C16.123 18.1348 16.2988 18.2617 16.5918 18.2617C16.9434 18.2617 17.2363 18.0078 17.2363 17.6562C17.2363 17.4609 17.1777 17.3145 17.0801 17.1582L15.8203 15.127C16.7773 14.7754 17.3828 13.916 17.3828 12.8711C17.3828 11.3574 16.2891 10.3613 14.6289 10.3613ZM16.0059 12.8906C16.0059 13.7402 15.4395 14.248 14.4824 14.248L12.9688 14.248L12.9688 11.5039L14.502 11.5039C15.4297 11.5039 16.0059 12.041 16.0059 12.8906Z" fill="black" fill-opacity="0.85"/>
  <path d="M11.3672 1.38672L13.7988 4.63867C14.1211 5.06836 14.7266 5.06836 15.0488 4.63867L17.4805 1.38672C17.9395 0.78125 17.6953 0 16.8848 0L11.9531 0C11.1816 0 10.8984 0.761719 11.3672 1.38672Z" fill="black" fill-opacity="0.85"/>
 </g>
</svg>
