<?xml version="1.0" encoding="UTF-8"?>
<!--Generator: Apple Native CoreSVG 326-->
<!DOCTYPE svg
PUBLIC "-//W3C//DTD SVG 1.1//EN"
       "http://www.w3.org/Graphics/SVG/1.1/DTD/svg11.dtd">
<svg version="1.1" xmlns="http://www.w3.org/2000/svg" xmlns:xlink="http://www.w3.org/1999/xlink" viewBox="0 0 28.584 36.6675">
 <g>
  <rect height="36.6675" opacity="0" width="28.584" x="0" y="0"/>
  <path d="M28.2227 18.3289C28.2227 24.5201 24.2185 29.7906 18.6522 31.6754C18.7686 31.0608 18.6434 30.4506 18.3304 29.9596C23.1003 28.2491 26.4941 23.696 26.4941 18.3289C26.4941 11.4636 20.957 5.93628 14.1016 5.93628C7.24609 5.93628 1.72852 11.4734 1.72852 18.3289C1.72852 23.6859 5.10737 28.2417 9.86868 29.9562C9.55399 30.4485 9.42809 31.0598 9.5429 31.6716C3.98688 29.7841 0 24.5163 0 18.3289C0 10.5457 6.30859 4.20777 14.1016 4.20777C21.8945 4.20777 28.2227 10.5359 28.2227 18.3289Z" fill="black" fill-opacity="0.85"/>
  <path d="M11.8848 30.4578C11.084 30.4578 10.8301 31.2488 11.2793 31.8543L13.4668 34.7742C13.7988 35.2136 14.4141 35.2234 14.7363 34.7742L16.9141 31.864C17.3828 31.239 17.0996 30.4578 16.3184 30.4578Z" fill="black" fill-opacity="0.85"/>
  <path d="M14.1016 8.37769C8.61328 8.37769 4.16016 12.8308 4.16016 18.3289C4.16016 23.8269 8.61328 28.2703 14.1016 28.2703C19.6094 28.2703 24.0625 23.8269 24.0625 18.3289C24.0625 12.8308 19.6094 8.37769 14.1016 8.37769ZM14.1016 10.1062C18.6621 10.1062 22.3242 13.7683 22.3242 18.3289C22.3242 22.8796 18.6621 26.5418 14.1016 26.5418C9.55078 26.5418 5.88867 22.8796 5.88867 18.3289C5.88867 13.7683 9.55078 10.1062 14.1016 10.1062ZM11.543 23.1531C12.0801 23.1531 12.4023 22.7918 12.4023 22.2644L12.4023 19.5398L14.3066 19.5398L16.1328 22.6257C16.3574 22.9968 16.5918 23.1531 16.9531 23.1531C17.4023 23.1531 17.7344 22.8503 17.7344 22.4304C17.7344 22.2253 17.666 22.0398 17.5293 21.8347L15.9375 19.2859C17.1387 18.866 17.9297 17.782 17.9297 16.4734C17.9297 14.5984 16.5723 13.3582 14.502 13.3582L11.5332 13.3582C11.0254 13.3582 10.7324 13.7488 10.7324 14.2761L10.7324 22.2644C10.7324 22.782 11.0352 23.1531 11.543 23.1531ZM12.4023 18.2312L12.4023 14.7058L14.3457 14.7058C15.5273 14.7058 16.2988 15.3699 16.2988 16.5027C16.2988 17.616 15.5469 18.2312 14.3164 18.2312Z" fill="black" fill-opacity="0.85"/>
 </g>
</svg>
