<?xml version="1.0" ?><!-- Generator: Adobe Illustrator 25.0.0, SVG Export Plug-In . SVG Version: 6.00 Build 0)  --><svg xmlns="http://www.w3.org/2000/svg" xmlns:xlink="http://www.w3.org/1999/xlink" version="1.1" id="Layer_1" x="0px" y="0px" viewBox="0 0 512 512" style="enable-background:new 0 0 512 512;" xml:space="preserve">
<path d="M182.1,450.9h148c126,0,181.9-57.8,181.9-176.6V126.7c0-43.6-22.2-65.6-66.5-65.6h-379C22.2,61.1,0,82.9,0,126.7v147.6  C0,393.1,55.9,450.9,182.1,450.9z M200.1,356.5c-11.2,0-17.2-7.8-17.2-19.7V174.6c0-11.6,5.9-19.9,16.9-19.9h62.9  c44.3,0,72.4,25.2,72.4,64.4c0,27.3-16.7,50.2-42.1,58.7l32.6,51c2.8,4.4,3.8,7.8,3.8,12.7c0,8.9-6.6,15-15.9,15  c-7.8,0-12.1-3.2-17.4-11.4l-37.9-62.3h-40.7v54C217.7,349.1,211.5,356.5,200.1,356.5z M217.7,257.2h40c26.3,0,42.8-13.3,42.8-37.3  c0-24.4-16.9-38.3-41.9-38.3h-40.9V257.2z"/>
</svg>