<?xml version="1.0" encoding="UTF-8"?>
<!--Generator: Apple Native CoreSVG 326-->
<!DOCTYPE svg
PUBLIC "-//W3C//DTD SVG 1.1//EN"
       "http://www.w3.org/Graphics/SVG/1.1/DTD/svg11.dtd">
<svg version="1.1" xmlns="http://www.w3.org/2000/svg" xmlns:xlink="http://www.w3.org/1999/xlink" viewBox="0 0 29.8438 28.9551">
 <g>
  <rect height="28.9551" opacity="0" width="29.8438" x="0" y="0"/>
  <path d="M27.9297 10.9375L27.9297 23.6621C27.9297 26.1621 26.6504 27.4316 24.1211 27.4316L11.4746 27.4316C8.95508 27.4316 7.66602 26.1523 7.66602 23.6621L7.66602 23.3691L18.0176 23.3691C21.3965 23.3691 23.3691 21.416 23.3691 18.0469L23.3691 7.16797L24.1211 7.16797C26.6504 7.16797 27.9297 8.4375 27.9297 10.9375Z" fill="black" fill-opacity="0.85"/>
  <path d="M21.8164 5.3125L21.8164 18.0469C21.8164 20.5469 20.5371 21.8164 18.0176 21.8164L5.36133 21.8164C2.8418 21.8164 1.55273 20.5371 1.55273 18.0469L1.55273 5.3125C1.55273 2.83203 2.8418 1.55273 5.36133 1.55273L18.0176 1.55273C20.5371 1.55273 21.8164 2.82227 21.8164 5.3125ZM8.37891 5.74219C7.82227 5.74219 7.51953 6.16211 7.51953 6.75781L7.51953 16.582C7.51953 17.1777 7.83203 17.5781 8.38867 17.5781C8.97461 17.5781 9.29688 17.1973 9.29688 16.582L9.29688 13.1055L11.875 13.1055L14.1992 16.9824C14.4629 17.4121 14.6875 17.5781 15.0879 17.5781C15.5664 17.5781 15.8887 17.2656 15.8887 16.8164C15.8887 16.5625 15.8301 16.3867 15.6836 16.1523L13.6328 12.8516C15.166 12.4023 16.1621 11.0645 16.1621 9.44336C16.1621 7.20703 14.5508 5.74219 12.0605 5.74219ZM14.3945 9.48242C14.3945 10.9277 13.3887 11.7773 11.8262 11.7773L9.29688 11.7773L9.29688 7.13867L11.8652 7.13867C13.3691 7.13867 14.3945 8.00781 14.3945 9.48242Z" fill="black" fill-opacity="0.85"/>
 </g>
</svg>
