<?xml version="1.0" ?><!-- Generator: Adobe Illustrator 25.0.0, SVG Export Plug-In . SVG Version: 6.00 Build 0)  --><svg xmlns="http://www.w3.org/2000/svg" xmlns:xlink="http://www.w3.org/1999/xlink" version="1.1" id="Layer_1" x="0px" y="0px" viewBox="0 0 512 512" style="enable-background:new 0 0 512 512;" xml:space="preserve">
<path d="M318.9,2.7H76c-50.6,0-76,25.2-76,75v244.6c0,49.8,25.4,75,76,75h41.4v37c0,49.8,25.4,75,76,75h242.9  c50.6,0,75.7-24.9,75.7-75V189.5c0-49.8-25.2-74.8-75.7-74.8h-41.6v-37C394.6,27.6,369.5,2.7,318.9,2.7z M318.2,41.6  c24.2,0,37.5,12.8,37.5,38v240.8c0,25.2-13.3,38-37.5,38H76.5c-23.7,0-37.5-12.8-37.5-38V79.6c0-25.2,13.8-38,37.5-38H318.2z   M135.5,310.7c12.6,0,19.4-8,19.4-21.3v-60.2h45.2l41.9,69c5.8,9.2,10.6,12.6,19.1,12.6c10.4,0,17.7-6.5,17.7-16.5  c0-5.1-1.2-9.2-4.4-13.8l-36.3-56.9c28.3-9.4,46.9-34.8,46.9-64.8c0-43.6-31.2-71.4-80.3-71.4h-69.4c-12.3,0-18.9,9-18.9,22v180  C116.4,302.2,122.9,310.7,135.5,310.7z M154.9,200.8v-84h45.2c27.8,0,46.5,15.5,46.5,42.8c0,26.4-18.1,41.1-47.4,41.1H154.9z   M193.8,470.4c-23.7,0-37.5-12.8-37.5-38v-35.1h162.6c50.6,0,75.7-24.9,75.7-75V153.6h40.9c24.2,0,37.5,12.8,37.5,38v240.8  c0,25.2-13.3,38-37.5,38H193.8z"/>
</svg>