<?xml version="1.0" ?><!-- Generator: Adobe Illustrator 25.0.0, SVG Export Plug-In . SVG Version: 6.00 Build 0)  --><svg xmlns="http://www.w3.org/2000/svg" xmlns:xlink="http://www.w3.org/1999/xlink" version="1.1" id="Layer_1" x="0px" y="0px" viewBox="0 0 512 512" style="enable-background:new 0 0 512 512;" xml:space="preserve">
<path d="M87.3,512h337.3c58.4,0,87.3-28.9,87.3-86.2V86.2C512,28.9,483.1,0,424.7,0H87.3C29.2,0,0,28.6,0,86.2v339.6  C0,483.4,29.2,512,87.3,512z M182.4,387.1c-14.5,0-22.5-10.6-22.5-25.9v-213c0-15.6,7.8-26.1,22.2-26.1H265  c58.1,0,94.8,32.8,94.8,84.5c0,35.6-21.7,65.6-55.3,76.8l43.1,67.3c3.3,5.8,5,10.3,5,16.7c0,11.7-8.6,19.7-20.9,19.7  c-10.3,0-16.1-4.2-23.1-15.3l-49.5-81.8h-53.4v71.2C205.8,377.1,197.7,387.1,182.4,387.1z M205.8,256.4h52.3  c34.5,0,56.5-17.5,56.5-48.7c0-32-22.5-50.3-55.3-50.3h-53.4V256.4z"/>
</svg>