<?xml version="1.0" encoding="UTF-8"?>
<!--Generator: Apple Native CoreSVG 326-->
<!DOCTYPE svg
PUBLIC "-//W3C//DTD SVG 1.1//EN"
       "http://www.w3.org/Graphics/SVG/1.1/DTD/svg11.dtd">
<svg version="1.1" xmlns="http://www.w3.org/2000/svg" xmlns:xlink="http://www.w3.org/1999/xlink" viewBox="0 0 28.9941 21.6504">
 <g>
  <rect height="21.6504" opacity="0" width="28.9941" x="0" y="0"/>
  <path d="M10.2441 21.6309L18.3887 21.6309C25.5371 21.6309 28.6328 18.3203 28.6328 11.6406L28.6328 3.67188C28.6328 1.25977 27.373 0 24.9316 0L3.71094 0C1.25977 0 0 1.25 0 3.67188L0 11.6406C0 18.3203 3.10547 21.6309 10.2441 21.6309ZM10.2637 19.9023C4.25781 19.9023 1.72852 17.2559 1.72852 11.7383L1.72852 3.75977C1.72852 2.42188 2.43164 1.73828 3.75 1.73828L24.8828 1.73828C26.1816 1.73828 26.9043 2.42188 26.9043 3.75977L26.9043 11.7383C26.9043 17.2559 24.375 19.9023 18.3789 19.9023Z" fill="black" fill-opacity="0.85"/>
  <path d="M9.44336 16.0645C9.94141 16.0645 10.2441 15.7422 10.2441 15.2246L10.2441 11.9141L11.6016 11.9141L13.0273 15.4199C13.1738 15.8398 13.4277 16.0645 13.8672 16.0645C14.2383 16.0645 14.6191 15.8398 14.6191 15.293C14.6191 15.166 14.5605 14.9512 14.4531 14.707L13.125 11.5723C14.1406 11.0938 14.6484 10.0391 14.6484 8.81836C14.6484 6.83594 13.4766 5.73242 11.543 5.73242L9.43359 5.73242C8.91602 5.73242 8.62305 6.04492 8.62305 6.5625L8.62305 15.2246C8.62305 15.7324 8.92578 16.0645 9.44336 16.0645ZM10.2441 10.7129L10.2441 7.02148L11.3965 7.02148C12.4316 7.02148 13.0176 7.74414 13.0176 8.84766C13.0176 9.92188 12.5195 10.7129 11.4062 10.7129ZM18.916 16.0547C19.3457 16.0547 19.707 15.6934 19.707 15.2441L19.707 6.47461C19.707 5.91797 19.3555 5.57617 18.7891 5.57617C18.3301 5.57617 17.959 5.83008 17.6953 6.03516L16.2207 7.20703C16.0254 7.35352 15.8789 7.56836 15.8789 7.85156C15.8789 8.19336 16.1035 8.4375 16.4453 8.4375C16.6211 8.4375 16.7285 8.38867 16.8457 8.30078L18.1055 7.28516L18.1055 15.2441C18.1055 15.6934 18.4668 16.0547 18.916 16.0547Z" fill="black" fill-opacity="0.85"/>
 </g>
</svg>
