<?xml version="1.0" encoding="UTF-8"?>
<!--Generator: Apple Native CoreSVG 326-->
<!DOCTYPE svg
PUBLIC "-//W3C//DTD SVG 1.1//EN"
       "http://www.w3.org/Graphics/SVG/1.1/DTD/svg11.dtd">
<svg version="1.1" xmlns="http://www.w3.org/2000/svg" xmlns:xlink="http://www.w3.org/1999/xlink" viewBox="0 0 25.8008 25.459">
 <g>
  <rect height="25.459" opacity="0" width="25.8008" x="0" y="0"/>
  <path d="M12.7148 25.4395C19.7363 25.4395 25.4395 19.7461 25.4395 12.7246C25.4395 5.70312 19.7363 0 12.7148 0C5.69336 0 0 5.70312 0 12.7246C0 19.7461 5.69336 25.4395 12.7148 25.4395ZM12.7148 23.623C6.68945 23.623 1.81641 18.75 1.81641 12.7246C1.81641 6.69922 6.68945 1.82617 12.7148 1.82617C18.7402 1.82617 23.6133 6.69922 23.6133 12.7246C23.6133 18.75 18.7402 23.623 12.7148 23.623Z" fill="black" fill-opacity="0.85"/>
  <path d="M7.83203 17.9688C8.32031 17.9688 8.62305 17.6367 8.62305 17.1289L8.62305 13.8184L9.98047 13.8184L11.416 17.3242C11.5625 17.7344 11.8164 17.9688 12.2461 17.9688C12.6172 17.9688 12.998 17.7344 12.998 17.1875C12.998 17.0605 12.9492 16.8457 12.832 16.6016L11.5039 13.4766C12.5293 12.9883 13.0273 11.9336 13.0273 10.7129C13.0273 8.74023 11.8555 7.62695 9.93164 7.62695L7.8125 7.62695C7.29492 7.62695 7.01172 7.93945 7.01172 8.45703L7.01172 17.1289C7.01172 17.627 7.30469 17.9688 7.83203 17.9688ZM8.62305 12.6074L8.62305 8.91602L9.78516 8.91602C10.8105 8.91602 11.4062 9.63867 11.4062 10.752C11.4062 11.8164 10.8984 12.6074 9.78516 12.6074ZM17.2949 17.9492C17.7246 17.9492 18.0957 17.5879 18.0957 17.1387L18.0957 8.36914C18.0957 7.8125 17.7344 7.48047 17.1777 7.48047C16.709 7.48047 16.3379 7.72461 16.0742 7.93945L14.5996 9.10156C14.4043 9.25781 14.2578 9.46289 14.2578 9.74609C14.2578 10.0977 14.4922 10.3418 14.834 10.3418C15.0098 10.3418 15.1172 10.2832 15.2246 10.1953L16.4844 9.18945L16.4844 17.1387C16.4844 17.5879 16.8555 17.9492 17.2949 17.9492Z" fill="black" fill-opacity="0.85"/>
 </g>
</svg>
