<?xml version="1.0" encoding="UTF-8"?>
<!--Generator: Apple Native CoreSVG 326-->
<!DOCTYPE svg
PUBLIC "-//W3C//DTD SVG 1.1//EN"
       "http://www.w3.org/Graphics/SVG/1.1/DTD/svg11.dtd">
<svg version="1.1" xmlns="http://www.w3.org/2000/svg" xmlns:xlink="http://www.w3.org/1999/xlink" viewBox="0 0 25.8008 25.459">
 <g>
  <rect height="25.459" opacity="0" width="25.8008" x="0" y="0"/>
  <path d="M25.4395 12.7246C25.4395 19.7266 19.7266 25.4395 12.7148 25.4395C5.71289 25.4395 0 19.7266 0 12.7246C0 5.71289 5.71289 0 12.7148 0C19.7266 0 25.4395 5.71289 25.4395 12.7246ZM7.94922 7.76367C7.44141 7.76367 7.1582 8.06641 7.1582 8.58398L7.1582 17.002C7.1582 17.5 7.45117 17.832 7.96875 17.832C8.4375 17.832 8.74023 17.5098 8.74023 17.002L8.74023 13.7891L10.0586 13.7891L11.4453 17.1973C11.582 17.5977 11.8359 17.832 12.2656 17.832C12.627 17.832 12.998 17.5977 12.998 17.0703C12.998 16.9434 12.9492 16.7285 12.832 16.4941L11.5527 13.457C12.5391 12.9883 13.0273 11.9531 13.0273 10.7715C13.0273 8.84766 11.8848 7.76367 10.0098 7.76367ZM15.9863 8.06641L14.5605 9.19922C14.3652 9.3457 14.2188 9.55078 14.2188 9.83398C14.2188 10.1758 14.4531 10.4102 14.7852 10.4102C14.9512 10.4102 15.0586 10.3613 15.1758 10.2734L16.3965 9.28711L16.3965 17.0117C16.3965 17.4609 16.748 17.8125 17.1875 17.8125C17.6074 17.8125 17.9688 17.4609 17.9688 17.0117L17.9688 8.49609C17.9688 7.94922 17.6172 7.61719 17.0703 7.61719C16.6113 7.61719 16.25 7.87109 15.9863 8.06641ZM11.4355 10.8105C11.4355 11.8457 10.9473 12.6172 9.87305 12.6172L8.74023 12.6172L8.74023 9.0332L9.86328 9.0332C10.8691 9.0332 11.4355 9.73633 11.4355 10.8105Z" fill="black" fill-opacity="0.85"/>
 </g>
</svg>
