<?xml version="1.0" encoding="UTF-8"?>
<!--Generator: Apple Native CoreSVG 326-->
<!DOCTYPE svg
PUBLIC "-//W3C//DTD SVG 1.1//EN"
       "http://www.w3.org/Graphics/SVG/1.1/DTD/svg11.dtd">
<svg version="1.1" xmlns="http://www.w3.org/2000/svg" xmlns:xlink="http://www.w3.org/1999/xlink" viewBox="0 0 28.9941 21.6504">
 <g>
  <rect height="21.6504" opacity="0" width="28.9941" x="0" y="0"/>
  <path d="M10.2441 0C3.10547 0 0 3.31055 0 9.99023L0 17.959C0 20.3906 1.25977 21.6309 3.71094 21.6309L24.9316 21.6309C27.373 21.6309 28.6328 20.3809 28.6328 17.959L28.6328 9.99023C28.6328 3.31055 25.5371 0 18.3887 0ZM10.2637 1.73828L18.3789 1.73828C24.375 1.73828 26.9043 4.38477 26.9043 9.90234L26.9043 17.8711C26.9043 19.2188 26.1816 19.9023 24.8828 19.9023L3.75 19.9023C2.43164 19.9023 1.72852 19.2188 1.72852 17.8711L1.72852 9.90234C1.72852 4.38477 4.25781 1.73828 10.2637 1.73828Z" fill="black" fill-opacity="0.85"/>
  <path d="M8.79883 16.0645C9.28711 16.0645 9.58984 15.7422 9.58984 15.2246L9.58984 11.9141L10.9473 11.9141L12.3828 15.4199C12.5391 15.8398 12.7832 16.0645 13.2129 16.0645C13.584 16.0645 13.9648 15.8398 13.9648 15.293C13.9648 15.166 13.9062 14.9512 13.7988 14.707L12.4707 11.5723C13.4961 11.0938 13.9941 10.0391 13.9941 8.81836C13.9941 6.83594 12.832 5.73242 10.8984 5.73242L8.7793 5.73242C8.26172 5.73242 7.97852 6.04492 7.97852 6.5625L7.97852 15.2246C7.97852 15.7324 8.27148 16.0645 8.79883 16.0645ZM9.58984 10.7129L9.58984 7.02148L10.752 7.02148C11.7773 7.02148 12.373 7.74414 12.373 8.84766C12.373 9.92188 11.875 10.7129 10.752 10.7129ZM16.1816 15.918L20.5371 15.918C20.9277 15.918 21.1719 15.6543 21.1719 15.2637C21.1719 14.8535 20.918 14.6094 20.5371 14.6094L17.4023 14.6094L17.4023 14.5215L19.375 11.9336C20.5762 10.4199 20.9668 9.49219 20.9668 8.39844C20.9668 6.71875 19.8926 5.47852 18.1836 5.47852C16.6113 5.47852 15.4492 6.82617 15.4492 8.14453C15.4492 8.53516 15.6836 8.83789 16.1133 8.83789C16.4746 8.83789 16.709 8.66211 16.8066 8.31055C17.0312 7.38281 17.3828 6.76758 18.1836 6.76758C19.0332 6.76758 19.4727 7.54883 19.4727 8.4668C19.4727 9.46289 18.8574 10.4297 18.1543 11.3574L15.8301 14.4043C15.625 14.668 15.4297 14.9414 15.4297 15.2734C15.4297 15.6543 15.6836 15.918 16.1816 15.918Z" fill="black" fill-opacity="0.85"/>
 </g>
</svg>
