<?xml version="1.0" encoding="UTF-8"?>
<!--Generator: Apple Native CoreSVG 326-->
<!DOCTYPE svg
PUBLIC "-//W3C//DTD SVG 1.1//EN"
       "http://www.w3.org/Graphics/SVG/1.1/DTD/svg11.dtd">
<svg version="1.1" xmlns="http://www.w3.org/2000/svg" xmlns:xlink="http://www.w3.org/1999/xlink" viewBox="0 0 25.8008 25.459">
 <g>
  <rect height="25.459" opacity="0" width="25.8008" x="0" y="0"/>
  <path d="M12.7148 25.4395C19.7363 25.4395 25.4395 19.7461 25.4395 12.7246C25.4395 5.70312 19.7363 0 12.7148 0C5.69336 0 0 5.70312 0 12.7246C0 19.7461 5.69336 25.4395 12.7148 25.4395ZM12.7148 23.623C6.68945 23.623 1.81641 18.75 1.81641 12.7246C1.81641 6.69922 6.68945 1.82617 12.7148 1.82617C18.7402 1.82617 23.6133 6.69922 23.6133 12.7246C23.6133 18.75 18.7402 23.623 12.7148 23.623Z" fill="black" fill-opacity="0.85"/>
  <path d="M7.17773 17.9688C7.67578 17.9688 7.97852 17.6367 7.97852 17.1289L7.97852 13.8184L9.33594 13.8184L10.7617 17.3242C10.918 17.7344 11.1621 17.9688 11.5918 17.9688C11.9727 17.9688 12.3535 17.7344 12.3535 17.1875C12.3535 17.0605 12.2852 16.8457 12.1875 16.6016L10.8594 13.4766C11.875 12.9883 12.3828 11.9336 12.3828 10.7129C12.3828 8.74023 11.2109 7.62695 9.27734 7.62695L7.16797 7.62695C6.64062 7.62695 6.35742 7.93945 6.35742 8.45703L6.35742 17.1289C6.35742 17.627 6.66016 17.9688 7.17773 17.9688ZM7.97852 12.6074L7.97852 8.91602L9.13086 8.91602C10.166 8.91602 10.752 9.63867 10.752 10.752C10.752 11.8164 10.2539 12.6074 9.14062 12.6074ZM14.5605 17.8223L18.916 17.8223C19.3066 17.8223 19.5508 17.5586 19.5508 17.168C19.5508 16.7578 19.2969 16.5137 18.916 16.5137L15.7812 16.5137L15.7812 16.4258L17.7637 13.8379C18.9551 12.3145 19.3555 11.3867 19.3555 10.293C19.3555 8.62305 18.2715 7.38281 16.5723 7.38281C14.9902 7.38281 13.8281 8.7207 13.8281 10.0391C13.8281 10.4395 14.0625 10.7324 14.4922 10.7324C14.8633 10.7324 15.0879 10.5664 15.1953 10.2051C15.4102 9.27734 15.7715 8.67188 16.5625 8.67188C17.4219 8.67188 17.8613 9.45312 17.8613 10.3613C17.8613 11.3574 17.2363 12.334 16.5332 13.252L14.209 16.2988C14.0039 16.5625 13.8184 16.8359 13.8184 17.168C13.8184 17.5488 14.0625 17.8223 14.5605 17.8223Z" fill="black" fill-opacity="0.85"/>
 </g>
</svg>
