<?xml version="1.0" encoding="UTF-8"?>
<!--Generator: Apple Native CoreSVG 326-->
<!DOCTYPE svg
PUBLIC "-//W3C//DTD SVG 1.1//EN"
       "http://www.w3.org/Graphics/SVG/1.1/DTD/svg11.dtd">
<svg version="1.1" xmlns="http://www.w3.org/2000/svg" xmlns:xlink="http://www.w3.org/1999/xlink" viewBox="0 0 25.8008 25.459">
 <g>
  <rect height="25.459" opacity="0" width="25.8008" x="0" y="0"/>
  <path d="M25.4395 12.7246C25.4395 19.7266 19.7266 25.4395 12.7148 25.4395C5.71289 25.4395 0 19.7266 0 12.7246C0 5.71289 5.71289 0 12.7148 0C19.7266 0 25.4395 5.71289 25.4395 12.7246ZM7.31445 7.77344C6.80664 7.77344 6.5332 8.07617 6.5332 8.58398L6.5332 17.002C6.5332 17.5 6.82617 17.832 7.32422 17.832C7.8125 17.832 8.11523 17.5098 8.11523 17.002L8.11523 13.7891L9.42383 13.7891L10.8105 17.1973C10.9668 17.5977 11.2012 17.832 11.6309 17.832C11.9922 17.832 12.373 17.6074 12.373 17.0703C12.373 16.9434 12.3047 16.7383 12.207 16.4941L10.918 13.457C11.9141 12.9883 12.4023 11.9531 12.4023 10.7812C12.4023 8.84766 11.2598 7.77344 9.38477 7.77344ZM13.8086 10.1172C13.8086 10.5078 14.043 10.8008 14.4531 10.8008C14.8145 10.8008 15.0391 10.625 15.1465 10.2734C15.3516 9.375 15.7031 8.78906 16.4648 8.78906C17.2949 8.78906 17.7246 9.54102 17.7246 10.4297C17.7246 11.3965 17.1191 12.3535 16.4355 13.2422L14.1797 16.2012C13.9844 16.4551 13.7891 16.7188 13.7891 17.0508C13.7891 17.4219 14.043 17.6855 14.5215 17.6855L18.7598 17.6855C19.1504 17.6855 19.3848 17.4316 19.3848 17.0508C19.3848 16.6406 19.1406 16.4062 18.7598 16.4062L15.7129 16.4062L15.7129 16.3184L17.6465 13.8086C18.8086 12.3242 19.1895 11.4258 19.1895 10.3613C19.1895 8.73047 18.1348 7.5293 16.4746 7.5293C14.9414 7.5293 13.8086 8.82812 13.8086 10.1172ZM10.8008 10.8105C10.8008 11.8457 10.3125 12.6172 9.23828 12.6172L8.11523 12.6172L8.11523 9.0332L9.22852 9.0332C10.2344 9.0332 10.8008 9.73633 10.8008 10.8105Z" fill="black" fill-opacity="0.85"/>
 </g>
</svg>
