<?xml version="1.0" ?><!-- Generator: Adobe Illustrator 25.0.0, SVG Export Plug-In . SVG Version: 6.00 Build 0)  --><svg xmlns="http://www.w3.org/2000/svg" xmlns:xlink="http://www.w3.org/1999/xlink" version="1.1" id="Layer_1" x="0px" y="0px" viewBox="0 0 512 512" style="enable-background:new 0 0 512 512;" xml:space="preserve">
<path d="M182.1,61.1C55.9,61.1,0,118.9,0,237.5v147.8c0,43.8,22.2,65.6,66.5,65.6h379c44.3,0,66.5-22,66.5-65.6V237.5  c0-118.6-55.9-176.4-181.9-176.4H182.1z M182.1,95.6h147.8c102.9,0,148,44.9,148,140v148c0,22-11.9,33.2-32.8,33.2H66.9  c-21.2,0-32.8-11.2-32.8-33.2v-148C34.1,140.5,79.2,95.6,182.1,95.6z M297.3,351.4H404c8.3,0,14.2-5.5,14.2-14  c0-8.7-5.9-13.8-14.2-13.8h-75.2v-1.5l50.4-52.3C398.1,250,411,233,411,209.5c0-32.2-25.8-53.6-65-53.6c-30.1,0-56.5,18.2-63.5,41.9  c-0.8,3.2-1.1,5.7-1.1,8.5c0,8.3,5.5,13.6,13.8,13.6c7.4,0,11.2-4.7,15-10.6c5.7-12.9,16.7-26.5,37.3-26.5  c20.1,0,33.5,11.6,33.5,29.2c0,15.5-12.9,28.4-25.4,41.5L288,324.9c-3.8,4-5.7,8-5.7,12.5C282.3,345.9,288,351.4,297.3,351.4z   M123.7,353.7c11.2,0,17.2-7,17.2-18.8v-52.5h39.4l36.8,60.3c5.1,8,9.3,11,16.7,11c9.1,0,15.5-5.9,15.5-14.4c0-4.7-1.1-8-3.8-12.3  l-31.8-49.5c24.8-8.3,41.1-30.5,41.1-57c0-37.9-27.3-62.3-70.3-62.3h-60.8c-10.8,0-16.5,7.8-16.5,19.1v157.5  C107.1,346.3,112.9,353.7,123.7,353.7z M140.8,257.6v-73.5h39.6c24.4,0,40.7,13.6,40.7,37.3c0,23.3-15.9,36.2-41.5,36.2H140.8z"/>
</svg>