<?xml version="1.0" ?><!-- Generator: Adobe Illustrator 25.0.0, SVG Export Plug-In . SVG Version: 6.00 Build 0)  --><svg xmlns="http://www.w3.org/2000/svg" xmlns:xlink="http://www.w3.org/1999/xlink" version="1.1" id="Layer_1" x="0px" y="0px" viewBox="0 0 512 512" style="enable-background:new 0 0 512 512;" xml:space="preserve">
<path d="M182.1,61.1C55.9,61.1,0,118.9,0,237.5v147.8c0,43.8,22.2,65.6,66.5,65.6h379c44.3,0,66.5-22,66.5-65.6V237.5  c0-118.6-55.9-176.4-181.9-176.4H182.1z M301.7,354.4c-9.5,0-15.5-5.7-15.5-14.4c0-4.7,1.9-8.7,5.9-12.9l69.7-73.5  c12.7-13.6,26-26.9,26-42.8c0-18.2-13.6-30.1-34.3-30.1c-21.2,0-32.4,14-38.3,27.1c-4,6.1-8,11-15.7,11c-8.5,0-14.2-5.5-14.2-14  c0-3,0.2-5.5,1.1-8.9c7.2-24.4,34.5-43.2,65.6-43.2c40.4,0,67.1,22,67.1,55.3c0,24.4-13.3,41.9-32.8,62.3l-51.9,53.8v1.7h77.3  c8.7,0,14.8,5.1,14.8,14.2c0,8.7-6.1,14.4-14.8,14.4H301.7z M122.6,356.9c-11.2,0-17.2-7.8-17.2-19.7V175c0-11.6,5.9-19.7,17.2-19.7  h62.7c44.5,0,72.6,25,72.6,64.2c0,27.3-16.7,50.2-42.3,58.9l32.8,50.8c2.8,4.4,3.8,7.8,3.8,12.7c0,8.9-6.6,15-15.9,15  c-7.8,0-12.1-3.2-17.4-11.4l-37.9-62h-40.7v53.8C140.4,349.7,134.2,356.9,122.6,356.9z M140.4,257.6h39.8  c26.5,0,42.8-13.1,42.8-37.3c0-24.4-16.7-38.3-41.7-38.3h-40.9V257.6z"/>
</svg>