<?xml version="1.0" encoding="UTF-8"?>
<!--Generator: Apple Native CoreSVG 326-->
<!DOCTYPE svg
PUBLIC "-//W3C//DTD SVG 1.1//EN"
       "http://www.w3.org/Graphics/SVG/1.1/DTD/svg11.dtd">
<svg version="1.1" xmlns="http://www.w3.org/2000/svg" xmlns:xlink="http://www.w3.org/1999/xlink" viewBox="0 0 32.5488 22.2976">
 <g>
  <rect height="22.2976" opacity="0" width="32.5488" x="0" y="0"/>
  <path d="M28.5547 1.08534C30.7617 1.08534 32.1875 2.54042 32.1875 4.75721L32.1875 12.5892C32.1875 15.7826 30.8496 17.6869 27.5684 18.6537L16.6699 21.8373C13.8086 22.6771 12.0215 22.3451 9.45312 21.0267L2.36328 17.3842C0.400391 16.3783 0 15.2162 0 12.5892L0 4.71815C0 2.52089 1.43555 1.07557 3.66211 1.07557ZM16.9727 6.96424C16.9043 7.21815 16.8848 7.44276 16.8848 7.64784C16.8848 8.0287 17.1289 8.33143 17.5781 8.33143C17.9785 8.33143 18.1934 8.16542 18.3105 7.76503C18.4961 6.95448 18.9453 6.39784 19.7461 6.39784C20.6543 6.39784 21.1035 7.11073 21.1035 8.01893C21.1035 9.00526 20.5371 9.74745 19.5215 9.74745L19.1504 9.74745C18.7598 9.74745 18.5156 10.0014 18.5156 10.3627C18.5156 10.7435 18.7793 10.9779 19.1504 10.9779L19.541 10.9779C20.6836 10.9779 21.3477 11.6029 21.3477 12.8041C21.3477 13.7611 20.8398 14.5912 19.8047 14.5912C18.8086 14.5912 18.3301 13.8978 18.1738 13.2435C18.0664 12.8529 17.832 12.6576 17.4512 12.6576C17.0117 12.6576 16.709 12.931 16.709 13.3803C16.709 13.5951 16.748 13.8392 16.8164 14.0541C17.1875 15.2357 18.418 15.9291 19.7949 15.9291C21.5918 15.9291 22.959 14.7572 22.959 12.8529C22.959 11.3002 22.0605 10.4408 20.918 10.3334L20.918 10.2846C22.0898 9.98182 22.6562 8.92714 22.6562 7.84315C22.6562 6.10487 21.3965 5.06971 19.7461 5.06971C18.418 5.06971 17.3438 5.82167 16.9727 6.96424ZM9.85352 5.26503C9.31641 5.26503 9.02344 5.58729 9.02344 6.1244L9.02344 14.9916C9.02344 15.5189 9.33594 15.8607 9.87305 15.8607C10.3711 15.8607 10.6836 15.5287 10.6836 14.9916L10.6836 11.6127L12.0801 11.6127L13.5352 15.1967C13.6914 15.6264 13.9453 15.8607 14.3945 15.8607C14.7852 15.8607 15.1758 15.6264 15.1758 15.0697C15.1758 14.933 15.1074 14.7084 15 14.4642L13.6523 11.2611C14.6875 10.7631 15.2051 9.67909 15.2051 8.42909C15.2051 6.4076 14.0039 5.26503 12.0215 5.26503ZM13.5254 8.47792C13.5254 9.5619 13.0176 10.3724 11.8848 10.3724L10.6836 10.3724L10.6836 6.60292L11.875 6.60292C12.9297 6.60292 13.5254 7.3451 13.5254 8.47792Z" fill="black" fill-opacity="0.85"/>
 </g>
</svg>
