<?xml version="1.0" encoding="UTF-8"?>
<!--Generator: Apple Native CoreSVG 326-->
<!DOCTYPE svg
PUBLIC "-//W3C//DTD SVG 1.1//EN"
       "http://www.w3.org/Graphics/SVG/1.1/DTD/svg11.dtd">
<svg version="1.1" xmlns="http://www.w3.org/2000/svg" xmlns:xlink="http://www.w3.org/1999/xlink" viewBox="0 0 29.9512 34.1255">
 <g>
  <rect height="34.1255" opacity="0" width="29.9512" x="0" y="0"/>
  <path d="M23.2715 14.0696C24.3164 14.0598 25.1758 13.22 25.1758 12.1848C25.1758 11.1399 24.3164 10.2903 23.2715 10.2708C22.2168 10.2513 21.3574 11.1399 21.3574 12.1848C21.3574 13.22 22.2168 14.0891 23.2715 14.0696ZM23.2715 19.6263C24.3164 19.6263 25.1758 18.7669 25.1758 17.7122C25.1758 16.6575 24.3164 15.8177 23.2715 15.8177C22.2168 15.8177 21.3574 16.6575 21.3574 17.7122C21.3574 18.7669 22.2168 19.6263 23.2715 19.6263ZM11.8262 11.7259C12.334 11.7259 12.7344 11.3059 12.7344 10.7884C12.7344 10.2903 12.334 9.88016 11.8262 9.88016C11.3379 9.88016 10.9277 10.2903 10.9277 10.7884C10.9277 11.3059 11.3379 11.7259 11.8262 11.7259ZM14.9609 12.595C15.4883 12.595 15.8691 12.1751 15.8691 11.677C15.8691 11.1595 15.4883 10.7493 14.9609 10.7493C14.4727 10.7493 14.082 11.1595 14.082 11.677C14.082 12.1751 14.4727 12.595 14.9609 12.595ZM17.334 14.8118C17.8418 14.8118 18.2617 14.4114 18.2617 13.9036C18.2617 13.3958 17.8418 12.9759 17.334 12.9759C16.8457 12.9759 16.4551 13.3958 16.4551 13.9036C16.4551 14.4114 16.8457 14.8118 17.334 14.8118ZM18.125 17.8489C18.623 17.8489 19.0234 17.4388 19.0234 16.9407C19.0234 16.4329 18.623 16.0325 18.125 16.0325C17.6172 16.0325 17.2168 16.4329 17.2168 16.9407C17.2168 17.4388 17.6172 17.8489 18.125 17.8489ZM17.334 20.8958C17.8418 20.8958 18.2617 20.4759 18.2617 19.968C18.2617 19.4602 17.8418 19.0598 17.334 19.0598C16.8457 19.0598 16.4551 19.4602 16.4551 19.968C16.4551 20.4759 16.8457 20.8958 17.334 20.8958ZM14.9609 23.2493C15.4883 23.2493 15.8691 22.8391 15.8691 22.3216C15.8691 21.8235 15.4883 21.4036 14.9609 21.4036C14.4727 21.4036 14.082 21.8235 14.082 22.3216C14.082 22.8391 14.4727 23.2493 14.9609 23.2493ZM11.8262 24.2454C12.334 24.2454 12.7344 23.8352 12.7344 23.3372C12.7344 22.8196 12.334 22.3997 11.8262 22.3997C11.3379 22.3997 10.9277 22.8196 10.9277 23.3372C10.9277 23.8352 11.3379 24.2454 11.8262 24.2454ZM8.69141 23.2493C9.18945 23.2493 9.58008 22.8391 9.58008 22.3216C9.58008 21.8235 9.18945 21.4036 8.69141 21.4036C8.17383 21.4036 7.7832 21.8235 7.7832 22.3216C7.7832 22.8391 8.17383 23.2493 8.69141 23.2493ZM6.31836 20.8958C6.81641 20.8958 7.20703 20.4759 7.20703 19.968C7.20703 19.4602 6.81641 19.0598 6.31836 19.0598C5.82031 19.0598 5.40039 19.4602 5.40039 19.968C5.40039 20.4759 5.82031 20.8958 6.31836 20.8958ZM5.53711 17.8489C6.03516 17.8489 6.44531 17.4388 6.44531 16.9407C6.44531 16.4329 6.03516 16.0325 5.53711 16.0325C5.03906 16.0325 4.63867 16.4329 4.63867 16.9407C4.63867 17.4388 5.03906 17.8489 5.53711 17.8489ZM6.31836 14.8118C6.81641 14.8118 7.20703 14.4114 7.20703 13.9036C7.20703 13.3958 6.81641 12.9759 6.31836 12.9759C5.82031 12.9759 5.40039 13.3958 5.40039 13.9036C5.40039 14.4114 5.82031 14.8118 6.31836 14.8118ZM8.69141 12.595C9.18945 12.595 9.58008 12.1751 9.58008 11.677C9.58008 11.1595 9.18945 10.7493 8.69141 10.7493C8.17383 10.7493 7.7832 11.1595 7.7832 11.677C7.7832 12.1751 8.17383 12.595 8.69141 12.595ZM11.8262 14.9388C12.334 14.9388 12.7344 14.5384 12.7344 14.0305C12.7344 13.5227 12.334 13.1028 11.8262 13.1028C11.3379 13.1028 10.9277 13.5227 10.9277 14.0305C10.9277 14.5384 11.3379 14.9388 11.8262 14.9388ZM14.7754 16.218C15.2832 16.218 15.6738 15.7884 15.6738 15.3098C15.6738 14.8118 15.2832 14.3919 14.7754 14.3919C14.2871 14.3919 13.8574 14.8118 13.8574 15.3098C13.8574 15.7884 14.2871 16.218 14.7754 16.218ZM14.7754 19.7239C15.2832 19.7239 15.6738 19.3138 15.6738 18.8157C15.6738 18.2981 15.2832 17.8977 14.7754 17.8977C14.2871 17.8977 13.8574 18.2981 13.8574 18.8157C13.8574 19.3138 14.2871 19.7239 14.7754 19.7239ZM11.8262 21.0227C12.334 21.0227 12.7344 20.593 12.7344 20.0852C12.7344 19.5872 12.334 19.177 11.8262 19.177C11.3379 19.177 10.9277 19.5872 10.9277 20.0852C10.9277 20.593 11.3379 21.0227 11.8262 21.0227ZM8.87695 19.7239C9.375 19.7239 9.79492 19.3138 9.79492 18.8157C9.79492 18.2981 9.375 17.8977 8.87695 17.8977C8.37891 17.8977 7.98828 18.2981 7.98828 18.8157C7.98828 19.3138 8.37891 19.7239 8.87695 19.7239ZM8.87695 16.218C9.375 16.218 9.79492 15.7884 9.79492 15.3098C9.79492 14.8118 9.375 14.3919 8.87695 14.3919C8.37891 14.3919 7.98828 14.8118 7.98828 15.3098C7.98828 15.7884 8.37891 16.218 8.87695 16.218ZM11.8262 17.9661C12.334 17.9661 12.7344 17.5657 12.7344 17.0579C12.7344 16.5598 12.334 16.1497 11.8262 16.1497C11.3379 16.1497 10.9277 16.5598 10.9277 17.0579C10.9277 17.5657 11.3379 17.9661 11.8262 17.9661ZM24.082 7.33133L24.6094 5.68094L7.25586 0.0461722C6.80664-0.110078 6.30859 0.143828 6.17188 0.602813C6.01562 1.04227 6.2793 1.54031 6.71875 1.69656ZM3.79883 28.5423L25.7812 28.5423C28.3105 28.5423 29.5898 27.263 29.5898 24.7825L29.5898 9.35281C29.5898 6.86258 28.3105 5.58328 25.7812 5.58328L3.79883 5.58328C1.2793 5.58328 0 6.85281 0 9.35281L0 24.7825C0 27.2825 1.2793 28.5423 3.79883 28.5423ZM3.83789 26.8138C2.4707 26.8138 1.72852 26.0911 1.72852 24.6848L1.72852 9.4407C1.72852 8.04422 2.4707 7.3118 3.83789 7.3118L25.752 7.3118C27.0898 7.3118 27.8516 8.04422 27.8516 9.4407L27.8516 24.6848C27.8516 26.0911 27.0898 26.8138 25.752 26.8138Z" fill="black" fill-opacity="0.85"/>
 </g>
</svg>
