<?xml version="1.0" encoding="UTF-8"?>
<!--Generator: Apple Native CoreSVG 326-->
<!DOCTYPE svg
PUBLIC "-//W3C//DTD SVG 1.1//EN"
       "http://www.w3.org/Graphics/SVG/1.1/DTD/svg11.dtd">
<svg version="1.1" xmlns="http://www.w3.org/2000/svg" xmlns:xlink="http://www.w3.org/1999/xlink" viewBox="0 0 27.5781 27.2363">
 <g>
  <rect height="27.2363" opacity="0" width="27.5781" x="0" y="0"/>
  <path d="M8.07617 8.07617C8.4375 7.72461 8.4375 7.09961 8.07617 6.74805L5.32227 3.99414C4.96094 3.63281 4.3457 3.63281 3.98438 3.99414C3.63281 4.35547 3.63281 4.96094 3.98438 5.32227L6.73828 8.07617C7.09961 8.4375 7.71484 8.4375 8.07617 8.07617Z" fill="black" fill-opacity="0.85"/>
  <path d="M5.78125 13.6133C5.78125 13.1055 5.35156 12.666 4.83398 12.666L0.947266 12.666C0.429688 12.666 0 13.1055 0 13.6133C0 14.1211 0.429688 14.5508 0.947266 14.5508L4.83398 14.5508C5.35156 14.5508 5.78125 14.1211 5.78125 13.6133Z" fill="black" fill-opacity="0.85"/>
  <path d="M8.07617 19.1406C7.71484 18.7793 7.09961 18.7793 6.73828 19.1406L3.98438 21.8945C3.63281 22.2559 3.63281 22.8711 3.98438 23.2324C4.3457 23.584 4.96094 23.584 5.32227 23.2324L8.07617 20.4785C8.4375 20.1172 8.4375 19.502 8.07617 19.1406Z" fill="black" fill-opacity="0.85"/>
  <path d="M13.6035 21.4355C13.0957 21.4355 12.666 21.8652 12.666 22.3828L12.666 26.2695C12.666 26.7871 13.0957 27.2168 13.6035 27.2168C14.1113 27.2168 14.5508 26.7871 14.5508 26.2695L14.5508 22.3828C14.5508 21.8652 14.1113 21.4355 13.6035 21.4355Z" fill="black" fill-opacity="0.85"/>
  <path d="M19.1406 19.1406C18.7793 19.502 18.7793 20.1172 19.1406 20.4785L21.8945 23.2324C22.2559 23.584 22.8613 23.584 23.2227 23.2324C23.584 22.8711 23.584 22.2559 23.2227 21.8945L20.4688 19.1406C20.1172 18.7793 19.4922 18.7793 19.1406 19.1406Z" fill="black" fill-opacity="0.85"/>
  <path d="M21.4355 13.6133C21.4355 14.1211 21.8652 14.5508 22.373 14.5508L26.2695 14.5508C26.7773 14.5508 27.2168 14.1211 27.2168 13.6133C27.2168 13.1055 26.7773 12.666 26.2695 12.666L22.373 12.666C21.8652 12.666 21.4355 13.1055 21.4355 13.6133Z" fill="black" fill-opacity="0.85"/>
  <path d="M19.1406 8.07617C19.4922 8.4375 20.1172 8.4375 20.4688 8.07617L23.2227 5.32227C23.584 4.96094 23.584 4.35547 23.2227 3.99414C22.8613 3.63281 22.2559 3.63281 21.8945 3.99414L19.1406 6.74805C18.7793 7.09961 18.7793 7.72461 19.1406 8.07617Z" fill="black" fill-opacity="0.85"/>
  <path d="M13.6035 5.78125C14.1113 5.78125 14.5508 5.35156 14.5508 4.84375L14.5508 0.947266C14.5508 0.439453 14.1113 0 13.6035 0C13.0957 0 12.666 0.439453 12.666 0.947266L12.666 4.84375C12.666 5.35156 13.0957 5.78125 13.6035 5.78125Z" fill="black" fill-opacity="0.85"/>
 </g>
</svg>
