<?xml version="1.0" encoding="UTF-8"?>
<!--Generator: Apple Native CoreSVG 326-->
<!DOCTYPE svg
PUBLIC "-//W3C//DTD SVG 1.1//EN"
       "http://www.w3.org/Graphics/SVG/1.1/DTD/svg11.dtd">
<svg version="1.1" xmlns="http://www.w3.org/2000/svg" xmlns:xlink="http://www.w3.org/1999/xlink" viewBox="0 0 28.9941 21.6504">
 <g>
  <rect height="21.6504" opacity="0" width="28.9941" x="0" y="0"/>
  <path d="M28.6328 3.67188L28.6328 11.6406C28.6328 18.3203 25.5371 21.6309 18.3887 21.6309L10.2441 21.6309C3.10547 21.6309 0 18.3203 0 11.6406L0 3.67188C0 1.25 1.25977 0 3.71094 0L24.9316 0C27.373 0 28.6328 1.25977 28.6328 3.67188ZM8.47656 5.76172C7.95898 5.76172 7.67578 6.07422 7.67578 6.5918L7.67578 15.1855C7.67578 15.6934 7.97852 16.0352 8.48633 16.0352C8.98438 16.0352 9.28711 15.7031 9.28711 15.1855L9.28711 11.9141L10.625 11.9141L12.041 15.3906C12.207 15.8008 12.4512 16.0352 12.8809 16.0352C13.252 16.0352 13.6426 15.8008 13.6426 15.2539C13.6426 15.127 13.5645 14.9121 13.4668 14.668L12.1484 11.5723C13.1641 11.0938 13.6621 10.0391 13.6621 8.82812C13.6621 6.86523 12.5 5.76172 10.5859 5.76172ZM16.1816 5.77148C15.6738 5.77148 15.4004 6.13281 15.4004 6.62109L15.4004 15.0684C15.4004 15.5664 15.6836 15.8984 16.1816 15.8984L18.7891 15.8984C20.5469 15.8984 21.5527 14.7363 21.5527 13.0664C21.5527 11.8359 20.8301 10.7129 19.6484 10.5859L19.6484 10.5371C20.5859 10.3613 21.2305 9.29688 21.2305 8.28125C21.2305 6.71875 20.1953 5.77148 18.7207 5.77148ZM19.9414 12.9492C19.9414 14.0137 19.3945 14.6582 18.3301 14.6582L16.9727 14.6582L16.9727 11.2402L18.2715 11.2402C19.2773 11.2402 19.9414 11.7871 19.9414 12.9492ZM12.0312 8.86719C12.0312 9.93164 11.5332 10.7031 10.4395 10.7031L9.28711 10.7031L9.28711 7.05078L10.4297 7.05078C11.4551 7.05078 12.0312 7.77344 12.0312 8.86719ZM19.6777 8.52539C19.6777 9.51172 19.1113 10.1367 18.125 10.1367L16.9727 10.1367L16.9727 7.02148L18.2812 7.02148C19.2578 7.02148 19.6777 7.64648 19.6777 8.52539Z" fill="black" fill-opacity="0.85"/>
 </g>
</svg>
