<?xml version="1.0" encoding="UTF-8"?>
<!--Generator: Apple Native CoreSVG 326-->
<!DOCTYPE svg
PUBLIC "-//W3C//DTD SVG 1.1//EN"
       "http://www.w3.org/Graphics/SVG/1.1/DTD/svg11.dtd">
<svg version="1.1" xmlns="http://www.w3.org/2000/svg" xmlns:xlink="http://www.w3.org/1999/xlink" viewBox="0 0 25.8008 25.459">
 <g>
  <rect height="25.459" opacity="0" width="25.8008" x="0" y="0"/>
  <path d="M12.7148 25.4395C19.7363 25.4395 25.4395 19.7461 25.4395 12.7246C25.4395 5.70312 19.7363 0 12.7148 0C5.69336 0 0 5.70312 0 12.7246C0 19.7461 5.69336 25.4395 12.7148 25.4395ZM12.7148 23.623C6.68945 23.623 1.81641 18.75 1.81641 12.7246C1.81641 6.69922 6.68945 1.82617 12.7148 1.82617C18.7402 1.82617 23.6133 6.69922 23.6133 12.7246C23.6133 18.75 18.7402 23.623 12.7148 23.623Z" fill="black" fill-opacity="0.85"/>
  <path d="M6.82617 17.9688C7.32422 17.9688 7.62695 17.6367 7.62695 17.1289L7.62695 13.8184L8.98438 13.8184L10.4102 17.3242C10.5762 17.7344 10.8105 17.9688 11.25 17.9688C11.6211 17.9688 12.002 17.7344 12.002 17.1875C12.002 17.0605 11.9336 16.8457 11.8359 16.6016L10.5078 13.4766C11.5332 12.9883 12.0312 11.9336 12.0312 10.7129C12.0312 8.74023 10.8594 7.62695 8.93555 7.62695L6.81641 7.62695C6.29883 7.62695 6.00586 7.93945 6.00586 8.45703L6.00586 17.1289C6.00586 17.627 6.30859 17.9688 6.82617 17.9688ZM7.62695 12.6074L7.62695 8.91602L8.7793 8.91602C9.81445 8.91602 10.4102 9.63867 10.4102 10.752C10.4102 11.8164 9.90234 12.6074 8.78906 12.6074ZM14.5703 17.832L17.1875 17.832C18.9551 17.832 19.9707 16.6699 19.9707 14.9902C19.9707 13.75 19.248 12.6172 18.0371 12.4902L18.0371 12.4316C18.9941 12.2559 19.6387 11.1914 19.6387 10.1758C19.6387 8.59375 18.6035 7.63672 17.1191 7.63672L14.5703 7.63672C14.0527 7.63672 13.7793 7.99805 13.7793 8.47656L13.7793 17.002C13.7793 17.5 14.0625 17.832 14.5703 17.832ZM15.3516 12.0312L15.3516 8.88672L16.6699 8.88672C17.666 8.88672 18.0859 9.52148 18.0859 10.4102C18.0859 11.4062 17.5195 12.0312 16.5234 12.0312ZM15.3516 16.6016L15.3516 13.1445L16.6699 13.1445C17.6855 13.1445 18.3594 13.7012 18.3594 14.8633C18.3594 15.9375 17.8027 16.6016 16.7188 16.6016Z" fill="black" fill-opacity="0.85"/>
 </g>
</svg>
