<?xml version="1.0" ?><!-- Generator: Adobe Illustrator 25.0.0, SVG Export Plug-In . SVG Version: 6.00 Build 0)  --><svg xmlns="http://www.w3.org/2000/svg" xmlns:xlink="http://www.w3.org/1999/xlink" version="1.1" id="Layer_1" x="0px" y="0px" viewBox="0 0 512 512" style="enable-background:new 0 0 512 512;" xml:space="preserve">
<path d="M182.1,450.9h148c126,0,181.9-57.8,181.9-176.6V126.7c0-43.6-22.2-65.6-66.5-65.6h-379C22.2,61.1,0,82.9,0,126.7v147.6  C0,393.1,55.9,450.9,182.1,450.9z M300,354.1c-12.3,0-19.5-7.2-19.5-19.5V174.2c0-12.5,7.2-19.7,19.5-19.7h64.4  c37.5,0,61.8,19.5,61.8,49.3c0,21.8-13.3,38.7-34.9,44v1.3c29,3.8,46.8,22.2,46.8,48.9c0,34.3-29,56.1-74.1,56.1H300z M111,356.5  c-11,0-16.9-7.8-16.9-19.7V174.6c0-11.6,5.7-19.9,16.9-19.9h62.9c44.3,0,72.6,25.2,72.6,64.4c0,27.3-16.9,50.2-42.3,58.7l32.6,51  c2.8,4.4,4,7.8,4,12.7c0,8.9-6.8,15-16.1,15c-7.6,0-12.1-3.2-17.4-11.4l-37.9-62.3h-40.7v54C128.7,349.1,122.6,356.5,111,356.5z   M314.7,239.2h32.8c29.2,0,45.1-10.6,45.1-30.1c0-17.8-13.3-28.6-35.4-28.6h-42.6V239.2z M128.7,257.2h39.8c26.5,0,43-13.3,43-37.3  c0-24.4-16.9-38.3-42.1-38.3h-40.7V257.2z M314.7,328.3H350c36.2,0,53.1-10,53.1-31.5c0-21.2-15.7-33.5-42.1-33.5h-46.4V328.3z"/>
</svg>