<?xml version="1.0" encoding="UTF-8"?>
<!--Generator: Apple Native CoreSVG 326-->
<!DOCTYPE svg
PUBLIC "-//W3C//DTD SVG 1.1//EN"
       "http://www.w3.org/Graphics/SVG/1.1/DTD/svg11.dtd">
<svg version="1.1" xmlns="http://www.w3.org/2000/svg" xmlns:xlink="http://www.w3.org/1999/xlink" viewBox="0 0 25.8008 25.459">
 <g>
  <rect height="25.459" opacity="0" width="25.8008" x="0" y="0"/>
  <path d="M12.7148 25.4395C19.7363 25.4395 25.4395 19.7461 25.4395 12.7246C25.4395 5.70312 19.7363 0 12.7148 0C5.69336 0 0 5.70312 0 12.7246C0 19.7461 5.69336 25.4395 12.7148 25.4395ZM12.7148 23.623C6.68945 23.623 1.81641 18.75 1.81641 12.7246C1.81641 6.69922 6.68945 1.82617 12.7148 1.82617C18.7402 1.82617 23.6133 6.69922 23.6133 12.7246C23.6133 18.75 18.7402 23.623 12.7148 23.623Z" fill="black" fill-opacity="0.85"/>
  <path d="M4.70703 12.7246C4.70703 14.7266 6.32812 16.3574 8.33008 16.3574L17.0898 16.3574C19.1016 16.3574 20.7227 14.7266 20.7227 12.7246C20.7227 10.7129 19.1016 9.07227 17.0898 9.07227C15.0781 9.07227 13.457 10.7129 13.457 12.7246C13.457 13.6328 13.8086 14.4922 14.4238 15.127L10.9961 15.127C11.6211 14.4922 11.9727 13.6328 11.9727 12.7246C11.9727 10.7129 10.3418 9.07227 8.33008 9.07227C6.32812 9.07227 4.70703 10.7129 4.70703 12.7246ZM5.9375 12.7148C5.9375 11.3965 7.02148 10.3125 8.33984 10.3125C9.6582 10.3125 10.7324 11.3965 10.7324 12.7148C10.7324 14.0527 9.66797 15.127 8.33984 15.127C7.01172 15.127 5.9375 14.043 5.9375 12.7148ZM14.6973 12.7148C14.6973 11.3965 15.7617 10.3125 17.0801 10.3125C18.3984 10.3125 19.4922 11.3965 19.4922 12.7148C19.4922 14.043 18.4082 15.127 17.0801 15.127C15.752 15.127 14.6973 14.0527 14.6973 12.7148Z" fill="black" fill-opacity="0.85"/>
 </g>
</svg>
