<?xml version="1.0" ?><!-- Generator: Adobe Illustrator 25.0.0, SVG Export Plug-In . SVG Version: 6.00 Build 0)  --><svg xmlns="http://www.w3.org/2000/svg" xmlns:xlink="http://www.w3.org/1999/xlink" version="1.1" id="Layer_1" x="0px" y="0px" viewBox="0 0 512 512" style="enable-background:new 0 0 512 512;" xml:space="preserve">
<path d="M0,255.9c0,61.1,50,110.8,110.8,110.8h290.9c61.3,0,110.3-49.8,110.3-110.8c0-60.8-49-110.6-110.3-110.6  c-61.1,0-110.8,49.8-110.8,110.6c0,30,12.5,57.2,32.2,76.2H188.9c19.7-19,32.2-46.2,32.2-76.2c0-60.8-49.3-110.6-110.3-110.6  S0,195.1,0,255.9z M34.9,255.9c0-41.8,33.9-75.7,76-75.7s76,33.9,76,75.7c0,42.1-33.9,76-76,76S34.9,297.9,34.9,255.9z M325.7,255.9  c0-41.8,33.9-75.7,76-75.7c41.8,0,75.7,33.9,75.7,75.7c0,42.1-33.9,76-75.7,76C359.6,331.8,325.7,297.9,325.7,255.9z"/>
</svg>