<?xml version="1.0" ?><!-- Generator: Adobe Illustrator 25.0.0, SVG Export Plug-In . SVG Version: 6.00 Build 0)  --><svg xmlns="http://www.w3.org/2000/svg" xmlns:xlink="http://www.w3.org/1999/xlink" version="1.1" id="Layer_1" x="0px" y="0px" viewBox="0 0 512 512" style="enable-background:new 0 0 512 512;" xml:space="preserve">
<path d="M182.6,166V56.1h147V166H182.6z M364.6,166V56.1h79.3c45.6,0,68.2,22.6,68.2,67.3V166H364.6z M182.6,311V201h147V311H182.6z   M147.7,166H0v-42.6c0-44.9,22.8-67.3,68.2-67.3h79.5V166z M364.6,201H512V311H364.6V201z M147.7,311H0V201h147.7V311z M364.6,455.9  V346H512v42.6c0,44.7-22.6,67.3-68.2,67.3H364.6z M329.6,346v109.9h-147V346H329.6z M0,346h147.7v109.9H68.2  C22.8,455.9,0,433.5,0,388.6V346z"/>
</svg>