<?xml version="1.0" encoding="UTF-8"?>
<!--Generator: Apple Native CoreSVG 326-->
<!DOCTYPE svg
PUBLIC "-//W3C//DTD SVG 1.1//EN"
       "http://www.w3.org/Graphics/SVG/1.1/DTD/svg11.dtd">
<svg version="1.1" xmlns="http://www.w3.org/2000/svg" xmlns:xlink="http://www.w3.org/1999/xlink" viewBox="0 0 22.4707 26.9434">
 <g>
  <rect height="26.9434" opacity="0" width="22.4707" x="0" y="0"/>
  <path d="M22.1094 3.65234L22.0996 23.3008C22.0996 25.5859 20.7324 26.9434 18.4277 26.9434L7.35352 26.9434C2.87109 26.9434 0 24.0625 0 19.5898L0 13.1934C0 11.5137 0.517578 10.166 1.55273 9.20898L9.51172 1.89453C11.0352 0.488281 12.6465 0 14.5898 0L18.457 0C20.6641 0 22.1094 1.43555 22.1094 3.65234ZM8.65234 13.9355C7.65625 13.9355 7.1582 14.4531 7.1582 15.4199L7.1582 20.7422C7.1582 21.7383 7.65625 22.2363 8.65234 22.2363L16.3281 22.2363C17.3047 22.2363 17.8223 21.7383 17.8223 20.7422L17.8223 15.4199C17.8223 14.4531 17.3047 13.9355 16.3281 13.9355ZM6.20117 11.6406C5.22461 11.6406 4.70703 12.1289 4.70703 13.1348L4.70703 18.4277C4.70703 19.3945 5.22461 19.9121 6.20117 19.9121L6.35742 19.9121L6.35742 15.4199C6.35742 14.0234 7.19727 13.1445 8.65234 13.1445L15.3711 13.1445L15.3711 13.0664C15.3516 12.1191 14.8535 11.6406 13.8672 11.6406Z" fill="black" fill-opacity="0.85"/>
 </g>
</svg>
