<?xml version="1.0" encoding="UTF-8"?>
<!--Generator: Apple Native CoreSVG 326-->
<!DOCTYPE svg
PUBLIC "-//W3C//DTD SVG 1.1//EN"
       "http://www.w3.org/Graphics/SVG/1.1/DTD/svg11.dtd">
<svg version="1.1" xmlns="http://www.w3.org/2000/svg" xmlns:xlink="http://www.w3.org/1999/xlink" viewBox="0 0 33.3932 29.3799">
 <g>
  <rect height="29.3799" opacity="0" width="33.3932" x="0" y="0"/>
  <path d="M3.35185 22.3315C3.35185 23.728 4.09404 24.4507 5.45146 24.4507L8.1956 24.4507L8.1956 26.1792L5.42217 26.1792C2.90263 26.1792 1.61357 24.9194 1.61357 22.4194L1.61357 19.5679L3.35185 19.5679ZM15.6272 26.1792L9.7581 26.1792L9.7581 24.4507L15.6272 24.4507ZM23.0687 26.1792L17.1897 26.1792L17.1897 24.4507L23.0687 24.4507ZM31.2034 22.4194C31.2034 24.9194 29.9241 26.1792 27.4046 26.1792L24.6214 26.1792L24.6214 24.4507L27.3655 24.4507C28.7327 24.4507 29.4749 23.728 29.4749 22.3315L29.4749 19.5679L31.2034 19.5679ZM3.35185 18.0054L1.61357 18.0054L1.61357 11.4038L3.35185 11.4038ZM31.2034 18.0054L29.4749 18.0054L29.4749 14.9724L31.2034 13.2411ZM8.1956 4.9585L5.45146 4.9585C4.09404 4.9585 3.35185 5.68115 3.35185 7.07764L3.35185 9.84131L1.61357 9.84131L1.61357 6.98975C1.61357 4.48975 2.90263 3.22998 5.42217 3.22998L8.1956 3.22998ZM15.6272 4.9585L9.7581 4.9585L9.7581 3.22998L15.6272 3.22998ZM21.0515 4.9585L17.1897 4.9585L17.1897 3.22998L22.7777 3.22998Z" fill="black" fill-opacity="0.85"/>
  <path d="M18.1565 17.0679C19.9729 18.8745 22.7366 18.9917 24.6897 17.0386L30.6468 11.0718C30.9202 10.7983 30.9007 10.3589 30.6468 10.1147C30.3733 9.87061 29.9925 9.87061 29.7093 10.144L23.7913 16.0718C22.3753 17.478 20.4026 17.4292 19.1233 16.1206C17.805 14.7729 17.7464 12.8394 19.1526 11.4429L26.6429 3.9624C27.5999 3.01514 28.8597 3.0542 29.6116 3.80615C30.3636 4.54834 30.4026 5.79834 29.4554 6.75537L22.1604 14.0991C21.8382 14.4312 21.4183 14.4019 21.1351 14.1089C20.8128 13.8062 20.8226 13.396 21.1448 13.064L26.3694 7.84912C26.6526 7.56592 26.6331 7.19482 26.3987 6.94092C26.1448 6.68701 25.7835 6.67725 25.4905 6.96045L20.2366 12.2144C19.4163 13.0444 19.4261 14.3042 20.178 15.0464C20.9788 15.8276 22.1604 15.8569 23.0198 15.0073L30.3636 7.66357C31.8577 6.15967 31.7601 4.20654 30.471 2.90771C29.1917 1.62842 27.1897 1.53076 25.7151 3.01514L18.2054 10.5347C16.2522 12.478 16.3694 15.2808 18.1565 17.0679Z" fill="black" fill-opacity="0.85"/>
 </g>
</svg>
