<?xml version="1.0" ?><!-- Generator: Adobe Illustrator 25.0.0, SVG Export Plug-In . SVG Version: 6.00 Build 0)  --><svg xmlns="http://www.w3.org/2000/svg" xmlns:xlink="http://www.w3.org/1999/xlink" version="1.1" id="Layer_1" x="0px" y="0px" viewBox="0 0 512 512" style="enable-background:new 0 0 512 512;" xml:space="preserve">
<path d="M463.4,486.2c6.7,6.5,17.4,6.5,23.7,0c6.5-6.5,6.7-17.2,0-23.7L50.4,25.8c-6.5-6.5-17.2-6.5-23.9,0  c-6.5,6.3-6.3,17.4,0,23.7L463.4,486.2z M117.3,56l379.3,379.3c10.2-10.6,15.4-26.3,15.4-46.9V123.3c0-44.7-22.6-67.3-68.2-67.3  H117.3z M396.1,455.8L16.3,75.6C5.4,86.2,0,102.1,0,123.3v265.1c0,44.9,22.8,67.3,68.2,67.3H396.1z"/>
</svg>