<?xml version="1.0" ?><!-- Generator: Adobe Illustrator 25.0.0, SVG Export Plug-In . SVG Version: 6.00 Build 0)  --><svg xmlns="http://www.w3.org/2000/svg" xmlns:xlink="http://www.w3.org/1999/xlink" version="1.1" id="Layer_1" x="0px" y="0px" viewBox="0 0 512 512" style="enable-background:new 0 0 512 512;" xml:space="preserve">
<path d="M256,512c140,0,256-116.2,256-256C512,116,395.8,0,255.7,0C116,0,0,116,0,256C0,395.8,116.2,512,256,512z M256,469.3  c-118.5,0-213.1-94.9-213.1-213.3S137.3,42.7,255.7,42.7S469.1,137.5,469.3,256S374.5,469.3,256,469.3z M149.8,219.9  c0-31.1,16.3-47.4,47.9-47.4h148.6v-2.8c0-22.8-11.3-34.1-34.4-34.1H144.1c-22.8,0-34.4,11-34.4,34.1v116.5  c0,22.6,11.5,33.9,34.4,33.9h5.8V219.9z M199.3,373.2h167.7c23.1,0,34.4-11.3,34.4-34.4V221.4c0-22.3-11.3-33.9-34.4-33.9H199.3  c-23.1,0-34.6,11.5-34.6,33.9v117.5C164.6,361.9,176.2,373.2,199.3,373.2z"/>
</svg>