<?xml version="1.0" encoding="UTF-8"?>
<!--Generator: Apple Native CoreSVG 326-->
<!DOCTYPE svg
PUBLIC "-//W3C//DTD SVG 1.1//EN"
       "http://www.w3.org/Graphics/SVG/1.1/DTD/svg11.dtd">
<svg version="1.1" xmlns="http://www.w3.org/2000/svg" xmlns:xlink="http://www.w3.org/1999/xlink" viewBox="0 0 31.9922 24.0527">
 <g>
  <rect height="24.0527" opacity="0" width="31.9922" x="0" y="0"/>
  <path d="M2.07031 7.05078L7.29492 7.05078C8.60352 7.05078 9.35547 6.30859 9.35547 4.94141L9.35547 2.10938C9.35547 0.742188 8.60352 0 7.29492 0L2.07031 0C0.761719 0 0 0.742188 0 2.10938L0 4.94141C0 6.30859 0.761719 7.05078 2.07031 7.05078ZM13.1934 7.05078L18.4277 7.05078C19.7363 7.05078 20.4785 6.30859 20.4785 4.94141L20.4785 2.10938C20.4785 0.742188 19.7363 0 18.4277 0L13.1934 0C11.8848 0 11.1328 0.742188 11.1328 2.10938L11.1328 4.94141C11.1328 6.30859 11.8848 7.05078 13.1934 7.05078ZM24.3359 7.05078L29.5605 7.05078C30.8691 7.05078 31.6309 6.30859 31.6309 4.94141L31.6309 2.10938C31.6309 0.742188 30.8691 0 29.5605 0L24.3359 0C23.0273 0 22.2656 0.742188 22.2656 2.10938L22.2656 4.94141C22.2656 6.30859 23.0273 7.05078 24.3359 7.05078ZM2.07031 15.5371L7.29492 15.5371C8.60352 15.5371 9.35547 14.8047 9.35547 13.4375L9.35547 10.5957C9.35547 9.22852 8.60352 8.49609 7.29492 8.49609L2.07031 8.49609C0.761719 8.49609 0 9.22852 0 10.5957L0 13.4375C0 14.8047 0.761719 15.5371 2.07031 15.5371ZM13.1934 15.5371L18.4277 15.5371C19.7363 15.5371 20.4785 14.8047 20.4785 13.4375L20.4785 10.5957C20.4785 9.22852 19.7363 8.49609 18.4277 8.49609L13.1934 8.49609C11.8848 8.49609 11.1328 9.22852 11.1328 10.5957L11.1328 13.4375C11.1328 14.8047 11.8848 15.5371 13.1934 15.5371ZM24.3359 15.5371L29.5605 15.5371C30.8691 15.5371 31.6309 14.8047 31.6309 13.4375L31.6309 10.5957C31.6309 9.22852 30.8691 8.49609 29.5605 8.49609L24.3359 8.49609C23.0273 8.49609 22.2656 9.22852 22.2656 10.5957L22.2656 13.4375C22.2656 14.8047 23.0273 15.5371 24.3359 15.5371ZM2.07031 24.0332L7.29492 24.0332C8.60352 24.0332 9.35547 23.291 9.35547 21.9238L9.35547 19.0918C9.35547 17.7246 8.60352 16.9824 7.29492 16.9824L2.07031 16.9824C0.761719 16.9824 0 17.7246 0 19.0918L0 21.9238C0 23.291 0.761719 24.0332 2.07031 24.0332ZM13.1934 24.0332L18.4277 24.0332C19.7363 24.0332 20.4785 23.291 20.4785 21.9238L20.4785 19.0918C20.4785 17.7246 19.7363 16.9824 18.4277 16.9824L13.1934 16.9824C11.8848 16.9824 11.1328 17.7246 11.1328 19.0918L11.1328 21.9238C11.1328 23.291 11.8848 24.0332 13.1934 24.0332ZM24.3359 24.0332L29.5605 24.0332C30.8691 24.0332 31.6309 23.291 31.6309 21.9238L31.6309 19.0918C31.6309 17.7246 30.8691 16.9824 29.5605 16.9824L24.3359 16.9824C23.0273 16.9824 22.2656 17.7246 22.2656 19.0918L22.2656 21.9238C22.2656 23.291 23.0273 24.0332 24.3359 24.0332Z" fill="black" fill-opacity="0.85"/>
 </g>
</svg>
