<?xml version="1.0" encoding="UTF-8"?>
<!--Generator: Apple Native CoreSVG 326-->
<!DOCTYPE svg
PUBLIC "-//W3C//DTD SVG 1.1//EN"
       "http://www.w3.org/Graphics/SVG/1.1/DTD/svg11.dtd">
<svg version="1.1" xmlns="http://www.w3.org/2000/svg" xmlns:xlink="http://www.w3.org/1999/xlink" viewBox="0 0 23.3203 23.252">
 <g>
  <rect height="23.252" opacity="0" width="23.3203" x="0" y="0"/>
  <path d="M22.959 4.05273L22.959 19.4922C22.959 21.9727 21.6797 23.252 19.1504 23.252L3.79883 23.252C1.2793 23.252 0 21.9824 0 19.4922L0 4.05273C0 1.5625 1.2793 0.292969 3.79883 0.292969L19.1504 0.292969C21.6797 0.292969 22.959 1.57227 22.959 4.05273ZM3.83789 2.02148C2.4707 2.02148 1.72852 2.74414 1.72852 4.15039L1.72852 19.3945C1.72852 20.8008 2.4707 21.5234 3.83789 21.5234L19.1211 21.5234C20.459 21.5234 21.2305 20.8008 21.2305 19.3945L21.2305 4.15039C21.2305 2.74414 20.459 2.02148 19.1211 2.02148Z" fill="black" fill-opacity="0.85"/>
  <path d="M16.0645 7.40234L16.0645 7.58789L8.55469 7.58789C7.03125 7.58789 6.15234 8.47656 6.15234 9.9707L6.15234 15.0293L5.82031 15.0293C4.70703 15.0293 4.14062 14.4727 4.14062 13.3594L4.14062 7.40234C4.14062 6.31836 4.70703 5.74219 5.82031 5.74219L14.3945 5.74219C15.5078 5.74219 16.0645 6.31836 16.0645 7.40234Z" fill="black" fill-opacity="0.85"/>
  <path d="M8.55469 17.5977L17.1289 17.5977C18.2422 17.5977 18.8086 17.0508 18.8086 15.9375L18.8086 9.9707C18.8086 8.88672 18.2422 8.31055 17.1289 8.31055L8.55469 8.31055C7.44141 8.31055 6.88477 8.88672 6.88477 9.9707L6.88477 15.9375C6.88477 17.0508 7.44141 17.5977 8.55469 17.5977Z" fill="black" fill-opacity="0.85"/>
 </g>
</svg>
