<?xml version="1.0" ?><!-- Generator: Adobe Illustrator 25.0.0, SVG Export Plug-In . SVG Version: 6.00 Build 0)  --><svg xmlns="http://www.w3.org/2000/svg" xmlns:xlink="http://www.w3.org/1999/xlink" version="1.1" id="Layer_1" x="0px" y="0px" viewBox="0 0 512 512" style="enable-background:new 0 0 512 512;" xml:space="preserve">
<path d="M68.2,455.9h375.6c22.9,0,40-5.6,51.2-16.8c11.3-11.2,16.9-28,16.9-50.3V123.4c0-22.3-5.6-39.1-16.9-50.4  c-11.3-11.3-28.4-16.9-51.2-16.9H68.2C45.5,56.1,28.4,61.7,17,73C5.7,84.2,0,101,0,123.4v265.3c0,22.3,5.7,39,17,50.3  C28.4,450.3,45.5,455.9,68.2,455.9z M68.6,420.9c-10.9,0-19.2-2.9-25-8.6c-5.8-5.7-8.7-14.2-8.7-25.5V125.4  c0-11.3,2.9-19.8,8.7-25.6c5.8-5.8,14.1-8.7,25-8.7h374.8c10.7,0,19,2.9,24.9,8.7c5.9,5.8,8.8,14.3,8.8,25.6v261.4  c0,11.3-2.9,19.8-8.8,25.5c-5.9,5.7-14.2,8.6-24.9,8.6H68.6z" class="hierarchical-0:secondary SFSymbolsPreview4D4D4D" style="fill: #4D4D4D;"/>
<path d="M274.7,391.4h153.7c6.8,0,11.7-1.5,14.7-4.6c3-3,4.5-8,4.5-15V140.4c0-6.9-1.5-11.9-4.5-15c-3-3-7.9-4.6-14.7-4.6H274.7  c-6.8,0-11.7,1.5-14.7,4.6c-3,3-4.5,8-4.5,15v231.5c0,6.9,1.5,11.9,4.5,15C263,389.9,267.9,391.4,274.7,391.4z M74,255.9  c0,3.9,1.4,7.3,4.2,10.3c2.8,3,6.1,4.5,9.9,4.5H149l32.1-1.3l-18,17.2l-23.5,23.2c-2.8,2.6-4.1,6-4.1,10.2c0,3.9,1.2,7.1,3.6,9.7  c2.4,2.5,5.5,3.8,9.2,3.8c2.2,0,4.1-0.4,5.8-1.3c1.7-0.9,3.2-2.2,4.7-3.9l57.8-61.7c3.2-3.5,4.8-7,4.8-10.6s-1.6-7.2-4.8-10.6  l-57.8-61.7c-1.4-1.6-3-2.8-4.7-3.7c-1.7-0.9-3.6-1.3-5.8-1.3c-3.8,0-6.8,1.3-9.2,3.8c-2.4,2.5-3.6,5.8-3.6,9.7  c0,4.1,1.4,7.5,4.1,10.2l23.5,23l18,17.2l-32.1-1.1H88.2c-3.8,0-7.1,1.4-10,4.3C75.3,248.6,73.9,252,74,255.9z" class="hierarchical-1:primary SFSymbolsPreview212121" style="fill: #212121;"/>
</svg>