<?xml version="1.0" ?><!-- Generator: Adobe Illustrator 25.0.0, SVG Export Plug-In . SVG Version: 6.00 Build 0)  --><svg xmlns="http://www.w3.org/2000/svg" xmlns:xlink="http://www.w3.org/1999/xlink" version="1.1" id="Layer_1" x="0px" y="0px" viewBox="0 0 512 512" style="enable-background:new 0 0 512 512;" xml:space="preserve">
<path d="M68.2,455.9h375.6c22.9,0,40-5.6,51.2-16.8c11.3-11.2,16.9-28,16.9-50.5V123.4c0-22.4-5.6-39.3-16.9-50.5  c-11.3-11.2-28.4-16.8-51.2-16.8H68.2C45.5,56.1,28.4,61.7,17,73C5.7,84.2,0,101,0,123.4v265.1C0,411,5.7,427.8,17,439  C28.4,450.3,45.5,455.9,68.2,455.9z M68.6,420.9c-10.9,0-19.2-2.9-25-8.7c-5.8-5.8-8.7-14.3-8.7-25.4V125.2  c0-11.3,2.9-19.8,8.7-25.5c5.8-5.7,14.1-8.6,25-8.6h374.8c10.7,0,19,2.9,24.9,8.6c5.9,5.7,8.8,14.2,8.8,25.5v261.6  c0,11.1-2.9,19.6-8.8,25.4c-5.9,5.8-14.2,8.7-24.9,8.7H68.6z" class="hierarchical-0:secondary SFSymbolsPreview4D4D4D" style="fill: #4D4D4D;"/>
<path d="M83.6,253.3h153.3c6.8,0,11.7-1.5,14.7-4.6c3-3,4.5-8,4.5-15v-96c0-6.9-1.5-11.9-4.5-15c-3-3-7.9-4.6-14.7-4.6H83.6  c-6.8,0-11.7,1.5-14.5,4.6c-2.9,3-4.3,8-4.3,15v96c0,6.9,1.4,11.9,4.3,15C71.9,251.8,76.8,253.3,83.6,253.3z" class="hierarchical-1:primary SFSymbolsPreview212121" style="fill: #212121;"/>
</svg>