<?xml version="1.0" encoding="UTF-8"?>
<!--Generator: Apple Native CoreSVG 326-->
<!DOCTYPE svg
PUBLIC "-//W3C//DTD SVG 1.1//EN"
       "http://www.w3.org/Graphics/SVG/1.1/DTD/svg11.dtd">
<svg version="1.1" xmlns="http://www.w3.org/2000/svg" xmlns:xlink="http://www.w3.org/1999/xlink" viewBox="0 0 25.8008 25.459">
 <g>
  <rect height="25.459" opacity="0" width="25.8008" x="0" y="0"/>
  <path d="M25.4395 12.7246C25.4395 19.7266 19.7266 25.4395 12.7148 25.4395C5.71289 25.4395 0 19.7266 0 12.7246C0 5.71289 5.71289 0 12.7148 0C19.7266 0 25.4395 5.71289 25.4395 12.7246ZM6.2793 6.2793C6.07422 6.49414 6.08398 6.83594 6.2793 7.03125L18.4082 19.1602C18.6035 19.3555 18.9551 19.3652 19.1602 19.1602C19.3652 18.9355 19.3652 18.6133 19.1602 18.4082L7.04102 6.2793C6.83594 6.07422 6.50391 6.07422 6.2793 6.2793ZM7.99805 10.8789L7.99805 16.9824C7.99805 18.125 8.56445 18.7012 9.70703 18.7012L16.7383 18.7012L8.12598 10.0889C8.04011 10.3113 7.99805 10.5755 7.99805 10.8789ZM11.1523 9.17969L19.7656 17.793C19.8417 17.8664 19.9074 17.9456 19.962 18.0291C20.1239 17.7604 20.2051 17.4113 20.2051 16.9824L20.2051 10.8789C20.2051 9.76562 19.6289 9.17969 18.4863 9.17969ZM5.18555 8.24219L5.18555 14.3555C5.18555 15.498 5.75195 16.0547 6.9043 16.0547L7.23633 16.0547L7.23633 10.8789C7.23633 10.3467 7.34578 9.88854 7.55644 9.51933L5.67383 7.63672C5.55943 7.5244 5.46895 7.39524 5.40419 7.25583C5.25767 7.51481 5.18555 7.84492 5.18555 8.24219ZM8.51562 6.54297L10.4004 8.42773L17.4023 8.42773L17.4023 8.24219C17.4023 7.12891 16.8262 6.54297 15.6836 6.54297Z" fill="black" fill-opacity="0.85"/>
 </g>
</svg>
