<?xml version="1.0" encoding="UTF-8"?>
<!--Generator: Apple Native CoreSVG 326-->
<!DOCTYPE svg
PUBLIC "-//W3C//DTD SVG 1.1//EN"
       "http://www.w3.org/Graphics/SVG/1.1/DTD/svg11.dtd">
<svg version="1.1" xmlns="http://www.w3.org/2000/svg" xmlns:xlink="http://www.w3.org/1999/xlink" viewBox="0 0 27.8516 34.1699">
 <g>
  <rect height="34.1699" opacity="0" width="27.8516" x="0" y="0"/>
  <path d="M20.6738 5.35156L20.6738 6.05469L10.5762 6.05469C7.20703 6.05469 5.25391 8.02734 5.25391 11.416L5.25391 26.5527L4.96094 26.5527C2.4707 26.5527 1.19141 25.2637 1.19141 22.7539L1.19141 5.35156C1.19141 2.83203 2.46094 1.55273 4.96094 1.55273L16.9141 1.55273C19.4141 1.55273 20.6738 2.83203 20.6738 5.35156Z" fill="black" fill-opacity="0.85"/>
  <path d="M26.2891 11.416C26.2891 8.88672 25.0293 7.61719 22.5293 7.61719L10.5762 7.61719C8.07617 7.61719 6.80664 8.88672 6.80664 11.416L6.80664 28.8086C6.80664 31.3281 8.08594 32.6172 10.5762 32.6172L22.5293 32.6172C25.0098 32.6172 26.2891 31.3281 26.2891 28.8086Z" fill="black" fill-opacity="0.85"/>
 </g>
</svg>
