<?xml version="1.0" ?><!-- Generator: Adobe Illustrator 25.0.0, SVG Export Plug-In . SVG Version: 6.00 Build 0)  --><svg xmlns="http://www.w3.org/2000/svg" xmlns:xlink="http://www.w3.org/1999/xlink" version="1.1" id="Layer_1" x="0px" y="0px" viewBox="0 0 512 512" style="enable-background:new 0 0 512 512;" xml:space="preserve">
<path d="M369.2,64.6c0-21.5-5.3-37.7-15.9-48.5C342.6,5.4,326.7,0,305.4,0H111.3C90.1,0,74.1,5.4,63.5,16.2  C52.9,26.9,47.5,43.1,47.5,64.6v278.8c0,21.5,5.3,37.7,15.9,48.5c10.6,10.8,26.6,16.2,47.8,16.2h44.9v-33.1H113  c-10.7,0-18.8-2.8-24.2-8.3c-5.4-5.6-8.1-13.4-8.1-23.6V65.2c0-10.3,2.7-18.2,8.1-23.8c5.4-5.6,13.5-8.3,24.2-8.3h190.8  c10.6,0,18.6,2.8,24.1,8.3c5.5,5.6,8.2,13.5,8.2,23.8v50.4h33.1V64.6z" class="hierarchical-0:secondary SFSymbolsPreview4D4D4D" style="fill: #4D4D4D;"/>
<path d="M464.5,166.3c0-21.5-5.3-37.7-15.9-48.5c-10.6-10.8-26.6-16.2-47.8-16.2H206.6c-21.3,0-37.2,5.4-47.8,16.2  c-10.6,10.8-15.9,26.9-15.9,48.5v281.1c0,21.5,5.3,37.7,15.9,48.5c10.6,10.8,26.6,16.2,47.8,16.2h194.1c21.1,0,37-5.4,47.7-16.2  c10.7-10.8,16.1-26.9,16.1-48.5V166.3z M431.3,166.9V447c0,10.2-2.7,18-8.2,23.6c-5.5,5.6-13.6,8.3-24.3,8.3H208.3  c-10.7,0-18.8-2.8-24.2-8.3c-5.4-5.6-8.1-13.4-8.1-23.6V166.9c0-10.3,2.7-18.2,8.1-23.8c5.4-5.6,13.5-8.3,24.2-8.3h190.6  c10.7,0,18.8,2.8,24.3,8.3C428.6,148.7,431.3,156.6,431.3,166.9z" class="hierarchical-1:primary SFSymbolsPreview212121" style="fill: #212121;"/>
</svg>