<?xml version="1.0" ?><!-- Generator: Adobe Illustrator 25.0.0, SVG Export Plug-In . SVG Version: 6.00 Build 0)  --><svg xmlns="http://www.w3.org/2000/svg" xmlns:xlink="http://www.w3.org/1999/xlink" version="1.1" id="Layer_1" x="0px" y="0px" viewBox="0 0 512 512" style="enable-background:new 0 0 512 512;" xml:space="preserve">
<path d="M256,512c140,0,256-116.2,256-256C512,116,395.8,0,255.7,0C116,0,0,116,0,256C0,395.8,116.2,512,256,512z M146.6,218.9V322  h-6c-23.6,0-35.4-11.8-35.4-35.1V166.7c0-23.6,11.8-35.1,35.4-35.1h173.2c23.8,0,35.4,11.5,35.4,35.1v3H196  C163.4,169.7,146.6,186.5,146.6,218.9z M197.5,376.7c-23.8,0-35.6-11.5-35.6-35.1V220.4c0-23.1,11.8-35.1,35.6-35.1h172.9  c23.8,0,35.4,12,35.4,35.1v121.2c0,23.6-11.5,35.1-35.4,35.1H197.5z"/>
</svg>