<?xml version="1.0" encoding="UTF-8"?>
<!--Generator: Apple Native CoreSVG 326-->
<!DOCTYPE svg
PUBLIC "-//W3C//DTD SVG 1.1//EN"
       "http://www.w3.org/Graphics/SVG/1.1/DTD/svg11.dtd">
<svg version="1.1" xmlns="http://www.w3.org/2000/svg" xmlns:xlink="http://www.w3.org/1999/xlink" viewBox="0 0 31.2576 28.4082">
 <g>
  <rect height="28.4082" opacity="0" width="31.2576" x="0" y="0"/>
  <path d="M24.5253 3.66211L24.5253 9.53358C24.1242 9.08968 23.5921 8.85639 22.9921 8.87781L22.9921 3.75C22.9921 2.31445 22.1913 1.5332 20.7851 1.5332L4.33975 1.5332C2.90421 1.5332 2.13272 2.31445 2.13272 3.75L2.13272 16.2207C2.13272 17.6562 2.9335 18.4375 4.33975 18.4375L10.5302 18.4375L11.7954 19.9707L4.31046 19.9707C1.83975 19.9707 0.59952 18.7598 0.59952 16.3086L0.59952 3.66211C0.59952 1.21094 1.83975 0 4.31046 0L20.8144 0C23.2851 0 24.5253 1.21094 24.5253 3.66211Z" fill="black" fill-opacity="0.85"/>
  <path d="M25.5214 26.9141C30.3358 25.166 32.5136 20.7617 30.5214 15.2637L29.6132 12.7734C28.6171 10.0586 26.8202 8.94531 24.662 9.69727C24.0956 8.94531 23.2069 8.67188 22.2206 9.0332C21.8593 9.16016 21.537 9.35547 21.2245 9.59961C20.6191 8.7793 19.6523 8.48633 18.6366 8.84766C18.3534 8.95508 18.0702 9.12109 17.7968 9.31641L16.3319 5.29297C15.8144 3.85742 14.5253 3.28125 13.2265 3.74023C11.8983 4.22852 11.2831 5.49805 11.8007 6.93359L15.5116 17.0898C15.5214 17.1582 15.5116 17.207 15.453 17.2363C15.4042 17.2559 15.3554 17.2363 15.3163 17.1875L13.5487 15.2441C12.8261 14.4629 11.9862 14.248 11.1757 14.5312C10.0722 14.9414 9.35929 15.9961 9.81827 17.2461C9.93546 17.5781 10.1698 17.9883 10.4335 18.3203L14.7206 23.5156C17.7968 27.2363 21.4491 28.3984 25.5214 26.9141ZM25.0624 25.498C21.7323 26.709 18.6171 26.0059 15.8241 22.6172L11.537 17.4316C11.3905 17.2754 11.3026 17.1191 11.2245 16.9043C11.0585 16.4551 11.2636 15.9668 11.7812 15.7715C12.1913 15.625 12.5526 15.791 12.9042 16.1621L15.8046 19.1992C16.2343 19.668 16.6444 19.7168 17.0448 19.5801C17.5038 19.4043 17.7187 18.9258 17.5331 18.4082L13.1386 6.34766C12.9335 5.78125 13.1581 5.26367 13.705 5.05859C14.2421 4.86328 14.7304 5.12695 14.9355 5.70312L18.0605 14.2676C18.1972 14.6387 18.5878 14.8145 18.9687 14.6777C19.33 14.5508 19.5058 14.1602 19.3691 13.7891L18.2265 10.6738C18.4316 10.498 18.6952 10.3125 18.9491 10.2344C19.5839 10 20.121 10.2734 20.3749 10.9668L21.3222 13.584C21.4784 13.9941 21.8788 14.1309 22.2304 14.0039C22.5819 13.877 22.787 13.5156 22.6308 13.1055L21.8202 10.8496C22.0058 10.6641 22.2792 10.498 22.5233 10.4004C23.1776 10.1758 23.7148 10.4395 23.9589 11.1426L24.6034 12.9102C24.7499 13.3203 25.1601 13.457 25.5116 13.3301C25.8437 13.2129 26.0585 12.8418 25.912 12.4316L25.3944 11.0156C26.5468 10.5957 27.6015 11.4746 28.3241 13.4668L29.0956 15.5957C30.8534 20.4102 29.1737 23.9941 25.0624 25.498Z" fill="black" fill-opacity="0.85"/>
 </g>
</svg>
