<?xml version="1.0" encoding="UTF-8"?>
<!--Generator: Apple Native CoreSVG 326-->
<!DOCTYPE svg
PUBLIC "-//W3C//DTD SVG 1.1//EN"
       "http://www.w3.org/Graphics/SVG/1.1/DTD/svg11.dtd">
<svg version="1.1" xmlns="http://www.w3.org/2000/svg" xmlns:xlink="http://www.w3.org/1999/xlink" viewBox="0 0 30.9473 31.5918">
 <g>
  <rect height="31.5918" opacity="0" width="30.9473" x="0" y="0"/>
  <path d="M23.2553 3.47656L7.34027 3.47656C7.40286 2.59177 7.97731 2.08008 8.91602 2.08008L21.6699 2.08008C22.6086 2.08008 23.1917 2.59177 23.2553 3.47656Z" fill="black" fill-opacity="0.85"/>
  <path d="M25.7757 6.89437C25.4256 6.84087 25.0548 6.81641 24.668 6.81641L5.91797 6.81641C5.53106 6.81641 5.16024 6.84065 4.81033 6.89376C4.94314 5.85538 5.65863 5.27344 6.80664 5.27344L23.7793 5.27344C24.9275 5.27344 25.6431 5.85561 25.7757 6.89437Z" fill="black" fill-opacity="0.85"/>
  <path d="M5.91797 29.4824L24.668 29.4824C27.1875 29.4824 28.4668 28.2031 28.4668 25.7129L28.4668 12.6953C28.4668 10.2051 27.1875 8.93555 24.668 8.93555L5.91797 8.93555C3.38867 8.93555 2.11914 10.1953 2.11914 12.6953L2.11914 25.7129C2.11914 28.2129 3.38867 29.4824 5.91797 29.4824Z" fill="black" fill-opacity="0.85"/>
 </g>
</svg>
