<?xml version="1.0" encoding="UTF-8"?>
<!--Generator: Apple Native CoreSVG 326-->
<!DOCTYPE svg
PUBLIC "-//W3C//DTD SVG 1.1//EN"
       "http://www.w3.org/Graphics/SVG/1.1/DTD/svg11.dtd">
<svg version="1.1" xmlns="http://www.w3.org/2000/svg" xmlns:xlink="http://www.w3.org/1999/xlink" viewBox="0 0 35.2344 22.5488">
 <g>
  <rect height="22.5488" opacity="0" width="35.2344" x="0" y="0"/>
  <path d="M2.62695 10.7227L14.4824 10.7227C16.2305 10.7227 17.1094 9.88281 17.1094 8.11523L17.1094 2.59766C17.1094 0.830078 16.2305 0 14.4824 0L2.62695 0C0.888672 0 0 0.830078 0 2.59766L0 8.11523C0 9.88281 0.888672 10.7227 2.62695 10.7227ZM2.75391 9.0918C2.01172 9.0918 1.63086 8.7207 1.63086 7.94922L1.63086 2.76367C1.63086 1.98242 2.01172 1.63086 2.75391 1.63086L14.3555 1.63086C15.0977 1.63086 15.4785 1.98242 15.4785 2.76367L15.4785 7.94922C15.4785 8.7207 15.0977 9.0918 14.3555 9.0918ZM5.84961 22.5098L16.0547 22.5098C17.793 22.5098 18.6816 21.6699 18.6816 19.9023L18.6816 16.0449C18.6816 14.2871 17.793 13.4473 16.0547 13.4473L5.84961 13.4473C4.10156 13.4473 3.21289 14.2871 3.21289 16.0449L3.21289 19.9023C3.21289 21.6699 4.10156 22.5098 5.84961 22.5098ZM5.9668 20.8789C5.22461 20.8789 4.84375 20.5078 4.84375 19.7461L4.84375 16.2109C4.84375 15.4297 5.22461 15.0781 5.9668 15.0781L15.918 15.0781C16.6699 15.0781 17.0508 15.4297 17.0508 16.2109L17.0508 19.7461C17.0508 20.5078 16.6699 20.8789 15.918 20.8789ZM23.7598 21.0938L32.2461 21.0938C33.9844 21.0938 34.873 20.2539 34.873 18.4766L34.873 4.23828C34.873 2.48047 33.9844 1.64062 32.2461 1.64062L23.7598 1.64062C22.0117 1.64062 21.1328 2.48047 21.1328 4.23828L21.1328 18.4766C21.1328 20.2539 22.0117 21.0938 23.7598 21.0938ZM23.877 19.4531C23.1445 19.4531 22.7637 19.0918 22.7637 18.3203L22.7637 4.41406C22.7637 3.63281 23.1445 3.27148 23.877 3.27148L32.1094 3.27148C32.8613 3.27148 33.2422 3.63281 33.2422 4.41406L33.2422 18.3203C33.2422 19.0918 32.8613 19.4531 32.1094 19.4531Z" fill="black" fill-opacity="0.85"/>
 </g>
</svg>
