<?xml version="1.0" encoding="UTF-8"?>
<!--Generator: Apple Native CoreSVG 326-->
<!DOCTYPE svg
PUBLIC "-//W3C//DTD SVG 1.1//EN"
       "http://www.w3.org/Graphics/SVG/1.1/DTD/svg11.dtd">
<svg version="1.1" xmlns="http://www.w3.org/2000/svg" xmlns:xlink="http://www.w3.org/1999/xlink" viewBox="0 0 29.2188 26.9238">
 <g>
  <rect height="26.9238" opacity="0" width="29.2188" x="0" y="0"/>
  <path d="M3.75977 26.9238L17.207 26.9238C19.707 26.9238 20.9668 25.6445 20.9668 23.125L20.9668 3.80859C20.9668 1.28906 19.707 0.00976562 17.207 0.00976562L3.75977 0.00976562C1.25977 0.00976562 0 1.28906 0 3.80859L0 23.125C0 25.6445 1.25977 26.9238 3.75977 26.9238ZM10.6836 13.457C10.6836 12.9883 11.0645 12.5977 11.5137 12.5977L24.6191 12.5977L26.4746 12.666L25.6738 11.8848L23.4375 9.76562C23.2715 9.60938 23.1836 9.375 23.1836 9.16992C23.1836 8.7207 23.5059 8.38867 23.9453 8.38867C24.1699 8.38867 24.3457 8.48633 24.502 8.65234L28.5742 12.832C28.7891 13.0469 28.8574 13.2324 28.8574 13.457C28.8574 13.6719 28.7891 13.8574 28.5742 14.0723L24.502 18.252C24.3457 18.418 24.1699 18.5059 23.9453 18.5059C23.5059 18.5059 23.1836 18.1641 23.1836 17.7246C23.1836 17.5195 23.2715 17.2949 23.4375 17.1387L25.6738 15.0098L26.4746 14.248L24.6191 14.3066L11.5137 14.3066C11.0645 14.3066 10.6836 13.916 10.6836 13.457Z" fill="black" fill-opacity="0.85"/>
 </g>
</svg>
