<?xml version="1.0" encoding="UTF-8"?>
<!--Generator: Apple Native CoreSVG 326-->
<!DOCTYPE svg
PUBLIC "-//W3C//DTD SVG 1.1//EN"
       "http://www.w3.org/Graphics/SVG/1.1/DTD/svg11.dtd">
<svg version="1.1" xmlns="http://www.w3.org/2000/svg" xmlns:xlink="http://www.w3.org/1999/xlink" viewBox="0 0 23.3203 17.3535">
 <g>
  <rect height="17.3535" opacity="0" width="23.3203" x="0" y="0"/>
  <path d="M0 3.81836L0 13.5449C0 16.0742 1.2793 17.3535 3.75977 17.3535L19.1895 17.3535C21.6797 17.3535 22.959 16.0742 22.959 13.5449L22.959 3.81836C22.959 1.29883 21.6895 0.0195312 19.1895 0.0195312L3.75977 0.0195312C1.25977 0.0195312 0 1.29883 0 3.81836ZM1.72852 3.85742C1.72852 2.49023 2.45117 1.74805 3.85742 1.74805L19.1016 1.74805C20.5078 1.74805 21.2305 2.49023 21.2305 3.85742L21.2305 13.5156C21.2305 14.8535 20.5078 15.6152 19.1016 15.6152L3.85742 15.6152C2.45117 15.6152 1.72852 14.8535 1.72852 13.5156Z" fill="black" fill-opacity="0.85"/>
 </g>
</svg>
