<?xml version="1.0" ?><!-- Generator: Adobe Illustrator 25.0.0, SVG Export Plug-In . SVG Version: 6.00 Build 0)  --><svg xmlns="http://www.w3.org/2000/svg" xmlns:xlink="http://www.w3.org/1999/xlink" version="1.1" id="Layer_1" x="0px" y="0px" viewBox="0 0 512 512" style="enable-background:new 0 0 512 512;" xml:space="preserve">
<path d="M35.3,354.1c6.8,39.2,30.1,55.4,70.1,48.3l3.9-0.6v8.7c0,39.8,20.1,59.9,60.6,59.9h281.5c40.4,0,60.6-20.1,60.6-59.9V215.1  c0-39.8-20.3-59.9-60.6-59.9h-41.9l-11.4-63.5c-7-39-30.3-55.6-70.1-48.5l-277.3,49c-40,7-56,29.9-49.2,69.3L35.3,354.1z M65.6,347  L32.4,157.8c-3.5-19.5,5.2-31.7,24.3-35.1L333,74c18.7-3.3,31.3,5,34.8,24.7l10,56.6H169.9c-40.5,0-60.6,19.9-60.6,59.9v155  l-8.7,1.5C81.6,375.2,69.3,366.7,65.6,347z M170.3,439.3c-19.3,0-29.9-10.4-29.9-30.5V216.8c0-20.1,10.6-30.5,29.9-30.5H451  c19.1,0,29.9,10.4,29.9,30.5v191.9c0,20.1-10.8,30.5-29.9,30.5H170.3z"/>
</svg>