<?xml version="1.0" encoding="UTF-8"?>
<!--Generator: Apple Native CoreSVG 326-->
<!DOCTYPE svg
PUBLIC "-//W3C//DTD SVG 1.1//EN"
       "http://www.w3.org/Graphics/SVG/1.1/DTD/svg11.dtd">
<svg version="1.1" xmlns="http://www.w3.org/2000/svg" xmlns:xlink="http://www.w3.org/1999/xlink" viewBox="0 0 22.6562 26.9434">
 <g>
  <rect height="26.9434" opacity="0" width="22.6562" x="0" y="0"/>
  <path d="M12.0117 21.5491C12.8321 21.8205 13.4856 22.4676 13.7641 23.2812L21.4258 23.2812C21.9043 23.2812 22.2949 23.6719 22.2949 24.1406C22.2949 24.6191 21.9043 25.0098 21.4258 25.0098L13.7839 25.0098C13.426 26.1272 12.3736 26.9434 11.1426 26.9434C9.91948 26.9434 8.86854 26.1272 8.51093 25.0098L0.869141 25.0098C0.390625 25.0098 0 24.6191 0 24.1406C0 23.6719 0.390625 23.2812 0.869141 23.2812L8.53069 23.2812C8.80959 22.4659 9.46426 21.8178 10.2832 21.5472L10.2832 18.3984L12.0117 18.3984Z" fill="black" fill-opacity="0.85"/>
  <path d="M3.79883 18.3984L18.4863 18.3984C21.0156 18.3984 22.2949 17.1191 22.2949 14.6387L22.2949 3.7793C22.2949 1.29883 21.0156 0.0195312 18.4863 0.0195312L3.79883 0.0195312C1.26953 0.0195312 0 1.29883 0 3.7793L0 14.6387C0 17.1191 1.26953 18.3984 3.79883 18.3984ZM3.83789 16.6699C2.5 16.6699 1.72852 15.9473 1.72852 14.541L1.72852 3.87695C1.72852 2.4707 2.5 1.74805 3.83789 1.74805L18.457 1.74805C19.7949 1.74805 20.5664 2.4707 20.5664 3.87695L20.5664 14.541C20.5664 15.9473 19.7949 16.6699 18.457 16.6699Z" fill="black" fill-opacity="0.85"/>
 </g>
</svg>
