<?xml version="1.0" encoding="UTF-8"?>
<!--Generator: Apple Native CoreSVG 326-->
<!DOCTYPE svg
PUBLIC "-//W3C//DTD SVG 1.1//EN"
       "http://www.w3.org/Graphics/SVG/1.1/DTD/svg11.dtd">
<svg version="1.1" xmlns="http://www.w3.org/2000/svg" xmlns:xlink="http://www.w3.org/1999/xlink" viewBox="0 0 28.4595 28.1178">
 <g>
  <rect height="28.1178" opacity="0" width="28.4595" x="0" y="0"/>
  <path d="M14.9231 18.0207L23.5344 26.6214C22.9092 27.2204 21.9891 27.5208 20.7825 27.5208L14.9231 27.5208ZM13.1946 16.2944L13.1946 27.5208L7.33521 27.5208C4.83521 27.5208 3.57544 26.2415 3.57544 23.722L3.57544 6.68709ZM24.5422 4.40556L24.5422 21.4368L14.9231 11.8177L14.9231 0.606737L20.7825 0.606737C23.2727 0.606737 24.5422 1.88603 24.5422 4.40556ZM4.59649 1.49106C5.2197 0.901892 6.13439 0.606737 7.33521 0.606737L13.1946 0.606737L13.1946 10.0892Z" fill="black" fill-opacity="0.85"/>
  <path d="M25.3137 26.4954C25.6555 26.8177 26.1731 26.8177 26.4954 26.4954C26.8176 26.1634 26.8176 25.6263 26.4954 25.304L2.78443 1.6126C2.47193 1.29033 1.93482 1.28056 1.60279 1.6126C1.28052 1.9251 1.28052 2.47197 1.60279 2.78447Z" fill="black" fill-opacity="0.85"/>
 </g>
</svg>
