<?xml version="1.0" ?><!-- Generator: Adobe Illustrator 25.0.0, SVG Export Plug-In . SVG Version: 6.00 Build 0)  --><svg xmlns="http://www.w3.org/2000/svg" xmlns:xlink="http://www.w3.org/1999/xlink" version="1.1" id="Layer_1" x="0px" y="0px" viewBox="0 0 512 512" style="enable-background:new 0 0 512 512;" xml:space="preserve">
<path d="M111.6,45.4c4.3-4.6,10.7-6.9,19.3-6.9h249.8c12.4,0,21.8,3.2,28.1,9.7c6.3,6.4,9.4,15.6,9.4,27.6v276.8l38.4,38.4V75  c0-24.8-6.2-43.5-18.5-56.1C425.8,6.3,407.3,0,382.6,0H129c-20.7,0-36.8,4.9-48.2,14.6L111.6,45.4z M129,512h253.6  c20.9,0,36.9-4.7,48.2-14.1l-30.8-31c-4.5,4.5-10.9,6.7-19.3,6.7H130.9c-12.4,0-21.8-3.2-28.1-9.6c-6.3-6.4-9.4-15.5-9.4-27.5V160.2  L55,121.8v315.5c0,25,6.2,43.7,18.5,56.1C85.8,505.8,104.3,512,129,512z" class="hierarchical-0:secondary SFSymbolsPreview4D4D4D" style="fill: #4D4D4D;"/>
<path d="M466.9,492.9c3.7,3.7,8,5.5,13.1,5.5c5.1,0,9.4-1.8,12.9-5.5c3.5-3.5,5.3-7.8,5.4-13c0.1-5.2-1.7-9.6-5.4-13.3L45.2,19.1  c-3.7-3.5-8-5.3-13.1-5.3s-9.5,1.8-13.1,5.3c-3.5,3.5-5.3,7.8-5.3,13s1.8,9.5,5.3,13L466.9,492.9z" class="hierarchical-1:primary SFSymbolsPreview212121" style="fill: #212121;"/>
</svg>