<?xml version="1.0" ?><!-- Generator: Adobe Illustrator 25.0.0, SVG Export Plug-In . SVG Version: 6.00 Build 0)  --><svg xmlns="http://www.w3.org/2000/svg" xmlns:xlink="http://www.w3.org/1999/xlink" version="1.1" id="Layer_1" x="0px" y="0px" viewBox="0 0 512 512" style="enable-background:new 0 0 512 512;" xml:space="preserve">
<path d="M68.2,455.8h328.3l-35.4-35.2H68.6c-10.9,0-19.2-2.9-25-8.6c-5.8-5.7-8.7-14.2-8.7-25.5V125.1c0-10,2.8-17.4,8.5-22.1  L16.1,76C5.4,86.6,0,102.3,0,123.1v265.3c0,22.3,5.7,39.1,17,50.4C28.4,450.1,45.5,455.8,68.2,455.8z M468.8,407.8l27.6,27.6  c10.4-10.6,15.6-26.2,15.6-46.9V123.1c0-22.3-5.6-39.1-16.9-50.4c-11.3-11.3-28.4-16.9-51.2-16.9H116.6l35,35h291.8  c10.7,0,19,2.9,24.9,8.7c5.9,5.8,8.8,14.3,8.8,25.6v261.4C477,396.2,474.3,403.3,468.8,407.8z M238.6,297.9v152.9h35V332.9  L238.6,297.9z M273.6,212.4V60.8h-35v116.8L273.6,212.4z" class="hierarchical-0:secondary SFSymbolsPreview4D4D4D" style="fill: #4D4D4D;"/>
<path d="M463.6,486.2c3.2,3.2,7.1,4.8,11.8,4.8c4.7,0,8.6-1.6,11.8-4.8c3.2-3.3,4.8-7.3,4.8-11.9s-1.6-8.5-4.8-11.7L50.4,25.8  c-3.2-3.2-7.1-4.8-11.8-4.8c-4.7,0-8.7,1.6-12.1,4.8c-3.2,3.2-4.8,7.1-4.8,11.8s1.6,8.6,4.8,11.8L463.6,486.2z" class="hierarchical-1:primary SFSymbolsPreview212121" style="fill: #212121;"/>
</svg>