<?xml version="1.0" ?><!-- Generator: Adobe Illustrator 25.0.0, SVG Export Plug-In . SVG Version: 6.00 Build 0)  --><svg xmlns="http://www.w3.org/2000/svg" xmlns:xlink="http://www.w3.org/1999/xlink" version="1.1" id="Layer_1" x="0px" y="0px" viewBox="0 0 512 512" style="enable-background:new 0 0 512 512;" xml:space="preserve">
<path d="M120.4,118.8v274.5c0,43.8,21.7,65.5,64.7,65.5h141.7c43,0,64.7-21.7,64.7-65.5V118.8c0-43.8-21.5-65.5-64.7-65.5H185.1  C142.1,53.2,120.4,74.9,120.4,118.8z M154,119.2c0-20.9,11.3-32.4,33-32.4h138.2c21.7,0,32.8,11.5,32.8,32.4v273.6  c0,20.5-11.1,32.4-32.8,32.4H187c-21.7,0-33-11.9-33-32.4V119.2z M484.7,309.7c12.9,8.6,27.3,4,27.3-11.7v-83.3  c0-16.3-14-21.3-27.3-12.1l-58,39.4c-10.4,6.9-10.6,21.9,0,29L484.7,309.7z M27.3,309.7l58.2-38.6c10.4-7.1,10.2-22.1,0-29  l-58.2-39.4C14,193.5,0,198.5,0,214.8v83.3C0,313.7,14.6,318.3,27.3,309.7z"/>
</svg>