<?xml version="1.0" encoding="UTF-8"?>
<!--Generator: Apple Native CoreSVG 326-->
<!DOCTYPE svg
PUBLIC "-//W3C//DTD SVG 1.1//EN"
       "http://www.w3.org/Graphics/SVG/1.1/DTD/svg11.dtd">
<svg version="1.1" xmlns="http://www.w3.org/2000/svg" xmlns:xlink="http://www.w3.org/1999/xlink" viewBox="0 0 34.8047 22.5098">
 <g>
  <rect height="22.5098" opacity="0" width="34.8047" x="0" y="0"/>
  <path d="M2.33398 10.7227L14.5508 10.7227C16.0938 10.7227 16.8848 9.95117 16.8848 8.33984L16.8848 2.39258C16.8848 0.771484 16.0938 0.0195312 14.5508 0.0195312L2.33398 0.0195312C0.791016 0.0195312 0 0.771484 0 2.39258L0 8.33984C0 9.95117 0.791016 10.7227 2.33398 10.7227ZM5.41992 22.5098L16.1035 22.5098C17.6562 22.5098 18.4473 21.748 18.4473 20.1367L18.4473 15.8008C18.4473 14.1797 17.6562 13.418 16.1035 13.418L5.41992 13.418C3.86719 13.418 3.07617 14.1797 3.07617 15.8008L3.07617 20.1367C3.07617 21.748 3.86719 22.5098 5.41992 22.5098ZM23.2031 20.9473L32.0996 20.9473C33.6523 20.9473 34.4434 20.1855 34.4434 18.5742L34.4434 4.11133C34.4434 2.5 33.6523 1.72852 32.0996 1.72852L23.2031 1.72852C21.6504 1.72852 20.8594 2.5 20.8594 4.11133L20.8594 18.5742C20.8594 20.1855 21.6504 20.9473 23.2031 20.9473Z" fill="black" fill-opacity="0.85"/>
 </g>
</svg>
