<?xml version="1.0" encoding="UTF-8"?>
<!--Generator: Apple Native CoreSVG 326-->
<!DOCTYPE svg
PUBLIC "-//W3C//DTD SVG 1.1//EN"
       "http://www.w3.org/Graphics/SVG/1.1/DTD/svg11.dtd">
<svg version="1.1" xmlns="http://www.w3.org/2000/svg" xmlns:xlink="http://www.w3.org/1999/xlink" viewBox="0 0 27.417 28.3618">
 <g>
  <rect height="28.3618" opacity="0" width="27.417" x="0" y="0"/>
  <path d="M6.73096 24.0881C6.73096 25.2405 7.35596 25.8752 8.58643 25.8752L18.4985 25.8752C19.7388 25.8752 20.3638 25.2405 20.3638 24.0881L20.3638 23.4814L21.9068 25.0251C21.6264 26.5141 20.4599 27.4573 18.6938 27.4573L8.39111 27.4573C6.3501 27.4573 5.10986 26.1975 5.10986 24.2932L5.10986 23.0823L6.73096 23.0823ZM21.9751 18.8792L20.3638 17.2665L20.3638 14.4495L21.9751 14.4495ZM6.73096 9.84272L6.73096 13.4827L5.10986 13.4827L5.10464 8.2157ZM21.9653 3.63892L21.9653 4.84986L20.354 4.84986L20.354 3.844C20.354 2.69166 19.729 2.05689 18.4888 2.05689L8.57666 2.05689C7.4248 2.05689 6.81208 2.61314 6.73865 3.62965L5.36438 2.2542C5.8265 1.14726 6.89022 0.474859 8.38135 0.474859L18.6841 0.474859C20.7251 0.474859 21.9653 1.73462 21.9653 3.63892Z" fill="black" fill-opacity="0.85"/>
  <path d="M5.29541 15.5335L5.29541 17.467L5.22705 19.2542L6.70166 17.7014L8.77197 15.6213C8.92822 15.4553 9.11377 15.3967 9.28955 15.3967C9.71924 15.3967 10.1196 15.7776 10.1196 16.2073C10.1196 16.3928 10.0513 16.5784 9.88525 16.7444L7.80518 18.8049L6.24268 20.2893L8.04932 20.221L9.89502 20.221C10.3735 20.221 10.6177 20.5725 10.6177 20.9338C10.6177 21.2854 10.3833 21.637 9.92432 21.637L4.77783 21.637C4.20166 21.637 3.87939 21.3147 3.87939 20.7385L3.87939 15.5042C3.87939 15.0354 4.23096 14.8108 4.57275 14.8108C4.93408 14.8108 5.29541 15.0549 5.29541 15.5335ZM23.1958 7.19361L23.1958 12.428C23.1958 12.8967 22.854 13.1213 22.5024 13.1213C22.1411 13.1213 21.7798 12.8772 21.7798 12.3987L21.7798 10.4651L21.8481 8.67798L20.3735 10.2405L18.313 12.3108C18.147 12.4768 17.9614 12.5354 17.7856 12.5354C17.356 12.5354 16.9653 12.1545 16.9653 11.7249C16.9653 11.5393 17.0239 11.3635 17.1997 11.1877L19.27 9.1272L20.8325 7.64283L19.0259 7.71119L17.1899 7.71119C16.7114 7.71119 16.4673 7.34986 16.4673 6.9983C16.4673 6.64673 16.7017 6.29517 17.1606 6.29517L22.2974 6.29517C22.8735 6.29517 23.1958 6.61744 23.1958 7.19361Z" fill="black" fill-opacity="0.85"/>
  <path d="M24.2798 25.4749C24.5923 25.7874 25.1392 25.7971 25.4517 25.4749C25.7739 25.1428 25.7837 24.6155 25.4517 24.2932L2.78564 1.60767C2.47314 1.28541 1.93604 1.27564 1.604 1.60767C1.28174 1.92017 1.28174 2.46705 1.604 2.78931Z" fill="black" fill-opacity="0.85"/>
 </g>
</svg>
