<?xml version="1.0" encoding="UTF-8"?>
<!--Generator: Apple Native CoreSVG 326-->
<!DOCTYPE svg
PUBLIC "-//W3C//DTD SVG 1.1//EN"
       "http://www.w3.org/Graphics/SVG/1.1/DTD/svg11.dtd">
<svg version="1.1" xmlns="http://www.w3.org/2000/svg" xmlns:xlink="http://www.w3.org/1999/xlink" viewBox="0 0 22.4707 26.9434">
 <g>
  <rect height="26.9434" opacity="0" width="22.4707" x="0" y="0"/>
  <path d="M7.35352 26.9434L18.4277 26.9434C20.7324 26.9434 22.0996 25.5859 22.0996 23.3008L22.1094 3.65234C22.1094 1.43555 20.6641 0 18.457 0L14.5898 0C12.6465 0 11.0352 0.488281 9.51172 1.89453L1.55273 9.20898C0.517578 10.166 0 11.5137 0 13.1934L0 19.5898C0 24.0625 2.87109 26.9434 7.35352 26.9434ZM7.39258 25.2148C3.80859 25.2148 1.72852 23.1445 1.72852 19.5508L1.72852 13.2227C1.72852 11.9434 2.04102 11.1133 2.75391 10.4492L10.7031 3.16406C11.8555 2.11914 13.0566 1.72852 14.6289 1.72852L18.418 1.72852C19.6289 1.72852 20.3711 2.49023 20.3711 3.69141L20.3613 23.2715C20.3613 24.6777 19.7656 25.2148 18.3887 25.2148Z" fill="black" fill-opacity="0.85"/>
  <path d="M8.7207 22.1094L16.2109 22.1094C17.168 22.1094 17.666 21.6211 17.666 20.6543L17.666 15.4492C17.666 14.5117 17.168 14.0039 16.2109 14.0039L8.7207 14.0039C7.73438 14.0039 7.25586 14.5117 7.25586 15.4492L7.25586 20.6543C7.25586 21.6211 7.73438 22.1094 8.7207 22.1094ZM4.87305 18.3984C4.87305 19.3359 5.37109 19.834 6.32812 19.834L6.48438 19.834L6.48438 15.4492C6.48438 14.0918 7.29492 13.2324 8.7207 13.2324L15.2734 13.2324L15.2734 13.1641C15.2539 12.2363 14.7754 11.7676 13.8086 11.7676L6.32812 11.7676C5.37109 11.7676 4.87305 12.2559 4.87305 13.2227Z" fill="black" fill-opacity="0.85"/>
 </g>
</svg>
