<?xml version="1.0" ?><!-- Generator: Adobe Illustrator 25.0.0, SVG Export Plug-In . SVG Version: 6.00 Build 0)  --><svg xmlns="http://www.w3.org/2000/svg" xmlns:xlink="http://www.w3.org/1999/xlink" version="1.1" id="Layer_1" x="0px" y="0px" viewBox="0 0 512 512" style="enable-background:new 0 0 512 512;" xml:space="preserve">
<path d="M215.2,0c-15.9,0-20.8,13.8-11.8,27l39,57.5c6.8,10.1,21.7,10.3,28.5,0L309.2,27c8.5-12.6,3.7-27-11.8-27H215.2z M125.7,391  h260.6c43.3,0,64.7-21.4,64.7-63.9V185c0-42.5-21.4-63.9-64.7-63.9H125.7c-43.3,0-64.7,21.2-64.7,63.9V327  C60.9,369.7,82.4,391,125.7,391z M126.1,357.8c-20.6,0-32-11.1-32-32.4V186.6c0-21.4,11.3-32.4,32-32.4h259.8  c20.4,0,32,10.9,32,32.4v138.8c0,21.2-11.5,32.4-32,32.4H126.1z M215.2,512h82.3c15.5,0,20.2-14.4,11.8-27l-38.4-57.5  c-6.8-10.3-21.7-10.1-28.5,0l-39,57.5C194.3,498.2,199.3,512,215.2,512z"/>
</svg>