<?xml version="1.0" ?><!-- Generator: Adobe Illustrator 25.0.0, SVG Export Plug-In . SVG Version: 6.00 Build 0)  --><svg xmlns="http://www.w3.org/2000/svg" xmlns:xlink="http://www.w3.org/1999/xlink" version="1.1" id="Layer_1" x="0px" y="0px" viewBox="0 0 512 512" style="enable-background:new 0 0 512 512;" xml:space="preserve">
<path d="M107.4,29.4h297.4C403.5,10,392.5,0,371.6,0h-231C119.7,0,108.8,10,107.4,29.4z M62.8,92.4h386.6  c-3.4-20.7-13.2-32.1-36-32.1H98.8C76,60.3,66.2,71.7,62.8,92.4z M83.5,512h345c47.6,0,71.5-23.7,71.5-70.5V199.6  c0-46.6-23.9-70.3-71.5-70.3h-345c-47.8,0-71.5,23.4-71.5,70.3v241.9C12.1,488.3,35.7,512,83.5,512z M84,475.4  c-22.8,0-35.3-12.3-35.3-36V201.6c0-23.7,12.5-35.7,35.3-35.7H428c22.3,0,35.3,12.1,35.3,35.7v237.8c0,23.7-13,36-35.3,36H84z"/>
</svg>