<?xml version="1.0" ?><!-- Generator: Adobe Illustrator 25.0.0, SVG Export Plug-In . SVG Version: 6.00 Build 0)  --><svg xmlns="http://www.w3.org/2000/svg" xmlns:xlink="http://www.w3.org/1999/xlink" version="1.1" id="Layer_1" x="0px" y="0px" viewBox="0 0 512 512" style="enable-background:new 0 0 512 512;" xml:space="preserve">
<path d="M142.9,496.3c5.7,0,11-1.5,15.8-4.6c4.8-3.1,10.7-7.7,17.7-13.9l80.1-71.3h149.1c23.1,0,42.5-4.1,58.3-12.4  c15.8-8.3,27.8-20.3,35.9-36.1c8.1-15.8,12.2-35.1,12.2-57.8V122.1c0-22.8-4.1-42-12.2-57.8c-8.1-15.8-20.1-27.8-35.9-36.1  c-15.8-8.3-35.2-12.4-58.3-12.4H106.4c-23.1,0-42.5,4.1-58.3,12.4c-15.8,8.3-27.8,20.3-35.9,36.1C4.1,80,0,99.3,0,122.1V300  c0,22.8,4.1,42,12.2,57.8c8.1,15.8,20.1,27.8,35.9,36.1c15.8,8.3,35.2,12.4,58.3,12.4h11.2v60.4c0,9,2.2,16.1,6.6,21.5  C128.6,493.6,134.8,496.3,142.9,496.3z M152.4,453.8v-67.4c0-6.3-1.3-10.8-3.9-13.5c-2.6-2.6-7.1-3.9-13.5-3.9h-28.6  c-23.5,0-40.9-5.8-52.2-17.5c-11.2-11.7-16.8-28.9-16.8-51.7V122.1c0-22.6,5.6-39.8,16.8-51.5c11.2-11.7,28.6-17.5,52.2-17.5h299.2  c23.4,0,40.7,5.8,52,17.5c11.3,11.7,17,28.8,17,51.5v177.7c0,22.8-5.7,40-17,51.7c-11.3,11.7-28.7,17.5-52,17.5H255.1  c-6.5,0-11.8,0.7-15.8,2.1c-4,1.4-8.2,4.3-12.5,8.8L152.4,453.8z" class="hierarchical-0:secondary SFSymbolsPreview4D4D4D" style="fill: #4D4D4D;"/>
<path d="M314.3,298.2H387c16.7,0,25.1-8.4,25.1-25.1V150c0-16.7-8.4-25.1-25.1-25.1h-72.7c-16.7,0-25.1,8.4-25.1,25.1v123.1  C289.2,289.8,297.6,298.2,314.3,298.2z M122.2,205.2h102c16.9,0,25.3-8.4,25.3-25.1v-46.2c0-16.4-8.4-24.6-25.3-24.6h-102  c-16.9,0-25.3,8.2-25.3,24.6v46.2C96.9,196.9,105.3,205.2,122.2,205.2z M150.5,311.9h87.6c16.7,0,25.1-8.3,25.1-24.9v-31.4  c0-16.7-8.4-25.1-25.1-25.1h-87.6c-16.9,0-25.3,8.4-25.3,25.1V287C125.2,303.6,133.7,311.9,150.5,311.9z" class="hierarchical-1:primary SFSymbolsPreview212121" style="fill: #212121;"/>
</svg>