<?xml version="1.0" ?><!-- Generator: Adobe Illustrator 25.0.0, SVG Export Plug-In . SVG Version: 6.00 Build 0)  --><svg xmlns="http://www.w3.org/2000/svg" xmlns:xlink="http://www.w3.org/1999/xlink" version="1.1" id="Layer_1" x="0px" y="0px" viewBox="0 0 512 512" style="enable-background:new 0 0 512 512;" xml:space="preserve">
<path d="M413.2,236.4h53.5c30.2,0,45.4-15.2,45.4-46.6V83.6c0-31.4-15.2-46.3-45.4-46.3h-53.5c-30.4,0-45.6,15-45.6,46.3v106.2  C367.5,221.2,382.8,236.4,413.2,236.4z M45.4,236.4h53.7c30.2,0,45.4-15.2,45.4-46.6V83.6c0-31.4-15.2-46.3-45.4-46.3H45.4  C15.2,37.3,0,52.3,0,83.6v106.2C0,221.2,15.2,236.4,45.4,236.4z M229.3,236.4H283c30.2,0,45.4-15.2,45.4-46.6V83.6  c0-31.4-15.2-46.3-45.4-46.3h-53.7c-30.2,0-45.4,15-45.4,46.3v106.2C183.9,221.2,199.1,236.4,229.3,236.4z M45.9,202.9  c-8.3,0-12.4-4.3-12.4-13.1V83.6c0-8.6,4-12.8,12.4-12.8h52.5c8.3,0,12.6,4.3,12.6,12.8v106.2c0,8.8-4.3,13.1-12.6,13.1H45.9z   M229.7,202.9c-8.3,0-12.4-4.3-12.4-13.1V83.6c0-8.6,4-12.8,12.4-12.8h52.7c8.3,0,12.4,4.3,12.4,12.8v106.2c0,8.8-4,13.1-12.4,13.1  H229.7z M413.4,202.9c-8.3,0-12.4-4.3-12.4-13.1V83.6c0-8.6,4-12.8,12.4-12.8h52.7c8.3,0,12.4,4.3,12.4,12.8v106.2  c0,8.8-4,13.1-12.4,13.1H413.4z M45.4,474.7h53.7c30.2,0,45.4-15,45.4-46.3V321.9c0-31.1-15.2-46.3-45.4-46.3H45.4  C15.2,275.6,0,290.8,0,321.9v106.4C0,459.7,15.2,474.7,45.4,474.7z M229.3,474.7H283c30.2,0,45.4-15,45.4-46.3V321.9  c0-31.1-15.2-46.3-45.4-46.3h-53.7c-30.2,0-45.4,15.2-45.4,46.3v106.4C183.9,459.7,199.1,474.7,229.3,474.7z M413.2,474.7h53.5  c30.2,0,45.4-15,45.4-46.3V321.9c0-31.1-15.2-46.3-45.4-46.3h-53.5c-30.4,0-45.6,15.2-45.6,46.3v106.4  C367.5,459.7,382.8,474.7,413.2,474.7z M45.9,441.2c-8.3,0-12.4-4.3-12.4-12.8V322.2c0-8.8,4-13.1,12.4-13.1h52.5  c8.3,0,12.6,4.3,12.6,13.1v106.2c0,8.6-4.3,12.8-12.6,12.8H45.9z M229.7,441.2c-8.3,0-12.4-4.3-12.4-12.8V322.2  c0-8.8,4-13.1,12.4-13.1h52.7c8.3,0,12.4,4.3,12.4,13.1v106.2c0,8.6-4,12.8-12.4,12.8H229.7z M413.4,441.2  c-8.3,0-12.4-4.3-12.4-12.8V322.2c0-8.8,4-13.1,12.4-13.1h52.7c8.3,0,12.4,4.3,12.4,13.1v106.2c0,8.6-4,12.8-12.4,12.8H413.4z"/>
</svg>