<?xml version="1.0" encoding="UTF-8"?>
<!--Generator: Apple Native CoreSVG 326-->
<!DOCTYPE svg
PUBLIC "-//W3C//DTD SVG 1.1//EN"
       "http://www.w3.org/Graphics/SVG/1.1/DTD/svg11.dtd">
<svg version="1.1" xmlns="http://www.w3.org/2000/svg" xmlns:xlink="http://www.w3.org/1999/xlink" viewBox="0 0 31.123 24.248">
 <g>
  <rect height="24.248" opacity="0" width="31.123" x="0" y="0"/>
  <path d="M11.2109 24.248L19.5508 24.248C22.0312 24.248 23.3105 22.9785 23.3105 20.4492L23.3105 3.80859C23.3105 1.2793 22.0508 0.00976562 19.5508 0.00976562L11.2109 0.00976562C8.71094 0.00976562 7.45117 1.2793 7.45117 3.80859L7.45117 20.4492C7.45117 22.9785 8.73047 24.248 11.2109 24.248ZM11.3086 22.5195C9.90234 22.5195 9.17969 21.748 9.17969 20.4199L9.17969 3.83789C9.17969 2.48047 9.90234 1.73828 11.3086 1.73828L19.4629 1.73828C20.8594 1.73828 21.582 2.48047 21.582 3.83789L21.582 20.4199C21.582 21.748 20.8594 22.5195 19.4629 22.5195Z" fill="black" fill-opacity="0.85"/>
  <path d="M0 14.9414C0 15.5664 0.507812 15.8105 1.04492 15.4883L5.52734 12.7637C6.04492 12.4316 6.03516 11.8262 5.52734 11.5137L1.03516 8.75977C0.498047 8.4375 0 8.70117 0 9.31641ZM30.7617 14.9414L30.7617 9.31641C30.7617 8.70117 30.2539 8.42773 29.7266 8.75977L25.2344 11.5137C24.7266 11.8164 24.707 12.4414 25.2344 12.7637L29.7168 15.4883C30.2441 15.8203 30.7617 15.5664 30.7617 14.9414Z" fill="black" fill-opacity="0.85"/>
 </g>
</svg>
