<?xml version="1.0" ?><!-- Generator: Adobe Illustrator 25.0.0, SVG Export Plug-In . SVG Version: 6.00 Build 0)  --><svg xmlns="http://www.w3.org/2000/svg" xmlns:xlink="http://www.w3.org/1999/xlink" version="1.1" id="Layer_1" x="0px" y="0px" viewBox="0 0 512 512" style="enable-background:new 0 0 512 512;" xml:space="preserve">
<path d="M463.4,486.2c6.7,6.5,17.4,6.5,23.7,0c6.5-6.5,6.7-17.2,0-23.7L50.4,25.8c-6.5-6.5-17.2-6.5-23.9,0  c-6.5,6.3-6.3,17.4,0,23.7L463.4,486.2z M468.8,408l27.6,27.6c10.4-10.6,15.6-26.5,15.6-47.1V123.3c0-44.7-22.6-67.3-68.2-67.3  H116.6l35,35h291.8c21.5,0,33.7,11.5,33.7,34.1v261.6C477,396.3,474.2,403.4,468.8,408z M68.2,456h328.3l-35.4-35.2H68.6  c-21.7,0-33.7-11.5-33.7-34.1V125.1c0-10,2.8-17.4,8.5-21.9L16.1,76C5.4,86.6,0,102.3,0,123.3v265.1C0,433.4,22.8,456,68.2,456z"/>
</svg>