<?xml version="1.0" encoding="UTF-8"?>
<!--Generator: Apple Native CoreSVG 326-->
<!DOCTYPE svg
PUBLIC "-//W3C//DTD SVG 1.1//EN"
       "http://www.w3.org/Graphics/SVG/1.1/DTD/svg11.dtd">
<svg version="1.1" xmlns="http://www.w3.org/2000/svg" xmlns:xlink="http://www.w3.org/1999/xlink" viewBox="0 0 29.9512 29.6607">
 <g>
  <rect height="29.6607" opacity="0" width="29.9512" x="0" y="0"/>
  <path d="M15.6641 18.7689L23.2108 26.3098L15.6641 26.3098ZM13.9355 17.0417L13.9355 26.3098L3.80859 26.3098C1.28906 26.3098 0 25.0501 0 22.5501L0 7.12037C0 5.79721 0.361089 4.81873 1.07825 4.19438ZM29.5898 7.12037L29.5898 22.5501C29.5898 23.8442 29.2442 24.8114 28.5511 25.4373L15.6641 12.5552L15.6641 3.35084L13.9355 3.35084L13.9355 10.8274L6.45612 3.35084L25.791 3.35084C28.3203 3.35084 29.5898 4.63013 29.5898 7.12037Z" fill="black" fill-opacity="0.85"/>
  <path d="M26.875 28.0481C27.207 28.3801 27.7344 28.3801 28.0566 28.0481C28.3789 27.7161 28.3789 27.1985 28.0566 26.8762L2.79297 1.62232C2.4707 1.30005 1.94336 1.29029 1.61133 1.62232C1.28906 1.93482 1.28906 2.48169 1.61133 2.80396Z" fill="black" fill-opacity="0.85"/>
 </g>
</svg>
