<?xml version="1.0" encoding="UTF-8"?>
<!--Generator: Apple Native CoreSVG 326-->
<!DOCTYPE svg
PUBLIC "-//W3C//DTD SVG 1.1//EN"
       "http://www.w3.org/Graphics/SVG/1.1/DTD/svg11.dtd">
<svg version="1.1" xmlns="http://www.w3.org/2000/svg" xmlns:xlink="http://www.w3.org/1999/xlink" viewBox="0 0 28.2422 30.0098">
 <g>
  <rect height="30.0098" opacity="0" width="28.2422" x="0" y="0"/>
  <path d="M3.51562 23.2031L7.51953 23.2031L7.51953 21.5723L3.71094 21.5723C2.49023 21.5723 1.70898 20.752 1.70898 19.6191L1.70898 10.1074C1.70898 8.98438 2.49023 8.1543 3.71094 8.1543L7.51953 8.1543L7.51953 6.52344L3.51562 6.52344C1.45508 6.52344 0 7.92969 0 9.83398L0 19.9023C0 21.8066 1.45508 23.2031 3.51562 23.2031ZM24.3652 23.2031C26.4258 23.2031 27.8809 21.8066 27.8809 19.9023L27.8809 9.83398C27.8809 7.92969 26.4258 6.52344 24.3652 6.52344L20.3613 6.52344L20.3613 8.1543L24.1699 8.1543C25.3906 8.1543 26.1719 8.98438 26.1719 10.1074L26.1719 19.6191C26.1719 20.752 25.3906 21.5723 24.1699 21.5723L20.3613 21.5723L20.3613 23.2031Z" fill="black" fill-opacity="0.85"/>
  <path d="M13.9453 29.7266C14.1699 29.7266 14.3457 29.6387 14.5703 29.4336L18.8184 25.4199C19.0137 25.2441 19.1309 25.0488 19.1309 24.7852C19.1309 24.3359 18.8086 24.0137 18.3398 24.0137C18.125 24.0137 17.9102 24.1016 17.7441 24.2676L16.1621 25.8496L14.7266 27.334L14.7949 25.0879L14.7949 20.6738C14.7949 20.2246 14.4043 19.8438 13.9453 19.8438C13.4766 19.8438 13.0859 20.2246 13.0859 20.6738L13.0859 25.0879L13.1543 27.334L11.7188 25.8496L10.1367 24.2676C9.98047 24.1016 9.76562 24.0137 9.55078 24.0137C9.0918 24.0137 8.75 24.3359 8.75 24.7852C8.75 25.0488 8.86719 25.2441 9.07227 25.4199L13.3203 29.4336C13.5449 29.6484 13.7207 29.7266 13.9453 29.7266ZM13.9453 9.89258C14.4043 9.89258 14.7949 9.51172 14.7949 9.05273L14.7949 4.64844L14.7266 2.39258L16.1621 3.87695L17.7441 5.45898C17.9102 5.625 18.1152 5.71289 18.3301 5.71289C18.7988 5.71289 19.1309 5.40039 19.1309 4.95117C19.1309 4.6875 19.0137 4.49219 18.8184 4.30664L14.5703 0.292969C14.3359 0.0878906 14.1699 0 13.9453 0C13.7207 0 13.5352 0.0878906 13.3203 0.292969L9.07227 4.30664C8.86719 4.49219 8.75 4.6875 8.75 4.95117C8.75 5.40039 9.08203 5.71289 9.54102 5.71289C9.75586 5.71289 9.98047 5.625 10.1367 5.45898L11.7188 3.87695L13.1543 2.39258L13.0859 4.64844L13.0859 9.05273C13.0859 9.51172 13.4766 9.89258 13.9453 9.89258Z" fill="black" fill-opacity="0.85"/>
 </g>
</svg>
