<?xml version="1.0" ?><!-- Generator: Adobe Illustrator 25.0.0, SVG Export Plug-In . SVG Version: 6.00 Build 0)  --><svg xmlns="http://www.w3.org/2000/svg" xmlns:xlink="http://www.w3.org/1999/xlink" version="1.1" id="Layer_1" x="0px" y="0px" viewBox="0 0 512 512" style="enable-background:new 0 0 512 512;" xml:space="preserve">
<path d="M87.3,512h337.3c29.1,0,50.9-7.2,65.5-21.6c14.6-14.4,21.8-35.9,21.8-64.7V86.2c0-28.7-7.3-50.3-21.8-64.7  C475.6,7.2,453.8,0,424.7,0H87.3C58.2,0,36.4,7.2,21.8,21.6C7.3,35.9,0,57.5,0,86.2v339.6c0,28.7,7.3,50.3,21.8,64.7  C36.4,504.8,58.2,512,87.3,512z M87.9,467.2c-13.9,0-24.6-3.7-32-11c-7.4-7.3-11.1-18.2-11.1-32.7V88.4c0-14.5,3.7-25.4,11.1-32.7  c7.4-7.3,18.1-11,32-11h336.2c13.7,0,24.3,3.7,31.8,11c7.5,7.3,11.3,18.2,11.3,32.7v335.1c0,14.5-3.8,25.4-11.3,32.7  c-7.5,7.3-18.1,11-31.8,11H87.9z" class="hierarchical-0:secondary SFSymbolsPreview4D4D4D" style="fill: #4D4D4D;"/>
<path d="M193.6,385.5h185.8c12.8,0,22.4-3.2,28.8-9.5c6.4-6.3,9.6-15.9,9.6-28.6V217.2c0-12.4-3.2-21.8-9.6-28.1  c-6.4-6.3-16-9.5-28.8-9.5H193.6c-12.8,0-22.4,3.2-28.8,9.5c-6.4,6.3-9.6,15.7-9.6,28.1v130.2c0,12.8,3.2,22.3,9.6,28.6  C171.2,382.3,180.8,385.5,193.6,385.5z M138.8,215.5c0-17.2,4.4-30.3,13.3-39.2c8.9-8.9,22.2-13.3,39.8-13.3h164.6v-3.1  c0-12.8-3.2-22.3-9.5-28.5c-6.3-6.2-15.9-9.3-28.6-9.3H132.4c-12.6,0-22.1,3.1-28.5,9.3c-6.4,6.2-9.6,15.7-9.6,28.5v129  c0,12.4,3.2,21.8,9.6,28.1c6.4,6.3,15.9,9.5,28.5,9.5h6.4V215.5z" class="hierarchical-1:primary SFSymbolsPreview212121" style="fill: #212121;"/>
</svg>