<?xml version="1.0" ?><!-- Generator: Adobe Illustrator 25.0.0, SVG Export Plug-In . SVG Version: 6.00 Build 0)  --><svg xmlns="http://www.w3.org/2000/svg" xmlns:xlink="http://www.w3.org/1999/xlink" version="1.1" id="Layer_1" x="0px" y="0px" viewBox="0 0 512 512" style="enable-background:new 0 0 512 512;" xml:space="preserve">
<path d="M0,170.6h35v-45.4c0-22.6,11.9-34.1,33.7-34.1h44.9v-35H68.2C22.8,56.1,0,78.5,0,123.4V170.6z M512,170.6v-47.1  c0-44.9-22.8-67.3-68.2-67.3h-45.4v35h44.9c21.7,0,33.7,11.5,33.7,34.1v45.4H512z M143.3,91.1h97.9v-35h-97.9V91.1z M270.8,91.1  h97.9v-35h-97.9V91.1z M0,311.7h35V200.3H0V311.7z M512,311.7V200.3h-35v111.4H512z M68.2,455.9h45.4v-35H68.6  c-21.7,0-33.7-11.5-33.7-34.1v-45.4H0v47.1C0,433.5,22.8,455.9,68.2,455.9z M443.8,455.9c45.4,0,68.2-22.4,68.2-67.3v-47.1h-35v45.4  c0,22.6-11.9,34.1-33.7,34.1h-44.9v35H443.8z M143.3,455.9h97.9v-35h-97.9V455.9z M270.8,455.9h97.9v-35h-97.9V455.9z"/>
</svg>