<?xml version="1.0" encoding="UTF-8"?>
<!--Generator: Apple Native CoreSVG 326-->
<!DOCTYPE svg
PUBLIC "-//W3C//DTD SVG 1.1//EN"
       "http://www.w3.org/Graphics/SVG/1.1/DTD/svg11.dtd">
<svg version="1.1" xmlns="http://www.w3.org/2000/svg" xmlns:xlink="http://www.w3.org/1999/xlink" viewBox="0 0 27.8711 27.3926">
 <g>
  <rect height="27.3926" opacity="0" width="27.8711" x="0" y="0"/>
  <path d="M27.5098 7.14844L27.5098 17.1094C27.5098 20.5859 25.5371 22.5977 22.002 22.5977L13.0273 22.5977L8.4668 26.709C7.96875 27.168 7.64648 27.3926 7.2168 27.3926C6.5918 27.3926 6.23047 26.9434 6.23047 26.2598L6.23047 22.5977L5.50781 22.5977C1.96289 22.5977 0 20.6055 0 17.1094L0 7.14844C0 3.65234 1.96289 1.64062 5.50781 1.64062L22.002 1.64062C25.5371 1.64062 27.5098 3.66211 27.5098 7.14844ZM7.66602 13.3008C6.81641 13.3008 6.38672 13.7207 6.38672 14.5801L6.38672 16.5039C6.38672 17.3828 6.81641 17.793 7.66602 17.793L12.7539 17.793C13.6035 17.793 14.0332 17.3828 14.0332 16.5039L14.0332 14.5801C14.0332 13.7207 13.6035 13.3008 12.7539 13.3008ZM16.9238 7.35352C16.0742 7.35352 15.6348 7.77344 15.6348 8.63281L15.6348 15.7129C15.6348 16.582 16.0742 16.9922 16.9238 16.9922L21.1426 16.9922C22.002 16.9922 22.4316 16.582 22.4316 15.7129L22.4316 8.63281C22.4316 7.77344 22.002 7.35352 21.1426 7.35352ZM6.08398 6.45508C5.22461 6.45508 4.78516 6.85547 4.78516 7.72461L4.78516 10.4785C4.78516 11.3379 5.22461 11.7578 6.08398 11.7578L11.9629 11.7578C12.8125 11.7578 13.2617 11.3379 13.2617 10.4785L13.2617 7.72461C13.2617 6.85547 12.8125 6.45508 11.9629 6.45508Z" fill="black" fill-opacity="0.85"/>
 </g>
</svg>
