<?xml version="1.0" encoding="UTF-8"?>
<!--Generator: Apple Native CoreSVG 326-->
<!DOCTYPE svg
PUBLIC "-//W3C//DTD SVG 1.1//EN"
       "http://www.w3.org/Graphics/SVG/1.1/DTD/svg11.dtd">
<svg version="1.1" xmlns="http://www.w3.org/2000/svg" xmlns:xlink="http://www.w3.org/1999/xlink" viewBox="0 0 25.8008 25.459">
 <g>
  <rect height="25.459" opacity="0" width="25.8008" x="0" y="0"/>
  <path d="M25.4395 12.7246C25.4395 19.7266 19.7266 25.4395 12.7148 25.4395C5.71289 25.4395 0 19.7266 0 12.7246C0 5.71289 5.71289 0 12.7148 0C19.7266 0 25.4395 5.71289 25.4395 12.7246ZM18.291 13.3789L18.291 13.9746C18.291 15.2539 17.4316 16.0938 16.1133 16.0938L11.2012 16.0938L11.2012 14.4727C11.2012 14.1309 10.9961 13.9355 10.6445 13.9355C10.4883 13.9355 10.3418 13.9844 10.2148 14.082L7.42188 16.3574C7.10938 16.5918 7.11914 16.9922 7.43164 17.2461L10.2148 19.502C10.3418 19.6094 10.4883 19.6582 10.6445 19.6582C11.0059 19.6582 11.2012 19.4531 11.2012 19.1211L11.2012 17.4609L15.957 17.4609C18.2324 17.4609 19.668 16.1523 19.668 14.0918L19.668 13.3789C19.668 12.998 19.3555 12.7051 18.9746 12.7051C18.5938 12.7051 18.291 12.998 18.291 13.3789ZM11.4062 6.91406L11.4062 8.56445L8.23242 8.56445C5.9668 8.56445 4.54102 9.86328 4.54102 11.9336L4.54102 12.6465C4.54102 13.0176 4.83398 13.3301 5.21484 13.3301C5.5957 13.3301 5.9082 13.0176 5.9082 12.6465L5.9082 12.0508C5.9082 10.7715 6.75781 9.93164 8.07617 9.93164L11.4062 9.93164L11.4062 11.5723C11.4062 11.9043 11.6211 12.1094 11.9629 12.1094C12.1191 12.1094 12.2656 12.0605 12.3828 11.9629L15.1855 9.67773C15.498 9.43359 15.498 9.04297 15.1855 8.78906L12.3828 6.52344C12.2656 6.41602 12.1191 6.36719 11.9629 6.36719C11.6211 6.36719 11.4062 6.58203 11.4062 6.91406ZM17.8906 6.76758L16.8945 7.50977C16.7285 7.64648 16.6602 7.7832 16.6602 7.96875C16.6602 8.23242 16.8652 8.45703 17.168 8.45703C17.2949 8.45703 17.4023 8.41797 17.5195 8.33008L18.2324 7.78441L18.2324 10.4785C18.2324 10.918 18.5156 11.2109 18.9648 11.2109C19.4043 11.2109 19.6777 10.9277 19.6777 10.4785L19.6777 7.28516C19.6777 6.73828 19.3262 6.40625 18.8184 6.40625C18.4863 6.40625 18.2324 6.50391 17.8906 6.76758Z" fill="black" fill-opacity="0.85"/>
 </g>
</svg>
