<?xml version="1.0" encoding="UTF-8"?>
<!--Generator: Apple Native CoreSVG 326-->
<!DOCTYPE svg
PUBLIC "-//W3C//DTD SVG 1.1//EN"
       "http://www.w3.org/Graphics/SVG/1.1/DTD/svg11.dtd">
<svg version="1.1" xmlns="http://www.w3.org/2000/svg" xmlns:xlink="http://www.w3.org/1999/xlink" viewBox="0 0 26.5234 22.0801">
 <g>
  <rect height="22.0801" opacity="0" width="26.5234" x="0" y="0"/>
  <path d="M25.2148 10.6738C24.668 10.6738 24.2676 11.0742 24.2676 11.6211L24.2676 12.793C24.2676 15.0781 22.793 16.4844 20.3906 16.4844L10.8496 16.4844L10.8496 13.5254C10.8496 13.0664 10.5859 12.8125 10.1172 12.8125C9.90234 12.8125 9.70703 12.8906 9.52148 13.0273L4.81445 16.8652C4.41406 17.1973 4.4043 17.6953 4.81445 18.0176L9.52148 21.8652C9.70703 22.002 9.90234 22.0801 10.1172 22.0801C10.5859 22.0801 10.8496 21.8262 10.8496 21.3672L10.8496 18.3398L20.2344 18.3398C23.8184 18.3398 26.1621 16.3086 26.1621 12.9102L26.1621 11.6211C26.1621 11.0742 25.7617 10.6738 25.2148 10.6738Z" fill="black" fill-opacity="0.85"/>
  <path d="M0.947266 11.4258C1.49414 11.4258 1.89453 11.0254 1.89453 10.4785L1.89453 9.30664C1.89453 7.02148 3.36914 5.61523 5.77148 5.61523L15.3223 5.61523L15.3223 8.59375C15.3223 9.05273 15.5859 9.30664 16.0449 9.30664C16.2598 9.30664 16.4648 9.23828 16.6406 9.0918L21.3574 5.25391C21.7383 4.94141 21.7578 4.42383 21.3574 4.10156L16.6406 0.263672C16.4648 0.117188 16.2598 0.0488281 16.0449 0.0488281C15.5859 0.0488281 15.3223 0.302734 15.3223 0.751953L15.3223 3.76953L5.92773 3.76953C2.34375 3.76953 0 5.79102 0 9.18945L0 10.4785C0 11.0254 0.400391 11.4258 0.947266 11.4258Z" fill="black" fill-opacity="0.85"/>
 </g>
</svg>
