<?xml version="1.0" ?><!-- Generator: Adobe Illustrator 25.0.0, SVG Export Plug-In . SVG Version: 6.00 Build 0)  --><svg xmlns="http://www.w3.org/2000/svg" xmlns:xlink="http://www.w3.org/1999/xlink" version="1.1" id="Layer_1" x="0px" y="0px" viewBox="0 0 512 512" style="enable-background:new 0 0 512 512;" xml:space="preserve">
<path d="M256,512c35,0,67.9-6.7,98.8-20.1c30.9-13.4,58.1-31.9,81.7-55.5c23.6-23.6,42.1-50.8,55.5-81.7  C505.3,323.9,512,291,512,256s-6.7-67.9-20.1-98.8c-13.4-30.9-31.9-58.1-55.5-81.7c-23.6-23.6-50.9-42.1-81.8-55.5  C323.7,6.7,290.7,0,255.7,0S187.9,6.7,157,20.1C126.1,33.5,98.9,52,75.4,75.5c-23.5,23.6-42,50.8-55.3,81.7C6.7,188.1,0,221,0,256  s6.7,67.9,20.1,98.8c13.4,30.9,31.9,58.1,55.5,81.7c23.6,23.6,50.8,42.1,81.7,55.5C188.1,505.3,221,512,256,512z" class="multicolor-0:tintColor hierarchical-0:tertiary SFSymbolsPreview007AFF" style="fill: #007AFF;"/>
<path d="M398.8,270.8v15.3c0,20.9-6.9,37.6-20.6,50.1c-13.7,12.5-32.2,18.7-55.5,18.7h-95.1V387c0,3.7-1.1,6.6-3.3,8.8  c-2.2,2.2-5.3,3.3-9.3,3.3c-3.7,0-6.9-1.1-9.5-3.3l-56.5-46.7c-3.2-2.7-4.8-5.9-4.9-9.5c-0.1-3.7,1.5-6.8,4.6-9.3l56.7-46.9  c2.8-2.2,6-3.3,9.5-3.3c3.8,0,6.9,1,9.2,3.1c2.3,2.1,3.4,5.1,3.4,8.9V324h98.1c12.7,0,22.9-3.7,30.5-11c7.6-7.4,11.4-17.1,11.4-29.1  v-13.1c0-4.4,1.5-8,4.5-10.9c3-2.9,6.7-4.4,11-4.4c4.4,0,8,1.5,11,4.4C397.3,262.8,398.8,266.5,398.8,270.8z M89.6,255.2v-15.3  c0-21.1,6.9-37.8,20.6-50.2s32.1-18.6,55.2-18.6h63.2v-31.6c0-3.8,1.1-6.9,3.3-9c2.2-2.2,5.3-3.3,9.3-3.3c3.5,0,6.6,1.1,9.3,3.3  l56.5,46.9c3.3,2.7,5,5.8,5,9.4c0,3.6-1.7,6.7-5,9.4l-56.5,46.9c-2.7,2.2-5.8,3.3-9.3,3.3c-4,0-7.1-1.1-9.3-3.3  c-2.2-2.2-3.3-5.1-3.3-8.8V202h-66.3c-12.7,0-22.9,3.7-30.5,11.2c-7.6,7.4-11.4,17.1-11.4,29v13.1c0,4.4-1.5,8-4.5,11  c-3,3-6.7,4.5-11,4.5c-4.4,0-8-1.5-10.9-4.5C91.1,263.3,89.6,259.6,89.6,255.2z M383.2,228.1c-5,0-9-1.5-12-4.5c-3-3-4.5-7-4.5-12  v-53.7h2.5l-15.6,12.3c-2.5,1.8-5.1,2.8-7.8,2.8c-3.5,0-6.3-1-8.4-3.1c-2.1-2.1-3.1-4.6-3.1-7.7c0-4.2,1.7-7.6,5-10.3l20.1-15.1  c7-5.4,14-8,20.8-8c5.7,0,10.3,1.8,13.8,5.3c3.5,3.5,5.3,8.2,5.3,14.1v63.5c0,5-1.5,9-4.4,12C392,226.6,388.1,228.1,383.2,228.1z" class="multicolor-1:white hierarchical-1:primary SFSymbolsPreviewFFFFFF" style="fill: #FFFFFF;"/>
</svg>