<?xml version="1.0" encoding="UTF-8"?>
<!--Generator: Apple Native CoreSVG 326-->
<!DOCTYPE svg
PUBLIC "-//W3C//DTD SVG 1.1//EN"
       "http://www.w3.org/Graphics/SVG/1.1/DTD/svg11.dtd">
<svg version="1.1" xmlns="http://www.w3.org/2000/svg" xmlns:xlink="http://www.w3.org/1999/xlink" viewBox="0 0 25.8008 25.459">
 <g>
  <rect height="25.459" opacity="0" width="25.8008" x="0" y="0"/>
  <path d="M12.7148 25.4395C19.7363 25.4395 25.4395 19.7461 25.4395 12.7246C25.4395 5.70312 19.7363 0 12.7148 0C5.69336 0 0 5.70312 0 12.7246C0 19.7461 5.69336 25.4395 12.7148 25.4395ZM12.7148 23.623C6.68945 23.623 1.81641 18.75 1.81641 12.7246C1.81641 6.69922 6.68945 1.82617 12.7148 1.82617C18.7402 1.82617 23.6133 6.69922 23.6133 12.7246C23.6133 18.75 18.7402 23.623 12.7148 23.623Z" fill="black" fill-opacity="0.85"/>
  <path d="M4.7168 12.6562C4.7168 13.0176 5 13.3203 5.37109 13.3203C5.74219 13.3203 6.04492 13.0176 6.04492 12.6562L6.04492 12.0801C6.04492 10.8203 6.875 10 8.16406 10L11.416 10L11.416 11.6016C11.416 11.9238 11.6309 12.1289 11.9531 12.1289C12.1094 12.1289 12.2559 12.0801 12.3633 11.9824L15.0977 9.75586C15.4004 9.52148 15.4004 9.14062 15.0977 8.89648L12.3633 6.67969C12.2559 6.58203 12.1094 6.54297 11.9531 6.54297C11.6309 6.54297 11.416 6.73828 11.416 7.07031L11.416 8.68164L8.32031 8.68164C6.10352 8.68164 4.7168 9.94141 4.7168 11.9629ZM19.4727 13.3691C19.4727 12.998 19.1699 12.7148 18.7988 12.7148C18.4277 12.7148 18.125 12.998 18.125 13.3691L18.125 13.9453C18.125 15.2051 17.2949 16.0254 16.0059 16.0254L11.2109 16.0254L11.2109 14.4434C11.2109 14.1113 11.0059 13.916 10.6738 13.916C10.5176 13.916 10.3711 13.9648 10.2539 14.0625L7.5293 16.2793C7.23633 16.5039 7.24609 16.8945 7.53906 17.1289L10.2539 19.3457C10.3711 19.4434 10.5176 19.4922 10.6738 19.4922C11.0156 19.4922 11.2109 19.2969 11.2109 18.9746L11.2109 17.334L15.8496 17.334C18.0762 17.334 19.4727 16.0742 19.4727 14.0625ZM18.7891 11.25C19.209 11.25 19.4824 10.9766 19.4824 10.5371L19.4824 7.42188C19.4824 6.9043 19.1406 6.58203 18.6426 6.58203C18.3105 6.58203 18.0762 6.66992 17.7441 6.91406L16.7676 7.64648C16.6016 7.77344 16.543 7.91016 16.543 8.08594C16.543 8.34961 16.748 8.56445 17.041 8.56445C17.1484 8.56445 17.2656 8.52539 17.3828 8.4375L18.1543 7.85156L18.0762 7.85156L18.0762 10.5371C18.0762 10.9668 18.3496 11.25 18.7891 11.25Z" fill="black" fill-opacity="0.85"/>
 </g>
</svg>
