<?xml version="1.0" encoding="UTF-8"?>
<!--Generator: Apple Native CoreSVG 326-->
<!DOCTYPE svg
PUBLIC "-//W3C//DTD SVG 1.1//EN"
       "http://www.w3.org/Graphics/SVG/1.1/DTD/svg11.dtd">
<svg version="1.1" xmlns="http://www.w3.org/2000/svg" xmlns:xlink="http://www.w3.org/1999/xlink" viewBox="0 0 26.6699 24.1504">
 <g>
  <rect height="24.1504" opacity="0" width="26.6699" x="0" y="0"/>
  <path d="M17.8223 22.8711C18.0566 22.8711 18.3301 22.7637 18.5156 22.5781L25.9961 15.1953C26.2109 14.9902 26.3086 14.7461 26.3086 14.4824C26.3086 14.2188 26.2109 13.9746 25.9961 13.7793L18.5156 6.38672C18.3301 6.21094 18.0566 6.09375 17.8223 6.09375C17.2559 6.09375 16.8848 6.48438 16.8848 7.03125C16.8848 7.30469 16.9727 7.51953 17.1387 7.68555L20.9961 11.4746L24.0332 14.1504L24.2188 13.6816L20.5469 13.5352L3.91602 13.5352C2.54883 13.5352 1.89453 12.8906 1.89453 11.4551L1.89453 3.91602C1.89453 2.53906 2.53906 1.89453 3.91602 1.89453L11.3965 1.89453C11.9727 1.89453 12.3535 1.46484 12.3535 0.947266C12.3535 0.419922 11.9727 0 11.3867 0L3.91602 0C1.19141 0 0 1.19141 0 3.91602L0 11.4551C0 14.1406 1.19141 15.4297 3.91602 15.4297L20.5469 15.4297L24.2188 15.293L24.0332 14.8145L20.9961 17.4902L17.1387 21.2793C16.9727 21.4453 16.8848 21.6602 16.8848 21.9336C16.8848 22.4805 17.2559 22.8711 17.8223 22.8711Z" fill="black" fill-opacity="0.85"/>
 </g>
</svg>
