<?xml version="1.0" encoding="UTF-8"?>
<!--Generator: Apple Native CoreSVG 326-->
<!DOCTYPE svg
PUBLIC "-//W3C//DTD SVG 1.1//EN"
       "http://www.w3.org/Graphics/SVG/1.1/DTD/svg11.dtd">
<svg version="1.1" xmlns="http://www.w3.org/2000/svg" xmlns:xlink="http://www.w3.org/1999/xlink" viewBox="0 0 21.3281 26.9238">
 <g>
  <rect height="26.9238" opacity="0" width="21.3281" x="0" y="0"/>
  <path d="M4.21875 11.4062C3.84766 11.4062 3.62305 11.1914 3.62305 10.8398C3.62305 10.752 3.65234 10.6152 3.70117 10.4785L5.68359 5.12695C5.83984 4.67773 6.10352 4.46289 6.54297 4.46289C6.99219 4.46289 7.26562 4.67773 7.42188 5.12695L9.4043 10.4785C9.45312 10.625 9.47266 10.752 9.47266 10.8398C9.47266 11.1914 9.26758 11.4062 8.88672 11.4062C8.60352 11.4062 8.4082 11.2402 8.31055 10.8887L7.7832 9.47266L5.3125 9.47266L4.79492 10.8887C4.69727 11.25 4.51172 11.4062 4.21875 11.4062ZM5.58594 8.52539L7.51953 8.52539L6.58203 5.77148L6.51367 5.77148ZM12.0996 6.5918C11.6992 6.5918 11.4062 6.28906 11.4062 5.9082C11.4062 5.52734 11.6992 5.23438 12.0996 5.23438L16.748 5.23438C17.1387 5.23438 17.4316 5.52734 17.4316 5.9082C17.4316 6.28906 17.1387 6.5918 16.748 6.5918ZM12.0996 11.0059C11.6992 11.0059 11.4062 10.7031 11.4062 10.3125C11.4062 9.94141 11.6992 9.64844 12.0996 9.64844L16.748 9.64844C17.1387 9.64844 17.4316 9.94141 17.4316 10.3125C17.4316 10.7031 17.1387 11.0059 16.748 11.0059ZM3.47656 22.1094L3.47656 15.6836C3.47656 14.5801 4.08203 14.0137 5.15625 14.0137L15.8203 14.0137C16.9238 14.0137 17.4902 14.5801 17.4902 15.6836L17.4902 22.0117L16.3281 22.0117L13.6328 18.9551C13.3887 18.6719 13.0371 18.5547 12.7148 18.5547C12.4023 18.5547 12.0898 18.6816 11.7773 18.9453L9.08203 21.3184L8.01758 20.3516C7.76367 20.1172 7.48047 20.0098 7.20703 20.0098C6.95312 20.0098 6.68945 20.1172 6.43555 20.3516L4.63867 22.1094ZM8.11523 18.9355C8.89648 18.9355 9.54102 18.291 9.54102 17.5195C9.54102 16.7383 8.89648 16.1133 8.11523 16.0938C7.33398 16.0742 6.69922 16.7383 6.69922 17.5195C6.69922 18.291 7.33398 18.9355 8.11523 18.9355ZM0 23.125C0 25.6445 1.25977 26.9238 3.75977 26.9238L17.207 26.9238C19.707 26.9238 20.9668 25.6445 20.9668 23.125L20.9668 3.80859C20.9668 1.28906 19.707 0.00976562 17.207 0.00976562L3.75977 0.00976562C1.25977 0.00976562 0 1.28906 0 3.80859Z" fill="black" fill-opacity="0.85"/>
 </g>
</svg>
