<?xml version="1.0" encoding="UTF-8"?>
<!--Generator: Apple Native CoreSVG 326-->
<!DOCTYPE svg
PUBLIC "-//W3C//DTD SVG 1.1//EN"
       "http://www.w3.org/Graphics/SVG/1.1/DTD/svg11.dtd">
<svg version="1.1" xmlns="http://www.w3.org/2000/svg" xmlns:xlink="http://www.w3.org/1999/xlink" viewBox="0 0 40.2832 18.623">
 <g>
  <rect height="18.623" opacity="0" width="40.2832" x="0" y="0"/>
  <path d="M5.39062 18.623L6.94336 18.623C7.59766 18.623 7.91992 18.3105 8.11523 17.8223L15.0586 0.673828C15.2051 0.3125 15.0391 0.0195312 14.668 0.0195312L13.9355 0.0195312C13.5742 0.0195312 13.3301 0.185547 13.1738 0.507812L4.62891 17.4121C4.33594 17.9785 4.55078 18.623 5.39062 18.623ZM32.9883 18.623L34.541 18.623C35.3711 18.623 35.5859 17.9785 35.293 17.4121L26.7578 0.507812C26.5918 0.185547 26.3574 0.0195312 25.9863 0.0195312L25.2539 0.0195312C24.8828 0.0195312 24.7168 0.3125 24.8633 0.673828L31.8066 17.8223C32.002 18.3105 32.334 18.623 32.9883 18.623Z" fill="black" fill-opacity="0.85"/>
  <path d="M1.04492 10.4199L5.52734 7.68555C6.05469 7.37305 6.03516 6.74805 5.52734 6.43555L1.03516 3.68164C0.507812 3.35938 0 3.63281 0 4.24805L0 9.87305C0 10.498 0.517578 10.7422 1.04492 10.4199ZM38.8867 10.4199C39.4238 10.7324 39.9219 10.498 39.9219 9.87305L39.9219 4.24805C39.9219 3.63281 39.4238 3.36914 38.8867 3.68164L34.3945 6.43555C33.8867 6.75781 33.877 7.36328 34.3945 7.68555Z" fill="black" fill-opacity="0.85"/>
 </g>
</svg>
