<?xml version="1.0" encoding="UTF-8"?>
<!--Generator: Apple Native CoreSVG 326-->
<!DOCTYPE svg
PUBLIC "-//W3C//DTD SVG 1.1//EN"
       "http://www.w3.org/Graphics/SVG/1.1/DTD/svg11.dtd">
<svg version="1.1" xmlns="http://www.w3.org/2000/svg" xmlns:xlink="http://www.w3.org/1999/xlink" viewBox="0 0 36.0298 18.623">
 <g>
  <rect height="18.623" opacity="0" width="36.0298" x="0" y="0"/>
  <path d="M0.876251 18.623L2.42899 18.623C3.08328 18.623 3.41531 18.3105 3.60086 17.8223C5.91531 12.1094 8.23953 6.38672 10.554 0.673828C10.7005 0.3125 10.5247 0.0195312 10.1634 0.0195312L9.43094 0.0195312C9.05985 0.0195312 8.82547 0.185547 8.66922 0.507812C5.81766 6.14258 2.97586 11.7773 0.124298 17.4121C-0.168671 17.9785 0.0461732 18.623 0.876251 18.623ZM33.2395 18.623L34.7923 18.623C35.6321 18.623 35.847 17.9785 35.5442 17.4121C32.7024 11.7773 29.8606 6.14258 27.0188 0.507812C26.843 0.185547 26.6087 0.0195312 26.2473 0.0195312L25.5149 0.0195312C25.1438 0.0195312 24.968 0.3125 25.1243 0.673828C27.429 6.38672 29.7532 12.1094 32.0677 17.8223C32.2532 18.3105 32.5852 18.623 33.2395 18.623ZM17.5852 3.28125L18.0638 3.28125C18.5032 3.28125 18.8548 2.93945 18.8548 2.49023C18.8548 1.93359 18.8548 1.36719 18.8548 0.800781C18.8548 0.351562 18.5032 0.0195312 18.0638 0.0195312L17.5852 0.0195312C17.1458 0.0195312 16.804 0.351562 16.804 0.800781C16.804 1.36719 16.804 1.93359 16.804 2.49023C16.804 2.93945 17.1458 3.28125 17.5852 3.28125ZM17.5852 10.4297L18.0638 10.4297C18.5032 10.4297 18.8548 10.0977 18.8548 9.63867C18.8548 8.73047 18.8548 7.8125 18.8548 6.9043C18.8548 6.44531 18.5032 6.11328 18.0638 6.11328L17.5852 6.11328C17.1458 6.11328 16.804 6.44531 16.804 6.9043C16.804 7.8125 16.804 8.73047 16.804 9.63867C16.804 10.0977 17.1458 10.4297 17.5852 10.4297ZM17.5852 18.623L18.0638 18.623C18.5032 18.623 18.8548 18.291 18.8548 17.8418C18.8548 16.6309 18.8548 15.4297 18.8548 14.2285C18.8548 13.7695 18.5032 13.4375 18.0638 13.4375L17.5852 13.4375C17.1458 13.4375 16.804 13.7695 16.804 14.2285C16.804 15.4297 16.804 16.6309 16.804 17.8418C16.804 18.291 17.1458 18.623 17.5852 18.623Z" fill="black" fill-opacity="0.85"/>
 </g>
</svg>
