<?xml version="1.0" encoding="UTF-8"?>
<!--Generator: Apple Native CoreSVG 326-->
<!DOCTYPE svg
PUBLIC "-//W3C//DTD SVG 1.1//EN"
       "http://www.w3.org/Graphics/SVG/1.1/DTD/svg11.dtd">
<svg version="1.1" xmlns="http://www.w3.org/2000/svg" xmlns:xlink="http://www.w3.org/1999/xlink" viewBox="0 0 28.2031 20.9863">
 <g>
  <rect height="20.9863" opacity="0" width="28.2031" x="0" y="0"/>
  <path d="M13.9258 9.95117C20.625 9.95117 27.6367 7.73438 27.6367 4.96094C27.6367 2.2168 21.5039 0 13.9258 0C6.33789 0 0.205078 2.2168 0.205078 4.96094C0.205078 7.73438 7.22656 9.95117 13.9258 9.95117ZM13.9258 5.06836C11.5039 5.06836 10.0684 4.44336 10.0684 3.4668C10.0684 2.51953 11.4746 1.85547 13.9258 1.85547C16.377 1.85547 17.7832 2.51953 17.7832 3.4668C17.7832 4.44336 16.3477 5.06836 13.9258 5.06836ZM13.9258 4.15039C15.4883 4.15039 16.4355 3.84766 16.4355 3.4668C16.4355 3.0957 15.5859 2.76367 13.9258 2.76367C12.2559 2.76367 11.4062 3.0957 11.4062 3.4668C11.4062 3.84766 12.3535 4.15039 13.9258 4.15039ZM9.60938 7.7832C8.89648 7.7832 8.31055 7.5 8.31055 7.14844C8.31055 6.79688 8.89648 6.51367 9.60938 6.51367C10.3223 6.51367 10.9082 6.79688 10.9082 7.14844C10.9082 7.5 10.3223 7.7832 9.60938 7.7832ZM13.9258 8.28125C13.2227 8.28125 12.627 7.98828 12.627 7.63672C12.627 7.29492 13.2227 7.00195 13.9258 7.00195C14.6289 7.00195 15.2246 7.29492 15.2246 7.63672C15.2246 7.98828 14.6289 8.28125 13.9258 8.28125ZM18.2422 7.7832C17.5293 7.7832 16.9434 7.5 16.9434 7.14844C16.9434 6.79688 17.5293 6.51367 18.2422 6.51367C18.9551 6.51367 19.541 6.79688 19.541 7.14844C19.541 7.5 18.9551 7.7832 18.2422 7.7832ZM13.9258 17.2266C21.5039 17.2266 27.8418 15.0293 27.8418 11.3477L27.8418 7.34375C26.084 9.54102 20.7715 11.4062 13.9258 11.4062C7.07031 11.4062 1.75781 9.54102 0 7.34375L0 11.3477C0 15.0293 6.34766 17.2266 13.9258 17.2266ZM7.50977 20.8301L14.1895 17.0801C14.5117 16.8848 14.6289 16.4648 14.4531 16.1523C14.248 15.8008 13.8379 15.6934 13.4961 15.8789L6.81641 19.6289C6.49414 19.8047 6.36719 20.2344 6.55273 20.5566C6.74805 20.8984 7.16797 21.0352 7.50977 20.8301ZM20.3516 20.8301C20.6836 21.0352 21.1035 20.8984 21.2988 20.5566C21.4844 20.2344 21.3574 19.8047 21.0352 19.6289L14.3555 15.8789C14.0137 15.6934 13.6035 15.8008 13.3984 16.1523C13.2227 16.4648 13.3398 16.8848 13.6621 17.0801Z" fill="black" fill-opacity="0.85"/>
 </g>
</svg>
