<?xml version="1.0" encoding="UTF-8"?>
<!--Generator: Apple Native CoreSVG 326-->
<!DOCTYPE svg
PUBLIC "-//W3C//DTD SVG 1.1//EN"
       "http://www.w3.org/Graphics/SVG/1.1/DTD/svg11.dtd">
<svg version="1.1" xmlns="http://www.w3.org/2000/svg" xmlns:xlink="http://www.w3.org/1999/xlink" viewBox="0 0 26.9824 25.6543">
 <g>
  <rect height="25.6543" opacity="0" width="26.9824" x="0" y="0"/>
  <path d="M2.19727 7.37305C2.63672 7.37305 2.97852 7.02148 2.97852 6.5918C2.97852 6.16211 2.63672 5.81055 2.19727 5.81055C1.76758 5.81055 1.42578 6.16211 1.42578 6.5918C1.42578 7.02148 1.76758 7.37305 2.19727 7.37305ZM2.19727 10.3613C2.63672 10.3613 2.97852 10 2.97852 9.58008C2.97852 9.15039 2.63672 8.79883 2.19727 8.79883C1.76758 8.79883 1.42578 9.15039 1.42578 9.58008C1.42578 10 1.76758 10.3613 2.19727 10.3613ZM2.19727 13.3398C2.63672 13.3398 2.97852 12.9883 2.97852 12.5586C2.97852 12.1289 2.63672 11.7871 2.19727 11.7871C1.76758 11.7871 1.42578 12.1289 1.42578 12.5586C1.42578 12.9883 1.76758 13.3398 2.19727 13.3398ZM2.19727 16.3281C2.63672 16.3281 2.97852 15.9766 2.97852 15.5469C2.97852 15.1172 2.63672 14.7754 2.19727 14.7754C1.76758 14.7754 1.42578 15.1172 1.42578 15.5469C1.42578 15.9766 1.76758 16.3281 2.19727 16.3281ZM2.19727 19.3066C2.63672 19.3066 2.97852 18.9551 2.97852 18.5352C2.97852 18.1055 2.63672 17.7539 2.19727 17.7539C1.76758 17.7539 1.42578 18.1055 1.42578 18.5352C1.42578 18.9551 1.76758 19.3066 2.19727 19.3066ZM2.19727 25.6348C2.66602 25.6348 3.06641 25.2441 3.06641 24.7754L3.06641 21.6113C3.06641 21.1328 2.67578 20.7422 2.19727 20.7422C1.72852 20.7422 1.33789 21.1328 1.33789 21.6113L1.33789 24.7754C1.33789 25.2441 1.73828 25.6348 2.19727 25.6348Z" fill="black" fill-opacity="0.85"/>
  <path d="M5 4.38477L24.4238 4.38477C25.6348 4.38477 26.6211 3.4082 26.6211 2.19727C26.6211 0.986328 25.6348 0 24.4238 0L5 0C5.46875 0.595703 5.75195 1.36719 5.75195 2.19727C5.75195 3.02734 5.46875 3.78906 5 4.38477ZM2.19727 4.38477C3.4082 4.38477 4.39453 3.4082 4.39453 2.19727C4.39453 0.986328 3.4082 0 2.19727 0C0.986328 0 0 0.986328 0 2.19727C0 3.4082 0.986328 4.38477 2.19727 4.38477Z" fill="black" fill-opacity="0.85"/>
 </g>
</svg>
