<?xml version="1.0" ?><!-- Generator: Adobe Illustrator 25.0.0, SVG Export Plug-In . SVG Version: 6.00 Build 0)  --><svg xmlns="http://www.w3.org/2000/svg" xmlns:xlink="http://www.w3.org/1999/xlink" version="1.1" id="Layer_1" x="0px" y="0px" viewBox="0 0 512 512" style="enable-background:new 0 0 512 512;" xml:space="preserve">
<path d="M377.3,492.5V318.9c37.1-33.5,61-82.1,61-135.7C438.5,82.3,356,0,256,0C155.8,0,73.7,82.3,73.7,183.2  c0,53.9,23.8,102.7,61.4,136.4l0.2,172.9c0,13.8,7.1,19.5,16.5,19.5c8,0,14-4.6,20.2-10.8l74.5-74.3c4.1-3.7,6.9-5,9.6-5  c2.8,0,5.7,1.4,9.6,5l74.5,74.3c6.4,6.4,12.6,10.8,20.2,10.8C370.4,512,377.3,506.3,377.3,492.5z M256.2,329.5  c-81.6-0.2-145.1-65.1-145.1-146.3c0-81.4,63.5-146.7,145.1-146.7c81.4,0,144.9,65.3,145.1,146.7  C401.6,264.4,337.6,329.7,256.2,329.5z"/>
</svg>