<?xml version="1.0" encoding="UTF-8"?>
<!--Generator: Apple Native CoreSVG 326-->
<!DOCTYPE svg
PUBLIC "-//W3C//DTD SVG 1.1//EN"
       "http://www.w3.org/Graphics/SVG/1.1/DTD/svg11.dtd">
<svg version="1.1" xmlns="http://www.w3.org/2000/svg" xmlns:xlink="http://www.w3.org/1999/xlink" viewBox="0 0 31.4258 31.1094">
 <g>
  <rect height="31.1094" opacity="0" width="31.4258" x="0" y="0"/>
  <path d="M0.693359 11.1065C1.06445 11.1065 1.37695 10.794 1.37695 10.4131L1.37695 8.51857C1.37695 5.77443 3.19336 3.75295 6.16211 3.75295L6.38672 3.75295L6.38672 5.4424C6.38672 6.24318 7.05078 6.44826 7.68555 5.97951L10.8496 3.71389C11.3672 3.33303 11.3574 2.9131 10.8496 2.53224L7.68555 0.247089C7.05078-0.221661 6.38672-0.0165833 6.38672 0.803729L6.38672 2.46389L6.15234 2.46389C2.44141 2.46389 0 4.90529 0 8.50881L0 10.4131C0 10.794 0.322266 11.1065 0.693359 11.1065Z" fill="black" fill-opacity="0.85"/>
  <path d="M21.8164 27.0342C23.8477 27.0342 24.873 26.0479 24.873 23.9873L24.873 11.458C24.873 9.38771 23.8477 8.41115 21.8164 8.41115L9.24805 8.41115C7.2168 8.41115 6.19141 9.38771 6.19141 11.458L6.19141 23.9873C6.19141 26.0479 7.2168 27.0342 9.24805 27.0342Z" fill="black" fill-opacity="0.85"/>
 </g>
</svg>
