<?xml version="1.0" ?><!-- Generator: Adobe Illustrator 25.0.0, SVG Export Plug-In . SVG Version: 6.00 Build 0)  --><svg xmlns="http://www.w3.org/2000/svg" xmlns:xlink="http://www.w3.org/1999/xlink" version="1.1" id="Layer_1" x="0px" y="0px" viewBox="0 0 512 512" style="enable-background:new 0 0 512 512;" xml:space="preserve">
<path d="M256,512c140,0,256-116.2,256-256C512,116,395.8,0,255.7,0C116,0,0,116,0,256C0,395.8,116.2,512,256,512z M192,264.3  c0-81.8,20.8-163.4,59.7-221.6c1.3,0,2.8,0,4,0c115.7,0,209.1,90.6,213.3,205.6c-58.2,39.2-140,60-222.1,60c-17.8,0-35.6-1-53.2-3  C192.5,291.6,192,277.8,192,264.3z M151.8,264.3c0,11.3,0.3,22.6,1.3,33.6c-41.2-9.3-79.3-25.1-110.2-46.9  c2.3-98.4,69.8-179.7,161.4-202.3C169.9,108.9,151.8,186.5,151.8,264.3z M256,469.3c-2,0-4,0-6,0c-24.3-34.1-41.2-77.1-50.2-123.2  c15.6,1.5,31.4,2.3,47.2,2.3c79.3,0,158.6-18.8,219.1-54.7C448.5,393.8,361.4,469.3,256,469.3z M46.9,297.7  c32.6,19.8,70.5,33.9,111.2,42.2c7.5,44.7,22.1,86.8,43.4,122.5C123,442,62.7,378.2,46.9,297.7z"/>
</svg>