<?xml version="1.0" ?><!-- Generator: Adobe Illustrator 25.0.0, SVG Export Plug-In . SVG Version: 6.00 Build 0)  --><svg xmlns="http://www.w3.org/2000/svg" xmlns:xlink="http://www.w3.org/1999/xlink" version="1.1" id="Layer_1" x="0px" y="0px" viewBox="0 0 512 512" style="enable-background:new 0 0 512 512;" xml:space="preserve">
<path d="M182.1,61.1C55.9,61.1,0,118.9,0,237.5v147.8c0,43.8,22.2,65.6,66.5,65.6h379c44.3,0,66.5-22,66.5-65.6V237.5  c0-118.6-55.9-176.4-181.9-176.4H182.1z M109.9,356.9c-11.2,0-17.4-7.8-17.4-19.7V175c0-11.6,5.9-19.9,17.2-19.9h62.9  c44.3,0,72.4,25.2,72.4,64.4c0,27.3-16.5,50.2-42.3,58.7l33,51c2.5,4.4,3.8,7.8,3.8,12.7c0,8.9-6.6,15-15.9,15  c-7.8,0-12.3-3.2-17.6-11.4l-37.7-62.3h-40.7v54C127.7,349.5,121.5,356.9,109.9,356.9z M351.7,356.9c-11.2,0-17.4-8-17.4-19.9V183.9  h-53.8c-8.3,0-14.4-5.5-14.4-14.2c0-9.3,6.1-14.6,14.4-14.6h143.1c8.5,0,14.6,5.3,14.6,14.6c0,8.7-6.1,14.2-14.6,14.2h-54.2V337  C369.5,349.3,363.4,356.9,351.7,356.9z M127.7,257.6h39.6c26.5,0,43-13.3,43-37.3c0-24.4-16.9-38.3-41.9-38.3h-40.7V257.6z"/>
</svg>