<?xml version="1.0" ?><!-- Generator: Adobe Illustrator 25.0.0, SVG Export Plug-In . SVG Version: 6.00 Build 0)  --><svg xmlns="http://www.w3.org/2000/svg" xmlns:xlink="http://www.w3.org/1999/xlink" version="1.1" id="Layer_1" x="0px" y="0px" viewBox="0 0 512 512" style="enable-background:new 0 0 512 512;" xml:space="preserve">
<path d="M182.1,61.1C55.9,61.1,0,118.9,0,237.5v147.8c0,43.8,22.2,65.6,66.5,65.6h379c44.3,0,66.5-22,66.5-65.6V237.5  c0-118.6-55.9-176.4-181.9-176.4H182.1z M182.1,95.6h147.8c102.9,0,148,44.9,148,140v148c0,22-11.9,33.2-32.8,33.2H66.9  c-21.2,0-32.8-11.2-32.8-33.2v-148C34.1,140.5,79.2,95.6,182.1,95.6z M114.6,353.7c11.2,0,17.2-7,17.2-18.8v-52.5h39.4l36.6,60.3  c5.1,8,9.5,11,16.9,11c9.1,0,15.5-5.9,15.5-14.4c0-4.7-1.3-8-3.8-12.3l-32-49.5c25-8.3,41.1-30.5,41.1-57  c0-37.9-27.3-62.3-70.1-62.3h-61c-10.8,0-16.5,7.8-16.5,19.1v157.5C97.8,346.3,103.8,353.7,114.6,353.7z M348.7,353.7  c11.2,0,17.2-7.2,17.2-19.1V186h52.7c8,0,14-5.3,14-13.8c0-8.9-5.9-14-14-14H279.9c-8,0-14,5.1-14,14c0,8.5,5.9,13.8,14,13.8H332  v148.6C332,346.1,337.9,353.7,348.7,353.7z M131.7,257.6v-73.5h39.4c24.4,0,40.9,13.6,40.9,37.3c0,23.3-16.1,36.2-41.7,36.2H131.7z"/>
</svg>