<?xml version="1.0" encoding="UTF-8"?>
<!--Generator: Apple Native CoreSVG 326-->
<!DOCTYPE svg
PUBLIC "-//W3C//DTD SVG 1.1//EN"
       "http://www.w3.org/Graphics/SVG/1.1/DTD/svg11.dtd">
<svg version="1.1" xmlns="http://www.w3.org/2000/svg" xmlns:xlink="http://www.w3.org/1999/xlink" viewBox="0 0 30.3809 25.0293">
 <g>
  <rect height="25.0293" opacity="0" width="30.3809" x="0" y="0"/>
  <path d="M30.0195 15.0098C30.0195 11.3281 28.6914 7.95898 26.4844 5.3418C26.2305 5.03906 25.8008 5.04883 25.5176 5.33203L22.6953 8.1543C22.4512 8.39844 22.4414 8.74023 22.6562 9.01367C23.9551 10.6738 24.7266 12.7441 24.7266 15.0098C24.7266 17.2754 23.9551 19.3555 22.5977 21.0742C22.4121 21.3086 22.4219 21.6016 22.627 21.8066L25.5176 24.707C25.8008 25 26.2207 24.9902 26.4844 24.6875C28.6914 22.0703 30.0195 18.6816 30.0195 15.0098Z" fill="black" fill-opacity="0.85"/>
  <path d="M15.0098 5.2832C17.2754 5.2832 19.3652 6.06445 21.0254 7.38281C21.2891 7.57812 21.6113 7.55859 21.8555 7.31445L24.6875 4.48242C24.9805 4.19922 24.9707 3.7793 24.668 3.51562C22.0605 1.32812 18.6816 0 15.0098 0C11.3379 0 7.95898 1.32812 5.35156 3.51562C5.04883 3.7793 5.03906 4.19922 5.32227 4.48242L8.16406 7.31445C8.39844 7.55859 8.75 7.56836 9.02344 7.35352C10.6738 6.06445 12.7539 5.2832 15.0098 5.2832Z" fill="black" fill-opacity="0.85"/>
  <path d="M0 15.0098C0 18.6816 1.32812 22.0703 3.53516 24.6875C3.78906 24.9902 4.21875 25 4.50195 24.707L7.39258 21.8066C7.58789 21.6016 7.60742 21.3086 7.42188 21.0742C6.06445 19.3555 5.2832 17.2754 5.2832 15.0098C5.2832 12.7441 6.05469 10.6738 7.36328 9.01367C7.56836 8.74023 7.56836 8.39844 7.32422 8.1543L4.49219 5.33203C4.20898 5.04883 3.78906 5.03906 3.52539 5.3418C1.31836 7.95898 0 11.3281 0 15.0098Z" fill="black" fill-opacity="0.85"/>
  <path d="M12.8418 20.8691C13.252 20.8691 13.4961 20.6055 13.4961 20.1953L13.4961 18.8477L16.543 18.8477C16.7676 18.8477 16.9141 18.7012 16.9141 18.457C16.9141 18.2324 16.7676 18.0859 16.543 18.0859L13.4961 18.0859L13.4961 16.4258L15.8008 16.4258C18.0762 16.4258 19.4043 14.9316 19.4043 13.0176C19.4043 11.0449 18.0273 9.59961 15.8203 9.59961L12.8516 9.59961C12.4609 9.59961 12.1973 9.88281 12.1973 10.2832L12.1973 15.6543L10.8789 15.6543C10.6445 15.6543 10.498 15.8105 10.498 16.0449C10.498 16.2793 10.6445 16.4258 10.8789 16.4258L12.1973 16.4258L12.1973 18.0859L10.8789 18.0859C10.6445 18.0859 10.498 18.2324 10.498 18.457C10.498 18.7012 10.6445 18.8477 10.8789 18.8477L12.1973 18.8477L12.1973 20.1953C12.1973 20.6055 12.4414 20.8691 12.8418 20.8691ZM13.4961 15.332L13.4961 10.7227L15.4883 10.7227C17.2656 10.7227 18.0664 11.6992 18.0664 13.0176C18.0664 14.502 17.0898 15.332 15.4883 15.332Z" fill="black" fill-opacity="0.85"/>
 </g>
</svg>
