<?xml version="1.0" encoding="UTF-8"?>
<!--Generator: Apple Native CoreSVG 326-->
<!DOCTYPE svg
PUBLIC "-//W3C//DTD SVG 1.1//EN"
       "http://www.w3.org/Graphics/SVG/1.1/DTD/svg11.dtd">
<svg version="1.1" xmlns="http://www.w3.org/2000/svg" xmlns:xlink="http://www.w3.org/1999/xlink" viewBox="0 0 27.9395 26.5527">
 <g>
  <rect height="26.5527" opacity="0" width="27.9395" x="0" y="0"/>
  <path d="M15.2637 0.419922L26.0547 6.65039C26.4453 6.875 26.6211 7.1582 26.6211 7.48047C26.6211 7.91992 26.2891 8.33984 25.6934 8.33984L24.5605 8.33984L24.5605 23.252L25.3613 23.252C25.791 23.252 26.0449 23.5059 26.0449 23.9258L26.0449 24.8047L26.709 24.8047C27.1875 24.8047 27.5781 25.1953 27.5781 25.6738C27.5781 26.1426 27.1875 26.5332 26.709 26.5332L0.869141 26.5332C0.390625 26.5332 0 26.1426 0 25.6738C0 25.1953 0.390625 24.8047 0.869141 24.8047L1.5332 24.8047L1.5332 23.9258C1.5332 23.5059 1.78711 23.252 2.22656 23.252L3.02734 23.252L3.02734 8.33984L1.88477 8.33984C1.28906 8.33984 0.957031 7.91992 0.957031 7.48047C0.957031 7.1582 1.12305 6.875 1.52344 6.65039L12.3145 0.419922C12.7832 0.146484 13.3008 0 13.7891 0C14.2773 0 14.7852 0.146484 15.2637 0.419922ZM11.6016 8.61328C11.2012 8.61328 10.9277 8.90625 10.9277 9.32617L10.9277 14.8242L9.57031 14.8242C9.32617 14.8242 9.16992 14.9805 9.16992 15.2246C9.16992 15.4688 9.32617 15.6152 9.57031 15.6152L10.9277 15.6152L10.9277 17.3145L9.57031 17.3145C9.32617 17.3145 9.16992 17.4707 9.16992 17.6953C9.16992 17.9492 9.32617 18.1055 9.57031 18.1055L10.9277 18.1055L10.9277 19.4727C10.9277 19.9023 11.1719 20.166 11.5918 20.166C12.0117 20.166 12.2656 19.9023 12.2656 19.4727L12.2656 18.1055L15.3809 18.1055C15.6152 18.1055 15.7617 17.9492 15.7617 17.6953C15.7617 17.4707 15.6152 17.3145 15.3809 17.3145L12.2656 17.3145L12.2656 15.6152L14.6191 15.6152C16.9531 15.6152 18.3203 14.082 18.3203 12.1191C18.3203 10.1074 16.9043 8.61328 14.6387 8.61328ZM16.9336 12.1191C16.9336 13.6426 15.9375 14.4922 14.2969 14.4922L12.2656 14.4922L12.2656 9.77539L14.2969 9.77539C16.123 9.77539 16.9336 10.7812 16.9336 12.1191Z" fill="black" fill-opacity="0.85"/>
 </g>
</svg>
