<?xml version="1.0" ?><!-- Generator: Adobe Illustrator 25.0.0, SVG Export Plug-In . SVG Version: 6.00 Build 0)  --><svg xmlns="http://www.w3.org/2000/svg" xmlns:xlink="http://www.w3.org/1999/xlink" version="1.1" id="Layer_1" x="0px" y="0px" viewBox="0 0 512 512" style="enable-background:new 0 0 512 512;" xml:space="preserve">
<path d="M87.3,512h337.3c58.4,0,87.3-28.9,87.3-86.2V86.2C512,28.9,483.1,0,424.7,0H87.3C29.2,0,0,28.6,0,86.2v339.6  C0,483.4,29.2,512,87.3,512z M207.7,399.1c-11.1,0-18.9-7.8-18.9-18.9v-28.9h-25.3c-8.3,0-13.9-5.8-13.9-14.2  c0-8.1,5.6-14.2,13.9-14.2h25.3v-27.8h-25.6c-8.3,0-14.2-6.4-14.2-14.5c0-8.1,5.8-14.2,14.2-14.2h25.6V143.2  c0-11.4,7.2-19.2,18.6-19.2h68.1c53.4,0,87,36.2,87,85.4c0,49.8-33.9,85.4-87.3,85.4h-48.9v28.1h66.7c8.3,0,13.9,6.1,13.9,14.2  c0,8.3-5.6,14.2-13.9,14.2h-66.7v28.9C226.4,391.3,218.6,399.1,207.7,399.1z M226.7,261.1l42.3,0.6c36.7,0,55.9-20,55.9-52  c0-31.4-18.9-51.2-55.9-51.2h-42.3V261.1z"/>
</svg>