<?xml version="1.0" encoding="UTF-8"?>
<!--Generator: Apple Native CoreSVG 326-->
<!DOCTYPE svg
PUBLIC "-//W3C//DTD SVG 1.1//EN"
       "http://www.w3.org/Graphics/SVG/1.1/DTD/svg11.dtd">
<svg version="1.1" xmlns="http://www.w3.org/2000/svg" xmlns:xlink="http://www.w3.org/1999/xlink" viewBox="0 0 25.8008 25.459">
 <g>
  <rect height="25.459" opacity="0" width="25.8008" x="0" y="0"/>
  <path d="M12.7148 25.4395C19.7363 25.4395 25.4395 19.7461 25.4395 12.7246C25.4395 5.70312 19.7363 0 12.7148 0C5.69336 0 0 5.70312 0 12.7246C0 19.7461 5.69336 25.4395 12.7148 25.4395ZM12.7148 23.623C6.68945 23.623 1.81641 18.75 1.81641 12.7246C1.81641 6.69922 6.68945 1.82617 12.7148 1.82617C18.7402 1.82617 23.6133 6.69922 23.6133 12.7246C23.6133 18.75 18.7402 23.623 12.7148 23.623Z" fill="black" fill-opacity="0.85"/>
  <path d="M10.5469 18.418C10.957 18.418 11.2012 18.1543 11.2012 17.7539L11.2012 16.3965L14.2578 16.3965C14.4727 16.3965 14.6191 16.25 14.6191 16.0059C14.6191 15.7812 14.4727 15.6348 14.2578 15.6348L11.2012 15.6348L11.2012 13.9746L13.5059 13.9746C15.791 13.9746 17.1094 12.4902 17.1094 10.5762C17.1094 8.59375 15.7422 7.14844 13.5352 7.14844L10.5566 7.14844C10.1758 7.14844 9.91211 7.43164 9.91211 7.83203L9.91211 13.2031L8.59375 13.2031C8.34961 13.2031 8.20312 13.3594 8.20312 13.5938C8.20312 13.8281 8.34961 13.9746 8.59375 13.9746L9.91211 13.9746L9.91211 15.6348L8.59375 15.6348C8.34961 15.6348 8.20312 15.7812 8.20312 16.0059C8.20312 16.25 8.34961 16.3965 8.59375 16.3965L9.91211 16.3965L9.91211 17.7539C9.91211 18.1543 10.1562 18.418 10.5469 18.418ZM11.2012 12.8906L11.2012 8.27148L13.1934 8.27148C14.9805 8.27148 15.7715 9.24805 15.7715 10.5762C15.7715 12.0508 14.8047 12.8906 13.1934 12.8906Z" fill="black" fill-opacity="0.85"/>
 </g>
</svg>
