<?xml version="1.0" encoding="UTF-8"?>
<!--Generator: Apple Native CoreSVG 326-->
<!DOCTYPE svg
PUBLIC "-//W3C//DTD SVG 1.1//EN"
       "http://www.w3.org/Graphics/SVG/1.1/DTD/svg11.dtd">
<svg version="1.1" xmlns="http://www.w3.org/2000/svg" xmlns:xlink="http://www.w3.org/1999/xlink" viewBox="0 0 30.3809 24.9191">
 <g>
  <rect height="24.9191" opacity="0" width="30.3809" x="0" y="0"/>
  <path d="M30.0195 14.9547C30.0195 7.09334 23.9746 0.648023 16.2988 0.00349172C15.8984-0.0355708 15.5859 0.257398 15.5859 0.667554L15.5859 4.66169C15.5859 4.99373 15.8301 5.2574 16.1719 5.28669C20.9863 5.87263 24.7266 9.97419 24.7266 14.9547C24.7266 17.2203 23.9551 19.3004 22.5879 21.0191C22.4023 21.2535 22.4121 21.5465 22.6172 21.7515L25.5176 24.6519C25.8105 24.9351 26.2305 24.9351 26.4844 24.6226C28.6914 22.0054 30.0195 18.6265 30.0195 14.9547Z" fill="black" fill-opacity="0.85"/>
  <path d="M0 14.9547C0 18.6363 1.32812 22.025 3.54492 24.6422C3.78906 24.9351 4.19922 24.9351 4.49219 24.6519L7.39258 21.7515C7.59766 21.5465 7.60742 21.2535 7.42188 21.0191C6.05469 19.3004 5.2832 17.2203 5.2832 14.9547C5.2832 9.97419 9.0332 5.87263 13.8379 5.28669C14.1895 5.2574 14.4238 4.99373 14.4238 4.66169L14.4238 0.667554C14.4238 0.257398 14.1211-0.0355708 13.7207 0.00349172C6.03516 0.648023 0 7.09334 0 14.9547Z" fill="black" fill-opacity="0.85"/>
  <path d="M12.8418 20.814C13.252 20.814 13.4961 20.5504 13.4961 20.1402L13.4961 18.7926L16.543 18.7926C16.7676 18.7926 16.9141 18.6461 16.9141 18.4019C16.9141 18.1773 16.7676 18.0308 16.543 18.0308L13.4961 18.0308L13.4961 16.3707L15.8008 16.3707C18.0762 16.3707 19.4043 14.8765 19.4043 12.9625C19.4043 10.9898 18.0273 9.54451 15.8203 9.54451L12.8516 9.54451C12.4609 9.54451 12.1973 9.82771 12.1973 10.2281L12.1973 15.5992L10.8789 15.5992C10.6445 15.5992 10.498 15.7554 10.498 15.9898C10.498 16.2242 10.6445 16.3707 10.8789 16.3707L12.1973 16.3707L12.1973 18.0308L10.8789 18.0308C10.6445 18.0308 10.498 18.1773 10.498 18.4019C10.498 18.6461 10.6445 18.7926 10.8789 18.7926L12.1973 18.7926L12.1973 20.1402C12.1973 20.5504 12.4414 20.814 12.8418 20.814ZM13.4961 15.2769L13.4961 10.6676L15.4883 10.6676C17.2656 10.6676 18.0664 11.6441 18.0664 12.9625C18.0664 14.4469 17.0898 15.2769 15.4883 15.2769Z" fill="black" fill-opacity="0.85"/>
 </g>
</svg>
