<?xml version="1.0" encoding="UTF-8"?>
<!--Generator: Apple Native CoreSVG 326-->
<!DOCTYPE svg
PUBLIC "-//W3C//DTD SVG 1.1//EN"
       "http://www.w3.org/Graphics/SVG/1.1/DTD/svg11.dtd">
<svg version="1.1" xmlns="http://www.w3.org/2000/svg" xmlns:xlink="http://www.w3.org/1999/xlink" viewBox="0 0 23.3203 22.959">
 <g>
  <rect height="22.959" opacity="0" width="23.3203" x="0" y="0"/>
  <path d="M22.959 3.76953L22.959 19.1992C22.959 21.6797 21.6797 22.959 19.1504 22.959L3.79883 22.959C1.2793 22.959 0 21.6992 0 19.1992L0 3.76953C0 1.26953 1.2793 0 3.79883 0L19.1504 0C21.6797 0 22.959 1.2793 22.959 3.76953ZM9.28711 5.75195C8.89648 5.75195 8.61328 6.04492 8.61328 6.46484L8.61328 11.9629L7.25586 11.9629C7.02148 11.9629 6.86523 12.1191 6.86523 12.3633C6.86523 12.6074 7.02148 12.7539 7.25586 12.7539L8.61328 12.7539L8.61328 14.4531L7.25586 14.4531C7.02148 14.4531 6.86523 14.6094 6.86523 14.8438C6.86523 15.0879 7.02148 15.2441 7.25586 15.2441L8.61328 15.2441L8.61328 16.6211C8.61328 17.041 8.86719 17.3047 9.27734 17.3047C9.69727 17.3047 9.95117 17.041 9.95117 16.6211L9.95117 15.2441L13.0664 15.2441C13.3008 15.2441 13.4473 15.0879 13.4473 14.8438C13.4473 14.6094 13.3008 14.4531 13.0664 14.4531L9.95117 14.4531L9.95117 12.7539L12.3047 12.7539C14.6484 12.7539 16.0059 11.2305 16.0059 9.26758C16.0059 7.24609 14.5996 5.75195 12.334 5.75195ZM14.6191 9.26758C14.6191 10.7812 13.6328 11.6406 11.9824 11.6406L9.95117 11.6406L9.95117 6.91406L11.9824 6.91406C13.8184 6.91406 14.6191 7.91992 14.6191 9.26758Z" fill="black" fill-opacity="0.85"/>
 </g>
</svg>
