<?xml version="1.0" ?><!-- Generator: Adobe Illustrator 25.0.0, SVG Export Plug-In . SVG Version: 6.00 Build 0)  --><svg xmlns="http://www.w3.org/2000/svg" xmlns:xlink="http://www.w3.org/1999/xlink" version="1.1" id="Layer_1" x="0px" y="0px" viewBox="0 0 512 512" style="enable-background:new 0 0 512 512;" xml:space="preserve">
<path d="M256,512c140,0,256-116.2,256-256C512,116,395.8,0,255.7,0C116,0,0,116,0,256C0,395.8,116.2,512,256,512z M256,469.3  c-118.5,0-213.1-94.9-213.1-213.3S137.3,42.7,255.7,42.7S469.1,137.5,469.3,256S374.5,469.3,256,469.3z M213.3,381.5  c9.5,0,16.1-6.8,16.1-16.3v-25.3h58.7c7.3,0,12-5.5,12-12.5c0-7-4.8-12.3-12-12.3h-58.7v-24.6h42.9c46.9,0,76.5-31.1,76.5-74.5  s-29.4-74.8-76.3-74.8h-59.5c-9.8,0-16.3,6.5-16.3,16.8v107.7h-22.3c-7.5,0-12.3,5.3-12.3,12.5c0,7,4.8,12.3,12.3,12.3h22.3V315  h-22.1c-7.3,0-12.3,5.3-12.3,12.3c0,7,5,12.5,12.3,12.5h22.1v25.3C196.8,375,203.8,381.5,213.3,381.5z M229.6,260.8v-89.6h37.1  c32.6,0,49.2,17.3,49.2,44.9s-16.8,45.2-49.2,45.2L229.6,260.8z"/>
</svg>