<?xml version="1.0" ?><!-- Generator: Adobe Illustrator 25.0.0, SVG Export Plug-In . SVG Version: 6.00 Build 0)  --><svg xmlns="http://www.w3.org/2000/svg" xmlns:xlink="http://www.w3.org/1999/xlink" version="1.1" id="Layer_1" x="0px" y="0px" viewBox="0 0 512 512" style="enable-background:new 0 0 512 512;" xml:space="preserve">
<path d="M256,512c140,0,256-116.2,256-256C512,116,395.8,0,255.7,0C116,0,0,116,0,256C0,395.8,116.2,512,256,512z M212.1,385.5  c-10,0-17.3-7-17.3-17.1v-26.1h-22.6c-7.5,0-12.5-5.3-12.5-12.8c0-7.3,5-12.8,12.5-12.8h22.6v-25.1h-22.8c-7.8,0-12.8-5.8-12.8-13.1  s5-12.8,12.8-12.8h22.8V154.6c0-10.3,6.8-17.3,17.1-17.3h61.2c48.4,0,78.8,32.6,78.8,77.1c0,44.9-30.6,77.1-79.1,77.1h-44.2v25.3  h60.5c7.5,0,12.5,5.5,12.5,12.8c0,7.5-5,12.8-12.5,12.8h-60.5v26.1C228.6,378.5,221.9,385.5,212.1,385.5z M228.9,261l38.1,0.5  c33.4,0,50.7-18.1,50.7-46.9c0-28.4-17.1-46.2-50.7-46.2h-38.1V261z"/>
</svg>