<?xml version="1.0" encoding="UTF-8"?>
<!--Generator: Apple Native CoreSVG 326-->
<!DOCTYPE svg
PUBLIC "-//W3C//DTD SVG 1.1//EN"
       "http://www.w3.org/Graphics/SVG/1.1/DTD/svg11.dtd">
<svg version="1.1" xmlns="http://www.w3.org/2000/svg" xmlns:xlink="http://www.w3.org/1999/xlink" viewBox="0 0 25.8008 25.459">
 <g>
  <rect height="25.459" opacity="0" width="25.8008" x="0" y="0"/>
  <path d="M25.4395 12.7246C25.4395 19.7266 19.7266 25.4395 12.7148 25.4395C5.71289 25.4395 0 19.7266 0 12.7246C0 5.71289 5.71289 0 12.7148 0C19.7266 0 25.4395 5.71289 25.4395 12.7246ZM9.00391 8.99414C6.66992 11.3184 5.46875 15 6.39648 17.9492C6.45508 18.1445 6.51367 18.291 6.57227 18.4375L10.4492 14.5801L9.95117 14.082C9.82422 13.9648 9.82422 13.7695 9.95117 13.6621C10.0684 13.5449 10.2539 13.5449 10.3809 13.6621L11.7773 15.0684C11.8945 15.1758 11.8848 15.3809 11.7773 15.4883C11.6699 15.6055 11.4746 15.6152 11.3574 15.4883L10.8691 15L7.01172 18.877C7.13867 18.9453 7.29492 18.9941 7.5 19.0527C10.4688 19.9609 14.1406 18.7891 16.4648 16.4551C18.7988 14.1309 19.9609 10.459 19.0625 7.5C19.0137 7.29492 18.9551 7.13867 18.8867 7.00195L15.0391 10.8398L15.5273 11.3184C15.6543 11.4258 15.6445 11.6309 15.5273 11.748C15.4102 11.8555 15.2246 11.8652 15.0977 11.748L13.6914 10.3418C13.5742 10.2148 13.5742 10.0293 13.6914 9.92188C13.8184 9.79492 14.0039 9.79492 14.1211 9.92188L14.5996 10.4004L18.4668 6.57227C18.3203 6.50391 18.1738 6.45508 17.959 6.37695C15 5.48828 11.3281 6.66992 9.00391 8.99414ZM11.3184 12.7246L12.7246 14.1309C12.832 14.2285 12.8223 14.4434 12.7246 14.5508C12.6074 14.668 12.4121 14.6777 12.2949 14.5508L10.8887 13.1445C10.7617 13.0273 10.7617 12.832 10.8887 12.7246C11.0059 12.6074 11.2012 12.6074 11.3184 12.7246ZM12.2559 11.7969L13.6621 13.1934C13.7891 13.3008 13.7695 13.5156 13.6621 13.6133C13.5547 13.7305 13.3496 13.7305 13.2422 13.6133L11.8359 12.2168C11.7188 12.0996 11.7188 11.8945 11.8359 11.7969C11.9531 11.6699 12.1484 11.6699 12.2559 11.7969ZM13.1738 10.8496L14.5801 12.2559C14.707 12.3633 14.6973 12.5684 14.5801 12.6758C14.4727 12.793 14.2676 12.793 14.1504 12.6758L12.7539 11.2793C12.6367 11.1523 12.6367 10.957 12.7539 10.8496C12.8711 10.7324 13.0664 10.7324 13.1738 10.8496Z" fill="black" fill-opacity="0.85"/>
 </g>
</svg>
