<?xml version="1.0" encoding="UTF-8"?>
<!--Generator: Apple Native CoreSVG 326-->
<!DOCTYPE svg
PUBLIC "-//W3C//DTD SVG 1.1//EN"
       "http://www.w3.org/Graphics/SVG/1.1/DTD/svg11.dtd">
<svg version="1.1" xmlns="http://www.w3.org/2000/svg" xmlns:xlink="http://www.w3.org/1999/xlink" viewBox="0 0 30.8203 13.252">
 <g>
  <rect height="13.252" opacity="0" width="30.8203" x="0" y="0"/>
  <path d="M30.459 3.29102C30.459 1.14258 29.3164 0 27.1387 0L3.31055 0C1.14258 0 0 1.13281 0 3.29102L0 9.96094C0 12.1094 1.15234 13.252 3.32031 13.252L27.1387 13.252C29.3262 13.252 30.459 12.1094 30.459 9.96094ZM3.7207 1.8457L3.7207 7.62695C3.7207 7.91016 3.52539 8.10547 3.25195 8.10547C2.98828 8.10547 2.77344 7.91992 2.77344 7.63672L2.77344 1.8457ZM6.11328 1.8457L6.11328 5.42969C6.11328 5.71289 5.92773 5.9082 5.64453 5.9082C5.38086 5.9082 5.17578 5.72266 5.17578 5.43945L5.17578 1.8457ZM8.51562 1.8457L8.51562 5.42969C8.51562 5.71289 8.33008 5.9082 8.04688 5.9082C7.7832 5.9082 7.57812 5.72266 7.57812 5.43945L7.57812 1.8457ZM10.9082 1.8457L10.9082 5.42969C10.9082 5.71289 10.7227 5.9082 10.4395 5.9082C10.1758 5.9082 9.9707 5.72266 9.9707 5.43945L9.9707 1.8457ZM13.3105 1.8457L13.3105 5.42969C13.3105 5.71289 13.1152 5.9082 12.8418 5.9082C12.5781 5.9082 12.3633 5.72266 12.3633 5.43945L12.3633 1.8457ZM15.7031 1.8457L15.7031 7.62695C15.7031 7.91016 15.5176 8.10547 15.2344 8.10547C14.9707 8.10547 14.7656 7.91992 14.7656 7.63672L14.7656 1.8457ZM18.1055 1.8457L18.1055 5.42969C18.1055 5.71289 17.9199 5.9082 17.6367 5.9082C17.373 5.9082 17.168 5.72266 17.168 5.43945L17.168 1.8457ZM20.5078 1.8457L20.5078 5.42969C20.5078 5.71289 20.3125 5.9082 20.0293 5.9082C19.7754 5.9082 19.5605 5.72266 19.5605 5.43945L19.5605 1.8457ZM22.8906 1.8457L22.8906 5.42969C22.8906 5.71289 22.7051 5.9082 22.4219 5.9082C22.1582 5.9082 21.9531 5.72266 21.9531 5.43945L21.9531 1.8457ZM25.293 1.8457L25.293 5.42969C25.293 5.71289 25.1074 5.9082 24.8242 5.9082C24.5605 5.9082 24.3555 5.72266 24.3555 5.43945L24.3555 1.8457ZM27.6758 1.8457L27.6758 7.62695C27.6758 7.91016 27.4902 8.10547 27.207 8.10547C26.9434 8.10547 26.7383 7.91992 26.7383 7.63672L26.7383 1.8457Z" fill="black" fill-opacity="0.85"/>
 </g>
</svg>
