<?xml version="1.0" encoding="UTF-8"?>
<!--Generator: Apple Native CoreSVG 326-->
<!DOCTYPE svg
PUBLIC "-//W3C//DTD SVG 1.1//EN"
       "http://www.w3.org/Graphics/SVG/1.1/DTD/svg11.dtd">
<svg version="1.1" xmlns="http://www.w3.org/2000/svg" xmlns:xlink="http://www.w3.org/1999/xlink" viewBox="0 0 25.8008 25.459">
 <g>
  <rect height="25.459" opacity="0" width="25.8008" x="0" y="0"/>
  <path d="M12.7148 25.4395C19.7363 25.4395 25.4395 19.7461 25.4395 12.7246C25.4395 5.70312 19.7363 0 12.7148 0C5.69336 0 0 5.70312 0 12.7246C0 19.7461 5.69336 25.4395 12.7148 25.4395ZM12.7148 23.623C6.68945 23.623 1.81641 18.75 1.81641 12.7246C1.81641 6.69922 6.68945 1.82617 12.7148 1.82617C18.7402 1.82617 23.6133 6.69922 23.6133 12.7246C23.6133 18.75 18.7402 23.623 12.7148 23.623Z" fill="black" fill-opacity="0.85"/>
  <path d="M7.7832 17.9395C8.17383 17.9395 8.4082 17.6855 8.4082 17.2754L8.4082 13.6621L10.0879 13.6621L11.7285 17.4805C11.8457 17.7832 12.041 17.9395 12.3535 17.9395C12.7051 17.9395 12.9883 17.7148 12.9883 17.3438C12.9883 17.1875 12.9199 17.0605 12.8418 16.8848L11.3184 13.3887C12.4609 12.9102 12.998 11.8164 12.998 10.6055C12.998 8.88672 11.9824 7.60742 9.9707 7.60742L7.77344 7.60742C7.38281 7.60742 7.13867 7.85156 7.13867 8.25195L7.13867 17.2754C7.13867 17.6855 7.38281 17.9395 7.7832 17.9395ZM8.4082 12.627L8.4082 8.67188L9.84375 8.67188C11.0449 8.67188 11.7188 9.43359 11.7188 10.6348C11.7188 11.8359 11.084 12.627 9.85352 12.627ZM16.7578 17.9492C18.2227 17.9492 19.4043 17.1094 19.4043 15.6543C19.4043 14.4629 18.6914 13.916 17.5 13.584L16.5039 13.3105C15.8887 13.1445 15.3906 12.8223 15.3906 12.168C15.3906 11.4258 15.9766 10.9473 16.7188 10.9473C17.5098 10.9473 17.9883 11.4062 18.2422 12.0312C18.3203 12.2168 18.4863 12.334 18.6816 12.334C19.0332 12.334 19.1699 12.1191 19.1699 11.8848C19.1699 11.7969 19.1504 11.6797 19.1113 11.5723C18.877 10.6836 17.9395 10.0098 16.7578 10.0098C15.1758 10.0098 14.1895 10.9277 14.1895 12.2363C14.1895 13.3984 14.9609 14.0039 16.0742 14.3066L17.0801 14.5703C17.7539 14.7559 18.1934 15.1172 18.1934 15.7715C18.1934 16.5234 17.6367 17.0117 16.8164 17.0117C15.9473 17.0117 15.459 16.6797 15.0781 15.9082C14.9512 15.6445 14.7559 15.5371 14.5605 15.5371C14.2676 15.5371 14.0527 15.7324 14.0527 16.0254C14.0527 16.123 14.0918 16.2402 14.1309 16.3574C14.4531 17.4414 15.6152 17.9492 16.7578 17.9492Z" fill="black" fill-opacity="0.85"/>
 </g>
</svg>
