<?xml version="1.0" encoding="UTF-8"?>
<!--Generator: Apple Native CoreSVG 326-->
<!DOCTYPE svg
PUBLIC "-//W3C//DTD SVG 1.1//EN"
       "http://www.w3.org/Graphics/SVG/1.1/DTD/svg11.dtd">
<svg version="1.1" xmlns="http://www.w3.org/2000/svg" xmlns:xlink="http://www.w3.org/1999/xlink" viewBox="0 0 28.291 27.9395">
 <g>
  <rect height="27.9395" opacity="0" width="28.291" x="0" y="0"/>
  <path d="M13.9648 27.9297C21.6406 27.9297 27.9297 21.6504 27.9297 13.9648C27.9297 6.2793 21.6406 0 13.9648 0C6.28906 0 0 6.2793 0 13.9648C0 21.6504 6.28906 27.9297 13.9648 27.9297ZM13.9648 23.3398C8.7793 23.3398 4.58008 19.1504 4.58008 13.9648C4.58008 8.7793 8.7793 4.58008 13.9648 4.58008C19.1504 4.58008 23.3496 8.7793 23.3496 13.9648C23.3496 19.1504 19.1504 23.3398 13.9648 23.3398Z" fill="black" fill-opacity="0.85"/>
  <path d="M9.0332 19.1797C9.43359 19.1797 9.66797 18.9258 9.66797 18.5156L9.66797 14.9023L11.3477 14.9023L12.9785 18.7207C13.1055 19.0234 13.3008 19.1797 13.6133 19.1797C13.9648 19.1797 14.2383 18.9551 14.2383 18.584C14.2383 18.4277 14.1797 18.3008 14.1016 18.125L12.5781 14.6289C13.7207 14.1504 14.248 13.0566 14.248 11.8457C14.248 10.127 13.2422 8.84766 11.2207 8.84766L9.02344 8.84766C8.64258 8.84766 8.39844 9.0918 8.39844 9.49219L8.39844 18.5156C8.39844 18.9258 8.63281 19.1797 9.0332 19.1797ZM9.66797 13.8672L9.66797 9.91211L11.1035 9.91211C12.3047 9.91211 12.9688 10.6738 12.9688 11.875C12.9688 13.0762 12.3438 13.8672 11.1133 13.8672ZM18.0176 19.1895C19.4727 19.1895 20.6641 18.3496 20.6641 16.8945C20.6641 15.7031 19.9512 15.1562 18.75 14.8242L17.7539 14.5508C17.1387 14.3848 16.6406 14.0625 16.6406 13.4082C16.6406 12.666 17.2363 12.1875 17.9785 12.1875C18.7695 12.1875 19.248 12.6465 19.502 13.2715C19.5801 13.457 19.7363 13.5742 19.9414 13.5742C20.293 13.5742 20.4297 13.3594 20.4297 13.125C20.4297 13.0371 20.4102 12.9199 20.3711 12.8125C20.127 11.9238 19.1992 11.25 18.0176 11.25C16.4355 11.25 15.4492 12.168 15.4492 13.4766C15.4492 14.6387 16.2109 15.2441 17.334 15.5469L18.3398 15.8105C19.0039 15.9961 19.4531 16.3574 19.4531 17.0117C19.4531 17.7637 18.8965 18.252 18.0664 18.252C17.207 18.252 16.7188 17.9199 16.3379 17.1484C16.2109 16.8848 16.0156 16.7773 15.8203 16.7773C15.5273 16.7773 15.3125 16.9727 15.3125 17.2656C15.3125 17.3633 15.3418 17.4805 15.3809 17.5977C15.7129 18.6816 16.8652 19.1895 18.0176 19.1895Z" fill="black" fill-opacity="0.85"/>
 </g>
</svg>
