<?xml version="1.0" encoding="UTF-8"?>
<!--Generator: Apple Native CoreSVG 326-->
<!DOCTYPE svg
PUBLIC "-//W3C//DTD SVG 1.1//EN"
       "http://www.w3.org/Graphics/SVG/1.1/DTD/svg11.dtd">
<svg version="1.1" xmlns="http://www.w3.org/2000/svg" xmlns:xlink="http://www.w3.org/1999/xlink" viewBox="0 0 30.3809 25.0293">
 <g>
  <rect height="25.0293" opacity="0" width="30.3809" x="0" y="0"/>
  <path d="M30.0195 15.0098C30.0195 11.3281 28.6914 7.95898 26.4844 5.3418C26.2305 5.03906 25.8008 5.04883 25.5176 5.33203L22.6953 8.1543C22.4512 8.39844 22.4414 8.74023 22.6562 9.01367C23.9551 10.6738 24.7266 12.7441 24.7266 15.0098C24.7266 17.2754 23.9551 19.3555 22.5977 21.0742C22.4121 21.3086 22.4219 21.6016 22.627 21.8066L25.5176 24.707C25.8008 25 26.2207 24.9902 26.4844 24.6875C28.6914 22.0703 30.0195 18.6816 30.0195 15.0098Z" fill="black" fill-opacity="0.85"/>
  <path d="M15.0098 5.2832C17.2754 5.2832 19.3652 6.06445 21.0254 7.38281C21.2891 7.57812 21.6113 7.55859 21.8555 7.31445L24.6875 4.48242C24.9805 4.19922 24.9707 3.7793 24.668 3.51562C22.0605 1.32812 18.6816 0 15.0098 0C11.3379 0 7.95898 1.32812 5.35156 3.51562C5.04883 3.7793 5.03906 4.19922 5.32227 4.48242L8.16406 7.31445C8.39844 7.55859 8.75 7.56836 9.02344 7.35352C10.6738 6.06445 12.7539 5.2832 15.0098 5.2832Z" fill="black" fill-opacity="0.85"/>
  <path d="M0 15.0098C0 18.6816 1.32812 22.0703 3.53516 24.6875C3.78906 24.9902 4.21875 25 4.50195 24.707L7.39258 21.8066C7.58789 21.6016 7.60742 21.3086 7.42188 21.0742C6.06445 19.3555 5.2832 17.2754 5.2832 15.0098C5.2832 12.7441 6.05469 10.6738 7.36328 9.01367C7.56836 8.74023 7.56836 8.39844 7.32422 8.1543L4.49219 5.33203C4.20898 5.04883 3.78906 5.03906 3.52539 5.3418C1.31836 7.95898 0 11.3281 0 15.0098Z" fill="black" fill-opacity="0.85"/>
  <path d="M10.0684 20.3906C10.4688 20.3906 10.7031 20.127 10.7031 19.7266L10.7031 16.1133L12.373 16.1133L14.0137 19.9316C14.1406 20.2344 14.3262 20.3906 14.6387 20.3906C15 20.3906 15.2734 20.166 15.2734 19.7949C15.2734 19.6387 15.2148 19.502 15.1367 19.3262L13.6133 15.8301C14.7559 15.3613 15.2832 14.2676 15.2832 13.0566C15.2832 11.3379 14.2773 10.0488 12.2559 10.0488L10.0586 10.0488C9.66797 10.0488 9.43359 10.3027 9.43359 10.7031L9.43359 19.7266C9.43359 20.127 9.66797 20.3906 10.0684 20.3906ZM10.7031 15.0781L10.7031 11.1133L12.1289 11.1133C13.3301 11.1133 14.0039 11.8848 14.0039 13.0859C14.0039 14.2773 13.3691 15.0781 12.1387 15.0781ZM19.0527 20.4004C20.5078 20.4004 21.6992 19.5605 21.6992 18.0957C21.6992 16.9141 20.9863 16.3672 19.7852 16.0352L18.7891 15.7617C18.1738 15.5957 17.6758 15.2637 17.6758 14.6191C17.6758 13.877 18.2715 13.3984 19.0137 13.3984C19.8047 13.3984 20.2734 13.8574 20.5371 14.4824C20.6055 14.6582 20.7715 14.7852 20.9766 14.7852C21.3281 14.7852 21.4551 14.5703 21.4551 14.3262C21.4551 14.248 21.4355 14.1309 21.4062 14.0234C21.1621 13.1348 20.2344 12.4609 19.0527 12.4609C17.4707 12.4609 16.4844 13.3789 16.4844 14.6777C16.4844 15.8496 17.2461 16.4551 18.3691 16.748L19.375 17.0215C20.0391 17.1973 20.4883 17.5684 20.4883 18.2227C20.4883 18.9746 19.9219 19.4629 19.1016 19.4629C18.2422 19.4629 17.7539 19.1309 17.373 18.3496C17.2363 18.0859 17.041 17.9883 16.8555 17.9883C16.5527 17.9883 16.3477 18.1836 16.3477 18.4766C16.3477 18.5742 16.377 18.6914 16.416 18.8086C16.748 19.8926 17.9004 20.4004 19.0527 20.4004Z" fill="black" fill-opacity="0.85"/>
 </g>
</svg>
