<?xml version="1.0" encoding="UTF-8"?>
<!--Generator: Apple Native CoreSVG 326-->
<!DOCTYPE svg
PUBLIC "-//W3C//DTD SVG 1.1//EN"
       "http://www.w3.org/Graphics/SVG/1.1/DTD/svg11.dtd">
<svg version="1.1" xmlns="http://www.w3.org/2000/svg" xmlns:xlink="http://www.w3.org/1999/xlink" viewBox="0 0 23.3203 22.959">
 <g>
  <rect height="22.959" opacity="0" width="23.3203" x="0" y="0"/>
  <path d="M22.959 3.76953L22.959 19.1992C22.959 21.6797 21.6797 22.959 19.1504 22.959L3.79883 22.959C1.2793 22.959 0 21.6992 0 19.1992L0 3.76953C0 1.26953 1.2793 0 3.79883 0L19.1504 0C21.6797 0 22.959 1.2793 22.959 3.76953ZM12.9883 10.9766C12.9883 12.168 13.7695 12.7832 14.9219 13.0957L15.9473 13.3691C16.6406 13.5547 17.0898 13.9258 17.0898 14.5898C17.0898 15.3613 16.5234 15.8594 15.6836 15.8594C14.7949 15.8594 14.2969 15.5176 13.9062 14.7266C13.7793 14.4629 13.5742 14.3457 13.3691 14.3457C13.0664 14.3457 12.8516 14.5508 12.8516 14.8535C12.8516 14.9512 12.8906 15.0684 12.9199 15.2051C13.2617 16.2988 14.4434 16.8262 15.625 16.8262C17.1191 16.8262 18.3398 15.9668 18.3398 14.4727C18.3398 13.252 17.6172 12.6855 16.3867 12.3535L15.3613 12.0703C14.7363 11.9043 14.2285 11.5723 14.2285 10.9082C14.2285 10.1465 14.8242 9.6582 15.5859 9.6582C16.3867 9.6582 16.875 10.127 17.1387 10.7617C17.2168 10.957 17.3926 11.0742 17.5879 11.0742C17.959 11.0742 18.0957 10.8496 18.0957 10.6152C18.0957 10.5176 18.0762 10.4004 18.0371 10.293C17.793 9.375 16.8262 8.69141 15.625 8.69141C14.0039 8.69141 12.9883 9.62891 12.9883 10.9766ZM6.40625 6.2207C6.01562 6.2207 5.76172 6.48438 5.76172 6.89453L5.76172 16.1328C5.76172 16.5527 6.00586 16.8164 6.41602 16.8164C6.83594 16.8164 7.08008 16.5527 7.08008 16.1328L7.08008 12.4414L8.78906 12.4414L10.459 16.3379C10.5859 16.6504 10.791 16.8164 11.1133 16.8164C11.4746 16.8164 11.7676 16.582 11.7676 16.2012C11.7676 16.0352 11.6895 15.9082 11.6113 15.7227L10.0586 12.1582C11.2305 11.6602 11.7773 10.5469 11.7773 9.30664C11.7773 7.54883 10.7324 6.2207 8.66211 6.2207ZM10.459 9.33594C10.459 10.5664 9.80469 11.3672 8.55469 11.3672L7.08008 11.3672L7.08008 7.33398L8.54492 7.33398C9.76562 7.33398 10.459 8.10547 10.459 9.33594Z" fill="black" fill-opacity="0.85"/>
 </g>
</svg>
