<?xml version="1.0" encoding="UTF-8"?>
<!--Generator: Apple Native CoreSVG 326-->
<!DOCTYPE svg
PUBLIC "-//W3C//DTD SVG 1.1//EN"
       "http://www.w3.org/Graphics/SVG/1.1/DTD/svg11.dtd">
<svg version="1.1" xmlns="http://www.w3.org/2000/svg" xmlns:xlink="http://www.w3.org/1999/xlink" viewBox="0 0 27.9395 26.5527">
 <g>
  <rect height="26.5527" opacity="0" width="27.9395" x="0" y="0"/>
  <path d="M1.5332 23.8379L26.0449 23.8379L26.0449 23.0859C26.0449 22.666 25.791 22.4121 25.3613 22.4121L24.5605 22.4121L24.5605 8.33984L25.6934 8.33984C26.2891 8.33984 26.6211 7.91992 26.6211 7.48047C26.6211 7.1582 26.4453 6.875 26.0547 6.65039L15.2637 0.419922C14.7852 0.146484 14.2773 0 13.7891 0C13.3008 0 12.7832 0.146484 12.3145 0.419922L1.52344 6.65039C1.12305 6.875 0.957031 7.1582 0.957031 7.48047C0.957031 7.91992 1.28906 8.33984 1.88477 8.33984L3.02734 8.33984L3.02734 22.4121L2.22656 22.4121C1.78711 22.4121 1.5332 22.666 1.5332 23.0859ZM4.6582 22.4121L4.6582 6.85547L13.2227 2.03125C13.3887 1.93359 13.5938 1.875 13.7891 1.875C13.9746 1.875 14.1699 1.93359 14.3555 2.03125L22.9297 6.85547L22.9297 22.4121ZM0.869141 26.5332L26.709 26.5332C27.1875 26.5332 27.5781 26.1426 27.5781 25.6738C27.5781 25.1953 27.1875 24.8047 26.709 24.8047L0.869141 24.8047C0.390625 24.8047 0 25.1953 0 25.6738C0 26.1426 0.390625 26.5332 0.869141 26.5332Z" fill="black" fill-opacity="0.85"/>
  <path d="M8.86719 18.418C9.26758 18.418 9.50195 18.1641 9.50195 17.7637L9.50195 14.1406L11.1719 14.1406L12.8125 17.9688C12.9395 18.2715 13.125 18.418 13.4375 18.418C13.7988 18.418 14.0723 18.1934 14.0723 17.832C14.0723 17.666 14.0137 17.5391 13.9355 17.3633L12.4121 13.8672C13.5547 13.3984 14.082 12.3047 14.082 11.0938C14.082 9.36523 13.0762 8.08594 11.0547 8.08594L8.85742 8.08594C8.4668 8.08594 8.23242 8.33984 8.23242 8.73047L8.23242 17.7637C8.23242 18.1641 8.4668 18.418 8.86719 18.418ZM9.50195 13.1152L9.50195 9.15039L10.9277 9.15039C12.1289 9.15039 12.8027 9.91211 12.8027 11.1133C12.8027 12.3145 12.168 13.1152 10.9375 13.1152ZM17.8516 18.4277C19.3066 18.4277 20.4883 17.5879 20.4883 16.1328C20.4883 14.9512 19.7852 14.3945 18.584 14.0625L17.5879 13.7891C16.9727 13.623 16.4746 13.3008 16.4746 12.6562C16.4746 11.9043 17.0703 11.4355 17.8125 11.4355C18.5938 11.4355 19.0723 11.8848 19.3262 12.5195C19.4043 12.6953 19.5703 12.8223 19.7754 12.8223C20.127 12.8223 20.2539 12.5977 20.2539 12.3633C20.2539 12.2754 20.2344 12.168 20.2051 12.0605C19.9609 11.1719 19.0332 10.498 17.8516 10.498C16.2695 10.498 15.2832 11.4062 15.2832 12.7148C15.2832 13.8867 16.0449 14.4922 17.168 14.7852L18.1738 15.0488C18.8379 15.2344 19.2871 15.5957 19.2871 16.2598C19.2871 17.0117 18.7207 17.5 17.9004 17.5C17.041 17.5 16.5527 17.1582 16.1719 16.3867C16.0352 16.123 15.8398 16.0156 15.6543 16.0156C15.3516 16.0156 15.1465 16.2109 15.1465 16.5137C15.1465 16.6016 15.1758 16.7285 15.2148 16.8457C15.5469 17.9199 16.6992 18.4277 17.8516 18.4277Z" fill="black" fill-opacity="0.85"/>
 </g>
</svg>
