<?xml version="1.0" encoding="UTF-8"?>
<!--Generator: Apple Native CoreSVG 326-->
<!DOCTYPE svg
PUBLIC "-//W3C//DTD SVG 1.1//EN"
       "http://www.w3.org/Graphics/SVG/1.1/DTD/svg11.dtd">
<svg version="1.1" xmlns="http://www.w3.org/2000/svg" xmlns:xlink="http://www.w3.org/1999/xlink" viewBox="0 0 25.8008 25.459">
 <g>
  <rect height="25.459" opacity="0" width="25.8008" x="0" y="0"/>
  <path d="M25.4395 12.7246C25.4395 19.7266 19.7266 25.4395 12.7148 25.4395C5.71289 25.4395 0 19.7266 0 12.7246C0 5.71289 5.71289 0 12.7148 0C19.7266 0 25.4395 5.71289 25.4395 12.7246ZM8.38867 9.98047C8.38867 11.5625 9.39453 12.4609 11.3574 12.998L13.2227 13.5156C14.834 13.9648 15.4102 14.3945 15.4102 15.3516C15.4102 16.5234 14.2188 17.2656 12.7246 17.2656C11.2793 17.2656 10.2344 16.6504 9.84375 15.5566C9.64844 15.1367 9.4043 14.9316 8.99414 14.9316C8.49609 14.9316 8.18359 15.2344 8.18359 15.7422C8.18359 15.918 8.21289 16.1133 8.31055 16.3379C8.74023 17.6172 10.3223 18.7402 12.5977 18.7402C15.4199 18.7402 17.2656 17.3633 17.2656 15.1953C17.2656 13.5547 16.1035 12.6465 13.8379 12.041L12.0996 11.5723C10.7812 11.2109 10.2344 10.7227 10.2344 9.89258C10.2344 8.75977 11.2402 7.96875 12.6758 7.96875C14.043 7.96875 14.9512 8.55469 15.3516 9.67773C15.5078 10.0684 15.752 10.2734 16.1816 10.2734C16.6504 10.2734 16.9824 10.0195 16.9824 9.49219C16.9824 9.33594 16.9434 9.14062 16.8652 8.92578C16.416 7.5293 14.8828 6.5332 12.7441 6.5332C10.1758 6.5332 8.38867 7.95898 8.38867 9.98047Z" fill="black" fill-opacity="0.85"/>
 </g>
</svg>
