<?xml version="1.0" ?><!-- Generator: Adobe Illustrator 25.0.0, SVG Export Plug-In . SVG Version: 6.00 Build 0)  --><svg xmlns="http://www.w3.org/2000/svg" xmlns:xlink="http://www.w3.org/1999/xlink" version="1.1" id="Layer_1" x="0px" y="0px" viewBox="0 0 512 512" style="enable-background:new 0 0 512 512;" xml:space="preserve">
<path d="M256,512c140,0,256-116.2,256-256C512,116,395.8,0,255.7,0C116,0,0,116,0,256C0,395.8,116.2,512,256,512z M253.2,377.5  c-47.2,0-78.6-22.8-87.8-47.4c-2.3-4.8-3-9-3-13.1c0-11.3,7.3-18.6,18.8-18.6c9.3,0,14.8,4.5,19.6,14.1c9,20.6,27.9,31.1,55,31.1  c28.4,0,50.2-12.5,50.2-35.4c0-18.1-10.5-25.9-41.2-34.4L227.1,263c-40.2-11-61.2-29.6-61.2-62.2c0-41.4,36.9-70.8,89.9-70.8  c43.9,0,75,20.1,84.6,47.7c2,4.5,2.8,9,2.8,12.3c0,12-7.8,18.1-18.6,18.1c-9.8,0-15.3-4.8-19.1-13.3c-8.8-21.6-25.1-31.9-51.2-31.9  c-27.4,0-45.2,13.8-45.2,35.4c0,15.8,10.3,25.3,35.1,31.9l34.6,9.3c45.4,12,70.5,31.1,70.5,65.3  C349.4,349.4,311.2,377.5,253.2,377.5z"/>
</svg>