<?xml version="1.0" ?><!-- Generator: Adobe Illustrator 25.0.0, SVG Export Plug-In . SVG Version: 6.00 Build 0)  --><svg xmlns="http://www.w3.org/2000/svg" xmlns:xlink="http://www.w3.org/1999/xlink" version="1.1" id="Layer_1" x="0px" y="0px" viewBox="0 0 512 512" style="enable-background:new 0 0 512 512;" xml:space="preserve">
<path d="M256,512c140,0,256-116.2,256-256C512,116,395.8,0,255.7,0C116,0,0,116,0,256C0,395.8,116.2,512,256,512z M256,469.3  c-118.5,0-213.1-94.9-213.1-213.3S137.3,42.7,255.7,42.7S469.1,137.5,469.3,256S374.5,469.3,256,469.3z M253.2,374  c56.2,0,93.1-27.6,93.1-70.5c0-33.1-24.1-51.5-68.3-63.2l-33.6-9c-24.1-6.5-34.1-15.6-34.1-30.9c0-21.1,17.3-34.4,43.9-34.4  c25.3,0,41.4,9.8,49.7,30.6c3.8,8.3,9,12.8,18.6,12.8c10.3,0,17.8-5.8,17.8-17.3c0-3.3-0.8-7.3-2.5-11.8  c-9.3-26.6-39.4-46.2-82.1-46.2c-51.2,0-87.1,28.4-87.1,68.5c0,31.6,20.6,49.4,59.5,60.2l36.4,10.3c29.9,8.3,40.2,16.1,40.2,33.6  c0,22.1-21.3,34.6-48.9,34.6c-26.4,0-44.7-10.3-53.5-30.6c-4.5-9-9.8-13.3-18.8-13.3c-11,0-18.1,6.8-18.1,17.8c0,4,0.8,8,2.8,12.5  C177.2,351.6,207.6,374,253.2,374z"/>
</svg>