<?xml version="1.0" encoding="UTF-8"?>
<!--Generator: Apple Native CoreSVG 326-->
<!DOCTYPE svg
PUBLIC "-//W3C//DTD SVG 1.1//EN"
       "http://www.w3.org/Graphics/SVG/1.1/DTD/svg11.dtd">
<svg version="1.1" xmlns="http://www.w3.org/2000/svg" xmlns:xlink="http://www.w3.org/1999/xlink" viewBox="0 0 23.3203 22.959">
 <g>
  <rect height="22.959" opacity="0" width="23.3203" x="0" y="0"/>
  <path d="M3.79883 22.959L19.1504 22.959C21.6797 22.959 22.959 21.6797 22.959 19.1992L22.959 3.76953C22.959 1.2793 21.6797 0 19.1504 0L3.79883 0C1.2793 0 0 1.26953 0 3.76953L0 19.1992C0 21.6992 1.2793 22.959 3.79883 22.959ZM3.83789 21.2305C2.4707 21.2305 1.72852 20.5078 1.72852 19.1016L1.72852 3.85742C1.72852 2.46094 2.4707 1.72852 3.83789 1.72852L19.1211 1.72852C20.459 1.72852 21.2305 2.46094 21.2305 3.85742L21.2305 19.1016C21.2305 20.5078 20.459 21.2305 19.1211 21.2305Z" fill="black" fill-opacity="0.85"/>
  <path d="M11.3672 17.3438C14.1113 17.3438 15.9082 15.9961 15.9082 13.8867C15.9082 12.2852 14.7852 11.4062 12.5684 10.8105L10.8789 10.3516C9.58984 10 9.05273 9.52148 9.05273 8.71094C9.05273 7.59766 10.0391 6.82617 11.4453 6.82617C12.7832 6.82617 13.6816 7.40234 14.0625 8.49609C14.2188 8.87695 14.4434 9.07227 14.8633 9.07227C15.3223 9.07227 15.6445 8.82812 15.6445 8.32031C15.6445 8.16406 15.6055 7.97852 15.5371 7.76367C15.0977 6.40625 13.6035 5.42969 11.5137 5.42969C9.01367 5.42969 7.26562 6.82617 7.26562 8.78906C7.26562 10.332 8.25195 11.2109 10.166 11.7383L11.9824 12.2363C13.5645 12.6758 14.1309 13.0957 14.1309 14.0332C14.1309 15.1855 12.959 15.918 11.4941 15.918C10.0781 15.918 9.05273 15.3125 8.67188 14.2285C8.48633 13.8281 8.25195 13.6328 7.85156 13.6328C7.37305 13.6328 7.07031 13.9258 7.07031 14.4141C7.07031 14.5898 7.09961 14.7754 7.1875 14.9805C7.60742 16.25 9.15039 17.3438 11.3672 17.3438Z" fill="black" fill-opacity="0.85"/>
 </g>
</svg>
