<?xml version="1.0" encoding="UTF-8"?>
<!--Generator: Apple Native CoreSVG 326-->
<!DOCTYPE svg
PUBLIC "-//W3C//DTD SVG 1.1//EN"
       "http://www.w3.org/Graphics/SVG/1.1/DTD/svg11.dtd">
<svg version="1.1" xmlns="http://www.w3.org/2000/svg" xmlns:xlink="http://www.w3.org/1999/xlink" viewBox="0 0 25.8008 25.459">
 <g>
  <rect height="25.459" opacity="0" width="25.8008" x="0" y="0"/>
  <path d="M12.7148 25.4395C19.7363 25.4395 25.4395 19.7461 25.4395 12.7246C25.4395 5.70312 19.7363 0 12.7148 0C5.69336 0 0 5.70312 0 12.7246C0 19.7461 5.69336 25.4395 12.7148 25.4395ZM12.7148 23.623C6.68945 23.623 1.81641 18.75 1.81641 12.7246C1.81641 6.69922 6.68945 1.82617 12.7148 1.82617C18.7402 1.82617 23.6133 6.69922 23.6133 12.7246C23.6133 18.75 18.7402 23.623 12.7148 23.623Z" fill="black" fill-opacity="0.85"/>
  <path d="M11.377 17.4023L12.3145 17.4023L13.3203 5.74219C13.3301 5.64453 13.4277 5.64453 13.457 5.73242C13.8867 7.00195 14.1504 8.61328 14.1504 10.0879C14.1504 12.0996 13.5449 13.8965 12.3828 15.0293L12.2949 15.8984C13.9551 16.0742 15.6348 16.0059 16.6992 15.8398C17.4902 15.7129 17.8809 15.4004 18.1348 14.707C18.4668 13.8574 18.584 12.9785 18.584 12.0312C18.584 9.54102 17.4902 6.73828 14.1016 4.95117C13.8477 4.80469 13.6035 4.74609 13.3887 4.74609C12.9004 4.74609 12.4609 5.06836 12.4219 5.5957ZM7.71484 15.8984C9.02344 16.0352 10.5957 16.0352 11.9043 15.9082L12.5684 7.70508L7.35352 14.9805C7.04102 15.4297 7.19727 15.8398 7.71484 15.8984ZM8.61328 19.9512L15.5078 19.9512C15.9375 19.9512 16.2598 19.834 16.5723 19.5312C17.2168 18.916 18.0078 17.6758 18.0078 17.1875C18.0078 16.8848 17.8027 16.6504 17.373 16.6992C14.3066 17.1289 10.8105 17.1289 7.59766 17.1289C7.12891 17.1289 6.89453 17.4902 7.05078 17.9004L7.5293 19.1895C7.71484 19.7168 8.06641 19.9512 8.61328 19.9512Z" fill="black" fill-opacity="0.85"/>
 </g>
</svg>
