<?xml version="1.0" ?><!-- Generator: Adobe Illustrator 25.0.0, SVG Export Plug-In . SVG Version: 6.00 Build 0)  --><svg xmlns="http://www.w3.org/2000/svg" xmlns:xlink="http://www.w3.org/1999/xlink" version="1.1" id="Layer_1" x="0px" y="0px" viewBox="0 0 512 512" style="enable-background:new 0 0 512 512;" xml:space="preserve">
<path d="M20,432.5C7.4,482.9,28.7,512,77.4,512h357.2c48.7,0,70-29.1,57.4-79.5l-53.6-216.4c-9-35.6-34.7-56.2-70.8-56.2h-92.3  v-24.7c28.6-8.5,49.9-34.9,49.9-65.9C325.3,31.5,293.6,0,256,0c-37.8,0-69.3,31.5-69.3,69.3c0,31,21.3,57.4,49.7,65.9v24.7h-92.1  c-36.1,0-62,20.6-70.8,56.2L20,432.5z M256,104.4c-19.1,0-35.4-16-35.4-35.1s16-35.6,35.4-35.6c19.1,0,35.4,16.5,35.4,35.6  S275.4,104.4,256,104.4z M57.8,434.9l52.1-205.2c5.3-20.8,17.2-30.8,37.3-30.8h217.6c20.1,0,32,9.9,37.3,30.8l52.1,205.2  c6.5,25-3.1,38-24.7,38H82.3C60.9,473,51.2,459.9,57.8,434.9z"/>
</svg>