<?xml version="1.0" ?><!-- Generator: Adobe Illustrator 25.0.0, SVG Export Plug-In . SVG Version: 6.00 Build 0)  --><svg xmlns="http://www.w3.org/2000/svg" xmlns:xlink="http://www.w3.org/1999/xlink" version="1.1" id="Layer_1" x="0px" y="0px" viewBox="0 0 512 512" style="enable-background:new 0 0 512 512;" xml:space="preserve">
<path d="M256,512c35,0,67.9-6.7,98.8-20.1c30.9-13.4,58.1-31.9,81.7-55.5c23.6-23.6,42.1-50.8,55.5-81.7  C505.3,323.9,512,291,512,256s-6.7-67.9-20.1-98.8c-13.4-30.9-31.9-58.1-55.5-81.7c-23.6-23.6-50.9-42.1-81.8-55.5  C323.7,6.7,290.7,0,255.7,0S187.9,6.7,157,20.1C126.1,33.5,98.9,52,75.4,75.5c-23.5,23.6-42,50.8-55.3,81.7C6.7,188.1,0,221,0,256  s6.7,67.9,20.1,98.8c13.4,30.9,31.9,58.1,55.5,81.7c23.6,23.6,50.8,42.1,81.7,55.5C188.1,505.3,221,512,256,512z M256,469.3  c-29.6,0-57.3-5.5-83.1-16.6c-25.8-11-48.4-26.3-67.9-45.8c-19.5-19.5-34.7-42.1-45.7-67.9c-11-25.8-16.4-53.5-16.4-83.1  c0-29.6,5.5-57.3,16.4-83.1c11-25.8,26.1-48.4,45.6-68s42-34.8,67.8-45.8c25.8-11,53.5-16.4,83.1-16.4c29.6,0,57.3,5.5,83.1,16.4  c25.8,11,48.4,26.2,68,45.8c19.6,19.6,34.9,42.2,45.9,68c11,25.8,16.6,53.5,16.6,83.1c0,29.6-5.5,57.3-16.4,83.1  c-11,25.8-26.2,48.4-45.7,67.9c-19.5,19.5-42.2,34.8-68,45.8C313.3,463.8,285.6,469.3,256,469.3z" class="hierarchical-0:secondary SFSymbolsPreview4D4D4D" style="fill: #4D4D4D;"/>
<path d="M158.9,370.7c13.1,0,24.2-4.6,33.5-13.9c9.3-9.3,13.9-20.6,13.9-34c0-5,0.4-8.7,1.1-11.2c0.8-2.4,2.9-4.6,6.4-6.4  l199.3-105.7c-2.3-8.7-8.1-14-17.2-15.8c-9.1-1.8-21.2-0.1-36.3,5.3L259,225.1c-7,2.5-12.3,5.7-15.9,9.5c-3.6,3.8-6.3,9.1-8.2,15.8  l-2.3,8.5c-0.8,3-2.1,5.4-3.9,7.3c-1.8,1.8-5,3.9-9.7,6.3l-18.6,9.8c-2.2,1.2-4.4,1.8-6.5,1.8c-3.2,0-6.1-0.7-8.7-2.1  s-5.9-2.9-9.8-4.4c-3.9-1.5-9.5-2.3-16.7-2.3c-13.4,0-24.7,4.6-33.9,13.8c-9.2,9.2-13.8,20.4-13.8,33.6s4.6,24.5,13.8,33.9  C134.2,366,145.5,370.7,158.9,370.7z M158.9,351.1c-7.9,0-14.5-2.8-20-8.3c-5.4-5.5-8.2-12.2-8.2-20.1c0-7.7,2.8-14.3,8.3-19.8  c5.5-5.5,12.1-8.3,19.8-8.3c7.7,0,14.3,2.8,19.7,8.3c5.4,5.5,8.2,12.1,8.2,19.8c0,7.9-2.7,14.6-8.2,20.1  C173.1,348.4,166.6,351.1,158.9,351.1z M261.8,259.3c-2.5,0-4.7-0.9-6.7-2.8c-1.9-1.8-2.9-4.1-2.9-6.8c0-2.7,1-4.9,2.9-6.8  c1.9-1.8,4.1-2.8,6.7-2.8c2.7,0,4.9,0.9,6.8,2.8c1.8,1.8,2.8,4.1,2.8,6.8c0,2.7-0.9,4.9-2.8,6.8  C266.7,258.3,264.4,259.3,261.8,259.3z M237.7,219.4l-22.3-12c-4.2-2.2-6.7-4.4-7.7-6.8c-0.9-2.3-1.4-6.1-1.4-11.3  c0-13.4-4.6-24.7-13.9-34c-9.3-9.3-20.5-13.9-33.5-13.9c-13.4,0-24.7,4.6-33.9,13.9c-9.2,9.3-13.8,20.6-13.8,34  c0,13.2,4.6,24.4,13.8,33.6c9.2,9.2,20.5,13.8,33.9,13.8c7.2,0,12.8-0.8,16.7-2.3c3.9-1.5,7.2-3,9.8-4.5c2.6-1.5,5.5-2.3,8.7-2.3  c1.7,0,3.8,0.7,6.5,2l21.3,11C225.4,231.7,230.7,224.5,237.7,219.4z M158.9,217.3c-7.7,0-14.3-2.8-19.8-8.3  c-5.5-5.5-8.3-12.1-8.3-19.8c0-7.9,2.7-14.6,8.2-20.1c5.4-5.5,12.1-8.3,20-8.3c7.7,0,14.3,2.8,19.7,8.3c5.4,5.5,8.2,12.2,8.2,20.1  c0,7.7-2.7,14.3-8.2,19.8C173.1,214.6,166.6,217.3,158.9,217.3z M273.8,290.9l85.8,32.4c14.9,5.5,26.9,7.3,36.1,5.4  c9.2-1.9,15-7.4,17.3-16.4L323,264.8L273.8,290.9z" class="hierarchical-1:primary SFSymbolsPreview212121" style="fill: #212121;"/>
</svg>