<?xml version="1.0" encoding="UTF-8"?>
<!--Generator: Apple Native CoreSVG 326-->
<!DOCTYPE svg
PUBLIC "-//W3C//DTD SVG 1.1//EN"
       "http://www.w3.org/Graphics/SVG/1.1/DTD/svg11.dtd">
<svg version="1.1" xmlns="http://www.w3.org/2000/svg" xmlns:xlink="http://www.w3.org/1999/xlink" viewBox="0 0 34.375 27.1777">
 <g>
  <rect height="27.1777" opacity="0" width="34.375" x="0" y="0"/>
  <path d="M32.9785 20.0879C32.3926 21.7578 30.4199 21.9629 27.6074 20.957L17.4624 17.2621L22.5718 14.5395ZM11.0156 6.79688C11.0156 7.90039 10.9863 8.35938 11.7676 8.7793L15.1239 10.5687C14.381 11.074 13.8988 11.7289 13.5828 12.6088C13.4043 12.4624 13.1707 12.318 12.8613 12.1582L10.5469 10.918C10.2539 10.7715 10.0781 10.7227 9.85352 10.7227C8.81836 10.7227 8.33984 11.7871 6.01562 11.7871C3.25195 11.7871 1.03516 9.56055 1.03516 6.79688C1.03516 4.01367 3.25195 1.76758 6.01562 1.76758C8.78906 1.76758 11.0156 4.00391 11.0156 6.79688ZM2.86133 6.79688C2.86133 8.55469 4.26758 9.98047 6.01562 9.98047C7.80273 9.98047 9.20898 8.55469 9.20898 6.79688C9.20898 5.00977 7.80273 3.58398 6.01562 3.58398C4.26758 3.58398 2.86133 5.00977 2.86133 6.79688Z" fill="black" fill-opacity="0.85"/>
  <path d="M6.01562 26.1328C8.78906 26.1328 11.0156 23.9062 11.0156 21.1035C11.0156 20 10.9863 19.5508 11.7676 19.1211L32.9785 7.8125C32.3926 6.15234 30.4199 5.9375 27.6074 6.94336L16.8555 10.8594C15.4004 11.3867 14.7754 12.0801 14.4141 13.4082L14.1699 14.3359C14.0137 14.9512 13.75 15.2832 12.8613 15.7422L10.5469 16.9824C10.2539 17.1289 10.0781 17.1777 9.85352 17.1777C8.81836 17.1777 8.33984 16.1133 6.01562 16.1133C3.25195 16.1133 1.03516 18.3398 1.03516 21.1035C1.03516 23.8867 3.25195 26.1328 6.01562 26.1328ZM6.01562 24.3164C4.26758 24.3164 2.86133 22.8906 2.86133 21.1035C2.86133 19.3457 4.26758 17.9199 6.01562 17.9199C7.80273 17.9199 9.20898 19.3457 9.20898 21.1035C9.20898 22.8906 7.80273 24.3164 6.01562 24.3164ZM17.0996 14.3262C16.5723 14.3262 16.1133 13.877 16.1133 13.3301C16.1133 12.7637 16.5723 12.334 17.0996 12.334C17.666 12.334 18.125 12.7637 18.125 13.3301C18.125 13.877 17.666 14.3262 17.0996 14.3262Z" fill="black" fill-opacity="0.85"/>
 </g>
</svg>
