<?xml version="1.0" ?><!-- Generator: Adobe Illustrator 25.0.0, SVG Export Plug-In . SVG Version: 6.00 Build 0)  --><svg xmlns="http://www.w3.org/2000/svg" xmlns:xlink="http://www.w3.org/1999/xlink" version="1.1" id="Layer_1" x="0px" y="0px" viewBox="0 0 512 512" style="enable-background:new 0 0 512 512;" xml:space="preserve">
<path d="M10.6,335.5c12.6,12.6,37.9,15.7,57.4-1.9c6.5-5.8,20-20.3,45.9-46.1C237.3,162.4,318.6,80.4,336,96.1  c14,12.3-28.7,72.7-69.3,128.7c-76,106-136.6,179.3-91.7,224.2c36,36,92-0.2,178.1-75.8c48.5-42.7,85-77.2,95.6-66.4  c8,7.7-4.3,28.2-22.4,59.6c-23.4,40.1-52.6,83-24.6,111c19.3,19.1,56.7,10.9,102.8-34.3c8.2-8.2,10.1-17.4,3.6-23.9  c-6.3-6-15-5.1-21.5,1c-33.6,32.8-55.5,43.2-61.1,37.4c-6.5-6.3,5.3-27.8,29.9-71c31.1-54.6,47.8-88.8,21.5-114.4  c-35.2-34.3-77,2.4-154.2,70.2c-72.7,64-93.9,74.3-103.1,65.4c-12.3-12.6,6.5-34.8,87.9-148.5c76-106.5,120.2-172.8,78.9-212.7  C330.2-8,257.8,35.2,59.4,231.5c-26.3,26.1-40.8,39.8-46.6,46.1C-5.8,298.1-2,323,10.6,335.5z"/>
</svg>