<?xml version="1.0" encoding="UTF-8"?>
<!--Generator: Apple Native CoreSVG 326-->
<!DOCTYPE svg
PUBLIC "-//W3C//DTD SVG 1.1//EN"
       "http://www.w3.org/Graphics/SVG/1.1/DTD/svg11.dtd">
<svg version="1.1" xmlns="http://www.w3.org/2000/svg" xmlns:xlink="http://www.w3.org/1999/xlink" viewBox="0 0 28.689 28.3521">
 <g>
  <rect height="28.3521" opacity="0" width="28.689" x="0" y="0"/>
  <path d="M6.46851 24.9329L9.31031 24.9329C9.58374 24.9329 9.77906 25.0012 9.98413 25.2063L12.0056 27.2083C13.4998 28.7024 14.8279 28.6926 16.322 27.2083L18.3435 25.2063C18.5486 25.0012 18.7439 24.9329 19.0173 24.9329L21.8591 24.9329C23.9685 24.9329 24.9255 23.9856 24.9255 21.8665L24.9255 19.0247C24.9255 18.7512 25.0037 18.5559 25.199 18.3508L27.2107 16.3293C28.7048 14.8352 28.6951 13.5071 27.2107 12.0129L25.199 9.98169C25.0037 9.78638 24.9255 9.59107 24.9255 9.31763L24.9255 6.46607C24.9255 4.36646 23.9783 3.40943 21.8591 3.40943L19.0173 3.40943C18.7439 3.40943 18.5486 3.3313 18.3435 3.13599L16.322 1.12427C14.8279-0.379636 13.4998-0.36987 12.0056 1.12427L9.98413 3.13599C9.78882 3.3313 9.58374 3.40943 9.31031 3.40943L6.46851 3.40943C4.34937 3.40943 3.4021 4.34693 3.4021 6.46607L3.4021 9.31763C3.4021 9.59107 3.32398 9.78638 3.12867 9.98169L1.11695 12.0129C-0.377194 13.5071-0.367429 14.8352 1.11695 16.3293L3.12867 18.3508C3.32398 18.5559 3.4021 18.7512 3.4021 19.0247L3.4021 21.8665C3.4021 23.9758 4.34937 24.9329 6.46851 24.9329ZM6.46851 23.2239C5.32593 23.2239 5.11109 23.009 5.11109 21.8665L5.11109 18.4387C5.11109 18.0676 4.9939 17.7844 4.73023 17.5208L2.31812 15.1282C1.51734 14.3079 1.51734 14.0344 2.31812 13.2141L4.73023 10.8118C4.9939 10.5481 5.11109 10.2649 5.11109 9.8938L5.11109 6.46607C5.11109 5.31372 5.3064 5.11841 6.46851 5.11841L9.89624 5.11841C10.2673 5.11841 10.5408 5.01099 10.8044 4.73755L13.2068 2.32544C14.0271 1.5149 14.3005 1.5149 15.1209 2.32544L17.5232 4.73755C17.7869 5.01099 18.0701 5.11841 18.4412 5.11841L21.8591 5.11841C23.0115 5.11841 23.2166 5.32349 23.2166 6.46607L23.2166 9.8938C23.2166 10.2649 23.3337 10.5481 23.5974 10.8118L26.0095 13.2141C26.8201 14.0344 26.8201 14.3079 26.0095 15.1282L23.5974 17.5208C23.3337 17.7844 23.2166 18.0676 23.2166 18.4387L23.2166 21.8665C23.2166 23.009 23.0115 23.2239 21.8591 23.2239L18.4412 23.2239C18.0701 23.2239 17.7869 23.3215 17.5232 23.6047L15.1209 26.0071C14.3005 26.8176 14.0271 26.8176 13.2068 26.0071L10.8044 23.6047C10.5408 23.3215 10.2673 23.2239 9.89624 23.2239Z" fill="black" fill-opacity="0.85"/>
 </g>
</svg>
