<?xml version="1.0" encoding="UTF-8"?>
<!--Generator: Apple Native CoreSVG 326-->
<!DOCTYPE svg
PUBLIC "-//W3C//DTD SVG 1.1//EN"
       "http://www.w3.org/Graphics/SVG/1.1/DTD/svg11.dtd">
<svg version="1.1" xmlns="http://www.w3.org/2000/svg" xmlns:xlink="http://www.w3.org/1999/xlink" viewBox="0 0 30.3125 21.5527">
 <g>
  <rect height="21.5527" opacity="0" width="30.3125" x="0" y="0"/>
  <path d="M26.4258 13.8281C26.709 14.1699 27.2363 14.1797 27.5879 13.7891C29.1113 12.0703 29.9512 9.85352 29.9512 7.42188C29.9512 4.98047 29.1113 2.77344 27.5879 1.05469C27.2461 0.673828 26.748 0.673828 26.4648 0.976562C26.1426 1.30859 26.1914 1.74805 26.5332 2.13867C27.8027 3.58398 28.457 5.41992 28.457 7.42188C28.457 9.42383 27.8027 11.2598 26.5332 12.6953C26.2012 13.0859 26.1426 13.4961 26.4258 13.8281Z" fill="black" fill-opacity="0.85"/>
  <path d="M23.5742 11.1719C23.8672 11.5039 24.4141 11.5137 24.7461 11.0742C25.5273 10.0586 25.9961 8.78906 25.9961 7.42188C25.9961 6.04492 25.5273 4.78516 24.7461 3.75977C24.4238 3.33008 23.8867 3.33984 23.5938 3.65234C23.2812 3.97461 23.3691 4.38477 23.6523 4.77539C24.2285 5.5957 24.502 6.47461 24.502 7.42188C24.502 8.36914 24.2285 9.24805 23.6523 10.0586C23.3789 10.4395 23.2715 10.8496 23.5742 11.1719Z" fill="black" fill-opacity="0.85"/>
  <path d="M3.79883 21.543L17.2754 21.543C19.8047 21.543 21.0742 20.2637 21.0742 17.7832L21.0742 3.75977C21.0742 1.26953 19.8047 0 17.2754 0L3.79883 0C1.2793 0 0 1.25977 0 3.75977L0 17.7832C0 20.2734 1.2793 21.543 3.79883 21.543ZM10.1562 11.1621C9.76562 11.1621 9.46289 10.8594 9.46289 10.4688L9.46289 4.4043C9.46289 4.00391 9.76562 3.70117 10.1562 3.70117C10.5469 3.70117 10.8496 4.00391 10.8496 4.4043L10.8496 10.4688C10.8496 10.8594 10.5469 11.1621 10.1562 11.1621ZM13.3105 11.1621C12.9199 11.1621 12.6172 10.8594 12.6172 10.4688L12.6172 4.4043C12.6172 4.00391 12.9199 3.70117 13.3105 3.70117C13.6914 3.70117 13.9941 4.00391 13.9941 4.4043L13.9941 10.4688C13.9941 10.8594 13.6914 11.1621 13.3105 11.1621ZM16.4551 11.1621C16.0645 11.1621 15.7617 10.8594 15.7617 10.4688L15.7617 4.4043C15.7617 4.00391 16.0645 3.70117 16.4551 3.70117C16.8457 3.70117 17.1484 4.00391 17.1484 4.4043L17.1484 10.4688C17.1484 10.8594 16.8457 11.1621 16.4551 11.1621Z" fill="black" fill-opacity="0.85"/>
 </g>
</svg>
