<?xml version="1.0" encoding="UTF-8"?>
<!--Generator: Apple Native CoreSVG 326-->
<!DOCTYPE svg
PUBLIC "-//W3C//DTD SVG 1.1//EN"
       "http://www.w3.org/Graphics/SVG/1.1/DTD/svg11.dtd">
<svg version="1.1" xmlns="http://www.w3.org/2000/svg" xmlns:xlink="http://www.w3.org/1999/xlink" viewBox="0 0 33.1934 21.6699">
 <g>
  <rect height="21.6699" opacity="0" width="33.1934" x="0" y="0"/>
  <path d="M28.1934 19.2969C28.5352 19.6973 29.1406 19.6875 29.5508 19.2383C31.6309 17.0215 32.832 14.0527 32.832 10.8301C32.832 7.59766 31.6309 4.63867 29.5508 2.41211C29.1406 1.96289 28.5352 1.96289 28.1934 2.36328C27.8516 2.74414 27.959 3.25195 28.3496 3.68164C30.0879 5.57617 31.0742 8.06641 31.0742 10.8301C31.0742 13.584 30.0879 16.0742 28.3496 17.9688C27.959 18.3984 27.8516 18.9062 28.1934 19.2969Z" fill="black" fill-opacity="0.85"/>
  <path d="M24.707 15.7422C25.0586 16.1426 25.7031 16.1426 26.084 15.6641C27.1875 14.3457 27.832 12.6562 27.832 10.8301C27.832 9.00391 27.1875 7.30469 26.084 5.98633C25.7031 5.50781 25.0586 5.51758 24.707 5.91797C24.3652 6.29883 24.502 6.78711 24.8535 7.23633C25.6738 8.18359 26.084 9.46289 26.084 10.8301C26.084 12.1973 25.6738 13.4668 24.8535 14.4141C24.502 14.8633 24.3652 15.3516 24.707 15.7422Z" fill="black" fill-opacity="0.85"/>
  <path d="M10.8301 21.6504C16.8066 21.6504 21.6602 16.8066 21.6602 10.8301C21.6602 4.84375 16.8066 0 10.8301 0C4.84375 0 0 4.84375 0 10.8301C0 16.8066 4.84375 21.6504 10.8301 21.6504ZM10.8301 7.58789C9.74609 7.58789 8.86719 6.71875 8.86719 5.625C8.86719 4.53125 9.74609 3.66211 10.8301 3.66211C11.9238 3.66211 12.8027 4.53125 12.8027 5.625C12.8027 6.71875 11.9238 7.58789 10.8301 7.58789Z" fill="black" fill-opacity="0.85"/>
 </g>
</svg>
