<?xml version="1.0" encoding="UTF-8"?>
<!--Generator: Apple Native CoreSVG 326-->
<!DOCTYPE svg
PUBLIC "-//W3C//DTD SVG 1.1//EN"
       "http://www.w3.org/Graphics/SVG/1.1/DTD/svg11.dtd">
<svg version="1.1" xmlns="http://www.w3.org/2000/svg" xmlns:xlink="http://www.w3.org/1999/xlink" viewBox="0 0 30.3125 21.5527">
 <g>
  <rect height="21.5527" opacity="0" width="30.3125" x="0" y="0"/>
  <path d="M26.4258 13.8281C26.709 14.1699 27.2363 14.1797 27.5879 13.7891C29.1113 12.0703 29.9512 9.85352 29.9512 7.42188C29.9512 4.98047 29.1113 2.77344 27.5879 1.05469C27.2461 0.673828 26.748 0.673828 26.4648 0.976562C26.1426 1.30859 26.1914 1.74805 26.5332 2.13867C27.8027 3.58398 28.457 5.41992 28.457 7.42188C28.457 9.42383 27.8027 11.2598 26.5332 12.6953C26.2012 13.0859 26.1426 13.4961 26.4258 13.8281Z" fill="black" fill-opacity="0.85"/>
  <path d="M23.5742 11.1719C23.8672 11.5039 24.4141 11.5137 24.7461 11.0742C25.5273 10.0586 25.9961 8.78906 25.9961 7.42188C25.9961 6.04492 25.5273 4.78516 24.7461 3.75977C24.4238 3.33008 23.8867 3.33984 23.5938 3.65234C23.2812 3.97461 23.3691 4.38477 23.6523 4.77539C24.2285 5.5957 24.502 6.47461 24.502 7.42188C24.502 8.36914 24.2285 9.24805 23.6523 10.0586C23.3789 10.4395 23.2715 10.8496 23.5742 11.1719Z" fill="black" fill-opacity="0.85"/>
  <path d="M3.79883 21.543L17.2754 21.543C19.8047 21.543 21.0742 20.2637 21.0742 17.7832L21.0742 3.75977C21.0742 1.26953 19.8047 0 17.2754 0L3.79883 0C1.2793 0 0 1.25977 0 3.75977L0 17.7832C0 20.2734 1.2793 21.543 3.79883 21.543ZM3.83789 19.8145C2.4707 19.8145 1.72852 19.0918 1.72852 17.6855L1.72852 3.84766C1.72852 2.45117 2.4707 1.72852 3.83789 1.72852L17.2363 1.72852C18.5742 1.72852 19.3457 2.45117 19.3457 3.84766L19.3457 17.6855C19.3457 19.0918 18.5742 19.8145 17.2363 19.8145ZM10.2441 11.0645C10.6152 11.0645 10.9082 10.7715 10.9082 10.4004L10.9082 4.47266C10.9082 4.0918 10.6152 3.79883 10.2441 3.79883C9.86328 3.79883 9.57031 4.0918 9.57031 4.47266L9.57031 10.4004C9.57031 10.7715 9.86328 11.0645 10.2441 11.0645ZM13.3105 11.0645C13.6816 11.0645 13.9746 10.7715 13.9746 10.4004L13.9746 4.47266C13.9746 4.0918 13.6816 3.79883 13.3105 3.79883C12.9297 3.79883 12.6367 4.0918 12.6367 4.47266L12.6367 10.4004C12.6367 10.7715 12.9297 11.0645 13.3105 11.0645ZM16.377 11.0645C16.748 11.0645 17.041 10.7715 17.041 10.4004L17.041 4.47266C17.041 4.0918 16.748 3.79883 16.377 3.79883C15.9961 3.79883 15.7031 4.0918 15.7031 4.47266L15.7031 10.4004C15.7031 10.7715 15.9961 11.0645 16.377 11.0645Z" fill="black" fill-opacity="0.85"/>
 </g>
</svg>
