<?xml version="1.0" ?><!-- Generator: Adobe Illustrator 25.0.0, SVG Export Plug-In . SVG Version: 6.00 Build 0)  --><svg xmlns="http://www.w3.org/2000/svg" xmlns:xlink="http://www.w3.org/1999/xlink" version="1.1" id="Layer_1" x="0px" y="0px" viewBox="0 0 512 512" style="enable-background:new 0 0 512 512;" xml:space="preserve">
<path d="M437.7,387.4c3.2,3.6,7.1,5.3,11.8,5.2c4.7-0.1,8.9-2.2,12.6-6.1c16-17.4,28.3-37.3,37-59.6c8.6-22.3,13-45.9,13-70.7  s-4.3-48.4-13-70.8c-8.6-22.4-21-42.2-37-59.5c-3.7-4.1-7.9-6.2-12.6-6.2c-4.7-0.1-8.6,1.7-11.8,5.3c-3.1,3.5-4.3,7.3-3.6,11.5  c0.7,4.2,2.8,8.3,6.4,12.3c12.8,14.3,22.7,30.7,29.7,49s10.5,37.8,10.5,58.6c0,20.6-3.5,40.1-10.5,58.5c-7,18.4-16.9,34.7-29.7,49  c-3.6,4-5.7,8.1-6.4,12.3C433.4,380.1,434.6,384,437.7,387.4z M383.9,332.7c3.2,3.6,7.3,5.3,12.2,5.3c4.9-0.1,9.1-2.3,12.6-6.6  c8.3-10.4,14.8-22,19.4-34.8s6.9-26.3,6.9-40.4c0-14.1-2.3-27.5-6.9-40.4c-4.6-12.9-11.1-24.5-19.4-34.8c-3.5-4.4-7.6-6.6-12.6-6.6  c-4.9-0.1-9,1.7-12.2,5.3c-3.1,3.5-4.2,7.2-3.3,11.3c0.9,4.1,2.8,8.3,5.8,12.5c5.8,7.2,10.1,15.3,13,24.3c2.9,9,4.3,18.5,4.3,28.5  c0,10-1.4,19.5-4.3,28.5c-2.9,9-7.2,17.1-13,24.3c-2.9,4.1-4.9,8.2-5.8,12.4C379.8,325.4,380.9,329.2,383.9,332.7z" class="hierarchical-0:secondary SFSymbolsPreview4D4D4D" style="fill: #4D4D4D;"/>
<path d="M168.6,424.5c22.9,0,44.5-4.4,64.8-13.2c20.3-8.8,38.2-21,53.8-36.5c15.5-15.5,27.7-33.4,36.6-53.8  c8.8-20.3,13.2-42,13.2-64.9c0-23-4.4-44.7-13.2-65c-8.8-20.3-21-38.2-36.6-53.8c-15.5-15.6-33.5-27.7-53.8-36.6  c-20.3-8.8-42-13.2-65.1-13.2c-22.9,0-44.5,4.4-64.8,13.2c-20.3,8.8-38.2,21-53.7,36.6c-15.5,15.5-27.6,33.5-36.5,53.8  C4.4,211.4,0,233.1,0,256.1C0,279,4.4,300.6,13.2,321c8.8,20.3,21,38.3,36.6,53.8c15.6,15.5,33.5,27.6,53.8,36.5  C123.9,420,145.5,424.5,168.6,424.5z M168.7,206.6c-5.8,0-11-1.4-15.7-4.1c-4.7-2.8-8.5-6.5-11.3-11.1c-2.8-4.7-4.2-9.9-4.2-15.6  c0-5.8,1.4-11,4.2-15.7c2.8-4.7,6.6-8.5,11.3-11.2c4.7-2.8,10-4.1,15.7-4.1c5.6,0,10.8,1.4,15.5,4.1c4.7,2.8,8.4,6.5,11.2,11.1  c2.8,4.7,4.2,10,4.2,15.8c0,5.6-1.4,10.8-4.2,15.6c-2.8,4.7-6.6,8.5-11.2,11.2C179.5,205.2,174.4,206.6,168.7,206.6z" class="hierarchical-1:primary SFSymbolsPreview212121" style="fill: #212121;"/>
</svg>