<?xml version="1.0" encoding="UTF-8"?>
<!--Generator: Apple Native CoreSVG 326-->
<!DOCTYPE svg
PUBLIC "-//W3C//DTD SVG 1.1//EN"
       "http://www.w3.org/Graphics/SVG/1.1/DTD/svg11.dtd">
<svg version="1.1" xmlns="http://www.w3.org/2000/svg" xmlns:xlink="http://www.w3.org/1999/xlink" viewBox="0 0 25.8008 25.459">
 <g>
  <rect height="25.459" opacity="0" width="25.8008" x="0" y="0"/>
  <path d="M12.7148 25.4395C19.7363 25.4395 25.4395 19.7461 25.4395 12.7246C25.4395 5.70312 19.7363 0 12.7148 0C5.69336 0 0 5.70312 0 12.7246C0 19.7461 5.69336 25.4395 12.7148 25.4395ZM12.7148 23.623C6.68945 23.623 1.81641 18.75 1.81641 12.7246C1.81641 6.69922 6.68945 1.82617 12.7148 1.82617C18.7402 1.82617 23.6133 6.69922 23.6133 12.7246C23.6133 18.75 18.7402 23.623 12.7148 23.623Z" fill="black" fill-opacity="0.85"/>
  <path d="M7.23633 11.5137L10.1953 11.5137C10.2051 9.84375 11.4355 8.45703 13.0273 8.33008L13.0273 7.35352C13.0273 6.73828 12.7051 6.40625 12.0801 6.40625L7.23633 6.40625C6.61133 6.40625 6.28906 6.73828 6.28906 7.35352L6.28906 10.6055C6.28906 11.2012 6.61133 11.5137 7.23633 11.5137ZM17.9883 15.0684L19.9609 15.0684C20.5859 15.0684 20.9082 14.7363 20.9082 14.1211L20.9082 10.2344C20.9082 9.62891 20.5859 9.31641 19.9609 9.31641L17.9883 9.31641C17.3535 9.31641 17.041 9.62891 17.041 10.2344L17.041 14.1211C17.041 14.7363 17.3535 15.0684 17.9883 15.0684ZM5.50781 16.2988L6.86523 16.2988C7.48047 16.2988 7.8125 15.9766 7.8125 15.3516L7.8125 13.9746C7.8125 13.3496 7.48047 13.0371 6.86523 13.0371L5.50781 13.0371C4.89258 13.0371 4.56055 13.3496 4.56055 13.9746L4.56055 15.3516C4.56055 15.9766 4.89258 16.2988 5.50781 16.2988ZM13.252 13.9551C14.4238 13.9551 15.4297 12.9102 15.4297 11.543C15.4297 10.2148 14.4238 9.17969 13.252 9.17969C12.0605 9.17969 11.0547 10.2246 11.0547 11.543C11.0547 12.9102 12.0605 13.9551 13.252 13.9551ZM9.52148 19.0332L16.9531 19.0332C17.5195 19.0332 17.8613 18.7598 17.8613 18.3301C17.8613 16.8945 16.0742 14.9414 13.2422 14.9414C10.3906 14.9414 8.63281 16.8945 8.63281 18.3301C8.63281 18.7598 8.97461 19.0332 9.52148 19.0332Z" fill="black" fill-opacity="0.85"/>
 </g>
</svg>
