<?xml version="1.0" encoding="UTF-8"?>
<!--Generator: Apple Native CoreSVG 326-->
<!DOCTYPE svg
PUBLIC "-//W3C//DTD SVG 1.1//EN"
       "http://www.w3.org/Graphics/SVG/1.1/DTD/svg11.dtd">
<svg version="1.1" xmlns="http://www.w3.org/2000/svg" xmlns:xlink="http://www.w3.org/1999/xlink" viewBox="0 0 37.3926 21.7871">
 <g>
  <rect height="21.7871" opacity="0" width="37.3926" x="0" y="0"/>
  <path d="M37.0312 19.9219C37.0312 20.4102 36.6309 20.791 36.1523 20.791C35.6738 20.791 35.293 20.4102 35.293 19.9219C35.293 9.91211 27.7539 1.74805 18.5059 1.74805C9.25781 1.74805 1.72852 9.91211 1.72852 19.9219C1.72852 20.4102 1.34766 20.791 0.869141 20.791C0.390625 20.791 0 20.4102 0 19.9219C0 8.96484 8.31055 0 18.5059 0C28.7109 0 37.0312 8.96484 37.0312 19.9219Z" fill="black" fill-opacity="0.425"/>
  <path d="M13.125 8.22266C13.125 8.74938 13.1906 9.25851 13.3192 9.73904C9.78626 11.6924 7.54883 15.6064 7.54883 19.9316C7.54883 20.4102 7.13867 20.791 6.66992 20.791C6.19141 20.791 5.80078 20.4102 5.80078 19.9316C5.80078 14.7398 8.71003 10.0258 13.1411 7.89151ZM31.2402 19.9316C31.2402 20.4102 30.8496 20.791 30.3711 20.791C29.9023 20.791 29.4922 20.4102 29.4922 19.9316C29.4922 15.6112 27.2597 11.701 23.7169 9.74515C23.8485 9.25715 23.916 8.73941 23.916 8.20312C23.916 8.10133 23.9135 8.00024 23.9014 7.90215C28.3402 10.0407 31.2402 14.748 31.2402 19.9316Z" fill="black" fill-opacity="0.425"/>
  <path d="M18.5254 12.4316C20.5957 12.4316 22.3633 10.5957 22.3633 8.20312C22.3633 5.86914 20.5762 4.07227 18.5254 4.07227C16.4551 4.07227 14.6875 5.89844 14.6875 8.22266C14.6875 10.5957 16.4453 12.4316 18.5254 12.4316ZM12.1484 21.1133L24.873 21.1133C25.8789 21.1133 26.5039 20.6152 26.5039 19.8145C26.5039 17.334 23.4277 13.9453 18.5156 13.9453C13.5938 13.9453 10.5176 17.334 10.5176 19.8145C10.5176 20.6152 11.1426 21.1133 12.1484 21.1133Z" fill="black" fill-opacity="0.85"/>
 </g>
</svg>
