<?xml version="1.0" encoding="UTF-8"?>
<!--Generator: Apple Native CoreSVG 326-->
<!DOCTYPE svg
PUBLIC "-//W3C//DTD SVG 1.1//EN"
       "http://www.w3.org/Graphics/SVG/1.1/DTD/svg11.dtd">
<svg version="1.1" xmlns="http://www.w3.org/2000/svg" xmlns:xlink="http://www.w3.org/1999/xlink" viewBox="0 0 25.8008 25.459">
 <g>
  <rect height="25.459" opacity="0" width="25.8008" x="0" y="0"/>
  <path d="M25.4395 12.7344C25.4395 19.7461 19.7266 25.459 12.7148 25.459C5.71289 25.459 0 19.7461 0 12.7344C0 5.73242 5.71289 0.0195312 12.7148 0.0195312C19.7266 0.0195312 25.4395 5.73242 25.4395 12.7344ZM8.52539 18.4863C8.52539 18.9355 8.87695 19.209 9.44336 19.209L17.0703 19.209C17.6367 19.209 17.9883 18.9355 17.9883 18.4863C17.9883 17.0215 16.1621 15.0195 13.252 15.0195C10.332 15.0195 8.52539 17.0215 8.52539 18.4863ZM5.32227 13.0664C4.67773 13.0664 4.35547 13.3789 4.35547 14.0234L4.35547 15.4395C4.35547 16.0742 4.67773 16.3965 5.32227 16.3965L6.70898 16.3965C7.34375 16.3965 7.68555 16.0742 7.68555 15.4395L7.68555 14.0234C7.68555 13.3887 7.34375 13.0664 6.70898 13.0664ZM18.125 9.23828C17.4707 9.23828 17.1484 9.57031 17.1484 10.1953L17.1484 14.1699C17.1484 14.8047 17.4707 15.1367 18.125 15.1367L20.1465 15.1367C20.791 15.1367 21.1133 14.8047 21.1133 14.1699L21.1133 10.1953C21.1133 9.57031 20.791 9.23828 20.1465 9.23828ZM11.0156 11.5332C11.0156 12.9297 12.041 13.9941 13.2617 13.9941C14.4629 13.9941 15.498 12.9297 15.498 11.5332C15.498 10.1562 14.4629 9.11133 13.2617 9.11133C12.041 9.11133 11.0156 10.166 11.0156 11.5332ZM7.09961 6.25977C6.44531 6.25977 6.12305 6.5918 6.12305 7.23633L6.12305 10.5566C6.12305 11.1816 6.44531 11.5039 7.09961 11.5039L10.127 11.5039C10.1367 9.78516 11.3965 8.35938 13.0469 8.22266L13.0469 7.23633C13.0469 6.5918 12.7051 6.25977 12.0605 6.25977Z" fill="black" fill-opacity="0.85"/>
 </g>
</svg>
