<?xml version="1.0" encoding="UTF-8"?>
<!--Generator: Apple Native CoreSVG 326-->
<!DOCTYPE svg
PUBLIC "-//W3C//DTD SVG 1.1//EN"
       "http://www.w3.org/Graphics/SVG/1.1/DTD/svg11.dtd">
<svg version="1.1" xmlns="http://www.w3.org/2000/svg" xmlns:xlink="http://www.w3.org/1999/xlink" viewBox="0 0 30.8203 29.0674">
 <g>
  <rect height="29.0674" opacity="0" width="30.8203" x="0" y="0"/>
  <path d="M6.04492 16.8628L6.04492 19.4312C6.04492 20.5835 5.45898 21.1792 4.27734 21.1792L1.76758 21.1792C0.595703 21.1792 0 20.5933 0 19.4312L0 16.8628C0 15.7105 0.595703 15.1245 1.76758 15.1245L4.27734 15.1245C5.45898 15.1245 6.04492 15.7105 6.04492 16.8628Z" fill="black" fill-opacity="0.85"/>
  <path d="M9.48884 12.2925L4.99023 12.2925C3.81836 12.2925 3.22266 11.7066 3.22266 10.5542L3.22266 6.02382ZM15.7715 4.51906L15.7715 6.39654C14.2344 6.51301 12.8472 7.29571 11.8936 8.48909L6.18981 2.78078L14.0039 2.78078C15.1758 2.78078 15.7715 3.36672 15.7715 4.51906Z" fill="black" fill-opacity="0.85"/>
  <path d="M30.459 9.91945L30.459 17.1363C30.459 18.2886 29.8633 18.8745 28.6914 18.8745L25.0195 18.8745C23.8379 18.8745 23.2422 18.2984 23.2422 17.1363L23.2422 9.91945C23.2422 8.75734 23.8379 8.17141 25.0195 8.17141L28.6914 8.17141C29.8633 8.17141 30.459 8.76711 30.459 9.91945Z" fill="black" fill-opacity="0.85"/>
  <path d="M23.4367 26.2459C23.3258 26.2601 23.2086 26.2671 23.0859 26.2671L9.24805 26.2671C8.21289 26.2671 7.56836 25.7691 7.56836 24.9488C7.56836 22.3543 10.7406 18.8025 15.8666 18.6728ZM20.2441 12.3218C20.2441 13.625 19.7565 14.775 18.9844 15.5856L13.0013 9.59768C13.7537 8.57731 14.914 7.93703 16.1816 7.93703C18.3691 7.93703 20.2441 9.83156 20.2441 12.3218Z" fill="black" fill-opacity="0.85"/>
  <path d="M26.582 27.4683C26.9043 27.7905 27.4414 27.7905 27.7539 27.4683C28.0762 27.1265 28.0859 26.6187 27.7539 26.2866L3.23242 1.74563C2.90039 1.41359 2.37305 1.41359 2.04102 1.74563C1.72852 2.05813 1.72852 2.605 2.04102 2.9175Z" fill="black" fill-opacity="0.85"/>
 </g>
</svg>
