<?xml version="1.0" encoding="UTF-8"?>
<!--Generator: Apple Native CoreSVG 326-->
<!DOCTYPE svg
PUBLIC "-//W3C//DTD SVG 1.1//EN"
       "http://www.w3.org/Graphics/SVG/1.1/DTD/svg11.dtd">
<svg version="1.1" xmlns="http://www.w3.org/2000/svg" xmlns:xlink="http://www.w3.org/1999/xlink" viewBox="0 0 25.8008 25.459">
 <g>
  <rect height="25.459" opacity="0" width="25.8008" x="0" y="0"/>
  <path d="M25.4395 12.7344C25.4395 19.7461 19.7266 25.459 12.7148 25.459C5.71289 25.459 0 19.7461 0 12.7344C0 5.73242 5.71289 0.0195312 12.7148 0.0195312C19.7266 0.0195312 25.4395 5.73242 25.4395 12.7344ZM11.2695 9.7168C10.5762 10.3125 9.79492 11.1523 9.78516 11.1719C9.28711 11.7285 9.32617 12.5488 9.84375 13.0078C10.3711 13.5254 11.2109 13.4863 11.6992 12.959C11.7188 12.9492 12.4023 12.1582 13.0176 11.6504C13.9844 10.7715 15.5469 10.9375 16.3574 11.6016C16.9434 12.1387 17.2949 12.8223 17.3438 13.5742C17.4121 14.2676 17.1484 14.9414 16.6699 15.4785C15.6836 16.5918 13.7305 18.418 13.7207 18.4277C13.1934 18.9648 13.1738 19.7754 13.7012 20.2832C14.1992 20.8105 15.0293 20.8398 15.5469 20.3418C15.6348 20.2539 17.5488 18.418 18.6133 17.2363C19.5898 16.1816 20.0684 14.834 19.9902 13.4082C19.8926 11.9629 19.209 10.6055 18.0859 9.63867C17.1387 8.82812 15.9277 8.42773 14.707 8.42773C13.4473 8.42773 12.2266 8.84766 11.2695 9.7168ZM9.86328 5.40039C9.79492 5.49805 7.87109 7.33398 6.80664 8.51562C5.82031 9.57031 5.35156 10.9375 5.42969 12.3438C5.53711 13.7891 6.20117 15.1367 7.36328 16.1133C8.28125 16.9238 9.48242 17.3145 10.7031 17.3145C11.9727 17.3145 13.2031 16.9043 14.1406 16.0352C14.8438 15.4395 15.6152 14.5898 15.6348 14.5801C16.123 14.0332 16.0938 13.2129 15.5664 12.7344C15.0391 12.2168 14.1992 12.2559 13.7207 12.8027C13.7012 12.8027 13.0176 13.5742 12.4023 14.1016C11.4355 14.9707 9.86328 14.834 9.05273 14.1504C8.4668 13.6133 8.11523 12.9297 8.06641 12.1875C8.00781 11.4844 8.26172 10.8105 8.74023 10.293C9.73633 9.16016 11.6797 7.33398 11.6992 7.30469C12.2266 6.78711 12.2363 5.97656 11.7188 5.46875C11.2109 4.96094 10.3906 4.91211 9.86328 5.40039Z" fill="black" fill-opacity="0.85"/>
 </g>
</svg>
