<?xml version="1.0" ?><!-- Generator: Adobe Illustrator 25.0.0, SVG Export Plug-In . SVG Version: 6.00 Build 0)  --><svg xmlns="http://www.w3.org/2000/svg" xmlns:xlink="http://www.w3.org/1999/xlink" version="1.1" id="Layer_1" x="0px" y="0px" viewBox="0 0 512 512" style="enable-background:new 0 0 512 512;" xml:space="preserve">
<path d="M256,512c140,0,256-116.2,256-256C512,116,395.8,0,255.7,0C116,0,0,116,0,256C0,395.8,116.2,512,256,512z M210.1,362.4  V220.4c0-9.8,6.5-15.8,15.8-15.8c8.8,0,15.1,6,15.1,15.8v128.8h36.4c29.1,0,38.4-5.8,38.4-38.9V151.3c0-9.8,6.3-16.1,15.6-16.1  c9.3,0,15.3,6.5,15.3,16.1v158.9c0,52-19.1,72.3-63,72.3h-53.7C217.6,382.5,210.1,374.7,210.1,362.4z M156.4,369.4V158.4  c0-12.3,8.3-20.3,20.6-20.3h52.5c43.2,0,64,20.3,64,67v94.6c0,9.8-6,16.1-15.3,16.1c-9,0-15.6-6.3-15.6-16.1v-90.1  c0-29.9-12.3-38.1-40.7-38.1h-34.4v197.8c0,9.5-6,16.3-15.1,16.3C163.4,385.5,156.4,379,156.4,369.4z"/>
</svg>