<?xml version="1.0" encoding="UTF-8"?>
<!--Generator: Apple Native CoreSVG 326-->
<!DOCTYPE svg
PUBLIC "-//W3C//DTD SVG 1.1//EN"
       "http://www.w3.org/Graphics/SVG/1.1/DTD/svg11.dtd">
<svg version="1.1" xmlns="http://www.w3.org/2000/svg" xmlns:xlink="http://www.w3.org/1999/xlink" viewBox="0 0 30.3809 24.9191">
 <g>
  <rect height="24.9191" opacity="0" width="30.3809" x="0" y="0"/>
  <path d="M30.0195 14.9547C30.0195 7.09334 23.9746 0.648023 16.2988 0.00349172C15.8984-0.0355708 15.5859 0.257398 15.5859 0.667554L15.5859 4.66169C15.5859 4.99373 15.8301 5.2574 16.1719 5.28669C20.9863 5.87263 24.7266 9.97419 24.7266 14.9547C24.7266 17.2203 23.9551 19.3004 22.5879 21.0191C22.4023 21.2535 22.4121 21.5465 22.6172 21.7515L25.5176 24.6519C25.8105 24.9351 26.2305 24.9351 26.4844 24.6226C28.6914 22.0054 30.0195 18.6265 30.0195 14.9547Z" fill="black" fill-opacity="0.85"/>
  <path d="M0 14.9547C0 18.6363 1.32812 22.025 3.54492 24.6422C3.78906 24.9351 4.19922 24.9351 4.49219 24.6519L7.39258 21.7515C7.59766 21.5465 7.60742 21.2535 7.42188 21.0191C6.05469 19.3004 5.2832 17.2203 5.2832 14.9547C5.2832 9.97419 9.0332 5.87263 13.8379 5.28669C14.1895 5.2574 14.4238 4.99373 14.4238 4.66169L14.4238 0.667554C14.4238 0.257398 14.1211-0.0355708 13.7207 0.00349172C6.03516 0.648023 0 7.09334 0 14.9547Z" fill="black" fill-opacity="0.85"/>
  <path d="M10.4004 20.6773C10.7324 20.6773 10.9375 20.4527 10.9375 20.1011L10.9375 10.8922L13.8379 10.8922C15.293 10.8922 15.9766 11.2926 15.9766 12.9429L15.9766 16.8394C15.9766 17.2008 16.1914 17.4254 16.5332 17.4254C16.875 17.4254 17.0898 17.2008 17.0898 16.8394L17.0898 12.7183C17.0898 10.7164 16.25 9.67146 14.209 9.67146L10.6738 9.67146C10.1562 9.67146 9.83398 9.99373 9.83398 10.5113L9.83398 20.1011C9.83398 20.4527 10.0586 20.6773 10.4004 20.6773ZM13.7109 20.5699L17.334 20.5699C19.4531 20.5699 20.1562 19.4469 20.1562 17.3277L20.1562 10.1695C20.1562 9.79841 19.9414 9.56404 19.6094 9.56404C19.2578 9.56404 19.043 9.79841 19.043 10.1695L19.043 17.2789C19.043 18.9097 18.6523 19.359 17.0215 19.359L14.0137 19.359L14.0137 13.3922C14.0137 13.0308 13.7988 12.816 13.4668 12.816C13.125 12.816 12.9102 13.0308 12.9102 13.3922L12.9102 19.7789C12.9102 20.2867 13.2422 20.5699 13.7109 20.5699Z" fill="black" fill-opacity="0.85"/>
 </g>
</svg>
