<?xml version="1.0" encoding="UTF-8"?>
<!--Generator: Apple Native CoreSVG 326-->
<!DOCTYPE svg
PUBLIC "-//W3C//DTD SVG 1.1//EN"
       "http://www.w3.org/Graphics/SVG/1.1/DTD/svg11.dtd">
<svg version="1.1" xmlns="http://www.w3.org/2000/svg" xmlns:xlink="http://www.w3.org/1999/xlink" viewBox="0 0 27.9395 26.5527">
 <g>
  <rect height="26.5527" opacity="0" width="27.9395" x="0" y="0"/>
  <path d="M1.5332 23.8379L26.0449 23.8379L26.0449 23.0859C26.0449 22.666 25.791 22.4121 25.3613 22.4121L24.5605 22.4121L24.5605 8.33984L25.6934 8.33984C26.2891 8.33984 26.6211 7.91992 26.6211 7.48047C26.6211 7.1582 26.4453 6.875 26.0547 6.65039L15.2637 0.419922C14.7852 0.146484 14.2773 0 13.7891 0C13.3008 0 12.7832 0.146484 12.3145 0.419922L1.52344 6.65039C1.12305 6.875 0.957031 7.1582 0.957031 7.48047C0.957031 7.91992 1.28906 8.33984 1.88477 8.33984L3.02734 8.33984L3.02734 22.4121L2.22656 22.4121C1.78711 22.4121 1.5332 22.666 1.5332 23.0859ZM4.6582 22.4121L4.6582 6.85547L13.2227 2.03125C13.3887 1.93359 13.5938 1.875 13.7891 1.875C13.9746 1.875 14.1699 1.93359 14.3555 2.03125L22.9297 6.85547L22.9297 22.4121ZM0.869141 26.5332L26.709 26.5332C27.1875 26.5332 27.5781 26.1426 27.5781 25.6738C27.5781 25.1953 27.1875 24.8047 26.709 24.8047L0.869141 24.8047C0.390625 24.8047 0 25.1953 0 25.6738C0 26.1426 0.390625 26.5332 0.869141 26.5332Z" fill="black" fill-opacity="0.85"/>
  <path d="M9.19922 18.7695C9.53125 18.7695 9.73633 18.5449 9.73633 18.1934L9.73633 8.97461L12.6367 8.97461C14.0918 8.97461 14.7754 9.38477 14.7754 11.0352L14.7754 14.9219C14.7754 15.2832 14.9902 15.5176 15.332 15.5176C15.6738 15.5176 15.8887 15.2832 15.8887 14.9219L15.8887 10.8105C15.8887 8.80859 15.0488 7.76367 13.0078 7.76367L9.47266 7.76367C8.95508 7.76367 8.63281 8.08594 8.63281 8.60352L8.63281 18.1934C8.63281 18.5449 8.85742 18.7695 9.19922 18.7695ZM12.5098 18.6621L16.1328 18.6621C18.252 18.6621 18.9551 17.5391 18.9551 15.4102L18.9551 8.25195C18.9551 7.88086 18.7402 7.65625 18.4082 7.65625C18.0566 7.65625 17.8418 7.88086 17.8418 8.25195L17.8418 15.3711C17.8418 17.002 17.4512 17.4512 15.8203 17.4512L12.8125 17.4512L12.8125 11.4844C12.8125 11.123 12.5977 10.8984 12.2656 10.8984C11.9238 10.8984 11.709 11.123 11.709 11.4844L11.709 17.8613C11.709 18.3691 12.041 18.6621 12.5098 18.6621Z" fill="black" fill-opacity="0.85"/>
 </g>
</svg>
