<?xml version="1.0" encoding="UTF-8"?>
<!--Generator: Apple Native CoreSVG 326-->
<!DOCTYPE svg
PUBLIC "-//W3C//DTD SVG 1.1//EN"
       "http://www.w3.org/Graphics/SVG/1.1/DTD/svg11.dtd">
<svg version="1.1" xmlns="http://www.w3.org/2000/svg" xmlns:xlink="http://www.w3.org/1999/xlink" viewBox="0 0 30.6563 25.459">
 <g>
  <rect height="25.459" opacity="0" width="30.6563" x="0" y="0"/>
  <path d="M15.1475 25.4395C22.169 25.4395 27.8623 19.7461 27.8623 12.7246C27.8623 5.70312 22.169 0 15.1475 0C8.12599 0 2.43263 5.70312 2.43263 12.7246L4.24904 12.7246C4.24904 6.69922 9.12208 1.82617 15.1475 1.82617C21.1729 1.82617 26.0459 6.69922 26.0459 12.7246C26.0459 18.75 21.1729 23.623 15.1475 23.623C11.417 23.623 8.08693 21.7285 6.18263 18.877C5.86037 18.4375 5.35255 18.3008 4.90333 18.5742C4.47365 18.8281 4.34669 19.4238 4.69826 19.9023C6.97365 23.252 10.8213 25.4395 15.1475 25.4395ZM0.801772 10.3613C0.000990731 10.3613-0.223619 10.9082 0.235366 11.543L3.0088 15.4883C3.3799 16.0254 3.91701 16.0156 4.27833 15.4883L7.05177 11.5332C7.49123 10.9082 7.27638 10.3613 6.48537 10.3613Z" fill="black" fill-opacity="0.85"/>
  <path d="M10.5576 18.2812C10.8799 18.2812 11.0947 18.0664 11.0947 17.7051L11.0947 8.49609L13.9854 8.49609C15.4502 8.49609 16.1338 8.90625 16.1338 10.5566L16.1338 14.4434C16.1338 14.8047 16.3389 15.0391 16.6904 15.0391C17.0225 15.0391 17.2373 14.8047 17.2373 14.4434L17.2373 10.3223C17.2373 8.33008 16.4072 7.28516 14.3565 7.28516L10.8213 7.28516C10.3037 7.28516 9.99123 7.59766 9.99123 8.11523L9.99123 17.7051C9.99123 18.0664 10.2061 18.2812 10.5576 18.2812ZM13.8584 18.1836L17.4815 18.1836C19.6104 18.1836 20.3135 17.0508 20.3135 14.9316L20.3135 7.77344C20.3135 7.40234 20.0986 7.16797 19.7569 7.16797C19.4151 7.16797 19.1904 7.40234 19.1904 7.77344L19.1904 14.8828C19.1904 16.5234 18.8096 16.9629 17.1787 16.9629L14.1709 16.9629L14.1709 10.9961C14.1709 10.6348 13.9561 10.4199 13.624 10.4199C13.2822 10.4199 13.0576 10.6348 13.0576 10.9961L13.0576 17.3828C13.0576 17.8906 13.3897 18.1836 13.8584 18.1836Z" fill="black" fill-opacity="0.85"/>
 </g>
</svg>
