<?xml version="1.0" encoding="UTF-8"?>
<!--Generator: Apple Native CoreSVG 326-->
<!DOCTYPE svg
PUBLIC "-//W3C//DTD SVG 1.1//EN"
       "http://www.w3.org/Graphics/SVG/1.1/DTD/svg11.dtd">
<svg version="1.1" xmlns="http://www.w3.org/2000/svg" xmlns:xlink="http://www.w3.org/1999/xlink" viewBox="0 0 30.3809 25.0293">
 <g>
  <rect height="25.0293" opacity="0" width="30.3809" x="0" y="0"/>
  <path d="M30.0195 15.0098C30.0195 11.3281 28.6914 7.95898 26.4844 5.3418C26.2305 5.03906 25.8008 5.04883 25.5176 5.33203L22.6953 8.1543C22.4512 8.39844 22.4414 8.74023 22.6562 9.01367C23.9551 10.6738 24.7266 12.7441 24.7266 15.0098C24.7266 17.2754 23.9551 19.3555 22.5977 21.0742C22.4121 21.3086 22.4219 21.6016 22.627 21.8066L25.5176 24.707C25.8008 25 26.2207 24.9902 26.4844 24.6875C28.6914 22.0703 30.0195 18.6816 30.0195 15.0098Z" fill="black" fill-opacity="0.85"/>
  <path d="M15.0098 5.2832C17.2754 5.2832 19.3652 6.06445 21.0254 7.38281C21.2891 7.57812 21.6113 7.55859 21.8555 7.31445L24.6875 4.48242C24.9805 4.19922 24.9707 3.7793 24.668 3.51562C22.0605 1.32812 18.6816 0 15.0098 0C11.3379 0 7.95898 1.32812 5.35156 3.51562C5.04883 3.7793 5.03906 4.19922 5.32227 4.48242L8.16406 7.31445C8.39844 7.55859 8.75 7.56836 9.02344 7.35352C10.6738 6.06445 12.7539 5.2832 15.0098 5.2832Z" fill="black" fill-opacity="0.85"/>
  <path d="M0 15.0098C0 18.6816 1.32812 22.0703 3.53516 24.6875C3.78906 24.9902 4.21875 25 4.50195 24.707L7.39258 21.8066C7.58789 21.6016 7.60742 21.3086 7.42188 21.0742C6.06445 19.3555 5.2832 17.2754 5.2832 15.0098C5.2832 12.7441 6.05469 10.6738 7.36328 9.01367C7.56836 8.74023 7.56836 8.39844 7.32422 8.1543L4.49219 5.33203C4.20898 5.04883 3.78906 5.03906 3.52539 5.3418C1.31836 7.95898 0 11.3281 0 15.0098Z" fill="black" fill-opacity="0.85"/>
  <path d="M10.4004 20.7324C10.7324 20.7324 10.9375 20.5078 10.9375 20.1562L10.9375 10.9473L13.8379 10.9473C15.293 10.9473 15.9766 11.3477 15.9766 12.998L15.9766 16.8945C15.9766 17.2559 16.1914 17.4805 16.5332 17.4805C16.875 17.4805 17.0898 17.2559 17.0898 16.8945L17.0898 12.7734C17.0898 10.7715 16.25 9.72656 14.209 9.72656L10.6738 9.72656C10.1562 9.72656 9.83398 10.0488 9.83398 10.5664L9.83398 20.1562C9.83398 20.5078 10.0586 20.7324 10.4004 20.7324ZM13.7109 20.625L17.334 20.625C19.4531 20.625 20.1562 19.502 20.1562 17.3828L20.1562 10.2246C20.1562 9.85352 19.9414 9.61914 19.6094 9.61914C19.2578 9.61914 19.043 9.85352 19.043 10.2246L19.043 17.334C19.043 18.9648 18.6523 19.4141 17.0215 19.4141L14.0137 19.4141L14.0137 13.4473C14.0137 13.0859 13.7988 12.8711 13.4668 12.8711C13.125 12.8711 12.9102 13.0859 12.9102 13.4473L12.9102 19.834C12.9102 20.3418 13.2422 20.625 13.7109 20.625Z" fill="black" fill-opacity="0.85"/>
 </g>
</svg>
