<?xml version="1.0" encoding="UTF-8"?>
<!--Generator: Apple Native CoreSVG 326-->
<!DOCTYPE svg
PUBLIC "-//W3C//DTD SVG 1.1//EN"
       "http://www.w3.org/Graphics/SVG/1.1/DTD/svg11.dtd">
<svg version="1.1" xmlns="http://www.w3.org/2000/svg" xmlns:xlink="http://www.w3.org/1999/xlink" viewBox="0 0 27.9395 26.5527">
 <g>
  <rect height="26.5527" opacity="0" width="27.9395" x="0" y="0"/>
  <path d="M15.2637 0.419922L26.0547 6.65039C26.4453 6.875 26.6211 7.1582 26.6211 7.48047C26.6211 7.91992 26.2891 8.33984 25.6934 8.33984L24.5605 8.33984L24.5605 23.252L25.3613 23.252C25.791 23.252 26.0449 23.5059 26.0449 23.9258L26.0449 24.8047L26.709 24.8047C27.1875 24.8047 27.5781 25.1953 27.5781 25.6738C27.5781 26.1426 27.1875 26.5332 26.709 26.5332L0.869141 26.5332C0.390625 26.5332 0 26.1426 0 25.6738C0 25.1953 0.390625 24.8047 0.869141 24.8047L1.5332 24.8047L1.5332 23.9258C1.5332 23.5059 1.78711 23.252 2.22656 23.252L3.02734 23.252L3.02734 8.33984L1.88477 8.33984C1.28906 8.33984 0.957031 7.91992 0.957031 7.48047C0.957031 7.1582 1.12305 6.875 1.52344 6.65039L12.3145 0.419922C12.7832 0.146484 13.3008 0 13.7891 0C14.2773 0 14.7852 0.146484 15.2637 0.419922ZM9.36523 8.75C8.82812 8.75 8.49609 9.08203 8.49609 9.61914L8.49609 19.4336C8.49609 19.8145 8.73047 20.0293 9.08203 20.0293C9.42383 20.0293 9.63867 19.8145 9.63867 19.4336L9.63867 10L12.6074 10C14.0918 10 14.7949 10.4199 14.7949 12.1094L14.7949 16.0938C14.7949 16.4648 15.0195 16.6992 15.3711 16.6992C15.7227 16.6992 15.9473 16.4648 15.9473 16.0938L15.9473 11.875C15.9473 9.82422 15.0781 8.75 12.9883 8.75ZM17.9395 9.25781L17.9395 16.543C17.9395 18.2129 17.5391 18.6719 15.8691 18.6719L12.793 18.6719L12.793 12.5684C12.793 12.1973 12.5684 11.9629 12.2266 11.9629C11.875 11.9629 11.6504 12.1973 11.6504 12.5684L11.6504 19.1016C11.6504 19.6289 11.9922 19.9316 12.4805 19.9316L16.1914 19.9316C18.3691 19.9316 19.0918 18.7695 19.0918 16.5918L19.0918 9.25781C19.0918 8.86719 18.877 8.64258 18.5254 8.64258C18.1738 8.64258 17.9395 8.86719 17.9395 9.25781Z" fill="black" fill-opacity="0.85"/>
 </g>
</svg>
