<?xml version="1.0" ?><!-- Generator: Adobe Illustrator 25.0.0, SVG Export Plug-In . SVG Version: 6.00 Build 0)  --><svg xmlns="http://www.w3.org/2000/svg" xmlns:xlink="http://www.w3.org/1999/xlink" version="1.1" id="Layer_1" x="0px" y="0px" viewBox="0 0 512 512" style="enable-background:new 0 0 512 512;" xml:space="preserve">
<path d="M256,512c140,0,256-116.2,256-256C512,116,395.8,0,255.7,0C116,0,0,116,0,256C0,395.8,116.2,512,256,512z M256,469.3  c-118.5,0-213.1-94.9-213.1-213.3S137.3,42.7,255.7,42.7S469.1,137.5,469.3,256S374.5,469.3,256,469.3z M211.6,359.4  c0,12,7.3,19.6,19.3,19.6h52c42.4,0,61-20.1,61-70.3V154.9c0-9-5.8-15.6-14.8-15.6c-9,0-15.1,6.3-15.1,15.6V309  c0,31.9-9,37.6-37.1,37.6h-35.4V221.9c0-9.5-6-15.6-14.6-15.6c-9,0-15.3,6-15.3,15.6V359.4z M159.6,366.2c0,9,6.8,15.3,15.6,15.3  c8.8,0,14.6-6.5,14.6-15.6V174.2h33.4c27.4,0,39.4,8,39.4,36.9v87.6c0,9.5,6.3,15.6,15.1,15.6c8.8,0,14.8-6,14.8-15.6v-91.9  c0-45.2-20.3-65-62-65h-50.9c-11.8,0-19.8,7.8-19.8,19.8V366.2z"/>
</svg>