<?xml version="1.0" ?><!-- Generator: Adobe Illustrator 25.0.0, SVG Export Plug-In . SVG Version: 6.00 Build 0)  --><svg xmlns="http://www.w3.org/2000/svg" xmlns:xlink="http://www.w3.org/1999/xlink" version="1.1" id="Layer_1" x="0px" y="0px" viewBox="0 0 512 512" style="enable-background:new 0 0 512 512;" xml:space="preserve">
<path d="M256,512c4.1,0,10.6-1.5,17-4.9C419.5,430.4,466.7,392,466.7,299.5V105.3c0-26.5-11.3-35-33-44  C403.6,48.9,307.3,13.9,277.4,3.6C270.4,1.3,263.2,0,256,0s-14.4,1.5-21.1,3.6c-30.1,9.8-126.5,45.6-156.6,57.7  c-21.4,8.8-33,17.5-33,44v194.2C45.3,392,95,426,239,507.1C245.7,510.7,251.9,512,256,512z"/>
</svg>