<?xml version="1.0" ?><!-- Generator: Adobe Illustrator 25.0.0, SVG Export Plug-In . SVG Version: 6.00 Build 0)  --><svg xmlns="http://www.w3.org/2000/svg" xmlns:xlink="http://www.w3.org/1999/xlink" version="1.1" id="Layer_1" x="0px" y="0px" viewBox="0 0 512 512" style="enable-background:new 0 0 512 512;" xml:space="preserve">
<path d="M476.2,500.2c7.5,7.5,20,7.5,27.3,0c7.5-7.5,7.5-19.8,0-27.3L36,5.6c-7.5-7.5-19.8-7.5-27.5,0c-7.5,7.3-7.3,19.8,0,27.3  L476.2,500.2z M455.7,383c15.3-22.8,21.5-48.1,21.5-81.1V110.3c0-26.3-11.5-34.6-32.6-43.6c-29.6-12.3-125-46.6-154.8-56.8  c-6.5-2.3-13.8-3.8-20.8-3.8c-7,0-14.3,2-21,3.8c-23,7.3-79.1,27.5-121.5,43.8l31.6,31.6c34.3-12.8,76.1-27.8,100.9-36.6  c4-1.8,7.3-2.3,10-2.3s6,0.8,10,2.3c38.3,13.8,110.9,41.6,149.8,54.8c7,2.5,8.5,6,8.5,14.5v174.5c0,24.3-4,43.1-12.8,59.1L455.7,383  z M61,301.9c0,91.4,49.1,125,191.3,205.1c6.3,3.5,12.8,5,16.8,5c4,0,10.3-1.5,16.8-5c39.1-22,71.1-40.6,96.9-57.6L352,418.6  c-18.5,12.3-40.8,25.5-67.4,42.1c-7.5,4.5-11.5,6-15.5,6c-4,0-8.3-1.5-15.5-6c-115.7-70.1-152.8-90.7-152.8-168V167.2L61,127.6  V301.9z"/>
</svg>