<?xml version="1.0" encoding="UTF-8"?>
<!--Generator: Apple Native CoreSVG 326-->
<!DOCTYPE svg
PUBLIC "-//W3C//DTD SVG 1.1//EN"
       "http://www.w3.org/Graphics/SVG/1.1/DTD/svg11.dtd">
<svg version="1.1" xmlns="http://www.w3.org/2000/svg" xmlns:xlink="http://www.w3.org/1999/xlink" viewBox="0 0 20.9863 25.8691">
 <g>
  <rect height="25.8691" opacity="0" width="20.9863" x="0" y="0"/>
  <path d="M0 15.5273C0 19.9512 2.40234 21.5137 9.47266 25.6055C9.77539 25.7812 10.0977 25.8691 10.3125 25.8691C10.5371 25.8691 10.8594 25.7812 11.1523 25.6055C18.252 21.5527 20.625 19.9512 20.625 15.5273L20.625 5.91797C20.625 4.58008 20.0977 4.15039 18.9746 3.68164C17.2949 3.00781 13.0176 1.43555 11.3379 0.859375C11.0059 0.742188 10.6543 0.664062 10.3125 0.664062C9.9707 0.664062 9.62891 0.761719 9.29688 0.859375C7.61719 1.38672 3.33008 3.01758 1.65039 3.68164C0.527344 4.13086 0 4.58008 0 5.91797ZM1.70898 15.1562L1.70898 12.9297L10.3125 12.9297L10.3125 2.39258C10.459 2.39258 10.6543 2.44141 10.8789 2.5293C12.6465 3.22266 16.5918 4.67773 18.3887 5.3125C18.8086 5.46875 18.916 5.69336 18.916 6.25L18.916 12.9297L10.3125 12.9297L10.3125 23.9453C10.1074 23.9453 9.89258 23.8477 9.56055 23.6426C3.7207 20.0488 1.70898 19.0039 1.70898 15.1562Z" fill="black" fill-opacity="0.85"/>
 </g>
</svg>
