<?xml version="1.0" ?><!-- Generator: Adobe Illustrator 25.0.0, SVG Export Plug-In . SVG Version: 6.00 Build 0)  --><svg xmlns="http://www.w3.org/2000/svg" xmlns:xlink="http://www.w3.org/1999/xlink" version="1.1" id="Layer_1" x="0px" y="0px" viewBox="0 0 512 512" style="enable-background:new 0 0 512 512;" xml:space="preserve">
<path d="M182.6,476.9h146.9c33.3,0,51.2-19.5,51.2-50.9V319.3h96.6c19.5,0,34.8-11.9,34.8-30c0-11.2-5.7-19.5-14.3-28.1L285.4,49.6  c-9.3-9.3-18.8-14.5-29.5-14.5c-10.5,0-20.2,5.2-29.3,14.5L14.3,261.2C5,270.3,0,278.1,0,289.3c0,18.1,15.2,30,34.5,30h96.9V426  C131.4,457.4,149.2,476.9,182.6,476.9z"/>
</svg>