<?xml version="1.0" ?><!-- Generator: Adobe Illustrator 25.0.0, SVG Export Plug-In . SVG Version: 6.00 Build 0)  --><svg xmlns="http://www.w3.org/2000/svg" xmlns:xlink="http://www.w3.org/1999/xlink" version="1.1" id="Layer_1" x="0px" y="0px" viewBox="0 0 512 512" style="enable-background:new 0 0 512 512;" xml:space="preserve">
<path d="M256,512c35,0,67.9-6.7,98.8-20.1c30.9-13.4,58.1-31.9,81.7-55.5c23.6-23.6,42.1-50.8,55.5-81.7  C505.3,323.9,512,291,512,256s-6.7-67.9-20.1-98.8c-13.4-30.9-31.9-58.1-55.5-81.7c-23.6-23.6-50.9-42.1-81.8-55.5  C323.7,6.7,290.7,0,255.7,0S187.9,6.7,157,20.1C126.1,33.5,98.9,52,75.4,75.5c-23.5,23.6-42,50.8-55.3,81.7C6.7,188.1,0,221,0,256  s6.7,67.9,20.1,98.8c13.4,30.9,31.9,58.1,55.5,81.7c23.6,23.6,50.8,42.1,81.7,55.5C188.1,505.3,221,512,256,512z M256,469.3  c-29.6,0-57.3-5.5-83.1-16.6c-25.8-11-48.4-26.3-67.9-45.8c-19.5-19.5-34.7-42.1-45.7-67.9c-11-25.8-16.4-53.5-16.4-83.1  c0-29.6,5.5-57.3,16.4-83.1c11-25.8,26.1-48.4,45.6-68s42-34.8,67.8-45.8c25.8-11,53.5-16.4,83.1-16.4c29.6,0,57.3,5.5,83.1,16.4  c25.8,11,48.4,26.2,68,45.8c19.6,19.6,34.9,42.2,45.9,68c11,25.8,16.6,53.5,16.6,83.1c0,29.6-5.5,57.3-16.4,83.1  c-11,25.8-26.2,48.4-45.7,67.9c-19.5,19.5-42.2,34.8-68,45.8C313.3,463.8,285.6,469.3,256,469.3z" class="hierarchical-0:secondary SFSymbolsPreview4D4D4D" style="fill: #4D4D4D;"/>
<path d="M265,398.6c0.7-0.2,1.5-0.6,2.5-1.3l102.9-58.5c6-3.5,10.7-7.5,13.9-12c3.3-4.5,4.9-11.5,4.9-20.8V203.5  c0-4.2-0.4-7.4-1.3-9.8L265,264V398.6z M247.2,398.6V264l-123-70.3c-0.5,1.5-0.8,3.1-0.9,4.6c-0.1,1.6-0.1,3.3-0.1,5.1v102.4  c0,9.4,1.6,16.3,4.8,20.8c3.2,4.5,7.8,8.5,13.8,12l102.9,58.5C245.7,398,246.5,398.4,247.2,398.6z M256,248.5l56-31.9l-124-70.8  l-48.2,27.6c-3,1.3-5.4,3-7.3,5L256,248.5z M330.5,206.3l49.2-27.9c-1.8-2-4.3-3.7-7.3-5l-92.6-53c-7.7-4.7-15.6-7-23.8-7  c-8,0-15.9,2.3-23.6,7l-26.6,15.1L330.5,206.3z" class="hierarchical-1:primary SFSymbolsPreview212121" style="fill: #212121;"/>
</svg>