<?xml version="1.0" ?><!-- Generator: Adobe Illustrator 25.0.0, SVG Export Plug-In . SVG Version: 6.00 Build 0)  --><svg xmlns="http://www.w3.org/2000/svg" xmlns:xlink="http://www.w3.org/1999/xlink" version="1.1" id="Layer_1" x="0px" y="0px" viewBox="0 0 512 512" style="enable-background:new 0 0 512 512;" xml:space="preserve">
<path d="M256,512c35,0,67.9-6.7,98.8-20.1c30.9-13.4,58.1-31.9,81.7-55.5c23.6-23.6,42.1-50.8,55.5-81.7  C505.3,323.9,512,291,512,256s-6.7-67.9-20.1-98.8c-13.4-30.9-31.9-58.1-55.5-81.7c-23.6-23.6-50.9-42.1-81.8-55.5  C323.7,6.7,290.7,0,255.7,0S187.9,6.7,157,20.1C126.1,33.5,98.9,52,75.4,75.5c-23.5,23.6-42,50.8-55.3,81.7C6.7,188.1,0,221,0,256  s6.7,67.9,20.1,98.8c13.4,30.9,31.9,58.1,55.5,81.7c23.6,23.6,50.8,42.1,81.7,55.5C188.1,505.3,221,512,256,512z" class="hierarchical-0:tertiary SFSymbolsPreview8E8E8E" style="fill: #8E8E8E;"/>
<path d="M265.3,403.1V264.3L392,191.7c0.8,2.7,1.3,6.1,1.3,10.3v105.4c0,9.7-1.7,16.9-5.1,21.5c-3.4,4.6-8.2,8.7-14.2,12.4  l-106.2,60.5c-0.3,0.2-0.7,0.4-1.1,0.6C266.2,402.7,265.8,402.9,265.3,403.1z M247,403.1c-0.5-0.2-1-0.4-1.4-0.6  c-0.4-0.3-0.9-0.5-1.4-0.6l-105.9-60.5c-6.2-3.7-10.9-7.8-14.2-12.4c-3.3-4.6-4.9-11.8-4.9-21.5V202c0-1.8,0-3.6,0.1-5.4  c0.1-1.8,0.4-3.4,0.9-4.9L247,264.3V403.1z M256,248.2l-127.2-72.3c1-1,2.1-2,3.4-2.9c1.3-0.9,2.6-1.7,4.1-2.4l49.7-28.4l127.7,73  L256,248.2z M332.8,204.8l-128.5-73l27.4-15.6c8.2-4.9,16.3-7.3,24.3-7.3c8.2,0,16.4,2.4,24.6,7.3l95.4,54.5c3.5,1.8,6,3.6,7.5,5.3  L332.8,204.8z" class="hierarchical-1:primary SFSymbolsPreview212121" style="fill: #212121;"/>
</svg>