<?xml version="1.0" encoding="UTF-8"?>
<!--Generator: Apple Native CoreSVG 326-->
<!DOCTYPE svg
PUBLIC "-//W3C//DTD SVG 1.1//EN"
       "http://www.w3.org/Graphics/SVG/1.1/DTD/svg11.dtd">
<svg version="1.1" xmlns="http://www.w3.org/2000/svg" xmlns:xlink="http://www.w3.org/1999/xlink" viewBox="0 0 25.8008 25.459">
 <g>
  <rect height="25.459" opacity="0" width="25.8008" x="0" y="0"/>
  <path d="M25.4395 12.7246C25.4395 19.7266 19.7266 25.4395 12.7148 25.4395C5.71289 25.4395 0 19.7266 0 12.7246C0 5.71289 5.71289 0 12.7148 0C19.7266 0 25.4395 5.71289 25.4395 12.7246ZM20.9961 14.2773L19.0918 15.2441C18.125 15.7324 17.3242 15.9082 15.8008 15.9082L4.82422 15.9082C4.26758 15.9082 3.86719 15.8398 3.42773 15.5371C3.75 16.6992 4.66797 17.0996 5.6543 17.0996L15.7324 17.0996C17.627 17.0996 18.7402 16.8164 20.293 15.9473C21.5234 15.2734 22.0703 14.4531 22.0605 13.4961C22.0703 13.3789 22.0605 13.291 22.0508 13.2031C21.9238 13.6328 21.6309 13.9551 20.9961 14.2773ZM9.28711 9.48242C8.41797 10.6055 7.66602 10.9863 6.875 10.9961C6.17188 10.9863 5.71289 10.8105 5.20508 10.5371C4.19922 10 3.33008 10.5078 3.33008 11.5137L3.33984 14.5703C3.33984 14.6191 3.32031 14.6875 3.33008 14.7168C3.70117 15.0977 4.0918 15.1855 4.80469 15.1855L15.791 15.1758C17.2754 15.1758 17.9492 15.0098 18.7695 14.5898L20.6738 13.6426C21.6309 13.1445 21.9238 12.5488 21.5625 12.0898C21.2891 11.6797 20.6738 11.1914 19.6973 11.1719C19.0332 11.1719 17.5 11.4258 16.9238 11.4258C16.4941 11.4258 16.3086 11.416 15.9766 11.25L14.9316 12.6855C14.8047 12.8516 14.5801 12.8809 14.4141 12.7441C14.2578 12.6074 14.2383 12.4121 14.3555 12.2363L15.332 10.8887L14.5703 10.4492L13.4863 11.9824C13.3594 12.1582 13.1348 12.1777 12.959 12.041C12.8027 11.9238 12.7637 11.709 12.8906 11.5332L13.9355 10.0879L13.1836 9.63867L12.0312 11.2695C11.9043 11.4355 11.6602 11.4453 11.5137 11.3281C11.3574 11.2109 11.3281 10.9668 11.4355 10.8203L12.5586 9.26758L12.041 8.98438C10.9961 8.37891 10.0391 8.51562 9.28711 9.48242Z" fill="black" fill-opacity="0.85"/>
 </g>
</svg>
