<?xml version="1.0" encoding="UTF-8"?>
<!--Generator: Apple Native CoreSVG 326-->
<!DOCTYPE svg
PUBLIC "-//W3C//DTD SVG 1.1//EN"
       "http://www.w3.org/Graphics/SVG/1.1/DTD/svg11.dtd">
<svg version="1.1" xmlns="http://www.w3.org/2000/svg" xmlns:xlink="http://www.w3.org/1999/xlink" viewBox="0 0 37.9785 17.4512">
 <g>
  <rect height="17.4512" opacity="0" width="37.9785" x="0" y="0"/>
  <path d="M17.9199 1.33789C15.5957-0.0195312 13.4766 0.166016 11.6895 2.4707C10.2246 4.3457 8.71094 5.15625 7.13867 5.15625C5.76172 5.15625 4.81445 4.90234 3.79883 4.41406C2.01172 3.59375 0 4.43359 0 6.5918L0 12.3926C0 16.2598 2.26562 17.4512 4.70703 17.4512L24.8535 17.4512C28.6816 17.4512 30.9473 16.8555 34.0625 15.127C36.5234 13.7598 37.6172 12.1094 37.6172 10.166C37.6172 7.38281 35.7129 5.51758 32.8516 5.51758C31.5039 5.51758 28.4473 6.01562 27.2754 6.01562C26.1133 6.01562 25.8301 5.94727 24.6289 5.25391ZM1.75781 12.7832C1.73828 12.666 1.72852 12.5293 1.72852 12.3926L1.72852 6.58203C1.72852 5.86914 2.34375 5.63477 2.91992 5.91797C4.11133 6.47461 5.40039 6.88477 7.13867 6.88477C9.21875 6.88477 11.3184 5.77148 13.0566 3.52539C14.3359 1.89453 15.2539 1.80664 17.041 2.8418L23.7695 6.74805C25.2637 7.61719 25.9082 7.74414 27.2754 7.74414C28.5645 7.74414 31.6309 7.24609 32.8418 7.24609C34.0723 7.24609 35.2148 7.73438 35.2148 8.79883C35.2148 9.28711 34.7461 9.9707 33.418 10.6641L30.7422 12.002C29.1113 12.8613 27.7734 13.1738 24.8535 13.1738L3.7793 13.1738C2.74414 13.1738 2.13867 13.0664 1.75781 12.7832ZM1.96289 14.1113C2.4707 14.3359 3.00781 14.4238 3.7793 14.4238L24.8535 14.4238C27.8613 14.4238 29.4531 14.043 31.3379 13.0762L34.0137 11.7578C35.166 11.1523 35.6152 10.7031 35.8008 9.96094C35.8301 10.1562 35.8398 10.3516 35.8301 10.5664C35.7129 11.748 34.9316 12.6758 33.2324 13.6133C30.3613 15.2051 28.4473 15.7227 24.8535 15.7227L4.69727 15.7227C3.32031 15.7227 2.36328 15.3418 1.96289 14.1113ZM18.1543 2.56836L15.9473 5.61523C15.7422 5.88867 15.7812 6.2793 16.0449 6.48438C16.3086 6.69922 16.7188 6.66992 16.9141 6.39648L19.1309 3.33008ZM20.957 4.04297L18.8184 7.00195C18.6035 7.30469 18.6426 7.65625 18.9062 7.86133C19.209 8.10547 19.5703 8.07617 19.7852 7.77344L21.9434 4.79492ZM23.75 5.50781L21.6602 8.39844C21.4453 8.69141 21.4746 9.05273 21.7383 9.25781C22.0215 9.50195 22.3926 9.46289 22.6172 9.16992L24.7266 6.25977Z" fill="black" fill-opacity="0.85"/>
 </g>
</svg>
