<?xml version="1.0" encoding="UTF-8"?>
<!--Generator: Apple Native CoreSVG 326-->
<!DOCTYPE svg
PUBLIC "-//W3C//DTD SVG 1.1//EN"
       "http://www.w3.org/Graphics/SVG/1.1/DTD/svg11.dtd">
<svg version="1.1" xmlns="http://www.w3.org/2000/svg" xmlns:xlink="http://www.w3.org/1999/xlink" viewBox="0 0 28.7012 26.8066">
 <g>
  <rect height="26.8066" opacity="0" width="28.7012" x="0" y="0"/>
  <path d="M27.5 4.23828C27.959 4.23828 28.3398 3.85742 28.3398 3.39844C28.3398 2.93945 27.959 2.55859 27.5 2.55859C27.041 2.55859 26.6602 2.93945 26.6602 3.39844C26.6602 3.85742 27.041 4.23828 27.5 4.23828ZM26.0938 11.8457C26.5527 11.8457 26.9336 11.4746 26.9336 11.0059C26.9336 10.5469 26.5527 10.166 26.0938 10.166C25.625 10.166 25.2539 10.5469 25.2539 11.0059C25.2539 11.4746 25.625 11.8457 26.0938 11.8457ZM22.2949 18.5938C22.7539 18.5938 23.1348 18.2129 23.1348 17.7441C23.1348 17.2852 22.7539 16.9043 22.2949 16.9043C21.8359 16.9043 21.4551 17.2852 21.4551 17.7441C21.4551 18.2129 21.8359 18.5938 22.2949 18.5938Z" fill="black" fill-opacity="0.85"/>
  <path d="M24.1113 4.72656C24.5703 4.72656 24.9512 4.3457 24.9512 3.88672C24.9512 3.42773 24.5703 3.04688 24.1113 3.04688C23.6426 3.04688 23.2715 3.42773 23.2715 3.88672C23.2715 4.3457 23.6426 4.72656 24.1113 4.72656ZM22.6367 10.5762C23.0957 10.5762 23.4766 10.1953 23.4766 9.73633C23.4766 9.27734 23.0957 8.89648 22.6367 8.89648C22.168 8.89648 21.7969 9.27734 21.7969 9.73633C21.7969 10.1953 22.168 10.5762 22.6367 10.5762ZM20 16.0352C20.459 16.0352 20.8398 15.6543 20.8398 15.1953C20.8398 14.7266 20.459 14.3555 20 14.3555C19.5312 14.3555 19.1602 14.7266 19.1602 15.1953C19.1602 15.6543 19.5312 16.0352 20 16.0352Z" fill="black" fill-opacity="0.85"/>
  <path d="M20.6836 5.20508C21.1523 5.20508 21.5332 4.82422 21.5332 4.36523C21.5332 3.90625 21.1523 3.52539 20.6836 3.52539C20.2246 3.52539 19.8438 3.90625 19.8438 4.36523C19.8438 4.82422 20.2246 5.20508 20.6836 5.20508ZM19.1602 9.32617C19.6191 9.32617 20 8.95508 20 8.48633C20 8.02734 19.6191 7.64648 19.1602 7.64648C18.7012 7.64648 18.3203 8.02734 18.3203 8.48633C18.3203 8.95508 18.7012 9.32617 19.1602 9.32617ZM17.7148 13.4668C18.1738 13.4668 18.5547 13.0859 18.5547 12.627C18.5547 12.168 18.1738 11.7871 17.7148 11.7871C17.2461 11.7871 16.875 12.168 16.875 12.627C16.875 13.0859 17.2461 13.4668 17.7148 13.4668Z" fill="black" fill-opacity="0.85"/>
  <path d="M12.3242 13.291L16.9043 0.625C14.5312 0.0390625 12.2266 0.576172 10.5469 2.08984L10.2832 1.99219C8.76953 1.44531 7.41211 2.19727 6.77734 3.92578L1.38672 18.7695C0.996094 19.8438 1.45508 20.8203 2.51953 21.2305C3.61328 21.6016 4.60938 21.1621 4.99023 20.1074L9.11133 8.74023L8.61328 9.05273C9.14062 10.8496 10.4297 12.3633 12.3242 13.291ZM3.26172 21.0156L2.10938 20.5957L0 26.3867L1.16211 26.8066ZM17.7051 0.703125L12.959 13.7695C12.8125 14.1797 13.0176 14.6387 13.4375 14.7949C13.8574 14.9512 14.3164 14.7266 14.4531 14.3262L19.2188 1.25977C19.3652 0.839844 19.1504 0.380859 18.7402 0.224609C18.3203 0.078125 17.8516 0.302734 17.7051 0.703125Z" fill="black" fill-opacity="0.85"/>
 </g>
</svg>
