<?xml version="1.0" encoding="UTF-8"?>
<!--Generator: Apple Native CoreSVG 326-->
<!DOCTYPE svg
PUBLIC "-//W3C//DTD SVG 1.1//EN"
       "http://www.w3.org/Graphics/SVG/1.1/DTD/svg11.dtd">
<svg version="1.1" xmlns="http://www.w3.org/2000/svg" xmlns:xlink="http://www.w3.org/1999/xlink" viewBox="0 0 25.8008 25.459">
 <g>
  <rect height="25.459" opacity="0" width="25.8008" x="0" y="0"/>
  <path d="M25.4395 12.7246C25.4395 19.7266 19.7266 25.4395 12.7148 25.4395C5.71289 25.4395 0 19.7266 0 12.7246C0 5.71289 5.71289 0 12.7148 0C19.7266 0 25.4395 5.71289 25.4395 12.7246ZM16.7285 7.05078L16.7285 8.56445L15.5371 8.56445C14.3848 8.56445 13.6914 8.89648 12.8516 9.87305L11.3086 11.6797L9.76562 9.87305C8.92578 8.89648 8.23242 8.56445 7.08984 8.56445L5.53711 8.56445C5.11719 8.56445 4.81445 8.83789 4.81445 9.23828C4.81445 9.61914 5.12695 9.91211 5.53711 9.91211L7.10938 9.91211C7.79297 9.91211 8.23242 10.1465 8.79883 10.8301L10.4102 12.7246L8.79883 14.6191C8.22266 15.3125 7.79297 15.5371 7.10938 15.5371L5.53711 15.5371C5.12695 15.5371 4.81445 15.8301 4.81445 16.2109C4.81445 16.6016 5.11719 16.8848 5.53711 16.8848L7.08984 16.8848C8.23242 16.8848 8.92578 16.5527 9.76562 15.5762L11.3086 13.7695L12.8516 15.5762C13.6914 16.5527 14.3848 16.8848 15.5371 16.8848L16.7285 16.8848L16.7285 18.4277C16.7285 18.7793 16.9336 18.9941 17.2754 18.9941C17.4414 18.9941 17.5977 18.9453 17.7246 18.8477L20.293 16.7578C20.5957 16.5137 20.5957 16.1035 20.3027 15.8594L17.7344 13.7793C17.627 13.6621 17.4512 13.6035 17.2754 13.6035C16.9434 13.6035 16.7285 13.8281 16.7285 14.1797L16.7285 15.5371L15.5762 15.5371C14.8145 15.5371 14.3945 15.3027 13.8281 14.6191L12.207 12.7246L13.8281 10.8301C14.3945 10.1465 14.8145 9.91211 15.5762 9.91211L16.7285 9.91211L16.7285 11.2988C16.7285 11.6504 16.9434 11.875 17.2754 11.875C17.4512 11.875 17.627 11.8164 17.7344 11.6992L20.293 9.63867C20.5859 9.39453 20.5957 8.97461 20.3027 8.73047L17.7246 6.63086C17.5977 6.5332 17.4414 6.48438 17.2754 6.48438C16.9336 6.48438 16.7285 6.69922 16.7285 7.05078Z" fill="black" fill-opacity="0.85"/>
 </g>
</svg>
