<?xml version="1.0" ?><!-- Generator: Adobe Illustrator 25.0.0, SVG Export Plug-In . SVG Version: 6.00 Build 0)  --><svg xmlns="http://www.w3.org/2000/svg" xmlns:xlink="http://www.w3.org/1999/xlink" version="1.1" id="Layer_1" x="0px" y="0px" viewBox="0 0 512 512" style="enable-background:new 0 0 512 512;" xml:space="preserve">
<path d="M256,512c35,0,67.9-6.7,98.8-20.1c30.9-13.4,58.1-31.9,81.7-55.5c23.6-23.6,42.1-50.8,55.5-81.7  C505.3,323.9,512,291,512,256s-6.7-67.9-20.1-98.8c-13.4-30.9-31.9-58.1-55.5-81.7c-23.6-23.6-50.9-42.1-81.8-55.5  C323.7,6.7,290.7,0,255.7,0S187.9,6.7,157,20.1C126.1,33.5,98.9,52,75.4,75.5c-23.5,23.6-42,50.8-55.3,81.7C6.7,188.1,0,221,0,256  s6.7,67.9,20.1,98.8c13.4,30.9,31.9,58.1,55.5,81.7c23.6,23.6,50.8,42.1,81.7,55.5C188.1,505.3,221,512,256,512z" class="multicolor-0:tintColor hierarchical-0:tertiary SFSymbolsPreview007AFF" style="fill: #007AFF;"/>
<path d="M96.1,325.3c0-4.2,1.5-7.8,4.6-10.8c3.1-3,7-4.5,11.7-4.5h31.4c6.4,0,11.8-1.2,16.4-3.6c4.6-2.4,9.7-6.9,15.2-13.4  l31.4-36.9l-31.4-36.9c-5.4-6.5-10.4-11-15.1-13.4c-4.7-2.4-10.2-3.6-16.6-3.6h-31.4c-4.7,0-8.6-1.5-11.7-4.5  c-3.1-3-4.6-6.6-4.6-10.8c0-4.5,1.5-8.2,4.5-11c3-2.8,6.9-4.3,11.8-4.3h30.9c11.5,0,21.4,1.9,29.5,5.8c8.1,3.8,16.5,10.7,25.2,20.6  l29.4,34.4l29.4-34.4c8.5-9.9,16.9-16.7,25.1-20.6c8.2-3.8,18.2-5.8,29.9-5.8h23.8v-28.6c0-3.8,1.1-6.9,3.4-9.2  c2.3-2.3,5.3-3.4,9.2-3.4c3.8,0,7.1,1.1,9.8,3.3l51.2,42.4c3.2,2.7,4.7,5.9,4.6,9.8c-0.1,3.8-1.7,7-4.9,9.5l-50.7,41.7  c-2.3,2.5-5.7,3.8-10,3.8c-3.7,0-6.7-1.2-9-3.5s-3.5-5.4-3.5-9.3V202h-22.8c-7.2,0-13.2,1.2-17.9,3.6c-4.8,2.4-9.8,6.9-15.2,13.4  L247.7,256l31.9,36.9c5.4,6.5,10.4,11,15.2,13.4c4.8,2.4,10.8,3.6,17.9,3.6h22.8v-25.1c0-3.8,1.2-6.9,3.5-9.3s5.4-3.5,9-3.5  c4.4,0,7.7,1.3,10,3.8l50.9,42.2c3.2,2.5,4.7,5.6,4.6,9.4s-1.7,7-4.9,9.7l-50.9,42.2c-2.7,2.2-5.9,3.3-9.8,3.3  c-3.8,0-6.9-1.1-9.2-3.4c-2.3-2.3-3.4-5.3-3.4-9.2v-29.4h-23.8c-11.7,0-21.7-1.9-29.9-5.8c-8.2-3.8-16.6-10.7-25.1-20.6l-29.4-34.4  L198,314.2c-8.7,9.9-17.1,16.7-25.2,20.6c-8.1,3.8-17.9,5.8-29.5,5.8h-30.9c-4.9,0-8.8-1.4-11.8-4.3  C97.6,333.5,96.1,329.8,96.1,325.3z" class="multicolor-1:white hierarchical-1:primary SFSymbolsPreviewFFFFFF" style="fill: #FFFFFF;"/>
</svg>