<?xml version="1.0" encoding="UTF-8"?>
<!--Generator: Apple Native CoreSVG 326-->
<!DOCTYPE svg
PUBLIC "-//W3C//DTD SVG 1.1//EN"
       "http://www.w3.org/Graphics/SVG/1.1/DTD/svg11.dtd">
<svg version="1.1" xmlns="http://www.w3.org/2000/svg" xmlns:xlink="http://www.w3.org/1999/xlink" viewBox="0 0 25.8008 25.459">
 <g>
  <rect height="25.459" opacity="0" width="25.8008" x="0" y="0"/>
  <path d="M12.7148 25.4395C19.7363 25.4395 25.4395 19.7461 25.4395 12.7246C25.4395 5.70312 19.7363 0 12.7148 0C5.69336 0 0 5.70312 0 12.7246C0 19.7461 5.69336 25.4395 12.7148 25.4395ZM12.7148 23.623C6.68945 23.623 1.81641 18.75 1.81641 12.7246C1.81641 6.69922 6.68945 1.82617 12.7148 1.82617C18.7402 1.82617 23.6133 6.69922 23.6133 12.7246C23.6133 18.75 18.7402 23.623 12.7148 23.623Z" fill="black" fill-opacity="0.85"/>
  <path d="M5 16.1328C5 16.5137 5.2832 16.7871 5.69336 16.7871L7.2168 16.7871C8.33008 16.7871 9.01367 16.4551 9.83398 15.5078L13.7891 10.8691C14.3457 10.2051 14.7559 9.9707 15.498 9.9707L16.6211 9.9707L16.6211 11.3281C16.6211 11.6699 16.8359 11.8945 17.1582 11.8945C17.3242 11.8945 17.4902 11.8359 17.5977 11.7285L20.0977 9.70703C20.3809 9.47266 20.3906 9.0625 20.1074 8.82812L17.5879 6.77734C17.4707 6.67969 17.3145 6.63086 17.1582 6.63086C16.8262 6.63086 16.6211 6.8457 16.6211 7.1875L16.6211 8.66211L15.459 8.66211C14.3457 8.66211 13.6621 8.99414 12.8418 9.94141L8.89648 14.5801C8.33008 15.2539 7.90039 15.4785 7.23633 15.4785L5.69336 15.4785C5.30273 15.4785 5 15.7617 5 16.1328ZM5 9.31641C5 9.6875 5.30273 9.9707 5.69336 9.9707L7.23633 9.9707C7.90039 9.9707 8.33984 10.2051 8.89648 10.8691L12.8418 15.5078C13.6621 16.4551 14.3457 16.7871 15.459 16.7871L16.6211 16.7871L16.6211 18.291C16.6211 18.6328 16.8262 18.8477 17.1582 18.8477C17.3145 18.8477 17.4707 18.7988 17.5879 18.7012L20.0977 16.6602C20.3906 16.4258 20.3906 16.0254 20.1074 15.791L17.5977 13.7598C17.4902 13.6426 17.3242 13.584 17.1582 13.584C16.8359 13.584 16.6211 13.8086 16.6211 14.1504L16.6211 15.4785L15.498 15.4785C14.7559 15.4785 14.3457 15.2441 13.7891 14.5801L9.83398 9.94141C9.01367 8.99414 8.33008 8.66211 7.2168 8.66211L5.69336 8.66211C5.2832 8.66211 5 8.93555 5 9.31641Z" fill="black" fill-opacity="0.85"/>
 </g>
</svg>
