<?xml version="1.0" ?><!-- Generator: Adobe Illustrator 25.0.0, SVG Export Plug-In . SVG Version: 6.00 Build 0)  --><svg xmlns="http://www.w3.org/2000/svg" xmlns:xlink="http://www.w3.org/1999/xlink" version="1.1" id="Layer_1" x="0px" y="0px" viewBox="0 0 512 512" style="enable-background:new 0 0 512 512;" xml:space="preserve">
<path d="M0,367.7c0,14,10.2,23.5,25.7,23.5h49.5c37.7,0,60.2-10.9,87.4-42.5l48.8-57.1l49,57.1c26.8,31.6,49.5,42.7,87.4,42.7H388  v48.4c0,11.8,7.4,19.2,19.4,19.2c5.2,0,10.7-2,14.8-5.4l82.4-68c9.8-8.1,9.8-21.1,0-29.2l-82.4-68.4c-4.1-3.5-9.6-5.4-14.8-5.4  c-12,0-19.4,7.4-19.4,19.2V344h-38.8c-22.7,0-36.6-7.2-54.3-27.9l-52.1-60.8l52.1-60.6c17.7-20.9,31.6-28.1,54.3-28.1H388v43.8  c0,11.8,7.4,19.2,19.4,19.2c5.2,0,10.7-2,14.8-5.4l82.4-68c9.8-8.1,9.8-20.9,0-29.2l-82.4-68.4c-4.1-3.5-9.6-5.4-14.8-5.4  c-12,0-19.4,7.4-19.4,19.2v47.1h-40.1c-37.9,0-60.6,11.1-87.4,42.7l-49,57.1l-48.8-57.1c-27.2-31.6-49.7-42.7-87.4-42.7H25.7  C10.2,119.2,0,128.8,0,143c0,14,10.5,23.8,25.7,23.8h50.6c20.9,0,34.2,7.2,52.1,27.9l52.1,60.6l-52.1,60.8  C110.3,336.8,97,344,76.3,344H25.7C10.5,344,0,353.8,0,367.7z"/>
</svg>