<?xml version="1.0" ?><!-- Generator: Adobe Illustrator 25.0.0, SVG Export Plug-In . SVG Version: 6.00 Build 0)  --><svg xmlns="http://www.w3.org/2000/svg" xmlns:xlink="http://www.w3.org/1999/xlink" version="1.1" id="Layer_1" x="0px" y="0px" viewBox="0 0 512 512" style="enable-background:new 0 0 512 512;" xml:space="preserve">
<path d="M256,512c35,0,67.9-6.7,98.8-20.1c30.9-13.4,58.1-31.9,81.7-55.5c23.6-23.6,42.1-50.8,55.5-81.7  C505.3,323.9,512,291,512,256s-6.7-67.9-20.1-98.8c-13.4-30.9-31.9-58.1-55.5-81.7c-23.6-23.6-50.9-42.1-81.8-55.5  C323.7,6.7,290.7,0,255.7,0S187.9,6.7,157,20.1C126.1,33.5,98.9,52,75.4,75.5c-23.5,23.6-42,50.8-55.3,81.7C6.7,188.1,0,221,0,256  s6.7,67.9,20.1,98.8c13.4,30.9,31.9,58.1,55.5,81.7c23.6,23.6,50.8,42.1,81.7,55.5C188.1,505.3,221,512,256,512z M256,469.3  c-29.6,0-57.3-5.5-83.1-16.6c-25.8-11-48.4-26.3-67.9-45.8c-19.5-19.5-34.7-42.1-45.7-67.9c-11-25.8-16.4-53.5-16.4-83.1  c0-29.6,5.5-57.3,16.4-83.1c11-25.8,26.1-48.4,45.6-68s42-34.8,67.8-45.8c25.8-11,53.5-16.4,83.1-16.4c29.6,0,57.3,5.5,83.1,16.4  c25.8,11,48.4,26.2,68,45.8c19.6,19.6,34.9,42.2,45.9,68c11,25.8,16.6,53.5,16.6,83.1c0,29.6-5.5,57.3-16.4,83.1  c-11,25.8-26.2,48.4-45.7,67.9c-19.5,19.5-42.2,34.8-68,45.8C313.3,463.8,285.6,469.3,256,469.3z" class="hierarchical-0:secondary SFSymbolsPreview4D4D4D" style="fill: #4D4D4D;"/>
<path d="M100.6,323.3c0,4.4,1.5,7.9,4.5,10.7c3,2.8,6.9,4.1,11.5,4.1h29.6c11.4,0,21-1.9,28.9-5.6c7.9-3.8,16-10.4,24.3-20  l79.1-92.4c5.2-6.2,10.1-10.5,14.8-12.9c4.7-2.4,10.5-3.6,17.3-3.6H333v25.1c0,3.8,1.1,6.9,3.4,9.2c2.3,2.3,5.1,3.4,8.7,3.4  c4.2,0,7.4-1.3,9.5-3.8l49.2-40.4c3-2.5,4.6-5.6,4.6-9.3c0.1-3.7-1.4-6.8-4.4-9.3l-49.7-41.2c-2.3-2.2-5.4-3.3-9.3-3.3  c-3.7,0-6.6,1.1-8.8,3.4c-2.2,2.3-3.3,5.2-3.3,8.9v27.6h-23.3c-11.2,0-20.8,1.9-28.7,5.6c-7.9,3.8-16.1,10.4-24.5,20l-78.8,92.4  c-5.4,6.4-10.3,10.7-14.8,13.1c-4.5,2.3-9.9,3.5-16.1,3.5h-30.1c-4.7,0-8.5,1.4-11.5,4.3C102.1,315.6,100.6,319.1,100.6,323.3z   M100.6,188.7c0,4.2,1.5,7.7,4.5,10.5c3,2.8,6.9,4.3,11.5,4.3h30.1c6.2,0,11.6,1.2,16.2,3.6c4.6,2.4,9.5,6.7,14.7,12.9l78.8,92.4  c8.4,9.5,16.5,16.2,24.5,20c7.9,3.8,17.5,5.6,28.7,5.6H333v28.4c0,3.7,1.1,6.7,3.3,8.9c2.2,2.3,5.1,3.4,8.8,3.4  c3.8,0,6.9-1.1,9.3-3.3l49.4-40.9c3.2-2.5,4.8-5.6,4.8-9.2s-1.5-6.7-4.5-9.2l-49.4-40.9c-2.2-2.5-5.4-3.8-9.5-3.8  c-3.5,0-6.4,1.1-8.7,3.4c-2.3,2.3-3.4,5.3-3.4,9.2v24.3h-22.3c-6.9,0-12.6-1.2-17.3-3.6c-4.7-2.4-9.6-6.7-14.8-12.9l-79.1-92.4  c-8.4-9.5-16.5-16.2-24.3-20c-7.9-3.8-17.5-5.6-28.9-5.6h-29.6c-4.7,0-8.5,1.4-11.5,4.1C102.1,180.8,100.6,184.4,100.6,188.7z" class="hierarchical-1:primary SFSymbolsPreview212121" style="fill: #212121;"/>
</svg>