<?xml version="1.0" ?><!-- Generator: Adobe Illustrator 25.0.0, SVG Export Plug-In . SVG Version: 6.00 Build 0)  --><svg xmlns="http://www.w3.org/2000/svg" xmlns:xlink="http://www.w3.org/1999/xlink" version="1.1" id="Layer_1" x="0px" y="0px" viewBox="0 0 512 512" style="enable-background:new 0 0 512 512;" xml:space="preserve">
<path d="M68.2,455.9h375.6c45.6,0,68.2-22.6,68.2-67.3V123.4c0-44.7-22.6-67.3-68.2-67.3H68.2C22.8,56.1,0,78.5,0,123.4v265.1  C0,433.5,22.8,455.9,68.2,455.9z M68.6,420.9c-21.7,0-33.7-11.5-33.7-34.1V125.2c0-22.6,11.9-34.1,33.7-34.1h244.5v329.8H68.6z   M443.4,91.1c21.5,0,33.7,11.5,33.7,34.1v261.6c0,22.6-12.2,34.1-33.7,34.1h-96.2V91.1H443.4z M432.7,194.9c5.9,0,10-3.9,10-9.8  v-40.6c0-6.1-3.9-10-10-10h-41c-5.9,0-9.8,3.9-9.8,10v40.6c0,5.9,4.1,9.8,9.8,9.8H432.7z M432.7,286.1c5.9,0,10-4.3,10-9.8v-41  c0-5.6-3.9-10-10-10h-41c-5.9,0-9.8,4.3-9.8,10v41c0,5.4,4.1,9.8,9.8,9.8H432.7z M432.7,376.8c5.9,0,10-3.9,10-9.8v-40.6  c0-5.9-3.9-10-10-10h-41c-5.9,0-9.8,4.1-9.8,10v40.6c0,5.9,4.1,9.8,9.8,9.8H432.7z"/>
</svg>