<?xml version="1.0" encoding="UTF-8"?>
<!--Generator: Apple Native CoreSVG 326-->
<!DOCTYPE svg
PUBLIC "-//W3C//DTD SVG 1.1//EN"
       "http://www.w3.org/Graphics/SVG/1.1/DTD/svg11.dtd">
<svg version="1.1" xmlns="http://www.w3.org/2000/svg" xmlns:xlink="http://www.w3.org/1999/xlink" viewBox="0 0 25.8008 25.459">
 <g>
  <rect height="25.459" opacity="0" width="25.8008" x="0" y="0"/>
  <path d="M12.7148 25.4395C19.7363 25.4395 25.4395 19.7461 25.4395 12.7246C25.4395 5.70312 19.7363 0 12.7148 0C5.69336 0 0 5.70312 0 12.7246C0 19.7461 5.69336 25.4395 12.7148 25.4395ZM12.7148 23.623C6.68945 23.623 1.81641 18.75 1.81641 12.7246C1.81641 6.69922 6.68945 1.82617 12.7148 1.82617C18.7402 1.82617 23.6133 6.69922 23.6133 12.7246C23.6133 18.75 18.7402 23.623 12.7148 23.623Z" fill="black" fill-opacity="0.85"/>
  <path d="M10.5371 11.0352L12.0801 11.0352L12.0801 12.1289L8.75977 12.1289C8.38867 12.1289 8.14453 12.2363 7.91992 12.4414L6.66992 13.6426C6.20117 14.082 6.20117 14.5312 6.66992 14.9805L7.91992 16.1426C8.14453 16.377 8.39844 16.4746 8.75977 16.4746L12.0801 16.4746L12.0801 18.8477L10.3125 18.8477C9.9707 18.8477 9.70703 19.1211 9.70703 19.4727C9.70703 19.8047 9.9707 20.0879 10.3125 20.0879L15.0684 20.0879C15.4199 20.0879 15.6934 19.8047 15.6934 19.4727C15.6934 19.1211 15.4199 18.8477 15.0684 18.8477L13.3203 18.8477L13.3203 16.4746L14.8535 16.4746C15.4102 16.4746 15.752 16.1523 15.752 15.5762L15.752 13.0273C15.752 12.4512 15.4102 12.1289 14.8535 12.1289L13.3203 12.1289L13.3203 11.0352L16.6309 11.0352C16.9824 11.0352 17.2363 10.9277 17.4707 10.7031L18.7207 9.52148C19.1797 9.0918 19.1895 8.64258 18.7109 8.18359L17.4707 7.00195C17.2363 6.78711 16.9922 6.68945 16.6309 6.68945L13.3203 6.68945L13.3203 5.49805C13.3203 5.16602 13.0469 4.88281 12.6953 4.88281C12.3438 4.88281 12.0801 5.17578 12.0801 5.49805L12.0801 6.68945L10.5371 6.68945C9.9707 6.68945 9.63867 7.00195 9.63867 7.57812L9.63867 10.1367C9.63867 10.7031 9.9707 11.0352 10.5371 11.0352Z" fill="black" fill-opacity="0.85"/>
 </g>
</svg>
