<?xml version="1.0" encoding="UTF-8"?>
<!--Generator: Apple Native CoreSVG 326-->
<!DOCTYPE svg
PUBLIC "-//W3C//DTD SVG 1.1//EN"
       "http://www.w3.org/Graphics/SVG/1.1/DTD/svg11.dtd">
<svg version="1.1" xmlns="http://www.w3.org/2000/svg" xmlns:xlink="http://www.w3.org/1999/xlink" viewBox="0 0 25.8008 25.459">
 <g>
  <rect height="25.459" opacity="0" width="25.8008" x="0" y="0"/>
  <path d="M25.4395 12.7344C25.4395 19.7461 19.7266 25.459 12.7148 25.459C5.71289 25.459 0 19.7461 0 12.7344C0 5.73242 5.71289 0.0195312 12.7148 0.0195312C19.7266 0.0195312 25.4395 5.73242 25.4395 12.7344ZM12.0703 5.54688L12.0703 6.91406L7.73438 6.91406C6.79688 6.91406 6.25977 7.42188 6.25977 8.35938L6.25977 12.6855C6.25977 13.6035 6.79688 14.1211 7.73438 14.1211L12.0703 14.1211L12.0703 19.2871L9.90234 19.2871C9.56055 19.2871 9.26758 19.5801 9.26758 19.9316C9.26758 20.2734 9.56055 20.5664 9.90234 20.5664L15.5078 20.5664C15.8594 20.5664 16.1426 20.2637 16.1426 19.9316C16.1426 19.5898 15.8594 19.2871 15.5078 19.2871L13.3398 19.2871L13.3398 14.1211L17.6758 14.1211C18.623 14.1211 19.1504 13.6035 19.1504 12.6855L19.1504 8.35938C19.1504 7.42188 18.623 6.91406 17.6758 6.91406L13.3398 6.91406L13.3398 5.54688C13.3398 5.20508 13.0469 4.91211 12.7051 4.91211C12.3633 4.91211 12.0703 5.20508 12.0703 5.54688ZM13.0957 8.89648L14.8438 11.3867C15.1172 11.7773 14.9707 12.0996 14.502 12.0996L10.9277 12.0996C10.4492 12.0996 10.3125 11.7773 10.5859 11.3867L12.334 8.89648C12.5488 8.59375 12.8809 8.58398 13.0957 8.89648Z" fill="black" fill-opacity="0.85"/>
 </g>
</svg>
