<?xml version="1.0" ?><!-- Generator: Adobe Illustrator 25.0.0, SVG Export Plug-In . SVG Version: 6.00 Build 0)  --><svg xmlns="http://www.w3.org/2000/svg" xmlns:xlink="http://www.w3.org/1999/xlink" version="1.1" id="Layer_1" x="0px" y="0px" viewBox="0 0 512 512" style="enable-background:new 0 0 512 512;" xml:space="preserve">
<path d="M393.5,492.5c0-10.7-8.8-19.7-19.5-19.7h-74.2v-163l153.7,0.2c33.1,0,51.6-18.2,51.6-50.8V123.8c0-32.6-18.5-50.6-51.6-50.6  H299.9V19.7C299.9,9,291.1,0,280.4,0c-10.7,0-19.7,9-19.7,19.7v53.5H136c-21.6,0-31.9,6.6-44.3,18.5L27,153.5  c-27.2,26.3-26.5,50.8-0.2,75.9l64.9,62c12.4,11.9,22.6,18.2,44.5,18.2l124.5,0.2v163h-74.2c-10.7,0-19.5,9-19.5,19.7  c0,10.7,8.8,19.5,19.5,19.5h187.5C384.8,512,393.5,503.2,393.5,492.5z M452.7,270.7H137.4c-9.5,0-12.9-1.9-17.3-6.3L53,200.9  c-6.3-5.8-6.3-13.4,0-19l66.9-63.2c4.6-4.4,8-6.3,17.3-6.3h315.5c7.5,0,12.4,4.9,12.4,12.6v133C465.1,265.9,460.2,270.7,452.7,270.7  z"/>
</svg>