<?xml version="1.0" encoding="UTF-8"?>
<!--Generator: Apple Native CoreSVG 326-->
<!DOCTYPE svg
PUBLIC "-//W3C//DTD SVG 1.1//EN"
       "http://www.w3.org/Graphics/SVG/1.1/DTD/svg11.dtd">
<svg version="1.1" xmlns="http://www.w3.org/2000/svg" xmlns:xlink="http://www.w3.org/1999/xlink" viewBox="0 0 25.8008 25.459">
 <g>
  <rect height="25.459" opacity="0" width="25.8008" x="0" y="0"/>
  <path d="M12.7148 25.4395C19.7363 25.4395 25.4395 19.7461 25.4395 12.7246C25.4395 5.70312 19.7363 0 12.7148 0C5.69336 0 0 5.70312 0 12.7246C0 19.7461 5.69336 25.4395 12.7148 25.4395ZM12.7148 23.623C6.68945 23.623 1.81641 18.75 1.81641 12.7246C1.81641 6.69922 6.68945 1.82617 12.7148 1.82617C18.7402 1.82617 23.6133 6.69922 23.6133 12.7246C23.6133 18.75 18.7402 23.623 12.7148 23.623Z" fill="black" fill-opacity="0.85"/>
  <path d="M6.41602 12.6562C6.41602 13.5547 6.93359 14.0723 7.85156 14.0723L12.0898 14.0723L12.0898 19.1406L9.9707 19.1406C9.63867 19.1406 9.35547 19.4238 9.35547 19.7559C9.35547 20.0879 9.63867 20.3711 9.9707 20.3711L15.4395 20.3711C15.7715 20.3711 16.0547 20.0879 16.0547 19.7559C16.0547 19.4238 15.7715 19.1406 15.4395 19.1406L13.3203 19.1406L13.3203 14.0723L17.5586 14.0723C18.4766 14.0723 18.9941 13.5547 18.9941 12.6562L18.9941 8.4375C18.9941 7.53906 18.4766 7.03125 17.5586 7.03125L13.3203 7.03125L13.3203 5.68359C13.3203 5.35156 13.0371 5.06836 12.7051 5.06836C12.373 5.06836 12.0898 5.35156 12.0898 5.68359L12.0898 7.03125L7.85156 7.03125C6.93359 7.03125 6.41602 7.53906 6.41602 8.4375ZM10.6348 11.3965L12.3438 8.97461C12.5488 8.67188 12.8711 8.66211 13.0859 8.97461L14.7949 11.3965C15.0586 11.7773 14.9121 12.0996 14.4629 12.0996L10.9668 12.0996C10.498 12.0996 10.3711 11.7773 10.6348 11.3965Z" fill="black" fill-opacity="0.85"/>
 </g>
</svg>
