<?xml version="1.0" encoding="UTF-8"?>
<!--Generator: Apple Native CoreSVG 326-->
<!DOCTYPE svg
PUBLIC "-//W3C//DTD SVG 1.1//EN"
       "http://www.w3.org/Graphics/SVG/1.1/DTD/svg11.dtd">
<svg version="1.1" xmlns="http://www.w3.org/2000/svg" xmlns:xlink="http://www.w3.org/1999/xlink" viewBox="0 0 25.8008 25.459">
 <g>
  <rect height="25.459" opacity="0" width="25.8008" x="0" y="0"/>
  <path d="M25.4395 12.7344C25.4395 19.7461 19.7266 25.459 12.7148 25.459C5.71289 25.459 0 19.7461 0 12.7344C0 5.73242 5.71289 0.0195312 12.7148 0.0195312C19.7266 0.0195312 25.4395 5.73242 25.4395 12.7344ZM12.0703 5.36133L12.0703 6.57227L10.4883 6.57227C9.91211 6.57227 9.56055 6.89453 9.56055 7.48047L9.56055 10.1074C9.56055 10.6836 9.91211 11.0156 10.4883 11.0156L12.0703 11.0156L12.0703 12.1387L8.67188 12.1387C8.30078 12.1387 8.04688 12.2363 7.8125 12.4609L6.54297 13.6816C6.05469 14.1309 6.04492 14.5898 6.5332 15.0488L7.8125 16.25C8.04688 16.4941 8.31055 16.582 8.67188 16.582L12.0703 16.582L12.0703 19.0039L10.2637 19.0039C9.92188 19.0039 9.63867 19.2871 9.63867 19.6387C9.63867 19.9902 9.92188 20.2832 10.2637 20.2832L15.127 20.2832C15.4785 20.2832 15.7617 19.9902 15.7617 19.6387C15.7617 19.2871 15.4785 19.0039 15.127 19.0039L13.3398 19.0039L13.3398 16.582L14.9121 16.582C15.4883 16.582 15.8398 16.25 15.8398 15.6738L15.8398 13.0469C15.8398 12.4707 15.4883 12.1387 14.9121 12.1387L13.3398 12.1387L13.3398 11.0156L16.7188 11.0156C17.0898 11.0156 17.3535 10.918 17.5781 10.6836L18.8672 9.47266C19.3457 9.0332 19.3457 8.57422 18.8477 8.10547L17.5781 6.88477C17.3535 6.66992 17.0996 6.57227 16.7188 6.57227L13.3398 6.57227L13.3398 5.36133C13.3398 5.00977 13.0566 4.7168 12.7051 4.7168C12.3438 4.7168 12.0703 5.01953 12.0703 5.36133Z" fill="black" fill-opacity="0.85"/>
 </g>
</svg>
