<?xml version="1.0" encoding="UTF-8"?>
<!--Generator: Apple Native CoreSVG 326-->
<!DOCTYPE svg
PUBLIC "-//W3C//DTD SVG 1.1//EN"
       "http://www.w3.org/Graphics/SVG/1.1/DTD/svg11.dtd">
<svg version="1.1" xmlns="http://www.w3.org/2000/svg" xmlns:xlink="http://www.w3.org/1999/xlink" viewBox="0 0 24.0723 27.6465">
 <g>
  <rect height="27.6465" opacity="0" width="24.0723" x="0" y="0"/>
  <path d="M10.9961 3.84766L12.7246 3.84766L12.7246 0.869141C12.7246 0.390625 12.334 0 11.8653 0C11.3867 0 10.9961 0.390625 10.9961 0.869141ZM7.83205 11.1133L19.1602 11.1133C19.834 11.1133 20.293 10.918 20.7422 10.5078L23.0664 8.29102C23.9356 7.48047 23.9356 6.65039 23.0469 5.79102L20.7422 3.57422C20.3028 3.16406 19.8438 2.97852 19.1699 2.97852L7.83205 2.97852C6.7676 2.97852 6.1426 3.57422 6.1426 4.64844L6.1426 9.44336C6.1426 10.5078 6.7676 11.1133 7.83205 11.1133ZM8.16408 9.56055C7.91018 9.56055 7.69533 9.3457 7.69533 9.0918L7.69533 5C7.69533 4.74609 7.91018 4.53125 8.16408 4.53125L19.1406 4.53125C19.3457 4.53125 19.5899 4.61914 19.7168 4.73633L21.7481 6.68945C21.9629 6.875 21.9727 7.19727 21.7578 7.40234L19.6973 9.33594C19.5508 9.47266 19.3262 9.56055 19.1309 9.56055ZM4.56057 21.25L15.8789 21.25C16.9434 21.25 17.5684 20.6445 17.5684 19.5801L17.5684 14.7852C17.5684 13.7109 16.9434 13.1152 15.8789 13.1152L4.5508 13.1152C3.87697 13.1152 3.40822 13.3008 2.97854 13.7109L0.664083 15.9375C-0.214823 16.7773-0.224589 17.6074 0.654317 18.4375L2.97854 20.6445C3.41799 21.0645 3.88674 21.25 4.56057 21.25ZM4.58986 19.6973C4.38479 19.6973 4.16018 19.6094 4.01369 19.4824L1.96291 17.5586C1.7383 17.3535 1.74807 17.0312 1.96291 16.8457L3.99416 14.873C4.13088 14.7559 4.37502 14.668 4.5801 14.668L15.5469 14.668C15.8106 14.668 16.0156 14.873 16.0156 15.1367L16.0156 19.2285C16.0156 19.4824 15.8106 19.6973 15.5469 19.6973ZM10.9961 13.7988L12.7246 13.7988L12.7246 10.3516L10.9961 10.3516ZM10.9961 26.709L12.7246 26.709L12.7246 20.0391L10.9961 20.0391ZM7.50979 27.5293L16.211 27.5293C16.6797 27.5293 17.0703 27.1387 17.0703 26.6602C17.0703 26.1914 16.6797 25.8008 16.211 25.8008L7.50979 25.8008C7.03127 25.8008 6.64065 26.1914 6.64065 26.6602C6.64065 27.1387 7.03127 27.5293 7.50979 27.5293Z" fill="black" fill-opacity="0.85"/>
 </g>
</svg>
