<?xml version="1.0" ?><!-- Generator: Adobe Illustrator 25.0.0, SVG Export Plug-In . SVG Version: 6.00 Build 0)  --><svg xmlns="http://www.w3.org/2000/svg" xmlns:xlink="http://www.w3.org/1999/xlink" version="1.1" id="Layer_1" x="0px" y="0px" viewBox="0 0 512 512" style="enable-background:new 0 0 512 512;" xml:space="preserve">
<path d="M129.2,512h253.6c49.4,0,74-25.1,74-74.7V169.6c0-23.6-4.3-35.3-17.7-49L337.7,19.3C323.8,5.3,310.2,0,288.7,0H129.2  c-49.2,0-74,25.3-74,75v362.3C55.2,487.2,79.8,512,129.2,512z M142.1,284.7v-29.9c0-20.8,12.7-33.4,33-33.4h104.8v211.8H234V299  c0-8.8-5.3-14.3-14.3-14.3H142.1z M306.4,433.2V221.4h30.8c20.3,0,33.2,12.7,33.2,33.4V400c0,20.5-12.9,33.2-33.2,33.2H306.4z   M142.1,400v-88.8h61.6c2.4,0,3.8,1.2,3.8,3.6v118.4H175C154.7,433.2,142.1,420.5,142.1,400z"/>
</svg>