<?xml version="1.0" ?><!-- Generator: Adobe Illustrator 25.0.0, SVG Export Plug-In . SVG Version: 6.00 Build 0)  --><svg xmlns="http://www.w3.org/2000/svg" xmlns:xlink="http://www.w3.org/1999/xlink" version="1.1" id="Layer_1" x="0px" y="0px" viewBox="0 0 512 512" style="enable-background:new 0 0 512 512;" xml:space="preserve">
<path d="M66.3,272.1h46.3V374h0.2V272.1h-0.2v-24H66.3v-27.3c0-18.5,11.6-29.9,29.7-29.9h16.6v57.2h0.2v-57.2h-0.2v-69.6  c0-54.4,34.9-89.8,88.6-89.8h76l-14-14.2C250.8,5,238.4,0,219,0H81C37,0,14.5,23,14.5,67.7v308.5c0,44.4,22.6,67.2,66.5,67.2h31.6  V374H95.9c-18,0-29.7-11.6-29.7-30.2V272.1z M211.6,512H431c43.9,0,66.5-23,66.5-67.4V213c0-21.1-4-31.8-16.2-43.9l-87.9-87.9  c-12.3-12.3-24.7-17.3-43.9-17.3h-138c-43.9,0-66.7,23-66.7,67.7v313C144.9,489,167.7,512,211.6,512z M221.3,316.8v-27.3  c0-18.8,11.6-30.2,29.7-30.2h92.6v183.1h-39.9V329.9c0-8.1-4.7-13.1-13.5-13.1H221.3z M367.9,442.4V259.3h23.3  c18.3,0,29.7,11.4,29.7,30.2v123c0,18.3-11.4,29.9-29.7,29.9H367.9z M221.3,412.5v-71.7h54.9c2.4,0,3.6,1.2,3.6,3.3v98.3H251  C233,442.4,221.3,430.8,221.3,412.5z"/>
</svg>