<?xml version="1.0" encoding="UTF-8"?>
<!--Generator: Apple Native CoreSVG 326-->
<!DOCTYPE svg
PUBLIC "-//W3C//DTD SVG 1.1//EN"
       "http://www.w3.org/Graphics/SVG/1.1/DTD/svg11.dtd">
<svg version="1.1" xmlns="http://www.w3.org/2000/svg" xmlns:xlink="http://www.w3.org/1999/xlink" viewBox="0 0 27.9004 29.7754">
 <g>
  <rect height="29.7754" opacity="0" width="27.9004" x="0" y="0"/>
  <path d="M14.0137 2.28516L14.7476 3.01758L11.2598 3.01758C8.16406 3.01758 6.31836 4.89258 6.31836 8.00781L6.31836 11.8848L5.53711 11.8848C4.52148 11.8848 3.89648 12.4902 3.89648 13.5352L3.89648 14.9805L6.31836 14.9805L6.31836 16.1133L3.89648 16.1133L3.89648 19.873C3.89648 20.8984 4.52148 21.5234 5.53711 21.5234L6.31836 21.5234L6.31836 24.7949C6.31836 24.8884 6.32003 24.9808 6.32871 25.0684L4.58008 25.0684C2.35352 25.0684 1.19141 23.8965 1.19141 21.6504L1.19141 4.86328C1.19141 2.59766 2.35352 1.42578 4.58008 1.42578L11.8457 1.42578C12.7734 1.42578 13.418 1.69922 14.0137 2.28516Z" fill="black" fill-opacity="0.85"/>
  <path d="M7.87109 24.7949C7.87109 27.041 9.0332 28.2129 11.2598 28.2129L22.9492 28.2129C25.1855 28.2129 26.3379 27.041 26.3379 24.7949L26.3379 12.4414C26.3379 11.4258 26.1328 10.8594 25.5469 10.2734L20.6934 5.42969C20.0977 4.84375 19.4531 4.57031 18.5254 4.57031L11.2598 4.57031C9.0332 4.57031 7.87109 5.74219 7.87109 8.00781ZM11.7773 23.0176L11.7773 19.2676L14.7363 19.2676C14.8633 19.2676 14.9219 19.3262 14.9219 19.4434L14.9219 24.668L13.418 24.668C12.4023 24.668 11.7773 24.0527 11.7773 23.0176ZM11.7773 18.125L11.7773 16.6797C11.7773 15.6445 12.4023 15.0293 13.418 15.0293L18.2715 15.0293L18.2715 24.668L16.0645 24.668L16.0645 18.8086C16.0645 18.3789 15.8203 18.125 15.3613 18.125ZM19.4043 24.668L19.4043 15.0293L20.7422 15.0293C21.7676 15.0293 22.373 15.6445 22.373 16.6797L22.373 23.0176C22.373 24.0527 21.7676 24.668 20.7422 24.668Z" fill="black" fill-opacity="0.85"/>
 </g>
</svg>
