<?xml version="1.0" encoding="UTF-8"?>
<!--Generator: Apple Native CoreSVG 326-->
<!DOCTYPE svg
PUBLIC "-//W3C//DTD SVG 1.1//EN"
       "http://www.w3.org/Graphics/SVG/1.1/DTD/svg11.dtd">
<svg version="1.1" xmlns="http://www.w3.org/2000/svg" xmlns:xlink="http://www.w3.org/1999/xlink" viewBox="0 0 23.3203 22.959">
 <g>
  <rect height="22.959" opacity="0" width="23.3203" x="0" y="0"/>
  <path d="M3.79883 22.959L19.1504 22.959C21.6797 22.959 22.959 21.6797 22.959 19.1992L22.959 3.76953C22.959 1.2793 21.6797 0 19.1504 0L3.79883 0C1.2793 0 0 1.26953 0 3.76953L0 19.1992C0 21.6992 1.2793 22.959 3.79883 22.959ZM3.83789 21.2305C2.4707 21.2305 1.72852 20.5078 1.72852 19.1016L1.72852 3.85742C1.72852 2.46094 2.4707 1.72852 3.83789 1.72852L19.1211 1.72852C20.459 1.72852 21.2305 2.46094 21.2305 3.85742L21.2305 19.1016C21.2305 20.5078 20.459 21.2305 19.1211 21.2305Z" fill="black" fill-opacity="0.85"/>
  <path d="M8.06641 16.6797C10.0879 16.6797 11.0742 15.4102 11.0742 13.75C11.0742 12.041 10.0586 11.3867 8.71094 10.8594L7.99805 10.5859C7.05078 10.2246 6.41602 9.77539 6.41602 8.75C6.41602 7.82227 6.98242 7.13867 7.98828 7.13867C8.91602 7.13867 9.50195 7.69531 9.7168 8.66211C9.80469 8.97461 10.0098 9.11133 10.3125 9.11133C10.6445 9.11133 10.8496 8.88672 10.8496 8.55469C10.8496 8.45703 10.8301 8.32031 10.8105 8.21289C10.5176 6.9043 9.44336 6.05469 8.00781 6.05469C6.20117 6.05469 5.16602 7.28516 5.16602 8.83789C5.16602 10.3516 6.05469 11.1719 7.48047 11.6992L8.19336 11.9629C9.16016 12.3242 9.82422 12.832 9.82422 13.8672C9.82422 14.7949 9.23828 15.5859 8.08594 15.5859C7.06055 15.5859 6.40625 14.9902 6.20117 13.9746C6.12305 13.6719 5.92773 13.5156 5.61523 13.5156C5.29297 13.5156 5.05859 13.7598 5.05859 14.1113C5.05859 14.2578 5.07812 14.4336 5.12695 14.5703C5.51758 15.9082 6.57227 16.6797 8.06641 16.6797ZM15.0684 16.3184C16.7969 16.3184 18.0078 15.3516 18.0078 13.7402C18.0078 12.2559 17.0801 11.6113 15.8398 11.0254L14.9512 10.6055C14.1016 10.1953 13.4277 9.70703 13.4277 8.83789C13.4277 7.90039 14.1211 7.43164 15.0488 7.43164C16.1133 7.43164 16.5332 8.11523 16.6895 9.0332C16.7383 9.32617 16.9238 9.50195 17.2754 9.50195C17.627 9.50195 17.8418 9.29688 17.8418 8.94531C17.8418 8.80859 17.832 8.70117 17.8027 8.58398C17.4902 7.02148 16.377 6.42578 15.0488 6.42578C13.5156 6.42578 12.2168 7.27539 12.2168 8.91602C12.2168 10.3027 13.0469 10.9961 14.3457 11.6211L15.2148 12.041C16.084 12.4512 16.7969 12.8809 16.7969 13.8477C16.7969 14.7656 16.1426 15.293 15.0781 15.293C13.9258 15.293 13.4082 14.6777 13.2715 13.623C13.2227 13.3691 13.0078 13.1543 12.6855 13.1543C12.3535 13.1543 12.0996 13.3691 12.0996 13.7207C12.0996 13.8086 12.1094 13.9258 12.1387 14.0625C12.4512 15.6836 13.6816 16.3184 15.0684 16.3184ZM15.0488 17.666C15.2246 17.666 15.3809 17.5098 15.3809 17.334L15.3809 5.43945C15.3809 5.25391 15.2246 5.10742 15.0488 5.10742C14.873 5.10742 14.7168 5.25391 14.7168 5.43945L14.7168 17.334C14.7168 17.5098 14.873 17.666 15.0488 17.666Z" fill="black" fill-opacity="0.85"/>
 </g>
</svg>
