<?xml version="1.0" encoding="UTF-8"?>
<!--Generator: Apple Native CoreSVG 326-->
<!DOCTYPE svg
PUBLIC "-//W3C//DTD SVG 1.1//EN"
       "http://www.w3.org/Graphics/SVG/1.1/DTD/svg11.dtd">
<svg version="1.1" xmlns="http://www.w3.org/2000/svg" xmlns:xlink="http://www.w3.org/1999/xlink" viewBox="0 0 30.3809 25.0293">
 <g>
  <rect height="25.0293" opacity="0" width="30.3809" x="0" y="0"/>
  <path d="M30.0195 15.0098C30.0195 11.3281 28.6914 7.95898 26.4844 5.3418C26.2305 5.03906 25.8008 5.04883 25.5176 5.33203L22.6953 8.1543C22.4512 8.39844 22.4414 8.74023 22.6562 9.01367C23.9551 10.6738 24.7266 12.7441 24.7266 15.0098C24.7266 17.2754 23.9551 19.3555 22.5977 21.0742C22.4121 21.3086 22.4219 21.6016 22.627 21.8066L25.5176 24.707C25.8008 25 26.2207 24.9902 26.4844 24.6875C28.6914 22.0703 30.0195 18.6816 30.0195 15.0098Z" fill="black" fill-opacity="0.85"/>
  <path d="M15.0098 5.2832C17.2754 5.2832 19.3652 6.06445 21.0254 7.38281C21.2891 7.57812 21.6113 7.55859 21.8555 7.31445L24.6875 4.48242C24.9805 4.19922 24.9707 3.7793 24.668 3.51562C22.0605 1.32812 18.6816 0 15.0098 0C11.3379 0 7.95898 1.32812 5.35156 3.51562C5.04883 3.7793 5.03906 4.19922 5.32227 4.48242L8.16406 7.31445C8.39844 7.55859 8.75 7.56836 9.02344 7.35352C10.6738 6.06445 12.7539 5.2832 15.0098 5.2832Z" fill="black" fill-opacity="0.85"/>
  <path d="M0 15.0098C0 18.6816 1.32812 22.0703 3.53516 24.6875C3.78906 24.9902 4.21875 25 4.50195 24.707L7.39258 21.8066C7.58789 21.6016 7.60742 21.3086 7.42188 21.0742C6.06445 19.3555 5.2832 17.2754 5.2832 15.0098C5.2832 12.7441 6.05469 10.6738 7.36328 9.01367C7.56836 8.74023 7.56836 8.39844 7.32422 8.1543L4.49219 5.33203C4.20898 5.04883 3.78906 5.03906 3.52539 5.3418C1.31836 7.95898 0 11.3281 0 15.0098Z" fill="black" fill-opacity="0.85"/>
  <path d="M11.5723 20.3711C13.5938 20.3711 14.5898 19.1113 14.5898 17.4414C14.5898 15.7422 13.5645 15.0879 12.2168 14.5605L11.5137 14.2871C10.5664 13.916 9.93164 13.4766 9.93164 12.4512C9.93164 11.5234 10.498 10.8398 11.5039 10.8398C12.4316 10.8398 13.0176 11.3965 13.2324 12.3535C13.3105 12.6758 13.5156 12.8125 13.8281 12.8125C14.1602 12.8125 14.3652 12.5879 14.3652 12.2559C14.3652 12.1484 14.3457 12.0215 14.3164 11.9141C14.0234 10.5957 12.959 9.74609 11.5137 9.74609C9.7168 9.74609 8.68164 10.9863 8.68164 12.5293C8.68164 14.0527 9.57031 14.873 10.9863 15.4004L11.709 15.6641C12.6758 16.0156 13.3398 16.5332 13.3398 17.5684C13.3398 18.4961 12.7539 19.2871 11.6016 19.2871C10.5762 19.2871 9.92188 18.6914 9.7168 17.6758C9.63867 17.3633 9.44336 17.2168 9.13086 17.2168C8.79883 17.2168 8.56445 17.4609 8.56445 17.8125C8.56445 17.959 8.59375 18.1348 8.63281 18.2715C9.02344 19.5996 10.0781 20.3711 11.5723 20.3711ZM18.584 20.0098C20.3027 20.0098 21.5234 19.0527 21.5234 17.4316C21.5234 15.957 20.5957 15.3125 19.3555 14.7266L18.457 14.3066C17.6074 13.8965 16.9336 13.4082 16.9336 12.5391C16.9336 11.6016 17.6367 11.1328 18.5547 11.1328C19.6191 11.1328 20.0391 11.8164 20.1953 12.7344C20.2539 13.0176 20.4395 13.2031 20.791 13.2031C21.1328 13.2031 21.3477 12.998 21.3477 12.6465C21.3477 12.5098 21.3379 12.4023 21.3184 12.2852C21.0059 10.7227 19.8926 10.1172 18.5547 10.1172C17.0312 10.1172 15.7324 10.9766 15.7324 12.6074C15.7324 14.0039 16.5625 14.6973 17.8516 15.3125L18.7305 15.7324C19.5898 16.1523 20.3027 16.582 20.3027 17.5391C20.3027 18.4668 19.6582 18.9941 18.5938 18.9941C17.4316 18.9941 16.9141 18.3789 16.7773 17.3242C16.7285 17.0605 16.5234 16.8457 16.1914 16.8457C15.8691 16.8457 15.6152 17.0703 15.6152 17.4219C15.6152 17.5 15.625 17.627 15.6543 17.7637C15.957 19.3848 17.1875 20.0098 18.584 20.0098ZM18.5645 21.3672C18.7402 21.3672 18.8965 21.2109 18.8965 21.0352L18.8965 9.13086C18.8965 8.95508 18.7402 8.79883 18.5645 8.79883C18.3887 8.79883 18.2324 8.95508 18.2324 9.13086L18.2324 21.0352C18.2324 21.2109 18.3887 21.3672 18.5645 21.3672Z" fill="black" fill-opacity="0.85"/>
 </g>
</svg>
