<?xml version="1.0" encoding="UTF-8"?>
<!--Generator: Apple Native CoreSVG 326-->
<!DOCTYPE svg
PUBLIC "-//W3C//DTD SVG 1.1//EN"
       "http://www.w3.org/Graphics/SVG/1.1/DTD/svg11.dtd">
<svg version="1.1" xmlns="http://www.w3.org/2000/svg" xmlns:xlink="http://www.w3.org/1999/xlink" viewBox="0 0 27.9395 26.5527">
 <g>
  <rect height="26.5527" opacity="0" width="27.9395" x="0" y="0"/>
  <path d="M1.5332 23.8379L26.0449 23.8379L26.0449 23.0859C26.0449 22.666 25.791 22.4121 25.3613 22.4121L24.5605 22.4121L24.5605 8.33984L25.6934 8.33984C26.2891 8.33984 26.6211 7.91992 26.6211 7.48047C26.6211 7.1582 26.4453 6.875 26.0547 6.65039L15.2637 0.419922C14.7852 0.146484 14.2773 0 13.7891 0C13.3008 0 12.7832 0.146484 12.3145 0.419922L1.52344 6.65039C1.12305 6.875 0.957031 7.1582 0.957031 7.48047C0.957031 7.91992 1.28906 8.33984 1.88477 8.33984L3.02734 8.33984L3.02734 22.4121L2.22656 22.4121C1.78711 22.4121 1.5332 22.666 1.5332 23.0859ZM4.6582 22.4121L4.6582 6.85547L13.2227 2.03125C13.3887 1.93359 13.5938 1.875 13.7891 1.875C13.9746 1.875 14.1699 1.93359 14.3555 2.03125L22.9297 6.85547L22.9297 22.4121ZM0.869141 26.5332L26.709 26.5332C27.1875 26.5332 27.5781 26.1426 27.5781 25.6738C27.5781 25.1953 27.1875 24.8047 26.709 24.8047L0.869141 24.8047C0.390625 24.8047 0 25.1953 0 25.6738C0 26.1426 0.390625 26.5332 0.869141 26.5332Z" fill="black" fill-opacity="0.85"/>
  <path d="M10.3711 18.4082C12.3926 18.4082 13.3887 17.1387 13.3887 15.4785C13.3887 13.7695 12.3633 13.1152 11.0156 12.5977L10.3125 12.3242C9.36523 11.9531 8.73047 11.5039 8.73047 10.4883C8.73047 9.55078 9.29688 8.86719 10.3027 8.86719C11.2305 8.86719 11.8164 9.42383 12.0312 10.3906C12.1094 10.7129 12.3145 10.8496 12.627 10.8496C12.959 10.8496 13.1641 10.6152 13.1641 10.293C13.1641 10.1855 13.1445 10.0488 13.1152 9.94141C12.8223 8.63281 11.7578 7.7832 10.3125 7.7832C8.50586 7.7832 7.48047 9.02344 7.48047 10.5664C7.48047 12.0801 8.36914 12.9004 9.78516 13.4277L10.5078 13.6914C11.4746 14.0527 12.1387 14.5703 12.1387 15.6055C12.1387 16.5332 11.5527 17.3242 10.4004 17.3242C9.375 17.3242 8.7207 16.7285 8.51562 15.7129C8.4375 15.4004 8.24219 15.2539 7.92969 15.2539C7.59766 15.2539 7.36328 15.498 7.36328 15.8398C7.36328 15.9863 7.39258 16.1719 7.43164 16.2988C7.82227 17.6367 8.87695 18.4082 10.3711 18.4082ZM17.3828 18.0469C19.1016 18.0469 20.3223 17.0898 20.3223 15.4688C20.3223 13.9844 19.3945 13.3398 18.1543 12.7539L17.2559 12.3438C16.4062 11.9336 15.7324 11.4355 15.7324 10.5762C15.7324 9.63867 16.4355 9.16992 17.3535 9.16992C18.418 9.16992 18.8379 9.85352 18.9941 10.7715C19.0527 11.0547 19.2383 11.2305 19.5898 11.2305C19.9316 11.2305 20.1465 11.0352 20.1465 10.6738C20.1465 10.5371 20.1367 10.4395 20.1074 10.3223C19.8047 8.75977 18.6914 8.1543 17.3535 8.1543C15.8301 8.1543 14.5312 9.00391 14.5312 10.6445C14.5312 12.041 15.3613 12.7246 16.6504 13.3496L17.5293 13.7695C18.3887 14.1895 19.1016 14.6191 19.1016 15.5762C19.1016 16.5039 18.457 17.0215 17.3926 17.0215C16.2305 17.0215 15.7129 16.416 15.5762 15.3516C15.5273 15.0977 15.3223 14.8828 14.9902 14.8828C14.668 14.8828 14.4141 15.1074 14.4141 15.4492C14.4141 15.5371 14.4238 15.6543 14.4531 15.791C14.7559 17.4219 15.9863 18.0469 17.3828 18.0469ZM17.3633 19.3945C17.5391 19.3945 17.6953 19.248 17.6953 19.0723L17.6953 7.16797C17.6953 6.99219 17.5391 6.83594 17.3633 6.83594C17.1875 6.83594 17.0312 6.99219 17.0312 7.16797L17.0312 19.0723C17.0312 19.248 17.1875 19.3945 17.3633 19.3945Z" fill="black" fill-opacity="0.85"/>
 </g>
</svg>
