<?xml version="1.0" encoding="UTF-8"?>
<!--Generator: Apple Native CoreSVG 326-->
<!DOCTYPE svg
PUBLIC "-//W3C//DTD SVG 1.1//EN"
       "http://www.w3.org/Graphics/SVG/1.1/DTD/svg11.dtd">
<svg version="1.1" xmlns="http://www.w3.org/2000/svg" xmlns:xlink="http://www.w3.org/1999/xlink" viewBox="0 0 25.8008 25.459">
 <g>
  <rect height="25.459" opacity="0" width="25.8008" x="0" y="0"/>
  <path d="M25.4395 12.7246C25.4395 19.7266 19.7266 25.4395 12.7148 25.4395C5.71289 25.4395 0 19.7266 0 12.7246C0 5.71289 5.71289 0 12.7148 0C19.7266 0 25.4395 5.71289 25.4395 12.7246ZM16.0352 6.54297L16.0352 7.56836C14.6191 7.67578 13.4766 8.54492 13.4766 10.0977C13.4766 11.5332 14.3262 12.2363 15.6445 12.8809L16.0352 13.0664L16.0352 16.6016C15.1172 16.4941 14.6777 15.8789 14.5508 14.9316C14.502 14.668 14.2871 14.4434 13.9453 14.4434C13.6035 14.4434 13.3496 14.668 13.3496 15.0293C13.3496 15.1172 13.3594 15.2441 13.3789 15.3809C13.6719 16.8945 14.7559 17.5684 16.0352 17.666L16.0352 18.7207C16.0352 18.916 16.1816 19.0625 16.3672 19.0625C16.5527 19.0625 16.709 18.916 16.709 18.7207L16.709 17.6758C18.3008 17.5586 19.4043 16.6016 19.4043 15.0391C19.4043 13.5254 18.4473 12.8613 17.1777 12.2656L16.709 12.041L16.709 8.63281C17.5391 8.75977 17.9004 9.39453 18.0371 10.2246C18.1055 10.5273 18.291 10.7129 18.6426 10.7129C19.0039 10.7129 19.2285 10.498 19.2285 10.1367C19.2285 10 19.2188 9.88281 19.1895 9.76562C18.8965 8.30078 17.9199 7.66602 16.709 7.56836L16.709 6.54297C16.709 6.35742 16.5527 6.21094 16.3672 6.21094C16.1816 6.21094 16.0352 6.35742 16.0352 6.54297ZM6.24023 10.0195C6.24023 11.582 7.14844 12.4219 8.60352 12.959L9.33594 13.2324C10.332 13.6035 11.0059 14.1211 11.0059 15.1758C11.0059 16.123 10.4102 16.9434 9.22852 16.9434C8.18359 16.9434 7.51953 16.3184 7.30469 15.2832C7.22656 14.9707 7.02148 14.8145 6.69922 14.8145C6.35742 14.8145 6.12305 15.0781 6.12305 15.4297C6.12305 15.5762 6.15234 15.7617 6.20117 15.8984C6.60156 17.2656 7.67578 18.0566 9.20898 18.0566C11.2891 18.0566 12.3047 16.7578 12.3047 15.0586C12.3047 13.3008 11.25 12.6367 9.87305 12.0898L9.14062 11.8164C8.17383 11.4453 7.5293 10.9863 7.5293 9.94141C7.5293 8.99414 8.10547 8.29102 9.13086 8.29102C10.0781 8.29102 10.6738 8.85742 10.9082 9.84375C10.9863 10.1758 11.2012 10.3125 11.5137 10.3125C11.8555 10.3125 12.0605 10.0781 12.0605 9.73633C12.0605 9.63867 12.0508 9.50195 12.0215 9.38477C11.7285 8.04688 10.625 7.16797 9.15039 7.16797C7.29492 7.16797 6.24023 8.4375 6.24023 10.0195ZM18.1543 15.1562C18.1543 16.0059 17.6172 16.5234 16.709 16.6113L16.709 13.3984C17.5195 13.7891 18.1543 14.2285 18.1543 15.1562ZM16.0352 11.7188C15.2734 11.3184 14.707 10.8301 14.707 10.0293C14.707 9.18945 15.2637 8.7207 16.0352 8.62305Z" fill="black" fill-opacity="0.85"/>
 </g>
</svg>
