<?xml version="1.0" encoding="UTF-8"?>
<!--Generator: Apple Native CoreSVG 326-->
<!DOCTYPE svg
PUBLIC "-//W3C//DTD SVG 1.1//EN"
       "http://www.w3.org/Graphics/SVG/1.1/DTD/svg11.dtd">
<svg version="1.1" xmlns="http://www.w3.org/2000/svg" xmlns:xlink="http://www.w3.org/1999/xlink" viewBox="0 0 28.2081 27.8663">
 <g>
  <rect height="27.8663" opacity="0" width="28.2081" x="0" y="0"/>
  <path d="M10.1783 5.3345C11.0181 4.96341 11.9165 4.71927 12.8638 4.61185C13.1372 4.58255 13.3325 4.37747 13.3325 4.10403L13.3325 0.539582C13.3325 0.217316 13.0884-0.0268245 12.7661 0.012238C11.0572 0.148957 9.44583 0.607941 7.96146 1.31107C7.66849 1.44778 7.5806 1.77982 7.73685 2.05325L9.51419 5.11966C9.64114 5.3638 9.91458 5.44193 10.1783 5.3345Z" fill="black" fill-opacity="0.85"/>
  <path d="M6.37942 8.35208C6.93606 7.60989 7.59036 6.94583 8.34231 6.37943C8.57669 6.21341 8.62552 5.93997 8.4888 5.7056L6.72122 2.64896C6.56497 2.36575 6.23294 2.28763 5.9595 2.47318C4.59231 3.43021 3.41067 4.61185 2.47317 5.97903C2.28763 6.25247 2.35599 6.57474 2.63919 6.74075L5.71536 8.49857C5.94974 8.64505 6.21341 8.58646 6.37942 8.35208Z" fill="black" fill-opacity="0.85"/>
  <path d="M4.60208 12.8736C4.7095 11.9263 4.95364 11.0279 5.31497 10.1978C5.43216 9.94388 5.35403 9.67044 5.10989 9.53372L2.03372 7.76614C1.75052 7.60013 1.42825 7.69778 1.29153 7.99075C0.607939 9.46536 0.148955 11.0669 0.00247065 12.7661C-0.00729498 13.0982 0.217314 13.3423 0.53958 13.3423L4.10403 13.3423C4.37747 13.3423 4.57278 13.147 4.60208 12.8736Z" fill="black" fill-opacity="0.85"/>
  <path d="M5.31497 17.6783C4.96341 16.8482 4.71927 15.94 4.60208 14.9829C4.58255 14.7095 4.36771 14.5142 4.10403 14.5142L0.53958 14.5142C0.207549 14.5142-0.0268262 14.7583 0.00247065 15.0806C0.139189 16.7993 0.598174 18.4204 1.3013 19.8951C1.43802 20.188 1.76028 20.2954 2.04349 20.1294L5.10989 18.3423C5.35403 18.2056 5.44192 17.9322 5.31497 17.6783Z" fill="black" fill-opacity="0.85"/>
  <path d="M8.35208 21.4868C7.60989 20.9302 6.93606 20.2759 6.38919 19.5142C6.22317 19.2993 5.94974 19.231 5.7056 19.3775L2.64896 21.1353C2.36575 21.3013 2.28763 21.6236 2.46341 21.897C3.41067 23.2642 4.60208 24.4361 5.96927 25.3931C6.24271 25.5884 6.57474 25.5005 6.73099 25.2173L8.4888 22.1509C8.62552 21.9165 8.57669 21.6529 8.35208 21.4868Z" fill="black" fill-opacity="0.85"/>
  <path d="M12.8638 23.2544C11.9263 23.1568 11.0279 22.9029 10.188 22.5415C9.93411 22.4243 9.66067 22.5122 9.52396 22.7466L7.75638 25.813C7.60013 26.0865 7.68802 26.4283 7.98099 26.565C9.4556 27.2583 11.0572 27.7173 12.7564 27.8638C13.0884 27.8833 13.3325 27.649 13.3325 27.3267L13.3325 23.7622C13.3325 23.4888 13.1372 23.2837 12.8638 23.2544Z" fill="black" fill-opacity="0.85"/>
  <path d="M17.6685 22.5415C16.8384 22.9029 15.94 23.147 14.9829 23.2544C14.7095 23.2837 14.5142 23.4888 14.5142 23.7622L14.5142 27.3365C14.5142 27.6587 14.7583 27.8931 15.0806 27.8638C16.7798 27.7271 18.4107 27.2583 19.8853 26.565C20.1783 26.4283 20.2661 26.0865 20.1099 25.813L18.3325 22.7466C18.1958 22.5122 17.9224 22.4243 17.6685 22.5415Z" fill="black" fill-opacity="0.85"/>
  <path d="M21.4771 19.5142C20.9204 20.2564 20.2564 20.9107 19.5044 21.4868C19.2798 21.6529 19.2115 21.9263 19.3482 22.1509L21.1255 25.2076C21.2818 25.4908 21.6138 25.5884 21.8872 25.3931C23.2544 24.4361 24.4263 23.2544 25.3833 21.897C25.5689 21.6236 25.481 21.3013 25.2075 21.1353L22.1411 19.3579C21.9068 19.2212 21.6431 19.2896 21.4771 19.5142Z" fill="black" fill-opacity="0.85"/>
  <path d="M23.2544 14.9829C23.147 15.94 22.9029 16.8482 22.522 17.6783C22.4243 17.9322 22.5025 18.1958 22.7466 18.3326L25.8033 20.1001C26.0962 20.2661 26.4185 20.1783 26.5552 19.8755C27.2486 18.4009 27.6978 16.7896 27.8443 15.0904C27.8638 14.7583 27.6294 14.5142 27.3072 14.5142L23.7525 14.5142C23.479 14.5142 23.274 14.7095 23.2544 14.9829Z" fill="black" fill-opacity="0.85"/>
  <path d="M22.522 10.188C22.8833 11.0279 23.147 11.9361 23.2447 12.8736C23.274 13.147 23.479 13.3423 23.7525 13.3423L27.3169 13.3423C27.6392 13.3423 27.8638 13.0982 27.8443 12.7759C27.7075 11.0767 27.2486 9.44583 26.5552 7.98099C26.4185 7.68802 26.0865 7.59036 25.8033 7.75638L22.7271 9.54349C22.4927 9.68021 22.4243 9.93411 22.522 10.188Z" fill="black" fill-opacity="0.85"/>
  <path d="M19.5044 6.38919C20.2564 6.94583 20.9107 7.60013 21.4771 8.35208C21.6431 8.57669 21.9068 8.64505 22.1411 8.50833L25.1978 6.74075C25.4908 6.57474 25.5689 6.25247 25.3931 5.97903C24.4361 4.61185 23.2447 3.43021 21.8872 2.47318C21.6236 2.28763 21.2818 2.36575 21.1255 2.64896L19.3579 5.7056C19.2212 5.94974 19.2798 6.22318 19.5044 6.38919Z" fill="black" fill-opacity="0.85"/>
  <path d="M14.9829 4.61185C15.94 4.69974 16.8286 4.96341 17.6685 5.3345C17.9224 5.44193 18.1958 5.35403 18.3325 5.11966L20.1099 2.05325C20.2661 1.77982 20.1587 1.44778 19.8658 1.31107C18.3911 0.617707 16.7896 0.148957 15.0806 0.012238C14.7583-0.00729321 14.5142 0.217316 14.5142 0.539582L14.5142 4.10403C14.5142 4.37747 14.7095 4.58255 14.9829 4.61185Z" fill="black" fill-opacity="0.85"/>
  <path d="M10.4908 19.1333C12.5122 19.1333 13.5083 17.8638 13.5083 16.2036C13.5083 14.4947 12.4829 13.8404 11.1353 13.313L10.4224 13.0396C9.47513 12.6783 8.85013 12.229 8.85013 11.2036C8.85013 10.2759 9.40677 9.59232 10.4126 9.59232C11.3404 9.59232 11.9361 10.149 12.1509 11.1158C12.229 11.4283 12.4341 11.565 12.7368 11.565C13.0689 11.565 13.274 11.3404 13.274 11.0083C13.274 10.9107 13.2642 10.774 13.2349 10.6665C12.9419 9.35794 11.8677 8.50833 10.4322 8.50833C8.62552 8.50833 7.59036 9.7388 7.59036 11.2915C7.59036 12.8052 8.47903 13.6255 9.90481 14.1529L10.6177 14.4165C11.5943 14.7779 12.2486 15.2857 12.2486 16.3208C12.2486 17.2486 11.6724 18.0396 10.5103 18.0396C9.48489 18.0396 8.8306 17.4439 8.62552 16.4283C8.55716 16.1255 8.36185 15.9693 8.04935 15.9693C7.71731 15.9693 7.48294 16.2134 7.48294 16.565C7.48294 16.7115 7.51224 16.8872 7.5513 17.024C7.94192 18.3618 8.99661 19.1333 10.4908 19.1333ZM17.5025 18.772C19.2212 18.772 20.4322 17.8052 20.4322 16.1939C20.4322 14.7095 19.5044 14.065 18.2642 13.479L17.3755 13.0591C16.5259 12.649 15.8521 12.1607 15.8521 11.2915C15.8521 10.354 16.5454 9.88528 17.4732 9.88528C18.5376 9.88528 18.9575 10.5689 19.1138 11.4868C19.1724 11.7798 19.3482 11.9556 19.6997 11.9556C20.0513 11.9556 20.2661 11.7505 20.2661 11.399C20.2661 11.2622 20.2564 11.1548 20.2271 11.0376C19.9243 9.47513 18.8013 8.87943 17.4732 8.87943C15.94 8.87943 14.6509 9.72903 14.6509 11.3697C14.6509 12.7564 15.481 13.4497 16.77 14.0747L17.649 14.4947C18.5083 14.9048 19.2212 15.3345 19.2212 16.3013C19.2212 17.2193 18.5767 17.7466 17.5122 17.7466C16.3501 17.7466 15.8325 17.1314 15.6958 16.0767C15.647 15.8228 15.4419 15.6079 15.1099 15.6079C14.7779 15.6079 14.5337 15.8228 14.5337 16.1743C14.5337 16.2622 14.5435 16.3794 14.563 16.5161C14.8755 18.1372 16.106 18.772 17.5025 18.772ZM17.4732 20.1197C17.6587 20.1197 17.8052 19.9634 17.8052 19.7876L17.8052 7.8931C17.8052 7.70755 17.6587 7.56107 17.4732 7.56107C17.2974 7.56107 17.1509 7.70755 17.1509 7.8931L17.1509 19.7876C17.1509 19.9634 17.2974 20.1197 17.4732 20.1197Z" fill="black" fill-opacity="0.85"/>
 </g>
</svg>
