<?xml version="1.0" encoding="UTF-8"?>
<!--Generator: Apple Native CoreSVG 326-->
<!DOCTYPE svg
PUBLIC "-//W3C//DTD SVG 1.1//EN"
       "http://www.w3.org/Graphics/SVG/1.1/DTD/svg11.dtd">
<svg version="1.1" xmlns="http://www.w3.org/2000/svg" xmlns:xlink="http://www.w3.org/1999/xlink" viewBox="0 0 28.291 27.9395">
 <g>
  <rect height="27.9395" opacity="0" width="28.291" x="0" y="0"/>
  <path d="M13.9648 27.9297C21.6406 27.9297 27.9297 21.6504 27.9297 13.9648C27.9297 6.2793 21.6406 0 13.9648 0C6.28906 0 0 6.2793 0 13.9648C0 21.6504 6.28906 27.9297 13.9648 27.9297ZM13.9648 23.3398C8.7793 23.3398 4.58008 19.1504 4.58008 13.9648C4.58008 8.7793 8.7793 4.58008 13.9648 4.58008C19.1504 4.58008 23.3496 8.7793 23.3496 13.9648C23.3496 19.1504 19.1504 23.3398 13.9648 23.3398Z" fill="black" fill-opacity="0.85"/>
  <path d="M10.5371 19.1699C12.5684 19.1699 13.5547 17.9004 13.5547 16.2402C13.5547 14.5312 12.5293 13.877 11.1914 13.3496L10.4785 13.0762C9.53125 12.7148 8.89648 12.2656 8.89648 11.2402C8.89648 10.3125 9.46289 9.62891 10.4688 9.62891C11.3965 9.62891 11.9824 10.1855 12.1973 11.1523C12.2852 11.4648 12.4902 11.6016 12.793 11.6016C13.125 11.6016 13.3301 11.377 13.3301 11.0449C13.3301 10.9473 13.3105 10.8105 13.291 10.7031C12.9883 9.39453 11.9238 8.54492 10.4883 8.54492C8.68164 8.54492 7.64648 9.77539 7.64648 11.3281C7.64648 12.8418 8.53516 13.6621 9.96094 14.1895L10.6738 14.4531C11.6406 14.8145 12.3047 15.3223 12.3047 16.3574C12.3047 17.2852 11.7188 18.0762 10.5664 18.0762C9.54102 18.0762 8.88672 17.4805 8.68164 16.4648C8.60352 16.1621 8.4082 16.0059 8.0957 16.0059C7.76367 16.0059 7.53906 16.25 7.53906 16.6016C7.53906 16.748 7.55859 16.9238 7.60742 17.0605C7.98828 18.3984 9.05273 19.1699 10.5371 19.1699ZM17.5488 18.8086C19.2773 18.8086 20.4883 17.8418 20.4883 16.2305C20.4883 14.7461 19.5605 14.1016 18.3203 13.5156L17.4316 13.0957C16.5723 12.6855 15.8984 12.1973 15.8984 11.3281C15.8984 10.3906 16.6016 9.92188 17.5195 9.92188C18.584 9.92188 19.0039 10.6055 19.1699 11.5234C19.2188 11.8164 19.4043 11.9922 19.7559 11.9922C20.0977 11.9922 20.3125 11.7871 20.3125 11.4355C20.3125 11.2988 20.3027 11.1914 20.2832 11.0742C19.9707 9.51172 18.8574 8.91602 17.5195 8.91602C15.9961 8.91602 14.6973 9.76562 14.6973 11.4062C14.6973 12.793 15.5273 13.4863 16.8262 14.1113L17.6953 14.5312C18.5645 14.9414 19.2773 15.3711 19.2773 16.3379C19.2773 17.2559 18.623 17.7832 17.5586 17.7832C16.4062 17.7832 15.8887 17.168 15.7422 16.1133C15.7031 15.8594 15.4883 15.6445 15.166 15.6445C14.834 15.6445 14.5801 15.8594 14.5801 16.2109C14.5801 16.2988 14.5898 16.416 14.6191 16.5527C14.9219 18.1738 16.1523 18.8086 17.5488 18.8086ZM17.5293 20.1562C17.7051 20.1562 17.8613 20 17.8613 19.8242L17.8613 7.92969C17.8613 7.74414 17.7051 7.59766 17.5293 7.59766C17.3535 7.59766 17.1973 7.74414 17.1973 7.92969L17.1973 19.8242C17.1973 20 17.3535 20.1562 17.5293 20.1562Z" fill="black" fill-opacity="0.85"/>
 </g>
</svg>
