<?xml version="1.0" encoding="UTF-8"?>
<!--Generator: Apple Native CoreSVG 326-->
<!DOCTYPE svg
PUBLIC "-//W3C//DTD SVG 1.1//EN"
       "http://www.w3.org/Graphics/SVG/1.1/DTD/svg11.dtd">
<svg version="1.1" xmlns="http://www.w3.org/2000/svg" xmlns:xlink="http://www.w3.org/1999/xlink" viewBox="0 0 25.7617 23.7793">
 <g>
  <rect height="23.7793" opacity="0" width="25.7617" x="0" y="0"/>
  <path d="M11.7188 13.1934L13.4473 13.1934L13.4473 3.32031C13.4473 2.35352 14.0625 1.73828 15.0195 1.73828C15.9863 1.73828 16.6016 2.35352 16.6016 3.32031L16.6016 5.25391C16.6016 5.72266 17.002 6.11328 17.4707 6.11328C17.9395 6.11328 18.3398 5.72266 18.3398 5.25391L18.3398 3.32031C18.3398 1.31836 17.0215 0 15.0195 0C13.0273 0 11.7188 1.31836 11.7188 3.32031ZM8.27148 13.1934L9.69727 13.1934L9.69727 10.1562C9.69727 9.51172 9.30664 9.12109 8.66211 9.12109L5.21484 9.12109C4.82422 9.12109 4.50195 9.44336 4.50195 9.84375C4.50195 10.2344 4.82422 10.5566 5.21484 10.5566L7.96875 10.5566C8.16406 10.5566 8.27148 10.6641 8.27148 10.8496ZM15.459 13.1934L16.8945 13.1934L16.8945 10.8496C16.8945 10.6641 17.002 10.5566 17.1875 10.5566L19.9512 10.5566C20.3418 10.5566 20.6641 10.2344 20.6641 9.84375C20.6641 9.44336 20.3418 9.12109 19.9512 9.12109L16.5039 9.12109C15.8594 9.12109 15.459 9.51172 15.459 10.1562ZM0.869141 14.2578L1.26953 14.2578L1.26953 18.4375C1.26953 21.8457 3.32031 23.7402 7.00195 23.7402L18.3984 23.7402C22.0801 23.7402 24.1406 21.8457 24.1406 18.4375L24.1406 14.2578L24.541 14.2578C25.0098 14.2578 25.4004 13.8672 25.4004 13.3984C25.4004 12.9199 25.0098 12.5293 24.541 12.5293L0.869141 12.5293C0.390625 12.5293 0 12.9199 0 13.3984C0 13.8672 0.390625 14.2578 0.869141 14.2578Z" fill="black" fill-opacity="0.85"/>
 </g>
</svg>
