<?xml version="1.0" encoding="UTF-8"?>
<!--Generator: Apple Native CoreSVG 326-->
<!DOCTYPE svg
PUBLIC "-//W3C//DTD SVG 1.1//EN"
       "http://www.w3.org/Graphics/SVG/1.1/DTD/svg11.dtd">
<svg version="1.1" xmlns="http://www.w3.org/2000/svg" xmlns:xlink="http://www.w3.org/1999/xlink" viewBox="0 0 27.2803 26.9409">
 <g>
  <rect height="26.9409" opacity="0" width="27.2803" x="0" y="0"/>
  <path d="M1.82373 25.0867C4.24561 27.5281 7.93701 27.5476 10.3589 25.1257L25.0952 10.3894C27.5366 7.948 27.5366 4.24683 25.0952 1.82495C22.6733-0.606688 18.9624-0.606688 16.5405 1.81519L1.82373 16.532C-0.60791 18.9636-0.60791 22.6648 1.82373 25.0867ZM3.04443 23.866C1.33545 22.157 1.33545 19.4714 3.04443 17.7527L17.7612 3.03589C19.4702 1.32691 22.1655 1.33667 23.8745 3.04566C25.5835 4.75464 25.5835 7.44019 23.8745 9.1687L9.12842 23.8953C7.43896 25.5945 4.75342 25.575 3.04443 23.866ZM12.4097 4.06128L12.7808 4.43237C13.1812 4.83277 13.7964 4.83277 14.2065 4.43237L16.4136 2.21558C16.8335 1.80542 16.8335 1.19995 16.4136 0.789797L16.0522 0.418703C15.6519 0.0183124 15.0269 0.0183124 14.6167 0.428469L12.4097 2.6355C11.9995 3.03589 11.9995 3.66089 12.4097 4.06128ZM22.478 14.1296L22.8491 14.5007C23.2593 14.9011 23.8647 14.9011 24.2749 14.5007L26.4819 12.2742C26.9019 11.8738 26.9019 11.2683 26.4819 10.8582L26.1401 10.4871C25.73 10.0867 25.1147 10.0867 24.7144 10.4871L22.478 12.7039C22.0679 13.114 22.0776 13.7292 22.478 14.1296ZM0.515137 15.946L0.88623 16.3269C1.30615 16.7273 1.90186 16.7273 2.31201 16.3269L4.52881 14.1101C4.9292 13.7 4.9292 13.0945 4.52881 12.6746L4.15771 12.323C3.74756 11.9128 3.14209 11.9128 2.73193 12.323L0.524902 14.5203C0.114746 14.9207 0.114746 15.5457 0.515137 15.946ZM10.5835 26.0339L10.9546 26.3953C11.3745 26.8054 11.9702 26.8054 12.3804 26.405L14.5972 24.1882C14.9976 23.7683 14.9976 23.1628 14.5972 22.7527L14.2261 22.3914C13.8257 21.9812 13.2104 21.9812 12.8003 22.3914L10.5835 24.6082C10.1831 25.0085 10.1831 25.6335 10.5835 26.0339ZM18.8354 5.95581C19.1675 6.28784 19.7241 6.28784 20.0562 5.95581C20.3882 5.61402 20.3882 5.07691 20.0562 4.74487C19.7241 4.40308 19.1772 4.40308 18.8354 4.74487C18.5034 5.07691 18.5034 5.62378 18.8354 5.95581ZM20.9644 8.07495C21.2866 8.40698 21.8335 8.40698 22.1655 8.07495C22.5073 7.74292 22.5073 7.18628 22.1655 6.85425C21.8335 6.52222 21.2866 6.52222 20.9644 6.85425C20.6226 7.18628 20.6226 7.74292 20.9644 8.07495ZM16.7261 8.06519C17.0679 8.39722 17.605 8.39722 17.9468 8.06519C18.269 7.73316 18.269 7.17652 17.9468 6.84448C17.6147 6.52222 17.0679 6.52222 16.7358 6.84448C16.4038 7.18628 16.4038 7.73316 16.7261 8.06519ZM18.8452 10.1746C19.1772 10.5164 19.7339 10.5164 20.0659 10.1746C20.3979 9.8523 20.3979 9.29566 20.0659 8.96362C19.7339 8.62183 19.1772 8.62183 18.8452 8.96362C18.5034 9.29566 18.5034 9.8523 18.8452 10.1746ZM6.94092 17.8503C7.28271 18.1921 7.81982 18.1921 8.16162 17.8503C8.48389 17.5183 8.48389 16.9617 8.16162 16.6394C7.82959 16.3074 7.28271 16.3074 6.95068 16.6394C6.60889 16.9714 6.60889 17.5183 6.94092 17.8503ZM9.06006 19.9597C9.39209 20.3015 9.93896 20.3015 10.2808 19.9597C10.6128 19.6277 10.6128 19.0906 10.2808 18.739C9.93896 18.407 9.39209 18.407 9.06006 18.739C8.72803 19.0906 8.72803 19.6277 9.06006 19.9597ZM4.83154 19.9597C5.16357 20.2917 5.72021 20.2917 6.05225 19.9597C6.38428 19.6179 6.38428 19.0808 6.05225 18.739C5.72021 18.407 5.17334 18.407 4.83154 18.739C4.49951 19.0808 4.49951 19.6277 4.83154 19.9597ZM6.96045 22.0789C7.28271 22.4109 7.82959 22.4109 8.16162 22.0789C8.50342 21.7468 8.50342 21.1902 8.16162 20.8582C7.82959 20.5261 7.28271 20.5261 6.96045 20.8582C6.61865 21.1902 6.61865 21.7468 6.96045 22.0789Z" fill="black" fill-opacity="0.85"/>
 </g>
</svg>
