<?xml version="1.0" encoding="UTF-8"?>
<!--Generator: Apple Native CoreSVG 326-->
<!DOCTYPE svg
PUBLIC "-//W3C//DTD SVG 1.1//EN"
       "http://www.w3.org/Graphics/SVG/1.1/DTD/svg11.dtd">
<svg version="1.1" xmlns="http://www.w3.org/2000/svg" xmlns:xlink="http://www.w3.org/1999/xlink" viewBox="0 0 27.2803 26.9409">
 <g>
  <rect height="26.9409" opacity="0" width="27.2803" x="0" y="0"/>
  <path d="M1.82373 25.0867C4.24561 27.5281 7.93701 27.5476 10.3589 25.1257L25.0952 10.3894C27.5366 7.948 27.5366 4.24683 25.0952 1.82495C22.6733-0.606688 18.9624-0.606688 16.5405 1.81519L1.82373 16.532C-0.60791 18.9636-0.60791 22.6648 1.82373 25.0867ZM18.8159 5.91675C18.4741 5.57495 18.4741 5.01831 18.8159 4.67652C19.1675 4.32495 19.7339 4.32495 20.0757 4.67652C20.4175 5.01831 20.4175 5.56519 20.0757 5.91675C19.7339 6.25855 19.1577 6.25855 18.8159 5.91675ZM21.0034 8.09448C20.6519 7.75269 20.6519 7.17652 21.0034 6.83472C21.3354 6.49292 21.8921 6.49292 22.2339 6.83472C22.5854 7.17652 22.5854 7.75269 22.2339 8.09448C21.8921 8.43628 21.3354 8.43628 21.0034 8.09448ZM16.6577 8.08472C16.3257 7.74292 16.3257 7.17652 16.6675 6.82495C17.0093 6.49292 17.5659 6.49292 17.9077 6.82495C18.2397 7.16675 18.2397 7.74292 17.9077 8.08472C17.5562 8.42652 17.0093 8.42652 16.6577 8.08472ZM18.8257 10.2429C18.4741 9.91089 18.4741 9.34448 18.8257 9.00269C19.1675 8.65112 19.7437 8.65112 20.0854 9.00269C20.4272 9.34448 20.4272 9.91089 20.0854 10.2429C19.7437 10.5945 19.1675 10.5945 18.8257 10.2429ZM6.92139 17.8113C6.57959 17.4695 6.57959 16.9128 6.93115 16.5613C7.27295 16.2292 7.83936 16.2292 8.18115 16.5613C8.51318 16.9031 8.51318 17.4695 8.18115 17.8113C7.82959 18.1628 7.27295 18.1628 6.92139 17.8113ZM9.09912 19.9792C8.75732 19.6375 8.75732 19.0808 9.09912 18.7195C9.44092 18.3777 10.0073 18.3777 10.3491 18.7195C10.6909 19.0808 10.6909 19.6375 10.3491 19.9792C10.0073 20.3308 9.44092 20.3308 9.09912 19.9792ZM4.76318 19.9792C4.42139 19.6375 4.42139 19.071 4.76318 18.7195C5.11475 18.3777 5.67139 18.3777 6.01318 18.7195C6.35498 19.071 6.35498 19.6277 6.01318 19.9792C5.67139 20.321 5.10498 20.321 4.76318 19.9792ZM6.94092 22.1472C6.58936 21.8054 6.58936 21.239 6.94092 20.8972C7.27295 20.5554 7.83936 20.5554 8.18115 20.8972C8.53271 21.239 8.53271 21.8054 8.18115 22.1472C7.83936 22.489 7.27295 22.489 6.94092 22.1472ZM12.4097 4.06128L12.7808 4.43237C13.1812 4.83277 13.7964 4.83277 14.2065 4.43237L16.4136 2.21558C16.8335 1.80542 16.8335 1.19995 16.4136 0.789797L16.0522 0.418703C15.6519 0.0183124 15.0269 0.0183124 14.6167 0.428469L12.4097 2.6355C11.9995 3.03589 11.9995 3.66089 12.4097 4.06128ZM22.478 14.1296L22.8491 14.5007C23.2593 14.9011 23.8647 14.9011 24.2749 14.5007L26.4819 12.2742C26.9019 11.8738 26.9019 11.2683 26.4819 10.8582L26.1401 10.4871C25.73 10.0867 25.1147 10.0867 24.7144 10.4871L22.478 12.7039C22.0679 13.114 22.0776 13.7292 22.478 14.1296ZM0.515137 15.946L0.88623 16.3269C1.30615 16.7273 1.90186 16.7273 2.31201 16.3269L4.52881 14.1101C4.9292 13.7 4.9292 13.0945 4.52881 12.6746L4.15771 12.323C3.74756 11.9128 3.14209 11.9128 2.73193 12.323L0.524902 14.5203C0.114746 14.9207 0.114746 15.5457 0.515137 15.946ZM10.5835 26.0339L10.9546 26.3953C11.3745 26.8054 11.9702 26.8054 12.3804 26.405L14.5972 24.1882C14.9976 23.7683 14.9976 23.1628 14.5972 22.7527L14.2261 22.3914C13.8257 21.9812 13.2104 21.9812 12.8003 22.3914L10.5835 24.6082C10.1831 25.0085 10.1831 25.6335 10.5835 26.0339Z" fill="black" fill-opacity="0.85"/>
 </g>
</svg>
