<?xml version="1.0" encoding="UTF-8"?>
<!--Generator: Apple Native CoreSVG 326-->
<!DOCTYPE svg
PUBLIC "-//W3C//DTD SVG 1.1//EN"
       "http://www.w3.org/Graphics/SVG/1.1/DTD/svg11.dtd">
<svg version="1.1" xmlns="http://www.w3.org/2000/svg" xmlns:xlink="http://www.w3.org/1999/xlink" viewBox="0 0 34.0259 33.6768">
 <g>
  <rect height="33.6768" opacity="0" width="34.0259" x="0" y="0"/>
  <path d="M1.2024 19.7729C-0.408933 21.3745-0.389401 23.855 1.19263 25.4565C2.78443 27.0288 5.2649 27.0386 6.86646 25.437L25.4407 6.87256C27.0422 5.271 27.0325 2.78076 25.4602 1.18896C23.8586-0.393066 21.3782-0.402832 19.7766 1.19873ZM2.3645 20.9448L20.9387 2.36084C21.8958 1.41357 23.3704 1.40381 24.2883 2.35107C25.2258 3.27881 25.2258 4.75342 24.2688 5.70068L5.70435 24.2749C4.74732 25.2222 3.27271 25.2319 2.35474 24.2847C1.40747 23.3667 1.41724 21.8921 2.3645 20.9448ZM12.9211 12.5464L14.1028 13.7183C14.4446 14.0503 14.9524 14.0601 15.2747 13.7183C15.6067 13.4058 15.6067 12.8882 15.2747 12.5562L14.0833 11.3745C13.761 11.0522 13.2434 11.0425 12.9211 11.3745C12.5891 11.687 12.5793 12.2144 12.9211 12.5464ZM9.13208 16.3159L10.3235 17.5171C10.6458 17.8491 11.1633 17.8296 11.4954 17.5171C11.8176 17.1948 11.8274 16.6772 11.4954 16.3452L10.304 15.1538C9.98169 14.8315 9.45435 14.8315 9.13208 15.1538C8.80982 15.4858 8.81958 15.9937 9.13208 16.3159ZM8.22388 26.7944C6.62232 28.396 6.63208 30.8765 8.20435 32.4683C9.80591 34.0503 12.2864 34.0698 13.8879 32.4585L32.4622 13.8843C34.0637 12.2827 34.054 9.81201 32.4719 8.20068C30.8801 6.63818 28.3997 6.61865 26.7883 8.22021ZM9.38599 27.9565L27.9602 9.39209C28.9075 8.43506 30.3821 8.43506 31.3098 9.37256C32.2571 10.2905 32.2473 11.7651 31.3001 12.7222L12.7161 31.2964C11.7688 32.2437 10.2942 32.2534 9.37622 31.3062C8.42896 30.3882 8.43872 28.9136 9.38599 27.9565ZM19.9426 19.5679L21.1243 20.73C21.4563 21.062 21.9739 21.062 22.2961 20.73C22.6282 20.4272 22.6184 19.8999 22.2961 19.5776L21.1145 18.3862C20.7922 18.064 20.2649 18.0444 19.9426 18.3862C19.6106 18.6987 19.6008 19.2358 19.9426 19.5679ZM16.1536 23.3374L17.345 24.5386C17.6672 24.8706 18.1848 24.8511 18.5168 24.5386C18.8391 24.2163 18.8489 23.689 18.5168 23.3569L17.3254 22.1655C17.0032 21.853 16.4758 21.853 16.1536 22.1655C15.8313 22.4976 15.8411 23.0151 16.1536 23.3374Z" fill="black" fill-opacity="0.85"/>
 </g>
</svg>
