<?xml version="1.0" ?><!-- Generator: Adobe Illustrator 25.0.0, SVG Export Plug-In . SVG Version: 6.00 Build 0)  --><svg xmlns="http://www.w3.org/2000/svg" xmlns:xlink="http://www.w3.org/1999/xlink" version="1.1" id="Layer_1" x="0px" y="0px" viewBox="0 0 512 512" style="enable-background:new 0 0 512 512;" xml:space="preserve">
<path d="M256,512c140,0,256-116.2,256-256C512,116,395.8,0,255.7,0C116,0,0,116,0,256C0,395.8,116.2,512,256,512z M165.9,368.4  c-12.5,0-21.1-9.8-21.1-21.6c0-6,3-12.3,8.8-18.3L327,152.6c5.5-5.8,11.5-8.8,17.8-8.8c12,0,21.8,9.5,21.8,21.8  c0,5.8-3.3,12.3-8.8,17.8L184.2,359.7C178.4,365.4,173.2,368.4,165.9,368.4z"/>
</svg>