<?xml version="1.0" ?><!-- Generator: Adobe Illustrator 25.0.0, SVG Export Plug-In . SVG Version: 6.00 Build 0)  --><svg xmlns="http://www.w3.org/2000/svg" xmlns:xlink="http://www.w3.org/1999/xlink" version="1.1" id="Layer_1" x="0px" y="0px" viewBox="0 0 512 512" style="enable-background:new 0 0 512 512;" xml:space="preserve">
<path d="M256,512c140,0,256-116.2,256-256C512,116,395.8,0,255.7,0C116,0,0,116,0,256C0,395.8,116.2,512,256,512z M42.9,256  c0-118.5,94.4-213.3,212.8-213.3S469.1,137.5,469.3,256c0,27.6-5,54.2-14.6,78.3H57.5C48.2,310.2,42.9,283.6,42.9,256z M256,469.3  c-75.3,0-141.1-38.4-178.9-97.1h358.1C397.3,430.9,331.3,469.3,256,469.3z"/>
</svg>