<?xml version="1.0" ?><!-- Generator: Adobe Illustrator 25.0.0, SVG Export Plug-In . SVG Version: 6.00 Build 0)  --><svg xmlns="http://www.w3.org/2000/svg" xmlns:xlink="http://www.w3.org/1999/xlink" version="1.1" id="Layer_1" x="0px" y="0px" viewBox="0 0 512 512" style="enable-background:new 0 0 512 512;" xml:space="preserve">
<path d="M256,502.2c12.6,0,22.7-10.1,22.7-22.7V236.1c25.7-9.2,44.5-34.1,44.5-63.2c0-29.1-18.7-54-44.5-63.2V31.3  c0-11.5-10.1-21.5-22.7-21.5s-22.4,10.1-22.4,21.5v78.1c-26.3,9.5-45,34.4-45,63.5c0,29.1,18.7,54,45,63.2v243.4  C233.6,492.1,243.4,502.2,256,502.2z M377.7,334.6c0,29.1,18.5,54,44.5,63.2v82.8c0,11.5,10.1,21.5,22.7,21.5  c12.6,0,22.4-10.1,22.4-21.5v-82.8c26-9.2,44.8-34.1,44.8-63.2c0-29.1-18.7-54.3-44.8-63.5V32.5c0-12.6-9.8-22.7-22.4-22.7  c-12.6,0-22.7,10.1-22.7,22.7v238.9C396.2,280.6,377.7,305.5,377.7,334.6z M67.4,502.2c12.6,0,22.4-10.1,22.4-21.5v-82.8  c26-9.2,44.8-34.1,44.8-63.2c0-29.1-18.7-54-44.8-63.2V32.5c0-12.6-9.8-22.7-22.4-22.7c-12.6,0-22.7,10.1-22.7,22.7v238.7  C18.7,280.6,0,305.5,0,334.6c0,29.1,18.7,54,44.8,63.2v82.8C44.8,492.1,54.8,502.2,67.4,502.2z M223.3,172.9  c0-18.2,14.5-32.7,32.7-32.7c18.5,0,32.7,14.5,32.7,32.7c0,18.5-14.3,32.7-32.7,32.7C237.8,205.6,223.3,191.4,223.3,172.9z   M412.1,334.6c0-18.5,14.5-32.7,32.7-32.7c18.7,0,32.7,14.3,32.7,32.7c0,18.5-14,32.7-32.7,32.7  C426.7,367.4,412.1,353.1,412.1,334.6z M34.4,334.6c0-18.5,14.5-32.7,33-32.7c18.5,0,32.7,14.3,32.7,32.7  c0,18.5-14.3,32.7-32.7,32.7C49,367.4,34.4,353.1,34.4,334.6z"/>
</svg>