<?xml version="1.0" encoding="UTF-8"?>
<!--Generator: Apple Native CoreSVG 326-->
<!DOCTYPE svg
PUBLIC "-//W3C//DTD SVG 1.1//EN"
       "http://www.w3.org/Graphics/SVG/1.1/DTD/svg11.dtd">
<svg version="1.1" xmlns="http://www.w3.org/2000/svg" xmlns:xlink="http://www.w3.org/1999/xlink" viewBox="0 0 45.9615 32.1387">
 <g>
  <rect height="32.1387" opacity="0" width="45.9615" x="0" y="0"/>
  <path d="M37.595 8.35938L37.595 16.4401C37.3135 16.403 37.0262 16.3867 36.7356 16.3867C36.4387 16.3867 36.1453 16.4038 35.8567 16.4384L35.8567 8.44727C35.8567 7.05078 35.095 6.31836 33.7571 6.31836L11.8431 6.31836C10.4759 6.31836 9.73368 7.05078 9.73368 8.44727L9.73368 23.6914C9.73368 25.0977 10.4759 25.8203 11.8431 25.8203L27.5722 25.8203C27.7633 26.5779 28.3854 27.1927 29.2845 27.3242L29.4895 27.334C29.5207 27.407 29.553 27.4794 29.5908 27.5488L11.804 27.5488C9.28446 27.5488 8.00516 26.2891 8.00516 23.7891L8.00516 8.35938C8.00516 5.85938 9.28446 4.58984 11.804 4.58984L33.7864 4.58984C36.3157 4.58984 37.595 5.86914 37.595 8.35938ZM21.3812 16.6992L32.8098 16.6992C33.1013 16.6992 33.3513 16.8699 33.4651 17.1176C32.8777 17.3885 32.3313 17.732 31.8379 18.1348L21.3843 18.1348C21.0758 19.1428 20.1282 19.873 19.011 19.873C17.9098 19.873 16.9716 19.1428 16.6661 18.1348L12.761 18.1348C12.3997 18.1348 12.0774 17.8125 12.0774 17.4219C12.0774 17.0215 12.3997 16.6992 12.761 16.6992L16.6683 16.6992C16.9758 15.6954 17.906 14.9512 19.011 14.9512C20.124 14.9512 21.0687 15.6954 21.3812 16.6992ZM17.6927 17.4219C17.6927 18.1738 18.2688 18.75 19.011 18.75C19.7727 18.75 20.3489 18.1641 20.3489 17.4219C20.3489 16.6602 19.7727 16.084 19.011 16.084C18.2688 16.084 17.6927 16.6602 17.6927 17.4219ZM29.0043 10.3613L32.8294 10.3613C33.2005 10.3613 33.5227 10.6836 33.5227 11.0742C33.5227 11.4746 33.2005 11.7969 32.8294 11.7969L28.9965 11.7969C28.6818 12.7975 27.7404 13.5254 26.638 13.5254C25.5355 13.5254 24.607 12.7975 24.2971 11.7969L12.7903 11.7969C12.3997 11.7969 12.0774 11.4746 12.0774 11.0742C12.0774 10.6836 12.3997 10.3613 12.7903 10.3613L24.2912 10.3613C24.5943 9.35026 25.5342 8.60352 26.638 8.60352C27.751 8.60352 28.6998 9.34541 29.0043 10.3613ZM25.3196 11.0547C25.3196 11.8066 25.886 12.4023 26.638 12.4023C27.3997 12.4023 27.9759 11.8066 27.9759 11.0547C27.9759 10.3223 27.3997 9.73633 26.638 9.73633C25.886 9.73633 25.3196 10.3027 25.3196 11.0547Z" fill="black" fill-opacity="0.85"/>
  <path d="M40.6907 27.1875C39.802 28.4082 38.3567 29.209 36.7356 29.209C34.0306 29.209 31.7942 26.9727 31.7942 24.2676L30.427 24.2676C30.427 27.7246 33.2786 30.5762 36.7356 30.5762C38.7669 30.5762 40.5833 29.5996 41.7161 28.0957C42.3509 27.3145 41.2571 26.4648 40.6907 27.1875ZM30.7493 22.793L29.2259 24.873C28.8841 25.332 29.1184 25.8105 29.7044 25.8105L32.8587 25.8105C33.4446 25.8105 33.6985 25.3027 33.347 24.873L31.7259 22.793C31.4329 22.4316 31.0325 22.4219 30.7493 22.793ZM32.7903 21.3379C33.679 20.1172 35.1243 19.3164 36.7356 19.3164C39.4505 19.3164 41.6868 21.5527 41.6868 24.2676L43.054 24.2676C43.054 20.8008 40.2024 17.9492 36.7356 17.9492C34.7141 17.9492 32.8977 18.9355 31.7649 20.4297C31.1302 21.2207 32.2141 22.0605 32.7903 21.3379ZM42.7317 25.7324L44.2454 23.6523C44.597 23.2031 44.3626 22.7246 43.7766 22.7246L40.6223 22.7246C40.0364 22.7246 39.7825 23.2324 40.1341 23.6523L41.7552 25.7324C42.0481 26.1035 42.4485 26.1133 42.7317 25.7324Z" fill="black" fill-opacity="0.85"/>
 </g>
</svg>
