<?xml version="1.0" encoding="UTF-8"?>
<!--Generator: Apple Native CoreSVG 326-->
<!DOCTYPE svg
PUBLIC "-//W3C//DTD SVG 1.1//EN"
       "http://www.w3.org/Graphics/SVG/1.1/DTD/svg11.dtd">
<svg version="1.1" xmlns="http://www.w3.org/2000/svg" xmlns:xlink="http://www.w3.org/1999/xlink" viewBox="0 0 24.1797 23.7402">
 <g>
  <rect height="23.7402" opacity="0" width="24.1797" x="0" y="0"/>
  <path d="M16.6211 23.4961C18.2227 23.4961 19.5312 22.1875 19.5312 20.5957C19.5312 18.9941 18.2227 17.6855 16.6211 17.6855C15.0293 17.6855 13.7207 18.9941 13.7207 20.5957C13.7207 22.1875 15.0293 23.4961 16.6211 23.4961ZM16.6211 22.1094C15.7715 22.1094 15.1074 21.4355 15.1074 20.5859C15.1074 19.7266 15.7715 19.0625 16.6211 19.0625C17.4805 19.0625 18.1445 19.7266 18.1445 20.5859C18.1445 21.4355 17.4805 22.1094 16.6211 22.1094ZM14.6094 19.7266L0.869141 19.7266C0.380859 19.7266 0 20.1074 0 20.5957C0 21.0742 0.380859 21.4551 0.869141 21.4551L14.6094 21.4551ZM22.998 19.7266L18.7793 19.7266L18.7793 21.4551L22.998 21.4551C23.4375 21.4551 23.8184 21.0742 23.8184 20.5957C23.8184 20.1074 23.4375 19.7266 22.998 19.7266Z" fill="black" fill-opacity="0.85"/>
  <path d="M3.58398 15.7812L20.2344 15.7812C22.5879 15.7812 23.8184 14.5996 23.8184 12.2363L23.8184 3.53516C23.8184 1.18164 22.5879 0 20.2344 0L3.58398 0C1.33789 0 0 1.18164 0 3.53516L0 12.2363C0 14.5996 1.23047 15.7812 3.58398 15.7812ZM3.56445 14.1602C2.34375 14.1602 1.72852 13.5449 1.72852 12.3242L1.72852 3.45703C1.72852 2.22656 2.34375 1.61133 3.56445 1.61133L20.2539 1.61133C21.4844 1.61133 22.0898 2.22656 22.0898 3.45703L22.0898 12.3242C22.0898 13.5449 21.4844 14.1602 20.2539 14.1602Z" fill="black" fill-opacity="0.85"/>
 </g>
</svg>
