<?xml version="1.0" encoding="UTF-8"?>
<!--Generator: Apple Native CoreSVG 326-->
<!DOCTYPE svg
PUBLIC "-//W3C//DTD SVG 1.1//EN"
       "http://www.w3.org/Graphics/SVG/1.1/DTD/svg11.dtd">
<svg version="1.1" xmlns="http://www.w3.org/2000/svg" xmlns:xlink="http://www.w3.org/1999/xlink" viewBox="0 0 25.8008 30.311">
 <g>
  <rect height="30.311" opacity="0" width="25.8008" x="0" y="0"/>
  <path d="M12.7148 27.8655C19.7363 27.8655 25.4395 22.1721 25.4395 15.1506C25.4395 8.92016 20.9375 3.74438 15.0781 2.6604L15.0781 0.795162C15.0781 0.00414614 14.5312-0.220463 13.8965 0.228756L9.95117 3.00219C9.41406 3.38305 9.42383 3.92016 9.95117 4.28149L13.9062 7.05493C14.5312 7.49438 15.0781 7.27954 15.0781 6.48852L15.0781 4.5061C19.9512 5.58032 23.6133 9.91626 23.6133 15.1506C23.6133 21.176 18.7402 26.0491 12.7148 26.0491C6.68945 26.0491 1.81641 21.176 1.81641 15.1506C1.81641 11.4104 3.71094 8.11938 6.5625 6.18579C7.00195 5.85376 7.13867 5.34594 6.86523 4.89672C6.61133 4.46704 5.99609 4.34008 5.51758 4.69165C2.1875 6.98657 0 10.7854 0 15.1506C0 22.1721 5.69336 27.8655 12.7148 27.8655Z" fill="black" fill-opacity="0.85"/>
  <path d="M6.44531 13.0998L13.1445 13.0998L13.1445 11.6545L6.44531 11.6545C6.03516 11.6545 5.71289 11.9768 5.71289 12.3772C5.71289 12.7776 6.03516 13.0998 6.44531 13.0998ZM14.9902 14.8967C16.3867 14.8967 17.5195 13.7639 17.5195 12.3577C17.5195 10.9709 16.3867 9.82836 14.9902 9.82836C13.6035 9.82836 12.4609 10.9709 12.4609 12.3577C12.4609 13.7639 13.6035 14.8967 14.9902 14.8967ZM14.9902 13.7151C14.2285 13.7151 13.6523 13.1194 13.6523 12.3577C13.6523 11.5959 14.2285 11.01 14.9902 11.01C15.7422 11.01 16.3379 11.5959 16.3379 12.3577C16.3379 13.1194 15.7422 13.7151 14.9902 13.7151ZM16.748 13.0998L19.0234 13.0998C19.4043 13.0998 19.7266 12.7776 19.7266 12.3772C19.7266 11.9768 19.4043 11.6545 19.0234 11.6545L16.748 11.6545ZM6.40625 19.8479L8.68164 19.8479L8.68164 18.4026L6.40625 18.4026C6.03516 18.4026 5.71289 18.7248 5.71289 19.1155C5.71289 19.5256 6.03516 19.8479 6.40625 19.8479ZM10.4395 21.6448C11.8457 21.6448 12.9785 20.5022 12.9785 19.1057C12.9785 17.719 11.8457 16.5764 10.4395 16.5764C9.05273 16.5764 7.91016 17.719 7.91016 19.1057C7.91016 20.5022 9.05273 21.6448 10.4395 21.6448ZM10.4395 20.4631C9.6875 20.4631 9.10156 19.8577 9.10156 19.0959C9.10156 18.3342 9.6875 17.7581 10.4395 17.7581C11.2012 17.7581 11.7969 18.3342 11.7969 19.0959C11.7969 19.8577 11.2012 20.4631 10.4395 20.4631ZM12.2949 19.8479L18.9844 19.8479C19.4043 19.8479 19.7266 19.5256 19.7266 19.1155C19.7266 18.7248 19.4043 18.4026 18.9844 18.4026L12.2949 18.4026Z" fill="black" fill-opacity="0.85"/>
 </g>
</svg>
