<?xml version="1.0" ?><!-- Generator: Adobe Illustrator 25.0.0, SVG Export Plug-In . SVG Version: 6.00 Build 0)  --><svg xmlns="http://www.w3.org/2000/svg" xmlns:xlink="http://www.w3.org/1999/xlink" version="1.1" id="Layer_1" x="0px" y="0px" viewBox="0 0 512 512" style="enable-background:new 0 0 512 512;" xml:space="preserve">
<path d="M347.1,161.9c26.4,0,48.8-17,57.4-40.4h87.9c10.4,0,19.6-9.1,19.6-20.6c0-11.4-9.1-20.3-19.6-20.3h-87.9  c-8.4-23.6-31-40.9-57.4-40.9c-26.4,0-49.3,17.3-57.7,40.9H20.3C8.9,80.5,0,89.4,0,100.9c0,11.4,8.9,20.6,20.3,20.6h269.3  C298.1,144.8,320.7,161.9,347.1,161.9z M347.1,130.6c-16.8,0-29.7-13.2-29.7-30c0-16.8,13-29.7,29.7-29.7c16.8,0,29.7,13,29.7,29.7  C376.8,117.4,363.9,130.6,347.1,130.6z M19.3,235.5C8.9,235.5,0,244.7,0,256.1c0,11.4,8.9,20.3,19.3,20.3h91  c8.4,23.9,31,40.9,57.4,40.9c26.4,0,49-17,57.7-40.9h266c11.4,0,20.6-8.9,20.6-20.3c0-11.4-9.1-20.6-20.6-20.6H225.1  c-8.4-23.4-31-40.4-57.4-40.4c-26.4,0-49,17-57.4,40.4H19.3z M167.7,285.9c-16.5,0-29.7-13.2-29.7-29.7c0-16.8,13.2-29.7,29.7-29.7  c16.8,0,29.7,13,29.7,29.7C197.4,272.6,184.5,285.9,167.7,285.9z M347.1,472.4c26.4,0,49-17,57.4-40.7h87.9  c10.4,0,19.6-8.9,19.6-20.3c0-11.4-9.1-20.6-19.6-20.6h-87.9c-8.4-23.6-31-40.4-57.4-40.4c-26.4,0-49,16.8-57.4,40.4H20.3  C8.9,390.8,0,399.9,0,411.4c0,11.4,8.9,20.3,20.3,20.3h269.1C298.1,455.3,320.7,472.4,347.1,472.4z M347.1,441.1  c-16.8,0-29.7-13.2-29.7-29.7c0-17,13-29.7,29.7-29.7c16.8,0,29.7,12.7,29.7,29.7C376.8,427.9,363.9,441.1,347.1,441.1z"/>
</svg>