<?xml version="1.0" ?><!-- Generator: Adobe Illustrator 25.0.0, SVG Export Plug-In . SVG Version: 6.00 Build 0)  --><svg xmlns="http://www.w3.org/2000/svg" xmlns:xlink="http://www.w3.org/1999/xlink" version="1.1" id="Layer_1" x="0px" y="0px" viewBox="0 0 512 512" style="enable-background:new 0 0 512 512;" xml:space="preserve">
<path d="M256,512c140,0,256-116.2,256-256C512,116,395.8,0,255.7,0C116,0,0,116,0,256C0,395.8,116.2,512,256,512z M255.7,355.1  c-54.5,0-99.4-44.4-99.4-99.4c0-54.2,44.9-98.6,99.4-98.6c54.2,0,99.1,44.4,99.1,98.6C354.9,310.7,310,355.1,255.7,355.1z   M256,314.2c31.4,0,57.5-26.4,57.5-58.5c0-31.4-26.1-57.5-57.5-57.5c-31.6,0-58,26.1-58,57.5C198,287.9,224.1,314.2,256,314.2z"/>
</svg>