<?xml version="1.0" ?><!-- Generator: Adobe Illustrator 25.0.0, SVG Export Plug-In . SVG Version: 6.00 Build 0)  --><svg xmlns="http://www.w3.org/2000/svg" xmlns:xlink="http://www.w3.org/1999/xlink" version="1.1" id="Layer_1" x="0px" y="0px" viewBox="0 0 512 512" style="enable-background:new 0 0 512 512;" xml:space="preserve">
<path d="M61.8,330c11.3-39.6,38.5-63.8,75.8-71.3c15.6-48.2,56.1-72.2,102.9-72.2c5.2,0,10,0.5,14.7,1.1  c18.3-26.9,46.6-40.3,82.6-39.8c-7.2-19.5-28.7-36.2-62.7-36.2c-10,0-18.1,1.8-26.7,4.5c-18.6-26.9-48-43.7-81.4-43.7  c-52,0-95.3,41.4-98,93c-39.8,8.1-69,42.3-69,83.7C0,286.3,22.6,318.2,61.8,330z M161.8,439.5h261.8c52.9,0,88.5-37.6,88.5-84.8  c0-41.4-29.4-75.8-69-83.7c-2.7-51.4-45-93.2-97.3-93.2c-34.2,0-64,17.2-82.1,43.7c-8.8-2.9-17.2-4.3-26.5-4.3  c-40.7,0-73.8,29.4-79.6,68.8c-42.1,1.6-75.3,35.5-75.3,76.9C82.1,405.6,114,439.5,161.8,439.5z"/>
</svg>