<?xml version="1.0" encoding="UTF-8"?>
<!--Generator: Apple Native CoreSVG 326-->
<!DOCTYPE svg
PUBLIC "-//W3C//DTD SVG 1.1//EN"
       "http://www.w3.org/Graphics/SVG/1.1/DTD/svg11.dtd">
<svg version="1.1" xmlns="http://www.w3.org/2000/svg" xmlns:xlink="http://www.w3.org/1999/xlink" viewBox="0 0 22.4461 25.2832">
 <g>
  <rect height="25.2832" opacity="0" width="22.4461" x="0" y="0"/>
  <path d="M11.0424 25.2539C11.5111 25.2539 11.7943 24.9316 11.7943 24.4531L11.7943 21.4258L14.1967 22.8027C14.5971 23.0273 15.0072 22.9883 15.2416 22.5977C15.4369 22.2559 15.3197 21.8457 14.8998 21.6113L11.7943 19.8438L11.7943 18.0176L11.5893 13.5938L15.3295 15.9766L16.9213 16.8848L16.9018 20.459C16.9018 20.9375 17.1947 21.2598 17.5854 21.2598C18.0346 21.2598 18.269 20.9277 18.269 20.459L18.2787 17.666L20.9154 19.1992C21.3354 19.4434 21.7455 19.3359 21.9701 18.9453C22.185 18.5449 22.058 18.125 21.6674 17.9004L19.0307 16.3867L21.4525 14.9609C21.8432 14.7266 22.0092 14.3555 21.7846 13.9844C21.56 13.6328 21.1596 13.5352 20.7592 13.7695L17.6537 15.5859L16.0717 14.6777L12.0775 12.6367L16.0815 10.5957L17.6635 9.66797L20.7397 11.4844C21.1498 11.7188 21.5893 11.6309 21.7943 11.2793C22.0092 10.8984 21.8334 10.5273 21.4428 10.2832L19.0404 8.87695L21.6674 7.37305C22.0873 7.12891 22.2045 6.72852 21.9701 6.30859C21.7553 5.92773 21.3354 5.83008 20.9252 6.07422L18.2787 7.58789L18.269 4.79492C18.269 4.32617 18.0346 4.00391 17.5756 4.00391C17.185 4.00391 16.9018 4.31641 16.9018 4.79492L16.9115 8.37891L15.3295 9.28711L11.5893 11.6797L11.7943 7.24609L11.7943 5.41016L14.8998 3.64258C15.3197 3.4082 15.4369 2.99805 15.2416 2.65625C15.0072 2.26562 14.5971 2.22656 14.1967 2.45117L11.7943 3.82812L11.7943 0.800781C11.7943 0.322266 11.5111 0 11.0424 0C10.5932 0 10.3002 0.322266 10.3002 0.800781L10.3002 3.83789L7.8588 2.45117C7.45841 2.22656 7.06778 2.26562 6.83341 2.65625C6.64786 2.99805 6.77481 3.4082 7.17521 3.64258L10.3002 5.41992L10.3002 7.24609L10.5053 11.6797L6.75528 9.28711L5.16349 8.37891L5.18302 4.79492C5.18302 4.31641 4.90958 4.00391 4.50919 4.00391C4.05021 4.00391 3.8256 4.32617 3.8256 4.79492L3.80606 7.58789L1.16935 6.07422C0.75919 5.84961 0.329502 5.92773 0.114658 6.30859C-0.119717 6.72852 0.0170021 7.13867 0.417393 7.37305L3.04435 8.87695L0.642002 10.2832C0.241611 10.5273 0.0755958 10.8691 0.300205 11.2891C0.495518 11.6309 0.925205 11.7188 1.34513 11.4844L4.43106 9.67773L6.00333 10.5957L10.0072 12.6367L6.0131 14.6777L4.4213 15.5859L1.33536 13.7695C0.925205 13.5352 0.505283 13.6328 0.319736 13.9648C0.0951271 14.3848 0.241611 14.7266 0.642002 14.9609L3.05411 16.3867L0.427158 17.9004C0.0170021 18.1348-0.109951 18.5645 0.114658 18.9453C0.349033 19.3457 0.768955 19.4238 1.16935 19.1992L3.80606 17.6855L3.81583 20.459C3.81583 20.9277 4.05021 21.2598 4.50919 21.2598C4.89005 21.2598 5.18302 20.9375 5.18302 20.459L5.17325 16.8848L6.75528 15.9863L10.5053 13.5938L10.3002 18.0176L10.3002 19.834L7.17521 21.6113C6.77481 21.8457 6.64786 22.2559 6.83341 22.5977C7.06778 22.9883 7.45841 23.0273 7.8588 22.8027L10.3002 21.416L10.3002 24.4531C10.3002 24.9316 10.5932 25.2539 11.0424 25.2539Z" fill="black" fill-opacity="0.85"/>
 </g>
</svg>
