<?xml version="1.0" ?><!-- Generator: Adobe Illustrator 25.0.0, SVG Export Plug-In . SVG Version: 6.00 Build 0)  --><svg xmlns="http://www.w3.org/2000/svg" xmlns:xlink="http://www.w3.org/1999/xlink" version="1.1" id="Layer_1" x="0px" y="0px" viewBox="0 0 512 512" style="enable-background:new 0 0 512 512;" xml:space="preserve">
<path d="M256.1,512c5.6,0,9.9-1.7,13-5.2c3.1-3.5,4.7-8,4.7-13.5v-54.9l43.6,24.8c4.6,2.5,9.1,3.5,13.5,2.8  c4.5-0.7,8.1-3.3,10.8-7.8c2.2-3.9,2.6-8,1.3-12.4c-1.4-4.4-4.4-7.9-9.1-10.6l-60-34.2v-32.2l-5.1-90.4l76.2,49.4l28.1,16l-0.5,69.1  c-0.2,5.6,1.3,10.1,4.4,13.5c3.1,3.5,6.9,5.2,11.3,5.2c5.4,0,9.5-1.8,12.3-5.3c2.8-3.5,4.2-8,4.2-13.4l0.3-50.6l47.9,27.9  c4.9,2.9,9.6,3.8,14.1,2.7c4.5-1.1,8-3.9,10.5-8.5c2.7-4.7,3.4-9.4,2.2-14.1c-1.3-4.6-4.3-8.2-9-10.8l-47.9-27.6l43.6-25.6  c4.6-2.9,7.7-6.3,9.4-10.4c1.7-4.1,1.2-8.4-1.5-12.9c-2.5-4.1-6-6.5-10.5-7.5c-4.5-0.9-9,0-13.5,2.7L390.5,313l-28.1-16l-81.8-41  l82-41l27.6-16.2l59.5,34.9c4.7,2.7,9.4,3.6,14.1,2.7c4.6-0.9,8.1-3.3,10.5-7.2c2.5-4.6,3-8.9,1.3-13c-1.7-4.1-4.8-7.6-9.4-10.5  l-43.6-25.3l47.9-27.6c4.9-2.9,8-6.5,9.2-10.9c1.3-4.4,0.5-9-2.2-13.9c-2.7-4.6-6.3-7.4-10.8-8.5c-4.5-1.1-9.1-0.2-13.8,2.7  l-48.1,27.3L404.4,99c0-5.4-1.4-9.8-4.1-13.3c-2.7-3.5-6.7-5.2-11.9-5.2c-4.7,0-8.6,1.7-11.6,5.2c-3,3.5-4.5,7.9-4.3,13.3l0.3,68.9  l-27.9,16.2l-76.2,49.6l5.1-90.7v-32.2l60-33.9c4.7-2.9,7.8-6.5,9.1-10.8c1.4-4.3,0.9-8.5-1.3-12.5c-2.7-4.6-6.3-7.2-10.8-7.8  c-4.5-0.7-9,0.3-13.5,3l-43.6,24.8V18.5c0-5.4-1.6-9.8-4.7-13.3c-3.1-3.5-7.5-5.2-13-5.2c-5.2,0-9.5,1.7-12.7,5.2  c-3.2,3.5-4.8,7.9-4.8,13.3v55.2l-44.3-24.8c-4.7-2.7-9.2-3.7-13.4-3c-4.2,0.7-7.8,3.3-10.6,7.8c-2.2,4.1-2.6,8.2-1.1,12.5  c1.4,4.3,4.5,7.8,9.2,10.5l60.3,34.2v32.2l4.8,90.7l-76.2-49.6l-28.1-16.2l0.5-68.9c0.2-5.4-1.3-9.8-4.3-13.3  c-3-3.5-6.8-5.2-11.4-5.2c-5.6,0-9.7,1.7-12.4,5.2c-2.7,3.5-4.1,7.9-4.1,13.3l-0.3,50.4L59.1,122c-4.6-2.7-9.2-3.5-13.8-2.5  c-4.6,1-8.2,3.8-10.8,8.4c-2.9,4.9-3.6,9.6-2.2,14.1c1.4,4.5,4.5,8.1,9.2,10.8l47.6,27.6l-43.3,25.3c-4.6,2.9-7.7,6.3-9.4,10.3  c-1.7,4-1.3,8.4,1.3,13.3c2.2,4.1,5.6,6.5,10.3,7.3c4.6,0.8,9.4-0.1,14.3-2.8l59.3-34.7l27.9,16l81.8,41l-81.8,41l-27.9,16.2  L62.1,278c-4.7-2.7-9.3-3.6-13.8-2.7c-4.5,0.9-7.8,3.3-10,7.2c-2.7,4.9-3.2,9.3-1.6,13.3c1.6,4,4.7,7.4,9.2,10.3l43.6,25.6  l-47.9,27.6c-4.7,2.7-7.8,6.3-9.1,10.9c-1.4,4.6-0.7,9.1,2,13.7c2.7,4.9,6.3,7.8,10.9,8.7c4.6,0.9,9.1,0,13.7-2.7l48.1-27.3  l0.3,50.1c0,5.4,1.4,9.9,4.1,13.4c2.7,3.5,6.8,5.3,12.2,5.3c4.6,0,8.4-1.7,11.5-5.2c3.1-3.5,4.6-8,4.4-13.5l-0.3-69.1l27.9-15.7  l76.2-49.6l-4.8,90.4v32.2L178.3,435c-4.7,2.7-7.8,6.2-9.2,10.6c-1.4,4.4-1.1,8.5,1.1,12.4c2.9,4.6,6.4,7.2,10.6,7.8  c4.2,0.7,8.7-0.3,13.4-2.8l44.3-25.1v55.2c0,5.6,1.6,10.1,4.8,13.5C246.6,510.3,250.8,512,256.1,512z" class="multicolor-0:white SFSymbolsPreviewFFFFFF" style="fill: #FFFFFF;"/>
</svg>