<?xml version="1.0" ?><!-- Generator: Adobe Illustrator 25.0.0, SVG Export Plug-In . SVG Version: 6.00 Build 0)  --><svg xmlns="http://www.w3.org/2000/svg" xmlns:xlink="http://www.w3.org/1999/xlink" version="1.1" id="Layer_1" x="0px" y="0px" viewBox="0 0 512 512" style="enable-background:new 0 0 512 512;" xml:space="preserve">
<path d="M256.1,512c11.1,0,17.7-7.6,17.7-18.7v-54.9l43.6,24.8c9.4,5.1,19,4.3,24.3-5.1c4.6-7.8,1.8-17.7-7.8-23l-60-33.9v-32.2  l-5.3-90.7l76.5,49.4l28.1,16.2l-0.5,68.9c-0.3,11.1,6.8,18.7,15.7,18.7c10.9,0,16.5-7.8,16.5-18.7l0.3-50.6l47.9,27.9  c9.9,5.8,19.2,3.3,24.6-5.8c5.3-9.6,2.5-19.5-6.8-24.8l-47.9-27.6l43.6-25.6c9.1-5.6,13.2-14.2,7.8-23c-5.1-8.4-14.7-10.4-24.1-5.1  l-59.5,35.2L362.4,297l-81.8-41l82-41l27.6-16.2l59.5,34.9c9.4,5.6,19.8,3.5,24.6-4.6c5.1-9.1,1-18-8.1-23.5l-43.6-25.3l47.9-27.6  c9.6-5.6,12.4-14.9,7.1-24.8c-5.3-8.9-15.2-11.6-24.6-5.8l-48.1,27.3L404.4,99c0-10.6-5.3-18.5-16-18.5c-9.4,0-16.2,7.6-16,18.5  l0.3,69.1l-27.9,16L268.5,234l5.3-90.9v-32.2l60-33.9c9.6-5.6,12.4-15.2,7.8-23.3c-5.3-9.1-14.9-10.1-24.3-4.8l-43.6,24.8V18.7  c0-11.1-6.6-18.7-17.7-18.7c-10.6,0-17.5,7.6-17.5,18.7v54.9l-44.3-24.8c-9.4-5.3-18.5-4.3-24.1,4.8c-4.6,8.1-1.5,17.7,8.1,23.3  l60.3,33.9v32.2l5.1,90.9l-76.5-49.9l-28.1-16l0.5-69.1c0.3-10.9-6.6-18.5-15.7-18.5c-10.9,0-16.5,7.8-16.5,18.5l-0.3,50.4L59.1,122  c-9.1-5.6-19.5-3-24.6,5.8c-5.6,9.9-2.5,19.5,7.1,24.8l47.6,27.6l-43.3,25.3c-9.1,5.6-13.2,13.9-8.1,23.5  c4.6,8.1,14.9,10.1,24.6,4.6l59.3-34.7l27.9,16l81.8,41l-81.8,41l-27.9,16.2L62.1,278c-9.4-5.3-19.5-3.3-23.8,4.6  c-5.3,9.9-1.5,18,7.6,23.5l43.6,25.6l-47.9,27.6c-9.4,5.3-12.4,15.7-7.1,24.8c5.6,9.4,15.4,11.4,24.6,5.8l48.1-27.3l0.3,50.1  c0,10.9,5.6,18.7,16.2,18.7c9.1,0,16.2-7.6,16-18.7l-0.3-68.9l27.9-16l76.5-49.6l-5.1,90.7v31.9L178.3,435  c-9.6,5.6-12.7,15.2-8.1,23c5.6,9.4,14.7,10.1,24.1,5.1l44.3-24.8v54.9C238.6,504.4,245.4,512,256.1,512z"/>
</svg>