<?xml version="1.0" encoding="UTF-8"?>
<!--Generator: Apple Native CoreSVG 326-->
<!DOCTYPE svg
PUBLIC "-//W3C//DTD SVG 1.1//EN"
       "http://www.w3.org/Graphics/SVG/1.1/DTD/svg11.dtd">
<svg version="1.1" xmlns="http://www.w3.org/2000/svg" xmlns:xlink="http://www.w3.org/1999/xlink" viewBox="0 0 25.8008 25.459">
 <g>
  <rect height="25.459" opacity="0" width="25.8008" x="0" y="0"/>
  <path d="M12.7148 25.4395C19.7363 25.4395 25.4395 19.7461 25.4395 12.7246C25.4395 5.70312 19.7363 0 12.7148 0C5.69336 0 0 5.70312 0 12.7246C0 19.7461 5.69336 25.4395 12.7148 25.4395ZM12.7148 23.623C6.68945 23.623 1.81641 18.75 1.81641 12.7246C1.81641 6.69922 6.68945 1.82617 12.7148 1.82617C18.7402 1.82617 23.6133 6.69922 23.6133 12.7246C23.6133 18.75 18.7402 23.623 12.7148 23.623Z" fill="black" fill-opacity="0.85"/>
  <path d="M6.79688 16.9043C8.37891 16.9043 9.32617 15.957 9.32617 14.5215C9.32617 13.3398 8.84766 12.793 7.54883 12.0898L7.06055 11.8359C6.31836 11.4355 6.08398 11.1523 6.08398 10.6738C6.08398 10.2539 6.37695 9.96094 6.79688 9.96094C7.24609 9.96094 7.48047 10.2539 7.57812 10.8301C7.60742 10.9961 7.68555 11.0742 7.8418 11.0742L8.94531 11.0742C9.10156 11.0742 9.20898 10.9766 9.20898 10.8105C9.17969 9.46289 8.4082 8.49609 6.79688 8.49609C5.25391 8.49609 4.3457 9.45312 4.3457 10.8496C4.3457 12.0117 4.83398 12.6758 6.06445 13.3203L6.54297 13.5742C7.33398 13.9844 7.58789 14.209 7.58789 14.6973C7.58789 15.2051 7.35352 15.4395 6.82617 15.4395C6.28906 15.4395 6.00586 15.1465 5.9375 14.541C5.9082 14.3848 5.82031 14.3066 5.68359 14.3066L4.50195 14.3066C4.3457 14.3066 4.22852 14.4238 4.23828 14.5898C4.26758 16.0449 5.13672 16.9043 6.79688 16.9043ZM12.7148 16.9043C14.6094 16.9043 15.6152 15.4883 15.6152 12.7246C15.6152 9.9707 14.6191 8.49609 12.7148 8.49609C10.8008 8.49609 9.81445 9.9707 9.81445 12.7246C9.81445 15.4883 10.8105 16.9043 12.7148 16.9043ZM12.7148 15.3809C11.9727 15.3809 11.6016 14.5996 11.6016 12.7246C11.6016 10.8398 11.9727 10.0488 12.7148 10.0488C13.4375 10.0488 13.7988 10.8398 13.7988 12.7246C13.7988 14.5996 13.4375 15.3809 12.7148 15.3809ZM18.6621 16.9043C20.2441 16.9043 21.1816 15.957 21.1816 14.5215C21.1816 13.3398 20.7129 12.793 19.4141 12.0898L18.916 11.8359C18.1738 11.4355 17.9395 11.1523 17.9395 10.6738C17.9395 10.2539 18.2422 9.96094 18.6621 9.96094C19.1016 9.96094 19.3359 10.2539 19.4336 10.8301C19.4727 10.9961 19.541 11.0742 19.6875 11.0742L20.8008 11.0742C20.957 11.0742 21.0742 10.9766 21.0742 10.8105C21.0352 9.46289 20.2637 8.49609 18.6621 8.49609C17.1094 8.49609 16.2012 9.45312 16.2012 10.8496C16.2012 12.0117 16.6992 12.666 17.9199 13.3203L18.3984 13.5742C19.1895 13.9941 19.4336 14.209 19.4336 14.6973C19.4336 15.2051 19.209 15.4395 18.6816 15.4395C18.1445 15.4395 17.8711 15.1465 17.793 14.541C17.7637 14.3848 17.6758 14.3066 17.5391 14.3066L16.3574 14.3066C16.2012 14.3066 16.084 14.4238 16.084 14.5898C16.123 16.0449 16.9922 16.9043 18.6621 16.9043Z" fill="black" fill-opacity="0.85"/>
 </g>
</svg>
