<?xml version="1.0" encoding="UTF-8"?>
<!--Generator: Apple Native CoreSVG 326-->
<!DOCTYPE svg
PUBLIC "-//W3C//DTD SVG 1.1//EN"
       "http://www.w3.org/Graphics/SVG/1.1/DTD/svg11.dtd">
<svg version="1.1" xmlns="http://www.w3.org/2000/svg" xmlns:xlink="http://www.w3.org/1999/xlink" viewBox="0 0 30.0488 15.2832">
 <g>
  <rect height="15.2832" opacity="0" width="30.0488" x="0" y="0"/>
  <path d="M0 12.793C0 14.3164 0.888672 15.2832 2.5 15.2832L27.1875 15.2832C28.7988 15.2832 29.6875 14.3164 29.6875 12.793L29.6875 8.48633C29.6875 7.99805 29.2871 7.59766 28.7891 7.59766C28.3008 7.59766 27.9004 7.99805 27.9004 8.48633L27.9004 12.7539C27.9004 13.252 27.5293 13.6133 27.0312 13.6133L2.65625 13.6133C2.14844 13.6133 1.78711 13.2617 1.78711 12.7539L1.78711 8.48633C1.78711 7.99805 1.38672 7.59766 0.898438 7.59766C0.400391 7.59766 0 7.99805 0 8.48633Z" fill="black" fill-opacity="0.85"/>
 </g>
</svg>
