<?xml version="1.0" encoding="UTF-8"?>
<!--Generator: Apple Native CoreSVG 326-->
<!DOCTYPE svg
PUBLIC "-//W3C//DTD SVG 1.1//EN"
       "http://www.w3.org/Graphics/SVG/1.1/DTD/svg11.dtd">
<svg version="1.1" xmlns="http://www.w3.org/2000/svg" xmlns:xlink="http://www.w3.org/1999/xlink" viewBox="0 0 30.9473 31.5918">
 <g>
  <rect height="31.5918" opacity="0" width="30.9473" x="0" y="0"/>
  <path d="M23.2553 3.47656L7.34027 3.47656C7.40286 2.59177 7.97731 2.08008 8.91602 2.08008L21.6699 2.08008C22.6086 2.08008 23.1917 2.59177 23.2553 3.47656Z" fill="black" fill-opacity="0.85"/>
  <path d="M25.7757 6.89437C25.4256 6.84087 25.0548 6.81641 24.668 6.81641L5.91797 6.81641C5.53106 6.81641 5.16024 6.84065 4.81033 6.89376C4.94314 5.85538 5.65863 5.27344 6.80664 5.27344L23.7793 5.27344C24.9275 5.27344 25.6431 5.85561 25.7757 6.89437Z" fill="black" fill-opacity="0.85"/>
  <path d="M28.4668 12.6953L28.4668 25.7129C28.4668 28.2031 27.1875 29.4824 24.668 29.4824L5.91797 29.4824C3.38867 29.4824 2.11914 28.2129 2.11914 25.7129L2.11914 12.6953C2.11914 10.1953 3.38867 8.93555 5.91797 8.93555L24.668 8.93555C27.1875 8.93555 28.4668 10.2051 28.4668 12.6953ZM10.293 21.1133C9.95117 22.9492 10.0879 23.1152 7.95898 23.4375C7.80273 23.457 7.70508 23.584 7.70508 23.7402C7.70508 23.916 7.80273 24.0137 7.97852 24.043C10.0879 24.3359 9.95117 24.502 10.293 26.3574C10.3418 26.5234 10.4395 26.6309 10.6055 26.6309C10.7617 26.6309 10.8691 26.5332 10.9082 26.3867C11.2402 24.502 11.1328 24.3359 13.252 24.043C13.4082 24.0137 13.5156 23.8867 13.5156 23.7402C13.5156 23.584 13.4082 23.457 13.252 23.4375C11.1426 23.1152 11.2402 22.9492 10.9082 21.1133C10.8691 20.9473 10.7715 20.8301 10.6055 20.8301C10.4492 20.8301 10.3418 20.9375 10.293 21.1133ZM15.293 12.959C14.5801 17.0508 14.2578 17.6074 10.1172 18.1641C9.87305 18.1934 9.72656 18.3691 9.72656 18.5742C9.72656 18.8086 9.87305 18.9746 10.1172 19.0039C14.2773 19.3164 14.7266 20.1465 15.293 24.1992C15.332 24.4238 15.4883 24.5801 15.7324 24.5801C15.9473 24.5801 16.1035 24.4238 16.1523 24.209C16.8457 20.1465 17.1875 19.5508 21.3477 19.0039C21.5723 18.9746 21.7285 18.8086 21.7285 18.5742C21.7285 18.3691 21.5723 18.1934 21.3477 18.1641C17.1973 17.6074 16.748 16.9922 16.1523 12.9688C16.1133 12.7441 15.9473 12.5879 15.7324 12.5879C15.5078 12.5879 15.3516 12.7344 15.293 12.959Z" fill="black" fill-opacity="0.85"/>
 </g>
</svg>
