<?xml version="1.0" encoding="UTF-8"?>
<!--Generator: Apple Native CoreSVG 326-->
<!DOCTYPE svg
PUBLIC "-//W3C//DTD SVG 1.1//EN"
       "http://www.w3.org/Graphics/SVG/1.1/DTD/svg11.dtd">
<svg version="1.1" xmlns="http://www.w3.org/2000/svg" xmlns:xlink="http://www.w3.org/1999/xlink" viewBox="0 0 31.3477 24.6191">
 <g>
  <rect height="24.6191" opacity="0" width="31.3477" x="0" y="0"/>
  <path d="M3.05664 20.6055L27.9395 20.6055C29.8438 20.6055 30.9863 19.4629 30.9863 17.5586L30.9863 3.04688C30.9863 1.14258 29.8438 0 27.9395 0L3.05664 0C1.15234 0 0 1.14258 0 3.04688L0 17.5586C0 19.4629 1.15234 20.6055 3.05664 20.6055ZM3.08594 18.877C2.23633 18.877 1.72852 18.3789 1.72852 17.5293L1.72852 3.08594C1.72852 2.22656 2.23633 1.72852 3.08594 1.72852L27.9004 1.72852C28.75 1.72852 29.2578 2.22656 29.2578 3.08594L29.2578 17.5293C29.2578 18.3789 28.75 18.877 27.9004 18.877ZM9.24805 24.6094L21.748 24.6094C22.2266 24.6094 22.6172 24.2188 22.6172 23.7402C22.6172 23.252 22.2266 22.8613 21.748 22.8613L9.24805 22.8613C8.75977 22.8613 8.36914 23.252 8.36914 23.7402C8.36914 24.2188 8.75977 24.6094 9.24805 24.6094Z" fill="black" fill-opacity="0.85"/>
  <path d="M16.1133 15.5762C16.3281 15.5762 16.4746 15.4199 16.5137 15.2148C17.1973 11.2305 17.5293 10.6543 21.5918 10.1172C21.8164 10.0879 21.9629 9.93164 21.9629 9.7168C21.9629 9.50195 21.8164 9.3457 21.5918 9.30664C17.5391 8.75977 17.0996 8.16406 16.5137 4.22852C16.4844 4.00391 16.3281 3.85742 16.1133 3.85742C15.8887 3.85742 15.7324 3.99414 15.6836 4.21875C14.9805 8.23242 14.6777 8.75977 10.6152 9.30664C10.3906 9.3457 10.2441 9.50195 10.2441 9.7168C10.2441 9.93164 10.3906 10.0879 10.6152 10.1172C14.6973 10.4199 15.1367 11.2305 15.6836 15.2051C15.7227 15.4199 15.8691 15.5762 16.1133 15.5762ZM11.1035 17.5684C11.2598 17.5684 11.3672 17.4805 11.3965 17.334C11.7188 15.498 11.6211 15.332 13.6914 15.0391C13.8477 15.0195 13.9453 14.9023 13.9453 14.7461C13.9453 14.5996 13.8477 14.4727 13.6914 14.4531C11.6309 14.1406 11.7188 13.9746 11.3965 12.1875C11.3672 12.0215 11.2695 11.9141 11.1035 11.9141C10.957 11.9141 10.8496 12.0117 10.8105 12.1875C10.4785 13.9746 10.5957 14.1406 8.52539 14.4531C8.36914 14.4727 8.27148 14.5996 8.27148 14.7461C8.27148 14.9219 8.36914 15.0195 8.54492 15.0391C10.5957 15.332 10.4785 15.498 10.8105 17.3047C10.8496 17.4707 10.9473 17.5684 11.1035 17.5684Z" fill="black" fill-opacity="0.85"/>
 </g>
</svg>
