<?xml version="1.0" encoding="UTF-8"?>
<!--Generator: Apple Native CoreSVG 326-->
<!DOCTYPE svg
PUBLIC "-//W3C//DTD SVG 1.1//EN"
       "http://www.w3.org/Graphics/SVG/1.1/DTD/svg11.dtd">
<svg version="1.1" xmlns="http://www.w3.org/2000/svg" xmlns:xlink="http://www.w3.org/1999/xlink" viewBox="0 0 23.4961 31.0059">
 <g>
  <rect height="31.0059" opacity="0" width="23.4961" x="0" y="0"/>
  <path d="M10.8691 6.07422C11.0254 6.07422 11.1035 5.97656 11.1328 5.83008C11.4746 3.82812 11.4453 3.66211 13.6719 3.29102C13.8184 3.27148 13.9062 3.18359 13.9062 3.03711C13.9062 2.89062 13.8184 2.79297 13.6719 2.77344C11.4453 2.40234 11.4746 2.23633 11.1328 0.234375C11.1035 0.0878906 11.0254 0 10.8691 0C10.7129 0 10.6348 0.0878906 10.6055 0.234375C10.2637 2.23633 10.293 2.40234 8.06641 2.77344C7.91992 2.79297 7.83203 2.89062 7.83203 3.03711C7.83203 3.18359 7.91992 3.27148 8.06641 3.29102C10.293 3.66211 10.2637 3.82812 10.6055 5.83008C10.6348 5.97656 10.7129 6.07422 10.8691 6.07422Z" fill="black" fill-opacity="0.85"/>
  <path d="M4.72656 14.6777C4.92188 14.6777 5.06836 14.541 5.09766 14.3457C5.56641 10.9668 5.64453 10.9961 9.12109 10.332C9.30664 10.293 9.45312 10.166 9.45312 9.96094C9.45312 9.75586 9.30664 9.61914 9.12109 9.58984C5.64453 9.0625 5.55664 8.99414 5.09766 5.58594C5.06836 5.38086 4.92188 5.24414 4.72656 5.24414C4.53125 5.24414 4.38477 5.38086 4.35547 5.5957C3.91602 8.96484 3.78906 8.92578 0.332031 9.58984C0.146484 9.62891 0 9.75586 0 9.96094C0 10.1758 0.146484 10.293 0.371094 10.332C3.80859 10.9082 3.91602 10.957 4.35547 14.3262C4.38477 14.541 4.53125 14.6777 4.72656 14.6777Z" fill="black" fill-opacity="0.85"/>
  <path d="M13.2715 28.6816C13.5742 28.6816 13.7988 28.4766 13.8379 28.1641C14.6973 21.0645 15.6152 20.127 22.5977 19.3945C22.9199 19.3652 23.1348 19.1406 23.1348 18.8379C23.1348 18.5352 22.9199 18.3008 22.5977 18.2715C15.6152 17.5391 14.6973 16.6016 13.8379 9.50195C13.7988 9.19922 13.5742 8.98438 13.2715 8.98438C12.9688 8.98438 12.7539 9.19922 12.7051 9.50195C11.8457 16.6016 10.9277 17.5391 3.94531 18.2715C3.62305 18.3008 3.4082 18.5352 3.4082 18.8379C3.4082 19.1406 3.62305 19.3652 3.94531 19.3945C10.9082 20.293 11.7871 21.0742 12.7051 28.1641C12.7539 28.4766 12.9688 28.6816 13.2715 28.6816Z" fill="black" fill-opacity="0.85"/>
 </g>
</svg>
