<?xml version="1.0" ?><!-- Generator: Adobe Illustrator 25.0.0, SVG Export Plug-In . SVG Version: 6.00 Build 0)  --><svg xmlns="http://www.w3.org/2000/svg" xmlns:xlink="http://www.w3.org/1999/xlink" version="1.1" id="Layer_1" x="0px" y="0px" viewBox="0 0 512 512" style="enable-background:new 0 0 512 512;" xml:space="preserve">
<path d="M2.5,207.1c0,28.5,5.4,55.3,16.1,80.3c10.7,25,25.6,47,44.6,66c19,19,41,33.9,66,44.6c25,10.7,51.8,16.1,80.3,16.1  c22.5,0,43.9-3.5,64.4-10.4c20.4-6.9,39.1-16.4,56.1-28.5l127.7,127.9c3.1,2.9,6.5,5.1,10.3,6.6c3.7,1.5,7.7,2.2,11.8,2.2  c5.9,0,11.1-1.3,15.6-4c4.5-2.7,8-6.4,10.5-11c2.5-4.7,3.8-9.9,3.8-15.6c0-4.2-0.7-8-2.2-11.7c-1.5-3.6-3.6-6.8-6.4-9.6L374.1,332.4  c13.3-17.3,23.7-36.6,31.3-57.9c7.5-21.3,11.3-43.8,11.3-67.5c0-28.5-5.4-55.3-16.1-80.3c-10.7-25-25.6-47-44.6-66s-41-33.9-66-44.6  C264.9,5.4,238.1,0,209.5,0c-28.5,0-55.3,5.4-80.3,16.1c-25,10.7-47,25.6-66,44.6c-19,19-33.9,41-44.6,66  C7.8,151.8,2.5,178.5,2.5,207.1z M46.8,207.1c0-22.5,4.2-43.6,12.6-63.2c8.4-19.6,20.1-36.9,35-51.9c15-15,32.3-26.6,51.9-35  c19.6-8.4,40.7-12.6,63.2-12.6c22.5,0,43.6,4.2,63.2,12.6c19.6,8.4,36.9,20.1,51.8,35c14.9,15,26.6,32.3,35,51.9  c8.5,19.6,12.7,40.7,12.7,63.2c0,22.5-4.2,43.6-12.7,63.2c-8.5,19.6-20.2,36.9-35,51.8c-14.9,14.9-32.1,26.6-51.8,35  c-19.6,8.5-40.7,12.7-63.2,12.7c-22.5,0-43.6-4.2-63.2-12.7c-19.6-8.5-36.9-20.2-51.9-35c-15-14.9-26.6-32.1-35-51.8  C51,250.6,46.8,229.6,46.8,207.1z M210.1,316.1c4.3,0,7.1-2.5,8.3-7.5c2.6-14,5.2-26,7.8-35.8c2.6-9.9,5.8-18,9.6-24.5  c3.8-6.5,8.8-11.8,14.9-16c6.1-4.2,14.1-7.5,23.7-10c9.7-2.5,21.9-4.8,36.6-6.9c5.2-0.7,7.8-3.5,7.8-8.3c0-4.8-2.6-7.8-7.8-8.8  c-14.5-1.9-26.8-4.2-36.7-6.7s-18.1-6-24.4-10.1c-6.3-4.2-11.4-9.5-15.3-16c-3.9-6.5-7-14.6-9.5-24.3c-2.4-9.7-4.7-21.5-6.7-35.3  c-0.9-5.2-3.6-7.8-8.3-7.8c-4.7,0-7.6,2.5-8.8,7.5c-2.8,14.2-5.4,26.2-7.9,35.9c-2.5,9.8-5.7,17.9-9.5,24.4  c-3.8,6.5-8.8,11.8-14.9,15.8c-6.1,4.1-14.1,7.4-23.7,9.9c-9.7,2.5-21.8,4.7-36.3,6.6c-5.4,1-8,4-8,8.8c0,4.7,2.7,7.4,8,8.3  c18.2,1.9,32.8,4.5,43.9,7.9c11.1,3.4,19.7,8.3,25.8,14.9c6.1,6.6,10.8,15.5,14,26.9c3.2,11.3,6.1,25.7,8.7,43.2  c0.3,2.2,1.3,4.1,2.9,5.6C205.7,315.3,207.6,316.1,210.1,316.1z"/>
</svg>