<?xml version="1.0" ?><!-- Generator: Adobe Illustrator 25.0.0, SVG Export Plug-In . SVG Version: 6.00 Build 0)  --><svg xmlns="http://www.w3.org/2000/svg" xmlns:xlink="http://www.w3.org/1999/xlink" version="1.1" id="Layer_1" x="0px" y="0px" viewBox="0 0 512 512" style="enable-background:new 0 0 512 512;" xml:space="preserve">
<path d="M107.4,29.4h297.4C403.5,10,392.5,0,371.6,0h-231C119.7,0,108.8,10,107.4,29.4z M62.8,92.4h386.6  c-3.4-20.7-13.2-32.1-36-32.1H98.8C76,60.3,66.2,71.7,62.8,92.4z M83.5,512h345c47.6,0,71.5-23.7,71.5-70.5V199.6  c0-46.6-23.9-70.3-71.5-70.3h-345c-47.8,0-71.5,23.4-71.5,70.3v241.9C12.1,488.3,35.7,512,83.5,512z M84,475.4  c-22.8,0-35.3-12.3-35.3-36V201.6c0-23.7,12.5-35.7,35.3-35.7H428c22.3,0,35.3,12.1,35.3,35.7v237.8c0,23.7-13,36-35.3,36H84z   M164.7,301.1c2.7,0,5.5-2,5.9-5c4.8-35,5.2-34.4,41.2-41.4c3.2-0.7,5-2.7,5-5.7c0-3.2-2.3-5.7-5-5.9c-35.5-5-36.4-5.2-41.2-41  c-0.5-3.2-3-5.2-5.9-5.2c-3.2,0-5.5,2-5.7,5.2c-4.6,34.1-5.2,34.1-41.4,41c-3.2,0.7-5,3-5,5.9c0,3.2,1.8,5,5.5,5.7  c36,5.9,36.4,6.4,40.7,41C159.3,299,161.6,301.1,164.7,301.1z M293.1,444.6c4.1,0,7.3-2.7,7.7-7.1c9.3-73,19.6-83.1,90.3-90.6  c4.6-0.2,7.5-3.4,7.5-7.7c0-4.3-3-7.5-7.3-8c-71-7.7-81.2-17.5-90.6-90.6c-0.5-4.1-3.6-7.1-7.7-7.1c-4.1,0-7.1,2.7-8,7.1  c-9.3,73-19.6,82.8-90.3,90.6c-4.8,0.5-7.3,3.6-7.3,8c0,4.3,2.7,7.3,7.1,7.7c71.2,9.1,80.8,18,90.6,90.6  C285.8,441.9,288.8,444.6,293.1,444.6z"/>
</svg>