<?xml version="1.0" ?><!-- Generator: Adobe Illustrator 25.0.0, SVG Export Plug-In . SVG Version: 6.00 Build 0)  --><svg xmlns="http://www.w3.org/2000/svg" xmlns:xlink="http://www.w3.org/1999/xlink" version="1.1" id="Layer_1" x="0px" y="0px" viewBox="0 0 512 512" style="enable-background:new 0 0 512 512;" xml:space="preserve">
<path d="M76,397.4h61.2v-39H76.5c-12.1,0-21.4-3.2-27.8-9.7c-6.5-6.5-9.7-16-9.7-28.6V79.7c0-12.6,3.2-22.1,9.7-28.6  c6.5-6.5,15.7-9.7,27.8-9.7h241.7c11.9,0,21.2,3.2,27.7,9.7c6.5,6.5,9.8,16,9.8,28.6v53h39V77.5c0-24.8-6.3-43.6-19-56.1  C363,8.8,344.1,2.5,318.9,2.5H76c-25.3,0-44.3,6.3-57,18.8C6.3,33.8,0,52.5,0,77.5v244.9c0,25,6.3,43.8,19,56.3  C31.7,391.2,50.7,397.4,76,397.4z" class="hierarchical-0:secondary SFSymbolsPreview4D4D4D" style="fill: #4D4D4D;"/>
<path d="M193.3,509.5h242.9c25.2,0,44.1-6.3,56.7-18.9c12.7-12.6,19-31.3,19-56.1V189.6c0-24.8-6.3-43.6-19-56.1  s-31.6-18.9-56.7-18.9H193.3c-25.3,0-44.3,6.3-57,18.8c-12.7,12.5-19,31.3-19,56.3v244.9c0,25,6.3,43.8,19,56.3  C149,503.2,168,509.5,193.3,509.5z M327.4,412.4c-5.5,0-8.7-2.7-9.7-8.2c-2.6-18.2-5.5-33.2-8.8-45c-3.3-11.8-8.2-21.1-14.6-28.1  c-6.5-6.9-15.4-12.2-27-15.7c-11.5-3.5-26.8-6.3-45.9-8.2c-5.6-0.8-8.5-3.9-8.5-9.2c0-5.2,2.8-8.1,8.5-9c15.2-2.1,27.8-4.5,38-7.1  c10.2-2.7,18.5-6.1,24.9-10.4c6.5-4.3,11.6-9.8,15.5-16.6c3.9-6.8,7.1-15.3,9.8-25.5c2.7-10.2,5.4-22.7,8.1-37.4  c1.5-5.5,4.7-8.2,9.7-8.2c5,0,8,2.8,9,8.5c2.1,14.4,4.4,26.6,6.9,36.8c2.5,10.2,5.8,18.6,9.8,25.4c4,6.8,9.4,12.3,16.1,16.7  c6.7,4.4,15.2,7.9,25.5,10.6c10.3,2.7,23.1,5.2,38.5,7.3c5.5,0.8,8.2,3.8,8.2,9c0,5.5-2.7,8.5-8.2,9.2c-15.3,2.1-28.1,4.5-38.2,7.1  c-10.2,2.7-18.5,6.1-24.9,10.4c-6.5,4.3-11.7,9.8-15.6,16.7c-4,6.9-7.3,15.4-9.9,25.6c-2.7,10.2-5.4,22.7-8.1,37.4  C335,409.8,332.1,412.4,327.4,412.4z M228.9,453.1c-3.4,0-5.7-2.1-7-6.3c-1.8-8.9-3.2-15.9-4.4-21.1s-2.9-9.1-5.2-11.7  c-2.3-2.7-6.1-4.7-11.3-6.2c-5.2-1.5-12.7-2.9-22.5-4.4c-4.2-0.6-6.3-2.9-6.3-6.8c0-4,1.9-6.3,5.8-6.8c10-1.8,17.6-3.4,22.9-4.8  c5.2-1.5,9-3.5,11.4-6.3c2.3-2.7,4.1-6.7,5.2-11.7c1.1-5.1,2.6-12.1,4.4-20.9c1.3-4.2,3.6-6.3,7-6.3c3.5,0,5.9,2.1,7,6.3  c1.8,8.9,3.2,15.8,4.4,20.9c1.1,5.1,2.9,9,5.3,11.7c2.4,2.7,6.3,4.8,11.6,6.3c5.3,1.5,12.9,3.1,22.7,4.8c4,0.5,6,2.7,6,6.8  c0,3.7-2,6-6,6.8c-9.8,1.5-17.4,2.9-22.7,4.4c-5.3,1.5-9.2,3.5-11.6,6.3c-2.4,2.7-4.2,6.7-5.3,11.9c-1.1,5.2-2.6,12.3-4.4,21.5  C234.9,451.2,232.6,453.1,228.9,453.1z" class="hierarchical-1:primary SFSymbolsPreview212121" style="fill: #212121;"/>
</svg>