<?xml version="1.0" ?><!-- Generator: Adobe Illustrator 25.0.0, SVG Export Plug-In . SVG Version: 6.00 Build 0)  --><svg xmlns="http://www.w3.org/2000/svg" xmlns:xlink="http://www.w3.org/1999/xlink" version="1.1" id="Layer_1" x="0px" y="0px" viewBox="0 0 512 512" style="enable-background:new 0 0 512 512;" xml:space="preserve">
<path d="M385.1,308.9V31.9c0-17.6-13-31.9-31.1-31.9c-13,0-21.1,6-35.5,18.7l-118.3,105l29,29.2l105.6-95.8c1.4-1.4,3-2.2,4.6-2.2  c1.9,0,3.5,1.4,3.5,3.8v207.9L385.1,308.9z M473.1,505.9c8.1,8.1,21.7,8.1,29.5,0c8.1-8.4,8.1-21.4,0-29.5L39.2,13  c-8.1-8.1-21.7-8.1-29.8,0c-8.1,7.8-8.1,21.7,0,29.5L473.1,505.9z M112.5,348.6H190c2.4,0,4.6,0.8,6.5,2.4l122.1,109.4  c13.3,11.6,23,17.1,36,17.1c10.6,0,19.2-4.9,25.4-14.1l-31.4-31.1L217.8,315.1c-5.4-4.9-8.7-6-15.7-6h-87.7  c-10.3,0-14.9-4.6-14.9-14.6V183l-32.5-32.5c-6.2,8.7-9.7,20.8-9.7,36.8V291C57.3,330.2,75.7,348.6,112.5,348.6z"/>
</svg>