<?xml version="1.0" encoding="UTF-8"?>
<!--Generator: Apple Native CoreSVG 326-->
<!DOCTYPE svg
PUBLIC "-//W3C//DTD SVG 1.1//EN"
       "http://www.w3.org/Graphics/SVG/1.1/DTD/svg11.dtd">
<svg version="1.1" xmlns="http://www.w3.org/2000/svg" xmlns:xlink="http://www.w3.org/1999/xlink" viewBox="0 0 30.5957 21.9434">
 <g>
  <rect height="21.9434" opacity="0" width="30.5957" x="0" y="0"/>
  <path d="M18.7012 10.9668C18.7012 11.4844 19.082 11.8457 19.6289 11.8457L23.5742 11.8457L23.5742 15.8008C23.5742 16.3379 23.9355 16.7188 24.4531 16.7188C24.9902 16.7188 25.3711 16.3477 25.3711 15.8008L25.3711 11.8457L29.3262 11.8457C29.8633 11.8457 30.2344 11.4844 30.2344 10.9668C30.2344 10.4199 29.8633 10.0488 29.3262 10.0488L25.3711 10.0488L25.3711 6.10352C25.3711 5.55664 24.9902 5.17578 24.4531 5.17578C23.9355 5.17578 23.5742 5.55664 23.5742 6.10352L23.5742 10.0488L19.6289 10.0488C19.0723 10.0488 18.7012 10.4199 18.7012 10.9668Z" fill="black" fill-opacity="0.85"/>
  <path d="M13.4668 21.9434C14.2285 21.9434 14.7461 21.3867 14.7461 20.6445L14.7461 1.35742C14.7461 0.615234 14.2285 0.00976562 13.4473 0.00976562C12.9102 0.00976562 12.5391 0.244141 11.9824 0.771484L6.52344 5.94727C6.43555 6.03516 6.31836 6.07422 6.17188 6.07422L2.4707 6.07422C0.908203 6.07422 0 6.98242 0 8.64258L0 13.3691C0 15.0195 0.908203 15.9277 2.4707 15.9277L6.17188 15.9277C6.31836 15.9277 6.43555 15.9766 6.52344 16.0645L11.9824 21.2305C12.4902 21.709 12.9297 21.9434 13.4668 21.9434Z" fill="black" fill-opacity="0.85"/>
 </g>
</svg>
