<?xml version="1.0" ?><!-- Generator: Adobe Illustrator 25.0.0, SVG Export Plug-In . SVG Version: 6.00 Build 0)  --><svg xmlns="http://www.w3.org/2000/svg" xmlns:xlink="http://www.w3.org/1999/xlink" version="1.1" id="Layer_1" x="0px" y="0px" viewBox="0 0 512 512" style="enable-background:new 0 0 512 512;" xml:space="preserve">
<path d="M310.4,510c19,0,32.5-13.5,32.5-32.3V36c0-18.7-13.5-34-33.1-34c-13.5,0-22.7,5.8-37.1,19.9l-123,115.2  c-1.7,1.7-4.3,2.6-7.2,2.6H60.2C21,139.7,0,161.3,0,202.7v107.1c0,41.8,21,63.1,60.2,63.1h82.4c2.9,0,5.5,0.9,7.2,2.6l123,116.3  C285.7,504.5,296.9,510,310.4,510z M445.8,378.4c9.5,6.6,23,4.6,30.8-6.6c22.2-29.1,35.4-72,35.4-116s-13.2-86.7-35.4-116  c-7.8-11.2-21.3-13.5-30.8-6.6c-11.8,8.1-13.5,22.5-4.6,34.3c16.7,23,26.2,55,26.2,88.4s-9.8,65.1-26.2,88.4  C432.5,356.2,434,370,445.8,378.4z"/>
</svg>