<?xml version="1.0" ?><!-- Generator: Adobe Illustrator 25.0.0, SVG Export Plug-In . SVG Version: 6.00 Build 0)  --><svg xmlns="http://www.w3.org/2000/svg" xmlns:xlink="http://www.w3.org/1999/xlink" version="1.1" id="Layer_1" x="0px" y="0px" viewBox="0 0 512 512" style="enable-background:new 0 0 512 512;" xml:space="preserve">
<path d="M228.6,443.1c14,0,24-10,24-23.8V94c0-13.8-10-25-24.4-25c-10,0-16.5,4.5-27.4,14.6l-90.6,84.8c-1.3,1.3-3.2,1.9-5.3,1.9  H44.3C15.5,170.3,0,186.2,0,216.8v78.9c0,30.8,15.5,46.4,44.3,46.4H105c2.1,0,4,0.6,5.3,1.9l90.6,85.7  C210.4,439,218.7,443.1,228.6,443.1z M500.1,205.5h-50.3v-1.3l51.8-68.1c4.7-5.9,6.4-9.5,6.4-13.6c0-7-5.5-11.2-12.7-11.2H424  c-7,0-11.9,4.5-11.9,11.5c0,7.2,4.9,11.7,11.9,11.7h47.5v0.8l-52.4,68.1c-4.7,5.9-6.2,9.5-6.2,14.2c0,6.4,5.1,11,12.5,11h74.7  c7,0,11.9-4.5,11.9-11.7C512,210.2,507.1,205.5,500.1,205.5z M375.4,290.4H340v-0.8l36.7-47.9c4.2-5.5,6.2-9.1,6.2-13.1  c0-6.6-5.3-10.4-12.3-10.4h-54.1c-6.6,0-11,4.2-11,10.6c0,7.2,4.5,11.2,11,11.2h31.8v0.8l-36.5,47.7c-4,5.5-5.7,8.9-5.7,13.4  c0,6.2,4.7,10.6,11.5,10.6h57.9c6.6,0,11-4,11-11C386.4,294.8,382,290.4,375.4,290.4z M471.3,368.4h-30.1v-0.8l31-41.4  c4.2-5.7,5.7-8.7,5.7-12.5c0-6.4-4.9-10.2-11.2-10.2h-47.7c-6.4,0-10.6,4-10.6,10.4c0,6.6,4.2,10.4,10.6,10.4h26.3v0.8l-30.8,41.4  c-3.8,5.3-5.7,8.5-5.7,12.5c0,5.9,4.9,10.2,11.2,10.2h51.3c5.9,0,10.2-4,10.2-10.6C481.5,372.4,477.2,368.4,471.3,368.4z"/>
</svg>