<?xml version="1.0" ?><!-- Generator: Adobe Illustrator 25.0.0, SVG Export Plug-In . SVG Version: 6.00 Build 0)  --><svg xmlns="http://www.w3.org/2000/svg" xmlns:xlink="http://www.w3.org/1999/xlink" version="1.1" id="Layer_1" x="0px" y="0px" viewBox="0 0 512 512" style="enable-background:new 0 0 512 512;" xml:space="preserve">
<path d="M46.6,349.1h65.8c2.1,0,3.9,0.7,5.5,2.1l103.5,92.7c11,9.9,19.5,14.5,30.5,14.5c14.7,0,25.9-10.8,25.9-25.7V80.7  c0-14.9-11.2-27.1-26.4-27.1c-11,0-18.1,5-30.1,15.8l-103.5,91.8c-1.6,1.4-3.4,2.1-5.5,2.1H46.6C15.4,163.3,0,179.2,0,212.4v87.9  C0,333.5,15.6,349.1,46.6,349.1z M440.2,413.4c8.5,5.7,19,3.7,25.2-5c29.4-40.4,46.6-95.9,46.6-152.5c0-56.7-17-112.6-46.6-152.5  c-6.2-8.7-16.7-10.8-25.2-5c-8.5,5.7-9.9,16.5-3.2,25.9c25,35.3,39.5,82.8,39.5,131.7s-14.9,95.9-39.5,131.7  C430.6,396.8,431.7,407.6,440.2,413.4z M48.2,315.6c-8.5,0-12.4-3.9-12.4-12.4v-93.8c0-8.7,3.9-12.6,12.4-12.6h73.4  c6,0,10.6-1.1,15.8-6l97.7-88.8c1.1-1.1,2.3-1.8,3.9-1.8c1.6,0,3,1.1,3,3.2v304.9c0,2.1-1.4,3.4-3,3.4c-1.1,0-2.5-0.7-3.9-1.8  l-97.7-88.3c-5.3-4.6-9.9-6-15.8-6H48.2z M355.3,353.5c7.6,5.3,18.4,3.7,24.5-5.3c17.7-23.2,28.2-57.3,28.2-92.4s-10.6-69-28.2-92.4  c-6.2-8.9-17-10.8-24.5-5.3c-9.4,6.4-10.8,17.9-3.7,27.3c13.3,18.4,20.9,43.8,20.9,70.4s-7.8,51.8-20.9,70.4  C344.8,335.8,345.9,346.8,355.3,353.5z"/>
</svg>