<?xml version="1.0" ?><!-- Generator: Adobe Illustrator 25.0.0, SVG Export Plug-In . SVG Version: 6.00 Build 0)  --><svg xmlns="http://www.w3.org/2000/svg" xmlns:xlink="http://www.w3.org/1999/xlink" version="1.1" id="Layer_1" x="0px" y="0px" viewBox="0 0 512 512" style="enable-background:new 0 0 512 512;" xml:space="preserve">
<path d="M256,512c140,0,256-116.2,256-256C512,116,395.8,0,255.7,0C116,0,0,116,0,256C0,395.8,116.2,512,256,512z M256,469.3  c-118.5,0-213.1-94.9-213.1-213.3S137.3,42.7,255.7,42.7S469.1,137.5,469.3,256S374.5,469.3,256,469.3z M247.7,369.2  c8.3,0,14.3-6.3,14.3-14.3V158.1c0-8.5-6-15.1-14.6-15.1c-6,0-10,2.8-16.6,8.8l-54.7,51.5c-0.8,1-2,1-3.3,1H136  c-17.1,0-26.6,9.5-26.6,27.9v47.9c0,18.3,9.5,27.9,26.6,27.9h36.9c1.3,0,2.5,0.5,3.3,1.3l54.7,52  C236.7,366.7,241.7,369.2,247.7,369.2z M349.1,345.9c6.5,3.8,13.8,2.5,18.1-3.3c16.8-24.1,26.4-54.5,26.4-86.6  c0-31.4-9-62.2-26.4-86.6c-4.5-6.3-12-7.8-18.1-3.5c-6,4.5-7,12.3-2.5,18.8c13.6,18.8,21.1,44.2,21.1,71.3c0,26.4-7.5,53-21.1,71  C341.8,333.6,342.6,341.8,349.1,345.9z M304.7,312.5c5.5,4.3,13.6,2.8,18.1-3.3c10.3-13.1,16.1-32.9,16.1-53.2  c0-20.1-6-39.7-16.1-53.2c-4.3-6-12.5-7.5-18.1-3.5c-6.3,4.8-7.5,12.5-2.8,19.3c6.5,8.5,10.8,22.6,10.8,37.4  c0,14.1-4.3,27.9-11,37.4C297.2,300.4,298.2,307.7,304.7,312.5z"/>
</svg>