<?xml version="1.0" ?><!-- Generator: Adobe Illustrator 25.0.0, SVG Export Plug-In . SVG Version: 6.00 Build 0)  --><svg xmlns="http://www.w3.org/2000/svg" xmlns:xlink="http://www.w3.org/1999/xlink" version="1.1" id="Layer_1" x="0px" y="0px" viewBox="0 0 512 512" style="enable-background:new 0 0 512 512;" xml:space="preserve">
<path d="M256,512c140,0,256-116,256-256C512,116.2,395.8,0,255.7,0C116,0,0,116.2,0,256C0,396,116.2,512,256,512z M377.7,394.5  L117,134c-4.3-4.8-4.5-12.3,0-16.8c4.8-4.8,12.3-4.8,17.1,0l260.5,260.5c4.5,4.8,4.5,12,0,16.8C390,399.1,382.2,398.8,377.7,394.5z   M237.7,192.8l46.9-44.4c6.8-6.3,11-9,17.3-9c8.8,0,15.1,7,15.1,15.6v117.2L237.7,192.8z M187,309.7c-17.6,0-27.6-10-27.6-28.9  v-49.4c0-8,3.3-14.6,7.3-18.3h2l146.1,145.8l-2.8,9c-2.3,2.5-5.5,4.8-9.8,4.8c-6.3,0-11.5-2.5-17.6-8.3l-56.2-53.7c-1-0.8-2-1-3.5-1  H187z"/>
</svg>