<?xml version="1.0" ?><!-- Generator: Adobe Illustrator 25.0.0, SVG Export Plug-In . SVG Version: 6.00 Build 0)  --><svg xmlns="http://www.w3.org/2000/svg" xmlns:xlink="http://www.w3.org/1999/xlink" version="1.1" id="Layer_1" x="0px" y="0px" viewBox="0 0 512 512" style="enable-background:new 0 0 512 512;" xml:space="preserve">
<path d="M139.5,373.8h83c2.6,0,4.9,0.9,7,2.6l130.9,117.3c13.9,12.5,24.7,18.3,38.6,18.3c18.9,0,32.8-13.6,32.8-32.5V34.2  c0-18.9-13.9-34.2-33.4-34.2c-13.9,0-22.6,6.4-38,20L229.4,136.1c-2,1.7-4.4,2.6-7,2.6h-83c-39.5,0-59.2,20-59.2,62.1V312  C80.3,354.1,100,373.8,139.5,373.8z M141.5,331.5c-11,0-16-4.9-16-15.7V197.1c0-11,4.9-16,16-16h92.9c7.5,0,13.1-1.5,19.7-7.5  L377.8,61.2c1.5-1.5,3.2-2.3,4.9-2.3c2,0,3.8,1.5,3.8,4.1v385.7c0,2.6-1.7,4.4-3.8,4.4c-1.5,0-3.2-0.9-4.6-2.3L254.1,339  c-6.7-5.8-12.2-7.5-19.7-7.5H141.5z"/>
</svg>