<?xml version="1.0" ?><!-- Generator: Adobe Illustrator 25.0.0, SVG Export Plug-In . SVG Version: 6.00 Build 0)  --><svg xmlns="http://www.w3.org/2000/svg" xmlns:xlink="http://www.w3.org/1999/xlink" version="1.1" id="Layer_1" x="0px" y="0px" viewBox="0 0 512 512" style="enable-background:new 0 0 512 512;" xml:space="preserve">
<path d="M396,512c19.2,0,32.8-13.6,32.8-32.5V34.2c0-18.9-13.6-34.2-33.4-34.2c-13.4,0-22.6,5.8-37.4,20L234.4,136.1  c-2,1.7-4.4,2.6-7.3,2.6h-83.3c-39.2,0-60.7,21.8-60.7,63.6v108c0,42.1,21.5,63.6,60.7,63.6h83.3c2.9,0,5.2,0.9,7.3,2.6L358,493.7  C371.4,506.5,382.7,512,396,512z"/>
</svg>