<?xml version="1.0" encoding="UTF-8"?>
<!--Generator: Apple Native CoreSVG 326-->
<!DOCTYPE svg
PUBLIC "-//W3C//DTD SVG 1.1//EN"
       "http://www.w3.org/Graphics/SVG/1.1/DTD/svg11.dtd">
<svg version="1.1" xmlns="http://www.w3.org/2000/svg" xmlns:xlink="http://www.w3.org/1999/xlink" viewBox="0 0 29.9414 21.9434">
 <g>
  <rect height="21.9434" opacity="0" width="29.9414" x="0" y="0"/>
  <path d="M28.9648 8.10547L25.9473 8.10547L25.9473 8.02734L29.0137 4.01367C29.2676 3.69141 29.3652 3.50586 29.3652 3.28125C29.3652 2.90039 29.0625 2.67578 28.6719 2.67578L24.6191 2.67578C24.2578 2.67578 24.0039 2.91992 24.0039 3.28125C24.0039 3.64258 24.2578 3.88672 24.6191 3.88672L27.4707 3.88672L27.4707 3.94531L24.375 7.94922C24.1211 8.27148 24.043 8.45703 24.043 8.71094C24.043 9.0625 24.3066 9.30664 24.707 9.30664L28.9648 9.30664C29.3262 9.30664 29.5801 9.07227 29.5801 8.70117C29.5801 8.34961 29.3262 8.10547 28.9648 8.10547ZM21.8555 13.0176L19.6484 13.0176L19.6484 12.9688L21.9141 10.0293C22.1484 9.72656 22.2461 9.54102 22.2461 9.31641C22.2461 8.95508 21.9629 8.75 21.582 8.75L18.418 8.75C18.0762 8.75 17.8418 8.98438 17.8418 9.30664C17.8418 9.67773 18.0762 9.90234 18.418 9.90234L20.4395 9.90234L20.4395 9.96094L18.1934 12.8906C17.9688 13.1738 17.8711 13.3594 17.8711 13.6133C17.8711 13.9355 18.1348 14.1797 18.5059 14.1797L21.8555 14.1797C22.207 14.1797 22.4414 13.9648 22.4414 13.6035C22.4414 13.252 22.207 13.0176 21.8555 13.0176ZM27.4219 17.4805L25.5664 17.4805L25.5664 17.4316L27.4609 14.9316C27.6855 14.6191 27.7832 14.4629 27.7832 14.248C27.7832 13.8965 27.5098 13.7012 27.1582 13.7012L24.4043 13.7012C24.0723 13.7012 23.8477 13.916 23.8477 14.248C23.8477 14.5996 24.0723 14.7949 24.4043 14.7949L26.0547 14.7949L26.0547 14.8535L24.1895 17.3438C23.9648 17.6367 23.8672 17.8027 23.8672 18.0273C23.8672 18.3594 24.1309 18.584 24.4727 18.584L27.4219 18.584C27.7441 18.584 27.9785 18.3594 27.9785 18.0273C27.9785 17.7051 27.7441 17.4805 27.4219 17.4805Z" fill="black" fill-opacity="0.85"/>
  <path d="M2.34375 15.9277L6.03516 15.9277C6.16211 15.9277 6.2793 15.9766 6.37695 16.0645L12.168 21.2305C12.6855 21.6992 13.1152 21.9434 13.6621 21.9434C14.4043 21.9434 14.9414 21.3867 14.9414 20.6445L14.9414 1.35742C14.9414 0.615234 14.4043 0 13.6426 0C13.0957 0 12.7344 0.273438 12.168 0.771484L6.37695 5.94727C6.2793 6.03516 6.16211 6.06445 6.03516 6.06445L2.34375 6.06445C0.771484 6.06445 0 6.86523 0 8.52539L0 13.4863C0 15.1562 0.771484 15.9277 2.34375 15.9277ZM2.41211 14.3555C1.89453 14.3555 1.67969 14.1309 1.67969 13.6133L1.67969 8.38867C1.67969 7.87109 1.89453 7.64648 2.41211 7.64648L6.42578 7.64648C6.76758 7.64648 7.02148 7.58789 7.31445 7.32422L12.8418 2.28516C12.9199 2.2168 12.9883 2.1582 13.0859 2.1582C13.1836 2.1582 13.2617 2.23633 13.2617 2.35352L13.2617 19.5801C13.2617 19.707 13.1836 19.7754 13.0859 19.7754C13.0176 19.7754 12.9395 19.7461 12.8516 19.6582L7.31445 14.6875C7.02148 14.4238 6.76758 14.3555 6.42578 14.3555Z" fill="black" fill-opacity="0.85"/>
 </g>
</svg>
