<?xml version="1.0" encoding="UTF-8"?>
<!--Generator: Apple Native CoreSVG 326-->
<!DOCTYPE svg
PUBLIC "-//W3C//DTD SVG 1.1//EN"
       "http://www.w3.org/Graphics/SVG/1.1/DTD/svg11.dtd">
<svg version="1.1" xmlns="http://www.w3.org/2000/svg" xmlns:xlink="http://www.w3.org/1999/xlink" viewBox="0 0 28.0469 21.9434">
 <g>
  <rect height="21.9434" opacity="0" width="28.0469" x="0" y="0"/>
  <path d="M23.916 19.5801C24.3164 19.8535 24.8145 19.7656 25.0977 19.3555C26.7188 17.168 27.6855 14.0918 27.6855 10.9668C27.6855 7.83203 26.7285 4.73633 25.0977 2.57812C24.8145 2.16797 24.3164 2.07031 23.916 2.34375C23.5254 2.61719 23.457 3.11523 23.7695 3.56445C25.2051 5.55664 26.0156 8.20312 26.0156 10.9668C26.0156 13.7305 25.1855 16.3672 23.7695 18.3691C23.4668 18.8086 23.5254 19.3164 23.916 19.5801Z" fill="black" fill-opacity="0.85"/>
  <path d="M19.4043 16.2891C19.7754 16.543 20.2832 16.4551 20.5664 16.0449C21.5332 14.7754 22.1387 12.9297 22.1387 10.9668C22.1387 8.99414 21.5332 7.1582 20.5664 5.87891C20.2832 5.46875 19.7754 5.39062 19.4043 5.64453C18.9746 5.94727 18.9062 6.47461 19.2383 6.92383C20.0391 8.01758 20.4688 9.41406 20.4688 10.9668C20.4688 12.5098 20.0293 13.8965 19.2383 15.0098C18.916 15.459 18.9746 15.9766 19.4043 16.2891Z" fill="black" fill-opacity="0.85"/>
  <path d="M2.34375 15.9277L6.03516 15.9277C6.16211 15.9277 6.2793 15.9766 6.37695 16.0645L12.168 21.2305C12.6855 21.6992 13.1152 21.9434 13.6621 21.9434C14.4043 21.9434 14.9414 21.3867 14.9414 20.6445L14.9414 1.35742C14.9414 0.615234 14.4043 0 13.6426 0C13.0957 0 12.7344 0.273438 12.168 0.771484L6.37695 5.94727C6.2793 6.03516 6.16211 6.06445 6.03516 6.06445L2.34375 6.06445C0.771484 6.06445 0 6.86523 0 8.52539L0 13.4863C0 15.1562 0.771484 15.9277 2.34375 15.9277ZM2.41211 14.3555C1.89453 14.3555 1.67969 14.1309 1.67969 13.6133L1.67969 8.38867C1.67969 7.87109 1.89453 7.64648 2.41211 7.64648L6.42578 7.64648C6.76758 7.64648 7.02148 7.58789 7.31445 7.32422L12.8418 2.28516C12.9199 2.2168 12.9883 2.1582 13.0859 2.1582C13.1836 2.1582 13.2617 2.23633 13.2617 2.35352L13.2617 19.5801C13.2617 19.707 13.1836 19.7754 13.0859 19.7754C13.0176 19.7754 12.9395 19.7461 12.8516 19.6582L7.31445 14.6875C7.02148 14.4238 6.76758 14.3555 6.42578 14.3555Z" fill="black" fill-opacity="0.85"/>
 </g>
</svg>
