<?xml version="1.0" encoding="UTF-8"?>
<!--Generator: Apple Native CoreSVG 326-->
<!DOCTYPE svg
PUBLIC "-//W3C//DTD SVG 1.1//EN"
       "http://www.w3.org/Graphics/SVG/1.1/DTD/svg11.dtd">
<svg version="1.1" xmlns="http://www.w3.org/2000/svg" xmlns:xlink="http://www.w3.org/1999/xlink" viewBox="0 0 33.5938 24.2603">
 <g>
  <rect height="24.2603" opacity="0" width="33.5938" x="0" y="0"/>
  <path d="M28.4863 24.0882C28.8672 24.3616 29.3848 24.2542 29.6777 23.8245C31.8359 20.6116 33.2324 16.6858 33.2324 12.1253C33.2324 7.55495 31.8066 3.63894 29.6777 0.41628C29.3848-0.0231731 28.8672-0.120829 28.4863 0.152608C28.0859 0.426046 28.0273 0.943624 28.3301 1.38308C30.2734 4.3323 31.582 7.90651 31.582 12.1253C31.582 16.3342 30.2734 19.9182 28.3301 22.8577C28.0273 23.2971 28.0859 23.8147 28.4863 24.0882Z" fill="black" fill-opacity="0.85"/>
  <path d="M23.916 20.7385C24.3164 21.012 24.8145 20.9241 25.0977 20.5139C26.7188 18.3264 27.6855 15.2503 27.6855 12.1253C27.6855 8.9905 26.7285 5.8948 25.0977 3.73659C24.8145 3.32644 24.3164 3.22878 23.916 3.50222C23.5254 3.77566 23.457 4.2737 23.7695 4.72292C25.2051 6.71511 26.0156 9.36159 26.0156 12.1253C26.0156 14.8889 25.1855 17.5257 23.7695 19.5276C23.4668 19.9671 23.5254 20.4749 23.916 20.7385Z" fill="black" fill-opacity="0.85"/>
  <path d="M19.4043 17.4475C19.7754 17.7014 20.2832 17.6135 20.5664 17.2034C21.5332 15.9339 22.1387 14.0882 22.1387 12.1253C22.1387 10.1526 21.5332 8.31667 20.5664 7.03737C20.2832 6.62722 19.7754 6.54909 19.4043 6.803C18.9746 7.10573 18.9062 7.63308 19.2383 8.0823C20.0391 9.17605 20.4688 10.5725 20.4688 12.1253C20.4688 13.6682 20.0293 15.055 19.2383 16.1682C18.916 16.6175 18.9746 17.135 19.4043 17.4475Z" fill="black" fill-opacity="0.85"/>
  <path d="M2.34375 17.0862L6.03516 17.0862C6.16211 17.0862 6.2793 17.135 6.37695 17.2229L12.168 22.3889C12.6855 22.8577 13.1152 23.1018 13.6621 23.1018C14.4043 23.1018 14.9414 22.5452 14.9414 21.803L14.9414 2.51589C14.9414 1.7737 14.4043 1.15847 13.6426 1.15847C13.0957 1.15847 12.7344 1.43191 12.168 1.92995L6.37695 7.10573C6.2793 7.19362 6.16211 7.22292 6.03516 7.22292L2.34375 7.22292C0.771484 7.22292 0 8.0237 0 9.68386L0 14.6448C0 16.3147 0.771484 17.0862 2.34375 17.0862ZM2.41211 15.5139C1.89453 15.5139 1.67969 15.2893 1.67969 14.7717L1.67969 9.54714C1.67969 9.02956 1.89453 8.80495 2.41211 8.80495L6.42578 8.80495C6.76758 8.80495 7.02148 8.74636 7.31445 8.48269L12.8418 3.44362C12.9199 3.37526 12.9883 3.31667 13.0859 3.31667C13.1836 3.31667 13.2617 3.3948 13.2617 3.51198L13.2617 20.7385C13.2617 20.8655 13.1836 20.9339 13.0859 20.9339C13.0176 20.9339 12.9395 20.9046 12.8516 20.8167L7.31445 15.846C7.02148 15.5823 6.76758 15.5139 6.42578 15.5139Z" fill="black" fill-opacity="0.85"/>
 </g>
</svg>
