<?xml version="1.0" ?><!-- Generator: Adobe Illustrator 25.0.0, SVG Export Plug-In . SVG Version: 6.00 Build 0)  --><svg xmlns="http://www.w3.org/2000/svg" xmlns:xlink="http://www.w3.org/1999/xlink" version="1.1" id="Layer_1" x="0px" y="0px" viewBox="0 0 512 512" style="enable-background:new 0 0 512 512;" xml:space="preserve">
<path d="M43.1,342.1h60.9c1.9,0,3.6,0.6,5.1,1.9l95.7,85.7c10.2,9.1,18,13.4,28.2,13.4c13.6,0,24-10,24-23.8V94  c0-13.8-10.4-25-24.4-25c-10.2,0-16.8,4.7-27.8,14.6L109,168.4c-1.5,1.3-3.2,1.9-5.1,1.9H43.1C14.2,170.3,0,184.9,0,215.7v81.2  C0,327.7,14.4,342.1,43.1,342.1z M500.1,205.5h-50.3v-1.3l51.8-68.1c4.7-5.9,6.4-9.5,6.4-13.6c0-7-5.5-11.2-12.7-11.2H424  c-7,0-11.9,4.5-11.9,11.5c0,7.2,4.9,11.7,11.9,11.7h47.5v0.8l-52.4,68.1c-4.7,5.9-6.2,9.5-6.2,14.2c0,6.4,5.1,11,12.5,11h74.7  c7,0,11.9-4.5,11.9-11.7C512,210.2,507.1,205.5,500.1,205.5z M44.5,311.1c-7.8,0-11.5-3.6-11.5-11.5v-86.7c0-8.1,3.6-11.7,11.5-11.7  h67.9c5.5,0,9.8-1.1,14.6-5.5l90.4-82.1c1.1-1.1,2.1-1.7,3.6-1.7s2.8,1.1,2.8,3v281.9c0,1.9-1.3,3.2-2.8,3.2c-1.1,0-2.3-0.6-3.6-1.7  L127,316.7c-4.9-4.2-9.1-5.5-14.6-5.5H44.5z M375.4,290.4H340v-0.8l36.7-47.9c4.2-5.5,6.2-9.1,6.2-13.1c0-6.6-5.3-10.4-12.3-10.4  h-54.1c-6.6,0-11,4.2-11,10.6c0,7.2,4.5,11.2,11,11.2h31.8v0.8l-36.5,47.7c-4,5.5-5.7,8.9-5.7,13.4c0,6.2,4.7,10.6,11.5,10.6h57.9  c6.6,0,11-4,11-11C386.4,294.8,382,290.4,375.4,290.4z M471.3,368.4h-30.1v-0.8l31-41.4c4.2-5.7,5.7-8.7,5.7-12.5  c0-6.4-4.9-10.2-11.2-10.2h-47.7c-6.4,0-10.6,4-10.6,10.4c0,6.6,4.2,10.4,10.6,10.4h26.3v0.8l-30.8,41.4c-3.8,5.3-5.7,8.5-5.7,12.5  c0,5.9,4.9,10.2,11.2,10.2h51.3c5.9,0,10.2-4,10.2-10.6C481.5,372.4,477.2,368.4,471.3,368.4z"/>
</svg>