<?xml version="1.0" encoding="UTF-8"?>
<!--Generator: Apple Native CoreSVG 326-->
<!DOCTYPE svg
PUBLIC "-//W3C//DTD SVG 1.1//EN"
       "http://www.w3.org/Graphics/SVG/1.1/DTD/svg11.dtd">
<svg version="1.1" xmlns="http://www.w3.org/2000/svg" xmlns:xlink="http://www.w3.org/1999/xlink" viewBox="0 0 22.4902 21.9434">
 <g>
  <rect height="21.9434" opacity="0" width="22.4902" x="0" y="0"/>
  <path d="M19.3945 16.2988C19.7656 16.5527 20.2734 16.4648 20.5566 16.0547C21.5234 14.7852 22.1289 12.9395 22.1289 10.9766C22.1289 9.00391 21.5234 7.16797 20.5566 5.88867C20.2734 5.47852 19.7656 5.40039 19.3945 5.6543C18.9648 5.95703 18.8965 6.48438 19.2285 6.93359C20.0293 8.02734 20.459 9.42383 20.459 10.9766C20.459 12.5195 20.0195 13.9062 19.2285 15.0195C18.9062 15.4688 18.9648 15.9863 19.3945 16.2988Z" fill="black" fill-opacity="0.85"/>
  <path d="M2.34375 15.9277L6.03516 15.9277C6.16211 15.9277 6.2793 15.9766 6.37695 16.0645L12.168 21.2305C12.6758 21.6992 13.1152 21.9434 13.6523 21.9434C14.4043 21.9434 14.9316 21.3867 14.9316 20.6445L14.9316 1.35742C14.9316 0.615234 14.4043 0 13.6328 0C13.0957 0 12.7344 0.273438 12.168 0.771484L6.37695 5.94727C6.2793 6.03516 6.16211 6.06445 6.03516 6.06445L2.34375 6.06445C0.771484 6.06445 0 6.86523 0 8.52539L0 13.4863C0 15.1562 0.771484 15.9277 2.34375 15.9277ZM2.41211 14.3555C1.89453 14.3555 1.67969 14.1309 1.67969 13.6133L1.67969 8.38867C1.67969 7.87109 1.89453 7.64648 2.41211 7.64648L6.42578 7.64648C6.76758 7.64648 7.02148 7.58789 7.31445 7.32422L12.8418 2.28516C12.9199 2.2168 12.9883 2.1582 13.0859 2.1582C13.1836 2.1582 13.2617 2.23633 13.2617 2.35352L13.2617 19.5801C13.2617 19.707 13.1836 19.7754 13.0859 19.7754C13.0176 19.7754 12.9395 19.7461 12.8516 19.6582L7.31445 14.6875C7.02148 14.4238 6.76758 14.3555 6.42578 14.3555Z" fill="black" fill-opacity="0.85"/>
 </g>
</svg>
