<?xml version="1.0" ?><!-- Generator: Adobe Illustrator 25.0.0, SVG Export Plug-In . SVG Version: 6.00 Build 0)  --><svg xmlns="http://www.w3.org/2000/svg" xmlns:xlink="http://www.w3.org/1999/xlink" version="1.1" id="Layer_1" x="0px" y="0px" viewBox="0 0 512 512" style="enable-background:new 0 0 512 512;" xml:space="preserve">
<path d="M256,512c140,0,256-116.2,256-256C512,116,395.8,0,255.7,0C116,0,0,116,0,256C0,395.8,116.2,512,256,512z M256,469.3  c-118.5,0-213.1-94.9-213.1-213.3S137.3,42.7,255.7,42.7S469.1,137.5,469.3,256S374.5,469.3,256,469.3z M255.7,135.5  c13.3,0,24.6-11.3,24.6-24.6c0-13.8-11.3-24.8-24.6-24.8c-13.6,0-24.6,11-24.6,24.8C231.2,124.2,242.2,135.5,255.7,135.5z   M215.8,294.7c20.3,19.8,48.2,15.3,65-8.3l98.1-137c9-12.5-4.3-25.6-16.8-16.8l-138.3,96.9C200,246,195.8,274.1,215.8,294.7z   M153.9,179.7c13.6,0,24.6-11.3,24.6-24.6c0-13.8-11-24.6-24.6-24.6c-13.6,0-24.6,10.8-24.6,24.6  C129.3,168.4,140.3,179.7,153.9,179.7z M111.2,280.6c13.8,0,24.8-11,24.8-24.6c0-13.6-11-24.6-24.8-24.6c-13.3,0-24.6,11-24.6,24.6  C86.6,269.6,97.9,280.6,111.2,280.6z M400.3,280.6c13.3,0,24.6-11,24.6-24.6c0-13.6-11.3-24.6-24.6-24.6c-13.8,0-24.6,11-24.6,24.6  C375.7,269.6,386.5,280.6,400.3,280.6z M154.4,381.7c13.6,0,24.6-11.3,24.6-24.8c0-13.6-11-24.6-24.6-24.6  c-13.6,0-24.6,11-24.6,24.6C129.8,370.4,140.8,381.7,154.4,381.7z M357.1,381.7c13.6,0,24.6-11.3,24.6-24.8  c0-13.6-11-24.6-24.6-24.6c-13.6,0-24.6,11-24.6,24.6C332.5,370.4,343.6,381.7,357.1,381.7z"/>
</svg>