<?xml version="1.0" encoding="UTF-8"?>
<!--Generator: Apple Native CoreSVG 326-->
<!DOCTYPE svg
PUBLIC "-//W3C//DTD SVG 1.1//EN"
       "http://www.w3.org/Graphics/SVG/1.1/DTD/svg11.dtd">
<svg version="1.1" xmlns="http://www.w3.org/2000/svg" xmlns:xlink="http://www.w3.org/1999/xlink" viewBox="0 0 29.5508 23.4277">
 <g>
  <rect height="23.4277" opacity="0" width="29.5508" x="0" y="0"/>
  <path d="M13.3398 1.26953L7.05078 0.556641C5.95703 0.429688 5.17578 1.13281 5.17578 2.17773C5.17578 3.24219 5.95703 3.94531 7.05078 3.81836L13.3398 3.10547ZM14.4141 4.375C15.6348 4.375 16.6016 3.39844 16.6016 2.17773C16.6016 0.976562 15.6348 0 14.4141 0C13.1934 0 12.2168 0.976562 12.2168 2.17773C12.2168 3.39844 13.1934 4.375 14.4141 4.375ZM15.4785 1.26953L15.4785 3.10547L21.7676 3.81836C22.8711 3.94531 23.6426 3.24219 23.6426 2.17773C23.6426 1.13281 22.8711 0.429688 21.7676 0.556641ZM13.4375 3.49609L13.4375 6.38672L15.3906 6.38672L15.3906 3.49609ZM11.0059 8.74023L17.7832 8.74023L17.7832 7.08008C17.7832 6.18164 17.2168 5.60547 16.3184 5.60547L12.4707 5.60547C11.5723 5.60547 11.0059 6.18164 11.0059 7.08008ZM14.3945 20.9668C16.5625 20.9668 17.8125 20.0098 19.1992 18.7891C19.7461 18.2812 20.4492 17.998 21.0938 17.998C22.3535 17.998 23.3105 18.916 23.3105 20.5078L23.3105 22.3926C23.3105 22.9102 23.5156 23.1152 24.0332 23.1152L28.4668 23.1152C28.9746 23.1152 29.1895 22.9004 29.1895 22.3926L29.1895 21.1719C29.1895 14.4141 25.2832 11.8066 21.0254 11.8066L20.4199 11.8066C20.0977 11.8066 19.8633 11.6309 19.7656 11.3574L18.9648 9.19922C18.7598 8.64258 18.5645 8.48633 18.0664 8.48633L10.7129 8.48633C10.2148 8.48633 10.0195 8.64258 9.81445 9.19922L9.02344 11.3574C8.92578 11.6309 8.68164 11.8066 8.35938 11.8066L0.996094 11.8066L0.996094 17.9688L7.74414 17.9688C8.50586 17.9688 8.84766 18.0566 9.39453 18.623C10.6348 19.8828 12.2168 20.9668 14.3945 20.9668ZM0.869141 20.8594C1.33789 20.8594 1.72852 20.4688 1.72852 20L1.72852 10.0586C1.72852 9.58984 1.33789 9.19922 0.869141 9.19922C0.390625 9.19922 0 9.58984 0 10.0586L0 20C0 20.4688 0.390625 20.8594 0.869141 20.8594Z" fill="black" fill-opacity="0.85"/>
 </g>
</svg>
