<?xml version="1.0" encoding="UTF-8"?>
<!--Generator: Apple Native CoreSVG 326-->
<!DOCTYPE svg
PUBLIC "-//W3C//DTD SVG 1.1//EN"
       "http://www.w3.org/Graphics/SVG/1.1/DTD/svg11.dtd">
<svg version="1.1" xmlns="http://www.w3.org/2000/svg" xmlns:xlink="http://www.w3.org/1999/xlink" viewBox="0 0 22.1875 24.8535">
 <g>
  <rect height="24.8535" opacity="0" width="22.1875" x="0" y="0"/>
  <path d="M0.839844 10.9277C1.29883 10.9277 1.67969 10.5566 1.67969 10.0879C1.67969 9.62891 1.29883 9.24805 0.839844 9.24805C0.380859 9.24805 0 9.62891 0 10.0879C0 10.5566 0.380859 10.9277 0.839844 10.9277ZM3.47656 3.79883C3.94531 3.79883 4.32617 3.42773 4.32617 2.95898C4.32617 2.5 3.94531 2.11914 3.47656 2.11914C3.01758 2.11914 2.63672 2.5 2.63672 2.95898C2.63672 3.42773 3.01758 3.79883 3.47656 3.79883ZM10.9082 1.68945C11.377 1.68945 11.748 1.30859 11.748 0.849609C11.748 0.380859 11.377 0 10.9082 0C10.4492 0 10.0684 0.380859 10.0684 0.849609C10.0684 1.30859 10.4492 1.68945 10.9082 1.68945ZM18.3398 3.79883C18.8086 3.79883 19.1797 3.42773 19.1797 2.95898C19.1797 2.5 18.8086 2.11914 18.3398 2.11914C17.8809 2.11914 17.5 2.5 17.5 2.95898C17.5 3.42773 17.8809 3.79883 18.3398 3.79883ZM20.9863 10.9277C21.4453 10.9277 21.8262 10.5566 21.8262 10.0879C21.8262 9.62891 21.4453 9.24805 20.9863 9.24805C20.5176 9.24805 20.1367 9.62891 20.1367 10.0879C20.1367 10.5566 20.5176 10.9277 20.9863 10.9277Z" fill="black" fill-opacity="0.85"/>
  <path d="M4.52148 10.9277C4.98047 10.9277 5.36133 10.5566 5.36133 10.0879C5.36133 9.62891 4.98047 9.24805 4.52148 9.24805C4.0625 9.24805 3.68164 9.62891 3.68164 10.0879C3.68164 10.5566 4.0625 10.9277 4.52148 10.9277ZM6.08398 6.40625C6.54297 6.40625 6.92383 6.02539 6.92383 5.56641C6.92383 5.10742 6.54297 4.72656 6.08398 4.72656C5.625 4.72656 5.24414 5.10742 5.24414 5.56641C5.24414 6.02539 5.625 6.40625 6.08398 6.40625ZM10.9082 5.37109C11.377 5.37109 11.748 4.99023 11.748 4.52148C11.748 4.0625 11.377 3.68164 10.9082 3.68164C10.4492 3.68164 10.0684 4.0625 10.0684 4.52148C10.0684 4.99023 10.4492 5.37109 10.9082 5.37109ZM15.7324 6.40625C16.2012 6.40625 16.582 6.02539 16.582 5.56641C16.582 5.10742 16.2012 4.72656 15.7324 4.72656C15.2734 4.72656 14.8926 5.10742 14.8926 5.56641C14.8926 6.02539 15.2734 6.40625 15.7324 6.40625ZM17.3047 10.9277C17.7637 10.9277 18.1445 10.5566 18.1445 10.0879C18.1445 9.62891 17.7637 9.24805 17.3047 9.24805C16.8359 9.24805 16.4648 9.62891 16.4648 10.0879C16.4648 10.5566 16.8359 10.9277 17.3047 10.9277Z" fill="black" fill-opacity="0.85"/>
  <path d="M8.59375 11.7871L13.2227 11.7871C13.9844 11.7871 14.5312 11.2598 14.5312 10.4883L14.5312 9.56055C14.5312 8.29102 13.6035 7.39258 12.2559 7.39258L9.55078 7.39258C8.21289 7.39258 7.29492 8.29102 7.29492 9.56055L7.29492 10.4883C7.29492 11.2598 7.83203 11.7871 8.59375 11.7871ZM9.0332 10.4199C8.83789 10.4199 8.7207 10.293 8.7207 10.0879L8.7207 9.56055C8.7207 9.0332 9.02344 8.76953 9.59961 8.76953L12.207 8.76953C12.8027 8.76953 13.1055 9.0332 13.1055 9.56055L13.1055 10.0879C13.1055 10.293 12.9785 10.4199 12.7832 10.4199ZM8.59375 17.7148L13.2227 17.7148C13.9844 17.7148 14.5312 17.1777 14.5312 16.4062L14.5312 14.541C14.5312 13.7695 13.9844 13.2422 13.2227 13.2422L8.59375 13.2422C7.83203 13.2422 7.29492 13.7695 7.29492 14.541L7.29492 16.4062C7.29492 17.1777 7.83203 17.7148 8.59375 17.7148ZM8.99414 16.3281C8.79883 16.3281 8.67188 16.2109 8.67188 16.0059L8.67188 14.9414C8.67188 14.7363 8.79883 14.6191 8.99414 14.6191L12.832 14.6191C13.0273 14.6191 13.1543 14.7363 13.1543 14.9414L13.1543 16.0059C13.1543 16.2109 13.0273 16.3281 12.832 16.3281ZM8.93555 14.1406L10.4004 14.1406L10.4004 11.0449L8.93555 11.0449ZM11.4258 14.1406L12.8906 14.1406L12.8906 11.0449L11.4258 11.0449ZM8.74023 23.1543L10.2051 23.1543L10.2051 17.1094L8.74023 17.1094ZM11.6211 23.1543L13.0859 23.1543L13.0859 17.1094L11.6211 17.1094ZM1.02539 24.0527L20.791 24.0527C21.25 24.0527 21.6504 23.6523 21.6504 23.1934C21.6504 22.7148 21.25 22.3438 20.791 22.3438L1.02539 22.3438C0.576172 22.3438 0.175781 22.7148 0.175781 23.1934C0.175781 23.6523 0.576172 24.0527 1.02539 24.0527Z" fill="black" fill-opacity="0.85"/>
 </g>
</svg>
