<?xml version="1.0" ?><!-- Generator: Adobe Illustrator 25.0.0, SVG Export Plug-In . SVG Version: 6.00 Build 0)  --><svg xmlns="http://www.w3.org/2000/svg" xmlns:xlink="http://www.w3.org/1999/xlink" version="1.1" id="Layer_1" x="0px" y="0px" viewBox="0 0 512 512" style="enable-background:new 0 0 512 512;" xml:space="preserve">
<path d="M87.3,512h337.3c58.4,0,87.3-28.9,87.3-86.2V86.2C512,28.9,483.1,0,424.7,0H87.3C29.2,0,0,28.6,0,86.2v339.6  C0,483.4,29.2,512,87.3,512z M44.8,423.6V88.4c0-28.9,15.3-43.7,43.1-43.7h336.2c3.6,0,7.2,0.3,10.6,0.8L45.6,434.7  C45.1,431.3,44.8,427.5,44.8,423.6z M87.9,467.2c-3.6,0-7.2-0.3-10.6-0.8L466.4,77.3c0.6,3.3,0.8,7.2,0.8,11.1v335.1  c0,28.9-15.6,43.7-43.1,43.7H87.9z"/>
</svg>