<?xml version="1.0" ?><!-- Generator: Adobe Illustrator 25.0.0, SVG Export Plug-In . SVG Version: 6.00 Build 0)  --><svg xmlns="http://www.w3.org/2000/svg" xmlns:xlink="http://www.w3.org/1999/xlink" version="1.1" id="Layer_1" x="0px" y="0px" viewBox="0 0 512 512" style="enable-background:new 0 0 512 512;" xml:space="preserve">
<path d="M56.1,512c24.1,0,44.4-15.2,52.4-36.4h295.1c8,21.2,28.5,36.4,52.6,36.4c30.9,0,55.7-25.1,55.7-56c0-24.1-15-44.6-36.4-52.4  V108.6c21.5-8,36.4-28.5,36.4-52.6c0-30.9-24.9-56-55.7-56c-24.1,0-44.6,15.2-52.6,36.7H108.5C100.5,15.2,80.2,0,56.1,0  C25,0,0.1,25.1,0.1,56c0,24.1,15.2,44.6,36.4,52.4v295.3C15.3,411.4,0.1,431.9,0.1,456C0.1,486.9,25,512,56.1,512z M108.5,436.7  c-5.5-15.4-17.9-27.5-33.1-33.1V108.6c15.2-5.8,27.5-17.9,33.1-33.1h295.1c5.8,15.2,17.9,27.3,33.1,32.8v295.3  c-15.2,5.5-27.3,17.6-33.1,33.1H108.5z M153.8,329.6h27.7v28c0,19.3,11.1,30.2,30.2,30.2h147.9c19.1,0,30.2-10.9,30.2-30.2v-145  c0-19.1-11.3-29.9-30.9-29.9h-27v-28.2c0-19.1-11.1-30.2-30.4-30.2H153.8c-19.1,0-30.2,11.1-30.2,30.2v145  C123.7,318.5,134.8,329.6,153.8,329.6z M163.5,298c-5.3,0-8.2-2.9-8.2-8.2V164.1c0-5.1,2.9-8.2,8.2-8.2h128.6c5.3,0,8.2,3.1,8.2,8.2  v18.6h-88.6c-19.1,0-30.2,10.9-30.2,29.9V298H163.5z M221.4,356.1c-5.3,0-8.2-2.9-8.2-8V222.2c0-5.1,2.9-8,8.2-8h127.9  c5.8,0,8.9,2.9,8.9,8v125.9c0,5.1-2.9,8-8.2,8H221.4z"/>
</svg>