<?xml version="1.0" ?><!-- Generator: Adobe Illustrator 25.0.0, SVG Export Plug-In . SVG Version: 6.00 Build 0)  --><svg xmlns="http://www.w3.org/2000/svg" xmlns:xlink="http://www.w3.org/1999/xlink" version="1.1" id="Layer_1" x="0px" y="0px" viewBox="0 0 512 512" style="enable-background:new 0 0 512 512;" xml:space="preserve">
<path d="M308.7,271.4l144.7,82.6c1.3,0.7,2,1.5,2,2.5c0,1-0.7,1.8-2,2.5L266.8,465.7c-4.1,2.3-7.7,3.4-10.8,3.4  c-3.3,0-6.9-1.1-11-3.4L58.4,359c-1.1-0.7-1.7-1.5-1.7-2.5c0-1,0.6-1.8,1.7-2.5l151.3-86.6l-40.7-23.8L32.9,322.5  c-9.8,5.9-16.8,11.4-21.1,16.4c-4.3,5.1-6.4,11-6.4,17.7c0,6.7,2.1,12.6,6.4,17.7c4.3,5.1,11.3,10.5,21.1,16.2l192,111.6  c5.9,3.4,11.3,6,16.2,7.6c4.9,1.6,9.9,2.5,15,2.5c4.9,0,9.8-0.8,14.8-2.5c5-1.6,10.4-4.2,16.3-7.6l191.8-111.6  c10-5.7,17.1-11.1,21.3-16.2c4.3-5.1,6.4-11,6.4-17.7c0-6.7-2.1-12.6-6.4-17.7c-4.2-5.1-11.4-10.5-21.3-16.4l-130-75.3L308.7,271.4z  " class="hierarchical-0:secondary SFSymbolsPreview4D4D4D" style="fill: #4D4D4D;"/>
<path d="M256,310.9c4.9,0,9.8-0.8,14.8-2.5c5-1.6,10.4-4.2,16.3-7.6l191.8-111.3c10-5.9,17.1-11.4,21.3-16.4  c4.3-5.1,6.4-11,6.4-17.7c0-6.7-2.1-12.6-6.4-17.7c-4.2-5.1-11.4-10.5-21.3-16.2L287.1,10.1c-5.9-3.4-11.3-6-16.3-7.6  c-5-1.6-9.9-2.5-14.8-2.5c-5.1,0-10.1,0.8-15,2.5c-4.9,1.6-10.3,4.2-16.2,7.6l-192,111.6c-9.8,5.7-16.8,11.1-21.1,16.2  c-4.3,5.1-6.4,11-6.4,17.7c0,6.7,2.1,12.6,6.4,17.7c4.3,5.1,11.3,10.5,21.1,16.4l192,111.3c5.9,3.4,11.3,6,16.2,7.6  C245.9,310.1,250.9,310.9,256,310.9z" class="hierarchical-1:primary SFSymbolsPreview212121" style="fill: #212121;"/>
</svg>