<?xml version="1.0" encoding="UTF-8"?>
<!--Generator: Apple Native CoreSVG 326-->
<!DOCTYPE svg
PUBLIC "-//W3C//DTD SVG 1.1//EN"
       "http://www.w3.org/Graphics/SVG/1.1/DTD/svg11.dtd">
<svg version="1.1" xmlns="http://www.w3.org/2000/svg" xmlns:xlink="http://www.w3.org/1999/xlink" viewBox="0 0 28.6328 38.252">
 <g>
  <rect height="38.252" opacity="0" width="28.6328" x="0" y="0"/>
  <path d="M28.2715 19.2969L28.2715 31.8164C28.2715 34.3066 27.002 35.5859 24.4727 35.5859L9.99023 35.5859C7.4707 35.5859 6.18164 34.3164 6.18164 31.8164L6.18164 29.9414L7.91992 29.9414L7.91992 31.7285C7.91992 33.125 8.66211 33.8477 10.0195 33.8477L24.4434 33.8477C25.7812 33.8477 26.543 33.125 26.543 31.7285L26.543 19.3945C26.543 17.9883 25.7812 17.2656 24.4434 17.2656L22.0898 17.2656L22.0898 15.5371L24.4727 15.5371C27.002 15.5371 28.2715 16.8164 28.2715 19.2969Z" fill="black" fill-opacity="0.85"/>
  <path d="M22.0898 13.6621L22.0898 26.1816C22.0898 28.6719 20.8203 29.9414 18.291 29.9414L3.79883 29.9414C1.2793 29.9414 0 28.6816 0 26.1816L0 13.6621C0 11.1621 1.2793 9.90234 3.79883 9.90234L7.98828 9.90234L7.98828 11.6309L3.83789 11.6309C2.4707 11.6309 1.72852 12.3535 1.72852 13.7598L1.72852 26.0938C1.72852 27.4902 2.4707 28.2129 3.83789 28.2129L18.252 28.2129C19.5898 28.2129 20.3613 27.4902 20.3613 26.0938L20.3613 13.7598C20.3613 12.3535 19.5898 11.6309 18.252 11.6309L14.1016 11.6309L14.1016 9.90234L18.291 9.90234C20.8203 9.90234 22.0898 11.1816 22.0898 13.6621Z" fill="black" fill-opacity="0.85"/>
  <path d="M11.0449 20.1855C11.5039 20.1855 11.9043 19.8047 11.9043 19.3555L11.9043 6.25977L11.8359 4.4043L12.6074 5.20508L14.7266 7.44141C14.8828 7.60742 15.1074 7.69531 15.3125 7.69531C15.7617 7.69531 16.1035 7.37305 16.1035 6.93359C16.1035 6.70898 16.0059 6.5332 15.8496 6.37695L11.6699 2.30469C11.4551 2.08984 11.2598 2.02148 11.0449 2.02148C10.8301 2.02148 10.6348 2.08984 10.4199 2.30469L6.24023 6.37695C6.07422 6.5332 5.98633 6.70898 5.98633 6.93359C5.98633 7.37305 6.30859 7.69531 6.75781 7.69531C6.96289 7.69531 7.19727 7.60742 7.35352 7.44141L9.48242 5.20508L10.2539 4.4043L10.1855 6.25977L10.1855 19.3555C10.1855 19.8047 10.5859 20.1855 11.0449 20.1855Z" fill="black" fill-opacity="0.85"/>
 </g>
</svg>
