<?xml version="1.0" ?><!-- Generator: Adobe Illustrator 25.0.0, SVG Export Plug-In . SVG Version: 6.00 Build 0)  --><svg xmlns="http://www.w3.org/2000/svg" xmlns:xlink="http://www.w3.org/1999/xlink" version="1.1" id="Layer_1" x="0px" y="0px" viewBox="0 0 512 512" style="enable-background:new 0 0 512 512;" xml:space="preserve">
<path d="M0,424.7c0,29.3,7.2,51.2,21.6,65.6C35.9,504.8,57.5,512,86.2,512h339.6c28.7,0,50.3-7.2,64.7-21.7  c14.4-14.5,21.6-36.3,21.6-65.6V87.3c0-28.9-7.2-50.7-21.6-65.4C476.1,7.3,454.5,0,425.8,0H86.2C57.5,0,35.9,7.3,21.6,22  C7.2,36.6,0,58.4,0,87.3V424.7z M44.8,424.1v-168h422.4v168c0,13.7-3.7,24.3-11,31.8c-7.3,7.5-18.2,11.3-32.7,11.3H88.4  c-14.5,0-25.4-3.8-32.7-11.3C48.4,448.5,44.8,437.8,44.8,424.1z"/>
</svg>