<?xml version="1.0" ?><!-- Generator: Adobe Illustrator 25.0.0, SVG Export Plug-In . SVG Version: 6.00 Build 0)  --><svg xmlns="http://www.w3.org/2000/svg" xmlns:xlink="http://www.w3.org/1999/xlink" version="1.1" id="Layer_1" x="0px" y="0px" viewBox="0 0 512 512" style="enable-background:new 0 0 512 512;" xml:space="preserve">
<path d="M0,489.8C0,503.1,8.9,512,22.2,512H490c13.3,0,22-8.9,22-22.2V22c0-13.3-8.6-22-22-22H22.2C8.9,0,0,8.6,0,22V489.8z   M52.8,44.8h180.8v188.8H44.8V52.8C44.8,46.7,47,44.8,52.8,44.8z M278.4,233.6V44.8h180.8c6.1,0,8.1,1.9,8.1,8.1v180.8H278.4z   M459.2,467.2H278.4V278.4h188.8v180.8C467.2,465,465.3,467.2,459.2,467.2z M44.8,459.2V278.4h188.8v188.8H52.8  C47,467.2,44.8,465,44.8,459.2z"/>
</svg>