<?xml version="1.0" ?><!-- Generator: Adobe Illustrator 25.0.0, SVG Export Plug-In . SVG Version: 6.00 Build 0)  --><svg xmlns="http://www.w3.org/2000/svg" xmlns:xlink="http://www.w3.org/1999/xlink" version="1.1" id="Layer_1" x="0px" y="0px" viewBox="0 0 512 512" style="enable-background:new 0 0 512 512;" xml:space="preserve">
<path d="M34.4,241.2h82.1c22.9,0,34.4-11.5,34.4-35.3v-80.4c0-23.8-11.5-35.1-34.4-35.1H34.4C11.5,90.3,0,101.7,0,125.4v80.4  C0,229.6,11.5,241.2,34.4,241.2z M215.1,241.2h81.9c22.9,0,34.4-11.5,34.4-35.3v-80.4c0-23.8-11.5-35.1-34.4-35.1h-81.9  c-23,0-34.6,11.3-34.6,35.1v80.4C180.5,229.6,192,241.2,215.1,241.2z M395.6,241.2h82.1c22.9,0,34.4-11.5,34.4-35.3v-80.4  c0-23.8-11.5-35.1-34.4-35.1h-82.1c-22.9,0-34.4,11.3-34.4,35.1v80.4C361.2,229.6,372.7,241.2,395.6,241.2z M34.4,421.7h82.1  c22.9,0,34.4-11.3,34.4-35.1v-80.6c0-23.6-11.5-35.1-34.4-35.1H34.4C11.5,270.8,0,282.4,0,305.9v80.6C0,410.3,11.5,421.7,34.4,421.7  z M215.1,421.7h81.9c22.9,0,34.4-11.3,34.4-35.1v-80.6c0-23.6-11.5-35.1-34.4-35.1h-81.9c-23,0-34.6,11.5-34.6,35.1v80.6  C180.5,410.3,192,421.7,215.1,421.7z M395.6,421.7h82.1c22.9,0,34.4-11.3,34.4-35.1v-80.6c0-23.6-11.5-35.1-34.4-35.1h-82.1  c-22.9,0-34.4,11.5-34.4,35.1v80.6C361.2,410.3,372.7,421.7,395.6,421.7z"/>
</svg>