<?xml version="1.0" encoding="UTF-8"?>
<!--Generator: Apple Native CoreSVG 326-->
<!DOCTYPE svg
PUBLIC "-//W3C//DTD SVG 1.1//EN"
       "http://www.w3.org/Graphics/SVG/1.1/DTD/svg11.dtd">
<svg version="1.1" xmlns="http://www.w3.org/2000/svg" xmlns:xlink="http://www.w3.org/1999/xlink" viewBox="0 0 23.3203 22.9785">
 <g>
  <rect height="22.9785" opacity="0" width="23.3203" x="0" y="0"/>
  <path d="M11.4746 5.08789C12.0215 5.08789 12.4707 4.63867 12.4707 4.0918C12.4707 3.55469 12.0215 3.10547 11.4746 3.10547C10.9375 3.10547 10.4883 3.55469 10.4883 4.0918C10.4883 4.63867 10.9375 5.08789 11.4746 5.08789ZM11.4746 8.7793C12.0215 8.7793 12.4707 8.33008 12.4707 7.7832C12.4707 7.24609 12.0215 6.79688 11.4746 6.79688C10.9375 6.79688 10.4883 7.24609 10.4883 7.7832C10.4883 8.33008 10.9375 8.7793 11.4746 8.7793ZM11.4746 12.4707C12.0215 12.4707 12.4707 12.0215 12.4707 11.4844C12.4707 10.9375 12.0215 10.4883 11.4746 10.4883C10.9375 10.4883 10.4883 10.9375 10.4883 11.4844C10.4883 12.0215 10.9375 12.4707 11.4746 12.4707ZM11.4746 16.1621C12.0215 16.1621 12.4707 15.7129 12.4707 15.1758C12.4707 14.6289 12.0215 14.1895 11.4746 14.1895C10.9375 14.1895 10.4883 14.6289 10.4883 15.1758C10.4883 15.7129 10.9375 16.1621 11.4746 16.1621ZM11.4746 19.8535C12.0215 19.8535 12.4707 19.4141 12.4707 18.8672C12.4707 18.3301 12.0215 17.8809 11.4746 17.8809C10.9375 17.8809 10.4883 18.3301 10.4883 18.8672C10.4883 19.4141 10.9375 19.8535 11.4746 19.8535ZM4.0918 12.4707C4.62891 12.4707 5.07812 12.0215 5.07812 11.4844C5.07812 10.9375 4.62891 10.4883 4.0918 10.4883C3.54492 10.4883 3.10547 10.9375 3.10547 11.4844C3.10547 12.0215 3.54492 12.4707 4.0918 12.4707ZM7.7832 12.4707C8.33008 12.4707 8.76953 12.0215 8.76953 11.4844C8.76953 10.9375 8.33008 10.4883 7.7832 10.4883C7.24609 10.4883 6.79688 10.9375 6.79688 11.4844C6.79688 12.0215 7.24609 12.4707 7.7832 12.4707ZM15.1758 12.4707C15.7129 12.4707 16.1621 12.0215 16.1621 11.4844C16.1621 10.9375 15.7129 10.4883 15.1758 10.4883C14.6289 10.4883 14.1797 10.9375 14.1797 11.4844C14.1797 12.0215 14.6289 12.4707 15.1758 12.4707ZM18.8672 12.4707C19.4043 12.4707 19.8535 12.0215 19.8535 11.4844C19.8535 10.9375 19.4043 10.4883 18.8672 10.4883C18.3203 10.4883 17.8809 10.9375 17.8809 11.4844C17.8809 12.0215 18.3203 12.4707 18.8672 12.4707ZM0 22.0508C0 22.5977 0.361328 22.959 0.908203 22.959L22.0508 22.959C22.5977 22.959 22.959 22.5977 22.959 22.0508L22.959 0.908203C22.959 0.361328 22.5977 0 22.0508 0L0.908203 0C0.361328 0 0 0.361328 0 0.908203ZM1.72852 20.8887L1.72852 2.07031C1.72852 1.82617 1.82617 1.72852 2.07031 1.72852L20.8887 1.72852C21.1328 1.72852 21.2305 1.82617 21.2305 2.07031L21.2305 20.8887C21.2305 21.1328 21.1328 21.2305 20.8887 21.2305L2.07031 21.2305C1.82617 21.2305 1.72852 21.1328 1.72852 20.8887Z" fill="black" fill-opacity="0.85"/>
 </g>
</svg>
