<?xml version="1.0" encoding="UTF-8"?>
<!--Generator: Apple Native CoreSVG 326-->
<!DOCTYPE svg
PUBLIC "-//W3C//DTD SVG 1.1//EN"
       "http://www.w3.org/Graphics/SVG/1.1/DTD/svg11.dtd">
<svg version="1.1" xmlns="http://www.w3.org/2000/svg" xmlns:xlink="http://www.w3.org/1999/xlink" viewBox="0 0 23.3203 22.9785">
 <g>
  <rect height="22.9785" opacity="0" width="23.3203" x="0" y="0"/>
  <path d="M10.5273 22.9785L10.5273 13.8477C10.5273 11.7871 11.8164 10.5469 13.9551 10.5469L22.959 10.5469L22.959 12.2754L13.9844 12.2754C12.8906 12.2754 12.2559 12.8809 12.2559 13.9355L12.2559 22.9785ZM3.79883 22.9688L19.1504 22.9688C21.6797 22.9688 22.959 21.6895 22.959 19.209L22.959 3.7793C22.959 1.28906 21.6797 0.00976562 19.1504 0.00976562L3.79883 0.00976562C1.2793 0.00976562 0 1.2793 0 3.7793L0 19.209C0 21.709 1.2793 22.9688 3.79883 22.9688Z" fill="black" fill-opacity="0.85"/>
 </g>
</svg>
