<?xml version="1.0" ?><!-- Generator: Adobe Illustrator 25.0.0, SVG Export Plug-In . SVG Version: 6.00 Build 0)  --><svg xmlns="http://www.w3.org/2000/svg" xmlns:xlink="http://www.w3.org/1999/xlink" version="1.1" id="Layer_1" x="0px" y="0px" viewBox="0 0 512 512" style="enable-background:new 0 0 512 512;" xml:space="preserve">
<path d="M68.2,455.9h375.6c22.9,0,40-5.6,51.2-16.8c11.3-11.2,16.9-28,16.9-50.3V123.4c0-22.3-5.6-39.1-16.9-50.4  c-11.3-11.3-28.4-16.9-51.2-16.9H68.2C45.5,56.1,28.4,61.7,17,73C5.7,84.2,0,101,0,123.4v265.3c0,22.3,5.7,39,17,50.3  C28.4,450.3,45.5,455.9,68.2,455.9z" class="hierarchical-0:tertiary SFSymbolsPreview8E8E8E" style="fill: #8E8E8E;"/>
<path d="M88.8,350.1c-10.7,0-18.7-2.6-24-7.9c-5.3-5.3-7.9-13.1-7.9-23.6V193.8c0-10.4,2.6-18.3,7.9-23.6c5.3-5.3,13.3-7.9,24-7.9  h123.8c10.9,0,18.9,2.6,24.2,7.9c5.3,5.3,7.9,13.1,7.9,23.6v124.9c0,10.4-2.6,18.3-7.9,23.6c-5.3,5.3-13.4,7.9-24.2,7.9H88.8z   M91.2,325.2h119.2c6.2,0,9.3-2.9,9.3-8.7V196c0-5.8-3.1-8.7-9.3-8.7H91.2c-3.2,0-5.5,0.7-7.1,2.1c-1.5,1.4-2.3,3.6-2.3,6.6v120.5  c0,2.9,0.8,5.1,2.3,6.5C85.7,324.4,88,325.2,91.2,325.2z M371.7,347.7c-18.2,0-34.2-3.8-47.9-11.4c-13.7-7.6-24.4-18.3-32-32  c-7.7-13.8-11.5-29.7-11.5-48c0-18.2,3.8-34.3,11.5-48.1c7.7-13.8,18.3-24.6,31.9-32.4c13.6-7.7,29.4-11.6,47.3-11.6  c17.4,0,32.7,3.5,46,10.4c13.3,6.9,23.7,16.6,31.2,29.1c7.5,12.4,11.2,26.9,11.2,43.2c0,17.8-3.8,32.1-11.4,42.8  c-7.6,10.7-17.7,16.1-30.3,16.1c-11.9,0-20.3-4.4-25.4-13.2c-6.7,8.8-15.5,13.2-26.5,13.2c-12.3,0-22.3-4.6-29.9-13.7  c-7.6-9.1-11.4-21-11.4-35.6c0-14.2,3.8-25.9,11.4-35.2c7.6-9.3,17.3-13.9,29.2-13.9c5.2,0,9.7,0.9,13.6,2.6  c3.8,1.7,7.1,4.1,9.7,7.2v-1.7c1.6-5.4,5.2-8,10.9-8c3.3,0,6,1.1,8.1,3.4c2.1,2.2,3.1,5.1,3.1,8.6V275c0,6.1,3.1,9.1,9.3,9.1  c5.4,0,9.6-3.2,12.7-9.6c3.1-6.4,4.7-15.1,4.7-26.3c0-12.4-2.8-23.3-8.4-32.6c-5.6-9.3-13.3-16.5-23.2-21.7  c-9.9-5.2-21.5-7.8-34.6-7.8c-13.2,0-24.8,3-34.8,8.9c-10.1,5.9-17.9,14.2-23.7,24.8c-5.7,10.6-8.6,22.8-8.6,36.7  c0,14.2,2.9,26.4,8.6,36.7c5.7,10.3,13.8,18.2,24.3,23.7s23,8.3,37.5,8.3c6.9,0,12.3-0.5,16.2-1.4c3.8-0.9,7.4-1.7,10.7-2.3  c1.6-0.3,2.9-0.5,4-0.8c1.1-0.2,2.2-0.3,3.4-0.3c2.9,0,5.3,1,7.2,2.9c1.9,2,2.8,4.4,2.8,7.3c0,5.2-3.3,9.3-10,12.2  c-4.3,1.7-9.8,3-16.3,3.8C385.8,347.3,379,347.7,371.7,347.7z M369.3,283c6.1,0,10.9-2.5,14.4-7.4c3.5-4.9,5.3-11.7,5.3-20.2  c0-8-1.8-14.3-5.3-18.9c-3.5-4.6-8.3-6.9-14.2-6.9c-6.2,0-11.1,2.3-14.7,6.9c-3.5,4.6-5.3,11.1-5.3,19.5c0,8.4,1.8,15,5.3,19.8  C358.5,280.6,363.3,283,369.3,283z" class="hierarchical-1:primary SFSymbolsPreview212121" style="fill: #212121;"/>
</svg>