<?xml version="1.0" ?><!-- Generator: Adobe Illustrator 25.0.0, SVG Export Plug-In . SVG Version: 6.00 Build 0)  --><svg xmlns="http://www.w3.org/2000/svg" xmlns:xlink="http://www.w3.org/1999/xlink" version="1.1" id="Layer_1" x="0px" y="0px" viewBox="0 0 512 512" style="enable-background:new 0 0 512 512;" xml:space="preserve">
<path d="M215.4,107.1h132.8C317.8,47.7,255.9,7,184.5,7C82.6,7,0,89.6,0,191.5c0,77.2,47,142.9,114.1,170.8V207.5  C114.1,143.8,151.5,107.1,215.4,107.1z M144.7,435.3c0,46.4,23.6,69.8,70.7,69.8h226c47,0,70.7-23.4,70.7-69.8V207.5  c0-46.4-23.6-69.8-70.7-69.8h-226c-47,0-70.7,23.4-70.7,69.8V435.3z"/>
</svg>