<?xml version="1.0" ?><!-- Generator: Adobe Illustrator 25.0.0, SVG Export Plug-In . SVG Version: 6.00 Build 0)  --><svg xmlns="http://www.w3.org/2000/svg" xmlns:xlink="http://www.w3.org/1999/xlink" version="1.1" id="Layer_1" x="0px" y="0px" viewBox="0 0 512 512" style="enable-background:new 0 0 512 512;" xml:space="preserve">
<path d="M0,146.6h44.8V88.4c0-28.9,15.3-43.7,43.1-43.7h57.6V0H87.3C29.2,0,0,28.6,0,86.2V146.6z M183.6,44.8h144.9V0H183.6V44.8z   M467.2,146.6H512V86.2C512,28.9,482.8,0,424.7,0h-58.1v44.8h57.6c27.5,0,43.1,14.7,43.1,43.7V146.6z M108.2,434.7h295.6  c22,0,31.1-8.9,31.1-31.4V108.7c0-22.5-9.2-31.7-31.1-31.7H108.2c-22,0-30.9,9.2-30.9,31.7v294.5C77.3,425.8,86.2,434.7,108.2,434.7  z M467.2,327.3H512V184.7h-44.8V327.3z M0,327.3h44.8V184.7H0V327.3z M366.5,512h58.1c58.1,0,87.3-28.9,87.3-86.2v-60.3h-44.8v58.1  c0,28.9-15.6,43.7-43.1,43.7h-57.6V512z M87.3,512h58.1v-44.8H87.9c-27.8,0-43.1-14.7-43.1-43.7v-58.1H0v60.3  C0,483.4,29.2,512,87.3,512z M183.6,512h144.9v-44.8H183.6V512z"/>
</svg>