<?xml version="1.0" ?><!-- Generator: Adobe Illustrator 25.0.0, SVG Export Plug-In . SVG Version: 6.00 Build 0)  --><svg xmlns="http://www.w3.org/2000/svg" xmlns:xlink="http://www.w3.org/1999/xlink" version="1.1" id="Layer_1" x="0px" y="0px" viewBox="0 0 512 512" style="enable-background:new 0 0 512 512;" xml:space="preserve">
<path d="M39.5,352.8h114.8c12.3,0,22-3.4,29-10.3c7-6.9,10.5-16.4,10.5-28.5V197.9c0-12.1-3.5-21.6-10.5-28.5  c-7-6.9-16.7-10.3-29-10.3H39.5c-12.3,0-22,3.4-29,10.3C3.5,176.2,0,185.7,0,197.9V314c0,12.1,3.5,21.6,10.5,28.5  C17.5,349.4,27.2,352.8,39.5,352.8z M256,428.9c3.6,0,6.6-1.1,8.8-3.2c2.3-2.1,3.4-4.9,3.4-8.4V94.5c0-3.4-1.1-6.2-3.4-8.3  c-2.3-2.1-5.2-3.1-8.8-3.1s-6.6,1-8.8,3.1c-2.2,2.1-3.3,4.9-3.3,8.3v322.8c0,3.4,1.1,6.2,3.3,8.4C249.4,427.8,252.4,428.9,256,428.9  z" class="hierarchical-0:primary SFSymbolsPreview212121" style="fill: #212121;"/>
<path d="M357.7,352.8h114.8c12.3,0,22-3.4,29-10.3c7-6.9,10.5-16.4,10.5-28.5V197.9c0-12.1-3.5-21.6-10.5-28.5  c-7-6.9-16.7-10.3-29-10.3H357.7c-12.3,0-22,3.4-29,10.3c-7,6.9-10.5,16.4-10.5,28.5V314c0,12.1,3.5,21.6,10.5,28.5  C335.7,349.4,345.4,352.8,357.7,352.8z M358.2,327.9c-4.7,0-8.4-1.4-11.1-4.1c-2.6-2.7-4-6.4-4-11.2V199.4c0-4.7,1.3-8.5,4-11.2  c2.6-2.8,6.3-4.1,11.1-4.1H472c4.7,0,8.4,1.4,11.1,4.1c2.6,2.8,4,6.5,4,11.2v113.3c0,4.7-1.3,8.5-4,11.2c-2.6,2.7-6.3,4.1-11.1,4.1  H358.2z" class="hierarchical-1:secondary SFSymbolsPreview4D4D4D" style="fill: #4D4D4D;"/>
</svg>