<?xml version="1.0" ?><!-- Generator: Adobe Illustrator 25.0.0, SVG Export Plug-In . SVG Version: 6.00 Build 0)  --><svg xmlns="http://www.w3.org/2000/svg" xmlns:xlink="http://www.w3.org/1999/xlink" version="1.1" id="Layer_1" x="0px" y="0px" viewBox="0 0 512 512" style="enable-background:new 0 0 512 512;" xml:space="preserve">
<path d="M256.1,167.4c9.8,0,17.9-8.2,17.9-17.7v-66l-1.4-34l15.2,16.1l34.5,36.7c3.2,3.6,7.9,5.4,12.2,5.4c9.3,0,16.6-6.8,16.6-16.1  c0-4.8-2-8.4-5.4-11.8L269,6.1c-4.5-4.5-8.4-6.1-12.9-6.1c-4.8,0-8.6,1.6-13.2,6.1l-76.7,74c-3.4,3.4-5.4,7-5.4,11.8  c0,9.3,6.8,16.1,16.3,16.1c4.3,0,9.3-1.8,12.5-5.4l34.5-36.7l15.2-16.1l-1.4,34v66C238,159.2,246.4,167.4,256.1,167.4z M125.9,512  h260.2c47.4,0,71.2-23.6,71.2-70.3V219.8c0-46.7-23.8-70.3-71.2-70.3H279.3v167.2c0,12.5-10.7,22.7-23.1,22.7  c-12.7,0-23.4-10.2-23.4-22.7V149.5H125.9c-47.4,0-71.2,23.6-71.2,70.3v221.9C54.7,488.4,78.5,512,125.9,512z"/>
</svg>