<?xml version="1.0" ?><!-- Generator: Adobe Illustrator 25.0.0, SVG Export Plug-In . SVG Version: 6.00 Build 0)  --><svg xmlns="http://www.w3.org/2000/svg" xmlns:xlink="http://www.w3.org/1999/xlink" version="1.1" id="Layer_1" x="0px" y="0px" viewBox="0 0 512 512" style="enable-background:new 0 0 512 512;" xml:space="preserve">
<path d="M327.3,264.8L477,178c18.4-10.8,25.8-19.4,25.8-32.1c0-12.5-7.4-21-25.8-31.8L296.4,9.5C285.4,3,276.4,0,267.1,0  c-9.5,0-18.2,3-29.3,9.5L132.9,70.1l27.9,28.1L257,43.4c3.7-2.1,6.9-3.2,10.1-3.2s6.5,1.2,10.1,3.2l175.5,100.6  c1.2,0.5,1.8,1.2,1.8,2.1c0,1.2-0.7,1.8-1.8,2.3l-153.6,88.1L327.3,264.8z M472.6,499.1c6.7,6.7,18.2,6.9,25.1,0  c6.7-7.1,6.9-18.2,0-25.1L39.5,15.9C32.6,9,21.1,9,14.1,15.9c-6.7,6.7-6.7,18.5,0,25.1L472.6,499.1z M173.7,245.4l-125-125  c-12.7,8.8-17.5,15.9-17.5,26.3c0,12,6.7,20.1,24.4,30.4L173.7,245.4z M267.1,405.9c8.3,0,15.5-3.9,25.1-9.7l24-14.3l-27.2-27.2  l-13.1,7.6c-3.2,1.8-6.2,3.2-8.8,3.2s-5.5-1.4-8.8-3.2L44.6,238.9c-6.5,3-13.4,10.8-13.4,20.3c0,7.1,4.2,15,12.7,20.1L242,396.2  C251.7,402,258.6,405.9,267.1,405.9z M397,334.4l93.4-55.1c8.8-5.3,12.5-12.9,12.5-20.1c0-9.5-6.9-17.3-13.1-20.3l-119.2,68.7  L397,334.4z M267.1,512c8.3,0,15.5-3.9,25.1-9.7l91.1-53.5l-27-26.8l-80.5,46.6c-3.2,1.8-6.2,3.2-8.8,3.2s-5.5-1.4-8.8-3.2L44.6,345  c-6.5,3.2-13.4,10.8-13.4,20.3c0,7.1,4.2,15.2,12.7,20.1L242,502.3C251.7,508.1,258.6,512,267.1,512z M463.6,401.3l26.8-15.9  c8.5-4.8,12.5-12.9,12.5-20.1c0-9.5-6.9-17.1-13.1-20.3l-52.1,30.2L463.6,401.3z"/>
</svg>