<?xml version="1.0" encoding="UTF-8"?>
<!--Generator: Apple Native CoreSVG 326-->
<!DOCTYPE svg
PUBLIC "-//W3C//DTD SVG 1.1//EN"
       "http://www.w3.org/Graphics/SVG/1.1/DTD/svg11.dtd">
<svg version="1.1" xmlns="http://www.w3.org/2000/svg" xmlns:xlink="http://www.w3.org/1999/xlink" viewBox="0 0 23.3203 22.9785">
 <g>
  <rect height="22.9785" opacity="0" width="23.3203" x="0" y="0"/>
  <path d="M1.16211 10.6348L1.16211 12.3633L21.8359 12.3633L21.8359 10.6348ZM0 3.82812L0 19.1797C0 21.6992 1.2793 22.9785 3.75977 22.9785L19.1895 22.9785C21.6797 22.9785 22.959 21.6992 22.959 19.1797L22.959 3.82812C22.959 1.30859 21.6895 0.0195312 19.1895 0.0195312L3.75977 0.0195312C1.25977 0.0195312 0 1.30859 0 3.82812ZM1.72852 3.85742C1.72852 2.49023 2.45117 1.74805 3.85742 1.74805L19.1016 1.74805C20.5078 1.74805 21.2305 2.49023 21.2305 3.85742L21.2305 19.1406C21.2305 20.4785 20.5078 21.25 19.1016 21.25L3.85742 21.25C2.45117 21.25 1.72852 20.4785 1.72852 19.1406Z" fill="black" fill-opacity="0.85"/>
 </g>
</svg>
