<?xml version="1.0" encoding="UTF-8"?>
<!--Generator: Apple Native CoreSVG 326-->
<!DOCTYPE svg
PUBLIC "-//W3C//DTD SVG 1.1//EN"
       "http://www.w3.org/Graphics/SVG/1.1/DTD/svg11.dtd">
<svg version="1.1" xmlns="http://www.w3.org/2000/svg" xmlns:xlink="http://www.w3.org/1999/xlink" viewBox="0 0 32.3242 33.6035">
 <g>
  <rect height="33.6035" opacity="0" width="32.3242" x="0" y="0"/>
  <path d="M15.4004 28.6816C15.5957 28.7891 15.8008 28.8574 15.9766 28.8574C16.1621 28.8574 16.3672 28.7891 16.5625 28.6816L21.1108 26.0465L22.4203 27.3549L17.4023 30.2637C16.8652 30.5762 16.4453 30.7324 15.9766 30.7324C15.5176 30.7324 15.0977 30.5762 14.5605 30.2637L4.57031 24.4727C3.68164 23.9551 3.31055 23.5449 3.31055 22.9102C3.31055 22.5306 3.44742 22.2302 3.75507 21.9348ZM28.6523 22.9102C28.6523 23.5449 28.2812 23.9551 27.3926 24.4727L26.3532 25.0751L25.0449 23.7673L28.2078 21.9348C28.5155 22.2302 28.6523 22.5306 28.6523 22.9102Z" fill="black" fill-opacity="0.85"/>
  <path d="M15.4004 22.793C15.5957 22.9004 15.8008 22.9688 15.9766 22.9688C16.1621 22.9688 16.3672 22.9004 16.5625 22.793L17.3805 22.3191L18.6906 23.6282L17.4023 24.375C16.8652 24.6875 16.4453 24.8438 15.9766 24.8438C15.5176 24.8438 15.0977 24.6875 14.5605 24.375L4.57031 18.584C3.68164 18.0566 3.31055 17.6465 3.31055 17.0215C3.31055 16.6419 3.44742 16.3416 3.75507 16.0461ZM28.6523 17.0215C28.6523 17.6465 28.2812 18.0566 27.3926 18.584L22.6245 21.3479L21.3154 20.0393L28.2078 16.0461C28.5155 16.3416 28.6523 16.6419 28.6523 17.0215Z" fill="black" fill-opacity="0.85"/>
  <path d="M17.4023 3.54492L27.3926 9.32617C28.2812 9.85352 28.6523 10.2637 28.6523 10.8887C28.6523 11.5234 28.2812 11.9336 27.3926 12.4512L18.7412 17.4661L8.38799 7.11692L14.5605 3.54492C15.0977 3.22266 15.5176 3.07617 15.9766 3.07617C16.4453 3.07617 16.8652 3.22266 17.4023 3.54492ZM11.5593 16.5025L4.57031 12.4512C3.68164 11.9336 3.31055 11.5234 3.31055 10.8887C3.31055 10.2929 3.6478 9.89229 4.45034 9.39907Z" fill="black" fill-opacity="0.85"/>
  <path d="M27.2363 30.2441C27.5586 30.5664 28.1055 30.5762 28.418 30.2441C28.7402 29.9121 28.7402 29.3945 28.418 29.0723L3.48633 4.15039C3.16406 3.82812 2.63672 3.81836 2.30469 4.15039C1.98242 4.46289 1.98242 5.00977 2.30469 5.32227Z" fill="black" fill-opacity="0.85"/>
 </g>
</svg>
