<?xml version="1.0" ?><!-- Generator: Adobe Illustrator 25.0.0, SVG Export Plug-In . SVG Version: 6.00 Build 0)  --><svg xmlns="http://www.w3.org/2000/svg" xmlns:xlink="http://www.w3.org/1999/xlink" version="1.1" id="Layer_1" x="0px" y="0px" viewBox="0 0 512 512" style="enable-background:new 0 0 512 512;" xml:space="preserve">
<path d="M0,87v337.6C0,482.8,28.9,512,86.2,512h339.6c57.3,0,86.2-29.2,86.2-87.3V87c0-57.8-28.6-87-86.2-87H86.2  C28.6,0,0,29.2,0,87z M44.8,87.9c0-27.8,14.7-43.1,43.7-43.1h335.1c28.9,0,43.7,15.3,43.7,43.1v145.7H44.8V87.9z M88.4,467.2  c-28.9,0-43.7-15.9-43.7-43.4V278.4h422.4v145.5c0,27.5-14.7,43.4-43.7,43.4H88.4z"/>
</svg>