<?xml version="1.0" encoding="UTF-8"?>
<!--Generator: Apple Native CoreSVG 326-->
<!DOCTYPE svg
PUBLIC "-//W3C//DTD SVG 1.1//EN"
       "http://www.w3.org/Graphics/SVG/1.1/DTD/svg11.dtd">
<svg version="1.1" xmlns="http://www.w3.org/2000/svg" xmlns:xlink="http://www.w3.org/1999/xlink" viewBox="0 0 29.7559 29.2823">
 <g>
  <rect height="29.2823" opacity="0" width="29.7559" x="0" y="0"/>
  <path d="M5.69806 7.58705L4.68752 8.17141C4.30666 8.39602 4.16994 8.5718 4.16994 9.06008L4.16994 20.3687C4.16994 20.5249 4.2676 20.5933 4.42385 20.5054L7.47072 18.7462L7.47072 20.8159L5.13674 22.1655C3.58401 23.064 2.41213 22.4683 2.41213 20.5835L2.41213 9.00149C2.41213 7.83938 2.78322 7.20461 3.79885 6.60891L4.38212 6.27217ZM16.5235 2.09719L16.5235 5.15424L14.7754 6.16512L14.7754 2.67336C14.7754 2.49758 14.6387 2.41945 14.4824 2.50735L9.63259 5.31185L8.31931 3.99911L13.9649 0.739767C15.127 0.0757046 16.5235 0.534689 16.5235 2.09719Z" fill="black" fill-opacity="0.85"/>
  <path d="M9.45491 11.3409C9.28524 11.4999 9.21877 11.6884 9.21877 12.0288L9.21877 23.3472C9.21877 23.4937 9.31643 23.562 9.47268 23.4741L12.8711 21.5139L12.8711 23.587L10.1953 25.1343C8.63283 26.0327 7.47072 25.4468 7.47072 23.5523L7.47072 11.9702C7.47072 11.1149 7.67174 10.5453 8.18393 10.0709ZM21.5821 5.06594L21.5821 8.51596L19.8242 9.53249L19.8242 5.64211C19.8242 5.46633 19.6875 5.3882 19.5313 5.48586L13.3667 9.04446L12.0582 7.73647L19.0235 3.70852C20.1856 3.04445 21.5821 3.50344 21.5821 5.06594Z" fill="black" fill-opacity="0.85"/>
  <path d="M14.6192 16.5009L14.6192 26.5113C14.6192 26.6675 14.7168 26.7359 14.8731 26.648L21.1506 23.0271L22.4601 24.3356L15.5957 28.2984C14.0332 29.1968 12.8711 28.6109 12.8711 26.7261L12.8711 15.1441C12.8711 15.0126 12.8759 14.8877 12.8865 14.7697ZM26.9824 8.23L26.9824 20.0952C26.9824 20.9548 26.8249 21.5094 26.3208 21.9933L25.0449 20.7179C25.1836 20.5589 25.2246 20.3699 25.2246 20.0659L25.2246 8.80617C25.2246 8.64016 25.0879 8.56203 24.9414 8.64992L17.3559 13.032L16.0427 11.7193L24.4238 6.87258C25.586 6.20852 26.9824 6.67727 26.9824 8.23Z" fill="black" fill-opacity="0.85"/>
  <path d="M26.9727 26.9214C27.2949 27.2534 27.8321 27.2534 28.1543 26.9214C28.4766 26.5991 28.4766 26.0718 28.1543 25.7495L4.00393 1.60891C3.68166 1.28664 3.15432 1.27688 2.81252 1.60891C2.50002 1.92141 2.50002 2.46828 2.81252 2.78078Z" fill="black" fill-opacity="0.85"/>
 </g>
</svg>
