<?xml version="1.0" ?><!-- Generator: Adobe Illustrator 25.0.0, SVG Export Plug-In . SVG Version: 6.00 Build 0)  --><svg xmlns="http://www.w3.org/2000/svg" xmlns:xlink="http://www.w3.org/1999/xlink" version="1.1" id="Layer_1" x="0px" y="0px" viewBox="0 0 512 512" style="enable-background:new 0 0 512 512;" xml:space="preserve">
<path d="M256,512c140,0,256-116.2,256-256C512,116,395.8,0,255.7,0C116,0,0,116,0,256C0,395.8,116.2,512,256,512z M159.9,386.3  c-20.3,0-34.1-15.8-34.1-38.9v-188c0-19.8,13.8-33.6,34.1-33.6h192.3c23.6,0,34.1,10.5,34.1,33.6v188c0,26.1-10.5,38.9-34.1,38.9  H159.9z M176.2,348.1h159.6c7.3,0,12.3-4.8,12.3-12.5V176.4c0-7.5-5-12.5-12.3-12.5H176.2c-7.3,0-12.3,5-12.3,12.5v159.1  C163.9,343.3,168.9,348.1,176.2,348.1z"/>
</svg>