<?xml version="1.0" ?><!-- Generator: Adobe Illustrator 25.0.0, SVG Export Plug-In . SVG Version: 6.00 Build 0)  --><svg xmlns="http://www.w3.org/2000/svg" xmlns:xlink="http://www.w3.org/1999/xlink" version="1.1" id="Layer_1" x="0px" y="0px" viewBox="0 0 512 512" style="enable-background:new 0 0 512 512;" xml:space="preserve">
<path d="M53.1,233.1h126.8c35.3,0,53.1-17.8,53.1-54.5V54.2c0-36.7-17.8-54.2-53.1-54.2H53.1C17.8,0,0,17.5,0,54.2v124.3  C0,215.3,17.8,233.1,53.1,233.1z M332.3,233.1h126.5c35.3,0,53.1-17.8,53.1-54.5V54.2C512,17.5,494.2,0,458.9,0H332.3  c-35.6,0-53.4,17.5-53.4,54.2v124.3C278.9,215.3,296.7,233.1,332.3,233.1z M53.7,193.8c-9.7,0-14.5-5-14.5-15.3V54.2  c0-10,4.7-15,14.5-15h125.4c9.7,0,14.7,5,14.7,15v124.3c0,10.3-5,15.3-14.7,15.3H53.7z M332.9,193.8c-10,0-14.7-5-14.7-15.3V54.2  c0-10,4.7-15,14.7-15h125.4c9.7,0,14.5,5,14.5,15v124.3c0,10.3-4.7,15.3-14.5,15.3H332.9z M53.1,512h126.8  c35.3,0,53.1-17.5,53.1-54.2V333.2c0-36.4-17.8-54.2-53.1-54.2H53.1C17.8,278.9,0,296.7,0,333.2v124.6C0,494.5,17.8,512,53.1,512z   M332.3,512h126.5c35.3,0,53.1-17.5,53.1-54.2V333.2c0-36.4-17.8-54.2-53.1-54.2H332.3c-35.6,0-53.4,17.8-53.4,54.2v124.6  C278.9,494.5,296.7,512,332.3,512z M53.7,472.8c-9.7,0-14.5-5-14.5-15V333.5c0-10.3,4.7-15.3,14.5-15.3h125.4  c9.7,0,14.7,5,14.7,15.3v124.3c0,10-5,15-14.7,15H53.7z M332.9,472.8c-10,0-14.7-5-14.7-15V333.5c0-10.3,4.7-15.3,14.7-15.3h125.4  c9.7,0,14.5,5,14.5,15.3v124.3c0,10-4.7,15-14.5,15H332.9z"/>
</svg>