<?xml version="1.0" encoding="UTF-8"?>
<!--Generator: Apple Native CoreSVG 326-->
<!DOCTYPE svg
PUBLIC "-//W3C//DTD SVG 1.1//EN"
       "http://www.w3.org/Graphics/SVG/1.1/DTD/svg11.dtd">
<svg version="1.1" xmlns="http://www.w3.org/2000/svg" xmlns:xlink="http://www.w3.org/1999/xlink" viewBox="0 0 22.4512 26.6504">
 <g>
  <rect height="26.6504" opacity="0" width="22.4512" x="0" y="0"/>
  <path d="M3.79883 26.6504L18.291 26.6504C20.8203 26.6504 22.0898 25.3711 22.0898 22.8906L22.0898 10.3613C22.0898 7.87109 20.8203 6.5918 18.291 6.5918L3.79883 6.5918C1.2793 6.5918 0 7.86133 0 10.3613L0 22.8906C0 25.3906 1.2793 26.6504 3.79883 26.6504ZM11.0547 0.136719C11.5137 0.136719 11.9043 0.517578 11.9043 0.976562L11.9043 14.082L11.8457 15.9277L12.6074 15.127L14.7363 12.9004C14.8926 12.7246 15.1172 12.6367 15.3223 12.6367C15.7617 12.6367 16.1035 12.959 16.1035 13.3984C16.1035 13.6328 16.0156 13.7988 15.8496 13.9648L11.6699 18.0371C11.4551 18.2422 11.2695 18.3203 11.0547 18.3203C10.8301 18.3203 10.6445 18.2422 10.4297 18.0371L6.25 13.9648C6.08398 13.7988 5.98633 13.6328 5.98633 13.3984C5.98633 12.959 6.31836 12.6367 6.76758 12.6367C6.97266 12.6367 7.20703 12.7246 7.36328 12.9004L9.48242 15.127L10.2637 15.9375L10.1953 14.082L10.1953 0.976562C10.1953 0.517578 10.5859 0.136719 11.0547 0.136719Z" fill="black" fill-opacity="0.85"/>
 </g>
</svg>
