<?xml version="1.0" ?><!-- Generator: Adobe Illustrator 25.0.0, SVG Export Plug-In . SVG Version: 6.00 Build 0)  --><svg xmlns="http://www.w3.org/2000/svg" xmlns:xlink="http://www.w3.org/1999/xlink" version="1.1" id="Layer_1" x="0px" y="0px" viewBox="0 0 512 512" style="enable-background:new 0 0 512 512;" xml:space="preserve">
<path d="M0,424.7c0,29.1,7.2,50.9,21.6,65.5C35.9,504.7,57.5,512,86.2,512h339.6c28.7,0,50.3-7.3,64.7-21.8  c14.4-14.6,21.6-36.4,21.6-65.5V87.3c0-29.1-7.2-50.9-21.6-65.5C476.1,7.3,454.5,0,425.8,0H86.2C57.5,0,35.9,7.3,21.6,21.8  C7.2,36.4,0,58.2,0,87.3V424.7z M44.8,256.1V87.9c0-13.7,3.7-24.3,11-31.8c7.3-7.5,18.2-11.3,32.7-11.3h335.1  c14.5,0,25.4,3.8,32.7,11.3c7.3,7.5,11,18.1,11,31.8v168.3H44.8z"/>
</svg>