<?xml version="1.0" ?><!-- Generator: Adobe Illustrator 25.0.0, SVG Export Plug-In . SVG Version: 6.00 Build 0)  --><svg xmlns="http://www.w3.org/2000/svg" xmlns:xlink="http://www.w3.org/1999/xlink" version="1.1" id="Layer_1" x="0px" y="0px" viewBox="0 0 512 512" style="enable-background:new 0 0 512 512;" xml:space="preserve">
<path d="M256,512c35,0,67.9-6.7,98.8-20.1c30.9-13.4,58.1-31.9,81.7-55.5c23.6-23.6,42.1-50.8,55.5-81.7  C505.3,323.9,512,291,512,256c0-35-6.7-67.9-20.1-98.8c-13.4-30.9-31.9-58.1-55.5-81.7c-23.6-23.6-50.9-42.1-81.8-55.5  C323.7,6.7,290.7,0,255.7,0S187.9,6.7,157,20.1C126.1,33.5,98.9,52,75.4,75.5c-23.5,23.6-42,50.8-55.3,81.7C6.7,188.1,0,221,0,256  c0,35,6.7,67.9,20.1,98.8c13.4,30.9,31.9,58.1,55.5,81.7c23.6,23.6,50.8,42.1,81.7,55.5C188.1,505.3,221,512,256,512z" class="hierarchical-0:tertiary SFSymbolsPreview8E8E8E" style="fill: #8E8E8E;"/>
<path d="M178.9,382.5c-13.9,0-24.5-3.6-31.7-10.8c-7.3-7.2-10.9-17.8-10.9-31.9V212.6c0-13.9,3.6-24.4,10.9-31.6  c7.3-7.2,17.9-10.8,31.7-10.8h38.7v26.4h-38.4c-11.2,0-16.8,5.8-16.8,17.3v125.2c0,11.5,5.6,17.3,16.8,17.3h146.1  c11.2,0,16.8-5.8,16.8-17.3V213.8c0-11.5-5.6-17.3-16.8-17.3h-38.1v-26.4h38.7c14.1,0,24.7,3.6,32,10.7c7.3,7.1,10.9,17.7,10.9,31.7  v127.2c0,14.1-3.6,24.7-10.9,31.9c-7.3,7.2-17.9,10.8-32,10.8H178.9z M252.2,280.8c-3.5,0-6.5-1.2-9-3.6c-2.5-2.4-3.8-5.4-3.8-8.9  V137.5l0.5-12.3l-11.5,12.3l-11.8,12c-2.2,2.3-5.2,3.5-9,3.5c-3.3,0-6.1-1-8.4-3.1c-2.3-2.1-3.4-4.8-3.4-8.2c0-3.5,1.3-6.4,4-8.8  l43.2-41.7c2.7-3,5.8-4.5,9.3-4.5c3.2,0,6.2,1.5,9,4.5l43.4,41.9c1.3,1.2,2.3,2.5,2.9,3.9c0.6,1.4,0.9,3,0.9,4.6  c0,3.3-1.1,6.1-3.3,8.2c-2.2,2.1-5,3.1-8.5,3.1c-3.8,0-6.9-1.2-9-3.5l-11.8-12l-11.3-12.3l0.5,12.3v130.8c0,3.5-1.3,6.5-3.8,8.9  C258.8,279.6,255.7,280.8,252.2,280.8z" class="hierarchical-1:primary SFSymbolsPreview212121" style="fill: #212121;"/>
</svg>