<?xml version="1.0" ?><!-- Generator: Adobe Illustrator 25.0.0, SVG Export Plug-In . SVG Version: 6.00 Build 0)  --><svg xmlns="http://www.w3.org/2000/svg" xmlns:xlink="http://www.w3.org/1999/xlink" version="1.1" id="Layer_1" x="0px" y="0px" viewBox="0 0 512 512" style="enable-background:new 0 0 512 512;" xml:space="preserve">
<path d="M256,512c140,0,256-116.2,256-256C512,116,395.8,0,255.7,0C116,0,0,116,0,256C0,395.8,116.2,512,256,512z M256,469.3  c-118.5,0-213.1-94.9-213.1-213.3S137.3,42.7,255.7,42.7S469.1,137.5,469.3,256S374.5,469.3,256,469.3z M162.9,382.2h186.2  c22.8,0,33.1-12,33.1-37.6v-182c0-22.6-10.3-32.6-33.1-32.6H162.9c-19.8,0-33.1,13.1-33.1,32.6v182  C129.8,367.2,143.1,382.2,162.9,382.2z M178.4,345.6c-7,0-12-4.8-12-12V178.7c0-7.3,5-12,12-12h155.1c7,0,12,4.8,12,12v154.9  c0,7.3-5,12-12,12H178.4z"/>
</svg>