<?xml version="1.0" ?><!-- Generator: Adobe Illustrator 25.0.0, SVG Export Plug-In . SVG Version: 6.00 Build 0)  --><svg xmlns="http://www.w3.org/2000/svg" xmlns:xlink="http://www.w3.org/1999/xlink" version="1.1" id="Layer_1" x="0px" y="0px" viewBox="0 0 512 512" style="enable-background:new 0 0 512 512;" xml:space="preserve">
<path d="M410.8,301.9l-154.1,83.3l-152.9-84.6L46.1,334c-9.2,5.5-15.8,10.6-19.8,15.3c-4,4.7-6,10.2-6,16.5c0,6.5,2,12,6,16.7  c4,4.7,10.6,9.8,19.8,15.3l180.6,104.7c5.5,3.2,10.6,5.6,15.2,7.1c4.6,1.5,9.3,2.3,14.1,2.3c4.6,0,9.3-0.8,14-2.3  c4.7-1.5,9.8-3.9,15.3-7.1l180.4-104.7c9.4-5.5,16.1-10.6,20.1-15.3c4-4.7,6-10.3,6-16.7c0-6.3-2-11.8-6-16.5  c-4-4.7-10.7-9.8-20.1-15.3L410.8,301.9z" class="hierarchical-0:primary SFSymbolsPreview212121" style="fill: #212121;"/>
<path d="M256,292.2c4.6,0,9.3-0.8,14-2.3c4.7-1.5,9.8-3.9,15.3-7.1L465.6,178c9.4-5.5,16.1-10.6,20.1-15.3c4-4.7,6-10.3,6-16.7  c0-6.3-2-11.8-6-16.5c-4-4.7-10.7-9.8-20.1-15.3L285.3,9.5c-5.5-3.2-10.6-5.6-15.3-7.1c-4.7-1.5-9.3-2.3-14-2.3  c-4.8,0-9.5,0.8-14.1,2.3c-4.6,1.5-9.7,3.9-15.2,7.1L46.1,114.2c-9.2,5.5-15.8,10.6-19.8,15.3c-4,4.7-6,10.2-6,16.5  c0,6.5,2,12,6,16.7c4,4.7,10.6,9.8,19.8,15.3l180.6,104.7c5.5,3.2,10.6,5.6,15.2,7.1C246.5,291.4,251.2,292.2,256,292.2z M256,252.1  c-3.1,0-6.5-1.1-10.4-3.2L70.1,148.3c-1.1-0.6-1.6-1.4-1.6-2.3c0-0.8,0.5-1.5,1.6-2.1L245.6,43.4c3.8-2.2,7.3-3.2,10.4-3.2  c2.9,0,6.3,1.1,10.1,3.2l175.5,100.6c1.2,0.6,1.8,1.3,1.8,2.1c0,0.9-0.6,1.7-1.8,2.3L266.1,248.9C262.3,251,258.9,252.1,256,252.1z   M369.7,216.3l72,41.1c1.2,0.6,1.8,1.4,1.8,2.3s-0.6,1.7-1.8,2.3L266.1,362.3c-3.8,2.2-7.2,3.2-10.1,3.2c-3.1,0-6.5-1.1-10.4-3.2  L70.1,262c-1.1-0.6-1.6-1.4-1.6-2.3c0-0.9,0.5-1.7,1.6-2.3l77.7-44.5l-36.9-22.6l-64.8,37.4c-9.2,5.5-15.8,10.7-19.8,15.5  c-4,4.8-6,10.3-6,16.6c0,6.3,2,11.8,6,16.6c4,4.8,10.6,9.8,19.8,15.2l180.6,104.9c5.5,3.2,10.6,5.6,15.2,7.1  c4.6,1.5,9.3,2.3,14.1,2.3c4.6,0,9.3-0.8,14-2.3c4.7-1.5,9.8-3.9,15.3-7.1l180.4-104.9c9.4-5.4,16.1-10.5,20.1-15.2  c4-4.8,6-10.3,6-16.6c0-6.3-2-11.8-6-16.6c-4-4.8-10.7-9.9-20.1-15.5l-60.2-35.1L369.7,216.3z" class="hierarchical-1:secondary SFSymbolsPreview4D4D4D" style="fill: #4D4D4D;"/>
</svg>