<?xml version="1.0" ?><!-- Generator: Adobe Illustrator 25.0.0, SVG Export Plug-In . SVG Version: 6.00 Build 0)  --><svg xmlns="http://www.w3.org/2000/svg" xmlns:xlink="http://www.w3.org/1999/xlink" version="1.1" id="Layer_1" x="0px" y="0px" viewBox="0 0 512 512" style="enable-background:new 0 0 512 512;" xml:space="preserve">
<path d="M287.1,501.9l191.8-111.6c19.9-11.5,27.7-20.4,27.7-33.8c0-13.5-7.8-22.3-27.7-34.1L364.4,256l114.5-66.5  c19.9-11.8,27.7-20.6,27.7-34.1c0-13.5-7.8-22.3-27.7-33.8L287.1,10.1C275.4,3.2,265.8,0,256,0c-10.1,0-19.4,3.2-31.1,10.1  l-192,111.6C13,133.1,5.4,142,5.4,155.5c0,13.5,7.6,22.3,27.5,34.1L147.6,256L32.9,322.5C13,334.2,5.4,343,5.4,356.5  c0,13.5,7.6,22.3,27.5,33.8l192,111.6c11.8,6.9,21.1,10.1,31.1,10.1C265.8,512,275.4,508.8,287.1,501.9z M256,268  c-3.4,0-6.9-1-11-3.4L58.4,157.9c-1-0.5-1.7-1.2-1.7-2.5c0-1.2,0.7-1.7,1.7-2.5L245,46.3c4.2-2.2,7.6-3.4,11-3.4  c3.4,0,6.9,1.2,10.8,3.4L453.4,153c1.2,0.7,2,1.2,2,2.5c0,1.2-0.7,2-2,2.5L266.8,264.6C262.9,267,259.4,268,256,268z"/>
</svg>