<?xml version="1.0" encoding="UTF-8"?>
<!--Generator: Apple Native CoreSVG 326-->
<!DOCTYPE svg
PUBLIC "-//W3C//DTD SVG 1.1//EN"
       "http://www.w3.org/Graphics/SVG/1.1/DTD/svg11.dtd">
<svg version="1.1" xmlns="http://www.w3.org/2000/svg" xmlns:xlink="http://www.w3.org/1999/xlink" viewBox="0 0 22.9492 21.8848">
 <g>
  <rect height="21.8848" opacity="0" width="22.9492" x="0" y="0"/>
  <path d="M4.44336 21.8848C5.42969 21.8848 5.94727 21.1914 6.2207 20.3027L11.8555 1.91406L21.5625 1.91406C22.1777 1.91406 22.5879 1.5332 22.5879 0.957031C22.5879 0.390625 22.1777 0.0195312 21.5625 0.0195312L11.8262 0.0195312C10.752 0.0195312 10.2637 0.419922 9.9707 1.33789L4.57031 19.3457L4.38477 19.3457L1.96289 10.8789C1.79688 10.293 1.48438 10.0195 0.976562 10.0195C0.419922 10.0195 0 10.4199 0 10.9473C0 11.1523 0.0488281 11.3477 0.107422 11.5234L2.79297 20.4199C3.05664 21.2793 3.53516 21.8848 4.44336 21.8848Z" fill="black" fill-opacity="0.85"/>
 </g>
</svg>
