<?xml version="1.0" encoding="UTF-8"?>
<!--Generator: Apple Native CoreSVG 326-->
<!DOCTYPE svg
PUBLIC "-//W3C//DTD SVG 1.1//EN"
       "http://www.w3.org/Graphics/SVG/1.1/DTD/svg11.dtd">
<svg version="1.1" xmlns="http://www.w3.org/2000/svg" xmlns:xlink="http://www.w3.org/1999/xlink" viewBox="0 0 27.207 25.9277">
 <g>
  <rect height="25.9277" opacity="0" width="27.207" x="0" y="0"/>
  <path d="M21.5723 25.8594L24.5996 25.8594C26.084 25.8594 26.8457 25.127 26.8457 23.5742L26.8457 20.625C26.8457 19.0723 26.084 18.3496 24.5996 18.3496L21.5723 18.3496C20.0879 18.3496 19.3262 19.0723 19.3262 20.625L19.3262 23.5742C19.3262 25.127 20.0879 25.8594 21.5723 25.8594ZM21.5918 24.3262C21.0938 24.3262 20.8594 24.0918 20.8594 23.5742L20.8594 20.6445C20.8594 20.1172 21.0938 19.8828 21.5918 19.8828L24.5703 19.8828C25.0781 19.8828 25.3125 20.1172 25.3125 20.6445L25.3125 23.5742C25.3125 24.0918 25.0781 24.3262 24.5703 24.3262Z" fill="black" fill-opacity="0.85"/>
  <path d="M11.9238 25.8594L14.9512 25.8594C16.4355 25.8594 17.1875 25.127 17.1875 23.5742L17.1875 20.625C17.1875 19.0723 16.4355 18.3496 14.9512 18.3496L11.9238 18.3496C10.4297 18.3496 9.67773 19.0723 9.67773 20.625L9.67773 23.5742C9.67773 25.127 10.4297 25.8594 11.9238 25.8594ZM11.9531 24.3262C11.4355 24.3262 11.2109 24.0918 11.2109 23.5742L11.2109 20.6445C11.2109 20.1172 11.4355 19.8828 11.9531 19.8828L14.9219 19.8828C15.4297 19.8828 15.6543 20.1172 15.6543 20.6445L15.6543 23.5742C15.6543 24.0918 15.4297 24.3262 14.9219 24.3262Z" fill="black" fill-opacity="0.85"/>
  <path d="M2.26562 25.8594L5.29297 25.8594C6.77734 25.8594 7.53906 25.127 7.53906 23.5742L7.53906 20.625C7.53906 19.0723 6.77734 18.3496 5.29297 18.3496L2.26562 18.3496C0.78125 18.3496 0.0292969 19.0723 0.0292969 20.625L0.0292969 23.5742C0.0292969 25.127 0.78125 25.8594 2.26562 25.8594ZM2.29492 24.3262C1.78711 24.3262 1.55273 24.0918 1.55273 23.5742L1.55273 20.6445C1.55273 20.1172 1.78711 19.8828 2.29492 19.8828L5.26367 19.8828C5.76172 19.8828 6.00586 20.1172 6.00586 20.6445L6.00586 23.5742C6.00586 24.0918 5.76172 24.3262 5.26367 24.3262Z" fill="black" fill-opacity="0.85"/>
  <path d="M0.751953 15.752L26.084 15.752C26.5332 15.752 26.8457 15.4102 26.8457 14.9316C26.8457 14.4629 26.5332 14.1211 26.084 14.1211L0.751953 14.1211C0.3125 14.1211 0 14.4629 0 14.9316C0 15.4102 0.3125 15.752 0.751953 15.752Z" fill="black" fill-opacity="0.85"/>
  <path d="M21.543 11.7383L24.5801 11.7383C26.0645 11.7383 26.8164 11.0156 26.8164 9.46289L26.8164 6.51367C26.8164 4.96094 26.0645 4.22852 24.5801 4.22852L21.543 4.22852C20.0586 4.22852 19.3066 4.96094 19.3066 6.51367L19.3066 9.46289C19.3066 11.0156 20.0586 11.7383 21.543 11.7383ZM21.5723 10.2051C21.0645 10.2051 20.8398 9.9707 20.8398 9.44336L20.8398 6.51367C20.8398 5.99609 21.0645 5.76172 21.5723 5.76172L24.541 5.76172C25.0586 5.76172 25.2832 5.99609 25.2832 6.51367L25.2832 9.44336C25.2832 9.9707 25.0586 10.2051 24.541 10.2051Z" fill="black" fill-opacity="0.85"/>
  <path d="M11.8945 11.7383L14.9219 11.7383C16.4062 11.7383 17.168 11.0156 17.168 9.46289L17.168 6.51367C17.168 4.96094 16.4062 4.22852 14.9219 4.22852L11.8945 4.22852C10.4102 4.22852 9.64844 4.96094 9.64844 6.51367L9.64844 9.46289C9.64844 11.0156 10.4102 11.7383 11.8945 11.7383ZM11.9238 10.2051C11.416 10.2051 11.1816 9.9707 11.1816 9.44336L11.1816 6.51367C11.1816 5.99609 11.416 5.76172 11.9238 5.76172L14.9023 5.76172C15.4004 5.76172 15.6348 5.99609 15.6348 6.51367L15.6348 9.44336C15.6348 9.9707 15.4004 10.2051 14.9023 10.2051Z" fill="black" fill-opacity="0.85"/>
  <path d="M2.24609 11.7383L5.27344 11.7383C6.75781 11.7383 7.50977 11.0156 7.50977 9.46289L7.50977 6.51367C7.50977 4.96094 6.75781 4.22852 5.27344 4.22852L2.24609 4.22852C0.761719 4.22852 0 4.96094 0 6.51367L0 9.46289C0 11.0156 0.761719 11.7383 2.24609 11.7383ZM2.26562 10.2051C1.76758 10.2051 1.5332 9.9707 1.5332 9.44336L1.5332 6.51367C1.5332 5.99609 1.76758 5.76172 2.26562 5.76172L5.23438 5.76172C5.74219 5.76172 5.97656 5.99609 5.97656 6.51367L5.97656 9.44336C5.97656 9.9707 5.74219 10.2051 5.23438 10.2051Z" fill="black" fill-opacity="0.85"/>
  <path d="M0.751953 1.63086L26.084 1.63086C26.5332 1.63086 26.8457 1.28906 26.8457 0.810547C26.8457 0.341797 26.5332 0 26.084 0L0.751953 0C0.3125 0 0 0.341797 0 0.810547C0 1.28906 0.3125 1.63086 0.751953 1.63086Z" fill="black" fill-opacity="0.85"/>
 </g>
</svg>
