<?xml version="1.0" ?><!-- Generator: Adobe Illustrator 25.0.0, SVG Export Plug-In . SVG Version: 6.00 Build 0)  --><svg xmlns="http://www.w3.org/2000/svg" xmlns:xlink="http://www.w3.org/1999/xlink" version="1.1" id="Layer_1" x="0px" y="0px" viewBox="0 0 512 512" style="enable-background:new 0 0 512 512;" xml:space="preserve">
<path d="M0,489.8C0,503.1,8.9,512,22.2,512H490c13.3,0,22-8.9,22-22.2V22c0-13.3-8.6-22-22-22H22.2C8.9,0,0,8.6,0,22V489.8z   M44.8,459.2V52.8c0-6.1,2.2-8.1,8.1-8.1h406.3c6.1,0,8.1,1.9,8.1,8.1v406.3c0,5.8-1.9,8.1-8.1,8.1H52.8  C47,467.2,44.8,465,44.8,459.2z M115.4,136.8c12,0,21.7-9.7,21.7-21.7c0-12-9.7-21.7-21.7-21.7c-11.7,0-21.4,9.7-21.4,21.7  C94,127.1,103.7,136.8,115.4,136.8z M185.8,136.8c12,0,21.7-9.7,21.7-21.7c0-12-9.7-21.7-21.7-21.7c-12,0-21.7,9.7-21.7,21.7  C164.1,127.1,173.8,136.8,185.8,136.8z M256.1,136.8c11.7,0,21.4-9.7,21.4-21.7c0-12-9.7-21.7-21.4-21.7c-12,0-21.7,9.7-21.7,21.7  C234.4,127.1,244.2,136.8,256.1,136.8z M326.2,136.8c12,0,21.7-9.7,21.7-21.7c0-12-9.7-21.7-21.7-21.7s-21.7,9.7-21.7,21.7  C304.5,127.1,314.3,136.8,326.2,136.8z M396.6,136.8c12,0,21.7-9.7,21.7-21.7c0-12-9.7-21.7-21.7-21.7c-12,0-21.7,9.7-21.7,21.7  C374.9,127.1,384.6,136.8,396.6,136.8z M396.6,207.2c12,0,21.7-9.7,21.7-21.7s-9.7-21.7-21.7-21.7c-12,0-21.7,9.7-21.7,21.7  S384.6,207.2,396.6,207.2z M115.4,207.2c12,0,21.7-9.7,21.7-21.7s-9.7-21.7-21.7-21.7c-11.7,0-21.4,9.7-21.4,21.7  S103.7,207.2,115.4,207.2z M396.6,277.3c12,0,21.7-9.7,21.7-21.7c0-11.7-9.7-21.4-21.7-21.4c-12,0-21.7,9.7-21.7,21.4  C374.9,267.5,384.6,277.3,396.6,277.3z M115.4,277.3c12,0,21.7-9.7,21.7-21.7c0-11.7-9.7-21.4-21.7-21.4c-11.7,0-21.4,9.7-21.4,21.4  C94,267.5,103.7,277.3,115.4,277.3z M396.6,347.6c12,0,21.7-9.7,21.7-21.7c0-12-9.7-21.7-21.7-21.7c-12,0-21.7,9.7-21.7,21.7  C374.9,337.9,384.6,347.6,396.6,347.6z M115.4,347.6c12,0,21.7-9.7,21.7-21.7c0-12-9.7-21.7-21.7-21.7c-11.7,0-21.4,9.7-21.4,21.7  C94,337.9,103.7,347.6,115.4,347.6z M396.6,417.7c12,0,21.7-9.7,21.7-21.4c0-12-9.7-21.7-21.7-21.7c-12,0-21.7,9.7-21.7,21.7  C374.9,408,384.6,417.7,396.6,417.7z M326.2,417.7c12,0,21.7-9.7,21.7-21.4c0-12-9.7-21.7-21.7-21.7s-21.7,9.7-21.7,21.7  C304.5,408,314.3,417.7,326.2,417.7z M256.1,417.7c11.7,0,21.4-9.7,21.4-21.4c0-12-9.7-21.7-21.4-21.7c-12,0-21.7,9.7-21.7,21.7  C234.4,408,244.2,417.7,256.1,417.7z M185.8,417.7c12,0,21.7-9.7,21.7-21.4c0-12-9.7-21.7-21.7-21.7c-12,0-21.7,9.7-21.7,21.7  C164.1,408,173.8,417.7,185.8,417.7z M115.4,417.7c12,0,21.7-9.7,21.7-21.4c0-12-9.7-21.7-21.7-21.7c-11.7,0-21.4,9.7-21.4,21.7  C94,408,103.7,417.7,115.4,417.7z"/>
</svg>