<?xml version="1.0" ?><!-- Generator: Adobe Illustrator 25.0.0, SVG Export Plug-In . SVG Version: 6.00 Build 0)  --><svg xmlns="http://www.w3.org/2000/svg" xmlns:xlink="http://www.w3.org/1999/xlink" version="1.1" id="Layer_1" x="0px" y="0px" viewBox="0 0 512 512" style="enable-background:new 0 0 512 512;" xml:space="preserve">
<path d="M256.1,356c4.7,0,9-1.4,13.8-6.2l80.2-77.5c3.6-3.6,5.5-7.4,5.5-12.3c0-9.7-7.4-16.6-17.3-16.6c-4.5,0-9.5,1.9-12.8,5.7  l-35.8,38.2L273.4,304l1.4-35.6v-250c0-10-8.5-18.5-18.7-18.5c-10.2,0-19,8.5-19,18.5v250l1.7,35.6l-16.1-16.8l-36-38.2  c-3.3-3.8-8.3-5.7-13-5.7c-9.7,0-17.1,6.9-17.1,16.6c0,5,2.1,8.8,5.7,12.3l80.2,77.5C247.1,354.5,251.4,356,256.1,356z M120,512h272  c49.6,0,74.5-24.7,74.5-73.5V201.8c0-48.9-24.9-73.5-74.5-73.5h-66.2v38.2h65.5c23.5,0,37,12.8,37,37.5v232.4  c0,24.7-13.5,37.5-37,37.5H120.5c-23.7,0-36.8-12.8-36.8-37.5V203.9c0-24.7,13-37.5,36.8-37.5h65.7v-38.2H120  c-49.6,0-74.5,24.7-74.5,73.5v236.7C45.5,487.3,70.4,512,120,512z"/>
</svg>