<?xml version="1.0" encoding="UTF-8"?>
<!--Generator: Apple Native CoreSVG 326-->
<!DOCTYPE svg
PUBLIC "-//W3C//DTD SVG 1.1//EN"
       "http://www.w3.org/Graphics/SVG/1.1/DTD/svg11.dtd">
<svg version="1.1" xmlns="http://www.w3.org/2000/svg" xmlns:xlink="http://www.w3.org/1999/xlink" viewBox="0 0 28.8184 28.8379">
 <g>
  <rect height="28.8379" opacity="0" width="28.8184" x="0" y="0"/>
  <path d="M25.6348 18.2227C26.5332 18.7402 26.8945 19.1504 26.8945 19.7852C26.8945 20.4102 26.5332 20.8203 25.6348 21.3477L15.6543 27.1387C15.1074 27.4512 14.6777 27.5977 14.2285 27.5977C13.7695 27.5977 13.3496 27.4512 12.8027 27.1387L2.82227 21.3477C1.92383 20.8203 1.5625 20.4102 1.5625 19.7852C1.5625 19.1504 1.92383 18.7402 2.82227 18.2227L7.55208 15.4854L12.0215 18.0762C12.8613 18.5645 13.5449 18.75 14.2285 18.75C14.9023 18.75 15.5859 18.5645 16.4258 18.0762L20.9047 15.4824Z" fill="black" fill-opacity="0.85"/>
  <path d="M14.2285 17.1973C14.6777 17.1973 15.1074 17.041 15.6543 16.7285L25.6348 10.9375C26.5332 10.4102 26.8945 10 26.8945 9.375C26.8945 8.74023 26.5332 8.33984 25.6348 7.8125L15.6543 2.02148C15.1074 1.70898 14.6777 1.55273 14.2285 1.55273C13.7695 1.55273 13.3496 1.70898 12.8027 2.02148L2.82227 7.8125C1.92383 8.33984 1.5625 8.74023 1.5625 9.375C1.5625 10 1.92383 10.4102 2.82227 10.9375L12.8027 16.7285C13.3496 17.041 13.7695 17.1973 14.2285 17.1973Z" fill="black" fill-opacity="0.85"/>
 </g>
</svg>
