<?xml version="1.0" encoding="UTF-8"?>
<!--Generator: Apple Native CoreSVG 326-->
<!DOCTYPE svg
PUBLIC "-//W3C//DTD SVG 1.1//EN"
       "http://www.w3.org/Graphics/SVG/1.1/DTD/svg11.dtd">
<svg version="1.1" xmlns="http://www.w3.org/2000/svg" xmlns:xlink="http://www.w3.org/1999/xlink" viewBox="0 0 29.9512 22.959">
 <g>
  <rect height="22.959" opacity="0" width="29.9512" x="0" y="0"/>
  <path d="M29.5898 3.76953L29.5898 19.1992C29.5898 21.6797 28.3105 22.959 25.7812 22.959L3.79883 22.959C1.2793 22.959 0 21.6992 0 19.1992L0 3.76953C0 1.26953 1.2793 0 3.79883 0L25.7812 0C28.3105 0 29.5898 1.2793 29.5898 3.76953ZM5.00977 6.01562C3.80859 6.01562 3.20312 6.62109 3.20312 7.80273L3.20312 15.1855C3.20312 16.3672 3.80859 16.9727 5.00977 16.9727L12.334 16.9727C13.5547 16.9727 14.1504 16.3574 14.1504 15.1855L14.1504 7.80273C14.1504 6.63086 13.5547 6.01562 12.334 6.01562ZM16.0938 11.4941C16.0938 14.6973 18.2422 16.8652 21.4258 16.8652C22.3047 16.8652 23.0957 16.7676 23.5645 16.582C23.877 16.4453 24.0723 16.2598 24.0723 15.9668C24.0723 15.6641 23.8574 15.4395 23.5547 15.4395C23.4082 15.4395 23.2812 15.4688 23.0664 15.5078C22.7051 15.5762 22.3242 15.7031 21.543 15.7031C18.9453 15.7031 17.3047 14.082 17.3047 11.5039C17.3047 9.00391 18.9941 7.25586 21.4062 7.25586C23.7988 7.25586 25.4297 8.7793 25.4297 11.0352C25.4297 12.4512 25.0098 13.2715 24.3164 13.2715C23.8672 13.2715 23.6621 13.0469 23.6621 12.5684L23.6621 9.28711C23.6621 8.93555 23.4082 8.67188 23.0762 8.67188C22.8125 8.67188 22.5684 8.86719 22.5098 9.10156L22.5098 9.28711C22.1973 8.90625 21.7188 8.67188 21.0938 8.67188C19.7168 8.67188 18.7402 9.86328 18.7402 11.5234C18.7402 13.2324 19.7168 14.3848 21.123 14.3848C21.7871 14.3848 22.3438 14.0918 22.7246 13.5645C22.9883 14.0918 23.5547 14.3945 24.2188 14.3945C25.6543 14.3945 26.5723 13.0566 26.5723 10.9766C26.5723 8.11523 24.4434 6.11328 21.4062 6.11328C18.2812 6.11328 16.0938 8.32031 16.0938 11.4941ZM12.8809 7.90039L12.8809 15.0781C12.8809 15.5078 12.666 15.6934 12.2363 15.6934L5.11719 15.6934C4.66797 15.6934 4.48242 15.5078 4.48242 15.0781L4.48242 7.90039C4.48242 7.48047 4.66797 7.29492 5.11719 7.29492L12.2363 7.29492C12.666 7.29492 12.8809 7.48047 12.8809 7.90039ZM22.5391 11.4648C22.5391 12.5488 22.0605 13.2227 21.2793 13.2227C20.5078 13.2227 20.0098 12.5684 20.0098 11.5039C20.0098 10.459 20.5176 9.80469 21.2891 9.80469C22.0605 9.80469 22.5391 10.4297 22.5391 11.4648Z" fill="black" fill-opacity="0.85"/>
 </g>
</svg>
