<?xml version="1.0" encoding="UTF-8"?>
<!--Generator: Apple Native CoreSVG 326-->
<!DOCTYPE svg
PUBLIC "-//W3C//DTD SVG 1.1//EN"
       "http://www.w3.org/Graphics/SVG/1.1/DTD/svg11.dtd">
<svg version="1.1" xmlns="http://www.w3.org/2000/svg" xmlns:xlink="http://www.w3.org/1999/xlink" viewBox="0 0 23.4961 23.1543">
 <g>
  <rect height="23.1543" opacity="0" width="23.4961" x="0" y="0"/>
  <path d="M3.66211 1.98242C4.19922 1.98242 4.64844 1.5332 4.64844 0.996094C4.64844 0.449219 4.19922 0 3.66211 0C3.11523 0 2.67578 0.449219 2.67578 0.996094C2.67578 1.5332 3.11523 1.98242 3.66211 1.98242ZM7.61719 1.98242C8.1543 1.98242 8.60352 1.5332 8.60352 0.996094C8.60352 0.449219 8.1543 0 7.61719 0C7.07031 0 6.62109 0.449219 6.62109 0.996094C6.62109 1.5332 7.07031 1.98242 7.61719 1.98242ZM11.5625 1.98242C12.1094 1.98242 12.5586 1.5332 12.5586 0.996094C12.5586 0.449219 12.1094 0 11.5625 0C11.0254 0 10.5762 0.449219 10.5762 0.996094C10.5762 1.5332 11.0254 1.98242 11.5625 1.98242ZM15.5176 1.98242C16.0547 1.98242 16.5039 1.5332 16.5039 0.996094C16.5039 0.449219 16.0547 0 15.5176 0C14.9707 0 14.5312 0.449219 14.5312 0.996094C14.5312 1.5332 14.9707 1.98242 15.5176 1.98242ZM19.4727 1.98242C20.0098 1.98242 20.459 1.5332 20.459 0.996094C20.459 0.449219 20.0098 0 19.4727 0C18.9258 0 18.4766 0.449219 18.4766 0.996094C18.4766 1.5332 18.9258 1.98242 19.4727 1.98242ZM22.1387 4.6582C22.6855 4.6582 23.1348 4.20898 23.1348 3.66211C23.1348 3.125 22.6855 2.67578 22.1387 2.67578C21.6016 2.67578 21.1523 3.125 21.1523 3.66211C21.1523 4.20898 21.6016 4.6582 22.1387 4.6582ZM22.1387 8.60352C22.6855 8.60352 23.1348 8.1543 23.1348 7.61719C23.1348 7.08008 22.6855 6.63086 22.1387 6.63086C21.6016 6.63086 21.1523 7.08008 21.1523 7.61719C21.1523 8.1543 21.6016 8.60352 22.1387 8.60352ZM22.1387 12.5586C22.6855 12.5586 23.1348 12.1094 23.1348 11.5723C23.1348 11.0254 22.6855 10.5762 22.1387 10.5762C21.6016 10.5762 21.1523 11.0254 21.1523 11.5723C21.1523 12.1094 21.6016 12.5586 22.1387 12.5586ZM22.1387 16.5137C22.6855 16.5137 23.1348 16.0645 23.1348 15.5176C23.1348 14.9805 22.6855 14.5312 22.1387 14.5312C21.6016 14.5312 21.1523 14.9805 21.1523 15.5176C21.1523 16.0645 21.6016 16.5137 22.1387 16.5137ZM22.1387 20.459C22.6855 20.459 23.1348 20.0098 23.1348 19.4727C23.1348 18.9355 22.6855 18.4863 22.1387 18.4863C21.6016 18.4863 21.1523 18.9355 21.1523 19.4727C21.1523 20.0098 21.6016 20.459 22.1387 20.459ZM19.4727 23.1348C20.0098 23.1348 20.459 22.6855 20.459 22.1484C20.459 21.6016 20.0098 21.1523 19.4727 21.1523C18.9258 21.1523 18.4766 21.6016 18.4766 22.1484C18.4766 22.6855 18.9258 23.1348 19.4727 23.1348ZM15.5176 23.1348C16.0547 23.1348 16.5039 22.6855 16.5039 22.1484C16.5039 21.6016 16.0547 21.1523 15.5176 21.1523C14.9707 21.1523 14.5312 21.6016 14.5312 22.1484C14.5312 22.6855 14.9707 23.1348 15.5176 23.1348ZM11.5625 23.1348C12.1094 23.1348 12.5586 22.6855 12.5586 22.1484C12.5586 21.6016 12.1094 21.1523 11.5625 21.1523C11.0254 21.1523 10.5762 21.6016 10.5762 22.1484C10.5762 22.6855 11.0254 23.1348 11.5625 23.1348ZM7.61719 23.1348C8.1543 23.1348 8.60352 22.6855 8.60352 22.1484C8.60352 21.6016 8.1543 21.1523 7.61719 21.1523C7.07031 21.1523 6.62109 21.6016 6.62109 22.1484C6.62109 22.6855 7.07031 23.1348 7.61719 23.1348ZM3.66211 23.1348C4.19922 23.1348 4.64844 22.6855 4.64844 22.1484C4.64844 21.6016 4.19922 21.1523 3.66211 21.1523C3.11523 21.1523 2.67578 21.6016 2.67578 22.1484C2.67578 22.6855 3.11523 23.1348 3.66211 23.1348ZM0.986328 20.459C1.5332 20.459 1.98242 20.0098 1.98242 19.4727C1.98242 18.9355 1.5332 18.4863 0.986328 18.4863C0.449219 18.4863 0 18.9355 0 19.4727C0 20.0098 0.449219 20.459 0.986328 20.459ZM0.986328 16.5137C1.5332 16.5137 1.98242 16.0645 1.98242 15.5176C1.98242 14.9805 1.5332 14.5312 0.986328 14.5312C0.449219 14.5312 0 14.9805 0 15.5176C0 16.0645 0.449219 16.5137 0.986328 16.5137ZM0.986328 12.5586C1.5332 12.5586 1.98242 12.1094 1.98242 11.5723C1.98242 11.0254 1.5332 10.5762 0.986328 10.5762C0.449219 10.5762 0 11.0254 0 11.5723C0 12.1094 0.449219 12.5586 0.986328 12.5586ZM0.986328 8.60352C1.5332 8.60352 1.98242 8.1543 1.98242 7.61719C1.98242 7.08008 1.5332 6.63086 0.986328 6.63086C0.449219 6.63086 0 7.08008 0 7.61719C0 8.1543 0.449219 8.60352 0.986328 8.60352ZM0.986328 4.6582C1.5332 4.6582 1.98242 4.20898 1.98242 3.66211C1.98242 3.125 1.5332 2.67578 0.986328 2.67578C0.449219 2.67578 0 3.125 0 3.66211C0 4.20898 0.449219 4.6582 0.986328 4.6582Z" fill="black" fill-opacity="0.85"/>
 </g>
</svg>
