<?xml version="1.0" encoding="UTF-8"?>
<!--Generator: Apple Native CoreSVG 326-->
<!DOCTYPE svg
PUBLIC "-//W3C//DTD SVG 1.1//EN"
       "http://www.w3.org/Graphics/SVG/1.1/DTD/svg11.dtd">
<svg version="1.1" xmlns="http://www.w3.org/2000/svg" xmlns:xlink="http://www.w3.org/1999/xlink" viewBox="0 0 28.0136 28.1738">
 <g>
  <rect height="28.1738" opacity="0" width="28.0136" x="0" y="0"/>
  <path d="M6.58853 9.2379L8.20259 10.8473L2.63471 10.7715C2.54682 10.7715 2.51752 10.7715 2.49799 10.8105C2.47846 10.8496 2.50775 10.8789 2.57611 10.918L9.05072 15.4395C9.45111 15.7129 9.539 16.0742 9.38275 16.5234L6.82416 23.9941C6.80463 24.0723 6.79486 24.0918 6.82416 24.1211C6.85346 24.1602 6.89252 24.1309 6.95111 24.0918L13.2499 19.3262C13.6113 19.043 14.0312 19.043 14.4023 19.3262L20.6913 24.0918C20.7597 24.1309 20.7988 24.1602 20.8281 24.1211C20.8574 24.0918 20.8378 24.0723 20.8183 23.9941L20.523 23.132L22.7779 25.3803C22.7584 25.7374 22.6128 26.0122 22.3515 26.2109C21.8828 26.5527 21.3163 26.4453 20.6132 25.9375L13.8261 20.957L7.02924 25.9375C6.33588 26.4453 5.75971 26.5527 5.30072 26.2109C4.8515 25.8691 4.74408 25.3027 5.01752 24.4824L7.68354 16.4941L0.837833 11.5723C0.144474 11.0742-0.128964 10.5566 0.056583 10.0098C0.232364 9.47266 0.740177 9.19922 1.60932 9.20898ZM15.0663 1.23047L17.6249 9.25781L26.0331 9.20898C26.9023 9.19922 27.4199 9.47266 27.5956 10.0098C27.7714 10.5566 27.5078 11.0742 26.8046 11.5723L20.0346 16.4397L18.8545 15.2625L25.0663 10.918C25.1347 10.8789 25.164 10.8496 25.1445 10.8105C25.1347 10.7715 25.0956 10.7715 25.0175 10.7715L17.1171 10.8789C16.6484 10.8887 16.3456 10.6934 16.1992 10.2344L13.9042 2.68555C13.8847 2.59766 13.8652 2.56836 13.8261 2.56836C13.7871 2.56836 13.7675 2.59766 13.7382 2.68555L11.995 8.41961L10.6993 7.12701L12.5859 1.23047C12.8496 0.410156 13.2499 0 13.8261 0C14.3925 0 14.7929 0.410156 15.0663 1.23047Z" fill="black" fill-opacity="0.85"/>
  <path d="M24.6953 25.3613C25.0175 25.6934 25.5546 25.6934 25.8671 25.3613C26.1894 25.0293 26.1992 24.5117 25.8671 24.1895L5.67182 4.04297C5.35932 3.7207 4.82221 3.71094 4.49018 4.04297C4.16791 4.35547 4.16791 4.90234 4.49018 5.21484Z" fill="black" fill-opacity="0.85"/>
 </g>
</svg>
