<?xml version="1.0" ?><!-- Generator: Adobe Illustrator 25.0.0, SVG Export Plug-In . SVG Version: 6.00 Build 0)  --><svg xmlns="http://www.w3.org/2000/svg" xmlns:xlink="http://www.w3.org/1999/xlink" version="1.1" id="Layer_1" x="0px" y="0px" viewBox="0 0 512 512" style="enable-background:new 0 0 512 512;" xml:space="preserve">
<path d="M98.2,496.4c4.8,3.7,10.1,5,16.1,3.8c6-1.2,12.5-4.3,19.6-9.3l122-89.7l122.2,89.7c7.1,5.1,13.6,8.2,19.6,9.3  c6,1.2,11.4-0.1,16.1-3.8c4.8-3.5,7.6-8.3,8.6-14.3c1-6,0-13.1-2.9-21.4l-48.2-143.4l123.1-88.5c7.2-5.1,12.2-10.3,15-15.7  c2.8-5.4,3.2-10.9,1.4-16.6c-1.8-5.5-5.5-9.7-10.8-12.5c-5.4-2.8-12.5-4.1-21.4-3.9l-151,0.9L281.7,36.9  c-2.8-8.5-6.3-14.8-10.5-19.1c-4.2-4.3-9.3-6.5-15.3-6.5c-5.8,0-10.9,2.2-15.1,6.5c-4.2,4.3-7.7,10.7-10.5,19.1L184.4,181l-151-0.9  c-8.9-0.2-16.1,1.2-21.4,3.9s-9,6.9-10.8,12.5c-1.8,5.7-1.4,11.2,1.4,16.6c2.8,5.4,7.8,10.6,15,15.7l123.1,88.5L92.4,460.7  c-2.9,8.3-3.9,15.4-2.9,21.4C90.5,488.1,93.4,492.9,98.2,496.4z M255.9,361.6V67.4c0.6,0,1.1,0.6,1.4,1.8l40.1,133.5  c1.4,4.8,3.6,8.2,6.7,10.3c3.1,2.1,7,3,11.8,2.9l139.5-2.5c1.2,0,1.9,0.2,2.1,0.7c0.3,0.6-0.1,1.2-1.2,1.8l-114.8,79.3  c-2.6,1.8-4.6,3.9-6,6.1c-1.4,2.2-2.1,4.6-2.2,7.3c-0.1,2.6,0.4,5.4,1.5,8.3l45.9,131.9c0.2,1.1,0.2,1.8,0,2.1  c-0.3,0.5-1,0.3-2.1-0.5l-110.9-84.6C263.8,362.6,259.9,361.3,255.9,361.6z"/>
</svg>