<?xml version="1.0" ?><!-- Generator: Adobe Illustrator 25.0.0, SVG Export Plug-In . SVG Version: 6.00 Build 0)  --><svg xmlns="http://www.w3.org/2000/svg" xmlns:xlink="http://www.w3.org/1999/xlink" version="1.1" id="Layer_1" x="0px" y="0px" viewBox="0 0 512 512" style="enable-background:new 0 0 512 512;" xml:space="preserve">
<path d="M377.9,312.7l116.7-83.9c14.3-10.1,20.1-20.7,16.4-32.3c-3.7-11.1-14.5-16.6-32.3-16.4l-151,0.9L281.8,36.9  c-5.5-17.1-13.8-25.6-25.8-25.6c-11.8,0-20.1,8.5-25.6,25.6l-31.1,98L377.9,312.7z M455.3,479.1c6.9,6.9,18.4,6.9,25.1,0  c6.7-7.1,6.9-18.2,0-25.1L107.2,81.9c-6.9-6.9-18.4-7.1-25.4,0c-6.7,6.7-6.7,18.2,0,25.1L455.3,479.1z M116.9,180.6l-83.5-0.5  c-17.8-0.2-28.6,5.3-32.3,16.4c-3.9,11.5,2.1,22.1,16.4,32.3l123.1,88.5L92.5,460.7c-5.8,16.8-3.7,28.6,5.8,35.7  c9.5,7.4,21.4,4.8,35.7-5.5l122-89.7l122.2,89.7c14.3,10.4,26.1,12.9,35.7,5.5c2.8-2.1,6-6,5.8-9.9l-1.6-5.1L116.9,180.6z"/>
</svg>