<?xml version="1.0" ?><!-- Generator: Adobe Illustrator 25.0.0, SVG Export Plug-In . SVG Version: 6.00 Build 0)  --><svg xmlns="http://www.w3.org/2000/svg" xmlns:xlink="http://www.w3.org/1999/xlink" version="1.1" id="Layer_1" x="0px" y="0px" viewBox="0 0 512 512" style="enable-background:new 0 0 512 512;" xml:space="preserve">
<path d="M377.9,312.7l116.7-83.9c14.3-10.1,20.1-20.7,16.4-32.3c-3.7-11.1-14.5-16.6-32.3-16.4l-151,0.9L281.8,36.9  c-5.5-17.1-13.8-25.6-25.8-25.6c-11.8,0-20.1,8.5-25.6,25.6l-31.1,97.8l27.4,27.4l28.1-92.9c0.2-1.4,0.7-1.8,1.2-1.8  c0.7,0,1.2,0.5,1.4,1.8l40.1,133.5c3,9.5,9,13.4,18.4,13.1l139.5-2.5c1.4,0,1.8,0,2.1,0.7c0.2,0.7-0.2,1.2-1.2,1.8l-103.7,71.7  L377.9,312.7z M455.3,479.1c6.9,6.9,18.4,6.9,25.1,0c6.7-7.1,6.9-18.2,0-25.1L107.2,81.9c-6.9-6.9-18.4-7.1-25.4,0  c-6.7,6.7-6.7,18.2,0,25.1L455.3,479.1z M98.2,496.4c9.5,7.4,21.4,4.8,35.7-5.5l122-89.7l122.2,89.7c14.3,10.4,25.8,12.7,35.7,5.5  c2.8-2.1,4.8-4.8,8.3-9.9L267.7,365.7c-7.4-5.8-15.9-5.8-23.3,0l-110.9,84.6c-0.9,0.7-1.6,1.2-2.1,0.5c-0.5-0.5-0.2-0.7,0-2.1  l45.9-131.9c3.2-9,1.4-16.1-6.7-21.7L55.8,215.8c-1.2-0.7-1.4-1.2-1.2-1.8c0.2-0.7,0.7-0.7,2.1-0.7l94.5,1.6l-34.6-34.4l-83.2-0.5  c-17.8-0.2-28.6,5.3-32.3,16.4c-3.9,11.5,2.1,22.1,16.4,32.3l123.1,88.5L92.5,460.7C86.7,477.5,88.8,489.3,98.2,496.4z"/>
</svg>