<?xml version="1.0" ?><!-- Generator: Adobe Illustrator 25.0.0, SVG Export Plug-In . SVG Version: 6.00 Build 0)  --><svg xmlns="http://www.w3.org/2000/svg" xmlns:xlink="http://www.w3.org/1999/xlink" version="1.1" id="Layer_1" x="0px" y="0px" viewBox="0 0 512 512" style="enable-background:new 0 0 512 512;" xml:space="preserve">
<path d="M256,512c140,0,256-116.2,256-256C512,116,395.8,0,255.7,0C116,0,0,116,0,256C0,395.8,116.2,512,256,512z M256,469.3  c-118.5,0-213.1-94.9-213.1-213.3S137.3,42.7,255.7,42.7S469.1,137.5,469.3,256S374.5,469.3,256,469.3z M183.7,385.5l72-52.7  l72,52.7c14.8,11,30.1-0.3,24.6-17.6l-28.6-85.1l72.8-52c13.3-9.5,9.3-29.1-9.3-28.9l-89.3,0.8l-27.4-85.6  c-5.3-16.6-24.3-16.6-29.6,0l-27.4,85.6l-89.3-0.8c-18.3-0.3-22.8,19.1-9.3,29.1l72.8,51.7l-28.4,85.1  C153.6,385.3,169.2,396.5,183.7,385.5z"/>
</svg>