<?xml version="1.0" encoding="UTF-8"?>
<!--Generator: Apple Native CoreSVG 326-->
<!DOCTYPE svg
PUBLIC "-//W3C//DTD SVG 1.1//EN"
       "http://www.w3.org/Graphics/SVG/1.1/DTD/svg11.dtd">
<svg version="1.1" xmlns="http://www.w3.org/2000/svg" xmlns:xlink="http://www.w3.org/1999/xlink" viewBox="0 0 26.6016 30.9082">
 <g>
  <rect height="30.9082" opacity="0" width="26.6016" x="0" y="0"/>
  <path d="M13.1152 30.8984C16.4648 30.8984 17.002 28.3398 19.1016 28.3398C21.25 28.3398 21.582 30.8984 25.4102 30.8984L25.4688 30.8984C25.8984 30.8984 26.2402 30.5566 26.2402 30.127C26.2402 29.707 25.8984 29.3652 25.4688 29.3652L25.4102 29.3652C24.0137 29.3652 23.2227 28.7793 22.2656 28.1055C21.4453 27.5098 20.459 26.8066 19.1016 26.8066C17.6953 26.8066 16.6992 27.5488 15.8789 28.1641C15.0098 28.8281 14.2871 29.3652 13.1152 29.3652C11.9434 29.3652 11.2305 28.8281 10.3613 28.1641C9.54102 27.5488 8.53516 26.8066 7.13867 26.8066C5.77148 26.8066 4.78516 27.5098 3.96484 28.1055C3.01758 28.7793 2.22656 29.3652 0.830078 29.3652L0.761719 29.3652C0.341797 29.3652 0 29.707 0 30.127C0 30.5566 0.341797 30.8984 0.761719 30.8984L0.830078 30.8984C4.64844 30.8984 4.99023 28.3398 7.13867 28.3398C9.23828 28.3398 9.77539 30.8984 13.1152 30.8984Z" fill="black" fill-opacity="0.85"/>
  <path d="M13.1152 24.6387C19.9121 24.6387 25.4297 19.1211 25.4297 12.3145C25.4297 5.51758 19.9121 0 13.1152 0C6.30859 0 0.800781 5.51758 0.800781 12.3145C0.800781 19.1211 6.30859 24.6387 13.1152 24.6387ZM4.10156 6.92383C5.85938 3.83789 9.23828 1.73828 13.0957 1.73828C16.9531 1.73828 20.3223 3.83789 22.0996 6.91406C22.5 7.50977 22.2949 8.16406 21.5918 8.16406L4.59961 8.16406C3.91602 8.16406 3.70117 7.50977 4.10156 6.92383ZM13.0957 15.7324C11.6211 15.7324 10.4395 14.5508 10.4395 13.0664C10.4395 11.5918 11.6211 10.4102 13.0957 10.4102C14.5801 10.4102 15.7617 11.5918 15.7617 13.0664C15.7617 14.5508 14.5801 15.7324 13.0957 15.7324ZM2.88086 14.9805C2.69531 14.3262 3.04688 14.0039 3.62305 14.0625C7.33398 14.375 10.2441 17.6367 10.0195 21.4062C10.0098 21.9727 9.58984 22.3242 8.99414 22.0508C5.95703 20.7715 3.69141 18.1641 2.88086 14.9805ZM23.3301 14.9805C22.5195 18.1641 20.2539 20.7715 17.2168 22.0508C16.6211 22.3242 16.2012 21.9727 16.1816 21.4062C15.9766 17.6562 18.8574 14.375 22.5879 14.0625C23.1641 14.0039 23.5156 14.3262 23.3301 14.9805Z" fill="black" fill-opacity="0.85"/>
 </g>
</svg>
