<?xml version="1.0" encoding="UTF-8"?>
<!--Generator: Apple Native CoreSVG 326-->
<!DOCTYPE svg
PUBLIC "-//W3C//DTD SVG 1.1//EN"
       "http://www.w3.org/Graphics/SVG/1.1/DTD/svg11.dtd">
<svg version="1.1" xmlns="http://www.w3.org/2000/svg" xmlns:xlink="http://www.w3.org/1999/xlink" viewBox="0 0 36.8848 25.459">
 <g>
  <rect height="25.459" opacity="0" width="36.8848" x="0" y="0"/>
  <path d="M24.1602 25.4395C31.1816 25.4395 36.8848 19.7461 36.8848 12.7246C36.8848 5.70312 31.1816 0 24.1602 0C17.1387 0 11.4453 5.70312 11.4453 12.7246C11.4453 19.7461 17.1387 25.4395 24.1602 25.4395ZM14.9023 7.13867C16.7188 3.96484 20.1855 1.82617 24.1406 1.82617C28.1055 1.82617 31.5723 3.96484 33.3984 7.11914C33.8281 7.74414 33.6035 8.42773 32.8809 8.42773L15.4199 8.42773C14.6973 8.42773 14.4727 7.74414 14.9023 7.13867ZM24.1504 16.2402C22.627 16.2402 21.3965 15.0195 21.3965 13.4863C21.3965 11.9629 22.627 10.7422 24.1504 10.7422C25.6738 10.7422 26.9043 11.9629 26.9043 13.4863C26.9043 15.0195 25.6738 16.2402 24.1504 16.2402ZM13.6133 15.4785C13.4277 14.7949 13.7891 14.4531 14.3945 14.5215C18.2129 14.8535 21.1914 18.2031 20.9766 22.0703C20.9668 22.666 20.5273 23.0371 19.9121 22.7539C16.7773 21.4258 14.4531 18.7402 13.6133 15.4785ZM34.6875 15.4785C33.8574 18.7402 31.5332 21.4258 28.3984 22.7539C27.7832 23.0371 27.3438 22.666 27.334 22.0703C27.1191 18.2227 30.0781 14.8535 33.916 14.5215C34.5117 14.4531 34.8828 14.7949 34.6875 15.4785Z" fill="black" fill-opacity="0.85"/>
  <path d="M0.634766 12.1484C0.185547 12.4219 0.166016 13.0469 0.634766 13.3203L7.14844 17.1875C7.64648 17.4805 8.23242 17.2461 8.23242 16.7383L8.23242 8.71094C8.23242 8.21289 7.61719 7.98828 7.14844 8.25195Z" fill="black" fill-opacity="0.85"/>
 </g>
</svg>
