<?xml version="1.0" encoding="UTF-8"?>
<!--Generator: Apple Native CoreSVG 326-->
<!DOCTYPE svg
PUBLIC "-//W3C//DTD SVG 1.1//EN"
       "http://www.w3.org/Graphics/SVG/1.1/DTD/svg11.dtd">
<svg version="1.1" xmlns="http://www.w3.org/2000/svg" xmlns:xlink="http://www.w3.org/1999/xlink" viewBox="0 0 37.2656 25.459">
 <g>
  <rect height="25.459" opacity="0" width="37.2656" x="0" y="0"/>
  <path d="M12.7148 25.4395C19.7363 25.4395 25.4297 19.7461 25.4297 12.7246C25.4297 5.70312 19.7363 0 12.7148 0C5.69336 0 0 5.70312 0 12.7246C0 19.7461 5.69336 25.4395 12.7148 25.4395ZM3.44727 7.13867C5.26367 3.96484 8.73047 1.82617 12.6953 1.82617C16.6602 1.82617 20.127 3.96484 21.9531 7.11914C22.373 7.74414 22.1582 8.42773 21.4258 8.42773L3.96484 8.42773C3.25195 8.42773 3.02734 7.74414 3.44727 7.13867ZM12.6953 16.2402C11.1719 16.2402 9.95117 15.0195 9.95117 13.4863C9.95117 11.9629 11.1719 10.7422 12.6953 10.7422C14.2285 10.7422 15.4492 11.9629 15.4492 13.4863C15.4492 15.0195 14.2285 16.2402 12.6953 16.2402ZM2.16797 15.4785C1.98242 14.7949 2.34375 14.4531 2.93945 14.5215C6.75781 14.8535 9.74609 18.2031 9.53125 22.0703C9.51172 22.666 9.07227 23.0371 8.45703 22.7539C5.33203 21.4258 2.99805 18.7402 2.16797 15.4785ZM23.2422 15.4785C22.4023 18.7402 20.0781 21.4258 16.9434 22.7539C16.3379 23.0371 15.8984 22.666 15.8789 22.0703C15.6738 18.2227 18.6328 14.8535 22.4707 14.5215C23.0664 14.4531 23.4277 14.7949 23.2422 15.4785Z" fill="black" fill-opacity="0.85"/>
  <path d="M36.2402 12.1484L29.7266 8.25195C29.2578 7.98828 28.6523 8.21289 28.6523 8.71094L28.6523 16.7383C28.6523 17.2461 29.2285 17.4805 29.7266 17.1875L36.2402 13.3203C36.7188 13.0469 36.6992 12.4219 36.2402 12.1484Z" fill="black" fill-opacity="0.85"/>
 </g>
</svg>
