<?xml version="1.0" encoding="UTF-8"?>
<!--Generator: Apple Native CoreSVG 326-->
<!DOCTYPE svg
PUBLIC "-//W3C//DTD SVG 1.1//EN"
       "http://www.w3.org/Graphics/SVG/1.1/DTD/svg11.dtd">
<svg version="1.1" xmlns="http://www.w3.org/2000/svg" xmlns:xlink="http://www.w3.org/1999/xlink" viewBox="0 0 33.252 28.1348">
 <g>
  <rect height="28.1348" opacity="0" width="33.252" x="0" y="0"/>
  <path d="M29.1087 12.8528C28.559 12.6402 27.9458 12.5293 27.2852 12.5293C24.5426 12.5293 22.6039 14.4625 22.4652 17.315C20.6265 18.7138 19.4827 20.9645 19.6191 23.4082C19.6289 24.0039 20.0684 24.375 20.6836 24.0918C20.8993 24.0001 21.1113 23.9019 21.3184 23.7961L21.3184 24.9414C21.3184 25.2367 21.3463 25.5157 21.4034 25.7744C19.8794 26.4203 18.2037 26.7773 16.4453 26.7773C9.42383 26.7773 3.73047 21.084 3.73047 14.0625C3.73047 7.04102 9.42383 1.33789 16.4453 1.33789C23.0584 1.33789 28.5021 6.39693 29.1087 12.8528ZM5.89844 16.8164C6.73828 20.0781 9.0625 22.7637 12.1973 24.0918C12.8027 24.375 13.252 24.0039 13.2617 23.4082C13.4766 19.541 10.4883 16.1914 6.67969 15.8594C6.07422 15.791 5.71289 16.1328 5.89844 16.8164ZM13.6816 14.8242C13.6816 16.3574 14.9121 17.5781 16.4355 17.5781C17.959 17.5781 19.1895 16.3574 19.1895 14.8242C19.1895 13.3008 17.959 12.0801 16.4355 12.0801C14.9121 12.0801 13.6816 13.3008 13.6816 14.8242ZM7.1875 8.47656C6.75781 9.08203 6.98242 9.76562 7.70508 9.76562L25.166 9.76562C25.8887 9.76562 26.1133 9.08203 25.6836 8.45703C23.8574 5.30273 20.3906 3.16406 16.4258 3.16406C12.4707 3.16406 9.00391 5.30273 7.1875 8.47656Z" fill="black" fill-opacity="0.85"/>
  <path d="M24.4238 26.6406L30.1465 26.6406C31.1621 26.6406 31.6895 26.1035 31.6895 25L31.6895 20.498C31.6895 19.4043 31.1621 18.8672 30.1465 18.8672L24.4238 18.8672C23.4082 18.8672 22.8809 19.4043 22.8809 20.498L22.8809 25C22.8809 26.1035 23.4082 26.6406 24.4238 26.6406ZM24.0039 19.834L25.2246 19.834L25.2246 17.4219C25.2246 16.0938 26.0352 15.2344 27.2852 15.2344C28.5449 15.2344 29.3555 16.0938 29.3555 17.4219L29.3555 19.834L30.5664 19.834L30.5664 17.5879C30.5664 15.4102 29.2773 14.0234 27.2852 14.0234C25.3027 14.0234 24.0039 15.4102 24.0039 17.5879Z" fill="black" fill-opacity="0.85"/>
 </g>
</svg>
