<?xml version="1.0" encoding="UTF-8"?>
<!--Generator: Apple Native CoreSVG 326-->
<!DOCTYPE svg
PUBLIC "-//W3C//DTD SVG 1.1//EN"
       "http://www.w3.org/Graphics/SVG/1.1/DTD/svg11.dtd">
<svg version="1.1" xmlns="http://www.w3.org/2000/svg" xmlns:xlink="http://www.w3.org/1999/xlink" viewBox="0 0 28.9136 28.6865">
 <g>
  <rect height="28.6865" opacity="0" width="28.9136" x="0" y="0"/>
  <path d="M5.03528 8.70913C5.02546 8.72298 5.01699 8.7377 5.00855 8.75244C4.58863 9.35791 4.81324 10.0415 5.52613 10.0415L6.36822 10.0415L11.5168 15.1879C11.559 16.6543 12.7214 17.8133 14.1802 17.8502L17.7076 21.3762C17.4913 22.1079 17.3976 22.8857 17.4402 23.6841C17.4597 24.2798 17.8992 24.6509 18.5046 24.3677C19.0099 24.1536 19.4941 23.9043 19.9518 23.6194L21.2789 24.9459C19.273 26.2793 16.8648 27.0532 14.2761 27.0532C7.25464 27.0532 1.56128 21.3599 1.56128 14.3384C1.56128 11.7524 2.33355 9.3452 3.66468 7.33911ZM3.72925 17.0923C4.55933 20.354 6.89331 23.0396 10.0183 24.3677C10.6335 24.6509 11.073 24.2798 11.0925 23.6841C11.3074 19.8169 8.3191 16.4673 4.50074 16.1353C3.90503 16.0669 3.54371 16.4087 3.72925 17.0923ZM26.991 14.3384C26.991 16.7672 26.3097 19.0371 25.1157 20.9592L23.7865 19.63C24.2305 18.8398 24.5729 17.9877 24.8035 17.0923C24.989 16.4087 24.6277 16.0669 24.032 16.1353C22.9999 16.2245 22.0313 16.5335 21.1746 17.0181L14.198 10.0415L22.9871 10.0415C23.7195 10.0415 23.9343 9.35791 23.5144 8.73291C21.6882 5.57861 18.2214 3.43994 14.2566 3.43994C12.3364 3.43994 10.533 3.94159 8.97958 4.82308L7.65093 3.49443C9.57394 2.29722 11.8455 1.61377 14.2761 1.61377C21.2976 1.61377 26.991 7.31689 26.991 14.3384Z" fill="black" fill-opacity="0.85"/>
  <path d="M25.3406 26.7407C25.7996 27.1899 26.532 27.1704 26.9714 26.7212C27.4011 26.272 27.4207 25.5493 26.9714 25.1001L3.82691 1.9458C3.37769 1.49658 2.6355 1.49658 2.18628 1.9458C1.74683 2.38525 1.74683 3.13721 2.18628 3.57666Z" fill="black" fill-opacity="0.85"/>
 </g>
</svg>
