<?xml version="1.0" encoding="UTF-8"?>
<!--Generator: Apple Native CoreSVG 326-->
<!DOCTYPE svg
PUBLIC "-//W3C//DTD SVG 1.1//EN"
       "http://www.w3.org/Graphics/SVG/1.1/DTD/svg11.dtd">
<svg version="1.1" xmlns="http://www.w3.org/2000/svg" xmlns:xlink="http://www.w3.org/1999/xlink" viewBox="0 0 23.3203 22.959">
 <g>
  <rect height="22.959" opacity="0" width="23.3203" x="0" y="0"/>
  <path d="M3.79883 22.959L19.1504 22.959C21.6797 22.959 22.959 21.6797 22.959 19.1992L22.959 3.76953C22.959 1.2793 21.6797 0 19.1504 0L3.79883 0C1.2793 0 0 1.26953 0 3.76953L0 19.1992C0 21.6992 1.2793 22.959 3.79883 22.959ZM3.83789 21.2305C2.4707 21.2305 1.72852 20.5078 1.72852 19.1016L1.72852 3.85742C1.72852 2.46094 2.4707 1.72852 3.83789 1.72852L19.1211 1.72852C20.459 1.72852 21.2305 2.46094 21.2305 3.85742L21.2305 19.1016C21.2305 20.5078 20.459 21.2305 19.1211 21.2305Z" fill="black" fill-opacity="0.85"/>
  <path d="M7.48047 16.9434L14.9512 16.9434C15.293 16.9434 15.5566 16.7188 15.5566 16.3867C15.5566 16.0742 15.293 15.8301 14.9512 15.8301L9.01367 15.8301L9.01367 15.7715C10.0293 15.4297 10.5273 14.2383 10.5273 13.1445C10.5273 12.6758 10.4785 12.2656 10.3809 11.9141L13.6816 11.9141C13.9648 11.9141 14.1797 11.709 14.1797 11.4551C14.1797 11.1914 13.9551 10.9961 13.6816 10.9961L10.1367 10.9961C9.95117 10.3027 9.88281 9.87305 9.88281 9.35547C9.88281 7.91992 10.9375 7.03125 12.627 7.03125C13.2031 7.03125 13.6133 7.09961 13.9844 7.20703C14.1895 7.26562 14.3848 7.30469 14.5312 7.30469C14.8438 7.30469 15.0195 7.12891 15.0195 6.82617C15.0195 6.52344 14.8145 6.34766 14.5117 6.23047C13.8574 5.97656 13.3105 5.89844 12.5 5.89844C10.1367 5.89844 8.54492 7.19727 8.54492 9.38477C8.54492 9.91211 8.63281 10.4102 8.80859 10.9961L7.44141 10.9961C7.1582 10.9961 6.94336 11.2012 6.94336 11.4551C6.94336 11.709 7.1582 11.9141 7.44141 11.9141L9.05273 11.9141C9.16992 12.3633 9.24805 12.7832 9.24805 13.2031C9.24805 14.4238 8.58398 15.3418 7.42188 15.7227C7.11914 15.8301 6.9043 16.0449 6.9043 16.3672C6.9043 16.6992 7.14844 16.9434 7.48047 16.9434Z" fill="black" fill-opacity="0.85"/>
 </g>
</svg>
