<?xml version="1.0" encoding="UTF-8"?>
<!--Generator: Apple Native CoreSVG 326-->
<!DOCTYPE svg
PUBLIC "-//W3C//DTD SVG 1.1//EN"
       "http://www.w3.org/Graphics/SVG/1.1/DTD/svg11.dtd">
<svg version="1.1" xmlns="http://www.w3.org/2000/svg" xmlns:xlink="http://www.w3.org/1999/xlink" viewBox="0 0 27.9395 26.5527">
 <g>
  <rect height="26.5527" opacity="0" width="27.9395" x="0" y="0"/>
  <path d="M1.5332 23.8379L26.0449 23.8379L26.0449 23.0859C26.0449 22.666 25.791 22.4121 25.3613 22.4121L24.5605 22.4121L24.5605 8.33984L25.6934 8.33984C26.2891 8.33984 26.6211 7.91992 26.6211 7.48047C26.6211 7.1582 26.4453 6.875 26.0547 6.65039L15.2637 0.419922C14.7852 0.146484 14.2773 0 13.7891 0C13.3008 0 12.7832 0.146484 12.3145 0.419922L1.52344 6.65039C1.12305 6.875 0.957031 7.1582 0.957031 7.48047C0.957031 7.91992 1.28906 8.33984 1.88477 8.33984L3.02734 8.33984L3.02734 22.4121L2.22656 22.4121C1.78711 22.4121 1.5332 22.666 1.5332 23.0859ZM4.6582 22.4121L4.6582 6.85547L13.2227 2.03125C13.3887 1.93359 13.5938 1.875 13.7891 1.875C13.9746 1.875 14.1699 1.93359 14.3555 2.03125L22.9297 6.85547L22.9297 22.4121ZM0.869141 26.5332L26.709 26.5332C27.1875 26.5332 27.5781 26.1426 27.5781 25.6738C27.5781 25.1953 27.1875 24.8047 26.709 24.8047L0.869141 24.8047C0.390625 24.8047 0 25.1953 0 25.6738C0 26.1426 0.390625 26.5332 0.869141 26.5332Z" fill="black" fill-opacity="0.85"/>
  <path d="M9.79492 18.6719L17.2656 18.6719C17.5977 18.6719 17.8613 18.4473 17.8613 18.1152C17.8613 17.8027 17.5977 17.5586 17.2656 17.5586L11.3184 17.5586L11.3184 17.5098C12.3438 17.168 12.8418 15.9668 12.8418 14.8828C12.8418 14.4043 12.793 14.0039 12.6953 13.6426L15.9863 13.6426C16.2793 13.6426 16.4844 13.4375 16.4844 13.1836C16.4844 12.9199 16.2695 12.7246 15.9863 12.7246L12.4414 12.7246C12.2656 12.0312 12.1973 11.6113 12.1973 11.084C12.1973 9.64844 13.252 8.75977 14.9316 8.75977C15.5078 8.75977 15.9277 8.82812 16.2988 8.93555C16.5039 8.99414 16.6895 9.0332 16.8359 9.0332C17.1582 9.0332 17.334 8.86719 17.334 8.55469C17.334 8.25195 17.1191 8.08594 16.8262 7.96875C16.1719 7.70508 15.625 7.63672 14.8047 7.63672C12.4414 7.63672 10.8496 8.92578 10.8496 11.123C10.8496 11.6406 10.9375 12.1387 11.1133 12.7246L9.74609 12.7246C9.47266 12.7246 9.25781 12.9297 9.25781 13.1836C9.25781 13.4375 9.47266 13.6426 9.74609 13.6426L11.3672 13.6426C11.4844 14.0918 11.5625 14.5215 11.5625 14.9316C11.5625 16.1523 10.8984 17.0703 9.73633 17.4609C9.42383 17.5684 9.21875 17.7734 9.21875 18.0957C9.21875 18.4375 9.45312 18.6719 9.79492 18.6719Z" fill="black" fill-opacity="0.85"/>
 </g>
</svg>
