<?xml version="1.0" encoding="UTF-8"?>
<!--Generator: Apple Native CoreSVG 326-->
<!DOCTYPE svg
PUBLIC "-//W3C//DTD SVG 1.1//EN"
       "http://www.w3.org/Graphics/SVG/1.1/DTD/svg11.dtd">
<svg version="1.1" xmlns="http://www.w3.org/2000/svg" xmlns:xlink="http://www.w3.org/1999/xlink" viewBox="0 0 30.3809 24.9191">
 <g>
  <rect height="24.9191" opacity="0" width="30.3809" x="0" y="0"/>
  <path d="M30.0195 14.9547C30.0195 7.09334 23.9746 0.648023 16.2988 0.00349172C15.8984-0.0355708 15.5859 0.257398 15.5859 0.667554L15.5859 4.66169C15.5859 4.99373 15.8301 5.2574 16.1719 5.28669C20.9863 5.87263 24.7266 9.97419 24.7266 14.9547C24.7266 17.2203 23.9551 19.3004 22.5879 21.0191C22.4023 21.2535 22.4121 21.5465 22.6172 21.7515L25.5176 24.6519C25.8105 24.9351 26.2305 24.9351 26.4844 24.6226C28.6914 22.0054 30.0195 18.6265 30.0195 14.9547Z" fill="black" fill-opacity="0.85"/>
  <path d="M0 14.9547C0 18.6363 1.32812 22.025 3.54492 24.6422C3.78906 24.9351 4.19922 24.9351 4.49219 24.6519L7.39258 21.7515C7.59766 21.5465 7.60742 21.2535 7.42188 21.0191C6.05469 19.3004 5.2832 17.2203 5.2832 14.9547C5.2832 9.97419 9.0332 5.87263 13.8379 5.28669C14.1895 5.2574 14.4238 4.99373 14.4238 4.66169L14.4238 0.667554C14.4238 0.257398 14.1211-0.0355708 13.7207 0.00349172C6.03516 0.648023 0 7.09334 0 14.9547Z" fill="black" fill-opacity="0.85"/>
  <path d="M10.9961 20.5797L18.4668 20.5797C18.7988 20.5797 19.0625 20.3551 19.0625 20.0328C19.0625 19.7105 18.7988 19.4761 18.4668 19.4761L12.5195 19.4761L12.5195 19.4176C13.5449 19.0758 14.043 17.8844 14.043 16.7906C14.043 16.3121 13.9941 15.9117 13.8965 15.5504L17.1875 15.5504C17.4805 15.5504 17.6855 15.3551 17.6855 15.0914C17.6855 14.8375 17.4707 14.6422 17.1875 14.6422L13.6426 14.6422C13.4668 13.939 13.3984 13.5191 13.3984 12.9918C13.3984 11.566 14.4531 10.6676 16.1328 10.6676C16.709 10.6676 17.1289 10.7457 17.5 10.8531C17.7051 10.9019 17.8906 10.9508 18.0371 10.9508C18.3594 10.9508 18.5352 10.775 18.5352 10.4625C18.5352 10.1695 18.3301 9.99373 18.0273 9.87654C17.373 9.62263 16.8262 9.54451 16.0059 9.54451C13.6426 9.54451 12.0508 10.8433 12.0508 13.0308C12.0508 13.5582 12.1387 14.0465 12.3145 14.6422L10.957 14.6422C10.6738 14.6422 10.459 14.8375 10.459 15.0914C10.459 15.3551 10.6738 15.5504 10.957 15.5504L12.5684 15.5504C12.6855 15.9996 12.7637 16.4293 12.7637 16.8394C12.7637 18.0699 12.0996 18.9781 10.9375 19.3687C10.625 19.4761 10.4199 19.691 10.4199 20.0133C10.4199 20.3453 10.6543 20.5797 10.9961 20.5797Z" fill="black" fill-opacity="0.85"/>
 </g>
</svg>
