<?xml version="1.0" ?><!-- Generator: Adobe Illustrator 25.0.0, SVG Export Plug-In . SVG Version: 6.00 Build 0)  --><svg xmlns="http://www.w3.org/2000/svg" xmlns:xlink="http://www.w3.org/1999/xlink" version="1.1" id="Layer_1" x="0px" y="0px" viewBox="0 0 512 512" style="enable-background:new 0 0 512 512;" xml:space="preserve">
<path d="M87.3,512h337.3c58.4,0,87.3-28.9,87.3-86.2V86.2C512,28.9,483.1,0,424.7,0H87.3C29.2,0,0,28.6,0,86.2v339.6  C0,483.4,29.2,512,87.3,512z M87.9,467.2c-27.8,0-43.1-14.7-43.1-43.7V88.4c0-28.9,15.3-43.7,43.1-43.7h336.2  c27.5,0,43.1,14.7,43.1,43.7v335.1c0,28.9-15.6,43.7-43.1,43.7H87.9z M168.3,381.6h169.1c9.7,0,16.7-6.4,16.7-16.4  c0-9.7-7-16.1-16.7-16.1H216.6c14.2-12.2,23.9-34.5,23.9-58.1c0-9.7-1.1-18.4-3.1-26.4H307c8.9,0,15.6-5.8,15.6-15  c0-8.9-6.7-14.7-15.6-14.7h-76.8c-2.5-10.6-4.7-22-4.7-35.3c0-30,21.4-50.6,57.8-50.6c23.9,0,35.3,6.4,42.8,6.4  c10.3,0,15-5.8,15-14.7c0-7.5-3.6-13.3-14.2-17.2c-12.8-5-28.1-7.2-45.6-7.2c-57.3,0-92.3,33.4-92.3,85.7c0,11.1,1.9,22.2,4.7,33.1  h-25.6c-8.9,0-15.3,5.8-15.3,14.7c0,9.2,6.4,15,15.3,15h32.8c2.5,9.5,4.2,18.9,4.2,27.8c0,29.5-18.1,48.9-38.9,54.8  c-10,3.3-14.5,8.6-14.5,18.1C151.8,374.9,158.5,381.6,168.3,381.6z"/>
</svg>