<?xml version="1.0" ?><!-- Generator: Adobe Illustrator 25.0.0, SVG Export Plug-In . SVG Version: 6.00 Build 0)  --><svg xmlns="http://www.w3.org/2000/svg" xmlns:xlink="http://www.w3.org/1999/xlink" version="1.1" id="Layer_1" x="0px" y="0px" viewBox="0 0 512 512" style="enable-background:new 0 0 512 512;" xml:space="preserve">
<path d="M256,512c35,0,67.9-6.7,98.8-20.1c30.9-13.4,58.1-31.9,81.7-55.5c23.6-23.6,42.1-50.8,55.5-81.7  C505.3,323.9,512,291,512,256s-6.7-67.9-20.1-98.8c-13.4-30.9-31.9-58.1-55.5-81.7c-23.6-23.6-50.9-42.1-81.8-55.5  C323.7,6.7,290.7,0,255.7,0S187.9,6.7,157,20.1C126.1,33.5,98.9,52,75.4,75.5c-23.5,23.6-42,50.8-55.3,81.7C6.7,188.1,0,221,0,256  s6.7,67.9,20.1,98.8c13.4,30.9,31.9,58.1,55.5,81.7s50.8,42.1,81.7,55.5C188.1,505.3,221,512,256,512z" class="hierarchical-0:tertiary SFSymbolsPreview8E8E8E" style="fill: #8E8E8E;"/>
<path d="M88.6,178.4c0-14.6,3.7-25.7,11.2-33.4c7.4-7.7,18.2-11.5,32.3-11.5h1.3c4.7-5.9,10.6-8.8,17.8-8.8c6.2,0,11.5,2.2,16.1,6.7  c4.5,4.4,6.8,9.8,6.8,16.2c0,6.2-2.3,11.5-6.8,16.1c-4.5,4.5-9.9,6.8-16.1,6.8c-7.2,0-13.1-2.8-17.6-8.5H131  c-9.2,0-13.8,5.5-13.8,16.6c0,10.5,2.1,21.7,6.3,33.4c4.2,11.7,9.6,22.6,16.3,32.8c6.7,10.1,13.9,18.4,21.6,24.7  c7.7,6.4,15.1,9.5,22.1,9.5s14.4-3.2,22.1-9.5c7.7-6.4,14.9-14.6,21.6-24.7c6.7-10.1,12.2-21,16.4-32.6c4.3-11.6,6.4-22.8,6.4-33.5  c0-11-4.7-16.6-14.1-16.6h-2.8c-4.7,5.7-10.5,8.5-17.3,8.5c-6.4,0-11.8-2.3-16.2-6.8c-4.4-4.5-6.7-9.9-6.7-16.1  c0-6.4,2.2-11.8,6.7-16.2c4.4-4.4,9.8-6.7,16.2-6.7c7.2,0,13.1,2.9,17.6,8.8h1.3c14.4,0,25.3,3.8,32.6,11.5c7.4,7.7,11,18.8,11,33.4  c0,13.2-2.3,26.7-7,40.5c-4.7,13.8-10.9,26.8-18.7,38.9c-7.8,12.1-16.5,22.5-26.1,31c-9.6,8.5-19.3,14.1-29,16.6  c1,20.7,4.7,36.6,11,47.6c6.4,11,15,16.4,25.9,16.4c8.2,0,15-2.4,20.5-7.3c5.4-4.9,10-12.4,13.7-22.7c3.7-10.3,6.9-23.6,9.8-40  c5.2-27.4,12.4-47.2,21.7-59.2c9.3-12,22.1-18.1,38.5-18.1c31.5,0,49.9,25.2,55.2,75.5c8.9,2.7,16.2,7.8,22,15.3  c5.8,7.5,8.7,16.1,8.7,25.6c0,11.9-4.2,22-12.7,30.5c-8.4,8.4-18.7,12.7-30.7,12.7c-12,0-22.2-4.2-30.5-12.5  c-8.3-8.4-12.4-18.6-12.4-30.6c0-9.2,2.6-17.4,7.8-24.6c5.2-7.2,11.8-12.3,19.8-15.3c-1.3-16.7-4.3-28.9-8.8-36.6  c-4.5-7.7-10.6-11.5-18.3-11.5c-8,0-14.5,4.1-19.5,12.3c-4.9,8.2-9.1,22.3-12.4,42.4c-5.5,32-14,55.4-25.3,70.4  c-11.4,15-26.7,22.5-45.9,22.5c-20.1,0-35.8-8.1-47.3-24.2c-11.5-16.1-17.8-38.9-18.9-68.4c-9.7-2.7-19.3-8.3-28.9-16.8  c-9.5-8.5-18.2-18.9-26-31c-7.8-12.1-14-25.1-18.7-38.9C90.9,204.9,88.6,191.5,88.6,178.4z M363.9,338.6c0,4.9,1.7,9,5,12.4  c3.3,3.4,7.4,5.1,12,5.1c4.9,0,9-1.7,12.4-5.1c3.4-3.4,5.1-7.6,5.1-12.4c0-4.9-1.7-9-5-12.3c-3.3-3.3-7.5-5-12.5-5  c-4.7,0-8.7,1.7-12,5C365.6,329.6,363.9,333.7,363.9,338.6z" class="hierarchical-1:primary SFSymbolsPreview212121" style="fill: #212121;"/>
</svg>