<?xml version="1.0" encoding="UTF-8"?>
<!--Generator: Apple Native CoreSVG 326-->
<!DOCTYPE svg
PUBLIC "-//W3C//DTD SVG 1.1//EN"
       "http://www.w3.org/Graphics/SVG/1.1/DTD/svg11.dtd">
<svg version="1.1" xmlns="http://www.w3.org/2000/svg" xmlns:xlink="http://www.w3.org/1999/xlink" viewBox="0 0 34.2285 27.0605">
 <g>
  <rect height="27.0605" opacity="0" width="34.2285" x="0" y="0"/>
  <path d="M5.12695 2.00195C5.12695 2.32734 5.21798 2.63198 5.37715 2.89063L4.80469 2.89062C3.45703 2.89062 2.82227 3.7207 2.82227 5.19531C2.82227 9.42383 6.66016 16.1328 10.2539 16.1328C13.8477 16.1328 17.6855 9.42383 17.6855 5.19531C17.6855 3.7207 17.0508 2.89062 15.7031 2.89062L15.1111 2.89063C15.2703 2.63198 15.3613 2.32734 15.3613 2.00195C15.3613 1.69326 15.2777 1.40257 15.1307 1.15234L15.5469 1.15234C18.1152 1.15234 19.4141 2.50977 19.4141 5.22461C19.4141 10.1509 15.1959 17.1729 11.1042 17.7981C11.2103 22.6618 12.7315 25.332 15.4395 25.332C18.6523 25.332 19.6777 22.5781 20.5469 17.5781C21.4746 12.3438 23.0273 10.2734 26.0059 10.2734C29.0464 10.2734 30.5819 12.7259 31.0313 17.7124C30.7895 17.6632 30.5392 17.6379 30.2832 17.6367C29.9506 17.6352 29.6277 17.6751 29.321 17.7558C29.0358 13.8793 27.9768 12.0117 26.0059 12.0117C24.0918 12.0117 22.9688 13.5254 22.2363 17.9883C21.25 24.1699 19.3555 27.0605 15.5371 27.0605C11.712 27.0605 9.50372 23.8636 9.37799 17.7964C5.29125 17.1548 1.08398 10.1445 1.08398 5.22461C1.08398 2.50977 2.38281 1.15234 4.96094 1.15234L5.35757 1.15234C5.2106 1.40257 5.12695 1.69326 5.12695 2.00195Z" fill="black" fill-opacity="0.85"/>
  <path d="M6.83594 3.7207C7.77344 3.7207 8.54492 2.94922 8.54492 2.00195C8.54492 1.06445 7.77344 0.292969 6.83594 0.292969C5.89844 0.292969 5.12695 1.06445 5.12695 2.00195C5.12695 2.94922 5.89844 3.7207 6.83594 3.7207ZM13.6523 3.7207C14.5898 3.7207 15.3613 2.94922 15.3613 2.00195C15.3613 1.06445 14.5898 0.292969 13.6523 0.292969C12.7148 0.292969 11.9434 1.06445 11.9434 2.00195C11.9434 2.94922 12.7148 3.7207 13.6523 3.7207ZM30.2832 25.5371C32.4609 25.5371 34.2285 23.7793 34.2285 21.5723C34.2285 19.4043 32.4609 17.6465 30.2832 17.6367C28.0957 17.627 26.3281 19.4043 26.3281 21.5723C26.3281 23.7793 28.0957 25.5371 30.2832 25.5371ZM30.2832 24.0039C28.9355 24.0039 27.8516 22.9199 27.8516 21.5723C27.8516 20.2344 28.9355 19.1602 30.2832 19.1602C31.6211 19.1602 32.7051 20.2344 32.7051 21.5723C32.7051 22.9199 31.6211 24.0039 30.2832 24.0039Z" fill="black" fill-opacity="0.85"/>
 </g>
</svg>
