<?xml version="1.0" ?><!-- Generator: Adobe Illustrator 25.0.0, SVG Export Plug-In . SVG Version: 6.00 Build 0)  --><svg xmlns="http://www.w3.org/2000/svg" xmlns:xlink="http://www.w3.org/1999/xlink" version="1.1" id="Layer_1" x="0px" y="0px" viewBox="0 0 512 512" style="enable-background:new 0 0 512 512;" xml:space="preserve">
<path d="M256,512c127.4,0,232.9-105.7,232.9-232.9c0-53.2-18.5-102.5-49.3-142l17.8-18c5.3-5.3,8.2-12.3,8.2-18.5  c0-12.8-10.3-23.1-23.5-23.1c-7.8,0-13.2,2.3-18.7,7.5L406,101.9c-34.7-29.7-78.3-49.3-125.8-54.4V25.1c0-13.7-10.7-25.1-24.4-25.1  c-13.2,0-24.4,11.4-24.4,25.1v22.4C115.1,59.8,23.1,160.1,23.1,279.1C23.1,406.3,128.8,512,256,512z M256,316.1  c-20.6,0-36.8-16.4-36.8-36.8c0-14.4,8.2-26.7,20.8-33.3V132.7c0-8.9,6.9-15.8,15.8-15.8c8.9,0,16,6.9,16,15.8v113.5  c12.8,6.2,21,18.7,21,33.1C292.8,299.6,276.3,316.1,256,316.1z"/>
</svg>