<?xml version="1.0" encoding="UTF-8"?>
<!--Generator: Apple Native CoreSVG 326-->
<!DOCTYPE svg
PUBLIC "-//W3C//DTD SVG 1.1//EN"
       "http://www.w3.org/Graphics/SVG/1.1/DTD/svg11.dtd">
<svg version="1.1" xmlns="http://www.w3.org/2000/svg" xmlns:xlink="http://www.w3.org/1999/xlink" viewBox="0 0 25.8008 25.459">
 <g>
  <rect height="25.459" opacity="0" width="25.8008" x="0" y="0"/>
  <path d="M12.7148 25.4395C19.7363 25.4395 25.4395 19.7461 25.4395 12.7246C25.4395 5.70312 19.7363 0 12.7148 0C5.69336 0 0 5.70312 0 12.7246C0 19.7461 5.69336 25.4395 12.7148 25.4395ZM12.7148 23.623C6.68945 23.623 1.81641 18.75 1.81641 12.7246C1.81641 6.69922 6.68945 1.82617 12.7148 1.82617C18.7402 1.82617 23.6133 6.69922 23.6133 12.7246C23.6133 18.75 18.7402 23.623 12.7148 23.623Z" fill="black" fill-opacity="0.85"/>
  <path d="M5.54688 9.98047L19.7266 9.98047L17.832 6.41602C17.5684 5.92773 17.0898 5.6543 16.5332 5.6543L8.74023 5.6543C8.18359 5.6543 7.70508 5.92773 7.44141 6.41602ZM7.51953 12.6562C8.25195 12.6562 8.87695 12.3047 9.22852 11.748C9.57031 12.3047 10.1855 12.6562 10.9375 12.6562C11.6699 12.6562 12.2852 12.3047 12.6367 11.748C12.9883 12.3047 13.6035 12.6562 14.3359 12.6562C15.0879 12.6562 15.7031 12.3047 16.0547 11.748C16.4062 12.3047 17.0215 12.6562 17.7539 12.6562C18.916 12.6562 19.8438 11.7676 19.8438 10.8789L19.8438 10.791L5.42969 10.791L5.42969 10.9766C5.42969 11.875 6.35742 12.6562 7.51953 12.6562ZM7.76367 19.7852L17.6465 19.7852C18.5449 19.7852 19.0527 19.2871 19.0527 18.3984L19.0527 13.1836C18.6914 13.3594 18.2715 13.4766 17.8223 13.4766C17.1582 13.4766 16.5723 13.252 16.123 12.8711C15.6641 13.252 15.0684 13.4766 14.4043 13.4766C13.75 13.4766 13.1543 13.252 12.7051 12.8711C12.2559 13.252 11.6602 13.4766 11.0059 13.4766C10.3418 13.4766 9.74609 13.252 9.29688 12.8711C8.82812 13.252 8.25195 13.4766 7.58789 13.4766C7.13867 13.4766 6.71875 13.3789 6.35742 13.2129L6.35742 18.3984C6.35742 19.2969 6.86523 19.7852 7.76367 19.7852ZM10.3027 18.6523L10.3027 15.1855C10.3027 14.9023 10.498 14.7168 10.7812 14.7168L14.6484 14.7168C14.9219 14.7168 15.1074 14.9023 15.1074 15.1855L15.1074 18.6523Z" fill="black" fill-opacity="0.85"/>
 </g>
</svg>
