<?xml version="1.0" encoding="UTF-8"?>
<!--Generator: Apple Native CoreSVG 326-->
<!DOCTYPE svg
PUBLIC "-//W3C//DTD SVG 1.1//EN"
       "http://www.w3.org/Graphics/SVG/1.1/DTD/svg11.dtd">
<svg version="1.1" xmlns="http://www.w3.org/2000/svg" xmlns:xlink="http://www.w3.org/1999/xlink" viewBox="0 0 27.7148 26.9238">
 <g>
  <rect height="26.9238" opacity="0" width="27.7148" x="0" y="0"/>
  <path d="M4.42383 26.8945L23.1641 26.8945C24.8828 26.8945 25.8594 25.9375 25.8594 24.248L25.8594 14.2871C25.166 14.6387 24.3555 14.8633 23.4863 14.8633C22.2363 14.8633 21.123 14.4336 20.2637 13.7305C19.3848 14.4336 18.2617 14.8633 17.0215 14.8633C15.7715 14.8633 14.6484 14.4336 13.7891 13.7305C12.9395 14.4336 11.8164 14.8633 10.5664 14.8633C9.31641 14.8633 8.20312 14.4336 7.33398 13.7305C6.46484 14.4336 5.3418 14.8633 4.10156 14.8633C3.24219 14.8633 2.43164 14.668 1.72852 14.3457L1.72852 24.248C1.72852 25.9375 2.70508 26.8945 4.42383 26.8945ZM5.86914 25.166L5.86914 18.2031C5.86914 17.6562 6.23047 17.3047 6.77734 17.3047L11.6992 17.3047C12.2461 17.3047 12.5977 17.6562 12.5977 18.2031L12.5977 25.166ZM16.2598 21.9922C15.7129 21.9922 15.3516 21.6406 15.3516 21.0938L15.3516 17.6855C15.3516 17.1387 15.7129 16.7773 16.2598 16.7773L21.4453 16.7773C21.9922 16.7773 22.3438 17.1387 22.3438 17.6855L22.3438 21.0938C22.3438 21.6406 21.9922 21.9922 21.4453 21.9922ZM3.1543 2.65625L24.1895 2.65625L24.1895 2.38281C24.1895 0.878906 23.291 0 21.7676 0L5.57617 0C4.05273 0 3.1543 0.878906 3.1543 2.38281ZM0.214844 8.95508L27.1191 8.95508C27.0703 8.86719 27.0312 8.76953 26.9727 8.68164L24.4531 3.81836L2.89062 3.81836L0.361328 8.68164C0.3125 8.76953 0.263672 8.86719 0.214844 8.95508ZM3.98438 13.6816C5.37109 13.6816 6.5332 13.0273 7.2168 11.9824C7.88086 13.0273 9.0625 13.6816 10.4492 13.6816C11.8359 13.6816 13.0078 13.0176 13.6719 11.9824C14.3457 13.0176 15.5078 13.6816 16.9043 13.6816C18.291 13.6816 19.4629 13.0273 20.1465 11.9824C20.8105 13.0273 21.9824 13.6816 23.3691 13.6816C25.5859 13.6816 27.3535 11.9824 27.3535 10.3125L27.3535 10.1172L0 10.1172L0 10.5078C0 12.1875 1.76758 13.6816 3.98438 13.6816Z" fill="black" fill-opacity="0.85"/>
 </g>
</svg>
