<?xml version="1.0" encoding="UTF-8"?>
<!--Generator: Apple Native CoreSVG 326-->
<!DOCTYPE svg
PUBLIC "-//W3C//DTD SVG 1.1//EN"
       "http://www.w3.org/Graphics/SVG/1.1/DTD/svg11.dtd">
<svg version="1.1" xmlns="http://www.w3.org/2000/svg" xmlns:xlink="http://www.w3.org/1999/xlink" viewBox="0 0 25.8008 25.459">
 <g>
  <rect height="25.459" opacity="0" width="25.8008" x="0" y="0"/>
  <path d="M25.4395 12.7246C25.4395 19.7266 19.7266 25.4395 12.7148 25.4395C5.71289 25.4395 0 19.7266 0 12.7246C0 5.71289 5.71289 0 12.7148 0C19.7266 0 25.4395 5.71289 25.4395 12.7246ZM14.4531 13.4961C13.7891 13.4961 13.1738 13.2617 12.7148 12.8711C12.2559 13.2617 11.6406 13.4961 10.9766 13.4961C10.293 13.4961 9.6875 13.2617 9.22852 12.8711C8.75 13.2617 8.1543 13.4961 7.48047 13.4961C7.01172 13.4961 6.58203 13.3887 6.21094 13.2227L6.21094 18.5449C6.21094 19.4531 6.73828 19.9707 7.65625 19.9707L17.7734 19.9707C18.6914 19.9707 19.2188 19.4434 19.2188 18.5449L19.2188 13.1934C18.8477 13.3691 18.4082 13.4961 17.9492 13.4961C17.2852 13.4961 16.6699 13.2617 16.2109 12.8711C15.7422 13.2617 15.1367 13.4961 14.4531 13.4961ZM15.1758 15.2441L15.1758 18.7891L10.2539 18.7891L10.2539 15.2441C10.2539 14.9512 10.4492 14.7656 10.7422 14.7656L14.707 14.7656C14.9902 14.7656 15.1758 14.9512 15.1758 15.2441ZM5.26367 10.7324L5.26367 10.9277C5.26367 11.8457 6.2207 12.6465 7.41211 12.6465C8.16406 12.6465 8.78906 12.2852 9.16016 11.7188C9.51172 12.2852 10.1367 12.6465 10.9082 12.6465C11.6602 12.6465 12.2852 12.2852 12.6465 11.7188C13.0078 12.2852 13.6328 12.6465 14.3848 12.6465C15.1562 12.6465 15.7812 12.2852 16.1426 11.7188C16.5039 12.2852 17.1387 12.6465 17.8809 12.6465C19.082 12.6465 20.0293 11.7383 20.0293 10.8301L20.0293 10.7324ZM8.66211 5.47852C8.08594 5.47852 7.59766 5.76172 7.32422 6.25977L5.39062 9.90234L19.9023 9.90234L17.9688 6.25977C17.7051 5.76172 17.207 5.47852 16.6406 5.47852Z" fill="black" fill-opacity="0.85"/>
 </g>
</svg>
