<?xml version="1.0" ?><!-- Generator: Adobe Illustrator 25.0.0, SVG Export Plug-In . SVG Version: 6.00 Build 0)  --><svg xmlns="http://www.w3.org/2000/svg" xmlns:xlink="http://www.w3.org/1999/xlink" version="1.1" id="Layer_1" x="0px" y="0px" viewBox="0 0 512 512" style="enable-background:new 0 0 512 512;" xml:space="preserve">
<path d="M7.9,314.8c0,62.9,48.9,111.8,111.8,111.8c35.2,0,71.4-11.6,86.7-42.6h2.6c0.3,35.2-38.3,64.2-54.2,80.6  c-19,19.8-7.4,47.3,17.2,47.3h167.8c24.6,0,35.9-27.5,17.2-47.3c-15.9-16.4-54.5-45.5-54.2-80.6h2.6c15.3,30.9,51.5,42.6,86.4,42.6  c63.2,0,112.1-48.9,112.1-111.8c0-118.4-157.5-168.4-220.7-295.8c-5.3-10.8-13.5-19-27.5-19c-14,0-21.9,8.2-27.2,19  C165.5,146.4,7.9,196.4,7.9,314.8z"/>
</svg>