<?xml version="1.0" ?><!-- Generator: Adobe Illustrator 25.0.0, SVG Export Plug-In . SVG Version: 6.00 Build 0)  --><svg xmlns="http://www.w3.org/2000/svg" xmlns:xlink="http://www.w3.org/1999/xlink" version="1.1" id="Layer_1" x="0px" y="0px" viewBox="0 0 512 512" style="enable-background:new 0 0 512 512;" xml:space="preserve">
<path d="M93.6,138.1v313.6h35.6V138.1H93.6z M382.6,138.1v313.6h35.6V138.1H382.6z M68.3,470.3h375.3c22.9,0,40-5.6,51.3-16.8  c11.4-11.2,17-28.1,17-50.6V187.7c0-22.7-5.7-39.6-17-50.8c-11.4-11.1-28.5-16.7-51.3-16.7H68.3c-22.7,0-39.8,5.6-51.2,16.7  C5.7,148,0,165,0,187.7v215.2c0,22.6,5.7,39.4,17.1,50.6C28.6,464.7,45.6,470.3,68.3,470.3z M68.8,434.9c-10.8,0-19-2.8-24.7-8.4  c-5.7-5.6-8.5-14.1-8.5-25.4V189.4c0-11.4,2.8-19.8,8.5-25.4c5.7-5.6,13.9-8.4,24.7-8.4h374.4c10.8,0,19,2.8,24.7,8.4  c5.7,5.6,8.5,14.1,8.5,25.4v211.7c0,11.4-2.8,19.8-8.5,25.4c-5.7,5.6-13.9,8.4-24.7,8.4H68.8z M143.8,139.4H178v-39.1  c0-8.4,2.4-14.9,7.1-19.5c4.7-4.6,11.4-6.9,20.1-6.9h101.5c8.6,0,15.2,2.3,19.9,6.9c4.7,4.6,7.1,11.1,7.1,19.5V139H368v-36.3  c0-20.8-5.3-36.2-15.9-46.1c-10.6-10-26-14.9-46-14.9H205.7c-18.9,0-33.9,5-45.1,14.9c-11.2,10-16.8,25.3-16.8,46.1V139.4z"/>
</svg>