<?xml version="1.0" encoding="UTF-8"?>
<!--Generator: Apple Native CoreSVG 326-->
<!DOCTYPE svg
PUBLIC "-//W3C//DTD SVG 1.1//EN"
       "http://www.w3.org/Graphics/SVG/1.1/DTD/svg11.dtd">
<svg version="1.1" xmlns="http://www.w3.org/2000/svg" xmlns:xlink="http://www.w3.org/1999/xlink" viewBox="0 0 23.7695 24.7363">
 <g>
  <rect height="24.7363" opacity="0" width="23.7695" x="0" y="0"/>
  <path d="M0 14.5996C0 17.7734 2.11914 19.8828 5.29297 19.8828C7.01172 19.8828 8.57422 19.1211 9.4043 18.0957L9.21875 17.7148C8.83789 19.5215 7.63672 20.9375 6.8457 21.7969C6.06445 22.7246 6.42578 23.9648 7.72461 23.9648L15.6836 23.9648C16.9824 23.9648 17.3438 22.7246 16.5625 21.7969C15.7715 20.9375 14.5703 19.5215 14.1895 17.7148L14.0039 18.0957C14.834 19.1211 16.3867 19.8828 18.1152 19.8828C21.2891 19.8828 23.4082 17.7734 23.4082 14.5996C23.4082 9.30664 15.8008 6.74805 12.793 0.839844C12.5488 0.361328 12.2949 0 11.6992 0C11.1035 0 10.8496 0.361328 10.6152 0.839844C7.60742 6.74805 0 9.30664 0 14.5996ZM1.5918 14.5801C1.5918 10.2148 8.75 8.0957 11.6992 1.75781C14.6582 8.0957 21.8164 10.2148 21.8164 14.5801C21.8164 16.8652 20.293 18.3691 18.0078 18.3691C16.4941 18.3691 15.2734 17.7148 14.4336 16.8848C13.7305 16.25 12.7148 16.582 12.8125 17.6465C13.0566 19.082 13.9355 20.9082 14.9121 22.002C15.1172 22.2363 15.0195 22.4609 14.7754 22.4609L8.63281 22.4609C8.38867 22.4609 8.29102 22.2363 8.49609 22.002C9.47266 20.9082 10.3516 19.082 10.5957 17.6465C10.6934 16.582 9.67773 16.2402 8.97461 16.8848C8.13477 17.7148 6.91406 18.3691 5.39062 18.3691C3.11523 18.3691 1.5918 16.8652 1.5918 14.5801Z" fill="black" fill-opacity="0.85"/>
 </g>
</svg>
