<?xml version="1.0" ?><!-- Generator: Adobe Illustrator 25.0.0, SVG Export Plug-In . SVG Version: 6.00 Build 0)  --><svg xmlns="http://www.w3.org/2000/svg" xmlns:xlink="http://www.w3.org/1999/xlink" version="1.1" id="Layer_1" x="0px" y="0px" viewBox="0 0 512 512" style="enable-background:new 0 0 512 512;" xml:space="preserve">
<path d="M255.9,512c13.8,0,20.5-9.2,34.7-28.2l149.3-199.3c6.8-9.2,10.7-18.5,10.7-28.5c0-10.3-4-19.3-10.7-28.5L290.6,28  c-14.2-18.7-21-28-34.7-28c-13.7,0-20.5,9.2-34.5,28L72.1,227.5c-7,9.2-10.7,18.2-10.7,28.5c0,10,3.8,19.3,10.7,28.5l149.3,199.3  C235.4,502.8,242.1,512,255.9,512z"/>
</svg>