<?xml version="1.0" ?><!-- Generator: Adobe Illustrator 25.0.0, SVG Export Plug-In . SVG Version: 6.00 Build 0)  --><svg xmlns="http://www.w3.org/2000/svg" xmlns:xlink="http://www.w3.org/1999/xlink" version="1.1" id="Layer_1" x="0px" y="0px" viewBox="0 0 512 512" style="enable-background:new 0 0 512 512;" xml:space="preserve">
<path d="M0.2,283.6c0,29.9,15.9,44.9,47.6,44.9h285c31.9,0,47.8-15,47.8-44.9V114c0-29.9-15.9-44.9-47.8-44.9h-285  c-31.7,0-47.6,15-47.6,44.9V283.6z M104.4,86.2h29.4V54.9c0-11.8,6.1-17.7,18.4-17.7h76.2c12.4,0,18.6,5.9,18.6,17.7v30.9h29.4v-29  c0-31.7-16.2-47.6-48.7-47.6h-75c-15.7,0-27.7,4.1-36,12.2c-8.3,8.1-12.4,19.9-12.4,35.4V86.2z M62.2,328.5V69.1h26.1v259.3H62.2z   M292.3,328.5V69.1h26.1v259.3H292.3z" class="hierarchical-0:secondary SFSymbolsPreview4D4D4D" style="fill: #4D4D4D;"/>
<path d="M16.9,395.3h375.4c19.6,0,34.1-4.6,43.3-13.7c9.3-9.1,13.9-23.4,13.9-42.7V131.3c0-17.7,8.7-26.5,26.1-26.5h19.6  c4.5,0,8.4-1.7,11.7-5c3.3-3.3,5-7.3,5-11.9c0-4.5-1.7-8.4-5-11.7c-3.3-3.3-7.2-5-11.7-5h-22.1c-19.6,0-34.1,4.6-43.3,13.7  c-9.3,9.1-13.9,23.4-13.9,42.7v207.6c0,17.7-8.7,26.5-26.1,26.5H16.9c-4.6,0-8.6,1.6-11.9,4.8c-3.3,3.2-5,7.2-5,11.9s1.7,8.7,5,12  C8.4,393.6,12.3,395.3,16.9,395.3z M90.8,502.8c7,0,13.4-1.8,19.2-5.3c5.8-3.5,10.5-8.2,14.1-14.1c3.5-5.8,5.3-12.3,5.3-19.2  c0-7.1-1.8-13.6-5.3-19.5c-3.5-5.9-8.2-10.6-14.1-14.2c-5.8-3.5-12.3-5.3-19.2-5.3c-7.1,0-13.6,1.8-19.4,5.3  c-5.8,3.5-10.5,8.3-14.1,14.2c-3.5,5.9-5.3,12.4-5.3,19.5c0,7,1.8,13.4,5.3,19.2c3.5,5.8,8.2,10.5,14.1,14.1  C77.3,501,83.7,502.8,90.8,502.8z M314.7,502.8c7,0,13.4-1.8,19.3-5.3c5.9-3.5,10.6-8.2,14.1-14.1c3.5-5.8,5.2-12.3,5.2-19.2  c0-7.1-1.7-13.6-5.2-19.5c-3.5-5.9-8.2-10.6-14.1-14.2c-5.9-3.5-12.4-5.3-19.3-5.3s-13.4,1.8-19.3,5.3c-5.9,3.5-10.6,8.3-14.1,14.2  c-3.5,5.9-5.2,12.4-5.2,19.5c0,7,1.7,13.4,5.2,19.2c3.5,5.8,8.2,10.5,14.1,14.1C301.3,501,307.7,502.8,314.7,502.8z" class="hierarchical-1:primary SFSymbolsPreview212121" style="fill: #212121;"/>
</svg>