<?xml version="1.0" encoding="UTF-8"?>
<!--Generator: Apple Native CoreSVG 326-->
<!DOCTYPE svg
PUBLIC "-//W3C//DTD SVG 1.1//EN"
       "http://www.w3.org/Graphics/SVG/1.1/DTD/svg11.dtd">
<svg version="1.1" xmlns="http://www.w3.org/2000/svg" xmlns:xlink="http://www.w3.org/1999/xlink" viewBox="0 0 19.6289 33.2129">
 <g>
  <rect height="33.2129" opacity="0" width="19.6289" x="0" y="0"/>
  <path d="M3.38867 30.9473L15.8789 30.9473C17.8711 30.9473 19.2676 29.541 19.2676 27.5195L19.2676 10.1465C19.2676 8.125 17.8711 6.71875 15.8789 6.71875L3.38867 6.71875C1.39648 6.71875 0 8.125 0 10.1465L0 27.5195C0 29.541 1.39648 30.9473 3.38867 30.9473ZM0 26.0742L0 24.2188L19.2676 24.2188L19.2676 26.0742ZM4.26758 7.92969L5.9375 7.92969L5.9375 2.73438C5.9375 2.03125 6.40625 1.58203 7.11914 1.58203L12.2559 1.58203C12.9102 1.58203 13.3301 2.03125 13.3301 2.73438L13.3301 7.91016L15.0098 7.91016L15.0098 2.76367C15.0098 1.08398 13.9551 0 12.3242 0L7.05078 0C5.35156 0 4.26758 1.08398 4.26758 2.76367ZM4.08203 32.7637L4.80469 32.7637C5.43945 32.7637 5.84961 32.3633 5.84961 31.7188L5.84961 29.9609L3.03711 29.9609L3.03711 31.7188C3.03711 32.3633 3.4375 32.7637 4.08203 32.7637ZM14.4629 32.7637L15.1855 32.7637C15.8203 32.7637 16.2207 32.3633 16.2207 31.7188L16.2207 29.9609L13.418 29.9609L13.418 31.7188C13.418 32.3633 13.8184 32.7637 14.4629 32.7637Z" fill="black" fill-opacity="0.85"/>
 </g>
</svg>
