<?xml version="1.0" ?><!-- Generator: Adobe Illustrator 25.0.0, SVG Export Plug-In . SVG Version: 6.00 Build 0)  --><svg xmlns="http://www.w3.org/2000/svg" xmlns:xlink="http://www.w3.org/1999/xlink" version="1.1" id="Layer_1" x="0px" y="0px" viewBox="0 0 512 512" style="enable-background:new 0 0 512 512;" xml:space="preserve">
<path d="M0,305.3c0,69.5,46.4,116,116,116c29.8,0,59.6-9.9,78.9-25.8c-11,29.3-30.9,51-42.4,64.7c-16.6,20.7-8.6,48.1,20.4,48.1  h166.2c29,0,37.1-27.4,20.1-48.1c-11.5-13.7-31.4-35.4-42.2-64.7c19.3,15.8,49.1,25.8,78.9,25.8c69.5,0,116-46.4,116-116  c0-64.2-52.1-116.3-115.7-116.3c-19.6,0-39.5,5.1-57.5,14c23.4-25,33-55.8,33-83c0-64.2-52.1-116.3-116-116.3  c-63.6,0-115.7,52.1-115.7,116.3c0,27.4,9.7,57.7,33,83c-18-8.9-37.9-14-57.5-14C52.1,189,0,241.1,0,305.3z M38.1,306.1  c0-43.2,34.9-77.9,77.6-77.9c33,0,55.8,10.7,74.1,18c8.3,2.7,15,4.8,21.7,4.8c9.7,0,19.1-6.4,19.1-18.8c0-7-2.7-14-7.5-19.6  c-23.9-27.9-44.8-49.9-44.8-91.8c0-43.2,34.6-77.9,77.6-77.9c43.2,0,77.9,34.6,77.9,77.9c0,41.9-20.9,63.9-44.8,91.8  c-4.8,5.6-7.5,12.6-7.5,19.6c0,12.4,9.4,18.8,19.1,18.8c6.7,0,13.2-2.1,21.5-4.8c18.3-7,41.1-18,74.4-18c42.7,0,77.6,34.6,77.6,77.9  c0,46.4-31.1,77.1-77.9,77.1c-32.5,0-63.6-12.9-81.4-29c-16.1-14.2-39.2-7.5-38.1,16.9c2.7,27.7,21.5,69,40.3,91.8  c4,4.6,1.6,8.3-2.4,8.3H197.6c-4,0-6.4-3.8-2.4-8.3c18.8-22.8,37.3-64.2,40.3-91.8c1.1-24.4-22-31.1-38.4-16.9  c-17.7,16.1-48.6,29-81.1,29C69.3,383.1,38.1,352.5,38.1,306.1z"/>
</svg>