<?xml version="1.0" encoding="UTF-8"?>
<!--Generator: Apple Native CoreSVG 326-->
<!DOCTYPE svg
PUBLIC "-//W3C//DTD SVG 1.1//EN"
       "http://www.w3.org/Graphics/SVG/1.1/DTD/svg11.dtd">
<svg version="1.1" xmlns="http://www.w3.org/2000/svg" xmlns:xlink="http://www.w3.org/1999/xlink" viewBox="0 0 14.873 23.2129">
 <g>
  <rect height="23.2129" opacity="0" width="14.873" x="0" y="0"/>
  <path d="M1.43555 23.2129L13.5254 23.2129C14.082 23.2129 14.4922 22.8613 14.4922 22.3145C14.4922 21.7676 14.082 21.4062 13.5254 21.4062L2.24609 21.4062L2.24609 21.3184L9.39453 12.4023C9.67773 12.0605 9.82422 11.7285 9.82422 11.3867C9.82422 11.0352 9.66797 10.6738 9.38477 10.3516L2.26562 1.89453L2.26562 1.80664L13.5449 1.80664C14.1016 1.80664 14.5117 1.44531 14.5117 0.898438C14.5117 0.351562 14.1016 0 13.5449 0L1.46484 0C0.546875 0 0.0292969 0.644531 0.0292969 1.35742C0.0292969 1.71875 0.166016 2.09961 0.439453 2.42188L7.94922 11.3184L7.94922 11.4258L0.410156 20.791C0.136719 21.1133 0 21.4941 0 21.8652C0 22.5684 0.517578 23.2129 1.43555 23.2129Z" fill="black" fill-opacity="0.85"/>
 </g>
</svg>
