<?xml version="1.0" ?><!-- Generator: Adobe Illustrator 25.0.0, SVG Export Plug-In . SVG Version: 6.00 Build 0)  --><svg xmlns="http://www.w3.org/2000/svg" xmlns:xlink="http://www.w3.org/1999/xlink" version="1.1" id="Layer_1" x="0px" y="0px" viewBox="0 0 512 512" style="enable-background:new 0 0 512 512;" xml:space="preserve">
<path d="M132.5,512h258.9c14.2,0,25-8.9,25-23.4c0-14.2-10.8-23.6-25-23.6H153.9v-2.5l150.5-182.4c7.2-8.9,11.1-17.8,11.1-26.7  c0-9.2-3.9-18.4-11.4-27L154.2,49.5V47h237.2c14.5,0,25.3-9.5,25.3-23.6C416.7,8.9,405.9,0,391.4,0H132.8  c-23.9,0-37.3,16.4-37.3,34.8c0,9.5,3.6,19.5,10.8,27.8l160.5,189.1v3.1l-161,194.7c-7,8.3-10.6,18.4-10.6,27.8  C95.3,495.6,108.6,512,132.5,512z"/>
</svg>