<?xml version="1.0" ?><!-- Generator: Adobe Illustrator 25.0.0, SVG Export Plug-In . SVG Version: 6.00 Build 0)  --><svg xmlns="http://www.w3.org/2000/svg" xmlns:xlink="http://www.w3.org/1999/xlink" version="1.1" id="Layer_1" x="0px" y="0px" viewBox="0 0 512 512" style="enable-background:new 0 0 512 512;" xml:space="preserve">
<path d="M256,90.5c9.6-0.2,17.3-8.1,17.3-19.2V19c0-11.1-7.7-19-17.3-19c-9.6,0-17.3,7.9-17.3,19v52.4  C238.7,82.4,246.4,90.7,256,90.5z M365.9,135.9c6.6,6.6,17.9,6.6,25.8-1.1l37.1-37.1c7.9-7.9,7.7-19,0.9-25.8  c-6.4-6.8-17.5-6.8-25.6,1.1L367,110.1C359.3,118,359.1,129.3,365.9,135.9z M146.1,135.9c6.6-6.8,6.6-17.9-1.3-25.8l-37.1-37.1  C99.9,65.2,89,65.4,82.2,72c-6.8,6.6-6.8,17.9,1.1,25.8l37.1,37.1C128.2,142.5,139.5,142.7,146.1,135.9z M371.4,245.6  c0-63-52.4-115.6-115.4-115.6c-63,0-115.4,52.6-115.4,115.6c0,15.1,3.4,29.8,8.9,43h212.8C368,275.4,371.4,260.7,371.4,245.6z   M29.2,257.7h52.4c11.1,0,19.4-7.9,19.2-17.5c-0.2-9.4-8.1-17.3-19.2-17.3H29.2c-11.1,0-19,7.9-19,17.3  C10.2,249.8,18.1,257.7,29.2,257.7z M430.4,257.7h52.4c11.1,0,19-7.9,19-17.5c0-9.4-7.9-17-19-17.3h-52.4  c-11.1,0-19.4,7.9-19.2,17.3C411.5,249.8,419.4,257.7,430.4,257.7z M39.2,340.3h432.6c7.7,0,13.4-6,13.4-13.6  c0-7.7-5.7-13.4-13.4-13.4H39.2c-7.5,0-13.4,5.8-13.4,13.4C25.8,334.4,31.7,340.3,39.2,340.3z M58.4,408.9c5.8,0,10.6-4.9,10.6-10.9  s-4.9-10.9-10.6-10.9c-6.2,0-10.9,4.9-10.9,10.9S52.2,408.9,58.4,408.9z M148.2,408.9c6,0,10.9-4.9,10.9-10.9s-4.9-10.9-10.9-10.9  c-6,0-10.9,4.9-10.9,10.9S142.3,408.9,148.2,408.9z M238.3,408.9c5.8,0,10.6-4.9,10.6-10.9s-4.9-10.9-10.6-10.9  c-6.2,0-10.9,4.9-10.9,10.9S232.1,408.9,238.3,408.9z M328.2,408.9c6,0,10.9-4.9,10.9-10.9s-4.9-10.9-10.9-10.9  c-6,0-10.9,4.9-10.9,10.9S322.2,408.9,328.2,408.9z M418.3,408.9c5.7,0,10.6-4.9,10.6-10.9s-4.9-10.9-10.6-10.9  c-6.2,0-10.9,4.9-10.9,10.9S412.1,408.9,418.3,408.9z M31.1,460.7c6,0,10.9-4.9,10.9-11.1c0-5.8-4.9-10.6-10.9-10.6  s-10.9,4.9-10.9,10.6C20.2,455.8,25.1,460.7,31.1,460.7z M121.2,460.7c5.8,0,10.6-4.9,10.6-11.1c0-5.8-4.9-10.6-10.6-10.6  c-6.2,0-11.1,4.9-11.1,10.6C110.1,455.8,115,460.7,121.2,460.7z M211.1,460.7c6,0,10.9-4.9,10.9-11.1c0-5.8-4.9-10.6-10.9-10.6  s-10.9,4.9-10.9,10.6C200.2,455.8,205.1,460.7,211.1,460.7z M301.2,460.7c5.8,0,10.6-4.9,10.6-11.1c0-5.8-4.9-10.6-10.6-10.6  c-6.2,0-11.1,4.9-11.1,10.6C290.1,455.8,295,460.7,301.2,460.7z M391,460.7c6,0,10.9-4.9,10.9-11.1c0-5.8-4.9-10.6-10.9-10.6  c-6,0-10.9,4.9-10.9,10.6C380.2,455.8,385.1,460.7,391,460.7z M481.1,460.7c5.8,0,10.7-4.9,10.7-11.1c0-5.8-4.9-10.6-10.7-10.6  c-6.2,0-11.1,4.9-11.1,10.6C470,455.8,474.9,460.7,481.1,460.7z M93.9,512c6,0,10.6-4.9,10.6-10.9c0-6-4.7-10.6-10.6-10.6  c-6.2,0-10.9,4.7-10.9,10.6C83.1,507.1,87.7,512,93.9,512z M184,512c5.8,0,10.6-4.9,10.6-10.9c0-6-4.9-10.6-10.6-10.6  c-6.2,0-11.1,4.7-11.1,10.6C172.9,507.1,177.8,512,184,512z M273.9,512c6,0,10.6-4.9,10.6-10.9c0-6-4.7-10.6-10.6-10.6  c-6.2,0-10.9,4.7-10.9,10.6C263,507.1,267.7,512,273.9,512z M364,512c5.8,0,10.6-4.9,10.6-10.9c0-6-4.9-10.6-10.6-10.6  c-6.2,0-11.1,4.7-11.1,10.6C352.9,507.1,357.8,512,364,512z M453.9,512c6,0,10.7-4.9,10.7-10.9c0-6-4.7-10.6-10.7-10.6  c-6.2,0-10.9,4.7-10.9,10.6C443,507.1,447.7,512,453.9,512z"/>
</svg>