<?xml version="1.0" encoding="UTF-8"?>
<!--Generator: Apple Native CoreSVG 326-->
<!DOCTYPE svg
PUBLIC "-//W3C//DTD SVG 1.1//EN"
       "http://www.w3.org/Graphics/SVG/1.1/DTD/svg11.dtd">
<svg version="1.1" xmlns="http://www.w3.org/2000/svg" xmlns:xlink="http://www.w3.org/1999/xlink" viewBox="0 0 32.2852 31.8457">
 <g>
  <rect height="31.8457" opacity="0" width="32.2852" x="0" y="0"/>
  <path d="M22.7148 15.3027C22.7148 16.2803 22.4993 17.2145 22.1084 18.0566L9.82517 18.0566C9.43426 17.2145 9.21875 16.2803 9.21875 15.3027C9.21875 11.6113 12.2754 8.54492 15.9668 8.54492C19.6582 8.54492 22.7148 11.6113 22.7148 15.3027ZM6.77734 14.9902C6.78711 15.4785 6.37695 15.8594 5.83008 15.8594L2.36328 15.8594C1.82617 15.8594 1.42578 15.4688 1.42578 14.9902C1.42578 14.5117 1.82617 14.1211 2.36328 14.1211L5.83008 14.1211C6.37695 14.1211 6.76758 14.5215 6.77734 14.9902ZM30.5078 14.9902C30.5078 15.4785 30.1074 15.8691 29.5605 15.8594L26.1035 15.8594C25.5566 15.8594 25.1562 15.4688 25.1465 14.9902C25.1367 14.5117 25.5566 14.1211 26.1035 14.1211L29.5605 14.1211C30.1074 14.1309 30.5078 14.5215 30.5078 14.9902ZM6.96289 5.07812L9.41406 7.5293C9.79492 7.91016 9.79492 8.47656 9.46289 8.81836C9.14062 9.16016 8.56445 9.15039 8.17383 8.75977L5.73242 6.31836C5.33203 5.91797 5.3418 5.37109 5.68359 5.03906C6.01562 4.70703 6.57227 4.6875 6.96289 5.07812ZM26.2402 5.03906C26.582 5.38086 26.5918 5.91797 26.2012 6.31836L23.75 8.75977C23.3691 9.15039 22.8027 9.15039 22.4609 8.81836C22.1191 8.48633 22.1289 7.91016 22.5195 7.5293L24.9609 5.07812C25.3613 4.6875 25.918 4.69727 26.2402 5.03906ZM16.8359 1.71875L16.8359 5.17578C16.8359 5.72266 16.4453 6.12305 15.9668 6.13281C15.4883 6.14258 15.0977 5.72266 15.0977 5.17578L15.0977 1.71875C15.0977 1.17188 15.4883 0.771484 15.9668 0.771484C16.4453 0.771484 16.8359 1.17188 16.8359 1.71875Z" fill="black" fill-opacity="0.85"/>
  <path d="M8.98438 27.1191C9.20898 27.1191 9.35547 26.9141 9.3457 26.6797L9.27734 25.4492L10.3125 26.1328C10.498 26.25 10.752 26.2109 10.8789 26.0254C10.9961 25.8398 10.918 25.5762 10.6836 25.459L9.58984 24.9121L10.6934 24.3457C10.918 24.2383 10.9863 23.9844 10.8887 23.7988C10.7715 23.5938 10.498 23.5645 10.3125 23.6914L9.27734 24.3848L9.35547 23.1445C9.375 22.9102 9.20898 22.7148 8.98438 22.7148C8.73047 22.7148 8.59375 22.9102 8.60352 23.1445L8.67188 24.3848L7.62695 23.6914C7.44141 23.5645 7.1875 23.584 7.08008 23.7988C6.96289 23.9844 7.03125 24.2383 7.25586 24.3457L8.35938 24.9121L7.25586 25.4688C7.02148 25.5859 6.95312 25.8301 7.06055 26.0254C7.16797 26.2305 7.44141 26.2598 7.62695 26.1328L8.67188 25.459L8.61328 26.6797C8.60352 26.9141 8.73047 27.1191 8.98438 27.1191ZM15.9668 27.1191C16.1914 27.1191 16.3379 26.9141 16.3281 26.6797L16.2598 25.4492L17.2949 26.1328C17.4707 26.25 17.7344 26.2109 17.8613 26.0254C17.9785 25.8398 17.9004 25.5762 17.666 25.459L16.5625 24.9121L17.6758 24.3457C17.9004 24.2383 17.9688 23.9844 17.8711 23.7988C17.7539 23.5938 17.4707 23.5645 17.2949 23.6914L16.2598 24.3848L16.3379 23.1445C16.3574 22.9102 16.1914 22.7148 15.9668 22.7148C15.7129 22.7148 15.5664 22.9102 15.5762 23.1445L15.6543 24.3848L14.6094 23.6914C14.4238 23.5645 14.1699 23.584 14.0527 23.7988C13.9453 23.9844 14.0039 24.2383 14.2285 24.3457L15.3418 24.9121L14.2285 25.4688C14.0039 25.5859 13.9355 25.8301 14.043 26.0254C14.1504 26.2305 14.4238 26.2598 14.6094 26.1328L15.6543 25.459L15.5859 26.6797C15.5762 26.9141 15.7129 27.1191 15.9668 27.1191ZM22.9492 27.1191C23.1738 27.1191 23.3203 26.9141 23.3105 26.6797L23.2422 25.4492L24.2676 26.1328C24.4531 26.25 24.7168 26.2109 24.8438 26.0254C24.9512 25.8398 24.8828 25.5762 24.6484 25.459L23.5449 24.9121L24.6582 24.3457C24.8828 24.2383 24.9414 23.9844 24.8535 23.7988C24.7363 23.5938 24.4531 23.5645 24.2676 23.6914L23.2422 24.3848L23.3203 23.1445C23.3398 22.9102 23.1738 22.7148 22.9492 22.7148C22.6953 22.7148 22.5488 22.9102 22.5586 23.1445L22.627 24.3848L21.5918 23.6914C21.4062 23.5645 21.1523 23.584 21.0352 23.7988C20.9277 23.9844 20.9863 24.2383 21.2109 24.3457L22.3145 24.9121L21.2109 25.4688C20.9766 25.5859 20.918 25.8301 21.0254 26.0254C21.1328 26.2305 21.4062 26.2598 21.5918 26.1328L22.627 25.459L22.5684 26.6797C22.5586 26.9141 22.6953 27.1191 22.9492 27.1191ZM6.25 31.8457C6.47461 31.8457 6.62109 31.6406 6.61133 31.4062L6.54297 30.1758L7.57812 30.8594C7.76367 30.9863 8.01758 30.9473 8.14453 30.752C8.26172 30.5664 8.18359 30.3027 7.94922 30.1953L6.85547 29.6387L7.95898 29.082C8.18359 28.9648 8.25195 28.7207 8.1543 28.5254C8.03711 28.3301 7.76367 28.3008 7.57812 28.418L6.54297 29.1211L6.62109 27.8711C6.64062 27.6367 6.47461 27.4414 6.25 27.4414C5.99609 27.4414 5.85938 27.6367 5.86914 27.8711L5.9375 29.1211L4.89258 28.418C4.70703 28.3008 4.46289 28.3203 4.3457 28.5254C4.22852 28.7207 4.29688 28.9648 4.52148 29.082L5.625 29.6387L4.52148 30.1953C4.28711 30.3125 4.21875 30.5566 4.32617 30.752C4.43359 30.957 4.70703 30.9863 4.89258 30.8691L5.9375 30.1855L5.87891 31.4062C5.86914 31.6406 5.99609 31.8457 6.25 31.8457ZM13.2324 31.8457C13.457 31.8457 13.6035 31.6406 13.5938 31.4062L13.5254 30.1758L14.5605 30.8594C14.7363 30.9863 15 30.9473 15.127 30.752C15.2441 30.5664 15.166 30.3027 14.9316 30.1953L13.8281 29.6387L14.9414 29.082C15.166 28.9648 15.2344 28.7207 15.1367 28.5254C15.0195 28.3301 14.7363 28.3008 14.5605 28.418L13.5254 29.1211L13.6035 27.8711C13.623 27.6367 13.457 27.4414 13.2324 27.4414C12.9785 27.4414 12.832 27.6367 12.8418 27.8711L12.9199 29.1211L11.875 28.418C11.6895 28.3008 11.4355 28.3203 11.3184 28.5254C11.2109 28.7207 11.2695 28.9648 11.5039 29.082L12.6074 29.6387L11.5039 30.1953C11.2695 30.3125 11.2012 30.5566 11.3086 30.752C11.416 30.957 11.6895 30.9863 11.875 30.8691L12.9199 30.1855L12.8516 31.4062C12.8418 31.6406 12.9785 31.8457 13.2324 31.8457ZM20.2148 31.8457C20.4395 31.8457 20.5859 31.6406 20.5762 31.4062L20.5078 30.1758L21.5332 30.8594C21.7188 30.9863 21.9824 30.9473 22.1094 30.752C22.2168 30.5664 22.1484 30.3027 21.9141 30.1953L20.8105 29.6387L21.9238 29.082C22.1484 28.9648 22.207 28.7207 22.1191 28.5254C22.002 28.3301 21.7188 28.3008 21.5332 28.418L20.5078 29.1211L20.5859 27.8711C20.6055 27.6367 20.4395 27.4414 20.2148 27.4414C19.9609 27.4414 19.8145 27.6367 19.8242 27.8711L19.9023 29.1211L18.8574 28.418C18.6719 28.3008 18.418 28.3203 18.3008 28.5254C18.1934 28.7207 18.252 28.9648 18.4766 29.082L19.5801 29.6387L18.4766 30.1953C18.2422 30.3125 18.1836 30.5566 18.291 30.752C18.3984 30.957 18.6719 30.9863 18.8574 30.8691L19.9023 30.1855L19.834 31.4062C19.8242 31.6406 19.9609 31.8457 20.2148 31.8457ZM3.05664 20.8008L28.8379 20.8008C29.2285 20.8008 29.5312 20.498 29.5312 20.1074C29.5312 19.7168 29.2285 19.4141 28.8379 19.4141L3.05664 19.4141C2.66602 19.4141 2.35352 19.7168 2.35352 20.1074C2.35352 20.498 2.66602 20.8008 3.05664 20.8008Z" fill="black" fill-opacity="0.85"/>
 </g>
</svg>
