<?xml version="1.0" ?><!-- Generator: Adobe Illustrator 25.0.0, SVG Export Plug-In . SVG Version: 6.00 Build 0)  --><svg xmlns="http://www.w3.org/2000/svg" xmlns:xlink="http://www.w3.org/1999/xlink" version="1.1" id="Layer_1" x="0px" y="0px" viewBox="0 0 512 512" style="enable-background:new 0 0 512 512;" xml:space="preserve">
<path d="M256,60c16.3,0,29.9-13.5,29.9-30.1C285.9,13.5,272.3,0,256,0s-29.9,13.5-29.9,29.9C226.1,46.5,239.7,60,256,60z   M394.8,117.4c11.5,11.5,30.6,11.5,42.1,0c12-11.7,12-30.6,0-42.4c-11.5-11.7-30.6-11.7-42.1,0C383.1,86.8,383.1,105.7,394.8,117.4z   M74.8,117.7c11.7,11.5,30.6,11.5,42.1,0c12-12,12-30.6,0-42.4c-11.5-11.7-30.4-11.7-42.1,0C63,87,63,105.7,74.8,117.7z M256,386.7  c71,0,130.2-59,130.2-130.2c0-71-59.2-129.9-130.2-129.9c-71,0-129.9,59-129.9,129.9C126.1,327.7,185,386.7,256,386.7z M29.9,286.4  c16.3,0,29.9-13.5,29.9-30.1c0-16.3-13.5-29.9-29.9-29.9S0,239.9,0,256.3C0,272.8,13.5,286.4,29.9,286.4z M482.1,288.2  c16.3,0,29.9-13.5,29.9-30.1c0-16.3-13.5-29.9-29.9-29.9c-16.3,0-29.9,13.5-29.9,29.9C452.3,274.6,465.8,288.2,482.1,288.2z   M75,437.2c11.7,11.7,30.6,11.7,42.1,0c11.7-11.7,11.7-30.6,0-42.4c-11.5-11.5-30.4-11.5-42.1,0C63,406.6,63,425.5,75,437.2z   M393.3,438.5c11.7,11.7,30.6,11.7,42.4,0c11.7-11.5,11.7-30.4,0-42.1c-11.7-11.7-30.6-11.7-42.4,0  C381.6,408.1,381.6,427,393.3,438.5z M256,512c16.3,0,29.9-13.3,29.9-29.9c0-16.3-13.5-29.9-29.9-29.9s-29.9,13.5-29.9,29.9  C226.1,498.7,239.7,512,256,512z"/>
</svg>