<?xml version="1.0" encoding="UTF-8"?>
<!--Generator: Apple Native CoreSVG 326-->
<!DOCTYPE svg
PUBLIC "-//W3C//DTD SVG 1.1//EN"
       "http://www.w3.org/Graphics/SVG/1.1/DTD/svg11.dtd">
<svg version="1.1" xmlns="http://www.w3.org/2000/svg" xmlns:xlink="http://www.w3.org/1999/xlink" viewBox="0 0 32.2852 30.3027">
 <g>
  <rect height="30.3027" opacity="0" width="32.2852" x="0" y="0"/>
  <path d="M22.7148 14.5312C22.7148 15.5088 22.4993 16.443 22.1084 17.2852L9.82517 17.2852C9.43426 16.443 9.21875 15.5088 9.21875 14.5312C9.21875 10.8398 12.2754 7.77344 15.9668 7.77344C19.6582 7.77344 22.7148 10.8398 22.7148 14.5312ZM6.77734 14.2188C6.78711 14.707 6.37695 15.0879 5.83008 15.0879L2.36328 15.0879C1.82617 15.0879 1.42578 14.6973 1.42578 14.2188C1.42578 13.7402 1.82617 13.3496 2.36328 13.3496L5.83008 13.3496C6.37695 13.3496 6.76758 13.75 6.77734 14.2188ZM30.5078 14.2188C30.5078 14.707 30.1074 15.0977 29.5605 15.0879L26.1035 15.0879C25.5566 15.0879 25.1562 14.6973 25.1465 14.2188C25.1367 13.7402 25.5566 13.3496 26.1035 13.3496L29.5605 13.3496C30.1074 13.3594 30.5078 13.75 30.5078 14.2188ZM6.96289 4.30664L9.41406 6.75781C9.79492 7.13867 9.79492 7.70508 9.46289 8.04688C9.14062 8.38867 8.56445 8.37891 8.17383 7.98828L5.73242 5.54688C5.33203 5.14648 5.3418 4.59961 5.68359 4.26758C6.01562 3.93555 6.57227 3.91602 6.96289 4.30664ZM26.2402 4.26758C26.582 4.60938 26.5918 5.14648 26.2012 5.54688L23.75 7.98828C23.3691 8.37891 22.8027 8.37891 22.4609 8.04688C22.1191 7.71484 22.1289 7.13867 22.5195 6.75781L24.9609 4.30664C25.3613 3.91602 25.918 3.92578 26.2402 4.26758ZM16.8359 0.947266L16.8359 4.4043C16.8359 4.95117 16.4453 5.35156 15.9668 5.36133C15.4883 5.37109 15.0977 4.95117 15.0977 4.4043L15.0977 0.947266C15.0977 0.400391 15.4883 0 15.9668 0C16.4453 0 16.8359 0.400391 16.8359 0.947266Z" fill="black" fill-opacity="0.85"/>
  <path d="M3.05664 20.0293L28.8379 20.0293C29.2285 20.0293 29.5312 19.7266 29.5312 19.3359C29.5312 18.9453 29.2285 18.6426 28.8379 18.6426L3.05664 18.6426C2.66602 18.6426 2.35352 18.9453 2.35352 19.3359C2.35352 19.7266 2.66602 20.0293 3.05664 20.0293ZM4.26758 24.1699C4.60938 24.1699 4.88281 23.9062 4.88281 23.5645C4.88281 23.2129 4.60938 22.9492 4.26758 22.9492C3.92578 22.9492 3.66211 23.2129 3.66211 23.5645C3.66211 23.9062 3.92578 24.1699 4.26758 24.1699ZM9.59961 24.1699C9.94141 24.1699 10.2051 23.9062 10.2051 23.5645C10.2051 23.2129 9.94141 22.9492 9.59961 22.9492C9.24805 22.9492 8.98438 23.2129 8.98438 23.5645C8.98438 23.9062 9.24805 24.1699 9.59961 24.1699ZM14.9219 24.1699C15.2637 24.1699 15.5273 23.9062 15.5273 23.5645C15.5273 23.2129 15.2637 22.9492 14.9219 22.9492C14.5801 22.9492 14.3066 23.2129 14.3066 23.5645C14.3066 23.9062 14.5801 24.1699 14.9219 24.1699ZM20.2441 24.1699C20.5859 24.1699 20.8496 23.9062 20.8496 23.5645C20.8496 23.2129 20.5859 22.9492 20.2441 22.9492C19.9023 22.9492 19.6289 23.2129 19.6289 23.5645C19.6289 23.9062 19.9023 24.1699 20.2441 24.1699ZM25.5664 24.1699C25.9082 24.1699 26.1816 23.9062 26.1816 23.5645C26.1816 23.2129 25.9082 22.9492 25.5664 22.9492C25.2246 22.9492 24.9512 23.2129 24.9512 23.5645C24.9512 23.9062 25.2246 24.1699 25.5664 24.1699ZM2.66602 27.2266C3.00781 27.2266 3.27148 26.9629 3.27148 26.6211C3.27148 26.2695 3.00781 26.0059 2.66602 26.0059C2.32422 26.0059 2.05078 26.2695 2.05078 26.6211C2.05078 26.9629 2.32422 27.2266 2.66602 27.2266ZM7.98828 27.2266C8.33008 27.2266 8.59375 26.9629 8.59375 26.6211C8.59375 26.2695 8.33008 26.0059 7.98828 26.0059C7.64648 26.0059 7.37305 26.2695 7.37305 26.6211C7.37305 26.9629 7.64648 27.2266 7.98828 27.2266ZM13.3105 27.2266C13.6523 27.2266 13.9258 26.9629 13.9258 26.6211C13.9258 26.2695 13.6523 26.0059 13.3105 26.0059C12.9688 26.0059 12.6953 26.2695 12.6953 26.6211C12.6953 26.9629 12.9688 27.2266 13.3105 27.2266ZM18.6328 27.2266C18.9746 27.2266 19.248 26.9629 19.248 26.6211C19.248 26.2695 18.9746 26.0059 18.6328 26.0059C18.291 26.0059 18.0273 26.2695 18.0273 26.6211C18.0273 26.9629 18.291 27.2266 18.6328 27.2266ZM23.9551 27.2266C24.2969 27.2266 24.5703 26.9629 24.5703 26.6211C24.5703 26.2695 24.2969 26.0059 23.9551 26.0059C23.6133 26.0059 23.3496 26.2695 23.3496 26.6211C23.3496 26.9629 23.6133 27.2266 23.9551 27.2266ZM29.2773 27.2266C29.6289 27.2266 29.8926 26.9629 29.8926 26.6211C29.8926 26.2695 29.6289 26.0059 29.2773 26.0059C28.9355 26.0059 28.6719 26.2695 28.6719 26.6211C28.6719 26.9629 28.9355 27.2266 29.2773 27.2266ZM6.37695 30.2832C6.71875 30.2832 6.99219 30.0195 6.99219 29.668C6.99219 29.3262 6.71875 29.0625 6.37695 29.0625C6.03516 29.0625 5.77148 29.3262 5.77148 29.668C5.77148 30.0195 6.03516 30.2832 6.37695 30.2832ZM11.6992 30.2832C12.041 30.2832 12.3145 30.0195 12.3145 29.668C12.3145 29.3262 12.041 29.0625 11.6992 29.0625C11.3574 29.0625 11.0938 29.3262 11.0938 29.668C11.0938 30.0195 11.3574 30.2832 11.6992 30.2832ZM17.0215 30.2832C17.373 30.2832 17.6367 30.0195 17.6367 29.668C17.6367 29.3262 17.373 29.0625 17.0215 29.0625C16.6797 29.0625 16.416 29.3262 16.416 29.668C16.416 30.0195 16.6797 30.2832 17.0215 30.2832ZM22.3535 30.2832C22.6953 30.2832 22.959 30.0195 22.959 29.668C22.959 29.3262 22.6953 29.0625 22.3535 29.0625C22.0117 29.0625 21.7383 29.3262 21.7383 29.668C21.7383 30.0195 22.0117 30.2832 22.3535 30.2832ZM27.6758 30.2832C28.0176 30.2832 28.2812 30.0195 28.2812 29.668C28.2812 29.3262 28.0176 29.0625 27.6758 29.0625C27.334 29.0625 27.0605 29.3262 27.0605 29.668C27.0605 30.0195 27.334 30.2832 27.6758 30.2832Z" fill="black" fill-opacity="0.85"/>
 </g>
</svg>
