<?xml version="1.0" encoding="UTF-8"?>
<!--Generator: Apple Native CoreSVG 326-->
<!DOCTYPE svg
PUBLIC "-//W3C//DTD SVG 1.1//EN"
       "http://www.w3.org/Graphics/SVG/1.1/DTD/svg11.dtd">
<svg version="1.1" xmlns="http://www.w3.org/2000/svg" xmlns:xlink="http://www.w3.org/1999/xlink" viewBox="0 0 25.8008 25.459">
 <g>
  <rect height="25.459" opacity="0" width="25.8008" x="0" y="0"/>
  <path d="M12.7148 25.4395C19.7363 25.4395 25.4395 19.7461 25.4395 12.7246C25.4395 5.70312 19.7363 0 12.7148 0C5.69336 0 0 5.70312 0 12.7246C0 19.7461 5.69336 25.4395 12.7148 25.4395ZM12.7148 23.623C6.68945 23.623 1.81641 18.75 1.81641 12.7246C1.81641 6.69922 6.68945 1.82617 12.7148 1.82617C18.7402 1.82617 23.6133 6.69922 23.6133 12.7246C23.6133 18.75 18.7402 23.623 12.7148 23.623Z" fill="black" fill-opacity="0.85"/>
  <path d="M5.47852 14.5801L7.32422 14.5801C7.71484 14.5801 7.99805 14.3164 7.99805 13.9551C7.99805 13.6133 7.70508 13.3398 7.32422 13.3398L5.47852 13.3398C5.10742 13.3398 4.82422 13.623 4.82422 13.9551C4.82422 14.2969 5.10742 14.5801 5.47852 14.5801ZM8.48633 10.7715C8.73047 11.0254 9.13086 11.0449 9.375 10.8008C9.63867 10.5469 9.59961 10.1465 9.3457 9.89258L8.02734 8.57422C7.75391 8.29102 7.36328 8.33984 7.12891 8.56445C6.89453 8.81836 6.89453 9.18945 7.16797 9.45312ZM16.0449 10.8008C16.2891 11.0352 16.6797 11.0352 16.9434 10.7715L18.2422 9.45312C18.5156 9.18945 18.5254 8.81836 18.291 8.56445C18.0469 8.32031 17.6562 8.30078 17.3926 8.57422L16.0645 9.89258C15.8008 10.1562 15.791 10.5469 16.0449 10.8008ZM18.0859 14.5801L19.9316 14.5801C20.3125 14.5801 20.5957 14.3066 20.5957 13.9551C20.5957 13.623 20.3125 13.3398 19.9316 13.3398L18.0859 13.3398C17.7051 13.3398 17.4121 13.6133 17.4121 13.9551C17.4121 14.3066 17.7246 14.5801 18.0859 14.5801ZM16.4551 14.1309C16.4551 12.0703 14.7656 10.3711 12.7051 10.3711C10.6543 10.3711 8.96484 12.0703 8.96484 14.1309C8.96484 14.5801 9.0625 15.0195 9.22852 15.4297L16.1816 15.4297C16.3477 15.0195 16.4551 14.5801 16.4551 14.1309ZM5.46875 17.5098L19.9414 17.5098C20.2832 17.5098 20.5957 17.2461 20.5957 16.8945C20.5957 16.543 20.293 16.2988 19.9414 16.2988L5.46875 16.2988C5.12695 16.2988 4.82422 16.5527 4.82422 16.8945C4.82422 17.2461 5.13672 17.5098 5.46875 17.5098ZM13.3203 8.31055L13.3203 6.46484C13.3203 6.07422 13.0469 5.81055 12.7051 5.81055C12.3633 5.81055 12.0898 6.07422 12.0898 6.46484L12.0898 8.31055C12.0898 8.69141 12.3633 8.99414 12.7051 8.99414C13.0566 8.99414 13.3203 8.67188 13.3203 8.31055Z" fill="black" fill-opacity="0.85"/>
 </g>
</svg>
