<?xml version="1.0" encoding="UTF-8"?>
<!--Generator: Apple Native CoreSVG 326-->
<!DOCTYPE svg
PUBLIC "-//W3C//DTD SVG 1.1//EN"
       "http://www.w3.org/Graphics/SVG/1.1/DTD/svg11.dtd">
<svg version="1.1" xmlns="http://www.w3.org/2000/svg" xmlns:xlink="http://www.w3.org/1999/xlink" viewBox="0 0 25.8008 25.459">
 <g>
  <rect height="25.459" opacity="0" width="25.8008" x="0" y="0"/>
  <path d="M12.7148 25.4395C19.7363 25.4395 25.4395 19.7461 25.4395 12.7246C25.4395 5.70312 19.7363 0 12.7148 0C5.69336 0 0 5.70312 0 12.7246C0 19.7461 5.69336 25.4395 12.7148 25.4395ZM12.7148 23.623C6.68945 23.623 1.81641 18.75 1.81641 12.7246C1.81641 6.69922 6.68945 1.82617 12.7148 1.82617C18.7402 1.82617 23.6133 6.69922 23.6133 12.7246C23.6133 18.75 18.7402 23.623 12.7148 23.623Z" fill="black" fill-opacity="0.85"/>
  <path d="M12.7148 4.7168C12.3535 4.7168 12.0312 5.03906 12.0312 5.39062L12.0312 6.97266C12.0312 7.32422 12.3535 7.63672 12.7148 7.63672C13.0762 7.63672 13.3887 7.32422 13.3887 6.97266L13.3887 5.39062C13.3887 5.03906 13.0762 4.7168 12.7148 4.7168ZM18.3691 7.06055C18.0957 6.80664 17.666 6.80664 17.4121 7.06055L16.2988 8.19336C16.0352 8.4668 16.0449 8.88672 16.2988 9.13086C16.5527 9.4043 16.9824 9.39453 17.2461 9.13086L18.3691 8.01758C18.623 7.76367 18.623 7.32422 18.3691 7.06055ZM20.6934 12.7246C20.6934 12.3535 20.3906 12.041 20.0293 12.041L18.457 12.041C18.0957 12.041 17.7832 12.3633 17.7832 12.7246C17.7832 13.0762 18.0957 13.3984 18.457 13.3984L20.0293 13.3984C20.3906 13.3984 20.6934 13.0859 20.6934 12.7246ZM18.3691 18.3789C18.6328 18.1055 18.623 17.6758 18.3691 17.4219L17.2363 16.3086C16.9824 16.0547 16.5527 16.0547 16.2988 16.3086C16.0352 16.5723 16.0352 16.9922 16.2988 17.2559L17.4121 18.3789C17.6758 18.6328 18.0957 18.6328 18.3691 18.3789ZM12.7148 20.7227C13.0762 20.7227 13.3887 20.4102 13.3887 20.0488L13.3887 18.4766C13.3887 18.1152 13.0762 17.8027 12.7148 17.8027C12.3535 17.8027 12.0312 18.1152 12.0312 18.4766L12.0312 20.0488C12.0312 20.4102 12.3535 20.7227 12.7148 20.7227ZM7.05078 18.3691C7.31445 18.6328 7.74414 18.6328 8.00781 18.3789L9.13086 17.2656C9.375 17.0117 9.38477 16.582 9.13086 16.3086C8.86719 16.0547 8.42773 16.0547 8.17383 16.3086L7.05078 17.4219C6.79688 17.6855 6.79688 18.1055 7.05078 18.3691ZM4.72656 12.7246C4.72656 13.0859 5.03906 13.3984 5.40039 13.3984L6.97266 13.3984C7.32422 13.3984 7.64648 13.0762 7.64648 12.7246C7.64648 12.3633 7.32422 12.041 6.97266 12.041L5.40039 12.041C5.03906 12.041 4.72656 12.3535 4.72656 12.7246ZM7.07031 7.06055C6.81641 7.32422 6.79688 7.76367 7.06055 8.01758L8.17383 9.13086C8.4375 9.4043 8.85742 9.39453 9.13086 9.13086C9.375 8.88672 9.375 8.45703 9.13086 8.19336L8.00781 7.06055C7.76367 6.81641 7.32422 6.81641 7.07031 7.06055ZM12.7051 16.4941C14.7949 16.4941 16.4746 14.8047 16.4746 12.7246C16.4746 10.6348 14.7949 8.95508 12.7051 8.95508C10.6152 8.95508 8.93555 10.6348 8.93555 12.7246C8.93555 14.8047 10.6152 16.4941 12.7051 16.4941Z" fill="black" fill-opacity="0.85"/>
 </g>
</svg>
