<?xml version="1.0" encoding="UTF-8"?>
<!--Generator: Apple Native CoreSVG 326-->
<!DOCTYPE svg
PUBLIC "-//W3C//DTD SVG 1.1//EN"
       "http://www.w3.org/Graphics/SVG/1.1/DTD/svg11.dtd">
<svg version="1.1" xmlns="http://www.w3.org/2000/svg" xmlns:xlink="http://www.w3.org/1999/xlink" viewBox="0 0 25.8008 25.459">
 <g>
  <rect height="25.459" opacity="0" width="25.8008" x="0" y="0"/>
  <path d="M12.7148 25.4395C19.7363 25.4395 25.4395 19.7461 25.4395 12.7246C25.4395 5.70312 19.7363 0 12.7148 0C5.69336 0 0 5.70312 0 12.7246C0 19.7461 5.69336 25.4395 12.7148 25.4395ZM12.7148 23.623C6.68945 23.623 1.81641 18.75 1.81641 12.7246C1.81641 6.69922 6.68945 1.82617 12.7148 1.82617C18.7402 1.82617 23.6133 6.69922 23.6133 12.7246C23.6133 18.75 18.7402 23.623 12.7148 23.623Z" fill="black" fill-opacity="0.85"/>
  <path d="M16.4551 12.0117C16.4551 9.96094 14.7656 8.26172 12.7051 8.26172C10.6543 8.26172 8.96484 9.96094 8.96484 12.0117C8.96484 12.4707 9.0625 12.9102 9.22852 13.3203L16.1816 13.3203C16.3477 12.9102 16.4551 12.4707 16.4551 12.0117ZM5.47852 12.4707L7.32422 12.4707C7.71484 12.4707 7.99805 12.207 7.99805 11.8457C7.99805 11.5039 7.70508 11.2305 7.32422 11.2305L5.47852 11.2305C5.10742 11.2305 4.82422 11.5137 4.82422 11.8457C4.82422 12.1875 5.10742 12.4707 5.47852 12.4707ZM8.48633 8.66211C8.74023 8.91602 9.13086 8.93555 9.375 8.69141C9.63867 8.4375 9.59961 8.03711 9.3457 7.7832L8.02734 6.46484C7.75391 6.18164 7.36328 6.2207 7.12891 6.45508C6.89453 6.69922 6.89453 7.07031 7.16797 7.34375ZM13.3203 6.20117L13.3203 4.35547C13.3203 3.96484 13.0469 3.70117 12.7051 3.70117C12.3633 3.70117 12.0898 3.96484 12.0898 4.35547L12.0898 6.20117C12.0898 6.58203 12.3633 6.88477 12.7051 6.88477C13.0566 6.88477 13.3203 6.5625 13.3203 6.20117ZM16.0449 8.69141C16.2891 8.92578 16.6797 8.92578 16.9434 8.66211L18.2422 7.34375C18.5156 7.07031 18.5254 6.69922 18.291 6.45508C18.0469 6.20117 17.6562 6.19141 17.3926 6.46484L16.0645 7.7832C15.8008 8.04688 15.791 8.4375 16.0449 8.69141ZM18.0859 12.4707L19.9316 12.4707C20.3125 12.4707 20.5957 12.1973 20.5957 11.8457C20.5957 11.5039 20.3125 11.2305 19.9316 11.2305L18.0859 11.2305C17.7051 11.2305 17.4121 11.5039 17.4121 11.8457C17.4121 12.1973 17.7246 12.4707 18.0859 12.4707ZM5.46875 15.4004L19.9414 15.4004C20.2832 15.4004 20.5957 15.1367 20.5957 14.7852C20.5957 14.4336 20.293 14.1895 19.9414 14.1895L5.46875 14.1895C5.12695 14.1895 4.82422 14.4434 4.82422 14.7852C4.82422 15.1367 5.13672 15.4004 5.46875 15.4004ZM8.44727 19.0527L9.4043 17.4121C9.55078 17.1582 9.46289 16.8359 9.20898 16.6895C8.96484 16.5527 8.65234 16.6406 8.50586 16.8945L7.54883 18.5352C7.40234 18.7891 7.49023 19.1016 7.74414 19.248C7.98828 19.3945 8.30078 19.3066 8.44727 19.0527ZM10.1855 20.9961L12.2754 17.4121C12.4219 17.1484 12.334 16.8359 12.0703 16.6895C11.8262 16.5527 11.5137 16.6309 11.377 16.8945L9.28711 20.4785C9.14062 20.7227 9.22852 21.0449 9.49219 21.1914C9.72656 21.3281 10.0391 21.2402 10.1855 20.9961ZM14.1699 19.0527L15.127 17.4121C15.2734 17.1582 15.1855 16.8359 14.9316 16.6895C14.6875 16.5527 14.375 16.6406 14.2285 16.8945L13.2715 18.5352C13.125 18.7891 13.2129 19.1016 13.4668 19.248C13.7109 19.3945 14.0234 19.3066 14.1699 19.0527ZM15.9082 20.9961L17.998 17.4121C18.1445 17.1484 18.0566 16.8359 17.793 16.6895C17.5488 16.5527 17.2363 16.6309 17.0996 16.8945L15.0098 20.4785C14.8633 20.7227 14.9512 21.0449 15.2148 21.1914C15.4492 21.3281 15.7617 21.2402 15.9082 20.9961Z" fill="black" fill-opacity="0.85"/>
 </g>
</svg>
