<?xml version="1.0" encoding="UTF-8"?>
<!--Generator: Apple Native CoreSVG 326-->
<!DOCTYPE svg
PUBLIC "-//W3C//DTD SVG 1.1//EN"
       "http://www.w3.org/Graphics/SVG/1.1/DTD/svg11.dtd">
<svg version="1.1" xmlns="http://www.w3.org/2000/svg" xmlns:xlink="http://www.w3.org/1999/xlink" viewBox="0 0 25.8008 25.459">
 <g>
  <rect height="25.459" opacity="0" width="25.8008" x="0" y="0"/>
  <path d="M12.7148 25.4395C19.7363 25.4395 25.4395 19.7461 25.4395 12.7246C25.4395 5.70312 19.7363 0 12.7148 0C5.69336 0 0 5.70312 0 12.7246C0 19.7461 5.69336 25.4395 12.7148 25.4395ZM12.7148 23.623C6.68945 23.623 1.81641 18.75 1.81641 12.7246C1.81641 6.69922 6.68945 1.82617 12.7148 1.82617C18.7402 1.82617 23.6133 6.69922 23.6133 12.7246C23.6133 18.75 18.7402 23.623 12.7148 23.623Z" fill="black" fill-opacity="0.85"/>
  <path d="M7.99805 12.5488C7.99805 12.207 7.70508 11.9336 7.32422 11.9336L5.47852 11.9336C5.10742 11.9336 4.82422 12.2168 4.82422 12.5488C4.82422 12.8906 5.10742 13.1738 5.47852 13.1738L7.32422 13.1738C7.71484 13.1738 7.99805 12.9102 7.99805 12.5488ZM9.375 9.39453C9.63867 9.14062 9.59961 8.74023 9.3457 8.48633L8.02734 7.16797C7.74414 6.89453 7.35352 6.92383 7.12891 7.1582C6.88477 7.39258 6.89453 7.77344 7.16797 8.04688L8.48633 9.36523C8.74023 9.61914 9.13086 9.63867 9.375 9.39453ZM12.7051 7.58789C13.0566 7.58789 13.3203 7.26562 13.3203 6.9043L13.3203 5.05859C13.3203 4.66797 13.0469 4.4043 12.7051 4.4043C12.3633 4.4043 12.0898 4.66797 12.0898 5.05859L12.0898 6.9043C12.0898 7.28516 12.3633 7.58789 12.7051 7.58789ZM16.0449 9.39453C16.2891 9.62891 16.6797 9.62891 16.9434 9.36523L18.2422 8.04688C18.5156 7.77344 18.5254 7.41211 18.291 7.1582C18.0469 6.9043 17.6562 6.9043 17.3926 7.16797L16.0645 8.48633C15.8008 8.75 15.791 9.14062 16.0449 9.39453ZM17.4121 12.5488C17.4121 12.9004 17.7246 13.1738 18.0859 13.1738L19.9316 13.1738C20.3125 13.1738 20.5957 12.9004 20.5957 12.5488C20.5957 12.2168 20.3125 11.9336 19.9316 11.9336L18.0859 11.9336C17.7051 11.9336 17.4121 12.207 17.4121 12.5488ZM9.22852 14.0234L16.1816 14.0234C16.3477 13.6133 16.4551 13.1738 16.4551 12.7246C16.4551 10.6641 14.7656 8.96484 12.7051 8.96484C10.6543 8.96484 8.96484 10.6641 8.96484 12.7246C8.96484 13.1738 9.0625 13.6133 9.22852 14.0234ZM6.51367 15.7227L20.1758 15.7227C20.4199 15.7227 20.5957 15.5469 20.5957 15.3027C20.5957 15.0586 20.4199 14.8926 20.1758 14.8926L6.51367 14.8926C6.2793 14.8926 6.09375 15.0684 6.09375 15.3027C6.09375 15.5469 6.2793 15.7227 6.51367 15.7227ZM5.24414 17.4121L18.8965 17.4121C19.1406 17.4121 19.3164 17.2461 19.3164 17.002C19.3164 16.7578 19.1406 16.582 18.8965 16.582L5.24414 16.582C5 16.582 4.82422 16.7676 4.82422 17.002C4.82422 17.2461 5 17.4121 5.24414 17.4121ZM6.51367 19.1113L20.1758 19.1113C20.4199 19.1113 20.5957 18.9355 20.5957 18.6914C20.5957 18.4473 20.4199 18.2812 20.1758 18.2812L6.51367 18.2812C6.2793 18.2812 6.09375 18.457 6.09375 18.6914C6.09375 18.9355 6.2793 19.1113 6.51367 19.1113Z" fill="black" fill-opacity="0.85"/>
 </g>
</svg>
