<?xml version="1.0" ?><!-- Generator: Adobe Illustrator 25.0.0, SVG Export Plug-In . SVG Version: 6.00 Build 0)  --><svg xmlns="http://www.w3.org/2000/svg" xmlns:xlink="http://www.w3.org/1999/xlink" version="1.1" id="Layer_1" x="0px" y="0px" viewBox="0 0 512 512" style="enable-background:new 0 0 512 512;" xml:space="preserve">
<path d="M276.6,20.5c0-11.1-9.4-20.5-20.8-20.5c-11.1,0-20.5,9.4-20.5,20.5v49.5c0,11.1,9.4,20.5,20.5,20.5  c11.3,0,20.8-9.4,20.8-20.5V20.5z M372.4,110.4c-7.8,8-7.8,21.2,0,29c8,8,21.2,8.3,29.3,0l35.2-35.2c8-8,8-21.2,0-29.3  c-7.8-7.8-21-7.8-28.8,0L372.4,110.4z M110.1,139.4c8,8,21.2,8,29,0c8-7.6,8-21.2,0.2-29L104.2,75c-7.6-7.6-21-7.8-29,0  c-7.8,7.8-7.8,21.2-0.2,29L110.1,139.4z M255.9,135.7c-65.8,0-120.3,54.5-120.3,120.3c0,65.8,54.5,120.6,120.3,120.6  c65.6,0,120.1-54.7,120.1-120.6C376,190.2,321.5,135.7,255.9,135.7z M255.9,171.8c46,0,84.2,38.2,84.2,84.2s-38.2,84.5-84.2,84.5  c-46.2,0-84.5-38.5-84.5-84.5S209.6,171.8,255.9,171.8z M490.6,276.5c11.3,0,20.8-9.4,20.8-20.5c0-11.1-9.4-20.5-20.8-20.5h-49.3  c-11.1,0-20.5,9.4-20.5,20.5c0,11.1,9.4,20.5,20.5,20.5H490.6z M21.1,235.5c-11.1,0-20.5,9.4-20.5,20.5c0,11.1,9.4,20.5,20.5,20.5  h49.3c11.3,0,20.8-9.4,20.8-20.5c0-11.1-9.4-20.5-20.8-20.5H21.1z M401.5,372.8c-7.8-7.8-21-7.8-29,0c-7.8,7.8-7.8,21,0,29  l35.6,35.4c7.8,7.8,21,7.6,28.8-0.2c8-7.8,8-21,0-29L401.5,372.8z M74.9,407.7c-7.8,7.8-7.8,21.2-0.2,29c7.8,7.8,21.2,8,29.3,0.2  l35.2-35.2c8-7.8,8-21,0.2-29c-7.8-7.8-21.2-7.8-29.3,0L74.9,407.7z M276.6,441.9c0-11.1-9.4-20.5-20.8-20.5  c-11.1,0-20.5,9.4-20.5,20.5v49.5c0,11.1,9.4,20.5,20.5,20.5c11.3,0,20.8-9.4,20.8-20.5V441.9z"/>
</svg>