<?xml version="1.0" encoding="UTF-8"?>
<!--Generator: Apple Native CoreSVG 326-->
<!DOCTYPE svg
PUBLIC "-//W3C//DTD SVG 1.1//EN"
       "http://www.w3.org/Graphics/SVG/1.1/DTD/svg11.dtd">
<svg version="1.1" xmlns="http://www.w3.org/2000/svg" xmlns:xlink="http://www.w3.org/1999/xlink" viewBox="0 0 25.8008 25.459">
 <g>
  <rect height="25.459" opacity="0" width="25.8008" x="0" y="0"/>
  <path d="M25.4395 12.7344C25.4395 19.7461 19.7266 25.459 12.7148 25.459C5.71289 25.459 0 19.7461 0 12.7344C0 5.73242 5.71289 0.0195312 12.7148 0.0195312C19.7266 0.0195312 25.4395 5.73242 25.4395 12.7344ZM6.36719 18.457C6.12305 18.457 5.9375 18.6328 5.9375 18.877C5.9375 19.1309 6.12305 19.3066 6.36719 19.3066L20.3516 19.3066C20.6055 19.3066 20.7812 19.1309 20.7812 18.877C20.7812 18.623 20.6055 18.457 20.3516 18.457ZM5.05859 16.709C4.81445 16.709 4.62891 16.8945 4.62891 17.1289C4.62891 17.3828 4.81445 17.5684 5.05859 17.5684L19.0527 17.5684C19.2969 17.5684 19.4824 17.3828 19.4824 17.1289C19.4824 16.8945 19.2969 16.709 19.0527 16.709ZM6.36719 14.9707C6.12305 14.9707 5.9375 15.1562 5.9375 15.4004C5.9375 15.6543 6.12305 15.8203 6.36719 15.8203L20.3516 15.8203C20.6055 15.8203 20.7812 15.6543 20.7812 15.4004C20.7812 15.1465 20.6055 14.9707 20.3516 14.9707ZM8.87695 12.7539C8.87695 13.2227 8.97461 13.6719 9.14062 14.082L16.2695 14.082C16.4355 13.6719 16.543 13.2227 16.543 12.7539C16.543 10.6445 14.8145 8.91602 12.7051 8.91602C10.6055 8.91602 8.87695 10.6445 8.87695 12.7539ZM5.3125 11.9531C4.92188 11.9531 4.62891 12.2461 4.62891 12.5879C4.62891 12.9395 4.92188 13.2227 5.3125 13.2227L7.1875 13.2227C7.59766 13.2227 7.89062 12.959 7.89062 12.5879C7.89062 12.2266 7.58789 11.9531 7.1875 11.9531ZM18.2227 11.9531C17.8223 11.9531 17.5195 12.2266 17.5195 12.5879C17.5195 12.9492 17.8418 13.2227 18.2227 13.2227L20.1074 13.2227C20.498 13.2227 20.7812 12.9492 20.7812 12.5879C20.7812 12.2363 20.498 11.9531 20.1074 11.9531ZM6.98242 7.05078C6.74805 7.30469 6.75781 7.68555 7.04102 7.97852L8.36914 9.31641C8.64258 9.58008 9.04297 9.60938 9.29688 9.35547C9.56055 9.0918 9.53125 8.68164 9.26758 8.41797L7.91016 7.07031C7.62695 6.78711 7.22656 6.81641 6.98242 7.05078ZM17.5 7.07031L16.1523 8.41797C15.8691 8.69141 15.8594 9.0918 16.123 9.35547C16.377 9.59961 16.7773 9.58984 17.0508 9.31641L18.3691 7.97852C18.6523 7.68555 18.6621 7.31445 18.4277 7.05078C18.1738 6.80664 17.7637 6.79688 17.5 7.07031ZM12.0703 4.92188L12.0703 6.79688C12.0703 7.1875 12.3535 7.5 12.7051 7.5C13.0664 7.5 13.3398 7.17773 13.3398 6.79688L13.3398 4.92188C13.3398 4.52148 13.0566 4.23828 12.7051 4.23828C12.3535 4.23828 12.0703 4.52148 12.0703 4.92188Z" fill="black" fill-opacity="0.85"/>
 </g>
</svg>
