<?xml version="1.0" encoding="UTF-8"?>
<!--Generator: Apple Native CoreSVG 326-->
<!DOCTYPE svg
PUBLIC "-//W3C//DTD SVG 1.1//EN"
       "http://www.w3.org/Graphics/SVG/1.1/DTD/svg11.dtd">
<svg version="1.1" xmlns="http://www.w3.org/2000/svg" xmlns:xlink="http://www.w3.org/1999/xlink" viewBox="0 0 44.3945 36.6309">
 <g>
  <rect height="36.6309" opacity="0" width="44.3945" x="0" y="0"/>
  <path d="M13.2129 24.5508C13.2129 26.4648 11.709 27.9688 9.79492 27.9688C7.89062 27.9688 6.37695 26.4551 6.37695 24.5508C6.37695 22.6465 7.89062 21.1328 9.79492 21.1328C11.6992 21.1328 13.2129 22.6465 13.2129 24.5508ZM38.3984 24.5508C38.3984 26.4551 36.8848 27.9688 34.9805 27.9688C33.0859 27.9688 31.5625 26.4551 31.5625 24.5508C31.5625 22.6562 33.0957 21.1328 34.9805 21.1328C36.8848 21.1328 38.3984 22.6465 38.3984 24.5508ZM41.9336 11.1523L42.5 11.9727C43.4766 13.3984 44.0332 15.1172 44.0332 16.6699L44.0332 22.0996C44.0332 24.3945 43.0762 25.4688 41.0059 25.4688L39.668 25.4688C39.7266 25.1758 39.7656 24.873 39.7656 24.5508C39.7656 21.9043 37.6367 19.7754 34.9805 19.7754C32.3438 19.7754 30.2051 21.9141 30.2051 24.5508C30.2051 24.873 30.2344 25.1758 30.293 25.4688L14.4824 25.4688C14.541 25.1758 14.5703 24.873 14.5703 24.5508C14.5703 21.9043 12.4414 19.7754 9.79492 19.7754C7.14844 19.7754 5.01953 21.9043 5.01953 24.5508C5.01953 24.873 5.04883 25.1758 5.10742 25.4688L3.03711 25.4688C1.12305 25.4688 0 24.3164 0 22.3438L0 20.2051C0 16.8652 2.07031 14.9609 6.25 14.4434L10.9473 13.8672L16.0059 10.6836C16.7816 10.1972 17.491 9.80322 18.2031 9.48721L18.2031 10.9766C18.2031 12.9297 19.4238 14.1699 21.3086 14.1699L27.0215 14.1699C28.916 14.1699 30.127 12.9297 30.127 10.9766L30.127 8.29102L35.957 8.29102C38.7793 8.29102 40.5566 9.14062 41.9336 11.1523Z" fill="black" fill-opacity="0.85"/>
  <path d="M21.3086 12.6074L27.0215 12.6074C28.0469 12.6074 28.5742 12.0703 28.5742 10.9766L28.5742 6.47461C28.5742 5.37109 28.0469 4.84375 27.0215 4.84375L21.3086 4.84375C20.2832 4.84375 19.7559 5.37109 19.7559 6.47461L19.7559 10.9766C19.7559 12.0703 20.2832 12.6074 21.3086 12.6074ZM20.8887 5.81055L22.1094 5.81055L22.1094 3.39844C22.1094 2.06055 22.9102 1.21094 24.1699 1.21094C25.4199 1.21094 26.2402 2.06055 26.2402 3.39844L26.2402 5.81055L27.4414 5.81055L27.4414 3.56445C27.4414 1.38672 26.1621 0 24.1699 0C22.1777 0 20.8887 1.38672 20.8887 3.56445Z" fill="black" fill-opacity="0.85"/>
 </g>
</svg>
