<?xml version="1.0" encoding="UTF-8"?>
<!--Generator: Apple Native CoreSVG 326-->
<!DOCTYPE svg
PUBLIC "-//W3C//DTD SVG 1.1//EN"
       "http://www.w3.org/Graphics/SVG/1.1/DTD/svg11.dtd">
<svg version="1.1" xmlns="http://www.w3.org/2000/svg" xmlns:xlink="http://www.w3.org/1999/xlink" viewBox="0 0 44.3945 20.0488">
 <g>
  <rect height="20.0488" opacity="0" width="44.3945" x="0" y="0"/>
  <path d="M0.810547 1.64062L4.87305 1.64062C5.39062 1.64062 5.73242 1.75781 6.04492 2.07031L10.4688 6.49414L11.9531 5.67383L7.31445 1.03516C6.65039 0.361328 5.79102 0.078125 4.69727 0.078125L0.810547 0.078125C0.3125 0.078125 0 0.390625 0 0.849609C0 1.31836 0.3125 1.64062 0.810547 1.64062ZM9.79492 19.6777C11.709 19.6777 13.2129 18.1738 13.2129 16.2598C13.2129 14.3555 11.6992 12.8418 9.79492 12.8418C7.89062 12.8418 6.37695 14.3555 6.37695 16.2598C6.37695 18.1641 7.89062 19.6777 9.79492 19.6777ZM34.9805 19.6777C36.8848 19.6777 38.3984 18.1641 38.3984 16.2598C38.3984 14.3555 36.8848 12.8418 34.9805 12.8418C33.0957 12.8418 31.5625 14.3652 31.5625 16.2598C31.5625 18.1641 33.0859 19.6777 34.9805 19.6777ZM42.5 3.68164L41.9336 2.86133C40.5566 0.849609 38.7793 0 35.957 0L26.2012 0C21.0645 0 19.043 0.488281 16.0059 2.39258L10.9473 5.57617L6.25 6.15234C2.07031 6.66992 0 8.57422 0 11.9141L0 14.0527C0 16.0254 1.12305 17.1777 3.03711 17.1777L5.10742 17.1777C5.04883 16.8848 5.01953 16.582 5.01953 16.2598C5.01953 13.6133 7.14844 11.4844 9.79492 11.4844C12.4414 11.4844 14.5703 13.6133 14.5703 16.2598C14.5703 16.582 14.541 16.8848 14.4824 17.1777L30.293 17.1777C30.2344 16.8848 30.2051 16.582 30.2051 16.2598C30.2051 13.623 32.3438 11.4844 34.9805 11.4844C37.6367 11.4844 39.7656 13.6133 39.7656 16.2598C39.7656 16.582 39.7266 16.8848 39.668 17.1777L41.0059 17.1777C43.0762 17.1777 44.0332 16.1035 44.0332 13.8086L44.0332 8.37891C44.0332 6.82617 43.4766 5.10742 42.5 3.68164Z" fill="black" fill-opacity="0.85"/>
 </g>
</svg>
