<?xml version="1.0" encoding="UTF-8"?>
<!--Generator: Apple Native CoreSVG 326-->
<!DOCTYPE svg
PUBLIC "-//W3C//DTD SVG 1.1//EN"
       "http://www.w3.org/Graphics/SVG/1.1/DTD/svg11.dtd">
<svg version="1.1" xmlns="http://www.w3.org/2000/svg" xmlns:xlink="http://www.w3.org/1999/xlink" viewBox="0 0 25.2539 29.9512">
 <g>
  <rect height="29.9512" opacity="0" width="25.2539" x="0" y="0"/>
  <path d="M0 3.98438L0 23.2715L6.63086 23.2715C6.57227 22.9395 6.5332 22.5977 6.5332 22.2363C6.5332 19.2676 8.93555 16.8652 11.9141 16.8652C14.8926 16.8652 17.2852 19.2578 17.2852 22.2363C17.2852 22.5977 17.2461 22.9395 17.1777 23.2715L18.6816 23.2715C21.0059 23.2715 22.0898 22.0605 22.0898 19.4922L22.0898 13.3691C22.0898 11.6211 21.4746 9.6875 20.3711 8.0957L19.7266 7.16797C18.1738 4.90234 16.1816 3.95508 12.998 3.95508L2.03125 3.95508C1.29883 3.95508 0.625 3.97461 0 3.98438ZM11.9141 26.25C14.1406 26.25 15.9277 24.4629 15.9277 22.2363C15.9277 20.0098 14.1406 18.2227 11.9141 18.2227C9.6875 18.2227 7.89062 20.0195 7.89062 22.2363C7.89062 24.4629 9.67773 26.25 11.9141 26.25ZM15.3906 5.09766L16.6602 6.11328L20.6738 1.98242C20.957 1.67969 21.2695 1.5625 21.6699 1.5625L24.0918 1.5625C24.5801 1.5625 24.8926 1.24023 24.8926 0.78125C24.8926 0.3125 24.5801 0 24.0918 0L21.8457 0C20.8691 0 20.0684 0.283203 19.4043 0.957031Z" fill="black" fill-opacity="0.85"/>
 </g>
</svg>
