<?xml version="1.0" encoding="UTF-8"?>
<!--Generator: Apple Native CoreSVG 326-->
<!DOCTYPE svg
PUBLIC "-//W3C//DTD SVG 1.1//EN"
       "http://www.w3.org/Graphics/SVG/1.1/DTD/svg11.dtd">
<svg version="1.1" xmlns="http://www.w3.org/2000/svg" xmlns:xlink="http://www.w3.org/1999/xlink" viewBox="0 0 23.4375 22.2949">
 <g>
  <rect height="22.2949" opacity="0" width="23.4375" x="0" y="0"/>
  <path d="M23.0664 2.27539L23.0664 0.478516C21.2891 0.878906 19.8242 1.5625 18.0469 2.66602L12.3242 6.25L7.03125 6.9043C2.32422 7.4707 0.0878906 9.54102 0.0878906 13.2715L0.0878906 15.6738C0.0878906 17.8516 1.28906 19.082 3.4082 19.082L7.54883 19.082L7.54883 17.3535L3.50586 17.3535C2.43164 17.3535 1.82617 16.6504 1.82617 15.459L1.82617 13.2715C1.82617 10.5762 3.56445 9.08203 7.25586 8.62305L12.9395 7.91016L18.9746 4.13086C20.4297 3.23242 21.6309 2.64648 23.0664 2.27539ZM23.0762 19.082L23.0762 17.3535L14.5801 17.3535L14.5801 19.082ZM11.0059 22.2949C13.6035 22.2949 15.6055 20.2832 15.6055 17.6855C15.6055 15.0977 13.6035 13.0859 11.0059 13.0859C8.4082 13.0859 6.40625 15.0977 6.40625 17.6855C6.40625 20.2832 8.4082 22.2949 11.0059 22.2949ZM11.0059 20.5469C9.39453 20.5469 8.13477 19.2969 8.13477 17.6855C8.13477 16.084 9.39453 14.8145 11.0059 14.8145C12.6172 14.8145 13.8672 16.084 13.8672 17.6855C13.8672 19.2969 12.6172 20.5469 11.0059 20.5469ZM0.791016 1.62109L5.53711 1.62109C6.09375 1.62109 6.47461 1.74805 6.79688 2.07031L12.1094 7.37305L13.584 6.55273L8.07617 1.04492C7.38281 0.351562 6.51367 0.0585938 5.37109 0.0585938L0.810547 0.0585938C0.3125 0.0585938 0 0.371094 0 0.830078C0 1.29883 0.302734 1.62109 0.791016 1.62109Z" fill="black" fill-opacity="0.85"/>
 </g>
</svg>
