<?xml version="1.0" encoding="UTF-8"?>
<!--Generator: Apple Native CoreSVG 326-->
<!DOCTYPE svg
PUBLIC "-//W3C//DTD SVG 1.1//EN"
       "http://www.w3.org/Graphics/SVG/1.1/DTD/svg11.dtd">
<svg version="1.1" xmlns="http://www.w3.org/2000/svg" xmlns:xlink="http://www.w3.org/1999/xlink" viewBox="0 0 41.4196 30.572">
 <g>
  <rect height="30.572" opacity="0" width="41.4196" x="0" y="0"/>
  <path d="M11.6131 13.7967C12.9608 14.5682 14.621 14.119 15.4022 12.7811C16.1737 11.4432 15.7147 9.77329 14.3866 9.00181C13.0487 8.23032 11.369 8.67954 10.5975 10.0077C9.8358 11.3456 10.285 13.0252 11.6131 13.7967ZM29.2889 23.992C30.617 24.7635 32.2967 24.3143 33.0682 22.9862C33.8397 21.6483 33.3905 19.9686 32.0526 19.1971C30.7245 18.4354 29.035 18.8846 28.2733 20.2127C27.5018 21.5506 27.951 23.2303 29.2889 23.992ZM41.037 15.8182L40.9784 15.0174C40.8221 13.0448 39.9139 11.7264 37.9315 10.5838L31.0956 6.63853C27.492 4.55845 25.8807 4.07993 22.9706 4.18736L18.1366 4.36314L14.6112 2.869C11.4667 1.54087 9.24009 2.03892 7.89244 4.38267L7.0233 5.88657C6.22251 7.26353 6.54478 8.52329 7.89244 9.30454L9.33775 10.1444C9.41587 9.91001 9.5233 9.6854 9.65025 9.46079C10.7245 7.60532 13.078 6.97056 14.9335 8.04478C16.7987 9.119 17.4237 11.4725 16.3495 13.328C16.2225 13.5526 16.076 13.7577 15.9198 13.9334L27.0135 20.3397C27.0917 20.1151 27.1893 19.8905 27.3163 19.6659C28.3905 17.8104 30.7538 17.1756 32.6092 18.2499C34.4647 19.3241 35.0995 21.6776 34.0252 23.5331C33.8885 23.7577 33.7518 23.953 33.5858 24.1385L34.5233 24.6756C35.9784 25.5155 37.0819 25.1542 38.0096 23.5526L40.2167 19.7342C40.8417 18.6502 41.1444 17.2147 41.037 15.8182Z" fill="black" fill-opacity="0.85"/>
  <path d="M4.05455 5.47642L6.55455 1.14048C6.94517 0.476418 6.41783-0.10952 5.72447 0.0174332L1.80845 0.632668C1.29087 0.720558 1.0565 1.13071 1.24205 1.62876L2.65806 5.32017C2.89244 5.98423 3.66392 6.14048 4.05455 5.47642ZM0.118999 10.6131C-0.125142 11.0428 0.0213423 11.5702 0.421733 11.8045L32.6581 30.4374C33.0487 30.662 33.5858 30.535 33.8202 30.1346C34.0643 29.6952 33.9081 29.1581 33.5174 28.9334L1.28111 10.3104C0.890483 10.076 0.353374 10.2127 0.118999 10.6131Z" fill="black" fill-opacity="0.85"/>
 </g>
</svg>
