<?xml version="1.0" encoding="UTF-8"?>
<!--Generator: Apple Native CoreSVG 326-->
<!DOCTYPE svg
PUBLIC "-//W3C//DTD SVG 1.1//EN"
       "http://www.w3.org/Graphics/SVG/1.1/DTD/svg11.dtd">
<svg version="1.1" xmlns="http://www.w3.org/2000/svg" xmlns:xlink="http://www.w3.org/1999/xlink" viewBox="0 0 25.293 30.459">
 <g>
  <rect height="30.459" opacity="0" width="25.293" x="0" y="0"/>
  <path d="M15.4883 23.1641L18.7988 23.1641C21.0938 23.1641 22.1094 22.0312 22.1094 19.4922L22.1094 13.3789C22.1094 11.6406 21.4746 9.75586 20.4102 8.16406L19.7754 7.22656C18.252 4.9707 16.2695 4.0625 13.1152 4.0625L2.14844 4.0625C1.36719 4.0625 0.664062 4.08203 0 4.0918L0 5.83984C0.654297 5.82031 1.35742 5.80078 2.14844 5.80078L13.1152 5.80078C15.6348 5.80078 17.1387 6.5332 18.3203 8.22266L18.9648 9.14062C19.873 10.4297 20.3711 11.9727 20.3711 13.3789L20.3711 19.6094C20.3711 20.8105 19.834 21.4355 18.7012 21.4355L15.4883 21.4355ZM0.00976562 23.1641L8.55469 23.1641L8.55469 21.4355L0.00976562 21.4355ZM12.0898 26.377C14.6777 26.377 16.6895 24.3652 16.6895 21.7676C16.6895 19.1797 14.6777 17.1777 12.0898 17.1777C9.49219 17.1777 7.48047 19.1797 7.48047 21.7676C7.48047 24.3652 9.49219 26.377 12.0898 26.377ZM12.0898 24.6289C10.4688 24.6289 9.21875 23.3789 9.21875 21.7676C9.21875 20.166 10.4688 18.9062 12.0898 18.9062C13.6914 18.9062 14.9512 20.166 14.9512 21.7676C14.9512 23.3789 13.6914 24.6289 12.0898 24.6289ZM15.4297 5.09766L16.6992 6.11328L20.7031 1.97266C20.9863 1.67969 21.3086 1.5625 21.709 1.5625L24.1309 1.5625C24.6191 1.5625 24.9316 1.24023 24.9316 0.771484C24.9316 0.3125 24.6191 0 24.1309 0L21.8848 0C20.8984 0 20.0977 0.283203 19.4434 0.957031Z" fill="black" fill-opacity="0.85"/>
 </g>
</svg>
