<?xml version="1.0" encoding="UTF-8"?>
<!--Generator: Apple Native CoreSVG 326-->
<!DOCTYPE svg
PUBLIC "-//W3C//DTD SVG 1.1//EN"
       "http://www.w3.org/Graphics/SVG/1.1/DTD/svg11.dtd">
<svg version="1.1" xmlns="http://www.w3.org/2000/svg" xmlns:xlink="http://www.w3.org/1999/xlink" viewBox="0 0 23.4375 22.5488">
 <g>
  <rect height="22.5488" opacity="0" width="23.4375" x="0" y="0"/>
  <path d="M11.1133 22.5488C13.3496 22.5488 15.1172 20.7715 15.1172 18.5352C15.1172 16.3086 13.3398 14.5215 11.1133 14.5215C8.87695 14.5215 7.08984 16.3086 7.08984 18.5352C7.08984 20.7617 8.87695 22.5488 11.1133 22.5488ZM23.0762 19.5703L23.0762 0.761719C21.2988 1.16211 19.8535 1.83594 18.0957 2.93945L12.4023 6.52344L7.11914 7.1582C2.41211 7.73438 0.0878906 9.88281 0.0878906 13.6328L0.0878906 16.0449C0.0878906 18.2617 1.34766 19.5703 3.50586 19.5703L5.83008 19.5703C5.77148 19.2383 5.73242 18.8965 5.73242 18.5352C5.73242 15.5566 8.125 13.1641 11.1133 13.1641C14.0918 13.1641 16.4844 15.5566 16.4844 18.5352C16.4844 18.8965 16.4453 19.2383 16.377 19.5703ZM0.791016 1.92383L5.53711 1.92383C6.09375 1.92383 6.47461 2.05078 6.79688 2.38281L12.4023 7.97852L13.877 7.1582L8.07617 1.34766C7.38281 0.654297 6.51367 0.361328 5.37109 0.361328L0.810547 0.361328C0.3125 0.361328 0 0.673828 0 1.13281C0 1.60156 0.302734 1.92383 0.791016 1.92383Z" fill="black" fill-opacity="0.85"/>
 </g>
</svg>
