<?xml version="1.0" encoding="UTF-8"?>
<!--Generator: Apple Native CoreSVG 326-->
<!DOCTYPE svg
PUBLIC "-//W3C//DTD SVG 1.1//EN"
       "http://www.w3.org/Graphics/SVG/1.1/DTD/svg11.dtd">
<svg version="1.1" xmlns="http://www.w3.org/2000/svg" xmlns:xlink="http://www.w3.org/1999/xlink" viewBox="0 0 42.0702 34.2567">
 <g>
  <rect height="34.2567" opacity="0" width="42.0702" x="0" y="0"/>
  <path d="M10.6152 26.352L13.2616 24.8188L12.5585 23.6078L9.97063 25.102C9.34563 25.4633 8.75969 25.268 8.34953 24.5551L7.55852 23.1879C6.61125 21.5473 7.14836 20.0239 9.24797 18.4321L12.5488 15.9418L14.9609 11.391C16.2109 9.04729 17.207 8.10002 20.6054 6.13713L27.4511 2.19182C28.9941 1.29338 30.1659 1.19573 31.4941 1.82073L32.2265 2.17229C33.2421 2.66057 34.0917 3.40276 34.5898 4.2719L36.8359 8.15862C37.2558 8.88127 37.1484 9.40862 36.4745 9.79924L34.4042 10.9906L35.1073 12.2114L37.246 10.9711C38.7011 10.1313 38.9355 8.99846 38.0077 7.38713L35.8105 3.56877C35.1757 2.48479 34.0917 1.50823 32.832 0.902759L32.0995 0.551196C30.3124-0.298413 28.7304-0.17146 26.748 0.971118L19.9023 4.9262C16.2988 7.00627 15.078 8.15862 13.7206 10.7367L11.455 15.0141L8.39836 17.3188C5.67375 19.3696 4.99992 21.5473 6.34758 23.891L7.21672 25.3949C8.0175 26.7719 9.2675 27.1235 10.6152 26.352ZM17.5097 22.3676L30.9179 14.6235L30.2245 13.4125L16.8066 21.1567ZM16.5038 25.6098C18.1542 24.6625 18.7011 22.6313 17.7441 20.9809C16.7968 19.3305 14.7655 18.7934 13.1152 19.7406C11.4648 20.6879 10.9179 22.7289 11.8749 24.3696C12.8222 26.0199 14.8534 26.5668 16.5038 25.6098ZM15.8007 24.3989C14.8339 24.9555 13.6425 24.643 13.0859 23.6664C12.5292 22.6996 12.8417 21.5082 13.8183 20.9516C14.7851 20.3949 15.9765 20.7172 16.5331 21.684C17.0898 22.6508 16.7773 23.8422 15.8007 24.3989ZM34.2089 15.3949C35.8593 14.4379 36.3964 12.4067 35.4491 10.7563C34.5019 9.11565 32.4609 8.56877 30.8202 9.51604C29.1698 10.4731 28.623 12.5043 29.58 14.1547C30.5273 15.7953 32.5585 16.3422 34.2089 15.3949ZM33.5058 14.1742C32.539 14.7406 31.3476 14.4184 30.7909 13.4516C30.2343 12.4848 30.5468 11.2934 31.5234 10.7367C32.4902 10.1703 33.6816 10.4926 34.2382 11.4594C34.7948 12.4262 34.4726 13.6176 33.5058 14.1742Z" fill="black" fill-opacity="0.85"/>
  <path d="M5.37102 27.768L2.87102 23.4321C2.49016 22.7582 1.71867 22.9145 1.4843 23.5785L0.0682827 27.2797C-0.12703 27.7778 0.107345 28.1879 0.634689 28.266L4.54094 28.9008C5.24406 29.0278 5.76164 28.4321 5.37102 27.768ZM7.86125 33.7446C8.11516 34.1645 8.6425 34.2914 9.04289 34.0766L41.289 15.4731C41.6894 15.2485 41.8359 14.7211 41.6113 14.311C41.3476 13.8813 40.8105 13.7543 40.4198 13.9789L8.16399 32.5824C7.77336 32.7973 7.62688 33.3344 7.86125 33.7446Z" fill="black" fill-opacity="0.85"/>
 </g>
</svg>
