<?xml version="1.0" encoding="UTF-8"?>
<!--Generator: Apple Native CoreSVG 326-->
<!DOCTYPE svg
PUBLIC "-//W3C//DTD SVG 1.1//EN"
       "http://www.w3.org/Graphics/SVG/1.1/DTD/svg11.dtd">
<svg version="1.1" xmlns="http://www.w3.org/2000/svg" xmlns:xlink="http://www.w3.org/1999/xlink" viewBox="0 0 41.4196 30.572">
 <g>
  <rect height="30.572" opacity="0" width="41.4196" x="0" y="0"/>
  <path d="M7.89244 9.30454L10.5389 10.8377L11.242 9.61704L8.65415 8.1229C8.02915 7.76157 7.9022 7.15611 8.31236 6.44321L9.10337 5.07603C10.0506 3.44517 11.6327 3.14243 14.0643 4.16782L17.8729 5.76939L23.0194 5.59361C25.6659 5.50571 26.994 5.88657 30.3924 7.84946L37.2381 11.8045C38.7811 12.6932 39.4549 13.66 39.5721 15.1249L39.6405 15.9354C39.7186 17.0584 39.5038 18.162 38.996 19.0311L36.7596 22.9178C36.3397 23.6405 35.8319 23.8163 35.1581 23.4256L33.0877 22.2342L32.3846 23.4452L34.5233 24.6756C35.9784 25.5155 37.0819 25.1542 38.0096 23.5526L40.2167 19.7342C40.8417 18.6502 41.1444 17.2147 41.037 15.8182L40.9784 15.0174C40.8221 13.0448 39.9139 11.7264 37.9315 10.5838L31.0956 6.63853C27.492 4.55845 25.8807 4.07993 22.9706 4.18736L18.1366 4.36314L14.6112 2.869C11.4667 1.54087 9.24009 2.03892 7.89244 4.38267L7.0233 5.88657C6.22251 7.26353 6.54478 8.52329 7.89244 9.30454ZM14.787 13.2889L28.2049 21.0331L28.8983 19.8124L15.4901 12.0682ZM11.4764 14.0409C13.1268 14.9881 15.1581 14.4413 16.1053 12.8006C17.0624 11.1502 16.5155 9.119 14.8651 8.16196C13.2245 7.2147 11.1835 7.76157 10.2362 9.4022C9.27915 11.0526 9.82603 13.0838 11.4764 14.0409ZM12.1795 12.8202C11.203 12.2635 10.8905 11.0721 11.4471 10.1053C12.0038 9.13853 13.1952 8.81626 14.162 9.38267C15.1385 9.93931 15.451 11.1307 14.8944 12.0975C14.3377 13.0643 13.1463 13.3866 12.1795 12.8202ZM29.1815 24.2557C30.8221 25.2127 32.8631 24.6659 33.8104 23.0155C34.7577 21.3749 34.2206 19.3338 32.5702 18.3866C30.9198 17.4393 28.8885 17.9764 27.9413 19.6268C26.9842 21.2772 27.5311 23.3084 29.1815 24.2557ZM29.8846 23.0448C28.9081 22.4881 28.5956 21.2967 29.1522 20.3299C29.7088 19.3631 30.9002 19.0409 31.867 19.5975C32.8436 20.1639 33.1561 21.3456 32.5995 22.3221C32.0428 23.2889 30.8514 23.6014 29.8846 23.0448Z" fill="black" fill-opacity="0.85"/>
  <path d="M4.05455 5.47642L6.55455 1.14048C6.94517 0.476418 6.41783-0.10952 5.72447 0.0174332L1.80845 0.632668C1.29087 0.720558 1.0565 1.13071 1.24205 1.62876L2.65806 5.32017C2.89244 5.98423 3.66392 6.14048 4.05455 5.47642ZM0.118999 10.6131C-0.125142 11.0428 0.0213423 11.5702 0.421733 11.8045L32.6581 30.4374C33.0487 30.662 33.5858 30.535 33.8202 30.1346C34.0643 29.6952 33.9081 29.1581 33.5174 28.9334L1.28111 10.3104C0.890483 10.076 0.353374 10.2127 0.118999 10.6131Z" fill="black" fill-opacity="0.85"/>
 </g>
</svg>
