<?xml version="1.0" encoding="UTF-8"?>
<!--Generator: Apple Native CoreSVG 326-->
<!DOCTYPE svg
PUBLIC "-//W3C//DTD SVG 1.1//EN"
       "http://www.w3.org/Graphics/SVG/1.1/DTD/svg11.dtd">
<svg version="1.1" xmlns="http://www.w3.org/2000/svg" xmlns:xlink="http://www.w3.org/1999/xlink" viewBox="0 0 40.0174 33.3192">
 <g>
  <rect height="33.3192" opacity="0" width="40.0174" x="0" y="0"/>
  <path d="M3.8954 32.7387C4.14931 33.1684 4.67665 33.2953 5.07704 33.0707L37.3329 14.4672C37.7235 14.2524 37.87 13.7153 37.6454 13.3051C37.3915 12.8754 36.8544 12.7582 36.4638 12.9731L4.2079 31.5766C3.81728 31.8012 3.67079 32.3383 3.8954 32.7387ZM10.6923 25.3656C12.0302 24.5942 12.4794 22.9242 11.7079 21.5864C10.9364 20.2485 9.25673 19.7992 7.91884 20.5707C6.59072 21.3422 6.1415 23.0219 6.90322 24.35C7.6747 25.6879 9.35439 26.1371 10.6923 25.3656ZM28.3583 15.1606C29.6962 14.3989 30.1454 12.7192 29.3739 11.3813C28.6024 10.0434 26.9227 9.59416 25.5946 10.3656C24.2665 11.1371 23.8075 12.8266 24.579 14.1547C25.3505 15.4828 27.0302 15.9321 28.3583 15.1606ZM27.1571 0.902759L26.4247 0.551196C24.6376-0.298413 23.0556-0.17146 21.0731 0.971118L14.2274 4.91643C10.6239 6.99651 9.40322 8.15862 8.04579 10.727L5.78017 15.0043L2.72353 17.309C-0.00108116 19.3696-0.674909 21.5473 0.672747 23.8813L1.54189 25.3852C2.34267 26.7719 3.59267 27.1235 4.94033 26.3422L6.38564 25.5121C6.22939 25.3266 6.0829 25.1313 5.95595 24.9067C4.88173 23.0414 5.50673 20.6879 7.37197 19.6137C9.22743 18.5395 11.581 19.1742 12.6552 21.0297C12.7919 21.2543 12.8895 21.4789 12.9677 21.7133L24.0614 15.3071C23.8954 15.1215 23.7489 14.9262 23.622 14.7016C22.5575 12.8461 23.1923 10.4828 25.038 9.41838C26.9032 8.34416 29.2567 8.96916 30.331 10.8344C30.4579 11.059 30.5556 11.2836 30.6337 11.5082L31.5712 10.9711C33.0263 10.1313 33.2606 8.9887 32.3329 7.38713L30.1356 3.56877C29.5009 2.48479 28.4169 1.49846 27.1571 0.902759Z" fill="black" fill-opacity="0.85"/>
  <path d="M37.4892 33.266C38.2997 33.266 38.8661 32.8559 39.2274 32.2504C39.452 31.8891 39.6571 31.2934 39.6571 30.893C39.6571 30.5414 39.4032 30.3168 39.0517 30.3168C38.7685 30.3168 38.5536 30.5121 38.495 30.8246C38.3388 31.5961 38.1239 32.143 37.4501 32.143C36.62 32.143 36.2587 30.8832 36.2587 29.1742C36.2587 27.2992 36.7372 26.2153 37.4501 26.2153C38.0653 26.2153 38.3583 26.8305 38.4657 27.5336C38.5145 27.8754 38.7489 28.0805 39.081 28.0805C39.4227 28.0805 39.6278 27.8364 39.6278 27.4946C39.6278 27.0356 39.4032 26.3324 39.0224 25.8832C38.6317 25.3949 38.0849 25.102 37.4403 25.102C36.3466 25.102 35.702 25.8442 35.3602 26.7133C35.0477 27.4555 34.9696 28.3051 34.9696 29.1742C34.9696 30.1996 35.0673 31.2153 35.5263 32.0551C35.956 32.8266 36.6005 33.266 37.4892 33.266ZM24.3544 33.1977C24.745 33.1977 24.9989 32.9438 24.9989 32.5434L24.9989 29.643L27.1278 29.643L27.1278 32.5434C27.1278 32.9438 27.3817 33.1977 27.7724 33.1977C28.163 33.1977 28.4169 32.9438 28.4169 32.5434L28.4169 25.8246C28.4169 25.4242 28.163 25.1703 27.7724 25.1703C27.3817 25.1703 27.1278 25.4242 27.1278 25.8246L27.1278 28.5688L24.9989 28.5688L24.9989 25.8246C24.9989 25.4242 24.745 25.1703 24.3544 25.1703C23.9735 25.1703 23.7294 25.4242 23.7294 25.8246L23.7294 32.5434C23.7294 32.9438 23.9735 33.1977 24.3544 33.1977ZM30.1454 33.1977L31.5224 33.1977C33.5536 33.1977 34.2177 31.186 34.2177 29.1645C34.2177 26.977 33.4657 25.1703 31.5224 25.1703L30.1454 25.1703C29.7743 25.1703 29.5009 25.3949 29.5009 25.8344L29.5009 32.5336C29.5009 32.9731 29.7743 33.1977 30.1454 33.1977ZM30.7606 32.1235L30.7606 26.2543L31.3661 26.2543C32.6649 26.2543 32.9188 27.8754 32.9188 29.1742C32.9188 30.4731 32.6845 32.1235 31.3661 32.1235Z" fill="black" fill-opacity="0.85"/>
 </g>
</svg>
