<?xml version="1.0" encoding="UTF-8"?>
<!--Generator: Apple Native CoreSVG 326-->
<!DOCTYPE svg
PUBLIC "-//W3C//DTD SVG 1.1//EN"
       "http://www.w3.org/Graphics/SVG/1.1/DTD/svg11.dtd">
<svg version="1.1" xmlns="http://www.w3.org/2000/svg" xmlns:xlink="http://www.w3.org/1999/xlink" viewBox="0 0 40.0174 33.3192">
 <g>
  <rect height="33.3192" opacity="0" width="40.0174" x="0" y="0"/>
  <path d="M3.8954 32.7387C4.14931 33.1684 4.67665 33.2953 5.07704 33.0707L37.3329 14.4672C37.7235 14.2524 37.87 13.7153 37.6454 13.3051C37.3915 12.8754 36.8544 12.7582 36.4638 12.9731L4.2079 31.5766C3.81728 31.8012 3.67079 32.3383 3.8954 32.7387ZM4.94033 26.3422L7.58681 24.8188L6.88368 23.5981L4.29579 25.0922C3.67079 25.4535 3.08486 25.2582 2.6747 24.5453L1.88368 23.1781C0.936419 21.5473 1.47353 20.0239 3.57314 18.4321L6.87392 15.9321L9.28603 11.391C10.536 9.04729 11.5321 8.09026 14.9306 6.13713L21.7763 2.18206C23.3192 1.29338 24.4911 1.19573 25.8192 1.82073L26.5517 2.16252C27.5673 2.65081 28.4169 3.40276 28.9149 4.2719L31.161 8.14885C31.581 8.88127 31.4735 9.40862 30.7997 9.78948L28.7294 10.9906L29.4325 12.2016L31.5712 10.9711C33.0263 10.1313 33.2606 8.9887 32.3329 7.38713L30.1356 3.56877C29.5009 2.48479 28.4169 1.49846 27.1571 0.902759L26.4247 0.551196C24.6376-0.298413 23.0556-0.17146 21.0731 0.971118L14.2274 4.91643C10.6239 6.99651 9.40322 8.15862 8.04579 10.727L5.78017 15.0043L2.72353 17.309C-0.00108116 19.3696-0.674909 21.5473 0.672747 23.8813L1.54189 25.3852C2.34267 26.7719 3.59267 27.1235 4.94033 26.3422ZM11.8349 22.3578L25.2431 14.6235L24.5497 13.4028L11.1317 21.1469ZM10.829 25.6098C12.4794 24.6625 13.0263 22.6215 12.0692 20.9809C11.122 19.3305 9.09072 18.7836 7.44033 19.7406C5.78993 20.6879 5.24306 22.7192 6.20009 24.3696C7.14736 26.0102 9.18837 26.5571 10.829 25.6098ZM10.1259 24.3989C9.15908 24.9555 7.96767 24.6332 7.41103 23.6664C6.85439 22.6996 7.16689 21.5082 8.14345 20.9516C9.11025 20.3949 10.3017 20.7074 10.8583 21.6742C11.4149 22.6508 11.1024 23.8324 10.1259 24.3989ZM28.5341 15.3852C30.1845 14.4379 30.7313 12.4067 29.7743 10.7563C28.827 9.10588 26.786 8.55901 25.1454 9.51604C23.495 10.4633 22.9481 12.4946 23.9052 14.1449C24.8524 15.7953 26.8837 16.3422 28.5341 15.3852ZM27.831 14.1742C26.8642 14.7309 25.6727 14.4184 25.1161 13.4418C24.5595 12.475 24.872 11.2836 25.8485 10.727C26.8153 10.1703 28.0067 10.4828 28.5634 11.4594C29.12 12.4262 28.8075 13.6176 27.831 14.1742Z" fill="black" fill-opacity="0.85"/>
  <path d="M37.4892 33.266C38.2997 33.266 38.8661 32.8559 39.2274 32.2504C39.452 31.8891 39.6571 31.2934 39.6571 30.893C39.6571 30.5414 39.4032 30.3168 39.0517 30.3168C38.7685 30.3168 38.5536 30.5121 38.495 30.8246C38.3388 31.5961 38.1239 32.143 37.4501 32.143C36.62 32.143 36.2587 30.8832 36.2587 29.1742C36.2587 27.2992 36.7372 26.2153 37.4501 26.2153C38.0653 26.2153 38.3583 26.8305 38.4657 27.5336C38.5145 27.8754 38.7489 28.0805 39.081 28.0805C39.4227 28.0805 39.6278 27.8364 39.6278 27.4946C39.6278 27.0356 39.4032 26.3324 39.0224 25.8832C38.6317 25.3949 38.0849 25.102 37.4403 25.102C36.3466 25.102 35.702 25.8442 35.3602 26.7133C35.0477 27.4555 34.9696 28.3051 34.9696 29.1742C34.9696 30.1996 35.0673 31.2153 35.5263 32.0551C35.956 32.8266 36.6005 33.266 37.4892 33.266ZM24.3544 33.1977C24.745 33.1977 24.9989 32.9438 24.9989 32.5434L24.9989 29.643L27.1278 29.643L27.1278 32.5434C27.1278 32.9438 27.3817 33.1977 27.7724 33.1977C28.163 33.1977 28.4169 32.9438 28.4169 32.5434L28.4169 25.8246C28.4169 25.4242 28.163 25.1703 27.7724 25.1703C27.3817 25.1703 27.1278 25.4242 27.1278 25.8246L27.1278 28.5688L24.9989 28.5688L24.9989 25.8246C24.9989 25.4242 24.745 25.1703 24.3544 25.1703C23.9735 25.1703 23.7294 25.4242 23.7294 25.8246L23.7294 32.5434C23.7294 32.9438 23.9735 33.1977 24.3544 33.1977ZM30.1454 33.1977L31.5224 33.1977C33.5536 33.1977 34.2177 31.186 34.2177 29.1645C34.2177 26.977 33.4657 25.1703 31.5224 25.1703L30.1454 25.1703C29.7743 25.1703 29.5009 25.3949 29.5009 25.8344L29.5009 32.5336C29.5009 32.9731 29.7743 33.1977 30.1454 33.1977ZM30.7606 32.1235L30.7606 26.2543L31.3661 26.2543C32.6649 26.2543 32.9188 27.8754 32.9188 29.1742C32.9188 30.4731 32.6845 32.1235 31.3661 32.1235Z" fill="black" fill-opacity="0.85"/>
 </g>
</svg>
