<?xml version="1.0" encoding="UTF-8"?>
<!--Generator: Apple Native CoreSVG 326-->
<!DOCTYPE svg
PUBLIC "-//W3C//DTD SVG 1.1//EN"
       "http://www.w3.org/Graphics/SVG/1.1/DTD/svg11.dtd">
<svg version="1.1" xmlns="http://www.w3.org/2000/svg" xmlns:xlink="http://www.w3.org/1999/xlink" viewBox="0 0 44.3945 34.1699">
 <g>
  <rect height="34.1699" opacity="0" width="44.3945" x="0" y="0"/>
  <path d="M41.9336 9.92188L42.5 10.7422C43.4766 12.168 44.0332 13.8867 44.0332 15.4395L44.0332 20.8691C44.0332 23.1641 43.0762 24.2383 41.0059 24.2383L39.0044 24.2383C38.4607 25.9073 36.9103 27.0801 35.0293 27.0801C33.1561 27.0801 31.6072 25.9073 31.0639 24.2383L13.7691 24.2383C13.2232 25.9073 11.6681 27.0801 9.79492 27.0801C7.9217 27.0801 6.36662 25.9073 5.82079 24.2383L3.03711 24.2383C1.12305 24.2383 0 23.0859 0 21.1133L0 18.9746C0 15.6348 2.07031 13.7305 6.25 13.2129L10.9473 12.6367L16.0059 9.45312C18.0446 8.17482 19.6257 7.53458 22.0025 7.2536L22.0438 8.9884C20.0321 9.2491 18.7085 9.81548 16.9238 10.9277L11.5332 14.2969L6.46484 14.9316C3.23242 15.332 1.72852 16.6309 1.72852 18.9746L1.72852 20.918C1.72852 21.9336 2.23633 22.5098 3.13477 22.5098L5.6246 22.5098C5.81426 20.3465 7.58274 18.7109 9.79492 18.7109C12.0071 18.7109 13.7756 20.3465 13.9652 22.5098L30.8686 22.5098C31.0573 20.3465 32.8171 18.7109 35.0293 18.7109C37.2507 18.7109 39.011 20.3465 39.1997 22.5098L40.9082 22.5098C41.875 22.5098 42.3047 22.0117 42.3047 20.9766L42.3047 15.4395C42.3047 14.1992 41.8555 12.8711 41.0742 11.7285L40.5078 10.9082C39.4727 9.41406 38.1543 8.78906 35.957 8.78906L27.1243 8.78906L27.1673 7.06055L35.957 7.06055C38.7793 7.06055 40.5566 7.91016 41.9336 9.92188ZM7.34375 22.9004C7.34375 24.2773 8.41797 25.3516 9.79492 25.3516C11.1719 25.3516 12.2461 24.2773 12.2461 22.9004C12.2461 21.5137 11.1719 20.4395 9.79492 20.4395C8.41797 20.4395 7.34375 21.5137 7.34375 22.9004ZM32.5781 22.9004C32.5781 24.2773 33.6523 25.3516 35.0293 25.3516C36.416 25.3516 37.4902 24.2773 37.4902 22.9004C37.4902 21.5137 36.416 20.4395 35.0293 20.4395C33.6523 20.4395 32.5781 21.5137 32.5781 22.9004Z" fill="black" fill-opacity="0.85"/>
  <path d="M24.5801 18.0469C25.3906 18.0469 26.0742 17.3828 26.0742 16.6016C26.0742 15.8105 25.4004 15.166 24.5801 15.166C23.7598 15.166 23.0957 15.8105 23.0957 16.6016C23.0957 17.3828 23.7695 18.0469 24.5801 18.0469ZM24.5801 12.5977C25.1074 12.5977 25.4785 12.2266 25.498 11.6895L25.7129 2.68555C25.7324 2.01172 25.2832 1.5625 24.5801 1.5625C23.8867 1.5625 23.4277 2.01172 23.4473 2.68555L23.6719 11.6895C23.6914 12.2266 24.0625 12.5977 24.5801 12.5977Z" fill="black" fill-opacity="0.85"/>
 </g>
</svg>
