<?xml version="1.0" encoding="UTF-8"?>
<!--Generator: Apple Native CoreSVG 326-->
<!DOCTYPE svg
PUBLIC "-//W3C//DTD SVG 1.1//EN"
       "http://www.w3.org/Graphics/SVG/1.1/DTD/svg11.dtd">
<svg version="1.1" xmlns="http://www.w3.org/2000/svg" xmlns:xlink="http://www.w3.org/1999/xlink" viewBox="0 0 44.3945 31.0449">
 <g>
  <rect height="31.0449" opacity="0" width="44.3945" x="0" y="0"/>
  <path d="M9.79492 25.1758C11.709 25.1758 13.2129 23.6719 13.2129 21.7578C13.2129 19.8535 11.6992 18.3398 9.79492 18.3398C7.89062 18.3398 6.37695 19.8535 6.37695 21.7578C6.37695 23.6621 7.89062 25.1758 9.79492 25.1758ZM34.9805 25.1758C36.8848 25.1758 38.3984 23.6621 38.3984 21.7578C38.3984 19.8535 36.8848 18.3398 34.9805 18.3398C33.0957 18.3398 31.5625 19.8633 31.5625 21.7578C31.5625 23.6621 33.0859 25.1758 34.9805 25.1758ZM42.5 9.17969L41.9336 8.35938C40.5566 6.34766 38.7793 5.49805 35.957 5.49805L26.2012 5.49805C21.0645 5.49805 19.043 5.98633 16.0059 7.89062L10.9473 11.0742L6.25 11.6504C2.07031 12.168 0 14.0723 0 17.4121L0 19.5508C0 21.5234 1.12305 22.6758 3.03711 22.6758L5.10742 22.6758C5.04883 22.3828 5.01953 22.0801 5.01953 21.7578C5.01953 19.1113 7.14844 16.9824 9.79492 16.9824C12.4414 16.9824 14.5703 19.1113 14.5703 21.7578C14.5703 22.0801 14.541 22.3828 14.4824 22.6758L30.293 22.6758C30.2344 22.3828 30.2051 22.0801 30.2051 21.7578C30.2051 19.1211 32.3438 16.9824 34.9805 16.9824C37.6367 16.9824 39.7656 19.1113 39.7656 21.7578C39.7656 22.0801 39.7266 22.3828 39.668 22.6758L41.0059 22.6758C43.0762 22.6758 44.0332 21.6016 44.0332 19.3066L44.0332 13.877C44.0332 12.3242 43.4766 10.6055 42.5 9.17969ZM24.3457 16.9141C23.5059 16.9141 22.8027 16.2305 22.8027 15.4297C22.8027 14.6094 23.4863 13.9551 24.3457 13.9551C25.1855 13.9551 25.8789 14.6094 25.8789 15.4297C25.8789 16.2305 25.1758 16.9141 24.3457 16.9141ZM24.3457 11.3281C23.7988 11.3281 23.418 10.9473 23.3984 10.3809L23.1738 1.16211C23.1543 0.46875 23.623 0 24.3457 0C25.0586 0 25.5273 0.46875 25.5078 1.16211L25.2832 10.3809C25.2637 10.9473 24.8828 11.3281 24.3457 11.3281Z" fill="black" fill-opacity="0.85"/>
 </g>
</svg>
