<?xml version="1.0" encoding="UTF-8"?>
<!--Generator: Apple Native CoreSVG 326-->
<!DOCTYPE svg
PUBLIC "-//W3C//DTD SVG 1.1//EN"
       "http://www.w3.org/Graphics/SVG/1.1/DTD/svg11.dtd">
<svg version="1.1" xmlns="http://www.w3.org/2000/svg" xmlns:xlink="http://www.w3.org/1999/xlink" viewBox="0 0 44.3945 20.0488">
 <g>
  <rect height="20.0488" opacity="0" width="44.3945" x="0" y="0"/>
  <path d="M13.2129 16.2598C13.2129 18.1738 11.709 19.6777 9.79492 19.6777C7.89062 19.6777 6.37695 18.1641 6.37695 16.2598C6.37695 14.3555 7.89062 12.8418 9.79492 12.8418C11.6992 12.8418 13.2129 14.3555 13.2129 16.2598ZM38.3984 16.2598C38.3984 18.1641 36.8848 19.6777 34.9805 19.6777C33.0859 19.6777 31.5625 18.1641 31.5625 16.2598C31.5625 14.3652 33.0957 12.8418 34.9805 12.8418C36.8848 12.8418 38.3984 14.3555 38.3984 16.2598ZM41.9336 2.86133L42.5 3.68164C43.4766 5.10742 44.0332 6.82617 44.0332 8.37891L44.0332 13.8086C44.0332 16.1035 43.0762 17.1777 41.0059 17.1777L39.668 17.1777C39.7266 16.8848 39.7656 16.582 39.7656 16.2598C39.7656 13.6133 37.6367 11.4844 34.9805 11.4844C32.3438 11.4844 30.2051 13.623 30.2051 16.2598C30.2051 16.582 30.2344 16.8848 30.293 17.1777L14.4824 17.1777C14.541 16.8848 14.5703 16.582 14.5703 16.2598C14.5703 13.6133 12.4414 11.4844 9.79492 11.4844C7.14844 11.4844 5.01953 13.6133 5.01953 16.2598C5.01953 16.582 5.04883 16.8848 5.10742 17.1777L3.03711 17.1777C1.12305 17.1777 0 16.0254 0 14.0527L0 11.9141C0 8.57422 2.07031 6.66992 6.25 6.15234L10.9473 5.57617L16.0059 2.39258C19.043 0.488281 21.0645 0 26.2012 0L35.957 0C38.7793 0 40.5566 0.849609 41.9336 2.86133ZM21.7383 8.37891L19.0039 12.8711C18.6816 13.3984 18.9355 13.9062 19.5605 13.9062L25.1855 13.9062C25.8008 13.9062 26.0645 13.3984 25.7422 12.8711L22.9883 8.37891C22.6758 7.87109 22.0605 7.86133 21.7383 8.37891Z" fill="black" fill-opacity="0.85"/>
 </g>
</svg>
