<?xml version="1.0" encoding="UTF-8"?>
<!--Generator: Apple Native CoreSVG 326-->
<!DOCTYPE svg
PUBLIC "-//W3C//DTD SVG 1.1//EN"
       "http://www.w3.org/Graphics/SVG/1.1/DTD/svg11.dtd">
<svg version="1.1" xmlns="http://www.w3.org/2000/svg" xmlns:xlink="http://www.w3.org/1999/xlink" viewBox="0 0 42.0702 34.2567">
 <g>
  <rect height="34.2567" opacity="0" width="42.0702" x="0" y="0"/>
  <path d="M16.3671 25.3656C17.705 24.5942 18.1542 22.9242 17.3827 21.5864C16.6113 20.2485 14.9316 19.7992 13.5937 20.5707C12.2655 21.3422 11.8163 23.0219 12.578 24.3598C13.3495 25.6879 15.0292 26.1371 16.3671 25.3656ZM34.0331 15.1703C35.371 14.3989 35.8202 12.7192 35.0488 11.3813C34.2773 10.0531 32.5976 9.60393 31.2695 10.3754C29.9413 11.1371 29.4823 12.8266 30.2538 14.1547C31.0253 15.4926 32.705 15.9418 34.0331 15.1703ZM32.832 0.902759L32.0995 0.551196C30.3124-0.298413 28.7304-0.17146 26.748 0.971118L19.9023 4.9262C16.2988 7.00627 15.078 8.15862 13.7206 10.7367L11.455 15.0141L8.39836 17.3188C5.67375 19.3696 4.99992 21.5473 6.34758 23.891L7.21672 25.3949C8.0175 26.7719 9.2675 27.1235 10.6152 26.352L12.0605 25.5121C11.9042 25.3266 11.7577 25.1313 11.6308 24.9067C10.5566 23.0512 11.1816 20.6879 13.0468 19.6235C14.9023 18.5492 17.2558 19.1742 18.33 21.0395C18.4667 21.2641 18.5644 21.4887 18.6425 21.7133L29.7363 15.3071C29.5702 15.1313 29.4238 14.9262 29.2968 14.7016C28.2323 12.8559 28.8671 10.4828 30.7128 9.41838C32.578 8.34416 34.9316 8.97893 36.0058 10.8344C36.1327 11.059 36.2304 11.2836 36.3085 11.518L37.246 10.9711C38.7011 10.1313 38.9355 8.99846 38.0077 7.38713L35.8105 3.56877C35.1757 2.48479 34.0917 1.50823 32.832 0.902759Z" fill="black" fill-opacity="0.85"/>
  <path d="M5.37102 27.768L2.87102 23.4321C2.49016 22.7582 1.71867 22.9145 1.4843 23.5785L0.0682827 27.2797C-0.12703 27.7778 0.107345 28.1879 0.634689 28.266L4.54094 28.9008C5.24406 29.0278 5.76164 28.4321 5.37102 27.768ZM7.86125 33.7446C8.11516 34.1645 8.6425 34.2914 9.04289 34.0766L41.289 15.4731C41.6894 15.2485 41.8359 14.7211 41.6113 14.311C41.3476 13.8813 40.8105 13.7543 40.4198 13.9789L8.16399 32.5824C7.77336 32.7973 7.62688 33.3344 7.86125 33.7446Z" fill="black" fill-opacity="0.85"/>
 </g>
</svg>
