<?xml version="1.0" encoding="UTF-8"?>
<!--Generator: Apple Native CoreSVG 326-->
<!DOCTYPE svg
PUBLIC "-//W3C//DTD SVG 1.1//EN"
       "http://www.w3.org/Graphics/SVG/1.1/DTD/svg11.dtd">
<svg version="1.1" xmlns="http://www.w3.org/2000/svg" xmlns:xlink="http://www.w3.org/1999/xlink" viewBox="0 0 46.9336 27.2363">
 <g>
  <rect height="27.2363" opacity="0" width="46.9336" x="0" y="0"/>
  <path d="M38.2715 4.32617L39.541 5.3418L42.7832 1.97266C43.0664 1.66992 43.3887 1.5625 43.7891 1.5625L45.7617 1.5625C46.25 1.5625 46.5723 1.24023 46.5723 0.771484C46.5723 0.3125 46.25 0 45.7617 0L43.9648 0C42.9785 0 42.1777 0.273438 41.5234 0.957031ZM9.79492 23.2715C11.709 23.2715 13.2129 21.7676 13.2129 19.8535C13.2129 17.9492 11.6992 16.4355 9.79492 16.4355C7.89062 16.4355 6.37695 17.9492 6.37695 19.8535C6.37695 21.7578 7.89062 23.2715 9.79492 23.2715ZM34.9805 23.2715C36.8848 23.2715 38.3984 21.7578 38.3984 19.8535C38.3984 17.9492 36.8848 16.4355 34.9805 16.4355C33.0957 16.4355 31.5625 17.959 31.5625 19.8535C31.5625 21.7578 33.0859 23.2715 34.9805 23.2715ZM42.5 7.27539L41.9336 6.45508C40.5566 4.44336 38.7793 3.59375 35.957 3.59375L26.2012 3.59375C21.0645 3.59375 19.043 4.08203 16.0059 5.98633L10.9473 9.16992L6.25 9.74609C2.07031 10.2637 0 12.168 0 15.5078L0 17.6465C0 19.6191 1.12305 20.7715 3.03711 20.7715L5.10742 20.7715C5.04883 20.4785 5.01953 20.1758 5.01953 19.8535C5.01953 17.207 7.14844 15.0781 9.79492 15.0781C12.4414 15.0781 14.5703 17.207 14.5703 19.8535C14.5703 20.1758 14.541 20.4785 14.4824 20.7715L30.293 20.7715C30.2344 20.4785 30.2051 20.1758 30.2051 19.8535C30.2051 17.2168 32.3438 15.0781 34.9805 15.0781C37.6367 15.0781 39.7656 17.207 39.7656 19.8535C39.7656 20.1758 39.7266 20.4785 39.668 20.7715L41.0059 20.7715C43.0762 20.7715 44.0332 19.6973 44.0332 17.4023L44.0332 11.9727C44.0332 10.4199 43.4766 8.70117 42.5 7.27539Z" fill="black" fill-opacity="0.85"/>
 </g>
</svg>
