<?xml version="1.0" encoding="UTF-8"?>
<!--Generator: Apple Native CoreSVG 326-->
<!DOCTYPE svg
PUBLIC "-//W3C//DTD SVG 1.1//EN"
       "http://www.w3.org/Graphics/SVG/1.1/DTD/svg11.dtd">
<svg version="1.1" xmlns="http://www.w3.org/2000/svg" xmlns:xlink="http://www.w3.org/1999/xlink" viewBox="0 0 28.0762 24.8535">
 <g>
  <rect height="24.8535" opacity="0" width="28.0762" x="0" y="0"/>
  <path d="M25.8301 14.0234C25.8301 12.0703 25.2344 9.32617 23.623 6.5625C24.375 8.50586 24.873 10.6934 24.873 12.8613C24.873 20.0684 19.0137 24.0039 12.041 24.0039C11.5332 24.0039 11.0449 23.9844 10.5762 23.9355C11.7578 24.3359 13.4473 24.5703 14.9609 24.5703C19.6582 24.5703 20.957 22.373 23.6816 22.373C25.957 22.373 26.8555 23.9062 27.207 24.502C27.2949 24.6973 27.4707 24.8145 27.5781 24.4531C27.6465 24.1895 27.7148 23.8379 27.7148 23.418C27.7148 22.2168 27.3438 19.9219 25.3418 17.4219C25.7812 16.1914 25.8301 14.834 25.8301 14.0234ZM18.8867 1.30859C21.084 4.05273 22.5293 7.57812 22.5293 11.1133C22.5293 17.334 17.9395 21.7285 11.416 21.7285C7.54883 21.7285 4.10156 19.9414 2.05078 18.5449C4.81445 21.4746 8.86719 23.3691 12.0703 23.3691C18.6719 23.3691 24.2383 18.8574 24.2383 12.1387C24.2383 7.89062 22.1973 4.00391 18.8867 1.30859ZM21.7383 10.5957C21.7383 6.51367 19.8633 2.64648 17.0117 0C18.418 1.98242 20.3125 5.01953 20.3125 9.21875C20.3125 10.7422 19.8926 12.4219 19.5508 13.252C15.8789 11.123 8.82812 5.25391 6.00586 2.25586C8.27148 5.73242 10.9473 8.86719 13.916 12.168C9.92188 9.63867 6.20117 6.81641 2.73438 3.71094C6.05469 8.53516 10.2539 13.2812 15.8105 17.7637C14.2188 18.6523 12.5977 19.3457 9.80469 19.3457C6.40625 19.3457 2.25586 17.7051 0 15.8691C2.65625 18.7598 6.62109 20.9375 10.8691 20.9375C16.6602 20.9375 21.7383 17.4219 21.7383 10.5957Z" fill="black" fill-opacity="0.85"/>
 </g>
</svg>
