<?xml version="1.0" encoding="UTF-8"?>
<!--Generator: Apple Native CoreSVG 326-->
<!DOCTYPE svg
PUBLIC "-//W3C//DTD SVG 1.1//EN"
       "http://www.w3.org/Graphics/SVG/1.1/DTD/svg11.dtd">
<svg version="1.1" xmlns="http://www.w3.org/2000/svg" xmlns:xlink="http://www.w3.org/1999/xlink" viewBox="0 0 24.0625 23.623">
 <g>
  <rect height="23.623" opacity="0" width="24.0625" x="0" y="0"/>
  <path d="M5.25391 23.5547L18.4473 23.5547C21.3867 23.5547 23.7012 21.5039 23.7012 18.5059C23.7012 15.5176 21.3867 13.4668 18.4473 13.4668L5.25391 13.4668C2.31445 13.4668 0 15.5176 0 18.5059C0 21.5039 2.31445 23.5547 5.25391 23.5547ZM18.7695 21.8945C16.8945 21.8848 15.3906 20.3809 15.3906 18.5059C15.3906 16.6406 16.8945 15.1367 18.7695 15.1367C20.6543 15.1367 22.168 16.6309 22.1582 18.4863C22.1484 20.3809 20.6348 21.9043 18.7695 21.8945Z" fill="black" fill-opacity="0.85"/>
  <path d="M5.77148 8.80859C7.5293 8.81836 8.93555 7.38281 8.94531 5.61523C8.95508 3.87695 7.53906 2.48047 5.77148 2.48047C4.02344 2.48047 2.61719 3.88672 2.61719 5.63477C2.61719 7.39258 4.01367 8.79883 5.77148 8.80859Z" fill="black" fill-opacity="0.85"/>
  <path d="M5.77148 11.2793L17.9297 11.2793C21.0938 11.2793 23.7012 8.99414 23.7012 5.64453C23.7012 2.29492 21.0938 0 17.9297 0L5.77148 0C2.60742 0 0 2.29492 0 5.64453C0 8.99414 2.60742 11.2793 5.77148 11.2793ZM5.77148 9.64844C3.58398 9.64844 1.63086 8.01758 1.63086 5.64453C1.63086 3.27148 3.58398 1.64062 5.77148 1.64062L17.9297 1.64062C20.1172 1.64062 22.0703 3.27148 22.0703 5.64453C22.0703 8.01758 20.1172 9.64844 17.9297 9.64844Z" fill="black" fill-opacity="0.85"/>
 </g>
</svg>
