<?xml version="1.0" encoding="UTF-8"?>
<!--Generator: Apple Native CoreSVG 326-->
<!DOCTYPE svg
PUBLIC "-//W3C//DTD SVG 1.1//EN"
       "http://www.w3.org/Graphics/SVG/1.1/DTD/svg11.dtd">
<svg version="1.1" xmlns="http://www.w3.org/2000/svg" xmlns:xlink="http://www.w3.org/1999/xlink" viewBox="0 0 28.7501 28.1006">
 <g>
  <rect height="28.1006" opacity="0" width="28.7501" x="0" y="0"/>
  <path d="M0.234432 27.8638C0.517635 28.147 0.986385 28.1372 1.27935 27.8442L7.32428 21.7896L6.28912 20.7446L0.234432 26.7993C-0.0683022 27.0923-0.0878334 27.5708 0.234432 27.8638ZM16.4063 5.23682L14.629 7.02393L17.6954 10.0903C17.8907 10.2954 17.9004 10.6567 17.6954 10.8423C17.4708 11.0474 17.168 11.0474 16.9434 10.8423L13.8672 7.76611L12.002 9.64111L15.0782 12.6978C15.2833 12.9224 15.2833 13.2544 15.0879 13.4595C14.8633 13.6646 14.5508 13.6548 14.3262 13.4595L11.2696 10.3833L9.38482 12.2583L12.4512 15.3345C12.6563 15.5396 12.6661 15.8716 12.461 16.0767C12.2462 16.2915 11.9239 16.2915 11.709 16.0767L8.63287 13.0103L6.76764 14.8853L9.83404 17.9419C10.0391 18.1372 10.0391 18.4692 9.84381 18.6841C9.63873 18.9087 9.31646 18.9087 9.08209 18.6938L6.02545 15.6177L4.55084 17.0825C3.32037 18.3228 3.30084 19.8071 4.47271 20.9888L7.1192 23.645C8.30084 24.8267 9.80474 24.7876 11.0352 23.5474L22.8809 11.7114ZM15.9571 3.02979L25.0977 12.1704C25.4395 12.5122 25.9864 12.5122 26.3184 12.1704C26.6602 11.8384 26.6602 11.2817 26.3184 10.9497L24.9805 9.60205L25.5762 9.00635C25.918 8.67432 25.9278 8.12744 25.586 7.79541L23.6231 5.84229L25.3809 4.09424L26.9141 5.63721C27.2559 5.96924 27.8126 5.96924 28.1348 5.63721C28.4766 5.30518 28.4766 4.74854 28.1348 4.40674L23.9844 0.256348C23.6426-0.0854492 23.0958-0.0854492 22.754 0.256348C22.4219 0.578613 22.4219 1.13525 22.754 1.47705L24.2969 3.02002L22.5587 4.7583L20.3321 2.5415C20.0098 2.21924 19.4532 2.20947 19.1114 2.5415L18.5157 3.13721L17.1876 1.80908C16.836 1.45752 16.2989 1.47705 15.9571 1.80908C15.6251 2.15088 15.6055 2.67822 15.9571 3.02979Z" fill="black" fill-opacity="0.85"/>
 </g>
</svg>
