<?xml version="1.0" ?><!-- Generator: Adobe Illustrator 25.0.0, SVG Export Plug-In . SVG Version: 6.00 Build 0)  --><svg xmlns="http://www.w3.org/2000/svg" xmlns:xlink="http://www.w3.org/1999/xlink" version="1.1" id="Layer_1" x="0px" y="0px" viewBox="0 0 512 512" style="enable-background:new 0 0 512 512;" xml:space="preserve">
<path d="M142.9,496.3c11.4,0,19.3-6,33.5-18.6l80.1-71.3h149.1c69.2,0,106.4-38.3,106.4-106.4V122.1C512,54,474.8,15.7,405.6,15.7  H106.4C37.2,15.7,0,53.8,0,122.1V300c0,68.3,37.2,106.4,106.4,106.4h11.2v60.4C117.5,484.7,126.6,496.3,142.9,496.3z M152.4,453.8  v-67.4c0-12.5-4.9-17.4-17.4-17.4h-28.6c-46.9,0-69-23.9-69-69.2V122.1c0-45.3,22.1-69,69-69h299.2c46.7,0,69,23.7,69,69v177.7  c0,45.3-22.3,69.2-69,69.2H255.1c-13,0-19.5,1.9-28.3,10.9L152.4,453.8z M255.5,318.4c12.3,0,18.8-8.1,18.8-20.9V134.4h57.8  c8.8,0,15.3-6,15.3-15.3c0-9.5-6.5-15.1-15.3-15.1H180c-8.8,0-15.6,5.6-15.6,15.1c0,9.3,6.7,15.3,15.6,15.3h57.1v163.1  C237.2,309.8,243.7,318.4,255.5,318.4z"/>
</svg>