<?xml version="1.0" ?><!-- Generator: Adobe Illustrator 25.0.0, SVG Export Plug-In . SVG Version: 6.00 Build 0)  --><svg xmlns="http://www.w3.org/2000/svg" xmlns:xlink="http://www.w3.org/1999/xlink" version="1.1" id="Layer_1" x="0px" y="0px" viewBox="0 0 512 512" style="enable-background:new 0 0 512 512;" xml:space="preserve">
<path d="M87.3,512h337.3c58.4,0,87.3-28.9,87.3-86.2V86.2C512,28.9,483.1,0,424.7,0H87.3C29.2,0,0,28.6,0,86.2v339.6  C0,483.4,29.2,512,87.3,512z M255.6,388.2c-15,0-22.8-10.8-22.8-26.1V161h-70.4c-11.1,0-19.5-7.5-19.5-18.9c0-12,8.3-18.9,19.5-18.9  h187.4c11.1,0,19.5,7,19.5,18.9c0,11.4-8.3,18.9-19.5,18.9h-71.2v201.1C278.7,378,270.6,388.2,255.6,388.2z"/>
</svg>