<?xml version="1.0" ?><!-- Generator: Adobe Illustrator 25.0.0, SVG Export Plug-In . SVG Version: 6.00 Build 0)  --><svg xmlns="http://www.w3.org/2000/svg" xmlns:xlink="http://www.w3.org/1999/xlink" version="1.1" id="Layer_1" x="0px" y="0px" viewBox="0 0 512 512" style="enable-background:new 0 0 512 512;" xml:space="preserve">
<path d="M384.1,320.9l26.4,26.1l83.2-83.6c17.2-17.2,18.3-27,18.3-51.1v-87.1c0-24.3-5.7-31.9-23.1-49.3l-52.7-52.7  C419,6,411.4,0,387.1,0h-87.3c-24.1,0-33.7,1.1-50.9,18.3l-83.6,83.4l26.1,26.1l83.4-83.4c4.6-4.6,9.4-7.6,17.2-7.6h96.5  c7.1,0,11.9,2.8,16.7,7.6l62.6,62.3c4.8,4.8,7.3,9.6,7.3,16.7v96.7c0,7.6-2.8,12.4-7.3,17L384.1,320.9z M442.3,467.3  c7.1,6.9,18.3,6.9,25,0c6.9-6.9,7.1-18.1,0-25L69.5,44.5c-6.9-6.9-18.1-7.1-25.2,0c-6.6,6.6-6.6,18.1,0,25L442.3,467.3z   M360.3,183.4c17.9,0,31.4-14,31.4-31.4c0-17.6-13.5-31.4-31.4-31.4c-18.1,0-31.4,13.7-31.4,31.4  C328.9,169.4,342.2,183.4,360.3,183.4z M347,410.5l-26.1-26.4l-75.4,75.4c-16.5,16.5-33.9,16.7-50.6-0.2L52.5,317.2  c-16.7-16.7-16.5-34.4-0.2-50.6l75.9-75.6l-25.9-26.1L24.8,242C-8,274.8-8.7,308.7,25,342.2L170.1,487c33.7,33.5,67.4,33,100.1,0.2  L347,410.5z"/>
</svg>