<?xml version="1.0" ?><!-- Generator: Adobe Illustrator 25.0.0, SVG Export Plug-In . SVG Version: 6.00 Build 0)  --><svg xmlns="http://www.w3.org/2000/svg" xmlns:xlink="http://www.w3.org/1999/xlink" version="1.1" id="Layer_1" x="0px" y="0px" viewBox="0 0 512 512" style="enable-background:new 0 0 512 512;" xml:space="preserve">
<path d="M270.2,487.2l223.4-223.9c17.2-17.2,18.3-27,18.3-51.1v-87.1c0-24.3-5.7-31.9-23.1-49.3l-52.7-52.7C419,6,411.4,0,387.1,0  h-87.3c-24.1,0-33.7,1.1-50.9,18.3L24.8,242C-8,274.8-8.7,308.7,25,342.2L170.1,487C203.8,520.5,237.5,520,270.2,487.2z   M348.6,183.4c-18.1,0-31.4-14-31.4-31.4c0-17.6,13.3-31.4,31.4-31.4c17.9,0,31.4,13.7,31.4,31.4C380,169.4,366.5,183.4,348.6,183.4  z"/>
</svg>