<?xml version="1.0" encoding="UTF-8"?>
<!--Generator: Apple Native CoreSVG 326-->
<!DOCTYPE svg
PUBLIC "-//W3C//DTD SVG 1.1//EN"
       "http://www.w3.org/Graphics/SVG/1.1/DTD/svg11.dtd">
<svg version="1.1" xmlns="http://www.w3.org/2000/svg" xmlns:xlink="http://www.w3.org/1999/xlink" viewBox="0 0 28.2935 29.3042">
 <g>
  <rect height="29.3042" opacity="0" width="28.2935" x="0" y="0"/>
  <path d="M19.0712 23.5452L14.6399 27.9871C12.9016 29.7351 11.1047 29.7546 9.3274 27.9773L1.31958 19.989C-0.447995 18.2312-0.428464 16.4148 1.30982 14.6765L5.75898 10.2449ZM23.7903 2.6062L26.7102 5.53589C27.6672 6.48316 27.9309 6.86402 27.9309 8.13355L27.9309 12.9285C27.9309 14.2566 27.8626 14.7351 26.9739 15.6238L22.17 20.4391L8.87356 7.1426L13.6926 2.34253C14.5813 1.45386 15.0598 1.3855 16.3879 1.3855L21.1829 1.3855C22.4524 1.3855 22.8333 1.64917 23.7903 2.6062ZM17.4915 9.57886C17.4915 10.4773 18.1848 11.1804 19.093 11.1804C20.011 11.1804 20.7043 10.4773 20.7043 9.57886C20.7043 8.68042 20.011 7.9773 19.093 7.9773C18.1848 7.9773 17.4915 8.68042 17.4915 9.57886Z" fill="black" fill-opacity="0.85"/>
  <path d="M24.2981 26.8543C24.6204 27.1765 25.1575 27.1765 25.4797 26.8543C25.7922 26.532 25.802 25.9949 25.4797 25.6726L3.62427 3.82691C3.31177 3.50464 2.78443 3.48511 2.44263 3.82691C2.12036 4.13941 2.12036 4.68628 2.44263 4.99878Z" fill="black" fill-opacity="0.85"/>
 </g>
</svg>
