<?xml version="1.0" ?><!-- Generator: Adobe Illustrator 25.0.0, SVG Export Plug-In . SVG Version: 6.00 Build 0)  --><svg xmlns="http://www.w3.org/2000/svg" xmlns:xlink="http://www.w3.org/1999/xlink" version="1.1" id="Layer_1" x="0px" y="0px" viewBox="0 0 512 512" style="enable-background:new 0 0 512 512;" xml:space="preserve">
<path d="M353.4,492.3h94.1c13.4,0,23.6-3.5,30.5-10.5c6.9-7,11.1-17.8,12.6-32.4l21.3-221.3c0.5-5.7-0.7-10.3-3.8-13.7  c-3-3.5-7.4-5.2-12.9-5.2H305.4c-5.4,0-9.7,1.8-12.7,5.3c-3,3.5-4.3,8.1-3.8,13.6l21.3,221.3c1.4,14.6,5.5,25.4,12.4,32.4  C329.6,488.8,339.8,492.3,353.4,492.3z M354.6,460.6c-7.9,0-12.3-4.1-13.2-12.4L321.9,241H479l-19.7,207.3  c-0.8,8.3-5.1,12.4-13,12.4H354.6z M387.1,219.6h28l1.2-19.1c0.4-5.1,1.5-9.3,3.2-12.6c1.7-3.3,4.4-6.2,8.2-8.9l67.9-48.8  c3.9-2.7,6-5.9,6.3-9.7c0.3-3.7-0.7-7.1-2.9-10.1c-2.2-3-5.2-4.9-8.9-5.8c-3.7-0.9-7.6,0.2-11.7,3.1l-65.4,47.3  c-7.9,5.7-13.6,11.9-17.3,18.6c-3.7,6.7-6,15.1-6.9,25.1L387.1,219.6z" class="hierarchical-0:primary SFSymbolsPreview212121" style="fill: #212121;"/>
<path d="M62,457.8h221.3c-0.1-0.9-0.2-1.9-0.3-2.8c-0.1-0.9-0.2-1.9-0.3-2.8l-2.4-27H62.4c-19.8,0-29.7-10-29.7-30.1V185.3  c0-3.9,0.2-6.9,0.6-8.9c0.4-2,1.4-4.1,2.8-6.1l39.6-52.4c1.5-2,2.5-4,3.1-5.9c0.6-1.9,0.9-4.1,0.9-6.7V68.8c0-11,5.1-16.5,15.2-16.5  h170.5c10,0,15,5.5,15,16.5v36.4c0,2.6,0.3,4.8,0.9,6.7c0.6,1.9,1.7,3.9,3.1,5.9l39.6,52.4c1.4,1.8,2.2,3.4,2.6,5  c0.4,1.6,0.6,3.6,0.6,6.2h32.9c0-6.2-0.6-11.2-1.8-15c-1.2-3.8-3.4-7.8-6.5-12L313.3,103V64.4c0-14.4-4.1-25.4-12.3-33.1  c-8.2-7.7-19.9-11.6-35.3-11.6H94.7c-15.3,0-27.1,3.9-35.3,11.6C51.2,39,47.1,50,47.1,64.4V103L8.5,154.4c-3.4,4.5-5.7,8.7-6.8,12.7  c-1.2,4-1.7,9.5-1.7,16.6v213c0,20.3,5.2,35.6,15.5,45.8C25.9,452.7,41.4,457.8,62,457.8z M125.2,110.1h109.5c3.5,0,6.6-1.3,9.1-3.9  c2.6-2.6,3.9-5.7,3.9-9.3c0-3.7-1.3-6.8-3.9-9.4c-2.6-2.6-5.6-4-9.1-4H125.2c-3.5,0-6.6,1.3-9.1,4c-2.6,2.6-3.9,5.8-3.9,9.4  c0,3.7,1.3,6.8,3.9,9.3C118.6,108.8,121.7,110.1,125.2,110.1z" class="hierarchical-1:secondary SFSymbolsPreview4D4D4D" style="fill: #4D4D4D;"/>
</svg>