<?xml version="1.0" encoding="UTF-8"?>
<!--Generator: Apple Native CoreSVG 326-->
<!DOCTYPE svg
PUBLIC "-//W3C//DTD SVG 1.1//EN"
       "http://www.w3.org/Graphics/SVG/1.1/DTD/svg11.dtd">
<svg version="1.1" xmlns="http://www.w3.org/2000/svg" xmlns:xlink="http://www.w3.org/1999/xlink" viewBox="0 0 25.8008 25.459">
 <g>
  <rect height="25.459" opacity="0" width="25.8008" x="0" y="0"/>
  <path d="M25.4395 12.7344C25.4395 19.7461 19.7266 25.459 12.7148 25.459C5.71289 25.459 0 19.7461 0 12.7344C0 5.73242 5.71289 0.0195312 12.7148 0.0195312C19.7266 0.0195312 25.4395 5.73242 25.4395 12.7344ZM4.6875 9.14062C4.16992 9.63867 3.89648 10.332 3.89648 11.1035C3.89648 12.8516 5.25391 14.9805 7.07031 16.7871C8.86719 18.584 11.0352 19.9707 12.7832 19.9707C13.6035 19.9707 14.3066 19.6387 14.7754 19.1211C15.2246 18.6035 15.3711 18.252 15.3711 17.9004C15.3711 17.6465 15.2148 17.4121 14.8145 17.1191L13.3008 16.0449C12.9297 15.7812 12.7734 15.7324 12.5391 15.7324C12.3535 15.7324 12.1973 15.7715 11.875 15.9375L10.8984 16.4746C10.7715 16.543 10.7129 16.5723 10.6348 16.5723C10.5273 16.5723 10.4492 16.5332 10.3223 16.4746C9.84375 16.2598 9.19922 15.752 8.61328 15.166C8.03711 14.5801 7.58789 13.9844 7.33398 13.5254C7.31445 13.457 7.27539 13.3594 7.27539 13.2617C7.27539 13.1836 7.31445 13.1152 7.36328 13.0273L7.93945 12.0508C8.0957 11.7676 8.14453 11.6309 8.14453 11.416C8.14453 11.1816 8.07617 10.918 7.83203 10.5859L6.79688 9.14062C6.50391 8.74023 6.28906 8.47656 5.95703 8.47656C5.53711 8.47656 5.04883 8.80859 4.6875 9.14062ZM10.2441 12.0117C9.81445 12.0117 9.59961 12.2266 9.59961 12.6562L9.59961 13.7207C9.59961 14.1504 9.81445 14.375 10.2441 14.375L11.3086 14.375C11.748 14.375 11.9824 14.1504 11.9824 13.7207L11.9824 12.6562C11.9824 12.2266 11.748 12.0117 11.3086 12.0117ZM13.4082 12.0117C12.9883 12.0117 12.7344 12.2266 12.7344 12.6562L12.7344 13.7207C12.7344 14.1504 12.9883 14.375 13.4082 14.375L17.6465 14.375C18.0664 14.375 18.3008 14.1504 18.3008 13.7207L18.3008 12.6562C18.3008 12.2266 18.0664 12.0117 17.6465 12.0117ZM19.7363 12.0117C19.3262 12.0117 19.0723 12.2266 19.0723 12.6562L19.0723 13.7207C19.0723 14.1504 19.3262 14.375 19.7363 14.375L20.8008 14.375C21.2402 14.375 21.4551 14.1504 21.4551 13.7207L21.4551 12.6562C21.4551 12.2266 21.2402 12.0117 20.8008 12.0117ZM10.2539 8.84766C9.84375 8.84766 9.59961 9.07227 9.59961 9.50195L9.59961 10.5566C9.59961 10.9668 9.84375 11.2207 10.2539 11.2207L11.3281 11.2207C11.748 11.2207 11.9824 10.9668 11.9824 10.5566L11.9824 9.50195C11.9824 9.07227 11.748 8.84766 11.3281 8.84766ZM13.4277 8.84766C13.0078 8.84766 12.7344 9.07227 12.7344 9.50195L12.7344 10.5566C12.7344 10.9668 13.0078 11.2207 13.4277 11.2207L14.4824 11.2207C14.9023 11.2207 15.127 10.9668 15.127 10.5566L15.127 9.50195C15.127 9.07227 14.9023 8.84766 14.4824 8.84766ZM16.5527 8.84766C16.1426 8.84766 15.9277 9.07227 15.9277 9.50195L15.9277 10.5566C15.9277 10.9668 16.1426 11.2207 16.5527 11.2207L17.627 11.2207C18.0469 11.2207 18.291 10.9668 18.291 10.5566L18.291 9.50195C18.291 9.07227 18.0469 8.84766 17.627 8.84766ZM19.7168 8.84766C19.3066 8.84766 19.0723 9.07227 19.0723 9.50195L19.0723 10.5566C19.0723 10.9668 19.3066 11.2207 19.7168 11.2207L20.7715 11.2207C21.2207 11.2207 21.4551 10.9668 21.4551 10.5566L21.4551 9.50195C21.4551 9.07227 21.2207 8.84766 20.7715 8.84766Z" fill="black" fill-opacity="0.85"/>
 </g>
</svg>
