<?xml version="1.0" encoding="UTF-8"?>
<!--Generator: Apple Native CoreSVG 326-->
<!DOCTYPE svg
PUBLIC "-//W3C//DTD SVG 1.1//EN"
       "http://www.w3.org/Graphics/SVG/1.1/DTD/svg11.dtd">
<svg version="1.1" xmlns="http://www.w3.org/2000/svg" xmlns:xlink="http://www.w3.org/1999/xlink" viewBox="0 0 25.8008 25.459">
 <g>
  <rect height="25.459" opacity="0" width="25.8008" x="0" y="0"/>
  <path d="M25.4395 12.7344C25.4395 19.7461 19.7266 25.459 12.7148 25.459C5.71289 25.459 0 19.7461 0 12.7344C0 5.73242 5.71289 0.0195312 12.7148 0.0195312C19.7266 0.0195312 25.4395 5.73242 25.4395 12.7344ZM6.69922 16.5137C6.2207 16.5137 5.9668 16.7871 5.9668 17.2656L5.9668 18.4766C5.9668 18.9551 6.2207 19.2285 6.69922 19.2285L7.91016 19.2285C8.39844 19.2285 8.65234 18.9551 8.65234 18.4766L8.65234 17.2656C8.65234 16.7871 8.39844 16.5137 7.91016 16.5137ZM10.2832 16.5137C9.81445 16.5137 9.54102 16.7871 9.54102 17.2656L9.54102 18.4766C9.54102 18.9551 9.81445 19.2285 10.2832 19.2285L15.1172 19.2285C15.5957 19.2285 15.8691 18.9551 15.8691 18.4766L15.8691 17.2656C15.8691 16.7871 15.5957 16.5137 15.1172 16.5137ZM17.4902 16.5137C17.0117 16.5137 16.7383 16.7871 16.7383 17.2656L16.7383 18.4766C16.7383 18.9551 17.0117 19.2285 17.4902 19.2285L18.7012 19.2285C19.1797 19.2285 19.4434 18.9551 19.4434 18.4766L19.4434 17.2656C19.4434 16.7871 19.1797 16.5137 18.7012 16.5137ZM6.70898 12.9199C6.23047 12.9199 5.9668 13.2031 5.9668 13.6621L5.9668 14.8828C5.9668 15.3613 6.23047 15.625 6.70898 15.625L7.92969 15.625C8.39844 15.625 8.65234 15.3613 8.65234 14.8828L8.65234 13.6621C8.65234 13.2031 8.39844 12.9199 7.92969 12.9199ZM10.3125 12.9199C9.82422 12.9199 9.54102 13.2031 9.54102 13.6621L9.54102 14.8828C9.54102 15.3613 9.82422 15.625 10.3125 15.625L11.5234 15.625C11.9922 15.625 12.2656 15.3613 12.2656 14.8828L12.2656 13.6621C12.2656 13.2031 11.9922 12.9199 11.5234 12.9199ZM13.877 12.9199C13.4082 12.9199 13.1348 13.2031 13.1348 13.6621L13.1348 14.8828C13.1348 15.3613 13.4082 15.625 13.877 15.625L15.0977 15.625C15.5664 15.625 15.8594 15.3613 15.8594 14.8828L15.8594 13.6621C15.8594 13.2031 15.5664 12.9199 15.0977 12.9199ZM17.4609 12.9199C17.002 12.9199 16.7188 13.2031 16.7188 13.6621L16.7188 14.8828C16.7188 15.3613 17.002 15.625 17.4609 15.625L18.6719 15.625C19.1602 15.625 19.4434 15.3613 19.4434 14.8828L19.4434 13.6621C19.4434 13.2031 19.1602 12.9199 18.6719 12.9199ZM5.98633 8.10547C5.43945 8.63281 5.13672 9.30664 5.13672 10.1562C5.13672 10.7227 5.30273 11.5234 5.9082 11.6406C6.09375 11.7383 6.32812 11.7188 6.61133 11.6797L8.49609 11.3574C9.15039 11.25 9.46289 11.0156 9.63867 10.3809L9.94141 9.23828C10.0195 9.02344 10.0879 8.92578 10.3418 8.84766C10.8594 8.66211 11.6992 8.55469 12.7148 8.55469C13.7402 8.55469 14.5801 8.66211 15.0977 8.84766C15.3613 8.92578 15.4199 9.02344 15.4883 9.23828L15.8008 10.3809C15.9668 11.0156 16.2891 11.25 16.9336 11.3574L18.8184 11.6797C19.1113 11.7188 19.3359 11.7383 19.5312 11.6406C20.127 11.5234 20.3027 10.7227 20.3027 10.1562C20.3027 9.30664 19.9902 8.63281 19.4531 8.10547C18.0664 6.67969 15.2246 6.2207 12.7148 6.2207C10.2148 6.2207 7.36328 6.67969 5.98633 8.10547Z" fill="black" fill-opacity="0.85"/>
 </g>
</svg>
