<?xml version="1.0" encoding="UTF-8"?>
<!--Generator: Apple Native CoreSVG 326-->
<!DOCTYPE svg
PUBLIC "-//W3C//DTD SVG 1.1//EN"
       "http://www.w3.org/Graphics/SVG/1.1/DTD/svg11.dtd">
<svg version="1.1" xmlns="http://www.w3.org/2000/svg" xmlns:xlink="http://www.w3.org/1999/xlink" viewBox="0 0 27.9395 26.5527">
 <g>
  <rect height="26.5527" opacity="0" width="27.9395" x="0" y="0"/>
  <path d="M1.5332 23.8379L26.0449 23.8379L26.0449 23.0859C26.0449 22.666 25.791 22.4121 25.3613 22.4121L24.5605 22.4121L24.5605 8.33984L25.6934 8.33984C26.2891 8.33984 26.6211 7.91992 26.6211 7.48047C26.6211 7.1582 26.4453 6.875 26.0547 6.65039L15.2637 0.419922C14.7852 0.146484 14.2773 0 13.7891 0C13.3008 0 12.7832 0.146484 12.3145 0.419922L1.52344 6.65039C1.12305 6.875 0.957031 7.1582 0.957031 7.48047C0.957031 7.91992 1.28906 8.33984 1.88477 8.33984L3.02734 8.33984L3.02734 22.4121L2.22656 22.4121C1.78711 22.4121 1.5332 22.666 1.5332 23.0859ZM4.6582 22.4121L4.6582 6.85547L13.2227 2.03125C13.3887 1.93359 13.5938 1.875 13.7891 1.875C13.9746 1.875 14.1699 1.93359 14.3555 2.03125L22.9297 6.85547L22.9297 22.4121ZM0.869141 26.5332L26.709 26.5332C27.1875 26.5332 27.5781 26.1426 27.5781 25.6738C27.5781 25.1953 27.1875 24.8047 26.709 24.8047L0.869141 24.8047C0.390625 24.8047 0 25.1953 0 25.6738C0 26.1426 0.390625 26.5332 0.869141 26.5332Z" fill="black" fill-opacity="0.85"/>
  <path d="M13.8086 19.0137C14.1797 19.0137 14.4531 18.7305 14.4531 18.3496L14.4531 10.9082L17.5391 10.9082C17.8418 10.9082 18.0566 10.6738 18.0566 10.3906C18.0566 10.0977 17.8418 9.88281 17.5391 9.88281L10.0586 9.88281C9.75586 9.88281 9.54102 10.0977 9.54102 10.3906C9.54102 10.6738 9.75586 10.9082 10.0586 10.9082L13.1543 10.9082L13.1543 18.3496C13.1543 18.7305 13.4375 19.0137 13.8086 19.0137ZM9.50195 8.01758C9.50195 8.24219 9.67773 8.39844 9.89258 8.39844L17.666 8.39844C17.8906 8.39844 18.0566 8.23242 18.0566 8.01758C18.0566 7.8125 17.8906 7.63672 17.666 7.63672L9.89258 7.63672C9.67773 7.63672 9.50195 7.8125 9.50195 8.01758Z" fill="black" fill-opacity="0.85"/>
 </g>
</svg>
