<?xml version="1.0" encoding="UTF-8"?>
<!--Generator: Apple Native CoreSVG 326-->
<!DOCTYPE svg
PUBLIC "-//W3C//DTD SVG 1.1//EN"
       "http://www.w3.org/Graphics/SVG/1.1/DTD/svg11.dtd">
<svg version="1.1" xmlns="http://www.w3.org/2000/svg" xmlns:xlink="http://www.w3.org/1999/xlink" viewBox="0 0 27.9395 26.5527">
 <g>
  <rect height="26.5527" opacity="0" width="27.9395" x="0" y="0"/>
  <path d="M15.2637 0.419922L26.0547 6.65039C26.4453 6.875 26.6211 7.1582 26.6211 7.48047C26.6211 7.91992 26.2891 8.33984 25.6934 8.33984L24.5605 8.33984L24.5605 23.252L25.3613 23.252C25.791 23.252 26.0449 23.5059 26.0449 23.9258L26.0449 24.8047L26.709 24.8047C27.1875 24.8047 27.5781 25.1953 27.5781 25.6738C27.5781 26.1426 27.1875 26.5332 26.709 26.5332L0.869141 26.5332C0.390625 26.5332 0 26.1426 0 25.6738C0 25.1953 0.390625 24.8047 0.869141 24.8047L1.5332 24.8047L1.5332 23.9258C1.5332 23.5059 1.78711 23.252 2.22656 23.252L3.02734 23.252L3.02734 8.33984L1.88477 8.33984C1.28906 8.33984 0.957031 7.91992 0.957031 7.48047C0.957031 7.1582 1.12305 6.875 1.52344 6.65039L12.3145 0.419922C12.7832 0.146484 13.3008 0 13.7891 0C14.2773 0 14.7852 0.146484 15.2637 0.419922ZM9.9707 10.918C9.6582 10.918 9.43359 11.1426 9.43359 11.4453C9.43359 11.7383 9.6582 11.9727 9.9707 11.9727L13.1348 11.9727L13.1348 19.5996C13.1348 20 13.4277 20.293 13.8086 20.293C14.1895 20.293 14.4727 20 14.4727 19.5996L14.4727 11.9727L17.627 11.9727C17.9395 11.9727 18.1641 11.7383 18.1641 11.4453C18.1641 11.1426 17.9395 10.918 17.627 10.918ZM9.79492 8.62305C9.58008 8.62305 9.39453 8.79883 9.39453 9.01367C9.39453 9.23828 9.58008 9.4043 9.79492 9.4043L17.7637 9.4043C17.9883 9.4043 18.1641 9.22852 18.1641 9.01367C18.1641 8.79883 17.9883 8.62305 17.7637 8.62305Z" fill="black" fill-opacity="0.85"/>
 </g>
</svg>
