<?xml version="1.0" encoding="UTF-8"?>
<!--Generator: Apple Native CoreSVG 326-->
<!DOCTYPE svg
PUBLIC "-//W3C//DTD SVG 1.1//EN"
       "http://www.w3.org/Graphics/SVG/1.1/DTD/svg11.dtd">
<svg version="1.1" xmlns="http://www.w3.org/2000/svg" xmlns:xlink="http://www.w3.org/1999/xlink" viewBox="0 0 23.3203 22.959">
 <g>
  <rect height="22.959" opacity="0" width="23.3203" x="0" y="0"/>
  <path d="M3.79883 22.959L19.1504 22.959C21.6797 22.959 22.959 21.6797 22.959 19.1992L22.959 3.76953C22.959 1.2793 21.6797 0 19.1504 0L3.79883 0C1.2793 0 0 1.26953 0 3.76953L0 19.1992C0 21.6992 1.2793 22.959 3.79883 22.959ZM3.83789 21.2305C2.4707 21.2305 1.72852 20.5078 1.72852 19.1016L1.72852 3.85742C1.72852 2.46094 2.4707 1.72852 3.83789 1.72852L19.1211 1.72852C20.459 1.72852 21.2305 2.46094 21.2305 3.85742L21.2305 19.1016C21.2305 20.5078 20.459 21.2305 19.1211 21.2305Z" fill="black" fill-opacity="0.85"/>
  <path d="M11.5039 17.2852C11.875 17.2852 12.1484 17.002 12.1484 16.6211L12.1484 9.16992L15.2344 9.16992C15.5273 9.16992 15.752 8.94531 15.752 8.65234C15.752 8.36914 15.5273 8.14453 15.2344 8.14453L7.74414 8.14453C7.44141 8.14453 7.22656 8.36914 7.22656 8.65234C7.22656 8.94531 7.44141 9.16992 7.74414 9.16992L10.8496 9.16992L10.8496 16.6211C10.8496 17.002 11.1328 17.2852 11.5039 17.2852ZM7.1875 6.28906C7.1875 6.51367 7.36328 6.66992 7.57812 6.66992L15.3613 6.66992C15.5762 6.66992 15.752 6.49414 15.752 6.28906C15.752 6.08398 15.5762 5.9082 15.3613 5.9082L7.57812 5.9082C7.36328 5.9082 7.1875 6.08398 7.1875 6.28906Z" fill="black" fill-opacity="0.85"/>
 </g>
</svg>
