<?xml version="1.0" encoding="UTF-8"?>
<!--Generator: Apple Native CoreSVG 326-->
<!DOCTYPE svg
PUBLIC "-//W3C//DTD SVG 1.1//EN"
       "http://www.w3.org/Graphics/SVG/1.1/DTD/svg11.dtd">
<svg version="1.1" xmlns="http://www.w3.org/2000/svg" xmlns:xlink="http://www.w3.org/1999/xlink" viewBox="0 0 25.8008 25.459">
 <g>
  <rect height="25.459" opacity="0" width="25.8008" x="0" y="0"/>
  <path d="M25.4395 12.7246C25.4395 19.7266 19.7266 25.4395 12.7148 25.4395C5.71289 25.4395 0 19.7266 0 12.7246C0 5.71289 5.71289 0 12.7148 0C19.7266 0 25.4395 5.71289 25.4395 12.7246ZM12.0898 5.86914C12.2461 6.35742 12.3145 6.88477 12.3145 7.43164C12.3145 10.3223 10 12.6465 7.09961 12.6465C6.66016 12.6465 6.2207 12.5977 5.80078 12.4902C5.80078 12.5781 5.79102 12.6562 5.79102 12.7539C5.79102 16.5332 8.91602 19.6582 12.6953 19.6582C12.9102 19.6582 13.1445 19.6484 13.3594 19.6191C13.1836 19.1211 13.1152 18.5742 13.1152 18.0273C13.1152 15.127 15.4199 12.8027 18.3203 12.8027C18.7598 12.8027 19.1797 12.8516 19.5996 12.9688C19.5996 12.8906 19.5996 12.8223 19.5996 12.7539C19.5996 8.95508 16.4746 5.84961 12.6953 5.84961C12.4902 5.84961 12.2949 5.84961 12.0898 5.86914ZM14.0137 18.0273C14.0137 18.5352 14.0918 19.0332 14.2676 19.4727C16.9531 18.8281 19.0625 16.6016 19.5117 13.877C19.1406 13.7695 18.75 13.7109 18.3203 13.7109C15.8691 13.7109 14.0137 15.5664 14.0137 18.0273ZM5.89844 11.5723C6.26953 11.6797 6.67969 11.7383 7.09961 11.7383C9.54102 11.7383 11.4062 9.88281 11.4062 7.43164C11.4062 6.93359 11.3281 6.45508 11.1719 6.02539C8.48633 6.63086 6.37695 8.84766 5.89844 11.5723Z" fill="black" fill-opacity="0.85"/>
 </g>
</svg>
