<?xml version="1.0" encoding="UTF-8"?>
<!--Generator: Apple Native CoreSVG 326-->
<!DOCTYPE svg
PUBLIC "-//W3C//DTD SVG 1.1//EN"
       "http://www.w3.org/Graphics/SVG/1.1/DTD/svg11.dtd">
<svg version="1.1" xmlns="http://www.w3.org/2000/svg" xmlns:xlink="http://www.w3.org/1999/xlink" viewBox="0 0 25.8008 25.459">
 <g>
  <rect height="25.459" opacity="0" width="25.8008" x="0" y="0"/>
  <path d="M25.4395 12.7246C25.4395 19.7266 19.7266 25.4395 12.7148 25.4395C5.71289 25.4395 0 19.7266 0 12.7246C0 5.71289 5.71289 0 12.7148 0C19.7266 0 25.4395 5.71289 25.4395 12.7246ZM12.3145 7.00195C11.1816 8.1543 10.6738 9.62891 10.6934 10.9863C10.6934 12.7832 10.5176 13.8965 9.16016 15.4395C8.90625 15.3125 8.57422 15.3418 8.34961 15.5762L5.69336 18.2422C5.41016 18.5254 5.40039 18.9355 5.69336 19.2383L6.15234 19.6973C6.43555 19.9902 6.875 19.9902 7.1582 19.6973L9.80469 17.041C10.0293 16.8164 10.0879 16.5234 9.9707 16.2695C11.5039 14.9121 12.5781 14.7461 14.3945 14.7266C15.791 14.6875 17.2363 14.248 18.3984 13.0957C20.3613 11.1133 20.5957 8.20312 18.8965 6.51367C17.1875 4.82422 14.2773 5.03906 12.3145 7.00195ZM16.1719 13.3789C15.5469 13.6621 14.8926 13.7598 14.2871 13.6621L15.3809 12.5684ZM14.7656 11.9629L13.3398 13.3984C13.0566 13.2617 12.793 13.0859 12.5586 12.8418C12.373 12.6562 12.207 12.4512 12.0801 12.2266L13.5547 10.752ZM18.291 11.6016C18.1152 11.8555 17.9004 12.1191 17.666 12.3535C17.4316 12.5781 17.1973 12.7734 16.9629 12.9297L15.9961 11.9629L17.3242 10.6348ZM16.709 10.0195L15.3809 11.3574L14.1699 10.1367L15.498 8.81836ZM12.9395 10.1367L11.7578 11.3281C11.6211 10.6641 11.709 9.93164 12.0312 9.22852ZM18.7305 10.8105L17.9297 10.0195L18.9746 8.98438C19.0723 9.56055 18.9844 10.1953 18.7305 10.8105ZM14.8828 8.20312L13.5547 9.52148L12.4707 8.4375C12.6367 8.20312 12.832 7.96875 13.0664 7.74414C13.3008 7.50977 13.5547 7.30469 13.8184 7.12891ZM18.1543 7.24609C18.3789 7.48047 18.5645 7.73438 18.7012 8.00781L17.3145 9.4043L16.1133 8.20312L17.5391 6.77734C17.7539 6.89453 17.959 7.06055 18.1543 7.24609ZM16.6309 6.44531L15.498 7.57812L14.5996 6.68945C15.2832 6.39648 15.9961 6.30859 16.6309 6.44531Z" fill="black" fill-opacity="0.85"/>
 </g>
</svg>
