<?xml version="1.0" encoding="UTF-8"?>
<!--Generator: Apple Native CoreSVG 326-->
<!DOCTYPE svg
PUBLIC "-//W3C//DTD SVG 1.1//EN"
       "http://www.w3.org/Graphics/SVG/1.1/DTD/svg11.dtd">
<svg version="1.1" xmlns="http://www.w3.org/2000/svg" xmlns:xlink="http://www.w3.org/1999/xlink" viewBox="0 0 26.5332 27.002">
 <g>
  <rect height="27.002" opacity="0" width="26.5332" x="0" y="0"/>
  <path d="M24.1602 2.86133C21.1621-0.136719 15.9766 0.253906 12.4902 3.75C10.4297 5.80078 9.58008 8.37891 9.58008 10.8301C9.59961 14.4922 9.16992 16.6504 5.78125 20.0391L6.99219 21.25C10.3711 17.8711 12.4805 17.5195 16.1621 17.4414C18.6719 17.3926 21.1914 16.6016 23.2715 14.541C26.7676 11.0254 27.1582 5.85938 24.1602 2.86133ZM23.0078 4.01367C25.4785 6.49414 25.1953 10.3223 22.1191 13.3789C19.0332 16.4551 15.2148 16.7578 12.7441 14.2773C10.2539 11.8164 10.5469 7.98828 13.6328 4.91211C16.709 1.83594 20.5371 1.54297 23.0078 4.01367ZM11.5918 15.4395C11.9727 15.8496 12.4414 16.1719 12.9199 16.4551C11.5332 16.6699 10.2637 17.1484 8.82812 18.1934C9.88281 16.7773 10.3516 15.4883 10.5664 14.1113C10.8301 14.5898 11.1816 15.0391 11.5918 15.4395ZM0.380859 25.791L1.21094 26.6211C1.72852 27.1289 2.49023 27.1289 2.99805 26.6211L7.7832 21.8262C8.30078 21.3086 8.30078 20.5469 7.7832 20.0293L6.96289 19.209C6.44531 18.7012 5.68359 18.7012 5.16602 19.209L0.380859 24.0039C-0.126953 24.5117-0.126953 25.2637 0.380859 25.791ZM10.3809 10.6641L10.9766 11.2598L19.9805 2.24609L19.3945 1.65039ZM11.1133 13.5156L11.6992 14.1113L22.8418 2.97852L22.2559 2.37305ZM12.9004 15.3223L13.5059 15.918L24.6484 4.77539L24.0527 4.17969ZM15.7715 16.0449L16.3574 16.6406L25.3711 7.62695L24.7754 7.04102ZM18.6914 2.08008L24.8633 8.26172L25.459 7.66602L19.2773 1.49414ZM15.752 2.59766L24.4043 11.2695L25.0098 10.6738L16.3477 2.01172ZM13.8086 4.0625L22.9102 13.1836L23.5254 12.5879L14.4043 3.45703ZM12.1973 5.67383L21.2988 14.7949L21.9141 14.1992L12.7832 5.06836ZM10.7422 7.61719L19.3945 16.2695L19.9805 15.6836L11.3281 7.03125ZM10.1758 10.5078L16.4355 16.7676L17.041 16.1719L10.7812 9.91211Z" fill="black" fill-opacity="0.85"/>
 </g>
</svg>
