<?xml version="1.0" encoding="UTF-8"?>
<!--Generator: Apple Native CoreSVG 326-->
<!DOCTYPE svg
PUBLIC "-//W3C//DTD SVG 1.1//EN"
       "http://www.w3.org/Graphics/SVG/1.1/DTD/svg11.dtd">
<svg version="1.1" xmlns="http://www.w3.org/2000/svg" xmlns:xlink="http://www.w3.org/1999/xlink" viewBox="0 0 37.5781 25.7129">
 <g>
  <rect height="25.7129" opacity="0" width="37.5781" x="0" y="0"/>
  <path d="M7.40234 25.7129L29.8047 25.7129C31.2305 25.7129 31.6504 24.4629 31.084 23.3301L24.1309 9.36523L35.3809 25.1465C35.6445 25.5273 35.9863 25.6641 36.3086 25.6641C36.7773 25.6641 37.2168 25.3809 37.2168 24.7461L37.2168 21.0938C37.2168 20.6836 36.8848 20.3516 36.4746 20.3516C36.0742 20.3516 35.7422 20.6836 35.7422 21.0938L35.7422 23.1543L20 1.08398C19.2383 0.0390625 17.959 0.0488281 17.2168 1.08398L1.47461 23.1543L1.47461 21.0938C1.47461 20.6836 1.14258 20.3516 0.732422 20.3516C0.332031 20.3516 0 20.6836 0 21.0938L0 24.7461C0 25.3809 0.439453 25.6641 0.908203 25.6641C1.23047 25.6641 1.5625 25.5273 1.83594 25.1465L13.0859 9.36523L6.13281 23.3301C5.55664 24.4629 5.98633 25.7129 7.40234 25.7129ZM8.08594 24.0625C7.87109 24.0625 7.83203 23.877 7.90039 23.7305L18.3691 2.48047C18.4766 2.24609 18.7207 2.24609 18.8477 2.48047L29.3066 23.7305C29.3848 23.877 29.3359 24.0625 29.1309 24.0625ZM12.4707 24.3555L16.5918 24.3555L18.6035 15.3223L20.6152 24.3555L24.7266 24.3555L19.3066 12.7246C19.1504 12.4121 18.8867 12.2559 18.6035 12.2559C18.3203 12.2559 18.0469 12.4121 17.9004 12.7246Z" fill="black" fill-opacity="0.85"/>
 </g>
</svg>
