<?xml version="1.0" encoding="UTF-8"?>
<!--Generator: Apple Native CoreSVG 326-->
<!DOCTYPE svg
PUBLIC "-//W3C//DTD SVG 1.1//EN"
       "http://www.w3.org/Graphics/SVG/1.1/DTD/svg11.dtd">
<svg version="1.1" xmlns="http://www.w3.org/2000/svg" xmlns:xlink="http://www.w3.org/1999/xlink" viewBox="0 0 36.2241 25.7324">
 <g>
  <rect height="25.7324" opacity="0" width="36.2241" x="0" y="0"/>
  <path d="M10.7927 3.45703L15.6807 13.2689L14.762 15.1119L9.61106 4.75586C9.58176 4.70703 9.53294 4.66797 9.49387 4.66797C9.44505 4.66797 9.40598 4.70703 9.37669 4.75586L1.94505 19.6973C1.89622 19.8047 1.91575 19.9023 2.06223 19.9023L5.02122 19.9023L8.9763 11.4648C9.08372 11.2305 9.27903 11.1133 9.49387 11.1133C9.70872 11.1133 9.89426 11.2305 10.0115 11.4648L13.1948 18.2561L11.5516 21.5527L1.32005 21.5527C0.118874 21.5527-0.281516 20.4492 0.196999 19.4922L8.19505 3.45703C8.45872 2.92969 8.947 2.58789 9.49387 2.58789C10.031 2.58789 10.5193 2.92969 10.7927 3.45703ZM8.02401 19.9023L10.9548 19.9023L9.49387 13.4082Z" fill="black" fill-opacity="0.85"/>
  <path d="M11.9353 25.7324L34.3474 25.7324C35.7634 25.7324 36.1931 24.4824 35.6169 23.3496L24.6501 1.34766C24.3474 0.703125 23.7615 0.332031 23.1365 0.332031C22.5115 0.332031 21.9353 0.703125 21.6228 1.34766L10.656 23.3496C10.0896 24.4824 10.5193 25.7324 11.9353 25.7324ZM12.6189 24.0723C12.3259 24.0723 12.2575 23.8574 12.3747 23.6133L22.9314 2.42188C23.029 2.22656 23.2536 2.22656 23.3415 2.42188L33.9079 23.6133C34.0349 23.877 33.9763 24.0723 33.7224 24.0723ZM16.5935 24.8828L20.9392 24.8828L23.1365 15.1074L25.3435 24.8828L29.6794 24.8828L23.8591 12.4512C23.7029 12.1191 23.4294 11.9629 23.1365 11.9629C22.8435 11.9629 22.5798 12.1191 22.4138 12.4512Z" fill="black" fill-opacity="0.85"/>
 </g>
</svg>
