<?xml version="1.0" ?><!-- Generator: Adobe Illustrator 25.0.0, SVG Export Plug-In . SVG Version: 6.00 Build 0)  --><svg xmlns="http://www.w3.org/2000/svg" xmlns:xlink="http://www.w3.org/1999/xlink" version="1.1" id="Layer_1" x="0px" y="0px" viewBox="0 0 512 512" style="enable-background:new 0 0 512 512;" xml:space="preserve">
<path d="M186.1,105.6h-130v313.8c0,19.2,6,34.9,18.1,46.9c12.1,12.1,27.8,18.1,47.2,18.1c19.1,0,34.6-6,46.7-18.1  c12.1-12.1,18.1-27.7,18.1-46.9V105.6z M455.9,393.2H326.1v26.1c0,19.2,6,34.9,18.1,46.9c12.1,12.1,27.7,18.1,46.9,18.1  c19.2,0,34.8-6,46.8-18.1c12-12.1,18-27.7,18-46.9V393.2z" class="multicolor-0:systemBlueColor hierarchical-0:tertiary SFSymbolsPreview007AFF" style="fill: #007AFF;"/>
<path d="M391.1,512c27.9,0,50.3-8.5,67.3-25.4c17-16.9,25.5-39.3,25.5-67.2V20.5h-39.1v398.8c0,16.1-4.9,29.1-14.8,39  c-9.9,9.9-22.9,14.8-39,14.8c-16.1,0-29.2-4.9-39.1-14.8s-14.9-22.9-14.9-39V20.5h-39.3v398.8c0,27.9,8.6,50.3,25.7,67.2  C340.6,503.5,363.1,512,391.1,512z M296.3,41.1h189.4c5.5,0,10.3-2,14.4-6.1c4.1-4.1,6.1-9,6.1-14.7c0-5.5-2-10.3-6.1-14.3  c-4.1-4-8.9-6-14.4-6H296.3c-6.2,0-11.2,2-15,6c-3.8,4-5.7,8.8-5.7,14.3c0,5.7,1.9,10.6,5.7,14.7C285.1,39,290.1,41.1,296.3,41.1z   M121.3,512c27.9,0,50.3-8.5,67.2-25.4c16.9-16.9,25.4-39.3,25.4-67.2V20.5h-39.1v398.8c0,16.1-4.9,29.1-14.8,39  c-9.9,9.9-22.8,14.8-38.7,14.8c-16.3,0-29.4-4.9-39.2-14.8s-14.8-22.9-14.8-39V20.5H28v398.8c0,27.9,8.6,50.3,25.7,67.2  C70.8,503.5,93.3,512,121.3,512z M26.3,41.1h189.4c5.7,0,10.6-2,14.7-6.1c4.1-4.1,6.1-9,6.1-14.7c0-5.5-2-10.3-6.1-14.3  c-4.1-4-9-6-14.7-6H26.3c-6,0-11,2-14.8,6c-3.8,4-5.7,8.8-5.7,14.3c0,5.7,1.9,10.6,5.7,14.7C15.3,39,20.2,41.1,26.3,41.1z" class="multicolor-1:tertiaryLabelColor hierarchical-1:primary SFSymbolsPreviewBDBDBD" style="fill: #BDBDBD;"/>
<path d="M326.9,264.2h63.8c4.1,0,7.5-1.3,10.1-4c2.7-2.7,4-6.2,4-10.4c0-3.7-1.4-7-4.2-9.9c-2.8-2.9-6.1-4.3-10-4.3h-63.8V264.2z   M326.9,185h63.8c4.1,0,7.5-1.4,10.1-4.2c2.7-2.8,4-6.3,4-10.5c0-3.7-1.4-7-4.3-9.8c-2.9-2.8-6.2-4.2-10.1-4.2h-63.5V185z   M326.9,343.6h63.5c4.2,0,7.7-1.4,10.4-4.2c2.7-2.8,4-6.2,3.8-10.3c0-3.7-1.4-7-4.2-9.9c-2.8-2.9-6.1-4.3-10-4.3h-63.5V343.6z" class="multicolor-0:systemBlueColor multicolor-1:tertiaryLabelColor hierarchical-1:primary SFSymbolsPreviewBDBDBD" style="fill: #BDBDBD;"/>
<path d="M67.3,264.2v-28.6h53.3c3.9,0,7.3,1.4,10.1,4.3c2.9,2.9,4.3,6.2,4.3,9.9c0,4.2-1.4,7.7-4.2,10.4c-2.8,2.7-6.2,4-10.3,4H67.3  z M67.3,185v-28.6h53c3.9,0,7.3,1.4,10.3,4.2c2.9,2.8,4.4,6,4.4,9.8c0,4.2-1.4,7.7-4.2,10.5c-2.8,2.8-6.2,4.2-10.3,4.2H67.3z   M67.3,343.6V315h53c3.9,0,7.3,1.4,10.1,4.3c2.9,2.9,4.3,6.2,4.3,9.9c0.2,4.1-1.1,7.5-3.8,10.3c-2.7,2.8-6.2,4.2-10.6,4.2H67.3z" class="multicolor-2:white hierarchical-1:primary SFSymbolsPreviewFFFFFFo40" style="fill: #FFFFFFo40;"/>
</svg>