<?xml version="1.0" ?><!-- Generator: Adobe Illustrator 25.0.0, SVG Export Plug-In . SVG Version: 6.00 Build 0)  --><svg xmlns="http://www.w3.org/2000/svg" xmlns:xlink="http://www.w3.org/1999/xlink" version="1.1" id="Layer_1" x="0px" y="0px" viewBox="0 0 512 512" style="enable-background:new 0 0 512 512;" xml:space="preserve">
<path d="M19.1,75.6h473.4c10.7,0,19.6-8.4,19.6-19.3c0-10.7-8.9-19.1-19.6-19.1H19.1C8.4,37.2,0,45.6,0,56.3  C0,67.2,8.4,75.6,19.1,75.6z M19.1,208.7h473.4c10.7,0,19.6-8.4,19.6-19.3c0-10.7-8.9-19.1-19.6-19.1H19.1  C8.4,170.4,0,178.8,0,189.4C0,200.4,8.4,208.7,19.1,208.7z M19.1,341.9h473.4c10.7,0,19.6-8.6,19.6-19.3c0-10.7-8.9-19.1-19.6-19.1  H19.1C8.4,303.5,0,311.9,0,322.6C0,333.2,8.4,341.9,19.1,341.9z M19.1,474.8h271.9c10.7,0,19.3-8.4,19.3-19.1s-8.6-19.3-19.3-19.3  H19.1C8.4,436.4,0,445,0,455.7S8.4,474.8,19.1,474.8z"/>
</svg>