<?xml version="1.0" encoding="UTF-8"?>
<!--Generator: Apple Native CoreSVG 326-->
<!DOCTYPE svg
PUBLIC "-//W3C//DTD SVG 1.1//EN"
       "http://www.w3.org/Graphics/SVG/1.1/DTD/svg11.dtd">
<svg version="1.1" xmlns="http://www.w3.org/2000/svg" xmlns:xlink="http://www.w3.org/1999/xlink" viewBox="0 0 42.2363 18.6035">
 <g>
  <rect height="18.6035" opacity="0" width="42.2363" x="0" y="0"/>
  <path d="M36.5527 18.6035C38.9844 18.6035 41.0645 17.2461 41.7676 15.293C41.8457 15.0977 41.875 14.8926 41.875 14.7266C41.875 14.2773 41.543 13.9453 41.084 13.9453C40.6738 13.9453 40.4688 14.1211 40.2344 14.5801C39.5996 16.1523 38.3398 17.0215 36.5625 17.0215C33.9844 17.0215 32.334 15.0195 32.334 11.7676C32.334 8.52539 34.0039 6.49414 36.5527 6.49414C38.2617 6.49414 39.5605 7.34375 40.1953 8.95508C40.4199 9.39453 40.6445 9.56055 41.0352 9.56055C41.5039 9.56055 41.8359 9.25781 41.8359 8.79883C41.8359 8.65234 41.7969 8.4668 41.7578 8.32031C41.123 6.33789 39.0137 4.91211 36.5137 4.91211C32.8516 4.91211 30.4785 7.62695 30.4785 11.7871C30.4785 15.9473 32.8809 18.6035 36.5527 18.6035Z" fill="black" fill-opacity="0.85"/>
  <path d="M17.8516 18.584C18.3594 18.584 18.7402 18.2422 18.7402 17.666L18.7402 15.4492L18.7695 15.4492C19.4629 17.373 21.2012 18.6035 23.3594 18.6035C26.7188 18.6035 28.9746 15.8691 28.9746 11.7578C28.9746 7.63672 26.709 4.91211 23.3789 4.91211C21.25 4.91211 19.5117 6.14258 18.8086 8.04688L18.7793 8.04688L18.7793 1.17188C18.7793 0.585938 18.418 0.205078 17.8711 0.205078C17.3438 0.205078 16.9727 0.585938 16.9727 1.17188L16.9727 17.666C16.9727 18.252 17.3242 18.584 17.8516 18.584ZM22.9883 17.0215C20.5273 17.0215 18.7988 14.9219 18.7988 11.7676C18.7988 8.61328 20.5371 6.50391 22.9883 6.50391C25.5078 6.50391 27.1094 8.55469 27.1094 11.7578C27.1094 14.9805 25.498 17.0215 22.9883 17.0215Z" fill="black" fill-opacity="0.85"/>
  <path d="M0.878906 18.584C1.2793 18.584 1.66992 18.3496 1.86523 17.793L3.67188 12.9102L11.416 12.9102L13.2227 17.793C13.4277 18.3594 13.7988 18.584 14.1992 18.584C14.668 18.584 15.1074 18.252 15.1074 17.7246C15.1074 17.5488 15.0684 17.3828 14.9902 17.1582L8.84766 0.996094C8.62305 0.371094 8.21289 0.0488281 7.54883 0.0488281C6.89453 0.0488281 6.48438 0.361328 6.25977 0.986328L0.117188 17.168C0.0390625 17.3926 0 17.5586 0 17.7344C0 18.2715 0.419922 18.584 0.878906 18.584ZM4.16992 11.3672L7.4707 2.39258L7.59766 2.39258L10.9082 11.3672Z" fill="black" fill-opacity="0.85"/>
 </g>
</svg>
