<?xml version="1.0" ?><!-- Generator: Adobe Illustrator 25.0.0, SVG Export Plug-In . SVG Version: 6.00 Build 0)  --><svg xmlns="http://www.w3.org/2000/svg" xmlns:xlink="http://www.w3.org/1999/xlink" version="1.1" id="Layer_1" x="0px" y="0px" viewBox="0 0 512 512" style="enable-background:new 0 0 512 512;" xml:space="preserve">
<path d="M0,388.6c0,44.9,22.8,67.3,68.2,67.3h375.6c45.6,0,68.2-22.6,68.2-67.3V123.4c0-44.7-22.6-67.3-68.2-67.3H68.2  C22.8,56.1,0,78.5,0,123.4V388.6z M68.8,130.2c-10.6,0-19.3-9.1-19.3-19.3c0-10.2,8.7-19.3,19.3-19.3s19.5,9.1,19.5,19.3  C88.4,121.1,79.5,130.2,68.8,130.2z M131.1,130.2c-10.6,0-19.3-9.1-19.3-19.3c0-10.2,8.7-19.3,19.3-19.3c10.6,0,19.5,9.1,19.5,19.3  C150.7,121.1,141.8,130.2,131.1,130.2z M193.5,130.2c-10.6,0-19.3-9.1-19.3-19.3c0-10.2,8.7-19.3,19.3-19.3  c10.6,0,19.3,9.1,19.3,19.3C212.8,121.1,204.1,130.2,193.5,130.2z M35,386.8V165.6H477v221.3c0,22.6-12.2,34.1-33.7,34.1H68.6  C46.9,420.9,35,409.4,35,386.8z M411.3,362.7c18.2,0,30.2-12.2,30.2-30.4c0-17.8-11.9-29.7-30.2-29.7h-10.9v-23h10.9  c18.2,0,30.2-11.7,30.2-29.5c0-18.2-11.9-30.4-30.2-30.4c-18,0-29.7,12.2-29.7,30.4v10.9h-22.4V250c0-18.2-11.7-30.4-29.7-30.4  c-18.2,0-30.2,12.2-30.2,30.4c0,17.8,11.9,29.5,30.2,29.5H340v23h-10.6c-18.2,0-30.2,11.9-30.2,29.7c0,18.2,11.9,30.4,30.2,30.4  c18,0,29.7-12.2,29.7-30.4v-10.6h22.4v10.6C381.5,350.6,393.2,362.7,411.3,362.7z M84.5,237.7c0,7.2,5.9,12.8,12.8,12.8h132.5  c6.9,0,12.6-5.6,12.6-12.8c0-7.2-5.6-13-12.6-13H97.3C90.3,224.6,84.5,230.5,84.5,237.7z M400.4,260.9V250c0-6.9,4.3-11.5,10.9-11.5  c6.9,0,11.3,4.6,11.3,11.5c0,6.5-4.3,10.9-11.3,10.9H400.4z M340,260.9h-10.6c-6.9,0-11.3-4.3-11.3-10.9c0-6.9,4.3-11.5,11.3-11.5  c6.3,0,10.6,4.6,10.6,11.5V260.9z M84.5,291.3c0,7.2,5.9,13,12.8,13h132.5c6.9,0,12.6-5.9,12.6-13c0-7.2-5.6-12.8-12.6-12.8H97.3  C90.3,278.5,84.5,284.1,84.5,291.3z M381.5,303h-22.4v-23.5h22.4V303z M400.4,321.2h10.9c6.9,0,11.3,4.6,11.3,11.1  c0,6.9-4.3,11.5-11.3,11.5c-6.5,0-10.9-4.6-10.9-11.5V321.2z M340,321.2v11.1c0,6.5-4.6,11.5-10.6,11.5c-6.9,0-11.3-4.6-11.3-11.5  c0-6.5,4.3-11.1,11.3-11.1H340z M84.5,345.1c0,7.2,5.9,12.8,12.8,12.8h132.5c6.9,0,12.6-5.6,12.6-12.8c0-7.4-5.6-13-12.6-13H97.3  C90.3,332.1,84.5,337.8,84.5,345.1z"/>
</svg>