<?xml version="1.0" ?><!-- Generator: Adobe Illustrator 25.0.0, SVG Export Plug-In . SVG Version: 6.00 Build 0)  --><svg xmlns="http://www.w3.org/2000/svg" xmlns:xlink="http://www.w3.org/1999/xlink" version="1.1" id="Layer_1" x="0px" y="0px" viewBox="0 0 512 512" style="enable-background:new 0 0 512 512;" xml:space="preserve">
<path d="M238.3,281.8c1,0,1.8-0.3,2.5-0.8c0.7-0.5,1.2-1.4,1.6-2.6l4.1-12h19.1l4.1,12c0.4,1.2,0.9,2.1,1.6,2.6  c0.7,0.5,1.5,0.8,2.5,0.8c1.2,0,2.2-0.3,3-1c0.7-0.7,1.1-1.6,1.1-2.7c0-0.5-0.1-1-0.2-1.4c-0.1-0.5-0.3-1-0.5-1.5L262,234.8  c-0.6-1.5-1.3-2.6-2.4-3.4c-1-0.8-2.3-1.1-3.7-1.1c-1.4,0-2.6,0.4-3.6,1.1c-1,0.7-1.8,1.9-2.4,3.4l-15.2,40.3  c-0.2,0.5-0.3,0.9-0.4,1.4c-0.1,0.5-0.1,1-0.1,1.5c0,1.1,0.4,2,1.1,2.7C236,281.4,237,281.8,238.3,281.8z M248.6,260l6.8-20.4h1.1  l6.8,20.4H248.6z"/>
</svg>