<?xml version="1.0" ?><!-- Generator: Adobe Illustrator 25.0.0, SVG Export Plug-In . SVG Version: 6.00 Build 0)  --><svg xmlns="http://www.w3.org/2000/svg" xmlns:xlink="http://www.w3.org/1999/xlink" version="1.1" id="Layer_1" x="0px" y="0px" viewBox="0 0 512 512" style="enable-background:new 0 0 512 512;" xml:space="preserve">
<path d="M19.1,75.6h473.4c10.7,0,19.6-8.4,19.6-19.3c0-10.7-8.9-19.1-19.6-19.1H19.1C8.4,37.2,0,45.6,0,56.3  C0,67.2,8.4,75.6,19.1,75.6z M32,230.6h447.7c21.3,0,32.3-10.4,32.3-31.8v-19.1c0-20.8-10.9-31.5-32.3-31.5H32  c-21.3,0-32,10.7-32,31.5v19.1C0,220.2,10.7,230.6,32,230.6z M32,363.7h189.8c21.3,0,32-10.4,32-31.8v-19.1  c0-20.8-10.7-31.5-32-31.5H32c-21.3,0-32,10.7-32,31.5V332C0,353.3,10.7,363.7,32,363.7z M307.7,341.9h184.7  c10.7,0,19.6-8.6,19.6-19.3c0-10.7-8.9-19.1-19.6-19.1H307.7c-10.7,0-19.1,8.4-19.1,19.1C288.7,333.2,297,341.9,307.7,341.9z   M19.1,474.8h473.4c10.7,0,19.6-8.4,19.6-19.1s-8.9-19.3-19.6-19.3H19.1C8.4,436.4,0,445,0,455.7S8.4,474.8,19.1,474.8z"/>
</svg>