<?xml version="1.0" encoding="UTF-8"?>
<!--Generator: Apple Native CoreSVG 326-->
<!DOCTYPE svg
PUBLIC "-//W3C//DTD SVG 1.1//EN"
       "http://www.w3.org/Graphics/SVG/1.1/DTD/svg11.dtd">
<svg version="1.1" xmlns="http://www.w3.org/2000/svg" xmlns:xlink="http://www.w3.org/1999/xlink" viewBox="0 0 23.8379 18.7012">
 <g>
  <rect height="18.7012" opacity="0" width="23.8379" x="0" y="0"/>
  <path d="M11.9434 18.418L22.5879 18.418C23.1348 18.418 23.4766 18.0762 23.4766 17.5586C23.4766 17.041 23.1348 16.6992 22.5879 16.6992L13.7012 16.6992L13.7012 16.6406L18.8672 11.4648C21.8555 8.48633 22.7832 7.00195 22.7832 5.07812C22.7832 2.20703 20.2734 0 16.9141 0C14.2969 0 12.0508 1.40625 11.2793 3.57422C11.1133 4.02344 11.0352 4.43359 11.0352 4.76562C11.0352 5.3125 11.3477 5.67383 11.8848 5.67383C12.3828 5.67383 12.6074 5.42969 12.7637 4.89258C12.8516 4.49219 12.9688 4.11133 13.1738 3.7793C13.8379 2.53906 15.166 1.69922 16.9141 1.69922C19.0918 1.69922 20.8301 3.25195 20.8301 5.18555C20.8301 6.67969 20.166 7.71484 17.5879 10.3223L11.5918 16.4062C11.1426 16.8555 10.9961 17.1289 10.9961 17.5195C10.9961 18.0762 11.377 18.418 11.9434 18.418Z" fill="black" fill-opacity="0.85"/>
  <path d="M6.24023 18.6035C6.83594 18.6035 7.2168 18.2324 7.2168 17.6367L7.2168 1.14258C7.2168 0.458984 6.78711 0.078125 6.12305 0.078125C5.64453 0.078125 5.37109 0.214844 4.92188 0.507812L0.556641 3.29102C0.146484 3.57422 0 3.81836 0 4.16992C0 4.61914 0.322266 4.94141 0.800781 4.94141C1.08398 4.94141 1.23047 4.86328 1.42578 4.73633L5.25391 2.35352L5.29297 2.35352L5.29297 17.6367C5.29297 18.2324 5.6543 18.6035 6.24023 18.6035Z" fill="black" fill-opacity="0.85"/>
 </g>
</svg>
