<?xml version="1.0" ?><!-- Generator: Adobe Illustrator 25.0.0, SVG Export Plug-In . SVG Version: 6.00 Build 0)  --><svg xmlns="http://www.w3.org/2000/svg" xmlns:xlink="http://www.w3.org/1999/xlink" version="1.1" id="Layer_1" x="0px" y="0px" viewBox="0 0 512 512" style="enable-background:new 0 0 512 512;" xml:space="preserve">
<path d="M188.4,324.8c7.8,0,13.5-5.4,13.5-13.7v-23.4h0.5c10.6,22.9,31.9,37.3,58.7,37.3c44.4,0,73.7-35.3,73.7-89.8  c0-54.5-29.4-89.8-73.4-89.8c-26.4,0-47.8,14.5-57.9,37.1h-0.8V99.3c0-8.8-5.5-14.5-13.7-14.5c-8.3,0-13.8,5.7-13.8,14.5v211.8  C175.2,319.6,180.6,324.8,188.4,324.8z M433.7,325c31.9,0,59.4-17.6,68.7-42.5c0.8-2.8,1.5-5.4,1.5-7.6c0-7-5-11.9-11.9-11.9  c-6.2,0-9.3,2.4-13,9.6c-8.5,18.5-23.1,28.6-45.1,28.6c-31.9,0-52.7-25.2-52.7-65.9c0-40.3,21-66.2,52.7-66.2c21,0,36.1,9.9,44.7,29  c3.6,6.8,6.8,9.3,12.9,9.3c7,0,11.9-4.6,11.9-11.7c0-2-0.6-4.4-1.1-6.5c-8.1-24.9-36-43.8-69-43.8c-48.5,0-80.2,35.6-80.2,90.1  C353,290.3,385.1,325,433.7,325z M57.9,324.8c24.9,0,48.2-13.5,58.1-34.3h0.5v21.2c0.3,8,5.5,13.3,13.2,13.3c8,0,13.3-5.4,13.3-14  V203.3c0-35.1-25.9-57.8-66.7-57.8c-30.6,0-55.6,13.3-65.1,34c-1.8,4.1-2.9,8-2.9,11.4c0,7.2,5.2,11.7,12.2,11.7  c5,0,8.9-1.8,11.4-6.3c8.9-18.7,22.8-27.3,43.6-27.3c25.2,0,40,14,40,36.6v13.7l-51.9,2.9C22.8,224.9,0,243.3,0,273.2  C0,304.3,23.8,324.8,57.9,324.8z M255.1,301.2c-30.7,0-52.4-26.2-52.4-65.9c0-39.9,21.8-66.1,52.4-66.1c31.6,0,51.4,25.5,51.4,65.9  C306.5,275.8,286.5,301.2,255.1,301.2z M64.6,302.2c-21.8,0-36.4-11.9-36.4-29.4c0-17.1,13.7-28.3,38.9-30.1l48.5-3.1v16.9  C115.5,282.2,92.9,302.2,64.6,302.2z M27.7,427.2c10.9,0,19.5-8.8,19.5-19.5c0-10.7-8.6-19.5-19.5-19.5c-10.7,0-19.5,8.8-19.5,19.5  C8.1,418.4,16.9,427.2,27.7,427.2z M105.3,427.2c10.9,0,19.7-8.8,19.7-19.5c0-10.7-8.8-19.5-19.7-19.5c-10.7,0-19.5,8.8-19.5,19.5  C85.7,418.4,94.5,427.2,105.3,427.2z M182.7,427.2c10.9,0,19.5-8.8,19.5-19.5c0-10.7-8.6-19.5-19.5-19.5c-10.7,0-19.5,8.8-19.5,19.5  C163.2,418.4,172,427.2,182.7,427.2z M260.1,427.2c10.9,0,19.5-8.8,19.5-19.5c0-10.7-8.6-19.5-19.5-19.5c-10.7,0-19.5,8.8-19.5,19.5  C240.6,418.4,249.4,427.2,260.1,427.2z M337.6,427.2c10.9,0,19.5-8.8,19.5-19.5c0-10.7-8.6-19.5-19.5-19.5  c-10.7,0-19.5,8.8-19.5,19.5C318.1,418.4,326.9,427.2,337.6,427.2z M415,427.2c10.7,0,19.5-8.8,19.5-19.5c0-10.7-8.8-19.5-19.5-19.5  c-10.7,0-19.5,8.8-19.5,19.5C395.5,418.4,404.3,427.2,415,427.2z M492.5,427.2c10.7,0,19.5-8.8,19.5-19.5c0-10.7-8.8-19.5-19.5-19.5  c-10.7,0-19.5,8.8-19.5,19.5C473,418.4,481.7,427.2,492.5,427.2z"/>
</svg>