<?xml version="1.0" ?><!-- Generator: Adobe Illustrator 25.0.0, SVG Export Plug-In . SVG Version: 6.00 Build 0)  --><svg xmlns="http://www.w3.org/2000/svg" xmlns:xlink="http://www.w3.org/1999/xlink" version="1.1" id="Layer_1" x="0px" y="0px" viewBox="0 0 512 512" style="enable-background:new 0 0 512 512;" xml:space="preserve">
<path d="M18.8,419.6c11.8,0,17.6-4.5,21.9-16.8l28.8-79.1h131.8l28.8,79.1c4.2,12.3,10.1,16.8,21.7,16.8c11.8,0,19.4-7.1,19.4-18.3  c0-3.8-0.7-7.1-2.5-12.1L164,110.5c-5.1-13.8-14.3-20.6-28.6-20.6c-13.8,0-23.2,6.7-28.1,20.3L2.5,389.5c-1.8,4.9-2.5,8.3-2.5,12.1  C0,412.7,7.1,419.6,18.8,419.6z M80.4,290.1l54.3-150.3h1.1l54.3,150.3H80.4z M394.3,421.9c34.4,0,66.6-18.8,80.4-47.8h0.9v29.5  c0,11.2,7.6,18.5,18.1,18.5c10.7,0,18.3-7.4,18.3-19.4v-149c0-48.7-35.7-80.2-92.5-80.2c-42,0-77.1,18.5-89.8,47.4  c-2.5,5.6-4.2,10.9-4.2,15.6c0,9.8,7.4,16.3,17,16.3c6.9,0,12.3-2.7,15.6-8.9c12.5-25.9,31.5-38,60.5-38c34.8,0,55.6,19.4,55.6,50.7  v19.2l-72.2,4c-56.5,3.1-88,29.3-88,70.8C314.1,393.3,346.9,421.9,394.3,421.9z M403.4,390.8c-30.2,0-50.7-16.5-50.7-41.1  c0-23.7,19-39.5,54.1-41.8l67.5-4.2v23.7C474.2,362.9,442.8,390.8,403.4,390.8z"/>
</svg>