<?xml version="1.0" encoding="UTF-8"?>
<!--Generator: Apple Native CoreSVG 326-->
<!DOCTYPE svg
PUBLIC "-//W3C//DTD SVG 1.1//EN"
       "http://www.w3.org/Graphics/SVG/1.1/DTD/svg11.dtd">
<svg version="1.1" xmlns="http://www.w3.org/2000/svg" xmlns:xlink="http://www.w3.org/1999/xlink" viewBox="0 0 26.2402 31.9238">
 <g>
  <rect height="31.9238" opacity="0" width="26.2402" x="0" y="0"/>
  <path d="M17.5 31.1133C17.5 31.5723 17.1387 31.9238 16.6797 31.9238L0.820312 31.9238C0.351562 31.9238 0 31.5723 0 31.1133C0 30.6543 0.351562 30.293 0.820312 30.293L16.6797 30.293C17.1387 30.293 17.5 30.6543 17.5 31.1133ZM25.8789 25.2246C25.8789 25.6836 25.5176 26.0352 25.0586 26.0352L0.820312 26.0352C0.351562 26.0352 0 25.6836 0 25.2246C0 24.7656 0.351562 24.4043 0.820312 24.4043L25.0586 24.4043C25.5176 24.4043 25.8789 24.7656 25.8789 25.2246Z" fill="black" fill-opacity="0.85"/>
  <path d="M25.8789 3.36914L25.8789 16.8066C25.8789 19.0137 24.7461 20.1367 22.5098 20.1367L3.36914 20.1367C1.14258 20.1367 0 19.0137 0 16.8066L0 3.36914C0 1.17188 1.14258 0.0195312 3.36914 0.0195312L22.5098 0.0195312C24.7461 0.0195312 25.8789 1.16211 25.8789 3.36914ZM15.5664 10.3223L10.2734 14.9902L8.18359 13.0957C7.69531 12.6465 7.13867 12.4121 6.5918 12.4121C6.11328 12.4121 5.57617 12.6367 5.07812 13.0762L1.64062 16.1816L1.64062 16.6895C1.64062 17.832 2.31445 18.5059 3.45703 18.5059L22.4805 18.5059C23.6035 18.5059 24.2871 17.832 24.2871 16.709L24.2871 15.1465L19.1699 10.332C18.6426 9.84375 17.9785 9.59961 17.373 9.59961C16.748 9.59961 16.123 9.83398 15.5664 10.3223ZM5.37109 7.60742C5.37109 9.0918 6.58203 10.3125 8.06641 10.3125C9.54102 10.3125 10.752 9.0918 10.752 7.60742C10.752 6.13281 9.54102 4.91211 8.06641 4.91211C6.58203 4.91211 5.37109 6.13281 5.37109 7.60742Z" fill="black" fill-opacity="0.85"/>
 </g>
</svg>
