<?xml version="1.0" ?><!-- Generator: Adobe Illustrator 25.0.0, SVG Export Plug-In . SVG Version: 6.00 Build 0)  --><svg xmlns="http://www.w3.org/2000/svg" xmlns:xlink="http://www.w3.org/1999/xlink" version="1.1" id="Layer_1" x="0px" y="0px" viewBox="0 0 512 512" style="enable-background:new 0 0 512 512;" xml:space="preserve">
<path d="M19.1,37.2C8.4,37.2,0,45.6,0,56.3s8.4,19.3,19.1,19.3h473.4c10.7,0,19.6-8.6,19.6-19.3s-8.9-19.1-19.6-19.1H19.1z   M19.1,170.1C8.4,170.1,0,178.8,0,189.4c0,10.7,8.4,19.1,19.1,19.1h473.4c10.7,0,19.6-8.4,19.6-19.1c0-10.7-8.9-19.3-19.6-19.3H19.1  z M0.3,301v57.4c0,36.1,25.4,58.2,61.2,58.2h75V443c0,20.6,19.6,28.5,35.6,15.5l68.9-55.1c10.4-8.1,10.4-22.6,0-31L172,317.5  c-15.5-12.2-35.6-4.6-35.6,15.5v25.4H67.1c-5.8,0-8.6-3.3-8.6-8.9V301c0-20.6-10.7-33.5-29.2-33.5C10.7,267.4,0.3,280.4,0.3,301z   M318.6,303.3c-10.7,0-19.1,8.4-19.1,19.3c0,10.7,8.4,19.1,19.1,19.1h173.8c10.7,0,19.6-8.4,19.6-19.1c0-10.9-8.9-19.3-19.6-19.3  H318.6z M318.6,436.4c-10.7,0-19.1,8.4-19.1,19.3c0,10.7,8.4,19.1,19.1,19.1h173.8c10.7,0,19.6-8.4,19.6-19.1  c0-10.9-8.9-19.3-19.6-19.3H318.6z"/>
</svg>