<?xml version="1.0" encoding="UTF-8"?>
<!--Generator: Apple Native CoreSVG 326-->
<!DOCTYPE svg
PUBLIC "-//W3C//DTD SVG 1.1//EN"
       "http://www.w3.org/Graphics/SVG/1.1/DTD/svg11.dtd">
<svg version="1.1" xmlns="http://www.w3.org/2000/svg" xmlns:xlink="http://www.w3.org/1999/xlink" viewBox="0 0 21.3281 26.9238">
 <g>
  <rect height="26.9238" opacity="0" width="21.3281" x="0" y="0"/>
  <path d="M5.48828 16.8848C5.04883 16.8848 4.73633 16.5723 4.73633 16.1621C4.73633 15.7617 5.04883 15.4492 5.48828 15.4492L15.5273 15.4492C15.9473 15.4492 16.2695 15.7617 16.2695 16.1621C16.2695 16.5723 15.9473 16.8848 15.5273 16.8848ZM5.48828 21.5918C5.04883 21.5918 4.73633 21.2793 4.73633 20.8691C4.73633 20.4688 5.04883 20.1562 5.48828 20.1562L15.5273 20.1562C15.9473 20.1562 16.2695 20.4688 16.2695 20.8691C16.2695 21.2793 15.9473 21.5918 15.5273 21.5918ZM3.75977 26.9238L17.207 26.9238C19.707 26.9238 20.9668 25.6348 20.9668 23.125L20.9668 11.4062L11.9141 11.4062C10.3906 11.4062 9.66797 10.6738 9.66797 9.15039L9.66797 0.00976562L3.75977 0.00976562C1.2793 0.00976562 0 1.28906 0 3.80859L0 23.125C0 25.6445 1.25977 26.9238 3.75977 26.9238ZM11.9727 9.84375L20.8105 9.84375C20.7324 9.38477 20.4004 8.94531 19.8828 8.42773L12.6465 1.09375C12.1484 0.576172 11.6797 0.234375 11.2305 0.15625L11.2305 9.10156C11.2305 9.59961 11.4746 9.84375 11.9727 9.84375Z" fill="black" fill-opacity="0.85"/>
 </g>
</svg>
