<?xml version="1.0" ?><!-- Generator: Adobe Illustrator 25.0.0, SVG Export Plug-In . SVG Version: 6.00 Build 0)  --><svg xmlns="http://www.w3.org/2000/svg" xmlns:xlink="http://www.w3.org/1999/xlink" version="1.1" id="Layer_1" x="0px" y="0px" viewBox="0 0 512 512" style="enable-background:new 0 0 512 512;" xml:space="preserve">
<path d="M105.2,323.3h301.6c37.4,0,55.9-18.3,55.9-54.9V55.3c0-36.6-18.5-55.3-55.9-55.3H105.2c-37,0-55.9,18.9-55.9,55.3v213.2  C49.3,304.8,68,323.3,105.2,323.3z M340.1,161.4c-7.8-7-17.1-10.6-26.5-10.6c-9.4,0-17.9,3.4-26.1,10.4l-78.8,70.5l-32.2-29.3  c-7.2-6.6-15.3-10-23.9-10c-7.6,0-14.9,3.4-22.3,10l-50.6,45.8V56.9c0-17.1,9-26.5,25.9-26.5h301c16.7,0,25.7,9.2,25.7,26.5v191.3  L340.1,161.4z M180.1,163.4c22.5,0,41.2-18.7,41.2-41.4c0-22.5-18.7-41-41.2-41c-22.7,0-41,18.5-41,41  C139.2,144.7,157.4,163.4,180.1,163.4z M64.4,417.8h383c8.4,0,15.3-6.6,15.3-15.3c0-8.4-6.8-15.1-15.3-15.1h-383  c-8.4,0-15.1,6.6-15.1,15.1C49.3,411.1,56,417.8,64.4,417.8z M64.4,512h247.8c8.4,0,15.3-6.6,15.3-15.1c0-8.4-6.8-15.3-15.3-15.3  H64.4c-8.4,0-15.1,6.8-15.1,15.3C49.3,505.4,56,512,64.4,512z"/>
</svg>