<?xml version="1.0" ?><!-- Generator: Adobe Illustrator 25.0.0, SVG Export Plug-In . SVG Version: 6.00 Build 0)  --><svg xmlns="http://www.w3.org/2000/svg" xmlns:xlink="http://www.w3.org/1999/xlink" version="1.1" id="Layer_1" x="0px" y="0px" viewBox="0 0 512 512" style="enable-background:new 0 0 512 512;" xml:space="preserve">
<path d="M75.6,64.2c-43.3,0-65.2,21.5-65.2,64.6v51.1c0,10.8,6,17.1,16.7,17.1c10.6,0,16.9-6.3,16.9-17.1v-49.4  c0-21.7,11.5-32.7,32.3-32.7h359.7c20.4,0,32.3,11,32.3,32.7v49.4c0,10.8,6,17.1,16.7,17.1c11,0,16.9-6.3,16.9-17.1v-51.1  c0-42.9-21.7-64.6-65.4-64.6H75.6z M255.7,352c10.8,0,16.9-7.3,16.9-18.8V186.9h51.7c8.1,0,14-5.4,14-13.8c0-8.5-5.8-13.5-14-13.5  H188c-7.9,0-14,5-14,13.5c0,8.3,6,13.8,14,13.8h51.3v146.3C239.2,344.3,244.9,352,255.7,352z M27.1,277.8c15,0,27.1-12.3,27.1-27.3  c0-14.8-12.1-26.9-27.1-26.9C12.3,223.6,0,235.7,0,250.5C0,265.5,12.3,277.8,27.1,277.8z M484.9,277.8c14.8,0,27.1-12.3,27.1-27.3  c0-14.8-12.3-26.9-27.1-26.9c-15,0-27.1,11.9-27.1,26.9S469.9,277.8,484.9,277.8z M75.6,447.8h360.7c43.8,0,65.4-21.7,65.4-64.6  v-61.5c0-10.8-6-16.9-16.9-16.9c-10.8,0-16.7,6-16.7,16.9v59.8c0,21.7-11.9,32.7-32.3,32.7H76.3c-20.8,0-32.3-11-32.3-32.7v-59.8  c0-10.8-6.3-16.9-16.9-16.9c-10.6,0-16.7,6-16.7,16.9v61.5C10.4,426.4,32.3,447.8,75.6,447.8z"/>
</svg>