<?xml version="1.0" encoding="UTF-8"?>
<!--Generator: Apple Native CoreSVG 326-->
<!DOCTYPE svg
PUBLIC "-//W3C//DTD SVG 1.1//EN"
       "http://www.w3.org/Graphics/SVG/1.1/DTD/svg11.dtd">
<svg version="1.1" xmlns="http://www.w3.org/2000/svg" xmlns:xlink="http://www.w3.org/1999/xlink" viewBox="0 0 27.8711 27.2754">
 <g>
  <rect height="27.2754" opacity="0" width="27.8711" x="0" y="0"/>
  <path d="M7.42188 27.2754C7.95898 27.2754 8.33008 26.9922 8.96484 26.4258L13.3691 22.5488L22.002 22.5488C25.5371 22.5488 27.5098 20.5273 27.5098 17.0508L27.5098 7.08984C27.5098 3.60352 25.5371 1.58203 22.002 1.58203L5.50781 1.58203C1.96289 1.58203 0 3.59375 0 7.08984L0 17.0508C0 20.5469 1.96289 22.5488 5.50781 22.5488L6.24023 22.5488L6.24023 25.9082C6.24023 26.7383 6.66992 27.2754 7.42188 27.2754ZM7.85156 25.3125L7.85156 21.6406C7.85156 21.0449 7.62695 20.8203 7.04102 20.8203L5.51758 20.8203C2.99805 20.8203 1.72852 19.4727 1.72852 17.0312L1.72852 7.09961C1.72852 4.6582 2.99805 3.31055 5.51758 3.31055L21.9922 3.31055C24.4824 3.31055 25.7812 4.6582 25.7812 7.09961L25.7812 17.0312C25.7812 19.4727 24.4824 20.8203 21.9922 20.8203L13.3301 20.8203C12.7148 20.8203 12.3926 20.918 11.9629 21.3574Z" fill="black" fill-opacity="0.85"/>
  <path d="M7.12891 8.47656L20.0781 8.47656C20.4297 8.47656 20.7129 8.19336 20.7129 7.83203C20.7129 7.48047 20.4297 7.19727 20.0781 7.19727L7.12891 7.19727C6.77734 7.19727 6.49414 7.48047 6.49414 7.83203C6.49414 8.19336 6.77734 8.47656 7.12891 8.47656ZM7.12891 12.5781L20.0781 12.5781C20.4297 12.5781 20.7129 12.2949 20.7129 11.9336C20.7129 11.582 20.4297 11.2891 20.0781 11.2891L7.12891 11.2891C6.77734 11.2891 6.49414 11.582 6.49414 11.9336C6.49414 12.2949 6.77734 12.5781 7.12891 12.5781ZM7.12891 16.6895L15.5957 16.6895C15.9473 16.6895 16.2305 16.4062 16.2305 16.0449C16.2305 15.6836 15.9473 15.4004 15.5957 15.4004L7.12891 15.4004C6.77734 15.4004 6.49414 15.6836 6.49414 16.0449C6.49414 16.4062 6.77734 16.6895 7.12891 16.6895Z" fill="black" fill-opacity="0.85"/>
 </g>
</svg>
