<?xml version="1.0" encoding="UTF-8"?>
<!--Generator: Apple Native CoreSVG 326-->
<!DOCTYPE svg
PUBLIC "-//W3C//DTD SVG 1.1//EN"
       "http://www.w3.org/Graphics/SVG/1.1/DTD/svg11.dtd">
<svg version="1.1" xmlns="http://www.w3.org/2000/svg" xmlns:xlink="http://www.w3.org/1999/xlink" viewBox="0 0 25.8008 25.459">
 <g>
  <rect height="25.459" opacity="0" width="25.8008" x="0" y="0"/>
  <path d="M12.7148 25.4395C19.7363 25.4395 25.4395 19.7461 25.4395 12.7246C25.4395 5.70312 19.7363 0 12.7148 0C5.69336 0 0 5.70312 0 12.7246C0 19.7461 5.69336 25.4395 12.7148 25.4395ZM12.7148 23.623C6.68945 23.623 1.81641 18.75 1.81641 12.7246C1.81641 6.69922 6.68945 1.82617 12.7148 1.82617C18.7402 1.82617 23.6133 6.69922 23.6133 12.7246C23.6133 18.75 18.7402 23.623 12.7148 23.623Z" fill="black" fill-opacity="0.85"/>
  <path d="M11.1621 17.3242C13.8184 16.6016 14.9707 14.541 14.2188 11.7578L13.1738 7.91992C12.9102 6.94336 12.2754 6.5918 11.2988 6.8457L5.82031 8.30078C4.82422 8.56445 4.47266 9.18945 4.73633 10.1855L5.75195 14.043C6.48438 16.8066 8.50586 18.0176 11.1621 17.3242ZM10.6641 15.4297C9.51172 15.7324 8.38867 15.3418 7.79297 14.3848C7.68555 14.1992 7.7832 14.0527 7.99805 14.0723C8.82812 14.1406 9.66797 13.9941 10.2344 13.8379C10.8008 13.6914 11.6113 13.3984 12.2852 12.9199C12.4707 12.793 12.6465 12.8906 12.627 13.0957C12.5879 14.2285 11.8359 15.1172 10.6641 15.4297ZM7.90039 11.8262C7.5 11.9531 7.45117 12.207 7.27539 12.2363C7.1875 12.2656 7.08984 12.168 7.04102 12.0215C6.9043 11.543 7.19727 11.0449 7.67578 10.9375C8.14453 10.8105 8.61328 11.1035 8.75 11.543C8.79883 11.7188 8.75 11.8457 8.66211 11.875C8.4668 11.9238 8.27148 11.7285 7.90039 11.8262ZM11.2402 10.9375C10.8594 11.0254 10.7812 11.3086 10.625 11.3281C10.5371 11.3574 10.4395 11.25 10.3711 11.1035C10.2539 10.6543 10.5469 10.1465 11.0059 10.0195C11.4941 9.91211 11.9727 10.166 12.0801 10.6543C12.1484 10.8105 12.0703 10.9473 12.0117 10.9766C11.8164 11.0254 11.6211 10.8203 11.2402 10.9375ZM19.9121 9.74609L14.4434 8.27148C14.3457 8.24219 14.248 8.23242 14.1602 8.22266L15.0684 11.5234C15.3809 12.6953 15.3906 13.7793 15.1367 14.7266C15.2832 14.7461 15.4492 14.7656 15.5957 14.8047C16.5723 15.0488 17.2363 15.8105 17.2656 16.7188C17.2656 16.9336 17.0703 17.0312 16.9238 16.875C16.3965 16.3965 15.8789 16.1328 15.2832 15.9668C15.0781 15.9082 14.8535 15.8594 14.6484 15.8398C14.1992 16.6309 13.4961 17.2656 12.5879 17.7246C13.0859 18.1738 13.7598 18.5254 14.5703 18.7402C17.2168 19.4434 19.2285 18.2324 19.9707 15.459L20.9961 11.6113C21.2695 10.625 20.8984 9.99023 19.9121 9.74609ZM17.6074 13.8086C17.2461 13.7305 17.0215 13.3301 17.1289 12.959C17.207 12.5879 17.5977 12.3828 17.9688 12.4805C18.3398 12.5781 18.5547 12.959 18.457 13.3203C18.3496 13.6914 17.9688 13.916 17.6074 13.8086Z" fill="black" fill-opacity="0.85"/>
 </g>
</svg>
