<?xml version="1.0" encoding="UTF-8"?>
<!--Generator: Apple Native CoreSVG 326-->
<!DOCTYPE svg
PUBLIC "-//W3C//DTD SVG 1.1//EN"
       "http://www.w3.org/Graphics/SVG/1.1/DTD/svg11.dtd">
<svg version="1.1" xmlns="http://www.w3.org/2000/svg" xmlns:xlink="http://www.w3.org/1999/xlink" viewBox="0 0 26.4999 31.0449">
 <g>
  <rect height="31.0449" opacity="0" width="26.4999" x="0" y="0"/>
  <path d="M7.5029 0.654297L7.5029 2.23633L8.73337 1.52344C9.07516 1.32812 9.40719 1.40625 9.58297 1.70898C9.74899 1.99219 9.64157 2.34375 9.3193 2.5293L7.49313 3.55469L7.49313 4.58984L7.37594 6.98242L9.45602 5.68359L10.2861 5.197L10.2861 6.61691L10.0322 6.76758L7.85446 7.87109L10.0322 8.97461L10.2861 9.12528L10.2861 10.545L9.45602 10.0488L7.37594 8.75L7.49313 11.1523L7.49313 12.1875L9.3193 13.2129C9.64157 13.3984 9.74899 13.75 9.58297 14.0332C9.40719 14.3262 9.07516 14.4043 8.73337 14.2188L7.5029 13.5059L7.5029 15.0879C7.5029 15.4785 7.24899 15.7324 6.88766 15.7324C6.5361 15.7324 6.28219 15.4688 6.28219 15.0879L6.28219 13.4961L5.02243 14.2188C4.68063 14.3945 4.35837 14.3359 4.18258 14.0234C4.02633 13.75 4.13376 13.4082 4.44626 13.2227L6.28219 12.1875L6.28219 11.1523L6.39938 8.75L4.35837 10.0293L3.45993 10.5566L3.46969 12.6562C3.46969 13.0176 3.23532 13.291 2.90329 13.291C2.55172 13.291 2.32712 13.0371 2.32712 12.6562L2.31735 11.2109L0.940397 12.0117C0.618131 12.1973 0.276334 12.1191 0.0907875 11.8066C-0.0849938 11.4746 0.0126625 11.1328 0.334928 10.9473L1.70212 10.1562L0.471647 9.44336C0.12985 9.23828 0.0321937 8.92578 0.198209 8.61328C0.364225 8.32031 0.725553 8.26172 1.05758 8.4375L2.85446 9.50195L3.74313 8.97461L5.9111 7.87109L3.74313 6.76758L2.85446 6.25L1.05758 7.30469C0.725553 7.48047 0.364225 7.41211 0.188444 7.12891C0.0224281 6.80664 0.139616 6.50391 0.471647 6.29883L1.70212 5.57617L0.334928 4.79492C0.0126625 4.60938-0.0947594 4.26758 0.0907875 3.93555C0.266569 3.63281 0.618131 3.54492 0.940397 3.73047L2.31735 4.53125L2.32712 3.08594C2.32712 2.70508 2.55172 2.45117 2.90329 2.45117C3.23532 2.45117 3.46969 2.72461 3.46969 3.08594L3.45993 5.18555L4.35837 5.70312L6.39938 6.98242L6.28219 4.58984L6.28219 3.55469L4.44626 2.51953C4.13376 2.33398 4.02633 1.99219 4.18258 1.71875C4.35837 1.40625 4.68063 1.33789 5.02243 1.52344L6.28219 2.24609L6.28219 0.654297C6.28219 0.273438 6.5361 0 6.88766 0C7.24899 0 7.5029 0.263672 7.5029 0.654297Z" fill="black" fill-opacity="0.85"/>
  <path d="M22.2783 26.6309C23.2256 27.3047 24.0166 27.8906 25.4131 27.8906L25.4814 27.8906C25.9013 27.8906 26.2431 28.2324 26.2431 28.6523C26.2431 29.082 25.9013 29.4238 25.4814 29.4238L25.4131 29.4238C21.5947 29.4238 21.2627 26.8652 19.1142 26.8652C17.0048 26.8652 16.4677 29.4238 13.1279 29.4238C9.78805 29.4238 9.24118 26.8652 7.14157 26.8652C4.99313 26.8652 4.6611 29.4238 0.842741 29.4238L0.774381 29.4238C0.354459 29.4238 0.0126625 29.082 0.0126625 28.6523C0.0126625 28.2324 0.354459 27.8906 0.774381 27.8906L0.842741 27.8906C2.23922 27.8906 3.03024 27.3047 3.97751 26.6309C4.79782 26.0352 5.78415 25.332 7.14157 25.332C8.54782 25.332 9.55368 26.084 10.374 26.6895C11.2431 27.3535 11.956 27.8906 13.1279 27.8906C14.2998 27.8906 15.0127 27.3535 15.8818 26.6895C16.7021 26.084 17.708 25.332 19.1142 25.332C20.4716 25.332 21.458 26.0352 22.2783 26.6309ZM7.52395 19.9132C7.52545 20.4699 7.60813 21.0063 7.76173 21.5113C7.57094 21.4547 7.36505 21.4258 7.14157 21.4258C4.99313 21.4258 4.6611 23.9746 0.842741 23.9746L0.774381 23.9746C0.354459 23.9746 0.0126625 23.6328 0.0126625 23.2129C0.0126625 22.793 0.354459 22.4414 0.774381 22.4414L0.842741 22.4414C2.23922 22.4414 3.03024 21.8555 3.97751 21.1914C4.79782 20.5957 5.78415 19.8926 7.14157 19.8926C7.27283 19.8926 7.4006 19.899 7.52395 19.9132ZM22.2783 21.1914C23.2256 21.8555 24.0166 22.4414 25.4131 22.4414L25.4814 22.4414C25.9013 22.4414 26.2431 22.793 26.2431 23.2129C26.2431 23.6328 25.9013 23.9746 25.4814 23.9746L25.4131 23.9746C21.5947 23.9746 21.2627 21.4258 19.1142 21.4258C18.8979 21.4258 18.6981 21.4526 18.5132 21.5063C18.6672 21.0023 18.7501 20.4668 18.7515 19.9113C18.8686 19.8984 18.9899 19.8926 19.1142 19.8926C20.4716 19.8926 21.458 20.5957 22.2783 21.1914Z" fill="black" fill-opacity="0.85"/>
  <path d="M13.1279 23.9453C15.3838 23.9453 17.1904 22.1387 17.1904 19.8828C17.1904 18.3105 16.292 17.041 15.081 16.377C14.6318 16.1328 14.4267 15.8008 14.4267 15.127L14.4267 2.90039C14.4267 2.1875 13.8603 1.60156 13.1377 1.60156C12.415 1.60156 11.8486 2.1875 11.8486 2.90039L11.8486 15.127C11.8486 15.7812 11.6338 16.1035 11.165 16.3574C9.95407 17.0215 9.08493 18.3105 9.08493 19.8828C9.08493 22.1387 10.8818 23.9453 13.1279 23.9453ZM17.747 4.12109L20.4423 4.12109C20.833 4.12109 21.0966 3.81836 21.0966 3.47656C21.0966 3.13477 20.833 2.83203 20.4423 2.83203L17.747 2.83203C17.3564 2.83203 17.0927 3.13477 17.0927 3.47656C17.0927 3.81836 17.3564 4.12109 17.747 4.12109ZM17.747 7.65625L20.4423 7.65625C20.833 7.65625 21.0966 7.36328 21.0966 7.01172C21.0966 6.66992 20.833 6.37695 20.4423 6.37695L17.747 6.37695C17.3564 6.37695 17.0927 6.66992 17.0927 7.01172C17.0927 7.36328 17.3564 7.65625 17.747 7.65625ZM17.747 11.1914L20.4423 11.1914C20.833 11.1914 21.0966 10.8984 21.0966 10.5566C21.0966 10.2051 20.833 9.91211 20.4423 9.91211L17.747 9.91211C17.3564 9.91211 17.0927 10.2051 17.0927 10.5566C17.0927 10.8984 17.3564 11.1914 17.747 11.1914ZM17.747 14.7363L20.4423 14.7363C20.833 14.7363 21.0966 14.4336 21.0966 14.0918C21.0966 13.75 20.833 13.4473 20.4423 13.4473L17.747 13.4473C17.3564 13.4473 17.0927 13.75 17.0927 14.0918C17.0927 14.4336 17.3564 14.7363 17.747 14.7363Z" fill="black" fill-opacity="0.85"/>
 </g>
</svg>
