<?xml version="1.0" encoding="UTF-8"?>
<!--Generator: Apple Native CoreSVG 326-->
<!DOCTYPE svg
PUBLIC "-//W3C//DTD SVG 1.1//EN"
       "http://www.w3.org/Graphics/SVG/1.1/DTD/svg11.dtd">
<svg version="1.1" xmlns="http://www.w3.org/2000/svg" xmlns:xlink="http://www.w3.org/1999/xlink" viewBox="0 0 13.2617 27.9395">
 <g>
  <rect height="27.9395" opacity="0" width="13.2617" x="0" y="0"/>
  <path d="M6.46484 27.9102C10.0195 27.9102 12.9004 25.0195 12.9004 21.4648C12.9004 19.5898 12.1289 17.9297 10.6152 16.6016C10.3223 16.3477 10.2539 16.1816 10.2539 15.7715L10.2539 4.11133C10.2539 1.66992 8.71094 0 6.46484 0C4.19922 0 2.64648 1.66992 2.64648 4.11133L2.64648 15.7715C2.64648 16.1816 2.58789 16.3477 2.28516 16.6016C0.771484 17.9297 0 19.5898 0 21.4648C0 25.0195 2.88086 27.9102 6.46484 27.9102ZM6.46484 26.3477C3.76953 26.3477 1.58203 24.1504 1.58203 21.4648C1.58203 19.8828 2.30469 18.4473 3.66211 17.5293C4.07227 17.2461 4.22852 16.9629 4.22852 16.4355L4.22852 4.16992C4.22852 2.63672 5.13672 1.58203 6.46484 1.58203C7.76367 1.58203 8.67188 2.63672 8.67188 4.16992L8.67188 16.4355C8.67188 16.9629 8.82812 17.2461 9.23828 17.5293C10.5957 18.4473 11.3184 19.8828 11.3184 21.4648C11.3184 24.1504 9.14062 26.3477 6.46484 26.3477Z" fill="black" fill-opacity="0.85"/>
  <path d="M6.45508 24.6484C8.21289 24.6484 9.62891 23.2324 9.62891 21.4551C9.62891 20.2246 8.93555 19.209 7.91992 18.6621C7.5 18.4375 7.36328 18.2715 7.36328 17.6367L7.36328 13.4961C7.36328 12.9883 6.95312 12.5879 6.45508 12.5879C5.94727 12.5879 5.54688 12.9883 5.54688 13.4961L5.54688 17.6367C5.54688 18.2715 5.40039 18.4375 4.98047 18.6621C3.96484 19.209 3.27148 20.2246 3.27148 21.4551C3.27148 23.2324 4.6875 24.6484 6.45508 24.6484ZM6.45508 11.2988C6.95312 11.2988 7.36328 10.8887 7.36328 10.3906C7.36328 9.88281 6.95312 9.48242 6.45508 9.48242C5.94727 9.48242 5.54688 9.88281 5.54688 10.3906C5.54688 10.8887 5.94727 11.2988 6.45508 11.2988ZM6.45508 8.18359C6.95312 8.18359 7.36328 7.7832 7.36328 7.27539C7.36328 6.77734 6.95312 6.36719 6.45508 6.36719C5.94727 6.36719 5.54688 6.77734 5.54688 7.27539C5.54688 7.7832 5.94727 8.18359 6.45508 8.18359ZM6.45508 5.07812C6.95312 5.07812 7.36328 4.67773 7.36328 4.16992C7.36328 3.67188 6.95312 3.27148 6.45508 3.27148C5.94727 3.27148 5.54688 3.67188 5.54688 4.16992C5.54688 4.67773 5.94727 5.07812 6.45508 5.07812Z" fill="black" fill-opacity="0.85"/>
 </g>
</svg>
