<?xml version="1.0" encoding="UTF-8"?>
<!--Generator: Apple Native CoreSVG 326-->
<!DOCTYPE svg
PUBLIC "-//W3C//DTD SVG 1.1//EN"
       "http://www.w3.org/Graphics/SVG/1.1/DTD/svg11.dtd">
<svg version="1.1" xmlns="http://www.w3.org/2000/svg" xmlns:xlink="http://www.w3.org/1999/xlink" viewBox="0 0 25.8008 25.459">
 <g>
  <rect height="25.459" opacity="0" width="25.8008" x="0" y="0"/>
  <path d="M12.7148 25.4395C19.7363 25.4395 25.4395 19.7461 25.4395 12.7246C25.4395 5.70312 19.7363 0 12.7148 0C5.69336 0 0 5.70312 0 12.7246C0 19.7461 5.69336 25.4395 12.7148 25.4395ZM12.7148 23.623C6.68945 23.623 1.81641 18.75 1.81641 12.7246C1.81641 6.69922 6.68945 1.82617 12.7148 1.82617C18.7402 1.82617 23.6133 6.69922 23.6133 12.7246C23.6133 18.75 18.7402 23.623 12.7148 23.623Z" fill="black" fill-opacity="0.85"/>
  <path d="M10.3613 21.2012C12.2852 21.2012 13.8281 19.6582 13.8281 17.7539C13.8281 16.7383 13.3984 15.8301 12.5879 15.127C12.4512 15.0098 12.4316 14.9316 12.4316 14.7363L12.4414 8.56445C12.4414 7.23633 11.5918 6.31836 10.3613 6.31836C9.12109 6.31836 8.28125 7.23633 8.28125 8.56445L8.28125 14.7363C8.28125 14.9414 8.26172 15.0098 8.11523 15.127C7.29492 15.8301 6.88477 16.7383 6.88477 17.7539C6.88477 19.6582 8.42773 21.2012 10.3613 21.2012ZM10.3613 20.2637C8.95508 20.2637 7.8418 19.1504 7.8418 17.7539C7.8418 16.9238 8.21289 16.1816 8.91602 15.7129C9.15039 15.5469 9.23828 15.3809 9.23828 15.0781L9.23828 8.59375C9.23828 7.80273 9.67773 7.28516 10.3613 7.28516C11.0254 7.28516 11.4648 7.80273 11.4648 8.59375L11.4648 15.0781C11.4648 15.3809 11.5527 15.5469 11.7871 15.7129C12.5 16.1816 12.8711 16.9238 12.8711 17.7539C12.8711 19.1504 11.748 20.2637 10.3613 20.2637ZM10.3516 19.4922C11.3281 19.4922 12.0996 18.7012 12.0996 17.7441C12.0996 17.0703 11.709 16.5137 11.1523 16.2109C10.9473 16.1035 10.8984 16.0254 10.8984 15.7129L10.8984 9.19922C10.8984 8.84766 10.6543 8.60352 10.3516 8.60352C10.0391 8.60352 9.81445 8.84766 9.81445 9.19922L9.81445 15.7129C9.81445 16.0254 9.77539 16.1035 9.54102 16.2109C9.00391 16.5137 8.61328 17.0703 8.61328 17.7441C8.61328 18.7207 9.38477 19.4922 10.3516 19.4922ZM13.5352 6.5332C13.8672 6.5332 14.1211 6.25977 14.1211 5.95703L14.1211 4.39453C14.1211 4.0918 13.8672 3.81836 13.5352 3.81836C13.2031 3.81836 12.9492 4.0918 12.9492 4.39453L12.9492 5.95703C12.9492 6.26953 13.2129 6.5332 13.5352 6.5332ZM16.543 7.79297C16.748 8.00781 17.1387 8.00781 17.3633 7.79297L18.457 6.67969C18.6719 6.45508 18.6816 6.07422 18.4473 5.84961C18.2227 5.625 17.8613 5.625 17.6465 5.84961L16.5332 6.96289C16.2988 7.1875 16.3184 7.56836 16.543 7.79297ZM18.3496 11.3672L19.9023 11.3672C20.2246 11.3672 20.4785 11.084 20.4785 10.791C20.4785 10.4785 20.2246 10.1953 19.9023 10.1953L18.3496 10.1953C18.0176 10.1953 17.7637 10.4785 17.7637 10.791C17.7637 11.084 18.0273 11.3672 18.3496 11.3672ZM17.6465 15.7227C17.8613 15.9375 18.2227 15.9473 18.4473 15.7227C18.6816 15.498 18.6816 15.0977 18.457 14.9023L17.3535 13.7891C17.1289 13.5645 16.7578 13.5645 16.543 13.7891C16.3184 14.0137 16.2988 14.3848 16.5332 14.6094ZM13.3008 14.0723C15.2539 14.1895 16.8457 12.7441 16.8457 10.791C16.8457 8.93555 15.3809 7.46094 13.5352 7.46094C13.3984 7.46094 13.2617 7.48047 13.1348 7.50977C13.252 7.83203 13.3105 8.19336 13.3105 8.56445Z" fill="black" fill-opacity="0.85"/>
 </g>
</svg>
