<?xml version="1.0" encoding="UTF-8"?>
<!--Generator: Apple Native CoreSVG 326-->
<!DOCTYPE svg
PUBLIC "-//W3C//DTD SVG 1.1//EN"
       "http://www.w3.org/Graphics/SVG/1.1/DTD/svg11.dtd">
<svg version="1.1" xmlns="http://www.w3.org/2000/svg" xmlns:xlink="http://www.w3.org/1999/xlink" viewBox="0 0 25.8008 25.459">
 <g>
  <rect height="25.459" opacity="0" width="25.8008" x="0" y="0"/>
  <path d="M25.4395 12.7344C25.4395 19.7461 19.7266 25.459 12.7148 25.459C5.71289 25.459 0 19.7461 0 12.7344C0 5.73242 5.71289 0.0195312 12.7148 0.0195312C19.7266 0.0195312 25.4395 5.73242 25.4395 12.7344ZM8.1543 8.47656L8.1543 14.7949C8.1543 15 8.13477 15.0684 7.98828 15.1953C7.14844 15.9082 6.72852 16.8457 6.72852 17.8711C6.72852 19.834 8.31055 21.416 10.293 21.416C12.2559 21.416 13.8379 19.834 13.8379 17.8711C13.8379 16.8457 13.3984 15.9082 12.5684 15.1953C12.4316 15.0684 12.4121 14.9902 12.4121 14.7949L12.4219 8.47656C12.4219 7.11914 11.543 6.17188 10.293 6.17188C9.01367 6.17188 8.1543 7.11914 8.1543 8.47656ZM11.416 8.50586L11.416 15.1465C11.416 15.459 11.5039 15.625 11.748 15.7812C12.4805 16.2695 12.8613 17.0215 12.8613 17.8711C12.8613 19.3066 11.709 20.4492 10.293 20.4492C8.84766 20.4492 7.71484 19.3066 7.71484 17.8711C7.71484 17.0215 8.0957 16.2695 8.79883 15.7812C9.04297 15.625 9.14062 15.459 9.14062 15.1465L9.14062 8.50586C9.14062 7.68555 9.58984 7.16797 10.293 7.16797C10.9668 7.16797 11.416 7.68555 11.416 8.50586ZM9.72656 14.4922L9.72656 15.8008C9.72656 16.1133 9.6875 16.2012 9.45312 16.3086C8.90625 16.6113 8.50586 17.1777 8.50586 17.8613C8.50586 18.8574 9.28711 19.6582 10.2832 19.6582C11.2793 19.6582 12.0605 18.8477 12.0605 17.8613C12.0605 17.1777 11.6602 16.6211 11.0938 16.3086C10.8887 16.2012 10.8398 16.1133 10.8398 15.8008L10.8398 14.4922C10.8398 14.1309 10.5859 13.877 10.2832 13.877C9.96094 13.877 9.72656 14.1309 9.72656 14.4922ZM14.8145 4.64844L14.8145 5.64453L14.043 5.19531C13.8184 5.04883 13.5449 5.10742 13.418 5.3418C13.291 5.55664 13.3887 5.80078 13.6133 5.94727L14.8242 6.64062L14.8438 9.0332L13.1836 8.05664C13.2422 8.4082 13.291 8.76953 13.3105 9.15039L14.4238 9.78516L13.3203 10.4102L13.3203 11.4355L14.8438 10.5273L14.8242 12.9102L13.6719 13.5938C13.623 13.8379 13.9258 14.209 14.1895 14.2871L14.8145 13.9062L14.8145 14.9219C14.8145 15.1953 15 15.4395 15.2734 15.4395C15.5469 15.4395 15.7227 15.1855 15.7227 14.9219L15.7129 13.916L16.5039 14.3652C16.7383 14.502 17.002 14.4531 17.1191 14.2383C17.2461 13.9941 17.1484 13.7598 16.9141 13.6133L15.7129 12.9102L15.6934 10.5273L17.7441 11.7285L17.7441 13.1152C17.7441 13.3887 17.9199 13.5938 18.1738 13.6035C18.4277 13.6035 18.5938 13.3789 18.5938 13.1348L18.6035 12.2363L19.4824 12.7441C19.7363 12.8809 20.0098 12.8516 20.166 12.6172C20.3027 12.3633 20.1953 12.1094 19.9414 11.9629L19.0527 11.4453L19.834 10.9863C20.0488 10.8594 20.1465 10.6055 20.0293 10.4102C19.8926 10.166 19.6289 10.1367 19.4043 10.2637L18.1836 10.9473L16.123 9.78516L18.1934 8.61328L19.4043 9.29688C19.6387 9.43359 19.9023 9.4043 20.0391 9.16992C20.1758 8.95508 20.0586 8.71094 19.8438 8.57422L19.082 8.11523L19.9512 7.61719C20.2051 7.46094 20.3027 7.19727 20.166 6.97266C20.0293 6.73828 19.7461 6.66992 19.5117 6.80664L18.6133 7.32422L18.6133 6.42578C18.6133 6.17188 18.4473 5.9668 18.1934 5.9668C17.9395 5.9668 17.7637 6.17188 17.7637 6.45508L17.7539 7.83203L15.6934 9.0332L15.7129 6.64062L16.9238 5.94727C17.1777 5.80078 17.2363 5.55664 17.1289 5.3418C17.0117 5.09766 16.7383 5.06836 16.5039 5.19531L15.7129 5.64453L15.7227 4.64844C15.7227 4.36523 15.5469 4.15039 15.2734 4.15039C15 4.15039 14.8145 4.36523 14.8145 4.64844Z" fill="black" fill-opacity="0.85"/>
 </g>
</svg>
