<?xml version="1.0" encoding="UTF-8"?>
<!--Generator: Apple Native CoreSVG 326-->
<!DOCTYPE svg
PUBLIC "-//W3C//DTD SVG 1.1//EN"
       "http://www.w3.org/Graphics/SVG/1.1/DTD/svg11.dtd">
<svg version="1.1" xmlns="http://www.w3.org/2000/svg" xmlns:xlink="http://www.w3.org/1999/xlink" viewBox="0 0 26.1663 30.6738">
 <g>
  <rect height="30.6738" opacity="0" width="26.1663" x="0" y="0"/>
  <path d="M18.4249 0.810547L18.4152 2.85156L20.046 1.91406C20.339 1.73828 20.6906 1.79688 20.8566 2.08984C21.0226 2.39258 20.8956 2.70508 20.5734 2.90039L18.4054 4.15039L18.3761 8.69141L22.2823 6.41602L22.2921 3.92578C22.2921 3.54492 22.4972 3.28125 22.8585 3.28125C23.1808 3.28125 23.4054 3.54492 23.4054 3.89648L23.4054 5.75195L25.2218 4.70703C25.5245 4.53125 25.9054 4.58008 26.0812 4.89258C26.2667 5.22461 26.1398 5.57617 25.7882 5.77148L24.0011 6.78711L25.632 7.73438C25.9152 7.89062 26.0421 8.23242 25.8859 8.51562C25.6906 8.82812 25.3488 8.85742 25.046 8.68164L22.8683 7.43164L18.9425 9.6582L22.839 11.8848L25.0167 10.6348C25.3292 10.459 25.6808 10.498 25.8566 10.8008C26.0128 11.0938 25.8956 11.4258 25.5929 11.5918L23.9718 12.5293L25.7784 13.5742C26.1202 13.7598 26.2667 14.1113 26.0812 14.4336C25.8859 14.7559 25.5148 14.7949 25.1827 14.5996L23.3859 13.5645L23.3761 15.4297C23.3761 15.752 23.1515 16.0449 22.8292 16.0449C22.4777 16.0352 22.2628 15.752 22.2628 15.4004L22.2628 12.9004L18.3761 10.625L18.4054 15.1465L20.5636 16.4062C20.8859 16.5918 21.0226 16.9043 20.8468 17.2168C20.6808 17.5098 20.3292 17.5586 20.0363 17.3926L18.4152 16.4551L18.4249 18.5059C18.4249 18.8867 18.2003 19.1895 17.8292 19.1895C17.4484 19.1895 17.2238 18.8867 17.2238 18.5059L17.2335 16.4551L15.6222 17.3926C15.3195 17.5586 14.9777 17.5098 14.8116 17.2168C14.6359 16.9043 14.7726 16.5918 15.0851 16.4062L17.2433 15.1465L17.2726 10.625L14.5032 12.2463L14.5043 10.922L16.7159 9.6582L14.5064 8.40506L14.5076 7.08078L17.2726 8.69141L17.2433 4.15039L15.0753 2.90039C14.7628 2.70508 14.6261 2.39258 14.8019 2.08984C14.9679 1.79688 15.3097 1.73828 15.6124 1.91406L17.2335 2.85156L17.2238 0.810547C17.2238 0.439453 17.4484 0.136719 17.8292 0.136719C18.2003 0.136719 18.4249 0.439453 18.4249 0.810547Z" fill="black" fill-opacity="0.85"/>
  <path d="M9.3429 29.2773C12.9073 29.2773 15.7882 26.3867 15.7882 22.832C15.7882 20.957 15.007 19.2969 13.4933 17.9688C13.2003 17.7148 13.1417 17.5488 13.1417 17.1387L13.1515 5.47852C13.1515 3.03711 11.5988 1.36719 9.3429 1.36719C7.07727 1.36719 5.51477 3.03711 5.51477 5.47852L5.52454 17.1387C5.52454 17.5488 5.46594 17.7148 5.17297 17.9688C3.6593 19.2969 2.87805 20.957 2.87805 22.832C2.87805 26.3867 5.75891 29.2773 9.3429 29.2773ZM9.3429 27.7148C6.64758 27.7148 4.46008 25.5176 4.46008 22.832C4.46008 21.25 5.19251 19.8145 6.54993 18.8965C6.96008 18.6133 7.11633 18.3301 7.11633 17.8027L7.11633 5.53711C7.11633 4.00391 8.02454 2.94922 9.3429 2.94922C10.6417 2.94922 11.5499 4.00391 11.5499 5.53711L11.5499 17.8027C11.5499 18.3301 11.7062 18.6133 12.1163 18.8965C13.4738 19.8145 14.2062 21.25 14.2062 22.832C14.2062 25.5176 12.0187 27.7148 9.3429 27.7148Z" fill="black" fill-opacity="0.85"/>
  <path d="M9.33313 26.0156C11.0909 26.0156 12.507 24.5996 12.507 22.8223C12.507 21.5918 11.8234 20.5762 10.8077 20.0293C10.3781 19.8047 10.2413 19.6387 10.2413 19.0039L10.2413 16.6016C10.2413 15.9961 9.84094 15.5957 9.33313 15.5957C8.82532 15.5957 8.42493 15.9961 8.42493 16.6016L8.42493 19.0039C8.42493 19.6387 8.28821 19.8047 7.85852 20.0293C6.8429 20.5762 6.1593 21.5918 6.1593 22.8223C6.1593 24.5996 7.57532 26.0156 9.33313 26.0156Z" fill="black" fill-opacity="0.85"/>
 </g>
</svg>
