<?xml version="1.0" encoding="UTF-8"?>
<!--Generator: Apple Native CoreSVG 326-->
<!DOCTYPE svg
PUBLIC "-//W3C//DTD SVG 1.1//EN"
       "http://www.w3.org/Graphics/SVG/1.1/DTD/svg11.dtd">
<svg version="1.1" xmlns="http://www.w3.org/2000/svg" xmlns:xlink="http://www.w3.org/1999/xlink" viewBox="0 0 25.8008 25.459">
 <g>
  <rect height="25.459" opacity="0" width="25.8008" x="0" y="0"/>
  <path d="M25.4395 12.7344C25.4395 19.7461 19.7266 25.459 12.7148 25.459C5.71289 25.459 0 19.7461 0 12.7344C0 5.73242 5.71289 0.0195312 12.7148 0.0195312C19.7266 0.0195312 25.4395 5.73242 25.4395 12.7344ZM7.1582 7.42188L7.1582 13.9746C7.1582 14.1895 7.13867 14.2578 6.98242 14.375C6.14258 15.1074 5.72266 16.0254 5.72266 17.0703C5.72266 19.0332 7.30469 20.6152 9.28711 20.6152C11.2598 20.6152 12.8418 19.0332 12.8418 17.0703C12.8418 16.0254 12.4023 15.1074 11.5723 14.375C11.4355 14.2578 11.416 14.1895 11.416 13.9746L11.4258 7.42188C11.4258 6.05469 10.5469 5.11719 9.28711 5.11719C8.01758 5.11719 7.1582 6.05469 7.1582 7.42188ZM15.7227 8.56445C14.1113 8.56445 12.9785 9.58008 12.9785 11.1133L12.9785 14.1211C12.9785 14.4629 13.2617 14.7461 13.584 14.7461C13.9258 14.7461 14.1992 14.4629 14.1992 14.1211L14.1992 11.4355C14.1992 11.3281 14.3066 11.2207 14.4141 11.2207C14.5508 11.2207 14.6387 11.3281 14.6387 11.4355L14.6387 19.5996C14.6387 19.9902 14.9414 20.2832 15.3125 20.2832C15.6934 20.2832 15.9766 19.9902 15.9766 19.5996L15.9766 14.6387C15.9766 14.5117 16.0938 14.4141 16.2109 14.4141C16.3379 14.4141 16.4453 14.5117 16.4453 14.6387L16.4453 19.5996C16.4453 19.9902 16.7285 20.2832 17.1094 20.2832C17.4902 20.2832 17.793 19.9902 17.793 19.5996L17.793 11.4355C17.793 11.3281 17.8809 11.2207 18.0078 11.2207C18.125 11.2207 18.2324 11.3281 18.2324 11.4355L18.2324 14.1211C18.2324 14.4629 18.5059 14.7461 18.8281 14.7461C19.1602 14.7461 19.4434 14.4629 19.4434 14.1211L19.4434 11.1133C19.4434 9.58008 18.3203 8.56445 16.709 8.56445ZM10.4297 7.45117L10.4297 14.3457C10.4297 14.6387 10.5078 14.8242 10.752 14.9805C11.4746 15.4688 11.8555 16.2207 11.8555 17.0703C11.8555 18.4961 10.7031 19.6484 9.28711 19.6484C7.85156 19.6484 6.70898 18.4961 6.70898 17.0703C6.70898 16.2207 7.08984 15.4688 7.8125 14.9805C8.04688 14.8242 8.13477 14.6387 8.13477 14.3457L8.13477 7.45117C8.13477 6.63086 8.58398 6.11328 9.28711 6.11328C9.9707 6.11328 10.4297 6.63086 10.4297 7.45117ZM8.74023 13.0859L8.74023 14.9805C8.74023 15.3027 8.68164 15.3711 8.44727 15.498C7.89062 15.791 7.5 16.3672 7.5 17.0605C7.5 18.0566 8.29102 18.8477 9.27734 18.8477C10.2734 18.8477 11.0645 18.0469 11.0645 17.0605C11.0645 16.3672 10.6738 15.8105 10.0977 15.498C9.88281 15.3809 9.83398 15.3027 9.83398 14.9805L9.83398 13.0859C9.83398 12.793 9.58984 12.5391 9.28711 12.5391C8.97461 12.5391 8.74023 12.793 8.74023 13.0859ZM8.74023 11.2109C8.74023 11.5234 8.97461 11.7773 9.28711 11.7773C9.58984 11.7773 9.83398 11.5234 9.83398 11.2109C9.83398 10.918 9.58984 10.6641 9.28711 10.6641C8.97461 10.6641 8.74023 10.918 8.74023 11.2109ZM8.74023 9.3457C8.74023 9.64844 8.97461 9.90234 9.28711 9.90234C9.58984 9.90234 9.83398 9.64844 9.83398 9.3457C9.83398 9.05273 9.58984 8.80859 9.28711 8.80859C8.97461 8.80859 8.74023 9.05273 8.74023 9.3457ZM8.74023 7.4707C8.74023 7.7832 8.97461 8.01758 9.28711 8.01758C9.58984 8.01758 9.83398 7.7832 9.83398 7.4707C9.83398 7.16797 9.58984 6.92383 9.28711 6.92383C8.97461 6.92383 8.74023 7.16797 8.74023 7.4707ZM14.707 6.23047C14.707 7.07031 15.3809 7.74414 16.2109 7.74414C17.0605 7.74414 17.7246 7.07031 17.7246 6.23047C17.7246 5.39062 17.0605 4.7168 16.2109 4.7168C15.3809 4.7168 14.707 5.39062 14.707 6.23047Z" fill="black" fill-opacity="0.85"/>
 </g>
</svg>
