<?xml version="1.0" encoding="UTF-8"?>
<!--Generator: Apple Native CoreSVG 326-->
<!DOCTYPE svg
PUBLIC "-//W3C//DTD SVG 1.1//EN"
       "http://www.w3.org/Graphics/SVG/1.1/DTD/svg11.dtd">
<svg version="1.1" xmlns="http://www.w3.org/2000/svg" xmlns:xlink="http://www.w3.org/1999/xlink" viewBox="0 0 25.8008 25.459">
 <g>
  <rect height="25.459" opacity="0" width="25.8008" x="0" y="0"/>
  <path d="M12.7148 25.4395C19.7363 25.4395 25.4395 19.7461 25.4395 12.7246C25.4395 5.70312 19.7363 0 12.7148 0C5.69336 0 0 5.70312 0 12.7246C0 19.7461 5.69336 25.4395 12.7148 25.4395ZM12.7148 23.623C6.68945 23.623 1.81641 18.75 1.81641 12.7246C1.81641 6.69922 6.68945 1.82617 12.7148 1.82617C18.7402 1.82617 23.6133 6.69922 23.6133 12.7246C23.6133 18.75 18.7402 23.623 12.7148 23.623Z" fill="black" fill-opacity="0.85"/>
  <path d="M10.3613 21.2012C12.2852 21.2012 13.8281 19.6582 13.8281 17.7539C13.8281 16.7383 13.3984 15.8301 12.5879 15.127C12.4512 15.0098 12.4316 14.9316 12.4316 14.7363L12.4414 8.56445C12.4414 7.23633 11.5918 6.31836 10.3613 6.31836C9.12109 6.31836 8.28125 7.23633 8.28125 8.56445L8.28125 14.7363C8.28125 14.9414 8.26172 15.0098 8.11523 15.127C7.29492 15.8301 6.88477 16.7383 6.88477 17.7539C6.88477 19.6582 8.42773 21.2012 10.3613 21.2012ZM10.3613 20.2637C8.95508 20.2637 7.8418 19.1504 7.8418 17.7539C7.8418 16.9238 8.21289 16.1816 8.91602 15.7129C9.15039 15.5469 9.23828 15.3809 9.23828 15.0781L9.23828 8.59375C9.23828 7.80273 9.67773 7.28516 10.3613 7.28516C11.0254 7.28516 11.4648 7.80273 11.4648 8.59375L11.4648 15.0781C11.4648 15.3809 11.5527 15.5469 11.7871 15.7129C12.5 16.1816 12.8711 16.9238 12.8711 17.7539C12.8711 19.1504 11.748 20.2637 10.3613 20.2637ZM10.3516 19.4922C11.3281 19.4922 12.0996 18.7012 12.0996 17.7441C12.0996 17.0703 11.709 16.5137 11.1523 16.2109C10.9473 16.1035 10.8984 16.0254 10.8984 15.7129L10.8984 14.4336C10.8984 14.082 10.6543 13.8477 10.3516 13.8477C10.0391 13.8477 9.81445 14.082 9.81445 14.4336L9.81445 15.7129C9.81445 16.0254 9.77539 16.1035 9.54102 16.2109C9.00391 16.5137 8.61328 17.0703 8.61328 17.7441C8.61328 18.7207 9.38477 19.4922 10.3516 19.4922ZM15.2344 15.3516C15.498 15.3516 15.6641 15.1172 15.6641 14.8438L15.6543 13.8672L16.4355 14.3066C16.6504 14.4336 16.9141 14.3848 17.0312 14.1797C17.1582 13.9453 17.0605 13.7207 16.8359 13.5742L15.6543 12.8906L15.6348 10.5664L17.6367 11.7383L17.6367 13.0859C17.6367 13.3594 17.8125 13.5449 18.0664 13.5547C18.3008 13.5547 18.4766 13.3496 18.4766 13.1055L18.4863 12.2266L19.3457 12.7148C19.5898 12.8516 19.8535 12.832 20 12.5977C20.1367 12.3535 20.0391 12.0996 19.7852 11.9727L18.916 11.4551L19.6875 11.0059C19.8926 10.8887 19.9902 10.6348 19.873 10.4395C19.7363 10.2148 19.4824 10.1758 19.2578 10.3027L18.0762 10.9668L16.0547 9.83398L18.0859 8.69141L19.2676 9.35547C19.4922 9.48242 19.7559 9.46289 19.8828 9.23828C20.0195 9.02344 19.8926 8.78906 19.6973 8.66211L18.9355 8.20312L19.7949 7.71484C20.0488 7.56836 20.1367 7.31445 20 7.08008C19.8633 6.85547 19.5996 6.79688 19.375 6.93359L18.4961 7.43164L18.4961 6.5625C18.4961 6.29883 18.3203 6.10352 18.0859 6.10352C17.832 6.10352 17.666 6.29883 17.666 6.58203L17.6562 7.92969L15.6348 9.10156L15.6543 6.76758L16.8457 6.08398C17.0898 5.94727 17.1484 5.71289 17.041 5.48828C16.9238 5.25391 16.6504 5.22461 16.4355 5.36133L15.6543 5.80078L15.6641 4.81445C15.6641 4.55078 15.498 4.32617 15.2344 4.32617C14.9609 4.32617 14.7852 4.55078 14.7852 4.81445L14.7852 5.80078L14.0234 5.36133C13.8086 5.21484 13.5449 5.26367 13.418 5.48828C13.291 5.71289 13.3887 5.94727 13.6133 6.08398L14.7949 6.76758L14.8145 9.10156L13.1738 8.13477C13.2324 8.47656 13.2812 8.83789 13.3008 9.19922L14.4043 9.83398L13.3105 10.4492L13.3105 11.4551L14.8145 10.5664L14.7949 12.8906L13.6621 13.5547C13.6133 13.7988 13.9062 14.1699 14.1699 14.2383L14.7852 13.8574L14.7852 14.8438C14.7852 15.127 14.9609 15.3516 15.2344 15.3516Z" fill="black" fill-opacity="0.85"/>
 </g>
</svg>
