<?xml version="1.0" encoding="UTF-8"?>
<!--Generator: Apple Native CoreSVG 326-->
<!DOCTYPE svg
PUBLIC "-//W3C//DTD SVG 1.1//EN"
       "http://www.w3.org/Graphics/SVG/1.1/DTD/svg11.dtd">
<svg version="1.1" xmlns="http://www.w3.org/2000/svg" xmlns:xlink="http://www.w3.org/1999/xlink" viewBox="0 0 35.4102 24.3262">
 <g>
  <rect height="24.3262" opacity="0" width="35.4102" x="0" y="0"/>
  <path d="M0 12.1582C0 16.0938 1.29883 19.7266 3.48633 22.6562C3.82812 23.1055 4.38477 23.1543 4.81445 22.8125C5.20508 22.4805 5.25391 21.9629 4.95117 21.5332C2.98828 18.9258 1.82617 15.6641 1.82617 12.1582C1.82617 8.63281 2.98828 5.39062 4.95117 2.76367C5.25391 2.35352 5.21484 1.83594 4.81445 1.49414C4.39453 1.15234 3.81836 1.21094 3.48633 1.66016C1.29883 4.58008 0 8.21289 0 12.1582ZM35.0488 12.1582C35.0488 8.21289 33.75 4.58008 31.5527 1.66016C31.2207 1.21094 30.6543 1.15234 30.2246 1.49414C29.834 1.83594 29.7949 2.35352 30.0977 2.76367C32.0605 5.39062 33.2129 8.63281 33.2129 12.1582C33.2129 15.6641 32.0605 18.9258 30.0977 21.5332C29.7949 21.9629 29.834 22.4805 30.2246 22.8125C30.6543 23.1543 31.2207 23.1055 31.5527 22.6562C33.75 19.7266 35.0488 16.0938 35.0488 12.1582Z" fill="black" fill-opacity="0.85"/>
  <path d="M17.5195 24.3066C24.2285 24.3066 29.6777 18.8672 29.6777 12.1582C29.6777 5.44922 24.2285 0 17.5195 0C10.8105 0 5.37109 5.44922 5.37109 12.1582C5.37109 18.8672 10.8105 24.3066 17.5195 24.3066ZM17.5195 22.4902C11.8164 22.4902 7.1875 17.8613 7.1875 12.1582C7.1875 6.45508 11.8164 1.81641 17.5195 1.81641C23.2227 1.81641 27.8613 6.45508 27.8613 12.1582C27.8613 17.8613 23.2227 22.4902 17.5195 22.4902Z" fill="black" fill-opacity="0.85"/>
  <path d="M17.0312 18.9258C18.6426 18.9258 19.9414 17.627 19.9414 16.0059C19.9414 14.873 19.3066 13.9453 18.3789 13.4473C18.0762 13.2715 17.959 13.0957 17.959 12.6074L17.959 6.68945C17.959 6.16211 17.5488 5.75195 17.0312 5.75195C16.5137 5.75195 16.1133 6.16211 16.1133 6.68945L16.1133 12.6074C16.1133 13.0957 16.0059 13.2715 15.6836 13.4473C14.7559 13.9453 14.1211 14.873 14.1211 16.0059C14.1211 17.627 15.4199 18.9258 17.0312 18.9258ZM20 8.16406L22.2168 8.16406C22.5195 8.16406 22.7734 7.91016 22.7734 7.60742C22.7734 7.30469 22.5195 7.05078 22.2168 7.05078L20 7.05078C19.6973 7.05078 19.4434 7.30469 19.4434 7.60742C19.4434 7.91016 19.6973 8.16406 20 8.16406ZM20 10.3223L22.2168 10.3223C22.5195 10.3223 22.7734 10.0684 22.7734 9.76562C22.7734 9.46289 22.5195 9.20898 22.2168 9.20898L20 9.20898C19.6973 9.20898 19.4434 9.46289 19.4434 9.76562C19.4434 10.0684 19.6973 10.3223 20 10.3223ZM20 12.5L22.2168 12.5C22.5195 12.5 22.7734 12.2461 22.7734 11.9336C22.7734 11.6309 22.5195 11.3867 22.2168 11.3867L20 11.3867C19.6973 11.3867 19.4434 11.6309 19.4434 11.9336C19.4434 12.2461 19.6973 12.5 20 12.5Z" fill="black" fill-opacity="0.85"/>
 </g>
</svg>
