<?xml version="1.0" ?><!-- Generator: Adobe Illustrator 25.0.0, SVG Export Plug-In . SVG Version: 6.00 Build 0)  --><svg xmlns="http://www.w3.org/2000/svg" xmlns:xlink="http://www.w3.org/1999/xlink" version="1.1" id="Layer_1" x="0px" y="0px" viewBox="0 0 512 512" style="enable-background:new 0 0 512 512;" xml:space="preserve">
<path d="M0,351.5c0,9.5,3.7,15.5,12,19.5c23,11.4,35.8,24.4,50.1,52.6c4.3,7.7,10.8,11.6,19.3,11.6h349.3c8.3,0,14.7-3.9,19-11.6  c14.3-28.2,27.1-41.2,50.3-52.6c8.3-3.9,12-9.9,12-19.5V160.7c0-9.7-3.7-15.7-12-19.5c-23.2-11.4-36-24.6-50.3-52.6  c-4.4-7.9-10.8-11.8-19-11.8H81.4c-8.5,0-14.9,3.9-19.3,11.8C47.8,116.6,35,129.8,12,141.2c-8.3,3.7-12,9.7-12,19.5V351.5z   M33.3,346.8V165.4c25.1-10.4,41.2-27.1,54.2-55.3h336.8c12.8,28.2,29.2,44.9,54.2,55.3v181.4c-25.1,10.4-41.4,27.1-54.2,55.1H87.6  C74.5,373.9,58.4,357.1,33.3,346.8z M90.3,347.6c0,11,7.5,18.2,18.2,18.2h294.8c11,0,18.2-7.2,18.2-18.2v-183  c0-10.8-7.2-18.2-18.2-18.2H108.5c-10.8,0-18.2,7.5-18.2,18.2V347.6z M115.3,211.4V176c0-2.9,1.7-4.6,4.8-4.6h22.6v40H115.3z   M167.7,340.8V171.4h176.6v169.4H167.7z M369.4,211.4v-40h22.6c3.1,0,4.6,1.7,4.6,4.6v35.4H369.4z M115.3,276v-39.5h27.3V276H115.3z   M369.4,276v-39.5h27.1V276H369.4z M115.3,336.2V301h27.3v39.8h-22.6C117,340.8,115.3,339.3,115.3,336.2z M369.4,340.8V301h27.1  v35.2c0,3.1-1.5,4.6-4.6,4.6H369.4z"/>
</svg>