<?xml version="1.0" encoding="UTF-8"?>
<!--Generator: Apple Native CoreSVG 326-->
<!DOCTYPE svg
PUBLIC "-//W3C//DTD SVG 1.1//EN"
       "http://www.w3.org/Graphics/SVG/1.1/DTD/svg11.dtd">
<svg version="1.1" xmlns="http://www.w3.org/2000/svg" xmlns:xlink="http://www.w3.org/1999/xlink" viewBox="0 0 31.0059 21.5332">
 <g>
  <rect height="21.5332" opacity="0" width="31.0059" x="0" y="0"/>
  <path d="M0 16.6895C0 17.207 0.205078 17.5391 0.644531 17.7441C2.07031 18.4375 2.8418 19.209 3.67188 20.8789C3.90625 21.3086 4.24805 21.5137 4.70703 21.5137L25.9375 21.5137C26.3965 21.5137 26.7383 21.3086 26.9727 20.8789C27.8027 19.209 28.5742 18.4375 30 17.7441C30.4492 17.5391 30.6445 17.207 30.6445 16.6895L30.6445 4.82422C30.6445 4.30664 30.4492 3.98438 30 3.7793C28.5742 3.07617 27.8027 2.31445 26.9727 0.634766C26.7383 0.214844 26.3965 0 25.9375 0L4.70703 0C4.24805 0 3.90625 0.214844 3.67188 0.634766C2.8418 2.31445 2.07031 3.07617 0.644531 3.7793C0.205078 3.98438 0 4.30664 0 4.82422ZM1.72852 16.4551L1.72852 5.06836C3.28125 4.4043 4.22852 3.42773 5.00977 1.72852L25.6348 1.72852C26.416 3.42773 27.3633 4.4043 28.916 5.06836L28.916 16.4551C27.3633 17.1191 26.416 18.0859 25.6348 19.7852L5.00977 19.7852C4.22852 18.0859 3.28125 17.1191 1.72852 16.4551ZM5.17578 16.2305C5.17578 16.8848 5.61523 17.3242 6.26953 17.3242L24.375 17.3242C25.0391 17.3242 25.4688 16.8848 25.4688 16.2305L25.4688 5.3125C25.4688 4.64844 25.0391 4.21875 24.375 4.21875L6.26953 4.21875C5.61523 4.21875 5.17578 4.64844 5.17578 5.3125ZM6.51367 15.6738L6.51367 13.3984L8.33008 13.3984L8.33008 15.9961L6.82617 15.9961C6.62109 15.9961 6.51367 15.8789 6.51367 15.6738ZM6.51367 12.0605L6.51367 9.48242L8.33008 9.48242L8.33008 12.0605ZM6.51367 8.14453L6.51367 5.86914C6.51367 5.66406 6.62109 5.54688 6.82617 5.54688L8.33008 5.54688L8.33008 8.14453ZM22.3145 8.14453L22.3145 5.54688L23.8184 5.54688C24.0234 5.54688 24.1406 5.66406 24.1406 5.86914L24.1406 8.14453ZM22.3145 12.0605L22.3145 9.48242L24.1406 9.48242L24.1406 12.0605ZM22.3145 15.9961L22.3145 13.3984L24.1406 13.3984L24.1406 15.6738C24.1406 15.8789 24.0234 15.9961 23.8184 15.9961ZM9.66797 15.9961L9.66797 5.54688L20.9863 5.54688L20.9863 15.9961Z" fill="black" fill-opacity="0.85"/>
 </g>
</svg>
