<?xml version="1.0" encoding="UTF-8"?>
<!--Generator: Apple Native CoreSVG 326-->
<!DOCTYPE svg
PUBLIC "-//W3C//DTD SVG 1.1//EN"
       "http://www.w3.org/Graphics/SVG/1.1/DTD/svg11.dtd">
<svg version="1.1" xmlns="http://www.w3.org/2000/svg" xmlns:xlink="http://www.w3.org/1999/xlink" viewBox="0 0 25.8008 25.459">
 <g>
  <rect height="25.459" opacity="0" width="25.8008" x="0" y="0"/>
  <path d="M12.7148 25.4395C19.6777 25.4395 25.4395 19.6777 25.4395 12.7246C25.4395 5.76172 19.6875 0 12.7246 0C12.0898 0 11.8066 0.361328 11.8066 0.947266L11.8066 5.86914C11.8066 6.34766 12.1191 6.71875 12.6074 6.71875C13.0859 6.71875 13.3984 6.34766 13.3984 5.86914L13.3984 0.839844L12.6855 1.82617C18.7695 1.82617 23.6035 6.67969 23.6035 12.7246C23.6035 18.7598 18.7598 23.623 12.7148 23.623C6.67969 23.623 1.80664 18.7598 1.81641 12.7246C1.82617 9.96094 2.85156 7.45117 4.53125 5.53711C4.86328 5.12695 4.89258 4.61914 4.53125 4.24805C4.17969 3.86719 3.59375 3.89648 3.20312 4.36523C1.2207 6.61133 0 9.54102 0 12.7246C0 19.6777 5.76172 25.4395 12.7148 25.4395Z" fill="black" fill-opacity="0.85"/>
  <path d="M12.7148 14.6484C13.7891 14.6484 14.6484 13.7891 14.6484 12.7246C14.6484 12.0703 14.3262 11.5039 13.8184 11.1426L7.5 6.63086C6.93359 6.23047 6.34766 6.80664 6.74805 7.39258L11.0352 13.6816C11.4258 14.2578 12.0117 14.6484 12.7148 14.6484Z" fill="black" fill-opacity="0.85"/>
 </g>
</svg>
