<?xml version="1.0" ?><!-- Generator: Adobe Illustrator 25.0.0, SVG Export Plug-In . SVG Version: 6.00 Build 0)  --><svg xmlns="http://www.w3.org/2000/svg" xmlns:xlink="http://www.w3.org/1999/xlink" version="1.1" id="Layer_1" x="0px" y="0px" viewBox="0 0 512 512" style="enable-background:new 0 0 512 512;" xml:space="preserve">
<path d="M255.9,0c-7.5,0-13.4,6.1-13.4,13.6v84.2c0,7.7,5.9,13.6,13.4,13.6c7.7,0,13.6-5.9,13.6-13.6V13.6  C269.5,6.1,263.6,0,255.9,0z M188.9,6.1c-7.5,1.6-11.6,8.2-9.3,16.8l7.5,28.6c2,7,9.1,10.9,17.5,8.4c7.9-2.5,11.1-8.9,8.9-16.1  l-7.9-27.5C203.2,8.2,196.6,4.8,188.9,6.1z M323.1,6.8c-7.3-2.5-14.3,1.1-16.6,9.5l-7.7,27.9c-2,7.3,2,14.8,9.3,16.6  c7.3,1.8,14.5-2,16.6-9.5l7.5-27.9C334.2,15.7,330.4,8.9,323.1,6.8z M128.1,34.1c-6.6,3.9-8.6,12-4.8,18.6l42,73.1  c3.9,6.8,12,8.9,18.4,5c6.6-3.6,8.9-11.8,5-18.4l-42.2-73.3C142.6,32.7,134.6,30.7,128.1,34.1z M384.2,34.3  c-6.6-3.6-14.8-1.6-18.6,4.8l-42,73.3c-4.1,6.6-1.8,14.8,4.8,18.4c6.4,3.9,14.8,1.8,18.4-5l42.2-73.1  C392.6,46.1,390.5,38.1,384.2,34.3z M73.1,73.3c-5.4,5.2-4.8,13.8,0.2,19.1l20.2,20.4c5.7,5.7,13.4,5.9,19.3,0.2  c5.2-5.2,5.4-13.4-0.2-19.3L92.4,73.6C86.5,67.7,78.8,67.9,73.1,73.3z M438.9,73.6c-5.4-5.4-14.1-5-19.1,0L399.2,94  c-5.7,5.9-5.7,13.6,0,19.1c5.4,5.7,13.6,5.7,18.8,0.2l20.2-20.4C443.9,87,444.1,79,438.9,73.6z M34.5,127.8  c-3.9,6.6-1.8,14.8,4.8,18.6l73.1,42.2c6.8,3.9,14.8,1.6,18.6-4.8c3.6-6.6,1.6-14.8-5.2-18.6l-73.1-42.2  C46.1,119.4,38.1,121.5,34.5,127.8z M477.9,128.1c-3.9-6.6-12-8.6-18.6-5l-73.1,42.2c-6.8,3.9-8.9,12-5,18.6  c3.6,6.4,11.8,8.6,18.4,4.8l73.3-42.2C479.3,142.6,481.3,134.6,477.9,128.1z M505.6,189.4c-1.8-7.5-9.5-11.8-16.3-9.8l-28.4,7.7  c-7.3,2-11.6,9.1-9.1,17.5c1.8,5.9,8.2,10.7,16.3,8.6l27.5-7.7C503.6,203.7,507.5,196.4,505.6,189.4z M6.1,189.1  c-1.6,7.3,3,14.5,9.8,16.6l27.9,7.9c7.7,1.8,15-2.3,16.6-9.8c1.6-7.3-1.8-15-9.3-16.8l-27.9-7C15,178,7.7,182.1,6.1,189.1z   M512,255.9c0-7.5-5.9-13.4-13.6-13.4h-84.2c-7.7,0-13.6,5.9-13.6,13.4c0,7.7,5.9,13.6,13.6,13.6h84.2  C506.1,269.5,512,263.6,512,255.9z M0,255.9c0,7.7,6.1,13.6,13.6,13.6h84.2c7.9,0,13.6-5.9,13.6-13.6c0-7.5-5.7-13.4-13.6-13.4H13.6  C6.1,242.5,0,248.4,0,255.9z M505.6,323.5c2-7.7-1.4-14.8-9.3-17l-28.2-7.9c-7.7-2-14.8,2.3-16.6,9.5c-1.8,7.5,2.3,15.2,9.3,17  l27.9,7.3C496.8,334.4,503.6,330.4,505.6,323.5z M6.4,322.9c1.8,7.3,9.5,11.1,16.6,9.5l28.2-7c7.7-2,11.6-9.1,9.5-16.6  c-2-7.3-9.3-11.6-16.8-9.8l-27.2,7.5C8.2,308.8,4.5,315.8,6.4,322.9z M477.7,383.9c3.6-6.4,1.6-14.5-4.8-18.4l-73.3-42.2  c-6.6-3.9-14.8-1.6-18.4,4.8c-3.9,6.6-1.8,14.8,5,18.6l73.1,42.2C465.9,392.6,473.9,390.5,477.7,383.9z M34.3,383.9  c3.6,6.6,11.8,8.6,18.4,5l73.1-42.2c6.8-3.9,8.9-12,5.2-18.4c-3.9-6.6-11.8-8.9-18.6-5l-73.1,42.2C32.7,369.4,30.7,377.4,34.3,383.9  z M128.1,477.7c6.4,3.6,14.8,1.6,18.4-5l42.2-73.1c3.9-6.6,1.6-14.8-4.8-18.6c-6.6-3.6-14.8-1.6-18.6,5.2l-42,73.1  C119.4,465.9,121.5,473.9,128.1,477.7z M383.9,477.7c6.6-3.6,8.6-11.8,5-18.4l-42.2-73.1c-3.6-6.8-12-8.9-18.4-5.2  c-6.6,3.9-8.9,12-4.8,18.6l42,73.1C369.4,479.3,377.4,481.3,383.9,477.7z M438.7,438.9c5.7-5.7,5.2-14.3,0.5-19.3l-20.9-20.4  c-5.4-5.2-13.6-5.9-19.5,0c-5.2,5.7-4.8,13.4,0.5,18.8l20.4,20.4C425.3,444.1,433.2,444.3,438.7,438.9z M73.3,438.7  c5.7,5.4,13.8,5.4,18.8,0.5l20.7-20.4c5.7-5.9,5.9-13.6,0.2-19.1c-5.2-5.4-13.8-5.7-19.1-0.2l-20.2,20.4  C68.1,425.7,67.9,433.2,73.3,438.7z M255.9,512c7.7,0,13.6-6.1,13.6-13.6v-84.2c0-7.7-5.9-13.6-13.6-13.6c-7.5,0-13.4,5.9-13.4,13.6  v84.2C242.5,505.9,248.4,512,255.9,512z M323.1,505.9c8.6-2,11.1-9.5,9.3-16.6l-7.3-28.6c-2-7.3-9.8-11.4-17-9.3  c-7.9,2.3-11.4,9.8-9.3,16.6l8.2,27.7C309.2,503.1,314.9,507.5,323.1,505.9z M187.8,505.6c8.4,2.7,15.9-2.3,17.7-9.3l7.7-27.9  c2-7.3-2-14.8-9.3-16.6c-7.3-1.8-14.5,2-16.6,9.5l-7.5,27.9C177.8,497,180.3,503.4,187.8,505.6z"/>
</svg>