<?xml version="1.0" encoding="UTF-8"?>
<!--Generator: Apple Native CoreSVG 326-->
<!DOCTYPE svg
PUBLIC "-//W3C//DTD SVG 1.1//EN"
       "http://www.w3.org/Graphics/SVG/1.1/DTD/svg11.dtd">
<svg version="1.1" xmlns="http://www.w3.org/2000/svg" xmlns:xlink="http://www.w3.org/1999/xlink" viewBox="0 0 28.5449 28.2129">
 <g>
  <rect height="28.2129" opacity="0" width="28.5449" x="0" y="0"/>
  <path d="M10.4102 0.390625C10.0293 0.46875 9.84375 0.800781 9.94141 1.21094L10.3613 2.83203C10.459 3.18359 10.8008 3.35938 11.2109 3.25195C11.6113 3.13477 11.7578 2.82227 11.6504 2.45117L11.2109 0.898438C11.1035 0.488281 10.7715 0.322266 10.4102 0.390625Z" fill="black" fill-opacity="0.85"/>
  <path d="M7.05078 1.9043C6.72852 2.09961 6.63086 2.5 6.81641 2.82227L9.17969 6.93359C9.36523 7.25586 9.76562 7.37305 10.0781 7.17773C10.4004 7.00195 10.5078 6.60156 10.3125 6.26953L7.93945 2.1582C7.75391 1.8457 7.37305 1.73828 7.05078 1.9043Z" fill="black" fill-opacity="0.85"/>
  <path d="M4.04297 4.07227C3.76953 4.3457 3.80859 4.76562 4.05273 5.01953L5.18555 6.19141C5.46875 6.46484 5.83984 6.47461 6.13281 6.19141C6.38672 5.9375 6.40625 5.53711 6.12305 5.24414L4.98047 4.10156C4.6875 3.80859 4.31641 3.81836 4.04297 4.07227Z" fill="black" fill-opacity="0.85"/>
  <path d="M1.89453 7.07031C1.70898 7.39258 1.80664 7.79297 2.12891 7.96875L6.24023 10.3516C6.57227 10.5469 6.97266 10.4297 7.1582 10.1172C7.34375 9.79492 7.22656 9.39453 6.9043 9.21875L2.7832 6.8457C2.4707 6.66016 2.08008 6.75781 1.89453 7.07031Z" fill="black" fill-opacity="0.85"/>
  <path d="M0.351562 10.4492C0.273438 10.8203 0.498047 11.1621 0.839844 11.2598L2.42188 11.7188C2.79297 11.8066 3.14453 11.6113 3.22266 11.2402C3.31055 10.8789 3.13477 10.5078 2.76367 10.4102L1.19141 10.0098C0.78125 9.91211 0.429688 10.1074 0.351562 10.4492Z" fill="black" fill-opacity="0.85"/>
  <path d="M0 14.1113C0 14.4922 0.302734 14.7754 0.664062 14.7754L5.41016 14.7754C5.79102 14.7754 6.07422 14.4922 6.07422 14.1113C6.07422 13.75 5.79102 13.4668 5.41016 13.4668L0.664062 13.4668C0.302734 13.4668 0 13.75 0 14.1113Z" fill="black" fill-opacity="0.85"/>
  <path d="M0.351562 17.793C0.449219 18.1641 0.830078 18.3496 1.17188 18.2617L2.76367 17.8809C3.14453 17.7734 3.33984 17.4414 3.23242 17.0703C3.13477 16.709 2.7832 16.4941 2.42188 16.5918L0.859375 17.0117C0.449219 17.1191 0.273438 17.4512 0.351562 17.793Z" fill="black" fill-opacity="0.85"/>
  <path d="M1.88477 21.1621C2.07031 21.4844 2.4707 21.582 2.7832 21.3965L6.9043 19.0234C7.22656 18.8477 7.34375 18.4375 7.14844 18.125C6.97266 17.8125 6.57227 17.6953 6.24023 17.8906L2.12891 20.2734C1.80664 20.4492 1.70898 20.8398 1.88477 21.1621Z" fill="black" fill-opacity="0.85"/>
  <path d="M4.04297 24.1699C4.32617 24.4434 4.7168 24.4336 4.9707 24.1895L6.14258 23.0371C6.41602 22.7539 6.42578 22.373 6.16211 22.0996C5.88867 21.8359 5.47852 21.8262 5.21484 22.0996L4.07227 23.252C3.7793 23.5449 3.76953 23.9062 4.04297 24.1699Z" fill="black" fill-opacity="0.85"/>
  <path d="M7.05078 26.3184C7.36328 26.5039 7.76367 26.3965 7.93945 26.084L10.3125 21.9629C10.5078 21.6406 10.4004 21.2402 10.0879 21.0547C9.76562 20.8691 9.36523 20.9766 9.18945 21.3086L6.81641 25.4199C6.63086 25.7422 6.72852 26.1328 7.05078 26.3184Z" fill="black" fill-opacity="0.85"/>
  <path d="M10.3418 27.8516C10.7617 27.9785 11.123 27.7344 11.2109 27.3926L11.6504 25.8203C11.7578 25.459 11.5625 25.0977 11.2109 25.0098C10.8301 24.9121 10.4785 25.0977 10.3809 25.4688L9.96094 27.0508C9.85352 27.4316 9.99023 27.7344 10.3418 27.8516Z" fill="black" fill-opacity="0.85"/>
  <path d="M14.082 28.2129C14.4629 28.2129 14.7461 27.9102 14.7461 27.5488L14.7461 22.8027C14.7461 22.4219 14.4629 22.1387 14.082 22.1387C13.7207 22.1387 13.4277 22.4219 13.4277 22.8027L13.4277 27.5488C13.4277 27.9102 13.7207 28.2129 14.082 28.2129Z" fill="black" fill-opacity="0.85"/>
  <path d="M17.7637 27.8711C18.1934 27.7637 18.3105 27.3926 18.2324 27.0508L17.8223 25.4297C17.7246 25.0781 17.3535 24.8828 17.002 24.9805C16.6016 25.0879 16.4355 25.4492 16.5332 25.791L16.9824 27.3633C17.0898 27.7441 17.3828 27.9395 17.7637 27.8711Z" fill="black" fill-opacity="0.85"/>
  <path d="M21.1328 26.3184C21.4551 26.1426 21.5527 25.7422 21.3672 25.4199L18.9941 21.3086C18.8184 20.9766 18.418 20.8691 18.1055 21.0547C17.7832 21.2402 17.666 21.6406 17.8613 21.9629L20.2344 26.084C20.4199 26.3965 20.8105 26.5039 21.1328 26.3184Z" fill="black" fill-opacity="0.85"/>
  <path d="M24.1211 24.1895C24.4043 23.9062 24.375 23.4863 24.1406 23.2422L22.9785 22.0703C22.7051 21.8164 22.3145 21.7871 22.0215 22.0703C21.7676 22.3535 21.7773 22.7344 22.041 22.998L23.1934 24.1602C23.4766 24.4434 23.8574 24.4434 24.1211 24.1895Z" fill="black" fill-opacity="0.85"/>
  <path d="M26.2891 21.1621C26.4746 20.8496 26.3672 20.4492 26.0547 20.2734L21.9336 17.8906C21.6113 17.6953 21.2109 17.8125 21.0352 18.1152C20.8398 18.4473 20.9473 18.8477 21.2793 19.0234L25.3906 21.3965C25.7129 21.582 26.1035 21.4844 26.2891 21.1621Z" fill="black" fill-opacity="0.85"/>
  <path d="M27.8125 17.8418C27.9199 17.4609 27.7344 17.1191 27.3438 17.0117L25.752 16.543C25.3809 16.4551 25.0391 16.6504 24.9512 17.0117C24.8535 17.3926 25.0586 17.7539 25.4102 17.8516L26.9824 18.2617C27.3828 18.3691 27.7148 18.1738 27.8125 17.8418Z" fill="black" fill-opacity="0.85"/>
  <path d="M28.1836 14.1113C28.1836 13.75 27.8809 13.4668 27.5195 13.4668L22.7637 13.4668C22.3926 13.4668 22.0996 13.75 22.0996 14.1113C22.0996 14.4922 22.3926 14.7754 22.7637 14.7754L27.5195 14.7754C27.8809 14.7754 28.1836 14.4922 28.1836 14.1113Z" fill="black" fill-opacity="0.85"/>
  <path d="M27.8223 10.4688C27.7246 10.0879 27.3438 9.89258 27.0117 9.99023L25.4102 10.4102C25.0488 10.5176 24.834 10.8496 24.9609 11.2598C25.0488 11.5625 25.3613 11.7969 25.752 11.6895L27.3242 11.2598C27.7148 11.1523 27.9004 10.8105 27.8223 10.4688Z" fill="black" fill-opacity="0.85"/>
  <path d="M26.2988 7.07031C26.1133 6.75781 25.7129 6.66016 25.3906 6.8457L21.2793 9.20898C20.9473 9.39453 20.8398 9.79492 21.0352 10.1172C21.2109 10.4297 21.6113 10.5469 21.9336 10.3516L26.0547 7.96875C26.3672 7.7832 26.4746 7.40234 26.2988 7.07031Z" fill="black" fill-opacity="0.85"/>
  <path d="M24.1406 4.10156C23.8672 3.82812 23.457 3.85742 23.2031 4.10156L22.0312 5.25391C21.7578 5.53711 21.7578 5.9082 22.0215 6.18164C22.3047 6.46484 22.6953 6.46484 22.959 6.19141L24.1016 5.03906C24.3945 4.73633 24.4043 4.36523 24.1406 4.10156Z" fill="black" fill-opacity="0.85"/>
  <path d="M21.1328 1.91406C20.8203 1.73828 20.4199 1.8457 20.2344 2.1582L17.8613 6.26953C17.666 6.60156 17.7832 7.00195 18.0957 7.17773C18.418 7.37305 18.8184 7.25586 18.9941 6.93359L21.3672 2.82227C21.5527 2.5 21.4551 2.10938 21.1328 1.91406Z" fill="black" fill-opacity="0.85"/>
  <path d="M17.7832 0.419922C17.4121 0.3125 17.0703 0.488281 16.9629 0.898438L16.5234 2.4707C16.416 2.83203 16.6113 3.19336 16.9629 3.28125C17.3438 3.36914 17.6953 3.18359 17.793 2.82227L18.2129 1.23047C18.3203 0.849609 18.125 0.527344 17.7832 0.419922Z" fill="black" fill-opacity="0.85"/>
  <path d="M14.082 0.0292969C13.7207 0.0292969 13.4277 0.332031 13.4277 0.693359L13.4277 5.43945C13.4277 5.82031 13.7207 6.10352 14.082 6.10352C14.4629 6.10352 14.7461 5.82031 14.7461 5.43945L14.7461 0.693359C14.7461 0.332031 14.4629 0.0292969 14.082 0.0292969Z" fill="black" fill-opacity="0.85"/>
 </g>
</svg>
