<?xml version="1.0" encoding="UTF-8"?>
<!--Generator: Apple Native CoreSVG 326-->
<!DOCTYPE svg
PUBLIC "-//W3C//DTD SVG 1.1//EN"
       "http://www.w3.org/Graphics/SVG/1.1/DTD/svg11.dtd">
<svg version="1.1" xmlns="http://www.w3.org/2000/svg" xmlns:xlink="http://www.w3.org/1999/xlink" viewBox="0 0 25.8008 25.459">
 <g>
  <rect height="25.459" opacity="0" width="25.8008" x="0" y="0"/>
  <path d="M12.7148 25.4395C19.7363 25.4395 25.4395 19.7461 25.4395 12.7246C25.4395 5.70312 19.7363 0 12.7148 0C5.69336 0 0 5.70312 0 12.7246C0 19.7461 5.69336 25.4395 12.7148 25.4395ZM12.7148 23.623C6.68945 23.623 1.81641 18.75 1.81641 12.7246C1.81641 6.69922 6.68945 1.82617 12.7148 1.82617C18.7402 1.82617 23.6133 6.69922 23.6133 12.7246C23.6133 18.75 18.7402 23.623 12.7148 23.623Z" fill="black" fill-opacity="0.85"/>
  <path d="M8.55469 6.02539L16.875 6.02539C17.1484 6.02539 17.373 5.80078 17.373 5.52734C17.373 5.25391 17.1484 5.0293 16.875 5.0293L8.55469 5.0293C8.28125 5.0293 8.05664 5.25391 8.05664 5.52734C8.05664 5.80078 8.28125 6.02539 8.55469 6.02539ZM12.7246 9.96094C14.2578 9.96094 15.5957 10.166 16.543 10.5664L16.8262 6.76758L8.60352 6.76758L8.89648 10.5664C9.85352 10.1758 11.1914 9.96094 12.7246 9.96094ZM12.7246 14.1309C15.4688 14.1309 17.4121 13.418 17.4121 12.4121C17.4121 11.4062 15.4395 10.7031 12.7246 10.7031C10 10.7031 8.01758 11.4062 8.01758 12.4121C8.01758 13.418 10 14.1309 12.7246 14.1309ZM12.7246 13.0957C10.7129 13.0957 9.44336 12.793 9.44336 12.4121C9.44336 12.0312 10.7129 11.7285 12.7246 11.7285C14.7266 11.7285 15.9863 12.0312 15.9863 12.4121C15.9863 12.793 14.7266 13.0957 12.7246 13.0957ZM12.5195 17.1875L12.9102 17.1875C15.1367 17.1875 16.8457 15.9473 17.2949 13.8281C16.3672 14.4824 14.7363 14.8535 12.7246 14.8535C10.7324 14.8535 9.07227 14.4824 8.13477 13.8184C8.57422 15.9473 10.293 17.1875 12.5195 17.1875ZM12.7148 21.2695C13.8574 21.2695 15.2539 20.9668 15.8496 20.4004C16.0352 20.2148 16.0352 20 15.9668 19.7363L15.2832 17.4316C14.5703 17.7637 13.7402 17.9297 12.9102 17.9297L12.5 17.9297C11.6797 17.9297 10.8594 17.7637 10.1465 17.4512L9.46289 19.7363C9.39453 20 9.39453 20.2148 9.58008 20.4004C10.1758 20.9668 11.5723 21.2695 12.7148 21.2695Z" fill="black" fill-opacity="0.85"/>
 </g>
</svg>
