<?xml version="1.0" encoding="UTF-8"?>
<!--Generator: Apple Native CoreSVG 326-->
<!DOCTYPE svg
PUBLIC "-//W3C//DTD SVG 1.1//EN"
       "http://www.w3.org/Graphics/SVG/1.1/DTD/svg11.dtd">
<svg version="1.1" xmlns="http://www.w3.org/2000/svg" xmlns:xlink="http://www.w3.org/1999/xlink" viewBox="0 0 17.8516 29.6582">
 <g>
  <rect height="29.6582" opacity="0" width="17.8516" x="0" y="0"/>
  <path d="M1.20117 1.72852L16.2793 1.72852C16.748 1.72852 17.1387 1.33789 17.1387 0.859375C17.1387 0.390625 16.748 0 16.2793 0L1.20117 0C0.732422 0 0.332031 0.390625 0.332031 0.859375C0.332031 1.33789 0.732422 1.72852 1.20117 1.72852ZM1.81641 11.9922L3.49609 11.3379L3.10547 4.50195L14.375 4.50195L13.9844 11.3379L15.6543 11.9922L16.2402 2.95898L1.24023 2.95898ZM8.74023 16.5527C13.8965 16.5527 17.4902 15.2051 17.4902 13.2715C17.4902 11.4062 13.8965 10.1172 8.74023 10.1172C3.59375 10.1172 0 11.4062 0 13.2715C0 15.2051 3.59375 16.5527 8.74023 16.5527ZM8.74023 15.0684C4.78516 15.0684 2.10938 14.3359 2.10938 13.2715C2.10938 12.2852 4.78516 11.5918 8.74023 11.5918C12.7051 11.5918 15.3809 12.2852 15.3809 13.2715C15.3809 14.3359 12.7051 15.0684 8.74023 15.0684ZM8.30078 22.1875L9.19922 22.1875C14.1406 22.1875 17.4902 18.5938 17.4902 13.2715L15.8789 13.2715C15.8789 17.6172 13.2031 20.5371 9.19922 20.5371L8.30078 20.5371C4.29688 20.5371 1.61133 17.6172 1.61133 13.2715L0 13.2715C0 18.5938 3.34961 22.1875 8.30078 22.1875ZM8.91602 29.6582C11.1914 29.6582 13.7695 29.1016 14.8828 28.0176C15.2148 27.6953 15.2148 27.2949 15.0879 26.8262L13.1152 20.2246L11.5625 21.1035L13.584 27.8711L13.6719 26.7676C12.8418 27.5 10.9277 27.9297 8.91602 27.9297C6.9043 27.9297 4.99023 27.5 4.16992 26.7676L4.24805 27.8711L6.26953 21.1035L4.73633 20.2246L2.75391 26.8262C2.61719 27.2949 2.62695 27.6953 2.95898 28.0176C4.07227 29.1016 6.64062 29.6582 8.91602 29.6582Z" fill="black" fill-opacity="0.85"/>
 </g>
</svg>
