<?xml version="1.0" encoding="UTF-8"?>
<!--Generator: Apple Native CoreSVG 326-->
<!DOCTYPE svg
PUBLIC "-//W3C//DTD SVG 1.1//EN"
       "http://www.w3.org/Graphics/SVG/1.1/DTD/svg11.dtd">
<svg version="1.1" xmlns="http://www.w3.org/2000/svg" xmlns:xlink="http://www.w3.org/1999/xlink" viewBox="0 0 25.8008 25.459">
 <g>
  <rect height="25.459" opacity="0" width="25.8008" x="0" y="0"/>
  <path d="M25.4395 12.7344C25.4395 19.7461 19.7266 25.459 12.7148 25.459C5.71289 25.459 0 19.7461 0 12.7344C0 5.73242 5.71289 0.0195312 12.7148 0.0195312C19.7266 0.0195312 25.4395 5.73242 25.4395 12.7344ZM13.4961 19.4824C13.0957 19.5312 12.666 19.541 12.2559 19.4824C11.8945 19.4336 11.6699 19.6484 11.6211 19.9023C11.582 20.1758 11.748 20.4492 12.1387 20.5176C12.5879 20.5664 13.1641 20.5566 13.6328 20.5078C13.9941 20.4492 14.1699 20.1953 14.1406 19.9121C14.1016 19.6387 13.877 19.4238 13.4961 19.4824ZM16.5234 16.9922C15.3711 17.3047 14.0137 17.3926 12.8027 17.2168C12.4316 17.1875 12.168 17.373 12.1191 17.6758C12.0898 17.9688 12.2559 18.2227 12.6367 18.2812C13.9355 18.4277 15.5371 18.4082 16.8848 18.0176C17.2363 17.9102 17.373 17.5977 17.2852 17.3145C17.1875 17.0117 16.9043 16.8848 16.5234 16.9922ZM18.1641 14.2676C16.6406 14.7754 15.0195 15.0488 13.3105 15.0488C12.5781 15.0488 11.8262 14.9902 11.2305 14.9121C10.8691 14.873 10.6152 15.0293 10.5566 15.3125C10.5078 15.6055 10.6641 15.8887 11.0547 15.9668C11.6211 16.0645 12.4316 16.1133 13.3105 16.1035C15.2246 16.0938 16.9922 15.8105 18.5742 15.2734C18.9648 15.1465 19.043 14.7949 18.9453 14.5312C18.8477 14.248 18.5449 14.1406 18.1641 14.2676ZM18.0957 11.8945C16.7676 12.4219 14.8535 12.7441 12.8027 12.7441C11.2598 12.7441 9.49219 12.5488 8.16406 12.168C7.82227 12.0605 7.50977 12.1777 7.41211 12.4902C7.33398 12.793 7.5 13.0957 7.85156 13.1934C9.29688 13.6133 11.2109 13.8281 12.8027 13.8281C15.0586 13.8281 17.1289 13.4668 18.584 12.8418C18.8965 12.7148 19.043 12.3926 18.8965 12.0996C18.75 11.8164 18.4473 11.7578 18.0957 11.8945ZM9.47266 5.01953C7.09961 5.73242 5.88867 7.00195 5.88867 8.35938C5.88867 10.4395 8.25195 11.5039 12.5977 11.5039C16.8457 11.5039 19.541 10.4395 19.541 8.84766C19.541 7.40234 17.4902 6.55273 14.6191 6.55273C12.5195 6.55273 10.8203 6.96289 9.52148 7.55859C9.15039 7.74414 9.0625 8.125 9.21875 8.39844C9.35547 8.69141 9.73633 8.7793 10.0684 8.62305C11.1914 8.14453 12.627 7.68555 14.5703 7.68555C16.9727 7.68555 18.3301 8.22266 18.3301 8.83789C18.3301 9.54102 16.1328 10.3418 12.5586 10.3418C8.94531 10.3418 7.09961 9.62891 7.09961 8.33984C7.09961 7.55859 7.85156 6.73828 9.85352 6.11328C10.2051 5.99609 10.3906 5.68359 10.293 5.35156C10.1855 5.0293 9.88281 4.91211 9.47266 5.01953Z" fill="black" fill-opacity="0.85"/>
 </g>
</svg>
