<?xml version="1.0" encoding="UTF-8"?>
<!--Generator: Apple Native CoreSVG 326-->
<!DOCTYPE svg
PUBLIC "-//W3C//DTD SVG 1.1//EN"
       "http://www.w3.org/Graphics/SVG/1.1/DTD/svg11.dtd">
<svg version="1.1" xmlns="http://www.w3.org/2000/svg" xmlns:xlink="http://www.w3.org/1999/xlink" viewBox="0 0 25.8008 25.459">
 <g>
  <rect height="25.459" opacity="0" width="25.8008" x="0" y="0"/>
  <path d="M12.7148 25.4395C19.7363 25.4395 25.4395 19.7461 25.4395 12.7246C25.4395 5.70312 19.7363 0 12.7148 0C5.69336 0 0 5.70312 0 12.7246C0 19.7461 5.69336 25.4395 12.7148 25.4395ZM12.7148 23.623C6.68945 23.623 1.81641 18.75 1.81641 12.7246C1.81641 6.69922 6.68945 1.82617 12.7148 1.82617C18.7402 1.82617 23.6133 6.69922 23.6133 12.7246C23.6133 18.75 18.7402 23.623 12.7148 23.623Z" fill="black" fill-opacity="0.85"/>
  <path d="M12.5977 11.5234C16.748 11.5234 19.3848 10.4785 19.3848 8.91602C19.3848 7.51953 17.373 6.67969 14.5703 6.67969C12.5293 6.67969 10.8691 7.08008 9.60938 7.67578C9.23828 7.8418 9.15039 8.21289 9.29688 8.47656C9.43359 8.76953 9.80469 8.84766 10.127 8.71094C11.2207 8.23242 12.627 7.79297 14.5312 7.79297C16.875 7.79297 18.2031 8.32031 18.2031 8.90625C18.2031 9.59961 16.0547 10.3809 12.5586 10.3809C9.0332 10.3809 7.22656 9.69727 7.22656 8.4375C7.22656 7.66602 7.96875 6.86523 9.91211 6.25977C10.2539 6.14258 10.4395 5.83008 10.3418 5.51758C10.2344 5.20508 9.94141 5.07812 9.55078 5.19531C7.24609 5.87891 6.04492 7.12891 6.04492 8.45703C6.04492 10.4688 8.36914 11.5234 12.5977 11.5234ZM12.8027 13.7793C15 13.7793 17.0312 13.4277 18.4473 12.8223C18.75 12.6953 18.8867 12.3828 18.75 12.0996C18.6133 11.8262 18.3203 11.7676 17.9785 11.8945C16.6699 12.4219 14.8047 12.7344 12.8027 12.7344C11.2891 12.7344 9.56055 12.5391 8.26172 12.168C7.92969 12.0703 7.62695 12.1875 7.53906 12.4805C7.46094 12.7832 7.61719 13.0664 7.95898 13.1641C9.375 13.5742 11.2402 13.7793 12.8027 13.7793ZM13.3008 16.0059C15.166 15.9961 16.8945 15.7227 18.4375 15.2051C18.8086 15.0684 18.8965 14.7266 18.7988 14.4824C18.7012 14.1992 18.3984 14.1016 18.0371 14.2285C16.5527 14.7168 14.9707 14.9805 13.3008 14.9805C12.5781 14.9805 11.8457 14.9316 11.2598 14.8438C10.9082 14.8047 10.6641 14.9707 10.6055 15.2441C10.5566 15.5176 10.7129 15.8008 11.0938 15.8691C11.6504 15.9668 12.4414 16.0156 13.3008 16.0059ZM12.6367 18.125C13.9062 18.2812 15.4688 18.252 16.7871 17.8711C17.1289 17.7637 17.2656 17.4609 17.1777 17.1875C17.0801 16.8945 16.7969 16.7773 16.4355 16.875C15.3125 17.1777 13.9844 17.2656 12.8027 17.1094C12.4414 17.0703 12.1875 17.2461 12.1387 17.5391C12.1094 17.8223 12.2656 18.0762 12.6367 18.125ZM12.1484 20.3125C12.5879 20.3613 13.1543 20.3613 13.6133 20.3027C13.9648 20.2441 14.1309 20.0098 14.1016 19.7266C14.0625 19.4629 13.8477 19.248 13.4766 19.3066C13.0859 19.3555 12.666 19.375 12.2656 19.3066C11.9141 19.2578 11.6992 19.4727 11.6504 19.7168C11.6113 19.9805 11.7676 20.2441 12.1484 20.3125Z" fill="black" fill-opacity="0.85"/>
 </g>
</svg>
