<?xml version="1.0" encoding="UTF-8"?>
<!--Generator: Apple Native CoreSVG 326-->
<!DOCTYPE svg
PUBLIC "-//W3C//DTD SVG 1.1//EN"
       "http://www.w3.org/Graphics/SVG/1.1/DTD/svg11.dtd">
<svg version="1.1" xmlns="http://www.w3.org/2000/svg" xmlns:xlink="http://www.w3.org/1999/xlink" viewBox="0 0 23.9648 27.5501">
 <g>
  <rect height="27.5501" opacity="0" width="23.9648" x="0" y="0"/>
  <path d="M11.582 11.0456C19.0625 11.0456 23.6035 9.17057 23.6035 6.56315C23.6035 4.2194 20.1562 2.75456 15.166 2.75456C11.4844 2.75456 8.54492 3.47721 6.28906 4.5319C5.75195 4.78581 5.63477 5.29362 5.83008 5.67448C6.04492 6.08464 6.57227 6.19206 7.03125 5.99675C9.04297 5.14714 11.6211 4.32682 15.0781 4.32682C19.3652 4.32682 21.9336 5.35221 21.9336 6.55339C21.9336 7.9694 17.8906 9.43425 11.5137 9.43425C5.14648 9.43425 1.67969 8.14518 1.67969 5.69401C1.67969 4.2194 3.08594 2.67643 6.69922 1.53385C7.2168 1.36784 7.44141 0.947917 7.29492 0.498698C7.13867 0.0592453 6.73828-0.10677 6.15234 0.0690109C2.06055 1.28971 0 3.45768 0 5.74284C0 9.1901 4.00391 11.0456 11.582 11.0456ZM11.9727 15.1374C15.8984 15.1374 19.5117 14.5026 22.0605 13.4284C22.4902 13.2526 22.6953 12.8229 22.4902 12.4421C22.2949 12.071 21.8945 12.0026 21.3965 12.1882C19.0137 13.1257 15.6152 13.7116 11.9727 13.7116C9.22852 13.7116 6.07422 13.36 3.71094 12.6764C3.22266 12.5299 2.8125 12.6764 2.69531 13.0964C2.56836 13.5065 2.7832 13.8874 3.28125 14.0241C5.83008 14.7565 9.14062 15.1374 11.9727 15.1374ZM12.8516 19.1706C16.1816 19.151 19.2773 18.6432 22.041 17.7057C22.6172 17.5202 22.7051 17.0612 22.5781 16.7194C22.4219 16.3385 22.0312 16.2214 21.4746 16.3971C18.7598 17.2956 15.8984 17.7546 12.8516 17.7546C11.5527 17.7546 10.2148 17.6764 9.16016 17.5299C8.63281 17.4518 8.30078 17.6667 8.23242 18.0573C8.16406 18.4479 8.36914 18.819 8.93555 18.9167C9.91211 19.0827 11.2988 19.1803 12.8516 19.1706ZM11.6895 22.9987C13.9551 23.2624 16.748 23.2135 19.082 22.5397C19.5703 22.4128 19.7559 21.9733 19.6289 21.5924C19.502 21.1921 19.1113 21.0456 18.5938 21.1823C16.5332 21.7292 14.1211 21.9049 11.9238 21.6217C11.416 21.5534 11.0449 21.7975 10.9961 22.1882C10.9375 22.5983 11.1426 22.9303 11.6895 22.9987ZM10.8301 26.944C11.5918 27.0514 12.5879 27.0319 13.3887 26.9342C13.8867 26.8659 14.1211 26.5436 14.082 26.1432C14.0332 25.7819 13.7402 25.5182 13.2031 25.5866C12.5098 25.6842 11.6797 25.694 10.9668 25.6061C10.4688 25.5378 10.166 25.8014 10.1074 26.1432C10.0586 26.5241 10.293 26.8757 10.8301 26.944Z" fill="black" fill-opacity="0.85"/>
 </g>
</svg>
