<?xml version="1.0" encoding="UTF-8"?>
<!--Generator: Apple Native CoreSVG 326-->
<!DOCTYPE svg
PUBLIC "-//W3C//DTD SVG 1.1//EN"
       "http://www.w3.org/Graphics/SVG/1.1/DTD/svg11.dtd">
<svg version="1.1" xmlns="http://www.w3.org/2000/svg" xmlns:xlink="http://www.w3.org/1999/xlink" viewBox="0 0 27.7298 26.9629">
 <g>
  <rect height="26.9629" opacity="0" width="27.7298" x="0" y="0"/>
  <path d="M1.32586 17.6367C1.64813 17.5391 1.81414 17.207 1.71648 16.7969C1.39422 15.5664 1.2282 14.0918 1.27703 12.3828C1.2868 11.9824 1.05242 11.748 0.720391 11.7285C0.290704 11.6992 0.0563286 11.9727 0.0270317 12.3145C-0.0608589 13.7598 0.0563286 15.5176 0.515313 17.1582C0.622735 17.5586 0.974297 17.7441 1.32586 17.6367ZM0.827813 10.2148C1.15008 10.332 1.56023 10.2051 1.71648 9.77539C3.71844 4.05273 8.59148 1.25977 13.5134 1.25977C15.8376 1.25977 17.6247 1.76758 19.07 2.62695C19.4411 2.85156 19.8708 2.82227 20.027 2.46094C20.2028 2.07031 19.9977 1.81641 19.7145 1.64062C17.9274 0.498047 15.9841 0 13.5134 0C7.93719 0 2.76141 2.99805 0.505547 9.16016C0.300469 9.70703 0.505547 10.0879 0.827813 10.2148ZM26.7848 14.6582C27.1462 14.6582 27.4098 14.3652 27.3708 13.9746C26.8434 9.01367 25.1052 5.69336 22.2536 3.23242C21.9411 2.95898 21.5407 3.01758 21.3454 3.24219C21.1208 3.48633 21.1013 3.85742 21.4333 4.16016C23.9626 6.48438 25.7399 9.50195 26.1598 13.9941C26.1989 14.3652 26.4235 14.6582 26.7848 14.6582Z" fill="black" fill-opacity="0.85"/>
  <path d="M2.86883 21.2793C3.07391 21.582 3.50359 21.6504 3.81609 21.377C4.70477 20.6348 5.15398 19.4043 5.14422 18.1934C5.13445 16.4355 4.3825 15.5859 4.3825 13.3691C4.3825 8.48633 8.49383 4.375 13.3864 4.375C19.4216 4.375 23.2204 9.25781 23.2497 16.377C23.2497 19.082 22.82 21.0938 22.322 22.373C22.1657 22.7344 22.3122 23.1055 22.6052 23.2422C22.9079 23.3789 23.3376 23.2617 23.4743 22.8906C24.0016 21.4355 24.4899 19.248 24.4899 16.3672C24.4899 8.52539 20.1833 3.13477 13.3864 3.13477C7.81023 3.13477 3.14227 7.80273 3.14227 13.3691C3.14227 15.4492 3.91375 16.8555 3.93328 18.1836C3.93328 19.0332 3.60125 19.873 2.99578 20.4004C2.73211 20.625 2.68328 21.0156 2.86883 21.2793Z" fill="black" fill-opacity="0.85"/>
  <path d="M8.36688 16.9336C8.02508 16.0449 7.52703 14.8926 7.52703 13.5059C7.52703 10.0781 10.0954 7.50977 13.5134 7.50977C14.7731 7.50977 15.3395 7.69531 16.404 8.25195C16.7555 8.42773 17.0778 8.32031 17.2048 8.07617C17.3708 7.77344 17.3122 7.39258 16.902 7.14844C16.0231 6.61133 14.7634 6.25 13.5134 6.25C9.40203 6.25 6.26727 9.38477 6.26727 13.5059C6.26727 14.9512 6.66766 16.2402 7.14617 17.4121C7.31219 17.793 7.65398 17.959 8.03484 17.8027C8.36688 17.666 8.49383 17.3047 8.36688 16.9336Z" fill="black" fill-opacity="0.85"/>
  <path d="M5.71063 23.5938C6.63836 23.1152 7.90789 21.4941 8.24969 20.1758C8.33758 19.8438 8.18133 19.4824 7.83953 19.3652C7.51727 19.2676 7.18523 19.4434 7.06805 19.8145C6.72625 20.9863 6.06219 21.8359 5.14422 22.4707C4.74383 22.7441 4.695 23.1055 4.82195 23.3691C4.95867 23.6426 5.31023 23.7988 5.71063 23.5938ZM18.3278 9.90234C19.5388 11.6797 20.1345 14.1797 20.1345 17.0898C20.1345 20.1953 19.2848 23.1641 17.8981 24.9512C17.693 25.2246 17.654 25.6055 17.9079 25.8496C18.1716 26.1133 18.6305 26.1035 18.8649 25.8008C20.4079 23.7012 21.3747 20.4492 21.3747 17.0508C21.3747 13.457 20.5934 11.084 19.4313 9.24805C19.197 8.86719 18.8063 8.76953 18.4938 8.93555C18.1716 9.11133 18.0739 9.52148 18.3278 9.90234Z" fill="black" fill-opacity="0.85"/>
  <path d="M8.33758 25.2344C10.3591 23.6035 11.4821 21.0059 11.4626 18.1152C11.443 15.9375 10.6716 14.5801 10.6716 13.3496C10.6716 11.7285 11.8141 10.6445 13.4548 10.6445C15.945 10.6445 16.863 13.3691 16.9216 16.9336C17.0192 20.8887 15.5837 24.1602 13.7282 25.8105C13.4645 26.0449 13.4059 26.3965 13.5915 26.6602C13.7966 26.9629 14.236 27.0215 14.529 26.748C16.5114 24.9512 18.1227 21.084 18.1032 16.8555C18.0837 12.5488 16.8239 9.4043 13.4548 9.4043C11.1794 9.4043 9.44109 10.9375 9.44109 13.2422C9.44109 14.6289 10.193 16.3574 10.2028 18.1152C10.2223 20.6152 9.27508 22.8418 7.55633 24.248C7.24383 24.502 7.20477 24.8633 7.39031 25.1465C7.61492 25.459 8.02508 25.498 8.33758 25.2344Z" fill="black" fill-opacity="0.85"/>
  <path d="M11.2282 26.25C12.2243 25.5176 13.4059 23.9746 13.9528 22.2461C14.0309 21.9824 13.9723 21.5723 13.6208 21.4551C13.2497 21.3281 12.9177 21.5039 12.8102 21.8066C12.1462 23.5645 11.3259 24.5801 10.4665 25.2344C10.1833 25.459 10.0954 25.8398 10.2907 26.123C10.4763 26.4355 10.9059 26.4844 11.2282 26.25ZM14.6559 19.4238C15.027 17.7734 14.8708 15.5371 14.2263 13.7207C14.0798 13.291 13.7477 13.1348 13.4059 13.252C13.0739 13.3496 12.8884 13.6719 13.0055 14.0527C13.611 15.8203 13.7477 17.7148 13.4255 19.248C13.3571 19.5898 13.4938 19.9121 13.8747 19.9805C14.2458 20.0488 14.5778 19.834 14.6559 19.4238Z" fill="black" fill-opacity="0.85"/>
 </g>
</svg>
