<?xml version="1.0" encoding="UTF-8"?>
<!--Generator: Apple Native CoreSVG 326-->
<!DOCTYPE svg
PUBLIC "-//W3C//DTD SVG 1.1//EN"
       "http://www.w3.org/Graphics/SVG/1.1/DTD/svg11.dtd">
<svg version="1.1" xmlns="http://www.w3.org/2000/svg" xmlns:xlink="http://www.w3.org/1999/xlink" viewBox="0 0 41.1035 25.9473">
 <g>
  <rect height="25.9473" opacity="0" width="41.1035" x="0" y="0"/>
  <path d="M39.248 21.2012C40.0586 21.2012 40.7422 20.5371 40.7422 19.7656C40.7422 18.9648 40.0684 18.3203 39.248 18.3203C38.4277 18.3203 37.7637 18.9648 37.7637 19.7656C37.7637 20.5371 38.4473 21.2012 39.248 21.2012ZM39.248 15.7617C39.7754 15.7617 40.1465 15.3809 40.166 14.8438L40.3809 5.84961C40.4004 5.16602 39.9512 4.7168 39.248 4.7168C38.5547 4.7168 38.1055 5.16602 38.125 5.84961L38.3398 14.8438C38.3594 15.3809 38.7305 15.7617 39.248 15.7617Z" fill="black" fill-opacity="0.85"/>
  <path d="M0 8.92578C0 10.2344 1.05469 11.2891 2.36328 11.2891L5.01953 11.2891C5.6543 11.2891 6.03516 11.5137 6.42578 12.1289L11.3379 19.9707C12.4219 21.6797 13.6133 22.3926 16.123 22.3926L31.4258 22.3926C32.7344 22.3926 33.7891 21.3477 33.7891 20.0391C33.7891 18.7207 32.7344 17.6758 31.4258 17.6758L16.2305 17.6758C15.5957 17.6758 15.2246 17.5195 14.9805 17.0996L9.96094 8.92578C8.97461 7.31445 7.58789 6.5625 5.87891 6.5625L2.36328 6.5625C1.05469 6.5625 0 7.61719 0 8.92578ZM20.6445 13.3496L27.0312 13.3496C27.4414 13.3496 27.8418 13.2324 28.1836 12.9883C29.9023 11.6406 31.0449 9.58008 31.0449 7.25586C31.0449 3.33984 27.7734 0.0390625 23.8379 0.0390625C19.9121 0.0390625 16.6504 3.33984 16.6504 7.25586C16.6504 9.58008 17.7637 11.6406 19.4824 12.9785C19.8145 13.2422 20.2344 13.3496 20.6445 13.3496ZM21.3477 16.6309L26.2695 16.6309L26.2695 13.0762L21.3477 13.0762ZM23.8379 25.9473C25.2637 25.9473 26.2695 24.9121 26.2695 23.4863L26.2695 23.4375L21.3477 23.4375L21.3477 23.4863C21.3477 24.9121 22.3828 25.9473 23.8379 25.9473Z" fill="black" fill-opacity="0.85"/>
 </g>
</svg>
