<?xml version="1.0" encoding="UTF-8"?>
<!--Generator: Apple Native CoreSVG 326-->
<!DOCTYPE svg
PUBLIC "-//W3C//DTD SVG 1.1//EN"
       "http://www.w3.org/Graphics/SVG/1.1/DTD/svg11.dtd">
<svg version="1.1" xmlns="http://www.w3.org/2000/svg" xmlns:xlink="http://www.w3.org/1999/xlink" viewBox="0 0 34.4531 25.8691">
 <g>
  <rect height="25.8691" opacity="0" width="34.4531" x="0" y="0"/>
  <path d="M0 8.90625C0 10.5371 1.2207 11.7383 2.86133 11.7383L4.52148 11.7383C5.6543 11.7383 6.07422 11.9824 6.57227 12.7734L11.5723 20.752C12.2852 21.8945 13.4863 22.8516 15.625 22.8516L31.2305 22.8516C32.8711 22.8516 34.0918 21.6211 34.0918 19.9707C34.0918 18.3398 32.8711 17.1387 31.2305 17.1387L16.7188 17.1387C16.2695 17.1387 15.8398 17.0508 15.6055 16.6797L10.7227 8.71094C9.55078 6.77734 8.08594 6.02539 6.07422 6.02539L2.86133 6.02539C1.2207 6.02539 0 7.25586 0 8.90625ZM1.63086 8.89648C1.63086 8.16406 2.13867 7.65625 2.86133 7.65625L5.625 7.66602C7.5 7.67578 8.37891 8.07617 9.28711 9.54102L14.3066 17.6172C14.8145 18.4277 15.4395 18.7695 16.5625 18.7695L31.2305 18.7695C31.9434 18.7695 32.4609 19.2773 32.4609 19.9805C32.4609 20.7227 31.9434 21.2207 31.2305 21.2207L15.9375 21.2207C14.1992 21.2207 13.4473 20.7324 12.7148 19.5605L7.72461 11.5625C7.01172 10.4395 6.35742 10.1074 4.86328 10.1074L2.86133 10.1074C2.13867 10.1074 1.63086 9.59961 1.63086 8.89648ZM20.5371 13.7402L27.1289 13.7402C27.5586 13.7402 27.9688 13.623 28.3203 13.3691C30.0977 11.9824 31.2695 9.85352 31.2695 7.46094C31.2695 3.4082 27.9004 0 23.8379 0C19.7852 0 16.416 3.4082 16.416 7.46094C16.416 9.85352 17.5684 11.9824 19.3359 13.3594C19.6875 13.623 20.1172 13.7402 20.5371 13.7402ZM21.1035 12.0801C20.5566 12.0801 20.1855 11.9727 19.7754 11.5527C18.7793 10.5176 18.1445 9.10156 18.1445 7.46094C18.1445 4.19922 20.6543 1.74805 23.8477 1.74805C27.0508 1.74805 29.5117 4.19922 29.5117 7.46094C29.5117 9.0918 28.9062 10.5176 27.9102 11.5234C27.4902 11.9727 27.1387 12.0801 26.582 12.0801ZM21.3477 17.9297L26.2695 17.9297L26.2695 13.0371L21.3477 13.0371ZM23.8379 25.791C25.2637 25.791 26.2695 24.7559 26.2695 23.3301L26.2695 22.2559L21.3477 22.2559L21.3477 23.3301C21.3477 24.7559 22.3828 25.791 23.8379 25.791Z" fill="black" fill-opacity="0.85"/>
 </g>
</svg>
