<?xml version="1.0" encoding="UTF-8"?>
<!--Generator: Apple Native CoreSVG 326-->
<!DOCTYPE svg
PUBLIC "-//W3C//DTD SVG 1.1//EN"
       "http://www.w3.org/Graphics/SVG/1.1/DTD/svg11.dtd">
<svg version="1.1" xmlns="http://www.w3.org/2000/svg" xmlns:xlink="http://www.w3.org/1999/xlink" viewBox="0 0 29.1724 28.8282">
 <g>
  <rect height="28.8282" opacity="0" width="29.1724" x="0" y="0"/>
  <path d="M5.51665 8.18634C4.34822 9.949 3.52662 12.0437 3.52662 14.4873C3.52662 18.0518 5.31373 20.542 7.88209 22.085L19.4153 22.085L23.5907 26.2604C23.4537 26.5426 23.1566 26.7432 22.8235 26.7432C22.384 26.7432 21.9934 26.3623 21.9934 25.9131L21.9934 25.1807L20.1965 25.1807L20.1965 25.9131C20.1965 26.3623 19.8059 26.7432 19.3567 26.7432C18.9075 26.7432 18.5169 26.3623 18.5169 25.9131L18.5169 25.1807L16.8762 25.1807L16.8762 25.9131C16.8762 26.3623 16.4758 26.7432 16.0364 26.7432C15.5969 26.7432 15.1965 26.3623 15.1965 25.9131L15.1965 25.1807L13.595 25.1807L13.595 25.9131C13.595 26.3623 13.2141 26.7432 12.7551 26.7432C12.3157 26.7432 11.9153 26.3623 11.9153 25.9131L11.9153 25.1807L10.2747 25.1807L10.2747 25.9131C10.2747 26.3623 9.88404 26.7432 9.43482 26.7432C8.9856 26.7432 8.59498 26.3623 8.59498 25.9131L8.59498 25.1807L6.7981 25.1807L6.7981 25.9131C6.7981 26.3623 6.40748 26.7432 5.96802 26.7432C5.50904 26.7432 5.12818 26.3623 5.12818 25.9131L5.12818 24.1162C5.12818 23.3545 4.78638 22.4854 4.17115 21.5674C2.93091 19.7705 1.7981 17.4756 1.7981 14.4873C1.7981 11.6058 2.80281 9.05634 4.29002 6.95971ZM23.4192 2.88576L23.4192 4.76076C23.4192 5.3467 23.4778 5.56154 24.1321 6.43068C25.8313 8.62795 27.0129 11.3623 27.0129 14.4873C27.0129 17.2487 26.026 19.4074 24.9276 21.1197L23.5695 19.7606C24.6433 18.3719 25.2844 16.6223 25.2844 14.4873C25.2844 11.6553 24.1809 9.29201 22.7161 7.36818C21.9934 6.43068 21.7395 6.17678 21.7395 4.86818L21.7395 2.88576C21.7395 2.43654 22.1301 2.04592 22.5794 2.04592C23.0286 2.04592 23.4192 2.43654 23.4192 2.88576Z" fill="black" fill-opacity="0.85"/>
  <path d="M11.4954 14.1651L11.4954 18.9112C11.4954 19.3799 11.2219 19.7217 10.7532 19.7217C10.2844 19.7217 10.0208 19.3897 10.0208 18.9112L10.0208 12.6905ZM16.9074 19.5771C16.0863 19.2701 15.5023 18.6232 15.1128 17.7825ZM21.2415 16.7237C21.2415 16.8776 21.2163 17.0568 21.1424 17.3315L20.0548 16.243C20.1694 16.1058 20.3379 16.0303 20.5579 16.0303C20.9094 16.0303 21.2415 16.2647 21.2415 16.7237ZM21.1731 11.5381C21.2219 11.7139 21.2415 11.8897 21.2415 12.0459C21.2415 12.4072 21.0071 12.7197 20.5872 12.7197C20.2063 12.7197 19.9524 12.5049 19.884 12.1045C19.6692 11.0108 19.054 10.2197 18.0579 10.2197C17.0479 10.2197 16.4325 11.0414 16.148 12.333L14.9999 11.184C15.5255 9.86182 16.4872 8.91115 18.0481 8.91115C19.552 8.91115 20.8801 10.0244 21.1731 11.5381ZM13.9661 9.78029C13.9661 9.89432 13.9423 9.99568 13.8986 10.0818L12.9436 9.126L13.2825 9.126C13.6926 9.126 13.9661 9.37014 13.9661 9.78029Z" fill="black" fill-opacity="0.85"/>
  <path d="M26.3098 26.919C26.6321 27.2412 27.1594 27.2412 27.4817 26.919C27.804 26.5869 27.8137 26.0694 27.4817 25.7373L3.44849 1.69436C3.12623 1.37209 2.59888 1.35256 2.26685 1.69436C1.94459 2.00686 1.93482 2.54397 2.26685 2.86623Z" fill="black" fill-opacity="0.85"/>
 </g>
</svg>
