<?xml version="1.0" ?><!-- Generator: Adobe Illustrator 25.0.0, SVG Export Plug-In . SVG Version: 6.00 Build 0)  --><svg xmlns="http://www.w3.org/2000/svg" xmlns:xlink="http://www.w3.org/1999/xlink" version="1.1" id="Layer_1" x="0px" y="0px" viewBox="0 0 512 512" style="enable-background:new 0 0 512 512;" xml:space="preserve">
<path d="M0,356.1c0,20.9,5.3,36.7,15.9,47.1C26.5,413.7,42.4,419,63.7,419h384.7c21.2,0,37.1-5.2,47.8-15.7  c10.6-10.5,15.9-26.2,15.9-47.1V155.9c0-20.9-5.3-36.7-15.9-47.1C485.5,98.3,469.6,93,448.3,93H63.7c-21.2,0-37.1,5.2-47.7,15.7  C5.3,119.2,0,134.9,0,155.9V356.1z M75.2,252.4v-63.3c0-13,6.5-19.5,19.5-19.5h322.6c13,0,19.5,6.5,19.5,19.5v63.3  c0,5.8-1.7,10.3-5.2,13.8c-3.5,3.4-8.2,5.1-14.3,5.1H94.7c-6,0-10.8-1.7-14.3-5.1C76.9,262.7,75.2,258.2,75.2,252.4z"/>
</svg>