<?xml version="1.0" ?><!-- Generator: Adobe Illustrator 25.0.0, SVG Export Plug-In . SVG Version: 6.00 Build 0)  --><svg xmlns="http://www.w3.org/2000/svg" xmlns:xlink="http://www.w3.org/1999/xlink" version="1.1" id="Layer_1" x="0px" y="0px" viewBox="0 0 512 512" style="enable-background:new 0 0 512 512;" xml:space="preserve">
<path d="M0,356.1C0,398,21.2,419,63.7,419h384.7c42.4,0,63.7-20.9,63.7-62.8V155.9C512,114,490.8,93,448.3,93h-335  c-17.5,0-31.6,4.7-42.1,14.1c-10.5,9.4-18.5,22-23.8,37.9L7,267.8c-2.5,7.1-4.2,14-5.3,20.6c-1.1,6.6-1.6,14-1.6,22.1V356.1z   M200.7,252.4v-63.3c0-13,6.5-19.5,19.5-19.5h190.2c13,0,19.5,6.5,19.5,19.5v63.3c0,5.8-1.7,10.3-5.1,13.8  c-3.4,3.4-8.2,5.1-14.4,5.1H220.2c-6,0-10.8-1.7-14.3-5.1C202.4,262.7,200.7,258.2,200.7,252.4z M73.5,271.3  c-5.8,0-9.9-2.2-12.5-6.5c-2.6-4.3-2.7-10.1-0.4-17.4l20.7-63c1.5-4.5,3.7-8.1,6.7-10.8c2.9-2.7,8-4,15.3-4h23.4  c13,0,19.5,6.5,19.5,19.5v63.3c0,5.8-1.7,10.3-5.2,13.8c-3.5,3.4-8.2,5.1-14.3,5.1H73.5z"/>
</svg>