<?xml version="1.0" encoding="UTF-8"?>
<!--Generator: Apple Native CoreSVG 326-->
<!DOCTYPE svg
PUBLIC "-//W3C//DTD SVG 1.1//EN"
       "http://www.w3.org/Graphics/SVG/1.1/DTD/svg11.dtd">
<svg version="1.1" xmlns="http://www.w3.org/2000/svg" xmlns:xlink="http://www.w3.org/1999/xlink" viewBox="0 0 21.543 31.123">
 <g>
  <rect height="31.123" opacity="0" width="21.543" x="0" y="0"/>
  <path d="M3.70117 25.8691L17.4902 25.8691C19.9316 25.8691 21.1816 24.2285 21.1816 22.0605L21.1816 13.2617C21.1816 9.7168 20.6934 6.2793 20.1758 4.23828C19.668 2.19727 18.2617 0.712891 16.1426 0.478516C15.2148 0.371094 13.1055 0.205078 10.5957 0.205078C8.07617 0.205078 5.9668 0.371094 5.03906 0.478516C2.91992 0.712891 1.51367 2.19727 1.00586 4.23828C0.488281 6.2793 0 9.7168 0 13.2617L0 22.0605C0 24.2285 1.25 25.8691 3.70117 25.8691ZM7.33398 4.11133C6.89453 4.11133 6.62109 3.82812 6.62109 3.39844C6.62109 2.97852 6.89453 2.69531 7.33398 2.69531L13.8574 2.69531C14.2871 2.69531 14.5605 2.97852 14.5605 3.39844C14.5605 3.82812 14.2871 4.11133 13.8574 4.11133ZM10.5957 17.6855C7.75391 17.666 5.21484 17.5488 3.79883 17.3828C3.00781 17.2949 2.66602 16.7871 2.66602 16.0449L2.66602 13.0762C2.66602 10.6348 2.92969 8.59375 3.16406 7.53906C3.29102 6.94336 3.65234 6.52344 4.22852 6.45508C5.67383 6.28906 7.45117 6.19141 10.5957 6.18164C13.7207 6.17188 15.498 6.28906 16.8848 6.44531C17.5 6.52344 17.8809 6.94336 18.0176 7.53906C18.2422 8.59375 18.5059 10.6348 18.5059 13.0762L18.5059 16.0449C18.5059 16.7969 18.1641 17.3047 17.373 17.3828C15.4395 17.5879 12.8906 17.6855 10.5957 17.6855ZM4.72656 23.1738C3.76953 23.1738 3.06641 22.4707 3.06641 21.5039C3.06641 20.5469 3.76953 19.8438 4.72656 19.8438C5.69336 19.8438 6.39648 20.5469 6.39648 21.5039C6.39648 22.4707 5.67383 23.1738 4.72656 23.1738ZM16.4551 23.1836C15.498 23.1836 14.7754 22.4609 14.7754 21.5039C14.7754 20.5566 15.498 19.834 16.4551 19.834C17.4023 19.834 18.125 20.5566 18.125 21.5039C18.125 22.4609 17.3926 23.1836 16.4551 23.1836ZM1.94336 31.123L2.59766 31.123C2.91992 31.123 3.0957 31.0254 3.27148 30.752L6.68945 25.2441L4.51172 25.2441L1.45508 30.1562C1.15234 30.625 1.41602 31.123 1.94336 31.123ZM3.10547 29.5898L18.0957 29.5898L18.0957 27.8613L3.10547 27.8613ZM18.623 31.123L19.2773 31.123C19.8047 31.123 20.0293 30.6152 19.7461 30.1562L16.709 25.2441L14.5312 25.2441L17.9492 30.752C18.1152 31.0254 18.291 31.123 18.623 31.123Z" fill="black" fill-opacity="0.85"/>
 </g>
</svg>
