<?xml version="1.0" encoding="UTF-8"?>
<!--Generator: Apple Native CoreSVG 326-->
<!DOCTYPE svg
PUBLIC "-//W3C//DTD SVG 1.1//EN"
       "http://www.w3.org/Graphics/SVG/1.1/DTD/svg11.dtd">
<svg version="1.1" xmlns="http://www.w3.org/2000/svg" xmlns:xlink="http://www.w3.org/1999/xlink" viewBox="0 0 25.8008 25.459">
 <g>
  <rect height="25.459" opacity="0" width="25.8008" x="0" y="0"/>
  <path d="M12.7148 25.4395C19.7363 25.4395 25.4395 19.7461 25.4395 12.7246C25.4395 5.70312 19.7363 0 12.7148 0C5.69336 0 0 5.70312 0 12.7246C0 19.7461 5.69336 25.4395 12.7148 25.4395ZM12.7148 23.623C6.68945 23.623 1.81641 18.75 1.81641 12.7246C1.81641 6.69922 6.68945 1.82617 12.7148 1.82617C18.7402 1.82617 23.6133 6.69922 23.6133 12.7246C23.6133 18.75 18.7402 23.623 12.7148 23.623Z" fill="black" fill-opacity="0.85"/>
  <path d="M9.3457 17.8223L16.0742 17.8223C17.2754 17.8223 17.8906 17.0215 17.8906 15.9473L17.8906 11.6504C17.8906 9.91211 17.6465 8.22266 17.3926 7.22656C17.1484 6.23047 16.4551 5.50781 15.4297 5.40039C14.9707 5.3418 13.9453 5.26367 12.7051 5.26367C11.4746 5.26367 10.4492 5.3418 9.98047 5.40039C8.96484 5.50781 8.27148 6.23047 8.02734 7.22656C7.77344 8.22266 7.51953 9.91211 7.51953 11.6504L7.51953 15.9473C7.51953 17.0215 8.13477 17.8223 9.3457 17.8223ZM12.7051 13.8184C11.3184 13.8086 10.0781 13.75 9.38477 13.6719C9.00391 13.6328 8.82812 13.3789 8.82812 13.0078L8.82812 11.5625C8.82812 10.3711 8.95508 9.375 9.07227 8.84766C9.13086 8.55469 9.31641 8.34961 9.58984 8.32031C10.3027 8.23242 11.1719 8.18359 12.7051 8.18359C14.2285 8.17383 15.1074 8.23242 15.7812 8.31055C16.084 8.34961 16.2695 8.55469 16.3379 8.84766C16.4453 9.375 16.582 10.3711 16.582 11.5625L16.582 13.0078C16.582 13.3789 16.4062 13.6328 16.0254 13.6719C15.0781 13.7695 13.8281 13.8184 12.7051 13.8184ZM9.83398 16.4941C9.36523 16.4941 9.02344 16.1621 9.02344 15.6836C9.02344 15.2246 9.36523 14.873 9.83398 14.873C10.3027 14.873 10.6445 15.2246 10.6445 15.6836C10.6445 16.1621 10.293 16.4941 9.83398 16.4941ZM15.5762 16.5039C15.1074 16.5039 14.7559 16.1523 14.7559 15.6836C14.7559 15.2246 15.1074 14.8633 15.5762 14.8633C16.0449 14.8633 16.3965 15.2246 16.3965 15.6836C16.3965 16.1523 16.0254 16.5039 15.5762 16.5039ZM11.1133 7.17773C10.8984 7.17773 10.7617 7.03125 10.7617 6.82617C10.7617 6.62109 10.8984 6.48438 11.1133 6.48438L14.3066 6.48438C14.5117 6.48438 14.6484 6.62109 14.6484 6.82617C14.6484 7.03125 14.5117 7.17773 14.3066 7.17773ZM8.47656 20.3809L8.79883 20.3809C8.95508 20.3809 9.04297 20.332 9.12109 20.2051L10.791 17.5098L9.73633 17.5098L8.23242 19.9023C8.0957 20.1367 8.21289 20.3809 8.47656 20.3809ZM9.04297 19.6289L16.377 19.6289L16.377 18.7891L9.04297 18.7891ZM16.6406 20.3809L16.9531 20.3809C17.2168 20.3809 17.3242 20.1367 17.1777 19.9023L15.7031 17.5098L14.6387 17.5098L16.3086 20.2051C16.3867 20.332 16.4746 20.3809 16.6406 20.3809Z" fill="black" fill-opacity="0.85"/>
 </g>
</svg>
