<?xml version="1.0" ?><!-- Generator: Adobe Illustrator 25.0.0, SVG Export Plug-In . SVG Version: 6.00 Build 0)  --><svg xmlns="http://www.w3.org/2000/svg" xmlns:xlink="http://www.w3.org/1999/xlink" version="1.1" id="Layer_1" x="0px" y="0px" viewBox="0 0 512 512" style="enable-background:new 0 0 512 512;" xml:space="preserve">
<path d="M140,421.1h9.7l-45.5,73c-5.4,8.7-0.4,18,9.3,18h11.6c5.8,0,8.9-2.1,12-7l12-19h214.6l11.8,19c3.1,5,6.4,7,12.2,7h11.6  c9.5,0,13.8-9.5,8.7-18l-44.9-73h8.9c36.8,0,57.9-25.2,57.9-60.6V212.3c0-55-7-108.7-15.5-142.8c-8.5-35.1-32.2-61.4-68.8-65.3  C332.3,2.7,297.8,0,256,0s-76.5,2.7-89.5,4.1c-36.8,3.9-60.4,30.2-68.8,65.3c-8.5,34.1-15.5,87.8-15.5,142.8v148.2  C82.2,395.8,103.2,421.1,140,421.1z M203.1,64.3c-7.6,0-12.6-5.2-12.6-12.8c0-7.6,5-12.4,12.6-12.4h105.6c7.9,0,12.8,4.8,12.8,12.4  c0,7.6-5,12.8-12.8,12.8H203.1z M256,284.6c-48-0.4-92-2.5-114.3-5.2c-12.4-1.7-17.2-9.7-17.2-21.3v-47.5c0-41.8,4.5-75.4,7.9-90.1  c2.1-9.1,7.6-15.7,16.5-16.7c23.4-2.9,52.1-4.3,107.1-4.5c54.8-0.2,83.5,1.7,106.2,4.5c9.3,1,15.1,7.6,17.2,16.7  c3.3,14.7,7.9,48.4,7.9,90.1v47.5c0,11.8-4.8,19.8-17.2,21.3C336.8,283,292.8,284.6,256,284.6z M351.7,377.9  c-16.3,0-28.7-12.2-28.7-28.5c0-16.1,12.4-28.5,28.7-28.5c16.1,0,28.5,12.4,28.5,28.5C380.2,365.7,367.6,377.9,351.7,377.9z   M159.9,377.6c-16.3,0-28.1-11.8-28.1-28.3c0-16.3,11.8-28.3,28.1-28.3c16.5,0,28.5,12,28.5,28.3C188.4,365.9,176,377.6,159.9,377.6  z M168.4,455l20.9-33.9h134.4l20.9,33.9H168.4z"/>
</svg>