<?xml version="1.0" ?><!-- Generator: Adobe Illustrator 25.0.0, SVG Export Plug-In . SVG Version: 6.00 Build 0)  --><svg xmlns="http://www.w3.org/2000/svg" xmlns:xlink="http://www.w3.org/1999/xlink" version="1.1" id="Layer_1" x="0px" y="0px" viewBox="0 0 512 512" style="enable-background:new 0 0 512 512;" xml:space="preserve">
<path d="M35.7,496.7c0,8.4,6.9,15.3,15.3,15.3c8.6,0,15.5-6.9,15.5-15.3V197.2c0-108.4,66.1-166.5,189.6-166.5  c123.3,0,189.4,58.1,189.4,166.5v299.5c0,8.4,7.1,15.3,15.5,15.3c8.4,0,15.3-6.9,15.3-15.3V197.2C476.3,68.8,399.6,0,256.1,0  C112.4,0,35.7,68.8,35.7,197.2V496.7z M166.5,424.1h5.2L138,478.2c-4.4,7.1-0.2,15.1,7.8,15.1h9c4.8,0,7.5-1.7,10.3-5.9l8.8-14.1  h164.7l8.8,14.1c2.7,4.2,5.7,5.9,10.5,5.9h8.8c7.8,0,12-8.2,7.8-15.1l-33.4-54.1h4.4c29.6,0,46.8-20.3,46.8-48.7V260.9  c0-42.8-5.7-84.7-12-110.8c-7.1-29.4-27.3-48.5-54.8-52c-10.3-1.1-37.3-3.2-69.4-3.2c-32.3,0-59.2,2.1-69.6,3.2  c-27.5,3.4-47.8,22.6-54.9,52c-6.3,26.2-12,68-12,110.8v114.5C119.6,403.8,136.8,424.1,166.5,424.1z M216.3,148.5  c-7.1,0-11.7-4.6-11.7-11.5c0-6.9,4.6-11.5,11.7-11.5h79.5c6.9,0,11.5,4.6,11.5,11.5c0,6.9-4.6,11.5-11.5,11.5H216.3z M256.1,315  c-36.9-0.2-70.9-1.9-87.9-4c-7.8-1-11.7-5.7-11.7-14.5v-36.9c0-31.9,3.4-57.7,5.9-69.4c1.3-6.7,5.4-10.5,11.3-11.3  c18-2.5,40.1-3.4,82.4-3.4c42,0,64.2,1,81.6,3.2c6.3,1,10.5,4.8,11.8,11.5c2.5,11.7,5.9,37.5,5.9,69.4v36.9c0,9-3.8,13.6-11.7,14.5  C318.2,314.4,284.6,314.8,256.1,315z M181.8,390.1c-13.4,0-23.1-9.9-23.1-23.5c0-13.4,9.7-23.1,23.1-23.1c13.6,0,23.5,9.7,23.5,23.1  C205.3,380.1,194.9,390.1,181.8,390.1z M330.1,390.1c-13.6,0-23.3-9.9-23.3-23.5c0-13.4,9.7-23.1,23.3-23.1s23.3,9.7,23.3,23.1  C353.4,380.1,343.2,390.1,330.1,390.1z M189.8,447.4l14.5-23.3h104l14.5,23.3H189.8z"/>
</svg>