<?xml version="1.0" encoding="UTF-8"?>
<!--Generator: Apple Native CoreSVG 326-->
<!DOCTYPE svg
PUBLIC "-//W3C//DTD SVG 1.1//EN"
       "http://www.w3.org/Graphics/SVG/1.1/DTD/svg11.dtd">
<svg version="1.1" xmlns="http://www.w3.org/2000/svg" xmlns:xlink="http://www.w3.org/1999/xlink" viewBox="0 0 38.9551 28.1348">
 <g>
  <rect height="28.1348" opacity="0" width="38.9551" x="0" y="0"/>
  <path d="M22.168 4.82422L22.168 6.42578L21.2988 6.42578C21.0023 6.42578 20.7176 6.44212 20.4492 6.47937L20.4492 4.90234C20.4492 2.74414 19.248 1.62109 17.1777 1.62109L4.99023 1.62109C2.91992 1.62109 1.72852 2.74414 1.72852 4.90234L1.72852 12.4512C1.72852 14.6191 2.91992 15.7324 4.99023 15.7324L6.29883 15.7324C6.75781 15.7324 7.12891 16.0059 7.12891 16.6016L7.12891 19.7461L11.0449 16.25C11.4941 15.8594 11.7676 15.7324 12.3633 15.7324L16.4258 15.7324L16.4258 17.3438L12.2949 17.3438L8.16406 20.8691C7.53906 21.416 7.17773 21.6992 6.66016 21.6992C5.92773 21.6992 5.50781 21.1816 5.50781 20.3711L5.50781 17.3438L4.86328 17.3438C1.9043 17.3438 0 15.5957 0 12.5293L0 4.82422C0 1.76758 1.9043 0 4.86328 0L17.3047 0C20.2637 0 22.168 1.76758 22.168 4.82422Z" fill="black" fill-opacity="0.85"/>
  <path d="M12.2266 4.02344L15.4102 12.5195C15.6152 13.1055 15.3125 13.6719 14.668 13.6719C14.2578 13.6719 14.0039 13.4473 13.8477 12.998L13.0078 10.6348L9.18945 10.6348L8.34961 12.998C8.19336 13.4473 7.93945 13.6719 7.5293 13.6719C6.89453 13.6719 6.57227 13.1152 6.78711 12.5195L9.96094 4.02344C10.1562 3.49609 10.5469 3.21289 11.0938 3.21289C11.6406 3.21289 12.0312 3.49609 12.2266 4.02344ZM9.63867 9.26758L12.5391 9.26758L11.0841 5.17066Z" fill="black" fill-opacity="0.85"/>
  <path d="M38.5938 11.25L38.5938 18.9551C38.5938 22.0117 36.6895 23.7695 33.7305 23.7695L33.0859 23.7695L33.0859 26.7871C33.0859 27.5977 32.666 28.125 31.9336 28.125C31.416 28.125 31.0547 27.832 30.4297 27.2949L26.3086 23.7695L21.2988 23.7695C18.2227 23.7695 16.4258 22.0215 16.4258 18.9648L16.4258 11.25C16.4258 8.18359 18.2227 6.42578 21.2988 6.42578L33.7305 6.42578C36.6895 6.42578 38.5938 8.18359 38.5938 11.25ZM23.6328 12.2852C23.1934 12.2852 22.8613 12.5977 22.8613 13.0078C22.8613 13.4375 23.1934 13.75 23.6328 13.75L24.6484 13.75C24.9805 15 25.6152 16.1719 26.543 17.168C25.6543 17.7832 24.6582 18.1934 23.4766 18.4766C23.0469 18.5742 22.8027 18.9844 22.8906 19.4043C23.0078 19.8633 23.4668 20.0488 23.9648 19.9219C25.293 19.6191 26.5332 19.0527 27.666 18.2031C28.7598 19.043 30 19.6094 31.25 19.9121C31.8066 20.0391 32.2754 19.8828 32.3926 19.4043C32.5098 18.9551 32.2949 18.5742 31.8262 18.4766C30.6543 18.2031 29.6777 17.793 28.7695 17.168C29.6875 16.1914 30.3223 15.0293 30.6543 13.75L31.6699 13.75C32.1094 13.75 32.4414 13.4375 32.4414 13.0078C32.4414 12.5977 32.1094 12.2852 31.6699 12.2852ZM27.666 16.25C26.9824 15.5176 26.4746 14.668 26.1719 13.75L29.1309 13.75C28.8379 14.6582 28.3398 15.5078 27.666 16.25ZM26.4844 9.05273C26.1035 9.23828 25.9473 9.67773 26.1426 10.0781L26.7969 11.4551C26.9727 11.8457 27.4219 12.002 27.8027 11.8262C28.2129 11.6211 28.3691 11.1816 28.1738 10.8008L27.5098 9.43359C27.3145 9.02344 26.8848 8.84766 26.4844 9.05273Z" fill="black" fill-opacity="0.85"/>
 </g>
</svg>
