<?xml version="1.0" ?><!-- Generator: Adobe Illustrator 25.0.0, SVG Export Plug-In . SVG Version: 6.00 Build 0)  --><svg xmlns="http://www.w3.org/2000/svg" xmlns:xlink="http://www.w3.org/1999/xlink" version="1.1" id="Layer_1" x="0px" y="0px" viewBox="0 0 512 512" style="enable-background:new 0 0 512 512;" xml:space="preserve">
<path d="M138.2,400.3l229,40c20.7,3.5,37.4,0.3,49.9-9.7c12.6-10,18.8-25.2,18.8-45.5V127c0-20.2-6.3-35.3-18.8-45.5  c-12.6-10.2-29.2-13.4-49.9-9.7l-229,40.2c-20.3,3.5-35.8,10.7-46.4,21.4C81.3,144.1,76,158,76,175.1V337c0,17.1,5.3,31,15.9,41.7  C102.4,389.4,117.9,396.6,138.2,400.3z M16.9,272c-5.2,0-9.3-1.4-12.4-4.3c-3-2.9-4.6-6.7-4.6-11.5c0-5.1,1.5-9,4.6-11.9  c3-2.8,7.2-4.2,12.4-4.2h478.1c5.4,0,9.5,1.4,12.5,4.2c3,2.8,4.4,6.8,4.4,11.9c0,4.8-1.5,8.6-4.4,11.5c-3,2.9-7.1,4.3-12.5,4.3H16.9  z"/>
</svg>