<?xml version="1.0" encoding="UTF-8"?>
<!--Generator: Apple Native CoreSVG 326-->
<!DOCTYPE svg
PUBLIC "-//W3C//DTD SVG 1.1//EN"
       "http://www.w3.org/Graphics/SVG/1.1/DTD/svg11.dtd">
<svg version="1.1" xmlns="http://www.w3.org/2000/svg" xmlns:xlink="http://www.w3.org/1999/xlink" viewBox="0 0 30.4102 21.9046">
 <g>
  <rect height="21.9046" opacity="0" width="30.4102" x="0" y="0"/>
  <path d="M8.0957 19.2775L21.9531 21.6896C24.1895 22.0802 25.5371 20.6154 25.5371 18.1349L25.5371 3.62318C25.5371 1.04506 24.2676-0.331895 21.9531 0.0684952L8.0957 2.4806C5.78125 2.89076 4.51172 4.01381 4.51172 6.03529L4.51172 15.7228C4.51172 17.7345 5.78125 18.8673 8.0957 19.2775ZM8.03711 17.6564C6.79688 17.4513 6.14258 16.8654 6.14258 15.7423L6.14258 6.01576C6.14258 4.89271 6.79688 4.30678 8.03711 4.1017L22.0117 1.68959C23.252 1.48451 23.9062 2.2267 23.9062 3.60365L23.9062 18.1544C23.9062 19.4923 23.2227 20.2736 22.0117 20.0685ZM0.859375 11.6994L29.1895 11.6994C29.7266 11.6994 30.0488 11.3771 30.0488 10.8888C30.0488 10.3712 29.7266 10.0587 29.1895 10.0587L0.859375 10.0587C0.322266 10.0587 0 10.3712 0 10.8888C0 11.3771 0.322266 11.6994 0.859375 11.6994Z" fill="black" fill-opacity="0.85"/>
 </g>
</svg>
