<?xml version="1.0" ?><!-- Generator: Adobe Illustrator 25.0.0, SVG Export Plug-In . SVG Version: 6.00 Build 0)  --><svg xmlns="http://www.w3.org/2000/svg" xmlns:xlink="http://www.w3.org/1999/xlink" version="1.1" id="Layer_1" x="0px" y="0px" viewBox="0 0 512 512" style="enable-background:new 0 0 512 512;" xml:space="preserve">
<path d="M256,512c35,0,67.9-6.7,98.8-20.1c30.9-13.4,58.1-31.9,81.7-55.5c23.6-23.6,42.1-50.8,55.5-81.7  C505.3,323.9,512,291,512,256s-6.7-67.9-20.1-98.8c-13.4-30.9-31.9-58.1-55.5-81.7c-23.6-23.6-50.9-42.1-81.8-55.5  C323.7,6.7,290.7,0,255.7,0S187.9,6.7,157,20.1C126.1,33.5,98.9,52,75.4,75.5c-23.5,23.6-42,50.8-55.3,81.7C6.7,188.1,0,221,0,256  s6.7,67.9,20.1,98.8c13.4,30.9,31.9,58.1,55.5,81.7s50.8,42.1,81.7,55.5C188.1,505.3,221,512,256,512z" class="multicolor-0:systemRedColor hierarchical-0:tertiary SFSymbolsPreviewFF3B30" style="fill: #FF3B30;"/>
<path d="M351.6,307.2l-41.2-41.4l2.3-56c0-5.9-3-8.8-9-8.8c-6.2,0-9.3,2.9-9.3,8.8l-1.5,38.7L265,220.6v-10.8c0-5.9-3.2-8.8-9.5-8.8  c-1.5,0-2.8,0.5-3.8,1.5v4.8l-62-62h5c0-1.5,0-2.9,0-4.1c0-1.3,0-2.6,0-3.9c0-10.4,3.2-18.6,9.7-24.7c6.4-6.1,15.1-9.2,26-9.2h50.7  c11,0,19.8,3.1,26.2,9.2c6.4,6.1,9.7,14.3,9.7,24.7v20.3h60c3,0,5.6,1,7.9,3.1c2.3,2.1,3.3,4.6,3.1,7.7c-0.2,2.8-1.3,5.3-3.4,7.4  c-2.1,2.1-4.6,3.1-7.7,3.1h-19.8L351.6,307.2z M220.1,157.6h71v-19.1c0-3.2-1.1-5.8-3.3-7.8c-2.2-2-4.9-3-8.3-3h-47.9  c-3.3,0-6.1,1-8.3,3c-2.2,2-3.3,4.6-3.3,7.8V157.6z M191.2,403.8c-8.5,0-15.2-2.3-20-6.9c-4.8-4.6-7.3-11.1-7.7-19.5l-7.8-179.2  l43.7,43.7l4.3,114.4c0,5.7,3,8.5,9,8.5c2.8,0,5-0.8,6.5-2.4c1.5-1.6,2.3-3.6,2.3-6.1l-3.5-95.6l28.4,28.1v67.5c0,5.7,3,8.5,9,8.5  c6.4,0,9.5-2.8,9.5-8.5v-48.7l25.3,25.3l-0.8,23.3c-0.2,5.7,2.8,8.5,8.8,8.5c5,0,7.9-2.3,8.8-6.8l0.8-7.5l37.6,37.4l-0.8,2.5  c-1.7,4-4.6,7.2-8.9,9.7c-4.3,2.4-9.2,3.6-14.9,3.6H191.2z M368.4,383.7L131.8,147.1c-2.2-2.3-3.3-5.1-3.4-8.2  c-0.1-3.1,1-5.7,3.4-7.9c2.2-2.3,4.9-3.5,8-3.5c3.2,0,5.9,1.2,8,3.5l236.4,236.4c2.3,2.3,3.5,5.1,3.5,8.2c0,3.1-1.2,5.7-3.5,7.9  c-2.2,2.3-4.8,3.6-7.8,3.6C373.5,387.2,370.8,386.1,368.4,383.7z" class="multicolor-1:white hierarchical-1:primary SFSymbolsPreviewFFFFFF" style="fill: #FFFFFF;"/>
</svg>