<?xml version="1.0" ?><!-- Generator: Adobe Illustrator 25.0.0, SVG Export Plug-In . SVG Version: 6.00 Build 0)  --><svg xmlns="http://www.w3.org/2000/svg" xmlns:xlink="http://www.w3.org/1999/xlink" version="1.1" id="Layer_1" x="0px" y="0px" viewBox="0 0 512 512" style="enable-background:new 0 0 512 512;" xml:space="preserve">
<path d="M422.9,359.6l11-236.1h27.6c9.4,0,17-8,17-17.5c0-9.4-7.6-17.2-17-17.2H356.4V54.3c0-33.1-22.3-54.3-57.7-54.3h-86  c-35.4,0-57.5,21.2-57.5,54.3v29.7h-8l39.3,39.5h210.6l-9.4,201.2L422.9,359.6z M448.4,474.3c6.9,6.9,18.2,6.9,25.1,0  c6.7-7.1,6.9-18.2,0-25.1L63.8,39.3c-6.9-6.9-18.4-6.9-25.3,0c-6.7,6.7-6.7,18.4,0,25.1L448.4,474.3z M192,88.7V56.6  c0-13.1,9.7-22.3,23.5-22.3h80.7c14,0,23.7,9.2,23.7,22.3v32.2H192z M150.7,512h210.8c24.6,0,42.1-12,50.6-30.8l0.2-4.4l-30.1-30.1  l-0.2,6.9c-0.2,13.3-10.3,23.7-24.1,23.7H153.9c-13.1,0-23-9.9-23.7-23.5l-13.3-272.4l-37.7-37.5L94.1,458  C95.7,490.8,117.6,512,150.7,512z M270.9,207.6v-29c0-8-6-13.6-14.7-13.6c-4.1,0-8.7,1.6-11.5,4.8v11.5L270.9,207.6z M342.6,279.6  l3-100.9c0.2-8-5.7-13.6-14.5-13.6c-8,0-14,5.3-14.3,13.6l-2.1,72.9L342.6,279.6z M187.9,438c8.7,0,14.5-5.5,14.3-13.6l-4.6-162.1  l-29.4-29.4l5.5,191.5C173.9,432.7,179.4,438,187.9,438z M256.2,438c8.7,0,14.7-5.5,14.7-13.6v-88.7l-29.7-29.4v118.2  C241.2,432.7,247.4,438,256.2,438z M324.2,438c8.3,0,14-5.3,14.3-13.6l0.7-20.5l-27.8-27.8l-1.4,48.3  C309.8,432.5,315.5,438,324.2,438z"/>
</svg>