<?xml version="1.0" encoding="UTF-8"?>
<!--Generator: Apple Native CoreSVG 326-->
<!DOCTYPE svg
PUBLIC "-//W3C//DTD SVG 1.1//EN"
       "http://www.w3.org/Graphics/SVG/1.1/DTD/svg11.dtd">
<svg version="1.1" xmlns="http://www.w3.org/2000/svg" xmlns:xlink="http://www.w3.org/1999/xlink" viewBox="0 0 27.29 30.0293">
 <g>
  <rect height="30.0293" opacity="0" width="27.29" x="0" y="0"/>
  <path d="M8.60031 12.2502L8.91846 23.4473C8.92822 23.8477 9.21143 24.1113 9.63135 24.1113C10.061 24.1113 10.3442 23.8379 10.3345 23.4375L10.0441 13.694L12.7563 16.4062L12.7563 23.4375C12.7563 23.8379 13.0493 24.1113 13.479 24.1113C13.8989 24.1113 14.2017 23.8379 14.2017 23.4375L14.2017 17.8516L16.7059 20.3558L16.6138 23.4473C16.604 23.8379 16.8872 24.1113 17.3169 24.1113C17.7368 24.1113 18.02 23.8574 18.0298 23.4473L18.0787 21.7286L22.0731 25.723C21.7507 27.0385 20.6705 27.8906 19.2114 27.8906L7.73682 27.8906C6.0376 27.8906 4.86572 26.7578 4.7876 25.0781L3.92843 7.57834ZM18.8892 2.80273L18.8892 4.80469L24.7681 4.80469C25.2075 4.80469 25.5786 5.17578 25.5786 5.625C25.5786 6.06445 25.2173 6.43555 24.7681 6.43555L23.076 6.43555L22.4235 19.8608L18.2505 15.6859L18.4302 9.36523C18.4399 8.95508 18.1665 8.69141 17.7368 8.69141C17.3364 8.69141 17.0435 8.94531 17.0337 9.35547L16.8857 14.3206L14.2017 11.6354L14.2017 9.35547C14.2017 8.95508 13.8989 8.69141 13.479 8.69141C13.0493 8.69141 12.7563 8.95508 12.7563 9.35547L12.7563 10.1894L7.37392 4.80469L8.03955 4.80469L8.03955 2.80273C8.03955 1.06445 9.1626 0 11.0278 0L15.9009 0C17.7661 0 18.8892 1.06445 18.8892 2.80273ZM11.1157 1.61133C10.2856 1.61133 9.74854 2.11914 9.74854 2.90039L9.74854 4.80469L17.1802 4.80469L17.1802 2.90039C17.1802 2.11914 16.6431 1.61133 15.8032 1.61133Z" fill="black" fill-opacity="0.85"/>
  <path d="M24.1528 25.8789C24.4751 26.2012 25.0122 26.2012 25.3247 25.8789C25.6567 25.5469 25.6567 25.0195 25.3247 24.6973L2.78564 2.14844C2.47314 1.82617 1.93604 1.81641 1.604 2.14844C1.28174 2.46094 1.28174 3.00781 1.604 3.33008Z" fill="black" fill-opacity="0.85"/>
 </g>
</svg>
