<?xml version="1.0" ?><!-- Generator: Adobe Illustrator 25.0.0, SVG Export Plug-In . SVG Version: 6.00 Build 0)  --><svg xmlns="http://www.w3.org/2000/svg" xmlns:xlink="http://www.w3.org/1999/xlink" version="1.1" id="Layer_1" x="0px" y="0px" viewBox="0 0 512 512" style="enable-background:new 0 0 512 512;" xml:space="preserve">
<path d="M87.3,512h337.3c29.1,0,50.9-7.2,65.5-21.6c14.6-14.4,21.8-35.9,21.8-64.7V86.2c0-28.7-7.3-50.3-21.8-64.7  C475.6,7.2,453.8,0,424.7,0H87.3C58.2,0,36.4,7.2,21.8,21.6C7.3,35.9,0,57.5,0,86.2v339.6c0,28.7,7.3,50.3,21.8,64.7  C36.4,504.8,58.2,512,87.3,512z" class="multicolor-0:systemRedColor hierarchical-0:tertiary SFSymbolsPreviewFF3B30" style="fill: #FF3B30;"/>
<path d="M362.1,312.3l-45.6-45.9l2.5-62c0-6.5-3.3-9.7-10-9.7c-6.9,0-10.3,3.2-10.3,9.7l-1.7,42.8l-30.9-30.9v-12  c0-6.5-3.5-9.7-10.6-9.7c-1.7,0-3.1,0.6-4.2,1.7v5.3l-68.7-68.7h5.6c0-1.7,0-3.2,0-4.6s0-2.8,0-4.3c0-11.5,3.6-20.6,10.7-27.4  c7.1-6.8,16.7-10.2,28.8-10.2h56.2c12.2,0,21.9,3.4,29.1,10.2c7.1,6.8,10.7,15.9,10.7,27.4v22.5h66.5c3.3,0,6.3,1.2,8.8,3.5  c2.5,2.3,3.7,5.1,3.5,8.5c-0.2,3.2-1.4,5.9-3.8,8.2c-2.3,2.3-5.1,3.5-8.5,3.5h-22L362.1,312.3z M216.4,146.6h78.7v-21.1  c0-3.5-1.2-6.4-3.6-8.6c-2.4-2.2-5.5-3.3-9.2-3.3h-53.1c-3.7,0-6.8,1.1-9.2,3.3c-2.4,2.2-3.6,5.1-3.6,8.6V146.6z M184.4,419.4  c-9.5,0-16.8-2.5-22.1-7.6c-5.3-5.1-8.1-12.3-8.5-21.6l-8.6-198.6l48.4,48.4l4.7,126.8c0,6.3,3.3,9.5,10,9.5c3.2,0,5.6-0.9,7.2-2.6  c1.7-1.8,2.5-4,2.5-6.8l-3.9-106l31.4,31.1v74.8c0,6.3,3.3,9.5,10,9.5c7,0,10.6-3.2,10.6-9.5v-54l28.1,28.1l-0.8,25.9  c-0.2,6.3,3.1,9.5,9.7,9.5c5.6,0,8.8-2.5,9.7-7.5l0.8-8.3l41.7,41.4l-0.8,2.8c-1.9,4.4-5.1,8-9.9,10.7c-4.7,2.7-10.2,4-16.5,4H184.4  z M380.7,397.1L118.5,134.9c-2.4-2.6-3.7-5.6-3.8-9c-0.1-3.4,1.2-6.4,3.8-8.8c2.4-2.6,5.4-3.9,8.9-3.9c3.5,0,6.5,1.3,8.9,3.9  l262,262c2.6,2.6,3.9,5.6,3.9,9s-1.3,6.4-3.9,8.8c-2.4,2.6-5.3,3.9-8.6,4S383.3,399.7,380.7,397.1z" class="multicolor-1:white hierarchical-1:primary SFSymbolsPreviewFFFFFF" style="fill: #FFFFFF;"/>
</svg>