<?xml version="1.0" ?><!-- Generator: Adobe Illustrator 25.0.0, SVG Export Plug-In . SVG Version: 6.00 Build 0)  --><svg xmlns="http://www.w3.org/2000/svg" xmlns:xlink="http://www.w3.org/1999/xlink" version="1.1" id="Layer_1" x="0px" y="0px" viewBox="0 0 512 512" style="enable-background:new 0 0 512 512;" xml:space="preserve">
<path d="M418.6,361.1l10.2-233.7h34.9c9.5,0,17.4-8.1,17.4-17.7c0-9.5-7.9-17.4-17.4-17.4H360V57.4C360,22.3,336.1,0,299.1,0h-87  c-37,0-60.7,22.3-60.7,57.4v28.8h-7.9l98.6,98.6v-11.6c2.1-5.3,7.4-8.4,14-8.4c8.8,0,14.9,5.6,14.9,13.7v35.1l48.8,48.8l2.3-83.9  c0.2-8.4,6.3-13.7,14.4-13.7c8.8,0,14.9,5.6,14.6,13.7l-3.3,112.3L418.6,361.1z M450.5,483.4c7,7,18.4,7,25.3,0  c6.7-7.2,7-18.4,0-25.3L61.5,43.5c-7-7-18.6-7-25.6,0c-6.7,6.7-6.7,18.6,0,25.3L450.5,483.4z M193.8,92.3V59.8  c0-11.9,8.6-20,21.2-20h81.6c12.8,0,21.4,8.1,21.4,20v32.6H193.8z M145.4,512h221.1c21.4,0,37-9.8,43-25.8l0.2-4.4l-65.3-65.3  l-0.5,15.3c0,8.4-6,13.7-14.4,13.7c-8.8,0-14.6-5.6-14.4-13.7l1.2-43.5L271,343v88.8c0,8.1-6,13.7-14.9,13.7  c-8.8,0-15.1-5.6-15.1-13.7V313.2l-48.8-49.1l4.7,167.6c0.2,8.1-5.6,13.7-14.4,13.7c-8.6,0-14.2-5.3-14.4-13.7l-5.6-197.4  l-77.9-77.4l13.7,310.2C99.4,496,116.8,512,145.4,512z"/>
</svg>