<?xml version="1.0" ?><!-- Generator: Adobe Illustrator 25.0.0, SVG Export Plug-In . SVG Version: 6.00 Build 0)  --><svg xmlns="http://www.w3.org/2000/svg" xmlns:xlink="http://www.w3.org/1999/xlink" version="1.1" id="Layer_1" x="0px" y="0px" viewBox="0 0 512 512" style="enable-background:new 0 0 512 512;" xml:space="preserve">
<path d="M87.3,512h337.3c29.1,0,50.9-7.2,65.5-21.6c14.6-14.4,21.8-35.9,21.8-64.7V86.2c0-28.7-7.3-50.3-21.8-64.7  C475.6,7.2,453.8,0,424.7,0H87.3C58.2,0,36.4,7.2,21.8,21.6C7.3,35.9,0,57.5,0,86.2v339.6c0,28.7,7.3,50.3,21.8,64.7  C36.4,504.8,58.2,512,87.3,512z" class="multicolor-0:systemRedColor hierarchical-0:tertiary SFSymbolsPreviewFF3B30" style="fill: #FF3B30;"/>
<path d="M182.2,424.7c-9.6,0-17.2-2.6-22.8-7.8c-5.6-5.2-8.5-12.7-8.9-22.5l-9.7-226.7h-23.4c-3.5,0-6.4-1.2-8.8-3.5  c-2.3-2.3-3.5-5.1-3.5-8.5c0-3.5,1.2-6.5,3.5-8.9c2.3-2.4,5.2-3.6,8.8-3.6h69v-23.1c0-11.9,3.6-21.3,10.8-28.4  c7.2-7,17.2-10.6,29.8-10.6h57.8c12.6,0,22.6,3.5,30,10.6c7.4,7,11.1,16.5,11.1,28.4v23.1h68.4c3.5,0,6.5,1.2,9,3.6  c2.5,2.4,3.7,5.4,3.5,8.9c-0.2,3.3-1.4,6.2-3.8,8.5c-2.3,2.3-5.2,3.5-8.8,3.5h-22.5l-9.7,226.7c-0.2,9.8-3.2,17.3-8.9,22.5  c-5.7,5.2-13.3,7.8-22.8,7.8H182.2z M255.6,380.2c7.2,0,10.8-3.2,10.8-9.7V203c0-6.7-3.6-10-10.8-10c-6.9,0-10.3,3.3-10.3,10v167.4  C245.3,376.9,248.7,380.2,255.6,380.2z M206.9,380.2c3.2,0,5.6-0.9,7.4-2.8c1.8-1.9,2.6-4.2,2.6-7L211.4,203  c-0.2-6.7-3.6-10-10.3-10c-7,0-10.6,3.3-10.6,10l5.8,167.4C196.3,376.9,199.9,380.2,206.9,380.2z M304.5,380.2  c7,0,10.6-3.2,10.6-9.7l5.8-167.4c0-6.7-3.4-10-10.3-10c-6.9,0-10.4,3.3-10.6,10l-5.6,167.4c0,2.8,0.9,5.1,2.6,7  C298.9,379.2,301.4,380.2,304.5,380.2z M215.5,143.2h80.7v-21.7c0-3.7-1.2-6.7-3.6-8.9c-2.4-2.2-5.6-3.3-9.5-3.3h-54.8  c-3.7,0-6.8,1.1-9.2,3.3c-2.4,2.2-3.6,5.2-3.6,8.9V143.2z" class="multicolor-0:systemRedColor hierarchical-1:primary SFSymbolsPreviewFFFFFF" style="fill: #FFFFFF;"/>
</svg>