<?xml version="1.0" ?><!-- Generator: Adobe Illustrator 25.0.0, SVG Export Plug-In . SVG Version: 6.00 Build 0)  --><svg xmlns="http://www.w3.org/2000/svg" xmlns:xlink="http://www.w3.org/1999/xlink" version="1.1" id="Layer_1" x="0px" y="0px" viewBox="0 0 512 512" style="enable-background:new 0 0 512 512;" xml:space="preserve">
<path d="M256,512c35,0,67.9-6.7,98.8-20.1c30.9-13.4,58.1-31.9,81.7-55.5c23.6-23.6,42.1-50.8,55.5-81.7  C505.3,323.9,512,291,512,256s-6.7-67.9-20.1-98.8c-13.4-30.9-31.9-58.1-55.5-81.7c-23.6-23.6-50.9-42.1-81.8-55.5  C323.7,6.7,290.7,0,255.7,0S187.9,6.7,157,20.1C126.1,33.5,98.9,52,75.4,75.5c-23.5,23.6-42,50.8-55.3,81.7C6.7,188.1,0,221,0,256  s6.7,67.9,20.1,98.8c13.4,30.9,31.9,58.1,55.5,81.7c23.6,23.6,50.8,42.1,81.7,55.5C188.1,505.3,221,512,256,512z M256,469.3  c-29.6,0-57.3-5.5-83.1-16.6c-25.8-11-48.4-26.3-67.9-45.8c-19.5-19.5-34.7-42.1-45.7-67.9c-11-25.8-16.4-53.5-16.4-83.1  c0-29.6,5.5-57.3,16.4-83.1c11-25.8,26.1-48.4,45.6-68s42-34.8,67.8-45.8c25.8-11,53.5-16.4,83.1-16.4c29.6,0,57.3,5.5,83.1,16.4  c25.8,11,48.4,26.2,68,45.8c19.6,19.6,34.9,42.2,45.9,68c11,25.8,16.6,53.5,16.6,83.1c0,29.6-5.5,57.3-16.4,83.1  c-11,25.8-26.2,48.4-45.7,67.9c-19.5,19.5-42.2,34.8-68,45.8C313.3,463.8,285.6,469.3,256,469.3z" class="multicolor-0:systemRedColor hierarchical-0:secondary SFSymbolsPreviewFF3B30" style="fill: #FF3B30;"/>
<path d="M351.4,307.2l5.5-128.3h19.8c3,0,5.6-1,7.7-3.1c2.1-2.1,3.2-4.6,3.4-7.4c0.2-3-0.9-5.6-3.1-7.7c-2.3-2.1-4.9-3.1-7.9-3.1  h-60v-20.3c0-10.4-3.2-18.6-9.7-24.7c-6.4-6.1-15.2-9.2-26.2-9.2h-50.7c-10.9,0-19.5,3.1-26,9.2c-6.4,6.1-9.7,14.3-9.7,24.7  c0,1.3,0,2.6,0,3.9s0,2.6,0,4.1h-5l62,62v-4.8c1-1,2.3-1.5,3.8-1.5c6.4,0,9.5,2.9,9.5,8.8v10.8l27.9,27.9l1.5-38.7  c0-5.9,3.1-8.8,9.3-8.8c6,0,9,2.9,9,8.8l-2.3,56L351.4,307.2z M219.9,157.6v-19.1c0-3.2,1.1-5.8,3.3-7.8c2.2-2,4.9-3,8.3-3h47.9  c3.3,0,6.1,1,8.3,3c2.2,2,3.3,4.6,3.3,7.8v19.1H219.9z M191,403.8h129.8c5.7,0,10.7-1.2,14.9-3.6c4.3-2.4,7.2-5.6,8.9-9.7l0.8-2.5  l-37.6-37.4l-0.8,7.5c-0.8,4.5-3.8,6.8-8.8,6.8c-6,0-9-2.8-8.8-8.5l0.8-23.3l-25.3-25.3v48.7c0,5.7-3.2,8.5-9.5,8.5  c-6,0-9-2.8-9-8.5v-67.5l-28.4-28.1l3.5,95.6c0,5.7-2.9,8.5-8.8,8.5c-6,0-9-2.8-9-8.5l-4.3-114.4l-43.7-43.7l7.8,179.2  c0.3,8.4,2.9,14.8,7.7,19.5C175.8,401.5,182.5,403.8,191,403.8z M368.2,383.7c2.3,2.3,5,3.5,8,3.4c3-0.1,5.6-1.3,7.8-3.6  c2.3-2.2,3.5-4.8,3.5-7.9s-1.2-5.8-3.5-8.2L147.6,131c-2.2-2.3-4.9-3.5-8-3.5c-3.2,0-5.9,1.2-8,3.5c-2.3,2.2-3.5,4.8-3.4,7.9  c0.1,3.1,1.2,5.8,3.4,8.2L368.2,383.7z" class="multicolor-0:systemRedColor hierarchical-1:primary SFSymbolsPreviewFF3B30" style="fill: #FF3B30;"/>
</svg>