<?xml version="1.0" encoding="UTF-8"?>
<!--Generator: Apple Native CoreSVG 326-->
<!DOCTYPE svg
PUBLIC "-//W3C//DTD SVG 1.1//EN"
       "http://www.w3.org/Graphics/SVG/1.1/DTD/svg11.dtd">
<svg version="1.1" xmlns="http://www.w3.org/2000/svg" xmlns:xlink="http://www.w3.org/1999/xlink" viewBox="0 0 25.8008 25.459">
 <g>
  <rect height="25.459" opacity="0" width="25.8008" x="0" y="0"/>
  <path d="M25.4395 12.7344C25.4395 19.7461 19.7266 25.459 12.7148 25.459C5.71289 25.459 0 19.7461 0 12.7344C0 5.73242 5.71289 0.0195312 12.7148 0.0195312C19.7266 0.0195312 25.4395 5.73242 25.4395 12.7344ZM8.00781 18.9941C8.03711 19.8438 8.57422 20.3418 9.42383 20.3418L16.0449 20.3418C16.735 20.3418 17.2428 19.9976 17.4101 19.3925L15.3393 17.3217L15.3125 17.9395C15.3125 18.1738 15.127 18.3398 14.8828 18.3398C14.6094 18.3398 14.4531 18.1641 14.4629 17.9199L14.5172 16.4997L13.1445 15.127L13.1445 17.9199C13.1445 18.1641 12.959 18.3398 12.6953 18.3398C12.4316 18.3398 12.2559 18.1641 12.2559 17.9199L12.2559 14.2383L10.7284 12.7108L10.9277 17.9199C10.9375 18.1641 10.7812 18.3398 10.5078 18.3398C10.2637 18.3398 10.0781 18.1738 10.0781 17.9395L9.81161 11.794L7.57357 9.55599ZM6.2793 6.29883C6.07422 6.51367 6.08398 6.85547 6.2793 7.05078L18.4082 19.1699C18.6035 19.375 18.9551 19.375 19.1602 19.1699C19.375 18.9453 19.375 18.623 19.1602 18.418L7.04102 6.29883C6.83594 6.08398 6.50391 6.08398 6.2793 6.29883ZM11.3965 4.83398C10.3125 4.83398 9.62891 5.49805 9.62891 6.50391L9.62891 7.58789L9.55078 7.58789L12.2559 10.293L12.2559 10.2734C12.2559 10.0098 12.4219 9.85352 12.6953 9.85352C12.9785 9.85352 13.1445 10.0098 13.1445 10.2734L13.1445 11.1816L14.6626 12.6998L14.7559 10.2637C14.7656 10.0098 14.9414 9.85352 15.2051 9.85352C15.4883 9.85352 15.6445 10.0195 15.6445 10.2832L15.5033 13.5404L17.6211 15.6582L17.9395 8.59375L19.0039 8.59375C19.2969 8.59375 19.5117 8.37891 19.5215 8.10547C19.5312 7.82227 19.2969 7.58789 19.0039 7.58789L15.8301 7.58789L15.8301 6.50391C15.8301 5.49805 15.1367 4.83398 14.043 4.83398ZM14.6191 6.57227L14.6191 7.58789L10.791 7.58789L10.791 6.57227C10.791 6.21094 11.0547 5.9668 11.4355 5.9668L13.9648 5.9668C14.3555 5.9668 14.6191 6.21094 14.6191 6.57227Z" fill="black" fill-opacity="0.85"/>
 </g>
</svg>
