<?xml version="1.0" ?><!-- Generator: Adobe Illustrator 25.0.0, SVG Export Plug-In . SVG Version: 6.00 Build 0)  --><svg xmlns="http://www.w3.org/2000/svg" xmlns:xlink="http://www.w3.org/1999/xlink" version="1.1" id="Layer_1" x="0px" y="0px" viewBox="0 0 512 512" style="enable-background:new 0 0 512 512;" xml:space="preserve">
<path d="M87.3,512h337.3c29.1,0,50.9-7.2,65.5-21.6c14.6-14.4,21.8-35.9,21.8-64.7V86.2c0-28.7-7.3-50.3-21.8-64.7  C475.6,7.2,453.8,0,424.7,0H87.3C58.2,0,36.4,7.2,21.8,21.6C7.3,35.9,0,57.5,0,86.2v339.6c0,28.7,7.3,50.3,21.8,64.7  C36.4,504.8,58.2,512,87.3,512z M87.9,467.2c-13.9,0-24.6-3.7-32-11c-7.4-7.3-11.1-18.2-11.1-32.7V88.4c0-14.5,3.7-25.4,11.1-32.7  c7.4-7.3,18.1-11,32-11h336.2c13.7,0,24.3,3.7,31.8,11c7.5,7.3,11.3,18.2,11.3,32.7v335.1c0,14.5-3.8,25.4-11.3,32.7  c-7.5,7.3-18.1,11-31.8,11H87.9z" class="multicolor-0:systemRedColor hierarchical-0:secondary SFSymbolsPreviewFF3B30" style="fill: #FF3B30;"/>
<path d="M362.1,312.3l6.1-142.1h22c3.3,0,6.2-1.2,8.5-3.5c2.3-2.3,3.6-5.1,3.8-8.2c0.2-3.3-1-6.2-3.5-8.5c-2.5-2.3-5.4-3.5-8.8-3.5  h-66.5V124c0-11.5-3.6-20.6-10.7-27.4c-7.1-6.8-16.8-10.2-29.1-10.2h-56.2c-12.1,0-21.6,3.4-28.8,10.2c-7.1,6.8-10.7,15.9-10.7,27.4  c0,1.5,0,2.9,0,4.3c0,1.4,0,2.9,0,4.6h-5.6l68.7,68.7v-5.3c1.1-1.1,2.5-1.7,4.2-1.7c7,0,10.6,3.2,10.6,9.7v12l30.9,30.9l1.7-42.8  c0-6.5,3.4-9.7,10.3-9.7c6.7,0,10,3.2,10,9.7l-2.5,62L362.1,312.3z M216.4,146.6v-21.1c0-3.5,1.2-6.4,3.6-8.6  c2.4-2.2,5.5-3.3,9.2-3.3h53.1c3.7,0,6.8,1.1,9.2,3.3c2.4,2.2,3.6,5.1,3.6,8.6v21.1H216.4z M184.4,419.4h143.8  c6.3,0,11.8-1.3,16.5-4c4.7-2.7,8-6.3,9.9-10.7l0.8-2.8l-41.7-41.4l-0.8,8.3c-0.9,5-4.2,7.5-9.7,7.5c-6.7,0-9.9-3.2-9.7-9.5  l0.8-25.9l-28.1-28.1v54c0,6.3-3.5,9.5-10.6,9.5c-6.7,0-10-3.2-10-9.5V292l-31.4-31.1l3.9,106c0,6.3-3.2,9.5-9.7,9.5  c-6.7,0-10-3.2-10-9.5L193.6,240l-48.4-48.4l8.6,198.6c0.4,9.3,3.2,16.5,8.5,21.6C167.6,416.8,174.9,419.4,184.4,419.4z   M380.7,397.1c2.6,2.6,5.6,3.8,8.9,3.8c3.3-0.1,6.2-1.4,8.6-4c2.6-2.4,3.9-5.3,3.9-8.8c0-3.4-1.3-6.4-3.9-9l-262-262  c-2.4-2.6-5.4-3.9-8.9-3.9c-3.5,0-6.5,1.3-8.9,3.9c-2.6,2.4-3.8,5.3-3.8,8.8c0.1,3.4,1.3,6.4,3.8,9L380.7,397.1z" class="multicolor-0:systemRedColor hierarchical-1:primary SFSymbolsPreviewFF3B30" style="fill: #FF3B30;"/>
</svg>