<?xml version="1.0" encoding="UTF-8"?>
<!--Generator: Apple Native CoreSVG 326-->
<!DOCTYPE svg
PUBLIC "-//W3C//DTD SVG 1.1//EN"
       "http://www.w3.org/Graphics/SVG/1.1/DTD/svg11.dtd">
<svg version="1.1" xmlns="http://www.w3.org/2000/svg" xmlns:xlink="http://www.w3.org/1999/xlink" viewBox="0 0 25.8008 25.459">
 <g>
  <rect height="25.459" opacity="0" width="25.8008" x="0" y="0"/>
  <path d="M12.7148 25.4395C19.7363 25.4395 25.4395 19.7461 25.4395 12.7246C25.4395 5.70312 19.7363 0 12.7148 0C5.69336 0 0 5.70312 0 12.7246C0 19.7461 5.69336 25.4395 12.7148 25.4395ZM12.7148 23.623C6.68945 23.623 1.81641 18.75 1.81641 12.7246C1.81641 6.69922 6.68945 1.82617 12.7148 1.82617C18.7402 1.82617 23.6133 6.69922 23.6133 12.7246C23.6133 18.75 18.7402 23.623 12.7148 23.623Z" fill="black" fill-opacity="0.85"/>
  <path d="M9.49219 20.1465L15.957 20.1465C16.7676 20.1465 17.3145 19.6582 17.3438 18.8379L17.8027 8.68164L18.8477 8.68164C19.1211 8.68164 19.3359 8.45703 19.3457 8.19336C19.3555 7.91992 19.1211 7.70508 18.8477 7.70508L15.7422 7.70508L15.7422 6.64062C15.7422 5.6543 15.0586 5.00977 14.0039 5.00977L11.416 5.00977C10.3613 5.00977 9.69727 5.6543 9.69727 6.64062L9.69727 7.70508L6.54297 7.70508C6.2793 7.70508 6.05469 7.91992 6.05469 8.19336C6.05469 8.45703 6.2793 8.68164 6.54297 8.68164L7.64648 8.68164L8.11523 18.8379C8.14453 19.6582 8.66211 20.1465 9.49219 20.1465ZM10.5469 18.1934C10.3125 18.1934 10.1367 18.0371 10.1367 17.8027L9.80469 10.3223C9.80469 10.0684 9.96094 9.90234 10.2441 9.90234C10.4883 9.90234 10.6641 10.0586 10.6738 10.3027L10.957 17.7832C10.9668 18.0273 10.8203 18.1934 10.5469 18.1934ZM12.6855 18.1934C12.4316 18.1934 12.2559 18.0176 12.2559 17.7832L12.2559 10.3125C12.2559 10.0586 12.4121 9.90234 12.6855 9.90234C12.9492 9.90234 13.125 10.0586 13.125 10.3125L13.125 17.7832C13.125 18.0176 12.9395 18.1934 12.6855 18.1934ZM14.8145 18.1934C14.5508 18.1934 14.4043 18.0273 14.4141 17.7832L14.6973 10.3027C14.707 10.0586 14.8828 9.90234 15.1367 9.90234C15.4004 9.90234 15.5664 10.0684 15.5664 10.3223L15.2344 17.8027C15.2344 18.0371 15.0586 18.1934 14.8145 18.1934ZM10.8203 7.70508L10.8203 6.69922C10.8203 6.34766 11.084 6.11328 11.4551 6.11328L13.9258 6.11328C14.3066 6.11328 14.5703 6.34766 14.5703 6.69922L14.5703 7.70508Z" fill="black" fill-opacity="0.85"/>
 </g>
</svg>
