<?xml version="1.0" encoding="UTF-8"?>
<!--Generator: Apple Native CoreSVG 326-->
<!DOCTYPE svg
PUBLIC "-//W3C//DTD SVG 1.1//EN"
       "http://www.w3.org/Graphics/SVG/1.1/DTD/svg11.dtd">
<svg version="1.1" xmlns="http://www.w3.org/2000/svg" xmlns:xlink="http://www.w3.org/1999/xlink" viewBox="0 0 27.29 30.0293">
 <g>
  <rect height="30.0293" opacity="0" width="27.29" x="0" y="0"/>
  <path d="M5.70505 9.35495L6.47705 24.8926C6.51611 25.6738 7.11182 26.2598 7.8833 26.2598L19.0552 26.2598C19.8364 26.2598 20.4224 25.6836 20.4614 24.8926L20.4969 24.1468L22.0731 25.723C21.7507 27.0385 20.6705 27.8906 19.2114 27.8906L7.73682 27.8906C6.0376 27.8906 4.86572 26.7578 4.7876 25.0781L3.92656 7.57647ZM10.1197 13.7696L10.4028 23.2812C10.4126 23.6621 10.1392 23.9355 9.71924 23.9355C9.31885 23.9355 9.04541 23.6719 9.03564 23.2812L8.71808 12.368ZM14.1821 17.832L14.1821 23.2812C14.1821 23.6621 13.8892 23.9355 13.479 23.9355C13.0591 23.9355 12.7759 23.6621 12.7759 23.2812L12.7759 16.4258ZM17.9614 21.6113L17.9126 23.291C17.9028 23.6816 17.6294 23.9355 17.229 23.9355C16.8091 23.9355 16.5356 23.6621 16.5454 23.2812L16.6347 20.2846ZM18.8892 2.80273L18.8892 4.80469L24.7681 4.80469C25.2075 4.80469 25.5786 5.17578 25.5786 5.625C25.5786 6.06445 25.2173 6.43555 24.7681 6.43555L23.0774 6.43555L22.4239 19.8612L20.779 18.2156L21.3394 6.43555L9.00407 6.43555L7.37392 4.80469L8.03955 4.80469L8.03955 2.80273C8.03955 1.06445 9.1626 0 11.0278 0L15.9009 0C17.7661 0 18.8892 1.06445 18.8892 2.80273ZM18.313 9.52148L18.137 15.5725L16.8144 14.2493L16.9556 9.51172C16.9653 9.12109 17.2485 8.87695 17.6294 8.87695C18.0493 8.87695 18.3228 9.13086 18.313 9.52148ZM14.1821 9.52148L14.1821 11.6158L12.7759 10.209L12.7759 9.52148C12.7759 9.13086 13.0591 8.86719 13.479 8.86719C13.8892 8.86719 14.1821 9.13086 14.1821 9.52148ZM11.1157 1.61133C10.2856 1.61133 9.74854 2.11914 9.74854 2.90039L9.74854 4.80469L17.1802 4.80469L17.1802 2.90039C17.1802 2.11914 16.6431 1.61133 15.8032 1.61133Z" fill="black" fill-opacity="0.85"/>
  <path d="M24.1528 25.8789C24.4751 26.2012 25.0122 26.2012 25.3247 25.8789C25.6567 25.5469 25.6567 25.0195 25.3247 24.6973L2.78564 2.14844C2.47314 1.82617 1.93604 1.81641 1.604 2.14844C1.28174 2.46094 1.28174 3.00781 1.604 3.33008Z" fill="black" fill-opacity="0.85"/>
 </g>
</svg>
