<?xml version="1.0" ?><!-- Generator: Adobe Illustrator 25.0.0, SVG Export Plug-In . SVG Version: 6.00 Build 0)  --><svg xmlns="http://www.w3.org/2000/svg" xmlns:xlink="http://www.w3.org/1999/xlink" version="1.1" id="Layer_1" x="0px" y="0px" viewBox="0 0 512 512" style="enable-background:new 0 0 512 512;" xml:space="preserve">
<path d="M68.2,441.3h375.6c45.6,0,68.2-22.6,68.2-67.3V245.5c0-19.5-2.6-29.3-12.4-41.3l-74.9-92.7c-25.4-31.3-36.7-40.8-75.3-40.8  H162.6c-38.6,0-49.7,9.6-75.1,40.8l-75.1,92.7C2.8,216.2,0,225.9,0,245.5V374C0,419,22.8,441.3,68.2,441.3z M256,302.6  c-30.6,0-50.4-26.7-50.4-51.9V250c0-9.1-5.4-17.6-16.7-17.6H45.8c-7.2,0-8.7-6.3-5-10.9L121.4,120c10.6-13.5,22.8-18.9,38.6-18.9  H352c15.9,0,28,5.4,38.6,18.9l80.8,101.6c3.5,4.6,2.2,10.9-5,10.9H323.1c-11.3,0-16.5,8.5-16.5,17.6v0.7  C306.6,275.9,286.8,302.6,256,302.6z M347.4,133H164.8c-5.9,0-10.4,4.6-10.4,10.4c0,5.9,4.6,10.4,10.4,10.4h182.6  c5.9,0,10.2-4.6,10.2-10.4C357.6,137.6,353.3,133,347.4,133z M376.1,182.1H135.9c-6.1,0-10.6,5.4-10.6,11.3  c0,5.9,4.6,10.9,10.6,10.9h240.1c6.1,0,10.9-5,10.9-10.9C386.9,187.5,382.2,182.1,376.1,182.1z M68.6,406.4  c-21.7,0-33.7-11.5-33.7-34.1V264.1h137.7c5.2,40.6,39.3,70.6,83.4,70.6s78.2-30.2,83.4-70.6H477v108.1c0,22.6-12.2,34.1-33.7,34.1  H68.6z"/>
</svg>