<?xml version="1.0" ?><!-- Generator: Adobe Illustrator 25.0.0, SVG Export Plug-In . SVG Version: 6.00 Build 0)  --><svg xmlns="http://www.w3.org/2000/svg" xmlns:xlink="http://www.w3.org/1999/xlink" version="1.1" id="Layer_1" x="0px" y="0px" viewBox="0 0 512 512" style="enable-background:new 0 0 512 512;" xml:space="preserve">
<path d="M256,512c140,0,256-116.2,256-256C512,116,395.8,0,255.7,0C116,0,0,116,0,256C0,395.8,116.2,512,256,512z M256,469.3  c-118.5,0-213.1-94.9-213.1-213.3S137.3,42.7,255.7,42.7S469.1,137.5,469.3,256S374.5,469.3,256,469.3z M148.1,357.6h215.8  c26.1,0,39.2-13.3,39.2-38.7v-68.8c0-11.3-2-16.6-7.3-23.6l-44.2-60c-14.6-19.6-23.1-24.3-44.9-24.3H205.3  c-21.8,0-30.6,4.8-44.9,24.3l-44.2,60c-5.3,7-7.3,12.3-7.3,23.6V319C108.9,344.6,122.2,357.6,148.1,357.6z M144.1,242.2  c-3.8,0-4.5-3.3-2.8-6l43.4-59.2c5-6.8,10.3-9.8,19.1-9.8h104.7c8.8,0,14.1,3.3,18.8,9.8l43.7,59.2c1.8,2.5,0.8,6-3,6h-72.3  c-6.5,0-9.5,5-9.5,10v3c0,17.6-11.8,28.4-30.1,28.4c-18.3,0-29.6-10.8-29.6-28.4v-3c0-5-3.5-10-10-10H144.1z"/>
</svg>