<?xml version="1.0" ?><!-- Generator: Adobe Illustrator 25.0.0, SVG Export Plug-In . SVG Version: 6.00 Build 0)  --><svg xmlns="http://www.w3.org/2000/svg" xmlns:xlink="http://www.w3.org/1999/xlink" version="1.1" id="Layer_1" x="0px" y="0px" viewBox="0 0 512 512" style="enable-background:new 0 0 512 512;" xml:space="preserve">
<path d="M68.2,441.3h375.6c45.6,0,68.2-22.6,68.2-67.3V254.2c0-19.5-3-28.7-12.4-41.3l-74.9-101.4C401,79.1,388,70.7,349.4,70.7  H162.6c-38.6,0-51.5,8.5-75.1,40.8L12.4,212.9C3.3,225.5,0,234.6,0,254.2V374C0,419,22.8,441.3,68.2,441.3z M256,315.6  c-32.6,0-53.4-28.2-53.4-54.9V260c0-9.8-5.9-18.9-18-18.9H46.2c-7.2,0-8.7-6.1-5.2-10.9L121.4,120c10-13.9,22.8-18.9,38.6-18.9H352  c15.9,0,28.7,5,38.6,18.9L471,230.3c3.3,4.8,2,10.9-5.2,10.9H327.4c-12.2,0-17.8,9.1-17.8,18.9v0.7  C309.6,287.4,288.8,315.6,256,315.6z"/>
</svg>