<?xml version="1.0" ?><!-- Generator: Adobe Illustrator 25.0.0, SVG Export Plug-In . SVG Version: 6.00 Build 0)  --><svg xmlns="http://www.w3.org/2000/svg" xmlns:xlink="http://www.w3.org/1999/xlink" version="1.1" id="Layer_1" x="0px" y="0px" viewBox="0 0 512 512" style="enable-background:new 0 0 512 512;" xml:space="preserve">
<path d="M256.2,284.4c4.3,0,8.3-1.3,12.6-5.6L342,208c3.5-3.3,5.2-6.9,5.2-11.5c0-8.9-6.7-15.2-15.9-15.2c-4.1,0-8.7,1.7-11.7,5.2  l-33,35l-14.5,15.4l1.3-32.6V32.6c0-9.1-7.8-16.7-17.2-16.7c-9.3,0-17.4,7.6-17.4,16.7v171.8l1.5,32.6l-14.8-15.4l-33-35  c-3-3.5-7.8-5.2-11.9-5.2c-9.1,0-15.6,6.3-15.6,15.2c0,4.6,2,8.3,5.2,11.5l73.4,70.8C248,283.1,251.7,284.4,256.2,284.4z   M68.2,496.1h375.6c45.6,0,68.2-22.6,68.2-67.3V300.3c0-19.8-2.6-29.5-12.4-41.3l-74.9-92.9c-25.4-31.3-41-49.5-79.5-49.5h-31.9  v30.6h34.3c15.9,0,32.4,13.9,43,27.4l77.1,97.1c8.7,11.1,5.6,15.4-6.3,15.4H323.1c-11.3,0-16.5,8.7-16.5,17.6v0.9  c0,25.2-19.8,51.7-50.6,51.7c-30.6,0-50.4-26.5-50.4-51.7v-0.9c0-8.9-5.4-17.6-16.7-17.6H51c-12.6,0-15-5-6.5-15.4l76.9-97.1  c10.6-13.5,27.1-27.4,43-27.4h34.5v-30.6H167c-38.6,0-54.1,18.2-79.5,49.5L12.4,259C2.8,270.8,0,280.5,0,300.3v128.5  C0,473.6,22.8,496.1,68.2,496.1z M68.6,461.2c-21.7,0-33.7-11.7-33.7-34.3V319h137.7c5.2,40.6,39.3,70.6,83.4,70.6  s78.2-30.2,83.4-70.6H477v107.9c0,22.6-12.2,34.3-33.7,34.3H68.6z"/>
</svg>