<?xml version="1.0" ?><!-- Generator: Adobe Illustrator 25.0.0, SVG Export Plug-In . SVG Version: 6.00 Build 0)  --><svg xmlns="http://www.w3.org/2000/svg" xmlns:xlink="http://www.w3.org/1999/xlink" version="1.1" id="Layer_1" x="0px" y="0px" viewBox="0 0 512 512" style="enable-background:new 0 0 512 512;" xml:space="preserve">
<path d="M256.2,324.4c9.3,0,17.2-7.8,17.2-16.9v-223l-1.3-32.4l14.5,15.2l33,35.2c3,3.5,7.6,5.2,11.7,5.2c9.1,0,15.9-6.5,15.9-15.2  c0-4.8-1.7-8.3-5.2-11.5l-73.2-70.8c-4.3-4.3-8.3-5.9-12.6-5.9c-4.6,0-8.3,1.5-12.6,5.9L170.2,81c-3.3,3.3-5.2,6.7-5.2,11.5  c0,8.7,6.5,15.2,15.6,15.2c4.1,0,8.9-1.7,11.9-5.2l33-35.2l14.8-15.4l-1.5,32.6v223C238.8,316.6,246.9,324.4,256.2,324.4z   M68.2,507.7h375.6c45.6,0,68.2-22.6,68.2-67.3V311.8c0-19.8-2.4-29.5-12.4-41.3l-68.4-84.7c-26.9-32.8-36.7-40.4-75.3-40.4h-42.6  v30.6h45.2c15.9,0,25.8,2.8,38.4,18.5l70.8,88.6c8.9,11.1,5.6,15.4-6.3,15.4H323.1c-11.3,0-16.5,8.7-16.5,17.6v0.9  c0,25.2-19.8,51.7-50.6,51.7c-30.6,0-50.4-26.5-50.4-51.7v-0.9c0-8.9-5.4-17.6-16.7-17.6H51c-12.6,0-15-5-6.5-15.4l70.1-87.9  c13-16.1,23-19.1,38.9-19.1h45.4v-30.6h-42.8c-38.6,0-48,7.4-75.6,41l-68.2,84C2.8,282.1,0,292,0,311.8v128.5  C0,485.1,22.8,507.7,68.2,507.7z M68.6,472.7C46.9,472.7,35,461,35,438.4V330.5h137.7c5.2,40.6,39.3,70.6,83.4,70.6  s78.2-30.2,83.4-70.6H477v107.9c0,22.6-12.2,34.3-33.7,34.3H68.6z"/>
</svg>