<?xml version="1.0" encoding="UTF-8"?>
<!--Generator: Apple Native CoreSVG 326-->
<!DOCTYPE svg
PUBLIC "-//W3C//DTD SVG 1.1//EN"
       "http://www.w3.org/Graphics/SVG/1.1/DTD/svg11.dtd">
<svg version="1.1" xmlns="http://www.w3.org/2000/svg" xmlns:xlink="http://www.w3.org/1999/xlink" viewBox="0 0 29.9512 21.2012">
 <g>
  <rect height="21.2012" opacity="0" width="29.9512" x="0" y="0"/>
  <path d="M3.79883 21.2012L25.7812 21.2012C28.3105 21.2012 29.5898 19.9219 29.5898 17.4316L29.5898 10.127C29.5898 9.0918 29.4434 8.59375 28.9355 7.95898L24.3457 2.2168C22.9883 0.537109 22.3438 0.0292969 20.2441 0.0292969L9.3457 0.0292969C7.24609 0.0292969 6.60156 0.537109 5.24414 2.2168L0.644531 7.95898C0.146484 8.59375 0 9.0918 0 10.127L0 17.4316C0 19.9316 1.2793 21.2012 3.79883 21.2012ZM2.29492 9.39453C1.93359 9.39453 1.85547 9.08203 2.04102 8.84766L6.93359 2.64648C7.54883 1.86523 8.24219 1.55273 9.19922 1.55273L20.3906 1.55273C21.3477 1.55273 22.041 1.86523 22.6562 2.64648L27.5488 8.84766C27.7344 9.08203 27.6562 9.39453 27.2949 9.39453L18.7207 9.39453C18.1348 9.39453 17.8613 9.82422 17.8613 10.3027L17.8613 10.3613C17.8613 11.9629 16.6211 13.5059 14.7949 13.5059C12.959 13.5059 11.7285 11.9629 11.7285 10.3613L11.7285 10.3027C11.7285 9.82422 11.4453 9.39453 10.8691 9.39453ZM3.83789 19.4629C2.4707 19.4629 1.72852 18.7402 1.72852 17.3438L1.72852 10.9766L10.0781 10.9766C10.3223 13.3691 12.2852 15.1074 14.7949 15.1074C17.3047 15.1074 19.2578 13.3594 19.502 10.9766L27.8516 10.9766L27.8516 17.3438C27.8516 18.7402 27.0898 19.4629 25.752 19.4629Z" fill="black" fill-opacity="0.85"/>
 </g>
</svg>
