<?xml version="1.0" ?><!-- Generator: Adobe Illustrator 25.0.0, SVG Export Plug-In . SVG Version: 6.00 Build 0)  --><svg xmlns="http://www.w3.org/2000/svg" xmlns:xlink="http://www.w3.org/1999/xlink" version="1.1" id="Layer_1" x="0px" y="0px" viewBox="0 0 512 512" style="enable-background:new 0 0 512 512;" xml:space="preserve">
<path d="M0,420.4c0,12.6,2.7,24,8.2,34.2c5.5,10.2,13.3,18.3,23.4,24.4c10.1,6,22.1,9.1,36,9.1h376.8c13.9,0,25.9-3,36-9.1  c10.1-6,17.9-14.2,23.4-24.4c5.5-10.2,8.2-21.6,8.2-34.2c0-11.6-3-22.6-9.1-33.1L314.2,58.3c-6.4-11.3-14.8-19.8-25.3-25.6  c-10.5-5.8-21.5-8.7-32.9-8.7c-11.4,0-22.4,2.9-32.8,8.7c-10.4,5.8-18.9,14.3-25.2,25.6L9.1,387.1c-2.9,5.2-5.2,10.7-6.7,16.4  C0.8,409.2,0,414.9,0,420.4z M39.7,420.4c0-5.1,1.2-9.9,3.7-14.4L231.6,76.9c2.8-4.7,6.3-8.2,10.7-10.4c4.3-2.2,8.9-3.3,13.6-3.3  v386.4H68.1c-8.5,0-15.3-3-20.6-8.9C42.3,434.7,39.7,427.9,39.7,420.4z"/>
</svg>