<?xml version="1.0" ?><!-- Generator: Adobe Illustrator 25.0.0, SVG Export Plug-In . SVG Version: 6.00 Build 0)  --><svg xmlns="http://www.w3.org/2000/svg" xmlns:xlink="http://www.w3.org/1999/xlink" version="1.1" id="Layer_1" x="0px" y="0px" viewBox="0 0 512 512" style="enable-background:new 0 0 512 512;" xml:space="preserve">
<path d="M256,512c140,0,256-116.2,256-256C512,116,395.8,0,255.7,0C116,0,0,116,0,256C0,395.8,116.2,512,256,512z M125.2,306.4  L223.1,136c16.8-28.9,49.4-27.9,65.5-0.3l98.1,170.7c17.1,29.6,3.8,58-29.4,58H154.9C121.5,364.4,108.4,336.1,125.2,306.4z   M159.4,320.3c-2.8,4-1.3,7.8,3.8,7.8h185.7c5.3,0,6.5-3.8,4-7.8L260,159.1c-2-3.8-6.3-4-8.3,0L159.4,320.3z"/>
</svg>