<?xml version="1.0" ?><!-- Generator: Adobe Illustrator 25.0.0, SVG Export Plug-In . SVG Version: 6.00 Build 0)  --><svg xmlns="http://www.w3.org/2000/svg" xmlns:xlink="http://www.w3.org/1999/xlink" version="1.1" id="Layer_1" x="0px" y="0px" viewBox="0 0 512 512" style="enable-background:new 0 0 512 512;" xml:space="preserve">
<path d="M0,420.4c0,12.6,2.7,24,8.2,34.2c5.5,10.2,13.3,18.3,23.4,24.4c10.1,6,22.1,9.1,36,9.1h376.8c13.9,0,25.9-3,36-9.1  c10.1-6,17.9-14.2,23.4-24.4c5.5-10.2,8.2-21.6,8.2-34.2c0-11.6-3-22.6-9.1-33.1L314.2,58.3c-6.4-11.3-14.8-19.8-25.3-25.6  c-10.5-5.8-21.5-8.7-32.9-8.7c-11.4,0-22.4,2.9-32.8,8.7c-10.4,5.8-18.9,14.3-25.2,25.6L9.1,387.1c-2.9,5.2-5.2,10.7-6.7,16.4  C0.8,409.2,0,414.9,0,420.4z M255.9,449.6V63.2c4.9,0,9.6,1.1,14.1,3.3c4.5,2.2,8,5.7,10.7,10.4l188.5,328.8  c1.3,2.4,2.2,4.9,2.6,7.5c0.4,2.5,0.6,4.9,0.6,7.2c0,7.5-2.6,14.2-7.7,20.2c-5.1,6-12,8.9-20.4,8.9H255.9z"/>
</svg>