<?xml version="1.0" ?><!-- Generator: Adobe Illustrator 25.0.0, SVG Export Plug-In . SVG Version: 6.00 Build 0)  --><svg xmlns="http://www.w3.org/2000/svg" xmlns:xlink="http://www.w3.org/1999/xlink" version="1.1" id="Layer_1" x="0px" y="0px" viewBox="0 0 512 512" style="enable-background:new 0 0 512 512;" xml:space="preserve">
<path d="M67.6,488h376.8c41.6,0,67.6-29.9,67.6-67.6c0-11.3-2.9-22.8-9.1-33.3L314.2,58.3C301.4,36,278.9,24,256.1,24  c-23,0-45.5,12-58.3,34.3L9.1,387.4C2.9,397.9,0,409.2,0,420.4C0,458.1,26,488,67.6,488z M67.8,449.6c-16.9,0-28.2-14-28.2-29.1  c0-4.4,0.7-9.5,3.2-14.7L231.4,76.9c5.4-9.3,15.2-13.7,24.7-13.7c9.5,0,18.9,4.2,24.2,13.7L468.7,406c2.7,4.9,3.9,10,3.9,14.4  c0,15.2-11.8,29.1-28.6,29.1H67.8z"/>
</svg>