<?xml version="1.0" encoding="UTF-8"?>
<!--Generator: Apple Native CoreSVG 326-->
<!DOCTYPE svg
PUBLIC "-//W3C//DTD SVG 1.1//EN"
       "http://www.w3.org/Graphics/SVG/1.1/DTD/svg11.dtd">
<svg version="1.1" xmlns="http://www.w3.org/2000/svg" xmlns:xlink="http://www.w3.org/1999/xlink" viewBox="0 0 41.7055 31.9557">
 <g>
  <rect height="31.9557" opacity="0" width="41.7055" x="0" y="0"/>
  <path d="M3.88496 31.5101C4.13887 31.9398 4.67598 32.0765 5.07637 31.8421L40.0373 11.6859C40.4377 11.4515 40.5939 10.9437 40.3596 10.5335C40.1057 10.0941 39.5686 9.95736 39.1682 10.1917L4.20723 30.348C3.80683 30.5824 3.66035 31.1097 3.88496 31.5101ZM5.14473 25.1527L6.33613 24.4691C6.13105 24.2542 5.94551 24.0199 5.78926 23.7464C4.71504 21.891 5.34004 19.5277 7.20527 18.4535C9.06074 17.389 11.4143 18.014 12.4885 19.8792C12.6447 20.1429 12.7619 20.4261 12.8498 20.7093L24.9104 13.7464C24.7053 13.5316 24.5197 13.2972 24.3635 13.0238C23.2893 11.1683 23.924 8.80502 25.7795 7.7308C27.635 6.65658 29.9885 7.29135 31.0627 9.14681C31.2287 9.42025 31.3361 9.69369 31.424 9.98666L34.1975 8.3851C35.5451 7.60385 35.8576 6.34408 35.0666 4.96713L33.0744 1.51986C32.2834 0.142908 31.0236-0.21842 29.676 0.56283L22.3225 4.81088L21.0236 3.0726C19.8908 1.52963 18.4553 1.22689 16.8146 2.17416L13.2404 4.23471C10.3791 5.8851 8.97285 7.24252 7.75215 9.56674L5.42793 13.9515L2.41035 16.3441C-0.0310561 18.2679-0.587697 20.1331 0.60371 22.2035L1.75605 24.1956C2.54707 25.5824 3.80683 25.9339 5.14473 25.1527ZM10.5256 24.2054C11.8635 23.4339 12.3127 21.764 11.5412 20.4261C10.7697 19.0882 9.09004 18.639 7.75215 19.4105C6.42402 20.182 5.96504 21.8617 6.73652 23.1995C7.50801 24.5277 9.18769 24.9769 10.5256 24.2054ZM29.0998 13.4828C30.4377 12.7113 30.8869 11.0316 30.1154 9.70346C29.3439 8.36556 27.6643 7.91635 26.3264 8.68783C24.9982 9.44955 24.549 11.139 25.3205 12.4671C26.0822 13.805 27.7619 14.2542 29.0998 13.4828Z" fill="black" fill-opacity="0.85"/>
  <path d="M39.1877 31.1097C39.9982 31.1097 40.5646 30.6995 40.926 30.0941C41.1506 29.7328 41.3459 29.137 41.3459 28.7367C41.3459 28.3851 41.1018 28.1605 40.7502 28.1605C40.467 28.1605 40.2521 28.3558 40.1838 28.6683C40.0373 29.4398 39.8127 29.9769 39.1486 29.9769C38.3186 29.9769 37.9572 28.7171 37.9572 27.0179C37.9572 25.1429 38.426 24.0589 39.1486 24.0589C39.7639 24.0589 40.0568 24.6742 40.1643 25.3773C40.2131 25.7191 40.4475 25.9242 40.7795 25.9242C41.1213 25.9242 41.3166 25.6703 41.3166 25.3285C41.3166 24.8695 41.092 24.1761 40.7209 23.7269C40.3303 23.2386 39.7736 22.9456 39.1389 22.9456C38.0451 22.9456 37.4006 23.6878 37.0588 24.557C36.7463 25.2992 36.6584 26.1488 36.6584 27.0179C36.6584 28.0335 36.7658 29.0492 37.2248 29.8988C37.6545 30.6703 38.2893 31.1097 39.1877 31.1097ZM26.0529 31.0413C26.4436 31.0413 26.6975 30.7874 26.6975 30.387L26.6975 27.4867L28.8264 27.4867L28.8264 30.387C28.8264 30.7874 29.0803 31.0413 29.4709 31.0413C29.8615 31.0413 30.1154 30.7874 30.1154 30.387L30.1154 23.6585C30.1154 23.2679 29.8615 23.014 29.4709 23.014C29.0803 23.014 28.8264 23.2679 28.8264 23.6585L28.8264 26.4124L26.6975 26.4124L26.6975 23.6585C26.6975 23.2679 26.4436 23.014 26.0529 23.014C25.6721 23.014 25.4279 23.2679 25.4279 23.6585L25.4279 30.387C25.4279 30.7874 25.6721 31.0413 26.0529 31.0413ZM31.8342 31.0413L33.2209 31.0413C35.2424 31.0413 35.9162 29.0296 35.9162 27.0081C35.9162 24.8206 35.1545 23.014 33.2209 23.014L31.8342 23.014C31.4631 23.014 31.1994 23.2386 31.1994 23.6781L31.1994 30.3773C31.1994 30.8167 31.4631 31.0413 31.8342 31.0413ZM32.4592 29.9574L32.4592 24.098L33.0646 24.098C34.3635 24.098 34.6174 25.7191 34.6174 27.0081C34.6174 28.3167 34.383 29.9574 33.0646 29.9574Z" fill="black" fill-opacity="0.85"/>
 </g>
</svg>
