<?xml version="1.0" encoding="UTF-8"?>
<!--Generator: Apple Native CoreSVG 326-->
<!DOCTYPE svg
PUBLIC "-//W3C//DTD SVG 1.1//EN"
       "http://www.w3.org/Graphics/SVG/1.1/DTD/svg11.dtd">
<svg version="1.1" xmlns="http://www.w3.org/2000/svg" xmlns:xlink="http://www.w3.org/1999/xlink" viewBox="0 0 43.0407 32.7102">
 <g>
  <rect height="32.7102" opacity="0" width="43.0407" x="0" y="0"/>
  <path d="M7.81431 10.0318L8.99595 10.7154C9.08384 10.4225 9.19126 10.149 9.34751 9.87559C10.4217 8.02012 12.7752 7.38536 14.6405 8.45957C16.496 9.53379 17.1307 11.8873 16.0565 13.7428C15.9002 14.0162 15.7147 14.2604 15.5096 14.4752L27.5702 21.4381C27.6581 21.1451 27.7655 20.8717 27.9315 20.5982C28.996 18.7525 31.3592 18.1178 33.2147 19.1822C35.0702 20.2564 35.7049 22.61 34.6307 24.4752C34.4745 24.7486 34.2889 24.9732 34.0838 25.1979L36.8573 26.7994C38.2049 27.5807 39.4549 27.2193 40.2557 25.8424L42.2479 22.3951C43.0389 21.0182 42.7264 19.7584 41.3788 18.9772L34.0155 14.7291L34.8749 12.7369C35.6463 10.9791 35.1874 9.58262 33.5467 8.63536L29.9725 6.57481C27.1112 4.92442 25.2362 4.38731 22.6092 4.48496L17.6483 4.67051L14.0741 3.2545C11.1835 2.10215 9.28892 2.55137 8.08775 4.62168L6.94517 6.60411C6.14439 7.99082 6.46665 9.25059 7.81431 10.0318ZM11.3202 14.2115C12.6581 14.983 14.328 14.5338 15.0995 13.1959C15.871 11.858 15.4217 10.1881 14.0838 9.41661C12.7557 8.64512 11.076 9.09434 10.3045 10.4322C9.53306 11.7604 9.98228 13.44 11.3202 14.2115ZM29.8944 24.9342C31.2323 25.7057 32.9022 25.2564 33.6737 23.9186C34.4452 22.5904 33.996 20.9107 32.6678 20.1393C31.3397 19.3678 29.6502 19.8268 28.8788 21.1549C28.1073 22.483 28.5565 24.1627 29.8944 24.9342Z" fill="black" fill-opacity="0.85"/>
  <path d="M4.05455 6.067L6.55455 1.73106C6.94517 1.067 6.41783 0.471293 5.72447 0.598246L1.80845 1.22325C1.29087 1.31114 1.0565 1.71153 1.24205 2.21934L2.65806 5.91075C2.9022 6.57481 3.66392 6.73106 4.05455 6.067ZM0.118999 11.2037C-0.125142 11.6334 0.0213423 12.1607 0.421733 12.3951L35.3631 32.6002C35.7538 32.8248 36.2909 32.6979 36.5252 32.2877C36.7694 31.8482 36.6131 31.3209 36.2225 31.0963L1.28111 10.8912C0.890483 10.6666 0.353374 10.8033 0.118999 11.2037Z" fill="black" fill-opacity="0.85"/>
 </g>
</svg>
