<?xml version="1.0" encoding="UTF-8"?>
<!--Generator: Apple Native CoreSVG 326-->
<!DOCTYPE svg
PUBLIC "-//W3C//DTD SVG 1.1//EN"
       "http://www.w3.org/Graphics/SVG/1.1/DTD/svg11.dtd">
<svg version="1.1" xmlns="http://www.w3.org/2000/svg" xmlns:xlink="http://www.w3.org/1999/xlink" viewBox="0 0 44.5215 33.5205">
 <g>
  <rect height="33.5205" opacity="0" width="44.5215" x="0" y="0"/>
  <path d="M11.8945 23.23C11.8945 25.0073 10.4883 26.4136 8.71094 26.4136C6.94336 26.4136 5.53711 24.9976 5.53711 23.23C5.53711 21.4624 6.94336 20.0562 8.71094 20.0562C10.4883 20.0562 11.8945 21.4624 11.8945 23.23ZM36.5234 23.23C36.5234 24.6806 35.5829 25.8945 34.2624 26.2815L30.2996 22.3186C30.6886 21.0072 31.901 20.0562 33.3496 20.0562C35.127 20.0562 36.5234 21.4624 36.5234 23.23ZM26.0554 24.2749L13.125 24.2749C13.2129 23.8843 13.252 23.5913 13.252 23.23C13.252 20.7007 11.3184 18.6988 8.71094 18.6988C6.21094 18.6988 4.17969 20.6226 4.17969 23.2007C4.17969 23.5913 4.22852 23.8843 4.29688 24.2749L2.82227 24.2749C1.04492 24.2749 0 23.2007 0 21.3648L0 18.728C0 15.9839 1.63086 14.4605 5.17578 13.9331L9.53125 13.2886L12.9211 11.1545ZM31.2891 11.4234L31.582 13.9038L41.3379 13.9038C43.125 13.9038 44.1602 14.9683 44.1602 16.8042L44.1602 21.3648C44.1602 23.2007 43.125 24.2749 41.3379 24.2749L37.7539 24.2749C37.8516 23.9136 37.8906 23.6206 37.8906 23.23C37.8906 20.7007 35.957 18.6988 33.3496 18.6988C31.5321 18.6988 29.9623 19.7156 29.2451 21.2641L16.9397 8.95879C18.6009 8.34423 20.3937 8.11281 22.8809 8.11281L27.6074 8.11281C29.7949 8.11281 31.0352 9.24563 31.2891 11.4234Z" fill="black" fill-opacity="0.85"/>
  <path d="M30.5664 3.09328L30.5664 4.68508C30.5664 5.66164 30.0488 6.28664 29.0918 6.28664L18.291 6.28664C17.4512 6.28664 17.0801 5.89602 17.0801 5.18313C17.0801 4.69484 17.3438 4.34328 18.0664 3.91359L21.1719 1.93117C23.3105 0.71047 24.5117 0.407735 26.3672 0.407735L27.6562 0.407735C29.6875 0.407735 30.5664 1.28664 30.5664 3.09328Z" fill="black" fill-opacity="0.85"/>
  <path d="M35.625 31.9214C35.957 32.2437 36.4844 32.2437 36.8066 31.9214C37.1289 31.5796 37.1289 31.062 36.8066 30.7398L8.95508 2.89797C8.63281 2.5757 8.11523 2.56594 7.77344 2.89797C7.45117 3.22024 7.44141 3.75734 7.77344 4.07961Z" fill="black" fill-opacity="0.85"/>
 </g>
</svg>
