<?xml version="1.0" encoding="UTF-8"?>
<!--Generator: Apple Native CoreSVG 326-->
<!DOCTYPE svg
PUBLIC "-//W3C//DTD SVG 1.1//EN"
       "http://www.w3.org/Graphics/SVG/1.1/DTD/svg11.dtd">
<svg version="1.1" xmlns="http://www.w3.org/2000/svg" xmlns:xlink="http://www.w3.org/1999/xlink" viewBox="0 0 44.7948 32.8413">
 <g>
  <rect height="32.8413" opacity="0" width="44.7948" x="0" y="0"/>
  <path d="M10.6933 25.1463L11.8749 24.4627C11.6698 24.2478 11.4843 24.0134 11.328 23.74C10.2538 21.8748 10.8886 19.5213 12.7441 18.447C14.5995 17.3728 16.9628 18.0076 18.037 19.863C18.1933 20.1365 18.3007 20.4197 18.3886 20.7029L30.4491 13.74C30.2441 13.5154 30.0585 13.281 29.9023 13.0173C28.8378 11.1619 29.4726 8.7986 31.3183 7.72438C33.1835 6.65016 35.537 7.28492 36.6113 9.14039C36.7675 9.41383 36.8749 9.68727 36.9628 9.98024L39.7363 8.37867C41.0839 7.59742 41.4062 6.33766 40.6054 4.95094L38.6132 1.51344C37.8222 0.12672 36.5722-0.224842 35.2245 0.556408L27.8613 4.80445L26.5722 3.06617C25.4296 1.5232 23.9941 1.22047 22.3534 2.16774L18.7792 4.22828C15.9179 5.87867 14.5214 7.2361 13.2909 9.56031L10.9667 13.9451L7.95891 16.3279C5.50774 18.2615 4.9511 20.1267 6.1425 22.197L7.29485 24.1892C8.09563 25.5662 9.34563 25.9275 10.6933 25.1463ZM16.0644 24.199C17.4023 23.4275 17.8515 21.7576 17.08 20.4197C16.3085 19.0818 14.6288 18.6326 13.2909 19.4041C11.9628 20.1755 11.5136 21.8552 12.2851 23.1834C13.0566 24.5213 14.7265 24.9705 16.0644 24.199ZM34.6386 13.4763C35.9765 12.7048 36.4257 11.0252 35.6542 9.69703C34.8827 8.35914 33.203 7.90992 31.8749 8.68141C30.5468 9.44313 30.0878 11.1326 30.8593 12.4607C31.6308 13.7986 33.3105 14.2478 34.6386 13.4763Z" fill="black" fill-opacity="0.85"/>
  <path d="M5.37102 26.4255L2.87102 22.0896C2.49016 21.4158 1.71867 21.572 1.4843 22.2361L0.0682827 25.9373C-0.12703 26.4353 0.107345 26.8455 0.634689 26.9334L4.54094 27.5584C5.2343 27.6853 5.76164 27.0896 5.37102 26.4255ZM7.85149 32.4021C8.10539 32.822 8.6425 32.9588 9.04289 32.7341L44.0038 12.5681C44.4042 12.3435 44.5605 11.8259 44.3261 11.4158C44.0722 10.9861 43.5351 10.8494 43.1347 11.074L8.17375 31.24C7.77336 31.4646 7.62688 32.0017 7.85149 32.4021Z" fill="black" fill-opacity="0.85"/>
 </g>
</svg>
