<?xml version="1.0" encoding="UTF-8"?>
<!--Generator: Apple Native CoreSVG 326-->
<!DOCTYPE svg
PUBLIC "-//W3C//DTD SVG 1.1//EN"
       "http://www.w3.org/Graphics/SVG/1.1/DTD/svg11.dtd">
<svg version="1.1" xmlns="http://www.w3.org/2000/svg" xmlns:xlink="http://www.w3.org/1999/xlink" viewBox="0 0 41.7055 32.1987">
 <g>
  <rect height="32.1987" opacity="0" width="41.7055" x="0" y="0"/>
  <path d="M3.88496 31.6316C4.13887 32.0613 4.67598 32.198 5.07637 31.9636L40.0373 11.8074C40.4377 11.573 40.5939 11.0652 40.3596 10.655C40.1057 10.2156 39.5686 10.0789 39.1682 10.3132L4.20723 30.4695C3.80683 30.7039 3.66035 31.2312 3.88496 31.6316ZM5.0666 25.1374L7.42012 23.78L6.71699 22.5691L4.43183 23.8874C3.80683 24.2488 3.2209 24.0535 2.80098 23.3406L1.81465 21.6316C1.01387 20.2351 1.44355 19.0046 3.25996 17.5789L6.52168 15.0105L8.99238 10.3523C10.1057 8.27221 11.3361 7.07104 13.9436 5.56713L17.4494 3.54565C18.4162 2.98901 19.2561 3.17456 19.9104 4.06323L21.717 6.52416L30.1545 1.65112C30.7795 1.28979 31.3752 1.4851 31.7854 2.20776L33.6896 5.50854C34.0998 6.22143 33.9826 6.8269 33.3479 7.18823L29.715 9.28784L30.4182 10.4988L34.1193 8.36987C35.467 7.58862 35.7795 6.32885 34.9885 4.94213L32.9182 1.36791C32.1174-0.0188044 30.8674-0.370367 29.5197 0.401118L22.1271 4.67846L21.0236 3.19409C19.8908 1.65112 18.4553 1.34838 16.8146 2.29565L13.2404 4.3562C10.3791 6.00659 8.97285 7.36401 7.75215 9.68823L5.42793 14.073L2.41035 16.4656C-0.0310561 18.3894-0.587697 20.2546 0.60371 22.3249L1.66816 24.1804C2.46894 25.5574 3.71894 25.9187 5.0666 25.1374ZM11.6682 21.3289L25.965 13.0769L25.2619 11.8562L10.965 20.1081ZM10.6623 24.571C12.3127 23.6238 12.8596 21.5925 11.9025 19.9421C10.9553 18.2917 8.92402 17.7449 7.27363 18.7019C5.62324 19.6492 5.07637 21.6804 6.0334 23.3308C6.98066 24.9812 9.01191 25.5281 10.6623 24.571ZM9.95918 23.3601C8.99238 23.9167 7.80098 23.6042 7.24433 22.6277C6.68769 21.6609 7.00019 20.4695 7.97676 19.9128C8.94355 19.3562 10.135 19.6687 10.6916 20.6453C11.2482 21.6121 10.9357 22.8035 9.95918 23.3601ZM29.2365 13.8484C30.8869 12.9011 31.4338 10.8601 30.4768 9.21948C29.5295 7.56909 27.4982 7.02221 25.8479 7.97924C24.1975 8.92651 23.6604 10.9578 24.6076 12.6081C25.5549 14.2585 27.5959 14.7956 29.2365 13.8484ZM28.5334 12.6374C27.5666 13.1941 26.385 12.8718 25.8186 11.905C25.2619 10.9382 25.5842 9.74682 26.551 9.19018C27.5178 8.63354 28.7092 8.94604 29.2658 9.91284C29.8225 10.8894 29.51 12.071 28.5334 12.6374Z" fill="black" fill-opacity="0.85"/>
  <path d="M39.1877 31.2312C39.9982 31.2312 40.5646 30.821 40.926 30.2156C41.1506 29.8542 41.3459 29.2585 41.3459 28.8581C41.3459 28.5066 41.1018 28.282 40.7502 28.282C40.467 28.282 40.2521 28.4773 40.1838 28.7898C40.0373 29.5613 39.8127 30.0984 39.1486 30.0984C38.3186 30.0984 37.9572 28.8386 37.9572 27.1394C37.9572 25.2644 38.426 24.1804 39.1486 24.1804C39.7639 24.1804 40.0568 24.7956 40.1643 25.4988C40.2131 25.8406 40.4475 26.0456 40.7795 26.0456C41.1213 26.0456 41.3166 25.7917 41.3166 25.4499C41.3166 24.991 41.092 24.2976 40.7209 23.8484C40.3303 23.3601 39.7736 23.0671 39.1389 23.0671C38.0451 23.0671 37.4006 23.8093 37.0588 24.6785C36.7463 25.4206 36.6584 26.2703 36.6584 27.1394C36.6584 28.155 36.7658 29.1706 37.2248 30.0203C37.6545 30.7917 38.2893 31.2312 39.1877 31.2312ZM26.0529 31.1628C26.4436 31.1628 26.6975 30.9089 26.6975 30.5085L26.6975 27.6081L28.8264 27.6081L28.8264 30.5085C28.8264 30.9089 29.0803 31.1628 29.4709 31.1628C29.8615 31.1628 30.1154 30.9089 30.1154 30.5085L30.1154 23.78C30.1154 23.3894 29.8615 23.1355 29.4709 23.1355C29.0803 23.1355 28.8264 23.3894 28.8264 23.78L28.8264 26.5339L26.6975 26.5339L26.6975 23.78C26.6975 23.3894 26.4436 23.1355 26.0529 23.1355C25.6721 23.1355 25.4279 23.3894 25.4279 23.78L25.4279 30.5085C25.4279 30.9089 25.6721 31.1628 26.0529 31.1628ZM31.8342 31.1628L33.2209 31.1628C35.2424 31.1628 35.9162 29.1511 35.9162 27.1296C35.9162 24.9421 35.1545 23.1355 33.2209 23.1355L31.8342 23.1355C31.4631 23.1355 31.1994 23.3601 31.1994 23.7996L31.1994 30.4988C31.1994 30.9382 31.4631 31.1628 31.8342 31.1628ZM32.4592 30.0789L32.4592 24.2195L33.0646 24.2195C34.3635 24.2195 34.6174 25.8406 34.6174 27.1296C34.6174 28.4382 34.383 30.0789 33.0646 30.0789Z" fill="black" fill-opacity="0.85"/>
 </g>
</svg>
