<?xml version="1.0" encoding="UTF-8"?>
<!--Generator: Apple Native CoreSVG 326-->
<!DOCTYPE svg
PUBLIC "-//W3C//DTD SVG 1.1//EN"
       "http://www.w3.org/Graphics/SVG/1.1/DTD/svg11.dtd">
<svg version="1.1" xmlns="http://www.w3.org/2000/svg" xmlns:xlink="http://www.w3.org/1999/xlink" viewBox="0 0 47.8516 29.9927">
 <g>
  <rect height="29.9927" opacity="0" width="47.8516" x="0" y="0"/>
  <path d="M3.03711 22.1497L6.39648 22.1497L6.39648 20.4212L3.13477 20.4212C2.23633 20.4212 1.72852 19.845 1.72852 18.8294L1.72852 16.3879C1.72852 14.4055 2.94922 13.3606 5.78125 12.9504L10.8398 12.2083L16.3672 8.76099C18.8281 7.22779 20.8984 6.70045 24.6094 6.70045L29.6094 6.70045C30.9766 6.70045 31.7676 7.4231 31.9141 8.78053L32.3242 12.5305L44.3555 12.5305C45.2539 12.5305 45.7617 13.0969 45.7617 14.1126L45.7617 18.8294C45.7617 19.845 45.2539 20.4212 44.3555 20.4212L39.1699 20.4212L39.1699 22.1497L44.4434 22.1497C46.3672 22.1497 47.4902 20.9973 47.4902 19.0247L47.4902 13.9172C47.4902 11.9446 46.3672 10.7922 44.4434 10.7922L33.9062 10.7922L33.6523 8.53639C33.3789 6.18287 32.0312 4.97193 29.6973 4.97193L24.6094 4.97193C20.5273 4.97193 18.1836 5.55787 15.4395 7.27662L10.2539 10.5481L5.55664 11.2317C1.74805 11.7883 0 13.4387 0 16.3879L0 19.0247C0 20.9973 1.12305 22.1497 3.03711 22.1497ZM12.4512 22.1497L32.832 22.1497L32.832 20.4212L12.4512 20.4212ZM9.36523 24.9915C11.7188 24.9915 13.5547 23.1555 13.5547 20.8118C13.5547 18.4583 11.7188 16.6223 9.36523 16.6223C7.02148 16.6223 5.18555 18.4583 5.18555 20.8118C5.18555 23.1555 7.02148 24.9915 9.36523 24.9915ZM9.36523 23.2629C7.98828 23.2629 6.91406 22.1887 6.91406 20.8118C6.91406 19.4251 7.98828 18.3508 9.36523 18.3508C10.752 18.3508 11.8262 19.4251 11.8262 20.8118C11.8262 22.1887 10.752 23.2629 9.36523 23.2629ZM35.8496 24.9915C38.2031 24.9915 40.0391 23.1555 40.0391 20.8118C40.0391 18.4583 38.2031 16.6223 35.8496 16.6223C33.5059 16.6223 31.6602 18.4583 31.6602 20.8118C31.6602 23.1555 33.5059 24.9915 35.8496 24.9915ZM35.8496 23.2629C34.4727 23.2629 33.3984 22.1887 33.3984 20.8118C33.3984 19.4251 34.4727 18.3508 35.8496 18.3508C37.2363 18.3508 38.3105 19.4251 38.3105 20.8118C38.3105 22.1887 37.2363 23.2629 35.8496 23.2629Z" fill="black" fill-opacity="0.85"/>
  <path d="M19.8438 24.0735C19.2188 24.0735 18.9648 24.5911 19.2969 25.1184L22.0215 29.6008C22.3438 30.1282 22.959 30.1184 23.2715 29.6008L26.0254 25.1087C26.3477 24.5813 26.084 24.0735 25.4688 24.0735Z" fill="black" fill-opacity="0.85"/>
  <path d="M19.8438 18.4876L25.4688 18.4876C26.084 18.4876 26.3477 17.9797 26.0254 17.4524L23.2715 12.9602C22.959 12.4524 22.3438 12.4329 22.0215 12.9602L19.2969 17.4426C18.9648 17.97 19.2188 18.4876 19.8438 18.4876Z" fill="black" fill-opacity="0.85"/>
 </g>
</svg>
