<?xml version="1.0" encoding="UTF-8"?>
<!--Generator: Apple Native CoreSVG 326-->
<!DOCTYPE svg
PUBLIC "-//W3C//DTD SVG 1.1//EN"
       "http://www.w3.org/Graphics/SVG/1.1/DTD/svg11.dtd">
<svg version="1.1" xmlns="http://www.w3.org/2000/svg" xmlns:xlink="http://www.w3.org/1999/xlink" viewBox="0 0 47.8516 30.3882">
 <g>
  <rect height="30.3882" opacity="0" width="47.8516" x="0" y="0"/>
  <path d="M3.03711 22.5427L4.72656 22.5427C4.63867 22.1814 4.58984 21.8201 4.58984 21.4295C4.58984 18.783 6.71875 16.6541 9.36523 16.6541C12.0215 16.6541 14.1504 18.783 14.1504 21.4295C14.1504 21.8201 14.1016 22.1912 14.0234 22.5427L31.2109 22.5427C31.123 22.1814 31.0742 21.8201 31.0742 21.4295C31.0742 18.7927 33.2129 16.6541 35.8496 16.6541C38.5059 16.6541 40.6348 18.783 40.6348 21.4295C40.6348 21.8201 40.5762 22.1814 40.4883 22.5427L44.4434 22.5427C46.3672 22.5427 47.4902 21.3904 47.4902 19.4177L47.4902 14.5154C47.4902 12.5427 46.3672 11.3904 44.4434 11.3904L33.9551 11.3904L33.6523 8.73414C33.3789 6.38062 32.0312 5.16969 29.6973 5.16969L24.6094 5.16969C20.5273 5.16969 18.1836 5.75562 15.4395 7.47437L10.2539 10.7459L5.55664 11.4295C1.74805 11.9861 0 13.6365 0 16.5857L0 19.4177C0 21.3904 1.12305 22.5427 3.03711 22.5427ZM9.36523 24.8474C11.2793 24.8474 12.793 23.3435 12.793 21.4295C12.793 19.5252 11.2695 18.0115 9.36523 18.0115C7.4707 18.0115 5.94727 19.5252 5.94727 21.4295C5.94727 23.3337 7.4707 24.8474 9.36523 24.8474ZM35.8496 24.8474C37.7539 24.8474 39.2676 23.3337 39.2676 21.4295C39.2676 19.5252 37.7539 18.0115 35.8496 18.0115C33.9551 18.0115 32.4316 19.5349 32.4316 21.4295C32.4316 23.3337 33.9453 24.8474 35.8496 24.8474Z" fill="black" fill-opacity="0.85"/>
  <path d="M19.873 24.4763C19.248 24.4763 18.9941 24.9841 19.3262 25.5115L22.0508 30.0037C22.373 30.5212 22.9883 30.5115 23.3008 30.0037L26.0547 25.5115C26.3867 24.9841 26.1133 24.4763 25.498 24.4763Z" fill="black" fill-opacity="0.85"/>
 </g>
</svg>
