<?xml version="1.0" encoding="UTF-8"?>
<!--Generator: Apple Native CoreSVG 326-->
<!DOCTYPE svg
PUBLIC "-//W3C//DTD SVG 1.1//EN"
       "http://www.w3.org/Graphics/SVG/1.1/DTD/svg11.dtd">
<svg version="1.1" xmlns="http://www.w3.org/2000/svg" xmlns:xlink="http://www.w3.org/1999/xlink" viewBox="0 0 25.8008 25.459">
 <g>
  <rect height="25.459" opacity="0" width="25.8008" x="0" y="0"/>
  <path d="M25.4395 12.7246C25.4395 19.7266 19.7266 25.4395 12.7148 25.4395C5.71289 25.4395 0 19.7266 0 12.7246C0 5.71289 5.71289 0 12.7148 0C19.7266 0 25.4395 5.71289 25.4395 12.7246ZM10.332 10.7129C10.332 12.002 11.0352 12.5879 11.9434 13.0664L12.3828 13.3008C13.0566 13.6523 13.457 13.9746 13.457 14.7363C13.457 15.4102 13.1348 15.918 12.5 15.918C11.8945 15.918 11.5918 15.4395 11.4551 14.8145C11.377 14.5117 11.1816 14.3457 10.8594 14.3457C10.498 14.3457 10.293 14.5996 10.293 14.9414C10.293 15.0781 10.3125 15.2148 10.3418 15.332C10.6152 16.3379 11.3379 16.9922 12.4902 16.9922C13.9746 16.9922 14.7461 16.0059 14.7461 14.6191C14.7461 13.3008 14.0723 12.7344 13.1055 12.2559L12.6562 12.0215C12.0215 11.6895 11.6016 11.3574 11.6016 10.6152C11.6016 10.0195 11.8848 9.52148 12.4512 9.52148C13.0469 9.52148 13.3008 10 13.4277 10.5859C13.4961 10.8594 13.7305 11.0254 14.043 11.0254C14.3848 11.0254 14.5898 10.7812 14.5898 10.4785C14.5898 10.3125 14.5508 10.1465 14.4922 9.9707C14.2285 9.10156 13.5156 8.42773 12.4512 8.42773C11.25 8.42773 10.332 9.27734 10.332 10.7129ZM5.26367 8.60352C4.82422 8.60352 4.56055 8.82812 4.56055 9.23828C4.56055 9.6582 4.82422 9.88281 5.26367 9.88281L6.40625 9.88281L6.40625 16.2402C6.40625 16.6797 6.62109 16.9531 7.07031 16.9531C7.49023 16.9531 7.72461 16.6797 7.72461 16.2402L7.72461 9.88281L8.86719 9.88281C9.30664 9.88281 9.56055 9.6582 9.56055 9.23828C9.56055 8.83789 9.30664 8.60352 8.86719 8.60352ZM17.1973 9.33594L15.6738 15.918C15.6348 16.0547 15.6055 16.1914 15.6055 16.3281C15.6055 16.748 15.8887 16.9434 16.2207 16.9434C16.5918 16.9434 16.8066 16.7285 16.875 16.3574L17.1973 14.873L19.1992 14.873L19.5312 16.3672C19.6191 16.7871 19.8535 16.9434 20.1953 16.9434C20.5469 16.9434 20.8105 16.6699 20.8105 16.3281C20.8105 16.25 20.7617 16.0156 20.7422 15.918L19.209 9.33594C19.082 8.7793 18.7598 8.48633 18.1836 8.48633C17.6562 8.48633 17.334 8.75977 17.1973 9.33594ZM18.9941 13.8574L17.3828 13.8574L18.1543 10.0684L18.2031 10.0684Z" fill="black" fill-opacity="0.85"/>
 </g>
</svg>
