<?xml version="1.0" encoding="UTF-8"?>
<!--Generator: Apple Native CoreSVG 326-->
<!DOCTYPE svg
PUBLIC "-//W3C//DTD SVG 1.1//EN"
       "http://www.w3.org/Graphics/SVG/1.1/DTD/svg11.dtd">
<svg version="1.1" xmlns="http://www.w3.org/2000/svg" xmlns:xlink="http://www.w3.org/1999/xlink" viewBox="0 0 25.8008 25.459">
 <g>
  <rect height="25.459" opacity="0" width="25.8008" x="0" y="0"/>
  <path d="M12.7148 25.4395C19.7363 25.4395 25.4395 19.7461 25.4395 12.7246C25.4395 5.70312 19.7363 0 12.7148 0C5.69336 0 0 5.70312 0 12.7246C0 19.7461 5.69336 25.4395 12.7148 25.4395ZM12.7148 23.623C6.68945 23.623 1.81641 18.75 1.81641 12.7246C1.81641 6.69922 6.68945 1.82617 12.7148 1.82617C18.7402 1.82617 23.6133 6.69922 23.6133 12.7246C23.6133 18.75 18.7402 23.623 12.7148 23.623Z" fill="black" fill-opacity="0.85"/>
  <path d="M16.123 16.8457C16.4844 16.8457 16.6895 16.6309 16.7578 16.2793L17.0703 14.8145L19.0332 14.8145L19.3555 16.2891C19.4434 16.6895 19.668 16.8457 20 16.8457C20.332 16.8457 20.5957 16.5723 20.5957 16.25C20.5957 16.1719 20.5566 15.9375 20.5273 15.8496L19.0332 9.41406C18.9062 8.86719 18.584 8.59375 18.0371 8.59375C17.5293 8.59375 17.2168 8.84766 17.0801 9.41406L15.5859 15.8496C15.5566 15.9766 15.5273 16.1133 15.5273 16.25C15.5273 16.6504 15.791 16.8457 16.123 16.8457ZM7.19727 16.8555C7.60742 16.8555 7.83203 16.5918 7.83203 16.1621L7.83203 9.28711L6.55273 9.28711L6.55273 16.1621C6.55273 16.5918 6.76758 16.8555 7.19727 16.8555ZM5.42969 9.94141L8.95508 9.94141C9.38477 9.94141 9.62891 9.72656 9.62891 9.31641C9.62891 8.92578 9.38477 8.70117 8.95508 8.70117L5.42969 8.70117C5.00977 8.70117 4.75586 8.91602 4.75586 9.31641C4.75586 9.72656 5.00977 9.94141 5.42969 9.94141ZM12.4902 16.8945C13.9258 16.8945 14.6875 15.9277 14.6875 14.5801C14.6875 13.291 14.0234 12.7344 13.0859 12.2656L12.6465 12.041C12.0215 11.7188 11.6113 11.3867 11.6113 10.6641C11.6113 10.0781 11.8945 9.58984 12.4512 9.58984C13.0371 9.58984 13.2812 10.0586 13.4082 10.6348C13.4766 10.8984 13.7012 11.0645 14.0039 11.0645C14.3359 11.0645 14.5312 10.8203 14.5312 10.5273C14.5312 10.3711 14.4824 10.2051 14.4336 10.0391C14.1797 9.18945 13.4863 8.52539 12.4512 8.52539C11.2793 8.52539 10.3809 9.35547 10.3809 10.7617C10.3809 12.0117 11.0645 12.5879 11.9531 13.0566L12.3828 13.2812C13.0469 13.623 13.4375 13.9453 13.4375 14.6875C13.4375 15.3418 13.1152 15.8496 12.5 15.8496C11.9043 15.8496 11.6016 15.3809 11.4746 14.7656C11.3965 14.4629 11.2012 14.3066 10.8887 14.3066C10.5469 14.3066 10.3418 14.5508 10.3418 14.8926C10.3418 15.0195 10.3711 15.1465 10.3906 15.2637C10.6543 16.25 11.3574 16.8945 12.4902 16.8945ZM17.2559 13.8281L18.0078 10.127L18.0566 10.127L18.8379 13.8281Z" fill="black" fill-opacity="0.85"/>
 </g>
</svg>
