<?xml version="1.0" encoding="UTF-8"?>
<!--Generator: Apple Native CoreSVG 326-->
<!DOCTYPE svg
PUBLIC "-//W3C//DTD SVG 1.1//EN"
       "http://www.w3.org/Graphics/SVG/1.1/DTD/svg11.dtd">
<svg version="1.1" xmlns="http://www.w3.org/2000/svg" xmlns:xlink="http://www.w3.org/1999/xlink" viewBox="0 0 28.2081 27.8663">
 <g>
  <rect height="27.8663" opacity="0" width="28.2081" x="0" y="0"/>
  <path d="M10.1783 5.3345C11.0181 4.96341 11.9165 4.71927 12.8638 4.61185C13.1372 4.58255 13.3325 4.37747 13.3325 4.10403L13.3325 0.539582C13.3325 0.217316 13.0884-0.0268245 12.7661 0.012238C11.0572 0.148957 9.44583 0.607941 7.96146 1.31107C7.66849 1.44778 7.5806 1.77982 7.73685 2.05325L9.51419 5.11966C9.64114 5.3638 9.91458 5.44193 10.1783 5.3345Z" fill="black" fill-opacity="0.85"/>
  <path d="M6.37942 8.35208C6.93606 7.60989 7.59036 6.94583 8.34231 6.37943C8.57669 6.21341 8.62552 5.93997 8.4888 5.7056L6.72122 2.64896C6.56497 2.36575 6.23294 2.28763 5.9595 2.47318C4.59231 3.43021 3.41067 4.61185 2.47317 5.97903C2.28763 6.25247 2.35599 6.57474 2.63919 6.74075L5.71536 8.49857C5.94974 8.64505 6.21341 8.58646 6.37942 8.35208Z" fill="black" fill-opacity="0.85"/>
  <path d="M4.60208 12.8736C4.7095 11.9263 4.95364 11.0279 5.31497 10.1978C5.43216 9.94388 5.35403 9.67044 5.10989 9.53372L2.03372 7.76614C1.75052 7.60013 1.42825 7.69778 1.29153 7.99075C0.607939 9.46536 0.148955 11.0669 0.00247065 12.7661C-0.00729498 13.0982 0.217314 13.3423 0.53958 13.3423L4.10403 13.3423C4.37747 13.3423 4.57278 13.147 4.60208 12.8736Z" fill="black" fill-opacity="0.85"/>
  <path d="M5.31497 17.6783C4.96341 16.8482 4.71927 15.94 4.60208 14.9829C4.58255 14.7095 4.36771 14.5142 4.10403 14.5142L0.53958 14.5142C0.207549 14.5142-0.0268262 14.7583 0.00247065 15.0806C0.139189 16.7993 0.598174 18.4204 1.3013 19.8951C1.43802 20.188 1.76028 20.2954 2.04349 20.1294L5.10989 18.3423C5.35403 18.2056 5.44192 17.9322 5.31497 17.6783Z" fill="black" fill-opacity="0.85"/>
  <path d="M8.35208 21.4868C7.60989 20.9302 6.93606 20.2759 6.38919 19.5142C6.22317 19.2993 5.94974 19.231 5.7056 19.3775L2.64896 21.1353C2.36575 21.3013 2.28763 21.6236 2.46341 21.897C3.41067 23.2642 4.60208 24.4361 5.96927 25.3931C6.24271 25.5884 6.57474 25.5005 6.73099 25.2173L8.4888 22.1509C8.62552 21.9165 8.57669 21.6529 8.35208 21.4868Z" fill="black" fill-opacity="0.85"/>
  <path d="M12.8638 23.2544C11.9263 23.1568 11.0279 22.9029 10.188 22.5415C9.93411 22.4243 9.66067 22.5122 9.52396 22.7466L7.75638 25.813C7.60013 26.0865 7.68802 26.4283 7.98099 26.565C9.4556 27.2583 11.0572 27.7173 12.7564 27.8638C13.0884 27.8833 13.3325 27.649 13.3325 27.3267L13.3325 23.7622C13.3325 23.4888 13.1372 23.2837 12.8638 23.2544Z" fill="black" fill-opacity="0.85"/>
  <path d="M17.6685 22.5415C16.8384 22.9029 15.94 23.147 14.9829 23.2544C14.7095 23.2837 14.5142 23.4888 14.5142 23.7622L14.5142 27.3365C14.5142 27.6587 14.7583 27.8931 15.0806 27.8638C16.7798 27.7271 18.4107 27.2583 19.8853 26.565C20.1783 26.4283 20.2661 26.0865 20.1099 25.813L18.3325 22.7466C18.1958 22.5122 17.9224 22.4243 17.6685 22.5415Z" fill="black" fill-opacity="0.85"/>
  <path d="M21.4771 19.5142C20.9204 20.2564 20.2564 20.9107 19.5044 21.4868C19.2798 21.6529 19.2115 21.9263 19.3482 22.1509L21.1255 25.2076C21.2818 25.4908 21.6138 25.5884 21.8872 25.3931C23.2544 24.4361 24.4263 23.2544 25.3833 21.897C25.5689 21.6236 25.481 21.3013 25.2075 21.1353L22.1411 19.3579C21.9068 19.2212 21.6431 19.2896 21.4771 19.5142Z" fill="black" fill-opacity="0.85"/>
  <path d="M23.2544 14.9829C23.147 15.94 22.9029 16.8482 22.522 17.6783C22.4243 17.9322 22.5025 18.1958 22.7466 18.3326L25.8033 20.1001C26.0962 20.2661 26.4185 20.1783 26.5552 19.8755C27.2486 18.4009 27.6978 16.7896 27.8443 15.0904C27.8638 14.7583 27.6294 14.5142 27.3072 14.5142L23.7525 14.5142C23.479 14.5142 23.274 14.7095 23.2544 14.9829Z" fill="black" fill-opacity="0.85"/>
  <path d="M22.522 10.188C22.8833 11.0279 23.147 11.9361 23.2447 12.8736C23.274 13.147 23.479 13.3423 23.7525 13.3423L27.3169 13.3423C27.6392 13.3423 27.8638 13.0982 27.8443 12.7759C27.7075 11.0767 27.2486 9.44583 26.5552 7.98099C26.4185 7.68802 26.0865 7.59036 25.8033 7.75638L22.7271 9.54349C22.4927 9.68021 22.4243 9.93411 22.522 10.188Z" fill="black" fill-opacity="0.85"/>
  <path d="M19.5044 6.38919C20.2564 6.94583 20.9107 7.60013 21.4771 8.35208C21.6431 8.57669 21.9068 8.64505 22.1411 8.50833L25.1978 6.74075C25.4908 6.57474 25.5689 6.25247 25.3931 5.97903C24.4361 4.61185 23.2447 3.43021 21.8872 2.47318C21.6236 2.28763 21.2818 2.36575 21.1255 2.64896L19.3579 5.7056C19.2212 5.94974 19.2798 6.22318 19.5044 6.38919Z" fill="black" fill-opacity="0.85"/>
  <path d="M14.9829 4.61185C15.94 4.69974 16.8286 4.96341 17.6685 5.3345C17.9224 5.44193 18.1958 5.35403 18.3325 5.11966L20.1099 2.05325C20.2661 1.77982 20.1587 1.44778 19.8658 1.31107C18.3911 0.617707 16.7896 0.148957 15.0806 0.012238C14.7583-0.00729321 14.5142 0.217316 14.5142 0.539582L14.5142 4.10403C14.5142 4.37747 14.7095 4.58255 14.9829 4.61185Z" fill="black" fill-opacity="0.85"/>
  <path d="M13.9087 19.8267C14.3189 19.8267 14.563 19.5826 14.563 19.1724L14.563 9.74857L17.6978 9.74857C18.0689 9.74857 18.313 9.49466 18.313 9.17239C18.313 8.82083 18.0591 8.59622 17.6978 8.59622L10.1197 8.59622C9.75833 8.59622 9.50442 8.82083 9.50442 9.17239C9.50442 9.51419 9.7681 9.74857 10.1197 9.74857L13.2544 9.74857L13.2544 19.1724C13.2544 19.5826 13.5083 19.8267 13.9087 19.8267ZM11.2525 15.1783C11.3111 15.1783 11.3892 15.1587 11.4673 15.1392L16.6626 13.0103C16.8579 12.9322 16.9458 12.815 16.9458 12.6392C16.9458 12.3755 16.77 12.2583 16.5845 12.2583C16.5161 12.2583 16.438 12.2779 16.3599 12.3072L11.1548 14.4263C10.9595 14.5044 10.8716 14.6314 10.8716 14.8072C10.8716 15.0025 11.0083 15.1783 11.2525 15.1783ZM11.2525 17.6197C11.3111 17.6197 11.3892 17.6001 11.4673 17.5708L16.6626 15.4517C16.8579 15.3638 16.9458 15.2564 16.9458 15.0708C16.9458 14.8169 16.77 14.6997 16.5845 14.6997C16.5161 14.6997 16.438 14.7193 16.3599 14.7388L11.1548 16.8579C10.9595 16.9458 10.8716 17.0728 10.8716 17.2388C10.8716 17.4439 11.0083 17.6197 11.2525 17.6197Z" fill="black" fill-opacity="0.85"/>
 </g>
</svg>
