<?xml version="1.0" encoding="UTF-8"?>
<!--Generator: Apple Native CoreSVG 326-->
<!DOCTYPE svg
PUBLIC "-//W3C//DTD SVG 1.1//EN"
       "http://www.w3.org/Graphics/SVG/1.1/DTD/svg11.dtd">
<svg version="1.1" xmlns="http://www.w3.org/2000/svg" xmlns:xlink="http://www.w3.org/1999/xlink" viewBox="0 0 23.3203 22.959">
 <g>
  <rect height="22.959" opacity="0" width="23.3203" x="0" y="0"/>
  <path d="M22.959 3.76953L22.959 19.1992C22.959 21.6797 21.6797 22.959 19.1504 22.959L3.79883 22.959C1.2793 22.959 0 21.6992 0 19.1992L0 3.76953C0 1.26953 1.2793 0 3.79883 0L19.1504 0C21.6797 0 22.959 1.2793 22.959 3.76953ZM7.61719 6.00586C7.23633 6.00586 6.98242 6.23047 6.98242 6.5918C6.98242 6.94336 7.24609 7.1875 7.61719 7.1875L10.8203 7.1875L10.8203 11.0938L8.67188 11.9727C8.4668 12.0605 8.37891 12.1875 8.37891 12.373C8.37891 12.5684 8.52539 12.7539 8.75977 12.7539C8.82812 12.7539 8.91602 12.7344 8.99414 12.7148L10.8203 11.9531L10.8203 13.6035L8.67188 14.4824C8.4668 14.5605 8.37891 14.6875 8.37891 14.8633C8.37891 15.0781 8.52539 15.2539 8.75977 15.2539C8.82812 15.2539 8.91602 15.2344 8.99414 15.2051L10.8203 14.4629L10.8203 16.8457C10.8203 17.2656 11.084 17.5098 11.4941 17.5098C11.9141 17.5098 12.168 17.2656 12.168 16.8457L12.168 13.916L14.3164 13.0371C14.5215 12.9395 14.6094 12.832 14.6094 12.6367C14.6094 12.3828 14.4238 12.2559 14.2383 12.2559C14.1699 12.2559 14.082 12.2754 14.0039 12.2949L12.168 13.0469L12.168 11.416L14.3164 10.5273C14.5215 10.4492 14.6094 10.332 14.6094 10.1367C14.6094 9.87305 14.4238 9.75586 14.2383 9.75586C14.1699 9.75586 14.082 9.77539 14.0039 9.80469L12.168 10.5566L12.168 7.1875L15.3711 7.1875C15.7617 7.1875 16.0059 6.92383 16.0059 6.5918C16.0059 6.23047 15.752 6.00586 15.3711 6.00586Z" fill="black" fill-opacity="0.85"/>
 </g>
</svg>
