<?xml version="1.0" encoding="UTF-8"?>
<!--Generator: Apple Native CoreSVG 326-->
<!DOCTYPE svg
PUBLIC "-//W3C//DTD SVG 1.1//EN"
       "http://www.w3.org/Graphics/SVG/1.1/DTD/svg11.dtd">
<svg version="1.1" xmlns="http://www.w3.org/2000/svg" xmlns:xlink="http://www.w3.org/1999/xlink" viewBox="0 0 25.8008 25.459">
 <g>
  <rect height="25.459" opacity="0" width="25.8008" x="0" y="0"/>
  <path d="M12.7148 25.4395C19.7363 25.4395 25.4395 19.7461 25.4395 12.7246C25.4395 5.70312 19.7363 0 12.7148 0C5.69336 0 0 5.70312 0 12.7246C0 19.7461 5.69336 25.4395 12.7148 25.4395ZM12.7148 23.623C6.68945 23.623 1.81641 18.75 1.81641 12.7246C1.81641 6.69922 6.68945 1.82617 12.7148 1.82617C18.7402 1.82617 23.6133 6.69922 23.6133 12.7246C23.6133 18.75 18.7402 23.623 12.7148 23.623Z" fill="black" fill-opacity="0.85"/>
  <path d="M12.7051 18.623C13.1152 18.623 13.3594 18.3789 13.3594 17.9688L13.3594 8.54492L16.4941 8.54492C16.8652 8.54492 17.1094 8.29102 17.1094 7.96875C17.1094 7.61719 16.8555 7.39258 16.4941 7.39258L8.91602 7.39258C8.55469 7.39258 8.30078 7.61719 8.30078 7.96875C8.30078 8.31055 8.56445 8.54492 8.91602 8.54492L12.0508 8.54492L12.0508 17.9688C12.0508 18.3789 12.3047 18.623 12.7051 18.623ZM10.0391 13.9746C10.1074 13.9746 10.1855 13.9551 10.2637 13.9355L15.459 11.8066C15.6543 11.7285 15.7422 11.6113 15.7422 11.4355C15.7422 11.1719 15.5664 11.0547 15.3809 11.0547C15.3125 11.0547 15.2344 11.0742 15.1562 11.1035L9.95117 13.2227C9.75586 13.3008 9.66797 13.4277 9.66797 13.6035C9.66797 13.7988 9.80469 13.9746 10.0391 13.9746ZM10.0391 16.416C10.1074 16.416 10.1855 16.3965 10.2637 16.3672L15.459 14.248C15.6543 14.1602 15.7422 14.0527 15.7422 13.8672C15.7422 13.6133 15.5664 13.4961 15.3809 13.4961C15.3125 13.4961 15.2344 13.5156 15.1562 13.5352L9.95117 15.6543C9.75586 15.7422 9.66797 15.8691 9.66797 16.0352C9.66797 16.2402 9.80469 16.416 10.0391 16.416Z" fill="black" fill-opacity="0.85"/>
 </g>
</svg>
