<?xml version="1.0" encoding="UTF-8"?>
<!--Generator: Apple Native CoreSVG 326-->
<!DOCTYPE svg
PUBLIC "-//W3C//DTD SVG 1.1//EN"
       "http://www.w3.org/Graphics/SVG/1.1/DTD/svg11.dtd">
<svg version="1.1" xmlns="http://www.w3.org/2000/svg" xmlns:xlink="http://www.w3.org/1999/xlink" viewBox="0 0 27.9395 26.5527">
 <g>
  <rect height="26.5527" opacity="0" width="27.9395" x="0" y="0"/>
  <path d="M1.5332 23.8379L26.0449 23.8379L26.0449 23.0859C26.0449 22.666 25.791 22.4121 25.3613 22.4121L24.5605 22.4121L24.5605 8.33984L25.6934 8.33984C26.2891 8.33984 26.6211 7.91992 26.6211 7.48047C26.6211 7.1582 26.4453 6.875 26.0547 6.65039L15.2637 0.419922C14.7852 0.146484 14.2773 0 13.7891 0C13.3008 0 12.7832 0.146484 12.3145 0.419922L1.52344 6.65039C1.12305 6.875 0.957031 7.1582 0.957031 7.48047C0.957031 7.91992 1.28906 8.33984 1.88477 8.33984L3.02734 8.33984L3.02734 22.4121L2.22656 22.4121C1.78711 22.4121 1.5332 22.666 1.5332 23.0859ZM4.6582 22.4121L4.6582 6.85547L13.2227 2.03125C13.3887 1.93359 13.5938 1.875 13.7891 1.875C13.9746 1.875 14.1699 1.93359 14.3555 2.03125L22.9297 6.85547L22.9297 22.4121ZM0.869141 26.5332L26.709 26.5332C27.1875 26.5332 27.5781 26.1426 27.5781 25.6738C27.5781 25.1953 27.1875 24.8047 26.709 24.8047L0.869141 24.8047C0.390625 24.8047 0 25.1953 0 25.6738C0 26.1426 0.390625 26.5332 0.869141 26.5332Z" fill="black" fill-opacity="0.85"/>
  <path d="M13.7988 19.1016C14.1992 19.1016 14.4434 18.8574 14.4434 18.457L14.4434 9.02344L17.5781 9.02344C17.9492 9.02344 18.1934 8.7793 18.1934 8.45703C18.1934 8.10547 17.9395 7.87109 17.5781 7.87109L10.0098 7.87109C9.63867 7.87109 9.38477 8.10547 9.38477 8.45703C9.38477 8.79883 9.64844 9.02344 10.0098 9.02344L13.1445 9.02344L13.1445 18.457C13.1445 18.8574 13.3984 19.1016 13.7988 19.1016ZM11.1328 14.4531C11.2012 14.4531 11.2695 14.4434 11.3477 14.4141L16.543 12.2949C16.7383 12.207 16.8262 12.0898 16.8262 11.9141C16.8262 11.6504 16.6602 11.543 16.4648 11.543C16.3965 11.543 16.3184 11.5527 16.2402 11.582L11.0449 13.7012C10.8496 13.7891 10.7617 13.9062 10.7617 14.082C10.7617 14.2773 10.8984 14.4531 11.1328 14.4531ZM11.1328 16.8945C11.2012 16.8945 11.2695 16.875 11.3477 16.8555L16.543 14.7266C16.7383 14.6484 16.8262 14.5312 16.8262 14.3555C16.8262 14.0918 16.6602 13.9746 16.4648 13.9746C16.3965 13.9746 16.3184 13.9941 16.2402 14.0234L11.0449 16.1426C10.8496 16.2207 10.7617 16.3477 10.7617 16.5234C10.7617 16.7188 10.8984 16.8945 11.1328 16.8945Z" fill="black" fill-opacity="0.85"/>
 </g>
</svg>
