<?xml version="1.0" encoding="UTF-8"?>
<!--Generator: Apple Native CoreSVG 326-->
<!DOCTYPE svg
PUBLIC "-//W3C//DTD SVG 1.1//EN"
       "http://www.w3.org/Graphics/SVG/1.1/DTD/svg11.dtd">
<svg version="1.1" xmlns="http://www.w3.org/2000/svg" xmlns:xlink="http://www.w3.org/1999/xlink" viewBox="0 0 28.291 27.9395">
 <g>
  <rect height="27.9395" opacity="0" width="28.291" x="0" y="0"/>
  <path d="M13.9648 27.9297C21.6406 27.9297 27.9297 21.6504 27.9297 13.9648C27.9297 6.2793 21.6406 0 13.9648 0C6.28906 0 0 6.2793 0 13.9648C0 21.6504 6.28906 27.9297 13.9648 27.9297ZM13.9648 23.3398C8.7793 23.3398 4.58008 19.1504 4.58008 13.9648C4.58008 8.7793 8.7793 4.58008 13.9648 4.58008C19.1504 4.58008 23.3496 8.7793 23.3496 13.9648C23.3496 19.1504 19.1504 23.3398 13.9648 23.3398Z" fill="black" fill-opacity="0.85"/>
  <path d="M13.9648 19.8633C14.375 19.8633 14.6094 19.6191 14.6094 19.209L14.6094 9.78516L17.7441 9.78516C18.1152 9.78516 18.3594 9.53125 18.3594 9.20898C18.3594 8.85742 18.1055 8.63281 17.7441 8.63281L10.1758 8.63281C9.81445 8.63281 9.56055 8.85742 9.56055 9.20898C9.56055 9.55078 9.82422 9.78516 10.1758 9.78516L13.3105 9.78516L13.3105 19.209C13.3105 19.6191 13.5645 19.8633 13.9648 19.8633ZM11.2988 15.2148C11.3672 15.2148 11.4453 15.1953 11.5234 15.1758L16.7188 13.0469C16.9141 12.9688 17.002 12.8516 17.002 12.6758C17.002 12.4121 16.8262 12.2949 16.6309 12.2949C16.5625 12.2949 16.4941 12.3145 16.416 12.3438L11.2109 14.4629C11.0156 14.541 10.9277 14.668 10.9277 14.8438C10.9277 15.0391 11.0645 15.2148 11.2988 15.2148ZM11.2988 17.6562C11.3672 17.6562 11.4453 17.6367 11.5234 17.6074L16.7188 15.4883C16.9141 15.4004 17.002 15.293 17.002 15.1074C17.002 14.8535 16.8262 14.7363 16.6309 14.7363C16.5625 14.7363 16.4941 14.7559 16.416 14.7754L11.2109 16.8945C11.0156 16.9824 10.9277 17.1094 10.9277 17.2754C10.9277 17.4805 11.0645 17.6562 11.2988 17.6562Z" fill="black" fill-opacity="0.85"/>
 </g>
</svg>
