<?xml version="1.0" encoding="UTF-8"?>
<!--Generator: Apple Native CoreSVG 326-->
<!DOCTYPE svg
PUBLIC "-//W3C//DTD SVG 1.1//EN"
       "http://www.w3.org/Graphics/SVG/1.1/DTD/svg11.dtd">
<svg version="1.1" xmlns="http://www.w3.org/2000/svg" xmlns:xlink="http://www.w3.org/1999/xlink" viewBox="0 0 30.3809 25.0293">
 <g>
  <rect height="25.0293" opacity="0" width="30.3809" x="0" y="0"/>
  <path d="M30.0195 15.0098C30.0195 11.3281 28.6914 7.95898 26.4844 5.3418C26.2305 5.03906 25.8008 5.04883 25.5176 5.33203L22.6953 8.1543C22.4512 8.39844 22.4414 8.74023 22.6562 9.01367C23.9551 10.6738 24.7266 12.7441 24.7266 15.0098C24.7266 17.2754 23.9551 19.3555 22.5977 21.0742C22.4121 21.3086 22.4219 21.6016 22.627 21.8066L25.5176 24.707C25.8008 25 26.2207 24.9902 26.4844 24.6875C28.6914 22.0703 30.0195 18.6816 30.0195 15.0098Z" fill="black" fill-opacity="0.85"/>
  <path d="M15.0098 5.2832C17.2754 5.2832 19.3652 6.06445 21.0254 7.38281C21.2891 7.57812 21.6113 7.55859 21.8555 7.31445L24.6875 4.48242C24.9805 4.19922 24.9707 3.7793 24.668 3.51562C22.0605 1.32812 18.6816 0 15.0098 0C11.3379 0 7.95898 1.32812 5.35156 3.51562C5.04883 3.7793 5.03906 4.19922 5.32227 4.48242L8.16406 7.31445C8.39844 7.55859 8.75 7.56836 9.02344 7.35352C10.6738 6.06445 12.7539 5.2832 15.0098 5.2832Z" fill="black" fill-opacity="0.85"/>
  <path d="M0 15.0098C0 18.6816 1.32812 22.0703 3.53516 24.6875C3.78906 24.9902 4.21875 25 4.50195 24.707L7.39258 21.8066C7.58789 21.6016 7.60742 21.3086 7.42188 21.0742C6.06445 19.3555 5.2832 17.2754 5.2832 15.0098C5.2832 12.7441 6.05469 10.6738 7.36328 9.01367C7.56836 8.74023 7.56836 8.39844 7.32422 8.1543L4.49219 5.33203C4.20898 5.04883 3.78906 5.03906 3.52539 5.3418C1.31836 7.95898 0 11.3281 0 15.0098Z" fill="black" fill-opacity="0.85"/>
  <path d="M13.4961 20.5957L13.6426 20.5957C15.1562 20.5957 16.6602 20.0391 17.6465 19.0918C18.4668 18.2715 19.0625 17.1582 19.0625 16.0547C19.0625 15.6934 18.877 15.4297 18.4668 15.4297C18.0957 15.4297 17.8906 15.6543 17.8516 16.0352C17.7539 16.875 17.3828 17.6172 16.8457 18.1738C16.1035 18.9551 15.0293 19.3555 13.9551 19.3555L13.9551 15.2637L16.6016 14.1699C16.7969 14.0918 16.8945 13.9648 16.8945 13.8086C16.8945 13.5742 16.7383 13.418 16.5137 13.418C16.4453 13.418 16.377 13.4375 16.3086 13.4766L13.9551 14.4434L13.9551 12.832L16.6016 11.7383C16.7969 11.6699 16.8945 11.5332 16.8945 11.3477C16.8945 11.1914 16.7969 10.9766 16.5332 10.9766C16.4551 10.9766 16.3867 11.0059 16.3086 11.0352L13.9551 12.0117L13.9551 10.1465C13.9551 9.74609 13.6914 9.47266 13.3008 9.47266C12.9102 9.47266 12.6367 9.74609 12.6367 10.1465L12.6367 12.5391L11.0352 13.2031C10.8496 13.2715 10.7715 13.3984 10.7715 13.5742C10.7715 13.7793 10.9277 13.9453 11.1328 13.9453C11.1914 13.9453 11.2695 13.9355 11.3574 13.8965L12.6367 13.3594L12.6367 14.9805L11.0352 15.6348C10.8496 15.7129 10.7715 15.8203 10.7715 16.0059C10.7715 16.2109 10.9277 16.377 11.1328 16.377C11.1914 16.377 11.2891 16.3574 11.3672 16.3281L12.6367 15.8008L12.6367 19.7754C12.6367 20.2734 12.998 20.5957 13.4961 20.5957Z" fill="black" fill-opacity="0.85"/>
 </g>
</svg>
