<?xml version="1.0" encoding="UTF-8"?>
<!--Generator: Apple Native CoreSVG 326-->
<!DOCTYPE svg
PUBLIC "-//W3C//DTD SVG 1.1//EN"
       "http://www.w3.org/Graphics/SVG/1.1/DTD/svg11.dtd">
<svg version="1.1" xmlns="http://www.w3.org/2000/svg" xmlns:xlink="http://www.w3.org/1999/xlink" viewBox="0 0 27.9395 26.5527">
 <g>
  <rect height="26.5527" opacity="0" width="27.9395" x="0" y="0"/>
  <path d="M15.2637 0.419922L26.0547 6.65039C26.4453 6.875 26.6211 7.1582 26.6211 7.48047C26.6211 7.91992 26.2891 8.33984 25.6934 8.33984L24.5605 8.33984L24.5605 23.252L25.3613 23.252C25.791 23.252 26.0449 23.5059 26.0449 23.9258L26.0449 24.8047L26.709 24.8047C27.1875 24.8047 27.5781 25.1953 27.5781 25.6738C27.5781 26.1426 27.1875 26.5332 26.709 26.5332L0.869141 26.5332C0.390625 26.5332 0 26.1426 0 25.6738C0 25.1953 0.390625 24.8047 0.869141 24.8047L1.5332 24.8047L1.5332 23.9258C1.5332 23.5059 1.78711 23.252 2.22656 23.252L3.02734 23.252L3.02734 8.33984L1.88477 8.33984C1.28906 8.33984 0.957031 7.91992 0.957031 7.48047C0.957031 7.1582 1.12305 6.875 1.52344 6.65039L12.3145 0.419922C12.7832 0.146484 13.3008 0 13.7891 0C14.2773 0 14.7852 0.146484 15.2637 0.419922ZM11.377 9.18945L11.377 11.6309L9.73633 12.3145C9.54102 12.3828 9.46289 12.5098 9.46289 12.6855C9.46289 12.9102 9.61914 13.0762 9.83398 13.0762C9.89258 13.0762 9.98047 13.0664 10.0684 13.0273L11.377 12.4805L11.377 14.1309L9.73633 14.8047C9.54102 14.8828 9.46289 15 9.46289 15.1855C9.46289 15.4004 9.61914 15.5664 9.83398 15.5664C9.89258 15.5664 10 15.5469 10.0781 15.5176L11.377 14.9805L11.377 19.0625C11.377 19.5605 11.7383 19.8926 12.2656 19.8926L12.4121 19.8926C13.9648 19.8926 15.5078 19.3262 16.5137 18.3496C17.3535 17.5098 17.9785 16.3672 17.9785 15.2441C17.9785 14.873 17.7734 14.5996 17.3535 14.5996C16.9727 14.5996 16.7578 14.834 16.7188 15.2246C16.6309 16.084 16.2402 16.8359 15.6934 17.4023C14.9316 18.2031 13.8379 18.6133 12.7344 18.6133L12.7344 14.4238L15.4395 13.3105C15.6445 13.2324 15.7422 13.0957 15.7422 12.9297C15.7422 12.6855 15.5859 12.5391 15.3516 12.5391C15.2832 12.5391 15.2148 12.5586 15.1367 12.5879L12.7344 13.584L12.7344 11.9336L15.4395 10.8203C15.6445 10.7422 15.7422 10.6055 15.7422 10.4199C15.7422 10.2539 15.6445 10.0293 15.3711 10.0293C15.293 10.0293 15.2246 10.0684 15.1367 10.0977L12.7344 11.0938L12.7344 9.18945C12.7344 8.7793 12.4609 8.49609 12.0605 8.49609C11.6602 8.49609 11.377 8.7793 11.377 9.18945Z" fill="black" fill-opacity="0.85"/>
 </g>
</svg>
