<?xml version="1.0" encoding="UTF-8"?>
<!--Generator: Apple Native CoreSVG 326-->
<!DOCTYPE svg
PUBLIC "-//W3C//DTD SVG 1.1//EN"
       "http://www.w3.org/Graphics/SVG/1.1/DTD/svg11.dtd">
<svg version="1.1" xmlns="http://www.w3.org/2000/svg" xmlns:xlink="http://www.w3.org/1999/xlink" viewBox="0 0 28.291 27.9395">
 <g>
  <rect height="27.9395" opacity="0" width="28.291" x="0" y="0"/>
  <path d="M13.9648 27.9297C21.6406 27.9297 27.9297 21.6504 27.9297 13.9648C27.9297 6.2793 21.6406 0 13.9648 0C6.28906 0 0 6.2793 0 13.9648C0 21.6504 6.28906 27.9297 13.9648 27.9297ZM13.9648 23.3398C8.7793 23.3398 4.58008 19.1504 4.58008 13.9648C4.58008 8.7793 8.7793 4.58008 13.9648 4.58008C19.1504 4.58008 23.3496 8.7793 23.3496 13.9648C23.3496 19.1504 19.1504 23.3398 13.9648 23.3398Z" fill="black" fill-opacity="0.85"/>
  <path d="M12.4609 19.3945L12.6074 19.3945C14.1211 19.3945 15.625 18.8281 16.6113 17.8809C17.4316 17.0605 18.0371 15.9473 18.0371 14.8438C18.0371 14.4922 17.8418 14.2188 17.4316 14.2188C17.0605 14.2188 16.8555 14.4531 16.8164 14.8242C16.7285 15.6641 16.3477 16.4062 15.8105 16.9629C15.0684 17.7539 14.0039 18.1445 12.9199 18.1445L12.9199 14.0527L15.5762 12.959C15.7617 12.8809 15.8594 12.7539 15.8594 12.5977C15.8594 12.3633 15.7031 12.207 15.4883 12.207C15.4199 12.207 15.3516 12.2363 15.2734 12.2656L12.9199 13.2324L12.9199 11.6309L15.5762 10.5273C15.7617 10.459 15.8594 10.3223 15.8594 10.1367C15.8594 9.99023 15.7715 9.77539 15.498 9.77539C15.4297 9.77539 15.3516 9.79492 15.2734 9.83398L12.9199 10.8105L12.9199 8.93555C12.9199 8.53516 12.6562 8.26172 12.2656 8.26172C11.875 8.26172 11.6016 8.53516 11.6016 8.93555L11.6016 11.3379L10.0098 12.002C9.81445 12.0703 9.73633 12.1875 9.73633 12.3633C9.73633 12.5781 9.89258 12.7441 10.1074 12.7441C10.166 12.7441 10.2344 12.7246 10.3223 12.6953L11.6016 12.1582L11.6016 13.7695L10.0098 14.4238C9.81445 14.502 9.73633 14.6094 9.73633 14.7949C9.73633 15 9.89258 15.166 10.1074 15.166C10.166 15.166 10.2539 15.1562 10.332 15.1172L11.6016 14.5898L11.6016 18.5742C11.6016 19.0625 11.9629 19.3945 12.4609 19.3945Z" fill="black" fill-opacity="0.85"/>
 </g>
</svg>
