<?xml version="1.0" encoding="UTF-8"?>
<!--Generator: Apple Native CoreSVG 326-->
<!DOCTYPE svg
PUBLIC "-//W3C//DTD SVG 1.1//EN"
       "http://www.w3.org/Graphics/SVG/1.1/DTD/svg11.dtd">
<svg version="1.1" xmlns="http://www.w3.org/2000/svg" xmlns:xlink="http://www.w3.org/1999/xlink" viewBox="0 0 25.8008 25.459">
 <g>
  <rect height="25.459" opacity="0" width="25.8008" x="0" y="0"/>
  <path d="M12.7148 25.4395C19.7363 25.4395 25.4395 19.7461 25.4395 12.7246C25.4395 5.70312 19.7363 0 12.7148 0C5.69336 0 0 5.70312 0 12.7246C0 19.7461 5.69336 25.4395 12.7148 25.4395ZM12.7148 23.623C6.68945 23.623 1.81641 18.75 1.81641 12.7246C1.81641 6.69922 6.68945 1.82617 12.7148 1.82617C18.7402 1.82617 23.6133 6.69922 23.6133 12.7246C23.6133 18.75 18.7402 23.623 12.7148 23.623Z" fill="black" fill-opacity="0.85"/>
  <path d="M11.2012 18.1543L11.3477 18.1543C12.8613 18.1543 14.375 17.5879 15.3516 16.6406C16.1719 15.8203 16.7773 14.707 16.7773 13.6035C16.7773 13.252 16.5918 12.9785 16.1816 12.9785C15.8008 12.9785 15.5957 13.2129 15.5566 13.584C15.4688 14.4238 15.0977 15.166 14.5508 15.7227C13.8184 16.5137 12.7441 16.9043 11.6602 16.9043L11.6602 12.8125L14.3164 11.7188C14.502 11.6406 14.5996 11.5137 14.5996 11.3574C14.5996 11.123 14.4434 10.9668 14.2285 10.9668C14.1602 10.9668 14.0918 10.9961 14.0137 11.0254L11.6602 11.9922L11.6602 10.3906L14.3164 9.28711C14.5117 9.21875 14.6094 9.08203 14.6094 8.89648C14.6094 8.75 14.5117 8.53516 14.248 8.53516C14.1699 8.53516 14.1016 8.55469 14.0137 8.59375L11.6602 9.57031L11.6602 7.69531C11.6602 7.29492 11.3965 7.02148 11.0156 7.02148C10.625 7.02148 10.3516 7.29492 10.3516 7.69531L10.3516 10.0977L8.75 10.7617C8.56445 10.8301 8.48633 10.9473 8.48633 11.123C8.48633 11.3379 8.64258 11.5039 8.84766 11.5039C8.90625 11.5039 8.98438 11.4844 9.0625 11.4551L10.3516 10.918L10.3516 12.5293L8.75 13.1836C8.56445 13.2617 8.48633 13.3691 8.48633 13.5547C8.48633 13.7598 8.64258 13.9258 8.84766 13.9258C8.90625 13.9258 8.99414 13.916 9.08203 13.877L10.3516 13.3496L10.3516 17.334C10.3516 17.8223 10.7031 18.1543 11.2012 18.1543Z" fill="black" fill-opacity="0.85"/>
 </g>
</svg>
