<?xml version="1.0" ?><!-- Generator: Adobe Illustrator 25.0.0, SVG Export Plug-In . SVG Version: 6.00 Build 0)  --><svg xmlns="http://www.w3.org/2000/svg" xmlns:xlink="http://www.w3.org/1999/xlink" version="1.1" id="Layer_1" x="0px" y="0px" viewBox="0 0 512 512" style="enable-background:new 0 0 512 512;" xml:space="preserve">
<path d="M46.3,366.6h165.3v-29H46.9c-6.2,0-10.8-1.4-13.6-4.1c-2.8-2.7-4.2-7.2-4.2-13.6V114.3c0-6.4,1.4-10.9,4.2-13.6  c2.8-2.7,7.4-4.1,13.6-4.1h356.5c6.1,0,10.6,1.4,13.4,4.1c2.8,2.7,4.2,7.2,4.2,13.6v162h29V113.7c0-15.7-3.8-27.4-11.5-34.9  c-7.7-7.5-19.2-11.3-34.6-11.3H46.3c-15.4,0-26.9,3.8-34.7,11.3C3.9,86.4,0,98,0,113.7v206.5c0,15.9,3.9,27.5,11.6,35.1  S30.9,366.6,46.3,366.6z M134.6,427.7h79.8c-0.7-2.8-1.3-5.4-1.7-7.9c-0.4-2.5-0.7-5.4-0.8-8.7c-0.1-3.3-0.2-7.5-0.2-12.5h-77.1  c-4,0-7.4,1.4-10.3,4.3s-4.3,6.3-4.3,10.3c0,4.1,1.4,7.5,4.3,10.4C127.2,426.2,130.7,427.7,134.6,427.7z" class="hierarchical-0:secondary SFSymbolsPreview4D4D4D" style="fill: #4D4D4D;"/>
<path d="M276.3,444.4h197.5c12.6,0,22.1-3.2,28.6-9.6c6.4-6.4,9.6-16.1,9.6-28.9v-64.5c0-13-3.2-22.7-9.6-29.1  c-6.4-6.4-16-9.6-28.6-9.6H276.3c-12.9,0-22.4,3.2-28.7,9.6c-6.3,6.4-9.5,15.7-9.5,28.1v65.6c0,12.9,3.2,22.5,9.5,28.9  C253.8,441.2,263.4,444.4,276.3,444.4z M452.7,383c-5.8,0-10.7-2-14.7-6.1c-4-4.1-6-9-6-14.8c0-5.6,2-10.5,6-14.5s8.9-6,14.7-6  c5.6,0,10.5,2,14.5,6c4,4,6,8.9,6,14.5c0,5.8-2,10.7-6,14.8C463.2,380.9,458.4,383,452.7,383z" class="hierarchical-1:primary SFSymbolsPreview212121" style="fill: #212121;"/>
</svg>