<?xml version="1.0" encoding="UTF-8"?>
<!--Generator: Apple Native CoreSVG 326-->
<!DOCTYPE svg
PUBLIC "-//W3C//DTD SVG 1.1//EN"
       "http://www.w3.org/Graphics/SVG/1.1/DTD/svg11.dtd">
<svg version="1.1" xmlns="http://www.w3.org/2000/svg" xmlns:xlink="http://www.w3.org/1999/xlink" viewBox="0 0 37.8125 30.752">
 <g>
  <rect height="30.752" opacity="0" width="37.8125" x="0" y="0"/>
  <path d="M21.5234 26.6699C21.5234 27.0301 21.5535 27.3657 21.6122 27.6758L10.4395 27.6758C9.96094 27.6758 9.57031 27.2852 9.57031 26.8066C9.57031 26.3184 9.96094 25.9277 10.4395 25.9277L21.5234 25.9277ZM32.1875 6.11328L32.1875 10.4785L30.459 10.4785L30.459 6.15234C30.459 5.29297 29.9512 4.79492 29.0918 4.79492L4.28711 4.79492C3.42773 4.79492 2.92969 5.29297 2.92969 6.15234L2.92969 20.5957C2.92969 21.4453 3.42773 21.9434 4.28711 21.9434L21.5234 21.9434L21.5234 23.6719L4.24805 23.6719C2.34375 23.6719 1.19141 22.5293 1.19141 20.625L1.19141 6.11328C1.19141 4.20898 2.34375 3.06641 4.24805 3.06641L29.1309 3.06641C31.0352 3.06641 32.1875 4.20898 32.1875 6.11328Z" fill="black" fill-opacity="0.425"/>
  <path d="M25.5859 29.1992L33.75 29.1992C35.4102 29.1992 36.2598 28.3496 36.2598 26.6699L36.2598 14.5703C36.2598 12.8809 35.4102 12.041 33.75 12.041L25.5859 12.041C23.9062 12.041 23.0762 12.8809 23.0762 14.5703L23.0762 26.6699C23.0762 28.3496 23.9062 29.1992 25.5859 29.1992ZM29.668 18.2715C28.5059 18.2715 27.5781 17.3438 27.5879 16.1719C27.5977 15.0098 28.5059 14.1016 29.668 14.1016C30.8398 14.1016 31.748 15.0098 31.748 16.1719C31.748 17.3438 30.8398 18.2715 29.668 18.2715ZM29.6582 27.0215C27.5977 27.0215 25.9375 25.3516 25.9375 23.2715C25.9375 21.1914 27.5977 19.541 29.6582 19.5312C31.7188 19.5215 33.3984 21.1914 33.3984 23.2715C33.3984 25.3516 31.7188 27.0215 29.6582 27.0215ZM29.6582 17.2852C30.2832 17.2852 30.7715 16.7969 30.7715 16.1719C30.7715 15.5469 30.2832 15.0684 29.6582 15.0684C29.0527 15.0684 28.5547 15.5664 28.5547 16.1719C28.5547 16.7969 29.043 17.2852 29.6582 17.2852ZM29.6582 24.9121C30.5664 24.9121 31.3086 24.1797 31.3086 23.2715C31.3086 22.334 30.5859 21.6211 29.6582 21.6211C28.7598 21.6211 28.0273 22.334 28.0273 23.2715C28.0273 24.1797 28.7598 24.9121 29.6582 24.9121Z" fill="black" fill-opacity="0.85"/>
  <path d="M29.668 18.2715C28.5059 18.2715 27.5781 17.3438 27.5879 16.1719C27.5977 15.0098 28.5059 14.1016 29.668 14.1016C30.8398 14.1016 31.748 15.0098 31.748 16.1719C31.748 17.3438 30.8398 18.2715 29.668 18.2715ZM29.6582 27.0215C27.5977 27.0215 25.9375 25.3516 25.9375 23.2715C25.9375 21.1914 27.5977 19.541 29.6582 19.5312C31.7188 19.5215 33.3984 21.1914 33.3984 23.2715C33.3984 25.3516 31.7188 27.0215 29.6582 27.0215ZM29.6582 17.2852C30.2832 17.2852 30.7715 16.7969 30.7715 16.1719C30.7715 15.5469 30.2832 15.0684 29.6582 15.0684C29.0527 15.0684 28.5547 15.5664 28.5547 16.1719C28.5547 16.7969 29.043 17.2852 29.6582 17.2852ZM29.6582 24.9121C30.5664 24.9121 31.3086 24.1797 31.3086 23.2715C31.3086 22.334 30.5859 21.6211 29.6582 21.6211C28.7598 21.6211 28.0273 22.334 28.0273 23.2715C28.0273 24.1797 28.7598 24.9121 29.6582 24.9121Z" fill="black" fill-opacity="0.2125"/>
 </g>
</svg>
