<?xml version="1.0" encoding="UTF-8"?>
<!--Generator: Apple Native CoreSVG 326-->
<!DOCTYPE svg
PUBLIC "-//W3C//DTD SVG 1.1//EN"
       "http://www.w3.org/Graphics/SVG/1.1/DTD/svg11.dtd">
<svg version="1.1" xmlns="http://www.w3.org/2000/svg" xmlns:xlink="http://www.w3.org/1999/xlink" viewBox="0 0 37.8125 30.752">
 <g>
  <rect height="30.752" opacity="0" width="37.8125" x="0" y="0"/>
  <path d="M16.0254 26.6699C16.0254 27.0301 16.0554 27.3657 16.1142 27.6758L10.4395 27.6758C9.96094 27.6758 9.57031 27.2852 9.57031 26.8066C9.57031 26.3184 9.96094 25.9277 10.4395 25.9277L16.0254 25.9277ZM32.1875 6.11328L32.1875 18.0664L30.459 18.0664L30.459 6.15234C30.459 5.29297 29.9512 4.79492 29.0918 4.79492L4.28711 4.79492C3.42773 4.79492 2.92969 5.29297 2.92969 6.15234L2.92969 20.5957C2.92969 21.4453 3.42773 21.9434 4.28711 21.9434L16.0295 21.9434C16.0257 21.9742 16.0254 22.0075 16.0254 22.041L16.0254 23.6719L4.24805 23.6719C2.34375 23.6719 1.19141 22.5293 1.19141 20.625L1.19141 6.11328C1.19141 4.20898 2.34375 3.06641 4.24805 3.06641L29.1309 3.06641C31.0352 3.06641 32.1875 4.20898 32.1875 6.11328Z" fill="black" fill-opacity="0.425"/>
  <path d="M20.0977 29.1992L33.75 29.1992C35.4102 29.1992 36.2598 28.3496 36.2598 26.6699L36.2598 22.1582C36.2598 20.4688 35.4102 19.6289 33.75 19.6289L20.0977 19.6289C18.418 19.6289 17.5879 20.4688 17.5879 22.041L17.5879 26.6699C17.5879 28.3496 18.418 29.1992 20.0977 29.1992ZM32.2363 25C31.4648 25 30.8398 24.3848 30.8398 23.6133C30.8398 22.8613 31.4648 22.2461 32.2363 22.2461C32.9785 22.2461 33.6035 22.8613 33.6035 23.6133C33.6035 24.3848 32.9785 25 32.2363 25Z" fill="black" fill-opacity="0.85"/>
 </g>
</svg>
