<?xml version="1.0" ?><!-- Generator: Adobe Illustrator 25.0.0, SVG Export Plug-In . SVG Version: 6.00 Build 0)  --><svg xmlns="http://www.w3.org/2000/svg" xmlns:xlink="http://www.w3.org/1999/xlink" version="1.1" id="Layer_1" x="0px" y="0px" viewBox="0 0 512 512" style="enable-background:new 0 0 512 512;" xml:space="preserve">
<path d="M46.3,366.7h245.8v-29H46.9c-12.4,0-17.8-5-17.8-17.8V114.3c0-12.6,5.4-17.7,17.8-17.7h356.5c12.3,0,17.7,5,17.7,17.7v52.6  h29v-53c0-31.5-15.3-46.3-46.1-46.3H46.3C15.5,67.6,0,82.4,0,113.9v206.5C0,352,15.5,366.7,46.3,366.7z M356.7,444.4h117.1  c25.2,0,38.2-12.8,38.2-38.4V232.1c0-26-13-38.7-38.2-38.7H356.7c-25.8,0-38.2,12.8-38.2,38.7V406  C318.4,431.6,330.9,444.4,356.7,444.4z M415.2,285.1c-17.3,0-31.2-13.7-31-31.2c0.2-17.3,13.7-30.8,31-30.8c17.3,0,31,13.5,31,30.8  C446.2,271.4,432.5,285.1,415.2,285.1z M415,269.2c8.5,0,15.3-6.7,15.3-15.3c0-8.7-6.9-15.3-15.3-15.3c-8.3,0-15.1,7-15.1,15.3  C399.9,262.6,406.6,269.2,415,269.2z M415,413.2c-30.6,0-55-24.7-55-55.3s24.3-55.1,55-55.3c30.5-0.2,55.3,24.7,55.3,55.3  S445.5,413.2,415,413.2z M415,381.2c13,0,23.4-10.5,23.4-23.2c0-13.3-10.3-23.6-23.4-23.6c-12.8,0-23.1,10.3-23.1,23.6  C392,370.7,402.2,381.2,415,381.2z M124.5,427.7h170.3c-2.2-8.1-2.7-14.1-2.7-29.2H124.5c-8.1,0-14.6,6.7-14.6,14.8  C109.9,421.2,116.4,427.7,124.5,427.7z"/>
</svg>