<?xml version="1.0" ?><!-- Generator: Adobe Illustrator 25.0.0, SVG Export Plug-In . SVG Version: 6.00 Build 0)  --><svg xmlns="http://www.w3.org/2000/svg" xmlns:xlink="http://www.w3.org/1999/xlink" version="1.1" id="Layer_1" x="0px" y="0px" viewBox="0 0 512 512" style="enable-background:new 0 0 512 512;" xml:space="preserve">
<path d="M256,512c140,0,256-116.2,256-256C512,116,395.8,0,255.7,0C116,0,0,116,0,256C0,395.8,116.2,512,256,512z M140.5,345.9  c-23.3,0-36.9-13.1-36.9-36.6V177.4c0-23.8,13.3-37.1,36.9-37.1h230.1c23.8,0,36.9,13.3,36.9,37.1v131.8c0,23.6-13.3,36.6-36.9,36.6  H140.5z M143.6,313.2h224.1c5.5,0,7.3-1.8,7.3-7v-126c0-5.3-1.8-7-7.3-7H143.6c-5.5,0-7,1.5-7,7v126  C136.5,311.7,138,313.2,143.6,313.2z M188.7,398.6c-9,0-16.6-7.5-16.6-16.8c0-8.5,7.8-16.1,16.6-16.1h134.5  c8.5,0,16.1,7.5,16.1,16.1c0,9.3-7.3,16.8-16.1,16.8H188.7z"/>
</svg>