<?xml version="1.0" ?><!-- Generator: Adobe Illustrator 25.0.0, SVG Export Plug-In . SVG Version: 6.00 Build 0)  --><svg xmlns="http://www.w3.org/2000/svg" xmlns:xlink="http://www.w3.org/1999/xlink" version="1.1" id="Layer_1" x="0px" y="0px" viewBox="0 0 512 512" style="enable-background:new 0 0 512 512;" xml:space="preserve">
<path d="M256,512c140,0,256-116.2,256-256C512,116,395.8,0,255.7,0C116,0,0,116,0,256C0,395.8,116.2,512,256,512z M256,469.3  c-118.5,0-213.1-94.9-213.1-213.3S137.3,42.7,255.7,42.7S469.1,137.5,469.3,256S374.5,469.3,256,469.3z M144.1,343.8h223.1  c22.8,0,35.9-13.1,35.9-35.6v-128c0-22.8-12.8-35.6-35.9-35.6H144.1c-22.8,0-35.9,12.8-35.9,35.6v128  C108.2,330.8,121.5,343.8,144.1,343.8z M146.8,312.2c-5.3,0-6.8-1.8-6.8-6.8V183c0-5.3,1.5-6.8,6.8-6.8h217.6c5.3,0,7,1.8,7,6.8  v122.5c0,4.8-1.8,6.8-7,6.8H146.8z M190.7,394.8h130.5c8.5,0,15.6-7.5,15.6-16.3c0-8.3-7.3-15.3-15.6-15.3H190.7  c-8.5,0-16.1,7-16.1,15.3C174.7,387.3,182,394.8,190.7,394.8z"/>
</svg>