<?xml version="1.0" ?><!-- Generator: Adobe Illustrator 25.0.0, SVG Export Plug-In . SVG Version: 6.00 Build 0)  --><svg xmlns="http://www.w3.org/2000/svg" xmlns:xlink="http://www.w3.org/1999/xlink" version="1.1" id="Layer_1" x="0px" y="0px" viewBox="0 0 512 512" style="enable-background:new 0 0 512 512;" xml:space="preserve">
<path d="M52.7,391.5h406.8c35.1,0,52.5-16.8,52.5-52.7v-235c0-35.9-17.4-52.7-52.5-52.7H52.7C17.6,51.2,0,68,0,103.9v235  C0,374.7,17.6,391.5,52.7,391.5z M53.3,358.5c-14.1,0-20.3-5.7-20.3-20.3v-234c0-14.4,6.2-20.1,20.3-20.1h405.6  c13.9,0,20.1,5.7,20.1,20.1v234c0,14.6-6.2,20.3-20.1,20.3H53.3z M141.7,460.8h228.8c9,0,16.6-7.4,16.6-16.4  c0-9.2-7.6-16.8-16.6-16.8H141.7c-9.2,0-16.6,7.6-16.6,16.8C125.1,453.5,132.5,460.8,141.7,460.8z"/>
</svg>