<?xml version="1.0" ?><!-- Generator: Adobe Illustrator 25.0.0, SVG Export Plug-In . SVG Version: 6.00 Build 0)  --><svg xmlns="http://www.w3.org/2000/svg" xmlns:xlink="http://www.w3.org/1999/xlink" version="1.1" id="Layer_1" x="0px" y="0px" viewBox="0 0 512 512" style="enable-background:new 0 0 512 512;" xml:space="preserve">
<path d="M87.3,512h337.3c58.4,0,87.3-28.9,87.3-86.2V86.2C512,28.9,483.1,0,424.7,0H87.3C29.2,0,0,28.6,0,86.2v339.6  C0,483.4,29.2,512,87.3,512z M256.1,390.2c-67.3,0-112.4-38.7-112.4-99V144.6c0-16.1,8.3-25.9,22.8-25.9c14.7,0,23.1,9.7,23.1,25.9  v142.1c0,40.3,26.4,65.4,66.5,65.4c40,0,66.2-25,66.2-65.4V144.6c0-16.1,8.6-25.9,22.8-25.9c15,0,23.4,9.7,23.4,25.9v146.6  C368.5,351.5,323.4,390.2,256.1,390.2z"/>
</svg>