<?xml version="1.0" ?><!-- Generator: Adobe Illustrator 25.0.0, SVG Export Plug-In . SVG Version: 6.00 Build 0)  --><svg xmlns="http://www.w3.org/2000/svg" xmlns:xlink="http://www.w3.org/1999/xlink" version="1.1" id="Layer_1" x="0px" y="0px" viewBox="0 0 512 512" style="enable-background:new 0 0 512 512;" xml:space="preserve">
<path d="M53.3,282.8c7.3,0,12-5.2,16-11.3c13.4-20,28.7-32.4,52.1-32.4c23.5,0,37.1,12.2,48.6,32.2c3.5,6.6,8,11.5,15,11.5  c7,0,11.3-4.9,15-11.3c7.8-13.9,20.9-24.9,36.2-30.3v198.7c0,18.3-12.9,32.6-32.6,32.6c-19.5,0-32.4-14.6-32.4-32.6  c0-14.3-8.7-22.5-20-22.5c-11,0-19.5,8.2-19.5,22.5c0,40.2,30.5,72.1,71.9,72.1c41.6,0,72.3-31.9,72.3-72.1V241.2  c15,5.4,28.2,16.4,35.9,30.3c3.8,6.3,8,11.3,15,11.3c7.3,0,11.5-4.9,15.3-11.5c11.5-19.7,25.1-32.2,48.4-32.2  c23.5,0,39,12.2,52.1,32.4c4,6.1,8.9,11.3,16,11.3c9.6,0,18.6-7.8,18.6-20.4c0-83.8-63.2-200.1-201.3-210.4v-31  C276,8.5,267.5,0,256,0c-11.3,0-19.7,8.5-19.7,20.9v31C97.9,62.2,34.8,178.5,34.8,262.3C34.8,275,43.7,282.8,53.3,282.8z   M323.2,238.6c-13.6-20.4-39.2-35.2-67.2-35.2c-27.9,0-53.3,14.8-67.2,35.2c-1.2,1.9-1.6,2.6-2.8,2.6c-1.2,0-1.9-0.7-2.8-2.6  c-13.2-23.5-35.2-34.1-57.1-34.1c-23.5,0-42.7,12.2-54,28.2C84.6,171.9,144.4,87.4,256,87.4c111.6,0,171.7,84.6,184.1,145.4  c-11.3-16-30.5-28.2-54.3-28.2c-21.8,0-43.9,10.6-56.8,34.1c-1.2,1.9-1.9,2.6-3.1,2.6C325.1,241.2,324.6,240.5,323.2,238.6z"/>
</svg>