<?xml version="1.0" encoding="UTF-8"?>
<!--Generator: Apple Native CoreSVG 326-->
<!DOCTYPE svg
PUBLIC "-//W3C//DTD SVG 1.1//EN"
       "http://www.w3.org/Graphics/SVG/1.1/DTD/svg11.dtd">
<svg version="1.1" xmlns="http://www.w3.org/2000/svg" xmlns:xlink="http://www.w3.org/1999/xlink" viewBox="0 0 27.0508 29.4434">
 <g>
  <rect height="29.4434" opacity="0" width="27.0508" x="0" y="0"/>
  <path d="M12.0215 3.60352L13.877 3.60352L13.877 0.927734C13.877 0.410156 13.4766 0 12.9492 0C12.4219 0 12.0215 0.410156 12.0215 0.927734ZM1.45508 15.6836C1.79688 15.6836 2.08984 15.459 2.33398 15.0879C3.19336 13.7891 4.12109 13.2422 5.3418 13.2422C6.54297 13.2422 7.36328 13.7793 8.0957 15.0684C8.34961 15.498 8.59375 15.6836 8.91602 15.6836C9.25781 15.6836 9.50195 15.4883 9.72656 15.0684C10.4102 13.9062 11.7188 13.1836 12.9492 13.1836C14.1797 13.1836 15.4883 13.9062 16.1719 15.0684C16.3965 15.4883 16.6406 15.6836 16.9824 15.6836C17.3047 15.6836 17.5488 15.498 17.8027 15.0684C18.5352 13.7793 19.3555 13.2422 20.5566 13.2422C21.7773 13.2422 22.7051 13.7891 23.5645 15.0879C23.8086 15.459 24.1016 15.6836 24.4434 15.6836C24.9902 15.6836 25.3516 15.2441 25.3516 14.6387C25.3516 9.63867 21.4062 2.76367 12.9492 2.76367C4.49219 2.76367 0.546875 9.63867 0.546875 14.6387C0.546875 15.2441 0.908203 15.6836 1.45508 15.6836ZM12.9492 11.5039C11.416 11.5039 9.90234 12.2363 9.01367 13.3887C8.95508 13.457 8.91602 13.457 8.86719 13.3887C8.01758 12.168 6.85547 11.5625 5.3418 11.5625C3.75 11.5625 2.43164 12.2363 1.33789 13.6133L2.29492 13.6914C2.7832 8.80859 6.88477 4.44336 12.9492 4.44336C18.9941 4.44336 23.0957 8.7793 23.6035 13.6523L24.5312 13.5742C23.4473 12.2266 22.1387 11.5625 20.5566 11.5625C19.043 11.5625 17.8809 12.168 17.0312 13.3887C16.9824 13.457 16.9434 13.457 16.8848 13.3887C15.9961 12.2363 14.4824 11.5039 12.9492 11.5039ZM10 28.7891C12.1973 28.7891 13.877 27.1094 13.877 24.9023L13.877 12.6367L12.0215 12.6367L12.0215 24.9023C12.0215 26.0645 11.1719 26.9043 10 26.9043C8.82812 26.9043 7.99805 26.0645 7.99805 24.9023C7.99805 24.248 7.60742 23.8086 7.03125 23.8086C6.47461 23.8086 6.11328 24.2383 6.11328 24.9023C6.11328 27.1191 7.7832 28.7891 10 28.7891Z" fill="black" fill-opacity="0.85"/>
  <path d="M18.8477 23.7012C20.127 23.7012 20.9473 22.6562 20.9473 21.0254C20.9473 19.3848 20.1172 18.3398 18.8477 18.3398C17.5781 18.3398 16.7676 19.3848 16.7676 21.0254C16.7676 22.6562 17.5684 23.7012 18.8477 23.7012ZM18.8477 22.3633C18.4375 22.3633 18.1934 21.8652 18.1934 21.0254C18.1934 20.1953 18.4473 19.6777 18.8477 19.6777C19.248 19.6777 19.5215 20.1953 19.5215 21.0254C19.5215 21.8652 19.2578 22.3633 18.8477 22.3633ZM18.5059 28.6719C18.8379 28.8672 19.2871 28.7598 19.5215 28.4375L25.4883 19.4336C25.7617 19.043 25.6445 18.5645 25.2832 18.3691C24.9512 18.1836 24.5312 18.2812 24.2871 18.6328L18.291 27.6172C18.0176 28.0176 18.125 28.4668 18.5059 28.6719ZM24.9609 28.7109C26.2305 28.7109 27.0508 27.6465 27.0508 26.0156C27.0508 24.3848 26.2305 23.3301 24.9609 23.3301C23.6816 23.3301 22.8711 24.375 22.8711 26.0156C22.8711 27.6465 23.6816 28.7109 24.9609 28.7109ZM24.9609 27.3535C24.541 27.3535 24.2969 26.8652 24.2969 26.0156C24.2969 25.1855 24.5508 24.6777 24.9609 24.6777C25.3516 24.6777 25.625 25.1953 25.625 26.0156C25.625 26.8652 25.3711 27.3535 24.9609 27.3535Z" fill="black" fill-opacity="0.85"/>
 </g>
</svg>
