<?xml version="1.0" encoding="UTF-8"?>
<!--Generator: Apple Native CoreSVG 326-->
<!DOCTYPE svg
PUBLIC "-//W3C//DTD SVG 1.1//EN"
       "http://www.w3.org/Graphics/SVG/1.1/DTD/svg11.dtd">
<svg version="1.1" xmlns="http://www.w3.org/2000/svg" xmlns:xlink="http://www.w3.org/1999/xlink" viewBox="0 0 25.1562 29.4434">
 <g>
  <rect height="29.4434" opacity="0" width="25.1562" x="0" y="0"/>
  <path d="M11.4746 3.60352L13.3301 3.60352L13.3301 0.927734C13.3301 0.410156 12.9199 0 12.4023 0C11.875 0 11.4746 0.410156 11.4746 0.927734ZM0.898438 15.6836C1.24023 15.6836 1.54297 15.459 1.78711 15.0879C2.64648 13.7891 3.56445 13.2422 4.78516 13.2422C5.99609 13.2422 6.80664 13.7793 7.54883 15.0684C7.80273 15.498 8.04688 15.6836 8.36914 15.6836C8.71094 15.6836 8.94531 15.4883 9.17969 15.0684C9.86328 13.9062 11.1719 13.1836 12.4023 13.1836C13.623 13.1836 14.9316 13.9062 15.6152 15.0684C15.8496 15.4883 16.0938 15.6836 16.4258 15.6836C16.748 15.6836 16.9922 15.498 17.2461 15.0684C17.9883 13.7793 18.8086 13.2422 20.0098 13.2422C21.2305 13.2422 22.1484 13.7891 23.0078 15.0879C23.252 15.459 23.5547 15.6836 23.8965 15.6836C24.4434 15.6836 24.7949 15.2441 24.7949 14.6387C24.7949 9.63867 20.8594 2.76367 12.4023 2.76367C3.93555 2.76367 0 9.63867 0 14.6387C0 15.2441 0.361328 15.6836 0.898438 15.6836ZM12.4023 11.5039C10.8691 11.5039 9.35547 12.2363 8.4668 13.3887C8.4082 13.457 8.35938 13.457 8.32031 13.3887C7.46094 12.168 6.29883 11.5625 4.78516 11.5625C3.19336 11.5625 1.875 12.2363 0.791016 13.6133L1.74805 13.6914C2.23633 8.80859 6.33789 4.44336 12.4023 4.44336C18.4375 4.44336 22.5488 8.7793 23.0469 13.6523L23.9844 13.5742C22.9004 12.2266 21.5918 11.5625 20.0098 11.5625C18.4961 11.5625 17.334 12.168 16.4844 13.3887C16.4355 13.457 16.3867 13.457 16.3379 13.3887C15.4492 12.2363 13.9355 11.5039 12.4023 11.5039ZM9.44336 28.7891C11.6504 28.7891 13.3301 27.1094 13.3301 24.9023L13.3301 12.6367L11.4746 12.6367L11.4746 24.9023C11.4746 26.0645 10.625 26.9043 9.44336 26.9043C8.28125 26.9043 7.44141 26.0645 7.44141 24.9023C7.44141 24.248 7.06055 23.8086 6.48438 23.8086C5.92773 23.8086 5.56641 24.2383 5.56641 24.9023C5.56641 27.1191 7.23633 28.7891 9.44336 28.7891Z" fill="black" fill-opacity="0.85"/>
 </g>
</svg>
