<?xml version="1.0" ?><!-- Generator: Adobe Illustrator 25.0.0, SVG Export Plug-In . SVG Version: 6.00 Build 0)  --><svg xmlns="http://www.w3.org/2000/svg" xmlns:xlink="http://www.w3.org/1999/xlink" version="1.1" id="Layer_1" x="0px" y="0px" viewBox="0 0 512 512" style="enable-background:new 0 0 512 512;" xml:space="preserve">
<path d="M256,512c140,0,256-116.2,256-256C512,116,395.8,0,255.7,0C116,0,0,116,0,256C0,395.8,116.2,512,256,512z M256,469.3  c-118.5,0-213.1-94.9-213.1-213.3S137.3,42.7,255.7,42.7S469.1,137.5,469.3,256S374.5,469.3,256,469.3z M256,373.5  c14.3,0,23.3-7.3,29.6-23.6l70-183.5c1.5-4.3,2-7,2-10.8c0-11-8.5-18.8-20.3-18.8c-11,0-17.1,5-21.3,17.1l-59.5,171.7h-1.8  l-59.5-171.7c-4-12-10.3-17.1-21.3-17.1c-11.8,0-20.3,7.8-20.3,18.8c0,3.8,0.8,6.8,2,10.8l70.5,183.7  C232.7,367.2,240.7,373.5,256,373.5z"/>
</svg>