<?xml version="1.0" ?><!-- Generator: Adobe Illustrator 25.0.0, SVG Export Plug-In . SVG Version: 6.00 Build 0)  --><svg xmlns="http://www.w3.org/2000/svg" xmlns:xlink="http://www.w3.org/1999/xlink" version="1.1" id="Layer_1" x="0px" y="0px" viewBox="0 0 512 512" style="enable-background:new 0 0 512 512;" xml:space="preserve">
<path d="M256,512c140,0,256-116.2,256-256C512,116,395.8,0,255.7,0C116,0,0,116,0,256C0,395.8,116.2,512,256,512z M256,377.2  c-15.8,0-24.1-6.8-30.9-24.3l-72.8-189.5c-1.3-4-2-7-2-10.8c0-11.5,8.8-19.8,21.1-19.8c11.5,0,17.8,5.5,22.1,17.8l61.2,176.9h1.8  l61.2-176.9c4.5-12.3,10.5-17.8,22.1-17.8c12.3,0,21.1,8,21.1,19.8c0,3.8-0.5,6.8-2,10.8l-72.3,189  C280.1,369.4,270.8,377.2,256,377.2z"/>
</svg>