<?xml version="1.0" encoding="UTF-8"?>
<!--Generator: Apple Native CoreSVG 326-->
<!DOCTYPE svg
PUBLIC "-//W3C//DTD SVG 1.1//EN"
       "http://www.w3.org/Graphics/SVG/1.1/DTD/svg11.dtd">
<svg version="1.1" xmlns="http://www.w3.org/2000/svg" xmlns:xlink="http://www.w3.org/1999/xlink" viewBox="0 0 23.3203 22.959">
 <g>
  <rect height="22.959" opacity="0" width="23.3203" x="0" y="0"/>
  <path d="M22.959 3.76953L22.959 19.1992C22.959 21.6797 21.6797 22.959 19.1504 22.959L3.79883 22.959C1.2793 22.959 0 21.6992 0 19.1992L0 3.76953C0 1.26953 1.2793 0 3.79883 0L19.1504 0C21.6797 0 22.959 1.2793 22.959 3.76953ZM14.7656 6.18164L11.5234 15.332L11.4453 15.332L8.20312 6.18164C8.00781 5.63477 7.74414 5.41016 7.25586 5.41016C6.72852 5.41016 6.35742 5.76172 6.35742 6.25C6.35742 6.41602 6.37695 6.55273 6.44531 6.73828L10.1562 16.4258C10.4395 17.168 10.8105 17.4609 11.4941 17.4609C12.1484 17.4609 12.5586 17.1289 12.8223 16.4062L16.5234 6.73828C16.5918 6.55273 16.6113 6.41602 16.6113 6.25C16.6113 5.75195 16.2402 5.41016 15.7129 5.41016C15.2246 5.41016 14.9609 5.64453 14.7656 6.18164Z" fill="black" fill-opacity="0.85"/>
 </g>
</svg>
