<?xml version="1.0" ?><!-- Generator: Adobe Illustrator 25.0.0, SVG Export Plug-In . SVG Version: 6.00 Build 0)  --><svg xmlns="http://www.w3.org/2000/svg" xmlns:xlink="http://www.w3.org/1999/xlink" version="1.1" id="Layer_1" x="0px" y="0px" viewBox="0 0 512 512" style="enable-background:new 0 0 512 512;" xml:space="preserve">
<path d="M87.3,512h337.3c58.4,0,87.3-28.9,87.3-86.2V86.2C512,28.9,483.1,0,424.7,0H87.3C29.2,0,0,28.6,0,86.2v339.6  C0,483.4,29.2,512,87.3,512z M256.4,389.9c-17.5,0-26.7-7.5-34.2-27l-80.7-210c-1.4-4.4-2.2-7.8-2.2-12c0-12.8,10-22,23.4-22  c12.8,0,19.7,6.1,24.5,19.7L255,334.8h1.9l68.1-196.1c4.7-13.6,11.7-19.7,24.5-19.7c13.3,0,23.1,8.9,23.1,22c0,4.2-0.6,7.5-1.9,12  l-80.4,209.4C283.1,381.3,272.8,389.9,256.4,389.9z"/>
</svg>