<?xml version="1.0" encoding="UTF-8"?>
<!--Generator: Apple Native CoreSVG 326-->
<!DOCTYPE svg
PUBLIC "-//W3C//DTD SVG 1.1//EN"
       "http://www.w3.org/Graphics/SVG/1.1/DTD/svg11.dtd">
<svg version="1.1" xmlns="http://www.w3.org/2000/svg" xmlns:xlink="http://www.w3.org/1999/xlink" viewBox="0 0 27.8711 27.2754">
 <g>
  <rect height="27.2754" opacity="0" width="27.8711" x="0" y="0"/>
  <path d="M7.42188 27.2754C7.95898 27.2754 8.33008 26.9922 8.96484 26.4258L13.3691 22.5488L22.002 22.5488C25.5371 22.5488 27.5098 20.5273 27.5098 17.0508L27.5098 7.08984C27.5098 3.60352 25.5371 1.58203 22.002 1.58203L5.50781 1.58203C1.96289 1.58203 0 3.59375 0 7.08984L0 17.0508C0 20.5469 1.96289 22.5488 5.50781 22.5488L6.24023 22.5488L6.24023 25.9082C6.24023 26.7383 6.66992 27.2754 7.42188 27.2754ZM7.85156 25.3125L7.85156 21.6406C7.85156 21.0449 7.62695 20.8203 7.04102 20.8203L5.51758 20.8203C2.99805 20.8203 1.72852 19.4727 1.72852 17.0312L1.72852 7.09961C1.72852 4.6582 2.99805 3.31055 5.51758 3.31055L21.9922 3.31055C24.4824 3.31055 25.7812 4.6582 25.7812 7.09961L25.7812 17.0312C25.7812 19.4727 24.4824 20.8203 21.9922 20.8203L13.3301 20.8203C12.7148 20.8203 12.3926 20.918 11.9629 21.3574Z" fill="black" fill-opacity="0.85"/>
  <path d="M8.54492 17.1094L15.2051 17.1094C16.4648 17.1094 17.1973 16.3867 17.1973 15.1367L17.1973 9.0332C17.1973 7.77344 16.5137 7.06055 15.2539 7.06055L8.54492 7.06055C7.32422 7.06055 6.54297 7.77344 6.54297 9.0332L6.54297 15.1367C6.54297 16.3867 7.28516 17.1094 8.54492 17.1094ZM17.8906 13.8086L20.2832 15.8301C20.5078 16.0059 20.7422 16.1328 20.9668 16.1328C21.416 16.1328 21.7188 15.8008 21.7188 15.293L21.7188 8.85742C21.7188 8.36914 21.416 8.03711 20.9668 8.03711C20.7422 8.03711 20.498 8.16406 20.2832 8.33008L17.8906 10.3516Z" fill="black" fill-opacity="0.85"/>
 </g>
</svg>
