<?xml version="1.0" encoding="UTF-8"?>
<!--Generator: Apple Native CoreSVG 326-->
<!DOCTYPE svg
PUBLIC "-//W3C//DTD SVG 1.1//EN"
       "http://www.w3.org/Graphics/SVG/1.1/DTD/svg11.dtd">
<svg version="1.1" xmlns="http://www.w3.org/2000/svg" xmlns:xlink="http://www.w3.org/1999/xlink" viewBox="0 0 37.0996 16.4746">
 <g>
  <rect height="16.4746" opacity="0" width="37.0996" x="0" y="0"/>
  <path d="M18.3594 14.4141C22.4316 14.4141 25.5762 11.2695 25.5762 7.2168C25.5762 3.14453 22.4316 0 18.3594 0C14.3066 0 11.1523 3.14453 11.1523 7.2168C11.1523 11.2695 14.3066 14.4141 18.3594 14.4141ZM18.3594 12.2754C15.5273 12.2754 13.3008 10.0488 13.3008 7.2168C13.3008 4.375 15.5273 2.13867 18.3594 2.13867C21.2012 2.13867 23.4375 4.375 23.4375 7.2168C23.4375 10.0488 21.2012 12.2754 18.3594 12.2754ZM18.3594 11.2988C20.6641 11.2988 22.4707 9.50195 22.4707 7.2168C22.4707 4.91211 20.6641 3.10547 18.3594 3.10547C16.0645 3.10547 14.2676 4.91211 14.2676 7.2168C14.2676 9.50195 16.0645 11.2988 18.3594 11.2988ZM9.79492 7.2168C9.79492 4.18945 11.2793 1.58203 13.5645 0.0683594L3.70117 0.0683594C1.29883 0.0683594 0 1.33789 0 3.7207L0 10.6738C0 13.0566 1.29883 14.3262 3.70117 14.3262L13.5352 14.3262C11.2598 12.8027 9.79492 10.2051 9.79492 7.2168ZM33.0371 0.0683594L23.1641 0.0683594C25.459 1.58203 26.9434 4.18945 26.9434 7.2168C26.9434 10.2051 25.4688 12.8027 23.1934 14.3262L33.0371 14.3262C35.459 14.3262 36.7383 13.0566 36.7383 10.6738L36.7383 3.7207C36.7383 1.33789 35.459 0.0683594 33.0371 0.0683594ZM29.1699 4.58984C29.1699 4.14062 29.4922 3.81836 29.9316 3.81836L33.1738 3.81836C33.623 3.81836 33.9453 4.14062 33.9453 4.58984C33.9453 5.0293 33.623 5.35156 33.1738 5.35156L29.9316 5.35156C29.4922 5.35156 29.1699 5.0293 29.1699 4.58984ZM29.1699 7.40234C29.1699 6.96289 29.4922 6.64062 29.9316 6.64062L33.1738 6.64062C33.623 6.64062 33.9453 6.96289 33.9453 7.40234C33.9453 7.85156 33.623 8.17383 33.1738 8.17383L29.9316 8.17383C29.4922 8.17383 29.1699 7.85156 29.1699 7.40234ZM9.15039 13.6328L2.80273 13.6328L2.80273 15.4492C2.80273 16.0156 3.17383 16.3867 3.75 16.3867L8.19336 16.3867C8.76953 16.3867 9.15039 16.0156 9.15039 15.4492ZM27.5977 13.6328L27.5977 15.4492C27.5977 16.0156 27.9688 16.3867 28.5449 16.3867L32.998 16.3867C33.5645 16.3867 33.9453 16.0156 33.9453 15.4492L33.9453 13.6328Z" fill="black" fill-opacity="0.85"/>
 </g>
</svg>
