<?xml version="1.0" encoding="UTF-8"?>
<!--Generator: Apple Native CoreSVG 326-->
<!DOCTYPE svg
PUBLIC "-//W3C//DTD SVG 1.1//EN"
       "http://www.w3.org/Graphics/SVG/1.1/DTD/svg11.dtd">
<svg version="1.1" xmlns="http://www.w3.org/2000/svg" xmlns:xlink="http://www.w3.org/1999/xlink" viewBox="0 0 25.8008 25.459">
 <g>
  <rect height="25.459" opacity="0" width="25.8008" x="0" y="0"/>
  <path d="M25.4395 12.7246C25.4395 19.7461 19.7363 25.4395 12.7148 25.4395C5.69336 25.4395 0 19.7461 0 12.7246C0 5.70312 5.69336 0 12.7148 0C19.7363 0 25.4395 5.70312 25.4395 12.7246ZM1.81641 12.7246C1.81641 18.75 6.68945 23.623 12.7148 23.623C18.7402 23.623 23.6133 18.75 23.6133 12.7246C23.6133 6.69922 18.7402 1.82617 12.7148 1.82617C6.68945 1.82617 1.81641 6.69922 1.81641 12.7246Z" fill="black" fill-opacity="0.85"/>
  <path d="M15.4645 17.3785C15.135 17.6304 14.6913 17.7637 14.1504 17.7637L7.49023 17.7637C6.23047 17.7637 5.48828 17.041 5.48828 15.791L5.48828 9.6875C5.48828 8.97047 5.74137 8.43061 6.18519 8.09925ZM20.6641 9.51172L20.6641 15.9473C20.6641 16.4551 20.3613 16.7871 19.9121 16.7871C19.6875 16.7871 19.4531 16.6602 19.2285 16.4844L16.8359 14.4629L16.8359 11.0059L19.2285 8.98438C19.4434 8.81836 19.6875 8.69141 19.9121 8.69141C20.3613 8.69141 20.6641 9.02344 20.6641 9.51172ZM16.1426 9.6875L16.1426 14.2257L9.63714 7.71484L14.1992 7.71484C15.459 7.71484 16.1426 8.42773 16.1426 9.6875Z" fill="black" fill-opacity="0.85"/>
  <path d="M18.2812 18.9941C18.4766 19.1992 18.8086 19.1992 19.0137 18.9941C19.2188 18.7891 19.2188 18.4766 19.0137 18.2617L7.1875 6.43555C6.98242 6.23047 6.65039 6.23047 6.44531 6.43555C6.24023 6.64062 6.25 6.97266 6.44531 7.16797Z" fill="black" fill-opacity="0.85"/>
 </g>
</svg>
