<?xml version="1.0" encoding="UTF-8"?>
<!--Generator: Apple Native CoreSVG 326-->
<!DOCTYPE svg
PUBLIC "-//W3C//DTD SVG 1.1//EN"
       "http://www.w3.org/Graphics/SVG/1.1/DTD/svg11.dtd">
<svg version="1.1" xmlns="http://www.w3.org/2000/svg" xmlns:xlink="http://www.w3.org/1999/xlink" viewBox="0 0 16.416 28.1543">
 <g>
  <rect height="28.1543" opacity="0" width="16.416" x="0" y="0"/>
  <path d="M16.0547 7.64648L16.0547 20.498C16.0547 24.9805 12.7539 28.1348 8.03711 28.1348C3.32031 28.1348 0 24.9805 0 20.498L0 7.64648C0 3.1543 3.32031 0 8.03711 0C12.7539 0 16.0547 3.1543 16.0547 7.64648ZM3.35938 19.8633C3.35938 22.4805 5.41016 24.541 8.03711 24.541C10.6445 24.541 12.6953 22.4805 12.6953 19.8633C12.6953 17.2559 10.6445 15.1953 8.03711 15.1953C5.41016 15.1953 3.35938 17.2559 3.35938 19.8633ZM11.2109 19.8633C11.2109 21.6895 9.84375 23.0566 8.03711 23.0566C6.21094 23.0566 4.84375 21.6895 4.84375 19.8633C4.84375 18.0469 6.21094 16.6699 8.03711 16.6699C9.84375 16.6699 11.2109 18.0469 11.2109 19.8633ZM3.35938 8.21289C3.35938 10.8203 5.41016 12.8809 8.03711 12.8809C10.6445 12.8809 12.6953 10.8203 12.6953 8.21289C12.6953 5.5957 10.6445 3.53516 8.03711 3.53516C5.41016 3.53516 3.35938 5.5957 3.35938 8.21289ZM9.75586 8.21289C9.75586 9.18945 8.99414 9.95117 8.03711 9.95117C7.06055 9.95117 6.28906 9.18945 6.28906 8.21289C6.28906 7.22656 7.06055 6.46484 8.03711 6.46484C8.99414 6.46484 9.75586 7.22656 9.75586 8.21289Z" fill="black" fill-opacity="0.85"/>
 </g>
</svg>
