<?xml version="1.0" ?><!-- Generator: Adobe Illustrator 25.0.0, SVG Export Plug-In . SVG Version: 6.00 Build 0)  --><svg xmlns="http://www.w3.org/2000/svg" xmlns:xlink="http://www.w3.org/1999/xlink" version="1.1" id="Layer_1" x="0px" y="0px" viewBox="0 0 512 512" style="enable-background:new 0 0 512 512;" xml:space="preserve">
<path d="M256,512c140,0,256-116.2,256-256C512,116,395.8,0,255.7,0C116,0,0,116,0,256C0,395.8,116.2,512,256,512z M256,469.3  c-118.5,0-213.1-94.9-213.1-213.3S137.3,42.7,255.7,42.7S469.1,137.5,469.3,256S374.5,469.3,256,469.3z M176.7,131.5  c-31.4,0-47.7,16.1-47.7,47.2v33.1c0,11,7.3,18.3,18.1,18.3c11,0,18.1-7,18.1-18.3v-27.1c0-11.8,5.3-17.1,16.8-17.1h27.9  c11,0,18.3-7.3,18.3-18.1s-7.3-18.1-18.3-18.1H176.7z M331,131.5h-33.1c-11,0-18.3,7.3-18.3,18.1s7.3,18.1,18.3,18.1h27.9  c11.5,0,16.8,5.3,16.8,17.1v27.1c0,11.3,7,18.3,18.1,18.3c10.8,0,18.1-7.3,18.1-18.3v-33.1C378.7,147.6,362.4,131.5,331,131.5z   M176.7,381.2h33.1c11,0,18.3-7.3,18.3-18.1c0-10.8-7.3-18.1-18.3-18.1H182c-11.5,0-16.8-5.3-16.8-17.1v-27.1  c0-11.3-7-18.3-18.1-18.3c-10.8,0-18.1,7.3-18.1,18.3v33.1C129,365.2,145.3,381.2,176.7,381.2z M331,381.2  c31.4,0,47.7-16.1,47.7-47.2v-33.1c0-11-7.3-18.3-18.1-18.3c-11,0-18.1,7-18.1,18.3V328c0,11.8-5.3,17.1-16.8,17.1h-27.9  c-11,0-18.3,7.3-18.3,18.1c0,10.8,7.3,18.1,18.3,18.1H331z"/>
</svg>