<?xml version="1.0" encoding="UTF-8"?>
<!--Generator: Apple Native CoreSVG 326-->
<!DOCTYPE svg
PUBLIC "-//W3C//DTD SVG 1.1//EN"
       "http://www.w3.org/Graphics/SVG/1.1/DTD/svg11.dtd">
<svg version="1.1" xmlns="http://www.w3.org/2000/svg" xmlns:xlink="http://www.w3.org/1999/xlink" viewBox="0 0 29.9512 22.959">
 <g>
  <rect height="22.959" opacity="0" width="29.9512" x="0" y="0"/>
  <path d="M0.869141 7.82227C1.42578 7.82227 1.72852 7.50977 1.72852 6.94336L1.72852 3.85742C1.72852 2.46094 2.4707 1.72852 3.83789 1.72852L6.98242 1.72852C7.53906 1.72852 7.86133 1.42578 7.86133 0.869141C7.86133 0.3125 7.53906 0 6.98242 0L3.79883 0C1.2793 0 0 1.26953 0 3.76953L0 6.94336C0 7.50977 0.3125 7.82227 0.869141 7.82227ZM28.7207 7.82227C29.2871 7.82227 29.5898 7.50977 29.5898 6.94336L29.5898 3.76953C29.5898 1.26953 28.3105 0 25.7812 0L22.6074 0C22.041 0 21.7285 0.3125 21.7285 0.869141C21.7285 1.42578 22.041 1.72852 22.6074 1.72852L25.752 1.72852C27.1094 1.72852 27.8516 2.46094 27.8516 3.85742L27.8516 6.94336C27.8516 7.50977 28.1641 7.82227 28.7207 7.82227ZM0.869141 15.1367C0.302734 15.1367 0 15.459 0 16.0156L0 19.1992C0 21.6992 1.2793 22.959 3.79883 22.959L6.98242 22.959C7.53906 22.959 7.86133 22.6465 7.86133 22.0898C7.86133 21.543 7.53906 21.2305 6.98242 21.2305L3.83789 21.2305C2.4707 21.2305 1.72852 20.5078 1.72852 19.1016L1.72852 16.0156C1.72852 15.459 1.41602 15.1367 0.869141 15.1367ZM28.7207 15.1367C28.1543 15.1367 27.8516 15.459 27.8516 16.0156L27.8516 19.1016C27.8516 20.5078 27.1094 21.2305 25.752 21.2305L22.6074 21.2305C22.041 21.2305 21.7285 21.543 21.7285 22.0898C21.7285 22.6465 22.041 22.959 22.6074 22.959L25.7812 22.959C28.3105 22.959 29.5898 21.6992 29.5898 19.1992L29.5898 16.0156C29.5898 15.459 29.2773 15.1367 28.7207 15.1367Z" fill="black" fill-opacity="0.85"/>
 </g>
</svg>
