<?xml version="1.0" encoding="UTF-8"?>
<!--Generator: Apple Native CoreSVG 326-->
<!DOCTYPE svg
PUBLIC "-//W3C//DTD SVG 1.1//EN"
       "http://www.w3.org/Graphics/SVG/1.1/DTD/svg11.dtd">
<svg version="1.1" xmlns="http://www.w3.org/2000/svg" xmlns:xlink="http://www.w3.org/1999/xlink" viewBox="0 0 25.8008 25.459">
 <g>
  <rect height="25.459" opacity="0" width="25.8008" x="0" y="0"/>
  <path d="M25.4395 12.7246C25.4395 19.7266 19.7266 25.4395 12.7148 25.4395C5.71289 25.4395 0 19.7266 0 12.7246C0 5.71289 5.71289 0 12.7148 0C19.7266 0 25.4395 5.71289 25.4395 12.7246ZM6.25977 15.0195L6.25977 16.7773C6.25977 18.3105 7.07031 19.1113 8.61328 19.1113L10.3809 19.1113C10.8594 19.1113 11.1914 18.7793 11.1914 18.291C11.1914 17.8223 10.8594 17.4902 10.3809 17.4902L8.82812 17.4902C8.18359 17.4902 7.88086 17.1777 7.88086 16.5234L7.88086 15.0195C7.88086 14.5117 7.55859 14.1895 7.07031 14.1895C6.58203 14.1895 6.25977 14.5215 6.25977 15.0195ZM17.3926 15.0195L17.3926 16.5234C17.3926 17.1777 17.0898 17.4902 16.4355 17.4902L14.8926 17.4902C14.4043 17.4902 14.0723 17.8223 14.0723 18.291C14.0723 18.7793 14.4043 19.1113 14.8926 19.1113L16.6504 19.1113C18.2031 19.1113 19.0137 18.3105 19.0137 16.7773L19.0137 15.0195C19.0137 14.5215 18.6816 14.1895 18.1934 14.1895C17.7051 14.1895 17.3926 14.5117 17.3926 15.0195ZM8.61328 6.35742C7.07031 6.35742 6.25977 7.14844 6.25977 8.68164L6.25977 10.4395C6.25977 10.9375 6.58203 11.2695 7.07031 11.2695C7.55859 11.2695 7.88086 10.9473 7.88086 10.4395L7.88086 8.93555C7.88086 8.28125 8.18359 7.97852 8.82812 7.97852L10.3809 7.97852C10.8594 7.97852 11.1914 7.63672 11.1914 7.16797C11.1914 6.67969 10.8594 6.35742 10.3809 6.35742ZM14.8926 6.35742C14.4043 6.35742 14.0723 6.67969 14.0723 7.16797C14.0723 7.63672 14.4043 7.97852 14.8926 7.97852L16.4355 7.97852C17.0898 7.97852 17.3926 8.28125 17.3926 8.93555L17.3926 10.4395C17.3926 10.9473 17.7051 11.2695 18.1934 11.2695C18.6816 11.2695 19.0137 10.9375 19.0137 10.4395L19.0137 8.68164C19.0137 7.14844 18.2031 6.35742 16.6504 6.35742Z" fill="black" fill-opacity="0.85"/>
 </g>
</svg>
