<?xml version="1.0" ?><!-- Generator: Adobe Illustrator 25.0.0, SVG Export Plug-In . SVG Version: 6.00 Build 0)  --><svg xmlns="http://www.w3.org/2000/svg" xmlns:xlink="http://www.w3.org/1999/xlink" version="1.1" id="Layer_1" x="0px" y="0px" viewBox="0 0 512 512" style="enable-background:new 0 0 512 512;" xml:space="preserve">
<path d="M109.3,415.2c65.9,0,113.2-38.5,113.2-91c0-42.6-30.6-70.6-79.6-73.8v-0.9c40.9-6.9,66.3-34.2,66.3-72.5  c0-46.5-42.2-80.1-100.9-80.1c-44.3,0-80.1,19.4-95.3,51.4c-4.1,8-5.8,15.3-5.8,23.7c0,10.1,6.9,16.8,16.8,16.8  c9.7,0,14.2-3.7,17.2-13.8c9.5-28.2,33.1-44.3,65.9-44.3c38.5,0,63.3,20.2,63.3,51.4c0,32.1-26.5,53.4-65,53.4H81.6  c-10.1,0-17,6.2-17,16.1c0,9.7,6.9,16.1,17,16.1h24.1c47.8,0,76.2,20.2,76.2,56.2c0,33.1-29.7,56.6-72.3,56.6  c-37,0-63.7-16.6-73.4-45c-3.4-9.3-8.6-13.3-17.9-13.3c-11,0-18.3,6.9-18.3,18.1c0,7.5,1.9,14.4,6,22  C23.9,396.2,61.3,415.2,109.3,415.2z M283.9,409.8h85.2c86.5,0,142.9-61.8,142.9-154.5c0-92.1-56.4-153.2-142.9-153.2h-85.2  c-11.8,0-19.6,7.7-19.6,19.8v267.9C264.3,402,272,409.8,283.9,409.8z M303.5,374.5V136.9h62.8c64.3,0,105.9,47.3,105.9,118.6  c0,71.5-41.5,119-105.9,119H303.5z"/>
</svg>