<?xml version="1.0" encoding="UTF-8"?>
<!--Generator: Apple Native CoreSVG 326-->
<!DOCTYPE svg
PUBLIC "-//W3C//DTD SVG 1.1//EN"
       "http://www.w3.org/Graphics/SVG/1.1/DTD/svg11.dtd">
<svg version="1.1" xmlns="http://www.w3.org/2000/svg" xmlns:xlink="http://www.w3.org/1999/xlink" viewBox="0 0 25.8008 25.459">
 <g>
  <rect height="25.459" opacity="0" width="25.8008" x="0" y="0"/>
  <path d="M25.4395 12.7246C25.4395 19.7266 19.7266 25.4395 12.7148 25.4395C5.71289 25.4395 0 19.7266 0 12.7246C0 5.71289 5.71289 0 12.7148 0C19.7266 0 25.4395 5.71289 25.4395 12.7246ZM6.2793 6.2793C6.07422 6.49414 6.08398 6.83594 6.2793 7.03125L18.4082 19.1602C18.6035 19.3555 18.9551 19.3652 19.1602 19.1602C19.3652 18.9355 19.3652 18.6133 19.1602 18.4082L7.04102 6.2793C6.83594 6.07422 6.50391 6.07422 6.2793 6.2793ZM3.91602 12.6855C3.91602 15.4492 5.6543 17.5879 8.01758 17.5879C10.4102 17.5879 11.6211 15.6055 12.7148 15.6055C13.2999 15.6055 13.9186 16.1728 14.7371 16.7L12.4123 14.3752C10.7409 14.5687 9.87135 16.3281 8.01758 16.3281C6.25977 16.3281 5.15625 14.9805 5.15625 12.6855C5.15625 10.8515 5.97172 9.89644 7.44615 9.40904L6.49906 8.46195C4.90817 9.15604 3.91602 10.4174 3.91602 12.6855ZM9.72132 7.74867L10.897 8.92433C11.4648 8.90292 12.0729 8.89648 12.7148 8.89648C17.3926 8.89648 20.2734 9.23828 20.2734 12.6855C20.2734 14.6181 19.4909 15.8789 18.1978 16.2251L19.1372 17.1646C20.5769 16.4144 21.5234 14.7192 21.5234 12.6855C21.5234 8.13477 17.5195 7.63672 12.7148 7.63672C11.6659 7.63672 10.6555 7.66046 9.72132 7.74867Z" fill="black" fill-opacity="0.85"/>
 </g>
</svg>
