<?xml version="1.0" encoding="UTF-8"?>
<!--Generator: Apple Native CoreSVG 326-->
<!DOCTYPE svg
PUBLIC "-//W3C//DTD SVG 1.1//EN"
       "http://www.w3.org/Graphics/SVG/1.1/DTD/svg11.dtd">
<svg version="1.1" xmlns="http://www.w3.org/2000/svg" xmlns:xlink="http://www.w3.org/1999/xlink" viewBox="0 0 25.8008 25.459">
 <g>
  <rect height="25.459" opacity="0" width="25.8008" x="0" y="0"/>
  <path d="M25.4395 12.7246C25.4395 19.7461 19.7363 25.4395 12.7148 25.4395C5.69336 25.4395 0 19.7461 0 12.7246C0 5.70312 5.69336 0 12.7148 0C19.7363 0 25.4395 5.70312 25.4395 12.7246ZM1.81641 12.7246C1.81641 18.75 6.68945 23.623 12.7148 23.623C18.7402 23.623 23.6133 18.75 23.6133 12.7246C23.6133 6.69922 18.7402 1.82617 12.7148 1.82617C6.68945 1.82617 1.81641 6.69922 1.81641 12.7246Z" fill="black" fill-opacity="0.85"/>
  <path d="M7.5643 9.47836C6.12191 9.95656 5.32227 10.8922 5.32227 12.6855C5.32227 14.9316 6.39648 16.25 8.11523 16.25C9.93003 16.25 10.7879 14.5205 12.43 14.3441L14.7017 16.6158C13.8938 16.0984 13.2838 15.5371 12.7051 15.5371C11.6309 15.5371 10.4492 17.4707 8.11523 17.4707C5.82031 17.4707 4.11133 15.3809 4.11133 12.6855C4.11133 10.4663 5.08332 9.23365 6.64186 8.55592ZM21.2988 12.6855C21.2988 14.6703 20.3774 16.3268 18.9734 17.0588L18.0644 16.1491C19.3293 15.81 20.0977 14.5766 20.0977 12.6855C20.0977 9.31641 17.2754 8.97461 12.7051 8.97461C12.0761 8.97461 11.4802 8.98111 10.9238 9.00259L9.78512 7.86295C10.6962 7.77709 11.6816 7.75391 12.7051 7.75391C17.4023 7.75391 21.2988 8.24219 21.2988 12.6855Z" fill="black" fill-opacity="0.85"/>
  <path d="M18.2812 18.9941C18.4766 19.1992 18.8086 19.1992 19.0137 18.9941C19.2188 18.7891 19.2188 18.4766 19.0137 18.2617L7.1875 6.43555C6.98242 6.23047 6.65039 6.23047 6.44531 6.43555C6.24023 6.64062 6.25 6.97266 6.44531 7.16797Z" fill="black" fill-opacity="0.85"/>
 </g>
</svg>
