<?xml version="1.0" encoding="UTF-8"?>
<!--Generator: Apple Native CoreSVG 326-->
<!DOCTYPE svg
PUBLIC "-//W3C//DTD SVG 1.1//EN"
       "http://www.w3.org/Graphics/SVG/1.1/DTD/svg11.dtd">
<svg version="1.1" xmlns="http://www.w3.org/2000/svg" xmlns:xlink="http://www.w3.org/1999/xlink" viewBox="0 0 25.8008 25.459">
 <g>
  <rect height="25.459" opacity="0" width="25.8008" x="0" y="0"/>
  <path d="M25.4395 12.7246C25.4395 19.7266 19.7266 25.4395 12.7148 25.4395C5.71289 25.4395 0 19.7266 0 12.7246C0 5.71289 5.71289 0 12.7148 0C19.7266 0 25.4395 5.71289 25.4395 12.7246ZM3.91602 12.6855C3.91602 15.4492 5.6543 17.5879 8.01758 17.5879C10.4102 17.5879 11.6211 15.6055 12.7148 15.6055C13.8086 15.6055 15.0195 17.5879 17.4219 17.5879C19.7754 17.5879 21.5234 15.4492 21.5234 12.6855C21.5234 8.13477 17.5195 7.63672 12.7148 7.63672C7.91016 7.63672 3.91602 8.13477 3.91602 12.6855ZM20.2734 12.6855C20.2734 14.9805 19.1699 16.3281 17.4219 16.3281C15.459 16.3281 14.5898 14.3555 12.7148 14.3555C10.8398 14.3555 9.98047 16.3281 8.01758 16.3281C6.25977 16.3281 5.15625 14.9805 5.15625 12.6855C5.15625 9.23828 8.03711 8.89648 12.7148 8.89648C17.3926 8.89648 20.2734 9.23828 20.2734 12.6855Z" fill="black" fill-opacity="0.85"/>
 </g>
</svg>
