<?xml version="1.0" encoding="UTF-8"?>
<!--Generator: Apple Native CoreSVG 326-->
<!DOCTYPE svg
PUBLIC "-//W3C//DTD SVG 1.1//EN"
       "http://www.w3.org/Graphics/SVG/1.1/DTD/svg11.dtd">
<svg version="1.1" xmlns="http://www.w3.org/2000/svg" xmlns:xlink="http://www.w3.org/1999/xlink" viewBox="0 0 38.4082 28.8574">
 <g>
  <rect height="28.8574" opacity="0" width="38.4082" x="0" y="0"/>
  <path d="M31.748 14.4238C31.748 21.4453 26.0449 27.1387 19.0234 27.1387C17.1862 27.1387 15.44 26.7489 13.8673 26.0395C14.2669 25.5736 14.6106 25.0594 14.8846 24.5054C16.1587 25.0336 17.5569 25.3223 19.0234 25.3223C25.0488 25.3223 29.9219 20.4492 29.9219 14.4238C29.9219 8.39844 25.0488 3.52539 19.0234 3.52539C13.4358 3.52539 8.83923 7.71602 8.20801 13.1325C8.09788 13.1177 7.98475 13.1152 7.87109 13.1152C7.35704 13.1152 6.85379 13.1657 6.36711 13.265C6.94707 6.7846 12.3931 1.69922 19.0234 1.69922C26.0449 1.69922 31.748 7.40234 31.748 14.4238ZM25.5859 10.3125C25.5859 10.6543 25.3809 10.9375 25.0488 11.0254C24.6484 11.1621 21.7578 11.4844 21.3965 11.5527C21.0352 11.6309 20.8203 11.9238 20.8203 12.3633C20.8203 13.0273 20.8203 15.127 20.9668 16.0938C21.1133 17.041 22.2363 21.6309 22.2754 21.8262C22.4023 22.3145 22.1191 22.7539 21.6211 22.7539C21.2695 22.7539 21.0156 22.5586 20.8887 22.0898C20.6641 21.1523 19.8535 17.9785 19.6289 17.2168C19.4531 16.6699 19.3164 16.4648 19.0137 16.4648C18.7012 16.4648 18.5645 16.6699 18.4082 17.2168C18.1445 17.9883 17.3535 21.1621 17.1289 22.0898C17.002 22.5586 16.748 22.7539 16.3965 22.7539C15.9082 22.7539 15.6055 22.3145 15.7422 21.8262C15.791 21.6309 16.8945 17.041 17.0508 16.0938C17.2168 15.127 17.2168 13.0273 17.2168 12.3633C17.1973 11.9238 16.9824 11.6211 16.6211 11.5527C16.2598 11.4844 13.3691 11.1426 12.9688 11.0254C12.6367 10.9473 12.4316 10.6543 12.4316 10.3125C12.4316 9.85352 12.7539 9.58984 13.0762 9.58984C13.1934 9.58984 13.3105 9.61914 13.418 9.63867C14.6484 9.82422 17.2168 10.127 19.0137 10.127C20.8203 10.127 23.3691 9.82422 24.5996 9.63867C24.707 9.61914 24.8242 9.58984 24.9414 9.58984C25.2441 9.58984 25.5859 9.85352 25.5859 10.3125ZM20.6543 7.64648C20.6543 8.54492 19.9219 9.29688 19.0137 9.29688C18.0957 9.29688 17.3633 8.54492 17.3633 7.64648C17.3633 6.72852 18.0957 5.99609 19.0137 5.99609C19.9219 5.99609 20.6543 6.72852 20.6543 7.64648Z" fill="black" fill-opacity="0.85"/>
  <path d="M14.1895 20.9863C14.1895 24.4434 11.2988 27.3047 7.87109 27.3047C4.41406 27.3047 1.55273 24.4629 1.55273 20.9863C1.55273 17.5293 4.41406 14.668 7.87109 14.668C11.3379 14.668 14.1895 17.5195 14.1895 20.9863ZM7.34375 18.2715L5.9082 19.6484C5.87891 19.6777 5.84961 19.6875 5.81055 19.6875L4.84375 19.6875C4.43359 19.6875 4.19922 19.9219 4.19922 20.3613L4.19922 21.6016C4.19922 22.041 4.43359 22.2754 4.84375 22.2754L5.81055 22.2754C5.84961 22.2754 5.88867 22.2852 5.9082 22.3145L7.34375 23.6816C7.48047 23.7988 7.59766 23.8574 7.74414 23.8574C7.93945 23.8574 8.07617 23.7109 8.07617 23.5156L8.07617 18.4277C8.07617 18.2324 7.93945 18.0859 7.74414 18.0859C7.59766 18.0859 7.48047 18.1445 7.34375 18.2715ZM10.4785 18.6133C10.3027 18.7305 10.2637 18.9551 10.4004 19.1406C10.752 19.668 10.9375 20.3125 10.9375 20.9766C10.9375 21.6699 10.752 22.3047 10.4004 22.8027C10.2832 22.9688 10.3027 23.2031 10.4688 23.3398C10.6348 23.4473 10.8594 23.4082 10.9961 23.2422C11.4355 22.6367 11.6797 21.8262 11.6797 20.9766C11.6797 20.1074 11.4355 19.3066 10.9863 18.7012C10.8496 18.5352 10.6445 18.5059 10.4785 18.6133ZM9.20898 19.4629C9.02344 19.5801 8.99414 19.8535 9.14062 20.0195C9.30664 20.2637 9.4043 20.6152 9.4043 20.9766C9.4043 21.3379 9.30664 21.6699 9.13086 21.9336C8.99414 22.1094 9.02344 22.334 9.18945 22.4609C9.3457 22.5879 9.58008 22.5586 9.7168 22.3828C9.99023 22.0117 10.1562 21.4941 10.1562 20.9766C10.1562 20.4688 10 19.9512 9.73633 19.5801C9.60938 19.3945 9.375 19.3555 9.20898 19.4629Z" fill="black" fill-opacity="0.85"/>
 </g>
</svg>
