<?xml version="1.0" ?><!-- Generator: Adobe Illustrator 25.0.0, SVG Export Plug-In . SVG Version: 6.00 Build 0)  --><svg xmlns="http://www.w3.org/2000/svg" xmlns:xlink="http://www.w3.org/1999/xlink" version="1.1" id="Layer_1" x="0px" y="0px" viewBox="0 0 512 512" style="enable-background:new 0 0 512 512;" xml:space="preserve">
<path d="M256,512c140,0,256-116.2,256-256C512,116,395.8,0,255.7,0C116,0,0,116,0,256C0,395.8,116.2,512,256,512z M256,469.3  c-118.5,0-213.1-94.9-213.1-213.3S137.3,42.7,255.7,42.7S469.1,137.5,469.3,256S374.5,469.3,256,469.3z M188.2,373.5  c13.6,0,22.6-6.5,25.6-19.1l40.7-158.6h1.8l40.9,158.6c3,12.5,12,19.1,25.3,19.1c13.3,0,21.8-6.8,25.1-19.8l49.7-190.5  c1-2.8,1.3-5,1.3-7.5c0-11-7.8-18.8-19.3-18.8c-11.8,0-17.3,5.5-20.6,19.8l-37.4,159.6h-1.8l-42.2-162.6c-3-11-10-16.6-21.8-16.6  c-11.8,0-19.3,5.5-22.1,16.6l-41.9,162.6h-1.8l-37.4-159.6c-3.3-14.3-8.5-19.8-20.3-19.8c-11.8,0-19.3,7.8-19.3,18.8  c0,2.5,0.3,4.8,1,7.5l49.7,190.5C166.7,366.7,175.2,373.5,188.2,373.5z"/>
</svg>