<?xml version="1.0" encoding="UTF-8"?>
<!--Generator: Apple Native CoreSVG 326-->
<!DOCTYPE svg
PUBLIC "-//W3C//DTD SVG 1.1//EN"
       "http://www.w3.org/Graphics/SVG/1.1/DTD/svg11.dtd">
<svg version="1.1" xmlns="http://www.w3.org/2000/svg" xmlns:xlink="http://www.w3.org/1999/xlink" viewBox="0 0 25.8008 25.459">
 <g>
  <rect height="25.459" opacity="0" width="25.8008" x="0" y="0"/>
  <path d="M25.4395 12.7246C25.4395 19.7266 19.7266 25.4395 12.7148 25.4395C5.71289 25.4395 0 19.7266 0 12.7246C0 5.71289 5.71289 0 12.7148 0C19.7266 0 25.4395 5.71289 25.4395 12.7246ZM18.125 7.53906L16.0645 16.1621L15.9766 16.1621L13.6914 7.44141C13.5547 6.94336 13.2422 6.69922 12.7051 6.69922C12.168 6.69922 11.8359 6.94336 11.709 7.44141L9.42383 16.1621L9.3457 16.1621L7.29492 7.53906C7.14844 6.9043 6.9043 6.66016 6.38672 6.66016C5.86914 6.66016 5.53711 7.00195 5.53711 7.5C5.53711 7.60742 5.54688 7.71484 5.57617 7.8418L8.1543 17.8027C8.30078 18.3984 8.69141 18.7109 9.28711 18.7109C9.90234 18.7109 10.3125 18.4082 10.4492 17.832L12.6562 9.32617L12.7441 9.32617L14.9512 17.832C15.0879 18.4082 15.498 18.7109 16.1035 18.7109C16.7188 18.7109 17.0996 18.3984 17.2559 17.8027L19.834 7.8418C19.873 7.71484 19.8828 7.60742 19.8828 7.5C19.8828 7.00195 19.541 6.66016 19.0234 6.66016C18.5059 6.66016 18.2617 6.9043 18.125 7.53906Z" fill="black" fill-opacity="0.85"/>
 </g>
</svg>
