<?xml version="1.0" ?><!-- Generator: Adobe Illustrator 25.0.0, SVG Export Plug-In . SVG Version: 6.00 Build 0)  --><svg xmlns="http://www.w3.org/2000/svg" xmlns:xlink="http://www.w3.org/1999/xlink" version="1.1" id="Layer_1" x="0px" y="0px" viewBox="0 0 512 512" style="enable-background:new 0 0 512 512;" xml:space="preserve">
<path d="M87.3,512h337.3c58.4,0,87.3-28.9,87.3-86.2V86.2C512,28.9,483.1,0,424.7,0H87.3C29.2,0,0,28.6,0,86.2v339.6  C0,483.4,29.2,512,87.3,512z M87.9,467.2c-27.8,0-43.1-14.7-43.1-43.7V88.4c0-28.9,15.3-43.7,43.1-43.7h336.2  c27.5,0,43.1,14.7,43.1,43.7v335.1c0,28.9-15.6,43.7-43.1,43.7H87.9z M181.6,385.7c14.7,0,24.8-7.5,28.1-21.4l45.1-175.5h2.2  L302,364.3c3.3,13.9,13.3,21.4,28.1,21.4c14.7,0,24.2-7.8,27.8-22l55.3-211.1c0.8-3.1,1.1-5.8,1.1-8.3c0-12.5-8.3-21.1-21.4-21.1  c-13.1,0-19.2,6.1-22.5,22l-41.7,176.9h-1.9l-46.7-179.9c-3.3-12.5-11.1-18.4-24.2-18.4c-13.1,0-21.1,5.8-24.2,18.4l-46.7,179.9H183  l-41.4-176.9c-3.3-15.9-9.5-22-22.5-22c-13.1,0-21.4,8.6-21.4,21.1c0,2.5,0.3,5.3,1.1,8.3l55.1,211.1  C157.4,378,166.9,385.7,181.6,385.7z"/>
</svg>