<?xml version="1.0" encoding="UTF-8"?>
<!--Generator: Apple Native CoreSVG 326-->
<!DOCTYPE svg
PUBLIC "-//W3C//DTD SVG 1.1//EN"
       "http://www.w3.org/Graphics/SVG/1.1/DTD/svg11.dtd">
<svg version="1.1" xmlns="http://www.w3.org/2000/svg" xmlns:xlink="http://www.w3.org/1999/xlink" viewBox="0 0 25.8008 25.459">
 <g>
  <rect height="25.459" opacity="0" width="25.8008" x="0" y="0"/>
  <path d="M25.4395 12.7344C25.4395 19.7461 19.7266 25.459 12.7148 25.459C5.71289 25.459 0 19.7461 0 12.7344C0 5.73242 5.71289 0.0195312 12.7148 0.0195312C19.7266 0.0195312 25.4395 5.73242 25.4395 12.7344ZM4.81445 12.7344C4.81445 17.0996 8.35938 20.6445 12.7246 20.6445C17.0898 20.6445 20.6348 17.0996 20.6348 12.7344C20.6348 8.36914 17.0898 4.83398 12.7246 4.83398C8.35938 4.83398 4.81445 8.36914 4.81445 12.7344ZM19.0332 12.7344C19.0332 16.2109 16.2109 19.0332 12.7344 19.0332C9.25781 19.0332 6.44531 16.2109 6.44531 12.7344C6.44531 11.9336 6.5918 11.1719 6.86523 10.4688L18.6035 10.4688C18.877 11.1719 19.0332 11.9336 19.0332 12.7344ZM17.7637 8.97461L7.70508 8.97461C8.84766 7.44141 10.6738 6.44531 12.7344 6.44531C14.7949 6.44531 16.6309 7.44141 17.7637 8.97461Z" fill="black" fill-opacity="0.85"/>
 </g>
</svg>
