<?xml version="1.0" ?><!-- Generator: Adobe Illustrator 25.0.0, SVG Export Plug-In . SVG Version: 6.00 Build 0)  --><svg xmlns="http://www.w3.org/2000/svg" xmlns:xlink="http://www.w3.org/1999/xlink" version="1.1" id="Layer_1" x="0px" y="0px" viewBox="0 0 512 512" style="enable-background:new 0 0 512 512;" xml:space="preserve">
<path d="M256,512c140,0,256-116.2,256-256C512,116,395.8,0,255.7,0C116,0,0,116,0,256C0,395.8,116.2,512,256,512z M255.7,42.7  c75.3,0,141.3,38.4,179.2,96.9H77.1C114.7,81.1,180.5,42.7,255.7,42.7z M256,469.3c-118.5,0-213.1-94.9-213.1-213.3  c0-27.9,5.3-54.2,14.6-78.6h397c9.5,24.3,14.8,50.7,14.8,78.6C469.6,374.5,374.5,469.3,256,469.3z"/>
</svg>