<?xml version="1.0" ?><!-- Generator: Adobe Illustrator 25.0.0, SVG Export Plug-In . SVG Version: 6.00 Build 0)  --><svg xmlns="http://www.w3.org/2000/svg" xmlns:xlink="http://www.w3.org/1999/xlink" version="1.1" id="Layer_1" x="0px" y="0px" viewBox="0 0 512 512" style="enable-background:new 0 0 512 512;" xml:space="preserve">
<path d="M256,512c35,0,67.9-6.7,98.8-20.1c30.9-13.4,58.1-31.9,81.7-55.5c23.6-23.6,42.1-50.8,55.5-81.7  C505.3,323.9,512,291,512,256s-6.7-67.9-20.1-98.8c-13.4-30.9-31.9-58.1-55.5-81.7c-23.6-23.6-50.9-42.1-81.8-55.5  C323.7,6.7,290.7,0,255.7,0S187.9,6.7,157,20.1C126.1,33.5,98.9,52,75.4,75.5c-23.5,23.6-42,50.8-55.3,81.7C6.7,188.1,0,221,0,256  s6.7,67.9,20.1,98.8c13.4,30.9,31.9,58.1,55.5,81.7c23.6,23.6,50.8,42.1,81.7,55.5C188.1,505.3,221,512,256,512z M256,469.3  c-29.6,0-57.3-5.5-83.1-16.6c-25.8-11-48.4-26.3-67.9-45.8c-19.5-19.5-34.7-42.1-45.7-67.9c-11-25.8-16.4-53.5-16.4-83.1  c0-29.6,5.5-57.3,16.4-83.1c11-25.8,26.1-48.4,45.6-68s42-34.8,67.8-45.8c25.8-11,53.5-16.4,83.1-16.4c29.6,0,57.3,5.5,83.1,16.4  c25.8,11,48.4,26.2,68,45.8c19.6,19.6,34.9,42.2,45.9,68c11,25.8,16.6,53.5,16.6,83.1c0,29.6-5.5,57.3-16.4,83.1  c-11,25.8-26.2,48.4-45.7,67.9c-19.5,19.5-42.2,34.8-68,45.8C313.3,463.8,285.6,469.3,256,469.3z" class="hierarchical-0:secondary SFSymbolsPreview4D4D4D" style="fill: #4D4D4D;"/>
<path d="M101.1,256c0,21.1,4.1,41,12.2,59.7c8.1,18.7,19.3,35.2,33.5,49.4c14.2,14.2,30.7,25.4,49.3,33.5  c18.7,8.1,38.5,12.2,59.6,12.2c21.2,0,41.2-4.1,59.9-12.2c18.7-8.1,35.1-19.3,49.4-33.5c14.3-14.2,25.5-30.7,33.6-49.4  c8.1-18.7,12.2-38.7,12.2-59.7c0-21.2-4-41.2-12-59.9c-8-18.7-19.2-35.1-33.5-49.4c-14.3-14.3-30.8-25.5-49.4-33.5  c-18.7-8-38.6-12-59.9-12c-21.1,0-41,4-59.7,12c-18.7,8-35.2,19.2-49.4,33.5c-14.2,14.3-25.4,30.8-33.5,49.4  C105.2,214.8,101.1,234.8,101.1,256z M137.3,256c0-7,0.6-13.9,1.9-20.7c1.3-6.8,3.1-13.3,5.4-19.7h223.4c2.3,6.4,4.1,12.9,5.3,19.7  c1.2,6.8,1.8,13.7,1.8,20.7c0,16.6-3.1,32-9.3,46.4c-6.2,14.4-14.7,27-25.6,37.9c-10.9,10.9-23.5,19.4-37.9,25.5  c-14.4,6.1-29.9,9.2-46.4,9.2c-16.4,0-31.8-3.1-46.2-9.2c-14.4-6.1-27-14.6-37.8-25.5c-10.8-10.9-19.2-23.5-25.3-37.9  C140.3,288,137.3,272.6,137.3,256z M162.9,182.5c10.7-13.9,24.1-24.9,40.3-33.1c16.1-8.2,33.8-12.3,52.8-12.3  c19.1,0,36.7,4.1,53,12.3c16.2,8.2,29.8,19.2,40.7,33.1H162.9z" class="hierarchical-1:primary SFSymbolsPreview212121" style="fill: #212121;"/>
</svg>