<?xml version="1.0" encoding="UTF-8"?>
<!--Generator: Apple Native CoreSVG 326-->
<!DOCTYPE svg
PUBLIC "-//W3C//DTD SVG 1.1//EN"
       "http://www.w3.org/Graphics/SVG/1.1/DTD/svg11.dtd">
<svg version="1.1" xmlns="http://www.w3.org/2000/svg" xmlns:xlink="http://www.w3.org/1999/xlink" viewBox="0 0 21.3281 26.9238">
 <g>
  <rect height="26.9238" opacity="0" width="21.3281" x="0" y="0"/>
  <path d="M3.75977 26.9238L17.207 26.9238C19.6875 26.9238 20.9668 25.6348 20.9668 23.125L20.9668 3.80859C20.9668 1.2793 19.707 0.00976562 17.207 0.00976562L13.4668 0.00976562C13.0957 0.00976562 12.8613 0.263672 12.8613 0.654297C12.8613 2.01172 11.8945 2.99805 10.4883 2.99805C9.07227 2.99805 8.0957 2.01172 8.0957 0.654297C8.0957 0.263672 7.86133 0.00976562 7.49023 0.00976562L3.75977 0.00976562C1.25977 0.00976562 0 1.2793 0 3.80859L0 23.125C0 25.6348 1.2793 26.9238 3.75977 26.9238ZM3.85742 25.1953C2.45117 25.1953 1.72852 24.4238 1.72852 23.0859L1.72852 3.84766C1.72852 2.48047 2.45117 1.73828 3.85742 1.73828L7.46094 1.73828L6.44531 1.11328C6.65039 3.27148 8.24219 4.67773 10.4883 4.67773C12.7246 4.67773 14.3164 3.27148 14.5215 1.11328L13.5059 1.73828L17.1094 1.73828C18.5156 1.73828 19.2383 2.48047 19.2383 3.84766L19.2383 23.0859C19.2383 24.4238 18.5156 25.1953 17.1094 25.1953ZM5.60547 9.13086L15.3809 9.13086C15.7617 9.13086 16.0547 8.82812 16.0547 8.4375C16.0547 8.05664 15.7617 7.76367 15.3809 7.76367L5.60547 7.76367C5.20508 7.76367 4.91211 8.05664 4.91211 8.4375C4.91211 8.82812 5.20508 9.13086 5.60547 9.13086ZM5.60547 13.6816L10.2832 13.6816C10.6738 13.6816 10.9668 13.3887 10.9668 13.0078C10.9668 12.627 10.6738 12.3242 10.2832 12.3242L5.60547 12.3242C5.20508 12.3242 4.91211 12.627 4.91211 13.0078C4.91211 13.3887 5.20508 13.6816 5.60547 13.6816Z" fill="black" fill-opacity="0.85"/>
 </g>
</svg>
