<?xml version="1.0" ?><!-- Generator: Adobe Illustrator 25.0.0, SVG Export Plug-In . SVG Version: 6.00 Build 0)  --><svg xmlns="http://www.w3.org/2000/svg" xmlns:xlink="http://www.w3.org/1999/xlink" version="1.1" id="Layer_1" x="0px" y="0px" viewBox="0 0 512 512" style="enable-background:new 0 0 512 512;" xml:space="preserve">
<path d="M129.2,512h253.6c49.2,0,74-25.1,74-74.7V75c0-49.9-24.6-75-74-75h-70.9c-8.1,0-13.4,5.7-13.4,14.3  c0,24.8-17.2,42.3-42.5,42.3s-42.7-17.4-42.7-42.3C213.3,5.7,208,0,199.9,0h-70.7c-49.4,0-74,25.1-74,75v362.3  C55.2,486.9,80,512,129.2,512z M131.1,473.6c-24.8,0-37.5-13.4-37.5-37V75.7c0-23.9,12.7-37.3,37.5-37.3h48.2  c9.1,34.1,38,55.4,76.7,55.4c38.7,0,67.6-21.3,76.7-55.4h48.2c24.8,0,37.5,13.4,37.5,37.3v360.8c0,23.6-12.7,37-37.5,37H131.1z   M165.5,177.9h181.3c8.4,0,14.6-6.4,14.6-15c0-8.1-6.2-14.6-14.6-14.6H165.5c-8.6,0-14.8,6.4-14.8,14.6  C150.7,171.5,156.9,177.9,165.5,177.9z M165.5,262.7h85.7c8.6,0,14.8-6.4,14.8-14.6c0-8.4-6.2-14.8-14.8-14.8h-85.7  c-8.6,0-14.8,6.4-14.8,14.8C150.7,256.2,156.9,262.7,165.5,262.7z"/>
</svg>