<?xml version="1.0" ?><!-- Generator: Adobe Illustrator 25.0.0, SVG Export Plug-In . SVG Version: 6.00 Build 0)  --><svg xmlns="http://www.w3.org/2000/svg" xmlns:xlink="http://www.w3.org/1999/xlink" version="1.1" id="Layer_1" x="0px" y="0px" viewBox="0 0 512 512" style="enable-background:new 0 0 512 512;" xml:space="preserve">
<path d="M129.2,512h253.6c49.2,0,74-25.1,74-74.7V75c0-49.9-24.6-75-74-75h-60.7c-8.1,0-13.6,5.7-13.6,14.3v3.3  c0,31-21,49.7-52.5,49.7s-52.5-18.6-52.5-49.7v-3.3C203.5,5.7,198,0,189.9,0h-60.7c-49.4,0-74,25.1-74,75v362.3  C55.2,486.9,80,512,129.2,512z M165.5,177.9c-8.6,0-14.8-6.4-14.8-15c0-8.1,6.2-14.6,14.8-14.6h181.3c8.4,0,14.6,6.4,14.6,14.6  c0,8.6-6.2,15-14.6,15H165.5z M165.5,262.7c-8.6,0-14.8-6.4-14.8-14.6c0-8.4,6.2-14.8,14.8-14.8h85.7c8.6,0,14.8,6.4,14.8,14.8  c0,8.1-6.2,14.6-14.8,14.6H165.5z"/>
</svg>