<?xml version="1.0" ?><!-- Generator: Adobe Illustrator 25.0.0, SVG Export Plug-In . SVG Version: 6.00 Build 0)  --><svg xmlns="http://www.w3.org/2000/svg" xmlns:xlink="http://www.w3.org/1999/xlink" version="1.1" id="Layer_1" x="0px" y="0px" viewBox="0 0 512 512" style="enable-background:new 0 0 512 512;" xml:space="preserve">
<path d="M277,20.9C277,9.6,267.4,0,255.9,0C244.6,0,235,9.6,235,20.9v74c0,11.5,9.6,21.1,20.9,21.1c11.5,0,21.1-9.6,21.1-21.1V20.9z   M354.4,128.1c-8.2,7.9-8.2,21.4,0,29.6c7.9,7.9,21.6,7.9,29.8,0l52.1-52.4c8.2-8.2,8.2-21.6,0-29.8c-7.9-7.9-21.4-7.9-29.3,0  L354.4,128.1z M127.8,157.6c7.9,7.9,21.4,7.9,29.6,0c7.9-8.2,7.9-21.6,0-29.6l-52.1-52.4c-7.9-7.9-21.4-8.2-29.6-0.2  c-7.9,7.9-7.9,21.4,0,29.6L127.8,157.6z M450.3,489.4c10.1,10.3,27.4,10.3,37,0c10.1-10.6,9.9-26.9,0-37L259,223.2  c-10.1-10.1-27.6-10.1-37.2,0c-9.9,10.6-9.6,27.1,0,37.2L450.3,489.4z M20.9,235C9.6,235,0,244.6,0,255.9s9.6,20.9,20.9,20.9h74.5  c11.3,0,20.9-9.6,20.9-20.9S106.7,235,95.4,235H20.9z M490.9,276.8c11.5,0,21.1-9.6,21.1-20.9s-9.6-20.9-21.1-20.9h-74  c-11.3,0-20.9,9.6-20.9,20.9s9.6,20.9,20.9,20.9H490.9z M458.9,472.8L310.7,324.4l11.8-11.5l148.2,148.5c4.3,4.1,5.3,8.9,1.4,13.2  C468,478.1,463.2,477.4,458.9,472.8z M75.4,406.5c-7.9,7.9-7.9,21.6-0.2,29.6c7.9,7.9,21.6,8.2,29.8,0.2l52.4-52.4  c7.9-7.9,7.9-21.4,0-29.3c-7.7-8.2-21.6-8.2-29.6,0L75.4,406.5z M277,417.1c0-11.5-9.6-21.1-21.1-21.1c-11.3,0-20.9,9.6-20.9,21.1  v74c0,11.3,9.6,20.9,20.9,20.9c11.5,0,21.1-9.6,21.1-20.9V417.1z"/>
</svg>