<?xml version="1.0" encoding="UTF-8"?>
<!--Generator: Apple Native CoreSVG 326-->
<!DOCTYPE svg
PUBLIC "-//W3C//DTD SVG 1.1//EN"
       "http://www.w3.org/Graphics/SVG/1.1/DTD/svg11.dtd">
<svg version="1.1" xmlns="http://www.w3.org/2000/svg" xmlns:xlink="http://www.w3.org/1999/xlink" viewBox="0 0 32.2559 31.8652">
 <g>
  <rect height="31.8652" opacity="0" width="32.2559" x="0" y="0"/>
  <path d="M15.9375 25.0781C20.9473 25.0781 25.0879 20.9375 25.0879 15.9277C25.0879 12.5684 23.2324 9.59961 20.498 7.99805L20.498 4.7168C20.498 3.19336 19.5801 2.27539 18.0566 2.27539L13.877 2.27539C12.3535 2.27539 11.4258 3.19336 11.4258 4.7168L11.4258 7.97852C8.67188 9.57031 6.78711 12.5488 6.78711 15.9277C6.78711 20.9375 10.9277 25.0781 15.9375 25.0781ZM25.2148 7.96875L27.2266 5.94727C27.5781 5.5957 27.5781 5 27.2266 4.64844C26.875 4.29688 26.2695 4.29688 25.918 4.64844L23.9062 6.66016C23.5547 7.00195 23.5547 7.61719 23.9062 7.96875C24.2578 8.32031 24.8633 8.32031 25.2148 7.96875ZM28.125 16.8457L30.9668 16.8457C31.4746 16.8457 31.8945 16.4258 31.8945 15.9277C31.8945 15.4199 31.4746 15 30.9668 15L28.125 15C27.627 15 27.207 15.4199 27.207 15.9277C27.207 16.4258 27.627 16.8457 28.125 16.8457ZM23.9062 25.1953L25.918 27.1973C26.2695 27.5586 26.875 27.5586 27.2266 27.1973C27.5781 26.8457 27.5781 26.25 27.2266 25.8984L25.2148 23.8867C24.8633 23.5254 24.2578 23.5254 23.9062 23.8867C23.5547 24.2285 23.5547 24.8438 23.9062 25.1953ZM16.8945 28.1055C16.8945 27.5977 16.4746 27.1777 15.9668 27.1777C15.4688 27.1777 15.0488 27.5977 15.0488 28.1055L15.0488 30.9473C15.0488 31.4453 15.4688 31.8652 15.9668 31.8652C16.4746 31.8652 16.8945 31.4453 16.8945 30.9473ZM7.98828 25.1953C8.34961 24.8438 8.34961 24.2285 7.98828 23.8867C7.63672 23.5254 7.03125 23.5254 6.67969 23.8867L4.67773 25.8984C4.31641 26.25 4.31641 26.8457 4.67773 27.1973C5.01953 27.5586 5.625 27.5586 5.97656 27.1973ZM3.76953 16.8457C4.26758 16.8457 4.6875 16.4258 4.6875 15.9277C4.6875 15.4199 4.26758 15 3.76953 15L0.927734 15C0.419922 15 0 15.4199 0 15.9277C0 16.4258 0.419922 16.8457 0.927734 16.8457ZM6.67969 7.96875C7.03125 8.32031 7.63672 8.32031 7.98828 7.96875C8.34961 7.61719 8.34961 7.00195 7.98828 6.66016L5.97656 4.64844C5.625 4.29688 5.01953 4.29688 4.67773 4.64844C4.31641 5 4.31641 5.5957 4.67773 5.94727Z" fill="black" fill-opacity="0.85"/>
 </g>
</svg>
