<?xml version="1.0" encoding="UTF-8"?>
<!--Generator: Apple Native CoreSVG 326-->
<!DOCTYPE svg
PUBLIC "-//W3C//DTD SVG 1.1//EN"
       "http://www.w3.org/Graphics/SVG/1.1/DTD/svg11.dtd">
<svg version="1.1" xmlns="http://www.w3.org/2000/svg" xmlns:xlink="http://www.w3.org/1999/xlink" viewBox="0 0 25.8008 25.459">
 <g>
  <rect height="25.459" opacity="0" width="25.8008" x="0" y="0"/>
  <path d="M12.7148 25.4395C19.7363 25.4395 25.4395 19.7461 25.4395 12.7246C25.4395 5.70312 19.7363 0 12.7148 0C5.69336 0 0 5.70312 0 12.7246C0 19.7461 5.69336 25.4395 12.7148 25.4395ZM12.7148 23.623C6.68945 23.623 1.81641 18.75 1.81641 12.7246C1.81641 6.69922 6.68945 1.82617 12.7148 1.82617C18.7402 1.82617 23.6133 6.69922 23.6133 12.7246C23.6133 18.75 18.7402 23.623 12.7148 23.623Z" fill="black" fill-opacity="0.85"/>
  <path d="M16.9336 5.76172L8.41797 5.76172C7.53906 5.76172 6.95312 6.37695 6.95312 7.29492L6.95312 9.14062L18.3984 9.14062L18.3984 7.29492C18.3984 6.37695 17.8125 5.76172 16.9336 5.76172ZM9.29688 8.33008C8.96484 8.33008 8.69141 8.05664 8.69141 7.72461C8.69141 7.38281 8.96484 7.09961 9.29688 7.09961C9.63867 7.09961 9.91211 7.38281 9.91211 7.72461C9.91211 8.05664 9.63867 8.33008 9.29688 8.33008ZM11.0742 8.33008C10.7324 8.33008 10.4688 8.05664 10.4688 7.72461C10.4688 7.38281 10.7324 7.09961 11.0742 7.09961C11.4062 7.09961 11.6699 7.38281 11.6699 7.72461C11.6699 8.05664 11.4062 8.33008 11.0742 8.33008ZM14.707 8.07617C14.502 8.07617 14.3555 7.92969 14.3555 7.72461C14.3555 7.50977 14.502 7.36328 14.707 7.36328L16.4258 7.36328C16.6309 7.36328 16.7871 7.50977 16.7871 7.72461C16.7871 7.92969 16.6309 8.07617 16.4258 8.07617ZM8.41797 19.6387L16.9336 19.6387C17.8125 19.6387 18.3984 19.0234 18.3984 18.1055L18.3984 9.98047L6.95312 9.98047L6.95312 18.1055C6.95312 19.0234 7.53906 19.6387 8.41797 19.6387ZM12.6758 18.0859C10.7129 18.0859 9.12109 16.4844 9.12109 14.5312C9.12109 12.5684 10.7129 10.9766 12.6758 10.9766C14.6387 10.9766 16.2305 12.5684 16.2305 14.5312C16.2305 16.4844 14.6387 18.0859 12.6758 18.0859ZM12.6758 17.2461C14.1895 17.2461 15.3906 16.0547 15.3906 14.5312C15.3906 13.0176 14.1895 11.8164 12.6758 11.8164C11.1621 11.8164 9.96094 13.0176 9.96094 14.5312C9.96094 16.0547 11.1621 17.2461 12.6758 17.2461Z" fill="black" fill-opacity="0.85"/>
 </g>
</svg>
