<?xml version="1.0" encoding="UTF-8"?>
<!--Generator: Apple Native CoreSVG 326-->
<!DOCTYPE svg
PUBLIC "-//W3C//DTD SVG 1.1//EN"
       "http://www.w3.org/Graphics/SVG/1.1/DTD/svg11.dtd">
<svg version="1.1" xmlns="http://www.w3.org/2000/svg" xmlns:xlink="http://www.w3.org/1999/xlink" viewBox="0 0 29.3591 28.2129">
 <g>
  <rect height="28.2129" opacity="0" width="29.3591" x="0" y="0"/>
  <path d="M25.202 3.79883L25.202 16.9307C24.8845 16.8636 24.5655 16.8262 24.284 16.8262C24.0105 16.8262 23.7415 16.8521 23.4637 16.909L23.4637 8.7793L5.53403 8.7793L5.53403 23.9746C5.53403 24.668 5.96372 25.127 6.61802 25.127L15.4876 25.127L15.9051 26.25C15.9867 26.4693 16.0876 26.6718 16.2059 26.8555L6.54966 26.8555C4.90903 26.8555 3.79575 25.7031 3.79575 23.9746L3.79575 3.79883C3.79575 2.07031 4.90903 0.927734 6.54966 0.927734L22.4481 0.927734C24.0887 0.927734 25.202 2.07031 25.202 3.79883ZM20.9735 16.9531L20.9402 17.6125C20.5052 17.381 20.1216 17.2078 19.7658 17.0846C19.7718 17.0418 19.7723 16.9975 19.7723 16.9531C19.7723 14.0137 17.4383 11.6797 14.4989 11.6797C11.5594 11.6797 9.22544 14.0137 9.22544 16.9531C9.22544 19.8509 11.5088 22.1658 14.404 22.2121L14.8493 23.41C14.7348 23.4246 14.6172 23.4277 14.4989 23.4277C10.9247 23.4277 8.02427 20.5273 8.02427 16.9531C8.02427 13.3691 10.9247 10.4688 14.4989 10.4688C18.0731 10.4688 20.9735 13.3691 20.9735 16.9531ZM6.61802 2.65625C5.96372 2.65625 5.53403 3.11523 5.53403 3.80859L5.53403 7.34375L23.4637 7.34375L23.4637 3.80859C23.4637 3.11523 23.034 2.65625 22.3797 2.65625ZM9.46958 5C9.46958 5.61523 8.96177 6.11328 8.3563 6.11328C7.74106 6.11328 7.24302 5.61523 7.24302 5C7.24302 4.39453 7.74106 3.88672 8.3563 3.88672C8.96177 3.88672 9.46958 4.39453 9.46958 5ZM12.6727 5C12.6727 5.61523 12.1747 6.11328 11.5692 6.11328C10.954 6.11328 10.4657 5.61523 10.4657 5C10.4657 4.39453 10.954 3.88672 11.5692 3.88672C12.1747 3.88672 12.6727 4.39453 12.6727 5ZM21.6961 5C21.6961 5.33203 21.4715 5.56641 21.1297 5.56641L18.0145 5.56641C17.6825 5.56641 17.4481 5.33203 17.4481 5C17.4481 4.66797 17.6825 4.43359 18.0145 4.43359L21.1297 4.43359C21.4715 4.43359 21.6961 4.66797 21.6961 5Z" fill="black" fill-opacity="0.85"/>
  <path d="M18.6688 26.8555L23.9422 26.8555C24.577 26.8555 25.1629 26.4844 25.4168 25.7812L27.9266 18.9941C28.1024 18.5156 27.8778 18.1543 27.5458 18.0273C27.204 17.9004 26.7645 18.0176 26.5887 18.4961L26.4032 18.9746C25.7391 18.5938 25.1532 18.1934 24.284 18.1934C22.7801 18.1934 22.3407 19.1699 21.3055 19.1699C20.2704 19.1699 19.8211 18.1934 18.3172 18.1934C17.4481 18.1934 16.8622 18.5938 16.1981 18.9746L16.0125 18.4961C15.8368 18.0176 15.3973 17.9004 15.0555 18.0273C14.7235 18.1543 14.4989 18.5156 14.6747 18.9941L17.1844 25.7812C17.4481 26.4844 18.0243 26.8555 18.6688 26.8555ZM18.9911 25.4199C18.7274 25.4199 18.5418 25.3027 18.4247 24.9805L16.5594 19.9707C17.204 19.5898 17.6532 19.2578 18.3172 19.2578C19.4793 19.2578 19.8309 20.2441 21.3055 20.2441C22.7801 20.2441 23.1219 19.2578 24.284 19.2578C24.9481 19.2578 25.3973 19.5898 26.0418 19.9707L24.1766 24.9805C24.0594 25.3027 23.8739 25.4199 23.6102 25.4199Z" fill="black" fill-opacity="0.85"/>
 </g>
</svg>
