<?xml version="1.0" encoding="UTF-8"?>
<!--Generator: Apple Native CoreSVG 326-->
<!DOCTYPE svg
PUBLIC "-//W3C//DTD SVG 1.1//EN"
       "http://www.w3.org/Graphics/SVG/1.1/DTD/svg11.dtd">
<svg version="1.1" xmlns="http://www.w3.org/2000/svg" xmlns:xlink="http://www.w3.org/1999/xlink" viewBox="0 0 25.8008 25.459">
 <g>
  <rect height="25.459" opacity="0" width="25.8008" x="0" y="0"/>
  <path d="M25.4395 12.7344C25.4395 19.7461 19.7266 25.459 12.7148 25.459C5.71289 25.459 0 19.7461 0 12.7344C0 5.73242 5.71289 0.0195312 12.7148 0.0195312C19.7266 0.0195312 25.4395 5.73242 25.4395 12.7344ZM6.81641 9.93164L6.81641 18.252C6.81641 19.1895 7.41211 19.8242 8.32031 19.8242L17.0312 19.8242C17.9492 19.8242 18.5352 19.1895 18.5352 18.252L18.5352 9.93164ZM16.3184 14.5996C16.3184 16.6016 14.6875 18.2324 12.6758 18.2324C10.6641 18.2324 9.0332 16.6016 9.0332 14.5996C9.0332 12.5879 10.6641 10.957 12.6758 10.957C14.6875 10.957 16.3184 12.5879 16.3184 14.5996ZM9.90234 14.5996C9.90234 16.1523 11.123 17.3633 12.6758 17.3633C14.2285 17.3633 15.4492 16.1523 15.4492 14.5996C15.4492 13.0371 14.2285 11.8164 12.6758 11.8164C11.123 11.8164 9.90234 13.0371 9.90234 14.5996ZM8.32031 5.61523C7.41211 5.61523 6.81641 6.24023 6.81641 7.1875L6.81641 9.0332L18.5352 9.0332L18.5352 7.1875C18.5352 6.24023 17.9492 5.61523 17.0312 5.61523ZM9.84375 7.61719C9.84375 7.95898 9.57031 8.24219 9.21875 8.24219C8.87695 8.24219 8.59375 7.95898 8.59375 7.61719C8.59375 7.26562 8.87695 6.98242 9.21875 6.98242C9.57031 6.98242 9.84375 7.26562 9.84375 7.61719ZM11.6504 7.61719C11.6504 7.95898 11.377 8.24219 11.0352 8.24219C10.6836 8.24219 10.4199 7.95898 10.4199 7.61719C10.4199 7.26562 10.6836 6.98242 11.0352 6.98242C11.377 6.98242 11.6504 7.26562 11.6504 7.61719ZM16.8848 7.61719C16.8848 7.82227 16.7285 7.97852 16.5137 7.97852L14.7559 7.97852C14.5508 7.97852 14.3945 7.82227 14.3945 7.61719C14.3945 7.40234 14.5508 7.24609 14.7559 7.24609L16.5137 7.24609C16.7285 7.24609 16.8848 7.40234 16.8848 7.61719Z" fill="black" fill-opacity="0.85"/>
 </g>
</svg>
