<?xml version="1.0" encoding="UTF-8"?>
<!--Generator: Apple Native CoreSVG 326-->
<!DOCTYPE svg
PUBLIC "-//W3C//DTD SVG 1.1//EN"
       "http://www.w3.org/Graphics/SVG/1.1/DTD/svg11.dtd">
<svg version="1.1" xmlns="http://www.w3.org/2000/svg" xmlns:xlink="http://www.w3.org/1999/xlink" viewBox="0 0 23.3105 23.6816">
 <g>
  <rect height="23.6816" opacity="0" width="23.3105" x="0" y="0"/>
  <path d="M6.77734 23.6816L16.1719 23.6816C19.6387 23.6816 21.7285 21.5625 21.7285 18.0469L21.7285 5.6543C21.7285 2.12891 19.6387 0.0292969 16.1719 0.0292969L6.77734 0.0292969C3.31055 0.0292969 1.2207 2.12891 1.2207 5.6543L1.2207 18.0469C1.2207 21.5625 3.31055 23.6816 6.77734 23.6816ZM6.70898 22.002C4.32617 22.002 2.91016 20.5566 2.91016 18.1152L2.91016 5.625C2.91016 3.19336 4.32617 1.75781 6.70898 1.75781L16.2402 1.75781C18.6328 1.75781 20.0488 3.19336 20.0488 5.625L20.0488 18.1152C20.0488 20.5566 18.6328 22.002 16.2402 22.002ZM21.4648 10.5469L22.0508 10.5469C22.8223 10.5469 23.3105 10.0098 23.3105 9.17969L23.3105 7.01172C23.3105 6.17188 22.8223 5.64453 22.0508 5.64453L21.4648 5.64453Z" fill="black" fill-opacity="0.85"/>
  <path d="M10.2539 12.6172C10.8398 13.1055 11.3477 13.1055 11.9141 12.6172L17.1484 8.05664C17.4805 7.76367 17.4902 7.25586 17.1777 6.92383C16.8652 6.61133 16.377 6.60156 16.0156 6.92383L11.0742 11.2207L8.07617 8.66211C7.74414 8.36914 7.22656 8.42773 6.94336 8.75977C6.64062 9.10156 6.69922 9.60938 7.05078 9.91211Z" fill="black" fill-opacity="0.85"/>
 </g>
</svg>
