<?xml version="1.0" encoding="UTF-8"?>
<!--Generator: Apple Native CoreSVG 326-->
<!DOCTYPE svg
PUBLIC "-//W3C//DTD SVG 1.1//EN"
       "http://www.w3.org/Graphics/SVG/1.1/DTD/svg11.dtd">
<svg version="1.1" xmlns="http://www.w3.org/2000/svg" xmlns:xlink="http://www.w3.org/1999/xlink" viewBox="0 0 26.6016 25.752">
 <g>
  <rect height="25.752" opacity="0" width="26.6016" x="0" y="0"/>
  <path d="M22.2656 12.1094C23.2227 12.7734 24.0137 13.3594 25.4102 13.3594L25.4688 13.3594C25.8984 13.3594 26.2402 13.7012 26.2402 14.1309C26.2402 14.5508 25.8984 14.8926 25.4688 14.8926L25.4102 14.8926C21.582 14.8926 21.25 12.334 19.1016 12.334C18.495 12.334 18.0189 12.5475 17.5686 12.8542L16.6467 11.6179C17.3142 11.1785 18.1048 10.8008 19.1016 10.8008C20.459 10.8008 21.4453 11.5137 22.2656 12.1094ZM9.58724 11.615L8.6664 12.8509C8.21781 12.5459 7.74296 12.334 7.13867 12.334C4.99023 12.334 4.64844 14.8926 0.830078 14.8926L0.761719 14.8926C0.341797 14.8926 0 14.5508 0 14.1309C0 13.7012 0.341797 13.3594 0.761719 13.3594L0.830078 13.3594C2.22656 13.3594 3.01758 12.7734 3.96484 12.1094C4.78516 11.5137 5.77148 10.8008 7.13867 10.8008C8.12624 10.8008 8.91846 11.1768 9.58724 11.615Z" fill="black" fill-opacity="0.85"/>
  <path d="M22.2656 4.57031C23.2227 5.24414 24.0137 5.83008 25.4102 5.83008L25.4688 5.83008C25.8984 5.83008 26.2402 6.17188 26.2402 6.5918C26.2402 7.02148 25.8984 7.36328 25.4688 7.36328L25.4102 7.36328C21.582 7.36328 21.25 4.80469 19.1016 4.80469C17.002 4.80469 16.4648 7.36328 13.1152 7.36328C9.77539 7.36328 9.23828 4.80469 7.13867 4.80469C4.99023 4.80469 4.64844 7.36328 0.830078 7.36328L0.761719 7.36328C0.341797 7.36328 0 7.02148 0 6.5918C0 6.17188 0.341797 5.83008 0.761719 5.83008L0.830078 5.83008C2.22656 5.83008 3.01758 5.24414 3.96484 4.57031C4.78516 3.97461 5.77148 3.27148 7.13867 3.27148C8.53516 3.27148 9.54102 4.02344 10.3613 4.62891C11.2305 5.29297 11.9434 5.83008 13.1152 5.83008C14.2871 5.83008 15.0098 5.29297 15.8789 4.62891C16.6992 4.02344 17.6953 3.27148 19.1016 3.27148C20.459 3.27148 21.4453 3.97461 22.2656 4.57031Z" fill="black" fill-opacity="0.85"/>
  <path d="M9.81445 15.6445L12.2559 15.6445L12.2559 23.5547C12.2559 24.0137 12.6562 24.3945 13.1152 24.3945C13.5742 24.3945 13.9746 24.0137 13.9746 23.5547L13.9746 15.6445L16.416 15.6445C17.1484 15.6445 17.4512 14.9512 17.0215 14.4043L13.7891 10.0781C13.3789 9.55078 12.8613 9.54102 12.4414 10.0781L9.20898 14.3945C8.76953 14.9512 9.07227 15.6445 9.81445 15.6445Z" fill="black" fill-opacity="0.85"/>
 </g>
</svg>
