<?xml version="1.0" encoding="UTF-8"?>
<!--Generator: Apple Native CoreSVG 326-->
<!DOCTYPE svg
PUBLIC "-//W3C//DTD SVG 1.1//EN"
       "http://www.w3.org/Graphics/SVG/1.1/DTD/svg11.dtd">
<svg version="1.1" xmlns="http://www.w3.org/2000/svg" xmlns:xlink="http://www.w3.org/1999/xlink" viewBox="0 0 26.6016 25.7593">
 <g>
  <rect height="25.7593" opacity="0" width="26.6016" x="0" y="0"/>
  <path d="M22.2656 4.57398C23.2227 5.24781 24.0137 5.83374 25.4102 5.83374L25.4688 5.83374C25.8984 5.83374 26.2402 6.17554 26.2402 6.59546C26.2402 7.02515 25.8984 7.36695 25.4688 7.36695L25.4102 7.36695C21.582 7.36695 21.25 4.80835 19.1016 4.80835C17.002 4.80835 16.4648 7.36695 13.1152 7.36695C9.77539 7.36695 9.23828 4.80835 7.13867 4.80835C4.99023 4.80835 4.64844 7.36695 0.830078 7.36695L0.761719 7.36695C0.341797 7.36695 0 7.02515 0 6.59546C0 6.17554 0.341797 5.83374 0.761719 5.83374L0.830078 5.83374C2.22656 5.83374 3.01758 5.24781 3.96484 4.57398C4.78516 3.97828 5.77148 3.27515 7.13867 3.27515C8.53516 3.27515 9.54102 4.0271 10.3613 4.63257C11.2305 5.29663 11.9434 5.83374 13.1152 5.83374C14.2871 5.83374 15.0098 5.29663 15.8789 4.63257C16.6992 4.0271 17.6953 3.27515 19.1016 3.27515C20.459 3.27515 21.4453 3.97828 22.2656 4.57398Z" fill="black" fill-opacity="0.85"/>
  <path d="M22.2656 12.113C23.2227 12.7771 24.0137 13.363 25.4102 13.363L25.4688 13.363C25.8984 13.363 26.2402 13.7048 26.2402 14.1345C26.2402 14.5544 25.8984 14.8962 25.4688 14.8962L25.4102 14.8962C21.582 14.8962 21.25 12.3377 19.1016 12.3377C17.581 12.3377 16.8799 13.6796 15.332 14.4166L15.332 12.5731C15.5115 12.4479 15.6918 12.3125 15.8789 12.1716C16.6992 11.5564 17.6953 10.8044 19.1016 10.8044C20.459 10.8044 21.4453 11.5173 22.2656 12.113ZM10.3613 12.1716C10.5454 12.3102 10.7226 12.4436 10.8984 12.5671L10.8984 14.4136C9.35846 13.6761 8.65725 12.3377 7.13867 12.3377C4.99023 12.3377 4.64844 14.8962 0.830078 14.8962L0.761719 14.8962C0.341797 14.8962 0 14.5544 0 14.1345C0 13.7048 0.341797 13.363 0.761719 13.363L0.830078 13.363C2.22656 13.363 3.01758 12.7771 3.96484 12.113C4.78516 11.5173 5.77148 10.8044 7.13867 10.8044C8.53516 10.8044 9.54102 11.5564 10.3613 12.1716Z" fill="black" fill-opacity="0.85"/>
  <path d="M9.81445 18.4216C9.07227 18.4216 8.76953 19.115 9.20898 19.6814L12.4414 23.988C12.8613 24.5349 13.3789 24.5252 13.7891 23.988L17.0215 19.6716C17.4512 19.115 17.1484 18.4216 16.416 18.4216L13.9746 18.4216L13.9746 10.5115C13.9746 10.0623 13.5742 9.6814 13.1152 9.6814C12.6562 9.6814 12.2559 10.0623 12.2559 10.5115L12.2559 18.4216Z" fill="black" fill-opacity="0.85"/>
 </g>
</svg>
