<?xml version="1.0" encoding="UTF-8"?>
<!--Generator: Apple Native CoreSVG 326-->
<!DOCTYPE svg
PUBLIC "-//W3C//DTD SVG 1.1//EN"
       "http://www.w3.org/Graphics/SVG/1.1/DTD/svg11.dtd">
<svg version="1.1" xmlns="http://www.w3.org/2000/svg" xmlns:xlink="http://www.w3.org/1999/xlink" viewBox="0 0 27.0264 26.6114">
 <g>
  <rect height="26.6114" opacity="0" width="27.0264" x="0" y="0"/>
  <path d="M10.5688 20.127C11.438 20.791 12.1606 21.3281 13.3325 21.3281C14.5044 21.3281 15.2173 20.791 16.0864 20.127C16.2617 19.9987 16.443 19.8643 16.6349 19.7336L17.7487 20.8465C16.6444 21.5948 15.6799 22.8613 13.3325 22.8613C9.98291 22.8613 9.4458 20.3028 7.34619 20.3028C5.19775 20.3028 4.86572 22.8613 1.0376 22.8613L0.979004 22.8613C0.549316 22.8613 0.20752 22.5196 0.20752 22.0899C0.20752 21.6699 0.549316 21.3281 0.979004 21.3281L1.0376 21.3281C2.43408 21.3281 3.2251 20.7422 4.18213 20.0684C5.00244 19.4727 5.98877 18.7696 7.34619 18.7696C8.75244 18.7696 9.74854 19.5215 10.5688 20.127Z" fill="black" fill-opacity="0.85"/>
  <path d="M22.4829 12.5391C23.4302 13.2031 24.2212 13.7891 25.6177 13.7891L25.686 13.7891C26.106 13.7891 26.4478 14.1309 26.4478 14.5606C26.4478 14.9805 26.106 15.3223 25.686 15.3223L25.6177 15.3223C21.7993 15.3223 21.4673 12.7637 19.3091 12.7637C18.3469 12.7637 17.7129 13.301 16.9857 13.8836L15.8657 12.7631C15.9382 12.7093 16.0117 12.6539 16.0864 12.5977C16.9067 11.9824 17.9126 11.2305 19.3091 11.2305C20.6763 11.2305 21.6626 11.9434 22.4829 12.5391ZM8.22856 11.3347L12.0778 15.1805C9.80074 14.6527 9.15026 12.7637 7.34619 12.7637C5.19775 12.7637 4.86572 15.3223 1.0376 15.3223L0.979004 15.3223C0.549316 15.3223 0.20752 14.9805 0.20752 14.5606C0.20752 14.1309 0.549316 13.7891 0.979004 13.7891L1.0376 13.7891C2.43408 13.7891 3.2251 13.2031 4.18213 12.5391C5.00244 11.9434 5.98877 11.2305 7.34619 11.2305C7.66024 11.2305 7.95384 11.268 8.22856 11.3347Z" fill="black" fill-opacity="0.85"/>
  <path d="M22.4829 5.00002C23.4302 5.67385 24.2212 6.25979 25.6177 6.25979L25.686 6.25979C26.106 6.25979 26.4478 6.60158 26.4478 7.02151C26.4478 7.45119 26.106 7.79299 25.686 7.79299L25.6177 7.79299C21.7993 7.79299 21.4673 5.2344 19.3091 5.2344C17.2095 5.2344 16.6724 7.79299 13.3325 7.79299C10.9111 7.79299 9.95945 6.45594 8.82382 5.71817L6.84214 3.73561C7.00359 3.71286 7.1717 3.70119 7.34619 3.70119C8.75244 3.70119 9.74854 4.45315 10.5688 5.05861C11.438 5.72268 12.1606 6.25979 13.3325 6.25979C14.5044 6.25979 15.2173 5.72268 16.0864 5.05861C16.9067 4.45315 17.9126 3.70119 19.3091 3.70119C20.6763 3.70119 21.6626 4.40432 22.4829 5.00002Z" fill="black" fill-opacity="0.85"/>
  <path d="M23.8013 24.9805C24.1235 25.3028 24.6606 25.3028 24.9829 24.9805C25.3052 24.6485 25.3052 24.1211 24.9829 23.7988L2.78564 1.61135C2.47314 1.28908 1.93604 1.27932 1.604 1.61135C1.28174 1.92385 1.28174 2.47072 1.604 2.78322Z" fill="black" fill-opacity="0.85"/>
 </g>
</svg>
