<?xml version="1.0" encoding="UTF-8"?>
<!--Generator: Apple Native CoreSVG 326-->
<!DOCTYPE svg
PUBLIC "-//W3C//DTD SVG 1.1//EN"
       "http://www.w3.org/Graphics/SVG/1.1/DTD/svg11.dtd">
<svg version="1.1" xmlns="http://www.w3.org/2000/svg" xmlns:xlink="http://www.w3.org/1999/xlink" viewBox="0 0 26.6016 19.209">
 <g>
  <rect height="19.209" opacity="0" width="26.6016" x="0" y="0"/>
  <path d="M13.1152 4.0918C16.4648 4.0918 17.002 1.5332 19.1016 1.5332C21.25 1.5332 21.582 4.0918 25.4102 4.0918L25.4688 4.0918C25.8984 4.0918 26.2402 3.75 26.2402 3.32031C26.2402 2.90039 25.8984 2.55859 25.4688 2.55859L25.4102 2.55859C24.0137 2.55859 23.2227 1.97266 22.2656 1.29883C21.4453 0.703125 20.459 0 19.1016 0C17.6953 0 16.6992 0.751953 15.8789 1.35742C15.0098 2.02148 14.2871 2.55859 13.1152 2.55859C11.9434 2.55859 11.2305 2.02148 10.3613 1.35742C9.54102 0.751953 8.53516 0 7.13867 0C5.77148 0 4.78516 0.703125 3.96484 1.29883C3.01758 1.97266 2.22656 2.55859 0.830078 2.55859L0.761719 2.55859C0.341797 2.55859 0 2.90039 0 3.32031C0 3.75 0.341797 4.0918 0.761719 4.0918L0.830078 4.0918C4.64844 4.0918 4.99023 1.5332 7.13867 1.5332C9.23828 1.5332 9.77539 4.0918 13.1152 4.0918Z" fill="black" fill-opacity="0.85"/>
  <path d="M13.1152 11.6211C16.4648 11.6211 17.002 9.0625 19.1016 9.0625C21.25 9.0625 21.582 11.6211 25.4102 11.6211L25.4688 11.6211C25.8984 11.6211 26.2402 11.2793 26.2402 10.8594C26.2402 10.4297 25.8984 10.0879 25.4688 10.0879L25.4102 10.0879C24.0137 10.0879 23.2227 9.50195 22.2656 8.83789C21.4453 8.24219 20.459 7.5293 19.1016 7.5293C17.6953 7.5293 16.6992 8.28125 15.8789 8.89648C15.0098 9.55078 14.2871 10.0879 13.1152 10.0879C11.9434 10.0879 11.2305 9.55078 10.3613 8.89648C9.54102 8.28125 8.53516 7.5293 7.13867 7.5293C5.77148 7.5293 4.78516 8.24219 3.96484 8.83789C3.01758 9.50195 2.22656 10.0879 0.830078 10.0879L0.761719 10.0879C0.341797 10.0879 0 10.4297 0 10.8594C0 11.2793 0.341797 11.6211 0.761719 11.6211L0.830078 11.6211C4.64844 11.6211 4.99023 9.0625 7.13867 9.0625C9.23828 9.0625 9.77539 11.6211 13.1152 11.6211Z" fill="black" fill-opacity="0.85"/>
  <path d="M13.1152 19.1602C16.4648 19.1602 17.002 16.6016 19.1016 16.6016C21.25 16.6016 21.582 19.1602 25.4102 19.1602L25.4688 19.1602C25.8984 19.1602 26.2402 18.8184 26.2402 18.3887C26.2402 17.9688 25.8984 17.627 25.4688 17.627L25.4102 17.627C24.0137 17.627 23.2227 17.041 22.2656 16.3672C21.4453 15.7715 20.459 15.0684 19.1016 15.0684C17.6953 15.0684 16.6992 15.8203 15.8789 16.4258C15.0098 17.0898 14.2871 17.627 13.1152 17.627C11.9434 17.627 11.2305 17.0898 10.3613 16.4258C9.54102 15.8203 8.53516 15.0684 7.13867 15.0684C5.77148 15.0684 4.78516 15.7715 3.96484 16.3672C3.01758 17.041 2.22656 17.627 0.830078 17.627L0.761719 17.627C0.341797 17.627 0 17.9688 0 18.3887C0 18.8184 0.341797 19.1602 0.761719 19.1602L0.830078 19.1602C4.64844 19.1602 4.99023 16.6016 7.13867 16.6016C9.23828 16.6016 9.77539 19.1602 13.1152 19.1602Z" fill="black" fill-opacity="0.85"/>
 </g>
</svg>
