<?xml version="1.0" encoding="UTF-8"?>
<!--Generator: Apple Native CoreSVG 326-->
<!DOCTYPE svg
PUBLIC "-//W3C//DTD SVG 1.1//EN"
       "http://www.w3.org/Graphics/SVG/1.1/DTD/svg11.dtd">
<svg version="1.1" xmlns="http://www.w3.org/2000/svg" xmlns:xlink="http://www.w3.org/1999/xlink" viewBox="0 0 39.8242 31.4355">
 <g>
  <rect height="31.4355" opacity="0" width="39.8242" x="0" y="0"/>
  <path d="M25.2246 6.50391L25.2246 23.1484C24.5621 23.5525 23.9842 24.0253 23.4961 24.5386L23.4961 6.50391C23.4961 6.02539 23.8574 5.625 24.3652 5.625C24.8535 5.625 25.2246 6.02539 25.2246 6.50391Z" fill="black" fill-opacity="0.85"/>
  <path d="M21.0645 10.0488L21.0645 21.3867C21.0645 21.8652 20.6934 22.2461 20.2051 22.2461C19.707 22.2461 19.3359 21.8652 19.3359 21.3867L19.3359 10.0488C19.3359 9.57031 19.707 9.17969 20.2051 9.17969C20.6934 9.17969 21.0645 9.57031 21.0645 10.0488Z" fill="black" fill-opacity="0.85"/>
  <path d="M16.9141 3.54492L16.9141 27.8906C16.9141 28.3691 16.5332 28.75 16.0352 28.75C15.5469 28.75 15.1855 28.3691 15.1855 27.8906L15.1855 3.54492C15.1855 3.06641 15.5469 2.68555 16.0352 2.68555C16.5332 2.68555 16.9141 3.06641 16.9141 3.54492Z" fill="black" fill-opacity="0.85"/>
  <path d="M12.7539 8.62305L12.7539 22.8125C12.7539 23.291 12.3828 23.6719 11.8848 23.6719C11.3867 23.6719 11.0254 23.291 11.0254 22.8125L11.0254 8.62305C11.0254 8.14453 11.3867 7.75391 11.8848 7.75391C12.3828 7.75391 12.7539 8.14453 12.7539 8.62305Z" fill="black" fill-opacity="0.85"/>
  <path d="M8.60352 13.5938L8.60352 17.8418C8.60352 18.3301 8.22266 18.7109 7.72461 18.7109C7.23633 18.7109 6.86523 18.3301 6.86523 17.8418L6.86523 13.5938C6.86523 13.1055 7.23633 12.7148 7.72461 12.7148C8.22266 12.7148 8.60352 13.1055 8.60352 13.5938Z" fill="black" fill-opacity="0.85"/>
  <path d="M24.5508 29.8242L36.7285 29.8242C37.627 29.8242 38.1934 29.3848 38.1934 28.6621C38.1934 26.3477 35.3027 23.1445 30.6445 23.1445C25.9766 23.1445 23.0762 26.3477 23.0762 28.6621C23.0762 29.3848 23.6426 29.8242 24.5508 29.8242ZM30.6445 21.5332C32.5781 21.5332 34.2285 19.8047 34.2285 17.5586C34.2285 15.3809 32.5684 13.7109 30.6445 13.7109C28.7207 13.7109 27.0605 15.4004 27.0605 17.5879C27.0605 19.8047 28.7109 21.5332 30.6445 21.5332Z" fill="black" fill-opacity="0.85"/>
 </g>
</svg>
