<?xml version="1.0" ?><!-- Generator: Adobe Illustrator 25.0.0, SVG Export Plug-In . SVG Version: 6.00 Build 0)  --><svg xmlns="http://www.w3.org/2000/svg" xmlns:xlink="http://www.w3.org/1999/xlink" version="1.1" id="Layer_1" x="0px" y="0px" viewBox="0 0 512 512" style="enable-background:new 0 0 512 512;" xml:space="preserve">
<path d="M256,512c140,0,256-116.2,256-256C512,116,395.8,0,255.7,0C116,0,0,116,0,256C0,395.8,116.2,512,256,512z M256,469.3  c-118.5,0-213.1-94.9-213.1-213.3S137.3,42.7,255.7,42.7S469.1,137.5,469.3,256S374.5,469.3,256,469.3z M151.3,256  c0,57.5,17.1,113.4,47.7,157.4c6.3,8.3,16.6,10.5,24.3,5c8-5.8,9.3-16.3,3.3-24.6C200.3,355.9,185,306.4,185,256  c0-50.9,15.1-100.1,41.7-137.8c6-8.5,4.8-18.8-3.3-24.6c-8-5.8-18.3-3.5-24.3,4.8C168.4,143.1,151.3,198.5,151.3,256z M229.9,256  c0,41.9,12.3,82.3,34.6,113.7c6,8,16.1,10,24.1,4.3c7.5-5,9.3-15.8,3.3-24.3C274.1,324.8,264,290.9,264,256s10-68.8,27.9-93.6  c6-8.8,4.3-19.3-3.3-24.6c-8-5.5-18.1-3.8-24.1,4.5C242.2,172.7,229.9,213.3,229.9,256z M308.5,256c0,26.4,7.8,52.2,21.1,69.8  c5.5,8,16.1,10,23.8,4.8c8.5-6,10-16.8,3.5-25.9c-9-12-14.3-30.4-14.3-48.7c0-18.8,5.3-37.1,14.3-48.9c6.8-9,5.3-19.8-3.5-25.9  c-7.8-5-18.1-3-23.8,4.8C316.2,204.3,308.5,230.4,308.5,256z"/>
</svg>