<?xml version="1.0" encoding="UTF-8"?>
<!--Generator: Apple Native CoreSVG 326-->
<!DOCTYPE svg
PUBLIC "-//W3C//DTD SVG 1.1//EN"
       "http://www.w3.org/Graphics/SVG/1.1/DTD/svg11.dtd">
<svg version="1.1" xmlns="http://www.w3.org/2000/svg" xmlns:xlink="http://www.w3.org/1999/xlink" viewBox="0 0 25.8008 25.459">
 <g>
  <rect height="25.459" opacity="0" width="25.8008" x="0" y="0"/>
  <path d="M12.7148 25.4395C19.7363 25.4395 25.4395 19.7461 25.4395 12.7246C25.4395 5.70312 19.7363 0 12.7148 0C5.69336 0 0 5.70312 0 12.7246C0 19.7461 5.69336 25.4395 12.7148 25.4395ZM12.7148 23.623C6.68945 23.623 1.81641 18.75 1.81641 12.7246C1.81641 6.69922 6.68945 1.82617 12.7148 1.82617C18.7402 1.82617 23.6133 6.69922 23.6133 12.7246C23.6133 18.75 18.7402 23.623 12.7148 23.623Z" fill="black" fill-opacity="0.85"/>
  <path d="M17.9297 12.7051C17.9297 9.80469 17.0801 7.00195 15.498 4.72656C15.2344 4.35547 14.7949 4.25781 14.4434 4.51172C14.0918 4.76562 14.0332 5.21484 14.2969 5.57617C15.6934 7.50977 16.4648 10.0391 16.4648 12.7051C16.4648 15.3613 15.6836 17.9102 14.2969 19.8438C14.0332 20.2051 14.0918 20.6543 14.4434 20.9082C14.7852 21.1426 15.2246 21.0547 15.498 20.6934C17.0801 18.4375 17.9297 15.625 17.9297 12.7051Z" fill="black" fill-opacity="0.85"/>
  <path d="M13.9453 12.7051C13.9453 10.5273 13.3203 8.49609 12.168 6.95312C11.9141 6.60156 11.4746 6.51367 11.1328 6.76758C10.8008 6.99219 10.7227 7.45117 10.9766 7.82227C11.9336 9.12109 12.4609 10.8594 12.4609 12.7051C12.4609 14.5508 11.9336 16.2988 10.9766 17.5879C10.7227 17.9688 10.8008 18.4277 11.1328 18.6523C11.4746 18.8965 11.9141 18.8184 12.168 18.4668C13.3203 16.8945 13.9453 14.8535 13.9453 12.7051Z" fill="black" fill-opacity="0.85"/>
  <path d="M9.96094 12.7051C9.96094 11.416 9.56055 10.1074 8.87695 9.16992C8.62305 8.83789 8.17383 8.75 7.8418 8.96484C7.46094 9.23828 7.40234 9.70703 7.68555 10.1074C8.18359 10.752 8.47656 11.709 8.47656 12.7051C8.47656 13.6816 8.18359 14.6484 7.68555 15.3125C7.41211 15.7129 7.4707 16.1719 7.8418 16.4453C8.17383 16.6699 8.63281 16.582 8.87695 16.2402C9.56055 15.3418 9.96094 14.0332 9.96094 12.7051Z" fill="black" fill-opacity="0.85"/>
 </g>
</svg>
