<?xml version="1.0" ?><!-- Generator: Adobe Illustrator 25.0.0, SVG Export Plug-In . SVG Version: 6.00 Build 0)  --><svg xmlns="http://www.w3.org/2000/svg" xmlns:xlink="http://www.w3.org/1999/xlink" version="1.1" id="Layer_1" x="0px" y="0px" viewBox="0 0 512 512" style="enable-background:new 0 0 512 512;" xml:space="preserve">
<path d="M256,512c140,0,256-116.2,256-256C512,116,395.8,0,255.7,0C116,0,0,116,0,256C0,395.8,116.2,512,256,512z M256,469.3  c-118.5,0-213.1-94.9-213.1-213.3S137.3,42.7,255.7,42.7S469.1,137.5,469.3,256S374.5,469.3,256,469.3z M230.4,420.4  c8.3,0,14.8-6.8,14.8-15.3V106.9c0-8.8-6.5-15.3-14.8-15.3c-8.5,0-15.3,6.5-15.3,15.3v298.2C215.1,413.9,221.6,420.4,230.4,420.4z   M332,385c8.5,0,15.1-6.5,15.1-14.8V141.6c0-8.3-6.5-14.8-15.1-14.8c-8.5,0-15.1,6.5-15.1,14.8v228.6C317,378.5,323.5,385,332,385z   M179.5,353.4c8.5,0,15.1-6.5,15.1-15.1V173.2c0-8.3-6.5-14.8-15.1-14.8c-8.5,0-15.1,6.5-15.1,14.8v165.1  C164.4,346.9,170.9,353.4,179.5,353.4z M281.1,333.3c8.5,0,15.1-6.5,15.1-14.8V193.3c0-8.3-6.5-14.8-15.1-14.8  c-8.3,0-15.1,6.5-15.1,14.8v125.2C266,326.8,272.8,333.3,281.1,333.3z M383.2,305.4c8.5,0,14.8-6.3,14.8-14.8v-69.5  c0-8.5-6.3-14.8-14.8-14.8c-8.8,0-15.3,6.5-15.3,14.8v69.5C367.9,298.9,374.5,305.4,383.2,305.4z M128.3,292.9  c8.8,0,15.3-6.5,15.3-14.8v-44.4c0-8.3-6.5-14.8-15.3-14.8c-8.3,0-14.8,6.5-14.8,14.8v44.4C113.4,286.4,120,292.9,128.3,292.9z"/>
</svg>