<?xml version="1.0" encoding="UTF-8"?>
<!--Generator: Apple Native CoreSVG 326-->
<!DOCTYPE svg
PUBLIC "-//W3C//DTD SVG 1.1//EN"
       "http://www.w3.org/Graphics/SVG/1.1/DTD/svg11.dtd">
<svg version="1.1" xmlns="http://www.w3.org/2000/svg" xmlns:xlink="http://www.w3.org/1999/xlink" viewBox="0 0 25.2832 26.7944">
 <g>
  <rect height="26.7944" opacity="0" width="25.2832" x="0" y="0"/>
  <path d="M0.771484 15.7068L6.34766 15.7068C6.8457 15.7068 7.1582 15.4822 7.25586 15.033L9.72656 3.81226L8.93555 3.81226L12.6953 26.2048C12.832 26.9959 14.043 26.9861 14.1992 26.2048L17.8613 9.28101L17.1973 9.27125L18.3887 14.9451C18.4961 15.4627 18.7891 15.7068 19.3164 15.7068L24.1504 15.7068C24.5801 15.7068 24.9219 15.3748 24.9219 14.9548C24.9219 14.5154 24.5898 14.1736 24.1504 14.1736L18.418 14.1736L19.9512 15.4138L18.1836 7.70875C18.0078 6.95679 16.9043 6.95679 16.7188 7.73804L13.0176 24.2224L13.75 24.2224L10.0195 1.83961C9.89258 1.06812 8.76953 1.04859 8.59375 1.83961L5.625 15.4138L7.14844 14.1736L0.771484 14.1736C0.341797 14.1736 0 14.5252 0 14.9548C0 15.3748 0.341797 15.7068 0.771484 15.7068Z" fill="black" fill-opacity="0.85"/>
 </g>
</svg>
