<?xml version="1.0" ?><!-- Generator: Adobe Illustrator 25.0.0, SVG Export Plug-In . SVG Version: 6.00 Build 0)  --><svg xmlns="http://www.w3.org/2000/svg" xmlns:xlink="http://www.w3.org/1999/xlink" version="1.1" id="Layer_1" x="0px" y="0px" viewBox="0 0 512 512" style="enable-background:new 0 0 512 512;" xml:space="preserve">
<path d="M68.2,455.9h375.6c45.6,0,68.2-22.6,68.2-67.3V123.4c0-44.7-22.6-67.3-68.2-67.3H68.2C22.8,56.1,0,78.5,0,123.4v265.1  C0,433.5,22.8,455.9,68.2,455.9z M68.6,420.9c-21.7,0-33.7-11.5-33.7-34.1V125.2c0-22.6,11.9-34.1,33.7-34.1h374.8  c21.5,0,33.7,11.5,33.7,34.1v121.6h-50.8c-8.9,0-13.5,4.3-16.1,11.7l-16.1,45.4L343.5,151c-3.9-11.7-21.5-11.7-26.5,0.7l-39.1,95.1  h-51.2c-8.7,0-13.2,4.3-16.1,11.7l-16.1,45.4L144,151c-3.7-11.7-21.5-11.7-26.5,0.7l-39.1,95.1H35.2v28h52.1c8.9,0,13-4.1,16.1-11.7  l27.6-66.7l50.4,161.8c3.7,11.9,23,11.7,26.9-0.7l26.3-82.7h51.2c8.9,0,12.8-4.1,16.1-11.7l28.4-66.7l50.6,161.8  c3.7,11.9,23,11.7,26.7-0.7l26.5-82.7h43v112c0,22.6-12.2,34.1-33.7,34.1H68.6z"/>
</svg>