<?xml version="1.0" encoding="UTF-8"?>
<!--Generator: Apple Native CoreSVG 326-->
<!DOCTYPE svg
PUBLIC "-//W3C//DTD SVG 1.1//EN"
       "http://www.w3.org/Graphics/SVG/1.1/DTD/svg11.dtd">
<svg version="1.1" xmlns="http://www.w3.org/2000/svg" xmlns:xlink="http://www.w3.org/1999/xlink" viewBox="0 0 47.8516 20.0488">
 <g>
  <rect height="20.0488" opacity="0" width="47.8516" x="0" y="0"/>
  <path d="M12.793 16.2598C12.793 18.1738 11.2793 19.6777 9.36523 19.6777C7.4707 19.6777 5.94727 18.1641 5.94727 16.2598C5.94727 14.3555 7.4707 12.8418 9.36523 12.8418C11.2695 12.8418 12.793 14.3555 12.793 16.2598ZM39.2676 16.2598C39.2676 18.1641 37.7539 19.6777 35.8496 19.6777C33.9453 19.6777 32.4316 18.1641 32.4316 16.2598C32.4316 14.3652 33.9551 12.8418 35.8496 12.8418C37.7539 12.8418 39.2676 14.3555 39.2676 16.2598ZM33.6523 3.56445L33.9551 6.2207L44.4434 6.2207C46.3672 6.2207 47.4902 7.37305 47.4902 9.3457L47.4902 14.248C47.4902 16.2207 46.3672 17.373 44.4434 17.373L40.4883 17.373C40.5762 17.0117 40.6348 16.6504 40.6348 16.2598C40.6348 13.6133 38.5059 11.4844 35.8496 11.4844C33.2129 11.4844 31.0742 13.623 31.0742 16.2598C31.0742 16.6504 31.123 17.0117 31.2109 17.373L14.0234 17.373C14.1016 17.0215 14.1504 16.6504 14.1504 16.2598C14.1504 13.6133 12.0215 11.4844 9.36523 11.4844C6.71875 11.4844 4.58984 13.6133 4.58984 16.2598C4.58984 16.6504 4.63867 17.0117 4.72656 17.373L3.03711 17.373C1.12305 17.373 0 16.2207 0 14.248L0 11.416C0 8.4668 1.74805 6.81641 5.55664 6.25977L10.2539 5.57617L15.4395 2.30469C18.1836 0.585938 20.5273 0 24.6094 0L29.6973 0C32.0312 0 33.3789 1.21094 33.6523 3.56445ZM16.2402 10.2832C16.0352 10.5664 16.1035 10.957 16.4258 11.1816C18.2715 12.4902 20.5762 13.1836 22.9688 13.1836C25.3516 13.1836 27.6562 12.4902 29.5215 11.1816C29.8438 10.9668 29.9219 10.5859 29.707 10.2832C29.4922 9.99023 29.1113 9.93164 28.7988 10.1562C27.2168 11.2988 25.1562 11.9238 22.9688 11.9238C20.8105 11.9238 18.7305 11.2891 17.1484 10.1562C16.8262 9.93164 16.4453 9.98047 16.2402 10.2832ZM26.9531 7.43164C25.8984 8.21289 24.4727 8.65234 22.9688 8.65234C21.4648 8.65234 20.0488 8.21289 18.9941 7.43164C18.6621 7.20703 18.2812 7.29492 18.0762 7.57812C17.8711 7.87109 17.9492 8.23242 18.2422 8.4668C19.5312 9.4043 21.2012 9.92188 22.9688 9.92188C24.7559 9.92188 26.4355 9.4043 27.6953 8.4668C27.998 8.23242 28.0664 7.87109 27.8711 7.57812C27.6758 7.29492 27.2754 7.20703 26.9531 7.43164ZM25.0977 4.74609C24.5605 5.14648 23.7891 5.38086 22.9688 5.38086C22.1875 5.38086 21.4062 5.14648 20.8496 4.74609C20.5273 4.50195 20.127 4.57031 19.9023 4.87305C19.6973 5.16602 19.7559 5.56641 20.0586 5.76172C20.8008 6.32812 21.8848 6.66016 22.9688 6.66016C24.043 6.66016 25.1172 6.32812 25.8984 5.76172C26.1816 5.55664 26.25 5.16602 26.0547 4.87305C25.8301 4.56055 25.4199 4.49219 25.0977 4.74609Z" fill="black" fill-opacity="0.85"/>
 </g>
</svg>
