<?xml version="1.0" encoding="UTF-8"?>
<!--Generator: Apple Native CoreSVG 326-->
<!DOCTYPE svg
PUBLIC "-//W3C//DTD SVG 1.1//EN"
       "http://www.w3.org/Graphics/SVG/1.1/DTD/svg11.dtd">
<svg version="1.1" xmlns="http://www.w3.org/2000/svg" xmlns:xlink="http://www.w3.org/1999/xlink" viewBox="0 0 25.8008 25.459">
 <g>
  <rect height="25.459" opacity="0" width="25.8008" x="0" y="0"/>
  <path d="M12.7148 25.4395C19.7363 25.4395 25.4395 19.7461 25.4395 12.7246C25.4395 5.70312 19.7363 0 12.7148 0C5.69336 0 0 5.70312 0 12.7246C0 19.7461 5.69336 25.4395 12.7148 25.4395ZM12.7148 23.623C6.68945 23.623 1.81641 18.75 1.81641 12.7246C1.81641 6.69922 6.68945 1.82617 12.7148 1.82617C18.7402 1.82617 23.6133 6.69922 23.6133 12.7246C23.6133 18.75 18.7402 23.623 12.7148 23.623Z" fill="black" fill-opacity="0.85"/>
  <path d="M7.50977 12.7051C7.50977 15.625 8.35938 18.4375 9.94141 20.6934C10.2148 21.0547 10.6641 21.1426 10.9961 20.9082C11.3477 20.6543 11.4062 20.2051 11.1523 19.8438C9.75586 17.9102 8.97461 15.3613 8.97461 12.7051C8.97461 10.0391 9.74609 7.50977 11.1523 5.57617C11.4062 5.21484 11.3477 4.76562 10.9961 4.51172C10.6543 4.25781 10.2051 4.35547 9.94141 4.72656C8.35938 7.00195 7.50977 9.80469 7.50977 12.7051Z" fill="black" fill-opacity="0.85"/>
  <path d="M11.4941 12.7051C11.4941 14.8535 12.1191 16.8945 13.2715 18.4668C13.5254 18.8184 13.9648 18.8965 14.3066 18.6523C14.6387 18.4277 14.7266 17.9688 14.4629 17.5879C13.5156 16.2988 12.9785 14.5508 12.9785 12.7051C12.9785 10.8594 13.5156 9.12109 14.4629 7.82227C14.7266 7.45117 14.6387 6.99219 14.3066 6.76758C13.9648 6.51367 13.5254 6.60156 13.2715 6.95312C12.1191 8.49609 11.4941 10.5273 11.4941 12.7051Z" fill="black" fill-opacity="0.85"/>
  <path d="M15.4785 12.7051C15.4785 14.0332 15.8789 15.3418 16.5625 16.2402C16.8066 16.582 17.2656 16.6699 17.5977 16.4453C17.9785 16.1719 18.0273 15.7129 17.7539 15.3125C17.2559 14.6484 16.9629 13.6816 16.9629 12.7051C16.9629 11.709 17.2559 10.752 17.7539 10.1074C18.0371 9.70703 17.9883 9.23828 17.5977 8.96484C17.2656 8.75 16.8164 8.83789 16.5625 9.16992C15.8789 10.1074 15.4785 11.416 15.4785 12.7051Z" fill="black" fill-opacity="0.85"/>
 </g>
</svg>
