<?xml version="1.0" encoding="UTF-8"?>
<!--Generator: Apple Native CoreSVG 326-->
<!DOCTYPE svg
PUBLIC "-//W3C//DTD SVG 1.1//EN"
       "http://www.w3.org/Graphics/SVG/1.1/DTD/svg11.dtd">
<svg version="1.1" xmlns="http://www.w3.org/2000/svg" xmlns:xlink="http://www.w3.org/1999/xlink" viewBox="0 0 44.3945 20.0488">
 <g>
  <rect height="20.0488" opacity="0" width="44.3945" x="0" y="0"/>
  <path d="M13.2129 16.2598C13.2129 18.1738 11.709 19.6777 9.79492 19.6777C7.89062 19.6777 6.37695 18.1641 6.37695 16.2598C6.37695 14.3555 7.89062 12.8418 9.79492 12.8418C11.6992 12.8418 13.2129 14.3555 13.2129 16.2598ZM38.3984 16.2598C38.3984 18.1641 36.8848 19.6777 34.9805 19.6777C33.0859 19.6777 31.5625 18.1641 31.5625 16.2598C31.5625 14.3652 33.0957 12.8418 34.9805 12.8418C36.8848 12.8418 38.3984 14.3555 38.3984 16.2598ZM41.9336 2.86133L42.5 3.68164C43.4766 5.10742 44.0332 6.82617 44.0332 8.37891L44.0332 13.8086C44.0332 16.1035 43.0762 17.1777 41.0059 17.1777L39.668 17.1777C39.7266 16.8848 39.7656 16.582 39.7656 16.2598C39.7656 13.6133 37.6367 11.4844 34.9805 11.4844C32.3438 11.4844 30.2051 13.623 30.2051 16.2598C30.2051 16.582 30.2344 16.8848 30.293 17.1777L14.4824 17.1777C14.541 16.8848 14.5703 16.582 14.5703 16.2598C14.5703 13.6133 12.4414 11.4844 9.79492 11.4844C7.14844 11.4844 5.01953 13.6133 5.01953 16.2598C5.01953 16.582 5.04883 16.8848 5.10742 17.1777L3.03711 17.1777C1.12305 17.1777 0 16.0254 0 14.0527L0 11.9141C0 8.57422 2.07031 6.66992 6.25 6.15234L10.9473 5.57617L16.0059 2.39258C19.043 0.488281 21.0645 0 26.2012 0L35.957 0C38.7793 0 40.5566 0.849609 41.9336 2.86133ZM16.5332 10.2832C16.3281 10.5664 16.3965 10.957 16.7188 11.1816C18.5645 12.4902 20.8789 13.1836 23.2715 13.1836C25.6543 13.1836 27.959 12.4902 29.8145 11.1816C30.1367 10.9668 30.2148 10.5859 30 10.2832C29.7949 9.99023 29.4043 9.93164 29.0918 10.1562C27.5098 11.2988 25.4492 11.9238 23.2715 11.9238C21.1133 11.9238 19.0332 11.2891 17.4414 10.1562C17.1289 9.93164 16.748 9.98047 16.5332 10.2832ZM27.2461 7.43164C26.1914 8.21289 24.7754 8.65234 23.2715 8.65234C21.7676 8.65234 20.3418 8.21289 19.2871 7.43164C18.9648 7.20703 18.5742 7.29492 18.3691 7.57812C18.1641 7.87109 18.2422 8.23242 18.5449 8.4668C19.834 9.4043 21.5039 9.92188 23.2715 9.92188C25.0586 9.92188 26.7383 9.4043 27.998 8.4668C28.3008 8.23242 28.3594 7.87109 28.1641 7.57812C27.9785 7.29492 27.5781 7.20703 27.2461 7.43164ZM25.3906 4.74609C24.8633 5.14648 24.082 5.38086 23.2715 5.38086C22.4805 5.38086 21.6992 5.14648 21.1523 4.74609C20.8203 4.50195 20.4297 4.57031 20.1953 4.87305C19.9902 5.16602 20.0586 5.56641 20.3516 5.76172C21.0938 6.32812 22.1777 6.66016 23.2715 6.66016C24.3457 6.66016 25.4102 6.32812 26.1914 5.76172C26.4746 5.55664 26.543 5.16602 26.3477 4.87305C26.1328 4.56055 25.7227 4.49219 25.3906 4.74609Z" fill="black" fill-opacity="0.85"/>
 </g>
</svg>
