<?xml version="1.0" encoding="UTF-8"?>
<!--Generator: Apple Native CoreSVG 326-->
<!DOCTYPE svg
PUBLIC "-//W3C//DTD SVG 1.1//EN"
       "http://www.w3.org/Graphics/SVG/1.1/DTD/svg11.dtd">
<svg version="1.1" xmlns="http://www.w3.org/2000/svg" xmlns:xlink="http://www.w3.org/1999/xlink" viewBox="0 0 25.8008 25.459">
 <g>
  <rect height="25.459" opacity="0" width="25.8008" x="0" y="0"/>
  <path d="M25.4395 12.7344C25.4395 19.7461 19.7266 25.459 12.7148 25.459C5.71289 25.459 0 19.7461 0 12.7344C0 5.73242 5.71289 0.0195312 12.7148 0.0195312C19.7266 0.0195312 25.4395 5.73242 25.4395 12.7344ZM10.7227 6.14258L10.7227 19.3066C10.7227 19.707 11.0059 19.9902 11.4062 19.9902C11.7871 19.9902 12.0898 19.6973 12.0898 19.3066L12.0898 6.14258C12.0898 5.75195 11.7871 5.45898 11.4062 5.45898C11.0156 5.45898 10.7227 5.75195 10.7227 6.14258ZM15.9473 8.07617L15.9473 17.373C15.9473 17.7539 16.25 18.0469 16.6406 18.0469C17.0312 18.0469 17.3242 17.7539 17.3242 17.373L17.3242 8.07617C17.3242 7.69531 17.0312 7.39258 16.6406 7.39258C16.25 7.39258 15.9473 7.69531 15.9473 8.07617ZM8.10547 9.16992L8.10547 16.2695C8.10547 16.6699 8.39844 16.9629 8.78906 16.9629C9.17969 16.9629 9.47266 16.6699 9.47266 16.2695L9.47266 9.16992C9.47266 8.7793 9.17969 8.47656 8.78906 8.47656C8.39844 8.47656 8.10547 8.7793 8.10547 9.16992ZM13.3398 10.3418L13.3398 15.1074C13.3398 15.4883 13.6328 15.7812 14.0137 15.7812C14.4043 15.7812 14.707 15.4883 14.707 15.1074L14.707 10.3418C14.707 9.96094 14.4043 9.66797 14.0137 9.66797C13.6328 9.66797 13.3398 9.96094 13.3398 10.3418ZM18.5742 10.8789L18.5742 14.5703C18.5742 14.9609 18.877 15.2539 19.2676 15.2539C19.6582 15.2539 19.9414 14.9707 19.9414 14.5703L19.9414 10.8789C19.9414 10.4785 19.6582 10.1855 19.2676 10.1855C18.877 10.1855 18.5742 10.4883 18.5742 10.8789ZM5.48828 11.5039L5.48828 13.9355C5.48828 14.3262 5.79102 14.6191 6.16211 14.6191C6.55273 14.6191 6.85547 14.3262 6.85547 13.9355L6.85547 11.5039C6.85547 11.123 6.55273 10.8203 6.16211 10.8203C5.78125 10.8203 5.48828 11.123 5.48828 11.5039Z" fill="black" fill-opacity="0.85"/>
 </g>
</svg>
