<?xml version="1.0" ?><!-- Generator: Adobe Illustrator 25.0.0, SVG Export Plug-In . SVG Version: 6.00 Build 0)  --><svg xmlns="http://www.w3.org/2000/svg" xmlns:xlink="http://www.w3.org/1999/xlink" version="1.1" id="Layer_1" x="0px" y="0px" viewBox="0 0 512 512" style="enable-background:new 0 0 512 512;" xml:space="preserve">
<path d="M116.8,256c0,95.6,35.9,183.2,98.1,248.2c10.3,10.8,24.3,9.7,32.2,0.6c8.3-8.8,6.6-22-3.1-32  c-54.8-57.1-84.4-133.5-84.4-216.8S189.2,96.3,244,39.2c9.7-10.3,11.4-23.1,3.1-32.2c-8-8.8-22-10-32.2,0.9  C152.7,72.9,116.8,160.4,116.8,256z M218.9,256c0,67.6,24.3,130.7,67.9,177.7c10,11.1,24.5,11.4,33.1,1.4c8.3-9.4,6-21.7-3.7-32.2  c-35.4-39.7-54.8-91-54.8-146.9s19.4-107.3,54.8-146.9c9.7-10.6,12-22.8,3.7-32.5c-8.6-9.7-23.1-9.7-33.1,1.4  C243.1,125.4,218.9,188.1,218.9,256z M320.7,256c0,38.2,13.1,74.2,35.9,102.4c9.4,12,25.1,12,33.7,2.3c8.6-9.7,4.9-21.1-3.4-32.8  c-15.4-19.4-23.4-44.5-23.4-71.9s8-52.5,23.4-72.2c8.3-11.4,12-22.8,3.4-32.5c-8.6-9.7-24.3-9.7-33.7,2  C333.9,181.6,320.7,217.5,320.7,256z"/>
</svg>