<?xml version="1.0" ?><!-- Generator: Adobe Illustrator 25.0.0, SVG Export Plug-In . SVG Version: 6.00 Build 0)  --><svg xmlns="http://www.w3.org/2000/svg" xmlns:xlink="http://www.w3.org/1999/xlink" version="1.1" id="Layer_1" x="0px" y="0px" viewBox="0 0 512 512" style="enable-background:new 0 0 512 512;" xml:space="preserve">
<path d="M178.7,501.9c5.5,0,10.2-1.9,13.9-5.6c3.7-3.7,5.6-8.3,5.6-13.7v-458c0-5.4-1.9-9.9-5.6-13.7c-3.7-3.7-8.4-5.6-13.9-5.6  c-5.4,0-9.9,1.9-13.4,5.6c-3.6,3.7-5.3,8.3-5.3,13.7v458c0,5.4,1.8,9.9,5.3,13.7C168.9,500,173.4,501.9,178.7,501.9z M98.9,406.1  c5.5,0,10.2-1.9,13.9-5.6c3.7-3.7,5.6-8.3,5.6-13.7V120.4c0-5.4-1.9-10-5.6-13.8c-3.7-3.8-8.4-5.7-13.9-5.7c-5.4,0-9.9,1.9-13.4,5.7  c-3.6,3.8-5.3,8.4-5.3,13.8v266.5c0,5.4,1.8,9.9,5.3,13.7C89,404.2,93.5,406.1,98.9,406.1z M319.9,306.7c5.7-3.2,12-4.9,18.9-5.2  c6.9-0.3,13.4,0.9,19.4,3.6v-228c0-5.2-1.9-9.7-5.6-13.5c-3.7-3.8-8.3-5.7-13.7-5.7c-5.5,0-10.1,1.9-13.7,5.7  c-3.6,3.8-5.3,8.3-5.3,13.5V306.7z M259.1,377.1c5.4,0,9.9-1.8,13.5-5.5c3.6-3.6,5.5-8.2,5.5-13.5V149.2c0-5.4-1.8-9.9-5.5-13.7  c-3.6-3.7-8.2-5.6-13.5-5.6c-5.5,0-10.1,1.9-13.8,5.6c-3.6,3.7-5.5,8.3-5.5,13.7v208.9c0,5.4,1.8,9.9,5.5,13.5  C248.9,375.3,253.5,377.1,259.1,377.1z M19,308.9c5.5,0,10.1-1.9,13.8-5.7c3.6-3.8,5.5-8.3,5.5-13.5v-72c0-5.2-1.8-9.8-5.5-13.7  c-3.6-3.9-8.2-5.8-13.8-5.8c-5.4,0-9.9,1.9-13.5,5.8c-3.6,3.9-5.5,8.4-5.5,13.7v72c0,5.2,1.8,9.7,5.5,13.5  C9.1,307,13.6,308.9,19,308.9z" class="hierarchical-0:secondary SFSymbolsPreview4D4D4D" style="fill: #4D4D4D;"/>
<path d="M420,409.7c11.7,0,21.2-4,28.5-12c7.3-8,10.9-18,10.9-30.1v-93.4c0-12-3.6-22-10.9-29.9c-7.3-7.9-16.8-11.9-28.5-11.9  c-11.7,0-21.2,4-28.5,11.9c-7.3,7.9-10.9,17.9-10.9,29.9v93.4c0,12,3.6,22.1,10.9,30.1C398.8,405.7,408.3,409.7,420,409.7z   M359.6,506.7h121c3.8,0,6.9-1.1,9.2-3.4c2.3-2.3,3.4-5.3,3.4-9.2c0-3.8-1.1-6.9-3.4-9.4c-2.3-2.5-5.3-3.7-9.2-3.7h-47.5v-23.8  c15.7-1.9,29.4-6.9,41.2-15c11.8-8.1,21-18.5,27.7-31.4c6.7-12.8,10-27.3,10-43.5v-20.9c0-3.3-1.3-6.3-3.8-8.8  c-2.5-2.5-5.5-3.8-8.8-3.8c-3.5,0-6.5,1.3-8.9,3.8c-2.5,2.5-3.7,5.5-3.7,8.8v20.9c0,13-2.9,24.5-8.6,34.5  c-5.7,10-13.5,17.8-23.5,23.4c-10,5.6-21.6,8.4-34.7,8.4c-13.2,0-24.7-2.8-34.7-8.4c-10-5.6-17.8-13.4-23.4-23.4  c-5.6-10-8.4-21.5-8.4-34.5v-20.9c0-3.3-1.3-6.3-3.8-8.8c-2.5-2.5-5.5-3.8-9-3.8c-3.3,0-6.2,1.3-8.7,3.8c-2.5,2.5-3.7,5.5-3.7,8.8  v20.9c0,16.2,3.3,30.7,9.9,43.5c6.6,12.8,15.8,23.3,27.7,31.5c11.9,8.2,25.8,13.1,41.6,14.9V481h-47.8c-3.8,0-6.9,1.2-9.3,3.7  c-2.4,2.5-3.6,5.6-3.6,9.4c0,3.8,1.2,6.9,3.6,9.2C352.7,505.5,355.8,506.7,359.6,506.7z" class="hierarchical-1:primary SFSymbolsPreview212121" style="fill: #212121;"/>
</svg>