<?xml version="1.0" encoding="UTF-8"?>
<!--Generator: Apple Native CoreSVG 326-->
<!DOCTYPE svg
PUBLIC "-//W3C//DTD SVG 1.1//EN"
       "http://www.w3.org/Graphics/SVG/1.1/DTD/svg11.dtd">
<svg version="1.1" xmlns="http://www.w3.org/2000/svg" xmlns:xlink="http://www.w3.org/1999/xlink" viewBox="0 0 18.0859 29.4562">
 <g>
  <rect height="29.4562" opacity="0" width="18.0859" x="0" y="0"/>
  <path d="M0 14.733C0 19.9576 1.63086 24.8697 4.55078 28.9713C5.35156 30.0845 6.86523 29.0787 6.06445 27.9849C3.32031 24.1666 1.8457 19.5963 1.8457 14.733C1.8457 9.85993 3.31055 5.28962 6.06445 1.47126C6.88477 0.348212 5.32227-0.589288 4.55078 0.475165C1.62109 4.58649 0 9.48884 0 14.733Z" fill="black" fill-opacity="0.85"/>
  <path d="M6.78711 14.733C6.78711 18.6197 8.00781 22.2916 10.2344 25.2896C11.084 26.4224 12.5684 25.3287 11.7676 24.2838C9.7168 21.5591 8.62305 18.2584 8.62305 14.733C8.62305 11.2076 9.7168 7.89704 11.7676 5.17243C12.5684 4.12751 11.084 3.02399 10.2344 4.16657C8.00781 7.16462 6.78711 10.8267 6.78711 14.733Z" fill="black" fill-opacity="0.85"/>
  <path d="M13.5547 14.733C13.5547 17.2916 14.4336 19.6841 16.0254 21.5299C16.9043 22.5748 18.1934 21.3931 17.5293 20.5533C16.0254 18.6978 15.3906 16.9791 15.3906 14.733C15.3906 12.4771 16.0254 10.7681 17.5391 8.91267C18.2129 8.06306 16.9238 6.85212 16.0254 7.92634C14.4336 9.77204 13.5547 12.1646 13.5547 14.733Z" fill="black" fill-opacity="0.85"/>
 </g>
</svg>
