<?xml version="1.0" encoding="UTF-8"?>
<!--Generator: Apple Native CoreSVG 326-->
<!DOCTYPE svg
PUBLIC "-//W3C//DTD SVG 1.1//EN"
       "http://www.w3.org/Graphics/SVG/1.1/DTD/svg11.dtd">
<svg version="1.1" xmlns="http://www.w3.org/2000/svg" xmlns:xlink="http://www.w3.org/1999/xlink" viewBox="0 0 25.8008 25.459">
 <g>
  <rect height="25.459" opacity="0" width="25.8008" x="0" y="0"/>
  <path d="M25.4395 12.7344C25.4395 19.7461 19.7266 25.459 12.7148 25.459C5.71289 25.459 0 19.7461 0 12.7344C0 5.73242 5.71289 0.0195312 12.7148 0.0195312C19.7266 0.0195312 25.4395 5.73242 25.4395 12.7344ZM20 14.2969C18.0078 15.7324 15.4297 16.5234 12.6953 16.5234C9.98047 16.5234 7.38281 15.7227 5.39062 14.2969C5.01953 14.0332 4.56055 14.0918 4.29688 14.4531C4.05273 14.8047 4.14062 15.2637 4.52148 15.5371C6.83594 17.1582 9.7168 18.0371 12.6953 18.0371C15.6641 18.0371 18.5352 17.1582 20.8691 15.5371C21.2598 15.2734 21.3477 14.8145 21.0938 14.4531C20.8301 14.0918 20.3711 14.0332 20 14.2969ZM17.6855 10.8984C16.3672 11.875 14.5801 12.4219 12.6953 12.4219C10.8105 12.4219 9.02344 11.875 7.70508 10.8984C7.31445 10.6348 6.83594 10.7227 6.60156 11.0645C6.34766 11.416 6.43555 11.8652 6.79688 12.1289C8.4082 13.3105 10.498 13.9551 12.6953 13.9551C14.9219 13.9551 17.0117 13.3105 18.5938 12.1289C18.9551 11.8652 19.043 11.416 18.7891 11.0645C18.5547 10.7227 18.0762 10.6348 17.6855 10.8984ZM15.3613 7.5293C14.6973 8.03711 13.7109 8.33984 12.6953 8.33984C11.6992 8.33984 10.7129 8.03711 10.0293 7.5293C9.62891 7.24609 9.16016 7.30469 8.87695 7.69531C8.63281 8.03711 8.7207 8.51562 9.07227 8.75977C9.99023 9.46289 11.3379 9.87305 12.6953 9.87305C14.0234 9.87305 15.3613 9.46289 16.3281 8.75977C16.6699 8.50586 16.7578 8.03711 16.5234 7.69531C16.25 7.29492 15.7617 7.23633 15.3613 7.5293Z" fill="black" fill-opacity="0.85"/>
 </g>
</svg>
