<?xml version="1.0" encoding="UTF-8"?>
<!--Generator: Apple Native CoreSVG 326-->
<!DOCTYPE svg
PUBLIC "-//W3C//DTD SVG 1.1//EN"
       "http://www.w3.org/Graphics/SVG/1.1/DTD/svg11.dtd">
<svg version="1.1" xmlns="http://www.w3.org/2000/svg" xmlns:xlink="http://www.w3.org/1999/xlink" viewBox="0 0 32.0117 30.0488">
 <g>
  <rect height="30.0488" opacity="0" width="32.0117" x="0" y="0"/>
  <path d="M6.57227 30.0391L25.0781 30.0391C27.3145 30.0391 29.0039 29.8047 30.2148 28.5938C31.4258 27.3828 31.6504 25.7031 31.6504 23.4668L31.6504 6.5625C31.6504 4.32617 31.4258 2.64648 30.2148 1.44531C29.0039 0.234375 27.3145 0 25.0781 0L6.50391 0C4.3457 0 2.64648 0.234375 1.43555 1.44531C0.224609 2.65625 0 4.33594 0 6.50391L0 23.4668C0 25.7031 0.214844 27.3828 1.42578 28.5938C2.64648 29.8047 4.33594 30.0391 6.57227 30.0391ZM6.23047 28.3008C4.81445 28.3008 3.4668 28.0859 2.69531 27.3242C1.93359 26.5527 1.72852 25.2246 1.72852 23.8086L1.72852 6.28906C1.72852 4.81445 1.93359 3.47656 2.69531 2.70508C3.45703 1.93359 4.82422 1.72852 6.28906 1.72852L25.4199 1.72852C26.8359 1.72852 28.1836 1.94336 28.9453 2.71484C29.7168 3.47656 29.9121 4.80469 29.9121 6.2207L29.9121 23.8086C29.9121 25.2246 29.707 26.5527 28.9453 27.3242C28.1836 28.0957 26.8359 28.3008 25.4199 28.3008Z" fill="black" fill-opacity="0.85"/>
  <path d="M5.41992 18.9746L26.2305 18.9746C26.6113 18.9746 26.9141 18.6719 26.9141 18.2812C26.9141 17.9102 26.6113 17.6074 26.2305 17.6074L5.41992 17.6074C5.04883 17.6074 4.73633 17.9102 4.73633 18.2812C4.73633 18.6719 5.04883 18.9746 5.41992 18.9746ZM5.41992 22.3145L26.2305 22.3145C26.6113 22.3145 26.9141 22.0117 26.9141 21.6211C26.9141 21.25 26.6113 20.9473 26.2305 20.9473L5.41992 20.9473C5.04883 20.9473 4.73633 21.25 4.73633 21.6211C4.73633 22.0117 5.04883 22.3145 5.41992 22.3145ZM5.41992 25.6543L18.2129 25.6543C18.5938 25.6543 18.8965 25.3516 18.8965 24.9609C18.8965 24.5898 18.5938 24.2871 18.2129 24.2871L5.41992 24.2871C5.04883 24.2871 4.73633 24.5898 4.73633 24.9609C4.73633 25.3516 5.04883 25.6543 5.41992 25.6543ZM5.89844 9.50195L8.63281 9.50195C9.72656 9.50195 10.4785 8.75 10.4785 7.65625L10.4785 5.72266C10.4785 4.62891 9.72656 3.87695 8.63281 3.87695L5.89844 3.87695C4.80469 3.87695 4.04297 4.62891 4.04297 5.72266L4.04297 7.65625C4.04297 8.75 4.80469 9.50195 5.89844 9.50195Z" fill="black" fill-opacity="0.85"/>
 </g>
</svg>
