<?xml version="1.0" encoding="UTF-8"?>
<!--Generator: Apple Native CoreSVG 326-->
<!DOCTYPE svg
PUBLIC "-//W3C//DTD SVG 1.1//EN"
       "http://www.w3.org/Graphics/SVG/1.1/DTD/svg11.dtd">
<svg version="1.1" xmlns="http://www.w3.org/2000/svg" xmlns:xlink="http://www.w3.org/1999/xlink" viewBox="0 0 41.3379 30.0488">
 <g>
  <rect height="30.0488" opacity="0" width="41.3379" x="0" y="0"/>
  <path d="M6.57227 30.0391L34.4043 30.0391C36.6406 30.0391 38.3398 29.8047 39.5508 28.5938C40.752 27.3828 40.9766 25.7031 40.9766 23.4668L40.9766 6.5625C40.9766 4.32617 40.752 2.64648 39.5508 1.44531C38.3301 0.234375 36.6406 0 34.4043 0L6.50391 0C4.3457 0 2.64648 0.234375 1.43555 1.44531C0.224609 2.65625 0 4.33594 0 6.50391L0 23.4668C0 25.7031 0.214844 27.3828 1.42578 28.5938C2.64648 29.8047 4.33594 30.0391 6.57227 30.0391ZM6.23047 28.3008C4.81445 28.3008 3.4668 28.0859 2.69531 27.3242C1.93359 26.5527 1.72852 25.2246 1.72852 23.8086L1.72852 6.28906C1.72852 4.81445 1.93359 3.47656 2.69531 2.70508C3.45703 1.93359 4.82422 1.72852 6.28906 1.72852L34.7461 1.72852C36.1621 1.72852 37.5098 1.94336 38.2812 2.71484C39.043 3.47656 39.248 4.80469 39.248 6.2207L39.248 23.8086C39.248 25.2246 39.043 26.5527 38.2812 27.3242C37.5098 28.0957 36.1621 28.3008 34.7461 28.3008Z" fill="black" fill-opacity="0.85"/>
  <path d="M5.41992 18.9746L35.5566 18.9746C35.9375 18.9746 36.2402 18.6719 36.2402 18.2812C36.2402 17.9102 35.9375 17.6074 35.5566 17.6074L5.41992 17.6074C5.04883 17.6074 4.73633 17.9102 4.73633 18.2812C4.73633 18.6719 5.04883 18.9746 5.41992 18.9746ZM5.41992 22.3145L35.5566 22.3145C35.9375 22.3145 36.2402 22.0117 36.2402 21.6211C36.2402 21.25 35.9375 20.9473 35.5566 20.9473L5.41992 20.9473C5.04883 20.9473 4.73633 21.25 4.73633 21.6211C4.73633 22.0117 5.04883 22.3145 5.41992 22.3145ZM5.41992 25.6543L27.5391 25.6543C27.9199 25.6543 28.2227 25.3516 28.2227 24.9609C28.2227 24.5898 27.9199 24.2871 27.5391 24.2871L5.41992 24.2871C5.04883 24.2871 4.73633 24.5898 4.73633 24.9609C4.73633 25.3516 5.04883 25.6543 5.41992 25.6543ZM5.89844 9.50195L8.63281 9.50195C9.72656 9.50195 10.4785 8.75 10.4785 7.65625L10.4785 5.72266C10.4785 4.62891 9.72656 3.87695 8.63281 3.87695L5.89844 3.87695C4.80469 3.87695 4.04297 4.62891 4.04297 5.72266L4.04297 7.65625C4.04297 8.75 4.80469 9.50195 5.89844 9.50195Z" fill="black" fill-opacity="0.85"/>
 </g>
</svg>
