<?xml version="1.0" encoding="UTF-8"?>
<!--Generator: Apple Native CoreSVG 326-->
<!DOCTYPE svg
PUBLIC "-//W3C//DTD SVG 1.1//EN"
       "http://www.w3.org/Graphics/SVG/1.1/DTD/svg11.dtd">
<svg version="1.1" xmlns="http://www.w3.org/2000/svg" xmlns:xlink="http://www.w3.org/1999/xlink" viewBox="0 0 29.198 29.4556">
 <g>
  <rect height="29.4556" opacity="0" width="29.198" x="0" y="0"/>
  <path d="M8.29263 9.13189C6.17247 9.96113 4.26313 11.2598 2.63612 12.9846C2.40174 13.2288 2.06971 13.2288 1.83534 13.0042L0.155648 11.2952C-0.0396642 11.0803-0.0494299 10.8167 0.116586 10.6018C1.4592 8.9425 3.35393 7.49101 5.57004 6.40805ZM28.7103 10.6018C28.8764 10.8167 28.8861 11.0803 28.6713 11.2952L26.9916 12.9749C26.7572 13.2092 26.4349 13.219 26.2103 12.9944C23.1537 9.71314 19.0228 7.97486 14.4135 7.97486C14.069 7.97486 13.7272 7.98465 13.3943 8.02355L10.1708 4.79858C11.548 4.49607 12.975 4.33228 14.4135 4.33228C20.1849 4.33228 25.7611 6.97876 28.7103 10.6018Z" fill="black" fill-opacity="0.85"/>
  <path d="M14.4983 15.3404C14.4701 15.3381 14.4418 15.338 14.4135 15.3381C11.9037 15.3284 9.41346 16.5295 7.89002 18.219C7.63612 18.4827 7.32362 18.512 7.06971 18.2678L5.17518 16.3733C4.96034 16.1682 4.96034 15.9143 5.13612 15.6995C6.49271 14.0422 8.68049 12.7004 11.2354 12.076ZM23.6908 15.6995C23.8666 15.9143 23.8568 16.1877 23.6517 16.3733L22.6933 17.3268L17.3972 12.0283C20.038 12.632 22.3067 13.9999 23.6908 15.6995Z" fill="black" fill-opacity="0.85"/>
  <path d="M18.476 20.9729C18.642 21.1975 18.6029 21.4514 18.4174 21.6272L15.3705 24.5471C14.892 25.0159 14.6674 25.1331 14.4135 25.1331C14.1596 25.1331 13.9349 25.0061 13.4564 24.5471L10.4193 21.6272C10.2338 21.4514 10.1849 21.2366 10.3119 21.0315C11.1029 19.9768 12.6556 19.0491 14.4135 19.0491C16.1322 19.0491 17.6849 19.9475 18.476 20.9729Z" fill="black" fill-opacity="0.85"/>
  <path d="M25.1752 24.0881C25.4974 24.4202 26.0346 24.4202 26.3568 24.0881C26.6791 23.7561 26.6791 23.2385 26.3568 22.9163L5.04823 1.60767C4.72596 1.28541 4.18885 1.27564 3.85682 1.60767C3.54432 1.92017 3.54432 2.47681 3.85682 2.78931Z" fill="black" fill-opacity="0.85"/>
 </g>
</svg>
