<?xml version="1.0" ?><!-- Generator: Adobe Illustrator 25.0.0, SVG Export Plug-In . SVG Version: 6.00 Build 0)  --><svg xmlns="http://www.w3.org/2000/svg" xmlns:xlink="http://www.w3.org/1999/xlink" version="1.1" id="Layer_1" x="0px" y="0px" viewBox="0 0 512 512" style="enable-background:new 0 0 512 512;" xml:space="preserve">
<path d="M33.6,226.9c4.2,4.4,10.7,4.2,14.9-0.2c54.7-58,126.8-88.7,207.5-88.7c81.2,0,153.7,30.9,207.9,89c4,4,10.2,4,14.5-0.4  l30.7-30.7c3.8-4,3.8-8.9,0.7-12.7C457.5,118.6,359.2,71.2,256,71.2c-103,0-201.7,47.4-253.7,111.9c-3.1,3.8-3.1,8.7,0.7,12.7  L33.6,226.9z M126.1,319.8c4.7,4.7,10.7,4,15.1-0.9c26.7-29.6,70.3-51.1,114.8-50.9c45.1-0.2,88.5,22,115.6,51.6  c4.2,4.7,10,4.7,14.5,0l34.5-34.2c3.8-3.6,4-8.5,0.7-12.5c-33.6-41.1-95.8-72.1-165.2-72.1c-69.4,0-131.4,30.9-165.2,72.1  c-3.1,4-2.9,8.5,0.9,12.5L126.1,319.8z M256,440.8c4.9,0,9.1-2.2,17.8-10.7l54.3-52c3.6-3.3,4.2-8.2,1.3-12.2  c-14.7-18.7-42-34.9-73.4-34.9c-32,0-59.6,16.9-73.8,36.2c-2.4,3.6-1.3,7.6,2,10.9l54,52C246.9,438.4,251.1,440.8,256,440.8z"/>
</svg>