<?xml version="1.0" encoding="UTF-8"?>
<!--Generator: Apple Native CoreSVG 326-->
<!DOCTYPE svg
PUBLIC "-//W3C//DTD SVG 1.1//EN"
       "http://www.w3.org/Graphics/SVG/1.1/DTD/svg11.dtd">
<svg version="1.1" xmlns="http://www.w3.org/2000/svg" xmlns:xlink="http://www.w3.org/1999/xlink" viewBox="0 0 35.498 23.3887">
 <g>
  <rect height="23.3887" opacity="0" width="35.498" x="0" y="0"/>
  <path d="M17.5684 0C14.6582 0 11.8457 0.849609 9.58008 2.43164C9.21875 2.70508 9.13086 3.1543 9.36523 3.48633C9.61914 3.83789 10.0684 3.89648 10.4297 3.64258C12.373 2.24609 14.9121 1.46484 17.5684 1.46484C20.2441 1.46484 22.7637 2.23633 24.6973 3.64258C25.0586 3.89648 25.5078 3.83789 25.7715 3.48633C26.0156 3.14453 25.918 2.69531 25.5566 2.43164C23.2715 0.849609 20.4688 0 17.5684 0Z" fill="black" fill-opacity="0.85"/>
  <path d="M17.5684 3.98438C15.4199 3.98438 13.3789 4.60938 11.8066 5.76172C11.4551 6.01562 11.377 6.45508 11.6211 6.79688C11.8457 7.12891 12.3047 7.2168 12.6855 6.95312C13.9746 6.00586 15.7227 5.46875 17.5684 5.46875C19.4141 5.46875 21.1621 6.00586 22.4512 6.95312C22.832 7.2168 23.291 7.12891 23.5156 6.79688C23.7598 6.45508 23.6719 6.01562 23.3203 5.76172C21.7773 4.60938 19.7461 3.98438 17.5684 3.98438Z" fill="black" fill-opacity="0.85"/>
  <path d="M17.5684 7.96875C16.2402 7.96875 14.9316 8.36914 14.0332 9.05273C13.6914 9.29688 13.6035 9.75586 13.8379 10.0879C14.1113 10.4688 14.5703 10.5176 14.9609 10.2441C15.625 9.74609 16.5918 9.45312 17.5684 9.45312C18.5645 9.45312 19.5312 9.74609 20.1758 10.2441C20.5664 10.5273 21.0352 10.4785 21.3086 10.0879C21.5332 9.75586 21.4355 9.30664 21.1035 9.05273C20.1758 8.36914 18.8672 7.96875 17.5684 7.96875Z" fill="black" fill-opacity="0.85"/>
  <path d="M3.26172 23.3594L31.875 23.3594C33.877 23.3594 35.1367 22.1191 35.1367 20.1465L35.1367 16.2109C35.1367 14.2383 33.877 12.998 31.875 12.998L3.26172 12.998C1.25977 12.998 0 14.2383 0 16.2109L0 20.1465C0 22.1191 1.25977 23.3594 3.26172 23.3594ZM4.52148 18.4082C4.05273 18.4082 3.7207 18.0762 3.7207 17.627C3.7207 17.1582 4.05273 16.8262 4.52148 16.8262L8.84766 16.8262C9.29688 16.8262 9.62891 17.1582 9.62891 17.627C9.62891 18.0762 9.29688 18.4082 8.84766 18.4082ZM15.4297 19.7852C14.541 19.7852 13.8086 19.0527 13.8086 18.1641C13.8086 17.2949 14.541 16.5625 15.4297 16.5625C16.3086 16.5625 17.041 17.2949 17.041 18.1641C17.041 19.0527 16.3086 19.7852 15.4297 19.7852ZM20.2637 19.7852C19.3848 19.7852 18.6426 19.0527 18.6426 18.1641C18.6426 17.2949 19.3848 16.5625 20.2637 16.5625C21.1523 16.5625 21.875 17.2949 21.875 18.1641C21.875 19.0527 21.1523 19.7852 20.2637 19.7852ZM25.1074 19.7852C24.2188 19.7852 23.4863 19.0527 23.4863 18.1641C23.4863 17.2949 24.2188 16.5625 25.1074 16.5625C25.9863 16.5625 26.7188 17.2949 26.7188 18.1641C26.7188 19.0527 25.9863 19.7852 25.1074 19.7852ZM29.9414 19.7852C29.0527 19.7852 28.3203 19.0625 28.3203 18.1738C28.3203 17.2949 29.0527 16.5625 29.9414 16.5625C30.8301 16.5625 31.5527 17.2949 31.5527 18.1738C31.5527 19.0625 30.8301 19.7852 29.9414 19.7852Z" fill="black" fill-opacity="0.85"/>
 </g>
</svg>
