<?xml version="1.0" encoding="UTF-8"?>
<!--Generator: Apple Native CoreSVG 326-->
<!DOCTYPE svg
PUBLIC "-//W3C//DTD SVG 1.1//EN"
       "http://www.w3.org/Graphics/SVG/1.1/DTD/svg11.dtd">
<svg version="1.1" xmlns="http://www.w3.org/2000/svg" xmlns:xlink="http://www.w3.org/1999/xlink" viewBox="0 0 29.198 20.8105">
 <g>
  <rect height="20.8105" opacity="0" width="29.198" x="0" y="0"/>
  <path d="M1.83534 8.68164C2.06971 8.90625 2.40174 8.90625 2.63612 8.66211C5.72205 5.39062 9.82362 3.65234 14.4135 3.65234C19.0228 3.65234 23.1537 5.39062 26.2103 8.67188C26.4349 8.89648 26.7572 8.88672 26.9916 8.65234L28.6713 6.97266C28.8861 6.75781 28.8764 6.49414 28.7103 6.2793C25.7611 2.65625 20.1849 0.00976562 14.4135 0.00976562C8.64198 0.00976562 3.05604 2.64648 0.116586 6.2793C-0.0494299 6.49414-0.0396642 6.75781 0.155648 6.97266Z" fill="black" fill-opacity="0.85"/>
  <path d="M7.06971 13.9453C7.32362 14.1895 7.63612 14.1602 7.89002 13.8965C9.41346 12.207 11.9037 11.0059 14.4135 11.0156C16.9428 11.0059 19.433 12.2363 20.9857 13.9258C21.2103 14.1797 21.5033 14.1699 21.7572 13.9355L23.6517 12.0508C23.8568 11.8652 23.8666 11.5918 23.6908 11.377C21.806 9.0625 18.2806 7.36328 14.4135 7.36328C10.5463 7.36328 7.03065 9.0625 5.13612 11.377C4.96034 11.5918 4.96034 11.8457 5.17518 12.0508Z" fill="black" fill-opacity="0.85"/>
  <path d="M14.4135 20.8105C14.6674 20.8105 14.892 20.6934 15.3705 20.2246L18.4174 17.3047C18.6029 17.1289 18.642 16.875 18.476 16.6504C17.6849 15.625 16.1322 14.7266 14.4135 14.7266C12.6556 14.7266 11.1029 15.6543 10.3119 16.709C10.1849 16.9141 10.2338 17.1289 10.4193 17.3047L13.4564 20.2246C13.9349 20.6836 14.1596 20.8105 14.4135 20.8105Z" fill="black" fill-opacity="0.85"/>
 </g>
</svg>
