<?xml version="1.0" encoding="UTF-8"?>
<!--Generator: Apple Native CoreSVG 326-->
<!DOCTYPE svg
PUBLIC "-//W3C//DTD SVG 1.1//EN"
       "http://www.w3.org/Graphics/SVG/1.1/DTD/svg11.dtd">
<svg version="1.1" xmlns="http://www.w3.org/2000/svg" xmlns:xlink="http://www.w3.org/1999/xlink" viewBox="0 0 23.3203 22.959">
 <g>
  <rect height="22.959" opacity="0" width="23.3203" x="0" y="0"/>
  <path d="M22.959 3.76953L22.959 19.1992C22.959 21.6797 21.6797 22.959 19.1504 22.959L3.79883 22.959C1.2793 22.959 0 21.6992 0 19.1992L0 3.76953C0 1.26953 1.2793 0 3.79883 0L19.1504 0C21.6797 0 22.959 1.2793 22.959 3.76953ZM9.08203 15.0488C8.98438 15.1953 9.01367 15.3613 9.15039 15.4883L10.8887 17.168C11.1719 17.4512 11.3086 17.5293 11.4941 17.5293C11.6699 17.5293 11.8066 17.4609 12.1094 17.168L13.8477 15.4883C13.9746 15.3613 14.0039 15.1562 13.877 15C13.3887 14.3359 12.4316 13.8672 11.4941 13.8672C10.5371 13.8672 9.58984 14.3457 9.08203 15.0488ZM6.11328 11.9824C5.98633 12.1387 6.00586 12.3242 6.15234 12.4805L7.2168 13.5645C7.40234 13.7402 7.63672 13.7598 7.83203 13.5352C8.7207 12.5488 10.127 11.9043 11.4941 11.9238C12.8418 11.9043 14.2578 12.5488 15.166 13.5449C15.3516 13.75 15.5762 13.7402 15.7617 13.5645L16.8457 12.4805C16.9922 12.334 17.002 12.1289 16.8652 11.9824C15.7031 10.5664 13.623 9.64844 11.4941 9.64844C9.35547 9.64844 7.27539 10.5664 6.11328 11.9824ZM3.23242 9.05273C3.0957 9.22852 3.125 9.42383 3.27148 9.58008L4.21875 10.5469C4.36523 10.7422 4.63867 10.7324 4.82422 10.5371C6.54297 8.70117 8.86719 7.70508 11.4941 7.70508C14.1113 7.70508 16.4648 8.68164 18.1836 10.5469C18.3496 10.7227 18.5938 10.7227 18.7598 10.5371L19.707 9.58008C19.8633 9.42383 19.8828 9.22852 19.7461 9.05273C17.9883 6.9043 14.7168 5.44922 11.4941 5.44922C8.26172 5.44922 4.99023 6.89453 3.23242 9.05273Z" fill="black" fill-opacity="0.85"/>
 </g>
</svg>
