<?xml version="1.0" encoding="UTF-8"?>
<!--Generator: Apple Native CoreSVG 326-->
<!DOCTYPE svg
PUBLIC "-//W3C//DTD SVG 1.1//EN"
       "http://www.w3.org/Graphics/SVG/1.1/DTD/svg11.dtd">
<svg version="1.1" xmlns="http://www.w3.org/2000/svg" xmlns:xlink="http://www.w3.org/1999/xlink" viewBox="0 0 35.498 23.3887">
 <g>
  <rect height="23.3887" opacity="0" width="35.498" x="0" y="0"/>
  <path d="M17.5586 0C14.6484 0 11.8359 0.849609 9.57031 2.43164C9.20898 2.70508 9.12109 3.1543 9.35547 3.48633C9.60938 3.83789 10.0586 3.89648 10.4199 3.64258C12.3633 2.24609 14.9023 1.46484 17.5586 1.46484C20.2344 1.46484 22.7539 2.23633 24.6875 3.64258C25.0488 3.89648 25.498 3.83789 25.7617 3.48633C26.0059 3.14453 25.9082 2.69531 25.5469 2.43164C23.2617 0.849609 20.459 0 17.5586 0Z" fill="black" fill-opacity="0.85"/>
  <path d="M17.5684 3.98438C15.4199 3.98438 13.3789 4.60938 11.8066 5.76172C11.4551 6.01562 11.377 6.45508 11.6211 6.79688C11.8457 7.12891 12.3047 7.2168 12.6855 6.95312C13.9746 6.00586 15.7227 5.46875 17.5684 5.46875C19.4141 5.46875 21.1621 6.00586 22.4512 6.95312C22.832 7.2168 23.291 7.12891 23.5156 6.79688C23.7598 6.45508 23.6719 6.01562 23.3203 5.76172C21.7773 4.60938 19.7461 3.98438 17.5684 3.98438Z" fill="black" fill-opacity="0.85"/>
  <path d="M17.5586 7.96875C16.2305 7.96875 14.9219 8.36914 14.0234 9.05273C13.6816 9.29688 13.5938 9.75586 13.8281 10.0879C14.1016 10.4688 14.5605 10.5176 14.9512 10.2441C15.6152 9.74609 16.582 9.45312 17.5586 9.45312C18.5547 9.45312 19.5215 9.74609 20.166 10.2441C20.5566 10.5273 21.0254 10.4785 21.2988 10.0879C21.5234 9.75586 21.4258 9.30664 21.0938 9.05273C20.166 8.36914 18.8574 7.96875 17.5586 7.96875Z" fill="black" fill-opacity="0.85"/>
  <path d="M3.26172 23.3594L31.875 23.3594C33.877 23.3594 35.1367 22.1191 35.1367 20.1465L35.1367 16.2109C35.1367 14.2383 33.877 12.998 31.875 12.998L3.26172 12.998C1.25977 12.998 0 14.2383 0 16.2109L0 20.1465C0 22.1191 1.25977 23.3594 3.26172 23.3594ZM3.26172 21.6309C2.32422 21.6309 1.72852 21.0645 1.72852 20.1465L1.72852 16.2109C1.72852 15.293 2.32422 14.7266 3.26172 14.7266L31.875 14.7266C32.8125 14.7266 33.4082 15.293 33.4082 16.2109L33.4082 20.1465C33.4082 21.0645 32.8125 21.6309 31.875 21.6309ZM4.83398 18.3984L9.05273 18.3984C9.50195 18.3984 9.82422 18.0762 9.82422 17.6367C9.82422 17.1875 9.50195 16.8652 9.05273 16.8652L4.83398 16.8652C4.39453 16.8652 4.07227 17.1875 4.07227 17.6367C4.07227 18.0762 4.39453 18.3984 4.83398 18.3984ZM15.4883 19.7461C16.3379 19.7461 17.0508 19.0332 17.0508 18.1641C17.0508 17.3145 16.3379 16.6016 15.4883 16.6016C14.6191 16.6016 13.9062 17.3145 13.9062 18.1641C13.9062 19.0332 14.6191 19.7461 15.4883 19.7461ZM20.2051 19.7461C21.0645 19.7461 21.7676 19.0332 21.7676 18.1641C21.7676 17.3145 21.0645 16.6016 20.2051 16.6016C19.3359 16.6016 18.623 17.3145 18.623 18.1641C18.623 19.0332 19.3359 19.7461 20.2051 19.7461ZM24.9316 19.7461C25.7812 19.7461 26.4844 19.0332 26.4844 18.1641C26.4844 17.3145 25.7812 16.6016 24.9316 16.6016C24.0625 16.6016 23.3496 17.3145 23.3496 18.1641C23.3496 19.0332 24.0625 19.7461 24.9316 19.7461ZM29.6484 19.7461C30.498 19.7461 31.2109 19.043 31.2109 18.1738C31.2109 17.3145 30.498 16.6016 29.6484 16.6016C28.7793 16.6016 28.0664 17.3145 28.0664 18.1738C28.0664 19.043 28.7793 19.7461 29.6484 19.7461Z" fill="black" fill-opacity="0.85"/>
 </g>
</svg>
