<?xml version="1.0" encoding="UTF-8"?>
<!--Generator: Apple Native CoreSVG 326-->
<!DOCTYPE svg
PUBLIC "-//W3C//DTD SVG 1.1//EN"
       "http://www.w3.org/Graphics/SVG/1.1/DTD/svg11.dtd">
<svg version="1.1" xmlns="http://www.w3.org/2000/svg" xmlns:xlink="http://www.w3.org/1999/xlink" viewBox="0 0 29.198 27.3535">
 <g>
  <rect height="27.3535" opacity="0" width="29.198" x="0" y="0"/>
  <path d="M23.6908 14.6484C23.8666 14.8633 23.8568 15.1367 23.6517 15.3223L21.7572 17.207C21.5033 17.4414 21.2103 17.4512 20.9857 17.1973C20.0191 16.1455 18.6891 15.2716 17.2123 14.7645L17.2355 10.9379C19.9443 11.5249 22.2783 12.9139 23.6908 14.6484ZM11.6306 14.7553C10.1613 15.2538 8.83835 16.1163 7.89002 17.168C7.63612 17.4316 7.32362 17.4609 7.06971 17.2168L5.17518 15.3223C4.96034 15.1172 4.96034 14.8633 5.13612 14.6484C6.55762 12.9119 8.89176 11.5216 11.6023 10.9358Z" fill="black" fill-opacity="0.85"/>
  <path d="M11.5745 7.17259C8.13223 7.72869 5.06864 9.35481 2.63612 11.9336C2.40174 12.1777 2.06971 12.1777 1.83534 11.9531L0.155648 10.2441C-0.0396642 10.0293-0.0494299 9.76562 0.116586 9.55078C2.56461 6.52532 6.84819 4.19072 11.5473 3.50078ZM28.7103 9.55078C28.8764 9.76562 28.8861 10.0293 28.6713 10.2441L26.9916 11.9238C26.7572 12.1582 26.4349 12.168 26.2103 11.9434C23.7992 9.3551 20.7198 7.72689 17.2583 7.17165L17.2805 3.5017C21.977 4.19397 26.2545 6.53379 28.7103 9.55078Z" fill="black" fill-opacity="0.85"/>
  <path d="M14.4135 23.9551C15.4096 23.9551 16.2201 23.1445 16.2201 22.1582C16.2201 21.1621 15.4096 20.3516 14.4135 20.3516C13.4271 20.3516 12.6166 21.1523 12.6166 22.1582C12.6166 23.1445 13.4271 23.9551 14.4135 23.9551ZM14.4232 18.291C14.9896 18.291 15.3803 17.9199 15.39 17.334C15.4193 12.5 15.4486 7.65625 15.4779 2.82227C15.4779 2.20703 14.9994 1.79688 14.4135 1.79688C13.8373 1.79688 13.349 2.20703 13.349 2.82227C13.3881 7.65625 13.4174 12.5 13.4564 17.334C13.4662 17.9199 13.8568 18.291 14.4232 18.291Z" fill="black" fill-opacity="0.85"/>
 </g>
</svg>
