<?xml version="1.0" ?><!-- Generator: Adobe Illustrator 25.0.0, SVG Export Plug-In . SVG Version: 6.00 Build 0)  --><svg xmlns="http://www.w3.org/2000/svg" xmlns:xlink="http://www.w3.org/1999/xlink" version="1.1" id="Layer_1" x="0px" y="0px" viewBox="0 0 512 512" style="enable-background:new 0 0 512 512;" xml:space="preserve">
<path d="M87.3,512h337.3c29.1,0,50.9-7.2,65.5-21.6c14.6-14.4,21.8-35.9,21.8-64.7V86.2c0-28.7-7.3-50.3-21.8-64.7  C475.6,7.2,453.8,0,424.7,0H87.3C58.2,0,36.4,7.2,21.8,21.6C7.3,35.9,0,57.5,0,86.2v339.6c0,28.7,7.3,50.3,21.8,64.7  C36.4,504.8,58.2,512,87.3,512z M87.9,467.2c-13.9,0-24.6-3.7-32-11c-7.4-7.3-11.1-18.2-11.1-32.7V88.4c0-14.5,3.7-25.4,11.1-32.7  c7.4-7.3,18.1-11,32-11h336.2c13.7,0,24.3,3.7,31.8,11c7.5,7.3,11.3,18.2,11.3,32.7v335.1c0,14.5-3.8,25.4-11.3,32.7  c-7.5,7.3-18.1,11-31.8,11H87.9z" class="hierarchical-0:secondary SFSymbolsPreview4D4D4D" style="fill: #4D4D4D;"/>
<path d="M101.8,237.2c1.9,2.2,4.2,3.3,7,3.2c2.8-0.1,5.2-1.3,7.2-3.5c18.2-19.5,39.2-34.3,63.1-44.5c23.9-10.2,49.7-15.3,77.3-15.3  c27.4,0,53.2,5.1,77.3,15.3c24.1,10.2,45.2,25.1,63.4,44.8c2,1.9,4.4,2.8,7,2.9c2.6,0.1,4.8-1,6.7-3.2l20.9-21.1  c3.7-3.7,3.9-7.7,0.6-12c-12.6-15.4-28.3-28.9-47-40.6c-18.7-11.7-39.2-20.7-61.3-27.1c-22.2-6.4-44.6-9.6-67.4-9.6  c-23,0-45.6,3.2-67.7,9.6c-22.2,6.4-42.6,15.4-61.3,27c-18.7,11.6-34.4,25.2-47,40.7c-3.2,4.3-2.9,8.3,0.8,12L101.8,237.2z   M165.5,300.9c4.3,4.6,9,4.4,14.2-0.6c9.5-10.6,21-18.9,34.8-25c13.7-6.1,27.7-9.1,42-8.9c14.1-0.2,28,2.8,41.9,9  c13.8,6.2,25.5,14.6,35.2,25.2c2,2.2,4.4,3.4,7,3.5c2.6,0.1,4.8-1,6.7-3.2l23.6-23.6c4.1-3.7,4.3-7.6,0.6-11.7  c-12.6-15.4-29.2-27.6-49.9-36.7c-20.7-9.1-42.3-13.6-64.9-13.6c-22.8,0-44.5,4.5-65.2,13.6s-37.3,21.3-49.9,36.7  c-3.5,4.1-3.2,8,0.8,11.7L165.5,300.9z M256.4,384.9c3.2,0,7.8-2.7,13.9-8.1l37-35.9c3.7-3.7,4-7.6,0.8-11.7  c-5.6-7.4-13.1-13.4-22.5-18.1c-9.5-4.6-19.2-7-29.2-7c-10.4,0-20.3,2.4-29.8,7.2c-9.5,4.8-17.1,11.2-22.8,19.2  c-2.4,3.3-1.9,6.8,1.7,10.3l37.3,35.9C248.5,382.2,253.1,384.9,256.4,384.9z" class="hierarchical-1:primary SFSymbolsPreview212121" style="fill: #212121;"/>
</svg>