<?xml version="1.0" ?><!-- Generator: Adobe Illustrator 25.0.0, SVG Export Plug-In . SVG Version: 6.00 Build 0)  --><svg xmlns="http://www.w3.org/2000/svg" xmlns:xlink="http://www.w3.org/1999/xlink" version="1.1" id="Layer_1" x="0px" y="0px" viewBox="0 0 512 512" style="enable-background:new 0 0 512 512;" xml:space="preserve">
<path d="M443.4,460.2c6.7,6.7,17.8,6.7,24.2,0c6.7-6.9,6.7-17.6,0-24.2L69,37.1c-6.7-6.7-17.8-6.7-24.5,0c-6.7,6.4-6.7,17.8,0,24.2  L443.4,460.2z M246.4,178c3.3-0.7,6.9-0.9,10.2-0.9c83.2,1.3,152.5,33.1,207.2,88.9c4.2,4,10.2,3.8,14.5-0.4l30.7-30.7  c4-4,3.8-8.9,0.9-12.7c-53.6-63.6-150.7-111.8-253.9-111.8c-22.5,0-44.7,2.2-69.8,7.3L246.4,178z M95.6,150  c-37.4,19.1-69.8,44-93.4,72.3c-3.1,3.8-3.1,8.7,0.7,12.7l30.9,30.7c4.2,4.2,10.4,4.2,14.7-0.2c28-29.6,59.8-52,96.1-66.5L95.6,150z   M194.8,248.7c-43.4,11.8-80.3,35.1-104.1,63.4c-3.1,4-2.9,8.7,0.9,12.5l34.5,34.2c4.7,4.4,10.7,4,15.1-0.9  c26.5-29.3,68.5-49.8,112.1-50.5L194.8,248.7z M406.7,338.3l13.8-13.8c4-4,4-8.4,0.9-12.5c-22.5-27.8-61.6-52.5-103.8-62.9  L406.7,338.3z M256.2,370.1c-31.8,0-59.6,16.9-73.8,36.2c-2.2,3.6-1.3,7.6,2,10.9l54,52c8.7,8.4,12.9,10.7,17.8,10.7  c4.9,0,9.1-2.4,18-10.7l53.8-52c3.6-3.3,4.4-8.2,1.3-12.2C314.6,386.3,287.5,370.1,256.2,370.1z"/>
</svg>