<?xml version="1.0" encoding="UTF-8"?>
<!--Generator: Apple Native CoreSVG 326-->
<!DOCTYPE svg
PUBLIC "-//W3C//DTD SVG 1.1//EN"
       "http://www.w3.org/Graphics/SVG/1.1/DTD/svg11.dtd">
<svg version="1.1" xmlns="http://www.w3.org/2000/svg" xmlns:xlink="http://www.w3.org/1999/xlink" viewBox="0 0 25.8008 25.459">
 <g>
  <rect height="25.459" opacity="0" width="25.8008" x="0" y="0"/>
  <path d="M12.7148 25.4395C19.7363 25.4395 25.4395 19.7461 25.4395 12.7246C25.4395 5.70312 19.7363 0 12.7148 0C5.69336 0 0 5.70312 0 12.7246C0 19.7461 5.69336 25.4395 12.7148 25.4395ZM12.7148 23.623C6.68945 23.623 1.81641 18.75 1.81641 12.7246C1.81641 6.69922 6.68945 1.82617 12.7148 1.82617C18.7402 1.82617 23.6133 6.69922 23.6133 12.7246C23.6133 18.75 18.7402 23.623 12.7148 23.623Z" fill="black" fill-opacity="0.85"/>
  <path d="M5.60547 11.8066C5.75195 11.9824 6.01562 11.9824 6.18164 11.7969C7.87109 10 10.1465 9.02344 12.7051 9.02344C15.2734 9.02344 17.5781 9.98047 19.248 11.8066C19.4141 11.9727 19.6582 11.9727 19.8145 11.7969L20.7422 10.8594C20.8887 10.7129 20.8984 10.5176 20.7715 10.3516C19.0527 8.25195 15.8594 6.82617 12.7051 6.82617C9.56055 6.82617 6.35742 8.24219 4.64844 10.3516C4.52148 10.5176 4.54102 10.7129 4.67773 10.8594Z" fill="black" fill-opacity="0.85"/>
  <path d="M8.53516 14.7461C8.71094 14.9316 8.93555 14.9121 9.13086 14.7266C10 13.7598 11.377 13.1348 12.7051 13.1543C14.0332 13.1348 15.4199 13.7598 16.3086 14.7363C16.4844 14.9219 16.7188 14.9316 16.875 14.7461L17.9297 13.7012C18.0762 13.5645 18.0957 13.3496 17.959 13.2031C16.8262 11.8164 14.7949 10.9375 12.7051 10.9375C10.625 10.9375 8.59375 11.8262 7.46094 13.2031C7.33398 13.3594 7.34375 13.5547 7.49023 13.7012Z" fill="black" fill-opacity="0.85"/>
  <path d="M12.7051 18.623C12.8809 18.623 12.998 18.5547 13.3008 18.2812L15 16.6406C15.1367 16.5039 15.1562 16.3184 15.0391 16.1621C14.5605 15.5176 13.6328 15.0488 12.7051 15.0488C11.7773 15.0488 10.8594 15.5273 10.3613 16.2109C10.2539 16.3477 10.2832 16.5039 10.4199 16.6406L12.1191 18.2812C12.4121 18.5449 12.5391 18.623 12.7051 18.623Z" fill="black" fill-opacity="0.85"/>
 </g>
</svg>
