<?xml version="1.0" encoding="UTF-8"?>
<!--Generator: Apple Native CoreSVG 326-->
<!DOCTYPE svg
PUBLIC "-//W3C//DTD SVG 1.1//EN"
       "http://www.w3.org/Graphics/SVG/1.1/DTD/svg11.dtd">
<svg version="1.1" xmlns="http://www.w3.org/2000/svg" xmlns:xlink="http://www.w3.org/1999/xlink" viewBox="0 0 26.3086 21.9824">
 <g>
  <rect height="21.9824" opacity="0" width="26.3086" x="0" y="0"/>
  <path d="M1.5332 7.38281C3.32031 6.76758 5.20508 6.44531 7.02148 6.44531C9.44336 6.44531 11.123 6.8457 13.3984 6.8457C15.5762 6.8457 16.9629 5.36133 16.9629 3.41797C16.9629 1.44531 15.4688 0.00976562 13.5742 0.00976562C12.0996 0.00976562 10.8496 0.957031 10.3906 2.1875C10.2246 2.55859 10.3125 2.96875 10.7031 3.14453C11.0547 3.31055 11.4551 3.18359 11.6797 2.74414C11.9336 2.01172 12.6758 1.42578 13.5742 1.42578C14.6875 1.42578 15.5469 2.23633 15.5469 3.41797C15.5469 4.61914 14.6973 5.42969 13.3984 5.42969C11.2012 5.42969 9.52148 5.0293 7.02148 5.0293C4.98047 5.0293 2.91992 5.41016 1.08398 6.04492C0.625 6.18164 0.458984 6.57227 0.576172 6.95312C0.683594 7.32422 1.05469 7.5293 1.5332 7.38281ZM21.3867 13.1641C24.3164 13.1641 26.3086 11.3477 26.3086 8.79883C26.3086 6.31836 24.4043 4.47266 21.9922 4.47266C19.7363 4.47266 18.0664 6.08398 17.793 8.1543C17.7344 8.60352 17.998 8.96484 18.3887 9.01367C18.7891 9.0625 19.1309 8.80859 19.2188 8.31055C19.4141 6.91406 20.5664 5.88867 21.9922 5.88867C23.6035 5.88867 24.8926 7.10938 24.8926 8.79883C24.8926 10.5371 23.5254 11.7383 21.3867 11.7383C17.4902 11.7383 13.3398 9.55078 8.27148 9.55078C5.64453 9.55078 3.30078 10 1.08398 10.8008C0.644531 10.957 0.458984 11.3477 0.576172 11.7188C0.683594 12.0996 1.06445 12.3145 1.5332 12.1484C3.59375 11.3184 5.75195 10.9766 8.27148 10.9766C13.3008 10.9766 17.1387 13.1641 21.3867 13.1641ZM13.418 21.9824C15.293 21.9824 16.7383 20.5859 16.7383 18.6035C16.7383 15.7031 13.7402 14.082 8.24219 14.082C5.83984 14.082 3.24219 14.5605 1.08398 15.3223C0.644531 15.4688 0.458984 15.8594 0.576172 16.2305C0.683594 16.6113 1.06445 16.8359 1.5332 16.6699C3.57422 15.918 5.92773 15.498 8.24219 15.498C12.8516 15.498 15.3223 16.6895 15.3223 18.6035C15.3223 19.8047 14.4824 20.5664 13.418 20.5664C12.373 20.5664 11.6992 19.873 11.5234 18.7695C11.4551 18.3594 11.1621 18.0273 10.7031 18.0566C10.2148 18.0859 10.0098 18.5059 10.0684 18.9453C10.293 20.6738 11.5625 21.9824 13.418 21.9824Z" fill="black" fill-opacity="0.85"/>
 </g>
</svg>
