<?xml version="1.0" ?><!-- Generator: Adobe Illustrator 25.0.0, SVG Export Plug-In . SVG Version: 6.00 Build 0)  --><svg xmlns="http://www.w3.org/2000/svg" xmlns:xlink="http://www.w3.org/1999/xlink" version="1.1" id="Layer_1" x="0px" y="0px" viewBox="0 0 512 512" style="enable-background:new 0 0 512 512;" xml:space="preserve">
<path d="M22.7,184.5c35.9-11.5,73.1-17.2,108.5-17.2c45.9,0,79.6,7.2,123,7.2c44.9,0,72.8-30.4,72.8-70.1  c0-40.7-30.9-69.6-69.6-69.6c-28.4,0-53.4,17.7-63.8,41.4c-4,8.2-2.5,18,6.5,22.4c7.7,4,17.5,1.5,22.7-8.7  c5.5-12.7,19-22.7,34.7-22.7c20.7,0,37.2,14.5,37.2,37.2c0,22.7-16,37.7-40.4,37.7c-41.4,0-75.6-7.5-123-7.5  c-40.7,0-81.6,7.2-118.5,19c-10.5,3-14.5,12-12,20.7C3.2,182.8,11.4,187.8,22.7,184.5z M412.7,301.3c58.4,0,99.3-36.9,99.3-88.5  c0-50.9-39.2-87.8-87.8-87.8c-45.1,0-78.6,31.4-84.5,72.8c-1.5,10.2,4.2,18.5,13.2,19.7c9.2,1.2,17.2-4.5,19.5-16.2  c4-25.9,25.7-43.9,51.9-43.9c30.7,0,55.1,22.7,55.1,55.4c0,33.2-26.2,56.1-66.6,56.1c-76.1,0-158.1-43.4-257.9-43.4  c-51.4,0-98,8.2-142.2,23.9c-10.2,3.5-14.5,12.2-12,20.9c2.5,8.5,11,13.7,21.9,10c40.7-15.5,83.1-22.2,132.2-22.2  C254.4,258.1,328.7,301.3,412.7,301.3z M254.4,477.1c38.4,0,68.1-28.4,68.1-69.1c0-58.9-60.1-91.8-170.8-91.8  c-46.1,0-96.5,9-138.9,23.7c-10.2,3.5-14.5,12.2-12,20.9c2.5,8.5,11,13.7,21.9,10c39.7-14.2,84-21.9,128.9-21.9  c90.5,0,138.4,22.7,138.4,59.1c0,22.9-16,36.7-35.7,36.7c-19.7,0-31.7-13.2-35.2-34.2c-1.5-9.2-8-16.7-18.7-16  c-11.5,0.7-16,10.2-14.5,20.2C190.5,449.4,216.2,477.1,254.4,477.1z"/>
</svg>