<?xml version="1.0" encoding="UTF-8"?>
<!--Generator: Apple Native CoreSVG 326-->
<!DOCTYPE svg
PUBLIC "-//W3C//DTD SVG 1.1//EN"
       "http://www.w3.org/Graphics/SVG/1.1/DTD/svg11.dtd">
<svg version="1.1" xmlns="http://www.w3.org/2000/svg" xmlns:xlink="http://www.w3.org/1999/xlink" viewBox="0 0 26.3086 26.3574">
 <g>
  <rect height="26.3574" opacity="0" width="26.3086" x="0" y="0"/>
  <path d="M22.5098 22.3242C22.7637 22.3242 22.9492 22.0996 22.9297 21.8359L22.8711 20.7227L23.8086 21.3379C24.0137 21.4746 24.3066 21.4258 24.4531 21.2109C24.5996 20.9863 24.4922 20.6836 24.2285 20.5664L23.2422 20.0684L24.248 19.5508C24.4727 19.4336 24.5898 19.1602 24.4531 18.916C24.3359 18.7012 24.0234 18.6426 23.7988 18.7891L22.8711 19.4141L22.9395 18.3105C22.959 18.0371 22.7734 17.8027 22.5098 17.8027C22.2266 17.8027 22.041 18.0176 22.0703 18.3008L22.1289 19.4238L21.1816 18.7891C20.957 18.6523 20.6738 18.6816 20.5469 18.916C20.4102 19.1602 20.5078 19.4238 20.752 19.5508L21.7383 20.0684L20.7617 20.5664C20.5078 20.6738 20.3906 20.957 20.5371 21.2109C20.6543 21.4258 20.957 21.4746 21.1816 21.3281L22.1289 20.7227L22.0801 21.8359C22.0703 22.1094 22.2363 22.3242 22.5098 22.3242Z" fill="black" fill-opacity="0.85"/>
  <path d="M22.5098 4.53125C22.7637 4.53125 22.9492 4.29688 22.9297 4.0332L22.8711 2.92969L23.8086 3.53516C24.0137 3.67188 24.3066 3.63281 24.4531 3.4082C24.5996 3.18359 24.4922 2.88086 24.2285 2.77344L23.2422 2.26562L24.248 1.74805C24.4727 1.63086 24.5898 1.35742 24.4531 1.11328C24.3359 0.898438 24.0234 0.839844 23.7988 0.996094L22.8711 1.61133L22.9395 0.507812C22.959 0.234375 22.7734 0 22.5098 0C22.2266 0 22.041 0.214844 22.0703 0.498047L22.1289 1.62109L21.1816 0.996094C20.957 0.849609 20.6738 0.878906 20.5469 1.11328C20.4102 1.35742 20.5078 1.63086 20.752 1.74805L21.7383 2.26562L20.7617 2.76367C20.5078 2.88086 20.3906 3.16406 20.5371 3.4082C20.6543 3.62305 20.957 3.67188 21.1816 3.53516L22.1289 2.91992L22.0801 4.0332C22.0703 4.31641 22.2363 4.53125 22.5098 4.53125Z" fill="black" fill-opacity="0.85"/>
  <path d="M1.5332 9.57031C3.32031 8.95508 5.20508 8.63281 7.02148 8.63281C9.44336 8.63281 11.123 9.0332 13.3984 9.0332C15.5762 9.0332 16.9629 7.54883 16.9629 5.60547C16.9629 3.63281 15.4688 2.19727 13.5742 2.19727C12.0996 2.19727 10.8496 3.14453 10.3906 4.375C10.2246 4.74609 10.3125 5.15625 10.7031 5.33203C11.0547 5.49805 11.4551 5.37109 11.6797 4.93164C11.9336 4.19922 12.6758 3.61328 13.5742 3.61328C14.6875 3.61328 15.5469 4.42383 15.5469 5.60547C15.5469 6.80664 14.6973 7.61719 13.3984 7.61719C11.2012 7.61719 9.52148 7.2168 7.02148 7.2168C4.98047 7.2168 2.91992 7.59766 1.08398 8.23242C0.625 8.36914 0.458984 8.75977 0.576172 9.14062C0.683594 9.51172 1.05469 9.7168 1.5332 9.57031ZM21.3867 15.3516C24.3164 15.3516 26.3086 13.5352 26.3086 10.9863C26.3086 8.50586 24.4043 6.66016 21.9922 6.66016C19.7363 6.66016 18.0664 8.27148 17.793 10.3418C17.7344 10.791 17.998 11.1523 18.3887 11.2012C18.7891 11.25 19.1309 10.9961 19.2188 10.498C19.4141 9.10156 20.5664 8.07617 21.9922 8.07617C23.6035 8.07617 24.8926 9.29688 24.8926 10.9863C24.8926 12.7246 23.5254 13.9258 21.3867 13.9258C17.4902 13.9258 13.3398 11.7383 8.27148 11.7383C5.64453 11.7383 3.30078 12.1875 1.08398 12.9883C0.644531 13.1445 0.458984 13.5352 0.576172 13.9062C0.683594 14.2871 1.06445 14.502 1.5332 14.3359C3.59375 13.5059 5.75195 13.1641 8.27148 13.1641C13.3008 13.1641 17.1387 15.3516 21.3867 15.3516ZM13.418 24.1699C15.293 24.1699 16.7383 22.7734 16.7383 20.791C16.7383 17.8906 13.7402 16.2695 8.24219 16.2695C5.83984 16.2695 3.24219 16.748 1.08398 17.5098C0.644531 17.6562 0.458984 18.0469 0.576172 18.418C0.683594 18.7988 1.06445 19.0234 1.5332 18.8574C3.57422 18.1055 5.92773 17.6855 8.24219 17.6855C12.8516 17.6855 15.3223 18.877 15.3223 20.791C15.3223 21.9922 14.4824 22.7539 13.418 22.7539C12.373 22.7539 11.6992 22.0605 11.5234 20.957C11.4551 20.5469 11.1621 20.2148 10.7031 20.2441C10.2148 20.2734 10.0098 20.6934 10.0684 21.1328C10.293 22.8613 11.5625 24.1699 13.418 24.1699Z" fill="black" fill-opacity="0.85"/>
 </g>
</svg>
