<?xml version="1.0" encoding="UTF-8"?>
<!--Generator: Apple Native CoreSVG 326-->
<!DOCTYPE svg
PUBLIC "-//W3C//DTD SVG 1.1//EN"
       "http://www.w3.org/Graphics/SVG/1.1/DTD/svg11.dtd">
<svg version="1.1" xmlns="http://www.w3.org/2000/svg" xmlns:xlink="http://www.w3.org/1999/xlink" viewBox="0 0 36.5946 24.5579">
 <g>
  <rect height="24.5579" opacity="0" width="36.5946" x="0" y="0"/>
  <path d="M35.4018 10.5651C36.3588 11.317 36.5053 12.3522 35.7338 13.3288L27.3159 24.1002C26.9448 24.5788 26.3198 24.6862 25.7631 24.403C23.5659 23.2799 20.685 22.5475 18.1166 22.5475C15.5385 22.5475 12.6674 23.2799 10.4702 24.403C9.90375 24.6862 9.29829 24.5788 8.90766 24.1002L0.489691 13.3288C-0.272027 12.3522-0.135309 11.317 0.831488 10.5651C4.55157 7.71133 10.2513 6.18719 15.6948 5.83991L15.6948 7.60712C10.8457 7.93013 6.31843 9.27798 2.34516 11.8346C2.01313 12.069 1.9643 12.3815 2.20844 12.7038L4.8274 16.0525C5.67915 15.8538 6.42049 15.4207 6.935 14.8327C7.20844 14.5104 7.50141 14.5202 7.77485 14.8327C8.5268 15.692 9.67914 16.1901 10.9291 16.1901C12.1889 16.1901 13.3315 15.692 14.0932 14.8327C14.3666 14.5202 14.6596 14.5104 14.9331 14.8327C15.1495 15.0813 15.4062 15.3027 15.6948 15.4903L15.6948 16.6393C15.6948 17.9772 16.7885 19.0612 18.1166 19.0612C19.4545 19.0612 20.5385 17.9772 20.5385 16.6393L20.5385 15.4812C20.8205 15.2957 21.0706 15.0774 21.2807 14.8327C21.5541 14.5104 21.8471 14.5202 22.1303 14.8327C22.8823 15.692 24.0346 16.1901 25.2846 16.1901C26.5346 16.1901 27.687 15.692 28.4389 14.8327C28.7123 14.5202 29.0151 14.5104 29.2788 14.8327C29.795 15.4226 30.5395 15.8566 31.3949 16.0541L34.0151 12.7038C34.269 12.3815 34.2202 12.069 33.8784 11.8346C30.2287 9.46319 25.5146 7.97521 20.5385 7.61457L20.5385 5.83892C26.0201 6.18596 31.703 7.71661 35.4018 10.5651Z" fill="black" fill-opacity="0.85"/>
  <path d="M18.1166 17.5085C18.5854 17.5085 18.976 17.1178 18.976 16.6393L18.976 13.4264C18.976 12.9479 18.5854 12.5573 18.1166 12.5573C17.6381 12.5573 17.2475 12.9479 17.2475 13.4264L17.2475 16.6393C17.2475 17.1178 17.6381 17.5085 18.1166 17.5085ZM18.1166 10.6823C18.5854 10.6823 18.976 10.2917 18.976 9.81314L18.976 6.60025C18.976 6.12173 18.5854 5.73111 18.1166 5.73111C17.6381 5.73111 17.2475 6.12173 17.2475 6.60025L17.2475 9.81314C17.2475 10.2917 17.6381 10.6823 18.1166 10.6823ZM4.37641 3.79751C4.7768 4.04165 5.24555 3.93423 5.56782 3.55337C6.27094 2.68423 7.16938 2.0397 8.185 1.6979C8.65375 1.52212 8.94672 1.12173 8.84907 0.652982C8.73188 0.115872 8.2143-0.138034 7.56977 0.0768099C6.29047 0.496732 5.09907 1.35611 4.19086 2.48892C3.80024 2.96743 3.93696 3.53384 4.37641 3.79751ZM16.603 3.77798C17.0424 3.51431 17.1498 2.95767 16.769 2.47915C15.8608 1.34634 14.6596 0.496732 13.3998 0.0865756C12.7163-0.147799 12.2182 0.154935 12.1206 0.672513C12.0424 1.1315 12.3061 1.52212 12.7748 1.6979C13.7807 2.0397 14.6791 2.68423 15.3823 3.54361C15.7338 3.95376 16.1928 4.02212 16.603 3.77798ZM19.6206 3.77798C20.0405 4.02212 20.4897 3.95376 20.8413 3.54361C21.5444 2.68423 22.4428 2.0397 23.4487 1.6979C23.9174 1.52212 24.1811 1.1315 24.103 0.672513C24.0151 0.154935 23.5073-0.147799 22.8237 0.0865756C21.5737 0.496732 20.3627 1.34634 19.4545 2.47915C19.0834 2.95767 19.1909 3.51431 19.6206 3.77798ZM31.8569 3.79751C32.2866 3.53384 32.4233 2.96743 32.0424 2.48892C31.1342 1.35611 29.9331 0.496732 28.6635 0.0768099C28.019-0.138034 27.4916 0.115872 27.3842 0.652982C27.2768 1.12173 27.5698 1.52212 28.0385 1.6979C29.0541 2.0397 29.9526 2.68423 30.6655 3.55337C30.9877 3.93423 31.4467 4.04165 31.8569 3.79751Z" fill="black" fill-opacity="0.85"/>
 </g>
</svg>
