<?xml version="1.0" encoding="UTF-8"?>
<!--Generator: Apple Native CoreSVG 326-->
<!DOCTYPE svg
PUBLIC "-//W3C//DTD SVG 1.1//EN"
       "http://www.w3.org/Graphics/SVG/1.1/DTD/svg11.dtd">
<svg version="1.1" xmlns="http://www.w3.org/2000/svg" xmlns:xlink="http://www.w3.org/1999/xlink" viewBox="0 0 36.5849 26.9434">
 <g>
  <rect height="26.9434" opacity="0" width="36.5849" x="0" y="0"/>
  <path d="M35.392 4.80469C36.3588 5.54688 36.4956 6.5918 35.7338 7.56836L27.7671 17.7729C27.8282 17.4538 27.8627 17.1136 27.8627 16.748C27.8627 16.1384 27.753 15.6357 27.5845 15.1836L34.0151 6.94336C34.2592 6.62109 34.2202 6.30859 33.8784 6.07422C29.5913 3.33008 23.8491 1.72852 18.1166 1.72852C12.3745 1.72852 6.63227 3.33008 2.34516 6.07422C2.00336 6.30859 1.9643 6.62109 2.20844 6.94336L10.0405 16.9727C10.2358 17.2266 10.392 17.2461 10.6459 17.1289C11.1424 16.9156 11.6477 16.7196 12.1574 16.5479C12.1671 16.6102 12.1694 16.6782 12.1694 16.748C12.1694 17.4122 12.0244 17.9792 11.8093 18.5046C11.4275 18.6591 11.0722 18.8276 10.7436 19.0039C10.1772 19.3066 9.55219 19.1895 9.1811 18.7012L0.489691 7.56836C-0.272027 6.5918-0.135309 5.54688 0.831488 4.80469C4.40571 2.08008 11.1831 0 18.1166 0C25.0405 0 31.8178 2.08008 35.392 4.80469ZM25.5288 17.1094C25.8315 17.2461 25.9975 17.2168 26.2416 16.9043L26.4227 16.6723C26.4269 16.6955 26.4272 16.7216 26.4272 16.748C26.4272 17.6791 26.1423 18.4193 25.7834 19.1245C25.6816 19.0976 25.5798 19.0573 25.4799 19.0039C24.1582 18.2947 22.4107 17.7131 20.6909 17.4058C20.7202 17.1979 20.7338 16.978 20.7338 16.748C20.7338 16.3367 20.6838 15.974 20.5964 15.6456C22.2146 15.9121 23.9299 16.4214 25.5288 17.1094ZM18.9977 15.4513C19.178 15.838 19.2983 16.2449 19.2983 16.748C19.2983 16.9074 19.2899 17.0612 19.274 17.2099C18.8758 17.1675 18.489 17.1484 18.1166 17.1484C16.6745 17.1484 15.0105 17.4346 13.4796 17.9018C13.5601 17.5471 13.6049 17.164 13.6049 16.748C13.6049 16.5184 13.5893 16.3039 13.5565 16.1058C15.1489 15.6637 16.7246 15.4199 18.1166 15.4199C18.4027 15.4199 18.6968 15.4303 18.9977 15.4513Z" fill="black" fill-opacity="0.85"/>
  <path d="M8.35102 9.73633C8.09711 10.1172 8.31196 10.6348 8.82954 10.6348L13.1264 10.6348C13.6538 10.6348 13.8686 10.1172 13.6147 9.73633L11.5248 6.61133C11.3784 6.39648 11.2123 6.29883 10.978 6.29883C10.7534 6.29883 10.5873 6.39648 10.4409 6.61133ZM12.3647 25.3223C11.7495 24.5117 11.5248 23.9941 11.5248 23.0762C11.5248 20.8887 13.6049 19.5801 13.6049 16.748C13.6049 14.209 11.7006 13.5254 11.7006 10.5176L11.7006 9.9707L10.2651 9.9707L10.2651 10.5176C10.2651 14.2676 12.1694 14.7461 12.1694 16.748C12.1694 19.2578 10.0991 20.3809 10.0991 23.1738C10.0991 24.375 10.4702 25.2344 11.2123 26.1719C11.8081 26.9336 12.9897 26.1621 12.3647 25.3223ZM15.4799 9.73633C15.226 10.1172 15.4409 10.6348 15.9682 10.6348L20.2553 10.6348C20.7827 10.6348 20.9975 10.1172 20.7436 9.73633L18.6538 6.61133C18.5073 6.39648 18.3413 6.29883 18.1166 6.29883C17.8823 6.29883 17.7163 6.39648 17.5698 6.61133ZM19.4936 25.3223C18.8784 24.5117 18.6635 23.9941 18.6635 23.0762C18.6635 20.8887 20.7338 19.5801 20.7338 16.748C20.7338 14.209 18.8295 13.5254 18.8295 10.5176L18.8295 9.9707L17.394 9.9707L17.394 10.5176C17.394 14.2676 19.2983 14.7461 19.2983 16.748C19.2983 19.2578 17.228 20.3809 17.228 23.1738C17.228 24.375 17.5991 25.2344 18.3413 26.1719C18.937 26.9336 20.1284 26.1621 19.4936 25.3223ZM22.6088 9.73633C22.3549 10.1172 22.5698 10.6348 23.0971 10.6348L27.394 10.6348C27.9116 10.6348 28.1264 10.1172 27.8725 9.73633L25.7827 6.61133C25.6362 6.39648 25.4702 6.29883 25.2456 6.29883C25.0112 6.29883 24.8452 6.39648 24.6987 6.61133ZM26.6225 25.3223C26.0073 24.5117 25.7924 23.9941 25.7924 23.0762C25.7924 20.8887 27.8627 19.5801 27.8627 16.748C27.8627 14.209 25.9584 13.5254 25.9584 10.5176L25.9584 9.9707L24.5229 9.9707L24.5229 10.5176C24.5229 14.2676 26.4272 14.7461 26.4272 16.748C26.4272 19.2578 24.3569 20.3809 24.3569 23.1738C24.3569 24.375 24.7377 25.2344 25.4702 26.1719C26.0659 26.9336 27.2573 26.1621 26.6225 25.3223Z" fill="black" fill-opacity="0.85"/>
 </g>
</svg>
