<?xml version="1.0" encoding="UTF-8"?>
<!--Generator: Apple Native CoreSVG 326-->
<!DOCTYPE svg
PUBLIC "-//W3C//DTD SVG 1.1//EN"
       "http://www.w3.org/Graphics/SVG/1.1/DTD/svg11.dtd">
<svg version="1.1" xmlns="http://www.w3.org/2000/svg" xmlns:xlink="http://www.w3.org/1999/xlink" viewBox="0 0 36.8066 26.4551">
 <g>
  <rect height="26.4551" opacity="0" width="36.8066" x="0" y="0"/>
  <path d="M8.03711 25.5078L9.77539 25.5078L9.77539 2.08008C9.77539 1.875 9.90234 1.73828 10.0879 1.73828L26.3574 1.73828C26.543 1.73828 26.6699 1.875 26.6699 2.08008L26.6699 25.5078L28.4082 25.5078L28.4082 24.7461L34.9316 25.2441C35.9473 25.332 36.4453 24.6582 36.4453 23.7793L36.4453 2.1875C36.4453 1.29883 35.9473 0.634766 34.9316 0.722656L28.1738 1.24023L28.1543 0.849609C27.9395 0.332031 27.3828 0 26.6797 0L9.75586 0C9.04297 0 8.49609 0.332031 8.28125 0.849609L8.26172 1.24023L1.50391 0.722656C0.498047 0.634766 0 1.29883 0 2.1875L0 23.7793C0 24.6582 0.498047 25.332 1.50391 25.2441L8.03711 24.7461ZM1.65039 23.3789L1.65039 17.9297C1.65039 17.832 1.72852 17.7441 1.83594 17.7441L8.03711 17.6172L8.03711 23.1836L1.875 23.5742C1.73828 23.584 1.65039 23.5254 1.65039 23.3789ZM1.65039 15.8789L1.65039 10.0879C1.65039 9.98047 1.72852 9.89258 1.83594 9.89258L8.03711 10.0195L8.03711 15.9375L1.83594 16.0742C1.72852 16.0742 1.65039 15.9863 1.65039 15.8789ZM1.65039 8.03711L1.65039 2.57812C1.65039 2.44141 1.73828 2.37305 1.875 2.38281L8.03711 2.7832L8.03711 8.34961L1.83594 8.22266C1.72852 8.22266 1.65039 8.13477 1.65039 8.03711ZM28.4082 23.1836L28.4082 17.6172L34.5996 17.7441C34.7168 17.7441 34.7852 17.832 34.7852 17.9297L34.7852 23.3789C34.7852 23.5254 34.6973 23.584 34.5605 23.5742ZM28.4082 15.9375L28.4082 10.0195L34.5996 9.89258C34.7168 9.89258 34.7852 9.98047 34.7852 10.0879L34.7852 15.8789C34.7852 15.9863 34.7168 16.0742 34.5996 16.0742ZM28.4082 8.34961L28.4082 2.7832L34.5605 2.38281C34.6973 2.37305 34.7852 2.44141 34.7852 2.57812L34.7852 8.03711C34.7852 8.13477 34.7168 8.22266 34.5996 8.22266ZM6.46484 25.5078C6.46484 26.0156 6.88477 26.4355 7.39258 26.4355L29.1113 26.4355C29.6191 26.4355 30.0391 26.0156 30.0391 25.5078C30.0391 25 29.6191 24.5801 29.1113 24.5801L7.39258 24.5801C6.88477 24.5801 6.46484 25 6.46484 25.5078ZM17.7344 25.5078L19.1699 25.5078L19.1699 0.917969L17.7344 0.917969Z" fill="black" fill-opacity="0.85"/>
 </g>
</svg>
