<?xml version="1.0" encoding="UTF-8"?>
<!--Generator: Apple Native CoreSVG 326-->
<!DOCTYPE svg
PUBLIC "-//W3C//DTD SVG 1.1//EN"
       "http://www.w3.org/Graphics/SVG/1.1/DTD/svg11.dtd">
<svg version="1.1" xmlns="http://www.w3.org/2000/svg" xmlns:xlink="http://www.w3.org/1999/xlink" viewBox="0 0 30.9961 23.8965">
 <g>
  <rect height="23.8965" opacity="0" width="30.9961" x="0" y="0"/>
  <path d="M30.6348 10.7227L30.6348 20.1367C30.6348 22.6172 29.3652 23.8965 26.8359 23.8965L3.79883 23.8965C1.2793 23.8965 0 22.627 0 20.1367L0 10.7227C0 8.22266 1.2793 6.96289 3.79883 6.96289L12.9004 6.96289L12.9004 8.69141L3.83789 8.69141C2.4707 8.69141 1.72852 9.41406 1.72852 10.8203L1.72852 15.6699C2.74888 15.5061 3.57736 15.048 4.14062 14.4043C4.41406 14.082 4.70703 14.0918 4.99023 14.4043C5.74219 15.2637 6.89453 15.752 8.14453 15.752C9.39453 15.752 10.5469 15.2637 11.2988 14.4043C11.5723 14.0918 11.875 14.082 12.1484 14.4043C12.361 14.6518 12.6145 14.8716 12.9004 15.0574L12.9004 16.4062C12.9004 17.7344 13.9844 18.8281 15.3223 18.8281C16.6504 18.8281 17.7441 17.7344 17.7441 16.4062L17.7441 15.0533C18.0288 14.8684 18.2821 14.6501 18.4961 14.4043C18.7598 14.082 19.0625 14.0918 19.3359 14.4043C20.0879 15.2637 21.2402 15.752 22.4902 15.752C23.75 15.752 24.8926 15.2637 25.6445 14.4043C25.9277 14.0918 26.2207 14.082 26.4941 14.4043C27.0568 15.0473 27.8907 15.5051 28.9062 15.6694L28.9062 10.8203C28.9062 9.41406 28.1348 8.69141 26.8066 8.69141L17.7441 8.69141L17.7441 6.96289L26.8359 6.96289C29.3652 6.96289 30.6348 8.24219 30.6348 10.7227Z" fill="black" fill-opacity="0.85"/>
  <path d="M1.58203 3.92578C1.98242 4.17969 2.45117 4.0625 2.77344 3.68164C3.47656 2.8125 4.375 2.16797 5.39062 1.82617C5.85938 1.66016 6.15234 1.25 6.04492 0.78125C5.9375 0.253906 5.41992 0 4.76562 0.214844C3.49609 0.634766 2.30469 1.48438 1.39648 2.61719C1.00586 3.0957 1.14258 3.66211 1.58203 3.92578ZM13.8086 3.90625C14.248 3.64258 14.3555 3.08594 13.9746 2.60742C13.0664 1.47461 11.8652 0.634766 10.6055 0.224609C9.92188-0.00976562 9.42383 0.292969 9.32617 0.800781C9.24805 1.25977 9.51172 1.66016 9.98047 1.82617C10.9863 2.16797 11.8848 2.8125 12.5879 3.67188C12.9395 4.08203 13.3984 4.16016 13.8086 3.90625ZM16.8262 3.90625C17.2461 4.16016 17.6953 4.08203 18.0469 3.67188C18.75 2.8125 19.6484 2.16797 20.6543 1.82617C21.123 1.66016 21.3867 1.25977 21.3086 0.800781C21.2207 0.292969 20.7129-0.00976562 20.0293 0.224609C18.7793 0.634766 17.5684 1.47461 16.6602 2.60742C16.2891 3.08594 16.3965 3.64258 16.8262 3.90625ZM29.0625 3.92578C29.4922 3.66211 29.6289 3.0957 29.248 2.61719C28.3398 1.48438 27.1387 0.634766 25.8691 0.214844C25.2246 0 24.6973 0.253906 24.5898 0.78125C24.4824 1.25 24.7754 1.66016 25.2441 1.82617C26.2598 2.16797 27.1582 2.8125 27.8613 3.68164C28.1934 4.0625 28.6523 4.17969 29.0625 3.92578ZM15.3223 10.4395C15.791 10.4395 16.1816 10.0488 16.1816 9.57031L16.1816 6.35742C16.1816 5.88867 15.791 5.48828 15.3223 5.48828C14.8438 5.48828 14.4531 5.88867 14.4531 6.35742L14.4531 9.57031C14.4531 10.0488 14.8438 10.4395 15.3223 10.4395ZM15.3223 17.2656C15.791 17.2656 16.1816 16.875 16.1816 16.4062L16.1816 13.1836C16.1816 12.7148 15.791 12.3242 15.3223 12.3242C14.8438 12.3242 14.4531 12.7148 14.4531 13.1836L14.4531 16.4062C14.4531 16.875 14.8438 17.2656 15.3223 17.2656Z" fill="black" fill-opacity="0.85"/>
 </g>
</svg>
