<?xml version="1.0" encoding="UTF-8"?>
<!--Generator: Apple Native CoreSVG 326-->
<!DOCTYPE svg
PUBLIC "-//W3C//DTD SVG 1.1//EN"
       "http://www.w3.org/Graphics/SVG/1.1/DTD/svg11.dtd">
<svg version="1.1" xmlns="http://www.w3.org/2000/svg" xmlns:xlink="http://www.w3.org/1999/xlink" viewBox="0 0 36.5946 25.4004">
 <g>
  <rect height="25.4004" opacity="0" width="36.5946" x="0" y="0"/>
  <path d="M35.4018 6.18164C36.3588 6.92383 36.5053 7.95898 35.7338 8.94531L27.3159 19.707C26.9448 20.1855 26.3198 20.3027 25.7631 20.0098C23.5659 18.8965 20.685 18.1543 18.1166 18.1543C17.5916 18.1543 17.0544 18.1851 16.5121 18.2508L15.5697 16.6416C16.4435 16.4984 17.2977 16.4258 18.1166 16.4258C20.519 16.4258 23.2241 17.0508 25.8022 18.1152C26.1147 18.2324 26.2612 18.2227 26.5151 17.9102L34.0151 8.32031C34.269 7.98828 34.2202 7.68555 33.8784 7.45117C29.5913 4.70703 23.8491 3.10547 18.1166 3.10547C14.8285 3.10547 11.5371 3.63242 8.5264 4.61493L7.55637 2.95856C10.7132 1.97707 14.3924 1.37695 18.1166 1.37695C25.0405 1.37695 31.8178 3.45703 35.4018 6.18164ZM6.85899 5.20512C5.23131 5.81785 3.71481 6.57646 2.34516 7.45117C2.01313 7.68555 1.9643 7.98828 2.20844 8.32031L9.70844 17.9102C9.96235 18.2227 10.1186 18.2324 10.4311 18.1152C11.5332 17.6602 12.6585 17.2855 13.7728 17.0115L14.674 18.5503C13.1727 18.8686 11.7136 19.3798 10.4702 20.0098C9.90375 20.3027 9.28852 20.1855 8.90766 19.707L0.489691 8.94531C-0.272027 7.95898-0.135309 6.92383 0.831488 6.18164C2.13534 5.18772 3.86543 4.27958 5.87729 3.52873Z" fill="black" fill-opacity="0.85"/>
  <path d="M16.3979 21.4941L17.9311 20.6738L6.14399 0.546875C5.91938 0.146484 5.42133-0.0292969 4.94282 0.224609C4.4936 0.449219 4.40571 1.00586 4.64008 1.41602ZM18.1166 25.4004C19.5815 25.4004 20.812 24.1895 20.812 22.7148C20.812 21.2207 19.5913 20.0098 18.1166 20.0098C16.642 20.0098 15.4213 21.2207 15.4213 22.7148C15.4213 24.1895 16.6225 25.4004 18.1166 25.4004ZM18.1166 23.9551C17.4233 23.9551 16.8569 23.3984 16.8569 22.7148C16.8569 22.0117 17.4233 21.4355 18.1166 21.4355C18.7905 21.4355 19.3764 22.0215 19.3764 22.7148C19.3764 23.3984 18.8002 23.9551 18.1166 23.9551Z" fill="black" fill-opacity="0.85"/>
 </g>
</svg>
