<?xml version="1.0" encoding="UTF-8"?>
<!--Generator: Apple Native CoreSVG 326-->
<!DOCTYPE svg
PUBLIC "-//W3C//DTD SVG 1.1//EN"
       "http://www.w3.org/Graphics/SVG/1.1/DTD/svg11.dtd">
<svg version="1.1" xmlns="http://www.w3.org/2000/svg" xmlns:xlink="http://www.w3.org/1999/xlink" viewBox="0 0 35.5878 30.5176">
 <g>
  <rect height="30.5176" opacity="0" width="35.5878" x="0" y="0"/>
  <path d="M34.4052 11.6113C35.3622 12.3438 35.499 13.3887 34.747 14.3555L26.6025 24.7754C26.2118 25.2734 25.5771 25.3906 25.0009 25.0879C22.872 24.0137 20.1083 23.3008 17.6181 23.3008C17.099 23.3008 16.5689 23.3315 16.0348 23.3966L15.0588 21.7315C15.9367 21.5871 16.7954 21.5137 17.6181 21.5137C19.9521 21.5137 22.5888 22.1094 25.1083 23.1543C25.372 23.2617 25.4892 23.2715 25.7138 22.9785L32.9892 13.6816C33.2236 13.3789 33.1747 13.1348 32.872 12.9297C29.3576 10.6537 24.8394 9.21655 20.04 8.8416L20.04 7.01489C25.8594 7.43315 31.3502 9.27716 34.4052 11.6113ZM6.61283 10.7706C5.08239 11.3677 3.6548 12.0919 2.36419 12.9297C2.05169 13.1348 2.01263 13.3789 2.23724 13.6816L9.51263 22.9785C9.747 23.2715 9.85443 23.2617 10.1279 23.1543C11.1613 22.724 12.2163 22.3699 13.2629 22.1072L14.1983 23.7018C12.7828 24.009 11.4098 24.493 10.2255 25.0879C9.64935 25.3906 9.02435 25.2734 8.62396 24.7754L0.479427 14.3555C-0.272526 13.3887-0.126042 12.3438 0.821224 11.6113C2.06525 10.6635 3.70966 9.79649 5.61845 9.0755ZM15.1962 8.84123C12.79 9.02876 10.456 9.4826 8.2851 10.1749L7.30038 8.49491C9.70149 7.74169 12.4113 7.21504 15.1962 7.01489Z" fill="black" fill-opacity="0.85"/>
  <path d="M18.4775 13.6914L18.4775 16.9141C18.4775 17.3828 18.0868 17.7734 17.6181 17.7734C17.1396 17.7734 16.749 17.3828 16.749 16.9141L16.749 13.6914C16.749 13.2227 17.1396 12.832 17.6181 12.832C18.0868 12.832 18.4775 13.2227 18.4775 13.6914ZM18.4775 6.86523L18.4775 10.0781C18.4775 10.5566 18.0868 10.9473 17.6181 10.9473C17.1396 10.9473 16.749 10.5566 16.749 10.0781L16.749 6.86523C16.749 6.39648 17.1396 5.99609 17.6181 5.99609C18.0868 5.99609 18.4775 6.39648 18.4775 6.86523ZM8.35052 0.917969C8.44818 1.38672 8.15521 1.79688 7.68646 1.96289C6.67083 2.30469 5.78216 2.94922 5.06927 3.81836C4.747 4.19922 4.27825 4.30664 3.87786 4.0625C3.43841 3.79883 3.30169 3.23242 3.69232 2.75391C4.60052 1.62109 5.79193 0.761719 7.07122 0.351562C7.71575 0.126953 8.23333 0.380859 8.35052 0.917969ZM28.165 0.351562C29.4443 0.761719 30.6357 1.62109 31.5439 2.75391C31.9247 3.23242 31.788 3.79883 31.3583 4.0625C30.9482 4.30664 30.4892 4.19922 30.1669 3.81836C29.454 2.94922 28.5556 2.30469 27.54 1.96289C27.0712 1.79688 26.788 1.38672 26.8857 0.917969C27.0029 0.380859 27.5204 0.126953 28.165 0.351562ZM12.9013 0.361328C14.1611 0.761719 15.3622 1.61133 16.2704 2.74414C16.6513 3.22266 16.5439 3.7793 16.1044 4.04297C15.6943 4.28711 15.2353 4.21875 14.8837 3.80859C14.1806 2.94922 13.2822 2.30469 12.2861 1.96289C11.8076 1.79688 11.5439 1.39648 11.622 0.9375C11.7197 0.419922 12.2177 0.117188 12.9013 0.361328ZM23.6044 0.9375C23.6923 1.39648 23.4189 1.79688 22.9501 1.96289C21.9443 2.30469 21.0458 2.94922 20.3525 3.80859C19.9911 4.21875 19.5419 4.28711 19.122 4.04297C18.6923 3.7793 18.5849 3.22266 18.956 2.74414C19.874 1.61133 21.0751 0.761719 22.3251 0.361328C23.0087 0.117188 23.5068 0.419922 23.6044 0.9375Z" fill="black" fill-opacity="0.85"/>
  <path d="M17.6181 30.5176C19.0829 30.5176 20.3134 29.2969 20.3134 27.8223C20.3134 26.3379 19.0927 25.1172 17.6181 25.1172C16.1435 25.1172 14.9228 26.3379 14.9228 27.8223C14.9228 29.3066 16.124 30.5176 17.6181 30.5176ZM17.6181 29.0625C16.9247 29.0625 16.3583 28.5059 16.3583 27.8223C16.3583 27.1289 16.9247 26.5527 17.6181 26.5527C18.2919 26.5527 18.8779 27.1387 18.8779 27.8223C18.8779 28.5059 18.3017 29.0625 17.6181 29.0625ZM17.4326 25.7812L6.03607 6.33789C5.80169 5.9375 5.31341 5.77148 4.82513 6.01562C4.38568 6.25 4.28802 6.79688 4.5224 7.20703L15.8993 26.6016Z" fill="black" fill-opacity="0.85"/>
 </g>
</svg>
