<?xml version="1.0" encoding="UTF-8"?>
<!--Generator: Apple Native CoreSVG 326-->
<!DOCTYPE svg
PUBLIC "-//W3C//DTD SVG 1.1//EN"
       "http://www.w3.org/Graphics/SVG/1.1/DTD/svg11.dtd">
<svg version="1.1" xmlns="http://www.w3.org/2000/svg" xmlns:xlink="http://www.w3.org/1999/xlink" viewBox="0 0 25.8008 25.459">
 <g>
  <rect height="25.459" opacity="0" width="25.8008" x="0" y="0"/>
  <path d="M12.7148 25.4395C19.7363 25.4395 25.4395 19.7461 25.4395 12.7246C25.4395 5.70312 19.7363 0 12.7148 0C5.69336 0 0 5.70312 0 12.7246C0 19.7461 5.69336 25.4395 12.7148 25.4395ZM12.7148 23.623C6.68945 23.623 1.81641 18.75 1.81641 12.7246C1.81641 6.69922 6.68945 1.82617 12.7148 1.82617C18.7402 1.82617 23.6133 6.69922 23.6133 12.7246C23.6133 18.75 18.7402 23.623 12.7148 23.623Z" fill="black" fill-opacity="0.85"/>
  <path d="M5 11.2012C6.08398 10.8203 7.2168 10.625 8.33984 10.625C9.81445 10.625 10.8594 10.8691 12.2852 10.8691C13.6816 10.8691 14.6094 9.90234 14.6094 8.63281C14.6094 7.35352 13.6133 6.40625 12.3926 6.40625C11.416 6.40625 10.5859 7.03125 10.3027 7.85156C10.1855 8.125 10.2637 8.47656 10.5859 8.60352C10.8594 8.7207 11.1719 8.61328 11.3281 8.28125C11.4844 7.85156 11.8652 7.5293 12.3926 7.5293C13.0176 7.5293 13.4668 7.95898 13.4668 8.63281C13.4668 9.32617 13.0176 9.74609 12.2852 9.74609C10.9277 9.74609 9.90234 9.49219 8.33984 9.49219C7.07031 9.49219 5.78125 9.74609 4.63867 10.1367C4.28711 10.2441 4.15039 10.5664 4.24805 10.8496C4.33594 11.1523 4.64844 11.3281 5 11.2012ZM17.1875 14.7656C19.0625 14.7656 20.3613 13.584 20.3613 11.9434C20.3613 10.3418 19.1113 9.15039 17.5684 9.15039C16.123 9.15039 15.0195 10.1953 14.8633 11.5332C14.8047 11.8848 15.0293 12.1777 15.332 12.207C15.6348 12.2461 15.918 12.0508 15.9863 11.6699C16.1035 10.8691 16.7383 10.2832 17.5684 10.2832C18.5156 10.2832 19.2285 10.957 19.2285 11.9434C19.2285 12.9688 18.4668 13.623 17.1875 13.623C14.8242 13.623 12.2656 12.2754 9.11133 12.2754C7.49023 12.2754 6.01562 12.5586 4.62891 13.0566C4.29688 13.1836 4.15039 13.4961 4.24805 13.7793C4.33594 14.082 4.64844 14.248 5.00977 14.1309C6.25 13.6133 7.56836 13.4082 9.11133 13.4082C12.1777 13.4082 14.5508 14.7656 17.1875 14.7656ZM12.2949 20.1758C13.5059 20.1758 14.4727 19.2676 14.4727 17.9785C14.4727 16.0938 12.5391 15.0586 9.10156 15.0586C7.61719 15.0586 5.97656 15.3613 4.62891 15.8398C4.29688 15.9668 4.14062 16.2695 4.24805 16.543C4.33594 16.8457 4.64844 17.0312 5.00977 16.9141C6.25 16.4551 7.67578 16.1816 9.10156 16.1816C11.9141 16.1816 13.3301 16.875 13.3301 17.9785C13.3301 18.6523 12.8906 19.0527 12.2949 19.0527C11.6895 19.0527 11.3574 18.7109 11.25 18.0566C11.2109 17.7539 10.9766 17.4902 10.6152 17.5195C10.2148 17.5391 10.0586 17.8906 10.1074 18.2031C10.2441 19.3262 11.084 20.1758 12.2949 20.1758ZM17.5879 8.23242C17.7832 8.23242 17.9102 8.05664 17.9004 7.86133L17.8613 7.07031L18.5254 7.50977C18.6719 7.60742 18.9062 7.56836 18.9941 7.42188C19.1113 7.26562 19.0527 7.02148 18.8477 6.92383L18.1445 6.58203L18.8477 6.20117C19.0332 6.10352 19.1016 5.9082 19.0039 5.74219C18.916 5.56641 18.6816 5.53711 18.5254 5.64453L17.8613 6.08398L17.9004 5.30273C17.9102 5.07812 17.7832 4.92188 17.5879 4.92188C17.373 4.92188 17.2461 5.07812 17.2559 5.29297L17.2852 6.08398L16.6211 5.64453C16.4551 5.53711 16.2402 5.55664 16.1523 5.74219C16.0547 5.88867 16.1035 6.10352 16.3086 6.21094L17.002 6.58203L16.3086 6.92383C16.0938 7.03125 16.0547 7.24609 16.1426 7.40234C16.2207 7.57812 16.4551 7.61719 16.6211 7.50977L17.2852 7.07031L17.2656 7.86133C17.2559 8.05664 17.373 8.23242 17.5879 8.23242ZM17.3828 17.8711C17.4512 17.8711 17.5195 17.8125 17.5098 17.7441L17.4902 17.6758L17.5391 17.7441C17.5781 17.7734 17.6855 17.7441 17.7051 17.7051C17.7539 17.6562 17.7539 17.5391 17.6758 17.5L17.5879 17.4902L17.6758 17.4512C17.7539 17.4121 17.7344 17.334 17.7246 17.2852C17.6953 17.2266 17.5781 17.1875 17.5391 17.2266L17.4902 17.3145L17.5098 17.2266C17.5195 17.1484 17.4512 17.0996 17.3828 17.0996C17.3047 17.0996 17.2363 17.1484 17.2461 17.2168L17.2754 17.3145L17.207 17.2266C17.168 17.1875 17.0703 17.2168 17.041 17.2852C17.0215 17.3145 16.9922 17.4121 17.0898 17.4609L17.168 17.4902L17.0898 17.5C16.9922 17.5391 17.0215 17.6367 17.0312 17.6855C17.041 17.7539 17.1582 17.7832 17.207 17.7441L17.2754 17.6758L17.2559 17.7441C17.2461 17.8125 17.3047 17.8711 17.3828 17.8711Z" fill="black" fill-opacity="0.85"/>
 </g>
</svg>
