<?xml version="1.0" encoding="UTF-8"?>
<!--Generator: Apple Native CoreSVG 326-->
<!DOCTYPE svg
PUBLIC "-//W3C//DTD SVG 1.1//EN"
       "http://www.w3.org/Graphics/SVG/1.1/DTD/svg11.dtd">
<svg version="1.1" xmlns="http://www.w3.org/2000/svg" xmlns:xlink="http://www.w3.org/1999/xlink" viewBox="0 0 30.3809 25.0293">
 <g>
  <rect height="25.0293" opacity="0" width="30.3809" x="0" y="0"/>
  <path d="M30.0195 15.0098C30.0195 11.3281 28.6914 7.95898 26.4844 5.3418C26.2305 5.03906 25.8008 5.04883 25.5176 5.33203L22.6953 8.1543C22.4512 8.39844 22.4414 8.74023 22.6562 9.01367C23.9551 10.6738 24.7266 12.7441 24.7266 15.0098C24.7266 17.2754 23.9551 19.3555 22.5977 21.0742C22.4121 21.3086 22.4219 21.6016 22.627 21.8066L25.5176 24.707C25.8008 25 26.2207 24.9902 26.4844 24.6875C28.6914 22.0703 30.0195 18.6816 30.0195 15.0098Z" fill="black" fill-opacity="0.85"/>
  <path d="M15.0098 5.2832C17.2754 5.2832 19.3652 6.06445 21.0254 7.38281C21.2891 7.57812 21.6113 7.55859 21.8555 7.31445L24.6875 4.48242C24.9805 4.19922 24.9707 3.7793 24.668 3.51562C22.0605 1.32812 18.6816 0 15.0098 0C11.3379 0 7.95898 1.32812 5.35156 3.51562C5.04883 3.7793 5.03906 4.19922 5.32227 4.48242L8.16406 7.31445C8.39844 7.55859 8.75 7.56836 9.02344 7.35352C10.6738 6.06445 12.7539 5.2832 15.0098 5.2832Z" fill="black" fill-opacity="0.85"/>
  <path d="M0 15.0098C0 18.6816 1.32812 22.0703 3.53516 24.6875C3.78906 24.9902 4.21875 25 4.50195 24.707L7.39258 21.8066C7.58789 21.6016 7.60742 21.3086 7.42188 21.0742C6.06445 19.3555 5.2832 17.2754 5.2832 15.0098C5.2832 12.7441 6.05469 10.6738 7.36328 9.01367C7.56836 8.74023 7.56836 8.39844 7.32422 8.1543L4.49219 5.33203C4.20898 5.04883 3.78906 5.03906 3.52539 5.3418C1.31836 7.95898 0 11.3281 0 15.0098Z" fill="black" fill-opacity="0.85"/>
  <path d="M11.7773 20.9082C12.1875 20.9082 12.5098 20.6445 12.627 20.2148L14.9609 11.6309L15.0391 11.6309L17.3633 20.2148C17.4805 20.6641 17.7734 20.9082 18.2227 20.9082C18.6816 20.9082 19.0039 20.6543 19.0918 20.1953L21.1133 10.4297C21.1328 10.332 21.1426 10.2148 21.1426 10.1074C21.1426 9.70703 20.8398 9.51172 20.498 9.51172C20.2246 9.51172 19.9316 9.6875 19.8633 10.0391L18.1836 19.1797L18.1055 19.1797L15.6836 10.1074C15.5859 9.73633 15.3809 9.54102 15.0098 9.54102C14.6484 9.54102 14.4238 9.75586 14.3164 10.127L11.8848 19.1797L11.8164 19.1797L10.127 10.0391C10.0684 9.7168 9.81445 9.51172 9.49219 9.51172C9.12109 9.51172 8.84766 9.72656 8.84766 10.0977C8.84766 10.1758 8.85742 10.3027 8.88672 10.4492L10.9082 20.1953C10.9961 20.6348 11.3184 20.9082 11.7773 20.9082ZM7.97852 15.1367C7.97852 15.3613 8.1543 15.5371 8.37891 15.5371L21.6211 15.5371C21.8457 15.5371 22.0215 15.3613 22.0215 15.1367C22.0215 14.9121 21.8457 14.7559 21.6211 14.7559L8.37891 14.7559C8.1543 14.7559 7.97852 14.9121 7.97852 15.1367Z" fill="black" fill-opacity="0.85"/>
 </g>
</svg>
