<?xml version="1.0" encoding="UTF-8"?>
<!--Generator: Apple Native CoreSVG 326-->
<!DOCTYPE svg
PUBLIC "-//W3C//DTD SVG 1.1//EN"
       "http://www.w3.org/Graphics/SVG/1.1/DTD/svg11.dtd">
<svg version="1.1" xmlns="http://www.w3.org/2000/svg" xmlns:xlink="http://www.w3.org/1999/xlink" viewBox="0 0 28.291 27.9395">
 <g>
  <rect height="27.9395" opacity="0" width="28.291" x="0" y="0"/>
  <path d="M13.9648 27.9297C21.6406 27.9297 27.9297 21.6504 27.9297 13.9648C27.9297 6.2793 21.6406 0 13.9648 0C6.28906 0 0 6.2793 0 13.9648C0 21.6504 6.28906 27.9297 13.9648 27.9297ZM13.9648 23.3398C8.7793 23.3398 4.58008 19.1504 4.58008 13.9648C4.58008 8.7793 8.7793 4.58008 13.9648 4.58008C19.1504 4.58008 23.3496 8.7793 23.3496 13.9648C23.3496 19.1504 19.1504 23.3398 13.9648 23.3398Z" fill="black" fill-opacity="0.85"/>
  <path d="M10.7422 19.6973C11.1621 19.6973 11.4746 19.4336 11.5918 19.0137L13.9258 10.4199L14.0039 10.4199L16.3281 19.0137C16.4453 19.4531 16.7383 19.6973 17.1875 19.6973C17.6465 19.6973 17.9688 19.4531 18.0566 18.9941L20.0781 9.21875C20.0977 9.12109 20.1074 9.00391 20.1074 8.90625C20.1074 8.49609 19.8047 8.31055 19.4629 8.31055C19.1895 8.31055 18.9062 8.47656 18.8379 8.83789L17.1484 17.9688L17.0801 17.9688L14.6484 8.89648C14.5605 8.52539 14.3457 8.33008 13.9746 8.33008C13.623 8.33008 13.3887 8.54492 13.291 8.91602L10.8496 17.9688L10.7812 17.9688L9.10156 8.83789C9.04297 8.51562 8.7793 8.31055 8.45703 8.31055C8.08594 8.31055 7.8125 8.52539 7.8125 8.88672C7.8125 8.96484 7.82227 9.0918 7.85156 9.23828L9.87305 18.9941C9.96094 19.4238 10.2832 19.6973 10.7422 19.6973ZM6.94336 13.9258C6.94336 14.1504 7.11914 14.3262 7.34375 14.3262L20.5859 14.3262C20.8105 14.3262 20.9863 14.1504 20.9863 13.9258C20.9863 13.7012 20.8105 13.5449 20.5859 13.5449L7.34375 13.5449C7.11914 13.5449 6.94336 13.7012 6.94336 13.9258Z" fill="black" fill-opacity="0.85"/>
 </g>
</svg>
