<?xml version="1.0" encoding="UTF-8"?>
<!--Generator: Apple Native CoreSVG 326-->
<!DOCTYPE svg
PUBLIC "-//W3C//DTD SVG 1.1//EN"
       "http://www.w3.org/Graphics/SVG/1.1/DTD/svg11.dtd">
<svg version="1.1" xmlns="http://www.w3.org/2000/svg" xmlns:xlink="http://www.w3.org/1999/xlink" viewBox="0 0 30.6563 25.459">
 <g>
  <rect height="25.459" opacity="0" width="30.6563" x="0" y="0"/>
  <path d="M15.1475 25.4395C22.169 25.4395 27.8623 19.7461 27.8623 12.7246C27.8623 5.70312 22.169 0 15.1475 0C8.12599 0 2.43263 5.70312 2.43263 12.7246L4.24904 12.7246C4.24904 6.69922 9.12208 1.82617 15.1475 1.82617C21.1729 1.82617 26.0459 6.69922 26.0459 12.7246C26.0459 18.75 21.1729 23.623 15.1475 23.623C11.417 23.623 8.08693 21.7285 6.18263 18.877C5.86037 18.4375 5.35255 18.3008 4.90333 18.5742C4.47365 18.8281 4.34669 19.4238 4.69826 19.9023C6.97365 23.252 10.8213 25.4395 15.1475 25.4395ZM0.801772 10.3613C0.000990731 10.3613-0.223619 10.9082 0.235366 11.543L3.0088 15.4883C3.3799 16.0254 3.91701 16.0156 4.27833 15.4883L7.05177 11.5332C7.49123 10.9082 7.27638 10.3613 6.48537 10.3613Z" fill="black" fill-opacity="0.85"/>
  <path d="M11.9346 18.457C12.3447 18.457 12.667 18.1934 12.7744 17.7734L15.1084 9.17969L15.1865 9.17969L17.5108 17.7734C17.6377 18.2129 17.9307 18.457 18.3799 18.457C18.8389 18.457 19.1514 18.2129 19.2393 17.7539L21.2705 7.97852C21.2803 7.88086 21.2901 7.76367 21.2901 7.66602C21.2901 7.25586 20.9873 7.07031 20.6455 7.07031C20.3721 7.07031 20.0889 7.23633 20.0205 7.59766L18.3408 16.7285L18.2627 16.7285L15.8311 7.65625C15.7432 7.28516 15.5283 7.08984 15.1572 7.08984C14.8057 7.08984 14.5811 7.30469 14.4736 7.67578L12.0322 16.7285L11.9639 16.7285L10.2842 7.59766C10.2256 7.27539 9.97169 7.07031 9.63966 7.07031C9.26857 7.07031 8.99513 7.28516 8.99513 7.64648C8.99513 7.72461 9.0049 7.85156 9.04396 7.99805L11.0557 17.7539C11.1436 18.1836 11.4658 18.457 11.9346 18.457ZM8.13576 12.6855C8.13576 12.9102 8.30177 13.0859 8.52638 13.0859L21.7783 13.0859C22.0029 13.0859 22.169 12.9102 22.169 12.6855C22.169 12.4609 22.0029 12.3047 21.7783 12.3047L8.52638 12.3047C8.30177 12.3047 8.13576 12.4609 8.13576 12.6855Z" fill="black" fill-opacity="0.85"/>
 </g>
</svg>
