<?xml version="1.0" encoding="UTF-8"?>
<!--Generator: Apple Native CoreSVG 326-->
<!DOCTYPE svg
PUBLIC "-//W3C//DTD SVG 1.1//EN"
       "http://www.w3.org/Graphics/SVG/1.1/DTD/svg11.dtd">
<svg version="1.1" xmlns="http://www.w3.org/2000/svg" xmlns:xlink="http://www.w3.org/1999/xlink" viewBox="0 0 25.8008 25.459">
 <g>
  <rect height="25.459" opacity="0" width="25.8008" x="0" y="0"/>
  <path d="M25.4395 12.7246C25.4395 19.7266 19.7266 25.4395 12.7148 25.4395C5.71289 25.4395 0 19.7266 0 12.7246C0 5.71289 5.71289 0 12.7148 0C19.7266 0 25.4395 5.71289 25.4395 12.7246ZM17.7051 7.4707L16.8164 12.2949L14.6973 12.2949L13.418 7.5293C13.3301 7.14844 13.1055 6.94336 12.7246 6.94336C12.3633 6.94336 12.1289 7.16797 12.0215 7.54883L10.7422 12.2949L8.62305 12.2949L7.73438 7.4707C7.67578 7.13867 7.40234 6.92383 7.07031 6.92383C6.68945 6.92383 6.40625 7.14844 6.40625 7.51953C6.40625 7.59766 6.41602 7.73438 6.44531 7.88086L7.36328 12.2949L5.92773 12.2949C5.69336 12.2949 5.51758 12.4512 5.51758 12.6855C5.51758 12.9199 5.69336 13.0957 5.92773 13.0957L7.5293 13.0957L8.51562 17.8711C8.60352 18.3203 8.93555 18.6035 9.42383 18.6035C9.84375 18.6035 10.1758 18.3301 10.293 17.8906L11.5918 13.0957L13.8379 13.0957L15.1367 17.8906C15.2637 18.3496 15.5664 18.6035 16.0254 18.6035C16.5039 18.6035 16.8262 18.3496 16.9141 17.8711L17.9102 13.0957L19.5117 13.0957C19.7461 13.0957 19.9121 12.9199 19.9121 12.6855C19.9121 12.4512 19.7461 12.2949 19.5117 12.2949L18.0664 12.2949L18.9941 7.86133C19.0137 7.76367 19.0234 7.64648 19.0234 7.5293C19.0234 7.11914 18.7012 6.92383 18.3594 6.92383C18.0664 6.92383 17.7734 7.09961 17.7051 7.4707ZM9.52148 16.8164L9.45312 16.8164L8.75977 13.0957L10.5371 13.0957ZM15.9863 16.8164L15.9082 16.8164L14.9121 13.0957L16.6699 13.0957ZM13.6328 12.2949L11.8066 12.2949L12.6758 9.10156L12.7539 9.10156Z" fill="black" fill-opacity="0.85"/>
 </g>
</svg>
