<?xml version="1.0" ?><!-- Generator: Adobe Illustrator 25.0.0, SVG Export Plug-In . SVG Version: 6.00 Build 0)  --><svg xmlns="http://www.w3.org/2000/svg" xmlns:xlink="http://www.w3.org/1999/xlink" version="1.1" id="Layer_1" x="0px" y="0px" viewBox="0 0 512 512" style="enable-background:new 0 0 512 512;" xml:space="preserve">
<path d="M256,512c140,0,256-116.2,256-256C512,116,395.8,0,255.7,0C116,0,0,116,0,256C0,395.8,116.2,512,256,512z M256,469.3  c-118.5,0-213.1-94.9-213.1-213.3S137.3,42.7,255.7,42.7S469.1,137.5,469.3,256S374.5,469.3,256,469.3z M147.8,251.5  c0,6.8,5.5,12.3,12.3,12.3h15.3l16.3,101.6c1.5,9.8,8.8,15.3,17.8,15.3c9,0,16.3-5,18.1-15.3l16.8-101.9H267l17.3,101.9  c1.8,10.3,9,15.3,18.1,15.3c8.8,0,16.3-5.5,17.8-15.3l15.8-101.9h15.1c7,0,12.3-5.5,12.3-12.3c0-7.3-5.3-12.5-12.3-12.5h-11  l12.3-79.3c0.5-2.5,1-4.5,1-7c0-8.8-6.8-14.1-15.6-14.1c-7.8,0-14.6,4.3-15.8,13.1l-11.3,87.3h-21.8l-14.6-84.3  c-1.5-10-9.8-15.8-18.8-15.8c-9.5,0-17.1,5.8-18.8,16.1l-14.3,84.3H201l-10.8-87.1c-1.3-8.8-8-13.6-16.1-13.6  c-9,0-16.1,5.8-16.1,14.6c0,2.8,0.8,5.3,1,7.8l12.3,78.3h-11.3C153.3,238.9,147.8,244.2,147.8,251.5z M249,238.9l6.8-48.9l7.3,48.9  H249z M204.3,263.3h14.6l-8.5,59L204.3,263.3z M292.4,263.3h15.8l-6.8,60.7L292.4,263.3z"/>
</svg>