<?xml version="1.0" ?><!-- Generator: Adobe Illustrator 25.0.0, SVG Export Plug-In . SVG Version: 6.00 Build 0)  --><svg xmlns="http://www.w3.org/2000/svg" xmlns:xlink="http://www.w3.org/1999/xlink" version="1.1" id="Layer_1" x="0px" y="0px" viewBox="0 0 512 512" style="enable-background:new 0 0 512 512;" xml:space="preserve">
<path d="M87.3,512h337.3c58.4,0,87.3-28.9,87.3-86.2V86.2C512,28.9,483.1,0,424.7,0H87.3C29.2,0,0,28.6,0,86.2v339.6  C0,483.4,29.2,512,87.3,512z M132.9,250c0-8.3,6.1-14.2,13.9-14.2h12.8l-13.9-89.6c-0.6-2.8-1.1-5.6-1.1-8.9  c0-10.3,7.8-16.7,18.4-16.7c9.2,0,17,5.3,18.4,15.3l12.2,99.8H218l16.1-96.2c1.9-12.2,10.8-18.9,21.7-18.9c10.6,0,20,6.7,21.7,18.6  l16.4,96.2h25l12.8-99.8c1.4-10,9.2-15.3,18.1-15.3c10.3,0,18.1,6.1,18.1,16.1c0,3.3-0.6,5.6-1.1,8.3l-14.2,90.7h12.5  c8.3,0,14.2,5.8,14.2,14.2c0,7.8-5.8,14.5-14.2,14.5h-17.2l-18.1,116c-1.7,11.4-10.3,17.8-20.3,17.8c-10.6,0-18.9-5.8-20.9-17.5  l-19.7-116.2h-25.6l-19.2,116.2c-1.9,11.7-10.3,17.5-20.9,17.5c-10.3,0-18.6-6.4-20.3-17.8l-18.6-115.7h-17.5  C139.1,264.5,132.9,257.8,132.9,250z M248.4,235.8h16.1l-8.3-56.2L248.4,235.8z M197.5,263.9l6.7,67.3l9.7-67.3H197.5z M298.1,263.9  l10.3,69l7.5-69H298.1z"/>
</svg>