<?xml version="1.0" encoding="UTF-8"?>
<!--Generator: Apple Native CoreSVG 326-->
<!DOCTYPE svg
PUBLIC "-//W3C//DTD SVG 1.1//EN"
       "http://www.w3.org/Graphics/SVG/1.1/DTD/svg11.dtd">
<svg version="1.1" xmlns="http://www.w3.org/2000/svg" xmlns:xlink="http://www.w3.org/1999/xlink" viewBox="0 0 23.3203 22.959">
 <g>
  <rect height="22.959" opacity="0" width="23.3203" x="0" y="0"/>
  <path d="M22.959 3.76953L22.959 19.1992C22.959 21.6797 21.6797 22.959 19.1504 22.959L3.79883 22.959C1.2793 22.959 0 21.6992 0 19.1992L0 3.76953C0 1.26953 1.2793 0 3.79883 0L19.1504 0C21.6797 0 22.959 1.2793 22.959 3.76953ZM16.4746 6.2207L15.5859 11.0449L13.4668 11.0449L12.1875 6.2793C12.0996 5.89844 11.875 5.69336 11.4941 5.69336C11.1328 5.69336 10.8887 5.91797 10.791 6.29883L9.51172 11.0449L7.39258 11.0449L6.50391 6.2207C6.44531 5.88867 6.17188 5.67383 5.83984 5.67383C5.45898 5.67383 5.17578 5.89844 5.17578 6.26953C5.17578 6.34766 5.18555 6.48438 5.21484 6.63086L6.13281 11.0449L4.69727 11.0449C4.46289 11.0449 4.28711 11.2012 4.28711 11.4355C4.28711 11.6699 4.46289 11.8457 4.69727 11.8457L6.29883 11.8457L7.28516 16.6211C7.37305 17.0703 7.70508 17.3535 8.18359 17.3535C8.61328 17.3535 8.93555 17.0801 9.0625 16.6406L10.3613 11.8457L12.6074 11.8457L13.8965 16.6406C14.0332 17.0996 14.3359 17.3535 14.7949 17.3535C15.2734 17.3535 15.5957 17.0996 15.6836 16.6211L16.6797 11.8457L18.2812 11.8457C18.5156 11.8457 18.6816 11.6699 18.6816 11.4355C18.6816 11.2012 18.5156 11.0449 18.2812 11.0449L16.8359 11.0449L17.7637 6.61133C17.7734 6.51367 17.7832 6.39648 17.7832 6.2793C17.7832 5.86914 17.4707 5.67383 17.1289 5.67383C16.8359 5.67383 16.543 5.84961 16.4746 6.2207ZM8.29102 15.5664L8.22266 15.5664L7.5293 11.8457L9.30664 11.8457ZM14.7559 15.5664L14.6777 15.5664L13.6816 11.8457L15.4395 11.8457ZM12.4023 11.0449L10.5664 11.0449L11.4453 7.85156L11.5234 7.85156Z" fill="black" fill-opacity="0.85"/>
 </g>
</svg>
