<?xml version="1.0" encoding="UTF-8"?>
<!--Generator: Apple Native CoreSVG 326-->
<!DOCTYPE svg
PUBLIC "-//W3C//DTD SVG 1.1//EN"
       "http://www.w3.org/Graphics/SVG/1.1/DTD/svg11.dtd">
<svg version="1.1" xmlns="http://www.w3.org/2000/svg" xmlns:xlink="http://www.w3.org/1999/xlink" viewBox="0 0 29.5367 30.0872">
 <g>
  <rect height="30.0872" opacity="0" width="29.5367" x="0" y="0"/>
  <path d="M1.51637 28.5641C3.55739 30.6051 6.55544 30.6735 8.56715 28.2907C10.2371 26.3376 13.8211 20.4098 17.1707 17.07C19.3777 14.863 21.7019 16.0739 24.1824 15.0876L22.0144 7.29459C21.7507 6.31803 22.0925 5.47819 23.2742 5.15592L27.8933 3.92545C27.7371 3.52506 27.3562 2.97819 26.8777 2.48991C24.0261-0.420251 19.28-0.48861 16.4382 2.2067C12.2976 6.16178 15.5105 10.3415 12.6297 13.2223C9.23122 16.6208 4.3484 19.2184 1.78981 21.5036C-0.553939 23.5837-0.544173 26.5133 1.51637 28.5641ZM5.0027 26.6012C4.16286 26.6012 3.47926 25.9274 3.47926 25.0778C3.47926 24.2477 4.16286 23.5641 5.0027 23.5641C5.83278 23.5641 6.50661 24.2477 6.50661 25.0778C6.50661 25.9274 5.83278 26.6012 5.0027 26.6012ZM16.9754 9.72623C16.7215 9.79459 16.4968 9.66764 16.409 9.3942C16.3406 9.17936 16.4871 8.92545 16.7312 8.85709L19.6121 8.08561C19.8367 8.02702 20.0808 8.16373 20.1492 8.40787C20.2273 8.66178 20.0711 8.90592 19.8269 8.97428ZM17.3367 11.2106C17.0828 11.279 16.8582 11.152 16.7703 10.8786C16.7019 10.6637 16.8484 10.4098 17.0925 10.3415L19.9734 9.56998C20.198 9.51139 20.4422 9.64811 20.5105 9.89225C20.5886 10.1462 20.4324 10.3903 20.1882 10.4587ZM17.698 12.695C17.4539 12.7633 17.2 12.6266 17.1414 12.363C17.0828 12.1188 17.2195 11.8942 17.4636 11.8258L20.3347 11.0641C20.5886 10.986 20.823 11.1325 20.8816 11.3669C20.9402 11.6012 20.7937 11.8649 20.5691 11.9235ZM25.4031 14.5505C25.9304 14.2575 26.4675 13.8473 27.0437 13.3102C28.5476 11.9235 29.3386 9.87272 29.1043 8.35905L25.1882 9.41373C24.7488 9.54069 24.3777 9.55045 23.9968 9.48209Z" fill="black" fill-opacity="0.85"/>
 </g>
</svg>
