<?xml version="1.0" ?><!-- Generator: Adobe Illustrator 25.0.0, SVG Export Plug-In . SVG Version: 6.00 Build 0)  --><svg xmlns="http://www.w3.org/2000/svg" xmlns:xlink="http://www.w3.org/1999/xlink" version="1.1" id="Layer_1" x="0px" y="0px" viewBox="0 0 512 512" style="enable-background:new 0 0 512 512;" xml:space="preserve">
<path d="M256,512c140,0,256-116.2,256-256C512,116,395.8,0,255.7,0C116,0,0,116,0,256C0,395.8,116.2,512,256,512z M178.9,374.7  c-11,0-19.3-7.8-19.3-18.1c0-5.3,1.3-8.8,4.5-13.6l65.8-90.9l-62-85.3c-4.3-5.8-5.5-9.3-5.5-15.1c0-10.5,9.3-19.3,20.3-19.3  c8.8,0,13.8,3.3,19.8,11.5l55,79.8h1.3l54.2-79.6c5.5-8.5,10.8-11.8,18.8-11.8c11,0,19.6,8,19.6,18.3c0,4.8-1.3,9-5,13.8l-65.3,88.8  l64.8,88.6c3.5,4.5,5,8.3,5,13.6c0,11.3-8.8,19.1-20.6,19.1c-8,0-12.8-3-19.3-12l-55.7-79.6h-1l-56,79.6  C191.5,371.7,187.2,374.7,178.9,374.7z"/>
</svg>