<?xml version="1.0" encoding="UTF-8"?>
<!--Generator: Apple Native CoreSVG 326-->
<!DOCTYPE svg
PUBLIC "-//W3C//DTD SVG 1.1//EN"
       "http://www.w3.org/Graphics/SVG/1.1/DTD/svg11.dtd">
<svg version="1.1" xmlns="http://www.w3.org/2000/svg" xmlns:xlink="http://www.w3.org/1999/xlink" viewBox="0 0 25.8008 25.459">
 <g>
  <rect height="25.459" opacity="0" width="25.8008" x="0" y="0"/>
  <path d="M25.4395 12.7246C25.4395 19.7266 19.7266 25.4395 12.7148 25.4395C5.71289 25.4395 0 19.7266 0 12.7246C0 5.71289 5.71289 0 12.7148 0C19.7266 0 25.4395 5.71289 25.4395 12.7246ZM15.6641 7.14844L12.8418 11.3379L12.7832 11.3379L9.92188 7.13867C9.67773 6.78711 9.45312 6.65039 9.07227 6.65039C8.60352 6.65039 8.20312 7.02148 8.20312 7.48047C8.20312 7.72461 8.27148 7.88086 8.44727 8.11523L11.6113 12.5781L8.29102 17.2559C8.14453 17.4707 8.08594 17.6074 8.08594 17.8418C8.08594 18.2812 8.44727 18.6133 8.91602 18.6133C9.27734 18.6133 9.46289 18.4766 9.74609 18.0957L12.6465 13.916L12.6953 13.916L15.5762 18.0957C15.8594 18.4766 16.0547 18.6133 16.416 18.6133C16.9141 18.6133 17.2852 18.2812 17.2852 17.8027C17.2852 17.5684 17.2168 17.4023 17.0703 17.207L13.7988 12.627L17.0996 8.02734C17.2559 7.82227 17.3242 7.63672 17.3242 7.44141C17.3242 6.99219 16.9531 6.65039 16.4746 6.65039C16.123 6.65039 15.9082 6.78711 15.6641 7.14844Z" fill="black" fill-opacity="0.85"/>
 </g>
</svg>
