<?xml version="1.0" ?><!-- Generator: Adobe Illustrator 25.0.0, SVG Export Plug-In . SVG Version: 6.00 Build 0)  --><svg xmlns="http://www.w3.org/2000/svg" xmlns:xlink="http://www.w3.org/1999/xlink" version="1.1" id="Layer_1" x="0px" y="0px" viewBox="0 0 512 512" style="enable-background:new 0 0 512 512;" xml:space="preserve">
<path d="M256,512c140,0,256-116.2,256-256C512,116,395.8,0,255.7,0C116,0,0,116,0,256C0,395.8,116.2,512,256,512z M256,469.3  c-118.5,0-213.1-95.1-213.1-213.3c0-118.5,94.4-213.3,212.8-213.3S469.1,137.5,469.3,256C469.6,374.2,374.5,469.3,256,469.3z   M120.5,211.8H391c15.1,0,22.8-8.8,22.8-23.6v-12.8c0-15.1-7.8-24.1-22.8-24.1H120.5c-14.3,0-22.8,9-22.8,24.1v12.8  C97.6,203,105.4,211.8,120.5,211.8z M186,396h139.5c26.1,0,36.6-13.8,40.4-39.7L384,232.2H127.7l17.8,124.2  C149.3,382.5,160.1,396,186,396z M217.6,360.2c-6.3,0-11-5-11-10.8c0-3.3,1.3-5.8,3.5-7.8l30.4-30.6l-30.4-30.6  c-2.3-2-3.5-4.5-3.5-7.8c0-5.8,4.8-10.5,11-10.5c2.8,0,5.3,1.3,7.3,3.3l30.6,30.6l31.1-30.6c2-2,4.5-3.5,7.3-3.5  c6.3,0,11,4.8,11,10.8c0,3-1,5.3-3.3,7.8L271.1,311l30.6,30.6c1.8,2,3,4.5,3,7.8c0,5.8-4.8,10.8-10.8,10.8c-3,0-5.5-1.8-7.5-3.3  l-30.9-30.6l-30.4,30.6C223.1,358.7,220.4,360.2,217.6,360.2z"/>
</svg>