<?xml version="1.0" ?><!-- Generator: Adobe Illustrator 25.0.0, SVG Export Plug-In . SVG Version: 6.00 Build 0)  --><svg xmlns="http://www.w3.org/2000/svg" xmlns:xlink="http://www.w3.org/1999/xlink" version="1.1" id="Layer_1" x="0px" y="0px" viewBox="0 0 512 512" style="enable-background:new 0 0 512 512;" xml:space="preserve">
<path d="M87.3,512h337.3c58.4,0,87.3-28.9,87.3-86.2V86.2C512,28.9,483.1,0,424.7,0H87.3C29.2,0,0,28.6,0,86.2v339.6  C0,483.4,29.2,512,87.3,512z M87.9,467.2c-27.8,0-43.1-14.7-43.1-43.7V88.4c0-28.9,15.3-43.7,43.1-43.7h336.2  c27.5,0,43.1,14.7,43.1,43.7v335.1c0,28.9-15.6,43.7-43.1,43.7H87.9z M161.3,373.2c6.4,0,12-2.5,16.1-7l78.7-79l79.3,79  c4.2,4.2,9.5,7,15.9,7c12.5,0,22.2-10,22.2-22.5c0-6.4-2.2-11.4-6.7-15.9l-79-79l79.3-79.5c4.7-4.7,6.7-9.5,6.7-15.6  c0-12.2-9.7-22.2-22.2-22.2c-5.8,0-10.6,2.2-15.3,7l-80.1,79.3l-79.3-79c-4.2-4.5-9.2-6.7-15.6-6.7c-12.2,0-22.2,9.7-22.2,22  c0,6.1,2.5,11.4,6.7,15.6l79,79.3l-79,79.3c-4.2,4.2-6.7,9.5-6.7,15.6C139.1,363.2,149.1,373.2,161.3,373.2z"/>
</svg>