<?xml version="1.0" encoding="UTF-8"?>
<!--Generator: Apple Native CoreSVG 326-->
<!DOCTYPE svg
PUBLIC "-//W3C//DTD SVG 1.1//EN"
       "http://www.w3.org/Graphics/SVG/1.1/DTD/svg11.dtd">
<svg version="1.1" xmlns="http://www.w3.org/2000/svg" xmlns:xlink="http://www.w3.org/1999/xlink" viewBox="0 0 25.8008 25.459">
 <g>
  <rect height="25.459" opacity="0" width="25.8008" x="0" y="0"/>
  <path d="M25.4395 12.7344C25.4395 19.7461 19.7266 25.459 12.7148 25.459C5.71289 25.459 0 19.7461 0 12.7344C0 5.73242 5.71289 0.0195312 12.7148 0.0195312C19.7266 0.0195312 25.4395 5.73242 25.4395 12.7344ZM6.16211 11.3574L7.10938 17.8223C7.29492 19.1211 7.8418 19.8145 9.14062 19.8145L16.2891 19.8145C17.5879 19.8145 18.1348 19.1113 18.3301 17.8223L19.2676 11.3574ZM15.2344 13.3984C15.2344 13.5352 15.1855 13.6426 15.0781 13.7598L13.4473 15.4004L15.0781 17.041C15.1562 17.1387 15.2246 17.2559 15.2246 17.4023C15.2246 17.666 14.9805 17.9102 14.7168 17.9102C14.5605 17.9102 14.4434 17.8418 14.3555 17.7637L12.7051 16.123L11.0742 17.7637C10.9863 17.8516 10.8594 17.9102 10.7129 17.9102C10.4297 17.9102 10.2051 17.666 10.2051 17.4023C10.2051 17.2559 10.2637 17.1387 10.3613 17.041L11.9824 15.4004L10.3613 13.7598C10.2637 13.6621 10.2051 13.5449 10.2051 13.3984C10.2051 13.125 10.4297 12.9004 10.7129 12.9004C10.8594 12.9004 10.9766 12.9492 11.0645 13.0469L12.7051 14.6777L14.3652 13.0469C14.4629 12.9492 14.5703 12.8906 14.7168 12.8906C15.0098 12.8906 15.2344 13.1055 15.2344 13.3984ZM5.67383 7.30469C4.96094 7.30469 4.55078 7.74414 4.55078 8.47656L4.55078 9.22852C4.55078 9.94141 4.93164 10.3906 5.67383 10.3906L19.7656 10.3906C20.498 10.3906 20.8887 9.94141 20.8887 9.22852L20.8887 8.47656C20.8887 7.74414 20.498 7.30469 19.7656 7.30469Z" fill="black" fill-opacity="0.85"/>
 </g>
</svg>
