<?xml version="1.0" encoding="UTF-8"?>
<!--Generator: Apple Native CoreSVG 326-->
<!DOCTYPE svg
PUBLIC "-//W3C//DTD SVG 1.1//EN"
       "http://www.w3.org/Graphics/SVG/1.1/DTD/svg11.dtd">
<svg version="1.1" xmlns="http://www.w3.org/2000/svg" xmlns:xlink="http://www.w3.org/1999/xlink" viewBox="0 0 23.2715 22.9199">
 <g>
  <rect height="22.9199" opacity="0" width="23.2715" x="0" y="0"/>
  <path d="M21.4844 1.44531C22.6953 2.64648 22.9102 4.32617 22.9102 6.5625L22.9102 16.3379C22.9102 18.584 22.6953 20.2539 21.4844 21.4648C20.2734 22.6758 18.5742 22.9102 16.3379 22.9102L6.57227 22.9102C4.33594 22.9102 2.64648 22.6758 1.42578 21.4648C0.214844 20.2637 0 18.584 0 16.3379L0 6.50391C0 4.33594 0.224609 2.65625 1.43555 1.44531C2.64648 0.234375 4.3457 0 6.50391 0L16.3379 0C18.5742 0 20.2637 0.234375 21.4844 1.44531ZM15.0781 6.60156L11.4453 10.2148L7.83203 6.61133C7.64648 6.43555 7.46094 6.34766 7.19727 6.34766C6.70898 6.34766 6.30859 6.72852 6.30859 7.22656C6.30859 7.4707 6.39648 7.68555 6.57227 7.86133L10.1758 11.4648L6.57227 15.0684C6.39648 15.2441 6.30859 15.4688 6.30859 15.7031C6.30859 16.2109 6.70898 16.6113 7.19727 16.6113C7.46094 16.6113 7.67578 16.5137 7.86133 16.3379L11.4453 12.7344L15.0293 16.3379C15.2051 16.5137 15.4297 16.6113 15.6836 16.6113C16.1914 16.6113 16.5918 16.2109 16.5918 15.7031C16.5918 15.459 16.5039 15.2344 16.3184 15.0586L12.7148 11.4648L16.3281 7.85156C16.5234 7.65625 16.6016 7.46094 16.6016 7.20703C16.6016 6.71875 16.2012 6.32812 15.7031 6.32812C15.4688 6.32812 15.2637 6.40625 15.0781 6.60156Z" fill="black" fill-opacity="0.85"/>
 </g>
</svg>
