<?xml version="1.0" ?><!-- Generator: Adobe Illustrator 25.0.0, SVG Export Plug-In . SVG Version: 6.00 Build 0)  --><svg xmlns="http://www.w3.org/2000/svg" xmlns:xlink="http://www.w3.org/1999/xlink" version="1.1" id="Layer_1" x="0px" y="0px" viewBox="0 0 512 512" style="enable-background:new 0 0 512 512;" xml:space="preserve">
<path d="M479.1,33.3c-14.4-14.4-31.6-23.6-51.5-27.4c-19.9-3.8-41.8-5.8-65.8-5.8H149.4c-23.6,0-45.3,1.9-65.1,5.8  c-19.8,3.8-36.9,13-51.3,27.4C18.7,47.6,9.6,64.6,5.8,84.3c-3.8,19.7-5.8,41.4-5.8,65v212.7c0,24,1.9,45.9,5.6,65.7  c3.8,19.8,12.8,36.8,27.3,51.1c14.4,14.4,31.6,23.6,51.3,27.4c19.8,3.8,41.7,5.8,65.7,5.8h211.8c24,0,45.9-1.9,65.8-5.8  c19.9-3.8,37-13,51.5-27.4c14.3-14.3,23.3-31.3,27.1-51.1c3.8-19.8,5.8-41.7,5.8-65.7V150.1c0-24-1.9-45.9-5.8-65.7  C502.4,64.6,493.3,47.6,479.1,33.3z" class="hierarchical-0:tertiary SFSymbolsPreview8E8E8E" style="fill: #8E8E8E;"/>
<path d="M161.5,374.3c-6.4,0-11.8-2.3-16.3-6.9c-4.5-4.6-6.8-10.1-6.8-16.5c0-6.4,2.3-11.8,6.8-16.3l78.2-78.2l-78.2-77.9  c-4.5-4.7-6.8-10.1-6.8-16.3c0-6.6,2.3-12,6.8-16.5c4.5-4.4,9.9-6.6,16.3-6.6c6.2,0,11.6,2.2,16.3,6.5l78.5,78.2l79.1-78.5  c4.5-4.5,9.8-6.8,16-6.8c6.4,0,11.8,2.3,16.3,6.8c4.5,4.5,6.8,9.9,6.8,16.3c0,6.4-2.3,11.9-6.8,16.6l-78.5,78.2l78.2,77.9  c4.5,4.1,6.8,9.7,6.8,16.6c0,6.4-2.3,11.9-6.8,16.5c-4.5,4.6-10,6.9-16.6,6.9c-6.8,0-12.3-2.3-16.6-6.8l-77.9-78.2l-77.6,78.2  C173.9,372,168.2,374.3,161.5,374.3z" class="hierarchical-1:primary SFSymbolsPreview212121" style="fill: #212121;"/>
</svg>