<?xml version="1.0" encoding="UTF-8"?>
<!--Generator: Apple Native CoreSVG 326-->
<!DOCTYPE svg
PUBLIC "-//W3C//DTD SVG 1.1//EN"
       "http://www.w3.org/Graphics/SVG/1.1/DTD/svg11.dtd">
<svg version="1.1" xmlns="http://www.w3.org/2000/svg" xmlns:xlink="http://www.w3.org/1999/xlink" viewBox="0 0 21.3281 26.9238">
 <g>
  <rect height="26.9238" opacity="0" width="21.3281" x="0" y="0"/>
  <path d="M0 23.125C0 25.6445 1.25977 26.9238 3.75977 26.9238L17.207 26.9238C19.707 26.9238 20.9668 25.6445 20.9668 23.125L20.9668 3.80859C20.9668 1.28906 19.707 0.00976562 17.207 0.00976562L3.75977 0.00976562C1.25977 0.00976562 0 1.28906 0 3.80859ZM1.72852 23.0859L1.72852 3.84766C1.72852 2.48047 2.45117 1.73828 3.85742 1.73828L17.1094 1.73828C18.5156 1.73828 19.2383 2.48047 19.2383 3.84766L19.2383 23.0859C19.2383 24.4531 18.5156 25.1953 17.1094 25.1953L3.85742 25.1953C2.45117 25.1953 1.72852 24.4531 1.72852 23.0859Z" fill="black" fill-opacity="0.85"/>
  <path d="M6.13281 18.7012C6.37695 18.7012 6.5918 18.6133 6.76758 18.4277L10.4883 14.6973L14.2285 18.4277C14.3945 18.6035 14.6094 18.7012 14.8535 18.7012C15.3418 18.7012 15.7324 18.3105 15.7324 17.832C15.7324 17.5781 15.6348 17.3828 15.459 17.207L11.7285 13.4668L15.4785 9.7168C15.6543 9.53125 15.7422 9.33594 15.7422 9.10156C15.7422 8.61328 15.3516 8.23242 14.8633 8.23242C14.6387 8.23242 14.4434 8.32031 14.2578 8.50586L10.4883 12.2559L6.74805 8.51562C6.57227 8.33984 6.37695 8.25195 6.13281 8.25195C5.64453 8.25195 5.26367 8.62305 5.26367 9.11133C5.26367 9.3457 5.35156 9.56055 5.52734 9.72656L9.26758 13.4668L5.52734 17.2168C5.35156 17.3828 5.26367 17.5879 5.26367 17.832C5.26367 18.3105 5.64453 18.7012 6.13281 18.7012Z" fill="black" fill-opacity="0.85"/>
 </g>
</svg>
