<?xml version="1.0" encoding="UTF-8"?>
<!--Generator: Apple Native CoreSVG 326-->
<!DOCTYPE svg
PUBLIC "-//W3C//DTD SVG 1.1//EN"
       "http://www.w3.org/Graphics/SVG/1.1/DTD/svg11.dtd">
<svg version="1.1" xmlns="http://www.w3.org/2000/svg" xmlns:xlink="http://www.w3.org/1999/xlink" viewBox="0 0 29.9512 22.959">
 <g>
  <rect height="22.959" opacity="0" width="29.9512" x="0" y="0"/>
  <path d="M29.5898 3.76953L29.5898 19.1992C29.5898 21.6797 28.3105 22.959 25.7812 22.959L3.79883 22.959C1.2793 22.959 0 21.6992 0 19.1992L0 3.76953C0 1.26953 1.2793 0 3.79883 0L25.7812 0C28.3105 0 29.5898 1.2793 29.5898 3.76953ZM18.4277 6.63086L14.8047 10.2441L11.1914 6.64062C11.0059 6.46484 10.8105 6.37695 10.5566 6.37695C10.0586 6.37695 9.66797 6.75781 9.66797 7.25586C9.66797 7.5 9.75586 7.71484 9.93164 7.89062L13.5352 11.4941L9.93164 15.0977C9.75586 15.2734 9.66797 15.498 9.66797 15.7324C9.66797 16.2402 10.0586 16.6406 10.5566 16.6406C10.8105 16.6406 11.0352 16.543 11.2207 16.3672L14.8047 12.7637L18.3887 16.3672C18.5645 16.543 18.7891 16.6406 19.043 16.6406C19.5508 16.6406 19.9414 16.2402 19.9414 15.7324C19.9414 15.4883 19.8633 15.2637 19.6777 15.0879L16.0742 11.4941L19.6875 7.88086C19.8828 7.68555 19.9512 7.49023 19.9512 7.23633C19.9512 6.74805 19.5605 6.35742 19.0625 6.35742C18.8184 6.35742 18.623 6.43555 18.4277 6.63086Z" fill="black" fill-opacity="0.85"/>
 </g>
</svg>
