<?xml version="1.0" encoding="UTF-8"?>
<!--Generator: Apple Native CoreSVG 326-->
<!DOCTYPE svg
PUBLIC "-//W3C//DTD SVG 1.1//EN"
       "http://www.w3.org/Graphics/SVG/1.1/DTD/svg11.dtd">
<svg version="1.1" xmlns="http://www.w3.org/2000/svg" xmlns:xlink="http://www.w3.org/1999/xlink" viewBox="0 0 25.8691 24.6582">
 <g>
  <rect height="24.6582" opacity="0" width="25.8691" x="0" y="0"/>
  <path d="M19.7559 1.50391L24.502 6.68945C25.3027 7.56836 25.5078 8.14453 25.5078 9.38477L25.5078 15.2637C25.5078 16.5039 25.3027 17.0898 24.502 17.959L19.7559 23.1445C18.8867 24.082 18.1641 24.6484 16.4258 24.6484L9.08203 24.6484C7.34375 24.6484 6.62109 24.082 5.76172 23.1445L1.00586 17.959C0.205078 17.0898 0 16.5039 0 15.2637L0 9.38477C0 8.14453 0.205078 7.56836 1.00586 6.68945L5.76172 1.50391C6.62109 0.576172 7.34375 0 9.08203 0L16.4258 0C18.1641 0 18.8867 0.576172 19.7559 1.50391ZM16.3965 7.4707L12.7637 11.084L9.15039 7.48047C8.96484 7.30469 8.7793 7.2168 8.51562 7.2168C8.02734 7.2168 7.62695 7.59766 7.62695 8.0957C7.62695 8.33984 7.71484 8.55469 7.89062 8.73047L11.4941 12.334L7.89062 15.9375C7.71484 16.1133 7.62695 16.3379 7.62695 16.5723C7.62695 17.0801 8.02734 17.4805 8.51562 17.4805C8.7793 17.4805 8.99414 17.3828 9.17969 17.207L12.7637 13.6035L16.3574 17.207C16.5234 17.3828 16.7578 17.4805 17.002 17.4805C17.5098 17.4805 17.9102 17.0801 17.9102 16.5723C17.9102 16.3281 17.8223 16.1035 17.6367 15.9277L14.0332 12.334L17.6465 8.7207C17.8418 8.52539 17.9199 8.33008 17.9199 8.07617C17.9199 7.58789 17.5195 7.19727 17.0215 7.19727C16.7871 7.19727 16.582 7.27539 16.3965 7.4707Z" fill="black" fill-opacity="0.85"/>
 </g>
</svg>
