<?xml version="1.0" encoding="UTF-8"?>
<!--Generator: Apple Native CoreSVG 326-->
<!DOCTYPE svg
PUBLIC "-//W3C//DTD SVG 1.1//EN"
       "http://www.w3.org/Graphics/SVG/1.1/DTD/svg11.dtd">
<svg version="1.1" xmlns="http://www.w3.org/2000/svg" xmlns:xlink="http://www.w3.org/1999/xlink" viewBox="0 0 28.6086 28.2642">
 <g>
  <rect height="28.2642" opacity="0" width="28.6086" x="0" y="0"/>
  <path d="M16.8189 1.35378L26.9068 11.4417C28.6939 13.2288 28.6939 15.0257 26.9264 16.7932L16.7994 26.93C15.0318 28.6975 13.235 28.6878 11.4478 26.9007L1.35995 16.8128C-0.436922 15.0257-0.456453 13.2385 1.32089 11.4612L11.4674 1.33425C13.2447-0.452858 15.0318-0.443093 16.8189 1.35378ZM17.7662 9.2737L14.1334 12.887L10.5201 9.28347C10.3443 9.10769 10.149 9.0198 9.89511 9.0198C9.39706 9.0198 8.99667 9.40066 8.99667 9.8987C8.99667 10.1428 9.08456 10.3577 9.26034 10.5335L12.8639 14.137L9.26034 17.7405C9.08456 17.9163 8.99667 18.1409 8.99667 18.3753C8.99667 18.8831 9.39706 19.2835 9.89511 19.2835C10.149 19.2835 10.3736 19.1858 10.5494 19.01L14.1334 15.4065L17.7271 19.01C17.8932 19.1858 18.1275 19.2835 18.3717 19.2835C18.8795 19.2835 19.2799 18.8831 19.2799 18.3753C19.2799 18.1311 19.2018 17.9065 19.0162 17.7307L15.4127 14.137L19.026 10.5237C19.2213 10.3284 19.2896 10.1331 19.2896 9.87917C19.2896 9.39089 18.8893 9.00027 18.3912 9.00027C18.1568 9.00027 17.9518 9.07839 17.7662 9.2737Z" fill="black" fill-opacity="0.85"/>
 </g>
</svg>
