<?xml version="1.0" ?><!-- Generator: Adobe Illustrator 25.0.0, SVG Export Plug-In . SVG Version: 6.00 Build 0)  --><svg xmlns="http://www.w3.org/2000/svg" xmlns:xlink="http://www.w3.org/1999/xlink" version="1.1" id="Layer_1" x="0px" y="0px" viewBox="0 0 512 512" style="enable-background:new 0 0 512 512;" xml:space="preserve">
<path d="M143.8,452.5h224.1c42,0,60.8-19.6,67-61.5l31.6-214.1h4.9c26.3,0,40.6-16.4,40.6-42.5V102c0-26-14.3-42.5-40.6-42.5H40.5  C15.6,59.5,0,76,0,102v32.4c0,26,14.3,42.5,40.5,42.5h4.7L77,391C83.2,433,102,452.5,143.8,452.5z M49.3,144.7  c-10.7,0-14.9-4.5-14.9-15.2v-22.6c0-10.7,4.3-15.2,14.9-15.2h413.6c10.7,0,14.7,4.5,14.7,15.2v22.6c0,10.7-4.1,15.2-14.7,15.2H49.3  z M144.5,420.2c-19.2,0-30.3-8.5-33.3-29.7L79.4,176.9h353.2l-31.8,213.6c-3.2,21.1-14.5,29.7-33.3,29.7H144.5z M194,375.6  c4.5,0,8.3-2.1,11.3-5.1l50.4-50.6l50.8,50.6c3,2.8,6.6,5.1,11.5,5.1c9,0,16.2-7.7,16.2-16.6c0-4.9-1.9-8.3-5.1-11.5l-50.2-50.4  l50.4-51c3.4-3.4,5.1-6.6,5.1-11.1c0-9.2-7.3-16.4-16.4-16.4c-4.3,0-7.7,1.7-11.1,5.1l-51.2,50.6l-50.6-50.4  c-3.2-3.2-6.6-4.9-11.1-4.9c-9.2,0-16.4,7-16.4,16c0,4.7,1.9,8.3,4.9,11.3l50.4,50.8l-50.4,50.6c-3,3-4.9,6.6-4.9,11.3  C177.6,367.9,184.8,375.6,194,375.6z"/>
</svg>