<?xml version="1.0" ?><!-- Generator: Adobe Illustrator 25.0.0, SVG Export Plug-In . SVG Version: 6.00 Build 0)  --><svg xmlns="http://www.w3.org/2000/svg" xmlns:xlink="http://www.w3.org/1999/xlink" version="1.1" id="Layer_1" x="0px" y="0px" viewBox="0 0 512 512" style="enable-background:new 0 0 512 512;" xml:space="preserve">
<path d="M178.9,502.2h154.2c32.3,0,47.5-10.4,64.3-28.5l93.5-103.7c16.8-18.5,21.1-30.7,21.1-55.9V198.1c0-25.4-4.3-37.4-21.1-55.9  L397.4,38.5c-16.8-18-32-28.7-64.3-28.7H178.9c-32.3,0-47.8,10.7-64.3,28.7L21.1,142.2C4.3,160.7,0,172.7,0,198.1v116.1  c0,25.2,4.3,37.4,21.1,55.9l93.5,103.7C131.1,491.8,146.6,502.2,178.9,502.2z M192.6,461.6c-25.4,0-32.8-5.6-46.8-20.8l-86.6-95.3  C49.3,334.3,47,327.9,47,309.4V202.9c0-18.5,2.3-24.9,12.2-36.1l86.6-95.3c14-15.5,21.3-20.8,46.8-20.8h126.8  c25.4,0,32.5,5.3,46.8,20.8l86.4,95.3c10.2,11.2,12.5,17.5,12.5,36.1v106.5c0,18.5-2.3,24.9-12.5,36.1l-86.4,95.3  c-14.2,15.2-21.3,20.8-46.8,20.8H192.6z M169.5,363.5c5.6,0,10.7-2.3,14.5-6.4l72.2-72.2l72.2,72.2c3.8,3.8,8.9,6.4,14.7,6.4  c11.2,0,20.3-9.1,20.3-20.6c0-5.8-2.3-10.4-6.1-14.5l-72.2-72.2l72.4-72.7c4.1-4.3,6.1-8.6,6.1-14.2c0-11.2-9.1-20.3-20.3-20.3  c-5.3,0-9.9,2-14.2,6.4l-72.9,72.4l-72.7-72.2c-3.8-4.1-8.4-6.1-14-6.1c-11.2,0-20.3,8.9-20.3,20.1c0,5.6,2,10.4,6.1,14.2l72.2,72.4  l-72.2,72.4c-4.1,3.8-6.1,8.6-6.1,14.2C149.2,354.3,158.3,363.5,169.5,363.5z"/>
</svg>