<?xml version="1.0" encoding="UTF-8"?>
<!--Generator: Apple Native CoreSVG 326-->
<!DOCTYPE svg
PUBLIC "-//W3C//DTD SVG 1.1//EN"
       "http://www.w3.org/Graphics/SVG/1.1/DTD/svg11.dtd">
<svg version="1.1" xmlns="http://www.w3.org/2000/svg" xmlns:xlink="http://www.w3.org/1999/xlink" viewBox="0 0 29.9512 22.959">
 <g>
  <rect height="22.959" opacity="0" width="29.9512" x="0" y="0"/>
  <path d="M3.79883 22.959L25.7812 22.959C28.3105 22.959 29.5898 21.6797 29.5898 19.1992L29.5898 3.76953C29.5898 1.2793 28.3105 0 25.7812 0L3.79883 0C1.2793 0 0 1.26953 0 3.76953L0 19.1992C0 21.6992 1.2793 22.959 3.79883 22.959ZM3.83789 21.2305C2.4707 21.2305 1.72852 20.5078 1.72852 19.1016L1.72852 3.85742C1.72852 2.46094 2.4707 1.72852 3.83789 1.72852L25.752 1.72852C27.0898 1.72852 27.8516 2.46094 27.8516 3.85742L27.8516 19.1016C27.8516 20.5078 27.0898 21.2305 25.752 21.2305Z" fill="black" fill-opacity="0.85"/>
  <path d="M10.4395 16.7188C10.6934 16.7188 10.8984 16.6309 11.0742 16.4453L14.8047 12.7148L18.5352 16.4453C18.7109 16.6211 18.916 16.7188 19.1699 16.7188C19.6484 16.7188 20.0391 16.3281 20.0391 15.8496C20.0391 15.5957 19.9512 15.4004 19.7754 15.2246L16.0352 11.4844L19.7852 7.73438C19.9707 7.54883 20.0488 7.35352 20.0488 7.11914C20.0488 6.63086 19.6582 6.25 19.1797 6.25C18.9453 6.25 18.7598 6.33789 18.5645 6.52344L14.8047 10.2734L11.0547 6.5332C10.8789 6.35742 10.6934 6.26953 10.4395 6.26953C9.96094 6.26953 9.57031 6.64062 9.57031 7.12891C9.57031 7.36328 9.6582 7.57812 9.83398 7.74414L13.5742 11.4844L9.83398 15.2344C9.6582 15.4004 9.57031 15.6055 9.57031 15.8496C9.57031 16.3281 9.96094 16.7188 10.4395 16.7188Z" fill="black" fill-opacity="0.85"/>
 </g>
</svg>
