<?xml version="1.0" ?><!-- Generator: Adobe Illustrator 25.0.0, SVG Export Plug-In . SVG Version: 6.00 Build 0)  --><svg xmlns="http://www.w3.org/2000/svg" xmlns:xlink="http://www.w3.org/1999/xlink" version="1.1" id="Layer_1" x="0px" y="0px" viewBox="0 0 512 512" style="enable-background:new 0 0 512 512;" xml:space="preserve">
<path d="M119.4,451.4h48.9c4.5,0,7.9,1.4,11.3,4.7l34.7,34.5c28.4,28.6,54.8,28.4,83.2,0l34.7-34.5c3.6-3.4,6.8-4.7,11.5-4.7h48.7  c40.3,0,59-18.5,59-59v-48.7c0-4.7,1.4-7.9,4.7-11.5l34.5-34.7c28.6-28.4,28.4-54.8,0-83.2l-34.5-34.7c-3.4-3.4-4.7-6.8-4.7-11.3  v-48.9c0-40.1-18.5-59-59-59h-48.7c-4.7,0-7.9-1.1-11.5-4.5l-34.7-34.5c-28.4-28.6-54.8-28.4-83.2,0l-34.7,34.5  c-3.4,3.4-6.8,4.5-11.3,4.5h-48.9c-40.3,0-59,18.5-59,59v48.9c0,4.5-1.1,7.9-4.5,11.3l-34.5,34.7c-28.6,28.4-28.4,54.8,0,83.2  l34.5,34.7c3.4,3.6,4.5,6.8,4.5,11.5v48.7C60.4,432.7,79.1,451.4,119.4,451.4z M176.7,354.3c-10.1,0-18.5-8.6-18.5-18.9  c0-5,2-9.5,5.4-13.1l66-66l-66-66c-3.4-3.6-5.4-8.1-5.4-13.1c0-10.4,8.3-18.5,18.5-18.5c5.4,0,9.7,1.8,13.1,5.4l66.3,66l66.9-66.3  c3.8-3.8,7.9-5.6,12.8-5.6c10.1,0,18.5,8.3,18.5,18.5c0,5.2-1.6,9.2-5.4,13.3l-66.3,66.3l66,65.8c3.6,3.8,5.4,8.1,5.4,13.3  c0,10.4-8.3,18.9-18.7,18.9c-5.2,0-9.7-2.3-13.3-5.6l-66-66l-65.6,66C186.8,352.2,182.1,354.3,176.7,354.3z"/>
</svg>