<?xml version="1.0" ?><!-- Generator: Adobe Illustrator 25.0.0, SVG Export Plug-In . SVG Version: 6.00 Build 0)  --><svg xmlns="http://www.w3.org/2000/svg" xmlns:xlink="http://www.w3.org/1999/xlink" version="1.1" id="Layer_1" x="0px" y="0px" viewBox="0 0 512 512" style="enable-background:new 0 0 512 512;" xml:space="preserve">
<path d="M479.5,34c-14.3-14.3-31.2-23.3-50.8-27.1c-19.6-3.8-41.3-5.7-65-5.7H147.4c-23.3,0-44.7,1.9-64.3,5.7  C63.6,10.7,46.7,19.8,32.5,34C18.4,48.1,9.5,64.8,5.7,84.3C1.9,103.7,0,125.1,0,148.4v214.4c0,23.7,1.9,45.3,5.6,64.8  c3.7,19.5,12.7,36.3,26.9,50.4c14.3,14.3,31.1,23.3,50.7,27.1c19.5,3.8,41.1,5.7,64.8,5.7h215.7c23.7,0,45.4-1.9,65-5.7  c19.6-3.8,36.6-12.8,50.8-27.1c14.1-14.1,23-30.9,26.8-50.4c3.8-19.5,5.7-41.1,5.7-64.8V149.2c0-23.7-1.9-45.3-5.7-64.8  C502.5,64.9,493.6,48.1,479.5,34z M467.3,141.5v228.8c0,14.4-1.3,28.5-4,42.1c-2.7,13.6-8.2,24.7-16.5,33.2  c-8.3,8.3-19.4,13.8-33.2,16.5c-13.8,2.7-27.8,4-42.1,4h-231c-14.3,0-28.3-1.3-42.1-4c-13.8-2.7-24.9-8.2-33.5-16.5  c-8.3-8.5-13.8-19.6-16.4-33.2c-2.6-13.6-3.9-27.6-3.9-42.1v-228c0-14.6,1.3-28.8,3.9-42.6c2.6-13.8,8.1-24.9,16.4-33.2  c8.3-8.5,19.5-14.1,33.5-16.7c14-2.6,28.3-3.9,42.9-3.9h230.2c14.3,0,28.3,1.3,42.1,4c13.8,2.7,24.9,8.2,33.2,16.5  c8.5,8.5,14.1,19.6,16.7,33.2C466,113.3,467.3,127.2,467.3,141.5z" class="hierarchical-0:secondary SFSymbolsPreview4D4D4D" style="fill: #4D4D4D;"/>
<path d="M161.3,373c6.5,0,11.8-2.3,16.1-6.9l78.6-78.9l79.1,78.9c4.4,4.6,9.7,6.9,15.8,6.9c6.1,0,11.3-2.2,15.7-6.7  c4.4-4.4,6.5-9.7,6.5-15.8s-2.2-11.4-6.7-15.8l-78.9-78.9l79.1-79.4c4.4-4.4,6.7-9.6,6.7-15.5c0-6.1-2.2-11.3-6.5-15.7  c-4.3-4.3-9.6-6.5-15.7-6.5c-5.7,0-10.8,2.3-15.3,6.9l-80,79.1l-79.1-78.9c-4.1-4.4-9.3-6.7-15.5-6.7c-6.1,0-11.3,2.1-15.7,6.4  c-4.3,4.3-6.5,9.4-6.5,15.5c0,6.1,2.2,11.3,6.7,15.5l78.9,79.1L145.8,335c-4.4,4.3-6.7,9.4-6.7,15.5s2.2,11.4,6.5,15.8  C150,370.8,155.2,373,161.3,373z" class="hierarchical-1:primary SFSymbolsPreview212121" style="fill: #212121;"/>
</svg>