<?xml version="1.0" ?><!-- Generator: Adobe Illustrator 25.0.0, SVG Export Plug-In . SVG Version: 6.00 Build 0)  --><svg xmlns="http://www.w3.org/2000/svg" xmlns:xlink="http://www.w3.org/1999/xlink" version="1.1" id="Layer_1" x="0px" y="0px" viewBox="0 0 512 512" style="enable-background:new 0 0 512 512;" xml:space="preserve">
<path d="M68.2,455.9h375.6c45.6,0,68.2-22.6,68.2-67.3V123.4c0-44.7-22.6-67.3-68.2-67.3H68.2C22.8,56.1,0,78.5,0,123.4v265.1  C0,433.5,22.8,455.9,68.2,455.9z M179.8,350.8c-10,0-17.8-8.3-17.8-18.2c0-4.8,1.7-9.3,5.2-12.6l63.6-63.6l-63.6-63.6  c-3.5-3.5-5.2-7.8-5.2-12.6c0-10.2,7.8-17.8,17.8-17.8c5,0,9.1,1.5,12.4,5l64.1,63.8l64.3-64.1c3.7-3.7,7.8-5.2,12.6-5.2  c9.8,0,17.8,7.8,17.8,17.8c0,5-1.7,8.9-5.2,12.8l-63.8,63.8l63.6,63.4c3.3,3.5,5.2,7.8,5.2,12.8c0,10-8,18.2-18,18.2  c-5,0-9.6-2.2-13-5.4l-63.4-63.8l-63.4,63.8C189.3,348.8,184.8,350.8,179.8,350.8z"/>
</svg>