<?xml version="1.0" encoding="UTF-8"?>
<!--Generator: Apple Native CoreSVG 326-->
<!DOCTYPE svg
PUBLIC "-//W3C//DTD SVG 1.1//EN"
       "http://www.w3.org/Graphics/SVG/1.1/DTD/svg11.dtd">
<svg version="1.1" xmlns="http://www.w3.org/2000/svg" xmlns:xlink="http://www.w3.org/1999/xlink" viewBox="0 0 29.9512 17.5879">
 <g>
  <rect height="17.5879" opacity="0" width="29.9512" x="0" y="0"/>
  <path d="M3.79883 17.5879L25.7812 17.5879C28.3008 17.5879 29.5898 16.3184 29.5898 13.8184L29.5898 9.77539C29.5898 8.24219 29.2188 7.26562 28.3008 6.32812L23.8965 1.75781C22.7148 0.537109 21.7285 0.0195312 20.1465 0.0195312L9.44336 0.0195312C7.86133 0.0195312 6.86523 0.537109 5.68359 1.75781L1.28906 6.32812C0.371094 7.26562 0 8.24219 0 9.77539L0 13.8184C0 16.3184 1.2793 17.5879 3.79883 17.5879ZM3.83789 15.8496C2.4707 15.8496 1.72852 15.127 1.72852 13.7305L1.72852 10.9961C1.72852 10.293 2.04102 9.9707 2.73438 9.9707L26.8555 9.9707C27.5391 9.9707 27.8516 10.293 27.8516 10.9961L27.8516 13.7305C27.8516 15.127 27.1094 15.8496 25.752 15.8496ZM2.60742 8.39844C2.1875 8.39844 2.08984 8.02734 2.32422 7.76367L7.12891 2.68555C7.90039 1.85547 8.4668 1.5918 9.49219 1.5918L20.0879 1.5918C21.123 1.5918 21.6797 1.85547 22.4609 2.68555L27.2559 7.76367C27.5 8.02734 27.3926 8.39844 26.9727 8.39844ZM4.70703 14.1406C5.39062 14.1406 5.95703 13.5742 5.95703 12.8809C5.95703 12.1973 5.39062 11.6309 4.70703 11.6309C4.01367 11.6309 3.44727 12.1973 3.44727 12.8809C3.44727 13.5742 4.01367 14.1406 4.70703 14.1406ZM8.16406 14.541C8.53516 14.541 8.83789 14.2578 8.83789 13.8965L8.83789 11.9336C8.83789 11.5723 8.53516 11.2891 8.16406 11.2891C7.80273 11.2891 7.5293 11.5723 7.5293 11.9336L7.5293 13.8965C7.5293 14.2578 7.80273 14.541 8.16406 14.541ZM10.5664 14.541C10.9277 14.541 11.2402 14.2578 11.2402 13.8965L11.2402 11.9336C11.2402 11.5723 10.9277 11.2891 10.5664 11.2891C10.2051 11.2891 9.93164 11.5723 9.93164 11.9336L9.93164 13.8965C9.93164 14.2578 10.2051 14.541 10.5664 14.541ZM13.2715 13.6719C13.7012 13.6719 14.0625 13.3203 14.0625 12.8809C14.0625 12.4512 13.7012 12.0996 13.2715 12.0996C12.8418 12.0996 12.4902 12.4512 12.4902 12.8809C12.4902 13.3203 12.8418 13.6719 13.2715 13.6719ZM15.9863 14.541C16.3477 14.541 16.6211 14.2578 16.6211 13.8965L16.6211 11.9336C16.6211 11.5723 16.3477 11.2891 15.9863 11.2891C15.625 11.2891 15.3125 11.5723 15.3125 11.9336L15.3125 13.8965C15.3125 14.2578 15.625 14.541 15.9863 14.541ZM18.3887 14.541C18.75 14.541 19.0234 14.2578 19.0234 13.8965L19.0234 11.9336C19.0234 11.5723 18.75 11.2891 18.3887 11.2891C18.0273 11.2891 17.7148 11.5723 17.7148 11.9336L17.7148 13.8965C17.7148 14.2578 18.0273 14.541 18.3887 14.541ZM21.3184 13.5742L25.6445 13.5742C26.0059 13.5742 26.2891 13.2617 26.2891 12.9004C26.2891 12.5391 26.0059 12.2656 25.6445 12.2656L21.3184 12.2656C20.957 12.2656 20.6738 12.5391 20.6738 12.9004C20.6738 13.2617 20.957 13.5742 21.3184 13.5742Z" fill="black" fill-opacity="0.85"/>
 </g>
</svg>
