<?xml version="1.0" encoding="UTF-8"?>
<!--Generator: Apple Native CoreSVG 326-->
<!DOCTYPE svg
PUBLIC "-//W3C//DTD SVG 1.1//EN"
       "http://www.w3.org/Graphics/SVG/1.1/DTD/svg11.dtd">
<svg version="1.1" xmlns="http://www.w3.org/2000/svg" xmlns:xlink="http://www.w3.org/1999/xlink" viewBox="0 0 28.291 27.9395">
 <g>
  <rect height="27.9395" opacity="0" width="28.291" x="0" y="0"/>
  <path d="M13.9648 27.9297C21.6406 27.9297 27.9297 21.6504 27.9297 13.9648C27.9297 6.2793 21.6406 0 13.9648 0C6.28906 0 0 6.2793 0 13.9648C0 21.6504 6.28906 27.9297 13.9648 27.9297ZM13.9648 23.3398C8.7793 23.3398 4.58008 19.1504 4.58008 13.9648C4.58008 8.7793 8.7793 4.58008 13.9648 4.58008C19.1504 4.58008 23.3496 8.7793 23.3496 13.9648C23.3496 19.1504 19.1504 23.3398 13.9648 23.3398Z" fill="black" fill-opacity="0.85"/>
  <path d="M13.9648 19.7656C14.3457 19.7656 14.6094 19.4922 14.6094 19.1016L14.6094 14.9219L18.2031 9.16992C18.3008 9.01367 18.3398 8.93555 18.3398 8.75C18.3398 8.39844 18.0469 8.16406 17.6953 8.16406C17.4512 8.16406 17.2559 8.29102 17.1191 8.53516L13.9941 13.7305L13.9453 13.7305L10.8301 8.53516C10.6934 8.29102 10.5273 8.1543 10.2344 8.1543C9.87305 8.1543 9.58984 8.38867 9.58984 8.75C9.58984 8.88672 9.63867 9.0332 9.73633 9.18945L13.3203 14.9219L13.3203 19.1016C13.3203 19.4922 13.584 19.7656 13.9648 19.7656ZM10.4688 14.6582C10.4688 14.873 10.6445 15.0391 10.8594 15.0391L17.1289 15.0391C17.3438 15.0391 17.5195 14.873 17.5195 14.6582C17.5195 14.4336 17.3438 14.2676 17.1289 14.2676L10.8594 14.2676C10.6445 14.2676 10.4688 14.4336 10.4688 14.6582ZM10.4688 16.7773C10.4688 17.002 10.6445 17.168 10.8594 17.168L17.1289 17.168C17.3438 17.168 17.5195 17.002 17.5195 16.7773C17.5195 16.5625 17.3438 16.3965 17.1289 16.3965L10.8594 16.3965C10.6445 16.3965 10.4688 16.5625 10.4688 16.7773Z" fill="black" fill-opacity="0.85"/>
 </g>
</svg>
