<?xml version="1.0" ?><!-- Generator: Adobe Illustrator 25.0.0, SVG Export Plug-In . SVG Version: 6.00 Build 0)  --><svg xmlns="http://www.w3.org/2000/svg" xmlns:xlink="http://www.w3.org/1999/xlink" version="1.1" id="Layer_1" x="0px" y="0px" viewBox="0 0 512 512" style="enable-background:new 0 0 512 512;" xml:space="preserve">
<path d="M87.3,512h337.3c58.4,0,87.3-28.9,87.3-86.2V86.2C512,28.9,483.1,0,424.7,0H87.3C29.2,0,0,28.6,0,86.2v339.6  C0,483.4,29.2,512,87.3,512z M87.9,467.2c-27.8,0-43.1-14.7-43.1-43.7V88.4c0-28.9,15.3-43.7,43.1-43.7h336.2  c27.5,0,43.1,14.7,43.1,43.7v335.1c0,28.9-15.6,43.7-43.1,43.7H87.9z M256.4,396.3c10.3,0,17.5-7.2,17.5-18.4v-40.3h51.7  c8.1,0,13.3-6.1,13.3-13.9c0-7.8-5.3-13.6-13.3-13.6h-51.7v-21.4h51.7c8.1,0,13.3-5.8,13.3-13.6c0-8.1-5.3-13.9-13.3-13.9h-38.9  l67.6-108.7c2.5-3.9,3.6-7.2,3.6-11.4c0-9.2-7.8-16.4-17.8-16.4c-6.7,0-11.7,2.8-15.6,9.2l-68.1,114.3l-68.1-114.6  c-3.9-6.4-8.9-9.2-15.6-9.2c-10,0-17.8,7.2-17.8,16.4c0,4.2,1.1,7.5,3.3,11.4l67.9,109H188c-8.1,0-13.3,5.8-13.3,13.9  c0,7.8,5.6,13.6,13.3,13.6h50.9v21.4H188c-8.1,0-13.3,5.8-13.3,13.6c0,7.8,5.6,13.9,13.3,13.9h50.9v40  C238.9,388.8,246.1,396.3,256.4,396.3z"/>
</svg>