<?xml version="1.0" ?><!-- Generator: Adobe Illustrator 25.0.0, SVG Export Plug-In . SVG Version: 6.00 Build 0)  --><svg xmlns="http://www.w3.org/2000/svg" xmlns:xlink="http://www.w3.org/1999/xlink" version="1.1" id="Layer_1" x="0px" y="0px" viewBox="0 0 512 512" style="enable-background:new 0 0 512 512;" xml:space="preserve">
<path d="M87.3,512h337.3c58.4,0,87.3-28.9,87.3-86.2V86.2C512,28.9,483.1,0,424.7,0H87.3C29.2,0,0,28.6,0,86.2v339.6  C0,483.4,29.2,512,87.3,512z M173.5,383.5c-12.2,0-20.9-8.1-20.9-19.5c0-6.4,1.9-10.3,7.8-19.2l131.8-182.4v-2.5h-121  c-11.4,0-19.5-7-19.5-18.9c0-11.4,8.1-18.6,19.5-18.6h159.1c12.5,0,21.1,8.3,21.1,20.3c0,6.7-1.4,10.6-7,18.4L213,343.5v2.5h128.5  c11.4,0,19.5,7,19.5,18.9c0,11.4-8.1,18.6-19.5,18.6H173.5z"/>
</svg>