<?xml version="1.0" encoding="UTF-8"?>
<!--Generator: Apple Native CoreSVG 326-->
<!DOCTYPE svg
PUBLIC "-//W3C//DTD SVG 1.1//EN"
       "http://www.w3.org/Graphics/SVG/1.1/DTD/svg11.dtd">
<svg version="1.1" xmlns="http://www.w3.org/2000/svg" xmlns:xlink="http://www.w3.org/1999/xlink" viewBox="0 0 21.3281 29.0918">
 <g>
  <rect height="29.0918" opacity="0" width="21.3281" x="0" y="0"/>
  <path d="M0 24.209C0 26.7285 1.25977 28.0078 3.75977 28.0078L17.207 28.0078C19.707 28.0078 20.9668 26.7285 20.9668 24.209L20.9668 4.89258C20.9668 2.37305 19.707 1.09375 17.207 1.09375L3.75977 1.09375C1.25977 1.09375 0 2.37305 0 4.89258ZM1.72852 24.1699L1.72852 4.93164C1.72852 3.56445 2.45117 2.82227 3.85742 2.82227L17.1094 2.82227C18.5156 2.82227 19.2383 3.56445 19.2383 4.93164L19.2383 24.1699C19.2383 25.5371 18.5156 26.2793 17.1094 26.2793L3.85742 26.2793C2.45117 26.2793 1.72852 25.5371 1.72852 24.1699ZM9.80469 27.1973L11.1621 27.1973L11.1621 9.07227L9.80469 9.07227ZM10.4883 9.53125C12.2852 9.53125 13.3789 8.4668 13.3789 6.73828C13.3789 6.39648 13.3301 6.09375 13.2617 5.74219L12.1094 0.634766C12.0117 0.244141 11.6797 0 11.2695 0L9.69727 0C9.28711 0 8.95508 0.244141 8.85742 0.634766L7.70508 5.74219C7.63672 6.09375 7.58789 6.39648 7.58789 6.73828C7.58789 8.4668 8.68164 9.53125 10.4883 9.53125ZM10.4883 8.07617C9.6582 8.07617 9.04297 7.4707 9.04297 6.64062C9.04297 5.83984 9.6875 5.20508 10.4883 5.20508C11.2793 5.20508 11.9238 5.83984 11.9238 6.64062C11.9238 7.4707 11.3184 8.07617 10.4883 8.07617ZM10.4883 12.3535L13.5059 12.3535C13.8965 12.3535 14.1895 12.0508 14.1895 11.6602C14.1895 11.2891 13.8965 10.9961 13.5059 10.9961L10.4883 10.9961ZM7.46094 14.1113L10.4883 14.1113L10.4883 12.7539L7.46094 12.7539C7.07031 12.7539 6.77734 13.0469 6.77734 13.418C6.77734 13.8086 7.07031 14.1113 7.46094 14.1113ZM10.4883 15.8789L13.5059 15.8789C13.8965 15.8789 14.1895 15.5762 14.1895 15.1855C14.1895 14.8145 13.8965 14.5215 13.5059 14.5215L10.4883 14.5215ZM7.46094 17.6367L10.4883 17.6367L10.4883 16.2793L7.46094 16.2793C7.07031 16.2793 6.77734 16.5723 6.77734 16.9434C6.77734 17.334 7.07031 17.6367 7.46094 17.6367ZM10.4883 19.3945L13.5059 19.3945C13.8965 19.3945 14.1895 19.0918 14.1895 18.7012C14.1895 18.3301 13.8965 18.0371 13.5059 18.0371L10.4883 18.0371ZM7.46094 21.1523L10.4883 21.1523L10.4883 19.8047L7.46094 19.8047C7.07031 19.8047 6.77734 20.0977 6.77734 20.4688C6.77734 20.8496 7.07031 21.1523 7.46094 21.1523ZM10.4883 22.9102L13.5059 22.9102C13.8965 22.9102 14.1895 22.6074 14.1895 22.2266C14.1895 21.8555 13.8965 21.5625 13.5059 21.5625L10.4883 21.5625ZM7.46094 24.6777L10.4883 24.6777L10.4883 23.3203L7.46094 23.3203C7.07031 23.3203 6.77734 23.6133 6.77734 23.9941C6.77734 24.375 7.07031 24.6777 7.46094 24.6777Z" fill="black" fill-opacity="0.85"/>
 </g>
</svg>
