<?xml version="1.0" encoding="UTF-8"?>
<!--Generator: Apple Native CoreSVG 326-->
<!DOCTYPE svg
PUBLIC "-//W3C//DTD SVG 1.1//EN"
       "http://www.w3.org/Graphics/SVG/1.1/DTD/svg11.dtd">
<svg version="1.1" xmlns="http://www.w3.org/2000/svg" xmlns:xlink="http://www.w3.org/1999/xlink" viewBox="0 0 28.9941 21.6504">
 <g>
  <rect height="21.6504" opacity="0" width="28.9941" x="0" y="0"/>
  <path d="M28.6328 9.99023L28.6328 17.959C28.6328 20.3809 27.373 21.6309 24.9316 21.6309L3.71094 21.6309C1.25977 21.6309 0 20.3906 0 17.959L0 9.99023C0 3.31055 3.10547 0 10.2441 0L18.3887 0C25.5371 0 28.6328 3.31055 28.6328 9.99023ZM8.82812 5.79102C8.44727 5.79102 8.13477 6.10352 8.13477 6.46484C8.13477 6.83594 8.44727 7.13867 8.82812 7.13867L12.2461 7.13867L12.2461 7.2168L8.31055 14.4922C8.18359 14.7363 8.125 14.9121 8.125 15.166C8.125 15.6543 8.45703 15.9375 8.93555 15.9375L13.4961 15.9375C13.8574 15.9375 14.1699 15.625 14.1699 15.2539C14.1699 14.8926 13.8574 14.5801 13.4961 14.5801L9.93164 14.5801L9.93164 14.502L13.8184 7.23633C13.9355 7.02148 14.0234 6.8457 14.0234 6.57227C14.0234 6.11328 13.7012 5.79102 13.2031 5.79102ZM15.8301 6.42578L15.8301 15.0684C15.8301 15.5859 16.123 15.9082 16.6211 15.9082L20.2637 15.9082C20.6348 15.9082 20.9473 15.5957 20.9473 15.2246C20.9473 14.8535 20.6348 14.541 20.2637 14.541L17.4316 14.541L17.4316 6.42578C17.4316 5.98633 17.0605 5.625 16.6406 5.625C16.1914 5.625 15.8301 5.98633 15.8301 6.42578Z" fill="black" fill-opacity="0.85"/>
 </g>
</svg>
