<?xml version="1.0" encoding="UTF-8"?>
<!--Generator: Apple Native CoreSVG 326-->
<!DOCTYPE svg
PUBLIC "-//W3C//DTD SVG 1.1//EN"
       "http://www.w3.org/Graphics/SVG/1.1/DTD/svg11.dtd">
<svg version="1.1" xmlns="http://www.w3.org/2000/svg" xmlns:xlink="http://www.w3.org/1999/xlink" viewBox="0 0 28.9941 21.6504">
 <g>
  <rect height="21.6504" opacity="0" width="28.9941" x="0" y="0"/>
  <path d="M10.2441 0C3.10547 0 0 3.31055 0 9.99023L0 17.959C0 20.3906 1.25977 21.6309 3.71094 21.6309L24.9316 21.6309C27.373 21.6309 28.6328 20.3809 28.6328 17.959L28.6328 9.99023C28.6328 3.31055 25.5371 0 18.3887 0ZM10.2637 1.73828L18.3789 1.73828C24.375 1.73828 26.9043 4.38477 26.9043 9.90234L26.9043 17.8711C26.9043 19.2188 26.1816 19.9023 24.8828 19.9023L3.75 19.9023C2.43164 19.9023 1.72852 19.2188 1.72852 17.8711L1.72852 9.90234C1.72852 4.38477 4.25781 1.73828 10.2637 1.73828Z" fill="black" fill-opacity="0.85"/>
  <path d="M8.88672 15.957L13.4863 15.957C13.8477 15.957 14.1602 15.6543 14.1602 15.2832C14.1602 14.9121 13.8477 14.6094 13.4863 14.6094L9.88281 14.6094L9.88281 14.5312L13.8086 7.20703C13.9258 6.98242 14.0039 6.80664 14.0039 6.5332C14.0039 6.07422 13.6914 5.75195 13.1934 5.75195L8.7793 5.75195C8.4082 5.75195 8.0957 6.05469 8.0957 6.42578C8.0957 6.79688 8.4082 7.09961 8.7793 7.09961L12.2266 7.09961L12.2266 7.17773L8.26172 14.5215C8.13477 14.7656 8.07617 14.9414 8.07617 15.1953C8.07617 15.6836 8.41797 15.957 8.88672 15.957ZM16.6211 15.9277L20.293 15.9277C20.6641 15.9277 20.9668 15.625 20.9668 15.2539C20.9668 14.8828 20.6641 14.5801 20.293 14.5801L17.4316 14.5801L17.4316 6.37695C17.4316 5.94727 17.0605 5.58594 16.6309 5.58594C16.2012 5.58594 15.8301 5.94727 15.8301 6.37695L15.8301 15.0977C15.8301 15.6152 16.123 15.9277 16.6211 15.9277Z" fill="black" fill-opacity="0.85"/>
 </g>
</svg>
