<?xml version="1.0" encoding="UTF-8"?>
<!--Generator: Apple Native CoreSVG 326-->
<!DOCTYPE svg
PUBLIC "-//W3C//DTD SVG 1.1//EN"
       "http://www.w3.org/Graphics/SVG/1.1/DTD/svg11.dtd">
<svg version="1.1" xmlns="http://www.w3.org/2000/svg" xmlns:xlink="http://www.w3.org/1999/xlink" viewBox="0 0 28.9941 21.6504">
 <g>
  <rect height="21.6504" opacity="0" width="28.9941" x="0" y="0"/>
  <path d="M10.2441 0C3.10547 0 0 3.31055 0 9.99023L0 17.959C0 20.3906 1.25977 21.6309 3.71094 21.6309L24.9316 21.6309C27.373 21.6309 28.6328 20.3809 28.6328 17.959L28.6328 9.99023C28.6328 3.31055 25.5371 0 18.3887 0ZM10.2637 1.73828L18.3789 1.73828C24.375 1.73828 26.9043 4.38477 26.9043 9.90234L26.9043 17.8711C26.9043 19.2188 26.1816 19.9023 24.8828 19.9023L3.75 19.9023C2.43164 19.9023 1.72852 19.2188 1.72852 17.8711L1.72852 9.90234C1.72852 4.38477 4.25781 1.73828 10.2637 1.73828Z" fill="black" fill-opacity="0.85"/>
  <path d="M8.06641 15.957L12.666 15.957C13.0273 15.957 13.3398 15.6543 13.3398 15.2832C13.3398 14.9121 13.0273 14.6094 12.666 14.6094L9.0625 14.6094L9.0625 14.5312L12.998 7.20703C13.1055 6.98242 13.1934 6.80664 13.1934 6.5332C13.1934 6.07422 12.8711 5.75195 12.3828 5.75195L7.95898 5.75195C7.58789 5.75195 7.27539 6.05469 7.27539 6.42578C7.27539 6.79688 7.58789 7.09961 7.95898 7.09961L11.416 7.09961L11.416 7.17773L7.44141 14.5215C7.31445 14.7656 7.26562 14.9414 7.26562 15.1953C7.26562 15.6836 7.59766 15.957 8.06641 15.957ZM15.8398 16.0645C16.3379 16.0645 16.6406 15.7422 16.6406 15.2246L16.6406 11.9141L17.998 11.9141L19.4238 15.4199C19.5801 15.8398 19.8242 16.0645 20.2637 16.0645C20.6348 16.0645 21.0156 15.8398 21.0156 15.293C21.0156 15.166 20.9473 14.9512 20.8496 14.707L19.5215 11.5723C20.5371 11.0938 21.0449 10.0391 21.0449 8.81836C21.0449 6.83594 19.873 5.73242 17.9395 5.73242L15.8301 5.73242C15.3125 5.73242 15.0195 6.04492 15.0195 6.5625L15.0195 15.2246C15.0195 15.7324 15.3223 16.0645 15.8398 16.0645ZM16.6406 10.7129L16.6406 7.02148L17.793 7.02148C18.8281 7.02148 19.4141 7.74414 19.4141 8.84766C19.4141 9.92188 18.916 10.7129 17.8027 10.7129Z" fill="black" fill-opacity="0.85"/>
 </g>
</svg>
