<?xml version="1.0" ?><!-- Generator: Adobe Illustrator 25.0.0, SVG Export Plug-In . SVG Version: 6.00 Build 0)  --><svg xmlns="http://www.w3.org/2000/svg" xmlns:xlink="http://www.w3.org/1999/xlink" version="1.1" id="Layer_1" x="0px" y="0px" viewBox="0 0 512 512" style="enable-background:new 0 0 512 512;" xml:space="preserve">
<path d="M182.1,61.1C55.9,61.1,0,118.9,0,237.5v147.8c0,43.8,22.2,65.6,66.5,65.6h379c44.3,0,66.5-22,66.5-65.6V237.5  c0-118.6-55.9-176.4-181.9-176.4H182.1z M103.1,354.4c-9.1,0-15.7-6.4-15.7-14.8c0-5.1,1.3-8,6.1-15l99.9-138.9v-1.7h-92.1  c-8.3,0-14.6-5.3-14.6-14.2c0-8.9,6.4-14.6,14.6-14.6h121.1c9.5,0,16.3,6.6,16.3,15.7c0,5.3-1.1,8-5.5,14L133.2,323.9v1.7h98.2  c8.3,0,14.4,5.3,14.4,14.4c0,8.7-6.1,14.4-14.4,14.4H103.1z M294.7,356.9c-11.2,0-17.4-7.8-17.4-19.7V175c0-11.6,5.9-19.9,17.4-19.9  h62.9c44.3,0,72.2,25.2,72.2,64.4c0,27.3-16.5,50.2-41.9,58.7l32.6,51c2.5,4.4,3.8,7.8,3.8,12.7c0,8.9-6.6,15-15.9,15  c-7.8,0-12.1-3.2-17.4-11.4l-37.9-62.3h-40.7v54C312.5,349.5,306.4,356.9,294.7,356.9z M312.5,257.6h39.8c26.3,0,43-13.3,43-37.3  c0-24.4-17.2-38.3-42.1-38.3h-40.7V257.6z"/>
</svg>