<?xml version="1.0" encoding="UTF-8"?>
<!--Generator: Apple Native CoreSVG 326-->
<!DOCTYPE svg
PUBLIC "-//W3C//DTD SVG 1.1//EN"
       "http://www.w3.org/Graphics/SVG/1.1/DTD/svg11.dtd">
<svg version="1.1" xmlns="http://www.w3.org/2000/svg" xmlns:xlink="http://www.w3.org/1999/xlink" viewBox="0 0 21.5723 25.9473">
 <g>
  <rect height="25.9473" opacity="0" width="21.5723" x="0" y="0"/>
  <path d="M5.30273 25.9473L10.4297 25.9473C10.8984 25.9473 11.1719 25.6836 11.1719 25.2441C11.1719 24.8047 10.8984 24.5605 10.4297 24.5605L6.24023 24.5605L6.24023 24.5117L10.6152 19.1895C10.957 18.7793 11.0645 18.5059 11.0645 18.1934C11.0645 17.6465 10.7031 17.3145 10.0781 17.3145L5.00977 17.3145C4.54102 17.3145 4.26758 17.5781 4.26758 18.0078C4.26758 18.457 4.54102 18.7012 5.00977 18.7012L9.22852 18.7012L9.22852 18.75L4.70703 24.2188C4.43359 24.541 4.3457 24.7461 4.3457 25.0586C4.3457 25.5664 4.7168 25.9473 5.30273 25.9473ZM14.3848 19.0234L20.7715 19.0234C21.2793 19.0234 21.5723 18.75 21.5723 18.2812C21.5723 17.8223 21.2793 17.5586 20.7715 17.5586L15.3711 17.5586L15.3711 17.5098L20.9766 10.7422C21.3379 10.3125 21.4551 10.0488 21.4551 9.73633C21.4551 9.14062 21.0645 8.75 20.3418 8.75L14.0918 8.75C13.5938 8.75 13.3008 9.02344 13.3008 9.49219C13.3008 9.96094 13.5938 10.2246 14.0918 10.2246L19.4727 10.2246L19.4727 10.2734L13.75 17.1875C13.4668 17.5293 13.3691 17.7539 13.3691 18.0664C13.3691 18.623 13.75 19.0234 14.3848 19.0234ZM1.71875 12.3438L9.75586 12.3438C10.2734 12.3438 10.5762 12.0605 10.5762 11.5723C10.5762 11.1035 10.2734 10.8203 9.75586 10.8203L2.79297 10.8203L2.79297 10.7715L10.0586 2.00195C10.3906 1.60156 10.4883 1.33789 10.4883 1.01562C10.4883 0.400391 10.0684 0 9.33594 0L1.43555 0C0.917969 0 0.615234 0.283203 0.615234 0.761719C0.615234 1.24023 0.917969 1.52344 1.43555 1.52344L8.38867 1.52344L8.38867 1.57227L0.996094 10.5078C0.742188 10.8105 0.673828 11.0352 0.673828 11.3574C0.673828 11.9336 1.08398 12.3438 1.71875 12.3438Z" fill="black" fill-opacity="0.85"/>
 </g>
</svg>
