<svg xmlns="http://www.w3.org/2000/svg" width="24" height="24" viewBox="0 0 24 24"><path fill="currentColor" d="M11 4V0h2v4h-2ZM6.575 5.425l-3-3L5 1l3 3l-1.425 1.425ZM3 23v-9l2.45-7H9V5h3.275q-.6.85-.938 1.863T11 9H6.85l-1.475 4h6.9q.425.6.95 1.113T14.4 15H5v4h14v-3.075q.525-.075 1.025-.225t.975-.375V23h-3v-2H6v2H3Zm3-5h4v-2H6v2Zm8 0h4v-2h-4v2Zm-9 1v-4v4Zm12.275-7.75L20.75 7.8L19.7 6.75l-2.425 2.375l-.975-.975l-1.05 1.075l2.025 2.025ZM18 14q-2.075 0-3.538-1.463T13 9q0-2.075 1.463-3.538T18 4q2.075 0 3.538 1.463T23 9q0 2.075-1.463 3.538T18 14Z"/></svg>