<svg xmlns="http://www.w3.org/2000/svg" width="24" height="24" viewBox="0 0 24 24"><path fill="currentColor" d="m7.9 18l1.9-9.1l-1.8.7V12H6V8.3l5.05-2.125q.35-.15.738-.187t.737.087q.35.125.663.35T13.7 7l1 1.6q.7 1.125 1.838 1.763T19 11v2q-1.75 0-3.138-.7T13.5 10.5l-.6 1.5l2.1 2v4h-2v-3.05l-1.95-1.8L10 18H7.9Zm5.6-12.5q-.825 0-1.413-.588T11.5 3.5q0-.825.588-1.413T13.5 1.5q.825 0 1.413.588T15.5 3.5q0 .825-.588 1.413T13.5 5.5ZM12 22q-2.075 0-3.9-.788t-3.175-2.137q-1.35-1.35-2.137-3.175T2 12q0-2.975 1.538-5.35t4.012-3.6l.9 1.775Q6.475 5.8 5.238 7.713T4 12q0 3.35 2.325 5.675T12 20q3.35 0 5.675-2.325T20 12h2q0 2.075-.788 3.9t-2.137 3.175q-1.35 1.35-3.175 2.138T12 22Z"/></svg>