<svg xmlns="http://www.w3.org/2000/svg" width="24" height="24" viewBox="0 0 24 24"><path fill="currentColor" d="M9.275 19h5.45l-.5-2h-4.45l-.5 2ZM9 15h6q2.075 0 3.538-1.463T20 10q0-2.075-1.463-3.538T15 5H9Q6.925 5 5.462 6.463T4 10q0 2.075 1.463 3.538T9 15Zm3-3q-.825 0-1.413-.588T10 10q0-.825.588-1.413T12 8q.825 0 1.413.588T14 10q0 .825-.588 1.413T12 12ZM6.5 9q.425 0 .713-.288T7.5 8q0-.425-.288-.713T6.5 7q-.425 0-.713.288T5.5 8q0 .425.288.713T6.5 9ZM4 21v-2h3.225l.525-2.1q-2.475-.425-4.112-2.363T2 10q0-2.925 2.038-4.963T9 3h6q2.925 0 4.963 2.038T22 10q0 2.6-1.638 4.538T16.25 16.9l.525 2.1H20v2H4Zm8-7q1.65 0 2.825-1.175T16 10q0-1.65-1.175-2.825T12 6q-1.65 0-2.825 1.175T8 10q0 1.65 1.175 2.825T12 14Zm0-4Zm-2.725 9h5.45h-5.45Z"/></svg>