<svg xmlns="http://www.w3.org/2000/svg" width="24" height="24" viewBox="0 0 24 24"><path fill="currentColor" d="M6 20h12q.425 0 .713-.288T19 19H5q0 .425.288.713T6 20Zm6-12q-1.2 0-2-.838t-.75-2.037q.05-1.3.913-2.288T12 1q.975.85 1.838 1.838t.912 2.287q.05 1.2-.75 2.038T12 8Zm-1 9h2v-6h-2v6Zm1-11q.325 0 .537-.225t.213-.55q0-.425-.238-.775T12 3.775q-.275.325-.513.675t-.237.775q0 .325.213.55T12 6Zm8.25 11q.325 0 .537-.213T21 16.25q0-.325-.213-.537t-.537-.213q-.325 0-.537.213t-.213.537q0 .325.213.537t.537.213ZM18 22H6q-1.25 0-2.125-.875T3 19v-2h6V9h6v8h2.6q-.05-.2-.075-.375t-.025-.375q0-1.15.8-1.95t1.95-.8q1.15 0 1.95.8t.8 1.95q0 .95-.562 1.675T21 18.9v.1q0 1.25-.875 2.125T18 22Zm-6-2Zm-1-3h2h-2Zm1-12.1Z"/></svg>