<svg xmlns="http://www.w3.org/2000/svg" width="24" height="24" viewBox="0 0 24 24"><path fill="currentColor" d="m7.8 5.225l-1-3l1.4-.45l1 2.975l-1.4.475ZM11.25 4V1h1.5v3h-1.5Zm4.95 1.225l-1.4-.475l1-2.975l1.4.475l-1 2.975ZM21.85 23l.3-1.975l-5.9-.9l-1.025-3.275l.475-1.05l.8 2.5l1.9-.6l-2.475-7.75l.175-.075L20.375 18H23v-2h-1.4l-4.7-8.875L13.525 9l1.275 4l-1.725 3.7l1.65 5.225L21.85 23Zm-5.35-4.7L14.8 13l1.7 5.3Zm1.9-.6ZM2.15 23l-.3-1.975l5.875-.9l1.05-3.275l-.5-1.05l-.775 2.5l-1.9-.6l2.45-7.75l-.15-.075L3.6 18H1v-2h1.4l4.7-8.875L10.475 9L9.2 13l1.725 3.7l-1.675 5.225L2.15 23Zm5.35-4.7L9.2 13l-1.7 5.3Zm-1.9-.6Z"/></svg>