<svg xmlns="http://www.w3.org/2000/svg" width="24" height="24" viewBox="0 0 24 24"><path d="M12 12ZM2 9V4h20v8h-2V6H4v3H2Zm0 11v-5h2v3h7v2H2Zm16 2.5l-1.525-1.3q-2.2-1.875-2.838-2.713T13 16.75q0-1.125.8-1.938T15.75 14q.65 0 1.238.3t1.012.875q.4-.575.988-.875t1.262-.3q1.125 0 1.938.813T23 16.75q0 .9-.65 1.738T19.5 21.2L18 22.5Zm0-2.65l.7-.575q1.4-1.2 1.85-1.687t.45-.838q0-.3-.225-.525T20.25 16q-.2 0-.363.088t-.387.287L18 17.8l-1.525-1.425q-.225-.2-.388-.288T15.75 16q-.325 0-.537.225T15 16.75q0 .35.438.838t1.837 1.687l.725.575ZM2 13v-2h3.6L7 13.775L10.35 7h1.275l1.975 4H17v2h-4.625L11 10.25L7.625 17h-1.25l-2-4H2Zm16 4.925Z"/></svg>