<svg xmlns="http://www.w3.org/2000/svg" width="24" height="24" viewBox="0 0 24 24"><path d="M1 12v-2h2v2H1Zm20 0v-2h2v2h-2ZM1 8V6h2v2H1Zm20 0V6h2v2h-2ZM1 4V2h2v2H1Zm4 8v-2h2v2H5Zm12 0v-2h2v2h-2Zm4-8V2h2v2h-2ZM5 4V2h2v2H5Zm4 0V2h2v2H9Zm4 0V2h2v2h-2Zm4 0V2h2v2h-2Zm-5.175 19q-.6 0-1.15-.225t-.975-.65L4.6 17l1.6-1.625l2.8.8V7h2v11.825l-2.45-.7l2.575 2.575q.15.15.325.225t.375.075H16q.825 0 1.413-.587T18 19v-5h2v5q0 1.65-1.175 2.825T16 23h-4.175ZM12 16v-5h2v5h-2Zm3 0v-3h2v3h-2Zm1 5h-4.875H16Z"/></svg>