<svg height="24" viewBox="0 0 24 24" width="24" xmlns="http://www.w3.org/2000/svg"><path d="M 12,7 Q 11.375,7 10.9375,6.5625 10.5,6.125 10.5,5.5 10.5,4.875 10.9375,4.4375 11.375,4 12,4 12.625,4 13.0625,4.4375 13.5,4.875 13.5,5.5 13.5,6.125 13.0625,6.5625 12.625,7 12,7 Z m 0,16 Q 9.925,23 8.4625,21.5375 7,20.075 7,18 V 6 Q 7,3.925 8.4625,2.4625 9.925,1 12,1 14.075,1 15.5375,2.4625 17,3.925 17,6 v 12 q 0,2.075 -1.4625,3.5375 Q 14.075,23 12,23 Z M 12,8 Q 13.05,8 13.775,7.275 14.5,6.55 14.5,5.5 14.5,4.45 13.775,3.725 13.05,3 12,3 10.95,3 10.225,3.725 9.5,4.45 9.5,5.5 9.5,6.55 10.225,7.275 10.95,8 12,8 Z m 0,13 q 1.25,0 2.125,-0.875 Q 15,19.25 15,18 V 8.825 Q 14.375,9.4 13.6,9.7 12.825,10 12,10 11.175,10 10.4,9.7 9.625,9.4 9,8.825 V 18 Q 9,19.25 9.875,20.125 10.75,21 12,21 Z m -1.5,-5 q 0.425,0 0.7125,-0.2875 Q 11.5,15.425 11.5,15 11.5,14.575 11.2125,14.2875 10.925,14 10.5,14 10.075,14 9.7875,14.2875 9.5,14.575 9.5,15 9.5,15.425 9.7875,15.7125 10.075,16 10.5,16 Z m 0,-3 q 0.425,0 0.7125,-0.2875 Q 11.5,12.425 11.5,12 11.5,11.575 11.2125,11.2875 10.925,11 10.5,11 10.075,11 9.7875,11.2875 9.5,11.575 9.5,12 9.5,12.425 9.7875,12.7125 10.075,13 10.5,13 Z m 3,0 q 0.425,0 0.7125,-0.2875 Q 14.5,12.425 14.5,12 14.5,11.575 14.2125,11.2875 13.925,11 13.5,11 13.075,11 12.7875,11.2875 12.5,11.575 12.5,12 q 0,0.425 0.2875,0.7125 Q 13.075,13 13.5,13 Z m 0,3 q 0.425,0 0.7125,-0.2875 Q 14.5,15.425 14.5,15 14.5,14.575 14.2125,14.2875 13.925,14 13.5,14 13.075,14 12.7875,14.2875 12.5,14.575 12.5,15 q 0,0.425 0.2875,0.7125 Q 13.075,16 13.5,16 Z m -3,3 q 0.425,0 0.7125,-0.2875 Q 11.5,18.425 11.5,18 11.5,17.575 11.2125,17.2875 10.925,17 10.5,17 10.075,17 9.7875,17.2875 9.5,17.575 9.5,18 9.5,18.425 9.7875,18.7125 10.075,19 10.5,19 Z m 3,0 q 0.425,0 0.7125,-0.2875 Q 14.5,18.425 14.5,18 14.5,17.575 14.2125,17.2875 13.925,17 13.5,17 13.075,17 12.7875,17.2875 12.5,17.575 12.5,18 q 0,0.425 0.2875,0.7125 Q 13.075,19 13.5,19 Z M 12,10 Z"/></svg>