<svg xmlns="http://www.w3.org/2000/svg" width="24" height="24" viewBox="0 0 24 24"><path d="M9.1 21.45L8.375 20q-.225-.425-.325-.875t-.1-.925q0-.575.163-1.137T8.625 16q.2-.275.3-.588t.1-.662q0-.4-.15-.75l-.3-.7q-.25-.475-.413-.975T8 11.3V7.5q0-.625-.438-1.063T6.5 6q-.525 0-.925.35t-.525.85q.85.325 1.4 1.087T7 10q0 1.25-.875 2.125T4 13q-1.25 0-2.125-.875T1 10q0-1 .575-1.775T3.05 7.15Q3.175 5.8 4.163 4.9T6.5 4q.175 0 .35.012t.35.063Q8.3 3.5 9.512 3.25T12 3q1.25 0 2.463.25t2.312.825q.175-.05.35-.063t.35-.012q1.375 0 2.363.9t1.112 2.25q.9.3 1.475 1.075T23 10q0 1.25-.875 2.125T20 13q-1.25 0-2.125-.875T17 10q0-.95.55-1.713t1.4-1.087q-.125-.5-.525-.85t-.95-.35q-.625 0-1.05.438T16 7.5v3.8q0 .525-.175 1.025t-.4.975q-.175.35-.313.7t-.137.75q0 .35.1.663t.3.587q.325.5.5 1.063t.175 1.137q0 .475-.113.925t-.312.875l-.725 1.45l-1.8-.9l.725-1.45q.125-.2.175-.425t.05-.475q0-.3-.1-.575t-.25-.525q-.35-.5-.537-1.1t-.188-1.225q0-.575.163-1.088t.437-1.012q.15-.35.288-.688T14 11.3V7.5q0-.6.188-1.137t.537-.988q-.65-.2-1.337-.288T12 5q-.7 0-1.388.088t-1.337.287q.35.45.537.988T10 7.5v3.8q0 .35.125.7t.3.675q.25.5.425 1.012t.175 1.088q0 .625-.187 1.213T10.3 17.1q-.175.25-.263.525t-.087.575q0 .25.05.475t.175.425l.725 1.45l-1.8.9ZM4 11q.425 0 .713-.288T5 10q0-.425-.288-.713T4 9q-.425 0-.713.288T3 10q0 .425.288.713T4 11Zm16 0q.425 0 .713-.288T21 10q0-.425-.288-.713T20 9q-.425 0-.713.288T19 10q0 .425.288.713T20 11Zm0-1ZM4 10Z"/></svg>