<svg xmlns="http://www.w3.org/2000/svg" width="24" height="24" viewBox="0 0 24 24"><path d="m19.65 20.35l.7-.7l-1.85-1.85V15h-1v3.2l2.15 2.15Zm-7.15-6.675V10H15l-1-1h-1.5V4h4l2.25 4H17.3l-1-2H14v1h1.7l1 2h2.6l1.475 2.575q-.65-.275-1.35-.425T18 11q-1.675 0-3.113.725t-2.387 1.95Zm-5.3 5.8L5.25 16H6.7l1 2H10v-1H8.3l-1-2H4.7L3 12l1.7-3h2.6l1-2H10V6H7.7l-1 2H5.25L7.5 4h4v5H10l-1 1h2.5v3H9.3l-1-2H6l-1 1h2.7l1 2h2.8v1.4q-.25.6-.375 1.25T11 18q0 .425.038.85t.162.85v.3H8.075q-.275 0-.512-.138t-.363-.387ZM18 23q-2.075 0-3.538-1.463T13 18q0-2.075 1.463-3.538T18 13q2.075 0 3.538 1.463T23 18q0 2.075-1.463 3.538T18 23Z"/></svg>