<?xml version="1.0" encoding="UTF-8"?>
<svg xmlns="http://www.w3.org/2000/svg" xmlns:xlink="http://www.w3.org/1999/xlink" width="24px" height="24px" viewBox="0 0 24 24" version="1.1">
<g id="surface1">
<path style=" stroke:none;fill-rule:nonzero;fill:rgb(0%,0%,0%);fill-opacity:1;" d="M 12 12 C 10.898438 12 9.957031 11.609375 9.175781 10.824219 C 8.390625 10.042969 8 9.101562 8 8 C 8 6.898438 8.390625 5.957031 9.175781 5.175781 C 9.957031 4.390625 10.898438 4 12 4 C 13.101562 4 14.042969 4.390625 14.824219 5.175781 C 15.609375 5.957031 16 6.898438 16 8 C 16 9.101562 15.609375 10.042969 14.824219 10.824219 C 14.042969 11.609375 13.101562 12 12 12 Z M 4 20 L 4 17.199219 C 4 16.632812 4.140625 16.113281 4.425781 15.636719 C 4.707031 15.164062 5.101562 14.800781 5.601562 14.550781 C 6.601562 14.050781 7.636719 13.667969 8.710938 13.398438 C 9.789062 13.132812 10.882812 13 12 13 C 13.117188 13 14.210938 13.132812 15.289062 13.398438 C 16.363281 13.667969 17.398438 14.050781 18.398438 14.550781 C 18.898438 14.800781 19.292969 15.164062 19.574219 15.636719 C 19.859375 16.113281 20 16.632812 20 17.199219 L 20 20 Z M 12 10 C 12.550781 10 13.019531 9.804688 13.414062 9.414062 C 13.804688 9.019531 14 8.550781 14 8 C 14 7.449219 13.804688 6.980469 13.414062 6.585938 C 13.019531 6.195312 12.550781 6 12 6 C 11.449219 6 10.980469 6.195312 10.585938 6.585938 C 10.195312 6.980469 10 7.449219 10 8 C 10 8.550781 10.195312 9.019531 10.585938 9.414062 C 10.980469 9.804688 11.449219 10 12 10 Z M 16 15.699219 L 16 18 L 18 18 L 18 17.199219 C 18 17.015625 17.957031 16.851562 17.875 16.699219 C 17.792969 16.550781 17.667969 16.433594 17.5 16.351562 C 17.265625 16.214844 17.019531 16.097656 16.761719 15.988281 C 16.503906 15.878906 16.25 15.785156 16 15.699219 Z M 10 15.175781 L 10 16.5 L 14 16.5 L 14 15.175781 C 13.667969 15.109375 13.332031 15.0625 13 15.039062 C 12.667969 15.011719 12.332031 15 12 15 C 11.667969 15 11.332031 15.011719 11 15.039062 C 10.667969 15.0625 10.332031 15.109375 10 15.175781 Z M 6 18 L 8 18 L 8 15.699219 C 7.75 15.785156 7.496094 15.878906 7.238281 15.988281 C 6.980469 16.097656 6.734375 16.214844 6.5 16.351562 C 6.332031 16.433594 6.207031 16.550781 6.125 16.699219 C 6.042969 16.851562 6 17.015625 6 17.199219 Z M 16 18 L 8 18 Z M 12 8 Z M 12 8 "/>
</g>
</svg>
