<?xml version="1.0" encoding="UTF-8"?>
<svg xmlns="http://www.w3.org/2000/svg" xmlns:xlink="http://www.w3.org/1999/xlink" width="24px" height="24px" viewBox="0 0 24 24" version="1.1">
<g id="surface1">
<path style=" stroke:none;fill-rule:nonzero;fill:rgb(0%,0%,0%);fill-opacity:1;" d="M 9.5 22 C 8.515625 22 7.6875 21.664062 7.011719 20.988281 C 6.335938 20.3125 6 19.484375 6 18.5 C 6 18.351562 6.019531 18.234375 6.0625 18.148438 C 6.105469 18.066406 6.101562 18 6.050781 17.949219 C 6 17.898438 5.933594 17.894531 5.851562 17.9375 C 5.765625 17.980469 5.648438 18 5.5 18 C 4.515625 18 3.6875 17.664062 3.011719 16.988281 C 2.335938 16.3125 2 15.484375 2 14.5 C 2 13.515625 2.335938 12.6875 3.011719 12.011719 C 3.6875 11.335938 4.515625 11 5.5 11 C 5.882812 11 6.234375 11.050781 6.550781 11.148438 C 6.867188 11.25 7.167969 11.398438 7.449219 11.601562 L 11.601562 7.449219 C 11.398438 7.167969 11.25 6.867188 11.148438 6.550781 C 11.050781 6.234375 11 5.882812 11 5.5 C 11 4.515625 11.335938 3.6875 12.011719 3.011719 C 12.6875 2.335938 13.515625 2 14.5 2 C 15.484375 2 16.3125 2.335938 16.988281 3.011719 C 17.664062 3.6875 18 4.515625 18 5.5 C 18 5.648438 17.980469 5.765625 17.9375 5.851562 C 17.894531 5.933594 17.898438 6 17.949219 6.050781 C 18 6.101562 18.066406 6.105469 18.148438 6.0625 C 18.234375 6.019531 18.351562 6 18.5 6 C 19.484375 6 20.3125 6.335938 20.988281 7.011719 C 21.664062 7.6875 22 8.515625 22 9.5 C 22 10.484375 21.664062 11.3125 20.988281 11.988281 C 20.3125 12.664062 19.484375 13 18.5 13 C 18.117188 13 17.765625 12.949219 17.449219 12.851562 C 17.132812 12.75 16.832031 12.601562 16.550781 12.398438 L 12.398438 16.550781 C 12.601562 16.832031 12.75 17.132812 12.851562 17.449219 C 12.949219 17.765625 13 18.117188 13 18.5 C 13 19.484375 12.664062 20.3125 11.988281 20.988281 C 11.3125 21.664062 10.484375 22 9.5 22 Z M 9.5 20 C 9.933594 20 10.292969 19.859375 10.574219 19.574219 C 10.859375 19.292969 11 18.933594 11 18.5 C 11 18.351562 10.980469 18.203125 10.9375 18.0625 C 10.894531 17.921875 10.832031 17.785156 10.75 17.648438 C 10.464844 17.25 10.351562 16.820312 10.398438 16.363281 C 10.449219 15.902344 10.648438 15.5 11 15.148438 L 15.148438 11 C 15.5 10.648438 15.902344 10.449219 16.363281 10.398438 C 16.820312 10.351562 17.25 10.464844 17.648438 10.75 C 17.785156 10.832031 17.921875 10.894531 18.0625 10.9375 C 18.203125 10.980469 18.351562 11 18.5 11 C 18.933594 11 19.292969 10.859375 19.574219 10.574219 C 19.859375 10.292969 20 9.933594 20 9.5 C 20 9.066406 19.859375 8.707031 19.574219 8.425781 C 19.292969 8.140625 18.933594 8 18.5 8 C 17.917969 8 17.507812 7.972656 17.273438 7.914062 C 17.042969 7.855469 16.800781 7.699219 16.550781 7.449219 C 16.300781 7.199219 16.144531 6.957031 16.085938 6.726562 C 16.027344 6.492188 16 6.082031 16 5.5 C 16 5.066406 15.859375 4.707031 15.574219 4.425781 C 15.292969 4.140625 14.933594 4 14.5 4 C 14.066406 4 13.707031 4.140625 13.425781 4.425781 C 13.140625 4.707031 13 5.066406 13 5.5 C 13 5.683594 13.015625 5.835938 13.050781 5.960938 C 13.082031 6.085938 13.148438 6.214844 13.25 6.351562 C 13.535156 6.75 13.648438 7.179688 13.601562 7.636719 C 13.550781 8.097656 13.351562 8.5 13 8.851562 L 8.851562 13 C 8.5 13.351562 8.097656 13.550781 7.636719 13.601562 C 7.179688 13.648438 6.75 13.535156 6.351562 13.25 C 6.214844 13.167969 6.078125 13.105469 5.9375 13.0625 C 5.796875 13.019531 5.648438 13 5.5 13 C 5.066406 13 4.707031 13.140625 4.425781 13.425781 C 4.140625 13.707031 4 14.066406 4 14.5 C 4 14.933594 4.140625 15.292969 4.425781 15.574219 C 4.707031 15.859375 5.066406 16 5.5 16 C 6.082031 16 6.492188 16.027344 6.726562 16.085938 C 6.957031 16.144531 7.199219 16.300781 7.449219 16.550781 C 7.699219 16.800781 7.855469 17.042969 7.914062 17.273438 C 7.972656 17.507812 8 17.917969 8 18.5 C 8 18.933594 8.140625 19.292969 8.425781 19.574219 C 8.707031 19.859375 9.066406 20 9.5 20 Z M 12 12 Z M 12 12 "/>
</g>
</svg>
