<?xml version="1.0" encoding="UTF-8"?>
<svg xmlns="http://www.w3.org/2000/svg" xmlns:xlink="http://www.w3.org/1999/xlink" width="24px" height="24px" viewBox="0 0 24 24" version="1.1">
<g id="surface1">
<path style=" stroke:none;fill-rule:nonzero;fill:rgb(0%,0%,0%);fill-opacity:1;" d="M 20.5 23.300781 L 0.699219 3.5 L 2.101562 2.101562 L 21.898438 21.898438 Z M 5 6.425781 L 7 8.425781 L 7 18 L 16.601562 18 L 19 20.398438 L 19 23 L 5 23 Z M 7 20 L 7 21 L 17 21 L 17 20 Z M 7 4.175781 L 7 4 L 17 4 L 17 3 L 7 3 L 7 4.175781 L 5.148438 2.300781 L 5.148438 1 L 19 1 L 19 7 L 17 7 L 17 6 L 8.824219 6 Z M 7 20 L 7 21 Z M 18.351562 14.851562 L 16.898438 13.398438 C 17.101562 13.214844 17.253906 13.003906 17.363281 12.761719 C 17.472656 12.519531 17.523438 12.265625 17.523438 12 C 17.523438 11.734375 17.472656 11.480469 17.363281 11.238281 C 17.253906 10.996094 17.101562 10.785156 16.898438 10.601562 L 18.351562 9.148438 C 18.734375 9.535156 19.023438 9.972656 19.226562 10.460938 C 19.425781 10.953125 19.523438 11.464844 19.523438 12 C 19.523438 12.535156 19.425781 13.046875 19.226562 13.539062 C 19.023438 14.027344 18.734375 14.464844 18.351562 14.851562 Z M 20.800781 17.300781 L 19.398438 15.898438 C 19.917969 15.382812 20.316406 14.792969 20.601562 14.125 C 20.882812 13.457031 21.023438 12.75 21.023438 12 C 21.023438 11.25 20.882812 10.542969 20.601562 9.875 C 20.316406 9.207031 19.917969 8.617188 19.398438 8.101562 L 20.800781 6.699219 C 21.515625 7.398438 22.066406 8.207031 22.449219 9.125 C 22.832031 10.042969 23.023438 11 23.023438 12 C 23.023438 13 22.832031 13.957031 22.449219 14.875 C 22.066406 15.792969 21.515625 16.601562 20.800781 17.300781 Z M 17 3 L 17 4 Z M 17 3 "/>
</g>
</svg>
