<?xml version="1.0" encoding="UTF-8"?>
<svg xmlns="http://www.w3.org/2000/svg" xmlns:xlink="http://www.w3.org/1999/xlink" width="24px" height="24px" viewBox="0 0 24 24" version="1.1">
<g id="surface1">
<path style=" stroke:none;fill-rule:nonzero;fill:rgb(0%,0%,0%);fill-opacity:1;" d="M 9 6 C 9.285156 6 9.519531 5.902344 9.710938 5.710938 C 9.902344 5.519531 10 5.285156 10 5 C 10 4.714844 9.902344 4.480469 9.710938 4.289062 C 9.519531 4.097656 9.285156 4 9 4 C 8.714844 4 8.480469 4.097656 8.289062 4.289062 C 8.097656 4.480469 8 4.714844 8 5 C 8 5.285156 8.097656 5.519531 8.289062 5.710938 C 8.480469 5.902344 8.714844 6 9 6 Z M 5 23 L 5 1 L 19 1 L 19 23 Z M 7 21 L 17 21 L 17 3 L 7 3 Z M 7 21 L 7 3 Z M 7 21 "/>
</g>
</svg>
