<?xml version="1.0" encoding="UTF-8"?>
<svg xmlns="http://www.w3.org/2000/svg" xmlns:xlink="http://www.w3.org/1999/xlink" width="24px" height="24px" viewBox="0 0 24 24" version="1.1">
<g id="surface1">
<path style=" stroke:none;fill-rule:nonzero;fill:rgb(0%,0%,0%);fill-opacity:1;" d="M 17.101562 14.273438 L 21.574219 9.800781 L 23 11.226562 L 18.5 15.699219 Z M 1 20 L 1 15.824219 C 1.582031 15.742188 2.140625 15.574219 2.675781 15.324219 C 3.207031 15.074219 3.714844 14.765625 4.199219 14.398438 L 5.949219 16.273438 L 6.648438 15.574219 L 4.976562 13.773438 L 5.363281 13.386719 C 5.488281 13.261719 5.617188 13.125 5.75 12.976562 L 7.449219 14.773438 L 8.175781 14.050781 L 6.449219 12.273438 C 6.535156 12.109375 6.621094 11.9375 6.710938 11.761719 C 6.804688 11.585938 6.882812 11.398438 6.949219 11.199219 L 8.976562 13.25 L 9.699219 12.523438 L 7.375 10.199219 L 8.398438 7.351562 L 13.800781 2 L 20.851562 9.074219 L 10.5 20 Z M 9.625 18 L 18.050781 9.125 Z M 3 18 L 9.625 18 L 18.050781 9.125 L 13.773438 4.851562 L 10.125 8.476562 L 9.398438 10.5 L 11.601562 12.648438 L 5.851562 18.398438 L 4.300781 16.726562 C 4.082031 16.859375 3.871094 16.976562 3.664062 17.074219 C 3.453125 17.175781 3.234375 17.265625 3 17.351562 Z M 3 18 "/>
</g>
</svg>
