<?xml version="1.0" encoding="UTF-8"?>
<svg xmlns="http://www.w3.org/2000/svg" xmlns:xlink="http://www.w3.org/1999/xlink" width="24px" height="24px" viewBox="0 0 24 24" version="1.1">
<g id="surface1">
<path style=" stroke:none;fill-rule:nonzero;fill:rgb(0%,0%,0%);fill-opacity:1;" d="M 4 10 L 20 10 Z M 6 21 L 6 17 L 2 17 L 2 8 L 22 8 L 22 11.75 C 21.699219 11.582031 21.382812 11.441406 21.050781 11.324219 C 20.714844 11.207031 20.367188 11.125 20 11.074219 L 20 10 L 4 10 L 4 15 L 6 15 L 6 13 L 14.5 13 C 14.234375 13.285156 13.992188 13.589844 13.773438 13.925781 C 13.558594 14.257812 13.382812 14.617188 13.25 15 L 8 15 L 8 19 L 13.101562 19 C 13.214844 19.367188 13.359375 19.714844 13.523438 20.050781 C 13.691406 20.382812 13.890625 20.699219 14.125 21 Z M 16 8 L 16 5 L 8 5 L 8 8 L 6 8 L 6 3 L 18 3 L 18 8 Z M 18 21 L 18 18 L 15 18 L 15 16 L 18 16 L 18 13 L 20 13 L 20 16 L 23 16 L 23 18 L 20 18 L 20 21 Z M 18 21 "/>
</g>
</svg>
