<?xml version="1.0" encoding="UTF-8"?>
<svg xmlns="http://www.w3.org/2000/svg" xmlns:xlink="http://www.w3.org/1999/xlink" width="24px" height="24px" viewBox="0 0 24 24" version="1.1">
<g id="surface1">
<path style=" stroke:none;fill-rule:nonzero;fill:rgb(0%,0%,0%);fill-opacity:1;" d="M 12 22 C 10.632812 22 9.339844 21.738281 8.125 21.210938 C 6.910156 20.6875 5.847656 19.972656 4.9375 19.0625 C 4.027344 18.152344 3.3125 17.089844 2.789062 15.875 C 2.261719 14.660156 2 13.367188 2 12 C 2 10.617188 2.261719 9.320312 2.789062 8.113281 C 3.3125 6.902344 4.027344 5.847656 4.9375 4.9375 C 5.847656 4.027344 6.910156 3.3125 8.125 2.789062 C 9.339844 2.261719 10.632812 2 12 2 L 12 4 C 9.785156 4 7.894531 4.777344 6.335938 6.335938 C 4.777344 7.894531 4 9.785156 4 12 C 4 14.214844 4.777344 16.105469 6.335938 17.664062 C 7.894531 19.222656 9.785156 20 12 20 C 14.214844 20 16.105469 19.222656 17.664062 17.664062 C 19.222656 16.105469 20 14.214844 20 12 L 22 12 C 22 13.367188 21.738281 14.660156 21.210938 15.875 C 20.6875 17.089844 19.972656 18.152344 19.0625 19.0625 C 18.152344 19.972656 17.097656 20.6875 15.886719 21.210938 C 14.679688 21.738281 13.382812 22 12 22 Z M 12 22 "/>
</g>
</svg>
