<?xml version="1.0" encoding="UTF-8"?>
<svg xmlns="http://www.w3.org/2000/svg" xmlns:xlink="http://www.w3.org/1999/xlink" width="24px" height="24px" viewBox="0 0 24 24" version="1.1">
<g id="surface1">
<path style=" stroke:none;fill-rule:nonzero;fill:rgb(0%,0%,0%);fill-opacity:1;" d="M 16.5 20 L 17.5 20 L 17.5 16 L 16.5 16 Z M 17 15 C 17.132812 15 17.25 14.949219 17.351562 14.851562 C 17.449219 14.75 17.5 14.632812 17.5 14.5 C 17.5 14.367188 17.449219 14.25 17.351562 14.148438 C 17.25 14.050781 17.132812 14 17 14 C 16.867188 14 16.75 14.050781 16.648438 14.148438 C 16.550781 14.25 16.5 14.367188 16.5 14.5 C 16.5 14.632812 16.550781 14.75 16.648438 14.851562 C 16.75 14.949219 16.867188 15 17 15 Z M 5 4 L 5 20 L 5 4 L 5 9 Z M 7 14 L 10.675781 14 C 10.859375 13.617188 11.070312 13.257812 11.3125 12.925781 C 11.554688 12.589844 11.824219 12.285156 12.125 12 L 7 12 Z M 7 18 L 10.074219 18 C 10.023438 17.667969 10 17.332031 10 17 C 10 16.667969 10.023438 16.332031 10.074219 16 L 7 16 Z M 3 22 L 3 2 L 13 2 L 19 8 L 19 10.300781 C 18.683594 10.199219 18.359375 10.125 18.023438 10.074219 C 17.691406 10.023438 17.351562 10 17 10 L 17 9 L 12 9 L 12 4 L 5 4 L 5 20 L 10.675781 20 C 10.859375 20.382812 11.070312 20.742188 11.3125 21.074219 C 11.554688 21.410156 11.824219 21.714844 12.125 22 Z M 17 12 C 18.382812 12 19.5625 12.488281 20.539062 13.460938 C 21.511719 14.4375 22 15.617188 22 17 C 22 18.382812 21.511719 19.5625 20.539062 20.539062 C 19.5625 21.511719 18.382812 22 17 22 C 15.617188 22 14.4375 21.511719 13.460938 20.539062 C 12.488281 19.5625 12 18.382812 12 17 C 12 15.617188 12.488281 14.4375 13.460938 13.460938 C 14.4375 12.488281 15.617188 12 17 12 Z M 17 12 "/>
</g>
</svg>
