<?xml version="1.0" encoding="UTF-8"?>
<svg xmlns="http://www.w3.org/2000/svg" xmlns:xlink="http://www.w3.org/1999/xlink" width="24px" height="24px" viewBox="0 0 24 24" version="1.1">
<g id="surface1">
<path style=" stroke:none;fill-rule:nonzero;fill:rgb(0%,0%,0%);fill-opacity:1;" d="M 14.351562 17.601562 L 16 15.925781 L 16 15 L 16 15.925781 Z M 19.648438 17.601562 L 18 15.925781 L 18 15 L 18 15.925781 Z M 12 12 Z M 2 9 L 2 4 L 22 4 L 22 11.5 L 20 11.5 L 20 6 L 4 6 L 4 9 Z M 2 20 L 2 15 L 4 15 L 4 18 L 9.5 18 L 9.5 20 Z M 12.5 23 C 12.082031 23 11.730469 22.855469 11.4375 22.5625 C 11.144531 22.269531 11 21.917969 11 21.5 L 11 17.824219 L 12.324219 14.300781 C 12.476562 13.917969 12.722656 13.605469 13.0625 13.363281 C 13.402344 13.121094 13.785156 13 14.199219 13 L 16 13 L 16 11 L 18 11 L 18 13 L 19.800781 13 C 20.214844 13 20.597656 13.121094 20.9375 13.363281 C 21.277344 13.605469 21.523438 13.917969 21.675781 14.300781 L 23 17.824219 L 23 21.5 C 23 21.917969 22.855469 22.269531 22.5625 22.5625 C 22.269531 22.855469 21.917969 23 21.5 23 L 19.5 23 C 19.082031 23 18.730469 22.855469 18.4375 22.5625 C 18.144531 22.269531 18 21.917969 18 21.5 L 18 20 L 20 20 L 20 21 L 21 21 L 21 18.175781 L 19.800781 15 L 18 15 L 18 15.925781 L 19.648438 17.601562 L 18.25 19 L 17 17.75 L 15.75 19 L 14.351562 17.601562 L 16 15.925781 L 16 15 L 14.199219 15 L 13 18.175781 L 13 21 L 14 21 L 14 20 L 16 20 L 16 21.5 C 16 21.917969 15.855469 22.269531 15.5625 22.5625 C 15.269531 22.855469 14.917969 23 14.5 23 Z M 17 18 Z M 2 13 L 2 11 L 5.601562 11 L 7 13.773438 L 10.351562 7 L 11.625 7 L 13.875 11.523438 C 13.523438 11.558594 13.195312 11.632812 12.886719 11.75 C 12.578125 11.867188 12.292969 12.035156 12.023438 12.25 L 11 10.25 L 7.625 17 L 6.375 17 L 4.375 13 Z M 2 13 "/>
</g>
</svg>
