<?xml version="1.0" encoding="UTF-8"?>
<svg xmlns="http://www.w3.org/2000/svg" xmlns:xlink="http://www.w3.org/1999/xlink" width="24px" height="24px" viewBox="0 0 24 24" version="1.1">
<g id="surface1">
<path style=" stroke:none;fill-rule:nonzero;fill:rgb(0%,0%,0%);fill-opacity:1;" d="M 9 15.5 L 15 15.5 L 15 14 L 9 14 Z M 8.5 8.5 C 7.964844 8.5 7.472656 8.648438 7.011719 8.949219 C 6.554688 9.25 6.175781 9.632812 5.875 10.101562 L 7.125 10.925781 C 7.292969 10.675781 7.492188 10.460938 7.726562 10.289062 C 7.957031 10.113281 8.214844 10.023438 8.5 10.023438 C 8.785156 10.023438 9.042969 10.113281 9.273438 10.289062 C 9.507812 10.460938 9.707031 10.667969 9.875 10.898438 L 11.125 10.074219 C 10.824219 9.625 10.445312 9.25 9.988281 8.949219 C 9.527344 8.648438 9.035156 8.5 8.5 8.5 Z M 15.5 8.5 C 14.964844 8.5 14.472656 8.648438 14.011719 8.949219 C 13.554688 9.25 13.175781 9.632812 12.875 10.101562 L 14.125 10.925781 C 14.292969 10.691406 14.492188 10.488281 14.726562 10.3125 C 14.957031 10.136719 15.214844 10.050781 15.5 10.050781 C 15.785156 10.050781 16.046875 10.132812 16.289062 10.300781 C 16.527344 10.464844 16.726562 10.675781 16.875 10.925781 L 18.125 10.101562 C 17.824219 9.632812 17.445312 9.25 16.988281 8.949219 C 16.527344 8.648438 16.035156 8.5 15.5 8.5 Z M 12 22 C 10.617188 22 9.316406 21.738281 8.101562 21.210938 C 6.882812 20.6875 5.824219 19.976562 4.925781 19.074219 C 4.023438 18.175781 3.3125 17.117188 2.789062 15.898438 C 2.261719 14.683594 2 13.382812 2 12 C 2 10.617188 2.261719 9.316406 2.789062 8.101562 C 3.3125 6.882812 4.023438 5.824219 4.925781 4.925781 C 5.824219 4.023438 6.882812 3.3125 8.101562 2.789062 C 9.316406 2.261719 10.617188 2 12 2 C 13.382812 2 14.683594 2.261719 15.898438 2.789062 C 17.117188 3.3125 18.175781 4.023438 19.074219 4.925781 C 19.976562 5.824219 20.6875 6.882812 21.210938 8.101562 C 21.738281 9.316406 22 10.617188 22 12 C 22 13.382812 21.738281 14.683594 21.210938 15.898438 C 20.6875 17.117188 19.976562 18.175781 19.074219 19.074219 C 18.175781 19.976562 17.117188 20.6875 15.898438 21.210938 C 14.683594 21.738281 13.382812 22 12 22 Z M 12 12 Z M 12 20 C 14.234375 20 16.125 19.226562 17.675781 17.675781 C 19.226562 16.125 20 14.234375 20 12 C 20 9.765625 19.226562 7.875 17.675781 6.324219 C 16.125 4.773438 14.234375 4 12 4 C 9.765625 4 7.875 4.773438 6.324219 6.324219 C 4.773438 7.875 4 9.765625 4 12 C 4 14.234375 4.773438 16.125 6.324219 17.675781 C 7.875 19.226562 9.765625 20 12 20 Z M 12 20 "/>
</g>
</svg>
