<?xml version="1.0" encoding="UTF-8"?>
<svg xmlns="http://www.w3.org/2000/svg" xmlns:xlink="http://www.w3.org/1999/xlink" width="24px" height="24px" viewBox="0 0 24 24" version="1.1">
<g id="surface1">
<path style=" stroke:none;fill-rule:nonzero;fill:rgb(0%,0%,0%);fill-opacity:1;" d="M 14.074219 11.726562 C 15.292969 10.824219 16.242188 9.835938 16.925781 8.761719 C 17.609375 7.6875 17.949219 6.617188 17.949219 5.550781 C 17.949219 5.015625 17.863281 4.625 17.6875 4.375 C 17.511719 4.125 17.273438 4 16.976562 4 C 16.191406 4 15.5 4.664062 14.898438 5.988281 C 14.300781 7.3125 14 8.808594 14 10.476562 C 14 10.707031 14.003906 10.929688 14.011719 11.136719 C 14.019531 11.347656 14.042969 11.542969 14.074219 11.726562 Z M 3 21 L 3 19 L 5 19 L 5 21 Z M 7 21 L 7 19 L 9 19 L 9 21 Z M 11 21 L 11 19 L 13 19 L 13 21 Z M 15 21 L 15 19 L 17 19 L 17 21 Z M 19 21 L 19 19 L 21 19 L 21 21 Z M 3.398438 17 L 2 15.601562 L 3.601562 14 L 2 12.398438 L 3.398438 11 L 5 12.601562 L 6.601562 11 L 8 12.398438 L 6.398438 14 L 8 15.601562 L 6.601562 17 L 5 15.398438 Z M 15.449219 16 C 14.949219 16 14.492188 15.902344 14.074219 15.710938 C 13.660156 15.519531 13.300781 15.207031 13 14.773438 C 12.582031 15.007812 12.152344 15.214844 11.710938 15.398438 C 11.269531 15.582031 10.816406 15.765625 10.351562 15.949219 L 9.648438 14.074219 C 10.117188 13.910156 10.5625 13.730469 10.988281 13.539062 C 11.414062 13.347656 11.824219 13.140625 12.226562 12.925781 C 12.140625 12.558594 12.078125 12.160156 12.039062 11.726562 C 11.996094 11.292969 11.976562 10.824219 11.976562 10.324219 C 11.976562 7.925781 12.449219 5.9375 13.398438 4.363281 C 14.351562 2.789062 15.542969 2 16.976562 2 C 17.839844 2 18.550781 2.320312 19.101562 2.960938 C 19.648438 3.605469 19.925781 4.5 19.925781 5.648438 C 19.925781 7.082031 19.472656 8.5 18.5625 9.898438 C 17.652344 11.300781 16.390625 12.558594 14.773438 13.675781 C 14.890625 13.792969 15.011719 13.878906 15.136719 13.9375 C 15.261719 13.996094 15.390625 14.023438 15.523438 14.023438 C 15.957031 14.023438 16.460938 13.75 17.039062 13.199219 C 17.613281 12.648438 18.132812 11.925781 18.601562 11.023438 L 20.425781 11.875 C 20.308594 12.160156 20.214844 12.5 20.148438 12.898438 C 20.082031 13.300781 20.089844 13.648438 20.175781 13.949219 C 20.339844 13.867188 20.539062 13.726562 20.761719 13.523438 C 20.988281 13.324219 21.214844 13.074219 21.449219 12.773438 L 23.023438 14 C 22.589844 14.601562 22.089844 15.082031 21.523438 15.449219 C 20.957031 15.816406 20.433594 16 19.949219 16 C 19.601562 16 19.289062 15.894531 19.011719 15.6875 C 18.738281 15.480469 18.507812 15.160156 18.324219 14.726562 C 17.859375 15.140625 17.382812 15.457031 16.898438 15.675781 C 16.417969 15.890625 15.933594 16 15.449219 16 Z M 15.449219 16 "/>
</g>
</svg>
