<?xml version="1.0" encoding="UTF-8"?>
<svg xmlns="http://www.w3.org/2000/svg" xmlns:xlink="http://www.w3.org/1999/xlink" width="24px" height="24px" viewBox="0 0 24 24" version="1.1">
<g id="surface1">
<path style=" stroke:none;fill-rule:nonzero;fill:rgb(0%,0%,0%);fill-opacity:1;" d="M 15 2 C 16.949219 2 18.605469 2.679688 19.960938 4.039062 C 21.320312 5.394531 22 7.050781 22 9 L 20 9 C 20 8.332031 19.878906 7.710938 19.636719 7.136719 C 19.394531 6.5625 19.066406 6.050781 18.648438 5.601562 L 17.273438 7.925781 C 17.109375 8.191406 16.929688 8.484375 16.738281 8.800781 C 16.546875 9.117188 16.339844 9.390625 16.125 9.625 C 15.890625 9.875 15.601562 10 15.25 10 C 14.898438 10 14.601562 9.882812 14.351562 9.648438 C 14.101562 9.417969 13.976562 9.125 13.976562 8.773438 C 13.976562 8.425781 14.101562 8.125 14.351562 7.875 C 14.582031 7.640625 14.863281 7.433594 15.1875 7.25 C 15.511719 7.066406 15.808594 6.890625 16.074219 6.726562 L 18.398438 5.351562 C 17.949219 4.933594 17.4375 4.605469 16.863281 4.363281 C 16.289062 4.121094 15.667969 4 15 4 Z M 12.074219 22 C 10.675781 22 9.363281 21.734375 8.136719 21.199219 C 6.914062 20.667969 5.847656 19.945312 4.9375 19.039062 C 4.027344 18.128906 3.308594 17.0625 2.773438 15.835938 C 2.242188 14.613281 1.976562 13.300781 1.976562 11.898438 C 1.976562 9.464844 2.75 7.320312 4.300781 5.460938 C 5.851562 3.605469 7.824219 2.449219 10.226562 2 C 9.925781 3.648438 10.015625 5.261719 10.5 6.835938 C 10.984375 8.414062 11.816406 9.792969 13 10.976562 C 14.183594 12.160156 15.5625 12.992188 17.136719 13.476562 C 18.710938 13.957031 20.324219 14.050781 21.976562 13.75 C 21.542969 16.148438 20.390625 18.125 18.523438 19.675781 C 16.660156 21.226562 14.507812 22 12.074219 22 Z M 12.074219 20 C 13.542969 20 14.898438 19.632812 16.148438 18.898438 C 17.398438 18.167969 18.382812 17.160156 19.101562 15.875 C 17.667969 15.742188 16.308594 15.378906 15.023438 14.789062 C 13.742188 14.195312 12.589844 13.390625 11.574219 12.375 C 10.558594 11.359375 9.75 10.207031 9.148438 8.925781 C 8.550781 7.640625 8.191406 6.285156 8.074219 4.851562 C 6.792969 5.566406 5.789062 6.554688 5.0625 7.8125 C 4.335938 9.070312 3.976562 10.433594 3.976562 11.898438 C 3.976562 14.148438 4.761719 16.0625 6.335938 17.636719 C 7.914062 19.210938 9.824219 20 12.074219 20 Z M 11.574219 12.375 Z M 11.574219 12.375 "/>
</g>
</svg>
