<?xml version="1.0" encoding="UTF-8"?>
<svg xmlns="http://www.w3.org/2000/svg" xmlns:xlink="http://www.w3.org/1999/xlink" width="24px" height="24px" viewBox="0 0 24 24" version="1.1">
<g id="surface1">
<path style=" stroke:none;fill-rule:nonzero;fill:rgb(0%,0%,0%);fill-opacity:1;" d="M 16 13 L 21 13 L 21 10 L 16 10 Z M 14 17 L 14 8 L 23 8 L 23 15 L 16 15 Z M 5 23 L 5 1 L 19 1 L 19 7 L 17 7 L 17 6 L 7 6 L 7 18 L 17 18 L 17 17 L 19 17 L 19 23 Z M 7 20 L 7 21 L 17 21 L 17 20 Z M 7 4 L 17 4 L 17 3 L 7 3 Z M 7 4 L 7 3 Z M 7 20 L 7 21 Z M 16 13 L 16 10 Z M 16 13 "/>
</g>
</svg>
