<svg xmlns="http://www.w3.org/2000/svg" width="24" height="24" viewBox="0 0 24 24"><path fill="currentColor" d="M12.5 23q-.625 0-1.063-.425T11 21.525q0-.3.113-.575t.337-.475l1.05-.975l1.05.975q.225.2.338.475t.112.575q0 .625-.437 1.05T12.5 23Zm-3.45-1.5L8 20.45l2.95-2.95L12 18.55L9.05 21.5ZM15.5 20L14 18.5l1.5-1.5l1.5 1.5l-1.5 1.5Zm-9 0L5 18.5L6.5 17L8 18.5L6.5 20Zm1-4q-2.275 0-3.888-1.613T2 10.5q0-2.075 1.375-3.625t3.4-1.825q.8-1.425 2.188-2.238T12 2q2.25 0 3.913 1.438t2.012 3.587q1.725.15 2.9 1.425T22 11.5q0 1.875-1.312 3.188T17.5 16h-10Zm0-2h10q1.05 0 1.775-.725T20 11.5q0-1.05-.725-1.775T17.5 9H16V8q0-1.65-1.175-2.825T12 4q-1.2 0-2.188.65T8.325 6.4l-.25.6H7.45q-1.425.05-2.437 1.063T4 10.5q0 1.45 1.025 2.475T7.5 14ZM12 9Z"/></svg>