<?xml version="1.0" encoding="UTF-8" standalone="no"?>
<svg
   height="24"
   viewBox="0 0 24 24"
   width="24"
   version="1.1"
   id="svg4"
   sodipodi:docname="2d.svg"
   inkscape:version="1.2.1 (9c6d41e410, 2022-07-14)"
   xmlns:inkscape="http://www.inkscape.org/namespaces/inkscape"
   xmlns:sodipodi="http://sodipodi.sourceforge.net/DTD/sodipodi-0.dtd"
   xmlns="http://www.w3.org/2000/svg"
   xmlns:svg="http://www.w3.org/2000/svg">
  <defs
     id="defs8" />
  <sodipodi:namedview
     id="namedview6"
     pagecolor="#ffffff"
     bordercolor="#000000"
     borderopacity="0.25"
     inkscape:showpageshadow="2"
     inkscape:pageopacity="0.0"
     inkscape:pagecheckerboard="0"
     inkscape:deskcolor="#d1d1d1"
     showgrid="false"
     inkscape:zoom="9.8333333"
     inkscape:cx="-26.949153"
     inkscape:cy="-3.559322"
     inkscape:window-width="3840"
     inkscape:window-height="2454"
     inkscape:window-x="-11"
     inkscape:window-y="-11"
     inkscape:window-maximized="1"
     inkscape:current-layer="svg4" />
  <path
     d="M 6.5,15 H 11 V 13.5 H 8 v -1 h 2 q 0.425,0 0.7125,-0.2875 Q 11,11.925 11,11.5 V 10 Q 11,9.575 10.7125,9.2875 10.425,9 10,9 H 6.5 v 1.5 h 3 v 1 h -2 Q 7.075,11.5 6.7875,11.7875 6.5,12.075 6.5,12.5 Z m 6.5,0 h 4 q 0.425,0 0.7125,-0.2875 Q 18,14.425 18,14 V 10 Q 18,9.575 17.7125,9.2875 17.425,9 17,9 h -4 z m 1.5,-1.5 v -3 h 2 v 3 z M 5,21 Q 4.175,21 3.5875,20.4125 3,19.825 3,19 V 5 Q 3,4.175 3.5875,3.5875 4.175,3 5,3 H 19 Q 19.825,3 20.4125,3.5875 21,4.175 21,5 v 14 q 0,0.825 -0.5875,1.4125 Q 19.825,21 19,21 Z M 5,19 H 19 V 5 H 5 Z M 5,5 v 14 z"
     id="path2"
     style="stroke-width:0.025" />
</svg>
