<svg xmlns="http://www.w3.org/2000/svg" width="24" height="24" viewBox="0 0 24 24"><path fill="currentColor" d="M13.5 11.5H16q.425 0 .713-.288T17 10.5v-4q0-.425-.288-.713T16 5.5h-2.5q-.425 0-.713.288T12.5 6.5v4q0 .425.288.713t.712.287ZM14 10V7h1.5v3H14Zm-8 8.5h1.5V14h1v3H10v-3h1v4.5h1.5v-5q0-.425-.288-.713T11.5 12.5H7q-.425 0-.713.288T6 13.5v5Zm7.5 0H15V17h2q.425 0 .713-.288T18 16v-2.5q0-.425-.288-.713T17 12.5h-3.5v6Zm1.5-3V14h1.5v1.5H15ZM5 21q-.825 0-1.413-.588T3 19V5q0-.825.588-1.413T5 3h14q.825 0 1.413.588T21 5v14q0 .825-.588 1.413T19 21H5Zm0-2h14V5H5v14ZM5 5v14V5Zm1.5 6.5H10q.425 0 .713-.288T11 10.5V9q0-.425-.288-.713T10 8H8V7h3V5.5H6.5V9h3v1h-3v1.5Z"/></svg>