<?xml version="1.0" encoding="UTF-8" standalone="no"?>
<svg
   height="24"
   viewBox="0 0 24 24"
   width="24"
   version="1.1"
   id="svg4"
   sodipodi:docname="ad-group-outlined.svg"
   inkscape:version="1.2.1 (9c6d41e410, 2022-07-14)"
   xmlns:inkscape="http://www.inkscape.org/namespaces/inkscape"
   xmlns:sodipodi="http://sodipodi.sourceforge.net/DTD/sodipodi-0.dtd"
   xmlns="http://www.w3.org/2000/svg"
   xmlns:svg="http://www.w3.org/2000/svg">
  <defs
     id="defs8" />
  <sodipodi:namedview
     id="namedview6"
     pagecolor="#ffffff"
     bordercolor="#000000"
     borderopacity="0.25"
     inkscape:showpageshadow="2"
     inkscape:pageopacity="0.0"
     inkscape:pagecheckerboard="0"
     inkscape:deskcolor="#d1d1d1"
     showgrid="false"
     inkscape:zoom="9.8333333"
     inkscape:cx="12"
     inkscape:cy="11.745763"
     inkscape:window-width="3840"
     inkscape:window-height="2454"
     inkscape:window-x="-11"
     inkscape:window-y="-11"
     inkscape:window-maximized="1"
     inkscape:current-layer="svg4" />
  <path
     d="M 8,16 H 20 V 6 H 8 Z m 0,2 Q 7.175,18 6.5875,17.4125 6,16.825 6,16 V 4 Q 6,3.175 6.5875,2.5875 7.175,2 8,2 H 20 Q 20.825,2 21.4125,2.5875 22,3.175 22,4 v 12 q 0,0.825 -0.5875,1.4125 Q 20.825,18 20,18 Z M 4,22 Q 3.175,22 2.5875,21.4125 2,20.825 2,20 V 6 h 2 v 14 h 14 v 2 z M 8,4 v 12 z"
     id="path2"
     style="stroke-width:0.025" />
</svg>
