<?xml version="1.0" encoding="UTF-8" standalone="no"?>
<svg
   height="24"
   viewBox="0 0 24 24"
   width="24"
   version="1.1"
   id="svg4"
   sodipodi:docname="auto-meeting-room-outlined.svg"
   inkscape:version="1.2.1 (9c6d41e410, 2022-07-14)"
   xmlns:inkscape="http://www.inkscape.org/namespaces/inkscape"
   xmlns:sodipodi="http://sodipodi.sourceforge.net/DTD/sodipodi-0.dtd"
   xmlns="http://www.w3.org/2000/svg"
   xmlns:svg="http://www.w3.org/2000/svg">
  <defs
     id="defs8" />
  <sodipodi:namedview
     id="namedview6"
     pagecolor="#ffffff"
     bordercolor="#000000"
     borderopacity="0.25"
     inkscape:showpageshadow="2"
     inkscape:pageopacity="0.0"
     inkscape:pagecheckerboard="0"
     inkscape:deskcolor="#d1d1d1"
     showgrid="false"
     inkscape:zoom="9.8333333"
     inkscape:cx="17.898305"
     inkscape:cy="12.050847"
     inkscape:window-width="1916"
     inkscape:window-height="2441"
     inkscape:window-x="-9"
     inkscape:window-y="0"
     inkscape:window-maximized="0"
     inkscape:current-layer="svg4" />
  <path
     d="M 1,21 V 19 H 3 V 3 h 10 v 1 h 4 v 8 H 15 V 6 H 13 V 21 Z M 9,13 Q 9.425,13 9.7125,12.7125 10,12.425 10,12 10,11.575 9.7125,11.2875 9.425,11 9,11 8.575,11 8.2875,11.2875 8,11.575 8,12 8,12.425 8.2875,12.7125 8.575,13 9,13 Z m -4,6 h 6 V 5 H 5 Z M 19,22 20.25,19.25 23,18 20.25,16.75 19,14 17.75,16.75 15,18 17.75,19.25 Z M 5,19 V 5 Z"
     id="path2"
     style="stroke-width:0.025" />
</svg>
