<svg xmlns="http://www.w3.org/2000/svg" width="24" height="24" viewBox="0 0 24 24"><path fill="currentColor" d="M5.4 6h13.2l-.85-1H6.25L5.4 6Zm4.6 6.75l2-1l2 1V8h-4v4.75ZM5 21q-.825 0-1.413-.588T3 19V6.525q0-.35.113-.675t.337-.6L4.7 3.725q.275-.35.687-.538T6.25 3h11.5q.45 0 .863.188t.687.537l1.25 1.525q.225.275.338.6t.112.675V10.1q-.5-.125-1.012-.075t-.988.25V8h-3v5l-2 2l-2-1l-4 2V8H5v11h7v2H5ZM16 8h3h-3ZM5 8h9h-9Zm9 13v-3.175l4.3-4.3l1.075 1.075l-3.875 3.85v1.05h1.05l3.875-3.85l1.05 1.05l-4.3 4.3H14Zm7.475-4.3L18.3 13.525l1.25-1.25q.275-.275.7-.275t.7.275l1.775 1.775q.275.275.275.7t-.275.7l-1.25 1.25Z"/></svg>