<svg xmlns="http://www.w3.org/2000/svg" width="24" height="24" viewBox="0 0 24 24"><path fill="currentColor" d="M7 18q-1.65 0-2.825-1.175T3 14q0-1.65 1.175-2.825T7 10q1.65 0 2.825 1.175T11 14q0 1.65-1.175 2.825T7 18Zm0-2q.825 0 1.413-.588T9 14q0-.825-.588-1.413T7 12q-.825 0-1.413.588T5 14q0 .825.588 1.413T7 16Zm9.5-2q-2.3 0-3.9-1.6T11 8.5q0-2.3 1.6-3.9T16.5 3q2.3 0 3.9 1.6T22 8.5q0 2.3-1.6 3.9T16.5 14Zm-2 7q-1.25 0-2.125-.875T11.5 18q0-1.25.875-2.125T14.5 15q1.25 0 2.125.875T17.5 18q0 1.25-.875 2.125T14.5 21Zm2-9q1.475 0 2.488-1.012T20 8.5q0-1.475-1.012-2.488T16.5 5q-1.475 0-2.488 1.012T13 8.5q0 1.475 1.012 2.488T16.5 12Zm-2 7q.425 0 .713-.288T15.5 18q0-.425-.288-.713T14.5 17q-.425 0-.713.288T13.5 18q0 .425.288.713T14.5 19Zm2-10.5ZM7 14Zm7.5 4Z"/></svg>