<svg xmlns="http://www.w3.org/2000/svg" width="24" height="24" viewBox="0 0 24 24"><path fill="currentColor" d="M12 3q1.85 0 3.488.713T18.35 5.65q1.225 1.225 1.938 2.863T21 12q0 1.85-.713 3.488T18.35 18.35q-1.225 1.225-2.863 1.938T12 21q-1.025 0-1.975-.225t-1.9-.65L9.65 18.6q.575.2 1.163.3T12 19q2.9 0 4.95-2.05T19 12q0-2.9-2.05-4.95T12 5Q9.1 5 7.05 7.05T5 12q0 .6.1 1.188t.3 1.162l-1.5 1.5q-.45-.9-.675-1.862T3 12q0-1.85.712-3.487T5.65 5.65q1.225-1.225 2.863-1.938T12 3Zm1 13v-3.6L4.4 21L3 19.6l8.6-8.6H8V9h7v7h-2Z"/></svg>