<svg xmlns="http://www.w3.org/2000/svg" width="24" height="24" viewBox="0 0 24 24"><path fill="currentColor" d="M9.4 19.55q-.45-.825-.788-1.713T8.05 16H5.1q.725 1.25 1.813 2.175T9.4 19.55ZM4.25 14h3.4q-.075-.5-.113-.988T7.5 12q0-.525.038-1.012T7.65 10h-3.4q-.125.5-.188.988T4 12q0 .525.063 1.012T4.25 14Zm.85-6h2.95q.225-.95.563-1.838T9.4 4.45Q8 4.9 6.912 5.825T5.1 8Zm5 0h3.8q-.3-1.1-.775-2.075T12 4.05q-.65.9-1.125 1.875T10.1 8Zm5.85 0h2.95q-.725-1.25-1.813-2.175T14.6 4.45q.45.825.788 1.713T15.95 8ZM12 22q-2.05 0-3.875-.788t-3.188-2.15q-1.362-1.362-2.15-3.187T2 12q0-2.075.788-3.888t2.15-3.174Q6.3 3.575 8.124 2.788T12 2q2.075 0 3.888.788t3.174 2.15q1.363 1.362 2.15 3.175T22 12q0 .25-.013.5t-.037.5h-2.025q.05-.25.063-.488T20 12q0-.525-.063-1.012T19.75 10h-3.4q.075.5.113.988T16.5 12v.513q0 .237-.025.487h-2q.025-.25.025-.488V12q0-.525-.038-1.012T14.35 10h-4.7q-.075.5-.113.988T9.5 12q0 .525.038 1.012T9.65 14H13v2h-2.9q.3 1.1.775 2.075T12 19.95q.275-.4.525-.813T13 18.3v3.65q-.25.025-.487.038T12 22Zm7.95-.625L17 18.425v2.225h-2V15h5.65v2H18.4l2.95 2.95l-1.4 1.425Z"/></svg>