<?xml version="1.0" encoding="UTF-8" standalone="no"?>
<svg
   height="24"
   viewBox="0 0 24 24"
   width="24"
   version="1.1"
   id="svg4"
   sodipodi:docname="chrome-tote-outlined.svg"
   inkscape:version="1.2.1 (9c6d41e410, 2022-07-14)"
   xmlns:inkscape="http://www.inkscape.org/namespaces/inkscape"
   xmlns:sodipodi="http://sodipodi.sourceforge.net/DTD/sodipodi-0.dtd"
   xmlns="http://www.w3.org/2000/svg"
   xmlns:svg="http://www.w3.org/2000/svg">
  <defs
     id="defs8" />
  <sodipodi:namedview
     id="namedview6"
     pagecolor="#ffffff"
     bordercolor="#000000"
     borderopacity="0.25"
     inkscape:showpageshadow="2"
     inkscape:pageopacity="0.0"
     inkscape:pagecheckerboard="0"
     inkscape:deskcolor="#d1d1d1"
     showgrid="false"
     inkscape:zoom="9.8333333"
     inkscape:cx="12"
     inkscape:cy="12"
     inkscape:window-width="3840"
     inkscape:window-height="2454"
     inkscape:window-x="-11"
     inkscape:window-y="-11"
     inkscape:window-maximized="1"
     inkscape:current-layer="svg4" />
  <path
     d="M 14.525123,13.499978 18.525058,9.4999855 17.12508,8.0749883 15.525106,9.6499852 v -4.149992 h -1.999967 v 4.149992 L 11.925166,8.0749883 10.525189,9.4999855 Z m -1.699972,5.499989 h 5.649907 q 0,0.649999 -0.537491,1.024998 -0.537491,0.374999 -1.21248,0.474999 L 5.7252676,21.874962 q -0.8249865,0.124999 -1.4749759,-0.4 Q 3.6003024,20.949963 3.5003041,20.124965 L 2.1503262,9.1999861 Q 2.0503279,8.3749877 2.5628195,7.7249889 3.0753111,7.0749902 3.9002975,6.9749904 L 5.025279,6.8499906 v 1.9999962 l -0.8999852,0.1 1.3499779,10.9499782 z M 9.0252133,16.999971 q -0.8249865,0 -1.4124767,-0.587499 Q 7.0252462,15.824973 7.0252462,14.999975 V 3.9999961 q 0,-0.8249984 0.5874904,-1.4124972 Q 8.2002268,2 9.0252133,2 H 20.025033 Q 20.850019,2 21.437509,2.5874989 22.025,3.1749977 22.025,3.9999961 V 14.999975 q 0,0.824998 -0.587491,1.412497 -0.58749,0.587499 -1.412476,0.587499 z m 0,-1.999996 H 20.025033 V 3.9999961 H 9.0252133 Z m -3.5499416,4.89999 z m 3.5499416,-4.89999 V 3.9999961 Z"
     id="path2"
     style="stroke-width:0.0249998" />
</svg>
