<svg xmlns="http://www.w3.org/2000/svg" width="24" height="24" viewBox="0 0 24 24"><path d="M17 19h2V5h-2v14ZM7 14q.425 0 .713-.288T8 13q0-.425-.288-.713T7 12q-.425 0-.713.288T6 13q0 .425.288.713T7 14Zm0 3q.425 0 .713-.288T8 16q0-.425-.288-.713T7 15q-.425 0-.713.288T6 16q0 .425.288.713T7 17Zm-1-6h8V7H6v4Zm4 3q.425 0 .713-.288T11 13q0-.425-.288-.713T10 12q-.425 0-.713.288T9 13q0 .425.288.713T10 14Zm0 3q.425 0 .713-.288T11 16q0-.425-.288-.713T10 15q-.425 0-.713.288T9 16q0 .425.288.713T10 17Zm3-3q.425 0 .713-.288T14 13q0-.425-.288-.713T13 12q-.425 0-.713.288T12 13q0 .425.288.713T13 14Zm0 3q.425 0 .713-.288T14 16q0-.425-.288-.713T13 15q-.425 0-.713.288T12 16q0 .425.288.713T13 17Zm2 1V6H5v12h10Zm2 3q-.575 0-1.012-.275T15.275 20H5q-.825 0-1.413-.588T3 18V6q0-.825.588-1.413T5 4h10.275q.275-.45.713-.725T17 3h2q.825 0 1.413.588T21 5v14q0 .825-.588 1.413T19 21h-2ZM5 18V6v12Z"/></svg>