<svg xmlns="http://www.w3.org/2000/svg" width="24" height="24" viewBox="0 0 24 24"><path d="M12 17q-1.825 0-3.188-1.137T7.1 13h1.55q.325 1.1 1.238 1.8t2.112.7q1.45 0 2.475-1.025T15.5 12q0-1.45-1.025-2.475T12 8.5q-.725 0-1.35.263t-1.1.737H11V11H7V7h1.5v1.425q.675-.65 1.575-1.038T12 7q2.075 0 3.538 1.463T17 12q0 2.075-1.463 3.538T12 17Zm-7 4q-.825 0-1.413-.588T3 19v-4h2v4h4v2H5Zm10 0v-2h4v-4h2v4q0 .825-.588 1.413T19 21h-4ZM3 9V5q0-.825.588-1.413T5 3h4v2H5v4H3Zm16 0V5h-4V3h4q.825 0 1.413.588T21 5v4h-2Z"/></svg>