<svg xmlns="http://www.w3.org/2000/svg" width="24" height="24" viewBox="0 0 24 24"><path d="m7 8.5l2-2l-2-2l-2 2l2 2Zm5-1ZM4 14q-.825 0-1.413-.588T2 12V3q0-.825.588-1.413T4 1h16q.825 0 1.413.588T22 3v9q0 .825-.588 1.413T20 14h-3.225q.15-.5.2-1t0-1H20V3H4v9h3.025q-.05.5 0 1t.2 1H4Zm12.5-7q.625 0 1.063-.438T18 5.5q0-.625-.438-1.063T16.5 4q-.625 0-1.063.438T15 5.5q0 .625.438 1.063T16.5 7ZM5 23v-2.1q0-.875.488-1.625t1.287-1.125q1.225-.575 2.55-.863T12 17q1.35 0 2.675.288t2.55.862q.8.375 1.288 1.125T19 20.9V23H5Zm2-2h10v-.1q0-.3-.175-.55t-.45-.375q-1.05-.475-2.15-.725T12 19q-1.125 0-2.225.25t-2.15.725q-.275.125-.45.375T7 20.9v.1Zm5-5q-1.45 0-2.475-1.025T8.5 12.5q0-1.45 1.025-2.475T12 9q1.45 0 2.475 1.025T15.5 12.5q0 1.45-1.025 2.475T12 16Zm0-2q.625 0 1.063-.438T13.5 12.5q0-.625-.438-1.063T12 11q-.625 0-1.063.438T10.5 12.5q0 .625.438 1.063T12 14Zm0-1.5Zm0 8.5Z"/></svg>