<svg xmlns="http://www.w3.org/2000/svg" width="24" height="24" viewBox="0 0 24 24"><path d="M11 8.275V7.85q-1.1-.325-1.8-1.237T8.5 4.5q0-1.45 1.025-2.475T12 1q1.45 0 2.475 1.025T15.5 4.5q0 1.2-.7 2.113T13 7.85v.425l7 4.025q.475.275.738.738T21 14.05v1.9q0 .55-.263 1.013T20 17.7l-7 4.025Q12.525 22 12 22t-1-.275L4 17.7q-.475-.275-.738-.738T3 15.95v-1.9q0-.55.263-1.012T4 12.3l7-4.025Zm0 9.45l-6-3.45v1.675L12 20l7-4.05v-1.675l-6 3.45Q12.525 18 12 18t-1-.275ZM11 14v-3.425L6.8 13l5.2 3l5.2-3l-4.2-2.425V14h-2Zm1-8q.625 0 1.063-.437T13.5 4.5q0-.625-.438-1.063T12 3q-.625 0-1.063.438T10.5 4.5q0 .625.438 1.063T12 6Zm0 14Z"/></svg>