<svg xmlns="http://www.w3.org/2000/svg" width="24" height="24" viewBox="0 0 24 24"><path d="M4 22q-.825 0-1.413-.588T2 20V10q0-.825.588-1.413T4 8h16q.825 0 1.413.588T22 10v10q0 .825-.588 1.413T20 22H4Zm0-2h16V10H4v10Zm4-1h8v-2H8v2Zm-3-3h2v-2H5v2Zm3 0h2v-2H8v2Zm3 0h2v-2h-2v2Zm3 0h2v-2h-2v2Zm3 0h2v-2h-2v2ZM5 13h2v-2H5v2Zm3 0h2v-2H8v2Zm3 0h2v-2h-2v2Zm3 0h2v-2h-2v2Zm3 0h2v-2h-2v2ZM4 20V10v10ZM6 6V1h2v1.525Q8.8 1.8 9.825 1.4T12 1q2.2 0 3.875 1.413T17.9 6h-2.05q-.35-1.325-1.412-2.163T12 3q-.75 0-1.425.263T9.375 4H11v2H6Z"/></svg>