<svg xmlns="http://www.w3.org/2000/svg" width="24" height="24" viewBox="0 0 24 24"><path d="M5 19V5v14Zm0 2q-.825 0-1.413-.588T3 19V5q0-.825.588-1.413T5 3h14q.825 0 1.413.588T21 5v8.825q-.45-.275-.95-.45T19 13.1V5H5v14h7q0 .525.075 1.025t.25.975H5Zm12 2v-3h-3v-2h3v-3h2v3h3v2h-3v3h-2Zm-9-6q.425 0 .713-.288T9 16q0-.425-.288-.713T8 15q-.425 0-.713.288T7 16q0 .425.288.713T8 17Zm0-4q.425 0 .713-.288T9 12q0-.425-.288-.713T8 11q-.425 0-.713.288T7 12q0 .425.288.713T8 13Zm0-4q.425 0 .713-.288T9 8q0-.425-.288-.713T8 7q-.425 0-.713.288T7 8q0 .425.288.713T8 9Zm3 4h6v-2h-6v2Zm0-4h6V7h-6v2Zm0 8h1.35q.2-.575.5-1.075t.7-.925H11v2Z"/></svg>