<?xml version="1.0" encoding="UTF-8"?>
<svg xmlns="http://www.w3.org/2000/svg" xmlns:xlink="http://www.w3.org/1999/xlink" width="24px" height="24px" viewBox="0 0 24 24" version="1.1">
<g id="surface1">
<path style=" stroke:none;fill-rule:nonzero;fill:rgb(0%,0%,0%);fill-opacity:1;" d="M 8 11 L 20.148438 11 L 18.601562 9.449219 L 20 8 L 24 12 L 20 16 L 18.601562 14.550781 L 20.148438 13 L 8 13 Z M 15 9 L 15 5 L 5 5 L 5 19 L 15 19 L 15 15 L 17 15 L 17 19 C 17 19.550781 16.804688 20.019531 16.414062 20.414062 C 16.019531 20.804688 15.550781 21 15 21 L 5 21 C 4.449219 21 3.980469 20.804688 3.585938 20.414062 C 3.195312 20.019531 3 19.550781 3 19 L 3 5 C 3 4.449219 3.195312 3.980469 3.585938 3.585938 C 3.980469 3.195312 4.449219 3 5 3 L 15 3 C 15.550781 3 16.019531 3.195312 16.414062 3.585938 C 16.804688 3.980469 17 4.449219 17 5 L 17 9 Z M 15 9 "/>
</g>
</svg>
