<svg xmlns="http://www.w3.org/2000/svg" width="24" height="24" viewBox="0 0 24 24"><path d="M8.475 17.45q.55-.55 1.238-.9t1.462-.475q-.125.475-.2.95T10.9 18q0 .6.088 1.175t.287 1.1l-2.8-2.825Zm-2.125-2.1l-2.1-2.15q1.55-1.55 3.55-2.375T12 10q1.225 0 2.4.263t2.25.762q-1.1.2-2.038.725t-1.687 1.3q-.225-.025-.463-.038T12 13q-1.6 0-3.063.613T6.35 15.35ZM2.1 11.1L0 9q2.375-2.425 5.488-3.713T12 4q3.4 0 6.513 1.288T24 9l-2.1 2.1q-1.975-1.975-4.538-3.038T12 7Q9.2 7 6.637 8.063T2.1 11.1ZM19 13l.3 1.5q.3.125.563.263t.537.337l1.45-.45l1 1.7l-1.15 1q.05.3.05.65t-.05.65l1.15 1l-1 1.7l-1.45-.45q-.275.2-.537.338t-.563.262L19 23h-2l-.3-1.5q-.3-.125-.563-.263T15.6 20.9l-1.45.45l-1-1.7l1.15-1q-.05-.3-.05-.65t.05-.65l-1.15-1l1-1.7l1.45.45q.275-.2.538-.337t.562-.263L17 13h2Zm-1 3q-.825 0-1.413.588T16 18q0 .825.588 1.413T18 20q.825 0 1.413-.588T20 18q0-.825-.588-1.413T18 16Z"/></svg>