<?xml version="1.0" encoding="UTF-8"?>
<svg xmlns="http://www.w3.org/2000/svg" xmlns:xlink="http://www.w3.org/1999/xlink" width="24px" height="24px" viewBox="0 0 24 24" version="1.1">
<g id="surface1">
<path style=" stroke:none;fill-rule:nonzero;fill:rgb(0%,0%,0%);fill-opacity:1;" d="M 9.449219 6.574219 C 9.832031 6.390625 10.238281 6.25 10.664062 6.148438 C 11.085938 6.050781 11.535156 6 12 6 C 12.449219 6 12.882812 6.042969 13.300781 6.125 C 13.714844 6.207031 14.117188 6.339844 14.5 6.523438 C 13.933594 6.773438 13.425781 7.109375 12.976562 7.523438 C 12.523438 7.941406 12.140625 8.417969 11.824219 8.949219 Z M 12 18 C 10.332031 18 8.917969 17.417969 7.75 16.25 C 6.582031 15.082031 6 13.667969 6 12 C 6 11.148438 6.152344 10.359375 6.460938 9.625 C 6.769531 8.890625 7.199219 8.257812 7.75 7.726562 L 11.074219 11.050781 C 11.042969 11.199219 11.019531 11.355469 11.011719 11.511719 C 11.003906 11.671875 11 11.832031 11 12 C 11 13.234375 11.320312 14.332031 11.960938 15.300781 C 12.605469 16.265625 13.449219 16.992188 14.5 17.476562 C 14.117188 17.660156 13.714844 17.792969 13.300781 17.875 C 12.882812 17.957031 12.449219 18 12 18 Z M 20.476562 23.300781 L 17.523438 20.351562 C 16.726562 20.882812 15.863281 21.292969 14.9375 21.574219 C 14.011719 21.859375 13.035156 22 12 22 C 10.617188 22 9.316406 21.738281 8.101562 21.210938 C 6.882812 20.6875 5.824219 19.976562 4.925781 19.074219 C 4.023438 18.175781 3.3125 17.117188 2.789062 15.898438 C 2.261719 14.683594 2 13.382812 2 12 C 2 10.964844 2.140625 9.988281 2.425781 9.0625 C 2.707031 8.136719 3.117188 7.273438 3.648438 6.476562 L 0.675781 3.5 L 2.101562 2.074219 L 21.898438 21.875 Z M 12 20 C 12.75 20 13.460938 19.898438 14.136719 19.699219 C 14.8125 19.5 15.449219 19.226562 16.050781 18.875 L 5.125 7.949219 C 4.773438 8.550781 4.5 9.1875 4.300781 9.863281 C 4.101562 10.539062 4 11.25 4 12 C 4 14.214844 4.777344 16.105469 6.335938 17.664062 C 7.894531 19.222656 9.785156 20 12 20 Z M 20.375 17.5 L 18.898438 16.023438 C 19.25 15.441406 19.519531 14.8125 19.710938 14.136719 C 19.902344 13.460938 20 12.75 20 12 C 20 9.785156 19.222656 7.894531 17.664062 6.335938 C 16.105469 4.777344 14.214844 4 12 4 C 11.25 4 10.539062 4.097656 9.863281 4.289062 C 9.1875 4.480469 8.558594 4.75 7.976562 5.101562 L 6.5 3.625 C 7.300781 3.109375 8.164062 2.707031 9.085938 2.425781 C 10.011719 2.140625 10.984375 2 12 2 C 13.382812 2 14.683594 2.261719 15.898438 2.789062 C 17.117188 3.3125 18.175781 4.023438 19.074219 4.925781 C 19.976562 5.824219 20.6875 6.882812 21.210938 8.101562 C 21.738281 9.316406 22 10.617188 22 12 C 22 13.015625 21.859375 13.988281 21.574219 14.914062 C 21.292969 15.835938 20.890625 16.699219 20.375 17.5 Z M 13.449219 10.550781 Z M 10.601562 13.398438 Z M 10.601562 13.398438 "/>
</g>
</svg>
