<?xml version="1.0" encoding="UTF-8"?>
<svg xmlns="http://www.w3.org/2000/svg" xmlns:xlink="http://www.w3.org/1999/xlink" width="24px" height="24px" viewBox="0 0 24 24" version="1.1">
<g id="surface1">
<path style=" stroke:none;fill-rule:nonzero;fill:rgb(0%,0%,0%);fill-opacity:1;" d="M 3 21 C 2.449219 21 1.980469 20.804688 1.585938 20.414062 C 1.195312 20.019531 1 19.550781 1 19 L 1 6 L 3 6 L 3 19 L 18 19 L 18 21 Z M 14 12.648438 L 7 8.550781 L 7 15 L 21 15 L 21 8.550781 Z M 7 17 C 6.449219 17 5.980469 16.804688 5.585938 16.414062 C 5.195312 16.019531 5 15.550781 5 15 L 5 6.5 C 5 6.148438 5.078125 5.816406 5.238281 5.5 C 5.394531 5.183594 5.632812 4.933594 5.949219 4.75 L 14 0 L 16.449219 1.449219 L 14.949219 2.898438 L 14 2.351562 L 7.199219 6.351562 L 14 10.351562 L 20.800781 6.351562 L 19.449219 5.550781 L 20.898438 4.101562 L 22.050781 4.75 C 22.367188 4.933594 22.605469 5.183594 22.761719 5.5 C 22.921875 5.816406 23 6.148438 23 6.5 L 23 15 C 23 15.550781 22.804688 16.019531 22.414062 16.414062 C 22.019531 16.804688 21.550781 17 21 17 Z M 13.851562 9 L 11.050781 6.199219 L 12.449219 4.800781 L 13.851562 6.199219 L 18.5 1.550781 L 19.898438 2.949219 Z M 14 15 L 21 15 L 7 15 Z M 14 15 "/>
</g>
</svg>
