<?xml version="1.0" encoding="UTF-8"?>
<svg xmlns="http://www.w3.org/2000/svg" xmlns:xlink="http://www.w3.org/1999/xlink" width="24px" height="24px" viewBox="0 0 24 24" version="1.1">
<g id="surface1">
<path style=" stroke:none;fill-rule:nonzero;fill:rgb(0%,0%,0%);fill-opacity:1;" d="M 7 11.5 L 8 11.5 L 8 10.5 L 7 10.5 Z M 5.5 15 L 5.5 9 L 8.5 9 C 8.785156 9 9.019531 9.097656 9.210938 9.289062 C 9.402344 9.480469 9.5 9.714844 9.5 10 L 9.5 12 C 9.5 12.285156 9.402344 12.519531 9.210938 12.710938 C 9.019531 12.902344 8.785156 13 8.5 13 L 7 13 L 7 15 Z M 10.398438 15 L 10.398438 10.398438 L 11.898438 11.898438 L 11.898438 13.5 L 12.898438 13.5 L 12.898438 12.898438 L 14.351562 14.351562 C 14.265625 14.550781 14.140625 14.707031 13.976562 14.824219 C 13.808594 14.941406 13.617188 15 13.398438 15 Z M 14.398438 11.574219 L 13.101562 10.300781 L 11.824219 9 L 13.398438 9 C 13.683594 9 13.921875 9.097656 14.113281 9.289062 C 14.304688 9.480469 14.398438 9.714844 14.398438 10 Z M 17 14.175781 L 15.5 12.675781 L 15.5 9 L 18.5 9 L 18.5 10.5 L 17 10.5 L 17 11.5 L 18.5 11.5 L 18.5 13 L 17 13 Z M 21 18.175781 L 19 16.175781 L 19 5 L 7.824219 5 L 5.824219 3 L 19 3 C 19.550781 3 20.019531 3.195312 20.414062 3.585938 C 20.804688 3.980469 21 4.449219 21 5 Z M 5 21 C 4.449219 21 3.980469 20.804688 3.585938 20.414062 C 3.195312 20.019531 3 19.550781 3 19 L 3 5 C 3 4.734375 3.050781 4.480469 3.148438 4.238281 C 3.25 3.996094 3.390625 3.785156 3.574219 3.601562 L 5 5 L 5 19 L 19 19 L 20.398438 20.425781 C 20.214844 20.609375 20.003906 20.75 19.761719 20.851562 C 19.519531 20.949219 19.265625 21 19 21 Z M 19.773438 22.601562 L 1.398438 4.199219 L 2.800781 2.800781 L 21.199219 21.199219 Z M 10.601562 13.398438 Z M 13.425781 10.574219 Z M 13.425781 10.574219 "/>
</g>
</svg>
