<?xml version="1.0" encoding="UTF-8"?>
<svg xmlns="http://www.w3.org/2000/svg" xmlns:xlink="http://www.w3.org/1999/xlink" width="24px" height="24px" viewBox="0 0 24 24" version="1.1">
<g id="surface1">
<path style=" stroke:none;fill-rule:nonzero;fill:rgb(0%,0%,0%);fill-opacity:1;" d="M 5.5 12.398438 L 1.601562 8.5 L 5.5 4.601562 L 9.398438 8.5 Z M 9 22 L 9 17 C 7.984375 16.917969 6.976562 16.796875 5.976562 16.636719 C 4.976562 16.480469 3.984375 16.265625 3 16 L 3.5 14 C 4.898438 14.382812 6.304688 14.644531 7.710938 14.789062 C 9.121094 14.929688 10.550781 15 12 15 C 13.449219 15 14.878906 14.929688 16.289062 14.789062 C 17.695312 14.644531 19.101562 14.382812 20.5 14 L 21 16 C 20.015625 16.265625 19.023438 16.480469 18.023438 16.636719 C 17.023438 16.796875 16.015625 16.917969 15 17 L 15 22 Z M 5.5 9.601562 L 6.601562 8.5 L 5.5 7.398438 L 4.398438 8.5 Z M 12 7 C 11.167969 7 10.457031 6.707031 9.875 6.125 C 9.292969 5.542969 9 4.832031 9 4 C 9 3.167969 9.292969 2.457031 9.875 1.875 C 10.457031 1.292969 11.167969 1 12 1 C 12.832031 1 13.542969 1.292969 14.125 1.875 C 14.707031 2.457031 15 3.167969 15 4 C 15 4.832031 14.707031 5.542969 14.125 6.125 C 13.542969 6.707031 12.832031 7 12 7 Z M 12 14 C 11.449219 14 10.980469 13.804688 10.585938 13.414062 C 10.195312 13.019531 10 12.550781 10 12 C 10 11.449219 10.195312 10.980469 10.585938 10.585938 C 10.980469 10.195312 11.449219 10 12 10 C 12.550781 10 13.019531 10.195312 13.414062 10.585938 C 13.804688 10.980469 14 11.449219 14 12 C 14 12.550781 13.804688 13.019531 13.414062 13.414062 C 13.019531 13.804688 12.550781 14 12 14 Z M 12 5 C 12.285156 5 12.519531 4.902344 12.710938 4.710938 C 12.902344 4.519531 13 4.285156 13 4 C 13 3.714844 12.902344 3.480469 12.710938 3.289062 C 12.519531 3.097656 12.285156 3 12 3 C 11.714844 3 11.480469 3.097656 11.289062 3.289062 C 11.097656 3.480469 11 3.714844 11 4 C 11 4.285156 11.097656 4.519531 11.289062 4.710938 C 11.480469 4.902344 11.714844 5 12 5 Z M 17.050781 12 L 15.351562 9 L 17.050781 6 L 20.449219 6 L 22.148438 9 L 20.449219 12 Z M 18.199219 10 L 19.300781 10 L 19.851562 9 L 19.300781 8 L 18.199219 8 L 17.648438 9 Z M 5.5 8.5 Z M 12 4 Z M 18.75 9 Z M 18.75 9 "/>
</g>
</svg>
