<?xml version="1.0" encoding="UTF-8"?>
<svg xmlns="http://www.w3.org/2000/svg" xmlns:xlink="http://www.w3.org/1999/xlink" width="24px" height="24px" viewBox="0 0 24 24" version="1.1">
<g id="surface1">
<path style=" stroke:none;fill-rule:nonzero;fill:rgb(0%,0%,0%);fill-opacity:1;" d="M 8.625 21 C 7.058594 21 5.730469 20.453125 4.636719 19.363281 C 3.546875 18.269531 3 16.941406 3 15.375 C 3 14.625 3.140625 13.910156 3.425781 13.226562 C 3.707031 12.542969 4.117188 11.933594 4.648438 11.398438 L 11.398438 4.648438 C 11.933594 4.117188 12.542969 3.707031 13.226562 3.425781 C 13.910156 3.140625 14.625 3 15.375 3 C 16.941406 3 18.269531 3.546875 19.363281 4.636719 C 20.453125 5.730469 21 7.058594 21 8.625 C 21 9.375 20.859375 10.089844 20.574219 10.773438 C 20.292969 11.457031 19.882812 12.066406 19.351562 12.601562 L 12.601562 19.351562 C 12.066406 19.882812 11.457031 20.292969 10.773438 20.574219 C 10.089844 20.859375 9.375 21 8.625 21 Z M 15.273438 13.851562 L 17.949219 11.199219 C 18.285156 10.867188 18.542969 10.476562 18.726562 10.023438 C 18.910156 9.574219 19 9.109375 19 8.625 C 19 7.625 18.644531 6.769531 17.9375 6.0625 C 17.230469 5.355469 16.375 5 15.375 5 C 14.890625 5 14.425781 5.089844 13.976562 5.273438 C 13.523438 5.457031 13.132812 5.714844 12.800781 6.050781 L 10.148438 8.726562 Z M 8.625 19 C 9.109375 19 9.574219 18.910156 10.023438 18.726562 C 10.476562 18.542969 10.867188 18.285156 11.199219 17.949219 L 13.851562 15.273438 L 8.726562 10.148438 L 6.050781 12.800781 C 5.714844 13.132812 5.457031 13.523438 5.273438 13.976562 C 5.089844 14.425781 5 14.890625 5 15.375 C 5 16.375 5.355469 17.230469 6.0625 17.9375 C 6.769531 18.644531 7.625 19 8.625 19 Z M 8.625 19 "/>
</g>
</svg>
