<?xml version="1.0" encoding="UTF-8"?>
<svg xmlns="http://www.w3.org/2000/svg" xmlns:xlink="http://www.w3.org/1999/xlink" width="24px" height="24px" viewBox="0 0 24 24" version="1.1">
<g id="surface1">
<path style=" stroke:none;fill-rule:nonzero;fill:rgb(0%,0%,0%);fill-opacity:1;" d="M 4 20 C 3.449219 20 2.980469 19.804688 2.585938 19.414062 C 2.195312 19.019531 2 18.550781 2 18 L 2 11 L 4 11 L 4 18 L 20 18 L 20 6 L 11 6 L 11 4 L 20 4 C 20.550781 4 21.019531 4.195312 21.414062 4.585938 C 21.804688 4.980469 22 5.449219 22 6 L 22 18 C 22 18.550781 21.804688 19.019531 21.414062 19.414062 C 21.019531 19.804688 20.550781 20 20 20 Z M 17.074219 16.5 L 18.5 15.074219 L 15.398438 12 L 18 12 L 18 10 L 12 10 L 12 16 L 14 16 L 14 13.425781 Z M 2 9 L 2 4 L 9 4 L 9 9 Z M 12 12 Z M 12 12 "/>
</g>
</svg>
