<?xml version="1.0" encoding="UTF-8"?>
<svg xmlns="http://www.w3.org/2000/svg" xmlns:xlink="http://www.w3.org/1999/xlink" width="24px" height="24px" viewBox="0 0 24 24" version="1.1">
<g id="surface1">
<path style=" stroke:none;fill-rule:nonzero;fill:rgb(0%,0%,0%);fill-opacity:1;" d="M 14.398438 10.5 L 13 9.101562 L 15.601562 6.5 L 13 3.898438 L 14.398438 2.5 L 17 5.101562 L 19.601562 2.5 L 21 3.898438 L 18.398438 6.5 L 21 9.101562 L 19.601562 10.5 L 17 7.898438 Z M 2 11 L 7 2 L 12 11 Z M 7 21 C 5.898438 21 4.957031 20.609375 4.175781 19.824219 C 3.390625 19.042969 3 18.101562 3 17 C 3 15.882812 3.390625 14.9375 4.175781 14.164062 C 4.957031 13.386719 5.898438 13 7 13 C 8.101562 13 9.042969 13.390625 9.824219 14.175781 C 10.609375 14.957031 11 15.898438 11 17 C 11 18.101562 10.609375 19.042969 9.824219 19.824219 C 9.042969 20.609375 8.101562 21 7 21 Z M 7 19 C 7.550781 19 8.019531 18.804688 8.414062 18.414062 C 8.804688 18.019531 9 17.550781 9 17 C 9 16.449219 8.804688 15.980469 8.414062 15.585938 C 8.019531 15.195312 7.550781 15 7 15 C 6.449219 15 5.980469 15.195312 5.585938 15.585938 C 5.195312 15.980469 5 16.449219 5 17 C 5 17.550781 5.195312 18.019531 5.585938 18.414062 C 5.980469 18.804688 6.449219 19 7 19 Z M 5.398438 9 L 8.601562 9 L 7 6.125 Z M 13 21 L 13 13 L 21 13 L 21 21 Z M 15 19 L 19 19 L 19 15 L 15 15 Z M 7 7.550781 Z M 7 17 Z M 17 17 Z M 17 17 "/>
</g>
</svg>
