<?xml version="1.0" encoding="UTF-8"?>
<svg xmlns="http://www.w3.org/2000/svg" xmlns:xlink="http://www.w3.org/1999/xlink" width="24px" height="24px" viewBox="0 0 24 24" version="1.1">
<g id="surface1">
<path style=" stroke:none;fill-rule:nonzero;fill:rgb(0%,0%,0%);fill-opacity:1;" d="M 18 21 L 18 18 L 15 18 L 15 16 L 18 16 L 18 13 L 20 13 L 20 16 L 23 16 L 23 18 L 20 18 L 20 21 Z M 4 10 L 20 10 Z M 6 21 L 6 17 L 2 17 L 2 11 C 2 10.148438 2.292969 9.4375 2.875 8.863281 C 3.457031 8.289062 4.167969 8 5 8 L 19 8 C 19.851562 8 20.5625 8.289062 21.136719 8.863281 C 21.710938 9.4375 22 10.148438 22 11 L 22 11.800781 C 21.699219 11.632812 21.382812 11.488281 21.050781 11.363281 C 20.714844 11.238281 20.367188 11.148438 20 11.101562 C 20 10.816406 19.902344 10.5625 19.710938 10.335938 C 19.519531 10.113281 19.285156 10 19 10 L 5 10 C 4.714844 10 4.480469 10.097656 4.289062 10.289062 C 4.097656 10.480469 4 10.714844 4 11 L 4 15 L 6 15 L 6 13 L 14.550781 13 C 14.285156 13.285156 14.050781 13.589844 13.851562 13.925781 C 13.648438 14.257812 13.484375 14.617188 13.351562 15 L 8 15 L 8 19 L 13.351562 19 C 13.464844 19.367188 13.632812 19.714844 13.851562 20.050781 C 14.066406 20.382812 14.300781 20.699219 14.550781 21 Z M 16 8 L 16 5 L 8 5 L 8 8 L 6 8 L 6 3 L 18 3 L 18 8 Z M 16 8 "/>
</g>
</svg>
