<?xml version="1.0" encoding="UTF-8"?>
<svg xmlns="http://www.w3.org/2000/svg" xmlns:xlink="http://www.w3.org/1999/xlink" width="24px" height="24px" viewBox="0 0 24 24" version="1.1">
<g id="surface1">
<path style=" stroke:none;fill-rule:nonzero;fill:rgb(0%,0%,0%);fill-opacity:1;" d="M 6 21 L 6 17 L 2 17 L 2 11 C 2 10.148438 2.292969 9.4375 2.875 8.863281 C 3.457031 8.289062 4.167969 8 5 8 L 19 8 C 19.667969 8 20.253906 8.1875 20.761719 8.5625 C 21.269531 8.9375 21.625 9.417969 21.824219 10 L 5 10 C 4.714844 10 4.480469 10.097656 4.289062 10.289062 C 4.097656 10.480469 4 10.714844 4 11 L 4 15 L 6 15 L 6 13 L 16 13 L 16 15 L 8 15 L 8 19 L 16 19 L 16 21 Z M 6 8 L 6 3 L 18 3 L 18 8 L 16 8 L 16 5 L 8 5 L 8 8 Z M 19 21 C 18.714844 21 18.480469 20.902344 18.289062 20.710938 C 18.097656 20.519531 18 20.285156 18 20 C 18 19.714844 18.097656 19.480469 18.289062 19.289062 C 18.480469 19.097656 18.714844 19 19 19 C 19.285156 19 19.519531 19.097656 19.710938 19.289062 C 19.902344 19.480469 20 19.714844 20 20 C 20 20.285156 19.902344 20.519531 19.710938 20.710938 C 19.519531 20.902344 19.285156 21 19 21 Z M 18 17 L 18 12 L 20 12 L 20 17 Z M 4 10 L 21.824219 10 Z M 4 10 "/>
</g>
</svg>
