<?xml version="1.0" encoding="UTF-8"?>
<svg xmlns="http://www.w3.org/2000/svg" xmlns:xlink="http://www.w3.org/1999/xlink" width="24px" height="24px" viewBox="0 0 24 24" version="1.1">
<g id="surface1">
<path style=" stroke:none;fill-rule:nonzero;fill:rgb(0%,0%,0%);fill-opacity:1;" d="M 11.5 16 L 11.5 8 L 7.5 12 Z M 5 21 C 4.449219 21 3.980469 20.804688 3.585938 20.414062 C 3.195312 20.019531 3 19.550781 3 19 L 3 5 C 3 4.449219 3.195312 3.980469 3.585938 3.585938 C 3.980469 3.195312 4.449219 3 5 3 L 19 3 C 19.550781 3 20.019531 3.195312 20.414062 3.585938 C 20.804688 3.980469 21 4.449219 21 5 L 21 19 C 21 19.550781 20.804688 20.019531 20.414062 20.414062 C 20.019531 20.804688 19.550781 21 19 21 Z M 16 19 L 19 19 L 19 5 L 16 5 Z M 14 19 L 14 5 L 5 5 L 5 19 Z M 16 19 L 19 19 Z M 16 19 "/>
</g>
</svg>
