<?xml version="1.0" encoding="UTF-8"?>
<svg xmlns="http://www.w3.org/2000/svg" xmlns:xlink="http://www.w3.org/1999/xlink" width="24px" height="24px" viewBox="0 0 24 24" version="1.1">
<g id="surface1">
<path style=" stroke:none;fill-rule:nonzero;fill:rgb(0%,0%,0%);fill-opacity:1;" d="M 4 20 C 3.449219 20 2.980469 19.804688 2.585938 19.414062 C 2.195312 19.019531 2 18.550781 2 18 L 2 6 C 2 5.449219 2.195312 4.980469 2.585938 4.585938 C 2.980469 4.195312 3.449219 4 4 4 L 20 4 C 20.550781 4 21.019531 4.195312 21.414062 4.585938 C 21.804688 4.980469 22 5.449219 22 6 L 22 18 C 22 18.550781 21.804688 19.019531 21.414062 19.414062 C 21.019531 19.804688 20.550781 20 20 20 Z M 14 16 L 14 14 L 18 14 L 18 16 Z M 14 13 L 14 11 L 18 11 L 18 13 Z M 4 11 L 4 18 L 20 18 L 20 10 L 14 10 L 14 8 L 20 8 L 20 6 L 12 6 L 12 11 Z M 4 11 "/>
</g>
</svg>
