<?xml version="1.0" encoding="UTF-8"?>
<svg xmlns="http://www.w3.org/2000/svg" xmlns:xlink="http://www.w3.org/1999/xlink" width="24px" height="24px" viewBox="0 0 24 24" version="1.1">
<g id="surface1">
<path style=" stroke:none;fill-rule:nonzero;fill:rgb(0%,0%,0%);fill-opacity:1;" d="M 3.949219 17.949219 C 3.332031 17.117188 2.855469 16.195312 2.511719 15.1875 C 2.171875 14.179688 2 13.117188 2 12 C 2 10.882812 2.167969 9.824219 2.5 8.824219 C 2.832031 7.824219 3.308594 6.910156 3.925781 6.074219 L 5.375 7.5 C 4.941406 8.132812 4.605469 8.828125 4.363281 9.585938 C 4.121094 10.347656 4 11.148438 4 12 C 4 12.851562 4.121094 13.660156 4.363281 14.425781 C 4.605469 15.191406 4.941406 15.890625 5.375 16.523438 Z M 12 22 C 10.882812 22 9.824219 21.832031 8.824219 21.5 C 7.824219 21.167969 6.910156 20.691406 6.074219 20.074219 L 7.5 18.625 C 8.132812 19.058594 8.828125 19.394531 9.585938 19.636719 C 10.347656 19.878906 11.148438 20 12 20 C 12.851562 20 13.652344 19.878906 14.414062 19.636719 C 15.171875 19.394531 15.867188 19.058594 16.5 18.625 L 17.925781 20.074219 C 17.089844 20.691406 16.175781 21.167969 15.175781 21.5 C 14.175781 21.832031 13.117188 22 12 22 Z M 20.050781 17.949219 L 18.625 16.523438 C 19.058594 15.890625 19.394531 15.191406 19.636719 14.425781 C 19.878906 13.660156 20 12.851562 20 12 C 20 11.148438 19.878906 10.347656 19.636719 9.585938 C 19.394531 8.828125 19.058594 8.132812 18.625 7.5 L 20.074219 6.074219 C 20.691406 6.910156 21.167969 7.824219 21.5 8.824219 C 21.832031 9.824219 22 10.882812 22 12 C 22 13.117188 21.828125 14.179688 21.488281 15.1875 C 21.144531 16.195312 20.667969 17.117188 20.050781 17.949219 Z M 7.476562 5.375 L 6.050781 3.949219 C 6.882812 3.332031 7.804688 2.855469 8.8125 2.511719 C 9.820312 2.171875 10.882812 2 12 2 C 13.132812 2 14.199219 2.171875 15.199219 2.511719 C 16.199219 2.855469 17.117188 3.332031 17.949219 3.949219 L 16.523438 5.375 C 15.890625 4.941406 15.191406 4.605469 14.425781 4.363281 C 13.660156 4.121094 12.851562 4 12 4 C 11.148438 4 10.339844 4.121094 9.574219 4.363281 C 8.808594 4.605469 8.109375 4.941406 7.476562 5.375 Z M 12 17 C 10.617188 17 9.4375 16.511719 8.460938 15.539062 C 7.488281 14.5625 7 13.382812 7 12 C 7 10.617188 7.488281 9.4375 8.460938 8.460938 C 9.4375 7.488281 10.617188 7 12 7 C 13.382812 7 14.5625 7.488281 15.539062 8.460938 C 16.511719 9.4375 17 10.617188 17 12 C 17 13.382812 16.511719 14.5625 15.539062 15.539062 C 14.5625 16.511719 13.382812 17 12 17 Z M 12 17 "/>
</g>
</svg>
