<?xml version="1.0" encoding="UTF-8"?>
<svg xmlns="http://www.w3.org/2000/svg" xmlns:xlink="http://www.w3.org/1999/xlink" width="24px" height="24px" viewBox="0 0 24 24" version="1.1">
<g id="surface1">
<path style=" stroke:none;fill-rule:nonzero;fill:rgb(0%,0%,0%);fill-opacity:1;" d="M 3 20 C 2.449219 20 1.980469 19.804688 1.585938 19.414062 C 1.195312 19.019531 1 18.550781 1 18 L 1 6 C 1 5.449219 1.195312 4.980469 1.585938 4.585938 C 1.980469 4.195312 2.449219 4 3 4 L 21 4 C 21.550781 4 22.019531 4.195312 22.414062 4.585938 C 22.804688 4.980469 23 5.449219 23 6 L 23 18 C 23 18.550781 22.804688 19.019531 22.414062 19.414062 C 22.019531 19.804688 21.550781 20 21 20 Z M 4 6 L 3 6 L 3 18 L 4 18 Z M 6 18 L 18 18 L 18 6 L 6 6 Z M 20 6 L 20 18 L 21 18 L 21 6 Z M 20 6 L 21 6 Z M 4 6 L 3 6 Z M 13 17 L 17 17 L 17 13 L 15.5 13 L 15.5 15.5 L 13 15.5 Z M 7 11 L 8.5 11 L 8.5 8.5 L 11 8.5 L 11 7 L 7 7 Z M 7 11 "/>
</g>
</svg>
