<?xml version="1.0" encoding="UTF-8"?>
<svg xmlns="http://www.w3.org/2000/svg" xmlns:xlink="http://www.w3.org/1999/xlink" width="24px" height="24px" viewBox="0 0 24 24" version="1.1">
<g id="surface1">
<path style=" stroke:none;fill-rule:nonzero;fill:rgb(0%,0%,0%);fill-opacity:1;" d="M 5 21 C 4.449219 21 3.980469 20.804688 3.585938 20.414062 C 3.195312 20.019531 3 19.550781 3 19 L 5 19 Z M 3 17 L 3 15 L 5 15 L 5 17 Z M 3 13 L 3 11 L 5 11 L 5 13 Z M 3 9 L 3 7 L 5 7 L 5 9 Z M 3 5 C 3 4.449219 3.195312 3.980469 3.585938 3.585938 C 3.980469 3.195312 4.449219 3 5 3 L 5 5 Z M 7 21 L 7 19 L 9 19 L 9 21 Z M 7 5 L 7 3 L 9 3 L 9 5 Z M 11 21 L 11 19 L 13 19 L 13 21 Z M 11 5 L 11 3 L 13 3 L 13 5 Z M 15 21 L 15 19 L 17 19 L 17 21 Z M 15 5 L 15 3 L 17 3 L 17 5 Z M 19 21 L 19 19 L 21 19 C 21 19.550781 20.804688 20.019531 20.414062 20.414062 C 20.019531 20.804688 19.550781 21 19 21 Z M 19 17 L 19 15 L 21 15 L 21 17 Z M 19 13 L 19 11 L 21 11 L 21 13 Z M 19 9 L 19 7 L 21 7 L 21 9 Z M 19 5 L 19 3 C 19.550781 3 20.019531 3.195312 20.414062 3.585938 C 20.804688 3.980469 21 4.449219 21 5 Z M 19 5 "/>
</g>
</svg>
