<?xml version="1.0" encoding="UTF-8"?>
<svg xmlns="http://www.w3.org/2000/svg" xmlns:xlink="http://www.w3.org/1999/xlink" width="24px" height="24px" viewBox="0 0 24 24" version="1.1">
<g id="surface1">
<path style=" stroke:none;fill-rule:nonzero;fill:rgb(0%,0%,0%);fill-opacity:1;" d="M 7.449219 12.601562 L 11.023438 10 L 7.449219 7.398438 L 6.550781 8.601562 L 8.476562 10 L 6.550781 11.398438 Z M 16.550781 12.601562 L 17.449219 11.398438 L 15.523438 10 L 17.449219 8.601562 L 16.550781 7.398438 L 12.976562 10 Z M 10.5 17.050781 L 12 15.550781 L 13.5 17.050781 L 15 15.550781 L 15.976562 16.523438 L 17.023438 15.476562 L 15 13.449219 L 13.5 14.949219 L 12 13.449219 L 10.5 14.949219 L 9 13.449219 L 6.976562 15.476562 L 8.023438 16.523438 L 9 15.550781 Z M 12 22 C 10.617188 22 9.316406 21.738281 8.101562 21.210938 C 6.882812 20.6875 5.824219 19.976562 4.925781 19.074219 C 4.023438 18.175781 3.3125 17.117188 2.789062 15.898438 C 2.261719 14.683594 2 13.382812 2 12 C 2 10.617188 2.261719 9.316406 2.789062 8.101562 C 3.3125 6.882812 4.023438 5.824219 4.925781 4.925781 C 5.824219 4.023438 6.882812 3.3125 8.101562 2.789062 C 9.316406 2.261719 10.617188 2 12 2 C 13.382812 2 14.683594 2.261719 15.898438 2.789062 C 17.117188 3.3125 18.175781 4.023438 19.074219 4.925781 C 19.976562 5.824219 20.6875 6.882812 21.210938 8.101562 C 21.738281 9.316406 22 10.617188 22 12 C 22 13.382812 21.738281 14.683594 21.210938 15.898438 C 20.6875 17.117188 19.976562 18.175781 19.074219 19.074219 C 18.175781 19.976562 17.117188 20.6875 15.898438 21.210938 C 14.683594 21.738281 13.382812 22 12 22 Z M 12 12 Z M 12 20 C 14.234375 20 16.125 19.226562 17.675781 17.675781 C 19.226562 16.125 20 14.234375 20 12 C 20 9.765625 19.226562 7.875 17.675781 6.324219 C 16.125 4.773438 14.234375 4 12 4 C 9.765625 4 7.875 4.773438 6.324219 6.324219 C 4.773438 7.875 4 9.765625 4 12 C 4 14.234375 4.773438 16.125 6.324219 17.675781 C 7.875 19.226562 9.765625 20 12 20 Z M 12 20 "/>
</g>
</svg>
