<?xml version="1.0" encoding="UTF-8"?>
<svg xmlns="http://www.w3.org/2000/svg" xmlns:xlink="http://www.w3.org/1999/xlink" width="24px" height="24px" viewBox="0 0 24 24" version="1.1">
<g id="surface1">
<path style=" stroke:none;fill-rule:nonzero;fill:rgb(0%,0%,0%);fill-opacity:1;" d="M 16.199219 21.898438 C 15.132812 21.734375 14.222656 21.265625 13.460938 20.5 C 12.703125 19.734375 12.242188 18.816406 12.074219 17.75 L 13.550781 17.75 C 13.699219 18.417969 14.011719 18.988281 14.488281 19.460938 C 14.960938 19.9375 15.535156 20.25 16.199219 20.398438 Z M 17.699219 21.925781 L 17.699219 20.398438 C 18.5 20.214844 19.160156 19.816406 19.675781 19.199219 C 20.191406 18.582031 20.449219 17.851562 20.449219 17 C 20.449219 16.148438 20.191406 15.417969 19.675781 14.800781 C 19.160156 14.183594 18.5 13.785156 17.699219 13.601562 L 17.699219 12.074219 C 18.898438 12.257812 19.910156 12.8125 20.726562 13.738281 C 21.542969 14.664062 21.949219 15.75 21.949219 17 C 21.949219 18.25 21.542969 19.335938 20.726562 20.261719 C 19.910156 21.1875 18.898438 21.742188 17.699219 21.925781 Z M 12.074219 16.25 C 12.242188 15.183594 12.703125 14.265625 13.460938 13.5 C 14.222656 12.734375 15.132812 12.265625 16.199219 12.101562 L 16.199219 13.601562 C 15.535156 13.75 14.960938 14.0625 14.488281 14.539062 C 14.011719 15.011719 13.699219 15.582031 13.550781 16.25 Z M 15.949219 19 L 15.949219 15 L 19.050781 17 Z M 12 12 Z M 9.25 22 L 8.851562 18.800781 C 8.632812 18.714844 8.429688 18.617188 8.238281 18.5 C 8.046875 18.382812 7.859375 18.257812 7.675781 18.125 L 4.699219 19.375 L 1.949219 14.625 L 4.523438 12.675781 C 4.507812 12.558594 4.5 12.445312 4.5 12.335938 L 4.5 11.664062 C 4.5 11.554688 4.507812 11.441406 4.523438 11.324219 L 1.949219 9.375 L 4.699219 4.625 L 7.675781 5.875 C 7.859375 5.742188 8.050781 5.617188 8.25 5.5 C 8.449219 5.382812 8.648438 5.285156 8.851562 5.199219 L 9.25 2 L 14.75 2 L 15.148438 5.199219 C 15.367188 5.285156 15.570312 5.382812 15.761719 5.5 C 15.953125 5.617188 16.140625 5.742188 16.324219 5.875 L 19.300781 4.625 L 22.050781 9.375 L 20.199219 10.773438 C 19.832031 10.589844 19.457031 10.4375 19.074219 10.3125 C 18.691406 10.1875 18.285156 10.101562 17.851562 10.050781 L 19.425781 8.851562 L 18.449219 7.148438 L 15.976562 8.199219 C 15.609375 7.816406 15.203125 7.496094 14.761719 7.238281 C 14.320312 6.980469 13.839844 6.785156 13.324219 6.648438 L 13 4 L 11.023438 4 L 10.675781 6.648438 C 10.160156 6.785156 9.679688 6.980469 9.238281 7.238281 C 8.796875 7.496094 8.390625 7.808594 8.023438 8.175781 L 5.550781 7.148438 L 4.574219 8.851562 L 6.726562 10.449219 C 6.640625 10.699219 6.582031 10.949219 6.550781 11.199219 C 6.515625 11.449219 6.5 11.714844 6.5 12 C 6.5 12.265625 6.515625 12.523438 6.550781 12.773438 C 6.582031 13.023438 6.640625 13.273438 6.726562 13.523438 L 4.574219 15.148438 L 5.550781 16.851562 L 8.023438 15.800781 C 8.308594 16.082031 8.613281 16.335938 8.9375 16.5625 C 9.261719 16.789062 9.617188 16.976562 10 17.125 C 10.015625 18.074219 10.210938 18.964844 10.585938 19.800781 C 10.960938 20.632812 11.464844 21.367188 12.101562 22 Z M 10.273438 15.023438 C 10.375 14.691406 10.496094 14.371094 10.636719 14.0625 C 10.777344 13.753906 10.941406 13.457031 11.125 13.175781 C 10.941406 13.042969 10.800781 12.871094 10.699219 12.664062 C 10.601562 12.453125 10.550781 12.234375 10.550781 12 C 10.550781 11.582031 10.695312 11.230469 10.988281 10.9375 C 11.277344 10.644531 11.632812 10.5 12.050781 10.5 C 12.285156 10.5 12.507812 10.554688 12.726562 10.664062 C 12.941406 10.769531 13.117188 10.917969 13.25 11.101562 C 13.535156 10.917969 13.824219 10.753906 14.125 10.613281 C 14.425781 10.472656 14.742188 10.359375 15.074219 10.273438 C 14.773438 9.742188 14.359375 9.3125 13.824219 8.988281 C 13.292969 8.664062 12.699219 8.5 12.050781 8.5 C 11.066406 8.5 10.238281 8.839844 9.5625 9.523438 C 8.886719 10.207031 8.550781 11.035156 8.550781 12 C 8.550781 12.632812 8.703125 13.222656 9.011719 13.761719 C 9.320312 14.304688 9.742188 14.726562 10.273438 15.023438 Z M 10.273438 15.023438 "/>
</g>
</svg>
