<?xml version="1.0" encoding="UTF-8"?>
<svg xmlns="http://www.w3.org/2000/svg" xmlns:xlink="http://www.w3.org/1999/xlink" width="24px" height="24px" viewBox="0 0 24 24" version="1.1">
<g id="surface1">
<path style=" stroke:none;fill-rule:nonzero;fill:rgb(0%,0%,0%);fill-opacity:1;" d="M 4 22 C 3.449219 22 2.980469 21.804688 2.585938 21.414062 C 2.195312 21.019531 2 20.550781 2 20 L 2 8 C 2 7.449219 2.195312 6.980469 2.585938 6.585938 C 2.980469 6.195312 3.449219 6 4 6 L 6 6 L 6 4 C 6 3.449219 6.195312 2.980469 6.585938 2.585938 C 6.980469 2.195312 7.449219 2 8 2 L 20 2 C 20.550781 2 21.019531 2.195312 21.414062 2.585938 C 21.804688 2.980469 22 3.449219 22 4 L 22 16 C 22 16.550781 21.804688 17.019531 21.414062 17.414062 C 21.019531 17.804688 20.550781 18 20 18 L 18 18 L 18 20 C 18 20.550781 17.804688 21.019531 17.414062 21.414062 C 17.019531 21.804688 16.550781 22 16 22 Z M 8 16 L 20 16 L 20 4 L 8 4 Z M 10 11 L 10 9 L 18 9 L 18 11 Z M 10 11 "/>
</g>
</svg>
