<?xml version="1.0" encoding="UTF-8"?>
<svg xmlns="http://www.w3.org/2000/svg" xmlns:xlink="http://www.w3.org/1999/xlink" width="24px" height="24px" viewBox="0 0 24 24" version="1.1">
<g id="surface1">
<path style=" stroke:none;fill-rule:nonzero;fill:rgb(0%,0%,0%);fill-opacity:1;" d="M 12 12 Z M 12 22 C 9.683594 21.417969 7.769531 20.085938 6.261719 18.011719 C 4.753906 15.9375 4 13.632812 4 11.101562 L 4 5 L 12 2 L 20 5 L 20 11.101562 C 20 11.265625 19.996094 11.433594 19.988281 11.601562 C 19.980469 11.765625 19.964844 11.933594 19.949219 12.101562 C 19.800781 12.066406 19.644531 12.042969 19.488281 12.023438 C 19.328125 12.007812 19.167969 12 19 12 C 18.816406 12 18.640625 12.007812 18.476562 12.023438 C 18.308594 12.042969 18.132812 12.066406 17.949219 12.101562 C 17.964844 11.933594 17.980469 11.769531 17.988281 11.613281 C 17.996094 11.453125 18 11.285156 18 11.101562 L 18 6.375 L 12 4.125 L 6 6.375 L 6 11.101562 C 6 13.117188 6.566406 14.949219 7.699219 16.601562 C 8.832031 18.25 10.265625 19.351562 12 19.898438 C 12.351562 19.785156 12.691406 19.640625 13.023438 19.476562 C 13.359375 19.308594 13.683594 19.117188 14 18.898438 L 14 21.25 C 13.683594 21.417969 13.359375 21.5625 13.023438 21.6875 C 12.691406 21.8125 12.351562 21.917969 12 22 Z M 16.851562 22 C 16.617188 22 16.417969 21.917969 16.25 21.75 C 16.082031 21.582031 16 21.382812 16 21.148438 L 16 17.851562 C 16 17.617188 16.082031 17.417969 16.25 17.25 C 16.417969 17.082031 16.617188 17 16.851562 17 L 17 17 L 17 16 C 17 15.449219 17.195312 14.980469 17.585938 14.585938 C 17.980469 14.195312 18.449219 14 19 14 C 19.550781 14 20.019531 14.195312 20.414062 14.585938 C 20.804688 14.980469 21 15.449219 21 16 L 21 17 L 21.148438 17 C 21.382812 17 21.582031 17.082031 21.75 17.25 C 21.917969 17.417969 22 17.617188 22 17.851562 L 22 21.148438 C 22 21.382812 21.917969 21.582031 21.75 21.75 C 21.582031 21.917969 21.382812 22 21.148438 22 Z M 18 17 L 20 17 L 20 16 C 20 15.714844 19.902344 15.480469 19.710938 15.289062 C 19.519531 15.097656 19.285156 15 19 15 C 18.714844 15 18.480469 15.097656 18.289062 15.289062 C 18.097656 15.480469 18 15.714844 18 16 Z M 18 17 "/>
</g>
</svg>
