<?xml version="1.0" encoding="UTF-8"?>
<svg xmlns="http://www.w3.org/2000/svg" xmlns:xlink="http://www.w3.org/1999/xlink" width="24px" height="24px" viewBox="0 0 24 24" version="1.1">
<g id="surface1">
<path style=" stroke:none;fill-rule:nonzero;fill:rgb(0%,0%,0%);fill-opacity:1;" d="M 12 13 Z M 13.75 12 L 15.125 14.398438 C 14.992188 14.515625 14.867188 14.632812 14.75 14.75 C 14.632812 14.867188 14.515625 14.992188 14.398438 15.125 L 13.75 14 L 10.398438 19.800781 C 10.851562 19.917969 11.296875 19.984375 11.738281 20 C 12.179688 20.015625 12.617188 19.992188 13.050781 19.925781 C 13.101562 20.257812 13.179688 20.589844 13.289062 20.925781 C 13.394531 21.257812 13.535156 21.566406 13.699219 21.851562 C 13.417969 21.898438 13.132812 21.9375 12.851562 21.960938 C 12.566406 21.988281 12.285156 22 12 22 C 10.75 22 9.578125 21.761719 8.488281 21.289062 C 7.394531 20.8125 6.441406 20.167969 5.625 19.351562 C 4.808594 18.535156 4.167969 17.578125 3.699219 16.488281 C 3.234375 15.394531 3 14.234375 3 13 C 3 11.765625 3.238281 10.605469 3.710938 9.511719 C 4.1875 8.421875 4.832031 7.464844 5.648438 6.648438 C 6.464844 5.832031 7.421875 5.1875 8.511719 4.710938 C 9.605469 4.238281 10.765625 4 12 4 C 13.050781 4 14.050781 4.175781 15 4.523438 C 15.949219 4.875 16.816406 5.367188 17.601562 6 L 19.050781 4.550781 L 20.449219 5.949219 L 19.050781 7.398438 C 19.683594 8.214844 20.175781 9.128906 20.523438 10.136719 C 20.875 11.144531 21.035156 12.207031 21 13.324219 C 20.667969 13.226562 20.332031 13.140625 20 13.074219 C 19.667969 13.007812 19.332031 12.976562 19 12.976562 C 19 12.808594 18.992188 12.644531 18.976562 12.488281 C 18.957031 12.328125 18.933594 12.167969 18.898438 12 Z M 18 23 L 18 20 L 15 20 L 15 18 L 18 18 L 18 15 L 20 15 L 20 18 L 23 18 L 23 20 L 20 20 L 20 23 Z M 9 3 L 9 1 L 15 1 L 15 3 Z M 12 11 L 18.699219 11 C 18.398438 9.964844 17.886719 9.058594 17.164062 8.273438 C 16.4375 7.492188 15.582031 6.898438 14.601562 6.5 Z M 10.25 12 L 13.601562 6.199219 C 12.617188 5.949219 11.605469 5.929688 10.5625 6.136719 C 9.519531 6.347656 8.550781 6.800781 7.648438 7.5 Z M 5.101562 14 L 10.25 14 L 6.898438 8.199219 C 6.199219 8.984375 5.679688 9.871094 5.335938 10.863281 C 4.996094 11.855469 4.917969 12.898438 5.101562 14 Z M 9.398438 19.5 L 12 15 L 5.300781 15 C 5.601562 16.035156 6.113281 16.941406 6.835938 17.726562 C 7.5625 18.507812 8.417969 19.101562 9.398438 19.5 Z M 9.398438 19.5 "/>
</g>
</svg>
