<?xml version="1.0" encoding="UTF-8"?>
<svg xmlns="http://www.w3.org/2000/svg" xmlns:xlink="http://www.w3.org/1999/xlink" width="24px" height="24px" viewBox="0 0 24 24" version="1.1">
<g id="surface1">
<path style=" stroke:none;fill-rule:nonzero;fill:rgb(0%,0%,0%);fill-opacity:1;" d="M 12 20 C 11.714844 20 11.480469 19.902344 11.289062 19.710938 C 11.097656 19.519531 11 19.285156 11 19 L 11 15 C 11 14.714844 11.097656 14.480469 11.289062 14.289062 C 11.480469 14.097656 11.714844 14 12 14 L 14.5 14 C 14.785156 14 15.019531 14.097656 15.210938 14.289062 C 15.402344 14.480469 15.5 14.714844 15.5 15 L 15.5 19 C 15.5 19.285156 15.402344 19.519531 15.210938 19.710938 C 15.019531 19.902344 14.785156 20 14.5 20 Z M 12.5 18.5 L 14 18.5 L 14 15.5 L 12.5 15.5 Z M 17 22 L 17 19.25 C 17 18.964844 17.097656 18.730469 17.289062 18.539062 C 17.480469 18.347656 17.714844 18.25 18 18.25 L 20 18.25 L 20 17.5 L 17 17.5 L 17 16 L 20.5 16 C 20.785156 16 21.019531 16.097656 21.210938 16.289062 C 21.402344 16.480469 21.5 16.714844 21.5 17 L 21.5 18.75 C 21.5 19.035156 21.402344 19.269531 21.210938 19.460938 C 21.019531 19.652344 20.785156 19.75 20.5 19.75 L 18.5 19.75 L 18.5 20.5 L 21.5 20.5 L 21.5 22 Z M 9 21.949219 C 6.949219 21.714844 5.269531 20.835938 3.960938 19.3125 C 2.652344 17.789062 2 15.949219 2 13.800781 C 2 12.132812 2.664062 10.320312 3.988281 8.363281 C 5.3125 6.402344 7.316406 4.285156 10 2 C 12.199219 3.867188 13.945312 5.632812 15.238281 7.300781 C 16.527344 8.964844 17.367188 10.535156 17.75 12 L 15.675781 12 C 15.308594 10.949219 14.648438 9.808594 13.699219 8.574219 C 12.75 7.339844 11.515625 6.035156 10 4.648438 C 8.015625 6.464844 6.519531 8.140625 5.511719 9.675781 C 4.503906 11.207031 4 12.582031 4 13.800781 C 4 15.398438 4.460938 16.761719 5.386719 17.886719 C 6.3125 19.011719 7.515625 19.691406 9 19.925781 Z M 9.851562 13.800781 Z M 9.851562 13.800781 "/>
</g>
</svg>
