<?xml version="1.0" encoding="UTF-8"?>
<svg xmlns="http://www.w3.org/2000/svg" xmlns:xlink="http://www.w3.org/1999/xlink" width="24px" height="24px" viewBox="0 0 24 24" version="1.1">
<g id="surface1">
<path style=" stroke:none;fill-rule:nonzero;fill:rgb(0%,0%,0%);fill-opacity:1;" d="M 8 18 C 7.449219 18 6.980469 17.804688 6.585938 17.414062 C 6.195312 17.019531 6 16.550781 6 16 L 6 4 C 6 3.449219 6.195312 2.980469 6.585938 2.585938 C 6.980469 2.195312 7.449219 2 8 2 L 20 2 C 20.550781 2 21.019531 2.195312 21.414062 2.585938 C 21.804688 2.980469 22 3.449219 22 4 L 22 16 C 22 16.550781 21.804688 17.019531 21.414062 17.414062 C 21.019531 17.804688 20.550781 18 20 18 Z M 8 16 L 20 16 L 20 8 L 13 8 L 13 4 L 8 4 Z M 4 22 C 3.449219 22 2.980469 21.804688 2.585938 21.414062 C 2.195312 21.019531 2 20.550781 2 20 L 2 6 L 4 6 L 4 20 L 18 20 L 18 22 Z M 8 4 L 8 16 Z M 8 4 "/>
</g>
</svg>
