<?xml version="1.0" encoding="UTF-8"?>
<svg xmlns="http://www.w3.org/2000/svg" xmlns:xlink="http://www.w3.org/1999/xlink" width="24px" height="24px" viewBox="0 0 24 24" version="1.1">
<g id="surface1">
<path style=" stroke:none;fill-rule:nonzero;fill:rgb(0%,0%,0%);fill-opacity:1;" d="M 11 5 L 11 3 L 13 3 L 13 5 Z M 11 21 L 11 19 L 13 19 L 13 21 Z M 7 5 L 7 3 L 9 3 L 9 5 Z M 7 21 L 7 19 L 9 19 L 9 21 Z M 3 5 L 3 3 L 5 3 L 5 5 Z M 3 21 L 3 19 L 5 19 L 5 21 Z M 7 16 L 3 12 L 7 8 L 8.398438 9.398438 L 6.824219 11 L 13 11 L 13 13 L 6.824219 13 L 8.398438 14.601562 Z M 17 19 L 19 19 L 19 5 L 17 5 Z M 15 21 L 15 3 L 21 3 L 21 21 Z M 17 19 L 19 19 Z M 17 19 "/>
</g>
</svg>
