<svg xmlns="http://www.w3.org/2000/svg" width="24" height="24" viewBox="0 0 24 24"><path d="M19 17v-2h2v2h-2Zm0-4v-2h3v2h-3Zm0-4V6.975h4V9h-4ZM7 22l-1.35-4.55q-1.2-.95-1.925-2.375T3 12q0-1.65.725-3.075T5.65 6.55L7 2h6l1.35 4.55q1.2.95 1.925 2.375T17 12q0 1.65-.725 3.075T14.35 17.45L13 22H7Zm3-5q2.075 0 3.538-1.463T15 12q0-2.075-1.463-3.538T10 7Q7.925 7 6.462 8.463T5 12q0 2.075 1.463 3.538T10 17ZM8.1 5.25q.5-.125.963-.2T10 4.975q.475 0 .938.075t.962.2L11.5 4h-3l-.4 1.25ZM8.5 20h3l.4-1.25q-.5.125-.963.188T10 19q-.475 0-.938-.063T8.1 18.75L8.5 20ZM8.1 4h3.8h-3.8Zm.4 16h-.4h3.8h-3.4Z"/></svg>