<svg xmlns="http://www.w3.org/2000/svg" width="24" height="24" viewBox="0 0 24 24"><path fill="currentColor" d="M3 17h4.1q-.425-.425-.787-.925T5.675 15H3v2Zm9 0q2.075 0 3.538-1.463T17 12q0-2.075-1.463-3.538T12 7Q9.925 7 8.462 8.463T7 12q0 2.075 1.463 3.538T12 17Zm6.325-8H21V7h-4.1q.425.425.788.925T18.325 9ZM1 20v-8h2v1h2.075q-.05-.25-.063-.488T5 12q0-2.925 2.038-4.963T12 5h9V4h2v8h-2v-1h-2.075q.05.25.063.488T19 12q0 2.925-2.038 4.963T12 19H3v1H1Zm2-3v-2v2Zm18-8V7v2Zm-9 3Zm0 3q-.825 0-1.413-.588T10 13q0-.575.238-1.137t.912-1.613L12 9l.85 1.25q.675 1.05.913 1.613T14 13q0 .825-.588 1.413T12 15Z"/></svg>