<svg xmlns="http://www.w3.org/2000/svg" viewBox="0 0 24 24" width="24" height="24"><path fill="currentColor" d="M16.5 12.5v1q0 .2.15.35T17 14t.35-.15t.15-.35v-1h1q.2 0 .35-.15T19 12t-.15-.35t-.35-.15h-1v-1q0-.2-.15-.35T17 10t-.35.15t-.15.35v1h-1q-.2 0-.35.15T15 12t.15.35t.35.15zm-4.5.25l1.525 1.975q.05.075.575.275q.45 0 .65-.413t-.075-.762L13.25 12l1.425-1.85q.275-.35.075-.75T14.1 9q-.175 0-.325.075t-.25.2L12 11.25v-1.5q0-.325-.213-.538T11.25 9t-.537.213t-.213.537v4.5q0 .325.213.538t.537.212t.538-.213t.212-.537zM7.5 10.5v3.75q0 .325.213.538T8.25 15t.538-.213T9 14.25v-4.5q0-.325-.213-.537T8.25 9h-1.5q-.325 0-.537.213T6 9.75t.213.538t.537.212zM5 21q-.825 0-1.412-.587T3 19V5q0-.825.588-1.412T5 3h14q.825 0 1.413.588T21 5v14q0 .825-.587 1.413T19 21zm0-2h14V5H5zM5 5v14z"/></svg>