<svg xmlns="http://www.w3.org/2000/svg" viewBox="0 0 24 24" width="24" height="24"><path fill="currentColor" d="M15.5 15H13q-.2 0-.35-.15t-.15-.35v-5q0-.2.15-.35T13 9h2.5q.425 0 .713.288T16.5 10v4q0 .425-.288.713T15.5 15m-5 0H8.25q-.325 0-.537-.213T7.5 14.25t.213-.537t.537-.213H10v-1H9q-.2 0-.35-.15T8.5 12t.15-.35t.35-.15h1v-1H8.25q-.325 0-.537-.213T7.5 9.75t.213-.537T8.25 9h2.25q.425 0 .713.288T11.5 10v4q0 .425-.288.713T10.5 15m3.5-1.5h1v-3h-1zm7-.5q-.425 0-.712-.288T20 12q0-2.875-1.812-5.075T13.55 4.15l.75.75q.275.275.275.7t-.275.7t-.7.275t-.7-.275L9.675 3.075q-.2-.2-.125-.5t.375-.375q.5-.125 1.025-.162T12 2q2.075 0 3.9.788t3.175 2.137T21.213 8.1T22 12q0 .425-.288.713T21 13m-9 9q-2.075 0-3.9-.788t-3.175-2.137T2.788 15.9T2 12q0-.425.288-.712T3 11t.713.288T4 12q0 2.875 1.813 5.075t4.637 2.775l-.75-.75q-.275-.275-.275-.7t.275-.7t.7-.275t.7.275l3.225 3.225q.2.2.125.5t-.375.375q-.5.125-1.025.163T12 22"/></svg>