<svg xmlns="http://www.w3.org/2000/svg" viewBox="0 0 24 24" width="24" height="24"><path fill="currentColor" d="M5 16v-5q0-.425.288-.712T6 10t.713.288T7 11v5q0 .425-.288.713T6 17t-.712-.288T5 16m6 0v-5q0-.425.288-.712T12 10t.713.288T13 11v5q0 .425-.288.713T12 17t-.712-.288T11 16m-8 5q-.425 0-.712-.288T2 20t.288-.712T3 19h18q.425 0 .713.288T22 20t-.288.713T21 21zm14-5v-5q0-.425.288-.712T18 10t.713.288T19 11v5q0 .425-.288.713T18 17t-.712-.288T17 16m4-8H2.9q-.375 0-.638-.262T2 7.1v-.55q0-.275.138-.475T2.5 5.75l8.6-4.3q.425-.2.9-.2t.9.2l8.55 4.275q.275.125.413.375t.137.525V7q0 .425-.287.713T21 8M6.45 6h11.1zm0 0h11.1L12 3.25z"/></svg>