<svg xmlns="http://www.w3.org/2000/svg" viewBox="0 0 24 24" width="24" height="24"><path fill="currentColor" d="M19 14q-.425 0-.712-.288T18 13t.288-.712T19 12h1.925q-.1-.175-.225-.3t-.3-.225q-.65-.375-1.487-.55T17 10.75h-.525q-.425 0-.7-.275t-.275-.7t.237-.688t.663-.312q.125-.025.3-.025h.3q1.325 0 2.475.275t2.15.8q.65.35 1.013 1.038T23 12.425V13q0 .425-.288.713T22 14zm-2-6q-1.25 0-2.125-.875T14 5t.875-2.125T17 2t2.125.875T20 5t-.875 2.125T17 8m0-2q.425 0 .713-.288T18 5t-.288-.712T17 4t-.712.288T16 5t.288.713T17 6M2 14q-.425 0-.712-.288T1 13v-.575q0-.875.363-1.562t1.012-1.038q1-.525 2.15-.8T7 8.75h.3q.175 0 .3.025q.425.05.663.313t.237.687t-.275.7t-.7.275H7q-1.075 0-1.913.175t-1.487.55q-.175.1-.3.225t-.225.3H5q.425 0 .713.288T6 13t-.288.713T5 14zm5-6q-1.25 0-2.125-.875T4 5t.875-2.125T7 2t2.125.875T10 5t-.875 2.125T7 8m0-2q.425 0 .713-.288T8 5t-.288-.712T7 4t-.712.288T6 5t.288.713T7 6m5 11q-.825 0-1.412-.587T10 15v-3q0-.825.588-1.412T12 10t1.413.588T14 12v3q0 .825-.587 1.413T12 17m0 5q-.325 0-.537-.213t-.213-.537v-1.3q-1.625-.25-2.787-1.4t-1.388-2.675q-.05-.35.175-.612T7.825 15q.275 0 .475.163t.25.437q.275 1.3 1.225 2.1t2.225.8t2.225-.8t1.225-2.1q.05-.275.25-.437t.475-.163q.35 0 .575.263t.175.612Q16.7 17.4 15.537 18.55t-2.787 1.4v1.3q0 .325-.213.538T12 22"/></svg>