<svg xmlns="http://www.w3.org/2000/svg" viewBox="0 0 24 24" width="24" height="24"><path fill="currentColor" d="M19.075 21.9L2.1 4.925q-.275-.275-.275-.687t.275-.713q.3-.3.713-.3t.712.3L20.475 20.5q.275.275.287.688t-.287.712q-.275.275-.7.275t-.7-.275M17 8q-1.25 0-2.125-.875T14 5t.875-2.125T17 2t2.125.875T20 5t-.875 2.125T17 8m0-2q.425 0 .713-.287T18 5t-.288-.712T17 4t-.712.288T16 5t.288.713T17 6M2 14q-.425 0-.712-.288T1 13v-.575q0-.875.363-1.562t1.012-1.038q1-.525 2.15-.8T7 8.75q.325 0 .638.013t.637.062v2q-.325-.05-.638-.062T7 10.75q-1.075 0-1.912.175t-1.488.55q-.175.1-.3.225t-.225.3H5q.425 0 .713.288T6 13t-.288.713T5 14zM9.125 2.875q.425.425.65.963T10 5q0 .25-.025.475t-.1.45q-.1.3-.413.35t-.562-.2L5.925 3.1q-.225-.225-.175-.537t.325-.438q.225-.075.45-.1T7 2q.625 0 1.163.225t.962.65M12 17q-.825 0-1.412-.587T10 15v-3q0-.425.15-.775t.425-.625L14 14.025V15q0 .825-.587 1.413T12 17m0 5q-.325 0-.537-.213t-.213-.537v-1.3q-1.625-.25-2.787-1.4t-1.388-2.675q-.05-.35.175-.612T7.825 15q.275 0 .475.163t.25.437q.275 1.3 1.225 2.1t2.225.8q1.325 0 2.313-.875t1.162-2.15l1.225 1.25q-.475 1.275-1.525 2.15T12.75 19.95v1.3q0 .325-.213.538T12 22m7-8q-.425 0-.712-.288T18 13t.288-.712T19 12h1.925q-.1-.175-.225-.3t-.3-.225q-.65-.375-1.487-.55T17 10.75h-.525q-.425 0-.7-.275t-.275-.7t.237-.688t.663-.312q.125-.025.3-.025h.3q1.325 0 2.475.275t2.15.8q.65.35 1.013 1.038T23 12.425V13q0 .425-.288.713T22 14z"/></svg>