<svg xmlns="http://www.w3.org/2000/svg" viewBox="0 0 24 24" width="24" height="24"><path fill="currentColor" d="M8 23q-.825 0-1.412-.587T6 21v-3q0-.425.288-.712T7 17t.713.288T8 18h10V6H8q0 .425-.288.713T7 7t-.712-.288T6 6V3q0-.825.588-1.412T8 1h10q.825 0 1.413.588T20 3v18q0 .825-.587 1.413T18 23zm0-3v1h10v-1zm2-8.6l-4.9 4.9q-.275.275-.7.275t-.7-.275t-.275-.7t.275-.7L8.6 10H6q-.425 0-.712-.288T5 9t.288-.712T6 8h5q.425 0 .713.288T12 9v5q0 .425-.288.713T11 15t-.712-.288T10 14zM8 4h10V3H8zm0 0V3zm0 16v1z"/></svg>