<svg xmlns="http://www.w3.org/2000/svg" viewBox="0 0 24 24" width="24" height="24"><path fill="currentColor" d="M5 19v-5h6v5v-5H5zM8 6.45q.3 0 .588.087t.562.288l4.9 3.5q.375.275.413.725t-.288.775q-.275.275-.638.3t-.662-.175L8 8.45L3 12v7h2v-3q0-.825.588-1.412T7 14h2q.825 0 1.413.588T11 16v4q0 .425-.288.713T10 21t-.712-.288T9 20v-4H7v3q0 .825-.587 1.413T5 21H3q-.825 0-1.412-.587T1 19v-6.975q0-.5.225-.925t.625-.7l5-3.575q.275-.2.563-.288T8 6.45M21 3q.825 0 1.413.588T23 5v5.675q0 .425-.288.713t-.712.287t-.712-.288t-.288-.712V5h-9v.5q0 .425-.288.713T11 6.5t-.712-.288T10 5.5v-.55q0-.8.575-1.375T11.95 3zm-3 20q-2.075 0-3.537-1.463T13 18t1.463-3.537T18 13t3.538 1.463T23 18t-1.463 3.538T18 23m-.5-4.5v2q0 .2.15.35T18 21t.35-.15t.15-.35v-2h2q.2 0 .35-.15T21 18t-.15-.35t-.35-.15h-2v-2q0-.2-.15-.35T18 15t-.35.15t-.15.35v2h-2q-.2 0-.35.15T15 18t.15.35t.35.15zm0-9.5h1q.2 0 .35-.15T19 8.5v-1q0-.2-.15-.35T18.5 7h-1q-.2 0-.35.15T17 7.5v1q0 .2.15.35t.35.15"/></svg>