<svg xmlns="http://www.w3.org/2000/svg" viewBox="0 0 24 24" width="24" height="24"><path fill="currentColor" d="M4 9q-.425 0-.713-.288T3 8q0-.425.288-.713T4 7h3q.825 0 1.413.588T9 9H4Zm2 9q1.25 0 2.125-.875T9 15q0-1.25-.875-2.125T6 12q-1.25 0-2.125.875T3 15q0 1.25.875 2.125T6 18Zm13.5 0q.625 0 1.063-.438T21 16.5q0-.625-.438-1.063T19.5 15q-.625 0-1.063.438T18 16.5q0 .625.438 1.063T19.5 18ZM6 16.5q-.625 0-1.063-.438T4.5 15q0-.625.438-1.063T6 13.5q.625 0 1.063.438T7.5 15q0 .625-.438 1.063T6 16.5Zm14-3.475q.65.125 1.075.338t.925.687V8q0-.825-.588-1.413T20 6h-6.3l-1.05-1.1l1.05-1.05q.15-.15.15-.35t-.15-.35Q13.55 3 13.35 3t-.35.15l-2.825 2.825q-.15.15-.15.363t.175.362q.15.15.35.15t.35-.15l1.05-1.05L13 6.7V9q0 .825-.587 1.413T11 11H8.975q.575.425.925.875T10.6 13h.4q1.65 0 2.825-1.175T15 9V8h5v5.025ZM16.025 16q.15-.675.363-1.088T17.05 14H10.9q.1.575.1 1t-.1 1h5.125Zm3.475 4q-1.45 0-2.475-1.025T16 16.5q0-1.45 1.025-2.475T19.5 13q1.45 0 2.475 1.025T23 16.5q0 1.45-1.025 2.475T19.5 20ZM6 20q-2.075 0-3.537-1.463T1 15q0-2.075 1.463-3.538T6 10q2.075 0 3.538 1.463T11 15q0 2.075-1.463 3.538T6 20Zm9.825-9Z"/></svg>