<svg xmlns="http://www.w3.org/2000/svg" viewBox="0 0 24 24" width="24" height="24"><path fill="currentColor" d="m9.4 11.775l1.375-3.75Q11.05 7.25 11.8 6.9t1.525-.075l6.575 2.4q1.575.575 2.275 2.063t.125 3.062l-.675 1.875q-.15.4-.525.575t-.775.025L10 13.075q-.4-.15-.575-.525t-.025-.775m3.25-3.05q-.2.5-.363.938t-.337.937l-.325.925zM19.3 19.65L2.375 13.5q-.4-.125-.562-.5t-.038-.775t.513-.575t.787-.025L20 17.775q.4.125.563.5t.037.775t-.513.575t-.787.025m-12.975-8.1q-1.25 0-2.125-.875T3.325 8.55T4.2 6.425t2.125-.875t2.125.875t.875 2.125t-.875 2.125t-2.125.875m0-2q.425 0 .712-.288t.288-.712t-.288-.712t-.712-.288t-.712.288t-.288.712t.288.713t.712.287m5.3 1.975l8.45 3.1l.35-.95q.275-.8-.062-1.55T19.225 11.1L12.65 8.725zm-5.3-2.95"/></svg>