<svg xmlns="http://www.w3.org/2000/svg" viewBox="0 0 24 24" width="24" height="24"><path fill="currentColor" d="M19.25 16.525q-.4-.125-.575-.487t-.05-.738q.2-.575.288-1.112T19 13.1q0-2.95-2.037-5.025T12 6q-.65 0-1.187.075t-1.013.25q-.35.125-.687-.062t-.463-.588t.075-.775t.625-.5q.625-.2 1.288-.3T12 4q1.9 0 3.538.713t2.85 1.95t1.912 2.9t.7 3.537q0 .65-.112 1.325T20.55 15.8q-.125.425-.513.638t-.787.087M17.7 4.45q-.275-.275-.275-.7t.275-.7t.7-.275t.7.275l2.85 2.85q.275.275.275.7t-.275.7t-.7.275t-.7-.275zM12 22q-1.85 0-3.488-.7T5.65 19.4t-1.937-2.825T3 13.1q0-1.55.463-2.912T4.8 7.7l-.85-.85l-.5.5q-.275.275-.7.275t-.7-.275t-.275-.7t.275-.7l.5-.5L1.4 4.3q-.275-.275-.275-.7t.275-.7t.7-.275t.7.275l18.4 18.4q.275.275.275.7t-.275.7t-.7.275t-.7-.275l-2.45-2.45q-1.125.825-2.487 1.288T12 22m0-1.975q1.05 0 2.05-.325t1.85-.9L6.2 9.15q-.575.875-.887 1.888T5 13.1q0 2.9 2.05 4.913T12 20.025m1.9-8.9"/></svg>