<svg xmlns="http://www.w3.org/2000/svg" viewBox="0 0 24 24" width="24" height="24"><path fill="currentColor" d="M7 21H5q-.825 0-1.412-.587T3 19v-2q0-.425.288-.712T4 16t.713.288T5 17v2h2q.425 0 .713.288T8 20t-.288.713T7 21m12 0h-2q-.425 0-.712-.288T16 20t.288-.712T17 19h2v-2q0-.425.288-.712T20 16t.713.288T21 17v2q0 .825-.587 1.413T19 21m-7-2q-2.9 0-4.95-2.05T5 12t2.05-4.95T12 5t4.95 2.05T19 12t-2.05 4.95T12 19m0-2q2.075 0 3.538-1.463T17 12t-1.463-3.537T12 7T8.463 8.463T7 12t1.463 3.538T12 17M3 5q0-.825.588-1.412T5 3h2q.425 0 .713.288T8 4t-.288.713T7 5H5v2q0 .425-.288.713T4 8t-.712-.288T3 7zm17 3q-.425 0-.712-.288T19 7V5h-2q-.425 0-.712-.288T16 4t.288-.712T17 3h2q.825 0 1.413.588T21 5v2q0 .425-.288.713T20 8m-8 4"/></svg>