<svg xmlns="http://www.w3.org/2000/svg" viewBox="0 0 24 24" width="24" height="24"><path fill="currentColor" d="M3.2 5.6q-.375-.5-.1-1.05T4 4h11q.475 0 .9.213t.7.587l4.075 5.425q.375.5.1 1.05t-.9.55q-.25 0-.45-.1t-.35-.3L15 6H6l3.6 4.8q.4.525.4 1.2t-.4 1.2L6 18h4.4q.375 0 .65.238t.325.612q.075.45-.238.8t-.762.35H4q-.625 0-.9-.55t.1-1.05L8 12zm14.075 12.525l-.45-.45q-.225-.225-.525-.213t-.525.238t-.225.525t.225.525l.8.8q.3.3.7.3t.7-.3l2.25-2.225q.225-.225.225-.525t-.225-.525t-.525-.212t-.525.212zM18 23q-2.075 0-3.537-1.463T13 18t1.463-3.537T18 13t3.538 1.463T23 18t-1.463 3.538T18 23"/></svg>