<svg xmlns="http://www.w3.org/2000/svg" viewBox="0 0 24 24" width="24" height="24"><path fill="currentColor" d="M11 3V1q0-.425.288-.712T12 0t.713.288T13 1v2q0 .425-.288.713T12 4t-.712-.288T11 3M5.875 4.7L4.3 3.125q-.3-.3-.3-.712t.3-.713t.7-.3t.7.3l1.6 1.6q.3.3.3.7t-.3.7t-.712.3t-.713-.3M3 14.35q0-.175.025-.35t.075-.325L5.1 8q.15-.45.538-.725T6.5 7H9V6q0-.425.288-.712T10 5h1.25q.35 0 .513.288t-.013.587q-.3.575-.488 1.213T11.026 8.4q-.025.25-.2.425T10.4 9H6.85l-1.475 4h7.65q.425 0 .713.288t.287.712t-.288.713t-.712.287H5v4h14v-2q0-.425.288-.712T20 16t.713.288T21 17v4.5q0 .625-.437 1.063T19.5 23t-1.062-.437T18 21.5V21H6v.5q0 .625-.437 1.063T4.5 23t-1.062-.437T3 21.5zM9 18q.425 0 .713-.288T10 17t-.288-.712T9 16H7q-.425 0-.712.288T6 17t.288.713T7 18zm6 0h2q.425 0 .713-.288T18 17t-.288-.712T17 16h-2q-.425 0-.712.288T14 17t.288.713T15 18M5 15v4zm12.275-5.875l-.45-.45q-.225-.225-.525-.213t-.525.238t-.225.525t.225.525l.8.8q.3.3.7.3t.7-.3l2.25-2.225q.225-.225.225-.525t-.225-.525t-.525-.212t-.525.212zM18 4q2.075 0 3.538 1.463T23 9t-1.463 3.538T18 14t-3.537-1.463T13 9t1.463-3.537T18 4"/></svg>