<svg xmlns="http://www.w3.org/2000/svg" viewBox="0 0 24 24" width="24" height="24"><path fill="currentColor" d="M4 22q-.825 0-1.412-.587T2 20V4q0-.825.588-1.412T4 2h7.175q.4 0 .763.15t.637.425l4.85 4.85q.275.275.425.638t.15.762V11q0 .425-.288.713T17 12t-.712-.288T16 11V9h-5V4H4v16h10q.425 0 .713.288T15 21t-.288.713T14 22zm0-2V4zm1-1q.1-1.225.75-2.25t1.7-1.625l-.95-1.7q0-.025.1-.375q.125-.05.238-.05t.162.125l.975 1.75q.5-.2 1-.312T10 14.45t1.025.113t1 .312l.975-1.75l.375-.1q.125.05.15.175t-.025.225l-.95 1.7q1.05.6 1.7 1.625T15 19zm2.75-1.5q.2 0 .35-.15t.15-.35t-.15-.35t-.35-.15t-.35.15t-.15.35t.15.35t.35.15m4.5 0q.2 0 .35-.15t.15-.35t-.15-.35t-.35-.15t-.35.15t-.15.35t.15.35t.35.15m6.75.65V15q0-.425.288-.712T20 14t.713.288T21 15v3.15l.9-.875q.3-.275.7-.275t.7.3q.275.3.287.7t-.287.7l-2.6 2.6q-.3.3-.7.3t-.7-.3l-2.6-2.6q-.275-.275-.288-.687t.288-.713q.275-.3.7-.3t.725.275z"/></svg>