<svg xmlns="http://www.w3.org/2000/svg" viewBox="0 0 24 24" width="24" height="24"><path fill="currentColor" d="M9 22v-2H5.675q-.5 0-.7-.45t.125-.8l6.15-6.9q.3-.35.75-.35t.75.35l6.15 6.9q.325.35.125.8t-.7.45H15v2q0 .425-.288.713T14 23h-4q-.425 0-.712-.288T9 22m2-1h2v-2q0-.425.288-.712T14 18h1.55L12 14l-3.55 4H10q.425 0 .713.288T11 19zm1-12l-5.025 5.675q-.15.15-.35.238t-.4.087q-.65 0-.912-.575t.162-1.075l5.775-6.5q.3-.35.75-.35t.75.35l5.775 6.5q.425.5.163 1.075t-.913.575q-.2 0-.4-.075t-.35-.25zm0-5L6.975 9.675q-.15.15-.35.238t-.4.087q-.65 0-.912-.575t.162-1.075l5.775-6.5q.3-.35.75-.35t.75.35l5.775 6.5q.425.5.163 1.075t-.913.575q-.2 0-.4-.075t-.35-.25zm0 14"/></svg>