<svg xmlns="http://www.w3.org/2000/svg" viewBox="0 0 24 24" width="24" height="24"><path fill="currentColor" d="M3 19q-.825 0-1.412-.587T1 17V7q0-.825.588-1.412T3 5h10q.825 0 1.413.588T15 7v10q0 .825-.587 1.413T13 19zm0-2h10V7H3zm4.5-3l-1-1.325q-.15-.2-.4-.187t-.4.212l-1.125 1.5q-.2.25-.038.525T5 15h6q.3 0 .45-.275t-.05-.525l-1.6-2.175q-.15-.2-.4-.2t-.4.2zM18 19q-.425 0-.712-.288T17 18V6q0-.425.288-.712T18 5t.713.288T19 6v12q0 .425-.288.713T18 19m4 0q-.425 0-.712-.288T21 18V6q0-.425.288-.712T22 5t.713.288T23 6v12q0 .425-.288.713T22 19M3 17V7z"/></svg>