<svg xmlns="http://www.w3.org/2000/svg" viewBox="0 0 24 24" width="24" height="24"><path fill="currentColor" d="M12 17q.425 0 .713-.288T13 16t-.288-.712T12 15t-.712.288T11 16t.288.713T12 17m0-4q.425 0 .713-.288T13 12V8q0-.425-.288-.712T12 7t-.712.288T11 8v4q0 .425.288.713T12 13m-7 8q-.825 0-1.412-.587T3 19V5q0-.825.588-1.412T5 3h4.2q.325-.9 1.088-1.45T12 1t1.713.55T14.8 3H19q.825 0 1.413.588T21 5v14q0 .825-.587 1.413T19 21zm0-2h14V5H5zm7-14.75q.325 0 .538-.213t.212-.537t-.213-.537T12 2.75t-.537.213t-.213.537t.213.538t.537.212M5 19V5z"/></svg>