<svg xmlns="http://www.w3.org/2000/svg" viewBox="0 0 24 24" width="24" height="24"><path fill="currentColor" d="m6.35 20.8l.825-1.85q-.35-.275-.675-.537t-.625-.563q-.2.075-.387.113T5.075 18q-.825 0-1.412-.587T3.075 16q0-.5.213-.913t.587-.687q-.2-.575-.275-1.162T3.525 12t.075-1.237t.275-1.163q-.375-.275-.587-.687T3.075 8q0-.825.588-1.412T5.075 6q.225 0 .413.038t.387.112q.825-.9 1.888-1.5t2.262-.9q.125-.75.688-1.25t1.312-.5t1.313.513t.687 1.237q1.2.3 2.263.888T18.175 6.1q.2-.075.375-.112t.375-.038q.825 0 1.413.588t.587 1.412q0 .5-.2.888t-.55.662q.2.6.275 1.225T20.525 12t-.075 1.263t-.275 1.187q.35.275.55.663t.2.887q0 .825-.587 1.412T18.925 18q-.2 0-.375-.038t-.375-.112q-.3.3-.612.587t-.688.563l.775 1.825q.2.425-.062.8t-.713.375q-.275 0-.475-.15t-.3-.375l-.725-1.675q-.35.15-.675.263t-.675.187q-.125.725-.688 1.238T12.025 22t-1.312-.5t-.688-1.25q-.375-.075-.712-.187t-.688-.263L7.9 21.5q-.1.225-.312.363T7.125 22q-.45 0-.712-.387T6.35 20.8m1.375-3.15l1.55-3.5q-.35-.45-.55-1t-.2-1.15q0-1.425 1.038-2.463T12.025 8.5t2.463 1.038T15.525 12q0 .6-.213 1.175t-.587 1.025l1.55 3.45q.225-.2.438-.362t.412-.388q-.125-.2-.162-.437T16.925 16q0-.8.55-1.375t1.35-.625q.15-.5.225-.987T19.125 12t-.075-1.037t-.225-1.013q-.8-.05-1.35-.625t-.55-1.375q0-.225.063-.437t.137-.413q-.725-.725-1.6-1.225t-1.85-.775q-.275.425-.7.663t-.95.237t-.95-.238t-.7-.662q-1.025.275-1.9.788t-1.6 1.262q.075.2.138.413T7.075 8q0 .8-.525 1.363T5.225 10q-.15.5-.225.988T4.925 12T5 13.013t.225.987q.8.05 1.325.625T7.075 16q0 .225-.037.438t-.163.412q.2.225.413.413t.437.387m1.5.85q.275.125.563.225t.587.175q.275-.425.7-.662t.95-.238t.95.238t.7.662q.3-.075.562-.175t.538-.225l-1.45-3.25q-.3.125-.625.188t-.675.062q-.375 0-.713-.075t-.637-.225zm2.8-5q.6 0 1.05-.425t.45-1.075q0-.6-.45-1.05t-1.05-.45q-.65 0-1.075.45T10.525 12q0 .65.425 1.075t1.075.425m0-1.5"/></svg>