<svg xmlns="http://www.w3.org/2000/svg" viewBox="0 0 24 24" width="24" height="24"><path fill="currentColor" d="M4 15h16V7H4zm1 4q-.425 0-.712-.288T4 18v-1q-.825 0-1.412-.587T2 15V7q0-.825.588-1.412T4 5h16q.825 0 1.413.588T22 7v8q0 .825-.587 1.413T20 17v1q0 .425-.288.713T19 19t-.712-.288T18 18v-1H6v1q0 .425-.288.713T5 19m-1-4V7zm12.5-2q.825 0 1.413-.587T18.5 11t-.587-1.412T16.5 9t-1.412.588T14.5 11t.588 1.413T16.5 13M7 13h5q.425 0 .713-.288T13 12v-2q0-.425-.288-.712T12 9H7q-.425 0-.712.288T6 10v2q0 .425.288.713T7 13"/></svg>