<svg xmlns="http://www.w3.org/2000/svg" viewBox="0 0 24 24" width="24" height="24"><path fill="currentColor" d="M8.65 20H6q-.825 0-1.412-.587T4 18v-2.65L2.075 13.4q-.275-.3-.425-.662T1.5 12t.15-.737t.425-.663L4 8.65V6q0-.825.588-1.412T6 4h2.65l1.95-1.925q.3-.275.663-.425T12 1.5t.738.15t.662.425L15.35 4H18q.825 0 1.413.588T20 6v2.65l1.925 1.95q.275.3.425.663t.15.737t-.15.738t-.425.662L20 15.35V18q0 .825-.587 1.413T18 20h-2.65l-1.95 1.925q-.3.275-.662.425T12 22.5t-.737-.15t-.663-.425zM6 18h2.5v-4q-.65-.15-1.075-.687T7 12.075V8.5q0-.2.15-.35T7.5 8t.35.15t.15.35v3.275h.75V8.5q0-.2.15-.35T9.25 8t.35.15t.15.35v3.275h.75V8.5q0-.2.15-.35T11 8t.35.15t.15.35v3.575q0 .7-.425 1.238T10 14v4.5l2 2l2-2v-3.7q-.65-.375-1.075-1.263T12.5 11.5q0-1.45.65-2.475T14.75 8q.925 0 1.588 1.025T17 11.5q0 1.175-.425 2.063T15.5 14.8V18H18v-3.5l2.5-2.5L18 9.5V6h-3.5L12 3.5L9.5 6H6v3.5L3.5 12L6 14.5zm6-6"/></svg>