<svg xmlns="http://www.w3.org/2000/svg" viewBox="0 0 24 24" width="24" height="24"><path fill="currentColor" d="M19.25 9.5q-.725 0-1.237-.525t-.513-1.25t.513-1.237t1.237-.513t1.238.513T21 7.725t-.513 1.25t-1.237.525m-14.5 0q-.725 0-1.237-.525T3 7.725t.513-1.237t1.237-.513t1.238.513t.512 1.237t-.513 1.25T4.75 9.5M9.075 8q-.3 0-.475-.237t-.15-.538q.05-.575-.125-1.075t-.575-.975q-.675-.8-.95-1.612T6.6 1.8q.05-.35.288-.575T7.475 1q.3 0 .5.238t.175.562q-.05.725.125 1.3t.6 1.1q.65.775.913 1.488T10 7.2q-.025.35-.3.575T9.075 8m3 0q-.3 0-.475-.238t-.15-.537q.05-.575-.125-1.075t-.575-.975q-.675-.8-.95-1.612T9.6 1.8q.05-.35.3-.575T10.5 1q.3 0 .488.25t.162.575q-.05.75.125 1.313t.6 1.062q.65.775.913 1.488T13 7.2q-.025.35-.3.575T12.075 8m3 0q-.3 0-.475-.238t-.15-.537q.05-.575-.125-1.075t-.575-.975q-.675-.8-.95-1.612T12.6 1.8q.05-.35.3-.575T13.5 1q.3 0 .488.25t.162.575q-.05.75.125 1.313t.6 1.062q.65.775.913 1.488T16 7.2q-.025.35-.3.575T15.075 8M4 22q-.825 0-1.412-.587T2 20v-6q0-.425.288-.712T3 13v-.625q0-.775.538-1.325t1.312-.55q.4 0 .763.188t.637.462l1.125 1.275q.15.15.313.3t.337.275h7.95q.2-.125.35-.275l.3-.3l1.125-1.275q.275-.275.638-.462t.762-.188q.775 0 1.313.55T21 12.375V13q.425 0 .713.288T22 14v6q0 .825-.587 1.413T20 22zm0-5h16v-2H4zm0 3h16v-1H4zm8-1v-2z"/></svg>