<svg xmlns="http://www.w3.org/2000/svg" viewBox="0 0 24 24" width="24" height="24"><path fill="currentColor" d="M6.975 6.1q-.525-.625-.737-1.275t-.213-1.6q0-.575.263-.9T7.025 2q.45 0 .713.325t.262.9q0 .55.175.975t.575.9q.55.65.775 1.313t.225 1.562q0 .475-.262.75T8.75 9q-.425 0-.687-.275t-.263-.75q0-.5-.175-.9t-.65-.975m4 0q-.525-.625-.737-1.275t-.213-1.6q0-.575.263-.9T11.025 2q.45 0 .713.325t.262.9q0 .55.175.975t.575.9q.55.65.775 1.313t.225 1.562q0 .475-.262.75T12.75 9q-.425 0-.687-.275t-.263-.75q0-.5-.175-.9t-.65-.975m4.05 0q-.525-.625-.738-1.275t-.212-1.6q0-.575.262-.9T15.075 2q.45 0 .713.325t.262.9q0 .55.175.975t.575.9q.55.65.775 1.313t.225 1.562q0 .475-.262.75T16.8 9q-.425 0-.687-.275t-.263-.75q0-.5-.175-.9t-.65-.975M10 18q-.425 0-.712-.288T9 17v-4q0-.825.588-1.412T11 11h7q1.65 0 2.825 1.175T22 15v2q0 .425-.288.713T21 18zm1-5v3zm10 8H3q-.425 0-.712-.288T2 20t.288-.712T3 19h18q.425 0 .713.288T22 20t-.288.713T21 21M5 18q-1.25 0-2.125-.875T2 15t.875-2.125T5 12t2.125.875T8 15t-.875 2.125T5 18m0-2q.425 0 .713-.288T6 15t-.288-.712T5 14t-.712.288T4 15t.288.713T5 16m6 0h9v-1q0-.825-.587-1.412T18 13h-7zm-6-1"/></svg>