<svg xmlns="http://www.w3.org/2000/svg" viewBox="0 0 24 24" width="24" height="24"><path fill="currentColor" d="m12.175 12.75l-.375.375q-.3.275-.3.688t.3.712t.713.3t.712-.3L15.3 12.45q.3-.3.3-.7t-.3-.7l-2.1-2.1q-.275-.275-.687-.287t-.713.287q-.275.275-.288.688t.263.712l.4.4H8q-.825 0-1.412.588T6 12.75v2q0 .425.288.713T7 15.75t.713-.288T8 14.75v-2zM4 16.75h14v-9.5H4zm0 2q-.825 0-1.412-.587T2 16.75v-9.5q0-.825.588-1.412T4 5.25h14q.825 0 1.413.588T20 7.25V9.5h.5q.625 0 1.063.438T22 11v2q0 .65-.437 1.075T20.5 14.5H20v2.25q0 .825-.587 1.413T18 18.75zm0-2v-9.5z"/></svg>