<svg xmlns="http://www.w3.org/2000/svg" viewBox="0 0 24 24" width="24" height="24"><path fill="currentColor" d="M10 13v1.5q0 .425.288.713T11 15.5t.713-.288T12 14.5V13h1.5q.425 0 .713-.288T14.5 12t-.288-.712T13.5 11H12V9.5q0-.425-.288-.712T11 8.5t-.712.288T10 9.5V11H8.5q-.425 0-.712.288T7.5 12t.288.713T8.5 13zm-6 3.75h14v-9.5H4zm0 2q-.825 0-1.412-.587T2 16.75v-9.5q0-.825.588-1.412T4 5.25h14q.825 0 1.413.588T20 7.25V9.5h.5q.625 0 1.063.438T22 11v2q0 .65-.437 1.075T20.5 14.5H20v2.25q0 .825-.587 1.413T18 18.75zm0-2v-9.5z"/></svg>