<svg xmlns="http://www.w3.org/2000/svg" viewBox="0 0 24 24" width="24" height="24"><path fill="currentColor" d="M12 18q1.75 0 3.388-.6t2.987-1.725q.275-.225.3-.55t-.2-.55t-.537-.213t-.563.213q-.125.125-.262.2t-.263.175L16 13.5V11h.5q.2 0 .35-.15t.15-.35t-.15-.35t-.35-.15h-5.1L9.95 7.5q-.125-.225-.363-.363T9.075 7H6.75q-.2 0-.25.163t.1.287l.4.3l-1.1 1.275q-.175.2-.175.462t.2.463l.15.15q.175.175.413.2t.437-.1L8 9.5v4l-.85 1.45l-.3-.2q-.15-.1-.275-.225q-.225-.2-.537-.175t-.513.225q-.225.225-.213.538t.263.512q1.35 1.15 3 1.763T12 18m0-1.5q-.95 0-1.838-.187T8.45 15.7l.85-1.45q.65.25 1.338.363t1.362.112q.7 0 1.375-.112t1.325-.363l.85 1.45q-.825.375-1.713.588T12 16.5M4 22q-.825 0-1.412-.587T2 20V4q0-.825.588-1.412T4 2h16q.825 0 1.413.588T22 4v16q0 .825-.587 1.413T20 22zm0-2h16V4H4zm0 0V4z"/></svg>