<svg xmlns="http://www.w3.org/2000/svg" viewBox="0 0 24 24" width="24" height="24"><path fill="currentColor" d="M6.5 16q.625 0 1.063-.437T8 14.5t-.437-1.062T6.5 13t-1.062.438T5 14.5t.438 1.063T6.5 16m9 0q.625 0 1.063-.437T17 14.5t-.437-1.062T15.5 13t-1.062.438T14 14.5t.438 1.063T15.5 16M5 19v.5q0 .625-.437 1.063T3.5 21t-1.062-.437T2 19.5v-7.15q0-.175.025-.35t.075-.325L3.975 6.35q.2-.6.725-.975T5.875 5H14q.425 0 .713.288T15 6t-.288.713T14 7H5.85L4.8 10H14q.425 0 .713.288T15 11t-.288.713T14 12H4v5h14v-4q0-.425.288-.712T19 12t.713.288T20 13v6.5q0 .625-.437 1.063T18.5 21t-1.062-.437T17 19.5V19zM18.45 6L16 3.55q-.15-.15-.15-.35t.15-.35t.35-.15t.35.15l1.95 1.95V1.725q0-.35.3-.475t.55.125l2.15 2.175q.15.15.15.35t-.15.35L19.85 6l1.8 1.8q.15.15.15.35t-.15.35l-2.15 2.15q-.25.25-.55.125t-.3-.475V7.2L16.7 9.15q-.15.15-.35.15T16 9.15t-.15-.35t.15-.35zm1.2-1.2l.95-.9l-.95-.95zm0 4.3l.95-.95l-.95-.95zM4 12v5z"/></svg>