<svg xmlns="http://www.w3.org/2000/svg" viewBox="0 0 24 24" width="24" height="24"><path fill="currentColor" d="M5 17.5q.65 0 1.075-.425T6.5 16t-.425-1.075T5 14.5t-1.075.425T3.5 16t.425 1.075T5 17.5M9 13q.425 0 .713-.288T10 12t-.288-.712T9 11t-.712.288T8 12t.288.713T9 13m0-4q.425 0 .713-.288T10 8t-.288-.712T9 7t-.712.288T8 8t.288.713T9 9m11 12H4q-.425 0-.712-.288T3 20t.288-.712T4 19h16q.425 0 .713.288T21 20t-.288.713T20 21M5 9.5q.65 0 1.075-.425T6.5 8t-.425-1.075T5 6.5t-1.075.425T3.5 8t.425 1.075T5 9.5m0 4q.65 0 1.075-.425T6.5 12t-.425-1.075T5 10.5t-1.075.425T3.5 12t.425 1.075T5 13.5M9 17q.425 0 .713-.288T10 16t-.288-.712T9 15t-.712.288T8 16t.288.713T9 17m8-.5q.225 0 .363-.137T17.5 16t-.137-.363T17 15.5t-.363.138T16.5 16t.138.363t.362.137M20 5H4q-.425 0-.712-.288T3 4t.288-.712T4 3h16q.425 0 .713.288T21 4t-.288.713T20 5m-3 3.5q.225 0 .363-.137T17.5 8t-.137-.363T17 7.5t-.363.138T16.5 8t.138.363T17 8.5m0 4q.225 0 .363-.137T17.5 12t-.137-.363T17 11.5t-.363.138T16.5 12t.138.363t.362.137M13 9q.425 0 .713-.288T14 8t-.288-.712T13 7t-.712.288T12 8t.288.713T13 9m0 4q.425 0 .713-.288T14 12t-.288-.712T13 11t-.712.288T12 12t.288.713T13 13m0 4q.425 0 .713-.288T14 16t-.288-.712T13 15t-.712.288T12 16t.288.713T13 17M3 19V5z"/></svg>