<svg xmlns="http://www.w3.org/2000/svg" viewBox="0 0 24 24" width="24" height="24"><path fill="currentColor" d="M6 22q-.825 0-1.412-.587T4 20V4q0-.825.588-1.412T6 2h12q.825 0 1.413.588T20 4v16q0 .825-.587 1.413T18 22zm0-2h12V4h-2v6.125q0 .3-.25.438t-.5-.013l-1.225-.75q-.25-.15-.513-.15T13 9.8l-1.225.75q-.25.15-.512.013T11 10.125V4H6zm0 0V4zm5-9.875q0 .3.263.438t.512-.013L13 9.8q.25-.15.512-.15t.513.15l1.225.75q.25.15.5.013t.25-.438q0 .3-.25.438t-.5-.013l-1.225-.75q-.25-.15-.513-.15T13 9.8l-1.225.75q-.25.15-.513.013T11 10.125"/></svg>