<svg xmlns="http://www.w3.org/2000/svg" viewBox="0 0 24 24" width="24" height="24"><path fill="currentColor" d="M5.4 6h13.2l-.85-1H6.25zm4.6 6.75l2-1l2 1V8h-4zM5 21q-.825 0-1.412-.587T3 19V6.525q0-.35.113-.675t.337-.6L4.7 3.725q.275-.35.687-.538T6.25 3h11.5q.45 0 .863.188t.687.537l1.25 1.525q.225.275.338.6t.112.675v2.85q0 .425-.288.713t-.712.287t-.712-.288T19 9.376V8h-3v5.125l-1.925 1.925L12 14l-2.55 1.275q-.5.25-.975-.038T8 14.376V8H5v11h6q.425 0 .713.288T12 20t-.288.713T11 21zM16 8h3zM5 8h9.075zm9 12v-1.65q0-.2.075-.387t.225-.338l5.225-5.2q.225-.225.5-.325t.55-.1q.3 0 .575.113t.5.337l.925.925q.2.225.313.5t.112.55t-.1.563t-.325.512l-5.2 5.2q-.15.15-.337.225T16.65 21H15q-.425 0-.712-.287T14 20m7.5-5.575l-.925-.925zm-6 5.075h.95l3.025-3.05l-.45-.475l-.475-.45l-3.05 3.025zm3.525-3.525l-.475-.45l.925.925z"/></svg>