<svg xmlns="http://www.w3.org/2000/svg" viewBox="0 0 24 24" width="24" height="24"><path fill="currentColor" d="M7 18q-1.65 0-2.825-1.175Q3 15.65 3 14q0-1.65 1.175-2.825Q5.35 10 7 10q1.65 0 2.825 1.175Q11 12.35 11 14q0 1.65-1.175 2.825Q8.65 18 7 18Zm9.5-4q-2.3 0-3.9-1.6T11 8.5q0-2.3 1.6-3.9T16.5 3q2.3 0 3.9 1.6T22 8.5q0 2.3-1.6 3.9T16.5 14Zm-2 7q-1.25 0-2.125-.875T11.5 18q0-1.25.875-2.125T14.5 15q1.25 0 2.125.875T17.5 18q0 1.25-.875 2.125T14.5 21Zm2-9q1.475 0 2.488-1.012Q20 9.975 20 8.5t-1.012-2.488Q17.975 5 16.5 5t-2.488 1.012Q13 7.025 13 8.5t1.012 2.488Q15.025 12 16.5 12Zm-2 7q.425 0 .713-.288q.287-.287.287-.712t-.287-.712Q14.925 17 14.5 17t-.712.288q-.288.287-.288.712t.288.712q.287.288.712.288Zm2-10.5Zm-2 9.5Z"/></svg>