<svg xmlns="http://www.w3.org/2000/svg" viewBox="0 0 24 24" width="24" height="24"><path fill="currentColor" d="M12 21q-.475 0-.925-.05t-.9-.15q-.4-.1-.638-.45T9.4 19.6t.45-.625t.75-.125q.35.075.7.113T12 19q2.9 0 4.95-2.05T19 12t-2.05-4.95T12 5T7.05 7.05T5 12q0 .35.038.688t.112.687q.1.425-.125.763t-.65.437t-.763-.125t-.437-.65q-.1-.45-.137-.9T3 12q0-1.85.712-3.488T5.65 5.65t2.863-1.937T12 3t3.488.713T18.35 5.65t1.938 2.863T21 12t-.712 3.488t-1.938 2.862t-2.863 1.938T12 21m-8.3-.7q-.275-.275-.275-.7t.275-.7l7.9-7.9H9q-.425 0-.712-.288T8 10t.288-.712T9 9h5q.425 0 .713.288T15 10v5q0 .425-.288.713T14 16t-.712-.288T13 15v-2.6l-7.9 7.9q-.275.275-.7.275t-.7-.275"/></svg>