<svg xmlns="http://www.w3.org/2000/svg" viewBox="0 0 24 24" width="24" height="24"><path fill="currentColor" d="M9 15q-2.5 0-4.25-1.75T3 9q0-.5.075-1t.275-.95q.125-.25.313-.375t.412-.175t.463.013t.437.262L7.6 9.4l1.8-1.8l-2.625-2.625q-.2-.2-.262-.437T6.5 4.075t.175-.413t.375-.312q.45-.2.95-.275T9 3q2.5 0 4.25 1.75T15 9q0 .575-.1 1.088t-.3 1.012l5.05 5q.725.725.725 1.775t-.725 1.775t-1.775.725t-1.775-.75l-5-5.025q-.5.2-1.012.3T9 15m0-2q.65 0 1.3-.2t1.175-.625l6.075 6.075q.125.125.338.113t.337-.138t.125-.337t-.125-.338L12.15 11.5q.45-.5.65-1.162T13 9q0-1.5-.962-2.613T9.65 5.05L11.5 6.9q.3.3.3.7t-.3.7l-3.2 3.2q-.3.3-.7.3t-.7-.3L5.05 9.65q.225 1.425 1.338 2.388T9 13m2.725-1.275"/></svg>