<svg xmlns="http://www.w3.org/2000/svg" viewBox="0 0 24 24" width="24" height="24"><path fill="currentColor" d="M8 17q-.825 0-1.412-.587T6 15V9q0-.825.588-1.412T8 7h1l.7-.7q.15-.15.338-.225T10.425 6h3.15q.2 0 .388.075t.337.225l.7.7h1q.825 0 1.412.588T18 9v6q0 .825-.587 1.413T16 17zm0-2h8V9H8zm4-1q.825 0 1.413-.587T14 12t-.587-1.412T12 10t-1.412.588T10 12t.588 1.413T12 14m0 10q-4.4 0-7.712-2.762T.174 14.275Q.1 13.85.337 13.5T1 13.1t.75.213t.4.687q.65 3.275 3.113 5.475T11.1 21.95l-.85-.85q-.275-.275-.275-.7t.275-.7t.7-.275t.7.275l3.3 3.3q.175.175.113.4t-.288.275q-.675.175-1.362.25T12 24m0-24q4.4 0 7.713 2.75t4.112 6.975q.075.425-.162.775t-.663.4t-.75-.213t-.4-.687q-.65-3.275-3.113-5.475T12.9 2.05l.85.85q.275.275.275.7t-.275.7t-.7.275t-.7-.275L9.05 1Q8.875.825 8.938.6t.287-.275Q9.9.15 10.588.075T12 0"/></svg>