<svg xmlns="http://www.w3.org/2000/svg" viewBox="0 0 24 24" width="24" height="24"><path fill="currentColor" d="M12.275 9H19.4q-.675-1.725-2.062-2.963T14.15 4.3l-2.3 3.95q-.15.25 0 .5t.425.25m-3.6 1.25q.15.25.425.25t.425-.25L13.1 4.1q-.275-.05-.55-.075T12 4q-1.65 0-3.075.625T6.4 6.3zM4.25 14h4.575q.275 0 .438-.25t.012-.5L5.7 7.1q-.8 1.025-1.25 2.263T4 12q0 .525.063 1.013T4.25 14m5.6 5.7l2.275-3.95q.15-.25-.012-.5t-.438-.25H4.6q.675 1.725 2.063 2.963T9.85 19.7M12 20q1.65 0 3.075-.625T17.6 17.7l-2.275-3.95q-.15-.25-.425-.25t-.425.25L10.9 19.9q.275.05.538.075T12 20m6.3-3.1q.8-1.025 1.25-2.262T20 12q0-.525-.062-1.012T19.75 10h-4.575q-.275 0-.437.25t-.013.5zM12 22q-2.05 0-3.875-.788t-3.187-2.15t-2.15-3.187T2 12q0-2.075.788-3.887t2.15-3.175t3.187-2.15T12 2q2.075 0 3.888.788t3.174 2.15t2.15 3.175T22 12q0 2.05-.788 3.875t-2.15 3.188t-3.175 2.15T12 22"/></svg>