<svg xmlns="http://www.w3.org/2000/svg" viewBox="0 0 24 24" width="24" height="24"><path fill="currentColor" d="M21 13h-2q-.425 0-.712-.288T18 12t.288-.712T19 11h2q.425 0 .713.288T22 12t-.288.713T21 13m-4.4 3.8q.25-.35.65-.4t.75.2l1.6 1.2q.35.25.4.65t-.2.75t-.65.4t-.75-.2l-1.6-1.2q-.35-.25-.4-.65t.2-.75m3-10.6L18 7.4q-.35.25-.75.2t-.65-.4t-.2-.75t.4-.65l1.6-1.2q.35-.25.75-.2t.65.4t.2.75t-.4.65M5 15H4q-.825 0-1.412-.587T2 13v-2q0-.825.588-1.412T4 9h4l3.475-2.1q.5-.3 1.013 0t.512.875v8.45q0 .575-.513.875t-1.012 0L8 15H7v3q0 .425-.288.713T6 19t-.712-.288T5 18zm6-.55v-4.9L8.55 11H4v2h4.55zm3 .9v-6.7q.675.6 1.088 1.463T15.5 12t-.413 1.888T14 15.35M7.5 12"/></svg>