<svg xmlns="http://www.w3.org/2000/svg" viewBox="0 0 24 24" width="24" height="24"><path fill="currentColor" d="M6 20h12q.425 0 .713-.288T19 19H5q0 .425.288.713T6 20m6-12q-1.2 0-2-.837t-.75-2.038q.05-1.1.675-1.963t1.4-1.562q.15-.125.313-.187T12 1.35t.363.063t.312.187q.775.7 1.4 1.563t.675 1.962q.05 1.2-.75 2.038T12 8m-1 9h2v-6h-2zm1-11q.325 0 .538-.225t.212-.55q0-.425-.238-.775T12 3.775q-.275.325-.513.675t-.237.775q0 .325.213.55T12 6m8.25 11q.325 0 .538-.213T21 16.25t-.213-.537t-.537-.213t-.537.213t-.213.537t.213.538t.537.212M18 22H6q-1.25 0-2.125-.875T3 19v-1q0-.425.288-.712T4 17h5v-6q0-.825.588-1.412T11 9h2q.825 0 1.413.588T15 11v6h2.6q-.05-.2-.075-.375t-.025-.375q0-1.15.8-1.95t1.95-.8t1.95.8t.8 1.95q0 .95-.562 1.675T21 18.9v.1q0 1.25-.875 2.125T18 22m-7-5h2zm1-12.1"/></svg>