<svg xmlns="http://www.w3.org/2000/svg" viewBox="0 0 24 24" width="24" height="24"><path fill="currentColor" d="m12.725 12.2l1.775-1.075l1.775 1.075q.15.1.288 0t.087-.275L16.175 9.9l1.55-1.35q.125-.125.088-.262t-.213-.163l-2.05-.175l-.825-1.9q-.05-.15-.225-.15t-.225.15l-.825 1.9l-2.05.175q-.175.025-.212.163t.087.262l1.55 1.35l-.475 2.025q-.05.175.088.275t.287 0M9 17q-.825 0-1.412-.587T7 15V4q0-.825.588-1.412T9 2h11q.825 0 1.413.588T22 4v11q0 .825-.587 1.413T20 17zm0-2h11V4H9zm-3.3 6.875q-.825.1-1.487-.4T3.45 20.15L2.125 9.225q-.1-.825.425-1.475t1.35-.775h.05q.425-.075.762.225t.338.75q0 .375-.262.65t-.638.35h-.025l1.35 10.95l11.85-1.45q.425-.05.75.2t.375.675t-.2.738t-.675.362z"/></svg>