<svg xmlns="http://www.w3.org/2000/svg" viewBox="0 0 24 24" width="24" height="24"><path fill="currentColor" d="M12 5.1q.85-1 2.025-1.55T16.5 3q2.2 0 3.738 1.4T21.975 8q.025.425-.262.713T21 9.025t-.712-.262t-.313-.713q-.15-1.35-1.112-2.2T16.5 5q-1 0-1.888.5t-1.387 1.3q-.225.35-.562.525t-.688.175t-.675-.175t-.525-.525q-.5-.8-1.388-1.3T7.5 5q-1.4 0-2.363.85t-1.112 2.2q-.025.425-.312.713T3 9.025t-.712-.312T2.025 8q.2-2.2 1.738-3.6T7.5 3q1.3 0 2.475.55T12 5.1m0 15.575q-.35 0-.7-.125t-.625-.4Q9.6 19.2 8.688 18.338T6.975 16.7q-.35-.35-.312-.737t.312-.663t.663-.312t.737.287q.75.725 1.638 1.563T12 18.65q1.1-.975 1.988-1.812t1.637-1.563q.35-.35.738-.288t.662.338t.3.675t-.325.75q-.8.75-1.712 1.6t-1.963 1.8q-.275.275-.625.4t-.7.125M11.05 16q.325 0 .563-.187t.337-.488l1.35-4.075l.875 1.3q.125.2.35.325T15 13h7q.425 0 .713-.288T23 12t-.288-.712T22 11h-6.425L13.85 8.45q-.15-.225-.387-.337T12.95 8q-.325 0-.562.188t-.338.487l-1.35 4.05l-.85-1.275q-.125-.2-.35-.325T9.025 11H2q-.425 0-.712.288T1 12t.288.713T2 13h6.425l1.725 2.55q.15.225.388.338t.512.112m.95-4.175"/></svg>