<svg xmlns="http://www.w3.org/2000/svg" viewBox="0 0 24 24" width="24" height="24"><path fill="currentColor" d="M10.5 11.5H7q-.425 0-.712-.288T6 10.5V7q0-.425.288-.712T7 6h3.5q.425 0 .713.288T11.5 7v3.5q0 .425-.288.713t-.712.287m0 6.5H7q-.425 0-.712-.288T6 17v-3.5q0-.425.288-.712T7 12.5h3.5q.425 0 .713.288t.287.712V17q0 .425-.288.713T10.5 18m6.5-6.5h-3.5q-.425 0-.712-.288T12.5 10.5V7q0-.425.288-.712T13.5 6H17q.425 0 .713.288T18 7v3.5q0 .425-.288.713T17 11.5m0 6.5h-3.5q-.425 0-.712-.288T12.5 17v-3.5q0-.425.288-.712t.712-.288H17q.425 0 .713.288T18 13.5V17q0 .425-.288.713T17 18M8 9.5h1.5V8H8zm6.5 0H16V8h-1.5zM8 16h1.5v-1.5H8zm6.5 0H16v-1.5h-1.5zM5 21q-.825 0-1.412-.587T3 19V5q0-.825.588-1.412T5 3h14q.825 0 1.413.588T21 5v14q0 .825-.587 1.413T19 21zm0-2h14V5H5z"/></svg>