<svg xmlns="http://www.w3.org/2000/svg" viewBox="0 0 24 24" width="24" height="24"><path fill="currentColor" d="M15 3v7.15q0 .425-.288.713T14 11.15t-.712-.288T13 10.15V9h-1.15q-.425 0-.712-.288T10.85 8t.288-.712T11.85 7H13V4h-1q-.425 0-.712-.288T11 3t.288-.712T12 2h2q.425 0 .713.288T15 3m4.1 18.9l-1.2-1.2q-.275 1.05-1.062 1.675T15 23q-.975 0-1.737-.562T12.2 21H7q-.825 0-1.412-.587T5 19V9q0-.275.063-.5t.187-.45L2.1 4.9q-.275-.275-.275-.7t.275-.7t.7-.275t.7.275l17 17q.275.275.275.7t-.275.7t-.7.275t-.7-.275M8 19v-8.15l-1-1V19zm7 2.5q.65 0 1.075-.425T16.5 20t-.425-1.075T15 18.5t-1.075.425T13.5 20t.425 1.075T15 21.5M10 19h2.2q.125-.35.325-.663T13 17.8v-1.95l-3-3zm-2 0v-8.15zm2 0v-6.15zm5 1"/></svg>