<svg xmlns="http://www.w3.org/2000/svg" viewBox="0 0 24 24" width="24" height="24"><path fill="currentColor" d="M19.25 4q-.2 0-.35.15t-.15.35v3q0 .2.15.35t.35.15t.35-.15t.15-.35v-3q0-.2-.15-.35T19.25 4m-2.5 0q-.2 0-.35.15t-.15.35v3q0 .2.15.35t.35.15t.35-.15t.15-.35v-3q0-.2-.15-.35T16.75 4M20 20h-4.05q-.425 0-.712-.288T14.95 19t.288-.712t.712-.288H20v-4q0-.425.288-.712T21 13t.713.288T22 14v4q0 .825-.587 1.413T20 20M3 7.15q-.425 0-.712-.288T2 6.15V6q0-.825.588-1.412T4 4h6q.425 0 .713.288T11 5t-.288.713T10 6H4v.15q0 .425-.288.713T3 7.15M18 11q-2.075 0-3.537-1.463T13 6t1.463-3.537T18 1t3.538 1.463T23 6t-1.463 3.538T18 11M3.5 20q-.625 0-1.062-.437T2 18.5t.438-1.062T3.5 17t1.063.438T5 18.5t-.437 1.063T3.5 20M8 20q-.4 0-.7-.238t-.375-.637Q6.65 17.55 5.513 16.45T2.8 15.075q-.375-.05-.587-.362T2 14q0-.425.263-.712t.637-.238q2.35.3 4.025 1.975t2 4.025q.05.4-.225.675T8 20m4 0q-.425 0-.712-.275t-.338-.7q-.35-3.2-2.612-5.425t-5.463-2.55q-.4-.05-.638-.35T2 10q0-.425.263-.725t.637-.25q4.025.325 6.85 3.138t3.2 6.812q.05.425-.237.725T12 20"/></svg>