<svg xmlns="http://www.w3.org/2000/svg" viewBox="0 0 24 24" width="24" height="24"><path fill="currentColor" d="M14.825 13.475q.5 0 .838-.337T16 12.3q0-.65-.488-.962t-.687-.863q-.05.225-.075.438t.025.362q.05.175.113.438t.012.512q-.05.275-.312.55t-.588.4q.175.15.388.225t.437.075m.325.525q.75 0 1.3-.5t.55-1.2q0-.4-.213-.737t-.712-.688t-.925-.812t-.7-.963q-.725.6-1.075 1.263t-.35 1.337q0 .95.625 1.625t1.5.675m-2.275 2q-.175-.65-.537-1.2t-.888-.975q-.225-.425-.337-.875T11 11.925q0-1.7.963-3.062T15.05 6.2q.225-.125.438 0t.237.4q.05.8.463 1.5T17.4 9.35q.8.575 1.2 1.275t.4 1.65q0 .45-.1.838t-.325.887H20V4H10v8q0 .425-.288.713T9 13t-.712-.288T8 12V4q0-.825.588-1.412T10 2h10q.825 0 1.413.588T22 4v10q0 .825-.587 1.413T20 16zM5.5 18v2.25q0 .325-.213.538T4.75 21t-.537-.213T4 20.25v-2.3q-.45-.125-.75-.475t-.35-.85l-.8-8.55q-.05-.425.263-.75T3.1 7q.4 0 .675.263T4.1 7.9l.625 7.1H9q.825 0 1.413.588T11 17q0 .425-.288.713T10 18v2.25q0 .325-.213.538T9.25 21t-.537-.213t-.213-.537V18z"/></svg>