<svg xmlns="http://www.w3.org/2000/svg" viewBox="0 0 24 24" width="24" height="24"><path fill="currentColor" d="m6 17l-2.15 2.15q-.25.25-.55.125T3 18.8V5q0-.825.588-1.412T5 3h12q.825 0 1.413.588T19 5v4.025q0 .425-.288.7T18 10t-.712-.288T17 9V5H5v10h6q.425 0 .713.288T12 16t-.288.713T11 17zm2-8h6q.425 0 .713-.288T15 8t-.288-.712T14 7H8q-.425 0-.712.288T7 8t.288.713T8 9m0 4h3q.425 0 .713-.288T12 12t-.288-.712T11 11H8q-.425 0-.712.288T7 12t.288.713T8 13m9 4h-2q-.425 0-.712-.288T14 16t.288-.712T15 15h2v-2q0-.425.288-.712T18 12t.713.288T19 13v2h2q.425 0 .713.288T22 16t-.288.713T21 17h-2v2q0 .425-.288.713T18 20t-.712-.288T17 19zM5 15V5z"/></svg>