<svg xmlns="http://www.w3.org/2000/svg" viewBox="0 0 24 24" width="24" height="24"><path fill="currentColor" d="m12 11.4l1.9 1.9q.275.275.7.275t.7-.275t.275-.7t-.275-.7L13.4 10l1.9-1.9q.275-.275.275-.7t-.275-.7t-.7-.275t-.7.275L12 8.6l-1.9-1.9q-.275-.275-.7-.275t-.7.275t-.275.7t.275.7l1.9 1.9l-1.9 1.9q-.275.275-.275.7t.275.7t.7.275t.7-.275zM6 18l-2.3 2.3q-.475.475-1.088.213T2 19.575V4q0-.825.588-1.412T4 2h16q.825 0 1.413.588T22 4v12q0 .825-.587 1.413T20 18zm-.85-2H20V4H4v13.125zM4 16V4z"/></svg>