<svg xmlns="http://www.w3.org/2000/svg" viewBox="0 0 24 24" width="24" height="24"><path fill="currentColor" d="M6 22q-.825 0-1.412-.587T4 20v-1.975q0-.5.225-.925t.6-.725q1.725-1.4 2.587-2.825T8.625 11H7q-.425 0-.712-.288T6 10t.288-.712T7 9h1.25q-.35-.55-.55-1.175T7.5 6.5q0-1.875 1.313-3.187T12 2t3.188 1.313T16.5 6.5q0 .7-.2 1.325T15.75 9H17q.425 0 .713.288T18 10t-.288.713T17 11h-1.625q.35 1.125 1.213 2.55t2.587 2.825q.375.3.6.725t.225.925V20q0 .825-.587 1.413T18 22zm0-2h12v-2q-2.3-1.8-3.325-3.713T13.3 11h-2.6q-.35 1.375-1.375 3.288T6 18zm6-11q1.05 0 1.775-.725T14.5 6.5t-.725-1.775T12 4t-1.775.725T9.5 6.5t.725 1.775T12 9m0 11"/></svg>