<svg xmlns="http://www.w3.org/2000/svg" viewBox="0 0 24 24" width="24" height="24"><path fill="currentColor" d="M7 22q-.825 0-1.412-.587T5 20v-2q0-.575.3-1.037t.8-.738L11 13.75V12l-3.475 1.725q-.3.15-.625.225t-.65.075q-.775 0-1.463-.4t-1.062-1.15q-.35-.675-.3-1.437T3.9 9.625L7 5l-.975-1.45q-.35-.5-.05-1.025t.9-.525H11q3.325 0 5.663 2.325T19 10v10q0 .825-.587 1.413T17 22zm0-2h10V10q0-2.5-1.75-4.25T11 4H8.75l.3.45q.175.25.175.55t-.175.55l-3.475 5.2q-.125.2-.137.413t.087.412q.125.275.338.363t.412.087q.075 0 .375-.075l4.9-2.475q.5-.25.975.038t.475.862v3.4q0 .575-.3 1.038t-.8.737L7 18zm4-8"/></svg>