<svg xmlns="http://www.w3.org/2000/svg" viewBox="0 0 24 24" width="24" height="24"><path fill="currentColor" d="M8.5 22q-.65 0-1.075-.425T7 20.5t.425-1.075T8.5 19t1.075.425T10 20.5t-.425 1.075T8.5 22m11 0q-.65 0-1.075-.425T18 20.5t.425-1.075T19.5 19t1.075.425T21 20.5t-.425 1.075T19.5 22m-6-14.4L9.6 2.9q.9-.45 1.95-.675T13.8 2q1.025 0 1.975.225t1.75.675q.275.2.325.538T17.625 4zM12 16h3.85L9 7.7V13q0 1.25.875 2.125T12 16M3 6.5q-.425 0-.712-.288T2 5.5q0-1.425.988-2.463T5.4 2q.75 0 1.375.35t1.275 1.1l10.7 12.9q.425.5.163 1.075T18 18h-6q-2.075 0-3.537-1.463T7 13V5.3l-.5-.6q-.35-.425-.587-.562T5.4 4q-.6 0-1 .45T4 5.5q0 .425-.288.713T3 6.5"/></svg>