<svg xmlns="http://www.w3.org/2000/svg" viewBox="0 0 24 24" width="24" height="24"><path fill="currentColor" d="M2 20v-4.7q0-.6.325-1.088t.875-.737l2.8-1.25v-2q0-.575.3-1.037t.8-.738L11 6.5V5h-1q-.425 0-.712-.288T9 4t.288-.712T10 3h1V2q0-.425.288-.712T12 1t.713.288T13 2v1h1q.425 0 .713.288T15 4t-.288.713T14 5h-1v1.5l3.9 1.95q.5.275.8.738t.3 1.037v2l2.8 1.25q.55.25.875.738T22 15.3V20q0 .825-.587 1.413T20 22h-6q-.425 0-.712-.288T13 21v-3q0-.425-.288-.712T12 17t-.712.288T11 18v3q0 .425-.288.713T10 22H4q-.825 0-1.412-.587T2 20m2 0h5v-2.05q0-1.275.875-2.162T12 14.9t2.125.888T15 17.95V20h5v-4.8l-4-1.8v-3.35L12 8l-4 2.05v3.35l-4 1.8zm8-6.5q.625 0 1.063-.437T13.5 12t-.437-1.062T12 10.5t-1.062.438T10.5 12t.438 1.063T12 13.5m0 .5"/></svg>