<svg xmlns="http://www.w3.org/2000/svg" viewBox="0 0 24 24" width="24" height="24"><path fill="currentColor" d="M17 16q-1.25 0-2.125-.875T14 13t.875-2.125T17 10t2.125.875T20 13t-.875 2.125T17 16m0-2q.425 0 .713-.288T18 13t-.288-.712T17 12t-.712.288T16 13t.288.713T17 14m-5 9q-.425 0-.712-.288T11 22v-1.9q0-.525.25-.987t.7-.738q.8-.475 1.35-.663t1.475-.337q.3-.05.6.013t.5.287L17 19l1.1-1.325q.2-.25.5-.3t.6 0q.925.15 1.475.338t1.35.662q.45.275.713.738T23 20.1V22q0 .425-.288.713T22 23zm.975-2h3.075l-1.35-1.65q-.45.125-.875.325t-.85.425zm4.975 0H21v-.9q-.4-.25-.825-.437t-.875-.313zM5 19V5v3.425V8zm0 2q-.825 0-1.413-.587T3 19V5q0-.825.588-1.412T5 3h14q.825 0 1.413.588T21 5v5q-.4-.5-.875-.95T19 8.45V5H5v14h4.15q-.075.275-.112.55T9 20.1v.9zM8 9h6q.65-.5 1.425-.75T17 8q0-.425-.288-.712T16 7H8q-.425 0-.712.288T7 8t.288.713T8 9m0 4h4q0-.525.113-1.025t.312-.975H8q-.425 0-.712.288T7 12t.288.713T8 13m0 4h2.45q.275-.225.588-.4t.637-.325V16q0-.4-.213-.7t-.787-.3H8q-.425 0-.712.288T7 16t.288.713T8 17"/></svg>