<svg xmlns="http://www.w3.org/2000/svg" viewBox="0 0 24 24" width="24" height="24"><path fill="currentColor" d="M5 20q-.825 0-1.412-.587T3 18V6q0-.825.588-1.412T5 4h14q.825 0 1.413.588T21 6v7q0 .425-.288.713T20 14t-.712-.288T19 13V6H5v12h9q.425 0 .713.288T15 19t-.288.713T14 20zm14 0h-1q-.425 0-.712-.288T17 19t.288-.712T18 18h1v-1q0-.425.288-.712T20 16t.713.288T21 17v1h1q.425 0 .713.288T23 19t-.288.713T22 20h-1v1q0 .425-.288.713T20 22t-.712-.288T19 21zm-5-5h3q.425 0 .713-.288T18 14v-.55q0-.325-.213-.537t-.537-.213t-.537.213t-.213.537v.05h-2v-3h2v.05q0 .325.213.538t.537.212t.538-.213t.212-.537V10q0-.425-.288-.712T17 9h-3q-.425 0-.712.288T13 10v4q0 .425.288.713T14 15m-7 0h3q.425 0 .713-.288T11 14v-.55q0-.325-.213-.537t-.537-.213t-.537.213t-.213.537v.05h-2v-3h2v.05q0 .325.213.538t.537.212t.538-.213t.212-.537V10q0-.425-.288-.712T10 9H7q-.425 0-.712.288T6 10v4q0 .425.288.713T7 15"/></svg>