<svg xmlns="http://www.w3.org/2000/svg" viewBox="0 0 24 24" width="24" height="24"><path fill="currentColor" d="M12.275 15.525q1.75 0 2.975-1.125t1.225-2.725q0-1.425-.913-2.412t-2.212-.988q-1.175 0-1.987.75t-.813 1.85q0 .475.163.938t.562.812t.8.288t.65-.338t.288-.663t-.313-.712q-.05-.05-.1-.125t-.05-.175q0-.275.225-.437t.575-.163q.5 0 .825.413t.325.987q0 .775-.638 1.313t-1.562.537q-1.175 0-1.987-.95T9.5 10.275q0-.475.113-.925t.337-.85q.2-.375.2-.788T9.85 7t-.725-.288t-.65.363q-.5.7-.75 1.5t-.25 1.675q0 2.2 1.4 3.738t3.4 1.537M6 17.7q-1.425-1.3-2.212-3.037T3 11q0-3.75 2.625-6.375T12 2q3.125 0 5.538 1.838t3.137 4.787l1.3 5.125q.125.475-.175.863T21 15h-2v3q0 .825-.587 1.413T17 20h-2v1q0 .425-.288.713T14 22t-.712-.288T13 21v-2q0-.425.288-.712T14 18h3v-4q0-.425.288-.712T18 13h1.7l-.95-3.875q-.575-2.275-2.45-3.7T12 4Q9.1 4 7.05 6.025T5 10.95q0 1.5.613 2.85t1.737 2.4l.65.6V21q0 .425-.288.713T7 22t-.712-.288T6 21zm6.35-4.7"/></svg>