<svg xmlns="http://www.w3.org/2000/svg" viewBox="0 0 24 24" width="24" height="24"><path fill="currentColor" d="M12 22q-2.075 0-3.537-1.463T7 17t1.463-3.537T12 12t3.538 1.463T17 17t-1.463 3.538T12 22m0-2q1.25 0 2.125-.875T15 17t-.875-2.125T12 14t-2.125.875T9 17t.875 2.125T12 20m0-10q-1.2 0-2.312.388T7.7 11.55q-.3.275-.687.25t-.663-.3L2.775 7.925q-.3-.3-.3-.75t.35-.725Q4.775 4.8 7.113 3.9T12 3t4.888.9t4.287 2.55q.35.275.35.725t-.3.75L17.65 11.5q-.275.275-.662.3t-.688-.25q-.875-.775-1.987-1.162T12 10m-4.85-.5q1.05-.75 2.287-1.125T12 8t2.538.363T16.85 9.45l2.2-2.2q-1.55-1.1-3.338-1.675T12 5t-3.713.575T4.95 7.25zM12 17"/></svg>