<svg xmlns="http://www.w3.org/2000/svg" viewBox="0 0 24 24" width="24" height="24"><path fill="currentColor" d="M11 22q-.425 0-.712-.288T10 21t.288-.712T11 20h11q.425 0 .713.288T23 21t-.288.713T22 22zm0-3q0-2.025 1.275-3.537T15.5 13.6v-.625q0-.425.288-.712t.712-.288t.713.288t.287.712v.625q1.925.35 3.213 1.863T22 19zm2.625-2.025h5.7q-.475-.675-1.213-1.088t-1.612-.412q-.9 0-1.65.413t-1.225 1.087M1 11V4q0-.825.588-1.412T3 2h2q.6 0 1.2.425T7 3.45l6.425-1.8q.275-.075.575-.075t.575.1l6.725 2.1q.325.1.513.363t.187.587V5q0 1.25-.875 2.125T19 8h-2v.6q0 .625-.363 1.138t-.937.737l-6.4 2.4q-.175.05-.337.088T8.6 13H3q-.825 0-1.412-.587T1 11m2-3.5V11h2V4H3zm4 .75V11h1.6l5.8-2.125q.275-.1.438-.337T15 8h-1.775l-1.975.65q-.4.125-.763-.062T10 7.975q-.125-.4.05-.75t.575-.475l2.2-.75H19q.225 0 .563-.162t.337-.388L13.95 3.6L7 5.5z"/></svg>