<svg xmlns="http://www.w3.org/2000/svg" viewBox="0 0 24 24" width="24" height="24"><path fill="currentColor" d="M19 21h-8q-.425 0-.712-.288T10 20t.288-.712T11 19h8V5H5v3q0 .425-.288.713T4 9t-.712-.288T3 8V5q0-.825.588-1.412T5 3h14q.825 0 1.413.588T21 5v14q0 .825-.587 1.413T19 21M3 22q-.425 0-.712-.288T2 21t.288-.712T3 20h1.55q-1.2-.575-1.937-1.7t-.738-2.55q0-1.975 1.388-3.363T6.625 11q.425 0 .713.288t.287.712t-.288.713t-.712.287q-1.125 0-1.937.8t-.813 1.95q0 .975.6 1.725t1.525.95V17q0-.425.288-.712T7 16t.713.288T8 17v4q0 .425-.288.713T7 22zm8-5h2q.425 0 .713-.288T14 16t-.288-.712T13 15h-2q-.425 0-.712.288T10 16t.288.713T11 17m0-4h5q.425 0 .713-.288T17 12t-.288-.712T16 11h-5q-.425 0-.712.288T10 12t.288.713T11 13M8 9h8q.425 0 .713-.288T17 8t-.288-.712T16 7H8q-.425 0-.712.288T7 8t.288.713T8 9"/></svg>