<svg xmlns="http://www.w3.org/2000/svg" viewBox="0 0 24 24" width="24" height="24"><path fill="currentColor" d="M10 21q-.425 0-.712-.288T9 20v-2H3q-.425 0-.712-.288T2 17t.288-.712T3 16h6q.825 0 1.413.588T11 18v2q0 .425-.288.713T10 21m4 0q-.425 0-.712-.288T13 20v-2q0-.825.588-1.412T15 16h6q.425 0 .713.288T22 17t-.288.713T21 18h-6v2q0 .425-.288.713T14 21m-8-6q-1.25 0-2.125-.875T3 12V9q0-.425.288-.712T4 8h16q.425 0 .713.288T21 9v3q0 1.25-.875 2.125T18 15zm0-2h12q.425 0 .713-.288T19 12v-2H5v2q0 .425.288.713T6 13M4 7q-.425 0-.712-.288T3 6t.288-.712T4 5h5V4q0-.425.288-.712T10 3h4q.425 0 .713.288T15 4v1h5q.425 0 .713.288T21 6t-.288.713T20 7zm1 6v-3z"/></svg>