<svg xmlns="http://www.w3.org/2000/svg" viewBox="0 0 24 24" width="24" height="24"><path fill="currentColor" d="M12 22q-2.075 0-3.9-.788t-3.175-2.137T2.788 15.9T2 12q0-2.025.838-3.937T5.163 4.7T8.7 2.5t4.5-.45q.375.05.575.313t.225.712q.05 1.6 1.188 2.738T17.9 7q.525.025.8.3t.3.85q.05 1.05.638 1.725t1.637 1.025q.35.125.538.363t.187.587q.05 2.075-.725 3.925t-2.125 3.238t-3.2 2.187T12 22m0-2q3.05 0 5.413-2.1T20 12.55q-1.25-.55-1.963-1.5t-.962-2.125q-1.925-.275-3.3-1.65t-1.7-3.3q-2-.05-3.512.725T6.037 6.688T4.512 9.325T4 12q0 3.325 2.338 5.663T12 20m-1.5-10q.625 0 1.063-.437T12 8.5t-.437-1.062T10.5 7t-1.062.438T9 8.5t.438 1.063T10.5 10m-2 5q.625 0 1.063-.437T10 13.5t-.437-1.062T8.5 12t-1.062.438T7 13.5t.438 1.063T8.5 15m6.5 1q.425 0 .713-.288T16 15t-.288-.712T15 14t-.712.288T14 15t.288.713T15 16"/></svg>