<svg xmlns="http://www.w3.org/2000/svg" viewBox="0 0 24 24" width="24" height="24"><path fill="currentColor" d="M9 18q-.825 0-1.412-.587T7 16V4q0-.825.588-1.412T9 2h9q.825 0 1.413.588T20 4v12q0 .825-.587 1.413T18 18zm0-2h9V4H9zM4 8q-.425 0-.712-.288T3 7t.288-.712T4 6t.713.288T5 7t-.288.713T4 8m0 3.5q-.425 0-.712-.288T3 10.5t.288-.712T4 9.5t.713.288T5 10.5t-.288.713T4 11.5M4 15q-.425 0-.712-.288T3 14t.288-.712T4 13t.713.288T5 14t-.288.713T4 15m0 3.5q-.425 0-.712-.288T3 17.5t.288-.712T4 16.5t.713.288T5 17.5t-.288.713T4 18.5M4 22q-.425 0-.712-.288T3 21t.288-.712T4 20t.713.288T5 21t-.288.713T4 22m3.5 0q-.425 0-.712-.288T6.5 21t.288-.712T7.5 20t.713.288T8.5 21t-.288.713T7.5 22m3.5 0q-.425 0-.712-.288T10 21t.288-.712T11 20t.713.288T12 21t-.288.713T11 22m3.5 0q-.425 0-.712-.288T13.5 21t.288-.712T14.5 20t.713.288t.287.712t-.288.713T14.5 22"/></svg>