<svg xmlns="http://www.w3.org/2000/svg" viewBox="0 0 24 24" width="24" height="24"><path fill="currentColor" d="M4 18v-8v.325V6zm13.9 2.075q-.2 0-.375-.062T17.2 19.8L14.4 17q-.325-.325-.462-.7t-.138-.75q0-.8.575-1.425t1.475-.625q.7 0 1.1.325t.95.875q.5-.5.913-.85t1.137-.35q.925 0 1.488.638T22 15.574q0 .375-.15.75T21.4 17l-2.8 2.8q-.15.15-.325.213t-.375.062M4 8h16V6H4zm0 12q-.825 0-1.412-.587T2 18V6q0-.825.588-1.412T4 4h16q.825 0 1.413.588T22 6v3.95q0 .45-.387.663t-.813.012q-.65-.3-1.388-.463T17.9 10q-1.425 0-2.687.538T13 12H4v6h6.575q.425 0 .713.288t.287.712t-.287.713t-.713.287z"/></svg>