<svg xmlns="http://www.w3.org/2000/svg" viewBox="0 0 24 24" width="24" height="24"><path fill="currentColor" d="M4 19V5q0-.825.588-1.412T6 3h12q.825 0 1.413.588T20 5v14h1q.425 0 .713.288T22 20t-.288.713T21 21H3q-.425 0-.712-.288T2 20t.288-.712T3 19zm2 0h3.95q-.2-1.75-1.15-3.537T6 13.15zM6 5v5.85q1.85-.525 2.8-2.312T9.95 5zm2.225 7q1.7 1.125 2.625 3.075T11.95 19h.1q.175-1.975 1.1-3.925T15.775 12q-1.7-1.125-2.625-3.075T12.05 5h-.1q-.175 1.975-1.1 3.925T8.225 12M18 5h-3.95q.2 1.75 1.15 3.538T18 10.85zm0 14v-5.85q-1.85.525-2.787 2.313T14.075 19zM6 5v5.85zm12 0v5.85zm0 14v-5.85zM6 19v-5.85z"/></svg>