<svg xmlns="http://www.w3.org/2000/svg" viewBox="0 0 24 24" width="24" height="24"><path fill="currentColor" d="M7 20q-1.25 0-2.125-.875T4 17H2.725q-.425 0-.713-.288T1.725 16t.288-.712t.712-.288h2.05q.425-.475 1-.737T7 14t1.225.263t1 .737H13.4l2.1-9H7.75q-.425 0-.712-.288T6.75 5t.288-.712T7.75 4h9q.5 0 .8.375t.175.85L17.075 8H19q.475 0 .9.213t.7.587l1.875 2.475q.275.35.35.763t0 .837L22.15 16.2q-.075.35-.35.575t-.625.225H20q0 1.25-.875 2.125T17 20t-2.125-.875T14 17h-4q0 1.25-.875 2.125T7 20m8.925-7h4.825l.1-.525L19 10h-2.375zM15.5 6l-2.1 9l.05-.175zm-12 4H1.95q-.3 0-.437-.262t.037-.513l2.5-3.575q.125-.15.288-.1t.162.25V8h1.55q.3 0 .437.263t-.037.512l-2.5 3.575q-.125.15-.288.1T3.5 12.2zM7 18q.425 0 .713-.288T8 17t-.288-.712T7 16t-.712.288T6 17t.288.713T7 18m10 0q.425 0 .713-.288T18 17t-.288-.712T17 16t-.712.288T16 17t.288.713T17 18"/></svg>