<svg xmlns="http://www.w3.org/2000/svg" viewBox="0 0 24 24" width="24" height="24"><path fill="currentColor" d="M7 16h6.5q1.05 0 1.775-.737T16 13.474t-.75-1.775t-1.8-.725q-.2-1.275-1.175-2.125T10 8q-1.025 0-1.875.55T6.85 10.025q-1.2.05-2.025.913T4 13q0 1.25.875 2.125T7 16m0-2q-.425 0-.712-.288T6 13t.288-.712T7 12h1.25v-.25q0-.725.513-1.237T10 10t1.238.513t.512 1.237V13h1.75q.2 0 .35.15t.15.35t-.15.35t-.35.15zm1 9q-.425 0-.712-.288T7 22t.288-.712T8 21h.5v-2H3q-.825 0-1.412-.587T1 17V7q0-.825.588-1.412T3 5h14q.825 0 1.413.588T19 7v10q0 .825-.587 1.413T17 19h-5.5v2h.5q.425 0 .713.288T13 22t-.288.713T12 23zm13-10V3H6q-.425 0-.712-.288T5 2t.288-.712T6 1h15q.825 0 1.413.588T23 3v10q0 .425-.288.713T22 14t-.712-.288T21 13M3 17h14V7H3zm7-5"/></svg>