<svg xmlns="http://www.w3.org/2000/svg" viewBox="0 0 24 24" width="24" height="24"><path fill="currentColor" d="M7 23q-.825 0-1.412-.587T5 21V3q0-.825.588-1.412T7 1h10q.825 0 1.413.588T19 3v3.1q.45.175.725.55T20 7.5v2q0 .475-.275.85T19 10.9V21q0 .825-.587 1.413T17 23zm0-2h10V3H7zm0 0V3zm5-4q.425 0 .738-.312t.312-.738t-.312-.737T12 14.9t-.737.313t-.313.737t.313.738T12 17M9.725 9.325q.275.15.563.088t.487-.338q.2-.3.538-.462T12 8.45q.525 0 .938.325t.412.825q0 .425-.262.775t-.588.675q-.475.425-.85.925t-.375 1.125q0 .3.213.5t.512.2t.513-.213t.262-.512q.075-.45.388-.775t.637-.65q.425-.425.737-.95t.313-1.15q0-1.175-.825-1.862T12 7q-.75 0-1.412.363T9.5 8.375q-.175.25-.1.538t.325.412"/></svg>