<svg xmlns="http://www.w3.org/2000/svg" viewBox="0 0 24 24" width="24" height="24"><path fill="currentColor" d="M7 21V3zm5-15q.425 0 .713-.288T13 5t-.288-.712T12 4t-.712.288T11 5t.288.713T12 6M7 23q-.825 0-1.412-.587T5 21V3q0-.825.588-1.412T7 1h10q.825 0 1.413.588T19 3v5q0 .425-.288.713T18 9t-.712-.288T17 8V3H7v18h4.775q.5 0 .738.313t.237.687t-.238.688t-.737.312zm8.3-.75l-.375-1.55q-.9-.65-1.412-1.612T13 17t.513-2.087t1.412-1.613l.375-1.55q.075-.35.35-.55t.625-.2h2.45q.35 0 .625.2t.35.55l.375 1.55q.9.65 1.413 1.613T22 17t-.513 2.088t-1.412 1.612l-.375 1.55q-.075.35-.35.55t-.625.2h-2.45q-.35 0-.625-.2t-.35-.55m2.2-2.75q1.05 0 1.775-.725T20 17t-.725-1.775T17.5 14.5t-1.775.725T15 17t.725 1.775t1.775.725"/></svg>