<svg xmlns="http://www.w3.org/2000/svg" viewBox="0 0 24 24" width="24" height="24"><path fill="currentColor" d="M12 17q-.425 0-.737-.312t-.313-.738t.313-.737T12 14.9t.738.313t.312.737t-.312.738T12 17M9.725 9.325q-.25-.125-.325-.413t.1-.537q.425-.65 1.088-1.012T12 7q1.2 0 2.025.688t.825 1.862q0 .625-.312 1.15t-.738.95q-.325.325-.638.65t-.387.775q-.05.3-.262.513T12 13.8t-.513-.2t-.212-.5q0-.625.375-1.125t.85-.925q.325-.325.588-.675t.262-.775q0-.5-.413-.825T12 8.45q-.35 0-.687.163t-.538.462q-.2.275-.488.338t-.562-.088M7 23q-.825 0-1.412-.587T5 21V3q0-.825.588-1.412T7 1h10q.825 0 1.413.588T19 3v18q0 .825-.587 1.413T17 23zm0-3v1h10v-1zm0-2h10V6H7zM7 4h10V3H7zm0 0V3zm0 16v1z"/></svg>