<svg xmlns="http://www.w3.org/2000/svg" viewBox="0 0 24 24" width="24" height="24"><path fill="currentColor" d="M4 15.5V6q0-2.075 1.925-3.037T12 2q4.3 0 6.15.925T20 6v9.5q0 1.475-1.012 2.488T16.5 19l1.625 1.075q.3.2.2.563T17.85 21H6.15q-.375 0-.475-.363t.2-.562L7.5 19q-1.475 0-2.487-1.012T4 15.5M6 10h12V7H6zm10.5 2H6h12zM12 16q.625 0 1.063-.437T13.5 14.5t-.437-1.062T12 13t-1.062.438T10.5 14.5t.438 1.063T12 16m-4.5 1h9q.65 0 1.075-.425T18 15.5V12H6v3.5q0 .65.425 1.075T7.5 17M12 4q-2.15 0-3.562.25T6.45 5h11.2q-.45-.5-1.862-.75T12 4m0 1h5.65h-11.2z"/></svg>