<svg xmlns="http://www.w3.org/2000/svg" viewBox="0 0 24 24" width="24" height="24"><path fill="currentColor" d="M19.775 22.575L16 18.8l-2.6 2.6q-.3.3-.663.45T12 22t-.737-.15t-.663-.45l-8-8q-.3-.3-.45-.663T2 12t.15-.737t.45-.663L5.2 8L1.375 4.2q-.3-.3-.288-.712t.313-.713t.713-.3t.712.3l18.375 18.4q.3.3.3.7t-.3.7t-.712.3t-.713-.3M14.6 17.4l-1.5-1.5l-.4.4q-.275.275-.687.288T11.3 16.3q-.275-.275-.288-.687t.263-.713l.4-.4l-1.5-1.5H8q-.425 0-.712-.288T7 12t.288-.712T8 11h.175L6.6 9.4L4 12l8 8zM22 12q0 .375-.15.738t-.45.662l-1.85 1.85q-.275.275-.7.275t-.7-.275t-.275-.7t.275-.7L20 12l-8-8l-1.85 1.85q-.275.275-.7.275t-.7-.275t-.275-.7t.275-.7L10.6 2.6q.3-.3.663-.45T12 2t.738.15t.662.45l8 8q.3.3.45.663T22 12m-6.075 1.025l.35-.325q.325-.275.313-.7t-.313-.725L12.7 7.7q-.3-.3-.7-.3t-.7.3q-.1.1-.162.2t-.113.225zM10.6 13.4"/></svg>