<svg xmlns="http://www.w3.org/2000/svg" viewBox="0 0 24 24" width="24" height="24"><path fill="currentColor" d="M12 16.5q1.875 0 3.188-1.312T16.5 12t-1.312-3.187T12 7.5T8.813 8.813T7.5 12t1.313 3.188T12 16.5m0-3.5q-.425 0-.712-.288T11 12t.288-.712T12 11t.713.288T13 12t-.288.713T12 13m0 9q-2.075 0-3.9-.788t-3.175-2.137T2.788 15.9T2 12t.788-3.9t2.137-3.175T8.1 2.788T12 2q2.45 0 4.575 1.1T20.1 6.15q.25.35.138.75t-.463.6t-.75.1t-.675-.45q-1.125-1.5-2.8-2.325T12 4Q8.65 4 6.325 6.325T4 12t2.325 5.675T12 20q1.05 0 2.063-.275t1.912-.8q.375-.2.775-.15t.65.4t.175.763t-.425.612q-1.175.7-2.488 1.075T12 22m9-4q-.425 0-.712-.288T20 17v-6q0-.425.288-.712T21 10t.713.288T22 11v6q0 .425-.288.713T21 18m0 4q-.425 0-.712-.288T20 21t.288-.712T21 20t.713.288T22 21t-.288.713T21 22m-9-10"/></svg>