<svg xmlns="http://www.w3.org/2000/svg" viewBox="0 0 24 24" width="24" height="24"><path fill="currentColor" d="M12 5.5q.975-1.175 2.4-1.838t3-.662q2.75 0 4.675 1.925T24 9.6q0 .475-.062.938t-.188.912q-.125.425-.475.675t-.775.125q-.4-.1-.612-.45t-.088-.75q.1-.35.15-.712T22 9.6q0-1.925-1.338-3.262T17.4 5q-1.375 0-2.5.763t-2.025 1.812Q12.525 8 12 8t-.875-.425q-.875-1.05-2.013-1.812T6.6 5Q4.675 5 3.338 6.338T2 9.6q0 .375.05.738t.15.712q.1.375-.113.713T1.5 12.2q-.425.125-.775-.1t-.475-.65q-.125-.45-.188-.912T0 9.6q0-2.75 1.925-4.675T6.6 3q1.575 0 3 .663T12 5.5M1 22q-.425 0-.712-.288T0 21v-.575q0-.775.575-1.35t1.575-.85q.65-.2 1.175-.225t1.125.025q.25.025.363.237t.012.438q-.175.4-.25.812t-.075.863V21q0 .425-.288.712T3.5 22zm5-1v-.625q0-1.625 1.663-2.625t4.337-1q2.7 0 4.35 1T18 20.375V21q0 .425-.288.713T17 22H7q-.425 0-.712-.288T6 21m14.5 1q-.425 0-.712-.288T19.5 21v-.625q0-.45-.075-.862t-.25-.813q-.1-.225.013-.437t.362-.238q.6-.05 1.125-.025t1.175.225q1 .275 1.575.85t.575 1.35V21q0 .425-.288.713T23 22zM12 18.75q-1.425 0-2.55.375T8.125 20H15.9q-.225-.5-1.338-.875T12 18.75M4 17q-.825 0-1.412-.587T2 15q0-.85.588-1.425T4 13q.85 0 1.425.575T6 15q0 .825-.575 1.413T4 17m16 0q-.825 0-1.412-.587T18 15q0-.85.588-1.425T20 13q.85 0 1.425.575T22 15q0 .825-.575 1.413T20 17m-8-1q-1.25 0-2.125-.875T9 13q0-1.275.875-2.137T12 10q1.275 0 2.138.863T15 13q0 1.25-.862 2.125T12 16m0-4q-.425 0-.712.288T11 13t.288.713T12 14t.713-.288T13 13t-.288-.712T12 12m.025 8"/></svg>