<svg xmlns="http://www.w3.org/2000/svg" viewBox="0 0 24 24" width="24" height="24"><path fill="currentColor" d="M19 15.725V5q0-.425.288-.712T20 4t.713.288T21 5v10.75q0 .5-.312.75t-.688.25t-.687-.262t-.313-.763M7 4.25V3.5q0-.425.288-.712T8 2.5t.713.288T9 3.5v.75q0 .425-.288.713T8 5.25t-.712-.288T7 4.25M11 8V2q0-.425.288-.712T12 1t.713.288T13 2v6.025q0 .425-.288.7T12 9t-.712-.288T11 8m4 3.725V3q0-.425.288-.712T16 2t.713.288T17 3v8.725q0 .425-.288.713t-.712.287t-.712-.287t-.288-.713m2.925 9.025L9 11.825V15.5q0 .6-.537.888t-1.038-.063l-2.125-1.5l3.925 5.725q.125.2.35.325t.475.125H17q.25 0 .488-.062t.437-.188M10.05 23q-.75 0-1.4-.337T7.575 21.7l-5.9-8.65q-.2-.3-.175-.65t.3-.6q.475-.475 1.125-.55t1.175.3L7 13.575v-3.75L1.375 4.2q-.3-.3-.3-.712t.3-.713t.713-.3t.712.3l18.4 18.4q.3.3.3.7t-.3.7t-.712.3t-.713-.3l-.4-.375q-.5.375-1.1.588T17 23zM15 12.175"/></svg>