<svg xmlns="http://www.w3.org/2000/svg" viewBox="0 0 24 24" width="24" height="24"><path fill="currentColor" d="M5 4v6.025V10v10zv5zm0 18q-.825 0-1.412-.587T3 20V4q0-.825.588-1.412T5 2h7.175q.4 0 .763.15t.637.425l4.85 4.85q.275.275.425.638t.15.762v.7q0 .425-.288.7T18 10.5t-.712-.288T17 9.5V9h-4q-.425 0-.712-.288T12 8V4H5v16h5.5q.425 0 .713.288T11.5 21t-.288.713T10.5 22zm11.5-3q1.05 0 1.775-.725T19 16.5t-.725-1.775T16.5 14t-1.775.725T14 16.5t.725 1.775T16.5 19m5.8 3.3q-.275.275-.7.275t-.7-.275l-2-2q-.525.35-1.137.525T16.5 21q-1.875 0-3.187-1.312T12 16.5t1.313-3.187T16.5 12t3.188 1.313T21 16.5q0 .65-.175 1.263T20.3 18.9l2 2q.275.275.275.7t-.275.7"/></svg>