<svg xmlns="http://www.w3.org/2000/svg" viewBox="0 0 24 24" width="24" height="24"><path fill="currentColor" d="M8 17h8q.425 0 .713-.288T17 16t-.288-.712T16 15H8q-.425 0-.712.288T7 16t.288.713T8 17m3-6.85l-.9-.875Q9.825 9 9.413 9t-.713.3q-.275.275-.275.7t.275.7l2.6 2.6q.3.3.7.3t.7-.3l2.6-2.6q.275-.275.287-.687T15.3 9.3q-.275-.275-.687-.288t-.713.263l-.9.875V7q0-.425-.288-.712T12 6t-.712.288T11 7zM12 22q-2.075 0-3.9-.788t-3.175-2.137T2.788 15.9T2 12t.788-3.9t2.137-3.175T8.1 2.788T12 2t3.9.788t3.175 2.137T21.213 8.1T22 12t-.788 3.9t-2.137 3.175t-3.175 2.138T12 22m0-2q3.35 0 5.675-2.325T20 12t-2.325-5.675T12 4T6.325 6.325T4 12t2.325 5.675T12 20m0-8"/></svg>