<svg xmlns="http://www.w3.org/2000/svg" viewBox="0 0 24 24" width="24" height="24"><path fill="currentColor" d="M15.075 20h1.4v-2.075l2.55-.6q.525-.125 1.088-.288t.562-.512q0-.2-.2-.362t-.675-.313q-.95-.275-1.45-.85t-.45-1.225q.05-.525.488-.937t1.237-.688q.7-.25 1.038-.562T21 10.85q0-.5-.425-.762T19.65 10q-.15.05-.312.075t-.313.025q-.65 0-1.088-.5T17.5 8.375q0-.65.338-1.187T18.175 6q0-.425-.363-.712T16.926 5q-.725 0-1.012.313T15.625 6.5q0 .425.038.825t.037.825q0 1.125-.4 1.65t-1.25.525q-.275 0-.575-.075t-.575-.075q-.15 0-.238.063t-.087.187q0 .25.3.5t.575.475q.65.575.95 1.1t.3 1.05q0 .675-.487 1.15t-1.188.475q-.275 0-.525-.05t-.525-.075q-.7-.05-1.075.125t-.375.525t.325.575t.95.325l3.275.525zm-12.15.6q-.375-.175-.525-.575t.025-.775L6.6 10.075q.175-.375.55-.525t.75.025t.525.575t-.025.775L4.225 20.1q-.175.375-.55.525t-.75-.025m11.15 1.4q-.425 0-.712-.288T13.075 21v-2.2l-1.425-.2q-1.375-.2-2.238-.987t-.862-1.838q0-1.2.988-2.013t2.362-.737q.125 0 .213.013t.187.037q-.2-.2-.375-.363t-.325-.337q-.5-.55-.725-1.012t-.225-.938q0-.95.538-1.562T12.6 8.25q.175 0 .475.013t.65.062q.05-.5 0-1.025t-.05-1.025q0-1.575.85-2.425T16.95 3q1.4 0 2.338.8t.912 1.95q0 .575-.2 1.125t-.45 1.075q.125-.025.263-.038t.262-.012q1.2 0 2.063.862T23 10.875q0 1.075-.763 1.938T20.45 13.95q.175.05.325.1t.3.125q.725.35 1.175.988t.45 1.387q0 .95-.837 1.663T19.475 19.3l-1 .25V21q0 .425-.288.713t-.712.287zm-9.9-12.15q-.3.3-.738.275t-.662-.375q-.4-.6-.587-1.3T2 7.025q0-2.1 1.45-3.562T7 2q.725 0 1.425.213t1.325.612q.35.225.375.638t-.275.712t-.725.313T8.3 4.3q-.3-.15-.625-.225T7 4q-1.25 0-2.125.875T4 7q0 .35.075.675t.2.625q.2.4.2.825t-.3.725m11.6 3.925"/></svg>