<svg xmlns="http://www.w3.org/2000/svg" viewBox="0 0 24 24" width="24" height="24"><path fill="currentColor" d="M5 21q-.425 0-.712-.288T4 20v-2.425q0-.4.15-.763t.425-.637L17.175 3.6q.3-.3.675-.45T18.6 3q.4 0 .763.15T20 3.6L21.4 5q.3.275.45.638T22 6.4q0 .375-.15.75t-.45.675l-12.575 12.6q-.275.275-.637.425t-.763.15zm1-2h1.4l9.825-9.8l-.7-.725l-.725-.7L6 17.6zM20 6.425L18.575 5zm-3.475 2.05l-.725-.7L17.225 9.2zM14 21q1.85 0 3.425-.925T19 17.5q0-.8-.4-1.388t-1.05-1.087q-.35-.25-.75-.25t-.675.3t-.275.738t.35.687q.35.275.575.5t.225.5q0 .575-.913 1.038T14 19q-.425 0-.712.288T13 20t.288.713T14 21M9 6q0 .35-.437.638T6.55 7.65q-2 .875-2.775 1.588T3 11q0 .65.3 1.15t.775.875q.325.275.725.238t.675-.363t.25-.725t-.35-.675q-.175-.125-.275-.25T5 11q0-.3.45-.6t1.9-.925q2.2-.95 2.925-1.725T11 6q0-1.375-1.1-2.187T7 3q-1.125 0-2.013.4t-1.362.975Q3.35 4.7 3.4 5.1t.375.65q.325.275.725.225t.675-.325q.35-.35.775-.5T7 5q1.025 0 1.513.3T9 6"/></svg>