<svg xmlns="http://www.w3.org/2000/svg" viewBox="0 0 24 24" width="24" height="24"><path fill="currentColor" d="M6 22q-1.65 0-2.825-1.175T2 18v-5.4q0-.775.363-1.437t1.012-1.088l7.65-4.975q.275-.175.575-.137t.525.262q.5.5.588 1.188T12.425 7.7L11.3 9.5H19q.425 0 .713.288T20 10.5t-.288.713T19 11.5H9.5q-.575 0-.875-.513t.025-1.012L9.625 8.4L4.45 11.75q-.225.125-.338.35T4 12.6V18q0 .825.587 1.413T6 20h12q.425 0 .713.288T19 21t-.288.713T18 22zm15-7h-8q-.425 0-.712-.288T12 14t.288-.712T13 13h8q.425 0 .713.288T22 14t-.288.713T21 15m-1 3.5h-7q-.425 0-.712-.288T12 17.5t.288-.712T13 16.5h7q.425 0 .713.288T21 17.5t-.288.713T20 18.5M14.225 5.05q-.6-.8-.9-1.525t-.3-1.575q0-.4.275-.675T13.975 1t.663.275t.287.675q.05.725.35 1.2t.75 1.125q.5.675.725 1.325t.225 1.425q0 .425-.275.7T16 8q-.4 0-.675-.288t-.275-.687q-.025-.55-.213-.987t-.612-.988m4 0q-.6-.8-.888-1.525T17.05 1.95q0-.4.275-.675T18 1q.375 0 .638.275t.287.675q.05.725.35 1.2t.75 1.125q.5.675.725 1.325t.225 1.425q0 .4-.275.688T20.025 8t-.675-.275t-.275-.675q-.025-.575-.225-1.012t-.625-.988"/></svg>