<svg xmlns="http://www.w3.org/2000/svg" viewBox="0 0 24 24" width="24" height="24"><path fill="currentColor" d="M19.5 23h-2q-.625 0-1.062-.425T16 21.5V18h-1.5v-2H17q.425 0 .713.288T18 17v4h1v-4q0-.425.288-.712T20 16h1v-2h-6.5v-2h7q.65 0 1.075.438T23 13.5v3q0 .65-.425 1.075T21.5 18H21v3.5q0 .65-.425 1.075T19.5 23M8.4 15q0-1.675 1.213-2.838T12.5 11h1q.425 0 .713.288T14.5 12v6q0 .425-.288.713T13.5 19h-1q-1.675 0-2.887-1.15T8.4 15m2 0q0 .875.613 1.5t1.487.625V12.9q-.875 0-1.487.613T10.4 15m-5.9-2q-.65 0-1.075-.425T3 11.5V8h-.5q-.65 0-1.075-.425T1 6.5v-3q0-.625.425-1.062T2.5 2h7v2H3v2h1q.425 0 .713.288T5 7v4h1V7q0-.425.288-.712T7 6h2.5v2H8v3.5q0 .65-.437 1.075T6.5 13zm5-5V2q0-.425.288-.712T10.5 1h1q1.675 0 2.888 1.163T15.6 5q0 1.7-1.212 2.85T11.5 9h-1q-.425 0-.712-.288T9.5 8m2-.875q.875 0 1.488-.625T13.6 5t-.612-1.487T11.5 2.9zM5.5 5"/></svg>