<svg xmlns="http://www.w3.org/2000/svg" viewBox="0 0 24 24" width="24" height="24"><path fill="currentColor" d="M17 21q-1.25 0-2.125-.875T14 18t.875-2.125T17 15t2.125.875T20 18t-.875 2.125T17 21m0-7q-.325 0-.537-.213t-.213-.537v-.5q0-.325.213-.537T17 12t.538.213t.212.537v.5q0 .325-.213.538T17 14m0 8q.325 0 .538.213t.212.537v.5q0 .325-.213.538T17 24t-.537-.213t-.213-.537v-.5q0-.325.213-.537T17 22m2.85-6.85q-.225-.225-.225-.538t.225-.537l.35-.35q.225-.225.525-.213t.525.238t.225.525t-.225.525l-.35.35q-.225.225-.525.225t-.525-.225m-5.675 5.675q.225.225.225.525t-.225.525l-.375.375q-.225.225-.525.225t-.525-.225t-.225-.525t.225-.525l.375-.375q.225-.225.525-.225t.525.225M21 18q0-.325.213-.537t.537-.213h.5q.325 0 .538.213T23 18t-.213.538t-.537.212h-.5q-.325 0-.537-.213T21 18m-8 0q0 .325-.213.538t-.537.212h-.5q-.325 0-.537-.213T11 18t.213-.537t.537-.213h.5q.325 0 .538.213T13 18m6.85 2.825q.225-.225.525-.213t.525.213l.375.35q.225.225.225.525t-.225.525t-.537.225t-.538-.225l-.35-.35q-.2-.225-.213-.525t.213-.525m-5.675-5.675q-.225.225-.537.225t-.538-.225l-.35-.35q-.2-.225-.212-.525t.212-.525t.525-.213t.525.213l.375.35q.225.225.225.525t-.225.525M5 22q-.825 0-1.412-.587T3 20V6q0-.825.588-1.412T5 4h1V3q0-.425.288-.712T7 2t.713.288T8 3v1h8V3q0-.425.288-.712T17 2t.713.288T18 3v1h1q.825 0 1.413.588T21 6v3q0 .425-.288.713T20 10H5v10h3q.425 0 .713.288T9 21t-.288.713T8 22zM5 8h14V6H5zm0 0V6z"/></svg>