<svg xmlns="http://www.w3.org/2000/svg" viewBox="0 0 24 24" width="24" height="24"><path fill="currentColor" d="M8 2q.425 0 .713.288T9 3v8q0 .425-.288.713T8 12t-.712-.288T7 11V3q0-.425.288-.712T8 2m4-1q.425 0 .713.288T13 2v9q0 .425-.288.713T12 12t-.712-.288T11 11V2q0-.425.288-.712T12 1m3 15.075V4q0-.425.288-.712T16 3t.713.288T17 4v10.9zM5 16v3q0 .825.588 1.413T7 21h6.675q.2 0 .375-.088t.325-.212l4.55-4.55l-5.65 3.275q-.65.375-1.4.225t-1.2-.75L8.5 16zm2 7q-1.65 0-2.825-1.175T3 19v-5h5.5q.475 0 .9.213t.7.587l2.15 2.875L17 14.9l2.25-1.3q.525-.3 1.113-.262t1.087.387q.625.475.675 1.25t-.5 1.325L15.8 22.125q-.425.425-.975.65t-1.15.225zm-2-9H3V5q0-.425.288-.712T4 4t.713.288T5 5zm0-2h10zm2 9h7.375z"/></svg>