<svg xmlns="http://www.w3.org/2000/svg" viewBox="0 0 24 24" width="24" height="24"><path fill="currentColor" d="M4 10.2q0-3.75 2.413-5.975T12 2h.25q.425 0 .713.288T13.25 3t-.288.713T12.25 4H12Q9.475 4 7.738 5.738T6 10.2q0 1.775 1.475 4.063T12 19.35q3.05-2.8 4.525-5.087T18 10.2q0-.425.288-.712T19 9.2t.713.288t.287.712q0 2.35-1.7 5.038t-4.975 5.587q-.275.25-.625.375t-.7.125t-.7-.125t-.625-.375Q9.05 19.325 7.8 17.9t-2.087-2.762t-1.275-2.575T4 10.2m9.4.5l5.55-5.55q.15-.15.15-.35t-.15-.35l-1.4-1.4q-.15-.15-.35-.15t-.35.15L11.3 8.6q-.15.15-.225.338T11 9.325v.925q0 .325.213.538t.537.212h.925q.2 0 .388-.075t.337-.225m6.25-6.95q.15.15.35.15t.35-.15l.35-.35q.275-.275.275-.7T20.7 2l-.7-.7q-.275-.275-.7-.275t-.7.275l-.35.35q-.15.15-.15.35t.15.35z"/></svg>