<svg xmlns="http://www.w3.org/2000/svg" viewBox="0 0 24 24" width="24" height="24"><path fill="currentColor" d="M5 14q-.425 0-.712-.288T4 13t.288-.712T5 12h5q.425 0 .713.288T11 13t-.288.713T10 14zm0-4q-.425 0-.712-.288T4 9t.288-.712T5 8h9q.425 0 .713.288T15 9t-.288.713T14 10zm0-4q-.425 0-.712-.288T4 5t.288-.712T5 4h9q.425 0 .713.288T15 5t-.288.713T14 6zm8 13v-1.65q0-.2.075-.387t.225-.338l5.225-5.2q.225-.225.5-.325t.55-.1q.3 0 .575.113t.5.337l.925.925q.2.225.313.5t.112.55t-.1.563t-.325.512l-5.2 5.2q-.15.15-.337.225T15.65 20H14q-.425 0-.712-.287T13 19m7.5-5.575l-.925-.925zm-6 5.075h.95l3.025-3.05l-.45-.475l-.475-.45l-3.05 3.025zm3.525-3.525l-.475-.45l.925.925z"/></svg>