<svg xmlns="http://www.w3.org/2000/svg" viewBox="0 0 24 24" width="24" height="24"><path fill="currentColor" d="M12 22q-.825 0-1.412-.587T10 20h4q0 .825-.587 1.413T12 22m7-3H5q-.425 0-.712-.288T4 18t.288-.712T5 17h1v-7q0-2.075 1.25-3.687T10.5 4.2v-.7q0-.625.438-1.062T12 2t1.063.438T13.5 3.5v.7q.25.05.475.113t.425.187q.35.2.525.563t0 .737t-.537.538t-.738.012q-.55-.225-.9-.288T12 6q-1.65 0-2.825 1.175T8 10v7h8v-2q0-.5.313-.75T17 14t.688.25T18 15v2h1q.425 0 .713.288T20 18t-.288.713T19 19m-7-7v-1.65q0-.2.075-.387t.225-.338l5.225-5.2q.225-.225.5-.325t.55-.1q.3 0 .575.112t.5.338l.925.925q.2.225.313.5t.112.55t-.1.563t-.325.512l-5.2 5.2q-.15.15-.337.225T14.65 13H13q-.425 0-.712-.288T12 12m7.5-5.575l-.925-.925zm-6 5.075h.95l3.025-3.05l-.45-.475l-.475-.45l-3.05 3.025zm3.525-3.525l-.475-.45l.925.925z"/></svg>