<svg xmlns="http://www.w3.org/2000/svg" viewBox="0 0 24 24" width="24" height="24"><path fill="currentColor" d="m20.425 7.825l-4.175 4.15q-.275.275-.687.288t-.713-.288q-.275-.275-.275-.7t.275-.7l1.35-1.35L14.775 7.8l-1.35 1.35q-.275.275-.7.275t-.7-.275t-.275-.7t.275-.7L16.2 3.575q.3-.3.663-.437T17.625 3t.775.15t.65.45L20.425 5q.3.275.437.65T21 6.4q0 .4-.138.763t-.437.662M5 19h1.425l4.875-4.875l-.7-.725l-.725-.7L5 17.575zm14.1 2.9l-6.375-6.35l-4.9 4.875q-.275.275-.638.425t-.762.15H4q-.425 0-.713-.288T3 20v-2.4q0-.4.15-.763t.425-.637l4.9-4.9L2.1 4.9q-.3-.3-.288-.7t.313-.7t.713-.3t.712.3l16.975 16.975q.3.3.288.713t-.313.712t-.7.3t-.7-.3M19 6.4L17.6 5zm-4.225 1.4L16.2 9.225zM10.6 13.4l-.725-.7l1.425 1.425z"/></svg>