<svg xmlns="http://www.w3.org/2000/svg" viewBox="0 0 24 24" width="24" height="24"><path fill="currentColor" d="M14 21v-1.65q0-.2.075-.387t.225-.338l5.225-5.2q.225-.225.5-.325t.55-.1q.3 0 .575.113t.5.337l.925.925q.2.225.313.5t.112.55t-.1.563t-.325.512l-5.2 5.2q-.15.15-.337.225T16.65 22H15q-.425 0-.712-.287T14 21m7.5-5.575l-.925-.925zm-6 5.075h.95l3.025-3.05l-.925-.925l-3.05 3.025zM6 22q-.825 0-1.412-.587T4 20V4q0-.825.588-1.412T6 2h7.175q.4 0 .763.15t.637.425l4.85 4.85q.275.275.425.638t.15.762v1.425q0 .425-.288.713T19 11.25t-.712-.288T18 10.25V9h-4q-.425 0-.712-.288T13 8V4H6v16h5q.425 0 .713.288T12 21t-.288.713T11 22zm0-2V4zm13.025-3.025l-.475-.45l.925.925z"/></svg>