<svg xmlns="http://www.w3.org/2000/svg" viewBox="0 0 24 24" width="24" height="24"><path fill="currentColor" d="M5 17q-2.125 0-3.562-1.437T0 12t1.463-3.562T5 7q1.925 0 3.238 1.15T9.9 11h.65l-1.8-5H8q-.425 0-.712-.288T7 5t.288-.712T8 4h3q.425 0 .713.288T12 5t-.288.713T11 6h-.1l.35 1h4.8L14.6 3H13q-.425 0-.712-.288T12 2t.288-.712T13 1h1.6q.65 0 1.163.35t.737.95l1.7 4.65h.8q2.075 0 3.538 1.463T24 11.95q0 2.1-1.45 3.575T19 17q-1.8 0-3.162-1.125T14.1 13H9.9q-.35 1.725-1.7 2.863T5 17m0-2q1.025 0 1.763-.562T7.8 13H6q-.425 0-.712-.288T5 12t.288-.712T6 11h1.8q-.3-.9-1.037-1.45T5 9q-1.275 0-2.137.863T2 12q0 1.25.863 2.125T5 15m7.7-4h1.4q.125-.575.338-1.075T15 9h-3.05zm6.3 4q1.275 0 2.138-.875T22 12q0-1.275-.862-2.137T19 9h-.1l.65 1.725q.15.4-.025.763T18.95 12t-.775-.025t-.525-.575l-.6-1.7q-.5.425-.775 1T16 12q0 1.25.863 2.125T19 15m-6 6v1.2q0 .275-.238.425t-.487.025L7.95 20.475q-.175-.1-.138-.288T8.05 20H11v-1.2q0-.275.238-.425t.487-.025l4.325 2.175q.175.1.138.288T15.95 21zm6-9"/></svg>