<svg xmlns="http://www.w3.org/2000/svg" viewBox="0 0 24 24" width="24" height="24"><path fill="currentColor" d="M11 22q-3.35 0-5.675-2.325T3 14q0-2.825 1.675-5.425t4.6-4.55q.55-.375 1.137-.038T11 5v1.3q0 .85.588 1.425t1.437.575q.425 0 .813-.188t.687-.537q.2-.25.513-.312t.587.137Q17.2 8.525 18.1 10.275T19 14q0 3.35-2.325 5.675T11 22m-6-8q0 1.3.525 2.463t1.5 2.037Q7 18.375 7 18.275v-.225q0-.8.3-1.5t.875-1.275L11 12.5l2.825 2.775q.575.575.875 1.275t.3 1.5v.225q0 .1-.025.225q.975-.875 1.5-2.037T17 14q0-1.25-.462-2.363T15.2 9.65q-.5.325-1.05.488t-1.125.162q-1.55 0-2.687-1.025T9.025 6.75q-1.95 1.65-2.988 3.513T5 14m6 1.3l-1.425 1.4q-.275.275-.425.625T9 18.05q0 .8.587 1.375T11 20t1.412-.575T13 18.05q0-.4-.15-.737t-.425-.613zM21 11q-.425 0-.712-.288T20 10t.288-.712T21 9t.713.288T22 10t-.288.713T21 11m0-3q-.425 0-.712-.288T20 7V4q0-.425.288-.712T21 3t.713.288T22 4v3q0 .425-.288.713T21 8"/></svg>