<svg xmlns="http://www.w3.org/2000/svg" viewBox="0 0 24 24" width="24" height="24"><path fill="currentColor" d="M5 21q-.425 0-.712-.288T4 20t.288-.712T5 19h14q.425 0 .713.288T20 20t-.288.713T19 21zm3-4q-1.65 0-2.825-1.175T4 13V5.225q0-.925.65-1.575T6.225 3H20q.825 0 1.413.588T22 5v3q0 .825-.587 1.413T20 10h-2v3q0 1.65-1.175 2.825T14 17zM8 5h8H6zm10 3h2V5h-2zm-4 7q.825 0 1.413-.587T16 13V5h-6v.4l1.8 1.45q.05.05.2.4v4.25q0 .2-.15.35t-.35.15h-4q-.2 0-.35-.15T7 11.5V7.25q0-.05.2-.4L9 5.4V5H6v8q0 .825.588 1.413T8 15zM9 5h1z"/></svg>