<svg xmlns="http://www.w3.org/2000/svg" viewBox="0 0 24 24" width="24" height="24"><path fill="currentColor" d="M12 12.675L9.625 10.3q-.275-.275-.687-.275t-.713.275q-.3.3-.3.713t.3.712L11.3 14.8q.3.3.7.3t.7-.3l3.1-3.1q.3-.3.287-.7t-.312-.7q-.3-.275-.7-.288t-.7.288zM12 22q-2.075 0-3.9-.788t-3.175-2.137T2.788 15.9T2 12t.788-3.9t2.137-3.175T8.1 2.788T12 2t3.9.788t3.175 2.137T21.213 8.1T22 12t-.788 3.9t-2.137 3.175t-3.175 2.138T12 22m0-2q3.35 0 5.675-2.325T20 12t-2.325-5.675T12 4T6.325 6.325T4 12t2.325 5.675T12 20m0-8"/></svg>