<svg xmlns="http://www.w3.org/2000/svg" viewBox="0 0 24 24" width="24" height="24"><path fill="currentColor" d="M15.5 12q-.425 0-.712-.288T14.5 11t.288-.712T15.5 10t.713.288t.287.712t-.288.713T15.5 12m-5 0q-.425 0-.712-.288T9.5 11t.288-.712T10.5 10t.713.288t.287.712t-.288.713T10.5 12m-.1-7.775Q9.05 4.6 8.025 5.513T6.45 7.7q1.325-.4 2.35-1.312t1.6-2.163M11.825 4q.825 1.425 2.263 2.238T17.175 7q-.825-1.425-2.262-2.238T11.825 4M20 10q0 1.8-.712 3.313T17.35 15.95q-.4.35-.8.3t-.675-.325t-.288-.675t.338-.7q.95-.825 1.513-2T18 10q0-.275-.025-.525T17.9 8.95q-1.85.2-3.575-.413T11.3 6.6q-.95 1.3-2.337 2.15T6 9.875q-.05 1.4.525 2.6t1.55 2.05q.35.325.338.725t-.288.675t-.675.325t-.8-.3q-1.225-1.125-1.937-2.637T4 10q0-3.35 2.325-5.675T12 2t5.675 2.325T20 10m-7.825 10H9q-.425 0-.712-.288T8 19t.288-.712T9 18h3.175l-.875-.875q-.275-.3-.288-.712t.288-.713t.7-.3t.7.3l2.6 2.6q.3.3.3.7t-.3.7l-2.6 2.6q-.3.3-.7.3t-.7-.3t-.287-.712t.287-.713zm-.35-16"/></svg>