<svg xmlns="http://www.w3.org/2000/svg" viewBox="0 0 24 24" width="24" height="24"><path fill="currentColor" d="M12 22q-2.05 0-3.875-.788t-3.188-2.15q-1.362-1.362-2.15-3.187T2 12q0-2.15.825-3.988t2.212-3.175Q6.425 3.5 8.226 2.75T12 2q.975 0 2 .213t2 .637l-2.75 1.275q-.3-.05-.613-.088T12 4q-.35 0-.675.025t-.675.1q1.05 1.75 2.85 2.813T17.5 8h.35l.875 1.925q-2.25.275-4.7-.525T9.75 6.3q-.875 2.125-2.388 3.5T4 11.85q0 3.475 2.337 5.813T12 20q3.4 0 5.725-2.4T20 12q0-.35-.025-.613t-.075-.637l1.25-2.775q.45 1.05.65 2.025t.2 2q0 2-.763 3.813T19.137 19q-1.337 1.375-3.162 2.188T12 22ZM4.425 9.475Q5.7 8.75 6.65 7.6t1.425-2.575Q6.8 5.75 5.85 6.9T4.425 9.475ZM9 14.25q-.525 0-.888-.363T7.75 13q0-.525.363-.888T9 11.75q.525 0 .888.363t.362.887q0 .525-.363.888T9 14.25Zm6 0q-.525 0-.888-.363T13.75 13q0-.525.363-.888T15 11.75q.525 0 .888.363t.362.887q0 .525-.363.888T15 14.25Zm4.5-6.95q-.125 0-.25-.075T19.05 7l-.65-1.4l-1.4-.65q-.15-.075-.225-.2T16.7 4.5q0-.125.075-.25t.225-.2l1.4-.65l.65-1.4q.075-.15.2-.225t.25-.075q.125 0 .25.075t.2.225l.65 1.4l1.4.65q.15.075.225.2t.075.25q0 .125-.075.25t-.225.2l-1.4.65l-.65 1.4q-.075.15-.2.225t-.25.075Zm-3.6-.5ZM8.075 5.025Z"/></svg>