<svg xmlns="http://www.w3.org/2000/svg" viewBox="0 0 24 24" width="24" height="24"><path fill="currentColor" d="M12 22.5q-1.575 0-2.662-1.088T8.25 18.75q0-1.3.775-2.287T11 15.124V13H7q-.825 0-1.412-.587T5 11V9H3.5q-.425 0-.712-.288T2.5 8V3q0-.425.288-.712T3.5 2h5q.425 0 .713.288T9.5 3v5q0 .425-.288.713T8.5 9H7v2h10V8.875q-1.2-.35-1.975-1.338T14.25 5.25q0-1.575 1.088-2.662T18 1.5t2.663 1.088T21.75 5.25q0 1.3-.775 2.288T19 8.875V11q0 .825-.587 1.413T17 13h-4v2.125q1.2.35 1.975 1.338t.775 2.287q0 1.575-1.088 2.663T12 22.5M18 7q.725 0 1.238-.513t.512-1.237t-.513-1.237T18 3.5t-1.237.513t-.513 1.237t.513 1.238T18 7M4.5 7h3V4h-3zM12 20.5q.725 0 1.238-.513t.512-1.237t-.513-1.237T12 17t-1.237.513t-.513 1.237t.513 1.238T12 20.5m0-1.75"/></svg>