<svg xmlns="http://www.w3.org/2000/svg" viewBox="0 0 24 24" width="24" height="24"><path fill="currentColor" d="M5 21q-1.25 0-2.125-.875T2 18v-7q0-1.25.875-2.125T5 8q.675 0 1.238.275T7.225 9H8V6q0-.825.588-1.412T10 4h6q.825 0 1.413.588T18 6v3h1q1.25 0 2.125.875T22 12v6q0 .825-.587 1.413T20 20H7.225q-.425.45-.987.725T5 21m0-2q.425 0 .713-.288T6 18v-7q0-.425-.288-.712T5 10t-.712.288T4 11v7q0 .425.288.713T5 19m5-10h6V6h-6zm-2 9h12v-6q0-.425-.288-.712T19 11H8zm7-4q.425 0 .713-.288T16 13t-.288-.712T15 12t-.712.288T14 13t.288.713T15 14m3 0q.425 0 .713-.288T19 13t-.288-.712T18 12t-.712.288T17 13t.288.713T18 14m-3 3q.425 0 .713-.288T16 16t-.288-.712T15 15t-.712.288T14 16t.288.713T15 17m3 0q.425 0 .713-.288T19 16t-.288-.712T18 15t-.712.288T17 16t.288.713T18 17m-8 0h2q.425 0 .713-.288T13 16v-3q0-.425-.288-.712T12 12h-2q-.425 0-.712.288T9 13v3q0 .425.288.713T10 17m-2 1v-7z"/></svg>