<svg xmlns="http://www.w3.org/2000/svg" viewBox="0 0 24 24" width="24" height="24"><path fill="currentColor" d="M4 22q-.825 0-1.412-.587T2 20V6q0-.825.588-1.412T4 4h4.05q.425 0 .713.288T9.05 5t-.288.713T8.05 6H4v14h14v-5q0-.425.288-.712T19 14t.713.288T20 15v5q0 .825-.587 1.413T18 22zM19.3 8.9l2.5 2.5q.275.275.275.7t-.275.7t-.7.275t-.7-.275l-2.5-2.5q-.525.3-1.125.5T15.5 11q-1.875 0-3.187-1.312T11 6.5t1.313-3.187T15.5 2t3.188 1.313T20 6.5q0 .675-.2 1.275T19.3 8.9m-3.8.1q1.05 0 1.775-.725T18 6.5t-.725-1.775T15.5 4t-1.775.725T13 6.5t.725 1.775T15.5 9M4 13.25V20V6v7v-.3z"/></svg>