<svg xmlns="http://www.w3.org/2000/svg" viewBox="0 0 24 24" width="24" height="24"><path fill="currentColor" d="M13.5 13q.425 0 .713-.288T14.5 12q0-.175-.038-.312t-.112-.263q.275-.1.463-.35T15 10.5q0-.425-.287-.712T14 9.5q-.325 0-.575.175t-.35.475L9.425 8.4q.05-.1.063-.2T9.5 8q0-.425-.288-.712T8.5 7t-.712.288T7.5 8q0 .15.05.288t.125.262q-.275.1-.475.35t-.2.6q0 .425.288.712T8 10.5q.35 0 .6-.187t.35-.488l3.65 1.75l-.1.425q0 .425.288.713T13.5 13m-4.4 1.225q-.5-.125-1.187-.288t-1.438-.462q-.65-.25-1.312-.587t-1.338-.763q-.375-.25-.437-.687t.212-.813q.25-.35.675-.4t.775.2q.9.65 1.838 1.037t1.7.588t1.25.275l.487.075q.45.025.713.375t.187.8l-.1.7q-.1.7-.125 1.775t.088 2.387T11.6 21q.125.35-.125.638t-.625.337t-.762-.15t-.563-.85q-.275-1.025-.4-2.013t-.15-1.862T9 15.488t.1-1.263q-.025 0 0 0m8.925-6.075q.475.725.725 1.55t.25 1.725V21q0 .425-.287.713T18 22t-.712-.288T17 21v-9.575q0-1.2-.638-2.175T14.65 7.775L8.95 5.2q-.425-.2-.55-.65t.15-.85q.2-.3.55-.388t.7.063l5.675 2.575q.8.35 1.438.912t1.112 1.288M12 22q-.625-1.3-.825-2.775t-.187-2.725t.125-2.087l.112-.838q.075-.45-.187-.8t-.713-.375l-.6-.088q-.6-.087-1.5-.374t-1.962-.8T4.225 9.75q.975.875 2.038 1.388t1.962.8t1.5.374l.6.088q.45.025.713.375t.187.8l-.112.838q-.113.837-.125 2.087t.187 2.725T12 22"/></svg>