<svg xmlns="http://www.w3.org/2000/svg" viewBox="0 0 24 24" width="24" height="24"><path fill="currentColor" d="m15.575 1.575l4.85 4.85q.275.275.425.638t.15.762v7.925q0 .5-.312.738t-.688.237t-.687-.25t-.313-.75V8h-3.5q-.625 0-1.062-.437T14 6.5V3H7q-.425 0-.712-.288T6 2t.288-.712T7 1h7.175q.4 0 .763.15t.637.425M8 17h6.2L8 10.8zm8.2 2H8q-.825 0-1.412-.587T6 17V8.8L1.4 4.2q-.275-.275-.275-.7t.275-.7t.7-.275t.7.275l18.4 18.4q.275.275.275.7t-.275.7t-.7.275t-.7-.275zM4 23q-.825 0-1.412-.587T2 21V9q0-.425.288-.712T3 8t.713.288T4 9v12h11q.425 0 .713.288T16 22t-.288.713T15 23z"/></svg>