<svg xmlns="http://www.w3.org/2000/svg" viewBox="0 0 24 24" width="24" height="24"><path fill="currentColor" d="M6.5 11.5v-1h1v1zm10 3.5h1q.625 0 1.063-.437T19 13.5v-.75q0-.325-.213-.537T18.25 12t-.537.213t-.213.537v.75h-1v-3h1.75q.325 0 .538-.213T19 9.75t-.213-.537T18.25 9H16.5q-.625 0-1.062.438T15 10.5v3q0 .625.438 1.063T16.5 15m-10-2H8q.425 0 .713-.288T9 12v-2q0-.425-.288-.712T8 9H5.5q-.2 0-.35.15T5 9.5v4.75q0 .325.213.538T5.75 15t.538-.213t.212-.537zm5-.4l.8 1.95q.1.2.288.325T13 15h.25q.325 0 .538-.213T14 14.25v-4.5q0-.325-.213-.537T13.25 9t-.537.213t-.213.537v1.6l-.8-1.9q-.1-.2-.288-.325T11 9h-.25q-.325 0-.537.213T10 9.75v4.5q0 .325.213.538t.537.212t.538-.213t.212-.537zM4 20q-.825 0-1.412-.587T2 18V6q0-.825.588-1.412T4 4h16q.825 0 1.413.588T22 6v12q0 .825-.587 1.413T20 20zm0-2h16V6H4zm0 0V6zm0 0V6z"/></svg>