<svg xmlns="http://www.w3.org/2000/svg" viewBox="0 0 24 24" width="24" height="24"><path fill="currentColor" d="m15 7l-3.35 6.7q-.225.45.038.875t.762.425q.275 0 .475-.137t.325-.363l3.65-7.3q.05-.1.1-.425V6q0-.425-.288-.712T16 5h-4q-.425 0-.712.288T11 6t.288.713T12 7zM8 18q-.825 0-1.412-.587T6 16V4q0-.825.588-1.412T8 2h12q.825 0 1.413.588T22 4v12q0 .825-.587 1.413T20 18zm0-2h12V4H8zm-4 6q-.825 0-1.412-.587T2 20V7q0-.425.288-.712T3 6t.713.288T4 7v13h13q.425 0 .713.288T18 21t-.288.713T17 22zM8 4v12z"/></svg>