<svg xmlns="http://www.w3.org/2000/svg" viewBox="0 0 24 24" width="24" height="24"><path fill="currentColor" d="M13 15h2q.825 0 1.413-.587T17 13v-2q0-.825-.587-1.412T15 9h-2V7h2q.425 0 .713-.288T16 6t-.288-.712T15 5h-2q-.825 0-1.412.588T11 7v6q0 .825.588 1.413T13 15m0-4h2v2h-2zm-5 7q-.825 0-1.412-.587T6 16V4q0-.825.588-1.412T8 2h12q.825 0 1.413.588T22 4v12q0 .825-.587 1.413T20 18zm0-2h12V4H8zm-4 6q-.825 0-1.412-.587T2 20V7q0-.425.288-.712T3 6t.713.288T4 7v13h13q.425 0 .713.288T18 21t-.288.713T17 22zM8 4v12z"/></svg>