<svg xmlns="http://www.w3.org/2000/svg" viewBox="0 0 24 24" width="24" height="24"><path fill="currentColor" d="M3.775 21.3L2.8 18.05q-.375-.425-.587-.937T2 16V8q0-.6.213-1.112T2.8 5.95l.975-3.25q.1-.325.363-.513T4.75 2h4.5q.35 0 .613.188t.362.512l.975 3.25q.375.425.588.938T12 8v8q0 .6-.213 1.113t-.587.937l-.975 3.25q-.1.325-.362.513T9.25 22h-4.5q-.35 0-.612-.187t-.363-.513M5.5 20h3l.3-1H5.2zM5 17h4q.425 0 .713-.288T10 16V8q0-.425-.288-.712T9 7H5q-.425 0-.712.288T4 8v8q0 .425.288.713T5 17m.2-12h3.6l-.3-1h-3zM16 22q-.825 0-1.412-.587T14 20V9q-.425 0-.712-.288T13 8V7q0-.425.288-.712T14 6V4q0-.825.588-1.412T16 2h4q.825 0 1.413.588T22 4v2q.425 0 .713.288T23 7v1q0 .425-.288.713T22 9v11q0 .825-.587 1.413T20 22zm0-13.5V20h4V8.5zm0-2h4V4h-4zM7 5"/></svg>