<svg xmlns="http://www.w3.org/2000/svg" viewBox="0 0 24 24" width="24" height="24"><path fill="currentColor" d="M6 21q-.425 0-.712-.288T5 20V5q0-.425.288-.712T6 4h4.125q.425 0 .713.288t.287.712t-.288.713t-.712.287H7v6h6.425q.35 0 .625.225t.35.575l.25 1.2H18v-.45q0-.425.288-.712T19 12.55t.713.288t.287.712V15q0 .425-.288.713T19 16h-5.175q-.35 0-.625-.225t-.35-.575L12.6 14H7v6q0 .425-.288.713T6 21M18 .85q2.075 0 3.538 1.463T23 5.85t-1.463 3.538T18 10.85t-3.537-1.462T13 5.85t1.463-3.537T18 .85m-.725 5.125l-.45-.45Q16.6 5.3 16.3 5.312t-.525.238t-.225.525t.225.525l.8.8q.3.3.7.3t.7-.3l2.25-2.225q.225-.225.225-.538t-.225-.537t-.525-.213t-.525.213z"/></svg>