<svg xmlns="http://www.w3.org/2000/svg" viewBox="0 0 24 24" width="24" height="24"><path fill="currentColor" d="M19.1 21.9L16 18.8V20q0 .825-.587 1.413T14 22h-4q-.825 0-1.412-.587T8 20v-9.2L2.1 4.9q-.275-.275-.275-.7t.275-.7t.7-.275t.7.275l17 17q.275.275.275.7t-.275.7t-.7.275t-.7-.275M10 20h4v-3.2l-4-4zm8-16v3.4q0 .3-.075.575t-.25.525l-1.85 2.825q-.275.425-.662.45t-.713-.175q-.15-.1-.262-.25t-.163-.338t-.012-.387t.162-.4L16 7.4V7h-5.75q-.425 0-.7-.288T9.275 6t.288-.712t.712-.288H16V4H7.225q-.425 0-.7-.288T6.25 3t.288-.712T7.25 2H16q.825 0 1.413.588T18 4m-7.75 3"/></svg>