<svg xmlns="http://www.w3.org/2000/svg" viewBox="0 0 24 24" width="24" height="24"><path fill="currentColor" d="m4 10.725l-.5.1l-.5.1q-.425.1-.712-.213T2 9.976q0-.35.238-.662t.787-.438Q5.25 8.4 7.488 8.2T12 8t4.525.2T21 8.875q.55.125.788.438t.237.662q0 .425-.287.75t-.713.225l-.5-.1q-.25-.05-.525-.1V13q0 .425-.287.713T19 14t-.712-.288T18 13v-2.6q-1.5-.2-3-.3t-3-.1t-3 .088t-3 .287V13q0 .425-.288.713T5 14t-.712-.288T4 13zm2.2 9.125L7.325 13q.05-.35.3-.575t.6-.25q.5-.05.813.313t.237.837l-1.15 6.85q-.05.35-.325.588T7.175 21q-.45 0-.75-.35t-.225-.8M8.675 4.875l.2-1.05q.05-.35.325-.588T9.825 3q.45 0 .75.35t.225.8l-.175 1.075q-.05.35-.3.562t-.6.238q-.475.05-.8-.313t-.25-.837M11 18v2q0 .425.288.713T12 21t.713-.288T13 20v-2q0-.425-.288-.712T12 17t-.712.288T11 18m0-4q0 .425.288.713T12 15t.713-.288T13 14v-.975q0-.425-.288-.712T12 12.025t-.712.288t-.288.712zm4.325-9.1q.075.475-.238.825t-.812.3q-.35-.025-.6-.25t-.3-.575L13.2 4.15q-.075-.45.225-.8t.75-.35q.35 0 .625.238t.325.587zM17.8 19.85q.075.45-.225.8t-.75.35q-.35 0-.625-.237t-.325-.588l-1.15-6.85q-.075-.475.238-.837t.812-.313q.35.05.6.263t.3.562z"/></svg>