<svg xmlns="http://www.w3.org/2000/svg" viewBox="0 0 24 24" width="24" height="24"><path fill="currentColor" d="M18 19q.825 0 1.413-.587T20 17t-.587-1.412T18 15t-1.412.588T16 17t.588 1.413T18 19m-.2 3q-.35 0-.612-.225t-.338-.575l-.15-.7q-.3-.125-.562-.262T15.6 19.9l-.725.225q-.325.1-.637-.025t-.488-.4l-.2-.35q-.175-.3-.125-.65t.325-.575l.55-.475q-.05-.3-.05-.65t.05-.65l-.55-.475q-.275-.225-.325-.562t.125-.638l.225-.375q.175-.275.475-.4t.625-.025l.725.225q.275-.2.538-.337t.562-.263l.15-.725q.075-.35.337-.562T17.8 12h.4q.35 0 .613.225t.337.575l.15.7q.3.125.562.262t.538.338l.725-.225q.325-.1.638.025t.487.4l.2.35q.175.3.125.65t-.325.575l-.55.475q.05.3.05.65t-.05.65l.55.475q.275.225.325.563t-.125.637l-.225.375q-.175.275-.475.4t-.625.025L20.4 19.9q-.275.2-.537.337t-.563.263l-.15.725q-.075.35-.337.563T18.2 22zM4 18V6v4.3v-.3zm0 2q-.825 0-1.412-.587T2 18V6q0-.825.588-1.412T4 4h5.175q.4 0 .763.15t.637.425L12 6h8q.825 0 1.413.588T22 8v2q0 .425-.288.713T21 11t-.712-.288T20 10V8h-8.825l-2-2H4v12h7q.425 0 .713.288T12 19t-.288.713T11 20z"/></svg>