<svg xmlns="http://www.w3.org/2000/svg" viewBox="0 0 24 24" width="24" height="24"><path fill="currentColor" d="M17.5 12.75V15q0 .425-.288.713T16.5 16t-.712-.288T15.5 15v-1.725l-1.125-2.025q-.175.125-.275.325T14 12v5.725l1.675 2.775q.3.5 0 1t-.875.5q-.275 0-.5-.125t-.35-.35L12 18.3V12q0-.775.375-1.425T13.4 9.5L12 7.025q-.5-.95-.437-2.013t.812-1.812l.95-.925q.325-.325.75-.312t.7.362L20.55 9.1q.2.25.325.538t.15.612l.875 10.675q.05.425-.25.75t-.725.325q-.4 0-.675-.262t-.325-.663l-.9-10.675l-5.075-5.95l-.15.15q-.25.25-.287.575t.112.625zm-11 0l3.875-6.95q.15-.3.113-.625T10.2 4.6l-.15-.15l-5.075 5.95l-.9 10.7q-.05.4-.325.65t-.675.25q-.425 0-.725-.325t-.25-.75l.875-10.675q.025-.325.15-.612T3.45 9.1l5.775-6.775q.275-.35.713-.363t.762.313l.925.925q.75.75.813 1.813T12 7.025L10.6 9.5q.65.425 1.025 1.075T12 12v6.3l-1.95 3.225q-.125.225-.363.35T9.176 22q-.575 0-.862-.5t.012-1L10 17.725V12q0-.225-.1-.425t-.275-.325L8.5 13.275V15q0 .425-.288.713T7.5 16t-.712-.288T6.5 15z"/></svg>