<svg xmlns="http://www.w3.org/2000/svg" viewBox="0 0 24 24" width="24" height="24"><path fill="currentColor" d="M22 8v8.775q0 .5-.312.75t-.688.25t-.687-.262T20 16.75V8h-8.325q-.4 0-.763-.15t-.637-.425l-1.7-1.7q-.35-.35-.312-.75t.312-.675t.675-.312t.75.312L11.7 6H20q.825 0 1.413.588T22 8M4 20q-.825 0-1.412-.587T2 18V6q0-.825.588-1.412T4 4l2 2H4v12h11.175L1.4 4.2q-.275-.275-.287-.688T1.4 2.8q.275-.275.7-.275t.7.275l18.4 18.4q.3.3.288.7t-.313.7q-.3.275-.7.288t-.7-.288l-2.6-2.6zm10.425-8.425"/></svg>