<svg xmlns="http://www.w3.org/2000/svg" viewBox="0 0 24 24" width="24" height="24"><path fill="currentColor" d="m19.775 22.575l-.6-.575H4q-.825 0-1.412-.587T2 20V4.825L1.375 4.2q-.3-.3-.3-.713t.3-.712t.713-.3t.712.3l18.4 18.4q.3.3.3.7t-.3.7t-.712.3t-.713-.3M4 20h13.175L4 6.825zM22 4v12.725q0 .675-.612.925t-1.088-.225q-.15-.15-.225-.337T20 16.7V4H7.3q-.2 0-.387-.075T6.575 3.7q-.475-.475-.213-1.088T7.3 2H20q.825 0 1.413.588T22 4m-6.4 8.725l-3.05-3.05l-.5-1.425h-.1l-.225.6l-1.35-1.35l.325-.875q.125-.275.375-.45t.55-.175h.75q.3 0 .55.175t.375.45zm-1.525 1.325l3.075 3.075q-.05.35-.312.613t-.663.262q-.3 0-.55-.175t-.35-.45zm-4.475.9l-.875 2.425q-.1.275-.35.45t-.55.175q-.5 0-.812-.413t-.113-.912l2.7-7.1l1.4 1.4l-.8 2.225h3.025l1.75 1.75z"/></svg>