<svg xmlns="http://www.w3.org/2000/svg" viewBox="0 0 24 24" width="24" height="24"><path fill="currentColor" d="M7 21v-3H1.825q-.6 0-.875-.525T1 16.45L3.85 12q-.575 0-.862-.512t.062-1.013l5.125-7.3q.3-.425.825-.425t.825.425L12 6.3l2.175-3.125q.3-.425.825-.425t.825.425l5.125 7.3q.35.5.063 1.013T20.15 12L23 16.45q.325.5.05 1.025t-.875.525H17v3q0 .425-.288.713T16 22h-2q-.425 0-.712-.288T13 21v-3h-2v3q0 .425-.288.713T10 22H8q-.425 0-.712-.288T7 21m9.725-5h3.625l-3.875-6h1.675L15 5.5l-1.775 2.525l1.725 2.45q.35.5.063 1.013T14.15 12zM3.65 16h10.7l-3.875-6h1.675L9 5.5L5.85 10h1.675zm0 0h3.875H5.85h6.3h-1.675h3.875zm13.075 0H14.15H16h-2.775h4.925h-1.675h3.875zM13 18h4zm5.025 0"/></svg>