<svg xmlns="http://www.w3.org/2000/svg" viewBox="0 0 24 24" width="24" height="24"><path fill="currentColor" d="M7 18q-.425 0-.712-.288T6 17v-4q-1.65 0-2.825-1.175T2 9t1.175-2.825T6 5h7q.425 0 .713.288T14 6t-.288.713T13 7h-1v10q0 .425-.288.713T11 18t-.712-.288T10 17V7H8v10q0 .425-.288.713T7 18m11 1.575q-.2 0-.375-.062T17.3 19.3l-2.6-2.6q-.275-.275-.287-.687t.287-.713q.275-.275.7-.275t.7.275l.9.875V6q0-.425.288-.712T18 5t.713.288T19 6v10.175l.9-.9q.3-.3.7-.288t.7.313q.275.3.287.7t-.287.7l-2.6 2.6q-.15.15-.325.213t-.375.062M6 11V7q-.825 0-1.412.588T4 9t.588 1.413T6 11m0-2"/></svg>