<svg xmlns="http://www.w3.org/2000/svg" viewBox="0 0 24 24" width="24" height="24"><path fill="currentColor" d="M11 4v10q0 .425-.288.713T10 15t-.712-.288T9 14v-4q-1.65 0-2.825-1.175T5 6t1.175-2.825T9 2h7q.425 0 .713.287T17 3t-.288.713T16 4h-1v10q0 .425-.288.713T14 15t-.712-.288T13 14V4zM9 8V4q-.825 0-1.412.588T7 6t.588 1.413T9 8m8.2 11H4q-.425 0-.712-.288T3 18t.288-.712T4 17h13.2l-.9-.9q-.275-.275-.275-.7t.275-.7t.7-.275t.7.275l2.6 2.6q.3.3.3.7t-.3.7l-2.6 2.6q-.275.275-.7.275t-.7-.275t-.275-.7t.275-.7z"/></svg>