<svg xmlns="http://www.w3.org/2000/svg" viewBox="0 0 24 24" width="24" height="24"><path fill="currentColor" d="M4 24q-.825 0-1.412-.587T2 22t.588-1.412T4 20h16q.825 0 1.413.588T22 22t-.587 1.413T20 24zm10.6-12L12 9.4l-4 4l2.575 2.6zm-1.175-4L16 10.575L20 6.6L17.4 4zm-2.1-.725l5.4 5.4L12 17.425q-.6.6-1.412.6t-1.413-.6l-.125.1q-.275.225-.6.35T7.775 18h-3.05q-.35 0-.487-.3t.112-.55l2.3-2.275q-.6-.6-.625-1.438T6.6 12zm0 0L16 2.6q.6-.6 1.413-.6t1.412.6l2.6 2.575q.6.6.6 1.413T21.425 8l-4.7 4.675z"/></svg>