<svg xmlns="http://www.w3.org/2000/svg" viewBox="0 0 24 24" width="24" height="24"><path fill="currentColor" d="M1 19v-1.175q0-.4.15-.763t.425-.637L3 15V9L1.575 7.575Q1.3 7.3 1.15 6.937T1 6.176V4q0-.425.288-.712T2 3t.713.288T3 4v1h2V4q0-.425.288-.712T6 3t.713.288T7 4v1h2V4q0-.425.288-.712T10 3t.713.288T11 4v2.175q0 .4-.15.763t-.425.637L9 9v1h6V9l-1.425-1.425q-.275-.275-.425-.638T13 6.176V4q0-.425.287-.713T14 3t.713.288T15 4v1h2V4q0-.425.288-.712T18 3t.713.288T19 4v1h2V4q0-.425.288-.712T22 3t.713.288T23 4v2.175q0 .4-.15.763t-.425.637L21 9v6l1.425 1.425q.275.275.425.638t.15.762V19q0 .825-.587 1.413T21 21h-6q-.425 0-.712-.288T14 20v-2q0-.825-.587-1.412T12 16t-1.412.588T10 18v2q0 .425-.288.713T9 21H3q-.825 0-1.412-.587T1 19m2 0h5v-1q0-1.65 1.175-2.825T12 14t2.825 1.175T16 18v1h5v-1.175l-2-2v-7.65L20.175 7h-4.35L17 8.175V12H7V8.175L8.175 7h-4.35L5 8.175v7.65l-2 2zm9-6"/></svg>