<svg xmlns="http://www.w3.org/2000/svg" viewBox="0 0 24 24" width="24" height="24"><path fill="currentColor" d="M20 6H4v12h8q.425 0 .713.288T13 19t-.288.713T12 20H4q-.825 0-1.412-.587T2 18V6q0-.825.588-1.412T4 4h16q.825 0 1.413.588T22 6v6q0 .425-.288.713T21 13t-.712-.288T20 12zM4 6v12v-5v.075zm8 5l8-5v2l-7.475 4.675q-.25.15-.525.15t-.525-.15L4 8V6zm7.175 9H16q-.425 0-.712-.288T15 19t.288-.712T16 18h3.175l-.9-.9q-.3-.3-.287-.7t.312-.7q.3-.275.7-.287t.7.287l2.6 2.6q.15.15.225.325T22.6 19t-.075.375t-.225.325l-2.6 2.6q-.275.275-.687.288T18.3 22.3q-.275-.275-.275-.7t.275-.7z"/></svg>