<svg xmlns="http://www.w3.org/2000/svg" viewBox="0 0 24 24" width="24" height="24"><path fill="currentColor" d="M6.95 15.575q.275 0 .475-.2t.2-.475v-1.85h.925l1.625 2.275q.1.125.238.188t.287.062q.4 0 .588-.362t-.063-.688L9.95 12.85q.7-.275 1.063-.788t.362-1.262q0-1.125-.638-1.675t-1.987-.55h-1.5q-.425 0-.712.288t-.288.712V14.9q0 .275.213.475t.487.2M7.625 12V9.8h1.15q.65 0 .925.275t.275.8q0 .55-.325.838t-.9.287zm6.025 3.6h3.725q.275 0 .45-.162T18 15t-.175-.45t-.45-.175h-2.4V14.3l1.475-1.375q.825-.8 1.088-1.263t.262-1.112q0-.975-.65-1.562t-1.7-.588q-.8 0-1.362.338T13.175 9.8q-.125.2 0 .413t.375.312q.225.1.475.025t.375-.275q.2-.325.425-.45T15.4 9.7q.425 0 .7.275t.275.675q0 .425-.25.775t-.875.95l-2 1.95q-.05.05-.15.4v.325q0 .225.163.388t.387.162M2 18V8q0-1.65 1.175-2.825T6 4h12q1.65 0 2.825 1.175T22 8v10q0 .825-.587 1.413T20 20H4q-.825 0-1.412-.587T2 18m2 0h16V8q0-.825-.587-1.412T18 6H6q-.825 0-1.412.588T4 8zm0 0h16z"/></svg>