<svg xmlns="http://www.w3.org/2000/svg" viewBox="0 0 24 24" width="24" height="24"><path fill="currentColor" d="M12 14.05q3.35 0 5.675-1.162T20 10.075t-2.325-2.812T12 6.1T6.325 7.263T4 10.075t2.325 2.813T12 14.05m5 1.3V18q0 .825-.587 1.413T15 20H9q-.825 0-1.412-.587T7 18v-2.65q-2.275-.8-3.637-2.187T2 10.075q0-2.525 2.913-4.3T12 4t7.088 1.775t2.912 4.3q0 1.7-1.362 3.088T17 15.35m-5.225-3.75V8q0-.2-.15-.35t-.35-.15t-.35.15t-.15.35v4q0 .2.15.35t.35.15h2.275q.2 0 .325-.125T14 12.05t-.125-.325t-.325-.125z"/></svg>