<svg xmlns="http://www.w3.org/2000/svg" viewBox="0 0 24 24" width="24" height="24"><path fill="currentColor" d="M15.3 15.525q1.05 0 1.75-.513t.7-1.462q0-.725-.387-1.112t-1.013-.563v-.025q.525-.175.8-.587t.275-1.013q0-1.05-.725-1.4t-1.725-.35H13.45q-.425 0-.712.288t-.288.712v5.025q0 .425.288.713t.712.287zM13.825 11.4V9.625h.975q.55 0 .925.188t.375.687q0 .475-.375.713t-.925.187zm0 2.975V12.4h1.4q.5 0 .825.263t.325.762q0 .475-.288.712t-.787.238zm-5.75-.125V9.175q0-.275-.2-.475T7.4 8.5t-.487.2t-.213.475V14.5q0 .425.288.713t.712.287h2.825q.275 0 .45-.175t.175-.45t-.175-.45t-.45-.175zM22 6v10q0 1.65-1.175 2.825T18 20H6q-1.65 0-2.825-1.175T2 16V6q0-.825.588-1.412T4 4h16q.825 0 1.413.588T22 6m-2 0H4v10q0 .825.588 1.413T6 18h12q.825 0 1.413-.587T20 16zm0 0H4z"/></svg>