<svg xmlns="http://www.w3.org/2000/svg" viewBox="0 0 24 24" width="24" height="24"><path fill="currentColor" d="M14.05 14.375V14.3l1.475-1.375q.825-.8 1.088-1.263t.262-1.112q0-.975-.65-1.562t-1.7-.588q-.8 0-1.362.338T12.25 9.8q-.125.2 0 .413t.375.312q.225.1.475.025t.375-.275q.2-.325.425-.45t.575-.125q.425 0 .7.275t.275.675q0 .425-.25.775t-.875.95l-2 1.95q-.05.05-.15.4v.325q0 .225.162.388t.388.162h3.725q.275 0 .45-.162t.175-.438t-.175-.45t-.45-.175zm-5.775-.025V9.3q0-.275-.213-.488T7.576 8.6t-.475.213t-.2.487v5.3q0 .425.288.713t.712.287h2.85q.275 0 .45-.175t.175-.45t-.175-.45t-.45-.175zM2 18V8q0-1.65 1.175-2.825T6 4h12q1.65 0 2.825 1.175T22 8v10q0 .825-.587 1.413T20 20H4q-.825 0-1.412-.587T2 18m2 0h16V8q0-.825-.587-1.412T18 6H6q-.825 0-1.412.588T4 8zm0 0h16z"/></svg>