<svg xmlns="http://www.w3.org/2000/svg" viewBox="0 0 24 24" width="24" height="24"><path fill="currentColor" d="M4 20V4v7.3v-.3zm1-8.9v6.6q0 .35.225.575t.575.225h.4q.35 0 .575-.225T7 17.7v-1.2h3.175q.5 0 .738-.312t.237-.688t-.238-.687t-.737-.313H7v-3h10.625q.5 0 .8-.4t.15-.9L17.35 6.3q-.125-.35-.413-.575T16.3 5.5H7.7q-.35 0-.638.225T6.65 6.3zm2.65-1.6l.7-2h7.3l.7 2zM9 14q.425 0 .713-.288T10 13t-.288-.712T9 12t-.712.288T8 13t.288.713T9 14m8.3 4.75l-1.025-1.025q-.15-.15-.375-.15t-.375.15t-.15.375t.15.375L16.6 19.55q.3.3.7.3t.7-.3l2.475-2.475q.15-.15.15-.375t-.15-.375t-.375-.15t-.375.15zM18 13q2.075 0 3.538 1.463T23 18t-1.463 3.538T18 23t-3.537-1.463T13 18t1.463-3.537T18 13M4 22q-.825 0-1.412-.587T2 20V4q0-.825.588-1.412T4 2h16q.825 0 1.413.588T22 4v6.3q0 .425-.288.713T21 11.3t-.712-.288T20 10.3V4H4v16h6.775q.425 0 .713.288t.287.712t-.288.713t-.712.287z"/></svg>