<svg xmlns="http://www.w3.org/2000/svg" viewBox="0 0 24 24" width="24" height="24"><path fill="currentColor" d="M3.025 11q.35-3.175 2.575-5.4T11 3.025V3q0-.425.288-.713T12 2t.713.288T13 3v.025q3.175.35 5.4 2.575t2.575 5.4H22q.425 0 .712.288T23 12t-.288.713T22 13H2q-.425 0-.712-.288T1 12t.288-.712T2 11zm2.05 0h13.85q-.35-2.575-2.312-4.288T12 5T7.388 6.713T5.075 11m9.3 2H8v6h5.55q.525 0 1.013-.175t.887-.525l4.15-3.425q-.2-.2-.45-.3t-.525-.15q-.425-.075-.825.025t-.75.375L14.9 16.55q-.275.2-.587.325T13.65 17H11q-.425 0-.712-.288T10 16t.288-.712T11 15h2.65l1.1-.9q.125-.075.188-.2t.062-.275q0-.25-.187-.437T14.375 13M6 13H4v7h2zm0 9H4q-.825 0-1.412-.587T2 20v-7q0-.825.588-1.412T4 11h10.375q2.125 0 4.1.725t3.175 2.45q.275.425.2.938t-.475.862L16.75 19.85q-.675.575-1.5.863t-1.7.287H7.725q-.275.45-.725.725T6 22"/></svg>