<svg xmlns="http://www.w3.org/2000/svg" viewBox="0 0 24 24" width="24" height="24"><path fill="currentColor" d="M12 4q-.85 0-1.65.163t-1.525.462q-.4.175-.8.05t-.6-.475t-.087-.75t.487-.575q.975-.45 2.038-.663T12 2q2.075 0 3.9.788t3.175 2.137T21.213 8.1T22 12q0 1.125-.238 2.188T21.1 16.2q-.175.375-.575.475t-.75-.1t-.475-.6t.05-.8q.325-.725.488-1.525T20 12q0-3.35-2.325-5.675T12 4m0 5.175l-1.5-1.5V6.75q0-.325.213-.538T11.25 6t.538.213t.212.537zM17.5 7.5v3q0 .6-.45 1.05T16 12h-1.175L13 10.175V6.75q0-.325.213-.537T13.75 6H16q.6 0 1.05.45t.45 1.05m-3 3H16v-3h-1.5zm-4 5v-1h-2v1zm-2 1.5v1.25q0 .325-.213.538T7.75 19t-.537-.213T7 18.25v-4.5q0-.325.213-.537T7.75 13h2.75q.625 0 1.063.438T12 14.5v1q0 .45-.262.813t-.638.587l.475 1.1q.15.35-.062.675t-.588.325q-.2 0-.387-.112t-.263-.313L9.6 17zM7 8.4l1.5 1.5v1.35q0 .325-.213.538T7.75 12t-.537-.213T7 11.25zM4.275 5.675l1.4 1.425q-.8 1.05-1.237 2.263T4 12q0 3.35 2.325 5.675T12 20q1.425 0 2.65-.437t2.275-1.238l1.4 1.4q-1.275 1.1-2.887 1.687T12 22q-2.075 0-3.9-.788t-3.175-2.137T2.788 15.9T2 12q0-1.825.6-3.437t1.675-2.888M21.2 22.6q-.275.275-.7.275t-.7-.275L1.4 4.2q-.275-.275-.275-.7t.275-.7t.7-.275t.7.275l18.4 18.4q.275.275.275.7t-.275.7"/></svg>