<svg xmlns="http://www.w3.org/2000/svg" viewBox="0 0 24 24" width="24" height="24"><path fill="currentColor" d="M14.5 16h-.75q-.325 0-.537-.213T13 15.25t.213-.537t.537-.213h.75v-.75q0-.325.213-.537T15.25 13t.538.213t.212.537v.75h.75q.325 0 .538.213t.212.537t-.213.538t-.537.212H16v.75q0 .325-.213.538t-.537.212t-.537-.213t-.213-.537zm-6-6.5v1.75q0 .325-.213.538T7.75 12t-.537-.213T7 11.25v-4.5q0-.325.213-.537T7.75 6t.538.213t.212.537V8h2V6.75q0-.325.213-.537T11.25 6t.538.213t.212.537v4.5q0 .325-.213.538T11.25 12t-.537-.213t-.213-.537V9.5zm4.5 1.75v-4.5q0-.325.213-.537T13.75 6H16q.6 0 1.05.45t.45 1.05v3q0 .6-.45 1.05T16 12h-2.25q-.325 0-.537-.213T13 11.25m-2.5 4.25v-1h-2v1zm-2 1.5v1.25q0 .325-.213.538T7.75 19t-.537-.213T7 18.25v-4.5q0-.325.213-.537T7.75 13h2.75q.625 0 1.063.438T12 14.5v1q0 .45-.262.813t-.638.587l.475 1.1q.15.35-.062.675t-.588.325q-.2 0-.387-.112t-.263-.313L9.6 17zm6-6.5H16v-3h-1.5zM12 22q-2.075 0-3.9-.788t-3.175-2.137T2.788 15.9T2 12t.788-3.9t2.137-3.175T8.1 2.788T12 2t3.9.788t3.175 2.137T21.213 8.1T22 12t-.788 3.9t-2.137 3.175t-3.175 2.138T12 22m0-2q3.325 0 5.663-2.337T20 12t-2.337-5.663T12 4T6.337 6.338T4 12t2.338 5.663T12 20m0-8"/></svg>