<svg xmlns="http://www.w3.org/2000/svg" viewBox="0 0 24 24" width="24" height="24"><path fill="currentColor" d="M11.25 11.5q.525 0 .888-.363t.362-.887t-.363-.888T11.25 9t-.888.363t-.362.887t.363.888t.887.362m.9 3.775l4.15-4.15q.3-.3.3-.712t-.3-.713t-.712-.3t-.713.3L10.7 13.875q-.3.3-.287.7t.312.7t.713.3t.712-.3m3.6.725q.525 0 .888-.363T17 14.75t-.363-.888t-.887-.362t-.888.363t-.362.887t.363.888t.887.362M19 19H8q-.825 0-1.412-.587T6 17V3q0-.825.588-1.412T8 1h6.175q.4 0 .763.15t.637.425l4.85 4.85q.275.275.425.638t.15.762V17q0 .825-.587 1.413T19 19m0-11h-3.5q-.625 0-1.062-.437T14 6.5V3H8v14h11zM4 23q-.825 0-1.412-.587T2 21V8q0-.425.288-.712T3 7t.713.288T4 8v13h10q.425 0 .713.288T15 22t-.288.713T14 23zM8 3v5zv14z"/></svg>