<svg xmlns="http://www.w3.org/2000/svg" viewBox="0 0 24 24" width="24" height="24"><path fill="currentColor" d="M17 22q-1.425 0-2.5-.85t-1.55-2.25q-.425-1.25-.913-1.85t-1.612-1.4q-1.675-1.2-2.55-2.988T7 9q0-.5.075-1t.225-.95l1.675 1.675q-.05 1.55.663 2.988t2.037 2.387q1.2.85 1.913 1.638t1.137 2.137q.275.875.838 1.5T17 20q.65 0 1.163-.363t.762-.937l1.475 1.475q-.575.8-1.462 1.313T17 22m4-4.075l-3.85-3.85l1.275-1.025l-1.875-1.625q-.275.25-.575.475t-.65.35l-1.85-1.85q.125.05.263.075T14 10.5q.625 0 1.063-.437T15.5 9t-.437-1.062T14 7.5t-1.062.438T12.5 9q0 .125.025.263t.075.262l-1.85-1.85q.4-.95 1.263-1.563T14 5.5q1.625 0 2.663 1.225t.787 2.825l3.225 2.8q.35.3.325.763t-.375.762l-.575.425q.475.725.713 1.65T21 17.925M9.65 6.525l-1.475-1.45q.95-1.425 2.463-2.25T14 2q2.65 0 4.563 1.638T20.9 7.8q.075.425-.162.75t-.663.4t-.75-.162t-.4-.663q-.3-1.8-1.675-2.962T14 4q-1.425 0-2.562.688T9.65 6.525M20.475 21.65q-.3.3-.712.3t-.713-.3L5.1 7.675q-.05.325-.075.65T5 9q0 1.55.513 2.975T6.975 14.6q.275.35.263.763t-.313.687q-.3.3-.712.275t-.688-.35q-1.225-1.5-1.875-3.287T3 9q0-.775.113-1.525T3.424 6L2.1 4.675q-.3-.3-.3-.7t.3-.7t.712-.3t.713.3l16.95 16.975q.3.3.3.7t-.3.7m-3.6-8.9"/></svg>