<svg xmlns="http://www.w3.org/2000/svg" viewBox="0 0 24 24" width="24" height="24"><path fill="currentColor" d="M19.075 21.9L17.5 20.35q-1.225.8-2.613 1.225T12 22q-2.075 0-3.9-.788t-3.175-2.137T2.788 15.9T2 12q0-1.5.425-2.887T3.65 6.5L2.075 4.925q-.3-.3-.3-.712t.3-.713t.713-.3t.712.3l17 17q.3.3.3.7t-.3.7t-.712.3t-.713-.3M12 20q1.075 0 2.088-.275t1.962-.825L5.1 7.95q-.55.95-.825 1.962T4 12q0 3.325 2.338 5.663T12 20m0-16q-.825 0-1.612.163T8.85 4.65q-.4.175-.8.05t-.6-.475t-.088-.75t.488-.575q.975-.45 2.012-.675T12 2q2.075 0 3.9.788t3.175 2.137T21.213 8.1T22 12q0 1.1-.225 2.138T21.1 16.15q-.175.375-.575.488t-.75-.088t-.475-.6t.05-.8q.325-.75.488-1.537T20 12q0-3.325-2.337-5.663T12 4m-1.425 9.425"/></svg>