<svg xmlns="http://www.w3.org/2000/svg" viewBox="0 0 24 24" width="24" height="24"><path fill="currentColor" d="M6 16.5h.6l.725 1.6q.075.2.25.3t.375.1q.375 0 .587-.3t.063-.65l-.5-1.15q.375-.225.638-.587T9 15v-1q0-.625-.437-1.062T7.5 12.5h-2q-.425 0-.712.288T4.5 13.5v4.25q0 .325.213.538t.537.212t.538-.213T6 17.75zm7.25 2q.325 0 .538-.213T14 17.75t-.213-.537T13.25 17H11.5v-.75h1.25q.325 0 .538-.213t.212-.537t-.213-.537t-.537-.213H11.5V14h1.75q.325 0 .538-.213T14 13.25t-.213-.537t-.537-.213H11q-.425 0-.712.288T10 13.5v4q0 .425.288.713T11 18.5zM18 17h-2.25q-.325 0-.537.213T15 17.75t.213.538t.537.212h2.75q.425 0 .713-.288t.287-.712V16q0-.425-.288-.712T18.5 15h-2v-1h2.25q.325 0 .538-.213t.212-.537t-.213-.537t-.537-.213H16q-.425 0-.712.288T15 13.5V15q0 .425.288.713T16 16h2zM6 15v-1h1.5v1zm3-5.75h1.5v1.5q0 .325.213.538t.537.212t.538-.213t.212-.537v-4.5q0-.325-.213-.537T11.25 5.5t-.537.213t-.213.537v1.5H9v-1.5q0-.325-.213-.537T8.25 5.5t-.537.213t-.213.537v4.5q0 .325.213.538t.537.212t.538-.213T9 10.75zm5.5-3v4.5q0 .325.213.538t.537.212t.538-.213t.212-.537v-4.5q0-.325-.213-.537T15.25 5.5t-.537.213t-.213.537M3 21q-.825 0-1.412-.587T1 19V5q0-.825.588-1.412T3 3h18q.825 0 1.413.588T23 5v14q0 .825-.587 1.413T21 21zm0-2h18V5H3zm0 0V5z"/></svg>