<svg xmlns="http://www.w3.org/2000/svg" viewBox="0 0 24 24" width="24" height="24"><path fill="currentColor" d="M8.05 19H5.925q-.55 0-1.012-.275t-.738-.75l-1.125-2q-.275-.45-.275-.975t.275-.975L4.2 12L3.05 9.975q-.275-.45-.275-.975t.275-.975l1.125-2q.275-.475.738-.75T5.925 5H8.05l1.125-1.975q.275-.475.738-.75T10.925 2h2.15q.55 0 1.013.275t.737.75L15.95 5h2.125q.55 0 1.013.275t.737.75l1.125 2q.275.45.275.975t-.275.975L19.8 12l1.15 2.025q.275.45.275.975t-.275.975l-1.125 2q-.275.475-.737.75T18.075 19H15.95l-1.125 1.975q-.275.475-.737.75T13.074 22h-2.15q-.55 0-1.012-.275t-.738-.75zm7.9-8h2.15l1.1-2l-1.1-2h-2.15l-1.125 2zm-5 3h2.1l1.125-2l-1.125-2h-2.1l-1.125 2zm0-6h2.1l1.15-2.025L13.075 4h-2.15L9.8 5.975zM9.175 9L8.05 7H5.925L4.8 9l1.125 2H8.05zm0 6L8.05 13H5.9l-1.1 2l1.125 2H8.05zm1.775 1L9.8 18.025L10.925 20h2.15l1.125-1.975L13.05 16zm5 1h2.125l1.125-2l-1.125-2H15.95l-1.125 2z"/></svg>