<svg xmlns="http://www.w3.org/2000/svg" viewBox="0 0 24 24" width="24" height="24"><path fill="currentColor" d="M12 2.525q.325 0 .638.1t.587.3l9 6.875q.325.25.375.65t-.2.75t-.65.4t-.75-.225L12 4.5L6 9.1V18h3q.425 0 .713.288T10 19t-.288.713T9 20H6q-.825 0-1.412-.587T4 18v-7.375L3 11.4q-.325.25-.737.2t-.663-.4q-.25-.325-.187-.725t.387-.65l8.975-6.9q.275-.2.588-.3t.637-.1m5.5 19.85q-1.05.725-2.312.613t-2.163-1.013t-1.012-2.162t.612-2.313q-.725-1.05-.612-2.312t1.012-2.163t2.163-1.012t2.312.612q1.05-.725 2.313-.612t2.162 1.012t1.013 2.163t-.613 2.312q.725 1.05.613 2.313t-1.013 2.162t-2.162 1.013t-2.313-.613m0-2.45l1.15.8q.45.325.975.275t.925-.45t.45-.925t-.275-.975l-.8-1.15l.8-1.15q.325-.45.275-.975t-.45-.925t-.925-.45t-.975.275l-1.15.8l-1.15-.8q-.45-.325-.975-.275t-.925.45t-.45.925t.275.975l.8 1.15l-.8 1.15q-.325.45-.275.975t.45.925t.925.45t.975-.275zm0-1.175q.525 0 .888-.363t.362-.887t-.363-.888t-.887-.362t-.888.363t-.362.887t.363.888t.887.362m0-1.25"/></svg>