<svg xmlns="http://www.w3.org/2000/svg" viewBox="0 0 24 24" width="24" height="24"><path fill="currentColor" d="M3.975 7q-.425 0-.7-.287Q3 6.425 3 6t.288-.713Q3.575 5 4 5h16.025q.425 0 .7.287Q21 5.575 21 6t-.288.713Q20.425 7 20 7Zm0 4q-.425 0-.7-.288Q3 10.425 3 10t.288-.713Q3.575 9 4 9h16.025q.425 0 .7.287Q21 9.575 21 10t-.288.712Q20.425 11 20 11ZM4 19q-.425 0-.712-.288Q3 18.425 3 18v-4q0-.425.288-.713Q3.575 13 4 13h16q.425 0 .712.287q.288.288.288.713v4q0 .425-.288.712Q20.425 19 20 19Zm1-2h14v-2H5Zm0 0v-2v2Z"/></svg>