<svg xmlns="http://www.w3.org/2000/svg" viewBox="0 0 24 24" width="24" height="24"><path fill="currentColor" d="M4 21q-.825 0-1.412-.587T2 19V5q0-.825.588-1.412T4 3h5q.825 0 1.413.588T11 5v14q0 .825-.587 1.413T9 21zm11 0q-.825 0-1.412-.587T13 19V5q0-.825.588-1.412T15 3h5q.825 0 1.413.588T22 5v14q0 .825-.587 1.413T20 21zM4 19h5V5H4zm11 0h5V5h-5zm-7-5q0-.425-.288-.712T7 13H6q-.425 0-.712.288T5 14t.288.713T6 15h1q.425 0 .713-.288T8 14m11 0q0-.425-.288-.712T18 13h-1q-.425 0-.712.288T16 14t.288.713T17 15h1q.425 0 .713-.288T19 14M8 11q0-.425-.288-.712T7 10H6q-.425 0-.712.288T5 11t.288.713T6 12h1q.425 0 .713-.288T8 11m11 0q0-.425-.288-.712T18 10h-1q-.425 0-.712.288T16 11t.288.713T17 12h1q.425 0 .713-.288T19 11M8 8q0-.425-.288-.712T7 7H6q-.425 0-.712.288T5 8t.288.713T6 9h1q.425 0 .713-.288T8 8m11 0q0-.425-.288-.712T18 7h-1q-.425 0-.712.288T16 8t.288.713T17 9h1q.425 0 .713-.288T19 8M4 19h5zm11 0h5z"/></svg>