<svg xmlns="http://www.w3.org/2000/svg" viewBox="0 0 24 24" width="24" height="24"><path fill="currentColor" d="M6 20v-3q0-1.525.713-2.863T8.7 12q-1.275-.8-1.987-2.137T6 7V4H5q-.425 0-.712-.288T4 3t.288-.712T5 2h14q.425 0 .713.288T20 3t-.288.713T19 4h-1v3q0 1.2-.45 2.3t-1.275 1.925q-.95.25-1.775.725T13 13.125q-.25-.05-.487-.087T12 13q-1.65 0-2.825 1.175T8 17v3h3.3q.175.55.413 1.05t.562.95H5q-.425 0-.712-.288T4 21t.288-.712T5 20zm6-9q1.65 0 2.825-1.175T16 7V4H8v3q0 1.65 1.175 2.825T12 11m7.25 5q-.2 0-.35.15t-.15.35v3q0 .2.15.35t.35.15t.35-.15t.15-.35v-3q0-.2-.15-.35t-.35-.15m-2.5 4q.2 0 .35-.15t.15-.35v-3q0-.2-.15-.35t-.35-.15t-.35.15t-.15.35v3q0 .2.15.35t.35.15M18 23q-2.075 0-3.537-1.463T13 18t1.463-3.537T18 13t3.538 1.463T23 18t-1.463 3.538T18 23M12 4"/></svg>