<svg xmlns="http://www.w3.org/2000/svg" viewBox="0 0 24 24" width="24" height="24"><path fill="currentColor" d="M18.8 19.3L16.5 17q-.275-.3-.275-.712t.3-.688t.713-.287t.687.287l.575.575V5q0-.425.288-.712T19.5 4t.713.288T20.5 5v11.2l.6-.6q.275-.275.7-.275t.7.275t.275.7t-.275.7l-2.3 2.3q-.3.3-.7.3t-.7-.3M8.5 11q1.05 0 1.775-.725T11 8.5V6H6v2.5q0 1.05.725 1.775T8.5 11M6 18h5v-2.5q0-1.05-.725-1.775T8.5 13t-1.775.725T6 15.5zm-2 0v-2.5q0-1.05.45-1.95T5.7 12q-.8-.65-1.25-1.55T4 8.5V6h-.5q-.425 0-.712-.288T2.5 5t.288-.712T3.5 4h10q.425 0 .713.288T14.5 5t-.288.713T13.5 6H13v2.5q0 1.05-.45 1.95T11.3 12q.8.65 1.25 1.55T13 15.5V18h.5q.425 0 .713.288T14.5 19t-.288.713T13.5 20h-10q-.425 0-.712-.288T2.5 19t.288-.712T3.5 18zm4.5 0"/></svg>