<svg xmlns="http://www.w3.org/2000/svg" viewBox="0 0 24 24" width="24" height="24"><path fill="currentColor" d="M4 20q-.825 0-1.412-.587T2 18v-.8q0-.825.425-1.55t1.175-1.1q1.275-.65 2.875-1.1T10 13q.2 0 .45.013t.45.037q.4.05.662.375t.213.725q-.05.35-.3.6T10.8 15H10q-1.775 0-3.188.425T4.5 16.35q-.225.125-.363.35T4 17.2v.8h6.75q.425 0 .713.288t.287.712t-.288.713t-.712.287zm11.55-2.4l4.35-4.35q.275-.275.7-.275t.7.275t.275.7t-.275.7l-5.05 5.05q-.3.3-.7.3t-.7-.3l-2.05-2.05q-.275-.275-.275-.7t.275-.7t.7-.275t.7.275zM10 12q-1.65 0-2.825-1.175T6 8t1.175-2.825T10 4t2.825 1.175T14 8t-1.175 2.825T10 12m0-2q.825 0 1.413-.587T12 8t-.587-1.412T10 6t-1.412.588T8 8t.588 1.413T10 10m0-2"/></svg>