<svg xmlns="http://www.w3.org/2000/svg" viewBox="0 0 24 24" width="24" height="24"><path fill="currentColor" d="M11.25 16L9.6 13.8q-.225-.3-.6-.3t-.6.3l-1.8 2.4q-.2.25-.05.525T7 17h10q.3 0 .45-.275t-.05-.525l-2.475-3.3q-.275-.05-.563-.125T13.8 12.6zM5 21q-.825 0-1.412-.587T3 19V5q0-.825.588-1.412T5 3h4q.425 0 .713.288T10 4t-.288.713T9 5H5v14h14v-3.325q0-.425.288-.712t.712-.288t.713.288t.287.712V19q0 .825-.587 1.413T19 21zm11.05-10q-1.85 0-3.15-1.312T11.6 6.5t1.313-3.187T16.1 2t3.188 1.313T20.6 6.5q0 .675-.2 1.3t-.5 1.15l2.35 2.35q.275.275.275.7t-.275.7t-.7.275t-.7-.275l-2.4-2.4q-.525.35-1.125.525T16.05 11m.05-2q1.05 0 1.775-.725T18.6 6.5t-.725-1.775T16.1 4t-1.775.725T13.6 6.5t.725 1.775T16.1 9"/></svg>