<svg xmlns="http://www.w3.org/2000/svg" viewBox="0 0 24 24" width="24" height="24"><path fill="currentColor" d="M6 20q-.825 0-1.412-.587T4 18v-7.375L3 11.4q-.325.25-.737.2t-.663-.4q-.25-.325-.187-.725t.387-.65l8.975-6.9q.275-.2.588-.3t.637-.1t.638.1t.587.3L22.2 9.8q.325.25.388.65t-.188.75t-.65.388t-.75-.213L12 4.5L6 9.1V18h2.025q.425 0 .7.288T9 19t-.288.713T8 20zm8.925 1.575q-.2 0-.375-.075t-.325-.225L11.4 18.45q-.3-.3-.3-.7t.3-.7t.7-.3t.7.3l2.125 2.1l4.95-4.95q.3-.3.713-.287t.712.312t.3.7t-.3.7l-5.675 5.65q-.15.15-.325.225t-.375.075"/></svg>