<svg xmlns="http://www.w3.org/2000/svg" viewBox="0 0 24 24" width="24" height="24"><path fill="currentColor" d="M18 16q-.825 0-1.412-.587T16 14t.588-1.412T18 12t1.413.588T20 14t-.587 1.413T18 16m.075 1q.7 0 1.375.138t1.325.437q.5.225.863.638t.362.962q0 .35-.238.588t-.587.237H14.8q-.35 0-.575-.238T14 19.176q0-.55.35-.975t.85-.625q.675-.275 1.413-.425t1.462-.15M5 21q-.825 0-1.412-.587T3 19V5q0-.825.588-1.412T5 3h14q.825 0 1.413.588T21 5v4.025q0 .425-.288.7T20 10t-.712-.288T19 9V5H5v9h3.55q.3 0 .525.138t.35.362q.275.425.613.713t.762.487q.275.125.438.375t.162.55q0 .525-.425.838t-.925.137q-.65-.2-1.138-.65T8 16H5v3h5.4q.425 0 .713.288T11.4 20t-.288.713T10.4 21zm0-2h6.325zM8 8.75h8q.425 0 .713-.288T17 7.75t-.288-.712T16 6.75H8q-.425 0-.712.288T7 7.75t.288.713T8 8.75m0 3.5h5.6q.425 0 .713-.288t.287-.712t-.287-.712t-.713-.288H8q-.425 0-.712.288T7 11.25t.288.713t.712.287"/></svg>