<svg xmlns="http://www.w3.org/2000/svg" viewBox="0 0 24 24" width="24" height="24"><path fill="currentColor" d="M20.5 16.5q-.625 0-1.062-.437T19 15v-2.5q0-.625.438-1.062T20.5 11t1.063.438T22 12.5V15q0 .625-.437 1.063T20.5 16.5m0 3.5q-.2 0-.35-.15T20 19.5v-1.05q-1.175-.175-2-.987t-.975-1.988q-.025-.2.125-.337T17.5 15t.338.1t.187.3q.15.9.85 1.5t1.625.6q.9 0 1.6-.575t.85-1.475q.05-.2.2-.325T23.5 15t.35.138t.125.337q-.15 1.175-.975 1.988t-2 .987v1.05q0 .2-.15.35t-.35.15M5 8q0-.875.338-1.638t.987-1.337t1.45-.837t1.675-.163q.325.05.45.35t-.075.6Q9.4 5.625 9.2 6.4T9 8q0 .8.2 1.563t.625 1.462q.175.3.063.6t-.438.35q-.875.1-1.675-.15T6.325 11t-.987-1.35T5 8M1 18v-.775q0-.85.425-1.575t1.175-1.1q.6-.325 1.275-.587t1.45-.463q.35-.1.575.238t-.05.687q-.425.625-.637 1.325T5 17.225V18q0 .275.038.55t.112.55q.1.35-.088.625T4.55 20H3q-.825 0-1.412-.587T1 18m14-6q-1.65 0-2.825-1.175T11 8t1.175-2.825T15 4t2.825 1.175T19 8t-1.175 2.825T15 12m0-2q.825 0 1.413-.587T17 8t-.587-1.412T15 6t-1.412.588T13 8t.588 1.413T15 10M9 20q-.825 0-1.412-.587T7 18v-.775q0-.85.425-1.575t1.175-1.1q1.275-.65 2.888-1.1T15 13q.125 0 .263.013t.262.012q.425 0 .712.275t.288.7t-.288.712t-.712.288H15q-1.8 0-3.187.45t-2.288.9q-.25.125-.387.363T9 17.225V18h6.775q.5 0 .75.313t.25.687t-.25.688t-.75.312zm6-2"/></svg>