<svg xmlns="http://www.w3.org/2000/svg" viewBox="0 0 24 24" width="24" height="24"><path fill="currentColor" d="M18 15.975V7.8q-1.75.125-3.45-.287t-3.175-1.288q-1.025-.6-2.013-.9t-2.012-.3q-.35 0-.687.038T6 5.15v8.2q.375-.05.713-.062t.687-.013q1.55 0 3.038.4t2.737 1.15q1.15.675 2.35.975t2.475.175m-6-2.925q1.05 0 1.775-.725t.725-1.775t-.725-1.775T12 8.05t-1.775.725T9.5 10.55t.725 1.775T12 13.05m.35 3.575q-1.125-.675-2.363-1.025t-2.512-.35q-.35 0-.7.038T6 15.375V20q0 .425-.288.713T5 21t-.712-.288T4 20V4.4q0-.375.238-.675t.612-.375q.65-.125 1.288-.237T7.45 3q1.225 0 2.45.363T12.275 4.4q1.175.7 2.438 1.063t2.587.362q.425 0 .813-.025t.812-.075t.75.25T20 6.7v10.175q0 .4-.262.688t-.663.337q-.45.05-.9.075T17.3 18q-1.325 0-2.575-.35t-2.375-1.025m-.35-6.05"/></svg>