<svg xmlns="http://www.w3.org/2000/svg" viewBox="0 0 24 24" width="24" height="24"><path fill="currentColor" d="m11.65 22.65l-2.8-2.8q-.25-.25-.125-.55T9.2 19h5.6q.35 0 .475.3t-.125.55l-2.8 2.8q-.15.15-.35.15t-.35-.15M4 17q-.825 0-1.412-.587T2 15V5q0-.825.588-1.412T4 3h16q.825 0 1.413.588T22 5v10q0 .825-.587 1.413T20 17zm0-2h16V5H4zm5-1h6q.425 0 .713-.288T16 13t-.288-.712T15 12H9q-.425 0-.712.288T8 13t.288.713T9 14m-5 1V5zm2-7q.425 0 .713-.288T7 7t-.288-.712T6 6t-.712.288T5 7t.288.713T6 8m3 0q.425 0 .713-.288T10 7t-.288-.712T9 6t-.712.288T8 7t.288.713T9 8m3 0q.425 0 .713-.288T13 7t-.288-.712T12 6t-.712.288T11 7t.288.713T12 8m3 0q.425 0 .713-.288T16 7t-.288-.712T15 6t-.712.288T14 7t.288.713T15 8m3 0q.425 0 .713-.288T19 7t-.288-.712T18 6t-.712.288T17 7t.288.713T18 8M6 11q.425 0 .713-.288T7 10t-.288-.712T6 9t-.712.288T5 10t.288.713T6 11m3 0q.425 0 .713-.288T10 10t-.288-.712T9 9t-.712.288T8 10t.288.713T9 11m3 0q.425 0 .713-.288T13 10t-.288-.712T12 9t-.712.288T11 10t.288.713T12 11m3 0q.425 0 .713-.288T16 10t-.288-.712T15 9t-.712.288T14 10t.288.713T15 11m3 0q.425 0 .713-.288T19 10t-.288-.712T18 9t-.712.288T17 10t.288.713T18 11"/></svg>