<svg xmlns="http://www.w3.org/2000/svg" viewBox="0 0 24 24" width="24" height="24"><path fill="currentColor" d="M4 17V7zm0 2q-.825 0-1.412-.587T2 17V7q0-.825.588-1.412T4 5h16q.825 0 1.413.588T22 7v5q0 .5-.312.75T21 13t-.687-.25T20 12V7H4v10h7q.425 0 .713.288T12 18t-.288.713T11 19zm5-3h3q.425 0 .713-.288T13 15t-.288-.712T12 14H9q-.425 0-.712.288T8 15t.288.713T9 16m9.175 3H15q-.425 0-.712-.288T14 18t.288-.712T15 17h3.175l-.9-.9Q17 15.825 17 15.413t.3-.713q.275-.275.7-.275t.7.275l2.6 2.6q.3.3.3.7t-.3.7l-2.6 2.6q-.275.275-.687.288T17.3 21.3q-.275-.275-.275-.7t.275-.7zM6 10q.425 0 .713-.288T7 9t-.288-.712T6 8t-.712.288T5 9t.288.713T6 10m3 0q.425 0 .713-.288T10 9t-.288-.712T9 8t-.712.288T8 9t.288.713T9 10m3 0q.425 0 .713-.288T13 9t-.288-.712T12 8t-.712.288T11 9t.288.713T12 10m3 0q.425 0 .713-.288T16 9t-.288-.712T15 8t-.712.288T14 9t.288.713T15 10m3 0q.425 0 .713-.288T19 9t-.288-.712T18 8t-.712.288T17 9t.288.713T18 10M6 13q.425 0 .713-.288T7 12t-.288-.712T6 11t-.712.288T5 12t.288.713T6 13m3 0q.425 0 .713-.288T10 12t-.288-.712T9 11t-.712.288T8 12t.288.713T9 13m3 0q.425 0 .713-.288T13 12t-.288-.712T12 11t-.712.288T11 12t.288.713T12 13m3 0q.425 0 .713-.288T16 12t-.288-.712T15 11t-.712.288T14 12t.288.713T15 13m2-1q0 .425.288.713T18 13t.713-.288T19 12v.038V12q0-.425-.288-.712T18 11t-.712.288T17 12"/></svg>