<svg xmlns="http://www.w3.org/2000/svg" viewBox="0 0 24 24" width="24" height="24"><path fill="currentColor" d="M19.85 22.525L2.175 4.85q-.3-.3-.287-.712t.312-.713t.713-.3t.712.3L21.275 21.1zM9 16q-.425 0-.712-.288T8 15t.288-.712T9 14h5.175l2 2zm13-9v9.5q0 .5-.312.75T21 17.5t-.687-.25T20 16.5V7h-9.5q-.5 0-.75-.312T9.5 6t.25-.687T10.5 5H20q.825 0 1.413.588T22 7M4 19q-.825 0-1.412-.587T2 17V7q0-.825.588-1.412T4 5h1.175l2 2H4v10h13.175l2 2zm2-9q-.425 0-.712-.288T5 9t.288-.712T6 8t.713.288T7 9t-.288.713T6 10m6.7-.3l-1.4-1.4q.125-.125.312-.213T12 8q.425 0 .713.288T13 9q0 .2-.088.388T12.7 9.7m2.3.3q-.425 0-.712-.287T14 9t.288-.712T15 8t.713.288T16 9t-.288.713T15 10m3 0q-.425 0-.712-.288T17 9t.288-.712T18 8t.713.288T19 9t-.288.713T18 10M6 13q-.425 0-.712-.288T5 12t.288-.712T6 11t.713.288T7 12t-.288.713T6 13m3 0q-.425 0-.712-.288T8 12t.288-.712T9 11t.713.288T10 12t-.288.713T9 13m6.7-.3l-1.4-1.4q.125-.125.312-.213T15 11q.425 0 .713.288T16 12q0 .2-.088.388t-.212.312m2.3.3q-.425 0-.712-.287T17 12t.288-.712T18 11t.713.288T19 12t-.288.713T18 13"/></svg>