<svg xmlns="http://www.w3.org/2000/svg" viewBox="0 0 24 24" width="24" height="24"><path fill="currentColor" d="M2.15 17q-.125-.2-.075-.45t.275-.4q.35-.25.675-.512T3.7 15.1v-2.875H2.575q-.225 0-.387-.162t-.163-.388t.163-.387t.387-.163H4.35q.2 0 .35.15t.15.35v3.4q.5.625 1.25.95t1.55.325q1.25 0 2.475-.025T12.6 16.2q.25-.025.363.138t.037.412q-.025.075-.062.163t-.063.162q-.075.25-.25.275t-.425.025q-1.15.025-2.275 0T7.65 17.35q-.95 0-1.85-.325T4.25 16q-.3.3-.625.6t-.675.575q-.2.175-.438.112T2.15 17m9.6-1.55q-.65-.4-1.187-.9t-1.038-1.075v2.075q0 .225-.162.388t-.388.162t-.4-.175t-.175-.4V13.45q-.45.6-1.025 1.088t-1.2.912q-.2.125-.437.1t-.413-.225t-.125-.362t.25-.288q.7-.375 1.3-.875t1.1-1.125h-1.6q-.2 0-.35-.15t-.15-.35V9.95q0-.2.15-.35t.35-.15h2.175V8.7H5.75q-.2 0-.35-.162t-.15-.363t.163-.35t.362-.15h2.65v-.65q0-.225.163-.387t.387-.163t.388.163t.162.387v.65h2.9q.2 0 .35.15t.15.35t-.15.363t-.35.162h-2.9v.75h2.325q.2 0 .35.15t.15.35v2.2q0 .2-.15.35t-.35.15h-1.775q.525.6 1.138 1.1t1.312.85q.225.125.25.288t-.15.362q-.2.2-.437.263t-.438-.063M6.875 11.7H8.4v-1.275H6.875zm2.625 0h1.75v-1.275H9.5zM3.95 9.025q-.3-.375-.65-.687t-.75-.588q-.2-.125-.212-.325t.162-.35q.2-.15.45-.15t.425.125q.375.3.713.613t.687.662q.175.175.175.413t-.2.387t-.425.125t-.375-.225m13.6 6.625q.7 0 1.363-.325t1.212-.925v-2.65q-.575.075-1.062.175t-.913.225q-1.125.35-1.687.875T15.9 14.25q0 .65.45 1.025t1.2.375m-.575 1.7q-1.425 0-2.25-.812t-.825-2.213q0-1.3.825-2.125t2.65-1.325q.575-.15 1.263-.275t1.487-.225q-.05-1.175-.55-1.713t-1.55-.537q-.525 0-1.025.15t-1.175.5q-.3.175-.625.1t-.5-.375t-.075-.638t.4-.512q.775-.425 1.663-.687T18.5 6.4q1.775 0 2.7 1.1t.925 3.2v5.6q0 .35-.238.588t-.587.237h-.125q-.325 0-.55-.213t-.275-.512l-.05-.4q-.7.625-1.537.988t-1.788.362"/></svg>