<svg xmlns="http://www.w3.org/2000/svg" viewBox="0 0 24 24" width="24" height="24"><path fill="currentColor" d="M5 19V5zm0 2q-.825 0-1.412-.587T3 19V5q0-.825.588-1.412T5 3h14q.825 0 1.413.588T21 5v7.525q0 .425-.288.7T20 13.5t-.712-.288T19 12.5V5H5v14h6q.425 0 .713.288T12 20t-.288.713T11 21zm3-4q.425 0 .713-.288T9 16t-.288-.712T8 15t-.712.288T7 16t.288.713T8 17m0-4q.425 0 .713-.288T9 12t-.288-.712T8 11t-.712.288T7 12t.288.713T8 13m0-4q.425 0 .713-.288T9 8t-.288-.712T8 7t-.712.288T7 8t.288.713T8 9m8 4q.425 0 .713-.288T17 12t-.288-.712T16 11h-4q-.425 0-.712.288T11 12t.288.713T12 13zm0-4q.425 0 .713-.288T17 8t-.288-.712T16 7h-4q-.425 0-.712.288T11 8t.288.713T12 9zm-5 7q0 .425.288.713T12 17h.05q.425 0 .713-.288T13.05 16t-.288-.712T12.05 15H12q-.425 0-.712.288T11 16m6 4h-2q-.425 0-.712-.288T14 19t.288-.712T15 18h2v-2q0-.425.288-.712T18 15t.713.288T19 16v2h2q.425 0 .713.288T22 19t-.288.713T21 20h-2v2q0 .425-.288.713T18 23t-.712-.288T17 22z"/></svg>