<svg xmlns="http://www.w3.org/2000/svg" viewBox="0 0 24 24" width="24" height="24"><path fill="currentColor" d="m13.2 3.9l6 4.5q.375.275.588.7T20 10v9q0 .825-.587 1.413T18 21H6q-.825 0-1.412-.587T4 19v-9q0-.475.213-.9t.587-.7l6-4.5q.525-.4 1.2-.4t1.2.4M12 15q1.25 0 2.125-.875T15 12t-.875-2.125T12 9t-2.125.875T9 12t.875 2.125T12 15m0-2q-.425 0-.712-.287T11 12t.288-.712T12 11t.713.288T13 12t-.288.713T12 13m0 5q-1.025 0-2 .25T8.15 19h7.7q-.875-.5-1.85-.75T12 18m-6-8v8q1.3-.975 2.825-1.487T12 16t3.175.513T18 18v-8l-6-4.5zm6 2"/></svg>