<svg xmlns="http://www.w3.org/2000/svg" viewBox="0 0 24 24" width="24" height="24"><path fill="currentColor" d="M6.975 22q-.775 0-1.337-.513T5 20.226L3.275 4.475q-.125-1 .55-1.737T5.5 2h13q1 0 1.675.738t.55 1.737L19 20.225q-.075.75-.638 1.263T17.026 22zM5.9 10L7 20h10l1.1-10zm-.25-2h12.7l.4-4H5.25zM12 17q-.35 0-.6-.25t-.25-.6q0-.375.213-.862T12 14.174q.425.625.638 1.113t.212.862q0 .35-.25.6T12 17m0 2q1.2 0 2.025-.825t.825-2.025q0-1.175-.687-2.275t-1.388-1.95q-.15-.2-.363-.288T12 11.55t-.413.088t-.362.287q-.7.85-1.387 1.95T9.15 16.15q0 1.2.825 2.025T12 19m-6.1 1h12.2z"/></svg>