<svg xmlns="http://www.w3.org/2000/svg" viewBox="0 0 24 24" width="24" height="24"><path fill="currentColor" d="M4 21q-.825 0-1.412-.587T2 19v-9q0-.475.213-.9t.587-.7l6-4.5q.275-.2.575-.3T10 3.5t.625.1t.575.3l2.725 2.05q.4.3.412.713t-.212.712t-.612.388t-.813-.213L10 5.5L4 10v9h3q.425 0 .713.288T8 20t-.288.713T7 21zm12-5q1.35 0 2.613.35t2.412 1.025q.45.275.713.738T22 19.1q0 .8-.55 1.35T20.1 21h-8.2q-.8 0-1.35-.55T10 19.1q0-.525.263-.988t.712-.737q1.15-.675 2.413-1.025T16 16m-3.85 3h7.7q-.875-.5-1.85-.75T16 18t-2 .25t-1.85.75M16 15q-1.25 0-2.125-.875T13 12t.875-2.125T16 9t2.125.875T19 12t-.875 2.125T16 15m0-2q.425 0 .713-.288T17 12t-.288-.712T16 11t-.712.288T15 12t.288.713T16 13m0 6"/></svg>