<svg xmlns="http://www.w3.org/2000/svg" viewBox="0 0 24 24" width="24" height="24"><path fill="currentColor" d="M12 21.975q0-3.15 1.9-5.575t4.825-3.15q.475-.125.938-.087t.812.387q.3.325.338.775t-.088.875q-.7 2.95-3.137 4.863T12 21.975m2.45-2.425q1.425-.525 2.5-1.6t1.6-2.5q-1.425.525-2.5 1.6t-1.6 2.5M12 22q0-3.15-1.9-5.575t-4.825-3.15q-.475-.125-.937-.088t-.813.388q-.3.325-.337.775t.087.875q.7 2.95 3.138 4.863T12 22m-2.45-2.45q-1.425-.525-2.5-1.6t-1.6-2.5q1.425.525 2.5 1.6t1.6 2.5M12 9q.425 0 .713-.288T13 8t-.288-.712T12 7t-.712.288T11 8t.288.713T12 9m0 6q-.975 0-1.763-.537T9.1 13.05q-.125 0-.225.013t-.225.012q-1.3 0-2.225-.925T5.5 9.925q0-.525.175-1.013T6.2 8q-.325-.425-.5-.913t-.175-1.012q0-1.3.913-2.225t2.212-.925q.125 0 .225.013t.225.012q.35-.875 1.138-1.412T12 1t1.763.538T14.9 2.95q.125 0 .225-.012t.225-.013q1.3 0 2.213.925t.912 2.225q0 .525-.162 1.012T17.8 8q.325.425.5.913t.175 1.012q0 1.3-.913 2.225t-2.212.925q-.125 0-.225-.012t-.225-.013q-.35.875-1.137 1.413T12 15m3.35-3.925q.475 0 .813-.337t.337-.813q0-.35-.187-.612t-.488-.413l-.875-.425q-.05.275-.15.538t-.225.487t-.3.425t-.375.375l.8.575q.125.1.288.15t.362.05m-.4-3.55l.875-.425q.3-.15.475-.425t.175-.6q0-.475-.325-.812t-.8-.338q-.2 0-.35.05t-.3.15l-.825.575q.2.175.388.375t.312.425t.225.488t.15.537M10.975 5.2q.25-.1.5-.15T12 5t.525.05t.5.15l.125-1.1q.05-.45-.312-.775T12 3t-.837.325t-.313.775zM12 13q.475 0 .838-.325t.312-.775l-.125-1.1q-.25.1-.5.15T12 11t-.525-.05t-.5-.15l-.125 1.1q-.05.45.313.775T12 13M9.05 7.525q.05-.275.15-.537t.225-.488t.3-.425t.375-.375l-.8-.575q-.125-.1-.288-.15t-.362-.05q-.475 0-.812.338t-.338.812q0 .325.188.6t.487.425zm-.4 3.525q.2 0 .35-.038t.3-.162l.825-.55q-.2-.175-.387-.375T9.425 9.5T9.2 9.012t-.15-.537l-.875.425q-.3.15-.475.425t-.175.6q.025.475.338.8t.787.325m.775-1.55"/></svg>