<svg xmlns="http://www.w3.org/2000/svg" viewBox="0 0 24 24" width="24" height="24"><path fill="currentColor" d="M9 8h6V6q0-1.25-.875-2.125T12 3t-2.125.875T9 6zM6 22q-.825 0-1.412-.587T4 20V10q0-.825.588-1.412T6 8h1V6q0-2.075 1.463-3.537T12 1t3.538 1.463T17 6v2h1q.825 0 1.413.588T20 10q0 .5-.312.75T19 11t-.687-.25T18 10H6v10h5q.425 0 .713.288T12 21t-.288.713T11 22zm0-12v10zm12 8q.625 0 1.063-.437T19.5 16.5t-.437-1.062T18 15t-1.062.438T16.5 16.5t.438 1.063T18 18m0 3q.75 0 1.4-.35t1.075-.975q-.575-.35-1.2-.513T18 19t-1.275.162t-1.2.513q.425.625 1.075.975T18 21m0 2q-2.075 0-3.537-1.463T13 18t1.463-3.537T18 13t3.538 1.463T23 18t-1.463 3.538T18 23"/></svg>