<svg xmlns="http://www.w3.org/2000/svg" viewBox="0 0 24 24" width="24" height="24"><path fill="currentColor" d="M4 21q-.825 0-1.412-.587T2 19v-2q0-.425.288-.712T3 16h18q.425 0 .713.288T22 17v2q0 .825-.587 1.413T20 21zm0-3v1h16v-1zm8-4.5q-.9 0-1.425.5t-1.925.5t-1.9-.5t-1.4-.5q-.7 0-1.138.338t-1.187.537q-.4.125-.712-.162T2 13.5t.288-.737t.687-.513l.925-.488q.5-.263 1.45-.262q1.4 0 1.9.5t1.4.5t1.425-.5T12 11.5t1.925.5t1.425.5t1.4-.5t1.9-.5q.9 0 1.425.25t.95.475q.4.2.688.525t.287.75t-.3.713t-.7.162q-.725-.2-1.137-.537T18.75 13.5q-.9 0-1.45.5t-1.95.5t-1.925-.5T12 13.5M12 3q1.85 0 3.638.338t3.2 1.05t2.287 1.85T22 9q0 .425-.288.713T21 10H3q-.425 0-.712-.288T2 9q0-1.625.875-2.762t2.288-1.85t3.2-1.05T12 3m0 2q-3.1 0-5.187.775T4.15 8h15.7q-.575-1.45-2.662-2.225T12 5m0 3"/></svg>