<svg xmlns="http://www.w3.org/2000/svg" viewBox="0 0 24 24" width="24" height="24"><path fill="currentColor" d="m12 11l8-5H4zm-8 9q-.825 0-1.412-.587T2 18V6q0-.825.588-1.412T4 4h16q.825 0 1.413.588T22 6v6q0 .425-.288.713T21 13t-.712-.288T20 12V8l-6.95 4.35q-.5.3-1.05.3t-1.05-.3L4 8v10h8q.425 0 .713.288T13 19t-.288.713T12 20zm15 1l-.625 1.1q-.2.35-.612.45t-.763-.1t-.462-.6t.087-.75l.65-1.1H16q-.425 0-.713-.288T15 19t.288-.712T16 18h1.275l-.65-1.1q-.2-.35-.088-.75t.463-.6t.763-.1t.612.45L19 17l.625-1.1q.2-.35.613-.45t.762.1t.463.6t-.088.75l-.65 1.1H22q.425 0 .713.288T23 19t-.288.713T22 20h-1.275l.65 1.1q.2.35.088.75t-.463.6t-.763.1t-.612-.45z"/></svg>