<svg xmlns="http://www.w3.org/2000/svg" viewBox="0 0 24 24" width="24" height="24"><path fill="currentColor" d="M16 10V6.85zM4.35 20.7q-.5.2-.925-.112T3 19.75v-14q0-.325.188-.575T3.7 4.8l4.65-1.575Q8.675 3.1 9 3.1t.65.125L15 5.1l4.65-1.8q.5-.2.925.113T21 4.25v7.425q0 .425-.287.713t-.713.287t-.712-.288t-.288-.712V5.7l-3 1.15v2.5q0 .425-.288.713T15 10.35t-.712-.287T14 9.35v-2.5l-4-1.4v12.025q0 .475-.262.85t-.688.55zM5 18.3l3-1.15V5.45l-3 1zm11-.3q.85 0 1.413-.5T18 16q.025-.85-.562-1.425T16 14t-1.425.575T14 16t.575 1.425T16 18m0 2q-1.65 0-2.825-1.175T12 16t1.175-2.825T16 12t2.825 1.175T20 16q0 .575-.137 1.088t-.413.962l1.85 1.85q.275.275.275.7t-.275.7t-.7.275t-.7-.275l-1.85-1.85q-.45.275-.962.413T16 20M8 5.45v11.7z"/></svg>