<svg xmlns="http://www.w3.org/2000/svg" viewBox="0 0 24 24" width="24" height="24"><path fill="currentColor" d="m15.25 12.125l-.675-.675q-.225-.225-.525-.213t-.525.238T13.3 12t.225.525L15.3 14.3q.3.3.7.3t.7-.3l1.775-1.775Q18.7 12.3 18.7 12t-.225-.525t-.538-.225t-.537.225l-.65.65V9.75q0-.325-.213-.537T16 9t-.537.213t-.213.537zM4 20q-.825 0-1.412-.587T2 18V6q0-.825.588-1.412T4 4h16q.825 0 1.413.588T22 6v12q0 .825-.587 1.413T20 20zm0-2h16V6H4zm0 0V6zm3-7.5h1v2.25q0 .325.213.538t.537.212t.538-.213t.212-.537V10.5h1v3.75q0 .325.213.538t.537.212t.538-.213t.212-.537V10q0-.425-.288-.712T11 9H6.5q-.425 0-.712.288T5.5 10v4.25q0 .325.213.538T6.25 15t.538-.213T7 14.25z"/></svg>