<svg xmlns="http://www.w3.org/2000/svg" viewBox="0 0 24 24" width="24" height="24"><path fill="currentColor" d="M8.05 14q-2.5 0-4.275-1.75T2 8q0-2.35 1.563-4.025T7.374 2.05q.325-.05.5.25t-.025.6q-.275.5-.4 1.013T7.325 5q0 1.875 1.312 3.188T11.826 9.5q.3 0 .6-.038T13 9.35q.35-.1.588.125t.137.525q-.65 1.775-2.187 2.888T8.05 14m-.025-2q.6 0 1.188-.162t1.087-.513Q8.125 10.8 6.75 9.063T5.325 5.1q-.65.575-.987 1.325T4 8q0 1.65 1.175 2.825T8.025 12M18 11h2V8h-2zm1 4q.425 0 .713-.288T20 14v-1h-2v1q0 .425.288.713T19 15M5.85 20h4.3q.35 0 .625-.2t.35-.55L11.45 18h-6.9l.325 1.25q.075.35.35.55t.625.2M2 22q-.425 0-.712-.288T1 21t.288-.712T2 20h1q-.025-.075-.038-.137t-.037-.138L2.3 17.25q-.125-.475.175-.862t.8-.388h9.45q.5 0 .8.388t.175.862l-.625 2.475q-.025.075-.037.138T13 20h5v-3.175q-.9-.325-1.45-1.1T16 14V7q0-.425.288-.712T17 6h4q.425 0 .713.288T22 7v7q0 .95-.55 1.725t-1.45 1.1V20h2q.425 0 .713.288T23 21t-.288.713T22 22zm17-9"/></svg>