<svg xmlns="http://www.w3.org/2000/svg" viewBox="0 0 24 24" width="24" height="24"><path fill="currentColor" d="M5.85 20h4.3q.35 0 .625-.2t.35-.55L11.45 18h-6.9l.325 1.25q.075.35.35.55t.625.2M3 10q.425 0 .713.288T4 11v1q0 .425-.288.713T3 13t-.712-.288T2 12v-1q0-.425.288-.712T3 10m4.95-2.05q.3-.3.713-.3t.712.3l.7.7q.3.3.3.712t-.3.713t-.712.3t-.713-.3l-.7-.725q-.3-.3-.3-.7t.3-.7M3 8q-.425 0-.712-.287T2 7q0-.4.363-.562T3 6q1.25 0 2.125-.875T6 3q0-.425.288-.712T7 2q.4 0 .563.363T8 3q0 2.075-1.463 3.538T3 8m7-5q0-.425.288-.712T11 2h1q.425 0 .713.288T13 3t-.288.713T12 4h-1q-.425 0-.712-.288T10 3M2 22q-.425 0-.712-.288T1 21t.288-.712T2 20h1q-.025-.075-.038-.137t-.037-.138L2.3 17.25q-.125-.475.175-.862t.8-.388h9.45q.5 0 .8.388t.175.862l-.625 2.475q-.025.075-.037.138T13 20h6.15l.675-8h-5.65l.075.925q.05.425-.262.75T13.25 14q-.4 0-.675-.262t-.325-.663l-.15-2q-.05-.425.25-.75t.725-.325h7.85q.425 0 .725.325t.25.75L21.175 20H22q.425 0 .713.288T23 21t-.288.713T22 22zm6-2"/></svg>