<svg xmlns="http://www.w3.org/2000/svg" viewBox="0 0 24 24" width="24" height="24"><path fill="currentColor" d="M7 16v1q0 .425.288.713T8 18t.713-.288T9 17v-1h1q.425 0 .713-.288T11 15t-.288-.712T10 14H9v-1q0-.425-.288-.712T8 12t-.712.288T7 13v1H6q-.425 0-.712.288T5 15t.288.713T6 16zm6.75-1.5h4.5q.325 0 .538-.213T19 13.75t-.213-.537T18.25 13h-4.5q-.325 0-.537.213T13 13.75t.213.538t.537.212m0 3h2.5q.325 0 .538-.213T17 16.75t-.213-.537T16.25 16h-2.5q-.325 0-.537.213T13 16.75t.213.538t.537.212M4 22q-.825 0-1.412-.587T2 20V9q0-.825.588-1.412T4 7h5V4q0-.825.588-1.412T11 2h2q.825 0 1.413.588T15 4v3h5q.825 0 1.413.588T22 9v11q0 .825-.587 1.413T20 22zm0-2h16V9h-5q0 .825-.587 1.413T13 11h-2q-.825 0-1.412-.587T9 9H4zm7-11h2V4h-2zm1 5.5"/></svg>