<svg xmlns="http://www.w3.org/2000/svg" viewBox="0 0 24 24" width="24" height="24"><path fill="currentColor" d="M4 3h10q.425 0 .713.288T15 4t-.288.713T14 5H4q-.425 0-.712-.288T3 4t.288-.712T4 3m3.5 12v1q0 .625.438 1.063T9 17.5t1.063-.437T10.5 16v-1h1q.625 0 1.063-.437T13 13.5t-.437-1.062T11.5 12h-1v-1q0-.625-.437-1.062T9 9.5t-1.062.438T7.5 11v1h-1q-.625 0-1.062.438T5 13.5t.438 1.063T6.5 15zM4 21q-.825 0-1.412-.587T2 19V8q0-.825.588-1.412T4 6h10q.825 0 1.413.588T16 8v11q0 .825-.587 1.413T14 21zm0-2h10V8H4zm15-5.25q-.875-.425-1.437-1.412T17 10q0-1.7.863-2.85T20 6t2.138 1.15T23 10q0 1.35-.562 2.338T21 13.75V20q0 .425-.288.713T20 21t-.712-.288T19 20zM20 12q.3 0 .65-.537T21 10t-.35-1.463T20 8t-.65.538T19 10t.35 1.463T20 12m0-2"/></svg>