<svg xmlns="http://www.w3.org/2000/svg" viewBox="0 0 24 24" width="24" height="24"><path fill="currentColor" d="M9 14v-4q0-.425.288-.712T10 9h4q.425 0 .713.288T15 10v4q0 .425-.288.713T14 15h-4q-.425 0-.712-.288T9 14m2-1h2v-2h-2zm-2 7v-1H7q-.825 0-1.412-.587T5 17v-2H4q-.425 0-.712-.288T3 14t.288-.712T4 13h1v-2H4q-.425 0-.712-.288T3 10t.288-.712T4 9h1V7q0-.825.588-1.412T7 5h2V4q0-.425.288-.712T10 3t.713.288T11 4v1h2V4q0-.425.288-.712T14 3t.713.288T15 4v1h2q.825 0 1.413.588T19 7v2h1q.425 0 .713.288T21 10t-.288.713T20 11h-1v2h1q.425 0 .713.288T21 14t-.288.713T20 15h-1v2q0 .825-.587 1.413T17 19h-2v1q0 .425-.288.713T14 21t-.712-.288T13 20v-1h-2v1q0 .425-.288.713T10 21t-.712-.288T9 20m8-3V7H7v10zm-5-5"/></svg>