<svg xmlns="http://www.w3.org/2000/svg" viewBox="0 0 24 24" width="24" height="24"><path fill="currentColor" d="M16.8 14.575q-.35-.2-.45-.612t.1-.763q.175-.275.288-.587t.162-.638q.1-.425.388-.7T18 11t.7.3t.225.725q-.075.575-.262 1.125t-.488 1.05q-.2.35-.612.463t-.763-.088M12 2q1.25 0 2.125.875T15 5v4.75q0 .5-.312.75t-.688.25t-.687-.262T13 9.725V5q0-.425-.288-.712T12 4t-.712.288T11 5v.75q0 .5-.312.75T10 6.75t-.687-.262T9 5.725V5q0-1.25.875-2.125T12 2m-1 18v-2.075q-2.3-.3-3.937-1.937t-1.988-3.963q-.05-.425.225-.725T6 11t.725.288T7.1 12q.35 1.775 1.725 2.888T12 16q.85 0 1.613-.262T15 15l1.425 1.425q-.725.575-1.588.975T13 17.925V20q0 .425-.288.713T12 21t-.712-.288T11 20m8.1 1.9l-17-17q-.275-.275-.275-.7t.275-.7t.7-.275t.7.275l17 17q.275.275.275.7t-.275.7t-.7.275t-.7-.275"/></svg>