<svg xmlns="http://www.w3.org/2000/svg" viewBox="0 0 24 24" width="24" height="24"><path fill="currentColor" d="M8.7 5.7q-.275.275-.7.275T7.3 5.7L5.7 4.1q-.275-.275-.275-.7t.275-.7t.7-.275t.7.275l1.6 1.6q.275.275.275.7t-.275.7m6.6 0q-.275-.275-.275-.7t.275-.7l1.6-1.6q.275-.275.7-.275t.7.275t.275.7t-.275.7l-1.6 1.6q-.275.275-.7.275t-.7-.275M12 5q-.425 0-.712-.288T11 4V1q0-.425.288-.712T12 0t.713.288T13 1v3q0 .425-.288.713T12 5M3 22.5v-7.15q0-.175.025-.35t.075-.325L4.975 9.35q.2-.6.725-.975T6.875 8h10.25q.65 0 1.175.375t.725.975l1.875 5.325q.05.15.075.325t.025.35v7.15q0 .625-.437 1.063T19.5 24t-1.062-.437T18 22.5V22H6v.5q0 .625-.437 1.063T4.5 24t-1.062-.437T3 22.5M5.8 13h12.4l-1.05-3H6.85zm1.7 6q.625 0 1.063-.437T9 17.5t-.437-1.062T7.5 16t-1.062.438T6 17.5t.438 1.063T7.5 19m9 0q.625 0 1.063-.437T18 17.5t-.437-1.062T16.5 16t-1.062.438T15 17.5t.438 1.063T16.5 19M5 20h14v-5H5zm0 0v-5z"/></svg>