<svg xmlns="http://www.w3.org/2000/svg" viewBox="0 0 24 24" width="24" height="24"><path fill="currentColor" d="M6 17H5q-.825 0-1.412-.587T3 15V7.5q-.425 0-.712-.288T2 6.5t.288-.712T3 5.5h3V4h-.5q-.425 0-.712-.288T4.5 3t.288-.712T5.5 2h3q.425 0 .713.288T9.5 3t-.288.713T8.5 4H8v1.5h3q.425 0 .713.288T12 6.5t-.288.713T11 7.5V15q0 .825-.587 1.413T9 17H8v4.5q0 .3-.275.45T7.2 21.9l-.8-.6q-.2-.15-.3-.35T6 20.5zm11 5q-1.65 0-2.825-1.175T13 18v-8q0-1.65 1.175-2.825T17 6t2.825 1.175T21 10v8q0 1.65-1.175 2.825T17 22M5 15h4v-1.5H7.25q-.3 0-.525-.225T6.5 12.75t.225-.525T7.25 12H9v-1.5H7.25q-.3 0-.525-.225T6.5 9.75t.225-.525T7.25 9H9V7.5H5zm12-7q-.825 0-1.412.588T15 10h4q0-.825-.587-1.412T17 8m-2 8h4v-4h-4zm2 4q.825 0 1.413-.587T19 18h-4q0 .825.588 1.413T17 20m0-2"/></svg>