<svg xmlns="http://www.w3.org/2000/svg" viewBox="0 0 24 24" width="24" height="24"><path fill="currentColor" d="M7 12v9V3zm0 11q-.825 0-1.412-.587T5 21V3q0-.825.588-1.412T7 1h10q.825 0 1.413.588T19 3v1q0 .425-.288.713T18 5t-.712-.288T17 4V3H7v18h10v-1q0-.425.288-.712T18 19t.713.288T19 20v1q0 .825-.587 1.413T17 23zm5-17q.425 0 .713-.288T13 5t-.288-.712T12 4t-.712.288T11 5t.288.713T12 6m3.75 8.15q-.35-.175-.513-.537t.063-.788q.125-.2.163-.4T15.5 12t-.038-.425t-.162-.4q-.225-.425-.062-.788t.512-.537t.738-.087t.637.562q.2.4.288.825t.087.85t-.088.85t-.287.825q-.25.475-.638.562t-.737-.087m2.425 2.45q-.325-.2-.45-.562t.15-.688q.575-.725.85-1.562T19 12t-.275-1.787t-.85-1.563q-.275-.325-.15-.687t.45-.563t.738-.175t.762.525q.65.925.988 2.013T21 12t-.337 2.238t-.988 2.012q-.35.5-.763.525t-.737-.175"/></svg>