<svg xmlns="http://www.w3.org/2000/svg" viewBox="0 0 24 24" width="24" height="24"><path fill="currentColor" d="M7 21V3zm5-15q.425 0 .713-.288T13 5t-.288-.712T12 4t-.712.288T11 5t.288.713T12 6M7 23q-.825 0-1.412-.587T5 21V3q0-.825.588-1.412T7 1h10q.825 0 1.413.588T19 3v3.1q.45.175.725.55T20 7.5v2q0 .475-.275.85T19 10.9V12q0 .425-.288.713T18 13t-.712-.288T17 12V3H7v18h1q.425 0 .713.288T9 22t-.288.713T8 23zm6.825-4l1.475 1.475q.275.275.275.688t-.275.712q-.3.3-.712.3t-.713-.3L11.7 19.7q-.3-.3-.3-.7t.3-.7l2.2-2.2q.3-.3.7-.288t.7.313q.275.3.287.7t-.287.7zm6.35 0L18.7 17.525q-.275-.275-.275-.687t.275-.713q.3-.3.713-.3t.712.3L22.3 18.3q.3.3.3.7t-.3.7l-2.2 2.2q-.3.3-.7.288t-.7-.313q-.275-.3-.288-.7t.288-.7z"/></svg>