<svg xmlns="http://www.w3.org/2000/svg" viewBox="0 0 24 24" width="24" height="24"><path fill="currentColor" d="M9.55 20H6q-.425 0-.712-.288T5 19t.288-.712T6 18h3.55l-.4-.4q-.275-.275-.275-.7t.275-.7t.7-.275t.7.275l2.1 2.1q.15.15.212.325t.063.375t-.063.375t-.212.325l-2.1 2.1q-.275.275-.7.275t-.7-.275t-.275-.7t.275-.7zM15 20q-.425 0-.712-.288T14 19t.288-.712T15 18h3q.425 0 .713.288T19 19t-.288.713T18 20zM7 4v12q0 .425-.288.713T6 17t-.712-.288T5 16V4q0-.825.588-1.412T7 2h10q.825 0 1.413.588T19 4v3.1q.45.175.725.55T20 8.5v2q0 .475-.275.85T19 11.9V16q0 .425-.288.713T18 17t-.712-.288T17 16V4zm5 3q.425 0 .713-.288T13 6t-.288-.712T12 5t-.712.288T11 6t.288.713T12 7"/></svg>