<svg xmlns="http://www.w3.org/2000/svg" viewBox="0 0 24 24" width="24" height="24"><path fill="currentColor" d="m11.6 23l-8.9-1.325q-.825-.125-1.325-.788T1 19.4L3.35 3.575q.125-.825.788-1.312T5.625 1.9l.7.1q.425.05.663.388t.187.762t-.375.65t-.75.175l-.725-.1L3 19.7l8.9 1.3l.275-1.925q.05-.425.375-.662t.75-.188t.663.388t.187.762l-.275 1.925q-.125.825-.788 1.325T11.6 23m10.225-12.5l-5.675 5.675q-.275.275-.687.275t-.713-.3q-.3-.275-.3-.687t.3-.713L20.4 9.1q.3-.3.45-.662t.15-.763q0-.375-.15-.75t-.45-.675l-3.225-3.225H13.1l1.05.575q.425.25.5.75t-.275.85l-5.3 5.3q-.275.3-.687.3t-.713-.3q-.275-.275-.275-.7t.275-.7l4.375-4.375l-1.525-.85q-.475-.275-.75-.737T9.5 2.125V2q0-.425.288-.712T10.5 1h6.25q.6 0 1.15.238t.975.662l2.95 2.95q.575.575.863 1.313t.287 1.512Q23 8.45 22.7 9.188t-.875 1.312m-13.45 3.525q-.3-.275-.3-.687t.3-.713l4.25-4.25q.275-.275.688-.275t.712.275q.3.3.313.713t-.288.712L9.8 14.05q-.275.3-.7.288t-.725-.313M11.2 15.45q-.275-.3-.288-.712t.288-.713l3.55-3.55q.3-.3.713-.3t.712.3t.3.713t-.3.712l-3.55 3.55q-.3.3-.712.3t-.713-.3m9.3 4.625l-2.425 2.4q-.225.2-.525.213t-.525-.213t-.225-.525t.225-.525l2.4-2.425H17.75q-.325 0-.537-.212T17 18.25t.213-.537t.537-.213H21q.425 0 .713.288T22 18.5v3.25q0 .325-.213.538t-.537.212t-.537-.213t-.213-.537zM16.6 7.7"/></svg>