<svg xmlns="http://www.w3.org/2000/svg" viewBox="0 0 24 24" width="24" height="24"><path fill="currentColor" d="M7 21V3zm10 0v-2zm-2-6h5v-3h-5zm6 2h-6l-1.15 1.15q-.125.125-.275.138t-.275-.038t-.213-.163T13 17.8V11q0-.425.288-.712T14 10h7q.425 0 .713.288T22 11v5q0 .425-.288.713T21 17M7 23q-.825 0-1.412-.587T5 21V3q0-.825.588-1.412T7 1h10q.825 0 1.413.588T19 3v4q0 .425-.288.713T18 8t-.712-.288T17 7V3H7v18h10v-1q0-.425.288-.712T18 19t.713.288T19 20v1q0 .825-.587 1.413T17 23zm5-17q.425 0 .713-.288T13 5t-.288-.712T12 4t-.712.288T11 5t.288.713T12 6m3 9v-3z"/></svg>