<svg xmlns="http://www.w3.org/2000/svg" viewBox="0 0 24 24" width="24" height="24"><path fill="currentColor" d="M7 23q-.825 0-1.412-.587T5 21V3q0-.825.588-1.412T7 1h10q.825 0 1.413.588T19 3v3.1q.45.175.725.55T20 7.5v2q0 .475-.275.85T19 10.9V21q0 .825-.587 1.413T17 23zm0-2h10V3H7zm0 0V3zm2-5h6q.425 0 .713-.288T16 15v-1.675q0-.125-.1-.225t-.225-.15q-.3-.1-.488-.35T15 12t.188-.6t.487-.35q.15-.05.238-.15t.087-.225V9q0-.425-.288-.712T15 8H9q-.425 0-.712.288T8 9v1.675q0 .125.1.225t.225.15q.3.1.488.35T9 12t-.187.6t-.488.35q-.15.05-.238.15T8 13.325V15q0 .425.287.713T9 16m3-1.5q-.2 0-.35-.15T11.5 14t.15-.35t.35-.15t.35.15t.15.35t-.15.35t-.35.15m0-2q-.2 0-.35-.15T11.5 12t.15-.35t.35-.15t.35.15t.15.35t-.15.35t-.35.15m0-2q-.2 0-.35-.15T11.5 10t.15-.35t.35-.15t.35.15t.15.35t-.15.35t-.35.15"/></svg>