<svg xmlns="http://www.w3.org/2000/svg" viewBox="0 0 24 24" width="24" height="24"><path fill="currentColor" d="M17.85 9q-.35 0-.6-.25t-.25-.6v-3.3q0-.35.25-.6t.6-.25H18V3q0-.825.588-1.412T20 1t1.413.588T22 3v1h.15q.35 0 .6.25t.25.6v3.3q0 .35-.25.6t-.6.25zM19 4h2V3q0-.425-.288-.712T20 2t-.712.288T19 3zm-8.975 17.825L8.1 19.9q-.275-.275-.275-.7t.275-.7t.7-.275t.7.275l4.25 4.25q.3.3.162.713t-.562.462q-.35.05-.675.063T12 24q-2.475 0-4.663-.937t-3.825-2.575t-2.575-3.825T0 12q0-.425.288-.712T1 11t.713.288T2 12q0 1.775.6 3.4t1.663 2.925T6.8 20.538t3.225 1.287M13.75 18L18 13.75L10.25 6L6 10.25zm-4.425-7.9q.325 0 .538-.225t.212-.525q0-.325-.212-.537T9.325 8.6q-.3 0-.525.213t-.225.537q0 .3.225.525t.525.225m3.075 9.35L4.575 11.6q-.275-.275-.413-.637t-.137-.713q0-.375.138-.725t.412-.625L8.9 4.575q.275-.275.638-.425T10.25 4q.375 0 .725.15t.625.425l7.825 7.825q.275.275.425.625t.15.725q0 .35-.15.713t-.425.637L15.1 19.45q-.275.275-.625.413T13.75 20q-.35 0-.712-.137t-.638-.413"/></svg>