<svg xmlns="http://www.w3.org/2000/svg" viewBox="0 0 24 24" width="24" height="24"><path fill="currentColor" d="M11 18.5q0-.575-.387-1.137t-.863-1.175t-.862-1.275T8.5 13.5q0-1.45 1.025-2.475T12 10t2.475 1.025T15.5 13.5q0 .75-.387 1.413t-.863 1.274t-.862 1.175T13 18.5zm1 2.5q-.425 0-.712-.288T11 20v-.5h2v.5q0 .425-.288.713T12 21m6-3q-.225-.225-.262-.575t.162-.625q.525-.825.813-1.787T19 13q0-1.375-.488-2.588T17.15 8.25q-.275-.325-.287-.712t.287-.688t.725-.3t.7.3q1.125 1.2 1.775 2.775T21 13q0 1.35-.375 2.588t-1.05 2.287q-.275.425-.75.45T18 18m-13.575-.125q-.675-1.05-1.05-2.287T3 13q0-3.75 2.625-6.375T12 4h.2l-.9-.9q-.275-.275-.275-.7t.275-.7t.7-.275t.7.275l2.6 2.6q.15.15.212.325t.063.375t-.063.375t-.212.325l-2.6 2.6q-.3.3-.7.288t-.7-.313t-.3-.712t.3-.713l.85-.85H12Q9.1 6 7.05 8.05T5 13q0 1.05.288 2.013T6.1 16.8q.2.275.163.625T6 18q-.35.35-.825.325t-.75-.45"/></svg>