<svg xmlns="http://www.w3.org/2000/svg" viewBox="0 0 24 24" width="24" height="24"><path fill="currentColor" d="M8.1 14.75q.35 1.2 1.088 1.938T11.1 17.7v.425q0 .35.263.613t.612.262t.613-.262t.262-.613v-.375q1.25-.225 2.15-.975t.9-2.225q0-1.05-.6-1.925T12.9 11.1q-1.5-.5-2.075-.875T10.25 9.2t.463-1.025T12.05 7.8q.8 0 1.25.387t.65.963l1.6-.65q-.275-.875-1.012-1.525T12.9 6.25v-.375q0-.35-.262-.612T12.025 5t-.612.263t-.263.612v.375q-1.25.275-1.95 1.1T8.5 9.2q0 1.175.688 1.9t2.162 1.25q1.575.575 2.188 1.025t.612 1.175q0 .825-.587 1.213t-1.413.387t-1.463-.512T9.75 14.1zM12 22q-2.075 0-3.9-.788t-3.175-2.137T2.788 15.9T2 12t.788-3.9t2.137-3.175T8.1 2.788T12 2t3.9.788t3.175 2.137T21.213 8.1T22 12t-.788 3.9t-2.137 3.175t-3.175 2.138T12 22m0-2q3.35 0 5.675-2.325T20 12t-2.325-5.675T12 4T6.325 6.325T4 12t2.325 5.675T12 20m0-8"/></svg>