<svg xmlns="http://www.w3.org/2000/svg" viewBox="0 0 24 24" width="24" height="24"><path fill="currentColor" d="M16 20q-.425 0-.712-.288T15 19t.288-.712T16 18h6q.425 0 .713.288T23 19t-.288.713T22 20zM5 19V5zm7-13q-1.25 0-2.125.875T9 9t.875 2.125T12 12t2.125-.875T15 9t-.875-2.125T12 6m-1.5 2.5q.2 0 .35.15T11 9t-.15.35t-.35.15t-.35-.15T10 9t.15-.35t.35-.15m1.5 0q.2 0 .35.15t.15.35t-.15.35t-.35.15t-.35-.15T11.5 9t.15-.35t.35-.15m1.5 0q.2 0 .35.15T14 9t-.15.35t-.35.15t-.35-.15T13 9t.15-.35t.35-.15M5 21q-.825 0-1.412-.587T3 19V5q0-.825.588-1.412T5 3h14q.825 0 1.413.588T21 5v7q0 .425-.288.713T20 13t-.712-.288T19 12V5H5v14h7.5q.425 0 .713.288T13.5 20t-.288.713T12.5 21z"/></svg>