<svg xmlns="http://www.w3.org/2000/svg" viewBox="0 0 24 24" width="24" height="24"><path fill="currentColor" d="M7 22q-.425 0-.712-.288T6 21t.288-.712T7 20h4v-2q0-.425.288-.712T12 17t.713.288T13 18v2h4q.425 0 .713.288T18 21t-.288.713T17 22zM8 2h8q1.65 0 2.825 1.175T20 6v9.5q0 1.45-1.025 2.475T16.5 19H15q-.425 0-.712-.288T14 18q0-.825-.587-1.412T12 16t-1.412.588T10 18q0 .425-.288.713T9 19H7.5q-1.45 0-2.475-1.025T4 15.5V6q0-1.65 1.175-2.825T8 2M6 12v3.5q0 .625.438 1.063T7.5 17h.625q.4-1.325 1.463-2.162T12 14t2.413.838T15.875 17h.625q.625 0 1.063-.437T18 15.5V12zm0-5v3h12V7zm2-3q-.55 0-1 .263T6.275 5h11.45q-.275-.475-.725-.737T16 4zm0 1h9.725h-11.45zm-2 7h12z"/></svg>