<svg xmlns="http://www.w3.org/2000/svg" viewBox="0 0 24 24" width="24" height="24"><path fill="currentColor" d="M15.5 11q.625 0 1.063-.437T17 9.5t-.437-1.062T15.5 8t-1.062.438T14 9.5t.438 1.063T15.5 11m-7 0q.625 0 1.063-.437T10 9.5t-.437-1.062T8.5 8t-1.062.438T7 9.5t.438 1.063T8.5 11M12 22q-2.075 0-3.9-.788t-3.175-2.137T2.788 15.9T2 12t.788-3.9t2.137-3.175T8.1 2.788T12 2t3.9.788t3.175 2.137T21.213 8.1T22 12t-.788 3.9t-2.137 3.175t-3.175 2.138T12 22m0-2q3.35 0 5.675-2.325T20 12t-2.325-5.675T12 4T6.325 6.325T4 12t2.325 5.675T12 20m0-2.5q1.45 0 2.675-.7t1.975-1.9q.15-.3-.025-.6T16.1 14H7.9q-.35 0-.525.3t-.025.6q.75 1.2 1.988 1.9t2.662.7"/></svg>