<svg xmlns="http://www.w3.org/2000/svg" viewBox="0 0 24 24" width="24" height="24"><path fill="currentColor" d="M8 14q-.825 0-1.412-.587T6 12V4q0-.825.588-1.412T8 2h8q.825 0 1.413.588T18 4v8q0 .825-.587 1.413T16 14zm0-2h8V4H8zm-1 6q-.425 0-.712-.288T6 17t.288-.712T7 16t.713.288T8 17t-.288.713T7 18m0 4q-.425 0-.712-.288T6 21t.288-.712T7 20t.713.288T8 21t-.288.713T7 22m5 0q-.425 0-.712-.288T11 21t.288-.712T12 20t.713.288T13 21t-.288.713T12 22m5 0q-.425 0-.712-.288T16 21t.288-.712T17 20t.713.288T18 21t-.288.713T17 22m0-4q-.425 0-.712-.288T16 17t.288-.712T17 16t.713.288T18 17t-.288.713T17 18M12 8"/></svg>