<svg xmlns="http://www.w3.org/2000/svg" viewBox="0 0 24 24" width="24" height="24"><path fill="currentColor" d="M8 22q-.825 0-1.412-.587T6 20v-8q0-.825.588-1.412T8 10h8q.825 0 1.413.588T18 12v8q0 .825-.587 1.413T16 22zm8-10H8v8h8zm1-4q-.425 0-.712-.288T16 7t.288-.712T17 6t.713.288T18 7t-.288.713T17 8m0-4q-.425 0-.712-.288T16 3t.288-.712T17 2t.713.288T18 3t-.288.713T17 4m-5 0q-.425 0-.712-.288T11 3t.288-.712T12 2t.713.288T13 3t-.288.713T12 4M7 4q-.425 0-.712-.288T6 3t.288-.712T7 2t.713.288T8 3t-.288.713T7 4m0 4q-.425 0-.712-.288T6 7t.288-.712T7 6t.713.288T8 7t-.288.713T7 8m5 8"/></svg>