<svg xmlns="http://www.w3.org/2000/svg" viewBox="0 0 24 24" width="24" height="24"><path fill="currentColor" d="M19.425 18H16.25q-.425 0-.712-.288T15.25 17t.288-.712t.712-.288h3.175l-.9-.9q-.275-.275-.275-.687t.3-.713q.275-.275.7-.275t.7.275l2.6 2.6q.3.3.3.7t-.3.7l-2.6 2.6q-.275.275-.687.288t-.713-.288q-.275-.275-.275-.7t.275-.7zM10 10q.825 0 1.413-.587T12 8t-.587-1.412T10 6t-1.412.588T8 8t.588 1.413T10 10m-8 .2q0-3.75 2.413-5.975T10 2q1.8 0 3.238.625t2.475 1.725t1.612 2.588t.65 3.212q.025.425-.262.713T17 11.15t-.712-.288t-.313-.712q-.125-2.525-1.812-4.337T10 4Q7.475 4 5.738 5.738T4 10.2q0 1.775 1.475 4.063T10 19.35q.35-.3.663-.6t.587-.6q.3-.3.713-.3t.712.275t.313.687t-.288.713q-.4.425-.762.763t-.613.537q-.275.25-.625.375t-.7.125t-.7-.125t-.625-.375q-1-.925-2.175-2.15t-2.175-2.612t-1.662-2.888T2 10.2m8 4.8q1.05 0 1.988-.425t1.662-1.2q.125-.125.175-.288t.05-.337q0-.275-.112-.513t-.363-.362q-.775-.45-1.638-.663T10 11t-1.763.213t-1.637.662q-.225.125-.35.35t-.125.5q0 .2.05.363t.175.287q.725.775 1.663 1.2T10 15"/></svg>