<svg xmlns="http://www.w3.org/2000/svg" viewBox="0 0 24 24" width="24" height="24"><path fill="currentColor" d="M11 20v-4H9q-2.075 0-3.537-1.463T4 11q0-1.5.825-2.762T7.05 6.4q.225-1.875 1.638-3.137T12 2t3.313 1.263T16.95 6.4q1.4.575 2.225 1.838T20 11q0 2.075-1.463 3.538T15 16h-2v4h5q.425 0 .713.288T19 21t-.288.713T18 22H6q-.425 0-.712-.288T5 21t.288-.712T6 20zm-2-6h6q1.25 0 2.125-.875T18 11q0-.9-.513-1.65t-1.337-1.1L15.1 7.8l-.15-1.15q-.15-1.125-.987-1.888T12 4t-1.963.763T9.05 6.65L8.9 7.8l-1.05.45q-.825.35-1.337 1.1T6 11q0 1.25.875 2.125T9 14m3-5"/></svg>