<svg xmlns="http://www.w3.org/2000/svg" viewBox="0 0 24 24" width="24" height="24"><path fill="currentColor" d="M11.25 12.75v.95L9 15.95q-.225.225-.225.525T9 17t.538.225t.537-.225l1.175-1.175v1.425q0 .325.213.537T12 18t.538-.213t.212-.537v-1.425L13.925 17q.225.225.538.225T15 17t.225-.537t-.225-.538L12.75 13.7v-.95h.925l2.25 2.25q.225.225.538.225T17 15t.225-.537t-.225-.538l-1.2-1.175h1.45q.325 0 .538-.213T18 12t-.213-.537t-.537-.213H15.8l1.175-1.175q.225-.225.238-.537T17 9t-.537-.225t-.538.225l-2.25 2.25h-.925v-.925L15 8.075q.225-.225.225-.525T15 7.025t-.538-.225t-.537.225L12.75 8.2V6.75q0-.325-.213-.538T12 6t-.537.213t-.213.537V8.2L10.05 7q-.225-.225-.525-.225T9 7t-.225.537t.225.538l2.25 2.25v.925h-.95L8.05 9q-.225-.225-.525-.225T7 9t-.225.538t.225.537l1.175 1.175H6.75q-.325 0-.537.213T6 12t.213.538t.537.212h1.425l-1.2 1.2q-.225.225-.225.525t.225.525t.538.225T8.05 15l2.25-2.25zM12 22q-2.075 0-3.9-.788t-3.175-2.137T2.788 15.9T2 12t.788-3.9t2.137-3.175T8.1 2.788T12 2t3.9.788t3.175 2.137T21.213 8.1T22 12t-.788 3.9t-2.137 3.175t-3.175 2.138T12 22m0-2q3.35 0 5.675-2.325T20 12t-2.325-5.675T12 4T6.325 6.325T4 12t2.325 5.675T12 20m0-8"/></svg>