<svg xmlns="http://www.w3.org/2000/svg" viewBox="0 0 24 24" width="24" height="24"><path fill="currentColor" d="M20.5 13q-.625 0-1.062-.437T19 11.5v-6q0-.625.438-1.062T20.5 4t1.063.438T22 5.5v6q0 .625-.437 1.063T20.5 13M7.525 21q-.425 0-.775-.162t-.625-.438L1.7 15.925q-.275-.3-.275-.7t.275-.7l.7-.725q.35-.35.8-.5t.925-.05l1.875.4V5.5q0-1.05.725-1.775T8.5 3t1.775.725T11 5.5V10h.65q.125 0 .225.025t.225.075l3.8 1.675q.6.275.9.875t.175 1.25l-.925 5.425q-.125.725-.687 1.2T14.075 21zm.025-2h6.525L15 13.55l-4.25-1.875H9V5.5q0-.225-.137-.363T8.5 5t-.363.138T8 5.5v10.6l-4.175-.875zm0 0h6.525z"/></svg>