<svg xmlns="http://www.w3.org/2000/svg" viewBox="0 0 24 24" width="24" height="24"><path fill="currentColor" d="M12 16.5q1.875 0 3.188-1.312T16.5 12V8.5q0-.425-.288-.712T15.5 7.5H12q-1.875 0-3.187 1.313T7.5 12q0 .65.175 1.25T8.2 14.4l-.4.4q-.275.275-.275.7t.275.7t.7.275t.7-.275l.4-.4q.55.35 1.15.525T12 16.5m0-2q-.225 0-.45-.05t-.45-.125l2.1-2.125q.275-.275.275-.7t-.275-.7t-.7-.275t-.7.275l-2.125 2.1q-.075-.225-.125-.45T9.5 12q0-1.05.725-1.775T12 9.5h2.5V12q0 1.05-.725 1.775T12 14.5m0 7.5q-2.075 0-3.9-.788t-3.175-2.137T2.788 15.9T2 12t.788-3.9t2.137-3.175T8.1 2.788T12 2t3.9.788t3.175 2.137T21.213 8.1T22 12t-.788 3.9t-2.137 3.175t-3.175 2.138T12 22m0-2q3.35 0 5.675-2.325T20 12t-2.325-5.675T12 4T6.325 6.325T4 12t2.325 5.675T12 20m0-8"/></svg>