<svg xmlns="http://www.w3.org/2000/svg" viewBox="0 0 24 24" width="24" height="24"><path fill="currentColor" d="M15 4q.475 0 .9.213t.7.587l4.5 6q.4.525.4 1.2t-.4 1.2l-4.5 6q-.275.375-.7.588T15 20h-2q-.425 0-.712-.288T12 19t.288-.712T13 18h2l4.5-6L15 6H4v4q0 .425-.288.713T3 11t-.712-.288T2 10V6q0-.825.588-1.412T4 4zM6 21q-.425 0-.712-.288T5 20v-2H3q-.425 0-.712-.288T2 17t.288-.712T3 16h2v-2q0-.425.288-.712T6 13t.713.288T7 14v2h2q.425 0 .713.288T10 17t-.288.713T9 18H7v2q0 .425-.288.713T6 21m5.75-9"/></svg>