<svg xmlns="http://www.w3.org/2000/svg" viewBox="0 0 24 24" width="24" height="24"><path fill="currentColor" d="M4 21q-.825 0-1.412-.587T2 19V5q0-.825.588-1.412T4 3h16q.825 0 1.413.588T22 5v14q0 .825-.587 1.413T20 21zm0-2h16V5H4zm3-2h10q.425 0 .713-.288T18 16t-.288-.712T17 15H7q-.425 0-.712.288T6 16t.288.713T7 17m0-4h2q.425 0 .713-.288T10 12V8q0-.425-.288-.712T9 7H7q-.425 0-.712.288T6 8v4q0 .425.288.713T7 13m6 0h4q.425 0 .713-.288T18 12t-.288-.712T17 11h-4q-.425 0-.712.288T12 12t.288.713T13 13m0-4h4q.425 0 .713-.288T18 8t-.288-.712T17 7h-4q-.425 0-.712.288T12 8t.288.713T13 9M4 19V5z"/></svg>