<svg xmlns="http://www.w3.org/2000/svg" viewBox="0 0 24 24" width="24" height="24"><path fill="currentColor" d="M6 21q-.825 0-1.412-.587T4 19v-9q0-.475.213-.9t.587-.7l6-4.5q.525-.4 1.2-.4t1.2.4l6 4.5q.375.275.588.7T20 10v9q0 .825-.588 1.413T18 21zm0-2h12v-9l-6-4.5L6 10zm2-2.5h8v1q0 .2.15.35t.35.15t.35-.15t.15-.35V14q0-.825-.587-1.412T15 12h-2.5q-.425 0-.712.288T11.5 13v2.5H8v-4q0-.2-.15-.35T7.5 11t-.35.15t-.15.35v6q0 .2.15.35t.35.15t.35-.15t.15-.35zM9.75 15q.525 0 .888-.363T11 13.75t-.363-.888t-.887-.362t-.888.363t-.362.887t.363.888t.887.362"/></svg>