<svg xmlns="http://www.w3.org/2000/svg" viewBox="0 0 24 24" width="24" height="24"><path fill="currentColor" d="M6 20q-.425 0-.713-.288T5 19q0-.425.288-.713T6 18h1v-4L2.025 6.55q-.35-.5-.05-1.025t.9-.525h10.25q.6 0 .9.525t-.05 1.025L9 14v4h1q.425 0 .713.288T11 19q0 .425-.288.713T10 20H6ZM5.9 9h4.2l1.4-2h-7l1.4 2ZM16 20q-1.25 0-2.125-.875T13 17q0-1.25.875-2.125T16 14q.275 0 .525.038T17 14.2V7q0-.825.588-1.413T19 5h1.5q.625 0 1.063.438T22 6.5q0 .625-.438 1.063T20.5 8H19v9q0 1.25-.875 2.125T16 20Z"/></svg>