<svg xmlns="http://www.w3.org/2000/svg" viewBox="0 0 24 24" width="24" height="24"><path fill="currentColor" d="M9.45 6.575q.575-.275 1.213-.425T12 6q.425 0 .8.05t.75.15q.1.025.3.375q.025.075-.225.45q-.4.2-.9.725t-.9 1.2L9.45 6.575ZM12 18.05q-2.5-.05-4.25-1.8T6 12q0-1.275.463-2.375t1.287-1.9l3.325 3.325q-.05.225-.062.463T11 12q0 1.575.713 2.9t1.912 2.125q.125.075.188.2t.037.25q-.025.125-.1.225t-.2.15q-.375.1-.75.15t-.8.05Zm7.775 4.525l-2.25-2.225q-1.2.8-2.587 1.225T12 22q-2.075 0-3.9-.788t-3.175-2.137q-1.35-1.35-2.137-3.175T2 12q0-1.55.425-2.938T3.65 6.476L1.375 4.2q-.3-.3-.3-.712t.3-.713q.3-.3.713-.3t.712.3l18.4 18.4q.3.3.3.7t-.3.7q-.3.3-.712.3t-.713-.3ZM12 20q1.125 0 2.138-.3t1.912-.825L5.125 7.95q-.525.9-.825 1.912T4 12q0 3.325 2.337 5.663T12 20Zm8.375-2.5L18.9 16.025q.525-.875.813-1.888T20 12q0-3.325-2.337-5.663T12 4q-1.125 0-2.138.288T7.976 5.1L6.5 3.625q1.2-.775 2.588-1.2T12 2q2.075 0 3.9.788t3.175 2.137q1.35 1.35 2.138 3.175T22 12q0 1.525-.425 2.913t-1.2 2.587Zm-6.925-6.95ZM10.6 13.4Z"/></svg>