<svg xmlns="http://www.w3.org/2000/svg" viewBox="0 0 24 24" width="24" height="24"><path fill="currentColor" d="M11 19q1.3 0 2.475-.525t2.025-1.5q-3.2-.2-5.35-2.488T8 9q0-.325.025-.638T8.1 7.75q-1.425.8-2.262 2.2T5 13q0 2.5 1.75 4.25T11 19m0 2q-3.35 0-5.675-2.325T3 13q0-1.45.475-2.762T4.8 7.888t2.025-1.725t2.6-.863q.625-.075.975.438t.025 1.062q-.3.5-.363 1.063T10 9q0 2.5 1.75 4.25T16 15q.3 0 .6-.012t.6-.113q.525-.175.913.213t.237.887q-.725 2.35-2.787 3.688T11 21m5.4-12l-.5 1.4q-.1.275-.325.438t-.5.162q-.475 0-.737-.387t-.113-.813l2.55-7.175q.1-.275.35-.45t.55-.175h.65q.3 0 .55.175t.35.45l2.55 7.175q.15.425-.112.813t-.738.387q-.275 0-.5-.162T20.1 10.4L19.6 9zm.45-1.35h2.3L18 4zm-6.675 6.825"/></svg>