<svg xmlns="http://www.w3.org/2000/svg" viewBox="0 0 24 24" width="24" height="24"><path fill="currentColor" d="M15 8V6q0-1.25-.862-2.125T12.025 3q-.875 0-1.575.413t-.975 1.112q-.175.425-.562.588t-.788.012q-.425-.15-.6-.537T7.5 3.8Q8 2.525 9.225 1.763t2.8-.763Q14.1 1 15.55 2.463T17 6v2h1q.825 0 1.413.588T20 10v5q0 .5-.312.75T19 16t-.687-.262t-.313-.763V10h-5q-.5 0-.75-.312T12 9t.25-.687T13 8zM6 22q-.825 0-1.412-.587T4 20V10q0-.625.363-1.15T5.3 8.1L1.4 4.2q-.275-.275-.275-.7t.275-.7t.7-.275t.7.275l18.4 18.4q.275.275.275.7t-.275.7t-.7.275t-.7-.275l-.85-.85q-.275.125-.5.188T18 22zm11.15-2l-3.675-3.725q-.275.275-.637.425t-.788.15q-.825 0-1.412-.587t-.588-1.413q0-.425.15-.787t.425-.638L7.15 10H6v10zm-1.725-7.425"/></svg>