<svg xmlns="http://www.w3.org/2000/svg" viewBox="0 0 24 24" width="24" height="24"><path fill="currentColor" d="m22.9 6.1l-1.075 10.55q-.05.625-.65.838t-1.05-.238q-.15-.15-.225-.363t-.05-.437L20.8 7h-8.6q-.425 0-.712-.288T11.2 6t.288-.712T12.2 5H16V2q0-.425.288-.712T17 1t.713.288T18 2v3h3.9q.45 0 .75.325t.25.775m-3.125 16.475L1.375 4.2q-.3-.3-.3-.713t.3-.712t.713-.3t.712.3l18.4 18.4q.3.3.3.7t-.3.7t-.712.3t-.713-.3M2 19q-.425 0-.712-.288T1 18t.288-.712T2 17h13q.425 0 .713.288T16 18t-.288.713T15 19zm0 4q-.425 0-.712-.288T1 22t.288-.712T2 21h13q.425 0 .713.288T16 22t-.288.713T15 23zM9.05 9.025v2q-.125 0-.275-.013T8.5 11q-1.475 0-2.787.5T3.675 13h9.35l2 2h-12.8q-.475 0-.788-.363t-.212-.837q.25-1.275.975-2.187t1.725-1.5t2.188-.85T8.5 9q.125 0 .275.013t.275.012M8.5 13"/></svg>