<svg xmlns="http://www.w3.org/2000/svg" viewBox="0 0 24 24" width="24" height="24"><path fill="currentColor" d="M6 22q-.825 0-1.412-.587T4 20t.588-1.412T6 18t1.413.588T8 20t-.587 1.413T6 22M21 7.375q-.425 0-.712-.288T20 6.376V6.35q0-.575-.387-.962T18.65 5q-.25 0-.475.1t-.4.3L17 6.275v5.5q0 .5-.312.75t-.688.25t-.687-.262T15 11.75v-3.1l-.9 1.075q-.275.35-.712.363t-.763-.288q-.275-.275-.3-.663t.25-.687L16.2 4.175q.5-.575 1.125-.875T18.65 3q1.4 0 2.375.975T22 6.35v.025q0 .425-.288.713T21 7.375M15 15l1.4 1.4q-.275.275-.625.438T15 17H7.425q-.65 0-.912-.575t.162-1.075l2.7-3.175L2.1 4.925q-.3-.275-.288-.687t.288-.713q.3-.3.713-.3t.712.3L20.5 20.5q.3.3.288.7t-.313.7q-.3.275-.7.288t-.7-.288l-8.3-8.3L9.6 15zm1 7q-.825 0-1.412-.587T14 20t.588-1.412T16 18t1.413.588T18 20t-.587 1.413T16 22M13.25 5.325L11.6 7.25q-.275.35-.712.362t-.763-.312q-.275-.275-.3-.662t.25-.688l.775-.9q-.2-.05-.425-.05H10q-.5 0-.963.075t-.937.2q-.4.125-.763-.087t-.487-.613t.088-.763t.612-.487q.6-.175 1.213-.25T10 3q.725 0 1.438.113t1.387.337q.575.2.713.788t-.288 1.087M9.475 6.65"/></svg>