<svg xmlns="http://www.w3.org/2000/svg" viewBox="0 0 24 24" width="24" height="24"><path fill="currentColor" d="M12 21.325q-.35 0-.7-.125t-.625-.375Q9.05 19.325 7.8 17.9t-2.087-2.762t-1.275-2.575T4 10.2q0-3.75 2.413-5.975T12 2t5.588 2.225T20 10.2q0 1.125-.437 2.363t-1.275 2.575T16.2 17.9t-2.875 2.925q-.275.25-.625.375t-.7.125M12 16q.425 0 .738-.312t.312-.738t-.312-.737T12 13.9t-.737.313t-.313.737t.313.738T12 16m.025-3.1q.3 0 .513-.213t.212-.512q0-.2.1-.437t.275-.438q.125-.125.3-.288t.375-.362q.525-.525.788-1.05t.262-1.05q0-1.125-.85-1.838T12 6q-.85 0-1.588.438T9.326 7.65q-.125.275-.025.563t.375.412t.563.025t.412-.375q.2-.375.563-.6T12 7.45q.525 0 .938.325t.412.825q0 .425-.2.75t-.775.8q-.25.2-.425.375t-.3.375q-.175.275-.275.55t-.1.525q0 .35.2.638t.55.287M12 19.35q3.05-2.8 4.525-5.087T18 10.2q0-2.725-1.737-4.462T12 4T7.738 5.738T6 10.2q0 1.775 1.475 4.063T12 19.35M12 10"/></svg>