<svg xmlns="http://www.w3.org/2000/svg" viewBox="0 0 24 24" width="24" height="24"><path fill="currentColor" d="M12 22q-.825 0-1.412-.587T10 20h4q0 .825-.587 1.413T12 22m-7-3q-.425 0-.712-.288T4 18t.288-.712T5 17h1v-7q0-2.075 1.25-3.687T10.5 4.2v-.7q0-.625.438-1.062T12 2t1.063.438T13.5 3.5v.7q.25.05.475.125t.425.175q.375.175.538.563t-.013.762t-.562.525t-.763-.025t-.775-.25T12 6q-1.65 0-2.825 1.175T8 10v7h8v-1.1q0-.425.288-.712T17 14.9t.713.288t.287.712V17h1q.425 0 .713.288T20 18t-.288.713T19 19zm12-6q-.325 0-.537-.213t-.213-.537v-4.5q0-.325.213-.537T17 7t.538.213t.212.537v4.5q0 .325-.213.538T17 13m-2.75-1.5q-.325 0-.537-.213t-.213-.537v-1.5q0-.325.213-.537t.537-.213t.538.213t.212.537v1.5q0 .325-.213.538t-.537.212m5.5 0q-.325 0-.537-.213T19 10.75v-1.5q0-.325.213-.537t.537-.213t.538.213t.212.537v1.5q0 .325-.213.538t-.537.212"/></svg>