<svg xmlns="http://www.w3.org/2000/svg" viewBox="0 0 24 24" width="24" height="24"><path fill="currentColor" d="M12 22q-.825 0-1.412-.587T10 20h4q0 .825-.587 1.413T12 22m-6-5v-7q0-1.8.938-3.225t2.512-2.2q.35-.175.65-.012t.45.512t.038.75t-.613.725Q9.05 7.125 8.525 8T8 10v7h8v-2.05q0-.425.287-.712T17 13.95t.713.288t.287.712V17h1q.425 0 .713.288T20 18t-.288.713T19 19H5q-.425 0-.712-.288T4 18t.288-.712T5 17zm9.7-6.5q-.3-.125-.562-.262T14.6 9.9l-.725.225q-.325.1-.637-.025t-.488-.4l-.2-.35q-.175-.3-.125-.65t.325-.575l.55-.475q-.05-.325-.05-.65t.05-.65l-.55-.475q-.275-.225-.325-.562t.125-.638l.225-.375q.175-.275.475-.4t.625-.025l.725.225q.275-.2.538-.337T15.7 3.5l.15-.725q.075-.35.338-.562T16.8 2h.4q.35 0 .613.225t.337.575l.15.7q.3.125.562.263t.538.337l.725-.225q.325-.1.638.025t.487.4l.2.35q.175.3.125.65t-.325.575l-.55.475q.05.325.05.65t-.05.65l.55.475q.275.225.325.563t-.125.637l-.225.375q-.175.275-.475.4t-.625.025L19.4 9.9q-.275.2-.537.338t-.563.262l-.15.725q-.075.35-.337.563T17.2 12h-.4q-.35 0-.612-.225t-.338-.575zM17 9q.825 0 1.413-.587T19 7t-.587-1.412T17 5t-1.412.588T15 7t.588 1.413T17 9"/></svg>