<svg xmlns="http://www.w3.org/2000/svg" viewBox="0 0 24 24" width="24" height="24"><path fill="currentColor" d="M6 23q-.825 0-1.412-.587T4 21V6q0-.425.288-.712T5 5t.713.288T6 6v15h9q.425 0 .713.288T16 22t-.288.713T15 23zm12-6V3h-8v14zm-8 0V3zm0 2q-.825 0-1.412-.587T8 17V3q0-.825.588-1.412T10 1h8q.825 0 1.413.588T20 3v2.05q.425.075.713.413t.287.762v1.55q0 .425-.288.763T20 8.95V17q0 .825-.587 1.413T18 19zm4.15-8.75l-.175.175q-.275.275-.238.563t.238.487t.488.238t.562-.238L16.3 10.2q.15-.15.213-.325t.062-.375t-.062-.375T16.3 8.8l-1.275-1.275q-.275-.275-.562-.237t-.488.237t-.237.488t.237.562l.175.175H12q-.425 0-.712.288T11 9.75v1.5q0 .325.213.538t.537.212t.538-.213t.212-.537v-1z"/></svg>