<svg xmlns="http://www.w3.org/2000/svg" viewBox="0 0 24 24" width="24" height="24"><path fill="currentColor" d="M11 19H7q-.425 0-.712.288T6 20t.288.713T7 21h10q.425 0 .713-.288T18 20t-.288-.712T17 19h-4v-7.2l.9.9q.275.275.7.275t.7-.275t.275-.7t-.275-.7l-2.6-2.6q-.3-.3-.7-.3t-.7.3l-2.6 2.6q-.275.275-.275.7t.275.7t.7.275t.7-.275l.9-.9zm-7-3q-.825 0-1.412-.587T2 14V5q0-.825.588-1.412T4 3h16q.825 0 1.413.588T22 5v9q0 .825-.587 1.413T20 16h-4q-.425 0-.712-.288T15 15t.288-.712T16 14h4V5H4v9h4q.425 0 .713.288T9 15t-.288.713T8 16z"/></svg>