<svg xmlns="http://www.w3.org/2000/svg" viewBox="0 0 24 24" width="24" height="24"><path fill="currentColor" d="M10 3q.3-.3.713-.3t.712.3l.525.525q.3.3.388.713t-.038.812q-.125.425-.45.7t-.75.325q-1.725.275-3.037 1.413T6.25 10.3q-.1.325-.35.513T5.3 11H4q-.425 0-.712-.288T3 10t.288-.712T4 9h.575Q5.3 7.275 6.688 6.025t3.187-1.75q-.2-.3-.175-.65T10 3m5 9q0-1.1.413-2.1t1.337-1.55q-.425-.575-.962-1.012T14.625 6.6q-.375-.2-.562-.55T14 5.3t.5-.6t.75-.025q1.2.55 2.15 1.463T19 8.25q1.05.5 1.525 1.538T21 12t-.475 2.213T19 15.75q-.625 1.175-1.575 2.088t-2.15 1.462q-.4.175-.775 0t-.5-.6q-.125-.4.075-.763t.575-.562q.625-.3 1.15-.737t.95-.988q-.925-.55-1.338-1.55T15 12m3 2q.375 0 .688-.612T19 12t-.312-1.388T18 10t-.687.613T17 12t.313 1.388T18 14m-8.125 7.125q-.275-.275-.275-.7t.275-.725q-1.8-.5-3.2-1.737T4.575 15H4q-.425 0-.712-.288T3 14t.288-.712T4 13h1.3q.35 0 .6.188t.35.512q.5 1.675 1.813 2.813t3.037 1.412q.425.05.75.338t.45.687t.038.8t-.388.7l-.675.675q-.3.3-.7.3t-.7-.3M18 12"/></svg>