<svg xmlns="http://www.w3.org/2000/svg" viewBox="0 0 24 24" width="24" height="24"><path fill="currentColor" d="M15.25 18.75q.3 0 .525-.225T16 18t-.225-.525t-.525-.225t-.525.225T14.5 18t.225.525t.525.225m2.75 0q.3 0 .525-.225T18.75 18t-.225-.525T18 17.25t-.525.225t-.225.525t.225.525t.525.225m2.75 0q.3 0 .525-.225T21.5 18t-.225-.525t-.525-.225t-.525.225T20 18t.225.525t.525.225M5 21q-.825 0-1.412-.587T3 19V5q0-.825.588-1.412T5 3h14q.825 0 1.413.588T21 5v5q0 .425-.288.713T20 11t-.712-.288T19 10V5H5v14h5q.425 0 .713.288T11 20t-.288.713T10 21zm0-3v1V5v6.075V11zm2-2q0 .425.288.713T8 17h2.075q.425 0 .713-.288t.287-.712t-.287-.712t-.713-.288H8q-.425 0-.712.288T7 16m0-4q0 .425.288.713T8 13h5q.425 0 .713-.288T14 12t-.288-.712T13 11H8q-.425 0-.712.288T7 12m0-4q0 .425.288.713T8 9h8q.425 0 .713-.288T17 8t-.288-.712T16 7H8q-.425 0-.712.288T7 8m11 15q-2.075 0-3.537-1.463T13 18t1.463-3.537T18 13t3.538 1.463T23 18t-1.463 3.538T18 23"/></svg>