<svg xmlns="http://www.w3.org/2000/svg" viewBox="0 0 24 24" width="24" height="24"><path fill="currentColor" d="m11 9.85l-.875.875q-.3.3-.712.288T8.7 10.7q-.275-.3-.287-.7t.287-.7l2.6-2.6q.15-.15.325-.212T12 6.425t.375.063t.325.212l2.6 2.6q.3.3.287.7t-.287.7q-.3.3-.712.313t-.713-.288L13 9.85V13q0 .425-.288.713T12 14t-.712-.288T11 13zM5 21q-.825 0-1.412-.587T3 19V5q0-.825.588-1.412T5 3h14q.825 0 1.413.588T21 5v14q0 .825-.587 1.413T19 21zm0-2h14v-3h-3q-.75.95-1.787 1.475T12 18t-2.212-.525T8 16H5zm7-3q.8 0 1.475-.413t1.1-1.087q.15-.225.375-.363t.5-.137H19V5H5v9h3.55q.275 0 .5.138t.375.362q.425.675 1.1 1.088T12 16m-7 3h14z"/></svg>