<svg xmlns="http://www.w3.org/2000/svg" viewBox="0 0 24 24" width="24" height="24"><path fill="currentColor" d="M14 11.4v1.25q0 .425.288.713t.712.287t.713-.288t.287-.712V9q0-.425-.288-.712T15 8h-3.65q-.425 0-.712.288T10.35 9t.288.713t.712.287h1.225L8.2 14.375q-.275.275-.275.688t.275.712q.3.3.713.3t.712-.3zM12 22q-2.075 0-3.9-.788t-3.175-2.137T2.788 15.9T2 12t.788-3.9t2.137-3.175T8.1 2.788T12 2t3.9.788t3.175 2.137T21.213 8.1T22 12t-.788 3.9t-2.137 3.175t-3.175 2.138T12 22m0-2q3.35 0 5.675-2.325T20 12t-2.325-5.675T12 4T6.325 6.325T4 12t2.325 5.675T12 20m0-8"/></svg>