<svg xmlns="http://www.w3.org/2000/svg" viewBox="0 0 24 24" width="24" height="24"><path fill="currentColor" d="M8 22q-.525 0-.987-.262T6.275 21H4q-1.25 0-2.125-.875T1 18v-3q0-.425.288-.712T2 14t.713.288T3 15v3q0 .425.288.713T4 19h2.275q.275-.475.738-.737T8 18h1v-1q0-.425.288-.712T10 16t.713.288T11 17v1h2v-1q0-.425.288-.712T14 16t.713.288T15 17v1h1q.525 0 .988.263t.737.737H20q.425 0 .713-.288T21 18v-3q0-.425.288-.712T22 14t.713.288T23 15v3q0 1.25-.875 2.125T20 21h-2.275q-.275.475-.737.738T16 22zM3 9q0-1.65 1.175-2.825T7 5h1V2q0-.425.288-.712T9 1t.713.288T10 2v3q0 .825-.587 1.413T8 7H7q-.825 0-1.412.588T5 9q0 .675.4 1.188t1 .712q.4.125.563.513t.012.787q-.15.375-.512.538t-.763.037q-1.175-.425-1.937-1.437T3 9m18 0q0 1.325-.763 2.338T18.3 12.775q-.4.125-.763-.038t-.512-.537q-.15-.4.013-.787t.562-.513q.6-.2 1-.712T19 9q0-.825-.587-1.412T17 7h-1q-.825 0-1.412-.587T14 5V2q0-.425.288-.712T15 1t.713.288T16 2v3h1q1.65 0 2.825 1.175T21 9m-9.275 5q-1.1 0-1.987-.638T8.5 11.676q-.075-.25-.275-.425t-.45-.225q-.4-.1-.613-.45t-.112-.75t.45-.625t.75-.125q.75.2 1.325.713t.825 1.262q.125.425.5.688t.825.262h.55q.45 0 .825-.262t.5-.688q.25-.75.825-1.263t1.325-.712q.4-.1.75.125t.45.625t-.113.75t-.612.45q-.25.05-.45.225t-.275.425q-.35 1.05-1.238 1.688T12.275 14z"/></svg>