<svg xmlns="http://www.w3.org/2000/svg" viewBox="0 0 24 24" width="24" height="24"><path fill="currentColor" d="M4 20q-.825 0-1.412-.587T2 18V6q0-.825.588-1.412T4 4h16q.825 0 1.413.588T22 6v12q0 .825-.587 1.413T20 20h-.15q-.65 0-1.175-.225t-.95-.65L13.9 15.3q-.525.35-1.137.525T11.5 16q-1.875 0-3.187-1.312T7 11.5t1.313-3.187T11.5 7t3.188 1.313T16 11.5q0 .675-.175 1.275T15.3 13.9l4.1 4.1h.6V6H4v12h9.325q.5 0 .75.313t.25.687t-.25.688t-.75.312zm7.5-6q1.05 0 1.775-.725T14 11.5t-.725-1.775T11.5 9t-1.775.725T9 11.5t.725 1.775T11.5 14M4 18V6z"/></svg>