<svg xmlns="http://www.w3.org/2000/svg" viewBox="0 0 24 24" width="24" height="24"><path fill="currentColor" d="M9.95 21q-.675 0-1.287-.288T7.625 19.9l-5.9-7.275q-.25-.3-.225-.675t.3-.65q.475-.475 1.125-.55t1.175.3L7 13.075V3q0-.425.288-.712T8 2t.713.288T9 3v12q0 .6-.537.888t-1.038-.063l-1.2-.85l2.95 3.65q.15.175.35.275t.425.1H17q.825 0 1.413-.587T19 17v-7q0-.425.288-.712T20 9t.713.288T21 10v7q0 1.65-1.175 2.825T17 21zM12 6q.425 0 .713.288T13 7v5q0 .425-.288.713T12 13t-.712-.288T11 12V7q0-.425.288-.712T12 6m4 1q.425 0 .713.288T17 8v4q0 .425-.288.713T16 13t-.712-.288T15 12V8q0-.425.288-.712T16 7"/></svg>