<svg xmlns="http://www.w3.org/2000/svg" viewBox="0 0 24 24" width="24" height="24"><path fill="currentColor" d="M16.85 20h2.3q.35 0 .625-.2t.35-.55L20.45 18h-4.9l.325 1.25q.075.35.35.55t.625.2M9.5 8q-1.25 0-2.125-.875T6.5 5t.875-2.125T9.5 2t2.125.875T12.5 5t-.875 2.125T9.5 8m0-2q.425 0 .713-.288T10.5 5t-.288-.712T9.5 4t-.712.288T8.5 5t.288.713T9.5 6M2 22q-.425 0-.712-.288T1 21t.288-.712T2 20h1v-7.375q0-.875.713-1.625t2.062-1.25q.8-.325 1.825-.537T9.5 9q.85 0 1.913.225t1.937.575q1.275.5 1.963 1.237T16 12.625V13q0 .425-.288.713T15 14t-.712-.288T14 13v-.375q-.05-.2-.437-.462t-.938-.513q-.725-.3-1.525-.475T9.5 11t-1.6.175t-1.525.475q-.55.25-.937.525T5 12.65v6.575q.5-.5 1.85-.862T9.5 18q1.175 0 2.4.3t1.85.725l-.45-1.775q-.125-.475.175-.862t.8-.388h7.45q.5 0 .8.388t.175.862l-.625 2.475q-.025.075-.037.138T22 20q.425 0 .713.288T23 21t-.288.713T22 22zm7.5-5q1.05 0 1.775-.725T12 14.5t-.725-1.775T9.5 12t-1.775.725T7 14.5t.725 1.775T9.5 17m0-12"/></svg>