<svg xmlns="http://www.w3.org/2000/svg" viewBox="0 0 24 24" width="24" height="24"><path fill="currentColor" d="M12 5q-.425 0-.712-.288T11 4V2q0-.425.288-.712T12 1t.713.288T13 2v2q0 .425-.288.713T12 5m4.95 2.05q-.275-.275-.275-.7t.275-.7l1.4-1.425q.3-.3.712-.3t.713.3q.275.275.275.7t-.275.7L18.35 7.05q-.275.275-.7.275t-.7-.275M20 13q-.425 0-.713-.288T19 12t.288-.712T20 11h2q.425 0 .713.288T23 12t-.288.713T22 13zm-1.65 6.775l-1.4-1.425q-.275-.275-.275-.7t.275-.7t.7-.275t.7.275l1.425 1.4q.3.3.3.712t-.3.713t-.712.3t-.713-.3M5.65 7.05L4.225 5.625q-.275-.275-.275-.7t.275-.7q.3-.3.713-.3t.712.3l1.4 1.425q.275.275.275.7t-.275.7t-.7.275t-.7-.275M6 19h4.5q.625 0 1.063-.437T12 17.5t-.425-1.062t-1.05-.438H9.25l-.5-1.2q-.35-.825-1.1-1.312T6 13q-1.25 0-2.125.875T3 16t.875 2.125T6 19m0 2q-2.075 0-3.537-1.463T1 16t1.463-3.537T6 11q1.5 0 2.738.813T10.575 14q1.45 0 2.438 1.075T14 17.65q-.05 1.425-1.062 2.388T10.5 21zm8-3.35q-.125-.5-.25-.975t-.25-.975q1.125-.475 1.813-1.475T16 12q0-1.65-1.175-2.825T12 8q-1.5 0-2.625.975T8.05 11.45q-.5-.125-1.025-.225T6 11q.35-2.2 2.063-3.6T12 6q2.5 0 4.25 1.75T18 12q0 1.925-1.1 3.463T14 17.65M12.025 12"/></svg>