<svg xmlns="http://www.w3.org/2000/svg" viewBox="0 0 24 24" width="24" height="24"><path fill="currentColor" d="M4 21q-.825 0-1.412-.587T2 19V7q0-.825.588-1.412T4 5h3.15L8.4 3.65q.275-.3.663-.475T9.875 3h4.25q.425 0 .813.175t.662.475L16.85 5H20q.825 0 1.413.588T22 7v12q0 .825-.587 1.413T20 21zm0-2h16V7h-4.05l-1.825-2h-4.25L8.05 7H4zm8.025-1.5q1.8 0 3.138-1.137T16.5 13.5q0-.425-.288-.712T15.5 12.5t-.712.288t-.288.712q0 .875-.675 1.438t-1.575.562H9.425q-.35 0-.45.375t.225.65q.575.5 1.313.738t1.512.237m-3.5-4q.425 0 .713-.288t.287-.712q0-.875.675-1.437t1.575-.563H14.6q.35 0 .45-.375t-.225-.65q-.575-.5-1.312-.737T12 8.5q-1.8 0-3.137 1.138T7.525 12.5q0 .425.288.713t.712.287"/></svg>