<svg xmlns="http://www.w3.org/2000/svg" viewBox="0 0 24 24" width="24" height="24"><path fill="currentColor" d="M16 14q-1.25 0-2.125-.875T13 11t.875-2.125T16 8t2.125.875T19 11t-.875 2.125T16 14m-5 6q-.425 0-.712-.288T10 19v-.9q0-.525.25-1t.7-.75q1.125-.675 2.388-1.012T16 15t2.663.338t2.387 1.012q.45.275.7.75t.25 1v.9q0 .425-.288.713T21 20zm1.15-2h7.7q-.875-.5-1.85-.75T16 17t-2 .25t-1.85.75M16 12q.425 0 .713-.288T17 11t-.288-.712T16 10t-.712.288T15 11t.288.713T16 12m-6 2H4q-.425 0-.712-.288T3 13t.288-.712T4 12h6q.425 0 .713.288T11 13t-.288.713T10 14m4-8H4q-.425 0-.712-.288T3 5t.288-.712T4 4h10q.425 0 .713.288T15 5t-.288.713T14 6m-2.9 4H4q-.425 0-.712-.288T3 9t.288-.712T4 8h8q-.35.425-.562.925T11.1 10"/></svg>