<svg xmlns="http://www.w3.org/2000/svg" viewBox="0 0 24 24" width="24" height="24"><path fill="currentColor" d="M3 21q-.825 0-1.412-.587T1 19V7q0-.425.288-.712T2 6t.713.288T3 7v12h16q.425 0 .713.288T20 20t-.288.713T19 21zm4-4q-.825 0-1.412-.587T5 15V4q0-.825.588-1.412T7 2h4.175q.4 0 .763.15t.637.425L14 4h7q.825 0 1.413.588T23 6v9q0 .825-.587 1.413T21 17zm0-2h14V6h-7.825l-2-2H7zm0 0V4zm6.25-3.5L12.1 10q-.15-.2-.4-.2t-.4.2l-1.675 2.2q-.2.25-.063.525t.463.275h7.95q.325 0 .462-.275t-.062-.525L15.95 9.025q-.15-.2-.4-.2t-.4.2z"/></svg>