<svg xmlns="http://www.w3.org/2000/svg" viewBox="0 0 24 24" width="24" height="24"><path fill="currentColor" d="M12 18q-1.4 0-2.675.438T7 19.75V20h10v-.25q-1.05-.875-2.325-1.312T12 18m-7 .85q1.35-1.325 3.138-2.087T12 16t3.863.763T19 18.85V6H5zM12 14q-1.45 0-2.475-1.025T8.5 10.5t1.025-2.475T12 7t2.475 1.025T15.5 10.5t-1.025 2.475T12 14m0-2q.625 0 1.063-.437T13.5 10.5t-.437-1.062T12 9t-1.062.438T10.5 10.5t.438 1.063T12 12M5 22q-.825 0-1.412-.587T3 20V6q0-.825.588-1.412T5 4h1V3q0-.425.288-.712T7 2t.713.288T8 3v1h8V3q0-.425.288-.712T17 2t.713.288T18 3v1h1q.825 0 1.413.588T21 6v14q0 .825-.587 1.413T19 22zm7-2h5H7z"/></svg>