<svg xmlns="http://www.w3.org/2000/svg" viewBox="0 0 24 24" width="24" height="24"><path fill="currentColor" d="M6 20q-.825 0-1.412-.587T4 18v-.8q0-.85.438-1.562T5.6 14.55q.775-.4 1.563-.675T8.75 13.4q.575-.125 1.125-.225t1.125-.15q.425-.05.713.25T12 14t-.288.713t-.712.337l-.888.1q-.437.05-.887.175q-.7.175-1.375.425t-1.35.6q-.225.125-.362.35T6 17.2v.8h5.45q.425 0 .713.288t.287.712t-.287.713t-.713.287zm8-5.375q0-.275.138-.525t.412-.375l3-1.5q.2-.125.45-.125t.45.125l3 1.5q.275.125.412.375t.138.525v1.925q0 1.725-.9 3.125T18.65 21.8q-.15.075-.312.1t-.338.025t-.337-.025t-.313-.1q-1.55-.725-2.45-2.125T14 16.55zm4 5.275q.95-.45 1.475-1.375T20 16.55v-1.3l-2-1l-2 1v1.3q0 1.05.525 1.975T18 19.9M12 12q-1.65 0-2.825-1.175T8 8t1.175-2.825T12 4t2.825 1.175T16 8t-1.175 2.825T12 12m0-2q.825 0 1.413-.587T14 8t-.587-1.412T12 6t-1.412.588T10 8t.588 1.413T12 10m6 7.075"/></svg>