<svg xmlns="http://www.w3.org/2000/svg" viewBox="0 0 24 24" width="24" height="24"><path fill="currentColor" d="M18 18q-.425 0-.712-.288T17 17t.288-.712T18 16h3q.425 0 .713.288T22 17t-.288.713T21 18zm-2-5q-.425 0-.712-.288T15 12t.288-.712T16 11h5q.425 0 .713.288T22 12t-.288.713T21 13zm-2-5q-.425 0-.712-.288T13 7t.288-.712T14 6h7q.425 0 .713.288T22 7t-.288.713T21 8zm-6 4q-1.25 0-2.125-.875T5 9t.875-2.125T8 6t2.125.875T11 9t-.875 2.125T8 12m-5 6q-.425 0-.712-.288T2 17v-.9q0-.525.25-1t.7-.75q1.125-.675 2.388-1.012T8 13t2.663.338t2.387 1.012q.45.275.7.75t.25 1v.9q0 .425-.288.713T13 18zm5-3q-1.025 0-2 .25T4.15 16h7.7q-.875-.5-1.85-.75T8 15m0-5q.425 0 .713-.288T9 9t-.288-.712T8 8t-.712.288T7 9t.288.713T8 10m0 6"/></svg>