<svg xmlns="http://www.w3.org/2000/svg" viewBox="0 0 24 24" width="24" height="24"><path fill="currentColor" d="M12 12q-1.65 0-2.825-1.175T8 8t1.175-2.825T12 4t2.825 1.175T16 8t-1.175 2.825T12 12m-8 6v-.8q0-.85.425-1.562T5.6 14.55q1.5-.75 3.113-1.15T12 13t3.288.4t3.112 1.15q.75.375 1.175 1.088T20 17.2v.8q0 .825-.587 1.413T18 20H6q-.825 0-1.412-.587T4 18m8-8q.825 0 1.413-.587T14 8t-.587-1.412T12 6t-1.412.588T10 8t.588 1.413T12 10m4 5.7V18h2v-.8q0-.275-.125-.5t-.375-.35q-.35-.2-.737-.363T16 15.7m-6-.525V16.5h4v-1.325q-.5-.1-1-.137T12 15t-1 .038t-1 .137M6 18h2v-2.3q-.375.125-.763.288t-.737.362q-.25.125-.375.35T6 17.2zm10 0H8zM12 8"/></svg>