<svg xmlns="http://www.w3.org/2000/svg" viewBox="0 0 24 24" width="24" height="24"><path fill="currentColor" d="M5.6 14.55q1.55-.775 3.15-1.162T12 13q.1 0 .175-.012t.175.012q.425.1.638.475t.087.8t-.487.588T11.8 15q-1.35-.075-2.687.313T6.5 16.35q-.225.125-.363.35T6 17.2v.8h6.65q.5 0 .75.313t.25.687t-.25.688t-.75.312H6q-.825 0-1.412-.587T4 18v-.8q0-.85.438-1.562T5.6 14.55M12 12q-1.65 0-2.825-1.175T8 8t1.175-2.825T12 4t2.825 1.175T16 8t-1.175 2.825T12 12m0-2q.825 0 1.413-.587T14 8t-.587-1.412T12 6t-1.412.588T10 8t.588 1.413T12 10m5.9 4.2q.5-.5.913-.85T19.95 13q.925 0 1.488.638T22 15.074q0 .375-.15.75t-.45.675l-2.8 2.8q-.3.3-.7.3t-.7-.3l-2.8-2.8q-.325-.325-.462-.7t-.138-.75q0-.8.575-1.425T15.85 13q.7 0 1.1.325t.95.875"/></svg>