<svg xmlns="http://www.w3.org/2000/svg" viewBox="0 0 24 24" width="24" height="24"><path fill="currentColor" d="M12 13q-1.65 0-2.825-1.175T8 9V5.5q0-.625.438-1.062T9.5 4q.375 0 .713.175t.537.5q.2-.325.538-.5T12 4t.713.175t.537.5q.2-.325.538-.5T14.5 4q.625 0 1.063.438T16 5.5V9q0 1.65-1.175 2.825T12 13m0-2q.825 0 1.413-.587T14 9V6.5h-4V9q0 .825.588 1.413T12 11m-8 8v-.8q0-.85.438-1.562T5.6 15.55q1.55-.775 3.15-1.162T12 14t3.25.388t3.15 1.162q.725.375 1.163 1.088T20 18.2v.8q0 .825-.587 1.413T18 21H6q-.825 0-1.412-.587T4 19m2 0h12v-.8q0-.275-.137-.5t-.363-.35q-1.35-.675-2.725-1.012T12 16t-2.775.338T6.5 17.35q-.225.125-.363.35T6 18.2zm6-12.5"/></svg>