<svg xmlns="http://www.w3.org/2000/svg" viewBox="0 0 24 24" width="24" height="24"><path fill="currentColor" d="m17.55 9.175l3.525-3.55q.3-.3.713-.3t.712.3t.3.713t-.3.712l-4.25 4.25q-.3.3-.7.3t-.7-.3l-2.125-2.125q-.3-.3-.3-.712t.3-.713t.7-.3t.7.3zM9 12q-1.65 0-2.825-1.175T5 8t1.175-2.825T9 4t2.825 1.175T13 8t-1.175 2.825T9 12m-8 6v-.8q0-.85.438-1.562T2.6 14.55q1.55-.775 3.15-1.162T9 13t3.25.388t3.15 1.162q.725.375 1.163 1.088T17 17.2v.8q0 .825-.587 1.413T15 20H3q-.825 0-1.412-.587T1 18m2 0h12v-.8q0-.275-.137-.5t-.363-.35q-1.35-.675-2.725-1.012T9 15t-2.775.338T3.5 16.35q-.225.125-.363.35T3 17.2zm6-8q.825 0 1.413-.587T11 8t-.587-1.412T9 6t-1.412.588T7 8t.588 1.413T9 10m0-2"/></svg>