<svg xmlns="http://www.w3.org/2000/svg" viewBox="0 0 24 24" width="24" height="24"><path fill="currentColor" d="M10 14q-1.25 0-2.125-.875T7 11q0-.55.175-1.037t.525-.888q-.1-.25-.15-.525T7.5 8q0-.95.513-1.687T9.35 5.225q.5-.575 1.175-.9T12 4t1.475.325t1.175.9q.825.35 1.338 1.088T16.5 8q0 .275-.05.55t-.15.525q.35.4.525.888T17 11q0 1.25-.875 2.125T14 14zm0-2h4q.425 0 .713-.3T15 11q0-.175-.062-.325t-.188-.3q-.275-.325-.363-.638T14.3 9.15q0-.4.1-.687T14.5 8q0-.3-.175-.55t-.45-.375q-.225-.1-.413-.225t-.337-.325q-.125-.15-.413-.337T12 6t-.712.2t-.413.35q-.15.175-.337.3t-.413.225q-.275.125-.45.375T9.5 8q0 .175.1.462t.1.688q0 .275-.088.587t-.362.638q-.125.15-.187.3T9 11q0 .4.288.7T10 12m-6 8v-.8q0-.85.438-1.562T5.6 16.55q1.55-.775 3.15-1.162T12 15t3.25.388t3.15 1.162q.725.375 1.163 1.088T20 19.2v.8q0 .825-.587 1.413T18 22H6q-.825 0-1.412-.587T4 20m2 0h12v-.8q0-.275-.137-.5t-.363-.35q-1.35-.675-2.725-1.012T12 17t-2.775.338T6.5 18.35q-.225.125-.363.35T6 19.2zm6-8"/></svg>