<svg xmlns="http://www.w3.org/2000/svg" viewBox="0 0 24 24" width="24" height="24"><path fill="currentColor" d="M21 8.625q0 1.125-.425 2.15T19.35 12.6l-1.3 1.3q-.275.275-.7.275t-.7-.275t-.275-.7t.275-.7l1.3-1.3q.5-.5.775-1.175t.275-1.4q0-1.5-1.063-2.562T15.375 5q-.725 0-1.4.275T12.8 6.05l-1.3 1.3q-.275.275-.7.275t-.7-.275t-.275-.7t.275-.7l1.3-1.3q.8-.8 1.825-1.225T15.375 3q2.35 0 3.988 1.638T21 8.625M8.625 19q.725 0 1.4-.275t1.175-.775l1.925-1.925l-5.15-5.15L6.05 12.8q-.5.5-.775 1.175T5 15.375q0 1.5 1.063 2.563T8.625 19m5.9-1.575L12.6 19.35q-.8.8-1.825 1.225T8.625 21q-2.35 0-3.988-1.637T3 15.375q0-1.125.425-2.15T4.65 11.4l1.925-1.925L2.1 5q-.275-.275-.275-.7t.275-.7t.7-.275t.7.275l17 17q.275.275.275.7t-.275.7t-.7.275t-.7-.275zm-1.15-6.8"/></svg>