<svg xmlns="http://www.w3.org/2000/svg" viewBox="0 0 24 24" width="24" height="24"><path fill="currentColor" d="M3.55 10.5h1.7q.325 0 .538.213T6 11.25t-.213.538T5.25 12H2q-.425 0-.712-.288T1 11V7.75q0-.325.213-.537T1.75 7t.538.213t.212.537v1.7L4.95 7q.225-.225.525-.225T6 7t.225.525T6 8.05zm6.95-6.95L8.05 6q-.225.225-.525.225T7 6t-.225-.525T7 4.95L9.45 2.5h-1.7q-.325 0-.538-.213T7 1.75t.213-.537T7.75 1H11q.425 0 .713.288T12 2v3.25q0 .325-.213.538T11.25 6t-.537-.213t-.213-.537zM14.825 23q-.6 0-1.15-.225t-.975-.65L8.3 17.7q-.3-.3-.275-.737t.325-.738q.4-.4.938-.538t1.062.013l1.65.475V8q0-.425.288-.712T13 7t.713.288T14 8v9.5q0 .5-.4.8t-.875.175l-1.15-.325l2.55 2.55q.125.125.313.213t.387.087H19q.825 0 1.413-.587T21 19v-4q0-.425.288-.712T22 14t.713.288T23 15v4q0 1.65-1.175 2.825T19 23zM16 11q.425 0 .713.288T17 12v3q0 .425-.288.713T16 16t-.712-.288T15 15v-3q0-.425.288-.712T16 11m3 1q.425 0 .713.288T20 13v2q0 .425-.288.713T19 16t-.712-.288T18 15v-2q0-.425.288-.712T19 12"/></svg>