<svg xmlns="http://www.w3.org/2000/svg" viewBox="0 0 24 24" width="24" height="24"><path fill="currentColor" d="m4.5 9.575l-2.425 2.4q-.225.2-.525.213t-.525-.213T.8 11.45t.225-.525l2.4-2.425H1.75q-.325 0-.537-.213T1 7.75t.213-.537T1.75 7H5q.425 0 .713.288T6 8v3.25q0 .325-.213.538T5.25 12t-.537-.213t-.213-.537zM9.55 4.5h1.7q.325 0 .538.213T12 5.25t-.213.538T11.25 6H8q-.425 0-.712-.288T7 5V1.75q0-.325.213-.537T7.75 1t.538.213t.212.537v1.7l2.4-2.425Q11.125.8 11.425.8t.525.225t.225.538t-.225.537zM14.825 23q-.6 0-1.15-.225t-.975-.65L8.3 17.7q-.3-.3-.275-.737t.325-.738q.4-.4.938-.538t1.062.013l1.65.475V8q0-.425.288-.712T13 7t.713.288T14 8v9.5q0 .5-.4.8t-.875.175l-1.15-.325l2.55 2.55q.125.125.313.213t.387.087H19q.825 0 1.413-.587T21 19v-4q0-.425.288-.712T22 14t.713.288T23 15v4q0 1.65-1.175 2.825T19 23zM16 11q.425 0 .713.288T17 12v3q0 .425-.288.713T16 16t-.712-.288T15 15v-3q0-.425.288-.712T16 11m3 1q.425 0 .713.288T20 13v2q0 .425-.288.713T19 16t-.712-.288T18 15v-2q0-.425.288-.712T19 12"/></svg>