<svg xmlns="http://www.w3.org/2000/svg" viewBox="0 0 24 24" width="24" height="24"><path fill="currentColor" d="M4 20q-.825 0-1.412-.587T2 18v-6q0-.425.288-.712T3 11t.713.288T4 12v6h16V6h-8q-.425 0-.712-.288T11 5t.288-.712T12 4h8q.825 0 1.413.588T22 6v12q0 .825-.587 1.413T20 20zm10-6.575l2.375 2.375q.3.3.7.3t.7-.3t.3-.712t-.3-.713L15.4 12H17q.425 0 .713-.288T18 11t-.288-.712T17 10h-4q-.425 0-.712.288T12 11v4q0 .425.288.713T13 16t.713-.288T14 15zM3 9q-.425 0-.712-.288T2 8V5q0-.425.288-.712T3 4h5q.425 0 .713.288T9 5v3q0 .425-.288.713T8 9zm9 3"/></svg>