<svg xmlns="http://www.w3.org/2000/svg" viewBox="0 0 24 24" width="24" height="24"><path fill="currentColor" d="M11.225 10.525q.525 0 .888-.363t.362-.887t-.362-.888t-.888-.362t-.887.363t-.363.887t.363.888t.887.362M20.55 22q-1.05 0-2.825-.875t-3.8-2.375q-.475.125-.962.188t-.988.062q-2.925 0-4.95-2.025T5 12.025q0-.5.075-1t.2-.975Q3.8 8.025 2.913 6.263T2.025 3.45q0-.675.375-1.062T3.425 2Q4 2 4.838 2.325T7.1 3.45q.35.2.463.613t-.088.762t-.6.463t-.75-.088q-.475-.275-.925-.475T4.25 4.3q.45.95.963 1.85T6.3 7.925q.95-1.35 2.425-2.125t3.25-.775q2.925 0 4.963 2.038t2.037 4.962q0 1.775-.788 3.25T16.05 17.7q.875.575 1.788 1.1t1.862.95q-.2-.475-.412-.925T18.8 17.9q-.2-.35-.088-.762t.463-.613t.763-.087t.612.462q.85 1.5 1.15 2.288t.3 1.362q0 .725-.4 1.088T20.55 22m-6.825-6.975q.425 0 .713-.288t.287-.712t-.287-.712t-.713-.288t-.712.288t-.288.712t.288.713t.712.287m1.25-3.5q.325 0 .538-.213t.212-.537t-.212-.537t-.538-.213t-.537.213t-.213.537t.213.538t.537.212m-3.275 5.45q-1.275-1.1-2.45-2.275T7 12.25q.05.95.425 1.788t1.025 1.487t1.475 1.025t1.775.425m2.575-.525q1.2-.625 1.95-1.812t.75-2.638q0-2.075-1.463-3.525t-3.537-1.45q-1.45 0-2.625.75t-1.8 1.95q1.425 1.9 3.125 3.6t3.6 3.125m-2-4.725"/></svg>