<svg xmlns="http://www.w3.org/2000/svg" viewBox="0 0 24 24" width="24" height="24"><path fill="currentColor" d="M1.975 21q-.425 0-.7-.288T1 20t.288-.712T2 19h.05l.875-13.125q.05-.8.625-1.338T4.925 4h6.125q.8 0 1.375.537t.625 1.338L13.95 19H18v-6.15q-1.3-.35-2.15-1.4T15 9q0-.85.325-1.588t.9-1.287q-.125-.275-.175-.55T16 5q0-1.25.875-2.125T19 2t2.125.875T22 5q0 .3-.05.575t-.175.55q.575.55.9 1.288T23 9q0 1.4-.85 2.45T20 12.85V19h2q.425 0 .712.288T23 20t-.288.713T22 21zm2.1-2h7.85L11.05 6h-.8v9.025q.325.075.538.35T11 16q0 .425-.288.713T10 17H6q-.425 0-.712-.288T5 16q0-.35.213-.625t.537-.35V6h-.8zm3.175-4h1.5V6h-1.5zM19 11q.825 0 1.413-.587T21 9q0-.7-.325-1.075T20 7.2V5q0-.425-.288-.713T19 4t-.712.288T18 5v2.2q-.35.35-.675.725T17 9q0 .825.588 1.413T19 11m0-2"/></svg>