<svg xmlns="http://www.w3.org/2000/svg" viewBox="0 0 24 24" width="24" height="24"><path fill="currentColor" d="m15.375 14.125l.775-2.8q.1-.3-.012-.6t-.388-.5L13.375 8.6q-.2-.15-.437-.062t-.313.337l-.775 2.8q-.1.3.013.6t.387.5l2.375 1.625q.2.15.437.063t.313-.338M4 18.825l-.825-.4q-.775-.325-1.05-1.112T2.2 15.75l1.8-3.9zM8 21q-.825 0-1.412-.6T6 18.975V13l2.675 7.35q.075.175.125.338t.175.312zm5.15-.125q-.775.275-1.55-.075t-1.05-1.125L6.125 7.45q-.275-.775.075-1.538t1.125-1.037l7.525-2.75q.775-.275 1.538.075t1.037 1.125l4.45 12.225q.275.775-.075 1.538t-1.125 1.037zM12.45 19L20 16.25L15.525 4L8 6.75zM14 11.5"/></svg>