<svg xmlns="http://www.w3.org/2000/svg" viewBox="0 0 24 24" width="24" height="24"><path fill="currentColor" d="M12 22q-2.075 0-3.9-.788t-3.175-2.137T2.788 15.9T2 12t.788-3.9t2.137-3.175T8.1 2.788T12 2t3.9.788t3.175 2.137T21.213 8.1T22 12t-.788 3.9t-2.137 3.175t-3.175 2.138T12 22m0-2q3.35 0 5.675-2.325T20 12t-2.325-5.675T12 4T6.325 6.325T4 12t2.325 5.675T12 20m0-2q2.5 0 4.25-1.75T18 12q0-.875-.225-1.662t-.65-1.488q-.3-.5-.712-.562t-.763.137t-.488.575t.138.75q.35.475.525 1.05T16 12q0 1.65-1.175 2.825T12 16t-2.825-1.175T8 12q0-.625.175-1.187t.5-1.038q.25-.375.125-.737t-.45-.563t-.737-.15t-.738.525q-.45.675-.663 1.475T6 12q0 2.5 1.75 4.25T12 18m0-12q-.425 0-.712.288T11 7v4q0 .425.288.713T12 12t.713-.288T13 11V7q0-.425-.288-.712T12 6m0 6"/></svg>