<svg xmlns="http://www.w3.org/2000/svg" viewBox="0 0 24 24" width="24" height="24"><path fill="currentColor" d="M19.075 21.9L16 18.85h2V19q0 .825-.587 1.413T16 21H8q-.825 0-1.412-.587T6 19v-2H4q-.825 0-1.412-.587T2 15v-4q0-1.275.875-2.137T5 8h.15L2.075 4.925q-.3-.3-.3-.712t.3-.713t.713-.3t.712.3l17 17q.3.3.3.7t-.3.7t-.712.3t-.713-.3M8 19h8v-.15L12.15 15H8zm14-4q0 .825-.587 1.413T20 17h-.15q-.425 0-.712-.288T18.85 16t.288-.712t.712-.288H20v-4q0-.425-.288-.712T19 10h-6.075q-.5 0-.75-.312T11.925 9t.25-.687t.75-.313H19q1.275 0 2.138.863T22 11zM4 11v4h2q0-.825.588-1.412T8 13h2.15l-3-3H5q-.425 0-.712.288T4 11m12-3V5H7.925q-.5 0-.75-.312T6.925 4t.25-.687t.75-.313H16q.825 0 1.413.588T18 5v3zm2 4.5q.425 0 .713-.288T19 11.5t-.288-.712T18 10.5t-.712.288T17 11.5t.288.713t.712.287m1-2.5h1h-7.075zM4 10h3.15z"/></svg>