<svg xmlns="http://www.w3.org/2000/svg" viewBox="0 0 24 24" width="24" height="24"><path fill="currentColor" d="m17.95 17.35l2.825-2.825q.275-.275.688-.275t.712.275q.3.3.3.713t-.3.712l-3.525 3.525q-.3.3-.7.3t-.7-.3l-1.425-1.425q-.3-.3-.3-.7t.3-.7q.3-.275.7-.275t.7.275zM4 10h16zm-2 1q0-1.275.875-2.137T5 8h14q1.275 0 2.138.863T22 11q0 .425-.288.713T21 12q-.4 0-.7-.288T20 11t-.288-.712T19 10H5q-.425 0-.712.288T4 11v4h2q0-.825.588-1.412T8 13h5q.425 0 .713.288T14 14t-.288.713T13 15H8v4h5q.425 0 .713.288T14 20t-.288.713T13 21H8q-.825 0-1.412-.587T6 19v-2H4q-.825 0-1.412-.587T2 15zm4-3V5q0-.825.588-1.412T8 3h8q.825 0 1.413.588T18 5v3h-2V5H8v3z"/></svg>