<svg xmlns="http://www.w3.org/2000/svg" viewBox="0 0 24 24" width="24" height="24"><path fill="currentColor" d="M9.85 7.025q.05 0 .075-.012T10 7q.825 0 1.413.588T12 9v.175zm11.3 9.625L18 13.5v1.675l-2-2V6H8.825l-2-2H16q.825 0 1.413.588T18 6v4.5l3.15-3.15q.25-.25.55-.125t.3.475v8.6q0 .35-.3.475t-.55-.125M16 20H4q-.825 0-1.412-.587T2 18V6q0-.825.588-1.412T4 4l2 2H4v12h5.3v-1.05q-1.725-.25-2.9-1.463T5.025 12.6q-.05-.275.175-.437T5.7 12t.5.15t.275.425q.2 1.275 1.188 2.138t2.337.862q.825 0 1.563-.362T12.8 14.2l1.025 1.025q-.6.725-1.4 1.163t-1.725.562V18H16v-2l2 2q0 .825-.587 1.413T16 20m3.85 2.65l-8.925-8.925q-.225.125-.45.2T10 14q-.825 0-1.412-.587T8 12v-1.2L1.35 4.15q-.275-.275-.275-.7t.275-.7t.7-.275t.7.275l18.5 18.5q.275.275.275.7t-.275.7t-.7.275t-.7-.275M9.3 18h1.4z"/></svg>