<svg xmlns="http://www.w3.org/2000/svg" viewBox="0 0 24 24" width="24" height="24"><path fill="currentColor" d="M7 22q-.825 0-1.413-.588T5 20q0-.825.588-1.413T7 18q.825 0 1.413.588T9 20q0 .825-.588 1.413T7 22Zm10 0q-.825 0-1.413-.588T15 20q0-.825.588-1.413T17 18q.825 0 1.413.588T19 20q0 .825-.588 1.413T17 22ZM12 9.5q-.425 0-.713-.288T11 8.5q0-.425.288-.713T12 7.5q.425 0 .713.288T13 8.5q0 .425-.288.713T12 9.5ZM11 6V1h2v5h-2ZM7 17q-1.15 0-1.738-.988T5.25 14.05L6.6 11.6L3 4H2q-.425 0-.713-.288T1 3q0-.425.288-.713T2 2h1.65q.275 0 .525.15t.375.425L8.525 11h7.025l3.6-6.5q.125-.225.35-.363T20 4q.575 0 .863.488t.012.987L17.3 11.95q-.275.5-.738.775T15.55 13H8.1L7 15h11q.425 0 .713.288T19 16q0 .425-.288.713T18 17H7Z"/></svg>