<svg xmlns="http://www.w3.org/2000/svg" viewBox="0 0 24 24" width="24" height="24"><path fill="currentColor" d="m10.85 13.75l.1.8q.025.2.163.325t.337.125h1.1q.2 0 .338-.125t.162-.325l.1-.8q.2-.075.363-.175t.287-.225l.75.325q.175.075.35.025t.275-.225l.55-.95q.1-.175.063-.35t-.188-.3l-.65-.475q.05-.2.05-.4t-.05-.4l.65-.475q.15-.125.188-.3t-.063-.35l-.55-.95q-.1-.175-.275-.225t-.35.025l-.75.325q-.125-.125-.288-.225t-.362-.175l-.1-.8q-.025-.2-.162-.325T12.55 7h-1.1q-.2 0-.337.125t-.163.325l-.1.8q-.2.075-.362.175t-.288.225l-.75-.325Q9.275 8.25 9.1 8.3t-.275.225l-.55.95q-.1.175-.062.35t.187.3l.65.475Q9 10.8 9 11t.05.4l-.65.475q-.15.125-.187.3t.062.35l.55.95q.1.175.275.225t.35-.025l.75-.325q.125.125.288.225t.362.175M12 12.5q-.625 0-1.062-.437T10.5 11t.438-1.062T12 9.5t1.063.438T13.5 11t-.437 1.063T12 12.5m-6 5.2q-1.425-1.3-2.212-3.037T3 11q0-3.75 2.625-6.375T12 2q3.125 0 5.538 1.838t3.137 4.787l1.3 5.125q.125.475-.175.863T21 15h-2v3q0 .825-.587 1.413T17 20h-2v1q0 .425-.288.713T14 22t-.712-.288T13 21v-2q0-.425.288-.712T14 18h3v-4q0-.425.288-.712T18 13h1.7l-.95-3.875q-.575-2.275-2.45-3.7T12 4Q9.1 4 7.05 6.025T5 10.95q0 1.5.613 2.85t1.737 2.4l.65.6V21q0 .425-.288.713T7 22t-.712-.288T6 21zm6.35-4.7"/></svg>