<svg xmlns="http://www.w3.org/2000/svg" viewBox="0 0 24 24" width="24" height="24"><path fill="currentColor" d="m12 11.4l-1.875 1.9q-.3.3-.712.3t-.713-.3t-.3-.712t.3-.713L11 9.6V3q0-.425.288-.712T12 2t.713.288T13 3v6.6l2.3 2.275q.3.3.3.713t-.3.712t-.712.3t-.713-.3zM5 21q-1.275 0-2.137-.862T2 18v-3.825q0-.2.038-.363t.087-.337l2.5-6.675q.3-.825 1.05-1.312T7.3 5q1.125 0 1.913.813T10 7.775V8.5q0 .425-.288.713T9 9.5t-.712-.288T8 8.5v-.725q0-.325-.225-.55T7.25 7q-.25 0-.462.138T6.5 7.5L4 14.2V18q0 .425.288.713T5 19h3q.425 0 .713-.288T9 18v-1q0-.425.288-.712T10 16t.713.288T11 17v1q0 1.275-.875 2.138T8 21zm13.975 0h-3q-1.25 0-2.125-.862T12.975 18v-1q0-.425.288-.712t.712-.288t.713.288t.287.712v1q0 .425.288.713t.712.287h3q.425 0 .713-.288t.287-.712v-3.8l-2.5-6.7q-.1-.225-.3-.363T16.725 7q-.325 0-.537.225t-.213.55V8.5q0 .425-.288.713t-.712.287t-.712-.288t-.288-.712v-.725q0-1.15.788-1.963T16.675 5q.875 0 1.613.488T19.35 6.8l2.5 6.675q.05.175.088.338t.037.362V18q0 1.275-.875 2.138T18.975 21M15.3 13.3"/></svg>