<svg xmlns="http://www.w3.org/2000/svg" viewBox="0 0 24 24" width="24" height="24"><path fill="currentColor" d="M20.15 18.125L18.725 16.7q.425-.4.775-.863t.625-.962q-1.2-.125-2.35-.45t-2.2-.875L10.4 8.375q-.55-1.05-.875-2.188T9.1 3.85q-.5.275-.963.625t-.862.775l-1.4-1.4Q6.7 3 7.663 2.375t2.012-1q.55-.2 1.012.138t.438.912q-.075 2.1.688 4.038T14.075 9.9q1.5 1.5 3.425 2.25t4.05.675q.65-.025.963.425t.087 1.05q-.35 1.05-.975 2.025t-1.475 1.8Zm-1.475 4.2l-2-1.975q-.85.325-1.738.487T13.1 21q-2.1 0-3.937-.8t-3.2-2.163Q4.6 16.675 3.8 14.837T3 10.9q0-.95.163-1.838t.487-1.737L1.675 5.35q-.3-.3-.287-.713t.312-.712q.3-.3.713-.3t.712.3l16.975 17q.3.3.3.7t-.3.7q-.3.3-.713.3t-.712-.3ZM13.1 19q.5 0 1-.063t.975-.187l-4.925-4.925l-4.9-4.9q-.125.5-.188.988T5 10.9q0 3.375 2.363 5.738T13.1 19Zm-2.95-5.175Zm2.85-2.85Z"/></svg>