<svg xmlns="http://www.w3.org/2000/svg" viewBox="0 0 24 24" width="24" height="24"><path fill="currentColor" d="M3.2 22q-.35 0-.475-.3t.125-.55L4 20h12l1.15 1.15q.25.25.125.55t-.475.3zM5 19l1-1h-.5q-1.45 0-2.475-1.025T2 14.5V8q0-3.225 2.313-5.113T10 1q.275 0 .513.013t.512.037q.475.05.688.388t.162.712t-.337.65t-.813.225Q10.525 3 10.362 3H10q-.975 0-1.95.238T6.225 4h3.1q.5 0 .75.313t.25.687t-.262.688T9.3 6H4.425q-.2.45-.312.938T4 8v1h5.675q.5 0 .75.313t.25.687t-.25.688t-.75.312H4v3.5q0 .625.438 1.063T5.5 16h9q.625 0 1.063-.437T16 14.5V14q0-.425.288-.712T17 13t.713.288T18 14v.5q0 1.45-1.025 2.475T14.5 18H14l1 1zm5-4q.625 0 1.063-.437T11.5 13.5t-.437-1.062T10 12t-1.062.438T8.5 13.5t.438 1.063T10 15m7-3q-2.075 0-3.537-1.463T12 7q0-2.05 1.45-3.525T17 2q2.075 0 3.538 1.462T22 7t-1.463 3.538T17 12m0-4q.2 0 .35-.15t.15-.35v-3q0-.2-.15-.35T17 4t-.35.15t-.15.35v3q0 .2.15.35T17 8m0 2q.2 0 .35-.15t.15-.35t-.15-.35T17 9t-.35.15t-.15.35t.15.35t.35.15m-7-6"/></svg>