<svg xmlns="http://www.w3.org/2000/svg" viewBox="0 0 24 24" width="24" height="24"><path fill="currentColor" d="M8 20.25q-2.45-.95-4.225-2.812T2 13q0-.425.288-.712T3 12h1V4.9q0-.375.25-.65t.625-.325l16.3-1.825q.35-.05.588.175T22 2.85q0 .275-.2.487t-.475.238L10.5 4.8v1.7h10.75q.325 0 .538.212T22 7.25t-.213.538T21.25 8H10.5v4H21q.425 0 .713.288T22 13q0 2.575-1.775 4.438T16 20.25V21q0 .425-.288.713T15 22H9q-.425 0-.712-.288T8 21zM8 6.5h1V4.975l-1 .1zm-2.5 0h1V5.25l-1 .1zM8 12h1V8H8zm-2.5 0h1V8h-1zm4.5 8h4v-1.1l1.25-.5q1.525-.6 2.7-1.725T19.65 14H4.35q.525 1.55 1.7 2.688t2.7 1.712l1.25.5zm2-6"/></svg>