<svg xmlns="http://www.w3.org/2000/svg" viewBox="0 0 24 24" width="24" height="24"><path fill="currentColor" d="m10 18l-1.275 3.075q-.15.375-.537.538t-.763.012t-.537-.537t-.013-.763l1.075-2.6q-2.65-.7-4.3-2.85T2 10V6q0-1.65 1.175-2.825T6 2q.55 0 1.05.187t1 .388l4.775 1.95q.325.125.313.463t-.338.462L10 6.5V8l10.65 6.775q.175.125.275.288t.15.362l.7 3.5q.075.425-.188.75T20.9 20h-.35q-.275 0-.475-.137t-.325-.363L19 18h-5v3q0 .425-.288.713T13 22t-.712-.288T12 21v-3zM6 7q-.425 0-.712-.288T5 6t.288-.712T6 5t.713.288T7 6t-.288.713T6 7m4 9h8.825l-1.575-1H10q-.9 0-1.687-.363t-1.338-1.012q-.325-.35-.625-.962t-.3-1.113q0-.425.288-.712t.712-.288q.375 0 .65.25t.35.6q.125.7.675 1.15T10 13h4.125L8 9.1V6q0-.825-.587-1.412T6 4t-1.412.588T4 6v4q0 2.5 1.75 4.25T10 16"/></svg>