<svg xmlns="http://www.w3.org/2000/svg" viewBox="0 0 24 24" width="24" height="24"><path fill="currentColor" d="M6 20q-.825 0-1.412-.587T4 18v-.8q0-.85.438-1.562T5.6 14.55q1.55-.775 3.15-1.162T12 13q.275 0 .538.013t.537.037q.4.05.663.338t.262.687q0 .425-.337.713t-.763.237Q12.675 15 12.45 15H12q-1.4 0-2.775.338T6.5 16.35q-.225.125-.363.35T6 17.2v.8h7q.425 0 .713.288T14 19t-.288.713T13 20zm0-2h8zm6-6q-1.65 0-2.825-1.175T8 8t1.175-2.825T12 4t2.825 1.175T16 8t-1.175 2.825T12 12m0-2q.825 0 1.413-.587T14 8t-.587-1.412T12 6t-1.412.588T10 8t.588 1.413T12 10m6 9h-1q-.425 0-.712-.288T16 18v-4q0-.425.288-.712T17 13h3.775q.425 0 .65.35t.025.725L20 17h.7q.425 0 .637.375t.013.75l-2.875 5.05q-.1.175-.288.125T18 23.05z"/></svg>