<svg xmlns="http://www.w3.org/2000/svg" viewBox="0 0 24 24" width="24" height="24"><path fill="currentColor" d="M7 20h8v-8H7zm0 0v-8zm0 2q-.825 0-1.412-.587T5 20v-8q0-.825.588-1.412T7 10h8q.825 0 1.413.588T17 12v3l2.15-2.15q.25-.25.55-.125t.3.475v5.6q0 .35-.3.475t-.55-.125L17 17v3q0 .825-.587 1.413T15 22zM20 8h-4q-.425 0-.712-.288T15 7t.288-.712T16 6h.9q-.975-.975-2.25-1.487T12 4q-1.775 0-3.325.838t-2.5 2.287q-.35.5-.75.575t-.75-.1t-.487-.525t.062-.675q1.2-2.025 3.263-3.213T12 2q2.05 0 3.888.875T19 5.35V3q0-.425.288-.712T20 2t.713.288T21 3v4q0 .425-.288.713T20 8"/></svg>