<svg xmlns="http://www.w3.org/2000/svg" viewBox="0 0 24 24" width="24" height="24"><path fill="currentColor" d="M11.575 18.15L11 17.375q-.15-.2-.4-.2t-.4.2l-.6.825q-.2.25-.05.525T10 19h3.975q.325 0 .463-.275t-.063-.525l-.975-1.275q-.15-.2-.387-.212t-.388.187zM8 22q-.825 0-1.412-.587T6 20v-8q0-.825.588-1.412T8 10h8q.825 0 1.413.588T18 12v8q0 .825-.587 1.413T16 22zm0-2h8v-8H8zm0 0v-8zM20 8h-4q-.425 0-.712-.288T15 7t.288-.712T16 6h.9q-.975-.975-2.25-1.487T12 4q-1.775 0-3.325.838t-2.5 2.287q-.35.5-.75.575t-.75-.1t-.487-.525t.062-.675q1.2-2.025 3.263-3.213T12 2q2.05 0 3.888.875T19 5.35V3q0-.425.288-.712T20 2t.713.288T21 3v4q0 .425-.288.713T20 8"/></svg>