<svg xmlns="http://www.w3.org/2000/svg" viewBox="0 0 24 24" width="24" height="24"><path fill="currentColor" d="M14.925 3q.4 0 .763.15t.637.425l4.1 4.1q.275.275.425.638t.15.762V15q0 .425-.288.713T20 16t-.712-.288T19 15V9.1L14.9 5H9q-.425 0-.712-.288T8 4t.288-.712T9 3zM13 10.2V8q0-.425-.288-.713T12 7t-.712.288T11 8v.2zM9.075 21q-.4 0-.762-.162t-.638-.438l-4.1-4.125Q3.3 16 3.15 15.638T3 14.875v-5.8q0-.4.15-.762t.425-.638L4.2 7.05L2.1 4.9q-.275-.275-.288-.687T2.1 3.5q.275-.275.7-.275t.7.275l17 17q.275.275.275.7t-.275.7t-.7.275t-.7-.275l-2.15-2.15l-.6.625q-.275.3-.65.463t-.8.162zm.025-2h5.8l.65-.65l-9.9-9.9L5 9.1v5.8zm2.9-2q-.425 0-.712-.288T11 16t.288-.712T12 15t.713.288T13 16t-.288.713T12 17m-1.4-3.6"/></svg>