<svg xmlns="http://www.w3.org/2000/svg" viewBox="0 0 24 24" width="24" height="24"><path fill="currentColor" d="m16.325 18.8l-1.15 1.15q-.425.425-1.05.438t-1.075-.438q-.425-.425-.425-1.062t.425-1.063l1.15-1.15q-.1-.275-.15-.575t-.05-.6q0-1.45 1.025-2.475T17.5 12q.225 0 .45.013t.425.087q.275.1.338.413t-.138.512L17.5 14.1q-.275.275-.275.7t.275.7t.7.275t.7-.275l1.075-1.075q.2-.2.512-.138t.413.338q.075.2.088.425t.012.45q0 1.45-1.025 2.475T17.5 19q-.325 0-.612-.05t-.563-.15M12 5Q9.075 5 7.038 7.038T5 12q0 1.8.813 3.3T8 17.75V16q0-.425.288-.712T9 15t.713.288T10 16v4q0 .425-.288.713T9 21H5q-.425 0-.712-.288T4 20t.288-.712T5 19h1.35Q4.8 17.75 3.9 15.938T3 12q0-1.875.713-3.512t1.924-2.85t2.85-1.925T12 3q2.825 0 5.088 1.575t3.262 4.05q.15.4 0 .775t-.55.525t-.788 0t-.537-.55q-.775-1.95-2.513-3.162T12 5"/></svg>