<svg xmlns="http://www.w3.org/2000/svg" viewBox="0 0 24 24" width="24" height="24"><path fill="currentColor" d="M12 15v-1.5q0-.625.438-1.062T13.5 12H15zm0 4.025V16.9l4.9-4.9h2.125zm.05 1.875l8.825-8.85q.4.1.688.387t.387.688L13.1 21.95q-.4-.125-.662-.387t-.388-.663m2.925 1.1L22 14.975V17.1L17.1 22zM19 22l3-3v1.5q0 .625-.437 1.063T20.5 22zM12 5Q9.075 5 7.038 7.038T5 12q0 1.8.813 3.3T8 17.75V16q0-.425.288-.712T9 15t.713.288T10 16v4q0 .425-.288.713T9 21H5q-.425 0-.712-.288T4 20t.288-.712T5 19h1.35Q4.8 17.75 3.9 15.938T3 12q0-1.875.713-3.512t1.924-2.85t2.85-1.925T12 3q2.825 0 5.088 1.575t3.262 4.05q.15.4 0 .775t-.55.525t-.788 0t-.537-.55q-.775-1.95-2.513-3.162T12 5"/></svg>