<svg xmlns="http://www.w3.org/2000/svg" viewBox="0 0 24 24" width="24" height="24"><path fill="currentColor" d="M15.5 21h-2q-.2 0-.35-.15T13 20.5v-2l-1.15-1.15q-.15-.15-.15-.35t.15-.35L13 15.5v-2q0-.2.15-.35t.35-.15h2l1.15-1.15q.15-.15.35-.15t.35.15L18.5 13h2q.2 0 .35.15t.15.35v2l1.15 1.15q.15.15.15.35t-.15.35L21 18.5v2q0 .2-.15.35t-.35.15h-2l-1.15 1.15q-.15.15-.35.15t-.35-.15zm1.5-1q1.25 0 2.125-.875T20 17t-.875-2.125T17 14zM12 5Q9.075 5 7.038 7.038T5 12q0 1.8.813 3.3T8 17.75V16q0-.425.288-.712T9 15t.713.288T10 16v4q0 .425-.288.713T9 21H5q-.425 0-.712-.288T4 20t.288-.712T5 19h1.35Q4.8 17.75 3.9 15.938T3 12q0-1.875.713-3.512t1.924-2.85t2.85-1.925T12 3q2.825 0 5.088 1.575t3.262 4.05q.15.4 0 .775t-.55.525t-.788 0t-.537-.55q-.775-1.95-2.513-3.162T12 5"/></svg>