<svg xmlns="http://www.w3.org/2000/svg" viewBox="0 0 24 24" width="24" height="24"><path fill="currentColor" d="M2 8V6q0-.825.588-1.412T4 4h16q.825 0 1.413.588T22 6v4.5q0 .425-.288.713T21 11.5t-.712-.288T20 10.5V6H4v2q0 .425-.288.713T3 9t-.712-.288T2 8m2 12q-.825 0-1.412-.587T2 18v-2q0-.425.288-.712T3 15t.713.288T4 16v2h4.5q.425 0 .713.288T9.5 19t-.288.713T8.5 20zm3-3q-.275 0-.525-.137T6.1 16.45L4.4 13H3.025q-.425 0-.712-.288T2.025 12t.288-.712t.712-.288h2q.275 0 .513.15t.362.4l1.1 2.2l3.1-6.2q.125-.25.375-.375T11 7.05t.525.125t.375.375l1.975 3.975q-.525.05-.987.225t-.863.5l-1.025-2l-3.1 6.2q-.125.275-.375.413T7 17m5.5 6q-.625 0-1.062-.437T11 21.5v-3.3q0-.2.038-.375t.087-.35l1.2-3.175q.225-.575.738-.938T14.2 13H16v-1q0-.425.288-.712T17 11t.713.288T18 12v1h1.8q.625 0 1.138.363t.737.937l1.2 3.175q.05.175.088.35T23 18.2v3.3q0 .625-.437 1.063T21.5 23h-2q-.625 0-1.062-.437T18 21.5V21q0-.425.288-.712T19 20t.713.288T20 21h1v-2.825L19.8 15H18v.925l.95.975q.275.3.275.713t-.275.687t-.7.275t-.7-.275l-.55-.55l-.55.55q-.275.275-.687.288t-.713-.288q-.275-.275-.275-.7t.275-.7l.95-.975V15h-1.8L13 18.175V21h1q0-.425.288-.712T15 20t.713.288T16 21v.5q0 .625-.437 1.063T14.5 23zm2.55-6.1l.95-.975V15v.925zm3.9 0l-.95-.975V15v.925z"/></svg>