<svg xmlns="http://www.w3.org/2000/svg" viewBox="0 0 24 24" width="24" height="24"><path fill="currentColor" d="M4 14V3q0-.825.588-1.412T6 1h5q.825 0 1.413.588T13 3v2.5q0 .675.413 1.225t1.062.725l2.625.725q1.275.35 2.088 1.412T20 12v2q0 .825-.587 1.413T18 16H6q-.825 0-1.412-.587T4 14m2 0h12v-2q0-.675-.413-1.187t-1.062-.713L13.9 9.35q-.9-.275-1.575-.887T11.3 7H9.5q-.2 0-.35-.15T9 6.5t.15-.35T9.5 6h1.6q-.05-.3-.062-.5T11 5H9.5q-.2 0-.35-.15T9 4.5t.15-.35T9.5 4H11V3H6zm-1 9q-1.25 0-2.125-.875T2 20t.875-2.125T5 17t2.125.875T8 20t-.875 2.125T5 23m0-2q.425 0 .713-.288T6 20t-.288-.712T5 19t-.712.288T4 20t.288.713T5 21m14 2q-1.25 0-2.125-.875T16 20t.875-2.125T19 17t2.125.875T22 20t-.875 2.125T19 23m0-2q.425 0 .713-.288T20 20t-.288-.712T19 19t-.712.288T18 20t.288.713T19 21m-7 2q-1.25 0-2.125-.875T9 20t.875-2.125T12 17t2.125.875T15 20t-.875 2.125T12 23m0-2q.425 0 .713-.288T13 20t-.288-.712T12 19t-.712.288T11 20t.288.713T12 21m7-1"/></svg>