<svg xmlns="http://www.w3.org/2000/svg" viewBox="0 0 24 24" width="24" height="24"><path fill="currentColor" d="M13 22q-.925 0-1.812-.187t-1.738-.538q-.375-.15-.5-.537t.025-.763t.525-.537t.75.012q.65.275 1.338.413T13 20q2.925 0 4.963-2.037T20 13t-2.05-4.962T12.975 6H12.8l.9.9q.275.275.275.7t-.275.7t-.7.275t-.7-.275L9.7 5.7q-.125-.125-.2-.312T9.425 5t.075-.387t.2-.313l2.6-2.6q.275-.275.7-.275t.7.275t.275.7t-.275.7l-.9.9h.175q3.75 0 6.388 2.625T22 13t-2.625 6.375T13 22m-6-3.425q-.2 0-.375-.062T6.3 18.3l-4.6-4.6q-.15-.15-.212-.325T1.425 13t.063-.375t.212-.325l4.6-4.6q.15-.15.325-.213T7 7.426t.375.063t.325.212l4.6 4.6q.15.15.213.325t.062.375t-.062.375t-.213.325l-4.6 4.6q-.15.15-.325.213T7 18.575m0-2.425L10.15 13L7 9.85L3.85 13zM7 13"/></svg>