<svg xmlns="http://www.w3.org/2000/svg" viewBox="0 0 24 24" width="24" height="24"><path fill="currentColor" d="M22 12q0 2.075-.788 3.9t-2.137 3.175t-3.175 2.138T12 22q-1.9 0-3.613-.675t-3.05-1.862t-2.187-2.8t-1.075-3.513q-.05-.475.225-.737t.65-.313t.725.163t.4.737q.375 3.025 2.638 5.025t5.287 2q3.35 0 5.675-2.325T20 12.025T17.675 6.35T12 4.025q-2.225 0-4.038 1.088T5.1 8H7q.425 0 .713.288T8 9t-.288.713T7 10H3q-.425 0-.712-.288T2 9V5q0-.425.288-.712T3 4t.713.288T4 5v1q1.375-1.825 3.45-2.912T12 2q2.075 0 3.9.788t3.175 2.137T21.213 8.1T22 12m-11.8 1.7h3.65l.625 1.825q.075.2.263.337t.412.138q.375 0 .588-.312t.087-.663l-2.85-7.55q-.075-.225-.275-.35T12.275 7h-.55q-.225 0-.425.125t-.275.35L8.175 15q-.125.35.088.675t.612.325q.25 0 .438-.137t.262-.363zm.45-1.3l1.3-3.75h.1l1.3 3.75z"/></svg>