<svg xmlns="http://www.w3.org/2000/svg" viewBox="0 0 24 24" width="24" height="24"><path fill="currentColor" d="M16.65 13.85q.175-.425.263-.887T17 12q0-2.075-1.463-3.537T12 7q-.5 0-.95.088t-.875.262zm2.2 2.2l-1.5-1.55q.3-.8.475-1.662T18 11.1V6.375l-6-2.25L8.35 5.5L6.8 3.95l4.5-1.675q.35-.125.7-.125t.7.125l6 2.25q.575.225.938.725T20 6.375V11.1q0 1.275-.288 2.525t-.862 2.425M12 21.9q-.1 0-.625-.1Q8 20.675 6 17.637T4 11.1V6.8L2.1 4.9q-.275-.275-.275-.7t.275-.7t.7-.275t.7.275l17 17q.275.275.275.7t-.275.7t-.7.275t-.7-.275l-2.55-2.55q-.825.875-1.812 1.475t-2.113.975q-.15.05-.3.075T12 21.9m0-2q.875-.275 1.675-.775t1.475-1.175l-1.3-1.3q-.425.175-.888.263T12 17q-2.075 0-3.537-1.463T7 12q0-.5.088-.962t.262-.888L6 8.8v2.3q0 3.025 1.7 5.5t4.3 3.3"/></svg>