<svg xmlns="http://www.w3.org/2000/svg" viewBox="0 0 24 24" width="24" height="24"><path fill="currentColor" d="M5 19V5v5.075V10zm0 2q-.825 0-1.412-.587T3 19V5q0-.825.588-1.412T5 3h11.175q.4 0 .763.15t.637.425l2.85 2.85q.275.275.425.638t.15.762v1.55q0 .425-.288.713t-.712.287t-.712-.288T19 9.376V7.85L16.15 5H5v14h5.8q.425 0 .713.288T11.8 20t-.288.713T10.8 21zm13 1q-2.075 0-3.537-1.463T13 17t1.463-3.537T18 12t3.538 1.463T23 17t-1.463 3.538T18 22m.5-5.2v-2.3q0-.2-.15-.35T18 14t-.35.15t-.15.35v2.275q0 .2.075.388t.225.337l1.525 1.525q.15.15.35.15t.35-.15t.15-.35t-.15-.35zM7 10h7q.425 0 .713-.288T15 9V7q0-.425-.288-.712T14 6H7q-.425 0-.712.288T6 7v2q0 .425.288.713T7 10m4.05 7.85q-.025-.225-.038-.437T11 16.975q0-1.35.5-2.6t1.45-2.225q-.225-.075-.462-.112T12 12q-1.25 0-2.125.875T9 15q0 .975.563 1.763t1.487 1.087"/></svg>