<svg xmlns="http://www.w3.org/2000/svg" viewBox="0 0 24 24" width="24" height="24"><path fill="currentColor" d="M5 21q-.825 0-1.412-.587T3 19V5q0-.825.588-1.412T5 3h11.175q.4 0 .763.15t.637.425l2.85 2.85q.275.275.425.638t.15.762V11q0 .425-.288.713T20 12t-.712-.288T19 11V7.825L16.175 5H5v14h5q.425 0 .713.288T11 20t-.288.713T10 21zM5 5v14zm8 17v-1.65q0-.2.075-.387t.225-.338l5.225-5.2q.225-.225.5-.325t.55-.1q.3 0 .575.113t.5.337l.925.925q.2.225.313.5t.112.55t-.1.563t-.325.512l-5.2 5.2q-.15.15-.337.225T15.65 23H14q-.425 0-.712-.287T13 22m7.5-5.575l-.925-.925zm-6 5.075h.95l3.025-3.05l-.45-.475l-.475-.45l-3.05 3.025zm3.525-3.525l-.475-.45l.925.925zM7 10h7q.425 0 .713-.288T15 9V7q0-.425-.288-.712T14 6H7q-.425 0-.712.288T6 7v2q0 .425.288.713T7 10m5 8h.1l2.9-2.875V15q0-1.25-.875-2.125T12 12t-2.125.875T9 15t.875 2.125T12 18"/></svg>