<svg xmlns="http://www.w3.org/2000/svg" viewBox="0 0 24 24" width="24" height="24"><path fill="currentColor" d="m12 15.55l1.15 1.15q.15.15.35.15t.35-.15L15 15.55l.45.45q.225.225.525.225T16.5 16t.225-.525t-.225-.525l-1.15-1.15q-.15-.15-.35-.15t-.35.15l-1.15 1.15l-1.15-1.15q-.15-.15-.35-.15t-.35.15l-1.15 1.15l-1.15-1.15q-.15-.15-.35-.15t-.35.15L7.5 14.95q-.225.225-.225.525T7.5 16t.525.225T8.55 16l.45-.45l1.15 1.15q.15.15.35.15t.35-.15zM8.475 10l-1.3.95q-.25.2-.312.5T7 12t.5.313t.55-.138l2.425-1.775q.2-.15.2-.4t-.2-.4L8.05 7.825q-.25-.2-.55-.138T7 8t-.15.55t.325.5zm7.05 0l1.3-.95q.25-.2.313-.5T17 8t-.5-.312t-.55.137L13.525 9.6q-.2.15-.2.4t.2.4l2.425 1.775q.25.2.55.138T17 12t.15-.55t-.325-.5zM12 22q-2.075 0-3.9-.788t-3.175-2.137T2.788 15.9T2 12t.788-3.9t2.137-3.175T8.1 2.788T12 2t3.9.788t3.175 2.137T21.213 8.1T22 12t-.788 3.9t-2.137 3.175t-3.175 2.138T12 22m0-2q3.35 0 5.675-2.325T20 12t-2.325-5.675T12 4T6.325 6.325T4 12t2.325 5.675T12 20"/></svg>