<svg xmlns="http://www.w3.org/2000/svg" viewBox="0 0 24 24" width="24" height="24"><path fill="currentColor" d="M7 6V5q0-.825.588-1.412T9 3h6q.825 0 1.413.588T17 5v1h.7q.575 0 1.075.325t.725.875l2.35 5.4q.075.2.113.4t.037.4V18q0 .825-.587 1.413T20 20H4q-.825 0-1.412-.587T2 18v-4.6q0-.2.038-.4t.112-.4L4.5 7.2q.225-.55.725-.875T6.3 6zm2 0h6V5H9zm-2 6v-.025q0-.425.288-.712T8 10.974t.713.288t.287.712V12h6v-.025q0-.425.288-.712t.712-.288t.713.288t.287.712V12h2.4l-1.7-4H6.3l-1.7 4zm0 2H4v4h16v-4h-3v.025q0 .425-.288.713t-.712.287t-.712-.288t-.288-.712V14H9v.025q0 .425-.288.713T8 15.025t-.712-.288T7 14.026zm5 0"/></svg>