<svg xmlns="http://www.w3.org/2000/svg" viewBox="0 0 24 24" width="24" height="24"><path fill="currentColor" d="M9 23q-.425 0-.712-.288T8 22V10q0-.425.288-.712T9 9h6q.425 0 .713.288T16 10v12q0 .425-.288.713T15 23zm3-8.75q.525 0 .888-.363T13.25 13t-.363-.888T12 11.75t-.888.363t-.362.887t.363.888t.887.362M12 6q-.75 0-1.45.2t-1.325.625q-.35.225-.775.213t-.7-.288q-.3-.3-.288-.7T7.8 5.4q.9-.675 1.975-1.038T12 4t2.225.362T16.2 5.4q.325.25.338.65t-.288.7q-.275.275-.675.3t-.75-.2q-.625-.425-1.35-.638T12 6m0-4q-1.55 0-2.975.487t-2.6 1.438q-.35.275-.775.288t-.725-.288t-.3-.725t.35-.7q1.5-1.2 3.288-1.85T12 0t3.75.638T19 2.525q.325.275.338.7t-.288.725q-.275.275-.687.288t-.738-.263Q16.425 3 15 2.5T12 2m-2 19h4V11h-4zm0 0h4z"/></svg>