<svg xmlns="http://www.w3.org/2000/svg" viewBox="0 0 24 24" width="24" height="24"><path fill="currentColor" d="M3 22v-3.2q-.875-.3-1.437-1.062T1 16V7q0-.425.288-.712T2 6h1V2q0-.425.288-.712T4 1t.713.288T5 2v4h1q.425 0 .713.288T7 7v9q0 .975-.562 1.738T5 18.8V22q0 .425-.288.713T4 23t-.712-.288T3 22m8 0v-3.2q-.875-.3-1.437-1.062T9 16V7q0-.425.288-.712T10 6h1V2q0-.425.288-.712T12 1t.713.288T13 2v4h1q.425 0 .713.288T15 7v9q0 .975-.562 1.738T13 18.8V22q0 .425-.288.713T12 23t-.712-.288T11 22m8 0v-3.2q-.875-.3-1.437-1.062T17 16V7q0-.425.288-.712T18 6h1V2q0-.425.288-.712T20 1t.713.288T21 2v4h1q.425 0 .713.288T23 7v9q0 .975-.562 1.738T21 18.8V22q0 .425-.288.713T20 23t-.712-.288T19 22M3 8v4h2V8zm8 0v4h2V8zm8 0v4h2V8zM4 17q.425 0 .713-.288T5 16v-2H3v2q0 .425.288.713T4 17m8 0q.425 0 .713-.288T13 16v-2h-2v2q0 .425.288.713T12 17m8 0q.425 0 .713-.288T21 16v-2h-2v2q0 .425.288.713T20 17m0-4"/></svg>