<svg xmlns="http://www.w3.org/2000/svg" viewBox="0 0 24 24" width="24" height="24"><path fill="currentColor" d="M8 24q-.425 0-.712-.288T7 23t.288-.712T8 22t.713.288T9 23t-.288.713T8 24m4 0q-.425 0-.712-.288T11 23t.288-.712T12 22t.713.288T13 23t-.288.713T12 24m4 0q-.425 0-.712-.288T15 23t.288-.712T16 22t.713.288T17 23t-.288.713T16 24m-4-10q-1.25 0-2.125-.875T9 11V5q0-1.25.875-2.125T12 2t2.125.875T15 5v6q0 1.25-.875 2.125T12 14m-1 6v-2.1q-2.3-.3-3.937-1.925t-1.988-3.95q-.05-.425.225-.725T6 11t.713.288T7.1 12q.35 1.75 1.738 2.875T12 16q1.8 0 3.175-1.137T16.9 12q.1-.425.388-.712T18 11t.7.3t.225.725q-.35 2.275-1.975 3.925T13 17.9V20q0 .425-.288.713T12 21t-.712-.288T11 20m1-8q.425 0 .713-.288T13 11V5q0-.425-.288-.712T12 4t-.712.288T11 5v6q0 .425.288.713T12 12"/></svg>