<svg xmlns="http://www.w3.org/2000/svg" viewBox="0 0 24 24" width="24" height="24"><path fill="currentColor" d="M7 10.6q0-.175-.15-.237t-.275.062L5.35 11.65q-.15.15-.15.35t.15.35l1.225 1.225q.125.125.275.063T7 13.4zm6.4 4.4h-2.8q-.175 0-.237.15t.062.275l1.225 1.225q.15.15.35.15t.35-.15l1.225-1.225q.125-.125.063-.275T13.4 15m0-6q.175 0 .237-.15t-.062-.275L12.35 7.35Q12.2 7.2 12 7.2t-.35.15l-1.225 1.225q-.125.125-.062.275T10.6 9zm3.6 1.6v2.8q0 .175.15.238t.275-.063l1.225-1.225q.15-.15.15-.35t-.15-.35l-1.225-1.225q-.125-.125-.275-.062T17 10.6M4 20q-.825 0-1.412-.587T2 18V6q0-.825.588-1.412T4 4h16q.825 0 1.413.588T22 6v12q0 .825-.587 1.413T20 20zm0-2h16V6H4zm0 0V6z"/></svg>