<svg xmlns="http://www.w3.org/2000/svg" viewBox="0 0 24 24" width="24" height="24"><path fill="currentColor" d="M11 22h-.875q-.375 0-.65-.25t-.325-.625l-.3-2.275q-.325-.125-.612-.3t-.563-.375l-1.55.65q-.625.275-1.25.05t-.975-.8l-1.175-2.05q-.35-.575-.2-1.225t.675-1.075l1.325-1q-.025-.175-.025-.337v-.676q0-.162.025-.337l-1.325-1Q2.675 9.95 2.525 9.3t.2-1.225L3.9 6.025q.35-.575.975-.8t1.25.05l1.55.65q.275-.2.575-.375t.6-.3l.2-1.65q.075-.675.575-1.113T10.8 2.05h2.4q.675 0 1.175.438T14.95 3.6l.2 1.65q.325.125.613.3t.562.375l1.5-.65q.625-.275 1.263-.05t.987.8l1.175 2.05q.35.575.213 1.225t-.663 1.075l-1.325.95q.025.175.025.325v.325q0 .425-.312.725t-.763.3q-.4 0-.663-.3t-.262-.725q0-.375-.05-.75t-.175-.75l2.15-1.625l-.975-1.7l-2.475 1.05q-.55-.575-1.213-.962t-1.437-.588L13 4h-1.975l-.35 2.65q-.775.2-1.437.588t-1.213.937L5.55 7.15l-.975 1.7l2.15 1.6q-.125.375-.175.75t-.05.8q0 .4.05.775t.175.75l-2.15 1.625l.975 1.7l2.475-1.05q.6.625 1.35 1.05T11 17.4zm7.75-1.45q-.25.15-.5.013t-.25-.438v-4.25q0-.3.25-.437t.5.012l3.55 2.125q.25.15.25.425t-.25.425zm-5 0q-.25.15-.5.013t-.25-.438v-4.25q0-.3.25-.437t.5.012l3.55 2.125q.25.15.25.425t-.25.425zM12.05 8.5q1.4 0 2.4.95t1.1 2.35q.05.5-.238.887t-.787.413q-.425.025-.737-.262t-.263-.713q.1-.65-.35-1.137T12.05 10.5q-.625 0-1.062.438T10.55 12q0 .35.138.638t.387.487q.275.25.25.638t-.325.662q-.35.3-.812.263T9.4 14.3q-.45-.45-.65-1.05T8.55 12q0-1.475 1.025-2.488T12.05 8.5"/></svg>