<svg xmlns="http://www.w3.org/2000/svg" viewBox="0 0 24 24" width="24" height="24"><path fill="currentColor" d="m15.8 21.25l-.375-1.55q-.9-.65-1.412-1.612T13.5 16t.513-2.087t1.412-1.613l.375-1.55q.075-.35.35-.55t.625-.2h2.45q.35 0 .625.2t.35.55l.375 1.55q.9.65 1.413 1.613T22.5 16t-.513 2.088t-1.412 1.612l-.375 1.55q-.075.35-.35.55t-.625.2h-2.45q-.35 0-.625-.2t-.35-.55M18 18.5q1.05 0 1.775-.725T20.5 16t-.725-1.775T18 13.5t-1.775.725T15.5 16t.725 1.775T18 18.5M4 11.1V6.375q0-.625.363-1.125t.937-.725l6-2.25q.35-.125.7-.125t.7.125l6 2.25q.575.225.938.725T20 6.375V7q0 .425-.288.713T19 8t-.712-.288T18 7v-.625l-6-2.25l-6 2.25V11.1q0 2.975 1.6 5.45T12 19.9q.175-.05.325-.1t.3-.125q.375-.2.763-.062t.587.512t.063.763t-.513.587q-.2.1-.387.175t-.388.125t-.375.088T12 21.9t-.375-.037t-.375-.088Q7.95 20.65 5.975 17.6T4 11.1"/></svg>