<svg xmlns="http://www.w3.org/2000/svg" viewBox="0 0 24 24" width="24" height="24"><path fill="currentColor" d="m12 9.525l-5.6 4.35q.475 1.575 1.4 2.863T10 18.9V16q0-.425.288-.712T11 15h2q.425 0 .713.288T14 16v2.9q1.275-.875 2.2-2.162t1.4-2.863zm-6-3.15V11.1q0 .125.013.275t.012.275L12 7l5.975 4.65q0-.125.013-.275T18 11.1V6.375l-6-2.25zM12 21.9q-.175 0-.325-.025t-.3-.075Q8 20.675 6 17.637T4 11.1V6.375q0-.625.363-1.125t.937-.725l6-2.25q.35-.125.7-.125t.7.125l6 2.25q.575.225.938.725T20 6.375V11.1q0 3.5-2 6.538T12.625 21.8q-.15.05-.3.075T12 21.9"/></svg>