<svg xmlns="http://www.w3.org/2000/svg" viewBox="0 0 24 24" width="24" height="24"><path fill="currentColor" d="M4 21q0-.425.288-.712T5 20h14q.425 0 .713.288T20 21t-.288.713T19 22H5q-.425 0-.712-.288T4 21m1.1-8q-.65 0-.913-.562t.138-1.063l3.175-3.9L8.925 8.9l-1.7 2.1H10v5h4v-2.025l2 2V17q0 .425-.288.713T15 18H9q-.425 0-.712-.288T8 17v-4zm7.675-10.05l6.9 8.425q.4.5.138 1.063T18.9 13h-2.625q-.2 0-.387-.075t-.338-.225q-.475-.475-.212-1.087t.937-.613h.5L12 5.15L10.9 6.5q-.275.35-.712.375t-.763-.3q-.275-.275-.3-.663t.225-.687l1.875-2.275q.3-.375.775-.375t.775.375m7 19.625L1.375 4.2q-.3-.3-.3-.713t.3-.712t.713-.3t.712.3l18.4 18.4q.3.3.3.7t-.3.7t-.712.3t-.713-.3M9.625 12.45"/></svg>