<svg xmlns="http://www.w3.org/2000/svg" viewBox="0 0 24 24" width="24" height="24"><path fill="currentColor" d="m18.55 20l.113-.875q.112-.875.262-2.125q.05-.275.063-.525T19.05 16l.113-.875q.112-.875.262-2.125q.15-1.275.263-2.137L19.8 10l.25-2v.025zM6 22q-.825 0-1.412-.587T4 20h14.575L20.05 8.025H17.3l-.275 2.125q-.05.425-.375.663T15.9 11t-.662-.363t-.188-.737l.225-1.875H11.3l-.275 2.1q-.05.425-.375.675t-.75.2t-.675-.375t-.2-.75l.225-1.85H5.5q.1-.85.65-1.437T7.5 6h2q.2-1.875 1.288-2.937T13.75 2q1.6 0 2.663 1.188T17.45 6H20q.9.025 1.5.7t.475 1.575l-1.5 12q-.1.75-.663 1.238T18.5 22zm5.5-16h3.975q.025-.825-.562-1.412T13.5 4q-.875 0-1.388.538T11.5 6M5.75 18h-3.5q-.425 0-.712-.288T1.25 17t.288-.712T2.25 16h3.5q.425 0 .713.288T6.75 17t-.288.713T5.75 18m3-4h-4.5q-.425 0-.712-.288T3.25 13t.288-.712T4.25 12h4.5q.425 0 .713.288T9.75 13t-.288.713T8.75 14"/></svg>