<svg xmlns="http://www.w3.org/2000/svg" viewBox="0 0 24 24" width="24" height="24"><path fill="currentColor" d="M16 20q-.425 0-.712-.288T15 19t.288-.712T16 18h6q.425 0 .713.288T23 19t-.288.713T22 20zM10 3q-.425 0-.712-.288T9 2t.288-.712T10 1h4q.425 0 .713.288T15 2t-.288.713T14 3zm2 8h6.7q-.45-1.55-1.537-2.725T14.6 6.5zm-1.75 1l3.35-5.8q-.4-.1-.812-.15T11.95 6q-1.125 0-2.225.362T7.65 7.5zM5.1 14h5.15L6.9 8.2q-1.05 1.175-1.562 2.663T5.1 14m4.3 5.5L12 15H5.3q.45 1.55 1.538 2.725T9.4 19.5M12 22q-1.875 0-3.512-.712t-2.85-1.925t-1.925-2.85T3 13t.713-3.512t1.924-2.85t2.85-1.925T12 4q1.6 0 3.025.525t2.6 1.45l.725-.725q.275-.275.688-.288t.712.288q.275.275.288.688t-.263.712l-.725.75q.925 1.175 1.438 2.575t.512 3q0 .425-.288.713t-.712.287t-.712-.287t-.288-.713q0-.25-.012-.487T18.925 12H14.9l-4.5 7.825q.4.1.788.138T12 20q.275 0 .525-.012t.525-.063q.425-.05.75.188t.375.662t-.187.75t-.663.375q-.325.05-.65.075T12 22"/></svg>