<svg xmlns="http://www.w3.org/2000/svg" viewBox="0 0 24 24" width="24" height="24"><path fill="currentColor" d="M10 3q-.425 0-.712-.288T9 2t.288-.712T10 1h4q.425 0 .713.288T15 2t-.288.713T14 3zm2 19q-1.875 0-3.512-.712T5.625 19.35T3.7 16.487T3 13t.713-3.488T5.65 6.65t2.863-1.937T12 4q1.575 0 3 .525T17.6 6l.75-.75q.275-.275.688-.288t.712.288q.275.275.288.688t-.263.712l-.725.75q.9 1.175 1.425 2.6T21 13q0 1.85-.7 3.488t-1.925 2.862t-2.863 1.938T12 22m.875-11h5.1q.275 0 .425-.213t.05-.462q-.425-1.15-1.375-2.137T15.025 6.7q-.175-.075-.363-.025t-.287.225l-1.95 3.35q-.15.25.013.5t.437.25m-2.2.25L13.25 6.8q.125-.225.025-.45t-.375-.275q-1.275-.15-2.55.137T8.025 7.225q-.15.125-.2.313t.05.362l1.95 3.35q.15.25.425.25t.425-.25M9.375 14q.275 0 .438-.25t.012-.5l-2.55-4.425q-.125-.225-.387-.237t-.438.187Q5.725 9.8 5.325 11.038T5.05 13.55q.025.2.163.325T5.55 14zm2.2 1.75q.15-.25-.012-.5t-.438-.25h-5.1q-.275 0-.425.213t-.05.462q.425 1.15 1.375 2.138t2.05 1.487q.175.075.363.025t.287-.225zm2.6-1q-.15-.25-.425-.25t-.425.25l-2.575 4.425q-.125.225-.025.463t.375.287q1.225.225 2.55-.1t2.325-1.05q.15-.125.2-.312t-.05-.363zm0-2l2.55 4.425q.125.225.387.238t.438-.188q.775-.95 1.163-2.25t.237-2.525q-.025-.2-.162-.325T18.45 12h-3.825q-.275 0-.437.25t-.013.5"/></svg>