<svg xmlns="http://www.w3.org/2000/svg" viewBox="0 0 24 24" width="24" height="24"><path fill="currentColor" d="M7.575 3.825q-.35-.25-.4-.65t.2-.75t.65-.412t.75.187l4.8 3.6q.35.25.4.65t-.2.75t-.65.4t-.75-.2zm3.4-1.225q-.35-.25-.412-.65t.187-.75t.65-.4t.75.2l4.9 3.65l.225-1.725q.075-.6.475-1.025t.975-.525l.15-.025q.375-.05.675.15t.425.55l2.1 7.075q.2.675.075 1.375t-.55 1.275l-1.025 1.375q-.3.4-.7.4t-.7-.225t-.387-.6t.187-.775L20 10.575q.15-.2.175-.425t-.025-.45l-1.2-4.075l-.15.975q-.075.575-.6.8t-.975-.125zM2 17q-.425 0-.712-.288T1 16t.288-.712T2 15h6q.425 0 .713.288T9 16t-.288.713T8 17zm1 3q-.425 0-.712-.288T2 19t.288-.712T3 18h5q.425 0 .713.288T9 19t-.288.713T8 20zm2 3q-.425 0-.712-.288T4 22t.288-.712T5 21h10q.425 0 .713-.288T16 20v-5q0-.25-.1-.45t-.3-.35l-3.4-2.55l.475.875q.275.5-.012.988T11.8 14H4q-.425 0-.712-.288T3 13t.288-.712T4 12h6.1l-.85-1.5q-.3-.525-.237-1.112T9.5 8.375l.1-.1q.275-.275.638-.288t.662.213l5.9 4.4q.575.425.888 1.05T18 15v5q0 1.25-.875 2.125T15 23zM6.2 9.025q.25-.35.638-.4t.737.2t.413.637t-.188.738t-.65.413t-.75-.188t-.4-.65t.2-.75m.375-2.2q-.35-.25-.4-.65t.2-.75t.65-.4t.75.2l.8.625q.375.3.388.675T8.75 7.2t-.6.4t-.75-.175z"/></svg>