<svg xmlns="http://www.w3.org/2000/svg" viewBox="0 0 24 24" width="24" height="24"><path fill="currentColor" d="M19 18.425L17.6 19.8q-.275.275-.687.288T16.2 19.8q-.275-.275-.275-.7t.275-.7l1.4-1.4l-1.4-1.4q-.275-.275-.275-.7t.275-.7t.7-.275t.7.275l1.4 1.4l1.4-1.4q.275-.275.687-.275t.713.275q.3.3.3.713t-.3.712L20.425 17l1.375 1.4q.275.275.288.688t-.288.712q-.275.275-.7.275t-.7-.275zM12 4q2.825 0 5.475.888t4.85 2.612q.375.275.563.688t.187.837t-.162.825t-.488.725l-1.15 1.15q-.3.275-.712.288t-.713-.288t-.3-.712t.3-.713l1.25-1.25q-1.975-1.5-4.3-2.275T12 6t-4.8.775T2.9 9.05l9.1 9.1l.275-.275q.3-.3.713-.3t.712.3t.3.713t-.3.712l-.275.275q-.3.3-.675.45t-.75.15t-.75-.15t-.675-.45l-9-9q-.325-.325-.475-.712T.95 9.05t.175-.837t.55-.713q2.2-1.725 4.85-2.613T12 4m0 8.075"/></svg>