<svg xmlns="http://www.w3.org/2000/svg" viewBox="0 0 24 24" width="24" height="24"><path fill="currentColor" d="M18.625 14.375q-.3.3-.7.288t-.7-.313t-.3-.712t.3-.713L21.1 9.05q-1.975-1.5-4.3-2.275T12 6q-.725 0-1.45.075t-1.45.2q-.425.075-.75-.15t-.4-.65q-.075-.4.15-.737t.65-.413q.8-.15 1.613-.238T12 4q3.125 0 5.988 1.088T23.2 8.3q.175.125.25.325t.075.4t-.062.388t-.213.337zM12 18.15l1.675-1.65l-8.75-8.75q-.525.275-1.025.613t-1 .687zm7.775 4.425L15.1 17.9l-2.4 2.4q-.15.15-.325.225T12 20.6t-.375-.075t-.325-.225L.75 9.75Q.6 9.6.525 9.413T.45 9.025t.075-.4t.25-.35Q1.425 7.7 2.1 7.2t1.375-.9l-2.1-2.1q-.3-.3-.288-.7t.313-.7t.713-.3t.712.3L21.2 21.175q.3.3.3.7t-.3.7t-.712.3t-.713-.3M9.3 12.125"/></svg>