<svg xmlns="http://www.w3.org/2000/svg" viewBox="0 0 24 24" width="24" height="24"><path fill="currentColor" d="M8 19q.425 0 .713-.288T9 18t-.288-.712T8 17t-.712.288T7 18t.288.713T8 19m0-4q.425 0 .713-.288T9 14v-2q0-.425-.288-.712T8 11t-.712.288T7 12v2q0 .425.288.713T8 15m4 4q.425 0 .713-.288T13 18v-2q0-.425-.288-.712T12 15t-.712.288T11 16v2q0 .425.288.713T12 19m0-6q.425 0 .713-.288T13 12t-.288-.712T12 11t-.712.288T11 12t.288.713T12 13m4 6q.425 0 .713-.288T17 18t-.288-.712T16 17t-.712.288T15 18t.288.713T16 19m0-4q.425 0 .713-.288T17 14v-2q0-.425-.288-.712T16 11t-.712.288T15 12v2q0 .425.288.713T16 15M6 22q-.825 0-1.412-.587T4 20V8.825q0-.4.15-.762t.425-.638l4.85-4.85q.275-.275.638-.425t.762-.15H18q.825 0 1.413.588T20 4v16q0 .825-.587 1.413T18 22zm0-2h12V4h-7.15L6 8.85zm0 0h12z"/></svg>