<svg xmlns="http://www.w3.org/2000/svg" viewBox="0 0 24 24" width="24" height="24"><path fill="currentColor" d="M12 15q.425 0 .713-.288T13 14v-4q0-.425-.288-.712T12 9t-.712.288T11 10v4q0 .425.288.713T12 15m2.75 0q.325 0 .538-.213t.212-.537V13H18q.425 0 .713-.288T19 12v-2q0-.425-.288-.712T18 9h-3.5q-.2 0-.35.15T14 9.5v4.75q0 .325.213.538t.537.212m-9 0H9q.425 0 .713-.288T10 14v-1.75q0-.425-.288-.712T9 11.25H6.5v-.75h2.75q.325 0 .538-.213T10 9.75t-.213-.537T9.25 9H6q-.425 0-.712.288T5 10v1.75q0 .425.288.713T6 12.75h2.5v.75H5.75q-.325 0-.537.213T5 14.25t.213.538t.537.212m9.75-3.5v-1h2v1zM4 20q-.825 0-1.412-.587T2 18V6q0-.825.588-1.412T4 4h16q.825 0 1.413.588T22 6v12q0 .825-.587 1.413T20 20zm0-2h16V6H4zm0 0V6z"/></svg>