<svg xmlns="http://www.w3.org/2000/svg" viewBox="0 0 24 24" width="24" height="24"><path fill="currentColor" d="M5 18q-.425 0-.712-.288T4 17v-.95q-1.35-.8-2.175-2.137T1 11q0-2.575 1.925-4.288T7.5 5t4.575 1.713T14 11q0 1.575-.825 2.913T11 16.05V17q0 .425-.288.713T10 18zm1-2h3v-.525q0-.275.138-.5t.362-.35l.475-.3q.9-.525 1.463-1.4T12 11q0-1.725-1.35-2.863T7.5 7T4.35 8.138T3 11q0 1.05.563 1.913t1.462 1.412l.475.3q.225.125.363.35t.137.5zm-.5-4q.425 0 .713-.288T6.5 11t-.288-.712T5.5 10t-.712.288T4.5 11t.288.713T5.5 12m1.4 2h1.2q.125 0 .2-.112t.025-.238l-.6-1.2q-.075-.125-.225-.125t-.225.125l-.6 1.2q-.05.125.025.237t.2.113m2.6-2q.425 0 .713-.288T10.5 11t-.288-.712T9.5 10t-.712.288T8.5 11t.288.713T9.5 12M21 13h-5q-.425 0-.712-.288T15 12t.288-.712T16 11h5q.425 0 .713.288T22 12t-.288.713T21 13m0 4h-5q-.425 0-.712-.288T15 16t.288-.712T16 15h5q.425 0 .713.288T22 16t-.288.713T21 17m0-8h-5q-.425 0-.712-.288T15 8t.288-.712T16 7h5q.425 0 .713.288T22 8t-.288.713T21 9M7.5 11.5"/></svg>