<svg xmlns="http://www.w3.org/2000/svg" viewBox="0 0 24 24" width="24" height="24"><path fill="currentColor" d="M21 9q-.425 0-.712-.288T19.9 8q-.125-.7-.45-1.3t-.8-1.1l-1.375 2.325q-.25.4-.537.875t-.613.825q-.35.375-.875.375t-.9-.35t-.375-.875t.375-.9q.35-.35.838-.625t.887-.525L18.4 5.35q-.525-.5-1.175-.825t-1.4-.45q-.375-.05-.6-.363T15 3q0-.425.275-.713t.65-.237q2.3.3 3.95 1.913T21.9 7.874q.075.425-.2.775T21 9m-8.925 13q-2.1 0-3.937-.8t-3.2-2.162t-2.163-3.2t-.8-3.938q0-3.1 1.713-5.625t4.587-3.7q.35-.125.725-.088t.625.238q.2.175.313.488t.112.812q.05 1.975.8 3.763T13 10.975t3.2 2.15t3.775.8q.525 0 .8.088t.45.287q.2.25.263.65t-.063.725q-1.15 2.875-3.7 4.6T12.075 22m0-2q2.2 0 4.075-1.1t2.95-3.025q-2.15-.2-4.075-1.087t-3.45-2.413t-2.425-3.45T8.075 4.85Q6.15 5.925 5.063 7.813T3.975 11.9q0 3.375 2.363 5.738T12.075 20m-.5-7.625"/></svg>