<svg xmlns="http://www.w3.org/2000/svg" viewBox="0 0 24 24" width="24" height="24"><path fill="currentColor" d="M2 21v-2q0-.825.588-1.412T4 17h16q.825 0 1.413.588T22 19v2q0 .425-.288.713T21 22H3q-.425 0-.712-.288T2 21m2-1h16v-1H4zm1-5.5V4q0-.825.588-1.412T7 2h10q.825 0 1.413.588T19 4v10.5q0 .425-.288.713T18 15.5t-.712-.288T17 14.5V4H7v10.5q0 .425-.288.713T6 15.5t-.712-.288T5 14.5m6-4.5q0-.75-.137-1.5t-.538-1.4q-.275-.45-.687-.762T8.7 6.025q-.3 0-.5.225T8 6.8v6.4q0 .325.213.55t.537.225q.5 0 .9-.312t.675-.763q.4-.65.538-1.4T11 10m3 2q.825 0 1.413-.587T16 10t-.587-1.412T14 8t-1.412.588T12 10t.588 1.413T14 12m-2-2.25"/></svg>