<svg xmlns="http://www.w3.org/2000/svg" viewBox="0 0 24 24" width="24" height="24"><path fill="currentColor" d="M12.125 13H16.2q.65 0 1.1-.45t.45-1.1t-.45-1.112t-1.1-.463h-.05q-.125-.8-.725-1.338T14 8q-.65 0-1.175.338t-.8.912q-.75.05-1.263.588t-.512 1.287t.538 1.313t1.337.562M3 21q-.825 0-1.412-.587T1 19V7q0-.425.288-.712T2 6t.713.288T3 7v12h16q.425 0 .713.288T20 20t-.288.713T19 21zm4-4q-.825 0-1.412-.587T5 15V4q0-.825.588-1.412T7 2h4.175q.4 0 .763.15t.637.425L14 4h7q.825 0 1.413.588T23 6v9q0 .825-.587 1.413T21 17zm0-2h14V6h-7.825l-2-2H7zm0 0V4z"/></svg>