<svg xmlns="http://www.w3.org/2000/svg" viewBox="0 0 24 24" width="24" height="24"><path fill="currentColor" d="M15.75 8q-.725 0-1.237-.513T14 6.25t.513-1.237T15.75 4.5t1.238.513t.512 1.237t-.513 1.238T15.75 8M21 8q-.825 0-1.412-.587T19 6t.588-1.412T21 4t1.413.588T23 6t-.587 1.413T21 8m-3.5-4q-.625 0-1.062-.437T16 2.5t.438-1.062T17.5 1t1.063.438T19 2.5t-.437 1.063T17.5 4M6 22q-1.65 0-2.825-1.175T2 18v-5.4q0-.775.363-1.437t1.012-1.088l7.65-4.975q.275-.175.575-.137t.525.262q.5.5.588 1.188T12.425 7.7L11.3 9.5H19q.425 0 .713.288T20 10.5t-.288.713T19 11.5H9.5q-.575 0-.875-.513t.025-1.012L9.625 8.4L4.45 11.75q-.225.125-.338.35T4 12.6V18q0 .825.587 1.413T6 20h12q.425 0 .713.288T19 21t-.288.713T18 22zm15-7h-8q-.425 0-.712-.288T12 14t.288-.712T13 13h8q.425 0 .713.288T22 14t-.288.713T21 15m-1 3.5h-7q-.425 0-.712-.288T12 17.5t.288-.712T13 16.5h7q.425 0 .713.288T21 17.5t-.288.713T20 18.5M8 15.75"/></svg>