<svg xmlns="http://www.w3.org/2000/svg" viewBox="0 0 24 24" width="24" height="24"><path fill="currentColor" d="M12 20q1.875 0 3.188-1.312T16.5 15.5t-1.312-3.187T12 11t-3.187 1.313T7.5 15.5t1.313 3.188T12 20M9.075 9.7q.5-.275 1.063-.437t1.137-.213L8.75 4h-2.5zM6.4 18.8q-.425-.725-.663-1.562T5.5 15.5t.238-1.737T6.4 12.2q-1.05.35-1.725 1.238T4 15.5t.675 2.063T6.4 18.8m11.2 0q1.05-.35 1.725-1.237T20 15.5t-.675-2.062T17.6 12.2q.425.725.663 1.563T18.5 15.5t-.238 1.738T17.6 18.8M12 22q-1 0-1.912-.288T8.4 20.926q-.225.05-.45.063T7.475 21Q5.2 21 3.6 19.4T2 15.525Q2 13.35 3.45 11.8t3.575-1.725l-3.3-6.625q-.25-.5.038-.975T4.625 2h4.15q.575 0 1.038.3t.737.8L12 6l1.45-2.9q.275-.5.738-.8t1.037-.3h4.15q.575 0 .863.475t.037.975L17 10.025q2.125.2 3.563 1.75T22 15.5q0 2.3-1.6 3.9T16.5 21q-.225 0-.462-.012t-.463-.063q-.775.5-1.675.788T12 22M9.075 9.7L6.25 4zM12 16.85l-1.225.925q-.15.125-.3.013t-.1-.288l.475-1.525l-1.225-.875q-.15-.125-.1-.288t.25-.162h1.5l.475-1.625q.05-.175.25-.175t.25.175l.475 1.625h1.5q.2 0 .25.163t-.1.287l-1.225.875l.475 1.525q.05.175-.1.288t-.3-.013zm2.925-7.15l2.85-5.7H15.25l-2.125 4.25l.475.95q.35.1.675.213t.65.287"/></svg>