<svg xmlns="http://www.w3.org/2000/svg" viewBox="0 0 24 24" width="24" height="24"><path fill="currentColor" d="M4 4q-.425 0-.712-.288T3 3t.288-.712T4 2h1q.425 0 .713.288T6 3t-.288.713T5 4zm.85 14l-.4 2H11v-2zm.575-10.8l.7-.7q.275-.275.688-.275t.712.275q.3.3.3.712t-.3.713l-.7.7q-.275.275-.687.275t-.713-.275q-.3-.3-.3-.712t.3-.713M5.25 16H11v-2H5.65zM12 7q-1.75 0-3.088-1.075t-1.762-2.7q-.1-.4.113-.75t.612-.45t.763.113t.462.612q.25.975 1.05 1.613T12 5t1.85-.638T14.9 2.75q.1-.4.463-.612t.762-.113t.613.45t.112.75q-.425 1.625-1.763 2.7T12 7m-1 3V9q0-.425.288-.712T12 8t.713.288T13 9v1q0 .425-.288.713T12 11t-.712-.288T11 10m2 10h6.55l-.4-2H13zm0-4h5.75l-.4-2H13zm4.175-7.4l-.7-.7q-.275-.275-.288-.688t.288-.712q.275-.275.7-.275t.7.275l.725.7q.3.275.3.688t-.3.712t-.712.3t-.713-.3M20 4h-1q-.425 0-.712-.288T18 3t.288-.712T19 2h1q.425 0 .713.288T21 3t-.288.713T20 4M2.475 19.6l1.2-6q.125-.7.688-1.15T5.65 12h12.7q.725 0 1.288.45t.687 1.15l1.2 6q.2.95-.412 1.675T19.55 22H4.45q-.95 0-1.563-.725T2.475 19.6"/></svg>