<svg xmlns="http://www.w3.org/2000/svg" viewBox="0 0 24 24" width="24" height="24"><path fill="currentColor" d="M18 23q-1.45 0-2.625-.737t-1.8-1.938q-.15-.275-.037-.575t.387-.425t.563-.037t.437.362q.425.825 1.238 1.338T18 21.5q1.45 0 2.475-1.025T21.5 18t-1.025-2.475T18 14.5q-.725 0-1.35.263t-1.1.737h.7q.325 0 .538.213t.212.537t-.213.538t-.537.212H14q-.425 0-.712-.288T13 16v-2.25q0-.325.213-.537T13.75 13t.538.213t.212.537v.675q.675-.65 1.575-1.037T18 13q2.075 0 3.538 1.463T23 18t-1.463 3.538T18 23M5 19V5zM8 9h8q.425 0 .713-.288T17 8t-.288-.712T16 7H8q-.425 0-.712.288T7 8t.288.713T8 9m0 4h3.25q.425 0 .713-.288T12.25 12t-.288-.712T11.25 11H8q-.425 0-.712.288T7 12t.288.713T8 13m0 4h1.75q.425 0 .713-.288T10.75 16t-.288-.712T9.75 15H8q-.425 0-.712.288T7 16t.288.713T8 17m-3 4q-.825 0-1.412-.587T3 19V5q0-.825.588-1.412T5 3h14q.825 0 1.413.588T21 5v4q0 .425-.288.713T20 10t-.712-.288T19 9V5H5v14h4q.425 0 .713.288T10 20t-.288.713T9 21z"/></svg>