<svg xmlns="http://www.w3.org/2000/svg" viewBox="0 0 24 24" width="24" height="24"><path fill="currentColor" d="M16.625 7.375q-1.1-1.1-1.763-2.475T14.026 2q-.05-.425.238-.712T14.975 1t.725.288t.35.712q.15 1.125.663 2.15t1.312 1.825t1.825 1.313t2.15.687q.425.05.713.338t.287.712t-.288.713t-.712.237q-1.525-.175-2.9-.837t-2.475-1.763m2.8-2.8q-.55-.55-.9-1.213T18.05 1.95q-.075-.375.2-.662t.7-.288q.4 0 .7.263t.425.662q.125.35.3.663t.45.587t.575.438t.65.287q.4.125.675.425T23 5.05t-.3.7t-.7.2q-.725-.15-1.375-.5t-1.2-.875M10 13q-1.65 0-2.825-1.175T6 9t1.175-2.825T10 5t2.825 1.175T14 9t-1.175 2.825T10 13m-8 6v-.8q0-.825.425-1.55t1.175-1.1q1.275-.65 2.875-1.1T10 14t3.525.45t2.875 1.1q.75.375 1.175 1.1T18 18.2v.8q0 .825-.587 1.413T16 21H4q-.825 0-1.412-.587T2 19m2 0h12v-.8q0-.275-.137-.5t-.363-.35q-.9-.45-2.312-.9T10 16t-3.187.45t-2.313.9q-.225.125-.363.35T4 18.2zm6-8q.825 0 1.413-.587T12 9t-.587-1.412T10 7t-1.412.588T8 9t.588 1.413T10 11m0 8"/></svg>