<svg xmlns="http://www.w3.org/2000/svg" viewBox="0 0 24 24" width="24" height="24"><path fill="currentColor" d="M11 19q-2.5 0-4.25-1.75T5 13q0-.275.025-.55t.075-.55q-.125.05-.3.075T4.5 12q-1.05 0-1.775-.725T2 9.5t.688-1.775T4.425 7q.825 0 1.488.462T6.85 8.65q.825-.75 1.888-1.2T11 7h10q.425 0 .713.288T22 8v2q0 .425-.288.713T21 11h-4v2q0 2.5-1.75 4.25T11 19m-6.5-8.5q.425 0 .713-.288T5.5 9.5t-.288-.712T4.5 8.5t-.712.288T3.5 9.5t.288.713t.712.287m6.5 6q1.45 0 2.475-1.025T14.5 13t-1.025-2.475T11 9.5t-2.475 1.025T7.5 13t1.025 2.475T11 16.5m0-1.5q.825 0 1.413-.587T13 13t-.587-1.412T11 11t-1.412.588T9 13t.588 1.413T11 15m0-2"/></svg>