<svg xmlns="http://www.w3.org/2000/svg" viewBox="0 0 24 24" width="24" height="24"><path fill="currentColor" d="m6.35 14.725l1.95-7q.1-.325.35-.525t.6-.2H10V5.9q0-.2.038-.387t.112-.388l1.225-2.85q.05-.125.175-.2T11.8 2h.4q.125 0 .25.075t.175.2l1.225 2.85q.075.2.113.388T14 5.9V7h.75q.35 0 .6.2t.35.525l1.95 7q.125.475-.175.875t-.8.4h-9.35q-.5 0-.8-.4t-.175-.875M8.625 14h6.75l-1.4-5h-3.95zm0 0h6.75zm-3.25 7q-.5 0-.812-.413t-.138-.912l.125-.3q.2-.625.725-1T6.45 18h11.1q.65 0 1.175.375t.725 1l.125.3q.175.5-.137.913t-.813.412z"/></svg>