<svg xmlns="http://www.w3.org/2000/svg" viewBox="0 0 24 24" width="24" height="24"><path fill="currentColor" d="M12.475 16.825L20.85 8.45l-1.3-1.3l-8.375 8.375zM3 15.275Q3 16 3.5 16.4t1.65.525q.4.05.638.362T6 18q-.025.425-.3.7t-.675.225Q3 18.675 2 17.763t-1-2.488q0-1.625 1.338-2.637t3.712-1.213q.975-.075 1.463-.312T8 10.45q0-.55-.525-.862T5.75 9.1q-.4-.05-.638-.375T4.926 8q.05-.425.35-.687t.7-.213q2.075.3 3.05 1.113T10 10.45q0 1.325-.962 2.075t-2.838.9q-1.6.125-2.4.588T3 15.275m9.95 3.9L8.825 15.05l9.55-9.55q.5-.5 1.188-.5t1.187.5l1.75 1.75q.5.5.5 1.188t-.5 1.187zM8.975 20q-.425.1-.75-.225T8 19.025l.825-3.975l4.125 4.125z"/></svg>