<svg xmlns="http://www.w3.org/2000/svg" viewBox="0 0 24 24" width="24" height="24"><path fill="currentColor" d="M5.5 16q.625 0 1.063-.437T7 14.5t-.437-1.062T5.5 13t-1.062.438T4 14.5t.438 1.063T5.5 16m-1 3q-1.45 0-2.475-1.025T1 15.5V6q0-2.075 1.925-3.037T9 2q1 0 1.925.038t1.75.162q.45.05.713.413t.262.812q0 .4-.312.638t-.713.162Q11.9 4.1 11.013 4.05T9 4q-2.15 0-3.562.25T3.425 5H7.8q.8 0 .975.8T8.2 6.925q-.1.05-.2.063T7.8 7H3v3h4q.425 0 .713.288T8 11t-.288.713T7 12H3v3.5q0 .625.438 1.063T4.5 17h5.525l-.85 4H3.15q-.375 0-.475-.363t.2-.562zm10.4-5l-1.625 7.2q-.075.35-.35.575t-.65.225q-.5 0-.8-.375t-.2-.875L13.8 8.9l-1.8.7V11q0 .425-.288.712T11 12t-.712-.288T10 11V8.95q0-.3.163-.537t.437-.363l4.45-1.9q.725-.3 1.475-.062T17.7 7l1 1.6q.5.85.975 1.463t1.35.837q.425.1.7.388T22 12t-.287.7t-.688.225q-1.2-.2-1.975-.875T17.5 10.5l-.6 2l1.475 1.4q.3.275.463.65t.162.8V21q0 .425-.288.713T18 22t-.712-.288T17 21v-5zm2.6-8.5q-.825 0-1.412-.587T15.5 3.5t.588-1.412T17.5 1.5t1.413.588T19.5 3.5t-.587 1.413T17.5 5.5"/></svg>