<svg xmlns="http://www.w3.org/2000/svg" viewBox="0 0 24 24" width="24" height="24"><path fill="currentColor" d="M2 20V8.85q0-2.125 1.1-3.687T6.2 2.8q1.35-.525 2.875-.662T12 2t2.925.138T17.8 2.8q2 .8 3.1 2.363T22 8.85V20q0 .825-.587 1.413T20 22H4q-.825 0-1.412-.587T2 20m5.5-7V9h9v4zm8 3.5q-.425 0-.712-.288T14.5 15.5t.288-.712t.712-.288t.713.288t.287.712t-.288.713t-.712.287m-7 0q-.425 0-.712-.288T7.5 15.5t.288-.712t.712-.288t.713.288t.287.712t-.288.713t-.712.287M4 20h16V8.85q0-1.5-.737-2.562T17.05 4.65q-1.1-.425-2.437-.537T12 4t-2.613.113t-2.437.537q-1.475.575-2.212 1.638T4 8.85zm6.6-1.5h2.75l1.275 1.275q.125.125.263.175t.287.05q.5 0 .688-.475T15.7 18.7l-.25-.25q1.1-.15 1.825-.987T18 15.5V9q0-1.95-1.75-2.475T12 6q-2.275 0-4.137.525T6 9v6.5q0 1.125.725 1.963t1.825.987l-.275.275q-.35.35-.162.812T8.8 20q.15 0 .275-.05t.25-.175zM4 20V8.85q0-1.5.738-2.562T6.95 4.65q1.1-.425 2.438-.537T12 4t2.613.113t2.437.537q1.475.575 2.213 1.638T20 8.85V20z"/></svg>