<svg xmlns="http://www.w3.org/2000/svg" viewBox="0 0 24 24" width="24" height="24"><path fill="currentColor" d="M4 13.75H2q-.425 0-.712-.288T1 12.75t.288-.712T2 11.75h2q.425 0 .713.288T5 12.75t-.288.713T4 13.75M7.05 7.8q-.275.275-.7.275t-.7-.275L4.225 6.375q-.3-.3-.3-.7t.3-.7q.3-.275.7-.288t.7.288L7.05 6.4q.275.275.288.687T7.05 7.8M6 19q-.525 0-.887-.363t-.363-.887t.363-.888T6 16.5t.888.363t.362.887t-.363.888T6 19m6-9.25q-1.25 0-2.125.875T9 12.75q0 .425-.288.713T8 13.75t-.712-.288T7 12.75q0-2.075 1.463-3.537T12 7.75t3.538 1.463T17 12.75q0 .425-.288.713T16 13.75t-.712-.288T15 12.75q0-1.25-.875-2.125T12 9.75M9 23q-.525 0-.888-.363t-.362-.887t.363-.888T9 20.5t.888.363t.362.887t-.363.888T9 23m3-4q-.525 0-.888-.363t-.362-.887t.363-.888T12 16.5t.888.363t.362.887t-.363.888T12 19m0-13.25q-.425 0-.712-.288T11 4.75v-2q0-.425.288-.712T12 1.75t.713.288t.287.712v2q0 .425-.288.713T12 5.75M15 23q-.525 0-.888-.363t-.362-.887t.363-.888T15 20.5t.888.363t.362.887t-.363.888T15 23m1.95-15.2q-.3-.3-.3-.7t.3-.7l1.425-1.425q.275-.275.688-.288t.712.288q.275.275.275.7t-.275.7L18.35 7.8q-.275.275-.687.275T16.95 7.8M18 19q-.525 0-.888-.363t-.362-.887t.363-.888T18 16.5t.888.363t.362.887t-.363.888T18 19m2-5.25q-.425 0-.712-.288T19 12.75t.288-.712t.712-.288h2q.425 0 .713.288t.287.712t-.288.713t-.712.287zm-8 0"/></svg>