<svg xmlns="http://www.w3.org/2000/svg" viewBox="0 0 24 24" width="24" height="24"><path fill="currentColor" d="M12 22q-.825 0-1.412-.587T10 20v-1q0-.425.288-.712T11 18t.713.288T12 19v1h8V4h-8v1q0 .425-.288.713T11 6t-.712-.288T10 5V4q0-.825.588-1.412T12 2h8q.825 0 1.413.588T22 4v3.125q.425.125.713.525T23 8.5v2q0 .45-.288.85t-.712.525V20q0 .825-.587 1.413T20 22zm-9-3q-.425 0-.712-.288T2 18v-2q0-.425.288-.712T3 15h2q.425 0 .713.288T6 16v2q0 .425-.288.713T5 19zm7.175-6H3q-.425 0-.712-.288T2 12t.288-.712T3 11h7.175l-.875-.875q-.275-.3-.288-.712T9.3 8.7t.7-.3t.7.3l2.6 2.6q.3.3.3.7t-.3.7l-2.6 2.6q-.3.3-.7.3t-.7-.3t-.287-.712t.287-.713zM3 9q-.425 0-.712-.288T2 8V6q0-.425.288-.712T3 5h2q.425 0 .713.288T6 6v2q0 .425-.288.713T5 9z"/></svg>