<svg xmlns="http://www.w3.org/2000/svg" viewBox="0 0 24 24" width="24" height="24"><path fill="currentColor" d="M1.3 11.5q0-.35.075-.687t.25-.663Q3.2 7.325 5.963 5.663T12 4q3.375 0 6.213 1.75t4.337 4.75q.2.375.063.775t-.513.6t-.763.063t-.587-.513q-.625-1.25-1.55-2.25t-2.062-1.7T14.7 6.388T12 6Q9.175 6 6.813 7.488T3.2 11.5q1.25 2.5 3.65 4.025T12.075 17q.425 0 .713.275t.287.675q0 .425-.287.738t-.713.312q-3.3-.025-6.075-1.638T1.625 12.85q-.175-.325-.25-.662T1.3 11.5M12 16q-1.875 0-3.187-1.312T7.5 11.5t1.313-3.187T12 7t3.188 1.313T16.5 11.5q0 .175-.012.338t-.038.337L14.9 13.6q-.475.475-.85 1.013t-.625 1.137q-.35.125-.7.188T12 16m0-1.8q1.125 0 1.913-.788T14.7 11.5t-.787-1.912T12 8.8t-1.912.788T9.3 11.5t.788 1.913T12 14.2m7 7.8q-1.675 0-2.838-1.175t-1.187-2.85q0-.825.35-1.575t.95-1.325l1.35-1.275q.575-.55 1.375-.55t1.375.55l1.325 1.275q.6.575.938 1.313T23 17.95q0 1.7-1.175 2.875T19 22m0-2q.825 0 1.413-.6t.562-1.45q0-.425-.187-.8t-.488-.65L19 15.25l-1.325 1.25q-.3.275-.5.663t-.175.812q0 .85.575 1.438T19 20m0-2.375"/></svg>