<svg xmlns="http://www.w3.org/2000/svg" viewBox="0 0 24 24" width="24" height="24"><path fill="currentColor" d="M15 17h5v-2h-5zm-.5 2q-.625 0-1.062-.437T13 17.5v-3q0-.625.438-1.062T14.5 13h6q.625 0 1.063.438T22 14.5v3q0 .625-.437 1.063T20.5 19zM13 22q-.425 0-.712-.288T12 21t.288-.712T13 20h9q.425 0 .713.288T23 21t-.288.713T22 22zm2-5v-2zm-9-5q0 1.35.538 2.488T8 16.45V15q0-.425.288-.712T9 14t.713.288T10 15v4q0 .425-.288.713T9 20H5q-.425 0-.712-.288T4 19t.288-.712T5 18h1.725q-1.275-1.1-2-2.65T4 12q0-2.375 1.237-4.275t3.213-2.9q.35-.2.725-.012t.5.587t-.038.775t-.512.575q-1.4.775-2.262 2.163T6 12m10-4.45V9q0 .425-.288.713T15 10t-.712-.288T14 9V5q0-.425.288-.712T15 4h4q.425 0 .713.288T20 5t-.288.713T19 6h-1.725q.825.725 1.438 1.663T19.65 9.7q.125.4-.1.725t-.65.4t-.762-.162t-.488-.638q-.25-.725-.675-1.35T16 7.55"/></svg>