<svg xmlns="http://www.w3.org/2000/svg" viewBox="0 0 24 24" width="24" height="24"><path fill="currentColor" d="M3.9 11.175q-.275-.3-.275-.712T3.9 9.75l2.8-2.8l-1.075-1.075l-.3.3q-.3.3-.712.3t-.713-.3q-.275-.275-.275-.7t.275-.7l2-2q.3-.3.713-.3t.712.3q.275.275.275.7t-.275.7l-.3.3L8.1 5.55l2.8-2.8q.3-.3.713-.3t.712.3t.3.713t-.3.712l-.675.65l7.375 7.375q.575.575.575 1.413t-.575 1.412l-.7.725L22.2 19.6q.25.25.125.55t-.475.3h-1.025q-.3 0-.587-.125T19.75 20l-2.85-2.85l-.7.725q-.575.575-1.412.575t-1.413-.575L6 10.5l-.675.675q-.3.275-.712.275t-.713-.275M7.4 9.1l7.375 7.375l2.825-2.85l-1.5-1.525l-1.4 1.4q-.3.275-.712.288t-.688-.263q-.3-.3-.3-.712t.3-.713l1.4-1.4l-1.5-1.5l-1.4 1.4q-.3.275-.712.275t-.713-.275q-.275-.3-.275-.712t.275-.713l1.4-1.4L10.25 6.25zm0 0l2.85-2.85z"/></svg>