<svg xmlns="http://www.w3.org/2000/svg" viewBox="0 0 24 24" width="24" height="24"><path fill="currentColor" d="M18 23q2.075 0 3.538-1.463T23 18t-1.463-3.537T18 13t-3.537 1.463T13 18t1.463 3.538T18 23m.5-5.2l1.5 1.5q.15.15.15.35T20 20t-.35.15t-.35-.15l-1.5-1.5q-.15-.15-.225-.337t-.075-.388V15.5q0-.2.15-.35T18 15t.35.15t.15.35zM4 20q-.825 0-1.412-.587T2 18V6q0-.825.588-1.412T4 4h16q.825 0 1.413.588T22 6v5q0 .425-.288.713T21 12t-.712-.275t-.288-.7V10h-6q-.425 0-.712-.288T13 9V6H4v12h6q.425 0 .713.288T11 19t-.288.713T10 20zm0-2V6z"/></svg>