<svg xmlns="http://www.w3.org/2000/svg" viewBox="0 0 24 24" width="24" height="24"><path fill="currentColor" d="M8 18q-.825 0-1.412-.587T6 16V4q0-.825.588-1.412T8 2h12q.825 0 1.413.588T22 4v12q0 .825-.587 1.413T20 18zm0-2h12V8h-6q-.425 0-.712-.288T13 7V4H8zM8 4v12zM3 6q-.425 0-.712-.288T2 5t.288-.712T3 4t.713.288T4 5t-.288.713T3 6m4 16q-.425 0-.712-.288T6 21t.288-.712T7 20t.713.288T8 21t-.288.713T7 22m4 0q-.425 0-.712-.288T10 21t.288-.712T11 20t.713.288T12 21t-.288.713T11 22m4 0q-.425 0-.712-.288T14 21t.288-.712T15 20t.713.288T16 21t-.288.713T15 22M3 10q-.425 0-.712-.288T2 9t.288-.712T3 8t.713.288T4 9t-.288.713T3 10m0 4q-.425 0-.712-.288T2 13t.288-.712T3 12t.713.288T4 13t-.288.713T3 14m0 4q-.425 0-.712-.288T2 17t.288-.712T3 16t.713.288T4 17t-.288.713T3 18m0 4q-.425 0-.712-.288T2 21t.288-.712T3 20t.713.288T4 21t-.288.713T3 22m16 0q-.425 0-.712-.288T18 21t.288-.712T19 20t.713.288T20 21t-.288.713T19 22"/></svg>