<svg xmlns="http://www.w3.org/2000/svg" viewBox="0 0 24 24" width="24" height="24"><path fill="currentColor" d="M7 23q-.425 0-.712-.288T6 22v-8H4q-1.05 0-1.775-.725T1.5 11.5t.725-1.775T4 9h2V8H4q-1.05 0-1.775-.725T1.5 5.5t.725-1.775T4 3h2V2q0-.425.288-.712T7 1t.713.288T8 2v1h2q1.05 0 1.775.725T12.5 5.5t-.725 1.775T10 8H8v1h2q1.05 0 1.775.725T12.5 11.5t-.725 1.775T10 14H8v8q0 .425-.288.713T7 23M4 12h6q.2 0 .35-.15t.15-.35t-.15-.35T10 11H4q-.2 0-.35.15t-.15.35t.15.35T4 12m0-6h6q.2 0 .35-.15t.15-.35t-.15-.35T10 5H4q-.2 0-.35.15t-.15.35t.15.35T4 6m13 15v-7.15q-1.325-.35-2.162-1.412T14 10V2q0-.425.288-.712T15 1h6q.425 0 .713.288T22 2v8q0 1.375-.837 2.438T19 13.85V21h1q.425 0 .713.288T21 22t-.288.713T20 23h-4q-.425 0-.712-.288T15 22t.288-.712T16 21zm1-9q.825 0 1.413-.587T20 10V8h-4v2q0 .825.588 1.413T18 12m-2-6h4V3h-4zM3.5 12v-1zm0-6V5zM18 8"/></svg>