<svg xmlns="http://www.w3.org/2000/svg" viewBox="0 0 24 24" width="24" height="24"><path fill="currentColor" d="M10 22v-1H5q-.825 0-1.412-.587T3 19V5q0-.825.588-1.412T5 3h5V2q0-.425.288-.712T11 1t.713.288T12 2v20q0 .425-.288.713T11 23t-.712-.288T10 22m-5-3h5v-2H8q-.425 0-.712-.288T7 16t.288-.712T8 15h2v-2H8q-.425 0-.712-.288T7 12t.288-.712T8 11h2V9H8q-.425 0-.712-.288T7 8t.288-.712T8 7h2V5H5zm10 2q-.425 0-.712-.288T14 20t.288-.712T15 19h4V5h-4q-.425 0-.712-.288T14 4t.288-.712T15 3h4q.825 0 1.413.588T21 5v14q0 .825-.587 1.413T19 21zm0-8q-.425 0-.712-.288T14 12t.288-.712T15 11h1q.425 0 .713.288T17 12t-.288.713T16 13zm0-4q-.425 0-.712-.288T14 8t.288-.712T15 7h1q.425 0 .713.288T17 8t-.288.713T16 9zm-5 3"/></svg>