<svg xmlns="http://www.w3.org/2000/svg" viewBox="0 0 24 24" width="24" height="24"><path fill="currentColor" d="M17 7h4q.825 0 1.413.588T23 9v.575q0 .2-.038.4t-.112.4l-2.6 6q-.125.275-.363.45T19.35 17q-.55 0-.838-.45t-.087-.95L21 9.575V9h-5.15q-.475 0-.762-.35t-.238-.8l.325-2.2l-.337.338l-.338.337q-.3.3-.7.3t-.7-.3t-.3-.712t.3-.713l2.2-2.2q.3-.3.7-.3t.7.3l.1.1q.35.35.488.787t.062.913zM2 21q-.425 0-.712-.288T1 20v-8q0-.425.288-.712T2 11h4v2H3v6h3v2zm10.675 0H4v-9l5.3-5.3q.3-.3.7-.3t.7.3l.1.1q.35.35.487.787t.063.913L11 11h4q.825 0 1.413.588T17 13v.6q0 .2-.038.388t-.112.387L14.525 19.8q-.25.55-.75.875t-1.1.325m0-2L15 13.6V13H9.85q-.45 0-.75-.35t-.25-.8l.325-2.2L6 12.825V19zM6 19v-7.15z"/></svg>