<svg xmlns="http://www.w3.org/2000/svg" viewBox="0 0 24 24" width="24" height="24"><path fill="currentColor" d="M8.175 23q-.25 0-.387-.2t-.063-.425L8.4 20.5H6.85q-.125 0-.2-.1t-.025-.225l.95-2.675q.075-.225.263-.363T8.275 17H9.5q.275 0 .425.225t.025.475l-.775 1.8h1.55q.15 0 .225.138t-.025.262L8.65 22.825q-.075.1-.175.138t-.3.037m6.75-1q-.25 0-.388-.2t-.062-.425L14.95 20h-1.6q-.125 0-.2-.1t-.025-.225L13.9 17.5q.075-.225.263-.363T14.6 17h1.2q.275 0 .438.225t.037.475L15.7 19h1.525q.15 0 .213.138t-.038.262l-2 2.425q-.025.025-.475.175M7.5 16q-2.275 0-3.887-1.612T2 10.5q0-2.075 1.375-3.625t3.4-1.825q.8-1.425 2.188-2.238T12 2q2.25 0 3.913 1.438t2.012 3.587q1.725.15 2.9 1.425T22 11.5q0 1.875-1.312 3.188T17.5 16zm0-2h10q1.05 0 1.775-.725T20 11.5t-.725-1.775T17.5 9H16V8q0-1.65-1.175-2.825T12 4q-1.2 0-2.187.65T8.325 6.4l-.25.6H7.45q-1.425.05-2.437 1.063T4 10.5q0 1.45 1.025 2.475T7.5 14M12 9"/></svg>