<svg xmlns="http://www.w3.org/2000/svg" viewBox="0 0 24 24" width="24" height="24"><path fill="currentColor" d="M3 18v-4q0-.425.288-.712T4 13h6q.425 0 .713.288T11 14v4q0 .425-.288.713T10 19H4q-.425 0-.712-.288T3 18m10 0v-4q0-.425.288-.712T14 13h6q.425 0 .713.288T21 14v4q0 .425-.288.713T20 19h-6q-.425 0-.712-.288T13 18M3 10V6q0-.425.288-.712T4 5h6q.425 0 .713.288T11 6v4q0 .425-.288.713T10 11H4q-.425 0-.712-.288T3 10m10 0V6q0-.425.288-.712T14 5h6q.425 0 .713.288T21 6v4q0 .425-.288.713T20 11h-6q-.425 0-.712-.288T13 10m-8 7h4v-2H5zm10 0h4v-2h-4zM5 9h4V7H5zm2-1"/></svg>