<svg xmlns="http://www.w3.org/2000/svg" viewBox="0 0 24 24" width="24" height="24"><path fill="currentColor" d="M12 18q2.5 0 4.25-1.75T18 12q0-2.175-1.388-3.825T13.1 6.1q-.45-.05-.775.25T12 7.1V12l-3.45 3.45q-.325.325-.3.775t.375.725q.725.575 1.6.813T12 18m0 4q-2.075 0-3.9-.787t-3.175-2.138T2.788 15.9T2 12t.788-3.9t2.137-3.175T8.1 2.788T12 2t3.9.788t3.175 2.137T21.213 8.1T22 12t-.788 3.9t-2.137 3.175t-3.175 2.138T12 22m0-2q3.35 0 5.675-2.325T20 12t-2.325-5.675T12 4T6.325 6.325T4 12t2.325 5.675T12 20m0-8"/></svg>