<svg xmlns="http://www.w3.org/2000/svg" viewBox="0 0 24 24" width="24" height="24"><path fill="currentColor" d="M13 17.25q.825 0 1.413-.587T15 15.25V14q0-.825-.587-1.412T13 12h-2v-1.25h3q.425 0 .713-.288T15 9.75t-.288-.712T14 8.75h-4q-.425 0-.712.288T9 9.75V13q0 .425.288.713T10 14h3v1.25h-3q-.425 0-.712.288T9 16.25t.288.713t.712.287zM12 20q2.9 0 4.95-2.05T19 13t-2.05-4.95T12 6T7.05 8.05T5 13t2.05 4.95T12 20M10 3q-.425 0-.712-.288T9 2t.288-.712T10 1h4q.425 0 .713.288T15 2t-.288.713T14 3zm2 19q-1.85 0-3.488-.712T5.65 19.35t-1.937-2.863T3 13t.713-3.488T5.65 6.65t2.863-1.937T12 4q1.55 0 2.975.5t2.675 1.45l.7-.7q.275-.275.7-.275t.7.275t.275.7t-.275.7l-.7.7Q20 8.6 20.5 10.025T21 13q0 1.85-.713 3.488T18.35 19.35t-2.863 1.938T12 22"/></svg>