<svg xmlns="http://www.w3.org/2000/svg" viewBox="0 0 24 24" width="24" height="24"><path fill="currentColor" d="M21.25 5.25q.15-.15.363-.238t.437-.087q.475 0 .8.325t.325.8q0 .225-.088.438t-.237.362q-.45.45-.725.963T21.85 9q0 .625.263 1.15t.687.95q.2.175.288.388t.087.462q0 .475-.325.8t-.8.325q-.225 0-.437-.087t-.363-.238q-.8-.725-1.25-1.687T19.55 9T20 6.938t1.25-1.688m-3.2-3.2q.15-.15.35-.237t.425-.088q.475 0 .8.325t.325.8q0 .25-.1.463t-.275.362Q18.5 4.7 17.875 6.063T17.25 9t.613 2.95t1.687 2.4q.175.15.275.363t.1.462q0 .45-.325.775t-.775.325q-.225 0-.425-.087t-.35-.238q-1.4-1.325-2.225-3.125T15 9t.825-3.825T18.05 2.05M9 13q-1.65 0-2.825-1.175T5 9t1.175-2.825T9 5t2.825 1.175T13 9t-1.175 2.825T9 13m-8 6v-.8q0-.825.425-1.55t1.175-1.1q1.275-.65 2.875-1.1T9 14t3.525.45t2.875 1.1q.75.375 1.175 1.1T17 18.2v.8q0 .825-.587 1.413T15 21H3q-.825 0-1.412-.587T1 19m2 0h12v-.8q0-.275-.137-.5t-.363-.35q-.9-.45-2.312-.9T9 16t-3.187.45t-2.313.9q-.225.125-.363.35T3 18.2zm6-8q.825 0 1.413-.587T11 9t-.587-1.412T9 7t-1.412.588T7 9t.588 1.413T9 11m0 8"/></svg>