<svg xmlns="http://www.w3.org/2000/svg" viewBox="0 0 24 24" width="24" height="24"><path fill="currentColor" d="M5 21q-.825 0-1.412-.587T3 19V5q0-.825.588-1.412T5 3h14q.825 0 1.413.588T21 5v14q0 .825-.587 1.413T19 21zm0-2h14V5H5zM5 5v14zm3 5v5q0 .425.288.713T9 16t.713-.288T10 15v-5h1.75l2.025 5.4q.1.275.338.438t.537.162h.7q.3 0 .538-.162t.337-.438l2.2-5.85q.2-.575-.137-1.062T17.35 8q-.375 0-.687.225t-.438.575L15 12.5l-1.275-3.825q-.1-.3-.362-.488T12.775 8H6q-.425 0-.712.288T5 9t.288.713T6 10z"/></svg>