<svg xmlns="http://www.w3.org/2000/svg" viewBox="0 0 24 24" width="24" height="24"><path fill="currentColor" d="M12 22q-3.85 0-6.663-2.525t-3.262-6.25q-.05-.5.288-.862T3.2 12H4V4.9q0-.375.263-.663T4.9 3.9l16.275-1.8q.35-.05.588.163t.237.562q0 .275-.187.488t-.463.262L10.5 4.8v1.7h10.75q.325 0 .538.213T22 7.25t-.213.538T21.25 8H10.5v4h10.3q.5 0 .838.363t.287.862q-.45 3.725-3.262 6.25T12 22M5.5 12h1V8h-1zm0-5.5h1V5.25l-1 .1zM8 12h1V8H8zm0-5.5h1V4.95l-1 .125zM4.625 15h14.75q.1-.25.175-.488T19.7 14H4.275q.075.275.163.513t.187.487M12 20q1.875 0 3.475-.812T18.2 17H5.8q1.125 1.375 2.725 2.188T12 20m0-3v-2z"/></svg>