<svg xmlns="http://www.w3.org/2000/svg" viewBox="0 0 24 24" width="24" height="24"><path fill="currentColor" d="M12 19q-3.375 0-6.125-1.687t-4.25-4.463q-.175-.325-.25-.662T1.3 11.5t.075-.687t.25-.663q1.5-2.775 4.25-4.462T12 4t6.125 1.688t4.25 4.462q.175.325.25.663t.075.687t-.075.688t-.25.662q-1.5 2.775-4.25 4.463T12 19m-7.375.9q-.25.275-.638.363T3.175 20q-.425-.375-.825-.8t-.725-.9q-.25-.35-.137-.712t.437-.563t.725-.162t.75.487q.25.35.538.625t.612.55q.35.3.338.7t-.263.675M12 17q2.875 0 5.225-1.475t3.6-4.025q-1.25-2.55-3.6-4.025T12 6T6.775 7.475t-3.6 4.025q1.25 2.55 3.6 4.025T12 17m-1.025 4.975q-.05.375-.363.65t-.862.2q-.675-.1-1.338-.25T7.1 22.2q-.5-.175-.65-.575t-.025-.75t.463-.575t.787-.05q.625.225 1.263.363t1.287.237q.45.05.625.4t.125.725M12 16q1.875 0 3.188-1.312T16.5 11.5t-1.312-3.187T12 7T8.813 8.313T7.5 11.5t1.313 3.188T12 16m0-1.8q-1.125 0-1.912-.788T9.3 11.5t.788-1.912T12 8.8t1.913.788t.787 1.912t-.787 1.913T12 14.2m.975 7.775q-.05-.375.15-.725t.675-.4q.65-.1 1.275-.25t1.25-.375q.425-.15.763.075t.462.575t-.038.75t-.687.6q-.65.225-1.3.363t-1.325.237q-.55.075-.862-.2t-.363-.65m6.35-2.05q-.25-.275-.262-.687t.362-.713t.7-.637t.6-.738q.25-.35.638-.35t.687.225t.4.625t-.25.875q-.3.425-.638.775t-.737.7q-.425.35-.837.275t-.663-.35M12 11.5"/></svg>