<svg xmlns="http://www.w3.org/2000/svg" viewBox="0 0 24 24" width="24" height="24"><path fill="currentColor" d="M4 20q-.825 0-1.413-.588T2 18V6q0-.825.588-1.413T4 4h16q.825 0 1.413.588T22 6v4q0 .425-.288.713T21 11q-.425 0-.713-.288T20 10V6H4v12h10q.425 0 .713.288T15 19q0 .425-.288.713T14 20H4Zm4-8.575l2.375 2.375q.3.3.7.3t.7-.3q.3-.3.3-.713t-.3-.712L9.4 10H11q.425 0 .713-.288T12 9q0-.425-.288-.713T11 8H7q-.425 0-.713.288T6 9v4q0 .425.288.713T7 14q.425 0 .713-.288T8 13v-1.575ZM18 20q-.425 0-.713-.288T17 19v-5q0-.425.288-.713T18 13h3q.425 0 .713.288T22 14v5q0 .425-.288.713T21 20h-3Zm-6-8Z"/></svg>