<svg xmlns="http://www.w3.org/2000/svg" viewBox="0 0 24 24" width="24" height="24"><path fill="currentColor" d="M4 21q-.825 0-1.412-.587T2 19v-5q0-.825.588-1.412T4 12h4.15q.375 0 .65.25t.325.6q.125.85 1 1.5T12 15t1.875-.65t1-1.5q.05-.35.325-.6t.65-.25H20q.825 0 1.413.588T22 14v5q0 .825-.587 1.413T20 21zm0-2h16v-5h-3.4q-.625 1.375-1.862 2.188T12 17t-2.738-.812T7.4 14H4zm12.9-8.9q-.275-.275-.275-.7t.275-.7l2.15-2.15q.275-.275.7-.275t.7.275t.275.7t-.275.7L18.3 10.1q-.275.275-.7.275t-.7-.275m-9.8 0q-.275.275-.7.275t-.7-.275L3.55 7.95q-.275-.275-.275-.7t.275-.7t.7-.275t.7.275L7.1 8.7q.275.275.275.7t-.275.7M12 8q-.425 0-.713-.288T11 7V4q0-.425.288-.712T12 3t.713.288T13 4v3q0 .425-.288.713T12 8M4 19h16z"/></svg>