<svg xmlns="http://www.w3.org/2000/svg" viewBox="0 0 24 24" width="24" height="24"><path fill="currentColor" d="M11 21v1q0 .425-.288.713T10 23t-.712-.288T9 22v-1.025q-.625-.125-1.075-.562t-.575-1.088l-.325-2q-.15-.925.45-1.625T9 15v-1.175q-.25.1-.488.138T8 14q-2.5 0-4.25-1.75T2 8V7q0-2.5 1.75-4.25T8 1q1.25 0 2.125.875T11 4t-.875 2.125T8 7H7q-.425 0-.712-.288T6 6t.288-.712T7 5h1q.425 0 .713-.288T9 4t-.288-.712T8 3Q6.35 3 5.175 4.175T4 7v1q0 1.65 1.175 2.825T8 12q.425 0 .713-.288T9 11t-.288-.712T8 10H7q-.425 0-.712-.288T6 9t.288-.712T7 8h1q1.25 0 2.125.875T11 11v4h2v-4q0-1.25.875-2.125T16 8h1q.425 0 .713.288T18 9t-.288.713T17 10h-1q-.425 0-.712.288T15 11t.288.713T16 12q1.65 0 2.825-1.175T20 8V7q0-1.65-1.175-2.825T16 3q-.425 0-.712.287T15 4t.288.713T16 5h1q.425 0 .713.288T18 6t-.288.713T17 7h-1q-1.25 0-2.125-.875T13 4t.875-2.125T16 1q2.5 0 4.25 1.75T22 7v1q0 2.5-1.75 4.25T16 14q-.275 0-.513-.038T15 13.826V15q.925 0 1.525.7t.45 1.625l-.325 2q-.125.65-.575 1.088T15 20.975V22q0 .425-.288.713T14 23t-.712-.288T13 22v-1zm-2-4l.325 2h5.35L15 17zm0 0l.325 2z"/></svg>