<svg xmlns="http://www.w3.org/2000/svg" viewBox="0 0 24 24" width="24" height="24"><path fill="currentColor" d="M15 7q-.425 0-.712-.288T14 6t.288-.712T15 5h6q.425 0 .713.288T22 6t-.288.713T21 7zm0 4q-.425 0-.712-.288T14 10t.288-.712T15 9h6q.425 0 .713.288T22 10t-.288.713T21 11zm0 4q-.425 0-.712-.288T14 14t.288-.712T15 13h6q.425 0 .713.288T22 14t-.288.713T21 15zm-7-1q-1.25 0-2.125-.875T5 11t.875-2.125T8 8t2.125.875T11 11t-.875 2.125T8 14m-6 5v-.9q0-.525.25-1t.7-.75q1.125-.675 2.388-1.012T8 15t2.663.338t2.387 1.012q.45.275.7.75t.25 1v.9q0 .425-.288.713T13 20H3q-.425 0-.712-.288T2 19m2.15-1h7.7q-.875-.5-1.85-.75T8 17t-2 .25t-1.85.75M8 12q.425 0 .713-.288T9 11t-.288-.712T8 10t-.712.288T7 11t.288.713T8 12m0 6"/></svg>