<svg xmlns="http://www.w3.org/2000/svg" viewBox="0 0 24 24" width="24" height="24"><path fill="currentColor" d="M13 7h4V5h-4zM4 17q.425 0 .713-.288T5 16t-.288-.712T4 15t-.712.288T3 16t.288.713T4 17m8 4q-1.9 0-3.6-.6t-3.125-1.675q-.275.125-.6.2T4 19q-1.25 0-2.125-.875T1 16q0-.575.2-1.075t.55-.9q-.175-.45-.312-.925t-.238-.975q-.075-.425.175-.75T2.05 11t.738.213t.412.687q.05.275.138.563t.187.562Q3.65 13 3.763 13H4q1.25 0 2.125.875T7 16q0 .35-.075.663t-.2.612q.925.675 2 1.113T11 18.95V14q0-.425-.288-.712T10 13q-1.65 0-2.825-1.175T6 9t1.175-2.825T10 5h1q0-.825.588-1.412T13 3h4q.825 0 1.413.588T19 5h1q.425 0 .713.288T21 6t-.288.713T20 7h-1q0 .825-.587 1.413T17 9h-4q-.825 0-1.412-.587T11 7h-1q-.825 0-1.412.588T8 9t.588 1.413T10 11q1.25 0 2.125.875T13 14v4.95q2.175-.25 3.95-1.425t2.825-3l-.325-.175q-.175-.1-.312-.25t-.2-.338t-.05-.387T19 13q.1-.2.25-.325t.325-.175t.375-.038t.375.113l.275.125l.1-.4l.1-.4q.1-.425.413-.688T21.95 11t.675.375t.175.75q-.075.375-.175.75t-.225.725l.15.075q.2.1.325.25t.188.337t.05.375t-.113.388q-.1.175-.25.3t-.325.188t-.363.05t-.387-.113l-.075-.025q-1.425 2.525-3.975 4.05T12 21m1-14V5zm-9 9"/></svg>