<svg xmlns="http://www.w3.org/2000/svg" viewBox="0 0 24 24" width="24" height="24"><path fill="currentColor" d="M10.95 12.7L9.5 11.275Q9.225 11 8.813 11t-.713.3q-.275.275-.275.7t.275.7l2.15 2.15q.3.3.7.3t.7-.3l4.25-4.25q.3-.3.287-.7t-.287-.7q-.3-.3-.712-.312t-.713.287zm-2.8 9.05L6.7 19.3l-2.75-.6q-.375-.075-.6-.387t-.175-.688L3.45 14.8l-1.875-2.15q-.25-.275-.25-.65t.25-.65L3.45 9.2l-.275-2.825q-.05-.375.175-.688t.6-.387l2.75-.6l1.45-2.45q.2-.325.55-.438t.7.038l2.6 1.1l2.6-1.1q.35-.15.7-.038t.55.438L17.3 4.7l2.75.6q.375.075.6.388t.175.687L20.55 9.2l1.875 2.15q.25.275.25.65t-.25.65L20.55 14.8l.275 2.825q.05.375-.175.688t-.6.387l-2.75.6l-1.45 2.45q-.2.325-.55.438t-.7-.038l-2.6-1.1l-2.6 1.1q-.35.15-.7.038t-.55-.438m1.3-1.8l2.55-1.1l2.6 1.1l1.4-2.4l2.75-.65l-.25-2.8l1.85-2.1l-1.85-2.15l.25-2.8l-2.75-.6l-1.45-2.4L12 5.15l-2.6-1.1L8 6.45l-2.75.6l.25 2.8L3.65 12l1.85 2.1l-.25 2.85l2.75.6zM12 12"/></svg>