<svg xmlns="http://www.w3.org/2000/svg" viewBox="0 0 24 24" width="24" height="24"><path fill="currentColor" d="M19.15 22H17q-.425 0-.712-.288T16 21t.288-.712T17 20h.35v.2L3.65 6.5H4V7q0 .425-.288.713T3 8t-.712-.288T2 7V4.85l-.65-.65q-.3-.3-.3-.713t.3-.712t.713-.3t.712.3l18.4 18.4q.3.3.3.7t-.3.7t-.712.3t-.713-.3zM22 17v2.15l-2-2V17q0-.425.288-.712T21 16t.713.288T22 17M4.85 2H7q.425 0 .713.288T8 3t-.288.713T7 4h-.15zM21 8q-.425 0-.712-.288T20 7V4h-3q-.425 0-.712-.288T16 3t.288-.712T17 2h3q.825 0 1.413.588T22 4v3q0 .425-.288.713T21 8M4 22q-.825 0-1.412-.587T2 20v-3q0-.425.288-.712T3 16t.713.288T4 17v3h3q.425 0 .713.288T8 21t-.288.713T7 22zm14.725-6.125L8.7 5.85L11 4.525q.475-.275 1-.275t1 .275L18 7.4q.475.275.738.738t.262.987v5.75q0 .275-.075.525t-.2.475M11 19.475L6 16.6q-.475-.275-.737-.737T5 14.875v-5.75q0-.525.263-.987T6 7.4l.9-.5L12 12l5.1 5.1l-4.1 2.375q-.475.275-1 .275t-1-.275M10.15 7.3l2.925 2.925l2.875-1.7L12 6.25zm.85 9.875v-4.6L7 10.25v4.625zm6-3.025v-3.9l-2.475 1.425zm-4 3.025l2.65-1.525L13 13z"/></svg>