<svg xmlns="http://www.w3.org/2000/svg" viewBox="0 0 24 24" width="24" height="24"><path fill="currentColor" d="M8.5 16.5h2q.425 0 .713-.288t.287-.712v-2q0-.425-.288-.712T10.5 12.5h-2q-.425 0-.712.288T7.5 13.5v2q0 .425.288.713t.712.287m0-5h2q.425 0 .713-.288t.287-.712v-2q0-.425-.288-.712T10.5 7.5h-2q-.425 0-.712.288T7.5 8.5v2q0 .425.288.713t.712.287m5 5h2q.425 0 .713-.288t.287-.712v-2q0-.425-.288-.712T15.5 12.5h-2q-.425 0-.712.288t-.288.712v2q0 .425.288.713t.712.287m0-5h2q.425 0 .713-.288t.287-.712v-2q0-.425-.288-.712T15.5 7.5h-2q-.425 0-.712.288T12.5 8.5v2q0 .425.288.713t.712.287M4 20q-.825 0-1.412-.587T2 18V6q0-.825.588-1.412T4 4h16q.825 0 1.413.588T22 6v12q0 .825-.587 1.413T20 20zm0-2h16V6H4zm0 0V6z"/></svg>