<svg xmlns="http://www.w3.org/2000/svg" viewBox="0 0 24 24" width="24" height="24"><path fill="currentColor" d="M12 14.2q-1.125 0-1.912-.787T9.3 11.5t.788-1.912T12 8.8t1.913.788t.787 1.912t-.787 1.913T12 14.2m0 4.8q-3.35 0-6.262-1.8T1.4 12.35q-.1-.2-.15-.412T1.2 11.5t.05-.437t.15-.413Q2.825 7.6 5.738 5.8T12 4q2.975 0 5.538 1.363t4.212 3.762q.25.35.138.763t-.488.612t-.775.088t-.65-.463q-1.375-1.95-3.462-3.037T12 6Q9.175 6 6.813 7.488T3.2 11.5q1.25 2.525 3.613 4.013T12 17q.25 0 .5-.012t.5-.038q.4-.05.7.213t.3.662q0 .425-.288.75T13 18.95q-.25.025-.5.038T12 19m0-3q.55 0 1.063-.125t.962-.35q.125-1.25.788-2.25t1.687-1.6V11.5q0-1.875-1.312-3.187T12 7T8.813 8.313T7.5 11.5t1.313 3.188T12 16m5 5q-.425 0-.712-.288T16 20v-3q0-.425.288-.712T17 16v-1q0-.825.588-1.412T19 13t1.413.588T21 15v1q.425 0 .713.288T22 17v3q0 .425-.288.713T21 21zm1-5h2v-1q0-.425-.288-.712T19 14t-.712.288T18 15z"/></svg>