<svg xmlns="http://www.w3.org/2000/svg" viewBox="0 0 24 24" width="24" height="24"><path fill="currentColor" d="M12 16q1.875 0 3.188-1.312T16.5 11.5t-1.312-3.187T12 7T8.813 8.313T7.5 11.5t1.313 3.188T12 16m0-1.8q-1.125 0-1.912-.788T9.3 11.5t.788-1.912T12 8.8t1.913.788t.787 1.912t-.787 1.913T12 14.2m0 4.8q-3.35 0-6.113-1.8t-4.362-4.75q-.125-.225-.187-.462t-.063-.488t.063-.488t.187-.462q1.6-2.95 4.363-4.75T12 4t6.113 1.8t4.362 4.75q.125.225.188.463t.062.487t-.062.488t-.188.462q-1.6 2.95-4.362 4.75T12 19m0-2q2.825 0 5.188-1.487T20.8 11.5q-1.25-2.525-3.613-4.012T12 6T6.813 7.488T3.2 11.5q1.25 2.525 3.613 4.013T12 17"/></svg>