<svg xmlns="http://www.w3.org/2000/svg" viewBox="0 0 24 24" width="24" height="24"><path fill="currentColor" d="M6.75 11q-.325 0-.537-.213T6 10.25v-.5q0-.325.213-.537T6.75 9t.538.213t.212.537v.5q0 .325-.213.538T6.75 11m10.5 0q-.325 0-.537-.213t-.213-.537v-.5q0-.325.213-.537T17.25 9t.538.213t.212.537v.5q0 .325-.213.538T17.25 11M8.5 12.25V8.5L10 10v2.25q0 .325-.213.538T9.25 13t-.537-.213t-.213-.537m2.75 2v-3l1.5 1.5v1.5q0 .325-.213.538T12 15t-.537-.213t-.213-.537M12 5q.325 0 .538.213t.212.537V8.1q0 .375-.238.55T12 8.825t-.513-.187t-.237-.538V5.75q0-.325.213-.537T12 5m2.75 2q.325 0 .538.213t.212.537v3.1q0 .375-.238.55t-.512.175t-.513-.187T14 10.85v-3.1q0-.325.213-.537T14.75 7M22 4v12.45q0 .425-.288.713T21 17.45q-.375 0-.687-.25T20 16.45V4H7.275q-.5 0-.75-.312T6.275 3t.25-.687t.75-.313H20q.825 0 1.413.588T22 4M6 18l-2.3 2.3q-.475.475-1.088.213T2 19.575V4.8l-.6-.6q-.275-.275-.275-.7t.275-.7t.7-.275t.7.275l18.4 18.4q.275.275.288.688t-.288.712q-.275.275-.7.275t-.7-.275L15.15 18zM4 6.8v10.325L5.15 16h8.05z"/></svg>