<svg xmlns="http://www.w3.org/2000/svg" viewBox="0 0 24 24" width="24" height="24"><path fill="currentColor" d="M12.85 10.1L8 5.2q.225-.075.475-.137T9 5q1.65 0 2.825 1.175T13 9q0 .275-.038.55t-.112.55M1 19v-.8q0-.825.425-1.55t1.175-1.1q1.275-.65 2.875-1.1T9 14q.65 0 1.238.063t1.162.137L10 12.85q-.225.075-.475.113T9 13q-1.65 0-2.825-1.175T5 9q0-.275.038-.525T5.15 8L2.1 4.9q-.275-.275-.275-.7t.275-.7q.3-.3.713-.3t.687.3l16.875 17.125q.275.275.288.688T20.4 22q-.275.325-.7.313T18.975 22l-2.95-3H17q0 .825-.587 1.413T15 21H3q-.825 0-1.412-.587T1 19m2 0h12v-.8q0-.35-.112-.488t-.388-.362q-.9-.45-2.312-.9T9 16t-3.187.45t-2.313.9q-.225.125-.363.35T3 18.2zM23 9q0 1.725-.612 3.288t-1.663 2.837q-.3.35-.75.375t-.8-.325q-.325-.325-.3-.775t.3-.825q.75-.95 1.163-2.125T20.75 9t-.412-2.425t-1.163-2.1q-.3-.375-.312-.825t.312-.8t.788-.338t.762.363q1.05 1.275 1.663 2.838T23 9m-4.55 0q0 .8-.25 1.538t-.7 1.362q-.275.375-.737.388t-.813-.338q-.325-.325-.337-.787t.212-.888q.15-.275.238-.6T16.15 9t-.088-.675t-.237-.625q-.225-.425-.213-.875t.338-.775q.35-.35.813-.338t.737.388q.45.625.7 1.363T18.45 9"/></svg>