<svg xmlns="http://www.w3.org/2000/svg" viewBox="0 0 24 24" width="24" height="24"><path fill="currentColor" d="M19.075 21.9L12.15 15q-.8 1.35-2.137 2.175T7 18q-2.5 0-4.25-1.75T1 12q0-1.65.8-3.025T3.95 6.8L2.075 4.925q-.3-.3-.3-.713t.3-.712t.713-.3t.712.3l17 17q.3.3.3.7t-.3.7t-.712.3t-.713-.3M17 14.175L15.825 13H17zm3.45 3.4l-1.45-1.4V13h2v-2h-7.175l-2-2H21q.825 0 1.413.588T23 11v2q0 .825-.587 1.413T21 15v1.175q0 .45-.162.8t-.388.6M7 16q1.625 0 2.488-.875t1.237-1.575L5.475 8.3q-1.1.45-1.787 1.438T3 12q0 1.65 1.175 2.825T7 16m0-2q-.825 0-1.412-.587T5 12t.588-1.412T7 10t1.413.588T9 12t-.587 1.413T7 14m-.125-1.85"/></svg>