<svg xmlns="http://www.w3.org/2000/svg" viewBox="0 0 24 24" width="24" height="24"><path fill="currentColor" d="M5 22q-.425 0-.712-.288T4 21V4H3q-.425 0-.712-.288T2 3t.288-.712T3 2h2q.425 0 .713.288T6 3v18q0 .425-.288.713T5 22m4 0q-.825 0-1.412-.587T7 20V4q0-.825.588-1.412T9 2h9q.825 0 1.413.588T20 4v16q0 .825-.587 1.413T18 22zm0-11.475q.45-.275.95-.4T11 10h5q.55 0 1.05.125t.95.4V4H9zM13.5 9q-.825 0-1.412-.588T11.5 7t.588-1.412T13.5 5t1.413.588T15.5 7t-.587 1.413T13.5 9M9 20h9v-6q0-.825-.587-1.412T16 12h-5q-.825 0-1.412.588T9 14zm3.5-3v1q0 .425.288.713T13.5 19t.713-.288T14.5 18v-1h1q.425 0 .713-.288T16.5 16t-.288-.712T15.5 15h-1v-1q0-.425-.288-.712T13.5 13t-.712.288T12.5 14v1h-1q-.425 0-.712.288T10.5 16t.288.713t.712.287zM9 20h9z"/></svg>