<svg xmlns="http://www.w3.org/2000/svg" viewBox="0 0 24 24" width="24" height="24"><path fill="currentColor" d="M8.45 21q-.65 0-1.175-.375t-.725-1L5.475 16.4q-.9-.5-1.525-1.325t-.9-1.875l-.575-2.325q-.175-.725.275-1.3T3.925 9h16.15q.725 0 1.175.575t.275 1.3L20.95 13.2q-.275 1.05-.9 1.875T18.525 16.4l-1.075 3.225q-.2.625-.725 1T15.55 21zm0-2h7.1l.675-2h-8.45zm-.55-4h8.2q1.05 0 1.85-.638T19 12.726L19.45 11H4.55L5 12.725q.25 1 1.05 1.638T7.9 15M20 9h-2V7.75q0-.525-.35-.888T16.8 6.5q-.275 0-.55.125t-.5.375h-3.075l-.25-.9q-.125-.5-.525-.8T11 5q-.45 0-.812.238t-.563.662L9.15 7H7q-.425 0-.712.288T6 8v1H4V8q0-1.25.863-2.125T6.95 5q.2 0 .425.038t.425.087q.425-.95 1.287-1.537T11 3q1.2 0 2.113.713t1.237 1.862q.475-.5 1.1-.788t1.325-.287q1.35 0 2.288.95T20 7.75zM8.45 19h7.1z"/></svg>