<svg xmlns="http://www.w3.org/2000/svg" viewBox="0 0 24 24" width="24" height="24"><path fill="currentColor" d="M20 17q-.425 0-.712-.288T19 16t.288-.712T20 15t.713.288T21 16t-.288.713T20 17m0-4q-.425 0-.712-.288T19 12t.288-.712T20 11h1q.425 0 .713.288T22 12t-.288.713T21 13zm0-4q-.425 0-.712-.3T19 7.975t.3-.712t.725-.288H22q.425 0 .713.288t.287.712t-.288.725T22 9zm-10 8q2.075 0 3.538-1.463T15 12t-1.463-3.537T10 7T6.463 8.463T5 12t1.463 3.538T10 17m-1.5 5q-.65 0-1.187-.387t-.738-1.038L6 18.65q-.15-.5-.462-1.012t-.813-1.063q-.85-.925-1.287-2.1T3 12q0-1.275.438-2.45t1.287-2.125q.5-.575.813-1.075t.462-1l.575-1.925q.2-.65.738-1.037T8.5 2h3q.65 0 1.188.388t.737 1.037L14 5.35q.15.5.463 1.013t.812 1.062q.85.925 1.288 2.1T17 12q0 1.275-.437 2.45t-1.288 2.125q-.5.575-.812 1.075t-.463 1l-.575 1.925q-.2.65-.737 1.038T11.5 22zm0-18h3zm0 16h3zM8.1 5.25q.5-.125.963-.2T10 4.975t.938.075t.962.2L11.5 4h-3zM8.5 20h3l.4-1.25q-.5.125-.962.188T10 19t-.937-.062t-.963-.188z"/></svg>