<svg xmlns="http://www.w3.org/2000/svg" viewBox="0 0 24 24" width="24" height="24"><path fill="currentColor" d="M8.7 21q-1.475 0-1.962-.5T5.35 20q-.35 0-.675.125t-1.2.625q-.5.275-.987-.012T2 19.875q0-.275.138-.513T2.525 19q1.2-.65 1.663-.825T5.35 18q1.425 0 1.913.5t1.387.5q.95 0 1.412-.5T12 18q1.425 0 1.925.5t1.375.5q.95 0 1.412-.5t1.938-.5q.7 0 1.175.175t1.65.825q.25.125.387.363t.138.512q0 .575-.5.863t-1 .012q-.875-.5-1.187-.625T18.65 20q-.9 0-1.362.5t-1.938.5q-1.425 0-1.937-.5T12 20q-.95 0-1.388.5T8.7 21M6 4q0 .425-.288.713T5 5H4q-.425 0-.712-.288T3 4t.288-.712T4 3h1q.425 0 .713.288T6 4m1.525 3.675q.3.3.3.713t-.3.712l-.7.7q-.275.275-.687.275T5.425 9.8q-.3-.3-.3-.712t.3-.713l.7-.7Q6.4 7.4 6.813 7.4t.712.275M12 8q-1.725 0-3.075-1.05T7.15 4.25q-.125-.4.088-.75t.637-.475q.4-.125.75.088t.475.637q.275 1 1.063 1.625T12 6t1.85-.625T14.9 3.75q.125-.4.475-.612t.75-.088t.613.463t.087.737q-.425 1.65-1.763 2.7T12 8m0 1q.425 0 .713.288T13 10v1q0 .425-.288.713T12 12t-.712-.288T11 11v-1q0-.425.288-.712T12 9m4.475-1.3q.275-.275.7-.275t.7.275l.7.7q.3.3.313.7t-.288.7t-.712.3t-.713-.3l-.7-.7q-.275-.3-.287-.7t.287-.7M21 4q0 .425-.287.713T20 5h-1q-.425 0-.712-.288T18 4t.288-.712T19 3h1q.425 0 .713.288T21 4M8.7 17q-1.475 0-1.962-.5T5.35 16q-.35 0-.675.125t-1.2.625q-.5.275-.987-.012T2 15.875q0-.275.138-.513T2.525 15q1.2-.65 1.663-.825T5.35 14q1.425 0 1.913.5t1.387.5q.95 0 1.412-.5T12 14q1.425 0 1.925.5t1.375.5q.95 0 1.412-.5t1.938-.5q.7 0 1.175.175t1.65.825q.25.125.387.363t.138.512q0 .575-.5.863t-1 .012q-.875-.5-1.187-.625T18.65 16q-.9 0-1.362.5t-1.938.5q-1.425 0-1.937-.5T12 16q-.95 0-1.388.5T8.7 17"/></svg>