<svg xmlns="http://www.w3.org/2000/svg" viewBox="0 0 24 24" width="24" height="24"><path fill="currentColor" d="M6.675 13.2h2.8L10 14.625q.05.175.2.275t.325.1q.3 0 .463-.237t.062-.513L8.875 8.4q-.075-.2-.225-.3T8.3 8h-.45q-.2 0-.35.1t-.225.3L5.1 14.25q-.1.275.063.513t.462.237q.2 0 .338-.1t.187-.275zm.35-1l1-2.9h.1l1 2.9zm1.05 6.8q-2.925 0-4.962-2.037T1.075 12t2.038-4.962T8.075 5q1.95 0 3.6 1t2.55 2.725h-.05q-.075-.275.1-.5t.45-.225q.2 0 .35.113t.2.312l1.1 4.675h.05l1.35-4.725q.05-.175.188-.275t.312-.1h.3q.175 0 .313.1t.187.275l1.35 4.725h.1l1.1-4.675q.05-.2.2-.312t.35-.113q.275 0 .45.225t.1.5l-1.55 5.875q-.05.2-.187.3t-.338.1h-.3q-.2 0-.35-.112t-.2-.288l-1.375-4.85h-.05L17.05 14.6q-.05.2-.2.3t-.35.1h-.275q-.2 0-.35-.112t-.2-.313l-.6-2.475q0 2.875-2.05 4.888T8.075 19m0-2q2.075 0 3.538-1.463T13.075 12t-1.462-3.537T8.075 7T4.538 8.463T3.075 12t1.463 3.538T8.075 17m0-5"/></svg>