<svg xmlns="http://www.w3.org/2000/svg" viewBox="0 0 24 24" width="24" height="24"><path fill="currentColor" d="M2 21v-4q0-.425.288-.712T3 16h4q.425 0 .713.288T8 17v4q0 .425-.288.713T7 22H3q-.425 0-.712-.288T2 21m7 0v-4q0-.425.288-.712T10 16h4q.425 0 .713.288T15 17v4q0 .425-.288.713T14 22h-4q-.425 0-.712-.288T9 21m7 0v-4q0-.425.288-.712T17 16h4q.425 0 .713.288T22 17v4q0 .425-.288.713T21 22h-4q-.425 0-.712-.288T16 21M2 14v-4q0-.425.288-.712T3 9h4q.425 0 .713.288T8 10v4q0 .425-.288.713T7 15H3q-.425 0-.712-.288T2 14m7 0v-4q0-.425.288-.712T10 9h4q.425 0 .713.288T15 10v4q0 .425-.288.713T14 15h-4q-.425 0-.712-.288T9 14m7 0v-4q0-.425.288-.712T17 9h4q.425 0 .713.288T22 10v4q0 .425-.288.713T21 15h-4q-.425 0-.712-.288T16 14M2 7V3q0-.425.288-.712T3 2h4q.425 0 .713.288T8 3v4q0 .425-.288.713T7 8H3q-.425 0-.712-.288T2 7m7 0V3q0-.425.288-.712T10 2h4q.425 0 .713.288T15 3v4q0 .425-.288.713T14 8h-4q-.425 0-.712-.288T9 7m7 0V3q0-.425.288-.712T17 2h4q.425 0 .713.288T22 3v4q0 .425-.288.713T21 8h-4q-.425 0-.712-.288T16 7m-5 11h2zm-5-5v-2zm12 0v-2zm-7-7h2zM4 20h2v-2H4zm7 0h2v-2h-2zm7 0h2v-2h-2zM4 13h2v-2H4zm7 0h2v-2h-2zm7 0h2v-2h-2zm-7-7h2V4h-2zm7 0h2V4h-2z"/></svg>