<svg xmlns="http://www.w3.org/2000/svg" viewBox="0 0 24 24" width="24" height="24"><path fill="currentColor" d="M17.5 19.5h1.25v-1.25H17.5zm0-2.75h1.25V15.5H17.5zm2.75 2.75h1.25v-1.25h-1.25zM17.5 21q-.625 0-1.062-.437T16 19.5v-4q0-.625.438-1.062T17.5 14h1.25q.625 0 1.063.438t.437 1.062v1.25h1.25q.625 0 1.063.438T23 18.25v1.25q0 .625-.437 1.063T21.5 21zM12 4q2.825 0 5.463.888T22.3 7.5q.35.275.538.663t.212.812t-.137.838t-.513.762l-1.125 1.15q-.3.275-.712.288t-.713-.288t-.3-.712t.3-.713l1.25-1.25q-1.975-1.5-4.3-2.275T12 6t-4.8.775T2.9 9.05l9.1 9.1l.275-.275q.3-.3.713-.3t.712.3t.3.713t-.3.712l-.275.275q-.3.3-.675.45t-.75.15t-.75-.15t-.675-.45l-9-9q-.325-.325-.488-.737T.95 9t.2-.812t.525-.688q2.2-1.725 4.85-2.613T12 4m0 8.075"/></svg>