<svg xmlns="http://www.w3.org/2000/svg" viewBox="0 0 24 24" width="24" height="24"><path fill="currentColor" d="M6.1 17H2q-.425 0-.712-.288T1 16t.288-.712T2 15h4.075q.4 0 .763.15t.637.425l2.875 2.85l-.75-1.475q-.25-.5.038-.975t.862-.475H20q.425 0 .713.288T21 16.5t-.288.713T20 17.5h-7.875l.15.3q.425.875.263 1.813t-.838 1.612q-.3.275-.7.275t-.675-.275zM1 8q0-.425.288-.712T2 7h3.6l1.1-1.125q.425-.425.975-.65T8.825 5H19q.425 0 .713.288T20 6t-.288.713T19 7H8.825q-.2 0-.375.088t-.325.212l-1.15 1.125q-.275.275-.637.425T5.575 9H2q-.425 0-.712-.288T1 8m21 6h-7q-.425 0-.712-.288T14 13t.288-.712T15 12h7q.425 0 .713.288T23 13t-.288.713T22 14m-1-3.5h-6q-.425 0-.712-.288T14 9.5t.288-.712T15 8.5h6q.425 0 .713.288T22 9.5t-.288.713T21 10.5"/></svg>