<svg xmlns="http://www.w3.org/2000/svg" viewBox="0 0 24 24" width="24" height="24"><path fill="currentColor" d="M9 18h6q.425 0 .713-.288T16 17t-.288-.712T15 16H9q-.425 0-.712.288T8 17t.288.713T9 18m-2 4q-.825 0-1.412-.587T5 20v-8q0-2.125 1.113-3.8T9 5.7V5q0-1.25.875-2.125T12 2t2.125.875T15 5v.7q1.775.825 2.888 2.5T19 12v8q0 .825-.587 1.413T17 22zm0-2h10v-8q0-2.075-1.463-3.537T12 7T8.463 8.463T7 12zm4-14.9q.275-.05.5-.075T12 5t.5.025t.5.075V5q0-.425-.288-.712T12 4t-.712.288T11 5zM7 20h10zm5-6.9l1.225.925q.15.125.3.013t.1-.288l-.475-1.525l1.225-.875q.15-.125.1-.288t-.25-.162h-1.5l-.475-1.625Q12.2 9.1 12 9.1t-.25.175l-.475 1.625h-1.5q-.2 0-.25.163t.1.287l1.225.875l-.475 1.525q-.05.175.1.288t.3-.013z"/></svg>