<?xml version="1.0" encoding="UTF-8"?>
<svg width="64" height="64" version="1.1" xmlns="http://www.w3.org/2000/svg">
 <style><![CDATA[#exkj448c93ak3_to {animation: exkj448c93ak3_to__to 9000ms linear infinite normal forwards}@keyframes exkj448c93ak3_to__to { 0% {transform: translate(0px,0px)} 22.222222% {transform: translate(0px,0px)} 44.444444% {transform: translate(96px,0px)} 66.666667% {transform: translate(96px,0px)} 88.888889% {transform: translate(0px,0px)} 100% {transform: translate(0px,0px)} }]]></style>
 <g class="layer" transform="matrix(.08 0 0 .08 0 -5.44)" stroke-width="12.5">
  <title>Layer 1</title>
  <path d="m556.86 338.03c-14.944-74.016-79.776-128.03-156.86-128.03-64.032 0-121.5 38.112-146.69 96.032-60.512 1.44-109.31 51.104-109.31 111.97 0 61.76 50.24 112 112 112h304c52.928 0 96-43.072 96-96 0-53.984-45.536-97.344-99.136-95.968z" fill="#c6deff" stroke-width="156.25"/>
  <g id="exkj448c93ak3_to" stroke-width="12.5">
   <path d="m480 466c-1.408 0-2.784 0.032-4.128 0.096-14.24-55.808-64.864-96.096-123.87-96.096-45.6 0-87.968 24.8-110.75 64h-1.248c-52.928 0-96 43.072-96 96s43.072 96 96 96h240c44.128 0 80-35.872 80-80s-35.872-80-80-80z" fill="#57a0ee" stroke-width="156.25"/>
  </g>
 </g>
</svg>
