<?xml version="1.0" encoding="UTF-8"?>
<svg width="64" height="64" version="1.1" xmlns="http://www.w3.org/2000/svg">
 <style><![CDATA[#edp377gkbz0n3_to {animation: edp377gkbz0n3_to__to 9000ms linear infinite normal forwards}@keyframes edp377gkbz0n3_to__to { 0% {transform: translate(51.201500px,0px)} 16.666667% {transform: translate(102.403000px,0px)} 33.333333% {transform: translate(51.201500px,0px)} 50% {transform: translate(51.201500px,0px)} 66.666667% {transform: translate(0px,0px)} 83.333333% {transform: translate(51.201500px,0px)} 100% {transform: translate(51.201500px,0px)} }]]></style>
 <g class="layer" transform="matrix(.08 0 0 .08 -2.0481 -2.5453)" stroke-width="12.5">
  <title>Layer 1</title>
  <path d="m648.58 314.05c-5.056-3.264-11.52-3.36-16.672-0.32-6.816 4-15.008 6.112-23.584 6.112-26.464 0-48-21.536-48-48 0-8.608 2.112-16.768 6.112-23.584 3.04-5.184 2.912-11.616-0.32-16.704-3.264-5.056-9.152-7.904-15.008-7.328-49.472 4.672-86.784 45.792-86.784 95.616 0 52.928 43.072 96 96 96 49.824 0 90.944-37.312 95.616-86.816 0.544-5.952-2.272-11.776-7.36-14.976z" fill="#b0bec5" stroke-width="156.25"/>
  <g id="edp377gkbz0n3_to" stroke-width="12.5">
   <path d="m525.49 335.9c-11.955-59.213-63.821-102.43-125.49-102.43-51.226 0-97.203 30.49-117.35 76.826-48.41 1.152-87.45 40.883-87.45 89.574 0 49.408 40.192 89.6 89.6 89.6h243.2c42.342 0 76.8-34.458 76.8-76.8 0-43.187-36.429-77.875-79.309-76.774z" fill="#57a0ee" stroke-width="156.25"/>
  </g>
 </g>
</svg>
