<?xml version="1.0" encoding="UTF-8"?>
<svg width="64" height="64" version="1.1" xmlns="http://www.w3.org/2000/svg">
 <style><![CDATA[#e55c3fdwds5k4_to {animation: e55c3fdwds5k4_to__to 3000ms linear infinite normal forwards}@keyframes e55c3fdwds5k4_to__to { 0% {transform: translate(63.984000px,-64px)} 33.333333% {transform: translate(205.506673px,-14px)} 100% {transform: translate(-106.719665px,96px)} }#e55c3fdwds5k4 {animation: e55c3fdwds5k4_f_o 3000ms linear infinite normal forwards}@keyframes e55c3fdwds5k4_f_o { 0% {fill-opacity: 0} 33.333333% {fill-opacity: 1} 83.333333% {fill-opacity: 1} 100% {fill-opacity: 0} }#e55c3fdwds5k5_to {animation: e55c3fdwds5k5_to__to 3000ms linear infinite normal forwards}@keyframes e55c3fdwds5k5_to__to { 0% {transform: translate(-219.952268px,-78.434368px)} 33.333333% {transform: translate(-219.952268px,-78.434368px)} 100% {transform: translate(86.431665px,16px)} }#e55c3fdwds5k5 {animation: e55c3fdwds5k5_f_o 3000ms linear infinite normal forwards}@keyframes e55c3fdwds5k5_f_o { 0% {fill-opacity: 0} 33.333333% {fill-opacity: 0} 50% {fill-opacity: 1} 83.333333% {fill-opacity: 1} 100% {fill-opacity: 0} }]]></style>
 <g class="layer" transform="matrix(.08 0 0 .08 -.89026 -6.9324)" stroke-width="12.5">
  <title>Layer 1</title>
  <path d="m571.13 388.87c-1.024 0-2.048 0-3.136 0.032-14.912-74.016-79.776-128.03-156.86-128.03-64.032 0-121.5 38.112-146.69 96.032-60.512 1.44-109.31 51.104-109.31 111.97 0 61.76 50.24 112 112 112h304c52.928 0 96-43.072 96-96s-43.072-96-96-96z" fill="#57a0ee" stroke-width="156.25"/>
  <g stroke-width="12.5">
   <g id="e55c3fdwds5k4_to" transform="translate(63.984,-64)">
    <path d="m430.26 516.87c-4.448-7.68-14.24-10.304-21.856-5.856l-45.28 26.144v-52.288c0-8.832-7.168-16-16-16s-16 7.168-16 16v52.288l-45.28-26.144c-7.648-4.448-17.44-1.824-21.856 5.856-4.416 7.648-1.792 17.44 5.856 21.856l45.312 26.144-45.312 26.144c-7.648 4.416-10.272 14.208-5.856 21.856 2.976 5.12 8.352 8 13.888 8 2.72 0 5.472-0.672 8-2.144l45.248-26.144v52.288c0 8.832 7.168 16 16 16s16-7.168 16-16v-52.288l45.28 26.144c2.528 1.472 5.28 2.144 8 2.144 5.536 0 10.912-2.88 13.888-8 4.416-7.648 1.792-17.44-5.856-21.856l-45.344-26.144 45.312-26.144c7.648-4.416 10.272-14.208 5.856-21.856z" fill="#cfd8dc" fill-opacity="0" stroke-width="156.25"/>
   </g>
   <g id="e55c3fdwds5k5_to" transform="translate(-219.95 -78.434)">
    <path d="m572.7 687.02-17.6-10.144 17.6-10.144c7.648-4.416 10.272-14.176 5.856-21.856s-14.208-10.304-21.856-5.856l-17.568 10.144v-20.288c0-8.832-7.168-16-16-16s-16 7.168-16 16v20.288l-17.568-10.144c-7.616-4.416-17.44-1.792-21.824 5.856-4.448 7.648-1.824 17.44 5.856 21.856l17.568 10.144-17.6 10.144c-7.648 4.416-10.272 14.208-5.824 21.856 2.944 5.12 8.352 8 13.856 8 2.72 0 5.472-0.672 8-2.144l17.536-10.144v20.288c0 8.832 7.168 16 16 16s16-7.168 16-16v-20.288l17.568 10.144c2.528 1.472 5.28 2.144 8 2.144 5.504 0 10.912-2.88 13.856-8 4.416-7.648 1.792-17.44-5.856-21.856z" fill="#cfd8dc" fill-opacity="0" stroke-width="156.25"/>
   </g>
  </g>
 </g>
</svg>
