<?xml version="1.0" encoding="UTF-8"?>
<svg width="64" height="64" version="1.1" xmlns="http://www.w3.org/2000/svg">
 <style><![CDATA[#ev5kbkxivn92_to {animation: ev5kbkxivn92_to__to 6000ms linear infinite normal forwards}@keyframes ev5kbkxivn92_to__to { 0% {transform: translate(0px,0px)} 11.666667% {transform: translate(-38.029324px,45.321684px)} 25% {transform: translate(0px,0px)} 100% {transform: translate(0px,0px)} }#ev5kbkxivn92_tr {animation: ev5kbkxivn92_tr__tr 6000ms linear infinite normal forwards}@keyframes ev5kbkxivn92_tr__tr { 0% {transform: rotate(0deg)} 11.666667% {transform: rotate(-10deg)} 25% {transform: rotate(0deg)} 100% {transform: rotate(0deg)} }]]></style>
 <g class="layer" transform="matrix(.08 0 0 .08 -7.3779e-7 -2.6872)" stroke-width="12.5">
  <title>Layer 1</title>
  <path d="m619.78 540.92c-4.288-5.28-11.488-7.232-17.824-4.96-17.76 6.368-37.024 9.632-57.312 9.632-97.056 0-176-78.976-176-176 0-58.4 28.832-112.77 77.12-145.47 5.472-3.712 8.096-10.4 6.624-16.832s-6.752-11.296-13.312-12.256c-7.488-1.088-14.944-1.44-22.432-1.44-132.35 0-240 107.65-240 240s107.65 240 240 240c84 0 160.42-42.688 204.35-114.18 3.552-5.792 3.04-13.184-1.216-18.496z" fill="#b0bec5" stroke-width="12.503"/>
 </g>
</svg>
