<?xml version="1.0" encoding="UTF-8"?>
<svg width="64" height="64" version="1.1" xmlns="http://www.w3.org/2000/svg">
 <g class="layer">
  <title>Layer 1</title>
  <g transform="translate(20,10)">
   <path transform="translate(-20,-11)" d="m47.7 35.4c0-4.6-3.7-8.2-8.2-8.2-1 0-1.9 0.2-2.8 0.5-0.3-3.4-3.1-6.2-6.6-6.2-3.7 0-6.7 3-6.7 6.7 0 0.8 0.2 1.6 0.4 2.3-0.3-0.1-0.7-0.1-1-0.1-3.7 0-6.7 3-6.7 6.7 0 3.6 2.9 6.6 6.5 6.7h17.2c4.4-0.5 7.9-4 7.9-8.4z" fill="#57A0EE" stroke="#fff" stroke-linejoin="round" stroke-width="1.2"/>
  </g>
  <g transform="translate(31 46) rotate(10)" fill="none" stroke="#91C0F8" stroke-dasharray="4,4" stroke-linecap="round" stroke-width="2">
   <line class="am-weather-rain-1" transform="translate(-4,1)" y2="8"/>
   <line class="am-weather-rain-2" transform="translate(0,-1)" y2="8"/>
   <line class="am-weather-rain-1" transform="translate(4)" y2="8"/>
  </g>
  <g transform="translate(20,10)">
   <g transform="translate(16 4) scale(.8)">
    <g class="am-weather-moon-star-1">
     <polygon points="3.3 1.5 4 2.7 5.2 3.3 4 4 3.3 5.2 2.7 4 1.5 3.3 2.7 2.7" fill="orange" stroke-miterlimit="10"/>
    </g>
    <g class="am-weather-moon-star-2">
     <polygon transform="translate(20,10)" points="3.3 1.5 4 2.7 5.2 3.3 4 4 3.3 5.2 2.7 4 1.5 3.3 2.7 2.7" fill="orange" stroke-miterlimit="10"/>
    </g>
    <g class="am-weather-moon">
     <path d="m14.5 13.2c0-3.7 2-6.9 5-8.7-1.5-0.9-3.2-1.3-5-1.3-5.5 0-10 4.5-10 10s4.5 10 10 10c1.8 0 3.5-0.5 5-1.3-3-1.7-5-5-5-8.7z" fill="orange" stroke="orange" stroke-linejoin="round" stroke-width="2"/>
    </g>
   </g>
   <g class="am-weather-cloud-2">
    <path transform="translate(-20,-11)" d="m47.7 35.4c0-4.6-3.7-8.2-8.2-8.2-1 0-1.9 0.2-2.8 0.5-0.3-3.4-3.1-6.2-6.6-6.2-3.7 0-6.7 3-6.7 6.7 0 0.8 0.2 1.6 0.4 2.3-0.3-0.1-0.7-0.1-1-0.1-3.7 0-6.7 3-6.7 6.7 0 3.6 2.9 6.6 6.5 6.7h17.2c4.4-0.5 7.9-4 7.9-8.4z" fill="#C6DEFF" stroke="#fff" stroke-linejoin="round" stroke-width="1.2"/>
   </g>
  </g>
  <g transform="translate(20,10)">
   <g transform="translate(16 4) scale(.8)">
    <g class="am-weather-moon-star-1">
     <polygon points="3.3 1.5 4 2.7 5.2 3.3 4 4 3.3 5.2 2.7 4 1.5 3.3 2.7 2.7" fill="orange" stroke-miterlimit="10"/>
    </g>
    <g class="am-weather-moon-star-2">
     <polygon transform="translate(20,10)" points="3.3 1.5 4 2.7 5.2 3.3 4 4 3.3 5.2 2.7 4 1.5 3.3 2.7 2.7" fill="orange" stroke-miterlimit="10"/>
    </g>
    <g class="am-weather-moon">
     <path d="m14.5 13.2c0-3.7 2-6.9 5-8.7-1.5-0.9-3.2-1.3-5-1.3-5.5 0-10 4.5-10 10s4.5 10 10 10c1.8 0 3.5-0.5 5-1.3-3-1.7-5-5-5-8.7z" fill="orange" stroke="orange" stroke-linejoin="round" stroke-width="2"/>
    </g>
   </g>
   <g class="am-weather-cloud-2">
    <path transform="translate(-20,-11)" d="m47.7 35.4c0-4.6-3.7-8.2-8.2-8.2-1 0-1.9 0.2-2.8 0.5-0.3-3.4-3.1-6.2-6.6-6.2-3.7 0-6.7 3-6.7 6.7 0 0.8 0.2 1.6 0.4 2.3-0.3-0.1-0.7-0.1-1-0.1-3.7 0-6.7 3-6.7 6.7 0 3.6 2.9 6.6 6.5 6.7h17.2c4.4-0.5 7.9-4 7.9-8.4z" fill="#91C0F8" stroke="#fff" stroke-linejoin="round" stroke-width="1.2"/>
   </g>
  </g>
  <g transform="translate(20,10)">
   <g transform="translate(16 4) scale(.8)">
    <g class="am-weather-moon-star-1">
     <polygon points="3.3 1.5 4 2.7 5.2 3.3 4 4 3.3 5.2 2.7 4 1.5 3.3 2.7 2.7" fill="orange" stroke-miterlimit="10"/>
    </g>
    <g class="am-weather-moon-star-2">
     <polygon transform="translate(20,10)" points="3.3 1.5 4 2.7 5.2 3.3 4 4 3.3 5.2 2.7 4 1.5 3.3 2.7 2.7" fill="orange" stroke-miterlimit="10"/>
    </g>
    <g class="am-weather-moon">
     <path d="m14.5 13.2c0-3.7 2-6.9 5-8.7-1.5-0.9-3.2-1.3-5-1.3-5.5 0-10 4.5-10 10s4.5 10 10 10c1.8 0 3.5-0.5 5-1.3-3-1.7-5-5-5-8.7z" fill="orange" stroke="orange" stroke-linejoin="round" stroke-width="2"/>
    </g>
   </g>
   <g class="am-weather-cloud-2">
    <path transform="translate(-20,-11)" d="m47.7 35.4c0-4.6-3.7-8.2-8.2-8.2-1 0-1.9 0.2-2.8 0.5-0.3-3.4-3.1-6.2-6.6-6.2-3.7 0-6.7 3-6.7 6.7 0 0.8 0.2 1.6 0.4 2.3-0.3-0.1-0.7-0.1-1-0.1-3.7 0-6.7 3-6.7 6.7 0 3.6 2.9 6.6 6.5 6.7h17.2c4.4-0.5 7.9-4 7.9-8.4z" fill="#57A0EE" stroke="#fff" stroke-linejoin="round" stroke-width="1.2"/>
   </g>
  </g>
  <g transform="translate(20,10)">
   <path transform="translate(-20,-11)" d="m47.7 35.4c0-4.6-3.7-8.2-8.2-8.2-1 0-1.9 0.2-2.8 0.5-0.3-3.4-3.1-6.2-6.6-6.2-3.7 0-6.7 3-6.7 6.7 0 0.8 0.2 1.6 0.4 2.3-0.3-0.1-0.7-0.1-1-0.1-3.7 0-6.7 3-6.7 6.7 0 3.6 2.9 6.6 6.5 6.7h17.2c4.4-0.5 7.9-4 7.9-8.4z" fill="#57A0EE" stroke="#fff" stroke-linejoin="round" stroke-width="1.2"/>
  </g>
  <g transform="translate(37 45) rotate(10)">
   <line class="am-weather-rain-1" transform="translate(-6,1)" y2="8" fill="none" stroke="#91C0F8" stroke-dasharray="4,7" stroke-linecap="round" stroke-width="2"/>
  </g>
 </g>
</svg>
