<svg xmlns="http://www.w3.org/2000/svg" viewBox="0 0 277.65038 47.950199" height="47.95" width="277.65"><g transform="matrix(.5 0 0 .5 .97764 -.027440)"><path d="m158.6 2.0996-25.5 91.801h17.701l14.6-52 8.5996 52h17.301l25.398-91.801h-17.699l-14.4 51.801-8.5-51.801h-17.5zm81.201 0-16.5 12.6-22 79.201h17.699l7.5996-27.5h22.301l-7.5996 27.5h17.6l22-79.1-9.3008-12.701h-31.799zm67.699 0-16.6 12.701-8.0996 28.6 9.2988 13.199h27l-5.5 19.801h-22.299l2.7-9.401h-17.7l-3.8 13.801 9.5996 13.1h31.301l16.7-12.901 7.9-28.9-9.4-13.1h-26.9l5.4004-19.6h22.201l-2.7 9.6h17.801l4-14.199-9.2012-12.701h-31.699zm67.6 0l-16.7 12.701-18.4 66.099 9.6992 13h31.301l16.699-13 5.2012-18.701h-17.701l-4 14.201h-22.199l15.9-57.1h22.1l-3.9004 14.398h17.6l5.3-18.897-9.1-12.701h-31.801zm67.5 0l-16.6 12.701-21.9 79.1h17.701l7.5996-27.5h22.299l-7.6992 27.5h17.699l21.9-79.201-9.2988-12.6h-31.701zm54.801 0-25.5 91.801h17.699l7.5996-27.5h14.4l3.3008 27.5h17.299l-3.8-31.301 12.4-10.1 10.5-37.699-9.3-12.701h-44.6zm-257.8 17.201h22.301l-8.2 29.699h-22.299l8.1992-29.699zm202.8 0h22.299l-8.2 29.699h-22.301l8.2012-29.699zm67.799 0h22.201l-8.3 29.699h-22.1l8.2-29.699z"/><polygon points="148.9 2.1 113.7 2.1 88.2 93.9 123.4 93.9" fill="#007ac2"/><path fill="#e4002b" d="m63.1 2.0996-25.6 91.9h17.1l25.4-91.9h-16.9zm23.9 0-25.6 91.9h17.1l25.4-91.9-16.9-0.0004z"/><path fill="#ffd659" d="m25.5 2.0996-25.5 91.9h10.6l25.4-91.9h-10.5zm17.4 0l-25.5 91.9h10.6l25.4-91.9h-10.5z"/></g></svg>