<?xml version="1.0" encoding="UTF-8" standalone="no"?>
<!-- Created with Inkscape (http://www.inkscape.org/) -->

<svg
   xmlns:dc="http://purl.org/dc/elements/1.1/"
   xmlns:cc="http://creativecommons.org/ns#"
   xmlns:rdf="http://www.w3.org/1999/02/22-rdf-syntax-ns#"
   xmlns:svg="http://www.w3.org/2000/svg"
   xmlns="http://www.w3.org/2000/svg"
   version="1.1"
   width="245.94646"
   height="299.99957"
   viewBox="0 0 245.94646 299.99958"
   id="svg20045">
  <defs
     id="defs20047" />
  <metadata
     id="metadata20050">
    <rdf:RDF>
      <cc:Work
         rdf:about="">
        <dc:format>image/svg+xml</dc:format>
        <dc:type
           rdf:resource="http://purl.org/dc/dcmitype/StillImage" />
        <dc:title></dc:title>
      </cc:Work>
    </rdf:RDF>
  </metadata>
  <g
     transform="translate(-0.57153649,-281.35881)"
     id="layer1">
    <g
       transform="matrix(11.772444,0,0,11.694721,-1686.2211,-7999.8533)"
       id="g19964">
      <path
         d="m 150.06617,725.18047 c 2.23625,-1.20625 4.885,-2.9275 8.58125,-1.775 l -0.0688,-0.10375 -0.78,-1.08875 c 0.51,-3.02875 1.05125,-6.9775 -3.7,-9.44 -1.715,0.5925 -3.9675,1.185 -6.22375,4.57 l -2.13625,-0.0888 c 1.2625,1.4825 2.16625,2.79125 2.64875,4.335 l 0.69,-0.2975 c 0.4225,1.2175 0.72,1.6925 0.93125,3.0575 l 0.0575,0.48625 0,0.345"
         id="path9325"
         style="fill:#ffffff;fill-opacity:1;fill-rule:nonzero;stroke:none" />
      <path
         d="m 161.1538,726.8366 0.4575,0 c 0,-0.22375 0.13125,-0.57875 0.23625,-0.7575 l -0.69375,0 0,-1.4175 c -0.2975,0.56375 -0.8675,0.89 -0.8675,0.89 l 0,0.5275 -0.3975,0 -0.2225,0.7575 0.62,0 0,1.945 c 0,0.2975 0.0137,0.92875 0.35125,1.1275 0.25875,-0.31625 0.41625,-0.47375 0.795,-0.7525 -0.24,-0.275 -0.27875,-0.375 -0.27875,-0.5925 l 0,-1.7275 z"
         id="path9329"
         style="fill:none;stroke:#ffffff;stroke-width:0.02183914;stroke-linecap:butt;stroke-linejoin:round;stroke-miterlimit:4;stroke-opacity:1;stroke-dasharray:none" />
      <path
         d="m 154.07505,728.5641 c 0,-0.2175 -0.0213,-1.425 -0.0213,-1.6825 l 0,-0.003 c 0.002,-0.12125 0.002,-0.2525 -0.0737,-0.3925 l -0.002,-0.004 c -0.0425,-0.105 -0.16,-0.3575 -0.41625,-0.47875 l -0.0712,0.06 c -0.001,-0.003 -0.004,-0.005 -0.007,-0.008 l 0.006,0.009 -0.65875,0.56375 c 0.1375,0.02 0.35125,0.23 0.35125,0.64375 l -0.005,-0.006 0,1.5075 c 0,0.3 0.0275,0.93625 0.36375,1.135 0.25625,-0.31625 0.41625,-0.47375 0.7925,-0.7525 -0.2375,-0.275 -0.2575,-0.375 -0.2575,-0.5925 z"
         id="path9333"
         style="fill:none;stroke:#ffffff;stroke-width:0.02183914;stroke-linecap:butt;stroke-linejoin:round;stroke-miterlimit:4;stroke-opacity:1;stroke-dasharray:none" />
      <path
         d="m 156.01542,728.51997 -0.0375,-0.005 c -0.66125,-0.2175 -0.93,-0.71375 -0.75,-1.6025 0.31125,0.0488 0.7875,0.345 0.7875,0.71125 l 0,0.89625 z"
         id="path9337"
         style="fill:none;stroke:#ffffff;stroke-width:0.02183914;stroke-linecap:butt;stroke-linejoin:round;stroke-miterlimit:4;stroke-opacity:1;stroke-dasharray:none" />
      <path
         d="m 155.73492,725.9616 -0.75625,0.7325 c -0.5875,0.585 -0.61375,0.88 -0.61375,1.07875 l 0,0.75125 c 0,0.4275 0.7025,0.9225 0.92375,1.0975 l 0.72625,-0.72875 0,0.95 c 0,0.215 -0.1575,0.355 -0.435,0.1975 l -0.0862,-0.05 c -0.13,-0.08 -0.3675,-0.17625 -0.4875,-0.2075 -0.1175,-0.03 -0.19875,-0.0588 -0.39625,0.11 -0.1975,0.165 -0.41375,0.44375 -0.5825,0.88875 0.2875,-0.2275 0.615,-0.12625 0.75125,-0.0575 0.13875,0.07 0.28875,0.1775 0.36,0.26625 0.0637,0.0875 0.165,0.285 0.335,0 0.5825,-0.8025 0.7325,-0.99125 1.47625,-1.42625 l 0,-2.51125 c 0,-0.25875 -0.58125,-0.73625 -1.215,-1.09125 z"
         id="path9341"
         style="fill:none;stroke:#ffffff;stroke-width:0.02183914;stroke-linecap:butt;stroke-linejoin:round;stroke-miterlimit:4;stroke-opacity:1;stroke-dasharray:none" />
      <path
         d="m 163.70517,727.6081 c -0.31375,-0.13 -0.59375,-0.26625 -0.90875,-0.38625 -0.31125,-0.11875 -0.17625,-0.74 0.22625,-0.55 0.40125,0.19625 0.49,0.28375 0.7125,0.4475 0.1475,-0.4475 0.42875,-0.92 0.42875,-0.92 -0.28125,-0.0312 -1.3075,-0.23875 -1.43875,-0.28375 -0.135,-0.045 -0.2825,-0.15 -0.41625,0.1175 -0.1325,0.26875 -0.53375,1.22 -0.625,1.445 -0.0875,0.22125 0.045,0.42875 0.40125,0.51875 0.3575,0.0913 0.87625,0.145 1.0725,0.34 0.19125,0.1925 0.0575,0.55 -0.19625,0.55 -0.2525,0 -0.6825,-0.28375 -0.86125,-0.44625 0,0 -0.3125,0.7425 -0.57875,1.085 0,0 1.1575,0.11625 1.57375,0.13375 0.4175,0.0163 0.565,-0.2825 0.64,-0.49 0.075,-0.2075 0.26625,-0.90625 0.32625,-1.115 0.0575,-0.2075 -0.0475,-0.3125 -0.35625,-0.44625 z"
         id="path9345"
         style="fill:none;stroke:#ffffff;stroke-width:0.02183914;stroke-linecap:butt;stroke-linejoin:round;stroke-miterlimit:4;stroke-opacity:1;stroke-dasharray:none" />
      <path
         d="m 152.92905,725.34447 0.1575,0 c 0.23625,0.0237 0.58375,0.33875 0.81125,0.5675 0,0 0.25375,-0.2425 0.29875,-0.2875 0.045,-0.0437 0.12125,-0.1625 0,-0.28875 -0.12625,-0.12 -0.64375,-0.66375 -0.64375,-0.66375 l -0.62375,0.6725 z"
         id="path9349"
         style="fill:none;stroke:#ffffff;stroke-width:0.02183914;stroke-linecap:butt;stroke-linejoin:round;stroke-miterlimit:4;stroke-opacity:1;stroke-dasharray:none" />
      <path
         d="m 159.57967,726.88172 c 0,-0.2575 0,-0.535 -0.6325,-0.89125 -0.2525,0.20875 -0.60875,0.565 -0.81375,0.775 -0.005,-0.53 -0.009,-0.99625 -0.009,-1.10125 0,-0.155 0.0288,-0.2925 -0.0813,-0.45375 l 0.005,-0.0163 c -0.0425,-0.10375 -0.16,-0.355 -0.41625,-0.47375 l -0.7325,0.6225 c 0.1375,0.02 0.3525,0.22875 0.3525,0.64375 l 0,2.1575 0.002,-0.004 0,0.64125 c 0,0.2975 0.02,0.92875 0.35375,1.1275 0.25875,-0.31625 0.415,-0.47375 0.7925,-0.7525 -0.23625,-0.275 -0.2575,-0.375 -0.2575,-0.5925 0,-0.0962 -0.005,-0.63875 -0.009,-1.22625 l 0.0975,-0.08 c 0.11875,-0.0788 0.47625,-0.39625 0.47625,0.14 l 0,1.38375 c 0,0.2975 0.02,0.92875 0.35625,1.1275 0.25625,-0.31625 0.4175,-0.47375 0.7925,-0.7525 -0.23875,-0.275 -0.255,-0.375 -0.255,-0.5925 0,-0.2175 -0.0225,-1.425 -0.0225,-1.6825 z"
         id="path9353"
         style="fill:none;stroke:#ffffff;stroke-width:0.02183914;stroke-linecap:butt;stroke-linejoin:round;stroke-miterlimit:4;stroke-opacity:1;stroke-dasharray:none" />
      <path
         d="m 148.8333,720.82072 c -0.18,-0.415 -0.34625,-0.7825 -0.5,-1.115 l 2.98125,0 0.36875,-0.34875 -3.525,0 c -0.0263,-0.0575 -0.0563,-0.115 -0.0825,-0.17 l 3.7475,0 0.35375,-0.35 -4.28875,0 c -0.03,-0.0562 -0.0612,-0.1125 -0.0937,-0.1675 l 4.565,0 0.37375,-0.35 -5.1425,0 c -0.0825,-0.13625 -0.16625,-0.26875 -0.25375,-0.395 l -0.0463,-0.0475 c 1.26875,0.0975 5.7575,-0.0663 7.03125,-0.17875 0.15375,-0.2325 0.4175,-0.3825 0.71375,-0.3825 0.12625,0 0.25125,0.0262 0.3575,0.0762 0.065,-0.17125 0.1225,-0.30125 0.165,-0.37625 -0.8625,0.185 -2.8025,0.3075 -3.17375,0.3075 0,0 0.64875,-0.77125 0.925,-0.9225 -0.9875,0.15125 -3.85,0.46125 -4.345,0.46125 l -0.37,0.525 -0.40125,0 0.43125,-0.7425 0.4925,-0.15125 c 1.0175,-1.295 1.51125,-2.09625 4.93125,-3.57625 2.645,1.43 4.51375,4.11375 3.08125,8.88875 -0.0987,-0.007 -0.15375,0.0138 -0.15375,0.0138 -0.81,0.2425 -2.96625,0.865 -5.30125,2.07 l -1.17,-1.9125 c 0.92625,-0.6775 2.00375,-1.44875 4.06875,-1.755 0.0637,-0.32875 0.1725,-0.7625 0.29875,-1.2075 -0.245,-0.0475 -0.45375,-0.2 -0.57625,-0.41125 -0.115,0.37625 -0.2325,0.78625 -0.315,1.14 -1.63375,0.2 -4.3475,0.80125 -5.1475,1.0775 z"
         id="path9357"
         style="fill:none;stroke:#ffffff;stroke-width:0.02183914;stroke-linecap:butt;stroke-linejoin:round;stroke-miterlimit:4;stroke-opacity:1;stroke-dasharray:none" />
      <path
         d="m 154.61742,711.87797 0.26625,0.0375 c 1.16875,0.1075 1.5425,-0.0275 2.50375,-0.205 1.655,-0.31125 1.53,1.035 0.18625,0.93 -1.18875,-0.0963 -1.78375,0.1725 -2.17,0.635 -0.30125,-0.21875 -0.63125,-0.42875 -0.99375,-0.63 0.2975,-0.25375 0.33625,-0.51875 0.2075,-0.7675 z"
         id="path9361"
         style="fill:none;stroke:#ffffff;stroke-width:0.02183914;stroke-linecap:butt;stroke-linejoin:round;stroke-miterlimit:4;stroke-opacity:1;stroke-dasharray:none" />
      <path
         d="m 152.54155,726.85085 c 0,-0.2575 0,-0.53375 -0.635,-0.88875 -0.33375,0.275 -0.5925,0.5925 -0.6925,0.69125 -0.0975,0.0987 -0.1675,0.07 -0.27625,-0.04 -0.10875,-0.1075 -0.15625,-0.35375 -0.4175,-0.47375 l -0.73,0.62375 c 0.13625,0.0175 0.3525,0.2275 0.3525,0.64375 l 0,2.1575 c 0,0.2175 -0.13625,0.35625 -0.4125,0.1975 -0.1575,-0.12 -0.3775,-1.165 -0.5125,-1.92 -0.14,-0.75125 -0.715,-1.04875 -1.09125,-1.04875 0.49375,-0.3375 6.2125,-5.26625 11.26875,-2.99375 l -0.23625,-0.19625 -0.14875,-0.16125 c -0.15,-0.17125 -0.3375,-0.4125 -0.47125,-0.66375 -0.275,-0.51 -0.37875,-1.06375 -0.41,-1.5275 0.12125,-0.87 0.20375,-1.79 0.15,-2.71 3.72125,1.6425 5.27875,-2.0425 3.96125,-4.21625 -0.0162,0.145 -0.27,1.7475 -1.53875,1.87125 -1.27,0.12375 -1.46875,-1.10375 0.41375,-2.225 1.8825,-1.12625 2.3925,-2.06125 2.33375,-3.225 -0.06,-1.165 -1.00375,-2.33875 -2.78375,-2.5625 -1.775,-0.2225 -2.73,0.22625 -4.5525,0.98625 -1.825,0.76 -5.32625,0.27125 -6.64,0.095 -1.31375,-0.1775 -2.125,0.0612 -2.88875,0.60625 -1.0625,0.755 -0.82125,2.83 0.70375,3.36875 1.525,0.54625 4.74625,-0.66875 5.9025,-0.9025 0.72375,-0.1475 0.7925,0.0625 0.68,0.285 -1.7125,0.58875 -3.89625,1.32375 -6.07625,4.64 l -2.19125,-0.0925 c 1.29625,1.54 2.2225,2.89625 2.7125,4.5 l 0.71125,-0.30875 c 0.4275,1.255 0.78,2.0725 0.9975,3.46875 -0.7275,0.45875 -1.44125,0.98125 -2.115,1.5675 0,0 -0.19875,0.21625 -0.435,0.31625 0.0212,-0.45375 -0.0213,-0.93125 0.77125,-1.48375 -1.40625,0.0575 -2.0975,0.0762 -2.85125,0.0575 -0.7525,-0.0213 -2.1,0.25875 -2.1,1.96 0,1.705 1.32625,2.2575 1.32625,2.2575 0,0 0.22,-0.575 0.43875,-0.81 -0.5175,-0.1975 -1.20875,-0.63625 -1.20875,-1.465 0,-0.8325 0.33625,-1.3675 1.00875,-1.42625 0.675,-0.06 0.69375,0 0.91125,0.04 0.2175,0.04 1.03125,0.1375 1.2475,0.0963 -0.7325,0.635 -0.75375,1.15125 -0.7725,2.0025 -0.0187,0.84875 -0.2975,1.7225 -0.6925,1.96 0.47375,-0.12 1.6625,0.25625 1.86,0.35375 0.04,-0.49375 0.13875,-0.96875 0.575,-1.48125 -0.33625,-0.10125 -0.91125,0.0163 -1.22375,0.25625 0.45125,-0.39625 0.74875,-1.28875 0.71,-1.8825 0.5325,0.14 0.84875,0.39625 0.84875,1.34875 0,0.95 0.0625,2.5125 0.99,2.67 0.515,-0.81125 1.11,-1.5025 1.9825,-2.01875 -0.19875,-0.13875 -0.19875,-0.2975 -0.19875,-0.37375 l 0,-1.23 c 0,-0.1775 -0.02,-0.23875 0.10125,-0.315 0.11625,-0.0812 0.47375,-0.39875 0.47375,0.1375 l 0,1.385 c 0,0.29875 0.0188,0.93 0.35625,1.1275 0.25625,-0.315 0.41375,-0.4725 0.7925,-0.75125 -0.24125,-0.2775 -0.2575,-0.37625 -0.2575,-0.59375 0,-0.21875 -0.0213,-1.425 -0.0213,-1.68375 z"
         id="path9365"
         style="fill:none;stroke:#ffffff;stroke-width:0.02183914;stroke-linecap:butt;stroke-linejoin:round;stroke-miterlimit:4;stroke-opacity:1;stroke-dasharray:none" />
      <path
         d="m 160.70205,716.19597 c -1.27,0.12375 -1.47,-1.10375 0.41375,-2.225 1.8825,-1.12625 2.3925,-2.06125 2.3325,-3.22625 -0.06,-1.16375 -1.0025,-2.3375 -2.7825,-2.56125 -1.775,-0.2225 -2.73125,0.22625 -4.555,0.98625 -1.825,0.76 -5.32625,0.27125 -6.64,0.095 -1.3125,-0.1775 -2.1225,0.0612 -2.88625,0.60625 -1.0625,0.755 -0.82125,2.83 0.7025,3.36875 1.525,0.54625 4.74625,-0.67 5.90375,-0.9025 1.1575,-0.23 0.63875,0.43875 0.385,0.6275 l 0.1875,0.0425 c 0.87,-0.3475 1.04375,-0.76 0.85375,-1.13 l 0.26625,0.0388 c 1.16875,0.10625 1.5425,-0.0288 2.50375,-0.20625 1.655,-0.30875 1.53,1.03625 0.18625,0.93 -1.345,-0.10625 -1.935,0.25 -2.31,0.83 2.225,1.94125 2.465,4.7975 2.465,4.7975 4.115,2.27125 5.89125,-1.66625 4.5125,-3.9425 -0.0175,0.145 -0.27,1.74625 -1.53875,1.87125"
         id="path9369"
         style="fill:#ee3524;fill-opacity:1;fill-rule:nonzero;stroke:none" />
      <path
         d="m 159.8888,713.9656 c -1.76875,1.035 -1.33375,2.1775 -0.265,2.21375 -0.8975,-0.1475 -0.86625,-1.2075 0.7975,-2.1825 1.8825,-1.10125 2.39125,-2.02375 2.33125,-3.165 -0.0625,-1.14625 -1.01,-2.30625 -2.78625,-2.52875 -0.1225,-0.0125 -0.24,-0.0225 -0.35625,-0.035 0.0637,0.008 0.11875,0.0125 0.18125,0.02 1.77625,0.22125 2.50375,1.39375 2.5625,2.53875 0.0637,1.14625 -0.58375,2.035 -2.465,3.13875"
         id="path9373"
         style="fill:#ffffff;fill-opacity:1;fill-rule:nonzero;stroke:none" />
      <path
         d="m 146.74555,711.75547 c -0.175,0.44125 -0.3125,1.78 2.945,0.97875 -1.09375,0.0212 -2.8825,0.2125 -2.95625,-0.85625 l 0.0113,-0.1225"
         id="path9377"
         style="fill:#ffffff;fill-opacity:1;fill-rule:nonzero;stroke:none" />
      <path
         d="m 153.67805,713.15722 0.1325,0.155 c 4.0975,4.8025 1.71125,8.1225 -0.10875,9.78375 1.78375,-0.8275 1.735,-0.84375 2.79375,-1.0475 1.11375,-3.73 0.245,-6.61625 -2.8175,-8.89125 m 5.58125,10.5525 c 0,0 -0.46,-0.44375 -0.72125,-0.93125 -0.2725,-0.51 -0.3775,-1.06375 -0.40875,-1.5275 0.41375,-2.95875 0.37875,-6.4575 -3.9575,-8.7325 -1.75375,0.61375 -4.0675,1.23 -6.37875,4.74375 l -2.19,-0.0925 c 1.29625,1.54125 2.22125,2.89625 2.71375,4.5 l 0.71125,-0.31 c 0.43,1.265 0.78375,2.08625 0.99875,3.50125 0.64875,-0.36875 1.6625,-0.94375 1.6625,-0.94375 l -1.18375,-1.94 c 0.925,-0.67875 2.0025,-1.44875 4.0675,-1.755 0.0625,-0.32875 0.17375,-0.7625 0.2975,-1.2075 -0.24375,-0.0488 -0.4525,-0.20125 -0.57375,-0.41125 -0.11625,0.37625 -0.23375,0.78625 -0.31625,1.14 -1.635,0.2 -4.34625,0.80125 -5.14625,1.0775 -0.1825,-0.415 -0.3475,-0.7825 -0.5025,-1.115 l 2.98375,0 0.3675,-0.34875 -3.52375,0 c -0.0275,-0.0575 -0.0575,-0.115 -0.0838,-0.17 l 3.74875,0 0.35375,-0.35 -4.29,0 c -0.0288,-0.0562 -0.0613,-0.1125 -0.0925,-0.1675 l 4.56375,0 0.375,-0.35 -5.14375,0 c -0.0813,-0.13625 -0.16625,-0.26875 -0.2525,-0.395 l -0.0463,-0.0475 c 1.26875,0.0975 5.755,-0.0662 7.02875,-0.18 0.155,-0.23125 0.4175,-0.38125 0.715,-0.38125 0.1275,0 0.25125,0.0263 0.35625,0.0762 0.0675,-0.17125 0.125,-0.3025 0.1675,-0.37625 -0.8625,0.185 -2.80375,0.3075 -3.17375,0.3075 0,0 0.64875,-0.77125 0.92375,-0.9225 -0.98625,0.15125 -3.85125,0.46125 -4.34375,0.46125 l -0.37125,0.525 -0.4025,0 0.43375,-0.7425 0.4925,-0.15125 c 1.0175,-1.295 1.50875,-2.0975 4.93125,-3.57625 2.68,1.4475 4.57,4.18875 3.02125,9.09125 l 0.4425,0.1525 -0.30125,0.885 2.0475,0.66375"
         id="path9381"
         style="fill:#231f20;fill-opacity:1;fill-rule:nonzero;stroke:none" />
      <path
         d="m 155.0263,718.8591 c 0.37875,0 0.68625,-0.30875 0.68625,-0.6875 0,-0.37625 -0.3075,-0.6875 -0.68625,-0.6875 -0.37875,0 -0.68625,0.31125 -0.68625,0.6875 0,0.37875 0.3075,0.6875 0.68625,0.6875"
         id="path9385"
         style="fill:#231f20;fill-opacity:1;fill-rule:nonzero;stroke:none" />
      <path
         d="m 150.24817,721.5496 c 0,0 0.5325,-0.29875 1.19375,-0.6175 0.43625,-0.20625 1.30875,-0.54375 1.30875,-0.54375 0,0 -0.86625,0.13 -1.81,0.36875 -0.77125,0.195 -0.9675,0.2925 -0.9675,0.2925"
         id="path9389"
         style="fill:#adafb2;fill-opacity:1;fill-rule:nonzero;stroke:none" />
      <path
         d="m 155.07142,714.76335 c 2.1825,2.66375 1.74625,5.35125 1.1325,7.29125 0,0 -0.14,0.02 -0.87,0.31375 1.3025,-1.96625 1.64875,-4.16625 0.0387,-7.1325 l -0.30125,-0.4725"
         id="path9393"
         style="fill:#adafb2;fill-opacity:1;fill-rule:nonzero;stroke:none" />
      <path
         d="m 148.89155,733.74172 -0.22875,0 -1.255,-1.43875 0,1.43875 -0.25,0 0,-1.87375 0.21375,0 1.27,1.45 0,-1.45 0.25,0 0,1.87375 z"
         id="path9397"
         style="fill:#00539f;fill-opacity:1;fill-rule:nonzero;stroke:none" />
      <path
         d="m 150.32305,732.11172 -0.79125,0 0,0.565 0.765,0 0,0.24 -0.765,0 0,0.585 0.81625,0 0,0.24 -1.0875,0 0,-1.87375 1.0625,0 0,0.24375 z"
         id="path9401"
         style="fill:#00539f;fill-opacity:1;fill-rule:nonzero;stroke:none" />
      <path
         d="m 152.6188,733.75835 -0.0512,0 -0.61875,-1.53125 -0.6175,1.53125 -0.0525,0 -0.76,-1.89125 0.27125,0 0.51625,1.29375 0.51875,-1.29375 0.25625,0 0.52125,1.29375 0.50875,-1.29375 0.26875,0 -0.76125,1.89125 z"
         id="path9405"
         style="fill:#00539f;fill-opacity:1;fill-rule:nonzero;stroke:none" />
      <path
         d="m 155.0488,732.28647 c -0.22875,-0.1325 -0.4275,-0.195 -0.645,-0.195 -0.42625,0 -0.75,0.305 -0.75,0.71625 0,0.42 0.31,0.71375 0.76125,0.71375 0.21125,0 0.44375,-0.075 0.655,-0.2125 l 0,0.29 c -0.185,0.0975 -0.38375,0.16875 -0.68125,0.16875 -0.70375,0 -1.00875,-0.5425 -1.00875,-0.935 0,-0.57125 0.43,-0.98875 1.02875,-0.98875 0.19,0 0.385,0.0462 0.64,0.1525 l 0,0.29"
         id="path9409"
         style="fill:#00539f;fill-opacity:1;fill-rule:nonzero;stroke:none" />
      <path
         d="m 156.2128,731.86085 -0.1925,0 -0.80375,1.88125 0.27375,0 0.2375,-0.55125 0.79625,0 0.25,0.55125 0.275,0 -0.83625,-1.88125 z m -0.10125,0.40625 0.30375,0.68125 -0.5825,0 0.27875,-0.68125 z"
         id="path9413"
         style="fill:#00539f;fill-opacity:1;fill-rule:nonzero;stroke:none" />
      <path
         d="m 158.1008,732.28047 c -0.16,-0.1525 -0.31375,-0.19625 -0.4425,-0.19625 -0.17,0 -0.2925,0.0913 -0.2925,0.2225 0,0.36 0.81,0.355 0.81,0.95125 0,0.29375 -0.2225,0.51 -0.5225,0.51 -0.2075,0 -0.37125,-0.055 -0.5275,-0.175 l 0,-0.33875 c 0.13875,0.1725 0.31,0.2725 0.49375,0.2725 0.21,0 0.30625,-0.13375 0.30625,-0.24 0,-0.38375 -0.81,-0.43 -0.81,-0.94 0,-0.30625 0.22125,-0.5025 0.56625,-0.5025 0.1425,0 0.28625,0.0438 0.41875,0.13375 l 0,0.3025"
         id="path9417"
         style="fill:#00539f;fill-opacity:1;fill-rule:nonzero;stroke:none" />
      <path
         d="m 159.8318,732.11172 -0.64625,0 0,1.63 -0.27125,0 0,-1.63 -0.6475,0 0,-0.24375 1.565,0 0,0.24375 z"
         id="path9421"
         style="fill:#00539f;fill-opacity:1;fill-rule:nonzero;stroke:none" />
      <path
         d="m 160.30493,733.50147 0.84625,0 0,0.24 -1.115,0 0,-1.87375 0.26875,0 0,1.63375 z"
         id="path9425"
         style="fill:#00539f;fill-opacity:1;fill-rule:nonzero;stroke:none" />
      <path
         d="m 162.40567,732.11172 -0.79375,0 0,0.565 0.7675,0 0,0.24 -0.7675,0 0,0.585 0.81625,0 0,0.24 -1.08375,0 0,-1.87375 1.06125,0 0,0.24375 z"
         id="path9429"
         style="fill:#00539f;fill-opacity:1;fill-rule:nonzero;stroke:none" />
      <path
         d="m 152.00642,717.3421 c 0,0 -2.9275,0.065 -3.05375,0.07 -0.0225,0 0.1075,-0.1775 0.1075,-0.1775 l 3.31125,-0.26125 -0.365,0.36875"
         id="path9433"
         style="fill:#adafb2;fill-opacity:1;fill-rule:nonzero;stroke:none" />
      <path
         d="m 159.57967,726.88172 c 0,-0.2575 0,-0.535 -0.6325,-0.89125 -0.2525,0.20875 -0.60875,0.565 -0.81375,0.775 -0.005,-0.53 -0.009,-0.99625 -0.009,-1.10125 0,-0.155 0.0288,-0.2925 -0.0813,-0.45375 l 0.005,-0.0163 c -0.0425,-0.10375 -0.16,-0.355 -0.41625,-0.47375 l -0.7325,0.6225 c 0.1375,0.02 0.3525,0.22875 0.3525,0.64375 l 0,2.1575 0.002,-0.004 0,0.64125 c 0,0.2975 0.02,0.92875 0.35375,1.1275 0.25875,-0.31625 0.415,-0.47375 0.7925,-0.7525 -0.23625,-0.275 -0.2575,-0.375 -0.2575,-0.5925 0,-0.0962 -0.005,-0.63875 -0.009,-1.22625 l 0.0975,-0.08 c 0.11875,-0.0788 0.47625,-0.39625 0.47625,0.14 l 0,1.38375 c 0,0.2975 0.02,0.92875 0.35625,1.1275 0.25625,-0.31625 0.4175,-0.47375 0.7925,-0.7525 -0.23875,-0.275 -0.255,-0.375 -0.255,-0.5925 0,-0.2175 -0.0225,-1.425 -0.0225,-1.6825"
         id="path9437"
         style="fill:#00539f;fill-opacity:1;fill-rule:nonzero;stroke:none" />
      <path
         d="m 156.01542,727.6831 0,0.83625 -0.0375,-0.004 c -0.66125,-0.2175 -0.93,-0.71375 -0.75,-1.60375 0.31125,0.0488 0.7875,0.345 0.7875,0.71125 l 0,0.06 z m -0.28,-1.72125 -0.7575,0.7325 c -0.58625,0.585 -0.6125,0.87875 -0.6125,1.07875 l 0,0.75125 c 0,0.4275 0.7025,0.9225 0.9225,1.0975 l 0.7275,-0.72875 0,0.94875 c 0,0.21625 -0.15875,0.35625 -0.435,0.19875 l -0.0875,-0.05 c -0.12875,-0.0812 -0.36625,-0.1775 -0.48625,-0.2075 -0.11875,-0.03 -0.19875,-0.0588 -0.39625,0.10875 -0.1975,0.16625 -0.41375,0.445 -0.5825,0.89 0.2875,-0.2275 0.61375,-0.1275 0.75,-0.0575 0.14,0.0688 0.29,0.1775 0.36,0.26625 0.065,0.0875 0.16625,0.285 0.33625,0 0.58125,-0.80375 0.73125,-0.9925 1.47625,-1.42625 l 0,-0.51375 0,-0.315 0,-1.68375 c 0,-0.2575 -0.58125,-0.735 -1.215,-1.09"
         id="path9441"
         style="fill:#00539f;fill-opacity:1;fill-rule:nonzero;stroke:none" />
      <path
         d="m 154.07505,728.5641 c 0,-0.2175 -0.0213,-1.425 -0.0213,-1.6825 l 0,-0.003 c 0.002,-0.12125 0.002,-0.2525 -0.0737,-0.3925 l -0.002,-0.004 c -0.0425,-0.105 -0.16,-0.3575 -0.41625,-0.47875 l -0.0712,0.06 c -0.001,-0.003 -0.004,-0.005 -0.007,-0.008 l 0.006,0.009 -0.65875,0.56375 c 0.1375,0.02 0.35125,0.23 0.35125,0.64375 l -0.005,-0.006 0,1.5075 c 0,0.3 0.0275,0.93625 0.36375,1.135 0.25625,-0.31625 0.41625,-0.47375 0.7925,-0.7525 -0.2375,-0.275 -0.2575,-0.375 -0.2575,-0.5925"
         id="path9445"
         style="fill:#00539f;fill-opacity:1;fill-rule:nonzero;stroke:none" />
      <path
         d="m 152.92905,725.34447 0.1575,0 c 0.23625,0.0237 0.58375,0.33875 0.81125,0.5675 0,0 0.25375,-0.2425 0.29875,-0.2875 0.045,-0.0437 0.12125,-0.1625 0,-0.28875 -0.12625,-0.12 -0.64375,-0.66375 -0.64375,-0.66375 l -0.62375,0.6725"
         id="path9449"
         style="fill:#00539f;fill-opacity:1;fill-rule:nonzero;stroke:none" />
      <path
         d="m 161.1538,726.8366 0.4575,0 c 0,-0.22375 0.13125,-0.57875 0.23625,-0.7575 l -0.69375,0 0,-0.505 0,-0.9125 c -0.2975,0.56375 -0.8675,0.89 -0.8675,0.89 l 0,0.5275 -0.3975,0 -0.2225,0.7575 0.62,0 0,1.945 c 0,0.2975 0.0137,0.92875 0.35125,1.1275 0.25875,-0.31625 0.41625,-0.47375 0.795,-0.7525 -0.24,-0.275 -0.27875,-0.375 -0.27875,-0.5925 l 0,-1.7275"
         id="path9453"
         style="fill:#00539f;fill-opacity:1;fill-rule:nonzero;stroke:none" />
      <path
         d="m 156.97605,721.81947 c -1.2475,0.37625 -5.7025,1.64875 -9.06625,4.5775 0,0 -0.19875,0.21625 -0.43625,0.31625 0.0225,-0.455 -0.02,-0.93125 0.77125,-1.48375 -1.405,0.0575 -2.0975,0.0762 -2.85125,0.0575 -0.7525,-0.0213 -2.09875,0.25875 -2.09875,1.96 0,1.70375 1.32625,2.2575 1.32625,2.2575 0,0 0.21875,-0.57375 0.4375,-0.81125 -0.5175,-0.1975 -1.2075,-0.635 -1.2075,-1.465 0,-0.83125 0.335,-1.3675 1.00875,-1.425 0.675,-0.06 0.6925,0 0.91,0.04 0.21875,0.04 1.0325,0.1375 1.2475,0.0975 -0.73125,0.63375 -0.75375,1.15 -0.77125,2 -0.02,0.85125 -0.29875,1.7225 -0.69375,1.96125 0.475,-0.11875 1.6625,0.25625 1.86125,0.35375 0.04,-0.495 0.13875,-0.96875 0.57375,-1.48125 -0.335,-0.10125 -0.91125,0.0175 -1.22375,0.2575 0.45125,-0.3975 0.75,-1.29 0.71,-1.88375 0.53375,0.14 0.85,0.39625 0.85,1.3475 0,0.9525 0.0613,2.51375 0.98875,2.67125 0.51625,-0.81125 1.11,-1.50375 1.9825,-2.01875 -0.19875,-0.13875 -0.19875,-0.2975 -0.19875,-0.37375 l 0,-1.23 c 0,-0.1775 -0.02,-0.2375 0.10125,-0.31625 0.1175,-0.08 0.475,-0.39625 0.475,0.13875 l 0,1.38625 c 0,0.29625 0.0175,0.93 0.35625,1.12625 0.255,-0.31625 0.4125,-0.4725 0.79125,-0.75 -0.24,-0.27875 -0.2575,-0.37625 -0.2575,-0.595 0,-0.21875 -0.0212,-1.42375 -0.0212,-1.68375 0,-0.25625 0,-0.53375 -0.63375,-0.89 -0.33375,0.27625 -0.5925,0.595 -0.6925,0.69375 -0.0975,0.0975 -0.1675,0.0675 -0.2775,-0.0412 -0.10875,-0.10625 -0.15625,-0.355 -0.4175,-0.4725 l -0.72875,0.6225 c 0.135,0.0187 0.3525,0.2275 0.3525,0.64375 l 0,2.15625 c 0,0.22 -0.1375,0.35875 -0.4125,0.1975 -0.16,-0.1175 -0.37875,-1.165 -0.51375,-1.91875 -0.13875,-0.75125 -0.715,-1.0475 -1.09125,-1.0475 0.495,-0.3375 6.2125,-5.2675 11.26875,-2.99375 l -0.23625,-0.1975 -1.38375,-1.50875 c -0.4725,-0.39375 -0.79875,-0.275 -0.79875,-0.275"
         id="path9457"
         style="fill:#00539f;fill-opacity:1;fill-rule:nonzero;stroke:none" />
      <path
         d="m 163.70517,727.6081 c -0.31375,-0.13 -0.59375,-0.26625 -0.90875,-0.38625 -0.31125,-0.11875 -0.17625,-0.74 0.22625,-0.55 0.40125,0.19625 0.49,0.28375 0.7125,0.4475 0.1475,-0.4475 0.42875,-0.92 0.42875,-0.92 -0.28125,-0.0312 -1.3075,-0.23875 -1.43875,-0.28375 -0.135,-0.045 -0.2825,-0.15 -0.41625,0.1175 -0.1325,0.26875 -0.53375,1.22 -0.625,1.445 -0.0875,0.22125 0.045,0.42875 0.40125,0.51875 0.3575,0.0913 0.87625,0.145 1.0725,0.34 0.19125,0.1925 0.0575,0.55 -0.19625,0.55 -0.2525,0 -0.6825,-0.28375 -0.86125,-0.44625 0,0 -0.3125,0.7425 -0.57875,1.085 0,0 1.1575,0.11625 1.57375,0.13375 0.4175,0.0163 0.565,-0.2825 0.64,-0.49 0.075,-0.2075 0.26625,-0.90625 0.32625,-1.115 0.0575,-0.2075 -0.0475,-0.3125 -0.35625,-0.44625"
         id="path9461"
         style="fill:#00539f;fill-opacity:1;fill-rule:nonzero;stroke:none" />
    </g>
  </g>
</svg>
