<svg xmlns="http://www.w3.org/2000/svg" viewBox="0 0 24 24" width="24" height="24"><path fill="currentColor" d="M1.825 10.6L.05 8.825q2.425-2.35 5.513-3.587T12 4t6.438 1.238t5.512 3.587L22.175 10.6q-2.05-1.975-4.675-3.037T12 6.5T6.5 7.563T1.825 10.6m5.625 5.675L5.7 14.5q1.275-1.2 2.9-1.85T12 12q1.025 0 2.013.213t1.887.637q-.425.425-.825.963t-.725 1.112q-.575-.2-1.162-.312T12 14.5q-1.275 0-2.437.45T7.45 16.275m-2.8-2.825L2.9 11.675Q4.75 9.9 7.1 8.95T12.025 8t4.913.938t4.187 2.712l-.375.4q-.5-.075-.913-.187T19 11.75q-.35 0-.712.088t-.763.212q-1.25-.75-2.65-1.15T12 10.5q-2.075 0-3.962.763T4.65 13.45M19 20q-.425 0-.712-.288T18 19t.288-.712T19 18t.713.288T20 19t-.288.713T19 20m-1-3v-3.5h2V17zm-6 3.85l2.4-2.425q-.2-.475-.288-.987t-.062-1.013q-.475-.2-.987-.312T12 16q-1.025 0-1.9.363t-1.575.987z"/></svg>