<svg xmlns="http://www.w3.org/2000/svg" viewBox="0 0 24 24" width="24" height="24"><path fill="currentColor" d="M17 20v-5h1v-1q0-.825.588-1.412T20 12t1.413.588T22 14v1h1v5zm2-5h2v-1q0-.425-.288-.712T20 13t-.712.288T19 14zM2.725 10.725L.6 8.6q2.3-2.225 5.25-3.412T12 4t6.15 1.188T23.4 8.6l-1.7 1.7q-.275-.1-.587-.15t-.613-.1q-1.8-1.5-3.975-2.275T12 7q-2.6 0-5 .963t-4.275 2.762M6.95 14.95l-2.1-2.1q1.475-1.375 3.313-2.112T12 10q1.275 0 2.475.3t2.325.875q-.6.5-.987 1.163t-.613 1.387q-.75-.35-1.562-.537T12 13q-1.425 0-2.713.5T6.95 14.95M12 20l-2.9-2.9q.575-.5 1.325-.8T12 16t1.575.3t1.325.8z"/></svg>