<svg xmlns="http://www.w3.org/2000/svg" viewBox="0 0 24 24" width="24" height="24"><path fill="currentColor" d="M3 14.5q-.2 0-.35-.15q-.15-.15-.15-.35q0-.2.15-.35q.15-.15.35-.15q.2 0 .35.15q.15.15.15.35q0 .2-.15.35q-.15.15-.35.15Zm0-4q-.2 0-.35-.15q-.15-.15-.15-.35q0-.2.15-.35q.15-.15.35-.15q.2 0 .35.15q.15.15.15.35q0 .2-.15.35q-.15.15-.35.15Zm3 8.25q-.325 0-.537-.212q-.213-.213-.213-.538q0-.325.213-.538q.212-.212.537-.212q.325 0 .537.212q.213.213.213.538q0 .325-.213.538q-.212.212-.537.212Zm0-4q-.325 0-.537-.213q-.213-.212-.213-.537q0-.325.213-.538q.212-.212.537-.212q.325 0 .537.212q.213.213.213.538q0 .325-.213.537q-.212.213-.537.213Zm0-4q-.325 0-.537-.213q-.213-.212-.213-.537q0-.325.213-.538q.212-.212.537-.212q.325 0 .537.212q.213.213.213.538q0 .325-.213.537q-.212.213-.537.213Zm0-4q-.325 0-.537-.213Q5.25 6.325 5.25 6q0-.325.213-.537q.212-.213.537-.213q.325 0 .537.213q.213.212.213.537q0 .325-.213.537q-.212.213-.537.213Zm4 12q-.325 0-.537-.212q-.213-.213-.213-.538q0-.325.213-.538q.212-.212.537-.212q.325 0 .538.212q.212.213.212.538q0 .325-.212.538q-.213.212-.538.212Zm0-12q-.325 0-.537-.213Q9.25 6.325 9.25 6q0-.325.213-.537q.212-.213.537-.213q.325 0 .538.213q.212.212.212.537q0 .325-.212.537q-.213.213-.538.213Zm0 14.75q-.2 0-.35-.15q-.15-.15-.15-.35q0-.2.15-.35q.15-.15.35-.15q.2 0 .35.15q.15.15.15.35q0 .2-.15.35q-.15.15-.35.15Zm0-18q-.2 0-.35-.15Q9.5 3.2 9.5 3q0-.2.15-.35q.15-.15.35-.15q.2 0 .35.15q.15.15.15.35q0 .2-.15.35q-.15.15-.35.15Zm4 15.25q-.325 0-.537-.212q-.213-.213-.213-.538q0-.325.213-.538q.212-.212.537-.212q.325 0 .538.212q.212.213.212.538q0 .325-.212.538q-.213.212-.538.212Zm0-12q-.325 0-.537-.213q-.213-.212-.213-.537q0-.325.213-.537q.212-.213.537-.213q.325 0 .538.213q.212.212.212.537q0 .325-.212.537q-.213.213-.538.213Zm0 14.75q-.2 0-.35-.15q-.15-.15-.15-.35q0-.2.15-.35q.15-.15.35-.15q.2 0 .35.15q.15.15.15.35q0 .2-.15.35q-.15.15-.35.15Zm0-18q-.2 0-.35-.15q-.15-.15-.15-.35q0-.2.15-.35q.15-.15.35-.15q.2 0 .35.15q.15.15.15.35q0 .2-.15.35q-.15.15-.35.15Zm4 15.25q-.325 0-.538-.212q-.212-.213-.212-.538q0-.325.212-.538q.213-.212.538-.212q.325 0 .538.212q.212.213.212.538q0 .325-.212.538q-.213.212-.538.212Zm0-4q-.325 0-.538-.213q-.212-.212-.212-.537q0-.325.212-.538q.213-.212.538-.212q.325 0 .538.212q.212.213.212.538q0 .325-.212.537q-.213.213-.538.213Zm0-4q-.325 0-.538-.213q-.212-.212-.212-.537q0-.325.212-.538q.213-.212.538-.212q.325 0 .538.212q.212.213.212.538q0 .325-.212.537q-.213.213-.538.213Zm0-4q-.325 0-.538-.213q-.212-.212-.212-.537q0-.325.212-.537q.213-.213.538-.213q.325 0 .538.213q.212.212.212.537q0 .325-.212.537q-.213.213-.538.213Zm3 7.75q-.2 0-.35-.15q-.15-.15-.15-.35q0-.2.15-.35q.15-.15.35-.15q.2 0 .35.15q.15.15.15.35q0 .2-.15.35q-.15.15-.35.15Zm0-4q-.2 0-.35-.15q-.15-.15-.15-.35q0-.2.15-.35q.15-.15.35-.15q.2 0 .35.15q.15.15.15.35q0 .2-.15.35q-.15.15-.35.15ZM8 16v-.55q0-1.3 1.25-1.875T12 13q1.5 0 2.75.575T16 15.45V16Zm4-4q-.825 0-1.412-.588Q10 10.825 10 10t.588-1.413Q11.175 8 12 8t1.413.587Q14 9.175 14 10q0 .825-.587 1.412Q12.825 12 12 12Z"/></svg>