<svg xmlns="http://www.w3.org/2000/svg" viewBox="0 0 24 24" width="24" height="24"><path fill="currentColor" d="M2 22V6h5v2H4v12h16V8h-3V6h5v16zm4.5-6q-.625 0-1.062-.437T5 14.5t.438-1.062T6.5 13t1.063.438T8 14.5t-.437 1.063T6.5 16M5 19v-.625q0-.8.55-1.338t1.3-.537q.35 0 .738.163t.612.437l1.125 1.3q.15.175.313.325T10 19zm4-3v-.675q0-.8.825-1.312T12 13.5t2.175.513t.825 1.312V16zm10 3h-5q.2-.125.363-.275t.312-.325l1.125-1.3q.2-.25.613-.425t.737-.175q.75 0 1.3.55t.55 1.325zm-7-6q-.625 0-1.062-.437T10.5 11.5t.438-1.062T12 10t1.063.438t.437 1.062t-.437 1.063T12 13m5.5 3q-.625 0-1.062-.437T16 14.5t.438-1.062T17.5 13t1.063.438T19 14.5t-.437 1.063T17.5 16M8.275 8q.125-.45.163-.675t.037-.5q0-.375-.175-.763t-.6-.887q-.575-.675-.862-1.412T6.55 2.275q0-.3.038-.612T6.7 1h1.5q-.075.475-.112.75t-.038.525q0 .45.2.938t.6.987q.575.75.85 1.388t.275 1.237q0 .3-.038.6T9.826 8zM11.3 8q.125-.45.175-.675t.05-.5q0-.375-.187-.763t-.613-.887q-.575-.675-.85-1.412T9.6 2.275q0-.3.025-.612t.1-.663h1.5q-.075.475-.1.75t-.025.525q0 .45.188.938t.587.987q.575.75.85 1.388T13 6.825q0 .3-.038.6T12.85 8zm3 0q.125-.45.163-.675t.037-.5q0-.375-.175-.763t-.6-.887q-.575-.675-.862-1.412t-.288-1.488q0-.3.038-.612T12.725 1h1.5q-.075.475-.1.75t-.025.525q0 .45.188.938t.587.987q.575.75.85 1.388T16 6.825q0 .3-.038.6T15.85 8z"/></svg>