<svg xmlns="http://www.w3.org/2000/svg" viewBox="0 0 24 24" width="24" height="24"><path fill="currentColor" d="M1 18V6h16.025q-.5.4-.875.9T15.525 8H3v8h14.05q.1.625.45 1.138t.85.862zm19-1.5q-.425 0-.712-.288T19 15.5t.288-.712T20 14.5t.713.288t.287.712t-.288.713T20 16.5m-.7-3.025q0-.4.013-.763t.162-.712q.175-.35.463-.612t.562-.538q.3-.275.55-.612t.25-.763q0-.5-.387-.8t-.913-.3q-.5 0-.888.325t-.537.825L17.3 9q.25-.9 1-1.45T20 7q1.1 0 1.913.688t.812 1.737q0 .575-.288 1.075t-.712.925q-.25.25-.488.475t-.387.55q-.175.35-.125 1.025zM4 15V9h11.525v6z"/></svg>