<svg xmlns="http://www.w3.org/2000/svg" viewBox="0 0 24 24" width="24" height="24"><path fill="currentColor" d="M2 22v-6h10v6zm12-1.025V14H8v-1.65q-1.325-.35-2.162-1.4T5 8.475q0-1.275.75-2.312T7.725 4.7Q8.3 3.45 9.45 2.725T12 2q.825 0 1.588.287T15 3.125q.25-.05.488-.088T16 3q1.65 0 2.825 1.163T20 7q0 .525-.15 1.038T19.425 9L23 8.95v10.025h-4v2zM9 10.5q.575 0 1.038-.337t.887-.763l1.4-1.425q.525-.525 1.225-.75T15 7h2.975q0-.825-.587-1.412T15.975 5q-.3 0-.6.038T14.8 5.2l-.3.1l-.775-.65q-.35-.3-.8-.475T12 4q-.8 0-1.463.425t-1.012 1.15l-.375.775l-.8.25q-.6.225-.975.738T7 8.5q0 .825.575 1.413T9 10.5m10 6.475h2v-6h-2z"/></svg>