<svg xmlns="http://www.w3.org/2000/svg" viewBox="0 0 24 24" width="24" height="24"><path fill="currentColor" d="M8.525 18.9q.425.2.775.375t.7.325v2.1q-.35-.125-.725-.262t-.8-.338q-1.125.45-2.287.675T3.8 22H3v-2h.8q1.2 0 2.288-.262t2.437-.838M13 22v-1.775q-.475-.275-.737-.725t-.263-1v-6q0-1.3 1.2-1.9T17 10q2.7 0 3.85.575T22 12.5v6q0 .525-.262.988t-.738.737V22h-2v-1.5h-4V22zm1.875-3.25q.375 0 .625-.25t.25-.625t-.25-.625t-.625-.25t-.625.25t-.25.625q0 .35.263.613t.612.262m4.25 0q.375 0 .625-.25t.25-.625t-.25-.625t-.625-.25t-.625.25t-.25.625q0 .35.263.613t.612.262M13.5 15h7v-2h-7zm-4-11V2h5v2H19v4.1q-.45-.05-.937-.075T17 8V6H7v2.825L12 7.5l2.525.675q-2.2.375-3.35 1.437T10 13v4.4q-.775-.45-1.263-.925L8.25 16q-.7.675-1.525 1.15t-1.775.675L2.5 10L5 9.35V4z"/></svg>