<svg xmlns="http://www.w3.org/2000/svg" viewBox="0 0 24 24" width="24" height="24"><path fill="currentColor" d="M1 20V8h8v12zm4-7.5q.325 0 .538-.225t.212-.525q0-.325-.213-.537T5 11q-.3 0-.525.213t-.225.537q0 .3.225.525T5 12.5M15.75 22v-5q-.225-.2-.363-.462T15.25 16q0-.525.375-.888t.875-.362q.525 0 .888.363t.362.887q0 .275-.112.55t-.388.45v5zm-2.075-3.175q-.55-.575-.862-1.3T12.5 16q0-1.675 1.175-2.838T16.5 12q1.675 0 2.838 1.163T20.5 16q0 .775-.288 1.5t-.862 1.3l-1.075-1.05q.35-.35.538-.8T19 16q0-1.05-.725-1.775T16.5 13.5t-1.775.725T14 16q0 .5.2.95t.55.8zM11.9 20.6q-.875-.95-1.388-2.138T10 16q0-2.725 1.9-4.612T16.5 9.5q2.725 0 4.613 1.888T23 16q0 1.275-.475 2.463t-1.4 2.112L20.05 19.5q.725-.725 1.088-1.625T21.5 16q0-2.1-1.45-3.55T16.5 11q-2.075 0-3.537 1.45T11.5 16q0 .975.388 1.888t1.087 1.637zM2 6V4h19v4.8q-1.025-.65-2.162-.975T16.5 7.5q-1.575 0-2.975.538T11 9.525V6z"/></svg>