<svg xmlns="http://www.w3.org/2000/svg" viewBox="0 0 24 24" width="24" height="24"><path fill="currentColor" d="M19 17.875v-2.15q.45-.275.725-.725T20 14V8q0-.825-.587-1.412T18 6H8.925L4 11.75V16h1v2H2v-7l6-7h10q1.65 0 2.825 1.175T22 8v6q0 1.425-.85 2.475t-2.15 1.4m-1.975 2.675l-1.65-1.1l.325-.525q.15-.225.225-.462T16 17.95q0-.35-.125-.675T15.5 16.7q-.525-.525-.813-1.212T14.4 14.05q0-.575.163-1.1t.462-1l.325-.5l1.675 1.1l-.35.525q-.15.225-.213.463t-.062.512q0 .35.125.675t.375.575q.525.525.813 1.213T18 17.95q0 .575-.162 1.1t-.463 1zm-4.2 0l-1.65-1.1l.325-.525q.15-.225.225-.462t.075-.513q0-.35-.125-.675T11.3 16.7q-.525-.525-.813-1.212T10.2 14.05q0-.575.163-1.1t.462-1l.325-.5l1.675 1.1l-.35.525q-.15.225-.212.463t-.063.512q0 .35.125.675t.375.575q.525.525.813 1.213t.287 1.437q0 .575-.162 1.1t-.463 1zm-4.175 0l-1.675-1.1l.35-.525q.15-.225.225-.462t.075-.513q0-.35-.138-.675T7.1 16.7q-.525-.525-.812-1.213T6 14.05q0-.575.15-1.1t.475-1l.35-.5l1.675 1.1l-.35.525q-.15.2-.225.45T8 14.05q0 .35.125.675t.375.575q.525.525.813 1.213T9.6 17.95q0 .575-.162 1.1t-.463 1z"/></svg>