<svg xmlns="http://www.w3.org/2000/svg" viewBox="0 0 24 24" width="24" height="24"><path fill="currentColor" d="M10.5 6h3q0-.625-.437-1.062T12 4.5t-1.062.438T10.5 6m6.5 5.075V6h3v5.3q-.725-.2-1.487-.275t-1.513.05M4 17V6h3v11zm4.5 0V6H9q0-1.25.875-2.125T12 3t2.125.875T15 6h.5v5.475q-1.775.675-2.912 2.163T11.1 17zm9.05 2.1h.9v-.25q0-.275.15-.488t.35-.412q.3-.275.525-.6t.225-.75q0-.675-.5-1.138T18 15q-.575 0-1.037.338t-.663.912l.8.35q.075-.325.325-.537T18 15.85t.563.213t.237.537q0 .275-.15.463t-.35.387q-.15.15-.312.3t-.288.35q-.075.15-.112.313t-.038.337zM18 21q.275 0 .463-.187t.187-.463t-.187-.462T18 19.7t-.462.188t-.188.462t.188.463T18 21m0 2q-2.075 0-3.537-1.463T13 18t1.463-3.537T18 13t3.538 1.463T23 18t-1.463 3.538T18 23M2 21v-2h9.1q.1.5.25 1t.35 1z"/></svg>