<svg xmlns="http://www.w3.org/2000/svg" viewBox="0 0 24 24" width="24" height="24"><path fill="currentColor" d="M2 20V4h20v2H12v4H6.975l-.75 2.725q-.575.65-.9 1.488T5 16t.325 1.788t.9 1.487l.2.725zm6.5 0L8 18.25q-.475-.425-.737-1T7 16t.263-1.25t.737-1L8.5 12h3l.5 1.75q.475.425.738 1T13 16t-.262 1.25t-.738 1L11.5 20zm1.5-2.5q.65 0 1.075-.437T11.5 16t-.45-1.062T10 14.5t-1.05.425T8.5 16t.425 1.075T10 17.5m8-5q.325 0 .538-.225t.212-.525q0-.325-.213-.537T18 11q-.3 0-.525.213t-.225.537q0 .3.225.525T18 12.5M14 20V8h8v12z"/></svg>