<svg xmlns="http://www.w3.org/2000/svg" viewBox="0 0 24 24" width="24" height="24"><path fill="currentColor" d="M4 21v-4.25L18.6 2.2l4.2 4.2L8.25 21zM18.65 7.775L20 6.425L18.575 5l-1.35 1.35zM19 17.5q0-.9-.475-1.55t-1.275-1.125L15.775 16.3q.575.25.9.55t.325.65q0 .575-1.037 1.038T13 19v2q2.6 0 4.3-.925T19 17.5M4.575 13.35l1.5-1.5q-.525-.2-.8-.425T5 11q0-.3.462-.612t1.888-.913q2.025-.875 2.838-1.638T11 6q0-1.425-.987-2.212T7.25 3q-1.1 0-2.212.55T3.124 5L4.5 6.325q.625-.625 1.363-.975T7.25 5q.85 0 1.3.25T9 6q0 .35-.413.638T6.55 7.65Q4.5 8.6 3.75 9.3T3 11q0 .725.388 1.313t1.187 1.037"/></svg>