<svg xmlns="http://www.w3.org/2000/svg" viewBox="0 0 24 24" width="24" height="24"><path fill="currentColor" d="M6.475 22Q4.6 22 3.3 20.675t-1.3-3.2T3.3 14.3T6.475 13q.55 0 1.063.125t.962.35q.35-.725.375-1.5t-.275-1.5q-.475.25-1 .375t-1.1.125q-1.875 0-3.187-1.312T2 6.474T3.313 3.3T6.5 2t3.188 1.3T11 6.475q0 .575-.137 1.1t-.388 1q.725.3 1.5.288t1.5-.363q-.225-.45-.35-.962T13 6.475Q13 4.6 14.3 3.3T17.475 2t3.2 1.3T22 6.475t-1.325 3.2t-3.2 1.325q-.6 0-1.137-.15t-1.038-.425q-.325.75-.3 1.538t.375 1.562q.475-.25 1-.387t1.1-.138q1.875 0 3.2 1.3T22 17.475t-1.325 3.2t-3.2 1.325t-3.175-1.325t-1.3-3.2q0-.575.138-1.1t.387-1q-.775-.35-1.563-.387t-1.537.287q.275.5.425 1.05t.15 1.15q0 1.875-1.325 3.2T6.475 22m11-13q1.05 0 1.788-.738T20 6.475t-.737-1.762T17.475 4t-1.763.713T15 6.475q0 .2.038.413t.087.412l2.2-2.2l1.4 1.4l-2.25 2.275q.225.125.475.175t.525.05M6.5 8.975q.25 0 .475-.05T7.4 8.8L5.1 6.5l1.4-1.4l2.325 2.3q.075-.2.125-.437T9 6.475q0-1.05-.725-1.775T6.5 3.975T4.725 4.7T4 6.475t.725 1.775t1.775.725M17.475 20q1.05 0 1.787-.737T20 17.475t-.737-1.763T17.475 15q-.25 0-.475.038t-.425.112l2.35 2.35l-1.425 1.4l-2.325-2.325q-.075.2-.125.425t-.05.475q0 1.05.713 1.788t1.762.737m-11 0q1.05 0 1.788-.737T9 17.475q0-.275-.05-.537t-.175-.488l-2.45 2.45L4.9 17.5l2.375-2.375q-.2-.05-.4-.088t-.4-.037q-1.05 0-1.763.713T4 17.475t.713 1.788T6.475 20M12 13q.425 0 .713-.288T13 12t-.288-.712T12 11t-.712.288T11 12t.288.713T12 13"/></svg>