<svg xmlns="http://www.w3.org/2000/svg" viewBox="0 0 24 24" width="24" height="24"><path fill="currentColor" d="M9.9 15.975q0 .95.475 1.888T12 20.1l-1.425 1.3q-1.45-1.525-2.075-2.775t-.625-2.6q0-.95.288-2T9.1 11.4q.6-1.475.813-2.212t.212-1.363q0-.95-.513-1.8T7.9 4.075l1.4-1.45Q10.8 4 11.463 5.2t.662 2.6q0 .875-.25 1.838t-.9 2.512q-.625 1.5-.85 2.3T9.9 15.975m-4.875 0q0 .95.488 1.888T7.15 20.1l-1.425 1.3q-1.45-1.525-2.087-2.775T3 16.025q0-.95.288-2t.937-2.625q.6-1.475.813-2.212t.212-1.363q0-.95-.5-1.8t-1.7-1.95l1.375-1.45Q5.925 4 6.588 5.2t.662 2.6q0 .875-.25 1.838t-.9 2.512q-.625 1.5-.85 2.3t-.225 1.525m9.75 0q0 .95.488 1.888T16.9 20.1l-1.425 1.275q-1.45-1.525-2.087-2.762t-.638-2.588q0-.95.288-2t.937-2.625q.6-1.475.813-2.212T15 7.825q0-.95-.5-1.8t-1.7-1.95l1.375-1.45Q15.675 4 16.338 5.2T17 7.8q0 .875-.25 1.838t-.9 2.512q-.625 1.5-.85 2.3t-.225 1.525M19 11V9h2v2zm0-3V3h2v5z"/></svg>