<svg xmlns="http://www.w3.org/2000/svg" viewBox="0 0 24 24" width="24" height="24"><path fill="currentColor" d="M12 22q-2.05 0-3.875-.788t-3.187-2.15t-2.15-3.187T2 12q0-2.075.788-3.9t2.15-3.175t3.187-2.137T12 2q2.075 0 3.9.788t3.175 2.137T21.213 8.1T22 12q0 2.05-.788 3.875t-2.137 3.188t-3.175 2.15T12 22m0-2q3.35 0 5.688-2.35T20 11.95v-.05h-2.625L15.4 8H8.625L6.65 11.9H4v.075q0 3.35 2.338 5.688T12 20m-3-5.75q-.525 0-.888-.363T7.75 13t.363-.888T9 11.75t.888.363t.362.887t-.363.888T9 14.25m6 0q-.525 0-.888-.363T13.75 13t.363-.888t.887-.362t.888.363t.362.887t-.363.888t-.887.362"/></svg>