<svg xmlns="http://www.w3.org/2000/svg" viewBox="0 0 24 24" width="24" height="24"><path fill="currentColor" d="M12 20q-3.35 0-5.675-2.325T4 12t2.325-5.675T12 4t5.675 2.325T20 12t-2.325 5.675T12 20m0-2q2.5 0 4.25-1.75T18 12q0-.425-.062-.837t-.188-.813q-.375.075-.75.113t-.75.037q-1.575 0-3-.6T10.7 8.15q-.7 1.425-1.925 2.475T6 12.15q.075 2.45 1.812 4.15T12 18m-2.5-4q-.425 0-.712-.288T8.5 13t.288-.712T9.5 12t.713.288t.287.712t-.288.713T9.5 14m5 0q-.425 0-.712-.288T13.5 13t.288-.712T14.5 12t.713.288t.287.712t-.288.713T14.5 14M1 6V1h5v2H3v3zm0 17v-5h2v3h3v2zm17 0v-2h3v-3h2v5zm3-17V3h-3V1h5v5z"/></svg>