<svg xmlns="http://www.w3.org/2000/svg" viewBox="0 0 24 24" width="24" height="24"><path fill="currentColor" d="M12.025 4.475q2.825 0 5.15 1.213T21.25 9.3l-.8.6q-1.575-2.2-3.687-3.312t-4.738-1.113q-2.6 0-4.7 1.125T3.65 9.95l-.8-.575Q4.625 6.95 6.938 5.713t5.087-1.238m0 2.35q3.425 0 5.825 2.275t2.4 5.55q0 1.225-.888 2.075t-2.162.85q-1.3 0-2.2-.85t-.9-2.075q0-.8-.6-1.375t-1.475-.575t-1.475.575t-.6 1.375q0 2.375 1.425 4.012t4.2 2.463l-.25.975q-3.05-.775-4.712-2.713T8.95 14.65q0-1.225.9-2.087t2.175-.863t2.175.863t.9 2.087q0 .8.613 1.375t1.487.575q.85 0 1.45-.575t.6-1.375q0-2.85-2.1-4.85t-5.1-2t-5.1 2t-2.1 4.825q0 .875.188 1.875t.612 2.2l-.9.35q-.45-1.15-.675-2.25t-.225-2.15q0-3.275 2.375-5.55t5.8-2.275m0-4.8q1.625 0 3.175.4t3.325 1.3l-.4.925Q16.4 3.775 14.963 3.4t-2.938-.375q-1.65 0-3.05.4T6.05 4.7l-.45-.875Q7.25 2.9 8.8 2.463t3.225-.438m0 7.225q2.5 0 4.088 1.65t1.587 4.25h-1q0-2.2-1.3-3.55t-3.375-1.35q-1.925 0-3.275 1.288T7.4 14.65q0 1.925.675 3.363t2.425 3.262l-.7.7q-1.875-1.95-2.637-3.588T6.4 14.65q0-2.25 1.638-3.825t3.987-1.575m1.125 9.175q-.8-.75-1.225-1.838T11.5 14.15h1q0 1.125.35 2.05t1 1.525q.65.575 1.463.887t1.687.313q.425 0 .825-.088t.775-.237l.175.975q-.425.2-.875.275t-.9.075q-1.1 0-2.087-.387t-1.763-1.113"/></svg>