<svg xmlns="http://www.w3.org/2000/svg" viewBox="0 0 24 24" width="24" height="24"><path fill="currentColor" d="M7 21q-1.25 0-2.125-.875T4 18H1v-7h11V5h4V3h3v2h1.975L23 10.975V18h-3q0 1.25-.875 2.125T17 21t-2.125-.875T14 18h-4q0 1.25-.875 2.125T7 21m0-2q.425 0 .713-.288T8 18t-.288-.712T7 17t-.712.288T6 18t.288.713T7 19m10 0q.425 0 .713-.288T18 18t-.288-.712T17 17t-.712.288T16 18t.288.713T17 19m-3-8h6.9l-1.35-4H14zM1 10V8.5h1v-2H1V5h10v1.5h-1v2h1V10zm2.5-1.5h1.75v-2H3.5zm3.25 0H8.5v-2H6.75z"/></svg>