<svg xmlns="http://www.w3.org/2000/svg" viewBox="0 0 24 24" width="24" height="24"><path fill="currentColor" d="M9 22q-.825 0-1.413-.588T7 20v-1h10v1q0 .825-.588 1.413T15 22H9Zm-2-4v-5h10v5H7Zm.1-6q.25-1.15 1.05-2.163t2.025-1.487q-.25-.2-.45-.438t-.35-.512L5.4 6.575q-.175-.05-.288-.213T5 6q0-.2.113-.363t.287-.212L9.375 4.6q.375-.725 1.063-1.162T12 3q.525 0 1 .175t.85.475l1.95-.4q.475-.1.838.2t.362.775v3.55q0 .475-.363.775t-.837.2l-1.975-.4q1.175.475 1.988 1.438T16.9 12H7.1ZM12 7q.425 0 .713-.288T13 6q-.025-.45-.3-.725T12 5q-.425 0-.713.288T11 6q0 .425.288.713T12 7Z"/></svg>