<svg xmlns="http://www.w3.org/2000/svg" viewBox="0 0 24 24" width="24" height="24"><path fill="currentColor" d="M3.975 19.775q-1.25 0-2.113-.875T1 16.775v-8h7v-5h5l3 3v4h.975v-2l2.525-2.5l4.475 8.5h-7v-2H16v1.75q.5.425.75 1.013t.25 1.237q0 1.25-.875 2.125T14 19.775q-.95 0-1.725-.55t-1.125-1.45H6.825q-.35.9-1.125 1.45t-1.725.55m0-2q.425 0 .725-.287t.3-.713t-.288-.712T4 15.775t-.712.288t-.288.712t.275.713t.7.287m10.025 0q.425 0 .713-.287t.287-.713t-.288-.712t-.712-.288t-.712.288t-.288.712t.288.713t.712.287m6.675-5L19 9.6v3.175zm-10.675-2h4V7.6l-1.85-1.825H10z"/></svg>