<svg xmlns="http://www.w3.org/2000/svg" viewBox="0 0 24 24" width="24" height="24"><path fill="currentColor" d="M14.5 17.5H16V16h1.5v-1.5H16V13h-1.5v1.5H13V16h1.5zM7 12h1.5V9.5h2V12H12V6h-1.5v2h-2V6H7zm6 0h3.75l.75-.75v-4.5L16.75 6H13zm-4.5 3.5v-1h2v1zm1.95 3.5H12l-.9-2.1h.15l.75-.75v-2.4l-.75-.75H7v6h1.5v-2h1.1zm4.05-8.5v-3H16v3zM12 22q-2.075 0-3.9-.788t-3.175-2.137T2.788 15.9T2 12t.788-3.9t2.137-3.175T8.1 2.788T12 2t3.9.788t3.175 2.137T21.213 8.1T22 12t-.788 3.9t-2.137 3.175t-3.175 2.138T12 22"/></svg>