<svg xmlns="http://www.w3.org/2000/svg" viewBox="0 0 24 24" width="24" height="24"><path fill="currentColor" d="m4.475 18.95l3.2-8.95H6.2l2.65-3.975q.125-.15.088-.325t-.163-.3l-.35-.35l-5.075 4.4q-.425.35-.637.838T2.5 11.325V17.5H1v-6.175q0-.875.363-1.662T2.375 8.3L8.5 3l1.225 1.225l1.025-2.8l9.825 3.625l-1.25 3.475q.725.125 1.2.675T21 10.5q0 .125-.012.25t-.063.25H21q.825 0 1.413.588T23 13q0 .6-.312 1.075t-.813.725q.05.175.088.338T22 15.5q0 .825-.587 1.413T20 17.5h-.075q.05.125.063.25T20 18q0 .825-.587 1.413T18 20h-2.775l-.875 2.6zm9.275-.775L17.35 8.1l-6.075-2.25l-3.6 10.075zm2 .325H18q.2 0 .35-.15t.15-.35t-.15-.35t-.35-.15h-1.875zm.9-2.5H20q.2 0 .35-.15t.15-.35t-.15-.35T20 15h-2.975zm.9-2.5H21q.2 0 .35-.15t.15-.35t-.15-.35t-.35-.15h-3.1zm.9-2.5H19q.2 0 .35-.15t.15-.35t-.15-.35T19 10h-.2z"/></svg>