<svg xmlns="http://www.w3.org/2000/svg" viewBox="0 0 24 24" width="24" height="24"><path fill="currentColor" d="M17 23v-3h-3v-2h3v-3h2v3h3v2h-3v3zm-9-6q.425 0 .713-.288T9 16t-.288-.712T8 15t-.712.288T7 16t.288.713T8 17m0-4q.425 0 .713-.288T9 12t-.288-.712T8 11t-.712.288T7 12t.288.713T8 13m0-4q.425 0 .713-.288T9 8t-.288-.712T8 7t-.712.288T7 8t.288.713T8 9m3 4h6v-2h-6zm0-4h6V7h-6zM3 21V3h18v10.825q-.675-.4-1.437-.6t-1.563-.2q-1.325 0-2.475.525T13.55 15H11v2h1.35q-.175.475-.262.975T12 19q0 .5.075 1t.25 1z"/></svg>