<svg xmlns="http://www.w3.org/2000/svg" viewBox="0 0 24 24" width="24" height="24"><path fill="currentColor" d="M12 19.05q-2.025 0-4.012-.175T4 18.375v-2.5q-1.325-.35-2.162-1.425T1 12q0-1.35.838-2.425T4 8.15V4.775q2 .325 3.988.5T12 5.45t4.013-.175t3.987-.5V8.15q1.325.35 2.163 1.413T23 12t-.837 2.438T20 15.85v2.525q-2 .325-3.988.5T12 19.05m0-3.55q1.2 0 2.375-.175t2.375-.475v-2.075q-1.2.325-2.375.525T12 13.5t-2.363-.2t-2.362-.525v2.075q1.2.3 2.362.475T12 15.5m-8-1.775V10.3q-.475.275-.737.725T3 12q0 .55.263 1t.737.725m16 0q.475-.275.738-.725T21 12q0-.525-.275-.975T20 10.3zM12 11.5q1.2 0 2.375-.175t2.375-.475V8.775q-1.2.325-2.375.525T12 9.5t-2.363-.2t-2.362-.525v2.075q1.2.3 2.362.475T12 11.5"/></svg>