<svg xmlns="http://www.w3.org/2000/svg" viewBox="0 0 24 24" width="24" height="24"><path fill="currentColor" d="M10 22v-6q0-2.5 1.75-4.25T16 10t4.25 1.75T22 16v6h-4v-5h2.5v-1q0-1.875-1.312-3.187T16 11.5t-3.187 1.313T11.5 16v1H14v5zM8.5 8.5q.625 0 1.063-.437T10 7t-.437-1.062T8.5 5.5t-1.062.438T7 7t.438 1.063T8.5 8.5M8 20H2V2h13v6.05q-1.425.175-2.637.8t-2.138 1.6q-.375-.225-.812-.337T8.5 10q-1.45 0-2.475 1.025T5 13.5q0 1.35.863 2.313T8 16.975zm.5-8q.125 0 .25.025T9 12.1q-.35.65-.587 1.35t-.338 1.475Q7.6 14.8 7.3 14.4t-.3-.9q0-.625.438-1.062T8.5 12"/></svg>