<svg xmlns="http://www.w3.org/2000/svg" viewBox="0 0 24 24" width="24" height="24"><path fill="currentColor" d="m6.325 18.375l-1.4-1.4q1-1 1.538-2.275Q7 13.425 7 12q0-1.425-.537-2.7q-.538-1.275-1.538-2.275l1.05-1.05l2.1 2.1q.425.9.663 1.875q.237.975.237 2.025q0 1.8-.688 3.463Q7.6 17.1 6.325 18.375Zm-2.8-2.825L2.1 14.125q.425-.425.663-.988Q3 12.575 3 11.975q0-.6-.237-1.15q-.238-.55-.663-.975l1.425-1.425q.725.7 1.113 1.625q.387.925.387 1.925t-.387 1.937q-.388.938-1.113 1.638ZM15.85 13l-.85-.85V11h2v2ZM19 13v-2h2v2Zm-6-2.85l-2-2V3h2Zm6.775 12.475L13 15.85V21h-2v-7.15L1.375 4.225L2.8 2.8l18.4 18.4Z"/></svg>