<svg xmlns="http://www.w3.org/2000/svg" viewBox="0 0 24 24" width="24" height="24"><path fill="currentColor" d="m15.45 16.875l-1.425-1.4l3.1-3.1l-.725-.7l-4.475 4.475l-1.4-1.425l4.45-4.475l-.7-.7l-5.2 5.175L7.65 13.35l5.225-5.225l-.725-.7l-3.75 3.8L6.975 9.8l5.075-5.075L9.5 3.3V1h8.475l3.85 3.85q.575.575.863 1.313t.287 1.512Q23 8.45 22.7 9.188t-.875 1.312zM13.575 23.3L.7 21.375l2.825-19.05l5.25 2.85L4.15 9.8l2.1 2.125l-1.45 1.45l4.3 4.15l.675-.675l4.15 4.225zm3.975-.3l-1.05-1.05L19.425 19H17v-1.5h5v5h-1.5v-2.425z"/></svg>