<svg xmlns="http://www.w3.org/2000/svg" viewBox="0 0 24 24" width="24" height="24"><path fill="currentColor" d="M12 8.5q.325 0 .538-.225t.212-.525q0-.325-.213-.537T12 7q-.3 0-.525.213t-.225.537q0 .3.225.525T12 8.5m-7.7 6.375q-.375-.65-.587-1.362T3.5 12t.213-1.513t.587-1.362l1.6 1.25q-.2.375-.3.775t-.1.85t.1.85t.3.775zm-2.75 2.15q-.725-1.1-1.138-2.362T0 12t.413-2.662T1.55 6.975l1.575 1.25Q2.6 9.05 2.3 10T2 12t.3 2.013t.825 1.787zM7 20V4h10v16zm12.675-5.125l-1.6-1.25q.2-.375.313-.775T18.5 12t-.112-.85t-.313-.775l1.6-1.25q.375.65.6 1.363T20.5 12t-.225 1.513t-.6 1.362M22.45 17l-1.575-1.225Q21.4 14.95 21.7 14t.3-2t-.3-2.012t-.825-1.788l1.575-1.225q.725 1.075 1.138 2.338T24 11.975t-.413 2.663T22.45 17"/></svg>