<svg xmlns="http://www.w3.org/2000/svg" viewBox="0 0 24 24" width="24" height="24"><path fill="currentColor" d="M5 23V1h14v7.4q-.65-.2-1.3-.3T16.375 8q-3.4.05-5.863 2.5T8 16.375q-.05 2.275.775 3.738t2.4 2.887zm11.5 0q-2.725 0-4.637-1.937T10 16.4q.05-2.6 1.925-4.475T16.4 10q2.725-.05 4.663 1.863T23 16.5V23zm-.75-3.5v-2.25h-2.125v-1.5h2.125V13.5h1.5v2.25h2.125v1.5H17.25v2.25zM12 6q.425 0 .713-.288T13 5t-.288-.712T12 4t-.712.288T11 5t.288.713T12 6m4.5 15q1.875 0 3.188-1.312T21 16.5t-1.312-3.187T16.5 12t-3.187 1.313T12 16.5t1.313 3.188T16.5 21"/></svg>