<svg xmlns="http://www.w3.org/2000/svg" viewBox="0 0 24 24" width="24" height="24"><path fill="currentColor" d="M4.4 16.1q0 .875.5 1.8t1.625 2.125L5.075 21.4q-1.4-1.475-2.037-2.737T2.4 16.125q0-1.025.288-2.137T3.6 11.4q.575-1.35.8-2.162T4.625 7.7q0-.825-.537-1.662T2.35 4.075L3.7 2.6q1.5 1.375 2.213 2.6t.712 2.5q0 .95-.275 2.013t-.875 2.462q-.575 1.35-.825 2.238T4.4 16.1m4-.025q0 .875.5 1.813t1.625 2.137L9.075 21.4q-1.4-1.475-2.037-2.737T6.4 16.125q0-1.025.288-2.137T7.6 11.4q.575-1.35.8-2.162T8.625 7.7q0-.825-.537-1.662T6.35 4.075L7.7 2.6q1.5 1.375 2.213 2.6t.712 2.5q0 .95-.275 2t-.875 2.45Q8.9 13.5 8.65 14.387t-.25 1.688M12 22V2h2v4.15l3.25-3.225l1.4 1.425L14 9v2h2l4.65-4.65l1.4 1.4l-3.2 3.25H23v2h-4.15l3.225 3.225l-1.425 1.425L16 13h-2v2l4.65 4.65l-1.4 1.4l-3.25-3.2V22z"/></svg>