<svg xmlns="http://www.w3.org/2000/svg" viewBox="0 0 24 24" width="24" height="24"><path fill="currentColor" d="M14.075 20.25q-.125.15-.3.262q-.175.113-.375.113t-.387-.063q-.188-.062-.363-.187l-3.825-3.2q-1.25-1.05-1.8-2.55q-.55-1.5-.275-3.075l-1.4-1.175q-.15-.125-.225-.288q-.075-.162-.1-.362q-.025-.2.025-.388q.05-.187.175-.337H4v2q0 .825-.587 1.412Q2.825 13 2 13V3q.825 0 1.413.587Q4 4.175 4 5v2h2.875l1.55-1.875q.125-.15.3-.238q.175-.087.375-.112q.2-.025.4.037q.2.063.35.188l1.375 1.15q1.525-.575 3.1-.3q1.575.275 2.825 1.325l3.825 3.2q.15.125.263.3q.112.175.112.375t-.062.388q-.063.187-.188.337Z"/></svg>