<svg xmlns="http://www.w3.org/2000/svg" viewBox="0 0 24 24" width="24" height="24"><path fill="currentColor" d="M12.5 13.675V10H15l-1-1h-1.5V4h4l2.25 4H17.3l-1-2H14v1h1.7l1 2h2.6l1.475 2.575q-.65-.275-1.35-.425T18 11q-1.675 0-3.113.725t-2.387 1.95m-5.3 5.8L5.25 16H6.7l1 2H10v-1H8.3l-1-2H4.7L3 12l1.7-3h2.6l1-2H10V6H7.7l-1 2H5.25L7.5 4h4v5H10l-1 1h2.5v3H9.3l-1-2H6l-1 1h2.7l1 2h2.8v1.4q-.25.6-.375 1.25T11 18q0 .425.038.85t.162.85v.3H8.075q-.275 0-.512-.137t-.363-.388M18 21l3-3l-.7-.7l-1.8 1.8V15h-1v4.1l-1.8-1.8l-.7.7zm0 2q-2.075 0-3.537-1.463T13 18t1.463-3.537T18 13t3.538 1.463T23 18t-1.463 3.538T18 23"/></svg>