<svg xmlns="http://www.w3.org/2000/svg" viewBox="0 0 24 24" width="24" height="24"><path fill="currentColor" d="M12 21q-2.25 0-3.95-1.437T6.075 15.9q-1.8-.35-2.937-1.75T2 10.95q0-2.075 1.463-3.512T7 6h2.5q.2 0 .35-.15T10 5.5t-.15-.35T9.5 5H7V3h2.5q1.05 0 1.775.725T12 5.5t-.725 1.775T9.5 8H7q-1.25 0-2.125.85T4 10.925q0 1 .575 1.813T6.1 13.85q.4-2.125 2.038-3.487T11.95 9q.5 0 .963.063t.937.212q-1.275.525-2.062 1.65t-.788 2.5q0 .925.3 1.8t1.025 1.45L13 16q-.525-.475-.762-1.125T12 13.5q0-1.475 1.025-2.488t2.5-1.012q1.45 0 2.463 1.013T19 13.45q0 .6-.213 1.163t-.637.987l3.15 2.75q.3.275.488.613t.187.737q0 .575-.488.938T20.35 21zm5-2q.425 0 .713-.288T18 18t-.288-.712T17 17t-.712.288T16 18t.288.713T17 19"/></svg>