<svg xmlns="http://www.w3.org/2000/svg" viewBox="0 0 24 24" width="24" height="24"><path fill="currentColor" d="M4 17v2h16v-2zM2 6h4.2q-.125-.225-.162-.475T6 5q0-1.25.875-2.125T9 2q.75 0 1.388.388t1.112.962L12 4l.5-.65q.45-.6 1.1-.975T15 2q1.25 0 2.125.875T18 5q0 .275-.038.525T17.8 6H22v15H2zm2 8h16V8h-5.1l2.1 2.85L15.4 12L12 7.4L8.6 12L7 10.85L9.05 8H4zm5-8q.425 0 .713-.288T10 5t-.288-.712T9 4t-.712.288T8 5t.288.713T9 6m6 0q.425 0 .713-.288T16 5t-.288-.712T15 4t-.712.288T14 5t.288.713T15 6"/></svg>