<svg xmlns="http://www.w3.org/2000/svg" viewBox="0 0 24 24" width="24" height="24"><path fill="currentColor" d="M2 22V2h20v20zm2-6v4h2v-2H5v-2zm0-2h1v-1h1v-2.5q0-.625.438-1.062T7.5 9h2q.625 0 1.063.438T11 10.5V13h1v1h8V4H4zm4.5-6q-.625 0-1.062-.437T7 6.5t.438-1.062T8.5 5t1.063.438T10 6.5t-.437 1.063T8.5 8M8 20h1v-2H8zm3 0h9v-4h-8v2h-1zm1.25-10q.05-.325.063-.488t.012-.337q0-.275-.112-.525t-.463-.675q-.375-.475-.562-.95T11 6.05q0-.2.025-.412L11.1 5h1.5q-.05.275-.075.513t-.025.537q0 .275.113.538T13 7.15q.45.55.65 1.038t.2.987q0 .275-.025.45T13.75 10zm2.5 0q.05-.325.063-.488t.012-.337q0-.275-.112-.525t-.463-.675q-.375-.475-.562-.95T13.5 6.05q0-.2.025-.412L13.6 5h1.5q-.05.275-.075.513T15 6.05q0 .275.113.538t.387.562q.45.55.65 1.038t.2.987q0 .275-.025.45T16.25 10zm2.55 0q.05-.325.063-.488t.012-.337q0-.275-.112-.525t-.463-.675q-.375-.475-.562-.95t-.188-.975q0-.2.025-.412L16.15 5h1.5q-.05.275-.075.513t-.025.537q0 .275.113.538t.387.562q.45.55.65 1.038t.2.987q0 .275-.025.45T18.8 10z"/></svg>