<svg xmlns="http://www.w3.org/2000/svg" viewBox="0 0 24 24" width="24" height="24"><path fill="currentColor" d="M4 20q-1.25 0-2.125-.875T1 17V8h2v4h1V6h2v6h1.175q.325-.875 1.138-1.437T10.15 10h1.35v2H10q-.425 0-.712.288T9 13t.288.713T10 14h1.25l.875 1.5L9.6 20zm11-1v-4.125q.525-.125 1.088-.462T17 13.65V19zm3-1v-6h-1.175q-.325.875-1.137 1.438T13.85 14H12.5v-2H14q.425 0 .713-.288T15 11t-.288-.712T14 10h-1.25l-.875-1.5l2.55-4.5H20q1.25 0 2.125.875T23 7v9h-2v-4h-1v6zM7 10.35V5h2v4.125q-.525.125-1.088.463T7 10.35"/></svg>