<svg xmlns="http://www.w3.org/2000/svg" viewBox="0 0 24 24" width="24" height="24"><path fill="currentColor" d="M7 9h10V7H7zm11 14q-1.825 0-3.187-1.137T13.1 19h1.55q.325 1.1 1.238 1.8t2.112.7q1.45 0 2.475-1.025T21.5 18t-1.025-2.475T18 14.5q-.725 0-1.35.263t-1.1.737H17V17h-4v-4h1.5v1.425q.675-.65 1.575-1.037T18 13q2.075 0 3.538 1.463T23 18t-1.463 3.538T18 23M3 21V3h18v7.575q-.725-.275-1.475-.425T18 10q-1.05 0-2.025.262t-1.85.738H7v2h4.75q-.35.45-.65.95T10.575 15H7v2h3.05q-.05.25-.05.488V18q0 .775.15 1.525T10.575 21z"/></svg>