<svg xmlns="http://www.w3.org/2000/svg" viewBox="0 0 24 24" width="24" height="24"><path fill="currentColor" d="M17 15q-1.05 0-1.775-.725T14.5 12.5q0-1.05.725-1.775T17 10q1.05 0 1.775.725T19.5 12.5q0 1.05-.725 1.775T17 15Zm-5 5v-1.4q0-.6.313-1.113t.887-.737q.9-.375 1.863-.563T17 16q.975 0 1.938.188t1.862.562q.575.225.888.738T22 18.6V20H12Zm-2-8q-1.65 0-2.825-1.175T6 8q0-1.65 1.175-2.825T10 4q1.65 0 2.825 1.175T14 8q0 1.65-1.175 2.825T10 12Zm-8 8v-3q0-.65.45-1.288T3.775 14.6q1.35-.725 2.95-1.163T10 13q.675 0 1.438.1t1.562.3v1.3q-.35.125-.6.25t-.525.275q-.925.525-1.4 1.375T10 18v2H2Z"/></svg>