<svg xmlns="http://www.w3.org/2000/svg" viewBox="0 0 24 24" width="24" height="24"><path fill="currentColor" d="m16.1 11.9l-4-4L18 2h4v4zM4.25 22.4L1.6 19.75l3.6-3.625l-2.2-2.2l2.1-2.1l1.55 1.525l1.2-1.2l4 4l-1.2 1.2l1.55 1.525L10.075 21l-2.2-2.2zm17.725-1.8l-1.4 1.4l-11.65-11.6q-1.225.75-2.675.587t-2.5-1.212l-.625-.625l.675-.7q.65-.675 1.588-.662t1.587.662l1.95 1.95q.225-.125.425-.287t.4-.363q.175-.175.325-.375t.275-.4L8.4 7.025q-1.275-1.25-3.025-1.25T2.4 7.05l-.675.675L1 7l6-5.975l2.75 2.75Q10.825 4.85 10.963 6.3t-.613 2.675l7.225 7.225q-.2-.65-.25-1.35t.075-1.4q.15-.75.513-1.4t.85-1.213t1.112-1.025t1.3-.812q.975 1.2 1.5 2.625t.225 2.925q-.275 1.275-1.062 2.275t-1.913 1.725z"/></svg>