<svg xmlns="http://www.w3.org/2000/svg" viewBox="0 0 24 24" width="24" height="24"><path fill="currentColor" d="M2 20V4h2.025l5.9 5.9q-.45.8-.687 1.713T9 13.5v3q0 .9.213 1.8T9.85 20zM6.875 4H22v4.4q-1.075-1.175-2.488-1.787T16.5 6q-1.575 0-2.95.613t-2.4 1.662zM17.5 13V8.075q1.875.325 3.15 1.688T22 13zm-2-4.925v4.55l-3-3q.6-.6 1.363-1t1.637-.55m6.05 10.6L17.875 15H22v1.5q0 .575-.125 1.125t-.325 1.05M16.5 22q-2.3 0-3.9-1.6T11 16.5V15h1.175L.675 3.5L2.1 2.075l19.8 19.8l-1.425 1.425l-1.75-1.75q-.5.225-1.062.338T16.5 22"/></svg>