<svg xmlns="http://www.w3.org/2000/svg" viewBox="0 0 24 24" width="24" height="24"><path fill="currentColor" d="M2 20V4h20v7h-2V6H4v12h8v2zm7.5-3.5v-9l7 4.5zm8.35 6.5l-.3-1.5q-.3-.125-.562-.262t-.538-.338l-1.45.45l-1-1.7l1.15-1q-.05-.35-.05-.65t.05-.65l-1.15-1l1-1.7l1.45.45q.275-.2.538-.337t.562-.263l.3-1.5h2l.3 1.5q.3.125.563.275t.537.375l1.45-.5l1 1.75l-1.15 1q.05.3.05.625t-.05.625l1.15 1l-1 1.7l-1.45-.45q-.275.2-.537.338t-.563.262l-.3 1.5zm1-3q.825 0 1.413-.587T20.85 18t-.587-1.412T18.85 16t-1.412.588T16.85 18t.588 1.413T18.85 20"/></svg>