<svg xmlns="http://www.w3.org/2000/svg" viewBox="0 0 24 24" width="24" height="24"><path fill="currentColor" d="M10 23v-2h2v-5.725q.225.1.475.15t.525.05q1.05 0 1.763-.712T15.474 13v-.225l4.025.975l3.55 6.35l-2.825 2.825l-6.225-6.2V21h2v2zm-7-2v-2h5v2zm-2-6v-4h10.525q-.475.35-.737.863T10.525 13q0 .575.225 1.05t.625.825L8.05 17zm12-.5q-.625 0-1.062-.437T11.5 13t.438-1.062T13 11.5t1.063.438T14.5 13t-.437 1.063T13 14.5m2.3-2.45q-.275-.675-.888-1.1T13 10.525q-.275 0-.525.05t-.475.15V5.9L17.325.925l3.4 2.125zM1 9V7h5v2zm3-4V3h6v2z"/></svg>