<svg xmlns="http://www.w3.org/2000/svg" viewBox="0 0 24 24" width="24" height="24"><path fill="currentColor" d="M2 6V1h5v2H4v3zm5 15H2v-5h2v3h3zM20 6V3h-3V1h5v5zm-6.5 2.5q-.825 0-1.412-.587T11.5 6.5t.588-1.412T13.5 4.5t1.413.588T15.5 6.5t-.587 1.413T13.5 8.5M8.8 17l1-5.1l-1.8.7V16H6v-4.7l3.95-1.7q.875-.375 1.288-.487T12 9q.525 0 .975.275T13.7 10l1 1.6q.275.425.6.788t.75.662l-1.025 1.775q-.425-.275-.813-.612T13.5 13.5l-.7 3.5zm4.475 5L19 11.975L24.725 22zM19 21q.2 0 .35-.15t.15-.35t-.15-.35T19 20t-.35.15t-.15.35t.15.35t.35.15m-.5-2h1v-4h-1z"/></svg>