<svg xmlns="http://www.w3.org/2000/svg" viewBox="0 0 24 24" width="24" height="24"><path fill="currentColor" d="M12 22q-2.075 0-3.9-.788t-3.175-2.137T2.788 15.9T2 12h2q0 2.875 1.813 5.075t4.637 2.775L9 18.4l1.4-1.4l4.55 4.55q-.725.25-1.463.35T12 22m.5-7V9h3q.425 0 .713.288T16.5 10v4q0 .425-.288.713T15.5 15zm-5 0v-1.5H10v-1H8.5v-1H10v-1H7.5V9h3q.425 0 .713.288T11.5 10v4q0 .425-.288.713T10.5 15zm6.5-1.5h1v-3h-1zm6-1.5q0-2.875-1.812-5.075T13.55 4.15L15 5.6L13.6 7L9.05 2.45q.725-.25 1.463-.35T12 2q2.075 0 3.9.788t3.175 2.137T21.213 8.1T22 12z"/></svg>