<svg xmlns="http://www.w3.org/2000/svg" viewBox="0 0 24 24" width="24" height="24"><path fill="currentColor" d="M7.5 22q-.2 0-.35-.15T7 21.5v-3q0-.2.15-.35T7.5 18H10v1H8v.5h1.5q.2 0 .35.15T10 20v1.5q0 .2-.15.35T9.5 22zm4 0v-4H14v1h-1.5v.5h1v1h-1V22zm4 0v-3h-1v-1h3v1h-1v3zM8 21h1v-.5H8zm-3-4l-3-3l3-3l1.05 1.05l-.95.95h13.775l-.925-.95L19 11l3 3l-3 3l-1.05-1.05l.95-.95H5.125l.925.95zm-3-7v-.575q0-.6.325-1.1t.9-.75q.65-.275 1.338-.425T6 7t1.438.15t1.337.425q.575.25.9.75t.325 1.1V10zm12 0v-.575q0-.6.325-1.1t.9-.75q.65-.275 1.338-.425T18 7t1.438.15t1.337.425q.575.25.9.75t.325 1.1V10zM6 6q-.825 0-1.412-.587T4 4t.588-1.412T6 2t1.413.588T8 4t-.587 1.413T6 6m12 0q-.825 0-1.412-.587T16 4t.588-1.412T18 2t1.413.588T20 4t-.587 1.413T18 6"/></svg>