<svg xmlns="http://www.w3.org/2000/svg" viewBox="0 0 24 24" width="24" height="24"><path fill="currentColor" d="M12 6q-.825 0-1.412-.587T10 4t.588-1.412T12 2t1.413.588T14 4t-.587 1.413T12 6M9 21V9q-1.7-.15-3.175-.4T3 8l.5-2q1.875.5 3.975.75T12 7t4.525-.25T20.5 6l.5 2q-1.35.35-2.825.6T15 9v12h-2v-6h-2v6zm11-8q-.425 0-.712-.288T19 12t.288-.712T20 11t.713.288T21 12t-.288.713T20 13m0 4q-.425 0-.712-.288T19 16t.288-.712T20 15t.713.288T21 16t-.288.713T20 17m0 4q-.425 0-.712-.288T19 20t.288-.712T20 19t.713.288T21 20t-.288.713T20 21"/></svg>