<svg xmlns="http://www.w3.org/2000/svg" viewBox="0 0 24 24" width="24" height="24"><path fill="currentColor" d="M8 22q-2.075 0-3.537-1.463T3 17t1.463-3.537T8 12v2q-1.25 0-2.125.875T5 17t.875 2.125T8 20t2.125-.875T11 17h2q0 2.075-1.463 3.538T8 22m9-1v-5h-6q-1.1 0-1.7-.937T9.15 13.1L11 9H8.725l-.6 1.55L6.2 10l.7-1.8q.225-.575.738-.888T8.75 7h5.2q1.125 0 1.713.913T15.8 9.85l-1.65 3.65H17q.825 0 1.413.588T19 15.5V21zM16 6.5q-.825 0-1.412-.587T14 4.5t.588-1.412T16 2.5t1.413.588T18 4.5t-.587 1.413T16 6.5"/></svg>