<svg xmlns="http://www.w3.org/2000/svg" viewBox="0 0 24 24" width="24" height="24"><path fill="currentColor" d="M19.775 22.6L1.4 4.225L2.8 2.8l18.375 18.4zM17 8q-1.25 0-2.125-.875T14 5t.875-2.125T17 2t2.125.875T20 5t-.875 2.125T17 8M9.5 6.675L5.325 2.5q.35-.25.775-.375T7 2q1.25 0 2.125.875T10 5q0 .475-.125.9t-.375.775M12 17q-.825 0-1.412-.587T10 15v-3q0-.425.15-.775t.425-.625L14 14.025V15q0 .825-.587 1.413T12 17m-.75 5v-2.05q-1.8-.275-3.025-1.675T7 15h1.5q0 1.45 1.025 2.475T12 18.5q1.325 0 2.313-.875t1.162-2.15l1.225 1.25q-.475 1.275-1.525 2.15T12.75 19.95V22zm7.175-8q-.25-1.675-1.287-2.988T14.55 9.026q.575-.125 1.188-.2T17 8.75q1.325 0 2.475.275t2.15.8q.65.35 1.013 1.038T23 12.425V14zM1 14v-1.575q0-.875.363-1.562t1.012-1.038q1-.525 2.15-.8T7 8.75q.5 0 .975.05t.925.125l.25.225q-1.425.7-2.387 1.975T5.575 14z"/></svg>