<svg xmlns="http://www.w3.org/2000/svg" viewBox="0 0 24 24" width="24" height="24"><path fill="currentColor" d="M5.5 21.5q-.425 0-.862-.262T4 20.625L1.5 16.25q-.2-.35-.2-.862t.2-.863L8 3.375q.2-.35.638-.613T9.5 2.5h5q.425 0 .863.263t.637.612l4.55 7.8q-.575-.15-1.187-.2t-1.213.05L14.35 4.5h-4.7L3.3 15.4l2.35 4.1h7.9q.275.575.638 1.075t.837.925zM7.25 17l-.725-1.275L11.1 7.75h1.8l2.525 4.4q-.425.325-.787.712t-.638.813L12 10.2L9.25 15h4.1q-.175.475-.262.975T13 17zM18 21v-3h-3v-2h3v-3h2v3h3v2h-3v3z"/></svg>