<svg xmlns="http://www.w3.org/2000/svg" viewBox="0 0 24 24" width="24" height="24"><path fill="currentColor" d="M17 22q-2.075 0-3.537-1.463T12 17t1.463-3.537T17 12t3.538 1.463T22 17t-1.463 3.538T17 22m-5 0q-3.475-.875-5.738-3.988T4 11.1V5l8-3l8 3v5.675q-.65-.325-1.463-.5T17 10q-2.9 0-4.95 2.05T10 17q0 1.55.588 2.8t1.487 2.175q-.025 0-.037.013T12 22m5-5q.625 0 1.063-.437T18.5 15.5t-.437-1.062T17 14t-1.062.438T15.5 15.5t.438 1.063T17 17m0 3q.775 0 1.425-.363t1.05-.962q-.55-.325-1.175-.5T17 18t-1.3.175t-1.175.5q.4.6 1.05.963T17 20"/></svg>