<svg xmlns="http://www.w3.org/2000/svg" viewBox="0 0 24 24" width="24" height="24"><path fill="currentColor" d="M8 14q.425 0 .713-.288T9 13t-.288-.712T8 12t-.712.288T7 13t.288.713T8 14m4 0q.425 0 .713-.288T13 13t-.288-.712T12 12t-.712.288T11 13t.288.713T12 14m4 0q.425 0 .713-.288T17 13t-.288-.712T16 12t-.712.288T15 13t.288.713T16 14m-4 8q-1.875 0-3.512-.712t-2.85-1.925t-1.925-2.85T3 13t.713-3.512t1.924-2.85t2.85-1.925T12 4t3.513.713t2.85 1.925t1.925 2.85T21 13t-.712 3.513t-1.925 2.85t-2.85 1.925T12 22M5.6 2.35L7 3.75L2.75 8l-1.4-1.4zm12.8 0l4.25 4.25l-1.4 1.4L17 3.75z"/></svg>