<svg xmlns="http://www.w3.org/2000/svg" viewBox="0 0 24 24" width="24" height="24"><path fill="currentColor" d="M18.825 20.975q-3.3 0-6.337-1.163q-3.038-1.162-5.375-3.225q-2.338-2.062-3.725-4.875Q2 8.9 2 5.6q0-1.1.612-1.85Q3.225 3 4.35 3h2.325q.675 0 1.05.387q.375.388.525 1.113q.15.75.338 1.55q.187.8.437 1.425q.225.525.138.987q-.088.463-.513.888l-1.95 1.9q1.2 1.75 3.338 3.387q2.137 1.638 4.162 2.238l1.15-2.325q.225-.45.575-.612q.35-.163.975-.113q.65.05 1.288.05q.637 0 1.437-.05q.75-.05 1.263.4q.512.45.687 1.45l.4 2.25l.05.425q0 1.05-.862 1.838q-.863.787-2.338.787Z"/></svg>