<svg xmlns="http://www.w3.org/2000/svg" viewBox="0 0 24 24" width="24" height="24"><path fill="currentColor" d="M1.825 10.6L.05 8.825q.475-.45.988-.862t1.037-.788L.75 6.225L2.175 4.2l19.65 13.75L20.4 20l-7.825-5.475q-.15-.025-.287-.025H12q-1.275 0-2.437.45T7.45 16.275L5.7 14.5q.8-.775 1.763-1.312t2.012-.838l-1.5-1.05q-.925.375-1.763.913T4.65 13.45L2.9 11.675q.625-.6 1.3-1.1t1.425-.925l-1.35-.95q-.65.425-1.263.888T1.826 10.6M12 20q-.825 0-1.412-.587T10 18t.588-1.412T12 16t1.413.588T14 18t-.587 1.413T12 20M10.025 6.625l-2.8-1.95q1.175-.35 2.363-.513T12 4q3.35 0 6.438 1.238t5.512 3.587L22.175 10.6q-2.05-1.975-4.675-3.037T12 6.5q-.5 0-.987.025t-.988.1m9.5 6.65L11.975 8q2.575 0 4.938.938t4.212 2.712z"/></svg>