<svg xmlns="http://www.w3.org/2000/svg" viewBox="0 0 24 24" width="24" height="24"><path fill="currentColor" d="M8.775 22q-1.125 0-2.087-.7q-.963-.7-1.463-1.75q-.325-.7-.762-1.125Q4.025 18 3.4 18q-.375 0-.712.163q-.338.162-.588.462L.55 17.35q.525-.65 1.287-1Q2.6 16 3.475 16q1.175 0 2.075.65q.9.65 1.35 1.8q.275.725.7 1.137q.425.413 1 .413q.475 0 .875-.275t.675-.7l-6.725-8.45q-.25-.3-.35-.65q-.1-.35-.075-.7q.025-.35.163-.688q.137-.337.412-.612l6.5-6.5q.3-.3.675-.45q.375-.15.75-.15t.738.15q.362.15.662.45l6.525 6.525q.275.275.425.625q.15.35.175.7q.025.2-.012.387q-.038.188-.113.388l-1.3-1.3q-.875-.875-2.112-.863q-1.238.013-2.113.888l-3.5 3.525q-.8.8-.887 1.9q-.088 1.1.562 1.975l2.125 2.8l-1.2 1.575q-.575.75-1.262 1.1q-.688.35-1.438.35Zm4.975 0q-.2 0-.375-.012q-.175-.013-.375-.063v-2q.2.05.413.063q.212.012.337.012q.475 0 .875-.262q.4-.263.65-.638l-3.1-4.1q-.225-.3-.2-.663q.025-.362.3-.637l3.525-3.5q.275-.275.688-.288q.412-.012.712.263l3.525 3.525q.125.125.2.3q.075.175.1.35q.025.175-.025.35t-.175.325L17 20.1q-.775 1.025-1.512 1.462Q14.75 22 13.75 22Z"/></svg>