<svg xmlns="http://www.w3.org/2000/svg" viewBox="0 0 24 24" width="24" height="24"><path fill="currentColor" d="M9 22q-1.45 0-2.725-.55t-2.225-1.5t-1.5-2.225T2 15q0-2.025 1.05-3.7T5.8 8.75q.5-.975 1.238-1.713T8.75 5.8q.825-1.7 2.525-2.75T15 2q1.45 0 2.725.55t2.225 1.5t1.5 2.225T22 9q0 2.125-1.05 3.75t-2.75 2.5q-.5.975-1.237 1.713T15.25 18.2q-.875 1.7-2.55 2.75T9 22m0-2q.825 0 1.588-.25T12 19q-1.45 0-2.725-.55t-2.225-1.5t-1.5-2.225T5 12q-.5.65-.75 1.413T4 15q0 1.05.4 1.95t1.075 1.575T7.05 19.6T9 20m3-3q.825 0 1.613-.25T15.05 16q-1.475 0-2.75-.563t-2.225-1.512T8.563 11.7T8 8.95q-.5.65-.75 1.438T7 12q0 1.05.388 1.95t1.087 1.575q.675.7 1.575 1.087T12 17m3-3q.45 0 .863-.075t.837-.225q.55-1.5.163-2.888t-1.338-2.337t-2.337-1.338T10.3 7.3q-.15.425-.225.838T10 9q0 1.05.388 1.95t1.087 1.575q.675.7 1.575 1.088T15 14m4-1.95q.5-.65.75-1.437T20 9q0-1.05-.387-1.95t-1.088-1.575q-.675-.7-1.575-1.087T15 4q-.875 0-1.638.25T11.95 5q1.475 0 2.75.563t2.225 1.512T18.438 9.3T19 12.05"/></svg>