<svg xmlns="http://www.w3.org/2000/svg" viewBox="0 0 24 24" width="24" height="24"><path fill="currentColor" d="M6 20q-.825 0-1.412-.587T4 18t.588-1.412T6 16t1.413.588T8 18t-.587 1.413T6 20m0-6q-.825 0-1.412-.587T4 12t.588-1.412T6 10t1.413.588T8 12t-.587 1.413T6 14m0-6q-.825 0-1.412-.587T4 6t.588-1.412T6 4t1.413.588T8 6t-.587 1.413T6 8m6 0q-.825 0-1.412-.587T10 6t.588-1.412T12 4t1.413.588T14 6t-.587 1.413T12 8m6 0q-.825 0-1.412-.587T16 6t.588-1.412T18 4t1.413.588T20 6t-.587 1.413T18 8m-6 6q-.825 0-1.412-.587T10 12t.588-1.412T12 10t1.413.588T14 12t-.587 1.413T12 14m1 6v-3.075l5.525-5.5q.225-.225.5-.325t.55-.1q.3 0 .575.113t.5.337l.925.925q.2.225.313.5t.112.55t-.1.563t-.325.512l-5.5 5.5zm6.575-5.6l.925-.975l-.925-.925l-.95.95z"/></svg>