<svg xmlns="http://www.w3.org/2000/svg" viewBox="0 0 24 24" width="24" height="24"><path fill="currentColor" d="M6 20q-.825 0-1.412-.587T4 18t.588-1.412T6 16t1.413.588T8 18t-.587 1.413T6 20m6 0q-.825 0-1.412-.587T10 18t.588-1.412T12 16t1.413.588T14 18t-.587 1.413T12 20m6 0q-.825 0-1.412-.587T16 18t.588-1.412T18 16t1.413.588T20 18t-.587 1.413T18 20M6 14q-.825 0-1.412-.587T4 12t.588-1.412T6 10t1.413.588T8 12t-.587 1.413T6 14m6 0q-.825 0-1.412-.587T10 12t.588-1.412T12 10t1.413.588T14 12t-.587 1.413T12 14m6 0q-.825 0-1.412-.587T16 12t.588-1.412T18 10t1.413.588T20 12t-.587 1.413T18 14M6 8q-.825 0-1.412-.587T4 6t.588-1.412T6 4t1.413.588T8 6t-.587 1.413T6 8m6 0q-.825 0-1.412-.587T10 6t.588-1.412T12 4t1.413.588T14 6t-.587 1.413T12 8m6 0q-.825 0-1.412-.587T16 6t.588-1.412T18 4t1.413.588T20 6t-.587 1.413T18 8"/></svg>