<svg xmlns="http://www.w3.org/2000/svg" viewBox="0 0 24 24" width="24" height="24"><path fill="currentColor" d="M11.025 21.95q-1.9-.2-3.537-1.037t-2.863-2.175T2.7 15.675T2 12q0-3.925 2.613-6.75t6.412-3.2v2.025q-2.975.375-5 2.613T4 12t2.025 5.313t5 2.612zm0-4.95v-6.175l-2.6 2.6L7.025 12l5-5l5 5l-1.425 1.4l-2.575-2.575V17zm2 4.95v-2.025q1.1-.125 2.088-.55t1.812-1.075l1.425 1.45q-1.125.9-2.475 1.475t-2.85.725M16.9 5.7q-.825-.65-1.8-1.075t-2.075-.55V2.05q1.5.15 2.85.725T18.35 4.25zm2.85 12.625L18.325 16.9q.65-.825 1.075-1.812T19.95 13h2.025q-.15 1.5-.737 2.85t-1.488 2.475m.2-7.325q-.125-1.1-.55-2.087T18.325 7.1l1.425-1.425q.9 1.125 1.488 2.475t.737 2.85z"/></svg>