<svg xmlns="http://www.w3.org/2000/svg" viewBox="0 0 24 24" width="24" height="24"><path fill="currentColor" d="M18 21.5q1.35 0 2.338-.9t1.137-2.225q-.125.05-.238.088T21 18.5h-1q-.425 0-.712-.288T19 17.5V17h-2v-1q0-.425.288-.712T18 15h.5q0-.125.025-.238t.075-.212q-.15-.025-.3-.038T18 14.5q-1.45 0-2.475 1.025T14.5 18h2q.825 0 1.412.588T18.5 20v.5H17v.85q.25.075.488.113T18 21.5M12 4.25q.325 0 .538-.213t.212-.537t-.213-.537T12 2.75t-.537.213t-.213.537t.213.538t.537.212M18 23q-2.075 0-3.537-1.463T13 18t1.463-3.537T18 13t3.538 1.463T23 18t-1.463 3.538T18 23M7 9h10V7H7zm4.675 12H5q-.825 0-1.412-.587T3 19V5q0-.825.588-1.412T5 3h4.2q.325-.9 1.088-1.45T12 1t1.713.55T14.8 3H19q.825 0 1.413.588T21 5v6.7q-.725-.35-1.463-.525T18 11q-.275 0-.513.012t-.487.063V11H7v2h6.125q-.45.425-.812.925T11.675 15H7v2h4.075q-.05.25-.062.488T11 18q0 .825.15 1.538T11.675 21"/></svg>