<svg xmlns="http://www.w3.org/2000/svg" viewBox="0 0 24 24" width="24" height="24"><path fill="currentColor" d="M5 21q-.825 0-1.412-.587T3 19V5q0-.825.588-1.412T5 3h4.2q.35-.9 1.1-1.45T12 1t1.7.55T14.8 3H19q.825 0 1.413.588T21 5v14q0 .825-.587 1.413T19 21zm7-16.75q.325 0 .538-.213t.212-.537t-.213-.537T12 2.75t-.537.213t-.213.537t.213.538t.537.212M12 13q1.45 0 2.475-1.025T15.5 9.5t-1.025-2.475T12 6T9.525 7.025T8.5 9.5t1.025 2.475T12 13m-7 6h14v-1.15q-1.35-1.325-3.137-2.087T12 15t-3.863.763T5 17.85z"/></svg>