<svg xmlns="http://www.w3.org/2000/svg" viewBox="0 0 24 24" width="24" height="24"><path fill="currentColor" d="M11.75 22q-2.6 0-4.425-1.825T5.5 15.75V8.3L1.4 4.2l1.4-1.4l18.4 18.4l-1.4 1.4l-3.075-3.075q-.875 1.125-2.162 1.8T11.75 22M7.5 10.3v5.45q-.025 1.775 1.225 3.013T11.75 20q1.125 0 2.038-.525t1.487-1.4l-1.25-1.25q-.375.55-.962.863T11.75 18q-1.15 0-1.95-.8T9 15.25V11.8zm3.5 3.5v1.45q0 .325.213.538t.537.212q.3 0 .513-.2t.237-.5zm5-.65V6h2v9.15zm-3.5-3.5V6.5q-.025-1.05-.737-1.775T10 4q-.65 0-1.175.3t-.875.8L6.525 3.675Q7.15 2.9 8.05 2.45T10 2q1.875 0 3.188 1.312T14.5 6.5v5.15zM11 6v2.15l-2-2V6z"/></svg>