<svg xmlns="http://www.w3.org/2000/svg" viewBox="0 0 24 24" width="24" height="24"><path fill="currentColor" d="M9 15V9h6v6zm3 8q-2.7 0-5.062-1.237T3 18.3V21H1v-6h6v2H4.55q1.275 1.875 3.238 2.938T12 21q2.875 0 5.213-1.65t3.287-4.375l1.95.45q-1.125 3.4-4 5.488T12 23M1.05 11q.175-1.675.8-3.213T3.575 4.95L5 6.375Q4.2 7.4 3.7 8.563T3.075 11zM6.4 4.975L4.975 3.55q1.325-1.1 2.85-1.737T11 1.05v2q-1.275.125-2.425.625T6.4 4.975m11.225 0q-1.025-.8-2.187-1.3T13 3.05v-2q1.675.15 3.213.775T19.05 3.55zM20.95 11q-.125-1.275-.625-2.437t-1.3-2.188L20.45 4.95q1.1 1.3 1.725 2.838T22.95 11z"/></svg>