<svg xmlns="http://www.w3.org/2000/svg" viewBox="0 0 24 24" width="24" height="24"><path fill="currentColor" d="M12 20q-1.2-.95-2.6-1.475T6.5 18q-1.05 0-2.062.275T2.5 19.05q-.525.275-1.012-.025T1 18.15V6.1q0-.275.138-.525T1.55 5.2q.15-.075.288-.15t.287-.125L.65 3.45l1.4-1.4l19.9 19.9l-1.4 1.4l-5.1-5.1q-.95.25-1.812.688T12 20m0-10.85L6.85 4q1.35.05 2.65.413T12 5.5zm0 8.45q.45-.275.913-.5t.962-.425L12 14.8zm4.025-4.425L14 11.15V5.5l5-5v10zm6 6L18.95 16.1q.525.075 1.038.2t1.012.3v-12q.375.125.738.275t.712.325q.275.125.413.375T23 6.1v12.05q0 .425-.288.713t-.687.312"/></svg>