<svg xmlns="http://www.w3.org/2000/svg" viewBox="0 0 24 24" width="24" height="24"><path fill="currentColor" d="M3 9.65V7.525L7.525 3H9.65zm0-4.9V3h1.75zm13.175 1.675q-.25-.275-.537-.537t-.588-.463L17.475 3H19.6zM5.5 14.975l1.925-1.925q.175.275.363.5t.412.425q-.7.175-1.412.438t-1.288.562m12-4.925V10q0-.475-.075-.925T17.2 8.2L21 4.4v2.15zM10.9 4.6L12.525 3h2.125l-1.6 1.6q-.275-.05-.525-.075T12 4.5t-.55.025t-.55.075M3 14.625V12.5l3.6-3.6q-.05.275-.075.55T6.5 10t.025.525t.075.5zM20.725 16.7q-.2-.3-.462-.575t-.563-.5l1.3-1.3v2.125zm-2.9-2.05q-.175-.075-.35-.138t-.35-.112q-.225-.075-.437-.15t-.438-.125L21 9.35v2.15zM12 14q-1.65 0-2.825-1.175T8 10t1.175-2.825T12 6t2.825 1.175T16 10t-1.175 2.825T12 14m-8 7v-1.775q0-.85.425-1.575t1.175-1.1q1.275-.65 2.888-1.1T12 15t3.513.45t2.887 1.1q.75.375 1.175 1.1T20 19.225V21z"/></svg>