<svg xmlns="http://www.w3.org/2000/svg" viewBox="0 0 24 24" width="24" height="24"><path fill="currentColor" d="M6 11.275V13.6q-.5.35-.75.713T5 15q0 .15.038.3t.137.3L6 16h2.25l.15.425L9.5 16h4l.725.95l2.675-.4L18 15h1q0-.325-.25-.687T18 13.6v-2.325q1.45.725 2.225 1.688T21 15l1 1.5l-1 3h-3.1l.1.5l-2.5 1h-7l-.25-.65L5.5 21L2 18.5V16l1.05-.525q-.025-.125-.038-.238T3 15q0-1.075.775-2.038T6 11.276M6.75 13q.125-.375.188-.713T7 11.55q0-.75-.375-1.3t-.85-1.175t-.85-1.388t-.375-1.962q0-.375.038-.8T4.725 4H6.75q-.125.575-.162.95t-.038.7q0 .925.388 1.537T7.775 8.4t.838 1.325T9 11.6q0 .35-.05.7t-.15.7zm4 0q.125-.375.188-.713T11 11.55q0-.75-.375-1.3t-.85-1.175t-.85-1.388t-.375-1.962q0-.375.038-.8T8.725 4h2.025q-.125.575-.175.95t-.05.7q0 .925.387 1.537T11.75 8.4t.838 1.325t.387 1.875q0 .35-.038.7t-.137.7zm4 0q.125-.375.188-.713T15 11.55q0-.75-.375-1.3t-.85-1.175t-.85-1.388t-.375-1.962q0-.375.038-.8T12.725 4h2.025q-.125.575-.175.95t-.05.7q0 .925.387 1.537T15.75 8.4t.838 1.325t.387 1.875q0 .35-.038.7t-.137.7z"/></svg>