<svg xmlns="http://www.w3.org/2000/svg" viewBox="0 0 24 24" width="24" height="24"><path fill="currentColor" d="M9 18q.425 0 .713-.288T10 17t-.288-.712T9 16t-.712.288T8 17t.288.713T9 18m3 0q.425 0 .713-.288T13 17t-.288-.712T12 16t-.712.288T11 17t.288.713T12 18m3 0q.425 0 .713-.288T16 17t-.288-.712T15 16t-.712.288T14 17t.288.713T15 18m-6-3q.425 0 .713-.288T10 14t-.288-.712T9 13t-.712.288T8 14t.288.713T9 15m3 0q.425 0 .713-.288T13 14t-.288-.712T12 13t-.712.288T11 14t.288.713T12 15m3 0q.425 0 .713-.288T16 14t-.288-.712T15 13t-.712.288T14 14t.288.713T15 15m-8-3h10v-1q0-2.075-1.463-3.537T12 6T8.463 7.463T7 11zM4 22q-.825 0-1.412-.587T2 20V4q0-.825.588-1.412T4 2h16q.825 0 1.413.588T22 4v16q0 .825-.587 1.413T20 22z"/></svg>