<svg xmlns="http://www.w3.org/2000/svg" viewBox="0 0 24 24" width="24" height="24"><path fill="currentColor" d="M4.002 18q-1.252 0-2.127-.875T1 15V9q0-1.25.875-2.125T4.002 6h12.073L12.25 8H4.003q-.428 0-.715.288T3 9v6q0 .425.288.713T4 16h10.145q.45.625.965 1.125q.513.5 1.064.875zM18.5 17q-2-.725-3.25-2.95T14 9q1.025-.125 2.125-.625T18.5 7q1.275.875 2.375 1.375T23 9q0 2.825-1.25 5.05T18.5 17m0-2.225q.875-.575 1.5-1.7t.875-2.55q-.575-.2-1.162-.488T18.5 9.375zM13.525 15H4V9h8.021q0 1.8.414 3.3q.413 1.5 1.09 2.7"/></svg>