<svg xmlns="http://www.w3.org/2000/svg" viewBox="0 0 24 24" width="24" height="24"><path fill="currentColor" d="M11 15.75q.325 0 .55-.225t.225-.55t-.225-.562t-.55-.238t-.562.237t-.238.563t.238.55t.562.225m-.575-2.375h1.15q0-.6.1-.85t.5-.65q.575-.55.775-.9t.2-.775q0-.875-.625-1.412T11 8.25q-.8 0-1.35.413T8.85 9.8l1.025.425Q10 9.8 10.3 9.55t.725-.25t.713.263t.287.712q0 .25-.125.463t-.525.562q-.625.575-.788.95t-.162 1.125M4 18.75q-.825 0-1.412-.587T2 16.75v-9.5q0-.825.588-1.412T4 5.25h14q.825 0 1.413.588T20 7.25V9.5h.5q.625 0 1.063.438T22 11v2q0 .65-.437 1.075T20.5 14.5H20v2.25q0 .825-.587 1.413T18 18.75z"/></svg>