<svg xmlns="http://www.w3.org/2000/svg" viewBox="0 0 24 24" width="24" height="24"><path fill="currentColor" d="M4 21q-1.25 0-2.125-.875T1 18V6q0-1.25.875-2.125T4 3h8q1.25 0 2.125.875T15 6v6.3h1q.825 0 1.413.588T18 14.3v3.2q0 .2.15.35t.35.15t.35-.15t.15-.35V11q-.825 0-1.412-.587T17 9V6h1V4h1.5v2h1V4H22v2h1v3q0 .825-.587 1.413T21 11v6.4q0 1.05-.725 1.775T18.5 19.9t-1.775-.725T16 17.4v-3.2h-1V19q0-1.575-1.213-2.787T11 15H6.5q-1.05 0-1.775.725T4 17.5t.725 1.775T6.5 20H11q.425 0 .713-.288T12 19t-.288-.712T11 18H6.5q-.2 0-.35-.15T6 17.5t.15-.35t.35-.15H11q.825 0 1.413.588T13 19t-.587 1.413T11 21z"/></svg>