<svg xmlns="http://www.w3.org/2000/svg" viewBox="0 0 24 24" width="24" height="24"><path fill="currentColor" d="M5 21q-.825 0-1.412-.587T3 19V6.525q0-.35.113-.675t.337-.6L4.7 3.725q.275-.35.687-.538T6.25 3h11.5q.45 0 .863.188t.687.537l1.25 1.525q.225.275.338.6t.112.675V10q-.825 0-1.562.2t-1.313.8L16 13.125V8H8v8l4-2l2.075 1.05L12 17.1V21zm9 0v-3.075l5.525-5.5q.225-.225.5-.325t.55-.1q.3 0 .575.113t.5.337l.925.925q.2.225.313.5t.112.55t-.1.563t-.325.512l-5.5 5.5zm6.575-5.6l.925-.975l-.925-.925l-.95.95zM5.4 6h13.2l-.85-1H6.25z"/></svg>