<svg xmlns="http://www.w3.org/2000/svg" viewBox="0 0 24 24" width="24" height="24"><path fill="currentColor" d="M12 22q-2.075 0-3.9-.788t-3.175-2.137T2.788 15.9T2 12t.788-3.9t2.137-3.175T8.1 2.788T12 2q.5 0 1 .063t1 .112v2.05q-.5-.05-1-.112t-1-.063q-.65.9-1.125 1.888T10.1 8H13v2H9.65q-.075.5-.112 1T9.5 12t.038 1t.112 1h4.7q.075-.5.113-1t.037-1t-.037-1t-.113-1h2q.075.5.113 1t.037 1t-.037 1t-.113 1h3.4q.125-.5.188-1T20 12t-.062-1t-.188-1h2.05q.1.5.15 1t.05 1q0 2.075-.788 3.9t-2.137 3.175t-3.175 2.138T12 22m-7.75-8h3.4q-.075-.5-.112-1T7.5 12t.038-1t.112-1h-3.4q-.125.5-.187 1T4 12t.063 1t.187 1m5.15 5.55q-.45-.85-.788-1.737T8.05 16H5.1q.725 1.275 1.825 2.188T9.4 19.55M5.1 8h2.95q.225-.925.563-1.812T9.4 4.45q-1.375.45-2.475 1.363T5.1 8M12 19.95q.65-.9 1.125-1.887T13.9 16h-3.8q.3 1.075.775 2.063T12 19.95m2.6-.4q1.375-.45 2.475-1.362T18.9 16h-2.95q-.225.925-.562 1.813T14.6 19.55M16 8V2h6v6zm3-3h2V3h-2z"/></svg>