<svg xmlns="http://www.w3.org/2000/svg" viewBox="0 0 24 24" width="24" height="24"><path fill="currentColor" d="M16.25 21v-5q-.225-.2-.363-.462T15.75 15q0-.525.375-.888T17 13.75q.525 0 .888.363t.362.887q0 .275-.112.55t-.388.45v5zM2 20V8l8-6l6.75 5.025q-.7.025-1.35.15t-1.275.375q-2.25.875-3.675 2.875T9.025 15q0 1.425.45 2.65T10.8 20zm10.4-.4q-.875-.95-1.388-2.137T10.5 15q0-2.725 1.9-4.612T17 8.5q2.725 0 4.613 1.888T23.5 15q0 1.275-.475 2.463t-1.4 2.112L20.55 18.5q.725-.725 1.088-1.625T22 15q0-2.1-1.45-3.55T17 10q-2.075 0-3.537 1.45T12 15q0 .975.388 1.888t1.087 1.637zm1.775-1.775q-.55-.575-.862-1.3T13 15q0-1.675 1.175-2.838T17 11q1.675 0 2.838 1.163T21 15q0 .775-.288 1.5t-.862 1.3l-1.075-1.05q.35-.35.538-.8T19.5 15q0-1.05-.725-1.775T17 12.5t-1.775.725T14.5 15q0 .5.2.95t.55.8z"/></svg>