<svg xmlns="http://www.w3.org/2000/svg" viewBox="0 0 24 24" width="24" height="24"><path fill="currentColor" d="M8.5 16q.625 0 1.063-.437T10 14.5t-.437-1.062T8.5 13t-1.062.438T7 14.5t.438 1.063T8.5 16m4.5 6l2-2q-.825 0-1.412-.587T13 18v-4q0-1.775 1.25-2.887T17.5 10t3.25 1.113T22 14v4q0 .825-.587 1.413T20 20l2 2zm4.5-4q.3 0 .525-.225t.225-.525t-.225-.525t-.525-.225t-.525.225t-.225.525t.225.525t.525.225m-3-3h6v-1q0-.275-.05-.525T20.3 13h-5.6q-.1.225-.15.475T14.5 14zM6 21q-.425 0-.712-.288T5 20v-2.05q-.45-.5-.725-1.112T4 15.5V6q0-2.075 1.925-3.037T12 2q4.3 0 6.15.925T20 6v2.4q-.45-.15-.95-.238T18 8.025V7H6v3h6.5q-.75.825-1.125 1.85T11 14v5H8v1q0 .425-.288.713T7 21z"/></svg>