<svg xmlns="http://www.w3.org/2000/svg" viewBox="0 0 24 24" width="24" height="24"><path fill="currentColor" d="M8.975 22v-1q0-.825.588-1.412T11 19h5.1q.45 0 .925.163t.975.512v-1.1q0-1.575.438-3.25t1.262-3.45l.45-1.025q.3-.65.2-1.312T19.775 8.4q-.2-.2-.3-.45t-.1-.525q0-.575.425-1t1-.425q.5 0 .913.263t.637.712q.325.65.488 1.325T23 9.65q0 .35-.05.738t-.175.812l-2.4 9.325q-.2.65-.725 1.063t-1.2.412zM16 6q-.825 0-1.412-.587T14 4t.588-1.412T16 2t1.413.588T18 4t-.587 1.413T16 6M4 16l-1.05-1.05l1.175-1.2H1v-1.5h3.125l-1.175-1.2L4 10l3 3zm5.125-6.175L7.875 9l.225-.325q.075-.125.1-.262t.025-.288q0-.2-.025-.337t-.225-.338q-.3-.3-.537-.787T7.2 5.675q0-.375.138-.712t.337-.638L7.9 4l1.25.85l-.225.3q-.075.125-.15.262T8.7 5.7q0 .2.088.362t.262.338q.275.275.45.675t.225.825t-.038.838t-.337.762zm-3.05-.075l-1.35-.675l.2-.375q.075-.125.088-.275t.012-.3q0-.2-.038-.375T4.8 7.375q-.25-.325-.412-.788T4.225 5.7q0-.325.088-.638t.237-.587l.175-.375l1.35.65l-.2.4q-.075.125-.113.263t-.037.287q0 .2.063.388T6 6.475q.25.325.388.775t.137.875q0 .325-.062.65t-.213.6zM12.125 8H10.6l.725-4.925Q10.25 2.8 9.175 2.65T7 2.5t-2.175.15t-2.15.425L3.4 8H1.875L1 2l1.763-.5Q4.525 1 7 1q1.225 0 2.313.15t1.912.35Q12.2 1.725 13 2zM4 23l-3-3l1.05-1.05l1.2 1.175V17h1.5v3.125l1.2-1.175L7 20zm3.95-4.85L6.475 16.7L7.45 15q.275-.475.737-.737T9.2 14h2.3l1.45-5.025q.25-.875.925-1.425T15.4 7q1.2 0 1.963.913t.537 2.112L16.825 15.4q-.125.7-.687 1.15T14.85 17H8.625z"/></svg>