<svg xmlns="http://www.w3.org/2000/svg" viewBox="0 0 24 24" width="24" height="24"><path fill="currentColor" d="m17.325 10l-.275-1.175q-.275-.1-.537-.25t-.488-.35l-1.15.375l-.675-1.15l.875-.85q-.05-.3-.05-.6t.05-.6l-.875-.8l.675-1.15L16 3.775q.225-.2.488-.35t.562-.25L17.325 2h1.325l.3 1.15q.3.125.563.275t.487.35l1.125-.325l.675 1.15l-.85.8q.05.3.063.613t-.063.612l.85.8l-.65 1.15l-1.15-.35q-.225.2-.5.35t-.55.25L18.65 10zM18 7.5q.625 0 1.063-.437T19.5 6t-.437-1.062T18 4.5t-1.062.438T16.5 6t.438 1.063T18 7.5M7.5 16q.625 0 1.063-.437T9 14.5t-.437-1.062T7.5 13t-1.062.438T6 14.5t.438 1.063T7.5 16m9 0q.625 0 1.063-.437T18 14.5t-.437-1.062T16.5 13t-1.062.438T15 14.5t.438 1.063T16.5 16m1.5-4q.8 0 1.563-.2T21 11.2V20q0 .425-.288.713T20 21h-1q-.425 0-.712-.288T18 20v-1H6v1q0 .425-.288.713T5 21H4q-.425 0-.712-.288T3 20v-8l2.075-6q.15-.45.538-.725T6.5 5h5.6q-.05.25-.075.488T12 6t.025.513T12.1 7H6.85L5.8 10h7.75q.875.95 2.025 1.475T18 12"/></svg>