<svg xmlns="http://www.w3.org/2000/svg" viewBox="0 0 24 24" width="24" height="24"><path fill="currentColor" d="M7 20.025V11h1.6q.175 0 .35.038t.35.087l6.925 2.575q.35.125.563.45t.212.675q0 .525-.363.85T15.8 16h-2.625q-.125 0-.187-.012t-.163-.063l-1.6-.625l-.325.975l1.925.675q.05.025.15.038t.175.012H20q.8 0 1.4.575T22 19l-7.975 3zM1 22V11h4v11zm14-10.35L9.25 9.5h-4q.425-1.275 1.413-2.2T9 6.1V4H7.5V2H13q.85 0 1.6.275t1.375.75L14.55 4.45q-.35-.2-.738-.325T13 4h-2v2.1q1.725.35 2.862 1.713T15 11zM19 10q-.825 0-1.412-.588T17 8q0-.575.425-1.425T19 4q1.15 1.725 1.575 2.575T21 8q0 .825-.587 1.413T19 10"/></svg>