<svg xmlns="http://www.w3.org/2000/svg" viewBox="0 0 24 24" width="24" height="24"><path fill="currentColor" d="M14.1 18q-.275 0-.425-.225q-.15-.225-.05-.475l4.425-11q.05-.15.188-.225q.137-.075.287-.075H22q.275 0 .425.225q.15.225.025.475l-4.425 11q-.05.15-.188.225Q17.7 18 17.55 18Zm-6.725 0q-.275 0-.425-.225q-.15-.225-.025-.475l4.425-11q.05-.15.188-.225q.137-.075.287-.075H15.3q.275 0 .413.225q.137.225.037.475l-4.45 11q-.05.15-.175.225Q11 18 10.85 18Zm-3.15-5.5q-.275 0-.425-.225q-.15-.225-.05-.475l1.025-2.5q.05-.15.175-.225Q5.075 9 5.225 9H7.65q.275 0 .438.225q.162.225.037.475L7.1 12.2q-.05.15-.175.225q-.125.075-.275.075ZM2 18q-.275 0-.425-.225q-.15-.225-.025-.475l1-2.5q.05-.15.175-.225Q2.85 14.5 3 14.5h2.45q.275 0 .413.225q.137.225.037.475l-1 2.5q-.05.15-.187.225q-.138.075-.288.075Z"/></svg>