<svg xmlns="http://www.w3.org/2000/svg" viewBox="0 0 24 24" width="24" height="24"><path fill="currentColor" d="M6 19q-.425 0-.712-.288T5 18t.288-.712T6 17t.713.288T7 18t-.288.713T6 19m12 0q-.425 0-.712-.288T17 18t.288-.712T18 17t.713.288T19 18t-.288.713T18 19m-9 4q-.425 0-.712-.288T8 22t.288-.712T9 21t.713.288T10 22t-.288.713T9 23m3-4q-.425 0-.712-.288T11 18t.288-.712T12 17t.713.288T13 18t-.288.713T12 19m3 4q-.425 0-.712-.288T14 22t.288-.712T15 21t.713.288T16 22t-.288.713T15 23m-7.5-7q-2.275 0-3.887-1.612T2 10.5q0-2.075 1.375-3.625t3.4-1.825q.8-1.425 2.188-2.238T12 2q2.25 0 3.913 1.438t2.012 3.587q1.725.15 2.9 1.425T22 11.5q0 1.875-1.312 3.188T17.5 16z"/></svg>