<svg xmlns="http://www.w3.org/2000/svg" viewBox="0 0 24 24" width="24" height="24"><path fill="currentColor" d="M9.8 19q-2.5 0-4.637-1.275t-3.313-3.5l-.625-1.15q-.275-.55-.213-1.15t.463-1.075L6.5 4.725q.225-.275.525-.45t.65-.225t.675-.012t.65.212l3 1.6l2.45-1.35q.425-.25.9-.175t.825.425q.35.325.438.788t-.113.887l-3.1 7.225q-.275.65-.9.975t-1.35.175l-7.6-1.625q.9 1.775 2.588 2.8T9.8 17h4.475q1.375 0 2.65-.525T19.175 15h-.85q-.925 0-1.512-.7t-.463-1.6l.675-4.45q.075-.475.375-.775t.7-.425t.813-.012t.737.462l2.85 3.35q.375.45.463 1.038T22.8 13l-.375.8q-1.125 2.375-3.312 3.788T14.275 19z"/></svg>