<svg xmlns="http://www.w3.org/2000/svg" viewBox="0 0 24 24" width="24" height="24"><path fill="currentColor" d="M14.85 17.35q.2-.45.35-.925t.275-.975l-1.7-1.7q-.125.725-.312 1.438T13 16.55zM11.6 16q.375-.875.563-1.775t.237-1.85L10.225 10.2q.1.425.138.875T10.4 12q0 .875-.15 1.688t-.5 1.562zm-3.2-1.35q.225-.6.363-1.263T8.9 12t-.137-1.388T8.4 9.35l-1.85.75q.15.45.25.925t.1.975t-.1.975t-.25.925zm12.075 8.65l-2.95-2.95q-1.2.8-2.587 1.225T12 22q-2.075 0-3.9-.788t-3.175-2.137T2.788 15.9T2 12q0-1.625.475-3.088t1.35-2.687H6.25L20.375 20.35h-2.85L.675 3.5L2.1 2.075l19.8 19.8zm-.1-5.8l-4.5-4.5q.025-.25.025-.5V12q0-1.425-.262-2.762T14.85 6.65l-1.85.8q.35.825.563 1.7t.287 1.825L12 9.125l-.15-.55q-.075-.275-.2-.55l-.525.225L6.5 3.625q1.2-.775 2.588-1.2T12 2q2.075 0 3.9.788t3.175 2.137T21.213 8.1T22 12q0 1.525-.425 2.913t-1.2 2.587"/></svg>