<svg xmlns="http://www.w3.org/2000/svg" viewBox="0 0 24 24" width="24" height="24"><path fill="currentColor" d="M12 22q-2.075 0-3.9-.788t-3.175-2.137T2.788 15.9T2 12q0-2.85 1.488-5.262T7.525 3.05q.025.475.1.963t.25 1.137q-1.8 1.1-2.838 2.913T4 12q0 3.35 2.325 5.675T12 20t5.675-2.325T20 12q0-2.125-1.037-3.95T16.1 5.125q.175-.65.25-1.137t.125-.938q2.55 1.275 4.038 3.675T22 12q0 2.075-.788 3.9t-2.137 3.175t-3.175 2.138T12 22m0-4q-2.5 0-4.25-1.75T6 12q0-1.45.638-2.725T8.45 7.15q.125.375.275.863t.4 1.212q-.55.575-.837 1.275T8 12q0 1.65 1.175 2.825T12 16t2.825-1.175T16 12q0-.8-.288-1.5t-.837-1.275q.2-.6.363-1.112t.287-.963Q16.7 8 17.35 9.275T18 12q0 2.5-1.75 4.25T12 18m-1-9.5q-.925-2.8-1.213-3.937T9.5 2.5q0-1.05.725-1.775T12 0t1.775.725T14.5 2.5q0 .925-.288 2.063T13 8.5zm1 5.5q-.825 0-1.412-.587T10 12t.588-1.412T12 10t1.413.588T14 12t-.587 1.413T12 14"/></svg>