<svg xmlns="http://www.w3.org/2000/svg" viewBox="0 0 24 24" width="24" height="24"><path fill="currentColor" d="M13.275 17.5h2.4v-.075L11.55 13.05l.025-.075h.25q1.35 0 2.238-.825t1.087-1.925h1V9.05h-1.025q-.075-.375-.262-.712t-.463-.663h1.75V6.5h-8.3v1.425h3.9q.65 0 1.063.325t.562.8H7.85v1.175h5.55q-.15.5-.575.863t-1.15.362h-2.5v1.6zM12 22q-2.075 0-3.9-.788t-3.175-2.137T2.788 15.9T2 12t.788-3.9t2.137-3.175T8.1 2.788T12 2t3.9.788t3.175 2.137T21.213 8.1T22 12t-.788 3.9t-2.137 3.175t-3.175 2.138T12 22"/></svg>