<svg xmlns="http://www.w3.org/2000/svg" viewBox="0 0 24 24" width="24" height="24"><path fill="currentColor" d="M12 16q-1.65 0-2.825-1.175T8 12t1.175-2.825T12 8t2.825 1.175T16 12t-1.175 2.825T12 16m0-2q.825 0 1.413-.587T14 12t-.587-1.412T12 10t-1.412.588T10 12t.588 1.413T12 14m4.525 8q.45-1.4.675-2.5t.35-1.75q-1.075 1.05-2.5 1.65T12 20q-3.4 0-5.962-.462T2 18.65v-2.125q1.4.45 2.5.675t1.75.35q-1.05-1.075-1.65-2.5T4 12q0-3.425.462-5.975T5.35 2h2.125q-.45 1.4-.687 2.5T6.45 6.25Q7.525 5.2 8.95 4.6T12 4q3.425 0 5.975.462T22 5.35v2.125q-1.4-.45-2.5-.687t-1.75-.338q1.05 1.075 1.65 2.5T20 12q0 3.425-.462 5.975T18.65 22zM12 18q2.5 0 4.25-1.75T18 12t-1.75-4.25T12 6T7.75 7.75T6 12t1.75 4.25T12 18"/></svg>