<svg xmlns="http://www.w3.org/2000/svg" viewBox="0 0 24 24" width="24" height="24"><path fill="currentColor" d="M12 11q3.75 0 6.375-1.175T21 7t-2.625-2.825T12 3T5.625 4.175T3 7t2.625 2.825T12 11m0 2.5q1.025 0 2.563-.213t2.962-.687t2.45-1.237T21 9.5V12q0 1.1-1.025 1.863t-2.45 1.237t-2.962.688T12 16t-2.562-.213t-2.963-.687t-2.45-1.237T3 12V9.5q0 1.1 1.025 1.863t2.45 1.237t2.963.688T12 13.5m0 5q1.025 0 2.563-.213t2.962-.687t2.45-1.237T21 14.5V17q0 1.1-1.025 1.863t-2.45 1.237t-2.962.688T12 21t-2.562-.213t-2.963-.687t-2.45-1.237T3 17v-2.5q0 1.1 1.025 1.863t2.45 1.237t2.963.688T12 18.5"/></svg>