<svg xmlns="http://www.w3.org/2000/svg" viewBox="0 0 24 24" width="24" height="24"><path fill="currentColor" d="M11.025 18.475q.05.675.213 1.313T11.675 21q-1.075-.025-2.562-.25t-2.85-.7t-2.313-1.225T3 17v-2.5q0 .975.838 1.7t2.05 1.2t2.612.738t2.525.337m1.65-5q-.475.55-.825 1.175t-.55 1.325q-1.125-.05-2.562-.3t-2.713-.725t-2.15-1.2T3 12V9.5q0 1.1 1.025 1.863t2.45 1.237t2.963.688T12 13.5q.15 0 .313-.012t.362-.013M12 11q-3.75 0-6.375-1.175T3 7t2.625-2.825T12 3t6.375 1.175T21 7t-2.625 2.825T12 11m5.5 10h1v-4.1l1.8 1.8l.7-.7l-3-3l-3 3l.7.7l1.8-1.8zm.5 2q-2.075 0-3.537-1.463T13 18t1.463-3.537T18 13t3.538 1.463T23 18t-1.463 3.538T18 23"/></svg>