<svg xmlns="http://www.w3.org/2000/svg" viewBox="0 0 24 24" width="24" height="24"><path fill="currentColor" d="M14 20v-2h3q.425 0 .713-.288T18 17v-2q0-.95.55-1.725t1.45-1.1v-.35q-.9-.325-1.45-1.1T18 9V7q0-.425-.288-.712T17 6h-3V4h3q1.25 0 2.125.875T20 7v2q0 .425.288.713T21 10h1v4h-1q-.425 0-.712.288T20 15v2q0 1.25-.875 2.125T17 20zm-7 0q-1.25 0-2.125-.875T4 17v-2q0-.425-.288-.712T3 14H2v-4h1q.425 0 .713-.288T4 9V7q0-1.25.875-2.125T7 4h3v2H7q-.425 0-.712.288T6 7v2q0 .95-.55 1.725T4 11.825v.35q.9.325 1.45 1.1T6 15v2q0 .425.288.713T7 18h3v2z"/></svg>