<svg xmlns="http://www.w3.org/2000/svg" viewBox="0 0 24 24" width="24" height="24"><path fill="currentColor" d="M3.5 13v-3H1l3.5-5v3H7zm3.3 7q-1.25 0-2.125-.875T3.8 17q0-.625.288-1.175t.787-.95L10.85 6h-4.3l.425-2H18l-.925 4H20l3 4l-1 5h-2q0 1.25-.875 2.125T17 20t-2.125-.875T14 17H9.8q0 1.25-.875 2.125T6.8 20m.2-2q.425 0 .713-.288T8 17t-.288-.712T7 16t-.712.288T6 17t.288.713T7 18m10 0q.425 0 .713-.288T18 17t-.288-.712T17 16t-.712.288T16 17t.288.713T17 18m-1.075-5h4.825l.1-.525L19 10h-2.375z"/></svg>