<svg xmlns="http://www.w3.org/2000/svg" viewBox="0 0 24 24" width="24" height="24"><path fill="currentColor" d="M17 2.125q1.65 0 2.825 1.175T21 6.125q0 .275-.038.738t-.112 1.062L19.475 18q-.125.95-.862 1.55t-1.688.6q-.575 0-1.062-.25t-.813-.7l-2.675-3.9q-.05-.1-.162-.137t-.238-.038q-.1 0-.4.225l-2.6 3.775q-.35.5-.862.763t-1.088.262q-.95 0-1.675-.612t-.85-1.563L3.15 7.925q-.075-.6-.112-1.062T3 6.125Q3 4.475 4.175 3.3T7 2.125q.9 0 1.438.238t1.037.512t1.063.513T12 3.625t1.463-.238t1.062-.512t1.05-.513T17 2.125"/></svg>