<svg xmlns="http://www.w3.org/2000/svg" viewBox="0 0 24 24" width="24" height="24"><path fill="currentColor" d="M17 21.025q-.2 0-.4-.05t-.375-.175l-3-1.75q-.35-.2-.537-.537t-.188-.738V14.25q0-.4.188-.737t.537-.538l3-1.75q.175-.125.375-.175T17 11t.388.063t.362.162l3 1.75q.35.2.55.538t.2.737v3.525q0 .4-.2.738t-.55.537l-3 1.75q-.175.1-.363.163t-.387.062M2 20v-2.8q0-.825.425-1.55t1.175-1.1q1.275-.65 2.875-1.1T10 13h.35q.15 0 .3.05q-.725 1.8-.6 3.575T11.25 20zm8-8q-1.65 0-2.825-1.175T6 8t1.175-2.825T10 4t2.825 1.175T14 8t-1.175 2.825T10 12m4.65 1.85L17 15.225l2.35-1.375L17 12.5zm3.1 5.2l2.25-1.3V15l-2.25 1.325zM14 17.75l2.25 1.325V16.35L14 15.025z"/></svg>