<svg xmlns="http://www.w3.org/2000/svg" viewBox="0 0 24 24" width="24" height="24"><path fill="currentColor" d="M12 21q-2.2 0-4.212-.825t-3.563-2.4L5.65 16.35q1.275 1.275 2.925 1.963t3.45.687t3.438-.675t2.912-1.95l1.4 1.4q-1.575 1.575-3.575 2.4T12 21m0-4q-1.4 0-2.675-.525T7.05 14.95l1.4-1.4q.725.725 1.638 1.087T12 15t1.913-.363t1.637-1.087l1.4 1.4q-1 1-2.275 1.525T12 17M8.1 8l.3 1h7.2l.3-1zm.3 3q-.65 0-1.175-.387T6.5 9.6L6 8H5q-.825 0-1.412-.587T3 6V3h18v3q0 .825-.587 1.413T19 8h-1l-.65 1.7q-.225.575-.725.938T15.5 11z"/></svg>