<svg xmlns="http://www.w3.org/2000/svg" viewBox="0 0 24 24" width="24" height="24"><path fill="currentColor" d="M4 14.225h1.125l.575-1.65h2.6l.6 1.65H10l-2.425-6.45h-1.15zm2.025-2.575l.95-2.675h.05l.95 2.675zM14 9.9V8.2q.825-.35 1.688-.525T17.5 7.5q.65 0 1.275.1T20 7.85v1.6q-.6-.225-1.213-.337T17.5 9q-.95 0-1.825.238T14 9.9m0 5.5v-1.7q.825-.35 1.688-.525T17.5 13q.65 0 1.275.1t1.225.25v1.6q-.6-.225-1.213-.338T17.5 14.5q-.95 0-1.825.225T14 15.4m0-2.75v-1.7q.825-.35 1.688-.525t1.812-.175q.65 0 1.275.1T20 10.6v1.6q-.6-.225-1.213-.338T17.5 11.75q-.95 0-1.825.238T14 12.65m-1 4.4q1.1-.525 2.213-.788T17.5 16q.9 0 1.763.15T21 16.6V6.7q-.825-.35-1.713-.525T17.5 6q-1.175 0-2.325.3T13 7.2zM12 20q-1.2-.95-2.6-1.475T6.5 18q-1.05 0-2.062.275T2.5 19.05q-.525.275-1.012-.025T1 18.15V6.1q0-.275.138-.525T1.55 5.2q1.15-.6 2.4-.9T6.5 4q1.45 0 2.838.375T12 5.5q1.275-.75 2.663-1.125T17.5 4q1.3 0 2.55.3t2.4.9q.275.125.413.375T23 6.1v12.05q0 .575-.487.875t-1.013.025q-.925-.5-1.937-.775T17.5 18q-1.5 0-2.9.525T12 20"/></svg>