<svg xmlns="http://www.w3.org/2000/svg" viewBox="0 0 24 24" width="24" height="24"><path fill="currentColor" d="m3.95 19l-1.9-6.7q-.075-.3.063-.7t.587-.55L4 10.6V6q0-.825.588-1.412T6 4h3V1h6v3h3q.825 0 1.413.588T20 6v4.6l1.3.45q.525.2.625.588t.025.662l-1.9 6.7q-1.25 0-2.275-.587T16 17q-.75.825-1.775 1.413T12 19t-2.225-.587T8 17q-.75.825-1.775 1.413T3.95 19M2 23v-2h2q1.05 0 2.075-.325T8 19.7q.9.65 1.925.95t2.075.3t2.075-.3T16 19.7q.9.65 1.925.975T20 21h2v2h-2q-1.05 0-2.05-.25T16 22q-.95.5-1.963.75T12 23t-2.037-.25T8 22q-.95.5-1.95.75T4 23zM6 9.95L12 8l6 1.95V6H6z"/></svg>