<svg xmlns="http://www.w3.org/2000/svg" viewBox="0 0 24 24" width="24" height="24"><path fill="currentColor" d="M12 22q-2.075 0-3.9-.788t-3.175-2.137T2.788 15.9T2 12t.788-3.9t2.137-3.175T8.1 2.788T12 2q3 0 5.475 1.638T21.15 8H18v12q-1.325.95-2.85 1.475T12 22m0-5.5q1.875 0 3.188-1.312T16.5 12t-1.312-3.187T12 7.5T8.813 8.813T7.5 12t1.313 3.188T12 16.5m0-3.5q-.425 0-.712-.288T11 12t.288-.712T12 11t.713.288T13 12t-.288.713T12 13m9 9q-.425 0-.712-.288T20 21t.288-.712T21 20t.713.288T22 21t-.288.713T21 22m-1-4v-8h2v8z"/></svg>