<svg xmlns="http://www.w3.org/2000/svg" viewBox="0 0 24 24" width="24" height="24"><path fill="currentColor" d="M12 22q-2.65 0-4.325-.837T6 19q0-.6.363-1.112T7.374 17l1.575 1.475q-.225.1-.488.225t-.412.3q.325.4 1.5.7T12 20t2.463-.3t1.512-.7q-.175-.2-.45-.325T15 18.45l1.55-1.5q.7.4 1.075.913T18 19q0 1.325-1.675 2.163T12 22m0-3q-3.525-2.6-5.262-5.05T5 9.15q0-1.775.638-3.113T7.275 3.8t2.25-1.35T12 2t2.475.45t2.25 1.35t1.638 2.238T19 9.15q0 2.35-1.737 4.8T12 19m0-8q.825 0 1.413-.587T14 9t-.587-1.412T12 7t-1.412.588T10 9t.588 1.413T12 11"/></svg>