<svg xmlns="http://www.w3.org/2000/svg" viewBox="0 0 24 24" width="24" height="24"><path fill="currentColor" d="M12 24q-3.025-2.575-4.512-4.775T6 15.15q0-2.55 1.738-4.35T12 9t4.263 1.8T18 15.15q0 1.875-1.487 4.075T12 24m0-7.5q.625 0 1.063-.437T13.5 15t-.437-1.062T12 13.5t-1.062.438T10.5 15t.438 1.063T12 16.5M8.45 7.45l-1.4-1.4q1-1 2.275-1.525T12 4t2.675.525T16.95 6.05l-1.4 1.4q-.725-.725-1.637-1.088T12 6t-1.912.363T8.45 7.45m-2.8-2.825l-1.425-1.4Q5.8 1.65 7.8.825T12 0t4.2.825t3.575 2.4l-1.4 1.425Q17.1 3.375 15.45 2.687T12 2t-3.437.675t-2.913 1.95"/></svg>