<svg xmlns="http://www.w3.org/2000/svg" viewBox="0 0 24 24" width="24" height="24"><path fill="currentColor" d="M11.5 17q1.875 0 3.188-1.312T16 12.5V8h-4.5Q9.625 8 8.313 9.313T7 12.5q0 .65.175 1.25T7.7 14.9l-.4.4q-.275.275-.275.7t.275.7t.7.275t.7-.275l.4-.4q.55.35 1.15.525T11.5 17m.5 6l-3.45-2.7l-4.325-.525L3.7 15.45L1 12l2.7-3.45l.525-4.325L8.55 3.7L12 1l3.45 2.7l4.325.525l.525 4.325L23 12l-2.7 3.45l-.525 4.325l-4.325.525zm.7-10.3q.275-.3.275-.712T12.7 11.3t-.687-.275t-.713.275l-1.4 1.4q-.3.3-.3.713t.3.712t.713.3t.687-.3z"/></svg>