<svg xmlns="http://www.w3.org/2000/svg" viewBox="0 0 24 24" width="24" height="24"><path fill="currentColor" d="M4.45 13.2q.075.35.35.575t.625.225H7.65q.35 0 .625-.213t.35-.537l.775-3.025q-.675-.125-1.525-.162t-1.55-.038q-.575 0-1.237.013T3.85 10.1zM14 14.85q-.2-.25-.337-.525t-.213-.6l-.675-2.675H11.25l-.675 2.675Q10.3 14.75 9.5 15.375T7.675 16H5.45q-1.05 0-1.888-.675T2.5 13.6l-.725-3.35l-1.1.075l-.175-2q1.95-.175 3.338-.25T6.325 8q1.625 0 2.625.15t1.8.525q.35.175.663.25T12 9t.538-.075t.612-.225q.825-.375 1.9-.537T17.9 8q1.15 0 2.55.075t3.05.225l-.175 1.975l-1.075-.075l-.625 2.9q-.425-.325-.887-.575t-.963-.375l.425-2.075q-.5-.025-1.15-.038t-1.15-.012q-.75 0-1.662.038t-1.638.162l.75 2.9q-.425.35-.762.788T14 14.85M17.75 20v-6h1.5v6zM15 18.5v-3h1.5v3zm5.5 0v-3H22v3z"/></svg>