<svg xmlns="http://www.w3.org/2000/svg" viewBox="0 0 24 24" width="24" height="24"><path fill="currentColor" d="M9 16.25q-.525 0-.888-.363T7.75 15t.363-.888T9 13.75t.888.363t.362.887t-.363.888T9 16.25m6 0q-.525 0-.888-.363T13.75 15t.363-.888t.887-.362t.888.363t.362.887t-.363.888t-.887.362M12 22q3.35 0 5.675-2.325T20 14q0-.6-.075-1.162t-.275-1.088q-.525.125-1.05.188T17.5 12q-2.275 0-4.3-.975T9.75 8.3q-.8 1.95-2.287 3.388T4 13.85V14q0 3.35 2.325 5.675T12 22m0 2q-2.075 0-3.9-.787t-3.175-2.138T2.788 17.9T2 14q0-.725.1-1.437t.3-1.363Q1.325 10.55.663 9.438T0 6.975Q0 4.9 1.45 3.45T4.975 2q1.325 0 2.438.638T9.2 4.4q.65-.2 1.363-.3T12 4q2.075 0 3.9.788t3.175 2.137t2.138 3.175T22 14t-.788 3.9t-2.137 3.175t-3.175 2.138T12 24"/></svg>