<svg xmlns="http://www.w3.org/2000/svg" viewBox="0 0 24 24" width="24" height="24"><path fill="currentColor" d="M12 22q-2.05 0-3.875-.788t-3.188-2.15q-1.362-1.362-2.15-3.187T2 12q0-2.15.825-3.988t2.213-3.187q1.387-1.35 3.187-2.1T12 2q1.025 0 2 .175t2 .675l-3.475 1.6l4.75 2.3l1.45 3.175q-2.275.275-4.688-.525T9.75 6.3q-.875 2.125-2.388 3.5T4 11.85q0 3.475 2.337 5.813T12 20q3.4 0 5.725-2.4T20 12q0-.35-.025-.625t-.075-.625L21.15 8q.45 1.05.65 2.013T22 12q0 2-.763 3.813T19.137 19q-1.337 1.375-3.162 2.188T12 22Zm-3-7.75q-.525 0-.888-.363T7.75 13q0-.525.363-.888T9 11.75q.525 0 .888.363t.362.887q0 .525-.363.888T9 14.25Zm6 0q-.525 0-.888-.363T13.75 13q0-.525.363-.888T15 11.75q.525 0 .888.363t.362.887q0 .525-.363.888T15 14.25ZM19.5 8l-1.1-2.4L16 4.5l2.4-1.1L19.5 1l1.1 2.4L23 4.5l-2.4 1.1L19.5 8Z"/></svg>