<svg xmlns="http://www.w3.org/2000/svg" viewBox="0 0 24 24" width="24" height="24"><path fill="currentColor" d="M9.75 23q-1.275 0-2.262-.763T6.15 20.276Q6 19.7 5.525 19.35T4.45 19q-.4 0-.75.163t-.6.462L1.575 18.35q.525-.65 1.288-1T4.45 17q1.275 0 2.275.75t1.35 1.975q.15.575.625.925t1.05.35q.475 0 .85-.25t.65-.625l.025-.05l-6.9-9.525q-.2-.275-.288-.575T4 9.375q0-.4.15-.762t.45-.663l6.5-6.375q.275-.275.65-.425T12.5 1t.75.15t.65.425l6.5 6.375q.3.3.45.663t.15.762q0 .3-.088.6t-.287.575L12.5 21.8q-.45.625-1.2.913T9.75 23"/></svg>