<svg xmlns="http://www.w3.org/2000/svg" viewBox="0 0 24 24" width="24" height="24"><path fill="currentColor" d="m19.3 8.9l3.2 3.2l-1.4 1.4l-3.2-3.2q-.525.3-1.125.5T15.5 11q-1.875 0-3.187-1.312T11 6.5t1.313-3.187T15.5 2t3.188 1.313T20 6.5q0 .675-.2 1.275T19.3 8.9m-3.8.1q1.05 0 1.775-.725T18 6.5t-.725-1.775T15.5 4t-1.775.725T13 6.5t.725 1.775T15.5 9M4 22q-.825 0-1.412-.587T2 20V6q0-.825.588-1.412T4 4h5.5q-.275.625-.375 1.288t-.1 1.312q0 2.725 1.925 4.55t4.575 1.825q.475 0 .95-.063t.975-.212L20 15.25V20q0 .825-.587 1.413T18 22z"/></svg>