<svg xmlns="http://www.w3.org/2000/svg" viewBox="0 0 24 24" width="24" height="24"><path fill="currentColor" d="M9.9 22.075q-1.1 0-1.925-.687T6.95 19.6q-.075-.45-.337-.737t-.763-.288q-.075 0-.15.013t-.125.012q-1.4.275-2.488-.638T2 15.625q0-1.05.688-1.9t1.812-1.05l2.95-.525l3.325-4.775q-.35-.35-.55-.825t-.2-.975q0-1.05.7-1.763T12.45 3.1q.65 0 1.1.237t.65.388q.225.175.513.25t.637.1q.2-.625.637-1.1t1.038-.7q1.1-.425 2.125.063t1.425 1.537L21.85 7.4q.425 1.15-.1 2.163t-1.5 1.337q-.9.3-1.725.063T17.15 10.1h-.925l-3.875 5.525l.525 2.9q.275 1.4-.637 2.475T9.9 22.075"/></svg>