<svg xmlns="http://www.w3.org/2000/svg" viewBox="0 0 24 24" width="24" height="24"><path fill="currentColor" d="M7 21q-1.25 0-2.125-.875T4 18H3q-.825 0-1.412-.587T1 16v-5h11V7q0-.825.588-1.412T14 5h2V4q0-.425.288-.712T17 3h1q.425 0 .713.288T19 4v1h.55q.65 0 1.175.375t.725 1l1.45 4.3q.05.15.075.313t.025.337V18h-3q0 1.25-.875 2.125T17 21t-2.125-.875T14 18h-4q0 1.25-.875 2.125T7 21m0-2q.425 0 .713-.288T8 18t-.288-.712T7 17t-.712.288T6 18t.288.713T7 19m10 0q.425 0 .713-.288T18 18t-.288-.712T17 17t-.712.288T16 18t.288.713T17 19m-3-8h6.9l-1.35-4H14zM1 10V8.5h1v-2H1V5h10v1.5h-1v2h1V10zm2.5-1.5h1.75v-2H3.5zm3.25 0H8.5v-2H6.75z"/></svg>