<svg xmlns="http://www.w3.org/2000/svg" viewBox="0 0 24 24" width="24" height="24"><path fill="currentColor" d="M20 13q-.425-.025-.713-.3T19 12q0-.425.288-.713T20 11h.8q-.25-1.225-.775-2.313t-1.3-2.012L17.7 7.7q-.3.3-.7.3t-.7-.3Q16 7.4 16 7t.3-.7l1.025-1.05q-1.3-1.075-2.925-1.662T10.975 3V1q2.5 0 4.688.938t3.825 2.575q1.637 1.637 2.575 3.825T23 13h-3ZM4.95 11q.925 0 1.787.325t1.563.95L18.675 21.6q.575-.425.95-.938T20 19.3q0-.575-.163-1.088t-.637-.987L15.375 13.4L13.9 9q-.225-.7-.825-1.038T11.75 7.8L10 8.225v-1.9q0-.525-.25-.937T9 4.725L8.45 4.4q-.6-.325-1.213-.163T6.2 4.95L2.725 9.575q-.2.275-.363.688T2.1 11h2.85Zm0 2h-2.7q.125.275.313.638t.612.762l7.325 6.65q.5.475 1.113.713t1.312.237H16.1l-9.125-8.225q-.4-.35-.95-.563T4.95 13Z"/></svg>