<svg xmlns="http://www.w3.org/2000/svg" viewBox="0 0 24 24" width="24" height="24"><path fill="currentColor" d="m4 22l-1.2-3.95q-.375-.425-.587-.937T2 16V8q0-.6.213-1.112T2.8 5.95L4 2h6l1.2 3.95q.375.425.588.938T12 8v8q0 .6-.213 1.113t-.587.937L10 22zm1-5h4q.425 0 .713-.288T10 16V8q0-.425-.288-.712T9 7H5q-.425 0-.712.288T4 8v8q0 .425.288.713T5 17m11 5q-.825 0-1.412-.587T14 20V9q-.425 0-.712-.288T13 8V7q0-.425.288-.712T14 6V4q0-.825.588-1.412T16 2h4q.825 0 1.413.588T22 4v2q.425 0 .713.288T23 7v1q0 .425-.288.713T22 9v11q0 .825-.587 1.413T20 22zm0-13.5V20h4V8.5zm0-2h4V4h-4z"/></svg>