<svg xmlns="http://www.w3.org/2000/svg" viewBox="0 0 24 24" width="24" height="24"><path fill="currentColor" d="M2 22v-2q.95 0 1.413-.5T5.35 19t1.925.5t1.4.5t1.4-.5T12 19q1.425 0 1.938.5t1.412.5q.95 0 1.4-.5t1.925-.5t1.925.5t1.4.5v2q-1.45 0-1.925-.5t-1.4-.5t-1.4.5t-1.925.5t-1.937-.5T12 21q-.95 0-1.4.5t-1.925.5t-1.925-.5t-1.4-.5q-.925 0-1.4.5T2 22m0-4.5v-2q.95 0 1.4-.5t1.925-.5q.15 0 .3.013t.275.037l-.95-3.5l-1.375 1.8L2 11.6L9.775 2L21.3 6.4l-.725 1.875l-2.1-.85L20.5 14.95q.35.2.687.375T22 15.5v2q-1.425-.025-1.925-.513t-1.4-.487q-.95 0-1.4.5t-1.925.5q-1.425 0-1.937-.5T12 16.5q-.95 0-1.4.5t-1.925.5q-1.425 0-1.925-.5t-1.4-.5q-.875 0-1.4.5T2 17.5m13.45-2.025l-1.4-5.3l-3.875 1.025l.925 3.4q.2-.05.413-.075T12 14.5q1.425 0 2.038.55t1.412.425"/></svg>