<svg xmlns="http://www.w3.org/2000/svg" viewBox="0 0 24 24" width="24" height="24"><path fill="currentColor" d="M18 19q-.425 0-.712-.288T17 18t.288-.712T18 17t.713.288T19 18t-.288.713T18 19M7 22q-.425 0-.712-.288T6 21t.288-.712T7 20t.713.288T8 21t-.288.713T7 22m-1-3q-.425 0-.712-.288T5 18t.288-.712T6 17h9q.425 0 .713.288T16 18t-.288.713T15 19zm4 3q-.425 0-.712-.288T9 21t.288-.712T10 20h7q.425 0 .713.288T18 21t-.288.713T17 22zm-2.5-6q-2.275 0-3.887-1.612T2 10.5q0-2.075 1.375-3.625t3.4-1.825q.8-1.425 2.188-2.238T12 2q2.25 0 3.913 1.438t2.012 3.587q1.725.15 2.9 1.425T22 11.5q0 1.875-1.312 3.188T17.5 16z"/></svg>