<svg xmlns="http://www.w3.org/2000/svg" viewBox="0 0 24 24" width="24" height="24"><path fill="currentColor" d="M6.5 1q2.125 0 3.313 1.888T11 7q0 1.025-.213 1.95T10.3 10.6l-7.125 1.425Q2.8 11.3 2.4 10.013T2 7q0-2.575 1.275-4.288T6.5 1m1.375 17Q6.1 18 5.113 16.763T4 13.9l6.45-1.3q.2.425.375.963T11 14.675q0 1.425-.888 2.375T7.876 18M17.5 6q1.95 0 3.225 1.713T22 12q0 1.725-.4 3.013t-.775 2.012L13.7 15.6q-.275-.725-.487-1.65T13 12q0-2.225 1.188-4.112T17.5 6m-1.375 17q-1.35 0-2.238-.95T13 19.675q0-.575.175-1.112t.375-.963l6.425 1.3q-.125 1.625-1.1 2.863T16.125 23"/></svg>