<svg xmlns="http://www.w3.org/2000/svg" viewBox="0 0 24 24" width="24" height="24"><path fill="currentColor" d="M7.5 16v-1.5H10v-1H8.5v-1H10v-1H7.5V10h3q.425 0 .713.288T11.5 11v4q0 .425-.288.713T10.5 16zm6 0q-.425 0-.712-.288T12.5 15v-4q0-.425.288-.712T13.5 10h2q.425 0 .713.288T16.5 11v4q0 .425-.288.713T15.5 16zm.5-1.5h1v-3h-1zM12 22q-1.875 0-3.512-.712t-2.85-1.925t-1.925-2.85T3 13t.713-3.512t1.924-2.85t2.85-1.925T12 4h.15L10.6 2.45L12 1l4 4l-4 4l-1.4-1.45L12.15 6H12Q9.075 6 7.038 8.038T5 13t2.038 4.963T12 20t4.963-2.037T19 13h2q0 1.875-.712 3.513t-1.925 2.85t-2.85 1.925T12 22"/></svg>