<svg xmlns="http://www.w3.org/2000/svg" viewBox="0 0 24 24" width="24" height="24"><path fill="currentColor" d="M11.25 13.5q.95 0 1.6-.65t.65-1.6t-.65-1.6t-1.6-.65t-1.6.65t-.65 1.6t.65 1.6t1.6.65m4.825 4l-2.625-2.625q-.5.325-1.062.475t-1.138.15q-1.775 0-3.012-1.237T7 11.25t1.238-3.012T11.25 7t3.013 1.238T15.5 11.25q0 .575-.162 1.138t-.488 1.062l2.65 2.65zM5 21q-.825 0-1.412-.587T3 19v-4h2v4h4v2zm10 0v-2h4v-4h2v4q0 .825-.587 1.413T19 21zM3 9V5q0-.825.588-1.412T5 3h4v2H5v4zm16 0V5h-4V3h4q.825 0 1.413.588T21 5v4z"/></svg>