<svg xmlns="http://www.w3.org/2000/svg" viewBox="0 0 24 24" width="24" height="24"><path fill="currentColor" d="M4 22q-.825 0-1.412-.587T2 20V4q0-.825.588-1.412T4 2h16q.825 0 1.413.588T22 4v16q0 .825-.587 1.413T20 22zm5-8q-.425 0-.712-.288T8 13t.288-.712T9 12t.713.288T10 13t-.288.713T9 14m6 0q-.425 0-.712-.288T14 13t.288-.712T15 12t.713.288T16 13t-.288.713T15 14M5 11.1v6.6q0 .35.225.575t.575.225h.4q.35 0 .575-.225T7 17.7v-1.2h10v1.2q0 .35.225.575t.575.225h.4q.35 0 .575-.225T19 17.7v-6.6l-1.65-4.8q-.125-.35-.413-.575T16.3 5.5H7.7q-.35 0-.638.225T6.65 6.3zm2.65-1.6l.7-2h7.3l.7 2z"/></svg>