<svg xmlns="http://www.w3.org/2000/svg" viewBox="0 0 24 24" width="24" height="24"><path fill="currentColor" d="M3.075 13q-.025-.25-.038-.5t-.012-.5q0-1.875.7-3.512t1.925-2.85T8.5 3.713T12 3t3.513.713t2.85 1.924t1.925 2.85T21 12q0 .25-.012.5t-.038.5h-2.025q.05-.25.063-.5T19 12t-.012-.5t-.063-.5h-2.95q.025.25.025.5v1q0 .25-.025.5H14v-.825q0-.3-.012-.6T13.95 11h-3.875q-.025.275-.037.575t-.013.6V13H8.05q-.025-.25-.025-.5v-1q0-.25.025-.5H5.1q-.05.25-.062.5t-.013.5t.013.5t.062.5zM5.7 9h2.575q.2-1.075.5-1.937t.65-1.563q-1.2.45-2.175 1.363T5.7 9m4.65 0h3.3q-.25-1.075-.625-2.1T12 5q-.65.875-1.037 1.9T10.35 9m5.4 0h2.575q-.575-1.225-1.562-2.137T14.575 5.5q.35.75.663 1.588T15.75 9M11 21v-1q0-1.25-.875-2.125T8 17H2v-2h6q1.2 0 2.238.525T12 17q.725-.95 1.763-1.475T16 15h6v2h-6q-1.25 0-2.125.875T13 20v1z"/></svg>