<svg xmlns="http://www.w3.org/2000/svg" viewBox="0 0 24 24" width="24" height="24"><path fill="currentColor" d="M11.8 20.025q-.825 0-1.412-.6T9.8 18t.588-1.412T11.8 16l.6-.575q.2-.2.463-.312T13.4 15q.575 0 .988.425t.412 1v.425q0 .5.325.825t.825.325q.375 0 .675-.225t.425-.575l.3-.825q.225-.6.725-.987t1.15-.388q.275-.7.438-1.45t.162-1.55q0-2.225-1.112-4.062T15.8 5.05V6q0 .825-.587 1.413T13.8 8h-1v2q0 .425-.288.713T11.8 11h-1v1.7q0 .55-.375.925T9.5 14q-.35 0-.638-.15t-.462-.425L6.8 11h-1v1q0 .775-.525 1.325t-1.25.65q.65 2.6 2.813 4.325t4.962 1.725m2-6.025q-.425 0-.712-.287T12.8 13t.288-.712T13.8 12h1q.425 0 .713.288T15.8 13t-.288.713T14.8 14zm2.325-3q-.5 0-.788-.387T15.2 9.75l.375-1.1q.1-.3.35-.475t.55-.175q.5 0 .788.388t.137.862l-.375 1.1q-.1.3-.35.475t-.55.175M11.8 22q-2.075 0-3.9-.788t-3.175-2.137T2.588 15.9T1.8 12t.788-3.9t2.137-3.175T7.9 2.788T11.8 2t3.9.788t3.175 2.137T21.013 8.1T21.8 12t-.788 3.9t-2.137 3.175t-3.175 2.138t-3.9.787"/></svg>