<svg xmlns="http://www.w3.org/2000/svg" viewBox="0 0 24 24" width="24" height="24"><path fill="currentColor" d="M18 8q-.825 0-1.413-.588Q16 6.825 16 6t.587-1.412Q17.175 4 18 4q.825 0 1.413.588Q20 5.175 20 6t-.587 1.412Q18.825 8 18 8ZM6 8q-.825 0-1.412-.588Q4 6.825 4 6t.588-1.412Q5.175 4 6 4h9.775q-.35.4-.562.912Q15 5.425 15 6q0 .575.213 1.087q.212.513.562.913Zm12 12q-.825 0-1.413-.587Q16 18.825 16 18v-6q0-.825.587-1.413Q17.175 10 18 10q.825 0 1.413.587Q20 11.175 20 12v6q0 .825-.587 1.413Q18.825 20 18 20ZM6 14q-.825 0-1.412-.588Q4 12.825 4 12t.588-1.413Q5.175 10 6 10t1.412.587Q8 11.175 8 12v2Zm0 6q-.825 0-1.412-.587Q4 18.825 4 18v-3.775q.4.35.913.562Q5.425 15 6 15h2v3q0 .825-.588 1.413Q6.825 20 6 20Zm3-6v-2q0-.575-.212-1.088q-.213-.512-.563-.912H12q.825 0 1.363.587q.537.588.537 1.413q0 .825-.588 1.412Q12.725 14 11.9 14Z"/></svg>