<svg xmlns="http://www.w3.org/2000/svg" viewBox="0 0 24 24" width="24" height="24"><path fill="currentColor" d="M12 23q-1.25 0-2.125-.875T9 20q0-.35.063-.663t.212-.612l-4-4.025q-.3.125-.625.213T3.975 15q-1.25 0-2.112-.875T1 12t.863-2.125T3.975 9q.975 0 1.75.563T6.8 11h2.375q.225-.65.7-1.112T11 9.2V6.825q-.875-.3-1.437-1.075T9 4q0-1.25.875-2.125T12 1t2.125.875T15 4q0 .35-.075.675T14.7 5.3l4 4q.3-.15.625-.225T20 9q1.25 0 2.125.875T23 12t-.875 2.125T20 15q-.975 0-1.75-.562T17.175 13H14.8q-.225.65-.687 1.125t-1.113.7v2.35q.875.3 1.438 1.075T15 20q0 1.25-.875 2.125T12 23m-1-5.825v-2.35q-.325-.125-.6-.3t-.513-.413t-.412-.512t-.3-.6H6.8q0 .025-.013.063l-.025.075q-.012.037-.025.062l-.037.075l.725.725q.6.6 1.275 1.288t1.275 1.287l.725.725q.05-.025.088-.038t.074-.037t.075-.038t.063-.012M14.8 11h2.375q0-.05.012-.088t.038-.075t.037-.075t.038-.062l-.725-.725L15.3 8.7l-1.275-1.275L13.3 6.7q-.025.025-.063.037t-.075.038t-.075.037t-.087.013V9.2q.3.1.588.287t.512.413t.413.513t.287.587m5.2 2q.425 0 .713-.288T21 12t-.288-.712T20 11t-.712.288T19 12t.288.713T20 13m-8 0q.425 0 .713-.288T13 12t-.288-.712T12 11t-.712.288T11 12t.288.713T12 13m0 8q.425 0 .713-.288T13 20t-.288-.712T12 19t-.712.288T11 20t.288.713T12 21m-8-8q.425 0 .713-.288T5 12t-.288-.712T4 11t-.712.288T3 12t.288.713T4 13m8-8q.425 0 .713-.288T13 4t-.288-.712T12 3t-.712.288T11 4t.288.713T12 5"/></svg>