<svg xmlns="http://www.w3.org/2000/svg" viewBox="0 0 24 24" width="24" height="24"><path fill="currentColor" d="M12 22q-1.25 0-2.125-.875T9 19q0-.125.013-.275t.037-.275l-2.075-1.175q-.4.35-.9.538T5 18q-1.25 0-2.125-.875T2 15t.875-2.125T5 12q.6 0 1.125.225t.95.625l2.975-1.5q-.075-.575.062-1.125T10.6 9.2l-.85-1.3q-.175.05-.363.075T9 8q-1.25 0-2.125-.875T6 5t.875-2.125T9 2t2.125.875T12 5q0 .5-.162.963T11.4 6.8l.875 1.3q.2-.05.375-.075T13.025 8q.425 0 .8.1t.725.3l1.65-1.35q-.1-.25-.15-.512T16 6q0-1.25.875-2.125T19 3t2.125.875T22 6t-.875 2.125T19 9q-.425 0-.8-.112t-.725-.313l-1.65 1.375q.1.25.15.513t.05.537q0 1.25-.875 2.125T13.025 14q-.6 0-1.137-.225t-.963-.625l-2.95 1.475q.05.225.038.45t-.063.45l2.1 1.2q.4-.35.888-.538T12 16q1.25 0 2.125.875T15 19t-.875 2.125T12 22m-7-6q.425 0 .713-.288T6 15t-.288-.712T5 14t-.712.288T4 15t.288.713T5 16M9 6q.425 0 .713-.288T10 5t-.288-.712T9 4t-.712.288T8 5t.288.713T9 6m3 14q.425 0 .713-.288T13 19t-.288-.712T12 18t-.712.288T11 19t.288.713T12 20m1-8q.425 0 .713-.288T14 11t-.288-.712T13 10t-.712.288T12 11t.288.713T13 12m6-5q.425 0 .713-.288T20 6t-.288-.712T19 5t-.712.288T18 6t.288.713T19 7"/></svg>