<svg xmlns="http://www.w3.org/2000/svg" viewBox="0 0 24 24" width="24" height="24"><path fill="currentColor" d="M9 12q-1.65 0-2.825-1.175T5 8t1.175-2.825T9 4t2.825 1.175T13 8t-1.175 2.825T9 12m8 7q.85 0 1.413-.5T19 17q.025-.85-.562-1.425T17 15t-1.425.575T15 17t.575 1.425T17 19m4.6 4l-2.55-2.55q-.45.275-.962.413T17 21q-1.65 0-2.825-1.175T13 17t1.175-2.825T17 13t2.825 1.175T21 17q0 .575-.137 1.088t-.413.962L23 21.6zM1 20v-2.8q0-.85.438-1.562T2.6 14.55q1.55-.775 3.15-1.162T9 13q.8 0 1.613.088t1.612.287q-.6.8-.912 1.725T11 17q0 .8.2 1.563T11.8 20zM19 8q0 1.65-1.175 2.825T15 12q-.275 0-.7-.062t-.7-.138q.675-.8 1.038-1.775T15 8t-.362-2.025T13.6 4.2q.35-.125.7-.163T15 4q1.65 0 2.825 1.175T19 8"/></svg>