<svg xmlns="http://www.w3.org/2000/svg" viewBox="0 0 24 24" width="24" height="24"><path fill="currentColor" d="M4 13.525L6.525 11L4 8.475L1.475 11zM17.5 13L20 9l2.5 4zM12 12q-1.25 0-2.125-.875T9 9q0-1.275.875-2.137T12 6q1.275 0 2.138.863T15 9q0 1.25-.862 2.125T12 12M0 18v-1.575q0-1.1 1.113-1.763T4 14q.325 0 .625.013t.575.062q-.35.5-.525 1.075T4.5 16.375V18zm6 0v-1.625q0-1.625 1.663-2.625t4.337-1q2.7 0 4.35 1T18 16.375V18zm14-4q1.8 0 2.9.663t1.1 1.762V18h-4.5v-1.625q0-.65-.162-1.225t-.488-1.075q.275-.05.563-.062T20 14"/></svg>