<svg xmlns="http://www.w3.org/2000/svg" viewBox="0 0 24 24" width="24" height="24"><path fill="currentColor" d="M7 22q-1.65 0-2.825-1.175T3 18q0-.975.213-1.937t.712-1.763l-1.5-1.2L6.55 9.525q-.125-.675.038-1.3t.512-1.15l4.85 4.85q-.475.325-1.037.475t-1.188.1l-2.5 4.4l-1.7-1.35q-.275.525-.4 1.163T5 18q0 .825.6 1.413T7 20q.775 0 1.313-.5t.987-1.65q.275-.675.5-1.15t.5-.837t.625-.663t.825-.625L5.1 7.925q-.05.275-.075.538T5 9H3q0-.725.125-1.388T3.5 6.326l-2.1-2.1L2.8 2.8l18.4 18.4l-1.425 1.4l-6.625-6.625q-.5.4-.812.7t-.525.6t-.388.688t-.375.987q-.5 1.45-1.562 2.25T7 22m11.65-6.225l-1.425-1.425q.875-1.175 1.325-2.538T19 9q0-1.825-.687-3.475T16.35 2.6l1.45-1.4q1.55 1.575 2.375 3.588T21 9q0 1.825-.6 3.55t-1.75 3.225m-2.725-2.725l-1.45-1.45q.275-.575.4-1.225T15 9q0-2.125-1.437-3.562T10 4q-.65 0-1.275.163t-1.2.487L6.05 3.175Q6.925 2.6 7.925 2.3T10 2q2.975 0 4.988 2.013T17 9q0 1.125-.262 2.138t-.813 1.912m-2.7-2.7L8.65 5.775q.325-.125.663-.2T10 5.5q1.45 0 2.475 1.025T13.5 9q0 .35-.075.688t-.2.662"/></svg>