<svg xmlns="http://www.w3.org/2000/svg" viewBox="0 0 24 24" width="24" height="24"><path fill="currentColor" d="M17 22q-1.425 0-2.5-.85t-1.55-2.25q-.425-1.25-.913-1.85t-1.612-1.4q-1.675-1.2-2.55-2.988T7 9q0-2.95 2.025-4.975T14 2t4.975 2.025T21 9h-2q0-2.125-1.437-3.562T14 4t-3.562 1.438T9 9q0 1.475.7 2.838t1.975 2.262q1.2.85 1.912 1.638t1.138 2.137q.275.875.838 1.5T17 20q.8 0 1.4-.587T19 18q0-.65-.125-1.287t-.4-1.163l-1.7 1.35l-2.5-4.4q-1.525.125-2.65-.912T10.5 9q0-1.45 1.025-2.475T14 5.5q1.625 0 2.663 1.225t.787 2.8l4.125 3.575l-1.5 1.2q.5.8.713 1.763T21 18q0 1.65-1.175 2.825T17 22M6.2 16.75q-1.55-1.575-2.375-3.588T3 9q0-2.2.825-4.212T6.2 1.2l1.45 1.4Q6.375 3.875 5.687 5.525T5 9q0 1.8.688 3.438T7.65 15.35z"/></svg>