<svg xmlns="http://www.w3.org/2000/svg" viewBox="0 0 24 24" width="24" height="24"><path fill="currentColor" d="M11.25 16.95V13.8l-2.225 2.225q.5.35 1.063.575t1.162.35m1.5-.025q.6-.1 1.163-.325t1.062-.575L12.75 13.8zm3.275-1.95q.35-.5.563-1.062t.337-1.163H13.8zM13.8 11.25h3.125q-.125-.575-.338-1.137t-.562-1.063zm-1.05-1.05l2.225-2.225q-.5-.35-1.063-.575t-1.162-.35zM12 13q.425 0 .712-.287T13 12t-.288-.712T12 11t-.712.288T11 12t.288.713T12 13m-.75-2.8V7.075q-.6.1-1.162.325t-1.063.575zm-4.175 1.05H10.2l-2.225-2.2q-.35.5-.575 1.05t-.325 1.15m.9 3.725L10.2 12.75H7.05q.125.6.35 1.163t.575 1.062M5 21q-.825 0-1.412-.587T3 19V5q0-.825.588-1.412T5 3h14q.825 0 1.413.588T21 5v14q0 .825-.587 1.413T19 21z"/></svg>