<svg xmlns="http://www.w3.org/2000/svg" viewBox="0 0 24 24" width="24" height="24"><path fill="currentColor" d="M2 19v-2q.95 0 1.4-.5t1.925-.5q1.45 0 1.95.5t1.375.5q.95 0 1.413-.5T12 16t1.938.5t1.412.5q.875 0 1.375-.5t1.95-.5q1.475 0 1.925.5t1.4.5v2q-1.425 0-1.95-.5t-1.4-.5q-.9 0-1.4.5t-1.925.5q-1.475 0-1.925-.5T12 18t-1.4.5t-1.925.5q-1.425 0-1.925-.5t-1.4-.5q-.875 0-1.4.5T2 19m3.75-4q-.6 0-1.15-.225t-.975-.65L2.25 12.75l1.4-1.4l1.375 1.35q.15.15.337.225T5.75 13H7V9.625l-1.325.975L4.5 9L12 3.5L19.5 9l-1.175 1.625L17 9.65V13h1.25q.2 0 .388-.075t.337-.225l1.375-1.35l1.4 1.4l-1.375 1.375q-.425.425-.975.65T18.25 15zM11 13h2v-2h-2z"/></svg>