<svg xmlns="http://www.w3.org/2000/svg" viewBox="0 0 24 24" width="24" height="24"><path fill="currentColor" d="M6 23q-1.25 0-2.125-.875T3 20t.875-2.125T6 17q.35 0 .65.075t.575.2L8.65 15.5q-.7-.775-.975-1.75T7.55 11.8l-2.025-.675q-.425.625-1.075 1T3 12.5q-1.25 0-2.125-.875T0 9.5t.875-2.125T3 6.5t2.125.875T6 9.5v.2l2.025.7q.5-.9 1.338-1.525t1.887-.8V5.9q-.975-.275-1.612-1.063T9 3q0-1.25.875-2.125T12 0t2.125.875T15 3q0 1.05-.65 1.838T12.75 5.9v2.175q1.05.175 1.888.8t1.337 1.525L18 9.7v-.2q0-1.25.875-2.125T21 6.5t2.125.875T24 9.5t-.875 2.125T21 12.5q-.8 0-1.463-.375t-1.062-1l-2.025.675q.15.975-.125 1.938T15.35 15.5l1.425 1.75q.275-.125.575-.187T18 17q1.25 0 2.125.875T21 20t-.875 2.125T18 23t-2.125-.875T15 20q0-.5.163-.962t.437-.838l-1.425-1.775Q13.15 17 11.988 17T9.8 16.425L8.4 18.2q.275.375.438.838T9 20q0 1.25-.875 2.125T6 23"/></svg>