<svg xmlns="http://www.w3.org/2000/svg" viewBox="0 0 24 24" width="24" height="24"><path fill="currentColor" d="M12 18q2.5 0 4.25-1.75T18 12t-1.75-4.25T12 6T7.75 7.75T6 12t1.75 4.25T12 18m0-2q-.725 0-1.4-.262T9.375 15h5.25q-.55.475-1.225.738T12 16m-3.45-2q-.2-.35-.325-.725T8.05 12.5h7.9q-.05.4-.175.775T15.45 14zm-.5-2.5q.05-.4.175-.775T8.55 10h6.9q.2.35.325.725t.175.775zM9.375 9q.55-.475 1.225-.737T12 8t1.4.262T14.625 9zM5 21q-.825 0-1.412-.587T3 19V5q0-.825.588-1.412T5 3h14q.825 0 1.413.588T21 5v14q0 .825-.587 1.413T19 21z"/></svg>