<svg xmlns="http://www.w3.org/2000/svg" viewBox="0 0 24 24" width="24" height="24"><path fill="currentColor" d="m15.9 21.9l-1.425-1.425q1.65-1.65 2.588-3.812T18 12t-.937-4.663t-2.588-3.812L15.9 2.1q1.9 1.9 3 4.438T20 12t-1.1 5.463t-3 4.437m-2.825-2.825L11.65 17.65q1.1-1.1 1.725-2.55T14 12t-.625-3.1t-1.725-2.55l1.425-1.425q1.35 1.35 2.138 3.175T16 12t-.788 3.9t-2.137 3.175M10.25 16.25l-1.425-1.425q.55-.55.863-1.275T10 12t-.312-1.55t-.863-1.275L10.25 7.75q.8.8 1.275 1.9T12 12t-.475 2.35t-1.275 1.9M4 20V4h2v6q.825 0 1.413.588T8 12t-.587 1.413T6 14v6z"/></svg>