<svg xmlns="http://www.w3.org/2000/svg" viewBox="0 0 24 24" width="24" height="24"><path fill="currentColor" d="M4 14q-.825 0-1.412-.587T2 12V3q0-.825.588-1.412T4 1h16q.825 0 1.413.588T22 3v9q0 .825-.587 1.413T20 14h-3.225q.15-.5.2-1t0-1q-.2-1.9-1.612-3.2T12 7.5T8.637 8.8T7.025 12q-.05.5 0 1t.2 1zm3-5.5l2-2l-2-2l-2 2zM16.5 7q.625 0 1.063-.437T18 5.5t-.437-1.062T16.5 4t-1.062.438T15 5.5t.438 1.063T16.5 7M5 23v-2.1q0-.875.488-1.625t1.287-1.125q1.225-.575 2.55-.862T12 17t2.675.288t2.55.862q.8.375 1.288 1.125T19 20.9V23zm7-7q-1.45 0-2.475-1.025T8.5 12.5t1.025-2.475T12 9t2.475 1.025T15.5 12.5t-1.025 2.475T12 16"/></svg>