<svg xmlns="http://www.w3.org/2000/svg" viewBox="0 0 24 24" width="24" height="24"><path fill="currentColor" d="M20.5 16.5q-.625 0-1.062-.437T19 15v-2.5q0-.625.438-1.062T20.5 11t1.063.438T22 12.5V15q0 .625-.437 1.063T20.5 16.5M20 20v-1.55q-1.275-.2-2.137-1.162T17 15h1q0 1.05.725 1.775t1.775.725t1.775-.725T23 15h1q0 1.325-.862 2.287T21 18.45V20zM9 12q-1.65 0-2.825-1.175T5 8t1.175-2.825T9 4q.35 0 .688.05t.662.175q-.65.775-1 1.737T9 8t.35 2.038t1 1.737q-.325.125-.663.175T9 12m-8 8v-2.775q0-.85.425-1.575t1.175-1.1q.95-.5 2.063-.862t2.437-.563q-1 .7-1.55 1.775T5 17.225V20zm14-8q-1.65 0-2.825-1.175T11 8t1.175-2.825T15 4t2.825 1.175T19 8t-1.175 2.825T15 12m-8 8v-2.775q0-.85.425-1.575t1.175-1.1q1.275-.65 2.888-1.1T15 13q.3 0 .588.013t.562.037q-1.05 1.9-.4 3.95t2.575 3z"/></svg>