<svg xmlns="http://www.w3.org/2000/svg" viewBox="0 0 24 24" width="24" height="24"><path fill="currentColor" d="M5 11v2h2v-2zm3 0v2h2v-2zm3 0v2h2v-2zM5 8v2h2V8zm3 0v2h2V8zm3 0v2h2V8zm3 0v2h2V8zm3 0v2h2V8zm1 14l-1.4-1.4l1.575-1.6H14v-2h4.175L16.6 15.4L18 14l4 4zm-5.9-3H4q-.825 0-1.412-.587T2 17V7q0-.825.588-1.412T4 5h16q.825 0 1.413.588T22 7v6.525q-.65-.575-1.412-.937T19 12.1V11h-2v1.1q-.275.05-.513.1t-.487.15V11h-2v2h.7q-.325.2-.6.463t-.55.537H8v2h4.35q-.175.475-.25.975T12.025 18q0 .275.013.513T12.1 19"/></svg>