<svg xmlns="http://www.w3.org/2000/svg" viewBox="0 0 24 24" width="24" height="24"><path fill="currentColor" d="M4.675 20.375q-.3-.275-.563-.563q-.262-.287-.512-.587q1.075.175 2.212.112Q6.95 19.275 8 19q-.75.475-1.588.812q-.837.338-1.737.563ZM6.75 21.85q-.3-.175-.588-.362q-.287-.188-.562-.388q.675-.45 1.275-.975Q7.475 19.6 8 19q-.2.75-.512 1.475q-.313.725-.738 1.375ZM8 19V5.15q0-.35.225-.638q.225-.287.575-.362l7.95-1.625q.05 0 .1-.013q.05-.012.1-.012q.325 0 .575.2q.25.2.375.5l2.575 7.7q.125.35-.012.662q-.138.313-.438.513Zm1.5-4.1l3.675-6.375L9.5 6.4Zm4.425-7.65l1.7-2.95L10.6 5.325Zm-3.125 8.4l7.35-4.225L14.475 9.3Zm7.75-5.75l-1.625-4.85l-1.7 2.95Z"/></svg>