<svg xmlns="http://www.w3.org/2000/svg" viewBox="0 0 24 24" width="24" height="24"><path fill="currentColor" d="m8.15 18l-.75-1.2q2-.2 3.125-1.075t1.125-2.25q0-.75-.513-1.375T9.8 11.2q-.575 1.425-1.362 2.55T6.7 15.7q.075.3.163.6t.187.6l-1.25.375q-.075-.25-.125-.437t-.1-.338q-.65.35-1.225.538t-1.125.187q-.8 0-1.3-.525t-.5-1.4q0-1.325 1-2.625T5 10.625l.05-.937q.025-.462.075-.938q-.7.025-1.475-.012t-1.675-.113L1.95 7.3q.65.125 1.4.163t1.925.037q.05-.45.113-.888t.012-.887l1.5.025q-.175.425-.25.862t-.15.863Q7.95 7.4 9.175 7.25t2.3-.4l.025 1.3q-1.325.2-2.587.337T6.375 8.7q-.05.35-.062.725t-.063.725q.7-.2 1.363-.275t1.312-.025q.075-.25.113-.5t.062-.5l1.425.35q-.075.2-.162.4t-.163.475q1.275.35 2.038 1.3T13 13.5q0 1.75-1.287 2.938T8.15 18m-4.7-2.125q.425 0 .875-.175t.95-.525q-.175-.95-.25-1.725t-.075-1.475q-.95.6-1.575 1.475T2.75 15.1q0 .325.213.55t.487.225M6.4 14.25q.725-.7 1.263-1.513T8.55 11q-.575 0-1.162.1t-1.188.3q-.05.65.013 1.35t.187 1.5m11.15 1.4q.7 0 1.363-.325t1.212-.925v-2.65q-.575.075-1.062.175t-.913.225q-1.125.35-1.687.875T15.9 14.25q0 .65.45 1.025t1.2.375m-.575 1.7q-1.425 0-2.25-.812t-.825-2.213q0-1.3.825-2.125t2.65-1.325q.575-.15 1.263-.275t1.487-.225q-.05-1.175-.55-1.713t-1.55-.537q-.65 0-1.287.238T15.1 9.2l-.8-1.4q.825-.625 1.938-1.012T18.5 6.4q1.775 0 2.7 1.1t.925 3.2v6.425H20.45L20.3 16q-.7.625-1.537.988t-1.788.362"/></svg>