<svg xmlns="http://www.w3.org/2000/svg" viewBox="0 0 24 24" width="24" height="24"><path fill="currentColor" d="m2.45 17.55l-.625-1.075q.525-.275.975-.638t.9-.737v-2.875H2.025v-1.1H4.85v3.9q.5.625 1.25.95t1.55.325q1.4 0 2.787-.025t2.788-.1q-.125.275-.225.575t-.175.6q-1.3.05-2.588.025T7.65 17.35q-.95 0-1.85-.325T4.25 16q-.425.425-.875.813t-.925.737M8.4 16.1v-2.65q-.55.725-1.25 1.275t-1.45 1.05q-.175-.225-.363-.437t-.412-.413q.875-.375 1.613-.95t1.312-1.3h-2.1V9.45h2.675V8.7H5.25V7.675h3.175v-1.2h1.1v1.2h3.4V8.7h-3.4v.75h2.825v3.2h-2.275q.625.725 1.375 1.275t1.625.925q-.25.2-.462.413t-.338.487q-.8-.425-1.487-1.012t-1.263-1.263V16.1zm0-5.675H6.875V11.7H8.4zm2.85 0H9.5V11.7h1.75zM4.3 9.5q-.425-.65-.987-1.162T2.075 7.45l.85-.725q.65.425 1.188.95T5.2 8.75zm15.825 4.9v-2.65q-.575.075-1.062.175t-.913.225q-1.125.35-1.687.875T15.9 14.25q0 .65.45 1.025t1.2.375q.7 0 1.363-.325t1.212-.925m.325 2.725L20.3 16q-.7.625-1.537.988t-1.788.362q-1.425 0-2.25-.812t-.825-2.213q0-1.3.825-2.125t2.65-1.325q.575-.15 1.263-.275t1.487-.225q-.05-1.175-.55-1.713t-1.55-.537q-.65 0-1.287.238T15.1 9.2l-.8-1.4q.825-.625 1.938-1.012T18.5 6.4q1.775 0 2.7 1.1t.925 3.2v6.425z"/></svg>