<svg xmlns="http://www.w3.org/2000/svg" viewBox="0 0 24 24" width="24" height="24"><path fill="currentColor" d="M12 22q-2.075 0-3.9-.788t-3.175-2.137T2.788 15.9T2 12t.788-3.9t2.137-3.175T8.1 2.788T12 2t3.9.788t3.175 2.137T21.213 8.1T22 12t-.788 3.9t-2.137 3.175t-3.175 2.138T12 22m0-3q.625 0 1.063-.437T13.5 17.5h-3q0 .625.438 1.063T12 19m-3-2.5h6V15H9zm.025-2.5h5.95q.925-.675 1.475-1.713T17 10q0-2.075-1.462-3.537T12 5T8.463 6.463T7 10q0 1.25.55 2.288T9.025 14m.55-1.5q-.5-.5-.787-1.137T8.5 10q0-1.45 1.025-2.475T12 6.5t2.475 1.025T15.5 10q0 .725-.288 1.363t-.787 1.137z"/></svg>