<svg xmlns="http://www.w3.org/2000/svg" viewBox="0 0 24 24" width="24" height="24"><path fill="currentColor" d="m19.6 16.85l-1.45-1.45q.425-.75.638-1.6T19 12.05q0-2.9-2.05-4.95T12 5.05q-.9 0-1.75.213t-1.6.637L7.2 4.45q.875-.525 1.813-.875T11 3.1v-2h2v2q3.125.35 5.363 2.588t2.587 5.362h2v2h-2q-.125 1.05-.475 1.988T19.6 16.85M11 23v-2q-3.125-.35-5.363-2.588T3.05 13.05h-2v-2h2q.125-1.05.475-1.987T4.4 7.25l-3-3l1.4-1.4l18.4 18.4l-1.45 1.4l-2.95-3q-.875.525-1.812.875T13 21v2zm1-3.95q.9 0 1.75-.213t1.6-.637l-9.5-9.5q-.425.75-.638 1.6T5 12.05q0 2.9 2.05 4.95T12 19.05"/></svg>