<svg xmlns="http://www.w3.org/2000/svg" viewBox="0 0 24 24" width="24" height="24"><path fill="currentColor" d="M4 21V5q0-.825.588-1.412T6 3h6q.825 0 1.413.588T14 5v7h1q.825 0 1.413.588T17 14v4.5q0 .425.288.713T18 19.5t.713-.288T19 18.5v-7.2q-.225.125-.475.163T18 11.5q-1.05 0-1.775-.725T15.5 9q0-.8.438-1.437T17.1 6.65L15 4.55l1.05-1.05l3.7 3.6q.375.375.563.875T20.5 9v9.5q0 1.05-.725 1.775T18 21t-1.775-.725T15.5 18.5v-5H14V21zm2-11h6V5H6zm12 0q.425 0 .713-.288T19 9t-.288-.712T18 8t-.712.288T17 9t.288.713T18 10"/></svg>