<svg xmlns="http://www.w3.org/2000/svg" viewBox="0 0 24 24" width="24" height="24"><path fill="currentColor" d="M7.5 18q-1.275 0-2.025-.687t-.75-1.813q0-1.1.863-1.812t2.212-.713q.575 0 1.125.1t.95.275v-.3q0-.725-.513-1.175T8 11.425q-.575 0-1.05.238t-.825.687l-1.175-.875q.6-.725 1.363-1.075t1.712-.35q1.725 0 2.575.813t.85 2.437v4.45H9.875v-.925h-.1q-.35.575-.95.875T7.5 18m.3-1.35q.875 0 1.488-.6t.612-1.4q-.35-.2-.837-.312t-.963-.113q-.8 0-1.25.35t-.45.925q0 .5.4.825t1 .325M17.5 18l-4-4l1.4-1.4l1.6 1.6V8h2v6.2l1.6-1.6l1.4 1.4z"/></svg>