<svg xmlns="http://www.w3.org/2000/svg" viewBox="0 0 24 24" width="24" height="24"><path fill="currentColor" d="M12 23q-2.8 0-5.15-1.275T3 18.325V21H1v-6h6v2H4.525q1.2 1.8 3.163 2.9T12 21q1.875 0 3.513-.713t2.85-1.924q1.212-1.213 1.925-2.85T21 12h2q0 2.275-.863 4.275t-2.362 3.5q-1.5 1.5-3.5 2.363T12 23ZM1 12q0-2.275.863-4.275t2.362-3.5q1.5-1.5 3.5-2.362T12 1q2.8 0 5.15 1.275t3.85 3.4V3h2v6h-6V7h2.475q-1.2-1.8-3.163-2.9T12 3q-1.875 0-3.513.713t-2.85 1.924Q4.426 6.85 3.714 8.488T3 12H1Zm11 5l-1.55-3.45L7 12l3.45-1.575L12 7l1.575 3.425L17 12l-3.425 1.55L12 17Z"/></svg>