<svg xmlns="http://www.w3.org/2000/svg" viewBox="0 0 24 24" width="24" height="24"><path fill="currentColor" d="M4.35 20.7q-.5.2-.925-.112T3 19.75v-14q0-.325.188-.575T3.7 4.8L9 3l6 2.1l4.65-1.8q.5-.2.925.113T21 4.25v8.425q-.875-1.275-2.187-1.975T16 10q-.5 0-1 .088t-1 .262v-3.5l-4-1.4v13.075zM20.6 22l-2.55-2.55q-.45.275-.962.413T16 20q-1.65 0-2.825-1.175T12 16t1.175-2.825T16 12t2.825 1.175T20 16q0 .575-.137 1.088t-.413.962L22 20.6zM16 18q.85 0 1.413-.5T18 16q.025-.85-.562-1.425T16 14t-1.425.575T14 16t.575 1.425T16 18"/></svg>