<svg xmlns="http://www.w3.org/2000/svg" viewBox="0 0 24 24" width="24" height="24"><path fill="currentColor" d="M9.75 18v-3.5h-1.5v-3.6q0-.575.788-.987T11 9.5t1.963.413t.787.987v3.6h-1.5V18zM11 9q-.65 0-1.075-.425T9.5 7.5t.425-1.075T11 6t1.075.425T12.5 7.5t-.425 1.075T11 9m0 12q-3.75 0-6.375-2.625T2 12q0-1.875.713-3.512t1.924-2.85t2.85-1.925T11 3t3.513.713t2.85 1.924t1.925 2.85T20 12v.2l1.825-1.85l1.425 1.4L19 16l-4.25-4.25l1.425-1.4L18 12.175V12q0-2.9-2.05-4.95T11 5T6.05 7.05T4 12q.025 2.9 2.062 4.95T11 19q1.425 0 2.675-.537t2.2-1.463l1.425 1.425q-1.225 1.2-2.838 1.888T11 21"/></svg>