<svg xmlns="http://www.w3.org/2000/svg" viewBox="0 0 24 24" width="24" height="24"><path fill="currentColor" d="M5 23v-2q.825 0 1.413.588T7 23zm4 0q0-1.65-1.175-2.825T5 19v-2q2.5 0 4.25 1.75T11 23zm4 0q0-3.35-2.325-5.675T5 15v-2q2.075 0 3.9.788t3.175 2.137t2.138 3.175T15 23zM12 6q.425 0 .713-.288T13 5t-.288-.712T12 4t-.712.288T11 5t.288.713T12 6m5 17q0-2.5-.95-4.687T13.462 14.5T9.65 11.938T5 11V3q0-.825.588-1.412T7 1h10q.825 0 1.413.588T19 3v3.1q.45.175.725.55T20 7.5v2q0 .475-.275.85T19 10.9V21q0 .825-.587 1.413T17 23"/></svg>