<svg xmlns="http://www.w3.org/2000/svg" viewBox="0 0 24 24" width="24" height="24"><path fill="currentColor" d="M6 22q-.825 0-1.412-.587T4 20V6.8L.7 3.5l1.4-1.4l19.8 19.8l-1.425 1.4l-9.95-9.95q-.425.1-.825.3t-.75.55L7.3 15.875L12.4 22zm8-10.8L5.05 2.25q.2-.125.438-.187T6 2h9q.825 0 1.413.588T17 4v2h-3zM10.5 7q.425 0 .713-.288T11.5 6t-.288-.712T10.5 5t-.712.288T9.5 6t.288.713T10.5 7M20 17.2l-4-4V8h1q1.25 0 2.125.875T20 11zM15.95 22q-.45 0-.862-.187t-.688-.538L10 16l.375-.375q.275-.275.688-.337t.787.137L19 19l.875.875q-.275.925-1.062 1.525T17 22z"/></svg>