<svg xmlns="http://www.w3.org/2000/svg" viewBox="0 0 24 24" width="24" height="24"><path fill="currentColor" d="M13 17.825V21q0 .425-.288.713T12 22t-.712-.288T11 21v-3.15l-2.55 2.525q-.3.275-.712.263t-.688-.288t-.275-.7t.275-.7l3.525-3.55l-2-2l-3.525 3.55q-.275.275-.687.288t-.713-.288q-.275-.275-.275-.7t.275-.7L6.15 13H3q-.425 0-.712-.288T2 12t.288-.712T3 11h3.175l-4.7-4.7q-.3-.3-.288-.712t.313-.713t.713-.3t.712.3l16.975 17q.3.3.3.7t-.3.7t-.712.3t-.713-.3zM15 13h-1.125L11 10.125V9L7.05 5.05q-.275-.275-.287-.687t.287-.713q.275-.275.7-.275t.7.275L11 6.15V3q0-.425.288-.712T12 2t.713.288T13 3v3.15l2.55-2.525q.3-.275.713-.262t.687.287t.275.7t-.275.7L13 9v2h2l3.95-3.95q.275-.275.688-.288t.712.288q.275.275.275.7t-.275.7L17.85 11H21q.425 0 .713.288T22 12t-.288.713T21 13h-3.15l2.525 2.55q.15.15.213.338t.062.375t-.075.362t-.225.325q-.275.275-.7.275t-.7-.275z"/></svg>