<svg xmlns="http://www.w3.org/2000/svg" viewBox="0 0 24 24" width="24" height="24"><path fill="currentColor" d="M19.775 22.625L16.45 19.3l-1.55-1.55q-.25.95-1.05 1.6T12 20q-1.25 0-2.125-.862T9 17.05q0-.575.225-1.112t.65-.963l1.15-1.1L9.6 12.45l-1.125 1.125q-.725.725-1.1 1.6T7 17.05q0 .8.238 1.512t.662 1.313q-1.75-1.05-2.825-2.863T4 13q0-1.375.363-2.575t.962-2.25l-3.95-3.95L2.8 2.8l18.4 18.4zM19.25 16.4L7.85 5Q9.4 3.525 10.7 2.762L12 2v3.3q0 .925.625 1.463t1.4.537q.425 0 .813-.175t.712-.575L16 6q1.8 1.05 2.9 2.913T20 13q0 .925-.2 1.775t-.55 1.625"/></svg>