<svg xmlns="http://www.w3.org/2000/svg" viewBox="0 0 24 24" width="24" height="24"><path fill="currentColor" d="M18 23v-3h-3v-2h3v-3h2v3h3v2h-3v3zm-6-11q1.25 0 2.125-.875T15 9t-.875-2.125T12 6t-2.125.875T9 9t.875 2.125T12 12m-1.5-2.5q-.2 0-.35-.15T10 9t.15-.35t.35-.15t.35.15T11 9t-.15.35t-.35.15m1.5 0q-.2 0-.35-.15T11.5 9t.15-.35t.35-.15t.35.15t.15.35t-.15.35t-.35.15m1.5 0q-.2 0-.35-.15T13 9t.15-.35t.35-.15t.35.15T14 9t-.15.35t-.35.15M5 21q-.825 0-1.412-.587T3 19V5q0-.825.588-1.412T5 3h14q.825 0 1.413.588T21 5v8.35q-.5-.175-1-.262T19 13q-2.5 0-4.25 1.75T13 19q0 .5.088 1t.262 1z"/></svg>