<svg xmlns="http://www.w3.org/2000/svg" viewBox="0 0 24 24" width="24" height="24"><path fill="currentColor" d="M11 3.825v2q-.2.05-.4.113t-.4.137l-1.5-1.5q.525-.275 1.1-.462t1.2-.288m7.9 7.9q-.1.625-.288 1.2t-.462 1.1l-1.5-1.5q.075-.2.138-.4t.112-.4zm1.575 10.3l-19.8-19.8L2.1.8l19.8 19.8zM4 20.7q-.825 0-1.413-.587T2 18.7v-4h2v4h4v2zm16-14v-4h-4v-2h4q.825 0 1.413.588T22 2.7v4zm-18 0v-4q0-.425.15-.788t.425-.637L4 2.725V6.7zm14 14v-2h3.975l1.425 1.4q-.275.275-.625.437T20 20.7zm-9.175-18l-2-2H8v2zM22 17.875l-2-2V14.7h2zm-16.9-6.15h2q.3 1.475 1.363 2.538T11 15.625v2q-2.3-.35-3.925-1.975T5.1 11.725m1.975-5.95l1.4 1.4q-.5.525-.862 1.175T7.1 9.725h-2q.175-1.15.688-2.15t1.287-1.8m8.475 8.475l1.4 1.4q-.8.775-1.8 1.288t-2.15.687v-2q.725-.15 1.375-.513t1.175-.862M13 3.825q2.3.35 3.938 1.975T18.9 9.725h-2q-.3-1.475-1.362-2.537T13 5.825z"/></svg>