<svg xmlns="http://www.w3.org/2000/svg" viewBox="0 0 24 24" width="24" height="24"><path fill="currentColor" d="M4 22q-.825 0-1.412-.587T2 20v-4h2v4h4v2zM2 8V4q0-.825.588-1.412T4 2h4v2H4v4zm9 10.9q-2.3-.35-3.925-1.975T5.1 13h2q.3 1.475 1.363 2.537T11 16.9zM5.1 11q.35-2.3 1.975-3.937T11 5.1v2q-1.475.3-2.537 1.363T7.1 11zm6.9 3q-.825 0-1.412-.587T10 12q0-.85.588-1.425T12 10q.85 0 1.425.575T14 12q0 .825-.575 1.413T12 14m4.9-3q-.3-1.475-1.362-2.537T13 7.1v-2q2.3.35 3.938 1.975T18.9 11zM20 8V4h-4V2h4q.825 0 1.413.588T22 4v4zm-6 14q-.275 0-.488-.137t-.362-.363q-.125-.225-.137-.488t.112-.512l4-7q.15-.225.388-.375t.512-.15t.5.138t.35.387l4 7q.15.225.138.5t-.138.5q-.15.225-.375.363T22 22zm4-1q.2 0 .35-.15t.15-.35t-.15-.35T18 20t-.35.15t-.15.35t.15.35t.35.15m-.5-2h1v-4h-1z"/></svg>