<svg xmlns="http://www.w3.org/2000/svg" viewBox="0 0 24 24" width="24" height="24"><path fill="currentColor" d="M10.5 17q-1.05 0-1.775-.725T8 14.5t.725-1.775T10.5 12q.425 0 .8.125t.7.375V7h4v2h-3v5.5q0 1.05-.725 1.775T10.5 17m1.5 5q-2.075 0-3.9-.788t-3.175-2.137T2.788 15.9T2 12h2q0 1.65.625 3.113t1.713 2.55t2.55 1.725t3.112.637q3.35 0 5.675-2.325T20 12.025T17.675 6.35T12 4.025q-2.225 0-4.038 1.088T5.1 8H8v2H2V4h2v2q1.375-1.825 3.45-2.912T12 2q2.075 0 3.9.788t3.175 2.137T21.213 8.1T22 12t-.788 3.9t-2.137 3.175t-3.175 2.138T12 22"/></svg>