<svg xmlns="http://www.w3.org/2000/svg" viewBox="0 0 24 24" width="24" height="24"><path fill="currentColor" d="M7.3 14.875h3.8V13.9H8.775l-.025-.05q.5-.5.838-.825t.537-.525q.45-.45.688-.9t.237-.925q0-.675-.512-1.175T9.125 9q-.975 0-1.388.525t-.487.8l.975.4q.025-.05.2-.375t.675-.325q.575 0 .688.313t.112.387q0 .2-.075.413t-.45.637q-.225.25-.837.863L7.3 13.875zm7.05.125q1.125 0 1.763-.862T16.75 12t-.65-2.137T14.35 9q-1.125 0-1.762.863T11.95 12t.638 2.138T14.35 15m0-1.025q-.65 0-.975-.587T13.05 12q0-.6.275-1.287t1.025-.688t1.025.688T15.65 12q0 .8-.325 1.388t-.975.587M12 22q-2.075 0-3.9-.788t-3.175-2.137T2.788 15.9T2 12t.788-3.9t2.137-3.175T8.1 2.788T12 2t3.9.788t3.175 2.137T21.213 8.1T22 12t-.788 3.9t-2.137 3.175t-3.175 2.138T12 22"/></svg>