<svg xmlns="http://www.w3.org/2000/svg" viewBox="0 0 24 24" width="24" height="24"><path fill="currentColor" d="M8.475 17.45q.55-.55 1.238-.9t1.462-.475q-.125.475-.2.95T10.9 18q0 .6.088 1.175t.287 1.1zm-2.125-2.1l-2.1-2.15q1.55-1.55 3.55-2.375T12 10q1.225 0 2.4.263t2.25.762q-1.1.2-2.037.725t-1.688 1.3q-.225-.025-.462-.038T12 13q-1.6 0-3.062.613T6.35 15.35M2.1 11.1L0 9q2.375-2.425 5.488-3.713T12 4t6.513 1.288T24 9l-2.1 2.1q-1.975-1.975-4.538-3.037T12 7T6.637 8.063T2.1 11.1M19 13l.3 1.5q.3.125.563.263t.537.337l1.45-.45l1 1.7l-1.15 1q.05.3.05.65t-.05.65l1.15 1l-1 1.7l-1.45-.45q-.275.2-.537.338t-.563.262L19 23h-2l-.3-1.5q-.3-.125-.562-.262T15.6 20.9l-1.45.45l-1-1.7l1.15-1q-.05-.3-.05-.65t.05-.65l-1.15-1l1-1.7l1.45.45q.275-.2.538-.337t.562-.263L17 13zm-1 3q-.825 0-1.412.588T16 18t.588 1.413T18 20t1.413-.587T20 18t-.587-1.412T18 16"/></svg>