<svg xmlns="http://www.w3.org/2000/svg" viewBox="0 0 24 24" width="24" height="24"><path fill="currentColor" d="M18 16h2v-1q0-.425-.288-.712T19 14t-.712.288T18 15zm-6 5L0 9q2.375-2.425 5.488-3.713T12 4t6.513 1.288T24 9l-2.525 2.525q-.575-.275-1.2-.4T19 11q-2.5 0-4.25 1.75T13 17q0 .65.125 1.275t.4 1.2zm5 0q-.425 0-.712-.288T16 20v-3q0-.425.288-.712T17 16v-1q0-.825.588-1.412T19 13t1.413.588T21 15v1q.425 0 .713.288T22 17v3q0 .425-.288.713T21 21zM4.35 10.5q1.675-1.2 3.625-1.85T12 8t4.025.65t3.625 1.85l1.45-1.45q-1.975-1.5-4.3-2.275T12 6t-4.8.775T2.9 9.05z"/></svg>