<svg xmlns="http://www.w3.org/2000/svg" viewBox="0 0 24 24" width="24" height="24"><path fill="currentColor" d="M5.5 22q-1.45 0-2.475-1.025T2 18.5t1.025-2.475T5.5 15q.45 0 .875.112t.8.313L11 11.6V8.85q-1.1-.325-1.8-1.237T8.5 5.5q0-1.45 1.025-2.475T12 2t2.475 1.025T15.5 5.5q0 1.2-.7 2.113T13 8.85v2.75l3.85 3.825q.375-.2.788-.312T18.5 15q1.45 0 2.475 1.025T22 18.5t-1.025 2.475T18.5 22t-2.475-1.025T15 18.5q0-.45.112-.875t.313-.8L12 13.4l-3.425 3.425q.2.375.313.8T9 18.5q0 1.45-1.025 2.475T5.5 22m13-2q.625 0 1.063-.437T20 18.5t-.437-1.062T18.5 17t-1.062.438T17 18.5t.438 1.063T18.5 20M12 7q.625 0 1.063-.437T13.5 5.5t-.437-1.062T12 4t-1.062.438T10.5 5.5t.438 1.063T12 7M5.5 20q.625 0 1.063-.437T7 18.5t-.437-1.062T5.5 17t-1.062.438T4 18.5t.438 1.063T5.5 20"/></svg>