<svg xmlns="http://www.w3.org/2000/svg" viewBox="0 0 24 24" width="24" height="24"><path fill="currentColor" d="M12 21L0 9q2.4-2.45 5.5-3.725T12 4q3.425 0 6.525 1.275T24 9l-2.525 2.525q-.55-.25-1.125-.375t-1.2-.15l1.95-1.95q-1.95-1.475-4.262-2.262T12 6t-4.837.788T2.9 9.05l2.9 2.9q1.325-.95 2.9-1.487t3.3-.538q1.4 0 2.7.363t2.45 1.012q-1.825.575-2.988 2.138T13 17.025q0 .65.125 1.263t.4 1.187zm5 0q-.425 0-.712-.288T16 20v-3q0-.425.288-.712T17 16v-1q0-.825.588-1.412T19 13t1.413.588T21 15v1q.425 0 .713.288T22 17v3q0 .425-.288.713T21 21zm1-5h2v-1q0-.425-.288-.712T19 14t-.712.288T18 15z"/></svg>