<svg xmlns="http://www.w3.org/2000/svg" viewBox="0 0 24 24" width="24" height="24"><path fill="currentColor" d="M8.075 20q-.275 0-.512-.137t-.363-.388L5.25 16H6.7l1 2H10v-1H8.3l-1-2H4.7l-1.425-2.5q-.05-.125-.087-.25T3.15 12q0-.1.125-.5L4.7 9h2.6l1-2H10V6H7.7l-1 2H5.25L7.2 4.525q.125-.25.362-.387T8.076 4H10.5q.425 0 .713.288T11.5 5v4H10l-1 1h2.5v3H9.3l-1-2H6l-1 1h2.7l1 2h2.8v5q0 .425-.288.713T10.5 20zm5.425 0q-.425 0-.712-.288T12.5 19v-5h2.8l1-2H19l-1-1h-2.3l-1 2h-2.2v-3H15l-1-1h-1.5V5q0-.425.288-.712T13.5 4h2.425q.275 0 .513.138t.362.387L18.75 8H17.3l-1-2H14v1h1.7l1 2h2.6l1.425 2.5q.05.125.088.25t.037.25q0 .1-.125.5L19.3 15h-2.6l-1 2H14v1h2.3l1-2h1.45l-1.95 3.475q-.125.25-.363.388t-.512.137z"/></svg>