<svg xmlns="http://www.w3.org/2000/svg" viewBox="0 0 24 24" width="24" height="24"><path fill="currentColor" d="m20.475 23.3l-2.95-2.95q-1.2.8-2.587 1.225T12 22q-2.075 0-3.9-.788t-3.175-2.137q-1.35-1.35-2.137-3.175T2 12q0-1.55.425-2.938T3.65 6.476L.675 3.5L2.1 2.075l19.8 19.8l-1.425 1.425ZM12 18q.675 0 1.3-.125t1.2-.4q-1.05-.5-1.85-1.325t-1.225-1.9L6.575 9.4q-.275.6-.425 1.25T6 12q0 2.5 1.75 4.25T12 18Zm8.375-.5l-8.55-8.55q.475-.8 1.15-1.425t1.525-1q-.575-.275-1.2-.4T12 6q-.7 0-1.338.15t-1.212.425L6.5 3.625q1.2-.775 2.588-1.2T12 2q2.075 0 3.9.788t3.175 2.137q1.35 1.35 2.138 3.175T22 12q0 1.525-.425 2.913t-1.2 2.587Z"/></svg>