<svg xmlns="http://www.w3.org/2000/svg" viewBox="0 0 24 24" width="24" height="24"><path fill="currentColor" d="m12 6.35l-2.825-2.8l1.4-1.425L12 3.55L15.55 0l1.4 1.4zM4 24q-.425 0-.712-.288T3 23v-8l2.1-6q.15-.45.538-.725T6.5 8h11q.475 0 .863.275T18.9 9l2.1 6v8q0 .425-.287.713T20 24h-1q-.425 0-.712-.288T18 23v-1H6v1q0 .425-.288.713T5 24zm1.8-11h12.4l-1.05-3H6.85zm1.7 6q.625 0 1.063-.437T9 17.5t-.437-1.062T7.5 16t-1.062.438T6 17.5t.438 1.063T7.5 19m9 0q.625 0 1.063-.437T18 17.5t-.437-1.062T16.5 16t-1.062.438T15 17.5t.438 1.063T16.5 19"/></svg>