<svg xmlns="http://www.w3.org/2000/svg" viewBox="0 0 24 24" width="24" height="24"><path fill="currentColor" d="M20.475 23.3L16.3 19.125h2.85V20q0 .425-.287.713T18.15 21H17q-.425 0-.712-.288T16 20v-1H8v1q0 .425-.288.713T7 21H6q-.425 0-.712-.288T5 20v-2.05q-.45-.5-.725-1.112T4 15.5V6.825L.675 3.5L2.1 2.075l19.8 19.8zm-.75-6.45L12.875 10H18V7H9.875l-4-4q.975-.5 2.488-.75T12 2q4.3 0 6.15.925T20 6v9.5q0 .35-.075.688t-.2.662M8.5 16q.625 0 1.063-.437T10 14.5t-.437-1.062T8.5 13t-1.062.438T7 14.5t.438 1.063T8.5 16M6 10h1.175L6 8.825z"/></svg>