<svg xmlns="http://www.w3.org/2000/svg" viewBox="0 0 24 24" width="24" height="24"><path fill="currentColor" d="M11 2.05q.25-.025.5-.037T12 2q.275 0 .513.013T13 2.05v2Q12.75 4 12.512 4h-1.025q-.237 0-.487.05zm-4.2 1.4q.425-.275.863-.475t.912-.375l.875 1.8q-.5.15-.937.363t-.863.487zm9.55 1.8q-.425-.275-.862-.488T14.55 4.4l.875-1.8q.475.175.913.375t.862.475zm2.475 2.525q-.275-.425-.6-.812t-.675-.738l1.575-1.25q.35.35.675.738t.6.812zm-15.25-1.2q.275-.425.588-.812t.662-.738L6.4 6.275q-.35.35-.663.738t-.587.812zm-1.5 4.125q.05-.5.175-.987t.275-.963L4.5 9.2q-.175.475-.288.963t-.162.987zm17.9.525q-.05-.5-.162-1t-.288-.975l1.95-.45q.15.475.275.963t.175.987zm-.45 3.525q.175-.475.275-.95t.15-.975l1.975.45q-.05.5-.175.988t-.275.962zM4.05 12.85q.05.5.163.988t.287.962l-1.975.45q-.15-.475-.275-.962t-.175-.988zm13.575 4.85q.35-.35.65-.737t.575-.813l1.6 1.25q-.275.425-.587.813t-.663.737zM4.85 19q-.35-.35-.663-.75t-.587-.825l1.55-1.25q.275.425.588.825t.662.75zm9.725.575q.5-.175.925-.375t.85-.475l.875 1.8q-.425.275-.862.488t-.913.387zM8.6 21.425q-.475-.175-.925-.387T6.8 20.55l.875-1.8q.425.275.863.488t.937.362zM12 22q-.25 0-.5-.012t-.5-.038v-2q.325.05 1 .05h.513q.237 0 .487-.05v2q-.25.025-.487.038T12 22m1-4q-.95 0-1.737-.575T10.15 15.95q-.075-.225-.162-.437t-.263-.388L8.35 13.75q-.65-.65-1-1.487T7 10.5q0-1.875 1.313-3.187T11.5 6q1.725 0 3 1.138T15.975 10H13.95q-.175-.875-.862-1.437T11.5 8q-1.05 0-1.775.725T9 10.5q0 .5.2.988t.575.862l1.35 1.35q.35.35.562.763t.363.837q.125.325.375.513T13 16q.425 0 .713-.288T14 15h2q0 1.25-.862 2.125T13 18m.5-4q-.625 0-1.062-.437T12 12.5q0-.65.438-1.075T13.5 11q.65 0 1.075.425T15 12.5q0 .625-.425 1.063T13.5 14"/></svg>