<svg xmlns="http://www.w3.org/2000/svg" viewBox="0 0 24 24" width="24" height="24"><path fill="currentColor" d="M4.925 19.075q-1.35-1.35-2.137-3.175T2 12t.788-3.9t2.137-3.175L6 6Q4.825 7.175 4.163 8.7T3.5 12t.663 3.3T6 18zM7.05 16.95q-.95-.95-1.5-2.225T5 12t.55-2.725t1.5-2.225L8.1 8.1q-.75.75-1.175 1.75T6.5 12t.425 2.15T8.1 15.9zM11 16.5q0-.575-.387-1.137t-.863-1.175t-.862-1.276T8.5 11.5q0-1.45 1.025-2.475T12 8t2.475 1.025T15.5 11.5q0 .75-.387 1.413t-.863 1.274t-.862 1.176T13 16.5zm0 2.5v-1.5h2V19zm5.95-2.05L15.9 15.9q.75-.75 1.175-1.75T17.5 12t-.425-2.15T15.9 8.1l1.05-1.05q.95.95 1.5 2.225T19 12t-.55 2.725t-1.5 2.225m2.125 2.125L18 18q1.175-1.175 1.838-2.7T20.5 12t-.663-3.3T18 6l1.075-1.075q1.35 1.35 2.138 3.175T22 12t-.788 3.9t-2.137 3.175"/></svg>