<svg xmlns="http://www.w3.org/2000/svg" viewBox="0 0 24 24" width="24" height="24"><path fill="currentColor" d="M15.25 18.75q.3 0 .525-.225T16 18t-.225-.525t-.525-.225t-.525.225T14.5 18t.225.525t.525.225m2.75 0q.3 0 .525-.225T18.75 18t-.225-.525T18 17.25t-.525.225t-.225.525t.225.525t.525.225m2.75 0q.3 0 .525-.225T21.5 18t-.225-.525t-.525-.225t-.525.225T20 18t.225.525t.525.225M18 23q-2.075 0-3.537-1.463T13 18t1.463-3.537T18 13t3.538 1.463T23 18t-1.463 3.538T18 23M7 9h10V7H7zm4.675 12H5q-.825 0-1.412-.587T3 19V5q0-.825.588-1.412T5 3h14q.825 0 1.413.588T21 5v6.7q-.725-.35-1.463-.525T18 11q-.275 0-.513.012t-.487.063V11H7v2h6.125q-.45.425-.812.925T11.675 15H7v2h4.075q-.05.25-.062.488T11 18q0 .825.15 1.538T11.675 21"/></svg>