<svg xmlns="http://www.w3.org/2000/svg" viewBox="0 0 24 24" width="24" height="24"><path fill="currentColor" d="M12 6q.425 0 .713-.287Q13 5.425 13 5t-.287-.713Q12.425 4 12 4t-.712.287Q11 4.575 11 5t.288.713Q11.575 6 12 6Zm0 2q-1.25 0-2.125-.875T9 5q0-1.25.875-2.125T12 2q1.25 0 2.125.875T15 5q0 1.25-.875 2.125T12 8Zm0 12q.425 0 .713-.288Q13 19.425 13 19t-.287-.712Q12.425 18 12 18t-.712.288Q11 18.575 11 19t.288.712Q11.575 20 12 20Zm0 2q-1.25 0-2.125-.875T9 19q0-1.25.875-2.125T12 16q1.25 0 2.125.875T15 19q0 1.25-.875 2.125T12 22Zm-9-7q-.425 0-.712-.288Q2 14.425 2 14v-4q0-.425.288-.713Q2.575 9 3 9t.713.287Q4 9.575 4 10v4q0 .425-.287.712Q3.425 15 3 15Zm7 .5q-.425 0-.712-.288Q9 14.925 9 14.5v-5q0-.425.288-.713Q9.575 8.5 10 8.5t.713.287Q11 9.075 11 9.5v5q0 .425-.287.712q-.288.288-.713.288Zm4 0q-.425 0-.712-.288Q13 14.925 13 14.5v-5q0-.425.288-.713q.287-.287.712-.287t.713.287Q15 9.075 15 9.5v5q0 .425-.287.712q-.288.288-.713.288Zm7-.5q-.425 0-.712-.288Q20 14.425 20 14v-4q0-.425.288-.713Q20.575 9 21 9t.712.287Q22 9.575 22 10v4q0 .425-.288.712Q21.425 15 21 15Zm-3.5 4q-.425 0-.712-.288q-.288-.287-.288-.712V6q0-.425.288-.713Q17.075 5 17.5 5t.712.287q.288.288.288.713v12q0 .425-.288.712q-.287.288-.712.288Zm-11 0q-.425 0-.713-.288Q5.5 18.425 5.5 18V6q0-.425.287-.713Q6.075 5 6.5 5t.713.287Q7.5 5.575 7.5 6v12q0 .425-.287.712Q6.925 19 6.5 19Z"/></svg>