<svg xmlns="http://www.w3.org/2000/svg" viewBox="0 0 24 24" width="24" height="24"><path fill="currentColor" d="M4 14q-.825 0-1.412-.587T2 12t.588-1.412T4 10t1.413.588T6 12t-.587 1.413T4 14m0-1.35q.275 0 .463-.187T4.65 12t-.187-.462T4 11.35t-.462.188T3.35 12t.188.463t.462.187M9.35 14q-.825 0-1.412-.587T7.35 12t.588-1.412T9.35 10t1.413.588T11.35 12t-.587 1.413T9.35 14m0-1.35q.275 0 .463-.187T10 12t-.187-.462t-.463-.188t-.462.188T8.7 12t.188.463t.462.187m5.3 1.35q-.825 0-1.412-.587T12.65 12t.588-1.412T14.65 10t1.413.588T16.65 12t-.587 1.413T14.65 14m0-1.35q.275 0 .463-.187T15.3 12t-.187-.462t-.463-.188t-.462.188T14 12t.188.463t.462.187M20 14q-.825 0-1.412-.587T18 12t.588-1.412T20 10t1.413.588T22 12t-.587 1.413T20 14"/></svg>