<svg xmlns="http://www.w3.org/2000/svg" viewBox="0 0 24 24" width="24" height="24"><path fill="currentColor" d="M12 17q-.825 0-1.412-.587T10 15t.588-1.412T12 13t1.413.588T14 15t-.587 1.413T12 17m-3 7v-3.6q-2.125-.725-3.062-2.462T5 14h2q0 2.525 1.275 3.763T12 19t3.725-1.237T17 14h2q0 2.2-.937 3.938T15 20.4V24zM5 13L3 8.3q-.125.075-.425.263T2 8.75q-.425 0-.712-.288T1 7.75v-3.5q0-1.775 3.225-3.012T12 0t7.775 1.238T23 4.25v3.5q0 .425-.288.713T22 8.75q-.275 0-.575-.187T21 8.3L19 13h-2l-1.5-6.275q-.825-.125-1.7-.175T12 6.5t-1.8.05t-1.7.175L7 13zm.875-1.75L6.9 6.975q-.7.15-1.325.325t-1.2.4zm12.25-.025l1.5-3.525q-.575-.225-1.2-.4T17.1 6.975z"/></svg>