<svg xmlns="http://www.w3.org/2000/svg" viewBox="0 0 24 24" width="24" height="24"><path fill="currentColor" d="M7 11.5v-1h1v1H7ZM5.5 15H7v-2h1.5q.425 0 .713-.288T9.5 12v-2q0-.425-.288-.713T8.5 9h-3v6Zm4.9 0h3q.325 0 .575-.175t.375-.475L12.9 12.9v.6h-1v-1.6l-1.5-1.5V15ZM5 21q-.825 0-1.413-.588T3 19V5q0-.4.15-.763t.425-.662L20.4 20.4q-.275.3-.638.45T19 21H5Zm14.775 1.6L1.4 4.2l1.4-1.4l18.4 18.4l-1.425 1.4ZM21 5v13.175l-4-4V13h1.5v-1.5H17v-1h1.5V9h-3v3.675l-1.1-1.1V10q0-.425-.288-.713T13.4 9h-1.575l-6-6H19q.825 0 1.413.588T21 5Z"/></svg>