<svg xmlns="http://www.w3.org/2000/svg" viewBox="0 0 24 24" width="24" height="24"><path fill="currentColor" d="M19 20q.825 0 1.413-.587T21 18t-.587-1.412T19 16t-1.412.588T17 18t.588 1.413T19 20m-1 3l-.3-1.5q-.3-.125-.562-.262T16.6 20.9l-1.45.45l-1-1.7l1.15-1q-.05-.3-.05-.65t.05-.65l-1.15-1l1-1.7l1.45.45q.275-.2.538-.337t.562-.263L18 13h2l.3 1.5q.3.125.563.263t.537.337l1.45-.45l1 1.7l-1.15 1q.05.3.05.65t-.05.65l1.15 1l-1 1.7l-1.45-.45q-.275.2-.537.338t-.563.262L20 23zM2 22L22 2v9.65q-.65-.325-1.463-.488T19 11q-2.925 0-4.975 2.038T11.975 18q0 1.125.3 2.1T13.2 22z"/></svg>