<svg xmlns="http://www.w3.org/2000/svg" viewBox="0 0 24 24" width="24" height="24"><path fill="currentColor" d="M9 21v-5q-1.55-.125-3.037-.35T3 15l.5-2q2.075.575 4.2.788T12 14q2.15 0 4.275-.213T20.5 13l.5 2q-1.5.425-2.988.65T15 16v5zm3-8q-.85 0-1.425-.575T10 11q0-.825.575-1.412T12 9q.825 0 1.413.588T14 11q0 .85-.587 1.425T12 13m-7.5-3q-.65 0-1.075-.425T3 8.5q0-.625.425-1.062T4.5 7q.625 0 1.063.438T6 8.5q0 .65-.437 1.075T4.5 10m15 0q-.65 0-1.075-.425T18 8.5q0-.625.425-1.062T19.5 7q.625 0 1.063.438T21 8.5q0 .65-.437 1.075T19.5 10M7.25 6.25q-.65 0-1.075-.425T5.75 4.75q0-.625.425-1.062T7.25 3.25q.625 0 1.063.438T8.75 4.75q0 .65-.437 1.075T7.25 6.25m9.5 0q-.65 0-1.075-.425T15.25 4.75q0-.625.425-1.062t1.075-.438q.625 0 1.063.438t.437 1.062q0 .65-.437 1.075t-1.063.425M12 5q-.65 0-1.075-.425T10.5 3.5q0-.625.425-1.062T12 2q.625 0 1.063.438T13.5 3.5q0 .65-.437 1.075T12 5"/></svg>