<svg xmlns="http://www.w3.org/2000/svg" viewBox="0 0 24 24" width="24" height="24"><path fill="currentColor" d="M11 5.1q.275-.05.5-.075T12 5t.5.025t.5.075V5q0-.425-.288-.712T12 4t-.712.288T11 5zM18 23q-2.075 0-3.537-1.462T13 18t1.463-3.537T18 13t3.538 1.463T23 18t-1.463 3.538T18 23m-.45-3.9h.9v-.25q0-.275.15-.488t.35-.412q.35-.3.55-.575t.2-.775q0-.725-.475-1.162T18 15q-.575 0-1.037.338t-.663.912l.8.35q.075-.3.313-.525T18 15.85q.375 0 .588.188t.212.562q0 .275-.15.463t-.35.387q-.15.15-.312.3t-.288.35q-.075.15-.112.3t-.038.35zM18 21q.275 0 .463-.187t.187-.463t-.187-.462T18 19.7t-.462.188t-.188.462t.188.463T18 21M7 22q-.825 0-1.412-.587T5 20v-8q0-2.125 1.113-3.8T9 5.7V5q0-1.25.863-2.125T12 2t2.138.875T15 5v.7q1.575.725 2.625 2.138t1.325 3.212q-.45-.05-1-.05t-1 .075q-.675.125-1.25.313T14.4 12H8v2h4.25q-.575.875-.913 1.838T11 17.975q0 .475.075.975T11.3 20q.15.5.412 1.038t.538.962z"/></svg>