<svg xmlns="http://www.w3.org/2000/svg" viewBox="0 0 24 24" width="24" height="24"><path fill="currentColor" d="M12 21q-1.6 0-2.863-.825T7.076 18L4.7 19.35l-1-1.725l2.575-1.5q-.075-.275-.125-.562T6.05 15H3v-2h3.05q.05-.3.1-.587t.125-.563L3.7 10.35l1-1.725L7.05 10q.2-.35.463-.687T8.05 8.7Q8 8.525 8 8.35V8q0-.6.175-1.15t.475-1.025L7 4.175L8.4 2.75l1.75 1.7q.425-.225.888-.337T12 4t.975.125t.9.35L15.6 2.75L17 4.175l-1.65 1.65q.3.475.463 1.025T15.975 8v.338q0 .162-.05.337q.275.275.537.625t.463.7L19.3 8.65l1 1.725l-2.6 1.475q.075.275.137.563t.113.587H21v2h-3.05q-.05.3-.1.588t-.125.562l2.575 1.5l-1 1.725L16.925 18q-.8 1.35-2.063 2.175T12 21M10.1 7.35q.425-.175.913-.262T12 7t.963.075t.887.25q-.2-.575-.7-.95T12 6t-1.175.388t-.725.962M12 19q1.825 0 2.913-1.525T16 14q0-1.75-1.012-3.375T12 9q-1.95 0-2.975 1.613T8 14q0 1.95 1.088 3.475T12 19m-1-2v-6h2v6z"/></svg>