<svg xmlns="http://www.w3.org/2000/svg" viewBox="0 0 24 24" width="24" height="24"><path fill="currentColor" d="M17 12V8.2l-2.3 2.3l-.7-.7L16.8 7L14 4.2l.7-.7L17 5.8V2h.5l2.85 2.9L18.2 7l2.15 2.15L17.5 12zm1-1.9l.95-.95L18 8.2zm0-4.3l.95-.9l-.95-.95zM19.95 21q-3.125 0-6.175-1.362t-5.55-3.863t-3.862-5.55T3 4.05q0-.45.3-.75t.75-.3H8.1q.35 0 .625.238t.325.562l.65 3.5q.05.4-.025.675T9.4 8.45L6.975 10.9q.5.925 1.187 1.787t1.513 1.663q.775.775 1.625 1.438T13.1 17l2.35-2.35q.225-.225.588-.337t.712-.063l3.45.7q.35.1.575.363T21 15.9v4.05q0 .45-.3.75t-.75.3"/></svg>