<svg xmlns="http://www.w3.org/2000/svg" viewBox="0 0 24 24" width="24" height="24"><path fill="currentColor" d="M3.8 16.1q-.275.15-.525 0t-.25-.45v-7.3q0-.3.25-.45q.25-.15.525 0l4.35 2.5q.15.1.225.275q.075.175.025.35q-.125.5-.125.975t.125.975q.05.175-.012.35q-.063.175-.238.25Zm7.15 5.825l-6.3-3.575q-.275-.15-.262-.463q.012-.312.287-.462l4.3-2.475q.15-.1.325-.063q.175.038.3.163q.35.35.775.587q.425.238.925.388q.175.05.288.187q.112.138.137.313v4.95q0 .3-.25.45q-.25.15-.525 0Zm-.05-11.75l-6.25-3.6q-.275-.15-.275-.462q0-.313.25-.463l6.3-3.6q.275-.15.525.012q.25.163.25.463v7.2q0 .3-.262.45q-.263.15-.538 0Zm3.15 11.775q-.275.15-.525-.012q-.25-.163-.25-.463V16.55q0-.2.112-.338q.113-.137.288-.187q.5-.15.925-.388q.425-.237.775-.587q.125-.125.3-.163q.175-.037.325.063l4.325 2.5q.275.15.288.45q.012.3-.263.45Zm0-11.775q-.275.15-.525 0t-.25-.45v-7.2q0-.3.25-.45q.25-.15.525 0l6.275 3.575q.275.15.275.463q0 .312-.275.462Z"/></svg>