<svg xmlns="http://www.w3.org/2000/svg" viewBox="0 0 24 24" width="24" height="24"><path fill="currentColor" d="M19.275 9.175L15.75 5.65l-2.125 2.1l-2.125-2.1l2.825-2.85q.3-.3.675-.437t.75-.138q.4 0 .763.138t.637.437l2.125 2.125q.45.425.663.988t.212 1.137t-.212 1.125t-.663 1M5.5 13.775q-.45-.45-.45-1.062t.45-1.063l2.45-2.475l2.125 2.125L7.6 13.775q-.425.45-1.037.45t-1.063-.45M4.425 21.2q-.275-.3-.425-.662t-.15-.763t.138-.762t.437-.663L11.5 11.3L8.325 8.1q-.45-.425-.45-1.037T8.325 6q.425-.45 1.05-.45T10.45 6l3.175 3.175L15.05 7.75l2.8 2.85q.3.3.3.7t-.3.7t-.7.3t-.7-.3l-9.2 9.2q-.3.3-.663.438t-.737.137t-.75-.15t-.675-.425"/></svg>