<svg xmlns="http://www.w3.org/2000/svg" viewBox="0 0 24 24" width="24" height="24"><path fill="currentColor" d="m18.375 22.075l1.15-1.15l-4.45-4.45l-1.15 1.15Q13 18.55 13 19.85t.925 2.225T16.15 23t2.225-.925m2.55-2.55l1.15-1.15Q23 17.45 23 16.15t-.925-2.225T19.85 13t-2.225.925l-1.15 1.15zM7 9h10V7H7zm5-4.75q.325 0 .538-.213t.212-.537t-.213-.537T12 2.75t-.537.213t-.213.537t.213.538t.537.212M11.125 21H5q-.825 0-1.412-.587T3 19V5q0-.825.588-1.412T5 3h4.2q.325-.9 1.088-1.45T12 1t1.713.55T14.8 3H19q.825 0 1.413.588T21 5v6.125q-1.05-.25-2.087-.038T17 11.876V11H7v2h8.725l-2 2H7v2h4.875q-.575.875-.788 1.913T11.126 21"/></svg>