<svg xmlns="http://www.w3.org/2000/svg" viewBox="0 0 24 24" width="24" height="24"><path fill="currentColor" d="M8.45 18.9q-.375.2-.762.063T7.1 18.45l-6-12q-.2-.375-.062-.763T1.55 5.1t.763-.062t.587.512l6 12q.2.375.063.763t-.513.587m4.675 0q-.375.2-.763.063t-.587-.513l-6-12q-.2-.375-.062-.763t.512-.587t.75-.062t.575.512l6.025 12q.2.375.063.763t-.513.587m4.675-.025q-.375.2-.763.075t-.587-.5l-6-12q-.2-.375-.062-.763T10.9 5.1t.75-.062t.575.512l6.025 12q.2.375.063.75t-.513.575m4.65.025q-.375.2-.762.063t-.588-.513l-6-12q-.2-.375-.062-.763t.512-.587t.763-.062t.587.512l6 12q.2.375.063.763t-.513.587"/></svg>