<svg xmlns="http://www.w3.org/2000/svg" viewBox="0 0 24 24" width="24" height="24"><path fill="currentColor" d="M13.95 21.9q-.375.2-.762.063t-.588-.513l-1.5-3q-.2-.375-.062-.762t.512-.588t.763-.062t.587.512l1.5 3q.2.375.063.763t-.513.587m6 0q-.375.2-.762.063t-.588-.513l-1.5-3q-.2-.375-.062-.762t.512-.588t.763-.062t.587.512l1.5 3q.2.375.063.763t-.513.587m-12 0q-.375.2-.762.063T6.6 21.45l-1.5-3q-.2-.375-.062-.762t.512-.588t.763-.062t.587.512l1.5 3q.2.375.063.763t-.513.587M7.5 16q-2.275 0-3.887-1.612T2 10.5q0-2.075 1.375-3.625t3.4-1.825q.8-1.425 2.188-2.238T12 2q2.25 0 3.913 1.438t2.012 3.587q1.725.15 2.9 1.425T22 11.5q0 1.875-1.312 3.188T17.5 16z"/></svg>