<svg xmlns="http://www.w3.org/2000/svg" viewBox="0 0 24 24" width="24" height="24"><path fill="currentColor" d="M4.95 11.9q-.375.2-.763.063T3.6 11.45l-2.5-5q-.2-.375-.062-.763T1.55 5.1t.763-.062t.587.512l2.5 5q.2.375.063.763t-.513.587m3.5 7q-.375.2-.763.063T7.1 18.45l-2-4q-.2-.375-.062-.763t.512-.587t.763-.062t.587.512l2 4q.2.375.063.763t-.513.587m2.05-5q-.375.2-.762.063t-.588-.513l-3.5-7q-.2-.375-.062-.763T6.1 5.1t.763-.062t.587.512l3.5 7q.2.375.063.763t-.513.587m2.15-5q-.375.2-.763.063T11.3 8.45l-.975-2q-.2-.375-.062-.762t.512-.588t.75-.062t.575.512l1 2q.2.375.063.763t-.513.587m.6 9.975q-.375.2-.763.075t-.587-.5l-1-2q-.2-.375-.062-.763t.512-.587t.763-.062t.587.512l1 2q.2.375.063.75t-.513.575m4.65 0q-.375.2-.763.075t-.587-.5l-3.5-7q-.2-.375-.062-.762t.512-.588t.763-.062t.587.512l3.5 7q.2.375.063.75t-.513.575m1.55-5.975q-.375.2-.762.062t-.588-.512l-3-6q-.2-.375-.062-.763t.512-.587t.763-.062t.587.512l3 6q.2.375.063.763t-.513.587m3 6q-.375.2-.762.063t-.588-.513l-1.5-3q-.2-.375-.062-.763t.512-.587t.763-.062t.587.512l1.5 3q.2.375.063.763t-.513.587"/></svg>