<svg xmlns="http://www.w3.org/2000/svg" viewBox="0 0 24 24" width="24" height="24"><path fill="currentColor" d="M8.45 18.9q-.375.2-.762.063T7.1 18.45l-1.5-3q-.2-.375-.062-.763t.512-.587t.763-.062t.587.512l1.5 3q.2.375.063.763t-.513.587m9 0q-.375.2-.762.063t-.588-.513l-4.5-9q-.2-.375-.062-.762t.512-.588t.763-.062t.587.512l4.5 9q.2.375.063.763t-.513.587m-4.7.1q-.425 0-.712-.287T11.75 18t.288-.712t.712-.288t.713.288t.287.712t-.288.713t-.712.287m9.7-.1q-.375.2-.762.063t-.588-.513l-.5-1q-.2-.375-.062-.763t.512-.587t.763-.062t.587.512l.5 1q.2.375.063.763t-.513.587m-11-3q-.375.2-.762.063t-.588-.513l-4.5-9q-.2-.375-.062-.762T6.05 5.1t.763-.062t.587.512l4.5 9q.2.375.063.763t-.513.587M20 15q-.425 0-.712-.288T19 14t.288-.712T20 13t.713.288T21 14t-.288.713T20 15M5 13q-.425 0-.712-.288T4 12t.288-.712T5 11t.713.288T6 12t-.288.713T5 13m13.95-1.1q-.375.2-.762.063t-.588-.513l-2.5-5q-.2-.375-.062-.763t.512-.587t.763-.062t.587.512l2.5 5q.2.375.063.763t-.513.587m-15-2q-.375.2-.763.063T2.6 9.45l-1.5-3q-.2-.375-.062-.763T1.55 5.1t.763-.062t.587.512l1.5 3q.2.375.063.763T3.95 9.9m7.3-2.9q-.425 0-.712-.288T10.25 6t.288-.712T11.25 5t.713.288t.287.712t-.288.713T11.25 7"/></svg>