<svg xmlns="http://www.w3.org/2000/svg" viewBox="0 0 24 24" width="24" height="24"><path fill="currentColor" d="M6.075 15.35q-.325.05-.65.038t-.675-.063q-1.6-.2-2.675-1.4T1 11.1q0-1.75 1-2.75t2.35-.575q.325-.525.775-.787t1-.263q1.425 0 2.6 1.363T9.9 11.075T8.738 14t-2.663 1.35q1.275-.15 1.95-.862t.55-1.713q-.025-.2-.087-.4t-.163-.475q.225-.375.338-.8t.112-.85q0-1.2-.862-2.2t-1.938-1q-.45 0-.762.188t-.588.662q-.575-.3-.4-.2t.125.075q-.325.5-.513 1.075t-.312 1.45q-.325.35-.5.813t-.175 1.012q0 .8.4 1.488t1.1 1.062q.35.35.788.525t.937.15m1.9-1.85q0 .65-.575 1.088t-1.5.437q-.425 0-.812-.088t-.738-.262q-.425-.45-.662-1.275t-.238-1.9q0-.3.013-.625t.062-.575q.125-.125.25-.225t.25-.15q-.025.15-.025.313v.312q0 1.375.5 2.138t1.375.762q.475 0 .938-.213t.962-.637q.125.275.163.488t.037.412m-.2-.9q-.325-.775-.962-1.487T5.45 10.025q-.375-.2-.737-.225t-.688.125q.05-.6.213-1.112t.387-.913q.85.2 2.05 1.513t1.65 2.512q-.125.2-.25.363t-.3.312m4.325 4.65v-4.575h-.975V11.4h2.55v5.85zm.75-6.4q-.4 0-.662-.275t-.263-.675t.263-.663t.662-.262t.663.263t.262.662t-.262.675t-.663.275m2.7 6.4v-4.6h-.975v-1.275h.975v-.425q0-.925.45-1.4t1.35-.475q.35 0 .625.038t.525.112V10.5q-.475-.15-.7-.1q-.35 0-.525.175t-.175.525v.275h1.4v1.275h-1.35v4.6zm6.3 0q-.9 0-1.35-.462t-.45-1.413v-2.7h-.9V11.4h.9V9.075h1.6V11.4H23v1.275h-1.4v2.55q0 .35.163.538t.512.187q.125 0 .5-.075v1.3q-.275.05-.425.063t-.5.012"/></svg>