<svg xmlns="http://www.w3.org/2000/svg" viewBox="0 0 24 24" width="24" height="24"><path fill="currentColor" d="M11 22q-1.25-.125-2.4-.612T6.4 20.1l1.4-1.45q.725.525 1.538.85t1.662.45zm2 0v-2.05q2.6-.375 4.3-2.337T19 13.05q0-2.925-2.037-4.962T12 6.05h-.2l1.6 1.6l-1.4 1.4l-4-4l4-4l1.4 1.45l-1.55 1.55H12q1.875 0 3.513.713t2.85 1.925t1.925 2.85T21 13.05q0 3.425-2.275 5.963T13 22m-8.05-3.35q-.8-1.05-1.288-2.2t-.612-2.4H5.1q.125.85.45 1.663t.85 1.537zm-1.9-6.6q.15-1.275.625-2.45T4.95 7.45l1.45 1.4q-.525.725-.85 1.538T5.1 12.05z"/></svg>