<svg xmlns="http://www.w3.org/2000/svg" viewBox="0 0 24 24" width="24" height="24"><path fill="currentColor" d="M11.325 12.7q1.275 1.275 2.85 2.188T17.55 16.3q-1 1.275-2.45 1.988T12.025 19Q9.1 19 7.063 16.963T5.025 12q0-1.625.713-3.075t1.987-2.45q.5 1.8 1.413 3.375t2.187 2.85m7.25 1.8q-.5-.125-.987-.275t-.963-.35q.2-.45.288-.913T17 12q0-2.075-1.463-3.537T12 7q-.5 0-.962.088t-.913.287q-.2-.475-.337-.95t-.263-.975q.6-.225 1.225-.337T12.025 5q2.925 0 4.963 2.038T19.025 12q0 .65-.112 1.275t-.338 1.225M11 3V0h2v3zm0 21v-3h2v3zm8.075-17.65L17.65 4.925l2.125-2.1l1.425 1.4zM4.225 21.175l-1.425-1.4l2.125-2.125l1.425 1.425zM21 13v-2h3v2zM0 13v-2h3v2zm19.775 8.2l-2.125-2.125l1.425-1.425l2.1 2.125zM4.925 6.35l-2.1-2.125l1.4-1.425L6.35 4.925z"/></svg>