<svg xmlns="http://www.w3.org/2000/svg" viewBox="0 0 24 24" width="24" height="24"><path fill="currentColor" d="M13 18v-3.575L11.875 13.2l-.525 2.65l-3.75-.775l.2-.975l2.775.575l.975-4.9l-1.55.575V12H9V9.65l3.275-1.2q.375-.125.737.025t.538.5q.625 1.275 1.387 1.65T16 11v1q-.525 0-1.375-.413T13.1 10.25l-.425 2.35L14 14.025V18zm.5-10q-.425 0-.712-.288T12.5 7t.288-.712T13.5 6t.713.288T14.5 7t-.288.713T13.5 8M12 22q-2.075 0-3.9-.788t-3.175-2.137T2.788 15.9T2 12t.788-3.9t2.137-3.175T8.1 2.788T12 2t3.9.788t3.175 2.137T21.213 8.1T22 12t-.788 3.9t-2.137 3.175t-3.175 2.138T12 22m0-2q3.35 0 5.675-2.325T20 12t-2.325-5.675T12 4T6.325 6.325T4 12t2.325 5.675T12 20"/></svg>