<svg xmlns="http://www.w3.org/2000/svg" viewBox="0 0 24 24" width="24" height="24"><path fill="currentColor" d="M3 13.5L11 2v11.5zm9.5 0q.3-.7.65-2.45t.35-3.55t-.337-3.7T12.5 1q1.525.45 3.038 1.675T18.261 5.6t1.975 3.738T21 13.5zM9 19q-.9 0-1.675-.425T6 17.5q-.35.375-.763.7t-.912.525q-.875-.65-1.487-1.612T2 15h20q-.225 1.15-.837 2.113t-1.488 1.612q-.5-.2-.913-.525T18 17.5q-.575.65-1.338 1.075T15 19t-1.675-.425T12 17.5q-.55.65-1.325 1.075T9 19m-7 4v-2h1q.8 0 1.563-.25T6 20q.675.5 1.438.738T9 20.975t1.55-.238T12 20q.675.5 1.438.738t1.562.237t1.55-.238T18 20q.7.5 1.45.75T21 21h1v2h-1q-.775 0-1.525-.187T18 22.25q-.725.375-1.475.563T15 23t-1.525-.187T12 22.25q-.725.375-1.475.563T9 23t-1.525-.187T6 22.25q-.725.375-1.475.563T3 23z"/></svg>