<svg xmlns="http://www.w3.org/2000/svg" viewBox="0 0 24 24" width="24" height="24"><path fill="currentColor" d="M12 22q-3.425 0-5.712-2.35T4 13.8h16q0 3.5-2.287 5.85T12 22M5 12q-.425 0-.712-.288T4 11t.288-.712T5 10t.713.288T6 11t-.288.713T5 12m4.5 0q-.425 0-.712-.288T8.5 11t.288-.712T9.5 10t.713.288t.287.712t-.288.713T9.5 12m5 0q-.425 0-.712-.288T13.5 11t.288-.712T14.5 10t.713.288t.287.712t-.288.713T14.5 12m4.5 0q-.425 0-.712-.288T18 11t.288-.712T19 10t.713.288T20 11t-.288.713T19 12M7.25 9.25q-.425 0-.712-.288T6.25 8.25t.288-.712t.712-.288t.713.288t.287.712t-.288.713t-.712.287m9.5 0q-.425 0-.712-.288t-.288-.712t.288-.712t.712-.288t.713.288t.287.712t-.288.713t-.712.287M12 9q-.425 0-.712-.288T11 8t.288-.712T12 7t.713.288T13 8t-.288.713T12 9M9.5 6.5q-.425 0-.712-.288T8.5 5.5t.288-.712T9.5 4.5t.713.288t.287.712t-.288.713T9.5 6.5m5 0q-.425 0-.712-.288T13.5 5.5t.288-.712t.712-.288t.713.288t.287.712t-.288.713t-.712.287M12 4q-.425 0-.712-.288T11 3t.288-.712T12 2t.713.288T13 3t-.288.713T12 4"/></svg>