<svg xmlns="http://www.w3.org/2000/svg" viewBox="0 0 24 24" width="24" height="24"><path fill="currentColor" d="M21.2 21.2L13 13v1l1.825 3.65q.075.175.125.35t.05.375q0 .675-.475 1.15q-.475.475-1.15.475H9v-2h4l-1.8-3.575q-.125-.2-.162-.437Q11 13.75 11 13.525V11L6 6q-.725 0-1.375.262q-.65.263-1.2.738L2 5.6q.5-.45 1.075-.788q.575-.337 1.2-.537L2.8 2.8l1.425-1.425l18.4 18.4ZM6.5 14q-1.05 0-1.775-.725Q4 12.55 4 11.5q0-1.05.725-1.775Q5.45 9 6.5 9q1.05 0 1.775.725Q9 10.45 9 11.5q0 1.05-.725 1.775Q7.55 14 6.5 14Zm12.6-.6l-3.5-3.5q.35-.425.838-.662Q16.925 9 17.5 9q1.05 0 1.775.725Q20 10.45 20 11.5q0 .575-.237 1.062q-.238.488-.663.838ZM15.425 7L14 5.6q.825-.75 1.85-1.175Q16.875 4 18 4t2.15.425Q21.175 4.85 22 5.6L20.575 7q-.55-.475-1.2-.738Q18.725 6 18 6t-1.375.262q-.65.263-1.2.738Z"/></svg>