<svg xmlns="http://www.w3.org/2000/svg" viewBox="0 0 24 24" width="24" height="24"><path fill="currentColor" d="m20.6 21l-6.4-6.4q-.3-.325-.637-.662T12.9 13.3q.95-.6 1.525-1.6T15 9.5q0-1.875-1.312-3.187T10.5 5T7.313 6.313T6 9.5q0 .15.013.288t.037.287q-.45.05-.987.2t-.963.35q-.05-.275-.075-.55T4 9.5q0-2.725 1.888-4.612T10.5 3t4.613 1.888T17 9.5q0 1.075-.337 2.038t-.938 1.762L22 19.6zM6 22l-.3-1.5q-.3-.125-.562-.262T4.6 19.9l-1.45.45l-1-1.7l1.15-1q-.05-.325-.05-.65t.05-.65l-1.15-1l1-1.7l1.45.45q.275-.2.538-.337T5.7 13.5L6 12h2l.3 1.5q.3.125.563.263t.537.337l1.45-.45l1 1.7l-1.15 1q.05.325.05.65t-.05.65l1.15 1l-1 1.7l-1.45-.45q-.275.2-.537.338T8.3 20.5L8 22zm1-3q.825 0 1.413-.587T9 17t-.587-1.412T7 15t-1.412.588T5 17t.588 1.413T7 19"/></svg>