<svg xmlns="http://www.w3.org/2000/svg" viewBox="0 0 24 24" width="24" height="24"><path fill="currentColor" d="M16 23q-.425 0-.712-.288T15 22t.288-.712T16 21h3v-1h-3q-.425 0-.712-.288T15 19t.288-.712T16 18h3v-1h-3q-.425 0-.712-.288T15 16t.288-.712T16 15h3v-1h-3q-.425 0-.712-.288T15 13t.288-.712T16 12h3v-1h-3q-.425 0-.712-.288T15 10t.288-.712T16 9h3V8h-3q-.425 0-.712-.288T15 7t.288-.712T16 6h4q.825 0 1.413.588T22 8v13q0 .825-.587 1.413T20 23zm-8-8q1.65 0 2.825-1.625T12 9.5t-1.175-3.875T8 4T5.175 5.625T4 9.5t1.175 3.875T8 15m0 8q-1.2 0-1.975-.888t-.6-2.087l.4-3.525q-1.7-.825-2.762-2.713T2 9.5q0-3.125 1.75-5.312T8 2t4.25 2.188T14 9.5q0 2.4-1.062 4.288T10.175 16.5l.4 3.525q.175 1.2-.6 2.088T8 23"/></svg>