<svg xmlns="http://www.w3.org/2000/svg" viewBox="0 0 24 24" width="24" height="24"><path fill="currentColor" d="m19.775 22.625l-11.65-11.65q-.05.25-.088.5T8 12q0 .825.313 1.55t.862 1.275L7.75 16.25q-.8-.825-1.275-1.912T6 12q0-.7.15-1.35t.425-1.225L5.1 7.95q-.525.9-.812 1.913T4 12q0 1.675.625 3.125T6.35 17.65l-1.425 1.425q-1.35-1.375-2.137-3.187T2 12q0-1.55.438-2.925T3.65 6.5L1.375 4.225L2.8 2.8l18.4 18.4zm.575-5.125l-1.45-1.45q.525-.9.813-1.912T20 12q0-1.675-.625-3.125T17.65 6.35l1.425-1.425q1.35 1.35 2.138 3.163T22 12q0 1.525-.437 2.913T20.35 17.5m-2.925-2.925l-1.55-1.55q.05-.25.088-.5T16 12q0-.825-.312-1.55t-.863-1.275L16.25 7.75q.8.8 1.275 1.888T18 12q0 .7-.15 1.35t-.425 1.225"/></svg>