<svg xmlns="http://www.w3.org/2000/svg" viewBox="0 0 24 24" width="24" height="24"><path fill="currentColor" d="M12 17.5q.975 0 1.875-.437t1.675-1.313l-1.1-1q-.55.6-1.175.913T12 15.974t-1.275-.312t-1.175-.913l-1.1 1q.8.875 1.688 1.313T12 17.5m0 4.5q-2.075 0-3.9-.788t-3.175-2.137T2.788 15.9T2 12t.788-3.9t2.137-3.175T8.1 2.788T12 2t3.9.788t3.175 2.137T21.213 8.1T22 12t-.788 3.9t-2.137 3.175t-3.175 2.138T12 22M8.5 12q1.05 0 1.75-.763t.975-1.812l-1.45-.35q-.125.55-.438.988T8.5 10.5t-.837-.437t-.438-.988l-1.45.35q.275 1.05.975 1.813T8.5 12m7 0q1.05 0 1.75-.763t.975-1.812l-1.45-.35q-.125.55-.437.988t-.838.437t-.837-.437t-.438-.988l-1.45.35q.275 1.05.975 1.813T15.5 12"/></svg>