<svg xmlns="http://www.w3.org/2000/svg" viewBox="0 0 24 24" width="24" height="24"><path fill="currentColor" d="M12 22q-2.075 0-3.9-.788t-3.175-2.137T2.788 15.9T2 12t.788-3.9t2.137-3.175T8.1 2.788T12 2t3.9.788t3.175 2.137T21.213 8.1T22 12t-.788 3.9t-2.137 3.175t-3.175 2.138T12 22m-4.55-9.4l3.575-2.6L7.45 7.4l-.9 1.2L8.475 10L6.55 11.4zm3.05 4.45l1.5-1.5l1.5 1.5l1.5-1.5l.975.975l1.05-1.05L15 13.45l-1.5 1.5l-1.5-1.5l-1.5 1.5l-1.5-1.5l-2.025 2.025l1.05 1.05L9 15.55zm6.05-4.45l.9-1.2l-1.925-1.4l1.925-1.4l-.9-1.2l-3.575 2.6z"/></svg>