<svg xmlns="http://www.w3.org/2000/svg" viewBox="0 0 24 24" width="24" height="24"><path fill="currentColor" d="M14 22q-.425 0-.712-.288T13 21v-6q0-.425.288-.712T14 14h6q.425 0 .713.288T21 15v2l2-2v6l-2-2v2q0 .425-.288.713T20 22zm-4.75 0l-.4-3.2q-.325-.125-.612-.3t-.563-.375L4.7 19.375l-2.75-4.75l2.575-1.95Q4.5 12.5 4.5 12.338v-.675q0-.163.025-.338L1.95 9.375l2.75-4.75l2.975 1.25q.275-.2.575-.375t.6-.3l.4-3.2h5.5l.4 3.2q.325.125.613.3t.562.375l2.975-1.25l2.75 4.75l-2.575 1.95q.025.175.025.338V12h-3.95q0-1.45-1.025-2.475T12.05 8.5T9.575 9.525T8.55 12q0 1.2.675 2.1T11 15.35V22z"/></svg>