<svg xmlns="http://www.w3.org/2000/svg" viewBox="0 0 24 24" width="24" height="24"><path fill="currentColor" d="m9.25 22l-.4-3.2q-.325-.125-.612-.3t-.563-.375L4.7 19.375l-2.75-4.75l2.575-1.95Q4.5 12.5 4.5 12.338v-.675q0-.163.025-.338L1.95 9.375l2.75-4.75l2.975 1.25q.275-.2.563-.375t.612-.3l.4-3.2h5.5l.4 3.2q.325.125.613.3t.562.375l2.975-1.25l2.75 4.75l-1.85 1.4q-.75-.375-1.55-.575T17 10q-.5 0-.962.088t-.938.212q-.475-.825-1.287-1.312T12.05 8.5q-1.45 0-2.475 1.025T8.55 12q0 .95.463 1.75t1.262 1.275q-.15.5-.212 1.038T10 17.125q.025 1.4.563 2.663T12.1 22zm6.95-.1q-1.6-.25-2.738-1.4t-1.387-2.75h1.475q.225 1 .938 1.713t1.712.937zm1.5.025V20.4q1.2-.275 1.975-1.2t.775-2.2t-.775-2.2t-1.975-1.2v-1.525q1.8.275 3.025 1.663T21.95 17t-1.225 3.263t-3.025 1.662m-5.625-5.675q.25-1.6 1.388-2.75t2.737-1.4v1.5q-1 .225-1.713.938t-.937 1.712zM15.95 19v-4l3.1 2z"/></svg>