<svg xmlns="http://www.w3.org/2000/svg" viewBox="0 0 24 24" width="24" height="24"><path fill="currentColor" d="M9 23q-.425 0-.712-.288T8 22V10q0-.425.288-.712T9 9h6q.425 0 .713.288T16 10v12q0 .425-.288.713T15 23zm3-8.75q.525 0 .888-.363T13.25 13t-.363-.888T12 11.75t-.888.363t-.362.887t.363.888t.887.362m-3.55-6.8l-1.4-1.4q1-1 2.275-1.525T12 4t2.675.525T16.95 6.05l-1.4 1.4q-.725-.725-1.637-1.088T12 6t-1.912.363T8.45 7.45m-2.8-2.8L4.2 3.2Q5.775 1.675 7.788.837T12 0t4.213.838T19.75 3.25l-1.4 1.4q-1.25-1.3-2.9-1.975T12 2t-3.45.675t-2.9 1.975"/></svg>