<svg xmlns="http://www.w3.org/2000/svg" viewBox="0 0 24 24" width="24" height="24"><path fill="currentColor" d="m9.25 22l-.4-3.2q-.325-.125-.612-.3t-.563-.375L4.7 19.375l-2.75-4.75l2.575-1.95Q4.5 12.5 4.5 12.338v-.675q0-.163.025-.338L1.95 9.375l2.75-4.75l2.975 1.25q.275-.2.575-.375t.6-.3l.4-3.2h5.5l.4 3.2q.325.125.613.3t.562.375l2.975-1.25l2.75 4.75l-2.575 1.95q.025.175.025.338v.674q0 .163-.05.338l2.575 1.95l-2.75 4.75l-2.95-1.25q-.275.2-.575.375t-.6.3l-.4 3.2zM12 16q.425 0 .713-.288T13 15t-.288-.712T12 14t-.712.288T11 15t.288.713T12 16m-1-3h2V8h-2z"/></svg>