<svg xmlns="http://www.w3.org/2000/svg" viewBox="0 0 24 24" width="24" height="24"><path fill="currentColor" d="M11 17h2l.3-1.5q.3-.125.563-.262t.537-.338l1.45.45l1-1.7l-1.15-1q.05-.35.05-.65t-.05-.65l1.15-1l-1-1.7l-1.45.45q-.275-.2-.537-.338T13.3 8.5L13 7h-2l-.3 1.5q-.3.125-.562.263T9.6 9.1l-1.45-.45l-1 1.7l1.15 1q-.05.35-.05.65t.05.65l-1.15 1l1 1.7l1.45-.45q.275.2.538.338t.562.262zm1-3q-.825 0-1.412-.587T10 12t.588-1.412T12 10t1.413.588T14 12t-.587 1.413T12 14m-7 7q-.825 0-1.412-.587T3 19V5q0-.825.588-1.412T5 3h14q.825 0 1.413.588T21 5v14q0 .825-.587 1.413T19 21z"/></svg>