<svg xmlns="http://www.w3.org/2000/svg" viewBox="0 0 24 24" width="24" height="24"><path fill="currentColor" d="M12 11q-.425 0-.712-.288T11 10t.288-.712T12 9t.713.288T13 10t-.288.713T12 11m4 0q-.425 0-.712-.288T15 10t.288-.712T16 9t.713.288T17 10t-.288.713T16 11m4 0q-.425 0-.712-.288T19 10t.288-.712T20 9t.713.288T21 10t-.288.713T20 11m-.05 10q-3.125 0-6.175-1.362t-5.55-3.863t-3.862-5.55T3 4.05q0-.45.3-.75t.75-.3H8.1q.35 0 .625.238t.325.562l.65 3.5q.05.4-.025.675T9.4 8.45L6.975 10.9q.5.925 1.187 1.787t1.513 1.663q.775.775 1.625 1.438T13.1 17l2.35-2.35q.225-.225.588-.337t.712-.063l3.45.7q.35.1.575.363T21 15.9v4.05q0 .45-.3.75t-.75.3M6.05 9L7.7 7.35L7.25 5h-2.2q.125 1.025.35 2.025T6.05 9M15 17.905q.975.42 1.98.692t2.02.353v-2.2l-2.35-.5zM6.05 9q-.425-.975-.65-1.975T5.05 5h2.2l.45 2.35zM15 17.9l1.65-1.65l2.35.5v2.2q-1.025-.075-2.025-.35T15 17.9"/></svg>