<svg xmlns="http://www.w3.org/2000/svg" viewBox="0 0 24 24" width="24" height="24"><path fill="currentColor" d="M12 4q-.825 0-1.412-.587T10 2t.588-1.412T12 0t1.413.588T14 2t-.587 1.413T12 4M9 19V7q-1.5-.125-3.05-.375T3 6l.5-2q1.95.525 4.15.763T12 5t4.35-.238T20.5 4l.5 2q-1.4.375-2.95.625T15 7v12h-2v-6h-2v6zm-1 5q-.425 0-.712-.288T7 23t.288-.712T8 22t.713.288T9 23t-.288.713T8 24m4 0q-.425 0-.712-.288T11 23t.288-.712T12 22t.713.288T13 23t-.288.713T12 24m4 0q-.425 0-.712-.288T15 23t.288-.712T16 22t.713.288T17 23t-.288.713T16 24"/></svg>