<svg xmlns="http://www.w3.org/2000/svg" viewBox="0 0 24 24" width="24" height="24"><path fill="currentColor" d="M5 18.025q-.825 0-1.413-.587Q3 16.85 3 16.025v-10q0-.825.587-1.413q.588-.587 1.413-.587h12q.825 0 1.413.587Q19 5.2 19 6.025V11.1q-.25-.05-.487-.075Q18.275 11 18 11t-.512.025q-.238.025-.488.075V10h-5v2q0 .825-.587 1.412Q10.825 14 10 14H5v2.025h7.1q-.05.25-.075.487Q12 16.75 12 17q0 .275.025.512q.025.238.075.513Zm7-10.05h5V6h-5Zm-7 0h5V6H5Zm0 4h5v-2H5Zm12 9v-3h-3v-2h3v-3h2v3h3v2h-3v3Z"/></svg>