<svg xmlns="http://www.w3.org/2000/svg" viewBox="0 0 24 24" width="24" height="24"><path fill="currentColor" d="M14.075 11.725q1.825-1.35 2.85-2.962T17.95 5.55q0-.8-.262-1.175T16.975 4Q15.8 4 14.9 5.988t-.9 4.487q0 .35.013.663t.062.587M3 21v-2h2v2zm4 0v-2h2v2zm4 0v-2h2v2zm4 0v-2h2v2zm4 0v-2h2v2zM3.4 17L2 15.6L3.6 14L2 12.4L3.4 11L5 12.6L6.6 11L8 12.4L6.4 14L8 15.6L6.6 17L5 15.4zm12.05-1q-.75 0-1.375-.288T13 14.776q-.625.35-1.287.625t-1.363.55l-.7-1.875q.7-.25 1.338-.537t1.237-.613q-.125-.55-.187-1.2t-.063-1.4q0-3.6 1.425-5.962T16.975 2q1.3 0 2.125.963t.825 2.687q0 2.15-1.362 4.25t-3.788 3.775q.175.175.363.263t.387.087q.65 0 1.513-.825t1.562-2.175l1.825.85q-.175.425-.275 1.025t.025 1.05q.25-.125.588-.425t.687-.75L23.025 14q-.65.9-1.5 1.45T19.95 16q-.525 0-.937-.312t-.688-.963q-.7.625-1.425.95T15.45 16"/></svg>