<svg xmlns="http://www.w3.org/2000/svg" viewBox="0 0 24 24" width="24" height="24"><path fill="currentColor" d="M5.15 23q-.425.075-.75-.162t-.4-.663t.163-.737t.662-.388L9 20.35V18.5l-5.925.5q-.425.05-.725-.225t-.35-.7t.225-.725t.7-.35L9 16.5v-1.525l-7.025-.225q-.425-.025-.713-.325T1 13.7t.313-.7t.712-.25L9 12.975v-1.5L3.8 10.5q-.425-.075-.65-.413T3 9.326t.413-.65t.762-.15l6.55 1.225l-.525-2.575q-.075-.425.025-.8t.375-.7t.625-.513T12 5l.45.025l4.775 5.275q.375.425.575.925T18 12.3v6.05q0 1.125-.7 1.938T15.5 21.3zm14.35-7.5v-3.2q0-.8-.312-1.612t-.863-1.413l-3.2-3.5l-1.2-3.425q-.125-.4.05-.775t.575-.5t.775.038t.5.562L18.05 7.95L20 6.225q.3-.275.688-.375t.812-.05t.75.288t.525.587l.225.4l-2.225 6.9q-.15.5-.5.875t-.775.65M8.825 7.875l-1.5-.275l-1.15-1.65q-.225-.35-.162-.738t.412-.637t.763-.175t.662.425l.9 1.35q-.05.325-.05.65t.05.65zM9.85 4.3L9.1 3.025q-.2-.35-.087-.763t.462-.612t.763-.087t.612.462l.875 1.5q-.525.05-.975.2t-.9.575"/></svg>