<svg xmlns="http://www.w3.org/2000/svg" viewBox="0 0 24 24" width="24" height="24"><path fill="currentColor" d="M4.25 18.3q-.95-1.1-1.525-2.45T2 13h2.05q.15 1.1.55 2.088T5.65 16.9zM2 11q.2-1.5.75-2.85t1.5-2.45l1.4 1.4Q5 7.925 4.6 8.913T4.05 11zm8.95 10.95q-1.5-.15-2.837-.725T5.65 19.75l1.4-1.45q.875.65 1.838 1.075t2.062.575zM7.1 5.7L5.65 4.25q1.125-.9 2.463-1.475T11 2.05v2q-1.125.15-2.1.575T7.1 5.7m2.4 10.8v-9l7 4.5zm3.5 5.45v-2q3.025-.425 5.013-2.675T20 12t-1.987-5.275T13 4.05v-2q3.85.425 6.425 3.25T22 12t-2.575 6.7T13 21.95"/></svg>