<svg xmlns="http://www.w3.org/2000/svg" viewBox="0 0 24 24" width="24" height="24"><path fill="currentColor" d="M5 19q-.425 0-.712-.288T4 18t.288-.712T5 17t.713.288T6 18t-.288.713T5 19m4.5 0q-.425 0-.712-.288T8.5 18t.288-.712T9.5 17t.713.288t.287.712t-.288.713T9.5 19m4.5 0q-.425 0-.712-.288T13 18t.288-.712T14 17t.713.288T15 18t-.288.713T14 19m4.5 0q-.425 0-.712-.288T17.5 18t.288-.712T18.5 17t.713.288t.287.712t-.288.713T18.5 19M3 15q-.425 0-.712-.288T2 14t.288-.712T3 13t.713.288T4 14t-.288.713T3 15m4.5 0q-.425 0-.712-.288T6.5 14t.288-.712T7.5 13t.713.288T8.5 14t-.288.713T7.5 15m4.5 0q-.425 0-.712-.288T11 14t.288-.712T12 13t.713.288T13 14t-.288.713T12 15m4.5 0q-.425 0-.712-.288T15.5 14t.288-.712T16.5 13t.713.288t.287.712t-.288.713T16.5 15m4.5 0q-.425 0-.712-.288T20 14t.288-.712T21 13t.713.288T22 14t-.288.713T21 15M5 11q-.425 0-.712-.288T4 10t.288-.712T5 9t.713.288T6 10t-.288.713T5 11m4.5 0q-.425 0-.712-.288T8.5 10t.288-.712T9.5 9t.713.288t.287.712t-.288.713T9.5 11m4.5 0q-.425 0-.712-.288T13 10t.288-.712T14 9t.713.288T15 10t-.288.713T14 11m4.5 0q-.425 0-.712-.288T17.5 10t.288-.712T18.5 9t.713.288t.287.712t-.288.713T18.5 11M3 7q-.425 0-.712-.288T2 6t.288-.712T3 5t.713.288T4 6t-.288.713T3 7m4.5 0q-.425 0-.712-.288T6.5 6t.288-.712T7.5 5t.713.288T8.5 6t-.288.713T7.5 7M12 7q-.425 0-.712-.288T11 6t.288-.712T12 5t.713.288T13 6t-.288.713T12 7m4.5 0q-.425 0-.712-.288T15.5 6t.288-.712T16.5 5t.713.288T17.5 6t-.288.713T16.5 7M21 7q-.425 0-.712-.288T20 6t.288-.712T21 5t.713.288T22 6t-.288.713T21 7"/></svg>