<svg xmlns="http://www.w3.org/2000/svg" viewBox="0 0 24 24" width="24" height="24"><path fill="currentColor" d="M8.5 23q-.45 0-1.088-.475t-1.037-.975L4 18.5l1.175-.95l1.15 1.475L9.2 17l1.6-8.125l-1.8.7V13H7V8.275l4.125-1.725q.8-.35 1.175-.45T13 6q.525 0 .963.275T14.7 7l1 1.575q.65 1.025 1.763 1.725T20 11v2q-1.65 0-3.088-.7T14.5 10.475l-.6 3l2.1 2V21.5q.375-.025.713-.125t.637-.275q.1-.05.187-.075t.188-.025q.35 0 .562.238t.213.512q0 .2-.088.363t-.287.287q-.5.3-1.062.45t-1.188.15H12v-1.5h2v-4.525l-2.1-2L11 18.2l-3.425 2.425l.075.1q.225.3.512.5t.638.325q.225.125.35.263t.125.412q0 .325-.225.55T8.5 23m6-17.5q-.825 0-1.413-.587T12.5 3.5t.588-1.412T14.5 1.5t1.413.588T16.5 3.5t-.587 1.413T14.5 5.5"/></svg>