<svg xmlns="http://www.w3.org/2000/svg" viewBox="0 0 24 24" width="24" height="24"><path fill="currentColor" d="M5.825 22q-1.05 0-1.85-.625t-1.05-1.625L2 16h1.725q.05-.225.125-.45t.15-.425V4l18-2v1.5L10.5 4.8v1.7H22V8H10.5v1.625q.35-.05.738-.088T12 9.5q3.025 0 5.3 1.85T20.25 16H22l-.95 3.75q-.25 1-1.05 1.625T18.15 22zm0-6h1.6q.575-1.35 1.8-2.175T12 13t2.763.825T16.55 16h1.6q-.65-1.95-2.312-3.225T12 11.5q-2.2 0-3.863 1.275T5.826 16m3.95 0H14.2q-.425-.475-.987-.737T12 15t-1.225.263t-1 .737M5.5 12.525q.225-.275.475-.525t.525-.475V8h-1zM8 10.5q.25-.125.488-.238T9 10.05V8H8zm-2.5-4h1V5.25l-1 .1zm2.5 0h1V4.95l-1 .125z"/></svg>