<svg xmlns="http://www.w3.org/2000/svg" viewBox="0 0 24 24" width="24" height="24"><path fill="currentColor" d="M17.725 17.625H12.05L9.225 20.45q-.575.575-1.412.575T6.4 20.45l-2.825-2.825Q3 17.05 3 16.2t.575-1.425l2.8-2.8V6.3zm-10.5-13.25q2.675-1.7 5.788-1.362T18.375 5.6t2.588 5.363T19.6 16.75l-1.45-1.45q1.125-2.05.788-4.337T16.95 7.025t-3.937-1.987t-4.338.787zm2.95 2.95Q11.6 6.9 13.05 7.15t2.5 1.3t1.288 2.488t-.188 2.862l-1.7-1.7q0-.625-.187-1.212t-.613-1.013q-.45-.45-1.037-.65t-1.238-.2z"/></svg>