<svg xmlns="http://www.w3.org/2000/svg" viewBox="0 0 24 24" width="24" height="24"><path fill="currentColor" d="M4.225 18.325q-1.05-1.3-1.637-2.912T2 12q0-3.925 2.588-6.75T11 2.05v2q-3 .35-5 2.6T4 12q0 1.4.425 2.638T5.65 16.9zM12 22q-1.825 0-3.45-.6t-2.925-1.675l1.4-1.425q1.025.8 2.288 1.25T12 20t2.688-.45t2.287-1.25l1.4 1.425q-1.3 1.075-2.925 1.675T12 22m7.775-3.675L18.35 16.9q.8-1.025 1.225-2.262T20 12q0-3.1-2-5.35t-5-2.6v-2q3.825.375 6.413 3.2T22 12q0 1.8-.587 3.413t-1.638 2.912M9.5 16.5v-9l7 4.5z"/></svg>