<svg xmlns="http://www.w3.org/2000/svg" viewBox="0 0 24 24" width="24" height="24"><path fill="currentColor" d="M7.65 21.5q-1.425 0-2.575-.225T3.45 20.55q-.45-.475-.7-1.65t-.25-2.65q0-2.875 1.013-5.512T6.3 6.3q1.775-1.775 4.438-2.787T16.35 2.5q1.425 0 2.575.225t1.625.725q.45.475.7 1.65t.25 2.65q0 2.875-1.012 5.513T17.7 17.7q-1.775 1.775-4.437 2.788T7.65 21.5m-3.1-5.65q.825-1.8 2-3.512t2.6-3.188q1.425-1.425 3.138-2.6t3.512-2q-2.275.075-4.462.938T7.75 7.75q-1.475 1.425-2.312 3.575T4.55 15.85m3.65 3.6q2.275-.075 4.463-.937t3.587-2.263q1.475-1.425 2.313-3.575t.887-4.525q-.825 1.8-2 3.513t-2.6 3.187q-1.425 1.425-3.137 2.6t-3.513 2"/></svg>