<svg xmlns="http://www.w3.org/2000/svg" viewBox="0 0 24 24" width="24" height="24"><path fill="currentColor" d="M11 20q-.6 0-1.162-.238q-.563-.237-.988-.662L4 14.1l1.325-1.15q.35-.3.8-.363q.45-.062.875.163l1.5.8V7.2q0-.7.525-1.2t1.225-.5q.075 0 .188.012q.112.013.187.038V5.5q0-.75.512-1.125Q11.65 4 12.25 4q.425 0 .8.2q.375.2.6.525q.15-.05.288-.088q.137-.037.312-.037q.7 0 1.213.487q.512.488.512 1.188v.175q.075-.025.138-.025h.137q.7 0 1.225.487Q18 7.4 18 8.1v9.4q0 1.05-.725 1.775Q16.55 20 15.5 20Zm0-1.5h4.5q.425 0 .712-.288q.288-.287.288-.712V8.175q0-.125-.062-.188q-.063-.062-.188-.062t-.188.062Q16 8.05 16 8.175V12h-1.5V6.35q0-.125-.062-.188q-.063-.062-.188-.062t-.188.062Q14 6.225 14 6.35V12h-1.5V5.75q0-.125-.062-.188q-.063-.062-.188-.062t-.188.062Q12 5.625 12 5.75V12h-1.5V7.25q0-.125-.062-.188Q10.375 7 10.25 7t-.188.062Q10 7.125 10 7.25V16l-3.7-1.925l-.125.125L9.9 18.05q.225.225.513.337q.287.113.587.113Zm-7.8 2.1q-.25.2-.55.15q-.3-.05-.5-.3l-2-2.675q-.15-.2-.15-.45t.15-.45L1.8 14.65l-1.65-2.2Q0 12.25 0 12t.15-.45L1.8 9.325l-1.65-2.2q-.15-.2-.15-.45t.15-.45l2-2.675q.2-.25.5-.3q.3-.05.55.15q.25.2.3.5q.05.3-.15.55L1.7 6.675L3.35 8.9q.15.2.15.45t-.15.45L1.7 12l1.65 2.225q.15.2.15.45t-.15.45L1.7 17.35l1.65 2.2q.2.25.15.55q-.05.3-.3.5Zm16.6.025q-.25-.2-.3-.5q-.05-.3.15-.55l1.65-2.225l-1.65-2.225q-.15-.2-.15-.45t.15-.45L21.3 12l-1.65-2.225q-.15-.2-.15-.45t.15-.45L21.3 6.65l-1.65-2.2q-.2-.25-.15-.55q.05-.3.3-.5t.55-.15q.3.05.5.3l2 2.675q.15.2.15.45t-.15.45L21.2 9.35l1.65 2.2q.15.2.15.45t-.15.45l-1.65 2.225l1.65 2.225q.15.2.15.45t-.15.45l-2 2.675q-.2.25-.5.3q-.3.05-.55-.15Z"/></svg>