<svg xmlns="http://www.w3.org/2000/svg" viewBox="0 0 24 24" width="24" height="24"><path fill="currentColor" d="M13.5 7.5q-.625 0-1.062-.438Q12 6.625 12 6t.438-1.062Q12.875 4.5 13.5 4.5t1.062.438Q15 5.375 15 6t-.438 1.062q-.437.438-1.062.438ZM13 20v-4.25l-1.275-1.175l-.675 2.975l-4.875-1.1L6.5 15l3.375.75l1.1-5.6l-1.475.6V13H8V9.75l4-1.65q.1-.05.75-.075q.225.05.425.163q.2.112.325.312l1.225 1.625q.5.65 1.213 1.012q.712.363 1.562.363V13q-1.275 0-2.325-.562q-1.05-.563-1.725-1.513L13 13.25l1.5 1.5V20Zm3 1v-2h3v-3h2v5ZM3 21v-5h2v3h3v2ZM3 8V3h5v2H5v3Zm16 0V5h-3V3h5v5Z"/></svg>