<svg xmlns="http://www.w3.org/2000/svg" viewBox="0 0 24 24" width="24" height="24"><path fill="currentColor" d="M5 15q-1.25 0-2.125-.875T2 12t.875-2.125T5 9t2.125.875T8 12t-.875 2.125T5 15m0-2q.425 0 .713-.288T6 12t-.288-.712T5 11t-.712.288T4 12t.288.713T5 13m7 2q-1.25 0-2.125-.875T9 12t.875-2.125T12 9t2.125.875T15 12t-.875 2.125T12 15m0-2q.425 0 .713-.288T13 12t-.288-.712T12 11t-.712.288T11 12t.288.713T12 13m7 2q-1.25 0-2.125-.875T16 12t.875-2.125T19 9t2.125.875T22 12t-.875 2.125T19 15"/></svg>