<svg xmlns="http://www.w3.org/2000/svg" viewBox="0 0 24 24" width="24" height="24"><path fill="currentColor" d="M4 14q-.825 0-1.412-.587T2 12t.588-1.412T4 10t1.413.588T6 12t-.587 1.413T4 14m1.65 5.7l-1.4-1.4l4.35-4.35l1.4 1.4zm3-9.7L4.3 5.65l1.4-1.4l4.35 4.35zM12 22q-.825 0-1.412-.587T10 20t.588-1.412T12 18t1.413.588T14 20t-.587 1.413T12 22m0-16q-.825 0-1.412-.587T10 4t.588-1.412T12 2t1.413.588T14 4t-.587 1.413T12 6m3.35 4.05l-1.4-1.45l4.4-4.35l1.4 1.4zm3 9.65L14 15.35l1.4-1.4l4.35 4.35zM20 14q-.825 0-1.412-.587T18 12t.588-1.412T20 10t1.413.588T22 12t-.587 1.413T20 14"/></svg>