<svg xmlns="http://www.w3.org/2000/svg" viewBox="0 0 24 24" width="24" height="24"><path fill="currentColor" d="M5.95 19q-2.5-.125-3.725-1.05T1 15.275q0-1.625 1.338-2.637t3.712-1.213q.975-.075 1.463-.312T8 10.45q0-.65-.737-.975T4.825 9L5 7q2.575.2 3.788 1.038T10 10.45q0 1.325-.962 2.075t-2.838.9q-1.6.125-2.4.588T3 15.275q0 .875.7 1.263T6.05 17zm7.925-.75L9.75 14.125L18.375 5.5q.5-.5 1.188-.5t1.187.5l1.75 1.75q.5.5.5 1.188t-.5 1.187zM8.975 20q-.425.1-.75-.225T8 19.025l.775-3.775l3.95 3.95z"/></svg>