<svg xmlns="http://www.w3.org/2000/svg" viewBox="0 0 24 24" width="24" height="24"><path fill="currentColor" d="m16 20l-.3-1.5q-.3-.125-.562-.262T14.6 17.9l-1.45.45l-1-1.7l1.15-1q-.05-.325-.05-.65t.05-.65l-1.15-1l1-1.7l1.45.45q.275-.2.538-.337t.562-.263L16 10h2l.3 1.5q.3.125.575.288t.525.362l1.45-.5l1 1.75l-1.15 1q.05.325.05.625t-.05.625l1.15 1l-1 1.7l-1.45-.45q-.275.2-.537.338t-.563.262L18 20zm1-3q.825 0 1.413-.587T19 15t-.587-1.412T17 13t-1.412.588T15 15t.588 1.413T17 17M6 12h2v-2H6zm-2 8q-.825 0-1.412-.587T2 18V6q0-.825.588-1.412T4 4h16q.825 0 1.413.588T22 6v4.15q-1-1.025-2.287-1.575T17 8.025t-2.662.525T12.15 10H10v2h.7q-.225.475-.375.975T10.1 14H6v2h4.1q.175 1.15.688 2.175T12.125 20z"/></svg>