<svg xmlns="http://www.w3.org/2000/svg" viewBox="0 0 24 24" width="24" height="24"><path fill="currentColor" d="M12 22q-2.075 0-3.9-.788t-3.175-2.137T2.788 15.9T2 12t.788-3.9t2.137-3.175T8.1 2.788T12 2t3.9.788t3.175 2.137T21.213 8.1T22 12t-.788 3.9t-2.137 3.175t-3.175 2.138T12 22m-2.5-8.5q1.45 0 2.475-1.025T13 10t-1.025-2.475T9.5 6.5T7.025 7.525T6 10t1.025 2.475T9.5 13.5m7 1q1.05 0 1.775-.725T19 12t-.725-1.775T16.5 9.5t-1.775.725T14 12t.725 1.775t1.775.725M12 20q2.125 0 3.875-1t2.825-2.65q-.525-.15-1.075-.25T16.5 16q-1.325 0-3.2.775t-3 3.05q.425.1.85.138T12 20m-3.175-.65q.875-1.8 1.988-2.675T12.5 15.5q-.725-.225-1.463-.362T9.5 15q-1.125 0-2.225.275t-2.125.775q.65 1.075 1.588 1.938t2.087 1.362"/></svg>