<svg xmlns="http://www.w3.org/2000/svg" viewBox="0 0 24 24" width="24" height="24"><path fill="currentColor" d="M16.45 20.825q-.575.2-1.162.188t-1.138-.288l-6.55-3.05l.45-1q.25-.5.7-.812t1-.363l1.7-.125L8.65 7.7q-.15-.4.025-.763t.575-.512t.762.025t.513.575l2.4 6.575l.95-.35l-.925-2.575q-.15-.4-.025-.888t.525-.637t.762.025t.513.575l1.025 2.825l.925-.35L16 10.35q-.15-.4.025-.762t.575-.513t.762.025t.513.575l.675 1.875l.95-.35q-.15-.4.025-.762t.575-.513t.762.025t.513.575l1.375 3.75q.575 1.575-.113 3.063T20.375 19.4zM2 22v-1.5h2.025q-1.475-1.8-2.25-3.975T1 12t.775-4.525T4.025 3.5H2V2h5v5H5.5V4.1Q4.05 5.75 3.275 7.775T2.5 12t.775 4.225T5.5 19.9V17H7v5z"/></svg>