<svg xmlns="http://www.w3.org/2000/svg" viewBox="0 0 24 24" width="24" height="24"><path fill="currentColor" d="M4 20q-.825 0-1.412-.587T2 18V6q0-.825.588-1.412T4 4h16q.825 0 1.413.588T22 6v6.05q-.375-.6-.888-1.137T20 9.975V6h-7v3.975q-1.35.875-2.175 2.338T10 15.5q0 1.325.488 2.475T11.825 20zm17.6 2l-2.7-2.7q-.55.325-1.15.513T16.5 20q-1.875 0-3.187-1.312T12 15.5t1.313-3.187T16.5 11t3.188 1.313T21 15.5q0 .65-.187 1.25T20.3 17.9l2.7 2.7zm-5.1-4q1.05 0 1.775-.725T19 15.5t-.725-1.775T16.5 13t-1.775.725T14 15.5t.725 1.775T16.5 18"/></svg>