<svg xmlns="http://www.w3.org/2000/svg" viewBox="0 0 24 24" width="24" height="24"><path fill="currentColor" d="M12 22q-2.075 0-3.9-.788t-3.175-2.137T2.788 15.9T2 12t.788-3.9t2.137-3.175T8.1 2.788T12 2t3.9.788t3.175 2.137T21.213 8.1T22 12t-.788 3.9t-2.137 3.175t-3.175 2.138T12 22m0-2q3.35 0 5.675-2.325T20 12t-2.325-5.675T12 4T6.325 6.325T4 12t2.325 5.675T12 20m0-2q-2.5 0-4.25-1.75T6 12t1.75-4.25T12 6t4.25 1.75T18 12t-1.75 4.25T12 18m0-2q1.65 0 2.825-1.175T16 12t-1.175-2.825T12 8T9.175 9.175T8 12t1.175 2.825T12 16m0-2q-.825 0-1.412-.587T10 12t.588-1.412T12 10t1.413.588T14 12t-.587 1.413T12 14"/></svg>