<svg xmlns="http://www.w3.org/2000/svg" viewBox="0 0 24 24" width="24" height="24"><path fill="currentColor" d="M9 20q-3.35 0-5.675-2.325T1 12t2.325-5.675T9 4h6q3.35 0 5.675 2.325T23 12t-2.325 5.675T15 20zm3-6q.825 0 1.413-.587T14 12t-.587-1.412T12 10t-1.412.588T10 12t.588 1.413T12 14m-1-5h2q.425 0 .713-.288T14 8t-.288-.712T13 7h-2q-.425 0-.712.288T10 8t.288.713T11 9m0 8h2q.425 0 .713-.288T14 16t-.288-.712T13 15h-2q-.425 0-.712.288T10 16t.288.713T11 17m5-3q.425 0 .713-.288T17 13v-2q0-.425-.288-.712T16 10t-.712.288T15 11v2q0 .425.288.713T16 14m-8 0q.425 0 .713-.288T9 13v-2q0-.425-.288-.712T8 10t-.712.288T7 11v2q0 .425.288.713T8 14"/></svg>