<svg xmlns="http://www.w3.org/2000/svg" viewBox="0 0 24 24" width="24" height="24"><path fill="currentColor" d="m11.9 22l4.55-12h2.1l4.55 12H21l-1.075-3.05h-4.85L14 22zm3.8-4.8h3.6l-1.8-5.1zM6.35 16q-1.65 0-3.087-.962T1.1 12.45l1.8-.9q.525 1.05 1.45 1.75t1.975.7q.95 0 1.563-.587T8.5 12t-.587-1.412T6.5 10H5V8h1.5q.625 0 1.063-.437T8 6.5t-.425-1.062T6.525 5Q5.95 5 5.5 5.375t-.8.825L3.125 4.975q.65-.8 1.5-1.388T6.55 3q1.425 0 2.438 1.012T10 6.475q0 .675-.25 1.313t-.725 1.137q.25.25.463.513T9.9 10H13V5h-2V3h6v2h-2v2.9L13.475 12H10.5v.1q0 1.575-1.15 2.738T6.35 16"/></svg>