<svg xmlns="http://www.w3.org/2000/svg" viewBox="0 0 24 24" width="24" height="24"><path fill="currentColor" d="M2 21v-2q.95 0 1.7-.363t1.625-1.012q.75.625 1.638.988t1.712.362t1.725-.35t1.625-1q.8.7 1.65 1.025t1.7.325q.825 0 1.613-.325t1.737-1.025q.975.75 1.725 1.063T22 19v2q-.875 0-1.687-.238t-1.588-.687q-.8.5-1.662.713T15.375 21t-1.687-.213t-1.663-.712q-.725.475-1.6.7T8.675 21q-.85 0-1.7-.225t-1.65-.7q-.775.45-1.612.688T2 21m0-4.5v-2q0-2.425.938-4.525T5.5 6.325t3.813-2.437T14 3q.825 0 1.638.088t1.462.237q-.525.8-.812 1.688T16 6.675q0 1.375.975 2.35t2.35.975H22v2h-2.675q-2.225 0-3.775-1.55T14 6.675q0-.35.05-.738t.15-.762q-1.85.45-3.025 1.912T10 10.5q0 .9.288 1.713t.812 1.537q.2-.125.425-.288t.475-.337q.725.65 1.675 1t1.7.35t1.675-.363t1.675-.987q.8.6 1.588.987T22 14.5v2q-.875 0-1.687-.238t-1.588-.687q-.8.5-1.625.713t-1.725.212t-1.8-.25t-1.55-.675q-.775.475-1.625.688t-1.725.237t-1.725-.225t-1.625-.7q-.775.45-1.612.688T2 16.5"/></svg>