<svg xmlns="http://www.w3.org/2000/svg" viewBox="0 0 24 24" width="24" height="24"><path fill="currentColor" d="M12 12q-.425 0-.712-.288T11 11t.288-.712T12 10t.713.288T13 11t-.288.713T12 12m0-6q-.425 0-.712-.288T11 5t.288-.712T12 4t.713.288T13 5t-.288.713T12 6m2 3q-.425 0-.712-.288T13 8t.288-.712T14 7t.713.288T15 8t-.288.713T14 9m1 3q-.425 0-.712-.288T14 11t.288-.712T15 10t.713.288T16 11t-.288.713T15 12m0-6q-.425 0-.712-.288T14 5t.288-.712T15 4t.713.288T16 5t-.288.713T15 6m2 3q-.425 0-.712-.288T16 8t.288-.712T17 7t.713.288T18 8t-.288.713T17 9m1 3q-.425 0-.712-.288T17 11t.288-.712T18 10t.713.288T19 11t-.288.713T18 12m0-6q-.425 0-.712-.288T17 5t.288-.712T18 4t.713.288T19 5t-.288.713T18 6m2 3q-.425 0-.712-.288T19 8t.288-.712T20 7t.713.288T21 8t-.288.713T20 9m1 3q-.425 0-.712-.288T20 11t.288-.712T21 10t.713.288T22 11t-.288.713T21 12m0-6q-.425 0-.712-.288T20 5t.288-.712T21 4t.713.288T22 5t-.288.713T21 6m-1.05 15q-3.125 0-6.175-1.362t-5.55-3.863t-3.862-5.55T3 4.05q0-.45.3-.75t.75-.3H8.1q.35 0 .625.238t.325.562l.65 3.5q.05.4-.025.675T9.4 8.45L6.975 10.9q.5.925 1.187 1.787t1.513 1.663q.775.775 1.625 1.438T13.1 17l2.35-2.35q.225-.225.588-.337t.712-.063l3.45.7q.35.1.575.363T21 15.9v4.05q0 .45-.3.75t-.75.3"/></svg>