<svg xmlns="http://www.w3.org/2000/svg" viewBox="0 0 24 24" width="24" height="24"><path fill="currentColor" d="M17.975 21.95q-.55 0-1.062-.212t-.863-.563l-.112-.112l-.113-.113h-2.35q-1.05 0-1.775-.737t-.725-1.788q0-.575.25-1.088t.75-.912l1-.8v-5.55l-1.55-2.2q-.225-.325-.337-.7t-.113-.725q0-1.05.725-1.775t1.775-.725h5q1.05 0 1.763.713t.712 1.762q0 .375-.1.725t-.325.675l-1.55 2.25v5.6l.975.975q.5.5.763 1.088t.262 1.212q0 1.25-.875 2.125t-2.125.875M8.8 20.65q-.275.125-.562.188t-.588.062q-1.125 0-1.9-.762t-.775-1.863v-9.1L3.225 5.5q-.125-.25-.187-.525t-.063-.55q0-1.05.725-1.763t1.775-.712h4.5v2q1.05 0 1.775.725t.725 1.775q0 .425-.125.788t-.375.687l-1 1.35v5L12.05 15.9q.2.325.313.688t.112.712q0 .725-.375 1.325t-1 .9z"/></svg>