<svg xmlns="http://www.w3.org/2000/svg" viewBox="0 0 24 24" width="24" height="24"><path fill="currentColor" d="M8 9q-.425 0-.713-.288Q7 8.425 7 8t.287-.713Q7.575 7 8 7t.713.287Q9 7.575 9 8t-.287.712Q8.425 9 8 9Zm2.675 2.675q-.425 0-.712-.288q-.288-.287-.288-.712t.288-.713q.287-.287.712-.287t.713.287q.287.288.287.713t-.287.712q-.288.288-.713.288Zm2.65 2.65q-.425 0-.712-.288q-.288-.287-.288-.712t.288-.713q.287-.287.712-.287t.713.287q.287.288.287.713t-.287.712q-.288.288-.713.288ZM16 17q-.425 0-.712-.288Q15 16.425 15 16t.288-.713Q15.575 15 16 15t.712.287Q17 15.575 17 16t-.288.712Q16.425 17 16 17Zm-4 5q-2.075 0-3.9-.788q-1.825-.787-3.175-2.137q-1.35-1.35-2.137-3.175Q2 14.075 2 12t.788-3.9q.787-1.825 2.137-3.175q1.35-1.35 3.175-2.138Q9.925 2 12 2t3.9.787q1.825.788 3.175 2.138q1.35 1.35 2.137 3.175Q22 9.925 22 12t-.788 3.9q-.787 1.825-2.137 3.175q-1.35 1.35-3.175 2.137Q14.075 22 12 22Zm0-2q3.325 0 5.663-2.337Q20 15.325 20 12t-2.337-5.663Q15.325 4 12 4T6.338 6.337Q4 8.675 4 12t2.338 5.663Q8.675 20 12 20Z"/></svg>