<svg xmlns="http://www.w3.org/2000/svg" viewBox="0 0 24 24" width="24" height="24"><path fill="currentColor" d="M17 22q-2.075 0-3.537-1.463T12 17t1.463-3.537T17 12t3.538 1.463T22 17t-1.463 3.538T17 22m0-2q.275 0 .463-.187t.187-.463t-.187-.462T17 18.7t-.462.188t-.188.462t.188.463T17 20m-.45-1.9h.9v-.25q0-.275.15-.488t.35-.412q.35-.3.55-.575t.2-.775q0-.725-.475-1.162T17 14q-.575 0-1.037.338t-.663.912l.8.35q.075-.3.313-.525T17 14.85q.375 0 .588.188t.212.562q0 .275-.15.463t-.35.387q-.15.15-.312.3t-.288.35q-.075.15-.112.3t-.038.35zM12 9h5l-5-5l5 5l-5-5zM5 22q-.825 0-1.412-.587T3 20V4q0-.825.588-1.412T5 2h8l6 6v2.3q-.5-.15-1-.225T17 10q-1.425 0-2.687.538T12.1 12H7v2h3.675q-.225.475-.375.975T10.075 16H7v2h3.075q.175 1.125.7 2.163T12.125 22z"/></svg>