<svg xmlns="http://www.w3.org/2000/svg" viewBox="0 0 24 24" width="24" height="24"><path fill="currentColor" d="m19.775 22.625l-3-3q-1.05.65-2.25 1.013T12 21q-1.875 0-3.512-.712t-2.85-1.925t-1.925-2.85T3 12q0-1.325.363-2.525t1.012-2.25l-3-3L2.8 2.8l18.4 18.4zM12 19q.9 0 1.738-.213t1.587-.612l-9.5-9.5q-.4.75-.612 1.588T5 12q0 2.925 2.038 4.963T12 19m3-9V8h2.75q-1.025-1.4-2.525-2.2T12 5q-.9 0-1.737.213t-1.588.612l-1.45-1.45q1.05-.65 2.25-1.012T12 3q2.05 0 3.888.875T19 6.35V4h2v6zm-2 .15l-2-2V7h2zm6.625 6.625l-1.45-1.45q.275-.55.463-1.125T18.9 13h2.05q-.125 1.05-.462 2t-.863 1.775"/></svg>