<svg xmlns="http://www.w3.org/2000/svg" viewBox="0 0 24 24" width="24" height="24"><path fill="currentColor" d="M12 21q-1.9 0-3.6-.6t-3.125-1.675q-.275.125-.6.2T4 19q-1.25 0-2.125-.875T1 16q0-.575.2-1.075t.55-.9q-.275-.7-.45-1.425t-.25-1.5l2-.2q.05.575.163 1.1t.312 1.025Q3.65 13 3.763 13H4q1.25 0 2.125.875T7 16q0 .35-.075.662t-.2.613q.925.675 2 1.113T11 18.95V14q0-.425-.288-.712T10 13q-1.65 0-2.825-1.175T6 9t1.175-2.825T10 5h1q0-.825.588-1.412T13 3h4q.825 0 1.413.588T19 5h1q.425 0 .713.288T21 6t-.288.713T20 7h-1q0 .825-.587 1.413T17 9h-4q-.825 0-1.412-.587T11 7h-1q-.825 0-1.412.588T8 9t.588 1.413T10 11q1.25 0 2.125.875T13 14v4.95q2.175-.25 3.95-1.425t2.825-3L18.55 13.9l.9-1.775l1.15.575q.125-.425.212-.875t.138-.925l2 .2q-.05.65-.2 1.275T22.4 13.6l1.05.525l-.9 1.775l-.95-.475q-1.425 2.525-3.975 4.05T12 21"/></svg>