<svg xmlns="http://www.w3.org/2000/svg" viewBox="0 0 24 24" width="24" height="24"><path fill="currentColor" d="M14 20q-.425 0-.712-.288T13 19v-4q0-.425.288-.712T14 14h2.5q.425 0 .713.288T17.5 15v4q0 .425-.288.713T16.5 20zm.5-1.5H16v-3h-1.5zm4 3.5v-2.75q0-.425.288-.712t.712-.288h2v-.75h-3V16H22q.425 0 .713.288T23 17v1.75q0 .425-.288.713T22 19.75h-2v.75h3V22zm-14-2q-1.475 0-2.488-1.05T1 16.4v-4.45q0-1.175.5-2.2T2.925 8L7.25 4.6q.35-.275.55-.687T8 3.05V1h2v2.05q0 .45.2.863t.575.687L15.1 8q.9.725 1.4 1.75t.5 2.2V13h-3q-.825 0-1.412.588T12 15v4.65q-.95-.45-1.487-1.287T10 16.4V6.55l-1-.8l-1 .8v9.85q.025 1.5-1 2.55T4.5 20"/></svg>