<svg xmlns="http://www.w3.org/2000/svg" viewBox="0 0 24 24" width="24" height="24"><path fill="currentColor" d="M11.75 16q-.525 0-.887-.363q-.363-.362-.363-.887t.363-.887q.362-.363.887-.363t.887.363q.363.362.363.887t-.363.887q-.362.363-.887.363Zm-8.125-2q.175-2.875 2.35-5.025Q8.15 6.825 11 6.65v2q-2.025.175-3.612 1.75Q5.8 11.975 5.625 14Zm-3.5 0v-.25q.15-2.125 1.075-4.013q.925-1.887 2.413-3.325Q5.1 4.975 7 4.112q1.9-.862 4-.962v2q-1.7.1-3.262.825q-1.563.725-2.775 1.9Q3.75 9.05 3 10.6t-.875 3.275V14Zm11.625 5.4q-1.9 0-3.275-1.375T7.1 14.75q0-1.925 1.363-3.288Q9.825 10.1 11.75 10.1q1.2 0 2.163.513q.962.512 1.612 1.387H24v5.5h-1.5v2H17v-2h-1.475q-.65.875-1.638 1.387q-.987.513-2.137.513ZM19 17.5h1.5v-2H22V14h-7.7q-.25-.825-.95-1.363q-.7-.537-1.6-.537q-1.1 0-1.875.775q-.775.775-.775 1.875t.775 1.875q.775.775 1.875.775q.9 0 1.6-.538q.7-.537.95-1.362H19Z"/></svg>