<svg xmlns="http://www.w3.org/2000/svg" viewBox="0 0 24 24" width="24" height="24"><path fill="currentColor" d="M12 22q-2.05 0-3.875-.788t-3.187-2.15t-2.15-3.187T2 12q0-2.075.788-3.887t2.15-3.175t3.187-2.15T12 2q.8 0 1.538.113T15 2.45V5q0 .825-.587 1.413T13 7h-2v2q0 .425-.288.713T10 10H8v2h6q.425 0 .713.288T15 13v3h1q.675 0 1.188.4t.712 1q.975-1.1 1.538-2.463T20 12q0-.275-.025-.5T19.9 11h2.05q.05.275.05.5v.5q0 2.05-.787 3.875t-2.15 3.188t-3.175 2.15T12 22m-1-2.05V18q-.825 0-1.412-.587T9 16v-1l-4.8-4.8q-.075.45-.137.9T4 12q0 3.1 2.013 5.338T11 19.95M18 9q-.425 0-.712-.287T17 8V5q0-.425.288-.712T18 4V3q0-.825.588-1.412T20 1t1.413.588T22 3v1q.425 0 .713.288T23 5v3q0 .425-.288.713T22 9zm1-5h2V3q0-.425-.288-.712T20 2t-.712.288T19 3z"/></svg>