<svg xmlns="http://www.w3.org/2000/svg" viewBox="0 0 24 24" width="24" height="24"><path fill="currentColor" d="M12 22q-2.075 0-3.9-.788t-3.175-2.137T2.788 15.9T2 12t.788-3.9t2.137-3.175T8.1 2.788T12 2q.575 0 1.125.063t1.1.187l-.45 1.95q-.425-.1-.825-.15T12.125 4q-.775.875-1.275 1.9t-.8 2.1H14v2H9.65q-.075.5-.112 1T9.5 12t.038 1t.112 1h4.7q.075-.5.113-1t.037-1h2q0 .5-.038 1t-.112 1h3.4q.125-.5.188-1T20 12h2q0 2.075-.788 3.9t-2.137 3.175t-3.175 2.138T12 22m-7.75-8h3.4q-.075-.5-.112-1T7.5 12t.038-1t.112-1h-3.4q-.125.5-.187 1T4 12t.063 1t.187 1m5.1 5.55q-.425-.725-.75-1.625T8 16H5.075Q5.8 17.25 6.9 18.15t2.45 1.4M5.1 8H8q.275-1 .6-1.912t.75-1.638Q7.975 4.9 6.9 5.813T5.1 8M12 19.9q.65-.875 1.125-1.85T13.95 16h-3.9q.35 1.075.825 2.05T12 19.9m2.65-.35q1.375-.475 2.463-1.388T18.925 16H16q-.275 1-.6 1.913t-.75 1.637m2.2-9.55q-.35 0-.6-.25t-.25-.6v-3.3q0-.35.25-.6t.6-.25H17V4q0-.825.588-1.412T19 2t1.413.588T21 4v1h.15q.35 0 .6.25t.25.6v3.3q0 .35-.25.6t-.6.25zM18 5h2V4q0-.425-.288-.712T19 3t-.712.288T18 4z"/></svg>