<svg xmlns="http://www.w3.org/2000/svg" viewBox="0 0 24 24" width="24" height="24"><path fill="currentColor" d="M6 22q-1.65 0-2.825-1.175T2 18v-5.4q0-.775.363-1.437t1.012-1.088l8.25-5.35l.5.5q.5.5.588 1.188T12.425 7.7L11.3 9.5H19q.425 0 .713.288T20 10.5t-.288.713T19 11.5h-7V13h9q.425 0 .713.288T22 14t-.288.713T21 15h-9v1.5h8q.425 0 .713.288T21 17.5t-.288.713T20 18.5h-8V20h6q.425 0 .713.288T19 21t-.288.713T18 22zM17.5 8q-.975 0-1.737-.763T15 5.5q0-.875.575-1.937T17.5 1q1.35 1.5 1.925 2.563T20 5.5q0 .975-.763 1.738T17.5 8"/></svg>