<svg xmlns="http://www.w3.org/2000/svg" viewBox="0 0 24 24" width="24" height="24"><path fill="currentColor" d="M3 5V3h3v2zm3.125 5.325L4.7 8.925L6.825 6.8L8.25 8.2zM12 8Q9.925 8 8.463 6.537T7 3h10q0 2.075-1.463 3.538T12 8m-1 4V9h2v3zm6.875-1.675l-2.1-2.125l1.4-1.4L19.3 8.9zM18 5V3h3v2zM2 21v-2q.95 0 1.413-.5T5.35 18t1.938.5t1.362.5q.95 0 1.413-.5T12 18q1.425 0 1.938.5t1.412.5q.95 0 1.388-.5t1.912-.5t1.938.5T22 19v2q-1.425 0-1.937-.5T18.65 20t-1.362.5t-1.938.5q-1.425 0-1.937-.5T12 20q-.95 0-1.412.5T8.65 21t-1.912-.5T5.35 20t-1.412.5T2 21m0-4v-2q.95 0 1.413-.5T5.35 14q1.425 0 1.913.5t1.387.5q.95 0 1.412-.5T12 14q1.425 0 1.925.5t1.375.5q.95 0 1.412-.5t1.938-.5q1.425 0 1.938.5T22 15v2q-1.475 0-1.963-.5T18.65 16t-1.362.5t-1.938.5q-1.425 0-1.937-.5T12 16q-.95 0-1.388.5T8.7 17t-1.962-.5T5.35 16t-1.412.5T2 17"/></svg>