<svg xmlns="http://www.w3.org/2000/svg" viewBox="0 0 24 24" width="24" height="24"><path fill="currentColor" d="M2 18v-2q.95 0 1.413-.5T5.35 15t1.938.5t1.362.5q.95 0 1.413-.5T12 15q1.425 0 1.938.5t1.412.5q.95 0 1.388-.5t1.912-.5t1.938.5T22 16v2q-1.425 0-1.937-.5T18.65 17t-1.362.5t-1.938.5q-1.425 0-1.937-.5T12 17q-.95 0-1.412.5T8.65 18t-1.912-.5T5.35 17t-1.412.5T2 18m0-4v-2q.95 0 1.413-.5T5.35 11q1.425 0 1.913.5t1.387.5q.95 0 1.412-.5T12 11q1.425 0 1.925.5t1.375.5q.95 0 1.412-.5t1.938-.5q1.425 0 1.938.5T22 12v2q-1.475 0-1.963-.5T18.65 13t-1.362.5t-1.938.5q-1.425 0-1.937-.5T12 13q-.95 0-1.388.5T8.7 14t-1.962-.5T5.35 13t-1.412.5T2 14m0-4V8q.95 0 1.413-.5T5.35 7q1.425 0 1.913.5T8.65 8q.95 0 1.412-.5T12 7q1.425 0 1.925.5T15.3 8q.95 0 1.412-.5T18.65 7q1.425 0 1.938.5T22 8v2q-1.475 0-1.963-.5T18.65 9t-1.362.5t-1.938.5q-1.425 0-1.937-.5T12 9q-.95 0-1.388.5T8.7 10t-1.962-.5T5.35 9t-1.412.5T2 10"/></svg>