<svg xmlns="http://www.w3.org/2000/svg" viewBox="0 0 24 24" width="24" height="24"><path fill="currentColor" d="M7.775 10.65q0 1.125.55 2.05t1.425 1.5q-.25-.35-.387-.75t-.138-.85q0-.575.213-1.075t.612-.875L12 8.725l1.975 1.925q.4.375.6.875t.2 1.075q0 .45-.137.85t-.388.75q.875-.575 1.425-1.5t.55-2.05q0-1.175-.625-2.2t-1.675-1.6l-.325.425q-.125.125-.275.212T13 7.576q-.325 0-.55-.225t-.225-.55v-2l-.7.4q-.7.4-1.525 1.163t-1.525 1.85t-.7 2.437m4.225.175l-.925.9q-.2.2-.275.413t-.075.462q0 .525.375.888t.9.362t.9-.362t.375-.888q0-.275-.075-.475t-.275-.4zM6 22q-.825 0-1.412-.587T4 20V6q0-1.65 1.175-2.825T8 2h8q1.65 0 2.825 1.175T20 6v14q0 .825-.587 1.413T18 22zm3-5q.825 0 1.238-.5T12 16t1.8.5t1.2.5t1.2-.5T18 16V6q0-.825-.587-1.412T16 4H8q-.825 0-1.412.588T6 6v10q1.35 0 1.763.5T9 17"/></svg>