<svg xmlns="http://www.w3.org/2000/svg" viewBox="0 0 24 24" width="24" height="24"><path fill="currentColor" d="M16.5 11q-.425 0-.712-.288T15.5 10t.288-.712T16.5 9t.713.288t.287.712t-.288.713T16.5 11M14 8.55L12.95 7.5q.725-.725 1.638-1.112T16.5 6t1.913.388T20.05 7.5L19 8.55q-.5-.5-1.137-.775T16.5 7.5t-1.362.275T14 8.55M11.9 6.4l-1.05-1.05q1.125-1.125 2.588-1.737T16.5 3t3.063.613T22.15 5.35L21.1 6.4q-.925-.925-2.113-1.412T16.5 4.5t-2.475.5T11.9 6.4M19.95 21q-3.125 0-6.175-1.362t-5.55-3.863t-3.862-5.55T3 4.05q0-.45.3-.75t.75-.3H8.1q.35 0 .625.238t.325.562l.65 3.5q.05.4-.025.675T9.4 8.45L6.975 10.9q.5.925 1.187 1.787t1.513 1.663q.775.775 1.625 1.438T13.1 17l2.35-2.35q.225-.225.588-.337t.712-.063l3.45.7q.35.1.575.363T21 15.9v4.05q0 .45-.3.75t-.75.3"/></svg>