<svg xmlns="http://www.w3.org/2000/svg" viewBox="0 0 24 24" width="24" height="24"><path fill="currentColor" d="M19 8.775v-2.05q.975.2 2.013.425t2.162.525L20.85 20H3.175L.85 7.675q1.1-.3 2.125-.525T5 6.725v2.05q-.55.125-1.025.213t-.825.162L4.825 18h14.35l1.675-8.85q-.35-.075-.825-.162T19 8.775m-1.975 2.775l-1.65-1.1l.325-.525q.15-.225.225-.462T16 8.95q0-.35-.125-.675T15.5 7.7q-.525-.525-.812-1.213T14.4 5.05q0-.575.163-1.1t.462-1l.325-.5l1.675 1.1l-.35.525q-.15.225-.213.463t-.062.512q0 .35.125.675t.375.575q.525.525.813 1.213T18 8.95q0 .575-.162 1.1t-.463 1zm-4.2 0l-1.65-1.1l.325-.525q.15-.225.225-.462t.075-.513q0-.35-.125-.675T11.3 7.7q-.525-.525-.812-1.213T10.2 5.05q0-.575.163-1.1t.462-1l.325-.5l1.675 1.1l-.35.525q-.15.225-.212.463t-.063.512q0 .35.125.675t.375.575q.525.525.813 1.213T13.8 8.95q0 .575-.162 1.1t-.463 1zm-4.175 0l-1.675-1.1l.35-.525q.15-.225.225-.462t.075-.513q0-.35-.137-.675T7.1 7.7q-.525-.525-.812-1.213T6 5.05q0-.575.15-1.1t.475-1l.35-.5l1.675 1.1l-.35.525q-.15.2-.225.45T8 5.05q0 .35.125.675T8.5 6.3q.525.525.813 1.213T9.6 8.95q0 .575-.162 1.1t-.463 1z"/></svg>