<svg xmlns="http://www.w3.org/2000/svg" viewBox="0 0 24 24" width="24" height="24"><path fill="currentColor" d="M12 4q2.5 0 5.213.4t5.937 1.275L20.975 17.2l-1.95-.375L20.85 7.15q-2.6-.6-4.75-.875T12 6t-4.1.275t-4.75.875l1.825 9.675l-1.95.375L.85 5.675Q4.075 4.8 6.787 4.4T12 4m5.025 16.55l-1.65-1.1l.325-.525q.15-.225.225-.462T16 17.95q0-.35-.125-.675T15.5 16.7q-.525-.525-.813-1.212T14.4 14.05q0-.575.163-1.1t.462-1l.325-.5l1.675 1.1l-.35.525q-.15.225-.213.463t-.062.512q0 .35.125.675t.375.575q.525.525.813 1.213T18 17.95q0 .575-.162 1.1t-.463 1zm-4.2 0l-1.65-1.1l.325-.525q.15-.225.225-.462t.075-.513q0-.35-.125-.675T11.3 16.7q-.525-.525-.813-1.212T10.2 14.05q0-.575.163-1.1t.462-1l.325-.5l1.675 1.1l-.35.525q-.15.225-.212.463t-.063.512q0 .35.125.675t.375.575q.525.525.813 1.213t.287 1.437q0 .575-.162 1.1t-.463 1zm-4.175 0l-1.675-1.1l.35-.525q.15-.225.225-.462t.075-.513q0-.35-.138-.675T7.1 16.7q-.525-.525-.812-1.213T6 14.05q0-.575.15-1.1t.475-1l.35-.5l1.675 1.1l-.35.525q-.15.2-.225.45T8 14.05q0 .35.125.675t.375.575q.525.525.813 1.213T9.6 17.95q0 .575-.162 1.1t-.463 1z"/></svg>