<svg xmlns="http://www.w3.org/2000/svg" viewBox="0 0 24 24" width="24" height="24"><path fill="currentColor" d="M10 23q0-.825.588-1.412T12 21v-5.725q.225.1.475.15t.525.05q1.05 0 1.763-.712T15.474 13v-.225l3.2.775q.4.1.725.35t.525.6l2.275 4.1q.375.675.275 1.425t-.65 1.3Q21.15 22 20.213 22t-1.613-.675l-4.6-4.6V21q.825 0 1.413.588T16 23zm-7-2v-2h5v2zm4.15-4.25l-4.5-1.275q-.725-.2-1.187-.812T1 13.275q0-.95.663-1.612T3.275 11h8.25q-.475.35-.737.863T10.525 13q0 .575.225 1.05t.625.825L8.75 16.55q-.35.2-.763.263t-.837-.063M13 14.5q-.625 0-1.062-.437T11.5 13t.438-1.062T13 11.5t1.063.438T14.5 13t-.437 1.063T13 14.5m2.3-2.45q-.275-.675-.888-1.1T13 10.525q-.275 0-.525.05t-.475.15v-3.95q0-.425.163-.8t.462-.65l3.425-3.2q.575-.55 1.338-.625t1.412.325q.8.5 1.038 1.413t-.263 1.712zM1 9V7h5v2zm3-4V3h6v2z"/></svg>