<svg xmlns="http://www.w3.org/2000/svg" viewBox="0 0 24 24" width="24" height="24"><path fill="currentColor" d="M4 20q-.825 0-1.412-.587T2 18v-3h2v3h3v2zm4.8-4l1-5.1l-1.8.7V15H6v-4.7l3.95-1.7q.875-.375 1.288-.487T12 8q.525 0 .975.275T13.7 9l1 1.6l.2.3q.1.15.225.275q-1.225.8-2.025 2.063T12.075 16zm4.7-8.5q-.825 0-1.412-.587T11.5 5.5t.588-1.412T13.5 3.5t1.413.588T15.5 5.5t-.587 1.413T13.5 7.5M2 5V2q0-.825.588-1.412T4 0h3v2H4v3zm18 0V2h-3V0h3q.825 0 1.413.588T22 2v3zm-1 17q-2.075 0-3.537-1.463T14 17t1.463-3.537T19 12t3.538 1.463T24 17t-1.463 3.538T19 22m-.5-4h1v-4h-1zm.5 2q.2 0 .35-.15t.15-.35t-.15-.35T19 19t-.35.15t-.15.35t.15.35t.35.15"/></svg>