<svg xmlns="http://www.w3.org/2000/svg" width="24" height="24" viewBox="0 0 24 24"><path fill="currentColor" d="M18 9q-1.25 0-2.125-.875T15 6q0-1.25.875-2.125T18 3q1.25 0 2.125.875T21 6q0 1.25-.875 2.125T18 9Zm-6 13q-2.075 0-3.9-.788t-3.175-2.137q-1.35-1.35-2.137-3.175T2 12q0-2.075.788-3.9t2.137-3.175q1.35-1.35 3.175-2.137T12 2q.675 0 1.325.088t1.275.262q-.775.725-1.187 1.663T13 6q0 2.075 1.463 3.538T18 11q1.05 0 1.988-.413T21.65 9.4q.175.625.263 1.275T22 12q0 2.075-.788 3.9t-2.137 3.175q-1.35 1.35-3.175 2.138T12 22Z"/></svg>