<?xml version="1.0" encoding="UTF-8" standalone="no"?>
<svg
   height="24"
   viewBox="0 0 24 24"
   width="24"
   version="1.1"
   id="svg4"
   sodipodi:docname="app-promo-outlined-filled.svg"
   inkscape:version="1.2.1 (9c6d41e410, 2022-07-14)"
   xmlns:inkscape="http://www.inkscape.org/namespaces/inkscape"
   xmlns:sodipodi="http://sodipodi.sourceforge.net/DTD/sodipodi-0.dtd"
   xmlns="http://www.w3.org/2000/svg"
   xmlns:svg="http://www.w3.org/2000/svg">
  <defs
     id="defs8" />
  <sodipodi:namedview
     id="namedview6"
     pagecolor="#ffffff"
     bordercolor="#000000"
     borderopacity="0.25"
     inkscape:showpageshadow="2"
     inkscape:pageopacity="0.0"
     inkscape:pagecheckerboard="0"
     inkscape:deskcolor="#d1d1d1"
     showgrid="false"
     inkscape:zoom="39.333333"
     inkscape:cx="7.5"
     inkscape:cy="17.618644"
     inkscape:window-width="3840"
     inkscape:window-height="2454"
     inkscape:window-x="-11"
     inkscape:window-y="-11"
     inkscape:window-maximized="1"
     inkscape:current-layer="svg4" />
  <path
     d="M 16,11 12,15 8,11 9.4,9.6 11,11.15 V 7 h 2 v 4.15 L 14.6,9.6 Z m -6,9 h 4 V 19 H 10 Z M 7,23 Q 6.175,23 5.5875,22.4125 5,21.825 5,21 V 3 Q 5,2.175 5.5875,1.5875 6.175,1 7,1 H 17 Q 17.825,1 18.4125,1.5875 19,2.175 19,3 v 18 q 0,0.825 -0.5875,1.4125 Q 17.825,23 17,23 Z M 7,16 H 17 V 6 H 7 Z"
     id="path2"
     style="stroke-width:0.025" />
</svg>
