<?xml version="1.0" encoding="UTF-8" standalone="no"?>
<svg
   height="24"
   viewBox="0 0 24 24"
   width="24"
   version="1.1"
   id="svg4"
   sodipodi:docname="arrow-and-edge-outlined-filled.svg"
   inkscape:version="1.2.1 (9c6d41e410, 2022-07-14)"
   xmlns:inkscape="http://www.inkscape.org/namespaces/inkscape"
   xmlns:sodipodi="http://sodipodi.sourceforge.net/DTD/sodipodi-0.dtd"
   xmlns="http://www.w3.org/2000/svg"
   xmlns:svg="http://www.w3.org/2000/svg">
  <defs
     id="defs8" />
  <sodipodi:namedview
     id="namedview6"
     pagecolor="#ffffff"
     bordercolor="#000000"
     borderopacity="0.25"
     inkscape:showpageshadow="2"
     inkscape:pageopacity="0.0"
     inkscape:pagecheckerboard="0"
     inkscape:deskcolor="#d1d1d1"
     showgrid="false"
     inkscape:zoom="9.8333333"
     inkscape:cx="12"
     inkscape:cy="12"
     inkscape:window-width="3840"
     inkscape:window-height="2454"
     inkscape:window-x="-11"
     inkscape:window-y="-11"
     inkscape:window-maximized="1"
     inkscape:current-layer="svg4" />
  <path
     d="M 12,21 8,17 9.4,15.6 11,17.175 V 13 Q 11,12.175 10.4125,11.5875 9.825,11 9,11 H 3 Q 2.175,11 1.5875,10.4125 1,9.825 1,9 V 3 H 3 V 9 H 9 Q 9.9,9 10.675,9.3625 11.45,9.725 12,10.35 12.55,9.725 13.325,9.3625 14.1,9 15,9 h 6 V 3 h 2 V 9 Q 23,9.825 22.4125,10.4125 21.825,11 21,11 H 15 Q 14.175,11 13.5875,11.5875 13,12.175 13,13 v 4.175 L 14.575,15.6 16,17 Z"
     id="path2"
     style="stroke-width:0.025" />
</svg>
