<svg xmlns="http://www.w3.org/2000/svg" width="24" height="24" viewBox="0 0 24 24"><path fill="currentColor" d="M8.5 17q.625 0 1.063-.438T10 15.5q0-.625-.438-1.063T8.5 14q-.625 0-1.063.438T7 15.5q0 .625.438 1.063T8.5 17Zm0-7q.625 0 1.063-.438T10 8.5q0-.625-.438-1.063T8.5 7q-.625 0-1.063.438T7 8.5q0 .625.438 1.063T8.5 10Zm7 7q.625 0 1.063-.438T17 15.5q0-.625-.438-1.063T15.5 14q-.625 0-1.063.438T14 15.5q0 .625.438 1.063T15.5 17Zm0-7q.625 0 1.063-.438T17 8.5q0-.625-.438-1.063T15.5 7q-.625 0-1.063.438T14 8.5q0 .625.438 1.063T15.5 10ZM5 21q-.825 0-1.413-.588T3 19V5q0-.825.588-1.413T5 3h14q.825 0 1.413.588T21 5v14q0 .825-.588 1.413T19 21H5Z"/></svg>