<svg xmlns="http://www.w3.org/2000/svg" width="24" height="24" viewBox="0 0 24 24"><path fill="currentColor" d="m7.8 5.225l-1-3l1.4-.45l1 2.975l-1.4.475ZM11.25 4V1h1.5v3h-1.5Zm4.95 1.225l-1.4-.475l1-2.975l1.4.475l-1 2.975ZM21.875 23l-5.275-.8q-.85-.125-1.488-.688T14.2 20.15l-.85-2.65q-.275-.875-.025-1.738t.9-1.437l1.375 4.25l.9-.275l-2.2-6.95q-.325-1.025.063-2.012t1.312-1.513l1.25-.7l4.425 8.35q.125.25.363.388t.512.137h.725l-1.075 7ZM2.15 23l-1.075-7H1.8q.275 0 .513-.138t.362-.387L7.1 7.125l1.25.7q.925.525 1.313 1.513t.062 2.012L7.5 18.3l.9.275L9.775 14.3q.675.575.925 1.45t-.025 1.75l-.85 2.65q-.275.8-.912 1.363t-1.488.687L2.15 23Z"/></svg>