<svg xmlns="http://www.w3.org/2000/svg" width="24" height="24" viewBox="0 0 24 24"><path d="M2 21v-9q0-.825.588-1.413T4 10h5v2q0 1.25.875 2.125T12 15q1.25 0 2.125-.875T15 12v-2h5q.825 0 1.413.588T22 12v9H2Zm10-8q-.425 0-.713-.288T11 12q0-2.725.625-5.375T14.35 2.25q.325-.275.725-.238t.675.363q.275.325.238.725t-.363.675q-1.75 1.475-2.188 3.7T13 12q0 .425-.288.713T12 13Zm-6.25 2.5q.325 0 .537-.213t.213-.537q0-.325-.213-.537T5.75 14q-.325 0-.537.213T5 14.75q0 .325.213.537t.537.213Zm1 2.5q.325 0 .537-.213t.213-.537q0-.325-.213-.537T6.75 16.5q-.325 0-.537.213T6 17.25q0 .325.213.537T6.75 18Zm11.5-2.5q.325 0 .537-.213T19 14.75q0-.325-.213-.537T18.25 14q-.325 0-.537.213t-.213.537q0 .325.213.537t.537.213Z"/></svg>