<svg xmlns="http://www.w3.org/2000/svg" width="24" height="24" viewBox="0 0 24 24"><path d="M14.4 22q-.875 0-1.675-.363T11.35 20.6l-5.8-6.75l1.3-.975q.5-.375 1.125-.4t1.15.325l1.375.875V4q0-.425.288-.713T11.5 3q.425 0 .713.288T12.5 4v9H14V8q0-.425.288-.713T15 7q.425 0 .713.288T16 8v5h1.5V9q0-.425.288-.713T18.5 8q.425 0 .713.288T19.5 9v4H21v-2q0-.425.288-.713T22 10q.425 0 .713.288T23 11v7q0 1.65-1.175 2.825T19 22h-4.6ZM4.5 10q-1.475 0-2.488-1.012T1 6.55q0-.85.338-1.475t1.587-2.05l1.575-1.8L6.075 3.05q1.275 1.475 1.6 2.075T8 6.55q0 1.425-1.025 2.438T4.5 10Z"/></svg>