<svg xmlns="http://www.w3.org/2000/svg" width="24" height="24" viewBox="0 0 24 24"><path d="M12 7q-.625 0-1.063-.438T10.5 5.5q0-.625.438-1.063T12 4q.625 0 1.063.438T13.5 5.5q0 .625-.438 1.063T12 7Zm0 16q-2.075 0-3.538-1.463T7 18V6q0-2.075 1.463-3.538T12 1q2.075 0 3.538 1.463T17 6v12q0 2.075-1.463 3.538T12 23Zm0-15q1.05 0 1.775-.725T14.5 5.5q0-1.05-.725-1.775T12 3q-1.05 0-1.775.725T9.5 5.5q0 1.05.725 1.775T12 8Zm-1.5 8q.425 0 .713-.288T11.5 15q0-.425-.288-.713T10.5 14q-.425 0-.713.288T9.5 15q0 .425.288.713T10.5 16Zm0-3q.425 0 .713-.288T11.5 12q0-.425-.288-.713T10.5 11q-.425 0-.713.288T9.5 12q0 .425.288.713T10.5 13Zm3 0q.425 0 .713-.288T14.5 12q0-.425-.288-.713T13.5 11q-.425 0-.713.288T12.5 12q0 .425.288.713T13.5 13Zm0 3q.425 0 .713-.288T14.5 15q0-.425-.288-.713T13.5 14q-.425 0-.713.288T12.5 15q0 .425.288.713T13.5 16Zm-3 3q.425 0 .713-.288T11.5 18q0-.425-.288-.713T10.5 17q-.425 0-.713.288T9.5 18q0 .425.288.713T10.5 19Zm3 0q.425 0 .713-.288T14.5 18q0-.425-.288-.713T13.5 17q-.425 0-.713.288T12.5 18q0 .425.288.713T13.5 19Z"/></svg>