<svg xmlns="http://www.w3.org/2000/svg" width="24" height="24" viewBox="0 0 24 24"><path d="M17.55 15.65q.7 0 1.363-.325t1.212-.925v-2.65q-.575.075-1.063.175t-.912.225q-1.125.35-1.688.875T15.9 14.25q0 .65.45 1.025t1.2.375Zm-.575 1.7q-1.425 0-2.25-.813t-.825-2.212q0-1.3.825-2.125t2.65-1.325q.575-.15 1.263-.275t1.487-.225q-.05-1.175-.55-1.713t-1.55-.537q-.65 0-1.287.238T15.1 9.2l-.8-1.4q.825-.625 1.938-1.012T18.5 6.4q1.775 0 2.7 1.1t.925 3.2v6.425H20.45L20.3 16q-.7.625-1.538.988t-1.787.362Zm-14.35.275q-.275-.35-.475-.575t-.4-.35q1.9-.825 3.05-2.125t1.65-3.55H2.1V9.85h4.55q.1-.75.15-1.6t.05-1.8H8.1q0 .95-.038 1.788T7.9 9.85h4.925v1.175H8.35q.65 2.025 1.875 3.463t2.85 2.087q-.2.2-.387.425t-.463.625q-1.575-.7-2.8-2.138T7.45 12q-.6 2.075-1.788 3.425t-3.037 2.2Z"/></svg>