<svg height="24" width="24" xmlns="http://www.w3.org/2000/svg"><path d="M 6.35,15.35 4.25,13.225 Q 5.725,11.75 7.7125,10.875 9.7,10 12,10 14.3,10 16.2875,10.8625 18.275,11.725 19.75,13.225 L 17.65,15.35 Q 16.55,14.25 15.1,13.625 13.65,13 12,13 10.35,13 8.9,13.625 7.45,14.25 6.35,15.35 Z M 2.125,11.1 0,8.975 Q 2.3,6.625 5.375,5.3125 8.45,4 12,4 15.55,4 18.625,5.3125 21.7,6.625 24,8.975 L 21.875,11.1 Q 19.95,9.175 17.425,8.0875 14.9,7 12,7 9.1,7 6.575,8.0875 4.05,9.175 2.125,11.1 Z M 12,22 10.75,19.25 8,18 10.75,16.75 12,14 13.25,16.75 16,18 13.25,19.25 Z"/></svg>