<?xml version="1.0" encoding="UTF-8"?>
<svg xmlns="http://www.w3.org/2000/svg" xmlns:xlink="http://www.w3.org/1999/xlink" width="24px" height="24px" viewBox="0 0 24 24" version="1.1">
<g id="surface1">
<path style=" stroke:none;fill-rule:nonzero;fill:rgb(0%,0%,0%);fill-opacity:1;" d="M 3 11 L 3 9 L 4.574219 9 C 5.058594 7.851562 5.761719 6.863281 6.6875 6.039062 C 7.613281 5.210938 8.675781 4.632812 9.875 4.300781 L 9.300781 3.699219 L 10.699219 2.300781 L 11.949219 3.523438 C 12.148438 3.726562 12.277344 3.960938 12.335938 4.238281 C 12.394531 4.511719 12.382812 4.785156 12.300781 5.050781 C 12.214844 5.332031 12.066406 5.566406 11.851562 5.75 C 11.632812 5.933594 11.382812 6.042969 11.101562 6.074219 C 9.949219 6.257812 8.9375 6.730469 8.0625 7.488281 C 7.1875 8.246094 6.582031 9.183594 6.25 10.300781 L 6.050781 11 Z M 15 12 C 15 11.265625 15.136719 10.566406 15.414062 9.898438 C 15.6875 9.234375 16.132812 8.714844 16.75 8.351562 C 16.367188 7.851562 15.921875 7.421875 15.414062 7.0625 C 14.902344 6.703125 14.339844 6.433594 13.726562 6.25 L 14.300781 4.324219 C 15.332031 4.625 16.25 5.117188 17.050781 5.800781 C 17.851562 6.484375 18.5 7.300781 19 8.25 C 19.699219 8.582031 20.207031 9.097656 20.523438 9.789062 C 20.839844 10.480469 21 11.214844 21 12 C 21 12.785156 20.839844 13.523438 20.523438 14.226562 C 20.207031 14.925781 19.699219 15.433594 19 15.75 C 18.5 16.699219 17.839844 17.515625 17.023438 18.199219 C 16.207031 18.882812 15.292969 19.375 14.273438 19.675781 L 13.699219 17.75 C 14.300781 17.566406 14.863281 17.296875 15.386719 16.9375 C 15.914062 16.578125 16.367188 16.148438 16.75 15.648438 C 16.132812 15.285156 15.6875 14.765625 15.414062 14.101562 C 15.136719 13.433594 15 12.734375 15 12 Z M 10.574219 21.824219 L 9.175781 20.398438 L 9.875 19.699219 C 8.675781 19.367188 7.609375 18.789062 6.675781 17.960938 C 5.742188 17.136719 5.042969 16.148438 4.574219 15 L 3 15 L 3 13 L 6.050781 13 L 6.25 13.699219 C 6.582031 14.816406 7.1875 15.753906 8.0625 16.511719 C 8.9375 17.269531 9.949219 17.742188 11.101562 17.925781 C 11.382812 17.957031 11.632812 18.070312 11.851562 18.261719 C 12.066406 18.453125 12.214844 18.683594 12.300781 18.949219 C 12.382812 19.214844 12.394531 19.484375 12.335938 19.75 C 12.277344 20.015625 12.148438 20.25 11.949219 20.449219 Z M 10.574219 21.824219 "/>
</g>
</svg>
