<?xml version="1.0" encoding="UTF-8"?>
<svg xmlns="http://www.w3.org/2000/svg" xmlns:xlink="http://www.w3.org/1999/xlink" width="24px" height="24px" viewBox="0 0 24 24" version="1.1">
<g id="surface1">
<path style=" stroke:none;fill-rule:nonzero;fill:rgb(0%,0%,0%);fill-opacity:1;" d="M 17.5 20.5 C 16.535156 20.5 15.707031 20.160156 15.023438 19.476562 C 14.339844 18.792969 14 17.964844 14 17 C 14 16.035156 14.339844 15.207031 15.023438 14.523438 C 15.707031 13.839844 16.535156 13.5 17.5 13.5 C 18.464844 13.5 19.292969 13.839844 19.976562 14.523438 C 20.660156 15.207031 21 16.035156 21 17 C 21 17.964844 20.660156 18.792969 19.976562 19.476562 C 19.292969 20.160156 18.464844 20.5 17.5 20.5 Z M 17.5 18.5 C 17.917969 18.5 18.269531 18.355469 18.5625 18.0625 C 18.855469 17.769531 19 17.417969 19 17 C 19 16.582031 18.855469 16.230469 18.5625 15.9375 C 18.269531 15.644531 17.917969 15.5 17.5 15.5 C 17.082031 15.5 16.730469 15.644531 16.4375 15.9375 C 16.144531 16.230469 16 16.582031 16 17 C 16 17.417969 16.144531 17.769531 16.4375 18.0625 C 16.730469 18.355469 17.082031 18.5 17.5 18.5 Z M 3 18 L 3 16 L 12 16 L 12 18 Z M 6.5 10.5 C 5.535156 10.5 4.707031 10.160156 4.023438 9.476562 C 3.339844 8.792969 3 7.964844 3 7 C 3 6.035156 3.339844 5.207031 4.023438 4.523438 C 4.707031 3.839844 5.535156 3.5 6.5 3.5 C 7.464844 3.5 8.292969 3.839844 8.976562 4.523438 C 9.660156 5.207031 10 6.035156 10 7 C 10 7.964844 9.660156 8.792969 8.976562 9.476562 C 8.292969 10.160156 7.464844 10.5 6.5 10.5 Z M 6.5 8.5 C 6.917969 8.5 7.269531 8.355469 7.5625 8.0625 C 7.855469 7.769531 8 7.417969 8 7 C 8 6.582031 7.855469 6.230469 7.5625 5.9375 C 7.269531 5.644531 6.917969 5.5 6.5 5.5 C 6.082031 5.5 5.730469 5.644531 5.4375 5.9375 C 5.144531 6.230469 5 6.582031 5 7 C 5 7.417969 5.144531 7.769531 5.4375 8.0625 C 5.730469 8.355469 6.082031 8.5 6.5 8.5 Z M 12 8 L 12 6 L 21 6 L 21 8 Z M 12 8 "/>
</g>
</svg>
