<?xml version="1.0" encoding="UTF-8"?>
<svg xmlns="http://www.w3.org/2000/svg" xmlns:xlink="http://www.w3.org/1999/xlink" width="24px" height="24px" viewBox="0 0 24 24" version="1.1">
<g id="surface1">
<path style=" stroke:none;fill-rule:nonzero;fill:rgb(0%,0%,0%);fill-opacity:1;" d="M 12 9 L 8.5 5.5 L 12 2 L 15.5 5.5 Z M 1 20 L 1 16 C 1 15.433594 1.195312 14.957031 1.585938 14.574219 C 1.980469 14.191406 2.449219 14 3 14 L 6.273438 14 C 6.609375 14 6.925781 14.082031 7.226562 14.25 C 7.523438 14.417969 7.765625 14.640625 7.949219 14.925781 C 8.433594 15.574219 9.027344 16.082031 9.738281 16.449219 C 10.445312 16.816406 11.199219 17 12 17 C 12.816406 17 13.578125 16.816406 14.289062 16.449219 C 14.996094 16.082031 15.582031 15.574219 16.050781 14.925781 C 16.265625 14.640625 16.519531 14.417969 16.8125 14.25 C 17.105469 14.082031 17.410156 14 17.726562 14 L 21 14 C 21.566406 14 22.042969 14.191406 22.425781 14.574219 C 22.808594 14.957031 23 15.433594 23 16 L 23 20 L 16 20 L 16 17.726562 C 15.417969 18.140625 14.789062 18.457031 14.113281 18.675781 C 13.4375 18.890625 12.734375 19 12 19 C 11.285156 19 10.582031 18.886719 9.898438 18.664062 C 9.214844 18.4375 8.582031 18.117188 8 17.699219 L 8 20 Z M 4 13 C 3.167969 13 2.457031 12.707031 1.875 12.125 C 1.292969 11.542969 1 10.832031 1 10 C 1 9.148438 1.292969 8.4375 1.875 7.863281 C 2.457031 7.289062 3.167969 7 4 7 C 4.851562 7 5.5625 7.289062 6.136719 7.863281 C 6.710938 8.4375 7 9.148438 7 10 C 7 10.832031 6.710938 11.542969 6.136719 12.125 C 5.5625 12.707031 4.851562 13 4 13 Z M 20 13 C 19.167969 13 18.457031 12.707031 17.875 12.125 C 17.292969 11.542969 17 10.832031 17 10 C 17 9.148438 17.292969 8.4375 17.875 7.863281 C 18.457031 7.289062 19.167969 7 20 7 C 20.851562 7 21.5625 7.289062 22.136719 7.863281 C 22.710938 8.4375 23 9.148438 23 10 C 23 10.832031 22.710938 11.542969 22.136719 12.125 C 21.5625 12.707031 20.851562 13 20 13 Z M 20 13 "/>
</g>
</svg>
