<?xml version="1.0" encoding="UTF-8"?>
<svg xmlns="http://www.w3.org/2000/svg" xmlns:xlink="http://www.w3.org/1999/xlink" width="24px" height="24px" viewBox="0 0 24 24" version="1.1">
<g id="surface1">
<path style=" stroke:none;fill-rule:nonzero;fill:rgb(0%,0%,0%);fill-opacity:1;" d="M 12 16 C 10.851562 16 9.773438 16.175781 8.773438 16.523438 C 7.773438 16.875 6.851562 17.367188 6 18 L 6 20 L 18 20 L 18 18 C 17.148438 17.367188 16.226562 16.875 15.226562 16.523438 C 14.226562 16.175781 13.148438 16 12 16 Z M 6 22 C 5.449219 22 4.980469 21.804688 4.585938 21.414062 C 4.195312 21.019531 4 20.550781 4 20 L 4 4 C 4 3.449219 4.195312 2.980469 4.585938 2.585938 C 4.980469 2.195312 5.449219 2 6 2 L 18 2 C 18.550781 2 19.019531 2.195312 19.414062 2.585938 C 19.804688 2.980469 20 3.449219 20 4 L 20 20 C 20 20.550781 19.804688 21.019531 19.414062 21.414062 C 19.019531 21.804688 18.550781 22 18 22 Z M 12 14 C 12.964844 14 13.792969 13.660156 14.476562 12.976562 C 15.160156 12.292969 15.5 11.464844 15.5 10.5 C 15.5 9.535156 15.160156 8.707031 14.476562 8.023438 C 13.792969 7.339844 12.964844 7 12 7 C 11.035156 7 10.207031 7.339844 9.523438 8.023438 C 8.839844 8.707031 8.5 9.535156 8.5 10.5 C 8.5 11.464844 8.839844 12.292969 9.523438 12.976562 C 10.207031 13.660156 11.035156 14 12 14 Z M 12 14 "/>
</g>
</svg>
