<?xml version="1.0" encoding="UTF-8"?>
<svg xmlns="http://www.w3.org/2000/svg" xmlns:xlink="http://www.w3.org/1999/xlink" width="24px" height="24px" viewBox="0 0 24 24" version="1.1">
<g id="surface1">
<path style=" stroke:none;fill-rule:nonzero;fill:rgb(0%,0%,0%);fill-opacity:1;" d="M 2 23 L 2 21 L 22 21 L 22 23 Z M 4 20 L 4 14 C 3.449219 13.101562 3.023438 12.144531 2.726562 11.136719 C 2.425781 10.128906 2.273438 9.101562 2.273438 8.050781 C 2.273438 7.035156 2.402344 6.035156 2.664062 5.050781 C 2.921875 4.066406 3.226562 3.101562 3.574219 2.148438 C 3.707031 1.800781 3.925781 1.519531 4.226562 1.3125 C 4.523438 1.105469 4.859375 1 5.226562 1 C 5.742188 1 6.183594 1.175781 6.550781 1.523438 C 6.917969 1.875 7.066406 2.292969 7 2.773438 L 6.726562 5.050781 C 6.625 5.851562 6.695312 6.609375 6.9375 7.324219 C 7.179688 8.042969 7.542969 8.671875 8.023438 9.210938 C 8.507812 9.753906 9.089844 10.1875 9.773438 10.511719 C 10.457031 10.835938 11.199219 11 12 11 C 13 11 14.003906 11.105469 15.011719 11.3125 C 16.019531 11.519531 16.898438 11.816406 17.648438 12.199219 C 18.398438 12.582031 18.980469 13.070312 19.386719 13.664062 C 19.796875 14.253906 20 14.984375 20 15.851562 L 20 20 L 10 20 L 10 19.074219 C 10 18.507812 10.191406 18.019531 10.574219 17.613281 C 10.957031 17.203125 11.433594 17 12 17 L 16 17 L 16 15 L 12 15 C 10.882812 15 9.9375 15.398438 9.164062 16.199219 C 8.386719 17 8 17.957031 8 19.074219 L 8 20 Z M 12 10 C 10.898438 10 9.957031 9.609375 9.175781 8.824219 C 8.390625 8.042969 8 7.101562 8 6 C 8 4.898438 8.390625 3.957031 9.175781 3.175781 C 9.957031 2.390625 10.898438 2 12 2 C 13.101562 2 14.042969 2.390625 14.824219 3.175781 C 15.609375 3.957031 16 4.898438 16 6 C 16 7.101562 15.609375 8.042969 14.824219 8.824219 C 14.042969 9.609375 13.101562 10 12 10 Z M 12 10 "/>
</g>
</svg>
