<?xml version="1.0" encoding="UTF-8"?>
<svg xmlns="http://www.w3.org/2000/svg" xmlns:xlink="http://www.w3.org/1999/xlink" width="24px" height="24px" viewBox="0 0 24 24" version="1.1">
<g id="surface1">
<path style=" stroke:none;fill-rule:nonzero;fill:rgb(0%,0%,0%);fill-opacity:1;" d="M 15.199219 14.800781 L 16.351562 10.648438 L 12.800781 8.199219 L 11.648438 12.351562 Z M 4 18.824219 L 3.175781 18.425781 C 2.660156 18.207031 2.308594 17.835938 2.125 17.3125 C 1.941406 16.789062 1.964844 16.265625 2.199219 15.75 L 4 11.851562 Z M 8 21 C 7.449219 21 6.980469 20.800781 6.585938 20.398438 C 6.195312 20 6 19.523438 6 18.976562 L 6 13 L 8.675781 20.351562 C 8.726562 20.464844 8.765625 20.578125 8.800781 20.6875 C 8.832031 20.796875 8.890625 20.898438 8.976562 21 Z M 13.148438 20.875 C 12.632812 21.058594 12.117188 21.035156 11.601562 20.800781 C 11.082031 20.566406 10.734375 20.191406 10.550781 19.675781 L 6.125 7.449219 C 5.941406 6.933594 5.964844 6.421875 6.199219 5.914062 C 6.433594 5.402344 6.808594 5.058594 7.324219 4.875 L 14.851562 2.125 C 15.367188 1.941406 15.878906 1.964844 16.386719 2.199219 C 16.894531 2.433594 17.242188 2.808594 17.425781 3.324219 L 21.875 15.550781 C 22.058594 16.066406 22.035156 16.578125 21.800781 17.085938 C 21.566406 17.597656 21.191406 17.941406 20.675781 18.125 Z M 13.148438 20.875 "/>
</g>
</svg>
