<?xml version="1.0" encoding="UTF-8"?>
<svg xmlns="http://www.w3.org/2000/svg" xmlns:xlink="http://www.w3.org/1999/xlink" width="24px" height="24px" viewBox="0 0 24 24" version="1.1">
<g id="surface1">
<path style=" stroke:none;fill-rule:nonzero;fill:rgb(0%,0%,0%);fill-opacity:1;" d="M 20.449219 23.300781 L 17.148438 20 L 3.398438 20 L 10.273438 13.125 L 8.875 11.726562 L 2 18.601562 L 2 14.425781 L 6.773438 9.625 L 5.375 8.226562 L 2 11.601562 L 2 6 C 2 5.832031 2.035156 5.6875 2.101562 5.5625 C 2.167969 5.4375 2.25 5.316406 2.351562 5.199219 L 0.648438 3.5 L 2.074219 2.074219 L 21.875 21.875 Z M 22 19.148438 L 13.125 10.273438 L 19.398438 4 L 20 4 C 20.550781 4 21.019531 4.195312 21.414062 4.585938 C 21.804688 4.980469 22 5.449219 22 6 Z M 11.726562 8.875 L 9.625 6.773438 L 12.398438 4 L 16.574219 4 Z M 8.226562 5.375 L 6.851562 4 L 9.601562 4 Z M 8.226562 5.375 "/>
</g>
</svg>
