<?xml version="1.0" encoding="UTF-8"?>
<svg xmlns="http://www.w3.org/2000/svg" xmlns:xlink="http://www.w3.org/1999/xlink" width="24px" height="24px" viewBox="0 0 24 24" version="1.1">
<g id="surface1">
<path style=" stroke:none;fill-rule:nonzero;fill:rgb(0%,0%,0%);fill-opacity:1;" d="M 2 11.601562 L 9.601562 4 L 4 4 C 3.449219 4 2.980469 4.195312 2.585938 4.585938 C 2.195312 4.980469 2 5.449219 2 6 Z M 2 18.601562 L 16.574219 4 L 12.398438 4 L 2 14.425781 Z M 3.398438 20 L 20 20 C 20.550781 20 21.019531 19.804688 21.414062 19.414062 C 21.804688 19.019531 22 18.550781 22 18 L 22 6 C 22 5.449219 21.804688 4.980469 21.414062 4.585938 C 21.019531 4.195312 20.550781 4 20 4 L 19.398438 4 Z M 3.398438 20 "/>
</g>
</svg>
