<?xml version="1.0" encoding="UTF-8"?>
<svg xmlns="http://www.w3.org/2000/svg" xmlns:xlink="http://www.w3.org/1999/xlink" width="24px" height="24px" viewBox="0 0 24 24" version="1.1">
<g id="surface1">
<path style=" stroke:none;fill-rule:nonzero;fill:rgb(0%,0%,0%);fill-opacity:1;" d="M 11 21 L 11 13.023438 C 9.933594 13.023438 8.910156 12.820312 7.925781 12.414062 C 6.941406 12.003906 6.074219 11.425781 5.324219 10.675781 C 4.574219 9.925781 4 9.058594 3.601562 8.074219 C 3.199219 7.089844 3 6.066406 3 5 L 3 3 L 5 3 C 6.050781 3 7.066406 3.203125 8.050781 3.613281 C 9.035156 4.019531 9.898438 4.601562 10.648438 5.351562 C 11.167969 5.867188 11.597656 6.433594 11.9375 7.050781 C 12.277344 7.667969 12.542969 8.324219 12.726562 9.023438 C 12.808594 8.910156 12.898438 8.796875 13 8.6875 C 13.101562 8.578125 13.207031 8.464844 13.324219 8.351562 C 14.074219 7.601562 14.941406 7.019531 15.925781 6.613281 C 16.910156 6.203125 17.933594 6 19 6 L 21 6 L 21 8 C 21 9.066406 20.796875 10.089844 20.386719 11.074219 C 19.980469 12.058594 19.398438 12.925781 18.648438 13.675781 C 17.898438 14.425781 17.039062 15 16.0625 15.398438 C 15.085938 15.800781 14.066406 16 13 16 L 13 21 Z M 11 21 "/>
</g>
</svg>
