<?xml version="1.0" encoding="UTF-8"?>
<svg xmlns="http://www.w3.org/2000/svg" xmlns:xlink="http://www.w3.org/1999/xlink" width="24px" height="24px" viewBox="0 0 24 24" version="1.1">
<g id="surface1">
<path style=" stroke:none;fill-rule:nonzero;fill:rgb(0%,0%,0%);fill-opacity:1;" d="M 8.449219 18.898438 C 8.199219 19.035156 7.945312 19.054688 7.6875 18.960938 C 7.429688 18.871094 7.234375 18.699219 7.101562 18.449219 L 5.601562 15.449219 C 5.464844 15.199219 5.445312 14.945312 5.539062 14.6875 C 5.628906 14.429688 5.800781 14.234375 6.050781 14.101562 C 6.300781 13.964844 6.554688 13.945312 6.8125 14.039062 C 7.070312 14.128906 7.265625 14.300781 7.398438 14.550781 L 8.898438 17.550781 C 9.035156 17.800781 9.054688 18.054688 8.960938 18.3125 C 8.871094 18.570312 8.699219 18.765625 8.449219 18.898438 Z M 17.449219 18.898438 C 17.199219 19.035156 16.945312 19.054688 16.6875 18.960938 C 16.429688 18.871094 16.234375 18.699219 16.101562 18.449219 L 11.601562 9.449219 C 11.464844 9.199219 11.445312 8.945312 11.539062 8.6875 C 11.628906 8.429688 11.800781 8.234375 12.050781 8.101562 C 12.300781 7.964844 12.554688 7.945312 12.8125 8.039062 C 13.070312 8.128906 13.265625 8.300781 13.398438 8.550781 L 17.898438 17.550781 C 18.035156 17.800781 18.054688 18.054688 17.960938 18.3125 C 17.871094 18.570312 17.699219 18.765625 17.449219 18.898438 Z M 12.75 19 C 12.464844 19 12.230469 18.902344 12.039062 18.710938 C 11.847656 18.519531 11.75 18.285156 11.75 18 C 11.75 17.714844 11.847656 17.480469 12.039062 17.289062 C 12.230469 17.097656 12.464844 17 12.75 17 C 13.035156 17 13.269531 17.097656 13.460938 17.289062 C 13.652344 17.480469 13.75 17.714844 13.75 18 C 13.75 18.285156 13.652344 18.519531 13.460938 18.710938 C 13.269531 18.902344 13.035156 19 12.75 19 Z M 22.449219 18.898438 C 22.199219 19.035156 21.945312 19.054688 21.6875 18.960938 C 21.429688 18.871094 21.234375 18.699219 21.101562 18.449219 L 20.601562 17.449219 C 20.464844 17.199219 20.445312 16.945312 20.539062 16.6875 C 20.628906 16.429688 20.800781 16.234375 21.050781 16.101562 C 21.300781 15.964844 21.554688 15.945312 21.8125 16.039062 C 22.070312 16.128906 22.265625 16.300781 22.398438 16.550781 L 22.898438 17.550781 C 23.035156 17.800781 23.054688 18.054688 22.960938 18.3125 C 22.871094 18.570312 22.699219 18.765625 22.449219 18.898438 Z M 11.449219 15.898438 C 11.199219 16.035156 10.945312 16.054688 10.6875 15.960938 C 10.429688 15.871094 10.234375 15.699219 10.101562 15.449219 L 5.601562 6.449219 C 5.464844 6.199219 5.445312 5.945312 5.539062 5.6875 C 5.628906 5.429688 5.800781 5.234375 6.050781 5.101562 C 6.300781 4.964844 6.554688 4.945312 6.8125 5.039062 C 7.070312 5.128906 7.265625 5.300781 7.398438 5.550781 L 11.898438 14.550781 C 12.035156 14.800781 12.054688 15.054688 11.960938 15.3125 C 11.871094 15.570312 11.699219 15.765625 11.449219 15.898438 Z M 20 15 C 19.714844 15 19.480469 14.902344 19.289062 14.710938 C 19.097656 14.519531 19 14.285156 19 14 C 19 13.714844 19.097656 13.480469 19.289062 13.289062 C 19.480469 13.097656 19.714844 13 20 13 C 20.285156 13 20.519531 13.097656 20.710938 13.289062 C 20.902344 13.480469 21 13.714844 21 14 C 21 14.285156 20.902344 14.519531 20.710938 14.710938 C 20.519531 14.902344 20.285156 15 20 15 Z M 5 13 C 4.714844 13 4.480469 12.902344 4.289062 12.710938 C 4.097656 12.519531 4 12.285156 4 12 C 4 11.714844 4.097656 11.480469 4.289062 11.289062 C 4.480469 11.097656 4.714844 11 5 11 C 5.285156 11 5.519531 11.097656 5.710938 11.289062 C 5.902344 11.480469 6 11.714844 6 12 C 6 12.285156 5.902344 12.519531 5.710938 12.710938 C 5.519531 12.902344 5.285156 13 5 13 Z M 18.949219 11.898438 C 18.699219 12.035156 18.445312 12.054688 18.1875 11.960938 C 17.929688 11.871094 17.734375 11.699219 17.601562 11.449219 L 15.101562 6.449219 C 14.964844 6.199219 14.945312 5.945312 15.039062 5.6875 C 15.128906 5.429688 15.300781 5.234375 15.550781 5.101562 C 15.800781 4.964844 16.054688 4.945312 16.3125 5.039062 C 16.570312 5.128906 16.765625 5.300781 16.898438 5.550781 L 19.398438 10.550781 C 19.535156 10.800781 19.554688 11.054688 19.460938 11.3125 C 19.371094 11.570312 19.199219 11.765625 18.949219 11.898438 Z M 3.949219 9.898438 C 3.699219 10.035156 3.445312 10.054688 3.1875 9.960938 C 2.929688 9.871094 2.734375 9.699219 2.601562 9.449219 L 1.101562 6.449219 C 0.964844 6.199219 0.945312 5.945312 1.039062 5.6875 C 1.128906 5.429688 1.300781 5.234375 1.550781 5.101562 C 1.800781 4.964844 2.054688 4.945312 2.3125 5.039062 C 2.570312 5.128906 2.765625 5.300781 2.898438 5.550781 L 4.398438 8.550781 C 4.535156 8.800781 4.554688 9.054688 4.460938 9.3125 C 4.371094 9.570312 4.199219 9.765625 3.949219 9.898438 Z M 11.25 7 C 10.964844 7 10.730469 6.902344 10.539062 6.710938 C 10.347656 6.519531 10.25 6.285156 10.25 6 C 10.25 5.714844 10.347656 5.480469 10.539062 5.289062 C 10.730469 5.097656 10.964844 5 11.25 5 C 11.535156 5 11.769531 5.097656 11.960938 5.289062 C 12.152344 5.480469 12.25 5.714844 12.25 6 C 12.25 6.285156 12.152344 6.519531 11.960938 6.710938 C 11.769531 6.902344 11.535156 7 11.25 7 Z M 11.25 7 "/>
</g>
</svg>
