<?xml version="1.0" encoding="UTF-8"?>
<svg xmlns="http://www.w3.org/2000/svg" xmlns:xlink="http://www.w3.org/1999/xlink" width="24px" height="24px" viewBox="0 0 24 24" version="1.1">
<g id="surface1">
<path style=" stroke:none;fill-rule:nonzero;fill:rgb(0%,0%,0%);fill-opacity:1;" d="M 12 21 C 11.699219 21 11.414062 20.945312 11.136719 20.835938 C 10.863281 20.730469 10.617188 20.566406 10.398438 20.351562 L 3.699219 13.625 C 3.464844 13.390625 3.253906 13.136719 3.0625 12.863281 C 2.871094 12.585938 2.707031 12.300781 2.574219 12 L 11.875 12 C 12.160156 12 12.394531 12.097656 12.585938 12.289062 C 12.777344 12.480469 12.875 12.714844 12.875 13 C 12.875 13.285156 12.777344 13.519531 12.585938 13.710938 C 12.394531 13.902344 12.160156 14 11.875 14 C 11.640625 14 11.433594 13.9375 11.25 13.8125 C 11.066406 13.6875 10.949219 13.507812 10.898438 13.273438 L 8.976562 13.800781 C 9.160156 14.449219 9.515625 14.980469 10.050781 15.386719 C 10.582031 15.796875 11.191406 16 11.875 16 C 12.707031 16 13.417969 15.707031 14 15.125 C 14.582031 14.542969 14.875 13.832031 14.875 13 C 14.875 12.816406 14.859375 12.644531 14.824219 12.488281 C 14.792969 12.328125 14.75 12.167969 14.699219 12 L 15.875 12 C 16.707031 12 17.417969 11.707031 18 11.125 C 18.582031 10.542969 18.875 9.832031 18.875 9 C 18.875 8.167969 18.582031 7.457031 18 6.875 C 17.417969 6.292969 16.707031 6 15.875 6 C 15.191406 6 14.582031 6.203125 14.050781 6.613281 C 13.515625 7.019531 13.160156 7.550781 12.976562 8.199219 L 14.898438 8.726562 C 14.949219 8.492188 15.066406 8.3125 15.25 8.1875 C 15.433594 8.0625 15.640625 8 15.875 8 C 16.160156 8 16.394531 8.097656 16.585938 8.289062 C 16.777344 8.480469 16.875 8.714844 16.875 9 C 16.875 9.285156 16.777344 9.519531 16.585938 9.710938 C 16.394531 9.902344 16.160156 10 15.875 10 L 2.050781 10 C 2.035156 9.867188 2.019531 9.746094 2.011719 9.636719 C 2.003906 9.527344 2 9.410156 2 9.273438 C 2 7.558594 2.558594 6.082031 3.675781 4.851562 C 4.792969 3.617188 6.183594 3 7.851562 3 C 8.648438 3 9.402344 3.160156 10.113281 3.476562 C 10.820312 3.792969 11.449219 4.234375 12 4.800781 C 12.535156 4.234375 13.152344 3.792969 13.863281 3.476562 C 14.570312 3.160156 15.324219 3 16.125 3 C 17.792969 3 19.1875 3.617188 20.3125 4.851562 C 21.4375 6.082031 22 7.550781 22 9.25 C 22 10.066406 21.859375 10.851562 21.574219 11.601562 C 21.292969 12.351562 20.867188 13.015625 20.300781 13.601562 L 13.574219 20.351562 C 13.359375 20.566406 13.117188 20.730469 12.851562 20.835938 C 12.582031 20.945312 12.300781 21 12 21 Z M 12 21 "/>
</g>
</svg>
