<?xml version="1.0" encoding="UTF-8"?>
<svg xmlns="http://www.w3.org/2000/svg" xmlns:xlink="http://www.w3.org/1999/xlink" width="24px" height="24px" viewBox="0 0 24 24" version="1.1">
<g id="surface1">
<path style=" stroke:none;fill-rule:nonzero;fill:rgb(0%,0%,0%);fill-opacity:1;" d="M 7.5 16.5 L 9 16.5 L 9 15 L 15 15 L 15 16.5 L 16.5 16.5 L 16.5 15 L 15 15 L 15 13.5 L 9 13.5 L 9 15 L 7.5 15 Z M 8 12 L 9.5 12 L 9.5 9.5 L 8 9.5 Z M 14.5 12 L 16 12 L 16 9.5 L 14.5 9.5 Z M 4 20 C 3.449219 20 2.980469 19.804688 2.585938 19.414062 C 2.195312 19.019531 2 18.550781 2 18 L 2 6 C 2 5.449219 2.195312 4.980469 2.585938 4.585938 C 2.980469 4.195312 3.449219 4 4 4 L 10 4 L 12 6 L 20 6 C 20.550781 6 21.019531 6.195312 21.414062 6.585938 C 21.804688 6.980469 22 7.449219 22 8 L 22 18 C 22 18.550781 21.804688 19.019531 21.414062 19.414062 C 21.019531 19.804688 20.550781 20 20 20 Z M 4 20 "/>
</g>
</svg>
