<?xml version="1.0" encoding="UTF-8"?>
<svg xmlns="http://www.w3.org/2000/svg" xmlns:xlink="http://www.w3.org/1999/xlink" width="24px" height="24px" viewBox="0 0 24 24" version="1.1">
<g id="surface1">
<path style=" stroke:none;fill-rule:nonzero;fill:rgb(0%,0%,0%);fill-opacity:1;" d="M 13 9 L 18 9 L 13 4 Z M 15.898438 21.5 L 14.5 20.101562 L 16.601562 18 L 14.5 15.898438 L 15.898438 14.5 L 18 16.601562 L 20.101562 14.5 L 21.5 15.898438 L 19.425781 18 L 21.5 20.101562 L 20.101562 21.5 L 18 19.425781 Z M 6 22 C 5.449219 22 4.980469 21.804688 4.585938 21.414062 C 4.195312 21.019531 4 20.550781 4 20 L 4 4 C 4 3.449219 4.195312 2.980469 4.585938 2.585938 C 4.980469 2.195312 5.449219 2 6 2 L 14 2 L 20 8 L 20 12.351562 C 19.683594 12.234375 19.355469 12.144531 19.011719 12.085938 C 18.671875 12.027344 18.324219 12 17.976562 12 C 16.308594 12 14.894531 12.578125 13.738281 13.738281 C 12.578125 14.894531 12 16.308594 12 17.976562 C 12 18.726562 12.132812 19.445312 12.398438 20.136719 C 12.667969 20.828125 13.050781 21.449219 13.550781 22 Z M 6 22 "/>
</g>
</svg>
