<?xml version="1.0" encoding="UTF-8"?>
<svg xmlns="http://www.w3.org/2000/svg" xmlns:xlink="http://www.w3.org/1999/xlink" width="24px" height="24px" viewBox="0 0 24 24" version="1.1">
<g id="surface1">
<path style=" stroke:none;fill-rule:nonzero;fill:rgb(0%,0%,0%);fill-opacity:1;" d="M 12 13 C 12.964844 13 13.792969 12.660156 14.476562 11.976562 C 15.160156 11.292969 15.5 10.464844 15.5 9.5 C 15.5 8.535156 15.160156 7.707031 14.476562 7.023438 C 13.792969 6.339844 12.964844 6 12 6 C 11.035156 6 10.207031 6.339844 9.523438 7.023438 C 8.839844 7.707031 8.5 8.535156 8.5 9.5 C 8.5 10.464844 8.839844 11.292969 9.523438 11.976562 C 10.207031 12.660156 11.035156 13 12 13 Z M 12 22 C 9.566406 21.382812 7.625 20.050781 6.175781 18 C 4.726562 15.949219 4 13.648438 4 11.101562 L 4 5 L 12 2 L 20 5 L 20 11.101562 C 20 13.648438 19.273438 15.949219 17.824219 18 C 16.375 20.050781 14.433594 21.382812 12 22 Z M 12 19.898438 C 12.984375 19.582031 13.855469 19.085938 14.613281 18.414062 C 15.371094 17.738281 16.035156 16.976562 16.601562 16.125 C 15.882812 15.757812 15.136719 15.480469 14.363281 15.289062 C 13.585938 15.097656 12.800781 15 12 15 C 11.199219 15 10.414062 15.097656 9.636719 15.289062 C 8.863281 15.480469 8.117188 15.757812 7.398438 16.125 C 7.964844 16.976562 8.628906 17.738281 9.386719 18.414062 C 10.144531 19.085938 11.015625 19.582031 12 19.898438 Z M 12 19.898438 "/>
</g>
</svg>
