<?xml version="1.0" encoding="UTF-8"?>
<svg xmlns="http://www.w3.org/2000/svg" xmlns:xlink="http://www.w3.org/1999/xlink" width="24px" height="24px" viewBox="0 0 24 24" version="1.1">
<g id="surface1">
<path style=" stroke:none;fill-rule:nonzero;fill:rgb(0%,0%,0%);fill-opacity:1;" d="M 12.074219 22 C 10.675781 22 9.363281 21.734375 8.136719 21.199219 C 6.914062 20.667969 5.847656 19.945312 4.9375 19.039062 C 4.027344 18.128906 3.308594 17.0625 2.773438 15.835938 C 2.242188 14.613281 1.976562 13.300781 1.976562 11.898438 C 1.976562 9.464844 2.75 7.320312 4.300781 5.460938 C 5.851562 3.605469 7.824219 2.449219 10.226562 2 C 9.925781 3.648438 10.015625 5.261719 10.5 6.835938 C 10.984375 8.414062 11.816406 9.792969 13 10.976562 C 14.183594 12.160156 15.5625 12.992188 17.136719 13.476562 C 18.710938 13.957031 20.324219 14.050781 21.976562 13.75 C 21.542969 16.148438 20.390625 18.125 18.523438 19.675781 C 16.660156 21.226562 14.507812 22 12.074219 22 Z M 18 10 L 16.75 7.25 L 14 6 L 16.75 4.75 L 18 2 L 19.25 4.75 L 22 6 L 19.25 7.25 Z M 18 10 "/>
</g>
</svg>
