<?xml version="1.0" encoding="UTF-8"?>
<svg xmlns="http://www.w3.org/2000/svg" xmlns:xlink="http://www.w3.org/1999/xlink" width="24px" height="24px" viewBox="0 0 24 24" version="1.1">
<g id="surface1">
<path style=" stroke:none;fill-rule:nonzero;fill:rgb(0%,0%,0%);fill-opacity:1;" d="M 7.476562 21 C 5.957031 21 4.667969 20.464844 3.601562 19.398438 C 2.535156 18.332031 2 17.042969 2 15.523438 C 2 14.089844 2.480469 12.855469 3.4375 11.8125 C 4.394531 10.769531 5.589844 10.191406 7.023438 10.074219 L 3 2 L 10 2 L 12 6 L 14 2 L 21 2 L 17 10.023438 C 18.417969 10.160156 19.605469 10.746094 20.5625 11.789062 C 21.519531 12.828125 22 14.066406 22 15.5 C 22 17.035156 21.464844 18.332031 20.398438 19.398438 C 19.332031 20.464844 18.035156 21 16.5 21 C 16.351562 21 16.195312 20.996094 16.039062 20.988281 C 15.878906 20.980469 15.726562 20.957031 15.574219 20.925781 C 16.492188 20.324219 17.207031 19.546875 17.726562 18.585938 C 18.242188 17.628906 18.5 16.601562 18.5 15.5 C 18.5 13.683594 17.871094 12.144531 16.613281 10.886719 C 15.355469 9.628906 13.816406 9 12 9 C 10.183594 9 8.644531 9.628906 7.386719 10.886719 C 6.128906 12.144531 5.5 13.683594 5.5 15.5 C 5.5 16.632812 5.734375 17.699219 6.199219 18.699219 C 6.667969 19.699219 7.398438 20.441406 8.398438 20.925781 C 8.25 20.957031 8.097656 20.980469 7.9375 20.988281 C 7.777344 20.996094 7.625 21 7.476562 21 Z M 12 20 C 10.75 20 9.6875 19.5625 8.8125 18.6875 C 7.9375 17.8125 7.5 16.75 7.5 15.5 C 7.5 14.25 7.9375 13.1875 8.8125 12.3125 C 9.6875 11.4375 10.75 11 12 11 C 13.25 11 14.3125 11.4375 15.1875 12.3125 C 16.0625 13.1875 16.5 14.25 16.5 15.5 C 16.5 16.75 16.0625 17.8125 15.1875 18.6875 C 14.3125 19.5625 13.25 20 12 20 Z M 12 18 L 12.773438 16.273438 L 14.5 15.5 L 12.773438 14.726562 L 12 13 L 11.226562 14.726562 L 9.5 15.5 L 11.226562 16.273438 Z M 12 18 "/>
</g>
</svg>
