<?xml version="1.0" encoding="UTF-8"?>
<svg xmlns="http://www.w3.org/2000/svg" xmlns:xlink="http://www.w3.org/1999/xlink" width="24px" height="24px" viewBox="0 0 24 24" version="1.1">
<g id="surface1">
<path style=" stroke:none;fill-rule:nonzero;fill:rgb(0%,0%,0%);fill-opacity:1;" d="M 3 21 L 3 18 L 8 18 C 6.601562 17.25 5.5 16.207031 4.699219 14.875 C 3.898438 13.542969 3.5 12.082031 3.5 10.5 C 3.5 8.132812 4.324219 6.125 5.976562 4.476562 C 7.625 2.824219 9.632812 2 12 2 C 14.367188 2 16.375 2.824219 18.023438 4.476562 C 19.675781 6.125 20.5 8.132812 20.5 10.5 C 20.5 12.082031 20.101562 13.542969 19.300781 14.875 C 18.5 16.207031 17.398438 17.25 16 18 L 21 18 L 21 21 L 13 21 L 13 15.898438 C 14.300781 15.667969 15.375 15.042969 16.226562 14.023438 C 17.074219 13.007812 17.5 11.832031 17.5 10.5 C 17.5 8.964844 16.964844 7.667969 15.898438 6.601562 C 14.832031 5.535156 13.535156 5 12 5 C 10.464844 5 9.167969 5.535156 8.101562 6.601562 C 7.035156 7.667969 6.5 8.964844 6.5 10.5 C 6.5 11.832031 6.925781 13.007812 7.773438 14.023438 C 8.625 15.042969 9.699219 15.667969 11 15.898438 L 11 21 Z M 3 21 "/>
</g>
</svg>
