<?xml version="1.0" encoding="UTF-8"?>
<svg xmlns="http://www.w3.org/2000/svg" xmlns:xlink="http://www.w3.org/1999/xlink" width="24px" height="24px" viewBox="0 0 24 24" version="1.1">
<g id="surface1">
<path style=" stroke:none;fill-rule:nonzero;fill:rgb(0%,0%,0%);fill-opacity:1;" d="M 5 11 C 4.449219 11 3.980469 10.804688 3.585938 10.414062 C 3.195312 10.019531 3 9.550781 3 9 L 3 5 C 3 4.449219 3.195312 3.980469 3.585938 3.585938 C 3.980469 3.195312 4.449219 3 5 3 L 19 3 C 19.550781 3 20.019531 3.195312 20.414062 3.585938 C 20.804688 3.980469 21 4.449219 21 5 L 21 9 C 21 9.550781 20.804688 10.019531 20.414062 10.414062 C 20.019531 10.804688 19.550781 11 19 11 Z M 5 21 C 4.449219 21 3.980469 20.804688 3.585938 20.414062 C 3.195312 20.019531 3 19.550781 3 19 L 3 15 C 3 14.449219 3.195312 13.980469 3.585938 13.585938 C 3.980469 13.195312 4.449219 13 5 13 L 19 13 C 19.550781 13 20.019531 13.195312 20.414062 13.585938 C 20.804688 13.980469 21 14.449219 21 15 L 21 19 C 21 19.550781 20.804688 20.019531 20.414062 20.414062 C 20.019531 20.804688 19.550781 21 19 21 Z M 5 19 L 19 19 L 19 15 L 5 15 Z M 5 15 L 19 15 L 19 19 L 5 19 Z M 5 15 "/>
</g>
</svg>
