<?xml version="1.0" encoding="UTF-8"?>
<svg xmlns="http://www.w3.org/2000/svg" xmlns:xlink="http://www.w3.org/1999/xlink" width="24px" height="24px" viewBox="0 0 24 24" version="1.1">
<g id="surface1">
<path style=" stroke:none;fill-rule:nonzero;fill:rgb(0%,0%,0%);fill-opacity:1;" d="M 12 19.5 C 9.566406 19.5 7.351562 18.820312 5.351562 17.460938 C 3.351562 16.105469 1.898438 14.285156 1 12 C 1.898438 9.714844 3.351562 7.894531 5.351562 6.539062 C 7.351562 5.179688 9.566406 4.5 12 4.5 C 14.433594 4.5 16.648438 5.179688 18.648438 6.539062 C 20.648438 7.894531 22.101562 9.714844 23 12 C 22.101562 14.285156 20.648438 16.105469 18.648438 17.460938 C 16.648438 18.820312 14.433594 19.5 12 19.5 Z M 4 10.625 C 5.101562 9.625 6.335938 8.855469 7.710938 8.3125 C 9.085938 7.769531 10.515625 7.5 12 7.5 C 13.484375 7.5 14.914062 7.769531 16.289062 8.3125 C 17.664062 8.855469 18.898438 9.625 20 10.625 C 19.101562 9.339844 17.945312 8.332031 16.539062 7.601562 C 15.128906 6.867188 13.617188 6.5 12 6.5 C 10.382812 6.5 8.871094 6.867188 7.460938 7.601562 C 6.054688 8.332031 4.898438 9.339844 4 10.625 Z M 12 17.5 C 13.601562 17.5 15.085938 17.144531 16.460938 16.4375 C 17.835938 15.730469 18.984375 14.75 19.898438 13.5 C 19.417969 12.816406 18.867188 12.222656 18.25 11.710938 C 17.632812 11.203125 16.957031 10.785156 16.226562 10.449219 C 16.308594 10.683594 16.375 10.929688 16.425781 11.1875 C 16.476562 11.445312 16.5 11.714844 16.5 12 C 16.5 13.25 16.0625 14.3125 15.1875 15.1875 C 14.3125 16.0625 13.25 16.5 12 16.5 C 10.75 16.5 9.6875 16.0625 8.8125 15.1875 C 7.9375 14.3125 7.5 13.25 7.5 12 C 7.5 11.714844 7.523438 11.445312 7.574219 11.1875 C 7.625 10.929688 7.691406 10.683594 7.773438 10.449219 C 7.042969 10.785156 6.367188 11.207031 5.75 11.726562 C 5.132812 12.242188 4.582031 12.832031 4.101562 13.5 C 5.015625 14.75 6.164062 15.730469 7.539062 16.4375 C 8.914062 17.144531 10.398438 17.5 12 17.5 Z M 12 14.5 C 12.699219 14.5 13.292969 14.257812 13.773438 13.773438 C 14.257812 13.292969 14.5 12.699219 14.5 12 C 14.5 11.300781 14.257812 10.707031 13.773438 10.226562 C 13.292969 9.742188 12.699219 9.5 12 9.5 C 11.300781 9.5 10.707031 9.742188 10.226562 10.226562 C 9.742188 10.707031 9.5 11.300781 9.5 12 C 9.5 12.699219 9.742188 13.292969 10.226562 13.773438 C 10.707031 14.257812 11.300781 14.5 12 14.5 Z M 12 14.5 "/>
</g>
</svg>
