<?xml version="1.0" encoding="UTF-8"?>
<svg xmlns="http://www.w3.org/2000/svg" xmlns:xlink="http://www.w3.org/1999/xlink" width="24px" height="24px" viewBox="0 0 24 24" version="1.1">
<g id="surface1">
<path style=" stroke:none;fill-rule:nonzero;fill:rgb(0%,0%,0%);fill-opacity:1;" d="M 12.726562 18.5 L 15 17.125 L 17.273438 18.5 L 16.675781 15.898438 L 18.675781 14.175781 L 16.050781 13.949219 L 15 11.5 L 13.949219 13.949219 L 11.324219 14.175781 L 13.324219 15.898438 Z M 6 14 L 6 16 L 4 16 C 3.449219 16 2.980469 15.804688 2.585938 15.414062 C 2.195312 15.019531 2 14.550781 2 14 L 2 4 C 2 3.449219 2.195312 2.980469 2.585938 2.585938 C 2.980469 2.195312 3.449219 2 4 2 L 14 2 C 14.550781 2 15.019531 2.195312 15.414062 2.585938 C 15.804688 2.980469 16 3.449219 16 4 L 16 6 L 14 6 L 14 4 L 4 4 L 4 14 Z M 10 22 C 9.449219 22 8.980469 21.804688 8.585938 21.414062 C 8.195312 21.019531 8 20.550781 8 20 L 8 10 C 8 9.449219 8.195312 8.980469 8.585938 8.585938 C 8.980469 8.195312 9.449219 8 10 8 L 20 8 C 20.550781 8 21.019531 8.195312 21.414062 8.585938 C 21.804688 8.980469 22 9.449219 22 10 L 22 20 C 22 20.550781 21.804688 21.019531 21.414062 21.414062 C 21.019531 21.804688 20.550781 22 20 22 Z M 10 22 "/>
</g>
</svg>
