<?xml version="1.0" encoding="UTF-8"?>
<svg xmlns="http://www.w3.org/2000/svg" xmlns:xlink="http://www.w3.org/1999/xlink" width="24px" height="24px" viewBox="0 0 24 24" version="1.1">
<g id="surface1">
<path style=" stroke:none;fill-rule:nonzero;fill:rgb(0%,0%,0%);fill-opacity:1;" d="M 12 19 C 11.167969 19 10.457031 18.707031 9.875 18.125 C 9.292969 17.542969 9 16.832031 9 16 C 9 15.167969 9.292969 14.457031 9.875 13.875 C 10.457031 13.292969 11.167969 13 12 13 C 12.832031 13 13.542969 13.292969 14.125 13.875 C 14.707031 14.457031 15 15.167969 15 16 C 15 16.832031 14.707031 17.542969 14.125 18.125 C 13.542969 18.707031 12.832031 19 12 19 Z M 4.074219 12 C 4.308594 10.015625 5.175781 8.355469 6.675781 7.011719 C 8.175781 5.671875 9.941406 5 11.976562 5 C 13.191406 5 14.316406 5.246094 15.351562 5.738281 C 16.382812 6.230469 17.265625 6.898438 18 7.75 L 18 5 L 20 5 L 20 12 L 13 12 L 13 10 L 17.199219 10 C 16.667969 9.101562 15.945312 8.375 15.039062 7.824219 C 14.128906 7.273438 13.117188 7 12 7 C 10.535156 7 9.242188 7.476562 8.125 8.425781 C 7.007812 9.375 6.332031 10.566406 6.101562 12 Z M 4.074219 12 "/>
</g>
</svg>
