<?xml version="1.0" encoding="UTF-8"?>
<svg xmlns="http://www.w3.org/2000/svg" xmlns:xlink="http://www.w3.org/1999/xlink" width="24px" height="24px" viewBox="0 0 24 24" version="1.1">
<g id="surface1">
<path style=" stroke:none;fill-rule:nonzero;fill:rgb(0%,0%,0%);fill-opacity:1;" d="M 14 17 L 14 9 C 14 8.714844 14.097656 8.480469 14.289062 8.289062 C 14.480469 8.097656 14.714844 8 15 8 L 22 8 C 22.285156 8 22.519531 8.097656 22.710938 8.289062 C 22.902344 8.480469 23 8.714844 23 9 L 23 14 C 23 14.285156 22.902344 14.519531 22.710938 14.710938 C 22.519531 14.902344 22.285156 15 22 15 L 16 15 Z M 7 23 C 6.449219 23 5.980469 22.804688 5.585938 22.414062 C 5.195312 22.019531 5 21.550781 5 21 L 5 3 C 5 2.449219 5.195312 1.980469 5.585938 1.585938 C 5.980469 1.195312 6.449219 1 7 1 L 17 1 C 17.550781 1 18.019531 1.195312 18.414062 1.585938 C 18.804688 1.980469 19 2.449219 19 3 L 19 7 L 17 7 L 17 6 L 7 6 L 7 18 L 17 18 L 17 17 L 19 17 L 19 21 C 19 21.550781 18.804688 22.019531 18.414062 22.414062 C 18.019531 22.804688 17.550781 23 17 23 Z M 7 23 "/>
</g>
</svg>
