<?xml version="1.0" encoding="UTF-8"?>
<svg xmlns="http://www.w3.org/2000/svg" xmlns:xlink="http://www.w3.org/1999/xlink" width="24px" height="24px" viewBox="0 0 24 24" version="1.1">
<g id="surface1">
<path style=" stroke:none;fill-rule:nonzero;fill:rgb(0%,0%,0%);fill-opacity:1;" d="M 11.925781 22 C 10.542969 22 9.242188 21.738281 8.023438 21.210938 C 6.808594 20.6875 5.75 19.976562 4.851562 19.074219 C 3.949219 18.175781 3.238281 17.117188 2.710938 15.898438 C 2.1875 14.683594 1.925781 13.382812 1.925781 12 C 1.925781 10.617188 2.1875 9.316406 2.710938 8.101562 C 3.238281 6.882812 3.949219 5.824219 4.851562 4.925781 C 5.75 4.023438 6.808594 3.3125 8.023438 2.789062 C 9.242188 2.261719 10.542969 2 11.925781 2 C 13.308594 2 14.609375 2.261719 15.824219 2.789062 C 17.042969 3.3125 18.101562 4.023438 19 4.925781 C 19.898438 5.824219 20.613281 6.882812 21.136719 8.101562 C 21.664062 9.316406 21.925781 10.617188 21.925781 12 C 21.925781 13.382812 21.664062 14.683594 21.136719 15.898438 C 20.613281 17.117188 19.898438 18.175781 19 19.074219 C 18.101562 19.976562 17.042969 20.6875 15.824219 21.210938 C 14.609375 21.738281 13.308594 22 11.925781 22 Z M 14.199219 19.675781 C 15.5 19.292969 16.628906 18.621094 17.585938 17.664062 C 18.546875 16.703125 19.214844 15.574219 19.601562 14.273438 Z M 4.273438 9.648438 L 9.574219 4.351562 C 8.292969 4.734375 7.183594 5.390625 6.25 6.324219 C 5.316406 7.257812 4.660156 8.367188 4.273438 9.648438 Z M 4.175781 14.050781 L 13.976562 4.273438 C 13.773438 4.226562 13.574219 4.183594 13.375 4.148438 C 13.175781 4.117188 12.964844 4.082031 12.75 4.050781 L 3.976562 12.824219 C 4.007812 13.042969 4.039062 13.25 4.0625 13.449219 C 4.085938 13.648438 4.125 13.851562 4.175781 14.050781 Z M 5.601562 16.898438 L 16.824219 5.648438 C 16.691406 5.550781 16.554688 5.449219 16.414062 5.351562 C 16.269531 5.25 16.125 5.160156 15.976562 5.074219 L 5 16.050781 C 5.082031 16.199219 5.175781 16.347656 5.273438 16.488281 C 5.375 16.628906 5.484375 16.765625 5.601562 16.898438 Z M 7.875 18.925781 L 18.824219 7.949219 C 18.742188 7.800781 18.648438 7.652344 18.550781 7.511719 C 18.449219 7.371094 18.351562 7.234375 18.25 7.101562 L 7.023438 18.351562 C 7.160156 18.449219 7.296875 18.550781 7.4375 18.648438 C 7.578125 18.75 7.726562 18.839844 7.875 18.925781 Z M 11.101562 19.949219 L 19.875 11.175781 C 19.839844 10.957031 19.808594 10.75 19.773438 10.550781 C 19.742188 10.351562 19.699219 10.148438 19.648438 9.949219 L 9.875 19.726562 C 10.074219 19.773438 10.273438 19.816406 10.476562 19.851562 C 10.675781 19.882812 10.882812 19.917969 11.101562 19.949219 Z M 11.101562 19.949219 "/>
</g>
</svg>
