<?xml version="1.0" encoding="UTF-8"?>
<svg xmlns="http://www.w3.org/2000/svg" xmlns:xlink="http://www.w3.org/1999/xlink" width="24px" height="24px" viewBox="0 0 24 24" version="1.1">
<g id="surface1">
<path style=" stroke:none;fill-rule:nonzero;fill:rgb(0%,0%,0%);fill-opacity:1;" d="M 19 23 L 17.601562 21.601562 L 19.175781 20 L 15 20 L 15 18 L 19.175781 18 L 17.601562 16.398438 L 19 15 L 23 19 Z M 5 21 C 4.449219 21 3.980469 20.804688 3.585938 20.414062 C 3.195312 20.019531 3 19.550781 3 19 L 3 5 C 3 4.449219 3.195312 3.980469 3.585938 3.585938 C 3.980469 3.195312 4.449219 3 5 3 L 19 3 C 19.550781 3 20.019531 3.195312 20.414062 3.585938 C 20.804688 3.980469 21 4.449219 21 5 L 21 13.351562 C 20.683594 13.234375 20.355469 13.144531 20.011719 13.085938 C 19.671875 13.027344 19.324219 13 18.976562 13 C 17.308594 13 15.894531 13.582031 14.738281 14.75 C 13.578125 15.917969 13 17.332031 13 19 C 13 19.351562 13.027344 19.691406 13.085938 20.023438 C 13.144531 20.359375 13.234375 20.683594 13.351562 21 Z M 11 17 L 13 17 L 13 13 L 17 13 L 17 11 L 13 11 L 13 7 L 11 7 L 11 11 L 7 11 L 7 13 L 11 13 Z M 11 17 "/>
</g>
</svg>
