<svg xmlns="http://www.w3.org/2000/svg" width="24" height="24" viewBox="0 0 24 24"><path d="M17 22q-2.075 0-3.538-1.463T12 17q0-2.075 1.463-3.538T17 12q2.075 0 3.538 1.463T22 17q0 2.075-1.463 3.538T17 22Zm0-2q.275 0 .463-.188t.187-.462q0-.275-.187-.463T17 18.7q-.275 0-.463.188t-.187.462q0 .275.188.463T17 20Zm-.45-1.9h.9v-.25q0-.275.15-.488t.35-.412q.35-.3.55-.575t.2-.775q0-.725-.475-1.163T17 14q-.575 0-1.038.338t-.662.912l.8.35q.075-.3.313-.525T17 14.85q.375 0 .588.188t.212.562q0 .275-.15.463t-.35.387q-.15.15-.313.3t-.287.35q-.075.15-.113.3t-.037.35v.35ZM12 9h5l-5-5l5 5l-5-5v5ZM5 22q-.825 0-1.413-.588T3 20V4q0-.825.588-1.413T5 2h8l6 6v2.3q-.5-.15-1-.225T17 10q-1.425 0-2.688.538T12.1 12H7v2h3.675q-.225.475-.375.975T10.075 16H7v2h3.075q.175 1.125.7 2.163T12.125 22H5Z"/></svg>