<svg xmlns="http://www.w3.org/2000/svg" width="24" height="24" viewBox="0 0 24 24"><path fill="currentColor" d="M12 22q-2.075 0-3.9-.788t-3.175-2.137q-1.35-1.35-2.137-3.175T2 12q0-2.075.788-3.9t2.137-3.175q1.35-1.35 3.175-2.137T12 2q2.075 0 3.9.788t3.175 2.137q1.35 1.35 2.138 3.175T22 12q0 2.075-.788 3.9t-2.137 3.175q-1.35 1.35-3.175 2.138T12 22Zm0-2q3.35 0 5.675-2.325T20 12q0-1.6-.613-3.063T17.65 6.35l-11.3 11.3q1.125 1.125 2.588 1.738T12 20Zm0-4v-1.5h5V16h-5Zm-4-4.5h1.5v-2h2V8h-2V6H8v2H6v1.5h2v2Z"/></svg>