<svg xmlns="http://www.w3.org/2000/svg" width="24" height="24" viewBox="0 0 24 24"><path fill="currentColor" d="M2 22v-2q1.15 0 2.275-.15t2.2-.55q-1.15-.575-1.812-1.663T4 15.275V13h4v-3h3.375L8.1 3.45l1.8-.9l3.275 6.55q.5 1-.075 1.95t-1.7.95H10v1q0 .825-.587 1.413T8 15H6v.275q0 .875.537 1.538T7.9 17.7l.3.075q1 .25 1.125 1.25t-.775 1.5q-1.5.825-3.163 1.15T2 22Zm14.3-2.85l-1.425-1.4q.525-.525.825-1.213t.3-1.487q0-.8-.3-1.488t-.825-1.212l1.425-1.425q.8.8 1.25 1.863T18 15.05q0 1.2-.45 2.25t-1.25 1.85ZM19.125 22L17.7 20.575q1.075-1.075 1.688-2.488T20 15.05q0-1.65-.613-3.05T17.7 9.525L19.125 8.1q1.35 1.35 2.113 3.125T22 15.05q0 2.025-.763 3.813T19.126 22Z"/></svg>