<svg xmlns="http://www.w3.org/2000/svg" width="24" height="24" viewBox="0 0 24 24"><path fill="currentColor" d="m18 21l3-3l-.7-.7l-1.8 1.8V15h-1v4.1l-1.8-1.8l-.7.7l3 3ZM10 6h4V4h-4v2Zm8 17q-2.075 0-3.538-1.463T13 18q0-2.075 1.463-3.538T18 13q2.075 0 3.538 1.463T23 18q0 2.075-1.463 3.538T18 23ZM4 21q-.825 0-1.413-.588T2 19V8q0-.825.588-1.413T4 6h4V4q0-.825.588-1.413T10 2h4q.825 0 1.413.588T16 4v2h4q.825 0 1.413.588T22 8v4.275q-.875-.625-1.9-.95T18 11q-2.9 0-4.95 2.05T11 18q0 .775.163 1.538T11.675 21H4Z"/></svg>