<svg xmlns="http://www.w3.org/2000/svg" width="600" height="600" viewBox="0 0 600 600" role="img" aria-label="Solar System Map">
<defs><style><![CDATA[text{font-family:Arial,system-ui,Segoe UI,Roboto,sans-serif}]]></style></defs>
<rect x="0" y="0" width="600" height="600" fill="#000033"/>
<circle cx="300.0" cy="300.0" r="15" fill="#FFD700" stroke="#FFA500" stroke-width="2"/>
<circle cx="300.0" cy="300.0" r="251.34" fill="none" stroke="rgba(102,204,255,0.35)" stroke-width="1"/>
<circle cx="300.0" cy="300.0" r="287.78" fill="none" stroke="rgba(102,204,255,0.35)" stroke-width="1"/>
<circle cx="300.0" cy="300.0" r="269.56" fill="none" stroke="rgba(102,204,255,0.22)" stroke-width="36"/>
<text x="300.0" y="2.22" fill="#66CCFF" font-size="11" text-anchor="middle">Kuiper Belt (30–50 AU)</text>
<line x1="300.0" y1="300.0" x2="300.00" y2="570.00" stroke="#555" stroke-dasharray="6,4" stroke-width="1"/>
<text x="300.00" y="582.00" fill="#FFFFFF" font-size="10" text-anchor="middle">Jan</text>
<line x1="300.0" y1="300.0" x2="435.00" y2="533.83" stroke="#555" stroke-dasharray="6,4" stroke-width="1"/>
<text x="441.00" y="544.22" fill="#FFFFFF" font-size="10" text-anchor="middle">Feb</text>
<line x1="300.0" y1="300.0" x2="533.83" y2="435.00" stroke="#555" stroke-dasharray="6,4" stroke-width="1"/>
<text x="544.22" y="441.00" fill="#FFFFFF" font-size="10" text-anchor="middle">Mar</text>
<line x1="300.0" y1="300.0" x2="570.00" y2="300.00" stroke="#555" stroke-dasharray="6,4" stroke-width="1"/>
<text x="582.00" y="300.00" fill="#FFFFFF" font-size="10" text-anchor="middle">Apr</text>
<line x1="300.0" y1="300.0" x2="533.83" y2="165.00" stroke="#555" stroke-dasharray="6,4" stroke-width="1"/>
<text x="544.22" y="159.00" fill="#FFFFFF" font-size="10" text-anchor="middle">May</text>
<line x1="300.0" y1="300.0" x2="435.00" y2="66.17" stroke="#555" stroke-dasharray="6,4" stroke-width="1"/>
<text x="441.00" y="55.78" fill="#FFFFFF" font-size="10" text-anchor="middle">Jun</text>
<line x1="300.0" y1="300.0" x2="300.00" y2="30.00" stroke="#555" stroke-dasharray="6,4" stroke-width="1"/>
<text x="300.00" y="18.00" fill="#FFFFFF" font-size="10" text-anchor="middle">Jul</text>
<line x1="300.0" y1="300.0" x2="165.00" y2="66.17" stroke="#555" stroke-dasharray="6,4" stroke-width="1"/>
<text x="159.00" y="55.78" fill="#FFFFFF" font-size="10" text-anchor="middle">Aug</text>
<line x1="300.0" y1="300.0" x2="66.17" y2="165.00" stroke="#555" stroke-dasharray="6,4" stroke-width="1"/>
<text x="55.78" y="159.00" fill="#FFFFFF" font-size="10" text-anchor="middle">Sep</text>
<line x1="300.0" y1="300.0" x2="30.00" y2="300.00" stroke="#555" stroke-dasharray="6,4" stroke-width="1"/>
<text x="18.00" y="300.00" fill="#FFFFFF" font-size="10" text-anchor="middle">Oct</text>
<line x1="300.0" y1="300.0" x2="66.17" y2="435.00" stroke="#555" stroke-dasharray="6,4" stroke-width="1"/>
<text x="55.78" y="441.00" fill="#FFFFFF" font-size="10" text-anchor="middle">Nov</text>
<line x1="300.0" y1="300.0" x2="165.00" y2="533.83" stroke="#555" stroke-dasharray="6,4" stroke-width="1"/>
<text x="159.00" y="544.22" fill="#FFFFFF" font-size="10" text-anchor="middle">Dec</text>
<circle cx="300.0" cy="300.0" r="50.13" fill="none" stroke="#4A90E2" stroke-width="1" stroke-dasharray="4,2"/>
<circle cx="350.09" cy="297.94" r="8" fill="#4A90E2" stroke="#FFFFFF" stroke-width="2"/>
<path d="M 350.09 267.94 L 345.09 257.94 L 355.09 257.94 Z" fill="#FFD700" stroke="#FFFFFF" stroke-width="1"/>
<text x="350.09" y="267.94" fill="#FFD700" font-size="12" font-weight="bold" text-anchor="middle">⊕ Earth - You are here</text>
<circle cx="300.0" cy="300.0" r="27.37" fill="none" stroke="#444" stroke-width="0.6"/>
<circle cx="279.07" cy="282.37" r="5" fill="#8C7853" stroke="#FFFFFF" stroke-width="1"/>
<text x="279.07" y="272.37" fill="#FFFFFF" font-size="10" text-anchor="middle">☿ Mercury</text>
<circle cx="300.0" cy="300.0" r="39.86" fill="none" stroke="#444" stroke-width="0.6"/>
<circle cx="269.81" cy="273.97" r="5" fill="#FFC649" stroke="#FFFFFF" stroke-width="1"/>
<text x="269.81" y="263.97" fill="#FFFFFF" font-size="10" text-anchor="middle">♀ Venus</text>
<circle cx="300.0" cy="300.0" r="70.44" fill="none" stroke="#444" stroke-width="0.6"/>
<circle cx="275.17" cy="234.08" r="5" fill="#CD5C5C" stroke="#FFFFFF" stroke-width="1"/>
<text x="275.17" y="224.08" fill="#FFFFFF" font-size="10" text-anchor="middle">♂ Mars</text>
<circle cx="300.0" cy="300.0" r="133.93" fill="none" stroke="#444" stroke-width="0.6"/>
<circle cx="422.38" cy="245.57" r="5" fill="#DAA520" stroke="#FFFFFF" stroke-width="1"/>
<text x="422.38" y="235.57" fill="#FFFFFF" font-size="10" text-anchor="middle">♃ Jupiter</text>
<circle cx="300.0" cy="300.0" r="168.71" fill="none" stroke="#444" stroke-width="0.6"/>
<circle cx="467.24" cy="277.78" r="5" fill="#F4A460" stroke="#FFFFFF" stroke-width="1"/>
<text x="467.24" y="267.78" fill="#FFFFFF" font-size="10" text-anchor="middle">♄ Saturn</text>
<circle cx="300.0" cy="300.0" r="218.63" fill="none" stroke="#444" stroke-width="0.6"/>
<circle cx="106.93" cy="197.42" r="5" fill="#4FD0E2" stroke="#FFFFFF" stroke-width="1"/>
<text x="106.93" y="187.42" fill="#FFFFFF" font-size="10" text-anchor="middle">♅ Uranus</text>
<circle cx="300.0" cy="300.0" r="250.88" fill="none" stroke="#444" stroke-width="0.6"/>
<circle cx="489.79" cy="464.07" r="5" fill="#4169E1" stroke="#FFFFFF" stroke-width="1"/>
<text x="489.79" y="454.07" fill="#FFFFFF" font-size="10" text-anchor="middle">♆ Neptune</text>
<circle cx="300.0" cy="300.0" r="273.26" fill="none" stroke="#444" stroke-width="0.6"/>
<circle cx="553.05" cy="196.84" r="5" fill="#9B870C" stroke="#FFFFFF" stroke-width="1"/>
<text x="553.05" y="186.84" fill="#FFFFFF" font-size="10" text-anchor="middle">♇ Pluto (Dwarf Planet)</text>
<circle cx="300.0" cy="300.0" r="399.13" fill="none" stroke="#444" stroke-width="0.6"/>
<circle cx="-75.06" cy="436.51" r="5" fill="#00D1B2" stroke="#FFFFFF" stroke-width="1"/>
<text x="-75.06" y="426.51" fill="#FFFFFF" font-size="10" text-anchor="middle">🛰 Voyager 1</text>
<circle cx="300.0" cy="300.0" r="388.09" fill="none" stroke="#444" stroke-width="0.6"/>
<circle cx="-17.90" cy="522.60" r="5" fill="#00A3A3" stroke="#FFFFFF" stroke-width="1"/>
<text x="-17.90" y="512.60" fill="#FFFFFF" font-size="10" text-anchor="middle">🛰 Voyager 2</text>
<text x="10" y="590" fill="#FFFFFF" font-size="11">Sun at center · January at top · Scale: logarithmic</text>
</svg>