<?xml version="1.0" encoding="UTF-8" standalone="no"?>
<svg
   height="24"
   viewBox="0 0 24 24"
   width="24"
   version="1.1"
   id="svg4"
   sodipodi:docname="ad-group-off-rounded.svg"
   inkscape:version="1.2.1 (9c6d41e410, 2022-07-14)"
   xmlns:inkscape="http://www.inkscape.org/namespaces/inkscape"
   xmlns:sodipodi="http://sodipodi.sourceforge.net/DTD/sodipodi-0.dtd"
   xmlns="http://www.w3.org/2000/svg"
   xmlns:svg="http://www.w3.org/2000/svg">
  <defs
     id="defs8" />
  <sodipodi:namedview
     id="namedview6"
     pagecolor="#ffffff"
     bordercolor="#000000"
     borderopacity="0.25"
     inkscape:showpageshadow="2"
     inkscape:pageopacity="0.0"
     inkscape:pagecheckerboard="0"
     inkscape:deskcolor="#d1d1d1"
     showgrid="false"
     inkscape:zoom="9.8333333"
     inkscape:cx="12"
     inkscape:cy="12"
     inkscape:window-width="3840"
     inkscape:window-height="2454"
     inkscape:window-x="-11"
     inkscape:window-y="-11"
     inkscape:window-maximized="1"
     inkscape:current-layer="svg4" />
  <path
     d="M 20.7,17.875 18.825,16 H 20 V 6 H 8.825 L 6.125,3.3 Q 6.325,2.7 6.8375,2.35 7.35,2 8,2 H 20 Q 20.825,2 21.4125,2.5875 22,3.175 22,4 v 12 q 0,0.65 -0.35,1.1625 Q 21.3,17.675 20.7,17.875 Z M 8,18 Q 7.175,18 6.5875,17.4125 6,16.825 6,16 V 8.8 L 1.4,4.2 Q 1.125,3.925 1.125,3.5 1.125,3.075 1.4,2.8 1.675,2.525 2.1,2.525 q 0.425,0 0.7,0.275 l 18.4,18.4 q 0.275,0.275 0.275,0.7 0,0.425 -0.275,0.7 -0.275,0.275 -0.7,0.275 -0.425,0 -0.7,-0.275 L 15.2,18 Z m 0,-2 h 5.2 L 8,10.8 Z M 4,22 Q 3.175,22 2.5875,21.4125 2,20.825 2,20 V 7 Q 2,6.575 2.2875,6.2875 2.575,6 3,6 3.425,6 3.7125,6.2875 4,6.575 4,7 v 13 h 13 q 0.425,0 0.7125,0.2875 Q 18,20.575 18,21 18,21.425 17.7125,21.7125 17.425,22 17,22 Z m 6.625,-8.575 z m 2.85,-2.775 z"
     id="path2"
     style="stroke-width:0.025" />
</svg>
