<svg xmlns="http://www.w3.org/2000/svg" width="24" height="24" viewBox="0 0 24 24"><path fill="currentColor" d="M8 17q-.425 0-.713-.288T7 16v-1q0-.425.288-.713T8 14h8q.425 0 .713.288T17 15v1q0 .425-.288.713T16 17H8Zm0-7q-.425 0-.713-.288T7 9V8q0-.425.288-.713T8 7h8q.425 0 .713.288T17 8v1q0 .425-.288.713T16 10H8ZM3 22q-.425 0-.713-.288T2 21q0-.425.288-.713T3 20h18q.425 0 .713.288T22 21q0 .425-.288.713T21 22H3ZM3 4q-.425 0-.713-.288T2 3q0-.425.288-.713T3 2h18q.425 0 .713.288T22 3q0 .425-.288.713T21 4H3Z"/></svg>