<svg xmlns="http://www.w3.org/2000/svg" width="24" height="24" viewBox="0 0 24 24"><path fill="currentColor" d="M8 18q-.425 0-.713-.288T7 17v-1q0-.425.288-.713T8 15h8q.425 0 .713.288T17 16v1q0 .425-.288.713T16 18H8Zm0-9q-.425 0-.713-.288T7 8V7q0-.425.288-.713T8 6h8q.425 0 .713.288T17 7v1q0 .425-.288.713T16 9H8ZM3 22q-.425 0-.713-.288T2 21q0-.425.288-.713T3 20h18q.425 0 .713.288T22 21q0 .425-.288.713T21 22H3ZM3 4q-.425 0-.713-.288T2 3q0-.425.288-.713T3 2h18q.425 0 .713.288T22 3q0 .425-.288.713T21 4H3Z"/></svg>