<svg xmlns="http://www.w3.org/2000/svg" width="24" height="24" viewBox="0 0 24 24"><path fill="currentColor" d="M8 18q-.425 0-.713-.288T7 17V7q0-.425.288-.713T8 6h1q.425 0 .713.288T10 7v10q0 .425-.288.713T9 18H8Zm7 0q-.425 0-.713-.288T14 17V7q0-.425.288-.713T15 6h1q.425 0 .713.288T17 7v10q0 .425-.288.713T16 18h-1ZM3 22q-.425 0-.713-.288T2 21q0-.425.288-.713T3 20h18q.425 0 .713.288T22 21q0 .425-.288.713T21 22H3ZM3 4q-.425 0-.713-.288T2 3q0-.425.288-.713T3 2h18q.425 0 .713.288T22 3q0 .425-.288.713T21 4H3Z"/></svg>