<svg xmlns="http://www.w3.org/2000/svg" width="24" height="24" viewBox="0 0 24 24"><path fill="currentColor" d="M11 3V1q0-.425.288-.713T12 0q.425 0 .713.288T13 1v2q0 .425-.288.713T12 4q-.425 0-.713-.288T11 3ZM5.875 4.7L4.3 3.125q-.3-.3-.3-.713t.3-.712q.3-.3.7-.3t.7.3l1.6 1.6q.3.3.3.7t-.3.7Q7 5 6.588 5t-.713-.3ZM4 23q-.425 0-.713-.288T3 22v-7.65q0-.175.025-.35t.075-.325L5.1 8q.15-.45.537-.725T6.5 7H9V6q0-.425.288-.712T10 5h2.275q-.6.85-.938 1.863T11 9H6.85l-1.475 4h6.9q.425.6.95 1.113T14.4 15H5v4h14v-3.075q.525-.075 1.025-.225t.975-.375V22q0 .425-.288.713T20 23h-1q-.425 0-.713-.288T18 22v-1H6v1q0 .425-.288.713T5 23H4Zm5-5q.425 0 .713-.288T10 17q0-.425-.288-.713T9 16H6.5q-.2 0-.35.15T6 16.5v1q0 .2.15.35t.35.15H9Zm6 0h2.5q.2 0 .35-.15t.15-.35v-1q0-.2-.15-.35T17.5 16H15q-.425 0-.713.288T14 17q0 .425.288.713T15 18ZM5 15v4v-4Zm12.275-5.875l-.45-.45q-.225-.225-.525-.213t-.525.238q-.225.225-.225.525t.225.525l.8.8q.3.3.7.3t.7-.3l2.25-2.225q.225-.225.225-.525t-.225-.525Q20 7.05 19.7 7.063t-.525.212l-1.9 1.85ZM18 4q2.075 0 3.538 1.463T23 9q0 2.075-1.463 3.538T18 14q-2.075 0-3.538-1.463T13 9q0-2.075 1.463-3.538T18 4Z"/></svg>