<?xml version="1.0" encoding="UTF-8" standalone="no"?>
<svg
   height="24"
   viewBox="0 0 24 24"
   width="24"
   version="1.1"
   id="svg4"
   sodipodi:docname="app-promo-rounded.svg"
   inkscape:version="1.2.1 (9c6d41e410, 2022-07-14)"
   xmlns:inkscape="http://www.inkscape.org/namespaces/inkscape"
   xmlns:sodipodi="http://sodipodi.sourceforge.net/DTD/sodipodi-0.dtd"
   xmlns="http://www.w3.org/2000/svg"
   xmlns:svg="http://www.w3.org/2000/svg">
  <defs
     id="defs8" />
  <sodipodi:namedview
     id="namedview6"
     pagecolor="#ffffff"
     bordercolor="#000000"
     borderopacity="0.25"
     inkscape:showpageshadow="2"
     inkscape:pageopacity="0.0"
     inkscape:pagecheckerboard="0"
     inkscape:deskcolor="#d1d1d1"
     showgrid="false"
     inkscape:zoom="9.8333333"
     inkscape:cx="12"
     inkscape:cy="12"
     inkscape:window-width="3840"
     inkscape:window-height="2454"
     inkscape:window-x="-11"
     inkscape:window-y="-11"
     inkscape:window-maximized="1"
     inkscape:current-layer="svg4" />
  <path
     d="M 11,11.15 V 8 Q 11,7.575 11.2875,7.2875 11.575,7 12,7 12.425,7 12.7125,7.2875 13,7.575 13,8 v 3.15 l 0.9,-0.875 Q 14.175,10 14.5875,10 15,10 15.3,10.3 q 0.275,0.275 0.275,0.7 0,0.425 -0.275,0.7 l -2.6,2.6 q -0.3,0.3 -0.7,0.3 -0.4,0 -0.7,-0.3 L 8.7,11.7 Q 8.425,11.425 8.4125,11.0125 8.4,10.6 8.7,10.3 8.975,10.025 9.3875,10.0125 9.8,10 10.1,10.275 Z M 7,23 Q 6.175,23 5.5875,22.4125 5,21.825 5,21 V 3 Q 5,2.175 5.5875,1.5875 6.175,1 7,1 H 17 Q 17.825,1 18.4125,1.5875 19,2.175 19,3 v 18 q 0,0.825 -0.5875,1.4125 Q 17.825,23 17,23 Z m 0,-5 v 3 H 17 V 18 Z M 7,16 H 17 V 6 H 7 Z M 7,4 H 17 V 3 H 7 Z m 0,14 v 3 z M 7,4 V 3 Z m 3.5,16 h 3 q 0.2,0 0.35,-0.15 Q 14,19.7 14,19.5 14,19.3 13.85,19.15 13.7,19 13.5,19 h -3 Q 10.3,19 10.15,19.15 10,19.3 10,19.5 10,19.7 10.15,19.85 10.3,20 10.5,20 Z"
     id="path2"
     style="stroke-width:0.025" />
</svg>
