<svg xmlns="http://www.w3.org/2000/svg" width="24" height="24" viewBox="0 0 24 24"><path fill="currentColor" d="M12 12Zm7 9h-8q-.425 0-.713-.288T10 20q0-.425.288-.713T11 19h8V5H5v3q0 .425-.288.713T4 9q-.425 0-.713-.288T3 8V5q0-.825.588-1.413T5 3h14q.825 0 1.413.588T21 5v14q0 .825-.588 1.413T19 21Zm-3-8q.425 0 .713-.288T17 12q0-.425-.288-.713T16 11h-5q-.425 0-.713.288T10 12q0 .425.288.713T11 13h5Zm-3 4q.425 0 .713-.288T14 16q0-.425-.288-.713T13 15h-2q-.425 0-.713.288T10 16q0 .425.288.713T11 17h2Zm3-8q.425 0 .713-.288T17 8q0-.425-.288-.713T16 7H8q-.425 0-.713.288T7 8q0 .425.288.713T8 9h8ZM6.625 22q-1.975 0-3.363-1.388T1.875 17.25q0-1.425.738-2.55T4.55 13H3q-.425 0-.713-.288T2 12q0-.425.288-.713T3 11h4q.425 0 .713.288T8 12v4q0 .425-.288.713T7 17q-.425 0-.713-.288T6 16v-1.425q-.925.2-1.525.95t-.6 1.725q0 1.15.812 1.95t1.938.8q.425 0 .713.288t.287.712q0 .425-.288.713T6.626 22Z"/></svg>