<?xml version="1.0" encoding="UTF-8" standalone="no"?>
<svg
   height="24"
   viewBox="0 0 24 24"
   width="24"
   version="1.1"
   id="svg4"
   sodipodi:docname="auto-meeting-room-rounded.svg"
   inkscape:version="1.2.1 (9c6d41e410, 2022-07-14)"
   xmlns:inkscape="http://www.inkscape.org/namespaces/inkscape"
   xmlns:sodipodi="http://sodipodi.sourceforge.net/DTD/sodipodi-0.dtd"
   xmlns="http://www.w3.org/2000/svg"
   xmlns:svg="http://www.w3.org/2000/svg">
  <defs
     id="defs8" />
  <sodipodi:namedview
     id="namedview6"
     pagecolor="#ffffff"
     bordercolor="#000000"
     borderopacity="0.25"
     inkscape:showpageshadow="2"
     inkscape:pageopacity="0.0"
     inkscape:pagecheckerboard="0"
     inkscape:deskcolor="#d1d1d1"
     showgrid="false"
     inkscape:zoom="9.8333333"
     inkscape:cx="12"
     inkscape:cy="12"
     inkscape:window-width="3840"
     inkscape:window-height="2454"
     inkscape:window-x="-11"
     inkscape:window-y="-11"
     inkscape:window-maximized="1"
     inkscape:current-layer="svg4" />
  <path
     d="M 3.0657277,18.737705 V 4.9672131 q 0,-0.8114754 0.6068075,-1.3893442 Q 4.2793427,3 5.1314554,3 h 7.2300466 q 0.438967,0 0.735916,0.2827869 0.296948,0.2827869 0.296948,0.7008197 h 2.065728 q 0.852113,0 1.45892,0.5778688 0.606808,0.5778689 0.606808,1.3893443 v 4.9180323 q 0,0.418033 -0.296949,0.70082 -0.296948,0.282787 -0.735915,0.282787 -0.438967,0 -0.735916,-0.282787 -0.296948,-0.282787 -0.296948,-0.70082 V 5.9508197 H 13.394366 V 19.721311 q 0,0.418033 -0.296948,0.70082 -0.296949,0.282787 -0.735916,0.282787 H 2.0328638 q -0.4389671,0 -0.7359154,-0.282787 Q 1,20.139344 1,19.721311 1,19.303279 1.2969484,19.020492 1.5938967,18.737705 2.0328638,18.737705 Z m 6.1971831,-5.901639 q 0.4389671,0 0.7359155,-0.282787 0.2969487,-0.282787 0.2969487,-0.70082 0,-0.418033 -0.2969487,-0.70082 -0.2969484,-0.282787 -0.7359155,-0.282787 -0.4389671,0 -0.7359155,0.282787 -0.2969484,0.282787 -0.2969484,0.70082 0,0.418033 0.2969484,0.70082 0.2969484,0.282787 0.7359155,0.282787 z M 5.1314554,18.737705 H 11.328638 V 4.9672131 H 5.1314554 Z m 13.1690136,0.245902 0.826292,1.721311 Q 19.255869,21 19.591549,21 q 0.335681,0 0.464789,-0.295082 l 0.826291,-1.721311 1.807512,-0.786886 Q 23,18.07377 23,17.754098 23,17.434426 22.690141,17.311475 L 20.882629,16.52459 20.056338,14.803279 q -0.129108,-0.295082 -0.464789,-0.295082 -0.33568,0 -0.464788,0.295082 l -0.826292,1.721311 -1.807511,0.786885 q -0.309859,0.122951 -0.309859,0.442623 0,0.319672 0.309859,0.442623 z M 5.1314554,18.737705 V 4.9672131 Z"
     id="path2"
     style="stroke-width:0.0251984" />
</svg>
