<svg xmlns="http://www.w3.org/2000/svg" width="24" height="24" viewBox="0 0 24 24"><path fill="currentColor" d="m15.35 20l-1.95 1.925q-.575.575-1.4.575t-1.4-.575L8.65 20H6q-.825 0-1.413-.588T4 18v-2.65L2.075 13.4Q1.5 12.825 1.5 12t.575-1.4L4 8.65V6q0-.825.588-1.413T6 4h2.65l1.95-1.925Q11.175 1.5 12 1.5t1.4.575L15.35 4H18q.825 0 1.413.588T20 6v2.65l1.925 1.95q.575.575.575 1.4t-.575 1.4L20 15.35V18q0 .825-.588 1.413T18 20h-2.65ZM12 12Zm0 8.5l2.5-2.5H18v-3.5l2.5-2.5L18 9.5V6h-3.5L12 3.5L9.5 6H6v3.5L3.5 12L6 14.5V18h3.5l2.5 2.5Zm0-6.025l1.9 1.15q.275.175.55-.013t.2-.512l-.5-2.175l1.7-1.475q.25-.225.15-.537t-.45-.338l-2.225-.175l-.875-2.05q-.125-.3-.45-.3t-.45.3l-.875 2.05l-2.225.175q-.35.025-.45.338t.15.537l1.7 1.475l-.5 2.175q-.075.325.2.513t.55.012l1.9-1.15Z"/></svg>