<svg xmlns="http://www.w3.org/2000/svg" width="24" height="24" viewBox="0 0 24 24"><path fill="currentColor" d="M2 9V6q0-.825.588-1.413T4 4h16q.825 0 1.413.588T22 6v4.5q0 .425-.288.713T21 11.5q-.425 0-.713-.288T20 10.5V6H4v3H2Zm5 8q-.275 0-.525-.138T6.1 16.45L4.4 13H3.025q-.425 0-.712-.288T2.025 12q0-.425.288-.713T3.024 11h2q.275 0 .513.15t.362.4l1.1 2.2l3.1-6.2q.125-.25.375-.375T11 7.05q.275 0 .525.125t.375.375l1.675 3.35q-.45.275-.862.575t-.763.675l-.95-1.9l-3.1 6.2q-.125.275-.375.413T7 17Zm3.675 3H4q-.825 0-1.413-.588T2 18v-3h2v3h6.075q.075.525.225 1.025t.375.975ZM12 12Zm5 10q-2.075 0-3.538-1.463T12 17q0-2.075 1.463-3.538T17 12q2.075 0 3.538 1.463T22 17q0 2.075-1.463 3.538T17 22Zm2.125-6.425q.15-.15.15-.35t-.15-.35q-.15-.15-.35-.15t-.35.15l-1.575 1.55q-.15.15-.15.363t.15.362q.15.15.362.15t.363-.15l1.55-1.575Z"/></svg>