<svg xmlns="http://www.w3.org/2000/svg" width="24" height="24" viewBox="0 0 24 24"><path fill="currentColor" d="M5.4 6h13.2l-.85-1H6.25L5.4 6Zm4.6 6.75l2-1l2 1V8h-4v4.75ZM5 21q-.825 0-1.413-.588T3 19V6.525q0-.35.113-.675t.337-.6L4.7 3.725q.275-.35.687-.538T6.25 3h11.5q.45 0 .863.188t.687.537l1.25 1.525q.225.275.338.6t.112.675V10.1q-.5-.125-1.012-.075t-.988.25V8h-3v5l-2 2l-2-1l-2.55 1.275q-.5.25-.975-.038T8 14.376V8H5v11h6q.425 0 .713.288T12 20q0 .425-.288.713T11 21H5Zm10.5-1.5h1.05l3.875-3.85l1.05 1.05l-4 4q-.15.15-.338.225T16.75 21H15q-.425 0-.712-.288T14 20v-1.75q0-.2.075-.388t.225-.337l4-4l1.075 1.075l-3.875 3.85v1.05Zm5.975-2.8L18.3 13.525l1.25-1.25q.275-.275.7-.275t.7.275l1.775 1.775q.275.275.275.7t-.275.7l-1.25 1.25ZM16 8h3h-3ZM5 8h9h-9Z"/></svg>