<svg xmlns="http://www.w3.org/2000/svg" width="24" height="24" viewBox="0 0 24 24"><path fill="currentColor" d="M7.5 3q1.3 0 2.475.55T12 5.1q.85-1 2.025-1.55T16.5 3q2.35 0 3.925 1.575T22 8.5q0 .125-.013.25t-.012.25h-2Q20 8.875 20 8.75V8.5Q20 7 19 6t-2.5-1q-1.175 0-2.175.663T12.95 7.35h-1.9q-.375-1.025-1.375-1.687T7.5 5Q6 5 5 6T4 8.5v.25q0 .125.025.25h-2q0-.125-.013-.25T2 8.5q0-2.35 1.575-3.925T7.5 3ZM12 20.675q-.35 0-.7-.125t-.625-.4q-.85-.775-1.613-1.475t-1.437-1.35q-.675-.65-1.263-1.225T5.3 15h2.8q.8.775 1.75 1.675T12 18.65q1.2-1.075 2.15-1.975T15.9 15h2.825q-.475.525-1.063 1.1T16.4 17.325q-.675.65-1.45 1.35t-1.625 1.475q-.275.275-.625.4t-.7.125ZM11.05 16q.325 0 .563-.188t.337-.487l1.35-4.075l.875 1.3q.125.2.35.325T15 13h7q.425 0 .713-.288T23 12q0-.425-.288-.713T22 11h-6.425L13.85 8.45q-.15-.225-.387-.338T12.95 8q-.325 0-.562.188t-.338.487l-1.35 4.05l-.85-1.275q-.125-.2-.35-.325T9.025 11H2q-.425 0-.713.288T1 12q0 .425.288.713T2 13h6.425l1.725 2.55q.15.225.388.338t.512.112Zm.95-4.175Z"/></svg>