<svg xmlns="http://www.w3.org/2000/svg" width="24" height="24" viewBox="0 0 24 24"><path fill="currentColor" d="M12 12Zm8 8h-5q0-.5-.038-1t-.112-1H20v-5.3q.55-.175 1.05-.412t.95-.563V18q0 .825-.588 1.413T20 20ZM2 7V6q0-.825.588-1.413T4 4h7.3q-.15.475-.225.975T11 6H4v1.15q-.5-.075-1-.113T2 7Zm16 4q-2.075 0-3.538-1.463T13 6q0-2.075 1.463-3.538T18 1q2.075 0 3.538 1.463T23 6q0 2.075-1.463 3.538T18 11Zm0-2q.2 0 .35-.15t.15-.35q0-.2-.15-.35T18 8q-.2 0-.35.15t-.15.35q0 .2.15.35T18 9Zm0-2q.2 0 .35-.15t.15-.35v-3q0-.2-.15-.35T18 3q-.2 0-.35.15t-.15.35v3q0 .2.15.35T18 7ZM3.5 20q-.625 0-1.063-.438T2 18.5q0-.625.438-1.063T3.5 17q.625 0 1.063.438T5 18.5q0 .625-.438 1.063T3.5 20ZM8 20q-.4 0-.7-.238t-.375-.637Q6.65 17.55 5.513 16.45T2.8 15.075q-.375-.05-.587-.362T2 14q0-.425.263-.713t.637-.237q2.35.3 4.025 1.975t2 4.025q.05.4-.225.675T8 20Zm4 0q-.425 0-.713-.275t-.337-.7q-.35-3.2-2.612-5.425t-5.463-2.55q-.4-.05-.638-.35T2 10q0-.425.263-.725t.637-.25q4.025.325 6.85 3.138t3.2 6.812q.05.425-.237.725T12 20Z"/></svg>