<svg xmlns="http://www.w3.org/2000/svg" width="24" height="24" viewBox="0 0 24 24"><path fill="currentColor" d="M6.525 19Q5.25 19 4.4 18.15t-.85-2.125q0-1.275.85-2.138t2.125-.862q1.275 0 2.125.85T9.5 16q0 1.275-.85 2.137T6.525 19Zm-2.05-8.025q-.275 0-.463-.175t-.187-.45V5.625q0-.275.188-.45T4.474 5q.275 0 .45.175t.175.45v4.725q0 .275-.175.45t-.45.175Zm2.05 6.875q.775 0 1.275-.525T8.3 16q0-.8-.488-1.312t-1.287-.513q-.775 0-1.275.513T4.75 16q0 .8.5 1.325t1.275.525Zm.35-6.875q-.275 0-.45-.175t-.175-.45V5.6q0-.25.175-.425T6.85 5h.45q.175 0 .313.088t.212.212L9.9 8.8l-.05-.95V5.625q0-.275.175-.45t.45-.175q.275 0 .45.175t.175.45v4.8q0 .225-.163.388t-.387.162h-.425q-.15 0-.263-.075t-.187-.2l-2.25-3.75l.075.95v2.45q0 .275-.175.45t-.45.175ZM12.8 19q-1.05 0-1.675-.675t-.625-1.8v-2.9q0-.25.175-.425t.45-.175q.275 0 .438.162t.162.438V16.6q0 .525.313.875t.762.35q.45 0 .75-.35t.3-.875v-2.975q0-.25.175-.425t.45-.175q.275 0 .438.162t.162.438v2.9q0 1.125-.625 1.8T12.8 19Zm5.475 0q-.275 0-.45-.175t-.175-.45V14.2h-1.025q-.25 0-.412-.175t-.163-.425q0-.25.163-.413t.412-.162h3.25q.25 0 .413.163t.162.412q0 .25-.162.425t-.413.175h-1v4.2q0 .25-.163.425t-.437.175Z"/></svg>