<svg xmlns="http://www.w3.org/2000/svg" width="24" height="24" viewBox="0 0 24 24"><path fill="currentColor" d="m7.575 4.525l-.55-1.6q-.1-.275.038-.55T7.5 2q.275-.1.55.05t.375.425l.55 1.575q.1.275-.05.55t-.425.375q-.3.1-.563-.025t-.362-.425ZM11.25 3.25v-1.5q0-.325.213-.537T12 1q.325 0 .537.213t.213.537v1.5q0 .325-.213.537T12 4q-.325 0-.537-.213t-.213-.537Zm3.8.8l.525-1.575q.1-.275.363-.413t.562-.037q.275.1.425.375t.05.55l-.55 1.575q-.1.275-.375.425T15.5 5q-.275-.1-.413-.388t-.037-.562ZM2.95 22.875q-.325.05-.6-.15t-.325-.525l-.05-.4q-.05-.325.137-.587t.513-.313l4.5-.675q.275-.05.488-.238t.312-.462l.85-2.65q.125-.35 0-.675t-.45-.5L7.8 17.35q-.125.4-.487.587T6.55 18q-.4-.125-.587-.488T5.9 16.75l1.9-6q.05-.15.05-.325T7.8 10.1l-3.35 6.3q-.4.725-1.113 1.163T1.8 18q-.35 0-.575-.225T1 17.2v-.4q0-.35.225-.575T1.8 16q.275 0 .513-.138t.362-.387l3.95-7.45q.2-.375.6-.487T8 7.625l.35.2q.925.525 1.313 1.513t.062 2.012L8.95 13.8q1.1.425 1.588 1.5t.137 2.2l-.85 2.65q-.275.8-.912 1.363t-1.488.687l-4.475.675Zm13.625-.675q-.85-.125-1.488-.688t-.912-1.362l-.85-2.65q-.35-1.125.138-2.2t1.587-1.5l-.775-2.45q-.325-1.025.063-2.012t1.312-1.513l.35-.2q.375-.2.775-.088t.6.488l3.95 7.45q.125.25.363.388T22.2 16q.35 0 .575.225T23 16.8v.4q0 .35-.225.575T22.2 18q-.825 0-1.537-.438T19.55 16.4l-3.35-6.3q-.05.15-.05.325t.05.325l1.9 6q.125.4-.063.763T17.45 18q-.4.125-.763-.063t-.487-.587l-.525-1.65q-.325.175-.45.5t0 .675l.85 2.65q.1.275.313.463t.487.237l4.5.675q.325.05.513.313t.137.587l-.05.4q-.05.325-.325.525t-.6.15l-4.475-.675Zm-.9-6.5Zm-7.35 0ZM6.55 18Zm10.9 0Z"/></svg>