<?xml version="1.0" encoding="UTF-8" standalone="no"?>
<svg
   height="24"
   viewBox="0 0 24 24"
   width="24"
   version="1.1"
   id="svg4"
   sodipodi:docname="chrome-restore-rounded.svg"
   inkscape:version="1.2.1 (9c6d41e410, 2022-07-14)"
   xmlns:inkscape="http://www.inkscape.org/namespaces/inkscape"
   xmlns:sodipodi="http://sodipodi.sourceforge.net/DTD/sodipodi-0.dtd"
   xmlns="http://www.w3.org/2000/svg"
   xmlns:svg="http://www.w3.org/2000/svg">
  <defs
     id="defs8" />
  <sodipodi:namedview
     id="namedview6"
     pagecolor="#ffffff"
     bordercolor="#000000"
     borderopacity="0.25"
     inkscape:showpageshadow="2"
     inkscape:pageopacity="0.0"
     inkscape:pagecheckerboard="0"
     inkscape:deskcolor="#d1d1d1"
     showgrid="false"
     inkscape:zoom="9.8333333"
     inkscape:cx="12"
     inkscape:cy="12"
     inkscape:window-width="3840"
     inkscape:window-height="2454"
     inkscape:window-x="-11"
     inkscape:window-y="-11"
     inkscape:window-maximized="1"
     inkscape:current-layer="svg4" />
  <path
     d="M 10,16 Q 9.175,16 8.5875,15.4125 8,14.825 8,14 V 6 Q 8,5.175 8.5875,4.5875 9.175,4 10,4 h 8 Q 18.825,4 19.4125,4.5875 20,5.175 20,6 v 8 q 0,0.825 -0.5875,1.4125 Q 18.825,16 18,16 Z M 10,6 v 8 h 8 V 6 Z M 6,20 Q 5.175,20 4.5875,19.4125 4,18.825 4,18 V 9.525 Q 4,9.1 4.2875,8.8125 4.575,8.525 5,8.525 5.425,8.525 5.7125,8.8125 6,9.1 6,9.525 V 18 h 8.475 q 0.425,0 0.7125,0.2875 0.2875,0.2875 0.2875,0.7125 0,0.425 -0.2875,0.7125 Q 14.9,20 14.475,20 Z M 10,6 v 8 z"
     id="path2"
     style="stroke-width:0.025" />
</svg>
