<svg xmlns="http://www.w3.org/2000/svg" width="24" height="24" viewBox="0 0 24 24"><path fill="currentColor" d="M6 21q-1.65 0-2.825-1.175T2 17q0-1.65 1.175-2.825T6 13q1.65 0 2.825 1.175T10 17q0 1.65-1.175 2.825T6 21Zm12 0q-1.65 0-2.825-1.175T14 17q0-1.65 1.175-2.825T18 13q1.65 0 2.825 1.175T22 17q0 1.65-1.175 2.825T18 21ZM6 19q.825 0 1.413-.588T8 17q0-.825-.588-1.413T6 15q-.825 0-1.413.588T4 17q0 .825.588 1.413T6 19Zm12 0q.825 0 1.413-.588T20 17q0-.825-.588-1.413T18 15q-.825 0-1.413.588T16 17q0 .825.588 1.413T18 19Zm-6-4.1q-.8 0-1.35-.55T10.1 13q0-.8.55-1.35T12 11.1q.8 0 1.35.55T13.9 13q0 .8-.55 1.35T12 14.9Zm0-4.9q-1.65 0-2.825-1.175T8 6q0-1.65 1.175-2.825T12 2q1.65 0 2.825 1.175T16 6q0 1.65-1.175 2.825T12 10Zm0-2q.825 0 1.413-.588T14 6q0-.825-.588-1.413T12 4q-.825 0-1.413.588T10 6q0 .825.588 1.413T12 8Zm0-2ZM6 17Zm12 0Z"/></svg>