<svg xmlns="http://www.w3.org/2000/svg" width="24" height="24" viewBox="0 0 24 24"><path fill="currentColor" d="M9.8 19q-2.5 0-4.638-1.275t-3.312-3.5l-.625-1.15q-.275-.55-.213-1.15t.463-1.075L6.5 4.725q.225-.275.525-.45t.65-.225q.35-.05.675-.012T9 4.25l3 1.6l2.45-1.35q.425-.25.9-.175t.825.425q.35.325.438.788t-.113.887l-3.1 7.225q-.275.65-.9.975t-1.35.175l-7.6-1.625q.9 1.775 2.588 2.8T9.8 17h4.475q1.375 0 2.65-.525T19.175 15h-.85q-.925 0-1.512-.7t-.463-1.6l.675-4.45q.075-.475.375-.775t.7-.425q.4-.125.813-.013t.737.463l2.85 3.35q.375.45.463 1.038T22.8 13l-.375.8q-1.125 2.375-3.313 3.788T14.276 19H9.8Zm10.825-6.025L21 12.15l-2.15-2.5l-.5 3.325h2.275ZM3.775 11.2l7.8 1.65L14.1 6.975L12 8.15L8.025 6l-4.25 5.2ZM8.95 9.425Zm10.725 2.725Z"/></svg>