<svg xmlns="http://www.w3.org/2000/svg" width="24" height="24" viewBox="0 0 24 24"><path fill="currentColor" d="M6 22q-1.25 0-2.125-.875T3 19v-1q0-.825.588-1.413T5 16h1V4q0-.825.588-1.413T8 2h11q.825 0 1.413.588T21 4v7.1q-.5-.125-1.012-.075t-.988.25V4H8v12h6l-2 2H5v1q0 .425.288.713T6 20h6v2H6Zm9.5-1.5h1.05l3.875-3.85l1.05 1.05l-4 4q-.15.15-.338.225T16.75 22H15q-.425 0-.712-.288T14 21v-1.75q0-.2.075-.388t.225-.337l4-4l1.075 1.075l-3.875 3.85v1.05Zm5.975-2.8L18.3 14.525l1.25-1.25q.275-.275.7-.275t.7.275l1.775 1.775q.275.275.275.7t-.275.7l-1.25 1.25ZM10 9q-.425 0-.713-.288T9 8q0-.425.288-.713T10 7h7q.425 0 .713.288T18 8q0 .425-.288.713T17 9h-7Zm0 3q-.425 0-.713-.288T9 11q0-.425.288-.713T10 10h7q.425 0 .713.288T18 11q0 .425-.288.713T17 12h-7Zm2 8H5h7Z"/></svg>