<svg xmlns="http://www.w3.org/2000/svg" width="24" height="24" viewBox="0 0 24 24"><path fill="currentColor" d="m20.375 17.5l-1.45-1.45q.45-.775.725-1.663T20 12.55q-1.25-.55-1.962-1.5t-.963-2.125q-1.925-.275-3.3-1.65t-1.7-3.3q-1.225-.05-2.25.25t-1.9.825L6.5 3.625q1.3-.875 2.9-1.238t3.425-.362q.475 0 .825.3T14 3.1q0 1.525 1.2 2.763t2.775 1.087q.425-.05.738.263T19 7.95q-.05 1.1.613 1.95t1.612.975q.325.05.55.288t.225.562q0 1.525-.4 3.013T20.375 17.5ZM8.5 15q-.625 0-1.063-.438T7 13.5q0-.625.438-1.063T8.5 12q.625 0 1.063.438T10 13.5q0 .625-.438 1.063T8.5 15Zm3.5 7q-2.075 0-3.9-.788t-3.175-2.137q-1.35-1.35-2.137-3.175T2 12q0-1.55.425-2.938T3.65 6.476L1.375 4.2q-.3-.3-.3-.712t.3-.713q.3-.3.713-.3t.712.3l18.4 18.4q.3.3.3.7t-.3.7q-.3.3-.712.3t-.713-.3l-2.25-2.225q-1.2.8-2.587 1.225T12 22Zm0-2q1.125 0 2.138-.3t1.912-.825L5.125 7.95q-.525.9-.825 1.912T4 12q0 3.325 2.337 5.663T12 20Zm-1.4-6.6Zm2.825-2.85Z"/></svg>