<svg xmlns="http://www.w3.org/2000/svg" width="24" height="24" viewBox="0 0 24 24"><path d="M5 21q-.825 0-1.413-.588T3 19V5q0-.825.588-1.413T5 3h14q.825 0 1.413.588T21 5v14q0 .825-.588 1.413T19 21H5ZM5 8.325h14V5H5v3.325Zm0 5.35h14v-3.35H5v3.35ZM5 19h14v-3.325H5V19ZM7 7.65q-.425 0-.713-.288T6 6.65q0-.425.288-.713T7 5.65q.425 0 .713.288T8 6.65q0 .425-.288.713T7 7.65ZM7 13q-.425 0-.713-.288T6 12q0-.425.288-.713T7 11q.425 0 .713.288T8 12q0 .425-.288.713T7 13Zm0 5.35q-.425 0-.713-.288T6 17.35q0-.425.288-.713T7 16.35q.425 0 .713.288T8 17.35q0 .425-.288.713T7 18.35Z"/></svg>