<svg xmlns="http://www.w3.org/2000/svg" width="24" height="24" viewBox="0 0 24 24"><path d="M19 21H4q-.625 0-.888-.537t.088-1.038l4.7-6.6q.275-.4.7-.613T9.525 12h4.025l5.7-6.65q.45-.525 1.1-.288T21 6v13q0 .825-.588 1.413T19 21ZM7.5 10l-3.1 4.375q-.25.35-.65.413T3 14.6q-.35-.25-.412-.65t.187-.75L5.9 8.85q.275-.4.7-.625T7.525 8h4.025l4.05-4.725q.275-.325.675-.35t.725.25q.325.275.35.675t-.25.725L13.05 9.3q-.275.35-.675.525T11.55 10H7.5Zm-1.55 9H19V8.7l-3.95 4.6q-.275.35-.675.525T13.55 14H9.5l-3.55 5ZM19 19Z"/></svg>