<?xml version="1.0" encoding="UTF-8" standalone="no"?>
<svg
   height="24"
   viewBox="0 0 24 24"
   width="24"
   version="1.1"
   id="svg4"
   xmlns="http://www.w3.org/2000/svg"
   xmlns:svg="http://www.w3.org/2000/svg">
  <defs
     id="defs8" />
  <path
     d="M 6,22 C 5.45,22 4.9791667,21.804167 4.5875,21.4125 4.1958332,21.020833 4,20.55 4,20 V 4 C 4,3.45 4.1958332,2.9791668 4.5875,2.5875 4.9791667,2.1958332 5.45,2 6,2 h 12 c 0.55,0 1.020833,0.1958332 1.4125,0.5875 C 19.804167,2.9791668 20,3.45 20,4 v 8 c 0,0.283333 -0.09583,0.520833 -0.2875,0.7125 C 19.520833,12.904167 19.283333,13 19,13 18.716667,13 18.479167,12.904167 18.2875,12.7125 18.095833,12.520833 18,12.283333 18,12 V 4 H 6 v 16 h 6 c 0.283333,0 0.520833,0.09583 0.7125,0.2875 C 12.904167,20.479167 13,20.716667 13,21 13,21.283333 12.90417,21.520833 12.7125,21.7125 12.520833,21.904167 12.283333,22 12,22 Z m 10,0 C 15.716667,22 15.479167,21.904167 15.2875,21.7125 15.095833,21.520833 15,21.283333 15,21 v -5 c 0,-0.283333 0.09583,-0.520833 0.2875,-0.7125 C 15.479167,15.095833 15.716667,15 16,15 h 3 c 0.283333,0 0.520833,0.09583 0.7125,0.2875 C 19.904167,15.479167 20,15.716667 20,16 v 5 c 0,0.283333 -0.09583,0.520833 -0.2875,0.7125 C 19.520833,21.904167 19.283333,22 19,22 Z M 13,21.004237 6,20 V 4 h 12 l 1.016949,9 H 15 c -0.55,0 -1.020833,0.195833 -1.4125,0.5875 C 13.195833,13.979167 13,14.45 13,15 Z"
     id="path2"
     style="stroke-width:0.025" />
</svg>
