<svg xmlns="http://www.w3.org/2000/svg" width="24" height="24" viewBox="0 0 24 24"><path d="M17.5 12.75V15q0 .425-.288.713T16.5 16q-.425 0-.713-.288T15.5 15v-1.725l-1.125-2.025q-.175.125-.275.325T14 12v5.725L16.575 22H14.25L12 18.3V12q0-.775.375-1.425T13.4 9.5L12 7.025q-.5-.95-.438-2.013t.813-1.812l.95-.925q.325-.325.75-.312t.7.362L20.55 9.1q.2.25.325.538t.15.612L22 22h-2l-.975-11.6l-5.075-5.95l-.15.15q-.25.25-.288.575t.113.625l3.875 6.95Zm-11 0l3.875-6.95q.15-.3.113-.625T10.2 4.6l-.15-.15l-5.075 5.95L4 22H2l.975-11.75q.025-.325.15-.613T3.45 9.1l5.775-6.775q.275-.35.713-.363t.762.313l.925.925q.75.75.813 1.813T12 7.024L10.6 9.5q.65.425 1.025 1.075T12 12v6.3L9.75 22H7.425L10 17.725V12q0-.225-.1-.425t-.275-.325L8.5 13.275V15q0 .425-.288.713T7.5 16q-.425 0-.713-.288T6.5 15v-2.25Z"/></svg>