<svg xmlns="http://www.w3.org/2000/svg" width="24" height="24" viewBox="0 0 24 24"><path d="M4 21q-.825 0-1.413-.588T2 19V8q0-.425.288-.713T3 7q.425 0 .713.288T4 8v11h14q.425 0 .713.288T19 20q0 .425-.288.713T18 21H4Zm4-4q-.825 0-1.413-.588T6 15V4q0-.425.288-.713T7 3h15q.425 0 .713.288T23 4v11q0 .825-.588 1.413T21 17H8Zm0-2h13V5H8v10Zm3-3h2q.425 0 .713-.288T14 11V8q0-.425-.288-.713T13 7h-2q-.425 0-.713.288T10 8v3q0 .425.288.713T11 12Zm5 0h2q.425 0 .713-.288T19 11q0-.425-.288-.713T18 10h-2q-.425 0-.713.288T15 11q0 .425.288.713T16 12Zm0-3h2q.425 0 .713-.288T19 8q0-.425-.288-.713T18 7h-2q-.425 0-.713.288T15 8q0 .425.288.713T16 9Zm-8 6V5v10Z"/></svg>