<svg xmlns="http://www.w3.org/2000/svg" width="24" height="24" viewBox="0 0 24 24"><path d="M14.4 22q-.875 0-1.675-.363T11.35 20.6l-5.1-5.95q-.275-.35-.238-.763T6.4 13.2l.45-.325q.5-.375 1.125-.4t1.15.325l1.375.875V4q0-.425.288-.713T11.5 3q.425 0 .713.288T12.5 4v11.5q0 .6-.525.875t-1.025-.05l-1.4-.9l3.6 4.225q.15.175.35.263t.425.087H19q.825 0 1.413-.588T21 18v-7q0-.425.288-.713T22 10q.425 0 .713.288T23 11v7q0 1.65-1.175 2.825T19 22h-4.6Zm-.4-9V8q0-.425.288-.713T15 7q.425 0 .713.288T16 8v5h-2Zm3.5 0V9q0-.425.288-.713T18.5 8q.425 0 .713.288T19.5 9v4h-2Zm-13-3q-1.475 0-2.488-1.012T1 6.55q0-.85.338-1.475t1.587-2.05L3.75 2.1q.3-.35.75-.35t.75.35l.825.95q1.275 1.475 1.6 2.075T8 6.55q0 1.425-1.025 2.438T4.5 10Zm0-2q.625 0 1.063-.425T6 6.55q0-.425-.213-.763T4.625 4.4L4.5 4.275l-.125.125q-.8.9-1.088 1.35T3 6.55q0 .6.425 1.025T4.5 8Zm0-1.45ZM21 20h-7.85H21Z"/></svg>