<svg xmlns="http://www.w3.org/2000/svg" width="24" height="24" viewBox="0 0 24 24"><path d="M13 23q-1.825 0-2.913-1.525T9 18q0-1.95 1.088-3.475T13 13q1.825 0 2.913 1.525T17 18q0 1.95-1.088 3.475T13 23ZM6 12q0 2.35-.275 4.638T4.8 21.2q-.125.425-.5.675T3.5 22q-.425-.125-.575-.562T2.9 20.55q.575-2.1.838-4.225T4 12q0-2.2-.263-4.325T2.9 3.45q-.125-.45.025-.888T3.5 2q.425-.125.8.125t.5.675q.65 2.275.925 4.563T6 12Zm14 0q0 2.2.263 4.325t.837 4.225q.125.45-.025.888T20.5 22q-.425.125-.8-.125t-.5-.675q-.65-2.275-.925-4.563T18 12q0-2.35.275-4.638T19.2 2.8q.125-.425.5-.675T20.5 2q.425.125.575.563t.025.887q-.575 2.1-.838 4.225T20 12Zm-7 9q1 0 1.5-.938T15 18q0-1.125-.5-2.063T13 15q-1 0-1.5.938T11 18q0 1.125.5 2.063T13 21Zm-.775-1.2q.225.2.525.2t.525-.225q.35-.35.537-.813T14 18q0-.5-.175-.963t-.525-.812Q13.1 16 12.787 16t-.537.2q-.225.2-.237.525t.187.55l.15.213q.15.212.15.512t-.15.512l-.15.213q-.225.225-.212.55t.237.525ZM11 11q-1.825 0-2.913-1.525T7 6q0-1.95 1.088-3.475T11 1q1.825 0 2.913 1.525T15 6q0 1.95-1.088 3.475T11 11Zm0-2q1 0 1.5-.938T13 6q0-1.125-.5-2.063T11 3q-1 0-1.5.938T9 6q0 1.125.5 2.063T11 9Zm.75-1.2q.225-.2.238-.525t-.188-.55q-.125-.15-.213-.338T11.5 6q0-.2.088-.388t.212-.337q.2-.225.2-.537t-.225-.538Q11.55 4 11.25 4t-.525.225q-.35.35-.537.813T10 6q0 .5.175.963t.525.812q.225.225.525.225t.525-.2ZM11 6Zm2 12Z"/></svg>