<svg xmlns="http://www.w3.org/2000/svg" width="24" height="24" viewBox="0 0 24 24"><path d="m12.25 10.825l.925.925L18.6 6.325l-.925-.925l-5.425 5.425ZM5 19h.925l5.825-5.825l-.925-.925L5 18.075V19Zm8.875-5.125l-3.75-3.75L14.3 5.95l-.725-.725L8.8 10q-.3.3-.7.3t-.7-.3q-.3-.3-.3-.713t.3-.712l4.75-4.75q.6-.6 1.413-.6t1.412.6l.725.725l1.25-1.25q.3-.3.713-.3t.712.3L20.7 5.625q.3.3.3.712t-.3.713l-6.825 6.825ZM4 21q-.425 0-.713-.288T3 20v-1.925q0-.4.15-.763t.425-.637l6.55-6.55l3.75 3.75l-6.55 6.55q-.275.275-.638.425t-.762.15H4Z"/></svg>