<svg xmlns="http://www.w3.org/2000/svg" width="24" height="24" viewBox="0 0 24 24"><path d="M6 20q-.425 0-.713-.288T5 19v-6H4q-.425 0-.713-.288T3 12q0-.425.288-.713T4 11h4q.425 0 .713.288T9 12q0 .425-.288.713T8 13H7v6q0 .425-.288.713T6 20ZM6 9q-.425 0-.713-.288T5 8V5q0-.425.288-.713T6 4q.425 0 .713.288T7 5v3q0 .425-.288.713T6 9Zm4 0q-.425 0-.713-.288T9 8q0-.425.288-.713T10 7h1V5q0-.425.288-.713T12 4q.425 0 .713.288T13 5v2h1q.425 0 .713.288T15 8q0 .425-.288.713T14 9h-4Zm2 11q-.425 0-.713-.288T11 19v-7q0-.425.288-.713T12 11q.425 0 .713.288T13 12v7q0 .425-.288.713T12 20Zm6 0q-.425 0-.713-.288T17 19v-2h-1q-.425 0-.713-.288T15 16q0-.425.288-.713T16 15h4q.425 0 .713.288T21 16q0 .425-.288.713T20 17h-1v2q0 .425-.288.713T18 20Zm0-7q-.425 0-.713-.288T17 12V5q0-.425.288-.713T18 4q.425 0 .713.288T19 5v7q0 .425-.288.713T18 13Z"/></svg>