<svg xmlns="http://www.w3.org/2000/svg" width="24" height="24" viewBox="0 0 24 24"><path d="M4 17V7v10Zm0 2q-.825 0-1.413-.588T2 17V7q0-.825.588-1.413T4 5h16q.825 0 1.413.588T22 7v6.525q-.425-.4-.925-.688T20 12.35V7H4v10h8.1q-.05.25-.063.488t-.012.512q0 .275.013.513T12.1 19H4Zm5-3h3.35q.2-.575.5-1.075t.7-.925H9q-.425 0-.713.288T8 15q0 .425.288.713T9 16Zm-4-5v2h2v-2H5Zm3 0v2h2v-2H8Zm3 0v2h2v-2h-2Zm3 0v2h.7q.3-.2.625-.363T16 12.35V11h-2Zm3 0v1.1q.25-.05.488-.075T18 12q.275 0 .513.025T19 12.1V11h-2ZM5 8v2h2V8H5Zm3 0v2h2V8H8Zm3 0v2h2V8h-2Zm3 0v2h2V8h-2Zm3 0v2h2V8h-2Zm1.175 11H15q-.425 0-.713-.288T14 18q0-.425.288-.713T15 17h3.175l-.9-.9Q17 15.825 17 15.412t.3-.712q.275-.275.7-.275t.7.275l2.6 2.6q.3.3.3.7t-.3.7l-2.6 2.6q-.275.275-.688.288T17.3 21.3q-.275-.275-.275-.7t.275-.7l.875-.9Z"/></svg>