<svg xmlns="http://www.w3.org/2000/svg" width="24" height="24" viewBox="0 0 24 24"><path d="M6 17q-.825 0-1.413-.588T4 15V8q0-.425.288-.713T5 7q.425 0 .713.288T6 8v7h3V8q0-.425.288-.713T10 7q.425 0 .713.288T11 8v7q0 .825-.588 1.413T9 17H6Zm9 0q-.825 0-1.413-.588T13 15q0-.425.288-.713T14 14q.4 0 .7.363T15 15h3v-2h-3q-.825 0-1.413-.588T13 11V9q0-.825.588-1.413T15 7h3q.825 0 1.413.588T20 9q0 .425-.288.713T19 10q-.425 0-.713-.288T18 9h-3v2h3q.825 0 1.413.588T20 13v2q0 .825-.588 1.413T18 17h-3Z"/></svg>