<svg xmlns="http://www.w3.org/2000/svg" width="24" height="24" viewBox="0 0 24 24"><path d="m6.6 14.45l-.725 2.025q-.075.25-.275.388T5.15 17q-.425 0-.675-.35t-.1-.75l3.15-8.35q.1-.25.3-.4T8.3 7h.65q.275 0 .475.15t.3.4l3.15 8.375q.15.4-.087.737t-.663.338q-.275 0-.475-.15t-.3-.4l-.7-2H6.6ZM7.125 13h3l-1.45-4.15h-.1L7.125 13Zm9.225 4.275q-1.225 0-1.925-.638t-.7-1.737q0-1.05.813-1.713t2.087-.662q.575 0 1.063.088t.837.287v-.35q0-.675-.462-1.075t-1.263-.4q-.375 0-.713.113t-.612.312q-.225.175-.5.2t-.5-.15q-.225-.175-.262-.438t.162-.462q.475-.425 1.075-.65t1.375-.225q1.55 0 2.375.738t.825 2.137v3.8q0 .3-.213.513t-.512.212q-.3 0-.525-.225t-.225-.525V16.2h-.075q-.325.5-.875.788t-1.25.287Zm.25-1.25q.8 0 1.363-.563t.562-1.362q-.35-.2-.8-.3t-.825-.1q-.8 0-1.225.313t-.425.887q0 .5.375.813t.975.312Z"/></svg>