<svg xmlns="http://www.w3.org/2000/svg" width="24" height="24" viewBox="0 0 24 24"><path d="M4 19q-.425 0-.713-.288T3 18q0-.425.288-.713T4 17h10q.425 0 .713.288T15 18q0 .425-.288.713T14 19H4Zm14 0q-.425 0-.713-.288T17 18q0-.425.288-.713T18 17h2q.425 0 .713.288T21 18q0 .425-.288.713T20 19h-2ZM4 15q-.425 0-.713-.288T3 14q0-.425.288-.713T4 13h2q.425 0 .713.288T7 14q0 .425-.288.713T6 15H4Zm6 0q-.425 0-.713-.288T9 14q0-.425.288-.713T10 13h10q.425 0 .713.288T21 14q0 .425-.288.713T20 15H10Zm-6-4q-.425 0-.713-.288T3 10q0-.425.288-.713T4 9h11q.425 0 .713.288T16 10q0 .425-.288.713T15 11H4Zm15 0q-.425 0-.713-.288T18 10q0-.425.288-.713T19 9h1q.425 0 .713.288T21 10q0 .425-.288.713T20 11h-1ZM4 7q-.425 0-.713-.288T3 6q0-.425.288-.713T4 5h5q.425 0 .713.288T10 6q0 .425-.288.713T9 7H4Zm9 0q-.425 0-.713-.288T12 6q0-.425.288-.713T13 5h7q.425 0 .713.288T21 6q0 .425-.288.713T20 7h-7Z"/></svg>