<svg xmlns="http://www.w3.org/2000/svg" width="24" height="24" viewBox="0 0 24 24"><path d="M18 20h-2q-.425 0-.713-.288T15 19q0-.425.288-.713T16 18h2v-2q0-.425.288-.713T19 15q.425 0 .713.288T20 16v2h2q.425 0 .713.288T23 19q0 .425-.288.713T22 20h-2v2q0 .425-.288.713T19 23q-.425 0-.713-.288T18 22v-2ZM5 19V5v14Zm7-13q-1.25 0-2.125.875T9 9q0 1.25.875 2.125T12 12q1.25 0 2.125-.875T15 9q0-1.25-.875-2.125T12 6Zm-1.5 2.5q.2 0 .35.15T11 9q0 .2-.15.35t-.35.15q-.2 0-.35-.15T10 9q0-.2.15-.35t.35-.15Zm1.5 0q.2 0 .35.15t.15.35q0 .2-.15.35T12 9.5q-.2 0-.35-.15T11.5 9q0-.2.15-.35T12 8.5Zm1.5 0q.2 0 .35.15T14 9q0 .2-.15.35t-.35.15q-.2 0-.35-.15T13 9q0-.2.15-.35t.35-.15ZM5 21q-.825 0-1.413-.588T3 19V5q0-.825.588-1.413T5 3h14q.825 0 1.413.588T21 5v7q0 .425-.288.713T20 13q-.425 0-.713-.288T19 12V5H5v14h7.5q.425 0 .713.288T13.5 20q0 .425-.288.713T12.5 21H5Z"/></svg>