<?xml version="1.0" encoding="UTF-8"?>
<svg xmlns="http://www.w3.org/2000/svg" xmlns:xlink="http://www.w3.org/1999/xlink" width="24px" height="24px" viewBox="0 0 24 24" version="1.1">
<g id="surface1">
<path style=" stroke:none;fill-rule:nonzero;fill:rgb(0%,0%,0%);fill-opacity:1;" d="M 17.925781 15.75 C 17.175781 16.816406 16.359375 17.816406 15.476562 18.75 C 14.589844 19.683594 13.660156 20.574219 12.675781 21.425781 C 12.574219 21.507812 12.464844 21.570312 12.351562 21.613281 C 12.234375 21.652344 12.117188 21.675781 12 21.675781 C 11.882812 21.675781 11.769531 21.652344 11.664062 21.613281 C 11.554688 21.570312 11.449219 21.507812 11.351562 21.425781 C 10.632812 20.792969 9.847656 20.050781 8.988281 19.199219 C 8.128906 18.351562 7.332031 17.433594 6.601562 16.449219 C 5.867188 15.464844 5.25 14.445312 4.75 13.386719 C 4.25 12.328125 4 11.265625 4 10.199219 C 4 7.933594 4.773438 6 6.324219 4.398438 C 7.875 2.800781 9.765625 2 12 2 C 12.417969 2 12.828125 2.027344 13.238281 2.085938 C 13.644531 2.144531 14.050781 2.242188 14.449219 2.375 C 14.667969 2.441406 14.839844 2.558594 14.976562 2.726562 C 15.109375 2.890625 15.175781 3.089844 15.175781 3.324219 C 15.175781 3.609375 15.078125 3.851562 14.886719 4.050781 C 14.695312 4.25 14.457031 4.351562 14.175781 4.351562 C 13.992188 4.351562 13.875 4.324219 13.824219 4.273438 C 13.542969 4.175781 13.242188 4.105469 12.925781 4.0625 C 12.609375 4.019531 12.300781 4 12 4 C 10.316406 4 8.894531 4.605469 7.738281 5.8125 C 6.578125 7.019531 6 8.484375 6 10.199219 C 6 11.382812 6.492188 12.734375 7.476562 14.25 C 8.457031 15.765625 9.964844 17.457031 12 19.324219 C 12.933594 18.476562 13.757812 17.671875 14.476562 16.914062 C 15.191406 16.152344 15.785156 15.398438 16.25 14.648438 C 16.367188 14.464844 16.503906 14.3125 16.664062 14.1875 C 16.820312 14.0625 17 14 17.199219 14 C 17.484375 14 17.726562 14.101562 17.925781 14.300781 C 18.125 14.5 18.226562 14.742188 18.226562 15.023438 C 18.226562 15.160156 18.195312 15.285156 18.136719 15.398438 C 18.078125 15.515625 18.007812 15.632812 17.925781 15.75 Z M 18.75 9.449219 C 18.035156 9.316406 16.886719 9.390625 15.3125 9.675781 C 13.738281 9.957031 11.964844 11.058594 10 12.976562 C 10.535156 11.023438 11.609375 9.457031 13.226562 8.273438 C 14.839844 7.089844 16.667969 6.5 18.699219 6.5 L 17.300781 5.101562 C 17.117188 4.917969 17.023438 4.683594 17.023438 4.398438 C 17.023438 4.117188 17.117188 3.882812 17.300781 3.699219 C 17.484375 3.515625 17.714844 3.425781 18 3.425781 C 18.285156 3.425781 18.515625 3.515625 18.699219 3.699219 L 22.300781 7.300781 C 22.5 7.5 22.601562 7.734375 22.601562 8 C 22.601562 8.265625 22.5 8.5 22.300781 8.699219 L 18.699219 12.300781 C 18.515625 12.484375 18.289062 12.574219 18.011719 12.574219 C 17.738281 12.574219 17.5 12.484375 17.300781 12.300781 C 17.117188 12.117188 17.023438 11.882812 17.023438 11.601562 C 17.023438 11.316406 17.117188 11.082031 17.300781 10.898438 Z M 18.75 9.449219 "/>
</g>
</svg>
