<?xml version="1.0" encoding="UTF-8"?>
<svg xmlns="http://www.w3.org/2000/svg" xmlns:xlink="http://www.w3.org/1999/xlink" width="24px" height="24px" viewBox="0 0 24 24" version="1.1">
<g id="surface1">
<path style=" stroke:none;fill-rule:nonzero;fill:rgb(0%,0%,0%);fill-opacity:1;" d="M 8 18 C 7.449219 18 6.980469 17.804688 6.585938 17.414062 C 6.195312 17.019531 6 16.550781 6 16 L 6 15 C 6 14.714844 6.097656 14.480469 6.289062 14.289062 C 6.480469 14.097656 6.714844 14 7 14 C 7.285156 14 7.519531 14.097656 7.710938 14.289062 C 7.902344 14.480469 8 14.714844 8 15 L 8 16 L 20 16 L 20 6 L 8 6 L 8 7 C 8 7.285156 7.902344 7.519531 7.710938 7.710938 C 7.519531 7.902344 7.285156 8 7 8 C 6.714844 8 6.480469 7.902344 6.289062 7.710938 C 6.097656 7.519531 6 7.285156 6 7 L 6 4 C 6 3.449219 6.195312 2.980469 6.585938 2.585938 C 6.980469 2.195312 7.449219 2 8 2 L 20 2 C 20.550781 2 21.019531 2.195312 21.414062 2.585938 C 21.804688 2.980469 22 3.449219 22 4 L 22 16 C 22 16.550781 21.804688 17.019531 21.414062 17.414062 C 21.019531 17.804688 20.550781 18 20 18 Z M 4 22 C 3.449219 22 2.980469 21.804688 2.585938 21.414062 C 2.195312 21.019531 2 20.550781 2 20 L 2 7 C 2 6.714844 2.097656 6.480469 2.289062 6.289062 C 2.480469 6.097656 2.714844 6 3 6 C 3.285156 6 3.519531 6.097656 3.710938 6.289062 C 3.902344 6.480469 4 6.714844 4 7 L 4 20 L 17 20 C 17.285156 20 17.519531 20.097656 17.710938 20.289062 C 17.902344 20.480469 18 20.714844 18 21 C 18 21.285156 17.902344 21.519531 17.710938 21.710938 C 17.519531 21.902344 17.285156 22 17 22 Z M 13.175781 12 L 7 12 C 6.714844 12 6.480469 11.902344 6.289062 11.710938 C 6.097656 11.519531 6 11.285156 6 11 C 6 10.714844 6.097656 10.480469 6.289062 10.289062 C 6.480469 10.097656 6.714844 10 7 10 L 13.175781 10 L 12.273438 9.101562 C 12.089844 8.917969 12 8.6875 12 8.414062 C 12 8.136719 12.101562 7.898438 12.300781 7.699219 C 12.484375 7.515625 12.714844 7.425781 13 7.425781 C 13.285156 7.425781 13.515625 7.515625 13.699219 7.699219 L 16.300781 10.300781 C 16.5 10.5 16.601562 10.734375 16.601562 11 C 16.601562 11.265625 16.5 11.5 16.300781 11.699219 L 13.699219 14.300781 C 13.515625 14.484375 13.289062 14.578125 13.011719 14.585938 C 12.738281 14.597656 12.5 14.5 12.300781 14.300781 C 12.117188 14.117188 12.023438 13.882812 12.023438 13.601562 C 12.023438 13.316406 12.117188 13.082031 12.300781 12.898438 Z M 13.175781 12 "/>
</g>
</svg>
