<svg xmlns="http://www.w3.org/2000/svg" width="24px" height="24px"><path d="M11 17q-.175 0-.3-.1t-.175-.25q-.35-1.05-.85-1.75t-1-1.35q-.5-.65-.838-1.35T7.5 10.5q0-1.45 1.025-2.475T11 7q1.45 0 2.475 1.025T14.5 10.5q0 1-.338 1.7t-.837 1.35q-.5.65-1 1.35t-.85 1.75q-.05.15-.175.25t-.3.1Zm0-2.8q.225-.35.45-.65t.425-.575q.575-.75.85-1.25T13 10.5q0-.825-.588-1.413T11 8.5q-.825 0-1.413.588T9 10.5q0 .725.275 1.225t.85 1.25q.2.275.425.575t.45.65Zm0-2.45q.525 0 .888-.363t.362-.887q0-.525-.363-.888T11 9.25q-.525 0-.888.363t-.362.887q0 .525.363.888t.887.362Zm0-1.25ZM11 21q-3.75 0-6.375-2.625T2 12q0-1.875.713-3.513t1.924-2.85q1.213-1.212 2.85-1.924T11 3q1.875 0 3.513.713t2.85 1.924q1.212 1.213 1.925 2.85T20 12v.2l.625-.625q.275-.3.688-.3t.712.275q.3.3.3.712t-.3.713L19.7 15.3q-.3.3-.7.3t-.7-.3l-2.35-2.35q-.3-.3-.287-.7t.312-.7q.3-.275.7-.287t.7.287l.625.625V12q0-2.9-2.05-4.95T11 5Q8.1 5 6.05 7.05T4 12q.025 2.9 2.063 4.95T11 19q1.175 0 2.212-.35t1.913-1q.35-.25.763-.25t.687.275q.3.3.3.725t-.35.7q-1.15.9-2.55 1.4T11 21Z"/></svg>