<?xml version="1.0" encoding="UTF-8"?>
<svg xmlns="http://www.w3.org/2000/svg" xmlns:xlink="http://www.w3.org/1999/xlink" width="24px" height="24px" viewBox="0 0 24 24" version="1.1">
<g id="surface1">
<path style=" stroke:none;fill-rule:nonzero;fill:rgb(0%,0%,0%);fill-opacity:1;" d="M 13 17.023438 C 13 17.457031 13.042969 17.878906 13.125 18.289062 C 13.207031 18.695312 13.339844 19.089844 13.523438 19.476562 L 12.699219 20.300781 C 12.5 20.5 12.265625 20.601562 12 20.601562 C 11.734375 20.601562 11.5 20.5 11.300781 20.300781 L 0.75 9.75 C 0.550781 9.550781 0.449219 9.304688 0.449219 9.011719 C 0.449219 8.722656 0.566406 8.484375 0.800781 8.300781 C 2.417969 6.898438 4.148438 5.832031 6 5.101562 C 7.851562 4.367188 9.851562 4 12 4 C 14.167969 4 16.171875 4.363281 18.011719 5.085938 C 19.855469 5.8125 21.582031 6.882812 23.199219 8.300781 C 23.417969 8.484375 23.527344 8.722656 23.539062 9.011719 C 23.546875 9.304688 23.449219 9.550781 23.25 9.75 L 21.476562 11.523438 C 21.109375 11.359375 20.734375 11.234375 20.351562 11.148438 C 19.964844 11.066406 19.566406 11.015625 19.148438 11 L 21.101562 9.050781 C 19.800781 8.066406 18.378906 7.3125 16.835938 6.789062 C 15.296875 6.261719 13.683594 6 12 6 C 10.316406 6 8.703125 6.261719 7.164062 6.789062 C 5.621094 7.3125 4.199219 8.066406 2.898438 9.050781 L 8.699219 14.851562 C 9.398438 14.433594 10.214844 14.164062 11.148438 14.039062 C 12.082031 13.914062 12.933594 13.964844 13.699219 14.199219 C 13.464844 14.617188 13.292969 15.078125 13.175781 15.585938 C 13.058594 16.097656 13 16.574219 13 17.023438 Z M 17 21 C 16.714844 21 16.480469 20.902344 16.289062 20.710938 C 16.097656 20.519531 16 20.285156 16 20 L 16 17 C 16 16.714844 16.097656 16.480469 16.289062 16.289062 C 16.480469 16.097656 16.714844 16 17 16 L 17 15 C 17 14.449219 17.195312 13.980469 17.585938 13.585938 C 17.980469 13.195312 18.449219 13 19 13 C 19.550781 13 20.019531 13.195312 20.414062 13.585938 C 20.804688 13.980469 21 14.449219 21 15 L 21 16 C 21.285156 16 21.519531 16.097656 21.710938 16.289062 C 21.902344 16.480469 22 16.714844 22 17 L 22 20 C 22 20.285156 21.902344 20.519531 21.710938 20.710938 C 21.519531 20.902344 21.285156 21 21 21 Z M 18 16 L 20 16 L 20 15 C 20 14.714844 19.902344 14.480469 19.710938 14.289062 C 19.519531 14.097656 19.285156 14 19 14 C 18.714844 14 18.480469 14.097656 18.289062 14.289062 C 18.097656 14.480469 18 14.714844 18 15 Z M 18 16 "/>
</g>
</svg>
