<svg xmlns="http://www.w3.org/2000/svg" width="24" height="24" viewBox="0 0 24 24"><path d="M9.325 16.775q.425-.275.888-.45t.962-.25q-.125.475-.2.95T10.9 18q0 .6.088 1.175t.287 1.1l-2.025-2.05q-.3-.325-.287-.75t.362-.7ZM12 10q1.225 0 2.4.263t2.25.762q-1.1.2-2.037.725t-1.688 1.3q-.225-.025-.463-.038T12 13q-1.225 0-2.35.35t-2.125 1.025q-.525.35-1.163.35t-1.062-.45q-.45-.45-.412-1.088t.537-1.012q1.425-1.05 3.1-1.613T12 10Zm0-6q2.975 0 5.763 1t5.062 2.9q.5.425.538 1.063t-.413 1.087q-.45.45-1.075.438t-1.125-.413q-1.875-1.5-4.1-2.287T12 7q-2.425 0-4.65.788t-4.1 2.287q-.5.4-1.125.413T1.05 10.05Q.6 9.6.637 8.962T1.175 7.9Q3.45 6 6.238 5T12 4Zm4.7 17.5q-.3-.125-.562-.263T15.6 20.9l-.725.225q-.325.1-.637-.025t-.488-.4l-.2-.35q-.175-.3-.125-.65t.325-.575l.55-.475q-.05-.3-.05-.65t.05-.65l-.55-.475q-.275-.225-.325-.562t.125-.638l.225-.375q.175-.275.475-.4t.625-.025l.725.225q.275-.2.537-.337t.563-.263l.15-.725q.075-.35.337-.563T17.8 13h.4q.35 0 .613.225t.337.575l.15.7q.3.125.562.262t.538.338l.725-.225q.325-.1.638.025t.487.4l.2.35q.175.3.125.65t-.325.575l-.55.475q.05.3.05.65t-.05.65l.55.475q.275.225.325.563t-.125.637l-.225.375q-.175.275-.475.4t-.625.025L20.4 20.9q-.275.2-.537.337t-.563.263l-.15.725q-.075.35-.337.563T18.2 23h-.4q-.35 0-.613-.225t-.337-.575l-.15-.7ZM18 16q-.825 0-1.412.588T16 18q0 .825.588 1.413T18 20q.825 0 1.413-.588T20 18q0-.825-.588-1.413T18 16Z"/></svg>