<svg xmlns="http://www.w3.org/2000/svg" width="24" height="24" viewBox="0 0 24 24"><path d="M5 21q-.825 0-1.413-.588T3 19V5q0-.825.588-1.413T5 3h10.175q.4 0 .763.15t.637.425l3.85 3.85q.275.275.425.638t.15.762V19q0 .825-.588 1.413T19 21H5Zm0-2h14V9h-3q-.425 0-.713-.288T15 8V5H5v14Zm11-2q.425 0 .713-.288T17 16q0-.425-.288-.713T16 15H8q-.425 0-.713.288T7 16q0 .425.288.713T8 17h8Zm-5-8q.425 0 .713-.288T12 8q0-.425-.288-.713T11 7H8q-.425 0-.713.288T7 8q0 .425.288.713T8 9h3Zm5 4q.425 0 .713-.288T17 12q0-.425-.288-.713T16 11H8q-.425 0-.713.288T7 12q0 .425.288.713T8 13h8ZM5 5v4v-4v14V5Z"/></svg>