<?xml version="1.0" encoding="UTF-8"?>
<svg xmlns="http://www.w3.org/2000/svg" xmlns:xlink="http://www.w3.org/1999/xlink" width="24px" height="24px" viewBox="0 0 24 24" version="1.1">
<g id="surface1">
<path style=" stroke:none;fill-rule:nonzero;fill:rgb(0%,0%,0%);fill-opacity:1;" d="M 17 8 L 15 8 C 14.714844 8 14.480469 7.902344 14.289062 7.710938 C 14.097656 7.519531 14 7.285156 14 7 C 14 6.714844 14.097656 6.480469 14.289062 6.289062 C 14.480469 6.097656 14.714844 6 15 6 L 17 6 L 17 4 C 17 3.714844 17.097656 3.480469 17.289062 3.289062 C 17.480469 3.097656 17.714844 3 18 3 C 18.285156 3 18.519531 3.097656 18.710938 3.289062 C 18.902344 3.480469 19 3.714844 19 4 L 19 6 L 21 6 C 21.285156 6 21.519531 6.097656 21.710938 6.289062 C 21.902344 6.480469 22 6.714844 22 7 C 22 7.285156 21.902344 7.519531 21.710938 7.710938 C 21.519531 7.902344 21.285156 8 21 8 L 19 8 L 19 10 C 19 10.285156 18.902344 10.519531 18.710938 10.710938 C 18.519531 10.902344 18.285156 11 18 11 C 17.714844 11 17.480469 10.902344 17.289062 10.710938 C 17.097656 10.519531 17 10.285156 17 10 Z M 11 19 C 11.898438 19 12.738281 18.820312 13.511719 18.460938 C 14.289062 18.105469 14.949219 17.609375 15.5 16.976562 C 13.398438 16.839844 11.625 16.011719 10.175781 14.488281 C 8.726562 12.960938 8 11.132812 8 9 C 8 8.785156 8.007812 8.570312 8.023438 8.363281 C 8.042969 8.152344 8.066406 7.949219 8.101562 7.75 C 7.167969 8.265625 6.417969 8.988281 5.851562 9.914062 C 5.285156 10.835938 5 11.867188 5 13 C 5 14.667969 5.582031 16.082031 6.75 17.25 C 7.917969 18.417969 9.332031 19 11 19 Z M 18.351562 16.175781 C 17.714844 17.640625 16.738281 18.8125 15.414062 19.6875 C 14.085938 20.5625 12.617188 21 11 21 C 8.765625 21 6.875 20.226562 5.324219 18.675781 C 3.773438 17.125 3 15.234375 3 13 C 3 11.082031 3.613281 9.390625 4.835938 7.925781 C 6.0625 6.457031 7.617188 5.535156 9.5 5.148438 C 9.699219 5.117188 9.878906 5.132812 10.039062 5.199219 C 10.195312 5.265625 10.316406 5.375 10.398438 5.523438 C 10.484375 5.675781 10.535156 5.855469 10.550781 6.0625 C 10.566406 6.269531 10.535156 6.492188 10.449219 6.726562 C 10.300781 7.089844 10.1875 7.464844 10.113281 7.851562 C 10.039062 8.234375 10 8.617188 10 9 C 10 10.667969 10.582031 12.082031 11.75 13.25 C 12.917969 14.417969 14.332031 15 16 15 C 16.183594 15 16.359375 14.996094 16.523438 14.988281 C 16.691406 14.980469 16.859375 14.957031 17.023438 14.925781 C 17.324219 14.875 17.570312 14.882812 17.761719 14.949219 C 17.953125 15.015625 18.109375 15.117188 18.226562 15.25 C 18.339844 15.382812 18.414062 15.527344 18.4375 15.6875 C 18.460938 15.847656 18.433594 16.007812 18.351562 16.175781 Z M 10.175781 14.476562 Z M 10.175781 14.476562 "/>
</g>
</svg>
