<?xml version="1.0" encoding="UTF-8"?>
<svg xmlns="http://www.w3.org/2000/svg" xmlns:xlink="http://www.w3.org/1999/xlink" width="24px" height="24px" viewBox="0 0 24 24" version="1.1">
<g id="surface1">
<path style=" stroke:none;fill-rule:nonzero;fill:rgb(0%,0%,0%);fill-opacity:1;" d="M 18 13.398438 L 16.101562 15.300781 C 15.917969 15.484375 15.683594 15.574219 15.398438 15.574219 C 15.117188 15.574219 14.882812 15.484375 14.699219 15.300781 C 14.515625 15.117188 14.425781 14.882812 14.425781 14.601562 C 14.425781 14.316406 14.515625 14.082031 14.699219 13.898438 L 16.601562 12 L 14.699219 10.101562 C 14.515625 9.917969 14.425781 9.683594 14.425781 9.398438 C 14.425781 9.117188 14.515625 8.882812 14.699219 8.699219 C 14.882812 8.515625 15.117188 8.425781 15.398438 8.425781 C 15.683594 8.425781 15.917969 8.515625 16.101562 8.699219 L 18 10.601562 L 19.898438 8.699219 C 20.082031 8.515625 20.316406 8.425781 20.601562 8.425781 C 20.882812 8.425781 21.117188 8.515625 21.300781 8.699219 C 21.484375 8.882812 21.574219 9.117188 21.574219 9.398438 C 21.574219 9.683594 21.484375 9.917969 21.300781 10.101562 L 19.398438 12 L 21.300781 13.898438 C 21.484375 14.082031 21.574219 14.316406 21.574219 14.601562 C 21.574219 14.882812 21.484375 15.117188 21.300781 15.300781 C 21.117188 15.484375 20.882812 15.574219 20.601562 15.574219 C 20.316406 15.574219 20.082031 15.484375 19.898438 15.300781 Z M 7 15 L 4 15 C 3.714844 15 3.480469 14.902344 3.289062 14.710938 C 3.097656 14.519531 3 14.285156 3 14 L 3 10 C 3 9.714844 3.097656 9.480469 3.289062 9.289062 C 3.480469 9.097656 3.714844 9 4 9 L 7 9 L 10.300781 5.699219 C 10.617188 5.382812 10.980469 5.3125 11.386719 5.488281 C 11.796875 5.664062 12 5.976562 12 6.425781 L 12 17.574219 C 12 18.023438 11.796875 18.335938 11.386719 18.511719 C 10.980469 18.6875 10.617188 18.617188 10.300781 18.300781 Z M 10 8.851562 L 7.851562 11 L 5 11 L 5 13 L 7.851562 13 L 10 15.148438 Z M 7.5 12 Z M 7.5 12 "/>
</g>
</svg>
