<svg xmlns="http://www.w3.org/2000/svg" width="24" height="24" viewBox="0 0 24 24"><path d="M5.775 9.075q-.55-.725-.888-1.575T4.55 5.725v-.35q0-.175.025-.35q.05-.425.313-.725t.687-.3q.45 0 .75.3t.25.725q-.025.15-.038.313t-.012.312q0 .775.375 1.45t.85 1.3q.525.725.875 1.525t.35 1.675v.375q-.025.425-.3.725t-.7.3q-.425 0-.738-.287T6.975 12Q7 11.875 7 11.775v-.225q0-.725-.4-1.313t-.825-1.162Zm4 0q-.55-.725-.888-1.575T8.55 5.725v-.35q0-.175.025-.35q.05-.425.313-.725t.687-.3q.45 0 .75.3t.25.725q-.025.15-.037.313t-.013.312q0 .775.375 1.45t.85 1.3q.525.725.875 1.525t.35 1.675v.375q-.025.425-.3.725t-.7.3q-.425 0-.738-.287T10.975 12q.025-.125.025-.225v-.225q0-.725-.4-1.313t-.825-1.162Zm4 0q-.55-.725-.888-1.575t-.337-1.775v-.35q0-.175.025-.35q.05-.425.313-.725t.687-.3q.45 0 .75.3t.25.725q-.025.15-.037.313t-.013.312q0 .775.375 1.45t.85 1.3q.525.725.875 1.525t.35 1.675v.375q-.025.425-.3.725t-.7.3q-.425 0-.737-.287T14.975 12q.025-.125.025-.225v-.225q0-.725-.4-1.313t-.825-1.162ZM12 20q-3.725 0-6.363-1.463T3 15q0-1.075.775-2.038T6 11.276V13.6q-.5.35-.75.713T5 15q0 1.125 2.175 2.063T12 18q2.65 0 4.825-.938T19 15q0-.325-.25-.688T18 13.6v-2.325q1.45.725 2.225 1.688T21 15q0 2.075-2.625 3.538T12 20Z"/></svg>