<?xml version="1.0" encoding="UTF-8"?>
<svg xmlns="http://www.w3.org/2000/svg" xmlns:xlink="http://www.w3.org/1999/xlink" width="24px" height="24px" viewBox="0 0 24 24" version="1.1">
<g id="surface1">
<path style=" stroke:none;fill-rule:nonzero;fill:rgb(0%,0%,0%);fill-opacity:1;" d="M 11 19 L 7 19 C 6.714844 19 6.480469 19.097656 6.289062 19.289062 C 6.097656 19.480469 6 19.714844 6 20 C 6 20.285156 6.097656 20.519531 6.289062 20.710938 C 6.480469 20.902344 6.714844 21 7 21 L 17 21 C 17.285156 21 17.519531 20.902344 17.710938 20.710938 C 17.902344 20.519531 18 20.285156 18 20 C 18 19.714844 17.902344 19.480469 17.710938 19.289062 C 17.519531 19.097656 17.285156 19 17 19 L 13 19 L 13 11.800781 L 13.898438 12.699219 C 14.082031 12.882812 14.316406 12.976562 14.601562 12.976562 C 14.882812 12.976562 15.117188 12.882812 15.300781 12.699219 C 15.484375 12.515625 15.574219 12.285156 15.574219 12 C 15.574219 11.714844 15.484375 11.484375 15.300781 11.300781 L 12.699219 8.699219 C 12.5 8.5 12.265625 8.398438 12 8.398438 C 11.734375 8.398438 11.5 8.5 11.300781 8.699219 L 8.699219 11.300781 C 8.515625 11.484375 8.425781 11.714844 8.425781 12 C 8.425781 12.285156 8.515625 12.515625 8.699219 12.699219 C 8.882812 12.882812 9.117188 12.976562 9.398438 12.976562 C 9.683594 12.976562 9.917969 12.882812 10.101562 12.699219 L 11 11.800781 Z M 12 12 Z M 4 16 C 3.449219 16 2.980469 15.804688 2.585938 15.414062 C 2.195312 15.019531 2 14.550781 2 14 L 2 5 C 2 4.449219 2.195312 3.980469 2.585938 3.585938 C 2.980469 3.195312 3.449219 3 4 3 L 20 3 C 20.550781 3 21.019531 3.195312 21.414062 3.585938 C 21.804688 3.980469 22 4.449219 22 5 L 22 14 C 22 14.550781 21.804688 15.019531 21.414062 15.414062 C 21.019531 15.804688 20.550781 16 20 16 L 16 16 C 15.714844 16 15.480469 15.902344 15.289062 15.710938 C 15.097656 15.519531 15 15.285156 15 15 C 15 14.714844 15.097656 14.480469 15.289062 14.289062 C 15.480469 14.097656 15.714844 14 16 14 L 20 14 L 20 5 L 4 5 L 4 14 L 8 14 C 8.285156 14 8.519531 14.097656 8.710938 14.289062 C 8.902344 14.480469 9 14.714844 9 15 C 9 15.285156 8.902344 15.519531 8.710938 15.710938 C 8.519531 15.902344 8.285156 16 8 16 Z M 4 16 "/>
</g>
</svg>
