<?xml version="1.0" encoding="UTF-8"?>
<svg xmlns="http://www.w3.org/2000/svg" xmlns:xlink="http://www.w3.org/1999/xlink" width="24px" height="24px" viewBox="0 0 24 24" version="1.1">
<g id="surface1">
<path style=" stroke:none;fill-rule:nonzero;fill:rgb(0%,0%,0%);fill-opacity:1;" d="M 4 14 C 3.449219 14 2.980469 13.804688 2.585938 13.414062 C 2.195312 13.019531 2 12.550781 2 12 C 2 11.449219 2.195312 10.980469 2.585938 10.585938 C 2.980469 10.195312 3.449219 10 4 10 C 4.550781 10 5.019531 10.195312 5.414062 10.585938 C 5.804688 10.980469 6 11.449219 6 12 C 6 12.550781 5.804688 13.019531 5.414062 13.414062 C 5.019531 13.804688 4.550781 14 4 14 Z M 4 12.648438 C 4.183594 12.648438 4.335938 12.585938 4.460938 12.460938 C 4.585938 12.335938 4.648438 12.183594 4.648438 12 C 4.648438 11.816406 4.585938 11.664062 4.460938 11.539062 C 4.335938 11.414062 4.183594 11.351562 4 11.351562 C 3.816406 11.351562 3.664062 11.414062 3.539062 11.539062 C 3.414062 11.664062 3.351562 11.816406 3.351562 12 C 3.351562 12.183594 3.414062 12.335938 3.539062 12.460938 C 3.664062 12.585938 3.816406 12.648438 4 12.648438 Z M 9.351562 14 C 8.800781 14 8.328125 13.804688 7.9375 13.414062 C 7.546875 13.019531 7.351562 12.550781 7.351562 12 C 7.351562 11.449219 7.546875 10.980469 7.9375 10.585938 C 8.328125 10.195312 8.800781 10 9.351562 10 C 9.898438 10 10.371094 10.195312 10.761719 10.585938 C 11.152344 10.980469 11.351562 11.449219 11.351562 12 C 11.351562 12.550781 11.152344 13.019531 10.761719 13.414062 C 10.371094 13.804688 9.898438 14 9.351562 14 Z M 9.351562 12.648438 C 9.535156 12.648438 9.6875 12.585938 9.8125 12.460938 C 9.9375 12.335938 10 12.183594 10 12 C 10 11.816406 9.9375 11.664062 9.8125 11.539062 C 9.6875 11.414062 9.535156 11.351562 9.351562 11.351562 C 9.167969 11.351562 9.011719 11.414062 8.886719 11.539062 C 8.761719 11.664062 8.699219 11.816406 8.699219 12 C 8.699219 12.183594 8.761719 12.335938 8.886719 12.460938 C 9.011719 12.585938 9.167969 12.648438 9.351562 12.648438 Z M 14.648438 14 C 14.101562 14 13.628906 13.804688 13.238281 13.414062 C 12.847656 13.019531 12.648438 12.550781 12.648438 12 C 12.648438 11.449219 12.847656 10.980469 13.238281 10.585938 C 13.628906 10.195312 14.101562 10 14.648438 10 C 15.199219 10 15.671875 10.195312 16.0625 10.585938 C 16.453125 10.980469 16.648438 11.449219 16.648438 12 C 16.648438 12.550781 16.453125 13.019531 16.0625 13.414062 C 15.671875 13.804688 15.199219 14 14.648438 14 Z M 14.648438 12.648438 C 14.832031 12.648438 14.988281 12.585938 15.113281 12.460938 C 15.238281 12.335938 15.300781 12.183594 15.300781 12 C 15.300781 11.816406 15.238281 11.664062 15.113281 11.539062 C 14.988281 11.414062 14.832031 11.351562 14.648438 11.351562 C 14.464844 11.351562 14.3125 11.414062 14.1875 11.539062 C 14.0625 11.664062 14 11.816406 14 12 C 14 12.183594 14.0625 12.335938 14.1875 12.460938 C 14.3125 12.585938 14.464844 12.648438 14.648438 12.648438 Z M 20 14 C 19.449219 14 18.980469 13.804688 18.585938 13.414062 C 18.195312 13.019531 18 12.550781 18 12 C 18 11.449219 18.195312 10.980469 18.585938 10.585938 C 18.980469 10.195312 19.449219 10 20 10 C 20.550781 10 21.019531 10.195312 21.414062 10.585938 C 21.804688 10.980469 22 11.449219 22 12 C 22 12.550781 21.804688 13.019531 21.414062 13.414062 C 21.019531 13.804688 20.550781 14 20 14 Z M 20 14 "/>
</g>
</svg>
