<?xml version="1.0" encoding="UTF-8"?>
<svg xmlns="http://www.w3.org/2000/svg" xmlns:xlink="http://www.w3.org/1999/xlink" width="24px" height="24px" viewBox="0 0 24 24" version="1.1">
<g id="surface1">
<path style=" stroke:none;fill-rule:nonzero;fill:rgb(0%,0%,0%);fill-opacity:1;" d="M 6.398438 19 L 8 19 C 8.285156 19 8.519531 19.097656 8.710938 19.289062 C 8.902344 19.480469 9 19.714844 9 20 C 9 20.285156 8.902344 20.519531 8.710938 20.710938 C 8.519531 20.902344 8.285156 21 8 21 L 4 21 C 3.714844 21 3.480469 20.902344 3.289062 20.710938 C 3.097656 20.519531 3 20.285156 3 20 L 3 16 C 3 15.714844 3.097656 15.480469 3.289062 15.289062 C 3.480469 15.097656 3.714844 15 4 15 C 4.285156 15 4.519531 15.097656 4.710938 15.289062 C 4.902344 15.480469 5 15.714844 5 16 L 5 17.601562 L 7.398438 15.199219 C 7.582031 15.015625 7.816406 14.925781 8.101562 14.925781 C 8.382812 14.925781 8.617188 15.015625 8.800781 15.199219 C 8.984375 15.382812 9.074219 15.617188 9.074219 15.898438 C 9.074219 16.183594 8.984375 16.417969 8.800781 16.601562 Z M 19 6.398438 L 16.601562 8.800781 C 16.417969 8.984375 16.183594 9.074219 15.898438 9.074219 C 15.617188 9.074219 15.382812 8.984375 15.199219 8.800781 C 15.015625 8.617188 14.925781 8.382812 14.925781 8.101562 C 14.925781 7.816406 15.015625 7.582031 15.199219 7.398438 L 17.601562 5 L 16 5 C 15.714844 5 15.480469 4.902344 15.289062 4.710938 C 15.097656 4.519531 15 4.285156 15 4 C 15 3.714844 15.097656 3.480469 15.289062 3.289062 C 15.480469 3.097656 15.714844 3 16 3 L 20 3 C 20.285156 3 20.519531 3.097656 20.710938 3.289062 C 20.902344 3.480469 21 3.714844 21 4 L 21 8 C 21 8.285156 20.902344 8.519531 20.710938 8.710938 C 20.519531 8.902344 20.285156 9 20 9 C 19.714844 9 19.480469 8.902344 19.289062 8.710938 C 19.097656 8.519531 19 8.285156 19 8 Z M 19 6.398438 "/>
</g>
</svg>
