<?xml version="1.0" encoding="UTF-8"?>
<svg xmlns="http://www.w3.org/2000/svg" xmlns:xlink="http://www.w3.org/1999/xlink" width="24px" height="24px" viewBox="0 0 24 24" version="1.1">
<g id="surface1">
<path style=" stroke:none;fill-rule:nonzero;fill:rgb(0%,0%,0%);fill-opacity:1;" d="M 5 21 C 4.449219 21 3.980469 20.804688 3.585938 20.414062 C 3.195312 20.019531 3 19.550781 3 19 L 3 17 C 3 16.714844 3.097656 16.480469 3.289062 16.289062 C 3.480469 16.097656 3.714844 16 4 16 C 4.285156 16 4.519531 16.097656 4.710938 16.289062 C 4.902344 16.480469 5 16.714844 5 17 L 5 19 L 19 19 L 19 17 C 19 16.714844 19.097656 16.480469 19.289062 16.289062 C 19.480469 16.097656 19.714844 16 20 16 C 20.285156 16 20.519531 16.097656 20.710938 16.289062 C 20.902344 16.480469 21 16.714844 21 17 L 21 19 C 21 19.550781 20.804688 20.019531 20.414062 20.414062 C 20.019531 20.804688 19.550781 21 19 21 Z M 12 17 C 11.714844 17 11.480469 16.902344 11.289062 16.710938 C 11.097656 16.519531 11 16.285156 11 16 C 11 15.714844 11.097656 15.480469 11.289062 15.289062 C 11.480469 15.097656 11.714844 15 12 15 C 12.285156 15 12.519531 15.097656 12.710938 15.289062 C 12.902344 15.480469 13 15.714844 13 16 C 13 16.285156 12.902344 16.519531 12.710938 16.710938 C 12.519531 16.902344 12.285156 17 12 17 Z M 12 13 C 11.714844 13 11.480469 12.902344 11.289062 12.710938 C 11.097656 12.519531 11 12.285156 11 12 L 11 4 C 11 3.714844 11.097656 3.480469 11.289062 3.289062 C 11.480469 3.097656 11.714844 3 12 3 C 12.285156 3 12.519531 3.097656 12.710938 3.289062 C 12.902344 3.480469 13 3.714844 13 4 L 13 12 C 13 12.285156 12.902344 12.519531 12.710938 12.710938 C 12.519531 12.902344 12.285156 13 12 13 Z M 12 13 "/>
</g>
</svg>
