<?xml version="1.0" encoding="UTF-8"?>
<svg xmlns="http://www.w3.org/2000/svg" xmlns:xlink="http://www.w3.org/1999/xlink" width="24px" height="24px" viewBox="0 0 24 24" version="1.1">
<g id="surface1">
<path style=" stroke:none;fill-rule:nonzero;fill:rgb(0%,0%,0%);fill-opacity:1;" d="M 7 11.5 L 8 11.5 L 8 10.5 L 7 10.5 Z M 5.5 14.25 L 5.5 10 C 5.5 9.714844 5.597656 9.480469 5.789062 9.289062 C 5.980469 9.097656 6.214844 9 6.5 9 L 8.5 9 C 8.785156 9 9.019531 9.097656 9.210938 9.289062 C 9.402344 9.480469 9.5 9.714844 9.5 10 L 9.5 12 C 9.5 12.285156 9.402344 12.519531 9.210938 12.710938 C 9.019531 12.902344 8.785156 13 8.5 13 L 7 13 L 7 14.25 C 7 14.464844 6.929688 14.644531 6.789062 14.789062 C 6.644531 14.929688 6.464844 15 6.25 15 C 6.035156 15 5.855469 14.929688 5.710938 14.789062 C 5.570312 14.644531 5.5 14.464844 5.5 14.25 Z M 11.398438 15 C 11.117188 15 10.878906 14.902344 10.6875 14.710938 C 10.496094 14.519531 10.398438 14.285156 10.398438 14 L 10.398438 10.398438 L 11.898438 11.898438 L 11.898438 13.5 L 12.898438 13.5 L 12.898438 12.898438 L 14.351562 14.351562 C 14.265625 14.550781 14.140625 14.707031 13.976562 14.824219 C 13.808594 14.941406 13.617188 15 13.398438 15 Z M 14.398438 11.574219 L 13.101562 10.300781 L 11.824219 9 L 13.398438 9 C 13.683594 9 13.921875 9.097656 14.113281 9.289062 C 14.304688 9.480469 14.398438 9.714844 14.398438 10 Z M 17 14.175781 L 15.5 12.675781 L 15.5 10 C 15.5 9.714844 15.597656 9.480469 15.789062 9.289062 C 15.980469 9.097656 16.214844 9 16.5 9 L 17.75 9 C 17.964844 9 18.144531 9.070312 18.289062 9.210938 C 18.429688 9.355469 18.5 9.535156 18.5 9.75 C 18.5 9.964844 18.429688 10.144531 18.289062 10.289062 C 18.144531 10.429688 17.964844 10.5 17.75 10.5 L 17 10.5 L 17 11.5 L 17.75 11.5 C 17.964844 11.5 18.144531 11.570312 18.289062 11.710938 C 18.429688 11.855469 18.5 12.035156 18.5 12.25 C 18.5 12.464844 18.429688 12.644531 18.289062 12.789062 C 18.144531 12.929688 17.964844 13 17.75 13 L 17 13 Z M 21 18.175781 L 19 16.175781 L 19 5 L 7.824219 5 L 5.824219 3 L 19 3 C 19.550781 3 20.019531 3.195312 20.414062 3.585938 C 20.804688 3.980469 21 4.449219 21 5 Z M 5 21 C 4.449219 21 3.980469 20.804688 3.585938 20.414062 C 3.195312 20.019531 3 19.550781 3 19 L 3 5 C 3 4.734375 3.050781 4.480469 3.148438 4.238281 C 3.25 3.996094 3.390625 3.785156 3.574219 3.601562 L 5 5 L 5 19 L 19 19 L 20.398438 20.425781 C 20.214844 20.609375 20.003906 20.75 19.761719 20.851562 C 19.519531 20.949219 19.265625 21 19 21 Z M 19.074219 21.898438 L 2.101562 4.898438 C 1.917969 4.714844 1.820312 4.488281 1.8125 4.210938 C 1.804688 3.9375 1.898438 3.699219 2.101562 3.5 C 2.285156 3.316406 2.515625 3.226562 2.800781 3.226562 C 3.082031 3.226562 3.316406 3.316406 3.5 3.5 L 20.5 20.5 C 20.699219 20.699219 20.796875 20.933594 20.789062 21.199219 C 20.777344 21.464844 20.675781 21.699219 20.476562 21.898438 C 20.273438 22.082031 20.042969 22.179688 19.773438 22.1875 C 19.507812 22.195312 19.273438 22.101562 19.074219 21.898438 Z M 10.601562 13.398438 Z M 13.425781 10.574219 Z M 13.425781 10.574219 "/>
</g>
</svg>
