<?xml version="1.0" encoding="UTF-8"?>
<svg xmlns="http://www.w3.org/2000/svg" xmlns:xlink="http://www.w3.org/1999/xlink" width="24px" height="24px" viewBox="0 0 24 24" version="1.1">
<g id="surface1">
<path style=" stroke:none;fill-rule:nonzero;fill:rgb(0%,0%,0%);fill-opacity:1;" d="M 4 20 C 3.449219 20 2.980469 19.804688 2.585938 19.414062 C 2.195312 19.019531 2 18.550781 2 18 L 2 6 C 2 5.449219 2.195312 4.980469 2.585938 4.585938 C 2.980469 4.195312 3.449219 4 4 4 L 20 4 C 20.550781 4 21.019531 4.195312 21.414062 4.585938 C 21.804688 4.980469 22 5.449219 22 6 L 22 18 C 22 18.550781 21.804688 19.019531 21.414062 19.414062 C 21.019531 19.804688 20.550781 20 20 20 Z M 4 18 L 20 18 L 20 6 L 4 6 Z M 4 18 L 4 6 Z M 10 13.351562 L 12.949219 16.300781 C 13.148438 16.5 13.382812 16.601562 13.648438 16.601562 C 13.917969 16.601562 14.148438 16.5 14.351562 16.300781 L 18.300781 12.351562 C 18.484375 12.167969 18.574219 11.9375 18.574219 11.664062 C 18.574219 11.386719 18.484375 11.148438 18.300781 10.949219 C 18.101562 10.75 17.863281 10.648438 17.585938 10.648438 C 17.3125 10.648438 17.074219 10.75 16.875 10.949219 L 13.648438 14.175781 L 10.699219 11.226562 C 10.5 11.023438 10.265625 10.925781 10 10.925781 C 9.734375 10.925781 9.5 11.023438 9.300781 11.226562 L 5.699219 14.824219 C 5.515625 15.007812 5.425781 15.238281 5.425781 15.511719 C 5.425781 15.789062 5.515625 16.023438 5.699219 16.226562 C 5.898438 16.425781 6.136719 16.523438 6.414062 16.523438 C 6.6875 16.523438 6.925781 16.425781 7.125 16.226562 Z M 13.050781 9.949219 L 13.523438 11 C 13.574219 11.101562 13.648438 11.148438 13.75 11.148438 C 13.851562 11.148438 13.925781 11.101562 13.976562 11 L 14.449219 9.949219 L 15.5 9.476562 C 15.601562 9.425781 15.648438 9.351562 15.648438 9.25 C 15.648438 9.148438 15.601562 9.074219 15.5 9.023438 L 14.449219 8.550781 L 13.976562 7.5 C 13.925781 7.398438 13.851562 7.351562 13.75 7.351562 C 13.648438 7.351562 13.574219 7.398438 13.523438 7.5 L 13.050781 8.550781 L 12 9.023438 C 11.898438 9.074219 11.851562 9.148438 11.851562 9.25 C 11.851562 9.351562 11.898438 9.425781 12 9.476562 Z M 13.050781 9.949219 "/>
</g>
</svg>
