<?xml version="1.0" encoding="UTF-8"?>
<svg xmlns="http://www.w3.org/2000/svg" xmlns:xlink="http://www.w3.org/1999/xlink" width="24px" height="24px" viewBox="0 0 24 24" version="1.1">
<g id="surface1">
<path style=" stroke:none;fill-rule:nonzero;fill:rgb(0%,0%,0%);fill-opacity:1;" d="M 12.824219 19 L 18.476562 19 L 18.476562 19.300781 C 18.476562 19.582031 18.378906 19.828125 18.1875 20.039062 C 17.996094 20.246094 17.757812 20.367188 17.476562 20.398438 L 4.726562 22 C 4.441406 22.035156 4.195312 21.972656 3.988281 21.8125 C 3.777344 21.652344 3.660156 21.433594 3.625 21.148438 L 2.023438 8.199219 C 1.992188 7.917969 2.054688 7.671875 2.210938 7.460938 C 2.371094 7.253906 2.589844 7.132812 2.875 7.101562 L 5.023438 6.851562 L 5.023438 8.851562 L 4.125 8.949219 L 5.476562 19.898438 Z M 14.523438 14 C 15.660156 14 16.621094 13.609375 17.414062 12.824219 C 18.203125 12.042969 18.640625 11.101562 18.726562 10 C 17.589844 10 16.621094 10.390625 15.8125 11.175781 C 15.003906 11.957031 14.574219 12.898438 14.523438 14 Z M 8.023438 17 C 7.742188 17 7.503906 16.902344 7.3125 16.710938 C 7.121094 16.519531 7.023438 16.285156 7.023438 16 L 7.023438 3 C 7.023438 2.714844 7.121094 2.480469 7.3125 2.289062 C 7.503906 2.097656 7.742188 2 8.023438 2 L 21.023438 2 C 21.308594 2 21.546875 2.097656 21.738281 2.289062 C 21.929688 2.480469 22.023438 2.714844 22.023438 3 L 22.023438 16 C 22.023438 16.285156 21.929688 16.519531 21.738281 16.710938 C 21.546875 16.902344 21.308594 17 21.023438 17 Z M 14.523438 14 C 14.476562 12.898438 14.046875 11.957031 13.238281 11.175781 C 12.429688 10.390625 11.457031 10 10.324219 10 C 10.410156 11.101562 10.847656 12.042969 11.636719 12.824219 C 12.429688 13.609375 13.390625 14 14.523438 14 Z M 14.523438 11 C 14.808594 11 15.046875 10.902344 15.238281 10.710938 C 15.429688 10.519531 15.523438 10.285156 15.523438 10 L 15.523438 9.75 L 15.773438 9.851562 C 16.023438 9.949219 16.277344 9.976562 16.539062 9.925781 C 16.796875 9.875 16.992188 9.734375 17.125 9.5 C 17.273438 9.25 17.324219 8.984375 17.273438 8.699219 C 17.226562 8.417969 17.058594 8.214844 16.773438 8.101562 L 16.523438 8 L 16.773438 7.898438 C 17.058594 7.785156 17.222656 7.578125 17.261719 7.289062 C 17.304688 6.996094 17.257812 6.734375 17.125 6.5 C 16.976562 6.25 16.773438 6.105469 16.523438 6.0625 C 16.273438 6.019531 16.023438 6.050781 15.773438 6.148438 L 15.523438 6.25 L 15.523438 6 C 15.523438 5.714844 15.429688 5.480469 15.238281 5.289062 C 15.046875 5.097656 14.808594 5 14.523438 5 C 14.242188 5 14.003906 5.097656 13.8125 5.289062 C 13.621094 5.480469 13.523438 5.714844 13.523438 6 L 13.523438 6.25 L 13.273438 6.148438 C 13.023438 6.050781 12.773438 6.019531 12.523438 6.0625 C 12.273438 6.105469 12.074219 6.25 11.925781 6.5 C 11.792969 6.734375 11.746094 6.996094 11.789062 7.289062 C 11.828125 7.578125 11.992188 7.785156 12.273438 7.898438 L 12.523438 8 L 12.273438 8.101562 C 11.992188 8.214844 11.824219 8.417969 11.773438 8.699219 C 11.726562 8.984375 11.773438 9.25 11.925781 9.5 C 12.058594 9.734375 12.253906 9.875 12.511719 9.925781 C 12.769531 9.976562 13.023438 9.949219 13.273438 9.851562 L 13.523438 9.75 L 13.523438 10 C 13.523438 10.285156 13.621094 10.519531 13.8125 10.710938 C 14.003906 10.902344 14.242188 11 14.523438 11 Z M 14.523438 9 C 14.242188 9 14.003906 8.902344 13.8125 8.710938 C 13.621094 8.519531 13.523438 8.285156 13.523438 8 C 13.523438 7.714844 13.621094 7.480469 13.8125 7.289062 C 14.003906 7.097656 14.242188 7 14.523438 7 C 14.808594 7 15.046875 7.097656 15.238281 7.289062 C 15.429688 7.480469 15.523438 7.714844 15.523438 8 C 15.523438 8.285156 15.429688 8.519531 15.238281 8.710938 C 15.046875 8.902344 14.808594 9 14.523438 9 Z M 9.023438 15 L 20.023438 15 L 20.023438 4 L 9.023438 4 Z M 5.476562 19.898438 Z M 9.023438 15 L 9.023438 4 Z M 9.023438 15 "/>
</g>
</svg>
