<?xml version="1.0" encoding="UTF-8"?>
<svg xmlns="http://www.w3.org/2000/svg" xmlns:xlink="http://www.w3.org/1999/xlink" width="24px" height="24px" viewBox="0 0 24 24" version="1.1">
<g id="surface1">
<path style=" stroke:none;fill-rule:nonzero;fill:rgb(0%,0%,0%);fill-opacity:1;" d="M 12.5 4.5 C 12.5 5.050781 12.304688 5.519531 11.914062 5.914062 C 11.519531 6.304688 11.050781 6.5 10.5 6.5 C 10.285156 6.5 10.082031 6.472656 9.898438 6.414062 C 9.714844 6.355469 9.535156 6.257812 9.351562 6.125 C 8.949219 6.257812 8.628906 6.5 8.386719 6.851562 C 8.144531 7.199219 8.023438 7.582031 8.023438 8 L 19.851562 8 C 20.148438 8 20.394531 8.117188 20.585938 8.351562 C 20.777344 8.582031 20.859375 8.851562 20.824219 9.148438 L 20.125 14.148438 C 20.089844 14.398438 19.980469 14.605469 19.789062 14.761719 C 19.597656 14.921875 19.375 15 19.125 15 L 15.101562 15 L 15.101562 13 L 18.273438 13 C 18.359375 12.5 18.429688 12 18.488281 11.5 C 18.546875 11 18.617188 10.5 18.699219 10 L 5.300781 10 C 5.382812 10.5 5.453125 11 5.511719 11.5 C 5.570312 12 5.640625 12.5 5.726562 13 L 8.898438 13 L 8.898438 15 L 4.875 15 C 4.625 15 4.402344 14.921875 4.210938 14.761719 C 4.019531 14.605469 3.910156 14.398438 3.875 14.148438 L 3.175781 9.148438 C 3.140625 8.851562 3.222656 8.582031 3.414062 8.351562 C 3.605469 8.117188 3.851562 8 4.148438 8 L 6 8 C 6 7.183594 6.226562 6.441406 6.675781 5.773438 C 7.125 5.109375 7.734375 4.617188 8.5 4.300781 C 8.550781 3.785156 8.765625 3.355469 9.148438 3.011719 C 9.535156 2.671875 9.984375 2.5 10.5 2.5 C 11.050781 2.5 11.519531 2.695312 11.914062 3.085938 C 12.304688 3.480469 12.5 3.949219 12.5 4.5 Z M 9.773438 19 L 14.226562 19 L 14.800781 13 L 9.199219 13 Z M 15.101562 21 L 8.898438 21 C 8.632812 21 8.414062 20.917969 8.238281 20.75 C 8.0625 20.582031 7.957031 20.367188 7.925781 20.101562 L 7.25 13.199219 C 7.183594 12.617188 7.351562 12.105469 7.75 11.664062 C 8.148438 11.222656 8.640625 11 9.226562 11 L 14.773438 11 C 15.359375 11 15.851562 11.222656 16.25 11.664062 C 16.648438 12.105469 16.816406 12.617188 16.75 13.199219 L 16.074219 20.101562 C 16.042969 20.367188 15.9375 20.582031 15.761719 20.75 C 15.585938 20.917969 15.367188 21 15.101562 21 Z M 15.101562 21 "/>
</g>
</svg>
