<?xml version="1.0" encoding="UTF-8"?>
<svg xmlns="http://www.w3.org/2000/svg" xmlns:xlink="http://www.w3.org/1999/xlink" width="24px" height="24px" viewBox="0 0 24 24" version="1.1">
<g id="surface1">
<path style=" stroke:none;fill-rule:nonzero;fill:rgb(0%,0%,0%);fill-opacity:1;" d="M 17.101562 14.273438 L 21.574219 9.800781 L 22.300781 10.523438 C 22.5 10.726562 22.601562 10.957031 22.601562 11.226562 C 22.601562 11.492188 22.5 11.726562 22.300781 11.925781 L 19.226562 15 C 19.023438 15.199219 18.789062 15.296875 18.511719 15.289062 C 18.238281 15.277344 18 15.175781 17.800781 14.976562 Z M 1 17.351562 C 1 16.949219 1.113281 16.582031 1.335938 16.25 C 1.5625 15.917969 1.867188 15.675781 2.25 15.523438 C 2.601562 15.390625 2.933594 15.234375 3.25 15.050781 C 3.566406 14.867188 3.882812 14.660156 4.199219 14.425781 L 5.648438 15.875 C 5.734375 15.992188 5.847656 16.046875 5.988281 16.039062 C 6.128906 16.027344 6.25 15.976562 6.351562 15.875 C 6.433594 15.792969 6.476562 15.679688 6.476562 15.539062 C 6.476562 15.394531 6.433594 15.265625 6.351562 15.148438 L 4.976562 13.773438 L 5.363281 13.386719 C 5.488281 13.261719 5.617188 13.125 5.75 12.976562 L 7.101562 14.351562 C 7.183594 14.464844 7.296875 14.523438 7.4375 14.523438 C 7.578125 14.523438 7.707031 14.464844 7.824219 14.351562 C 7.910156 14.265625 7.949219 14.152344 7.949219 14.011719 C 7.949219 13.871094 7.910156 13.742188 7.824219 13.625 L 6.449219 12.273438 C 6.535156 12.109375 6.621094 11.9375 6.710938 11.761719 C 6.804688 11.585938 6.882812 11.398438 6.949219 11.199219 L 8.574219 12.824219 C 8.660156 12.941406 8.769531 13 8.914062 13 C 9.054688 13 9.183594 12.941406 9.300781 12.824219 C 9.382812 12.742188 9.425781 12.632812 9.425781 12.5 C 9.425781 12.367188 9.382812 12.242188 9.300781 12.125 L 7.375 10.199219 L 8.25 7.773438 C 8.300781 7.640625 8.367188 7.507812 8.449219 7.375 C 8.535156 7.242188 8.625 7.125 8.726562 7.023438 L 12.375 3.398438 C 12.757812 3.015625 13.230469 2.828125 13.789062 2.835938 C 14.347656 2.847656 14.816406 3.042969 15.199219 3.425781 L 20.851562 9.074219 L 11.101562 19.375 C 10.917969 19.574219 10.699219 19.730469 10.449219 19.835938 C 10.199219 19.945312 9.933594 20 9.648438 20 L 3 20 C 2.449219 20 1.980469 19.804688 1.585938 19.414062 C 1.195312 19.019531 1 18.550781 1 18 Z M 9.625 18 L 18.050781 9.125 Z M 3 18 L 9.625 18 L 18.050781 9.125 L 13.773438 4.851562 L 10.125 8.476562 L 9.398438 10.5 L 10.148438 11.25 C 10.535156 11.648438 10.726562 12.128906 10.726562 12.6875 C 10.726562 13.246094 10.535156 13.714844 10.148438 14.101562 L 7.324219 16.925781 C 6.925781 17.324219 6.449219 17.523438 5.898438 17.523438 C 5.351562 17.523438 4.882812 17.324219 4.5 16.925781 L 4.300781 16.726562 C 4.082031 16.859375 3.867188 16.976562 3.648438 17.074219 C 3.433594 17.175781 3.214844 17.265625 3 17.351562 Z M 3 18 "/>
</g>
</svg>
