<?xml version="1.0" encoding="UTF-8"?>
<svg xmlns="http://www.w3.org/2000/svg" xmlns:xlink="http://www.w3.org/1999/xlink" width="24px" height="24px" viewBox="0 0 24 24" version="1.1">
<g id="surface1">
<path style=" stroke:none;fill-rule:nonzero;fill:rgb(0%,0%,0%);fill-opacity:1;" d="M 19.074219 21.898438 L 17.148438 20 L 5 20 C 4.714844 20 4.480469 19.902344 4.289062 19.710938 C 4.097656 19.519531 4 19.285156 4 19 L 4 17.199219 C 4 16.632812 4.144531 16.113281 4.4375 15.636719 C 4.730469 15.164062 5.117188 14.800781 5.601562 14.550781 C 6.351562 14.167969 7.113281 13.859375 7.886719 13.625 C 8.664062 13.390625 9.449219 13.214844 10.25 13.101562 L 2.074219 4.925781 C 1.875 4.726562 1.777344 4.488281 1.789062 4.210938 C 1.796875 3.9375 1.898438 3.699219 2.101562 3.5 C 2.300781 3.300781 2.539062 3.199219 2.8125 3.199219 C 3.085938 3.199219 3.324219 3.300781 3.523438 3.5 L 20.5 20.5 C 20.699219 20.699219 20.800781 20.933594 20.800781 21.199219 C 20.800781 21.464844 20.699219 21.699219 20.5 21.898438 C 20.300781 22.101562 20.0625 22.199219 19.789062 22.199219 C 19.511719 22.199219 19.273438 22.101562 19.074219 21.898438 Z M 12 18 L 15.148438 18 L 12.148438 15 L 12 15 Z M 18.398438 14.550781 C 18.882812 14.785156 19.265625 15.136719 19.550781 15.613281 C 19.832031 16.085938 19.984375 16.601562 20 17.148438 L 16.648438 13.800781 C 16.949219 13.917969 17.246094 14.035156 17.539062 14.148438 C 17.828125 14.265625 18.117188 14.398438 18.398438 14.550781 Z M 14.199219 11.351562 L 12.726562 9.875 C 13.109375 9.726562 13.417969 9.480469 13.648438 9.136719 C 13.882812 8.796875 14 8.417969 14 8 C 14 7.449219 13.804688 6.980469 13.414062 6.585938 C 13.019531 6.195312 12.550781 6 12 6 L 12 9.148438 L 8.648438 5.800781 C 9.035156 5.234375 9.515625 4.792969 10.101562 4.476562 C 10.683594 4.160156 11.316406 4 12 4 C 13.101562 4 14.042969 4.390625 14.824219 5.175781 C 15.609375 5.957031 16 6.898438 16 8 C 16 8.683594 15.839844 9.316406 15.523438 9.898438 C 15.207031 10.484375 14.765625 10.964844 14.199219 11.351562 Z M 14.199219 11.351562 "/>
</g>
</svg>
