<?xml version="1.0" encoding="UTF-8"?>
<svg xmlns="http://www.w3.org/2000/svg" xmlns:xlink="http://www.w3.org/1999/xlink" width="24px" height="24px" viewBox="0 0 24 24" version="1.1">
<g id="surface1">
<path style=" stroke:none;fill-rule:nonzero;fill:rgb(0%,0%,0%);fill-opacity:1;" d="M 11 6 C 10.449219 6 9.980469 5.804688 9.585938 5.414062 C 9.195312 5.019531 9 4.550781 9 4 C 9 3.449219 9.195312 2.980469 9.585938 2.585938 C 9.980469 2.195312 10.449219 2 11 2 C 11.550781 2 12.019531 2.195312 12.414062 2.585938 C 12.804688 2.980469 13 3.449219 13 4 C 13 4.550781 12.804688 5.019531 12.414062 5.414062 C 12.019531 5.804688 11.550781 6 11 6 Z M 11.5 22 C 11.082031 22 10.730469 21.855469 10.4375 21.5625 C 10.144531 21.269531 10 20.917969 10 20.5 L 10 17 L 9 17 C 8.714844 17 8.480469 16.902344 8.289062 16.710938 C 8.097656 16.519531 8 16.285156 8 16 L 8 10 C 8 9.167969 8.292969 8.457031 8.875 7.875 C 9.457031 7.292969 10.167969 7 11 7 C 11.832031 7 12.542969 7.292969 13.125 7.875 C 13.707031 8.457031 14 9.167969 14 10 C 14.601562 10.25 15.082031 10.648438 15.449219 11.199219 C 15.816406 11.75 16 12.351562 16 13 L 16 16 C 16 16.285156 15.902344 16.519531 15.710938 16.710938 C 15.519531 16.902344 15.285156 17 15 17 L 13 17 L 13 20.5 C 13 20.917969 12.855469 21.269531 12.5625 21.5625 C 12.269531 21.855469 11.917969 22 11.5 22 Z M 11.5 22 "/>
</g>
</svg>
