<?xml version="1.0" encoding="UTF-8"?>
<svg xmlns="http://www.w3.org/2000/svg" xmlns:xlink="http://www.w3.org/1999/xlink" width="24px" height="24px" viewBox="0 0 24 24" version="1.1">
<g id="surface1">
<path style=" stroke:none;fill-rule:nonzero;fill:rgb(0%,0%,0%);fill-opacity:1;" d="M 19.75 22.574219 L 17.148438 20 L 4 20 C 3.449219 20 2.980469 19.804688 2.585938 19.414062 C 2.195312 19.019531 2 18.550781 2 18 L 2 6 C 2 5.832031 2.015625 5.671875 2.050781 5.511719 C 2.082031 5.355469 2.140625 5.207031 2.226562 5.074219 L 1.351562 4.199219 C 1.148438 4 1.054688 3.761719 1.0625 3.488281 C 1.070312 3.210938 1.175781 2.976562 1.375 2.773438 C 1.574219 2.574219 1.8125 2.476562 2.085938 2.476562 C 2.363281 2.476562 2.601562 2.574219 2.800781 2.773438 L 21.175781 21.175781 C 21.375 21.375 21.476562 21.609375 21.476562 21.875 C 21.476562 22.140625 21.375 22.375 21.175781 22.574219 C 20.976562 22.773438 20.738281 22.875 20.460938 22.875 C 20.1875 22.875 19.949219 22.773438 19.75 22.574219 Z M 4 16.601562 L 8.875 11.726562 L 6.800781 9.625 L 4 12.425781 Z M 4 9.601562 L 5.375 8.226562 L 4 6.851562 Z M 5.398438 18 L 15.148438 18 L 10.273438 13.125 Z M 21.75 18.925781 L 20 17.148438 L 20 6 L 17.398438 6 L 13.125 10.273438 L 11.726562 8.875 L 14.574219 6 L 10.398438 6 L 9.648438 6.800781 L 6.851562 4 L 20 4 C 20.550781 4 21.019531 4.195312 21.414062 4.585938 C 21.804688 4.980469 22 5.449219 22 6 L 22 18 C 22 18.183594 21.980469 18.351562 21.9375 18.5 C 21.894531 18.648438 21.832031 18.792969 21.75 18.925781 Z M 9.574219 12.425781 Z M 14.425781 11.574219 Z M 14.425781 11.574219 "/>
</g>
</svg>
