<?xml version="1.0" encoding="UTF-8"?>
<svg xmlns="http://www.w3.org/2000/svg" xmlns:xlink="http://www.w3.org/1999/xlink" width="24px" height="24px" viewBox="0 0 24 24" version="1.1">
<g id="surface1">
<path style=" stroke:none;fill-rule:nonzero;fill:rgb(0%,0%,0%);fill-opacity:1;" d="M 5 14 L 5 12 L 7 12 L 7 14 Z M 3 12 L 3 10 L 5 10 L 5 12 Z M 12 5 L 12 3 L 14 3 L 14 5 Z M 4.5 7.5 L 7.5 7.5 L 7.5 4.5 L 4.5 4.5 Z M 3 8 L 3 4 C 3 3.714844 3.097656 3.480469 3.289062 3.289062 C 3.480469 3.097656 3.714844 3 4 3 L 8 3 C 8.285156 3 8.519531 3.097656 8.710938 3.289062 C 8.902344 3.480469 9 3.714844 9 4 L 9 8 C 9 8.285156 8.902344 8.519531 8.710938 8.710938 C 8.519531 8.902344 8.285156 9 8 9 L 4 9 C 3.714844 9 3.480469 8.902344 3.289062 8.710938 C 3.097656 8.519531 3 8.285156 3 8 Z M 4.5 19.5 L 7.5 19.5 L 7.5 16.5 L 4.5 16.5 Z M 3 20 L 3 16 C 3 15.714844 3.097656 15.480469 3.289062 15.289062 C 3.480469 15.097656 3.714844 15 4 15 L 8 15 C 8.285156 15 8.519531 15.097656 8.710938 15.289062 C 8.902344 15.480469 9 15.714844 9 16 L 9 20 C 9 20.285156 8.902344 20.519531 8.710938 20.710938 C 8.519531 20.902344 8.285156 21 8 21 L 4 21 C 3.714844 21 3.480469 20.902344 3.289062 20.710938 C 3.097656 20.519531 3 20.285156 3 20 Z M 16.5 7.5 L 19.5 7.5 L 19.5 4.5 L 16.5 4.5 Z M 15 8 L 15 4 C 15 3.714844 15.097656 3.480469 15.289062 3.289062 C 15.480469 3.097656 15.714844 3 16 3 L 20 3 C 20.285156 3 20.519531 3.097656 20.710938 3.289062 C 20.902344 3.480469 21 3.714844 21 4 L 21 8 C 21 8.285156 20.902344 8.519531 20.710938 8.710938 C 20.519531 8.902344 20.285156 9 20 9 L 16 9 C 15.714844 9 15.480469 8.902344 15.289062 8.710938 C 15.097656 8.519531 15 8.285156 15 8 Z M 9 14 L 9 12 L 7 12 L 7 10 L 11 10 L 11 14 Z M 10 9 L 10 5 L 12 5 L 12 7 L 14 7 L 14 9 Z M 5.25 6.75 L 5.25 5.25 L 6.75 5.25 L 6.75 6.75 Z M 5.25 18.75 L 5.25 17.25 L 6.75 17.25 L 6.75 18.75 Z M 17.25 6.75 L 17.25 5.25 L 18.75 5.25 L 18.75 6.75 Z M 16 18 L 14 18 C 13.714844 18 13.480469 17.902344 13.289062 17.710938 C 13.097656 17.519531 13 17.285156 13 17 C 13 16.714844 13.097656 16.480469 13.289062 16.289062 C 13.480469 16.097656 13.714844 16 14 16 L 16 16 L 16 14 C 16 13.714844 16.097656 13.480469 16.289062 13.289062 C 16.480469 13.097656 16.714844 13 17 13 C 17.285156 13 17.519531 13.097656 17.710938 13.289062 C 17.902344 13.480469 18 13.714844 18 14 L 18 16 L 20 16 C 20.285156 16 20.519531 16.097656 20.710938 16.289062 C 20.902344 16.480469 21 16.714844 21 17 C 21 17.285156 20.902344 17.519531 20.710938 17.710938 C 20.519531 17.902344 20.285156 18 20 18 L 18 18 L 18 20 C 18 20.285156 17.902344 20.519531 17.710938 20.710938 C 17.519531 20.902344 17.285156 21 17 21 C 16.714844 21 16.480469 20.902344 16.289062 20.710938 C 16.097656 20.519531 16 20.285156 16 20 Z M 16 18 "/>
</g>
</svg>
