<?xml version="1.0" encoding="UTF-8"?>
<svg xmlns="http://www.w3.org/2000/svg" xmlns:xlink="http://www.w3.org/1999/xlink" width="24px" height="24px" viewBox="0 0 24 24" version="1.1">
<g id="surface1">
<path style=" stroke:none;fill-rule:nonzero;fill:rgb(0%,0%,0%);fill-opacity:1;" d="M 7.375 21.023438 C 6.773438 21.007812 6.203125 20.855469 5.664062 20.5625 C 5.121094 20.269531 4.609375 19.839844 4.125 19.273438 C 3.457031 18.476562 2.9375 17.519531 2.5625 16.414062 C 2.1875 15.304688 2 14.167969 2 13 C 2 11.617188 2.261719 10.316406 2.789062 9.101562 C 3.3125 7.882812 4.023438 6.824219 4.925781 5.925781 C 5.824219 5.023438 6.882812 4.3125 8.101562 3.789062 C 9.316406 3.261719 10.617188 3 12 3 C 13.382812 3 14.683594 3.265625 15.898438 3.800781 C 17.117188 4.332031 18.175781 5.058594 19.074219 5.976562 C 19.976562 6.890625 20.6875 7.964844 21.210938 9.199219 C 21.738281 10.433594 22 11.757812 22 13.175781 C 22 14.457031 21.792969 15.660156 21.375 16.773438 C 20.957031 17.890625 20.367188 18.832031 19.601562 19.601562 C 19.132812 20.066406 18.640625 20.421875 18.125 20.664062 C 17.609375 20.902344 17.082031 21.023438 16.550781 21.023438 C 16.25 21.023438 15.949219 20.988281 15.648438 20.914062 C 15.351562 20.835938 15.050781 20.726562 14.75 20.574219 L 13.351562 19.875 C 13.148438 19.773438 12.9375 19.699219 12.710938 19.648438 C 12.488281 19.601562 12.25 19.574219 12 19.574219 C 11.75 19.574219 11.511719 19.601562 11.289062 19.648438 C 11.0625 19.699219 10.851562 19.773438 10.648438 19.875 L 9.25 20.574219 C 8.933594 20.742188 8.621094 20.863281 8.3125 20.9375 C 8.003906 21.011719 7.691406 21.042969 7.375 21.023438 Z M 7.425781 19.023438 C 7.574219 19.023438 7.730469 19.007812 7.886719 18.976562 C 8.046875 18.941406 8.199219 18.882812 8.351562 18.800781 L 9.75 18.101562 C 10.101562 17.917969 10.460938 17.785156 10.835938 17.699219 C 11.210938 17.617188 11.589844 17.574219 11.976562 17.574219 C 12.359375 17.574219 12.742188 17.617188 13.125 17.699219 C 13.507812 17.785156 13.875 17.917969 14.226562 18.101562 L 15.648438 18.800781 C 15.800781 18.882812 15.949219 18.941406 16.101562 18.976562 C 16.25 19.007812 16.398438 19.023438 16.550781 19.023438 C 16.867188 19.023438 17.167969 18.941406 17.449219 18.773438 C 17.734375 18.609375 18.015625 18.359375 18.300781 18.023438 C 18.832031 17.390625 19.25 16.632812 19.550781 15.75 C 19.851562 14.867188 20 13.957031 20 13.023438 C 20 10.792969 19.226562 8.894531 17.675781 7.335938 C 16.125 5.777344 14.234375 5 12 5 C 9.765625 5 7.875 5.785156 6.324219 7.351562 C 4.773438 8.917969 4 10.816406 4 13.050781 C 4 14 4.152344 14.925781 4.460938 15.824219 C 4.769531 16.726562 5.199219 17.484375 5.75 18.101562 C 6.035156 18.433594 6.308594 18.671875 6.574219 18.8125 C 6.839844 18.953125 7.125 19.023438 7.425781 19.023438 Z M 12 12 Z M 7.125 13 C 6.792969 13 6.527344 12.855469 6.335938 12.5625 C 6.144531 12.269531 6.089844 11.949219 6.175781 11.601562 C 6.507812 10.25 7.210938 9.144531 8.289062 8.289062 C 9.363281 7.429688 10.601562 7 12 7 C 13.382812 7 14.617188 7.429688 15.699219 8.289062 C 16.785156 9.144531 17.492188 10.25 17.824219 11.601562 C 17.910156 11.949219 17.855469 12.269531 17.664062 12.5625 C 17.472656 12.855469 17.207031 13 16.875 13 C 16.609375 13 16.390625 12.898438 16.226562 12.699219 C 16.058594 12.5 15.933594 12.265625 15.851562 12 C 15.765625 11.734375 15.667969 11.480469 15.550781 11.238281 C 15.433594 10.996094 15.285156 10.757812 15.101562 10.523438 L 12.800781 13.601562 C 12.648438 13.816406 12.445312 13.941406 12.1875 13.976562 C 11.929688 14.007812 11.683594 13.957031 11.449219 13.824219 C 11.199219 13.675781 11.050781 13.457031 11 13.175781 C 10.949219 12.890625 11.015625 12.632812 11.199219 12.398438 L 13.523438 9.300781 C 13.292969 9.199219 13.046875 9.125 12.789062 9.074219 C 12.527344 9.023438 12.265625 9 12 9 C 11.082031 9 10.269531 9.277344 9.5625 9.835938 C 8.855469 10.394531 8.382812 11.117188 8.148438 12 C 8.066406 12.265625 7.941406 12.5 7.773438 12.699219 C 7.609375 12.898438 7.390625 13 7.125 13 Z M 7.125 13 "/>
</g>
</svg>
