<?xml version="1.0" encoding="UTF-8"?>
<svg xmlns="http://www.w3.org/2000/svg" xmlns:xlink="http://www.w3.org/1999/xlink" width="24px" height="24px" viewBox="0 0 24 24" version="1.1">
<g id="surface1">
<path style=" stroke:none;fill-rule:nonzero;fill:rgb(0%,0%,0%);fill-opacity:1;" d="M 6.699219 15.300781 L 9.300781 12.699219 C 9.5 12.5 9.601562 12.265625 9.601562 12 C 9.601562 11.734375 9.5 11.5 9.300781 11.300781 L 6.699219 8.699219 C 6.515625 8.515625 6.285156 8.425781 6 8.425781 C 5.714844 8.425781 5.484375 8.515625 5.300781 8.699219 C 5.117188 8.882812 5.023438 9.117188 5.023438 9.398438 C 5.023438 9.683594 5.117188 9.917969 5.300781 10.101562 L 6.199219 11 L 3 11 C 2.714844 11 2.480469 11.097656 2.289062 11.289062 C 2.097656 11.480469 2 11.714844 2 12 C 2 12.285156 2.097656 12.519531 2.289062 12.710938 C 2.480469 12.902344 2.714844 13 3 13 L 6.199219 13 L 5.300781 13.898438 C 5.117188 14.082031 5.023438 14.316406 5.023438 14.601562 C 5.023438 14.882812 5.117188 15.117188 5.300781 15.300781 C 5.484375 15.484375 5.714844 15.574219 6 15.574219 C 6.285156 15.574219 6.515625 15.484375 6.699219 15.300781 Z M 16.5 8 C 16.785156 8 17.019531 7.902344 17.210938 7.710938 C 17.402344 7.519531 17.5 7.285156 17.5 7 C 17.5 6.714844 17.402344 6.480469 17.210938 6.289062 C 17.019531 6.097656 16.785156 6 16.5 6 C 16.214844 6 15.980469 6.097656 15.789062 6.289062 C 15.597656 6.480469 15.5 6.714844 15.5 7 C 15.5 7.285156 15.597656 7.519531 15.789062 7.710938 C 15.980469 7.902344 16.214844 8 16.5 8 Z M 13 19 L 20 19 L 20 5 L 13 5 Z M 4 21 C 3.449219 21 2.980469 20.804688 2.585938 20.414062 C 2.195312 20.019531 2 19.550781 2 19 L 2 15 L 4 15 L 4 19 L 11 19 L 11 5 L 4 5 L 4 9 L 2 9 L 2 5 C 2 4.449219 2.195312 3.980469 2.585938 3.585938 C 2.980469 3.195312 3.449219 3 4 3 L 20 3 C 20.550781 3 21.019531 3.195312 21.414062 3.585938 C 21.804688 3.980469 22 4.449219 22 5 L 22 19 C 22 19.550781 21.804688 20.019531 21.414062 20.414062 C 21.019531 20.804688 20.550781 21 20 21 Z M 11 5 L 11 19 Z M 11 5 "/>
</g>
</svg>
