<?xml version="1.0" encoding="UTF-8"?>
<svg xmlns="http://www.w3.org/2000/svg" xmlns:xlink="http://www.w3.org/1999/xlink" width="24px" height="24px" viewBox="0 0 24 24" version="1.1">
<g id="surface1">
<path style=" stroke:none;fill-rule:nonzero;fill:rgb(0%,0%,0%);fill-opacity:1;" d="M 3 13 L 3 11 L 5 11 L 5 13 Z M 3 9 L 3 7 L 5 7 L 5 9 Z M 7 5 L 7 3 L 9 3 L 9 5 Z M 11 21 L 11 19 L 13 19 L 13 21 Z M 11 5 L 11 3 L 13 3 L 13 5 Z M 15 21 L 15 19 L 17 19 L 17 21 Z M 19 17 L 19 15 L 21 15 L 21 17 Z M 19 13 L 19 11 L 21 11 L 21 13 Z M 20 9 C 19.714844 9 19.480469 8.902344 19.289062 8.710938 C 19.097656 8.519531 19 8.285156 19 8 L 19 5 L 16 5 C 15.714844 5 15.480469 4.902344 15.289062 4.710938 C 15.097656 4.519531 15 4.285156 15 4 C 15 3.714844 15.097656 3.480469 15.289062 3.289062 C 15.480469 3.097656 15.714844 3 16 3 L 19 3 C 19.550781 3 20.019531 3.195312 20.414062 3.585938 C 20.804688 3.980469 21 4.449219 21 5 L 21 8 C 21 8.285156 20.902344 8.519531 20.710938 8.710938 C 20.519531 8.902344 20.285156 9 20 9 Z M 5 21 C 4.449219 21 3.980469 20.804688 3.585938 20.414062 C 3.195312 20.019531 3 19.550781 3 19 L 3 16 C 3 15.714844 3.097656 15.480469 3.289062 15.289062 C 3.480469 15.097656 3.714844 15 4 15 C 4.285156 15 4.519531 15.097656 4.710938 15.289062 C 4.902344 15.480469 5 15.714844 5 16 L 5 19 L 8 19 C 8.285156 19 8.519531 19.097656 8.710938 19.289062 C 8.902344 19.480469 9 19.714844 9 20 C 9 20.285156 8.902344 20.519531 8.710938 20.710938 C 8.519531 20.902344 8.285156 21 8 21 Z M 19 21 L 19 19 L 21 19 C 21 19.550781 20.804688 20.019531 20.414062 20.414062 C 20.019531 20.804688 19.550781 21 19 21 Z M 3 5 C 3 4.449219 3.195312 3.980469 3.585938 3.585938 C 3.980469 3.195312 4.449219 3 5 3 L 5 5 Z M 3 5 "/>
</g>
</svg>
