<?xml version="1.0" encoding="UTF-8"?>
<svg xmlns="http://www.w3.org/2000/svg" xmlns:xlink="http://www.w3.org/1999/xlink" width="24px" height="24px" viewBox="0 0 24 24" version="1.1">
<g id="surface1">
<path style=" stroke:none;fill-rule:nonzero;fill:rgb(0%,0%,0%);fill-opacity:1;" d="M 12 12 Z M 2 9 L 2 6 C 2 5.449219 2.195312 4.980469 2.585938 4.585938 C 2.980469 4.195312 3.449219 4 4 4 L 20 4 C 20.550781 4 21.019531 4.195312 21.414062 4.585938 C 21.804688 4.980469 22 5.449219 22 6 L 22 10.5 C 22 10.785156 21.902344 11.019531 21.710938 11.210938 C 21.519531 11.402344 21.285156 11.5 21 11.5 C 20.714844 11.5 20.480469 11.402344 20.289062 11.210938 C 20.097656 11.019531 20 10.785156 20 10.5 L 20 6 L 4 6 L 4 9 Z M 4 20 C 3.449219 20 2.980469 19.804688 2.585938 19.414062 C 2.195312 19.019531 2 18.550781 2 18 L 2 15 L 4 15 L 4 18 L 8.5 18 C 8.785156 18 9.019531 18.097656 9.210938 18.289062 C 9.402344 18.480469 9.5 18.714844 9.5 19 C 9.5 19.285156 9.402344 19.519531 9.210938 19.710938 C 9.019531 19.902344 8.785156 20 8.5 20 Z M 7 17 C 6.816406 17 6.640625 16.953125 6.476562 16.863281 C 6.308594 16.769531 6.183594 16.632812 6.101562 16.449219 L 4.398438 13 L 3.023438 13 C 2.742188 13 2.503906 12.902344 2.3125 12.710938 C 2.121094 12.519531 2.023438 12.285156 2.023438 12 C 2.023438 11.714844 2.121094 11.480469 2.3125 11.289062 C 2.503906 11.097656 2.742188 11 3.023438 11 L 5.023438 11 C 5.207031 11 5.378906 11.050781 5.539062 11.148438 C 5.695312 11.25 5.816406 11.382812 5.898438 11.550781 L 7 13.75 L 10.101562 7.550781 C 10.183594 7.382812 10.308594 7.257812 10.476562 7.175781 C 10.640625 7.089844 10.816406 7.050781 11 7.050781 C 11.183594 7.050781 11.359375 7.089844 11.523438 7.175781 C 11.691406 7.257812 11.816406 7.382812 11.898438 7.550781 L 13.875 11.523438 C 13.523438 11.558594 13.195312 11.632812 12.886719 11.75 C 12.578125 11.867188 12.292969 12.035156 12.023438 12.25 L 11 10.25 L 7.898438 16.449219 C 7.816406 16.632812 7.691406 16.769531 7.523438 16.863281 C 7.359375 16.953125 7.183594 17 7 17 Z M 12.5 23 C 12.082031 23 11.730469 22.855469 11.4375 22.5625 C 11.144531 22.269531 11 21.917969 11 21.5 L 11 18.199219 C 11 18.066406 11.011719 17.941406 11.039062 17.824219 C 11.0625 17.707031 11.089844 17.589844 11.125 17.476562 L 12.324219 14.300781 C 12.476562 13.917969 12.722656 13.605469 13.0625 13.363281 C 13.402344 13.121094 13.785156 13 14.199219 13 L 16 13 L 16 12 C 16 11.714844 16.097656 11.480469 16.289062 11.289062 C 16.480469 11.097656 16.714844 11 17 11 C 17.285156 11 17.519531 11.097656 17.710938 11.289062 C 17.902344 11.480469 18 11.714844 18 12 L 18 13 L 19.800781 13 C 20.214844 13 20.597656 13.121094 20.9375 13.363281 C 21.277344 13.605469 21.523438 13.917969 21.675781 14.300781 L 22.875 17.476562 C 22.910156 17.589844 22.9375 17.707031 22.960938 17.824219 C 22.988281 17.941406 23 18.066406 23 18.199219 L 23 21.5 C 23 21.917969 22.855469 22.269531 22.5625 22.5625 C 22.269531 22.855469 21.917969 23 21.5 23 L 19.5 23 C 19.082031 23 18.730469 22.855469 18.4375 22.5625 C 18.144531 22.269531 18 21.917969 18 21.5 L 18 21 C 18 20.714844 18.097656 20.480469 18.289062 20.289062 C 18.480469 20.097656 18.714844 20 19 20 C 19.285156 20 19.519531 20.097656 19.710938 20.289062 C 19.902344 20.480469 20 20.714844 20 21 L 21 21 L 21 18.175781 L 19.800781 15 L 18 15 L 18 15.925781 L 18.949219 16.898438 C 19.132812 17.101562 19.226562 17.335938 19.226562 17.613281 C 19.226562 17.886719 19.132812 18.117188 18.949219 18.300781 C 18.765625 18.484375 18.535156 18.574219 18.25 18.574219 C 17.964844 18.574219 17.734375 18.484375 17.550781 18.300781 L 17 17.75 L 16.449219 18.300781 C 16.265625 18.484375 16.039062 18.578125 15.761719 18.585938 C 15.488281 18.597656 15.25 18.5 15.050781 18.300781 C 14.867188 18.117188 14.773438 17.882812 14.773438 17.601562 C 14.773438 17.316406 14.867188 17.082031 15.050781 16.898438 L 16 15.925781 L 16 15 L 14.199219 15 L 13 18.175781 L 13 21 L 14 21 C 14 20.714844 14.097656 20.480469 14.289062 20.289062 C 14.480469 20.097656 14.714844 20 15 20 C 15.285156 20 15.519531 20.097656 15.710938 20.289062 C 15.902344 20.480469 16 20.714844 16 21 L 16 21.5 C 16 21.917969 15.855469 22.269531 15.5625 22.5625 C 15.269531 22.855469 14.917969 23 14.5 23 Z M 17 18 Z M 15.050781 16.898438 L 16 15.925781 L 16 15 L 16 15.925781 Z M 18.949219 16.898438 L 18 15.925781 L 18 15 L 18 15.925781 Z M 18.949219 16.898438 "/>
</g>
</svg>
