<?xml version="1.0" encoding="UTF-8"?>
<svg xmlns="http://www.w3.org/2000/svg" xmlns:xlink="http://www.w3.org/1999/xlink" width="24px" height="24px" viewBox="0 0 24 24" version="1.1">
<g id="surface1">
<path style=" stroke:none;fill-rule:nonzero;fill:rgb(0%,0%,0%);fill-opacity:1;" d="M 7.5 14.800781 C 7.5 15.035156 7.601562 15.191406 7.800781 15.273438 C 8 15.359375 8.183594 15.316406 8.351562 15.148438 L 10.800781 12.699219 C 11 12.5 11.101562 12.265625 11.101562 12 C 11.101562 11.734375 11 11.5 10.800781 11.300781 L 8.351562 8.851562 C 8.183594 8.683594 8 8.640625 7.800781 8.726562 C 7.601562 8.808594 7.5 8.964844 7.5 9.199219 Z M 5 21 C 4.449219 21 3.980469 20.804688 3.585938 20.414062 C 3.195312 20.019531 3 19.550781 3 19 L 3 5 C 3 4.449219 3.195312 3.980469 3.585938 3.585938 C 3.980469 3.195312 4.449219 3 5 3 L 19 3 C 19.550781 3 20.019531 3.195312 20.414062 3.585938 C 20.804688 3.980469 21 4.449219 21 5 L 21 19 C 21 19.550781 20.804688 20.019531 20.414062 20.414062 C 20.019531 20.804688 19.550781 21 19 21 Z M 16 19 L 19 19 L 19 5 L 16 5 Z M 14 19 L 14 5 L 5 5 L 5 19 Z M 16 19 L 19 19 Z M 16 19 "/>
</g>
</svg>
