<?xml version="1.0" encoding="UTF-8"?>
<svg xmlns="http://www.w3.org/2000/svg" xmlns:xlink="http://www.w3.org/1999/xlink" width="24px" height="24px" viewBox="0 0 24 24" version="1.1">
<g id="surface1">
<path style=" stroke:none;fill-rule:nonzero;fill:rgb(0%,0%,0%);fill-opacity:1;" d="M 5 19 L 19 19 L 19 10.449219 C 18.699219 10.632812 18.378906 10.769531 18.039062 10.863281 C 17.695312 10.953125 17.351562 11 17 11 C 15.898438 11 14.957031 10.609375 14.175781 9.824219 C 13.390625 9.042969 13 8.101562 13 7 C 13 6.648438 13.046875 6.304688 13.136719 5.960938 C 13.230469 5.621094 13.367188 5.300781 13.550781 5 L 5 5 Z M 5 21 C 4.449219 21 3.980469 20.804688 3.585938 20.414062 C 3.195312 20.019531 3 19.550781 3 19 L 3 5 C 3 4.449219 3.195312 3.980469 3.585938 3.585938 C 3.980469 3.195312 4.449219 3 5 3 L 19 3 C 19.550781 3 20.019531 3.195312 20.414062 3.585938 C 20.804688 3.980469 21 4.449219 21 5 L 21 19 C 21 19.550781 20.804688 20.019531 20.414062 20.414062 C 20.019531 20.804688 19.550781 21 19 21 Z M 5 5 L 5 19 Z M 5 5 "/>
</g>
</svg>
