<?xml version="1.0" encoding="UTF-8"?>
<svg xmlns="http://www.w3.org/2000/svg" xmlns:xlink="http://www.w3.org/1999/xlink" width="24px" height="24px" viewBox="0 0 24 24" version="1.1">
<g id="surface1">
<path style=" stroke:none;fill-rule:nonzero;fill:rgb(0%,0%,0%);fill-opacity:1;" d="M 6 22 C 5.449219 22 4.980469 21.804688 4.585938 21.414062 C 4.195312 21.019531 4 20.550781 4 20 L 4 17 L 6 17 L 6 20 L 18 20 L 18 17 L 20 17 L 20 20 C 20 20.550781 19.804688 21.019531 19.414062 21.414062 C 19.019531 21.804688 18.550781 22 18 22 Z M 4 4 C 4 3.449219 4.195312 2.980469 4.585938 2.585938 C 4.980469 2.195312 5.449219 2 6 2 L 13.175781 2 C 13.441406 2 13.695312 2.050781 13.9375 2.148438 C 14.179688 2.25 14.390625 2.390625 14.574219 2.574219 L 19.425781 7.425781 C 19.609375 7.609375 19.75 7.820312 19.851562 8.0625 C 19.949219 8.304688 20 8.558594 20 8.824219 L 20 11 L 18 11 L 18 9 L 14 9 C 13.714844 9 13.480469 8.902344 13.289062 8.710938 C 13.097656 8.519531 13 8.285156 13 8 L 13 4 L 6 4 L 6 11 L 4 11 Z M 22 15 L 2 15 C 1.714844 15 1.480469 14.902344 1.289062 14.710938 C 1.097656 14.519531 1 14.285156 1 14 C 1 13.714844 1.097656 13.480469 1.289062 13.289062 C 1.480469 13.097656 1.714844 13 2 13 L 22 13 C 22.285156 13 22.519531 13.097656 22.710938 13.289062 C 22.902344 13.480469 23 13.714844 23 14 C 23 14.285156 22.902344 14.519531 22.710938 14.710938 C 22.519531 14.902344 22.285156 15 22 15 Z M 12 11 Z M 12 17 Z M 12 17 "/>
</g>
</svg>
