<?xml version="1.0" encoding="UTF-8"?>
<svg xmlns="http://www.w3.org/2000/svg" xmlns:xlink="http://www.w3.org/1999/xlink" width="24px" height="24px" viewBox="0 0 24 24" version="1.1">
<g id="surface1">
<path style=" stroke:none;fill-rule:nonzero;fill:rgb(0%,0%,0%);fill-opacity:1;" d="M 19.773438 22.574219 L 10.175781 13 L 4 13 L 4 20 L 16 20 L 16 15.976562 L 18 17.976562 L 18 20 C 18 20.550781 17.804688 21.019531 17.414062 21.414062 C 17.019531 21.804688 16.550781 22 16 22 L 4 22 C 3.449219 22 2.980469 21.804688 2.585938 21.414062 C 2.195312 21.019531 2 20.550781 2 20 L 2 11 C 2 10.449219 2.195312 9.980469 2.585938 9.585938 C 2.980469 9.195312 3.449219 9 4 9 L 6 9 L 6 8.824219 L 1.375 4.199219 C 1.175781 4 1.074219 3.761719 1.074219 3.488281 C 1.074219 3.210938 1.175781 2.976562 1.375 2.773438 C 1.574219 2.574219 1.8125 2.476562 2.085938 2.476562 C 2.363281 2.476562 2.601562 2.574219 2.800781 2.773438 L 21.199219 21.175781 C 21.398438 21.375 21.5 21.609375 21.5 21.875 C 21.5 22.140625 21.398438 22.375 21.199219 22.574219 C 21 22.773438 20.761719 22.875 20.488281 22.875 C 20.210938 22.875 19.976562 22.773438 19.773438 22.574219 Z M 18 15.125 L 11.875 9 L 16 9 C 16.550781 9 17.019531 9.195312 17.414062 9.585938 C 17.804688 9.980469 18 10.449219 18 11 L 18 13 L 20 13 L 20 6 L 8.875 6 L 6.148438 3.273438 C 6.285156 2.890625 6.519531 2.582031 6.863281 2.351562 C 7.203125 2.117188 7.582031 2 8 2 L 20 2 C 20.550781 2 21.019531 2.195312 21.414062 2.585938 C 21.804688 2.980469 22 3.449219 22 4 L 22 13 C 22 13.550781 21.804688 14.019531 21.414062 14.414062 C 21.019531 14.804688 20.550781 15 20 15 L 18 15 Z M 18 15.125 "/>
</g>
</svg>
