<?xml version="1.0" encoding="UTF-8"?>
<svg xmlns="http://www.w3.org/2000/svg" xmlns:xlink="http://www.w3.org/1999/xlink" width="24px" height="24px" viewBox="0 0 24 24" version="1.1">
<g id="surface1">
<path style=" stroke:none;fill-rule:nonzero;fill:rgb(0%,0%,0%);fill-opacity:1;" d="M 21 11.976562 C 21 13.957031 20.421875 15.734375 19.261719 17.300781 C 18.105469 18.867188 16.589844 19.941406 14.726562 20.523438 C 14.523438 20.589844 14.355469 20.539062 14.210938 20.363281 C 14.070312 20.1875 14 19.964844 14 19.699219 C 14 19.433594 14.058594 19.179688 14.175781 18.9375 C 14.292969 18.695312 14.464844 18.523438 14.699219 18.425781 C 16 17.890625 17.042969 17.042969 17.824219 15.875 C 18.609375 14.707031 19 13.410156 19 11.976562 C 19 10.542969 18.609375 9.242188 17.824219 8.074219 C 17.042969 6.910156 16 6.058594 14.699219 5.523438 C 14.464844 5.425781 14.292969 5.253906 14.175781 5.011719 C 14.058594 4.769531 14 4.515625 14 4.25 C 14 3.984375 14.085938 3.761719 14.261719 3.585938 C 14.4375 3.414062 14.632812 3.367188 14.851562 3.449219 C 16.683594 4.050781 18.167969 5.128906 19.300781 6.6875 C 20.433594 8.246094 21 10.007812 21 11.976562 Z M 7 15 L 4 15 C 3.714844 15 3.480469 14.902344 3.289062 14.710938 C 3.097656 14.519531 3 14.285156 3 14 L 3 10 C 3 9.714844 3.097656 9.480469 3.289062 9.289062 C 3.480469 9.097656 3.714844 9 4 9 L 7 9 L 10.300781 5.699219 C 10.617188 5.382812 10.980469 5.3125 11.386719 5.488281 C 11.796875 5.664062 12 5.976562 12 6.425781 L 12 17.574219 C 12 18.023438 11.796875 18.335938 11.386719 18.511719 C 10.980469 18.6875 10.617188 18.617188 10.300781 18.300781 Z M 14 15 L 14 8.949219 C 14 8.832031 14.027344 8.730469 14.085938 8.636719 C 14.144531 8.546875 14.214844 8.476562 14.300781 8.425781 C 14.382812 8.375 14.476562 8.355469 14.574219 8.363281 C 14.675781 8.371094 14.765625 8.410156 14.851562 8.476562 C 15.382812 8.910156 15.792969 9.429688 16.074219 10.039062 C 16.359375 10.644531 16.5 11.300781 16.5 12 C 16.5 12.683594 16.359375 13.324219 16.074219 13.925781 C 15.792969 14.523438 15.382812 15.042969 14.851562 15.476562 C 14.765625 15.542969 14.675781 15.578125 14.574219 15.585938 C 14.476562 15.597656 14.382812 15.574219 14.300781 15.523438 C 14.214844 15.476562 14.144531 15.402344 14.085938 15.3125 C 14.027344 15.222656 14 15.117188 14 15 Z M 10 15.148438 L 10 8.851562 L 7.851562 11 L 5 11 L 5 13 L 7.851562 13 Z M 1 6 L 1 3 C 1 2.449219 1.195312 1.980469 1.585938 1.585938 C 1.980469 1.195312 2.449219 1 3 1 L 6 1 C 6.285156 1 6.519531 1.097656 6.710938 1.289062 C 6.902344 1.480469 7 1.714844 7 2 C 7 2.285156 6.902344 2.519531 6.710938 2.710938 C 6.519531 2.902344 6.285156 3 6 3 L 3 3 L 3 6 C 3 6.285156 2.902344 6.519531 2.710938 6.710938 C 2.519531 6.902344 2.285156 7 2 7 C 1.714844 7 1.480469 6.902344 1.289062 6.710938 C 1.097656 6.519531 1 6.285156 1 6 Z M 18 23 C 17.714844 23 17.480469 22.902344 17.289062 22.710938 C 17.097656 22.519531 17 22.285156 17 22 C 17 21.714844 17.097656 21.480469 17.289062 21.289062 C 17.480469 21.097656 17.714844 21 18 21 L 21 21 L 21 18 C 21 17.714844 21.097656 17.480469 21.289062 17.289062 C 21.480469 17.097656 21.714844 17 22 17 C 22.285156 17 22.519531 17.097656 22.710938 17.289062 C 22.902344 17.480469 23 17.714844 23 18 L 23 21 C 23 21.550781 22.804688 22.019531 22.414062 22.414062 C 22.019531 22.804688 21.550781 23 21 23 Z M 7.5 12 Z M 7.5 12 "/>
</g>
</svg>
