<?xml version="1.0" encoding="UTF-8"?>
<svg xmlns="http://www.w3.org/2000/svg" xmlns:xlink="http://www.w3.org/1999/xlink" width="24px" height="24px" viewBox="0 0 24 24" version="1.1">
<g id="surface1">
<path style=" stroke:none;fill-rule:nonzero;fill:rgb(0%,0%,0%);fill-opacity:1;" d="M 11.300781 18 L 12.699219 18 C 13.617188 18 14.394531 17.707031 15.039062 17.125 C 15.679688 16.542969 16 15.832031 16 15 C 16 14.167969 15.679688 13.457031 15.039062 12.875 C 14.394531 12.292969 13.617188 12 12.699219 12 L 11.300781 12 C 10.382812 12 9.605469 12.292969 8.960938 12.875 C 8.320312 13.457031 8 14.167969 8 15 C 8 15.832031 8.320312 16.542969 8.960938 17.125 C 9.605469 17.707031 10.382812 18 11.300781 18 Z M 11.300781 16.5 C 10.800781 16.5 10.375 16.355469 10.023438 16.0625 C 9.675781 15.769531 9.5 15.417969 9.5 15 C 9.5 14.582031 9.675781 14.230469 10.023438 13.9375 C 10.375 13.644531 10.800781 13.5 11.300781 13.5 L 12.699219 13.5 C 13.199219 13.5 13.625 13.644531 13.976562 13.9375 C 14.324219 14.230469 14.5 14.582031 14.5 15 C 14.5 15.417969 14.324219 15.769531 13.976562 16.0625 C 13.625 16.355469 13.199219 16.5 12.699219 16.5 Z M 8 10 C 8.699219 10 9.328125 9.800781 9.886719 9.398438 C 10.445312 9 10.792969 8.457031 10.925781 7.773438 C 10.957031 7.574219 10.910156 7.394531 10.773438 7.238281 C 10.640625 7.078125 10.464844 7 10.25 7 C 10.066406 7 9.898438 7.046875 9.75 7.136719 C 9.601562 7.230469 9.484375 7.367188 9.398438 7.550781 C 9.285156 7.832031 9.101562 8.0625 8.851562 8.238281 C 8.601562 8.414062 8.316406 8.5 8 8.5 L 6.75 8.5 C 6.535156 8.5 6.355469 8.570312 6.210938 8.710938 C 6.070312 8.855469 6 9.035156 6 9.25 C 6 9.464844 6.070312 9.644531 6.210938 9.789062 C 6.355469 9.929688 6.535156 10 6.75 10 Z M 16 10 L 17.25 10 C 17.464844 10 17.644531 9.929688 17.789062 9.789062 C 17.929688 9.644531 18 9.464844 18 9.25 C 18 9.035156 17.929688 8.855469 17.789062 8.710938 C 17.644531 8.570312 17.464844 8.5 17.25 8.5 L 16 8.5 C 15.683594 8.5 15.398438 8.414062 15.148438 8.238281 C 14.898438 8.0625 14.714844 7.832031 14.601562 7.550781 C 14.515625 7.367188 14.398438 7.230469 14.25 7.136719 C 14.101562 7.046875 13.933594 7 13.75 7 C 13.535156 7 13.359375 7.074219 13.226562 7.226562 C 13.089844 7.375 13.042969 7.550781 13.074219 7.75 C 13.207031 8.433594 13.554688 8.980469 14.113281 9.386719 C 14.671875 9.796875 15.300781 10 16 10 Z M 12 22 C 10.617188 22 9.316406 21.738281 8.101562 21.210938 C 6.882812 20.6875 5.824219 19.976562 4.925781 19.074219 C 4.023438 18.175781 3.3125 17.117188 2.789062 15.898438 C 2.261719 14.683594 2 13.382812 2 12 C 2 10.617188 2.261719 9.316406 2.789062 8.101562 C 3.3125 6.882812 4.023438 5.824219 4.925781 4.925781 C 5.824219 4.023438 6.882812 3.3125 8.101562 2.789062 C 9.316406 2.261719 10.617188 2 12 2 C 13.382812 2 14.683594 2.261719 15.898438 2.789062 C 17.117188 3.3125 18.175781 4.023438 19.074219 4.925781 C 19.976562 5.824219 20.6875 6.882812 21.210938 8.101562 C 21.738281 9.316406 22 10.617188 22 12 C 22 13.382812 21.738281 14.683594 21.210938 15.898438 C 20.6875 17.117188 19.976562 18.175781 19.074219 19.074219 C 18.175781 19.976562 17.117188 20.6875 15.898438 21.210938 C 14.683594 21.738281 13.382812 22 12 22 Z M 12 12 Z M 12 20 C 14.234375 20 16.125 19.226562 17.675781 17.675781 C 19.226562 16.125 20 14.234375 20 12 C 20 9.765625 19.226562 7.875 17.675781 6.324219 C 16.125 4.773438 14.234375 4 12 4 C 9.765625 4 7.875 4.773438 6.324219 6.324219 C 4.773438 7.875 4 9.765625 4 12 C 4 14.234375 4.773438 16.125 6.324219 17.675781 C 7.875 19.226562 9.765625 20 12 20 Z M 12 20 "/>
</g>
</svg>
