<?xml version="1.0" encoding="UTF-8"?>
<svg xmlns="http://www.w3.org/2000/svg" xmlns:xlink="http://www.w3.org/1999/xlink" width="24px" height="24px" viewBox="0 0 24 24" version="1.1">
<g id="surface1">
<path style=" stroke:none;fill-rule:nonzero;fill:rgb(0%,0%,0%);fill-opacity:1;" d="M 12 11.5 C 13.082031 11.5 14.015625 11.867188 14.800781 12.601562 C 15.582031 13.332031 16.050781 14.242188 16.199219 15.324219 C 16.234375 15.523438 16.324219 15.6875 16.476562 15.8125 C 16.625 15.9375 16.800781 16 17 16 C 17.199219 16 17.378906 15.933594 17.539062 15.800781 C 17.695312 15.667969 17.757812 15.5 17.726562 15.300781 C 17.558594 13.800781 16.9375 12.542969 15.863281 11.523438 C 14.789062 10.507812 13.5 10 12 10 C 10.5 10 9.210938 10.507812 8.136719 11.523438 C 7.0625 12.542969 6.441406 13.800781 6.273438 15.300781 C 6.242188 15.5 6.304688 15.667969 6.460938 15.800781 C 6.621094 15.933594 6.800781 16 7 16 C 7.199219 16 7.375 15.9375 7.523438 15.8125 C 7.675781 15.6875 7.765625 15.523438 7.800781 15.324219 C 7.949219 14.242188 8.417969 13.332031 9.199219 12.601562 C 9.984375 11.867188 10.917969 11.5 12 11.5 Z M 10.550781 7.523438 C 10.699219 7.390625 10.769531 7.222656 10.761719 7.011719 C 10.753906 6.804688 10.667969 6.632812 10.5 6.5 C 10.332031 6.367188 10.148438 6.308594 9.949219 6.324219 C 9.75 6.339844 9.566406 6.417969 9.398438 6.550781 C 9.132812 6.785156 8.855469 6.980469 8.5625 7.136719 C 8.269531 7.296875 7.957031 7.433594 7.625 7.550781 C 7.425781 7.632812 7.261719 7.757812 7.136719 7.925781 C 7.011719 8.089844 6.964844 8.285156 7 8.5 C 7.035156 8.714844 7.132812 8.882812 7.300781 9 C 7.464844 9.117188 7.640625 9.140625 7.824219 9.074219 C 8.324219 8.910156 8.808594 8.695312 9.273438 8.4375 C 9.742188 8.179688 10.167969 7.875 10.550781 7.523438 Z M 13.449219 7.523438 C 13.832031 7.875 14.25 8.175781 14.699219 8.425781 C 15.148438 8.675781 15.625 8.882812 16.125 9.050781 C 16.324219 9.117188 16.511719 9.097656 16.6875 8.988281 C 16.863281 8.878906 16.964844 8.714844 17 8.5 C 17.035156 8.285156 16.984375 8.089844 16.851562 7.925781 C 16.714844 7.757812 16.550781 7.632812 16.351562 7.550781 C 16.035156 7.433594 15.730469 7.292969 15.4375 7.125 C 15.144531 6.957031 14.867188 6.765625 14.601562 6.550781 C 14.433594 6.417969 14.25 6.339844 14.050781 6.324219 C 13.851562 6.308594 13.667969 6.367188 13.5 6.5 C 13.332031 6.632812 13.246094 6.804688 13.238281 7.011719 C 13.230469 7.222656 13.300781 7.390625 13.449219 7.523438 Z M 12 22 C 10.617188 22 9.316406 21.738281 8.101562 21.210938 C 6.882812 20.6875 5.824219 19.976562 4.925781 19.074219 C 4.023438 18.175781 3.3125 17.117188 2.789062 15.898438 C 2.261719 14.683594 2 13.382812 2 12 C 2 10.617188 2.261719 9.316406 2.789062 8.101562 C 3.3125 6.882812 4.023438 5.824219 4.925781 4.925781 C 5.824219 4.023438 6.882812 3.3125 8.101562 2.789062 C 9.316406 2.261719 10.617188 2 12 2 C 13.382812 2 14.683594 2.261719 15.898438 2.789062 C 17.117188 3.3125 18.175781 4.023438 19.074219 4.925781 C 19.976562 5.824219 20.6875 6.882812 21.210938 8.101562 C 21.738281 9.316406 22 10.617188 22 12 C 22 13.382812 21.738281 14.683594 21.210938 15.898438 C 20.6875 17.117188 19.976562 18.175781 19.074219 19.074219 C 18.175781 19.976562 17.117188 20.6875 15.898438 21.210938 C 14.683594 21.738281 13.382812 22 12 22 Z M 12 12 Z M 12 20 C 14.234375 20 16.125 19.226562 17.675781 17.675781 C 19.226562 16.125 20 14.234375 20 12 C 20 9.765625 19.226562 7.875 17.675781 6.324219 C 16.125 4.773438 14.234375 4 12 4 C 9.765625 4 7.875 4.773438 6.324219 6.324219 C 4.773438 7.875 4 9.765625 4 12 C 4 14.234375 4.773438 16.125 6.324219 17.675781 C 7.875 19.226562 9.765625 20 12 20 Z M 12 20 "/>
</g>
</svg>
