<?xml version="1.0" encoding="UTF-8"?>
<svg xmlns="http://www.w3.org/2000/svg" xmlns:xlink="http://www.w3.org/1999/xlink" width="24px" height="24px" viewBox="0 0 24 24" version="1.1">
<g id="surface1">
<path style=" stroke:none;fill-rule:nonzero;fill:rgb(0%,0%,0%);fill-opacity:1;" d="M 9.75 15.5 L 14.25 15.5 C 14.464844 15.5 14.644531 15.429688 14.789062 15.289062 C 14.929688 15.144531 15 14.964844 15 14.75 C 15 14.535156 14.929688 14.355469 14.789062 14.210938 C 14.644531 14.070312 14.464844 14 14.25 14 L 9.75 14 C 9.535156 14 9.355469 14.070312 9.210938 14.210938 C 9.070312 14.355469 9 14.535156 9 14.75 C 9 14.964844 9.070312 15.144531 9.210938 15.289062 C 9.355469 15.429688 9.535156 15.5 9.75 15.5 Z M 12 22 C 10.617188 22 9.316406 21.738281 8.101562 21.210938 C 6.882812 20.6875 5.824219 19.976562 4.925781 19.074219 C 4.023438 18.175781 3.3125 17.117188 2.789062 15.898438 C 2.261719 14.683594 2 13.382812 2 12 C 2 10.617188 2.261719 9.316406 2.789062 8.101562 C 3.3125 6.882812 4.023438 5.824219 4.925781 4.925781 C 5.824219 4.023438 6.882812 3.3125 8.101562 2.789062 C 9.316406 2.261719 10.617188 2 12 2 C 13.382812 2 14.683594 2.261719 15.898438 2.789062 C 17.117188 3.3125 18.175781 4.023438 19.074219 4.925781 C 19.976562 5.824219 20.6875 6.882812 21.210938 8.101562 C 21.738281 9.316406 22 10.617188 22 12 C 22 13.382812 21.738281 14.683594 21.210938 15.898438 C 20.6875 17.117188 19.976562 18.175781 19.074219 19.074219 C 18.175781 19.976562 17.117188 20.6875 15.898438 21.210938 C 14.683594 21.738281 13.382812 22 12 22 Z M 12 12 Z M 12 20 C 14.234375 20 16.125 19.226562 17.675781 17.675781 C 19.226562 16.125 20 14.234375 20 12 C 20 9.765625 19.226562 7.875 17.675781 6.324219 C 16.125 4.773438 14.234375 4 12 4 C 9.765625 4 7.875 4.773438 6.324219 6.324219 C 4.773438 7.875 4 9.765625 4 12 C 4 14.234375 4.773438 16.125 6.324219 17.675781 C 7.875 19.226562 9.765625 20 12 20 Z M 8.5 8.5 C 8.117188 8.5 7.75 8.574219 7.398438 8.726562 C 7.050781 8.875 6.742188 9.089844 6.476562 9.375 C 6.308594 9.558594 6.226562 9.761719 6.226562 9.988281 C 6.226562 10.210938 6.316406 10.382812 6.5 10.5 C 6.667969 10.617188 6.851562 10.660156 7.050781 10.625 C 7.25 10.589844 7.433594 10.507812 7.601562 10.375 C 7.734375 10.257812 7.875 10.171875 8.023438 10.113281 C 8.175781 10.054688 8.332031 10.023438 8.5 10.023438 C 8.667969 10.023438 8.824219 10.058594 8.976562 10.125 C 9.125 10.191406 9.265625 10.273438 9.398438 10.375 C 9.566406 10.507812 9.75 10.585938 9.949219 10.613281 C 10.148438 10.636719 10.332031 10.589844 10.5 10.476562 C 10.683594 10.359375 10.773438 10.1875 10.773438 9.960938 C 10.773438 9.738281 10.691406 9.542969 10.523438 9.375 C 10.257812 9.089844 9.949219 8.875 9.601562 8.726562 C 9.25 8.574219 8.882812 8.5 8.5 8.5 Z M 15.5 8.5 C 15.117188 8.5 14.742188 8.574219 14.375 8.726562 C 14.007812 8.875 13.691406 9.089844 13.425781 9.375 C 13.257812 9.558594 13.183594 9.757812 13.199219 9.976562 C 13.214844 10.191406 13.316406 10.367188 13.5 10.5 C 13.667969 10.617188 13.851562 10.664062 14.050781 10.636719 C 14.25 10.613281 14.433594 10.535156 14.601562 10.398438 C 14.734375 10.300781 14.875 10.214844 15.023438 10.148438 C 15.175781 10.082031 15.332031 10.050781 15.5 10.050781 C 15.683594 10.050781 15.851562 10.082031 16 10.148438 C 16.148438 10.214844 16.292969 10.300781 16.425781 10.398438 C 16.589844 10.535156 16.769531 10.613281 16.960938 10.636719 C 17.152344 10.664062 17.332031 10.617188 17.5 10.5 C 17.683594 10.382812 17.773438 10.210938 17.773438 9.988281 C 17.773438 9.761719 17.691406 9.558594 17.523438 9.375 C 17.257812 9.089844 16.949219 8.875 16.601562 8.726562 C 16.25 8.574219 15.882812 8.5 15.5 8.5 Z M 15.5 8.5 "/>
</g>
</svg>
