<?xml version="1.0" encoding="UTF-8"?>
<svg xmlns="http://www.w3.org/2000/svg" xmlns:xlink="http://www.w3.org/1999/xlink" width="24px" height="24px" viewBox="0 0 24 24" version="1.1">
<g id="surface1">
<path style=" stroke:none;fill-rule:nonzero;fill:rgb(0%,0%,0%);fill-opacity:1;" d="M 12 15.550781 L 13.148438 16.699219 C 13.25 16.800781 13.367188 16.851562 13.5 16.851562 C 13.632812 16.851562 13.75 16.800781 13.851562 16.699219 L 15 15.550781 L 15.449219 16 C 15.601562 16.148438 15.773438 16.226562 15.976562 16.226562 C 16.175781 16.226562 16.351562 16.148438 16.5 16 C 16.648438 15.851562 16.726562 15.675781 16.726562 15.476562 C 16.726562 15.273438 16.648438 15.101562 16.5 14.949219 L 15.351562 13.800781 C 15.25 13.699219 15.132812 13.648438 15 13.648438 C 14.867188 13.648438 14.75 13.699219 14.648438 13.800781 L 13.5 14.949219 L 12.351562 13.800781 C 12.25 13.699219 12.132812 13.648438 12 13.648438 C 11.867188 13.648438 11.75 13.699219 11.648438 13.800781 L 10.5 14.949219 L 9.351562 13.800781 C 9.25 13.699219 9.132812 13.648438 9 13.648438 C 8.867188 13.648438 8.75 13.699219 8.648438 13.800781 L 7.5 14.949219 C 7.351562 15.101562 7.273438 15.273438 7.273438 15.476562 C 7.273438 15.675781 7.351562 15.851562 7.5 16 C 7.648438 16.148438 7.824219 16.226562 8.023438 16.226562 C 8.226562 16.226562 8.398438 16.148438 8.550781 16 L 9 15.550781 L 10.148438 16.699219 C 10.25 16.800781 10.367188 16.851562 10.5 16.851562 C 10.632812 16.851562 10.75 16.800781 10.851562 16.699219 Z M 8.476562 10 L 7.175781 10.949219 C 7.007812 11.082031 6.902344 11.25 6.863281 11.449219 C 6.820312 11.648438 6.867188 11.832031 7 12 C 7.132812 12.167969 7.300781 12.269531 7.5 12.3125 C 7.699219 12.355469 7.882812 12.308594 8.050781 12.175781 L 10.476562 10.398438 C 10.609375 10.300781 10.675781 10.167969 10.675781 10 C 10.675781 9.832031 10.609375 9.699219 10.476562 9.601562 L 8.050781 7.824219 C 7.882812 7.691406 7.699219 7.644531 7.5 7.6875 C 7.300781 7.730469 7.132812 7.832031 7 8 C 6.867188 8.167969 6.816406 8.351562 6.851562 8.550781 C 6.882812 8.75 6.992188 8.917969 7.175781 9.050781 Z M 15.523438 10 L 16.824219 9.050781 C 16.992188 8.917969 17.097656 8.75 17.136719 8.550781 C 17.179688 8.351562 17.132812 8.167969 17 8 C 16.867188 7.832031 16.699219 7.730469 16.5 7.6875 C 16.300781 7.644531 16.117188 7.691406 15.949219 7.824219 L 13.523438 9.601562 C 13.390625 9.699219 13.324219 9.832031 13.324219 10 C 13.324219 10.167969 13.390625 10.300781 13.523438 10.398438 L 15.949219 12.175781 C 16.117188 12.308594 16.300781 12.355469 16.5 12.3125 C 16.699219 12.269531 16.867188 12.167969 17 12 C 17.132812 11.832031 17.183594 11.648438 17.148438 11.449219 C 17.117188 11.25 17.007812 11.082031 16.824219 10.949219 Z M 12 22 C 10.617188 22 9.316406 21.738281 8.101562 21.210938 C 6.882812 20.6875 5.824219 19.976562 4.925781 19.074219 C 4.023438 18.175781 3.3125 17.117188 2.789062 15.898438 C 2.261719 14.683594 2 13.382812 2 12 C 2 10.617188 2.261719 9.316406 2.789062 8.101562 C 3.3125 6.882812 4.023438 5.824219 4.925781 4.925781 C 5.824219 4.023438 6.882812 3.3125 8.101562 2.789062 C 9.316406 2.261719 10.617188 2 12 2 C 13.382812 2 14.683594 2.261719 15.898438 2.789062 C 17.117188 3.3125 18.175781 4.023438 19.074219 4.925781 C 19.976562 5.824219 20.6875 6.882812 21.210938 8.101562 C 21.738281 9.316406 22 10.617188 22 12 C 22 13.382812 21.738281 14.683594 21.210938 15.898438 C 20.6875 17.117188 19.976562 18.175781 19.074219 19.074219 C 18.175781 19.976562 17.117188 20.6875 15.898438 21.210938 C 14.683594 21.738281 13.382812 22 12 22 Z M 12 12 Z M 12 20 C 14.234375 20 16.125 19.226562 17.675781 17.675781 C 19.226562 16.125 20 14.234375 20 12 C 20 9.765625 19.226562 7.875 17.675781 6.324219 C 16.125 4.773438 14.234375 4 12 4 C 9.765625 4 7.875 4.773438 6.324219 6.324219 C 4.773438 7.875 4 9.765625 4 12 C 4 14.234375 4.773438 16.125 6.324219 17.675781 C 7.875 19.226562 9.765625 20 12 20 Z M 12 20 "/>
</g>
</svg>
