<?xml version="1.0" encoding="UTF-8"?>
<svg xmlns="http://www.w3.org/2000/svg" xmlns:xlink="http://www.w3.org/1999/xlink" width="24px" height="24px" viewBox="0 0 24 24" version="1.1">
<g id="surface1">
<path style=" stroke:none;fill-rule:nonzero;fill:rgb(0%,0%,0%);fill-opacity:1;" d="M 20 22 L 14 22 C 13.714844 22 13.480469 21.902344 13.289062 21.710938 C 13.097656 21.519531 13 21.285156 13 21 L 13 15 C 13 14.714844 13.097656 14.480469 13.289062 14.289062 C 13.480469 14.097656 13.714844 14 14 14 L 20 14 C 20.285156 14 20.519531 14.097656 20.710938 14.289062 C 20.902344 14.480469 21 14.714844 21 15 L 21 17 L 22.574219 15.425781 C 22.660156 15.339844 22.75 15.320312 22.851562 15.363281 C 22.949219 15.402344 23 15.484375 23 15.601562 L 23 20.398438 C 23 20.515625 22.949219 20.597656 22.851562 20.636719 C 22.75 20.679688 22.660156 20.660156 22.574219 20.574219 L 21 19 L 21 21 C 21 21.285156 20.902344 21.519531 20.710938 21.710938 C 20.519531 21.902344 20.285156 22 20 22 Z M 12 12 Z M 12.050781 8.5 C 11.082031 8.5 10.257812 8.839844 9.574219 9.523438 C 8.890625 10.207031 8.550781 11.035156 8.550781 12 C 8.550781 12.800781 8.773438 13.5 9.226562 14.101562 C 9.675781 14.699219 10.265625 15.117188 11 15.351562 L 11 13.101562 C 10.867188 12.964844 10.757812 12.796875 10.675781 12.585938 C 10.589844 12.378906 10.550781 12.183594 10.550781 12 C 10.550781 11.582031 10.695312 11.230469 10.988281 10.9375 C 11.277344 10.644531 11.632812 10.5 12.050781 10.5 C 12.464844 10.5 12.816406 10.644531 13.101562 10.9375 C 13.382812 11.230469 13.523438 11.582031 13.523438 12 L 15.550781 12 C 15.550781 11.035156 15.207031 10.207031 14.523438 9.523438 C 13.839844 8.839844 13.015625 8.5 12.050781 8.5 Z M 8.851562 18.800781 C 8.632812 18.714844 8.429688 18.617188 8.238281 18.5 C 8.046875 18.382812 7.859375 18.257812 7.675781 18.125 L 5.5 19.023438 C 5.265625 19.125 5.035156 19.136719 4.800781 19.0625 C 4.566406 18.988281 4.382812 18.839844 4.25 18.625 L 2.398438 15.398438 C 2.265625 15.183594 2.226562 14.949219 2.273438 14.699219 C 2.324219 14.449219 2.449219 14.25 2.648438 14.101562 L 4.523438 12.675781 C 4.507812 12.558594 4.5 12.445312 4.5 12.335938 L 4.5 11.664062 C 4.5 11.554688 4.507812 11.441406 4.523438 11.324219 L 2.648438 9.898438 C 2.449219 9.75 2.324219 9.550781 2.273438 9.300781 C 2.226562 9.050781 2.265625 8.816406 2.398438 8.601562 L 4.25 5.375 C 4.382812 5.160156 4.566406 5.011719 4.800781 4.9375 C 5.035156 4.863281 5.265625 4.875 5.5 4.976562 L 7.675781 5.875 C 7.859375 5.742188 8.050781 5.617188 8.25 5.5 C 8.449219 5.382812 8.648438 5.285156 8.851562 5.199219 L 9.148438 2.875 C 9.183594 2.625 9.292969 2.417969 9.476562 2.25 C 9.660156 2.082031 9.875 2 10.125 2 L 13.875 2 C 14.125 2 14.339844 2.082031 14.523438 2.25 C 14.707031 2.417969 14.816406 2.625 14.851562 2.875 L 15.148438 5.199219 C 15.367188 5.285156 15.570312 5.382812 15.761719 5.5 C 15.953125 5.617188 16.140625 5.742188 16.324219 5.875 L 18.5 4.976562 C 18.734375 4.875 18.964844 4.863281 19.199219 4.9375 C 19.433594 5.011719 19.617188 5.160156 19.75 5.375 L 21.601562 8.601562 C 21.734375 8.816406 21.773438 9.050781 21.726562 9.300781 C 21.675781 9.550781 21.550781 9.75 21.351562 9.898438 L 19.476562 11.324219 C 19.492188 11.441406 19.5 11.554688 19.5 11.664062 L 19.5 12 L 17.5 12 C 17.484375 11.683594 17.457031 11.402344 17.425781 11.164062 C 17.390625 10.921875 17.339844 10.691406 17.273438 10.476562 L 19.425781 8.851562 L 18.449219 7.148438 L 15.976562 8.199219 C 15.609375 7.816406 15.203125 7.496094 14.761719 7.238281 C 14.320312 6.980469 13.839844 6.785156 13.324219 6.648438 L 13 4 L 11.023438 4 L 10.675781 6.648438 C 10.160156 6.785156 9.679688 6.980469 9.238281 7.238281 C 8.796875 7.496094 8.390625 7.808594 8.023438 8.175781 L 5.550781 7.148438 L 4.574219 8.851562 L 6.726562 10.449219 C 6.640625 10.699219 6.582031 10.949219 6.550781 11.199219 C 6.515625 11.449219 6.5 11.714844 6.5 12 C 6.5 12.265625 6.515625 12.523438 6.550781 12.773438 C 6.582031 13.023438 6.640625 13.273438 6.726562 13.523438 L 4.574219 15.148438 L 5.550781 16.851562 L 8.023438 15.800781 C 8.425781 16.214844 8.875 16.566406 9.375 16.851562 C 9.875 17.132812 10.417969 17.316406 11 17.398438 L 11 22 L 10.125 22 C 9.875 22 9.660156 21.917969 9.476562 21.75 C 9.292969 21.582031 9.183594 21.375 9.148438 21.125 Z M 8.851562 18.800781 "/>
</g>
</svg>
