<?xml version="1.0" encoding="UTF-8"?>
<svg xmlns="http://www.w3.org/2000/svg" xmlns:xlink="http://www.w3.org/1999/xlink" width="24px" height="24px" viewBox="0 0 24 24" version="1.1">
<g id="surface1">
<path style=" stroke:none;fill-rule:nonzero;fill:rgb(0%,0%,0%);fill-opacity:1;" d="M 18 6 C 18.285156 6 18.519531 5.902344 18.710938 5.710938 C 18.902344 5.519531 19 5.285156 19 5 C 19 4.714844 18.902344 4.480469 18.710938 4.289062 C 18.519531 4.097656 18.285156 4 18 4 C 17.714844 4 17.480469 4.097656 17.289062 4.289062 C 17.097656 4.480469 17 4.714844 17 5 C 17 5.285156 17.097656 5.519531 17.289062 5.710938 C 17.480469 5.902344 17.714844 6 18 6 Z M 18 20 C 18.285156 20 18.519531 19.902344 18.710938 19.710938 C 18.902344 19.519531 19 19.285156 19 19 C 19 18.714844 18.902344 18.480469 18.710938 18.289062 C 18.519531 18.097656 18.285156 18 18 18 C 17.714844 18 17.480469 18.097656 17.289062 18.289062 C 17.097656 18.480469 17 18.714844 17 19 C 17 19.285156 17.097656 19.519531 17.289062 19.710938 C 17.480469 19.902344 17.714844 20 18 20 Z M 18 5 Z M 18 19 Z M 6 23 C 4.617188 23 3.4375 22.511719 2.460938 21.539062 C 1.488281 20.5625 1 19.382812 1 18 C 1 16.617188 1.488281 15.4375 2.460938 14.460938 C 3.4375 13.488281 4.617188 13 6 13 C 7.382812 13 8.5625 13.488281 9.539062 14.460938 C 10.511719 15.4375 11 16.617188 11 18 C 11 19.382812 10.511719 20.5625 9.539062 21.539062 C 8.5625 22.511719 7.382812 23 6 23 Z M 3.023438 11.675781 C 3.109375 10.925781 3.429688 10.292969 3.988281 9.773438 C 4.546875 9.257812 5.214844 9 6 9 C 6.382812 9 6.75 9.070312 7.101562 9.210938 C 7.449219 9.355469 7.765625 9.550781 8.050781 9.800781 L 15.101562 5.699219 C 15.066406 5.601562 15.042969 5.488281 15.023438 5.363281 C 15.007812 5.238281 15 5.117188 15 5 C 15 4.167969 15.292969 3.457031 15.875 2.875 C 16.457031 2.292969 17.167969 2 18 2 C 18.832031 2 19.542969 2.292969 20.125 2.875 C 20.707031 3.457031 21 4.167969 21 5 C 21 5.832031 20.707031 6.542969 20.125 7.125 C 19.542969 7.707031 18.832031 8 18 8 C 17.617188 8 17.25 7.929688 16.898438 7.789062 C 16.550781 7.644531 16.234375 7.449219 15.949219 7.199219 L 8.898438 11.300781 C 8.917969 11.367188 8.929688 11.429688 8.9375 11.488281 C 8.945312 11.546875 8.957031 11.609375 8.976562 11.675781 C 8.523438 11.457031 8.050781 11.292969 7.550781 11.175781 C 7.050781 11.058594 6.535156 11 6 11 C 5.464844 11 4.949219 11.058594 4.449219 11.175781 C 3.949219 11.292969 3.476562 11.457031 3.023438 11.675781 Z M 18 22 C 17.167969 22 16.457031 21.707031 15.875 21.125 C 15.292969 20.542969 15 19.832031 15 19 C 15 18.882812 15.007812 18.761719 15.023438 18.636719 C 15.042969 18.511719 15.066406 18.398438 15.101562 18.300781 L 12.925781 17.050781 C 12.859375 16.601562 12.753906 16.167969 12.613281 15.75 C 12.472656 15.332031 12.292969 14.933594 12.074219 14.550781 L 15.949219 16.800781 C 16.234375 16.550781 16.550781 16.355469 16.898438 16.210938 C 17.25 16.070312 17.617188 16 18 16 C 18.832031 16 19.542969 16.292969 20.125 16.875 C 20.707031 17.457031 21 18.167969 21 19 C 21 19.832031 20.707031 20.542969 20.125 21.125 C 19.542969 21.707031 18.832031 22 18 22 Z M 6 18.699219 L 7.398438 20.125 C 7.5 20.226562 7.617188 20.273438 7.75 20.273438 C 7.882812 20.273438 8 20.226562 8.101562 20.125 C 8.199219 20.023438 8.25 19.902344 8.25 19.761719 C 8.25 19.621094 8.199219 19.5 8.101562 19.398438 L 6.699219 18 L 8.125 16.574219 C 8.226562 16.476562 8.273438 16.359375 8.273438 16.226562 C 8.273438 16.089844 8.226562 15.976562 8.125 15.875 C 8.023438 15.773438 7.910156 15.726562 7.773438 15.726562 C 7.640625 15.726562 7.523438 15.773438 7.425781 15.875 L 6 17.300781 L 4.574219 15.875 C 4.476562 15.773438 4.359375 15.726562 4.226562 15.726562 C 4.089844 15.726562 3.976562 15.773438 3.875 15.875 C 3.773438 15.976562 3.726562 16.089844 3.726562 16.226562 C 3.726562 16.359375 3.773438 16.476562 3.875 16.574219 L 5.300781 18 L 3.875 19.425781 C 3.773438 19.523438 3.726562 19.640625 3.726562 19.773438 C 3.726562 19.910156 3.773438 20.023438 3.875 20.125 C 3.976562 20.226562 4.089844 20.273438 4.226562 20.273438 C 4.359375 20.273438 4.476562 20.226562 4.574219 20.125 Z M 6 18.699219 "/>
</g>
</svg>
