<?xml version="1.0" encoding="UTF-8"?>
<svg xmlns="http://www.w3.org/2000/svg" xmlns:xlink="http://www.w3.org/1999/xlink" width="24px" height="24px" viewBox="0 0 24 24" version="1.1">
<g id="surface1">
<path style=" stroke:none;fill-rule:nonzero;fill:rgb(0%,0%,0%);fill-opacity:1;" d="M 5 21 C 4.449219 21 3.980469 20.804688 3.585938 20.414062 C 3.195312 20.019531 3 19.550781 3 19 L 3 5 C 3 4.449219 3.195312 3.980469 3.585938 3.585938 C 3.980469 3.195312 4.449219 3 5 3 L 20 3 C 20.550781 3 21.019531 3.195312 21.414062 3.585938 C 21.804688 3.980469 22 4.449219 22 5 L 22 19 C 22 19.550781 21.804688 20.019531 21.414062 20.414062 C 21.019531 20.804688 20.550781 21 20 21 Z M 5 16 L 5 19 L 20 19 L 20 16 Z M 17 14 L 20 14 L 20 5 L 17 5 Z M 5 14 L 8 14 L 8 5 L 5 5 Z M 10 14 L 15 14 L 15 5 L 10 5 Z M 10 14 "/>
</g>
</svg>
