<?xml version="1.0" encoding="UTF-8"?>
<svg xmlns="http://www.w3.org/2000/svg" xmlns:xlink="http://www.w3.org/1999/xlink" width="24px" height="24px" viewBox="0 0 24 24" version="1.1">
<g id="surface1">
<path style=" stroke:none;fill-rule:nonzero;fill:rgb(0%,0%,0%);fill-opacity:1;" d="M 12 13 C 11.015625 13 10.1875 12.664062 9.511719 11.988281 C 8.835938 11.3125 8.5 10.484375 8.5 9.5 C 8.5 8.515625 8.835938 7.6875 9.511719 7.011719 C 10.1875 6.335938 11.015625 6 12 6 C 12.984375 6 13.8125 6.335938 14.488281 7.011719 C 15.164062 7.6875 15.5 8.515625 15.5 9.5 C 15.5 10.484375 15.164062 11.3125 14.488281 11.988281 C 13.8125 12.664062 12.984375 13 12 13 Z M 12 11 C 12.433594 11 12.792969 10.859375 13.074219 10.574219 C 13.359375 10.292969 13.5 9.933594 13.5 9.5 C 13.5 9.066406 13.359375 8.707031 13.074219 8.425781 C 12.792969 8.140625 12.433594 8 12 8 C 11.566406 8 11.207031 8.140625 10.925781 8.425781 C 10.640625 8.707031 10.5 9.066406 10.5 9.5 C 10.5 9.933594 10.640625 10.292969 10.925781 10.574219 C 11.207031 10.859375 11.566406 11 12 11 Z M 12 21.898438 C 11.882812 21.898438 11.773438 21.890625 11.675781 21.875 C 11.574219 21.859375 11.476562 21.832031 11.375 21.800781 C 9.125 21.050781 7.332031 19.664062 6 17.636719 C 4.667969 15.613281 4 13.433594 4 11.101562 L 4 6.375 C 4 5.957031 4.121094 5.582031 4.363281 5.25 C 4.605469 4.917969 4.917969 4.675781 5.300781 4.523438 L 11.300781 2.273438 C 11.535156 2.191406 11.765625 2.148438 12 2.148438 C 12.234375 2.148438 12.464844 2.191406 12.699219 2.273438 L 18.699219 4.523438 C 19.082031 4.675781 19.394531 4.917969 19.636719 5.25 C 19.878906 5.582031 20 5.957031 20 6.375 L 20 11.101562 C 20 13.433594 19.332031 15.613281 18 17.636719 C 16.667969 19.664062 14.875 21.050781 12.625 21.800781 C 12.523438 21.832031 12.425781 21.859375 12.324219 21.875 C 12.226562 21.890625 12.117188 21.898438 12 21.898438 Z M 12 12 Z M 12 4.125 L 6 6.375 L 6 11.101562 C 6 12 6.125 12.875 6.375 13.726562 C 6.625 14.574219 6.964844 15.375 7.398438 16.125 C 8.101562 15.773438 8.832031 15.5 9.601562 15.300781 C 10.367188 15.101562 11.167969 15 12 15 C 12.832031 15 13.632812 15.101562 14.398438 15.300781 C 15.167969 15.5 15.898438 15.773438 16.601562 16.125 C 17.035156 15.375 17.375 14.574219 17.625 13.726562 C 17.875 12.875 18 12 18 11.101562 L 18 6.375 Z M 12 17 C 11.398438 17 10.816406 17.066406 10.25 17.199219 C 9.683594 17.332031 9.140625 17.515625 8.625 17.75 C 9.109375 18.25 9.632812 18.683594 10.199219 19.050781 C 10.765625 19.417969 11.367188 19.699219 12 19.898438 C 12.632812 19.699219 13.234375 19.417969 13.800781 19.050781 C 14.367188 18.683594 14.890625 18.25 15.375 17.75 C 14.859375 17.515625 14.316406 17.332031 13.75 17.199219 C 13.183594 17.066406 12.601562 17 12 17 Z M 12 17 "/>
</g>
</svg>
