<?xml version="1.0" encoding="UTF-8"?>
<svg xmlns="http://www.w3.org/2000/svg" xmlns:xlink="http://www.w3.org/1999/xlink" width="24px" height="24px" viewBox="0 0 24 24" version="1.1">
<g id="surface1">
<path style=" stroke:none;fill-rule:nonzero;fill:rgb(0%,0%,0%);fill-opacity:1;" d="M 14.074219 11.726562 C 15.292969 10.824219 16.242188 9.835938 16.925781 8.761719 C 17.609375 7.6875 17.949219 6.617188 17.949219 5.550781 C 17.949219 5.015625 17.863281 4.625 17.6875 4.375 C 17.511719 4.125 17.273438 4 16.976562 4 C 16.191406 4 15.5 4.664062 14.898438 5.988281 C 14.300781 7.3125 14 8.808594 14 10.476562 C 14 10.707031 14.003906 10.929688 14.011719 11.136719 C 14.019531 11.347656 14.042969 11.542969 14.074219 11.726562 Z M 4.101562 16.300781 C 3.917969 16.484375 3.683594 16.574219 3.398438 16.574219 C 3.117188 16.574219 2.882812 16.484375 2.699219 16.300781 C 2.515625 16.117188 2.425781 15.882812 2.425781 15.601562 C 2.425781 15.316406 2.515625 15.082031 2.699219 14.898438 L 3.601562 14 L 2.699219 13.101562 C 2.515625 12.917969 2.425781 12.683594 2.425781 12.398438 C 2.425781 12.117188 2.515625 11.882812 2.699219 11.699219 C 2.882812 11.515625 3.117188 11.425781 3.398438 11.425781 C 3.683594 11.425781 3.917969 11.515625 4.101562 11.699219 L 5 12.601562 L 5.898438 11.699219 C 6.082031 11.515625 6.316406 11.425781 6.601562 11.425781 C 6.882812 11.425781 7.117188 11.515625 7.300781 11.699219 C 7.484375 11.882812 7.574219 12.117188 7.574219 12.398438 C 7.574219 12.683594 7.484375 12.917969 7.300781 13.101562 L 6.398438 14 L 7.300781 14.898438 C 7.484375 15.082031 7.574219 15.316406 7.574219 15.601562 C 7.574219 15.882812 7.484375 16.117188 7.300781 16.300781 C 7.117188 16.484375 6.882812 16.574219 6.601562 16.574219 C 6.316406 16.574219 6.082031 16.484375 5.898438 16.300781 L 5 15.398438 Z M 15.449219 16 C 14.949219 16 14.492188 15.902344 14.074219 15.710938 C 13.660156 15.519531 13.300781 15.207031 13 14.773438 C 12.734375 14.910156 12.457031 15.042969 12.175781 15.175781 L 11.324219 15.574219 C 11.058594 15.691406 10.796875 15.695312 10.539062 15.585938 C 10.277344 15.480469 10.101562 15.292969 10 15.023438 C 9.898438 14.757812 9.914062 14.5 10.039062 14.25 C 10.164062 14 10.359375 13.816406 10.625 13.699219 C 10.910156 13.566406 11.183594 13.4375 11.449219 13.3125 C 11.714844 13.1875 11.976562 13.058594 12.226562 12.925781 C 12.140625 12.558594 12.078125 12.160156 12.039062 11.726562 C 11.996094 11.292969 11.976562 10.824219 11.976562 10.324219 C 11.976562 7.925781 12.449219 5.9375 13.398438 4.363281 C 14.351562 2.789062 15.542969 2 16.976562 2 C 17.839844 2 18.550781 2.320312 19.101562 2.960938 C 19.648438 3.605469 19.925781 4.5 19.925781 5.648438 C 19.925781 7.082031 19.472656 8.5 18.5625 9.898438 C 17.652344 11.300781 16.390625 12.558594 14.773438 13.675781 C 14.890625 13.792969 15.011719 13.878906 15.136719 13.9375 C 15.261719 13.996094 15.390625 14.023438 15.523438 14.023438 C 15.875 14.023438 16.285156 13.832031 16.75 13.449219 C 17.214844 13.066406 17.667969 12.550781 18.101562 11.898438 C 18.265625 11.667969 18.480469 11.503906 18.738281 11.414062 C 18.996094 11.320312 19.25 11.332031 19.5 11.449219 C 19.75 11.582031 19.933594 11.777344 20.050781 12.039062 C 20.167969 12.296875 20.199219 12.566406 20.148438 12.851562 C 20.117188 13.050781 20.101562 13.242188 20.101562 13.425781 C 20.101562 13.609375 20.125 13.785156 20.175781 13.949219 C 20.257812 13.917969 20.355469 13.863281 20.460938 13.789062 C 20.570312 13.710938 20.683594 13.617188 20.800781 13.5 C 21 13.316406 21.238281 13.210938 21.511719 13.1875 C 21.789062 13.164062 22.035156 13.234375 22.25 13.398438 C 22.484375 13.582031 22.609375 13.808594 22.625 14.074219 C 22.640625 14.339844 22.558594 14.566406 22.375 14.75 C 21.992188 15.132812 21.585938 15.4375 21.164062 15.664062 C 20.738281 15.886719 20.332031 16 19.949219 16 C 19.601562 16 19.289062 15.894531 19.011719 15.6875 C 18.738281 15.480469 18.507812 15.160156 18.324219 14.726562 C 17.859375 15.140625 17.382812 15.457031 16.898438 15.675781 C 16.417969 15.890625 15.933594 16 15.449219 16 Z M 4 21 C 3.714844 21 3.480469 20.902344 3.289062 20.710938 C 3.097656 20.519531 3 20.285156 3 20 C 3 19.714844 3.097656 19.480469 3.289062 19.289062 C 3.480469 19.097656 3.714844 19 4 19 C 4.285156 19 4.519531 19.097656 4.710938 19.289062 C 4.902344 19.480469 5 19.714844 5 20 C 5 20.285156 4.902344 20.519531 4.710938 20.710938 C 4.519531 20.902344 4.285156 21 4 21 Z M 8 21 C 7.714844 21 7.480469 20.902344 7.289062 20.710938 C 7.097656 20.519531 7 20.285156 7 20 C 7 19.714844 7.097656 19.480469 7.289062 19.289062 C 7.480469 19.097656 7.714844 19 8 19 C 8.285156 19 8.519531 19.097656 8.710938 19.289062 C 8.902344 19.480469 9 19.714844 9 20 C 9 20.285156 8.902344 20.519531 8.710938 20.710938 C 8.519531 20.902344 8.285156 21 8 21 Z M 12 21 C 11.714844 21 11.480469 20.902344 11.289062 20.710938 C 11.097656 20.519531 11 20.285156 11 20 C 11 19.714844 11.097656 19.480469 11.289062 19.289062 C 11.480469 19.097656 11.714844 19 12 19 C 12.285156 19 12.519531 19.097656 12.710938 19.289062 C 12.902344 19.480469 13 19.714844 13 20 C 13 20.285156 12.902344 20.519531 12.710938 20.710938 C 12.519531 20.902344 12.285156 21 12 21 Z M 16 21 C 15.714844 21 15.480469 20.902344 15.289062 20.710938 C 15.097656 20.519531 15 20.285156 15 20 C 15 19.714844 15.097656 19.480469 15.289062 19.289062 C 15.480469 19.097656 15.714844 19 16 19 C 16.285156 19 16.519531 19.097656 16.710938 19.289062 C 16.902344 19.480469 17 19.714844 17 20 C 17 20.285156 16.902344 20.519531 16.710938 20.710938 C 16.519531 20.902344 16.285156 21 16 21 Z M 20 21 C 19.714844 21 19.480469 20.902344 19.289062 20.710938 C 19.097656 20.519531 19 20.285156 19 20 C 19 19.714844 19.097656 19.480469 19.289062 19.289062 C 19.480469 19.097656 19.714844 19 20 19 C 20.285156 19 20.519531 19.097656 20.710938 19.289062 C 20.902344 19.480469 21 19.714844 21 20 C 21 20.285156 20.902344 20.519531 20.710938 20.710938 C 20.519531 20.902344 20.285156 21 20 21 Z M 20 21 "/>
</g>
</svg>
