<?xml version="1.0" encoding="UTF-8"?>
<svg xmlns="http://www.w3.org/2000/svg" xmlns:xlink="http://www.w3.org/1999/xlink" width="24px" height="24px" viewBox="0 0 24 24" version="1.1">
<g id="surface1">
<path style=" stroke:none;fill-rule:nonzero;fill:rgb(0%,0%,0%);fill-opacity:1;" d="M 4.425781 22 C 3.976562 22 3.664062 21.796875 3.488281 21.386719 C 3.3125 20.980469 3.382812 20.617188 3.699219 20.300781 L 20.300781 3.699219 C 20.617188 3.382812 20.980469 3.3125 21.386719 3.488281 C 21.796875 3.664062 22 3.976562 22 4.425781 L 22 12 C 22 12.285156 21.902344 12.519531 21.710938 12.710938 C 21.519531 12.902344 21.285156 13 21 13 C 20.714844 13 20.480469 12.902344 20.289062 12.710938 C 20.097656 12.519531 20 12.285156 20 12 L 20 6.824219 L 6.824219 20 L 12 20 C 12.285156 20 12.519531 20.097656 12.710938 20.289062 C 12.902344 20.480469 13 20.714844 13 21 C 13 21.285156 12.902344 21.519531 12.710938 21.710938 C 12.519531 21.902344 12.285156 22 12 22 Z M 16 22 C 15.714844 22 15.480469 21.902344 15.289062 21.710938 C 15.097656 21.519531 15 21.285156 15 21 L 15 16 C 15 15.714844 15.097656 15.480469 15.289062 15.289062 C 15.480469 15.097656 15.714844 15 16 15 C 16.285156 15 16.519531 15.097656 16.710938 15.289062 C 16.902344 15.480469 17 15.714844 17 16 L 17 21 C 17 21.285156 16.902344 21.519531 16.710938 21.710938 C 16.519531 21.902344 16.285156 22 16 22 Z M 20 22 C 19.714844 22 19.480469 21.902344 19.289062 21.710938 C 19.097656 21.519531 19 21.285156 19 21 L 19 16 C 19 15.714844 19.097656 15.480469 19.289062 15.289062 C 19.480469 15.097656 19.714844 15 20 15 C 20.285156 15 20.519531 15.097656 20.710938 15.289062 C 20.902344 15.480469 21 15.714844 21 16 L 21 21 C 21 21.285156 20.902344 21.519531 20.710938 21.710938 C 20.519531 21.902344 20.285156 22 20 22 Z M 13.425781 13.398438 Z M 13.425781 13.398438 "/>
</g>
</svg>
