<?xml version="1.0" encoding="UTF-8"?>
<svg xmlns="http://www.w3.org/2000/svg" xmlns:xlink="http://www.w3.org/1999/xlink" width="24px" height="24px" viewBox="0 0 24 24" version="1.1">
<g id="surface1">
<path style=" stroke:none;fill-rule:nonzero;fill:rgb(0%,0%,0%);fill-opacity:1;" d="M 12 20 C 13.25 20 14.3125 19.5625 15.1875 18.6875 C 16.0625 17.8125 16.5 16.75 16.5 15.5 C 16.5 14.25 16.0625 13.1875 15.1875 12.3125 C 14.3125 11.4375 13.25 11 12 11 C 10.75 11 9.6875 11.4375 8.8125 12.3125 C 7.9375 13.1875 7.5 14.25 7.5 15.5 C 7.5 16.75 7.9375 17.8125 8.8125 18.6875 C 9.6875 19.5625 10.75 20 12 20 Z M 9.074219 9.699219 C 9.410156 9.515625 9.761719 9.371094 10.136719 9.261719 C 10.511719 9.152344 10.890625 9.082031 11.273438 9.050781 L 8.75 4 L 6.25 4 Z M 14.925781 9.699219 L 17.773438 4 L 15.25 4 L 12.726562 9.050781 C 13.109375 9.082031 13.488281 9.152344 13.863281 9.261719 C 14.238281 9.371094 14.589844 9.515625 14.925781 9.699219 Z M 6.398438 18.800781 C 6.117188 18.316406 5.894531 17.796875 5.738281 17.238281 C 5.578125 16.679688 5.5 16.101562 5.5 15.5 C 5.5 14.898438 5.578125 14.320312 5.738281 13.761719 C 5.894531 13.203125 6.117188 12.683594 6.398438 12.199219 C 5.699219 12.433594 5.125 12.847656 4.675781 13.4375 C 4.226562 14.027344 4 14.714844 4 15.5 C 4 16.285156 4.226562 16.972656 4.675781 17.5625 C 5.125 18.152344 5.699219 18.566406 6.398438 18.800781 Z M 17.601562 18.800781 C 18.300781 18.566406 18.875 18.152344 19.324219 17.5625 C 19.773438 16.972656 20 16.285156 20 15.5 C 20 14.714844 19.773438 14.027344 19.324219 13.4375 C 18.875 12.847656 18.300781 12.433594 17.601562 12.199219 C 17.882812 12.683594 18.105469 13.203125 18.261719 13.761719 C 18.421875 14.320312 18.5 14.898438 18.5 15.5 C 18.5 16.101562 18.421875 16.679688 18.261719 17.238281 C 18.105469 17.796875 17.882812 18.316406 17.601562 18.800781 Z M 12 22 C 11.332031 22 10.695312 21.902344 10.085938 21.710938 C 9.480469 21.519531 8.917969 21.257812 8.398438 20.925781 C 8.25 20.957031 8.101562 20.980469 7.949219 20.988281 C 7.800781 20.996094 7.640625 21 7.476562 21 C 5.957031 21 4.667969 20.464844 3.601562 19.398438 C 2.535156 18.332031 2 17.042969 2 15.523438 C 2 14.074219 2.484375 12.832031 3.449219 11.800781 C 4.417969 10.765625 5.609375 10.191406 7.023438 10.074219 L 3.726562 3.449219 C 3.558594 3.117188 3.570312 2.792969 3.761719 2.476562 C 3.953125 2.160156 4.242188 2 4.625 2 L 8.773438 2 C 9.160156 2 9.503906 2.101562 9.8125 2.300781 C 10.121094 2.5 10.367188 2.765625 10.550781 3.101562 L 12 6 L 13.449219 3.101562 C 13.632812 2.765625 13.878906 2.5 14.1875 2.300781 C 14.496094 2.101562 14.839844 2 15.226562 2 L 19.375 2 C 19.757812 2 20.046875 2.160156 20.238281 2.476562 C 20.429688 2.792969 20.441406 3.117188 20.273438 3.449219 L 17 10.023438 C 18.417969 10.160156 19.605469 10.742188 20.5625 11.773438 C 21.519531 12.808594 22 14.050781 22 15.5 C 22 17.035156 21.464844 18.332031 20.398438 19.398438 C 19.332031 20.464844 18.035156 21 16.5 21 C 16.351562 21 16.195312 20.996094 16.039062 20.988281 C 15.878906 20.980469 15.726562 20.957031 15.574219 20.925781 C 15.058594 21.257812 14.5 21.519531 13.898438 21.710938 C 13.300781 21.902344 12.667969 22 12 22 Z M 12 15.5 Z M 9.074219 9.699219 L 6.25 4 Z M 14.925781 9.699219 L 17.773438 4 Z M 11.226562 16.273438 L 10 15.726562 C 9.898438 15.675781 9.851562 15.601562 9.851562 15.5 C 9.851562 15.398438 9.898438 15.324219 10 15.273438 L 11.226562 14.726562 L 11.773438 13.5 C 11.824219 13.398438 11.898438 13.351562 12 13.351562 C 12.101562 13.351562 12.175781 13.398438 12.226562 13.5 L 12.773438 14.726562 L 14 15.273438 C 14.101562 15.324219 14.148438 15.398438 14.148438 15.5 C 14.148438 15.601562 14.101562 15.675781 14 15.726562 L 12.773438 16.273438 L 12.226562 17.5 C 12.175781 17.601562 12.101562 17.648438 12 17.648438 C 11.898438 17.648438 11.824219 17.601562 11.773438 17.5 Z M 11.226562 16.273438 "/>
</g>
</svg>
