<svg xmlns="http://www.w3.org/2000/svg" width="24" height="24" viewBox="0 0 24 24"><path d="m22 19.15l-2-2V10h-7.15l-2-2H20q.825 0 1.413.588T22 10v9.15ZM6.85 4l-2-2H14q.825 0 1.413.588T16 4v1q0 .425-.288.713T15 6q-.425 0-.713-.288T14 5V4H6.85Zm9.575 9.575ZM10 20h7.15L10 12.85V20Zm0 2q-.85 0-1.425-.575T8 20v-9.15l-4-4V14h1q.425 0 .713.288T6 15q0 .425-.288.713T5 16H4q-.85 0-1.425-.575T2 14V4.85l-.725-.725q-.3-.3-.288-.712T1.3 2.7q.3-.3.713-.3t.712.3L21.3 21.3q.3.3.3.7t-.3.7q-.3.3-.713.3t-.712-.3l-.725-.7H10Zm3.575-5.575Z"/></svg>