<?xml version="1.0" encoding="UTF-8"?>
<svg xmlns="http://www.w3.org/2000/svg" xmlns:xlink="http://www.w3.org/1999/xlink" width="24px" height="24px" viewBox="0 0 24 24" version="1.1">
<g id="surface1">
<path style=" stroke:none;fill-rule:nonzero;fill:rgb(0%,0%,0%);fill-opacity:1;" d="M 7 17 C 6.449219 17 5.980469 16.804688 5.585938 16.414062 C 5.195312 16.019531 5 15.550781 5 15 L 5 5 C 5 4.449219 5.195312 3.980469 5.585938 3.585938 C 5.980469 3.195312 6.449219 3 7 3 L 21 3 C 21.550781 3 22.019531 3.195312 22.414062 3.585938 C 22.804688 3.980469 23 4.449219 23 5 L 23 15 C 23 15.550781 22.804688 16.019531 22.414062 16.414062 C 22.019531 16.804688 21.550781 17 21 17 Z M 7 12 L 7 15 L 21 15 L 21 12 L 17.449219 12 C 17.101562 12.601562 16.625 13.082031 16.023438 13.449219 C 15.425781 13.816406 14.75 14 14 14 C 13.25 14 12.574219 13.816406 11.976562 13.449219 C 11.375 13.082031 10.898438 12.601562 10.550781 12 Z M 14 12 C 14.433594 12 14.824219 11.871094 15.175781 11.613281 C 15.523438 11.355469 15.765625 11.023438 15.898438 10.625 C 15.933594 10.441406 16.015625 10.292969 16.148438 10.175781 C 16.285156 10.058594 16.441406 10 16.625 10 L 21 10 L 21 5 L 7 5 L 7 10 L 11.375 10 C 11.558594 10 11.714844 10.058594 11.851562 10.175781 C 11.984375 10.292969 12.066406 10.441406 12.101562 10.625 C 12.234375 11.023438 12.476562 11.355469 12.824219 11.613281 C 13.175781 11.871094 13.566406 12 14 12 Z M 3 21 C 2.449219 21 1.980469 20.804688 1.585938 20.414062 C 1.195312 20.019531 1 19.550781 1 19 L 1 8 C 1 7.714844 1.097656 7.480469 1.289062 7.289062 C 1.480469 7.097656 1.714844 7 2 7 C 2.285156 7 2.519531 7.097656 2.710938 7.289062 C 2.902344 7.480469 3 7.714844 3 8 L 3 19 L 18 19 C 18.285156 19 18.519531 19.097656 18.710938 19.289062 C 18.902344 19.480469 19 19.714844 19 20 C 19 20.285156 18.902344 20.519531 18.710938 20.710938 C 18.519531 20.902344 18.285156 21 18 21 Z M 7 15 L 21 15 Z M 7 15 "/>
</g>
</svg>
