<?xml version="1.0" encoding="UTF-8"?>
<svg xmlns="http://www.w3.org/2000/svg" xmlns:xlink="http://www.w3.org/1999/xlink" width="24px" height="24px" viewBox="0 0 24 24" version="1.1">
<g id="surface1">
<path style=" stroke:none;fill-rule:nonzero;fill:rgb(0%,0%,0%);fill-opacity:1;" d="M 12 22 C 11.167969 22 10.457031 21.707031 9.875 21.125 C 9.292969 20.542969 9 19.832031 9 19 C 9 18.167969 9.292969 17.457031 9.875 16.875 C 10.457031 16.292969 11.167969 16 12 16 C 12.832031 16 13.542969 16.292969 14.125 16.875 C 14.707031 17.457031 15 18.167969 15 19 C 15 19.832031 14.707031 20.542969 14.125 21.125 C 13.542969 21.707031 12.832031 22 12 22 Z M 11 5.824219 L 9.101562 7.699219 C 8.917969 7.882812 8.6875 7.980469 8.414062 7.988281 C 8.136719 7.996094 7.898438 7.898438 7.699219 7.699219 C 7.515625 7.515625 7.425781 7.285156 7.425781 7 C 7.425781 6.714844 7.515625 6.484375 7.699219 6.300781 L 11.300781 2.699219 C 11.5 2.5 11.734375 2.398438 12 2.398438 C 12.265625 2.398438 12.5 2.5 12.699219 2.699219 L 16.300781 6.300781 C 16.5 6.5 16.597656 6.734375 16.585938 7 C 16.578125 7.265625 16.476562 7.5 16.273438 7.699219 C 16.074219 7.882812 15.839844 7.980469 15.574219 7.988281 C 15.308594 7.996094 15.074219 7.898438 14.875 7.699219 L 13 5.824219 L 13 13 C 13 13.285156 12.902344 13.519531 12.710938 13.710938 C 12.519531 13.902344 12.285156 14 12 14 C 11.714844 14 11.480469 13.902344 11.289062 13.710938 C 11.097656 13.519531 11 13.285156 11 13 Z M 11 5.824219 "/>
</g>
</svg>
