<svg xmlns="http://www.w3.org/2000/svg" width="24" height="24" viewBox="0 0 24 24"><path fill="currentColor" d="m16.1 11.9l-1.4-1.425l5.3-5.3V4h-1.175l-5.3 5.3L12.1 7.9l5.6-5.6q.15-.15.338-.225T18.424 2H21q.425 0 .712.288T22 3v2.575q0 .2-.075.388T21.7 6.3l-5.6 5.6ZM3.55 21.7L2.3 20.45q-.3-.3-.3-.7t.3-.7l2.9-2.925l-2.2-2.2l.7-.7q.575-.575 1.425-.575t1.425.575l.1.125l1.2-1.2l1.425 1.4l-1.2 1.2l1.175 1.175l1.2-1.2l1.4 1.425l-1.2 1.2l.125.1q.575.575.575 1.425t-.575 1.425l-.7.7l-2.2-2.2l-2.925 2.9q-.3.3-.7.3t-.7-.3Zm17.4-7.525q.125-.575 0-1.15t-.375-1.125q-.425.4-.75.888t-.45 1.062q-.125.575.013 1.138t.362 1.112q.425-.4.75-.875t.45-1.05ZM5.175 8.35q.475.475 1.088.625t1.187-.05l-.475-.475Q6.525 8 5.9 7.837t-1.2.038l.475.475ZM7 3.85L5.025 5.8q.9-.075 1.788.225t1.587 1l.475.475q.2-.575.075-1.2t-.625-1.1L7 3.85Zm13.25 17.825L8.925 10.4q-1.225.75-2.675.588t-2.5-1.213L1 7l6-5.975l2.75 2.75Q10.825 4.85 10.963 6.3t-.613 2.675l7.225 7.225q-.2-.65-.25-1.35t.075-1.4q.275-1.275 1.075-2.3t1.9-1.675q.35-.2.738-.125t.612.4q.725 1.025 1.088 2.275t.087 2.525q-.275 1.275-1.063 2.275t-1.912 1.725l1.725 1.725q.275.275.288.688t-.288.712q-.275.275-.7.275t-.7-.275ZM7.75 7.75Z"/></svg>