<?xml version="1.0" encoding="UTF-8"?>
<svg xmlns="http://www.w3.org/2000/svg" xmlns:xlink="http://www.w3.org/1999/xlink" width="24px" height="24px" viewBox="0 0 24 24" version="1.1">
<g id="surface1">
<path style=" stroke:none;fill-rule:nonzero;fill:rgb(0%,0%,0%);fill-opacity:1;" d="M 5 21 C 4.449219 21 3.980469 20.804688 3.585938 20.414062 C 3.195312 20.019531 3 19.550781 3 19 L 3 17 C 3 16.714844 3.097656 16.480469 3.289062 16.289062 C 3.480469 16.097656 3.714844 16 4 16 C 4.285156 16 4.519531 16.097656 4.710938 16.289062 C 4.902344 16.480469 5 16.714844 5 17 L 5 19 L 19 19 L 19 7 L 5 7 L 5 9 C 5 9.285156 4.902344 9.519531 4.710938 9.710938 C 4.519531 9.902344 4.285156 10 4 10 C 3.714844 10 3.480469 9.902344 3.289062 9.710938 C 3.097656 9.519531 3 9.285156 3 9 L 3 5 C 3 4.449219 3.195312 3.980469 3.585938 3.585938 C 3.980469 3.195312 4.449219 3 5 3 L 19 3 C 19.550781 3 20.019531 3.195312 20.414062 3.585938 C 20.804688 3.980469 21 4.449219 21 5 L 21 19 C 21 19.550781 20.804688 20.019531 20.414062 20.414062 C 20.019531 20.804688 19.550781 21 19 21 Z M 12.175781 14 L 4 14 C 3.714844 14 3.480469 13.902344 3.289062 13.710938 C 3.097656 13.519531 3 13.285156 3 13 C 3 12.714844 3.097656 12.480469 3.289062 12.289062 C 3.480469 12.097656 3.714844 12 4 12 L 12.175781 12 L 10.800781 10.601562 C 10.617188 10.417969 10.519531 10.1875 10.511719 9.914062 C 10.503906 9.636719 10.601562 9.398438 10.800781 9.199219 C 10.984375 9.015625 11.214844 8.925781 11.5 8.925781 C 11.785156 8.925781 12.015625 9.015625 12.199219 9.199219 L 15.300781 12.300781 C 15.5 12.5 15.601562 12.734375 15.601562 13 C 15.601562 13.265625 15.5 13.5 15.300781 13.699219 L 12.199219 16.800781 C 12.015625 16.984375 11.789062 17.078125 11.511719 17.085938 C 11.238281 17.097656 11 17 10.800781 16.800781 C 10.617188 16.617188 10.523438 16.382812 10.523438 16.101562 C 10.523438 15.816406 10.617188 15.582031 10.800781 15.398438 Z M 12.175781 14 "/>
</g>
</svg>
