<?xml version="1.0" encoding="UTF-8"?>
<svg xmlns="http://www.w3.org/2000/svg" xmlns:xlink="http://www.w3.org/1999/xlink" width="24px" height="24px" viewBox="0 0 24 24" version="1.1">
<g id="surface1">
<path style=" stroke:none;fill-rule:nonzero;fill:rgb(0%,0%,0%);fill-opacity:1;" d="M 11 5 L 11 3 L 13 3 L 13 5 Z M 11 21 L 11 19 L 13 19 L 13 21 Z M 7 5 L 7 3 L 9 3 L 9 5 Z M 7 21 L 7 19 L 9 19 L 9 21 Z M 6.300781 15.300781 L 3.699219 12.699219 C 3.5 12.5 3.398438 12.265625 3.398438 12 C 3.398438 11.734375 3.5 11.5 3.699219 11.300781 L 6.300781 8.699219 C 6.484375 8.515625 6.710938 8.421875 6.988281 8.414062 C 7.261719 8.402344 7.5 8.5 7.699219 8.699219 C 7.882812 8.882812 7.976562 9.117188 7.976562 9.398438 C 7.976562 9.683594 7.882812 9.917969 7.699219 10.101562 L 6.824219 11 L 13 11 C 13.285156 11 13.519531 11.097656 13.710938 11.289062 C 13.902344 11.480469 14 11.714844 14 12 C 14 12.285156 13.902344 12.519531 13.710938 12.710938 C 13.519531 12.902344 13.285156 13 13 13 L 6.824219 13 L 7.726562 13.898438 C 7.910156 14.082031 8 14.3125 8 14.585938 C 8 14.863281 7.898438 15.101562 7.699219 15.300781 C 7.515625 15.484375 7.285156 15.574219 7 15.574219 C 6.714844 15.574219 6.484375 15.484375 6.300781 15.300781 Z M 16 21 C 15.714844 21 15.480469 20.902344 15.289062 20.710938 C 15.097656 20.519531 15 20.285156 15 20 C 15 19.714844 15.097656 19.480469 15.289062 19.289062 C 15.480469 19.097656 15.714844 19 16 19 L 17 19 L 17 5 L 16 5 C 15.714844 5 15.480469 4.902344 15.289062 4.710938 C 15.097656 4.519531 15 4.285156 15 4 C 15 3.714844 15.097656 3.480469 15.289062 3.289062 C 15.480469 3.097656 15.714844 3 16 3 L 20 3 C 20.285156 3 20.519531 3.097656 20.710938 3.289062 C 20.902344 3.480469 21 3.714844 21 4 C 21 4.285156 20.902344 4.519531 20.710938 4.710938 C 20.519531 4.902344 20.285156 5 20 5 L 19 5 L 19 19 L 20 19 C 20.285156 19 20.519531 19.097656 20.710938 19.289062 C 20.902344 19.480469 21 19.714844 21 20 C 21 20.285156 20.902344 20.519531 20.710938 20.710938 C 20.519531 20.902344 20.285156 21 20 21 Z M 3 5 C 3 4.449219 3.195312 3.980469 3.585938 3.585938 C 3.980469 3.195312 4.449219 3 5 3 L 5 5 Z M 5 21 C 4.449219 21 3.980469 20.804688 3.585938 20.414062 C 3.195312 20.019531 3 19.550781 3 19 L 5 19 Z M 5 21 "/>
</g>
</svg>
