<svg xmlns="http://www.w3.org/2000/svg" width="24" height="24" viewBox="0 0 24 24"><path fill="currentColor" d="M4 20q-.825 0-1.413-.588T2 18V6q0-.825.588-1.413T4 4h16q.825 0 1.413.588T22 6v12q0 .825-.588 1.413T20 20H4Zm0-2h16V6H4v12Zm0 0V6v12Zm2-1h12q.425 0 .713-.288T19 16q0-.425-.288-.713T18 15H6q-.425 0-.713.288T5 16q0 .425.288.713T6 17Zm0-4h12q.425 0 .713-.288T19 12q0-.425-.288-.713T18 11H6q-.425 0-.713.288T5 12q0 .425.288.713T6 13Zm0-4h8q.425 0 .713-.288T15 8q0-.425-.288-.713T14 7H6q-.425 0-.713.288T5 8q0 .425.288.713T6 9Z"/></svg>