<svg xmlns="http://www.w3.org/2000/svg" width="24" height="24" viewBox="0 0 24 24"><path fill="currentColor" d="M11 18q-1.575 0-2.938-.55t-2.412-1.5q-.3-.275-.275-.662t.35-.663q.325-.275.75-.262t.75.287q.8.65 1.738 1T11 16q2.5 0 4.25-1.75T17 10q0-2.5-1.75-4.25T11 4Q8.925 4 7.337 5.25T5.226 8.425q-.125.425-.45.75t-.75.325q-.425 0-.688-.338T3.176 8.4q.575-2.75 2.738-4.575T11 2q3.35 0 5.675 2.325T19 10q0 1.4-.45 2.638T17.3 14.9l4 4q.275.275.275.7t-.275.7q-.275.275-.7.275t-.7-.275l-4-4q-1.025.8-2.263 1.25T11 18Zm-.325-6.65l.925-2.875q.075-.2.238-.338T12.225 8h.6q.2 0 .35.1t.25.275L14.75 11q.325 0 .537.213t.213.537q0 .325-.213.537t-.537.213h-.45q-.2 0-.388-.113t-.287-.312l-.975-1.925l-1.1 3.375q-.075.225-.25.35t-.4.125h-.45q-.225 0-.412-.138t-.263-.362L8.35 8.8L7.225 12q-.075.225-.263.363t-.437.137H2.75q-.325 0-.537-.213T2 11.75q0-.325.213-.537T2.75 11H6l1.475-4.275q.075-.225.263-.35t.412-.125h.475q.25 0 .425.15t.25.375l1.375 4.575Z"/></svg>