<?xml version="1.0" encoding="UTF-8"?>
<svg xmlns="http://www.w3.org/2000/svg" xmlns:xlink="http://www.w3.org/1999/xlink" width="24px" height="24px" viewBox="0 0 24 24" version="1.1">
<g id="surface1">
<path style=" stroke:none;fill-rule:nonzero;fill:rgb(0%,0%,0%);fill-opacity:1;" d="M 4 20 C 3.449219 20 2.980469 19.804688 2.585938 19.414062 C 2.195312 19.019531 2 18.550781 2 18 L 2 6 C 2 5.449219 2.195312 4.980469 2.585938 4.585938 C 2.980469 4.195312 3.449219 4 4 4 L 20 4 C 20.550781 4 21.019531 4.195312 21.414062 4.585938 C 21.804688 4.980469 22 5.449219 22 6 L 22 10 C 22 10.285156 21.902344 10.519531 21.710938 10.710938 C 21.519531 10.902344 21.285156 11 21 11 C 20.714844 11 20.480469 10.902344 20.289062 10.710938 C 20.097656 10.519531 20 10.285156 20 10 L 20 6 L 4 6 L 4 18 L 14 18 C 14.285156 18 14.519531 18.097656 14.710938 18.289062 C 14.902344 18.480469 15 18.714844 15 19 C 15 19.285156 14.902344 19.519531 14.710938 19.710938 C 14.519531 19.902344 14.285156 20 14 20 Z M 8 11.425781 L 10.375 13.800781 C 10.574219 14 10.808594 14.101562 11.074219 14.101562 C 11.339844 14.101562 11.574219 14 11.773438 13.800781 C 11.976562 13.601562 12.074219 13.363281 12.074219 13.085938 C 12.074219 12.8125 11.976562 12.574219 11.773438 12.375 L 9.398438 10 L 11 10 C 11.285156 10 11.519531 9.902344 11.710938 9.710938 C 11.902344 9.519531 12 9.285156 12 9 C 12 8.714844 11.902344 8.480469 11.710938 8.289062 C 11.519531 8.097656 11.285156 8 11 8 L 7 8 C 6.714844 8 6.480469 8.097656 6.289062 8.289062 C 6.097656 8.480469 6 8.714844 6 9 L 6 13 C 6 13.285156 6.097656 13.519531 6.289062 13.710938 C 6.480469 13.902344 6.714844 14 7 14 C 7.285156 14 7.519531 13.902344 7.710938 13.710938 C 7.902344 13.519531 8 13.285156 8 13 Z M 18 20 C 17.714844 20 17.480469 19.902344 17.289062 19.710938 C 17.097656 19.519531 17 19.285156 17 19 L 17 14 C 17 13.714844 17.097656 13.480469 17.289062 13.289062 C 17.480469 13.097656 17.714844 13 18 13 L 21 13 C 21.285156 13 21.519531 13.097656 21.710938 13.289062 C 21.902344 13.480469 22 13.714844 22 14 L 22 19 C 22 19.285156 21.902344 19.519531 21.710938 19.710938 C 21.519531 19.902344 21.285156 20 21 20 Z M 12 12 Z M 12 12 "/>
</g>
</svg>
