<svg xmlns="http://www.w3.org/2000/svg" width="24" height="24" viewBox="0 0 24 24"><path fill="currentColor" d="m6.825 13l.875.925q.275.275.275.688T7.7 15.3q-.3.3-.713.3t-.687-.3l-2.6-2.575q-.15-.15-.225-.337T3.4 12q0-.2.075-.375T3.7 11.3l2.6-2.6q.275-.275.688-.275T7.7 8.7q.3.3.3.713t-.3.712L6.825 11h10.35l-.9-.9Q16 9.825 16 9.412t.3-.712q.275-.275.688-.275t.712.275l2.575 2.6q.15.15.225.325t.075.375q0 .2-.075.387t-.225.338l-2.6 2.6q-.275.275-.688.275t-.712-.3Q16 15.025 16 14.612t.275-.687l.9-.925H6.825Z"/></svg>