<svg xmlns="http://www.w3.org/2000/svg" width="24" height="24" viewBox="0 0 24 24"><path fill="currentColor" d="M17.325 8.5q-1.15 0-2.175.375T13.3 9.9q-.25.2-.563.2t-.537-.225q-.225-.225-.2-.55t.275-.525q1.05-.85 2.337-1.325T17.35 7q1.45 0 2.725.475T22.4 8.8q.25.2.263.525t-.213.55q-.225.225-.525.225t-.55-.2q-.825-.65-1.862-1.025T17.325 8.5Zm.025 3q-.525 0-1.013.15t-.912.425q-.275.175-.563.163T14.35 12q-.225-.225-.212-.525t.262-.5q.625-.45 1.363-.713T17.325 10q.825 0 1.588.263t1.387.712q.25.2.263.5T20.35 12q-.225.225-.525.225t-.575-.175q-.425-.275-.9-.413t-1-.137Zm0 3.5q-.425 0-.713-.288T16.35 14q0-.425.288-.713T17.35 13q.425 0 .713.288t.287.712q0 .425-.288.713T17.35 15ZM12 22q-.825 0-1.413-.588T10 20h4q0 .825-.588 1.413T12 22Zm-6-5v-7q0-2.075 1.25-3.688T10.5 4.2v-.7q0-.625.438-1.063T12 2q.625 0 1.063.438T13.5 3.5v.7q.575.125 1.088.375t.987.6q-.65.2-1.287.438t-1.238.537q-.275-.075-.525-.113T12 6q-1.65 0-2.825 1.175T8 10v7h11q.425 0 .713.288T20 18q0 .425-.288.713T19 19H5q-.425 0-.713-.288T4 18q0-.425.288-.713T5 17h1Zm6.25-5.5Z"/></svg>