<svg xmlns="http://www.w3.org/2000/svg" width="24" height="24" viewBox="0 0 24 24"><path fill="currentColor" d="M18 18h-2q-.425 0-.713-.288T15 17q0-.425.288-.713T16 16h2v-2q0-.425.288-.713T19 13q.425 0 .713.288T20 14v2h2q.425 0 .713.288T23 17q0 .425-.288.713T22 18h-2v2q0 .425-.288.713T19 21q-.425 0-.713-.288T18 20v-2Zm-6.7 2.3L.725 9.725q-.3-.3-.3-.725t.325-.7q2.275-2.125 5.225-3.212T12 4q3.05 0 6.025 1.088T23.25 8.3q.3.275.313.7t-.288.725l-1.7 1.7q-.525-.25-1.1-.388t-1.2-.162L21.1 9.05q-1.975-1.5-4.3-2.275T12 6q-2.475 0-4.8.775T2.9 9.05l9.1 9.1l.875-.875q.025.625.163 1.2t.387 1.1l-.725.725q-.3.3-.7.3t-.7-.3Zm.7-8.225Z"/></svg>