<svg xmlns="http://www.w3.org/2000/svg" width="24" height="24" viewBox="0 0 24 24"><path fill="currentColor" d="M4 19v-.375V19V8v11Zm0 2q-.825 0-1.413-.588T2 19V8q0-.825.588-1.413T4 6h4V4q0-.825.588-1.413T10 2h4q.825 0 1.413.588T16 4v2h4q.825 0 1.413.588T22 8v4.275q-.45-.325-.95-.563T20 11.3V8H4v11h7.075q.075.525.225 1.025t.375.975H4Zm6-15h4V4h-4v2Zm8 17q-2.075 0-3.538-1.463T13 18q0-2.075 1.463-3.538T18 13q2.075 0 3.538 1.463T23 18q0 2.075-1.463 3.538T18 23Zm0-2q.2 0 .35-.15t.15-.35q0-.2-.15-.35T18 20q-.2 0-.35.15t-.15.35q0 .2.15.35T18 21Zm0-2q.2 0 .35-.15t.15-.35v-3q0-.2-.15-.35T18 15q-.2 0-.35.15t-.15.35v3q0 .2.15.35T18 19Z"/></svg>