<svg xmlns="http://www.w3.org/2000/svg" width="24" height="24" viewBox="0 0 24 24"><path fill="currentColor" d="M9 18h6q.425 0 .713-.288T16 17q0-.425-.288-.713T15 16H9q-.425 0-.713.288T8 17q0 .425.288.713T9 18Zm-2 4q-.825 0-1.413-.588T5 20v-8q0-2.125 1.113-3.8T9 5.7V5q0-1.25.875-2.125T12 2q1.25 0 2.125.875T15 5v.7q1.775.825 2.888 2.5T19 12v8q0 .825-.588 1.413T17 22H7Zm0-2h10v-8q0-2.075-1.463-3.538T12 7Q9.925 7 8.462 8.463T7 12v8Zm4-14.9q.275-.05.5-.075T12 5q.275 0 .5.025t.5.075V5q0-.425-.288-.713T12 4q-.425 0-.713.288T11 5v.1ZM7 20h10H7Zm5-6.9l1.225.925q.15.125.3.013t.1-.288l-.475-1.525l1.225-.875q.15-.125.1-.288t-.25-.162h-1.5l-.475-1.625Q12.2 9.1 12 9.1t-.25.175l-.475 1.625h-1.5q-.2 0-.25.163t.1.287l1.225.875l-.475 1.525q-.05.175.1.288t.3-.013L12 13.1Z"/></svg>