<svg xmlns="http://www.w3.org/2000/svg" viewBox="0 0 24 24" width="24" height="24"><path fill="currentColor" d="M8.5 11.5H10v-6H7V7h1.5zm3.5 0h3.5q.425 0 .713-.288t.287-.712V9q0-.425-.288-.712T15.5 8h-2V7h3V5.5H12V9h3v1h-3zm-6 7h1.5V14h1v3H10v-3h1v4.5h1.5v-5q0-.425-.288-.712T11.5 12.5H7q-.425 0-.712.288T6 13.5zm7.5 0H15V17h2q.425 0 .713-.288T18 16v-2.5q0-.425-.288-.712T17 12.5h-3.5zm1.5-3V14h1.5v1.5zM5 21q-.825 0-1.412-.587T3 19V5q0-.825.588-1.412T5 3h14q.825 0 1.413.588T21 5v14q0 .825-.587 1.413T19 21zm0-2h14V5H5zM5 5v14z"/></svg>