<svg xmlns="http://www.w3.org/2000/svg" viewBox="0 0 24 24" width="24" height="24"><path fill="currentColor" d="M12 2q2.075 0 3.888.788t3.174 2.15t2.15 3.175T22 12q0 2.05-.788 3.875t-2.15 3.188t-3.175 2.15T12 22q-2.05 0-3.875-.788t-3.187-2.15t-2.15-3.187T2 12q0-2.075.788-3.887t2.15-3.175t3.187-2.15T12 2m0 18q3.325 0 5.663-2.337T20 12t-2.337-5.663T12 4T6.337 6.338T4 12t2.338 5.663T12 20M10 7q0 .825.588 1.413T12 9t1.413-.587T14 7t-.587-1.412T12 5t-1.412.588T10 7m2 3q-1.325 0-2.912.65T7.5 12.5v4q0 1.1 1.575 1.85t3.425.6v-2q-.875.05-1.65-.125T9.5 16.3q.125-.575.875-.937T12 15t1.688.4t.812 1.05v2.05q1.1-.4 1.55-.962t.45-1.038v-4q0-1.2-1.588-1.85T12 10m0 4.5q-.525 0-.888-.363t-.362-.887t.363-.888T12 12t.888.363t.362.887t-.363.888T12 14.5m0-2.5"/></svg>