<svg xmlns="http://www.w3.org/2000/svg" viewBox="0 0 24 24" width="24" height="24"><path fill="currentColor" d="M12 20q1.275 0 2.45-.387t2.2-1.113q-1.025-.725-2.2-1.112T12 17t-2.45.388t-2.2 1.112q1.025.725 2.2 1.113T12 20m2.65-8.2l-1.425-1.425q.125-.2.2-.425t.075-.45q0-.625-.438-1.063T12 8q-.225 0-.45.075t-.425.2L9.7 6.85q.475-.425 1.063-.638T12 6q1.45 0 2.475 1.025T15.5 9.5q0 .65-.213 1.238T14.65 11.8m5.7 5.7l-1.45-1.45q.55-.925.825-1.95T20 12q0-3.35-2.325-5.675T12 4q-1.075 0-2.1.275T7.95 5.1L6.5 3.65q1.225-.8 2.625-1.225T12 2q2.075 0 3.9.788t3.175 2.137T21.213 8.1T22 12q0 1.475-.425 2.875T20.35 17.5M12 22q-2.075 0-3.9-.788t-3.175-2.137T2.788 15.9T2 12q0-1.475.413-2.875t1.212-2.65L.675 3.5L2.1 2.075l19.8 19.8l-1.425 1.425L5.1 7.95q-.55.925-.825 1.95T4 12q0 1.425.475 2.725T5.85 17.1q1.35-1.025 2.912-1.563T12 15q.95 0 1.9.2t1.85.55l3.325 3.325q-1.425 1.425-3.25 2.175T12 22"/></svg>