<svg xmlns="http://www.w3.org/2000/svg" viewBox="0 0 24 24" width="24" height="24"><path fill="currentColor" d="m19.95 17.25l-1.5-1.5q.275-.675.413-1.312T19 13.1q0-2.9-2.05-5T12 6q-.7 0-1.35.113t-1.3.387L7.85 5q.95-.5 1.988-.75T12 4q1.85 0 3.488.7t2.862 1.938t1.938 2.887T21 13.1q0 1.125-.275 2.163t-.775 1.987M21.25 8L17 3.75l1.4-1.4l4.25 4.25zm-.75 15.4l-3.15-3.15q-1.125.825-2.488 1.288T12 22q-1.85 0-3.488-.7T5.65 19.4t-1.937-2.825T3 13.1q0-1.55.463-2.912T4.8 7.7l-.85-.85l-1.2 1.2l-1.4-1.4l1.2-1.2L.7 3.6l1.4-1.4L21.9 22zM12 20.025q1.05 0 2.05-.325t1.85-.9L6.2 9.15q-.575.875-.887 1.888T5 13.1q0 2.9 2.05 4.913T12 20.025m1.9-8.9"/></svg>