<svg xmlns="http://www.w3.org/2000/svg" viewBox="0 0 24 24" width="24" height="24"><path fill="currentColor" d="M11 14.5h2v-2.275l1.95 1.15l1-1.75L14 10.5l1.95-1.125l-1-1.75L13 8.775V6.5h-2v2.275l-1.95-1.15l-1 1.75L10 10.5l-1.95 1.125l1 1.75l1.95-1.15Zm1 4.85q3.05-2.8 4.525-5.088Q18 11.975 18 10.2q0-2.725-1.738-4.463Q14.525 4 12 4Q9.475 4 7.737 5.737Q6 7.475 6 10.2q0 1.775 1.475 4.062Q8.95 16.55 12 19.35ZM12 22q-4.025-3.425-6.012-6.363Q4 12.7 4 10.2q0-3.75 2.413-5.975Q8.825 2 12 2t5.587 2.225Q20 6.45 20 10.2q0 2.5-1.987 5.437Q16.025 18.575 12 22Zm0-11.8Z"/></svg>