<svg xmlns="http://www.w3.org/2000/svg" viewBox="0 0 24 24" width="24" height="24"><path fill="currentColor" d="M6.4 20q-1 0-1.7-.7T4 17.6v-1.175q0-.95.688-1.763q.687-.812 1.812-1.4q1.125-.587 2.538-.925Q10.45 12 11.9 12q1.45 0 2.9.337q1.45.338 2.6.938q1.15.6 1.875 1.413Q20 15.5 20 16.45v1.15q0 1-.7 1.7t-1.7.7Zm0-2h11.2q.15 0 .275-.125Q18 17.75 18 17.6v-1.175q0-.625-1.788-1.525q-1.787-.9-4.312-.9q-2.575 0-4.237.9Q6 15.8 6 16.45v1.15q0 .15.125.275Q6.25 18 6.4 18Zm5.5-7q-1.45 0-2.475-1.025Q8.4 8.95 8.4 7.5q0-1.45 1.025-2.475Q10.45 4 11.9 4q1.475 0 2.487 1.025Q15.4 6.05 15.4 7.5q0 1.45-1.025 2.475Q13.35 11 11.9 11Zm0-2q.625 0 1.063-.438q.437-.437.437-1.062t-.437-1.062Q12.525 6 11.9 6t-1.062.438Q10.4 6.875 10.4 7.5t.438 1.062Q11.275 9 11.9 9Zm0-1.5ZM12 14Z"/></svg>