<svg xmlns="http://www.w3.org/2000/svg" viewBox="0 0 24 24" width="24" height="24"><path fill="currentColor" d="M11.95 22q-1.25 0-2.125-.875T8.95 19v-1.8l-1.575.9q-1.05.6-2.25.313q-1.2-.288-1.85-1.413q-.625-1.1-.3-2.288q.325-1.187 1.4-1.812L5.95 12l-1.575-.9q-1.1-.625-1.412-1.825q-.313-1.2.312-2.275q.675-1.175 1.9-1.425q1.225-.25 2.2.325l1.575.9V5q0-1.25.875-2.125T11.95 2q1.25 0 2.125.875T14.95 5v1.8l1.55-.9q1.05-.6 2.25-.312q1.2.287 1.85 1.412q.625 1.1.3 2.287q-.325 1.188-1.4 1.813l-1.55.9l1.55.9q1.075.625 1.4 1.825q.325 1.2-.3 2.275q-.65 1.125-1.85 1.413q-1.2.287-2.25-.313l-1.55-.9V19q0 1.25-.875 2.125T11.95 22Zm4-11.15l2.55-1.475q.35-.2.462-.613q.113-.412-.087-.762q-.225-.4-.625-.488q-.4-.087-.75.113L13.95 9.7Zm-3-1.75V5q0-.425-.287-.713Q12.375 4 11.95 4t-.712.287q-.288.288-.288.713v2.95Zm-1 10.9q.425 0 .713-.288q.287-.287.287-.712v-4.1l-2 1.15V19q0 .425.288.712q.287.288.712.288Zm-5.575-3.625L13.95 12L6.375 7.625q-.35-.2-.75-.1T5 8q-.2.35-.1.75t.475.625L9.95 12l-4.575 2.625q-.35.2-.475.6q-.125.4.1.775q.225.4.625.487q.4.088.75-.112Zm11.125 0q.35.2.75.1t.625-.475q.2-.35.087-.75q-.112-.4-.462-.6l-2.55-1.5l-2 1.15Z"/></svg>