<svg xmlns="http://www.w3.org/2000/svg" viewBox="0 0 24 24" width="24" height="24"><path fill="currentColor" d="M8.75 22q-1.05 0-2.062-.625q-1.013-.625-1.363-1.575q-.35-.925-.737-1.362Q4.2 18 3.45 18q-.4 0-.75.163q-.35.162-.6.462L.55 17.35q.525-.65 1.287-1Q2.6 16 3.45 16q1.15 0 2.1.625q.95.625 1.3 1.7q.275.8.725 1.237q.45.438 1.175.438q.275 0 .663-.225q.387-.225.737-.75l-6.725-8.45q-.25-.3-.35-.65q-.1-.35-.075-.7q.025-.35.163-.688q.137-.337.412-.612l6.5-6.5q.3-.3.675-.45q.375-.15.75-.15t.738.15q.362.15.662.45l6.525 6.525q.275.275.425.625q.15.35.175.7q.025.35-.1.7t-.375.65l-.85 1.05l2.025 2.025q.125.125.2.3q.075.175.1.35q.025.175-.025.35t-.175.325L17 20.1q-.775 1.025-1.512 1.462Q14.75 22 13.75 22q-.2 0-.375-.012q-.175-.013-.375-.063v-2q.2.05.413.063q.212.012.337.012q.475 0 .875-.262q.4-.263.65-.638l-1.25-1.625l-2.55 3.075q-.65.75-1.325 1.1q-.675.35-1.4.35Zm2.7-4.55l1.325-1.625l-.6-.825q-.225-.3-.2-.663q.025-.362.3-.637l3.525-3.5q.3-.3.7-.3q.4 0 .7.275l.075.075l.725-.925l-6.5-6.5L5 9.35Zm5.05-.025l2.2-2.925l-2.2-2.2l-2.2 2.2Zm0-2.55ZM12.45 10.9Z"/></svg>