<svg xmlns="http://www.w3.org/2000/svg" viewBox="0 0 24 24" width="24" height="24"><path fill="currentColor" d="M7 23q-.825 0-1.412-.587T5 21V3q0-.825.588-1.412T7 1h10q.825 0 1.413.588T19 3v4h-2V6H7v12h10v-1h2v4q0 .825-.587 1.413T17 23zm0-2h10v-1H7zm11-5q-1.65 0-2.825-1.175T14 12t1.175-2.825T18 8t2.825 1.175T22 12t-1.175 2.825T18 16m0-1.5q.3 0 .588-.075t.562-.225l-3.35-3.35q-.15.275-.225.563T15.5 12q0 1.05.725 1.775T18 14.5m2.2-1.35q.15-.275.225-.562T20.5 12q0-1.05-.725-1.775T18 9.5q-.3 0-.587.075t-.563.225zM7 4h10V3H7zm0 0V3zm0 17v-1z"/></svg>