<svg xmlns="http://www.w3.org/2000/svg" viewBox="0 0 24 24" width="24" height="24"><path fill="currentColor" d="M12 4q3.35 0 5.675 2.325T20 12t-2.325 5.675T12 20t-5.675-2.325T4 12t2.325-5.675T12 4m0 14q2.5 0 4.25-1.75T18 12t-1.75-4.25T12 6T7.75 7.75T6 12t1.75 4.25T12 18m0-2.5q1.2 0 2.15-.687T15.5 13h-7q.4 1.125 1.35 1.813T12 15.5M8.5 10q0 .425.288.713T9.5 11t.713-.288T10.5 10t-.288-.712T9.5 9t-.712.288T8.5 10m5 0q0 .425.288.713T14.5 11t.713-.288T15.5 10t-.288-.712T14.5 9t-.712.288T13.5 10M1 6V3q0-.825.588-1.412T3 1h3v2H3v3zm5 17H3q-.825 0-1.412-.587T1 21v-3h2v3h3zm12 0v-2h3v-3h2v3q0 .825-.587 1.413T21 23zm3-17V3h-3V1h3q.825 0 1.413.588T23 3v3zm-9 6"/></svg>