<svg xmlns="http://www.w3.org/2000/svg" viewBox="0 0 24 24" width="24" height="24"><path fill="currentColor" d="M18.5 10H22v2h-2v5.5q0 1.05-.725 1.775T17.5 20t-1.775-.725T15 17.5t.725-1.775T17.5 15q.2 0 .45.038t.55.162zM3 20v-2.8q0-.875.438-1.575T4.6 14.55q1.55-.775 3.15-1.162T11 13q1.05 0 2.088.163t2.087.487q-.5.3-.9.725t-.7.925q-.65-.15-1.287-.225T11 15q-1.425 0-2.8.35t-2.7 1q-.225.125-.362.35T5 17.2v.8h8.025q.05.5.238 1t.512 1zm8-8q-1.65 0-2.825-1.175T7 8t1.175-2.825T11 4t2.825 1.175T15 8t-1.175 2.825T11 12m0-2q.825 0 1.413-.587T13 8t-.587-1.412T11 6t-1.412.588T9 8t.588 1.413T11 10m0 8"/></svg>