<svg xmlns="http://www.w3.org/2000/svg" viewBox="0 0 24 24" width="24" height="24"><path fill="currentColor" d="m19 9l-1.25-2.75L15 5l2.75-1.25L19 1l1.25 2.75L23 5l-2.75 1.25L19 9Zm0 14l-1.25-2.75L15 19l2.75-1.25L19 15l1.25 2.75L23 19l-2.75 1.25L19 23ZM4.8 16h1.9l.7-2h3.2l.7 2h1.9L10 7H8l-3.2 9Zm3.05-3.35L9 9l1.15 3.65h-2.3ZM9 18q2.5 0 4.25-1.75T15 12q0-2.5-1.75-4.25T9 6Q6.5 6 4.75 7.75T3 12q0 2.5 1.75 4.25T9 18Zm0 2q-3.35 0-5.675-2.325T1 12q0-3.35 2.325-5.675T9 4q3.35 0 5.675 2.325T17 12q0 3.35-2.325 5.675T9 20Zm0-8Z"/></svg>