<svg xmlns="http://www.w3.org/2000/svg" viewBox="0 0 24 24" width="24" height="24"><path fill="currentColor" d="m12 8l-1.55 3.45L7 13l3.45 1.55L12 18l1.55-3.45L17 13l-3.45-1.55L12 8ZM9 3V1h6v2H9Zm3 19q-1.85 0-3.488-.713T5.65 19.35q-1.225-1.225-1.938-2.863T3 13q0-1.85.713-3.488T5.65 6.65q1.225-1.225 2.863-1.938T12 4q1.55 0 2.975.5t2.675 1.45l1.4-1.4l1.4 1.4l-1.4 1.4Q20 8.6 20.5 10.025T21 13q0 1.85-.713 3.488T18.35 19.35q-1.225 1.225-2.863 1.938T12 22Zm0-2q2.9 0 4.95-2.05T19 13q0-2.9-2.05-4.95T12 6Q9.1 6 7.05 8.05T5 13q0 2.9 2.05 4.95T12 20Zm0-7Z"/></svg>