<svg xmlns="http://www.w3.org/2000/svg" viewBox="0 0 24 24" width="24" height="24"><path fill="currentColor" d="M3 20q-.825 0-1.412-.587T1 18V6q0-.825.588-1.412T3 4h18q.825 0 1.413.588T23 6v12q0 .825-.587 1.413T21 20zm0-2h18V6H3zm0 0V6zm1.5-3H6v-1.5h1.5V15H9v-5q0-.425-.288-.712T8 9H5.5q-.425 0-.712.288T4.5 10zM6 12v-1.5h1.5V12zm5.25 3h1.5l1.75-6H13l-1 3.425L11 9H9.5zM16 15h2.5q.425 0 .713-.288T19.5 14v-1H18v.5h-1.5v-3H18v.5h1.5v-1q0-.425-.288-.712T18.5 9H16q-.425 0-.712.288T15 10v4q0 .425.288.713T16 15"/></svg>