<svg xmlns="http://www.w3.org/2000/svg" viewBox="0 0 24 24" width="24" height="24"><path fill="currentColor" d="M7 9q-.825 0-1.412-.587T5 7t.588-1.412T7 5t1.413.588T9 7t-.587 1.413T7 9M5 22q-.425 0-.712-.288T4 21q-.825 0-1.412-.587T2 19v-6h3v-.75q0-.95.65-1.6t1.6-.65q.5 0 .925.2t.775.55l1.4 1.55q.2.2.388.375t.412.325H18V4.85q0-.35-.25-.6t-.6-.25q-.15 0-.288.063t-.262.187L15.35 5.5q.125.425.05.838t-.3.762l-2.75-2.8q.35-.225.75-.288t.8.088l1.25-1.25q.4-.4.913-.625T17.15 2q1.2 0 2.025.825T20 4.85V13h2v6q0 .825-.587 1.413T20 21q0 .425-.288.713T19 22zm-1-3h16v-4H4zm0 0h16z"/></svg>