<svg xmlns="http://www.w3.org/2000/svg" viewBox="0 0 24 24" width="24" height="24"><path fill="currentColor" d="M11 15.75q1.675-.8 2.425-2.512t.825-3.588q-.875-.2-1.662-.587T11 8.25q-.8.425-1.588.813T7.75 9.65q.075 1.875.825 3.588T11 15.75M11 14v-4q.4.25.813.45t.837.35q-.15.925-.537 1.762T11 14m-7 2.75h14v-9.5H4zm0 2q-.825 0-1.412-.587T2 16.75v-9.5q0-.825.588-1.412T4 5.25h14q.825 0 1.413.588T20 7.25V9.5h.5q.625 0 1.063.438T22 11v2q0 .65-.437 1.075T20.5 14.5H20v2.25q0 .825-.587 1.413T18 18.75zm0-2v-9.5z"/></svg>