<svg xmlns="http://www.w3.org/2000/svg" viewBox="0 0 24 24" width="24" height="24"><path fill="currentColor" d="m11.75 17.65l1.425-1.4l-.95-.95q-.125-.125-.175-.262T12 14.75q0-.175.05-.312t.175-.263l.95-.95q.4-.4.613-.9t.212-1.05q0-.575-.212-1.087t-.613-.913l-.95-.95l-1.4 1.425l.925.925q.125.125.188.263t.062.312q0 .15-.062.288t-.188.262l-.925.95q-.4.4-.612.9T10 14.725t.212 1.088t.613.912zM8 22q-.425 0-.712-.288T7 21V5q0-.425.288-.712T8 4h2V2h4v2h2q.425 0 .713.288T17 5v16q0 .425-.288.713T16 22zm1-2h6V6H9zm0 0h6z"/></svg>