<svg xmlns="http://www.w3.org/2000/svg" viewBox="0 0 24 24" width="24" height="24"><path fill="currentColor" d="M2 9V6q0-.825.588-1.412T4 4h16q.825 0 1.413.588T22 6v5.5h-2V6H4v3zm5 8q-.275 0-.525-.137T6.1 16.45L4.375 13H2v-2h3q.275 0 .525.138t.375.412l1.1 2.2l3.1-6.2q.125-.25.375-.375T11 7.05t.525.125t.375.375l1.675 3.35q-.45.275-.862.575t-.763.675l-.95-1.9l-3.1 6.2q-.125.275-.375.413T7 17m3.675 3H4q-.825 0-1.412-.587T2 18v-3h2v3h6.075q.075.525.225 1.025t.375.975M17 22q-2.075 0-3.537-1.463T12 17t1.463-3.537T17 12t3.538 1.463T22 17t-1.463 3.538T17 22m.2-4.5l2.275-2.275l-.7-.7L16.5 16.8z"/></svg>