<svg xmlns="http://www.w3.org/2000/svg" viewBox="0 0 24 24" width="24" height="24"><path fill="currentColor" d="M11 17.05V7.2q-1.025-.6-2.175-.9T6.5 6q-.9 0-1.788.175T3 6.7v9.9q.875-.3 1.738-.45T6.5 16q1.175 0 2.288.263T11 17.05M12 20q-1.2-.95-2.6-1.475T6.5 18q-1.05 0-2.062.275T2.5 19.05q-.525.275-1.012-.025T1 18.15V6.1q0-.275.138-.525T1.55 5.2q1.15-.6 2.4-.9T6.5 4q1.85 0 3.15.425t2.8 1.3q.275.15.413.35T13 6.6v10.45q1.1-.525 2.213-.788T17.5 16q.9 0 1.763.15T21 16.6V4.575q.375.125.738.275t.712.35q.275.125.413.375T23 6.1v12.05q0 .575-.488.875t-1.012.025q-.925-.5-1.937-.775T17.5 18q-1.5 0-2.9.525T12 20m3.5-6V3l3-1v11zM7 11.525"/></svg>