<svg xmlns="http://www.w3.org/2000/svg" viewBox="0 0 24 24" width="24" height="24"><path fill="currentColor" d="M7.5 22q-1.475 0-2.488-1.012T4 18.5v-13q0-1.45 1.013-2.475T7.5 2H20v15q-.65 0-1.075.438T18.5 18.5q0 .65.425 1.075T20 20v2zm0-2h9.325q-.15-.35-.237-.712T16.5 18.5q0-.4.075-.775t.25-.725H7.5q-.65 0-1.075.438T6 18.5q0 .65.425 1.075T7.5 20M6 15.325q.35-.175.713-.25T7.5 15H18V4H7.5q-.65 0-1.075.438T6 5.5zM8.725 13H9.95l.625-1.775H13.4L14.025 13h1.225L12.6 6h-1.25zm2.2-2.8l1.025-2.9h.075l1.025 2.9zM6 15.325V4z"/></svg>