<svg xmlns="http://www.w3.org/2000/svg" viewBox="0 0 24 24" width="24" height="24"><path fill="currentColor" d="M18.95 22q-3.125 0-6.175-1.362t-5.55-3.863t-3.862-5.55T2 5.05q0-.45.3-.75t.75-.3H7.1q.35 0 .625.238t.325.562l.65 3.5q.05.4-.025.675T8.4 9.45L5.975 11.9q.5.925 1.187 1.788t1.513 1.662q.775.775 1.625 1.438T12.1 18l2.35-2.35q.225-.225.588-.337t.712-.063l3.45.7q.35.1.575.363T20 16.9v4.05q0 .45-.3.75t-.75.3M5.025 10l1.65-1.65L6.25 6H4.025q.125 1.025.35 2.025T5.025 10m8.95 8.95q.975.425 1.988.675T18 19.95v-2.2l-2.35-.475zM17 12q-2.075 0-3.537-1.462T12 7t1.463-3.537T17 2t3.538 1.463T22 7t-1.463 3.538T17 12m-.5-2h1V6h-1zm.5-5q.2 0 .35-.15t.15-.35t-.15-.35T17 4t-.35.15t-.15.35t.15.35T17 5"/></svg>