<svg xmlns="http://www.w3.org/2000/svg" viewBox="0 0 24 24" width="24" height="24"><path fill="currentColor" d="M11 22v-4.175Q9.95 18.5 8.838 19t-2.338.5q-1.575 0-2.963-.712T1 17q.925-.85 1.988-1.487t2.287-.888q-1.7-1.375-2.5-3.4T1.975 7q1.8.025 3.475.575T8.5 9.2V9q0-2.275 1.013-4.275T12 1q1.45 1.725 2.475 3.725T15.5 9q0 .05-.012.1t-.013.1q1.4-1.075 3.075-1.612T22.025 7q0 2.2-.812 4.225t-2.513 3.4q1.225.25 2.288.888T22.975 17q-1.15 1.075-2.525 1.788t-2.95.712q-1.25 0-2.363-.5T13 17.825V22zm-1.4-7.4q-.275-.95-.712-1.812T7.75 11.25q-.7-.7-1.562-1.137T4.375 9.4q.275.95.713 1.813t1.137 1.562q.675.7 1.55 1.138T9.6 14.6m-3.1 2.9q.525 0 1.025-.137T8.5 17q-.475-.2-.975-.35T6.5 16.5t-1.025.15t-1 .35q.475.225.988.363T6.5 17.5m5.5-3.8q.65-1.1 1.075-2.262T13.5 9t-.425-2.437T12 4.325q-.65 1.075-1.075 2.237T10.5 9t.425 2.45T12 13.7m2.4.9q.95-.25 1.813-.687t1.537-1.138q.7-.7 1.138-1.562T19.6 9.4q-.95.275-1.812.713t-1.563 1.137q-.7.675-1.137 1.538T14.4 14.6m3.1 2.9q.525 0 1.025-.137T19.5 17q-.475-.2-.975-.35T17.5 16.5t-1.025.15t-1 .35q.475.225.988.363t1.037.137m-2.025-.5"/></svg>