<svg xmlns="http://www.w3.org/2000/svg" viewBox="0 0 24 24" width="24" height="24"><path fill="currentColor" d="M6.5 16q.625 0 1.063-.437T8 14.5t-.437-1.062T6.5 13t-1.062.438T5 14.5t.438 1.063T6.5 16m9 0q.5 0 .9-.3t.525-.775q-.5-.1-.95-.338t-.825-.612l-.625-.625q-.25.2-.387.5T14 14.5q0 .625.438 1.063T15.5 16M4 17v-5zm1 2v1q0 .425-.288.713T4 21H3q-.425 0-.712-.288T2 20v-8l2.1-6q.15-.45.538-.725T5.5 5H9v1.375q0 .15.013.313T9.05 7h-3.2L4.8 10h6.375l2 2H4v5h14v-2.025q.55-.05 1.063-.275t.937-.625V20q0 .425-.288.713T19 21h-1q-.425 0-.712-.288T17 20v-1zM15 6q.425 0 .713-.288T16 5t-.288-.712T15 4t-.712.288T14 5t.288.713T15 6m1.55 6.55l-5.1-5.1q-.2-.2-.325-.488T11 6.376V2.5q0-.625.438-1.062T12.5 1h3.875q.3 0 .588.125t.487.325l5.1 5.1q.425.425.425 1.063t-.425 1.062l-3.875 3.875q-.425.425-1.062.425t-1.063-.425m1.075-1.75L20.8 7.625L16.175 3H13v3.175zM16.9 6.9"/></svg>