<svg xmlns="http://www.w3.org/2000/svg" viewBox="0 0 24 24" width="24" height="24"><path fill="currentColor" d="m12 21l-3.2-2.85q-1.8-1.625-3.088-2.9t-2.124-2.4t-1.225-2.175t-.388-2.2q0-2.35 1.575-3.912T7.475 3q1.3 0 2.475.55T12 5.1q.875-1 2.05-1.55T16.525 3q2.35 0 3.925 1.563t1.575 3.912q0 1.15-.387 2.2t-1.225 2.175t-2.125 2.4t-3.088 2.9zM4.275 10h15.45q.15-.4.225-.775t.075-.75q0-1.5-1.037-2.488T16.525 5q-1.175 0-2.162.688T12.6 7.5h-1.2q-.775-1.125-1.762-1.812T7.475 5q-1.425 0-2.462.988T3.975 8.474q0 .375.075.75t.225.775m2.55 3.5h10.35q.4-.425.725-.788t.6-.712h-13q.275.35.6.713t.725.787M12 18.3q.9-.8 1.688-1.487t1.437-1.313h-6.25q.65.625 1.438 1.313T12 18.3m0-8.3"/></svg>