<svg xmlns="http://www.w3.org/2000/svg" viewBox="0 0 24 24" width="24" height="24"><path fill="currentColor" d="M18.75 8h1V4h-1zm-2.5 0h1V4h-1zM2 17q1.25 0 2.125.875T5 20H2zm0-4q2.925 0 4.963 2.038T9 20H7q0-2.075-1.463-3.537T2 15zm0-4q2.275 0 4.275.863t3.5 2.362t2.363 3.5T13 20h-2q0-1.875-.712-3.512t-1.926-2.85t-2.85-1.925T2 11zm18 11h-5q0-.5-.038-1t-.112-1H20v-5.3q.55-.175 1.05-.412t.95-.563V18q0 .825-.587 1.413T20 20M2 7V6q0-.825.588-1.412T4 4h7.3q-.15.475-.225.975T11 6H4v1.15q-.5-.075-1-.112T2 7m16 4q-2.075 0-3.537-1.463T13 6t1.463-3.537T18 1t3.538 1.463T23 6t-1.463 3.538T18 11"/></svg>