<svg xmlns="http://www.w3.org/2000/svg" viewBox="0 0 24 24" width="24" height="24"><path fill="currentColor" d="m7.8 5.225l-1-3l1.4-.45l1 2.975zM11.25 4V1h1.5v3zm4.95 1.225l-1.4-.475l1-2.975l1.4.475zM2.15 23l-.3-1.975l5.275-.8q.275-.05.488-.238t.312-.462l.85-2.65q.125-.35 0-.675t-.45-.5L7.5 18.3l-1.9-.6l2.2-6.95q.05-.15.05-.325T7.8 10.1l-3.35 6.3q-.4.725-1.112 1.163T1.8 18H1v-2h.8q.275 0 .513-.137t.362-.388L7.1 7.125l1.25.7q.925.525 1.313 1.513t.062 2.012L8.95 13.8q1.1.425 1.588 1.5t.137 2.2l-.85 2.65q-.275.8-.912 1.363t-1.488.687zm19.7 0l-5.275-.8q-.85-.125-1.487-.687t-.913-1.363l-.85-2.65q-.35-1.125.138-2.2t1.587-1.5l-.775-2.45q-.325-1.025.063-2.012t1.312-1.513l1.25-.7l4.425 8.35q.125.25.363.388T22.2 16h.8v2h-.8q-.825 0-1.537-.437T19.55 16.4l-3.35-6.3q-.05.15-.05.325t.05.325l2.2 6.95l-1.9.6l-.825-2.6q-.325.175-.45.5t0 .675l.85 2.65q.1.275.313.463t.487.237l5.275.8zm-5.35-4.7l-1.45-4.5zm-7.55-4.5L7.5 18.3z"/></svg>