<svg xmlns="http://www.w3.org/2000/svg" viewBox="0 0 24 24" width="24" height="24"><path fill="currentColor" d="M4 22q0-2.35 1.25-4.325t3.4-2.95q-.8-.725-1.225-1.687T7 11q0-1.35.663-2.5T9.5 6.675q-.25-.375-.375-.8T9 5q0-1.25.875-2.125T12 2t2.125.875T15 5q0 .45-.125.875t-.375.8q1.175.675 1.838 1.825T17 11q0 1.075-.437 2.038t-1.238 1.687q2.15.975 3.413 2.95T20 22zm8-6q-1.925 0-3.475 1.1t-2.2 2.9H17.65q-.65-1.8-2.187-2.9T12 16m0-2q1.25 0 2.125-.875T15 11t-.875-2.125T12 8t-2.125.875T9 11t.875 2.125T12 14m0-8q.425 0 .713-.288T13 5t-.288-.712T12 4t-.712.288T11 5t.288.713T12 6m0 5"/></svg>