<svg xmlns="http://www.w3.org/2000/svg" viewBox="0 0 24 24" width="24" height="24"><path fill="currentColor" d="M5 20h14v-2H5zm3.3-4h7.4l-.575-4h-6.25zM3 22v-4q0-.825.588-1.412T5 16h1.3l.55-4H4v-2h16v2h-2.85l.55 4H19q.825 0 1.413.588T21 18v4zm3.775-12L5 2q.825.625 1.7 1.175t1.925.55q1 0 1.838-.513T12 2q.7.7 1.538 1.213t1.837.512q1.05 0 1.925-.55T19 2l-1.775 8h-2.05l.975-4.325l-.187.025q-.188.025-.588.025q-.9 0-1.762-.275T12 4.675q-.725.5-1.562.775t-1.713.275q-.45 0-.663-.025l-.212-.025L8.825 10zM12 20"/></svg>