<svg xmlns="http://www.w3.org/2000/svg" viewBox="0 0 24 24" width="24" height="24"><path fill="currentColor" d="M14.5 11.75q-.525 0-.888-.363t-.362-.887t.363-.888t.887-.362t.888.363t.362.887t-.363.888t-.887.362m-5 0q-.525 0-.888-.363T8.25 10.5t.363-.888t.887-.362t.888.363t.362.887t-.363.888t-.887.362M12 17q-1.5 0-2.713-.825T7.5 14h9q-.575 1.35-1.787 2.175T12 17m0 4q-1.875 0-3.512-.712t-2.85-1.925t-1.925-2.85T3 12t.713-3.512t1.924-2.85t2.85-1.925T12 3t3.513.713t2.85 1.924t1.925 2.85T21 12t-.712 3.513t-1.925 2.85t-2.85 1.925T12 21m0-2q2.9 0 4.95-2.05T19 12t-2.05-4.95T12 5h-.3q-.15 0-.3.05q-.15.15-.2.325t-.05.375q0 .525.362.888T12.4 7q.225 0 .413-.075t.387-.075q.3 0 .5.225t.2.525q0 .575-.538.738T12.4 8.5q-1.125 0-1.937-.812T9.65 5.75V5.6q0-.075.025-.2Q7.6 6.15 6.3 7.925T5 12q0 2.9 2.05 4.95T12 19m0-7"/></svg>