<svg xmlns="http://www.w3.org/2000/svg" viewBox="0 0 24 24" width="24" height="24"><path fill="currentColor" d="M12 18q-1.5 0-2.713-.825T7.5 15h9q-.575 1.35-1.787 2.175T12 18m-2.5-4.5q-.525 0-.888-.363t-.362-.887t.363-.888T9.5 11t.888.363t.362.887t-.363.888t-.887.362m5 0q-.525 0-.888-.363t-.362-.887t.363-.888T14.5 11t.888.363t.362.887t-.363.888t-.887.362M12 22q-1.875 0-3.512-.712t-2.85-1.925t-1.925-2.85T3 13q0-.8.125-1.55t.4-1.475l2 .35q-.275.625-.4 1.288T5 13q0 2.925 2.038 4.963T12 20t4.963-2.037T19 13q0-.4-.05-.788t-.125-.762q-2.025-.225-3.75-1.2t-2.95-2.525l1.75-1.025q.8.925 1.813 1.575t2.212.975q-.625-.975-1.537-1.713T14.324 6.4l2.1-1.25Q18.5 6.325 19.75 8.388T21 13q0 1.875-.712 3.513t-1.925 2.85t-2.85 1.925T12 22M5 8.625L15.325 4.75q-.8-.65-1.75-.987t-2-.338q-2.375 0-4.237 1.438T5 8.625m-1.6 2.75q-.175-.5-.288-1.025T3 9.275Q3 7 4.275 5.2T7.5 2.4q-.05-.1-.062-.187T7.425 2q0-.425.288-.712T8.425 1q.35 0 .6.2t.35.5q.55-.125 1.088-.2t1.112-.075q1.675 0 3.188.65t2.662 1.875l3.05-1.15l.7 1.875zm6.775-4.7"/></svg>