<svg xmlns="http://www.w3.org/2000/svg" viewBox="0 0 24 24" width="24" height="24"><path fill="currentColor" d="m14.525 13.5l4-4l-1.4-1.425l-1.6 1.575V5.5h-2v4.15l-1.6-1.575l-1.4 1.425l4 4Zm-1.7 5.5h5.65q0 .65-.537 1.025t-1.213.475l-11 1.375q-.825.125-1.475-.4t-.75-1.35L2.15 9.2q-.1-.825.413-1.475t1.337-.75l1.125-.125v2l-.9.1l1.35 10.95l7.35-.9Zm-3.8-2q-.825 0-1.413-.588T7.025 15V4q0-.825.588-1.413T9.024 2h11q.825 0 1.413.588T22.024 4v11q0 .825-.587 1.413T20.025 17h-11Zm0-2h11V4h-11v11Zm-3.55 4.9Zm3.55-4.9V4v11Z"/></svg>