<svg xmlns="http://www.w3.org/2000/svg" viewBox="0 0 24 24" width="24" height="24"><path fill="currentColor" d="M6 21q-1.65 0-2.825-1.175T2 17t1.175-2.825T6 13t2.825 1.175T10 17t-1.175 2.825T6 21m12 0q-1.65 0-2.825-1.175T14 17t1.175-2.825T18 13t2.825 1.175T22 17t-1.175 2.825T18 21M6 19q.825 0 1.413-.587T8 17t-.587-1.412T6 15t-1.412.588T4 17t.588 1.413T6 19m12 0q.825 0 1.413-.587T20 17t-.587-1.412T18 15t-1.412.588T16 17t.588 1.413T18 19m-6-4.1q-.8 0-1.35-.55T10.1 13t.55-1.35T12 11.1t1.35.55t.55 1.35t-.55 1.35t-1.35.55m0-4.9q-1.65 0-2.825-1.175T8 6t1.175-2.825T12 2t2.825 1.175T16 6t-1.175 2.825T12 10m0-2q.825 0 1.413-.587T14 6t-.587-1.412T12 4t-1.412.588T10 6t.588 1.413T12 8m6 9"/></svg>