<svg xmlns="http://www.w3.org/2000/svg" viewBox="0 0 24 24" width="24" height="24"><path fill="currentColor" d="M14 20H6.5q-2.275 0-3.887-1.575T1 14.575q0-1.95 1.175-3.475T5.25 9.15q.625-2.3 2.5-3.725T12 4q2.65 0 4.613 1.713T18.925 10q-.525 0-1.012.113t-.938.312q-.2-1.875-1.625-3.15T12 6Q9.925 6 8.463 7.463T7 11h-.5q-1.45 0-2.475 1.025T3 14.5t1.025 2.475T6.5 18H14zm3 0q-.425 0-.712-.288T16 19v-3q0-.425.288-.712T17 15v-1q0-.825.588-1.412T19 12t1.413.588T21 14v1q.425 0 .713.288T22 16v3q0 .425-.288.713T21 20zm1-5h2v-1q0-.425-.288-.712T19 13t-.712.288T18 14z"/></svg>