<svg xmlns="http://www.w3.org/2000/svg" viewBox="0 0 24 24" width="24" height="24"><path fill="currentColor" d="m14.85 17.35l-1.85-.8q.275-.65.463-1.362t.312-1.438l1.7 1.7q-.125.5-.275.975t-.35.925M11.6 16l-1.85-.75q.35-.75.5-1.562T10.4 12q0-.475-.037-.925t-.138-.875l2.175 2.175q-.05.95-.237 1.85T11.6 16m-3.2-1.35l-1.85-.75q.15-.45.25-.925T6.9 12t-.1-.975t-.25-.925l1.85-.75q.225.6.363 1.263T8.9 12t-.137 1.388T8.4 14.65M15.875 13l-2.025-2.025q-.075-.95-.288-1.825T13 7.45l1.85-.8q.525 1.25.788 2.588T15.9 12v.5q0 .25-.025.5M12 9.125l-.875-.875l.525-.225q.125.275.2.55zM20.475 23.3l-2.95-2.95q-1.2.8-2.587 1.225T12 22q-2.075 0-3.9-.788t-3.175-2.137T2.788 15.9T2 12q0-1.55.425-2.937T3.65 6.475L.675 3.5L2.1 2.075l19.8 19.8zM12 20q1.125 0 2.138-.3t1.912-.825L5.125 7.95q-.525.9-.825 1.912T4 12q0 3.325 2.338 5.663T12 20m8.375-2.5L18.9 16.025q.525-.875.813-1.888T20 12q0-3.325-2.337-5.663T12 4q-1.125 0-2.137.288T7.975 5.1L6.5 3.625q1.2-.775 2.588-1.2T12 2q2.075 0 3.9.788t3.175 2.137T21.213 8.1T22 12q0 1.525-.425 2.913t-1.2 2.587M10.6 13.4"/></svg>