<svg xmlns="http://www.w3.org/2000/svg" viewBox="0 0 24 24" width="24" height="24"><path fill="currentColor" d="M4 18v-8v.325V6zM4 8h16V6H4zm7.575 12H4q-.825 0-1.412-.587T2 18V6q0-.825.588-1.412T4 4h16q.825 0 1.413.588T22 6v5.325q-.875-.625-1.912-.975T17.9 10q-1.425 0-2.687.538T13 12H4v6h6.975q.075.525.225 1.025t.375.975m5.325 2l-.3-1.5q-.3-.125-.562-.262T15.5 19.9l-1.45.45l-1-1.7l1.15-1q-.05-.325-.05-.65t.05-.65l-1.15-1l1-1.7l1.45.45q.275-.2.538-.337t.562-.263l.3-1.5h2l.3 1.5q.3.125.563.263t.537.337l1.45-.45l1 1.7l-1.15 1q.05.325.05.65t-.05.65l1.15 1l-1 1.7l-1.45-.45q-.275.2-.537.338t-.563.262l-.3 1.5zm1-3q.825 0 1.413-.587T19.9 17t-.587-1.412T17.9 15t-1.412.588T15.9 17t.588 1.413T17.9 19"/></svg>