<svg xmlns="http://www.w3.org/2000/svg" viewBox="0 0 24 24" width="24" height="24"><path fill="currentColor" d="M11.8 21q-1.825-.025-3.437-.337t-2.8-.85t-1.875-1.263T3 17q0 .825.688 1.55t1.874 1.263t2.8.85T11.8 21m-1.775-5.1q-.75-.075-1.45-.2t-1.338-.3t-1.2-.388T5 14.526q.475.275 1.038.488t1.2.387t1.337.3t1.45.2M12 9.025q2.15 0 4.437-.65T19 7.025q-.275-.725-2.512-1.375T12 5q-2.275 0-4.462.638T5 7.025q.375.725 2.613 1.363T12 9.025m-1.525 9.9q.25.575.575 1.1t.75.975q-1.825-.025-3.438-.337t-2.8-.85t-1.875-1.263T3 17V7q0-.825.713-1.55T5.65 4.175t2.863-.862T12 3t3.488.313t2.862.862t1.938 1.275T21 7t-.712 1.55t-1.938 1.275t-2.863.863T12 11q-2.125 0-3.925-.375T5 9.525v2.525q1 .925 2.5 1.35t3.025.55q-.2.375-.325.863t-.175 1.087q-1.5-.175-2.788-.5T5 14.525V17q.35.625 1.925 1.175t3.55.75M21.6 23l-2.7-2.7q-.55.325-1.15.513T16.5 21q-1.875 0-3.187-1.312T12 16.5t1.313-3.187T16.5 12t3.188 1.313T21 16.5q0 .65-.187 1.25T20.3 18.9l2.7 2.7zm-5.1-4q1.05 0 1.775-.725T19 16.5t-.725-1.775T16.5 14t-1.775.725T14 16.5t.725 1.775T16.5 19"/></svg>