<svg xmlns="http://www.w3.org/2000/svg" viewBox="0 0 24 24" width="24" height="24"><path fill="currentColor" d="M7 20q-1.25 0-2.125-.875T4 17H1.5l.45-2h2.825q.425-.475 1-.737T7 14t1.225.263t1 .737H13.4l2.1-9H4.55l.1-.425q.15-.7.687-1.137T6.6 4H18l-.925 4H20l3 4l-1 5h-2q0 1.25-.875 2.125T17 20t-2.125-.875T14 17h-4q0 1.25-.875 2.125T7 20m8.925-7h4.825l.1-.525L19 10h-2.375zm-.475-6.825L15.5 6l-2.1 9l.05-.175l.85-3.65zM.5 13.325l.5-2h5.5l-.5 2zm2-3.65l.5-2h6.5l-.5 2zM7 18q.425 0 .713-.288T8 17t-.288-.712T7 16t-.712.288T6 17t.288.713T7 18m10 0q.425 0 .713-.288T18 17t-.288-.712T17 16t-.712.288T16 17t.288.713T17 18"/></svg>