<svg xmlns="http://www.w3.org/2000/svg" viewBox="0 0 24 24" width="24" height="24"><path fill="currentColor" d="M4 5h8V4H4zm0 17q-.825 0-1.412-.587T2 20V4q0-.825.588-1.412T4 2h8q.825 0 1.413.588T14 4v3.85q-.575.3-1.075.688T12 9.4V7H4v10h6.425q.2.55.463 1.05t.612.95H4v1h8v-.4q.375.425.8.775t.925.625q-.275.45-.712.725T12 22zm13.5-4q1.45 0 2.475-1.025T21 14.5t-1.025-2.475T17.5 11t-2.475 1.025T14 14.5t1.025 2.475T17.5 18M15 22v-2.6q-1.35-.675-2.175-1.975T12 14.5t.825-2.925T15 9.6V7h5v2.6q1.35.675 2.175 1.975T23 14.5t-.825 2.925T20 19.4V22zM4 19v1zM4 5V4z"/></svg>