<svg xmlns="http://www.w3.org/2000/svg" viewBox="0 0 24 24" width="24" height="24"><path fill="currentColor" d="m8.85 6l-2-2H19q.825 0 1.413.588T21 6zM18 12.5q.325 0 .538-.225t.212-.525q0-.325-.213-.537T18 11q-.3 0-.525.213t-.225.537q0 .3.225.525T18 12.5m3.9 6.55l-1.9-1.9V10h-4v3.15l-2-2V9.5q0-.625.438-1.062T15.5 8h5q.625 0 1.063.438T22 9.5v9q0 .15-.025.288t-.075.262m-1.4 4.25L17.2 20h-1.7q-.625 0-1.062-.437T14 18.5v-1.7l-9-9V15h7.5v2H5q-.825 0-1.412-.587T3 15V5.8L.7 3.5l1.4-1.4l19.8 19.8zM2 20v-2h10.5v2z"/></svg>