<svg xmlns="http://www.w3.org/2000/svg" viewBox="0 0 24 24" width="24" height="24"><path fill="currentColor" d="M4 20q-.825 0-1.412-.587T2 18V6q0-.825.588-1.412T4 4h16q.825 0 1.413.588T22 6H4v12h2v2zm16-2v-8h-4v8zm-4.5 2q-.625 0-1.062-.437T14 18.5v-9q0-.625.438-1.062T15.5 8h5q.625 0 1.063.438T22 9.5v9q0 .625-.437 1.063T20.5 20zm2.5-7.5q.325 0 .538-.225t.212-.525q0-.325-.213-.537T18 11q-.3 0-.525.213t-.225.537q0 .3.225.525T18 12.5M8.5 20L8 18.25q-.475-.425-.737-1T7 16t.263-1.25t.737-1L8.5 12h3l.5 1.75q.475.425.738 1T13 16t-.262 1.25t-.738 1L11.5 20zm1.5-2.5q.65 0 1.075-.437T11.5 16t-.45-1.062T10 14.5t-1.05.425T8.5 16t.425 1.075T10 17.5m8-3.5"/></svg>