<svg xmlns="http://www.w3.org/2000/svg" viewBox="0 0 24 24" width="24" height="24"><path fill="currentColor" d="M8 19h1.5v-6.75q.65-.2 1.075-.712T11 10.3V6.5q0-.2-.15-.35T10.5 6t-.35.15t-.15.35V9h-.75V6.5q0-.2-.15-.35T8.75 6t-.35.15t-.15.35V9H7.5V6.5q0-.2-.15-.35T7 6t-.35.15t-.15.35v3.8q0 .725.425 1.238T8 12.25zm6 0h1.5v-6.35q.825-.4 1.288-1.275t.462-2.05q0-1.425-.712-2.375T14.75 6t-1.787.95t-.713 2.375q0 1.175.463 2.05T14 12.65zM4 22q-.825 0-1.412-.587T2 20V4q0-.825.588-1.412T4 2h16q.825 0 1.413.588T22 4v16q0 .825-.587 1.413T20 22zm0-2h16V4H4zm0 0V4z"/></svg>