<svg xmlns="http://www.w3.org/2000/svg" viewBox="0 0 24 24" width="24" height="24"><path fill="currentColor" d="M6 21v-1l1.5-1q-1.475 0-2.488-1.012T4 15.5V6q0-2.075 1.925-3.037T12 2q4.3 0 6.15.925T20 6v9.5q0 1.475-1.012 2.488T16.5 19l1.5 1v1zm0-11h5V7H6zm10.5 2H6h12zM13 10h5V7h-5zm-4.5 6q.625 0 1.063-.437T10 14.5t-.437-1.062T8.5 13t-1.062.438T7 14.5t.438 1.063T8.5 16m7 0q.625 0 1.063-.437T17 14.5t-.437-1.062T15.5 13t-1.062.438T14 14.5t.438 1.063T15.5 16m-8 1h9q.65 0 1.075-.425T18 15.5V12H6v3.5q0 .65.425 1.075T7.5 17M12 4q-2.15 0-3.562.25T6.45 5h11.2q-.45-.5-1.862-.75T12 4m0 1h5.65h-11.2z"/></svg>