<svg xmlns="http://www.w3.org/2000/svg" viewBox="0 0 24 24" width="24" height="24"><path fill="currentColor" d="M3.8 22H3v-2h.8q1.2 0 2.288-.262t2.437-.838q.95.475 1.663.788T12 20t1.813-.312t1.662-.788q1.325.575 2.438.838t2.312.262H21v2h-.775q-1.225 0-2.387-.225T15.55 21.1q-1 .475-1.825.675t-1.725.2t-1.712-.2t-1.813-.675q-1.125.45-2.287.675T3.8 22m8.2-4q-1.5 0-2.625-1L8.25 16q-.675.675-1.512 1.15t-1.788.675L2.825 11q-.125-.425.075-.775t.625-.475L5 9.35V6q0-.825.588-1.412T7 4h2.5V2h5v2H17q.825 0 1.413.588T19 6v3.35l1.475.4q.425.125.625.475t.075.775l-2.125 6.825q-.95-.2-1.787-.675T15.75 16l-1.125 1Q13.5 18 12 18m.05-2q.775 0 1.375-.513t1.1-1.087l1.15-1.325l1.025 1.05q.275.275.563.513t.562.487l1.15-3.725L12 9.575L5.05 11.4l1.15 3.725q.275-.25.562-.488t.563-.512l1.025-1.05L9.5 14.4q.5.6 1.125 1.1t1.425.5M7 8.825L12 7.5l5 1.325V6H7zm5.025 3.95"/></svg>