<svg xmlns="http://www.w3.org/2000/svg" viewBox="0 0 24 24" width="24" height="24"><path fill="currentColor" d="M8.75 22.425q-1.15 0-2.062-.6t-1.413-1.65q-.4.525-1.012.813T3 21.275q-1.275 0-2.137-.875T0 18.275q0-1.075.7-1.937t1.775-.988q-.35-.5-.537-1.062T1.75 13.1q0-1 .513-1.875T3.7 9.8q.125.45.338.963t.487.887q-.35.275-.55.663t-.2.812q0 1.4 1.15 1.725t2.175.525l.475.8q-.275.8-.475 1.363t-.2 1.012q0 .75.538 1.313t1.312.562q.95 0 1.575-.85t1.025-2t.613-2.325t.337-1.8l1.95.525q-.225 1.125-.55 2.575t-.913 2.763t-1.55 2.212t-2.487.9M3 19.275q.425 0 .713-.287T4 18.275t-.288-.712T3 17.275t-.712.288t-.288.712t.288.713t.712.287m7.1-3.95Q8.95 14.3 8.013 13.413T6.4 11.688t-1.037-1.675T5 8.275Q5 6.65 6.113 5.537T8.85 4.426q.1 0 .175.013t.175.012q-.1-.25-.15-.5T9 3.425q0-1.25.875-2.125T12 .425t2.125.875T15 3.425q0 .275-.05.513t-.15.487h.35q1.5 0 2.55.963t1.25 2.387Q18.5 7.7 17.938 7.7t-1.038.05q-.175-.575-.638-.95t-1.112-.375q-.875 0-1.362.513T12.45 8.425h-.925Q10.65 7.4 10.163 6.912T8.85 6.426q-.8 0-1.325.525T7 8.275q0 .575.325 1.188t.912 1.3t1.425 1.462t1.863 1.675zm1.9-10.9q.425 0 .713-.287T13 3.425t-.288-.712T12 2.425t-.712.288t-.288.712t.288.713t.712.287m3.225 18q-.55 0-1.088-.15T13.1 21.8q.275-.35.55-.825t.5-.875q.275.175.55.25t.55.075q.8 0 1.338-.562t.537-1.338q0-.475-.2-1.025t-.475-1.35l.475-.8q1.05-.2 2.188-.525T20.25 13.1q0-1-.737-1.45T17.9 11.2q-1.05 0-2.45.4t-3.275 1.025l-.525-1.95q1.95-.625 3.475-1.05t2.8-.425q1.725 0 3.025 1.025t1.3 2.875q0 .625-.187 1.188t-.538 1.062q1.075.125 1.775.988t.7 1.937q0 1.25-.862 2.125T21 21.275q-.65 0-1.263-.287t-1.012-.813q-.5 1.05-1.412 1.65t-2.088.6m5.8-3.15q.425 0 .7-.288t.275-.712t-.288-.725t-.712-.3t-.712.287t-.288.713t.3.725t.725.3M21 18.25"/></svg>