<svg xmlns="http://www.w3.org/2000/svg" viewBox="0 0 24 24" width="24" height="24"><path fill="currentColor" d="m21 18.15l-2-2V5q0-.425.288-.712T20 4t.713.288T21 5zm-12-12l-2-2V4q0-.425.288-.712T8 3t.713.288T9 4zm4 4l-2-2V2q0-.425.288-.712T12 1t.713.288T13 2zm4 2.025h-2V3q0-.425.288-.712T16 2t.713.288T17 3zm.925 8.575L9 11.825v5.6l-3.7-2.6l3.925 5.725q.125.2.35.325t.475.125H17q.25 0 .488-.062t.437-.188M10.05 23q-.75 0-1.4-.337T7.575 21.7L1.2 12.375l.6-.575q.475-.475 1.125-.55t1.175.3L7 13.575v-3.75L.675 3.5L2.1 2.075l19.8 19.8l-1.425 1.425l-1.1-1.1q-.5.375-1.1.588T17 23zM15 12.175"/></svg>