<svg xmlns="http://www.w3.org/2000/svg" viewBox="0 0 24 24" width="24" height="24"><path fill="currentColor" d="m15.875 13l-2-2H17v2zm-5.7-2v2H7v-2zm10.3 12.3l-2.95-2.95q-1.2.8-2.587 1.225T12 22q-2.075 0-3.9-.788t-3.175-2.137T2.788 15.9T2 12q0-1.55.425-2.937T3.65 6.475L.675 3.5L2.1 2.075l19.8 19.8zM12 20q1.125 0 2.138-.3t1.912-.825L5.125 7.95q-.525.9-.825 1.912T4 12q0 3.325 2.338 5.663T12 20m8.375-2.5L18.9 16.025q.525-.875.813-1.888T20 12q0-3.325-2.337-5.663T12 4q-1.125 0-2.137.288T7.975 5.1L6.5 3.625q1.2-.775 2.588-1.2T12 2q2.075 0 3.9.788t3.175 2.137T21.213 8.1T22 12q0 1.525-.425 2.913t-1.2 2.587M10.6 13.4"/></svg>