<svg xmlns="http://www.w3.org/2000/svg" viewBox="0 0 24 24" width="24" height="24"><path fill="currentColor" d="M3 21q-.2 0-.387-.088T2.3 20.7q-.3-.275-.3-.687t.275-.713q.475-.5 1.138-.6t1.337.025q.2.05.375.1t.3-.075q.15-.15.113-.375t-.088-.425q-.1-.675-.025-1.338t.55-1.162t1.137-.6t1.338.025q.2.05.388.1t.312-.075q.15-.15.1-.375t-.1-.425q-.1-.675-.025-1.337t.55-1.163t1.137-.6t1.338.025q.2.05.387.1t.313-.075q.15-.15.1-.375t-.1-.425q-.1-.675-.013-1.337T13.4 7.75t1.138-.6t1.337.025q.2.05.388.1t.312-.075q.15-.15.1-.375t-.1-.425q-.1-.675-.012-1.338t.562-1.162t1.138-.6t1.337.025q.2.05.387.088t.313-.088q.275-.3.688-.3t.712.275t.3.688t-.275.712q-.475.5-1.137.613T19.25 5.3q-.2-.05-.387-.1t-.313.075q-.15.15-.1.375t.1.425q.1.675.013 1.338T18 8.575t-1.137.6t-1.338-.025q-.2-.05-.375-.1t-.3.075q-.15.15-.112.375t.087.425q.1.675.025 1.338t-.55 1.162q-.475.475-1.137.588T11.825 13q-.2-.05-.375-.088t-.3.088q-.15.15-.112.363t.087.412q.1.675.025 1.338t-.55 1.162t-1.15.6t-1.35-.025q-.2-.05-.375-.087t-.3.087q-.15.15-.1.363t.1.412q.1.675.013 1.338t-.563 1.162t-1.137.6T4.4 20.7q-.2-.05-.375-.087t-.3.087q-.15.15-.338.225T3 21m3-10q-2.075 0-3.537-1.462T1 6q0-2.1 1.463-3.55T6 1q2.1 0 3.55 1.45T11 6q0 2.075-1.45 3.538T6 11m0-2q1.275 0 2.138-.875T9 6q0-1.275-.862-2.137T6 3q-1.25 0-2.125.863T3 6q0 1.25.875 2.125T6 9m10 14q-.825 0-1.412-.587T14 21v-5q0-.825.588-1.412T16 14h5q.825 0 1.413.588T23 16v5q0 .825-.587 1.413T21 23zm0-2h5v-5h-5zM6 6"/></svg>