<svg xmlns="http://www.w3.org/2000/svg" viewBox="0 0 24 24" width="24" height="24"><path fill="currentColor" d="M17.5 23q-.65 0-1.075-.425T16 21.5V18h-1.5v-2H18v5h1v-5h2v-2h-6.5v-2h7q.625 0 1.063.438T23 13.5v3q0 .65-.437 1.075T21.5 18H21v3.5q0 .65-.437 1.075T19.5 23zm-5-4q-1.7 0-2.9-1.15T8.4 15q0-1.675 1.2-2.837T12.5 11h2v8zm0-1.875V12.9q-.875 0-1.5.613T10.375 15T11 16.5t1.5.625M4.5 13q-.65 0-1.075-.425T3 11.5V8h-.5q-.65 0-1.075-.425T1 6.5v-3q0-.625.425-1.062T2.5 2h7v2H3v2h2v5h1V6h3.5v2H8v3.5q0 .65-.437 1.075T6.5 13zm5-4V1h2q1.675 0 2.888 1.163T15.6 5q0 1.7-1.212 2.85T11.5 9zm2-1.875q.875 0 1.488-.625T13.6 5t-.612-1.487T11.5 2.9zm7 7.875"/></svg>