<svg xmlns="http://www.w3.org/2000/svg" viewBox="0 0 24 24" width="24" height="24"><path fill="currentColor" d="M8 21q-2.075 0-3.537-1.463T3 16V6.2q0-1.35.825-2.275T6 3t2.175.825T9 6q0 1.275-.862 2.138T6 9H5v7q0 1.25.875 2.125T8 19t2.125-.875T11 16V8q0-2.075 1.463-3.537T16 3t3.538 1.463T21 8v10q0 1.275-.962 2.138T17.8 21t-2.037-.862T15 18t.863-2.137T18 15h1V8q0-1.25-.875-2.125T16 5t-2.125.875T13 8v8q0 2.075-1.463 3.538T8 21M5 7h1q.425 0 .713-.288T7 6t-.288-.712T6 5t-.712.288T5 6zm13 12q.425 0 .713-.288T19 18v-1h-1q-.425 0-.712.288T17 18t.288.713T18 19M6 6"/></svg>