<svg xmlns="http://www.w3.org/2000/svg" viewBox="0 0 24 24" width="24" height="24"><path fill="currentColor" d="M12 22q-.825 0-1.412-.587T10 20h4q0 .825-.587 1.413T12 22m-8-3v-2h2v-7q0-2.075 1.25-3.687T10.5 4.2v-.7q0-.625.438-1.062T12 2t1.063.438T13.5 3.5v.7q.275.075.538.163t.512.212l-1.575 1.55q-.25-.05-.475-.088T12 6q-1.65 0-2.825 1.175T8 10v7h8v-2.1l2-2V17h2v2zm8-6V9.925l5.525-5.5q.225-.225.5-.325t.55-.1q.3 0 .575.113t.5.337l.925.925q.2.225.313.5t.112.55t-.1.563t-.325.512l-5.5 5.5zm7.5-6.575l-.925-.925zm-6 5.075h.95l3.025-3.05l-.45-.475l-.475-.45l-3.05 3.025zm3.525-3.525l-.475-.45l.925.925z"/></svg>