<svg xmlns="http://www.w3.org/2000/svg" viewBox="0 0 24 24" width="24" height="24"><path fill="currentColor" d="M5 18q-1.25 0-2.125-.875T2 15t.875-2.125T5 12q.975 0 1.738.563T7.8 14h5.3q.275-1.7 1.413-2.975T17.3 9.25L15.9 3H12V1h3.9q.675 0 1.238.438t.712 1.112l1.9 8.45H19q-1.65 0-2.825 1.175T15 15v1H7.8q-.3.875-1.062 1.438T5 18m0-2q.425 0 .713-.288T6 15t-.288-.712T5 14t-.712.288T4 15t.288.713T5 16m14 2q-1.25 0-2.125-.875T16 15t.875-2.125T19 12t2.125.875T22 15t-.875 2.125T19 18m0-2q.425 0 .713-.288T20 15t-.288-.712T19 14t-.712.288T18 15t.288.713T19 16m-6 7l-6-3h4v-2l6 3h-4zm6-8"/></svg>