<svg xmlns="http://www.w3.org/2000/svg" viewBox="0 0 24 24" width="24" height="24"><path fill="currentColor" d="M10 21.35v-5.7l1.4-4q.125-.275.363-.462T12.35 11h7.3q.35 0 .6.188t.35.462l1.4 4v5.7q0 .275-.187.463T21.35 22h-.7q-.275 0-.462-.187T20 21.35v-.85h-8v.85q0 .275-.187.463T11.35 22h-.7q-.275 0-.462-.187T10 21.35m2-6.85h8l-.7-2h-6.6zm-.5 1.5v3zm1.5 2.5q.425 0 .713-.288T14 17.5t-.288-.712T13 16.5t-.712.288T12 17.5t.288.713t.712.287m6 0q.425 0 .713-.288T20 17.5t-.288-.712T19 16.5t-.712.288T18 17.5t.288.713t.712.287M6 14v-2h2v2zm5-6V6h2v2zM6 18v-2h2v2zm0 4v-2h2v2zm-4 0V8h5V2h10v7h-2V4H9v6H4v12zm9.5-3h9v-3h-9z"/></svg>