<svg xmlns="http://www.w3.org/2000/svg" viewBox="0 0 24 24" width="24" height="24"><path fill="currentColor" d="M15 14q-.625 0-1.737.225t-2.463.6t-2.812.875t-2.838 1.075q-.275.125-.562.175T4 17q-1.25 0-2.125-.875T1 14v-2.575q0-1.075.675-1.912T3.4 8.475q1.8-.35 3.475-.625t3.15-.462t2.738-.288T15 7q3.1 0 5.313 2.488T23.025 16q.05.275-.137.5t-.488.35q-.275.125-.575.075t-.575-.25q-1.6-1.25-3.275-1.963T15 14m0-2q1.35 0 2.5.363t2.875 1.337q-.825-2.275-2.212-3.487T15 9q-2 0-5.038.4T3.8 10.45q-.35.075-.575.35T3 11.425V14q0 .55.438.838t.937.087q1.5-.625 3.075-1.162t3-.925t2.613-.613T15 12m-3.325-.575"/></svg>