<svg xmlns="http://www.w3.org/2000/svg" viewBox="0 0 24 24" width="24" height="24"><path fill="currentColor" d="M12 23q-.575 0-1.15-.075t-1.15-.2q-2.2 1.625-4.837 1.163T.824 21.075Q-.3 19.225.1 17.1t1.925-3.575v-.075Q.475 12.025.1 9.938T.8 6q.925-1.575 2.55-2.387t3.425-.563q.8-1.425 2.188-2.237T12 0t3.038.813t2.187 2.237q1.8-.25 3.425.563T23.2 6q1.075 1.85.7 3.938t-1.925 3.512v.075Q23.5 14.975 23.9 17.1t-.725 3.975q-1.4 2.35-4.038 2.813T14.3 22.725q-.575.125-1.15.2T12 23m-4.8-1.25q-.8-.45-1.525-1.037T4.35 19.425t-1.062-1.513t-.763-1.687q-.5.9-.5 1.913t.525 1.887q.725 1.2 2.038 1.713t2.612.012m9.6 0q1.3.5 2.613-.012t2.037-1.713q.525-.875.525-1.887t-.5-1.913q-.3.875-.763 1.688t-1.062 1.512t-1.312 1.288T16.8 21.75M12 21q3.35 0 5.675-2.325T20 13q0-.725-.112-1.388t-.338-1.287q-.725.5-1.6.775t-1.825.275q-2.55 0-4.337-1.787T10 5.25q-2.6.65-4.3 2.8T4 13q0 3.35 2.325 5.675T12 21m-3-5.75q-.525 0-.888-.363T7.75 14t.363-.888T9 12.75t.888.363t.362.887t-.363.888T9 15.25m6 0q-.525 0-.888-.363T13.75 14t.363-.888t.887-.362t.888.363t.362.887t-.363.888t-.887.362M2.35 10.4q.225-.825.575-1.588t.825-1.437T4.788 6.1T6 5q-1.075 0-1.987.525T2.55 6.975q-.5.8-.55 1.675t.35 1.75m19.3 0q.4-.875.35-1.75t-.55-1.675q-.55-.925-1.462-1.45T18 5q.65.5 1.213 1.1t1.037 1.275t.825 1.438t.575 1.587m-5.525-1.025q.725 0 1.35-.225t1.15-.625q-.525-.8-1.25-1.437T15.8 5.975T14 5.25T12 5v.25q0 1.725 1.2 2.925t2.925 1.2M14.775 3.4q-.5-.65-1.225-1.025T12 2t-1.55.375T9.225 3.4q.65-.2 1.35-.3T12 3t1.425.1t1.35.3m4.875 16.025"/></svg>