<svg xmlns="http://www.w3.org/2000/svg" viewBox="0 0 24 24" width="24" height="24"><path fill="currentColor" d="M15.5 12q-.425 0-.712-.288T14.5 11t.288-.712T15.5 10t.713.288t.287.712t-.288.713T15.5 12m-5 0q-.425 0-.712-.288T9.5 11t.288-.712T10.5 10t.713.288t.287.712t-.288.713T10.5 12m-.1-7.775Q9.05 4.6 8.025 5.513T6.45 7.7q1.325-.4 2.35-1.312t1.6-2.163M11.825 4q.825 1.425 2.263 2.238T17.175 7q-.825-1.425-2.262-2.238T11.825 4m-4.4 12.575q-1.575-1.1-2.5-2.812T4 10q0-3.35 2.325-5.675T12 2t5.675 2.325T20 10q0 2.05-.925 3.763t-2.5 2.812l-1.45-1.45q1.3-.8 2.088-2.137T18 10q0-.275-.025-.525T17.9 8.95q-1.85.2-3.575-.413T11.3 6.6q-.95 1.3-2.337 2.15T6 9.875q-.05 1.675.75 3.063t2.125 2.187zM12 23l-1.4-1.4l1.575-1.6H8v-2h4.175L10.6 16.4L12 15l4 4zm-.175-19"/></svg>