<svg xmlns="http://www.w3.org/2000/svg" viewBox="0 0 24 24" width="24" height="24"><path fill="currentColor" d="M13.5 13q.425 0 .713-.288T14.5 12q0-.175-.038-.312t-.112-.263q.275-.1.463-.35T15 10.5q0-.425-.287-.712T14 9.5q-.325 0-.575.175t-.35.475L9.425 8.4q.05-.1.063-.2T9.5 8q0-.425-.288-.712T8.5 7t-.712.288T7.5 8q0 .15.05.288t.125.262q-.275.1-.475.35t-.2.6q0 .425.288.712T8 10.5q.35 0 .6-.187t.35-.488l3.65 1.75l-.1.425q0 .425.288.713T13.5 13m-3.65 9q-.4-1.175-.6-2.312T9 17.538t-.012-1.863t.112-1.45q-.025 0 0 0q-.55-.125-1.262-.312T6.313 13.4t-1.663-.787T2.975 11.5l1.25-1.75q.975.875 2.038 1.388t1.962.8t1.5.375l.6.087q.45.025.713.375t.187.8l-.112.838q-.113.837-.125 2.087t.187 2.725T12 22zM19 22h-2V11.425q0-1.2-.638-2.175T14.65 7.775L7.825 4.7L9.05 3.025l6.425 2.925q1.6.725 2.563 2.2T19 11.425zm-7 0q-.625-1.3-.825-2.775t-.187-2.725t.125-2.087l.112-.838q.075-.45-.187-.8t-.713-.375l-.6-.088q-.6-.087-1.5-.374t-1.962-.8T4.225 9.75q.975.875 2.038 1.388t1.962.8t1.5.374l.6.088q.45.025.713.375t.187.8l-.112.838q-.113.837-.125 2.087t.187 2.725T12 22"/></svg>