<svg xmlns="http://www.w3.org/2000/svg" viewBox="0 0 24 24" width="24" height="24"><path fill="currentColor" d="M4.75 15H6.5q.425 0 .713-.288T7.5 14V9H6v4.75H5V12.5H3.75V14q0 .425.288.713T4.75 15m4.425 0h1.5q.425 0 .713-.288t.287-.712v-1.5q0-.425-.288-.712t-.712-.288h-1.25v-1.25h1v.5h1.25V10q0-.425-.288-.712T10.676 9h-1.5q-.425 0-.712.288T8.175 10v1.5q0 .425.288.713t.712.287h1.25v1.25h-1v-.5h-1.25V14q0 .425.288.713t.712.287m4.4-1.5v-3h1v3zm-.25 1.5h1.5q.425 0 .713-.288t.287-.712v-4q0-.425-.287-.712T14.825 9h-1.5q-.425 0-.712.288t-.288.712v4q0 .425.288.713t.712.287m3.175 0h1.25v-2.625l1 2.625H20V9h-1.25v2.625L17.75 9H16.5zM3 20q-.825 0-1.412-.587T1 18V6q0-.825.588-1.412T3 4h18q.825 0 1.413.588T23 6v12q0 .825-.587 1.413T21 20zm0-2h18V6H3zm0 0V6z"/></svg>