<svg xmlns="http://www.w3.org/2000/svg" viewBox="0 0 24 24" width="24" height="24"><path fill="currentColor" d="M2 22v-2q.95 0 1.413-.5T5.35 19t1.925.5t1.4.5t1.4-.5T12 19q1.425 0 1.938.5t1.412.5q.95 0 1.4-.5t1.925-.5t1.925.5t1.4.5v2q-1.45 0-1.925-.5t-1.4-.5t-1.4.5t-1.925.5t-1.937-.5T12 21q-.95 0-1.4.5t-1.925.5t-1.925-.5t-1.4-.5q-.925 0-1.4.5T2 22m6.675-4.5q-1.425 0-1.925-.5t-1.4-.5q-.875 0-1.4.5T2 17.5v-2q.95 0 1.4-.5t1.925-.5q.15 0 .3.013t.275.037l-.95-3.5l-1.375 1.8L2 11.6L9.775 2L21.3 6.4l-.725 1.875l-2.1-.85L20.5 14.95q.35.2.687.375T22 15.5v2q-1.425-.025-1.925-.513t-1.4-.487q-.95 0-1.4.5t-1.925.5q-1.425 0-1.937-.5T12 16.5q-.95 0-1.4.5t-1.925.5m0-2q.75 0 1.162-.35t1.263-.55l-.925-3.4l3.875-1.025l1.4 5.3q.775-.05 1.225-.462t1.625-.488L16.15 6.5l-5.725-2.1L6.5 9.1l1.725 6.35q.1.025.212.038t.238.012M12.4 9.95"/></svg>