<svg xmlns="http://www.w3.org/2000/svg" viewBox="0 0 24 24" width="24" height="24"><path fill="currentColor" d="M13 23q-.825 0-1.412-.587T11 21v-2.075q-2.575-.35-4.288-2.312T5 12V3q0-.825.588-1.412T7 1h10q.825 0 1.413.588T19 3v9q0 2.65-1.713 4.613T13 18.925V21h6v2zm.75-10h3.15q.05-.25.075-.488T17 12v-1h-4V9h4V7h-5V5h5V3H7v8h2.75q.825 0 1.563.375T12.55 12.4q.2.275.525.438t.675.162M12 17q1.225 0 2.275-.537T16 15h-2.25q-.825 0-1.562-.375T10.95 13.6q-.2-.275-.525-.437T9.75 13H7.1q.35 1.725 1.713 2.863T12 17m-1.05-4"/></svg>