<svg xmlns="http://www.w3.org/2000/svg" viewBox="0 0 24 24" width="24" height="24"><path fill="currentColor" d="M2 11.175V9.1q2.475-.6 4.963-.85T12 8t5.038.25T22 9.1v2.075q-.5-.125-1-.225l-1-.2V14h-2v-3.6q-1.5-.2-3-.3t-3-.1t-3 .088t-3 .287V14H4v-3.275q-.5.1-1 .213t-1 .237M6 21l1.45-8.775q.45-.05 1.025-.088t1.025-.062L8 21zM9 3h2l-.5 2.975q-.45.025-1.012.063t-1.013.087zm2 18h2v-4h-2zm0-6h2v-2.975h-2zm2-12h2l.525 3.125q-.45-.025-1.012-.075T13.5 5.975zm3 18l-1.5-8.925q.45.025 1.025.075t1.025.1L18 21z"/></svg>