<svg xmlns="http://www.w3.org/2000/svg" viewBox="0 0 24 24" width="24" height="24"><path fill="currentColor" d="M15.5 16v-2.725l-1.125-2.025q-.175.125-.275.325T14 12v5.725L16.575 22H14.25L12 18.3V12q0-.775.375-1.425T13.4 9.5L12 7.025q-.5-.95-.437-2.013t.812-1.812l1.7-1.7l6.9 8.1L22 22h-2l-.975-11.6l-5.075-5.95l-.15.15q-.25.25-.288.575t.113.625l3.875 6.95V16zm-9 0v-3.25l3.875-6.95q.15-.3.113-.625T10.2 4.6l-.15-.15l-5.075 5.95L4 22H2L3.025 9.6l6.9-8.1l1.7 1.7q.75.75.813 1.813T12 7.025L10.6 9.5q.65.425 1.025 1.075T12 12v6.3L9.75 22H7.425L10 17.725V12q0-.225-.1-.425t-.275-.325L8.5 13.275V16z"/></svg>