<svg xmlns="http://www.w3.org/2000/svg" viewBox="0 0 24 24" width="24" height="24"><path fill="currentColor" d="M6.5 3Q5.375 3 4.688 4.25T4 7q0 1.575.438 2.788T5.25 11.6L8 11.05q.325-.8.663-1.825T9 7q0-1.5-.687-2.75T6.5 3m1.375 13q.475 0 .8-.35T9 14.675q0-.425-.2-.875t-.4-.8l-2.4.5q0 1 .438 1.75t1.437.75M17.5 8q-1.125 0-1.812 1.25T15 12q0 1.2.338 2.213T16 16.05l2.75.55q.375-.6.813-1.8T20 12q0-1.5-.687-2.75T17.5 8m-1.375 13q1 0 1.438-.75T18 18.5l-2.4-.5q-.2.35-.4.8t-.2.875q0 .5.313.913t.812.412m-8.25-3Q5.95 18 4.95 16.575t-.95-3.2l-.45-.675q-.275-.425-.913-1.925T2 7q0-2.575 1.275-4.288T6.5 1q2.125 0 3.313 1.888T11 7q0 1.45-.4 2.675t-.7 1.975l.2.325q.2.35.55 1.113t.35 1.587q0 1.425-.888 2.375T7.876 18m8.25 5q-1.35 0-2.238-.95T13 19.675q0-.825.35-1.588t.55-1.112l.2-.325q-.3-.75-.7-1.975T13 12q0-2.225 1.188-4.112T17.5 6q1.95 0 3.225 1.713T22 12q0 2.275-.638 3.763t-.912 1.912l-.45.7q.025 1.775-.962 3.2T16.125 23"/></svg>