<svg xmlns="http://www.w3.org/2000/svg" viewBox="0 0 24 24" width="24" height="24"><path fill="currentColor" d="M4 20q-.825 0-1.412-.587T2 18v-1q0-.825.588-1.412T4 15t1.413.588T6 17v1q0 .825-.587 1.413T4 20m17.05 0H19.5q-.25 0-.4-.187t-.1-.438l.275-1.075q.05-.2.2-.312t.35-.063l1.35.2q.35.05.588.313t.237.612q0 .4-.275.675T21.05 20m-3.7-.35l-2.85-.95q-.2-.075-.3-.275t0-.4l.75-1.725q.1-.2.313-.288t.412.038l2.4 1.4q.15.075.213.225T18.3 18l-.3 1.3q-.05.2-.25.313t-.4.037M12.7 17.9l-1.95-.5q-.35-.1-.55-.362t-.2-.613V15.5q0-.575.2-1.075t.675-.8q.125-.075.25-.088t.25.063l2.55 1.4q.175.1.238.288t-.013.362l-.875 1.975q-.075.175-.238.25t-.337.025M7.45 17q-.2 0-.325-.112t-.15-.288q-.175-1.125-1.013-1.863T4 14h-.5q-.2 0-.35-.15T3 13.5t.15-.35t.35-.15h.9q.5 0 .95-.125t.875-.4q.125-.075.275-.075t.275.075q.5.3 1.075.413T9 13q.3 0 .425.313t-.075.612q-.225.35-.287.75T9 15.5v1q0 .2-.15.35T8.5 17zm-3-5q-1.05 0-1.75-.687T2 9.6q0-.475.175-.925t.525-.8l1.3-1.3V5q0-.425.288-.712T5 4t.713.288T6 5v1.6q0 .4-.162.763T5.4 8L4.125 9.3q-.05.05-.088.125T4 9.575q0 .175.125.3t.3.125q.2 0 .425-.225q.35-.3.763-.487T6.5 9.1t.888.188t.762.487l.2.15q.1.075.225.075q.175 0 .3-.125t.125-.3q0-.075-.038-.15T8.876 9.3L7.6 8q-.275-.275-.437-.638T7 6.6V5q0-.425.288-.712T8 4t.713.288T9 5v1.575l1.3 1.3q.35.35.525.788t.175.912q0 1.025-.7 1.725t-1.75.7q-.475 0-.9-.2t-.775-.5q-.1-.075-.175-.138t-.2-.062q-.175 0-.375.2q-.35.3-.787.487T4.45 12M6.5 4"/></svg>