<svg xmlns="http://www.w3.org/2000/svg" viewBox="0 0 24 24" width="24" height="24"><path fill="currentColor" d="M4 21q-1.25 0-2.125-.875T1 18q0-.65.25-1.237T2 15.75V11h2V5h8l4.7 11.075q.15.35.225.7T17 17.5q0 1.45-1.025 2.475T13.5 21q-1.025 0-1.888-.537T10.326 19h-3.5q-.325.9-1.1 1.45T4 21m14-1V4h2v14h3v2zM4 19q.425 0 .713-.288T5 18t-.288-.712T4 17t-.712.288T3 18t.288.713T4 19m9.5 0q.625 0 1.063-.437T15 17.5t-.437-1.062T13.5 16t-1.062.438T12 17.5t.438 1.063T13.5 19m-6.675-2h3.2q.05-.275.112-.513t.188-.487h-2.25L5.15 13H4v2q.95 0 1.725.55t1.1 1.45m2.1-3h4.725l-2.975-7H6v4zm-.85 2l-.462-.475q-.463-.475-1-1.037t-1-1.025L5.15 13H4h1.15zh2.25z"/></svg>