<svg xmlns="http://www.w3.org/2000/svg" viewBox="0 0 24 24" width="24" height="24"><path fill="currentColor" d="M5 18v-1.9q0-.525.263-.987t.712-.738q1.275-.75 2.713-1.1t2.912-.25q-.05.25-.075.488T11.5 14q0 .275.025.525t.075.5q-1.175-.1-2.3.15T7.15 16h4.775q.275.6.663 1.1t.912.9zm6-6q-1.275 0-2.137-.862T8 9q0-1.25.863-2.125T11 6q1.25 0 2.125.875T14 9q0 1.275-.875 2.138T11 12m0-2q.425 0 .713-.288T12 9t-.288-.712T11 8t-.712.288T10 9t.288.713T11 10M4 22q-.825 0-1.412-.587T2 20v-4h2v4h4v2zM2 8V4q0-.825.588-1.412T4 2h4v2H4v4zm14 14v-2h4v-4h2v4q0 .825-.587 1.413T20 22zm4-14V4h-4V2h4q.825 0 1.413.588T22 4v4zm-4 10v-1.55q-1.075-.2-1.787-1.012T13.5 13.5h1q0 .825.588 1.413t1.412.587t1.413-.587t.587-1.413h1q0 1.125-.712 1.938T17 16.45V18zm.5-3.5q-.525 0-.888-.363t-.362-.887v-2q0-.525.363-.888T16.5 10t.888.363t.362.887v2q0 .525-.363.888t-.887.362"/></svg>