<svg xmlns="http://www.w3.org/2000/svg" viewBox="0 0 24 24" width="24" height="24"><path fill="currentColor" d="M12 12V2q0-.425.288-.712T13 1t.713.288T14 2v10zm-4 0V3q0-.425.288-.712T9 2t.713.288T10 3v9zm4.5 11q-3.55 0-6.025-2.475T4 14.5V5q0-.425.288-.712T5 4t.713.288T6 5v9.5q0 2.725 1.888 4.613T12.5 21t4.613-1.888T19 14.5V11q-.425 0-.712.288T18 12v4h-3q-.825 0-1.412.588T13 18v1h-2v-1q0-1.65 1.175-2.825T15 14h1V4q0-.425.288-.712T17 3t.713.288T18 4v5.175q.25-.075.488-.125T19 9h2v5.5q0 3.55-2.475 6.025T12.5 23m1-8"/></svg>