<svg xmlns="http://www.w3.org/2000/svg" viewBox="0 0 24 24" width="24" height="24"><path fill="currentColor" d="m13.025 15.5l2.85.025q1.05 0 1.75-.5t.7-1.45q0-.725-.387-1.125t-1.013-.575v-.05q.525-.175.8-.562t.275-.988q0-1.05-.725-1.413T15.55 8.5h-2.525zm1.35-4.1V9.625H15.4q.525 0 .888.187t.362.688t-.362.7t-.913.2zm0 2.975V12.4H15.8q.5 0 .825.262t.325.763q0 .475-.3.737t-.8.213zM22 4v12q0 1.65-1.175 2.825T18 20H6q-1.65 0-2.825-1.175T2 16V4zm-2 2H4v10q0 .825.588 1.413T6 18h12q.825 0 1.413-.587T20 16zm0 0H4zM6.125 15.5H7.5v-2.55h.9l1.825 2.55h1.625l-2.025-2.725q.7-.275 1.063-.787t.362-1.263q0-1.125-.663-1.675T8.576 8.5h-2.45zM7.5 11.925V9.7h1.125q.65 0 .938.288t.287.812q0 .55-.337.838t-.913.287z"/></svg>