<svg xmlns="http://www.w3.org/2000/svg" viewBox="0 0 24 24" width="24" height="24"><path fill="currentColor" d="M4 20V4v7.3v-.3zm1-8.9v6.6q0 .35.225.575t.575.225h.4q.35 0 .575-.225T7 17.7v-1.2h4.175q.125-.55.313-1.037t.462-.963H7v-3h8.4q.85-.35 1.775-.45t1.825.025L17.35 6.3q-.125-.35-.413-.575T16.3 5.5H7.7q-.35 0-.638.225T6.65 6.3zm2.65-1.6l.7-2h7.3l.7 2zM9 14q.425 0 .713-.288T10 13t-.288-.712T9 12t-.712.288T8 13t.288.713T9 14m8.3 6.25l3.55-3.55l-.75-.75l-2.8 2.8l-1.4-1.4l-.75.75zM18 13q2.075 0 3.538 1.463T23 18t-1.463 3.538T18 23t-3.537-1.463T13 18t1.463-3.537T18 13M4 22q-.825 0-1.412-.587T2 20V4q0-.825.588-1.412T4 2h16q.825 0 1.413.588T22 4v8.275q-.45-.325-.95-.562T20 11.3V4H4v16h7.3q.175.55.413 1.05t.562.95z"/></svg>