<svg xmlns="http://www.w3.org/2000/svg" viewBox="0 0 24 24" width="24" height="24"><path fill="currentColor" d="m12 20.3l-8.675-8.625q-.65-.65-.975-1.475q-.325-.825-.325-1.7q0-1.875 1.3-3.188Q4.625 4 6.5 4q.875 0 1.7.337q.825.338 1.475.988L12 7.625l2.325-2.3q.65-.65 1.475-.988Q16.625 4 17.5 4q1.875 0 3.188 1.312Q22 6.625 22 8.5q0 .875-.337 1.7q-.338.825-.988 1.475Zm-4.25-8.45l2.125-2.125l-2.3-2.275q-.25-.25-.538-.363Q6.75 6.975 6.475 7q-.6.025-1.037.462Q5 7.9 5 8.5q0 .275.113.55q.112.275.337.5Zm4.25 4.2l6.575-6.5q.225-.2.325-.488q.1-.287.1-.562q0-.6-.425-1.038Q18.15 7.025 17.55 7q-.275-.025-.562.087q-.288.113-.538.363l-6.55 6.5Z"/></svg>