<svg xmlns="http://www.w3.org/2000/svg" viewBox="0 0 24 24" width="24" height="24"><path fill="currentColor" d="M9 22q-.625 0-1.062-.438Q7.5 21.125 7.5 20.5V20q-.625 0-1.062-.438Q6 19.125 6 18.5v-11q0-.625.438-1.062Q6.875 6 7.5 6H9V2.75q0-.3.225-.525Q9.45 2 9.75 2h4.5q.3 0 .525.225q.225.225.225.525V6h1.5q.625 0 1.062.438Q18 6.875 18 7.5v11q0 .625-.438 1.062Q17.125 20 16.5 20v.5q0 .625-.438 1.062Q15.625 22 15 22t-1.062-.438q-.438-.437-.438-1.062V20h-3v.5q0 .625-.438 1.062Q9.625 22 9 22Zm1.5-16h3V3.5h-3Zm-3 12.5h9v-11h-9Z"/></svg>