<svg xmlns="http://www.w3.org/2000/svg" viewBox="0 0 24 24" width="24" height="24"><path fill="currentColor" d="M12.5 11.95q.725-.8 1.113-1.825T14 8t-.387-2.125T12.5 4.05q1.5.2 2.5 1.325T16 8t-1 2.625t-2.5 1.325M18 20v-3q0-.9-.4-1.713t-1.05-1.437q1.275.45 2.363 1.163T20 17v3zm2-7v-2h-2V9h2V7h2v2h2v2h-2v2zM8 12q-1.65 0-2.825-1.175T4 8t1.175-2.825T8 4t2.825 1.175T12 8t-1.175 2.825T8 12m-8 8v-2.8q0-.85.438-1.562T1.6 14.55q1.55-.775 3.15-1.162T8 13t3.25.388t3.15 1.162q.725.375 1.163 1.088T16 17.2V20zm8-10q.825 0 1.413-.587T10 8t-.587-1.412T8 6t-1.412.588T6 8t.588 1.413T8 10m-6 8h12v-.8q0-.275-.137-.5t-.363-.35q-1.35-.675-2.725-1.012T8 15t-2.775.338T2.5 16.35q-.225.125-.363.35T2 17.2zm6 0"/></svg>