<svg xmlns="http://www.w3.org/2000/svg" viewBox="0 0 24 24" width="24" height="24"><path fill="currentColor" d="M2 22v-2.25q0-.775.4-1.413t1.1-.987q1.3-.65 2.688-1T9.024 16q1.45 0 2.838.35t2.662 1q.675.35 1.075.988t.4 1.412V22H2Zm16 0v-2.5q0-.95-.488-1.775t-1.212-1.45q.8.2 1.588.438t1.512.612q.65.35 1.125.9T21 19.5V22h-3Zm-9-7q-1.45 0-2.475-1.025T5.5 11.5q0-1.45 1.025-2.475T9 8q1.45 0 2.475 1.025T12.5 11.5q0 1.45-1.025 2.475T9 15Zm8.5-3.5q0 1.45-1.025 2.475T14 15q-.2 0-.362-.013t-.338-.062q.625-.725.913-1.6T14.5 11.5q0-.95-.288-1.825t-.912-1.6q.175-.05.338-.062T14 8q1.45 0 2.475 1.025T17.5 11.5ZM4 20h10v-.225q0-.2-.113-.388t-.312-.287q-1.075-.55-2.225-.825T9 18q-1.2 0-2.35.275t-2.225.825q-.2.1-.312.275t-.113.4V20Zm5-7q.625 0 1.063-.438T10.5 11.5q0-.625-.438-1.063T9 10q-.625 0-1.063.438T7.5 11.5q0 .625.438 1.063T9 13Zm9.5-3q0-1.875-1.313-3.188T14 5.5q1.875 0 3.188-1.313T18.5 1q0 1.875 1.313 3.188T23 5.5q-1.875 0-3.188 1.313T18.5 10ZM9 20Zm0-8.5Z"/></svg>