<svg xmlns="http://www.w3.org/2000/svg" viewBox="0 0 24 24" width="24" height="24"><path fill="currentColor" d="M4.575 14.5q-.2.1-.413.013t-.287-.288l-.75-2q-.125-.35-.112-.687t.312-.463q.625-.25 1.163.175t.812 1.1l.4 1.075q.075.2.013.363t-.238.262zm6.25 7.5q-.425 0-.837-.175t-.688-.5L5.25 16.65q-.275-.325-.25-.725t.35-.675t.725-.237t.675.337L9 17.925q0-.2.05-.387t.15-.388l-1.15-3.3q-.125-.4.05-.775t.575-.5t.775.05t.5.575l.975 2.8h.575v-3q0-.425.288-.712T12.5 12t.713.288t.287.712v3h.6l.525-2.225q.1-.425.438-.638t.762-.112t.638.438t.112.762l-.4 1.775q.125.025.263.05t.262.075l.375-.975q.15-.4.525-.575t.775-.025q.375.15.537.525t.013.775L18 18.3V20q0 .825-.588 1.413T16 22zM7.775 6.525q-.2.025-.363-.112t-.187-.338L7 4.1q-.05-.425.213-.737T7.9 3t.738.213T9 3.9l.2 1.975q.025.2-.112.363t-.338.187zm.55 5.1q-.225.05-.412-.075T7.7 11.2l-.3-2.6q-.05-.425.213-.737T8.3 7.5t.738.213t.362.687l.275 2.425q.025.2-.075.35t-.3.2zM11 20h5v-2h-5zm1-9q-.2 0-.35-.15t-.15-.35V8q0-.425.288-.712T12.5 7t.713.288T13.5 8v2.5q0 .2-.15.35T13 11zm0-5q-.2 0-.35-.15t-.15-.35V3q0-.425.288-.712T12.5 2t.713.288T13.5 3v2.5q0 .2-.15.35T13 6zm4.375 6.15l-1-.25q-.2-.05-.3-.2T15 11.35l.275-2.45q.05-.425.363-.687T16.375 8t.688.363t.212.737L17 11.725q-.025.225-.212.35t-.413.075m.575-5.025l-1-.1q-.2-.025-.337-.188t-.113-.362l.2-1.975q.05-.425.363-.687T16.8 3.6t.688.363t.212.737l-.2 1.975q-.025.2-.187.338t-.363.112m2 6.625l-.975-.3q-.2-.05-.288-.225t-.037-.375l.375-1.4q.125-.4.475-.612t.75-.088t.6.462t.1.738l-.375 1.45q-.05.2-.238.3t-.387.05M20 9.975l-.975-.25q-.2-.05-.3-.238t-.05-.387L19 7.95q.175-.6.425-1.125t.775-.4q.625.15.75.825t-.075 1.4l-.275.975q-.05.2-.225.3t-.375.05M11 20h5z"/></svg>