<svg xmlns="http://www.w3.org/2000/svg" viewBox="0 0 24 24" width="24" height="24"><path fill="currentColor" d="M18.85 21.975q-.2 0-.375-.062t-.325-.213l-5.1-5.1q-.15-.15-.213-.325t-.062-.375t.063-.375t.212-.325l2.125-2.125q.15-.15.325-.212t.375-.063t.375.063t.325.212l5.1 5.1q.15.15.213.325t.062.375t-.062.375t-.213.325L19.55 21.7q-.15.15-.325.213t-.375.062m0-2.375l.725-.725L15.9 15.2l-.725.725zM5.125 22q-.2 0-.387-.075T4.4 21.7l-2.1-2.1q-.15-.15-.225-.338T2 18.876t.075-.375t.225-.325l5.3-5.3h2.125l.85-.85L6.45 7.9H5.025L2 4.875L4.825 2.05L7.85 5.075V6.5l4.125 4.125l2.9-2.9L13.8 6.65l1.4-1.4h-2.825l-.7-.7L15.225 1l.7.7v2.825l1.4-1.4l3.55 3.55q.425.425.65.963t.225 1.137t-.225 1.15t-.65.975L18.75 8.775l-1.4 1.4l-1.05-1.05l-5.175 5.175v2.1l-5.3 5.3q-.15.15-.325.225T5.125 22m0-2.4l4.25-4.25v-.725H8.65l-4.25 4.25zm0 0l-.725-.725l.375.35zm13.725 0l.725-.725z"/></svg>