<svg xmlns="http://www.w3.org/2000/svg" viewBox="0 0 24 24" width="24" height="24"><path fill="currentColor" d="M1 13v-2h2.025q.35-3.175 2.575-5.4T11 3.025V2h2v1.025q3.175.35 5.4 2.575t2.575 5.4H23v2zm4.075-2h13.85q-.35-2.575-2.312-4.288T12 5T7.388 6.713T5.075 11m9.3 2H8v6h5.55q.525 0 1.013-.175t.887-.525l4.15-3.425q-.2-.2-.45-.3t-.525-.15q-.425-.075-.825.025t-.75.375L14.35 17H10v-2h3.65l1.1-.9q.125-.075.188-.2t.062-.275q0-.25-.187-.437T14.375 13M6 13H4v7h2zm0 9H4q-.825 0-1.412-.587T2 20v-7q0-.825.588-1.412T4 11h10.375q2.125 0 4.1.725t3.175 2.45l.675 1.025l-5.575 4.65q-.675.575-1.5.863t-1.7.287H7.725q-.275.45-.725.725T6 22m6-11"/></svg>