<svg xmlns="http://www.w3.org/2000/svg" viewBox="0 0 24 24" width="24" height="24"><path fill="currentColor" d="M9.5 14h4q.425 0 .713-.288T14.5 13v-.75l2 1.25v-5l-2 1.25V9q0-.425-.288-.713T13.5 8h-4q-.425 0-.713.288T8.5 9v4q0 .425.288.713T9.5 14Zm2.5 9v-3.5q-1.825 0-3.463-.688t-2.862-1.85q-1.225-1.162-1.95-2.7T3 11q0-1.875.713-3.513t1.924-2.862Q6.85 3.4 8.488 2.7T12 2q1.875 0 3.513.7t2.862 1.925Q19.6 5.85 20.3 7.488T21 11q0 3.525-2.35 6.663T12 23Zm2-3.6q2.4-1.8 3.7-3.988T19 11q0-2.9-2.05-4.95T12 4Q9.1 4 7.05 6.05T5 11q0 2.6 2.1 4.55T12 17.5h2v1.9Zm-2-7.7Z"/></svg>