<svg xmlns="http://www.w3.org/2000/svg" viewBox="0 0 24 24" width="24" height="24"><path fill="currentColor" d="M12 4q-1.125 0-2.15.275t-1.925.8l-1.45-1.45q1.175-.8 2.575-1.213T12 2q2.075 0 3.9.788t3.175 2.137T21.213 8.1T22 12q0 1.55-.425 2.95t-1.225 2.575l-1.45-1.45q.525-.9.813-1.925T20 12q0-3.35-2.325-5.675T12 4m0 5.175l-1.5-1.5V6H12zM17.5 7.5v3q0 .6-.45 1.05T16 12h-1.175L13 10.175V6h3q.6 0 1.05.45t.45 1.05m-3 3H16v-3h-1.5zm-4 5v-1h-2v1zm-2 3.5H7v-6h3.5q.625 0 1.063.438T12 14.5v1q0 .45-.262.813t-.638.587L12 19h-1.55l-.85-2H8.5zM7 8.4l1.5 1.5V12H7zM4.275 5.675l1.4 1.425q-.8 1.05-1.237 2.263T4 12q0 3.35 2.325 5.675T12 20q1.425 0 2.65-.437t2.275-1.238l1.4 1.4q-1.275 1.1-2.887 1.687T12 22q-2.075 0-3.9-.788t-3.175-2.137T2.788 15.9T2 12q0-1.825.6-3.437t1.675-2.888M.7 3.5l1.4-1.4l19.8 19.8l-1.4 1.4z"/></svg>