<svg xmlns="http://www.w3.org/2000/svg" viewBox="0 0 24 24" width="24" height="24"><path fill="currentColor" d="m17.4 10.6l-1.55-1.55q.05-.275.1-.525T16 8q0-1.65-1.175-2.825T12 4q-.275 0-.525.038T11 4.15l-1.6-1.6q.65-.3 1.3-.425T12 2q2.5 0 4.25 1.75T18 8q0 .65-.15 1.3t-.45 1.3m-1.15 4.45L14.6 13.4q-.575.3-1.262.45T12 14q-2.5 0-4.25-1.75T6 8q0-.725.15-1.375T6.6 5.4L4.95 3.75l1.4-1.4l11.3 11.3zm-3.2-3.2l-4.9-4.9q-.075.2-.112.488T8 8q0 1.65 1.175 2.825T12 12q.275 0 .563-.038t.487-.112M20.5 22v-2h-2v-1.5h2v-2H22v2h2V20h-2v2zM13 22v-6h3.5q.6 0 1.05.45T18 17.5v1q0 .575-.262.888t-.638.512L18 22h-1.5l-.9-2h-1.1v2zm1.5-3.5h2v-1h-2zM0 22v-6h1.5v2h2v-2H5v6H3.5v-2.5h-2V22zm6.5 0v-6H10q.6 0 1.05.45t.45 1.05v3q0 .6-.45 1.05T10 22zM8 20.5h2v-3H8zM20.5 22v-2h-2v-1.5h2v-2H22v2h2V20h-2v2zM13 22v-6h3.5q.6 0 1.05.45T18 17.5v1q0 .575-.262.888t-.638.512L18 22h-1.5l-.9-2h-1.1v2zm1.5-3.5h2v-1h-2zM0 22v-6h1.5v2h2v-2H5v6H3.5v-2.5h-2V22zm6.5 0v-6H10q.6 0 1.05.45t.45 1.05v3q0 .6-.45 1.05T10 22zM8 20.5h2v-3H8zm2.6-11.1"/></svg>