<svg xmlns="http://www.w3.org/2000/svg" viewBox="0 0 24 24" width="24" height="24"><path fill="currentColor" d="M7.5 18q-1.65 0-2.825-1.175T3.5 14V9.925q0-1.275.8-2.238T6.35 6.5q1.425-.275 2.825-.387T12 6t2.838.113t2.812.387q1.25.25 2.05 1.2t.8 2.225V14q0 1.65-1.175 2.825T16.5 18h-1q-.325 0-.65-.038t-.625-.162l-1.6-.55q-.3-.125-.625-.125t-.625.125l-1.6.55q-.3.125-.625.162T8.5 18zm0-2h1q.175 0 .338-.025t.312-.075q.725-.225 1.413-.475t1.437-.25t1.45.238t1.4.487q.15.05.313.075T15.5 16h1q.825 0 1.413-.587T18.5 14V9.925q0-.55-.35-.95t-.875-.525q-1.3-.275-2.613-.362T12 8t-2.65.1t-2.625.35q-.525.1-.875.513t-.35.962V14q0 .825.588 1.413T7.5 16M1 14v-4h1.5v4zm20.5 0v-4H23v4zM12 12"/></svg>