<svg xmlns="http://www.w3.org/2000/svg" viewBox="0 0 24 24" width="24" height="24"><path fill="currentColor" d="M12 17.65L8.25 21.4q-.575.575-1.4.575t-1.4-.575L2.6 18.55q-.575-.575-.575-1.4t.575-1.4L6.35 12L2.6 8.25q-.575-.575-.575-1.4t.575-1.4L5.45 2.6q.575-.575 1.4-.575t1.4.575L12 6.35l3.75-3.75q.575-.575 1.4-.575t1.4.575l2.85 2.85q.575.575.575 1.4t-.575 1.4L17.65 12l3.75 3.75q.575.575.575 1.4t-.575 1.4l-2.85 2.85q-.575.575-1.4.575t-1.4-.575zM12 11q.425 0 .713-.287T13 10t-.288-.712T12 9t-.712.288T11 10t.288.713T12 11m-4.25-.4l2.85-2.85L6.85 4L4 6.85zM10 13q.425 0 .713-.288T11 12t-.288-.712T10 11t-.712.288T9 12t.288.713T10 13m2 2q.425 0 .713-.288T13 14t-.288-.712T12 13t-.712.288T11 14t.288.713T12 15m2-2q.425 0 .713-.288T15 12t-.288-.712T14 11t-.712.288T13 12t.288.713T14 13m-.6 3.25L17.15 20L20 17.15l-3.75-3.75zm2.125-.725"/></svg>