<svg xmlns="http://www.w3.org/2000/svg" viewBox="0 0 24 24" width="24" height="24"><path fill="currentColor" d="M12.025 21.925q-3.35-3.375-5.337-5.45t-3.025-3.45t-1.35-2.35T2 8.5q0-2.3 1.6-3.9T7.5 3q1.125 0 2.175.412T11.55 4.6L10 10h3l-.85 8.375L15 9h-3l1.775-5.3q.625-.35 1.313-.525T16.5 3q2.3 0 3.9 1.6T22 8.5q0 1.2-.325 2.2T20.3 13.088t-3.025 3.45t-5.25 5.387m-1.775-4.65L10.775 12H7.35l1.875-6.575q-.4-.2-.837-.312T7.5 5Q6.05 5 5.025 6.025T4 8.5q0 .775.288 1.55t1 1.763t1.924 2.3t3.038 3.162m4.7-1.2q2.775-2.825 3.913-4.5T20 8.5q0-1.45-1.025-2.475T16.5 5q-.275 0-.55.038t-.55.137L14.8 7h2.9zM7.35 12"/></svg>