<svg xmlns="http://www.w3.org/2000/svg" viewBox="0 0 24 24" width="24" height="24"><path fill="currentColor" d="M10 16q.425 0 .713-.288T11 15v-.1q0-.05-.025-.1q.425 0 .725-.288t.3-.712t-.288-.712T11 12.8q-.2 0-.387.088t-.313.212l-2.575-2.9q.125-.125.2-.312T8 9.5q0-.425-.288-.712T7 8.5t-.712.288T6 9.5v.1q0 .05.025.1q-.425 0-.725.288T5 10.7t.288.713T6 11.7q.225 0 .413-.087t.312-.238l2.575 2.9q-.15.125-.225.325T9 15q0 .425.288.713T10 16m-8-3.225l1.1-1.75L11 18.45q.3.275.663.413t.712.137q.3 0 .575-.088t.5-.212L22 13.3v2.35l-7.5 4.725q-.475.3-1.012.463T12.35 21q-.75 0-1.45-.288T9.625 19.9zM6.425 5.7L7.5 4q1.875.925 3.475 2.538t2.4 3.362q.9-.95 1.988-1.513T18.4 7.3q1.15-.325 1.988-.625T22 6v2.2q-.675.275-1.412.525t-1.663.5q-2.1.55-3.137 1.225t-1.938 2.1q-.125.2-.35.325T13 13q-.35 0-.625-.225t-.35-.55q-.45-1.9-2.012-3.725T6.425 5.7M3.1 11.025q1.8 1.675 3.95 3.713T11 18.45q.3.275.663.413t.712.137q.3 0 .575-.088t.5-.212q1.575-.975 4.125-2.587T22 13.3l-8.55 5.4q-.225.125-.5.213t-.575.087q-.35 0-.712-.138T11 18.45z"/></svg>