<svg xmlns="http://www.w3.org/2000/svg" viewBox="0 0 24 24" width="24" height="24"><path fill="currentColor" d="M5 20q-.825 0-1.412-.587T3 18V4q0-.825.588-1.412T5 2h14q.825 0 1.413.588T21 4v5.65q-.475-.225-.975-.363T19 9.076V4H5v9h4.2q.225.675.75 1.175t1.175.7q-.075.5-.1 1.013t.05 1.012q-.9-.175-1.687-.663T8 15H5v3h6.325q.175.55.4 1.05t.55.95zm0-2h6.325zm12.025 3l-.3-1.5q-.3-.125-.563-.262t-.537-.338l-1.45.45l-1-1.7l1.15-1q-.05-.3-.05-.65t.05-.65l-1.15-1l1-1.7l1.45.45q.275-.2.538-.337t.562-.263l.3-1.5h2l.3 1.5q.3.125.563.263t.537.337l1.45-.45l1 1.7l-1.15 1q.05.3.05.65t-.05.65l1.15 1l-1 1.7l-1.45-.45q-.275.2-.537.338t-.563.262l-.3 1.5zm1-3q.825 0 1.413-.587T20.025 16t-.587-1.412T18.025 14t-1.412.588T16.025 16t.588 1.413t1.412.587"/></svg>