<svg xmlns="http://www.w3.org/2000/svg" viewBox="0 0 24 24" width="24" height="24"><path fill="currentColor" d="M13.175 16H8v-2h5.175zM5 13v-2h2v2zm3 0v-2h2v2zm-3-3V8h2v2zm9 0h2V8h-2zm3 0h2V8h-2zm0 2.425q.45-.2.963-.312T19 12v-1h-2zM16 13v-2h-2v.15L15.85 13zm-3-3V8h-2v.15L12.85 10zm7.475 13.3L.7 3.5l1.4-1.4l19.8 19.8zM22 13q-.425-.325-.925-.55T20 12.1V7H9.85l-2-2H20q.825 0 1.413.588T22 7zM4 19q-.825 0-1.412-.587T2 17V7q0-.825.588-1.412T4 5h1l2 2H4v10h10v2zm12.85 3q-.35 0-.6-.25t-.25-.6v-3.3q0-.35.25-.6t.6-.25H17l4 4v1zM22 19.15l-2-2V16q0-.425-.288-.713T19 15q-.225 0-.437.1t-.338.275l-.7-.725q.275-.3.663-.475T19 14q.825 0 1.413.588T21 16v1h.15q.35 0 .6.25t.25.6z"/></svg>