<svg xmlns="http://www.w3.org/2000/svg" viewBox="0 0 24 24" width="24" height="24"><path fill="currentColor" d="M20.5 23.35L.675 3.525L2.1 2.1l19.825 19.825zM6 10q-1.25 0-2.125-.888T3 7q0-.8.4-1.475T4.45 4.45l4.1 4.1q-.4.65-1.075 1.05T6 10m16.85 9.9l-3.25-3.2l-2.95-8.5q-.2-.575-.625-.887t-1-.313t-1.012.325t-.638.9l-.525 1.75l-1.6-1.625l.2-.7q.35-1.2 1.338-1.925T15.025 5q1.225 0 2.188.713t1.337 1.862zm-21.7.1l3.45-6.9q.25-.5.712-.8T6.35 12q.6 0 1.1.313t.725.887l.675 1.65q.05.15.225.138t.225-.163l1.275-4.25L12.2 12.2l-.975 3.2q-.225.7-.812 1.15T9.075 17q-.675 0-1.25-.363T7 15.625l-.675-1.65L3.375 20z"/></svg>