<svg xmlns="http://www.w3.org/2000/svg" viewBox="0 0 24 24" width="24" height="24"><path fill="currentColor" d="M20.65 7q0-1.95-1.35-3.3T16 2.35V1q2.5 0 4.25 1.75T22 7zM18 7q0-.825-.587-1.412T16 5V3.65q1.375 0 2.338.975T19.35 7zM4 21q-.825 0-1.412-.587T2 19V7q0-.825.588-1.412T4 5h3.15L9 3h6v2H9.875L8.05 7H4v12h16V8h2v11q0 .825-.587 1.413T20 21zm8-3.5q1.875 0 3.188-1.312T16.5 13t-1.312-3.187T12 8.5T8.813 9.813T7.5 13t1.313 3.188T12 17.5m0-2q-1.05 0-1.775-.725T9.5 13t.725-1.775T12 10.5t1.775.725T14.5 13t-.725 1.775T12 15.5"/></svg>