<svg xmlns="http://www.w3.org/2000/svg" viewBox="0 0 24 24" width="24" height="24"><path fill="currentColor" d="m19.85 17.375l-3.225-3.225q.975-.55 2.075-.85T21 13q0 1.2-.3 2.3t-.85 2.075m-4.15 1.55l-.625-.625q-.2.3-.35.6t-.275.65q.35-.125.65-.275t.6-.35m5.5 2.65L19.775 23l-2.625-2.625q-1.1.775-2.413 1.2T12 22q0-1.425.425-2.738t1.2-2.412L11.775 15q-.9-.075-1.625-.6T9.1 13.05q-.125 0-.225.012t-.225.013q-1.325 0-2.238-.913T5.5 9.925q0-.275.038-.525t.137-.5l-4.3-4.3L2.8 3.175zM12 1q.95 0 1.75.538T14.9 2.95q.125 0 .225-.012t.225-.013q1.3 0 2.213.925t.912 2.225q0 .525-.162 1.012T17.8 8q.325.425.5.913t.175 1.012q0 1.25-.837 2.162t-2.088.988l-4.3-4.3L9.275 6.8q.15-.325.35-.6t.475-.5l-.8-.575q-.125-.1-.288-.15t-.362-.05q-.25 0-.475.1t-.375.3L6.375 3.9q.525-.55 1.25-.775T9.1 2.95q.35-.875 1.15-1.412T12 1m3.35 10.075q.475 0 .813-.337t.337-.813q0-.35-.187-.612t-.488-.413l-.875-.425q-.05.275-.15.538t-.225.487t-.3.425t-.375.375l.8.575q.125.1.288.15t.362.05m-.4-3.55l.875-.425q.3-.15.475-.425t.175-.6q0-.475-.325-.812t-.8-.338q-.2 0-.35.05t-.3.15l-.825.575q.2.175.388.375t.312.425t.225.488t.15.537M10.975 5.2q.25-.1.5-.15T12 5t.525.05t.5.15l.125-1.1q.05-.45-.312-.775T12 3t-.837.325t-.313.775zM12 9q.425 0 .713-.288T13 8t-.288-.712T12 7t-.712.288T11 8t.288.713T12 9m0 13q0-1.85-.712-3.488T9.35 15.65t-2.863-1.937T3 13q0 1.85.713 3.488T5.65 19.35t2.863 1.938T12 22m-2.45-2.45q-1.425-.525-2.5-1.6t-1.6-2.5q1.425.525 2.5 1.6t1.6 2.5m0 0"/></svg>