<svg xmlns="http://www.w3.org/2000/svg" viewBox="0 0 24 24" width="24" height="24"><path fill="currentColor" d="M10 12q-1.65 0-2.825-1.175T6 8t1.175-2.825T10 4t2.825 1.175T14 8t-1.175 2.825T10 12m-8 8v-2.8q0-.825.425-1.55t1.175-1.1q1.275-.65 2.875-1.1T10 13h.35q.15 0 .3.05q-.2.45-.337.938T10.1 15H10q-1.775 0-3.187.45t-2.313.9q-.225.125-.363.35T4 17.2v.8h6.3q.15.525.4 1.038t.55.962zm14 1l-.3-1.5q-.3-.125-.562-.262T14.6 18.9l-1.45.45l-1-1.7l1.15-1q-.05-.35-.05-.65t.05-.65l-1.15-1l1-1.7l1.45.45q.275-.2.538-.337t.562-.263L16 11h2l.3 1.5q.3.125.563.275t.537.375l1.45-.5l1 1.75l-1.15 1q.05.3.05.625t-.05.625l1.15 1l-1 1.7l-1.45-.45q-.275.2-.537.338t-.563.262L18 21zm1-3q.825 0 1.413-.587T19 16t-.587-1.412T17 14t-1.412.588T15 16t.588 1.413T17 18m-7-8q.825 0 1.413-.587T12 8t-.587-1.412T10 6t-1.412.588T8 8t.588 1.413T10 10m.3 8"/></svg>