<svg xmlns="http://www.w3.org/2000/svg" viewBox="0 0 24 24" width="24" height="24"><path fill="currentColor" d="M12 14.3q1.35-1.25 2.1-2t1.175-1.25q.4-.5.563-.925T16 9.2q0-.9-.65-1.55T13.8 7q-.525 0-1.013.212T12 7.8q-.3-.375-.775-.587T10.2 7q-.9 0-1.55.65T8 9.2q0 .525.15.925t.55.9q.425.5 1.15 1.25T12 14.3m0 5.05q3.05-2.8 4.525-5.087T18 10.2q0-2.725-1.737-4.462T12 4T7.738 5.738T6 10.2q0 1.775 1.475 4.063T12 19.35M12 22q-4.025-3.425-6.012-6.362T4 10.2q0-3.75 2.413-5.975T12 2t5.588 2.225T20 10.2q0 2.5-1.987 5.438T12 22m0-12"/></svg>