<svg xmlns="http://www.w3.org/2000/svg" viewBox="0 0 24 24" width="24" height="24"><path fill="currentColor" d="M5 21q-.825 0-1.412-.587T3 19V5q0-.825.588-1.412T5 3h14q.825 0 1.413.588T21 5v14q0 .825-.587 1.413T19 21zm0-2h14V5H5zM5 5v14zm3 4q.425 0 .713-.288T9 8t-.288-.712T8 7t-.712.288T7 8t.288.713T8 9m4 0q.425 0 .713-.288T13 8t-.288-.712T12 7t-.712.288T11 8t.288.713T12 9m4 0q.425 0 .713-.288T17 8t-.288-.712T16 7t-.712.288T15 8t.288.713T16 9m0 4q.425 0 .713-.288T17 12t-.288-.712T16 11t-.712.288T15 12t.288.713T16 13m-4 0q.425 0 .713-.288T13 12t-.288-.712T12 11t-.712.288T11 12t.288.713T12 13m-4 0q.425 0 .713-.288T9 12t-.288-.712T8 11t-.712.288T7 12t.288.713T8 13"/></svg>