<svg xmlns="http://www.w3.org/2000/svg" viewBox="0 0 24 24" width="24" height="24"><path fill="currentColor" d="m8.075 11.8l5.25.575l.4-.85L12.2 10.7l-2.325-.2l.15-1.975l2.775.2l5.525 3.075q.425.25.888.313t.837-.213L15.15 7H8.925L7.3 4.6L4.55 5.975l1.9 4.575q.2.525.638.85t.987.4m-.225 1.975Q6.75 13.65 5.888 13T4.6 11.325L2 5l6-3l2 3h5.2q.4 0 .775.163t.65.437L23 12l-.85.85q-.95.95-2.275 1.138t-2.5-.463l-1.9-1.025l-.325.725q-.275.575-.825.888t-1.2.237zm-4.6 7.2L2.7 19.05l4.75-1.25q1.8-.475 3.825-.888t3.7-.412q1.875 0 3.488.75t3.187 2.025L20.3 20.75q-1.275-1.075-2.637-1.662t-2.688-.588q-1.6 0-3.525.413t-3.475.812z"/></svg>