<svg xmlns="http://www.w3.org/2000/svg" viewBox="0 0 24 24" width="24" height="24"><path fill="currentColor" d="M14 17v5h-2q-.825 0-1.412-.587T10 20v-4q0-1.275.475-2.363t1.275-1.887l1.075 1.075q-.625.625-.975 1.425T11.5 16v1zm-6 3H4q-.825 0-1.412-.587T2 18V4h2v14h4zm6.575-8.275l-1.15-1.15Q14 10.3 14.65 10.15T16 10q2.5 0 4.25 1.75T22 16v3.15l-1.5-1.5V16q0-1.875-1.312-3.188T16 11.5q-.375 0-.725.05t-.7.175M8 16.975q-1.275-.2-2.137-1.162T5 13.5q0-1.45 1.025-2.475T8.5 10q.475 0 .913.113t.812.337q-.35.375-.662.788T9 12.1q-.125-.05-.25-.075T8.5 12q-.625 0-1.062.438T7 13.5q0 .5.3.9t.775.525q-.05.275-.062.538T8 16zM6.85 4l-2-2H13q.825 0 1.413.588T15 4v4.05q-.525.05-1.025.188T13 8.575V4zM20.5 23.3L.7 3.5l1.4-1.4l19.8 19.8z"/></svg>