<svg xmlns="http://www.w3.org/2000/svg" viewBox="0 0 24 24" width="24" height="24"><path fill="currentColor" d="M12 19q-1.6 0-3.175-.125t-3.15-.375q-.725-.1-1.2-.663T4 16.525v-.65q-1.35-.35-2.175-1.425T1 12q0-1.35.825-2.425T4 8.15V7q0-.8.563-1.4T5.95 5q.725 0 1.45.137t1.475.188q.775.1 1.55.112T12 5.45q.775 0 1.55-.025t1.575-.1q.725-.05 1.438-.188T18 5q.825 0 1.413.588T20 7v1.15q1.325.35 2.163 1.425T23 12q0 1.375-.837 2.438T20 15.85v.65q0 .75-.488 1.313T18.3 18.5q-1.575.275-3.15.388T12 19m0-2q1.5 0 3-.125t3-.375l-.012.013L18 16.5V7q-1.5.225-3 .338t-3 .112q-1.525 0-3.025-.112T6 7q-.025 0-.012.013T6 7v9.5q1.5.25 2.988.375T12 17m0-1.5q1.075 0 2.138-.125t2.112-.4q.425-.125.625-.475t.075-.75t-.475-.612t-.75-.088q-.925.25-1.85.35T12 13.5t-1.888-.088t-1.862-.362q-.4-.125-.75.075t-.475.6t.088.75t.612.475q1.05.325 2.113.438T12 15.5m-8-1.775V10.3q-.475.275-.737.725T3 12q0 .55.263 1t.737.725m16 0q.45-.275.725-.725T21 12q0-.525-.275-.975T20 10.3zM12 11.5q1.075 0 2.138-.125t2.112-.4q.425-.125.625-.475t.075-.75t-.475-.612t-.75-.088q-.925.25-1.85.35T12 9.5t-1.888-.1t-1.862-.35q-.4-.125-.75.075t-.475.625q-.125.4.075.75t.625.475q1.05.275 2.112.4T12 11.5m-6 5.025V7z"/></svg>