<svg xmlns="http://www.w3.org/2000/svg" viewBox="0 0 24 24" width="24" height="24"><path fill="currentColor" d="M7 23q-.825 0-1.412-.587T5 21V3q0-.825.588-1.412T7 1h10q.825 0 1.413.588T19 3v3.1q.45.175.725.55T20 7.5v2q0 .475-.275.85T19 10.9V21q0 .825-.587 1.413T17 23zm0-2h10V3H7zm0 0V3zm4-5h2l.15-1.25q.2-.075.35-.162t.3-.238l1.15.5l1-1.75l-1-.75q.05-.2.05-.375t-.05-.375l1-.75l-1.05-1.7l-1.1.45q-.15-.125-.3-.2t-.35-.15L13 8h-2l-.15 1.25q-.2.075-.35.15t-.3.2l-1.1-.45l-1.05 1.7l1 .75q-.05.2-.05.375t.05.375l-1 .75l1 1.75l1.15-.5q.15.15.3.237t.35.163zm1-2.5q-.65 0-1.075-.425T10.5 12t.425-1.075T12 10.5t1.075.425T13.5 12t-.425 1.075T12 13.5"/></svg>