<svg xmlns="http://www.w3.org/2000/svg" viewBox="0 0 24 24" width="24" height="24"><path fill="currentColor" d="m21 18.2l-2-2V11q0-.825-.587-1.412T17 9v5.2l-2-2V7h2q1.65 0 2.825 1.175T21 11zM15.925 23q-.65 0-1.225-.262t-1-.738l-5.05-6.05l1.125-1.15q.45-.45 1.1-.562t1.225.187l4.65 2.325l3.875 3.9q-.475 1.05-1.45 1.7T17 23zm0-2H17q.25 0 .488-.05t.437-.175l-2.35-2.35L11.7 16.45l3.45 4.2q.15.175.35.262t.425.088M15 7V4H6.8L5.025 2.25q.225-.125.463-.187T6 2h9q.825 0 1.413.588T17 4v3zm6.9 14.9l-1.425 1.4L6 8.825V20h6.025l1.675 2H6q-.825 0-1.412-.587T4 20V6.825L.7 3.5l1.4-1.4zM10.5 7q.425 0 .713-.288T11.5 6t-.288-.712T10.5 5t-.712.288T9.5 6t.288.713T10.5 7"/></svg>