<svg xmlns="http://www.w3.org/2000/svg" viewBox="0 0 24 24" width="24" height="24"><path fill="currentColor" d="M6.925 16.875Q5.2 16.225 4.1 14.713T3 11.25q0-1.975.938-3.512T6 5.15t2.063-1.6L9 3v2.475q0 .625.45 1.063t1.075.437q.35 0 .65-.15t.5-.425L12 6q.95.55 1.625 1.35t1.025 1.8l-1.675 1.675q-.05-.6-.288-1.175T12.05 8.6q-.35.2-.737.288t-.788.087q-1.1 0-1.987-.612T7.25 6.724q-.95.925-1.6 2.063T5 11.25q0 .775.275 1.463t.75 1.212q.05-.5.288-.937T6.9 12.2L9 10.1l2.15 2.1q.05.05.1.125t.1.125l-1.425 1.425q-.05-.075-.088-.125t-.087-.1L9 12.925l-.7.7q-.125.125-.213.288T8 14.275q0 .3.175.538t.45.362zM7.4 22L6 20.6L19.6 7L21 8.4L17.4 12H21v2h-5.6l-.5.5l1.5 1.5H21v2h-2.6l2.1 2.1l-1.4 1.4l-2.1-2.1V22h-2v-4.6l-1.5-1.5l-.5.5V22h-2v-3.6z"/></svg>