<svg xmlns="http://www.w3.org/2000/svg" viewBox="0 0 24 24" width="24" height="24"><path fill="currentColor" d="m19.775 22.625l-18.4-18.4L2.8 2.8L12 12l9.2 9.2zm-.525-6.25l-1.525-1.525q.125-.45.2-.913T18 13q0-1.25-.462-2.363T16.2 8.65q-.5.325-1.05.488t-1.125.162q-1.55 0-2.688-1.025T10.026 5.75q-.2.15-.375.313t-.375.337L7.85 4.975q.875-.85 1.913-1.587T12 2v3.3q0 .85.588 1.425t1.437.575q.45 0 .838-.2t.687-.55L16 6q1.85 1.05 2.925 2.925T20 13q0 .9-.187 1.75t-.563 1.625M12 21q-3.35 0-5.675-2.325T4 13q0-1.725.637-3.363T6.475 6.5L7.9 7.925q-.95 1.25-1.425 2.525T6 13q0 1.3.525 2.463t1.5 2.037Q8 17.375 8 17.275v-.225q0-.8.3-1.5t.875-1.275l2.575-2.5l1.425 1.425l-2.6 2.5q-.275.275-.425.625t-.15.725q0 .8.588 1.375T12 19t1.413-.575T14 17.05q0-.4-.162-.725t-.438-.6l1.15-1.15l3.575 3.575Q17 19.475 15.438 20.238T12 21"/></svg>