<svg xmlns="http://www.w3.org/2000/svg" viewBox="0 0 24 24" width="24" height="24"><path fill="currentColor" d="M22 13.4q0 1.275-.8 1.938T19.425 16q-.15 0-.3-.012t-.3-.063l-7.35-7.375q.2-1.05.775-1.95t1.475-1.5q.15-.1.213-.262T14 4.475t-.162-.337T13.4 4q-.95 0-2.15.4T10 6.025q0 .4.125.775t.325.75L8.1 5.2q.325-1.35 1.663-2.275T13.4 2q1.275 0 1.938.763T16 4.475q0 .65-.288 1.275t-.887 1.025q-.55.35-.887.9t-.463 1.175l.3.15q.15.075.275.175l2.3-.85q.425-.15.813-.237T17.975 8Q20 8 21 9.675t1 3.725m-1.525 9.9l-4.55-4.575q-.325 1.35-1.662 2.313T10.6 22q-1.275 0-1.937-.763T8 19.5q0-.65.288-1.263t.887-1.012q.55-.35.888-.9t.462-1.175l-.3-.15q-.15-.075-.275-.175l-2.3.825q-.425.15-.825.25T6 16q-1.575 0-2.788-1.375T2 10.6q0-1.275.763-1.937T4.475 8q.2 0 .413.025T5.3 8.1L.675 3.5L2.1 2.075l19.8 19.8zm-1.05-9.3q.225 0 .4-.125T20 13.4q0-.95-.4-2.162T17.975 10q-.225 0-.425.038t-.375.112l-1.875.7q.05.15.088.313t.062.312q1.05.2 1.95.763t1.5 1.487q.075.125.225.2t.3.075M6 14q.25 0 .463-.062t.362-.113L8.7 13.15q-.05-.15-.088-.312t-.062-.313q-1.05-.2-1.912-.737T5.3 10.55q-.225-.35-.425-.45t-.4-.1q-.225 0-.35.15T4 10.6q0 1.35.513 2.375T6 14m4.6 6q1.55 0 2.5-.612T14 17.8q0-.25-.1-.65t-.35-.8l-.925-.925q-.275 1.05-.85 1.95t-1.5 1.525q-.125.075-.2.25T10 19.5q.05.225.188.363T10.6 20m.875-11.45"/></svg>