<svg xmlns="http://www.w3.org/2000/svg" viewBox="0 0 24 24" width="24" height="24"><path fill="currentColor" d="M12 2q2.9 0 4.95 2.05T19 9v3.1q-.5-.1-1-.1t-1 .1V11h-3.225L11 8.2V4.1q-.775.15-1.437.525t-1.188.925l-1.4-1.425q.95-.975 2.25-1.55T12 2M5.775 5.8L11 11H7v4q0 2.075 1.463 3.538T12 20q.275 0 .513-.025T13 19.9v2.025q-.25.05-.488.063T12 22q-2.9 0-4.95-2.05T5 15V9q0-.875.2-1.675T5.775 5.8M13 9h4q0-1.8-1.137-3.175T13 4.1zm7.475 14.3L.7 3.5l1.4-1.4l19.8 19.8zM15.85 22q-.35 0-.6-.25t-.25-.6V18q0-.425.288-.712T16 17h1l4 4v.15q0 .35-.25.6t-.6.25zM20 17.3l-1-1V16q0-.425-.288-.712T18 15h-.125q-.075 0-.125.025l-.75-.75q.225-.125.475-.2T18 14q.825 0 1.413.588T20 16z"/></svg>