<svg xmlns="http://www.w3.org/2000/svg" viewBox="0 0 24 24" width="24" height="24"><path fill="currentColor" d="M18.8 16L17 14.2l2.2-2.2L12 4.8L9.8 7L8 5.2l2.55-2.55q.6-.6 1.438-.613q.837-.012 1.437.588L21.4 10.6q.6.575.6 1.387q0 .813-.6 1.413Zm1.025 6.575L16.05 18.8l-2.65 2.6q-.6.575-1.4.588q-.8.012-1.4-.588l-7.975-7.975q-.6-.6-.6-1.4q0-.8.6-1.4l2.575-2.6L1.4 4.2l1.4-1.4l18.4 18.4Zm-15-10.55L12 19.2l2.25-2.2l-1.425-1.425L12 16.4l-4.375-4.375l.825-.825l-1.4-1.4l-2.225 2.225ZM15.6 12.8l-4.4-4.4l.8-.8l4.4 4.4Z"/></svg>