<svg xmlns="http://www.w3.org/2000/svg" viewBox="0 0 24 24" width="24" height="24"><path fill="currentColor" d="M5 22q-.825 0-1.412-.587T3 20h4.775q-2.35-1.175-3.812-3.437T2.5 11.5q0-1.975.75-3.7t2.038-3.012T8.3 2.75T12 2t3.7.75t3.013 2.038T20.75 7.8t.75 3.7q0 2.8-1.463 5.063T16.226 20H21q0 .825-.587 1.413T19 22zm7-3q3.125 0 5.313-2.187T19.5 11.5t-2.187-5.312T12 4T6.688 6.188T4.5 11.5t2.188 5.313T12 19m-4.7-4.125h3.8V13.9H8.775l-.025-.05q.5-.5.838-.825t.537-.525q.45-.45.688-.9t.237-.925q0-.675-.512-1.175T9.125 9q-.975 0-1.388.525t-.487.8l.975.4q.025-.05.2-.375t.675-.325q.575 0 .688.313t.112.387q0 .2-.075.413t-.45.637q-.225.25-.837.863L7.3 13.875zm7.05.125q1.125 0 1.763-.862T16.75 12t-.65-2.137T14.35 9q-1.125 0-1.762.863T11.95 12t.638 2.138T14.35 15m0-1.025q-.65 0-.975-.587T13.05 12q0-.6.275-1.287t1.025-.688t1.025.688T15.65 12q0 .8-.325 1.388t-.975.587M12 11.5"/></svg>