<svg xmlns="http://www.w3.org/2000/svg" viewBox="0 0 24 24" width="24" height="24"><path fill="currentColor" d="M6.625 13.9h.6v-3.8H6.8l-1.125.8l.325.475l.625-.45zm1.425.025h2.5v-.575H8.9v-.05l.975-1q.3-.3.45-.6t.15-.6q0-.5-.337-.8t-.863-.3q-.45 0-.775.225t-.45.625l.525.25q.1-.25.275-.375t.425-.125q.275 0 .438.138t.162.387q0 .3-.425.775l-1.4 1.45zm3.525-.025q.2 0 .325-.125t.125-.325t-.125-.325t-.325-.125t-.325.125t-.125.325t.125.325t.325.125m0-2.025q.2 0 .325-.125t.125-.325t-.125-.325t-.325-.125t-.325.125t-.125.325t.125.325t.325.125m2.3 2.125q.575 0 .925-.325t.35-.825q0-.35-.175-.587T14.5 11.9v-.025q.25-.125.388-.337t.137-.488q0-.425-.35-.737t-.85-.313q-.425 0-.737.213t-.463.587l.55.225q.1-.225.263-.337t.387-.113q.275 0 .425.138t.15.337q0 .25-.187.413t-.463.162h-.3v.575h.325q.35 0 .537.138t.188.412t-.2.463t-.5.187q-.275 0-.437-.15t-.263-.475l-.575.225q.15.475.5.738t.85.262M17 14q.55 0 .938-.375t.387-.925q0-.5-.325-.862t-.825-.363q-.05 0-.4.1l-.025-.025l.875-1.2l-.5-.35l-.975 1.4q-.3.425-.4.7t-.1.525q0 .575.388.975T17 14m-.025-.575q-.3 0-.513-.212t-.212-.513t.213-.512t.512-.213t.513.213t.212.512t-.213.513t-.512.212M12 22q-2.075 0-3.9-.788t-3.175-2.137T2.788 15.9T2 12t.788-3.9t2.137-3.175T8.1 2.788T12 2t3.9.788t3.175 2.137T21.213 8.1T22 12t-.788 3.9t-2.137 3.175t-3.175 2.138T12 22m0-2q3.325 0 5.663-2.337T20 12t-2.337-5.663T12 4T6.337 6.338T4 12t2.338 5.663T12 20"/></svg>