<svg xmlns="http://www.w3.org/2000/svg" viewBox="0 0 24 24" width="24" height="24"><path fill="currentColor" d="M9 21q-1.65 0-2.825-1.175T5 17V8q0-2.075 1.463-3.537T10 3h4q2.075 0 3.538 1.463T19 8v9q0 1.65-1.175 2.825T15 21zm0-2h6q.825 0 1.413-.587T17 17V8q0-1.25-.875-2.125T14 5h-4q-1.25 0-2.125.875T7 8v9q0 .825.588 1.413T9 19m0-6q.425 0 .713-.288T10 12t-.288-.712T9 11t-.712.288T8 12t.288.713T9 13m3 0q.425 0 .713-.288T13 12t-.288-.712T12 11t-.712.288T11 12t.288.713T12 13m3 0q.425 0 .713-.288T16 12t-.288-.712T15 11t-.712.288T14 12t.288.713T15 13m-3-1"/></svg>