<svg xmlns="http://www.w3.org/2000/svg" viewBox="0 0 24 24" width="24" height="24"><path fill="currentColor" d="M11.25 18h1.5v-2.175l1.7 1.725l1.075-1.075L12.75 13.7v-.95h.925l2.775 2.8l1.075-1.075L15.8 12.75H18v-1.5h-2.2l1.725-1.7l-1.075-1.075l-2.775 2.775h-.925v-.925l2.775-2.775l-1.075-1.075l-1.7 1.725V6h-1.5v2.2L9.525 6.475L8.45 7.55l2.8 2.775v.925h-.95L7.525 8.475L6.45 9.55l1.725 1.7H6v1.5h2.175L6.45 14.475l1.075 1.075l2.775-2.8h.95v.95l-2.8 2.775l1.075 1.075l1.725-1.725zm.75 4q-2.075 0-3.9-.788t-3.175-2.137T2.788 15.9T2 12t.788-3.9t2.137-3.175T8.1 2.788T12 2t3.9.788t3.175 2.137T21.213 8.1T22 12t-.788 3.9t-2.137 3.175t-3.175 2.138T12 22m0-2q3.35 0 5.675-2.325T20 12t-2.325-5.675T12 4T6.325 6.325T4 12t2.325 5.675T12 20m0-8"/></svg>