<svg xmlns="http://www.w3.org/2000/svg" viewBox="0 0 24 24" width="24" height="24"><path fill="currentColor" d="M12 17q.625 0 1.063-.437T13.5 15.5t-.437-1.062T12 14t-1.062.438T10.5 15.5t.438 1.063T12 17m-3 5q-1.925 0-3.1-1t-1.825-2.5q-.65-1.525-.862-3.25T3 12.025q0-2.55.388-4.413T4.8 4.476q1.025-1.25 2.75-1.862T12 2t4.45.613t2.75 1.862q1.025 1.275 1.413 3.138T21 12.025q0 1.5-.213 3.225t-.862 3.25Q19.275 20 18.1 21T15 22zm-.025-2h6q1.35 0 2.125-.875t1.2-2.15t.55-2.637t.125-2.313q0-2.125-.25-3.637T17.7 5.9q-.75-.975-2.113-1.437T11.975 4t-3.612.463T6.25 5.9q-.775.975-1.025 2.488t-.25 3.637q0 .95.125 2.313t.55 2.637t1.2 2.15T8.975 20m3-8"/></svg>