<svg xmlns="http://www.w3.org/2000/svg" viewBox="0 0 24 24" width="24" height="24"><path fill="currentColor" d="M9 7.925Q8 8.6 7.362 9.663T6.6 12L6 19h12l-.6-7q-.1-1.3-.737-2.363T15 7.9V10q0 1.25-.875 2.125T12 13t-2.125-.875T9 10zM12 11q.425 0 .713-.288T13 10V6q0-.425-.288-.712T12 5t-.712.288T11 6v4q0 .425.288.713T12 11M6 21q-.875 0-1.475-.65T4 18.825l.6-7.025q.175-2.125 1.375-3.75t3.05-2.425q.15-1.125.988-1.875T12 3t1.988.738t.987 1.862q1.85.8 3.063 2.438T19.4 11.8l.6 7.025q.075.875-.525 1.525T18 21z"/></svg>