<svg xmlns="http://www.w3.org/2000/svg" viewBox="0 0 24 24" width="24" height="24"><path fill="currentColor" d="m20 17.15l-2-2V10h-5.15l-2-2H15V6q0-1.25-.862-2.125T12.025 3t-2.1.863T9.075 6v.225L7.25 4.4q.55-1.525 1.875-2.463t2.9-.937Q14.1 1 15.55 2.463T17 6v2h1q.825 0 1.413.588T20 10zm.5 6.15l-1.55-1.55q-.275.125-.5.188T18 22H6q-.825 0-1.412-.587T4 20V10q0-.625.363-1.15T5.3 8.1L.7 3.5l1.4-1.4l19.8 19.8zM17.15 20l-3.675-3.725q-.275.275-.637.425t-.788.15q-.825 0-1.412-.587t-.588-1.413q0-.425.15-.787t.425-.638L7.15 10H6v10zm-1.725-7.425"/></svg>