<svg xmlns="http://www.w3.org/2000/svg" viewBox="0 0 24 24" width="24" height="24"><path fill="currentColor" d="M12 16q.425 0 .738-.312t.312-.738t-.312-.737T12 13.9t-.737.313t-.313.737t.313.738T12 16m-.75-3.1h1.5q0-.475.038-.75t.112-.45q.1-.2.288-.412t.612-.638q.525-.525.788-1.05t.262-1.05q0-1.175-.775-1.863T12 6q-1.025 0-1.8.575T9.15 8.1l1.35.55q.175-.575.575-.888T12 7.45q.6 0 .975.325t.375.825q0 .425-.188.738t-.662.712q-.425.35-.675.638t-.375.562q-.125.25-.162.613T11.25 12.9m.75 6.45q3.05-2.8 4.525-5.087T18 10.2q0-2.725-1.737-4.462T12 4T7.738 5.738T6 10.2q0 1.775 1.475 4.063T12 19.35M12 22q-4.025-3.425-6.012-6.362T4 10.2q0-3.75 2.413-5.975T12 2t5.588 2.225T20 10.2q0 2.5-1.987 5.438T12 22m0-12"/></svg>