<svg xmlns="http://www.w3.org/2000/svg" viewBox="0 0 24 24" width="24" height="24"><path fill="currentColor" d="M12 22q-.825 0-1.412-.587T10 20h4q0 .825-.587 1.413T12 22m-8-3v-2h2v-7q0-2.1 1.263-3.725t3.287-2.1q-.25.55-.387 1.15T9.975 6.55Q9.1 7.075 8.55 7.975T8 10v7h8v-3.05q.5.075 1 .075t1-.075V17h2v2zm12-7l-.3-1.5q-.3-.125-.562-.262T14.6 9.9l-1.45.45l-1-1.7l1.15-1q-.05-.325-.05-.65t.05-.65l-1.15-1l1-1.7l1.45.45q.275-.2.538-.338T15.7 3.5L16 2h2l.3 1.5q.3.125.563.263t.537.337l1.45-.45l1 1.7l-1.15 1q.05.325.05.65t-.05.65l1.15 1l-1 1.7l-1.45-.45q-.275.2-.537.338t-.563.262L18 12zm1-3q.825 0 1.413-.587T19 7t-.587-1.412T17 5t-1.412.588T15 7t.588 1.413T17 9"/></svg>