<svg xmlns="http://www.w3.org/2000/svg" viewBox="0 0 24 24" width="24" height="24"><path fill="currentColor" d="M16.25 13V7h1.5v6zm-2.75-1.5v-3H15v3zm5.5 0v-3h1.5v3zM4 19v-2h2v-7q0-.825.213-1.625T6.85 6.85l1.5 1.5q-.175.4-.262.813T8 10v7h6.2L1.4 4.2l1.4-1.4l18.4 18.4l-1.4 1.4l-3.65-3.6zM9.65 6.8L8.2 5.35q.5-.4 1.075-.7T10.5 4.2v-.7q0-.625.437-1.063T12 2t1.063.438T13.5 3.5v.7q.575.15 1.1.4t1 .6l-.312.175q-.313.175-.688.388t-.687.387l-.313.175q-.375-.175-.775-.25T12 6q-.65 0-1.25.2t-1.1.6M12 22q-.825 0-1.412-.587T10 20h4q0 .825-.587 1.413T12 22m.05-12.8"/></svg>