<svg xmlns="http://www.w3.org/2000/svg" viewBox="0 0 24 24" width="24" height="24"><path fill="currentColor" d="M4 21q-.425 0-.712-.288T3 20t.288-.712T4 19h1v-6H4q-.425 0-.712-.288T3 12t.288-.712T4 11h1V5H4q-.425 0-.712-.288T3 4t.288-.712T4 3h16q.425 0 .713.288T21 4t-.288.713T20 5h-1v6h1q.425 0 .713.288T21 12t-.288.713T20 13h-1v6h1q.425 0 .713.288T21 20t-.288.713T20 21zm3-2h10v-6q-.425 0-.712-.288T16 12t.288-.712T17 11V5H7v6q.425 0 .713.288T8 12t-.288.713T7 13zm5-3q1.25 0 2.125-.862T15 13.05q0-.975-.562-1.675T12 8.5q-1.875 2.15-2.437 2.863T9 13.05q0 1.225.875 2.088T12 16m-5 3V5z"/></svg>