<svg xmlns="http://www.w3.org/2000/svg" viewBox="0 0 24 24" width="24" height="24"><path fill="currentColor" d="M16 16q1.25 0 2.125.875T19 19t-.875 2.125T16 22q-.95 0-1.713-.55T13.2 20H6.85l-1 1.55q-.225.35-.637.438t-.763-.138t-.437-.638t.137-.762L8.1 14.4q-1.8-.825-2.95-2.537T4 8h14q0 2.15-1.15 3.863T13.9 14.4l.575.9q-.525.25-.862.5t-.738.7l-1-1.55q-.2.05-.425.05h-.9q-.225 0-.425-.05L8.15 18h5.05q.325-.9 1.088-1.45T16 16m0 4q.425 0 .713-.288T17 19t-.288-.712T16 18t-.712.288T15 19t.288.713T16 20m-5-7q1.5 0 2.738-.825T15.6 10H6.4q.65 1.35 1.875 2.175T11 13M8.4 7q.125-.725-.038-1.225t-.687-1.15q-.5-.65-.662-1.237T6.975 2h1q-.125.725.038 1.213T8.7 4.35t.675 1.238T9.4 7zm2.5 0q.125-.725-.025-1.225t-.675-1.15Q9.675 4 9.513 3.412T9.474 2h1q-.125.725.038 1.213T11.2 4.35q.5.625.663 1.213T11.9 7zm2.5 0q.125-.725-.025-1.225t-.675-1.15q-.525-.625-.687-1.213T11.974 2h1q-.125.725.038 1.213T13.7 4.35q.5.625.663 1.213T14.4 7zM11 13"/></svg>