<svg xmlns="http://www.w3.org/2000/svg" viewBox="0 0 24 24" width="24" height="24"><path fill="currentColor" d="M17.75 20.25q-1.575 0-2.662-1.088T14 16.5t1.088-2.662t2.662-1.088t2.663 1.088T21.5 16.5t-1.088 2.663t-2.662 1.087m0-2q.725 0 1.238-.513T19.5 16.5t-.513-1.237t-1.237-.513t-1.237.513T16 16.5t.513 1.238t1.237.512M4 17.5v-2h8v2zm2.25-6.25q-1.575 0-2.662-1.088T2.5 7.5t1.088-2.662T6.25 3.75t2.663 1.088T10 7.5t-1.088 2.663T6.25 11.25m0-2q.725 0 1.238-.513T8 7.5t-.513-1.237T6.25 5.75t-1.237.513T4.5 7.5t.513 1.238t1.237.512M12 8.5v-2h8v2zm-5.75-1"/></svg>