<svg xmlns="http://www.w3.org/2000/svg" viewBox="0 0 24 24" width="24" height="24"><path fill="currentColor" d="M15 11h1.5V9h2q.625 0 1.063-.437T20 7.5v-1q0-.625-.437-1.062T18.5 5H15zm1.5-3.5v-1h2v1zM13 14q-.825 0-1.412-.587T11 12V4q0-.825.588-1.412T13 2h8q.825 0 1.413.588T23 4v8q0 .825-.587 1.413T21 14h-3v7h-2v-7zm0-2h8V4h-8zm-5 9q-.425 0-.712-.288T7 20v-1H2v-2h6v-5H2v-2h5.2L6.15 7H2V5h4.5q.475 0 .863.275T7.9 6l2.1 6v8q0 .425-.288.713T9 21zm-2.5-5q.625 0 1.063-.437T7 14.5t-.437-1.062T5.5 13t-1.062.438T4 14.5t.438 1.063T5.5 16"/></svg>