<svg xmlns="http://www.w3.org/2000/svg" viewBox="0 0 24 24" width="24" height="24"><path fill="currentColor" d="M8 7q-.425 0-.712-.288T7 6t.288-.712T8 5h3V3q0-.425.288-.712T12 2t.713.288T13 3v2h3q.425 0 .713.288T17 6t-.288.713T16 7zm1 15q-.825 0-1.412-.587T7 20v-9q0-1.25.875-2.125T10 8h4q1.25 0 2.125.875T17 11v9q0 .825-.587 1.413T15 22zm0-2h6v-9q0-.425-.288-.712T14 10h-4q-.425 0-.712.288T9 11v1h2q.425 0 .713.288T12 13t-.288.713T11 14H9v2h2q.425 0 .713.288T12 17t-.288.713T11 18H9zm0 0V10z"/></svg>