<svg xmlns="http://www.w3.org/2000/svg" viewBox="0 0 24 24" width="24" height="24"><path fill="currentColor" d="M9 21H4q-.825 0-1.412-.587T2 19V7q0-.825.588-1.412T4 5h3.15L9 3h6l1.85 2H20q.825 0 1.413.588T22 7v12q0 .825-.587 1.413T20 21h-5v-2h5V7h-4.05l-1.825-2h-4.25L8.05 7H4v12h5zm2 0h2v-3.1q2.15-.35 3.575-2.012T18 12h-2q0 1.65-1.175 2.825T12 16t-2.825-1.175T8 12H6q0 2.225 1.425 3.888T11 17.9zm1-7q.825 0 1.413-.587T14 12V8q0-.825-.587-1.412T12 6t-1.412.588T10 8v4q0 .825.588 1.413T12 14m-8 5h16z"/></svg>