<svg xmlns="http://www.w3.org/2000/svg" viewBox="0 0 24 24" width="24" height="24"><path fill="currentColor" d="m19.8 22.7l-5.55-5.55q-2.225 1.8-4.837 2.825T4.05 21q-.6 0-.825-.3T3 19.95V15.9q0-.35.225-.612t.575-.338l3.45-.7q.275-.05.688.075t.612.325L10.9 17q.45-.275.975-.625t.925-.675L1.4 4.3l1.4-1.4l18.4 18.4zM9 17.9l-1.65-1.65l-2.35.5v2.2q1.025-.075 2.025-.35T9 17.9m8.05-3.6l-1.4-1.4q.375-.425.763-.975t.612-1.025L14.6 8.45q-.2-.2-.275-.562T14.3 7.3l.65-3.5q.075-.35.338-.575T15.9 3h4.05q.45 0 .75.3t.3.75q0 2.75-1.05 5.363t-2.9 4.887m.9-5.3q.425-.975.65-1.975T18.95 5h-2.2l-.45 2.35zM9 17.9"/></svg>