<svg xmlns="http://www.w3.org/2000/svg" viewBox="0 0 24 24" width="24" height="24"><path fill="currentColor" d="M4.05 21q-.45 0-.75-.3t-.3-.75V15.9q0-.325.225-.587t.575-.363l3.45-.7q.35-.05.713.063t.587.337L10.9 17q.95-.55 1.8-1.213t1.625-1.437q.825-.8 1.513-1.662t1.187-1.788L14.6 8.45q-.2-.2-.275-.475T14.3 7.3l.65-3.5q.05-.325.325-.562T15.9 3h4.05q.45 0 .75.3t.3.75q0 3.125-1.362 6.175t-3.863 5.55t-5.55 3.863T4.05 21m13.9-12q.425-.975.65-1.975T18.95 5h-2.2l-.45 2.35zM9 17.9l-1.65-1.65l-2.35.5v2.2q1.025-.075 2.025-.35T9 17.9m0 0"/></svg>