<svg xmlns="http://www.w3.org/2000/svg" viewBox="0 0 24 24" width="24" height="24"><path fill="currentColor" d="M14 15q.425 0 .738-.312t.312-.738t-.312-.737T14 12.9t-.737.313t-.313.737t.313.738T14 15m-.75-3.2h1.5q0-.725.15-1.062t.7-.888q.75-.75 1-1.212t.25-1.088q0-1.125-.788-1.837T14 5q-1.025 0-1.787.575T11.15 7.1l1.35.55q.225-.625.613-.937T14 6.4q.6 0 .975.338t.375.912q0 .35-.2.663t-.7.787q-.825.725-1.012 1.138T13.25 11.8M8 18q-.825 0-1.412-.587T6 16V4q0-.825.588-1.412T8 2h12q.825 0 1.413.588T22 4v12q0 .825-.587 1.413T20 18zm0-2h12V4H8zm-4 6q-.825 0-1.412-.587T2 20V6h2v14h14v2zM8 4v12z"/></svg>