<svg xmlns="http://www.w3.org/2000/svg" viewBox="0 0 24 24" width="24" height="24"><path fill="currentColor" d="M7.375 21.025q-.9-.025-1.713-.462t-1.537-1.288q-1-1.2-1.562-2.862T2 13q0-2.075.788-3.9t2.137-3.175T8.1 3.788T12 3t3.9.8t3.175 2.175T21.213 9.2T22 13.175q0 1.925-.625 3.6T19.6 19.6q-.7.7-1.475 1.063t-1.575.362q-.45 0-.9-.112t-.9-.338l-1.4-.7q-.3-.15-.638-.225T12 19.575t-.712.075t-.638.225l-1.4.7q-.475.25-.937.363t-.938.087m.05-2q.225 0 .463-.05t.462-.175l1.4-.7q.525-.275 1.088-.4t1.137-.125t1.15.125t1.1.4l1.425.7q.225.125.45.175t.45.05q.475 0 .9-.25t.85-.75q.8-.95 1.25-2.275t.45-2.725q0-3.35-2.325-5.687T12 5T6.325 7.35T4 13.05q0 1.425.462 2.775T5.75 18.1q.425.5.825.713t.85.212M12 15q.825 0 1.413-.588T14 13q0-.2-.038-.4t-.112-.4l1.25-1.675q.25.325.438.687t.312.788h2.05q-.375-2.2-2.037-3.6T12 7T8.125 8.413T6.1 12h2.05q.35-1.35 1.425-2.175T12 9q.425 0 .8.075t.725.225l-1.275 1.725q-.05 0-.125-.013T12 11q-.825 0-1.412.588T10 13t.588 1.413T12 15"/></svg>