<svg xmlns="http://www.w3.org/2000/svg" viewBox="0 0 24 24" width="24" height="24"><path fill="currentColor" d="M20.475 23.3L19 21.825q-.25.075-.488.125T18 22H6q-1.25 0-2.125-.875T3 19v-3h3V8.825L.675 3.5L2.1 2.075l19.8 19.8zM6 20h11.175l-2-2H5v1q0 .425.288.713T6 20m15-1.825l-2-2V5H7.825L6 3.175V2l1.5 1.5L9 2l1.5 1.5L12 2l1.5 1.5L15 2l1.5 1.5L18 2l1.5 1.5L21 2zM8 16h5.175L8 10.825zm3.875-7l-2-2H15v2zm3 3l-2-2H15v2zM17 12q-.425 0-.712-.288T16 11t.288-.712T17 10t.713.288T18 11t-.288.713T17 12m0-3q-.425 0-.712-.288T16 8t.288-.712T17 7t.713.288T18 8t-.288.713T17 9M5 20v-2z"/></svg>