<svg xmlns="http://www.w3.org/2000/svg" viewBox="0 0 24 24" width="24" height="24"><path fill="currentColor" d="M12 21q-.45 0-.862-.162t-.738-.488L4.075 14H6.9l4.925 4.925q.05.05.088.063T12 19t.088-.012t.087-.063l6.675-6.7q.575-.575.875-1.362t.3-1.613q-.05-1.725-1.15-2.963t-2.75-1.237q-.775 0-1.487.3t-1.238.875l-.675.725q-.125.15-.325.238t-.4.087t-.4-.087t-.35-.238l-.675-.725q-.525-.575-1.225-.9T7.85 5q-1.35 0-2.337.863T4.174 8h-2.05q.425-2.125 1.988-3.562T7.85 3q1.2 0 2.263.475T12 4.8q.8-.85 1.863-1.325T16.125 3q2.5 0 4.188 1.85T22 9.25q0 1.225-.425 2.35t-1.275 2l-6.725 6.75q-.325.325-.725.488T12 21m-.125-9H2v-2h13.875q.425 0 .713-.288T16.874 9t-.288-.712T15.875 8q-.35 0-.625.188t-.35.537L12.975 8.2q.275-.975 1.075-1.588T15.875 6q1.25 0 2.125.875T18.875 9T18 11.125T15.875 12H14.7q.075.25.125.488t.05.512q0 1.25-.875 2.125T11.875 16q-1.025 0-1.825-.612T8.975 13.8l1.925-.525q.075.35.35.538t.625.187q.425 0 .713-.288t.287-.712t-.288-.712t-.712-.288m.225 0"/></svg>