<svg xmlns="http://www.w3.org/2000/svg" viewBox="0 0 24 24" width="24" height="24"><path fill="currentColor" d="m8.6 22.5l-1.9-3.2l-3.6-.8l.35-3.7L1 12l2.45-2.8l-.35-3.7l3.6-.8l1.9-3.2L12 2.95l3.4-1.45l1.9 3.2l3.6.8l-.35 3.7L23 12l-2.45 2.8l.35 3.7l-3.6.8l-1.9 3.2l-3.4-1.45zm.85-2.55l2.55-1.1l2.6 1.1l1.4-2.4l2.75-.65l-.25-2.8l1.85-2.1l-1.85-2.15l.25-2.8l-2.75-.6l-1.45-2.4L12 5.15l-2.6-1.1L8 6.45l-2.75.6l.25 2.8L3.65 12l1.85 2.1l-.25 2.85l2.75.6zM12 17q.425 0 .713-.288T13 16t-.288-.712T12 15t-.712.288T11 16t.288.713T12 17m-1-4h2V7h-2z"/></svg>