<svg xmlns="http://www.w3.org/2000/svg" viewBox="0 0 24 24" width="24" height="24"><path fill="currentColor" d="M8 23q-.825 0-1.412-.587T6 21V3q0-.825.588-1.412T8 1h8q.825 0 1.413.588T18 3v18q0 .825-.587 1.413T16 23zm0-2h8V3H8zm4-11q1.25 0 2.125-.875T15 7t-.875-2.125T12 4t-2.125.875T9 7t.875 2.125T12 10m0-2q-.425 0-.712-.288T11 7t.288-.712T12 6t.713.288T13 7t-.288.713T12 8m-2 6q.425 0 .713-.288T11 13t-.288-.712T10 12t-.712.288T9 13t.288.713T10 14m4 0q.425 0 .713-.288T15 13t-.288-.712T14 12t-.712.288T13 13t.288.713T14 14m-4 3q.425 0 .713-.288T11 16t-.288-.712T10 15t-.712.288T9 16t.288.713T10 17m4 0q.425 0 .713-.288T15 16t-.288-.712T14 15t-.712.288T13 16t.288.713T14 17m-4 3q.425 0 .713-.288T11 19t-.288-.712T10 18t-.712.288T9 19t.288.713T10 20m4 0q.425 0 .713-.288T15 19t-.288-.712T14 18t-.712.288T13 19t.288.713T14 20m-6 1V3z"/></svg>