<svg xmlns="http://www.w3.org/2000/svg" viewBox="0 0 24 24" width="24" height="24"><path fill="currentColor" d="m22.65 17.225l-4.875-1.6l.65-1.925l4.875 1.625zM23 13h-4.625v-2H23zm.275-4.375l-4.9 1.65l-.6-1.925l4.9-1.625zM7.125 14q-1.3 0-2.212-.913T4 10.876q0-.65.25-1.213t.675-.987L7 6.575V2h2v5q0 .2-.088.388t-.212.337L6.325 10.1q-.15.15-.237.35T6 10.875q0 .45.338.788t.787.337q.3 0 .475-.1t.475-.35q.55-.45 1.088-.675t1.087-.225t1.088.225t1.087.675q.3.25.475.35t.475.1q.475 0 .8-.337t.325-.788q0-.225-.088-.437t-.237-.363L11.8 7.7q-.125-.15-.213-.325T11.5 7V2h2v4.55l2.1 2.1q.425.425.663 1t.237 1.225q0 1.3-.9 2.213T13.375 14q-.825 0-1.338-.312t-.862-.613q-.375-.3-.587-.362t-.338-.063q-.225 0-.462.15t-.438.275q-.35.3-.862.613T7.124 14m4.375 8v-4.75q0-.2.088-.387t.212-.338l2.375-2.375q.15-.15.238-.35t.087-.425q0-.25-.087-.45t-.238-.35L15.6 11.15q.425.425.663 1t.237 1.225t-.237 1.2t-.663.975l-2.1 2.1V22zM7 22v-4.35l-2.075-2.1q-.425-.425-.675-.975t-.25-1.2t.25-1.225t.675-1l1.425 1.425q-.175.15-.262.35t-.088.45q0 .225.087.425t.238.35L8.7 16.525q.125.15.213.338T9 17.25V22zm3.25-14.3"/></svg>