<svg xmlns="http://www.w3.org/2000/svg" viewBox="0 0 24 24" width="24" height="24"><path fill="currentColor" d="M5 21q-.825 0-1.412-.587T3 19V5q0-.825.588-1.412T5 3h12l4 4v5.3q-.475-.2-.987-.262T19 12.05V7.825L16.175 5H5v14h6v2zM5 5v14zm8 18v-3.075l5.525-5.5q.225-.225.5-.325t.55-.1q.3 0 .575.113t.5.337l.925.925q.2.225.313.5t.112.55t-.1.563t-.325.512l-5.5 5.5zm7.5-6.575l-.925-.925zm-6 5.075h.95l3.025-3.05l-.45-.475l-.475-.45l-3.05 3.025zm3.525-3.525l-.475-.45l.925.925zM6 10h9V6H6zm6 8h.1l2.9-2.875V15q0-1.25-.875-2.125T12 12t-2.125.875T9 15t.875 2.125T12 18"/></svg>