<svg xmlns="http://www.w3.org/2000/svg" viewBox="0 0 24 24" width="24" height="24"><path fill="currentColor" d="M17 21q-1.65 0-2.825-1.175T13 17t1.175-2.825T17 13t2.825 1.175T21 17t-1.175 2.825T17 21m0-2q.825 0 1.413-.587T19 17t-.587-1.412T17 15t-1.412.588T15 17t.588 1.413T17 19M7 18q-1.65 0-2.825-1.175T3 14t1.175-2.825T7 10t2.825 1.175T11 14t-1.175 2.825T7 18m0-2q.825 0 1.412-.587T9 14t-.587-1.412T7 12t-1.412.588T5 14t.588 1.413T7 16m4-6q-1.65 0-2.825-1.175T7 6t1.175-2.825T11 2t2.825 1.175T15 6t-1.175 2.825T11 10m0-2q.825 0 1.413-.587T13 6t-.587-1.412T11 4t-1.412.588T9 6t.588 1.413T11 8m0-2"/></svg>