<svg xmlns="http://www.w3.org/2000/svg" viewBox="0 0 24 24" width="24" height="24"><path fill="currentColor" d="M20 22V7q0-.825-.587-1.412T18 5h-1v1.3q0 .3-.2.5t-.5.2h-5.6q-.35 0-.562-.375T10.1 5.9L12 1.8q.175-.375.513-.588T13.3 1h2.3q.6 0 1 .45T17 2.5V3h1q1.65 0 2.825 1.175T22 7v15zM12.7 5H15V3h-1.4zM5 22q-1.275 0-2.137-.862T2 19v-2.5q0-.825.55-1.537T4 14.1V12q0-.825.588-1.412T6 10h8q.825 0 1.413.588T16 12v2.1q.9.15 1.45.825T18 16.5V19q0 1.275-.862 2.138T15 22zm1-10v2.5q.45.375.725.888T7 16.5v.5h6v-.5q0-.6.275-1.112T14 14.5V12zm-1 8h10q.45 0 .725-.312T16 19v-2.5q0-.225-.137-.363T15.5 16t-.363.138T15 16.5V19H5v-2.5q0-.225-.137-.363T4.5 16t-.363.138T4 16.5V19q0 .375.275.688T5 20m8-3H7zm-7-5h8zm-1 8h10z"/></svg>