<svg xmlns="http://www.w3.org/2000/svg" viewBox="0 0 24 24" width="24" height="24"><path fill="currentColor" d="M15.5 15q-.425 0-.712-.288T14.5 14v-4q0-.425.288-.712T15.5 9H18q.425 0 .713.288T19 10v4q0 .425-.288.713T18 15zm.5-1.5h1.5v-3H16zM5 15v-2.5q0-.425.288-.712T6 11.5h2v-1H5V9h3.5q.425 0 .713.288T9.5 10v1.5q0 .425-.288.713T8.5 12.5h-2v1h3V15zm6.25-4V9.5h1.5V11zm0 3.5V13h1.5v1.5zM4 20q-.825 0-1.412-.587T2 18V6q0-.825.588-1.412T4 4h3V2h2v2h6V2h2v2h3q.825 0 1.413.588T22 6v12q0 .825-.587 1.413T20 20zm0-2h7.25v-1.5h1.5V18H20V6h-7.25v1.5h-1.5V6H4zm0 0V6z"/></svg>