<svg xmlns="http://www.w3.org/2000/svg" viewBox="0 0 24 24" width="24" height="24"><path fill="currentColor" d="M12 11q-1.25 0-2.125-.875T9 8t.875-2.125T12 5t2.125.875T15 8t-.875 2.125T12 11m0-2q.425 0 .713-.288T13 8t-.288-.712T12 7t-.712.288T11 8t.288.713T12 9m-6 8v-1.9q0-.525.263-.987t.712-.738q1.125-.65 2.375-1.012T12 12t2.65.363t2.375 1.012q.45.275.713.738T18 15.1V17zm6-3q-1.025 0-2 .25T8.15 15h7.7q-.875-.5-1.85-.75T12 14m9.225-5.85q-.775-1.825-2.162-3.213T15.85 2.775l.775-1.85q2.2.9 3.863 2.575t2.587 3.875zm-18.45 0l-1.85-.775q.925-2.2 2.588-3.863T7.375.925l.775 1.85q-1.825.775-3.213 2.163T2.776 8.15m4.6 14.925q-2.2-.9-3.862-2.575T.925 16.625l1.85-.775q.775 1.825 2.163 3.213t3.212 2.162zm9.25 0l-.775-1.85q1.825-.775 3.213-2.162t2.162-3.213l1.85.775q-.9 2.2-2.575 3.863t-3.875 2.587M12 15h3.85h-7.7z"/></svg>