<svg xmlns="http://www.w3.org/2000/svg" viewBox="0 0 24 24" width="24" height="24"><path fill="currentColor" d="M6.25 16h1.5v-.25q0-1.775 1.238-3.012T12 11.5t3.013 1.238t1.237 3.012V16h1.5v-.25q0-2.4-1.675-4.075T12 10t-4.075 1.675T6.25 15.75zm.85-6.75q1.025-.15 2.163-.8t1.812-1.475l-1.15-.95q-.5.6-1.388 1.1T6.9 7.75zm9.8 0l.2-1.5q-.75-.125-1.638-.625t-1.387-1.1l-1.15.95q.675.825 1.813 1.475t2.162.8M12 22q-2.075 0-3.9-.788t-3.175-2.137T2.788 15.9T2 12t.788-3.9t2.137-3.175T8.1 2.788T12 2t3.9.788t3.175 2.137T21.213 8.1T22 12t-.788 3.9t-2.137 3.175t-3.175 2.138T12 22m0-2q3.35 0 5.675-2.325T20 12t-2.325-5.675T12 4T6.325 6.325T4 12t2.325 5.675T12 20"/></svg>