<svg xmlns="http://www.w3.org/2000/svg" viewBox="0 0 24 24" width="24" height="24"><path fill="currentColor" d="M9.775 18q.425 0 .813-.15t.762-.35q.15-.1.313-.175T12 17.25q.2 0 .65.25q.375.2.763.35t.812.15q1.25 0 2.013-.888T17 14.75q0-1.8-1.237-2.775T12.2 11h-.4q-2.325 0-3.562.975T7 14.75q0 1.475.763 2.363T9.775 18m-.025-1.5q-.6 0-.937-.462t-.338-1.288q0-1.15.813-1.7t2.512-.55h.375q1.7 0 2.5.55t.8 1.7q0 .825-.325 1.288t-.925.462q-.3 0-.85-.3q-.325-.2-.662-.325T12 15.75t-.725.125t-.675.325q-.2.125-.412.213t-.438.087m-3.475-5.8q1.5-.6 2.4-1.325t1.7-1.975l-1.25-.8q-.65 1.025-1.362 1.575T5.7 9.3zm11.425 0l.575-1.4q-1.325-.55-2.025-1.1t-1.375-1.6l-1.25.8q.8 1.25 1.7 1.963T17.7 10.7M12 22q-2.075 0-3.9-.788t-3.175-2.137T2.788 15.9T2 12t.788-3.9t2.137-3.175T8.1 2.788T12 2t3.9.788t3.175 2.137T21.213 8.1T22 12t-.788 3.9t-2.137 3.175t-3.175 2.138T12 22m0-2q3.35 0 5.675-2.325T20 12t-2.325-5.675T12 4T6.325 6.325T4 12t2.325 5.675T12 20"/></svg>