<svg xmlns="http://www.w3.org/2000/svg" viewBox="0 0 24 24" width="24" height="24"><path fill="currentColor" d="M15 21h6v-.825q-.625-.575-1.4-.875T18 19t-1.6.3t-1.4.875zm3-3q.625 0 1.063-.437T19.5 16.5t-.437-1.062T18 15t-1.062.438T16.5 16.5t.438 1.063T18 18m-5.95-9.5q-1.45 0-2.475 1.025T8.55 12q0 1.2.675 2.1T11 15.35q0-.575.013-1.1t.212-.95q-.35-.2-.512-.55T10.55 12q0-.625.438-1.062t1.062-.438q.375 0 .713.188t.562.512q.275-.125.575-.175t.6-.05h.9Q15.075 9.9 14.163 9.2t-2.113-.7M9.25 22l-.4-3.2q-.325-.125-.612-.3t-.563-.375L4.7 19.375l-2.75-4.75l2.575-1.95Q4.5 12.5 4.5 12.338v-.675q0-.163.025-.338L1.95 9.375l2.75-4.75l2.975 1.25q.275-.2.575-.375t.6-.3l.4-3.2h5.5l.4 3.2q.325.125.613.3t.562.375l2.975-1.25l2.75 4.75L19.925 11H17.4q-.025-.125-.05-.262t-.075-.263l2.15-1.625l-.975-1.7l-2.475 1.05q-.55-.575-1.213-.962t-1.437-.588L13 4h-1.975l-.35 2.65q-.775.2-1.437.588t-1.213.937L5.55 7.15l-.975 1.7l2.15 1.6q-.125.375-.175.75t-.05.8q0 .4.05.775t.175.75l-2.15 1.625l.975 1.7l2.475-1.05q.6.625 1.35 1.05T11 17.4V22zm5.25 1q-.625 0-1.062-.437T13 21.5v-7q0-.625.438-1.062T14.5 13h7q.625 0 1.063.438T23 14.5v7q0 .625-.437 1.063T21.5 23z"/></svg>