<svg xmlns="http://www.w3.org/2000/svg" viewBox="0 0 24 24" width="24" height="24"><path fill="currentColor" d="M16.2 21.9q-1.6-.25-2.738-1.4t-1.387-2.75h1.475q.225 1 .938 1.713t1.712.937zm1.5.025V20.4q1.2-.275 1.975-1.2t.775-2.2t-.775-2.2t-1.975-1.2v-1.525q1.8.275 3.025 1.663T21.95 17t-1.225 3.263t-3.025 1.662m-5.625-5.675q.25-1.6 1.388-2.75t2.737-1.4v1.5q-1 .225-1.713.938t-.937 1.712zM15.95 19v-4l3.1 2zm-6.7 3l-.4-3.2q-.325-.125-.612-.3t-.563-.375L4.7 19.375l-2.75-4.75l2.575-1.95Q4.5 12.5 4.5 12.338v-.675q0-.163.025-.338L1.95 9.375l2.75-4.75l2.975 1.25q.275-.2.575-.375t.6-.3l.4-3.2h5.5l.4 3.2q.325.125.613.3t.562.375l2.975-1.25l2.75 4.75l-1.85 1.4q-.55-.275-1.125-.462t-1.225-.263l1.575-1.2l-.975-1.7l-2.475 1.05q-.55-.575-1.213-.962t-1.437-.588L13 4h-1.975l-.35 2.65q-.775.2-1.437.588t-1.213.937L5.55 7.15l-.975 1.7l2.15 1.6q-.125.375-.175.75t-.05.8q0 .4.05.775t.175.75l-2.15 1.625l.975 1.7l2.475-1.05q.425.425.913.763t1.062.562q.025 1.425.588 2.675T12.1 22zm1.025-6.975q.15-.5.363-.963t.487-.887q-.275-.2-.425-.513T10.55 12q0-.625.437-1.062t1.063-.438q.35 0 .675.163t.525.437q.425-.275.875-.488t.95-.337q-.45-.8-1.25-1.288T12.05 8.5q-1.475 0-2.488 1.025T8.55 12q0 .95.463 1.763t1.262 1.262"/></svg>