<svg xmlns="http://www.w3.org/2000/svg" viewBox="0 0 24 24" width="24" height="24"><path fill="currentColor" d="m12.05 16l3.5-3.5q.425-.425.55-1.037t-.125-1.188t-.75-.925T14.1 9t-1.125.388t-.925.812q-.45-.425-.937-.812T10 9t-1.137.338t-.763.912t-.112 1.188t.562 1.062zm-2.8 6l-.4-3.2q-.325-.125-.612-.3t-.563-.375L4.7 19.375l-2.75-4.75l2.575-1.95Q4.5 12.5 4.5 12.338v-.675q0-.163.025-.338L1.95 9.375l2.75-4.75l2.975 1.25q.275-.2.575-.375t.6-.3l.4-3.2h5.5l.4 3.2q.325.125.613.3t.562.375l2.975-1.25l2.75 4.75l-2.575 1.95q.025.175.025.338v.674q0 .163-.05.338l2.575 1.95l-2.75 4.75l-2.95-1.25q-.275.2-.575.375t-.6.3l-.4 3.2zM11 20h1.975l.35-2.65q.775-.2 1.438-.587t1.212-.938l2.475 1.025l.975-1.7l-2.15-1.625q.125-.35.175-.737T17.5 12t-.05-.787t-.175-.738l2.15-1.625l-.975-1.7l-2.475 1.05q-.55-.575-1.212-.962t-1.438-.588L13 4h-1.975l-.35 2.65q-.775.2-1.437.588t-1.213.937L5.55 7.15l-.975 1.7l2.15 1.6q-.125.375-.175.75t-.05.8q0 .4.05.775t.175.75l-2.15 1.625l.975 1.7l2.475-1.05q.55.575 1.213.963t1.437.587zm1-8"/></svg>