<svg xmlns="http://www.w3.org/2000/svg" viewBox="0 0 24 24" width="24" height="24"><path fill="currentColor" d="M20 22h-6q-.425 0-.712-.288T13 21v-6q0-.425.288-.712T14 14h6q.425 0 .713.288T21 15v2l2-2v6l-2-2v2q0 .425-.288.713T20 22M12.05 8.5q-1.45 0-2.475 1.025T8.55 12q0 1.2.675 2.1T11 15.35V13.1q-.2-.2-.325-.513T10.55 12q0-.625.438-1.062t1.062-.438t1.05.438t.425 1.062h2.025q0-1.45-1.025-2.475T12.05 8.5M9.25 22l-.4-3.2q-.325-.125-.612-.3t-.563-.375L4.7 19.375l-2.75-4.75l2.575-1.95Q4.5 12.5 4.5 12.338v-.675q0-.163.025-.338L1.95 9.375l2.75-4.75l2.975 1.25q.275-.2.575-.375t.6-.3l.4-3.2h5.5l.4 3.2q.325.125.613.3t.562.375l2.975-1.25l2.75 4.75l-2.575 1.95q.025.175.025.338V12h-2q-.025-.475-.075-.837t-.15-.688l2.15-1.625l-.975-1.7l-2.475 1.05q-.55-.575-1.213-.962t-1.437-.588L13 4h-1.975l-.35 2.65q-.775.2-1.437.588t-1.213.937L5.55 7.15l-.975 1.7l2.15 1.6q-.125.375-.175.75t-.05.8q0 .4.05.775t.175.75l-2.15 1.625l.975 1.7l2.475-1.05q.6.625 1.35 1.05T11 17.4V22z"/></svg>