<svg xmlns="http://www.w3.org/2000/svg" viewBox="0 0 24 24" width="24" height="24"><path fill="currentColor" d="M17 20q.425 0 .713-.288T18 19t-.288-.712T17 18t-.712.288T16 19t.288.713T17 20m0-14q.425 0 .713-.288T18 5t-.288-.712T17 4t-.712.288T16 5t.288.713T17 6M2 12.25V12q0-1.25.875-2.125T5 9q.6 0 1.125.213t.925.587l7.025-4.1q-.05-.175-.062-.337T14 5q0-1.25.875-2.125T17 2t2.125.875T20 5t-.875 2.125T17 8q-.6 0-1.125-.213T14.95 7.2l-7 4.075q-.475-.125-.962-.2T6 11q-1.125 0-2.137.325T2 12.25M17 22q-1.25 0-2.125-.875T14 19q0-.15.075-.7L13 17.65q-.05-.6-.175-1.162t-.35-1.113L14.95 16.8q.4-.375.925-.587T17 16q1.25 0 2.125.875T20 19t-.875 2.125T17 22M6 23q-2.075 0-3.537-1.462T1 18t1.463-3.537T6 13t3.538 1.463T11 18t-1.463 3.538T6 23m0-4.3l1.75 1.775l.725-.7L6.7 18l1.775-1.775l-.7-.7L6 17.3l-1.775-1.775l-.7.7L5.3 18l-1.775 1.775l.7.7zM17 5"/></svg>