<svg xmlns="http://www.w3.org/2000/svg" viewBox="0 0 24 24" width="24" height="24"><path fill="currentColor" d="M12 22q-3.475-.875-5.738-3.988T4 11.1V5l8-3l8 3v6.1q0 .25-.012.5t-.038.5q-.225-.05-.462-.075T19 12q-.275 0-.525.025t-.525.075q.025-.25.038-.487T18 11.1V6.375l-6-2.25l-6 2.25V11.1q0 3.025 1.7 5.5t4.3 3.3q.525-.175 1.025-.425T14 18.9v2.35q-.475.25-.975.438T12 22m4.85 0q-.35 0-.6-.25t-.25-.6v-3.3q0-.35.25-.6t.6-.25H17v-1q0-.825.588-1.412T19 14t1.413.588T21 16v1h.15q.35 0 .6.25t.25.6v3.3q0 .35-.25.6t-.6.25zM18 17h2v-1q0-.425-.288-.712T19 15t-.712.288T18 16z"/></svg>