<svg xmlns="http://www.w3.org/2000/svg" viewBox="0 0 24 24" width="24" height="24"><path fill="currentColor" d="M12 22q-3.475-.875-5.738-3.988T4 11.1V5l8-3l8 3v3h-2V6.375l-6-2.25l-6 2.25V11.1q0 3.025 1.7 5.5t4.3 3.3q.175-.05.325-.1t.3-.125q.3.425.675.813t.8.712q-.5.275-1.025.475T12 22m4 0l-.575-2.3q-.9-.65-1.412-1.612T13.5 16t.513-2.087t1.412-1.613L16 10h4l.575 2.3q.9.65 1.413 1.613T22.5 16t-.513 2.088t-1.412 1.612L20 22zm2-3.5q1.05 0 1.775-.725T20.5 16t-.725-1.775T18 13.5t-1.775.725T15.5 16t.725 1.775T18 18.5"/></svg>