<svg xmlns="http://www.w3.org/2000/svg" viewBox="0 0 24 24" width="24" height="24"><path fill="currentColor" d="M8 18q-.425 0-.712-.288T7 17t.288-.712T8 16t.713.288T9 17t-.288.713T8 18m4 0q-.425 0-.712-.288T11 17t.288-.712T12 16t.713.288T13 17t-.288.713T12 18m4 0q-.425 0-.712-.288T15 17t.288-.712T16 16t.713.288T17 17t-.288.713T16 18M5 14v-2q0-2.65 1.7-4.6T11 5.1V3h2v2.1q2.6.35 4.3 2.3T19 12v2zm2-2h10q0-2.075-1.463-3.537T12 7T8.463 8.463T7 12m1 9q-.425 0-.712-.288T7 20t.288-.712T8 19t.713.288T9 20t-.288.713T8 21m4 0q-.425 0-.712-.288T11 20t.288-.712T12 19t.713.288T13 20t-.288.713T12 21m4 0q-.425 0-.712-.288T15 20t.288-.712T16 19t.713.288T17 20t-.288.713T16 21m-4-9"/></svg>