<svg xmlns="http://www.w3.org/2000/svg" viewBox="0 0 24 24" width="24" height="24"><path fill="currentColor" d="M18 23v-3h-3v-2h3v-3h2v3h3v2h-3v3zM9 3V1h6v2zm3 19q-1.875 0-3.512-.712t-2.85-1.925t-1.925-2.85T3 13t.713-3.512t1.924-2.85t2.85-1.925T12 4q1.6 0 3.025.525t2.6 1.45L19.05 4.55l1.4 1.4l-1.4 1.45q.975 1.225 1.488 2.725t.462 3.2q-.35-.1-.775-.225T19 12.975q0-.25-.012-.487T18.925 12H14.9l-4.5 7.825q.4.1.788.138T12 20q.275 0 .525-.012t.525-.063q.075.5.238 1t.412.925q-.425.075-.85.113T12 22m0-11h6.7q-.45-1.55-1.537-2.725T14.6 6.5zm-1.75 1l3.35-5.8q-.4-.1-.812-.15T11.95 6q-1.125 0-2.225.363T7.65 7.5zM5.1 14h5.15L6.9 8.2q-1.05 1.175-1.562 2.663T5.1 14m4.3 5.5L12 15H5.3q.45 1.55 1.538 2.725T9.4 19.5m9.6-6.525"/></svg>