<svg xmlns="http://www.w3.org/2000/svg" viewBox="0 0 24 24" width="24" height="24"><path fill="currentColor" d="M2.175 10.1q.65-3.5 3.388-5.8T12 2q1.85 0 3.488.6t2.937 1.7q-.35.65-.562 1.113t-.288.862q-1.1-1.05-2.525-1.662T12 4Q9.475 4 7.475 5.413t-2.9 3.612Q3.9 9 3.263 9.275t-1.088.825M12 22q-3.7 0-6.437-2.3t-3.388-5.8q.425.55 1.063.838T4.575 15q.9 2.2 2.9 3.6T12 20q3.325 0 5.663-2.337T20 12q0-.425-.038-.85t-.137-.85q.275.1.563.15t.612.05q.225 0 .45-.025t.425-.075q.05.4.088.788T22 12q0 2.075-.788 3.9t-2.137 3.175t-3.175 2.138T12 22M8.4 11.6l2.1-2.1l-2.125-2.125l-1.05 1.05L8.4 9.475L7.325 10.55zM21 9q-.825 0-1.412-.587T19 7q0-.675.375-1.437T21 3q1.25 1.8 1.625 2.563T23 7q0 .825-.587 1.413T21 9m-5.375 2.625L16.7 10.55l-1.075-1.075l1.05-1.05l-1.05-1.05L13.5 9.5zM12 13.5q-.65 0-1.263.15t-1.162.425L6 12q0-.4-.2-.75t-.55-.55q-.55-.3-1.137-.137t-.913.687q-.3.55-.137 1.138t.687.912q.35.2.75.2t.75-.2l2.975 1.725q-.425.425-.763.913T6.9 17h1.65q.525-.9 1.425-1.45T12 15t2.025.55T15.45 17h1.65q-.6-1.55-1.963-2.525T12 13.5m0-1.5"/></svg>