<svg xmlns="http://www.w3.org/2000/svg" viewBox="0 0 24 24" width="24" height="24"><path fill="currentColor" d="m13.175 8l-5.6-4.175q-.35-.25-.4-.65t.2-.75t.65-.412t.75.187l5.6 4.2zM9.35 6.4l-.9.925q-.125.125-.237.263T8 7.875l-1.425-1.05q-.35-.25-.4-.65t.2-.75t.65-.4t.75.2zm9.225 1.875l-7.6-5.675q-.35-.25-.412-.65t.187-.75t.65-.4t.75.2l4.9 3.65l.225-1.725q.075-.6.475-1.025t.975-.525l1-.15l2.35 7.9q.2.675.075 1.375t-.55 1.275L19.475 14.6q-.05-.6-.262-1.162t-.563-1.063l1.35-1.8q.15-.2.175-.425t-.025-.45l-1.2-4.075zm-11.825 2.4l-.35-.25q-.35-.25-.412-.65t.187-.75t.65-.4t.75.2l.025.025q-.125.45-.087.913t.187.912zM2 17q-.425 0-.712-.288T1 16t.288-.712T2 15h7v2zm1 3q-.425 0-.712-.288T2 19t.288-.712T3 18h6v2zm2 3q-.425 0-.712-.288T4 22t.288-.712T5 21h10q.425 0 .713-.288T16 20v-5q0-.25-.1-.45t-.3-.35l-3.4-2.55L13.5 14H4q-.425 0-.712-.288T3 13t.288-.712T4 12h6.1l-.85-1.5q-.3-.525-.237-1.112T9.5 8.375l.7-.7l6.6 4.925q.575.425.888 1.05T18 15v5q0 1.25-.875 2.125T15 23zm7.025-5.575"/></svg>