<svg xmlns="http://www.w3.org/2000/svg" viewBox="0 0 24 24" width="24" height="24"><path fill="currentColor" d="M8 13h2v-3q0-.825.588-1.412T12 8V6q-1.65 0-2.825 1.175T8 10zm-4 8q-.825 0-1.412-.587T2 19v-2q0-.825.588-1.412T4 15h1v-5q0-2.925 2.038-4.962T12 3t4.963 2.038T19 10v1.075q-.25-.05-.488-.062T18 11t-.513.013t-.487.062V10q0-2.075-1.463-3.537T12 5T8.463 6.463T7 10v5h4.675q-.225.475-.375.975T11.075 17H4v2h7.075q.075.525.225 1.025t.375.975zm14 2q-2.075 0-3.537-1.463T13 18t1.463-3.537T18 13t3.538 1.463T23 18t-1.463 3.538T18 23m-.725-2.75l3.475-3.45l-1.05-1.05l-2.425 2.375l-.975-.975l-1.05 1.075z"/></svg>