<svg xmlns="http://www.w3.org/2000/svg" viewBox="0 0 24 24" width="24" height="24"><path fill="currentColor" d="M8 20H2q-.95 0-1.475-.625T0 18q0-.5.25-.975t.8-.775l3.5-1.9L0 13l2-4l9 1l3.05-2.275l-.8-.725H11V5h3.05l7.125 6.625q.475.425.65.838t.175.787q0 1.075-.825 1.913t-2.5.837l2.15 2H21q.425 0 .713-.288T22 17h2q0 1.25-.875 2.125T21 20h-6v-2h2.925l-2-2H12q0 1.65-1.175 2.825T8 20m-6-2h6q.825 0 1.413-.587T10 16l-2.75-.825zm8.3-4h8.275q.675 0 1.05-.162T20 13.25L15.525 9.1l-3.95 2.975l-8.425-.925l-.3.6zm1.125-2.45"/></svg>