<svg xmlns="http://www.w3.org/2000/svg" viewBox="0 0 24 24" width="24" height="24"><path fill="currentColor" d="M19.55 9.45q-.775-2.175-2.525-3.637T13 4.05v1.6zM8 13.15l3-1.75V4.05q-.8.075-1.55.363T8 5.1zM4.65 15.1L6 14.3V6.75q-.975 1.1-1.487 2.45T4 12q0 .8.163 1.588T4.65 15.1M8 18.9l7-4l-3-1.75l-6.35 3.7q.5.625 1.075 1.15T8 18.9m4 1.1q1.875 0 3.55-.85t2.8-2.35L17 16.05l-6.6 3.8q.4.075.8.112T12 20m7.35-4.9q.325-.725.488-1.513T20 12l-7-4.05v3.45zM12 22q-2.075 0-3.9-.788t-3.175-2.137T2.788 15.9T2 12t.788-3.9t2.137-3.175T8.1 2.788T12 2t3.9.788t3.175 2.137T21.213 8.1T22 12t-.788 3.9t-2.137 3.175t-3.175 2.138T12 22"/></svg>