<svg xmlns="http://www.w3.org/2000/svg" viewBox="0 0 24 24" width="24" height="24"><path fill="currentColor" d="M5.4 9.5q.975 0 1.85.35t1.6 1.025L18.4 20h.6q.425 0 .713-.288T20 19q0-.2-.038-.425t-.262-.45l-4.575-4.575L13.35 8.2l-1.85.45q-.95.25-1.725-.35T9 6.725v-2.1l-.7-.35l-3.85 5.15q-.025.025-.025.037T4.4 9.5zm0 2H4.25q.075.175.188.325t.262.275l8.1 7.375q.275.275.625.4t.725.125h1.35l-8.025-7.675q-.425-.425-.962-.625T5.4 11.5M14.15 22q-.75 0-1.425-.275t-1.25-.775L3.35 13.575Q2.2 12.525 2.062 11t.788-2.775l3.85-5.15q.425-.575 1.138-.763t1.362.163l.7.35q.525.275.813.75T11 4.625v2.1l1.85-.475q.75-.2 1.45.188t.95 1.112l1.625 4.9l4.25 4.25q.5.5.688 1.075T22 19q0 1.25-.875 2.125T19 22z"/></svg>