<svg xmlns="http://www.w3.org/2000/svg" viewBox="0 0 24 24" width="24" height="24"><path fill="currentColor" d="m3.975 19.8l-.85-.35q-.775-.325-1.037-1.125t.087-1.575l1.8-3.9zm4 2.2q-.825 0-1.412-.587T5.975 20v-6l2.65 7.35q.075.175.15.338t.2.312zm5.15-.1q-.8.3-1.55-.075t-1.05-1.175l-4.45-12.2q-.3-.8.05-1.562t1.15-1.038l7.55-2.75q.8-.3 1.55.075t1.05 1.175l4.45 12.2q.3.8-.05 1.563t-1.15 1.037zM10.975 10q.425 0 .713-.288T11.975 9t-.287-.712T10.975 8t-.712.288T9.975 9t.288.713t.712.287m1.45 10l7.55-2.75L15.525 5l-7.55 2.75zM7.975 7.75L15.525 5z"/></svg>