<svg xmlns="http://www.w3.org/2000/svg" viewBox="0 0 24 24" width="24" height="24"><path fill="currentColor" d="M2 22V8.85q0-2.125 1.1-3.687T6.2 2.8q1.35-.525 2.875-.662T12 2t2.925.138T17.8 2.8q2 .8 3.1 2.363T22 8.85V22zm7.1-2h5.75l-1.5-1.5H10.6zm-1.6-7h9V9h-9zm8 3.5q.425 0 .713-.288t.287-.712t-.288-.712t-.712-.288t-.712.288t-.288.712t.288.713t.712.287m-7 0q.425 0 .713-.288T9.5 15.5t-.288-.712T8.5 14.5t-.712.288t-.288.712t.288.713t.712.287M4 20h3.5v-.5l1.05-1.05q-1.1-.15-1.825-.987T6 15.5V9q0-1.95 1.863-2.475T12 6q2.5 0 4.25.525T18 9v6.5q0 1.125-.725 1.963t-1.825.987l1.05 1.05v.5H20V8.85q0-1.5-.737-2.562T17.05 4.65q-1.1-.425-2.437-.537T12 4t-2.613.113t-2.437.537q-1.475.575-2.212 1.638T4 8.85zm0 0h16z"/></svg>