<svg xmlns="http://www.w3.org/2000/svg" viewBox="0 0 24 24" width="24" height="24"><path fill="currentColor" d="M19.775 22.625L17.5 20.35q-1.2.8-2.587 1.225T12 22q-2.075 0-3.9-.788t-3.175-2.137T2.788 15.9T2 12q0-1.525.425-2.912T3.65 6.5L1.375 4.225L2.8 2.8l18.4 18.4zM10.3 19.8q.65-1.275 1.55-2.037t1.875-1.188L5.1 7.95q-.525.9-.812 1.912T4 12t.288 2.15t.862 1.9q1.025-.5 2.125-.775T9.5 15q.8 0 1.538.138t1.462.362q-.575.3-1.088.7t-.962.85q-.3-.05-.512-.05H9.5q-.8 0-1.588.175T6.4 17.7q.8.8 1.788 1.338t2.112.762m10.05-2.3l-1.45-1.45q.525-.875.813-1.9T20 12q0-3.35-2.325-5.675T12 4q-1.125 0-2.137.287T7.95 5.1L6.5 3.65q1.2-.8 2.588-1.225T12 2q2.075 0 3.9.788t3.175 2.137T21.213 8.1T22 12q0 1.525-.425 2.913T20.35 17.5M13 10.15L9.35 6.5q1.55-.05 2.625 1.038T13 10.15M9.5 13.5q-1.45 0-2.475-1.025T6 10q0-.825.363-1.513T7.3 7.3l4.9 4.9q-.5.575-1.187.938T9.5 13.5m7.75.9l-3.15-3.15q.25-.775.9-1.263t1.5-.487q1.05 0 1.775.725T19 12q0 .85-.488 1.5t-1.262.9m-6.675-.975"/></svg>