<svg xmlns="http://www.w3.org/2000/svg" viewBox="0 0 24 24" width="24" height="24"><path fill="currentColor" d="M17 15q-1.05 0-1.775-.725T14.5 12.5t.725-1.775T17 10t1.775.725t.725 1.775t-.725 1.775T17 15m-5 5v-1.4q0-.6.313-1.112t.887-.738q.9-.375 1.863-.562T17 16t1.938.188t1.862.562q.575.225.888.738T22 18.6V20zm-2-8q-1.65 0-2.825-1.175T6 8t1.175-2.825T10 4t2.825 1.175T14 8t-1.175 2.825T10 12m-8 8v-2.8q0-.85.425-1.562T3.6 14.55q1.5-.75 3.113-1.15T10 13q.875 0 1.75.15t1.75.35l-.85.85l-.85.85q-.45-.125-.9-.162T10 15q-1.45 0-2.838.35t-2.662 1q-.25.125-.375.35T4 17.2v.8h6v2zm8-10q.825 0 1.413-.587T12 8t-.587-1.412T10 6t-1.412.588T8 8t.588 1.413T10 10"/></svg>