<svg xmlns="http://www.w3.org/2000/svg" viewBox="0 0 24 24" width="24" height="24"><path fill="currentColor" d="M12.4 15.35L8.65 11.6l8.3-8.3q.3-.3.713-.3t.712.3L20.7 5.625q.3.3.3.713t-.3.712zm0-2.85l6.2-6.175l-.925-.925l-6.175 6.2zM11 21l2-2h9v2zm-5.925 0q-1.15 0-2.213-.45T1 19.3l6.625-6.6l2.6 2.6q.35.35.55.8t.2.95t-.2.962t-.55.813l-.475.475q-.8.8-1.862 1.25T5.675 21zm0-2h.6q.75 0 1.45-.288T8.35 17.9l.475-.475q.15-.15.15-.35t-.15-.35l-1.2-1.2l-3.4 3.375q.2.05.425.075t.425.025M18.6 6.325l-.925-.925zm-10.975 9.2"/></svg>