<svg xmlns="http://www.w3.org/2000/svg" viewBox="0 0 24 24" width="24" height="24"><path fill="currentColor" d="M11.825 22q-.6 0-1.15-.225t-.975-.65L4.6 16l.75-.775q.4-.4.938-.537t1.062.012l1.65.475V7q0-.425.288-.712T10 6t.713.288T11 7v10.825l-2.425-.675l2.55 2.55q.125.125.313.213t.387.087H16q.825 0 1.413-.587T18 18v-4q0-.425.288-.712T19 13t.713.288T20 14v4q0 1.65-1.175 2.825T16 22zM12 15v-4q0-.425.288-.712T13 10t.713.288T14 11v4zm3 0v-3q0-.425.288-.712T16 11t.713.288T17 12v3zM2 7V2h1.5v2.025q1.8-1.475 3.975-2.25T12 1q3.65 0 6.45 1.675T22 7h-1.575q-.95-2.1-3.213-3.3T12 2.5q-2.2 0-4.225.775T4.1 5.5H7V7zm12.5 10"/></svg>