<svg xmlns="http://www.w3.org/2000/svg" viewBox="0 0 24 24" width="24" height="24"><path fill="currentColor" d="M5 13h6V9H5zm0-6h14V5H5zm0 14q-.825 0-1.412-.587T3 19V5q0-.825.588-1.412T5 3h14q.825 0 1.413.588T21 5v6.3q-.475-.2-.987-.262T19 11.05q-.525.1-1.012.338t-.888.637l-.975.975L11 18.1V21zm0-2h6v-4H5zm8-6h3.125l.975-.975q.4-.4.888-.638T19 11.05V9h-6zm0 9v-3.075l5.525-5.5q.225-.225.5-.325t.55-.1q.3 0 .575.113t.5.337l.925.925q.2.225.313.5t.112.55t-.1.563t-.325.512l-5.5 5.5zm7.5-6.575l-.925-.925zm-6 5.075h.95l3.025-3.05l-.925-.925l-3.05 3.025zm3.525-3.525l-.475-.45l.925.925z"/></svg>