<svg xmlns="http://www.w3.org/2000/svg" viewBox="0 0 24 24" width="24" height="24"><path fill="currentColor" d="M14 17v-2h2V3H4v3H2V3q0-.825.588-1.412T4 1h12q.825 0 1.413.588T18 3v4.5l4-4v11l-4-4V15q0 .825-.587 1.413T16 17zm-9.55 3q-.425 0-.788-.162t-.637-.438L0 16.4l.35-.35q.225-.225.5-.337t.55-.113q.3 0 .575.113t.475.337l.55.55V9.25q0-.325.225-.537T3.75 8.5q.325 0 .538.213t.212.537V13h1V7.75q0-.325.225-.537T6.25 7q.325 0 .538.213T7 7.75V13h1V8.75q0-.325.225-.537T8.75 8q.325 0 .538.213t.212.537V13h1V9.75q0-.325.225-.537T11.25 9q.325 0 .538.213T12 9.75V18q0 .825-.575 1.413T10 20zM16 3v12z"/></svg>