<svg xmlns="http://www.w3.org/2000/svg" viewBox="0 0 24 24" width="24" height="24"><path fill="currentColor" d="M6 23v-9H4q-1.05 0-1.775-.725T1.5 11.5t.725-1.775T4 9h2V8H4q-1.05 0-1.775-.725T1.5 5.5t.725-1.775T4 3h2V1h2v2h2q1.05 0 1.775.725T12.5 5.5t-.725 1.775T10 8H8v1h2q1.05 0 1.775.725T12.5 11.5t-.725 1.775T10 14H8v9zM4 12h6q.2 0 .35-.15t.15-.35t-.15-.35T10 11H4q-.2 0-.35.15t-.15.35t.15.35T4 12m0-6h6q.2 0 .35-.15t.15-.35t-.15-.35T10 5H4q-.2 0-.35.15t-.15.35t.15.35T4 6m11 17v-2h2v-7.15q-1.325-.35-2.162-1.412T14 10V1h8v9q0 1.375-.837 2.438T19 13.85V21h2v2zm3-11q.825 0 1.413-.587T20 10V8h-4v2q0 .825.588 1.413T18 12m-2-6h4V3h-4zM3.5 12v-1zm0-6V5zM18 8"/></svg>