<svg xmlns="http://www.w3.org/2000/svg" viewBox="0 0 24 24" width="24" height="24"><path fill="currentColor" d="M11 6.75v-2.5q0-1.05.725-1.775T13.5 1.75H16v2.5q0 1.05-.725 1.775T13.5 6.75zm-5.5 6q-1.45 0-2.475-1.025T2 9.25v-3.5h3.5q1.45 0 2.475 1.025T9 9.25v3.5zm10.5 9q-.975 0-1.862-.3t-1.613-.825l-.825.825q-.275.275-.7.275t-.7-.275t-.275-.7t.275-.7l.825-.825q-.525-.725-.825-1.612T10 15.75q0-2.5 1.75-4.262T16 9.725h6.025v6.025q0 2.5-1.763 4.25T16 21.75m0-2q1.675 0 2.825-1.175t1.15-2.825v-4H16q-1.65 0-2.825 1.163T12 15.75q0 .575.138 1.088t.412.962l2.75-2.75q.275-.275.7-.275t.7.275t.275.7t-.275.7l-2.75 2.75q.45.275.963.413T16 19.75m.025-4.025"/></svg>