<svg xmlns="http://www.w3.org/2000/svg" viewBox="0 0 24 24" width="24" height="24"><path fill="currentColor" d="M17.825 17L21 9.575V9h-6.3l.475-3.35L13.8 7.025q-.2-.2-.7-.712t-.7-.713L16 2l.8.8q.35.35.488.788t.062.912L17 7h4q.825 0 1.413.588T23 9v.575q0 .2-.038.4t-.112.4l-2.325 5.4q-.25.55-.75.888t-1.1.337zM6 21H1V11h5v2H3v6h3zm6.675 0H4v-9l6-6l.8.8q.35.35.488.788t.062.912L11 11h4q.825 0 1.413.588T17 13v.6q0 .2-.038.388t-.112.387L14.525 19.8q-.25.55-.75.875t-1.1.325m0-2L15 13.6V13H8.7l.475-3.35L6 12.825V19zM6 19v-6.175z"/></svg>