<svg xmlns="http://www.w3.org/2000/svg" viewBox="0 0 24 24" width="24" height="24"><path fill="currentColor" d="m7.5 23l.9-2.5H6.5L7.75 17h2.5l-1.075 2.5h2.075L8.5 23zm6.75-1l.7-2H13l1.075-3h2.5l-.875 2h2.05l-2.5 3zM7.5 16q-2.275 0-3.887-1.612T2 10.5q0-2.075 1.375-3.625t3.4-1.825q.8-1.425 2.188-2.238T12 2q2.25 0 3.913 1.438t2.012 3.587q1.725.15 2.9 1.425T22 11.5q0 1.875-1.312 3.188T17.5 16zm0-2h10q1.05 0 1.775-.725T20 11.5t-.725-1.775T17.5 9H16V8q0-1.65-1.175-2.825T12 4q-1.2 0-2.187.65T8.325 6.4l-.25.6H7.45q-1.425.05-2.437 1.063T4 10.5q0 1.45 1.025 2.475T7.5 14M12 9"/></svg>