<svg xmlns="http://www.w3.org/2000/svg" viewBox="0 0 24 24" width="24" height="24"><path fill="currentColor" d="M9.85 22q-.4-1.175-.6-2.312T9 17.538t-.012-1.863t.112-1.45q-.025 0 0 0q-.55-.125-1.262-.312T6.313 13.4t-1.663-.787T2.975 11.5l1.25-1.75q.975.875 2.038 1.388t1.962.8t1.5.375l.6.087q.45.025.713.375t.187.8l-.112.838q-.113.837-.125 2.087t.187 2.725T12 22zM19 22h-2V11.425q0-1.2-.638-2.175T14.65 7.775L7.825 4.7L9.05 3.025l6.425 2.925q1.6.725 2.563 2.2T19 11.425zm-5.5-3.025q.225 0 .425-.1t.325-.25q.15.15.35.25t.4.1q.425 0 .713-.288t.287-.712t-.288-.712t-.712-.288V13q.425 0 .713-.288T16 12t-.288-.712T15 11q-.2 0-.4.088t-.35.237q-.125-.15-.325-.237T13.5 11q-.425 0-.712.288T12.5 12t.288.713t.712.287v3.975q-.425 0-.712.288t-.288.712t.288.713t.712.287M12 22q-.625-1.3-.825-2.775t-.187-2.725t.125-2.087l.112-.838q.075-.45-.187-.8t-.713-.375l-.6-.088q-.6-.087-1.5-.374t-1.962-.8T4.225 9.75q.975.875 2.038 1.388t1.962.8t1.5.374l.6.088q.45.025.713.375t.187.8l-.112.838q-.113.837-.125 2.087t.187 2.725T12 22"/></svg>