<svg xmlns="http://www.w3.org/2000/svg" viewBox="0 0 24 24" width="24" height="24"><path fill="currentColor" d="m19.95 17.15l-1.5-1.5q.275-.675.413-1.337T19 13q0-2.9-2.05-4.95T12 6q-.6 0-1.275.125t-1.4.4l-1.5-1.5q.95-.5 2.012-.763T12 4q1.5 0 2.938.5t2.712 1.45l1.4-1.4l1.4 1.4l-1.4 1.4q.95 1.275 1.45 2.713T21 13q0 1.05-.262 2.088t-.788 2.062M13 10.2V8h-2v.2zm6.8 12.4l-2.4-2.4q-1.2.875-2.588 1.338T12 22q-1.85 0-3.488-.712T5.65 19.35t-1.937-2.863T3 13q0-1.5.463-2.887T4.8 7.6L1.4 4.2l1.4-1.4l18.4 18.4zM12 20q1.05 0 2.05-.325t1.875-.925L6.2 9.025q-.6.875-.9 1.875T5 13q0 2.9 2.05 4.95T12 20M9 3V1h6v2zm4.9 8.075"/></svg>