<svg xmlns="http://www.w3.org/2000/svg" viewBox="0 0 24 24" width="24" height="24"><path fill="currentColor" d="M4.3 11.8q.625-2.175 2.538-4.612T12 2q3.25 2.75 5.163 5.188T19.7 11.8h-2.1q-.575-1.55-1.975-3.338T12 4.65Q9.8 6.675 8.387 8.463T6.4 11.8zm15.55 3.65q-.225 1.225-.788 2.313t-1.437 1.962t-1.963 1.425t-2.287.75zm-4.075-1.65h2.85l-8.1 8.1q-.575-.125-1.112-.287t-1.038-.438zm-5.725 0h2.85l-6.225 6.225q-.375-.35-.712-.725t-.613-.8zm-6.075 0H7.15L4.4 16.55q-.2-.675-.3-1.362T3.975 13.8m8.025-2"/></svg>