<svg xmlns="http://www.w3.org/2000/svg" viewBox="0 0 24 24" width="24" height="24"><path fill="currentColor" d="M4 17.5V8q0-2.425 2.125-3.175T11 4l.75-1.5H7V1h10v1.5h-3.25L13 4q2.975.075 4.988.813T20 8v9.5q0 1.475-1.012 2.488T16.5 21l1.5 1.5v.5h-2l-2-2h-4l-2 2H6v-.5L7.5 21q-1.475 0-2.488-1.012T4 17.5M16.5 14H6h12zM12 18q.625 0 1.063-.437T13.5 16.5t-.437-1.062T12 15t-1.062.438T10.5 16.5t.438 1.063T12 18m-.05-11h5.7H6.4zM6 12h12V9H6zm1.5 7h9q.65 0 1.075-.425T18 17.5V14H6v3.5q0 .65.425 1.075T7.5 19m4.45-13q-3.35 0-4.3.363T6.4 7h11.25q-.3-.35-1.3-.675T11.95 6"/></svg>