<svg xmlns="http://www.w3.org/2000/svg" viewBox="0 0 24 24" width="24" height="24"><path fill="currentColor" d="M18.05 15.95q-1.4-1.325-2.225-3.125T15 9t.825-3.825T18.05 2.05l1.55 1.6q-1.1 1.025-1.725 2.4T17.25 9t.625 2.975T19.6 14.4zm3.2-3.2q-.8-.725-1.25-1.687T19.55 9T20 6.938t1.25-1.688l1.6 1.6q-.45.425-.725.963T21.85 9t.275 1.188t.725.962zM9 13q-1.65 0-2.825-1.175T5 9t1.175-2.825T9 5t2.825 1.175T13 9t-1.175 2.825T9 13m-8 8v-2.8q0-.825.425-1.55t1.175-1.1q1.275-.65 2.875-1.1T9 14t3.525.45t2.875 1.1q.75.375 1.175 1.1T17 18.2V21zm2-2h12v-.8q0-.275-.137-.5t-.363-.35q-.9-.45-2.312-.9T9 16t-3.187.45t-2.313.9q-.225.125-.363.35T3 18.2zm6-8q.825 0 1.413-.587T11 9t-.587-1.412T9 7t-1.412.588T7 9t.588 1.413T9 11m0 8"/></svg>