<svg xmlns="http://www.w3.org/2000/svg" viewBox="0 0 24 24" width="24" height="24"><path fill="currentColor" d="M18 21.95q-.55 0-1.062-.212t-.863-.563l-.112-.112l-.113-.113H13.5q-1.05 0-1.775-.737T11 18.425q0-.575.25-1.088t.75-.912l1-.8v-5.55l-1.55-2.2q-.225-.325-.337-.7T11 6.45q0-1.05.725-1.775T13.5 3.95h5q1.05 0 1.763.713t.712 1.762q0 .375-.1.725t-.325.675L19 10.075v5.6l.975.975q.5.5.763 1.088T21 18.95q0 1.25-.875 2.125T18 21.95m0-2q.425 0 .713-.288T19 18.95q0-.375-.213-.625l-.212-.25l-.975-.975q-.3-.3-.45-.675t-.15-.75V10.1q0-.3.088-.6t.262-.55l1.55-2.225q.05-.075.1-.3q0-.2-.15-.337t-.35-.138h-5q-.2 0-.35.15t-.15.35q0 .075.025.138t.075.137l1.55 2.225q.175.25.263.538T15 10.1v5.525q0 .45-.2.863t-.55.687l-1 .825q-.125.1-.187.213t-.063.262q0 .2.138.338t.362.137h2.225q.45 0 .8.163t.75.562q.125.125.313.2t.412.075m-9.175.7q-.275.125-.562.188t-.588.062q-1.125 0-1.9-.762T5 18.275v-9.1L3.25 5.5q-.125-.25-.187-.525T3 4.425q0-1.05.725-1.763T5.5 1.95H10v2q1.05 0 1.775.725T12.5 6.45q0 .425-.125.788T12 7.925l-1 1.35v5l1.075 1.625q.2.325.313.688t.112.712q0 .725-.375 1.325t-1 .9zm-.875-1.8l2.275-1.125q.125-.05.2-.175t.075-.25l-.1-.3l-.9-1.375q-.25-.375-.375-.813T9 13.95V9.6q0-.5.15-.95t.45-.85l.8-1.05q.05-.075.1-.3q0-.2-.15-.35T10 5.95H9q-.425 0-.712-.287T8 4.95v-1H5.5q-.2 0-.35.138T5 4.425q0-.025.05.225L6.7 8.1q.15.3.225.625T7 9.4v8.875q0 .275.2.463t.475.187q.075 0 .275-.075m-.2-7.425"/></svg>