<svg xmlns="http://www.w3.org/2000/svg" viewBox="0 0 24 24" width="24" height="24"><path fill="currentColor" d="M12 19q-3.775 0-6.738-2.087T1 11.5q1.3-3.325 4.263-5.413T12 4t6.738 2.088T23 11.5q-1.3 3.325-4.262 5.413T12 19m-7.925 1.7q-.95-.65-1.7-1.463t-1.25-1.762l1.75-.95q.4.725 1.013 1.375t1.387 1.175zM12 17q2.875 0 5.225-1.475t3.6-4.025q-1.25-2.55-3.6-4.025T12 6T6.775 7.475t-3.6 4.025q1.25 2.55 3.6 4.025T12 17m-6.15 4.675L7.05 20q.9.375 1.9.625t2.05.325v2q-1.4-.1-2.687-.425t-2.463-.85M12 16q1.875 0 3.188-1.312T16.5 11.5t-1.312-3.187T12 7T8.813 8.313T7.5 11.5t1.313 3.188T12 16m0-1.8q-1.125 0-1.912-.788T9.3 11.5t.788-1.912T12 8.8t1.913.788t.787 1.912t-.787 1.913T12 14.2m1 8.75v-2q1.05-.075 2.05-.325t1.9-.625l1.2 1.675q-.875.45-2.3.813T13 22.95m6.925-2.25l-1.2-1.65q.775-.525 1.388-1.162t1.012-1.363l1.75.95q-.5.95-1.25 1.763t-1.7 1.462M12 11.5"/></svg>