<svg xmlns="http://www.w3.org/2000/svg" viewBox="0 0 24 24" width="24" height="24"><path fill="currentColor" d="M10.5 19q-.625 0-1.062-.062T9 18.5q0-.425.438-.712T10.5 17.5t1.063.288t.437.712q0 .375-.437.438T10.5 19m8 2q-.625 0-1.062-.062T17 20.5q0-.425.438-.712T18.5 19.5t1.063.288t.437.712q0 .375-.437.438T18.5 21m-5 0q-.625 0-1.062-.062T12 20.5q0-.425.438-.712T13.5 19.5t1.063.288t.437.712q0 .375-.437.438T13.5 21m-8 0q-.625 0-1.062-.062T4 20.5q0-.425.438-.712T5.5 19.5t1.063.288T7 20.5q0 .375-.437.438T5.5 21m4 1q-.625 0-1.062-.062T8 21.5q0-.425.438-.712T9.5 20.5t1.063.288t.437.712q0 .375-.437.438T9.5 22M6 16v1q0 .425-.288.713T5 18H4q-.425 0-.712-.288T3 17V9l2.1-6q.15-.45.538-.725T6.5 2h11q.475 0 .863.275T18.9 3L21 9v8q0 .425-.287.713T20 18h-1q-.425 0-.712-.288T18 17v-1zm-.2-9h12.4l-1.05-3H6.85zm1.7 6q.625 0 1.063-.437T9 11.5t-.437-1.062T7.5 10t-1.062.438T6 11.5t.438 1.063T7.5 13m9 0q.625 0 1.063-.437T18 11.5t-.437-1.062T16.5 10t-1.062.438T15 11.5t.438 1.063T16.5 13M5 14h14V9H5zm7-2.5"/></svg>