<svg xmlns="http://www.w3.org/2000/svg" viewBox="0 0 24 24" width="24" height="24"><path fill="currentColor" d="m12 15.5l-1.4-1.4l1.05-1.1H8.5v-2h3.15L10.6 9.9L12 8.5l3.5 3.5zM10.5 4h3zm0 16h3zM9 22l-1.35-4.55q-1.2-.95-1.925-2.375T5 12t.725-3.075T7.65 6.55L9 2h6l1.35 4.55q1.2.95 1.925 2.375T19 12t-.725 3.075t-1.925 2.375L15 22zm3-5q2.075 0 3.538-1.463T17 12t-1.463-3.537T12 7T8.463 8.463T7 12t1.463 3.538T12 17M10.1 5.25q.5-.125.963-.2T12 4.975t.938.075t.962.2L13.5 4h-3zM10.5 20h3l.4-1.25q-.5.125-.962.188T12 19t-.937-.062t-.963-.188z"/></svg>