<svg xmlns="http://www.w3.org/2000/svg" viewBox="0 0 24 24" width="24" height="24"><path fill="currentColor" d="m10.75 11.5l7.075-7.075q.3-.3.7-.3t.7.3t.3.7t-.3.7l-7.05 7.075zm2.475 2.475l6.35-6.375q.3-.3.713-.3t.712.3t.3.713t-.3.712l-6.35 6.35zm-7.95 4.75Q3 16.45 3 13.25t2.275-5.475l3-3L9.75 6.25q.175.175.3.363T10.3 7L14 3.275q.3-.3.713-.3t.712.3t.3.712t-.3.713L11.1 9.025l-2.125 2.1l.475.475q1.15 1.15 1.1 2.75t-1.225 2.775l-1.425-1.4q.575-.575.638-1.362T8.025 13L6.85 11.85q-.3-.3-.3-.712t.3-.713l1.425-1.4q.3-.3.3-.713t-.3-.712l-1.6 1.6q-1.7 1.7-1.7 4.063t1.7 4.062t4.075 1.7t4.075-1.7l5.975-6q.3-.3.713-.3t.712.3t.3.713t-.3.712l-6 5.975Q13.95 21 10.75 21t-5.475-2.275M17 23.025V21q1.65 0 2.825-1.175T21 17h2.025q0 2.5-1.763 4.263T17 23.025M.975 7q0-2.5 1.763-4.262T7 .974V3Q5.35 3 4.175 4.175T3 7z"/></svg>