<svg xmlns="http://www.w3.org/2000/svg" viewBox="0 0 24 24" width="24" height="24"><path fill="currentColor" d="M4 7q0-1.25.875-2.125T7 4h10q1.25 0 2.125.875T20 7v2q1.25 0 2.125.875T23 12v5q0 1.25-.875 2.125T20 20H4q-1.25 0-2.125-.875T1 17v-5q0-1.25.875-2.125T4 9zm2 0v2.8q.45.425.725.975T7 12v2h10v-2q0-.675.275-1.225T18 9.8V7q0-.425-.288-.712T17 6H7q-.425 0-.712.288T6 7m13 9H5v-4q0-.2-.075-.387t-.213-.325t-.325-.213T4 11q-.425 0-.713.288T3 12v5q0 .425.288.713T4 18h16q.425 0 .713-.288T21 17v-5q0-.425-.288-.712T20 11q-.2 0-.387.075t-.325.213t-.213.324T19 12zm-7-2"/></svg>