<svg xmlns="http://www.w3.org/2000/svg" viewBox="0 0 24 24" width="24" height="24"><path fill="currentColor" d="M18 21q.2 0 .35-.15t.15-.35t-.15-.35T18 20t-.35.15t-.15.35t.15.35t.35.15m-.5-2h1v-4h-1zM4 19v-.375zV8zm0 2q-.825 0-1.412-.587T2 19V8q0-.825.588-1.412T4 6h4V4q0-.825.588-1.412T10 2h4q.825 0 1.413.588T16 4v2h4q.825 0 1.413.588T22 8v4.275q-.45-.325-.95-.562T20 11.3V8H4v11h7.075q.075.525.225 1.025t.375.975zm6-15h4V4h-4zm8 17q-2.075 0-3.537-1.463T13 18t1.463-3.537T18 13t3.538 1.463T23 18t-1.463 3.538T18 23"/></svg>