<svg xmlns="http://www.w3.org/2000/svg" viewBox="0 0 24 24" width="24" height="24"><path fill="currentColor" d="M12 22q-4.025-3.425-6.012-6.362T4 10.2q0-3.75 2.413-5.975T12 2q.25 0 .488.013t.512.062V4.1q-.25-.05-.5-.075T12 4Q9.475 4 7.738 5.737T6 10.2q0 1.775 1.475 4.063T12 19.35q3.05-2.8 4.525-5.087T18 10.2q0-.05-.012-.1t-.013-.1h2q0 .05.013.1t.012.1q0 2.5-1.987 5.438T12 22m4.875-13.95l2.1-2.1l2.1 2.1l1.4-1.4l-2.1-2.1l2.1-2.1l-1.4-1.4l-2.1 2.1l-2.1-2.1l-1.4 1.4l2.1 2.1l-2.1 2.1zM12 12q.825 0 1.413-.587T14 10t-.587-1.412T12 8t-1.412.588T10 10t.588 1.413T12 12"/></svg>