<svg xmlns="http://www.w3.org/2000/svg" viewBox="0 0 24 24" width="24" height="24"><path fill="currentColor" d="M6 10.5v3.75q0 .325.213.538T6.75 15t.538-.213t.212-.537v-4.5q0-.325-.213-.537T6.75 9h-1q-.325 0-.537.213T5 9.75t.213.538t.537.212zM9.5 15H12q.425 0 .713-.288T13 14v-4q0-.425-.288-.712T12 9H9.5q-.425 0-.712.288T8.5 10v4q0 .425.288.713T9.5 15m.5-1.5v-3h1.5v3zm5.5-.75l1.55 1.975q.05.075.55.275q.425 0 .625-.387t-.075-.738L16.75 12l1.425-1.9q.275-.35.075-.725T17.6 9q-.175 0-.312.075t-.238.2L15.5 11.25v-1.5q0-.325-.212-.538T14.75 9t-.537.213T14 9.75v4.5q0 .325.213.538t.537.212t.538-.213t.212-.537zM5 21q-.825 0-1.412-.587T3 19V5q0-.825.588-1.412T5 3h14q.825 0 1.413.588T21 5v14q0 .825-.587 1.413T19 21z"/></svg>