<svg xmlns="http://www.w3.org/2000/svg" viewBox="0 0 24 24" width="24" height="24"><path fill="currentColor" d="M8.5 7v3.75q0 .325.213.538t.537.212t.538-.213t.212-.537v-4.5q0-.325-.213-.537T9.25 5.5h-1.5q-.325 0-.537.213T7 6.25t.213.538T7.75 7zm6 3v.75q0 .325.213.538t.537.212t.538-.213t.212-.537V10h.25q.325 0 .538-.213T17 9.25t-.213-.537t-.537-.213H16V6.25q0-.325-.213-.537T15.25 5.5t-.537.213t-.213.537V8.5H13V6.25q0-.325-.213-.537T12.25 5.5t-.537.213t-.213.537v3q0 .325.213.538t.537.212zM5 21q-.825 0-1.412-.587T3 19V5q0-.825.588-1.412T5 3h14q.825 0 1.413.588T21 5v14q0 .825-.587 1.413T19 21zm2.5-7h1v2.25q0 .325.213.538T9.25 17t.538-.213t.212-.537V14h1v3.75q0 .325.213.538t.537.212t.538-.213t.212-.537V13.5q0-.425-.288-.712T11.5 12.5H7q-.425 0-.712.288T6 13.5v4.25q0 .325.213.538t.537.212t.538-.213t.212-.537zm7.5 3h2q.425 0 .713-.288T18 16v-2.5q0-.425-.288-.712T17 12.5h-2.75q-.325 0-.537.213t-.213.537v4.5q0 .325.213.538t.537.212t.538-.213t.212-.537zm0-1.5V14h1.5v1.5z"/></svg>