<svg xmlns="http://www.w3.org/2000/svg" viewBox="0 0 24 24" width="24" height="24"><path fill="currentColor" d="M16.5 12.5v1q0 .2.15.35T17 14t.35-.15t.15-.35v-1h1q.2 0 .35-.15T19 12t-.15-.35t-.35-.15h-1v-1q0-.2-.15-.35T17 10t-.35.15t-.15.35v1h-1q-.2 0-.35.15T15 12t.15.35t.35.15zm-4 .25l1.55 1.975q.05.075.55.275q.425 0 .625-.387t-.075-.738L13.75 12l1.425-1.9q.275-.35.075-.725T14.6 9q-.175 0-.312.075t-.238.2L12.5 11.25v-1.5q0-.325-.213-.538T11.75 9t-.537.213T11 9.75v4.5q0 .325.213.538t.537.212t.538-.213t.212-.537zm-5 .75v-1H9q.425 0 .713-.288T10 11.5V10q0-.425-.288-.712T9 9H6.75q-.325 0-.537.213T6 9.75t.213.538t.537.212H8.5v1H7q-.425 0-.712.288T6 12.5v1.75q0 .325.213.538T6.75 15h2.5q.325 0 .538-.213T10 14.25t-.213-.537t-.537-.213zM5 21q-.825 0-1.412-.587T3 19V5q0-.825.588-1.412T5 3h14q.825 0 1.413.588T21 5v14q0 .825-.587 1.413T19 21z"/></svg>