<svg xmlns="http://www.w3.org/2000/svg" viewBox="0 0 24 24" width="24" height="24"><path fill="currentColor" d="M13 15h3q.825 0 1.413-.587T18 13v-2q0-.825-.587-1.412T16 9h-3zm1.5-1.5v-3H16q.2 0 .35.15t.15.35v2q0 .2-.15.35t-.35.15zM10 15q.425 0 .713-.288T11 14v-1q0-.425-.288-.712T10 12q.425 0 .713-.288T11 11v-1q0-.425-.288-.712T10 9H7.25q-.325 0-.537.213T6.5 9.75t.213.538t.537.212H9.5v.75H8.25q-.325 0-.537.213T7.5 12t.213.538t.537.212H9.5v.75H7.25q-.325 0-.537.213t-.213.537t.213.538t.537.212zm-6 5q-.825 0-1.412-.587T2 18V6q0-.825.588-1.412T4 4h16q.825 0 1.413.588T22 6v12q0 .825-.587 1.413T20 20z"/></svg>