<svg xmlns="http://www.w3.org/2000/svg" viewBox="0 0 24 24" width="24" height="24"><path fill="currentColor" d="M6 14q-.825 0-1.412-.587T4 12V6q0-.825.588-1.412T6 4h4q.425 0 .713.288T11 5t-.288.713T10 6H6v2h3q.825 0 1.413.588T11 10v2q0 .825-.587 1.413T9 14zm0-2h3v-2H6zm9 2q-.825 0-1.412-.587T13 12V6q0-.825.588-1.412T15 4h3q.825 0 1.413.588T20 6v6q0 .825-.587 1.413T18 14zm0-2h3V6h-3zM4 22q-.425 0-.712-.288T3 21v-3q0-.425.288-.712T4 17t.713.288T5 18v3q0 .425-.288.713T4 22m4 0q-.425 0-.712-.288T7 21v-3q0-.425.288-.712T8 17t.713.288T9 18v3q0 .425-.288.713T8 22m4 0q-.425 0-.712-.288T11 21v-3q0-.425.288-.712T12 17t.713.288T13 18v3q0 .425-.288.713T12 22m4 0q-.425 0-.712-.288T15 21v-3q0-.425.288-.712T16 17h4q.425 0 .713.288T21 18v3q0 .425-.288.713T20 22z"/></svg>