<svg xmlns="http://www.w3.org/2000/svg" viewBox="0 0 24 24" width="24" height="24"><path fill="currentColor" d="M8 22q-2.075 0-3.537-1.463T3 17q0-1.725 1.075-3.075t2.75-1.775q.4-.1.75.113t.45.612t-.112.75t-.613.45q-1.025.25-1.662 1.063T5 17q0 1.25.875 2.125T8 20q1.025 0 1.825-.625t1.075-1.6q.125-.4.475-.612t.75-.088t.612.475t.088.75q-.45 1.65-1.787 2.675T8 22m8-15.5q-.825 0-1.412-.587T14 4.5t.588-1.412T16 2.5t1.413.588T18 4.5t-.587 1.413T16 6.5M11 16q-1.1 0-1.7-.937T9.15 13.1L11 9H8.725l-.275.7q-.125.35-.475.538t-.725.062q-.425-.125-.625-.513T6.6 8.976l.3-.775q.225-.575.737-.888T8.75 7h5.2q1.125 0 1.713.913T15.8 9.85l-1.65 3.65H17q.825 0 1.413.588T19 15.5V20q0 .425-.288.713T18 21t-.712-.288T17 20v-4z"/></svg>