<svg xmlns="http://www.w3.org/2000/svg" viewBox="0 0 24 24" width="24" height="24"><path fill="currentColor" d="M12 2q2.075 0 3.888.788t3.174 2.15t2.15 3.175T22 12q0 2.05-.788 3.875t-2.15 3.188t-3.175 2.15T12 22q-2.05 0-3.875-.788t-3.187-2.15t-2.15-3.187T2 12q0-2.075.788-3.887t2.15-3.175t3.187-2.15T12 2m-2 5q0 .825.588 1.413T12 9t1.413-.587T14 7t-.587-1.412T12 5t-1.412.588T10 7m2 3q-1.65 0-3.075.538T7.5 12.5v4q0 1.425 1.425 1.938T12 18.95q.425 0 .713-.288T13 17.95t-.288-.712T12 16.95q-.5.05-.975-.05t-.95-.3q-.275-.125-.35-.388t.1-.462q.425-.425 1-.588T12 15q.925 0 1.713.325t.787 1.125v.85q0 .3.213.525t.512.225q.575 0 .925-.475t.35-1.075v-4q0-1.425-1.425-1.963T12 10m0 4.5q-.525 0-.888-.363t-.362-.887t.363-.888T12 12t.888.363t.362.887t-.363.888T12 14.5"/></svg>