<svg xmlns="http://www.w3.org/2000/svg" viewBox="0 0 24 24" width="24" height="24"><path fill="currentColor" d="M12 20q1.075 0 2.1-.288t1.95-.837L12.175 15H12q-1.35 0-2.65.35t-2.475 1.045q-.425.248-.462.744t.312.843q1.1.943 2.45 1.48T12 20m7.775 2.575l-2.25-2.225q-1.225.8-2.625 1.225T12 22q-2.075 0-3.9-.788t-3.175-2.137T2.788 15.9T2 12q0-1.475.413-2.875t1.212-2.65L1.375 4.2q-.3-.3-.288-.712t.313-.713t.713-.3t.712.3l18.375 18.4q.3.3.3.7t-.3.7t-.712.3t-.713-.3m.3-5.875q-.25 0-.475-.087t-.425-.288L15.1 12.25q-.2-.2-.212-.462t.137-.513q.25-.4.363-.85T15.5 9.5q0-1.45-1.025-2.475T12 6q-.475 0-.925.125t-.85.35q-.25.125-.512.125t-.463-.2L7.675 4.825q-.2-.2-.287-.425T7.3 3.925q0-.35.163-.638t.512-.437q.95-.425 1.963-.638T12 2q2.075 0 3.9.788t3.175 2.137T21.213 8.1T22 12q0 1.05-.213 2.063t-.637 1.962q-.15.35-.437.513t-.638.162"/></svg>