<svg xmlns="http://www.w3.org/2000/svg" viewBox="0 0 24 24" width="24" height="24"><path fill="currentColor" d="M11.025 21q-.425 0-.712-.288T10.025 20t.288-.712t.712-.288h.875l-.375-3.875q-.5-.05-1.012-.088T9.5 15h-.6q-.3 0-.6.05l.45 1.775q.1.4-.125.75t-.625.45t-.75-.112t-.45-.613l-.45-1.875q-.5.125-1 .275t-1 .35q-.4.15-.775-.013t-.55-.537T3 14.75t.525-.525q.575-.225 1.15-.413t1.175-.337L4.75 9Q3.6 8.9 2.8 8.05T2 6q0-1.25.875-2.125T5 3t2.125.875T8 6q0 .775-.35 1.413T6.7 8.474L7.825 13.1q.425-.05.838-.075T9.5 13q.45 0 .9.025t.9.075l-.225-2.25q-.9-.275-1.487-1.05T9 8q0-1.25.875-2.125T12 5t2.125.875T15 8q0 .95-.537 1.713T13.075 10.8l.275 2.6q.8.15 1.613.363t1.612.437l.825-5.65q-.65-.4-1.025-1.075T16 6q0-1.25.875-2.125T19 3t2.125.875T22 6q0 1.15-.737 1.988t-1.863.987l-.85 5.725q.375.075.75.138t.75.112q.425.05.713.338t.287.712t-.288.725t-.712.25l-.9-.1q-.45-.05-.9-.15l-.075.45q-.05.425-.387.65t-.763.175t-.65-.375t-.175-.75l.075-.65q-.675-.2-1.337-.387t-1.363-.338l.35 3.5h1.1q.425 0 .713.288t.287.712t-.287.713t-.713.287z"/></svg>