<svg xmlns="http://www.w3.org/2000/svg" viewBox="0 0 24 24" width="24" height="24"><path fill="currentColor" d="M19.075 21.9L2.1 4.925q-.275-.275-.275-.687t.275-.713q.3-.3.713-.3t.712.3L20.475 20.5q.275.275.287.688t-.287.712q-.275.275-.7.275t-.7-.275M17 8q-1.25 0-2.125-.875T14 5t.875-2.125T17 2t2.125.875T20 5t-.875 2.125T17 8M9.125 2.875q.425.425.65.963T10 5q0 .25-.025.475t-.1.45q-.1.3-.413.35t-.562-.2L5.925 3.1q-.225-.225-.175-.537t.325-.438q.225-.075.45-.1T7 2q.625 0 1.163.225t.962.65M12 17q-.825 0-1.412-.587T10 15v-3q0-.425.15-.775t.425-.625L14 14.025V15q0 .825-.587 1.413T12 17m0 5q-.325 0-.537-.213t-.213-.537v-1.3q-1.625-.25-2.787-1.4t-1.388-2.675q-.05-.35.175-.612T7.825 15q.275 0 .475.163t.25.437q.275 1.3 1.225 2.1t2.225.8q1.325 0 2.313-.875t1.162-2.15l1.225 1.25q-.475 1.275-1.525 2.15T12.75 19.95v1.3q0 .325-.213.538T12 22M2 14q-.425 0-.712-.288T1 13v-.575q0-.875.363-1.562t1.012-1.038q1-.525 2.15-.8T7 8.75q.4 0 .775.025t.75.075q.225.05.263.263t-.163.337q-1.125.675-1.9 1.725T5.675 13.5q-.05.2-.225.35t-.375.15zm16.925 0q-.2 0-.375-.15t-.225-.35q-.275-1.275-1.037-2.325T15.4 9.45q-.2-.125-.162-.337t.237-.263q.375-.05.75-.075T17 8.75q1.325 0 2.475.275t2.15.8q.65.35 1.013 1.038T23 12.425V13q0 .425-.288.713T22 14z"/></svg>