<svg xmlns="http://www.w3.org/2000/svg" viewBox="0 0 24 24" width="24" height="24"><path fill="currentColor" d="M17.5 18.5v2q0 .2.15.35T18 21t.35-.15t.15-.35v-2h2q.2 0 .35-.15T21 18t-.15-.35t-.35-.15h-2v-2q0-.2-.15-.35T18 15t-.35.15t-.15.35v2h-2q-.2 0-.35.15T15 18t.15.35t.35.15zM18 23q-2.075 0-3.537-1.463T13 18t1.463-3.537T18 13t3.538 1.463T23 18t-1.463 3.538T18 23M8 9h8q.425 0 .713-.288T17 8t-.288-.712T16 7H8q-.425 0-.712.288T7 8t.288.713T8 9M5 21q-.825 0-1.412-.587T3 19V5q0-.825.588-1.412T5 3h14q.825 0 1.413.588T21 5v5.45q0 .45-.375.7t-.8.1q-.425-.125-.888-.188T18 11q-.275 0-.513.013t-.487.062q-.225-.05-.5-.062T16 11H8q-.425 0-.712.288T7 12t.288.713T8 13h5.125q-.45.425-.812.925T11.675 15H8q-.425 0-.712.288T7 16t.288.713T8 17h3.075q-.05.25-.062.488T11 18q0 .5.05.95t.175.875t-.125.8t-.675.375z"/></svg>