<svg xmlns="http://www.w3.org/2000/svg" viewBox="0 0 24 24" width="24" height="24"><path fill="currentColor" d="M11 11v2q0 .425.288.713T12 14t.713-.288T13 13v-2h2q.425 0 .713-.288T16 10t-.288-.712T15 9h-2V7q0-.425-.288-.712T12 6t-.712.288T11 7v2H9q-.425 0-.712.288T8 10t.288.713T9 11zm1 10.325q-.35 0-.7-.125t-.625-.375Q9.05 19.325 7.8 17.9t-2.087-2.762t-1.275-2.575T4 10.2q0-3.75 2.413-5.975T12 2t5.588 2.225T20 10.2q0 1.125-.437 2.363t-1.275 2.575T16.2 17.9t-2.875 2.925q-.275.25-.625.375t-.7.125"/></svg>