<svg xmlns="http://www.w3.org/2000/svg" viewBox="0 0 24 24" width="24" height="24"><path fill="currentColor" d="M17 17h-2.025q-.425 0-.7-.288T14 16t.288-.712T15 15h2v-2q0-.425.288-.712T18 12t.713.288T19 13v2h2q.425 0 .713.288T22 16t-.288.713T21 17h-2v2q0 .425-.288.713T18 20t-.712-.288T17 19zm-7 0H7q-2.075 0-3.537-1.463T2 12t1.463-3.537T7 7h3q.425 0 .713.288T11 8t-.288.713T10 9H7q-1.25 0-2.125.875T4 12t.875 2.125T7 15h3q.425 0 .713.288T11 16t-.288.713T10 17m-1-4q-.425 0-.712-.288T8 12t.288-.712T9 11h6q.425 0 .713.288T16 12t-.288.713T15 13zm13-1h-2q0-1.25-.875-2.125T17 9h-3.025q-.425 0-.7-.288T13 8t.288-.712T14 7h3q2.075 0 3.538 1.463T22 12"/></svg>