<svg xmlns="http://www.w3.org/2000/svg" viewBox="0 0 24 24" width="24" height="24"><path fill="currentColor" d="M17.2 13.575q-.4 0-.788-.075t-.787-.2t-.563-.5t-.037-.8q.125-.375.475-.55t.75-.05q.275.075.513.125t.462.05q.3 0 .6-.1t.625-.3q.6-.425 1.2-.575t1.15-.15q.375 0 .775.063t.8.187t.587.5t.063.8q-.125.4-.5.575t-.775.05q-.275-.075-.513-.125t-.437-.05q-.3 0-.663.113t-.762.387q-.525.35-1.062.488t-1.113.137m.025-3.9q-.4 0-.8-.075t-.8-.2t-.575-.5t-.05-.8q.125-.375.487-.55t.763-.05q.275.1.525.138t.45.037q.3 0 .6-.087t.625-.313q.625-.425 1.212-.575t1.138-.15q.4 0 .787.063t.788.187t.575.5t.05.8q-.125.4-.488.575t-.762.05q-.275-.1-.513-.137T20.8 8.55q-.325 0-.663.1t-.762.4q-.45.325-1.012.475t-1.138.15m0 7.8q-.425 0-.812-.075t-.788-.2t-.562-.5t-.038-.8q.125-.375.475-.55t.75-.05q.275.075.525.125t.45.05q.3 0 .6-.087t.625-.313q.575-.4 1.225-.562t1.15-.163q.375 0 .763.063t.787.187t.588.5t.062.8q-.125.4-.5.575t-.775.05q-.3-.1-.525-.137t-.425-.038q-.35 0-.712.113t-.713.387q-.425.3-.987.463t-1.163.162M4 21q-.425 0-.712-.288T3 20V6q0-1.25.875-2.125T6 3h4q1.25 0 2.125.875T13 6v2h-3q-.825 0-1.412.588T8 10v5q0 .825.588 1.413T10 17h3v3q0 .425-.288.713T12 21zm9-6h-3v-5h3z"/></svg>