<svg xmlns="http://www.w3.org/2000/svg" viewBox="0 0 24 24" width="24" height="24"><path fill="currentColor" d="M10.5 16q1.65 0 2.825-1.175T14.5 12t-1.175-2.825T10.5 8T7.675 9.175T6.5 12t1.175 2.825T10.5 16m0-2q-.825 0-1.412-.587T8.5 12t.588-1.412T10.5 10t1.413.588T12.5 12t-.587 1.413T10.5 14m7.4-2q-.425 0-.725-.288t-.3-.712t.3-.712T17.9 10q.225 0 .4-.112t.3-.338q.375-.725 1.05-1.138T21.125 8q.425 0 .713.288t.287.712t-.288.713t-.712.287q-.25 0-.425.113t-.3.337q-.375.725-1.037 1.138T17.9 12m0 4q-.425 0-.725-.288t-.3-.712t.3-.712T17.9 14q.225 0 .4-.112t.3-.338q.375-.725 1.038-1.138T21.1 12q.425 0 .725.288t.3.712t-.3.713T21.1 14q-.225 0-.4.113t-.3.337q-.375.725-1.037 1.138T17.9 16M5 21q-.825 0-1.412-.587T3 19V7q0-1.65 1.175-2.825T7 3h7q1.65 0 2.825 1.175T18 7q-.275.275-.437.638T17 8h-.25q-.425 0-.712.288T15.75 9v7q0 .425.288.713t.712.287H17q.425 0 .713.288T18 18v1q0 .825-.587 1.413T16 21z"/></svg>