<svg xmlns="http://www.w3.org/2000/svg" viewBox="0 0 24 24" width="24" height="24"><path fill="currentColor" d="M9.5 11.25V17q0 .425.288.713T10.5 18t.713-.288T11.5 17v-5.875q0-.175-.038-.35t-.112-.325l-1.5-3q-.2-.375-.587-.512T8.5 7t-.513.588t.063.762zm5-.025l1.45-2.875q.175-.375.05-.763T15.5 7t-.763-.062t-.587.512l-1.5 2.975q-.075.15-.112.325t-.038.35V17q0 .425.288.713T13.5 18t.713-.288T14.5 17zM16 13q.375.2.763.063t.587-.513l1.1-2.2q.2-.375.063-.762T18 9t-.763-.062t-.587.512l-1.1 2.2q-.2.375-.062.763T16 13m-8 0q.375-.2.513-.587t-.063-.763l-1.1-2.2q-.2-.375-.587-.513T6 9t-.513.588t.063.762l1.1 2.2q.2.375.588.513T8 13m4 9q-2.075 0-3.9-.788t-3.175-2.137T2.788 15.9T2 12t.788-3.9t2.137-3.175T8.1 2.788T12 2t3.9.788t3.175 2.137T21.213 8.1T22 12t-.788 3.9t-2.137 3.175t-3.175 2.138T12 22"/></svg>