<svg xmlns="http://www.w3.org/2000/svg" viewBox="0 0 24 24" width="24" height="24"><path fill="currentColor" d="m18.4 18.6l-1.4-.65q-.3-.125-.3-.45t.3-.45l1.4-.65l.65-1.4q.125-.3.45-.3t.45.3l.65 1.4l1.4.65q.3.125.3.45t-.3.45l-1.4.65l-.65 1.4q-.125.3-.45.3t-.45-.3l-.65-1.4Zm-7.65-5.35l.8 1.75q.125.3.45.3t.45-.3l.8-1.75l1.75-.8q.3-.125.3-.45t-.3-.45l-1.75-.8l-.8-1.75q-.125-.3-.45-.3t-.45.3l-.8 1.75l-1.75.8q-.3.125-.3.45t.3.45l1.75.8ZM4 20q-.825 0-1.413-.588T2 18V6q0-.825.588-1.413T4 4h16q.825 0 1.413.588T22 6v7.175q-.575-.35-1.213-.513T19.5 12.5q-2.075 0-3.538 1.463T14.5 17.5q0 .65.163 1.288T15.175 20H4Z"/></svg>