<svg xmlns="http://www.w3.org/2000/svg" viewBox="0 0 24 24" width="24" height="24"><path fill="currentColor" d="M12 4q-.425 0-.712-.288T11 3V1q0-.425.288-.712T12 0t.713.288T13 1v2q0 .425-.288.713T12 4m-6.125.7L4.3 3.125q-.3-.3-.3-.712t.3-.713t.7-.3t.7.3l1.6 1.6q.3.3.3.7t-.3.7t-.712.3t-.713-.3M7 18h2q.425 0 .713-.288T10 17t-.288-.712T9 16H7q-.425 0-.712.288T6 17t.288.713T7 18m8 0h2q.425 0 .713-.288T18 17t-.288-.712T17 16h-2q-.425 0-.712.288T14 17t.288.713T15 18m1.575-7.45q.3.3.7.3t.7-.3l2.25-2.225q.225-.225.225-.525t-.225-.525t-.525-.213t-.525.213l-1.9 1.85l-.45-.45q-.225-.225-.525-.213t-.525.238t-.225.525t.225.525zM18 14q-2.075 0-3.537-1.463T13 9t1.463-3.537T18 4t3.538 1.463T23 9t-1.463 3.538T18 14M4.5 23q-.625 0-1.062-.437T3 21.5v-7.15q0-.175.025-.35t.075-.325L5.1 8q.15-.45.538-.725T6.5 7H9V6q0-.425.288-.712T10 5h1.25q.35 0 .513.288t-.013.587q-.3.575-.488 1.213T11.026 8.4q-.025.25-.2.425T10.4 9H6.85l-1.475 4h6.1q.375 0 .713.175t.587.45q1 1.125 2.35 1.75T18 16q.425 0 .863-.05t.862-.175q.475-.125.875.15t.4.75V21.5q0 .625-.437 1.062T19.5 23t-1.062-.437T18 21.5V21H6v.5q0 .625-.437 1.063T4.5 23"/></svg>