<svg xmlns="http://www.w3.org/2000/svg" viewBox="0 0 24 24" width="24" height="24"><path fill="currentColor" d="M19.025 20q-.375 0-.65-.25t-.275-.6t.263-.587t.662-.238q.375 0 .638.238t.262.587t-.25.6t-.65.25m.7-4.675q0-.325-.187-.487T19 14.675q-.2 0-.337.05t-.263.175q-.2.175-.437.275t-.463-.025q-.25-.125-.337-.362t.062-.438q.35-.475.813-.662t1.037-.188q.95 0 1.5.45t.55 1.25q0 .425-.238.813t-.712.737q-.275.2-.4.388t-.125.412q0 .15-.1.25t-.25.1h-.575q-.175 0-.3-.125t-.125-.3q0-.375.175-.65t.6-.625q.35-.275.5-.475t.15-.4M12 7q-2.225 0-4.3.688T3.875 9.724q-.5.4-1.137.388T1.65 9.65q-.425-.425-.425-1.05t.5-1q2.2-1.75 4.825-2.675T12 4t5.45.925T22.275 7.6q.5.375.5 1t-.425 1.05q-.45.45-1.088.463t-1.137-.388q-1.75-1.35-3.825-2.037T12 7m0 13q-.825 0-1.412-.587T10 18t.588-1.412T12 16t1.413.588T14 18t-.587 1.413T12 20m0-7q-1.025 0-1.987.263t-1.838.787q-.55.35-1.187.325T5.9 13.9q-.425-.425-.413-1.037T6 11.9q1.325-.925 2.85-1.412T12 10t3.138.475t2.837 1.4q-.875.2-1.6.663t-1.25 1.137q-.725-.35-1.525-.513T12 13"/></svg>