<svg xmlns="http://www.w3.org/2000/svg" viewBox="0 0 24 24" width="24" height="24"><path fill="currentColor" d="M10.5 18.5V14L1.75 7.875q-.425-.3-.513-.8t.213-.925t.812-.525t.938.2l17.6 12.35q.425.3.525.8t-.2.925t-.812.513t-.938-.213l-2.55-1.775h1.425v.075q0 .625-.437 1.063T16.75 20t-1.062-.437t-.438-1.063v-1.175L13.5 16.1v2.325q0 .675-.437 1.125T12 20t-1.062-.437T10.5 18.5m-9.5 0v-3q0-.625.438-1.062T2.5 14t1.063.438T4 15.5v3q0 .625-.437 1.063T2.5 20t-1.062-.437T1 18.5m4.75 0v-5q0-.625.438-1.062T7.25 12t1.063.438t.437 1.062v5q0 .625-.437 1.063T7.25 20t-1.062-.437T5.75 18.5m12.5-5.175l-3-2.1V8.5q0-.625.438-1.062T16.75 7t1.063.438t.437 1.062zM23 16.65l-3-2.1V5.5q0-.625.438-1.062T21.5 4t1.063.438T23 5.5z"/></svg>