<svg xmlns="http://www.w3.org/2000/svg" viewBox="0 0 24 24" width="24" height="24"><path fill="currentColor" d="M12 6.5q-2.55 0-4.913.85T2.775 9.775q-.425.35-.937.338T.95 9.725t-.362-.887T1 7.975q2.325-1.95 5.15-2.962T12 4t5.85 1.013T23 7.975q.4.35.413.863t-.363.887t-.888.388t-.937-.338Q19.275 8.2 16.913 7.35T12 6.5M12 20q-.825 0-1.412-.587T10 18t.588-1.412T12 16t1.413.588T14 18t-.587 1.413T12 20m0-5.5q-.95 0-1.85.25t-1.7.75q-.45.275-.975.263t-.9-.388t-.35-.875t.45-.8q1.175-.825 2.525-1.263T12 12q1.025 0 2.013.213t1.887.637q-.425.425-.825.963t-.725 1.112q-.575-.2-1.162-.312T12 14.5m7 5.5q-.425 0-.712-.288T18 19t.288-.712T19 18t.713.288T20 19t-.288.713T19 20m0-3q-.425 0-.712-.288T18 16v-1.5q0-.425.288-.712T19 13.5t.713.288t.287.712V16q0 .425-.288.713T19 17m-7-6.5q-1.75 0-3.375.538T5.6 12.625q-.425.325-.937.313t-.888-.388q-.35-.375-.337-.875t.412-.825q1.75-1.4 3.838-2.125T12.025 8t4.325.725t3.825 2.1q.325.25.4.625t-.075.725q-.4-.15-.825-.225t-.875-.075q-.35 0-.663.05t-.612.125q-1.25-.75-2.65-1.15T12 10.5"/></svg>