<svg xmlns="http://www.w3.org/2000/svg" viewBox="0 0 24 24" width="24" height="24"><path fill="currentColor" d="M17.85 20q-.35 0-.6-.25t-.25-.6v-3.3q0-.35.25-.6t.6-.25H18v-1q0-.825.588-1.412T20 12t1.413.588T22 14v1h.15q.35 0 .6.25t.25.6v3.3q0 .35-.25.6t-.6.25zM19 15h2v-1q0-.425-.288-.712T20 13t-.712.288T19 14zm-7 5q-.825 0-1.412-.587T10 18t.588-1.412T12 16t1.413.588T14 18t-.587 1.413T12 20m0-7q-1.025 0-1.987.263t-1.838.787q-.55.35-1.187.325T5.9 13.9q-.425-.425-.413-1.037T6 11.9q1.325-.925 2.85-1.412T12 10q1.275 0 2.475.3t2.325.875q-.6.5-.987 1.163t-.613 1.387q-.75-.35-1.562-.537T12 13m0-6q-2.225 0-4.3.688T3.875 9.724q-.5.4-1.137.388T1.65 9.65q-.425-.425-.425-1.05t.5-1q2.2-1.75 4.825-2.675T12 4t5.45.925T22.275 7.6q.5.375.5 1t-.425 1.05q-.45.45-1.088.463t-1.137-.388q-1.75-1.35-3.825-2.037T12 7"/></svg>