<svg xmlns="http://www.w3.org/2000/svg" viewBox="0 0 24 24" width="24" height="24"><path fill="currentColor" d="M15 20q-.625 0-1.062-.437T13.5 18.5v-2.4l-3-2.1v4.5q0 .625-.437 1.063T9 20t-1.062-.437T7.5 18.5v-6.6L1.75 7.875q-.425-.3-.513-.8t.213-.925t.812-.525t.938.2l17.6 12.35q.425.3.525.8t-.2.925t-.812.513t-.938-.213l-2.875-2v.3q0 .625-.437 1.063T15 20m7.5-3.7l-3-2.1V5.5q0-.625.438-1.062T21 4t1.063.438T22.5 5.5zm-21 2.2v-5q0-.625.438-1.062T3 12t1.063.438T4.5 13.5v5q0 .625-.437 1.063T3 20t-1.062-.437T1.5 18.5m15-6.4l-3-2.1V8.5q0-.625.438-1.062T15 7t1.063.438T16.5 8.5z"/></svg>