<svg xmlns="http://www.w3.org/2000/svg" viewBox="0 0 24 24" width="24" height="24"><path fill="currentColor" d="M12 6.5q-2.55 0-4.913.85T2.775 9.775q-.425.35-.937.338T.95 9.725t-.362-.887T1 7.975q2.325-1.95 5.15-2.962T12 4t5.85 1.013T23 7.975q.4.35.413.863t-.363.887t-.888.388t-.937-.338Q19.275 8.2 16.913 7.35T12 6.5M12 20q-.825 0-1.412-.587T10 18t.588-1.412T12 16t1.413.588T14 18t-.587 1.413T12 20m0-5.5q-.95 0-1.85.25t-1.7.75q-.45.275-.975.263t-.9-.388t-.35-.875t.45-.8q1.175-.825 2.525-1.263T12 12q1.05 0 2.025.225t1.9.65q-.5.425-.888.938T14.4 14.95q-.575-.225-1.175-.337T12 14.5m7.025 5.5q-.375 0-.65-.25t-.275-.6t.263-.587t.662-.238q.375 0 .638.238t.262.587t-.25.6t-.65.25m.7-4.675q0-.325-.187-.487T19 14.675q-.2 0-.337.05t-.263.175q-.2.175-.437.275t-.463-.025q-.25-.125-.337-.362t.062-.438q.35-.475.813-.662t1.037-.188q.95 0 1.5.45t.55 1.25q0 .425-.238.813t-.712.737q-.275.2-.4.388t-.125.412q0 .15-.1.25t-.25.1h-.575q-.175 0-.3-.125t-.125-.3q0-.375.175-.65t.6-.625q.35-.275.5-.475t.15-.4M12 10.5q-1.75 0-3.375.538T5.6 12.625q-.425.325-.937.313t-.888-.388q-.35-.375-.337-.875t.412-.825q1.75-1.4 3.838-2.125T12.025 8t4.325.725t3.825 2.1q.275.2.363.525t.012.65q-.35-.125-.725-.175t-.775-.05q-.425 0-.812.062t-.763.188q-1.25-.725-2.625-1.125T12 10.5"/></svg>