<svg xmlns="http://www.w3.org/2000/svg" viewBox="0 0 24 24" width="24" height="24"><path fill="currentColor" d="M1 12.5V11q0-.625.438-1.062T2.5 9.5t1.063.438T4 11v1.5q0 .625-.437 1.063T2.5 14t-1.062-.437T1 12.5m4.75 0v-3q0-.625.438-1.062T7.25 8t1.063.438T8.75 9.5v3q0 .625-.437 1.063T7.25 14t-1.062-.437T5.75 12.5m4.75 0v-4q0-.625.438-1.062T12 7t1.063.438T13.5 8.5v4q0 .625-.437 1.063T12 14t-1.062-.437T10.5 12.5m4.75 0v-5q0-.625.438-1.062T16.75 6t1.063.438t.437 1.062v5q0 .625-.437 1.063T16.75 14t-1.062-.437t-.438-1.063m4.75 0v-7q0-.625.438-1.062T21.5 4t1.063.438T23 5.5v7q0 .625-.437 1.063T21.5 14t-1.062-.437T20 12.5m-19 6v-1q0-.625.438-1.062T2.5 16t1.063.438T4 17.5v1q0 .625-.437 1.063T2.5 20t-1.062-.437T1 18.5m4.75 0v-1q0-.625.438-1.062T7.25 16t1.063.438t.437 1.062v1q0 .625-.437 1.063T7.25 20t-1.062-.437T5.75 18.5m4.75 0v-1q0-.625.438-1.062T12 16t1.063.438t.437 1.062v1q0 .625-.437 1.063T12 20t-1.062-.437T10.5 18.5m4.75 0v-1q0-.625.438-1.062T16.75 16t1.063.438t.437 1.062v1q0 .625-.437 1.063T16.75 20t-1.062-.437t-.438-1.063m4.75 0v-1q0-.625.438-1.062T21.5 16t1.063.438T23 17.5v1q0 .625-.437 1.063T21.5 20t-1.062-.437T20 18.5"/></svg>