<svg xmlns="http://www.w3.org/2000/svg" viewBox="0 0 24 24" width="24" height="24"><path fill="currentColor" d="M17.85 20q-.35 0-.6-.25t-.25-.6v-3.3q0-.35.25-.6t.6-.25H18v-1q0-.825.588-1.412T20 12t1.413.588T22 14v1h.15q.35 0 .6.25t.25.6v3.3q0 .35-.25.6t-.6.25zM19 15h2v-1q0-.425-.288-.712T20 13t-.712.288T19 14zm-7 5q-.825 0-1.412-.587T10 18t.588-1.412T12 16t1.413.588T14 18t-.587 1.413T12 20m0-9.5q-1.75 0-3.375.538T5.6 12.625q-.425.325-.937.313t-.888-.388q-.35-.375-.337-.875t.412-.825q1.75-1.4 3.838-2.125T12.025 8q1.9 0 3.7.538t3.4 1.562q-.75.125-1.437.488t-1.238.912q-1.05-.475-2.175-.737T12 10.5m0 4q-.95 0-1.85.25t-1.7.75q-.45.275-.975.263t-.9-.388t-.35-.875t.45-.8q1.175-.825 2.525-1.263T12 12q.925 0 1.825.188t1.75.537q-.3.575-.437 1.2T15 15.2q-.7-.375-1.45-.537T12 14.5m0-8q-2.55 0-4.913.85T2.775 9.775q-.425.35-.937.338T.95 9.725t-.362-.887T1 7.975q2.325-1.95 5.15-2.962T12 4t5.85 1.013T23 7.975q.4.35.413.863t-.363.887t-.888.388t-.937-.338Q19.275 8.2 16.913 7.35T12 6.5"/></svg>