<svg xmlns="http://www.w3.org/2000/svg" viewBox="0 0 24 24" width="24" height="24"><path fill="currentColor" d="M11 11.15V8q0-.425.288-.712T12 7t.713.288T13 8v3.15l.9-.875q.275-.275.688-.275t.712.3q.275.275.275.7t-.275.7l-2.6 2.6q-.3.3-.7.3t-.7-.3l-2.6-2.6q-.275-.275-.287-.687T8.7 10.3q.275-.275.688-.288t.712.263zM7 23q-.825 0-1.412-.587T5 21V3q0-.825.588-1.412T7 1h10q.825 0 1.413.588T19 3v18q0 .825-.587 1.413T17 23zm0-7h10V6H7zm3.5 4h3q.2 0 .35-.15t.15-.35t-.15-.35t-.35-.15h-3q-.2 0-.35.15t-.15.35t.15.35t.35.15"/></svg>