<svg xmlns="http://www.w3.org/2000/svg" viewBox="0 0 24 24" width="24" height="24"><path fill="currentColor" d="m13.925 8.225l4.975-4.95q.275-.275.688-.288t.712.288q.275.275.275.7t-.275.7l-5.675 5.675q-.15.15-.325.213t-.375.062t-.375-.062t-.325-.213l-2.85-2.85q-.3-.3-.288-.7t.313-.7q.3-.275.7-.288t.7.288zM21.25 22.65q-.275.275-.7.275t-.7-.275L1.35 4.15q-.275-.275-.275-.7t.275-.7t.7-.275t.7.275l18.5 18.5q.275.275.275.7t-.275.7M2 20v-7q0-.825.588-1.412T4 11t1.413.588T6 13v7q0 .825-.587 1.413T4 22t-1.412-.587T2 20m6 .025V11h1.6q.175 0 .35.038t.35.087l1.275.45L16 16h-1.825q-.125 0-.187-.012t-.163-.063l-1.6-.625q-.2-.075-.387.025t-.263.3t.025.388t.3.262l1.925.675q.05.025.15.038t.175.012H17l3.075 3.075l-4.425 1.7q-.3.125-.612.138t-.638-.088z"/></svg>