<svg xmlns="http://www.w3.org/2000/svg" viewBox="0 0 24 24" width="24" height="24"><path fill="currentColor" d="M12 4q3.35 0 5.675 2.325T20 12t-2.325 5.675T12 20t-5.675-2.325T4 12t2.325-5.675T12 4m-3.5 6q0 .425.288.713T9.5 11t.713-.288T10.5 10t-.288-.712T9.5 9t-.712.288T8.5 10m5 0q0 .425.288.713T14.5 11t.713-.288T15.5 10t-.288-.712T14.5 9t-.712.288T13.5 10M1 5V3q0-.825.588-1.412T3 1h2q.425 0 .713.288T6 2t-.288.713T5 3H3v2q0 .425-.288.713T2 6t-.712-.288T1 5m4 18H3q-.825 0-1.412-.587T1 21v-2q0-.425.288-.712T2 18t.713.288T3 19v2h2q.425 0 .713.288T6 22t-.288.713T5 23m16 0h-2q-.425 0-.712-.288T18 22t.288-.712T19 21h2v-2q0-.425.288-.712T22 18t.713.288T23 19v2q0 .825-.587 1.413T21 23m0-18V3h-2q-.425 0-.712-.288T18 2t.288-.712T19 1h2q.825 0 1.413.588T23 3v2q0 .425-.288.713T22 6t-.712-.288T21 5m-9 10.5q.95 0 1.763-.45t1.312-1.225q.15-.275-.012-.55T14.575 13h-5.15q-.325 0-.488.275t-.012.55q.5.775 1.313 1.225T12 15.5"/></svg>