<svg xmlns="http://www.w3.org/2000/svg" viewBox="0 0 24 24" width="24" height="24"><path fill="currentColor" d="M11 17.175V13q0-.825-.587-1.412T9 11H3q-.825 0-1.412-.587T1 9V4q0-.425.288-.712T2 3t.713.288T3 4v5h6q.9 0 1.675.363T12 10.35q.55-.625 1.325-.987T15 9h6V4q0-.425.288-.712T22 3t.713.288T23 4v5q0 .825-.587 1.413T21 11h-6q-.825 0-1.412.588T13 13v4.175l.875-.875q.275-.275.688-.275t.712.275q.3.3.3.713t-.3.712L12.7 20.3q-.3.3-.7.3t-.7-.3l-2.6-2.6q-.275-.275-.287-.687T8.7 16.3q.275-.275.7-.275t.7.275z"/></svg>