<svg xmlns="http://www.w3.org/2000/svg" viewBox="0 0 24 24" width="24" height="24"><path fill="currentColor" d="M4.25 14q.15.575.363 1.1t.487 1q.225.375.175.8t-.325.7t-.688.263t-.637-.363q-.525-.8-.888-1.65t-.562-1.8q-.1-.4.163-.725T3.025 13t.763.275t.462.725m.85-6.1q-.275.475-.487 1T4.25 10q-.125.45-.462.725T3.025 11t-.687-.3t-.163-.7q.2-.975.575-1.875t.9-1.65q.225-.325.625-.337t.675.262t.325.7t-.175.8m2.775 10.95q.5.3 1.025.525t1.075.375q.425.125.7.45t.275.75t-.3.675t-.7.175q-.925-.2-1.787-.55T6.5 20.375q-.35-.225-.387-.638t.237-.712q.3-.3.725-.35t.8.175m2.15-14.6q-.55.15-1.062.363t-1.013.512q-.4.225-.837.188t-.738-.338t-.275-.7t.375-.625q.825-.525 1.713-.887t1.837-.563q.375-.075.675.175t.3.675t-.275.75t-.7.45m6.05 14.625q.375-.225.813-.187t.737.337t.275.713t-.375.612q-.8.525-1.7.888t-1.85.562q-.4.075-.712-.175t-.313-.675t.288-.75t.712-.45q.575-.15 1.1-.362t1.025-.513m-2.1-14.625q-.425-.125-.7-.45T13 3.05t.3-.675t.675-.175q.95.2 1.85.563t1.7.887q.35.225.375.625t-.25.7q-.3.3-.725.35T16.1 5.15q-.525-.3-1.05-.525t-1.075-.375m5.775 9.725q.125-.425.463-.7t.762-.275t.687.325t.163.725q-.2.95-.587 1.825T20.35 17.5q-.225.325-.625.35t-.675-.25t-.325-.712t.175-.813q.275-.5.488-1.012t.362-1.088M18.9 7.9q-.225-.375-.175-.8t.325-.7t.675-.25t.625.35q.55.8.925 1.675T21.85 10q.075.4-.188.7t-.687.3t-.763-.275T19.75 10q-.15-.575-.362-1.1t-.488-1M11.975 17q-.425 0-.712-.288T10.975 16v-5.125l-1.875 1.9q-.3.3-.712.3t-.713-.3t-.312-.712t.287-.713l3.625-3.65q.275-.275.7-.275t.7.275l3.575 3.575q.3.3.313.725t-.288.725t-.725.3t-.725-.3l-1.85-1.85V16q0 .425-.287.713t-.713.287"/></svg>