<svg xmlns="http://www.w3.org/2000/svg" viewBox="0 0 24 24" width="24" height="24"><path fill="currentColor" d="M8 9h8q.425 0 .713-.288T17 8t-.288-.712T16 7H8q-.425 0-.712.288T7 8t.288.713T8 9m3 12q-.425 0-.712-.288T10 20v-3h3q.425 0 .713-.288T14 16t-.288-.712T13 15h-3v-2h6q.425 0 .713-.288T17 12t-.288-.712T16 11H9.825v.025q-.325-.875-1.087-1.45T7 9H4q-.425 0-.712-.288T3 8V5q0-.825.588-1.412T5 3h14q.825 0 1.413.588T21 5v14q0 .825-.587 1.413T19 21zm-4.375 1q-1.975 0-3.363-1.388T1.875 17.25q0-1.425.738-2.55T4.55 13H3q-.425 0-.712-.288T2 12t.288-.712T3 11h4q.425 0 .713.288T8 12v4q0 .425-.288.713T7 17t-.712-.288T6 16v-1.425q-.925.2-1.525.95t-.6 1.725q0 1.15.812 1.95t1.938.8q.425 0 .713.288t.287.712t-.288.713t-.712.287"/></svg>