<svg xmlns="http://www.w3.org/2000/svg" viewBox="0 0 24 24" width="24" height="24"><path fill="currentColor" d="M12 4.25q.325 0 .538-.213t.212-.537t-.213-.537T12 2.75t-.537.213t-.213.537t.213.538t.537.212M18 23q-2.075 0-3.537-1.463T13 18t1.463-3.537T18 13t3.538 1.463T23 18t-1.463 3.538T18 23M5 21q-.825 0-1.412-.587T3 19V5q0-.825.588-1.412T5 3h4.2q.325-.9 1.088-1.45T12 1t1.713.55T14.8 3H19q.825 0 1.413.588T21 5v5.45q0 .45-.375.7t-.8.1q-.425-.125-.888-.188T18 11q-.275 0-.513.013t-.487.062q-.125-.025-.3-.05q-.125 0-.312-.012T16 11H8q-.425 0-.712.288T7 12t.288.713T8 13h5.125q-.45.425-.812.925T11.675 15H8q-.425 0-.712.288T7 16t.288.713T8 17h3.075q-.05.25-.062.488T11 18q0 .5.05.95t.175.875t-.125.8t-.675.375zm12.5-2.5v2q0 .2.15.35T18 21t.35-.15t.15-.35v-2h2q.2 0 .35-.15T21 18t-.15-.35t-.35-.15h-2v-2q0-.2-.15-.35T18 15t-.35.15t-.15.35v2h-2q-.2 0-.35.15T15 18t.15.35t.35.15zM8 9h8q.425 0 .713-.288T17 8t-.288-.712T16 7H8q-.425 0-.712.288T7 8t.288.713T8 9"/></svg>