<svg xmlns="http://www.w3.org/2000/svg" viewBox="0 0 24 24" width="24" height="24"><path fill="currentColor" d="m13.075 20.175l.775-7.45q-1.425-.375-2.15-.987T10.25 10.4l-2.375 2.35L9.7 14.575q.15.15.225.338T10 15.3V20q0 .425-.288.713T9 21t-.712-.288T8 20v-4.25l-.775-.7l.125.925q.025.2-.025.4t-.175.35L4.325 20.35q-.25.325-.663.375t-.737-.225t-.375-.675t.225-.725L5.3 15.85l-1.425-2.8q-.2-.425-.225-1.063t.425-1.087l3.35-3.3q.3-.3.663-.45T8.825 7q.6 0 .95.225t.475.35l2 1.975q.675.675 1.65 1.062T16 11h1.65q.575 0 1 .387t.475.963l.65 6.35q.325.2.525.537t.2.763q0 .625-.438 1.062T19 21.5t-1.075-.437t-.45-1.063q0-.425.2-.763t.55-.537l-.125-1.2h-3.25l-.275 2.825q-.05.275-.262.475t-.488.2q-.35 0-.575-.238t-.175-.587M12.5 7.5q-.825 0-1.412-.587T10.5 5.5t.588-1.412T12.5 3.5t1.413.588T14.5 5.5t-.587 1.413T12.5 7.5M15 16h2.95l-.35-3.5h-2.225z"/></svg>