<svg xmlns="http://www.w3.org/2000/svg" viewBox="0 0 24 24" width="24" height="24"><path fill="currentColor" d="M11.75 22q-2.6 0-4.425-1.825T5.5 15.75V6.5q0-1.875 1.313-3.187T10 2t3.188 1.313T14.5 6.5V13q0 .425-.288.713T13.5 14t-.712-.288T12.5 13V6.5q-.025-1.05-.737-1.775T10 4t-1.775.725T7.5 6.5v9.25q-.025 1.775 1.225 3.013T11.75 20q.425 0 .8-.088t.725-.212q.4-.15.775.013t.525.562t-.012.775t-.563.525q-.525.2-1.087.313T11.75 22M17 21q-.425 0-.712-.288T16 20v-2h-2q-.425 0-.712-.288T13 17t.288-.712T14 16h2v-2q0-.425.288-.712T17 13t.713.288T18 14v2h2q.425 0 .713.288T21 17t-.288.713T20 18h-2v2q0 .425-.288.713T17 21m-7-4q-.425 0-.712-.288T9 16V7q0-.425.288-.712T10 6t.713.288T11 7v9q0 .425-.288.713T10 17m7-6q-.425 0-.712-.288T16 10V7q0-.425.288-.712T17 6t.713.288T18 7v3q0 .425-.288.713T17 11"/></svg>