<svg xmlns="http://www.w3.org/2000/svg" viewBox="0 0 24 24" width="24" height="24"><path fill="currentColor" d="M10 15q-.425 0-.712-.288T9 14v-4q0-.425.288-.712T10 9t.713.288T11 10v4q0 .425-.288.713T10 15m4 0q-.425 0-.712-.288T13 14v-4q0-.425.288-.712T14 9t.713.288T15 10v4q0 .425-.288.713T14 15m-2 8q-2.7 0-5.062-1.237T3 18.3V20q0 .425-.288.713T2 21t-.712-.288T1 20v-4q0-.425.288-.712T2 15h4q.425 0 .713.288T7 16t-.288.713T6 17H4.55q1.275 1.875 3.238 2.938T12 21q2.6 0 4.75-1.35t3.3-3.625q.225-.425.588-.675t.837-.15q.45.1.587.512t-.087.888q-1.35 2.9-4.025 4.65T12 23M2.075 11q-.425 0-.688-.312T1.2 9.95q.25-1.175.65-2.162T2.925 5.8q.25-.375.65-.425t.725.275q.35.35.35.763t-.275.837q-.425.65-.675 1.3t-.45 1.425q-.1.45-.413.738T2.076 11m5.2-6.625q-.4.275-.812.25T5.7 4.25q-.3-.3-.262-.687t.387-.663q.975-.65 1.938-1.062T9.9 1.2q.45-.075.775.175T11 2.05q0 .475-.288.775t-.762.4q-.75.175-1.387.45t-1.288.7m9.475-.025q-.65-.425-1.3-.675t-1.425-.45q-.45-.1-.738-.413T13 2.05q0-.425.313-.675t.737-.175q1.2.225 2.175.625T18.2 2.9q.35.25.4.65t-.25.7q-.35.35-.775.363t-.825-.263m5.2 6.65q-.475 0-.775-.288t-.4-.762q-.2-.775-.462-1.412t-.688-1.313q-.275-.4-.25-.812t.375-.763q.3-.3.688-.25t.662.4q.675 1 1.075 1.975T22.8 9.95q.075.425-.175.738T21.95 11"/></svg>