<svg xmlns="http://www.w3.org/2000/svg" viewBox="0 0 24 24" width="24" height="24"><path fill="currentColor" d="m4.05 7.95l-1.375-.625q-.2-.1-.2-.325t.2-.325L4.05 6.05l.625-1.375q.1-.2.325-.2t.325.2L5.95 6.05l1.375.625q.2.1.2.325t-.2.325L5.95 7.95l-.625 1.375q-.1.2-.325.2t-.325-.2L4.05 7.95Zm13.325-2.325l-.7-.325q-.2-.1-.2-.3t.2-.3l.7-.325l.325-.7q.1-.2.3-.2t.3.2l.325.7l.7.325q.2.1.2.3t-.2.3l-.7.325l-.325.7q-.1.2-.3.2t-.3-.2l-.325-.7Zm2 4l-.7-.325q-.2-.1-.2-.3t.2-.3l.7-.325l.325-.7q.1-.2.3-.2t.3.2l.325.7l.7.325q.2.1.2.3t-.2.3l-.7.325l-.325.7q-.1.2-.3.2t-.3-.2l-.325-.7ZM12 15q-1.25 0-2.125-.875T9 12V6q0-1.25.875-2.125T12 3q1.25 0 2.125.875T15 6v6q0 1.25-.875 2.125T12 15Zm0 7q-.425 0-.713-.288T11 21v-2.1q-2.325-.3-3.95-1.925t-1.975-3.9q-.075-.425.225-.75T6.1 12q.35 0 .625.262t.35.638q.325 1.75 1.7 2.925T12 17q1.85 0 3.225-1.175t1.7-2.925q.075-.375.362-.638t.638-.262q.475 0 .775.325t.225.75q-.35 2.275-1.975 3.9T13 18.9V21q0 .425-.288.713T12 22Z"/></svg>