<svg xmlns="http://www.w3.org/2000/svg" viewBox="0 0 24 24" width="24" height="24"><path fill="currentColor" d="M11.3 19.5q-1.075-.725-2.3-1.112T6.5 18q-1.05 0-2.062.275T2.5 19.05q-.525.275-1.012-.025T1 18.15V6.1q0-.275.138-.525T1.55 5.2q.15-.075.288-.15t.287-.125L1.35 4.15q-.275-.275-.275-.7t.275-.7t.7-.275t.7.275l18.5 18.5q.275.275.275.7t-.275.7t-.7.275t-.7-.275l-4.4-4.4q-.725.2-1.412.513T12.7 19.5q-.325.2-.7.2t-.7-.2M12 9.15L6.85 4q1.175.05 2.3.325t2.175.8q.325.15.5.463T12 6.25zm0 8.45q.45-.275.913-.5t.962-.425L12 14.8zm4.025-4.425L14 11.15V6.325q0-.4.15-.763t.425-.637L17.3 2.2q.475-.475 1.088-.213t.612.938V9.6q0 .425-.162.825t-.488.675zm6 6L18.95 16.1q.525.075 1.038.2t1.012.3V6.1q0-.5.313-.75T22 5.1t.688.25t.312.75v12.05q0 .425-.288.713t-.687.312"/></svg>