<svg xmlns="http://www.w3.org/2000/svg" viewBox="0 0 24 24" width="24" height="24"><path fill="currentColor" d="M7 21q-.825 0-1.412-.587T5 19V6q-.425 0-.712-.288T4 5t.288-.712T5 4h4q0-.425.288-.712T10 3h4q.425 0 .713.288T15 4h4q.425 0 .713.288T20 5t-.288.713T19 6v3.15q0 .425-.337.7t-.788.2q-.2-.025-.425-.038T17 10q-.5 0-1 .063t-1 .212V9q0-.425-.288-.712T14 8t-.712.288T13 9v2.25q-.6.425-1.112.963T11 13.4V9q0-.425-.288-.712T10 8t-.712.288T9 9v7q0 .425.288.713T10 17q0 .725.163 1.438T10.6 19.8q.2.425-.037.813T9.9 21zm10 1q-2.075 0-3.537-1.463T12 17t1.463-3.537T17 12t3.538 1.463T22 17t-1.463 3.538T17 22m.5-5.2v-2.3q0-.2-.15-.35T17 14t-.35.15t-.15.35v2.275q0 .2.075.388t.225.337l1.5 1.5q.15.15.35.15T19 19t.15-.35t-.15-.35z"/></svg>