<svg xmlns="http://www.w3.org/2000/svg" viewBox="0 0 24 24" width="24" height="24"><path fill="currentColor" d="M3 19V5q0-.825.588-1.413T5 3h7q.425 0 .713.288T13 4h2q.825 0 1.413.588T17 6v5q0 .425-.288.713T16 12q-.425 0-.713-.288T15 11V6h-2v14q0 .425-.288.713T12 21H2q-.425 0-.713-.288T1 20q0-.425.288-.713T2 19h1Zm6-6q.425 0 .713-.288T10 12q0-.425-.288-.713T9 11q-.425 0-.713.288T8 12q0 .425.288.713T9 13Zm8.75 6.25l.8 1.75q.125.3.45.3t.45-.3l.8-1.75l1.75-.8q.3-.125.3-.45t-.3-.45l-1.75-.8l-.8-1.75q-.125-.3-.45-.3t-.45.3l-.8 1.75l-1.75.8q-.3.125-.3.45t.3.45l1.75.8Z"/></svg>