<svg xmlns="http://www.w3.org/2000/svg" viewBox="0 0 24 24" width="24" height="24"><path fill="currentColor" d="M1 16v-2q0-.425.288-.712T2 13h7.2L3 8.1V10q0 .425-.288.713T2 11t-.712-.288T1 10V6.15q0-.575.488-.862t.987-.013L13 11.05V5q0-.425.288-.712T14 4h3.075q.45 0 .85.188t.675.537l3.925 4.725q.225.275.35.6t.125.675V16q0 .425-.287.713T22 17h-1.5q0 1.25-.875 2.125T17.5 20t-2.125-.875T14.5 17H9q0 1.25-.875 2.125T6 20t-2.125-.875T3 17H2q-.425 0-.712-.288T1 16m5 2.5q.65 0 1.075-.425T7.5 17t-.425-1.075T6 15.5t-1.075.425T4.5 17t.425 1.075T6 18.5m11.5 0q.65 0 1.075-.425T19 17t-.425-1.075T17.5 15.5t-1.075.425T16 17t.425 1.075t1.075.425M15 10h5.4l-3.35-4H15z"/></svg>