<svg xmlns="http://www.w3.org/2000/svg" viewBox="0 0 24 24" width="24" height="24"><path fill="currentColor" d="M12 21q-1.85 0-3.488-.712T5.65 18.35t-1.937-2.863T3 12q0-1.95.75-3.65t2.1-2.925q.325-.275.725-.263t.675.288l5.45 5.45q.275.275.275.7t-.275.7t-.7.275t-.7-.275L6.6 7.6q-.75.9-1.175 2.013T5 12q0 2.9 2.05 4.95T12 19t4.95-2.05T19 12q0-2.675-1.713-4.612T13 5.1V6q0 .425-.288.713T12 7t-.712-.288T11 6V4q0-.425.288-.712T12 3q1.85 0 3.488.713T18.35 5.65t1.938 2.863T21 12t-.712 3.488t-1.938 2.862t-2.863 1.938T12 21m-5-8q-.425 0-.712-.288T6 12t.288-.712T7 11t.713.288T8 12t-.288.713T7 13m5 5q-.425 0-.712-.288T11 17t.288-.712T12 16t.713.288T13 17t-.288.713T12 18m5-5q-.425 0-.712-.288T16 12t.288-.712T17 11t.713.288T18 12t-.288.713T17 13"/></svg>