<svg xmlns="http://www.w3.org/2000/svg" viewBox="0 0 24 24" width="24" height="24"><path fill="currentColor" d="M16 15h2.5q.425 0 .713-.288T19.5 14v-.5q0-.325-.213-.537t-.537-.213q-.3 0-.525.225T18 13.5h-1.5v-3H18q0 .325.213.538t.537.212t.538-.213t.212-.537V10q0-.425-.288-.712T18.5 9H16q-.425 0-.712.288T15 10v4q0 .425.288.713T16 15M3 20q-.825 0-1.412-.587T1 18V6q0-.825.588-1.412T3 4h18q.825 0 1.413.588T23 6v12q0 .825-.587 1.413T21 20zm3-6.5h1.5v.75q0 .325.213.538T8.25 15t.538-.213T9 14.25V10q0-.425-.288-.712T8 9H5.5q-.425 0-.712.288T4.5 10v4.25q0 .325.213.538T5.25 15t.538-.213T6 14.25zM6 12v-1.5h1.5V12zm6 .425l-.85-2.9q-.075-.225-.262-.375T10.45 9q-.35 0-.562.288t-.113.637l1.325 4.55q.075.225.263.375t.437.15h.4q.25 0 .438-.15t.262-.375l1.325-4.55q.1-.35-.112-.638T13.55 9q-.25 0-.437.15t-.263.375z"/></svg>