<svg xmlns="http://www.w3.org/2000/svg" viewBox="0 0 24 24" width="24" height="24"><path fill="currentColor" d="m12 14.475l1.925 1.15q.275.175.538-.012t.187-.513l-.5-2.175l1.7-1.475q.25-.225.15-.537t-.45-.338l-2.225-.175l-.875-2.075q-.125-.3-.45-.3t-.45.3l-.875 2.075l-2.225.175q-.35.025-.45.338t.15.537l1.7 1.475l-.5 2.175q-.075.325.188.513t.537.012zM8.65 20H6q-.825 0-1.412-.587T4 18v-2.65L2.075 13.4q-.275-.3-.425-.662T1.5 12t.15-.737t.425-.663L4 8.65V6q0-.825.588-1.412T6 4h2.65l1.95-1.925q.3-.275.663-.425T12 1.5t.738.15t.662.425L15.35 4H18q.825 0 1.413.588T20 6v2.65l1.925 1.95q.275.3.425.663t.15.737t-.15.738t-.425.662L20 15.35V18q0 .825-.587 1.413T18 20h-2.65l-1.95 1.925q-.3.275-.662.425T12 22.5t-.737-.15t-.663-.425z"/></svg>