<svg xmlns="http://www.w3.org/2000/svg" viewBox="0 0 24 24" width="24" height="24"><path fill="currentColor" d="M4 7.425V10q0 .425-.288.713T3 11t-.712-.288T2 10V5q0-.425.288-.712T3 4h5q.425 0 .713.288T9 5t-.288.713T8 6H5.4l3.575 3.575q.3.3.313.7t-.288.7t-.712.3t-.713-.3zM4 20q-.825 0-1.412-.587T2 18v-4q0-.425.288-.712T3 13t.713.288T4 14v4h7q.425 0 .713.288T12 19t-.288.713T11 20zm17-7q-.425 0-.712-.288T20 12V6h-8q-.425 0-.712-.288T11 5t.288-.712T12 4h8q.825 0 1.413.588T22 6v6q0 .425-.288.713T21 13m-6 7q-.425 0-.712-.288T14 19v-3q0-.425.288-.712T15 15h6q.425 0 .713.288T22 16v3q0 .425-.288.713T21 20z"/></svg>