<svg xmlns="http://www.w3.org/2000/svg" viewBox="0 0 24 24" width="24" height="24"><path fill="currentColor" d="M9 12q-.425 0-.712-.288T8 11t.288-.712T9 10t.713.288T10 11t-.288.713T9 12m6 0q-.425 0-.712-.288T14 11t.288-.712T15 10t.713.288T16 11t-.288.713T15 12M5 22q-.825 0-1.412-.587T3 20v-4q0-.5.238-.962T4 14.275V10q0-1.65.625-3.113t1.713-2.55t2.55-1.712T12 2t3.113.625t2.55 1.713t1.712 2.55T20 10v4.275q.525.3.763.763T21 16v4q0 .825-.587 1.413T19 22zm0-6v4h2v-4zm4 4h2v-4H9zm-3-6h5V4.075q-2.15.35-3.575 2.012T6 10zm7 0h5v-4q0-2.25-1.425-3.912T13 4.075zm0 6h2v-4h-2zm4 0h2v-4h-2z"/></svg>