<svg xmlns="http://www.w3.org/2000/svg" viewBox="0 0 24 24" width="24" height="24"><path fill="currentColor" d="M16 10q.425 0 .713-.288T17 9t-.288-.712T16 8h-3q-.425 0-.712.288T12 9t.288.713T13 10zm0 6q.425 0 .713-.288T17 15t-.288-.712T16 14h-3q-.425 0-.712.288T12 15t.288.713T13 16zm-7-5q.825 0 1.413-.587T11 9t-.587-1.412T9 7t-1.412.588T7 9t.588 1.413T9 11m0 6q.825 0 1.413-.587T11 15t-.587-1.412T9 13t-1.412.588T7 15t.588 1.413T9 17m-4 4q-.825 0-1.412-.587T3 19V5q0-.825.588-1.412T5 3h14q.825 0 1.413.588T21 5v14q0 .825-.587 1.413T19 21z"/></svg>