<svg xmlns="http://www.w3.org/2000/svg" viewBox="0 0 24 24" width="24" height="24"><path fill="currentColor" d="M6 21q-1.5 0-2.387-1.162T3.1 17.25l1.8-6.8q-.825-.525-1.362-1.425T3 7q0-1.65 1.175-2.825T7 3h8q1.125 0 1.7.95t.075 1.95l-2 4q-.275.5-.738.8T13 11h-2.025l-.275 1h.3q.425 0 .713.288T12 13v2q0 .425-.288.713T11 16H9.65l-.75 2.8q-.275.975-1.075 1.588T6 21M21.925 3.675L19.675 4.7q-.275.125-.562.013t-.413-.388t-.025-.562t.375-.413l2.25-1.025q.275-.125.575-.012t.425.387t.013.563t-.388.412m-2.85 7q-.275-.125-.4-.425t0-.575q.125-.3.425-.4t.6.025l2.25 1.05q.275.125.375.413t-.025.562t-.412.388t-.563-.013zM22.25 7.75h-2.5q-.325 0-.537-.213T19 7t.213-.537t.537-.213h2.5q.325 0 .538.213T23 7t-.213.538t-.537.212"/></svg>