<svg xmlns="http://www.w3.org/2000/svg" viewBox="0 0 24 24" width="24" height="24"><path fill="currentColor" d="M4 22q-.825 0-1.412-.587T2 20v-8q0-.425.288-.712T3 11h.25q.122-.325.353-.575t.547-.45Q4.925 9.5 5.8 9.85T7.2 11H21q.425 0 .713.288T22 12v8q0 .825-.587 1.413T20 22zM3.5 9q-.85 0-1.425-.575T1.5 7q0-.825.575-1.412T3.5 5q.825 0 1.413.588T5.5 7q0 .85-.587 1.425T3.5 9M4 20h16v-2H8.475q-1.075 0-2.013-.525T5 16l-1-1.8zm5.425-5.5L20 15.85V13H8.475zm-.4-8.2q-.65-.8-.875-1.425T8.025 3.5T8.4 2.4t.775-.275q.45.05.675.4T10 3.4q-.05.425.125.85t.625.975q.6.725.838 1.388t.162 1.362q-.075.65-.375.95t-.775.25q-.425-.05-.65-.35t-.125-.7q.075-.35-.112-.787T9.024 6.3m4.025 0q-.65-.8-.888-1.425T12.026 3.5t.388-1.1t.787-.275q.45.05.675.4t.15.875q-.05.425.113.85t.612.975q.6.725.838 1.388t.162 1.362q-.075.65-.363.95t-.762.25q-.425-.05-.663-.35t-.137-.7q.075-.35-.1-.787T13.05 6.3m4.05 0q-.65-.8-.888-1.425T16.076 3.5t.388-1.1t.787-.275q.45.05.675.4t.15.875q-.05.425.113.85t.612.975q.6.725.838 1.388t.162 1.362q-.075.65-.363.95t-.762.25q-.425-.05-.663-.35t-.137-.7q.075-.35-.1-.787T17.1 6.3"/></svg>