<svg xmlns="http://www.w3.org/2000/svg" viewBox="0 0 24 24" width="24" height="24"><path fill="currentColor" d="M6 11.275V13.6q-.5.35-.75.713T5 15q0 .15.038.3t.137.3L6 16h1.9q.15 0 .288.088t.187.237l.025.1l.925-.35q.075-.025.35-.075h3.575q.125 0 .225.05t.175.15l.575.75l2.675-.4l.95-1.35q.075-.1.175-.15t.225-.05H19q0-.325-.25-.687T18 13.6v-2.325q1.45.725 2.225 1.688T21 15l.875 1.3q.05.1.075.2t-.025.225l-.8 2.425q-.05.15-.175.25t-.3.1H17.9l.025.1q.05.175-.038.325t-.262.225l-1.95.775q-.05.025-.375.075H8.85q-.15 0-.288-.088t-.187-.237l-.125-.325l-2.525.6q-.125.025-.213 0t-.187-.075L2.2 18.65q-.1-.075-.15-.175T2 18.25V16.3q0-.15.075-.275t.2-.175l.775-.375q-.025-.125-.037-.237T3 15q0-1.075.775-2.037T6 11.275m-.225-2.2q-.55-.725-.888-1.575T4.55 5.725v-.35q0-.175.025-.35q.05-.425.313-.725t.687-.3q.45 0 .75.3t.25.725q-.025.15-.038.313t-.012.312q0 .775.375 1.45t.85 1.3q.525.725.875 1.525t.35 1.675v.375q-.025.425-.3.725t-.7.3t-.738-.287T6.975 12Q7 11.875 7 11.775v-.225q0-.725-.4-1.312t-.825-1.163m4 0q-.55-.725-.888-1.575T8.55 5.725v-.35q0-.175.025-.35q.05-.425.313-.725t.687-.3q.45 0 .75.3t.25.725q-.025.15-.037.313t-.013.312q0 .775.375 1.45t.85 1.3q.525.725.875 1.525t.35 1.675v.375q-.025.425-.3.725t-.7.3t-.737-.287t-.263-.713q.025-.125.025-.225v-.225q0-.725-.4-1.312t-.825-1.163m4 0q-.55-.725-.888-1.575t-.337-1.775v-.35q0-.175.025-.35q.05-.425.313-.725t.687-.3q.45 0 .75.3t.25.725q-.025.15-.037.313t-.013.312q0 .775.375 1.45t.85 1.3q.525.725.875 1.525t.35 1.675v.375q-.025.425-.3.725t-.7.3t-.737-.287t-.263-.713q.025-.125.025-.225v-.225q0-.725-.4-1.312t-.825-1.163"/></svg>