<svg xmlns="http://www.w3.org/2000/svg" viewBox="0 0 24 24" width="24" height="24"><path fill="currentColor" d="M4 18q-1.275 0-2.137-.862T1 15V9q0-1.25.863-2.125T4 6h11q.425 0 .713.288T16 7t-.288.713T15 8H4q-.425 0-.712.288T3 9v6q0 .425.288.713T4 16h11q.425 0 .713.288T16 17t-.288.713T15 18zm0-4v-4q0-.425.288-.712T5 9h7q.425 0 .713.288T13 10v4q0 .425-.288.713T12 15H5q-.425 0-.712-.288T4 14m14-1h-2q-.425 0-.712-.288T15 12t.288-.712T16 11h2V9q0-.425.288-.712T19 8t.713.288T20 9v2h2q.425 0 .713.288T23 12t-.288.713T22 13h-2v2q0 .425-.288.713T19 16t-.712-.288T18 15z"/></svg>