<svg xmlns="http://www.w3.org/2000/svg" viewBox="0 0 24 24" width="24" height="24"><path fill="currentColor" d="M17 15.15q-.3 0-.537.138t-.413.362q-.125.2-.363.275t-.437-.025q-.225-.1-.325-.325t.025-.425q.325-.525.863-.837T17 14q.925 0 1.613.6t.687 1.5q0 .275-.075.513T19 17.05q-.275.4-.65.713t-.6.737q0 .025-.125.35q-.05.25-.213.425T17 19.45q-.275 0-.45-.187t-.15-.438q.025-.2.063-.362t.137-.338q.25-.425.638-.725t.662-.7q.075-.1.175-.575q0-.425-.325-.7T17 15.15M17 22q-.35 0-.6-.238t-.25-.587t.25-.6t.6-.25t.588.25t.237.6t-.237.588T17 22m-9 0q-.425 0-.712-.288T7 21V5q0-.425.288-.712T8 4h2V3q0-.425.288-.712T11 2h2q.425 0 .713.288T14 3v1h2q.425 0 .713.288T17 5v6.325q0 .275-.2.488t-.475.237q-1.05.125-1.95.563t-1.6 1.137q-.8.8-1.287 1.888T11 18q0 .75.175 1.45t.525 1.35q.2.425 0 .813t-.625.387z"/></svg>