<svg xmlns="http://www.w3.org/2000/svg" viewBox="0 0 24 24" width="24" height="24"><path fill="currentColor" d="M16.5 19h-1.55q-.3 0-.437-.262t.037-.513l2.5-3.575q.125-.15.288-.1t.162.25V17h1.55q.3 0 .438.263t-.038.512l-2.5 3.575q-.125.15-.288.1t-.162-.25zM8 22q-.425 0-.712-.288T7 21V5q0-.425.288-.712T8 4h2V3q0-.425.288-.712T11 2h2q.425 0 .713.288T14 3v1h2q.425 0 .713.288T17 5v6.325q0 .275-.2.475t-.475.25q-1.05.125-1.95.562t-1.6 1.138q-.8.8-1.287 1.888T11 18q0 .75.175 1.45t.525 1.35q.2.425 0 .813t-.625.387z"/></svg>