<svg xmlns="http://www.w3.org/2000/svg" viewBox="0 0 24 24" width="24" height="24"><path fill="currentColor" d="M4 18q-1.25 0-2.125-.875T1 15V9q0-1.25.875-2.125T4 6h14.175l-2 2H4q-.425 0-.712.288T3 9v6q0 .425.288.713T4 16h6q.425 0 .713.288T11 17t-.288.713T10 18zm1-3q-.425 0-.712-.288T4 14v-4q0-.425.288-.712T5 9h10.175q-1.725 0-2.95 1.113T11 13v1q0 .425-.288.713T10 15zm9 1q-.425 0-.712-.288T13 15v-2q0-.825.588-1.412T15 11h4.175l-.875-.9q-.275-.3-.275-.712T18.3 8.7q.3-.3.713-.288t.687.288l2.6 2.6q.3.3.3.7t-.3.7l-2.575 2.575q-.3.3-.712.3t-.713-.3t-.3-.7t.3-.7l.875-.875H15v2q0 .425-.288.713T14 16"/></svg>