<svg xmlns="http://www.w3.org/2000/svg" viewBox="0 0 24 24" width="24" height="24"><path fill="currentColor" d="M18.95 20.3L14 15.35q-.275-.275-.275-.7t.275-.7t.7-.275t.7.275l4.95 4.95q.275.275.275.7t-.275.7t-.7.275t-.7-.275M7.625 18.675q-.7.7-1.638.663t-1.437-.813q-1.5-2.325-1.588-5.037T4.2 8.375q.075.85.425 1.913t.963 2.237t1.462 2.413t1.875 2.437zM10.3 16q-1.2-1.2-2.1-2.613T6.788 10.65t-.575-2.412t.462-1.613q.525-.55 1.613-.5t2.425.563t2.75 1.425t2.612 2.112zm8.25-11.475q.775.5.825 1.425t-.65 1.625L17.45 8.85Q16.275 7.825 15.038 7t-2.4-1.45t-2.226-.988T8.5 4.125Q10.875 2.9 13.575 3t4.975 1.525"/></svg>