<svg xmlns="http://www.w3.org/2000/svg" viewBox="0 0 24 24" width="24" height="24"><path fill="currentColor" d="M13.075 10.9q1.5 1.5 3.425 2.25t4.05.675q.575-.025.938.388t.187.912q-.275.825-.7 1.6T20 18.2q-.325.4-.837.413t-.888-.363L5.75 5.725q-.35-.35-.35-.85t.4-.85q.625-.55 1.338-.95t1.537-.7q.55-.2 1.013.138t.437.912q-.075 2.125.688 4.05t2.262 3.425M17.7 23.35l-2.025-2q-.875.325-1.762.488T12.1 22q-2.1 0-3.937-.8t-3.2-2.162t-2.163-3.2T2 11.9q0-.925.163-1.812t.487-1.763L.7 6.375q-.3-.3-.3-.725t.3-.725t.725-.3t.725.3l16.95 17q.275.3.275.713t-.275.687t-.7.288t-.7-.263"/></svg>