<svg xmlns="http://www.w3.org/2000/svg" viewBox="0 0 24 24" width="24" height="24"><path fill="currentColor" d="M7 9h3.15q-.075-.225-.112-.475T10 8t.038-.525T10.15 7H7zm9 1q1.45 0 2.725-.375T20 8t-1.275-1.625T16 6t-2.725.375T12 8t1.275 1.625T16 10M4 20q-.825 0-1.412-.587T2 18v-7q0-.825.588-1.412T4 9h1V7q0-.825.588-1.412T7 5h4.875q.85-.5 1.925-.75T16 4q2.275 0 4.138.988T22 8v10q0 .825-.587 1.413T20 20h-4v-4q0-.425-.288-.712T15 15t-.712.288T14 16v4h-2v-4q0-.425-.288-.712T11 15t-.712.288T10 16v4H8v-4q0-.425-.288-.712T7 15t-.712.288T6 16v4z"/></svg>