<svg xmlns="http://www.w3.org/2000/svg" viewBox="0 0 24 24" width="24" height="24"><path fill="currentColor" d="M11.5 5q-.825 0-1.412-.587T9.5 3t.588-1.412T11.5 1t1.413.588T13.5 3t-.587 1.413T11.5 5m6.5 6.5q0 .425-.288.713T17 12.5h-.975l5.225 9.125q.125.2.063.375t-.263.3t-.375.075t-.3-.25l-5.675-9.9q-1-.325-1.812-.937T11.5 9.8q-.25.725-.387 1.663t-.088 1.737L13 16v5.5q0 .425-.288.713T12 22.5t-.712-.288T11 21.5v-4l-1.775-2.55L9 18.5l-2.4 3.2q-.25.35-.65.4t-.75-.2t-.4-.65t.2-.75l2-2.675V12.5q0-.775.138-1.713T7.5 9.1L6 9.95v2.55q0 .425-.288.713T5 13.5t-.712-.288T4 12.5V9.375q0-.275.138-.513T4.5 8.5l4.9-2.775q.2-.125.425-.175t.475-.05q.6 0 1.1.3t.75.825l.775 1.675q.5 1.1 1.525 1.65t2.55.55q.425 0 .713.288T18 11.5"/></svg>