<svg xmlns="http://www.w3.org/2000/svg" viewBox="0 0 24 24" width="24" height="24"><path fill="currentColor" d="m9 14.4l-3.9 3.9q-.275.275-.7.275t-.7-.275t-.275-.7t.275-.7L8.6 12L3.7 7.1q-.275-.275-.275-.7t.275-.7t.7-.275t.7.275L9 9.6V3.425q0-.45.3-.737T10 2.4q.2 0 .375.075t.325.225L15 7q.15.15.213.325t.062.375t-.062.375T15 8.4L11.4 12l3.6 3.6q.15.15.213.325t.062.375t-.062.375T15 17l-4.3 4.3q-.15.15-.325.225T10 21.6q-.4 0-.7-.288t-.3-.737zm2-4.8l1.9-1.9L11 5.85zm0 8.55l1.9-1.85l-1.9-1.9zm4.85-4.525L14.6 12.35q-.15-.15-.15-.35t.15-.35l1.25-1.25q.3-.3.613-.225t.412.475q.1.35.138.675t.037.675t-.037.7t-.138.7q-.1.4-.412.462t-.613-.237m2.825 2.8q-.175-.175-.225-.45t.075-.5q.375-.8.575-1.687T19.3 12t-.2-1.775t-.575-1.675q-.125-.25-.075-.525t.25-.475q.35-.35.775-.25t.625.575q.45.975.675 2.013T21 12t-.238 2.1t-.662 1.975q-.2.475-.638.588t-.787-.238"/></svg>