<svg xmlns="http://www.w3.org/2000/svg" viewBox="0 0 24 24" width="24" height="24"><path fill="currentColor" d="M4.025 21.975Q3.6 22 3.3 21.7t-.3-.725t.275-.712t.7-.288q1.2-.05 2.113-.25t1.987-.65q.2-.075.4-.112t.375.087q.35.2.7.363t.75.287t.588.513t.037.787q-.125.375-.488.55t-.762.05q-.325-.1-.625-.225t-.6-.275q-1.025.425-2.075.625t-2.35.25M15 20.5v.5q0 .425-.287.713T14 22t-.712-.288T13 21v-.775q-.475-.275-.737-.725t-.263-1v-6q0-1.3 1.2-1.9T17 10q2.7 0 3.85.575T22 12.5v6q0 .525-.262.988t-.738.737V21q0 .425-.288.713T20 22t-.712-.288T19 21v-.5zm-.125-1.75q.375 0 .625-.25t.25-.625t-.25-.625t-.625-.25t-.625.25t-.25.625q0 .35.263.613t.612.262m4.25 0q.375 0 .625-.25t.25-.625t-.25-.625t-.625-.25t-.625.25t-.25.625q0 .35.263.613t.612.262M13.5 15h7v-2h-7zM7 4h2.5V3q0-.425.288-.712T10.5 2h3q.425 0 .713.288T14.5 3v1H17q.825 0 1.413.588T19 6v1.025q0 .425-.288.713T18 8.025t-.712-.288T17 7.026V6H7v2.825l4.075-1.075q.325-.075.638.025t.462.375t.025.537t-.4.438q-.875.575-1.338 1.512T10 13v2.325q0 .7-.6.975t-1.05-.175q-.05-.05-.075-.088L8.25 16q-.475.45-1.012.813t-1.113.637q-.475.2-.937-.05t-.613-.75L2.825 11q-.125-.425.075-.775t.625-.475L5 9.35V6q0-.825.588-1.412T7 4"/></svg>