<svg xmlns="http://www.w3.org/2000/svg" viewBox="0 0 24 24" width="24" height="24"><path fill="currentColor" d="M7.5 22q-1.45 0-2.475-1.025T4 18.5v-13q0-1.45 1.025-2.475T7.5 2H18q.825 0 1.413.587T20 4v12.025q0 .4-.2.725t-.55.5t-.55.513t-.2.737t.2.75t.55.5q.325.125.538.375t.212.6v.25q0 .425-.288.725T19 22zm3.075-10.775H13.4l.5 1.4q.05.175.187.275t.338.1q.3 0 .475-.25t.05-.525l-2.2-5.85q-.05-.175-.2-.275T12.2 6h-.45q-.2 0-.35.1t-.2.275L9 12.25q-.125.275.063.513T9.55 13q.2 0 .338-.1t.187-.275zm.35-1.025l1.025-2.9h.075l1 2.9zM7.5 20h9.325q-.15-.35-.237-.712T16.5 18.5q0-.4.075-.775t.25-.725H7.5q-.65 0-1.075.438T6 18.5q0 .65.425 1.075T7.5 20"/></svg>