<svg xmlns="http://www.w3.org/2000/svg" viewBox="0 0 24 24" width="24" height="24"><path fill="currentColor" d="M7 23q-.825 0-1.412-.587T5 21V3q0-.825.588-1.412T7 1h10q.825 0 1.413.588T19 3v3.1q.45.175.725.55T20 7.5v2q0 .475-.275.85T19 10.9V21q0 .825-.587 1.413T17 23zm2-7h6q.425 0 .713-.288T16 15v-1.675q0-.125-.1-.238t-.225-.137q-.3-.1-.488-.363T15 12t.188-.587t.487-.363q.125-.025.225-.137t.1-.238V9q0-.425-.288-.712T15 8H9q-.425 0-.712.288T8 9v1.675q0 .125.1.238t.225.137q.3.1.488.363T9 12t-.187.588t-.488.362q-.125.025-.225.138t-.1.237V15q0 .425.288.713T9 16m3-1.5q-.2 0-.35-.15T11.5 14t.15-.35t.35-.15t.35.15t.15.35t-.15.35t-.35.15m0-2q-.2 0-.35-.15T11.5 12t.15-.35t.35-.15t.35.15t.15.35t-.15.35t-.35.15m0-2q-.2 0-.35-.15T11.5 10t.15-.35t.35-.15t.35.15t.15.35t-.15.35t-.35.15"/></svg>