<svg xmlns="http://www.w3.org/2000/svg" viewBox="0 0 24 24" width="24" height="24"><path fill="currentColor" d="M5 21q-.825 0-1.412-.587T3 19V6.525q0-.35.113-.675t.337-.6L4.7 3.725q.275-.35.687-.538T6.25 3h11.5q.45 0 .863.188t.687.537l1.25 1.525q.225.275.338.6t.112.675V9.3q0 .3-.213.5t-.512.225q-.625.05-1.162.275t-.988.7L16 13.125V8H8v6.375q0 .575.475.863t.975.037L12 14l2.075 1.05L12.6 16.5q-.275.275-.437.65t-.163.775V20q0 .425-.288.712T11 21zm9-1v-1.65q0-.2.075-.387t.225-.338l5.225-5.2q.225-.225.5-.325t.55-.1q.3 0 .575.113t.5.337l.925.925q.2.225.313.5t.112.55t-.1.563t-.325.512l-5.2 5.2q-.15.15-.337.225T16.65 21H15q-.425 0-.712-.287T14 20m6.575-4.6l.925-.975l-.925-.925l-.95.95zM5.4 6h13.2l-.85-1H6.25z"/></svg>