<svg xmlns="http://www.w3.org/2000/svg" viewBox="0 0 24 24" width="24" height="24"><path fill="currentColor" d="M7 17q.425 0 .713-.288T8 16t-.288-.712T7 15t-.712.288T6 16t.288.713T7 17M7 7q-.425 0-.712.288T6 8v4q0 .425.288.713T7 13t.713-.288T8 12V8q0-.425-.288-.712T7 7m10 10q.425 0 .713-.288T18 16t-.288-.712T17 15h-5q-.425 0-.712.288T11 16t.288.713T12 17zm0-4q.425 0 .713-.288T18 12t-.288-.712T17 11h-5q-.425 0-.712.288T11 12t.288.713T12 13zm0-4q.425 0 .713-.288T18 8t-.288-.712T17 7h-5q-.425 0-.712.288T11 8t.288.713T12 9zM4 21q-.825 0-1.412-.587T2 19V5q0-.825.588-1.412T4 3h16q.825 0 1.413.588T22 5v14q0 .825-.587 1.413T20 21z"/></svg>