<svg xmlns="http://www.w3.org/2000/svg" viewBox="0 0 24 24" width="24" height="24"><path fill="currentColor" d="M7.8 16h1.6l.4-1.15q.2-.525.788-.837t2.037-.313q.55 0 .988.313t.637.837l.225.675q.075.2.263.338t.412.137q.375 0 .588-.312t.087-.663l-2.85-7.55q-.075-.225-.337-.35T11.725 7q-.225 0-.425.125t-.275.35zm2.85-3.6l1.3-3.75h.1l1.3 3.75zm-2 7.6H6q-.825 0-1.412-.587T4 18v-2.65L2.075 13.4q-.275-.3-.425-.662T1.5 12t.15-.737t.425-.663L4 8.65V6q0-.825.588-1.412T6 4h2.65l1.95-1.925q.3-.275.663-.425T12 1.5t.738.15t.662.425L15.35 4H18q.825 0 1.413.588T20 6v2.65l1.925 1.95q.275.3.425.663t.15.737t-.15.738t-.425.662L20 15.35V18q0 .825-.587 1.413T18 20h-2.65l-1.95 1.925q-.3.275-.662.425T12 22.5t-.737-.15t-.663-.425z"/></svg>