<svg xmlns="http://www.w3.org/2000/svg" viewBox="0 0 24 24" width="24" height="24"><path fill="currentColor" d="M11.6 12L9.35 9.75q-.275-.275-.287-.687t.287-.713q.275-.275.7-.275t.7.275L13 10.575V9.35q0-.425.287-.712T14 8.35t.713.288t.287.712V13q0 .425-.288.713T14 14h-3.65q-.425 0-.712-.288T9.35 13t.288-.712t.712-.288zm7.4 8q-1.25 0-2.125-.875T16 17t.875-2.125T19 14t2.125.875T22 17t-.875 2.125T19 20M4 20q-.825 0-1.412-.587T2 18V6q0-.825.588-1.412T4 4h16q.825 0 1.413.588T22 6v5q0 .425-.288.713T21 12t-.712-.288T20 11V6H4v12h9q.425 0 .713.288T14 19t-.288.713T13 20z"/></svg>