<svg xmlns="http://www.w3.org/2000/svg" viewBox="0 0 24 24" width="24" height="24"><path fill="currentColor" d="M17.5 10q2 0 3.25 1.113T22 14v4q0 .825-.587 1.413T20 20l1.15 1.15q.25.25.125.55t-.475.3h-6.6q-.35 0-.475-.3t.125-.55L15 20q-.825 0-1.412-.587T13 18v-4q0-1.775 1.25-2.887T17.5 10m-9 6q.625 0 1.063-.437T10 14.5t-.437-1.062T8.5 13t-1.062.438T7 14.5t.438 1.063T8.5 16m9 2q.3 0 .525-.225t.225-.525t-.225-.525t-.525-.225t-.525.225t-.225.525t.225.525t.525.225m-3-3h6v-1q0-.275-.05-.525T20.3 13h-5.6q-.1.225-.15.475T14.5 14zM6 21q-.425 0-.712-.288T5 20v-2.05q-.45-.5-.725-1.112T4 15.5V6q0-2.075 1.925-3.037T12 2q4.3 0 6.15.925T20 6v1.2q0 .425-.288.713T19 8.2t-.712-.287T18 7.2V7H6v3h5.05q.425 0 .638.388t-.013.787q-.35.65-.513 1.363T11 14v4q0 .425-.288.713T10 19H8v1q0 .425-.288.713T7 21z"/></svg>