<svg xmlns="http://www.w3.org/2000/svg" viewBox="0 0 24 24" width="24" height="24"><path fill="currentColor" d="M6 19h12v-2H6zm0-4h12v-2H6zm0-4h12v-.9L16.55 9h-9.1L6 10.1zm4.05-4h3.9L12 5.525zM4 19v-7.375L3 12.4q-.35.25-.75.2t-.65-.4t-.2-.75t.375-.65L4 9.1V7q0-.425.288-.713T5 6t.713.288T6 7v.575l4.775-3.65Q11.325 3.5 12 3.5t1.225.425l9 6.875q.325.25.375.65t-.2.75q-.25.325-.65.375t-.725-.2L20 11.625V19q0 .825-.587 1.413T18 21H6q-.825 0-1.412-.587T4 19M5.3 5q-.575 0-.888-.475t-.037-.975q.425-.725 1.113-1.137T7 2q.275 0 .525-.137t.375-.388q.125-.225.338-.35T8.725 1q.575 0 .875.475t.025.975q-.425.725-1.112 1.138T7 4q-.275 0-.525.125t-.375.4q-.125.225-.325.35T5.3 5"/></svg>