<svg xmlns="http://www.w3.org/2000/svg" viewBox="0 0 24 24" width="24" height="24"><path fill="currentColor" d="M4 22q-.825 0-1.412-.587T2 20V5q0-.825.588-1.412T4 3h1V2q0-.425.288-.712T6 1h4q.425 0 .713.288T11 2v1h1q.825 0 1.413.588T14 5h6q.825 0 1.413.588T22 7v11q0 .825-.587 1.413T20 20h-6q0 .825-.587 1.413T12 22zm6-12q.425 0 .713-.288T11 9t-.288-.712T10 8t-.712.288T9 9t.288.713T10 10m4 0q.425 0 .713-.288T15 9t-.288-.712T14 8t-.712.288T13 9t.288.713T14 10m4 0q.425 0 .713-.288T19 9t-.288-.712T18 8t-.712.288T17 9t.288.713T18 10m-8 7q.425 0 .713-.288T11 16t-.288-.712T10 15t-.712.288T9 16t.288.713T10 17m4 0q.425 0 .713-.288T15 16t-.288-.712T14 15t-.712.288T13 16t.288.713T14 17m4 0q.425 0 .713-.288T19 16t-.288-.712T18 15t-.712.288T17 16t.288.713T18 17"/></svg>