<svg xmlns="http://www.w3.org/2000/svg" viewBox="0 0 24 24" width="24" height="24"><path fill="currentColor" d="M6 21q-.825 0-1.412-.587T4 19v-9q0-.475.213-.9t.587-.7l6-4.5q.525-.4 1.2-.4t1.2.4l6 4.5q.375.275.588.7T20 10q-.275.275-.438.638T19 11h-6q-.825 0-1.412.588T11 13v4q0 .825.588 1.413T13 19h6q.425 0 .713.288T20 20t-.288.713T19 21zm7-3q-.425 0-.712-.288T12 17v-4q0-.425.288-.712T13 12h4q.425 0 .713.288T18 13v1l1.275-.675q.25-.125.488.025t.237.425v2.45q0 .275-.238.425t-.487.025L18 16v1q0 .425-.288.713T17 18z"/></svg>