<svg xmlns="http://www.w3.org/2000/svg" viewBox="0 0 24 24" width="24" height="24"><path fill="currentColor" d="M16.975 17.725L18.35 19.1q.15.15.375.15t.375-.15t.15-.375t-.15-.375L17.75 17l1.375-1.375q.15-.15.15-.375t-.15-.375t-.375-.15t-.375.15L17 16.25l-1.375-1.375q-.15-.15-.375-.15t-.375.15t-.15.375t.15.375L16.25 17l-1.4 1.4q-.15.15-.15.35t.15.35t.375.15t.375-.15zM3 18.5v-3.725q0-.35.2-.625t.55-.35l4.35-1.075q.25-.05.4-.25T8.65 12t-.15-.475t-.4-.25L3.75 10.2q-.35-.075-.55-.35T3 9.225V5.5q0-.55.438-.837t.937-.088l10.1 4.225q.575.225.513.875t-.713.875q-.8.275-1.45.788T11.65 12.5q-.675.8-1.075 1.738t-.525 1.987q-.05.375-.25.688t-.55.462l-4.85 2.05q-.5.2-.95-.088T3 18.5M17 22q-2.075 0-3.537-1.463T12 17t1.463-3.537T17 12t3.538 1.463T22 17t-1.463 3.538T17 22"/></svg>