<svg xmlns="http://www.w3.org/2000/svg" viewBox="0 0 24 24" width="24" height="24"><path fill="currentColor" d="M18 19.425v1.225q0 .425-.288.713T17 21.65t-.712-.287T16 20.65V17.5q0-.625.438-1.062T17.5 16h3.15q.425 0 .713.288t.287.712t-.287.713t-.713.287H19.4l2.25 2.25q.275.275.275.688t-.275.712q-.3.3-.712.3t-.713-.3zM12 22q-2.075 0-3.9-.788t-3.175-2.137T2.788 15.9T2 12t.788-3.9t2.137-3.175T8.1 2.788T12 2t3.9.788t3.175 2.137T21.213 8.1T22 12q0 .25-.012.55t-.038.55q-.05.425-.35.663t-.75.237q-.4 0-.675-.35t-.225-.75q.05-.25.05-.45V12q0-.5-.063-1t-.187-1h-3.4q.075.5.113 1t.037 1v.538q0 .287-.025.537q-.05.425-.35.675T15.4 14q-.4 0-.687-.325t-.238-.725q.025-.25.025-.475V12q0-.5-.037-1t-.113-1h-4.7q-.075.5-.112 1T9.5 12t.038 1t.112 1H12q.425 0 .713.288T13 15t-.288.713T12 16h-1.9q.3 1.075.775 2.063T12 19.95q.25 0 .5.013t.5-.013q.425-.05.7.213t.275.687q0 .45-.225.75t-.65.35q-.25.025-.55.038T12 22m-7.75-8h3.4q-.075-.5-.112-1T7.5 12t.038-1t.112-1h-3.4q-.125.5-.187 1T4 12t.063 1t.187 1m5.15 5.55q-.45-.85-.788-1.737T8.05 16H5.1q.725 1.275 1.825 2.188T9.4 19.55M5.1 8h2.95q.225-.925.563-1.812T9.4 4.45q-1.375.45-2.475 1.363T5.1 8m5 0h3.8q-.3-1.075-.775-2.062T12 4.05q-.65.9-1.125 1.888T10.1 8m5.85 0h2.95q-.725-1.275-1.825-2.187T14.6 4.45q.45.85.788 1.738T15.95 8"/></svg>