<svg xmlns="http://www.w3.org/2000/svg" viewBox="0 0 24 24" width="24" height="24"><path fill="currentColor" d="M14.125 22.5q-.35.2-.75.1t-.6-.45l-2.4-4.15H4.15q-.725 0-1.287-.45t-.688-1.15L1.1 11.025q-.225-1.2.538-2.113T3.6 8q.85 0 1.525.55t.925 1.425L7.5 15h2.3q.55 0 1.013.263t.737.737l2.95 5.15q.2.35.088.75t-.463.6M3 7q-.825 0-1.412-.587T1 5t.588-1.412T3 3t1.413.588T5 5t-.587 1.413T3 7m13.3 4.3l-3.6-3.6q-.15-.15-.212-.325T12.425 7t.063-.375t.212-.325l3.6-3.6q.3-.3.7-.3t.7.3t.3.712t-.3.713L15.825 6H21q.425 0 .713.287T22 7t-.288.713T21 8h-5.175L17.7 9.875q.275.3.288.713t-.288.712t-.7.3t-.7-.3"/></svg>