<svg xmlns="http://www.w3.org/2000/svg" viewBox="0 0 24 24" width="24" height="24"><path fill="currentColor" d="M7.5 16q.625 0 1.063-.437T9 14.5t-.437-1.062T7.5 13t-1.062.438T6 14.5t.438 1.063T7.5 16m9 0q.625 0 1.063-.437T18 14.5t-.437-1.062T16.5 13t-1.062.438T15 14.5t.438 1.063T16.5 16M4 21q-.425 0-.712-.288T3 20v-7.675q0-.175.025-.337t.075-.313L5.075 6q.15-.45.538-.725T6.5 5h4.6q.425 0 .713.288T12.1 6t-.287.713T11.1 7H6.85L5.8 10h7.75q.875.95 2.025 1.475T18 12q.475 0 .925-.075t.875-.2t.813.113t.387.662V20q0 .425-.288.713T20 21h-1q-.425 0-.712-.288T18 20v-1H6v1q0 .425-.288.713T5 21zM18 7.5q.625 0 1.063-.437T19.5 6t-.437-1.062T18 4.5t-1.062.438T16.5 6t.438 1.063T18 7.5m-.15 2.5q-.225 0-.4-.137t-.225-.363l-.175-.675q-.275-.1-.537-.25t-.488-.35l-.675.225q-.2.075-.412-.012T14.6 8.15l-.15-.275q-.125-.2-.087-.425t.212-.375l.5-.475q-.05-.3-.05-.6t.05-.6l-.5-.45q-.175-.15-.212-.375t.087-.425l.175-.275q.125-.2.325-.275t.4-.025l.65.2q.225-.2.488-.35t.562-.25l.175-.675q.05-.225.225-.362t.4-.138h.3q.225 0 .4.138t.225.362l.175.65q.3.125.563.275t.487.35l.65-.175q.2-.05.4.025t.325.275l.175.25q.125.2.088.425t-.213.375l-.475.45q.05.3.063.613t-.063.612l.475.45q.175.15.213.375t-.088.425l-.15.25q-.125.2-.337.275t-.413.025l-.65-.2q-.225.2-.5.35t-.55.25l-.175.675q-.05.225-.225.363t-.4.137z"/></svg>