<svg xmlns="http://www.w3.org/2000/svg" viewBox="0 0 24 24" width="24" height="24"><path fill="currentColor" d="M3.5 21q-.625 0-1.062-.437T2 19.5v-7.15q0-.175.025-.35t.075-.325L4.1 6q.15-.45.538-.725T5.5 5H8q.425 0 .712.288T9 6t-.288.713T8 7H5.85L4.8 10h5.55q.4 0 .763.15t.637.425l2.775 2.775q-.25.2-.387.5T14 14.5q0 .625.438 1.063T15.5 16q.5 0 .9-.3t.525-.775q.275.05.537.062t.538-.012q.175-.025.325-.05t.325-.075q.5-.15.925.075t.425.7V19.5q0 .625-.437 1.063T18.5 21t-1.062-.437T17 19.5V19H5v.5q0 .625-.437 1.063T3.5 21m3-5q.625 0 1.063-.437T8 14.5t-.437-1.062T6.5 13t-1.062.438T5 14.5t.438 1.063T6.5 16M15 6q.425 0 .713-.288T16 5t-.288-.712T15 4t-.712.288T14 5t.288.713T15 6m1.55 6.55l-5.1-5.1q-.2-.2-.325-.488T11 6.376V2.5q0-.625.438-1.062T12.5 1h3.875q.3 0 .588.125t.487.325l5.1 5.1q.425.425.425 1.063t-.425 1.062l-3.875 3.875q-.425.425-1.062.425t-1.063-.425"/></svg>