<svg xmlns="http://www.w3.org/2000/svg" viewBox="0 0 24 24" width="24" height="24"><path fill="currentColor" d="M14.125 22.5q-.35.2-.75.1t-.6-.45l-2.4-4.15H4.15q-.725 0-1.287-.45t-.688-1.15L1.1 11.025q-.225-1.2.538-2.113T3.6 8q.85 0 1.525.55t.925 1.425L7.5 15h2.3q.55 0 1.013.263t.737.737l2.95 5.15q.2.35.088.75t-.463.6M3 7q-.825 0-1.412-.587T1 5t.588-1.412T3 3t1.413.588T5 5t-.587 1.413T3 7m12.05 1q0-.1-.3-.725q-.25-.325-.375-.725t-.125-.85q0-.2.025-.387t.075-.338q.125-.35.4-.537t.6-.063q.3.125.438.4t.012.55q-.05.075-.05.15v.175q0 .25.062.475t.238.425q.225.3.35.663t.15.787zm3.2 0q-.025-.15-.35-.625q-.325-.325-.5-.775t-.175-.95q0-.225.037-.425t.113-.375q.125-.325.45-.475t.625 0q.275.125.388.4t-.038.55q-.05.075-.063.15t-.012.175q0 .225.075.413t.275.387q.325.325.475.725t.2.825zm-6.375 0l-.725-5.025q-.05-.425.163-.788t.637-.487q1.2-.35 2.538-.525T17 1t2.513.175t2.537.525q.425.125.638.488t.162.787L22.125 8H20.6l.725-4.925q-1.075-.275-2.15-.425T17 2.5t-2.175.15t-2.15.425L13.4 8zM16.3 18.3l-3.6-3.6q-.15-.15-.212-.325T12.425 14t.063-.375t.212-.325l3.6-3.6q.3-.3.7-.3t.7.3t.3.713t-.3.712L15.825 13H21q.425 0 .713.288T22 14t-.288.713T21 15h-5.175l1.875 1.875q.3.3.3.713t-.3.712t-.7.3t-.7-.3"/></svg>