<svg xmlns="http://www.w3.org/2000/svg" viewBox="0 0 24 24" width="24" height="24"><path fill="currentColor" d="M14.125 22.5q-.35.2-.75.1t-.6-.45l-2.4-4.15H4.15q-.725 0-1.287-.45t-.688-1.15L1.1 11.025q-.225-1.2.538-2.113T3.6 8q.85 0 1.525.55t.925 1.425L7.5 15h2.3q.55 0 1.013.263t.737.737l2.95 5.15q.2.35.088.75t-.463.6M3 7q-.825 0-1.412-.587T1 5t.588-1.412T3 3t1.413.588T5 5t-.587 1.413T3 7m10.7 3.3q-.275.275-.7.275t-.7-.275L8.7 6.7q-.15-.15-.212-.325T8.425 6t.063-.375T8.7 5.3l3.6-3.6q.3-.3.7-.287t.7.312q.275.3.288.7t-.288.7L11.825 5H17q.425 0 .713.288T18 6t-.288.713T17 7h-5.175L13.7 8.9q.275.275.288.688t-.288.712m4.3 8.275q-.2 0-.375-.062T17.3 18.3l-3.6-3.6q-.275-.275-.287-.687t.287-.713q.275-.275.7-.275t.7.275l1.9 1.875V10q0-.425.288-.712T18 9t.713.288T19 10v5.175l1.875-1.875q.275-.275.688-.275t.712.275q.3.3.3.713t-.3.712L18.7 18.3q-.15.15-.325.213t-.375.062"/></svg>