<svg xmlns="http://www.w3.org/2000/svg" viewBox="0 0 24 24" width="24" height="24"><path fill="currentColor" d="M2.7 20L6.475 9.5q.125-.325.388-.5t.562-.175q.2 0 .375.075t.325.225l6.75 6.75q.15.15.225.325t.075.375q0 .3-.175.563t-.5.387L4 21.3q-.3.125-.575.038t-.475-.288t-.288-.475T2.7 20M23.025 7.025q-.225.225-.525.225t-.525-.225L21.9 6.95q-.35-.35-.875-.35t-.875.35l-5.075 5.075q-.225.225-.525.225t-.525-.225t-.225-.525t.225-.525L19.1 5.9q.8-.8 1.925-.8t1.925.8l.075.075q.225.225.225.525t-.225.525m-13.05-3Q10.2 3.8 10.5 3.8t.525.225l.125.125q.8.8.8 1.9t-.8 1.9l-.075.075q-.225.225-.525.225t-.525-.225T9.8 7.5t.225-.525L10.1 6.9q.35-.35.35-.85t-.35-.85l-.125-.125Q9.75 4.85 9.75 4.55t.225-.525m4.05-2q.225-.225.525-.225t.525.225L16.15 3.1q.8.8.8 1.925t-.8 1.925l-3.075 3.075q-.225.225-.525.225t-.525-.225T11.8 9.5t.225-.525L15.1 5.9q.35-.35.35-.875t-.35-.875l-1.075-1.075Q13.8 2.85 13.8 2.55t.225-.525m8 12q-.225.225-.525.225t-.525-.225L19.9 12.95q-.35-.35-.875-.35t-.875.35l-1.075 1.075q-.225.225-.525.225t-.525-.225t-.225-.525t.225-.525L17.1 11.9q.8-.8 1.925-.8t1.925.8l1.075 1.075q.225.225.225.525t-.225.525"/></svg>