<svg xmlns="http://www.w3.org/2000/svg" viewBox="0 0 24 24" width="24" height="24"><path fill="currentColor" d="M3.7 10q0 1.375.463 2.738t1.362 2.512q.225.275.225.638t-.25.612t-.612.225t-.588-.3Q3.15 15 2.575 13.375T2 10t.575-3.375T4.3 3.575q.225-.275.588-.3T5.5 3.5t.25.612t-.225.638q-.9 1.15-1.362 2.513T3.7 10M7 10q0 .725.225 1.475t.725 1.4q.2.275.2.625t-.25.6t-.6.238t-.575-.288q-.7-.9-1.063-1.937T5.3 10t.363-2.113T6.725 5.95q.225-.275.575-.288t.6.238t.238.6t-.213.625q-.475.625-.7 1.363T7 10m2.675 10l-.45 1.35q-.1.275-.35.463t-.55.187q-.5 0-.775-.387t-.125-.863l2.95-8.875q-.4-.35-.638-.825T9.5 10q0-1.05.725-1.775T12 7.5t1.775.725T14.5 10q0 .575-.238 1.05t-.637.825l2.95 8.875q.15.45-.112.85t-.763.4q-.3 0-.562-.175t-.363-.475L14.35 20zm.65-2h3.35L12 13zM17 10q0-.725-.225-1.475t-.725-1.4q-.2-.275-.2-.625t.25-.6t.612-.238t.563.288q.675.9 1.025 1.938T18.7 10q0 1.075-.363 2.113t-1.062 1.937q-.225.275-.575.288t-.6-.238t-.238-.6t.213-.625q.475-.625.7-1.362T17 10m3.3 0q0-1.375-.462-2.738T18.475 4.75q-.225-.275-.225-.638t.25-.612t.613-.225t.587.3Q20.85 5 21.425 6.625T22 10t-.537 3.375t-1.738 3.05q-.25.275-.6.313T18.5 16.5q-.25-.25-.25-.612t.225-.638q.9-1.15 1.363-2.512T20.3 10"/></svg>