<svg xmlns="http://www.w3.org/2000/svg" viewBox="0 0 24 24" width="24" height="24"><path fill="currentColor" d="M12.075 15.475q-.725.025-1.387-.237t-1.163-.763t-.763-1.125t-.262-1.325q0-.25.025-.487t.1-.463q.1-.3-.012-.6t-.388-.425q-.3-.125-.587 0t-.388.425q-.125.375-.187.75T7 12q0 1 .388 1.913t1.087 1.612q.675.7 1.588 1.075t1.887.4l-.425.425q-.225.225-.225.525t.225.525t.525.225t.525-.225l1.6-1.6q.3-.3.3-.7t-.3-.7l-1.6-1.6q-.225-.225-.525-.225t-.525.225t-.225.525t.225.525zM11.9 8.5q.725 0 1.4.263t1.175.762t.763 1.125t.262 1.325q0 .25-.025.487t-.1.463q-.1.3.013.612t.387.438q.3.125.588 0t.387-.425q.125-.375.188-.763T17 12q0-1-.363-1.912T15.55 8.45q-.7-.7-1.612-1.062t-1.888-.363l.45-.45q.2-.225.2-.525t-.225-.525t-.525-.225t-.525.225l-1.6 1.6q-.3.3-.3.7t.3.7l1.6 1.6q.225.225.525.225t.525-.225t.225-.525t-.225-.525zM12 22q-2.075 0-3.9-.788t-3.175-2.137T2.788 15.9T2 12t.788-3.9t2.137-3.175T8.1 2.788T12 2t3.9.788t3.175 2.137T21.213 8.1T22 12t-.788 3.9t-2.137 3.175t-3.175 2.138T12 22"/></svg>