<svg xmlns="http://www.w3.org/2000/svg" viewBox="0 0 24 24" width="24" height="24"><path fill="currentColor" d="M6.525 19Q5.25 19 4.4 18.15t-.85-2.125t.85-2.137t2.125-.863t2.125.85T9.5 16t-.85 2.137T6.525 19m-2.05-8.025q-.275 0-.462-.175t-.188-.45V5.625q0-.275.188-.45T4.475 5t.45.175t.175.45v4.725q0 .275-.175.45t-.45.175m2.05 6.875q.775 0 1.275-.525T8.3 16t-.488-1.312t-1.287-.513q-.775 0-1.275.513T4.75 16t.5 1.325t1.275.525m.35-6.875q-.275 0-.45-.175t-.175-.45V5.6q0-.25.175-.425T6.85 5h.45q.175 0 .313.088t.212.212L9.9 8.8l-.05-.95V5.625q0-.275.175-.45t.45-.175t.45.175t.175.45v4.8q0 .225-.162.388t-.388.162h-.425q-.15 0-.262-.075t-.188-.2l-2.25-3.75l.075.95v2.45q0 .275-.175.45t-.45.175M12.8 19q-1.05 0-1.675-.675t-.625-1.8v-2.9q0-.25.175-.425t.45-.175t.438.162t.162.438V16.6q0 .525.313.875t.762.35t.75-.35t.3-.875v-2.975q0-.25.175-.425t.45-.175t.438.162t.162.438v2.9q0 1.125-.625 1.8T12.8 19m5.475 0q-.275 0-.45-.175t-.175-.45V14.2h-1.025q-.25 0-.412-.175t-.163-.425t.163-.413t.412-.162h3.25q.25 0 .413.163t.162.412t-.162.425t-.413.175h-1v4.2q0 .25-.162.425t-.438.175"/></svg>