<svg xmlns="http://www.w3.org/2000/svg" viewBox="0 0 24 24" width="24" height="24"><path fill="currentColor" d="M18 15q-.475 0-.875.238t-.65.637q-.1.15-.025.313t.25.237q.15.075.3 0t.275-.2q.125-.175.313-.275t.412-.1q.375 0 .588.188t.212.562q0 .275-.15.463t-.35.387q-.15.15-.312.3t-.288.35q-.075.15-.112.3t-.038.35t.125.325t.325.125t.325-.125t.125-.325t.15-.4t.35-.4q.35-.3.55-.575t.2-.775q0-.725-.475-1.162T18 15m-7.5-9h3q0-.625-.437-1.062T12 4.5t-1.062.438T10.5 6m6.5 5.075V6h1q.825 0 1.413.588T20 8v3.3q-.725-.2-1.487-.275t-1.513.05M6 17q-.825 0-1.412-.587T4 15V8q0-.825.588-1.412T6 6h1v11zm2.5 0V6H9q0-1.25.875-2.125T12 3t2.125.875T15 6h.5v5.475q-1.775.675-2.912 2.163T11.1 17zm9.5 4q.275 0 .463-.187t.187-.463t-.187-.462T18 19.7t-.462.188t-.188.462t.188.463T18 21m0 2q-2.075 0-3.537-1.463T13 18t1.463-3.537T18 13t3.538 1.463T23 18t-1.463 3.538T18 23M3 21q-.425 0-.712-.288T2 20t.288-.712T3 19h8.1q.1.5.25 1t.35 1z"/></svg>