<svg xmlns="http://www.w3.org/2000/svg" viewBox="0 0 24 24" width="24" height="24"><path fill="currentColor" d="M12 22q-2.075 0-3.9-.788t-3.175-2.137T2.788 15.9T2 12t.788-3.887T4.925 4.95t3.163-2.137t3.887-.788q.425 0 .825.038t.8.087q.425.075.625.475t.025.825q-.125.375-.187.75T14 5q0 1.125.438 2.063T15.65 8.7l-5.075 5.1l-2.125-2.15q-.3-.3-.7-.3t-.7.3t-.3.713t.3.712L9.875 15.9q.3.3.7.3t.7-.3l6.15-6.15q.375.125.762.188T19 10t.8-.062t.75-.188q.425-.125.825.05t.475.6q.05.4.088.788t.037.812q0 2.075-.788 3.9t-2.137 3.175t-3.162 2.138T12 22m7-14q-1.25 0-2.125-.875T16 5t.875-2.125T19 2t2.125.875T22 5t-.875 2.125T19 8"/></svg>