<svg xmlns="http://www.w3.org/2000/svg" viewBox="0 0 24 24" width="24" height="24"><path fill="currentColor" d="M7.225 21q-.725 0-1.275-.462t-.675-1.188L3.35 8.975q-.925.175-1.637-.425T1 7q0-.825.588-1.412T3 5t1.413.588T5 7q0 .35-.1.65t-.3.55q.55.325 1.113.538T6.9 8.95q1.1 0 2.038-.55T10.4 6.9l.625-1.15q-.475-.275-.75-.725T10 4q0-.825.588-1.412T12 2t1.413.588T14 4q0 .575-.275 1.025t-.75.725L13.6 6.9q.525.95 1.463 1.5t2.037.55q.625 0 1.188-.2t1.112-.525q-.2-.25-.3-.562T19 7q0-.825.588-1.412T21 5t1.413.588T23 7q0 .95-.712 1.55t-1.638.425L18.725 19.35q-.125.725-.675 1.188T16.775 21z"/></svg>