<svg xmlns="http://www.w3.org/2000/svg" viewBox="0 0 24 24" width="24" height="24"><path fill="currentColor" d="M6 18q-1.025-1.275-1.513-2.95T4 11.175q0-1.85 1.625-3.738t4.6-3.537q-.125-.2-.175-.437T10 3q0-.825.588-1.412T12 1t1.413.588T14 3q0 .2-.05.413t-.15.412q3.125 1.65 4.662 3.488T20 11.175q0 2.425-.462 4.025T18 18zm-.5 4q-.625 0-1.062-.437T4 20.5t.438-1.062T5.5 19h13q.625 0 1.063.438T20 20.5t-.437 1.063T18.5 22zM11 12v1q0 .425.288.713T12 14t.713-.288T13 13v-1h1q.425 0 .713-.288T15 11t-.288-.712T14 10h-1V9q0-.425-.288-.712T12 8t-.712.288T11 9v1h-1q-.425 0-.712.288T9 11t.288.713T10 12z"/></svg>