<svg xmlns="http://www.w3.org/2000/svg" viewBox="0 0 24 24" width="24" height="24"><path fill="currentColor" d="M6 22q-.825 0-1.412-.587T4 20v-1.9q0-.525.225-.987t.65-.788q1.075-.875 1.938-1.963T8.25 12H7q-.425 0-.712-.288T6 11t.288-.712T7 10h.8l-1-1.65q-.35-.575-.275-1.263T7.1 5.9l4.2-4.2q.3-.3.7-.3t.7.3l4.2 4.2q.5.5.575 1.188T17.2 8.35l-1 1.65h.8q.425 0 .713.288T18 11t-.288.713T17 12h-1.25q.575 1.275 1.438 2.363t1.937 1.962q.4.35.638.8T20 18.1V20q0 .825-.587 1.413T18 22zm6-14q.425 0 .713-.288T13 7t-.288-.712T12 6t-.712.288T11 7t.288.713T12 8"/></svg>