<svg xmlns="http://www.w3.org/2000/svg" viewBox="0 0 24 24" width="24" height="24"><path fill="currentColor" d="M9 21q-2.925 0-4.962-2.037T2 14q0-2.65 1.713-4.612T8 7.074V5.7q0-1.55 1.075-2.625T11.7 2q.85 0 1.613.375T14.6 3.4l5.175 6.525q.3-.125.625-.062t.55.337l1.525 1.925q.275.325.212.725t-.387.675l-1.175.925q-.325.275-.725.225t-.675-.375l-1.5-1.925Q18 12.1 18 11.763t.2-.613l-5.175-6.525q-.25-.3-.587-.462T11.7 4q-.725 0-1.212.488T10 5.7v1.375q2.575.35 4.288 2.313T16 14q0 2.925-2.037 4.963T9 21m0-2q2.075 0 3.538-1.463T14 14t-1.463-3.537T9 9t-3.537 1.463T4 14t1.463 3.538T9 19"/></svg>