<svg xmlns="http://www.w3.org/2000/svg" viewBox="0 0 24 24" width="24" height="24"><path fill="currentColor" d="M21 14.5q-.425 0-.712-.288T20 13.5v-3q0-.425.288-.712T21 9.5h1q.425 0 .713.288T23 10.5v3q0 .425-.288.713T22 14.5zM17 16h-6q-.4 0-.812.113T9.15 16.5q-.975.425-1.675.588T6 17.25q-1.95 0-3.475-1.15T1 13.5v-3q0-1.475 1.525-2.613T6 6.75q.775 0 1.475.163T9.15 7.5q.625.275 1.038.388T11 8h6q.825 0 1.413.588T19 10v4q0 .825-.587 1.413T17 16M2.5 12.5h1q.2 0 .35-.15T4 12t-.15-.35t-.35-.15h-1q-.2 0-.35.15T2 12t.15.35t.35.15"/></svg>