<svg xmlns="http://www.w3.org/2000/svg" viewBox="0 0 24 24" width="24" height="24"><path fill="currentColor" d="m4 3l1.625 3.25q.175.35.5.55t.7.2q.75 0 1.15-.638t.05-1.312L7 3h2l1.625 3.25q.175.35.5.55t.7.2q.75 0 1.15-.638t.05-1.312L12 3h2l1.625 3.25q.175.35.5.55t.7.2q.75 0 1.15-.638t.05-1.312L17 3h3q.825 0 1.413.587T22 5v14q0 .825-.587 1.413T20 21H4q-.825 0-1.412-.587T2 19V5q0-.825.588-1.412T4 3m4.8 15h6.4q.325 0 .55-.225t.2-.575q-.05-.45-.325-.85t-.725-.675q-.55-.35-1.275-.513T12 15t-1.625.162t-1.275.513q-.45.275-.725.675t-.325.85q-.05.325.175.563T8.8 18m3.2-4q.825 0 1.413-.587T14 12t-.587-1.412T12 10t-1.412.588T10 12t.588 1.413T12 14"/></svg>