<svg xmlns="http://www.w3.org/2000/svg" viewBox="0 0 24 24" width="24" height="24"><path fill="currentColor" d="M4 12q-.825 0-1.412-.587T2 10V4q0-.825.588-1.412T4 2h16q.825 0 1.413.588T22 4v6q0 .825-.587 1.413T20 12h-2V8q0-.825-.587-1.412T16 6H8q-.825 0-1.412.588T6 8v4zm4 0V8h8v4zm3 7v-4q0-.425.288-.712T12 14t.713.288T13 15v4q0 .425-.288.713T12 20t-.712-.288T11 19m-7 0q-.425 0-.712-.288T3 18t.288-.712T4 17q.6 0 1.15-.225t.975-.65q.25-.25.425-.537t.3-.638q.125-.4.425-.675T8 14q.375 0 .65.25t.275.575q0 .65-.475 1.45t-.925 1.25q-.7.7-1.612 1.088T4 19m15.925 0q.425 0 .713-.288t.287-.712t-.288-.712t-.712-.288q-.6 0-1.15-.225t-.975-.65q-.25-.25-.425-.537t-.3-.638q-.125-.4-.425-.675T15.925 14q-.375 0-.65.25t-.275.575q0 .65.475 1.45t.925 1.25q.7.7 1.613 1.088t1.912.387"/></svg>