<svg xmlns="http://www.w3.org/2000/svg" viewBox="0 0 24 24" width="24" height="24"><path fill="currentColor" d="M15 21q-.825 0-1.412-.587T13 19v-1.45q0-.275.175-.513t.45-.312q1.5-.525 2.438-1.812T17 12t-.937-2.912t-2.438-1.813q-.275-.1-.45-.325T13 6.45V5q0-.825.588-1.412T15 3h4q.825 0 1.413.588T21 5v14q0 .825-.587 1.413T19 21zM5 21q-.825 0-1.412-.587T3 19V5q0-.825.588-1.412T5 3h4q.825 0 1.413.588T11 5v1.45q0 .275-.175.5t-.45.325q-1.5.525-2.437 1.813T7 12t.938 2.913t2.437 1.812q.275.1.45.325t.175.5V19q0 .825-.587 1.413T9 21zm7-6q-.425 0-.712-.288T11 14v-1h-1q-.425 0-.712-.288T9 12t.288-.712T10 11h1v-1q0-.425.288-.712T12 9t.713.288T13 10v1h1q.425 0 .713.288T15 12t-.288.713T14 13h-1v1q0 .425-.288.713T12 15"/></svg>