<svg xmlns="http://www.w3.org/2000/svg" viewBox="0 0 24 24" width="24" height="24"><path fill="currentColor" d="M15.175 18H4q-.825 0-1.412-.587T2 16V4.825L1.375 4.2q-.3-.3-.3-.713t.3-.712t.713-.3t.712.3l18.4 18.4q.3.3.3.7t-.3.7t-.712.3t-.713-.3zM22 4v13.925q0 .35-.3.475t-.55-.125L16.875 14H17q.425 0 .713-.288T18 13t-.288-.712T17 12h-2.125l-1-1H17q.425 0 .713-.288T18 10t-.288-.712T17 9h-5.125l-1-1H17q.425 0 .713-.288T18 7t-.288-.712T17 6H8.875l-2.3-2.3q-.25-.25-.288-.525t.088-.55t.35-.45T7.3 2H20q.825 0 1.413.587T22 4M11.175 14l-2-2H7q-.425 0-.712.288T6 13t.288.713T7 14zm-3-3l-1.8-1.8q-.175.125-.275.338T6 10q0 .425.288.713T7 11z"/></svg>