<svg xmlns="http://www.w3.org/2000/svg" viewBox="0 0 24 24" width="24" height="24"><path fill="currentColor" d="M5 14q-.425 0-.712-.288T4 13t.288-.712T5 12h14q.425 0 .713.288T20 13t-.288.713T19 14zm0-3q-.425 0-.712-.288T4 10t.288-.712T5 9h14q.425 0 .713.288T20 10t-.288.713T19 11zm7 11q-.425 0-.712-.288T11 21v-2.2l-.9.9q-.275.275-.7.275t-.7-.275t-.275-.7t.275-.7l2.6-2.6q.15-.15.325-.212t.375-.063t.375.063t.325.212l2.6 2.6q.275.275.287.688t-.287.712q-.275.275-.687.288t-.713-.263l-.9-.875V21q0 .425-.288.713T12 22m0-14.425q-.2 0-.375-.063T11.3 7.3L8.7 4.7q-.275-.275-.275-.7t.275-.7t.7-.275t.7.275l.9.9V2q0-.425.288-.712T12 1t.713.288T13 2v2.2l.9-.9q.275-.275.7-.275t.7.275t.275.7t-.275.7l-2.6 2.6q-.15.15-.325.213T12 7.575"/></svg>