<svg xmlns="http://www.w3.org/2000/svg" viewBox="0 0 24 24" width="24" height="24"><path fill="currentColor" d="M9.175 16H3q-.425 0-.712-.288T2 15t.288-.712T3 14h6.175L7.3 12.125q-.275-.275-.275-.687t.275-.713q.3-.3.713-.3t.712.3L12.3 14.3q.15.15.213.325t.062.375t-.062.375t-.213.325l-3.6 3.6q-.3.3-.7.288t-.7-.313q-.275-.3-.287-.7t.287-.7zm5.65-6l1.875 1.875q.275.275.275.688t-.275.712q-.3.3-.712.3t-.713-.3L11.7 9.7q-.15-.15-.212-.325T11.425 9t.063-.375t.212-.325l3.6-3.6q.3-.3.7-.287t.7.312q.275.3.288.7t-.288.7L14.825 8H21q.425 0 .713.288T22 9t-.288.713T21 10z"/></svg>