<svg xmlns="http://www.w3.org/2000/svg" viewBox="0 0 24 24" width="24" height="24"><path fill="currentColor" d="M17 22q-.425 0-.712-.288T16 21v-1.25q-.975-.325-1.75-.987t-1.225-1.588q-.2-.375 0-.75t.6-.55q.35-.15.7.025t.55.525q.4.725 1.1 1.15T17.5 18h3q.625 0 1.063.438T22 19.5V21q0 .425-.288.713T21 22zm2-5q-.825 0-1.412-.587T17 15t.588-1.412T19 13t1.413.588T21 15t-.587 1.413T19 17M3 11q-.425 0-.712-.288T2 10V8.5q0-.625.438-1.062T3.5 7h3q.825 0 1.525-.425t1.1-1.15q.2-.35.55-.562t.725-.088q.425.125.65.475t.075.725Q10.7 7 9.875 7.7T8 8.75V10q0 .425-.288.713T7 11zm2-5q-.825 0-1.412-.587T3 4t.588-1.412T5 2t1.413.588T7 4t-.587 1.413T5 6m5 8q-.425 0-.712-.288T9 13q0-3.35 2.325-5.675T17 5q.425 0 .713.287T18 6t-.288.713T17 7q-2.5 0-4.25 1.75T11 13q0 .425-.288.713T10 14m4 0q-.425 0-.712-.288T13 13q0-1.65 1.175-2.825T17 9q.425 0 .713.288T18 10t-.288.713T17 11q-.825 0-1.412.588T15 13q0 .425-.288.713T14 14"/></svg>