<svg xmlns="http://www.w3.org/2000/svg" viewBox="0 0 24 24" width="24" height="24"><path fill="currentColor" d="M5 21q-.825 0-1.412-.587T3 19V5q0-.825.588-1.412T5 3h14q.825 0 1.413.588T21 5v14q0 .825-.587 1.413T19 21zm0-2h14V5zM7.5 9v1.25q0 .325.213.538T8.25 11t.538-.213T9 10.25V9h1.25q.325 0 .538-.213T11 8.25t-.213-.537t-.537-.213H9V6.25q0-.325-.213-.537T8.25 5.5t-.537.213t-.213.537V7.5H6.25q-.325 0-.537.213T5.5 8.25t.213.538T6.25 9zm8.775 7h-3.5q-.325 0-.537-.213t-.213-.537t.213-.537t.537-.213h3.5q.325 0 .538.213t.212.537t-.212.538t-.538.212"/></svg>