<svg xmlns="http://www.w3.org/2000/svg" viewBox="0 0 24 24" width="24" height="24"><path fill="currentColor" d="M11.975 15.025q-1.25 0-2.125-.875t-.875-2.125T9.85 9.9t2.125-.875T14.1 9.9t.875 2.125t-.875 2.125t-2.125.875m-1.425 5.55L8.425 18.45q-.3-.3-.288-.712t.313-.713t.713-.3t.712.3L12 19.175l2.125-2.125q.275-.275.7-.275t.7.275t.275.7t-.275.7L13.4 20.575q-.3.3-.675.45t-.75.15t-.75-.15t-.675-.45m-5.025-5L3.4 13.45q-.3-.3-.45-.675t-.15-.75t.15-.75t.45-.675l2.125-2.125q.3-.3.713-.3t.712.3t.3.713t-.3.712L4.8 12.05l2.125 2.125q.275.275.275.7t-.275.7t-.7.275t-.7-.275m2.9-10.025l2.125-2.125q.3-.3.675-.45t.75-.15t.75.15t.675.45l2.125 2.125q.3.3.3.7t-.3.7t-.712.3t-.713-.3l-2.15-2.125L9.825 6.95q-.275.275-.7.275t-.7-.275t-.275-.7t.275-.7m8.6 8.575L19.15 12l-2.125-2.125q-.275-.275-.275-.7t.275-.7t.7-.275t.7.275L20.55 10.6q.3.3.45.675t.15.75t-.15.75t-.45.675l-2.125 2.125q-.3.3-.7.288t-.7-.313t-.3-.712t.3-.713"/></svg>