<svg xmlns="http://www.w3.org/2000/svg" viewBox="0 0 24 24" width="24" height="24"><path fill="currentColor" d="M0 21V3h24v18zm9-7q1.25 0 2.125-.875T12 11t-.875-2.125T9 8t-2.125.875T6 11t.875 2.125T9 14m-6.9 5h13.8q-1.05-1.875-2.9-2.937T9 15t-4 1.063T2.1 19m15.15-8.7v.95q0 .325.213.537T18 12t.538-.213t.212-.537v-.95l.825.475q.275.15.575.075t.45-.35t.075-.575t-.35-.45L19.5 9l.825-.475q.275-.15.35-.45T20.6 7.5t-.45-.35t-.575.075l-.825.475v-.95q0-.325-.213-.537T18 6t-.537.213t-.213.537v.95l-.825-.475q-.275-.15-.575-.075t-.45.35t-.075.575t.35.45L16.5 9l-.825.475q-.275.15-.35.45t.075.575t.45.35t.575-.075z"/></svg>