<svg xmlns="http://www.w3.org/2000/svg" viewBox="0 0 24 24" width="24" height="24"><path fill="currentColor" d="M7 16h5q.425 0 .713-.288T13 15v-1q0-.425-.288-.712T12 13H7q-.425 0-.712.288T6 14v1q0 .425.288.713T7 16m9 0h1q.425 0 .713-.288T18 15V9q0-.425-.288-.712T17 8h-1q-.425 0-.712.288T15 9v6q0 .425.288.713T16 16m-9-5h5q.425 0 .713-.288T13 10V9q0-.425-.288-.712T12 8H7q-.425 0-.712.288T6 9v1q0 .425.288.713T7 11m-3 9q-.825 0-1.412-.587T2 18V6q0-.825.588-1.412T4 4h16q.825 0 1.413.588T22 6v12q0 .825-.587 1.413T20 20z"/></svg>