<svg xmlns="http://www.w3.org/2000/svg" viewBox="0 0 24 24" width="24" height="24"><path fill="currentColor" d="M19.75 22.575L1.35 4.2q-.3-.3-.3-.713t.3-.712t.713-.3t.712.3l18.4 18.4q.3.3.3.7t-.3.7t-.712.3t-.713-.3M11 19q-1.65 0-2.825-1.175T7 15t1.175-2.825T11 11l2 2h-2q-.825 0-1.412.588T9 15t.588 1.413T11 17h6l3.55 3.55q-.35.2-.737.325T19 21q-.975 0-1.75-.562T16.175 19zm10.125-3.125q.5.5.725 1.175t.125 1.35q-.05.2-.238.25t-.337-.1l-1.525-1.525L18.45 15.6q-.15-.15-.087-.337t.262-.238q.675-.1 1.338.125t1.162.725M5 9q-1.25 0-2.125-.875T2 6q0-.8.4-1.475T3.45 3.45l4.1 4.1q-.4.65-1.075 1.05T5 9m10.225 3q-.425 0-.712-.287T14.225 11q0-.275.375-.8q.225-.225.313-.537T15 9q0-.825-.587-1.412T13 7h-2.725q-.5 0-.75-.312T9.275 6t.25-.687t.75-.313H13q1.65 0 2.825 1.175T17 9q0 .775-.275 1.45t-.75 1.2q-.125.15-.325.25t-.425.1"/></svg>