<svg xmlns="http://www.w3.org/2000/svg" viewBox="0 0 24 24" width="24" height="24"><path fill="currentColor" d="M5 21q-1.25 0-2.125-.875T2 18t.875-2.125T5 15h14q1.25 0 2.125.875T22 18t-.875 2.125T19 21zm0-2h14q.425 0 .713-.288T20 18t-.288-.712T19 17H5q-.425 0-.712.288T4 18t.288.713T5 19m5-6q-.425 0-.712-.288T9 12V4q0-.425.288-.712T10 3h8q.425 0 .713.288T19 4v8q0 .425-.288.713T18 13zm-7.05-2.05q-.4 0-.675-.288T2 9.976t.288-.675t.687-.275h3q.4 0 .675.275t.275.675t-.275.688t-.675.287zM13 8h2.025q.425 0 .7-.288T16 7t-.275-.7t-.7-.275h-2.05q-.425 0-.7.275T12 7t.288.712T13 8M4.975 8q-.425 0-.7-.288T4 7t.288-.7T5 6.025h.95q.425 0 .7.275t.275.7t-.275.713t-.7.287z"/></svg>