<svg xmlns="http://www.w3.org/2000/svg" viewBox="0 0 24 24" width="24" height="24"><path fill="currentColor" d="M8.5 15q.625 0 1.063-.437T10 13.5t-.437-1.062T8.5 12t-1.062.438T7 13.5t.438 1.063T8.5 15m3.5 7q-2.075 0-3.9-.788t-3.175-2.137T2.788 15.9T2 12q0-1.55.425-2.937T3.65 6.475L1.375 4.2q-.3-.3-.3-.712t.3-.713t.713-.3t.712.3l18.4 18.4q.3.3.3.7t-.3.7t-.712.3t-.713-.3l-2.25-2.225q-1.2.8-2.587 1.225T12 22m7-14.05q-.05 1.1.613 1.95t1.612.975q.325.05.55.287t.225.563q0 1.1-.2 2.162t-.625 2.088q-.125.3-.375.475t-.525.225t-.562-.037t-.538-.338L7.75 4.875q-.25-.25-.337-.55t-.038-.6t.225-.55t.475-.375q1.125-.45 2.338-.612t2.412-.163q.475 0 .825.3T14 3.1q0 1.525 1.2 2.763t2.775 1.087q.425-.05.738.263T19 7.95"/></svg>