<svg xmlns="http://www.w3.org/2000/svg" viewBox="0 0 24 24" width="24" height="24"><path fill="currentColor" d="M12 22q-2.075 0-3.9-.788t-3.175-2.137T2.788 15.9T2 12t.788-3.9t2.137-3.175T8.1 2.788T12 2t3.9.788t3.175 2.137T21.213 8.1T22 12t-.788 3.9t-2.137 3.175t-3.175 2.138T12 22m-2-5h3q.825 0 1.413-.587T15 15v-1.5q0-.65-.425-1.075T13.5 12q.65 0 1.075-.425T15 10.5V9q0-.825-.587-1.412T13 7h-3q-.425 0-.712.288T9 8t.288.713T10 9h3v2h-1q-.425 0-.712.288T11 12t.288.713T12 13h1v2h-3q-.425 0-.712.288T9 16t.288.713T10 17"/></svg>