<svg xmlns="http://www.w3.org/2000/svg" viewBox="0 0 24 24" width="24" height="24"><path fill="currentColor" d="M18.5 16.8v-2.3q0-.2-.15-.35T18 14t-.35.15t-.15.35v2.275q0 .2.075.388t.225.337l1.525 1.525q.15.15.35.15t.35-.15t.15-.35t-.15-.35zm-.475 5.2q-2.1 0-3.562-1.45T13 17t1.463-3.55T18.025 12q2.075 0 3.525 1.463T23 17t-1.45 3.538T18.025 22M4 20q-.825 0-1.412-.587T2 18V6q0-.825.588-1.412T4 4h16q.825 0 1.413.588T22 6v3.825q0 .425-.288.713t-.712.287t-.712-.287T20 9.825V8H4v4h7.5q.425 0 .625.4t-.075.775q-.55.825-.85 1.8T10.9 17q0 .475.063.938t.187.887t-.137.8t-.688.375z"/></svg>