<svg xmlns="http://www.w3.org/2000/svg" viewBox="0 0 24 24" width="24" height="24"><path fill="currentColor" d="M14.275 17.25q.275-.25.3-.625t-.25-.65L11.55 13.05l.025-.075h.25q1.35 0 2.238-.825t1.087-1.925h.425q.25 0 .413-.175t.162-.425t-.162-.413t-.413-.162h-.45q-.075-.375-.262-.712t-.463-.663h1.175q.25 0 .413-.175t.162-.425t-.162-.412t-.413-.163h-7q-.3 0-.512.213t-.213.512t.213.5t.512.2h3.175q.65 0 1.063.325t.562.8h-4.95q-.25 0-.413.175t-.162.425t.163.413t.412.162H13.4q-.15.5-.575.863t-1.15.362h-1.7q-.325 0-.562.15t-.363.425t-.075.563t.275.537l3.75 4.1q.25.275.625.275t.65-.25M12 22q-2.075 0-3.9-.788t-3.175-2.137T2.788 15.9T2 12t.788-3.9t2.137-3.175T8.1 2.788T12 2t3.9.788t3.175 2.137T21.213 8.1T22 12t-.788 3.9t-2.137 3.175t-3.175 2.138T12 22"/></svg>