<svg xmlns="http://www.w3.org/2000/svg" viewBox="0 0 24 24" width="24" height="24"><path fill="currentColor" d="M7 21q-.425 0-.712-.288T6 20v-.45q0-.275.125-.5t.325-.35q.95-.625 1.55-1.575T8.6 15q0-.275-.038-.525T8.476 14H7q-.425 0-.712-.288T6 13t.288-.712T7 12h.5q-.525-.825-1.012-1.737T6 8q0-2.3 1.6-3.9t3.9-1.6q1.525 0 2.763.737t1.962 1.938q.2.35.025.7t-.55.525q-.375.15-.737.013t-.613-.463q-.475-.65-1.225-1.05T11.5 4.5q-1.45 0-2.475 1.025T8 8q0 1.2.6 2t1.225 2H13q.425 0 .713.288T14 13t-.288.713T13 14h-2.475q.05.225.063.475T10.6 15q0 1.25-.437 2.25T9.1 19H14q.875 0 1.425-.413t.725-1.112q.1-.375.338-.638t.637-.262q.425 0 .7.288t.275.712q0 1.525-1.363 2.475T14 21z"/></svg>