<svg xmlns="http://www.w3.org/2000/svg" viewBox="0 0 24 24" width="24" height="24"><path fill="currentColor" d="M12 22q-2.075 0-3.9-.788t-3.175-2.137T2.788 15.9T2 12q0-3.25 1.875-5.85T8.85 2.525q.725-.25 1.338.175t.612 1.15q0 .5-.287.912t-.738.563Q7.625 6 6.312 7.838T5 12q0 2.925 2.038 4.963T12 19q1.3 0 2.513-.45t2.162-1.3q.375-.35.913-.35t.912.35q.575.525.6 1.188t-.55 1.162q-1.35 1.175-3.012 1.788T12 22m7-10q0-2.3-1.325-4.137T14.2 5.325q-.45-.15-.737-.562t-.288-.913q0-.725.613-1.15t1.337-.175q3.125 1.05 5 3.65T22 12q0 .45-.038.913t-.137 1.012q-.125.725-.737 1.038T19.75 15q-.475-.175-.737-.638t-.163-.962q.075-.425.113-.75T19 12m-8 1H9q-.425 0-.712-.288T8 12t.288-.712T9 11h2V9q0-.425.288-.712T12 8t.713.288T13 9v2h2q.425 0 .713.288T16 12t-.288.713T15 13h-2v2q0 .425-.288.713T12 16t-.712-.288T11 15z"/></svg>