<svg xmlns="http://www.w3.org/2000/svg" viewBox="0 0 24 24" width="24" height="24"><path fill="currentColor" d="M12 21q-1.025 0-2.562-.213T6.475 20.1t-2.45-1.237T3 17v-2.5q0 1.1 1.025 1.863t2.45 1.237t2.963.688T12 18.5q1.05 0 2.588-.213t2.987-.712l1.75 1.75q-1.55.9-3.75 1.288T12 21m8.775-3.05l-1.25-1.25q.675-.425 1.075-.975T21 14.5V17q0 .275-.05.5t-.175.45M12 16q-1.025 0-2.563-.213T6.475 15.1t-2.45-1.237T3 12V9.5q0 1.1 1.025 1.863t2.45 1.237t2.963.688T12 13.5q.3 0 .663-.012t.762-.063L15.6 15.6q-1.025.2-1.962.3T12 16m5.825-1l-1.95-1.95q1.925-.425 3.525-1.275T21 9.5V12q0 1.05-.913 1.788T17.825 15m-6.85-4.025q-3.4-.175-5.687-1.3T3 7q0-.65.438-1.237t1.237-1.088zm2.775-.05L6.625 3.8q1.125-.375 2.488-.587T12 3q3.75 0 6.375 1.175T21 7q0 1.45-2.062 2.55t-5.188 1.375M19.075 21.9L2.1 4.925q-.275-.275-.275-.687t.275-.713q.3-.3.713-.3t.712.3L20.5 20.5q.3.3.288.7t-.313.7q-.3.275-.7.288t-.7-.288"/></svg>