<svg xmlns="http://www.w3.org/2000/svg" viewBox="0 0 24 24" width="24" height="24"><path fill="currentColor" d="m15.525 19l.875.875q.275.3.288.713t-.288.712t-.712.3t-.713-.3L12.4 18.7q-.3-.3-.3-.7t.3-.7l2.575-2.6q.3-.3.713-.3t.712.3t.288.713t-.288.712l-.875.875h5.15q.425 0 .713.288t.287.712t-.288.713t-.712.287zM4 13H3q-.425 0-.712-.288T2 12v-1q0-.425.288-.712T3 10h1q.425 0 .713.288T5 11v1q0 .425-.288.713T4 13m5.5 0q-1.45 0-2.475-1.025T6 9.5v-4q0-1.45 1.025-2.475T9.5 2t2.475 1.025T13 5.5v4q0 1.45-1.025 2.475T9.5 13m0-2q.625 0 1.063-.437T11 9.5v-4q0-.625-.437-1.062T9.5 4t-1.062.438T8 5.5v4q0 .625.438 1.063T9.5 11"/></svg>