<svg xmlns="http://www.w3.org/2000/svg" viewBox="0 0 24 24" width="24" height="24"><path fill="currentColor" d="M13 19.95q0 .425-.3.738t-.725.312q-1.525-.025-2.9-.488T6.45 19.075q-1.125-.875-1.925-2.05t-1.2-2.6q-.125-.4.1-.75t.625-.475t.75.088t.475.612q.3 1.125.95 2.063t1.525 1.612q.9.7 2 1.063t2.225.362q.425 0 .725.275t.3.675m5.5-1.025L17.1 20.3q-.275.275-.687.288T15.7 20.3q-.275-.275-.275-.7t.275-.7l1.4-1.4l-1.4-1.4q-.275-.275-.275-.7t.275-.7t.7-.275t.7.275l1.4 1.4l1.4-1.4q.275-.275.688-.287t.712.287q.275.275.275.7t-.275.7l-1.375 1.4l1.375 1.4q.275.275.288.688t-.288.712q-.275.275-.7.275t-.7-.275zM12 5q-1.725 0-3.225.8T6.25 8H8q.425 0 .713.288T9 9t-.288.713T8 10H4q-.425 0-.712-.288T3 9V5q0-.425.288-.712T4 4t.713.288T5 5v1.35q1.275-1.6 3.113-2.475T12 3q1.875 0 3.513.7t2.862 1.925q1 1 1.675 2.3t.875 2.775q.05.425-.187.763t-.663.387t-.762-.187t-.388-.663q-.175-1.15-.675-2.15t-1.3-1.8q-.95-.95-2.212-1.5T12 5m1 6.6l1.2 1.2q.35.35.313.738t-.313.662t-.662.313t-.738-.313l-1.5-1.5q-.15-.15-.225-.337T11 11.975V8q0-.425.288-.712T12 7t.713.288T13 8z"/></svg>