<svg xmlns="http://www.w3.org/2000/svg" viewBox="0 0 24 24" width="24" height="24"><path fill="currentColor" d="M1.75 13.325q-.425 0-.712-.287t-.288-.713t.288-.712t.712-.288h3.5q.425 0 .713.288t.287.712t-.288.713t-.712.287zM7 20q-1.25 0-2.125-.875T4 17H2.75q-.5 0-.8-.375t-.175-.85l.225-.95h3.125q1.05 0 1.775-.725t.725-1.775q0-.325-.075-.6t-.2-.55h.95q1.05 0 1.775-.725t.725-1.775t-.725-1.775T8.3 6.175H4.5l.15-.6q.15-.7.688-1.137T6.6 4h10.15q.5 0 .8.375t.175.85L17.075 8H19q.475 0 .9.213t.7.587l1.875 2.475q.275.35.35.763t0 .837L22.15 16.2q-.075.35-.35.575t-.625.225H20q0 1.25-.875 2.125T17 20t-2.125-.875T14 17h-4q0 1.25-.875 2.125T7 20M3.75 9.675q-.425 0-.712-.288t-.288-.712t.288-.712t.712-.288h4.5q.425 0 .713.288t.287.712t-.288.713t-.712.287zM7 18q.425 0 .713-.288T8 17t-.288-.712T7 16t-.712.288T6 17t.288.713T7 18m10 0q.425 0 .713-.288T18 17t-.288-.712T17 16t-.712.288T16 17t.288.713T17 18m-1.075-5h4.825l.1-.525L19 10h-2.375z"/></svg>