<svg xmlns="http://www.w3.org/2000/svg" viewBox="0 0 24 24" width="24" height="24"><path fill="currentColor" d="M12 12.85q.275 0 .525-.075t.475-.2l5.075-2.925q.35-.2.45-.612t-.1-.763t-.6-.45t-.75.1L12 10.85L6.925 7.925q-.35-.2-.75-.1t-.6.45t-.087.763t.462.612L11 12.575q.225.125.475.2t.525.075m-9 3.125v-7.95q0-.55.263-1T4 6.3l7-4.025q.25-.125.488-.2T12 2t.525.075t.475.2L20 6.3q.475.275.738.725t.262 1v3.4q0 .45-.375.7t-.8.125t-.888-.187T18 12q-2.9 0-4.95 2.05T11 19v.513q0 .237.05.437q.1.625-.363.975T9.726 21L4 17.7q-.475-.275-.737-.725t-.263-1M18 24q-2.075 0-3.537-1.463T13 19t1.463-3.537T18 14t3.538 1.463T23 19t-1.463 3.538T18 24m0-2q.2 0 .35-.15t.15-.35t-.15-.35T18 21t-.35.15t-.15.35t.15.35t.35.15m0-2q.2 0 .35-.15t.15-.35v-3q0-.2-.15-.35T18 16t-.35.15t-.15.35v3q0 .2.15.35T18 20"/></svg>