<svg xmlns="http://www.w3.org/2000/svg" viewBox="0 0 24 24" width="24" height="24"><path fill="currentColor" d="M4 20q-.825 0-1.412-.587T2 18V6q0-.825.588-1.412T4 4h16q.825 0 1.413.588T22 6v5.475q0 .45-.387.713t-.813.087q-.425-.125-.862-.2T19.025 12q-.275 0-.525.013t-.5.062V10q0-.825-.587-1.412T16 8H9.75q-.325 0-.537.213T9 8.75t.213.538t.537.212H16q.2 0 .35.15t.15.35v2.55q-.425.2-.788.438t-.712.537V12q0-.425-.288-.712T14 11H7q-.425 0-.712.288T6 12v3q0 .425.288.713T7 16h6.35q-.275.725-.337 1.5t.062 1.525q.05.375-.175.675t-.575.3zm14-1h-2q-.425 0-.712-.288T15 18t.288-.712T16 17h2v-2q0-.425.288-.712T19 14t.713.288T20 15v2h2q.425 0 .713.288T23 18t-.288.713T22 19h-2v2q0 .425-.288.713T19 22t-.712-.288T18 21z"/></svg>