<svg xmlns="http://www.w3.org/2000/svg" viewBox="0 0 24 24" width="24" height="24"><path fill="currentColor" d="M17 19h2V5h-2zM7 14q.425 0 .713-.288T8 13t-.288-.712T7 12t-.712.288T6 13t.288.713T7 14m0 3q.425 0 .713-.288T8 16t-.288-.712T7 15t-.712.288T6 16t.288.713T7 17m0-6h6q.425 0 .713-.288T14 10V8q0-.425-.288-.712T13 7H7q-.425 0-.712.288T6 8v2q0 .425.288.713T7 11m3 3q.425 0 .713-.288T11 13t-.288-.712T10 12t-.712.288T9 13t.288.713T10 14m0 3q.425 0 .713-.288T11 16t-.288-.712T10 15t-.712.288T9 16t.288.713T10 17m3-3q.425 0 .713-.288T14 13t-.288-.712T13 12t-.712.288T12 13t.288.713T13 14m0 3q.425 0 .713-.288T14 16t-.288-.712T13 15t-.712.288T12 16t.288.713T13 17m4 4q-.575 0-1.012-.275T15.275 20H5q-.825 0-1.412-.587T3 18V6q0-.825.588-1.412T5 4h10.275q.275-.45.713-.725T17 3h2q.825 0 1.413.588T21 5v14q0 .825-.587 1.413T19 21z"/></svg>