<svg xmlns="http://www.w3.org/2000/svg" viewBox="0 0 24 24" width="24" height="24"><path fill="currentColor" d="M19.775 22.625L13.2 16.05L12.8 18h-4l1-5.1l-1.8.7V16q0 .425-.288.712T7 17t-.712-.288T6 16v-3.05q0-.3.163-.537t.437-.363l1.8-.775L1.375 4.25q-.3-.3-.288-.712t.313-.713t.713-.3t.712.3l18.375 18.4q.3.3.3.7t-.3.7t-.712.3t-.713-.3M4 22q-.825 0-1.412-.587T2 20v-2q0-.425.288-.712T3 17t.713.288T4 18v2h2q.425 0 .713.288T7 21t-.288.713T6 22zM20 6V4h-2q-.425 0-.712-.288T17 3t.288-.712T18 2h2q.825 0 1.413.588T22 4v2q0 .425-.288.713T21 7t-.712-.288T20 6M2 6V4.5q0-.425.163-.788t.412-.637L4 4.525V6q0 .425-.288.713T3 7t-.712-.288T2 6m16 16q-.425 0-.712-.288T17 21t.288-.712T18 20h1.725l1.425 1.4q-.25.275-.612.438T19.75 22zM6.825 4l-2-2H7q.425 0 .713.288T8 3t-.288.713T7 4zM22 19.175l-2-2V17q0-.425.288-.712T21 16t.713.288T22 17zM13.5 9.5q-.825 0-1.412-.587T11.5 7.5t.588-1.412T13.5 5.5t1.413.588T15.5 7.5t-.587 1.413T13.5 9.5"/></svg>