<svg xmlns="http://www.w3.org/2000/svg" viewBox="0 0 24 24" width="24" height="24"><path fill="currentColor" d="M19.825 17L16 13.15V12q0-.425-.288-.712T15 11h-1.15l-1.025-1H15q.425 0 .713-.288T16 9V8q0-.425-.288-.712T15 7h-2q-.425 0-.712.288T12 8v1.175L5.825 3H18q.825 0 1.413.588T20 5v2h1q.425 0 .713.288T22 8t-.288.713T21 9h-1v2h1q.425 0 .713.288T22 12t-.288.713T21 13h-1v2h1q.425 0 .713.288T22 16t-.288.713T21 17zM7 17h3q.425 0 .713-.288T11 16v-2q0-.425-.288-.712T10 13H7q-.425 0-.712.288T6 14v2q0 .425.288.713T7 17M3.2 3.175l16.8 16.8q-.35.5-.875.763T18 21H4q-.825 0-1.412-.587T2 19V5q0-.625.338-1.112t.862-.713m8.8 8.8V16q0 .425.288.713T13 17h2q.425 0 .713-.288T16 16v-.025zM7.025 7H7q-.425 0-.712.288T6 8v3q0 .425.288.713T7 12h3q.425 0 .713-.288T11 11v-.025zm12.75 15.575L1.375 4.2q-.3-.3-.3-.713t.3-.712t.713-.3t.712.3l18.4 18.4q.3.3.3.7t-.3.7t-.712.3t-.713-.3"/></svg>