<svg xmlns="http://www.w3.org/2000/svg" viewBox="0 0 24 24" width="24" height="24"><path fill="currentColor" d="M11 20H3q-.425 0-.712-.288T2 19t.288-.712T3 18h8q.425 0 .713.288T12 19t-.288.713T11 20m-6-3q-.825 0-1.412-.587T3 15V6q0-.825.588-1.412T5 4h14q.825 0 1.413.588T21 6h-5.5q-1.45 0-2.475 1.025T12 9.5V16q0 .425-.288.713T11 17zm10.5 3q-.625 0-1.062-.437T14 18.5v-9q0-.625.438-1.062T15.5 8h5q.625 0 1.063.438T22 9.5v9q0 .625-.437 1.063T20.5 20zm2.5-7.5q.325 0 .538-.225t.212-.525q0-.325-.213-.537T18 11q-.3 0-.525.213t-.225.537q0 .3.225.525T18 12.5"/></svg>