<svg xmlns="http://www.w3.org/2000/svg" viewBox="0 0 24 24" width="24" height="24"><path fill="currentColor" d="M19.8 22.6L17.2 20h-1.7q-.625 0-1.062-.437T14 18.5v-1.7l-2-2V16q0 .425-.288.713T11 17H5q-.825 0-1.412-.587T3 15V5.8L1.4 4.2q-.275-.275-.275-.7t.275-.7t.7-.275t.7.275l18.4 18.4q.275.275.275.7t-.275.7t-.7.275t-.7-.275M12.025 9.175L6.85 4H19q.825 0 1.413.588T21 6h-5.487q-1.37 0-2.367.913t-1.121 2.262M21.9 19.05l-7.9-7.9V9.5q0-.625.438-1.062T15.5 8h5q.625 0 1.063.438T22 9.5v9q0 .15-.03.288t-.07.262M18 12.5q.325 0 .538-.225t.212-.525q0-.325-.213-.537T18 11q-.3 0-.525.213t-.225.537q0 .3.225.525T18 12.5M3 20q-.425 0-.712-.288T2 19t.288-.712T3 18h8q.425 0 .713.288T12 19t-.288.713T11 20z"/></svg>