<svg xmlns="http://www.w3.org/2000/svg" viewBox="0 0 24 24" width="24" height="24"><path fill="currentColor" d="M17.5 18q1.45 0 2.475-1.025T21 14.5t-1.025-2.475T17.5 11t-2.475 1.025T14 14.5t1.025 2.475T17.5 18M4 22q-.825 0-1.412-.587T2 20V4q0-.825.588-1.412T4 2h8q.825 0 1.413.588T14 4v3.625q0 .425-.288.713T13 8.625t-.712-.288T12 7.626V7H4v10h5.4q.475 0 .85.263t.575.687q.375.75.925 1.4t1.225 1.15q.175.125.263.3t.087.375q0 .375-.325.6t-.75.225zm11-1v-1.6q-1.4-.7-2.2-2.013T12 14.5t.8-2.887T15 9.6V8q0-.425.288-.712T16 7h3q.425 0 .713.288T20 8v1.6q1.4.7 2.2 2.013T23 14.5t-.8 2.888T20 19.4V21q0 .425-.288.713T19 22h-3q-.425 0-.712-.288T15 21"/></svg>