<svg xmlns="http://www.w3.org/2000/svg" viewBox="0 0 24 24" width="24" height="24"><path fill="currentColor" d="M3.175 4.175q.3-.3.7-.3t.7.3l.725.7q.3.3.3.713t-.3.712t-.712.3t-.713-.3l-.7-.725q-.3-.3-.3-.7t.3-.7M12 2q.425 0 .713.288T13 3v1q0 .425-.288.713T12 5t-.712-.288T11 4V3q0-.425.288-.712T12 2m8.8 2.175q.3.3.288.7t-.313.7l-.7.725q-.3.3-.7.3t-.7-.3t-.3-.712t.3-.713l.7-.7q.3-.3.713-.3t.712.3M5.125 14h13.75q.35 0 .475.3t-.125.55L13.4 20.6q-.575.575-1.4.575t-1.4-.575l-5.825-5.75q-.25-.25-.125-.55t.475-.3m-.55-2.825L7.4 7.725q.275-.35.688-.537T8.95 7h6.1q.45 0 .863.188t.687.537l2.825 3.45q.2.25.075.538t-.45.287H4.95q-.325 0-.45-.288t.075-.537"/></svg>