<svg xmlns="http://www.w3.org/2000/svg" viewBox="0 0 24 24" width="24" height="24"><path fill="currentColor" d="M3 12q0-3.75 2.625-6.375T12 3V2q0-.3.275-.45t.525.05l3.125 2.35q.4.3.4.8t-.4.8L12.8 7.9q-.25.2-.525.05T12 7.5v-1q-2.275 0-3.888 1.613T6.5 12q0 .825.238 1.588T7.4 15q.275.4.225.863T7.2 16.6l-.85.625q-.45.35-1 .275t-.875-.55q-.725-1.075-1.1-2.325T3 12m9 9v1q0 .3-.275.45t-.525-.05l-3.125-2.35q-.4-.3-.4-.8t.4-.8L11.2 16.1q.25-.2.525-.05t.275.45v1q2.275 0 3.888-1.613T17.5 12q0-.825-.238-1.588T16.6 9q-.275-.4-.225-.862T16.8 7.4l.85-.625q.45-.35 1-.263t.875.538q.7 1.075 1.088 2.325T21 12q0 3.75-2.625 6.375T12 21"/></svg>