<svg xmlns="http://www.w3.org/2000/svg" viewBox="0 0 24 24" width="24" height="24"><path fill="currentColor" d="M1 19v-3q0-.85.588-1.425T3 14h3.275q.5 0 .95.25t.725.675q.725.975 1.788 1.525T12 17q1.225 0 2.288-.55t1.762-1.525q.325-.425.763-.675t.912-.25H21q.85 0 1.425.575T23 16v3q0 .425-.288.713T22 20h-5q-.425 0-.712-.288T16 19v-1.275q-.875.625-1.888.95T12 19q-1.075 0-2.1-.337T8 17.7V19q0 .425-.288.713T7 20H2q-.425 0-.712-.288T1 19m11-3q-.95 0-1.8-.437T8.775 14.35q-.425-.625-1.062-.987T6.325 13q.55-.925 2.325-1.463T12 11t3.35.538T17.675 13q-.725 0-1.375.363t-1.075.987q-.55.8-1.4 1.225T12 16m-8-3q-1.25 0-2.125-.875T1 10q0-1.275.875-2.137T4 7q1.275 0 2.138.863T7 10q0 1.25-.862 2.125T4 13m16 0q-1.25 0-2.125-.875T17 10q0-1.275.875-2.137T20 7q1.275 0 2.138.863T23 10q0 1.25-.862 2.125T20 13m-8-3q-1.25 0-2.125-.875T9 7q0-1.275.875-2.137T12 4q1.275 0 2.138.863T15 7q0 1.25-.862 2.125T12 10"/></svg>