<svg xmlns="http://www.w3.org/2000/svg" viewBox="0 0 24 24" width="24" height="24"><path fill="currentColor" d="M2 5V3q0-.825.588-1.412T4 1h2q.425 0 .713.288T7 2t-.288.713T6 3H4v2q0 .425-.288.713T3 6t-.712-.288T2 5m18 0V3h-2q-.425 0-.712-.288T17 2t.288-.712T18 1h2q.825 0 1.413.588T22 3v2q0 .425-.288.713T21 6t-.712-.288T20 5M2 21v-2q0-.425.288-.712T3 18t.713.288T4 19v2h2q.425 0 .713.288T7 22t-.288.713T6 23H4q-.825 0-1.412-.587T2 21m18 2h-2q-.425 0-.712-.288T17 22t.288-.712T18 21h2v-2q0-.425.288-.712T21 18t.713.288T22 19v2q0 .825-.587 1.413T20 23M7 20q-.825 0-1.412-.587T5 18V6q0-.825.588-1.412T7 4h10q.825 0 1.413.588T19 6v12q0 .825-.587 1.413T17 20zm3-10h4q.425 0 .713-.288T15 9t-.288-.712T14 8h-4q-.425 0-.712.288T9 9t.288.713T10 10m0 3h4q.425 0 .713-.288T15 12t-.288-.712T14 11h-4q-.425 0-.712.288T9 12t.288.713T10 13m0 3h4q.425 0 .713-.288T15 15t-.288-.712T14 14h-4q-.425 0-.712.288T9 15t.288.713T10 16"/></svg>