<svg xmlns="http://www.w3.org/2000/svg" viewBox="0 0 24 24" width="24" height="24"><path fill="currentColor" d="M1.75 13.05q-.3-.3-.288-.7t.313-.7q.3-.275.7-.288t.7.288l3.55 3.55l.35.35l.35.35q.3.3.288.7t-.313.7q-.3.275-.7.288T6 17.3zm10.6 2.125l8.5-8.5q.3-.3.7-.287t.7.312q.275.3.288.7t-.288.7l-9.2 9.2q-.3.3-.7.3t-.7-.3L7.4 13.05q-.275-.275-.275-.687t.275-.713q.3-.3.713-.3t.712.3zm4.225-7.05L13.05 11.65q-.275.275-.687.275t-.713-.275q-.3-.3-.3-.712t.3-.713L15.175 6.7q.275-.275.688-.275t.712.275q.3.3.3.712t-.3.713"/></svg>