<svg xmlns="http://www.w3.org/2000/svg" viewBox="0 0 24 24" width="24" height="24"><path fill="currentColor" d="M5 12q0 2.325 1.313 4.163t3.462 2.512q.45.15.738.563t.287.912q0 .725-.612 1.15t-1.338.175q-3.1-1.025-4.975-3.625T2 12t1.875-5.85T8.85 2.525q.725-.25 1.338.175t.612 1.15q0 .5-.287.912t-.738.563Q7.625 6 6.312 7.838T5 12m14.05 7.05q-.8.825-1.812 1.438t-2.113.987q-.725.25-1.338-.175t-.612-1.15q0-.5.288-.912t.737-.563q.775-.25 1.488-.687t1.287-1.013q.575-.6 1-1.287t.7-1.488q.15-.45.563-.737t.912-.288q.725 0 1.15.613t.175 1.337q-.375 1.1-.987 2.1T19.05 19.05m0-14.1q.825.825 1.438 1.825t.987 2.1q.25.725-.175 1.338t-1.15.612q-.5 0-.912-.287t-.563-.738q-.275-.8-.7-1.487t-1-1.288q-.575-.575-1.287-1.012T14.2 5.325q-.45-.15-.737-.562t-.288-.913q0-.725.613-1.15t1.337-.175q1.1.375 2.113.988T19.05 4.95"/></svg>