<svg xmlns="http://www.w3.org/2000/svg" viewBox="0 0 24 24" width="24" height="24"><path fill="currentColor" d="M9.8 21.75q-3.425-.775-5.613-3.5T2 12t2.188-6.25T9.8 2.25q.475-.125.838.175t.362.8q0 .35-.2.625t-.55.35Q7.5 4.825 5.75 7T4 12t1.75 5t4.5 2.8q.35.075.55.35t.2.625q0 .5-.362.8t-.838.175m4.4 0q-.475.125-.837-.175t-.363-.8q0-.35.2-.625t.55-.35q.675-.15 1.313-.413t1.212-.637q.275-.2.613-.15t.587.3q.35.35.3.813t-.45.737q-.725.45-1.513.775t-1.612.525m4.7-4.25q-.25-.25-.3-.587t.15-.613q.375-.575.638-1.225t.412-1.325q.075-.35.35-.537t.625-.188q.5 0 .8.363t.175.837q-.2.825-.525 1.613t-.775 1.512q-.275.4-.737.45t-.813-.3m1.875-6.5q-.35 0-.625-.2t-.35-.55q-.15-.675-.413-1.312t-.637-1.213q-.2-.3-.15-.637t.3-.588q.35-.35.813-.3t.737.475q.45.725.775 1.513T21.75 9.8q.125.475-.175.838t-.8.362m-4.5-5.75q-.575-.375-1.212-.638T13.75 4.2q-.35-.075-.55-.35t-.2-.625q0-.5.363-.8t.837-.175q.825.2 1.613.525t1.512.775q.425.275.475.738t-.3.812q-.25.25-.587.3t-.638-.15m-3.3 7.875l1.85-1.85q.3-.3.725-.3t.725.3t.288.725t-.313.725L12.675 16.3q-.275.275-.7.275t-.7-.275L7.65 12.65q-.3-.3-.288-.712t.313-.713t.713-.3t.712.3l1.875 1.9V8q0-.425.288-.712T11.975 7t.713.288t.287.712z"/></svg>