<svg xmlns="http://www.w3.org/2000/svg" viewBox="0 0 24 24" width="24" height="24"><path fill="currentColor" d="m20 17.4l-2.375 2.4q-.3.3-.712.3t-.713-.3t-.3-.712t.3-.713L18.575 16H17q-.425 0-.712-.287T16 15t.288-.712T17 14h4q.425 0 .713.288T22 15v4q0 .425-.288.713T21 20t-.712-.288T20 19zM5.5 21.5q-.425 0-.862-.262T4 20.625L1.5 16.25q-.2-.35-.2-.862t.2-.863L8 3.375q.2-.35.638-.613T9.5 2.5h5q.425 0 .863.263t.637.612l3.6 6.175q.3.525-.012 1.038t-.913.462q-.25-.025-.462-.137t-.338-.338L14.35 4.5h-4.7L3.3 15.4l2.35 4.1h7.4q.25 0 .45.1t.35.3q.35.5.088 1.05t-.888.55zM7.825 17q-.275 0-.513-.125T6.95 16.5l-.15-.275q-.125-.225-.125-.5t.125-.5l4-6.975q.125-.225.363-.363t.512-.137h.65q.275 0 .513.138t.362.362l1.85 3.25q.175.275.138.613t-.263.587q-.35.375-.85.3t-.75-.5L12 10.2L9.25 15h2.925q.475 0 .763.35t.212.825q-.05.35-.35.588t-.65.237z"/></svg>