<svg xmlns="http://www.w3.org/2000/svg" viewBox="0 0 24 24" width="24" height="24"><path fill="currentColor" d="M10 16q-1.425 0-2.475.85T6.125 19q-.125.425-.413.713T5 20t-.7-.3t-.2-.7q.275-1.55 1.225-2.75t2.35-1.775L7.425 12H5q-.425 0-.713-.288T4 11V6H2q-.425 0-.712-.288T1 5t.288-.712T2 4h6q.425 0 .713.288T9 5t-.288.713T8 6H6v4h1.2l-.075-.9q-.05-.45.238-.775T8.1 8h7.8q.45 0 .738.325t.237.775l-.075.9H18V6h-2q-.425 0-.712-.288T15 5t.288-.712T16 4h6.025q.425 0 .713.288t.287.712t-.287.713t-.713.287h-2v5q0 .425-.287.713t-.713.287H16.6l-.25 2.475q1.4.575 2.35 1.775T19.925 19q.075.4-.212.7T19 20t-.712-.288t-.413-.712q-.35-1.3-1.412-2.15T14 16z"/></svg>