<svg xmlns="http://www.w3.org/2000/svg" viewBox="0 0 24 24" width="24" height="24"><path fill="currentColor" d="M4 11q-.825 0-1.412-.587T2 9V6q0-.825.588-1.412T4 4h8q.425 0 .713.288T13 5v5q0 .425-.288.713T12 11zm0 9q-.825 0-1.412-.587T2 18v-3q0-.825.588-1.412T4 13h10q.425 0 .713.288T15 14v5q0 .425-.288.713T14 20zm13-9h-1q-.425 0-.712-.288T15 10V5q0-.425.288-.712T16 4h4.525q.525 0 .825.438t.1.937L20 9h.45q.55 0 .838.463t.062.962l-3.4 9.25q-.075.2-.238.263t-.312.012t-.275-.162t-.125-.313zM6.25 7.5q0-.325-.213-.537T5.5 6.75t-.537.213t-.213.537t.213.538t.537.212t.538-.213t.212-.537m-.75 9.75q.325 0 .538-.213t.212-.537t-.213-.537t-.537-.213t-.537.213t-.213.537t.213.538t.537.212"/></svg>