<svg xmlns="http://www.w3.org/2000/svg" viewBox="0 0 24 24" width="24" height="24"><path fill="currentColor" d="M6 20q-.425 0-.712-.288T5 19t.288-.712T6 18h.6l1.975-6.575q.2-.65.738-1.037T10.5 10h3q.65 0 1.188.388t.737 1.037L17.4 18h.6q.425 0 .713.288T19 19t-.288.713T18 20zm5-13V4q0-.425.288-.712T12 3t.713.288T13 4v3q0 .425-.288.713T12 8t-.712-.288T11 7m5.25 1.35l2.125-2.125q.275-.275.688-.288t.712.288q.275.275.275.7t-.275.7l-2.125 2.15q-.3.3-.7.3t-.7-.3t-.3-.712t.3-.713M19 13h3q.425 0 .713.288T23 14t-.288.713T22 15h-3q-.425 0-.712-.288T18 14t.288-.712T19 13M6.35 9.75L4.225 7.625q-.275-.275-.287-.687t.287-.713q.275-.275.7-.275t.7.275l2.15 2.125q.3.3.3.7t-.3.7t-.712.3t-.713-.3M2 15q-.425 0-.712-.288T1 14t.288-.712T2 13h3q.425 0 .713.288T6 14t-.288.713T5 15z"/></svg>