<svg xmlns="http://www.w3.org/2000/svg" viewBox="0 0 24 24" width="24" height="24"><path fill="currentColor" d="M9 11.5q1.05 0 1.775-.737T11.5 9q0-1.05-.725-1.775T9 6.5t-1.775.725T6.5 9q0 1.025.725 1.763T9 11.5m8.8 2.325q-.375-.15-.537-.513t-.013-.712q.375-.85.563-1.762T18 9t-.187-1.825t-.563-1.75q-.15-.35.025-.687t.55-.488q.425-.15.813.038t.562.612q.425.975.613 2.013T20 9q0 1.075-.2 2.113t-.625 2.037q-.175.425-.562.625t-.813.05m2.9 2.9q-.35-.175-.5-.537t.05-.688q.875-1.475 1.313-3.1T22 9.05t-.45-3.363t-1.325-3.137q-.2-.325-.038-.687t.513-.538q.425-.2.863-.012t.662.612q.875 1.65 1.325 3.425T24 9t-.462 3.688T22.2 16.15q-.225.425-.65.6t-.85-.025M4 18q0-.425-.287-.712T3 17t-.712.288T2 18q0 1.65 1.175 2.825T6 22q1.55 0 2.538-.775t1.512-2.275q.425-1.25.813-1.75t1.787-1.6q1.55-1.25 2.45-2.825T16 9q0-2.975-2.013-4.987T9 2T4.012 4.013T2 9q0 .425.288.713T3 10t.713-.288T4 9q0-2.125 1.438-3.562T9 4t3.563 1.438T14 9q0 1.7-.675 2.9T11.4 14.05q-1.3.95-2.025 1.85T8.3 17.85q-.35 1.1-.838 1.625T6 20q-.825 0-1.412-.587T4 18"/></svg>