<svg xmlns="http://www.w3.org/2000/svg" viewBox="0 0 24 24" width="24" height="24"><path fill="currentColor" d="M17.5 23q-.625 0-1.062-.425T16 21.5V13q0-.425.288-.712T17 12h4.5q.65 0 1.075.438T23 13.5v3q0 .65-.425 1.075T21.5 18H21v3.5q0 .65-.425 1.075T19.5 23zm-5-4q-1.675 0-2.887-1.15T8.4 15q0-1.675 1.213-2.838T12.5 11h1q.425 0 .713.288T14.5 12v6q0 .425-.288.713T13.5 19zm-8-6q-.65 0-1.075-.425T3 11.5V8h-.5q-.65 0-1.075-.425T1 6.5v-3q0-.625.425-1.062T2.5 2H7q.425 0 .713.288T8 3v8.5q0 .65-.437 1.075T6.5 13zm6-4q-.425 0-.712-.288T9.5 8V2q0-.425.288-.712T10.5 1h1q1.675 0 2.888 1.163T15.6 5q0 1.7-1.212 2.85T11.5 9z"/></svg>