<svg xmlns="http://www.w3.org/2000/svg" viewBox="0 0 24 24" width="24" height="24"><path fill="currentColor" d="M7 23q-1.65 0-2.825-1.175T3 19v-3h5.45l2.025 2.675q.55.725 1.45.8t1.55-.575l4.55-4.55l1.225-.75q.5-.325 1.1-.275t1.1.4q.625.475.675 1.25t-.5 1.325L15.8 22.125q-.425.425-.975.65t-1.15.225zm-4-9V5q0-.425.288-.712T4 4t.713.288T5 5v7h2V3q0-.425.288-.712T8 2t.713.288T9 3v9h2V2q0-.425.288-.712T12 1t.713.288T13 2v10h2V4q0-.425.288-.712T16 3t.713.288T17 4v8.575l-4.95 4.9l-2-2.675q-.275-.375-.7-.587T8.45 14z"/></svg>