<svg xmlns="http://www.w3.org/2000/svg" viewBox="0 0 24 24" width="24" height="24"><path fill="currentColor" d="M12 22q-.825 0-1.412-.587T10 20h4q0 .825-.587 1.413T12 22m7-3H5q-.425 0-.712-.288T4 18t.288-.712T5 17h1v-7q0-2.075 1.25-3.687T10.5 4.2v-.7q0-.625.438-1.062T12 2t1.063.438T13.5 3.5v.7q.375.125.413.55t-.288.75l-3.025 3q-.275.275-.437.65T10 9.925V13q0 .825.588 1.413T12 15h3.075q.4 0 .775-.15t.65-.425l.225-.225q.35-.35.813-.162t.462.687V17h1q.425 0 .713.288T20 18t-.288.713T19 19m-7-7v-1.65q0-.2.075-.4t.225-.325l5.225-5.2q.2-.2.475-.312T18.575 4t.588.125t.487.325l.925.925q.2.225.313.488t.112.562t-.112.588t-.313.487l-5.2 5.2q-.15.15-.337.225T14.65 13H13q-.425 0-.712-.288T12 12m6.575-4.6l.925-.975l-.925-.925l-.95.95z"/></svg>