<svg xmlns="http://www.w3.org/2000/svg" viewBox="0 0 24 24" width="24" height="24"><path fill="currentColor" d="M12 21.325q-.35 0-.7-.125t-.625-.375Q9.05 19.325 7.8 17.9t-2.087-2.762t-1.275-2.575T4 10.2q0-3.75 2.413-5.975T12 2h.375q.175 0 .35.025q.625.05.825.663t-.3 1.112L9.575 7.5q-.275.275-.425.638T9 8.9V11q0 .825.588 1.412T11 13h2.1q.4 0 .763-.15t.637-.425l3.675-3.675q.475-.475 1.075-.275t.7.825q.025.225.037.45t.013.45q0 2.35-1.7 5.037t-4.975 5.588q-.275.25-.625.375t-.7.125M13.4 10.7l5.55-5.55q.15-.15.15-.35t-.15-.35l-1.4-1.4q-.15-.15-.35-.15t-.35.15L11.3 8.6q-.15.15-.225.338T11 9.325v.925q0 .325.213.538t.537.212h.925q.2 0 .388-.075t.337-.225m6.25-6.95q.15.15.35.15t.35-.15l.35-.35q.275-.275.275-.7T20.7 2l-.7-.7q-.275-.275-.7-.275t-.7.275l-.35.35q-.15.15-.15.35t.15.35z"/></svg>