<svg xmlns="http://www.w3.org/2000/svg" viewBox="0 0 24 24" width="24" height="24"><path fill="currentColor" d="M5 18q-1.25 0-2.125-.875T2 15t.875-2.125T5 12q.975 0 1.738.563T7.8 14h5.3q.275-1.7 1.413-2.975T17.3 9.25L15.9 3H13q-.425 0-.712-.288T12 2t.288-.712T13 1h2.9q.7 0 1.25.425t.7 1.125l1.725 7.725q.05.275-.125.5T19 11q-1.575 0-2.713 1.063t-1.262 2.612q-.05.575-.45.95T13.6 16H7.8q-.3.875-1.062 1.438T5 18m14 0q-1.25 0-2.125-.875T16 15t.875-2.125T19 12t2.125.875T22 15t-.875 2.125T19 18m-6 3v1.2q0 .275-.238.425t-.487.025L7.95 20.475q-.175-.1-.138-.288T8.05 20H11v-1.2q0-.275.238-.425t.487-.025l4.325 2.175q.175.1.138.288T15.95 21z"/></svg>