<svg xmlns="http://www.w3.org/2000/svg" viewBox="0 0 24 24" width="24" height="24"><path fill="currentColor" d="m18 9l-.8.7q-.35.325-.825.325t-.825-.275t-.475-.7t.025-.9l.4-1.25l-.85-.5q-.4-.225-.562-.65t-.038-.85t.5-.663T15.4 4h1l.3-.95q.15-.475.513-.763T18 2t.788.288t.512.762l.3.95h1q.475 0 .838.238t.512.662q.175.45 0 .875t-.55.625l-.9.5l.4 1.25q.15.475.025.913t-.475.687q-.375.275-.837.275T18.8 9.7zm0-2q.425 0 .713-.288T19 6t-.288-.712T18 5t-.712.288T17 6t.288.713T18 7m-4.2 10.9q.575 1.5-.375 2.8T10.75 22q-.825 0-1.562-.425T8.1 20.45q-2.075.3-3.437-1.062T3.55 15.9q-.75-.425-1.15-1.162T2 13.05q0-1.525 1.388-2.463T6.1 10.2l1.55.65q.5-.775 1.325-1.262t1.775-.538v-1.3q0-.325.213-.537T11.5 7t.538.213t.212.537v1.5q.925.275 1.525.863T14.8 11.75h1.45q.325 0 .538.213T17 12.5t-.213.538t-.537.212h-1.3q-.05.95-.513 1.775T13.2 16.35zm-8.05-3.5q.8 0 1.413-.2t1.587-.8l-3-1.25q-.725-.3-1.237.013T4 13.15q0 .65.425.95t1.325.3m5 5.6q.625 0 1.013-.437t.187-.913l-1.35-3.4q-.475.8-.737 1.6T9.6 18.3q0 .825.288 1.263t.862.437m1.65-5.55q.25-.25.4-.663t.15-.862q0-.8-.525-1.35t-1.3-.55q-.45 0-.85.15T9.6 11.6l1.95.9z"/></svg>