<svg xmlns="http://www.w3.org/2000/svg" viewBox="0 0 24 24" width="24" height="24"><path fill="currentColor" d="M12 22q-.65 0-1.175-.312T10 20.85q-.825 0-1.412-.587T8 18.85V15.3q-1.475-.975-2.363-2.575T4.75 9.25q0-3.025 2.113-5.137T12 2t5.138 2.113T19.25 9.25q0 1.925-.888 3.5T16 15.3v3.55q0 .825-.587 1.413T14 20.85q-.3.525-.825.838T12 22m-2-3.15h4v-.9h-4zm0-1.9h4V16h-4zM12.75 14v-2.7l1.675-1.675q.225-.225.225-.525t-.225-.525t-.525-.225t-.525.225L12 9.95l-1.375-1.375Q10.4 8.35 10.1 8.35t-.525.225t-.225.525t.225.525L11.25 11.3V14z"/></svg>