<svg xmlns="http://www.w3.org/2000/svg" viewBox="0 0 24 24" width="24" height="24"><path fill="currentColor" d="M11.1 15h1.1l-1.45-1.45l-.15.85q-.05.225.113.413T11.1 15m5.45 4.35q-.825.875-1.812 1.475t-2.113.975q-.15.05-.3.075T12 21.9q-.1 0-.625-.1Q8 20.675 6 17.637T4 11.1V6.8L2.1 4.9q-.275-.275-.275-.7t.275-.7t.7-.275t.7.275l17 17q.275.275.275.7t-.275.7t-.7.275t-.7-.275zM20 6.375V11.1q0 .825-.125 1.638T19.5 14.35q-.1.3-.325.5t-.5.25t-.562-.012t-.538-.313l-3.8-3.825q.125-.2.175-.437T14 10q0-.825-.587-1.412T12 8q-.275 0-.5.05t-.425.175L7.9 5.05q-.15-.15-.225-.325T7.6 4.35q0-.3.163-.562T8.25 3.4l3.05-1.125q.35-.125.7-.125t.7.125l6 2.25q.575.225.938.725T20 6.375"/></svg>