<svg xmlns="http://www.w3.org/2000/svg" viewBox="0 0 24 24" width="24" height="24"><path fill="currentColor" d="M6 11q-.425 0-.712.288T5 12v5q0 .425.288.713T6 18t.713-.288T7 17v-5q0-.425-.288-.712T6 11m4-3q-.425 0-.712.288T9 9v8q0 .425.288.713T10 18t.713-.288T11 17V9q0-.425-.288-.712T10 8m4 6q-.425 0-.712.288T13 15v2q0 .425.288.713T14 18t.713-.288T15 17v-2q0-.425-.288-.712T14 14m4-2q-.75 0-1.475-.225t-1.35-.65l-.375.35q-.3.275-.713.275t-.687-.275t-.275-.7t.275-.7l.4-.4q-.4-.6-.6-1.275T13 7q0-2.075 1.463-3.537T18 2h4q.425 0 .713.288T23 3v4q0 2.075-1.463 3.538T18 12m1.25-6.375q-.275-.275-.7-.275t-.7.275l-1.4 1.4q-.3.3-.287.7t.287.7q.3.3.7.313t.7-.288l1.4-1.4q.3-.3.3-.712t-.3-.713M3 22q-.825 0-1.412-.587T1 20V6q0-.825.588-1.412T3 4h7q.425 0 .713.288T11 5v7q0 .825.588 1.413T13 14h5q.425 0 .713.288T19 15v5q0 .825-.587 1.413T17 22z"/></svg>