<svg xmlns="http://www.w3.org/2000/svg" viewBox="0 0 24 24" width="24" height="24"><path fill="currentColor" d="m9.225 12.425l1.45 1.975q.15.2.4.2t.4-.2l1.45-1.975L14.35 14.4q.15.2.413.2t.412-.2l2.25-3.075q.25-.35.188-.75t-.413-.65t-.75-.187t-.65.412l-1.05 1.425L13.325 9.6q-.15-.2-.413-.2t-.412.2l-1.425 1.975L9.625 9.6q-.15-.2-.4-.2t-.4.2l-2.25 3.075q-.25.35-.188.75t.413.65t.75.188t.65-.413zM12 22q-2.075 0-3.9-.788t-3.175-2.137T2.788 15.9T2 12t.788-3.9t2.137-3.175T8.1 2.788T12 2t3.9.788t3.175 2.137T21.213 8.1T22 12t-.788 3.9t-2.137 3.175t-3.175 2.138T12 22"/></svg>