<svg xmlns="http://www.w3.org/2000/svg" viewBox="0 0 24 24" width="24" height="24"><path fill="currentColor" d="M12 22q-2.075 0-3.9-.788t-3.175-2.137T2.788 15.9T2 12q0-1.5.425-2.887T3.65 6.5L2.075 4.925q-.3-.3-.3-.712t.3-.713t.713-.3t.712.3l17 17q.3.3.3.7t-.3.7t-.712.3t-.713-.3L17.5 20.35q-1.225.8-2.612 1.225T12 22m-3.625-5.75l3.1-.875q.275-.075.338-.363t-.138-.487l-2.2-2.2q-.2-.2-.487-.137t-.363.337l-.875 3.1q-.075.275.138.488t.487.137m11.7.45q-.25 0-.475-.088t-.425-.287L15.55 12.7q-.2-.2-.262-.45t.012-.525l.95-3.35q.075-.275-.137-.487t-.488-.138l-3.35.95q-.275.075-.525.013t-.45-.263L7.675 4.825q-.2-.2-.287-.413T7.3 3.95q0-.35.175-.638t.5-.462q.95-.425 1.963-.638T12 2q2.075 0 3.9.788t3.175 2.137T21.213 8.1T22 12q0 1.05-.213 2.063t-.637 1.962q-.15.35-.437.513t-.638.162"/></svg>