<svg xmlns="http://www.w3.org/2000/svg" viewBox="0 0 24 24" width="24" height="24"><path fill="currentColor" d="m8.375 16.25l5.05-1.45q.5-.15.863-.513t.512-.862l1.45-5.05q.075-.275-.137-.488t-.488-.137l-5.05 1.45q-.5.15-.862.513t-.513.862l-1.45 5.05q-.075.275.138.488t.487.137M12 13.5q-.625 0-1.062-.437T10.5 12t.438-1.062T12 10.5t1.063.438T13.5 12t-.437 1.063T12 13.5m0 8.5q-2.075 0-3.9-.788t-3.175-2.137T2.788 15.9T2 12t.788-3.9t2.137-3.175T8.1 2.788T12 2t3.9.788t3.175 2.137T21.213 8.1T22 12t-.788 3.9t-2.137 3.175t-3.175 2.138T12 22"/></svg>