<svg xmlns="http://www.w3.org/2000/svg" viewBox="0 0 24 24" width="24" height="24"><path fill="currentColor" d="M5.425 14H7.65q.35 0 .625-.213t.35-.537l.775-3.025q-.675-.125-1.525-.162t-1.55-.038q-.575 0-1.237.013T3.85 10.1l.6 3.1q.075.35.35.575t.625.225m.025 2q-1.05 0-1.888-.675T2.5 13.6l-.725-3.35H1.65q-.425.025-.712-.238T.6 9.326T.813 8.6t.687-.35l.45-.05q1.375-.125 2.438-.162T6.325 8q1.625 0 2.625.15t1.8.525q.35.175.663.25T12 9t.538-.075t.612-.225q.825-.375 1.9-.537T17.9 8q.725 0 1.538.038t1.737.087l1.325.1q.425.05.688.35t.212.725t-.337.687t-.713.213h-.1l-.35 1.625q-.125.5-.475.663t-.725.087t-.625-.387t-.15-.788l.275-1.325q-.5-.025-1.15-.037t-1.15-.013q-.75 0-1.662.038t-1.638.162l.625 2.425q.125.475-.125.788t-.6.412t-.712-.062t-.488-.663l-.525-2.075H11.25l-.675 2.675Q10.3 14.75 9.5 15.375T7.675 16zm13.05 4q-.325 0-.537-.213t-.213-.537v-4.5q0-.325.213-.537T18.5 14t.538.213t.212.537v4.5q0 .325-.213.538T18.5 20m-2.75-1.5q-.325 0-.537-.213T15 17.75v-1.5q0-.325.213-.537t.537-.213t.538.213t.212.537v1.5q0 .325-.213.538t-.537.212m5.5 0q-.325 0-.537-.213t-.213-.537v-1.5q0-.325.213-.537t.537-.213t.538.213t.212.537v1.5q0 .325-.213.538t-.537.212"/></svg>