<svg xmlns="http://www.w3.org/2000/svg" viewBox="0 0 24 24" width="24" height="24"><path fill="currentColor" d="M18 6q-.825 0-1.412-.587T16 4t.588-1.412T18 2t1.413.588T20 4t-.587 1.413T18 6m-1 15v-7q0-1-.513-1.8t-1.312-1.25l.875-2.575q.2-.625.738-1T18 7t1.213.375t.737 1l2.1 6.3q.175.5-.137.913T21.1 16H20v5q0 .425-.288.713T19 22h-1q-.425 0-.712-.288T17 21m-4.5-9.5q-.625 0-1.062-.437T11 10t.438-1.062T12.5 8.5t1.063.438T14 10t-.437 1.063t-1.063.437M5.5 6q-.825 0-1.412-.587T3.5 4t.588-1.412T5.5 2t1.413.588T7.5 4t-.587 1.413T5.5 6m-2 15v-6H3q-.425 0-.712-.288T2 14V9q0-.825.588-1.412T4 7h3q.825 0 1.413.588T9 9v5q0 .425-.288.713T8 15h-.5v6q0 .425-.288.713T6.5 22h-2q-.425 0-.712-.288T3.5 21m7.5 0v-3q-.425 0-.712-.288T10 17v-3q0-.625.438-1.062T11.5 12.5h2q.625 0 1.063.438T15 14v3q0 .425-.288.713T14 18v3q0 .425-.288.713T13 22h-1q-.425 0-.712-.288T11 21"/></svg>