<svg xmlns="http://www.w3.org/2000/svg" viewBox="0 0 24 24" width="24" height="24"><path fill="currentColor" d="m13 18.175l.375-.4q.3-.275.713-.275t.712.3t.3.7t-.3.7l-2.1 2.1q-.3.3-.7.3t-.7-.3l-2.1-2.1q-.3-.3-.3-.7t.3-.7t.713-.287t.712.287l.375.375V13q0-.425.288-.712T12 12t.713.288T13 13zm-6-4l.375-.4q.3-.275.713-.275t.712.3t.3.7t-.3.7l-2.1 2.1q-.3.3-.7.3t-.7-.3l-2.1-2.1q-.3-.3-.3-.7t.3-.7t.713-.287t.712.287l.375.375V9q0-.425.288-.712T6 8t.713.288T7 9zm12 0l.375-.4q.3-.275.713-.275t.712.3t.3.7t-.3.7l-2.1 2.1q-.3.3-.7.3t-.7-.3l-2.1-2.1q-.3-.3-.3-.7t.3-.7t.712-.287t.713.287l.375.375V9q0-.425.288-.712T18 8t.713.288T19 9zM2 5q0-.825.588-1.412T4 3h16q.825 0 1.413.588T22 5v5q0 .425-.288.713T21 11t-.712-.288T20 10V5H4v5q0 .425-.288.713T3 11t-.712-.288T2 10z"/></svg>