<svg xmlns="http://www.w3.org/2000/svg" viewBox="0 0 24 24" width="24" height="24"><path fill="currentColor" d="M3 13h4v-1H5q-.425 0-.712-.288T4 11t.288-.712T5 10h2q.825 0 1.413.588T9 12v1h2V6.1q0-1.725 1.2-2.912T15.125 2q1.15 0 2.125.6t1.5 1.65l.7 1.4q.2.375.063.763T19 7t-.763.063t-.587-.513l-.7-1.4q-.275-.525-.775-.837T15.1 4q-.875 0-1.487.613T13 6.1V13h2v-1q0-.825.588-1.412T17 10h2q.425 0 .713.288T20 11t-.288.713T19 12h-2v1h4q.425 0 .713.288T22 14t-.288.713T21 15H3q-.425 0-.712-.288T2 14t.288-.712T3 13m3 8q-.825 0-1.412-.587T4 19v-3h16v3q0 .825-.587 1.413T18 21z"/></svg>