<svg xmlns="http://www.w3.org/2000/svg" viewBox="0 0 24 24" width="24" height="24"><path fill="currentColor" d="M13.5 13q.425 0 .713-.288T14.5 12q0-.15-.15-.575q.275-.1.463-.35T15 10.5q0-.425-.288-.712T14 9.5q-.325 0-.575.175t-.35.475L9.425 8.4q.025-.075.075-.4q0-.425-.288-.712T8.5 7t-.712.288T7.5 8q0 .15.175.55q-.275.1-.475.35t-.2.6q0 .425.288.713T8 10.5q.35 0 .6-.187t.35-.488l3.65 1.75l-.1.425q0 .425.288.713T13.5 13m4.525-4.85q.475.725.725 1.55t.25 1.725V20.5q0 .625-.437 1.063T17.5 22h-6.75q-.425 0-.737-.238t-.438-.637q-.6-2.1-.587-3.963t.112-2.937q-.025 0 0 0q-.925-.2-2.312-.65t-2.813-1.35q-.425-.275-.5-.787T3.7 10.5l4.625-6.475q.325-.425.838-.575t1.012.075l5.3 2.425q.8.35 1.438.913t1.112 1.287"/></svg>