<svg xmlns="http://www.w3.org/2000/svg" viewBox="0 0 24 24" width="24" height="24"><path fill="currentColor" d="M19.075 21.9L17.15 20H6q-.825 0-1.412-.587T4 18v-2q0-.425.288-.712T5 15t.713.288T6 16v2h9.15l-2.575-2.575q-.15.075-.287.113t-.288.037q-.25 0-.413-.075t-.287-.2l-3.6-3.6q-.275-.275-.288-.637t.188-.613L2.075 4.925q-.275-.275-.275-.7t.3-.725q.275-.275.7-.275t.725.275l16.975 17q.275.275.275.7t-.275.7q-.3.3-.725.3t-.7-.3M16.3 10.3q.275.275.275.7t-.275.7l-.175.175q-.3.3-.7.288t-.7-.313t-.3-.712t.3-.713l.15-.15q.275-.275.713-.262t.712.287M12 4q.425 0 .713.288T13 5v2.75q0 .5-.312.738T12 8.725t-.687-.25t-.313-.75V5q0-.425.288-.712T12 4"/></svg>