<svg xmlns="http://www.w3.org/2000/svg" viewBox="0 0 24 24" width="24" height="24"><path fill="currentColor" d="M5 21q-.825 0-1.412-.587T3 19V4q0-.425.288-.712T4 3t.713.288T5 4v15h15q.425 0 .713.288T21 20t-.288.713T20 21zm2-3q-.425 0-.712-.288T6 17v-7q0-.425.288-.712T7 9h2q.425 0 .713.288T10 10v7q0 .425-.288.713T9 18zm5 0q-.425 0-.712-.288T11 17V5q0-.425.288-.712T12 4h2q.425 0 .713.288T15 5v12q0 .425-.288.713T14 18zm5 0q-.425 0-.712-.288T16 17v-3q0-.425.288-.712T17 13h2q.425 0 .713.288T20 14v3q0 .425-.288.713T19 18z"/></svg>