<svg xmlns="http://www.w3.org/2000/svg" viewBox="0 0 24 24" width="24" height="24"><path fill="currentColor" d="M6 22q-.825 0-1.412-.587T4 20V4q0-.825.588-1.412T6 2h8.075q.45 0 .85.188t.675.537l3.925 4.725q.225.275.35.6t.125.675V17.8q0 .5-.462.688t-.813-.163L15.45 15q.275-.425.413-.925T16 13q0-1.65-1.175-2.825T12 9t-2.825 1.175T8 13t1.175 2.825T12 17q.575 0 1.075-.137T14 16.45l3.875 3.85q.475.475.225 1.088t-.925.612zm6-7q-.825 0-1.412-.587T10 13t.588-1.412T12 11t1.413.588T14 13t-.587 1.413T12 15"/></svg>