<svg xmlns="http://www.w3.org/2000/svg" viewBox="0 0 24 24" width="24" height="24"><path fill="currentColor" d="M7 21q-1.25 0-2.125-.875T4 18H3q-.825 0-1.412-.587T1 16v-3q0-.825.588-1.412T3 11h9V7q0-.825.588-1.412T14 5h2V4q0-.425.288-.712T17 3h1q.425 0 .713.288T19 4v1h.55q.65 0 1.175.375t.725 1l1.45 4.3q.05.15.075.313t.025.337V16q0 .825-.587 1.413T21 18h-1q0 1.25-.875 2.125T17 21t-2.125-.875T14 18h-4q0 1.25-.875 2.125T7 21m0-2q.425 0 .713-.288T8 18t-.288-.712T7 17t-.712.288T6 18t.288.713T7 19m10 0q.425 0 .713-.288T18 18t-.288-.712T17 17t-.712.288T16 18t.288.713T17 19m-3-8h6.9l-1.35-4H14zM2 8.5v-2h-.25q-.325 0-.537-.213T1 5.75t.213-.537T1.75 5h8.5q.325 0 .538.213T11 5.75t-.213.538t-.537.212H10v2h.25q.325 0 .538.213T11 9.25t-.213.538t-.537.212h-8.5q-.325 0-.537-.213T1 9.25t.213-.537t.537-.213zm1.5 0h1.75v-2H3.5zm3.25 0H8.5v-2H6.75z"/></svg>