<svg xmlns="http://www.w3.org/2000/svg" viewBox="0 0 24 24" width="24" height="24"><path fill="currentColor" d="M20 8V6h-2q-.425 0-.712-.288T17 5t.288-.712T18 4h2q.825 0 1.413.588T22 6v2q0 .425-.288.713T21 9t-.712-.288T20 8M2 8V6q0-.825.588-1.412T4 4h2q.425 0 .713.288T7 5t-.288.713T6 6H4v2q0 .425-.288.713T3 9t-.712-.288T2 8m18 12h-2q-.425 0-.712-.288T17 19t.288-.712T18 18h2v-2q0-.425.288-.712T21 15t.713.288T22 16v2q0 .825-.587 1.413T20 20M4 20q-.825 0-1.412-.587T2 18v-2q0-.425.288-.712T3 15t.713.288T4 16v2h2q.425 0 .713.288T7 19t-.288.713T6 20zm2-6v-4q0-.825.588-1.412T8 8h8q.825 0 1.413.588T18 10v4q0 .825-.587 1.413T16 16H8q-.825 0-1.412-.587T6 14"/></svg>