<svg xmlns="http://www.w3.org/2000/svg" viewBox="0 0 24 24" width="24" height="24"><path fill="currentColor" d="M2 19v-5q0-.425.288-.712T3 13h7q.425 0 .713.288T11 14v5q0 .425-.288.713T10 20H3q-.425 0-.712-.288T2 19m0-9V5q0-.425.288-.712T3 4h7q.425 0 .713.288T11 5v5q0 .425-.288.713T10 11H3q-.425 0-.712-.288T2 10m2-1h5V6H4zm14 10.575q-.2 0-.375-.062T17.3 19.3l-3.6-3.6q-.275-.275-.287-.687t.287-.713q.275-.275.7-.275t.7.275l1.9 1.875V5q0-.425.288-.712T18 4t.713.288T19 5v11.175l1.9-1.875q.275-.275.688-.288t.712.288q.275.275.275.7t-.275.7l-3.6 3.6q-.15.15-.325.213t-.375.062"/></svg>