<svg xmlns="http://www.w3.org/2000/svg" viewBox="0 0 24 24" width="24" height="24"><path fill="currentColor" d="M9 18q-.825 0-1.412-.587T7 16t.588-1.412T9 14t1.413.588T11 16t-.587 1.413T9 18m-4 5q-.425 0-.712-.288T4 22v-8q0-.425.288-.712T5 13t.713.288T6 14v5h6v-4q0-.425.288-.712T13 14h5q.825 0 1.413.588T20 16v6q0 .425-.288.713T19 23t-.712-.288T18 22v-1H6v1q0 .425-.288.713T5 23m7.8-15.35l-2.65 2.65l.225 1.45q.025.125-.012.225t-.138.2l-.1.1q-.2.2-.437.15t-.363-.275l-.85-1.6l-1.7-.925q-.2-.1-.225-.312t.125-.363l.2-.2q.05-.05.35-.125l1.5.2l2.65-2.65l-4.7-2.55Q6.4 3.5 6.375 3.2t.175-.5l.175-.175q.125-.125.263-.163t.287.013L13.55 4l2.7-2.7q.3-.3.725-.3t.725.3t.3.725t-.3.725L15 5.45l1.6 6.25q.05.175.013.325t-.163.275l-.1.1q-.225.225-.55.175t-.475-.325z"/></svg>