<svg xmlns="http://www.w3.org/2000/svg" viewBox="0 0 24 24" width="24" height="24"><path fill="currentColor" d="M9 17q-.825 0-1.412-.587T7 15V5q0-.825.588-1.412T9 3h10q.825 0 1.413.588T21 5v10q0 .825-.587 1.413T19 17zm0-2h10V5H9zM4 9q-.425 0-.712-.288T3 8t.288-.712T4 7t.713.288T5 8t-.288.713T4 9m0 4q-.425 0-.712-.288T3 12t.288-.712T4 11t.713.288T5 12t-.288.713T4 13m0 4q-.425 0-.712-.288T3 16t.288-.712T4 15t.713.288T5 16t-.288.713T4 17m0 4q-.425 0-.712-.288T3 20t.288-.712T4 19t.713.288T5 20t-.288.713T4 21m4 0q-.425 0-.712-.288T7 20t.288-.712T8 19t.713.288T9 20t-.288.713T8 21m4 0q-.425 0-.712-.288T11 20t.288-.712T12 19t.713.288T13 20t-.288.713T12 21m4 0q-.425 0-.712-.288T15 20t.288-.712T16 19t.713.288T17 20t-.288.713T16 21"/></svg>