<svg xmlns="http://www.w3.org/2000/svg" viewBox="0 0 24 24" width="24" height="24"><path fill="currentColor" d="M8.675 17.5q-1.425 0-1.925-.5t-1.4-.5q-.7 0-1.125.338T3 17.374q-.4.1-.7-.175t-.3-.7t.3-.737t.675-.513q.425-.225.9-.488t1.45-.262q.15 0 .3.013t.275.037l-.95-3.5l-.775 1q-.25.325-.65.387t-.725-.212q-.35-.275-.388-.688t.238-.737l6.2-7.675q.425-.5 1.05-.663t1.225.063l9.25 3.525q.375.15.55.525t.025.75q-.15.4-.537.563t-.788.012l-1.15-.475L20.5 14.95q.15.075.287.15t.263.15q.375.2.662.513T22 16.5t-.3.7t-.7.175q-.8-.2-1.2-.537t-1.125-.338q-.95 0-1.4.5t-1.925.5q-1.425 0-1.937-.5T12 16.5q-.95 0-1.4.5t-1.925.5m0 2.5q.95 0 1.4-.5T12 19q1.425 0 1.938.5t1.412.5q.95 0 1.4-.5t1.925-.5q.975 0 1.45.263t.9.487q.375.2.675.513T22 21t-.3.7t-.7.175q-.8-.2-1.2-.537T18.675 21q-.925 0-1.4.5t-1.925.5t-1.937-.5T12 21q-.95 0-1.4.5t-1.925.5t-1.925-.5t-1.4-.5q-.725 0-1.125.338t-1.2.537q-.4.1-.712-.175T2 21t.288-.737t.662-.513q.425-.225.913-.488T5.35 19q1.475 0 1.925.5t1.4.5m6.775-4.525l-1.275-4.825q-.05-.2-.225-.3t-.375-.05l-2.925.775q-.2.05-.3.225t-.05.375l.8 2.925q.2-.05.413-.075T12 14.5q1.425 0 2.038.55t1.412.425"/></svg>