<svg xmlns="http://www.w3.org/2000/svg" viewBox="0 0 24 24" width="24" height="24"><path fill="currentColor" d="M5 13.05v-2q0-.825.588-1.412T7 9.05h10q.825 0 1.413.588T19 11.05v2q0 .825-.587 1.413T17 15.05H7q-.825 0-1.412-.587T5 13.05M11 4V3q0-.425.288-.712T12 2t.713.288T13 3v1q0 .425-.288.713T12 5t-.712-.288T11 4m7 1.7l.4-.4q.275-.275.7-.275t.7.275t.275.7t-.275.7l-.4.4q-.275.275-.7.275T18 7.1t-.275-.7t.275-.7M11 21v-1q0-.425.288-.712T12 19t.713.288T13 20v1q0 .425-.288.713T12 22t-.712-.288T11 21m7.4-2.2l-.4-.4q-.275-.275-.275-.7T18 17t.7-.275t.7.275l.4.4q.275.275.275.7t-.275.7t-.7.275t-.7-.275M4.6 7.1l-.4-.4q-.275-.275-.275-.7t.275-.7t.7-.275t.7.275l.4.4q.275.275.275.7T6 7.1t-.7.275t-.7-.275m-.4 10.3l.4-.4q.275-.275.7-.275T6 17t.275.7t-.275.7l-.4.4q-.275.275-.7.275t-.7-.275t-.275-.7t.275-.7"/></svg>