<svg xmlns="http://www.w3.org/2000/svg" viewBox="0 0 24 24" width="24" height="24"><path fill="currentColor" d="M12 11q.425 0 .713-.288T13 10V7q0-.425-.288-.712T12 6t-.712.288T11 7v3q0 .425.288.713T12 11m0 4q.425 0 .713-.288T13 14t-.288-.712T12 13t-.712.288T11 14t.288.713T12 15m0 6.325q-.35 0-.7-.125t-.625-.375Q9.05 19.325 7.8 17.9t-2.087-2.762t-1.275-2.576T4 10.2q0-3.75 2.413-5.975T12 2t5.588 2.225T20 10.2q0 1.125-.437 2.363t-1.275 2.575T16.2 17.9t-2.875 2.925q-.275.25-.625.375t-.7.125"/></svg>