<svg xmlns="http://www.w3.org/2000/svg" viewBox="0 0 24 24" width="24" height="24"><path fill="currentColor" d="M4 20q-.825 0-1.412-.587T2 18V6q0-.825.588-1.412T4 4h5.175q.4 0 .763.15t.637.425L12 6h8q.825 0 1.413.588T22 8v4.4q0 .575-.513.838t-1.012-.038q-1.05-.575-2.162-.887T16 12q-3.35 0-5.887 2.125t-3.588 5.2q-.1.3-.35.488t-.55.187zm12 3q-1.975 0-3.687-.9T9.55 19.55q-.15-.225-.225-.488t-.075-.537t.075-.55t.225-.525q1.05-1.65 2.763-2.55T16 14t3.688.9t2.762 2.55q.15.25.225.513t.075.537t-.075.538t-.225.512q-1.05 1.65-2.762 2.55T16 23m0-2q1.05 0 1.775-.725T18.5 18.5t-.725-1.775T16 16t-1.775.725T13.5 18.5t.725 1.775T16 21m0-1q-.625 0-1.063-.437T14.5 18.5t.438-1.062T16 17t1.063.438t.437 1.062t-.437 1.063T16 20"/></svg>