<svg xmlns="http://www.w3.org/2000/svg" viewBox="0 0 24 24" width="24" height="24"><path fill="currentColor" d="M15.3 21.875q-.3.3-.712.3t-.713-.3L11.7 19.7q-.3-.3-.3-.7t.3-.7l2.175-2.175q.3-.3.713-.3t.712.3t.3.7t-.3.7L13.825 19l1.475 1.475q.3.3.3.7t-.3.7m3.4 0q-.3-.3-.3-.7t.3-.7L20.175 19L18.7 17.525q-.3-.3-.3-.7t.3-.7t.713-.3t.712.3L22.3 18.3q.3.3.3.7t-.3.7l-2.175 2.175q-.3.3-.712.3t-.713-.3M4 20q-.825 0-1.413-.587T2 18V6q0-.825.588-1.412T4 4h5.175q.4 0 .763.15t.637.425L12 6h8q.825 0 1.413.588T22 8v4q0 .425-.288.713T21 13h-6q-2.5 0-4.25 1.75T9 19q0 .425-.288.713T8 20z"/></svg>