<svg xmlns="http://www.w3.org/2000/svg" viewBox="0 0 24 24" width="24" height="24"><path fill="currentColor" d="M5 20q-.425 0-.712-.288T4 19V5q0-.425.288-.712T5 4t.713.288T6 5v14q0 .425-.288.713T5 20m14 0q-.425 0-.712-.288T18 19V5q0-.425.288-.712T19 4t.713.288T20 5v14q0 .425-.288.713T19 20M8.525 17q-.425 0-.675-.35t-.1-.75l3.15-8.35q.1-.25.3-.4t.475-.15h.65q.275 0 .475.15t.3.4l3.15 8.375q.15.4-.087.737T15.5 17q-.275 0-.475-.15t-.3-.4l-.7-2h-4.05l-.725 2.025q-.075.25-.275.388t-.45.137m1.975-4h3l-1.45-4.15h-.1z"/></svg>