<svg xmlns="http://www.w3.org/2000/svg" viewBox="0 0 24 24" width="24" height="24"><path fill="currentColor" d="M7.35 21q-.375 0-.787-.15t-.713-.35q-.2-.15-.4-.325T5 20q-.425 0-.712-.288T4 19t.288-.712T5 18q.375 0 .8.138t.7.362q.2.125.4.313t.45.187q.225 0 .425-.187t.4-.313q.3-.225.725-.363T9.675 18q.375 0 .8.138t.7.362q.2.125.4.313t.45.187q.225 0 .425-.187t.4-.313q.3-.225.725-.363T14.35 18q.375 0 .788.138t.712.362q.2.125.413.313T16.7 19q.25 0 .45-.187t.4-.313q.3-.225.712-.363T19.05 18q.425 0 .713.288t.287.712t-.288.713t-.712.287q-.25 0-.45.175t-.4.325q-.325.2-.737.35t-.788.15t-.788-.15t-.712-.35q-.2-.15-.4-.325t-.45-.175q-.225 0-.425.175t-.4.325q-.3.2-.725.35T12 21q-.375 0-.8-.15t-.7-.35q-.2-.15-.4-.325T9.65 20q-.225 0-.425.175t-.4.325q-.3.2-.712.35T7.35 21M12 16.5q-2.525 0-4.262-1.737T6 10.5V3.725q0-.5.375-.863T7.25 2.5q.525 0 .888.363t.362.887v6.75q0 1.475 1.013 2.488T12 14t2.488-1.012T15.5 10.5V3.725q0-.5.375-.863t.875-.362q.525 0 .888.363T18 3.75v6.75q0 2.525-1.737 4.263T12 16.5"/></svg>