<svg xmlns="http://www.w3.org/2000/svg" viewBox="0 0 24 24" width="24" height="24"><path fill="currentColor" d="M20 21H4q-.425 0-.712-.288T3 20t.288-.712T4 19h16q.425 0 .713.288T21 20t-.288.713T20 21m0-4H4q-.425 0-.712-.288T3 16t.288-.712T4 15h3v-2H4q-.425 0-.712-.288T3 12t.288-.712T4 11h3V9H4q-.425 0-.712-.288T3 8t.288-.712T4 7h16q.425 0 .713.288T21 8t-.288.713T20 9h-3v2h3q.425 0 .713.288T21 12t-.288.713T20 13h-3v2h3q.425 0 .713.288T21 16t-.288.713T20 17m0-12H4q-.425 0-.712-.288T3 4t.288-.712T4 3h16q.425 0 .713.288T21 4t-.288.713T20 5"/></svg>