<svg xmlns="http://www.w3.org/2000/svg" viewBox="0 0 24 24" width="24" height="24"><path fill="currentColor" d="M17.75 22q-.325 0-.537-.213T17 21.25t.213-.537t.537-.213h1.75v-.75h-.75q-.325 0-.537-.213T18 19t.213-.537t.537-.213h.75v-.75h-1.75q-.325 0-.537-.213T17 16.75t.213-.537t.537-.213H20q.425 0 .713.288T21 17v1q0 .425-.288.713T20 19q.425 0 .713.288T21 20v1q0 .425-.288.713T20 22zm0-7q-.325 0-.537-.213T17 14.25v-2q0-.425.288-.712T18 11.25h1.5v-.75h-1.75q-.325 0-.537-.213T17 9.75t.213-.537T17.75 9H20q.425 0 .713.288T21 10v1.75q0 .425-.288.713T20 12.75h-1.5v.75h1.75q.325 0 .538.213t.212.537t-.213.538t-.537.212zm1.5-7q-.325 0-.537-.213T18.5 7.25V3.5h-.75q-.325 0-.537-.213T17 2.75t.213-.537T17.75 2h1.5q.325 0 .538.213T20 2.75v4.5q0 .325-.213.538T19.25 8M4 19q-.425 0-.712-.288T3 18t.288-.712T4 17h10q.425 0 .713.288T15 18t-.288.713T14 19zm0-6q-.425 0-.712-.288T3 12t.288-.712T4 11h10q.425 0 .713.288T15 12t-.288.713T14 13zm0-6q-.425 0-.712-.288T3 6t.288-.712T4 5h10q.425 0 .713.288T15 6t-.288.713T14 7z"/></svg>