<svg xmlns="http://www.w3.org/2000/svg" viewBox="0 0 24 24" width="24" height="24"><path fill="currentColor" d="M12 17q1.9 0 3.3-1.25t1.65-3.1q.05-.275-.175-.462T16.25 12q-.275 0-.513.175t-.287.45q-.225 1.225-1.187 2.05T12 15.5q-1.45 0-2.475-1.025T8.5 12t1.025-2.475T12 8.5h.075l-.7.725q-.2.225-.213.525t.213.525t.538.225t.537-.225l2.1-2.1q.15-.15.15-.35t-.15-.35L12.425 5.35q-.225-.225-.525-.225t-.525.225t-.225.538t.225.537l.55.575q-2.05.05-3.488 1.5T7 12q0 2.075 1.463 3.538T12 17m0 5q-2.075 0-3.9-.788t-3.175-2.137T2.788 15.9T2 12t.788-3.9t2.137-3.175T8.1 2.788T12 2t3.9.788t3.175 2.137T21.213 8.1T22 12t-.788 3.9t-2.137 3.175t-3.175 2.138T12 22"/></svg>