<svg xmlns="http://www.w3.org/2000/svg" viewBox="0 0 24 24" width="24" height="24"><path fill="currentColor" d="M12 22q-1.875 0-3.512-.712t-2.85-1.925t-1.925-2.85T3 13t.713-3.512t1.924-2.85t2.85-1.925T12 4h.15l-.85-.85q-.3-.3-.288-.7t.288-.7q.3-.3.713-.312t.712.287L15.3 4.3q.3.3.3.7t-.3.7l-2.575 2.575q-.3.3-.712.288T11.3 8.25q-.275-.3-.288-.7t.288-.7l.85-.85H12Q9.075 6 7.038 8.038T5 13t2.038 4.963T12 20t4.963-2.037T19 13q0-.425.288-.712T20 12t.713.288T21 13q0 1.875-.712 3.513t-1.925 2.85t-2.85 1.925T12 22m-1.5-6H8.25q-.325 0-.537-.213T7.5 15.25t.213-.537t.537-.213H10v-1H9q-.2 0-.35-.15T8.5 13t.15-.35t.35-.15h1v-1H8.25q-.325 0-.537-.213T7.5 10.75t.213-.537T8.25 10h2.25q.425 0 .713.288T11.5 11v4q0 .425-.288.713T10.5 16m3 0q-.425 0-.712-.288T12.5 15v-4q0-.425.288-.712T13.5 10h2q.425 0 .713.288T16.5 11v4q0 .425-.288.713T15.5 16zm.5-1.5h1v-3h-1z"/></svg>