<svg xmlns="http://www.w3.org/2000/svg" viewBox="0 0 24 24" width="24" height="24"><path fill="currentColor" d="M19.175 11L15.3 7.125q-.3-.3-.3-.712t.3-.713q.3-.275.713-.275t.687.275l4.6 4.6q.15.15.213.325t.062.375t-.062.375t-.213.325l-4.6 4.6q-.3.3-.7.288t-.7-.288q-.3-.3-.312-.7t.287-.7zm-6 1H7q-1.25 0-2.125.875T4 15v3q0 .425-.288.713T3 19t-.712-.288T2 18v-3q0-2.075 1.463-3.537T7 10h6.175L10.3 7.125q-.3-.3-.3-.712t.3-.713q.3-.275.713-.275t.687.275l4.6 4.6q.15.15.213.325t.062.375t-.062.375t-.213.325l-4.6 4.6q-.3.3-.7.288t-.7-.288q-.3-.3-.312-.7t.287-.7z"/></svg>