<svg xmlns="http://www.w3.org/2000/svg" viewBox="0 0 24 24" width="24" height="24"><path fill="currentColor" d="m19.75 22.575l-.6-.575H17q-.425 0-.712-.287T16 21t.288-.712T17 20h.15l-2-2H7q-.425 0-.712-.288T6 17v-.9q0-.525.263-.987t.712-.738q.775-.45 1.613-.763t1.712-.462L4 6.825V7q0 .425-.288.713T3 8t-.712-.288T2 7V4.85l-.65-.65q-.3-.3-.288-.713t.313-.712t.713-.3t.712.3l18.375 18.4q.3.3.3.7t-.3.7t-.712.3t-.713-.3M22 17v2.15l-2-2V17q0-.425.288-.712T21 16t.713.288T22 17M4 22q-.825 0-1.412-.587T2 20v-3q0-.425.288-.712T3 16t.713.288T4 17v3h3q.425 0 .713.288T8 21t-.288.713T7 22zM20 7V4h-3q-.425 0-.712-.288T16 3t.288-.712T17 2h3q.825 0 1.413.588T22 4v3q0 .425-.288.713T21 8t-.712-.288T20 7M4.85 2H7q.425 0 .713.288T8 3t-.288.713T7 4h-.15zM15 9q0 .65-.262 1.213t-.688.987L9.8 6.95q.425-.425.988-.687T12 6q1.25 0 2.125.875T15 9"/></svg>