<svg xmlns="http://www.w3.org/2000/svg" viewBox="0 0 24 24" width="24" height="24"><path fill="currentColor" d="M11 12q-1.275 0-2.137-.862T8 9q0-1.25.863-2.125T11 6q1.25 0 2.125.875T14 9q0 1.275-.875 2.138T11 12m5.5 3.5q.7 0 1.225-.425t.7-1.075q.05-.2.213-.35T19 13.5t.35.15t.1.35q-.175.95-.837 1.625T17 16.45v1.05q0 .2-.15.35t-.35.15t-.35-.15t-.15-.35v-1.05q-.95-.15-1.613-.825T13.55 14q-.05-.2.1-.35t.35-.15t.363.15t.212.35q.175.65.7 1.075t1.225.425m0-1q-.525 0-.888-.363t-.362-.887v-2q0-.525.363-.888T16.5 10t.888.363t.362.887v2q0 .525-.363.888t-.887.362M4 22q-.825 0-1.412-.587T2 20v-3q0-.425.288-.712T3 16t.713.288T4 17v3h3q.425 0 .713.288T8 21t-.288.713T7 22zM2 7V4q0-.825.588-1.412T4 2h3q.425 0 .713.288T8 3t-.288.713T7 4H4v3q0 .425-.288.713T3 8t-.712-.288T2 7m18 15h-3q-.425 0-.712-.288T16 21t.288-.712T17 20h3v-3q0-.425.288-.712T21 16t.713.288T22 17v3q0 .825-.587 1.413T20 22m0-15V4h-3q-.425 0-.712-.288T16 3t.288-.712T17 2h3q.825 0 1.413.588T22 4v3q0 .425-.288.713T21 8t-.712-.288T20 7M6 18q-.425 0-.712-.288T5 17v-.9q0-.525.263-.987t.712-.738q1.05-.625 2.213-.975t2.362-.4q.425-.025.7.3t.25.75q0 .725.225 1.438t.65 1.337q.275.375.1.775t-.6.4z"/></svg>