<svg xmlns="http://www.w3.org/2000/svg" viewBox="0 0 24 24" width="24" height="24"><path fill="currentColor" d="M11.25 13.5q.95 0 1.6-.65t.65-1.6t-.65-1.6t-1.6-.65t-1.6.65t-.65 1.6t.65 1.6t1.6.65m0 2q-1.775 0-3.012-1.237T7 11.25t1.238-3.012T11.25 7t3.013 1.238T15.5 11.25q0 .575-.162 1.138t-.488 1.062l1.95 1.95q.3.3.288.7t-.313.7q-.3.275-.7.288t-.7-.288l-1.925-1.925q-.5.325-1.062.475t-1.138.15M5 21q-.825 0-1.412-.587T3 19v-3q0-.425.288-.712T4 15t.713.288T5 16v3h3q.425 0 .713.288T9 20t-.288.713T8 21zm14 0h-3q-.425 0-.712-.288T15 20t.288-.712T16 19h3v-3q0-.425.288-.712T20 15t.713.288T21 16v3q0 .825-.587 1.413T19 21M3 8V5q0-.825.588-1.412T5 3h3q.425 0 .713.288T9 4t-.288.713T8 5H5v3q0 .425-.288.713T4 9t-.712-.288T3 8m16 0V5h-3q-.425 0-.712-.288T15 4t.288-.712T16 3h3q.825 0 1.413.588T21 5v3q0 .425-.288.713T20 9t-.712-.288T19 8"/></svg>