<svg xmlns="http://www.w3.org/2000/svg" viewBox="0 0 24 24" width="24" height="24"><path fill="currentColor" d="M7.825 12L9.3 13.475q.275.275.275.688t-.275.712q-.3.3-.712.3t-.713-.3L5.7 12.7q-.3-.3-.3-.7t.3-.7l2.2-2.2q.3-.3.7-.287t.7.312q.275.3.287.7t-.287.7zm8.35 0L14.7 10.525q-.275-.275-.275-.687t.275-.713q.3-.3.713-.3t.712.3L18.3 11.3q.3.3.3.7t-.3.7l-2.2 2.2q-.3.3-.7.287t-.7-.312q-.275-.3-.287-.7t.287-.7zM5 21q-.825 0-1.412-.587T3 19v-3q0-.425.288-.712T4 15t.713.288T5 16v3h3q.425 0 .713.288T9 20t-.288.713T8 21zm14 0h-3q-.425 0-.712-.288T15 20t.288-.712T16 19h3v-3q0-.425.288-.712T20 15t.713.288T21 16v3q0 .825-.587 1.413T19 21M3 8V5q0-.825.588-1.412T5 3h3q.425 0 .713.288T9 4t-.288.713T8 5H5v3q0 .425-.288.713T4 9t-.712-.288T3 8m16 0V5h-3q-.425 0-.712-.288T15 4t.288-.712T16 3h3q.825 0 1.413.588T21 5v3q0 .425-.288.713T20 9t-.712-.288T19 8"/></svg>