<svg xmlns="http://www.w3.org/2000/svg" viewBox="0 0 24 24" width="24" height="24"><path fill="currentColor" d="m16.525 19.675l3.55-3.55q.3-.3.7-.288t.7.313q.275.3.275.7t-.275.7L17.25 21.8q-.3.3-.7.3t-.7-.3l-2.15-2.15q-.275-.275-.275-.7t.275-.7t.7-.275t.7.275zM9 15.4l-.9.9q-.275.275-.7.275t-.7-.275t-.275-.7t.275-.7l.9-.9l-.9-.9q-.275-.275-.275-.7t.275-.7t.7-.275t.7.275l.9.9l.9-.9q.275-.275.7-.275t.7.275t.275.7t-.275.7l-.9.9l.9.9q.275.275.275.7t-.275.7t-.7.275t-.7-.275zM5 22q-.825 0-1.412-.587T3 20V6q0-.825.588-1.412T5 4h1V3q0-.425.288-.712T7 2t.713.288T8 3v1h8V3q0-.425.288-.712T17 2t.713.288T18 3v1h1q.825 0 1.413.588T21 6v6.5q0 .425-.288.7t-.712.275t-.712-.287t-.288-.713V10H5v10h6q.425 0 .713.288T12 21t-.288.713T11 22z"/></svg>