<svg xmlns="http://www.w3.org/2000/svg" viewBox="0 0 24 24" width="24" height="24"><path fill="currentColor" d="M3.975 19.775q-1.25 0-2.113-.875T1 16.775v-6q0-.825.588-1.412T3 8.775h5v-4q0-.425.288-.712T9 3.775h4q1.25 0 2.125.875T16 6.775v4h.975V9.6q0-.4.163-.775t.437-.65l.975-.95q.35-.35.838-.275t.737.525L23.2 13.3q.275.5-.012.987t-.863.488h-3.35q-.825 0-1.412-.587t-.588-1.413h-1v1.75q.5.425.763 1.013T17 16.775q0 1.25-.875 2.125T14 19.775q-.95 0-1.725-.55t-1.125-1.45H6.825q-.35.9-1.125 1.45t-1.725.55m0-2q.425 0 .725-.287t.3-.713t-.288-.712T4 15.775t-.712.288t-.288.712t.275.713t.7.287m10.025 0q.425 0 .713-.287t.287-.713t-.288-.712t-.712-.288t-.712.288t-.288.712t.288.713t.712.287m6.675-5L19 9.6v3.175zm-10.675-2h4v-4q0-.425-.288-.712T13 5.775h-3z"/></svg>