<svg xmlns="http://www.w3.org/2000/svg" viewBox="0 0 24 24" width="24" height="24"><path fill="currentColor" d="M3 20q-.825 0-1.412-.587T1 18V6q0-.825.588-1.412T3 4h18q.825 0 1.413.588T23 6v12q0 .825-.587 1.413T21 20zm8-7h1.5v1.25q0 .325.213.538t.537.212t.538-.213t.212-.537v-4.5q0-.325-.213-.537T13.25 9t-.537.213t-.213.537v1.75H11V9.75q0-.325-.213-.537T10.25 9t-.537.213t-.213.537v4.5q0 .325.213.538t.537.212t.538-.213t.212-.537zm4.75 2H18q.625 0 1.063-.437T19.5 13.5v-3q0-.625-.437-1.062T18 9h-2.25q-.325 0-.537.213T15 9.75v4.5q0 .325.213.538t.537.212m.75-1.5v-3H18v3zM6 13h1.25q.325 0 .538-.213T8 12.25t-.213-.537t-.537-.213H6v-1h1.75q.325 0 .538-.213T8.5 9.75t-.213-.537T7.75 9h-2.5q-.325 0-.537.213T4.5 9.75v4.5q0 .325.213.538T5.25 15t.538-.213T6 14.25z"/></svg>