<svg xmlns="http://www.w3.org/2000/svg" viewBox="0 0 24 24" width="24" height="24"><path fill="currentColor" d="M3 19q-.825 0-1.412-.587T1 17V7q0-.825.588-1.412T3 5h10q.825 0 1.413.588T15 7v10q0 .825-.587 1.413T13 19zm15-8q-.425 0-.712-.288T17 10V6q0-.425.288-.712T18 5h4q.425 0 .713.288T23 6v4q0 .425-.288.713T22 11zM5 15h6q.3 0 .45-.275t-.05-.525l-1.625-2.175q-.15-.2-.4-.2t-.4.2L7.5 14l-.975-1.3q-.15-.2-.4-.2t-.4.2L4.6 14.2q-.2.25-.05.525T5 15m13 4q-.425 0-.712-.288T17 18v-4q0-.425.288-.712T18 13h4q.425 0 .713.288T23 14v4q0 .425-.288.713T22 19z"/></svg>