<svg xmlns="http://www.w3.org/2000/svg" viewBox="0 0 24 24" width="24" height="24"><path fill="currentColor" d="M22 4v12q0 1.65-1.175 2.825T18 20H6q-1.65 0-2.825-1.175T2 16V4zm-6.7 6.3v4.5q0 .275.213.488T16 15.5t.475-.213t.2-.487V8.775q0-.125-.075-.2t-.2-.075h-.55q-.025 0-.175.05l-1.9 1.375q-.2.15-.238.4t.113.45t.4.238t.45-.113zm-6.6 2.65h.9l1.65 2.275q.1.125.225.2t.275.075q.4 0 .588-.363t-.063-.687l-1.25-1.675q.7-.275 1.063-.788t.362-1.262q0-1.125-.662-1.675T9.775 8.5h-1.45q-.425 0-.712.288t-.288.712v5.3q0 .275.2.488T8 15.5t.488-.212t.212-.488zm0-1.025V9.7h1.125q.65 0 .938.288t.287.812q0 .55-.337.838t-.913.287z"/></svg>