<svg xmlns="http://www.w3.org/2000/svg" viewBox="0 0 24 24" width="24" height="24"><path fill="currentColor" d="M14.55 10.3v4.525q0 .275.2.475t.475.2t.475-.2t.2-.475v-6.05q0-.125-.062-.2T15.65 8.5h-.575q-.05 0-.15.05L13 9.925q-.2.15-.238.4t.113.45t.4.238t.45-.113zm-5.025 3.95V9.175q0-.275-.213-.475t-.487-.2t-.475.2t-.2.475V14.5q0 .425.288.713t.712.287H12q.275 0 .45-.175t.175-.45t-.175-.45t-.45-.175zM22 6v10q0 1.65-1.175 2.825T18 20H6q-1.65 0-2.825-1.175T2 16V6q0-.825.588-1.412T4 4h16q.825 0 1.413.588T22 6"/></svg>