<svg xmlns="http://www.w3.org/2000/svg" viewBox="0 0 24 24" width="24" height="24"><path fill="currentColor" d="M17 15.35V18q0 .825-.587 1.413T15 20H9q-.825 0-1.412-.587T7 18v-2.65q-2.275-.8-3.637-2.187T2 10.075q0-2.525 2.913-4.3T12 4t7.088 1.775t2.912 4.3q0 1.7-1.362 3.088T17 15.35m-6.325-2.7q.2 0 .35-.15t.15-.35v-1.3h.7l1.15 1.6q.05.1.15.15t.225.05q.3 0 .438-.275t-.063-.5L12.85 10.7q.5-.175.763-.537t.262-.913q0-.75-.488-1.175t-1.262-.425h-1.45q-.2 0-.35.15t-.15.35v4q0 .2.15.35t.35.15m.5-2.55V8.525h.775q.4 0 .65.212t.25.588q0 .4-.25.588t-.675.187z"/></svg>