<svg xmlns="http://www.w3.org/2000/svg" viewBox="0 0 24 24" width="24" height="24"><path fill="currentColor" d="M3 17q-.425 0-.712-.288T2 16V8q0-.425.288-.712T3 7t.713.288T4 8v8q0 .425-.288.713T3 17m18 0q-.425 0-.712-.288T20 16V8q0-.425.288-.712T21 7t.713.288T22 8v8q0 .425-.288.713T21 17M5 18V9q0-1.65 1.175-2.825T9 5h1q.425 0 .713.288T11 6v5h-1q-.425 0-.712.288T9 12t.288.713T10 13h1v5q0 .425-.288.713T10 19H6q-.425 0-.712-.288T5 18m8 0v-5h1q.425 0 .713-.288T15 12t-.288-.712T14 11h-1V6q0-.425.288-.712T14 5h1q1.65 0 2.825 1.175T19 9v9q0 .425-.288.713T18 19h-4q-.425 0-.712-.288T13 18"/></svg>