<svg xmlns="http://www.w3.org/2000/svg" viewBox="0 0 24 24" width="24" height="24"><path fill="currentColor" d="M5 21q-.825 0-1.412-.587T3 19V5q0-.825.588-1.412T5 3h14q.825 0 1.413.588T21 5v14q0 .825-.587 1.413T19 21zm6.75-6q.325 0 .538-.213t.212-.537v-4.5q0-.325-.213-.537T11.75 9t-.537.213T11 9.75v4.5q0 .325.213.538t.537.212M7 15h2q.425 0 .713-.288T10 14v-1.25q0-.325-.213-.537T9.25 12t-.537.213t-.213.537v.75h-1v-3h1.75q.325 0 .538-.213T10 9.75t-.213-.537T9.25 9H7q-.425 0-.712.288T6 10v4q0 .425.288.713T7 15m8.5-.75V13h1.25q.325 0 .538-.213t.212-.537t-.213-.537t-.537-.213H15.5v-1h2.25q.325 0 .538-.213t.212-.537t-.213-.537T17.75 9h-3q-.325 0-.537.213T14 9.75v4.5q0 .325.213.538t.537.212t.538-.213t.212-.537"/></svg>