<svg xmlns="http://www.w3.org/2000/svg" viewBox="0 0 24 24" width="24" height="24"><path fill="currentColor" d="M5 21q-.825 0-1.412-.587T3 19v-6q0-1.65 1.175-2.825T7 9h4V6.275l-8.775 2.4q-.45.125-.838-.162T1 7.725q0-.325.188-.575T1.7 6.8l4.425-1.2q-.05-.125-.088-.275T6 5q0-.625.438-1.062T7.5 3.5q.575 0 1 .375t.475.95L11 4.275V4q0-.425.288-.712T12 3q.35 0 .613.2t.362.525l2.175-.575q-.075-.15-.112-.312T15 2.5q0-.625.438-1.062T16.5 1q.575 0 1.013.4t.487.975l3.775-1.05q.45-.125.838.163t.387.787q0 .325-.187.575t-.513.35L13 5.725V9h4q1.65 0 2.825 1.175T21 13v6q0 .825-.587 1.413T19 21zm0-6h3.325v-4H7q-.825 0-1.412.588T5 13zm5.325 0h3.325v-4h-3.325zm5.35 0H19v-2q0-.825-.587-1.412T17 11h-1.325z"/></svg>