<svg xmlns="http://www.w3.org/2000/svg" viewBox="0 0 24 24" width="24" height="24"><path fill="currentColor" d="M16.425 18.175L18.9 15.7q.275-.275.7-.275t.7.275t.275.7t-.275.7l-3.175 3.175q-.3.3-.7.3t-.7-.3L14.3 18.85q-.275-.275-.275-.7t.275-.7t.7-.275t.7.275zM4 21q-.425 0-.712-.288T3 20t.288-.712T4 19h7q.425 0 .713.288T12 20t-.288.713T11 21zm0-4q-.425 0-.712-.288T3 16t.288-.712T4 15h7q.425 0 .713.288T12 16t-.288.713T11 17zm0-4q-.425 0-.712-.288T3 12t.288-.712T4 11h16q.425 0 .713.288T21 12t-.288.713T20 13zm0-4q-.425 0-.712-.288T3 8t.288-.712T4 7h16q.425 0 .713.288T21 8t-.288.713T20 9zm0-4q-.425 0-.712-.288T3 4t.288-.712T4 3h16q.425 0 .713.288T21 4t-.288.713T20 5z"/></svg>