<svg xmlns="http://www.w3.org/2000/svg" viewBox="0 0 24 24" width="24" height="24"><path fill="currentColor" d="M3 20q-.425 0-.712-.288T2 19t.288-.712T3 18h4.75q-.425-1.575-1.4-2.85T4 13.075q-.55-.325-.525-.712T4.15 12q3.275.05 5.562 2.375T12 20zm11 0q0-1.05-.225-2.087t-.65-1.988q1.05-1.725 2.813-2.8T19.85 12q.6-.025.625.388t-.475.687q-1.375.8-2.35 2.075T16.25 18H21q.425 0 .713.288T22 19t-.288.713T21 20zm-2-5.975q0-2.65 1.513-4.713T17.4 6.45q.575-.2.85.125t-.225.8q-.8.75-1.387 1.675t-.988 1.975q-1.1.525-2.013 1.288T12 14.025m-1.825-1.875q-.3-.225-.6-.425t-.625-.4q0-.15.025-.312T9 10.7q0-1.325-.287-2.525T7.875 5.85q-.275-.55.038-.812t.812.137q.9.725 1.588 1.65t1.112 2.025q-.45.75-.775 1.588t-.475 1.712"/></svg>