<svg xmlns="http://www.w3.org/2000/svg" viewBox="0 0 24 24" width="24" height="24"><path fill="currentColor" d="M12.5 11.95q.725-.8 1.113-1.825T14 8t-.387-2.125T12.5 4.05q1.5.2 2.5 1.325T16 8t-1 2.625t-2.5 1.325M17.45 20q.275-.45.413-.962T18 18v-1q0-.9-.4-1.713t-1.05-1.437q1.275.45 2.363 1.163T20 17v1q0 .825-.587 1.413T18 20zM23 11h-4q-.425 0-.712-.288T18 10t.288-.712T19 9h4q.425 0 .713.288T24 10t-.288.713T23 11M8 12q-1.65 0-2.825-1.175T4 8t1.175-2.825T8 4t2.825 1.175T12 8t-1.175 2.825T8 12m-8 6v-.8q0-.85.438-1.562T1.6 14.55q1.55-.775 3.15-1.162T8 13t3.25.388t3.15 1.162q.725.375 1.163 1.088T16 17.2v.8q0 .825-.587 1.413T14 20H2q-.825 0-1.412-.587T0 18"/></svg>