<svg xmlns="http://www.w3.org/2000/svg" viewBox="0 0 24 24" width="24" height="24"><path fill="currentColor" d="M12 23q-4.65 0-7.825-1.737T1 17q0-.725.3-1.412t.875-1.338t1.413-1.162t1.887-.938q.375-.15.738.038t.487.587q.125.375-.062.738t-.563.537q-.7.275-1.263.613t-.962.737q-.425.4-.638.813T3 17q0 1.6 2.7 2.8T12 21t6.3-1.2T21 17q0-.375-.213-.788t-.637-.812q-.4-.4-.962-.737t-1.263-.613q-.375-.175-.562-.537t-.063-.738q.125-.4.488-.587t.737-.038q.925.375 1.688.838T21.55 14q.725.675 1.088 1.438T23 17q0 2.525-3.175 4.263T12 23m-2-4q-.425 0-.712-.288T9 18V8H5q-.425 0-.712-.288T4 7t.288-.712T5 6h14q.425 0 .713.288T20 7t-.288.713T19 8h-4v10q0 .425-.288.713T14 19t-.712-.288T13 18v-4h-2v4q0 .425-.288.713T10 19m2-14q-.825 0-1.412-.587T10 3t.588-1.412T12 1t1.413.588T14 3t-.587 1.413T12 5"/></svg>