<svg xmlns="http://www.w3.org/2000/svg" viewBox="0 0 24 24" width="24" height="24"><path fill="currentColor" d="M4 21v-4q0-.425.288-.712T5 16h1q.425 0 .713.288T7 17v4q0 .425-.288.713T6 22H5q-.425 0-.712-.288T4 21m5 0V10.1q-1.05.35-1.463 1.225t-.512 1.9q-.05.35-.35.563T6 14q-.4 0-.7-.25t-.25-.625q.275-2.825 2.1-4.475T12 7q2.25 0 3.488-1.012T16.95 2.95q.05-.425.338-.687T18 2t.713.275t.237.675q-.2 1.875-1.137 3.338T15 8.4V21q0 .425-.288.713T14 22t-.712-.288T13 21v-5h-2v5q0 .425-.288.713T10 22t-.712-.288T9 21m3-15q-.825 0-1.412-.587T10 4t.588-1.412T12 2t1.413.588T14 4t-.587 1.413T12 6"/></svg>