<svg xmlns="http://www.w3.org/2000/svg" viewBox="0 0 24 24" width="24" height="24"><path fill="currentColor" d="M12.1 21q-.425 0-.712-.288T11.1 20q0-.175.075-.363t.225-.337l4.275-4.275q.15-.15.15-.363t-.15-.362t-.363-.138t-.362.163l-4.25 4.25q-.15.15-.325.225t-.375.075q-.425 0-.712-.288T9 17.876q0-.25.075-.413t.2-.287L13.55 12.9q.15-.15.15-.35t-.15-.35t-.35-.15t-.35.15l-4.275 4.25q-.15.15-.325.225t-.4.075q-.4 0-.7-.3t-.3-.7q0-.2.075-.375t.225-.325l4.25-4.25q.15-.15.15-.363t-.15-.362t-.35-.15t-.35.15L6.45 14.35q-.125.125-.3.2t-.425.075q-.425 0-.712-.288t-.288-.712q0-.2.075-.375t.225-.325l4.9-4.9q.275-.275.688-.25t.687.3l3.05 3.05q.275.275.65.438t.75.162q.8 0 1.4-.562t.6-1.438q0-.35-.125-.725t-.45-.7L13.75 4.875q-.275-.275-.363-.6t.088-.625q.225-.375.575-.55t.775-.175q.525 0 1.075.25t1 .7l4.225 4.25q.45.45.663 1T22 10.4q0 .5-.225 1.013t-.65.937L12.8 20.7q-.2.2-.35.25t-.35.05m-9.2-8.875q-.475-.35-.712-.837T1.95 10.25q0-.575.238-1.125t.687-1L7.1 3.875q.425-.425.938-.65T9.125 3q.625 0 1.213.225t1.012.65L16.475 9q.125.125.213.313t.087.387q0 .425-.287.713t-.713.287q-.2 0-.387-.087t-.313-.213L12 7.35q-.575-.575-1.412-.575t-1.413.575l-4.7 4.7q-.325.325-.762.338t-.813-.263"/></svg>