<svg xmlns="http://www.w3.org/2000/svg" viewBox="0 0 24 24" width="24" height="24"><path fill="currentColor" d="M1.975 11q-.425 0-.7-.288T1 10t.288-.712T2 9h1.475q.85-2.425 2.863-4.05T11 3.025V3q0-.425.288-.712T12 2t.713.288T13 3v.025q2.625.3 4.638 1.925T20.5 9H22q.425 0 .713.288T23 10t-.288.713T22 11zM8 21v-8h6.8q.35 0 .6.2t.35.475t.038.575t-.338.525L13.975 16H10.75q-.325 0-.537.225T10 16.75q0 .325.213.538t.512.212h3.05q.35 0 .688-.112t.612-.338l3.475-2.9q.55-.4 1.163-.5t1.212.05t1.138.513t.912.937L17.1 20.075q-.55.45-1.2.688T14.55 21zm-5 1q-.425 0-.712-.288T2 21v-7q0-.425.288-.712T3 13h3v8q0 .425-.288.713T5 22z"/></svg>