<svg xmlns="http://www.w3.org/2000/svg" viewBox="0 0 24 24" width="24" height="24"><path fill="currentColor" d="M6 23q-2.075 0-3.537-1.463T1 18q0-.325.213-.537t.537-.213t.538.213T2.5 18q0 1.45 1.025 2.475T6 21.5q.325 0 .538.213t.212.537t-.213.538T6 23M22.75 5.775q-.325 0-.537-.213T22 5.025q0-1.275-.875-2.15T18.975 2q-.325 0-.537-.212t-.213-.538t.213-.537t.537-.213q1.875 0 3.2 1.325t1.325 3.2q0 .325-.213.538t-.537.212M10.05 23q-.75 0-1.4-.337T7.575 21.7l-5.9-8.65q-.2-.3-.175-.65t.3-.6q.475-.475 1.125-.55t1.175.3L7 13.575V4q0-.425.288-.712T8 3t.713.288T9 4v8h2V2q0-.425.288-.712T12 1t.713.288T13 2v10h2V3q0-.425.288-.712T16 2t.713.288T17 3v9h2V5q0-.425.288-.712T20 4t.713.288T21 5v14q0 1.65-1.175 2.825T17 23z"/></svg>