<svg xmlns="http://www.w3.org/2000/svg" viewBox="0 0 24 24" width="24" height="24"><path fill="currentColor" d="M6 23q-2.075 0-3.537-1.463T1 18q0-.325.213-.537t.537-.213t.538.213T2.5 18q0 1.45 1.025 2.475T6 21.5q.325 0 .538.213t.212.537t-.213.538T6 23M22.75 5.775q-.325 0-.537-.213T22 5.025q0-1.275-.875-2.15T18.975 2q-.325 0-.537-.212t-.213-.538t.213-.537t.537-.213q1.875 0 3.2 1.325t1.325 3.2q0 .325-.213.538t-.537.212M15 11.325V3q0-.425.288-.712T16 2t.713.288T17 3v9.175h2V5q0-.425.288-.712T20 4t.713.288T21 5v10.725q0 .675-.612.938T19.3 16.45l-3.725-3.725q-.275-.275-.425-.637t-.15-.763M7 4.25V3.5q0-.425.288-.712T8 2.5t.713.288T9 3.5v.75q0 .425-.288.713T8 5.25t-.712-.288T7 4.25M11 8V2q0-.425.288-.712T12 1t.713.288T13 2v6.025q0 .425-.288.7T12 9t-.712-.288T11 8m-.675 15q-.725 0-1.35-.387t-1.15-.913L2.05 15.975q-.425-.425-.4-1.037t.525-.988l.5-.375q.3-.25.688-.287t.737.137l2.9 1.45v-5.05L1.375 4.2q-.3-.3-.288-.712t.313-.713t.713-.3t.712.3l18.375 18.4q.3.3.3.7t-.3.7t-.712.3t-.713-.3l-.4-.375q-.5.375-1.1.588T17 23z"/></svg>