<svg xmlns="http://www.w3.org/2000/svg" viewBox="0 0 24 24" width="24" height="24"><path fill="currentColor" d="M12 14q-2.5 0-4.25-1.75T6 8t1.75-4.25T12 2t4.25 1.75T18 8t-1.75 4.25T12 14m8.5 6h-1.25q-.325 0-.537-.213t-.213-.537t.213-.537t.537-.213h1.25v-1.25q0-.325.213-.537t.537-.213t.538.213t.212.537v1.25h1.25q.325 0 .538.213t.212.537t-.213.538t-.537.212H22v1.25q0 .325-.213.538T21.25 22t-.537-.213t-.213-.537zM13 21.25v-4.5q0-.325.213-.537T13.75 16h2.75q.6 0 1.05.45T18 17.5v1q0 .575-.262.888t-.638.512l.5 1.15q.15.35-.05.65t-.6.3q-.2 0-.375-.1t-.25-.3L15.6 20h-1.1v1.25q0 .325-.213.537T13.75 22t-.537-.213T13 21.25m1.5-2.75h2v-1h-2zm-13 1v1.75q0 .325-.213.538T.75 22t-.537-.213T0 21.25v-4.5q0-.325.213-.537T.75 16t.538.213t.212.537V18h2v-1.25q0-.325.213-.537T4.25 16t.538.213t.212.537v4.5q0 .325-.213.538T4.25 22t-.537-.213t-.213-.537V19.5zm5 1.75v-4.5q0-.325.213-.537T7.25 16H10q.6 0 1.05.45t.45 1.05v3q0 .6-.45 1.05T10 22H7.25q-.325 0-.537-.213T6.5 21.25M8 20.5h2v-3H8z"/></svg>