<svg xmlns="http://www.w3.org/2000/svg" viewBox="0 0 24 24" width="24" height="24"><path fill="currentColor" d="M14.5 10.5H16v-3h-1.5zm-6 5h2v-1h-2zm0 1.5h1.1l.675 1.575q.075.2.263.313t.387.112q.375 0 .588-.325t.062-.675l-.475-1.1q.375-.225.638-.587T12 15.5v-1q0-.625-.437-1.062T10.5 13H7.75q-.325 0-.537.213T7 13.75v4.5q0 .325.213.538T7.75 19t.538-.213t.212-.537zm-.75-5q.325 0 .538-.213t.212-.537V9.9L7 8.4v2.85q0 .325.213.538T7.75 12M12 22q-2.075 0-3.9-.788t-3.175-2.137T2.788 15.9T2 12q0-2.1.775-3.912t2.2-3.113l14.05 14.05q-1.275 1.425-3.087 2.2T12 22m7.8.6L1.4 4.2q-.275-.275-.275-.7t.275-.7t.7-.275t.7.275l18.4 18.4q.275.275.275.7t-.275.7t-.7.275t-.7-.275M22 12q0 1.1-.2 2.1t-.625 1.925q-.125.275-.375.45t-.525.225t-.575-.05t-.525-.325L14.85 12H16q.6 0 1.05-.45t.45-1.05v-3q0-.6-.45-1.05T16 6h-3v4.15l-1-1v-2.4q0-.325-.213-.537T11.25 6t-.537.213t-.213.537v.9L7.675 4.825Q7.45 4.6 7.35 4.3t-.05-.575t.213-.525t.437-.375Q8.875 2.4 9.9 2.2T12 2q2.075 0 3.9.787t3.175 2.138T21.213 8.1T22 12"/></svg>