<svg xmlns="http://www.w3.org/2000/svg" viewBox="0 0 24 24" width="24" height="24"><path fill="currentColor" d="M19.075 21.875L2.1 4.9q-.275-.275-.287-.688T2.1 3.5q.275-.275.7-.275t.7.275l17 16.95q.3.3.288.7t-.288.7q-.3.3-.712.313t-.713-.288M17.5 13v1.65l-1.5-1.5v-3.4q0-.325.213-.537T16.75 9h2.75q.6 0 1.05.45T21 10.5v1q0 .45-.262.813t-.638.587l.5 1.15q.15.35-.05.65t-.6.3q-.2 0-.375-.1t-.25-.3L18.6 13zm0-1.5h2v-1h-2zm-3 .15L11.85 9H13q.6 0 1.05.45t.45 1.05zm-10 .85v1.75q0 .325-.213.538T3.75 15t-.537-.213T3 14.25v-4.5q0-.325.213-.537T3.75 9t.538.213t.212.537V11h2V9.75q0-.325.213-.537T7.25 9t.538.213T8 9.75v4.5q0 .325-.213.538T7.25 15t-.537-.213t-.213-.537V12.5zm5-1.6l1.5 1.5v1.1h1.125l1.375 1.4q-.125.05-.25.075T13 15h-2.75q-.325 0-.537-.213T9.5 14.25z"/></svg>