<svg xmlns="http://www.w3.org/2000/svg" viewBox="0 0 24 24" width="24" height="24"><path fill="currentColor" d="M5 18H4q-.825 0-1.412-.587T2 16v-4q0-2.5 1.75-4.25T8 6t4.25 1.75T14 12v4q0 .825-.587 1.413T12 18h-1q-.425 0-.712-.288T10 17v-3q0-.425.288-.712T11 13h1.5v-1q0-1.875-1.312-3.187T8 7.5T4.813 8.813T3.5 12v1H5q.425 0 .713.288T6 14v3q0 .425-.288.713T5 18M18 7v-.5q0-.2.15-.35T18.5 6h1q.2 0 .35.15t.15.35V7h1q.425 0 .713.288T22 8v9q0 .425-.288.713T21 18h-4q-.425 0-.712-.288T16 17V8q0-.425.288-.712T17 7z"/></svg>