<svg xmlns="http://www.w3.org/2000/svg" viewBox="0 0 24 24" width="24" height="24"><path fill="currentColor" d="M21 15.725q0 1-.737.975T19 16.15l-2.45-2.45q-.475-.475-.213-1.087t.938-.613H19v-1q0-2.95-2.05-4.975T12 4q-1.1 0-2.087.312T8.1 5.2L6.65 3.8q1.125-.875 2.487-1.338T12 2q1.85 0 3.488.7t2.862 1.925t1.938 2.863T21 11zM13 23q-.425 0-.712-.288T12 22t.288-.712T13 21h5.175l-1-1H17q-.825 0-1.412-.587T15 18v-.175L5.525 8.35q-.225.6-.375 1.288T5 11v1h2q.825 0 1.413.588T9 14v4q0 .825-.587 1.413T7 20H5q-.825 0-1.412-.587T3 18v-7q0-1.125.263-2.175t.762-2L1.4 4.2q-.3-.3-.3-.7t.3-.7q.3-.275.7-.288t.7.288l18.9 18.925q.35.35.163.813t-.688.462z"/></svg>