<svg xmlns="http://www.w3.org/2000/svg" viewBox="0 0 24 24" width="24" height="24"><path fill="currentColor" d="M10 4q-.5 0-.975.088t-.925.287q-.375.175-.763.025t-.562-.525t-.038-.763t.513-.562q.65-.275 1.338-.412T10 2q1.4 0 2.688.513t2.287 1.512q1.525 1.525 1.9 3.638T16.5 11.8q-.15.375-.513.538t-.737.012t-.55-.513t-.025-.737q.525-1.5.262-3.012T13.55 5.45q-.725-.725-1.638-1.088T10 4m0 7.5q-1.05 0-1.775-.737T7.5 9q0-.325.075-.625t.25-.575l3.4 3.4q-.275.15-.587.225T10 11.5m9.775 11.075l-6.625-6.6q-.35.3-.712.613t-.638.687t-.437.813t-.313.862q-.5 1.45-1.562 2.25T7 22q-1.65 0-2.825-1.175T3 18q0-.425.288-.712T4 17t.713.288T5 18q0 .825.588 1.413T7 20q.775 0 1.313-.5t.987-1.65q.2-.525.425-1.037t.575-.963q.3-.4.663-.7t.787-.575L5.1 7.925q-.05.275-.075.538T5 9q0 .425-.288.713T4 10t-.712-.288T3 9q0-.725.125-1.388T3.5 6.326L1.375 4.2q-.3-.3-.3-.713t.3-.712t.713-.3t.712.3l18.4 18.4q.3.3.3.7t-.3.7t-.712.3t-.713-.3M19 9.05q0-1.575-.5-3.025t-1.45-2.65q-.275-.35-.275-.762t.3-.713t.713-.275t.687.35q1.2 1.5 1.863 3.313T21 9.05q0 1.55-.45 3.038T19.3 14.9q-.2.35-.6.388t-.725-.213t-.4-.638t.125-.737q.625-1.05.963-2.238T19 9.05m-6.575.5l-3-3q.125-.05.275-.05h.3q1.05 0 1.775.725T12.5 9q0 .15-.012.288t-.063.262"/></svg>