<svg xmlns="http://www.w3.org/2000/svg" viewBox="0 0 24 24" width="24" height="24"><path fill="currentColor" d="M5 9q0 1.575.513 2.988t1.437 2.587q.275.35.275.763t-.3.712q-.325.3-.75.263t-.7-.388q-1.15-1.425-1.812-3.2T3 9q0-2 .663-3.775t1.812-3.2q.275-.35.7-.387t.75.262q.3.3.3.713t-.275.762q-.925 1.175-1.437 2.6T5 9m9 2.5q-1.05 0-1.775-.737T11.5 9q0-1.05.725-1.775T14 6.5t1.775.725T16.5 9q0 1.025-.725 1.763T14 11.5m5 6.5q0-.425.288-.712T20 17t.713.288T21 18q0 1.65-1.175 2.825T17 22q-1.55 0-2.537-.775T12.95 18.95q-.425-1.25-.812-1.75t-1.788-1.6Q8.8 14.35 7.9 12.775T7 9q0-2.975 2.013-4.987T14 2t4.988 2.013T21 9q0 .425-.288.713T20 10t-.712-.288T19 9q0-2.125-1.437-3.562T14 4t-3.562 1.438T9 9q0 1.7.675 2.9t1.925 2.15q1.3.95 2.025 1.85t1.075 1.95q.35 1.1.838 1.625T17 20q.825 0 1.413-.587T19 18"/></svg>