<svg xmlns="http://www.w3.org/2000/svg" viewBox="0 0 24 24" width="24" height="24"><path fill="currentColor" d="M12 15.5q1.35 0 2.463-.737T16.15 12.8q.175-.375 0-.75t-.575-.525q-.375-.15-.737.013t-.538.537q-.3.675-.937 1.05T12 13.5t-1.362-.375t-.938-1.05q-.175-.375-.537-.537t-.738-.013q-.4.15-.575.525t0 .75q.575 1.225 1.688 1.963T12 15.5m-2.75-5q.525 0 .888-.363t.362-.887t-.363-.888T9.25 8t-.888.363T8 9.25t.363.888t.887.362m5.5 0q.525 0 .888-.363T16 9.25t-.363-.888T14.75 8t-.888.363t-.362.887t.363.888t.887.362M12 5.1q.85-1 2.025-1.55T16.5 3q2.35 0 3.925 1.575T22 8.5q0 1.05-.312 2.013t-1.075 2.075t-2.05 2.437t-3.238 3.075l-2 1.75q-.575.5-1.325.5t-1.325-.5l-2-1.75q-1.95-1.75-3.238-3.075t-2.05-2.437t-1.075-2.075T2 8.5q0-2.35 1.575-3.925T7.5 3q1.3 0 2.475.55T12 5.1"/></svg>