<svg xmlns="http://www.w3.org/2000/svg" viewBox="0 0 24 24" width="24" height="24"><path fill="currentColor" d="m20.175 7.6l-.45.45q-.3.275-.3.7t.275.725t.688.288t.712-.288L23.3 7.3q.3-.3.3-.7t-.3-.7l-2.175-2.175q-.3-.3-.712-.3t-.713.3q-.275.3-.275.713t.275.687l.475.475H19q-1.25 0-2.125.875T16 8.6v7q0 .425-.287.713T15 16.6t-.712-.288T14 15.6v-6q0-1.25-.875-2.125T11 6.6t-2.125.875T8 9.6v6q0 .425-.288.713T7 16.6t-.712-.288T6 15.6v-8q0-.425-.288-.712T5 6.6t-.712.288T4 7.6v8q0 1.25.875 2.125T7 18.6t2.125-.875T10 15.6v-6q0-.425.288-.712T11 8.6t.713.288T12 9.6v6q0 1.25.875 2.125T15 18.6t2.125-.875T18 15.6v-7q0-.425.288-.712T19 7.6zM3 21.6q-.825 0-1.412-.587T1 19.6v-7q0-.425.288-.712T2 11.6h20q.425 0 .713.288T23 12.6v7q0 .825-.587 1.413T21 21.6z"/></svg>