<svg xmlns="http://www.w3.org/2000/svg" viewBox="0 0 24 24" width="24" height="24"><path fill="currentColor" d="M12 18q.525 0 .888-.363t.362-.887t-.363-.888T12 15.5t-.888.363t-.362.887t.363.888T12 18m3.6-9.05q0-1.35-.913-2.15T12.276 6q-1.125 0-1.987.463T8.925 7.8q-.175.275-.012.6t.512.475q.3.125.625.013t.55-.413q.275-.375.688-.575t.887-.2q.7 0 1.138.375t.437.95q0 .45-.3.95t-.9 1q-.65.575-.975 1.075t-.425 1.175q-.05.35.212.637t.663.288q.35 0 .638-.238t.362-.637t.275-.712t.7-.813q.95-.95 1.275-1.525T15.6 8.95M5 21q-.825 0-1.412-.587T3 19V5q0-.825.588-1.412T5 3h14q.825 0 1.413.588T21 5v14q0 .825-.587 1.413T19 21z"/></svg>