<svg xmlns="http://www.w3.org/2000/svg" viewBox="0 0 24 24" width="24" height="24"><path fill="currentColor" d="M3 14.25v-4.5q0-.325.213-.537T3.75 9t.538.213t.212.537V11h1V9.75q0-.325.213-.537T6.25 9t.538.213T7 9.75v4.5q0 .325-.213.538T6.25 15t-.537-.213t-.213-.537V12.5h-1v1.75q0 .325-.213.538T3.75 15t-.537-.213T3 14.25m5 0v-4.5q0-.325.213-.537T8.75 9h2q.325 0 .538.213t.212.537t-.213.538t-.537.212H9.5v.5h1.25q.325 0 .538.213t.212.537t-.213.538t-.537.212H9.5v1h1.25q.325 0 .538.213t.212.537t-.213.538t-.537.212h-2q-.325 0-.537-.213T8 14.25m4.825-.275L12.15 9.85q-.05-.35.162-.6t.563-.25q.275 0 .475.175t.25.45l.65 3.875l.65-3.875q.05-.275.25-.45T15.625 9q.35 0 .562.25t.163.6l-.675 4.125q-.075.45-.425.738t-.8.287h-.4q-.45 0-.8-.288t-.425-.737M18 15q-.425 0-.712-.287T17 14v-4q0-.425.288-.712T18 9h2q.425 0 .713.288T21 10v.525q0 .325-.213.538t-.537.212t-.537-.213t-.213-.537V10.5h-1v3h1v-.025q0-.325.213-.537t.537-.213t.538.213t.212.537V14q0 .425-.288.713T20 15z"/></svg>