<svg xmlns="http://www.w3.org/2000/svg" viewBox="0 0 24 24" width="24" height="24"><path fill="currentColor" d="M4.95 7.325L4.2 6.6q-.3-.275-.288-.687T4.2 5.2q.3-.3.713-.312t.712.287l.725.725q.275.275.288.688T6.35 7.3q-.275.275-.687.288t-.713-.263M11 4V3q0-.425.288-.712T12 2t.713.288T13 3v1q0 .425-.288.713T12 5t-.712-.288T11 4m6.7 1.875l.7-.7q.275-.275.688-.275t.712.3q.275.275.275.7t-.275.7l-.7.7q-.275.275-.688.288t-.712-.263q-.3-.3-.3-.725t.3-.725M9 20v-3l-2.425-2.425q-.275-.275-.425-.638T6 13.176V11q0-.825.587-1.412T8 9h8q.825 0 1.413.588T18 11v2.175q0 .4-.15.763t-.425.637L15 17v3q0 .825-.587 1.413T13 22h-2q-.825 0-1.412-.587T9 20"/></svg>