<svg xmlns="http://www.w3.org/2000/svg" viewBox="0 0 24 24" width="24" height="24"><path fill="currentColor" d="M5.625 6.65q-.425 0-.712-.3t-.288-.725t.288-.712t.712-.288t.725.288t.3.712t-.3.725t-.725.3m4.05-2.325q-.425 0-.725-.3t-.3-.725t.3-.713t.725-.287t.713.288t.287.712t-.288.725t-.712.3m4.65 0q-.425 0-.712-.3t-.288-.725t.288-.712t.712-.288t.725.288t.3.712t-.3.725t-.725.3m4.05 2.325q-.425 0-.725-.3t-.3-.725t.3-.725t.725-.3t.713.3t.287.725t-.288.725t-.712.3m2.325 4.025q-.425 0-.725-.288t-.3-.712t.3-.712t.725-.288t.713.288t.287.712t-.287.713t-.713.287m0 4.675q-.425 0-.725-.3t-.3-.725t.3-.712t.725-.288t.713.288t.287.712t-.287.725t-.713.3m-2.325 4.025q-.425 0-.725-.288t-.3-.712t.3-.725t.725-.3t.713.3t.287.725t-.287.713t-.713.287m-4.05 2.325q-.425 0-.712-.288t-.288-.712t.288-.725t.712-.3t.725.3t.3.725t-.3.713t-.725.287m-4.65 0q-.425 0-.725-.287t-.3-.713t.3-.725t.725-.3t.713.3t.287.725t-.288.713t-.712.287m-4.05-2.35q-.425 0-.712-.288t-.288-.712t.288-.712t.712-.288t.713.288t.287.712t-.288.713t-.712.287M3.3 15.325q-.425 0-.712-.3T2.3 14.3t.288-.712t.712-.288t.725.288t.3.712t-.3.725t-.725.3m0-4.65q-.425 0-.712-.288T2.3 9.676t.288-.725t.712-.3t.725.3t.3.725t-.3.713t-.725.287m9.7.925l3 3q.275.275.275.7T16 16t-.7.275t-.7-.275l-3.3-3.3q-.15-.15-.225-.337T11 11.975V8q0-.425.288-.712T12 7t.713.288T13 8z"/></svg>