<svg xmlns="http://www.w3.org/2000/svg" viewBox="0 0 24 24" width="24" height="24"><path fill="currentColor" d="M12 5q-.625 0-1.362.15t-1.313.425q-.375.2-.775.025t-.6-.525q-.2-.375-.075-.737t.475-.563q.8-.4 1.788-.587T12 3q1.875 0 3.513.713t2.85 1.924t1.925 2.85T21 12q0 .9-.2 1.863t-.55 1.762q-.175.35-.562.488t-.738-.063t-.5-.6t.025-.775q.25-.575.387-1.3T19 12q0-2.925-2.038-4.962T12 5m0 2q.425 0 .713.288T13 8v.1q0 .425-.288.713T12 9.1t-.712-.288T11 8.1V8q0-.425.288-.712T12 7m0 14q-1.725 0-3.262-.612T6 18.7q-.975-.875-1.687-2.037T3.25 14.174q-.125-.4.138-.75t.687-.4t.75.2t.45.675q.275.975.838 1.863T7.425 17.3q.925.8 2.1 1.25T12 19q.925 0 1.763-.213t1.587-.637L7.2 10H4q-.425 0-.712-.288T3 9V5.8l-.9-.9q-.275-.275-.275-.7t.275-.7t.7-.275t.7.275l17 17q.275.275.275.7t-.275.7t-.7.275t-.7-.275l-2.3-2.3q-1.05.65-2.25 1.025T12 21"/></svg>