<svg xmlns="http://www.w3.org/2000/svg" viewBox="0 0 24 24" width="24" height="24"><path fill="currentColor" d="M6 20q-.825 0-1.412-.587T4 18v-7.375L3 11.4q-.325.25-.737.2t-.663-.4q-.25-.325-.187-.725t.387-.65l9-6.9q.275-.2.588-.3t.637-.1t.625.1t.575.3L20.7 8.65q.475.35.238.9t-.813.475q-.65-.075-1.312.013t-1.313.337q-1.5-.575-3.088-.262t-2.787 1.512t-1.513 2.788t.263 3.087q-.15.4-.25.8t-.125.825q-.025.35-.262.613T9.15 20zm11.5 2.375q-1.05.725-2.312.613t-2.163-1.013t-1.012-2.162t.612-2.313q-.725-1.05-.612-2.312t1.012-2.163t2.163-1.012t2.312.612q1.05-.725 2.313-.612t2.162 1.012t1.013 2.163t-.613 2.312q.725 1.05.613 2.313t-1.013 2.162t-2.162 1.013t-2.313-.613m0-3.625q.525 0 .888-.363t.362-.887t-.363-.888t-.887-.362t-.888.363t-.362.887t.363.888t.887.362"/></svg>