<svg xmlns="http://www.w3.org/2000/svg" viewBox="0 0 24 24" width="24" height="24"><path fill="currentColor" d="M1 12.025q0-.5.225-.925t.625-.7l5-3.575q.275-.2.563-.288T8 6.45t.588.088t.562.287l5 3.575q.4.275.625.7t.225.925V19q0 .825-.587 1.413T13 21h-1q-.825 0-1.412-.587T10 19v-2.5q0-.625-.437-1.062T8.5 15h-1q-.625 0-1.062.438T6 16.5V19q0 .825-.587 1.413T4 21H3q-.825 0-1.412-.587T1 19zM23 5v14q0 .825-.587 1.413T21 21h-3q-.425 0-.712-.288T17 20v-8.975q0-.5-.213-.925t-.612-.7L10.95 5.65q-.325-.25-.525-.6t-.2-.7q0-.625.4-.987T11.7 3H21q.825 0 1.413.588T23 5m-5.5 4h1q.2 0 .35-.15T19 8.5v-1q0-.2-.15-.35T18.5 7h-1q-.2 0-.35.15T17 7.5v1q0 .2.15.35t.35.15m0 4h1q.2 0 .35-.15t.15-.35v-1q0-.2-.15-.35T18.5 11h-1q-.2 0-.35.15t-.15.35v1q0 .2.15.35t.35.15m0 4h1q.2 0 .35-.15t.15-.35v-1q0-.2-.15-.35T18.5 15h-1q-.2 0-.35.15t-.15.35v1q0 .2.15.35t.35.15"/></svg>