<svg xmlns="http://www.w3.org/2000/svg" viewBox="0 0 24 24" width="24" height="24"><path fill="currentColor" d="M7 8q-.825 0-1.412-.587T5 6t.588-1.412T7 4t1.413.588T9 6t-.587 1.413T7 8M4 22q-.825 0-1.412-.587T2 20v-7q0-.425.288-.712T3 12h2v-.75q0-.95.65-1.6T7.25 9q.5 0 .925.2t.775.55l1.4 1.55q.175.2.375.375t.425.325H21q.425 0 .713.288T22 13v7q0 .825-.587 1.413T20 22zm15.025-12q-.4 0-.663-.275t-.237-.675q.025-.55-.188-1.038t-.587-.862q-.65-.65-.962-1.475t-.338-1.7q0-.4.263-.687T16.975 3t.675.288t.25.687q-.025.5.163.988t.537.837q.65.65.988 1.475T19.95 9q0 .425-.262.713t-.663.287m-4 0q-.4 0-.662-.275t-.238-.675q.025-.55-.187-1.038t-.588-.862q-.65-.65-.962-1.475t-.338-1.7q0-.4.263-.687T12.975 3t.663.275t.237.675q-.025.525.163 1t.562.85q.65.65.988 1.475T15.95 9q0 .425-.262.713t-.663.287M17 20h2v-6h-2zm-4 0h2v-6h-2zm-4 0h2v-6H9zm-4 0h2v-6H5z"/></svg>