<svg xmlns="http://www.w3.org/2000/svg" viewBox="0 0 24 24" width="24" height="24"><path fill="currentColor" d="M7 20q-.825 0-1.412-.587T5 18v-7.15l-2 1.525q-.35.25-.75.213T1.6 12.2t-.2-.75t.4-.65l8.975-6.875q.275-.2.588-.3t.637-.1t.638.1t.587.3L16 6.05V5.5q0-.625.438-1.062T17.5 4t1.063.438T19 5.5v2.85l3.2 2.45q.325.25.388.65t-.188.75t-.65.388t-.75-.213l-2-1.525V18q0 .825-.587 1.413T17 20h-1q-.825 0-1.412-.587T14 18v-2q0-.825-.587-1.412T12 14t-1.412.588T10 16v2q0 .825-.587 1.413T8 20zm3-9.975h4q0-.8-.6-1.313T12 8.2t-1.4.513t-.6 1.312"/></svg>