<svg xmlns="http://www.w3.org/2000/svg" viewBox="0 0 24 24" width="24" height="24"><path fill="currentColor" d="M5 22q-.825 0-1.412-.587T3 20v-3.8q0-.35.125-.7t.375-.625l1.55-1.75q.275-.325.713-.337t.737.287q.275.275.3.675t-.25.7L5.175 16h13.65L17.5 14.5q-.275-.3-.25-.7t.3-.675q.3-.3.738-.288t.712.338l1.5 1.7q.25.275.375.625t.125.7V20q0 .825-.587 1.413T19 22zm5.6-7.6l-3.475-3.525Q6.55 10.3 6.55 9.45t.575-1.425l4.9-4.9q.575-.575 1.425-.575t1.425.575L18.4 6.6q.575.575.588 1.412t-.563 1.413l-5 5q-.575.575-1.412.563T10.6 14.4M17 8l-3.55-3.5L8.5 9.45l3.55 3.5z"/></svg>