<svg xmlns="http://www.w3.org/2000/svg" viewBox="0 0 24 24" width="24" height="24"><path fill="currentColor" d="M0 14.25v-4.5q0-.325.213-.537T.75 9t.538.213t.212.537V11h2V9.75q0-.325.213-.537T4.25 9t.538.213T5 9.75v4.5q0 .325-.213.538T4.25 15t-.537-.213t-.213-.537V12.5h-2v1.75q0 .325-.213.538T.75 15t-.537-.213T0 14.25m7.75 0V10.5h-1q-.325 0-.537-.213T6 9.75t.213-.537T6.75 9h3.5q.325 0 .538.213T11 9.75t-.213.538t-.537.212h-1v3.75q0 .325-.213.538T8.5 15t-.537-.213t-.213-.537m4.25 0V10q0-.425.288-.712T13 9h4.5q.425 0 .713.288T18.5 10v4.25q0 .325-.213.538T17.75 15t-.537-.213T17 14.25V10.5h-1v2.75q0 .325-.213.538T15.25 14t-.537-.213t-.213-.537V10.5h-1v3.75q0 .325-.213.538T12.75 15t-.537-.213T12 14.25m8.75.75q-.325 0-.537-.213T20 14.25v-4.5q0-.325.213-.537T20.75 9t.538.213t.212.537v3.75h1.75q.325 0 .538.213t.212.537t-.213.538t-.537.212z"/></svg>