<svg xmlns="http://www.w3.org/2000/svg" viewBox="0 0 24 24" width="24" height="24"><path fill="currentColor" d="M1 14.25v-4.5q0-.325.213-.537T1.75 9t.538.213t.212.537V11h2V9.75q0-.325.213-.537T5.25 9t.538.213T6 9.75v4.5q0 .325-.213.538T5.25 15t-.537-.213t-.213-.537V12.5h-2v1.75q0 .325-.213.538T1.75 15t-.537-.213T1 14.25m7.5 0V10.5h-.75q-.325 0-.537-.213T7 9.75t.213-.537T7.75 9h3q.325 0 .538.213t.212.537t-.213.538t-.537.212H10v3.75q0 .325-.213.538T9.25 15t-.537-.213t-.213-.537m5.5 0V10.5h-.75q-.325 0-.537-.213T12.5 9.75t.213-.537T13.25 9h3q.325 0 .538.213T17 9.75t-.213.538t-.537.212h-.75v3.75q0 .325-.213.538T14.75 15t-.537-.213T14 14.25m4 0v-4.5q0-.325.213-.537T18.75 9h2.75q.6 0 1.05.45T23 10.5v1q0 .6-.45 1.05T21.5 13h-2v1.25q0 .325-.213.538T18.75 15t-.537-.213T18 14.25m1.5-2.75h2v-1h-2z"/></svg>