<svg xmlns="http://www.w3.org/2000/svg" viewBox="0 0 24 24" width="24" height="24"><path fill="currentColor" d="M12.35 21q-.75 0-1.45-.288T9.625 19.9L2.6 13.35q-.275-.25-.313-.612t.163-.663l4.375-7q.275-.45.8-.587t.975.137Q10.15 5.6 11.425 7t1.95 2.9q.9-.95 1.988-1.525T18.4 7.3q.675-.2 1.238-.362t1.062-.363q.475-.2.888.075t.412.775v7.125q0 .5-.25.963t-.675.737L14.5 20.375q-.475.3-1.012.463T12.35 21M10 16q.425 0 .713-.288T11 15v-.1q0-.05-.025-.1q.425 0 .725-.288t.3-.712t-.288-.712T11 12.8q-.2 0-.387.088t-.313.212l-2.575-2.9q.125-.125.2-.312T8 9.5q0-.425-.288-.712T7 8.5t-.712.288T6 9.5v.1q0 .05.025.1q-.425 0-.725.288T5 10.7t.288.713T6 11.7q.225 0 .413-.087t.312-.238l2.575 2.9q-.15.125-.225.325T9 15q0 .425.288.713T10 16"/></svg>