<svg xmlns="http://www.w3.org/2000/svg" viewBox="0 0 24 24" width="24" height="24"><path fill="currentColor" d="M18 13q.425 0 .713-.288T19 12t-.288-.712T18 11h-3q-.425 0-.712.288T14 12t.288.713T15 13zm0-3q.425 0 .713-.288T19 9t-.288-.712T18 8h-3q-.425 0-.712.288T14 9t.288.713T15 10zm-9 3q-.9 0-1.625.163t-1.275.512q-.525.325-.8.738t-.275.887q0 .3.225.5t.55.2h6.4q.325 0 .55-.213t.225-.537q0-.425-.275-.825t-.8-.75q-.55-.35-1.275-.513T9 13m0-1q.825 0 1.412-.587T11 10t-.587-1.412T9 8t-1.412.588T7 10t.588 1.413T9 12m-5 8q-.825 0-1.412-.587T2 18V6q0-.825.588-1.412T4 4h16q.825 0 1.413.588T22 6v12q0 .825-.587 1.413T20 20z"/></svg>