<svg xmlns="http://www.w3.org/2000/svg" viewBox="0 0 24 24" width="24" height="24"><path fill="currentColor" d="M5 21q-.825 0-1.412-.587T3 19V5q0-.825.588-1.412T5 3h7.375q.5 0 .763.413t.087.887q-.125.425-.175.85T13 6q0 2.5 1.75 4.25T19 12q.2 0 .425-.012t.425-.063q.45-.05.8.225t.35.7V19q0 .825-.587 1.413T19 21zm2-4h10q.3 0 .45-.275t-.05-.525l-2.75-3.675q-.15-.2-.4-.2t-.4.2L11.25 16L9.4 13.525q-.15-.2-.4-.2t-.4.2l-2 2.675q-.2.25-.05.525T7 17m12-7q-.425 0-.712-.288T18 9V5.825l-.9.875q-.275.275-.687.288T15.7 6.7q-.275-.275-.275-.7t.275-.7l2.6-2.6q.15-.15.325-.225T19 2.4t.375.075t.325.225l2.6 2.6q.275.275.288.688T22.3 6.7q-.275.275-.7.275t-.7-.275l-.9-.875V9q0 .425-.287.713T19 10"/></svg>