<svg xmlns="http://www.w3.org/2000/svg" viewBox="0 0 24 24" width="24" height="24"><path fill="currentColor" d="M4 20q-.825 0-1.412-.587T2 18V6q0-.825.588-1.412T4 4h16q.825 0 1.413.588T22 6v12q0 .825-.587 1.413T20 20zm3-8q.425 0 .713-.288T8 11t-.288-.712T7 10t-.712.288T6 11t.288.713T7 12m4 0q.425 0 .713-.288T12 11t-.288-.712T11 10t-.712.288T10 11t.288.713T11 12m4 0q.425 0 .713-.288T16 11t-.288-.712T15 10t-.712.288T14 11t.288.713T15 12m0 4q.425 0 .713-.288T16 15t-.288-.712T15 14t-.712.288T14 15t.288.713T15 16"/></svg>