<svg xmlns="http://www.w3.org/2000/svg" viewBox="0 0 24 24" width="24" height="24"><path fill="currentColor" d="M13 17.05q1.1-.525 2.213-.788T17.5 16q.9 0 1.763.15T21 16.6V6.7q-.825-.35-1.713-.525T17.5 6q-1.175 0-2.325.3T13 7.2zm-1 2.425q-.35 0-.663-.088t-.587-.237q-.975-.575-2.05-.862T6.5 18q-1.05 0-2.062.275T2.5 19.05q-.525.275-1.012-.025T1 18.15V6.1q0-.275.138-.525T1.55 5.2q1.175-.575 2.413-.888T6.5 4q1.45 0 2.838.375T12 5.5q1.275-.75 2.663-1.125T17.5 4q1.3 0 2.538.313t2.412.887q.275.125.413.375T23 6.1v12.05q0 .575-.487.875t-1.013.025q-.925-.5-1.937-.775T17.5 18q-1.125 0-2.2.288t-2.05.862q-.275.15-.587.238t-.663.087"/></svg>