<svg xmlns="http://www.w3.org/2000/svg" viewBox="0 0 24 24" width="24" height="24"><path fill="currentColor" d="M5 21q-.825 0-1.412-.587T3 19V5q0-.825.588-1.412T5 3h14q.825 0 1.413.588T21 5v4.025q0 .425-.288.7T20 10t-.712-.288T19 9V5H5v9h3.55q.275 0 .513.138t.362.362q.225.375.538.688t.712.512q.2.1.3.288t.075.387q-.075.8.025 1.588t.375 1.537q.2.55-.05 1.025t-.75.475zM8 8.75h8q.425 0 .713-.288T17 7.75t-.288-.712T16 6.75H8q-.425 0-.712.288T7 7.75t.288.713T8 8.75m0 3.5h5.6q.425 0 .713-.288t.287-.712t-.287-.712t-.713-.288H8q-.425 0-.712.288T7 11.25t.288.713t.712.287M20 22q-.825 0-1.412-.587T18 19.975l-2.025-1.225q-.225.125-.462.188T15 19q-.825 0-1.412-.587T13 17t.588-1.412T15 15q.275 0 .513.063t.462.187L18 14.05q0-.85.588-1.437T20 12.025t1.413.588t.587 1.412t-.587 1.413t-1.413.587q-.275 0-.513-.062t-.462-.188L17 16.975v.075l2.025 1.2q.225-.125.463-.187T20 18q.825 0 1.413.588T22 20t-.587 1.413T20 22"/></svg>