<svg xmlns="http://www.w3.org/2000/svg" viewBox="0 0 24 24" width="24" height="24"><path fill="currentColor" d="M16.725 19.5q-.3-.125-.562-.262t-.538-.338l-1.075.325q-.175.05-.325-.012t-.25-.213l-.6-1q-.1-.15-.05-.325t.175-.3l.825-.725q-.05-.3-.05-.65t.05-.65l-.825-.725q-.125-.125-.175-.3t.05-.325l.6-1q.1-.15.25-.212t.325-.013l1.075.325q.275-.2.538-.337t.562-.263l.225-1.1q.05-.175.163-.288t.312-.112h1.2q.2 0 .313.113t.162.287l.225 1.1q.3.125.563.263t.537.337l1.075-.325q.175-.05.325.013t.25.212l.6 1q.1.15.05.325t-.175.3l-.825.725q.05.3.05.65t-.05.65l.825.725q.125.125.175.3t-.05.325l-.6 1q-.1.15-.25.213t-.325.012l-1.075-.325q-.275.2-.537.338t-.563.262l-.225 1.1q-.05.175-.162.288t-.313.112h-1.2q-.2 0-.312-.112t-.163-.288zm1.3-1.5q.825 0 1.413-.587T20.025 16t-.587-1.412T18.025 14t-1.412.588T16.025 16t.588 1.413t1.412.587M5 20q-.825 0-1.412-.587T3 18V4q0-.825.588-1.412T5 2h14q.825 0 1.413.588T21 4v4.025q0 .425-.288.7T20 9t-.712-.288T19 8V4H5v9h3.55q.3 0 .525.138t.35.362q.275.45.613.75t.712.475q.15.075.25.225t.075.325q-.1.95.038 1.862t.537 1.763q.175.375-.025.738t-.6.362z"/></svg>