<svg xmlns="http://www.w3.org/2000/svg" viewBox="0 0 24 24" width="24" height="24"><path fill="currentColor" d="M6 20q-.425 0-.712-.288T5 19v-6H4q-.425 0-.712-.288T3 12t.288-.712T4 11h4q.425 0 .713.288T9 12t-.288.713T8 13H7v6q0 .425-.288.713T6 20M6 9q-.425 0-.712-.288T5 8V5q0-.425.288-.712T6 4t.713.288T7 5v3q0 .425-.288.713T6 9m4 0q-.425 0-.712-.288T9 8t.288-.712T10 7h1V5q0-.425.288-.712T12 4t.713.288T13 5v2h1q.425 0 .713.288T15 8t-.288.713T14 9zm2 11q-.425 0-.712-.288T11 19v-7q0-.425.288-.712T12 11t.713.288T13 12v7q0 .425-.288.713T12 20m6 0q-.425 0-.712-.288T17 19v-2h-1q-.425 0-.712-.288T15 16t.288-.712T16 15h4q.425 0 .713.288T21 16t-.288.713T20 17h-1v2q0 .425-.288.713T18 20m0-7q-.425 0-.712-.288T17 12V5q0-.425.288-.712T18 4t.713.288T19 5v7q0 .425-.288.713T18 13"/></svg>