<svg xmlns="http://www.w3.org/2000/svg" viewBox="0 0 24 24" width="24" height="24"><path fill="currentColor" d="M6.65 8.15q.15.15.35.15t.35-.15l1.3-1.3q.15-.15.15-.35t-.15-.35l-1.3-1.3Q7.2 4.7 7 4.7t-.35.15l-1.3 1.3q-.15.15-.15.35t.15.35zM16.5 7q.625 0 1.063-.437T18 5.5t-.437-1.062T16.5 4t-1.062.438T15 5.5t.438 1.063T16.5 7M6 23q-.425 0-.712-.288T5 22v-1.1q0-.875.488-1.625t1.287-1.125q1.225-.575 2.55-.862T12 17t2.675.288t2.55.862q.8.375 1.288 1.125T19 20.9V22q0 .425-.287.713T18 23zm6-7q-1.45 0-2.475-1.025T8.5 12.5t1.025-2.475T12 9t2.475 1.025T15.5 12.5t-1.025 2.475T12 16M2 3q0-.825.588-1.412T4 1h16q.825 0 1.413.588T22 3v9q0 .825-.587 1.413T20 14h-2.125q-.425 0-.687-.325t-.213-.75Q17 12.7 17 12.463T16.975 12q-.2-1.9-1.612-3.2T12 7.5T8.637 8.8T7.025 12Q7 12.225 7 12.463t.025.462q.05.425-.213.75T6.126 14H4q-.825 0-1.412-.587T2 12z"/></svg>