<svg xmlns="http://www.w3.org/2000/svg" viewBox="0 0 24 24" width="24" height="24"><path fill="currentColor" d="M12 23q-2.275 0-4.275-.862t-3.5-2.363t-2.362-3.5T1 12t.863-4.275t2.362-3.5t3.5-2.362T12 1t4.275.863t3.5 2.362t2.363 3.5T23 12t-.862 4.275t-2.363 3.5t-3.5 2.363T12 23m0-4q2.925 0 4.963-2.037T19 12t-2.037-4.962T12 5q-.725 0-1.35.313T9.6 6.2q-.7 0-1.375.175T7.05 7.05t-.725 1.175T6.2 9.6q-.575.425-.887 1.05T5 12t.313 1.35t.887 1.05q-.1.7.125 1.375t.725 1.175t1.175.738T9.6 17.8q.425.575 1.05.888T12 19m0-2q-.55 0-.85-.462t-.65-.888q-.55.075-1.1.188t-.95-.288t-.287-.95t.187-1.1q-.425-.325-.887-.637T7 12t.463-.85t.887-.65q-.075-.55-.187-1.1t.287-.95t.95-.287t1.1.187q.325-.425.637-.887T12 7zm2.65-1.35l-.7-.7q-.15-.15-.15-.362t.15-.363l.7-.7q.15-.15.35-.15t.35.15l.7.7q.15.15.15.363t-.15.362l-.7.7q-.15.15-.35.15t-.35-.15m-.775-6.125q-.175-.175-.15-.4t.225-.35q.425-.175.85-.1t.75.425q.35.325.438.763t-.088.862q-.1.225-.337.25t-.438-.175z"/></svg>