<svg xmlns="http://www.w3.org/2000/svg" viewBox="0 0 24 24" width="24" height="24"><path fill="currentColor" d="M23 12q0 2.925-2.037 4.963T16 19q-.675 0-1.312-.125t-1.238-.35Q14.9 17.3 15.7 15.6t.8-3.6t-.8-3.6t-2.25-2.925q.6-.225 1.238-.35T16 5q2.925 0 4.963 2.038T23 12m-11 5.45q-.175 0-.35-.062t-.3-.188q-1.15-.95-1.75-2.325T9 12t.6-2.875T11.35 6.8q.125-.125.3-.187T12 6.55t.35.063t.3.187q1.15.95 1.75 2.325T15 12t-.6 2.875t-1.75 2.325q-.125.125-.3.188t-.35.062M1 12q0-1.4.525-2.675T3.05 7.05q1.125-1.125 2.638-1.663T8.8 5.05q.425.05.675.363t.2.737t-.375.675t-.75.2q-1.125-.125-2.2.263T4.475 8.475q-.7.7-1.087 1.613T3 12t.388 1.913t1.087 1.612q.8.8 1.875 1.188t2.2.262q.425-.05.738.2t.362.675q.05.4-.187.725t-.663.375q-1.6.2-3.113-.337T3.05 16.95q-1-1-1.525-2.275T1 12"/></svg>