<svg xmlns="http://www.w3.org/2000/svg" viewBox="0 0 24 24" width="24" height="24"><path fill="currentColor" d="m14.3 11.475l-7.05-7.05q-.125-.125-.187-.275T7 3.85q0-.325.225-.588t.6-.262H16q.425 0 .713.287T17 4q0 .4-.363.563T16 5v5.75q0 .675-.612.938t-1.088-.213M11 22v-6H7.4q-.625 0-1-.437t-.375-.988q0-.275.113-.55T6.5 13.5L8 12v-1.15L2.1 4.9q-.275-.275-.288-.687T2.1 3.5q.275-.275.7-.275t.7.275l16.975 16.975q.3.3.288.713t-.313.712q-.3.275-.7.288t-.7-.288l-5.9-5.9H13v6q0 .425-.288.713T12 23t-.712-.288T11 22"/></svg>