<svg xmlns="http://www.w3.org/2000/svg" viewBox="0 0 24 24" width="24" height="24"><path fill="currentColor" d="M7 15q-1.25 0-2.125-.875T4 12t.875-2.125T7 9t2.125.875T10 12t-.875 2.125T7 15m0 3q1.925 0 3.475-1.1T12.65 14H13l1.3 1.3q.15.15.325.212t.375.063t.375-.062t.325-.213L17 14l1.75 1.375q.15.125.338.187t.387.038t.363-.112t.287-.238l2.25-2.575q.125-.15.188-.325t.062-.375t-.075-.362t-.2-.288L21.325 10.3q-.15-.15-.337-.225T20.6 10h-7.95q-.6-1.7-2.113-2.85T7 6Q4.5 6 2.75 7.75T1 12t1.75 4.25T7 18"/></svg>