<svg xmlns="http://www.w3.org/2000/svg" viewBox="0 0 24 24" width="24" height="24"><path fill="currentColor" d="M19.15 21.8L2.175 4.85q-.3-.3-.287-.712t.312-.713t.713-.3t.712.3L20.575 20.4q.3.3.3.7t-.3.7t-.712.3t-.713-.3M16.175 16l-2-2H9q-.425 0-.712.288T8 15t.288.713T9 16zM4 19q-.825 0-1.412-.587T2 17V7q0-.825.588-1.412T4 5h1.175l14 14zm2-9q.425 0 .713-.288T7 9t-.288-.712T6 8t-.712.288T5 9t.288.713T6 10m9 0q.425 0 .713-.288T16 9t-.288-.712T15 8t-.712.288T14 9t.288.713T15 10m3 0q.425 0 .713-.288T19 9t-.288-.712T18 8t-.712.288T17 9t.288.713T18 10M6 13q.425 0 .713-.288T7 12t-.288-.712T6 11t-.712.288T5 12t.288.713T6 13m3 0q.425 0 .713-.288T10 12t-.288-.712T9 11t-.712.288T8 12t.288.713T9 13m9 0q.425 0 .713-.288T19 12t-.288-.712T18 11t-.712.288T17 12t.288.713T18 13m4-6v9.6q0 .35-.175.575t-.45.35t-.55.075t-.525-.3l-4.6-4.6q.125-.125.213-.312T16 12q0-.425-.288-.712T15 11q-.2 0-.387.088t-.313.212l-1.6-1.6q.125-.125.213-.312T13 9q0-.425-.288-.712T12 8q-.2 0-.387.075t-.313.2L9.725 6.7q-.25-.25-.287-.525t.087-.55t.35-.45T10.45 5H20q.825 0 1.413.587T22 7"/></svg>