<svg xmlns="http://www.w3.org/2000/svg" viewBox="0 0 24 24" width="24" height="24"><path fill="currentColor" d="M4 22q-.825 0-1.412-.587T2 20V10q0-.825.588-1.412T4 8h16q.825 0 1.413.588T22 10v10q0 .825-.587 1.413T20 22zm5-3h6q.425 0 .713-.288T16 18t-.288-.712T15 17H9q-.425 0-.712.288T8 18t.288.713T9 19m.375-15H10q.425 0 .713.288T11 5t-.288.713T10 6H7q-.425 0-.712-.288T6 5V2q0-.425.288-.712T7 1t.713.288T8 2v.525Q8.8 1.8 9.825 1.4T12 1q2 0 3.575 1.188t2.15 3.062q.1.325-.175.538T16.875 6t-.75-.15t-.5-.5q-.5-1.05-1.463-1.7T12 3q-.75 0-1.425.263T9.375 4M6 13q.425 0 .713-.288T7 12t-.288-.712T6 11t-.712.288T5 12t.288.713T6 13m3 0q.425 0 .713-.288T10 12t-.288-.712T9 11t-.712.288T8 12t.288.713T9 13m3 0q.425 0 .713-.288T13 12t-.288-.712T12 11t-.712.288T11 12t.288.713T12 13m3 0q.425 0 .713-.288T16 12t-.288-.712T15 11t-.712.288T14 12t.288.713T15 13m3 0q.425 0 .713-.288T19 12t-.288-.712T18 11t-.712.288T17 12t.288.713T18 13M6 16q.425 0 .713-.288T7 15t-.288-.712T6 14t-.712.288T5 15t.288.713T6 16m3 0q.425 0 .713-.288T10 15t-.288-.712T9 14t-.712.288T8 15t.288.713T9 16m3 0q.425 0 .713-.288T13 15t-.288-.712T12 14t-.712.288T11 15t.288.713T12 16m3 0q.425 0 .713-.288T16 15t-.288-.712T15 14t-.712.288T14 15t.288.713T15 16m2-1q0 .425.288.713T18 16t.713-.288T19 15t-.288-.712T18 14t-.712.288T17 15"/></svg>