<svg xmlns="http://www.w3.org/2000/svg" viewBox="0 0 24 24" width="24" height="24"><path fill="currentColor" d="M3 20q-.825 0-1.412-.587T1 18V6q0-.825.588-1.412T3 4h18q.825 0 1.413.588T23 6v12q0 .825-.587 1.413T21 20zm6-3h6q.425 0 .713-.288T16 16t-.288-.712T15 15H9q-.425 0-.712.288T8 16t.288.713T9 17m-3-7q.425 0 .713-.288T7 9t-.288-.712T6 8t-.712.288T5 9t.288.713T6 10m4 0q.425 0 .713-.288T11 9t-.288-.712T10 8t-.712.288T9 9t.288.713T10 10m4 0q.425 0 .713-.288T15 9t-.288-.712T14 8t-.712.288T13 9t.288.713T14 10m4 0q.425 0 .713-.288T19 9t-.288-.712T18 8t-.712.288T17 9t.288.713T18 10M6 13.5q.425 0 .713-.288T7 12.5t-.288-.712T6 11.5t-.712.288T5 12.5t.288.713T6 13.5m4 0q.425 0 .713-.288T11 12.5t-.288-.712T10 11.5t-.712.288T9 12.5t.288.713t.712.287m4 0q.425 0 .713-.288T15 12.5t-.288-.712T14 11.5t-.712.288T13 12.5t.288.713t.712.287m4 0q.425 0 .713-.288T19 12.5t-.288-.712T18 11.5t-.712.288T17 12.5t.288.713t.712.287"/></svg>