<svg xmlns="http://www.w3.org/2000/svg" viewBox="0 0 24 24" width="24" height="24"><path fill="currentColor" d="M18.175 19H15q-.425 0-.712-.288T14 18t.288-.712T15 17h3.175l-.9-.9Q17 15.825 17 15.413t.3-.713q.275-.275.7-.275t.7.275l2.6 2.6q.3.3.3.7t-.3.7l-2.6 2.6q-.275.275-.687.288T17.3 21.3q-.275-.275-.275-.7t.275-.7zM6 10q.425 0 .713-.288T7 9t-.288-.712T6 8t-.712.288T5 9t.288.713T6 10m3 0q.425 0 .713-.288T10 9t-.288-.712T9 8t-.712.288T8 9t.288.713T9 10m3 0q.425 0 .713-.288T13 9t-.288-.712T12 8t-.712.288T11 9t.288.713T12 10m3 0q.425 0 .713-.288T16 9t-.288-.712T15 8t-.712.288T14 9t.288.713T15 10m3 0q.425 0 .713-.288T19 9t-.288-.712T18 8t-.712.288T17 9t.288.713T18 10M6 13q.425 0 .713-.288T7 12t-.288-.712T6 11t-.712.288T5 12t.288.713T6 13m3 0q.425 0 .713-.288T10 12t-.288-.712T9 11t-.712.288T8 12t.288.713T9 13m3 0q.425 0 .713-.288T13 12t-.288-.712T12 11t-.712.288T11 12t.288.713T12 13m3-2q-.425 0-.712.288T14 12q0 .35.2.625t.55.35q.275-.175.563-.325t.612-.275q.075-.25.05-.488t-.15-.437t-.337-.325T15 11M4 19q-.825 0-1.412-.587T2 17V7q0-.825.588-1.412T4 5h16q.825 0 1.413.588T22 7v4.95q0 .5-.437.725t-.888-.025q-.4-.2-.825-.338T19 12.1V12q0-.425-.288-.713T18 11t-.712.288T17 12v.1q-1.025.15-1.9.663T13.55 14H9q-.425 0-.712.288T8 15t.288.713T9 16h3.35q-.175.5-.25 1.025t-.075 1.05q0 .375-.25.65t-.6.275z"/></svg>