<svg xmlns="http://www.w3.org/2000/svg" viewBox="0 0 24 24" width="24" height="24"><path fill="currentColor" d="M15 21q-.425 0-.712-.288T14 20v-1.25q0-.4.163-.763t.437-.637l4.925-4.925q.225-.225.5-.325t.55-.1q.3 0 .575.113t.5.337l.925.925q.2.225.313.5t.112.55t-.1.563t-.325.512l-4.925 4.925q-.275.275-.637.425t-.763.15zm5.575-5.6l.925-.975l-.925-.925l-.95.95zM6 10q-1.25 0-2.125-.888T3 7q0-1.25.875-2.125T6 4t2.125.875T9 7q0 1.225-.875 2.113T6 10M2.775 20q-.575 0-.862-.475t-.038-.975L4.6 13.1q.25-.5.713-.8T6.35 12q.6 0 1.1.313t.725.887q.05.15.337.825t.338.825t.225.137t.225-.162l2.15-7.175q.35-1.2 1.338-1.925T15.025 5q1.225 0 2.188.712t1.337 1.863l.35 1.05q.2.55.075 1.1t-.55.975l-5.55 5.525q-.425.425-.65.975T12 18.35V19q0 .425-.288.713T11 20z"/></svg>