<svg xmlns="http://www.w3.org/2000/svg" viewBox="0 0 24 24" width="24" height="24"><path fill="currentColor" d="M21.2 22.65q-.3.3-.712.3t-.713-.3L1.375 4.225q-.3-.3-.3-.712t.3-.713t.713-.3t.712.3l18.425 18.425q.3.3.288.713t-.313.712M6 10q-1.25 0-2.125-.888T3 7q0-.8.4-1.475T4.45 4.45l4.1 4.1q-.4.65-1.075 1.05T6 10m15 6.975q-.275.175-.612.163t-.613-.288L11.65 8.775q-.2-.2-.262-.462t.012-.538l.05-.125q.35-1.2 1.338-1.925T15.025 5q1.225 0 2.188.713t1.337 1.862l2.875 8.225q.125.375-.012.688t-.413.487M2.775 20q-.575 0-.863-.475t-.037-.975L4.6 13.1q.25-.5.713-.8T6.35 12q.6 0 1.1.313t.725.887l.675 1.65q.05.15.225.138t.225-.163l1.275-4.25L20 20z"/></svg>