<svg xmlns="http://www.w3.org/2000/svg" viewBox="0 0 24 24" width="24" height="24"><path fill="currentColor" d="M4.925 13.825q-.175.975-.537 1.913T3.325 17.35q-.2.2-.462.188T2.4 17.35t-.187-.425t.187-.45q.75-.95 1.113-2.087t.362-2.338v-1.4q0-.2.15-.35t.35-.15H11q.2 0 .35.15t.15.35v2.675q0 .2-.15.35t-.35.15zm.125-.9h5.275V11.05H5.05zm2.6-5.55Q6.7 8.45 5.525 9.288t-2.5 1.437q-.25.125-.512.05T2.1 10.5q-.125-.2-.038-.4t.313-.325q1.25-.6 2.35-1.4t2.05-1.825q.15-.175.375-.238t.45-.062t.45.063t.4.237q1 .95 2.163 1.675T13 9.575q.25.125.35.375t-.05.45q-.175.225-.45.262t-.55-.087q-1.275-.65-2.463-1.425T7.65 7.375M5.425 17.75q-.225 0-.387-.162t-.163-.388v-2.45q0-.2.15-.35t.35-.15h6q.2 0 .35.15t.15.35v2.45q0 .225-.162.388t-.388.162t-.387-.162t-.163-.388v-1.975h-4.8V17.2q0 .225-.162.388t-.388.162M9.6 9.675H5.775q-.2 0-.325-.125t-.125-.325t.125-.325t.325-.125H9.6q.2 0 .325.125t.125.325t-.125.325t-.325.125M4.4 12.4v-.85h6.675v.85zm.825 4.975v-.95h6.05v.95zM17.55 15.65q.7 0 1.363-.325t1.212-.925v-2.65q-.575.075-1.062.175t-.913.225q-1.125.35-1.687.875T15.9 14.25q0 .65.45 1.025t1.2.375m-.575 1.7q-1.425 0-2.25-.812t-.825-2.213q0-1.3.825-2.125t2.65-1.325q.575-.15 1.263-.275t1.487-.225q-.05-1.175-.55-1.713t-1.55-.537q-.525 0-1.025.15t-1.175.5q-.3.175-.625.1t-.5-.375t-.075-.638t.4-.512q.775-.425 1.663-.687T18.5 6.4q1.775 0 2.7 1.1t.925 3.2v5.6q0 .35-.238.588t-.587.237h-.125q-.325 0-.55-.213t-.275-.512l-.05-.4q-.7.625-1.537.988t-1.788.362"/></svg>