<svg xmlns="http://www.w3.org/2000/svg" viewBox="0 0 24 24" width="24" height="24"><path fill="currentColor" d="M5.4 12.575q.65 0 1.113-.287t.462-.863t-.462-.875t-1.113-.3t-1.112.3t-.463.875t.463.863t1.112.287M2.425 8.8q-.225 0-.387-.162t-.163-.388t.163-.387t.387-.163h2.3v-.75q0-.275.188-.462t.462-.188t.463.188t.187.462v.75H8.35q.225 0 .388.163t.162.387t-.162.388t-.388.162zM5.4 13.675q-1.175 0-2.013-.587t-.837-1.663q0-1.1.838-1.675T5.4 9.175q1.2 0 2.038.575t.837 1.675t-.837 1.675t-2.038.575M4.575 17.7q-.425 0-.712-.287t-.288-.713v-1.85q0-.275.2-.462t.475-.188t.463.188t.187.462v1.75h6.05q.225 0 .388.163t.162.387t-.162.388t-.388.162zm5.775-2.625q-.275 0-.462-.187t-.188-.463v-7.5q0-.275.188-.45t.462-.175t.45.175t.175.45v3.125h1.175q.225 0 .388.163t.162.387t-.162.388t-.388.162H11v3.275q0 .275-.187.463t-.463.187m7.2.575q.7 0 1.363-.325t1.212-.925v-2.65q-.575.075-1.062.175t-.913.225q-1.125.35-1.687.875T15.9 14.25q0 .65.45 1.025t1.2.375m-.575 1.7q-1.425 0-2.25-.812t-.825-2.213q0-1.3.825-2.125t2.65-1.325q.575-.15 1.263-.275t1.487-.225q-.05-1.175-.55-1.713t-1.55-.537q-.525 0-1.025.15t-1.175.5q-.3.175-.625.1t-.5-.375t-.075-.638t.4-.512q.775-.425 1.663-.687T18.5 6.4q1.775 0 2.7 1.1t.925 3.2v5.6q0 .35-.238.588t-.587.237h-.125q-.325 0-.55-.213t-.275-.512l-.05-.4q-.7.625-1.537.988t-1.788.362"/></svg>