<svg xmlns="http://www.w3.org/2000/svg" viewBox="0 0 24 24" width="24" height="24"><path fill="currentColor" d="M2 11q0-2.925 2.038-4.962T9 4h6q2.925 0 4.963 2.038T22 11q0 2.575-1.65 4.525t-4.2 2.375q-.45.075-.8-.2T15 17t.338-.725t.787-.4q1.725-.4 2.8-1.763T20 11q0-2.075-1.463-3.537T15 6H9Q6.925 6 5.463 7.463T4 11t1.463 3.538T9 16h.175l-.9-.9Q8 14.825 8 14.413t.3-.713q.275-.275.7-.275t.7.275l2.6 2.6q.3.3.3.7t-.3.7l-2.6 2.6q-.275.275-.687.275T8.3 20.3Q8 20 8 19.588t.3-.713L9.175 18H9q-2.925 0-4.962-2.037T2 11"/></svg>