<svg xmlns="http://www.w3.org/2000/svg" viewBox="0 0 24 24" width="24" height="24"><path fill="currentColor" d="M11.975 21.95q-.875 0-1.737-.137t-1.663-.463q-.3-.1-.487-.35t-.188-.6q0-.425.288-.712T8.9 19.4l.35.05q.675.225 1.338.363t1.387.137q.425 0 .713.288t.287.712t-.287.713t-.713.287m4-1q-.425 0-.712-.287t-.288-.713v-4q0-.425.288-.712t.712-.288h4q.425 0 .713.288t.287.712t-.288.713t-.712.287h-1.6l2.1 2.1q.275.275.288.688t-.288.712q-.275.275-.7.275t-.7-.275l-2.1-2.1v1.6q0 .425-.288.713t-.712.287M5.625 19.3q-.2 0-.387-.087T4.925 19Q4.1 18.2 3.5 17.25t-.975-2.025q-.05-.1-.05-.35q0-.425.288-.712t.712-.288q.35 0 .6.2t.35.5q.3.875.775 1.625t1.125 1.4q.125.125.213.312t.087.388q0 .425-.288.713t-.712.287m15.35-6.35q-.425 0-.712-.288t-.288-.712q0-.725-.137-1.387t-.363-1.338q-.05-.1-.05-.35q0-.425.288-.712t.712-.288q.35 0 .6.188t.35.487q.325.8.463 1.663t.137 1.737q0 .425-.288.713t-.712.287M3.025 12q-.425 0-.712-.287T2.025 11v-.175q.15-1.125.525-2.2T3.525 6.6q.125-.2.35-.337t.5-.138q.425 0 .713.287t.287.713q0 .15-.05.3T5.2 7.7q-.5.775-.775 1.638t-.4 1.762q-.05.375-.325.638T3.025 12m15.3-5.4q-.2 0-.387-.088t-.313-.212q-.65-.65-1.4-1.125T14.6 4.4q-.3-.1-.5-.35t-.2-.6q0-.425.288-.712t.712-.288l.35.05q1.075.375 2.025.975t1.75 1.425q.125.125.213.313t.087.387q0 .425-.287.713t-.713.287M7.15 5.35q-.425 0-.713-.287T6.15 4.35q0-.275.138-.5t.337-.35q.95-.6 2.025-.975T10.85 2h.175q.425 0 .713.288t.287.712q0 .4-.262.675T11.125 4q-.9.125-1.763.4t-1.637.775Q7.6 5.25 7.45 5.3t-.3.05"/></svg>