<svg xmlns="http://www.w3.org/2000/svg" viewBox="0 0 24 24" width="24" height="24"><path fill="currentColor" d="M4 22q-.425 0-.712-.288T3 21t.288-.712T4 20h6q.425 0 .713.288T11 21t-.288.713T10 22zm13-1q-.825 0-1.412-.587T15 19h-3q-.425 0-.712-.288T11 18q-.05-2.25 1.4-3.9t3.6-2V3q0-.425.288-.712T17 2t.713.288T18 3v9.1q2.175.35 3.613 2T23 18q0 .425-.288.713T22 19h-3q0 .825-.575 1.413T17 21M7 19q-.425 0-.712-.288T6 18v-7H2q-.5 0-.788-.387T1.05 9.75l1.875-7q.1-.325.363-.537T3.9 2h6.225q.35 0 .613.213t.362.537l1.875 7q.125.475-.162.863t-.788.387H8v7q0 .425-.288.713T7 19"/></svg>