<svg xmlns="http://www.w3.org/2000/svg" viewBox="0 0 24 24" width="24" height="24"><path fill="currentColor" d="M7 17q-2.075 0-3.537-1.463T2 12t1.463-3.537T7 7h3q.425 0 .713.288T11 8t-.288.713T10 9H7q-1.25 0-2.125.875T4 12t.875 2.125T7 15h3q.425 0 .713.288T11 16t-.288.713T10 17zm2-4q-.425 0-.712-.288T8 12t.288-.712T9 11h6q.425 0 .713.288T16 12t-.288.713T15 13zm5 4q-.425 0-.712-.288T13 16t.288-.712T14 15h3q1.25 0 2.125-.875T20 12t-.875-2.125T17 9h-3q-.425 0-.712-.288T13 8t.288-.712T14 7h3q2.075 0 3.538 1.463T22 12t-1.463 3.538T17 17z"/></svg>