<svg xmlns="http://www.w3.org/2000/svg" viewBox="0 0 24 24" width="24" height="24"><path fill="currentColor" d="M5 20v-3.2q-.875-.3-1.437-1.062T3 14V7q0-.425.288-.712T4 6h4q.425 0 .713.288T9 7v7q0 .975-.562 1.738T7 16.8V20h1q.425 0 .713.288T9 21t-.288.713T8 22H4q-.425 0-.712-.288T3 21t.288-.712T4 20zm0-9h2V8H5zm8 11q-.825 0-1.412-.587T11 20v-9.55q0-.65.375-1.162t.975-.738l.95-.35q.35-.125.525-.362T14 7.25V3q0-.425.288-.712T15 2h3q.425 0 .713.288T19 3v4.25q0 .35.175.588t.525.362l.95.35q.6.225.975.738T22 10.45V20q0 .825-.587 1.413T20 22zm3-17h1V4h-1zm-3 7h7v-1.55l-.95-.35q-.95-.35-1.5-1.1T17 7.3V7h-1v.3q0 .95-.55 1.7t-1.5 1.1l-.95.35zm0 8h7v-2h-7z"/></svg>