<svg xmlns="http://www.w3.org/2000/svg" viewBox="0 0 24 24" width="24" height="24"><path fill="currentColor" d="M8 9q-.425 0-.712-.288T7 8t.288-.712T8 7h12q.425 0 .713.288T21 8t-.288.713T20 9zm0 4q-.425 0-.712-.288T7 12t.288-.712T8 11h12q.425 0 .713.288T21 12t-.288.713T20 13zm0 4q-.425 0-.712-.288T7 16t.288-.712T8 15h12q.425 0 .713.288T21 16t-.288.713T20 17zM4 9q-.425 0-.712-.288T3 8t.288-.712T4 7t.713.288T5 8t-.288.713T4 9m0 4q-.425 0-.712-.288T3 12t.288-.712T4 11t.713.288T5 12t-.288.713T4 13m0 4q-.425 0-.712-.288T3 16t.288-.712T4 15t.713.288T5 16t-.288.713T4 17"/></svg>