<svg xmlns="http://www.w3.org/2000/svg" viewBox="0 0 24 24" width="24" height="24"><path fill="currentColor" d="M4 20V5q0-.825.588-1.412T6 3h6q.825 0 1.413.588T14 5v7h1q.825 0 1.413.588T17 14v4.5q0 .425.288.713T18 19.5t.713-.288T19 18.5v-7.2q-.225.125-.475.163T18 11.5q-1.05 0-1.775-.725T15.5 9q0-.8.438-1.437T17.1 6.65l-1.575-1.575Q15.3 4.85 15.3 4.55t.225-.525q.2-.2.513-.213t.537.188l3.175 3.1q.375.375.563.875T20.5 9v9.5q0 1.05-.725 1.775T18 21t-1.775-.725T15.5 18.5v-5H14V20q0 .425-.288.713T13 21H5q-.425 0-.712-.288T4 20m2-10h6V5H6zm12 0q.425 0 .713-.288T19 9t-.288-.712T18 8t-.712.288T17 9t.288.713T18 10"/></svg>