<svg xmlns="http://www.w3.org/2000/svg" viewBox="0 0 24 24" width="24" height="24"><path fill="currentColor" d="M12 3q2.2 0 4.475.75t4.025 2.1q.4.3.6.725t.2.875q0 .275-.088.562t-.262.563L13.675 19.5q-.3.45-.75.675T12 20.4t-.925-.225t-.75-.675L3.05 8.575q-.175-.275-.25-.55t-.075-.55q0-.45.2-.875t.6-.725q1.75-1.325 4.013-2.1T12 3m-2.5 7q.625 0 1.063-.437T11 8.5t-.437-1.062T9.5 7t-1.062.438T8 8.5t.438 1.063T9.5 10m2.5 5q.625 0 1.063-.437T13.5 13.5t-.437-1.062T12 12t-1.062.438T10.5 13.5t.438 1.063T12 15"/></svg>