<svg xmlns="http://www.w3.org/2000/svg" viewBox="0 0 24 24" width="24" height="24"><path fill="currentColor" d="m12 13.5l2.125 1.625q.15.125.3.013t.1-.288L13.7 12.2l2.225-1.75q.125-.125.075-.288T15.775 10H13.1l-.85-2.675Q12.2 7.15 12 7.15t-.25.175L10.9 10H8.225q-.175 0-.238.163t.063.287l2.2 1.75l-.825 2.675q-.05.175.1.288t.3-.013zm0 8.4q-.175 0-.325-.025t-.3-.075Q8 20.675 6 17.637T4 11.1V6.375q0-.625.363-1.125t.937-.725l6-2.25q.35-.125.7-.125t.7.125l6 2.25q.575.225.938.725T20 6.375V11.1q0 3.5-2 6.538T12.625 21.8q-.15.05-.3.075T12 21.9"/></svg>