<svg xmlns="http://www.w3.org/2000/svg" viewBox="0 0 24 24" width="24" height="24"><path fill="currentColor" d="M6 20q-1.25 0-2.125-.875T3 17H2q-.425 0-.712-.288T1 16V6q0-.825.588-1.412T3 4h12q.825 0 1.413.588T17 6v2h2q.475 0 .9.213t.7.587l2.2 2.925q.1.125.15.275t.05.325V16q0 .425-.288.713T22 17h-1q0 1.25-.875 2.125T18 20t-2.125-.875T15 17H9q0 1.25-.875 2.125T6 20m0-2q.425 0 .713-.288T7 17t-.288-.712T6 16t-.712.288T5 17t.288.713T6 18m12 0q.425 0 .713-.288T19 17t-.288-.712T18 16t-.712.288T17 17t.288.713T18 18m-1-5h4.25L19 10h-2z"/></svg>