<svg xmlns="http://www.w3.org/2000/svg" viewBox="0 0 24 24" width="24" height="24"><path fill="currentColor" d="M12 21.325q-.35 0-.7-.125t-.625-.375Q9.05 19.325 7.8 17.9t-2.087-2.762t-1.275-2.575T4 10.2q0-.8.125-1.525t.35-1.375l-3.1-3.1q-.3-.3-.3-.712t.3-.713t.713-.3t.712.3l18.4 18.4q.3.3.3.713t-.3.712t-.712.3t-.713-.3l-4.1-4.1q-.625.65-1.25 1.288t-1.1 1.037q-.275.25-.625.375t-.7.125M12 2q3.175 0 5.588 2.225T20 10.2q0 .875-.25 1.813T19 13.95q-.275.55-.888.613t-1.037-.363l-3.3-3.3q.125-.2.175-.425T14 10q0-.425-.15-.788t-.425-.637t-.638-.425T12 8q-.25 0-.475.05t-.425.175L7.875 5q-.45-.45-.387-1.062T8.075 3q.875-.5 1.875-.75T12 2"/></svg>