<svg xmlns="http://www.w3.org/2000/svg" viewBox="0 0 24 24" width="24" height="24"><path fill="currentColor" d="M12 5q-.625 0-1.062-.437T10.5 3.5q0-.45.2-.8t.925-1.225q.15-.2.375-.2t.375.2q.725.875.925 1.225t.2.8q0 .625-.437 1.063T12 5M7 5q-.625 0-1.062-.437T5.5 3.5q0-.45.2-.8t.925-1.225q.15-.2.375-.2t.375.2Q8.1 2.35 8.3 2.7t.2.8q0 .625-.437 1.063T7 5m10 0q-.625 0-1.062-.437T15.5 3.5q0-.45.2-.8t.925-1.225q.15-.2.375-.2t.375.2q.725.875.925 1.225t.2.8q0 .625-.437 1.063T17 5M6 21v.5q0 .625-.437 1.063T4.5 23t-1.062-.437T3 21.5v-7.15q0-.175.025-.35t.075-.325L4.975 8.35q.2-.6.725-.975T6.875 7h10.25q.65 0 1.175.375t.725.975l1.875 5.325q.05.15.075.325t.025.35v7.15q0 .625-.437 1.063T19.5 23t-1.062-.437T18 21.5V21zm-.2-9h12.4l-1.05-3H6.85zm1.7 6q.625 0 1.063-.437T9 16.5t-.437-1.062T7.5 15t-1.062.438T6 16.5t.438 1.063T7.5 18m9 0q.625 0 1.063-.437T18 16.5t-.437-1.062T16.5 15t-1.062.438T15 16.5t.438 1.063T16.5 18"/></svg>