<svg xmlns="http://www.w3.org/2000/svg" viewBox="0 0 24 24" width="24" height="24"><path fill="currentColor" d="M7 21H4q-.825 0-1.412-.587T2 19v-9q0-.475.213-.9t.587-.7l6-4.5q.275-.2.575-.3T10 3.5t.625.1t.575.3l3.3 2.5q.25.2.188.5t-.388.4q-.975.35-1.725 1.063T11.4 10.025t-.413 1.988t.438 1.987q.125.325.013.638t-.413.437q-1.05.475-1.6.925t-.9 1.1q-.275.45-.4.963T8 19.1v.9q0 .425-.288.713T7 21m9-5q1.35 0 2.613.35t2.412 1.025q.45.275.713.738T22 19.1q0 .8-.55 1.35T20.1 21h-8.2q-.8 0-1.35-.55T10 19.1q0-.525.263-.988t.712-.737q1.15-.675 2.413-1.025T16 16m0-1q-1.25 0-2.125-.875T13 12t.875-2.125T16 9t2.125.875T19 12t-.875 2.125T16 15"/></svg>