<svg xmlns="http://www.w3.org/2000/svg" viewBox="0 0 24 24" width="24" height="24"><path fill="currentColor" d="M9 8h6V6q0-1.25-.875-2.125T12 3t-2.125.875T9 6zM6 22q-.825 0-1.412-.587T4 20V10q0-.825.588-1.412T6 8h1V6q0-2.075 1.463-3.537T12 1t3.538 1.463T17 6v2h1q.825 0 1.413.588T20 10v.15q0 .425-.337.7t-.788.2q-.2-.025-.425-.038T18 11q-2.925 0-4.962 2.038T11 18q0 .725.163 1.438T11.6 20.8q.2.425-.037.813T10.9 22zm12 1q-2.075 0-3.537-1.463T13 18t1.463-3.537T18 13t3.538 1.463T23 18t-1.463 3.538T18 23m.5-5.2v-2.3q0-.2-.15-.35T18 15t-.35.15t-.15.35v2.275q0 .2.075.388t.225.337l1.5 1.5q.15.15.35.15T20 20t.15-.35t-.15-.35z"/></svg>