<svg xmlns="http://www.w3.org/2000/svg" viewBox="0 0 24 24" width="24" height="24"><path fill="currentColor" d="M12 9q-.425 0-.712-.288T11 8t.288-.712T12 7t.713.288T13 8t-.288.713T12 9m-4 4q-.425 0-.712-.288T7 12t.288-.712T8 11t.713.288T9 12t-.288.713T8 13m4 0q-.425 0-.712-.288T11 12t.288-.712T12 11t.713.288T13 12t-.288.713T12 13M4 5q-.425 0-.712-.288T3 4t.288-.712T4 3t.713.288T5 4t-.288.713T4 5m4 0q-.425 0-.712-.288T7 4t.288-.712T8 3t.713.288T9 4t-.288.713T8 5M4 9q-.425 0-.712-.288T3 8t.288-.712T4 7t.713.288T5 8t-.288.713T4 9m1 12q-.825 0-1.412-.587T3 19v-7q0-.425.288-.712T4 11t.713.288T5 12v7h14V5h-7q-.425 0-.712-.288T11 4t.288-.712T12 3h7q.825 0 1.413.588T21 5v14q0 .825-.587 1.413T19 21z"/></svg>