<svg xmlns="http://www.w3.org/2000/svg" viewBox="0 0 24 24" width="24" height="24"><path fill="currentColor" d="M7.5 18q-1.275 0-2.025-.687t-.75-1.813q0-1.1.863-1.812t2.212-.713q.575 0 1.125.1t.95.275v-.3q0-.725-.513-1.175T8 11.425q-.375 0-.737.113t-.663.337q-.325.25-.612.175t-.463-.275t-.175-.475t.275-.475q.5-.4 1.125-.587t1.275-.188q1.725 0 2.575.813t.85 2.437v3.675q0 .325-.237.55t-.563.225t-.55-.237t-.225-.563v-.125h-.1q-.35.575-.95.875T7.5 18m.3-1.35q.875 0 1.488-.6t.612-1.4q-.35-.2-.837-.312t-.963-.113q-.8 0-1.25.35t-.45.925q0 .5.4.825t1 .325m8.7-2.45V9q0-.425.288-.712T17.5 8t.713.288T18.5 9v5.2l.9-.9q.275-.275.7-.275t.7.275t.275.7t-.275.7l-2.6 2.6q-.3.3-.7.3t-.7-.3l-2.6-2.6q-.275-.275-.275-.7t.275-.7t.7-.275t.7.275z"/></svg>