<svg xmlns="http://www.w3.org/2000/svg" viewBox="0 0 24 24" width="24" height="24"><path fill="currentColor" d="m21.4 14.25l-7.15 7.15q-.3.3-.675.45t-.75.15t-.75-.15t-.675-.45l-8.825-8.825q-.275-.275-.425-.637T2 11.175V4q0-.825.588-1.412T4 2h7.175q.4 0 .775.163t.65.437l8.8 8.825q.3.3.438.675t.137.75t-.137.738t-.438.662M6.5 8q.625 0 1.063-.437T8 6.5t-.437-1.062T6.5 5t-1.062.438T5 6.5t.438 1.063T6.5 8m7.2 8.8l2.8-2.8q.275-.275.438-.65t.162-.8q0-.85-.6-1.45t-1.45-.6q-.475 0-.937.275T13 11.7q-.75-.7-1.175-.95t-.875-.25q-.85 0-1.45.6t-.6 1.45q0 .425.163.8T9.5 14l2.8 2.8q.3.3.7.3t.7-.3"/></svg>