<svg xmlns="http://www.w3.org/2000/svg" viewBox="0 0 24 24" width="24" height="24"><path fill="currentColor" d="M7 21q-.825 0-1.412-.587T5 19V8q0-.825.588-1.412T7 6h2V4q0-.825.588-1.412T11 2h2q.825 0 1.413.588T15 4v2h2q.825 0 1.413.588T19 8v11q0 .825-.587 1.413T17 21q0 .425-.288.713T16 22t-.712-.288T15 21H9q0 .425-.288.713T8 22t-.712-.288T7 21m3-12q-.425 0-.712.288T9 10v7q0 .425.288.713T10 18t.713-.288T11 17v-7q0-.425-.288-.712T10 9m4 0q-.425 0-.712.288T13 10v7q0 .425.288.713T14 18t.713-.288T15 17v-7q0-.425-.288-.712T14 9m-3-3h2V4h-2z"/></svg>