<svg xmlns="http://www.w3.org/2000/svg" viewBox="0 0 24 24" width="24" height="24"><path fill="currentColor" d="M12 15q-1.05 0-1.775-.725T9.5 12.5v-.2q-.3.225-.638.338t-.762.112q-1.05 0-1.775-.725T5.6 10.25q0-.75.4-1.35T7.05 8Q6.4 7.7 6 7.1t-.4-1.35q0-1.05.725-1.775T8.1 3.25q.425 0 .763.112T9.5 3.7v-.2q0-1.05.725-1.775T12 1t1.775.725T14.5 3.5v.2q.225-.175.488-.275t.562-.15l-1.325 3.55q-.325-.6-.912-.962T12 5.5q-1.05 0-1.775.725T9.5 8t.725 1.775T12 10.5q.325 0 .6-.075t.55-.2q.075.525.488.9t.987.375h3.45q-.325.575-.887.913t-1.288.337q-.425 0-.763-.112T14.5 12.3v.2q0 1.05-.725 1.775T12 15m4.975-7.3l-.625 1.825q-.075.2-.262.337t-.413.138q-.375 0-.587-.312T15 9.025L17.8 1.5q.1-.225.288-.363T18.5 1h.575q.225 0 .413.138t.287.362l2.875 7.55q.125.35-.075.65T22 10q-.225 0-.425-.137T21.3 9.5l-.625-1.8zm.45-1.3h2.75L18.85 2.65h-.05zM12 22q-3.5 0-6.038-2.312T3.05 14q-.05-.425.238-.712T4 13.05q3.375.375 5.688 2.913T12 22m0 0q0-3.5 2.313-6.038T20 13.05q.425-.05.713.238t.237.712q-.375 3.375-2.912 5.688T12 22"/></svg>