<svg xmlns="http://www.w3.org/2000/svg" viewBox="0 0 24 24" width="24" height="24"><path fill="currentColor" d="m19.85 17.375l-3.225-3.225q.725-.425 1.538-.7t1.637-.35q.225-.025.438.063t.362.237t.238.363t.062.437q-.075.85-.35 1.65t-.7 1.525m-2.7 3q-1.1.775-2.412 1.2T12 22q0-1.425.425-2.738t1.2-2.412L11.775 15q-.9-.075-1.625-.6T9.1 13.05q-.125 0-.225.012t-.225.013q-1.325 0-2.238-.913T5.5 9.925q0-.275.038-.525t.137-.5l-3.6-3.6q-.3-.3-.3-.712t.3-.713t.713-.3t.712.3l17 17q.3.3.288.7t-.313.7t-.712.3t-.713-.3zM12 1q.95 0 1.75.538T14.9 2.95q.125 0 .225-.012t.225-.013q1.3 0 2.213.925t.912 2.225q0 .525-.162 1.012T17.8 8q.325.425.5.913t.175 1.012q0 1.25-.837 2.162t-2.088.988l-2.725-2.725q.725-.275 1.2-.912T14.5 8q0-1.05-.725-1.775T12 5.5q-.8 0-1.437.475t-.913 1.2L6.375 3.9q.525-.55 1.25-.775T9.1 2.95q.35-.875 1.15-1.412T12 1m0 21q0-3.5-2.113-5.837T4.426 13.25q-.275-.05-.5.025t-.4.25t-.25.388t-.025.487q.625 3.35 2.913 5.475T12 22"/></svg>