<svg xmlns="http://www.w3.org/2000/svg" viewBox="0 0 24 24" width="24" height="24"><path fill="currentColor" d="m19 21l-.625 1.1q-.2.35-.612.45t-.763-.1t-.462-.6t.087-.75l.65-1.1H16q-.425 0-.713-.288T15 19t.288-.712T16 18h1.275l-.65-1.1q-.2-.35-.088-.75t.463-.6t.763-.1t.612.45L19 17l.625-1.1q.2-.35.613-.45t.762.1t.463.6t-.088.75l-.65 1.1H22q.425 0 .713.288T23 19t-.288.713T22 20h-1.275l.65 1.1q.2.35.088.75t-.463.6t-.763.1t-.612-.45zm-7-10L5.3 6.8q-.425-.275-.862-.025T4 7.525q0 .225.1.413t.3.312l6.55 4.1q.5.3 1.05.3t1.05-.3l6.55-4.1q.2-.125.3-.312t.1-.413q0-.5-.437-.75T18.7 6.8zm-8 9q-.825 0-1.412-.587T2 18V6q0-.825.588-1.412T4 4h16q.825 0 1.413.588T22 6v6.9q0 .3-.262.463t-.538.037q-1.65-.65-3.412-.288T14.75 14.75q-.9.9-1.362 2.075t-.413 2.45q.025.3-.175.513t-.475.212z"/></svg>