<svg xmlns="http://www.w3.org/2000/svg" viewBox="0 0 24 24" width="24" height="24"><path fill="currentColor" d="M19.075 21.9L17.15 20H4q-.825 0-1.412-.587T2 18V6q0-.825.588-1.412T4 4l2 2H3.15L2.075 4.925q-.3-.3-.3-.712t.3-.713t.713-.3t.712.3l17 17q.3.3.3.7t-.3.7t-.712.3t-.713-.3m2.3-4.25q-.275.125-.55.088t-.525-.288l-5.925-5.925L19.6 8.25q.35-.225.4-.562t-.125-.613t-.5-.375t-.675.125L13.15 10.3l-4.6-4.6q-.25-.25-.288-.525t.088-.55t.35-.45T9.275 4H20q.825 0 1.413.588T22 6v10.725q0 .35-.175.575t-.45.35"/></svg>