<svg xmlns="http://www.w3.org/2000/svg" viewBox="0 0 24 24" width="24" height="24"><path fill="currentColor" d="M12 11L5.3 6.8q-.425-.275-.862-.025T4 7.525q0 .225.1.413t.3.312l7.075 4.425q.25.15.525.15t.525-.15L19.6 8.25q.2-.125.3-.312t.1-.413q0-.5-.437-.75T18.7 6.8zm7 9q-.425 0-.712-.288T18 19v-3q0-.425.288-.712T19 15v-1q0-.825.588-1.412T21 12t1.413.588T23 14v1q.425 0 .713.288T24 16v3q0 .425-.288.713T23 20zm1-5h2v-1q0-.425-.288-.712T21 13t-.712.288T20 14zM4 20q-.825 0-1.412-.587T2 18V6q0-.825.588-1.412T4 4h16q.825 0 1.413.588T22 6v3q0 .425-.288.713T21 10q-2.075 0-3.537 1.463T16 15v4q0 .425-.288.713T15 20z"/></svg>