<svg xmlns="http://www.w3.org/2000/svg" viewBox="0 0 24 24" width="24" height="24"><path fill="currentColor" d="M2 18v-.8q0-.85.425-1.562T3.6 14.55q1.425-.725 2.963-1.15t3.137-.425q.35 0 .55.313t.075.662q-.15.525-.225 1.05t-.075 1.075q0 .725.15 1.4T10.6 18.8q.2.425-.037.813T9.9 20H4q-.825 0-1.412-.587T2 18m15 0q.825 0 1.413-.587T19 16t-.587-1.412T17 14t-1.412.588T15 16t.588 1.413T17 18m-7-6q-1.65 0-2.825-1.175T6 8t1.175-2.825T10 4t2.825 1.175T14 8t-1.175 2.825T10 12m5.85 8.2l-.15-.7q-.3-.125-.562-.262T14.6 18.9l-.725.225q-.325.1-.637-.025t-.488-.4l-.2-.35q-.175-.3-.125-.65t.325-.575l.55-.475q-.05-.35-.05-.65t.05-.65l-.55-.475q-.275-.225-.325-.563t.125-.637l.225-.375q.175-.275.475-.4t.625-.025l.725.225q.275-.2.538-.338t.562-.262l.15-.725q.075-.35.338-.562T16.8 11h.4q.35 0 .613.225t.337.575l.15.7q.3.125.562.275t.538.375l.675-.225q.35-.125.675 0t.5.425l.2.35q.175.3.125.65t-.325.575l-.55.475q.05.3.05.625t-.05.625l.55.475q.275.225.325.563t-.125.637l-.225.375q-.175.275-.475.4t-.625.025L19.4 18.9q-.275.2-.538.337t-.562.263l-.15.725q-.075.35-.337.563T17.2 21h-.4q-.35 0-.612-.225t-.338-.575"/></svg>