<svg xmlns="http://www.w3.org/2000/svg" viewBox="0 0 24 24" width="24" height="24"><path fill="currentColor" d="M3 19q-.425 0-.712-.288T2 18t.288-.712T3 17h8q.425 0 .713.288T12 18t-.288.713T11 19zm0-5q-.425 0-.712-.288T2 13t.288-.712T3 12h3q.425 0 .713.288T7 13t-.288.713T6 14zm0-5q-.425 0-.712-.288T2 8t.288-.712T3 7h3q.425 0 .713.288T7 8t-.288.713T6 9zm11 7q-2.075 0-3.537-1.463T9 11t1.463-3.537T14 6t3.538 1.463T19 11q0 .725-.213 1.438t-.637 1.312l3.15 3.15q.275.275.275.7t-.275.7t-.7.275t-.7-.275l-3.15-3.15q-.6.425-1.312.638T14 16m0-2q1.25 0 2.125-.875T17 11t-.875-2.125T14 8t-2.125.875T11 11t.875 2.125T14 14"/></svg>