<svg xmlns="http://www.w3.org/2000/svg" viewBox="0 0 24 24" width="24" height="24"><path fill="currentColor" d="M5.55 10.5q-.3-.125-.562-.262T4.45 9.9l-.725.225q-.325.1-.638-.025T2.6 9.7l-.2-.35q-.175-.3-.125-.65t.325-.575l.55-.475Q3.1 7.325 3.1 7t.05-.65l-.55-.475q-.275-.225-.325-.562t.125-.638l.225-.375q.175-.275.475-.4t.625-.025l.725.225q.275-.2.538-.337T5.55 3.5l.15-.725q.075-.35.338-.562T6.65 2h.4q.35 0 .613.225T8 2.8l.15.7q.3.125.563.263t.537.337l.725-.225q.325-.1.638.025t.487.4l.2.35q.175.3.125.65t-.325.575l-.55.475q.05.325.05.65t-.05.65l.55.475q.275.225.325.563t-.125.637l-.225.375q-.175.275-.475.4t-.625.025L9.25 9.9q-.275.2-.537.338t-.563.262l-.15.725q-.075.35-.337.563T7.05 12h-.4q-.35 0-.612-.225T5.7 11.2zM6.85 9q.825 0 1.413-.587T8.85 7t-.587-1.412T6.85 5t-1.412.588T4.85 7t.588 1.413T6.85 9m7.5 11.9q-.425-.15-.787-.363t-.713-.487l-.95.3q-.45.15-.9-.012t-.7-.588l-.275-.475q-.25-.425-.175-.913t.45-.812l.75-.65Q11 16.45 11 16t.05-.9l-.75-.675q-.375-.325-.45-.8t.175-.9l.275-.475q.25-.425.7-.588t.9-.012l.95.3q.35-.275.713-.488t.787-.362l.225-1.025q.1-.475.463-.775T15.9 9h.6q.5 0 .863.3t.462.775l.225 1.025q.425.15.788.363t.712.487l.95-.3q.45-.15.9.013t.7.587l.275.475q.25.425.175.913t-.45.812l-.75.65q.05.45.05.9t-.05.9l.75.675q.375.325.45.8t-.175.9l-.275.475q-.25.425-.7.588t-.9.012l-.95-.3q-.35.275-.712.487t-.788.363l-.225 1.025q-.1.475-.462.775t-.863.3h-.6q-.5 0-.862-.3t-.463-.775zM16.2 19q1.25 0 2.125-.875T19.2 16t-.875-2.125T16.2 13t-2.125.875T13.2 16t.875 2.125T16.2 19"/></svg>