<svg xmlns="http://www.w3.org/2000/svg" viewBox="0 0 24 24" width="24" height="24"><path fill="currentColor" d="M16 18q.85 0 1.413-.5T18 16q.025-.85-.562-1.425T16 14t-1.425.575T14 16t.575 1.425T16 18m0 2q-1.65 0-2.825-1.175T12 16t1.175-2.825T16 12t2.825 1.175T20 16q0 .575-.137 1.088t-.413.962l1.85 1.85q.275.275.275.7t-.275.7t-.7.275t-.7-.275l-1.85-1.85q-.45.275-.962.413T16 20m-11.65.7q-.5.2-.925-.112T3 19.75v-14q0-.325.188-.575T3.7 4.8l4.65-1.575Q8.675 3.1 9 3.1t.65.125L15 5.1l4.65-1.8q.5-.2.925.113T21 4.25V11q0 .425-.4.575t-.725-.15q-.825-.7-1.812-1.063T16 10h-.425q-.225 0-.425.05q-.45.05-.8-.213T14 9.15v-2.3l-4-1.4v12.025q0 .475-.262.85t-.688.55z"/></svg>