<svg xmlns="http://www.w3.org/2000/svg" viewBox="0 0 24 24" width="24" height="24"><path fill="currentColor" d="M7.85 13.775Q6.75 13.65 5.888 13T4.6 11.325L2 5l6-3l2 3h5.2q.4 0 .775.163t.65.437l5.55 5.55q.325.35.275.8t-.425.725l-.3.225q-.5.35-1.125.338t-1.175-.313L12.75 9.2l-2-.15q-.325-.025-.55.175t-.25.525q-.025.3.188.538t.512.262l1.65.125l2.175 1.25q.475.25.588.688t-.038.862t-.562.7t-1.013.225zm-3.65 6.95q-.4.125-.75-.088t-.475-.612q-.125-.425.088-.762T3.7 18.8l3.75-1q1.8-.475 3.825-.888t3.7-.412q1.65 0 3.1.588T20.9 18.7q.325.225.338.613t-.263.687t-.675.363t-.75-.188q-1.125-.8-2.287-1.237t-2.288-.438q-1.6 0-3.525.413t-3.475.812z"/></svg>