<svg xmlns="http://www.w3.org/2000/svg" viewBox="0 0 24 24" width="24" height="24"><path fill="currentColor" d="M12 21q-.425 0-.713-.288T11 20V4q0-.425.288-.713T12 3q.425 0 .713.288T13 4v16q0 .425-.288.713T12 21Zm-9.175-5.15q-.425 0-.725-.287t-.3-.713q0-.225.088-.425t.237-.325q.425-.425.65-.975T3 11.975q0-.6-.225-1.137t-.65-.963q-.15-.125-.238-.325T1.8 9.125q0-.425.3-.713t.725-.287q.2 0 .388.088t.312.212q.725.7 1.113 1.625t.387 1.925q0 1-.388 1.938T3.526 15.55q-.125.125-.312.213t-.388.087Zm2.8 2.825q-.425 0-.713-.288t-.287-.712q0-.2.088-.388t.212-.312q1-1 1.538-2.275T7 12q0-1.425-.537-2.7T4.925 7.025Q4.8 6.9 4.713 6.7t-.088-.4q0-.425.288-.7t.712-.275q.2 0 .388.075t.312.2Q7.6 6.9 8.288 8.538t.687 3.437q0 1.8-.688 3.463t-1.962 2.937q-.125.125-.313.213t-.387.087ZM16 13q-.425 0-.713-.288T15 12q0-.425.288-.713T16 11q.425 0 .713.288T17 12q0 .425-.288.713T16 13Zm4 0q-.425 0-.713-.288T19 12q0-.425.288-.713T20 11q.425 0 .713.288T21 12q0 .425-.288.713T20 13Z"/></svg>