<svg xmlns="http://www.w3.org/2000/svg" viewBox="0 0 24 24" width="24" height="24"><path fill="currentColor" d="M9.5 6.65L5.35 2.5q.35-.275.775-.387T7 2q1.25 0 2.125.862T10 5q0 .45-.137.863T9.5 6.65M20 17.15l-2-2V6q0-.825-.587-1.412T16 4t-1.412.588T14 6v5.15l-2-2V6q0-1.7 1.175-2.85T16 2t2.825 1.15T20 6zm-.2 5.45L14 16.8V18q0 1.65-1.175 2.825T10 22t-2.825-1.175T6 18h-.1q-.4 0-.675-.262T4.9 17.1l-.8-8q-.05-.45.25-.775T5.1 8h.05L1.4 4.2q-.275-.275-.287-.687T1.4 2.8q.275-.275.7-.275t.7.275l18.4 18.4q.275.275.275.7t-.275.7t-.7.275t-.7-.275M10 20q.825 0 1.413-.587T12 18v-3.2l-2.45-2.45l-.45 4.75q-.05.375-.325.638T8.1 18H8q0 .825.588 1.413T10 20"/></svg>