<svg xmlns="http://www.w3.org/2000/svg" viewBox="0 0 24 24" width="24" height="24"><path fill="currentColor" d="M16.8 14.575q-.35-.2-.45-.612t.1-.763q.175-.275.288-.587t.162-.638q.1-.425.388-.7T18 11t.7.3t.225.725q-.075.575-.262 1.125t-.488 1.05q-.2.35-.612.463t-.763-.088m-3.5-4.125L9.575 6.725Q9.3 6.45 9.15 6.088T9 5.325V5q0-1.25.875-2.125T12 2t2.125.875T15 5v4.725q0 .675-.612.938T13.3 10.45M11 20v-2.1q-2.3-.3-3.937-1.925t-1.988-3.95q-.05-.425.225-.725T6 11t.713.288T7.1 12q.35 1.75 1.738 2.875T12 16q.85 0 1.613-.262T15 15l1.425 1.425q-.725.575-1.588.963T13 17.9V20q0 .425-.288.713T12 21t-.712-.288T11 20m8.1 1.9l-17-17q-.275-.275-.275-.7t.275-.7t.7-.275t.7.275l17 17q.275.275.275.7t-.275.7t-.7.275t-.7-.275"/></svg>