<svg xmlns="http://www.w3.org/2000/svg" viewBox="0 0 24 24" width="24" height="24"><path fill="currentColor" d="M10.7 15.575q.2 0 .375-.075t.325-.225l3.1-3.125q.275-.275.288-.687t-.288-.713q-.275-.275-.7-.275t-.7.275l-2.4 2.4L8.5 11H9q.425 0 .713-.288T10 10t-.288-.712T9 9H6q-.425 0-.712.288T5 10v3q0 .425.288.713T6 14t.713-.288T7 13v-.7l3 3q.15.15.325.213t.375.062M4 20q-.825 0-1.412-.587T2 18V6q0-.825.588-1.412T4 4h12q.825 0 1.413.588T18 6v4.5l3.15-3.15q.25-.25.55-.125t.3.475v8.6q0 .35-.3.475t-.55-.125L18 13.5V18q0 .825-.587 1.413T16 20z"/></svg>