<svg xmlns="http://www.w3.org/2000/svg" viewBox="0 0 24 24" width="24" height="24"><path fill="currentColor" d="M13 13v-2q0-.825.588-1.412T15 9h.5V7H15q-.825 0-1.412-.587T13 5V3q0-.825.588-1.412T15 1h3q.825 0 1.413.588T20 3v2q0 .825-.587 1.413T18 7h-.5v2h.5q.825 0 1.413.588T20 11v2q0 .825-.587 1.413T18 15h-3q-.825 0-1.412-.587T13 13m-9 8v-2q0-.825.588-1.412T6 17h.5v-2H6q-.825 0-1.412-.587T4 13v-2q0-.825.588-1.412T6 9h.5V7H6q-.825 0-1.412-.587T4 5V3q0-.825.588-1.412T6 1h3q.825 0 1.413.588T11 3v2q0 .825-.587 1.413T9 7h-.5v2H9q.825 0 1.413.588T11 11v2q0 .825-.587 1.413T9 15h-.5v2H9q.825 0 1.413.588T11 19v2q0 .825-.587 1.413T9 23H6q-.825 0-1.412-.587T4 21"/></svg>