<svg xmlns="http://www.w3.org/2000/svg" viewBox="0 0 24 24" width="24" height="24"><path fill="currentColor" d="M16.95 14.125L15.4 12.6q.05-.15.075-.3t.025-.3q0-.225-.038-.425t-.162-.4q-.225-.425-.063-.788t.513-.537t.738-.087t.637.562q.2.4.288.825t.087.85q0 .55-.137 1.075t-.413 1.05m2.475 2.45L18 15.15q.5-.675.75-1.475T19 12q0-.95-.275-1.788t-.85-1.562q-.275-.325-.15-.687t.45-.563t.738-.175t.762.525q.65.925.988 2.013T21 12q0 1.275-.4 2.438t-1.175 2.137M19.8 22.6L1.4 4.2q-.275-.275-.275-.7t.275-.7t.7-.275t.7.275l18.4 18.4q.275.275.275.7t-.275.7t-.7.275t-.7-.275M12 6q.425 0 .713-.288T13 5t-.288-.712T12 4t-.712.288T11 5t.288.713T12 6M7 23q-.825 0-1.412-.587T5 21V5l14 14v2q0 .825-.587 1.413T17 23zm6.475-13.825q-.3.3-.712.3t-.713-.3L5.55 2.7q-.125-.125-.162-.25T5.35 2.2q0-.425.45-.812T7 1h10q.925 0 1.475.6t.55 1.325q0 .325-.1.613t-.375.562z"/></svg>