<svg xmlns="http://www.w3.org/2000/svg" viewBox="0 0 24 24" width="24" height="24"><path fill="currentColor" d="M19.8 22.6L1.4 4.2q-.275-.275-.275-.7t.275-.7t.7-.275t.7.275l18.4 18.4q.275.275.275.7t-.275.7t-.7.275t-.7-.275M12 6q.425 0 .713-.288T13 5t-.288-.712T12 4t-.712.288T11 5t.288.713T12 6M7 23q-.825 0-1.412-.587T5 21V5l14 14v2q0 .825-.587 1.413T17 23zM19 3v3.1q.45.175.725.55T20 7.5v2q0 .475-.275.85T19 10.9v2.875q0 .675-.612.938T17.3 14.5L5.55 2.725q-.125-.125-.175-.25t-.05-.25q0-.425.463-.825T7 1h10q.825 0 1.413.588T19 3"/></svg>