<svg xmlns="http://www.w3.org/2000/svg" viewBox="0 0 24 24" width="24" height="24"><path fill="currentColor" d="M13.975 2.175L15.9 4.1q.275.275.275.7t-.275.7t-.7.275t-.7-.275l-4.25-4.25q-.3-.3-.162-.7t.562-.475q.35-.05.675-.062T12 0q2.475 0 4.663.938t3.825 2.575t2.575 3.825T24 12q0 .425-.288.713T23 13t-.712-.288T22 12q0-1.775-.6-3.4t-1.662-2.925T17.2 3.463t-3.225-1.288m-3.95 19.65L8.1 19.9q-.275-.275-.275-.7t.275-.7t.7-.275t.7.275l4.25 4.25q.3.3.162.713t-.562.462q-.35.05-.675.063T12 24q-2.475 0-4.663-.937t-3.825-2.575t-2.575-3.825T0 12q0-.425.288-.712T1 11t.713.288T2 12q0 1.775.6 3.4t1.663 2.925T6.8 20.538t3.225 1.287m-.7-11.725q.325 0 .538-.225t.212-.525q0-.325-.212-.537T9.325 8.6q-.3 0-.525.213t-.225.537q0 .3.225.525t.525.225m3.075 9.35L4.55 11.6q-.275-.275-.412-.625T4 10.25t.144-.725t.406-.625l4.34-4.35q.276-.275.627-.413T10.246 4t.728.138t.627.412l7.85 7.85q.275.275.413.625t.137.725t-.144.725t-.406.625l-4.34 4.35q-.276.275-.627.413t-.728.137t-.728-.137t-.627-.413"/></svg>