<svg xmlns="http://www.w3.org/2000/svg" viewBox="0 0 24 24" width="24" height="24"><path fill="currentColor" d="m20.5 20.075l-2.425 2.4q-.225.2-.525.213t-.525-.213t-.225-.525t.225-.525l2.4-2.425H17.75q-.325 0-.537-.212T17 18.25t.213-.537t.537-.213H21q.425 0 .713.288T22 18.5v3.25q0 .325-.213.538t-.537.212t-.537-.213t-.213-.537zM11.6 23l-8.9-1.325q-.825-.125-1.325-.788T1 19.4L3.35 3.575q.125-.825.788-1.312T5.625 1.9l1.9.275q0 .8.325 1.6T8.825 5.1l-2.55 2.575q-.425.425-.663.975T5.376 9.8q0 .65.263 1.225t.737 1q-.15.3-.225.625t-.075.675q0 1.275.875 2.138t2.125.862h.3q.4.65 1.075 1.025t1.475.375q.425 0 .575-.05t.725-.225q.2.2.475.425t.675.35l-.5 3.075q-.125.825-.788 1.325T11.6 23m3.15-6.85q-.3-.275-.3-.687t.3-.713l2.375-2.375l-.7-.725l-3.8 3.8q-.3.3-.712.3t-.713-.3q-.275-.3-.275-.712t.275-.713l3.8-3.8l-.7-.675l-4.5 4.5q-.3.275-.712.275t-.713-.3q-.3-.275-.3-.687t.3-.713l4.5-4.5l-.7-.7l-3.1 3.075q-.275.3-.687.3t-.713-.3q-.275-.275-.275-.7t.275-.7l4.375-4.375l-1.525-.85q-.475-.275-.75-.737T9.5 2.125V2q0-.425.288-.712T10.5 1h6.25q.6 0 1.15.238t.975.662l2.95 2.95q.575.575.863 1.313t.287 1.512Q23 8.45 22.7 9.188t-.875 1.312l-5.675 5.675q-.275.275-.687.275t-.713-.3"/></svg>