<svg xmlns="http://www.w3.org/2000/svg" viewBox="0 0 24 24" width="24" height="24"><path fill="currentColor" d="M12 8.5q.325 0 .538-.225t.212-.525q0-.325-.213-.537T12 7q-.3 0-.525.213t-.225.537q0 .3.225.525T12 8.5m6.475 3.5q0-.275-.038-.525t-.137-.525q-.15-.4.038-.763t.587-.487q.425-.125.8.075t.5.625q.125.4.188.788t.062.812t-.062.825t-.188.775q-.125.4-.5.588t-.775.062q-.375-.125-.575-.475t-.075-.725q.1-.275.138-.525t.037-.525M22 12q0-.75-.162-1.487T21.35 9.1q-.2-.425-.1-.862t.475-.663q.35-.2.713-.125t.537.4q.5.95.763 2T24 12t-.262 2.163t-.763 2.012q-.175.325-.537.388t-.713-.138q-.375-.225-.475-.65t.1-.85q.325-.675.488-1.425T22 12M9 20q-.825 0-1.412-.587T7 18V6q0-.825.588-1.412T9 4h6q.825 0 1.413.588T17 6v12q0 .825-.587 1.413T15 20zm-3.5-8q0 .275.038.525t.137.525q.125.375-.075.725t-.575.475q-.4.125-.788-.062t-.512-.588q-.125-.375-.175-.775T3.5 12t.063-.812t.187-.788q.125-.425.5-.625t.8-.075q.4.125.588.488t.037.762q-.1.275-.137.525T5.5 12M2 12q0 .75.163 1.5t.487 1.425q.2.425.1.85t-.475.65q-.35.2-.712.138t-.538-.388q-.5-.95-.762-2.013T0 12t.263-2.15t.762-2q.175-.325.538-.4t.712.125q.375.225.475.663t-.1.862q-.325.675-.488 1.413T2 12"/></svg>