<svg xmlns="http://www.w3.org/2000/svg" viewBox="0 0 24 24" width="24" height="24"><path fill="currentColor" d="M6 23q-.425 0-.712-.288T5 22t.288-.712T6 21t.713.288T7 22t-.288.713T6 23m1.825-2.825q-.375-.375-.837-.65t-.988-.4q-.425-.125-.712-.413T5 18t.3-.712t.7-.213q.925.15 1.763.588T9.25 18.75t1.088 1.488t.587 1.762q.075.4-.213.7T10 23t-.712-.288T8.875 22q-.125-.525-.4-.987t-.65-.838m2.825-2.825q-.95-.95-2.137-1.537T6 15.05q-.425-.05-.712-.337T5 14t.3-.712t.725-.238q1.725.175 3.275.912t2.775 1.963t1.938 2.775t.912 3.275q.05.425-.225.725t-.7.3t-.725-.287t-.35-.713q-.175-1.325-.75-2.512T10.65 17.35M12 6q.425 0 .713-.288T13 5t-.288-.712T12 4t-.712.288T11 5t.288.713T12 6m7 4.9v11.075q0 .45-.288.788T18 23.1t-.7-.275t-.325-.7q-.325-4.5-3.475-7.637t-7.65-3.463q-.35-.025-.6-.262T5 10.175V3q0-.825.588-1.412T7 1h10q.825 0 1.413.588T19 3v3.1q.45.175.725.55T20 7.5v2q0 .475-.275.85T19 10.9"/></svg>