<svg xmlns="http://www.w3.org/2000/svg" viewBox="0 0 24 24" width="24" height="24"><path fill="currentColor" d="M7 23q-.825 0-1.412-.587T5 21V3q0-.825.588-1.412T7 1h10q.825 0 1.413.588T19 3v3.1q.45.175.725.55T20 7.5v2q0 .475-.275.85T19 10.9V21q0 .825-.587 1.413T17 23zm5.15-10l-.875.9q-.275.275-.275.688t.3.712q.275.275.7.275t.7-.275l2.6-2.6q.15-.15.212-.325t.063-.375t-.062-.375t-.213-.325l-2.6-2.6q-.275-.275-.687-.287T11.3 8.7q-.275.275-.288.688t.263.712l.875.9H9q-.425 0-.712.288T8 12t.288.713T9 13z"/></svg>