<svg xmlns="http://www.w3.org/2000/svg" viewBox="0 0 24 24" width="24" height="24"><path fill="currentColor" d="M4 14q0-2.825 1.675-5.425t4.6-4.55q.55-.375 1.138-.038T12 5v1.3q0 .85.588 1.425t1.437.575q.425 0 .813-.188t.687-.537q.2-.25.513-.312t.587.137Q18.2 8.525 19.1 10.275T20 14q0 2.2-1.075 4.013T16.1 20.874q.425-.6.663-1.312T17 18.05q0-1-.375-1.888t-1.075-1.587L12 11.1l-3.525 3.475q-.725.725-1.1 1.6T7 18.05q0 .8.238 1.513t.662 1.312q-1.75-1.05-2.825-2.863T4 14m8-.1l2.125 2.075q.425.425.65.95T15 18.05q0 1.225-.875 2.088T12 21t-2.125-.862T9 18.05q0-.575.225-1.112t.65-.963z"/></svg>