<svg xmlns="http://www.w3.org/2000/svg" viewBox="0 0 24 24" width="24" height="24"><path fill="currentColor" d="m5.825 20l.4.4q.275.275.275.688t-.3.712q-.275.275-.7.275t-.7-.275l-2.1-2.1q-.15-.15-.213-.325T2.426 19t.063-.375t.212-.325l2.1-2.1q.275-.275.688-.275t.712.275q.3.3.3.713t-.3.712L5.825 18h12.35l-.4-.4q-.275-.275-.275-.687t.3-.713q.275-.275.7-.275t.7.275l2.1 2.1q.15.15.213.325t.062.375t-.062.375t-.213.325l-2.1 2.1q-.275.275-.687.275T17.8 21.8q-.3-.3-.3-.712t.3-.713l.375-.375zM12 11q1.25 0 2.125-.875T15 8t-.875-2.125T12 5t-2.125.875T9 8t.875 2.125T12 11m-7 3q-.825 0-1.412-.587T3 12V4q0-.825.588-1.412T5 2h14q.825 0 1.413.588T21 4v8q0 .825-.587 1.413T19 14zm0-2h2q0-.825-.587-1.412T5 10zm12 0h2v-2q-.825 0-1.412.588T17 12m2-6V4h-2q0 .825.588 1.413T19 6M5 6q.825 0 1.413-.587T7 4H5z"/></svg>