<svg xmlns="http://www.w3.org/2000/svg" viewBox="0 0 24 24" width="24" height="24"><path fill="currentColor" d="M15.5 11q.625 0 1.063-.437T17 9.5t-.437-1.062T15.5 8t-1.062.438T14 9.5t.438 1.063T15.5 11m-7 0q.625 0 1.063-.437T10 9.5t-.437-1.062T8.5 8t-1.062.438T7 9.5t.438 1.063T8.5 11M12 22q-2.075 0-3.9-.788t-3.175-2.137T2.788 15.9T2 12t.788-3.9t2.137-3.175T8.1 2.788T12 2t3.9.788t3.175 2.137T21.213 8.1T22 12t-.788 3.9t-2.137 3.175t-3.175 2.138T12 22m0-8.5q-1.425 0-2.675.7t-2 1.925q-.15.3.025.588t.525.287H16.1q.35 0 .525-.288t.025-.587Q15.9 14.9 14.663 14.2T12 13.5"/></svg>