<svg xmlns="http://www.w3.org/2000/svg" viewBox="0 0 24 24" width="24" height="24"><path fill="currentColor" d="M3 8V3h7v5zm4 11q-1.25 0-2.125-.875T4 16H3q-.425 0-.712-.288T2 15v-2q0-1.65 1.175-2.825T6 9h2q.825 0 1.413.588T10 11v3h3.5L17 9.65V7h-2q-.425 0-.712-.288T14 6t.288-.712T15 5h2q.825 0 1.413.588T19 7v2.65q0 .35-.112.663t-.313.587L15.1 15.25q-.275.35-.7.55t-.875.2H10q0 1.25-.875 2.125T7 19m0-2q.425 0 .713-.288T8 16H6q0 .425.288.713T7 17m12 2q-1.25 0-2.125-.875T16 16t.875-2.125T19 13t2.125.875T22 16t-.875 2.125T19 19m0-2q.425 0 .713-.288T20 16t-.288-.712T19 15t-.712.288T18 16t.288.713T19 17"/></svg>