<svg xmlns="http://www.w3.org/2000/svg" viewBox="0 0 24 24" width="24" height="24"><path fill="currentColor" d="M10.4 13.45h3.2l.6 1.625q.075.2.238.313t.362.112q.35 0 .538-.275t.062-.6l-2.55-6.7q-.075-.2-.237-.312T12.25 7.5h-.5q-.2 0-.363.113t-.237.312L8.625 14.65q-.125.3.05.575t.525.275q.2 0 .363-.112t.237-.313zm.4-1.15L11.95 9h.1l1.15 3.3zM12 22q-2.075 0-3.9-.788t-3.175-2.137T2.788 15.9T2 12q0-.8.125-1.6T2.5 8.825q.125-.4.513-.537t.737.062q.375.2.538.588t.037.812q-.15.55-.238 1.113T4 12q0 3.35 2.325 5.675T12 20t5.675-2.325T20 12t-2.325-5.675T12 4q-.6 0-1.187.087T9.65 4.35q-.425.125-.8-.025T8.3 3.8t-.013-.762t.563-.513q.75-.275 1.55-.4T12 2q2.075 0 3.9.788t3.175 2.137T21.213 8.1T22 12t-.788 3.9t-2.137 3.175t-3.175 2.138T12 22M5.5 7q-.625 0-1.062-.437T4 5.5t.438-1.062T5.5 4t1.063.438T7 5.5t-.437 1.063T5.5 7m.5 5q0-2.5 1.75-4.25T12 6t4.25 1.75T18 12t-1.75 4.25T12 18t-4.25-1.75T6 12"/></svg>