<svg xmlns="http://www.w3.org/2000/svg" viewBox="0 0 24 24" width="24" height="24"><path fill="currentColor" d="M4 20q-.825 0-1.412-.587T2 18v-3q0-.425.288-.712T3 14t.713.288T4 15v3h3q.425 0 .713.288T8 19t-.288.713T7 20zM2 5V2q0-.825.588-1.412T4 0h3q.425 0 .713.288T8 1t-.288.713T7 2H4v3q0 .425-.288.713T3 6t-.712-.288T2 5m10 7q-.825 0-1.412-.587T10 10q0-.85.588-1.425T12 8q.85 0 1.425.575T14 10q0 .825-.575 1.413T12 12m8-7V2h-3q-.425 0-.712-.288T16 1t.288-.712T17 0h3q.825 0 1.413.588T22 2v3q0 .425-.288.713T21 6t-.712-.288T20 5M6.175 11.15q-.45 0-.7.388t-.125.837Q5.825 13.95 7 15.1t2.75 1.675q.45.15.838-.137t.387-.763q0-.35-.225-.638t-.575-.412q-.975-.375-1.737-1.1T7.325 12q-.125-.375-.437-.612t-.713-.238m.025-2q-.45 0-.7-.387t-.125-.838Q5.85 6.35 7.038 5.2T9.8 3.525q.45-.15.825.138t.375.762q0 .35-.225.638t-.575.412q-.975.375-1.737 1.1T7.35 8.3q-.125.375-.437.613T6.2 9.15m11.65 0q.45 0 .7-.387t.125-.838Q18.2 6.35 17.013 5.2T14.25 3.525q-.45-.15-.825.138t-.375.762q0 .35.225.638t.575.412q.975.375 1.738 1.1T16.7 8.3q.125.375.438.612t.712.238M19 22q-2.075 0-3.537-1.463T14 17t1.463-3.537T19 12t3.538 1.463T24 17t-1.463 3.538T19 22m0-2q.2 0 .35-.15t.15-.35t-.15-.35T19 19t-.35.15t-.15.35t.15.35t.35.15m0-2q.2 0 .35-.15t.15-.35v-3q0-.2-.15-.35T19 14t-.35.15t-.15.35v3q0 .2.15.35T19 18"/></svg>