<svg xmlns="http://www.w3.org/2000/svg" viewBox="0 0 24 24" width="24" height="24"><path fill="currentColor" d="M15.85 22q-.35 0-.6-.25t-.25-.6V18q0-.425.288-.712T16 17h1l4 4v.15q0 .35-.25.6t-.6.25zm3.925.6L1.4 4.225q-.3-.3-.3-.712t.3-.713t.7-.3t.7.3l18.375 18.4q.3.3.3.7t-.3.7t-.7.3t-.7-.3M20 17.3l-1-1V16q0-.425-.287-.712T18 15h-.125q-.075 0-.125.025l-.75-.75q.225-.125.475-.2T18 14q.825 0 1.413.588T20 16zM13 9V2.075q2.6.375 4.3 2.338T19 9zm2.45 3.7L13.775 11H19v1.1q-.25-.05-.488-.075T18 12q-.7 0-1.338.175t-1.212.525M12 22q-2.925 0-4.962-2.037T5 15v-4h6l3 3q-.475.625-.737 1.388T13 17v4.925q-.25.05-.488.063T12 22M11 8.2L6.975 4.125q.8-.8 1.813-1.338T11 2.076zM5 9q0-.875.2-1.687t.575-1.538L9 9z"/></svg>