<svg xmlns="http://www.w3.org/2000/svg" viewBox="0 0 24 24" width="24" height="24"><path fill="currentColor" d="M8 18q-.825 0-1.412-.587T6 16v-1q0-.425.288-.712T7 14t.713.288T8 15v1h12V6H8v1q0 .425-.288.713T7 8t-.712-.288T6 7V4q0-.825.588-1.412T8 2h12q.825 0 1.413.588T22 4v12q0 .825-.587 1.413T20 18zm-4 4q-.825 0-1.412-.587T2 20V7q0-.425.288-.712T3 6t.713.288T4 7v13h13q.425 0 .713.288T18 21t-.288.713T17 22zm9.175-10H7q-.425 0-.712-.288T6 11t.288-.712T7 10h6.175l-.9-.9Q12 8.825 12 8.413t.3-.713q.275-.275.7-.275t.7.275l2.6 2.6q.3.3.3.7t-.3.7l-2.6 2.6q-.275.275-.687.288T12.3 14.3q-.275-.275-.275-.7t.275-.7z"/></svg>