<svg xmlns="http://www.w3.org/2000/svg" viewBox="0 0 24 24" width="24" height="24"><path fill="currentColor" d="M20.15 13H9q-.425 0-.712-.288T8 12t.288-.712T9 11h11.15l-.85-.85q-.3-.3-.288-.7t.288-.7q.3-.3.712-.312t.713.287L23.3 11.3q.3.3.3.7t-.3.7l-2.575 2.575q-.3.3-.712.288t-.713-.313q-.275-.3-.288-.7t.288-.7zM15 8V5H5v14h10v-3q0-.425.288-.712T16 15t.713.288T17 16v3q0 .825-.587 1.413T15 21H5q-.825 0-1.412-.587T3 19V5q0-.825.588-1.412T5 3h10q.825 0 1.413.588T17 5v3q0 .425-.288.713T16 9t-.712-.288T15 8"/></svg>