<svg xmlns="http://www.w3.org/2000/svg" viewBox="0 0 24 24" width="24" height="24"><path fill="currentColor" d="m6.825 17l.9.9q.275.275.275.688t-.3.712q-.275.275-.7.275t-.7-.275l-2.6-2.6q-.15-.15-.213-.325T3.426 16t.063-.375t.212-.325l2.6-2.6q.275-.275.688-.275t.712.275q.3.3.3.713t-.3.712L6.825 15H10q.425 0 .713.288T11 16t-.288.713T10 17zM14 17q-.425 0-.712-.288T13 16t.288-.712T14 15t.713.288T15 16t-.288.713T14 17m4 0q-.425 0-.712-.288T17 16t.288-.712T18 15t.713.288T19 16t-.288.713T18 17m-.825-8H14q-.425 0-.712-.288T13 8t.288-.712T14 7h3.175l-.9-.9Q16 5.825 16 5.413t.3-.713q.275-.275.7-.275t.7.275l2.6 2.6q.15.15.213.325t.062.375t-.062.375t-.213.325l-2.6 2.6q-.275.275-.687.275T16.3 11.3q-.3-.3-.3-.712t.3-.713zM6 9q-.425 0-.712-.288T5 8t.288-.712T6 7t.713.288T7 8t-.288.713T6 9m4 0q-.425 0-.712-.288T9 8t.288-.712T10 7t.713.288T11 8t-.288.713T10 9"/></svg>