<svg xmlns="http://www.w3.org/2000/svg" viewBox="0 0 24 24" width="24" height="24"><path fill="currentColor" d="M2 22v-2h2v-9h-.65q-.575 0-.962-.4T2 9.625q0-.3.138-.55t.387-.425L10.85 2.8q.275-.2.563-.288T12 2.425t.588.088t.562.287l8.325 5.85q.25.175.388.438T22 9.65q0 .575-.387.963T20.65 11H20v9h2v2zm7-4q.425 0 .713-.288T10 17v-3l1.175 1.75q.15.225.363.338T12 16.2t.463-.112t.362-.338L14 14v3q0 .425.288.713T15 18t.713-.288T16 17v-5.175q0-.35-.238-.587T15.176 11h-.725q-.2 0-.387.1t-.313.275L12 14l-1.7-2.55q-.125-.2-.35-.325T9.475 11H9q-.425 0-.712.288T8 12v5q0 .425.288.713T9 18"/></svg>