<svg xmlns="http://www.w3.org/2000/svg" viewBox="0 0 24 24" width="24" height="24"><path fill="currentColor" d="M14 20q-1.65 0-2.825-1.175T10 16t1.175-2.825T14 12q.575 0 1.063.138t.937.412V5q0-.425.288-.712T17 4h4q.425 0 .713.288T22 5v1q0 .425-.288.713T21 7h-3v9q0 1.65-1.175 2.825T14 20M6.95 8.925q-1.2 1.2-1.95 2.738t-.95 3.287q-.05.425-.337.738T3 16t-.712-.325t-.238-.75q.2-2.175 1.113-4.062t2.362-3.338t3.338-2.363t4.062-1.112q.425-.05.75.238T14 5t-.312.713t-.738.337q-1.75.2-3.275.938T6.95 8.925m2.825 2.825q-.65.65-1.1 1.488t-.6 1.787q-.075.425-.362.7T7 16t-.7-.312t-.225-.738q.175-1.35.763-2.512T8.35 10.35t2.088-1.512t2.512-.763q.425-.05.738.225T14 9t-.275.713t-.7.362q-.95.15-1.775.588T9.775 11.75"/></svg>