<svg xmlns="http://www.w3.org/2000/svg" viewBox="0 0 24 24" width="24" height="24"><path fill="currentColor" d="M11 18q2.9 0 4.95-2.037T18 11q0-2.9-2.05-4.95T11 4Q8.075 4 6.038 6.05T4 11q0 2.925 2.038 4.963T11 18m0-4.5q1.05 0 1.775-.712T13.5 11q0-1.05-.725-1.775T11 8.5q-1.075 0-1.787.725T8.5 11q0 1.075.713 1.788T11 13.5m0 1.5q-1.8 0-3.338-.962T5.25 11.474q-.125-.225-.125-.475t.125-.475q.875-1.6 2.413-2.562T11 7t3.325.975t2.4 2.55q.125.225.125.475t-.125.475q-.875 1.6-2.4 2.563T11 15m0-2.5q.625 0 1.063-.425T12.5 11q0-.625-.437-1.062T11 9.5q-.65 0-1.075.438T9.5 11q0 .65.425 1.075T11 12.5m0 7.5q-1.875 0-3.512-.712t-2.85-1.925t-1.926-2.85T2 11q0-1.85.713-3.488T4.637 4.65t2.85-1.938T11 2q1.85 0 3.488.713T17.35 4.65t1.938 2.863T20 11q0 1.6-.525 3.025t-1.45 2.6L21.3 19.9q.3.3.288.7t-.313.7q-.3.275-.7.275t-.7-.275L16.6 18.05q-1.175.925-2.6 1.438T11 20"/></svg>