<svg xmlns="http://www.w3.org/2000/svg" viewBox="0 0 24 24" width="24" height="24"><path fill="currentColor" d="M22 11.975q0 .375-.15.75t-.45.675l-1.7 1.7q-.375.375-.9.375t-.9-.375t-.375-.9t.375-.9l1.3-1.3L12 4.8l-1.3 1.3q-.375.375-.9.375T8.9 6.1t-.375-.9t.375-.9l1.65-1.65q.3-.3.675-.463T12 2.025t.763.15t.662.45L21.4 10.6q.3.275.45.638t.15.737M16.05 18.8l-2.65 2.6q-.3.275-.663.425t-.737.15t-.737-.137t-.663-.438l-7.975-7.975q-.3-.3-.45-.663t-.15-.737t.15-.737t.45-.663l2.575-2.6L2.1 4.9q-.275-.275-.288-.687T2.1 3.5q.275-.275.7-.275t.7.275l17.025 17.025q.275.275.275.675t-.275.675t-.687.275t-.688-.275zM4.825 12.025L12 19.2l2.25-2.2l-1.425-1.425l-.125.125q-.3.3-.7.3t-.7-.3l-2.975-2.975q-.3-.3-.3-.7t.3-.7l.125-.125l-1.4-1.4zM16 12.4q-.175.175-.4.175t-.4-.175l-3.6-3.6q-.175-.175-.175-.4T11.6 8t.4-.175t.4.175l3.6 3.6q.175.175.175.4t-.175.4"/></svg>