<svg xmlns="http://www.w3.org/2000/svg" viewBox="0 0 24 24" width="24" height="24"><path fill="currentColor" d="M21 18q-.425 0-.712-.288T20 17v-6q0-.425.288-.712T21 10t.713.288T22 11v6q0 .425-.288.713T21 18m0 4q-.425 0-.712-.288T20 21t.288-.712T21 20t.713.288T22 21t-.288.713T21 22m-9 0q-.375 0-.737-.15t-.663-.45l-8-8q-.3-.3-.45-.663T2 12t.15-.737t.45-.663l8-8q.3-.3.663-.45T12 2t.738.15t.662.45l4.225 4.225q.2.2.288.413t.087.487q0 .575-.387.925t-.888.35q-.25 0-.475-.088t-.425-.287L12 4.8L4.8 12l7.2 7.2l3.825-3.825q.2-.2.438-.288t.462-.087q.5 0 .888.35t.387.925q0 .275-.088.488t-.287.412L13.4 21.4q-.3.3-.663.45T12 22m-.7-6.3l-3-3q-.15-.15-.225-.325T8 12t.075-.375t.225-.325l3-3q.15-.15.325-.225T12 8t.375.075t.325.225l3 3q.15.15.225.325T16 12t-.075.375t-.225.325l-3 3q-.15.15-.325.225T12 16t-.375-.075t-.325-.225"/></svg>