<svg xmlns="http://www.w3.org/2000/svg" viewBox="0 0 24 24" width="24" height="24"><path fill="currentColor" d="M12 22q-2.075 0-3.9-.788t-3.175-2.137T2.788 15.9T2 12t.788-3.9t2.137-3.175T8.1 2.788T12 2q2.1 0 3.95.813t3.213 2.2t2.125 3.262T22 12.25q-.75-.575-1.65-.913T18.5 11q-.475 0-.925.075t-.875.225q-.175-1.025-.788-1.663T14.35 9q-1.125 0-1.762.863T11.95 12q0 .95.35 1.663t1 1.062q-.125.425-.213.863T13 16.5q0 1.475.725 2.738t2 2.037q-.9.35-1.838.538T12 22m1.725-8.225q-.35-.25-.513-.725T13.05 12q0-.6.275-1.287t1.025-.688q.7 0 .975.6t.325 1.175q-.6.35-1.088.863t-.837 1.112M18.5 20q-1.45 0-2.475-1.025T15 16.5t1.025-2.475T18.5 13t2.475 1.025T22 16.5t-1.025 2.475T18.5 20m-7.875-5.125q.2 0 .338-.15t.137-.35t-.137-.337t-.338-.138h-1.85l-.025-.05q.5-.5.838-.825t.537-.525q.45-.45.688-.9t.237-.925q0-.675-.513-1.175T9.126 9q-.65 0-1.175.375t-.7.95l-.05.2q0 .225.163.375t.387.15q.175 0 .313-.113t.187-.287q.1-.275.338-.45t.512-.175q.575 0 .688.313t.112.387q0 .2-.075.413t-.45.637q-.175.2-.587.613l-.913.912l-.425.425q-.05.05-.15.35v.3q0 .2.15.35t.35.15z"/></svg>