<svg xmlns="http://www.w3.org/2000/svg" viewBox="0 0 24 24" width="24" height="24"><path fill="currentColor" d="M12 22q-2.075 0-3.9-.788t-3.175-2.137T2.788 15.9T2 12t.788-3.9t2.137-3.175T8.1 2.788T12 2q2.1 0 3.95.813t3.213 2.2t2.125 3.262T22 12.25q-.75-.575-1.65-.913T18.5 11q-.475 0-.925.075t-.875.225q-.175-1.025-.788-1.663T14.35 9q-1.125 0-1.762.863T11.95 12q0 .95.35 1.663t1 1.062q-.125.425-.213.863T13 16.5q0 1.475.725 2.738t2 2.037q-.9.35-1.838.538T12 22m1.725-8.225q-.35-.25-.513-.725T13.05 12q0-.6.275-1.287t1.025-.688q.7 0 .975.6t.325 1.175q-.6.35-1.088.863t-.837 1.112M18.5 20q-1.45 0-2.475-1.025T15 16.5t1.025-2.475T18.5 13t2.475 1.025T22 16.5t-1.025 2.475T18.5 20m-8.55-9.775l-2.15 3.8q-.125.2-.05.4t.275.325q.2.1.388.05t.312-.25l2.375-4.2q.025-.05.075-.25v-.475q0-.2-.15-.35t-.35-.15h-2.85q-.2 0-.363.15t-.162.35t.15.363t.35.162h2.1z"/></svg>