<svg xmlns="http://www.w3.org/2000/svg" viewBox="0 0 24 24" width="24" height="24"><path fill="currentColor" d="M12.75 12.75h.95L15.95 15q.225.225.525.225T17 15t.225-.525T17 13.95l-1.2-1.2h1.45q.325 0 .537-.213T18 12t-.213-.537t-.537-.213H15.8l1.2-1.2q.225-.225.225-.525T17 9t-.525-.225T15.95 9l-2.25 2.25h-.95v-.95L15 8.05q.225-.225.225-.525T15 7t-.525-.225T13.95 7l-1.2 1.2V6.75q0-.325-.213-.538T12 6t-.537.213t-.213.537v10.5q0 .325.213.538T12 18t.538-.213t.212-.537V15.8l1.2 1.2q.225.225.525.225T15 17t.225-.525T15 15.95l-2.25-2.25zM12 22q-2.075 0-3.9-.788t-3.175-2.137T2.788 15.9T2 12t.788-3.9t2.137-3.175T8.1 2.788T12 2t3.9.788t3.175 2.137T21.213 8.1T22 12t-.788 3.9t-2.137 3.175t-3.175 2.138T12 22M7.4 11.4q-.35.625-.625 1.263T6.5 14.025q0 .45.138.875t.387.8q.275.4.713.513t.812-.163q.35-.25.425-.65t-.2-.7q-.125-.15-.2-.325T8.5 14q0-.45.225-.837t.425-.788q.325-.575.588-1.2t.262-1.3q0-.45-.15-.875t-.425-.775q-.275-.375-.737-.475t-.813.175q-.325.275-.362.675t.237.675q.125.125.188.288T8 9.9q0 .425-.2.788t-.4.712"/></svg>