<svg xmlns="http://www.w3.org/2000/svg" viewBox="0 0 24 24" width="24" height="24"><path fill="currentColor" d="m9.95 10.225l-2.15 3.8q-.125.2-.05.4t.275.325q.2.1.388.05t.312-.25l2.375-4.2q.025-.05.075-.25v-.475q0-.2-.163-.35t-.362-.15H7.8q-.2 0-.35.15t-.15.35t.163.363t.362.162H9.9zM14.35 15q1.125 0 1.763-.862T16.75 12t-.65-2.137T14.35 9q-1.125 0-1.762.863T11.95 12t.638 2.138T14.35 15m0-1.025q-.65 0-.975-.587T13.05 12q0-.6.275-1.287t1.025-.688t1.025.688T15.65 12q0 .8-.325 1.388t-.975.587M12 22q-2.075 0-3.9-.788t-3.175-2.137T2.788 15.9T2 12t.788-3.9t2.137-3.175T8.1 2.788T12 2t3.9.788t3.175 2.137T21.213 8.1T22 12t-.788 3.9t-2.137 3.175t-3.175 2.138T12 22"/></svg>