<svg xmlns="http://www.w3.org/2000/svg" viewBox="0 0 24 24" width="24" height="24"><path fill="currentColor" d="M1.05 10.05Q.6 9.6.625 8.962t.525-1.037q1.125-.9 2.363-1.637T6.125 5.05t2.8-.762T11.8 4q.6 0 .988.463T13.1 5.55t-.55 1.025T11.425 7q-1.075.05-2.113.263t-2.037.562q-1.125.4-2.137.975t-1.913 1.3q-.5.4-1.125.388t-1.05-.438m6.425 4.375q-.675.5-1.287.35t-.963-.575t-.35-1t.5-.975q.8-.625 1.713-1.062t1.862-.713q.7-.2 1.175.138t.65.862t-.037 1.075t-.938.775q-.625.2-1.212.475t-1.113.65M11.3 19.85q-.8-.275-1.175-1.062T10.1 17.3l6-12.2q.1-.2.288-.262t.412.012q.2.075.3.263t.05.387L13.9 18.65q-.2.8-.987 1.163t-1.613.037m11.675-9.9q-.375.425-.975.538t-1.25-.413q-.2-.2-.488-.387t-.512-.338Q19.075 8.9 19 8.3t.2-1.075t.813-.675t1.112.15q.425.275.888.612t.837.638q.525.425.513 1t-.388 1m-3.2 5.35q-.4.4-.987.475t-1.163-.425l-.137-.137q-.088-.088-.163-.138q-.6-.5-.6-1.1t.35-1.05t.95-.587t1.175.337q.125.125.288.263t.287.262q.5.5.45 1.1t-.45 1"/></svg>