<svg xmlns="http://www.w3.org/2000/svg" viewBox="0 0 24 24" width="24" height="24"><path fill="currentColor" d="M8.075 20q-.275 0-.512-.137t-.363-.388L5.25 16H6.7l.725 1.45q.125.275.375.413t.525.137H9.5q.2 0 .35-.15t.15-.35t-.15-.35T9.5 17H8.3l-.725-1.45q-.125-.275-.375-.413T6.675 15H4.7l-1.425-2.5q-.05-.125-.087-.25T3.15 12q0-.1.125-.5L4.7 9h1.975q.275 0 .525-.137t.375-.413L8.3 7h1.2q.2 0 .35-.15T10 6.5t-.15-.35T9.5 6H8.325q-.275 0-.525.138t-.375.412L6.7 8H5.25L7.2 4.525q.125-.25.363-.387T8.075 4H10.5q.425 0 .713.288T11.5 5v4H10q-.2 0-.35.15t-.15.35t.15.35t.35.15h1.5v3H9.3l-.725-1.45q-.125-.275-.375-.413T7.675 11H6q-.2 0-.35.15t-.15.35t.15.35T6 12h1.7l.725 1.45q.125.275.375.413t.525.137H11.5v5q0 .425-.287.713T10.5 20zM14 20q-.825 0-1.412-.587T12 18q0-.575.275-1.012t.725-.713v-8.55q-.45-.275-.725-.712T12 6q0-.825.588-1.412T14 4t1.413.588T16 6q0 .575-.275 1.013T15 7.725v2.525l2-1.2q0-.85.588-1.45T19 7t1.413.588T21 9t-.587 1.413T19 11q-.275 0-.513-.062t-.462-.188l-2.275 1.375l2.525 2q.175-.075.35-.1T19 14q.825 0 1.413.588T21 16t-.587 1.413T19 18q-.925 0-1.513-.7t-.462-1.6L15 14.075V16.3q.45.275.713.713t.262.987q0 .825-.575 1.413T14 20"/></svg>