<svg xmlns="http://www.w3.org/2000/svg" viewBox="0 0 24 24" width="24" height="24"><path fill="currentColor" d="m19.775 22.575l-2.25-2.225q-1.2.8-2.587 1.225T12 22q-2.075 0-3.9-.788t-3.175-2.137q-1.35-1.35-2.137-3.175T2 12q0-1.55.425-2.938T3.65 6.476L1.375 4.2q-.3-.3-.287-.712t.312-.713q.3-.3.713-.3t.712.3l18.375 18.4q.3.3.3.7t-.3.7q-.3.3-.713.3t-.712-.3ZM6 12q0 2.5 1.75 4.25T12 18q.425 0 .8-.05t.75-.15q.1-.025.3-.375q.025-.125-.037-.25t-.188-.2q-.65-.375-1.25-1.1t-.95-1.625L6.575 9.4q-.275.6-.425 1.25T6 12Zm14.375 5.5l-8.55-8.55q.4-.675.9-1.2t.9-.725q.125-.1.188-.213t.037-.237q-.025-.125-.1-.225t-.2-.15q-.375-.1-.75-.15T12 6q-.7 0-1.337.15t-1.213.425L6.5 3.625q1.2-.775 2.588-1.2T12 2q2.075 0 3.9.788t3.175 2.137q1.35 1.35 2.138 3.175T22 12q0 1.525-.425 2.913t-1.2 2.587Z"/></svg>