<svg xmlns="http://www.w3.org/2000/svg" viewBox="0 0 24 24" width="24" height="24"><path fill="currentColor" d="M17 8h-2q-.425 0-.712-.288T14 7t.288-.712T15 6h2V4q0-.425.288-.712T18 3t.713.288T19 4v2h2q.425 0 .713.288T22 7t-.288.713T21 8h-2v2q0 .425-.288.713T18 11t-.712-.288T17 10zm1.35 8.175q-.95 2.2-2.937 3.513T11 21q-3.35 0-5.675-2.325T3 13q0-2.875 1.837-5.075T9.5 5.15q.3-.05.538.05t.362.325t.15.538t-.1.662q-.225.55-.337 1.125T10 9q0 2.5 1.75 4.25T16 15q.275 0 .525-.012t.5-.063q.45-.075.738.025t.462.3t.212.438t-.087.487"/></svg>