<svg xmlns="http://www.w3.org/2000/svg" viewBox="0 0 24 24" width="24" height="24"><path fill="currentColor" d="m19.775 22.575l-1.8-1.775q-.1.5-.513.85T16.5 22h-13q-.625 0-1.062-.437T2 20.5v-9.6q0-.625.438-1.062T3.5 9.4h2.65l.2-.225L1.375 4.2q-.3-.3-.3-.712t.3-.713t.713-.3t.712.3l18.4 18.4q.3.3.3.7t-.3.7t-.712.3t-.713-.3M9.25 12.075q-1.425.3-2.337 1.375T6 16q0 1.65 1.175 2.825T10 20q1.475 0 2.575-.925t1.375-2.325l-.012.025l.012-.025zM10 18q-.825 0-1.412-.587T8 16t.588-1.412T10 14t1.413.588T12 16t-.587 1.413T10 18m9-11h-.5q-.2 0-.35-.15T18 6.5v-4q0-.2.15-.35T18.5 2h2.725q.275 0 .438.225t.037.475l-1.3 2.9h.75q.275 0 .413.25t.012.5l-2.1 3.8q-.1.175-.288.125t-.187-.25zm-1 3.9v1.8q0 .675-.612.938t-1.088-.213L12.575 9.7q-.35-.35-.312-.737t.312-.663t.663-.312t.737.312L15.1 9.4h1.4q.625 0 1.063.438T18 10.9"/></svg>