<svg xmlns="http://www.w3.org/2000/svg" viewBox="0 0 24 24" width="24" height="24"><path fill="currentColor" d="M12 4q-.425 0-.712-.288T11 3t.288-.712T12 2t.713.288T13 3t-.288.713T12 4m0 18q-.425 0-.712-.288T11 21t.288-.712T12 20t.713.288T13 21t-.288.713T12 22M4.975 7.375q-.425 0-.712-.288t-.288-.712t.288-.712t.712-.288t.713.288t.287.712t-.287.713t-.713.287m14.05 11.25q-.425 0-.712-.288t-.288-.712t.288-.712t.712-.288t.713.288t.287.712t-.287.713t-.713.287M3.225 15q-.425 0-.713-.288T2.226 14t.288-.712t.712-.288t.713.288t.287.712t-.287.713t-.713.287m17.55-4q-.425 0-.712-.288T19.775 10t.288-.712t.712-.288t.713.288t.287.712t-.287.713t-.713.287M8.1 21.125q-.425 0-.712-.288t-.288-.712t.288-.712t.712-.288t.713.288t.287.712t-.288.713t-.712.287m7.8-16.25q-.425 0-.712-.288t-.288-.712t.288-.712t.712-.288t.713.288t.287.712t-.287.713t-.713.287m0 16.225q-.425 0-.712-.288T14.9 20.1t.288-.712t.712-.288t.713.288t.287.712t-.287.713t-.713.287M8.1 4.875q-.425 0-.712-.288T7.1 3.876t.288-.712t.712-.288t.713.288t.287.712t-.288.713t-.712.287M20.775 15q-.425 0-.712-.288T19.775 14t.288-.712t.712-.288t.713.288t.287.712t-.287.713t-.713.287M3.2 11q-.425 0-.713-.288T2.2 10t.288-.712T3.2 9t.713.288T4.2 10t-.288.713T3.2 11m15.825-3.625q-.425 0-.712-.288t-.288-.712t.288-.712t.712-.288t.713.288t.287.712t-.287.713t-.713.287m-14.05 11.25q-.425 0-.712-.288t-.288-.712t.288-.712t.712-.288t.713.288t.287.712t-.287.713t-.713.287m8-.625q-.975 0-1.75-.6T10.1 15.85q-.075-.2-.162-.388t-.238-.337L8.45 13.85q-.65-.65-1.05-1.5t-.4-1.8q0-1.875 1.313-3.213T11.5 6q1.3 0 2.388.688T15.55 8.55q.25.5-.038.975T14.65 10q-.3 0-.537-.162T13.75 9.4q-.325-.65-.925-1.025T11.5 8q-1.05 0-1.775.725T9 10.5q0 .525.188 1t.562.85l1.375 1.35q.35.35.563.763t.362.862q.125.3.375.488T13 16q.275 0 .513-.137t.362-.388q.125-.225.35-.35t.5-.125q.575 0 .875.475t.025.975q-.4.725-1.112 1.138T12.974 18m.525-4q.625 0 1.063-.437T15 12.5t-.437-1.062T13.5 11t-1.062.438T12 12.5t.438 1.063T13.5 14"/></svg>