<svg xmlns="http://www.w3.org/2000/svg" viewBox="0 0 24 24" width="24" height="24"><path fill="currentColor" d="M5 21q-.825 0-1.412-.587T3 19V5q0-.825.588-1.412T5 3h4.2q.325-.9 1.088-1.45T12 1t1.713.55T14.8 3H19q.825 0 1.413.588T21 5v14q0 .825-.587 1.413T19 21zm7-16.75q.325 0 .538-.213t.212-.537t-.213-.537T12 2.75t-.537.213t-.213.537t.213.538t.537.212M7.5 17h1.2q.2 0 .388-.088T9.4 16.7l5.7-5.65l-2.15-2.15l-5.65 5.65q-.15.15-.225.337T7 15.276V16.5q0 .2.15.35t.35.15m8.3-6.65l1.05-1.1Q17 9.1 17 8.9t-.15-.35l-1.4-1.4Q15.3 7 15.1 7t-.35.15l-1.1 1.05z"/></svg>