<svg xmlns="http://www.w3.org/2000/svg" viewBox="0 0 24 24" width="24" height="24"><path fill="currentColor" d="M17.5 10.7q0 .425-.075.85t-.25.825q-.175.425-.575.6t-.8-.025q-.375-.175-.525-.575t.05-.75q.125-.225.15-.45t.025-.475t-.037-.487t-.138-.463q-.15-.35 0-.7t.5-.525q.375-.175.763-.012t.587.537q.2.4.263.813t.062.837m3.5 0q0 1.25-.375 2.425T19.5 15.3q-.225.3-.638.288t-.687-.288t-.3-.675t.2-.75q.475-.7.7-1.513T19 10.7t-.225-1.662t-.7-1.513q-.225-.35-.2-.75t.3-.675t.688-.287t.637.287q.75 1 1.125 2.175T21 10.7M12 22q-.825 0-1.412-.587T10 20h4q0 .825-.587 1.413T12 22m-7-3q-.425 0-.712-.288T4 18t.288-.712T5 17h1v-7q0-2.075 1.25-3.687T10.5 4.2v-.7q0-.625.438-1.062T12 2t1.063.438T13.5 3.5v.7q.35.1.688.225t.662.3q.475.275.513.8T15 6.45l-1.4 1.425q-.275.275-.437.638T13 9.275v2.85q0 .4.15.763t.425.637L17.35 17.3q.475.475.213 1.087t-.938.613z"/></svg>