<svg xmlns="http://www.w3.org/2000/svg" viewBox="0 0 24 24" width="24" height="24"><path fill="currentColor" d="M5 19q-.425 0-.712-.288T4 18t.288-.712T5 17h1v-7q0-2.075 1.25-3.687T10.5 4.2v-.7q0-.625.438-1.062T12 2t1.063.438T13.5 3.5v.7q2 .5 3.25 2.113T18 10v7h1q.425 0 .713.288T20 18t-.288.713T19 19zm7 3q-.825 0-1.412-.587T10 20h4q0 .825-.587 1.413T12 22m0-9q.425 0 .713-.288T13 12V9q0-.425-.288-.712T12 8t-.712.288T11 9v3q0 .425.288.713T12 13m0 3q.425 0 .713-.288T13 15t-.288-.712T12 14t-.712.288T11 15t.288.713T12 16"/></svg>