<svg xmlns="http://www.w3.org/2000/svg" viewBox="0 0 24 24" width="24" height="24"><path fill="currentColor" d="M12 22q-.825 0-1.412-.587T10 20h4q0 .825-.587 1.413T12 22m6-12h-2q-.425 0-.712-.288T15 9t.288-.712T16 8h2V6q0-.425.288-.712T19 5t.713.288T20 6v2h2q.425 0 .713.288T23 9t-.288.713T22 10h-2v2q0 .425-.288.713T19 13t-.712-.288T18 12zM5 19q-.425 0-.712-.288T4 18t.288-.712T5 17h1v-7q0-2.075 1.25-3.687T10.5 4.2v-.7q0-.625.438-1.062T12 2t1.063.438T13.5 3.5v.7q.1.025.175.05t.175.05q.35.125.438.5t-.163.7q-.55.725-.837 1.625T13 9q0 2.05 1.2 3.613t3.075 2.137q.325.1.525.338t.2.562V17h1q.425 0 .713.288T20 18t-.288.713T19 19z"/></svg>