<svg xmlns="http://www.w3.org/2000/svg" viewBox="0 0 24 24" width="24" height="24"><path fill="currentColor" d="M4 21q-.425 0-.712-.288T3 20t.288-.712T4 19h1v-6H4q-.425 0-.712-.288T3 12t.288-.712T4 11h1V5H4q-.425 0-.712-.288T3 4t.288-.712T4 3h16q.425 0 .713.288T21 4t-.288.713T20 5h-1v6h1q.425 0 .713.288T21 12t-.288.713T20 13h-1v6h1q.425 0 .713.288T21 20t-.288.713T20 21zm8-5q1.25 0 2.125-.862T15 13.05q0-.5-.112-.85t-.463-.825L12.75 9.4q-.3-.35-.763-.35t-.762.35l-1.65 1.95q-.35.475-.462.838T9 13.05q0 1.225.875 2.088T12 16"/></svg>