<svg xmlns="http://www.w3.org/2000/svg" viewBox="0 0 24 24" width="24" height="24"><path fill="currentColor" d="M12 22.025q-.35 0-.687-.112T10.7 21.6l-.9-.65q-.275-.2-.6-.312t-.675-.113H7.4q-.725 0-1.287-.425T5.325 19l-.35-1.05q-.125-.35-.325-.625t-.475-.475l-.9-.65q-.575-.425-.775-1.1t0-1.35l.325-1.05q.1-.35.1-.675t-.1-.675L2.5 10.275q-.2-.675 0-1.35t.775-1.1l.9-.65q.275-.2.475-.475t.325-.625l.35-1.05q.225-.675.788-1.1T7.4 3.5h1.125q.35 0 .675-.1t.6-.3l.9-.675q.275-.2.613-.313T12 2t.688.113t.612.312l.9.675q.275.2.6.3t.675.1H16.6q.725 0 1.288.425t.787 1.1l.35 1.05q.125.325.313.613t.462.487l.9.65q.575.425.8 1.1t0 1.35l-.35 1.075q-.125.35-.125.675t.125.675l.35 1.05q.225.675 0 1.35t-.8 1.1l-.9.65q-.275.2-.462.488t-.313.612l-.35 1.05q-.225.675-.788 1.1t-1.287.425h-1.125q-.35 0-.675.113t-.6.312l-.9.65q-.275.2-.612.313t-.688.112m.1-5.7q.725.75 1.775.75t1.8-.75l.35-.35q.3-.3.3-.712t-.3-.713t-.7-.288t-.7.288l-.375.35q-.15.15-.35.15t-.35-.15t-.15-.35t.15-.35l2.125-2.125q.725-.725.725-1.762t-.725-1.763t-1.775-.725t-1.775.725L9.3 11.375q-.15.15-.35.15t-.35-.15t-.15-.35t.15-.35L10.375 8.9q.275-.275.275-.687t-.275-.713q-.3-.3-.712-.3t-.713.3L7.2 9.25q-.75.725-.737 1.775T7.2 12.8t1.763.725t1.762-.725l2.825-2.85q.15-.15.35-.15t.35.15t.15.363t-.15.362l-2.1 2.125q-.725.725-.75 1.763t.7 1.762"/></svg>