<svg xmlns="http://www.w3.org/2000/svg" viewBox="0 0 24 24" width="24" height="24"><path fill="currentColor" d="M6 21.5q-1.45 0-2.475-1.025T2.5 18t1.025-2.475T6 14.5t2.475 1.025T9.5 18q0 .55-.162 1.063t-.488.962v-.675q.75.325 1.55.488T12 20q3.075 0 5.313-2t2.612-4.975q.05-.425.35-.725T21 12t.713.3t.237.725q-.4 3.8-3.225 6.388T12 22q-1.125 0-2.2-.238t-2.075-.712q-.4.225-.837.338T6 21.5m6-6q-1.45 0-2.475-1.025T8.5 12t1.025-2.475T12 8.5t2.475 1.025T15.5 12t-1.025 2.475T12 15.5M12 4Q8.925 4 6.688 6t-2.613 4.975q-.05.425-.35.725T3 12t-.712-.3t-.238-.725q.4-3.8 3.225-6.387T12 2q1.125 0 2.2.238t2.075.712q.4-.225.838-.338T18 2.5q1.45 0 2.475 1.025T21.5 6t-1.025 2.475T18 9.5t-2.475-1.025T14.5 6q0-.55.163-1.062t.487-.963v.675q-.75-.325-1.55-.488T12 4"/></svg>