<svg xmlns="http://www.w3.org/2000/svg" viewBox="0 0 24 24" width="24" height="24"><path fill="currentColor" d="M18.175 17H15q-.425 0-.712-.288T14 16t.288-.712T15 15h3.175l-.9-.9Q17 13.825 17 13.413t.3-.713q.275-.275.7-.275t.7.275l2.6 2.6q.125.125.2.312t.075.388t-.075.387t-.2.313l-2.6 2.6q-.275.275-.687.288T17.3 19.3q-.275-.275-.275-.7t.275-.7zM10.4 11L17 7.15V5h-.25L10.4 8.675L4.225 5H4v2.2zm-6.525 6q-.775 0-1.325-.55T2 15.125V4.875q0-.775.55-1.325T3.875 3h13.25q.775 0 1.325.55T19 4.875V9.2q0 .35-.275.6t-.625.225q-1.225-.05-2.337.4t-1.988 1.325t-1.338 2t-.412 2.35q.025.35-.225.625t-.6.275z"/></svg>