<svg xmlns="http://www.w3.org/2000/svg" viewBox="0 0 24 24" width="24" height="24"><path fill="currentColor" d="M5 21q-.825 0-1.412-.587T3 19V5q0-.825.588-1.412T5 3h14q.825 0 1.413.588T21 5v1q0 .425-.288.713T20 7t-.712-.288T19 6V5H5v14h14v-1q0-.425.288-.712T20 17t.713.288T21 18v1q0 .825-.587 1.413T19 21zm13.175-8H10q-.425 0-.712-.288T9 12t.288-.712T10 11h8.175L16.3 9.1q-.275-.275-.288-.687T16.3 7.7q.275-.275.7-.275t.7.275l3.6 3.6q.15.15.213.325t.062.375t-.062.375t-.213.325l-3.6 3.6q-.275.275-.687.288T16.3 16.3q-.275-.275-.275-.7t.275-.7z"/></svg>