<svg xmlns="http://www.w3.org/2000/svg" viewBox="0 0 24 24" width="24" height="24"><path fill="currentColor" d="M7 13q-1.65 0-2.825-1.175T3 9t1.175-2.825T7 5h1V2q0-.425.288-.712T9 1h6q.425 0 .713.288T16 2v3h1q1.65 0 2.825 1.175T21 9t-1.175 2.825T17 13h-2.325q.275-.275.488-.612t.337-.713q.075-.25.275-.425t.45-.225q.4-.1.613-.45t.112-.75t-.45-.625t-.75-.125q-.75.2-1.325.713T13.6 11.05q-.125.425-.5.688t-.825.262h-.55q-.45 0-.825-.262t-.5-.688q-.25-.75-.825-1.263T8.25 9.076q-.4-.1-.75.125t-.45.625t.113.75t.612.45q.25.05.45.225t.275.425q.125.375.338.713t.487.612zm1 9q-.525 0-.987-.262T6.275 21H4q-1.25 0-2.125-.875T1 18v-3q0-.425.288-.712T2 14t.713.288T3 15v3q0 .425.288.713T4 19h2.275q.275-.475.738-.737T8 18h1v-1q0-.425.288-.712T10 16t.713.288T11 17v1h2v-1q0-.425.288-.712T14 16t.713.288T15 17v1h1q.525 0 .988.263t.737.737H20q.425 0 .713-.288T21 18v-3q0-.425.288-.712T22 14t.713.288T23 15v3q0 1.25-.875 2.125T20 21h-2.275q-.275.475-.737.738T16 22z"/></svg>