<svg xmlns="http://www.w3.org/2000/svg" viewBox="0 0 24 24" width="24" height="24"><path fill="currentColor" d="M12 17q-.825 0-1.412-.587T10 15t.588-1.412T12 13t1.413.588T14 15t-.587 1.413T12 17m-3 7v-3.6q-1.925-.65-2.863-2.15t-1.112-3.4q-.05-.375.263-.612T6 14t.7.25t.35.625q.2 2.1 1.463 3.113T12 19q2.2 0 3.45-1.012t1.5-3.038q.05-.425.338-.687T18 14t.713.275t.237.675q-.175 1.875-1.112 3.338T15 20.4V24zM4.75 12.45L3 8.3q-.125.075-.425.263T2 8.75q-.425 0-.712-.288T1 7.75v-3.5q0-1.775 3.225-3.012T12 0t7.775 1.238T23 4.25v3.5q0 .425-.288.713T22 8.75q-.275 0-.575-.187T21 8.3l-1.75 4.1q-.125.275-.363.438T18.35 13h-.575q-.35 0-.612-.2t-.338-.55L15.5 6.725q-.825-.125-1.7-.175T12 6.5t-1.8.05t-1.7.175L7.175 12.3q-.075.325-.325.513T6.275 13H5.6q-.275 0-.5-.137t-.35-.413m1.125-1.2L6.9 6.975q-.7.15-1.325.325t-1.2.4zm12.25-.025l1.5-3.525q-.575-.225-1.2-.4T17.1 6.975z"/></svg>