<svg xmlns="http://www.w3.org/2000/svg" viewBox="0 0 24 24" width="24" height="24"><path fill="currentColor" d="M9.5 8q-1.25 0-2.125-.875T6.5 5t.875-2.125T9.5 2t2.125.875T12.5 5t-.875 2.125T9.5 8M2 22q-.425 0-.712-.288T1 21t.288-.712T2 20h1v-7.375q0-.875.713-1.625t2.062-1.25q.8-.325 1.825-.537T9.5 9q.85 0 1.913.225t1.937.575q1.275.5 1.963 1.237T16 12.625V13q0 .425-.288.713T15 14h-3.05q-.175-.875-.862-1.437T9.5 12q-1.05 0-1.775.725T7 14.5t.725 1.775T9.5 17q.425 0 .825-.137t.725-.413l.45 1.775q-.5-.125-1.013-.175T9.5 18q-1.925 0-3.338.575T4.6 20H14l-.7-2.75q-.125-.475.175-.862t.8-.388h7.45q.5 0 .8.388t.175.862l-.625 2.475q-.025.075-.037.138T22 20q.425 0 .713.288T23 21t-.288.713T22 22z"/></svg>