<svg xmlns="http://www.w3.org/2000/svg" viewBox="0 0 24 24" width="24" height="24"><path fill="currentColor" d="M3 17h18q.425 0 .713.288T22 18t-.288.713T21 19H3q-.425 0-.712-.288T2 18t.288-.712T3 17m1-5.55l-.475.85q-.15.275-.45.35t-.575-.075t-.35-.45t.075-.575l.475-.85h-.95q-.325 0-.537-.212T1 9.95t.213-.537t.537-.213h.95l-.475-.8q-.15-.275-.075-.575t.35-.45t.575-.075t.45.35l.475.8l.475-.8q.15-.275.45-.35t.575.075t.35.45t-.075.575l-.475.8h.95q.325 0 .538.213T7 9.95t-.213.538t-.537.212H5.3l.475.85q.15.275.075.575t-.35.45t-.575.075t-.45-.35zm8 0l-.475.85q-.15.275-.45.35t-.575-.075t-.35-.45t.075-.575l.475-.85h-.95q-.325 0-.537-.212T9 9.95t.213-.537t.537-.213h.95l-.475-.8q-.15-.275-.075-.575t.35-.45t.575-.075t.45.35l.475.8l.475-.8q.15-.275.45-.35t.575.075t.35.45t-.075.575l-.475.8h.95q.325 0 .537.213T15 9.95t-.213.538t-.537.212h-.95l.475.85q.15.275.075.575t-.35.45t-.575.075t-.45-.35zm8 0l-.475.85q-.15.275-.45.35t-.575-.075t-.35-.45t.075-.575l.475-.85h-.95q-.325 0-.537-.212T17 9.95t.213-.537t.537-.213h.95l-.475-.8q-.15-.275-.075-.575t.35-.45t.575-.075t.45.35l.475.8l.475-.8q.15-.275.45-.35t.575.075t.35.45t-.075.575l-.475.8h.95q.325 0 .538.213T23 9.95t-.213.538t-.537.212h-.95l.475.85q.15.275.075.575t-.35.45t-.575.075t-.45-.35z"/></svg>