<svg xmlns="http://www.w3.org/2000/svg" viewBox="0 0 24 24" width="24" height="24"><path fill="currentColor" d="M4 13q-1.25 0-2.125-.875T1 10t.875-2.125T4 7t2.125.875T7 10t-.875 2.125T4 13m16 0q-1.25 0-2.125-.875T17 10t.875-2.125T20 7t2.125.875T23 10t-.875 2.125T20 13m-5-3q0 .225-.025.45t-.1.45q-.1.275-.413.337t-.562-.187L10.95 8.1q-.225-.225-.175-.537t.325-.438q.225-.075.45-.1T12 7q1.25 0 2.125.875T15 10M3 19q-.425 0-.712-.288T2 18t.288-.712T3 17h11.2L2.1 4.9q-.275-.275-.275-.7t.275-.7t.7-.275t.7.275l17 17q.275.275.275.7t-.275.7t-.7.275t-.7-.275L16.2 19z"/></svg>