<svg xmlns="http://www.w3.org/2000/svg" viewBox="0 0 24 24" width="24" height="24"><path fill="currentColor" d="M9.25 18.5h5.5q.325 0 .538-.213t.212-.537t-.213-.537T14.75 17h-5.5q-.325 0-.537.213t-.213.537t.213.538t.537.212m2.75-3q2.075 0 3.538-1.463T17 10.5t-1.463-3.537T12 5.5T8.463 6.963T7 10.5t1.463 3.538T12 15.5m0-1.675q-.2-.275-.425-.913t-.3-1.662h1.45q-.075 1.025-.3 1.663t-.425.912m-1.8-.325q-.6-.375-1.025-.95t-.575-1.3h1.175q.05.625.15 1.188T10.2 13.5m3.6 0q.175-.5.275-1.062t.15-1.188H15.4q-.15.725-.575 1.3t-1.025.95M8.6 9.75q.15-.725.575-1.3T10.2 7.5q-.175.5-.275 1.062t-.15 1.188zm2.675 0q.075-1.025.3-1.662T12 7.175q.2.275.425.913t.3 1.662zm2.95 0q-.05-.625-.15-1.187T13.8 7.5q.6.375 1.025.95t.575 1.3zM5 22q-.425 0-.712-.288T4 21V3q0-.425.288-.712T5 2h13q.825 0 1.413.588T20 4v16q0 .825-.587 1.413T18 22z"/></svg>