<svg xmlns="http://www.w3.org/2000/svg" viewBox="0 0 24 24" width="24" height="24"><path fill="currentColor" d="M7 11.5v-1h1v1H7ZM6.25 15q.325 0 .537-.213T7 14.25V13h1.5q.425 0 .713-.288T9.5 12v-2q0-.425-.288-.713T8.5 9h-2q-.425 0-.713.288T5.5 10v4.25q0 .325.213.537T6.25 15Zm5.15 0h2q.325 0 .575-.175t.375-.475L12.9 12.9v.6h-1v-1.6l-1.5-1.5V14q0 .425.287.712T11.4 15ZM5 21q-.825 0-1.413-.588T3 19V5q0-.4.138-.775T3.5 3.5l17 17q-.35.225-.725.363T19 21H5Zm14.075.9L2.1 4.9q-.275-.275-.287-.688T2.1 3.5q.275-.275.7-.275t.7.275l17 17q.3.3.288.7t-.313.7q-.3.275-.7.288t-.7-.288ZM21 18.175l-4-4V13h.75q.325 0 .537-.213t.213-.537q0-.325-.213-.537t-.537-.213H17v-1h.75q.325 0 .537-.213t.213-.537q0-.325-.213-.537T17.75 9H16.5q-.425 0-.713.288T15.5 10v2.675l-1.1-1.1V10q0-.425-.288-.713T13.4 9h-1.575l-6-6H19q.825 0 1.413.588T21 5v13.175Z"/></svg>