<svg xmlns="http://www.w3.org/2000/svg" viewBox="0 0 24 24" width="24" height="24"><path fill="currentColor" d="M4 20q-.825 0-1.413-.588T2 18V6q0-.825.588-1.413T4 4h16q.825 0 1.413.588T22 6v12q0 .825-.588 1.413T20 20H4Zm6-6.65l2.95 2.95q.3.3.7.3t.7-.3l3.95-3.95q.275-.275.275-.687t-.275-.713q-.3-.3-.713-.3t-.712.3l-3.225 3.225l-2.95-2.95q-.3-.3-.7-.3t-.7.3l-3.6 3.6q-.275.275-.275.688t.275.712q.3.3.713.3t.712-.3L10 13.35Zm3.05-3.4l.475 1.05q.075.15.225.15t.225-.15l.475-1.05l1.05-.475q.15-.075.15-.225t-.15-.225l-1.05-.475l-.475-1.05q-.075-.15-.225-.15t-.225.15l-.475 1.05l-1.05.475q-.15.075-.15.225t.15.225l1.05.475Z"/></svg>