<svg xmlns="http://www.w3.org/2000/svg" viewBox="0 0 24 24" width="24" height="24"><path fill="currentColor" d="M4 21q-.825 0-1.412-.587T2 19V7q0-.825.588-1.412T4 5h3.15L8.4 3.65q.275-.3.663-.475T9.875 3h4.25q.425 0 .813.175t.662.475L16.85 5H20q.825 0 1.413.588T22 7v12q0 .825-.587 1.413T20 21h-7v-3.1q1.95-.3 3.313-1.7t1.637-3.325q.05-.35-.238-.612T17 12q-.375 0-.687.213t-.388.562q-.275 1.375-1.375 2.3T12 16t-2.537-.913T8.1 12.826q-.075-.375-.387-.6T7 12q-.425 0-.713.263t-.237.612Q6.325 14.8 7.688 16.2T11 17.9V21zm8-7q.825 0 1.413-.587T14 12V8q0-.825-.587-1.412T12 6t-1.412.588T10 8v4q0 .825.588 1.413T12 14"/></svg>