<svg xmlns="http://www.w3.org/2000/svg" viewBox="0 0 24 24" width="24" height="24"><path fill="currentColor" d="M9 20v-4q-1.275-.1-2.5-.275t-2.45-.45q-.425-.1-.675-.475T3.25 14t.513-.625t.812-.1q1.825.425 3.688.575T12 14t3.738-.15t3.687-.575q.45-.1.825.1t.5.625t-.137.8t-.688.475q-1.225.275-2.45.45T15 16v4q0 .425-.287.713T14 21h-4q-.425 0-.712-.288T9 20m3-7q-.85 0-1.425-.575T10 11q0-.825.575-1.412T12 9q.825 0 1.413.588T14 11q0 .85-.587 1.425T12 13m-7.5-3q-.65 0-1.075-.425T3 8.5q0-.625.425-1.062T4.5 7q.625 0 1.063.438T6 8.5q0 .65-.437 1.075T4.5 10m15 0q-.65 0-1.075-.425T18 8.5q0-.625.425-1.062T19.5 7q.625 0 1.063.438T21 8.5q0 .65-.437 1.075T19.5 10M7.25 6.25q-.65 0-1.075-.425T5.75 4.75q0-.625.425-1.062T7.25 3.25q.625 0 1.063.438T8.75 4.75q0 .65-.437 1.075T7.25 6.25m9.5 0q-.65 0-1.075-.425T15.25 4.75q0-.625.425-1.062t1.075-.438q.625 0 1.063.438t.437 1.062q0 .65-.437 1.075t-1.063.425M12 5q-.65 0-1.075-.425T10.5 3.5q0-.625.425-1.062T12 2q.625 0 1.063.438T13.5 3.5q0 .65-.437 1.075T12 5"/></svg>