<svg xmlns="http://www.w3.org/2000/svg" viewBox="0 0 24 24" width="24" height="24"><path fill="currentColor" d="M4.8 11.7L2.3 9.2Q2 8.9 2 8.5t.3-.7l2.5-2.5q.3-.3.7-.3t.7.3l2.5 2.5q.3.3.3.7t-.3.7l-2.5 2.5q-.3.3-.7.3t-.7-.3M10 22q-.425 0-.712-.288T9 21v-4q-1.25-.1-2.475-.275t-2.45-.45q-.425-.1-.687-.475T3.25 15t.513-.625t.812-.1q1.825.425 3.688.575T12 15t3.738-.15t3.687-.575q.425-.1.813.1t.512.625t-.137.8t-.688.475q-1.225.275-2.45.45T15 17v4q0 .425-.287.713T14 22zm2-15q-1.25 0-2.125-.875T9 4t.875-2.125T12 1t2.125.875T15 4t-.875 2.125T12 7m0 7q-.825 0-1.412-.587T10 12t.588-1.412T12 10t1.413.588T14 12t-.587 1.413T12 14m4.775-2.5l-1.15-2Q15.5 9.275 15.5 9t.125-.5l1.15-2q.125-.25.35-.375t.5-.125h2.25q.275 0 .5.125t.35.375l1.15 2Q22 8.725 22 9t-.125.5l-1.15 2q-.125.25-.35.375t-.5.125h-2.25q-.275 0-.5-.125t-.35-.375"/></svg>