<svg xmlns="http://www.w3.org/2000/svg" viewBox="0 0 24 24" width="24" height="24"><path fill="currentColor" d="M12 12q-1.65 0-2.825-1.175T8 8t1.175-2.825T12 4t2.825 1.175T16 8t-1.175 2.825T12 12m-6 8q-.825 0-1.412-.587T4 18v-.8q0-.85.438-1.562T5.6 14.55q1.25-.625 2.488-.987t2.587-.488q.575-.05.925.425t.225 1.075q-.025.125-.025.238v.237q0 .75.263 1.488t.912 1.387l.4.375q.475.475.213 1.088T12.65 20zm11.2-.7l-2.8-2.8q-.325-.325-.462-.7t-.138-.75q0-.8.575-1.425T15.85 13q.7 0 1.1.325t.95.875q.5-.5.913-.85T19.95 13q.925 0 1.488.638T22 15.074q0 .375-.15.75t-.45.675l-2.8 2.8q-.3.3-.7.3t-.7-.3"/></svg>