<svg xmlns="http://www.w3.org/2000/svg" viewBox="0 0 24 24" width="24" height="24"><path fill="currentColor" d="M19.8 22.6L1.4 4.2q-.275-.275-.275-.7t.275-.7t.7-.275t.7.275l18.4 18.4q.275.275.275.7t-.275.7t-.7.275t-.7-.275M5 6.425l2 2V18h9.6l2.4 2.4v.6q0 .825-.587 1.413T17 23H7q-.825 0-1.412-.587T5 21zM18 7q-.425 0-.712-.287T17 6H9.65q-.4 0-.763-.162T8.25 5.4L5.975 3.125q-.175-.175-.275-.4t-.1-.475q0-.525.363-.887T6.85 1H17q.825 0 1.413.588T19 3v3q0 .425-.288.713T18 7m5.025 5q0 1.25-.4 2.413t-1.15 2.137q-.25.325-.663.338T20.1 16.6q-.275-.275-.288-.7t.238-.775q.475-.675.725-1.475t.25-1.65t-.25-1.65t-.725-1.475q-.25-.35-.238-.775t.288-.7q.3-.3.713-.287t.662.337q.75.975 1.15 2.138t.4 2.412m-3.5 0q0 .8-.312 1.538t-.863 1.312q-.125.125-.325.213t-.4.087q-.425 0-.725-.3t-.3-.725q0-.2.088-.4t.212-.325q.3-.3.463-.637t.162-.763q0-.375-.175-.75t-.45-.65q-.125-.125-.212-.325t-.088-.4q0-.425.3-.725t.725-.3q.2 0 .4.088t.325.212q.55.575.863 1.313T19.525 12"/></svg>