<svg xmlns="http://www.w3.org/2000/svg" viewBox="0 0 24 24" width="24" height="24"><path fill="currentColor" d="M20 12q-.4 0-.712-.288T18.925 11q-.325-2.325-1.963-3.963T13 5.076q-.425-.05-.712-.35T12 4t.3-.712t.7-.238q3.15.35 5.375 2.575T20.95 11q.05.4-.238.7T20 12m-4.175 0q-.325 0-.575-.225t-.375-.6q-.2-.725-.763-1.287t-1.287-.763q-.375-.125-.6-.375T12 8.15q0-.5.35-.812t.775-.213q1.4.325 2.413 1.338t1.337 2.412q.1.425-.225.775t-.825.35m4.125 9q-3.125 0-6.175-1.362t-5.55-3.863t-3.862-5.55T3 4.05q0-.45.3-.75t.75-.3H8.1q.35 0 .625.238t.325.562l.65 3.5q.05.4-.025.675T9.4 8.45L6.975 10.9q.5.925 1.187 1.787t1.513 1.663q.775.775 1.625 1.438T13.1 17l2.35-2.35q.225-.225.588-.337t.712-.063l3.45.7q.35.1.575.363T21 15.9v4.05q0 .45-.3.75t-.75.3"/></svg>