<svg xmlns="http://www.w3.org/2000/svg" viewBox="0 0 24 24" width="24" height="24"><path fill="currentColor" d="M4 20q-.825 0-1.412-.587T2 18V6q0-.825.588-1.412T4 4h16q.825 0 1.413.588T22 6v12q0 .825-.587 1.413T20 20zm3.075-5q.25 0 .413-.162t.162-.413V9.65q0-.275-.187-.462T7 9q-.125 0-.238.038t-.212.112l-1.125.8q-.175.125-.212.325t.087.4t.338.238t.412-.088l.45-.325v3.925q0 .25.163.413t.412.162m3.025 0H13q.2 0 .35-.15t.15-.35t-.15-.35T13 14h-1.85l-.05-.05q.525-.5.863-.85t.537-.55q.45-.45.675-.9t.225-.95q0-.725-.55-1.213T11.45 9q-.5 0-.95.238t-.725.662q-.125.175-.025.375t.3.275t.4 0t.35-.225q.125-.125.288-.2t.362-.075q.375 0 .613.2t.237.5q0 .275-.1.513t-.45.587l-.325.325l-.475.475l-1.2 1.2q-.05.05-.15.35v.3q0 .2.15.35t.35.15m6.9 0q.9 0 1.45-.5t.55-1.3q0-.45-.25-.8t-.7-.55v-.05q.35-.2.55-.513t.2-.737q0-.675-.525-1.113T16.95 9q-.5 0-.925.238t-.7.587q-.125.175-.025.35t.3.275q.2.075.4.013t.35-.213q.125-.125.275-.187T16.95 10q.325 0 .538.188t.212.462q0 .35-.25.55t-.65.2q-.2 0-.35.15t-.15.35t.15.35t.35.15q.5 0 .8.2t.3.55q0 .325-.275.563T17 13.95q-.3 0-.5-.1t-.35-.325q-.125-.175-.312-.237t-.388.012q-.225.1-.325.288t0 .387q.275.5.75.763T17 15"/></svg>