<svg xmlns="http://www.w3.org/2000/svg" viewBox="0 0 24 24" width="24" height="24"><path fill="currentColor" d="M3 11q-.425 0-.712-.288T2 10t.288-.712T3 9h2.6L2 5.425q-.3-.3-.3-.712T2 4t.713-.3t.712.3L7 7.6V5q0-.425.288-.712T8 4t.713.288T9 5v5q0 .425-.288.713T8 11zm1 9q-.825 0-1.412-.587T2 18v-4q0-.425.288-.712T3 13t.713.288T4 14v4h7q.425 0 .713.288T12 19t-.288.713T11 20zm17-7q-.425 0-.712-.288T20 12V6h-8q-.425 0-.712-.288T11 5t.288-.712T12 4h8q.825 0 1.413.588T22 6v6q0 .425-.288.713T21 13m-6 7q-.425 0-.712-.288T14 19v-3q0-.425.288-.712T15 15h6q.425 0 .713.288T22 16v3q0 .425-.288.713T21 20z"/></svg>