<svg xmlns="http://www.w3.org/2000/svg" viewBox="0 0 24 24" width="24" height="24"><path fill="currentColor" d="M10 8V3h9q.825 0 1.413.588T21 5v3zM5 21q-.825 0-1.412-.587T3 19v-9h5v11zM3 8V5q0-.825.588-1.412T5 3h3v5zm9.85 11l.875.9q.275.275.275.688t-.3.712q-.275.275-.7.275t-.7-.275l-2.6-2.6q-.3-.3-.3-.7t.3-.7l2.6-2.6q.275-.275.688-.287t.712.287q.275.275.288.688t-.263.712l-.875.9H15q.825 0 1.413-.587T17 15v-2.2l-.9.9q-.275.275-.7.275t-.7-.275t-.275-.7t.275-.7l2.6-2.6q.3-.3.7-.3t.7.3l2.6 2.6q.275.275.275.7t-.275.7t-.7.275t-.7-.275l-.9-.9V15q0 1.65-1.175 2.825T15 19z"/></svg>