<svg xmlns="http://www.w3.org/2000/svg" viewBox="0 0 24 24" width="24" height="24"><path fill="currentColor" d="M8.7 21.3q-.3-.3-.3-.712t.3-.713l3.2-3.175q.3-.3.7-.3t.7.3t.3.713t-.3.712L10.125 21.3q-.3.3-.712.3t-.713-.3m5 0q-.3-.3-.3-.712t.3-.713l2.675-2.675q.3-.3.713-.3t.712.3t.3.713t-.3.712L15.125 21.3q-.3.3-.712.3t-.713-.3m-11-11q-.3-.3-.3-.712t.3-.713L5.375 6.2q.3-.3.713-.3t.712.3t.3.712t-.3.713L4.125 10.3q-.3.3-.712.3t-.713-.3m0 5q-.3-.3-.3-.712t.3-.713L5.875 10.7q.3-.3.713-.3t.712.3t.3.713t-.3.712L4.125 15.3q-.3.3-.712.3t-.713-.3m9.475-3.5L9.8 10.475q-.3-.175-.325-.537t.425-.813q.125-.125.288-.187t.337-.013l2 .4l1.95-1.95l-4.8-1.925q-.425-.175-.5-.6t.25-.725L9.7 3.85q.125-.125.313-.187t.387-.013l6.775 1.05l2.275-2.25q.225-.225.5-.337T20.5 2t.55.113t.5.337q.225.2.338.475t.112.55t-.112.563t-.338.512L19.275 6.8l1.05 6.725q.05.2-.012.413t-.213.362l-.1.125q-.35.375-.85.275t-.7-.575L16.6 9.5l-1.95 1.95l.375 1.95q.05.2-.013.4t-.312.45q-.275.275-.675.213t-.6-.413z"/></svg>