<svg xmlns="http://www.w3.org/2000/svg" viewBox="0 0 24 24" width="24" height="24"><path fill="currentColor" d="m9.5 9.5l1.75 1.05q.25.15.5.013t.25-.438V5q0-.425-.288-.712T11 4H8q-.425 0-.712.288T7 5v5.125q0 .3.25.438t.5-.013zM18 23q-2.075 0-3.537-1.463T13 18t1.463-3.537T18 13t3.538 1.463T23 18t-1.463 3.538T18 23m-.475-2.975l2.55-1.6q.25-.15.25-.425t-.25-.425l-2.55-1.6q-.25-.15-.513-.013t-.262.438v3.2q0 .3.263.438t.512-.013M5 22q-.825 0-1.413-.587T3 20V4q0-.825.588-1.412T5 2h12q.825 0 1.413.588T19 4v6.327q0 .298-.213.5q-.212.202-.512.202q-1.5-.025-2.8.43q-1.3.454-2.425 1.591q-.95.953-1.5 2.22q-.55 1.266-.55 2.72q0 .727.163 1.442t.437 1.367q.2.426-.025.813T10.9 22z"/></svg>