<svg xmlns="http://www.w3.org/2000/svg" viewBox="0 0 24 24" width="24" height="24"><path fill="currentColor" d="M12 21.9q-.175 0-.325-.025t-.3-.075Q8 20.675 6 17.638T4 11.1V6.375q0-.625.363-1.125t.937-.725l6-2.25q.35-.125.7-.125t.7.125l6 2.25q.575.225.938.725T20 6.375V11.1q0 1.575-.413 3.063T18.4 17l-2.95-2.95q.275-.475.413-.987T16 12q0-1.65-1.175-2.825T12 8T9.175 9.175T8 12t1.175 2.825T12 16q.525 0 1.038-.137T14 15.45l3.225 3.2q-.95 1.125-2.087 1.913T12.625 21.8q-.15.05-.3.075T12 21.9m0-7.9q-.825 0-1.412-.588T10 12t.588-1.412T12 10t1.413.588T14 12t-.587 1.413T12 14"/></svg>