<svg xmlns="http://www.w3.org/2000/svg" viewBox="0 0 24 24" width="24" height="24"><path fill="currentColor" d="M8.025 20h-1.9q-.55 0-1.012-.275t-.738-.75l-3.325-6Q.775 12.525.775 12t.275-.975l3.5-6.25q.2-.35.538-.562T5.85 4h1.875q.425 0 .638.375t.012.75L4.5 12l2.6 4.65l7.225-11.7q.275-.45.725-.7t.975-.25h1.8q.55 0 1.013.275t.737.75l3.375 6q.275.45.275.975t-.275.975l-3.5 6.25q-.2.35-.537.563T18.15 20h-1.875q-.425 0-.637-.375t-.013-.75L19.5 12l-2.6-4.6l-7.175 11.65q-.275.45-.725.7t-.975.25"/></svg>