<svg xmlns="http://www.w3.org/2000/svg" viewBox="0 0 24 24" width="24" height="24"><path fill="currentColor" d="M12 20q-.9 0-1.425.5T8.65 21t-1.925-.5T5.3 20q-.725 0-1.1.338t-1.175.537q-.4.1-.712-.175T2 20t.3-.737t.675-.513q.425-.225.9-.488T5.3 18q1.4 0 1.925.5t1.425.5t1.425-.5T12 18t1.925.5t1.425.5t1.425-.5T18.7 18q.95 0 1.425.263t.9.487q.375.2.675.513T22 20t-.312.7t-.713.175q-.8-.2-1.175-.537T18.7 20q-.9 0-1.425.5t-1.925.5t-1.925-.5T12 20m0-4.5q-.95 0-1.413.5t-1.937.5t-1.963-.5t-1.387-.5q-.725 0-1.1.338t-1.175.537q-.4.1-.712-.175T2 15.5t.3-.737t.675-.513q.425-.225.9-.488T5.3 13.5q1.4 0 1.938.5t1.412.5q.9 0 1.425-.5T12 13.5t1.925.5t1.425.5t1.425-.5t1.925-.5q.95 0 1.425.263t.9.487q.375.2.675.513t.3.737t-.312.7t-.713.175q-.8-.2-1.175-.537t-1.1-.338q-.9 0-1.388.5t-1.962.5q-1.425 0-1.937-.5T12 15.5m-5.1-4.1l3.325-3.325l-1-1Q8.6 6.45 7.938 6.087T6.425 5.6q-.5-.1-.862-.475T5.2 4.25q0-.525.375-.888t.875-.312q1.35.125 2.325.563T10.7 5l6.4 6.4q-.425.275-.825.438T15.35 12q-.9 0-1.425-.5T12 11t-1.925.5t-1.425.5q-.525 0-.925-.162T6.9 11.4M16.7 3q1.05 0 1.775.738T19.2 5.5q0 1.05-.725 1.775T16.7 8t-1.775-.725T14.2 5.5q0-1.025.725-1.763T16.7 3"/></svg>