<svg xmlns="http://www.w3.org/2000/svg" viewBox="0 0 24 24" width="24" height="24"><path fill="currentColor" d="m13.95 18.175l4.95-4.95q.275-.275.7-.275t.7.275t.275.7t-.275.7l-5.65 5.65q-.3.3-.7.3t-.7-.3l-2.85-2.85q-.275-.275-.275-.7t.275-.7t.7-.275t.7.275zm-7.45-4.2H5q-.425 0-.712-.287T4 12.975t.288-.712t.712-.288h4v-2H5q-.425 0-.712-.287T4 8.975v-4q0-.425.288-.712T5 3.975h1.5q0-.425.288-.712t.712-.288t.713.288t.287.712H10q.425 0 .713.288t.287.712t-.288.713t-.712.287H6v2h4q.425 0 .713.288t.287.712v4q0 .425-.288.713t-.712.287H8.5q0 .425-.288.713t-.712.287t-.712-.287t-.288-.713"/></svg>