<svg xmlns="http://www.w3.org/2000/svg" viewBox="0 0 24 24" width="24" height="24"><path fill="currentColor" d="M2 11q0-1.275.875-2.137T5 8h14q.95 0 1.75.35t.8 1.175q0 .2-.15.338t-.35.137H18q-.825 0-1.412.588T16 12v2q0 .425-.288.713T15 15H8v4h7q.425 0 .713.288T16 20t-.288.713T15 21H8q-.825 0-1.412-.587T6 19v-2H4q-.825 0-1.412-.587T2 15zm17 10q-.425 0-.712-.288T18 20t.288-.712T19 19t.713.288T20 20t-.288.713T19 21m-1-5v-3q0-.425.288-.712T19 12t.713.288T20 13v3q0 .425-.288.713T19 17t-.712-.288T18 16M7 7q-.425 0-.712-.288T6 6V5q0-.825.588-1.412T8 3h8q.825 0 1.413.588T18 5v1q0 .425-.288.713T17 7z"/></svg>