<svg xmlns="http://www.w3.org/2000/svg" viewBox="0 0 24 24" width="24" height="24"><path fill="currentColor" d="M7 22q-.425 0-.712-.288T6 21v-3.3q-1.425-1.3-2.212-3.037T3 11q0-3.75 2.625-6.375T12 2q3.125 0 5.538 1.838t3.137 4.787l1.3 5.125q.125.475-.175.863T21 15h-2v3q0 .825-.587 1.413T17 20h-2v1q0 .425-.288.713T14 22zm5-6q.425 0 .713-.288T13 15t-.288-.712T12 14t-.712.288T11 15t.288.713T12 16m.025-3.2q.275 0 .513-.187t.312-.513q.075-.3.238-.587t.512-.663q.8-.875 1.05-1.325T14.9 8.5q0-1.05-.812-1.775T12.075 6q-.8 0-1.512.388T9.425 7.45q-.15.25-.012.525t.412.4t.538.038t.462-.363q.25-.3.575-.462t.675-.163q.55 0 .913.3t.362.775q0 .4-.212.763t-.838 1.012q-.475.5-.687.888t-.288.887q-.05.3.163.525t.537.225"/></svg>