<svg xmlns="http://www.w3.org/2000/svg" viewBox="0 0 24 24" width="24" height="24"><path fill="currentColor" d="M5 22q-.825 0-1.412-.587T3 20V8q0-.825.588-1.412T5 6h1V3q0-.825.588-1.412T8 1h8q.825 0 1.413.588T18 3v3h1q.825 0 1.413.588T21 8v12q0 .825-.587 1.413T19 22zM8 6h8V3H8zm4 12.5q1.875 0 3.188-1.312T16.5 14t-1.312-3.187T12 9.5t-3.187 1.313T7.5 14t1.313 3.188T12 18.5m.5-4.7V12q0-.2-.15-.35T12 11.5t-.35.15t-.15.35v1.775q0 .2.075.388t.225.337l1 1q.15.15.35.15t.35-.15t.15-.35t-.15-.35z"/></svg>