<svg xmlns="http://www.w3.org/2000/svg" viewBox="0 0 24 24" width="24" height="24"><path fill="currentColor" d="M5 14v-2h2v2zm-2-2v-2h2v2zm9-7V3h2v2zM4.5 7.5h3v-3h-3zm0 12h3v-3h-3zm12-12h3v-3h-3zM9 14v-2H7v-2h4v4zm1-5V5h2v2h2v2zM5.25 6.75v-1.5h1.5v1.5zm0 12v-1.5h1.5v1.5zm12-12v-1.5h1.5v1.5zM16 18h-2q-.425 0-.712-.288T13 17t.288-.712T14 16h2v-2q0-.425.288-.712T17 13t.713.288T18 14v2h2q.425 0 .713.288T21 17t-.288.713T20 18h-2v2q0 .425-.288.713T17 21t-.712-.288T16 20zM3 8V4q0-.425.288-.712T4 3h4q.425 0 .713.288T9 4v4q0 .425-.288.713T8 9H4q-.425 0-.712-.288T3 8m0 12v-4q0-.425.288-.712T4 15h4q.425 0 .713.288T9 16v4q0 .425-.288.713T8 21H4q-.425 0-.712-.288T3 20M15 8V4q0-.425.288-.712T16 3h4q.425 0 .713.288T21 4v4q0 .425-.288.713T20 9h-4q-.425 0-.712-.288T15 8"/></svg>