<svg xmlns="http://www.w3.org/2000/svg" viewBox="0 0 24 24" width="24" height="24"><path fill="currentColor" d="M13 21v-2h2v2zm-2-2v-5h2v5zm8-3v-4h2v4zm-2-4v-2h2v2zM5 14v-2h2v2zm-2-2v-2h2v2zm9-7V3h2v2zM4.5 7.5h3v-3h-3zM3 8V4q0-.425.288-.712T4 3h4q.425 0 .713.288T9 4v4q0 .425-.288.713T8 9H4q-.425 0-.712-.288T3 8m1.5 11.5h3v-3h-3zM3 20v-4q0-.425.288-.712T4 15h4q.425 0 .713.288T9 16v4q0 .425-.288.713T8 21H4q-.425 0-.712-.288T3 20M16.5 7.5h3v-3h-3zM15 8V4q0-.425.288-.712T16 3h4q.425 0 .713.288T21 4v4q0 .425-.288.713T20 9h-4q-.425 0-.712-.288T15 8m2 13v-3h-2v-2h4v3h2v2zm-4-7v-2h4v2zm-4 0v-2H7v-2h6v2h-2v2zm1-5V5h2v2h2v2zM5.25 6.75v-1.5h1.5v1.5zm0 12v-1.5h1.5v1.5zm12-12v-1.5h1.5v1.5z"/></svg>