<svg xmlns="http://www.w3.org/2000/svg" viewBox="0 0 24 24" width="24" height="24"><path fill="currentColor" d="M1.75 13.4q-.325-.225-.387-.612t.137-.738l3.05-4.9q.55-.875 1.563-.937t1.662.712L9 8.35l2.375-3.85q.575-.95 1.663-.962t1.687.912L16 6.35l2.8-4.45q.225-.375.663-.462t.787.187q.325.225.388.613t-.138.737l-2.8 4.45q-.575.925-1.662.925t-1.688-.9l-1.275-1.9L10.7 9.4q-.525.875-1.537.95T7.5 9.65L6.25 8.2L3.2 13.125q-.225.375-.663.463T1.75 13.4M14.5 18q1.05 0 1.775-.725T17 15.5t-.725-1.775T14.5 13t-1.775.725T12 15.5t.725 1.775T14.5 18m0 2q-1.875 0-3.188-1.312T10 15.5t1.313-3.187T14.5 11t3.188 1.313T19 15.5q0 .65-.175 1.263T18.3 17.9l2 2q.275.275.275.7t-.275.7t-.7.275t-.7-.275l-2-2q-.525.35-1.137.525T14.5 20"/></svg>