<svg xmlns="http://www.w3.org/2000/svg" viewBox="0 0 24 24" width="24" height="24"><path fill="currentColor" d="M9 21.1q-.4 0-.7-.288t-.3-.737v-3.1q-2.525-.2-4.262-2.05T2 10.5q0-2.725 1.888-4.612T8.5 4h.675l-.9-.9Q8 2.825 8 2.413t.3-.713q.275-.275.7-.275t.7.275l2.6 2.6q.15.15.212.325t.063.375t-.062.375t-.213.325L9.7 8.3q-.275.275-.687.288T8.3 8.3q-.275-.275-.275-.7t.275-.7l.875-.9H8.5Q6.625 6 5.313 7.313T4 10.5t1.313 3.188T8.5 15H10v2.675L12.675 15H15.5q1.875 0 3.188-1.312T20 10.5t-1.312-3.187T15.5 6q-.425 0-.712-.288T14.5 5t.288-.712T15.5 4q2.725 0 4.613 1.888T22 10.5t-1.888 4.613T15.5 17h-2l-3.8 3.8q-.15.15-.325.225T9 21.1"/></svg>