<svg xmlns="http://www.w3.org/2000/svg" viewBox="0 0 24 24" width="24" height="24"><path fill="currentColor" d="M17 12q-2.075 0-3.537-1.463T12 7q0-2.05 1.45-3.525T17 2q2.075 0 3.538 1.462T22 7t-1.463 3.538T17 12m0-4q.2 0 .35-.15t.15-.35v-3q0-.2-.15-.35T17 4t-.35.15t-.15.35v3q0 .2.15.35T17 8m-7 9q.625 0 1.063-.437T11.5 15.5t-.437-1.062T10 14t-1.062.438T8.5 15.5t.438 1.063T10 17m-5.025 5q-.275 0-.462-.15t-.263-.375t0-.462t.3-.388L5.5 20q-1.45 0-2.475-1.025T2 16.5V7q0-1.8 1.663-2.75T9.05 3.075q.725-.05 1.125.563t.125 1.337q-.15.5-.225 1.038T10 7.075q0 .375-.237.65T9.15 8H4v3h6.5q.35 0 .675.163t.55.437q.425.5.925.888t1.075.687q.8.425 1.663.637T17.15 14q.35 0 .6.213t.25.562V16.5q0 1.45-1.025 2.475T14.5 20l.95.625q.225.15.3.388t0 .462t-.262.375t-.463.15zM17 10q.2 0 .35-.15t.15-.35t-.15-.35T17 9t-.35.15t-.15.35t.15.35t.35.15"/></svg>