<svg xmlns="http://www.w3.org/2000/svg" viewBox="0 0 24 24" width="24" height="24"><path fill="currentColor" d="M3 14.25v-4.5q0-.325.213-.537T3.75 9H6.5q.6 0 1.05.45T8 10.5v1q0 .45-.238.813T7.1 12.9l.5 1.15q.15.35-.05.65t-.6.3q-.2 0-.375-.1t-.25-.3L5.6 13H4.5v1.25q0 .325-.212.538T3.75 15t-.537-.213T3 14.25m5.975-.15l1.05-4.175q.1-.425.425-.675T11.2 9h.6q.425 0 .75.25t.425.675l1.05 4.175q.1.35-.125.625t-.575.275q-.275 0-.462-.162t-.238-.413L12.4 13.5h-1.75l-.25.95q-.05.25-.25.4t-.475.15q-.35 0-.575-.275t-.125-.625m6.375.35L14.225 9.9q-.1-.35.125-.625T14.925 9q.25 0 .463.15t.262.4l.6 2.45l.625-2.45q.05-.25.25-.4t.45-.15h.35q.25 0 .463.15t.262.4l.6 2.45l.625-2.45q.05-.25.25-.4t.45-.15q.35 0 .575.275t.125.625l-1.15 4.55q-.05.25-.25.4t-.45.15h-.35q-.25 0-.45-.15t-.25-.4l-.625-2.5l-.625 2.5q-.05.25-.25.4t-.45.15h-.35q-.25 0-.462-.15t-.263-.4M11 12h1l-.25-1h-.5zm-6.5-.5h2v-1h-2z"/></svg>