<svg xmlns="http://www.w3.org/2000/svg" viewBox="0 0 24 24" width="24" height="24"><path fill="currentColor" d="M16.5 8q.425 0 .713-.288T17.5 7t-.288-.712T16.5 6t-.712.288T15.5 7t.288.713T16.5 8M13 19h7V5h-7zm-9 2q-.825 0-1.412-.587T2 19v-5q0-.425.288-.712T3 13h3.2l-.9.9q-.275.275-.275.7t.275.7t.7.275t.7-.275l2.6-2.6q.3-.3.3-.7t-.3-.7L6.7 8.7q-.275-.275-.7-.275t-.7.275t-.275.7t.275.7l.9.9H3q-.425 0-.712-.288T2 10V5q0-.825.588-1.412T4 3h16q.825 0 1.413.588T22 5v14q0 .825-.587 1.413T20 21z"/></svg>