<svg xmlns="http://www.w3.org/2000/svg" viewBox="0 0 24 24" width="24" height="24"><path fill="currentColor" d="M10 21v-2.675q0-.2.075-.375t.225-.325l7.05-7.025q.3-.3.663-.45t.762-.15t.763.15t.662.45l1.225 1.25q.275.3.425.663t.15.737t-.162.738t-.438.662l-7.025 7.05q-.15.15-.325.225t-.375.075H11q-.425 0-.712-.288T10 21m8.725-6.45L20 13.25L18.775 12l-1.3 1.3zM5 22q-1.25 0-2.125-.875T2 19q0-.975.563-1.725T4 16.2V7.825Q3.125 7.5 2.563 6.737T2 5q0-1.25.875-2.125T5 2q.975 0 1.738.563T7.825 4h3.35L10.05 2.875q-.3-.3-.3-.7t.3-.7t.713-.3t.712.3L14.3 4.3q.3.3.3.7t-.3.7l-2.85 2.85q-.3.3-.7.3t-.7-.3t-.3-.712t.3-.713L11.175 6h-3.35q-.225.65-.7 1.125T6 7.825v8.35q.875.325 1.438 1.088T8 19q0 1.25-.875 2.125T5 22M19 2q1.25 0 2.125.875T22 5t-.875 2.125T19 8t-2.125-.875T16 5t.875-2.125T19 2"/></svg>