<svg xmlns="http://www.w3.org/2000/svg" viewBox="0 0 24 24" width="24" height="24"><path fill="currentColor" d="M6 20q-.825 0-1.412-.587T4 18v-.8q0-.85.438-1.562T5.6 14.55q1.55-.775 3.15-1.162T12 13q.275 0 .538.013t.537.037q.4.05.663.338t.262.687V19q0 .425-.288.713T13 20zm6-8q-1.65 0-2.825-1.175T8 8t1.175-2.825T12 4t2.825 1.175T16 8t-1.175 2.825T12 12m6 7h-1q-.425 0-.712-.288T16 18v-4q0-.425.288-.712T17 13h3.775q.425 0 .65.35t.025.725L20 17h.7q.425 0 .637.375t.013.75l-2.875 5.05q-.1.175-.288.125T18 23.05z"/></svg>