<svg xmlns="http://www.w3.org/2000/svg" viewBox="0 0 24 24" width="24" height="24"><path fill="currentColor" d="M6 22q-1.25 0-2.125-.875T3 19v-2q0-.425.288-.712T4 16h2V2.6q0-.175.15-.238t.275.063l.725.725q.15.15.35.15t.35-.15l.8-.8Q8.8 2.2 9 2.2t.35.15l.8.8q.15.15.35.15t.35-.15l.8-.8q.15-.15.35-.15t.35.15l.8.8q.15.15.35.15t.35-.15l.8-.8q.15-.15.35-.15t.35.15l.8.8q.15.15.35.15t.35-.15l.8-.8q.15-.15.35-.15t.35.15l.8.8q.15.15.35.15t.35-.15l.725-.725q.125-.125.275-.063T21 2.6V19q0 1.25-.875 2.125T18 22zm12-2q.425 0 .713-.288T19 19V5H8v11h8q.425 0 .713.288T17 17v2q0 .425.288.713T18 20M10 7h4q.425 0 .713.288T15 8t-.288.713T14 9h-4q-.425 0-.712-.288T9 8t.288-.712T10 7m0 3h4q.425 0 .713.288T15 11t-.288.713T14 12h-4q-.425 0-.712-.288T9 11t.288-.712T10 10m7-1q-.425 0-.712-.288T16 8t.288-.712T17 7t.713.288T18 8t-.288.713T17 9m0 3q-.425 0-.712-.288T16 11t.288-.712T17 10t.713.288T18 11t-.288.713T17 12"/></svg>