<svg xmlns="http://www.w3.org/2000/svg" viewBox="0 0 24 24" width="24" height="24"><path fill="currentColor" d="m21.125 21.1l-5.9-5.9l-2.15 2.15q-.3.3-.7.3t-.7-.3l-4.25-4.25q-.3-.3-.287-.7t.287-.7q.3-.3.713-.312t.712.287l3.525 3.525l1.4-1.4l-9.65-9.65q-.3-.3-.288-.7t.288-.7q.3-.3.713-.312t.712.287L22.525 19.7q.275.275.275.7t-.275.7t-.7.275t-.7-.275m-15.1-3.75l-4.25-4.25q-.275-.275-.275-.7t.275-.7t.7-.275t.7.275l3.55 3.55l1.4 1.4l-.7.7q-.3.3-.7.3t-.7-.3m12-4.95l-1.4-1.4l4.225-4.225q.275-.275.675-.287t.7.262t.313.7t-.288.725zm-2.85-2.85l-1.4-1.4l1.45-1.45q.275-.275.7-.275t.7.275t.275.7t-.275.7z"/></svg>