<svg xmlns="http://www.w3.org/2000/svg" viewBox="0 0 24 24" width="24" height="24"><path fill="currentColor" d="M4 20q-.825 0-1.412-.587T2 18V6q0-.825.588-1.412T4 4h16q.825 0 1.413.588T22 6v6q0 .425-.288.713T21 13t-.712-.288T20 12V8H4v10h7q.425 0 .713.288T12 19t-.288.713T11 20zm15 4q-1.425 0-2.6-.712t-1.825-1.913q-.175-.3-.062-.638t.437-.462q.275-.125.55 0t.425.4q.45.825 1.275 1.325t1.8.5q1.45 0 2.475-1.025T22.5 19t-1.025-2.475T19 15.5q-.7 0-1.325.25t-1.125.75h.7q.325 0 .538.213t.212.537t-.213.538t-.537.212H15q-.425 0-.712-.288T14 17v-2.25q0-.325.213-.537T14.75 14t.538.213t.212.537v.675q.725-.675 1.625-1.05T19 14q2.075 0 3.538 1.463T24 19t-1.463 3.538T19 24"/></svg>