<svg xmlns="http://www.w3.org/2000/svg" viewBox="0 0 24 24" width="24" height="24"><path fill="currentColor" d="M3 23q-.825 0-1.412-.587T1 21V3q0-.825.588-1.412T3 1h18q.825 0 1.413.588T23 3v18q0 .825-.587 1.413T21 23zm3.85-4H17q.825 0 1.413-.587T19 17v-3q0-.425-.288-.712T18 13t-.712.288T17 14v3H6.85l.85-.85q.3-.3.288-.7t-.288-.7q-.3-.3-.712-.312t-.713.287L3.7 17.3q-.15.15-.213.325T3.426 18t.063.375t.212.325l2.575 2.575q.3.3.713.288t.712-.313q.275-.3.288-.7t-.288-.7zm10.3-12l-.85.85q-.3.3-.288.7t.288.7q.3.3.712.312t.713-.287L20.3 6.7q.15-.15.213-.325T20.575 6t-.062-.375T20.3 5.3l-2.575-2.575q-.3-.3-.712-.288t-.713.313q-.275.3-.288.7t.288.7l.85.85H7q-.825 0-1.412.588T5 7v3q0 .425.288.713T6 11t.713-.288T7 10V7z"/></svg>