<svg xmlns="http://www.w3.org/2000/svg" viewBox="0 0 24 24" width="24" height="24"><path fill="currentColor" d="M20 8h-4q-.425 0-.712-.288T15 7t.288-.712T16 6h.9q-.975-.975-2.25-1.487T12 4q-1.775 0-3.325.838t-2.5 2.287q-.35.5-.75.575t-.75-.1t-.487-.525t.062-.675q1.2-2.025 3.263-3.213T12 2q2.05 0 3.888.875T19 5.35V3q0-.425.288-.712T20 2t.713.288T21 3v4q0 .425-.288.713T20 8m-9.5 14q-1.45 0-2.475-1.025T7 18.5t1.025-2.475T10.5 15q.4 0 .775.075t.725.25V10h5v2h-3v6.5q0 1.45-1.025 2.475T10.5 22"/></svg>