<svg xmlns="http://www.w3.org/2000/svg" viewBox="0 0 24 24" width="24" height="24"><path fill="currentColor" d="M12 17q-1.9 0-3.3-1.25t-1.65-3.1q-.05-.275.175-.463T7.75 12q.275 0 .512.175t.288.45q.225 1.225 1.187 2.05T12 15.5q1.45 0 2.475-1.025T15.5 12q0-1.45-1.025-2.475T12 8.5h-.075l.7.725q.2.225.213.525t-.213.525q-.225.225-.537.225t-.538-.225l-2.1-2.1q-.15-.15-.15-.35t.15-.35l2.125-2.125q.225-.225.525-.225t.525.225q.225.225.225.538t-.225.537l-.55.575q2.05.05 3.488 1.5T17 12q0 2.075-1.463 3.538T12 17Zm0 5q2.075 0 3.9-.788t3.175-2.137q1.35-1.35 2.138-3.175T22 12q0-2.075-.788-3.9t-2.137-3.175q-1.35-1.35-3.175-2.137T12 2q-2.075 0-3.9.788T4.925 4.925Q3.575 6.275 2.788 8.1T2 12q0 2.075.788 3.9t2.137 3.175q1.35 1.35 3.175 2.138T12 22Z"/></svg>