<svg xmlns="http://www.w3.org/2000/svg" viewBox="0 0 24 24" width="24" height="24"><path fill="currentColor" d="M13.5 13.5v1.75q0 .325-.213.538T12.75 16t-.537-.213T12 15.25V13q0-.425.288-.712T13 12h2.25q.325 0 .538.213t.212.537t-.213.538t-.537.212zm0 7h1.75q.325 0 .538.213t.212.537t-.213.538t-.537.212H13q-.425 0-.712-.288T12 21v-2.25q0-.325.213-.537T12.75 18t.538.213t.212.537zm7-7h-1.75q-.325 0-.537-.213T18 12.75t.213-.537t.537-.213H21q.425 0 .713.288T22 13v2.25q0 .325-.213.538T21.25 16t-.537-.213t-.213-.537zm0 7v-1.75q0-.325.213-.537T21.25 18t.538.213t.212.537V21q0 .425-.288.713T21 22h-2.25q-.325 0-.537-.213T18 21.25t.213-.537t.537-.213zM12 5Q9.075 5 7.038 7.038T5 12q0 1.8.813 3.3T8 17.75V16q0-.425.288-.712T9 15t.713.288T10 16v4q0 .425-.288.713T9 21H5q-.425 0-.712-.288T4 20t.288-.712T5 19h1.35Q4.8 17.75 3.9 15.938T3 12q0-1.875.713-3.512t1.924-2.85t2.85-1.925T12 3q1.625 0 3.475.95t4.875 4.675q.275.325.088.713t-.638.587q-.4.175-.8.013t-.525-.563q-.5-1.7-2.287-3.037T12 5"/></svg>