<svg xmlns="http://www.w3.org/2000/svg" viewBox="0 0 24 24" width="24" height="24"><path fill="currentColor" d="M5 20H4q-.425 0-.712-.288T3 19t.288-.712T4 18h4q.425 0 .713.288T9 19t-.288.713T8 20H7v1q0 .425-.288.713T6 22t-.712-.288T5 21zm6-4H8q-.425 0-.712-.288T7 15t.288-.712T8 14h8q.425 0 .713.288T17 15t-.288.713T16 16h-3v5q0 .425-.288.713T12 22t-.712-.288T11 21zm6 4h-1q-.425 0-.712-.288T15 19t.288-.712T16 18h4q.425 0 .713.288T21 19t-.288.713T20 20h-1v1q0 .425-.288.713T18 22t-.712-.288T17 21zM4 16q-.825 0-1.412-.587T2 14V4q0-.825.588-1.412T4 2h16q.825 0 1.413.588T22 4v10q0 .825-.587 1.413T20 16q-.425 0-.712-.288T19 15q0-.4.363-.562T20 14v-1.525L15.05 8.35l-2.675 2.675q-.575.575-1.362.588t-1.388-.538l-1.9-1.75L4 12.45V14q.425 0 .712.288T5 15q0 .4-.363.563T4 16"/></svg>