<svg xmlns="http://www.w3.org/2000/svg" viewBox="0 0 24 24" width="24" height="24"><path fill="currentColor" d="m7 17.65l-2.075-2.1q-.4-.425-.625-.937t-.275-1.038q.575.675 1.388 1.05T7.125 15q.775 0 1.463-.275T10 13.85q.05-.05.125-.1t.125-.075q.05.025.138.075t.137.1q.725.6 1.412.875t1.438.275q.925 0 1.737-.375t1.388-1.05q-.05.55-.275 1.063t-.625.912l-2.1 2.1V21q0 .425-.287.713T12.5 22H8q-.425 0-.712-.288T7 21zm11.7-1.7q-.375-.125-.575-.5t-.075-.75q.15-.425.513-.612t.762-.038l3 1q.4.125.588.488t.037.787q-.125.375-.487.563t-.763.062zM19 13q-.425 0-.712-.287T18 12t.288-.712T19 11h3q.425 0 .713.288T23 12t-.288.713T22 13zm.325-3.05q-.4.125-.775-.05t-.5-.575q-.125-.425.063-.787t.587-.488l3-1q.4-.125.763.063t.487.587q.125.375-.05.75t-.575.5zM7.125 14q-1.3 0-2.212-.913T4 10.876q0-.65.25-1.213t.675-.987L7 6.575V3q0-.425.288-.712T8 2h4.5q.425 0 .713.288T13.5 3v3.55l2.1 2.1q.425.425.663 1t.237 1.225q0 1.3-.9 2.213T13.375 14q-.825 0-1.338-.312t-.862-.613q-.375-.3-.587-.362t-.338-.063q-.225 0-.462.15t-.438.275q-.35.3-.862.613T7.124 14"/></svg>