<svg xmlns="http://www.w3.org/2000/svg" viewBox="0 0 24 24" width="24" height="24"><path fill="currentColor" d="M4 21q-.425 0-.712-.288T3 20t.288-.712T4 19h1V5q0-.825.588-1.412T7 3h6q.575 0 1.013.275t.712.725H17q.825 0 1.413.588T19 6v3q0 .425-.288.713T18 10t-.712-.288T17 9V6h-2v4.1q0 .275-.137.5t-.388.35q-1.6.95-2.537 2.563T11 17q0 .725.163 1.438T11.6 19.8q.2.425-.037.813T10.9 21zm7-8q.425 0 .713-.288T12 12t-.288-.712T11 11t-.712.288T10 12t.288.713T11 13m6.4 9q-.2 0-.312-.112t-.163-.288l-.225-1.1q-.3-.125-.562-.275t-.513-.35l-1.05.375q-.175.05-.337-.012t-.263-.213l-.6-1.025q-.1-.15-.062-.325t.162-.3l.825-.725q-.05-.375-.05-.637t.05-.638l-.825-.725q-.125-.125-.162-.3t.062-.325l.6-1.025q.1-.15.263-.212t.337-.013l1.05.375q.25-.2.513-.362t.562-.288l.225-1.1q.05-.175.163-.288T17.4 12h1.2q.2 0 .313.113t.162.287l.225 1.1q.3.125.563.275t.512.35l1.05-.375q.175-.05.338.013t.262.212l.6 1.025q.1.15.063.325t-.163.3l-.825.725q.05.375.05.638t-.05.637l.825.725q.125.125.163.3t-.063.325l-.6 1.025q-.1.15-.25.213t-.325.012l-1.075-.35q-.25.2-.512.35t-.563.275l-.225 1.1q-.05.175-.162.288T18.6 22zm.6-3q.825 0 1.413-.587T20 17t-.587-1.412T18 15t-1.412.588T16 17t.588 1.413T18 19"/></svg>