<svg xmlns="http://www.w3.org/2000/svg" viewBox="0 0 24 24" width="24" height="24"><path fill="currentColor" d="M7 20v-5.075q-2.2-.35-3.6-2.037T2 9q0-2.5 1.75-4.25T8 3q2.2 0 3.888 1.4T13.924 8h4.25l-.9-.9Q17 6.825 17 6.413t.3-.713q.275-.275.7-.275t.7.275l2.6 2.6q.15.15.213.325t.062.375t-.062.375t-.213.325l-2.6 2.6q-.275.275-.687.275T17.3 12.3q-.3-.3-.3-.712t.3-.713l.875-.875H13.9q-.725 0-1.275-.475t-.675-1.2q-.25-1.45-1.362-2.387T8 5Q6.35 5 5.175 6.175T4 9q0 1.475.938 2.588t2.387 1.362q.725.125 1.2.675T9 14.9V20q0 .425-.288.713T8 21t-.712-.288T7 20"/></svg>