<svg xmlns="http://www.w3.org/2000/svg" viewBox="0 0 24 24" width="24" height="24"><path fill="currentColor" d="m17.3 23.3l-2-2q-.15-.15-.225-.337T15 20.575V19.5l-7.1-7.1q-.225.05-.45.075T7 12.5v-2.2q1.25.05 2.55-.537t2.1-1.463l1.4-1.55q.325-.375.763-.562T14.75 6q.95 0 1.6.65t.65 1.6V14q0 .65-.238 1.188t-.662.962l-3.6-3.55v-2.3q-.5.425-1.075.775T10.2 11.7l6.3 6.3h1.075q.2 0 .388.075t.337.225l2 2q.3.3.3.7t-.3.7l-1.6 1.6q-.3.3-.7.3t-.7-.3M9 17l-2.75 2.75q-.325.325-.75.325t-.75-.325t-.325-.75t.325-.75L8.5 14.5L11 17zm6-12q-.825 0-1.412-.587T13 3t.588-1.412T15 1t1.413.588T17 3t-.587 1.413T15 5m-8 7.5q-.45 0-.775-.325T5.9 11.4t.325-.775T7 10.3t.775.325t.325.775t-.325.775T7 12.5"/></svg>