<svg xmlns="http://www.w3.org/2000/svg" viewBox="0 0 24 24" width="24" height="24"><path fill="currentColor" d="M1 14.25v-4.5q0-.325.213-.537T1.75 9H4.5q.625 0 1.063.438T6 10.5v1q0 .45-.262.825T5.1 12.9l.5 1.15q.15.35-.062.65t-.588.3q-.2 0-.375-.112t-.25-.313L3.65 13H2.5v1.25q0 .325-.213.538T1.75 15t-.537-.213T1 14.25m9-.75v-.75H8q-.425 0-.712-.288T7 11.75V10q0-.425.288-.712T8 9h2.75q.325 0 .538.213t.212.537t-.213.538t-.537.212H8.5v.75h2q.425 0 .713.288t.287.712V14q0 .425-.288.713T10.5 15H7.75q-.325 0-.537-.213T7 14.25t.213-.537t.537-.213zm5-1.075l.85-2.9q.075-.225.263-.375T16.55 9q.35 0 .563.288t.112.637l-1.325 4.55q-.075.225-.262.375T15.2 15h-.4q-.25 0-.437-.15t-.263-.375l-1.325-4.55q-.1-.35.113-.638T13.45 9q.25 0 .438.15t.262.375zm3 1.825v-4.5q0-.325.213-.537T18.75 9h2.75q.625 0 1.063.438T23 10.5v1q0 .625-.437 1.063T21.5 13h-2v1.25q0 .325-.213.538T18.75 15t-.537-.213T18 14.25M2.5 11.5h2v-1h-2zm17 0h2v-1h-2z"/></svg>