<svg xmlns="http://www.w3.org/2000/svg" viewBox="0 0 24 24" width="24" height="24"><path fill="currentColor" d="M10.625 21q-.575 0-.975-.45t-.3-1.025q.075-.475.438-.775t.837-.3h1.225l2.05-12.9h-2.5l-.55 3.4q-.075.475-.437.788t-.863.312q-.6 0-.987-.462t-.288-1.063L8.95 4.25q.1-.55.513-.9t.962-.35h9.95q.7 0 1.15.525t.325 1.2l-.675 4.225q-.075.475-.438.788t-.862.312q-.6 0-1-.45t-.3-1.05l.475-3h-2.5l-2.05 12.9h.825q.575 0 .975.45t.3 1.025q-.075.475-.437.775t-.838.3zm-5.7-14q-.475 0-.762-.35t-.213-.8q.05-.35.325-.6t.65-.25h2.9L7.5 7zM4.3 11q-.475 0-.762-.35t-.213-.8q.05-.35.325-.6T4.3 9h2.9l-.325 2zm-1.275 8q-.45 0-.75-.35t-.225-.8q.05-.375.325-.613t.65-.237h5.4l-.3 2zm.65-4q-.475 0-.762-.35t-.213-.8q.05-.35.325-.6t.65-.25h5.4l-.325 2z"/></svg>