<svg xmlns="http://www.w3.org/2000/svg" viewBox="0 0 24 24" width="24" height="24"><path fill="currentColor" d="M4 20q-.825 0-1.412-.587T2 18V6q0-.825.588-1.412T4 4h5.175q.4 0 .763.15t.637.425L12 6h8q.825 0 1.413.588T22 8v10q0 .825-.587 1.413T20 20zm3.825-6.45l-.725-.725q-.3-.3-.7-.287t-.7.312q-.275.3-.288.7t.288.7l1.425 1.425q.3.3.7.3t.7-.3l3.55-3.55q.3-.3.3-.7t-.3-.7t-.712-.3t-.713.3zM16 11.975l-.9-.9q-.275-.275-.7-.275t-.7.275t-.275.7t.275.7l.9.9l-.9.9q-.275.275-.275.7t.275.7t.7.275t.7-.275l.9-.9l.9.9q.275.275.7.275t.7-.275t.275-.7t-.275-.7l-.9-.9l.9-.9q.275-.275.275-.7t-.275-.7t-.7-.275t-.7.275z"/></svg>