<svg xmlns="http://www.w3.org/2000/svg" viewBox="0 0 24 24" width="24" height="24"><path fill="currentColor" d="M17 8q-.625 0-1.062-.437T15.5 6.5q0-.475.413-1.1t.712-.975q.15-.175.375-.175t.375.175q.3.35.713.975t.412 1.1q0 .625-.437 1.063T17 8m2.5 7q-1.05 0-1.775-.725T17 12.5q0-.875.688-2.013T18.925 8.7q.225-.275.575-.275t.575.275q.55.65 1.238 1.788T22 12.5q0 1.05-.725 1.775T19.5 15M9 16v1q0 .425.288.713T10 18t.713-.288T11 17v-1h1q.425 0 .713-.288T13 15t-.288-.712T12 14h-1v-1q0-.425-.288-.712T10 12t-.712.288T9 13v1H8q-.425 0-.712.288T7 15t.288.713T8 16zm-3 6q-.825 0-1.412-.587T4 20v-8q0-2.25 1.425-3.9T9 6.1V4H8q-.425 0-.712-.288T7 3t.288-.712T8 2h5q.85 0 1.538.213t.887.412q.275.125.425.375t.15.55q0 .425-.3.713t-.725.287q-.2 0-.55-.175Q14.1 4.2 13.75 4.1T13 4h-2v2.1q2.15.35 3.575 2T16 12v8q0 .825-.587 1.413T14 22z"/></svg>