<svg xmlns="http://www.w3.org/2000/svg" viewBox="0 0 24 24" width="24" height="24"><path fill="currentColor" d="M4 22q-.825 0-1.412-.587T2 20V4q0-.825.588-1.412T4 2h16q.825 0 1.413.588T22 4v16q0 .825-.587 1.413T20 22zm0-6v4h2v-2h-.5q-.2 0-.35-.15T5 17.5V16zm0-2h1q0-.425.288-.712T6 13v-2.5q0-.625.438-1.062T7.5 9h2q.625 0 1.063.438T11 10.5V13q.425 0 .713.288T12 14h8V4H4zm4.5-6q-.625 0-1.062-.437T7 6.5t.438-1.062T8.5 5t1.063.438T10 6.5t-.437 1.063T8.5 8M8 20h1v-2H8zm3 0h9v-4h-8v1.5q0 .2-.15.35t-.35.15H11zm.75-12.025q-.375-.475-.562-.95T11 6.05v-.3q.025-.325.263-.538T11.85 5q.275 0 .475.225t.175.525v.3q0 .275.113.538T13 7.15q.45.55.65 1.038t.2 1.012q0 .35-.25.575T13 10q-.3 0-.488-.238t-.187-.562q0-.3-.112-.55t-.463-.675m2.5 0q-.375-.475-.562-.95T13.5 6.05v-.3q.025-.325.263-.537T14.35 5q.275 0 .475.225T15 5.75v.3q0 .275.113.538t.387.562q.45.55.65 1.038t.2 1.012q0 .35-.25.575t-.6.225q-.3 0-.488-.238t-.187-.562q0-.3-.112-.55t-.463-.675m2.55 0q-.375-.475-.562-.95t-.188-.975v-.3q.025-.325.263-.537T16.9 5q.275 0 .475.225t.175.525v.3q0 .275.113.538t.387.562q.45.55.65 1.038t.2 1.012q0 .35-.25.575t-.6.225q-.3 0-.488-.238t-.187-.562q0-.3-.112-.55t-.463-.675"/></svg>