<svg xmlns="http://www.w3.org/2000/svg" viewBox="0 0 24 24" width="24" height="24"><path fill="currentColor" d="M18.5 16.8v-2.3q0-.2-.15-.35T18 14t-.35.15t-.15.35v2.275q0 .2.075.388t.225.337l1.525 1.525q.15.15.35.15t.35-.15t.15-.35t-.15-.35zM7 10h7q.425 0 .713-.288T15 9V7q0-.425-.288-.712T14 6H7q-.425 0-.712.288T6 7v2q0 .425.288.713T7 10m11 12q-2.075 0-3.537-1.463T13 17t1.463-3.537T18 12t3.538 1.463T23 17t-1.463 3.538T18 22M5 21q-.825 0-1.412-.587T3 19V5q0-.825.588-1.412T5 3h11.175q.4 0 .763.15t.637.425l2.85 2.85q.275.275.425.638t.15.762V9.65q0 .35-.3.563t-.65.087q-.5-.15-1.012-.225T18 10q-1.45 0-2.75.55t-2.3 1.6q-.225-.075-.462-.112T12 12q-1.25 0-2.125.875T9 15q0 1 .575 1.775t1.475 1.075q.05.5.175.962t.325.913t-.025.862t-.7.413z"/></svg>