<svg xmlns="http://www.w3.org/2000/svg" viewBox="0 0 24 24" width="24" height="24"><path fill="currentColor" d="M11.5 13.5q.525 0 .988-.137t.912-.413l1.525 1.575q.2.225.513.213t.537-.213q.225-.225.238-.537T16 13.45l-1.55-1.55q.275-.425.413-.9T15 10q0-1.475-1.038-2.488T11.5 6.5T9.037 7.513T8 10t1.038 2.488T11.5 13.5m0-1.5q-.825 0-1.412-.587T9.5 10t.588-1.412T11.5 8q.8 0 1.4.588T13.5 10t-.587 1.413T11.5 12M2 21q-.425 0-.712-.288T1 20t.288-.712T2 19h20q.425 0 .713.288T23 20t-.288.713T22 21zm2-3q-.825 0-1.412-.587T2 16V5q0-.825.588-1.412T4 3h16q.825 0 1.413.588T22 5v11q0 .825-.587 1.413T20 18z"/></svg>