<svg xmlns="http://www.w3.org/2000/svg" viewBox="0 0 24 24" width="24" height="24"><path fill="currentColor" d="M14.175 20H8q-.825 0-1.412-.587T6 18v-8q0-.45.3-.725T7 9q.425 0 .713.3t.287.725V18h6.175l-1.125-1.125q-.125-.15-.2-.325t-.075-.375t.075-.375t.2-.325q.15-.15.338-.225t.387-.075t.375.075t.325.225L17.3 18.3q.15.15.225.325T17.6 19t-.075.375t-.225.325l-2.85 2.85q-.15.15-.312.225t-.363.075t-.387-.088t-.338-.237t-.225-.325t-.075-.375t.075-.375t.225-.325zM18 6v8q0 .45-.3.725T17 15q-.425 0-.712-.3T16 13.975V6H9.825l1.125 1.125q.275.275.275.688t-.275.712q-.3.3-.712.3t-.713-.3L6.7 5.7q-.15-.15-.225-.325T6.4 5t.075-.375T6.7 4.3l2.85-2.85q.3-.3.7-.287t.7.312q.275.3.288.7t-.288.7L9.825 4H16q.825 0 1.413.588T18 6"/></svg>