<svg xmlns="http://www.w3.org/2000/svg" viewBox="0 0 24 24" width="24" height="24"><path fill="currentColor" d="M8.475 21q-.625 0-1.062-.437T6.975 19.5t.438-1.062T8.475 18H14.1q.525 0 1 .2t.9.475v-1.1q0-1.75.463-3.425t1.187-3.25l.5-1.05q.275-.625.188-1.287T17.775 7.4q-.2-.2-.3-.45t-.1-.525q0-.575.425-1t1-.425q.5 0 .913.263t.637.712q.325.625.488 1.3T21 8.65q0 .4-.05.788t-.175.762l-2.4 9.325q-.2.65-.725 1.063t-1.2.412zM9 15q-.325 0-.537-.213t-.213-.537V12.8L7.05 14q-.225.225-.525.225T6 14t-.225-.525T6 12.95l2.25-2.25v-.95H7.3L5.05 12q-.225.225-.525.225T4 12t-.225-.525T4 10.95l1.2-1.2H3.75q-.325 0-.538-.213T3 9t.213-.537t.537-.213H5.2L4 7.05q-.225-.225-.225-.525T4 6t.525-.225T5.05 6L7.3 8.25h.95V7.3L6 5.05q-.225-.225-.225-.525T6 4t.525-.225T7.05 4l1.2 1.2V3.75q0-.325.213-.538T9 3t.538.213t.212.537V5.2l1.2-1.2q.225-.225.525-.225T12 4t.225.525T12 5.05L9.75 7.3v.95h.95L12.95 6q.225-.225.525-.225T14 6t.225.525T14 7.05l-1.2 1.2h1.45q.325 0 .538.213T15 9t-.213.538t-.537.212H12.8l1.2 1.2q.225.225.225.525T14 12t-.525.225T12.95 12L10.7 9.75h-.95v.95L12 12.95q.225.225.225.525T12 14t-.525.225T10.95 14l-1.2-1.2v1.45q0 .325-.213.538T9 15"/></svg>