<svg xmlns="http://www.w3.org/2000/svg" viewBox="0 0 24 24" width="24" height="24"><path fill="currentColor" d="M19.775 22.575L10.175 13H4v7h12v-4.025l2 2V20q0 .825-.587 1.413T16 22H4q-.825 0-1.412-.587T2 20v-9q0-.825.588-1.412T4 9h2v-.175L1.375 4.2q-.3-.3-.3-.712t.3-.713t.713-.3t.712.3l18.4 18.4q.3.3.3.7t-.3.7t-.712.3t-.713-.3M22 4v9q0 .825-.587 1.413T20 15h-1.3q-.4 0-.763-.15t-.637-.425L13.575 10.7q-.25-.25-.287-.525t.087-.55t.35-.45T14.3 9H16q.825 0 1.413.588T18 11v2h2V6H9.7q-.4 0-.762-.15T8.3 5.425L6.575 3.7q-.25-.25-.287-.525t.087-.55t.35-.45T7.3 2H20q.825 0 1.413.588T22 4"/></svg>