<svg xmlns="http://www.w3.org/2000/svg" viewBox="0 0 24 24" width="24" height="24"><path fill="currentColor" d="M13 20.375v-1.6q0-.35.2-.625t.55-.35L17 17l-3.25-.8q-.35-.075-.55-.35t-.2-.625v-1.6q0-.575.475-.863t.975-.037L21.2 16.1q.55.275.55.9t-.55.9l-6.75 3.375q-.5.25-.975-.037T13 20.375M13 22v-4l4-1l-4-1v-4l10 5zm-8-1q-.825 0-1.412-.587T3 19v-3.8q1.2 0 2.1-.762T6 12.5t-.9-1.937T3 9.8V6q0-.825.588-1.412T5 4h4q0-1.05.725-1.775T11.5 1.5t1.775.725T14 4h4q.825 0 1.413.588T20 6v7.25l-6.1-3.05q-1-.5-1.95.075t-.95 1.7v6.075q-1 .2-1.6.938T8.8 21z"/></svg>