<svg xmlns="http://www.w3.org/2000/svg" viewBox="0 0 24 24" width="24" height="24"><path fill="currentColor" d="M12 18q1.65 0 2.825-1.175T16 14v-1q0-.425-.288-.712T15 12H9q-.425 0-.712.288T8 13v1q0 1.65 1.175 2.825T12 18m0-1.5q-1.05 0-1.775-.725T9.5 14v-.5h5v.5q0 1.05-.725 1.775T12 16.5M8.5 7q-.85 0-1.5.55T6 8.9q-.125.275.038.525t.462.325q.275.075.55-.062t.4-.413q.175-.325.438-.55T8.5 8.5t.613.238t.437.562q.125.275.4.4t.55.05q.3-.075.463-.325T11 8.9q-.35-.8-1-1.35T8.5 7m7 0q-.85 0-1.5.55T13 8.9q-.125.275.038.525t.462.325q.275.075.55-.062t.4-.413q.175-.325.438-.55T15.5 8.5t.613.238t.437.562q.125.275.4.4t.55.05q.3-.075.463-.325T18 8.9q-.35-.8-1-1.35T15.5 7M12 22q-2.075 0-3.9-.788t-3.175-2.137T2.788 15.9T2 12t.788-3.9t2.137-3.175T8.1 2.788T12 2t3.9.788t3.175 2.137T21.213 8.1T22 12t-.788 3.9t-2.137 3.175t-3.175 2.138T12 22"/></svg>