<svg xmlns="http://www.w3.org/2000/svg" viewBox="0 0 24 24" width="24" height="24"><path fill="currentColor" d="M11.3 18h1.4q1.375 0 2.338-.875T16 15t-.962-2.125T12.7 12h-1.4q-1.375 0-2.338.875T8 15t.963 2.125T11.3 18m0-1.5q-.75 0-1.275-.437T9.5 15t.525-1.062T11.3 13.5h1.4q.75 0 1.275.438T14.5 15t-.525 1.063t-1.275.437zM8 10q1.075 0 1.913-.687t1.037-1.738q.05-.25-.175-.413T10.25 7q-.275 0-.5.138t-.35.412q-.175.425-.55.688T8 8.5H6.75q-.325 0-.537.213T6 9.25t.213.538t.537.212zm8 0h1.25q.325 0 .538-.213T18 9.25t-.213-.537t-.537-.213H16q-.475 0-.85-.262t-.55-.688q-.125-.275-.35-.412T13.75 7q-.3 0-.525.163t-.175.412q.2 1.05 1.038 1.738T16 10m-4 12q-2.075 0-3.9-.788t-3.175-2.137T2.788 15.9T2 12t.788-3.9t2.137-3.175T8.1 2.788T12 2t3.9.788t3.175 2.137T21.213 8.1T22 12t-.788 3.9t-2.137 3.175t-3.175 2.138T12 22"/></svg>