<svg xmlns="http://www.w3.org/2000/svg" viewBox="0 0 24 24" width="24" height="24"><path fill="currentColor" d="M7 17.675h-.65l-.15.175q0 .05.15.15h2.3l.15-.15q0-.075-.038-.125t-.112-.05H7.525L8.85 14h3.35l1.25 3.675H12.4l-.15.175q0 .05.15.15h5.25l.15-.15q0-.075-.038-.125t-.112-.05h-.625l-4.15-11.25q-.075-.2-.238-.312T12.276 6H11.8q-.2 0-.375.113t-.25.312zm2-4.05l1.6-4.45l1.475 4.45zM4 22q-.825 0-1.412-.587T2 20V4q0-.825.588-1.412T4 2h16q.825 0 1.413.588T22 4v16q0 .825-.587 1.413T20 22z"/></svg>