<svg xmlns="http://www.w3.org/2000/svg" viewBox="0 0 24 24" width="24" height="24"><path fill="currentColor" d="M11 11V3q0-.425.288-.712T12 2t.713.288T13 3v8q0 .425-.288.713T12 12t-.712-.288T11 11m1 8q-3.35 0-5.675-2.325T4 11q0-1.7.687-3.225T6.6 5.125q.35-.3.8-.288t.775.338q.275.275.238.675t-.363.675q-.95.85-1.5 2T6 11q0 2.5 1.75 4.25T12 17t4.25-1.75T18 11q0-1.325-.55-2.475t-1.5-2q-.325-.275-.363-.675t.238-.675q.325-.325.775-.337t.8.287q1.225 1.125 1.913 2.65T20 11q0 3.35-2.325 5.675T12 19m-4 5q-.425 0-.712-.288T7 23t.288-.712T8 22t.713.288T9 23t-.288.713T8 24m4 0q-.425 0-.712-.288T11 23t.288-.712T12 22t.713.288T13 23t-.288.713T12 24m4 0q-.425 0-.712-.288T15 23t.288-.712T16 22t.713.288T17 23t-.288.713T16 24"/></svg>