<svg xmlns="http://www.w3.org/2000/svg" viewBox="0 0 24 24" width="24" height="24"><path fill="currentColor" d="M10.825 22q-.675 0-1.162-.45t-.588-1.1L8.85 18.8q-.325-.125-.612-.3t-.563-.375l-1.55.65q-.625.275-1.25.05t-.975-.8l-1.175-2.05q-.35-.575-.2-1.225t.675-1.075l1.325-1Q4.5 12.5 4.5 12.337v-.675q0-.162.025-.337l-1.325-1Q2.675 9.9 2.525 9.25t.2-1.225L3.9 5.975q.35-.575.975-.8t1.25.05l1.55.65q.275-.2.575-.375t.6-.3l.225-1.65q.1-.65.588-1.1T10.825 2h2.35q.675 0 1.163.45t.587 1.1l.225 1.65q.325.125.613.3t.562.375l1.55-.65q.625-.275 1.25-.05t.975.8l1.175 2.05q.35.575.2 1.225t-.675 1.075l-1.325 1q.025.175.025.338v.674q0 .163-.05.338l1.325 1q.525.425.675 1.075t-.2 1.225l-1.2 2.05q-.35.575-.975.8t-1.25-.05l-1.5-.65q-.275.2-.575.375t-.6.3l-.225 1.65q-.1.65-.587 1.1t-1.163.45zm1.225-6.5q1.45 0 2.475-1.025T15.55 12t-1.025-2.475T12.05 8.5q-1.475 0-2.488 1.025T8.55 12t1.013 2.475T12.05 15.5"/></svg>