<svg xmlns="http://www.w3.org/2000/svg" viewBox="0 0 24 24" width="24" height="24"><path fill="currentColor" d="M9 18q-.425 0-.712-.288T8 17v-2h-.15q-.8 0-1.375-.525t-.625-1.3l-.75-9.1q-.05-.425.25-.75T6.075 3H7.45q1.125 0 1.95.7t1.025 1.8L11 9h4q1.65 0 2.825 1.175T19 13v1q0 .425-.288.713T18 15h-1v2q0 .425-.288.713T16 18t-.712-.288T15 17v-2h-5v2q0 .425-.288.713T9 18m-1 4q-.425 0-.712-.288T7 21t.288-.712T8 20t.713.288T9 21t-.288.713T8 22m4 0q-.425 0-.712-.288T11 21t.288-.712T12 20t.713.288T13 21t-.288.713T12 22m4 0q-.425 0-.712-.288T15 21t.288-.712T16 20t.713.288T17 21t-.288.713T16 22"/></svg>