<svg xmlns="http://www.w3.org/2000/svg" viewBox="0 0 24 24" width="24" height="24"><path fill="currentColor" d="M14.5 22q-.625 0-1.062-.437T13 20.5v-5q0-.625.438-1.062T14.5 14H16l.7-.7q.15-.15.338-.225t.387-.075h1.15q.2 0 .387.075t.338.225l.7.7h1.5q.625 0 1.062.438T23 15.5v5q0 .625-.437 1.063T21.5 22zm3.5-2q.825 0 1.413-.587T20 18t-.587-1.412T18 16t-1.412.588T16 18t.588 1.413T18 20m-7.725 2q-.425 0-.75-.275t-.375-.7l-.3-2.225q-.325-.125-.613-.3t-.562-.375l-1.55.65q-.625.275-1.25.05t-.975-.8l-1.175-2.05q-.35-.575-.2-1.225t.675-1.075l1.325-1Q4.5 12.5 4.5 12.337v-.675q0-.162.025-.337l-1.325-1Q2.675 9.9 2.525 9.25t.2-1.225L3.9 5.975q.35-.575.975-.8t1.25.05l1.55.65q.275-.2.575-.375t.6-.3l.2-1.65q.075-.675.575-1.113T10.8 2h2.4q.675 0 1.175.438t.575 1.112l.2 1.65q.325.125.613.3t.562.375l1.5-.65q.625-.275 1.263-.05t.987.8l1.175 2.05q.35.575.213 1.225t-.663 1.075L19.125 11.6q-.275.2-.562.3t-.638.1h-2.35q0-1.45-1.037-2.475T12.05 8.5q-1.475 0-2.488 1.013T8.55 12q0 1.2.688 2.1T11 15.35v5.8q0 .35-.2.6t-.525.25"/></svg>