<svg xmlns="http://www.w3.org/2000/svg" viewBox="0 0 24 24" width="24" height="24"><path fill="currentColor" d="M12 16q.425 0 .713-.288T13 15t-.288-.712T12 14t-.712.288T11 15t.288.713T12 16m0-3q.425 0 .713-.288T13 12V9q0-.425-.288-.712T12 8t-.712.288T11 9v3q0 .425.288.713T12 13m-1.175 9q-.675 0-1.162-.45t-.588-1.1L8.85 18.8q-.325-.125-.612-.3t-.563-.375l-1.55.65q-.625.275-1.25.05t-.975-.8l-1.175-2.05q-.35-.575-.2-1.225t.675-1.075l1.325-1Q4.5 12.5 4.5 12.337v-.675q0-.162.025-.337l-1.325-1Q2.675 9.9 2.525 9.25t.2-1.225L3.9 5.975q.35-.575.975-.8t1.25.05l1.55.65q.275-.2.575-.375t.6-.3l.225-1.65q.1-.65.588-1.1T10.825 2h2.35q.675 0 1.163.45t.587 1.1l.225 1.65q.325.125.613.3t.562.375l1.55-.65q.625-.275 1.25-.05t.975.8l1.175 2.05q.35.575.2 1.225t-.675 1.075l-1.325 1q.025.175.025.338v.674q0 .163-.05.338l1.325 1q.525.425.675 1.075t-.2 1.225l-1.2 2.05q-.35.575-.975.8t-1.25-.05l-1.5-.65q-.275.2-.575.375t-.6.3l-.225 1.65q-.1.65-.587 1.1t-1.163.45z"/></svg>