<svg xmlns="http://www.w3.org/2000/svg" viewBox="0 0 24 24" width="24" height="24"><path fill="currentColor" d="M10.825 22q-.675 0-1.162-.45t-.588-1.1L8.85 18.8q-.325-.125-.612-.3t-.563-.375l-1.55.65q-.625.275-1.25.05t-.975-.8l-1.175-2.05q-.35-.575-.2-1.225t.675-1.075l1.325-1Q4.5 12.5 4.5 12.337v-.675q0-.162.025-.337l-1.325-1Q2.675 9.9 2.525 9.25t.2-1.225L3.9 5.975q.35-.575.975-.8t1.25.05l1.55.65q.275-.2.575-.375t.6-.3l.225-1.65q.1-.65.588-1.1T10.825 2h2.35q.675 0 1.163.45t.587 1.1l.225 1.65q.325.125.613.3t.562.375l1.55-.65q.625-.275 1.25-.05t.975.8l1.175 2.05q.35.575.2 1.225t-.675 1.075l-1.325 1q.025.175.025.338v.674q0 .163-.05.338l1.325 1q.525.425.675 1.075t-.2 1.225l-1.2 2.05q-.35.575-.975.8t-1.25-.05l-1.5-.65q-.275.2-.575.375t-.6.3l-.225 1.65q-.1.65-.587 1.1t-1.163.45zm1.225-6.425q.2 0 .375-.062t.325-.213l2.8-2.8q.425-.425.55-1.038t-.125-1.187t-.75-.925T14.1 9t-1.125.387t-.925.813q-.45-.425-.937-.813T10 9t-1.137.338t-.763.912t-.112 1.188t.562 1.062l2.775 2.8q.15.15.338.213t.387.062"/></svg>