<svg xmlns="http://www.w3.org/2000/svg" viewBox="0 0 24 24" width="24" height="24"><path fill="currentColor" d="m11 12.4l-3.9 3.9q-.275.275-.7.275t-.7-.275t-.275-.7t.275-.7l4.9-4.9l-4.9-4.9q-.275-.275-.275-.7t.275-.7t.7-.275t.7.275L11 7.6V1.425q0-.45.3-.738T12 .4q.2 0 .375.075T12.7.7L17 5q.15.15.213.325t.062.375t-.062.375T17 6.4L13.4 10l3.6 3.6q.15.15.213.325t.062.375t-.062.375T17 15l-4.3 4.3q-.15.15-.325.225T12 19.6q-.4 0-.7-.288t-.3-.737zm2 3.75l1.9-1.85l-1.9-1.9zm0-8.55l1.9-1.9L13 3.85zM8 24q-.425 0-.712-.288T7 23t.288-.712T8 22t.713.288T9 23t-.288.713T8 24m4 0q-.425 0-.712-.288T11 23t.288-.712T12 22t.713.288T13 23t-.288.713T12 24m4 0q-.425 0-.712-.288T15 23t.288-.712T16 22t.713.288T17 23t-.288.713T16 24"/></svg>