<svg xmlns="http://www.w3.org/2000/svg" viewBox="0 0 24 24" width="24" height="24"><path fill="currentColor" d="M12 4q-.825 0-1.412-.587T10 2t.588-1.412T12 0t1.413.588T14 2t-.587 1.413T12 4M9 18V7q-1.225-.1-2.475-.275t-2.45-.45q-.425-.1-.687-.475T3.25 5t.525-.625t.85-.1q1.75.375 3.638.55T12 5t3.738-.175t3.637-.55q.45-.1.85.1T20.75 5t-.137.8t-.688.475q-1.2.275-2.45.45T15 7v11q0 .425-.287.713T14 19t-.712-.288T13 18v-5h-2v5q0 .425-.288.713T10 19t-.712-.288T9 18m-1 6q-.425 0-.712-.288T7 23t.288-.712T8 22t.713.288T9 23t-.288.713T8 24m4 0q-.425 0-.712-.288T11 23t.288-.712T12 22t.713.288T13 23t-.288.713T12 24m4 0q-.425 0-.712-.288T15 23t.288-.712T16 22t.713.288T17 23t-.288.713T16 24"/></svg>