<svg xmlns="http://www.w3.org/2000/svg" viewBox="0 0 24 24" width="24" height="24"><path fill="currentColor" d="M17 22q-2.075 0-3.537-1.463T12 17t1.463-3.537T17 12t3.538 1.463T22 17t-1.463 3.538T17 22m2.2-2.85q.125-.125.063-.3t-.238-.2q-.65-.125-1.213-.488T16.9 17.2t-.387-1.275t.187-1.3q.05-.175-.062-.313t-.288-.087q-1.675.3-2.287 1.9t.487 2.975q.875 1.1 2.3 1.125t2.35-1.075M10.575 22q-.6 0-1-.462t-.5-1.088L8.85 18.8q-.325-.125-.612-.3t-.563-.375l-1.55.65q-.625.275-1.25.05t-.975-.8l-1.175-2.05q-.35-.575-.2-1.225t.675-1.075l1.325-1Q4.5 12.5 4.5 12.337v-.675q0-.162.025-.337l-1.325-1Q2.675 9.9 2.525 9.25t.2-1.225L3.9 5.975q.35-.575.975-.8t1.25.05l1.55.65q.275-.2.563-.375t.612-.3l.225-1.65q.1-.65.6-1.1t1.15-.45h2.35q.65 0 1.15.45t.6 1.1l.225 1.65q.325.125.613.3t.562.375l1.55-.65q.625-.275 1.25-.05t.975.8l1.175 2.05q.35.575.2 1.225t-.675 1.075l-.2.15q-.2.15-.425.162t-.45-.087q-.525-.225-1.062-.363t-1.113-.162q-.625-.05-1.237.05t-1.238.175q-.475-.8-1.275-1.275T12.05 8.5q-1.45 0-2.475 1.025T8.55 12q0 .95.475 1.763t1.3 1.287q-.175.5-.25 1.025T10 17.125q0 1.05.338 2.038t.937 1.862q.2.3-.025.638t-.675.337"/></svg>