<svg xmlns="http://www.w3.org/2000/svg" viewBox="0 0 24 24" width="24" height="24"><path fill="currentColor" d="M8.125 21.025q-1.35 0-2.412-.85T4.25 18l-.85-2.7q-.15-.5.15-.9t.8-.4h15.3q.5 0 .8.4t.15.9l-.85 2.7q-.425 1.325-1.475 2.175t-2.4.85zM5.2 12q.175-.625.45-1.213t.7-1.087q-.15-.275-.25-.6T6 8.425q0-1.5.963-2.588T9.4 4.55q.4-.725 1.1-1.137T12 3t1.513.412t1.112 1.138q1 .125 1.763.713T17.575 6.7l1.2-1.875q.225-.35.625-.45t.75.125t.438.638t-.138.762l-2.6 4.075q.325.475.563.975T18.8 12zm3.55-3.025L12 7.9l3.225 1.075q.275.1.525-.075t.25-.475q0-.725-.475-1.25t-1.2-.625l-.975-.15l-.5-.875q-.125-.25-.35-.387T12 5t-.513.138t-.362.387l-.475.875l-1 .15q-.725.1-1.187.625T8 8.425q0 .3.238.475t.512.075"/></svg>