<svg xmlns="http://www.w3.org/2000/svg" viewBox="0 0 24 24" width="24" height="24"><path fill="currentColor" d="M12 21.9q-.175 0-.325-.025t-.3-.075q-3.425-1.125-5.4-4.1T4 11.1V6.375q0-.625.363-1.125t.937-.725l6-2.25q.35-.125.7-.125t.7.125l6 2.25q.575.225.938.725T20 6.375v4.6q0 .45-.337.763t-.788.287q-.95.025-1.812.375t-1.588 1.075q-.675.675-1.075 1.575T14 17v3.575q0 .5-.437.775t-.938.45q-.15.05-.3.075T12 21.9m4.85.1q-.35 0-.6-.25t-.25-.6v-3.3q0-.35.25-.6t.6-.25H17v-1q0-.825.588-1.412T19 14t1.413.588T21 16v1h.15q.35 0 .6.25t.25.6v3.3q0 .35-.25.6t-.6.25zM18 17h2v-1q0-.425-.288-.712T19 15t-.712.288T18 16z"/></svg>