<svg xmlns="http://www.w3.org/2000/svg" viewBox="0 0 24 24" width="24" height="24"><path fill="currentColor" d="M12 13q1.45 0 2.475-1.025T15.5 9.5t-1.025-2.475T12 6T9.525 7.025T8.5 9.5t1.025 2.475T12 13m0 6.9q1.475-.475 2.613-1.487t1.987-2.288q-1.075-.55-2.238-.837T12 15t-2.363.288t-2.237.837q.85 1.275 1.988 2.288T12 19.9m0 2q-.175 0-.325-.025t-.3-.075Q8 20.675 6 17.638T4 11.1V6.375q0-.625.363-1.125t.937-.725l6-2.25q.35-.125.7-.125t.7.125l6 2.25q.575.225.938.725T20 6.375V11.1q0 3.5-2 6.538T12.625 21.8q-.15.05-.3.075T12 21.9"/></svg>