<svg xmlns="http://www.w3.org/2000/svg" viewBox="0 0 24 24" width="24" height="24"><path fill="currentColor" d="M17.5 16.8v-2.3q0-.2-.15-.35T17 14t-.35.15t-.15.35V17q0 .05.15.35l1.675 1.675q.15.15.35.15t.35-.15t.15-.35t-.15-.35zM9.5 9q-.825 0-1.412-.587T7.5 7t.588-1.412T9.5 5t1.413.588T11.5 7t-.587 1.413T9.5 9M17 22q-2.075 0-3.537-1.463T12 17t1.463-3.537T17 12t3.538 1.463T22 17t-1.463 3.538T17 22M5 22q-.825 0-1.412-.587T3 20V4q0-.825.588-1.412T5 2h9q.825 0 1.413.588T16 4v5.325q0 .325-.2.575t-.525.325q-.35.1-.663.212t-.612.238V4H5v6.525q.45-.275.95-.4T7 10h7.15v.6q-1.275.575-2.212 1.55T10.5 14.4V14q0-.425-.288-.712T9.5 13t-.712.288T8.5 14v1h-1q-.425 0-.712.288T6.5 16t.288.713T7.5 17h1v1q0 .425.288.713T9.5 19q.2 0 .4-.075t.325-.225q.125.5.325 1t.475.95t.05.9t-.7.45z"/></svg>