<svg xmlns="http://www.w3.org/2000/svg" viewBox="0 0 24 24" width="24" height="24"><path fill="currentColor" d="M8 18q-.425 0-.712-.288T7 17t.288-.712T8 16t.713.288T9 17t-.288.713T8 18m4 0q-.425 0-.712-.288T11 17t.288-.712T12 16t.713.288T13 17t-.288.713T12 18m4 0q-.425 0-.712-.288T15 17t.288-.712T16 16t.713.288T17 17t-.288.713T16 18M6 14q-.425 0-.712-.288T5 13v-1q0-2.65 1.7-4.6T11 5.1V4q0-.425.288-.713T12 3t.713.288T13 4v1.1q2.6.35 4.3 2.3T19 12v1q0 .425-.288.713T18 14zm2 7q-.425 0-.712-.288T7 20t.288-.712T8 19t.713.288T9 20t-.288.713T8 21m4 0q-.425 0-.712-.288T11 20t.288-.712T12 19t.713.288T13 20t-.288.713T12 21m4 0q-.425 0-.712-.288T15 20t.288-.712T16 19t.713.288T17 20t-.288.713T16 21"/></svg>