<svg xmlns="http://www.w3.org/2000/svg" viewBox="0 0 24 24" width="24" height="24"><path fill="currentColor" d="M3 23q-.825 0-1.412-.587T1 21V3q0-.825.588-1.412T3 1h18q.825 0 1.413.588T23 3v18q0 .825-.587 1.413T21 23zm12-3h4q.425 0 .713-.288T20 19v-4q0-.425-.288-.712T19 14t-.712.288T18 15v1.55l-2.425-2.425q-.3-.3-.712-.3t-.713.3t-.312.7t.287.7L16.6 18H15q-.425 0-.712.288T14 19t.288.713T15 20m-10.7-.3q.275.275.7.275t.7-.275L18 7.4V9q0 .425.288.712T19 10t.713-.288T20 9V5q0-.425-.288-.712T19 4h-4q-.425 0-.712.288T14 5t.288.713T15 6h1.6L4.3 18.3q-.275.275-.275.7t.275.7m-.025-14l4.2 4.175q.275.275.7.275t.7-.275q.3-.3.288-.712t-.288-.688L5.675 4.3q-.3-.275-.712-.275t-.688.275T4 5t.275.7"/></svg>