<svg xmlns="http://www.w3.org/2000/svg" viewBox="0 0 24 24" width="24" height="24"><path fill="currentColor" d="M17.925 14.65q-.2 0-.375-.062t-.325-.213L8.525 5.7q-.125-.125-.187-.288T8.275 5.1q0-.275.163-.525t.487-.3q.75-.125 1.525-.2T12 4q3.125 0 5.988 1.088T23.2 8.3q.175.15.25.35t.075.4t-.062.375t-.213.325l-4.625 4.625q-.15.15-.325.213t-.375.062m1.85 7.925L15.1 17.9l-2.4 2.4q-.3.3-.7.3t-.7-.3L.75 9.75q-.3-.3-.3-.75t.325-.725Q1.425 7.7 2.1 7.2t1.375-.9l-2.1-2.1q-.3-.3-.288-.7t.313-.7t.713-.3t.712.3L21.2 21.175q.3.3.3.7t-.3.7t-.712.3t-.713-.3"/></svg>