<svg xmlns="http://www.w3.org/2000/svg" viewBox="0 0 24 24" width="24" height="24"><path fill="currentColor" d="M17.6 20.8q-.275.275-.687.288T16.2 20.8q-.275-.275-.275-.7t.275-.7l1.4-1.4l-1.4-1.4q-.275-.275-.275-.7t.275-.7t.7-.275t.7.275l1.4 1.4l1.4-1.4q.275-.275.687-.287t.713.287q.275.275.275.7t-.275.7L20.425 18l1.375 1.4q.275.275.288.688t-.288.712q-.275.275-.7.275t-.7-.275L19 19.425zM4.425 22q-.45 0-.737-.3T3.4 21q0-.2.075-.375T3.7 20.3L20.275 3.725q.15-.15.325-.225t.375-.075q.4 0 .7.288t.3.737v6.9q0 .45-.388.688t-.812.087q-.425-.125-.875-.187t-.9-.063q-2.55 0-4.337 1.788T12.875 18q0 .775.163 1.463t.512 1.337q.225.425.013.813t-.638.387z"/></svg>