<svg xmlns="http://www.w3.org/2000/svg" viewBox="0 0 24 24" width="24" height="24"><path fill="currentColor" d="M14.075 11.725q1.825-1.35 2.85-2.962T17.95 5.55q0-.8-.262-1.175T16.975 4Q15.8 4 14.9 5.988t-.9 4.487q0 .35.013.663t.062.587M4.1 16.3q-.275.275-.7.275t-.7-.275t-.275-.7t.275-.7l.9-.9l-.9-.9q-.275-.275-.275-.7t.275-.7t.7-.275t.7.275l.9.9l.9-.9q.275-.275.7-.275t.7.275t.275.7t-.275.7l-.9.9l.9.9q.275.275.275.7t-.275.7t-.7.275t-.7-.275l-.9-.9zm11.35-.3q-.75 0-1.375-.288T13 14.776q-.4.2-.825.4l-.85.4q-.4.175-.787.013T10 15.025t.038-.775t.587-.55l.825-.387q.4-.188.775-.388q-.125-.55-.187-1.2t-.063-1.4q0-3.6 1.425-5.962T16.975 2q1.3 0 2.125.963t.825 2.687q0 2.15-1.362 4.25t-3.788 3.775q.175.175.363.263t.387.087q.525 0 1.225-.575t1.35-1.55q.25-.35.638-.488t.762.038q.375.2.55.588t.1.812q-.05.3-.05.575t.075.525q.125-.05.288-.162t.337-.288q.3-.275.713-.312t.737.212q.35.275.375.675t-.25.675q-.575.575-1.213.913T19.95 16q-.525 0-.937-.312t-.688-.963q-.7.625-1.425.95T15.45 16M4 21q-.425 0-.712-.288T3 20t.288-.712T4 19t.713.288T5 20t-.288.713T4 21m4 0q-.425 0-.712-.288T7 20t.288-.712T8 19t.713.288T9 20t-.288.713T8 21m4 0q-.425 0-.712-.288T11 20t.288-.712T12 19t.713.288T13 20t-.288.713T12 21m4 0q-.425 0-.712-.288T15 20t.288-.712T16 19t.713.288T17 20t-.288.713T16 21m4 0q-.425 0-.712-.288T19 20t.288-.712T20 19t.713.288T21 20t-.288.713T20 21"/></svg>