<svg xmlns="http://www.w3.org/2000/svg" viewBox="0 0 24 24" width="24" height="24"><path fill="currentColor" d="M5 23q-.425 0-.712-.288T4 22t.288-.712T5 21h4v-1H3q-.425 0-.712-.288T2 19t.288-.712T3 18h6v-1H2q-.425 0-.712-.288T1 16t.288-.712T2 15h7v-1H4q-.425 0-.712-.288T3 13t.288-.712T4 12h6.1l-.85-1.5q-.3-.525-.237-1.112T9.5 8.375l.1-.075q.275-.275.638-.3t.662.2l5.9 4.4q.575.425.887 1.05T18 15v5q0 1.25-.875 2.125T15 23zm14.825-9.35q-.25 0-.45-.137t-.3-.413q-.225-.5-.575-.925t-.8-.775l-4.6-3.425l-5.525-4.15q-.35-.25-.4-.65t.2-.75t.65-.412t.75.187l5.6 4.225l.6-.825l-4-3q-.35-.25-.413-.65t.188-.75t.65-.4t.75.2l4.9 3.65l.225-1.725q.075-.6.475-1.025t.975-.525l.15-.025q.375-.05.675.15t.425.55l2.1 7.075q.2.675.075 1.375t-.55 1.275l-1.2 1.6q-.125.15-.262.213t-.313.062M6.2 9.025q.25-.35.637-.4t.738.2t.412.638t-.187.737t-.65.413t-.75-.188t-.4-.65t.2-.75m.375-2.2q-.35-.25-.4-.65t.2-.75t.65-.4t.75.2l.8.625q.375.3.388.675T8.75 7.2t-.6.4t-.75-.175z"/></svg>