<svg xmlns="http://www.w3.org/2000/svg" viewBox="0 0 24 24" width="24" height="24"><path fill="currentColor" d="M8.5 23q-.45 0-1.088-.475t-1.037-.975L4.45 19.075q-.2-.25-.162-.55t.287-.5t.563-.162t.512.287l.675.875L9.2 17l1.6-8.125l-1.8.7V12q0 .425-.288.713T8 13t-.712-.288T7 12V8.95q0-.3.175-.55t.45-.375l3.5-1.475q.8-.35 1.175-.45T13 6q.525 0 .963.275T14.7 7l1 1.575q.55.825 1.375 1.463T19 10.9q.425.1.713.388T20 12t-.288.7t-.687.225q-1.35-.2-2.525-.85t-2-1.6l-.6 3l1.8 1.7q.15.15.225.338T16 15.9v5.6q.375-.025.713-.125t.637-.275q.1-.05.187-.075t.188-.025q.35 0 .562.238t.213.512q0 .2-.088.363t-.287.287q-.5.3-1.062.45t-1.188.15H12.75q-.325 0-.537-.213T12 22.25t.213-.537t.537-.213H14v-4.525l-2.1-2l-.8 2.875q-.05.175-.15.313t-.25.237l-3.125 2.225l.075.1q.225.3.512.5t.638.325q.225.125.35.263t.125.412q0 .325-.225.55T8.5 23m6-17.5q-.825 0-1.413-.587T12.5 3.5t.588-1.412T14.5 1.5t1.413.588T16.5 3.5t-.587 1.413T14.5 5.5"/></svg>