<svg xmlns="http://www.w3.org/2000/svg" viewBox="0 0 24 24" width="24" height="24"><path fill="currentColor" d="M18.775 22.5q-.225 0-.462-.025t-.463-.075L5.225 19.7q-1.1-.225-1.912-.887T2.075 17.2q-.05-.1-.05-.45q.075-.3.325-.475t.575-.125q.175.05.3.163t.2.262q.3.625.838 1.075t1.262.6l.475.1L9.5 16l-.8-3.5q-.1-.375-.025-.763T8.95 11l2.5-4H9.1L7.725 9.2q-.225.35-.625.45t-.75-.125T5.9 8.9t.125-.75L7.7 5.475q.125-.225.35-.35T8.55 5h5.15q.675 0 1.088.375t.562.7l.525 1.2q.425.975 1.25 1.675t1.9.95q.425.1.7.387T20 11t-.275.7t-.675.225q-1.45-.2-2.638-.988T14.475 8.95l-1.8 2.875L15.7 14.25q.15.125.225.275t.125.35L17 20.7l1.15.225q.15.05.313.063t.312.012q.6 0 1.075-.2t.9-.55q.125-.125.65-.15q.325.05.487.325t.113.55q-.025.125-.088.225t-.162.2q-.625.55-1.4.825t-1.575.275M14.9 20.25l-.75-4.65l-2.85-2.025l.375 2.7q.05.275-.075.55t-.375.425l-2.5 1.675zM16 5q-.825 0-1.413-.587T14 3t.588-1.412T16 1t1.413.588T18 3t-.587 1.413T16 5"/></svg>