<svg xmlns="http://www.w3.org/2000/svg" viewBox="0 0 24 24" width="24" height="24"><path fill="currentColor" d="m5.8 18l.9.9q.275.275.275.7t-.275.7t-.7.275t-.7-.275l-2.6-2.6q-.3-.3-.3-.7t.3-.7l2.6-2.6q.275-.275.7-.275t.7.275t.275.7t-.275.7l-.9.9h12.4l-.9-.9q-.275-.275-.275-.7t.275-.7t.7-.275t.7.275l2.6 2.6q.3.3.3.7t-.3.7l-2.6 2.6q-.275.275-.7.275t-.7-.275t-.275-.7t.275-.7l.9-.9zM2 11v-.575q0-.6.325-1.1t.9-.75q.65-.275 1.338-.425T6 8t1.438.15t1.337.425q.575.25.9.75t.325 1.1V11zm12 0v-.575q0-.6.325-1.1t.9-.75q.65-.275 1.338-.425T18 8t1.438.15t1.337.425q.575.25.9.75t.325 1.1V11zM6 7q-.825 0-1.412-.587T4 5t.588-1.412T6 3t1.413.588T8 5t-.587 1.413T6 7m12 0q-.825 0-1.412-.587T16 5t.588-1.412T18 3t1.413.588T20 5t-.587 1.413T18 7"/></svg>