<svg xmlns="http://www.w3.org/2000/svg" viewBox="0 0 24 24" width="24" height="24"><path fill="currentColor" d="M7.475 21Q5.2 21 3.6 19.4T2 15.525q0-2.15 1.438-3.713t3.587-1.737l-3.3-6.625q-.25-.5.038-.975T4.625 2h4.15q.575 0 1.038.3t.737.8L12 6l1.45-2.9q.275-.5.738-.8t1.037-.3h4.15q.575 0 .863.475t.037.975L17 10.025q2.125.2 3.563 1.763T22 15.5q0 2.3-1.6 3.9T16.5 21q-.225 0-.462-.012t-.463-.063q1.375-.9 2.15-2.337T18.5 15.5q0-2.725-1.888-4.612T12 9t-4.612 1.888T5.5 15.5q0 1.7.7 3.2t2.2 2.225q-.225.05-.462.063T7.475 21M12 20q-1.875 0-3.187-1.312T7.5 15.5t1.313-3.187T12 11t3.188 1.313T16.5 15.5t-1.312 3.188T12 20m0-3.15l1.225.925q.15.125.3.013t.1-.288l-.475-1.525l1.225-.875q.15-.125.1-.288t-.25-.162h-1.5l-.475-1.625q-.05-.175-.25-.175t-.25.175l-.475 1.625h-1.5q-.2 0-.25.163t.1.287l1.225.875l-.475 1.525q-.05.175.1.288t.3-.013z"/></svg>