<svg xmlns="http://www.w3.org/2000/svg" viewBox="0 0 24 24" width="24" height="24"><path fill="currentColor" d="m4.9 14.6l-.575 1.75q-.1.275-.35.463t-.55.187q-.5 0-.812-.413t-.113-.912l3-8.025q.125-.3.375-.475T6.45 7h.75q.325 0 .575.175t.375.475l3.025 8.075q.175.475-.112.875t-.788.4q-.3 0-.55-.187t-.35-.463L8.75 14.6zm.6-1.7h2.6L6.9 9.15h-.15zm10.45 2.3h4.15q.375 0 .638.263T21 16.1t-.262.638T20.1 17h-5.8q-.25 0-.425-.175T13.7 16.4v-.95q0-.175.05-.337t.175-.288L18.75 8.8H14.8q-.375 0-.638-.262T13.9 7.9t.263-.638T14.8 7h5.55q.25 0 .425.175t.175.425v.95q0 .175-.05.337t-.175.288zM9.6 5q-.175 0-.237-.15t.062-.275L11.65 2.35q.15-.15.35-.15t.35.15l2.225 2.225q.125.125.063.275T14.4 5zm2.05 16.65l-2.225-2.225q-.125-.125-.062-.275T9.6 19h4.8q.175 0 .238.15t-.063.275L12.35 21.65q-.15.15-.35.15t-.35-.15"/></svg>