<svg xmlns="http://www.w3.org/2000/svg" viewBox="0 0 24 24" width="24" height="24"><path fill="currentColor" d="M12.05 17.625L9.225 20.45q-.575.575-1.412.575T6.4 20.45l-2.825-2.825Q3 17.05 3 16.2t.575-1.425l2.8-2.8V8.7q0-.675.613-.925T8.075 8l7.95 7.925q.475.475.213 1.088t-.938.612zm4.9-10.6q-1.475-1.475-3.462-1.9T9.6 5.4q-.375.125-.762-.012t-.513-.513q-.15-.425.025-.812t.6-.538q2.425-.9 4.975-.363t4.45 2.438t2.438 4.488t-.388 5.037q-.15.4-.55.563t-.8-.013q-.375-.15-.513-.525t.013-.775q.7-1.9.275-3.887t-1.9-3.463m-1.4 1.425q.55.55.862 1.238t.438 1.462q.05.4-.225.675t-.7.275q-.4 0-.687-.275t-.388-.675q-.1-.35-.262-.675t-.438-.6t-.625-.462t-.725-.288q-.4-.1-.687-.375t-.338-.7q-.05-.4.213-.7t.637-.25q.825.1 1.588.438t1.337.912"/></svg>