<svg xmlns="http://www.w3.org/2000/svg" viewBox="0 0 24 24" width="24" height="24"><path fill="currentColor" d="M10 15q-.825 0-1.412-.587T8 13V5q0-.825.588-1.412T10 3h4q.825 0 1.413.588T16 5v8q0 .825-.587 1.413T14 15zm-2.025 7q-2.9-.025-4.925-2.05T1 15.025q0-.425.288-.725T2 14t.713.288T3 15q0 2.075 1.463 3.538T8 20q.425 0 .713.288T9 21t-.3.713t-.725.287m8.05 0q-.425 0-.725-.288T15 21t.288-.712T16 20q2.075 0 3.538-1.463T21 15q0-.425.288-.712T22 14t.713.288T23 15q-.025 2.9-2.05 4.938T16.025 22m-8.05-3.5q-1.425-.025-2.437-1.037T4.5 15.024q0-.425.288-.725T5.5 14t.713.288T6.5 15q0 .3.113.575t.324.488t.488.325T8 16.5q.425 0 .713.288T9 17.5t-.3.713t-.725.287m8.05 0q-.425 0-.725-.288T15 17.5t.288-.712T16 16.5q.3 0 .575-.112t.488-.326t.325-.487T17.5 15q0-.425.288-.712T18.5 14t.713.288t.287.712q-.025 1.45-1.025 2.463t-2.45 1.037"/></svg>