<svg xmlns="http://www.w3.org/2000/svg" viewBox="0 0 24 24" width="24" height="24"><path fill="currentColor" d="M10 19q-.825 0-1.412-.587T8 17V3q0-.825.588-1.412T10 1h9q.825 0 1.413.588T21 3v14q0 .825-.587 1.413T19 19zm4.5-11.5q.625 0 1.063-.437T16 6t-.437-1.062T14.5 4.5t-1.062.438T13 6t.438 1.063T14.5 7.5m0 8.5q1.45 0 2.475-1.025T18 12.5t-1.025-2.475T14.5 9t-2.475 1.025T11 12.5t1.025 2.475T14.5 16m0-2q-.625 0-1.062-.437T13 12.5t.438-1.062T14.5 11t1.063.438T16 12.5t-.437 1.063T14.5 14m.5 9H6q-.825 0-1.412-.587T4 21V6q0-.425.288-.712T5 5t.713.288T6 6v15h9q.425 0 .713.288T16 22t-.288.713T15 23"/></svg>