<svg xmlns="http://www.w3.org/2000/svg" viewBox="0 0 24 24" width="24" height="24"><path fill="currentColor" d="m6 18l-2.3 2.3q-.475.475-1.088.213T2 19.575V4.5h2.5L11 11H8.2L1.4 4.2q-.275-.275-.275-.7t.275-.7t.7-.275t.7.275l18.4 18.4q.275.275.288.688t-.288.712q-.275.275-.7.275t-.7-.275L15.15 18zM22 4v12.725q0 .35-.175.575t-.45.35t-.55.088t-.525-.288L13.85 11H17q.425 0 .713-.288T18 10t-.288-.712T17 9h-5.15l-1-1H17q.425 0 .713-.288T18 7t-.288-.712T17 6h-6q-.425 0-.712.288T10 7v.15L6.55 3.7q-.25-.25-.287-.525t.087-.55t.35-.45T7.275 2H20q.825 0 1.413.587T22 4M7 14q.425 0 .713-.288T8 13t-.288-.712T7 12t-.712.288T6 13t.288.713T7 14m0-3q.425 0 .713-.288T8 10t-.288-.712T7 9t-.712.288T6 10t.288.713T7 11"/></svg>