<svg xmlns="http://www.w3.org/2000/svg" viewBox="0 0 24 24" width="24" height="24"><path fill="currentColor" d="M11 17H7q-.425 0-.712-.288T6 16v-3q0-.825.588-1.412T8 11h2V9H7q-.425 0-.712-.288T6 8t.288-.712T7 7h3q.825 0 1.413.588T12 9v2q0 .825-.587 1.413T10 13H8v2h3q.425 0 .713.288T12 16t-.288.713T11 17m6-3.325l-1.75 2.9q-.125.2-.312.313t-.413.112q-.5 0-.763-.437t.013-.863L16 12l-2.225-3.7q-.275-.425-.012-.862T14.525 7q.225 0 .413.113t.312.312l1.75 2.9l1.75-2.9q.125-.2.313-.312T19.475 7q.5 0 .763.438t-.013.862L18 12l2.225 3.7q.275.425.013.863t-.763.437q-.225 0-.413-.112t-.312-.313zM4 17q-.425 0-.712-.288T3 16t.288-.712T4 15t.713.288T5 16t-.288.713T4 17"/></svg>