<svg xmlns="http://www.w3.org/2000/svg" viewBox="0 0 24 24" width="24" height="24"><path fill="currentColor" d="M8 17q-.425 0-.712-.288T7 16V9H6q-.425 0-.712-.288T5 8t.288-.712T6 7h1q.825 0 1.413.588T9 9v7q0 .425-.288.713T8 17m6 0q-.425 0-.712-.288T13 16t.288-.712T14 15h3v-2h-2q-.825 0-1.412-.587T13 11V9q0-.825.588-1.412T15 7h3q.425 0 .713.288T19 8t-.288.713T18 9h-3v2h2q.825 0 1.413.588T19 13v2q0 .825-.587 1.413T17 17zm-3 0q-.425 0-.712-.288T10 16t.288-.712T11 15t.713.288T12 16t-.288.713T11 17"/></svg>