<svg xmlns="http://www.w3.org/2000/svg" viewBox="0 0 24 24" width="24" height="24"><path fill="currentColor" d="M13.5 17H10q-.425 0-.712-.288T9 16v-3q0-.825.588-1.412T11 11h1.5V9H10q-.425 0-.712-.288T9 8t.288-.712T10 7h2.5q.825 0 1.413.588T14.5 9v2q0 .825-.587 1.413T12.5 13H11v2h2.5q.425 0 .713.288T14.5 16t-.288.713T13.5 17M3 9H2q-.425 0-.712-.288T1 8t.288-.712T2 7h2q.425 0 .713.288T5 8v8q0 .425-.288.713T4 17t-.712-.288T3 16zm16.5 4.675l-1.75 2.9q-.125.2-.312.313t-.413.112q-.5 0-.762-.437t.012-.863L18.5 12l-2.225-3.7q-.275-.425-.012-.862T17.025 7q.225 0 .413.113t.312.312l1.75 2.9l1.75-2.9q.125-.2.313-.312T21.975 7q.5 0 .763.438t-.013.862L20.5 12l2.225 3.7q.275.425.013.863t-.763.437q-.225 0-.413-.112t-.312-.313zM7 17q-.425 0-.712-.288T6 16t.288-.712T7 15t.713.288T8 16t-.288.713T7 17"/></svg>