<svg xmlns="http://www.w3.org/2000/svg" viewBox="0 0 24 24" width="24" height="24"><path fill="currentColor" d="M9.075 20.975q-1.175.125-2.837-.062T3.7 20.3q-.35-.8-.587-2.5T3 14.9zm2.375-.4l-8.05-8.05q.425-1.875 1.238-3.412t1.887-2.638Q7.6 5.4 9.138 4.613t3.312-1.188l8.1 8.1q-.4 1.85-1.175 3.4t-1.85 2.625q-1.125 1.1-2.687 1.888t-3.388 1.137M10.1 15.3l5.2-5.2q.275-.275.275-.7t-.275-.7t-.7-.275t-.7.275l-5.2 5.2q-.275.275-.275.7t.275.7t.7.275t.7-.275m10.85-6.15l-6.075-6.125q1.2-.15 2.95.05T20.3 3.7q.45 1 .625 2.588t.025 2.862"/></svg>