<svg xmlns="http://www.w3.org/2000/svg" viewBox="0 0 24 24" width="24" height="24"><path fill="currentColor" d="M5.675 15.55v1.775q0 .2-.075.388t-.225.337l-3.25 3.25q-.275.275-.7.275t-.7-.275t-.275-.7t.275-.7l2.95-2.95l-1.1-2.95q-.175-.45-.075-1.037t.575-1.063l3.3-3.3q.3-.3.65-.45T7.8 8t.775.15t.65.45l2 1.95q.675.675 1.65 1.063t2.1.387v2q-1.5 0-2.8-.475T9.925 12.1l-.7-.7l-2.35 2.35L8.7 15.6q.125.125.2.313t.075.387V21q0 .425-.287.713T7.975 22t-.712-.288T6.975 21v-4.25zm11.3.95V21q0 .425-.288.713t-.712.287t-.712-.288t-.288-.712v-5.575q0-.2.075-.387t.225-.338l1.8-1.7l-.6-3.5q-.375.45-.825.8t-.975.65q-.825-.05-1.563-.35t-1.237-.8q1.125-.2 1.988-.763T15.275 7.6l1-1.6q.425-.675 1.175-.913t1.475.063l4.45 1.9q.275.125.438.363t.162.537V11q0 .425-.288.713t-.712.287t-.712-.288t-.288-.712V8.6l-1.8-.7l2.55 12.875q.1.475-.213.85t-.837.375q-.35 0-.638-.213t-.362-.562l-1.6-6.725zm-5.5-8q-.825 0-1.412-.587T9.475 6.5t.588-1.412t1.412-.588t1.413.588t.587 1.412t-.587 1.413t-1.413.587m5-4q-.825 0-1.412-.587T14.475 2.5t.588-1.412T16.475.5t1.413.588t.587 1.412t-.587 1.413t-1.413.587"/></svg>