<svg xmlns="http://www.w3.org/2000/svg" viewBox="0 0 24 24" width="24" height="24"><path fill="currentColor" d="M13 14.55q-2.425 0-3.55.275T7.525 15.9l-3.4 3.4q-.275.275-.687.275t-.713-.275q-.3-.3-.3-.712t.3-.713L6.1 14.5q.775-.775 1.063-1.937T7.45 9q0-1.45.65-2.85t1.85-2.6q2.275-2.275 5.025-2.575T19.5 2.5q1.8 1.8 1.5 4.55t-2.55 5q-1.2 1.2-2.6 1.85t-2.85.65m-2.7-2.9q1.175 1.15 3.175.85t3.575-1.875q1.6-1.6 1.913-3.588T18.1 3.925q-1.2-1.2-3.137-.9t-3.563 1.9Q9.825 6.5 9.488 8.488t.812 3.162M18 23q-1.65 0-2.825-1.175T14 19t1.175-2.825T18 15t2.825 1.175T22 19t-1.175 2.825T18 23"/></svg>