<svg xmlns="http://www.w3.org/2000/svg" viewBox="0 0 24 24" width="24" height="24"><path fill="currentColor" d="M12.05 13.375L6.125 19.3q-.3.3-.712.3t-.713-.3t-.3-.712t.3-.713L13.6 9H11v1q0 .425-.288.713T10 11t-.712-.288T9 10V8q0-.425.288-.712T10 7h4.85q.4 0 .763.15t.637.425l3 2.975q.5.5 1.163.838t1.437.487q.425.075.738.388T22.9 13t-.35.7t-.775.225q-1.125-.15-2.075-.6T17.95 12.1l-1-1.05l-2.2 2.2l1.325 1.325q.35.35.288.838t-.488.737l-4.55 2.625q-.35.2-.762.1t-.613-.45t-.087-.763t.462-.612l3.425-1.975zM4 13q-.425 0-.712-.288T3 12t.288-.712T4 11h3q.425 0 .713.288T8 12t-.288.713T7 13zm-2-3q-.425 0-.712-.288T1 9t.288-.712T2 8h3q.425 0 .713.288T6 9t-.288.713T5 10zm17.475-2q-.825 0-1.425-.587T17.45 6t.6-1.412T19.475 4t1.425.588T21.5 6t-.6 1.413T19.475 8M4 7q-.425 0-.712-.288T3 6t.288-.712T4 5h3q.425 0 .713.288T8 6t-.288.713T7 7z"/></svg>