<svg xmlns="http://www.w3.org/2000/svg" viewBox="0 0 24 24" width="24" height="24"><path fill="currentColor" d="M12 12q-.425 0-.712-.288T11 11t.288-.712T12 10t.713.288T13 11t-.288.713T12 12m0-4q-.425 0-.712-.288T11 7t.288-.712T12 6t.713.288T13 7t-.288.713T12 8m0-4q-.425 0-.712-.288T11 3t.288-.712T12 2t.713.288T13 3t-.288.713T12 4m3 10q-.425 0-.712-.288T14 13t.288-.712T15 12t.713.288T16 13t-.288.713T15 14m2.825-2.85q-.425 0-.712-.288t-.288-.712t.288-.712t.712-.288t.713.288t.287.712t-.288.713t-.712.287m2.825-2.8q-.425 0-.712-.288t-.288-.712t.288-.712t.712-.288t.713.288t.287.712t-.287.713t-.713.287M9 14q-.425 0-.712-.288T8 13t.288-.712T9 12t.713.288T10 13t-.288.713T9 14m-2.825-2.85q-.425 0-.712-.288t-.288-.712t.288-.712t.712-.288t.713.288t.287.712t-.287.713t-.713.287M3.35 8.35q-.425 0-.712-.288T2.35 7.35t.288-.712t.712-.288t.713.288t.287.712t-.287.713t-.713.287M11 18H8q-.425 0-.712-.288T7 17t.288-.712T8 16h8q.425 0 .713.288T17 17t-.288.713T16 18h-3v3q0 .425-.288.713T12 22t-.712-.288T11 21z"/></svg>