<svg xmlns="http://www.w3.org/2000/svg" viewBox="0 0 24 24" width="24" height="24"><path fill="currentColor" d="M5 20q-.425 0-.712-.288T4 19v-9q0-.425.288-.712T5 9h2q.425 0 .713.288T8 10v9q0 .425-.288.713T7 20zM5 8q-.425 0-.712-.288T4 7V5q0-.425.288-.712T5 4h2q.425 0 .713.288T8 5v2q0 .425-.288.713T7 8zm6 12q-.425 0-.712-.288T10 19v-6q0-.425.288-.712T11 12h2q.425 0 .713.288T14 13v6q0 .425-.288.713T13 20zm0-9q-.425 0-.712-.288T10 10V8q0-.425.288-.712T11 7h2q.425 0 .713.288T14 8v2q0 .425-.288.713T13 11zm6 9q-.425 0-.712-.288T16 19v-3q0-.425.288-.712T17 15h2q.425 0 .713.288T20 16v3q0 .425-.288.713T19 20zm0-6q-.425 0-.712-.288T16 13v-2q0-.425.288-.712T17 10h2q.425 0 .713.288T20 11v2q0 .425-.288.713T19 14z"/></svg>