<svg xmlns="http://www.w3.org/2000/svg" viewBox="0 0 24 24" width="24" height="24"><path fill="currentColor" d="M12 13.725q-.25 0-.488-.062t-.462-.188l-8.45-4.6q-.275-.15-.388-.375T2.1 8t.113-.5t.387-.375l8.45-4.6q.225-.125.463-.188T12 2.275t.488.063t.462.187l8.45 4.6q.275.15.388.375t.112.5t-.112.5t-.388.375l-8.45 4.6q-.225.125-.462.188t-.488.062m0 2l7.85-4.275q.05-.025.475-.125q.425 0 .713.288t.287.712q0 .275-.125.5t-.4.375l-7.85 4.275q-.225.125-.462.188t-.488.062t-.488-.062t-.462-.188L3.2 13.2q-.275-.15-.4-.375t-.125-.5q0-.425.288-.712t.712-.288q.125 0 .238.038t.237.087zm0 4l7.85-4.275q.05-.025.475-.125q.425 0 .713.288t.287.712q0 .275-.125.5t-.4.375l-7.85 4.275q-.225.125-.462.188t-.488.062t-.488-.062t-.462-.188L3.2 17.2q-.275-.15-.4-.375t-.125-.5q0-.425.288-.712t.712-.288q.125 0 .238.038t.237.087z"/></svg>