<svg xmlns="http://www.w3.org/2000/svg" viewBox="0 0 24 24" width="24" height="24"><path fill="currentColor" d="M8.45 16h7.1q.35 0 .625-.213t.35-.562l1.825-7.65q.05-.275-.012-.525t-.263-.45L13.85 2.7q-.25-.225-.55-.088t-.3.463V7.3q.35.25.55.625t.2.825q0 .725-.513 1.238T12 10.5t-1.237-.513t-.513-1.237q0-.45.2-.825T11 7.3V3.075q0-.325-.3-.462t-.55.087L5.925 6.6q-.2.2-.262.45t-.013.525l1.825 7.65q.075.35.35.563T8.45 16m-3.075 5q-.5 0-.812-.413t-.138-.912l.125-.3q.2-.625.725-1T6.45 18h11.1q.65 0 1.175.375t.725 1l.125.3q.175.5-.137.913t-.813.412z"/></svg>