<svg xmlns="http://www.w3.org/2000/svg" viewBox="0 0 24 24" width="24" height="24"><path fill="currentColor" d="M7 12q.425 0 .713-.288T8 11t-.288-.712T7 10t-.712.288T6 11t.288.713T7 12m15-6v10.725q0 .675-.612.938T20.3 17.45L14.85 12H17q.425 0 .713-.288T18 11t-.288-.712T17 10h-4.15l-4.3-4.3q-.475-.475-.213-1.088T9.276 4H20q.825 0 1.413.588T22 6M4 20q-.825 0-1.412-.587T2 18V6q0-.825.588-1.412T4 4l8 8H9.2L1.35 4.15q-.275-.275-.275-.7t.275-.7t.7-.275t.7.275l18.5 18.5q.275.275.288.688t-.288.712q-.275.275-.7.275t-.7-.275L17.15 20zm7.15-6H7q-.425 0-.712.288T6 15t.288.713T7 16h6.15z"/></svg>