<svg xmlns="http://www.w3.org/2000/svg" viewBox="0 0 24 24" width="24" height="24"><path fill="currentColor" d="M3 23q-.425 0-.712-.288T2 22t.288-.712T3 21q.65 0 1.288-.162t1.212-.513q.225-.125.5-.125t.5.125q.575.35 1.213.513T9 21t1.288-.162t1.212-.513q.225-.125.513-.125t.487.125q.575.35 1.213.513T15 21t1.288-.162t1.212-.513q.2-.125.5-.125t.5.125q.575.35 1.213.513T21 21q.425 0 .713.288T22 22t-.288.713T21 23q-.775 0-1.525-.187T18 22.25q-.725.375-1.475.563T15 23t-1.525-.187T12 22.25q-.725.375-1.475.563T9 23t-1.525-.187T6 22.25q-.725.375-1.475.563T3 23m9.175-13L16 13v3.85q.4.275.775.575T17.5 18q-.525.45-1.15.725T15 19q-.9 0-1.675-.425T12 17.5q-.55.65-1.325 1.075T9 19q-.25 0-.488-.038t-.462-.112q-2.15-1.475-3.6-2.975T3 13.275q0-.775.6-1.025T4.85 12q.725 0 1.675.213t2.025.612l-.525-3.1q-.1-.5.113-.987T8.8 7.95l2.15-1.45q-.075 0-.362-.062t-.638-.125t-.637-.125t-.363-.063l-2 1.375q-.35.225-.75.15t-.65-.425q-.225-.35-.15-.762t.425-.638l2.325-1.6q.175-.125.363-.162t.387.012l5.15.95q.35.05.675.275t.55.625l.875 1.55q.525.95 1.413 1.6t2.012.85q.4.075.663.375t.262.7q0 .425-.3.7t-.7.225q-1.65-.225-2.962-1.15t-2.113-2.3zM10.3 11.1l.45 2.65q.675.325 1.675.863T14 15.5V14zM17 5.5q-.825 0-1.412-.588T15 3.5t.588-1.412T17 1.5t1.413.588T19 3.5t-.587 1.413T17 5.5"/></svg>