<svg xmlns="http://www.w3.org/2000/svg" viewBox="0 0 24 24" width="24" height="24"><path fill="currentColor" d="M19.9 5.5q-1.65-1.45-3.675-2.225T12 2.5q-2.65 0-4.75.988T4.025 6.2q-.2.35-.513.575T2.8 7q-.3 0-.462-.262T2.3 6.175Q3.35 3.85 6 2.425T12 1q2.35 0 4.525.775t3.975 2.25V2.75q0-.325.213-.537T21.25 2t.538.213t.212.537V6q0 .425-.288.713T21 7h-3.25q-.325 0-.537-.213T17 6.25t.213-.537t.537-.213zM11.825 22q-.6 0-1.15-.225t-.975-.65L5.3 16.7q-.275-.275-.287-.687t.262-.713l.075-.075q.4-.4.938-.537t1.062.012l1.65.475V7q0-.425.288-.712T10 6t.713.288T11 7v7h1v-3q0-.425.288-.712T13 10t.713.288T14 11v3h1v-2q0-.425.288-.712T16 11t.713.288T17 12v2h1q0-.425.288-.712T19 13t.713.288T20 14v4q0 1.65-1.175 2.825T16 22z"/></svg>