<svg xmlns="http://www.w3.org/2000/svg" viewBox="0 0 24 24" width="24" height="24"><path fill="currentColor" d="M4.1 5.5h2.15q.325 0 .538.213T7 6.25t-.213.538T6.25 7H3q-.425 0-.712-.288T2 6V2.75q0-.325.213-.537T2.75 2t.538.213t.212.537v1.275q1.8-1.475 3.975-2.25T12 1q3.35 0 6 1.425t3.7 3.75q.125.3-.025.563t-.45.262q-.375 0-.687-.2t-.513-.525Q18.9 4.5 16.8 3.5t-4.8-1q-2.2 0-4.225.775T4.1 5.5M11.825 22q-.6 0-1.15-.225t-.975-.65L5.3 16.7q-.275-.275-.287-.687t.262-.713l.075-.075q.4-.4.938-.537t1.062.012l1.65.475V7q0-.425.288-.712T10 6t.713.288T11 7v7h1v-3q0-.425.288-.712T13 10t.713.288T14 11v3h1v-2q0-.425.288-.712T16 11t.713.288T17 12v2h1q0-.425.288-.712T19 13t.713.288T20 14v4q0 1.65-1.175 2.825T16 22z"/></svg>