<svg xmlns="http://www.w3.org/2000/svg" viewBox="0 0 24 24" width="24" height="24"><path fill="currentColor" d="M3.8 12.2q-.15-.675-.225-1.35T3.5 9.5q0-1.85.55-3.6t1.6-3.25q.2-.275.5-.312t.525.187t.25.563t-.175.612Q5.875 5 5.438 6.463T5 9.5q0 .65.075 1.288t.25 1.262l1.1-1.075q.225-.2.525-.212t.525.212t.225.525t-.225.525L5.2 14.3q-.3.3-.7.3t-.7-.3l-2.275-2.275Q1.3 11.8 1.3 11.5t.225-.525t.525-.225t.525.225zm12.65 8.625q-.575.2-1.162.188t-1.138-.288L8.5 18.1q-.375-.175-.525-.562T8 16.775l.05-.1q.25-.5.7-.812t1-.363l1.7-.125L8.65 7.7q-.15-.4.025-.763t.575-.512t.762.025t.513.575l2.4 6.575l.95-.35l-1.025-2.825q-.15-.4.025-.763t.575-.512t.762.025t.513.575l1.025 2.825l.925-.35L16 10.35q-.15-.4.025-.762t.575-.513t.762.025t.513.575l.675 1.875l.95-.35q-.15-.4.025-.762t.575-.513t.762.025t.513.575l1.375 3.75q.575 1.575-.113 3.063T20.375 19.4z"/></svg>