<svg xmlns="http://www.w3.org/2000/svg" viewBox="0 0 24 24" width="24" height="24"><path fill="currentColor" d="M7.8 13h4.4l-.4.4q-.275.275-.275.7t.275.7t.7.275t.7-.275l2.1-2.1q.15-.15.212-.325t.063-.375t-.062-.375t-.213-.325l-2.1-2.1q-.275-.275-.7-.275t-.7.275t-.275.7t.275.7l.4.4H7.8l.4-.4q.275-.275.275-.7T8.2 9.2t-.7-.275t-.7.275l-2.1 2.1q-.15.15-.212.325T4.425 12t.063.375t.212.325l2.1 2.1q.275.275.7.275t.7-.275t.275-.7t-.275-.7zM4 20q-.825 0-1.412-.587T2 18V6q0-.825.588-1.412T4 4h12q.825 0 1.413.588T18 6v4.5l3.15-3.15q.25-.25.55-.125t.3.475v8.6q0 .35-.3.475t-.55-.125L18 13.5V18q0 .825-.587 1.413T16 20z"/></svg>