<svg xmlns="http://www.w3.org/2000/svg" viewBox="0 0 24 24" width="24" height="24"><path fill="currentColor" d="M12 17q-.425 0-.712-.288T11 16t.288-.712T12 15t.713.288T13 16t-.288.713T12 17m0-4q-.425 0-.712-.288T11 12V8q0-.425.288-.712T12 7t.713.288T13 8v4q0 .425-.288.713T12 13m-7-1q0 1.35.538 2.488T7 16.45V15q0-.425.288-.712T8 14t.713.288T9 15v4q0 .425-.288.713T8 20H4q-.425 0-.712-.288T3 19t.288-.712T4 18h1.725q-1.275-1.1-2-2.65T3 12q0-2.35 1.225-4.25t3.2-2.9q.35-.2.738-.025t.512.575t-.038.775t-.512.575q-1.4.775-2.262 2.163T5 12m14 .525q0-1.35-.537-2.488T17 8.076v1.45q0 .425-.288.713t-.712.287t-.712-.288T15 9.526v-4q0-.425.288-.712T16 4.525h4q.425 0 .713.288t.287.712t-.288.713t-.712.287h-1.725q1.275 1.1 2 2.65t.725 3.35q0 2.35-1.225 4.263t-3.2 2.912q-.35.2-.737.013t-.513-.588t.038-.775t.512-.575q1.4-.775 2.263-2.162T19 12.525"/></svg>