<svg xmlns="http://www.w3.org/2000/svg" viewBox="0 0 24 24" width="24" height="24"><path fill="currentColor" d="M8 22q-.825 0-1.412-.587T6 20v-2H4q-.825 0-1.412-.587T2 16v-1q0-.425.288-.712T3 14t.713.288T4 15v1h2V8q0-.825.588-1.412T8 6h8V4h-1q-.425 0-.712-.288T14 3t.288-.712T15 2h1q.825 0 1.413.588T18 4v2h2q.825 0 1.413.588T22 8v12q0 .825-.587 1.413T20 22zM3 12q-.425 0-.712-.288T2 11V9q0-.425.288-.712T3 8t.713.288T4 9v2q0 .425-.288.713T3 12m0-6q-.425 0-.712-.288T2 5V4q0-.825.588-1.412T4 2h1q.425 0 .713.288T6 3t-.288.713T5 4H4v1q0 .425-.288.713T3 6m6-2q-.425 0-.712-.288T8 3t.288-.712T9 2h2q.425 0 .713.288T12 3t-.288.713T11 4z"/></svg>