<svg xmlns="http://www.w3.org/2000/svg" viewBox="0 0 24 24" width="24" height="24"><path fill="currentColor" d="M18.5 17.8v-2.3q0-.2-.15-.35T18 15t-.35.15t-.15.35v2.275q0 .2.075.388t.225.337l1.5 1.5q.15.15.35.15T20 20t.15-.35t-.15-.35zM13 6v3q0 .425.288.713T14 10h6V6zm5 17q-2.075 0-3.537-1.463T13 18t1.463-3.537T18 13t3.538 1.463T23 18t-1.463 3.538T18 23M4 20q-.825 0-1.412-.587T2 18V6q0-.825.588-1.412T4 4h16q.825 0 1.413.588T22 6v4.9q0 .45-.387.675t-.813.025q-.675-.3-1.388-.45T17.976 11q-2.9 0-4.937 2.05T11 18q0 .225.013.45t.037.425q.05.45-.213.788T10.15 20z"/></svg>