<svg xmlns="http://www.w3.org/2000/svg" viewBox="0 0 24 24" width="24" height="24"><path fill="currentColor" d="M19.175 20H16q-.425 0-.712-.288T15 19t.288-.712T16 18h3.175l-.9-.9Q18 16.825 18 16.413t.3-.713q.275-.275.7-.275t.7.275l2.6 2.6q.3.3.3.7t-.3.7l-2.6 2.6q-.275.275-.687.288T18.3 22.3q-.275-.275-.275-.7t.275-.7zM11 13v3q0 .425.288.713T12 17t.713-.288T13 16v-3h3q.425 0 .713-.288T17 12t-.288-.712T16 11h-3V8q0-.425-.288-.712T12 7t-.712.288T11 8v3H8q-.425 0-.712.288T7 12t.288.713T8 13zm-6 8q-.825 0-1.412-.587T3 19V5q0-.825.588-1.412T5 3h14q.825 0 1.413.588T21 5v7.15q0 .45-.35.738t-.8.187q-1.425-.2-2.75.225t-2.35 1.45q-1 1-1.45 2.35t-.25 2.75q.05.45-.213.8t-.687.35z"/></svg>