<svg xmlns="http://www.w3.org/2000/svg" viewBox="0 0 24 24" width="24" height="24"><path fill="currentColor" d="M6 22q-.425 0-.712-.288T5 21t.288-.712T6 20h5v-2.75q-.45-.275-.725-.725T10 15.5q0-.825.575-1.413T12 13.5q.825 0 1.413.587T14 15.5q0 .575-.275 1.013t-.725.712V20h5q.425 0 .713.288T19 21t-.288.713T18 22zM16 8q.425 0 .713-.288T17 7t-.288-.712T16 6H8q-.425 0-.712.288T7 7t.288.713T8 8zM5 16q-.825 0-1.412-.587T3 14V4q0-.825.588-1.412T5 2h14q.825 0 1.413.588T21 4v10q0 .825-.587 1.413T19 16h-2.3q-.3 0-.5-.225t-.2-.525q-.05-.675-.312-1.275t-.688-1.1q-.225-.275-.5-.488T13.925 12H16q.425 0 .713-.288T17 11t-.288-.712T16 10H8q-.425 0-.712.288T7 11t.288.713T8 12h2.05q-.3.175-.575.375t-.5.475q-.425.5-.675 1.113T8 15.25q-.025.3-.213.525T7.3 16z"/></svg>