<svg xmlns="http://www.w3.org/2000/svg" viewBox="0 0 24 24" width="24" height="24"><path fill="currentColor" d="m13.8 13.2l-.8 2.225q-.1.275-.325.425t-.5.15q-.475 0-.737-.387t-.088-.813l3.425-9.2q.1-.275.338-.437T15.65 5h.7q.3 0 .538.163t.337.437l3.425 9.225q.175.425-.087.8t-.738.375q-.275 0-.5-.162T19 15.4l-.8-2.2zm.55-1.6h3.3l-1.6-4.55h-.1zM5 16.15V4q0-.425.288-.712T6 3t.713.288T7 4v12.15l.4-.375q.3-.275.7-.275t.7.3q.275.275.275.7t-.275.7l-2.1 2.1q-.3.3-.7.3t-.7-.3l-2.1-2.1q-.275-.275-.275-.7t.3-.725Q3.5 15.5 3.9 15.5t.7.275z"/></svg>