<svg xmlns="http://www.w3.org/2000/svg" viewBox="0 0 24 24" width="24" height="24"><path fill="currentColor" d="M10.975 20.7q-.275-.275-.312-.662t.312-.738l8.325-8.325q.35-.35.738-.312t.662.312q.325.325.3.725t-.325.7l-8.3 8.3q-.3.3-.7.3t-.7-.3m7.225.3q-.35 0-.475-.3t.125-.55l2.3-2.3q.25-.25.55-.125t.3.475V20q0 .425-.287.713T20 21zm-14.925-.275q-.275-.275-.3-.675t.325-.75L19.325 3.275q.375-.375.775-.325t.675.325t.3.675t-.35.75L4.675 20.725q-.35.35-.737.313t-.663-.313m0-7.7q-.275-.275-.3-.675t.325-.75l8.3-8.3q.35-.35.738-.312T13 3.3t.313.663T13 4.7l-8.325 8.325q-.35.35-.737.312t-.663-.312M3 5.8V4q0-.425.288-.712T4 3h1.8q.35 0 .475.3t-.125.55l-2.3 2.3q-.25.25-.55.125T3 5.8"/></svg>