<svg xmlns="http://www.w3.org/2000/svg" viewBox="0 0 24 24" width="24" height="24"><path fill="currentColor" d="M3 19V5q0-.825.588-1.412T5 3h2q.825 0 1.413.588T9 5v14q0 .825-.587 1.413T7 21H5q-.825 0-1.412-.587T3 19m14.175-6H12q-.425 0-.712-.288T11 12t.288-.712T12 11h5.175l-.9-.9Q16 9.825 16 9.413t.3-.713q.275-.275.7-.275t.7.275l2.6 2.6q.3.3.3.7t-.3.7l-2.6 2.6q-.275.275-.687.288T16.3 15.3q-.275-.275-.275-.7t.275-.7zM12 5q-.425 0-.712-.288T11 4t.288-.712T12 3t.713.288T13 4t-.288.713T12 5m4 0q-.425 0-.712-.288T15 4t.288-.712T16 3t.713.288T17 4t-.288.713T16 5m4 0q-.425 0-.712-.288T19 4t.288-.712T20 3t.713.288T21 4t-.288.713T20 5m-8 16q-.425 0-.712-.288T11 20t.288-.712T12 19t.713.288T13 20t-.288.713T12 21m4 0q-.425 0-.712-.288T15 20t.288-.712T16 19t.713.288T17 20t-.288.713T16 21m4 0q-.425 0-.712-.288T19 20t.288-.712T20 19t.713.288T21 20t-.288.713T20 21"/></svg>