<svg xmlns="http://www.w3.org/2000/svg" viewBox="0 0 24 24" width="24" height="24"><path fill="currentColor" d="M3.275 20.725q-.275-.275-.3-.675t.325-.75L19.325 3.275q.375-.375.775-.325t.675.325t.3.675t-.35.75L4.675 20.725q-.35.35-.737.313t-.663-.313M15 19q-.425 0-.712-.288T14 18t.288-.712T15 17h6q.425 0 .713.288T22 18t-.288.713T21 19zM3.275 13.025q-.275-.275-.3-.675t.325-.75l8.3-8.3q.35-.35.738-.313T13 3.3t.313.663T13 4.7l-8.325 8.325q-.35.35-.737.312t-.663-.312M18.4 14.7q-.35.35-.737.313T17 14.7t-.312-.662T17 13.3l2.325-2.325q.35-.35.725-.3t.65.325t.313.663t-.313.737zM3.85 6.15q-.25.25-.55.125T3 5.8V4q0-.425.288-.712T4 3h1.8q.35 0 .475.3t-.125.55zM11.7 21q-.425 0-.7-.288T10.725 20t.275-.7t.7-.275t.713.275t.287.7t-.287.713T11.7 21"/></svg>