<svg xmlns="http://www.w3.org/2000/svg" viewBox="0 0 24 24" width="24" height="24"><path fill="currentColor" d="M12 19q-.425 0-.712-.288T11 18t.288-.712T12 17h8q.425 0 .713.288T21 18t-.288.713T20 19zm4-4q-.425 0-.712-.288T15 14V8.8l-.9.9q-.275.275-.7.275t-.7-.275t-.275-.7t.275-.7l2.6-2.6q.3-.3.7-.3t.7.3l2.6 2.6q.275.275.275.7t-.275.7t-.7.275t-.7-.275l-.9-.9V14q0 .425-.287.713T16 15M4.075 15q-.4 0-.613-.325t-.087-.7l2.85-7.5q.075-.225.275-.35T6.925 6h.55q.225 0 .425.125t.275.35l2.85 7.575q.125.35-.075.65t-.575.3q-.225 0-.425-.137t-.275-.363l-.625-1.8H5.4l-.625 1.825q-.075.225-.275.35T4.075 15m1.775-3.6h2.7l-1.3-3.75h-.1z"/></svg>