<svg xmlns="http://www.w3.org/2000/svg" viewBox="0 0 24 24" width="24" height="24"><path fill="currentColor" d="M12 21q-.425 0-.712-.288T11 20t.288-.712T12 19t.713.288T13 20t-.288.713T12 21m-4 0q-.425 0-.712-.288T7 20t.288-.712T8 19t.713.288T9 20t-.288.713T8 21m-4 0q-.425 0-.712-.288T3 20t.288-.712T4 19t.713.288T5 20t-.288.713T4 21m8-16q-.425 0-.712-.288T11 4t.288-.712T12 3t.713.288T13 4t-.288.713T12 5M8 5q-.425 0-.712-.288T7 4t.288-.712T8 3t.713.288T9 4t-.288.713T8 5M4 5q-.425 0-.712-.288T3 4t.288-.712T4 3t.713.288T5 4t-.288.713T4 5m12 16q-.425 0-.712-.288T15 20t.288-.712T16 19h1V5h-1q-.425 0-.712-.288T15 4t.288-.712T16 3h4q.425 0 .713.288T21 4t-.288.713T20 5h-1v14h1q.425 0 .713.288T21 20t-.288.713T20 21zm-9.175-8l.9.9q.275.275.275.688t-.3.712q-.275.275-.7.275t-.7-.275l-2.6-2.6q-.3-.3-.3-.7t.3-.7l2.6-2.6q.275-.275.688-.287T7.7 8.7q.275.275.275.7t-.275.7l-.875.9H13q.425 0 .713.288T14 12t-.288.713T13 13z"/></svg>