<svg xmlns="http://www.w3.org/2000/svg" viewBox="0 0 24 24" width="24" height="24"><path fill="currentColor" d="M8 21q-2.075 0-3.537-1.463T3 16q0-1.2.525-2.238T5 12V6q0-1.25.875-2.125T8 3t2.125.875T11 6v6q.95.725 1.475 1.763T13 16q0 2.075-1.463 3.538T8 21m-3-5h6q0-.725-.312-1.35T9.8 13.6L9 13V6q0-.425-.288-.712T8 5t-.712.288T7 6v7l-.8.6q-.575.425-.888 1.05T5 16m13.8 3.3L16.5 17q-.275-.3-.275-.712t.3-.688t.713-.287t.687.287l.575.575V5q0-.425.288-.712T19.5 4t.713.288T20.5 5v11.2l.6-.6q.275-.275.7-.275t.7.275t.275.7t-.275.7l-2.3 2.3q-.3.3-.7.3t-.7-.3"/></svg>