<svg xmlns="http://www.w3.org/2000/svg" viewBox="0 0 24 24" width="24" height="24"><path fill="currentColor" d="m13 22.35l.9-1.025l-.85-.425q-.425-.225-.525-.7t.225-.85l1.75-2q.125-.175.338-.262T15.25 17q.65 0 .913.575T16 18.65l-.9 1.025l.85.425q.425.225.525.7t-.225.85l-1.75 2q-.125.175-.338.263T13.75 24q-.65 0-.913-.575T13 22.35m-6 0l.9-1.025l-.85-.425q-.425-.225-.525-.7t.225-.85l1.75-2q.125-.175.338-.262T9.25 17q.65 0 .913.575T10 18.65l-.9 1.025l.85.425q.425.225.525.7t-.225.85l-1.75 2q-.125.175-.337.263T7.75 24q-.65 0-.913-.575T7 22.35M7.5 16q-2.275 0-3.887-1.612T2 10.5q0-2.075 1.375-3.625t3.4-1.825q.8-1.425 2.188-2.238T12 2q2.25 0 3.913 1.438t2.012 3.587q1.725.15 2.9 1.425T22 11.5q0 1.875-1.312 3.188T17.5 16z"/></svg>