<svg xmlns="http://www.w3.org/2000/svg" viewBox="0 0 24 24" width="24" height="24"><path fill="currentColor" d="M10 16h3V8h-3zm0 3q-1.25 0-2.125-.875T7 16V8q0-1.25.875-2.125T10 5h3q1.25 0 2.125.875T16 8v8q0 1.25-.875 2.125T13 19zM3 8h-.5q-.625 0-1.062-.437T1 6.5t.438-1.062T2.5 5h2q.625 0 1.063.438T6 6.5v11q0 .625-.437 1.063T4.5 19t-1.062-.437T3 17.5zm18.65 11H18q-.425 0-.712-.288T17 18t.288-.712T18 17h3v-1h-2.65q-.575 0-.962-.387T17 14.65v-2.3q0-.575.388-.962T18.35 11H22q.425 0 .713.288T23 12t-.288.713T22 13h-3v1h2.65q.575 0 .963.388t.387.962v2.3q0 .575-.387.963T21.65 19"/></svg>