<svg xmlns="http://www.w3.org/2000/svg" viewBox="0 0 24 24" width="24" height="24"><path fill="currentColor" d="M12 22q-1.85 0-3.488-.712T5.65 19.35t-1.937-2.863T3 13q0-1.5.463-2.887T4.8 7.6L2.1 4.9q-.275-.275-.275-.7t.275-.7t.7-.275t.7.275l17 17q.275.275.275.7t-.275.7t-.7.275t-.7-.275l-1.7-1.7q-1.2.875-2.587 1.338T12 22M10 3q-.425 0-.712-.288T9 2t.288-.712T10 1h4q.425 0 .713.288T15 2t-.288.713T14 3zm8.7 12.9L13 10.2V9q0-.425-.288-.712T12 8q-.25 0-.462.1t-.338.3L9.075 6.275q-.45-.45-.325-1.075t.725-.825t1.238-.288T12 4q1.5 0 2.938.5t2.712 1.45l.7-.7q.275-.275.7-.275t.7.275t.275.7t-.275.7l-.7.7q.95 1.275 1.45 2.713T21 13q0 .65-.088 1.275t-.287 1.25q-.2.6-.825.725t-1.1-.35"/></svg>