<svg xmlns="http://www.w3.org/2000/svg" viewBox="0 0 24 24" width="24" height="24"><path fill="currentColor" d="M18.3 7.7q-.125-.125-.213-.312T18 7q0-.275.15-.488t.375-.387q.35-.275.775-.425t.85-.275q.1-.025.2-.025t.175.075q.1.1.05.375q-.125.425-.275.85t-.425.775q-.175.225-.387.375T19 8q-.2 0-.387-.088T18.3 7.7M4 21q-.825 0-1.412-.587T2 19V5q0-.825.588-1.412T4 3h6q.825 0 1.413.588T12 5v8.175q.225-.075.475-.125T13 13q1.25 0 2.125.875T16 16v2q0 .425.288.713T17 19t.713-.288T18 18v-5h-1v-1.425q-1.35-.575-2.175-1.8T14 7q0-2.075 1.463-3.538T19 2t3.538 1.463T24 7q0 1.55-.825 2.775T21 11.575V13h-1v5q0 1.25-.875 2.125T17 21t-2.125-.875T14 18v-2q0-.425-.288-.712T13 15t-.712.288T12 16v3q0 .825-.587 1.413T10 21zm15-11q1.25 0 2.125-.875T22 7t-.875-2.125T19 4t-2.125.875T16 7t.875 2.125T19 10M3.8 6.8l1 1q.35.35.738.313T6.2 7.8t.313-.675t-.313-.75l-1-1q-.35-.35-.737-.312t-.663.312t-.312.675t.312.75m6.4 0q.35-.35.313-.737T10.2 5.4t-.662-.325t-.738.3l-1 1q-.35.35-.312.738t.312.662t.663.325t.737-.3zm-6.4 5l1 1q.35.35.738.313T6.2 12.8t.313-.675t-.313-.75l-1-1q-.35-.35-.737-.312t-.663.312t-.312.675t.312.75m6.4 0q.35-.35.313-.737T10.2 10.4t-.662-.325t-.738.3l-1 1q-.35.35-.312.738t.312.662t.663.325t.737-.3zm-6.4 5l1 1q.35.35.738.313T6.2 17.8t.313-.675t-.313-.75l-1-1q-.35-.35-.737-.312t-.663.312t-.312.675t.312.75m6.4 0q.35-.35.313-.737T10.2 15.4t-.662-.325t-.738.3l-1 1q-.35.35-.312.738t.312.662t.663.325t.737-.3z"/></svg>