<svg xmlns="http://www.w3.org/2000/svg" viewBox="0 0 24 24" width="24" height="24"><path fill="currentColor" d="M8.6 16.925V8.6H6.425q-.35 0-.588-.225T5.6 7.8t.237-.575T6.425 7H12.5q.35 0 .575.225t.225.575t-.225.575t-.575.225h-2.2v8.325q0 .35-.25.588t-.6.237t-.6-.238t-.25-.587m6.25-5.375h-.625q-.3 0-.512-.213t-.213-.512t.213-.512t.512-.213h.625V8.75q0-.35.238-.587t.587-.238t.588.238t.237.587v1.35h1.125q.3 0 .513.213t.212.512t-.213.513t-.512.212H16.5v3.7q0 .575.263.9t.712.325h.225q.275-.025.488.187t.212.513q0 .35-.187.55t-.513.25q-.125.025-.25.025h-.25q-1.1 0-1.725-.638T14.85 15.6z"/></svg>