<svg xmlns="http://www.w3.org/2000/svg" viewBox="0 0 24 24" width="24" height="24"><path fill="currentColor" d="M4 17q-.425 0-.712-.288T3 16t.288-.712T4 15h12q.425 0 .713.288T17 16t-.288.713T16 17zm0-4q-.425 0-.712-.288T3 12t.288-.712T4 11h12q.425 0 .713.288T17 12t-.288.713T16 13zm0-4q-.425 0-.712-.288T3 8t.288-.712T4 7h12q.425 0 .713.288T17 8t-.288.713T16 9zm16 8q-.425 0-.712-.288T19 16t.288-.712T20 15t.713.288T21 16t-.288.713T20 17m0-4q-.425 0-.712-.288T19 12t.288-.712T20 11t.713.288T21 12t-.288.713T20 13m0-4q-.425 0-.712-.288T19 8t.288-.712T20 7t.713.288T21 8t-.288.713T20 9"/></svg>