<svg xmlns="http://www.w3.org/2000/svg" viewBox="0 0 24 24" width="24" height="24"><path fill="currentColor" d="M5.825 11.8q-.575 0-.888-.462t-.087-.963Q5.9 8.125 7.763 6.1t3.587-3.525q.15-.125.313-.187T12 2.325t.35.063t.3.187q1.725 1.5 3.588 3.525t2.912 4.275q.225.5-.087.963t-.888.462zm14.025 3.65q-.225 1.225-.788 2.313t-1.437 1.962t-1.963 1.425t-2.287.75zm-4.075-1.65h2.85l-8.1 8.1q-.575-.125-1.112-.287t-1.038-.438zm-5.725 0h2.85l-6.225 6.225q-.375-.35-.712-.725t-.613-.8zm-2.9 0L4.4 16.55q-.125-.425-.175-.862t-.05-.863q0-.45.338-.737t.812-.288z"/></svg>