<svg xmlns="http://www.w3.org/2000/svg" viewBox="0 0 24 24" width="24" height="24"><path fill="currentColor" d="M10.475 22q-.7 0-1.312-.3t-1.038-.85L3.1 14.475q-.2-.225-.175-.537t.225-.513q.5-.525 1.2-.625t1.3.275L7.5 14.2V6q0-.425.288-.712T8.5 5t.725.288t.3.712v5H17q1.25 0 2.125.875T20 14v4q0 1.65-1.175 2.825T16 22zM8.5 3.5q-1.05 0-1.775.725T6 6v3.4q0 .3-.275.438t-.5-.063q-.8-.7-1.262-1.675T3.5 6q0-2.075 1.463-3.537T8.5 1t3.538 1.463T13.5 6q0 1.125-.45 2.088T11.8 9.75q-.225.2-.5.075t-.275-.45V6q0-1.05-.75-1.775T8.5 3.5"/></svg>