<svg xmlns="http://www.w3.org/2000/svg" viewBox="0 0 24 24" width="24" height="24"><path fill="currentColor" d="m15.075 18.95l-.85 2.425q-.1.275-.35.45t-.55.175q-.5 0-.812-.413t-.113-.912l3.8-10.05q.125-.275.375-.45t.55-.175h.75q.3 0 .55.175t.375.45L22.6 20.7q.2.475-.1.888t-.8.412q-.325 0-.562-.175t-.363-.475l-.85-2.4zM9.05 13.975L4.7 18.3q-.275.275-.687.288T3.3 18.3q-.275-.275-.275-.7t.275-.7l4.35-4.35q-.875-.875-1.588-2T4.75 8h2.1q.5.975 1 1.7t1.2 1.45q.825-.825 1.713-2.313T12.1 6H2q-.425 0-.712-.288T1 5t.288-.712T2 4h6V3q0-.425.288-.712T9 2t.713.288T10 3v1h6q.425 0 .713.288T17 5t-.288.713T16 6h-1.9q-.525 1.8-1.575 3.7t-2.075 2.9l2.4 2.45l-.75 2.05zM15.7 17.2h3.6l-1.8-5.1z"/></svg>