<svg xmlns="http://www.w3.org/2000/svg" viewBox="0 0 24 24" width="24" height="24"><path fill="currentColor" d="M4 20q-.825 0-1.412-.587T2 18v-3.375q0-.275.175-.475t.45-.25q.6-.2.988-.725T4 12t-.387-1.175t-.988-.725q-.275-.05-.45-.25T2 9.375V6q0-.825.588-1.412T4 4h16q.825 0 1.413.588T22 6v3.375q0 .275-.175.475t-.45.25q-.6.2-.987.725T20 12t.388 1.175t.987.725q.275.05.45.25t.175.475V18q0 .825-.587 1.413T20 20zm5.5-3h5.05q.2 0 .325-.125T15 16.55v-.275q0-.125-.062-.237t-.188-.163L14 15.5q.825 0 1.413-.587T16 13.5V9q0-1.075-.925-1.537T12 7q-2.075 0-3.037.475T8 9v4.5q0 .825.588 1.413T10 15.5l-.725.35q-.125.05-.2.175T9 16.3v.2q0 .2.15.35t.35.15m.75-2.5q-.325 0-.537-.213T9.5 13.75t.213-.537t.537-.213t.538.213t.212.537t-.213.538t-.537.212m3.5 0q-.325 0-.537-.213T13 13.75t.213-.537t.537-.213t.538.213t.212.537t-.213.538t-.537.212M9.5 12V9h5v3z"/></svg>