<svg xmlns="http://www.w3.org/2000/svg" viewBox="0 0 24 24" width="24" height="24"><path fill="currentColor" d="M7.625 21q-.575 0-.812-.537T7 19.5l.5-.5H4q-.425 0-.712-.288T3 18t.288-.712T4 17V6q-.425 0-.712-.288T3 5t.288-.712T4 4h3V3q0-.425.288-.712T8 2h8q.425 0 .713.288T17 3v1h3q.425 0 .713.288T21 5t-.288.713T20 6v11q.425 0 .713.288T21 18t-.288.713T20 19h-3.5l.5.5q.425.425.2.963t-.825.537q-.175 0-.337-.062t-.288-.188L14 19h-4l-1.75 1.75q-.125.125-.288.188T7.626 21M13 10h5V7h-5zm-7 0h5V7H6zm6 6q.625 0 1.063-.437T13.5 14.5t-.437-1.062T12 13t-1.062.438T10.5 14.5t.438 1.063T12 16"/></svg>