<svg xmlns="http://www.w3.org/2000/svg" viewBox="0 0 24 24" width="24" height="24"><path fill="currentColor" d="M7 16q-.425 0-.712-.288T6 15t.288-.712T7 14h2q.425 0 .713.288T10 15t-.288.713T9 16zm0-4q-.425 0-.712-.288T6 11t.288-.712T7 10h11q.425 0 .713.288T19 11t-.288.713T18 12zm0-4q-.425 0-.712-.288T6 7t.288-.712T7 6h11q.425 0 .713.288T19 7t-.288.713T18 8zm8.95 11.575q-.2 0-.375-.062t-.325-.213l-2.85-2.85q-.3-.3-.288-.712t.313-.713t.713-.3t.712.3l2.1 2.125l4.925-4.925q.3-.3.713-.288t.712.313q.275.3.288.7t-.288.7l-5.65 5.65q-.15.15-.325.213t-.375.062M3 8q-.425 0-.712-.288T2 7t.288-.712T3 6t.713.288T4 7t-.288.713T3 8m0 4q-.425 0-.712-.288T2 11t.288-.712T3 10t.713.288T4 11t-.288.713T3 12m0 4q-.425 0-.712-.288T2 15t.288-.712T3 14t.713.288T4 15t-.288.713T3 16"/></svg>