<svg xmlns="http://www.w3.org/2000/svg" viewBox="0 0 24 24" width="24" height="24"><path fill="currentColor" d="M4 19q-1.65 0-2.825-1.175T0 15q0-1.425.913-2.525T3.25 11.1l-.7-.6H.75q-.325 0-.537-.213T0 9.75t.213-.537T.75 9H4.5L7 10.5l3.65-1.375q.175-.05.35-.088T11.375 9h2.775L12.6 7H11q-.425 0-.712-.288T10 6t.288-.712T11 5h1.575q.475 0 .888.213t.687.562l1.5 1.925l2.625-1.325q.25-.125.488.025t.237.425V8.5q0 .2-.15.35T18.5 9h-1.8l1.75 2.3q.375-.15.763-.225T20 11q1.65 0 2.825 1.175T24 15t-1.175 2.825T20 19t-2.825-1.175T16 15q0-.675.238-1.312T16.9 12.5l-.5-.6l-3.1 4.65q-.125.2-.35.325t-.475.125h-2.1q-.2 0-.362-.062t-.288-.188L8 15.25q-.125 1.575-1.275 2.663T4 19m0-2q.825 0 1.413-.587T6 15t-.587-1.412T4 13t-1.412.588T2 15t.588 1.413T4 17m16 0q.825 0 1.413-.587T22 15t-.587-1.412T20 13t-1.412.588T18 15t.588 1.413T20 17"/></svg>