<svg xmlns="http://www.w3.org/2000/svg" viewBox="0 0 24 24" width="24" height="24"><path fill="currentColor" d="M5.5 12h1V8h-1zm0-5.5h1V5.25l-1 .1zM8 12h1V8H8zm0-5.5h1V4.95l-1 .125zM2.45 15q-.125-.45-.225-.9t-.15-.925t.275-.825t.825-.35H4V4.9q0-.375.263-.663T4.9 3.9l16.275-1.8q.35-.05.588.163t.237.562q0 .275-.187.488t-.463.262L10.5 4.8v1.7h10.75q.325 0 .538.213T22 7.25t-.213.538T21.25 8H10.5v4h10.325q.5 0 .825.35t.275.825t-.15.925t-.225.9zM12 22q-2.8 0-5.087-1.362T3.324 17h17.35q-1.3 2.275-3.588 3.638T12 22"/></svg>