<svg xmlns="http://www.w3.org/2000/svg" viewBox="0 0 24 24" width="24" height="24"><path fill="currentColor" d="M12 22q-2.075 0-3.9-.788t-3.175-2.137T2.788 15.9T2 12t.788-3.9t2.137-3.175T8.1 2.788T12 2t3.9.788t3.175 2.137T21.213 8.1T22 12t-.788 3.9t-2.137 3.175t-3.175 2.138T12 22m0-2q3.35 0 5.675-2.325T20 12q0-1.6-.612-3.062T17.65 6.35l-11.3 11.3q1.125 1.125 2.588 1.738T12 20m.75-4q-.325 0-.537-.213T12 15.25t.213-.537t.537-.213h3.5q.325 0 .538.213t.212.537t-.213.538t-.537.212zM8 9.5v1.25q0 .325.213.538t.537.212t.538-.213t.212-.537V9.5h1.25q.325 0 .538-.213t.212-.537t-.213-.537T10.75 8H9.5V6.75q0-.325-.213-.537T8.75 6t-.537.213T8 6.75V8H6.75q-.325 0-.537.213T6 8.75t.213.538t.537.212z"/></svg>