<svg xmlns="http://www.w3.org/2000/svg" viewBox="0 0 24 24" width="24" height="24"><path fill="currentColor" d="M17 20q.275 0 .463-.187t.187-.463t-.187-.462T17 18.7t-.462.188t-.188.462t.188.463T17 20m0-6q-.475 0-.875.238t-.65.637q-.1.15-.025.313t.25.237q.15.075.3 0t.275-.2q.125-.175.313-.275t.412-.1q.325 0 .563.213t.237.537q0 .275-.15.463t-.35.387q-.15.15-.312.3t-.288.35q-.075.15-.112.313t-.038.337q0 .225.125.413t.325.187t.325-.15t.125-.35q0-.275.15-.488t.35-.412q.3-.275.525-.612t.225-.738q0-.675-.5-1.138T17 14m0 8q-2.075 0-3.537-1.463T12 17t1.463-3.537T17 12t3.538 1.463T22 17t-1.463 3.538T17 22M13 9h4l-5-5l5 5l-5-5v4q0 .425.288.713T13 9M5 22q-.825 0-1.412-.587T3 20V4q0-.825.588-1.412T5 2h7.175q.4 0 .763.15t.637.425l4.85 4.85q.275.275.425.638t.15.762v.325q0 .425-.337.7t-.788.2q-.2-.025-.425-.038T17 10q-1.425 0-2.687.537T12.1 12H8q-.425 0-.712.288T7 13t.288.713T8 14h2.675q-.225.475-.375.975T10.075 16H8q-.425 0-.712.288T7 17t.288.713T8 18h2.075q.125.725.375 1.413t.65 1.312q.275.425.063.85T10.5 22z"/></svg>