<svg xmlns="http://www.w3.org/2000/svg" viewBox="0 0 24 24" width="24" height="24"><path fill="currentColor" d="M5 12q-.425 0-.712-.288T4 11t.288-.712T5 10h6q.425 0 .713.288T12 11t-.288.713T11 12zm7-8q-.425 0-.712-.288T11 3t.288-.712T12 2q2.075 0 3.888.788t3.174 2.15t2.15 3.175T22 12q0 2.05-.788 3.875t-2.15 3.188t-3.175 2.15T12 22q-2 0-3.838-.737T4.9 19.1q-.125-.125-.213-.312T4.6 18.4q0-.425.288-.712T5.6 17.4q.2 0 .388.088t.312.212q1.175 1.1 2.65 1.7T12 20q3.325 0 5.663-2.337T20 12t-2.337-5.663T12 4"/></svg>