<svg xmlns="http://www.w3.org/2000/svg" viewBox="0 0 24 24" width="24" height="24"><path fill="currentColor" d="m19.075 21.9l-2.3-2.275q-1.05.65-2.25 1.013T12 21q-1.875 0-3.512-.712t-2.85-1.925t-1.925-2.85T3 12q0-1.325.363-2.525t1.012-2.25l-2.3-2.3q-.3-.3-.3-.713t.3-.712t.713-.3t.712.3l17 17q.3.3.3.7t-.3.7t-.712.3t-.713-.3M12 19q.9 0 1.738-.213t1.587-.612l-9.5-9.5q-.4.75-.612 1.588T5 12q0 2.925 2.038 4.963T12 19m4-9q-.425 0-.712-.288T15 9t.288-.712T16 8h1.75q-1.025-1.4-2.525-2.2T12 5q-.675 0-1.4.138t-1.35.412q-.375.175-.75.013t-.55-.538t-.012-.763t.537-.537q.8-.35 1.725-.537T12 3q2.05 0 3.888.875T19 6.35V5q0-.425.288-.712T20 4t.713.288T21 5v4q0 .425-.288.713T20 10zm-4-.85q-.425 0-.712-.288T11 8.15V8q0-.425.288-.712T12 7t.713.288T13 8v.15q0 .425-.288.713T12 9.15m6.975 6.95q-.35-.15-.55-.513t0-.837q.075-.2.175-.45t.15-.45q.125-.4.463-.612t.737-.163q.425.05.675.363t.15.687q-.1.35-.237.725t-.263.7q-.2.475-.575.588t-.725-.038"/></svg>