<svg xmlns="http://www.w3.org/2000/svg" viewBox="0 0 24 24" width="24" height="24"><path fill="currentColor" d="M12 22q-.825 0-1.412-.587T10 20q0-.525.275-.975T11 18.3V16H8q-.825 0-1.412-.587T6 14v-2.3q-.45-.225-.725-.675T5 10q0-.825.588-1.413T7 8t1.413.588T9 10q0 .575-.275 1T8 11.7V14h3V6h-1q-.3 0-.45-.275T9.6 5.2l2-2.675q.15-.2.4-.2t.4.2l2 2.675q.2.25.05.525T14 6h-1v8h3v-2h-.5q-.2 0-.35-.15T15 11.5v-3q0-.2.15-.35T15.5 8h3q.2 0 .35.15t.15.35v3q0 .2-.15.35t-.35.15H18v2q0 .825-.587 1.413T16 16h-3v2.3q.475.25.738.7T14 20q0 .825-.587 1.413T12 22"/></svg>