<svg xmlns="http://www.w3.org/2000/svg" viewBox="0 0 24 24" width="24" height="24"><path fill="currentColor" d="M6 17H5q-.825 0-1.412-.587T3 15V7.5q-.425 0-.712-.288T2 6.5t.288-.712T3 5.5h3V4h-.5q-.425 0-.712-.288T4.5 3t.288-.712T5.5 2h3q.425 0 .713.288T9.5 3t-.288.713T8.5 4H8v1.5h3q.425 0 .713.288T12 6.5t-.288.713T11 7.5V15q0 .825-.587 1.413T9 17H8v4.5q0 .425-.288.713T7 22.5t-.712-.288T6 21.5zm-1-2h4v-1.5H7.25q-.3 0-.525-.225T6.5 12.75t.225-.525T7.25 12H9v-1.5H7.25q-.3 0-.525-.225T6.5 9.75t.225-.525T7.25 9H9V7.5H5zm10 7q-.825 0-1.412-.587T13 20v-6.5q0-.725.25-1.2t.525-.825t.5-.562t.225-.413V10q-.425 0-.712-.287T13.5 9t.288-.712T14.5 8h5q.425 0 .713.288T20.5 9t-.288.713T19.5 10v.5q0 .2.25.45t.55.6q.275.35.488.825T21 13.5V20q0 .825-.587 1.413T19 22zm0-8h4v-.5q0-.375-.225-.65t-.5-.6t-.525-.725t-.25-1.025V10h-1v.5q0 .6-.238 1t-.512.725t-.513.613T15 13.5zm0 6h4v-1.5h-4z"/></svg>