<svg xmlns="http://www.w3.org/2000/svg" viewBox="0 0 24 24" width="24" height="24"><path fill="currentColor" d="M6.75 11q.325 0 .538-.213t.212-.537v-.5q0-.325-.213-.537T6.75 9t-.537.213T6 9.75v.5q0 .325.213.538T6.75 11m10.5 0q.325 0 .538-.213T18 10.25v-.5q0-.325-.213-.537T17.25 9t-.537.213t-.213.537v.5q0 .325.213.538t.537.212M2.625 20.5q-.275-.125-.45-.35T2 19.575V4.5h2.5L15 15h-2.8L1.4 4.2q-.275-.275-.275-.7t.275-.7t.7-.275t.7.275l5.7 5.7v3.75q0 .325.213.538T9.25 13t.538-.213t.212-.537V10l1.25 1.25v3q0 .325.213.538T12 15t.538-.213t.212-.537v-1.5l8.45 8.45q.275.275.288.688t-.288.712q-.275.275-.7.275t-.7-.275L15.15 18H6l-2.3 2.3q-.25.25-.525.288t-.55-.088M20.3 17.45l-4.8-4.8v-4.9q0-.325-.213-.537T14.75 7t-.537.213T14 7.75v3.4L12.75 9.9V5.75q0-.325-.213-.537T12 5t-.537.213t-.213.537V8.4l-4.7-4.7q-.475-.475-.212-1.088T7.275 2H20q.825 0 1.413.588T22 4v12.725q0 .675-.612.938T20.3 17.45"/></svg>