<svg xmlns="http://www.w3.org/2000/svg" viewBox="0 0 24 24" width="24" height="24"><path fill="currentColor" d="M6.75 11q.325 0 .538-.213t.212-.537v-.5q0-.325-.213-.537T6.75 9t-.537.213T6 9.75v.5q0 .325.213.538T6.75 11m2.5 2q.325 0 .538-.213T10 12.25v-4.5q0-.325-.213-.537T9.25 7t-.537.213t-.213.537v4.5q0 .325.213.538T9.25 13M12 15q.325 0 .538-.213t.212-.537v-8.5q0-.325-.213-.537T12 5t-.537.213t-.213.537v8.5q0 .325.213.538T12 15m2.75-2q.325 0 .538-.213t.212-.537v-4.5q0-.325-.213-.537T14.75 7t-.537.213T14 7.75v4.5q0 .325.213.538t.537.212m2.5-2q.325 0 .538-.213T18 10.25v-.5q0-.325-.213-.537T17.25 9t-.537.213t-.213.537v.5q0 .325.213.538t.537.212M6 18l-2.3 2.3q-.475.475-1.088.213T2 19.575V4q0-.825.588-1.412T4 2h16q.825 0 1.413.588T22 4v12q0 .825-.587 1.413T20 18z"/></svg>