<svg xmlns="http://www.w3.org/2000/svg" viewBox="0 0 24 24" width="24" height="24"><path fill="currentColor" d="M18.425 22.3q-.425 0-.712-.288t-.288-.712q0-.2.075-.4t.2-.325q1.075-1.075 1.688-2.475T20 15.05q0-1.625-.612-3.037T17.7 9.525q-.125-.125-.2-.325t-.075-.4q0-.425.288-.712t.712-.288q.2 0 .388.088t.312.212q1.35 1.35 2.113 3.138T22 15.05q0 2.05-.763 3.825T19.126 22q-.125.125-.312.213t-.388.087m-2.85-2.85q-.425 0-.712-.287t-.288-.713q0-.2.088-.387t.212-.313q.525-.525.825-1.213t.3-1.487t-.312-1.487t-.813-1.213q-.15-.125-.225-.312t-.075-.388q0-.425.288-.712t.712-.288q.2 0 .4.075t.325.225q.8.8 1.25 1.85t.45 2.25t-.45 2.25t-1.25 1.85q-.125.15-.325.225t-.4.075M8 15H6v.275q0 .875.538 1.538T7.9 17.7l.3.075q1 .25 1.125 1.25t-.775 1.5q-1.275.725-2.675 1.05t-2.875.4q-.425.025-.712-.263T2 21t.288-.712t.712-.313q.9-.05 1.763-.213t1.712-.462q-1.15-.575-1.812-1.662T4 15.275V14q0-.425.288-.712T5 13h3v-2q0-.425.288-.712T9 10h2.375L8.55 4.35q-.2-.375-.062-.762T9 3t.763-.062t.587.512l2.825 5.65q.5 1-.075 1.95t-1.7.95H10v1q0 .825-.587 1.413T8 15"/></svg>