<svg xmlns="http://www.w3.org/2000/svg" viewBox="0 0 24 24" width="24" height="24"><path fill="currentColor" d="M18.325 8.725q.275-.3.663-.325t.662.275q1.1 1.275 1.725 2.9T22 15.05q0 .575-.075 1.163t-.2 1.162q-.1.4-.462.613t-.763.112t-.612-.45t-.113-.75q.425-1.8.025-3.562t-1.55-3.188q-.275-.325-.238-.725t.313-.7M8.55 4.35q-.2-.375-.062-.762T9 3t.763-.062t.587.512l1.35 2.725q.2.35.05.725t-.5.55q-.375.2-.775.038t-.6-.538zM4 15.275V14q0-.425.288-.712T5 13h3v-2q0-.425.288-.712T9 10h1.025l2 2H10v1q0 .825-.587 1.413T8 15H6v.275q0 .875.538 1.538T7.9 17.7l.3.075q1 .25 1.125 1.25t-.775 1.5q-1.275.725-2.675 1.05t-2.875.4q-.425.025-.712-.263T2 21t.288-.712t.712-.313q.9-.05 1.763-.213t1.712-.462q-1.15-.575-1.812-1.662T4 15.275M19.775 22.6L1.4 4.2q-.275-.275-.288-.688T1.4 2.8q.275-.275.7-.275t.7.275l18.4 18.4q.275.275.275.688t-.275.712q-.3.3-.712.3t-.713-.3"/></svg>