<svg xmlns="http://www.w3.org/2000/svg" viewBox="0 0 24 24" width="24" height="24"><path fill="currentColor" d="M13.375 21.825q.275.075.638.063t.612-.113L22 19q0-.85-.6-1.425T20 17h-6.85q-.075 0-.175-.012t-.15-.038l-1.475-.525q-.2-.075-.275-.25t-.025-.375q.05-.175.25-.275t.4-.025l1.125.425q.1.05.163.063t.187.012H15.8q.475 0 .837-.325t.363-.85q0-.35-.213-.675t-.562-.45L9.3 11.125q-.175-.05-.35-.088T8.6 11H7v9.025zM1 20q0 .825.588 1.413T3 22t1.413-.587T5 20v-7q0-.825-.587-1.412T3 11t-1.412.588T1 13zm15-7.8q-.375 0-.737-.137t-.663-.413l-2.75-2.7q-.775-.75-1.312-1.662T10 5.3q0-1.375.963-2.337T13.3 2q.8 0 1.5.338t1.2.912q.5-.575 1.2-.913T18.7 2q1.375 0 2.338.963T22 5.3q0 1.075-.525 1.988t-1.3 1.662l-2.775 2.7q-.3.275-.662.413T16 12.2"/></svg>