<svg xmlns="http://www.w3.org/2000/svg" viewBox="0 0 24 24" width="24" height="24"><path fill="currentColor" d="m3.125 5.925l-1.8-1.8q-.275-.275-.275-.7t.275-.7t.7-.275t.7.275L20.5 20.5q.3.3.263.738T20.4 22q-.25.25-.6.25t-.6-.25H12q-.825 0-1.412-.587T10 20v-7.2l-1.875-1.85q-.075.275-.1.525T8 12v4.275q0 .55-.45.863t-.95.112q-2.1-.975-3.35-2.925T2 10q0-1.125.3-2.15t.825-1.925M16.3 8H12q-.275 0-.525.025t-.525.1l-4.1-4.1q-.35-.35-.25-.825t.525-.675q.675-.275 1.4-.4T10 2q2.35 0 4.325 1.25t2.95 3.375q.225.5-.088.938T16.3 8m5.7 4v4.75q0 .675-.612.938t-1.088-.213L14.525 11.7q-.475-.475-.213-1.087T15.25 10H20q.825 0 1.413.588T22 12m-9 7h3.2l-.7-.725l-1.425-1.4L12.8 18.6q-.1.125-.025.263T13 19"/></svg>