<svg xmlns="http://www.w3.org/2000/svg" viewBox="0 0 24 24" width="24" height="24"><path fill="currentColor" d="M5 21q-.825 0-1.412-.587T3 19v-5q0-.425.288-.712T4 13t.713.288T5 14v5h5q.425 0 .713.288T11 20t-.288.713T10 21zm14 0h-5q-.425 0-.712-.288T13 20t.288-.712T14 19h5v-5q0-.425.288-.712T20 13t.713.288T21 14v5q0 .825-.587 1.413T19 21m-7.75-5l2.6-3.475q.15-.2.4-.2t.4.2L17.4 16.2q.2.25.05.525T17 17H7q-.3 0-.45-.275t.05-.525l2-2.675q.15-.2.4-.2t.4.2zM3 5q0-.825.588-1.412T5 3h5q.425 0 .713.288T11 4t-.288.713T10 5H5v5q0 .425-.288.713T4 11t-.712-.288T3 10zm18 0v5q0 .425-.288.713T20 11t-.712-.288T19 10V5h-5q-.425 0-.712-.288T13 4t.288-.712T14 3h5q.825 0 1.413.588T21 5m-5.5 5q-.65 0-1.075-.425T14 8.5t.425-1.075T15.5 7t1.075.425T17 8.5t-.425 1.075T15.5 10"/></svg>