<svg xmlns="http://www.w3.org/2000/svg" viewBox="0 0 24 24" width="24" height="24"><path fill="currentColor" d="M17 8q-.425 0-.712-.288T16 7t.288-.712T17 6t.713.288T18 7t-.288.713T17 8m.975 6h-7.95q-.325 0-.462-.275t.062-.525L11.3 11q.15-.2.4-.2t.4.2l1.15 1.5l1.9-2.475q.15-.2.4-.2t.4.2l2.425 3.175q.2.25.063.525t-.463.275M4 22q-.825 0-1.412-.587T2 20V7q0-.425.288-.712T3 6t.713.288T4 7v13h13q.425 0 .713.288T18 21t-.288.713T17 22zM6 4q0-.825.588-1.412T8 2h4q.425 0 .713.288T13 3t-.288.713T12 4H8v4.375q0 .425-.288.713T7 9.375t-.712-.288T6 8.376zm2 14q-.825 0-1.412-.587T6 16v-3.625q0-.425.288-.712T7 11.375t.713.288t.287.712V16h4q.425 0 .713.288T13 17t-.288.713T12 18zm12 0h-4q-.425 0-.712-.288T15 17t.288-.712T16 16h4v-3.625q0-.425.288-.712t.712-.288t.713.288t.287.712V16q0 .825-.587 1.413T20 18m2-14v4.375q0 .425-.288.713T21 9.375t-.712-.288T20 8.376V4h-4q-.425 0-.712-.288T15 3t.288-.712T16 2h4q.825 0 1.413.588T22 4"/></svg>