<svg xmlns="http://www.w3.org/2000/svg" viewBox="0 0 24 24" width="24" height="24"><path fill="currentColor" d="M8.45 21q-.65 0-1.175-.375t-.725-1L5.475 16.4q-.9-.5-1.525-1.325t-.9-1.875l-.325-1.325q-.175-.725.275-1.3T4.175 10h15.65q.725 0 1.175.575t.275 1.3L20.95 13.2q-.275 1.05-.9 1.875T18.525 16.4l-1.075 3.225q-.2.625-.725 1T15.55 21zM20 8H4q0-1.25.863-2.125T6.95 5q.2 0 .425.038t.425.087q.425-.95 1.287-1.537T11 3q1.2 0 2.113.713t1.237 1.862q.475-.5 1.1-.788t1.325-.287q1.35 0 2.288.95T20 7.75z"/></svg>