<svg xmlns="http://www.w3.org/2000/svg" viewBox="0 0 24 24" width="24" height="24"><path fill="currentColor" d="m19.1 21.875l-3.15-3.125l-.55 1.825q-.2.65-.725 1.038T13.5 22h-3.025q-.65 0-1.175-.387t-.725-1.038L8 18.65q-.15-.5-.462-1t-.813-1.05q-.85-.925-1.287-2.113T5 12q0-.9.225-1.737t.65-1.588L2.1 4.9q-.3-.3-.3-.712t.3-.713t.713-.3t.712.3l17 17q.3.3.3.7t-.3.7t-.712.3t-.713-.3M12 17q.5 0 .95-.088t.875-.262L7.35 10.175q-.175.425-.262.875T7 12q0 2.075 1.463 3.538T12 17m3.975-11.625q.15.5.463 1t.812 1.05q.85.925 1.3 2.113T19 12q0 .575-.062 1.013t-.188.837t-.488.575t-.787.025q-.375-.125-.55-.5t-.05-.8q.075-.225.1-.475T17 12q0-1.05-.4-1.95t-1.075-1.575q-.95-.95-2.213-1.3t-2.537-.025q-.275.075-.537.013T9.775 6.9l-1.3-1.3q-.2-.2-.262-.462t.012-.538l.35-1.15q.2-.65.725-1.05t1.175-.4H13.5q.65 0 1.175.4t.725 1.05z"/></svg>