<svg xmlns="http://www.w3.org/2000/svg" viewBox="0 0 24 24" width="24" height="24"><path fill="currentColor" d="M4.5 20q-.625 0-1.062-.437T3 18.5v-3q0-.625.438-1.062T4.5 14t1.063.438T6 15.5v3q0 .625-.437 1.063T4.5 20m5-6q-.625 0-1.062-.437T8 12.5v-2q0-.625.438-1.062T9.5 9t1.063.438T11 10.5v2q0 .625-.437 1.063T9.5 14m5-5q-.625 0-1.062-.437T13 7.5v-2q0-.625.438-1.062T14.5 4t1.063.438T16 5.5v2q0 .625-.437 1.063T14.5 9m5 11q-.625 0-1.062-.437T18 18.5v-13q0-.625.438-1.062T19.5 4t1.063.438T21 5.5v13q0 .625-.437 1.063T19.5 20"/></svg>