<svg xmlns="http://www.w3.org/2000/svg" viewBox="0 0 24 24" width="24" height="24"><path fill="currentColor" d="M14.5 20h-2v1.25q0 .325-.213.538T11.75 22t-.537-.213T11 21.25v-4.5q0-.325.213-.537T11.75 16h2.75q.6 0 1.05.45T16 17.5v1q0 .6-.45 1.05T14.5 20m4-.5v1.75q0 .325-.213.538T17.75 22t-.537-.213T17 21.25v-4.5q0-.325.213-.537T17.75 16t.538.213t.212.537V18h2v-1.25q0-.325.213-.537T21.25 16t.538.213t.212.537v4.5q0 .325-.213.538T21.25 22t-.537-.213t-.213-.537V19.5zm-6-1h2v-1h-2zM10 2.35q.2 0 .363.063t.312.187q3.45 3.1 5.2 5.588t2.05 4.712q.05.425-.25.763T16.9 14H11q-.825 0-1.412.588T9 16v4.7q0 .425-.288.725t-.712.3q-2.95 0-4.475-2.35T2 13.8q0-2.35 1.863-5.187T9.325 2.6q.15-.125.313-.188T10 2.35"/></svg>