<svg xmlns="http://www.w3.org/2000/svg" viewBox="0 0 24 24" width="24" height="24"><path fill="currentColor" d="M15.475 22.175q-.275.125-.562.013T14.5 21.8l-.125-.275q-.2-.425-.288-.887T14 19.7q0-.55.125-1.087t.375-1.038q.2-.425.35-.862T15 15.8q0-.375-.088-.725t-.237-.7l-.025-.05q-.125-.275-.013-.575t.388-.425t.562-.012t.413.387l.125.225q.2.425.288.9t.087.975q0 .55-.125 1.075T16 17.9q-.2.425-.35.875t-.15.925q0 .35.075.688t.225.662l.05.125q.125.275.013.575t-.388.425m3 0q-.275.125-.562.013T17.5 21.8l-.125-.275q-.2-.425-.288-.887T17 19.7q0-.55.125-1.087t.375-1.038q.2-.425.35-.862T18 15.8q0-.375-.088-.725t-.237-.7l-.025-.05q-.125-.275-.012-.575t.387-.425t.563-.012t.412.387l.125.225q.2.45.288.913t.087.962q0 .55-.125 1.075T19 17.9q-.2.425-.35.875t-.15.925q0 .35.075.688t.225.662l.05.125q.125.275.013.575t-.388.425m2.55-8.85q.275-.125.563-.012T22 13.7l.125.225q.2.425.288.9t.087.975q0 .55-.125 1.088T22 17.925q-.2.425-.35.863t-.15.912q0 .35.075.688t.225.662l.05.125q.075.15.075.3t-.05.275t-.15.238t-.25.187q-.275.125-.562.013T20.5 21.8l-.125-.275q-.2-.425-.288-.887T20 19.7q0-.55.125-1.087t.375-1.038q.2-.425.35-.862T21 15.8q0-.375-.088-.725t-.237-.7l-.025-.05q-.125-.275-.012-.575t.387-.425M12 2.325q.2 0 .363.062t.287.188q1.65 1.475 3.313 3.238T18.75 9.6q.275.5-.025.963t-.875.462H14q-.825 0-1.412.588T12 13.025v7.85q0 .5-.325.775t-.8.275q-3.4 0-5.137-2.275T4 13.8q0-1.625.725-3.213T6.55 7.55t2.388-2.725t2.387-2.25q.15-.125.325-.187t.35-.063"/></svg>