<svg xmlns="http://www.w3.org/2000/svg" viewBox="0 0 24 24" width="24" height="24"><path fill="currentColor" d="M7 18.95q-1.225 0-1.95.55t-2.025.775q-.425.075-.725-.2t-.3-.7t.287-.712T3 18.25q.9-.275 1.7-.763T7 17q.95 0 1.563.213t1.137.474t1.05.488T12 18.4t1.25-.225t1.05-.488t1.15-.475T17 17q1.5 0 2.3.488t1.7.762q.425.125.713.413t.287.712t-.3.7t-.725.2q-1.3-.225-2.025-.775T17 18.95q-.7 0-1.213.213t-1.025.474t-1.15.488T12 20.35t-1.613-.225t-1.15-.488t-1.012-.475T7 18.95m0-4.45q-1.225 0-1.95.55t-2.025.775q-.425.075-.725-.2t-.3-.7t.287-.712T3 13.8q.9-.275 1.7-.763T7 12.55q.95 0 1.563.213t1.137.475t1.05.487t1.25.225t1.25-.225t1.05-.487t1.15-.475T17 12.55q1.5 0 2.3.488t1.7.762q.425.125.713.413t.287.712t-.3.7t-.725.2q-1.3-.225-2.025-.775T17 14.5q-.725 0-1.237.212t-1.026.475t-1.137.488t-1.6.225t-1.612-.225t-1.15-.488t-1.013-.474T7 14.5m0-4.45q-1.225 0-1.95.55t-2.025.775q-.425.075-.725-.2t-.3-.7t.288-.712T3 9.35q.9-.275 1.7-.763T7 8.1q.95 0 1.563.213t1.137.474t1.05.488T12 9.5t1.25-.225t1.05-.488t1.15-.475T17 8.1q1.5 0 2.3.488t1.7.762q.425.125.713.413t.287.712t-.3.7t-.725.2q-1.3-.225-2.025-.775T17 10.05q-.7 0-1.213.212t-1.025.475t-1.15.488T12 11.45t-1.613-.225t-1.15-.488t-1.012-.475T7 10.05M7 5.6q-1.225 0-1.95.55t-2.025.775Q2.6 7 2.3 6.725t-.3-.7t.287-.713T3 4.9q.9-.275 1.7-.763T7 3.65q.95 0 1.563.213t1.137.475t1.05.487T12 5.05t1.25-.225t1.05-.488t1.15-.474T17 3.65q1.5 0 2.3.488T21 4.9q.425.125.713.413t.287.712t-.3.7t-.725.2q-1.3-.225-2.025-.775T17 5.6q-.7 0-1.213.213t-1.025.475t-1.15.487T12 7t-1.613-.225t-1.15-.488t-1.012-.474T7 5.6"/></svg>