<svg xmlns="http://www.w3.org/2000/svg" viewBox="0 0 24 24" width="24" height="24"><path fill="currentColor" d="M17 23.025q-.425 0-.712-.3T16 22t.288-.712T17 21q1.65 0 2.825-1.175T21 17q0-.425.3-.725t.725-.3t.713.3t.287.725q0 2.5-1.762 4.263T17 23.025M2 8q-.425 0-.725-.288T.975 7q0-2.5 1.763-4.262T7 .974q.425 0 .725.288t.3.712t-.3.725T7 3Q5.35 3 4.175 4.175T3 7q0 .425-.288.713T2 8m3.3 10.725Q3.025 16.45 3.025 13.25T5.3 7.775L6.75 6.3q.125-.125.3-.125t.3.125q.725.725.725 1.762T7.35 9.826l-.35.35q-.3.3-.3.713t.3.712l.9.9q.65.65.65 1.575T7.9 15.65q-.225.225-.225.538t.225.537t.538.225t.537-.225q1.1-1.1 1.1-2.637T8.95 11.425l-.55-.55q.65-.65.925-1.463T9.55 7.75l4.475-4.475q.3-.3.713-.3t.712.3t.3.712t-.3.713l-4.675 4.675l1.05 1.05l6.025-6q.3-.3.7-.3t.7.3t.3.7t-.3.7l-6 6.025l1.05 1.05l5.3-5.3q.3-.3.713-.3t.712.3t.3.713t-.3.712l-5.3 5.3l1.05 1.05l4.05-4.05q.3-.3.713-.3t.712.3t.3.713t-.3.712l-6 5.975Q13.975 21 10.775 21T5.3 18.725"/></svg>