<svg xmlns="http://www.w3.org/2000/svg" viewBox="0 0 24 24" width="24" height="24"><path fill="currentColor" d="M5.5 21v-6.5H5q-.425 0-.712-.288T4 13.5V9q0-.825.588-1.412T6 7h3q.825 0 1.413.588T11 9v4.5q0 .425-.288.713T10 14.5h-.5V21q0 .425-.288.713T8.5 22h-2q-.425 0-.712-.288T5.5 21m2-15q-.825 0-1.412-.587T5.5 4t.588-1.412T7.5 2t1.413.588T9.5 4t-.587 1.413T7.5 6M15 21v-5h-1.625q-.5 0-.8-.413t-.125-.912l2.1-6.325q.2-.65.737-1T16.5 7t1.213.35t.737 1l2.1 6.325q.175.5-.125.913t-.8.412H18v5q0 .425-.288.713T17 22h-1q-.425 0-.712-.288T15 21m1.5-15q-.825 0-1.412-.587T14.5 4t.588-1.412T16.5 2t1.413.588T18.5 4t-.587 1.413T16.5 6"/></svg>