<svg xmlns="http://www.w3.org/2000/svg" viewBox="0 0 24 24" width="24" height="24"><path fill="currentColor" d="M3 10h1q.425 0 .713.288T5 11t-.288.713T4 12H3q-.425 0-.712-.288T2 11t.288-.712T3 10m1.7 5.4l.7-.7q.3-.3.7-.287t.7.287q.3.3.313.713t-.288.712l-.7.7q-.3.3-.712.288T4.7 16.8q-.275-.3-.288-.7t.288-.7m.7-8.1l-.7-.7q-.3-.3-.288-.7t.288-.7q.3-.3.713-.312t.712.287l.7.7q.3.3.288.713T6.8 7.3q-.3.275-.7.288T5.4 7.3m11.9 12l-4.05-4.05l-.75 2.25q-.05.175-.187.263t-.288.087t-.288-.1t-.187-.275l-2.15-7.15q-.05-.2.013-.4T9.6 9.6t.325-.187t.4-.013l7.2 2.15q.175.05.263.188t.087.287t-.075.288t-.25.187l-2.25.8l4 4q.3.3.3.7t-.3.7l-.6.6q-.3.3-.7.3t-.7-.3M10 5V4q0-.425.288-.712T11 3t.713.288T12 4v1q0 .425-.288.713T11 6t-.712-.288T10 5m5.175.875l.725-.725q.275-.275.688-.288t.712.288q.275.275.288.688t-.263.712l-.725.75q-.275.3-.688.288T15.2 7.3q-.3-.3-.312-.712t.287-.713"/></svg>