<svg xmlns="http://www.w3.org/2000/svg" viewBox="0 0 24 24" width="24" height="24"><path fill="currentColor" d="M12 22q-2.5 0-4.587-1.1T3.95 17.95l4.1-4.1l2.3 1.925q.3.25.688.225t.662-.3l4.3-4.3V13q0 .425.288.712T17 14t.713-.288T18 13V9q0-.425-.288-.712T17 8h-4q-.425 0-.712.288T12 9t.288.713T13 10h1.6l-3.65 3.65l-2.3-1.925q-.3-.25-.687-.225t-.663.3l-4.4 4.4q-.425-.95-.662-2.013T2 12q0-2.075.788-3.9t2.137-3.175T8.1 2.788T12 2t3.9.788t3.175 2.137T21.213 8.1T22 12t-.788 3.9t-2.137 3.175t-3.175 2.138T12 22"/></svg>