<svg xmlns="http://www.w3.org/2000/svg" viewBox="0 0 24 24" width="24" height="24"><path fill="currentColor" d="M19.95 21q-3.125 0-6.175-1.362t-5.55-3.863t-3.862-5.55T3 4.05q0-.45.3-.75t.75-.3H8.1q.35 0 .625.238t.325.562l.65 3.5q.05.4-.025.675T9.4 8.45L6.975 10.9q.5.925 1.187 1.787t1.513 1.663q.775.775 1.625 1.438T13.1 17l2.35-2.35q.225-.225.588-.337t.712-.063l3.45.7q.35.1.575.363T21 15.9v4.05q0 .45-.3.75t-.75.3M16.5 11q-.425 0-.712-.288T15.5 10t.288-.712T16.5 9t.713.288t.287.712t-.288.713T16.5 11m0-3.5q-.525 0-1.012.15t-.913.425q-.275.175-.587.163t-.513-.213q-.225-.225-.212-.525t.262-.5q.65-.5 1.413-.75T16.5 6t1.563.25t1.412.75q.25.2.263.5t-.213.525q-.2.2-.512.213t-.588-.163Q18 7.8 17.512 7.65T16.5 7.5m0-3q-1.125 0-2.137.363T12.475 5.9q-.275.2-.575.2t-.525-.225t-.225-.525t.25-.5q1.075-.875 2.375-1.362T16.5 3t2.725.488T21.6 4.85q.25.2.25.5t-.225.525t-.537.213t-.563-.213Q19.65 5.2 18.638 4.85T16.5 4.5"/></svg>