<svg xmlns="http://www.w3.org/2000/svg" viewBox="0 0 24 24" width="24" height="24"><path fill="currentColor" d="M12 20.35q-.3 0-.587-.112T10.9 19.9l-9.325-9.325q-.325-.325-.475-.7t-.15-.8t.175-.85t.55-.725q2.2-1.725 4.85-2.612T12 4t5.475.888t4.85 2.612q.375.275.55.7t.175.85t-.15.812t-.475.713l-.5.5q-.175.175-.425.238t-.475-.038q-.5-.175-1-.262t-1-.088q-2.525 0-4.3 1.775T12.95 17q0 .5.088 1t.262 1q.075.225.025.475t-.225.425q-.225.225-.512.338T12 20.35m5 .65q-.425 0-.712-.288T16 20v-3q0-.425.288-.712T17 16v-1q0-.825.588-1.412T19 13t1.413.588T21 15v1q.425 0 .713.288T22 17v3q0 .425-.288.713T21 21zm1-5h2v-1q0-.425-.288-.712T19 14t-.712.288T18 15z"/></svg>