<svg xmlns="http://www.w3.org/2000/svg" viewBox="0 0 24 24" width="24" height="24"><path fill="currentColor" d="M17.1 17.55q-.275.25-.587.025T16.325 17q.125-.45.175-.913t.05-.962q0-2-.875-3.663T13.3 8.7l-1.45 1.45q-.25.25-.55.125T11 9.8V4q0-.425.288-.712T12 3h5.8q.35 0 .475.3t-.125.55L16.7 5.3q1.3 1.175 2.075 2.8t.775 3.525q0 1.125-.288 2.163t-.787 1.962q-.275.475-.612.963t-.763.837m-11.25 2.6L7.3 18.7q-1.325-1.175-2.087-2.8t-.763-3.525q0-1.125.288-2.162t.787-1.963q.275-.475.625-.962t.775-.838q.275-.25.588-.038t.187.563q-.125.45-.187.925t-.063.975q0 2 .888 3.663T10.7 15.3l1.45-1.45q.25-.25.55-.125t.3.475V20q0 .425-.287.713T12 21H6.2q-.35 0-.475-.3t.125-.55"/></svg>