<svg xmlns="http://www.w3.org/2000/svg" viewBox="0 0 24 24" width="24" height="24"><path fill="currentColor" d="M5.825 19.525q-.3.3-.725.3t-.7-.325q-1.125-1.325-1.763-2.975T2 13q0-2.075.788-3.9t2.137-3.175T8.1 3.788T12 3t3.9.788t3.175 2.137T21.213 9.1T22 13q0 1.875-.638 3.525T19.6 19.5q-.275.325-.687.338t-.713-.288q-.275-.275-.275-.7t.275-.75q.85-1.05 1.325-2.35T20 13q0-3.35-2.325-5.675T12 5T6.325 7.325T4 13q0 1.45.475 2.738t1.35 2.337q.275.325.287.738t-.287.712M8.65 16.7q-.3.3-.725.313t-.675-.338q-.575-.775-.913-1.7T6 13q0-2.5 1.75-4.25T12 7t4.25 1.75T18 13q0 1.05-.337 1.988t-.913 1.687q-.25.325-.675.338t-.725-.288q-.275-.275-.287-.7t.237-.775q.325-.5.513-1.062T16 13q0-1.65-1.175-2.825T12 9t-2.825 1.175T8 13q0 .65.188 1.2t.512 1.05q.25.35.238.763t-.288.687M12 15q-.825 0-1.412-.587T10 13t.588-1.412T12 11t1.413.588T14 13t-.587 1.413T12 15"/></svg>