<svg xmlns="http://www.w3.org/2000/svg" viewBox="0 0 24 24" width="24" height="24"><path fill="currentColor" d="M6 20q-.825 0-1.412-.587T4 18v-7.375L3 11.4q-.35.25-.75.2t-.65-.4t-.187-.75t.387-.65l8.975-6.875q.275-.2.588-.3t.637-.1t.638.1t.587.3l9 6.875q.325.25.375.663t-.2.737t-.65.375t-.725-.2L20 10.625v.65q-.475-.15-.975-.212T18 11q-2.925 0-4.962 2.038T11 18q0 .225.013.45t.037.425q.05.45-.213.788T10.15 20zm7.75 3q-.325 0-.537-.213T13 22.25t.213-.537t.537-.213h.675q-.65-.675-1.037-1.575T13 18q0-1.525.825-2.762T16 13.425q.275-.125.513 0t.362.4t.025.563t-.475.487q-.875.425-1.4 1.263T14.5 18q0 .725.263 1.35t.737 1.1v-.7q0-.325.213-.537T16.25 19t.538.213t.212.537V22q0 .425-.288.713T16 23zm6.275-.425q-.275.125-.525 0t-.375-.4t-.025-.562t.475-.488q.875-.45 1.4-1.275T21.5 18q0-.725-.262-1.35t-.738-1.1v.7q0 .325-.213.538T19.75 17t-.537-.213T19 16.25V14q0-.425.288-.712T20 13h2.25q.325 0 .538.213t.212.537t-.213.538t-.537.212h-.675q.65.675 1.038 1.575T23 18q0 1.525-.825 2.763t-2.15 1.812"/></svg>