<svg xmlns="http://www.w3.org/2000/svg" viewBox="0 0 24 24" width="24" height="24"><path fill="currentColor" d="M9 22q-.825 0-1.412-.587T7 20v-2q0-.425.288-.712T8 17t.713.288T9 18v2h12v-9h-.25q-.425 0-.712-.288T19.75 10t.288-.712T20.75 9H21q.825 0 1.413.588T23 11v9q0 .825-.587 1.413T21 22zm-1.65-7.075Q7 14.7 6.913 14.3t.137-.75q.275-.4.225-.825T6.9 11.95q-.475-.5-.713-1.075T5.95 9.7q0-.45.137-.912T6.5 7.9q.225-.35.638-.45t.762.125t.438.625t-.138.75q-.275.4-.225.825t.375.775q.475.5.713 1.075T9.3 12.8q0 .45-.137.912t-.413.888q-.225.35-.638.45t-.762-.125m4.8 0q-.35-.225-.437-.625t.137-.75q.275-.4.225-.825t-.375-.775q-.475-.5-.712-1.075T10.75 9.7q0-.45.138-.912T11.3 7.9q.225-.35.625-.45t.75.125t.45.625t-.125.75q-.275.4-.225.825t.375.775q.475.5.7 1.075t.225 1.175q0 .45-.137.912t-.413.888q-.225.35-.625.45t-.75-.125M10 4q-1.7 0-3.363.25t-3.312.625L4.55 11.65q.075.4-.137.738t-.638.412t-.762-.15T2.6 12L1.2 4.4q-.075-.425.15-.788T2 3.126q1.975-.475 3.975-.8T10 2t4.025.325t3.975.8q.425.1.65.475t.15.8l-1.4 7.625q-.075.425-.413.638t-.762.137q-.4-.075-.625-.4t-.15-.75l1.225-6.775q-1.65-.375-3.312-.625T10 4"/></svg>