<svg xmlns="http://www.w3.org/2000/svg" viewBox="0 0 24 24" width="24" height="24"><path fill="currentColor" d="m12 11.925l-1.7 1.3q-.15.125-.3.013t-.1-.288l.65-2.1l-1.75-1.4q-.125-.125-.075-.287T8.95 9h2.15l.65-2.05q.05-.175.25-.175t.25.175L12.9 9h2.125q.175 0 .238.163t-.063.287l-1.775 1.4l.65 2.1q.05.175-.1.288t-.3-.013zM12 21l-4.675 1.55q-.5.175-.913-.125t-.412-.8v-6.35q-.95-1.05-1.475-2.4T4 10q0-3.35 2.325-5.675T12 2t5.675 2.325T20 10q0 1.525-.525 2.875T18 15.275v6.35q0 .5-.413.8t-.912.125zm0-5q2.5 0 4.25-1.75T18 10t-1.75-4.25T12 4T7.75 5.75T6 10t1.75 4.25T12 16"/></svg>