<svg xmlns="http://www.w3.org/2000/svg" viewBox="0 0 24 24" width="24" height="24"><path fill="currentColor" d="M19.775 21.325L13.2 14.75l-.4 1.95h-4l1-5.1l-1.8.7v2.4q0 .425-.288.712T7 15.7t-.712-.287T6 14.7v-3.05q0-.3.163-.537t.437-.363l1.8-.775L1.375 2.95q-.3-.3-.288-.712t.313-.713t.713-.3t.712.3l18.375 18.4q.3.3.3.7t-.3.7t-.712.3t-.713-.3M4 20.7q-.825 0-1.412-.587T2 18.7v-2q0-.425.288-.712T3 15.7t.713.288T4 16.7v2h2q.425 0 .713.288T7 19.7t-.288.713T6 20.7zm16-16v-2h-2q-.425 0-.712-.288T17 1.7t.288-.712T18 .7h2q.825 0 1.413.588T22 2.7v2q0 .425-.288.713T21 5.7t-.712-.288T20 4.7m-18 0V3.2q0-.425.163-.788t.412-.637L4 3.225V4.7q0 .425-.288.713T3 5.7t-.712-.288T2 4.7m16 16q-.425 0-.712-.288T17 19.7t.288-.712T18 18.7h1.725l1.425 1.4q-.25.275-.612.437t-.788.163zM6.825 2.7l-2-2H7q.425 0 .713.287T8 1.7t-.288.713T7 2.7zM22 17.875l-2-2V15.7q0-.425.288-.712T21 14.7t.713.288t.287.712zM13.5 8.2q-.825 0-1.412-.587T11.5 6.2t.588-1.412T13.5 4.2t1.413.588T15.5 6.2t-.587 1.413T13.5 8.2"/></svg>