<svg xmlns="http://www.w3.org/2000/svg" viewBox="0 0 24 24" width="24" height="24"><path fill="currentColor" d="M2 5V3q0-.825.588-1.412T4 1h2q.425 0 .713.288T7 2t-.288.713T6 3H4v2q0 .425-.288.713T3 6t-.712-.288T2 5m2 16q-.825 0-1.412-.587T2 19v-2q0-.425.288-.712T3 16t.713.288T4 17v2h2q.425 0 .713.288T7 20t-.288.713T6 21zM20 5V3h-2q-.425 0-.712-.288T17 2t.288-.712T18 1h2q.825 0 1.413.588T22 3v2q0 .425-.288.713T21 6t-.712-.288T20 5m-6.5 3.5q-.825 0-1.412-.587T11.5 6.5t.588-1.412T13.5 4.5t1.413.588T15.5 6.5t-.587 1.413T13.5 8.5M8.8 17l1-5.1l-1.8.7V15q0 .425-.288.712T7 16t-.712-.288T6 15v-3.05q0-.3.163-.537t.437-.363L9.95 9.6q.875-.375 1.288-.487T12 9q.525 0 .975.275T13.7 10l1 1.6q.275.425.6.788t.75.662l-1.025 1.775q-.425-.275-.813-.612T13.5 13.5l-.7 3.5zm6.2 5q-.575 0-.862-.5t-.013-1l4-7q.325-.475.9-.525t.85.525l4 7q.325.5 0 1T23 22zm4-1q.2 0 .35-.15t.15-.35t-.15-.35T19 20t-.35.15t-.15.35t.15.35t.35.15m0-2q.2 0 .35-.15t.15-.35v-3q0-.2-.15-.35T19 15t-.35.15t-.15.35v3q0 .2.15.35T19 19"/></svg>