<svg xmlns="http://www.w3.org/2000/svg" viewBox="0 0 24 24" width="24" height="24"><path fill="currentColor" d="M6.4 19H8q.425 0 .713.288T9 20t-.288.713T8 21H4q-.425 0-.712-.288T3 20v-4q0-.425.288-.712T4 15t.713.288T5 16v1.6l2.4-2.4q.275-.275.7-.275t.7.275t.275.7t-.275.7zm11.2 0l-2.4-2.4q-.275-.275-.275-.7t.275-.7t.7-.275t.7.275l2.4 2.4V16q0-.425.288-.712T20 15t.713.288T21 16v4q0 .425-.288.713T20 21h-4q-.425 0-.712-.288T15 20t.288-.712T16 19zM5 6.4V8q0 .425-.288.713T4 9t-.712-.288T3 8V4q0-.425.288-.712T4 3h4q.425 0 .713.288T9 4t-.288.713T8 5H6.4l2.4 2.4q.275.275.275.7t-.275.7t-.7.275t-.7-.275zm14 0l-2.4 2.4q-.275.275-.7.275t-.7-.275t-.275-.7t.275-.7L17.6 5H16q-.425 0-.712-.287T15 4t.288-.712T16 3h4q.425 0 .713.288T21 4v4q0 .425-.288.713T20 9t-.712-.288T19 8z"/></svg>