<?xml version="1.0" encoding="UTF-8" standalone="no"?>
<svg
   height="24"
   viewBox="0 0 24 24"
   width="24"
   version="1.1"
   id="svg4"
   sodipodi:docname="2d-rounded-filled.svg"
   inkscape:version="1.2.1 (9c6d41e410, 2022-07-14)"
   xmlns:inkscape="http://www.inkscape.org/namespaces/inkscape"
   xmlns:sodipodi="http://sodipodi.sourceforge.net/DTD/sodipodi-0.dtd"
   xmlns="http://www.w3.org/2000/svg"
   xmlns:svg="http://www.w3.org/2000/svg">
  <defs
     id="defs8" />
  <sodipodi:namedview
     id="namedview6"
     pagecolor="#ffffff"
     bordercolor="#000000"
     borderopacity="0.25"
     inkscape:showpageshadow="2"
     inkscape:pageopacity="0.0"
     inkscape:pagecheckerboard="0"
     inkscape:deskcolor="#d1d1d1"
     showgrid="false"
     inkscape:zoom="19.666667"
     inkscape:cx="13.271186"
     inkscape:cy="16.957627"
     inkscape:window-width="1916"
     inkscape:window-height="1197"
     inkscape:window-x="1911"
     inkscape:window-y="1244"
     inkscape:window-maximized="0"
     inkscape:current-layer="svg4" />
  <path
     d="m 8,13.5 v -1 h 2 q 0.425,0 0.7125,-0.2875 Q 11,11.925 11,11.5 V 10 Q 11,9.575 10.7125,9.2875 10.425,9 10,9 H 7.25 Q 6.925,9 6.7125,9.2125 6.5,9.425 6.5,9.75 6.5,10.075 6.7125,10.2875 6.925,10.5 7.25,10.5 H 9.5 v 1 h -2 Q 7.075,11.5 6.7875,11.7875 6.5,12.075 6.5,12.5 v 1.75 q 0,0.325 0.2125,0.5375 Q 6.925,15 7.25,15 h 3 q 0.325,0 0.5375,-0.2125 Q 11,14.575 11,14.25 11,13.925 10.7875,13.7125 10.575,13.5 10.25,13.5 Z m 5.75,1.5 h 2.75 q 0.625,0 1.0625,-0.4375 Q 18,14.125 18,13.5 v -3 Q 18,9.875 17.5625,9.4375 17.125,9 16.5,9 H 13.75 Q 13.425,9 13.2125,9.2125 13,9.425 13,9.75 v 4.5 q 0,0.325 0.2125,0.5375 Q 13.425,15 13.75,15 Z m 0.75,-1.5 v -3 h 2 v 3 z M 5,21 Q 4.175,21 3.5875,20.4125 3,19.825 3,19 V 5 Q 3,4.175 3.5875,3.5875 4.175,3 5,3 H 19 Q 19.825,3 20.4125,3.5875 21,4.175 21,5 v 14 q 0,0.825 -0.5875,1.4125 Q 19.825,21 19,21 Z"
     id="path2"
     style="stroke-width:0.025" />
</svg>
