<svg xmlns="http://www.w3.org/2000/svg" width="24" height="24" viewBox="0 0 24 24"><path fill="currentColor" d="M12 20q1.075 0 2.1-.288t1.95-.837L12.175 15H12q-1.675 0-3.25.537T5.85 17.1q1.25 1.375 2.75 2.138T12 20Zm7.775 2.575l-2.25-2.225q-1.225.8-2.625 1.225T12 22q-2.075 0-3.9-.788t-3.175-2.137q-1.35-1.35-2.137-3.175T2 12q0-1.475.413-2.875t1.212-2.65L1.375 4.2q-.3-.3-.288-.712t.313-.713q.3-.3.713-.3t.712.3l18.375 18.4q.3.3.3.7t-.3.7q-.3.3-.713.3t-.712-.3Zm.575-5.075l-5.7-5.7q.425-.475.638-1.063T15.5 9.5q0-1.45-1.025-2.475T12 6q-.65 0-1.238.213T9.7 6.85l-3.2-3.2q1.225-.8 2.625-1.225T12 2q2.075 0 3.9.788t3.175 2.137q1.35 1.35 2.138 3.175T22 12q0 1.475-.425 2.875T20.35 17.5Z"/></svg>