<?xml version="1.0" encoding="UTF-8" standalone="no"?>
<svg
   height="24"
   viewBox="0 0 24 24"
   width="24"
   version="1.1"
   id="svg135"
   sodipodi:docname="auto-meeting-room-rounded-filled.svg"
   inkscape:version="1.2.1 (9c6d41e410, 2022-07-14)"
   xmlns:inkscape="http://www.inkscape.org/namespaces/inkscape"
   xmlns:sodipodi="http://sodipodi.sourceforge.net/DTD/sodipodi-0.dtd"
   xmlns="http://www.w3.org/2000/svg"
   xmlns:svg="http://www.w3.org/2000/svg">
  <defs
     id="defs139" />
  <sodipodi:namedview
     id="namedview137"
     pagecolor="#ffffff"
     bordercolor="#000000"
     borderopacity="0.25"
     inkscape:showpageshadow="2"
     inkscape:pageopacity="0.0"
     inkscape:pagecheckerboard="0"
     inkscape:deskcolor="#d1d1d1"
     showgrid="false"
     inkscape:zoom="9.8333333"
     inkscape:cx="12"
     inkscape:cy="12"
     inkscape:window-width="3840"
     inkscape:window-height="2454"
     inkscape:window-x="-11"
     inkscape:window-y="-11"
     inkscape:window-maximized="1"
     inkscape:current-layer="svg135" />
  <path
     d="M 3.0657277,19.612022 V 5.0765027 q 0,-0.8565573 0.6068075,-1.46653 Q 4.2793427,3 5.1314554,3 h 7.2300466 q 0.438967,0 0.735916,0.2984973 0.296948,0.2984972 0.296948,0.7397541 h 2.065728 q 0.852113,0 1.45892,0.6099726 0.606808,0.6099727 0.606808,1.4665301 v 5.1912569 q 0,0.441257 -0.296949,0.739754 -0.296948,0.298497 -0.735915,0.298497 -0.438967,0 -0.735916,-0.298497 -0.296948,-0.298497 -0.296948,-0.739754 V 6.1147541 H 13.394366 V 20.650273 q 0,0.441257 -0.296948,0.739754 -0.296949,0.298498 -0.735916,0.298498 H 2.0328638 q -0.4389671,0 -0.7359154,-0.298498 Q 1,21.09153 1,20.650273 1,20.209016 1.2969484,19.910519 1.5938967,19.612022 2.0328638,19.612022 Z m 6.1971831,-6.229508 q 0.4389671,0 0.7359155,-0.298498 0.2969487,-0.298497 0.2969487,-0.739754 0,-0.441257 -0.2969487,-0.739754 -0.2969484,-0.298497 -0.7359155,-0.298497 -0.4389671,0 -0.7359155,0.298497 -0.2969484,0.298497 -0.2969484,0.739754 0,0.441257 0.2969484,0.739754 0.2969484,0.298498 0.7359155,0.298498 z m 9.0375582,6.489071 0.826292,1.81694 Q 19.255869,22 19.591549,22 q 0.335681,0 0.464789,-0.311475 l 0.826291,-1.81694 1.807512,-0.830601 Q 23,18.911202 23,18.57377 23,18.236339 22.690141,18.106557 l -1.807512,-0.830601 -0.826291,-1.81694 q -0.129108,-0.311475 -0.464789,-0.311475 -0.33568,0 -0.464788,0.311475 l -0.826292,1.81694 -1.807511,0.830601 q -0.309859,0.129782 -0.309859,0.467213 0,0.337432 0.309859,0.467214 z"
     id="path133"
     style="stroke-width:0.0258889" />
</svg>
