<svg xmlns="http://www.w3.org/2000/svg" width="24" height="24" viewBox="0 0 24 24"><path fill="currentColor" d="M4 7.425V10q0 .425-.288.713T3 11q-.425 0-.713-.288T2 10V5q0-.425.288-.713T3 4h5q.425 0 .713.288T9 5q0 .425-.288.713T8 6H5.4l3.575 3.575q.3.3.313.7t-.288.7q-.3.3-.713.3t-.712-.3L4 7.425ZM4 20q-.825 0-1.413-.588T2 18v-4q0-.425.288-.713T3 13q.425 0 .713.288T4 14v4h7q.425 0 .713.288T12 19q0 .425-.288.713T11 20H4Zm17-7q-.425 0-.713-.288T20 12V6h-8q-.425 0-.713-.288T11 5q0-.425.288-.713T12 4h8q.825 0 1.413.588T22 6v6q0 .425-.288.713T21 13Zm-6 7q-.425 0-.713-.288T14 19v-3q0-.425.288-.713T15 15h6q.425 0 .713.288T22 16v3q0 .425-.288.713T21 20h-6Z"/></svg>