<svg xmlns="http://www.w3.org/2000/svg" width="24" height="24" viewBox="0 0 24 24"><path fill="currentColor" d="M7 21V5q0-.425.288-.713T8 4h2V3q0-.425.288-.713T11 2h2q.425 0 .713.288T14 3v1h2q.425 0 .713.288T17 5v7q-.2 0-.4.013t-.4.037q-2.2.3-3.7 1.975T11 18q0 1.125.4 2.15T12.525 22H8q-.425 0-.713-.288T7 21Zm9-2h-2q-.425 0-.713-.288T13 18q0-.425.288-.713T14 17h2v-2q0-.425.288-.713T17 14q.425 0 .713.288T18 15v2h2q.425 0 .713.288T21 18q0 .425-.288.713T20 19h-2v2q0 .425-.288.713T17 22q-.425 0-.713-.288T16 21v-2Z"/></svg>