<svg xmlns="http://www.w3.org/2000/svg" width="24" height="24" viewBox="0 0 24 24"><path fill="currentColor" d="M4 21q-.425 0-.713-.288T3 20q0-.425.288-.713T4 19h15V4q0-.425.288-.713T20 3q.425 0 .713.288T21 4v15q0 .825-.588 1.413T19 21H4Zm11-4q-.825 0-1.413-.588T13 15q0-.825.588-1.413T15 13q.825 0 1.413.588T17 15q0 .825-.588 1.413T15 17Zm-9-5q-.425 0-.713-.288T5 11q0-.425.288-.713T6 10h2.6L3.7 5.125q-.3-.3-.3-.713t.3-.712q.3-.3.713-.3t.712.3L10 8.6V6q0-.425.288-.713T11 5q.425 0 .713.288T12 6v5q0 .425-.288.713T11 12H6Z"/></svg>