<svg xmlns="http://www.w3.org/2000/svg" width="24" height="24" viewBox="0 0 24 24"><path fill="currentColor" d="M20.95 17.225L17.475 20.7q-.15.15-.338.225T16.75 21H15q-.425 0-.712-.287T14 20v-1.75q0-.2.075-.388t.225-.337l3.475-3.475l3.175 3.175ZM5 21q-.825 0-1.413-.588T3 19V6.525q0-.35.113-.675t.337-.6L4.7 3.725q.275-.35.687-.538T6.25 3h11.5q.45 0 .863.188t.687.537l1.25 1.525q.225.275.338.6t.112.675V10.1q-.5-.125-1.012-.075t-.988.25q-.25.125-.463.25t-.412.325L16 13V8H8v6.375q0 .575.475.863t.975.037L12 14l2 1l-1.425 1.4q-.275.275-.425.65t-.15.775V20q0 .425-.288.712T11 21H5Zm17-4.825L18.825 13l.725-.725q.275-.275.7-.275t.7.275l1.775 1.775q.275.275.275.7t-.275.7l-.725.725ZM5.4 6h13.2l-.85-1H6.25L5.4 6Z"/></svg>