<svg xmlns="http://www.w3.org/2000/svg" width="24" height="24" viewBox="0 0 24 24"><path fill="currentColor" d="M11.6 12L9.35 9.75q-.275-.275-.287-.688t.287-.712q.275-.275.7-.275t.7.275L13 10.575V9.35q0-.425.287-.713T14 8.35q.425 0 .713.288T15 9.35V13q0 .425-.288.713T14 14h-3.65q-.425 0-.712-.288T9.35 13q0-.425.288-.713T10.35 12h1.25Zm7.4 8q-1.25 0-2.125-.875T16 17q0-1.25.875-2.125T19 14q1.25 0 2.125.875T22 17q0 1.25-.875 2.125T19 20ZM4 20q-.825 0-1.413-.588T2 18V6q0-.825.588-1.413T4 4h16q.825 0 1.413.588T22 6v5q0 .425-.288.713T21 12q-.425 0-.713-.288T20 11V6H4v12h9q.425 0 .713.288T14 19q0 .425-.288.713T13 20H4Z"/></svg>