<svg xmlns="http://www.w3.org/2000/svg" width="24" height="24" viewBox="0 0 24 24"><path fill="currentColor" d="M18.95 22q-3.125 0-6.175-1.363t-5.55-3.862q-2.5-2.5-3.862-5.55T2 5.05q0-.45.3-.75t.75-.3H7.1q.35 0 .625.238t.325.562l.65 3.5q.05.4-.025.675T8.4 9.45L5.975 11.9q.5.925 1.187 1.788t1.513 1.662q.775.775 1.625 1.438T12.1 18l2.35-2.35q.225-.225.588-.338t.712-.062l3.45.7q.35.1.575.363T20 16.9v4.05q0 .45-.3.75t-.75.3ZM17 12q-2.075 0-3.538-1.463T12 7q0-2.075 1.463-3.538T17 2q2.075 0 3.538 1.463T22 7q0 2.075-1.463 3.538T17 12Zm0-2q.2 0 .35-.15t.15-.35v-3q0-.2-.15-.35T17 6q-.2 0-.35.15t-.15.35v3q0 .2.15.35T17 10Zm0-5q.2 0 .35-.15t.15-.35q0-.2-.15-.35T17 4q-.2 0-.35.15t-.15.35q0 .2.15.35T17 5Z"/></svg>