<svg xmlns="http://www.w3.org/2000/svg" width="24" height="24" viewBox="0 0 24 24"><path fill="currentColor" d="M12 8q-1.2 0-2-.838t-.75-2.037q.05-1.1.675-1.963t1.4-1.562q.15-.125.313-.188T12 1.35q.2 0 .363.063t.312.187q.775.7 1.4 1.563t.675 1.962q.05 1.2-.75 2.038T12 8Zm8.25 9q.325 0 .537-.213T21 16.25q0-.325-.213-.537t-.537-.213q-.325 0-.537.213t-.213.537q0 .325.213.537t.537.213ZM18 22H6q-1.25 0-2.125-.875T3 19v-1q0-.425.288-.713T4 17h5v-6q0-.825.588-1.413T11 9h2q.825 0 1.413.588T15 11v6h2.6q-.05-.2-.075-.375t-.025-.375q0-1.15.8-1.95t1.95-.8q1.15 0 1.95.8t.8 1.95q0 .95-.562 1.675T21 18.9v.1q0 1.25-.875 2.125T18 22Z"/></svg>