<svg xmlns="http://www.w3.org/2000/svg" width="24" height="24" viewBox="0 0 24 24"><path fill="currentColor" d="m19 19.425l-1.425 1.4q-.275.275-.688.288t-.712-.288q-.275-.275-.275-.7t.275-.7l1.4-1.425l-1.4-1.425q-.275-.275-.288-.687t.288-.713q.275-.275.7-.275t.7.275l1.425 1.4l1.425-1.4q.275-.275.688-.288t.712.288q.275.275.275.7t-.275.7L20.425 18l1.4 1.425q.275.275.288.688t-.288.712q-.275.275-.7.275t-.7-.275L19 19.425ZM10 9q-.425 0-.713-.288T9 8q0-.425.288-.713T10 7h7q.425 0 .713.288T18 8q0 .425-.288.713T17 9h-7Zm0 3q-.425 0-.713-.288T9 11q0-.425.288-.713T10 10h7q.425 0 .713.288T18 11q0 .425-.288.713T17 12h-7ZM6 22q-1.25 0-2.125-.875T3 19v-1q0-.825.588-1.413T5 16h1V4q0-.825.588-1.413T8 2h11q.825 0 1.413.588T21 4v8.375q-.475-.175-.975-.263T19 12.026V4H8v12h5.35q-.175.5-.262 1T13 18q0 1.1.388 2.125T14.55 22H6Z"/></svg>