<svg xmlns="http://www.w3.org/2000/svg" width="24" height="24" viewBox="0 0 24 24"><path fill="currentColor" d="M19.75 22.575L1.35 4.2q-.3-.3-.3-.713t.3-.712q.3-.3.713-.3t.712.3l18.4 18.4q.3.3.3.7t-.3.7q-.3.3-.713.3t-.712-.3ZM11 19q-1.65 0-2.825-1.175T7 15q0-1.65 1.175-2.825T11 11l2 2h-2q-.825 0-1.413.588T9 15q0 .825.588 1.413T11 17h6l3.55 3.55q-.35.2-.738.325T19 21q-.975 0-1.75-.563T16.175 19H11Zm10.825-.025l-3.8-3.8q.225-.075.463-.125T19 15q1.25 0 2.125.875T22 18q0 .275-.05.513t-.125.462ZM15.2 12.35l-1.475-1.475q.575-.225.925-.725T15 9q0-.825-.587-1.412T13 7H9.85l-2-2H13q1.65 0 2.825 1.175T17 9q0 1.05-.5 1.925t-1.3 1.425ZM5 9q-1.25 0-2.125-.875T2 6q0-.8.4-1.475T3.45 3.45l4.1 4.1q-.4.65-1.075 1.05T5 9Z"/></svg>