<svg xmlns="http://www.w3.org/2000/svg" width="24" height="24" viewBox="0 0 24 24"><path fill="currentColor" d="M4 20q-.425 0-.713-.288T3 19q0-.425.288-.713T4 18h10q.425 0 .713.288T15 19q0 .425-.288.713T14 20H4Zm12-7q-2.075 0-3.538-1.463T11 8q0-2.075 1.463-3.538T16 3q2.075 0 3.538 1.463T21 8q0 2.075-1.463 3.538T16 13ZM4 12q-.425 0-.713-.288T3 11q0-.425.288-.713T4 10h5.3q.175.55.4 1.05t.55.95H4Zm0 4q-.425 0-.713-.288T3 15q0-.425.288-.713T4 14h8.4q.575.35 1.225.588t1.375.337V15q0 .425-.288.713T14 16H4Zm12-5q.2 0 .35-.15t.15-.35v-3q0-.2-.15-.35T16 7q-.2 0-.35.15t-.15.35v3q0 .2.15.35T16 11Zm0-5q.2 0 .35-.15t.15-.35q0-.2-.15-.35T16 5q-.2 0-.35.15t-.15.35q0 .2.15.35T16 6Z"/></svg>