<svg xmlns="http://www.w3.org/2000/svg" width="24" height="24" viewBox="0 0 24 24"><path d="M3 8h18V5.5q0-.625-.438-1.063T19.5 4h-15q-.625 0-1.063.438T3 5.5V8Zm0 6h18v-4H3v4Zm1.5 6h15q.625 0 1.063-.438T21 18.5V16H3v2.5q0 .625.438 1.063T4.5 20ZM5 7q-.425 0-.713-.288T4 6q0-.425.288-.713T5 5q.425 0 .713.288T6 6q0 .425-.288.713T5 7Zm0 6q-.425 0-.713-.288T4 12q0-.425.288-.713T5 11q.425 0 .713.288T6 12q0 .425-.288.713T5 13Zm0 6q-.425 0-.713-.288T4 18q0-.425.288-.713T5 17q.425 0 .713.288T6 18q0 .425-.288.713T5 19Z"/></svg>