<svg xmlns="http://www.w3.org/2000/svg" width="24" height="24" viewBox="0 0 24 24"><path d="M17 21q.2 0 .35-.15t.15-.35q0-.2-.15-.35T17 20q-.2 0-.35.15t-.15.35q0 .2.15.35T17 21Zm0-2q.2 0 .35-.15t.15-.35v-3q0-.2-.15-.35T17 15q-.2 0-.35.15t-.15.35v3q0 .2.15.35T17 19ZM11 2.275Q11.475 2 12 2t1 .275L20 6.3q.475.275.738.725t.262 1v4.225q-.85-.6-1.863-.925T17 11q-.425 0-.813.038t-.787.137l2.7-1.55q.375-.2.463-.625t-.138-.775q-.2-.35-.588-.438T17.1 7.9L12 10.85L6.9 7.9q-.35-.2-.725-.113t-.6.438q-.225.35-.138.775t.463.625l5.1 2.95V14.4q-.475.8-.738 1.7T10 18q0 1.05.288 2t.812 1.775q-.025-.025-.05-.025t-.05-.025L4 17.7q-.475-.275-.738-.725t-.262-1v-7.95q0-.55.263-1T4 6.3l7-4.025ZM17 23q-2.075 0-3.538-1.463T12 18q0-2.075 1.463-3.538T17 13q2.075 0 3.538 1.463T22 18q0 2.075-1.463 3.538T17 23Z"/></svg>