<svg xmlns="http://www.w3.org/2000/svg" width="24" height="24" viewBox="0 0 24 24"><path d="M18.175 19H15q-.425 0-.713-.288T14 18q0-.425.288-.713T15 17h3.175l-.9-.9q-.275-.275-.262-.7t.287-.7q.3-.3.7-.3t.7.3l2.6 2.6q.3.3.3.7t-.3.7l-2.6 2.6q-.3.3-.7.3t-.7-.3q-.3-.3-.3-.713t.3-.712l.875-.875ZM5 21q-.825 0-1.413-.588T3 19v-3q0-.425.288-.713T4 15q.425 0 .713.288T5 16v3h3q.425 0 .713.288T9 20q0 .425-.288.713T8 21H5ZM3 8V5q0-.825.588-1.413T5 3h3q.425 0 .713.288T9 4q0 .425-.288.713T8 5H5v3q0 .425-.288.713T4 9q-.425 0-.713-.288T3 8Zm16 0V5h-3q-.425 0-.713-.288T15 4q0-.425.288-.713T16 3h3q.825 0 1.413.588T21 5v3q0 .425-.288.713T20 9q-.425 0-.713-.288T19 8Z"/></svg>