<svg xmlns="http://www.w3.org/2000/svg" width="24" height="24" viewBox="0 0 24 24"><path d="M12 18q-2.425 0-4.15-1.65T6 12.3l2.1.625q.325 1.35 1.4 2.212T12 16q1.65 0 2.825-1.175T16 12q0-1.425-.863-2.5t-2.212-1.4L12.3 6q2.4.125 4.05 1.85T18 12q0 2.5-1.75 4.25T12 18Zm0 4q-2.075 0-3.9-.788t-3.175-2.137q-1.35-1.35-2.137-3.175T2 12v-.45q0-.225.05-.45l1.95.6v.3q0 3.35 2.325 5.675T12 20q3.35 0 5.675-2.325T20 12q0-3.35-2.325-5.675T12 4h-.3l-.6-1.95q.225-.05.45-.05H12q2.075 0 3.9.788t3.175 2.137q1.35 1.35 2.138 3.175T22 12q0 2.075-.788 3.9t-2.137 3.175q-1.35 1.35-3.175 2.138T12 22ZM6.25 8.225L5.5 10.5q-.125.35-.475.338t-.475-.363L2.275 2.9q-.1-.275.125-.5t.5-.125l7.575 2.275q.35.125.363.475T10.5 5.5l-2.275.75l3.3 3.3q.425.425.425.975t-.425.975q-.425.425-.988.425T9.55 11.5l-3.3-3.275Z"/></svg>