<svg xmlns="http://www.w3.org/2000/svg" width="24" height="24" viewBox="0 0 24 24"><path     d="M8.65 20H6q-.825 0-1.413-.588T4 18v-2.65L2.075 13.4q-.275-.3-.425-.662T1.5 12q0-.375.15-.738t.425-.662L4 8.65V6q0-.825.588-1.413T6 4h2.65l1.95-1.925q.3-.275.663-.425T12 1.5q.375 0 .738.15t.662.425L15.35 4H18q.825 0 1.413.588T20 6v2.65l1.925 1.95q.275.3.425.663t.15.737q0 .375-.15.738t-.425.662L20 15.35V18q0 .825-.588 1.413T18 20h-2.65l-1.95 1.925q-.3.275-.662.425T12 22.5q-.375 0-.737-.15t-.663-.425L8.65 20Zm1.875-4.5l.775.75q.3.3.7.3t.7-.3l.775-.75H14.5q.425 0 .713-.288t.287-.712v-1.025l.75-.775q.3-.3.3-.7t-.3-.7l-.75-.775V9.5q0-.425-.288-.713T14.5 8.5h-1.025l-.95-.925Q12.3 7.35 12 7.35t-.525.225l-.95.925H9.5q-.425 0-.713.288T8.5 9.5v1.025l-.75.775q-.3.3-.3.7t.3.7l.75.775V14.5q0 .425.288.713t.712.287h1.025Z"/></svg>