<svg xmlns="http://www.w3.org/2000/svg" width="24" height="24" viewBox="0 0 24 24"><path d="M1 21v-7q0-.425.288-.713T2 13h4q.425 0 .713.288T7 14v7q0 .425-.288.713T6 22H2q-.425 0-.713-.288T1 21Zm8 0v-7q0-.425.288-.713T10 13h4q.425 0 .713.288T15 14v7q0 .425-.288.713T14 22h-4q-.425 0-.713-.288T9 21Zm8 0v-7q0-.425.288-.713T18 13h4q.425 0 .713.288T23 14v7q0 .425-.288.713T22 22h-4q-.425 0-.713-.288T17 21Zm-6-1h2v-5h-2v5ZM1 10V3q0-.425.288-.713T2 2h4q.425 0 .713.288T7 3v7q0 .425-.288.713T6 11H2q-.425 0-.713-.288T1 10Zm8 0V3q0-.425.288-.713T10 2h4q.425 0 .713.288T15 3v7q0 .425-.288.713T14 11h-4q-.425 0-.713-.288T9 10Zm8 0V3q0-.425.288-.713T18 2h4q.425 0 .713.288T23 3v7q0 .425-.288.713T22 11h-4q-.425 0-.713-.288T17 10ZM3 9h2V4H3v5Zm16 0h2V4h-2v5Z"/></svg>