<svg height="24" viewBox="0 0 24 24" width="24" xmlns="http://www.w3.org/2000/svg"><path d="M 6.8502266,17.149806 4.3502677,15.774825 Q 4.0752722,15.624827 4.0377728,15.337331 4.0002738,15.049835 4.2002701,14.849838 l 0.2999951,-0.299996 q 0.099998,-0.1 0.2374961,-0.137498 0.1374978,-0.0375 0.2624957,-0.0125 L 7.2002209,14.69984 11.100157,10.799895 4.3002685,7.099947 Q 3.9252747,6.8999498 3.8627757,6.4749558 3.8002767,6.0499618 4.1002718,5.749966 L 4.3502677,5.4999695 q 0.1749971,-0.1749976 0.3874936,-0.2249969 0.2124966,-0.049999 0.4374929,0 L 14.250105,7.59994 18.150041,3.749994 Q 18.575034,3.325 19.200024,3.325 q 0.62499,0 1.049983,0.424994 0.424993,0.4249941 0.424993,1.0499853 0,0.6249912 -0.424993,1.0499853 l -3.849937,3.8999452 2.324962,9.0248732 q 0.05,0.249997 -0.0125,0.487493 -0.0625,0.237497 -0.237496,0.412495 l -0.124998,0.124998 q -0.349994,0.349995 -0.812487,0.274996 -0.462492,-0.075 -0.687488,-0.499993 l -3.64994,-6.674906 -3.8999366,3.899945 0.2999951,2.14997 q 0.025,0.174997 -0.025,0.324995 -0.049999,0.149998 -0.1749971,0.274996 L 9.2751865,19.674771 Q 9.0251906,19.924767 8.6751963,19.887268 8.325202,19.849768 8.1502049,19.524773 Z"/></svg>