<svg xmlns="http://www.w3.org/2000/svg" width="24" height="24" viewBox="0 0 24 24"><path d="M18 19q.825 0 1.413-.588T20 17q0-.825-.588-1.413T18 15q-.825 0-1.413.588T16 17q0 .825.588 1.413T18 19Zm-.2 3q-.35 0-.613-.225t-.337-.575l-.15-.7q-.3-.125-.562-.262T15.6 19.9l-.725.225q-.325.1-.637-.025t-.488-.4l-.2-.35q-.175-.3-.125-.65t.325-.575l.55-.475q-.05-.3-.05-.65t.05-.65l-.55-.475q-.275-.225-.325-.562t.125-.638l.225-.375q.175-.275.475-.4t.625-.025l.725.225q.275-.2.537-.337t.563-.263l.15-.725q.075-.35.337-.563T17.8 12h.4q.35 0 .613.225t.337.575l.15.7q.3.125.562.262t.538.338l.725-.225q.325-.1.638.025t.487.4l.2.35q.175.3.125.65t-.325.575l-.55.475q.05.3.05.65t-.05.65l.55.475q.275.225.325.563t-.125.637l-.225.375q-.175.275-.475.4t-.625.025L20.4 19.9q-.275.2-.537.337t-.563.263l-.15.725q-.075.35-.337.563T18.2 22h-.4ZM4 20q-.825 0-1.413-.588T2 18V6q0-.825.588-1.413T4 4h5.175q.4 0 .763.15t.637.425L12 6h8q.825 0 1.413.588T22 8v3.25q-.875-.625-1.9-.938T18 10q-2.925 0-4.963 2.038T11 17q0 .8.163 1.55t.512 1.45H4Z"/></svg>