<svg xmlns="http://www.w3.org/2000/svg" width="24" height="24" viewBox="0 0 24 24"><path d="M15.75 16v-2.8l-1.9-3.475q-.5.25-.8.725t-.3 1.05v7.475q0 .275.062.513t.188.462L14.175 22H22l-.95-11.85q-.025-.325-.15-.612T20.575 9l-5.8-6.625q-.3-.35-.775-.325t-.8.4q-.4.675-.4 1.45t.375 1.475L17.25 12.8V16h-1.5Zm-9 0v-3.2l4.075-7.425q.375-.7.35-1.475t-.425-1.475q-.3-.35-.763-.363t-.762.338L3.425 9q-.2.25-.325.537t-.15.613L2 22h7.825L11 19.95q.125-.225.188-.463t.062-.512V11.5q0-.575-.3-1.038t-.8-.737L8.25 13.2V16h-1.5Z"/></svg>