<svg xmlns="http://www.w3.org/2000/svg" width="24" height="24" viewBox="0 0 24 24"><path d="M4 20q-.425 0-.713-.288T3 19V5q0-.425.288-.713T4 4q.425 0 .713.288T5 5v14q0 .425-.288.713T4 20Zm16 0q-.425 0-.713-.288T19 19V5q0-.425.288-.713T20 4q.425 0 .713.288T21 5v14q0 .425-.288.713T20 20ZM8.525 17q-.425 0-.675-.35t-.1-.75l3.15-8.35q.1-.25.3-.4t.475-.15h.65q.275 0 .475.15t.3.4l3.15 8.375q.15.4-.087.737T15.5 17q-.275 0-.475-.15t-.3-.4l-.7-2h-4.05l-.725 2.025q-.075.25-.275.388t-.45.137Zm1.975-4h3l-1.45-4.15h-.1L10.5 13Z"/></svg>