<svg xmlns="http://www.w3.org/2000/svg" width="24" height="24" viewBox="0 0 24 24"><path d="M12 22q-1.875 0-3.513-.713t-2.85-1.924q-1.212-1.213-1.924-2.85T3 13q0-1.875.713-3.513t1.924-2.85q1.213-1.212 2.85-1.924T12 4h.15l-.85-.85q-.275-.275-.275-.688t.275-.712q.3-.3.713-.313t.712.288L15.3 4.3q.275.275.275.7t-.275.7l-2.575 2.575q-.3.3-.712.288T11.3 8.25q-.275-.3-.275-.713t.275-.687l.85-.85H12Q9.075 6 7.037 8.038T5 13q0 2.925 2.038 4.963T12 20q2.65 0 4.625-1.725t2.325-4.35q.05-.4.35-.663T20 13q.4 0 .7.25t.25.625q-.35 3.475-2.9 5.8T12 22Z"/></svg>