<svg xmlns="http://www.w3.org/2000/svg" width="24" height="24" viewBox="0 0 24 24"><path d="M6.65 8.15q.15.15.35.15t.35-.15l1.3-1.3q.15-.15.15-.35t-.15-.35l-1.3-1.3Q7.2 4.7 7 4.7t-.35.15l-1.3 1.3q-.15.15-.15.35t.15.35l1.3 1.3ZM16.5 7q.625 0 1.063-.438T18 5.5q0-.625-.438-1.063T16.5 4q-.625 0-1.063.438T15 5.5q0 .625.438 1.063T16.5 7ZM6 23q-.425 0-.713-.288T5 22v-1.1q0-.875.488-1.625t1.287-1.125q1.225-.575 2.55-.863T12 17q1.35 0 2.675.288t2.55.862q.8.375 1.288 1.125T19 20.9V22q0 .425-.287.713T18 23H6Zm6-7q-1.45 0-2.475-1.025T8.5 12.5q0-1.45 1.025-2.475T12 9q1.45 0 2.475 1.025T15.5 12.5q0 1.45-1.025 2.475T12 16Zm-4.775-2H4q-.825 0-1.413-.588T2 12V3q0-.825.588-1.413T4 1h16q.825 0 1.413.588T22 3v9q0 .825-.588 1.413T20 14h-3.225q.15-.5.2-1t0-1q-.2-1.9-1.613-3.2T12 7.5q-1.95 0-3.363 1.3T7.025 12q-.05.5 0 1t.2 1Z"/></svg>