<svg xmlns="http://www.w3.org/2000/svg" width="24" height="24" viewBox="0 0 24 24"><path d="M5 11v2h2v-2H5Zm3 0v2h2v-2H8Zm3 0v2h2v-2h-2ZM5 8v2h2V8H5Zm3 0v2h2V8H8Zm3 0v2h2V8h-2Zm3 0v2h2V8h-2Zm3 0v2h2V8h-2ZM4 19q-.825 0-1.413-.588T2 17V7q0-.825.588-1.413T4 5h16q.825 0 1.413.588T22 7v6.525q-.65-.575-1.413-.938T19 12.1V11h-2v1.1q-.275.05-.513.1t-.487.15V11h-2v2h.7q-.325.2-.6.463t-.55.537H9q-.425 0-.713.288T8 15q0 .425.288.713T9 16h3.35q-.175.475-.25.975T12.025 18q0 .275.013.513T12.1 19H4Zm14.175 0H15q-.425 0-.713-.288T14 18q0-.425.288-.713T15 17h3.175l-.9-.9Q17 15.825 17 15.412t.3-.712q.275-.275.7-.275t.7.275l2.6 2.6q.3.3.3.7t-.3.7l-2.6 2.6q-.275.275-.688.288T17.3 21.3q-.275-.275-.275-.7t.275-.7l.875-.9Z"/></svg>