<svg xmlns="http://www.w3.org/2000/svg" width="24" height="24" viewBox="0 0 24 24"><path d="M4 22q-.825 0-1.413-.588T2 20V10q0-.825.588-1.413T4 8h16q.825 0 1.413.588T22 10v10q0 .825-.588 1.413T20 22H4Zm5-3h6q.425 0 .713-.288T16 18q0-.425-.288-.713T15 17H9q-.425 0-.713.288T8 18q0 .425.288.713T9 19Zm-4-3h2v-2H5v2Zm3 0h2v-2H8v2Zm3 0h2v-2h-2v2Zm3 0h2v-2h-2v2Zm3 0h2v-2h-2v2ZM5 13h2v-2H5v2Zm3 0h2v-2H8v2Zm3 0h2v-2h-2v2Zm3 0h2v-2h-2v2Zm3 0h2v-2h-2v2ZM9.375 4H10q.425 0 .713.288T11 5q0 .425-.288.713T10 6H7q-.425 0-.713-.288T6 5V2q0-.425.288-.713T7 1q.425 0 .713.288T8 2v.525Q8.8 1.8 9.825 1.4T12 1q2 0 3.575 1.188t2.15 3.062q.1.325-.175.537T16.875 6q-.4 0-.75-.15t-.5-.5q-.5-1.05-1.463-1.7T12 3q-.75 0-1.425.263T9.375 4Z"/></svg>