<svg xmlns="http://www.w3.org/2000/svg" width="24" height="24" viewBox="0 0 24 24"><path d="M2.15 17q-.125-.2-.075-.45t.275-.4q.35-.25.675-.512T3.7 15.1v-2.875H2.575q-.225 0-.388-.162t-.162-.388q0-.225.163-.388t.387-.162H4.35q.2 0 .35.15t.15.35v3.4q.5.625 1.25.95t1.55.325q1.25 0 2.475-.025T12.6 16.2q.25-.025.363.138t.037.412q-.075.25-.313.438t-.487.187q-1.15.025-2.275 0T7.65 17.35q-.95 0-1.85-.325T4.25 16q-.3.3-.625.6t-.675.575q-.2.175-.437.113T2.15 17Zm9.6-1.55q-.65-.4-1.187-.9t-1.038-1.075v2.075q0 .225-.163.388t-.387.162q-.225 0-.4-.175t-.175-.4V13.45q-.45.6-1.025 1.088t-1.2.912q-.2.125-.437.1t-.413-.225q-.175-.2-.125-.362t.25-.288q.7-.375 1.3-.875t1.1-1.125h-1.6q-.2 0-.35-.15t-.15-.35V9.95q0-.2.15-.35t.35-.15h2.175V8.7H5.75q-.2 0-.35-.162t-.15-.363q0-.2.163-.35t.362-.15h2.65v-.65q0-.225.163-.388t.387-.162q.225 0 .388.163t.162.387v.65h2.9q.2 0 .35.15t.15.35q0 .2-.15.363t-.35.162h-2.9v.75h2.325q.2 0 .35.15t.15.35v2.2q0 .2-.15.35t-.35.15h-1.775q.525.6 1.138 1.1t1.312.85q.225.125.25.288t-.15.362q-.2.2-.438.263t-.437-.063ZM6.875 11.7H8.4v-1.275H6.875V11.7Zm2.625 0h1.75v-1.275H9.5V11.7ZM3.95 9.025q-.3-.375-.65-.688t-.75-.587q-.2-.125-.212-.325t.162-.35q.2-.15.45-.15t.425.125q.375.3.713.613t.687.662q.175.175.175.413t-.2.387q-.2.15-.425.125t-.375-.225Zm13.6 6.625q.7 0 1.363-.325t1.212-.925v-2.65q-.575.075-1.063.175t-.912.225q-1.125.35-1.688.875T15.9 14.25q0 .65.45 1.025t1.2.375Zm-.575 1.7q-1.425 0-2.25-.813t-.825-2.212q0-1.3.825-2.125t2.65-1.325q.575-.15 1.263-.275t1.487-.225q-.05-1.175-.55-1.713t-1.55-.537q-.525 0-1.025.15t-1.175.5q-.3.175-.625.1t-.5-.375q-.175-.3-.075-.638t.4-.512q.775-.425 1.663-.688T18.5 6.4q1.775 0 2.7 1.1t.925 3.2v5.6q0 .35-.238.588t-.587.237h-.125q-.325 0-.55-.213t-.275-.512l-.05-.4q-.7.625-1.538.988t-1.787.362Z"/></svg>