<svg xmlns="http://www.w3.org/2000/svg" width="24" height="24" viewBox="0 0 24 24"><path d="M10 20q-.825 0-1.413-.588T8 18q0-.825.588-1.413T10 16h10q.825 0 1.413.588T22 18q0 .825-.588 1.413T20 20H10Zm0-6q-.825 0-1.413-.588T8 12q0-.825.588-1.413T10 10h10q.825 0 1.413.588T22 12q0 .825-.588 1.413T20 14H10Zm0-6q-.825 0-1.413-.588T8 6q0-.825.588-1.413T10 4h10q.825 0 1.413.588T22 6q0 .825-.588 1.413T20 8H10ZM4 8q-.825 0-1.413-.588T2 6q0-.825.588-1.413T4 4q.825 0 1.413.588T6 6q0 .825-.588 1.413T4 8Zm0 6q-.825 0-1.413-.588T2 12q0-.825.588-1.413T4 10q.825 0 1.413.588T6 12q0 .825-.588 1.413T4 14Zm0 6q-.825 0-1.413-.588T2 18q0-.825.588-1.413T4 16q.825 0 1.413.588T6 18q0 .825-.588 1.413T4 20Z"/></svg>