<svg xmlns="http://www.w3.org/2000/svg" width="24" height="24" viewBox="0 0 24 24"><path d="M13.5 20H7q-.825 0-1.413-.588T5 18v-6.5q0-3.55 2.475-6.025T13.5 3q3.55 0 6.025 2.475T22 11.5q0 3.55-2.475 6.025T13.5 20Zm0-5q1.45 0 2.475-1.025T17 11.5q0-1.45-1.025-2.475T13.5 8q-1.45 0-2.475 1.025T10 11.5q0 1.45 1.025 2.475T13.5 15Zm0-2q-.625 0-1.063-.438T12 11.5q0-.625.438-1.063T13.5 10q.625 0 1.063.438T15 11.5q0 .625-.438 1.063T13.5 13ZM3 20q-.425 0-.713-.288T2 19v-3q0-.425.288-.713T3 15q.425 0 .713.288T4 16v3q0 .425-.288.713T3 20Z"/></svg>