<?xml version="1.0" encoding="UTF-8"?>
<svg xmlns="http://www.w3.org/2000/svg" xmlns:xlink="http://www.w3.org/1999/xlink" width="24px" height="24px" viewBox="0 0 24 24" version="1.1">
<g id="surface1">
<path style=" stroke:none;fill-rule:nonzero;fill:rgb(0%,0%,0%);fill-opacity:1;" d="M 16 20 C 15.714844 20 15.480469 19.902344 15.289062 19.710938 C 15.097656 19.519531 15 19.285156 15 19 C 15 18.714844 15.097656 18.480469 15.289062 18.289062 C 15.480469 18.097656 15.714844 18 16 18 L 22 18 C 22.285156 18 22.519531 18.097656 22.710938 18.289062 C 22.902344 18.480469 23 18.714844 23 19 C 23 19.285156 22.902344 19.519531 22.710938 19.710938 C 22.519531 19.902344 22.285156 20 22 20 Z M 12 12 C 12.832031 12 13.542969 11.707031 14.125 11.125 C 14.707031 10.542969 15 9.832031 15 9 C 15 8.167969 14.707031 7.457031 14.125 6.875 C 13.542969 6.292969 12.832031 6 12 6 C 11.167969 6 10.457031 6.292969 9.875 6.875 C 9.292969 7.457031 9 8.167969 9 9 C 9 9.832031 9.292969 10.542969 9.875 11.125 C 10.457031 11.707031 11.167969 12 12 12 Z M 10.5 9.5 C 10.367188 9.5 10.25 9.449219 10.148438 9.351562 C 10.050781 9.25 10 9.132812 10 9 C 10 8.867188 10.050781 8.75 10.148438 8.648438 C 10.25 8.550781 10.367188 8.5 10.5 8.5 C 10.632812 8.5 10.75 8.550781 10.851562 8.648438 C 10.949219 8.75 11 8.867188 11 9 C 11 9.132812 10.949219 9.25 10.851562 9.351562 C 10.75 9.449219 10.632812 9.5 10.5 9.5 Z M 12 9.5 C 11.867188 9.5 11.75 9.449219 11.648438 9.351562 C 11.550781 9.25 11.5 9.132812 11.5 9 C 11.5 8.867188 11.550781 8.75 11.648438 8.648438 C 11.75 8.550781 11.867188 8.5 12 8.5 C 12.132812 8.5 12.25 8.550781 12.351562 8.648438 C 12.449219 8.75 12.5 8.867188 12.5 9 C 12.5 9.132812 12.449219 9.25 12.351562 9.351562 C 12.25 9.449219 12.132812 9.5 12 9.5 Z M 13.5 9.5 C 13.367188 9.5 13.25 9.449219 13.148438 9.351562 C 13.050781 9.25 13 9.132812 13 9 C 13 8.867188 13.050781 8.75 13.148438 8.648438 C 13.25 8.550781 13.367188 8.5 13.5 8.5 C 13.632812 8.5 13.75 8.550781 13.851562 8.648438 C 13.949219 8.75 14 8.867188 14 9 C 14 9.132812 13.949219 9.25 13.851562 9.351562 C 13.75 9.449219 13.632812 9.5 13.5 9.5 Z M 5 21 C 4.449219 21 3.980469 20.804688 3.585938 20.414062 C 3.195312 20.019531 3 19.550781 3 19 L 3 5 C 3 4.449219 3.195312 3.980469 3.585938 3.585938 C 3.980469 3.195312 4.449219 3 5 3 L 19 3 C 19.550781 3 20.019531 3.195312 20.414062 3.585938 C 20.804688 3.980469 21 4.449219 21 5 L 21 13.351562 C 20.667969 13.234375 20.332031 13.144531 20 13.085938 C 19.667969 13.027344 19.332031 13 19 13 C 17.332031 13 15.917969 13.582031 14.75 14.75 C 13.582031 15.917969 13 17.332031 13 19 C 13 19.332031 13.027344 19.667969 13.085938 20 C 13.144531 20.332031 13.234375 20.667969 13.351562 21 Z M 5 21 "/>
</g>
</svg>
