<svg xmlns="http://www.w3.org/2000/svg" width="24" height="24" viewBox="0 0 24 24"><path d="M18 20h-2q-.425 0-.713-.288T15 19q0-.425.288-.713T16 18h2v-2q0-.425.288-.713T19 15q.425 0 .713.288T20 16v2h2q.425 0 .713.288T23 19q0 .425-.288.713T22 20h-2v2q0 .425-.288.713T19 23q-.425 0-.713-.288T18 22v-2Zm-6-8q1.25 0 2.125-.875T15 9q0-1.25-.875-2.125T12 6q-1.25 0-2.125.875T9 9q0 1.25.875 2.125T12 12Zm-1.5-2.5q-.2 0-.35-.15T10 9q0-.2.15-.35t.35-.15q.2 0 .35.15T11 9q0 .2-.15.35t-.35.15Zm1.5 0q-.2 0-.35-.15T11.5 9q0-.2.15-.35T12 8.5q.2 0 .35.15t.15.35q0 .2-.15.35T12 9.5Zm1.5 0q-.2 0-.35-.15T13 9q0-.2.15-.35t.35-.15q.2 0 .35.15T14 9q0 .2-.15.35t-.35.15ZM5 21q-.825 0-1.413-.588T3 19V5q0-.825.588-1.413T5 3h14q.825 0 1.413.588T21 5v8.35q-.5-.175-1-.263T19 13q-2.5 0-4.25 1.75T13 19q0 .5.088 1t.262 1H5Z"/></svg>