<?xml version="1.0" encoding="UTF-8"?>
<svg xmlns="http://www.w3.org/2000/svg" xmlns:xlink="http://www.w3.org/1999/xlink" width="24px" height="24px" viewBox="0 0 24 24" version="1.1">
<g id="surface1">
<path style=" stroke:none;fill-rule:nonzero;fill:rgb(0%,0%,0%);fill-opacity:1;" d="M 11.550781 13.101562 L 10.074219 13.851562 L 7.023438 11.824219 L 7.851562 10.125 C 8.015625 9.792969 8.261719 9.519531 8.585938 9.3125 C 8.914062 9.105469 9.265625 9 9.648438 9 L 11 9 L 11 3 C 11 2.714844 11.097656 2.480469 11.289062 2.289062 C 11.480469 2.097656 11.714844 2 12 2 L 17.199219 2 C 17.382812 2 17.523438 2.078125 17.625 2.238281 C 17.726562 2.394531 17.734375 2.558594 17.648438 2.726562 L 17.101562 3.773438 C 17.066406 3.859375 17.050781 3.933594 17.050781 4 C 17.050781 4.066406 17.066406 4.140625 17.101562 4.226562 L 17.648438 5.273438 C 17.734375 5.441406 17.726562 5.605469 17.625 5.761719 C 17.523438 5.921875 17.382812 6 17.199219 6 L 13 6 L 13 9 L 14.25 9 C 14.632812 9 14.984375 9.101562 15.300781 9.300781 C 15.617188 9.5 15.867188 9.765625 16.050781 10.101562 L 16.925781 11.851562 L 13.925781 13.851562 L 12.449219 13.101562 C 12.316406 13.015625 12.167969 12.976562 12 12.976562 C 11.832031 12.976562 11.683594 13.015625 11.550781 13.101562 Z M 2.699219 20.550781 L 6.125 13.625 L 9.449219 15.824219 C 9.601562 15.925781 9.761719 15.984375 9.9375 16 C 10.113281 16.015625 10.285156 15.984375 10.449219 15.898438 L 12 15.125 L 13.550781 15.898438 C 13.714844 15.984375 13.886719 16.019531 14.0625 16.011719 C 14.238281 16.003906 14.398438 15.949219 14.550781 15.851562 L 17.824219 13.675781 L 21.273438 20.550781 C 21.441406 20.882812 21.429688 21.207031 21.238281 21.523438 C 21.046875 21.839844 20.757812 22 20.375 22 L 3.601562 22 C 3.214844 22 2.929688 21.839844 2.738281 21.523438 C 2.546875 21.207031 2.535156 20.882812 2.699219 20.550781 Z M 2.699219 20.550781 "/>
</g>
</svg>
