<?xml version="1.0" encoding="UTF-8"?>
<svg xmlns="http://www.w3.org/2000/svg" xmlns:xlink="http://www.w3.org/1999/xlink" width="24px" height="24px" viewBox="0 0 24 24" version="1.1">
<g id="surface1">
<path style=" stroke:none;fill-rule:nonzero;fill:rgb(0%,0%,0%);fill-opacity:1;" d="M 10 8 C 10 7.449219 10.195312 6.980469 10.585938 6.585938 C 10.980469 6.195312 11.449219 6 12 6 L 20 6 C 20.550781 6 21.019531 6.195312 21.414062 6.585938 C 21.804688 6.980469 22 7.449219 22 8 L 22 16 C 22 16.550781 21.804688 17.019531 21.414062 17.414062 C 21.019531 17.804688 20.550781 18 20 18 L 12 18 C 11.449219 18 10.980469 17.804688 10.585938 17.414062 C 10.195312 17.019531 10 16.550781 10 16 Z M 6 18 L 6 16 L 8 16 L 8 18 Z M 6 8 L 6 6 L 8 6 L 8 8 Z M 2 13 L 2 11 L 4 11 L 4 13 Z M 2 16 L 4 16 L 4 18 C 3.449219 18 2.980469 17.804688 2.585938 17.414062 C 2.195312 17.019531 2 16.550781 2 16 Z M 2 8 C 2 7.449219 2.195312 6.980469 2.585938 6.585938 C 2.980469 6.195312 3.449219 6 4 6 L 4 8 Z M 2 8 "/>
</g>
</svg>
