<?xml version="1.0" encoding="UTF-8"?>
<svg xmlns="http://www.w3.org/2000/svg" xmlns:xlink="http://www.w3.org/1999/xlink" width="24px" height="24px" viewBox="0 0 24 24" version="1.1">
<g id="surface1">
<path style=" stroke:none;fill-rule:nonzero;fill:rgb(0%,0%,0%);fill-opacity:1;" d="M 14 16 C 14 16.550781 13.804688 17.019531 13.414062 17.414062 C 13.019531 17.804688 12.550781 18 12 18 L 4 18 C 3.449219 18 2.980469 17.804688 2.585938 17.414062 C 2.195312 17.019531 2 16.550781 2 16 L 2 8 C 2 7.449219 2.195312 6.980469 2.585938 6.585938 C 2.980469 6.195312 3.449219 6 4 6 L 12 6 C 12.550781 6 13.019531 6.195312 13.414062 6.585938 C 13.804688 6.980469 14 7.449219 14 8 Z M 16 8 L 16 6 L 18 6 L 18 8 Z M 16 18 L 16 16 L 18 16 L 18 18 Z M 20 13 L 20 11 L 22 11 L 22 13 Z M 20 8 L 20 6 C 20.550781 6 21.019531 6.195312 21.414062 6.585938 C 21.804688 6.980469 22 7.449219 22 8 Z M 20 16 L 22 16 C 22 16.550781 21.804688 17.019531 21.414062 17.414062 C 21.019531 17.804688 20.550781 18 20 18 Z M 20 16 "/>
</g>
</svg>
