<?xml version="1.0" encoding="UTF-8"?>
<svg xmlns="http://www.w3.org/2000/svg" xmlns:xlink="http://www.w3.org/1999/xlink" width="24px" height="24px" viewBox="0 0 24 24" version="1.1">
<g id="surface1">
<path style=" stroke:none;fill-rule:nonzero;fill:rgb(0%,0%,0%);fill-opacity:1;" d="M 4 21 C 3.449219 21 2.980469 20.804688 2.585938 20.414062 C 2.195312 20.019531 2 19.550781 2 19 L 2 5 C 2 4.449219 2.195312 3.980469 2.585938 3.585938 C 2.980469 3.195312 3.449219 3 4 3 L 20 3 C 20.550781 3 21.019531 3.195312 21.414062 3.585938 C 21.804688 3.980469 22 4.449219 22 5 L 22 19 C 22 19.550781 21.804688 20.019531 21.414062 20.414062 C 21.019531 20.804688 20.550781 21 20 21 Z M 4.5 19 L 5.5 19 C 5.632812 19 5.75 18.949219 5.851562 18.851562 C 5.949219 18.75 6 18.632812 6 18.5 L 6 17.5 C 6 17.367188 5.949219 17.25 5.851562 17.148438 C 5.75 17.050781 5.632812 17 5.5 17 L 4.5 17 C 4.367188 17 4.25 17.050781 4.148438 17.148438 C 4.050781 17.25 4 17.367188 4 17.5 L 4 18.5 C 4 18.632812 4.050781 18.75 4.148438 18.851562 C 4.25 18.949219 4.367188 19 4.5 19 Z M 18.5 19 L 19.5 19 C 19.632812 19 19.75 18.949219 19.851562 18.851562 C 19.949219 18.75 20 18.632812 20 18.5 L 20 17.5 C 20 17.367188 19.949219 17.25 19.851562 17.148438 C 19.75 17.050781 19.632812 17 19.5 17 L 18.5 17 C 18.367188 17 18.25 17.050781 18.148438 17.148438 C 18.050781 17.25 18 17.367188 18 17.5 L 18 18.5 C 18 18.632812 18.050781 18.75 18.148438 18.851562 C 18.25 18.949219 18.367188 19 18.5 19 Z M 12 17 C 12.285156 17 12.519531 16.902344 12.710938 16.710938 C 12.902344 16.519531 13 16.285156 13 16 L 13 12 C 13 11.714844 12.902344 11.480469 12.710938 11.289062 C 12.519531 11.097656 12.285156 11 12 11 C 11.714844 11 11.480469 11.097656 11.289062 11.289062 C 11.097656 11.480469 11 11.714844 11 12 L 11 16 C 11 16.285156 11.097656 16.519531 11.289062 16.710938 C 11.480469 16.902344 11.714844 17 12 17 Z M 4.5 15 L 5.5 15 C 5.632812 15 5.75 14.949219 5.851562 14.851562 C 5.949219 14.75 6 14.632812 6 14.5 L 6 13.5 C 6 13.367188 5.949219 13.25 5.851562 13.148438 C 5.75 13.050781 5.632812 13 5.5 13 L 4.5 13 C 4.367188 13 4.25 13.050781 4.148438 13.148438 C 4.050781 13.25 4 13.367188 4 13.5 L 4 14.5 C 4 14.632812 4.050781 14.75 4.148438 14.851562 C 4.25 14.949219 4.367188 15 4.5 15 Z M 18.5 15 L 19.5 15 C 19.632812 15 19.75 14.949219 19.851562 14.851562 C 19.949219 14.75 20 14.632812 20 14.5 L 20 13.5 C 20 13.367188 19.949219 13.25 19.851562 13.148438 C 19.75 13.050781 19.632812 13 19.5 13 L 18.5 13 C 18.367188 13 18.25 13.050781 18.148438 13.148438 C 18.050781 13.25 18 13.367188 18 13.5 L 18 14.5 C 18 14.632812 18.050781 14.75 18.148438 14.851562 C 18.25 14.949219 18.367188 15 18.5 15 Z M 4.5 11 L 5.5 11 C 5.632812 11 5.75 10.949219 5.851562 10.851562 C 5.949219 10.75 6 10.632812 6 10.5 L 6 9.5 C 6 9.367188 5.949219 9.25 5.851562 9.148438 C 5.75 9.050781 5.632812 9 5.5 9 L 4.5 9 C 4.367188 9 4.25 9.050781 4.148438 9.148438 C 4.050781 9.25 4 9.367188 4 9.5 L 4 10.5 C 4 10.632812 4.050781 10.75 4.148438 10.851562 C 4.25 10.949219 4.367188 11 4.5 11 Z M 18.5 11 L 19.5 11 C 19.632812 11 19.75 10.949219 19.851562 10.851562 C 19.949219 10.75 20 10.632812 20 10.5 L 20 9.5 C 20 9.367188 19.949219 9.25 19.851562 9.148438 C 19.75 9.050781 19.632812 9 19.5 9 L 18.5 9 C 18.367188 9 18.25 9.050781 18.148438 9.148438 C 18.050781 9.25 18 9.367188 18 9.5 L 18 10.5 C 18 10.632812 18.050781 10.75 18.148438 10.851562 C 18.25 10.949219 18.367188 11 18.5 11 Z M 12 9 C 12.285156 9 12.519531 8.902344 12.710938 8.710938 C 12.902344 8.519531 13 8.285156 13 8 C 13 7.714844 12.902344 7.480469 12.710938 7.289062 C 12.519531 7.097656 12.285156 7 12 7 C 11.714844 7 11.480469 7.097656 11.289062 7.289062 C 11.097656 7.480469 11 7.714844 11 8 C 11 8.285156 11.097656 8.519531 11.289062 8.710938 C 11.480469 8.902344 11.714844 9 12 9 Z M 4.5 7 L 5.5 7 C 5.632812 7 5.75 6.949219 5.851562 6.851562 C 5.949219 6.75 6 6.632812 6 6.5 L 6 5.5 C 6 5.367188 5.949219 5.25 5.851562 5.148438 C 5.75 5.050781 5.632812 5 5.5 5 L 4.5 5 C 4.367188 5 4.25 5.050781 4.148438 5.148438 C 4.050781 5.25 4 5.367188 4 5.5 L 4 6.5 C 4 6.632812 4.050781 6.75 4.148438 6.851562 C 4.25 6.949219 4.367188 7 4.5 7 Z M 18.5 7 L 19.5 7 C 19.632812 7 19.75 6.949219 19.851562 6.851562 C 19.949219 6.75 20 6.632812 20 6.5 L 20 5.5 C 20 5.367188 19.949219 5.25 19.851562 5.148438 C 19.75 5.050781 19.632812 5 19.5 5 L 18.5 5 C 18.367188 5 18.25 5.050781 18.148438 5.148438 C 18.050781 5.25 18 5.367188 18 5.5 L 18 6.5 C 18 6.632812 18.050781 6.75 18.148438 6.851562 C 18.25 6.949219 18.367188 7 18.5 7 Z M 18.5 7 "/>
</g>
</svg>
