<?xml version="1.0" encoding="UTF-8"?>
<svg xmlns="http://www.w3.org/2000/svg" xmlns:xlink="http://www.w3.org/1999/xlink" width="24px" height="24px" viewBox="0 0 24 24" version="1.1">
<g id="surface1">
<path style=" stroke:none;fill-rule:nonzero;fill:rgb(0%,0%,0%);fill-opacity:1;" d="M 11 18 C 12.933594 18 14.582031 17.320312 15.949219 15.960938 C 17.316406 14.605469 18 12.949219 18 11 C 18 9.066406 17.316406 7.417969 15.949219 6.050781 C 14.582031 4.683594 12.933594 4 11 4 C 9.050781 4 7.394531 4.683594 6.039062 6.050781 C 4.679688 7.417969 4 9.066406 4 11 C 4 12.949219 4.679688 14.605469 6.039062 15.960938 C 7.394531 17.320312 9.050781 18 11 18 Z M 11 13.5 C 11.699219 13.5 12.292969 13.261719 12.773438 12.789062 C 13.257812 12.3125 13.5 11.714844 13.5 11 C 13.5 10.300781 13.257812 9.707031 12.773438 9.226562 C 12.292969 8.742188 11.699219 8.5 11 8.5 C 10.285156 8.5 9.6875 8.742188 9.210938 9.226562 C 8.738281 9.707031 8.5 10.300781 8.5 11 C 8.5 11.714844 8.738281 12.3125 9.210938 12.789062 C 9.6875 13.261719 10.285156 13.5 11 13.5 Z M 11 15 C 9.800781 15 8.6875 14.679688 7.664062 14.039062 C 6.636719 13.394531 5.832031 12.542969 5.25 11.476562 C 5.167969 11.324219 5.125 11.167969 5.125 11 C 5.125 10.832031 5.167969 10.675781 5.25 10.523438 C 5.832031 9.457031 6.636719 8.605469 7.664062 7.960938 C 8.6875 7.320312 9.800781 7 11 7 C 12.199219 7 13.308594 7.324219 14.324219 7.976562 C 15.339844 8.625 16.140625 9.476562 16.726562 10.523438 C 16.808594 10.675781 16.851562 10.832031 16.851562 11 C 16.851562 11.167969 16.808594 11.324219 16.726562 11.476562 C 16.140625 12.542969 15.339844 13.394531 14.324219 14.039062 C 13.308594 14.679688 12.199219 15 11 15 Z M 11 12.5 C 11.417969 12.5 11.769531 12.359375 12.0625 12.074219 C 12.355469 11.792969 12.5 11.433594 12.5 11 C 12.5 10.582031 12.355469 10.230469 12.0625 9.9375 C 11.769531 9.644531 11.417969 9.5 11 9.5 C 10.566406 9.5 10.207031 9.644531 9.925781 9.9375 C 9.640625 10.230469 9.5 10.582031 9.5 11 C 9.5 11.433594 9.640625 11.792969 9.925781 12.074219 C 10.207031 12.359375 10.566406 12.5 11 12.5 Z M 11 20 C 9.75 20 8.578125 19.761719 7.488281 19.289062 C 6.394531 18.8125 5.445312 18.171875 4.636719 17.363281 C 3.828125 16.554688 3.1875 15.605469 2.710938 14.511719 C 2.238281 13.421875 2 12.25 2 11 C 2 9.765625 2.238281 8.605469 2.710938 7.511719 C 3.1875 6.421875 3.828125 5.464844 4.636719 4.648438 C 5.445312 3.832031 6.394531 3.1875 7.488281 2.710938 C 8.578125 2.238281 9.75 2 11 2 C 12.234375 2 13.394531 2.238281 14.488281 2.710938 C 15.578125 3.1875 16.535156 3.832031 17.351562 4.648438 C 18.167969 5.464844 18.8125 6.421875 19.289062 7.511719 C 19.761719 8.605469 20 9.765625 20 11 C 20 12.066406 19.824219 13.074219 19.476562 14.023438 C 19.125 14.976562 18.640625 15.839844 18.023438 16.625 L 21.300781 19.898438 C 21.5 20.101562 21.597656 20.332031 21.585938 20.601562 C 21.578125 20.867188 21.476562 21.101562 21.273438 21.300781 C 21.074219 21.484375 20.839844 21.574219 20.574219 21.574219 C 20.308594 21.574219 20.074219 21.484375 19.875 21.300781 L 16.601562 18.050781 C 15.816406 18.667969 14.949219 19.144531 14 19.488281 C 13.050781 19.828125 12.050781 20 11 20 Z M 11 20 "/>
</g>
</svg>
