<?xml version="1.0" encoding="UTF-8"?>
<svg xmlns="http://www.w3.org/2000/svg" xmlns:xlink="http://www.w3.org/1999/xlink" width="24px" height="24px" viewBox="0 0 24 24" version="1.1">
<g id="surface1">
<path style=" stroke:none;fill-rule:nonzero;fill:rgb(0%,0%,0%);fill-opacity:1;" d="M 5 21 C 4.449219 21 3.980469 20.804688 3.585938 20.414062 C 3.195312 20.019531 3 19.550781 3 19 L 3 5 C 3 4.449219 3.195312 3.980469 3.585938 3.585938 C 3.980469 3.195312 4.449219 3 5 3 L 10 3 C 10.285156 3 10.519531 3.097656 10.710938 3.289062 C 10.902344 3.480469 11 3.714844 11 4 C 11 4.285156 10.902344 4.519531 10.710938 4.710938 C 10.519531 4.902344 10.285156 5 10 5 L 5 5 L 5 19 L 19 19 L 19 14 C 19 13.714844 19.097656 13.480469 19.289062 13.289062 C 19.480469 13.097656 19.714844 13 20 13 C 20.285156 13 20.519531 13.097656 20.710938 13.289062 C 20.902344 13.480469 21 13.714844 21 14 L 21 19 C 21 19.550781 20.804688 20.019531 20.414062 20.414062 C 20.019531 20.804688 19.550781 21 19 21 Z M 16 8 L 14 8 C 13.714844 8 13.480469 7.902344 13.289062 7.710938 C 13.097656 7.519531 13 7.285156 13 7 C 13 6.714844 13.097656 6.480469 13.289062 6.289062 C 13.480469 6.097656 13.714844 6 14 6 L 16 6 L 16 4 C 16 3.714844 16.097656 3.480469 16.289062 3.289062 C 16.480469 3.097656 16.714844 3 17 3 C 17.285156 3 17.519531 3.097656 17.710938 3.289062 C 17.902344 3.480469 18 3.714844 18 4 L 18 6 L 20 6 C 20.285156 6 20.519531 6.097656 20.710938 6.289062 C 20.902344 6.480469 21 6.714844 21 7 C 21 7.285156 20.902344 7.519531 20.710938 7.710938 C 20.519531 7.902344 20.285156 8 20 8 L 18 8 L 18 10 C 18 10.285156 17.902344 10.519531 17.710938 10.710938 C 17.519531 10.902344 17.285156 11 17 11 C 16.714844 11 16.480469 10.902344 16.289062 10.710938 C 16.097656 10.519531 16 10.285156 16 10 Z M 16 8 "/>
</g>
</svg>
