<?xml version="1.0" encoding="UTF-8"?>
<svg xmlns="http://www.w3.org/2000/svg" xmlns:xlink="http://www.w3.org/1999/xlink" width="24px" height="24px" viewBox="0 0 24 24" version="1.1">
<g id="surface1">
<path style=" stroke:none;fill-rule:nonzero;fill:rgb(0%,0%,0%);fill-opacity:1;" d="M 3 19 C 2.449219 19 1.980469 18.804688 1.585938 18.414062 C 1.195312 18.019531 1 17.550781 1 17 L 1 7 C 1 6.449219 1.195312 5.980469 1.585938 5.585938 C 1.980469 5.195312 2.449219 5 3 5 L 13 5 C 13.550781 5 14.019531 5.195312 14.414062 5.585938 C 14.804688 5.980469 15 6.449219 15 7 L 15 17 C 15 17.550781 14.804688 18.019531 14.414062 18.414062 C 14.019531 18.804688 13.550781 19 13 19 Z M 18 19 C 17.714844 19 17.480469 18.902344 17.289062 18.710938 C 17.097656 18.519531 17 18.285156 17 18 L 17 6 C 17 5.714844 17.097656 5.480469 17.289062 5.289062 C 17.480469 5.097656 17.714844 5 18 5 C 18.285156 5 18.519531 5.097656 18.710938 5.289062 C 18.902344 5.480469 19 5.714844 19 6 L 19 18 C 19 18.285156 18.902344 18.519531 18.710938 18.710938 C 18.519531 18.902344 18.285156 19 18 19 Z M 22 19 C 21.714844 19 21.480469 18.902344 21.289062 18.710938 C 21.097656 18.519531 21 18.285156 21 18 L 21 6 C 21 5.714844 21.097656 5.480469 21.289062 5.289062 C 21.480469 5.097656 21.714844 5 22 5 C 22.285156 5 22.519531 5.097656 22.710938 5.289062 C 22.902344 5.480469 23 5.714844 23 6 L 23 18 C 23 18.285156 22.902344 18.519531 22.710938 18.710938 C 22.519531 18.902344 22.285156 19 22 19 Z M 22 19 "/>
</g>
</svg>
