<?xml version="1.0" encoding="UTF-8"?>
<svg xmlns="http://www.w3.org/2000/svg" xmlns:xlink="http://www.w3.org/1999/xlink" width="24px" height="24px" viewBox="0 0 24 24" version="1.1">
<g id="surface1">
<path style=" stroke:none;fill-rule:nonzero;fill:rgb(0%,0%,0%);fill-opacity:1;" d="M 8 7 C 7.714844 7 7.480469 6.902344 7.289062 6.710938 C 7.097656 6.519531 7 6.285156 7 6 C 7 5.714844 7.097656 5.480469 7.289062 5.289062 C 7.480469 5.097656 7.714844 5 8 5 L 11 5 L 11 3 C 11 2.714844 11.097656 2.480469 11.289062 2.289062 C 11.480469 2.097656 11.714844 2 12 2 C 12.285156 2 12.519531 2.097656 12.710938 2.289062 C 12.902344 2.480469 13 2.714844 13 3 L 13 5 L 16 5 C 16.285156 5 16.519531 5.097656 16.710938 5.289062 C 16.902344 5.480469 17 5.714844 17 6 C 17 6.285156 16.902344 6.519531 16.710938 6.710938 C 16.519531 6.902344 16.285156 7 16 7 Z M 9 22 C 8.449219 22 7.980469 21.804688 7.585938 21.414062 C 7.195312 21.019531 7 20.550781 7 20 L 7 18 L 11 18 C 11.285156 18 11.519531 17.902344 11.710938 17.710938 C 11.902344 17.519531 12 17.285156 12 17 C 12 16.714844 11.902344 16.480469 11.710938 16.289062 C 11.519531 16.097656 11.285156 16 11 16 L 7 16 L 7 14 L 11 14 C 11.285156 14 11.519531 13.902344 11.710938 13.710938 C 11.902344 13.519531 12 13.285156 12 13 C 12 12.714844 11.902344 12.480469 11.710938 12.289062 C 11.519531 12.097656 11.285156 12 11 12 L 7 12 L 7 11 C 7 10.167969 7.292969 9.457031 7.875 8.875 C 8.457031 8.292969 9.167969 8 10 8 L 14 8 C 14.832031 8 15.542969 8.292969 16.125 8.875 C 16.707031 9.457031 17 10.167969 17 11 L 17 20 C 17 20.550781 16.804688 21.019531 16.414062 21.414062 C 16.019531 21.804688 15.550781 22 15 22 Z M 9 22 "/>
</g>
</svg>
