<?xml version="1.0" encoding="UTF-8"?>
<svg xmlns="http://www.w3.org/2000/svg" xmlns:xlink="http://www.w3.org/1999/xlink" width="24px" height="24px" viewBox="0 0 24 24" version="1.1">
<g id="surface1">
<path style=" stroke:none;fill-rule:nonzero;fill:rgb(0%,0%,0%);fill-opacity:1;" d="M 9 20 L 9 16 C 8.148438 15.933594 7.316406 15.839844 6.5 15.726562 C 5.683594 15.609375 4.867188 15.457031 4.050781 15.273438 C 3.765625 15.207031 3.542969 15.050781 3.375 14.800781 C 3.207031 14.550781 3.167969 14.285156 3.25 14 C 3.332031 13.714844 3.503906 13.507812 3.761719 13.375 C 4.019531 13.242188 4.292969 13.207031 4.574219 13.273438 C 5.792969 13.558594 7.019531 13.75 8.261719 13.851562 C 9.503906 13.949219 10.75 14 12 14 C 13.25 14 14.496094 13.949219 15.738281 13.851562 C 16.980469 13.75 18.207031 13.558594 19.425781 13.273438 C 19.726562 13.207031 20 13.242188 20.25 13.375 C 20.5 13.507812 20.667969 13.714844 20.75 14 C 20.832031 14.285156 20.789062 14.550781 20.613281 14.800781 C 20.4375 15.050781 20.207031 15.207031 19.925781 15.273438 C 19.109375 15.457031 18.292969 15.609375 17.476562 15.726562 C 16.660156 15.839844 15.832031 15.933594 15 16 L 15 20 C 15 20.285156 14.902344 20.519531 14.710938 20.710938 C 14.519531 20.902344 14.285156 21 14 21 L 10 21 C 9.714844 21 9.480469 20.902344 9.289062 20.710938 C 9.097656 20.519531 9 20.285156 9 20 Z M 12 13 C 11.433594 13 10.957031 12.808594 10.574219 12.425781 C 10.191406 12.042969 10 11.566406 10 11 C 10 10.449219 10.191406 9.980469 10.574219 9.585938 C 10.957031 9.195312 11.433594 9 12 9 C 12.550781 9 13.019531 9.195312 13.414062 9.585938 C 13.804688 9.980469 14 10.449219 14 11 C 14 11.566406 13.804688 12.042969 13.414062 12.425781 C 13.019531 12.808594 12.550781 13 12 13 Z M 4.5 10 C 4.066406 10 3.707031 9.859375 3.425781 9.574219 C 3.140625 9.292969 3 8.933594 3 8.5 C 3 8.082031 3.140625 7.730469 3.425781 7.4375 C 3.707031 7.144531 4.066406 7 4.5 7 C 4.917969 7 5.269531 7.144531 5.5625 7.4375 C 5.855469 7.730469 6 8.082031 6 8.5 C 6 8.933594 5.855469 9.292969 5.5625 9.574219 C 5.269531 9.859375 4.917969 10 4.5 10 Z M 19.5 10 C 19.066406 10 18.707031 9.859375 18.425781 9.574219 C 18.140625 9.292969 18 8.933594 18 8.5 C 18 8.082031 18.140625 7.730469 18.425781 7.4375 C 18.707031 7.144531 19.066406 7 19.5 7 C 19.917969 7 20.269531 7.144531 20.5625 7.4375 C 20.855469 7.730469 21 8.082031 21 8.5 C 21 8.933594 20.855469 9.292969 20.5625 9.574219 C 20.269531 9.859375 19.917969 10 19.5 10 Z M 7.25 6.25 C 6.816406 6.25 6.457031 6.109375 6.175781 5.824219 C 5.890625 5.542969 5.75 5.183594 5.75 4.75 C 5.75 4.332031 5.890625 3.980469 6.175781 3.6875 C 6.457031 3.394531 6.816406 3.25 7.25 3.25 C 7.667969 3.25 8.019531 3.394531 8.3125 3.6875 C 8.605469 3.980469 8.75 4.332031 8.75 4.75 C 8.75 5.183594 8.605469 5.542969 8.3125 5.824219 C 8.019531 6.109375 7.667969 6.25 7.25 6.25 Z M 16.75 6.25 C 16.316406 6.25 15.957031 6.109375 15.675781 5.824219 C 15.390625 5.542969 15.25 5.183594 15.25 4.75 C 15.25 4.332031 15.390625 3.980469 15.675781 3.6875 C 15.957031 3.394531 16.316406 3.25 16.75 3.25 C 17.167969 3.25 17.519531 3.394531 17.8125 3.6875 C 18.105469 3.980469 18.25 4.332031 18.25 4.75 C 18.25 5.183594 18.105469 5.542969 17.8125 5.824219 C 17.519531 6.109375 17.167969 6.25 16.75 6.25 Z M 12 5 C 11.566406 5 11.207031 4.859375 10.925781 4.574219 C 10.640625 4.292969 10.5 3.933594 10.5 3.5 C 10.5 3.082031 10.640625 2.730469 10.925781 2.4375 C 11.207031 2.144531 11.566406 2 12 2 C 12.417969 2 12.769531 2.144531 13.0625 2.4375 C 13.355469 2.730469 13.5 3.082031 13.5 3.5 C 13.5 3.933594 13.355469 4.292969 13.0625 4.574219 C 12.769531 4.859375 12.417969 5 12 5 Z M 12 5 "/>
</g>
</svg>
