<?xml version="1.0" encoding="UTF-8"?>
<svg xmlns="http://www.w3.org/2000/svg" xmlns:xlink="http://www.w3.org/1999/xlink" width="24px" height="24px" viewBox="0 0 24 24" version="1.1">
<g id="surface1">
<path style=" stroke:none;fill-rule:nonzero;fill:rgb(0%,0%,0%);fill-opacity:1;" d="M 14.625 21.925781 C 14.792969 21.992188 14.953125 22.011719 15.113281 21.988281 C 15.269531 21.960938 15.417969 21.910156 15.550781 21.824219 C 15.683594 21.742188 15.792969 21.628906 15.875 21.488281 C 15.957031 21.347656 16 21.183594 16 21 L 16 18 C 16 17.714844 15.902344 17.480469 15.710938 17.289062 C 15.519531 17.097656 15.285156 17 15 17 L 9.375 17 C 8.992188 17 8.679688 17.117188 8.4375 17.351562 C 8.195312 17.582031 8.050781 17.851562 8 18.148438 C 7.949219 18.449219 7.996094 18.742188 8.136719 19.023438 C 8.277344 19.308594 8.535156 19.515625 8.898438 19.648438 Z M 19.226562 11 C 19.707031 11 20.125 11.164062 20.476562 11.488281 C 20.824219 11.8125 21 12.214844 21 12.699219 C 21 13.082031 20.890625 13.433594 20.675781 13.75 C 20.457031 14.066406 20.167969 14.292969 19.800781 14.425781 L 18 15 L 9.375 15 C 8.425781 15 7.625 15.324219 6.976562 15.976562 C 6.324219 16.625 6 17.425781 6 18.375 C 6 18.675781 6.042969 18.960938 6.125 19.238281 C 6.207031 19.511719 6.316406 19.765625 6.449219 20 L 4 20 C 3.714844 20 3.480469 19.902344 3.289062 19.710938 C 3.097656 19.519531 3 19.285156 3 19 L 3 16 C 3 14.617188 3.488281 13.4375 4.460938 12.460938 C 5.4375 11.488281 6.617188 11 8 11 Z M 10 2 C 11.101562 2 12.042969 2.390625 12.824219 3.175781 C 13.609375 3.957031 14 4.898438 14 6 C 14 7.101562 13.609375 8.042969 12.824219 8.824219 C 12.042969 9.609375 11.101562 10 10 10 C 8.898438 10 7.957031 9.609375 7.175781 8.824219 C 6.390625 8.042969 6 7.101562 6 6 C 6 4.898438 6.390625 3.957031 7.175781 3.175781 C 7.957031 2.390625 8.898438 2 10 2 Z M 10 2 "/>
</g>
</svg>
