<?xml version="1.0" encoding="UTF-8"?>
<svg xmlns="http://www.w3.org/2000/svg" xmlns:xlink="http://www.w3.org/1999/xlink" width="24px" height="24px" viewBox="0 0 24 24" version="1.1">
<g id="surface1">
<path style=" stroke:none;fill-rule:nonzero;fill:rgb(0%,0%,0%);fill-opacity:1;" d="M 17.351562 14.601562 L 9.398438 6.648438 L 11.398438 4.648438 C 11.933594 4.117188 12.542969 3.707031 13.226562 3.425781 C 13.910156 3.140625 14.625 3 15.375 3 C 16.941406 3 18.269531 3.546875 19.363281 4.636719 C 20.453125 5.730469 21 7.058594 21 8.625 C 21 9.375 20.859375 10.089844 20.574219 10.773438 C 20.292969 11.457031 19.882812 12.066406 19.351562 12.601562 Z M 14.523438 17.425781 L 12.601562 19.351562 C 12.066406 19.882812 11.457031 20.292969 10.773438 20.574219 C 10.089844 20.859375 9.375 21 8.625 21 C 7.058594 21 5.730469 20.453125 4.636719 19.363281 C 3.546875 18.269531 3 16.941406 3 15.375 C 3 14.625 3.140625 13.910156 3.425781 13.226562 C 3.707031 12.542969 4.117188 11.933594 4.648438 11.398438 L 6.574219 9.476562 L 2.101562 5 C 1.917969 4.816406 1.824219 4.582031 1.824219 4.300781 C 1.824219 4.015625 1.917969 3.785156 2.101562 3.601562 C 2.285156 3.417969 2.515625 3.324219 2.800781 3.324219 C 3.082031 3.324219 3.316406 3.417969 3.5 3.601562 L 20.5 20.601562 C 20.683594 20.785156 20.773438 21.015625 20.773438 21.300781 C 20.773438 21.582031 20.683594 21.816406 20.5 22 C 20.316406 22.183594 20.082031 22.273438 19.800781 22.273438 C 19.515625 22.273438 19.285156 22.183594 19.101562 22 Z M 14.523438 17.425781 "/>
</g>
</svg>
