<?xml version="1.0" encoding="UTF-8"?>
<svg xmlns="http://www.w3.org/2000/svg" xmlns:xlink="http://www.w3.org/1999/xlink" width="24px" height="24px" viewBox="0 0 24 24" version="1.1">
<g id="surface1">
<path style=" stroke:none;fill-rule:nonzero;fill:rgb(0%,0%,0%);fill-opacity:1;" d="M 3 11 C 2.714844 11 2.480469 10.902344 2.289062 10.710938 C 2.097656 10.519531 2 10.285156 2 10 C 2 9.714844 2.097656 9.480469 2.289062 9.289062 C 2.480469 9.097656 2.714844 9 3 9 L 5.601562 9 L 2 5.425781 C 1.800781 5.226562 1.699219 4.988281 1.699219 4.710938 C 1.699219 4.4375 1.800781 4.199219 2 4 C 2.199219 3.800781 2.4375 3.699219 2.710938 3.699219 C 2.988281 3.699219 3.226562 3.800781 3.425781 4 L 7 7.601562 L 7 5 C 7 4.714844 7.097656 4.480469 7.289062 4.289062 C 7.480469 4.097656 7.714844 4 8 4 C 8.285156 4 8.519531 4.097656 8.710938 4.289062 C 8.902344 4.480469 9 4.714844 9 5 L 9 10 C 9 10.285156 8.902344 10.519531 8.710938 10.710938 C 8.519531 10.902344 8.285156 11 8 11 Z M 4 20 C 3.449219 20 2.980469 19.804688 2.585938 19.414062 C 2.195312 19.019531 2 18.550781 2 18 L 2 14 C 2 13.714844 2.097656 13.480469 2.289062 13.289062 C 2.480469 13.097656 2.714844 13 3 13 C 3.285156 13 3.519531 13.097656 3.710938 13.289062 C 3.902344 13.480469 4 13.714844 4 14 L 4 18 L 11 18 C 11.285156 18 11.519531 18.097656 11.710938 18.289062 C 11.902344 18.480469 12 18.714844 12 19 C 12 19.285156 11.902344 19.519531 11.710938 19.710938 C 11.519531 19.902344 11.285156 20 11 20 Z M 21 13 C 20.714844 13 20.480469 12.902344 20.289062 12.710938 C 20.097656 12.519531 20 12.285156 20 12 L 20 6 L 12 6 C 11.714844 6 11.480469 5.902344 11.289062 5.710938 C 11.097656 5.519531 11 5.285156 11 5 C 11 4.714844 11.097656 4.480469 11.289062 4.289062 C 11.480469 4.097656 11.714844 4 12 4 L 20 4 C 20.550781 4 21.019531 4.195312 21.414062 4.585938 C 21.804688 4.980469 22 5.449219 22 6 L 22 12 C 22 12.285156 21.902344 12.519531 21.710938 12.710938 C 21.519531 12.902344 21.285156 13 21 13 Z M 15 20 C 14.714844 20 14.480469 19.902344 14.289062 19.710938 C 14.097656 19.519531 14 19.285156 14 19 L 14 16 C 14 15.714844 14.097656 15.480469 14.289062 15.289062 C 14.480469 15.097656 14.714844 15 15 15 L 21 15 C 21.285156 15 21.519531 15.097656 21.710938 15.289062 C 21.902344 15.480469 22 15.714844 22 16 L 22 19 C 22 19.285156 21.902344 19.519531 21.710938 19.710938 C 21.519531 19.902344 21.285156 20 21 20 Z M 15 20 "/>
</g>
</svg>
