<?xml version="1.0" encoding="UTF-8"?>
<svg xmlns="http://www.w3.org/2000/svg" xmlns:xlink="http://www.w3.org/1999/xlink" width="24px" height="24px" viewBox="0 0 24 24" version="1.1">
<g id="surface1">
<path style=" stroke:none;fill-rule:nonzero;fill:rgb(0%,0%,0%);fill-opacity:1;" d="M 3.699219 11 C 3.316406 11 3.027344 10.835938 2.835938 10.511719 C 2.644531 10.1875 2.640625 9.859375 2.824219 9.523438 L 6.125 3.574219 C 6.308594 3.242188 6.601562 3.074219 7 3.074219 C 7.398438 3.074219 7.691406 3.242188 7.875 3.574219 L 11.175781 9.523438 C 11.359375 9.859375 11.355469 10.1875 11.164062 10.511719 C 10.972656 10.835938 10.683594 11 10.300781 11 Z M 7 21 C 5.898438 21 4.957031 20.609375 4.175781 19.824219 C 3.390625 19.042969 3 18.101562 3 17 C 3 15.898438 3.390625 14.957031 4.175781 14.175781 C 4.957031 13.390625 5.898438 13 7 13 C 8.101562 13 9.042969 13.390625 9.824219 14.175781 C 10.609375 14.957031 11 15.898438 11 17 C 11 18.101562 10.609375 19.042969 9.824219 19.824219 C 9.042969 20.609375 8.101562 21 7 21 Z M 14 21 C 13.714844 21 13.480469 20.902344 13.289062 20.710938 C 13.097656 20.519531 13 20.285156 13 20 L 13 14 C 13 13.714844 13.097656 13.480469 13.289062 13.289062 C 13.480469 13.097656 13.714844 13 14 13 L 20 13 C 20.285156 13 20.519531 13.097656 20.710938 13.289062 C 20.902344 13.480469 21 13.714844 21 14 L 21 20 C 21 20.285156 20.902344 20.519531 20.710938 20.710938 C 20.519531 20.902344 20.285156 21 20 21 Z M 15.601562 6.5 L 13.699219 4.601562 C 13.515625 4.417969 13.425781 4.183594 13.425781 3.898438 C 13.425781 3.617188 13.515625 3.382812 13.699219 3.199219 C 13.882812 3.015625 14.117188 2.925781 14.398438 2.925781 C 14.683594 2.925781 14.917969 3.015625 15.101562 3.199219 L 17 5.101562 L 18.898438 3.199219 C 19.082031 3.015625 19.316406 2.925781 19.601562 2.925781 C 19.882812 2.925781 20.117188 3.015625 20.300781 3.199219 C 20.484375 3.382812 20.574219 3.617188 20.574219 3.898438 C 20.574219 4.183594 20.484375 4.417969 20.300781 4.601562 L 18.398438 6.5 L 20.300781 8.398438 C 20.484375 8.582031 20.574219 8.816406 20.574219 9.101562 C 20.574219 9.382812 20.484375 9.617188 20.300781 9.800781 C 20.117188 9.984375 19.882812 10.074219 19.601562 10.074219 C 19.316406 10.074219 19.082031 9.984375 18.898438 9.800781 L 17 7.898438 L 15.101562 9.800781 C 14.917969 9.984375 14.683594 10.074219 14.398438 10.074219 C 14.117188 10.074219 13.882812 9.984375 13.699219 9.800781 C 13.515625 9.617188 13.425781 9.382812 13.425781 9.101562 C 13.425781 8.816406 13.515625 8.582031 13.699219 8.398438 Z M 15.601562 6.5 "/>
</g>
</svg>
