<?xml version="1.0" encoding="UTF-8"?>
<svg xmlns="http://www.w3.org/2000/svg" xmlns:xlink="http://www.w3.org/1999/xlink" width="24px" height="24px" viewBox="0 0 24 24" version="1.1">
<g id="surface1">
<path style=" stroke:none;fill-rule:nonzero;fill:rgb(0%,0%,0%);fill-opacity:1;" d="M 7 21 C 6.714844 21 6.480469 20.902344 6.289062 20.710938 C 6.097656 20.519531 6 20.285156 6 20 L 6 17 L 3 17 C 2.714844 17 2.480469 16.902344 2.289062 16.710938 C 2.097656 16.519531 2 16.285156 2 16 L 2 11 C 2 10.148438 2.292969 9.4375 2.875 8.863281 C 3.457031 8.289062 4.167969 8 5 8 L 19 8 C 19.851562 8 20.5625 8.289062 21.136719 8.863281 C 21.710938 9.4375 22 10.148438 22 11 L 22 11.75 C 21.550781 11.515625 21.078125 11.332031 20.585938 11.199219 C 20.097656 11.066406 19.589844 11 19.074219 11 C 17.773438 11 16.597656 11.367188 15.539062 12.101562 C 14.480469 12.832031 13.714844 13.800781 13.25 15 L 8 15 L 8 19 L 13.101562 19 C 13.214844 19.367188 13.359375 19.714844 13.523438 20.050781 C 13.691406 20.382812 13.890625 20.699219 14.125 21 Z M 6 7 L 6 5 C 6 4.449219 6.195312 3.980469 6.585938 3.585938 C 6.980469 3.195312 7.449219 3 8 3 L 16 3 C 16.550781 3 17.019531 3.195312 17.414062 3.585938 C 17.804688 3.980469 18 4.449219 18 5 L 18 7 Z M 18 18 L 16 18 C 15.714844 18 15.480469 17.902344 15.289062 17.710938 C 15.097656 17.519531 15 17.285156 15 17 C 15 16.714844 15.097656 16.480469 15.289062 16.289062 C 15.480469 16.097656 15.714844 16 16 16 L 18 16 L 18 14 C 18 13.714844 18.097656 13.480469 18.289062 13.289062 C 18.480469 13.097656 18.714844 13 19 13 C 19.285156 13 19.519531 13.097656 19.710938 13.289062 C 19.902344 13.480469 20 13.714844 20 14 L 20 16 L 22 16 C 22.285156 16 22.519531 16.097656 22.710938 16.289062 C 22.902344 16.480469 23 16.714844 23 17 C 23 17.285156 22.902344 17.519531 22.710938 17.710938 C 22.519531 17.902344 22.285156 18 22 18 L 20 18 L 20 20 C 20 20.285156 19.902344 20.519531 19.710938 20.710938 C 19.519531 20.902344 19.285156 21 19 21 C 18.714844 21 18.480469 20.902344 18.289062 20.710938 C 18.097656 20.519531 18 20.285156 18 20 Z M 18 18 "/>
</g>
</svg>
