<?xml version="1.0" encoding="UTF-8"?>
<svg xmlns="http://www.w3.org/2000/svg" xmlns:xlink="http://www.w3.org/1999/xlink" width="24px" height="24px" viewBox="0 0 24 24" version="1.1">
<g id="surface1">
<path style=" stroke:none;fill-rule:nonzero;fill:rgb(0%,0%,0%);fill-opacity:1;" d="M 19 21 C 18.714844 21 18.480469 20.902344 18.289062 20.710938 C 18.097656 20.519531 18 20.285156 18 20 C 18 19.714844 18.097656 19.480469 18.289062 19.289062 C 18.480469 19.097656 18.714844 19 19 19 C 19.285156 19 19.519531 19.097656 19.710938 19.289062 C 19.902344 19.480469 20 19.714844 20 20 C 20 20.285156 19.902344 20.519531 19.710938 20.710938 C 19.519531 20.902344 19.285156 21 19 21 Z M 19 17 C 18.714844 17 18.480469 16.902344 18.289062 16.710938 C 18.097656 16.519531 18 16.285156 18 16 L 18 13 C 18 12.714844 18.097656 12.480469 18.289062 12.289062 C 18.480469 12.097656 18.714844 12 19 12 C 19.285156 12 19.519531 12.097656 19.710938 12.289062 C 19.902344 12.480469 20 12.714844 20 13 L 20 16 C 20 16.285156 19.902344 16.519531 19.710938 16.710938 C 19.519531 16.902344 19.285156 17 19 17 Z M 7 21 C 6.714844 21 6.480469 20.902344 6.289062 20.710938 C 6.097656 20.519531 6 20.285156 6 20 L 6 17 L 3 17 C 2.714844 17 2.480469 16.902344 2.289062 16.710938 C 2.097656 16.519531 2 16.285156 2 16 L 2 11 C 2 10.148438 2.292969 9.4375 2.875 8.863281 C 3.457031 8.289062 4.167969 8 5 8 L 19 8 C 19.667969 8 20.253906 8.1875 20.761719 8.5625 C 21.269531 8.9375 21.625 9.417969 21.824219 10 L 18 10 C 17.449219 10 16.980469 10.195312 16.585938 10.585938 C 16.195312 10.980469 16 11.449219 16 12 L 16 15 L 8 15 L 8 19 L 16 19 L 16 21 Z M 6 7 L 6 5 C 6 4.449219 6.195312 3.980469 6.585938 3.585938 C 6.980469 3.195312 7.449219 3 8 3 L 16 3 C 16.550781 3 17.019531 3.195312 17.414062 3.585938 C 17.804688 3.980469 18 4.449219 18 5 L 18 7 Z M 6 7 "/>
</g>
</svg>
