<?xml version="1.0" encoding="UTF-8"?>
<svg xmlns="http://www.w3.org/2000/svg" xmlns:xlink="http://www.w3.org/1999/xlink" width="24px" height="24px" viewBox="0 0 24 24" version="1.1">
<g id="surface1">
<path style=" stroke:none;fill-rule:nonzero;fill:rgb(0%,0%,0%);fill-opacity:1;" d="M 16.5 19 C 17.199219 19 17.792969 18.757812 18.273438 18.273438 C 18.757812 17.792969 19 17.199219 19 16.5 C 19 15.800781 18.757812 15.207031 18.273438 14.726562 C 17.792969 14.242188 17.199219 14 16.5 14 C 15.800781 14 15.207031 14.242188 14.726562 14.726562 C 14.242188 15.207031 14 15.800781 14 16.5 C 14 17.199219 14.242188 17.792969 14.726562 18.273438 C 15.207031 18.757812 15.800781 19 16.5 19 Z M 22.300781 22.300781 C 22.117188 22.484375 21.882812 22.574219 21.601562 22.574219 C 21.316406 22.574219 21.082031 22.484375 20.898438 22.300781 L 18.898438 20.300781 C 18.550781 20.535156 18.171875 20.707031 17.761719 20.824219 C 17.355469 20.941406 16.933594 21 16.5 21 C 15.25 21 14.1875 20.5625 13.3125 19.6875 C 12.4375 18.8125 12 17.75 12 16.5 C 12 15.25 12.4375 14.1875 13.3125 13.3125 C 14.1875 12.4375 15.25 12 16.5 12 C 17.75 12 18.8125 12.4375 19.6875 13.3125 C 20.5625 14.1875 21 15.25 21 16.5 C 21 16.933594 20.941406 17.355469 20.824219 17.761719 C 20.707031 18.171875 20.535156 18.550781 20.300781 18.898438 L 22.300781 20.898438 C 22.484375 21.082031 22.574219 21.316406 22.574219 21.601562 C 22.574219 21.882812 22.484375 22.117188 22.300781 22.300781 Z M 5 22 C 4.449219 22 3.980469 21.804688 3.585938 21.414062 C 3.195312 21.019531 3 20.550781 3 20 L 3 4 C 3 3.449219 3.195312 2.980469 3.585938 2.585938 C 3.980469 2.195312 4.449219 2 5 2 L 12.175781 2 C 12.441406 2 12.695312 2.050781 12.9375 2.148438 C 13.179688 2.25 13.390625 2.390625 13.574219 2.574219 L 18.425781 7.425781 C 18.609375 7.609375 18.75 7.820312 18.851562 8.0625 C 18.949219 8.304688 19 8.558594 19 8.824219 L 19 10.5 C 18.601562 10.332031 18.191406 10.207031 17.773438 10.125 C 17.359375 10.042969 16.933594 10 16.5 10 C 15.566406 10 14.695312 10.175781 13.886719 10.523438 C 13.078125 10.875 12.382812 11.367188 11.800781 12 L 8 12 C 7.867188 12 7.738281 12.023438 7.613281 12.074219 C 7.488281 12.125 7.378906 12.195312 7.289062 12.289062 C 7.195312 12.378906 7.125 12.488281 7.074219 12.613281 C 7.023438 12.738281 7 12.867188 7 13 C 7 13.285156 7.097656 13.519531 7.289062 13.710938 C 7.480469 13.902344 7.714844 14 8 14 L 10.5 14 C 10.367188 14.316406 10.261719 14.640625 10.1875 14.976562 C 10.113281 15.308594 10.058594 15.648438 10.023438 16 L 8 16 C 7.714844 16 7.480469 16.097656 7.289062 16.289062 C 7.097656 16.480469 7 16.714844 7 17 C 7 17.285156 7.097656 17.519531 7.289062 17.710938 C 7.480469 17.902344 7.714844 18 8 18 L 10.175781 18 C 10.359375 18.832031 10.691406 19.597656 11.175781 20.289062 C 11.660156 20.980469 12.273438 21.550781 13.023438 22 Z M 12 4 L 12 8 C 12 8.285156 12.097656 8.519531 12.289062 8.710938 C 12.480469 8.902344 12.714844 9 13 9 L 17 9 L 12 4 L 17 9 Z M 12 4 "/>
</g>
</svg>
