<svg xmlns="http://www.w3.org/2000/svg" width="24" height="24" viewBox="0 0 24 24"><path d="M4 22q-.825 0-1.413-.588T2 20V4q0-.825.588-1.413T4 2h16q.825 0 1.413.588T22 4v16q0 .825-.588 1.413T20 22H4Zm0-6v4h2v-2h-.5q-.2 0-.35-.15T5 17.5V16H4Zm0-2h1q0-.425.288-.713T6 13v-2.5q0-.625.438-1.063T7.5 9h2q.625 0 1.063.438T11 10.5V13q.425 0 .713.288T12 14h8V4H4v10Zm4.5-6q-.625 0-1.063-.438T7 6.5q0-.625.438-1.063T8.5 5q.625 0 1.063.438T10 6.5q0 .625-.438 1.063T8.5 8ZM8 20h1v-2H8v2Zm3 0h9v-4h-8v1.5q0 .2-.15.35t-.35.15H11v2Zm.75-12.025q-.375-.475-.563-.95T11 6.05v-.3q.025-.325.263-.538T11.85 5q.275 0 .475.225t.175.525v.3q0 .275.113.537T13 7.15q.45.55.65 1.038t.2 1.012q0 .35-.25.575T13 10q-.3 0-.488-.238t-.187-.562q0-.3-.112-.55t-.463-.675Zm2.5 0q-.375-.475-.563-.95T13.5 6.05v-.3q.025-.325.263-.538T14.35 5q.275 0 .475.225T15 5.75v.3q0 .275.113.537t.387.563q.45.55.65 1.038t.2 1.012q0 .35-.25.575t-.6.225q-.3 0-.488-.238t-.187-.562q0-.3-.112-.55t-.463-.675Zm2.55 0q-.375-.475-.563-.95t-.187-.975v-.3q.025-.325.263-.538T16.9 5q.275 0 .475.225t.175.525v.3q0 .275.113.537t.387.563q.45.55.65 1.038t.2 1.012q0 .35-.25.575t-.6.225q-.3 0-.488-.238t-.187-.562q0-.3-.113-.55t-.462-.675Z"/></svg>