<?xml version="1.0" encoding="UTF-8"?>
<svg xmlns="http://www.w3.org/2000/svg" xmlns:xlink="http://www.w3.org/1999/xlink" width="24px" height="24px" viewBox="0 0 24 24" version="1.1">
<g id="surface1">
<path style=" stroke:none;fill-rule:nonzero;fill:rgb(0%,0%,0%);fill-opacity:1;" d="M 12 17 C 10.617188 17 9.4375 16.511719 8.460938 15.539062 C 7.488281 14.5625 7 13.382812 7 12 C 7 10.617188 7.488281 9.4375 8.460938 8.460938 C 9.4375 7.488281 10.617188 7 12 7 C 13.382812 7 14.5625 7.488281 15.539062 8.460938 C 16.511719 9.4375 17 10.617188 17 12 C 17 13.382812 16.511719 14.5625 15.539062 15.539062 C 14.5625 16.511719 13.382812 17 12 17 Z M 20 12 C 20 11.300781 19.917969 10.625 19.75 9.976562 C 19.582031 9.324219 19.339844 8.707031 19.023438 8.125 C 18.890625 7.875 18.835938 7.609375 18.863281 7.324219 C 18.886719 7.042969 19.015625 6.816406 19.25 6.648438 C 19.484375 6.484375 19.742188 6.433594 20.023438 6.5 C 20.308594 6.566406 20.515625 6.714844 20.648438 6.949219 C 21.082031 7.699219 21.417969 8.496094 21.648438 9.335938 C 21.882812 10.179688 22 11.066406 22 12 C 22 12.933594 21.878906 13.824219 21.636719 14.675781 C 21.394531 15.523438 21.058594 16.324219 20.625 17.074219 C 20.492188 17.308594 20.289062 17.453125 20.011719 17.511719 C 19.738281 17.570312 19.484375 17.515625 19.25 17.351562 C 19.015625 17.183594 18.882812 16.957031 18.851562 16.675781 C 18.816406 16.390625 18.867188 16.125 19 15.875 C 19.316406 15.292969 19.5625 14.679688 19.738281 14.039062 C 19.914062 13.394531 20 12.714844 20 12 Z M 12 4 C 11.285156 4 10.605469 4.085938 9.960938 4.261719 C 9.320312 4.4375 8.707031 4.683594 8.125 5 C 7.875 5.132812 7.609375 5.183594 7.324219 5.148438 C 7.042969 5.117188 6.816406 4.984375 6.648438 4.75 C 6.484375 4.515625 6.429688 4.261719 6.488281 3.988281 C 6.546875 3.710938 6.691406 3.507812 6.925781 3.375 C 7.675781 2.941406 8.476562 2.605469 9.324219 2.363281 C 10.175781 2.121094 11.066406 2 12 2 C 12.933594 2 13.824219 2.121094 14.675781 2.363281 C 15.523438 2.605469 16.324219 2.941406 17.074219 3.375 C 17.324219 3.507812 17.480469 3.710938 17.539062 3.988281 C 17.597656 4.261719 17.542969 4.515625 17.375 4.75 C 17.207031 4.984375 16.984375 5.117188 16.699219 5.148438 C 16.417969 5.183594 16.148438 5.132812 15.898438 5 C 15.316406 4.683594 14.699219 4.4375 14.050781 4.261719 C 13.398438 4.085938 12.714844 4 12 4 Z M 4 12 C 4 12.714844 4.085938 13.394531 4.261719 14.039062 C 4.4375 14.679688 4.683594 15.292969 5 15.875 C 5.132812 16.125 5.183594 16.390625 5.148438 16.675781 C 5.117188 16.957031 4.984375 17.183594 4.75 17.351562 C 4.515625 17.515625 4.261719 17.570312 3.988281 17.511719 C 3.710938 17.453125 3.507812 17.308594 3.375 17.074219 C 2.941406 16.324219 2.605469 15.523438 2.363281 14.675781 C 2.121094 13.824219 2 12.933594 2 12 C 2 11.066406 2.117188 10.179688 2.351562 9.335938 C 2.582031 8.496094 2.917969 7.699219 3.351562 6.949219 C 3.484375 6.714844 3.691406 6.566406 3.976562 6.5 C 4.257812 6.433594 4.515625 6.484375 4.75 6.648438 C 4.984375 6.816406 5.113281 7.042969 5.136719 7.324219 C 5.164062 7.609375 5.109375 7.875 4.976562 8.125 C 4.660156 8.707031 4.417969 9.324219 4.25 9.976562 C 4.082031 10.625 4 11.300781 4 12 Z M 12 20 C 12.699219 20 13.375 19.917969 14.023438 19.75 C 14.675781 19.582031 15.292969 19.339844 15.875 19.023438 C 16.125 18.890625 16.386719 18.839844 16.664062 18.875 C 16.9375 18.910156 17.160156 19.042969 17.324219 19.273438 C 17.492188 19.507812 17.546875 19.761719 17.488281 20.039062 C 17.429688 20.3125 17.285156 20.515625 17.050781 20.648438 C 16.300781 21.082031 15.503906 21.417969 14.664062 21.648438 C 13.820312 21.882812 12.933594 22 12 22 C 11.066406 22 10.179688 21.882812 9.335938 21.648438 C 8.496094 21.417969 7.699219 21.082031 6.949219 20.648438 C 6.714844 20.515625 6.566406 20.308594 6.5 20.023438 C 6.433594 19.742188 6.484375 19.484375 6.648438 19.25 C 6.816406 19.015625 7.042969 18.886719 7.324219 18.863281 C 7.609375 18.835938 7.875 18.890625 8.125 19.023438 C 8.707031 19.339844 9.324219 19.582031 9.976562 19.75 C 10.625 19.917969 11.300781 20 12 20 Z M 12 20 "/>
</g>
</svg>
