<?xml version="1.0" encoding="UTF-8"?>
<svg xmlns="http://www.w3.org/2000/svg" xmlns:xlink="http://www.w3.org/1999/xlink" width="24px" height="24px" viewBox="0 0 24 24" version="1.1">
<g id="surface1">
<path style=" stroke:none;fill-rule:nonzero;fill:rgb(0%,0%,0%);fill-opacity:1;" d="M 12 16 C 13.101562 16 14.042969 15.609375 14.824219 14.824219 C 15.609375 14.042969 16 13.101562 16 12 C 16 10.898438 15.609375 9.957031 14.824219 9.175781 C 14.042969 8.390625 13.101562 8 12 8 C 10.898438 8 9.957031 8.390625 9.175781 9.175781 C 8.390625 9.957031 8 10.898438 8 12 C 8 13.101562 8.390625 14.042969 9.175781 14.824219 C 9.957031 15.609375 10.898438 16 12 16 Z M 4 20 C 3.449219 20 2.980469 19.804688 2.585938 19.414062 C 2.195312 19.019531 2 18.550781 2 18 L 2 6 C 2 5.449219 2.195312 4.980469 2.585938 4.585938 C 2.980469 4.195312 3.449219 4 4 4 L 20 4 C 20.550781 4 21.019531 4.195312 21.414062 4.585938 C 21.804688 4.980469 22 5.449219 22 6 L 22 18 C 22 18.550781 21.804688 19.019531 21.414062 19.414062 C 21.019531 19.804688 20.550781 20 20 20 Z M 4 20 "/>
</g>
</svg>
