<?xml version="1.0" encoding="UTF-8"?>
<svg xmlns="http://www.w3.org/2000/svg" xmlns:xlink="http://www.w3.org/1999/xlink" width="24px" height="24px" viewBox="0 0 24 24" version="1.1">
<g id="surface1">
<path style=" stroke:none;fill-rule:nonzero;fill:rgb(0%,0%,0%);fill-opacity:1;" d="M 5 7 L 5 4 C 5 3.449219 5.195312 2.980469 5.585938 2.585938 C 5.980469 2.195312 6.449219 2 7 2 L 10 2 L 10 4 L 7 4 L 7 7 Z M 7 22 C 6.449219 22 5.980469 21.804688 5.585938 21.414062 C 5.195312 21.019531 5 20.550781 5 20 L 5 17 L 7 17 L 7 20 L 10 20 L 10 22 Z M 17 7 L 17 4 L 14 4 L 14 2 L 17 2 C 17.550781 2 18.019531 2.195312 18.414062 2.585938 C 18.804688 2.980469 19 3.449219 19 4 L 19 7 Z M 14 22 L 14 20 L 17 20 L 17 17 L 19 17 L 19 20 C 19 20.550781 18.804688 21.019531 18.414062 21.414062 C 18.019531 21.804688 17.550781 22 17 22 Z M 14 22 "/>
</g>
</svg>
