<?xml version="1.0" encoding="UTF-8"?>
<svg xmlns="http://www.w3.org/2000/svg" xmlns:xlink="http://www.w3.org/1999/xlink" width="24px" height="24px" viewBox="0 0 24 24" version="1.1">
<g id="surface1">
<path style=" stroke:none;fill-rule:nonzero;fill:rgb(0%,0%,0%);fill-opacity:1;" d="M 12 17.5 C 12.566406 17.5 13.101562 17.394531 13.601562 17.1875 C 14.101562 16.980469 14.566406 16.683594 15 16.300781 C 15.148438 16.167969 15.226562 15.992188 15.226562 15.773438 C 15.226562 15.558594 15.148438 15.382812 15 15.25 C 14.851562 15.117188 14.671875 15.050781 14.460938 15.050781 C 14.253906 15.050781 14.066406 15.117188 13.898438 15.25 C 13.617188 15.464844 13.316406 15.640625 13 15.773438 C 12.683594 15.910156 12.351562 15.976562 12 15.976562 C 11.648438 15.976562 11.316406 15.910156 11 15.773438 C 10.683594 15.640625 10.382812 15.464844 10.101562 15.25 C 9.933594 15.117188 9.746094 15.050781 9.539062 15.050781 C 9.328125 15.050781 9.148438 15.117188 9 15.25 C 8.851562 15.382812 8.773438 15.558594 8.773438 15.773438 C 8.773438 15.992188 8.851562 16.167969 9 16.300781 C 9.433594 16.667969 9.898438 16.957031 10.398438 17.175781 C 10.898438 17.390625 11.433594 17.5 12 17.5 Z M 12 22 C 10.617188 22 9.316406 21.738281 8.101562 21.210938 C 6.882812 20.6875 5.824219 19.976562 4.925781 19.074219 C 4.023438 18.175781 3.3125 17.117188 2.789062 15.898438 C 2.261719 14.683594 2 13.382812 2 12 C 2 10.617188 2.261719 9.316406 2.789062 8.101562 C 3.3125 6.882812 4.023438 5.824219 4.925781 4.925781 C 5.824219 4.023438 6.882812 3.3125 8.101562 2.789062 C 9.316406 2.261719 10.617188 2 12 2 C 13.382812 2 14.683594 2.261719 15.898438 2.789062 C 17.117188 3.3125 18.175781 4.023438 19.074219 4.925781 C 19.976562 5.824219 20.6875 6.882812 21.210938 8.101562 C 21.738281 9.316406 22 10.617188 22 12 C 22 13.382812 21.738281 14.683594 21.210938 15.898438 C 20.6875 17.117188 19.976562 18.175781 19.074219 19.074219 C 18.175781 19.976562 17.117188 20.6875 15.898438 21.210938 C 14.683594 21.738281 13.382812 22 12 22 Z M 8.5 12 C 9.066406 12 9.566406 11.816406 10 11.449219 C 10.433594 11.082031 10.765625 10.632812 11 10.101562 C 11.082031 9.917969 11.070312 9.742188 10.960938 9.574219 C 10.855469 9.410156 10.699219 9.300781 10.5 9.25 C 10.316406 9.199219 10.132812 9.222656 9.949219 9.3125 C 9.765625 9.402344 9.632812 9.542969 9.550781 9.726562 C 9.433594 9.941406 9.289062 10.125 9.113281 10.273438 C 8.9375 10.425781 8.734375 10.5 8.5 10.5 C 8.265625 10.5 8.058594 10.421875 7.875 10.261719 C 7.691406 10.105469 7.550781 9.917969 7.449219 9.699219 C 7.367188 9.515625 7.234375 9.382812 7.050781 9.300781 C 6.867188 9.214844 6.683594 9.199219 6.5 9.25 C 6.300781 9.300781 6.144531 9.402344 6.039062 9.5625 C 5.929688 9.722656 5.917969 9.890625 6 10.074219 C 6.234375 10.609375 6.5625 11.0625 6.988281 11.4375 C 7.414062 11.8125 7.917969 12 8.5 12 Z M 15.5 12 C 16.066406 12 16.566406 11.816406 17 11.449219 C 17.433594 11.082031 17.765625 10.632812 18 10.101562 C 18.082031 9.917969 18.070312 9.742188 17.960938 9.574219 C 17.855469 9.410156 17.699219 9.300781 17.5 9.25 C 17.316406 9.199219 17.132812 9.222656 16.949219 9.3125 C 16.765625 9.402344 16.632812 9.542969 16.550781 9.726562 C 16.433594 9.941406 16.289062 10.125 16.113281 10.273438 C 15.9375 10.425781 15.734375 10.5 15.5 10.5 C 15.265625 10.5 15.058594 10.421875 14.875 10.261719 C 14.691406 10.105469 14.550781 9.917969 14.449219 9.699219 C 14.367188 9.515625 14.234375 9.382812 14.050781 9.300781 C 13.867188 9.214844 13.683594 9.199219 13.5 9.25 C 13.300781 9.300781 13.144531 9.402344 13.039062 9.5625 C 12.929688 9.722656 12.917969 9.890625 13 10.074219 C 13.234375 10.609375 13.5625 11.0625 13.988281 11.4375 C 14.414062 11.8125 14.917969 12 15.5 12 Z M 15.5 12 "/>
</g>
</svg>
