<?xml version="1.0" encoding="UTF-8"?>
<svg xmlns="http://www.w3.org/2000/svg" xmlns:xlink="http://www.w3.org/1999/xlink" width="24px" height="24px" viewBox="0 0 24 24" version="1.1">
<g id="surface1">
<path style=" stroke:none;fill-rule:nonzero;fill:rgb(0%,0%,0%);fill-opacity:1;" d="M 8 20 L 8 13 L 5.101562 13 C 4.667969 13 4.363281 12.8125 4.1875 12.4375 C 4.011719 12.0625 4.058594 11.707031 4.324219 11.375 L 11.226562 2.949219 C 11.425781 2.699219 11.683594 2.574219 12 2.574219 C 12.316406 2.574219 12.574219 2.699219 12.773438 2.949219 L 19.675781 11.375 C 19.941406 11.707031 19.988281 12.0625 19.8125 12.4375 C 19.636719 12.8125 19.332031 13 18.898438 13 L 16 13 L 16 20 C 16 20.285156 15.902344 20.519531 15.710938 20.710938 C 15.519531 20.902344 15.285156 21 15 21 L 9 21 C 8.714844 21 8.480469 20.902344 8.289062 20.710938 C 8.097656 20.519531 8 20.285156 8 20 Z M 8 20 "/>
</g>
</svg>
