<?xml version="1.0" encoding="UTF-8"?>
<svg xmlns="http://www.w3.org/2000/svg" xmlns:xlink="http://www.w3.org/1999/xlink" width="24px" height="24px" viewBox="0 0 24 24" version="1.1">
<g id="surface1">
<path style=" stroke:none;fill-rule:nonzero;fill:rgb(0%,0%,0%);fill-opacity:1;" d="M 12 20 C 11.714844 20 11.480469 19.902344 11.289062 19.710938 C 11.097656 19.519531 11 19.285156 11 19 L 11 15 C 11 14.714844 11.097656 14.480469 11.289062 14.289062 C 11.480469 14.097656 11.714844 14 12 14 L 14.5 14 C 14.785156 14 15.019531 14.097656 15.210938 14.289062 C 15.402344 14.480469 15.5 14.714844 15.5 15 L 15.5 19 C 15.5 19.285156 15.402344 19.519531 15.210938 19.710938 C 15.019531 19.902344 14.785156 20 14.5 20 Z M 12.5 18.5 L 14 18.5 L 14 15.5 L 12.5 15.5 Z M 18 22 C 17.714844 22 17.480469 21.902344 17.289062 21.710938 C 17.097656 21.519531 17 21.285156 17 21 L 17 19.25 C 17 18.964844 17.097656 18.730469 17.289062 18.539062 C 17.480469 18.347656 17.714844 18.25 18 18.25 L 20 18.25 L 20 17.5 L 17.75 17.5 C 17.535156 17.5 17.355469 17.429688 17.210938 17.289062 C 17.070312 17.144531 17 16.964844 17 16.75 C 17 16.535156 17.070312 16.355469 17.210938 16.210938 C 17.355469 16.070312 17.535156 16 17.75 16 L 20.5 16 C 20.785156 16 21.019531 16.097656 21.210938 16.289062 C 21.402344 16.480469 21.5 16.714844 21.5 17 L 21.5 18.75 C 21.5 19.035156 21.402344 19.269531 21.210938 19.460938 C 21.019531 19.652344 20.785156 19.75 20.5 19.75 L 18.5 19.75 L 18.5 20.5 L 20.75 20.5 C 20.964844 20.5 21.144531 20.570312 21.289062 20.710938 C 21.429688 20.855469 21.5 21.035156 21.5 21.25 C 21.5 21.464844 21.429688 21.644531 21.289062 21.789062 C 21.144531 21.929688 20.964844 22 20.75 22 Z M 9 21.949219 C 6.949219 21.714844 5.269531 20.835938 3.960938 19.3125 C 2.652344 17.789062 2 15.949219 2 13.800781 C 2 12.714844 2.242188 11.644531 2.726562 10.585938 C 3.207031 9.527344 3.816406 8.519531 4.550781 7.5625 C 5.285156 6.605469 6.078125 5.699219 6.9375 4.851562 C 7.796875 4 8.589844 3.25 9.324219 2.601562 C 9.425781 2.515625 9.527344 2.453125 9.636719 2.414062 C 9.746094 2.371094 9.867188 2.351562 10 2.351562 C 10.132812 2.351562 10.253906 2.371094 10.363281 2.414062 C 10.472656 2.453125 10.574219 2.515625 10.675781 2.601562 C 11.359375 3.199219 12.066406 3.859375 12.800781 4.574219 C 13.535156 5.292969 14.226562 6.046875 14.875 6.835938 C 15.523438 7.628906 16.105469 8.457031 16.613281 9.324219 C 17.121094 10.191406 17.5 11.082031 17.75 12 L 11 12 C 10.449219 12 9.980469 12.195312 9.585938 12.585938 C 9.195312 12.980469 9 13.449219 9 14 Z M 9 21.949219 "/>
</g>
</svg>
