<?xml version="1.0" encoding="UTF-8"?>
<svg xmlns="http://www.w3.org/2000/svg" xmlns:xlink="http://www.w3.org/1999/xlink" width="24px" height="24px" viewBox="0 0 24 24" version="1.1">
<g id="surface1">
<path style=" stroke:none;fill-rule:nonzero;fill:rgb(0%,0%,0%);fill-opacity:1;" d="M 15 17.125 L 16.773438 18.199219 C 16.875 18.265625 16.972656 18.265625 17.0625 18.199219 C 17.152344 18.132812 17.183594 18.042969 17.148438 17.925781 L 16.675781 15.898438 L 18.226562 14.574219 C 18.308594 14.492188 18.332031 14.398438 18.300781 14.300781 C 18.265625 14.199219 18.191406 14.140625 18.074219 14.125 L 16.050781 13.949219 L 15.226562 12.023438 C 15.191406 11.925781 15.117188 11.875 15 11.875 C 14.882812 11.875 14.808594 11.925781 14.773438 12.023438 L 13.949219 13.949219 L 11.925781 14.125 C 11.808594 14.140625 11.734375 14.199219 11.699219 14.300781 C 11.667969 14.398438 11.691406 14.492188 11.773438 14.574219 L 13.324219 15.898438 L 12.851562 17.925781 C 12.816406 18.042969 12.847656 18.132812 12.9375 18.199219 C 13.027344 18.265625 13.125 18.265625 13.226562 18.199219 Z M 4 16 C 3.449219 16 2.980469 15.804688 2.585938 15.414062 C 2.195312 15.019531 2 14.550781 2 14 L 2 4 C 2 3.449219 2.195312 2.980469 2.585938 2.585938 C 2.980469 2.195312 3.449219 2 4 2 L 14 2 C 14.550781 2 15.019531 2.195312 15.414062 2.585938 C 15.804688 2.980469 16 3.449219 16 4 L 16 5 C 16 5.285156 15.902344 5.519531 15.710938 5.710938 C 15.519531 5.902344 15.285156 6 15 6 C 14.714844 6 14.480469 5.902344 14.289062 5.710938 C 14.097656 5.519531 14 5.285156 14 5 L 14 4 L 4 4 L 4 14 L 5 14 C 5.285156 14 5.519531 14.097656 5.710938 14.289062 C 5.902344 14.480469 6 14.714844 6 15 C 6 15.285156 5.902344 15.519531 5.710938 15.710938 C 5.519531 15.902344 5.285156 16 5 16 Z M 10 22 C 9.449219 22 8.980469 21.804688 8.585938 21.414062 C 8.195312 21.019531 8 20.550781 8 20 L 8 10 C 8 9.449219 8.195312 8.980469 8.585938 8.585938 C 8.980469 8.195312 9.449219 8 10 8 L 20 8 C 20.550781 8 21.019531 8.195312 21.414062 8.585938 C 21.804688 8.980469 22 9.449219 22 10 L 22 20 C 22 20.550781 21.804688 21.019531 21.414062 21.414062 C 21.019531 21.804688 20.550781 22 20 22 Z M 10 22 "/>
</g>
</svg>
