<?xml version="1.0" encoding="UTF-8"?>
<svg xmlns="http://www.w3.org/2000/svg" xmlns:xlink="http://www.w3.org/1999/xlink" width="24px" height="24px" viewBox="0 0 24 24" version="1.1">
<g id="surface1">
<path style=" stroke:none;fill-rule:nonzero;fill:rgb(0%,0%,0%);fill-opacity:1;" d="M 5.398438 9.5 L 2.199219 9.5 C 2.265625 9.265625 2.355469 9.046875 2.460938 8.835938 C 2.570312 8.628906 2.699219 8.425781 2.851562 8.226562 L 6.699219 3.074219 C 6.984375 2.691406 7.363281 2.4375 7.835938 2.3125 C 8.3125 2.1875 8.765625 2.242188 9.199219 2.476562 L 9.898438 2.824219 C 10.25 3.007812 10.519531 3.257812 10.710938 3.574219 C 10.902344 3.890625 11 4.242188 11 4.625 L 11 6.726562 L 12.851562 6.25 C 13.351562 6.117188 13.832031 6.179688 14.300781 6.4375 C 14.765625 6.695312 15.082031 7.066406 15.25 7.550781 L 16.875 12.449219 L 21.125 16.699219 C 21.457031 17.035156 21.6875 17.390625 21.8125 17.773438 C 21.9375 18.160156 22 18.566406 22 19 C 22 19.617188 21.832031 20.167969 21.5 20.648438 C 21.167969 21.132812 20.734375 21.492188 20.199219 21.726562 L 8.851562 10.875 C 8.367188 10.425781 7.832031 10.082031 7.25 9.851562 C 6.667969 9.617188 6.050781 9.5 5.398438 9.5 Z M 14.148438 22 C 13.648438 22 13.175781 21.910156 12.726562 21.726562 C 12.273438 21.542969 11.859375 21.285156 11.476562 20.949219 L 3.351562 13.574219 C 3.035156 13.292969 2.773438 12.972656 2.574219 12.613281 C 2.375 12.253906 2.234375 11.882812 2.148438 11.5 L 5.398438 11.5 C 5.785156 11.5 6.152344 11.566406 6.511719 11.699219 C 6.871094 11.832031 7.191406 12.042969 7.476562 12.324219 L 17.574219 22 Z M 14.148438 22 "/>
</g>
</svg>
