<?xml version="1.0" encoding="UTF-8"?>
<svg xmlns="http://www.w3.org/2000/svg" xmlns:xlink="http://www.w3.org/1999/xlink" width="24px" height="24px" viewBox="0 0 24 24" version="1.1">
<g id="surface1">
<path style=" stroke:none;fill-rule:nonzero;fill:rgb(0%,0%,0%);fill-opacity:1;" d="M 12 22 C 11.167969 22 10.457031 21.707031 9.875 21.125 C 9.292969 20.542969 9 19.832031 9 19 C 9 18.167969 9.292969 17.457031 9.875 16.875 C 10.457031 16.292969 11.167969 16 12 16 C 12.832031 16 13.542969 16.292969 14.125 16.875 C 14.707031 17.457031 15 18.167969 15 19 C 15 19.832031 14.707031 20.542969 14.125 21.125 C 13.542969 21.707031 12.832031 22 12 22 Z M 11 10.175781 L 11 3 C 11 2.714844 11.097656 2.480469 11.289062 2.289062 C 11.480469 2.097656 11.714844 2 12 2 C 12.285156 2 12.519531 2.097656 12.710938 2.289062 C 12.902344 2.480469 13 2.714844 13 3 L 13 10.175781 L 14.875 8.300781 C 15.058594 8.117188 15.289062 8.023438 15.5625 8.023438 C 15.835938 8.023438 16.074219 8.117188 16.273438 8.300781 C 16.476562 8.5 16.574219 8.738281 16.574219 9.011719 C 16.574219 9.289062 16.476562 9.523438 16.273438 9.726562 L 12.699219 13.300781 C 12.5 13.5 12.265625 13.601562 12 13.601562 C 11.734375 13.601562 11.5 13.5 11.300781 13.300781 L 7.699219 9.699219 C 7.515625 9.515625 7.421875 9.289062 7.414062 9.011719 C 7.402344 8.738281 7.5 8.5 7.699219 8.300781 C 7.882812 8.117188 8.117188 8.023438 8.398438 8.023438 C 8.683594 8.023438 8.917969 8.117188 9.101562 8.300781 Z M 11 10.175781 "/>
</g>
</svg>
