<?xml version="1.0" encoding="UTF-8"?>
<svg xmlns="http://www.w3.org/2000/svg" xmlns:xlink="http://www.w3.org/1999/xlink" width="24px" height="24px" viewBox="0 0 24 24" version="1.1">
<g id="surface1">
<path style=" stroke:none;fill-rule:nonzero;fill:rgb(0%,0%,0%);fill-opacity:1;" d="M 5 10.726562 L 2.5 9.300781 C 2.351562 9.214844 2.230469 9.097656 2.136719 8.9375 C 2.046875 8.777344 2 8.609375 2 8.425781 L 2 5.574219 C 2 5.390625 2.046875 5.222656 2.136719 5.0625 C 2.230469 4.902344 2.351562 4.785156 2.5 4.699219 L 5 3.273438 C 5.148438 3.191406 5.316406 3.148438 5.5 3.148438 C 5.683594 3.148438 5.851562 3.191406 6 3.273438 L 8.5 4.699219 C 8.648438 4.785156 8.769531 4.902344 8.863281 5.0625 C 8.953125 5.222656 9 5.390625 9 5.574219 L 9 8.425781 C 9 8.609375 8.953125 8.777344 8.863281 8.9375 C 8.769531 9.097656 8.648438 9.214844 8.5 9.300781 L 6 10.726562 C 5.851562 10.808594 5.683594 10.851562 5.5 10.851562 C 5.316406 10.851562 5.148438 10.808594 5 10.726562 Z M 16.5 13 L 16.5 9.449219 L 19 10.925781 C 19.316406 11.109375 19.5625 11.351562 19.738281 11.648438 C 19.914062 11.949219 20 12.285156 20 12.648438 L 20 17.351562 C 20 17.714844 19.914062 18.050781 19.738281 18.351562 C 19.5625 18.648438 19.316406 18.890625 19 19.074219 L 15 21.398438 C 14.683594 21.582031 14.351562 21.675781 14 21.675781 C 13.648438 21.675781 13.316406 21.582031 13 21.398438 L 9 19.074219 C 8.683594 18.890625 8.4375 18.648438 8.261719 18.351562 C 8.085938 18.050781 8 17.714844 8 17.351562 L 8 12.648438 C 8 12.285156 8.085938 11.949219 8.261719 11.648438 C 8.4375 11.351562 8.683594 11.109375 9 10.925781 L 11.5 9.449219 L 11.5 13 C 11.5 13.699219 11.742188 14.292969 12.226562 14.773438 C 12.707031 15.257812 13.300781 15.5 14 15.5 C 14.699219 15.5 15.292969 15.257812 15.773438 14.773438 C 16.257812 14.292969 16.5 13.699219 16.5 13 Z M 15 8 L 15 13 C 15 13.285156 14.902344 13.519531 14.710938 13.710938 C 14.519531 13.902344 14.285156 14 14 14 C 13.714844 14 13.480469 13.902344 13.289062 13.710938 C 13.097656 13.519531 13 13.285156 13 13 L 13 3 C 13 2.714844 13.097656 2.480469 13.289062 2.289062 C 13.480469 2.097656 13.714844 2 14 2 L 20.125 2 C 20.523438 2 20.824219 2.175781 21.023438 2.523438 C 21.226562 2.875 21.207031 3.214844 20.976562 3.550781 L 20.375 4.449219 C 20.257812 4.617188 20.199219 4.800781 20.199219 5 C 20.199219 5.199219 20.257812 5.382812 20.375 5.550781 L 20.976562 6.449219 C 21.207031 6.785156 21.226562 7.125 21.023438 7.476562 C 20.824219 7.824219 20.523438 8 20.125 8 Z M 15 8 "/>
</g>
</svg>
