<svg xmlns="http://www.w3.org/2000/svg" width="24" height="24" viewBox="0 0 24 24"><path fill="currentColor" d="m16.1 11.9l-4-4l5.6-5.6q.15-.15.338-.225T18.424 2H21q.425 0 .712.288T22 3v2.575q0 .2-.075.388T21.7 6.3l-5.6 5.6ZM3.55 21.7L2.3 20.45q-.3-.3-.3-.7t.3-.7l2.9-2.925l-2.2-2.2l.7-.7q.575-.575 1.425-.575t1.425.575l.1.125l1.2-1.2l4 4l-1.2 1.2l.125.1q.575.575.575 1.425t-.575 1.425l-.7.7l-2.2-2.2l-2.925 2.9q-.3.3-.7.3t-.7-.3Zm16.7-.025L8.925 10.4q-1.225.75-2.675.588t-2.5-1.213l-.625-.625l.675-.7q.65-.675 1.588-.662t1.587.662l1.95 1.95q.225-.125.425-.287t.4-.363q.175-.175.325-.375t.275-.4L8.4 7.025q-1.275-1.25-3.025-1.25T2.4 7.05l-.675.675L1 7l6-5.975l2.75 2.75Q10.825 4.85 10.963 6.3t-.613 2.675l7.225 7.225q-.2-.65-.25-1.35t.075-1.4q.275-1.275 1.075-2.3t1.9-1.675q.35-.2.738-.125t.612.4q.725 1.025 1.088 2.275t.087 2.525q-.275 1.275-1.063 2.275t-1.912 1.725l1.725 1.725q.275.275.288.688t-.288.712q-.275.275-.7.275t-.7-.275Z"/></svg>