<?xml version="1.0" encoding="UTF-8"?>
<svg xmlns="http://www.w3.org/2000/svg" xmlns:xlink="http://www.w3.org/1999/xlink" width="24px" height="px" viewBox="0 0 24 24" version="1.1">
<g id="surface1">
<path style=" stroke:none;fill-rule:nonzero;fill:rgb(0%,0%,0%);fill-opacity:1;" d="M 18.5 17.800781 L 18.5 15.5 C 18.5 15.367188 18.449219 15.25 18.351562 15.148438 C 18.25 15.050781 18.132812 15 18 15 C 17.867188 15 17.75 15.050781 17.648438 15.148438 C 17.550781 15.25 17.5 15.367188 17.5 15.5 L 17.5 17.773438 C 17.5 17.910156 17.523438 18.039062 17.574219 18.164062 C 17.625 18.289062 17.699219 18.398438 17.800781 18.5 L 19.300781 20 C 19.398438 20.101562 19.515625 20.148438 19.648438 20.148438 C 19.785156 20.148438 19.898438 20.101562 20 20 C 20.101562 19.898438 20.148438 19.785156 20.148438 19.648438 C 20.148438 19.515625 20.101562 19.398438 20 19.300781 Z M 13 6 L 13 9 C 13 9.285156 13.097656 9.519531 13.289062 9.710938 C 13.480469 9.902344 13.714844 10 14 10 L 20 10 L 20 6 Z M 18 23 C 16.617188 23 15.4375 22.511719 14.460938 21.539062 C 13.488281 20.5625 13 19.382812 13 18 C 13 16.617188 13.488281 15.4375 14.460938 14.460938 C 15.4375 13.488281 16.617188 13 18 13 C 19.382812 13 20.5625 13.488281 21.539062 14.460938 C 22.511719 15.4375 23 16.617188 23 18 C 23 19.382812 22.511719 20.5625 21.539062 21.539062 C 20.5625 22.511719 19.382812 23 18 23 Z M 4 20 C 3.449219 20 2.980469 19.804688 2.585938 19.414062 C 2.195312 19.019531 2 18.550781 2 18 L 2 6 C 2 5.449219 2.195312 4.980469 2.585938 4.585938 C 2.980469 4.195312 3.449219 4 4 4 L 20 4 C 20.550781 4 21.019531 4.195312 21.414062 4.585938 C 21.804688 4.980469 22 5.449219 22 6 L 22 12.273438 C 21.417969 11.859375 20.777344 11.542969 20.085938 11.324219 C 19.394531 11.109375 18.691406 11 17.976562 11 C 16.042969 11 14.394531 11.683594 13.039062 13.050781 C 11.679688 14.417969 11 16.066406 11 18 C 11 18.351562 11.023438 18.691406 11.074219 19.023438 C 11.125 19.359375 11.199219 19.683594 11.300781 20 Z M 4 20 "/>
</g>
</svg>
