<?xml version="1.0" encoding="UTF-8"?>
<svg xmlns="http://www.w3.org/2000/svg" xmlns:xlink="http://www.w3.org/1999/xlink" width="24px" height="24px" viewBox="0 0 24 24" version="1.1">
<g id="surface1">
<path style=" stroke:none;fill-rule:nonzero;fill:rgb(0%,0%,0%);fill-opacity:1;" d="M 19.175781 20 L 16 20 C 15.714844 20 15.480469 19.902344 15.289062 19.710938 C 15.097656 19.519531 15 19.285156 15 19 C 15 18.714844 15.097656 18.480469 15.289062 18.289062 C 15.480469 18.097656 15.714844 18 16 18 L 19.175781 18 L 18.273438 17.101562 C 18.089844 16.917969 18 16.6875 18 16.414062 C 18 16.136719 18.101562 15.898438 18.300781 15.699219 C 18.484375 15.515625 18.714844 15.425781 19 15.425781 C 19.285156 15.425781 19.515625 15.515625 19.699219 15.699219 L 22.300781 18.300781 C 22.5 18.5 22.601562 18.734375 22.601562 19 C 22.601562 19.265625 22.5 19.5 22.300781 19.699219 L 19.699219 22.300781 C 19.515625 22.484375 19.289062 22.578125 19.011719 22.585938 C 18.738281 22.597656 18.5 22.5 18.300781 22.300781 C 18.117188 22.117188 18.023438 21.882812 18.023438 21.601562 C 18.023438 21.316406 18.117188 21.082031 18.300781 20.898438 Z M 5 21 C 4.449219 21 3.980469 20.804688 3.585938 20.414062 C 3.195312 20.019531 3 19.550781 3 19 L 3 5 C 3 4.449219 3.195312 3.980469 3.585938 3.585938 C 3.980469 3.195312 4.449219 3 5 3 L 19 3 C 19.550781 3 20.019531 3.195312 20.414062 3.585938 C 20.804688 3.980469 21 4.449219 21 5 L 21 13.351562 C 20.683594 13.234375 20.355469 13.144531 20.011719 13.085938 C 19.671875 13.027344 19.324219 13 18.976562 13 C 18.324219 13 17.707031 13.101562 17.125 13.300781 C 16.542969 13.5 16.007812 13.773438 15.523438 14.125 L 13.398438 12 L 15.550781 9.851562 C 15.734375 9.667969 15.824219 9.433594 15.824219 9.148438 C 15.824219 8.867188 15.734375 8.632812 15.550781 8.449219 C 15.367188 8.265625 15.132812 8.175781 14.851562 8.175781 C 14.566406 8.175781 14.332031 8.265625 14.148438 8.449219 L 12 10.601562 L 9.851562 8.449219 C 9.667969 8.265625 9.433594 8.175781 9.148438 8.175781 C 8.867188 8.175781 8.632812 8.265625 8.449219 8.449219 C 8.265625 8.632812 8.175781 8.867188 8.175781 9.148438 C 8.175781 9.433594 8.265625 9.667969 8.449219 9.851562 L 10.601562 12 L 8.449219 14.148438 C 8.265625 14.332031 8.175781 14.566406 8.175781 14.851562 C 8.175781 15.132812 8.265625 15.367188 8.449219 15.550781 C 8.632812 15.734375 8.867188 15.824219 9.148438 15.824219 C 9.433594 15.824219 9.667969 15.734375 9.851562 15.550781 L 12 13.398438 L 14.125 15.523438 C 13.773438 16.007812 13.5 16.546875 13.300781 17.136719 C 13.101562 17.730469 13 18.351562 13 19 C 13 19.351562 13.027344 19.691406 13.085938 20.023438 C 13.144531 20.359375 13.234375 20.683594 13.351562 21 Z M 5 21 "/>
</g>
</svg>
