<?xml version="1.0" encoding="UTF-8"?>
<svg xmlns="http://www.w3.org/2000/svg" xmlns:xlink="http://www.w3.org/1999/xlink" width="24px" height="24px" viewBox="0 0 24 24" version="1.1">
<g id="surface1">
<path style=" stroke:none;fill-rule:nonzero;fill:rgb(0%,0%,0%);fill-opacity:1;" d="M 4 15.5 C 3.714844 15.5 3.480469 15.402344 3.289062 15.210938 C 3.097656 15.019531 3 14.785156 3 14.5 L 3 14 C 3 13.714844 3.097656 13.480469 3.289062 13.289062 C 3.480469 13.097656 3.714844 13 4 13 L 20 13 C 20.285156 13 20.519531 13.097656 20.710938 13.289062 C 20.902344 13.480469 21 13.714844 21 14 L 21 14.5 C 21 14.785156 20.902344 15.019531 20.710938 15.210938 C 20.519531 15.402344 20.285156 15.5 20 15.5 Z M 4 11 C 3.714844 11 3.480469 10.902344 3.289062 10.710938 C 3.097656 10.519531 3 10.285156 3 10 L 3 9.5 C 3 9.214844 3.097656 8.980469 3.289062 8.789062 C 3.480469 8.597656 3.714844 8.5 4 8.5 L 20 8.5 C 20.285156 8.5 20.519531 8.597656 20.710938 8.789062 C 20.902344 8.980469 21 9.214844 21 9.5 L 21 10 C 21 10.285156 20.902344 10.519531 20.710938 10.710938 C 20.519531 10.902344 20.285156 11 20 11 Z M 4 6.5 C 3.714844 6.5 3.480469 6.402344 3.289062 6.210938 C 3.097656 6.019531 3 5.785156 3 5.5 L 3 5 C 3 4.714844 3.097656 4.480469 3.289062 4.289062 C 3.480469 4.097656 3.714844 4 4 4 L 20 4 C 20.285156 4 20.519531 4.097656 20.710938 4.289062 C 20.902344 4.480469 21 4.714844 21 5 L 21 5.5 C 21 5.785156 20.902344 6.019531 20.710938 6.210938 C 20.519531 6.402344 20.285156 6.5 20 6.5 Z M 4 20 C 3.714844 20 3.480469 19.902344 3.289062 19.710938 C 3.097656 19.519531 3 19.285156 3 19 L 3 18.5 C 3 18.214844 3.097656 17.980469 3.289062 17.789062 C 3.480469 17.597656 3.714844 17.5 4 17.5 L 20 17.5 C 20.285156 17.5 20.519531 17.597656 20.710938 17.789062 C 20.902344 17.980469 21 18.214844 21 18.5 L 21 19 C 21 19.285156 20.902344 19.519531 20.710938 19.710938 C 20.519531 19.902344 20.285156 20 20 20 Z M 4 20 "/>
</g>
</svg>
