<svg xmlns="http://www.w3.org/2000/svg" width="24" height="24" viewBox="0 0 24 24"><path fill="currentColor" d="M7 16q-.425 0-.713-.288T6 15q0-.425.288-.713T7 14h2q.425 0 .713.288T10 15q0 .425-.288.713T9 16H7Zm0-4q-.425 0-.713-.288T6 11q0-.425.288-.713T7 10h11q.425 0 .713.288T19 11q0 .425-.288.713T18 12H7Zm0-4q-.425 0-.713-.288T6 7q0-.425.288-.713T7 6h11q.425 0 .713.288T19 7q0 .425-.288.713T18 8H7Zm8.95 11.575q-.2 0-.375-.062t-.325-.213l-2.85-2.85q-.3-.3-.288-.713t.313-.712q.3-.3.713-.3t.712.3l2.1 2.125l4.925-4.925q.3-.3.713-.288t.712.313q.275.3.288.7t-.288.7l-5.65 5.65q-.15.15-.325.213t-.375.062ZM3 8q-.425 0-.713-.288T2 7q0-.425.288-.713T3 6q.425 0 .713.288T4 7q0 .425-.288.713T3 8Zm0 4q-.425 0-.713-.288T2 11q0-.425.288-.713T3 10q.425 0 .713.288T4 11q0 .425-.288.713T3 12Zm0 4q-.425 0-.713-.288T2 15q0-.425.288-.713T3 14q.425 0 .713.288T4 15q0 .425-.288.713T3 16Z"/></svg>