<svg xmlns="http://www.w3.org/2000/svg" width="24" height="24" viewBox="0 0 24 24"><path d="M12 18q.425 0 .713-.288T13 17q0-.425-.288-.713T12 16q-.425 0-.713.288T11 17q0 .425.288.713T12 18Zm-1-4q0 .425.288.713T12 15q.425 0 .713-.288T13 14v-1.025l-2-2V14Zm10.875 5.05l-12.5-12.5l1.75-3.05Q11.4 3 12 3t.875.5l9 15.55Zm-2.1 3.525L18.175 21H2.725q-.575 0-.85-.5t0-1L8.35 8.325l6.975 6.95h-2.85L1.375 4.2q-.3-.3-.288-.712t.313-.713q.3-.3.713-.3t.712.3l18.375 18.4q.3.3.3.7t-.3.7q-.3.3-.713.3t-.712-.3Z"/></svg>