<svg xmlns="http://www.w3.org/2000/svg" width="24" height="24" viewBox="0 0 24 24"><path d="M9.75 14q-.325 0-.537-.213T9 13.25v-2.5q0-.325.213-.537T9.75 10q.325 0 .537.213t.213.537v2.5q0 .325-.213.537T9.75 14ZM12 14q-.325 0-.537-.213t-.213-.537v-1.5q0-.325.213-.537T12 11q.325 0 .537.213t.213.537v1.5q0 .325-.213.537T12 14Zm2.25 0q-.325 0-.537-.213t-.213-.537v-.5q0-.325.213-.537T14.25 12q.325 0 .537.213t.213.537v.5q0 .325-.213.537T14.25 14Zm-3.75 8q-.65 0-1.188-.388t-.737-1.037L7.65 17.45q-1.2-.95-1.925-2.375T5 12q0-1.65.725-3.075T7.65 6.55l.925-3.125q.2-.65.738-1.037T10.5 2h3q.65 0 1.188.388t.737 1.037l.925 3.125q1.2.95 1.925 2.375T19 12q0 1.65-.725 3.075T16.35 17.45l-.925 3.125q-.2.65-.738 1.038T13.5 22h-3Zm1.5-5q2.075 0 3.538-1.463T17 12q0-2.075-1.463-3.538T12 7Q9.925 7 8.462 8.463T7 12q0 2.075 1.463 3.538T12 17Z"/></svg>