<svg xmlns="http://www.w3.org/2000/svg" width="24" height="24" viewBox="0 0 24 24"><path d="M20 12q-.425 0-.713-.288T19 11V4q0-.425.288-.713T20 3q.425 0 .713.288T21 4v7q0 .425-.288.713T20 12ZM8.5 22q-.65 0-1.188-.388t-.737-1.037L5.65 17.45q-1.2-.95-1.925-2.375T3 12q0-1.65.725-3.075T5.65 6.55l.925-3.125q.2-.65.738-1.037T8.5 2h3q.65 0 1.188.388t.737 1.037l.925 3.125q1.2.95 1.925 2.375T17 12q0 1.65-.725 3.075T14.35 17.45l-.925 3.125q-.2.65-.738 1.038T11.5 22h-3Zm1.5-5q2.075 0 3.538-1.463T15 12q0-2.075-1.463-3.538T10 7Q7.925 7 6.462 8.463T5 12q0 2.075 1.463 3.538T10 17Z"/></svg>