<svg xmlns="http://www.w3.org/2000/svg" width="24" height="24" viewBox="0 0 24 24"><path fill="currentColor" d="M12 15q.825 0 1.413-.588T14 13q0-.575-.238-1.137t-.912-1.613l-.425-.625Q12.275 9.4 12 9.4t-.425.225l-.425.625q-.675 1.05-.913 1.613T10 13q0 .825.588 1.413T12 15Zm0 3.25q-2.6 0-4.425-1.825T5.75 12q0-2.6 1.825-4.425T12 5.75q2.6 0 4.425 1.825T18.25 12q0 2.6-1.825 4.425T12 18.25ZM21 11h-1.325q-.25-1.95-1.4-3.55T15.325 5H21q0-.425.288-.713T22 4q.425 0 .713.288T23 5v6q0 .425-.288.713T22 12q-.4 0-.563-.363T21 11ZM1 19v-6q0-.425.288-.713T2 12q.425 0 .713.288T3 13h1.325q.25 1.95 1.4 3.55T8.675 19H3q0 .425-.288.713T2 20q-.425 0-.713-.288T1 19Z"/></svg>