<svg xmlns="http://www.w3.org/2000/svg" width="24" height="24" viewBox="0 0 24 24"><path d="M19 22q-1.05 0-1.775-.725T16.5 19.5q0-.5.175-.913t.475-.762l1.3-1.45q.225-.25.55-.25t.55.25l1.3 1.45q.3.35.475.763t.175.912q0 1.05-.725 1.775T19 22ZM9 8h6V6q0-1.25-.875-2.125T12 3q-1.25 0-2.125.875T9 6v2Zm3 9q.825 0 1.413-.588T14 15q0-.825-.588-1.413T12 13q-.825 0-1.413.588T10 15q0 .825.588 1.413T12 17Zm-6 5q-.825 0-1.413-.588T4 20V10q0-.825.588-1.413T6 8h1V6q0-2.075 1.463-3.538T12 1q2.075 0 3.538 1.463T17 6v2h1q.825 0 1.413.588T20 10v4.1q-.275-.05-.525-.075T18.95 14q-2.05 0-3.5 1.45T14 18.975q0 .825.25 1.6T15.025 22H6Z"/></svg>